<?xml version="1.0" encoding="UTF-8"?>
<svg xmlns="http://www.w3.org/2000/svg" width="2000" height="2000" viewBox="0 0 2000 2000">
<g fill="none" stroke-linecap="round" stroke-linejoin="round">
  <path d="M 1000.19 1002.44 L 1001.64 999.36 L 1003.09 996.28 L 1004.55 993.24 L 1006.01 990.20 L 1007.45 987.17 L 1008.84 984.13 L 1010.23 981.11 L 1011.61 978.10 L 1012.98 975.09 L 1014.35 972.10 L 1015.71 969.12 L 1017.02 966.13 L 1018.31 963.15 L 1019.59 960.18 L 1020.90 957.23 L 1022.21 954.30 L 1023.52 951.38 L 1024.82 948.48 L 1026.13 945.58 L 1027.40 942.69 L 1028.65 939.81 L 1029.90 936.93 L 1031.15 934.07 L 1032.34 931.19 L 1033.53 928.33 L 1034.69 925.48 L 1035.87 922.64 L 1037.04 919.81 L 1038.25 917.02 L 1039.45 914.23 L 1040.64 911.45 L 1041.83 908.68 L 1043.03 905.93" stroke="rgb(120,210,255)" stroke-opacity="0.855" stroke-width="1.64" />
  <path d="M 997.38 999.21 L 998.38 995.91 L 999.37 992.63 L 1000.35 989.35 L 1001.39 986.11 L 1002.45 982.89 L 1003.54 979.69 L 1004.63 976.51 L 1005.75 973.35 L 1006.86 970.20 L 1007.96 967.06 L 1009.05 963.94 L 1010.12 960.82 L 1011.18 957.71 L 1012.16 954.59 L 1013.13 951.47 L 1014.11 948.38 L 1015.05 945.29 L 1016.00 942.21 L 1016.94 939.14 L 1017.83 936.08 L 1018.74 933.03 L 1019.66 930.00 L 1020.62 927.00 L 1021.56 924.00 L 1022.53 921.03 L 1023.48 918.07 L 1024.42 915.12 L 1025.29 912.16 L 1026.17 909.21 L 1027.04 906.28 L 1027.88 903.35 L 1028.70 900.42 L 1029.50 897.50 L 1030.28 894.59 L 1031.05 891.69 L 1031.82 888.80 L 1032.56 885.92 L 1033.29 883.05 L 1034.02 880.19 L 1034.73 877.34 L 1035.47 874.51 L 1036.23 871.70 L 1036.97 868.89 L 1037.72 866.10 L 1038.49 863.32 L 1039.27 860.56 L 1040.05 857.80 L 1040.83 855.07 L 1041.63 852.35 L 1042.43 849.65 L 1043.19 846.95 L 1043.96 844.26 L 1044.72 841.58 L 1045.51 838.92 L 1046.30 836.26 L 1047.09 833.62 L 1047.85 830.99 L 1048.60 828.37 L 1049.36 825.77 L 1050.09 823.18 L 1050.82 820.60 L 1051.55 818.02 L 1052.26 815.45 L 1052.95 812.89 L 1053.63 810.34 L 1054.34 807.80 L 1055.07 805.27 L 1055.77 802.76 L 1056.46 800.25 L 1057.11 797.74 L 1057.77 795.26 L 1058.43 792.78 L 1059.09 790.31 L 1059.74 787.85" stroke="rgb(120,210,255)" stroke-opacity="0.853" stroke-width="1.63" />
  <path d="M 1002.90 1002.05 L 1004.03 998.77 L 1005.18 995.52 L 1006.31 992.27 L 1007.38 989.02 L 1008.45 985.78 L 1009.52 982.55 L 1010.57 979.34 L 1011.61 976.13 L 1012.65 972.94 L 1013.70 969.77 L 1014.75 966.61 L 1015.80 963.46 L 1016.87 960.34 L 1017.93 957.22 L 1018.99 954.12 L 1020.05 951.04 L 1021.18 947.99 L 1022.33 944.97 L 1023.47 941.95 L 1024.61 938.95 L 1025.74 935.96 L 1026.88 932.98 L 1028.02 930.02 L 1029.16 927.07 L 1030.28 924.13 L 1031.38 921.19" stroke="rgb(120,210,255)" stroke-opacity="0.853" stroke-width="1.63" />
  <path d="M 1021.15 948.57 L 1022.35 945.59 L 1023.56 942.61 L 1024.81 939.67 L 1026.10 936.76 L 1027.39 933.86 L 1028.67 930.98 L 1029.95 928.10 L 1031.16 925.21 L 1032.36 922.33 L 1033.55 919.46 L 1034.67 916.58 L 1035.80 913.71 L 1036.86 910.83 L 1037.93 907.96 L 1038.98 905.11 L 1040.02 902.26 L 1041.05 899.42 L 1042.11 896.60 L 1043.20 893.81 L 1044.36 891.05 L 1045.48 888.30 L 1046.64 885.57 L 1047.83 882.87 L 1049.01 880.17 L 1050.20 877.50 L 1051.38 874.83 L 1052.58 872.18 L 1053.78 869.55 L 1054.98 866.92 L 1056.26 864.35 L 1057.55 861.80 L 1058.81 859.25 L 1060.07 856.71 L 1061.32 854.17 L 1062.56 851.65 L 1063.78 849.13 L 1064.96 846.60 L 1066.08 844.06 L 1067.23 841.54 L 1068.37 839.04 L 1069.51 836.54 L 1070.74 834.10 L 1071.96 831.67 L 1073.18 829.24 L 1074.38 826.83 L 1075.58 824.42 L 1076.80 822.03 L 1077.99 819.64 L 1079.16 817.24" stroke="rgb(120,210,255)" stroke-opacity="0.851" stroke-width="1.63" />
  <path d="M 998.09 997.78 L 999.19 994.88 L 1000.29 992.00 L 1001.39 989.13 L 1002.52 986.28 L 1003.63 983.44 L 1004.74 980.61 L 1005.84 977.79 L 1006.91 974.97 L 1007.96 972.16 L 1009.05 969.37 L 1010.14 966.60 L 1011.23 963.84 L 1012.34 961.11 L 1013.44 958.39 L 1014.58 955.69 L 1015.70 953.00 L 1016.77 950.29 L 1017.74 947.56 L 1018.75 944.86 L 1019.73 942.15 L 1020.65 939.44 L 1021.58 936.75 L 1022.46 934.05 L 1023.39 931.38 L 1024.39 928.74 L 1025.37 926.11 L 1026.32 923.48 L 1027.28 920.87 L 1028.24 918.27 L 1029.20 915.68 L 1030.18 913.10 L 1031.20 910.56 L 1032.23 908.04 L 1033.23 905.50 L 1034.21 902.98 L 1035.20 900.47 L 1036.24 897.99 L 1037.25 895.52 L 1038.31 893.08 L 1039.35 890.63 L 1040.37 888.20" stroke="rgb(120,210,255)" stroke-opacity="0.468" stroke-width="1.62" />
  <path d="M 1003.25 1000.87 L 1004.69 997.74 L 1006.14 994.64 L 1007.61 991.55 L 1009.08 988.49 L 1010.54 985.43 L 1011.96 982.37 L 1013.40 979.33 L 1014.86 976.31 L 1016.31 973.30 L 1017.72 970.29 L 1019.14 967.30 L 1020.56 964.32 L 1021.93 961.34 L 1023.30 958.36 L 1024.66 955.40 L 1025.96 952.43 L 1027.27 949.47 L 1028.56 946.53 L 1029.84 943.59 L 1031.14 940.67 L 1032.42 937.76 L 1033.69 934.86 L 1034.96 931.97 L 1036.24 929.10 L 1037.50 926.23 L 1038.76 923.37 L 1040.00 920.53 L 1041.29 917.71 L 1042.59 914.91 L 1043.89 912.13 L 1045.17 909.35 L 1046.43 906.58 L 1047.69 903.82 L 1048.96 901.07 L 1050.22 898.34 L 1051.41 895.59 L 1052.60 892.85 L 1053.76 890.12 L 1054.91 887.39 L 1056.07 884.68 L 1057.24 881.99 L 1058.42 879.32 L 1059.55 876.63 L 1060.68 873.96 L 1061.81 871.29 L 1062.95 868.65 L 1064.09 866.01 L 1065.24 863.39 L 1066.38 860.78 L 1067.50 858.18 L 1068.62 855.58 L 1069.78 853.02 L 1070.95 850.48 L 1072.13 847.96 L 1073.31 845.45 L 1074.46 842.94 L 1075.61 840.44 L 1076.72 837.95" stroke="rgb(120,210,255)" stroke-opacity="0.850" stroke-width="1.62" />
  <path d="M 1025.74 935.96 L 1026.47 932.60 L 1027.20 929.27 L 1028.05 925.97 L 1028.89 922.69 L 1029.75 919.42 L 1030.61 916.18 L 1031.46 912.94 L 1032.29 909.71 L 1033.13 906.49 L 1034.04 903.31 L 1034.95 900.15 L 1035.84 896.99 L 1036.73 893.85 L 1037.64 890.72 L 1038.54 887.61 L 1039.45 884.51 L 1040.36 881.42 L 1041.30 878.36 L 1042.24 875.31 L 1043.17 872.27 L 1044.06 869.24" stroke="rgb(120,210,255)" stroke-opacity="0.846" stroke-width="1.61" />
  <path d="M 1001.01 996.23 L 1002.20 992.95 L 1003.36 989.67 L 1004.53 986.41 L 1005.71 983.17 L 1006.89 979.94 L 1008.07 976.73 L 1009.22 973.52 L 1010.40 970.34 L 1011.59 967.17 L 1012.79 964.03 L 1013.94 960.87 L 1015.06 957.73 L 1016.17 954.59 L 1017.25 951.46 L 1018.33 948.34 L 1019.37 945.22 L 1020.42 942.12 L 1021.45 939.03 L 1022.43 935.93 L 1023.42 932.85 L 1024.40 929.79 L 1025.38 926.73 L 1026.36 923.69 L 1027.32 920.66 L 1028.28 917.63 L 1029.24 914.63 L 1030.21 911.64 L 1031.18 908.66 L 1032.16 905.70 L 1033.16 902.75 L 1034.15 899.82 L 1035.15 896.91 L 1036.15 894.01 L 1037.16 891.12 L 1038.16 888.25 L 1039.15 885.38 L 1040.13 882.52 L 1041.12 879.68 L 1042.08 876.84 L 1043.04 874.01 L 1043.99 871.20 L 1044.94 868.39 L 1045.88 865.60 L 1046.85 862.82 L 1047.77 860.05 L 1048.69 857.29 L 1049.59 854.53 L 1050.52 851.80 L 1051.40 849.06 L 1052.28 846.33 L 1053.18 843.62 L 1054.11 840.93 L 1055.02 838.24 L 1055.91 835.57 L 1056.79 832.90 L 1057.63 830.23 L 1058.45 827.56 L 1059.21 824.89 L 1059.98 822.23 L 1060.77 819.59 L 1061.56 816.96 L 1062.34 814.34 L 1063.10 811.73 L 1063.90 809.14 L 1064.69 806.56 L 1065.47 803.98 L 1066.22 801.41" stroke="rgb(120,210,255)" stroke-opacity="0.843" stroke-width="1.60" />
  <path d="M 997.03 998.36 L 998.29 995.59 L 999.55 992.84 L 1000.81 990.09 L 1002.06 987.36 L 1003.33 984.64 L 1004.58 981.94 L 1005.81 979.24 L 1007.05 976.55 L 1008.23 973.85 L 1009.42 971.16 L 1010.57 968.48 L 1011.71 965.80 L 1012.83 963.12 L 1013.93 960.45 L 1015.02 957.79 L 1016.07 955.13 L 1017.05 952.45 L 1018.11 949.82 L 1019.19 947.20 L 1020.29 944.61 L 1021.37 942.02 L 1022.51 939.47 L 1023.65 936.93 L 1024.79 934.41 L 1025.91 931.89 L 1027.02 929.37 L 1028.12 926.86 L 1029.20 924.35 L 1030.26 921.85 L 1031.37 919.37 L 1032.49 916.92 L 1033.64 914.50 L 1034.72 912.05 L 1035.84 909.63 L 1037.01 907.25" stroke="rgb(120,210,255)" stroke-opacity="0.463" stroke-width="1.60" />
  <path d="M 1016.87 960.34 L 1018.00 957.07 L 1019.14 953.81 L 1020.28 950.57 L 1021.41 947.34 L 1022.54 944.12 L 1023.69 940.92 L 1024.91 937.76 L 1026.11 934.61 L 1027.24 931.44 L 1028.37 928.30 L 1029.50 925.16 L 1030.63 922.03 L 1031.77 918.92 L 1032.90 915.82 L 1034.01 912.72 L 1035.15 909.65 L 1036.29 906.60 L 1037.49 903.59 L 1038.71 900.60 L 1039.92 897.62 L 1041.11 894.64 L 1042.29 891.68 L 1043.48 888.73 L 1044.67 885.80 L 1045.85 882.88 L 1047.03 879.97 L 1048.19 877.08 L 1049.35 874.19 L 1050.48 871.31 L 1051.60 868.43 L 1052.71 865.57 L 1053.82 862.72 L 1054.94 859.89 L 1056.03 857.06 L 1057.13 854.24 L 1058.20 851.43 L 1059.28 848.64 L 1060.38 845.87 L 1061.48 843.12 L 1062.56 840.38 L 1063.64 837.66 L 1064.71 834.93 L 1065.77 832.23 L 1066.81 829.52 L 1067.83 826.83 L 1068.84 824.14 L 1069.82 821.44 L 1070.81 818.76 L 1071.79 816.10 L 1072.77 813.45 L 1073.72 810.81 L 1074.68 808.20 L 1075.60 805.58 L 1076.50 802.97 L 1077.40 800.37 L 1078.26 797.77 L 1079.11 795.17 L 1080.01 792.60" stroke="rgb(120,210,255)" stroke-opacity="0.842" stroke-width="1.60" />
  <path d="M 999.63 999.61 L 1000.85 996.67 L 1002.11 993.76 L 1003.32 990.84 L 1004.54 987.95 L 1005.77 985.06 L 1007.00 982.19 L 1008.18 979.32 L 1009.41 976.48 L 1010.63 973.65 L 1011.85 970.83 L 1013.03 968.01 L 1014.21 965.21 L 1015.39 962.41 L 1016.57 959.63 L 1017.70 956.84 L 1018.84 954.07 L 1020.01 951.32 L 1021.15 948.57 L 1022.26 945.83 L 1023.35 943.09 L 1024.43 940.35 L 1025.54 937.65 L 1026.65 934.95 L 1027.73 932.26 L 1028.80 929.57 L 1029.88 926.90 L 1030.95 924.23 L 1032.06 921.60 L 1033.17 918.98 L 1034.30 916.38 L 1035.33 913.76 L 1036.39 911.15 L 1037.40 908.54 L 1038.34 905.91 L 1039.26 903.29 L 1040.18 900.68 L 1041.09 898.08 L 1042.03 895.50 L 1042.91 892.92 L 1043.80 890.34 L 1044.69 887.78 L 1045.57 885.22 L 1046.41 882.67 L 1047.15 880.09 L 1047.85 877.51 L 1048.54 874.95 L 1049.21 872.39 L 1049.92 869.86 L 1050.63 867.33 L 1051.36 864.82 L 1052.07 862.31 L 1052.77 859.81 L 1053.49 857.33 L 1054.21 854.86 L 1054.93 852.40 L 1055.61 849.94 L 1056.35 847.50 L 1057.12 845.09 L 1057.86 842.68 L 1058.58 840.27 L 1059.32 837.88 L 1060.05 835.49 L 1060.78 833.12 L 1061.50 830.75 L 1062.20 828.39 L 1062.98 826.07" stroke="rgb(120,210,255)" stroke-opacity="0.841" stroke-width="1.60" />
  <path d="M 1049.21 872.39 L 1050.62 870.17 L 1052.02 867.97 L 1053.38 865.76 L 1054.75 863.56 L 1056.11 861.37 L 1057.46 859.18 L 1058.81 857.00 L 1060.15 854.82 L 1061.50 852.68 L 1062.85 850.55 L 1064.20 848.41 L 1065.41 846.20 L 1066.63 844.01 L 1067.84 841.82 L 1069.05 839.63 L 1070.27 837.46 L 1071.41 835.25 L 1072.46 833.01 L 1073.47 830.75 L 1074.52 828.52 L 1075.52 826.28 L 1076.43 824.02 L 1077.35 821.76 L 1078.26 819.52 L 1079.16 817.28 L 1080.05 815.05 L 1080.94 812.83 L 1081.83 810.62 L 1082.71 808.41 L 1083.59 806.22 L 1084.50 804.05 L 1085.45 801.91 L 1086.31 799.74 L 1087.18 797.58 L 1088.04 795.43 L 1088.77 793.24" stroke="rgb(120,210,255)" stroke-opacity="0.451" stroke-width="1.53" />
  <path d="M 1039.66 887.87 L 1040.35 885.96 L 1041.12 884.08 L 1041.90 882.20 L 1042.56 880.31 L 1043.38 878.51 L 1044.17 876.68 L 1044.99 874.86 L 1045.90 873.06 L 1046.81 871.25 L 1047.72 869.45 L 1048.68 867.72 L 1049.64 865.99 L 1050.57 864.26 L 1051.62 862.58 L 1052.43 860.78 L 1053.31 859.06 L 1054.21 857.40 L 1055.23 855.82 L 1056.22 854.23 L 1057.32 852.72 L 1058.50 851.24 L 1059.63 849.78 L 1060.76 848.33" stroke="rgb(140,255,190)" stroke-opacity="0.584" stroke-width="1.29" />
  <path d="M 1000.48 997.82 L 1001.07 994.44 L 1001.63 991.06 L 1002.18 987.69 L 1002.71 984.33 L 1003.25 980.99 L 1003.90 977.68 L 1004.52 974.38 L 1005.17 971.11 L 1005.84 967.87 L 1006.52 964.65 L 1007.20 961.44 L 1007.87 958.25 L 1008.51 955.06 L 1009.15 951.88 L 1009.75 948.72 L 1010.44 945.57 L 1011.11 942.44 L 1011.80 939.34 L 1012.44 936.24 L 1013.09 933.15 L 1013.72 930.08 L 1014.35 927.01 L 1015.01 923.98 L 1015.71 920.96 L 1016.42 917.97 L 1017.14 914.99 L 1017.85 912.03 L 1018.56 909.08 L 1019.29 906.13 L 1020.06 903.20 L 1020.79 900.27 L 1021.52 897.35 L 1022.25 894.43 L 1022.96 891.53 L 1023.67 888.64 L 1024.38 885.76 L 1025.06 882.88 L 1025.75 880.01 L 1026.44 877.15 L 1027.14 874.32 L 1027.84 871.49 L 1028.57 868.67 L 1029.32 865.87 L 1030.06 863.08 L 1030.80 860.30" stroke="rgb(205,165,255)" stroke-opacity="0.722" stroke-width="1.25" />
  <path d="M 998.97 1003.73 L 1000.43 1006.75 L 1001.89 1009.77 L 1003.36 1012.76 L 1004.82 1015.74 L 1006.28 1018.70 L 1007.72 1021.67 L 1009.16 1024.61 L 1010.58 1027.55 L 1011.98 1030.47 L 1013.39 1033.38 L 1014.78 1036.28 L 1016.16 1039.17 L 1017.54 1042.06 L 1018.92 1044.93 L 1020.31 1047.77 L 1021.70 1050.60 L 1023.05 1053.43 L 1024.40 1056.25 L 1025.74 1059.06 L 1027.05 1061.87 L 1028.35 1064.67 L 1029.64 1067.48 L 1030.91 1070.28 L 1032.19 1073.05 L 1033.48 1075.81 L 1034.75 1078.55 L 1036.00 1081.29 L 1037.27 1083.99 L 1038.53 1086.69 L 1039.79 1089.38 L 1041.02 1092.05 L 1042.26 1094.70 L 1043.54 1097.34 L 1044.80 1099.96 L 1046.09 1102.56 L 1047.44 1105.13 L 1048.79 1107.68 L 1050.13 1110.22 L 1051.45 1112.76 L 1052.80 1115.28 L 1054.17 1117.76 L 1055.54 1120.25 L 1056.90 1122.72 L 1058.26 1125.17 L 1059.60 1127.63 L 1060.96 1130.07 L 1062.36 1132.50 L 1063.77 1134.91 L 1065.13 1137.33 L 1066.49 1139.74 L 1067.86 1142.13 L 1069.21 1144.52 L 1070.53 1146.91 L 1071.84 1149.30 L 1073.15 1151.67 L 1074.44 1154.02 L 1075.75 1156.33 L 1076.99 1158.66 L 1078.21 1160.99 L 1079.38 1163.32 L 1080.57 1165.61 L 1081.76 1167.89 L 1082.94 1170.16 L 1084.14 1172.42 L 1085.33 1174.66 L 1086.52 1176.90 L 1087.69 1179.13 L 1088.85 1181.35 L 1090.02 1183.57 L 1091.17 1185.78 L 1092.33 1187.98 L 1093.48 1190.17 L 1094.67 1192.32 L 1095.86 1194.46 L 1097.04 1196.59 L 1098.22 1198.72 L 1099.39 1200.84" stroke="rgb(205,165,255)" stroke-opacity="0.719" stroke-width="1.24" />
  <path d="M 966.33 1020.05 L 963.54 1021.12 L 960.76 1022.19 L 957.98 1023.22 L 955.24 1024.31 L 952.51 1025.35 L 949.78 1026.42 L 947.07 1027.48 L 944.36 1028.52 L 941.66 1029.56 L 938.94 1030.54 L 936.24 1031.55 L 933.55 1032.53 L 930.86 1033.51 L 928.18 1034.39 L 925.48 1035.30 L 922.77 1036.26 L 920.12 1037.27 L 917.46 1038.23 L 914.86 1039.17 L 912.31 1040.14 L 909.76 1041.16 L 907.21 1042.21 L 904.65 1043.24 L 902.09 1044.26 L 899.52 1045.29 L 896.97 1046.31" stroke="rgb(205,165,255)" stroke-opacity="0.715" stroke-width="1.23" />
  <path d="M 940.64 996.02 L 938.48 995.54 L 936.32 995.09 L 934.18 994.56 L 932.03 994.10 L 929.89 993.64 L 927.76 993.18 L 925.63 992.71 L 923.49 992.37 L 921.38 991.91 L 919.28 991.44 L 917.23 990.86 L 915.21 990.39 L 913.19 989.92" stroke="rgb(140,255,190)" stroke-opacity="0.563" stroke-width="1.22" />
  <path d="M 1001.45 999.14 L 1002.17 997.11 L 1002.89 995.08 L 1003.60 993.06 L 1004.30 991.04" stroke="rgb(140,255,190)" stroke-opacity="0.560" stroke-width="1.21" />
  <path d="M 998.01 998.83 L 999.96 998.72 L 1001.87 998.63 L 1003.77 998.53 L 1005.68 998.42 L 1007.60 998.36 L 1009.49 998.33 L 1011.38 998.34 L 1013.26 998.35 L 1015.12 998.38 L 1017.01 998.37 L 1018.89 998.37 L 1020.80 998.36 L 1022.68 998.37 L 1024.55 998.38 L 1026.40 998.34 L 1028.25 998.31 L 1030.08 998.28 L 1031.89 998.27 L 1033.71 998.27 L 1035.55 998.26 L 1037.38 998.23 L 1039.19 998.17 L 1040.99 998.11 L 1042.78 998.06 L 1044.56 998.03 L 1046.33 997.99 L 1048.10 997.91 L 1049.86 997.83 L 1051.57 997.72 L 1053.29 997.61 L 1054.95 997.42 L 1056.61 997.26 L 1058.25 997.10 L 1059.87 996.89 L 1061.48 996.67 L 1063.09 996.45 L 1064.72 996.21 L 1066.35 995.96 L 1067.99 995.66 L 1069.63 995.35 L 1071.23 995.06 L 1072.85 994.79 L 1074.47 994.51 L 1076.08 994.25 L 1077.71 993.98 L 1079.34 993.70 L 1080.95 993.41 L 1082.55 993.13 L 1084.18 992.80 L 1085.82 992.51" stroke="rgb(205,165,255)" stroke-opacity="0.707" stroke-width="1.21" />
  <path d="M 1014.52 909.99 L 1015.11 907.97 L 1015.73 905.95 L 1016.34 904.00 L 1016.91 902.11 L 1017.53 900.22 L 1018.18 898.32 L 1018.79 896.42 L 1019.36 894.57" stroke="rgb(140,255,190)" stroke-opacity="0.558" stroke-width="1.20" />
  <path d="M 1000.27 1000.81 L 1001.36 998.77 L 1002.47 996.75 L 1003.64 994.78 L 1004.75 992.78 L 1005.96 990.87 L 1007.15 988.98 L 1008.37 987.10 L 1009.48 985.18 L 1010.56 983.24 L 1011.65 981.32 L 1012.80 979.44 L 1014.11 977.65 L 1015.41 975.88 L 1016.66 974.08 L 1017.91 972.29 L 1019.14 970.50 L 1020.36 968.71 L 1021.53 966.90 L 1022.60 965.03 L 1023.66 963.17" stroke="rgb(140,255,190)" stroke-opacity="0.557" stroke-width="1.20" />
  <path d="M 1000.86 1000.14 L 1001.67 997.98 L 1002.46 995.82 L 1003.21 993.65 L 1004.02 991.51" stroke="rgb(140,255,190)" stroke-opacity="0.555" stroke-width="1.20" />
  <path d="M 1002.15 1001.22 L 998.80 1000.91 L 995.45 1000.60 L 992.12 1000.28 L 988.81 999.96 L 985.50 999.63 L 982.22 999.31 L 978.93 999.02 L 975.68 998.76 L 972.43 998.47 L 969.20 998.16 L 965.98 997.89 L 962.77 997.62 L 959.57 997.36 L 956.39 997.07 L 953.23 996.84 L 950.08 996.64 L 946.92 996.43 L 943.76 996.23 L 940.64 996.02 L 937.55 995.76 L 934.50 995.48 L 931.45 995.20 L 928.42 994.93 L 925.40 994.66 L 922.39 994.40 L 919.39 994.14 L 916.41 993.87 L 913.44 993.60 L 910.48 993.32 L 907.52 993.05 L 904.58 992.79 L 901.63 992.58 L 898.69 992.36 L 895.75 992.16 L 892.83 991.94 L 889.91 991.71 L 887.00 991.51 L 884.11 991.30 L 881.23 991.08 L 878.37 990.86 L 875.52 990.65 L 872.67 990.46 L 869.83 990.29 L 867.00 990.13 L 864.16 990.01 L 861.34 989.86 L 858.53 989.72 L 855.72 989.58" stroke="rgb(140,255,190)" stroke-opacity="0.738" stroke-width="1.19" />
  <path d="M 1000.01 999.53 L 1001.13 996.24 L 1002.25 992.98 L 1003.38 989.73 L 1004.51 986.50 L 1005.63 983.28 L 1006.75 980.07 L 1007.86 976.88 L 1008.96 973.70 L 1010.05 970.53 L 1011.10 967.37 L 1012.21 964.24 L 1013.28 961.11 L 1014.36 958.00 L 1015.42 954.89 L 1016.51 951.81 L 1017.57 948.73 L 1018.62 945.65 L 1019.69 942.60 L 1020.76 939.55 L 1021.77 936.50 L 1022.77 933.45 L 1023.73 930.41 L 1024.68 927.37 L 1025.58 924.34 L 1026.46 921.31 L 1027.37 918.31 L 1028.25 915.31 L 1029.13 912.32 L 1030.01 909.34 L 1030.90 906.38 L 1031.78 903.43 L 1032.67 900.49 L 1033.55 897.57 L 1034.43 894.65 L 1035.31 891.75 L 1036.16 888.85 L 1037.02 885.98 L 1037.84 883.09 L 1038.67 880.22 L 1039.48 877.36 L 1040.26 874.50 L 1041.02 871.64 L 1041.77 868.80 L 1042.49 865.96 L 1043.18 863.12 L 1043.92 860.31 L 1044.69 857.52 L 1045.47 854.75 L 1046.26 852.00 L 1047.06 849.26 L 1047.80 846.52 L 1048.53 843.79 L 1049.23 841.06 L 1049.93 838.35 L 1050.64 835.64 L 1051.37 832.96 L 1052.07 830.29 L 1052.78 827.63 L 1053.49 824.98 L 1054.18 822.33" stroke="rgb(140,255,190)" stroke-opacity="0.735" stroke-width="1.18" />
  <path d="M 1067.07 875.06 L 1069.46 872.74 L 1071.83 870.42 L 1074.12 868.07 L 1076.42 865.74 L 1078.73 863.42 L 1081.05 861.14 L 1083.39 858.91 L 1085.76 856.74 L 1088.14 854.58 L 1090.51 852.42 L 1092.86 850.27 L 1095.18 848.09 L 1097.50 845.94 L 1099.82 843.81 L 1102.13 841.68 L 1104.43 839.57 L 1106.71 837.46 L 1108.99 835.37 L 1111.25 833.27 L 1113.51 831.18 L 1115.75 829.07 L 1117.94 826.93 L 1120.15 824.82 L 1122.32 822.70 L 1124.46 820.56 L 1126.62 818.43 L 1128.75 816.30 L 1130.87 814.15 L 1132.99 812.01 L 1135.08 809.88 L 1137.11 807.69 L 1139.13 805.52 L 1141.14 803.36 L 1143.14 801.23 L 1145.18 799.15 L 1147.19 797.04 L 1149.19 794.94 L 1151.19 792.89 L 1153.15 790.80 L 1155.09 788.71 L 1157.03 786.64 L 1158.95 784.57 L 1160.88 782.49 L 1162.81 780.42 L 1164.74 778.37 L 1166.68 776.34 L 1168.60 774.31 L 1170.51 772.28 L 1172.42 770.26 L 1174.30 768.23" stroke="rgb(140,255,190)" stroke-opacity="0.734" stroke-width="1.18" />
  <path d="M 1018.47 821.63 L 1017.82 818.50 L 1017.09 815.39 L 1016.49 812.31 L 1015.93 809.21 L 1015.39 806.10 L 1014.86 803.01 L 1014.31 799.91 L 1013.75 796.83 L 1013.19 793.76 L 1012.60 790.70 L 1012.14 787.63 L 1011.65 784.58 L 1011.12 781.55 L 1010.59 778.53 L 1010.11 775.51 L 1009.58 772.50 L 1009.00 769.52 L 1008.45 766.53 L 1007.92 763.55 L 1007.43 760.58 L 1006.95 757.61 L 1006.49 754.63 L 1006.06 751.65 L 1005.64 748.68 L 1005.27 745.71 L 1004.90 742.76 L 1004.46 739.83 L 1003.99 736.93 L 1003.58 734.03 L 1003.12 731.15 L 1002.60 728.28 L 1002.08 725.41 L 1001.55 722.56 L 1000.95 719.75 L 1000.31 716.95 L 999.70 714.15" stroke="rgb(140,255,190)" stroke-opacity="0.729" stroke-width="1.17" />
  <path d="M 1013.13 939.03 L 1012.44 935.98 L 1011.74 932.92 L 1011.09 929.85 L 1010.46 926.80 L 1009.81 923.75 L 1009.18 920.71 L 1008.63 917.69 L 1008.06 914.68 L 1007.52 911.69 L 1006.98 908.72 L 1006.42 905.77 L 1005.88 902.86 L 1005.35 899.97 L 1004.83 897.10 L 1004.31 894.24 L 1003.67 891.39 L 1003.02 888.53 L 1002.37 885.72 L 1001.70 882.92 L 1000.98 880.12 L 1000.24 877.35 L 999.50 874.60 L 998.77 871.85 L 998.08 869.11 L 997.39 866.37 L 996.73 863.64 L 996.05 860.93 L 995.39 858.26 L 994.73 855.61 L 994.05 852.96 L 993.42 850.31 L 992.79 847.68 L 992.18 845.05 L 991.50 842.45 L 990.78 839.89 L 990.07 837.34 L 989.42 834.80 L 988.75 832.28 L 988.03 829.80 L 987.29 827.33 L 986.59 824.89 L 985.95 822.43 L 985.33 820.01 L 984.68 817.62 L 984.04 815.22 L 983.43 812.83 L 982.88 810.43 L 982.33 808.05 L 981.81 805.69 L 981.30 803.34 L 980.82 801.02 L 980.35 798.72 L 979.83 796.45 L 979.31 794.18 L 978.83 791.93 L 978.37 789.68 L 977.95 787.41 L 977.57 785.12 L 977.14 782.84 L 976.73 780.58 L 976.31 778.32 L 975.90 776.04 L 975.54 773.76 L 975.18 771.48 L 974.81 769.24 L 974.43 767.02 L 974.04 764.81 L 973.69 762.62 L 973.35 760.44 L 972.99 758.26 L 972.61 756.09 L 972.23 753.94 L 971.83 751.79 L 971.43 749.66 L 971.01 747.53 L 970.59 745.40 L 970.11 743.29 L 969.69 741.18 L 969.24 739.10 L 968.77 737.03 L 968.32 734.97" stroke="rgb(140,255,190)" stroke-opacity="0.728" stroke-width="1.16" />
  <path d="M 997.86 997.37 L 999.15 994.38 L 1000.43 991.40 L 1001.64 988.41 L 1002.81 985.41 L 1003.91 982.40 L 1005.06 979.42 L 1006.21 976.45 L 1007.32 973.49 L 1008.42 970.53 L 1009.47 967.57 L 1010.56 964.64 L 1011.66 961.73 L 1012.73 958.81 L 1013.77 955.90 L 1014.81 953.01 L 1015.81 950.11 L 1016.80 947.22 L 1017.76 944.33 L 1018.71 941.46 L 1019.66 938.59 L 1020.65 935.75 L 1021.61 932.92 L 1022.60 930.11 L 1023.55 927.30 L 1024.55 924.52 L 1025.54 921.74 L 1026.52 918.98 L 1027.51 916.23 L 1028.50 913.49 L 1029.48 910.76 L 1030.42 908.03 L 1031.36 905.32 L 1032.29 902.61 L 1033.26 899.92 L 1034.23 897.25 L 1035.16 894.58 L 1036.10 891.92 L 1036.96 889.25" stroke="rgb(140,255,190)" stroke-opacity="0.723" stroke-width="1.15" />
  <path d="M 998.58 999.50 L 999.53 996.37 L 1000.52 993.26 L 1001.53 990.18 L 1002.49 987.09 L 1003.38 984.01 L 1004.22 980.93 L 1005.06 977.85 L 1005.91 974.79 L 1006.75 971.74 L 1007.59 968.69 L 1008.41 965.66 L 1009.22 962.63 L 1010.00 959.61 L 1010.79 956.60 L 1011.62 953.61 L 1012.45 950.63 L 1013.27 947.66 L 1014.15 944.72 L 1015.01 941.78 L 1015.89 938.87 L 1016.73 935.95 L 1017.52 933.04 L 1018.31 930.13 L 1019.05 927.23 L 1019.78 924.33 L 1020.57 921.47 L 1021.40 918.63 L 1022.25 915.81 L 1023.01 912.97 L 1023.80 910.16 L 1024.59 907.35 L 1025.40 904.57 L 1026.20 901.79 L 1026.94 899.01 L 1027.69 896.24 L 1028.42 893.48 L 1029.14 890.73 L 1029.87 887.99 L 1030.54 885.25 L 1031.27 882.53 L 1031.99 879.83 L 1032.69 877.12 L 1033.39 874.43 L 1034.10 871.75 L 1034.79 869.07 L 1035.52 866.42 L 1036.25 863.78 L 1036.99 861.16 L 1037.70 858.53 L 1038.41 855.92 L 1039.10 853.32 L 1039.75 850.71 L 1040.37 848.11 L 1040.98 845.52 L 1041.59 842.94 L 1042.19 840.36 L 1042.79 837.80 L 1043.35 835.24 L 1043.92 832.70 L 1044.50 830.16 L 1045.03 827.63 L 1045.56 825.11 L 1046.08 822.59 L 1046.60 820.09 L 1047.15 817.60 L 1047.68 815.12 L 1048.22 812.65 L 1048.75 810.19 L 1049.32 807.75 L 1049.81 805.31 L 1050.33 802.89 L 1050.87 800.48 L 1051.43 798.08 L 1052.00 795.70 L 1052.56 793.32 L 1053.10 790.94 L 1053.63 788.58 L 1054.15 786.22 L 1054.65 783.87 L 1055.13 781.52 L 1055.64 779.19 L 1056.14 776.87 L 1056.64 774.56 L 1057.13 772.25 L 1057.62 769.96 L 1058.13 767.67 L 1058.67 765.40 L 1059.23 763.15 L 1059.79 760.91 L 1060.36 758.67 L 1060.93 756.45 L 1061.53 754.24 L 1062.18 752.06 L 1062.85 749.90 L 1063.53 747.75 L 1064.23 745.62 L 1064.94 743.50 L 1065.64 741.39 L 1066.32 739.27 L 1066.98 737.16 L 1067.63 735.06 L 1068.27 732.96 L 1068.93 730.88 L 1069.60 728.81 L 1070.27 726.74 L 1070.86 724.66 L 1071.45 722.59 L 1072.08 720.55 L 1072.70 718.51 L 1073.32 716.47 L 1073.96 714.45 L 1074.61 712.45 L 1075.25 710.45 L 1075.88 708.46 L 1076.56 706.49 L 1077.21 704.52 L 1077.86 702.57 L 1078.50 700.62 L 1079.07 698.65" stroke="rgb(140,255,190)" stroke-opacity="0.721" stroke-width="1.15" />
  <path d="M 999.67 999.87 L 997.83 1001.04 L 996.01 1002.23 L 994.15 1003.28 L 992.30 1004.37 L 990.51 1005.44 L 988.73 1006.51 L 986.96 1007.54 L 985.15 1008.57 L 983.37 1009.60 L 981.60 1010.62 L 979.84 1011.70 L 978.11 1012.85 L 976.38 1013.93 L 974.68 1015.01 L 972.98 1016.09 L 971.32 1017.06 L 969.63 1018.01 L 967.98 1019.02 L 966.33 1020.05 L 964.71 1021.10 L 963.10 1022.14 L 961.51 1023.14 L 959.91 1024.10 L 958.31 1025.06 L 956.71 1025.99 L 955.11 1026.90 L 953.53 1027.82 L 951.98 1028.78 L 950.44 1029.80 L 948.88 1030.77 L 947.33 1031.72 L 945.86 1032.78 L 944.38 1033.86 L 942.91 1034.94 L 941.45 1036.03 L 939.99 1037.10 L 938.54 1038.18 L 937.02 1039.26 L 935.50 1040.30 L 933.91 1041.34 L 932.35 1042.42 L 930.77 1043.49 L 929.25 1044.57" stroke="rgb(205,165,255)" stroke-opacity="0.479" stroke-width="1.14" />
  <path d="M 997.77 999.27 L 998.91 997.12 L 1000.04 994.98 L 1001.26 992.90 L 1002.49 990.85 L 1003.70 988.77 L 1004.92 986.73 L 1006.13 984.69 L 1007.33 982.66 L 1008.51 980.63 L 1009.62 978.58 L 1010.73 976.53 L 1011.85 974.51 L 1012.95 972.49 L 1014.11 970.52 L 1015.26 968.54 L 1016.44 966.60 L 1017.60 964.67 L 1018.75 962.73 L 1019.94 960.82 L 1021.13 958.93 L 1022.34 957.04 L 1023.54 955.16 L 1024.74 953.28 L 1025.80 951.34 L 1027.02 949.49 L 1028.24 947.64 L 1029.50 945.84 L 1030.66 943.98 L 1031.81 942.12 L 1032.98 940.29 L 1034.16 938.48 L 1035.43 936.73" stroke="rgb(140,255,190)" stroke-opacity="0.540" stroke-width="1.14" />
  <path d="M 1079.55 850.97 L 1079.89 848.61 L 1080.32 846.28 L 1080.80 843.95 L 1081.25 841.63 L 1081.69 839.33 L 1082.30 837.10" stroke="rgb(140,255,190)" stroke-opacity="0.538" stroke-width="1.14" />
  <path d="M 1036.70 930.75 L 1039.06 928.56 L 1041.45 926.43 L 1043.80 924.25 L 1046.16 922.11 L 1048.51 919.98 L 1050.86 917.86 L 1053.16 915.71 L 1055.46 913.58 L 1057.76 911.46 L 1060.06 909.35 L 1062.31 907.22 L 1064.52 905.07 L 1066.69 902.89 L 1068.86 900.74 L 1071.01 898.58 L 1073.16 896.44 L 1075.30 894.30 L 1077.38 892.13 L 1079.44 889.94 L 1081.46 887.74 L 1083.49 885.55 L 1085.51 883.40 L 1087.52 881.24 L 1089.57 879.15" stroke="rgb(140,255,190)" stroke-opacity="0.717" stroke-width="1.14" />
  <path d="M 1021.88 966.33 L 1023.70 964.67 L 1025.49 963.00 L 1027.33 961.37 L 1029.17 959.73 L 1031.02 958.13 L 1032.77 956.42 L 1034.59 954.80 L 1036.36 953.13 L 1038.03 951.37 L 1039.66 949.59 L 1041.28 947.82 L 1042.91 946.08 L 1044.52 944.35 L 1046.10 942.60 L 1047.58 940.77 L 1049.07 938.98 L 1050.53 937.16 L 1051.88 935.28 L 1053.18 933.39 L 1054.41 931.47 L 1055.67 929.57 L 1056.96 927.74 L 1058.10 925.84 L 1059.21 923.91 L 1060.30 921.97" stroke="rgb(140,255,190)" stroke-opacity="0.534" stroke-width="1.12" />
  <path d="M 1002.07 999.56 L 1003.03 996.74 L 1003.97 993.92 L 1004.94 991.12 L 1005.92 988.34 L 1006.90 985.57 L 1007.87 982.81 L 1008.82 980.05 L 1009.76 977.31 L 1010.71 974.58 L 1011.67 971.87 L 1012.64 969.17 L 1013.62 966.49 L 1014.64 963.84 L 1015.65 961.20 L 1016.67 958.57 L 1017.67 955.94 L 1018.67 953.33 L 1019.70 950.74" stroke="rgb(140,255,190)" stroke-opacity="0.533" stroke-width="1.12" />
  <path d="M 1066.36 905.03 L 1067.19 902.77 L 1067.99 900.50 L 1068.79 898.24 L 1069.63 895.98 L 1070.29 893.68 L 1070.82 891.35 L 1071.34 889.03 L 1071.86 886.72 L 1072.38 884.42 L 1072.92 882.14 L 1073.49 879.87 L 1073.89 877.56 L 1074.28 875.25 L 1074.63 872.96 L 1074.96 870.68 L 1075.30 868.42 L 1075.62 866.17 L 1076.01 863.93 L 1076.56 861.72 L 1077.14 859.55 L 1077.80 857.41 L 1078.49 855.29 L 1079.03 853.14 L 1079.55 850.97 L 1080.08 848.81 L 1080.69 846.69" stroke="rgb(140,255,190)" stroke-opacity="0.532" stroke-width="1.12" />
  <path d="M 1000.66 1003.86 L 1001.21 1001.42 L 1001.81 999.01 L 1002.53 996.65 L 1003.28 994.31 L 1004.04 991.98 L 1004.72 989.64 L 1005.44 987.31 L 1006.16 984.96 L 1006.87 982.63 L 1007.62 980.32 L 1008.39 978.02 L 1009.10 975.71 L 1009.83 973.42 L 1010.60 971.16 L 1011.40 968.91 L 1012.11 966.64 L 1012.72 964.36 L 1013.44 962.11 L 1014.23 959.90 L 1015.00 957.70 L 1015.83 955.52 L 1016.60 953.34 L 1017.36 951.17 L 1018.14 949.00 L 1018.93 946.85 L 1019.68 944.70 L 1020.41 942.55 L 1021.11 940.40 L 1021.70 938.23 L 1022.24 936.05 L 1022.76 933.88 L 1023.25 931.70 L 1023.76 929.54 L 1024.26 927.39 L 1024.76 925.25 L 1025.30 923.13 L 1025.87 921.03 L 1026.44 918.95 L 1027.00 916.87 L 1027.42 914.77 L 1027.84 912.69 L 1028.26 910.60 L 1028.67 908.52 L 1029.08 906.46" stroke="rgb(140,255,190)" stroke-opacity="0.532" stroke-width="1.12" />
  <path d="M 999.76 1001.04 L 1001.68 999.50 L 1003.62 997.98 L 1005.52 996.43 L 1007.36 994.83 L 1009.19 993.25 L 1011.00 991.65 L 1012.81 990.07 L 1014.64 988.52 L 1016.51 987.08 L 1018.44 985.72 L 1020.37 984.38 L 1022.31 983.06 L 1024.24 981.75 L 1026.10 980.36 L 1028.02 979.04 L 1029.93 977.72" stroke="rgb(140,255,190)" stroke-opacity="0.532" stroke-width="1.12" />
  <path d="M 996.63 1002.52 L 998.40 1000.07 L 1000.17 997.63 L 1001.90 995.18 L 1003.64 992.75 L 1005.34 990.30 L 1007.06 987.89 L 1008.76 985.48 L 1010.46 983.08 L 1012.16 980.69 L 1013.83 978.31 L 1015.46 975.90 L 1017.10 973.52 L 1018.70 971.11 L 1020.32 968.73 L 1021.88 966.33 L 1023.48 963.96 L 1025.08 961.61 L 1026.66 959.26 L 1028.26 956.94 L 1029.84 954.61 L 1031.42 952.31 L 1033.01 950.02 L 1034.56 947.71 L 1036.12 945.43 L 1037.68 943.16 L 1039.26 940.92 L 1040.83 938.69 L 1042.39 936.46 L 1043.97 934.26 L 1045.58 932.09 L 1047.18 929.93 L 1048.75 927.76 L 1050.41 925.68 L 1051.96 923.52 L 1053.62 921.46 L 1055.24 919.38 L 1056.85 917.31 L 1058.45 915.24 L 1060.05 913.19 L 1061.65 911.15 L 1063.22 909.10 L 1064.79 907.06 L 1066.36 905.03 L 1067.92 903.01 L 1069.49 901.01 L 1071.05 899.03 L 1072.63 897.06 L 1074.21 895.11 L 1075.78 893.17 L 1077.30 891.20 L 1078.82 889.24 L 1080.30 887.26 L 1081.77 885.29 L 1083.24 883.33" stroke="rgb(140,255,190)" stroke-opacity="0.531" stroke-width="1.12" />
  <path d="M 1000.05 1000.24 L 1000.91 997.79 L 1001.86 995.39 L 1002.75 992.98 L 1003.55 990.54 L 1004.31 988.11 L 1005.05 985.68 L 1005.79 983.26 L 1006.41 980.82 L 1007.08 978.40" stroke="rgb(140,255,190)" stroke-opacity="0.531" stroke-width="1.11" />
  <path d="M 1004.16 1000.27 L 1004.56 997.36 L 1004.95 994.47 L 1005.31 991.58 L 1005.70 988.72 L 1006.09 985.87 L 1006.49 983.02 L 1006.95 980.21 L 1007.38 977.39 L 1007.85 974.59 L 1008.30 971.80 L 1008.74 969.02 L 1009.24 966.27 L 1009.75 963.52 L 1010.21 960.78 L 1010.62 958.04 L 1011.05 955.30 L 1011.44 952.57 L 1011.84 949.85 L 1012.20 947.14 L 1012.54 944.43 L 1012.87 941.73 L 1013.13 939.03 L 1013.37 936.35 L 1013.53 933.67 L 1013.69 931.00 L 1013.83 928.34 L 1013.96 925.69 L 1014.08 923.04 L 1014.18 920.41 L 1014.29 917.79 L 1014.42 915.18 L 1014.47 912.58 L 1014.52 909.99 L 1014.61 907.41 L 1014.70 904.84 L 1014.80 902.28 L 1014.92 899.74" stroke="rgb(140,255,190)" stroke-opacity="0.528" stroke-width="1.10" />
  <path d="M 1014.61 907.41 L 1014.83 904.77 L 1015.08 902.18 L 1015.33 899.59 L 1015.48 897.00 L 1015.63 894.43 L 1015.76 891.87 L 1015.91 889.29 L 1016.06 886.73 L 1016.16 884.17 L 1016.24 881.60 L 1016.25 879.08 L 1016.21 876.55 L 1016.24 874.02 L 1016.26 871.50 L 1016.26 868.98 L 1016.30 866.49 L 1016.42 864.02 L 1016.52 861.53 L 1016.62 859.06 L 1016.70 856.62 L 1016.89 854.22 L 1017.08 851.83 L 1017.29 849.44 L 1017.49 847.05 L 1017.75 844.69 L 1017.87 842.32 L 1018.01 839.98 L 1018.05 837.65 L 1018.03 835.30 L 1018.12 833.03 L 1018.19 830.75 L 1018.26 828.47 L 1018.33 826.19 L 1018.41 823.90 L 1018.47 821.63 L 1018.52 819.37 L 1018.58 817.12 L 1018.59 814.85 L 1018.64 812.56 L 1018.69 810.28 L 1018.80 807.98 L 1018.89 805.68 L 1018.97 803.39 L 1019.04 801.11 L 1019.08 798.86 L 1019.12 796.64 L 1019.11 794.40 L 1019.10 792.17 L 1019.09 789.98 L 1019.09 787.79 L 1019.08 785.61 L 1019.07 783.43 L 1019.16 781.25 L 1019.25 779.09 L 1019.30 776.98 L 1019.34 774.88 L 1019.40 772.78 L 1019.48 770.71 L 1019.56 768.65 L 1019.72 766.59 L 1019.85 764.57 L 1019.98 762.55 L 1020.04 760.52 L 1020.09 758.50" stroke="rgb(140,255,190)" stroke-opacity="0.528" stroke-width="1.10" />
  <path d="M 998.30 999.71 L 999.64 997.05 L 1001.02 994.43 L 1002.39 991.82 L 1003.67 989.17 L 1004.96 986.54 L 1006.25 983.92 L 1007.52 981.31 L 1008.83 978.73 L 1010.19 976.20 L 1011.59 973.70 L 1012.95 971.19 L 1014.39 968.74 L 1015.78 966.27 L 1017.20 963.83 L 1018.59 961.38 L 1020.01 958.96 L 1021.42 956.55 L 1022.85 954.17 L 1024.30 951.80 L 1025.75 949.46 L 1027.22 947.14 L 1028.68 944.83 L 1030.11 942.50 L 1031.41 940.12 L 1032.73 937.76 L 1034.04 935.40 L 1035.38 933.08 L 1036.70 930.75 L 1038.01 928.43 L 1039.31 926.12 L 1040.56 923.79 L 1041.81 921.47 L 1043.01 919.14 L 1044.20 916.82 L 1045.39 914.51 L 1046.60 912.23 L 1047.80 909.95 L 1048.94 907.65 L 1050.08 905.36 L 1051.19 903.07 L 1052.34 900.80 L 1053.48 898.55 L 1054.69 896.34 L 1055.89 894.13 L 1057.08 891.93 L 1058.31 889.78 L 1059.54 887.62 L 1060.76 885.48 L 1061.99 883.36 L 1063.22 881.24 L 1064.50 879.17 L 1065.80 877.11 L 1067.07 875.06 L 1068.33 873.01 L 1069.55 870.95 L 1070.71 868.86 L 1071.88 866.79 L 1073.04 864.73 L 1074.22 862.68 L 1075.38 860.64 L 1076.56 858.62 L 1077.70 856.59 L 1078.85 854.57 L 1079.94 852.53 L 1081.07 850.52 L 1082.19 848.53 L 1083.34 846.56 L 1084.55 844.63 L 1085.78 842.73 L 1087.04 840.87 L 1088.33 839.04 L 1089.60 837.21" stroke="rgb(140,255,190)" stroke-opacity="0.528" stroke-width="1.10" />
  <path d="M 636.32 1999.91 L 637.20 1997.17 L 638.47 1994.30 L 639.77 1991.62 L 640.55 1988.91 L 641.67 1986.03 L 642.46 1982.97 L 643.41 1980.07 L 644.56 1977.85 L 645.78 1974.43 L 646.69 1971.40 L 647.73 1969.01 L 648.87 1966.22 L 650.08 1963.25 L 650.97 1960.63 L 651.39 1957.43 L 652.95 1955.11 L 654.02 1952.27 L 655.27 1949.30 L 655.60 1946.44 L 657.08 1943.67 L 658.11 1941.06 L 659.26 1937.95 L 659.94 1935.33 L 660.83 1932.17 L 662.07 1929.64 L 663.44 1926.44 L 663.91 1923.96 L 665.14 1921.22 L 666.35 1918.46 L 666.90 1915.44 L 668.15 1912.57 L 669.29 1910.06 L 669.83 1907.36 L 671.34 1903.80 L 672.05 1901.24 L 673.62 1898.72 L 674.54 1895.31 L 675.29 1892.79 L 676.42 1890.24 L 677.50 1887.26 L 678.67 1884.60 L 679.91 1881.65 L 680.49 1878.52 L 681.65 1875.81 L 682.67 1873.11 L 683.92 1870.32 L 684.39 1867.16 L 685.74 1864.36 L 686.69 1861.74 L 687.63 1858.81 L 688.78 1855.93 L 689.70 1853.36 L 690.84 1850.42 L 691.92 1847.81 L 693.12 1844.97 L 693.78 1842.32 L 694.81 1839.50 L 695.53 1836.37 L 697.01 1833.43 L 698.17 1830.79 L 698.94 1828.06 L 699.91 1825.14 L 701.02 1822.57 L 701.94 1819.48 L 703.01 1817.11 L 704.37 1813.71 L 705.40 1810.90 L 706.61 1808.31 L 707.48 1805.24 L 708.11 1802.43 L 709.06 1799.99 L 710.64 1797.14 L 711.14 1794.30 L 712.56 1791.10 L 713.47 1788.90 L 714.21 1785.76 L 715.31 1782.98 L 716.38 1780.27 L 717.27 1777.42 L 718.64 1774.57 L 719.77 1771.58 L 720.28 1768.88 L 721.38 1765.82 L 722.46 1762.75 L 723.50 1760.61 L 724.59 1757.55 L 725.76 1755.24 L 726.38 1752.09 L 727.65 1749.02 L 728.77 1746.12 L 729.85 1743.43 L 730.94 1740.79 L 731.49 1737.98 L 733.08 1735.14 L 733.98 1731.94 L 734.64 1729.53 L 736.06 1726.68 L 736.75 1723.87 L 738.15 1720.73 L 738.99 1718.39 L 740.13 1715.72 L 740.55 1712.22 L 741.68 1709.60 L 742.87 1706.85 L 744.27 1704.02 L 745.19 1701.34 L 745.99 1698.32 L 747.25 1695.52 L 748.00 1692.54 L 749.15 1690.23 L 750.43 1686.88 L 751.07 1684.27 L 752.47 1681.43 L 753.50 1678.55 L 754.26 1675.46 L 755.11 1672.90 L 756.60 1669.97 L 757.40 1667.12 L 758.12 1664.13 L 759.28 1661.70 L 760.12 1658.93 L 761.57 1655.98 L 762.72 1653.70 L 763.67 1650.21 L 764.54 1647.41 L 765.69 1644.71 L 766.52 1641.71 L 767.62 1639.12 L 768.81 1636.66 L 769.90 1633.60 L 770.69 1630.71 L 772.15 1627.48 L 773.11 1624.96 L 774.09 1621.87 L 774.90 1619.57 L 775.60 1616.68 L 776.94 1613.28 L 778.13 1611.12 L 778.98 1608.32 L 780.14 1605.52 L 780.58 1602.26 L 782.27 1599.82 L 782.90 1596.62 L 784.16 1593.83 L 784.91 1591.08 L 786.15 1588.49 L 787.08 1585.75 L 787.92 1582.65 L 789.14 1580.17 L 790.01 1577.18 L 791.76 1574.26 L 792.45 1571.55 L 793.07 1568.52 L 793.99 1566.09 L 795.45 1563.14 L 796.73 1559.94 L 797.54 1557.66 L 798.08 1554.52 L 799.38 1551.84 L 800.72 1548.86 L 801.64 1546.05 L 802.20 1543.07 L 803.95 1540.42 L 804.64 1537.43 L 805.21 1534.54 L 806.64 1532.38 L 807.93 1529.06 L 808.64 1526.15 L 809.74 1522.97 L 810.60 1520.35 L 811.94 1518.19 L 812.68 1514.89 L 813.86 1512.32 L 815.04 1509.68 L 815.72 1506.61 L 816.48 1503.31 L 817.80 1500.99 L 818.92 1498.03 L 819.95 1495.56 L 820.58 1492.57 L 821.91 1489.30 L 822.78 1486.35 L 823.80 1484.06 L 825.05 1481.77 L 826.46 1478.13 L 827.10 1475.71 L 828.34 1472.90 L 829.26 1470.03 L 830.09 1467.19 L 831.37 1464.33 L 832.34 1461.55 L 833.07 1458.90 L 834.20 1456.09 L 835.15 1453.01 L 836.49 1450.40 L 837.41 1447.25 L 838.67 1444.52 L 839.85 1441.87 L 840.52 1439.07 L 841.04 1435.90 L 842.70 1432.87 L 842.96 1430.55 L 844.47 1427.62 L 845.26 1424.46 L 846.71 1421.81 L 847.92 1419.02 L 848.55 1415.95 L 849.50 1413.07 L 850.67 1410.67 L 851.65 1408.13 L 852.81 1405.17 L 853.55 1402.79 L 854.63 1399.19 L 855.51 1396.30 L 856.78 1393.69 L 858.11 1391.07 L 858.76 1388.23 L 860.17 1385.51 L 861.04 1382.71 L 862.24 1379.73 L 863.06 1376.79 L 864.06 1374.33 L 864.78 1371.39 L 865.94 1368.31 L 866.81 1366.03 L 868.28 1362.67 L 869.20 1360.42 L 869.97 1357.16 L 870.71 1354.53 L 872.24 1351.98 L 873.01 1348.68 L 874.14 1346.15 L 874.81 1343.77 L 876.49 1340.16 L 876.83 1337.59 L 878.28 1334.27 L 879.06 1331.81 L 880.52 1328.91 L 881.20 1326.24 L 882.34 1323.52 L 883.74 1320.63 L 884.51 1317.65 L 885.50 1314.94 L 886.84 1312.20 L 887.42 1309.26 L 888.53 1306.49 L 889.56 1303.53 L 890.39 1300.95 L 891.65 1297.95 L 892.95 1295.27 L 893.44 1292.02 L 894.86 1290.09 L 895.63 1286.74 L 896.97 1284.08 L 897.57 1280.97 L 899.23 1277.97 L 899.99 1275.15 L 900.84 1272.20 L 901.62 1270.07 L 903.25 1266.92 L 903.75 1264.23 L 905.05 1260.98 L 906.46 1258.38 L 907.12 1255.70 L 908.20 1253.04 L 909.17 1250.38 L 909.94 1247.42 L 911.10 1244.84 L 912.24 1241.60 L 913.58 1238.92 L 914.04 1235.99 L 914.98 1232.75 L 916.40 1230.40 L 917.29 1227.88 L 918.36 1225.03 L 919.19 1221.91 L 920.38 1218.92 L 920.99 1216.27 L 922.47 1213.30 L 923.33 1210.60 L 924.44 1207.44 L 925.15 1204.98 L 926.92 1201.93 L 927.58 1199.27 L 928.60 1196.30 L 929.41 1193.76 L 930.44 1190.68 L 931.69 1188.01 L 932.67 1185.07 L 933.65 1182.03 L 934.29 1179.39 L 935.55 1176.99 L 936.65 1173.93 L 937.84 1171.19 L 938.85 1168.06 L 939.66 1165.47 L 941.03 1162.87 L 942.13 1159.86 L 942.40 1156.91 L 943.57 1153.93 L 945.05 1151.02 L 946.28 1148.31 L 947.21 1145.58 L 948.38 1142.99 L 948.68 1140.17 L 949.96 1137.43 L 951.15 1134.69 L 952.09 1131.54 L 953.13 1128.95 L 954.51 1125.84 L 955.29 1123.28 L 956.46 1120.38 L 957.14 1117.75 L 958.54 1114.74 L 959.73 1111.78 L 960.42 1109.14 L 961.38 1106.40 L 962.34 1103.67 L 963.51 1100.70 L 964.51 1097.58 L 965.36 1095.22 L 966.09 1092.10 L 967.50 1089.22 L 968.27 1086.30 L 969.48 1083.78 L 970.64 1081.05 L 971.29 1077.64 L 972.91 1075.29 L 973.70 1072.58 L 974.44 1069.74 L 975.65 1066.81 L 976.88 1063.55 L 977.96 1061.21 L 978.80 1058.65 L 980.06 1055.53 L 980.90 1052.89 L 982.12 1050.02 L 982.67 1047.15 L 984.09 1044.44 L 984.64 1041.90 L 985.87 1038.71 L 987.00 1035.68 L 988.54 1032.79 L 989.25 1030.27 L 990.23 1027.28 L 991.19 1024.03 L 992.08 1021.32 L 993.03 1018.67 L 993.83 1015.71 L 995.13 1013.27 L 996.44 1010.46 L 997.03 1008.03 L 998.03 1004.79 L 999.00 1001.85 L 1000.00 1000.00 L 1001.04 997.19 L 1002.06 994.37 L 1003.07 991.54 L 1004.05 988.71 L 1005.04 985.87 L 1006.02 983.04 L 1007.03 980.21 L 1008.05 977.39 L 1009.06 974.57 L 1010.07 971.74 L 1011.07 968.91 L 1012.06 966.08 L 1013.03 963.24 L 1014.02 960.41 L 1015.03 957.58 L 1016.01 954.75 L 1017.01 951.92 L 1018.00 949.09 L 1018.97 946.25 L 1019.96 943.42 L 1020.95 940.59 L 1021.93 937.75 L 1022.90 934.91 L 1023.87 932.07 L 1024.85 929.24 L 1025.82 926.40 L 1026.78 923.56 L 1027.75 920.72 L 1028.73 917.88 L 1029.72 915.05 L 1030.71 912.22 L 1031.73 909.40 L 1032.77 906.58 L 1033.79 903.76 L 1034.80 900.94 L 1035.79 898.10 L 1036.79 895.28 L 1037.80 892.45 L 1038.81 889.63 L 1039.79 886.79 L 1040.79 883.96 L 1041.78 881.13 L 1042.78 878.30 L 1043.80 875.48 L 1044.82 872.66 L 1045.81 869.83 L 1046.82 867.00 L 1047.84 864.18 L 1048.87 861.36 L 1049.90 858.55 L 1050.95 855.74 L 1051.96 852.91 L 1052.97 850.09 L 1054.00 847.27 L 1055.03 844.45 L 1056.07 841.64 L 1057.09 838.82 L 1058.07 835.98 L 1059.04 833.14 L 1059.98 830.29 L 1060.93 827.45 L 1061.88 824.60 L 1062.85 821.76 L 1063.80 818.92 L 1064.77 816.08 L 1065.77 813.25 L 1066.74 810.41 L 1067.73 807.58 L 1068.72 804.75 L 1069.72 801.92 L 1070.75 799.10 L 1071.75 796.27 L 1072.76 793.45 L 1073.75 790.62 L 1074.77 787.80 L 1075.78 784.97 L 1076.78 782.14 L 1077.78 779.31 L 1078.80 776.49 L 1079.82 773.67 L 1080.83 770.85 L 1081.85 768.02 L 1082.87 765.20 L 1083.89 762.38 L 1084.92 759.56 L 1085.95 756.75 L 1086.97 753.93 L 1087.98 751.10 L 1089.00 748.28 L 1090.00 745.45 L 1091.01 742.63 L 1092.01 739.80 L 1093.01 736.97 L 1094.02 734.14 L 1095.02 731.31 L 1096.04 728.50 L 1097.07 725.68 L 1098.07 722.85 L 1099.07 720.02 L 1100.07 717.19 L 1101.07 714.36 L 1102.04 711.52 L 1102.99 708.68 L 1103.95 705.84 L 1104.91 703.00 L 1105.90 700.16 L 1106.88 697.33 L 1107.85 694.49 L 1108.84 691.66 L 1109.82 688.82 L 1110.80 685.98 L 1111.75 683.14 L 1112.73 680.30 L 1113.71 677.47 L 1114.70 674.64 L 1115.72 671.81 L 1116.70 668.98 L 1117.67 666.14 L 1118.64 663.30 L 1119.59 660.46 L 1120.50 657.60 L 1121.43 654.75 L 1122.37 651.90 L 1123.32 649.05 L 1124.25 646.20 L 1125.18 643.35 L 1126.10 640.49 L 1127.02 637.64 L 1127.93 634.78 L 1128.85 631.92 L 1129.78 629.07 L 1130.71 626.22 L 1131.63 623.36 L 1132.56 620.51 L 1133.46 617.65 L 1134.37 614.79 L 1135.27 611.93 L 1136.17 609.07 L 1137.06 606.20 L 1137.97 603.34 L 1138.89 600.49 L 1139.83 597.64 L 1140.76 594.78 L 1141.70 591.94 L 1142.61 589.08 L 1143.48 586.21 L 1144.35 583.33 L 1145.20 580.46 L 1146.10 577.60 L 1146.98 574.73 L 1147.86 571.86 L 1148.75 569.00 L 1149.62 566.13 L 1150.50 563.26 L 1151.34 560.38 L 1152.18 557.50 L 1153.01 554.61 L 1153.80 551.72 L 1154.58 548.82 L 1155.36 545.93 L 1156.13 543.03 L 1156.92 540.13 L 1157.68 537.23 L 1158.45 534.33 L 1159.23 531.43 L 1160.04 528.54 L 1160.87 525.66 L 1161.70 522.78 L 1162.53 519.90 L 1163.36 517.01 L 1164.21 514.14 L 1165.04 511.25 L 1165.85 508.37 L 1166.68 505.48 L 1167.49 502.59 L 1168.32 499.71 L 1169.14 496.83 L 1169.99 493.95 L 1170.84 491.07 L 1171.69 488.19 L 1172.54 485.32 L 1173.35 482.43 L 1174.14 479.54 L 1174.96 476.65 L 1175.78 473.76 L 1176.61 470.88 L 1177.42 467.99 L 1178.25 465.11 L 1179.09 462.23 L 1179.93 459.35 L 1180.79 456.47 L 1181.65 453.60 L 1182.53 450.73 L 1183.42 447.87 L 1184.32 445.01 L 1185.22 442.14 L 1186.12 439.28 L 1187.03 436.42 L 1187.92 433.56 L 1188.79 430.69 L 1189.65 427.81 L 1190.48 424.93 L 1191.30 422.05 L 1192.14 419.17 L 1192.95 416.28 L 1193.77 413.39 L 1194.62 410.51 L 1195.44 407.63 L 1196.26 404.74 L 1197.11 401.87 L 1197.95 398.99 L 1198.81 396.11 L 1199.65 393.23 L 1200.48 390.35 L 1201.32 387.47 L 1202.19 384.60 L 1203.08 381.73 L 1203.99 378.87 L 1204.92 376.02 L 1205.87 373.18 L 1206.85 370.34 L 1207.84 367.51 L 1208.81 364.67 L 1209.76 361.82 L 1210.71 358.98 L 1211.66 356.13 L 1212.62 353.29 L 1213.58 350.45 L 1214.54 347.60 L 1215.47 344.75 L 1216.39 341.90 L 1217.32 339.04 L 1218.25 336.19 L 1219.19 333.34 L 1220.12 330.49 L 1221.03 327.63 L 1221.95 324.78 L 1222.87 321.92 L 1223.74 319.05 L 1224.60 316.18 L 1225.51 313.32 L 1226.43 310.46 L 1227.37 307.61 L 1228.31 304.77 L 1229.28 301.93 L 1230.26 299.09 L 1231.23 296.25 L 1232.19 293.41 L 1233.16 290.57 L 1234.13 287.73 L 1235.09 284.89 L 1236.04 282.04 L 1236.96 279.19 L 1237.91 276.34 L 1238.88 273.50 L 1239.83 270.66 L 1240.82 267.83 L 1241.83 265.00 L 1242.86 262.19 L 1243.90 259.37 L 1244.94 256.55 L 1245.94 253.73 L 1246.97 250.91 L 1247.99 248.09 L 1249.03 245.27 L 1250.09 242.47 L 1251.16 239.67 L 1252.22 236.86 L 1253.31 234.06 L 1254.41 231.27 L 1255.49 228.47 L 1256.56 225.67 L 1257.63 222.87 L 1258.71 220.07 L 1259.84 217.29 L 1260.97 214.51 L 1262.09 211.73 L 1263.22 208.95 L 1264.36 206.18 L 1265.48 203.39 L 1266.61 200.61 L 1267.74 197.83 L 1268.89 195.06 L 1270.05 192.29 L 1271.23 189.54 L 1272.41 186.78 L 1273.56 184.01 L 1274.72 181.24 L 1275.86 178.47 L 1276.99 175.69 L 1278.12 172.91 L 1279.24 170.13 L 1280.36 167.34 L 1281.45 164.55 L 1282.55 161.76 L 1283.65 158.97 L 1284.75 156.17 L 1285.82 153.37 L 1286.87 150.56 L 1287.92 147.75 L 1288.96 144.94 L 1290.01 142.13 L 1291.06 139.31 L 1292.10 136.50 L 1293.18 133.70 L 1294.24 130.90 L 1295.34 128.11 L 1296.44 125.32 L 1297.53 122.52 L 1298.62 119.73 L 1299.72 116.93 L 1300.82 114.14 L 1301.92 111.35 L 1303.00 108.55 L 1304.08 105.76 L 1305.16 102.96 L 1306.24 100.15 L 1307.33 97.36 L 1308.42 94.57 L 1309.47 91.76 L 1310.52 88.94 L 1311.56 86.13 L 1312.60 83.32 L 1313.64 80.50 L 1314.66 77.68 L 1315.68 74.86 L 1316.69 72.04 L 1317.69 69.21 L 1318.71 66.39 L 1319.72 63.56 L 1320.73 60.74 L 1321.77 57.92 L 1322.79 55.10 L 1323.79 52.28 L 1324.78 49.44 L 1325.79 46.62 L 1326.79 43.79 L 1327.79 40.96 L 1328.81 38.14 L 1329.84 35.32 L 1330.83 32.49 L 1331.85 29.67 L 1332.87 26.84 L 1333.91 24.03 L 1334.96 21.22 L 1336.00 18.41 L 1337.04 15.59 L 1338.09 12.79 L 1339.15 9.98 L 1340.23 7.18 L 1341.29 4.37 L 1342.36 1.57 L 1343.41 -1.24 L 1344.46 -4.05 L 1345.53 -6.85 L 1346.58 -9.66 L 1347.62 -12.48 L 1348.66 -15.29 L 1349.72 -18.10 L 1350.75 -20.92" stroke="rgb(245,245,245)" stroke-opacity="0.699" stroke-width="1.09" />
  <path d="M 1028.26 956.94 L 1028.71 954.19 L 1029.13 951.45 L 1029.57 948.74 L 1030.05 946.05 L 1030.55 943.38 L 1031.05 940.72 L 1031.55 938.09 L 1032.06 935.46 L 1032.50 932.82 L 1032.90 930.18 L 1033.27 927.56 L 1033.65 924.96 L 1034.00 922.37 L 1034.35 919.81 L 1034.70 917.29 L 1035.05 914.79 L 1035.41 912.30 L 1035.77 909.81 L 1036.14 907.34 L 1036.54 904.88 L 1036.95 902.44 L 1037.36 900.03 L 1037.79 897.60 L 1038.26 895.17 L 1038.75 892.73 L 1039.23 890.29 L 1039.66 887.87 L 1039.99 885.51 L 1040.30 883.19 L 1040.60 880.88 L 1040.88 878.60 L 1041.17 876.32 L 1041.48 874.05 L 1041.79 871.78 L 1042.10 869.52 L 1042.41 867.23 L 1042.75 864.95 L 1043.10 862.68 L 1043.35 860.45 L 1043.63 858.25 L 1043.94 856.07 L 1044.26 853.89" stroke="rgb(140,255,190)" stroke-opacity="0.524" stroke-width="1.09" />
  <path d="M 1001.18 1000.54 L 1002.61 998.43 L 1004.05 996.33 L 1005.48 994.24 L 1006.88 992.14 L 1008.24 990.03 L 1009.62 987.95 L 1011.09 985.94 L 1012.56 983.94 L 1014.04 981.96 L 1015.52 979.99 L 1017.05 978.08 L 1018.57 976.17 L 1020.03 974.22 L 1021.54 972.33 L 1022.98 970.40 L 1024.51 968.56 L 1025.98 966.68 L 1027.43 964.80 L 1028.84 962.92 L 1030.25 961.06 L 1031.65 959.20 L 1033.09 957.37 L 1034.51 955.53 L 1035.89 953.69 L 1037.26 951.85 L 1038.60 950.00 L 1039.90 948.14 L 1041.18 946.29 L 1042.43 944.45 L 1043.73 942.63 L 1045.07 940.82 L 1046.39 939.03 L 1047.71 937.25 L 1049.02 935.48 L 1050.32 933.71" stroke="rgb(205,165,255)" stroke-opacity="0.464" stroke-width="1.09" />
  <path d="M 1047.80 846.52 L 1048.61 843.99 L 1049.35 841.45 L 1050.13 838.93 L 1050.91 836.42 L 1051.86 833.99 L 1052.83 831.56 L 1053.80 829.14 L 1054.82 826.76 L 1055.78 824.42 L 1056.64 822.08 L 1057.43 819.69 L 1058.13 817.28 L 1058.86 814.94 L 1059.60 812.60 L 1060.36 810.32 L 1061.13 808.05 L 1061.87 805.79 L 1062.63 803.54 L 1063.46 801.33 L 1064.22 799.08 L 1065.09 796.89 L 1065.99 794.75 L 1066.96 792.70 L 1067.92 790.61 L 1068.93 788.52 L 1069.93 786.45 L 1070.92 784.35 L 1071.85 782.26 L 1072.85 780.21 L 1073.82 778.11 L 1074.66 775.97 L 1075.51 773.84 L 1076.32 771.69 L 1077.12 769.54 L 1077.95 767.42 L 1078.79 765.35 L 1079.62 763.28 L 1080.38 761.20 L 1081.14 759.13 L 1081.91 757.07 L 1082.70 754.99 L 1083.52 752.94 L 1084.30 750.90 L 1085.04 748.85 L 1085.72 746.76 L 1086.39 744.67 L 1087.06 742.60 L 1087.70 740.55 L 1088.35 738.50 L 1088.95 736.47" stroke="rgb(140,255,190)" stroke-opacity="0.524" stroke-width="1.09" />
  <path d="M 1002.21 999.20 L 999.85 999.77 L 997.55 1000.26 L 995.27 1000.76 L 992.97 1001.22 L 990.73 1001.65 L 988.54 1002.09 L 986.36 1002.52 L 984.14 1002.94 L 981.95 1003.27" stroke="rgb(205,165,255)" stroke-opacity="0.463" stroke-width="1.09" />
  <path d="M 999.36 997.67 L 1000.90 996.75 L 1002.42 995.91 L 1003.94 995.05 L 1005.49 994.22 L 1006.93 993.31 L 1008.39 992.32 L 1009.85 991.31 L 1011.31 990.21 L 1012.77 989.15 L 1014.26 988.10 L 1015.73 987.14 L 1017.18 986.17 L 1018.56 985.17 L 1019.96 984.27 L 1021.42 983.36 L 1022.88 982.43 L 1024.29 981.46 L 1025.67 980.54 L 1027.06 979.71 L 1028.48 978.93 L 1029.92 978.21 L 1031.28 977.33 L 1032.58 976.36 L 1033.87 975.38 L 1035.07 974.43 L 1036.31 973.48 L 1037.51 972.51 L 1038.68 971.53 L 1039.83 970.55 L 1041.01 969.59 L 1042.18 968.65 L 1043.32 967.69 L 1044.36 966.73 L 1045.41 965.77 L 1046.45 964.83 L 1047.51 963.95 L 1048.55 963.07" stroke="rgb(205,165,255)" stroke-opacity="0.449" stroke-width="1.04" />
  <path d="M 994.21 999.47 L 992.96 999.98 L 991.78 1000.65 L 990.55 1001.32" stroke="rgb(230,230,230)" stroke-opacity="0.386" stroke-width="0.71" />
  <path d="M 999.91 998.43 L 1000.81 998.51 L 1001.79 998.13 L 1002.53 997.76 L 1003.18 997.61 L 1003.78 997.50" stroke="rgb(230,230,230)" stroke-opacity="0.385" stroke-width="0.71" />
  <path d="M 1001.92 1001.54 L 1001.69 1000.49 L 1001.43 999.33 L 1001.21 998.14 L 1000.88 996.94 L 1000.36 995.75 L 999.65 994.70 L 998.80 993.66 L 997.98 992.69 L 997.33 991.64 L 996.72 990.53 L 996.13 989.44 L 995.54 988.36 L 994.87 987.23 L 994.24 986.04 L 993.41 984.91" stroke="rgb(230,230,230)" stroke-opacity="0.385" stroke-width="0.71" />
  <path d="M 1002.36 1002.78 L 1002.95 1004.01 L 1003.47 1005.29 L 1003.97 1006.57 L 1004.57 1007.82 L 1005.16 1009.08 L 1005.75 1010.31 L 1006.32 1011.57 L 1006.95 1012.76 L 1007.60 1013.95 L 1008.24 1015.16 L 1008.91 1016.36 L 1009.56 1017.58" stroke="rgb(230,230,230)" stroke-opacity="0.385" stroke-width="0.71" />
  <path d="M 999.82 995.54 L 1000.88 994.91 L 1002.01 994.38 L 1003.09 993.79 L 1004.11 993.28" stroke="rgb(230,230,230)" stroke-opacity="0.384" stroke-width="0.71" />
  <path d="M 998.74 1001.76 L 998.31 1003.10 L 997.87 1004.44 L 997.51 1005.84 L 997.14 1007.22" stroke="rgb(230,230,230)" stroke-opacity="0.384" stroke-width="0.71" />
  <path d="M 1004.16 1002.09 L 1002.97 1002.75 L 1001.79 1003.43 L 1000.62 1004.11 L 999.45 1004.80 L 998.32 1005.50 L 997.19 1006.15 L 996.05 1006.76 L 994.88 1007.47 L 993.70 1008.17" stroke="rgb(230,230,230)" stroke-opacity="0.384" stroke-width="0.71" />
  <path d="M 1003.27 998.52 L 1002.14 997.88 L 1000.97 997.25 L 999.77 996.69 L 998.58 996.14 L 997.44 995.61 L 996.36 995.01 L 995.28 994.43 L 994.25 993.86 L 993.24 993.28 L 992.26 992.73 L 991.33 992.11 L 990.43 991.50 L 989.56 990.92 L 988.75 990.32" stroke="rgb(230,230,230)" stroke-opacity="0.381" stroke-width="0.70" />
  <path d="M 1001.42 994.76 L 1002.06 995.82 L 1002.75 996.89 L 1003.33 997.94 L 1003.87 998.94 L 1004.42 999.93 L 1004.95 1000.92 L 1005.48 1001.99 L 1005.93 1003.07 L 1006.38 1004.15 L 1006.83 1005.22" stroke="rgb(230,230,230)" stroke-opacity="0.378" stroke-width="0.69" />
  <path d="M 995.10 999.51 L 996.33 999.39 L 997.58 999.19 L 998.75 999.02 L 999.91 998.82 L 1001.08 998.64 L 1002.29 998.48 L 1003.47 998.21 L 1004.64 997.94 L 1005.84 997.67" stroke="rgb(230,230,230)" stroke-opacity="0.374" stroke-width="0.68" />
  <path d="M 1000.98 998.62 L 1000.01 999.09 L 999.08 999.49 L 998.17 999.90 L 997.22 1000.31 L 996.35 1000.84 L 995.43 1001.38 L 994.59 1001.91 L 993.74 1002.41 L 992.95 1002.86 L 992.31 1003.27 L 991.76 1003.50" stroke="rgb(230,230,230)" stroke-opacity="0.372" stroke-width="0.67" />
  <path d="M 995.32 1000.97 L 996.12 1001.38 L 996.88 1001.86 L 997.56 1002.26 L 998.22 1002.70 L 999.03 1003.09 L 999.86 1003.43 L 1000.69 1003.80 L 1001.46 1004.06 L 1002.13 1004.39 L 1002.69 1004.62 L 1003.25 1004.94 L 1003.78 1005.54 L 1004.38 1006.01 L 1005.02 1006.38 L 1005.60 1006.68 L 1006.22 1006.83 L 1006.89 1006.88 L 1007.56 1007.01 L 1008.17 1007.39" stroke="rgb(230,230,230)" stroke-opacity="0.370" stroke-width="0.67" />
  <path d="M 996.93 995.84 L 997.95 996.72 L 998.86 997.66 L 999.79 998.60 L 1000.64 999.55 L 1001.51 1000.47 L 1002.41 1001.39 L 1003.31 1002.30 L 1004.20 1003.21 L 1005.09 1004.11 L 1005.99 1004.98 L 1006.89 1005.78 L 1007.78 1006.58 L 1008.68 1007.44 L 1009.57 1008.30 L 1010.43 1009.26 L 1011.36 1010.15 L 1012.22 1011.12" stroke="rgb(230,230,230)" stroke-opacity="0.367" stroke-width="0.66" />
  <path d="M 1002.47 1000.41 L 1003.48 999.71 L 1004.49 999.01 L 1005.30 998.35 L 1006.13 997.69 L 1007.01 997.01 L 1007.94 996.49 L 1008.97 995.80 L 1009.90 995.09" stroke="rgb(230,230,230)" stroke-opacity="0.365" stroke-width="0.65" />
  <path d="M 1003.03 1000.80 L 1003.00 999.47 L 1003.16 998.28 L 1003.60 997.09 L 1004.07 995.86 L 1004.35 994.57" stroke="rgb(230,230,230)" stroke-opacity="0.365" stroke-width="0.65" />
  <path d="M 999.01 994.12 L 999.65 992.79 L 1000.31 991.49 L 1000.89 990.16 L 1001.49 988.84 L 1002.07 987.52 L 1002.58 986.16 L 1002.99 984.78 L 1003.45 983.40 L 1003.84 982.00 L 1004.37 980.66 L 1004.90 979.31" stroke="rgb(230,230,230)" stroke-opacity="0.364" stroke-width="0.65" />
  <path d="M 1000.31 1000.63 L 1000.18 1001.88 L 999.98 1003.10 L 999.76 1004.31 L 999.50 1005.45 L 999.26 1006.65 L 999.01 1007.83" stroke="rgb(230,230,230)" stroke-opacity="0.358" stroke-width="0.63" />
  <path d="M 1001.04 1005.31 L 1001.45 1003.98 L 1001.85 1002.68 L 1002.47 1001.42 L 1003.11 1000.21 L 1003.76 999.00 L 1004.39 997.78 L 1005.31 996.71 L 1006.33 995.72 L 1007.36 994.74" stroke="rgb(230,230,230)" stroke-opacity="0.351" stroke-width="0.61" />
</g>
</svg>
