{
  "asset": {
    "version": "2.0",
    "generator": "TES-23 Cosmic Ray Renderer"
  },
  "extensionsUsed": [
    "KHR_materials_unlit"
  ],
  "extensionsRequired": [
    "KHR_materials_unlit"
  ],
  "scene": 0,
  "scenes": [
    {
      "nodes": [
        0
      ]
    }
  ],
  "nodes": [
    {
      "name": "CosmicRayEvent",
      "mesh": 0
    }
  ],
  "meshes": [
    {
      "name": "CosmicRayEvent",
      "primitives": [
        {
          "attributes": {
            "POSITION": 0
          },
          "material": 0,
          "mode": 1
        },
        {
          "attributes": {
            "POSITION": 1
          },
          "material": 1,
          "mode": 1
        },
        {
          "attributes": {
            "POSITION": 2
          },
          "material": 2,
          "mode": 1
        },
        {
          "attributes": {
            "POSITION": 3
          },
          "material": 3,
          "mode": 1
        },
        {
          "attributes": {
            "POSITION": 4
          },
          "material": 4,
          "mode": 1
        }
      ]
    }
  ],
  "materials": [
    {
      "name": "primary",
      "extensions": {
        "KHR_materials_unlit": {}
      },
      "pbrMetallicRoughness": {
        "baseColorFactor": [
          0.961,
          0.961,
          0.961,
          1
        ],
        "metallicFactor": 0,
        "roughnessFactor": 1
      }
    },
    {
      "name": "vertex",
      "extensions": {
        "KHR_materials_unlit": {}
      },
      "pbrMetallicRoughness": {
        "baseColorFactor": [
          0.902,
          0.902,
          0.902,
          0.9
        ],
        "metallicFactor": 0,
        "roughnessFactor": 1
      }
    },
    {
      "name": "em",
      "extensions": {
        "KHR_materials_unlit": {}
      },
      "pbrMetallicRoughness": {
        "baseColorFactor": [
          0.471,
          0.824,
          1,
          1
        ],
        "metallicFactor": 0,
        "roughnessFactor": 1
      }
    },
    {
      "name": "hadron",
      "extensions": {
        "KHR_materials_unlit": {}
      },
      "pbrMetallicRoughness": {
        "baseColorFactor": [
          0.549,
          1,
          0.745,
          1
        ],
        "metallicFactor": 0,
        "roughnessFactor": 1
      }
    },
    {
      "name": "delta",
      "extensions": {
        "KHR_materials_unlit": {}
      },
      "pbrMetallicRoughness": {
        "baseColorFactor": [
          0.804,
          0.647,
          1,
          1
        ],
        "metallicFactor": 0,
        "roughnessFactor": 1
      }
    }
  ],
  "accessors": [
    {
      "bufferView": 0,
      "byteOffset": 0,
      "componentType": 5126,
      "count": 1426,
      "type": "VEC3",
      "min": [
        -1.0001254081726074,
        -0.34558892250061035,
        0
      ],
      "max": [
        1.0226572751998901,
        0.34631094336509705,
        0
      ]
    },
    {
      "bufferView": 1,
      "byteOffset": 0,
      "componentType": 5126,
      "count": 348,
      "type": "VEC3",
      "min": [
        -0.023990552872419357,
        -0.023599393665790558,
        -0.06695479154586792
      ],
      "max": [
        0.007852129638195038,
        0.015928801149129868,
        0.07181049883365631
      ]
    },
    {
      "bufferView": 2,
      "byteOffset": 0,
      "componentType": 5126,
      "count": 552,
      "type": "VEC3",
      "min": [
        -0.0036006912123411894,
        -0.0026051641907542944,
        -0.11742566525936127
      ],
      "max": [
        0.15998724102973938,
        0.06199674680829048,
        0.028502047061920166
      ]
    },
    {
      "bufferView": 3,
      "byteOffset": 0,
      "componentType": 5126,
      "count": 1718,
      "type": "VEC3",
      "min": [
        -0.004934727679938078,
        -0.003670275676995516,
        -0.5905824303627014
      ],
      "max": [
        0.20990030467510223,
        0.11372506618499756,
        0.12432466447353363
      ]
    },
    {
      "bufferView": 4,
      "byteOffset": 0,
      "componentType": 5126,
      "count": 654,
      "type": "VEC3",
      "min": [
        -0.18188989162445068,
        -0.10436161607503891,
        -0.06760077178478241
      ],
      "max": [
        0.13162805140018463,
        0.11103426665067673,
        0.7322444915771484
      ]
    }
  ],
  "bufferViews": [
    {
      "buffer": 0,
      "byteOffset": 0,
      "byteLength": 17112,
      "target": 34962
    },
    {
      "buffer": 0,
      "byteOffset": 17112,
      "byteLength": 4176,
      "target": 34962
    },
    {
      "buffer": 0,
      "byteOffset": 21288,
      "byteLength": 6624,
      "target": 34962
    },
    {
      "buffer": 0,
      "byteOffset": 27912,
      "byteLength": 20616,
      "target": 34962
    },
    {
      "buffer": 0,
      "byteOffset": 48528,
      "byteLength": 7848,
      "target": 34962
    }
  ],
  "buffers": [
    {
      "byteLength": 56376,
      "uri": "data:application/octet-stream;base64,"
    }
  ]
}