<?xml version="1.0" encoding="UTF-8"?>
<svg xmlns="http://www.w3.org/2000/svg" width="2000" height="2000" viewBox="0 0 2000 2000">
<g fill="none" stroke-linecap="round" stroke-linejoin="round">
  <path d="M 887.50 1048.58 L 884.33 1049.44 L 881.19 1050.34 L 878.05 1051.19 L 874.94 1052.11 L 871.85 1053.03 L 868.75 1053.91 L 865.68 1054.80 L 862.63 1055.72 L 859.58 1056.63 L 856.55 1057.55 L 853.56 1058.53 L 850.55 1059.43 L 847.57 1060.39 L 844.60 1061.30 L 841.62 1062.19 L 838.66 1063.06 L 835.69 1063.88 L 832.75 1064.72 L 829.78 1065.46 L 826.83 1066.17 L 823.89 1066.90 L 820.97 1067.64 L 818.07 1068.42 L 815.16 1069.15 L 812.28 1069.89 L 809.42 1070.71 L 806.58 1071.51 L 803.76 1072.37 L 800.96 1073.23 L 798.17 1074.09 L 795.39 1074.96" stroke="rgb(120,210,255)" stroke-opacity="0.854" stroke-width="1.64" />
  <path d="M 1002.53 997.00 L 999.43 998.18 L 996.35 999.34 L 993.30 1000.57 L 990.23 1001.72 L 987.18 1002.86 L 984.13 1003.98 L 981.11 1005.14 L 978.09 1006.27 L 975.12 1007.47 L 972.16 1008.68 L 969.24 1009.95 L 966.31 1011.16 L 963.38 1012.32 L 960.47 1013.51 L 957.60 1014.76 L 954.76 1016.05 L 951.93 1017.33 L 949.08 1018.55 L 946.25 1019.77 L 943.44 1020.99 L 940.64 1022.24 L 937.89 1023.54 L 935.15 1024.85 L 932.44 1026.17 L 929.76 1027.55 L 927.08 1028.89 L 924.43 1030.26 L 921.82 1031.68 L 919.23 1033.11 L 916.70 1034.63 L 914.15 1036.09 L 911.60 1037.53 L 909.06 1038.95 L 906.52 1040.35 L 904.00 1041.77 L 901.49 1043.18 L 898.99 1044.58 L 896.48 1045.95 L 893.97 1047.29" stroke="rgb(120,210,255)" stroke-opacity="0.854" stroke-width="1.63" />
  <path d="M 1003.12 1000.32 L 999.98 1001.55 L 996.84 1002.75 L 993.70 1003.92 L 990.59 1005.11 L 987.50 1006.32 L 984.42 1007.52 L 981.36 1008.75 L 978.33 1010.01 L 975.33 1011.30 L 972.34 1012.58 L 969.39 1013.90 L 966.44 1015.22 L 963.47 1016.47" stroke="rgb(120,210,255)" stroke-opacity="0.853" stroke-width="1.63" />
  <path d="M 995.29 1000.37 L 992.29 1001.65 L 989.30 1002.94 L 986.31 1004.18 L 983.33 1005.40 L 980.37 1006.64 L 977.42 1007.88 L 974.49 1009.13 L 971.57 1010.38 L 968.65 1011.59 L 965.75 1012.81 L 962.85 1014.01 L 959.98 1015.23 L 957.10 1016.42 L 954.27 1017.66 L 951.43 1018.89 L 948.60 1020.08 L 945.78 1021.26 L 942.99 1022.50 L 940.28 1023.86 L 937.59 1025.25 L 934.91 1026.61 L 932.24 1027.99 L 929.60 1029.38 L 926.97 1030.78 L 924.37 1032.20 L 921.82 1033.68 L 919.24 1035.10 L 916.68 1036.53 L 914.14 1037.96 L 911.60 1039.36 L 909.06 1040.75 L 906.55 1042.17 L 904.07 1043.61 L 901.59 1045.04 L 899.15 1046.51 L 896.71 1047.95 L 894.28 1049.40 L 891.89 1050.88 L 889.51 1052.37 L 887.17 1053.88" stroke="rgb(120,210,255)" stroke-opacity="0.849" stroke-width="1.62" />
  <path d="M 1001.69 1001.83 L 998.66 1002.86 L 995.63 1003.83 L 992.59 1004.77 L 989.55 1005.61 L 986.50 1006.41 L 983.47 1007.23 L 980.44 1007.98 L 977.42 1008.74 L 974.43 1009.54 L 971.44 1010.32 L 968.45 1011.05 L 965.47 1011.77 L 962.52 1012.51 L 959.56 1013.22 L 956.63 1013.95 L 953.69 1014.65 L 950.77 1015.33 L 947.85 1015.97 L 944.94 1016.62" stroke="rgb(120,210,255)" stroke-opacity="0.849" stroke-width="1.62" />
  <path d="M 955.06 1019.63 L 952.01 1020.76 L 948.96 1021.85 L 945.91 1022.91 L 942.89 1024.03 L 939.92 1025.22 L 936.97 1026.43 L 934.03 1027.64 L 931.13 1028.90 L 928.21 1030.09 L 925.30 1031.26 L 922.38 1032.39 L 919.48 1033.52 L 916.60 1034.68 L 913.76 1035.89 L 910.95 1037.14 L 908.13 1038.34" stroke="rgb(120,210,255)" stroke-opacity="0.848" stroke-width="1.62" />
  <path d="M 1001.97 1000.56 L 999.13 1001.68 L 996.31 1002.80 L 993.52 1003.97 L 990.71 1005.06 L 987.89 1006.05 L 985.08 1007.07 L 982.30 1008.13 L 979.51 1009.13 L 976.77 1010.24 L 974.07 1011.40 L 971.41 1012.62 L 968.80 1013.91 L 966.21 1015.24 L 963.59 1016.47 L 961.00 1017.71 L 958.41 1018.96 L 955.81 1020.15 L 953.20 1021.28 L 950.62 1022.46 L 948.08 1023.70 L 945.56 1024.94 L 943.04 1026.16 L 940.54 1027.41 L 938.05 1028.64 L 935.59 1029.90 L 933.11 1031.11 L 930.66 1032.34 L 928.22 1033.59 L 925.81 1034.86 L 923.41 1036.12 L 921.02 1037.39 L 918.62 1038.60 L 916.26 1039.87 L 913.93 1041.17 L 911.61 1042.48 L 909.32 1043.81 L 907.01 1045.09 L 904.71 1046.34 L 902.43 1047.64 L 900.18 1048.96 L 897.95 1050.27 L 895.78 1051.68" stroke="rgb(120,210,255)" stroke-opacity="0.466" stroke-width="1.62" />
  <path d="M 826.18 1074.99 L 823.07 1075.54 L 819.97 1076.07 L 816.91 1076.75 L 813.87 1077.44 L 810.83 1078.09 L 807.78 1078.63 L 804.76 1079.25 L 801.77 1079.92 L 798.80 1080.69 L 795.84 1081.40 L 792.90 1082.14 L 789.97 1082.87 L 787.05 1083.62 L 784.15 1084.35 L 781.26 1085.13 L 778.40 1085.95 L 775.59 1086.88 L 772.80 1087.82 L 769.97 1088.61 L 767.17 1089.46 L 764.39 1090.36 L 761.64 1091.28 L 758.87 1092.09 L 756.10 1092.90 L 753.34 1093.68 L 750.60 1094.49 L 747.88 1095.33 L 745.20 1096.24 L 742.53 1097.17 L 739.93 1098.22 L 737.33 1099.28 L 734.78 1100.39 L 732.20 1101.45 L 729.65 1102.50" stroke="rgb(120,210,255)" stroke-opacity="0.847" stroke-width="1.62" />
  <path d="M 997.40 1000.98 L 994.30 1002.35 L 991.21 1003.72 L 988.14 1005.09 L 985.06 1006.41 L 982.00 1007.75 L 978.94 1009.05 L 975.88 1010.32 L 972.86 1011.64 L 969.86 1012.98 L 966.89 1014.34 L 963.92 1015.68 L 960.96 1017.01 L 958.01 1018.34 L 955.06 1019.63 L 952.12 1020.91 L 949.20 1022.20 L 946.30 1023.50 L 943.41 1024.79 L 940.50 1026.01 L 937.61 1027.27 L 934.73 1028.48 L 931.84 1029.66 L 928.97 1030.84 L 926.10 1032.00 L 923.25 1033.16 L 920.39 1034.27 L 917.55 1035.39 L 914.72 1036.51 L 911.94 1037.74 L 909.20 1038.99 L 906.47 1040.26 L 903.75 1041.51 L 901.03 1042.74 L 898.32 1043.96 L 895.60 1045.13 L 892.89 1046.27 L 890.18 1047.42 L 887.50 1048.58 L 884.81 1049.70 L 882.14 1050.83 L 879.47 1051.94 L 876.81 1053.03 L 874.16 1054.13 L 871.53 1055.24 L 868.90 1056.31 L 866.27 1057.35 L 863.68 1058.49 L 861.09 1059.57 L 858.53 1060.70 L 856.00 1061.86 L 853.48 1063.02 L 850.95 1064.14 L 848.42 1065.22 L 845.90 1066.32 L 843.41 1067.45 L 840.94 1068.58 L 838.49 1069.74 L 836.02 1070.83 L 833.57 1071.92 L 831.10 1072.95 L 828.64 1073.98 L 826.18 1074.99 L 823.72 1075.97 L 821.28 1076.95 L 818.84 1077.92 L 816.43 1078.94 L 814.02 1079.93 L 811.62 1080.91 L 809.23 1081.88 L 806.84 1082.83 L 804.47 1083.81 L 802.12 1084.80 L 799.78 1085.79 L 797.45 1086.76 L 795.12 1087.73 L 792.80 1088.70 L 790.49 1089.64 L 788.16 1090.55" stroke="rgb(120,210,255)" stroke-opacity="0.847" stroke-width="1.61" />
  <path d="M 1003.42 1001.25 L 1000.53 1002.62 L 997.63 1003.96 L 994.74 1005.29 L 991.86 1006.61 L 988.96 1007.86 L 986.07 1009.10 L 983.20 1010.33 L 980.32 1011.53 L 977.45 1012.71 L 974.59 1013.89 L 971.74 1015.07 L 968.90 1016.22 L 966.07 1017.36 L 963.24 1018.50 L 960.44 1019.66 L 957.66 1020.82 L 954.89 1022.00 L 952.13 1023.18 L 949.42 1024.41 L 946.71 1025.63 L 944.02 1026.86 L 941.38 1028.17 L 938.71 1029.39 L 936.05 1030.60 L 933.42 1031.86 L 930.79 1033.08 L 928.15 1034.26 L 925.52 1035.43 L 922.92 1036.62 L 920.33 1037.82 L 917.74 1038.99 L 915.16 1040.16 L 912.58 1041.31 L 910.06 1042.54 L 907.55 1043.77 L 905.06 1045.02 L 902.61 1046.34 L 900.19 1047.67 L 897.87 1049.15 L 895.57 1050.64 L 893.31 1052.18 L 891.05 1053.69 L 888.80 1055.21 L 886.55 1056.69" stroke="rgb(120,210,255)" stroke-opacity="0.847" stroke-width="1.61" />
  <path d="M 1003.05 998.48 L 999.89 999.63 L 996.78 1000.86 L 993.70 1002.13 L 990.63 1003.40 L 987.58 1004.68 L 984.54 1005.95 L 981.52 1007.24 L 978.50 1008.49 L 975.51 1009.77 L 972.52 1011.02 L 969.57 1012.34 L 966.61 1013.61 L 963.70 1014.94 L 960.82 1016.31 L 957.93 1017.64" stroke="rgb(120,210,255)" stroke-opacity="0.843" stroke-width="1.60" />
  <path d="M 1000.76 1002.38 L 997.65 1003.65 L 994.54 1004.89 L 991.45 1006.13 L 988.37 1007.37 L 985.29 1008.57 L 982.24 1009.80 L 979.20 1011.03 L 976.17 1012.22 L 973.14 1013.41 L 970.16 1014.68 L 967.18 1015.91 L 964.22 1017.17 L 961.28 1018.42 L 958.33 1019.62 L 955.39 1020.83 L 952.46 1022.01 L 949.51 1023.11 L 946.57 1024.20 L 943.65 1025.33 L 940.77 1026.50 L 937.89 1027.63 L 935.00 1028.73 L 932.12 1029.79 L 929.25 1030.86 L 926.41 1031.97 L 923.58 1033.08 L 920.79 1034.25 L 918.00 1035.39 L 915.24 1036.57 L 912.49 1037.73 L 909.74 1038.87 L 907.02 1040.06 L 904.32 1041.25 L 901.62 1042.42 L 898.91 1043.54 L 896.23 1044.69 L 893.55 1045.82 L 890.90 1046.97 L 888.24 1048.09 L 885.58 1049.16 L 882.90 1050.16 L 880.23 1051.16 L 877.54 1052.08 L 874.90 1053.07 L 872.26 1054.04 L 869.63 1055.01 L 867.01 1055.99 L 864.42 1057.01" stroke="rgb(120,210,255)" stroke-opacity="0.842" stroke-width="1.60" />
  <path d="M 999.11 1002.44 L 996.42 1003.59 L 993.76 1004.77 L 991.10 1005.93 L 988.44 1007.09 L 985.83 1008.30 L 983.24 1009.53 L 980.66 1010.77 L 978.11 1012.03 L 975.58 1013.30 L 973.00 1014.46 L 970.45 1015.63 L 967.90 1016.80 L 965.38 1018.00 L 962.82 1019.08 L 960.27 1020.14 L 957.73 1021.22 L 955.17 1022.21 L 952.59 1023.11 L 950.04 1024.06 L 947.49 1025.01 L 944.97 1025.97 L 942.47 1026.96 L 940.00 1028.01 L 937.56 1029.08 L 935.12 1030.14 L 932.68 1031.17 L 930.24 1032.18 L 927.82 1033.20 L 925.43 1034.25 L 923.02 1035.25 L 920.61 1036.21 L 918.23 1037.22 L 915.84 1038.18 L 913.45 1039.12 L 911.04 1039.96 L 908.63 1040.78 L 906.24 1041.62 L 903.85 1042.42 L 901.49 1043.28 L 899.14 1044.15 L 896.78 1044.97 L 894.47 1045.86 L 892.18 1046.81 L 889.94 1047.84 L 887.72 1048.89 L 885.55 1050.00 L 883.39 1051.13 L 881.30 1052.36 L 879.24 1053.61 L 877.13 1054.77 L 875.05 1055.96" stroke="rgb(120,210,255)" stroke-opacity="0.461" stroke-width="1.59" />
  <path d="M 882.90 1050.16 L 880.70 1051.46 L 878.52 1052.75 L 876.34 1054.04 L 874.12 1055.21 L 871.96 1056.49 L 869.78 1057.70 L 867.59 1058.89 L 865.39 1060.01 L 863.20 1061.16 L 861.04 1062.33 L 858.81 1063.33 L 856.57 1064.30 L 854.31 1065.17 L 852.08 1066.11 L 849.89 1067.12 L 847.74 1068.18 L 845.54 1069.11 L 843.33 1070.00 L 841.16 1070.94 L 838.99 1071.88 L 836.87 1072.90 L 834.85 1074.08 L 832.82 1075.23 L 830.79 1076.36 L 828.81 1077.56 L 826.88 1078.81 L 825.03 1080.18 L 823.20 1081.55 L 821.46 1083.02 L 819.71 1084.46 L 817.96 1085.88 L 816.31 1087.42 L 814.63 1088.90 L 812.90 1090.31 L 811.21 1091.75 L 809.56 1093.22 L 807.90 1094.68 L 806.26 1096.14 L 804.66 1097.64 L 803.00 1099.04 L 801.30 1100.39 L 799.59 1101.72 L 797.91 1103.06 L 796.23 1104.39 L 794.52 1105.66 L 792.89 1107.04 L 791.32 1108.46 L 789.73 1109.85 L 788.08 1111.15 L 786.48 1112.49 L 784.93 1113.90 L 783.46 1115.35 L 782.00 1116.83 L 780.50 1118.24 L 778.98 1119.61 L 777.43 1120.94 L 775.93 1122.32 L 774.46 1123.72 L 773.06 1125.16 L 771.71 1126.66 L 770.39 1128.16 L 769.10 1129.68 L 767.74 1131.13 L 766.37 1132.56 L 764.97 1133.95 L 763.59 1135.34 L 762.18 1136.70 L 760.78 1138.05 L 759.35 1139.36 L 757.99 1140.74 L 756.68 1142.15" stroke="rgb(120,210,255)" stroke-opacity="0.447" stroke-width="1.51" />
  <path d="M 810.27 1120.92 L 808.79 1122.46 L 807.26 1123.93 L 805.75 1125.42 L 804.26 1126.90 L 802.81 1128.42" stroke="rgb(140,255,190)" stroke-opacity="0.585" stroke-width="1.30" />
  <path d="M 1001.89 1001.33 L 1003.48 1004.43 L 1005.07 1007.51 L 1006.61 1010.60 L 1008.13 1013.69 L 1009.68 1016.75 L 1011.21 1019.81 L 1012.71 1022.86 L 1014.21 1025.90 L 1015.67 1028.94 L 1017.15 1031.96 L 1018.65 1034.95 L 1020.11 1037.95 L 1021.56 1040.94 L 1022.97 1043.93 L 1024.39 1046.91 L 1025.76 1049.89 L 1027.09 1052.87 L 1028.42 1055.84 L 1029.76 1058.80 L 1031.13 1061.72 L 1032.52 1064.62 L 1033.90 1067.51 L 1035.28 1070.39 L 1036.71 1073.23 L 1038.09 1076.08 L 1039.46 1078.92 L 1040.85 1081.73 L 1042.23 1084.54 L 1043.64 1087.31 L 1045.08 1090.06 L 1046.50 1092.81 L 1047.92 1095.54 L 1049.36 1098.24 L 1050.84 1100.92 L 1052.28 1103.59 L 1053.74 1106.24 L 1055.18 1108.89 L 1056.66 1111.51 L 1058.11 1114.13 L 1059.55 1116.74 L 1060.97 1119.34 L 1062.34 1121.96 L 1063.69 1124.58 L 1065.01 1127.20 L 1066.31 1129.81 L 1067.63 1132.41 L 1068.95 1134.99 L 1070.28 1137.55 L 1071.60 1140.10 L 1072.93 1142.64 L 1074.28 1145.16 L 1075.61 1147.66 L 1076.92 1150.17 L 1078.23 1152.67 L 1079.56 1155.14 L 1080.88 1157.60 L 1082.21 1160.05 L 1083.48 1162.51 L 1084.75 1164.97 L 1086.01 1167.41 L 1087.29 1169.84 L 1088.55 1172.26 L 1089.78 1174.68 L 1090.98 1177.10 L 1092.21 1179.50 L 1093.41 1181.91 L 1094.60 1184.30 L 1095.79 1186.69 L 1096.93 1189.08 L 1098.09 1191.46 L 1099.25 1193.82 L 1100.38 1196.18" stroke="rgb(205,165,255)" stroke-opacity="0.726" stroke-width="1.26" />
  <path d="M 999.55 996.08 L 997.74 997.38 L 995.92 998.65 L 994.12 999.93 L 992.30 1001.16 L 990.46 1002.35 L 988.49 1003.29 L 986.54 1004.25 L 984.55 1005.11 L 982.54 1005.89 L 980.53 1006.65 L 978.53 1007.39 L 976.53 1008.14 L 974.56 1008.93 L 972.61 1009.75 L 970.69 1010.60 L 968.73 1011.35 L 966.77 1012.06 L 964.79 1012.72 L 962.85 1013.43 L 960.87 1014.00 L 958.93 1014.69 L 956.98 1015.30 L 955.01 1015.83 L 953.08 1016.45 L 951.15 1017.07 L 949.24 1017.69 L 947.32 1018.30 L 945.43 1018.93 L 943.48 1019.36 L 941.54 1019.74 L 939.61 1020.18 L 937.70 1020.62 L 935.79 1021.08 L 933.93 1021.64 L 932.06 1022.19 L 930.22 1022.78 L 928.37 1023.31 L 926.54 1023.91 L 924.70 1024.42 L 922.85 1024.85 L 921.00 1025.30 L 919.15 1025.65 L 917.30 1026.03 L 915.46 1026.35 L 913.62 1026.70 L 911.79 1026.99 L 909.97 1027.33 L 908.15 1027.64 L 906.36 1028.04 L 904.57 1028.43 L 902.77 1028.72 L 900.98 1029.04 L 899.21 1029.41 L 897.46 1029.79 L 895.68 1030.08 L 893.92 1030.34 L 892.15 1030.55 L 890.39 1030.76 L 888.64 1030.95 L 886.89 1031.16 L 885.15 1031.37 L 883.42 1031.51 L 881.69 1031.64 L 879.96 1031.79 L 878.25 1031.98 L 876.54 1032.07" stroke="rgb(140,255,190)" stroke-opacity="0.571" stroke-width="1.25" />
  <path d="M 1087.29 1169.84 L 1089.97 1172.03 L 1092.69 1174.16 L 1095.37 1176.31 L 1097.99 1178.52 L 1100.59 1180.72 L 1103.19 1182.91 L 1105.77 1185.09 L 1108.31 1187.31 L 1110.85 1189.51 L 1113.41 1191.66 L 1115.97 1193.78 L 1118.52 1195.91 L 1121.02 1198.06 L 1123.51 1200.22 L 1125.97 1202.38 L 1128.41 1204.55 L 1130.83 1206.72 L 1133.28 1208.83 L 1135.78 1210.88 L 1138.25 1212.92 L 1140.70 1214.99 L 1143.09 1217.09 L 1145.50 1219.15 L 1147.94 1221.17 L 1150.37 1223.17 L 1152.71 1225.25 L 1155.04 1227.33 L 1157.37 1229.39 L 1159.66 1231.48 L 1161.94 1233.56 L 1164.19 1235.66 L 1166.38 1237.79 L 1168.58 1239.91 L 1170.78 1241.99 L 1172.95 1244.10 L 1175.10 1246.21 L 1177.24 1248.31 L 1179.36 1250.42 L 1181.50 1252.49 L 1183.61 1254.57 L 1185.68 1256.67 L 1187.72 1258.79 L 1189.73 1260.92" stroke="rgb(205,165,255)" stroke-opacity="0.718" stroke-width="1.24" />
  <path d="M 998.50 995.87 L 998.54 999.28 L 998.59 1002.68 L 998.66 1006.07 L 998.74 1009.44 L 998.81 1012.79 L 998.84 1016.14 L 998.84 1019.47 L 998.80 1022.78 L 998.74 1026.09 L 998.69 1029.38 L 998.64 1032.65 L 998.61 1035.92 L 998.49 1039.17 L 998.34 1042.40 L 998.25 1045.63 L 998.13 1048.84 L 998.01 1052.04 L 997.88 1055.22 L 997.73 1058.39 L 997.58 1061.55 L 997.38 1064.69 L 997.15 1067.82 L 996.96 1070.94 L 996.80 1074.04 L 996.75 1077.14 L 996.69 1080.23 L 996.61 1083.30 L 996.52 1086.36 L 996.44 1089.41 L 996.33 1092.44 L 996.24 1095.47 L 996.14 1098.48 L 996.03 1101.48 L 995.91 1104.47 L 995.80 1107.44 L 995.71 1110.40 L 995.66 1113.36 L 995.65 1116.30 L 995.61 1119.23 L 995.55 1122.14" stroke="rgb(205,165,255)" stroke-opacity="0.718" stroke-width="1.24" />
  <path d="M 999.14 1003.15 L 998.20 1000.01 L 997.31 996.87 L 996.47 993.73 L 995.68 990.59 L 994.94 987.45 L 994.17 984.33 L 993.42 981.22 L 992.80 978.09 L 992.18 974.98 L 991.53 971.88 L 990.90 968.79 L 990.28 965.72 L 989.65 962.66 L 988.99 959.62 L 988.34 956.59 L 987.67 953.57 L 986.93 950.59 L 986.22 947.61 L 985.52 944.64 L 984.87 941.67 L 984.19 938.72 L 983.47 935.80 L 982.68 932.90 L 981.89 930.02 L 981.08 927.15 L 980.22 924.31" stroke="rgb(205,165,255)" stroke-opacity="0.711" stroke-width="1.22" />
  <path d="M 1078.23 1152.67 L 1078.20 1155.88 L 1078.15 1159.08 L 1077.93 1162.26 L 1077.72 1165.43 L 1077.38 1168.58 L 1077.05 1171.71 L 1076.70 1174.83 L 1076.32 1177.93 L 1075.84 1181.01 L 1075.23 1184.05 L 1074.60 1187.07 L 1074.00 1190.09 L 1073.52 1193.11 L 1073.09 1196.14 L 1072.69 1199.15 L 1072.34 1202.16 L 1072.04 1205.15 L 1071.69 1208.14 L 1071.38 1211.11 L 1071.03 1214.07 L 1070.65 1217.01 L 1070.31 1219.95 L 1069.96 1222.87 L 1069.63 1225.78 L 1069.40 1228.69 L 1069.16 1231.59 L 1068.91 1234.48 L 1068.71 1237.35 L 1068.60 1240.23 L 1068.43 1243.08 L 1068.20 1245.92 L 1067.99 1248.75 L 1067.74 1251.57" stroke="rgb(205,165,255)" stroke-opacity="0.704" stroke-width="1.20" />
  <path d="M 998.63 997.19 L 995.21 997.81 L 991.80 998.40 L 988.42 999.06 L 985.06 999.73 L 981.70 1000.37 L 978.35 1000.98 L 975.03 1001.63 L 971.72 1002.30 L 968.42 1002.94 L 965.13 1003.55 L 961.85 1004.17 L 958.59 1004.80 L 955.34 1005.43 L 952.10 1006.03 L 948.87 1006.61 L 945.65 1007.22 L 942.45 1007.81 L 939.26 1008.39 L 936.07 1008.89 L 932.89 1009.40 L 929.72 1009.88 L 926.57 1010.37 L 923.43 1010.88 L 920.31 1011.42 L 917.20 1011.95 L 914.11 1012.48 L 911.03 1013.03 L 907.96 1013.59 L 904.91 1014.16 L 901.87 1014.69 L 898.84 1015.25 L 895.83 1015.84 L 892.84 1016.46 L 889.87 1017.11 L 886.92 1017.79 L 883.97 1018.46 L 881.05 1019.14 L 878.13 1019.80 L 875.22 1020.48 L 872.33 1021.16 L 869.46 1021.87 L 866.60 1022.57 L 863.75 1023.25 L 860.90 1023.91 L 858.06 1024.54 L 855.23 1025.19 L 852.42 1025.82 L 849.61 1026.47 L 846.82 1027.09 L 844.03 1027.72 L 841.27 1028.36 L 838.52 1029.04 L 835.78 1029.68 L 833.03 1030.29 L 830.29 1030.84 L 827.56 1031.39 L 824.84 1031.92" stroke="rgb(140,255,190)" stroke-opacity="0.740" stroke-width="1.19" />
  <path d="M 999.96 999.88 L 997.25 1002.01 L 994.55 1004.14 L 991.85 1006.24 L 989.12 1008.28 L 986.35 1010.24 L 983.61 1012.22 L 980.86 1014.18 L 978.12 1016.11 L 975.42 1018.07 L 972.74 1020.05 L 970.07 1022.01 L 967.39 1023.94 L 964.73 1025.88 L 962.07 1027.78 L 959.41 1029.68 L 956.78 1031.58 L 954.16 1033.48 L 951.54 1035.36 L 948.92 1037.22 L 946.33 1039.09 L 943.74 1040.94 L 941.13 1042.74 L 938.52 1044.52 L 935.91 1046.28 L 933.30 1048.02 L 930.71 1049.75 L 928.12 1051.47 L 925.56 1053.21 L 923.01 1054.95 L 920.46 1056.66 L 917.92 1058.37 L 915.38 1060.05 L 912.85 1061.73 L 910.35 1063.43 L 907.84 1065.09 L 905.36 1066.78 L 902.90 1068.47 L 900.50 1070.23 L 898.10 1071.96 L 895.72 1073.70 L 893.34 1075.43 L 890.96 1077.14 L 888.60 1078.85 L 886.23 1080.52 L 883.85 1082.17 L 881.49 1083.82 L 879.14 1085.46 L 876.81 1087.13 L 874.51 1088.80 L 872.19 1090.43 L 869.92 1092.10 L 867.63 1093.75 L 865.35 1095.36 L 863.07 1096.97 L 860.82 1098.61 L 858.59 1100.25 L 856.37 1101.88 L 854.16 1103.51 L 851.95 1105.12 L 849.75 1106.73 L 847.54 1108.30 L 845.34 1109.87 L 843.16 1111.44 L 840.97 1112.99 L 838.80 1114.55 L 836.64 1116.09 L 834.45 1117.58 L 832.25 1119.05 L 830.04 1120.45 L 827.85 1121.89 L 825.67 1123.32 L 823.49 1124.74 L 821.35 1126.17 L 819.19 1127.58 L 817.08 1129.03 L 814.99 1130.50 L 812.93 1132.00 L 810.87 1133.48 L 808.84 1134.97 L 806.82 1136.48" stroke="rgb(140,255,190)" stroke-opacity="0.737" stroke-width="1.19" />
  <path d="M 1005.52 999.64 L 1003.83 1002.25 L 1002.20 1004.89 L 1000.62 1007.54 L 999.07 1010.20 L 997.52 1012.84 L 995.95 1015.46 L 994.37 1018.05 L 992.86 1020.68 L 991.41 1023.32 L 990.02 1025.98 L 988.61 1028.62 L 987.20 1031.24 L 985.73 1033.81 L 984.19 1036.34 L 982.60 1038.81 L 981.04 1041.29 L 979.41 1043.71 L 977.77 1046.11 L 976.11 1048.49 L 974.45 1050.84 L 972.80 1053.20 L 971.18 1055.55 L 969.58 1057.91 L 968.04 1060.30 L 966.51 1062.67 L 964.99 1065.04 L 963.49 1067.41 L 961.93 1069.73 L 960.38 1072.04 L 958.83 1074.33 L 957.38 1076.68 L 955.91 1079.00 L 954.42 1081.30 L 952.89 1083.56 L 951.37 1085.81 L 949.85 1088.04 L 948.28 1090.24 L 946.70 1092.41 L 945.17 1094.60 L 943.65 1096.78 L 942.10 1098.93 L 940.56 1101.08 L 938.96 1103.17 L 937.38 1105.26 L 935.82 1107.35 L 934.30 1109.46 L 932.81 1111.57 L 931.33 1113.68 L 929.84 1115.77 L 928.35 1117.85 L 926.88 1119.93 L 925.40 1121.99 L 923.97 1124.07 L 922.51 1126.13 L 921.08 1128.18 L 919.66 1130.23 L 918.26 1132.29 L 916.82 1134.30 L 915.32 1136.26 L 913.80 1138.20 L 912.32 1140.14 L 910.85 1142.09 L 909.43 1144.06 L 908.04 1146.03 L 906.66 1148.01 L 905.30 1149.99 L 903.93 1151.94 L 902.55 1153.88 L 901.22 1155.84 L 899.94 1157.82 L 898.62 1159.77 L 897.35 1161.73 L 896.08 1163.69 L 894.79 1165.63 L 893.52 1167.56 L 892.26 1169.49 L 890.99 1171.40 L 889.75 1173.32 L 888.48 1175.21 L 887.18 1177.06 L 885.85 1178.89" stroke="rgb(205,165,255)" stroke-opacity="0.698" stroke-width="1.18" />
  <path d="M 1001.09 1001.34 L 998.02 1002.55 L 994.95 1003.76 L 991.90 1004.95 L 988.84 1006.09 L 985.82 1007.30 L 982.81 1008.52 L 979.84 1009.78 L 976.88 1011.04 L 973.95 1012.32 L 971.02 1013.57 L 968.12 1014.87 L 965.23 1016.17 L 962.34 1017.41 L 959.45 1018.66 L 956.58 1019.89 L 953.72 1021.11 L 950.85 1022.30 L 948.02 1023.54 L 945.18 1024.71 L 942.33 1025.84 L 939.47 1026.91 L 936.62 1027.95 L 933.78 1029.01 L 930.97 1030.09 L 928.16 1031.15 L 925.34 1032.16 L 922.53 1033.14 L 919.72 1034.11 L 916.93 1035.07 L 914.14 1036.00 L 911.33 1036.85 L 908.54 1037.70 L 905.75 1038.55 L 902.98 1039.40 L 900.22 1040.24" stroke="rgb(140,255,190)" stroke-opacity="0.732" stroke-width="1.17" />
  <path d="M 1020.11 1037.95 L 1020.10 1040.97 L 1020.07 1043.97 L 1020.13 1046.96 L 1020.27 1049.93 L 1020.44 1052.90 L 1020.49 1055.85 L 1020.41 1058.79 L 1020.27 1061.72 L 1020.07 1064.63 L 1019.96 1067.54 L 1019.81 1070.43 L 1019.75 1073.32 L 1019.65 1076.19 L 1019.58 1079.05 L 1019.47 1081.90 L 1019.34 1084.73 L 1019.22 1087.56 L 1019.13 1090.37 L 1019.09 1093.18 L 1018.99 1095.97 L 1018.90 1098.75 L 1018.73 1101.51 L 1018.68 1104.27 L 1018.55 1107.02 L 1018.35 1109.75 L 1018.27 1112.48 L 1018.06 1115.19 L 1017.96 1117.89 L 1017.80 1120.58 L 1017.62 1123.26 L 1017.43 1125.92 L 1017.21 1128.58 L 1017.03 1131.22 L 1016.83 1133.86 L 1016.59 1136.48 L 1016.43 1139.09 L 1016.29 1141.70 L 1016.11 1144.29 L 1015.99 1146.88 L 1015.81 1149.45 L 1015.70 1152.01 L 1015.53 1154.57 L 1015.37 1157.11 L 1015.25 1159.64 L 1015.04 1162.16 L 1014.78 1164.67 L 1014.49 1167.16 L 1014.24 1169.64 L 1013.93 1172.11 L 1013.64 1174.57 L 1013.42 1177.03 L 1013.22 1179.47 L 1012.95 1181.91 L 1012.71 1184.33 L 1012.50 1186.75 L 1012.27 1189.16" stroke="rgb(205,165,255)" stroke-opacity="0.486" stroke-width="1.17" />
  <path d="M 862.75 1096.25 L 859.38 1096.51 L 856.01 1096.71 L 852.65 1096.97 L 849.32 1097.28 L 846.00 1097.62 L 842.70 1097.93 L 839.40 1098.25 L 836.13 1098.65 L 832.88 1099.10 L 829.64 1099.52 L 826.41 1099.93 L 823.19 1100.36 L 819.99 1100.80 L 816.80 1101.20 L 813.62 1101.59 L 810.46 1102.01 L 807.31 1102.45 L 804.18 1102.90 L 801.06 1103.37 L 797.96 1103.85 L 794.87 1104.37 L 791.80 1104.89 L 788.76 1105.50 L 785.72 1106.08 L 782.70 1106.66 L 779.70 1107.31 L 776.73 1108.01 L 773.76 1108.67 L 770.79 1109.27 L 767.84 1109.87 L 764.89 1110.47 L 761.94 1110.96 L 758.99 1111.42 L 756.07 1111.91 L 753.15 1112.43 L 750.25 1112.89 L 747.35 1113.38 L 744.47 1113.84 L 741.60 1114.33 L 738.74 1114.78 L 735.89 1115.27 L 733.06 1115.76 L 730.23 1116.22 L 727.41 1116.67" stroke="rgb(140,255,190)" stroke-opacity="0.727" stroke-width="1.16" />
  <path d="M 1002.08 998.31 L 999.75 998.97 L 997.40 999.53 L 995.04 1000.01 L 992.69 1000.46 L 990.40 1001.12 L 988.12 1001.80 L 985.90 1002.61 L 983.67 1003.37 L 981.46 1004.18 L 979.34 1005.15 L 977.23 1006.15 L 975.13 1007.14 L 973.07 1008.17 L 970.97 1009.11 L 968.88 1010.05 L 966.81 1011.03 L 964.74 1011.96 L 962.70 1012.94 L 960.67 1013.93 L 958.65 1014.91 L 956.66 1015.93 L 954.69 1016.97 L 952.74 1018.02 L 950.80 1019.09 L 948.86 1020.13 L 946.92 1021.15 L 944.98 1022.15 L 943.05 1023.16 L 941.12 1024.14 L 939.21 1025.15 L 937.33 1026.18 L 935.48 1027.26 L 933.59 1028.25 L 931.69 1029.19 L 929.83 1030.21 L 928.01 1031.26 L 926.22 1032.36 L 924.46 1033.48 L 922.74 1034.66 L 920.99 1035.78 L 919.23 1036.85" stroke="rgb(140,255,190)" stroke-opacity="0.544" stroke-width="1.16" />
  <path d="M 1000.53 1001.19 L 997.75 1002.84 L 995.01 1004.52 L 992.27 1006.19 L 989.56 1007.87 L 986.82 1009.49 L 984.13 1011.16 L 981.46 1012.84 L 978.78 1014.48 L 976.12 1016.13 L 973.46 1017.75 L 970.83 1019.41 L 968.26 1021.13 L 965.69 1022.83 L 963.17 1024.57 L 960.65 1026.30 L 958.15 1028.03 L 955.63 1029.73 L 953.14 1031.43 L 950.66 1033.13 L 948.15 1034.76 L 945.63 1036.36 L 943.11 1037.92 L 940.61 1039.52 L 938.12 1041.09 L 935.62 1042.62 L 933.13 1044.16 L 930.67 1045.71 L 928.20 1047.23 L 925.74 1048.75 L 923.35 1050.34 L 920.97 1051.94 L 918.60 1053.54 L 916.28 1055.18 L 913.99 1056.84 L 911.70 1058.48 L 909.43 1060.14 L 907.18 1061.80 L 904.94 1063.46 L 902.72 1065.13 L 900.51 1066.78 L 898.30 1068.42 L 896.08 1070.03 L 893.89 1071.66 L 891.72 1073.30 L 889.57 1074.96 L 887.42 1076.59 L 885.31 1078.26 L 883.19 1079.88 L 881.08 1081.52 L 879.00 1083.17 L 876.94 1084.83 L 874.89 1086.48 L 872.85 1088.12 L 870.79 1089.74 L 868.73 1091.33 L 866.70 1092.94 L 864.71 1094.58 L 862.75 1096.25 L 860.83 1097.95 L 858.97 1099.69 L 857.15 1101.46 L 855.34 1103.23 L 853.54 1105.00 L 851.73 1106.74 L 849.95 1108.49 L 848.21 1110.27 L 846.49 1112.06" stroke="rgb(140,255,190)" stroke-opacity="0.725" stroke-width="1.16" />
  <path d="M 858.59 1100.25 L 855.61 1101.40 L 852.63 1102.50 L 849.67 1103.63 L 846.72 1104.74 L 843.79 1105.89 L 840.91 1107.12 L 838.06 1108.37 L 835.25 1109.70 L 832.45 1111.00 L 829.65 1112.30 L 826.83 1113.49 L 824.01 1114.67 L 821.23 1115.91 L 818.46 1117.14 L 815.73 1118.42 L 812.99 1119.67 L 810.27 1120.92 L 807.62 1122.28 L 805.01 1123.71 L 802.37 1125.06 L 799.77 1126.43 L 797.19 1127.84 L 794.65 1129.29 L 792.13 1130.74 L 789.59 1132.14 L 787.08 1133.57" stroke="rgb(140,255,190)" stroke-opacity="0.724" stroke-width="1.15" />
  <path d="M 998.90 1002.36 L 996.02 1003.83 L 993.17 1005.33 L 990.31 1006.80 L 987.49 1008.31 L 984.68 1009.81 L 981.91 1011.35 L 979.15 1012.89 L 976.40 1014.43 L 973.66 1015.95 L 970.94 1017.48 L 968.22 1019.00 L 965.51 1020.48 L 962.83 1022.02 L 960.18 1023.57 L 957.51 1025.07 L 954.85 1026.56 L 952.20 1028.04 L 949.53 1029.45 L 946.87 1030.88 L 944.23 1032.30 L 941.65 1033.79 L 939.07 1035.29 L 936.52 1036.79 L 933.96 1038.26 L 931.43 1039.76 L 928.92 1041.27 L 926.41 1042.75 L 923.91 1044.24 L 921.43 1045.73 L 918.97 1047.22 L 916.53 1048.73 L 914.07 1050.19 L 911.65 1051.69 L 909.22 1053.16 L 906.82 1054.64 L 904.43 1056.12 L 902.05 1057.60 L 899.71 1059.13 L 897.34 1060.58 L 894.96 1061.99 L 892.57 1063.37 L 890.19 1064.74 L 887.81 1066.09 L 885.44 1067.42 L 883.06 1068.74 L 880.72 1070.08 L 878.37 1071.40 L 875.99 1072.64 L 873.61 1073.85" stroke="rgb(140,255,190)" stroke-opacity="0.722" stroke-width="1.15" />
  <path d="M 845.34 1109.87 L 843.87 1112.60 L 842.40 1115.31 L 840.86 1117.97 L 839.43 1120.67 L 837.90 1123.31 L 836.46 1125.98 L 835.00 1128.63 L 833.41 1131.19 L 831.78 1133.71 L 830.10 1136.18 L 828.43 1138.64 L 826.76 1141.09 L 825.16 1143.57 L 823.68 1146.11 L 822.16 1148.61 L 820.69 1151.13 L 819.31 1153.69 L 817.90 1156.21 L 816.51 1158.74 L 815.14 1161.26" stroke="rgb(140,255,190)" stroke-opacity="0.537" stroke-width="1.14" />
  <path d="M 998.35 1001.29 L 1001.10 1002.00 L 1003.84 1002.69 L 1006.61 1003.26 L 1009.36 1003.81 L 1012.09 1004.41 L 1014.79 1005.12 L 1017.45 1005.89 L 1020.12 1006.62 L 1022.76 1007.39 L 1025.37 1008.23 L 1027.97 1009.06 L 1030.57 1009.88 L 1033.14 1010.73 L 1035.71 1011.56 L 1038.25 1012.45 L 1040.76 1013.37 L 1043.26 1014.29 L 1045.74 1015.25 L 1048.18 1016.25 L 1050.64 1017.20 L 1053.06 1018.21 L 1055.51 1019.14 L 1057.92 1020.12 L 1060.36 1021.00 L 1062.78 1021.88 L 1065.19 1022.78 L 1067.58 1023.71 L 1069.94 1024.67 L 1072.28 1025.68 L 1074.59 1026.70 L 1076.91 1027.68" stroke="rgb(205,165,255)" stroke-opacity="0.475" stroke-width="1.13" />
  <path d="M 999.92 998.56 L 997.34 1000.25 L 994.79 1001.96 L 992.30 1003.73 L 989.87 1005.57 L 987.47 1007.43 L 985.11 1009.32 L 982.79 1011.24 L 980.52 1013.20 L 978.23 1015.11 L 975.95 1017.03 L 973.66 1018.90 L 971.33 1020.72 L 968.98 1022.49 L 966.58 1024.17 L 964.17 1025.80 L 961.76 1027.42 L 959.41 1029.11 L 957.03 1030.74 L 954.72 1032.44 L 952.45 1034.17 L 950.19 1035.91 L 947.95 1037.64 L 945.68 1039.33 L 943.42 1041.00 L 941.12 1042.60 L 938.84 1044.21 L 936.60 1045.85 L 934.41 1047.54 L 932.24 1049.24 L 930.09 1050.96 L 927.98 1052.69 L 925.88 1054.42 L 923.77 1056.14 L 921.68 1057.84 L 919.64 1059.60 L 917.60 1061.34 L 915.62 1063.13 L 913.64 1064.91 L 911.72 1066.73 L 909.80 1068.54 L 907.88 1070.33 L 905.93 1072.08 L 903.98 1073.80 L 902.00 1075.49 L 899.97 1077.09 L 897.95 1078.69 L 895.99 1080.34 L 894.04 1081.99 L 892.07 1083.60 L 890.09 1085.18 L 888.10 1086.74 L 886.13 1088.30 L 884.14 1089.82 L 882.18 1091.36 L 880.24 1092.92 L 878.35 1094.51 L 876.50 1096.14 L 874.65 1097.75 L 872.78 1099.33 L 870.90 1100.87 L 869.04 1102.43 L 867.17 1103.95" stroke="rgb(140,255,190)" stroke-opacity="0.536" stroke-width="1.13" />
  <path d="M 1000.68 1002.36 L 1002.56 1000.39 L 1004.47 998.45 L 1006.39 996.54 L 1008.35 994.68 L 1010.28 992.82 L 1012.25 991.01 L 1014.15 989.15 L 1016.09 987.33 L 1017.94 985.44 L 1019.73 983.52 L 1021.47 981.55 L 1023.18 979.58 L 1024.95 977.67 L 1026.78 975.84 L 1028.61 974.01 L 1030.33 972.11 L 1031.94 970.12 L 1033.52 968.12 L 1035.13 966.16 L 1036.79 964.24 L 1038.45 962.35 L 1040.19 960.54 L 1041.88 958.70 L 1043.63 956.93 L 1045.30 955.10 L 1046.96 953.27 L 1048.67 951.51 L 1050.34 949.71 L 1052.08 948.00 L 1053.75 946.24 L 1055.39 944.46 L 1057.07 942.73 L 1058.74 941.00 L 1060.42 939.30 L 1062.10 937.62 L 1063.70 935.87 L 1065.26 934.09 L 1066.70 932.23 L 1068.09 930.34 L 1069.41 928.42 L 1070.69 926.47 L 1071.97 924.54 L 1073.32 922.68 L 1074.72 920.86 L 1076.10 919.03" stroke="rgb(205,165,255)" stroke-opacity="0.473" stroke-width="1.12" />
  <path d="M 1003.12 1001.98 L 1000.69 1002.70 L 998.29 1003.44 L 995.92 1004.28 L 993.59 1005.19 L 991.30 1006.16 L 988.99 1007.07 L 986.71 1008.02 L 984.53 1009.15 L 982.43 1010.42 L 980.30 1011.61 L 978.18 1012.80 L 976.08 1014.00 L 973.99 1015.20 L 971.96 1016.48 L 969.93 1017.74 L 967.94 1019.05 L 965.95 1020.35 L 963.93 1021.57" stroke="rgb(140,255,190)" stroke-opacity="0.534" stroke-width="1.12" />
  <path d="M 1003.36 1000.87 L 1000.41 1001.33 L 997.47 1001.77 L 994.54 1002.23 L 991.61 1002.56 L 988.69 1002.90 L 985.78 1003.16 L 982.88 1003.50 L 979.99 1003.78 L 977.11 1004.02 L 974.25 1004.34 L 971.39 1004.59 L 968.54 1004.81 L 965.70 1005.02 L 962.88 1005.28 L 960.07 1005.57 L 957.28 1005.91 L 954.50 1006.24 L 951.73 1006.57 L 948.96 1006.82 L 946.20 1007.05 L 943.45 1007.22 L 940.71 1007.25 L 937.98 1007.36 L 935.25 1007.44 L 932.54 1007.44 L 929.84 1007.40 L 927.15 1007.44 L 924.47 1007.43 L 921.80 1007.34 L 919.14 1007.31 L 916.50 1007.22 L 913.86 1007.12 L 911.24 1006.96 L 908.63 1006.86 L 906.03 1006.60 L 903.45 1006.34 L 900.88 1006.05 L 898.33 1005.76 L 895.77 1005.52 L 893.23 1005.27 L 890.70 1005.04 L 888.18 1004.76 L 885.67 1004.46 L 883.18 1004.18 L 880.69 1003.92 L 878.20 1003.72 L 875.72 1003.55 L 873.25 1003.42 L 870.79 1003.29 L 868.34 1003.17 L 865.90 1003.03 L 863.47 1002.94 L 861.05 1002.81 L 858.64 1002.81 L 856.23 1002.84 L 853.84 1002.76 L 851.45 1002.69 L 849.08 1002.55 L 846.72 1002.42 L 844.37 1002.26 L 842.02 1002.14 L 839.68 1002.06 L 837.35 1002.06 L 835.04 1002.10 L 832.73 1002.17 L 830.43 1002.33 L 828.15 1002.56 L 825.88 1002.82 L 823.62 1003.06 L 821.37 1003.33 L 819.13 1003.60 L 816.90 1003.85 L 814.68 1004.13 L 812.47 1004.40 L 810.26 1004.62 L 808.06 1004.84 L 805.87 1005.03 L 803.69 1005.27 L 801.52 1005.57 L 799.38 1005.93 L 797.24 1006.27 L 795.12 1006.67 L 793.00 1007.07 L 790.90 1007.47 L 788.80 1007.82 L 786.71 1008.21 L 784.62 1008.56 L 782.54 1008.90 L 780.46 1009.17 L 778.38 1009.41 L 776.32 1009.64 L 774.26 1009.89 L 772.21 1010.14 L 770.16 1010.36 L 768.12 1010.54 L 766.08 1010.65 L 764.06 1010.78 L 762.04 1010.94 L 760.03 1011.05 L 758.02 1011.13 L 756.02 1011.11 L 754.03 1011.10 L 752.04 1011.05 L 750.07 1011.00 L 748.10 1010.94 L 746.14 1010.86 L 744.19 1010.80 L 742.25 1010.79 L 740.31 1010.70 L 738.38 1010.60 L 736.47 1010.44 L 734.56 1010.30 L 732.66 1010.18 L 730.76 1010.09 L 728.87 1009.97 L 726.99 1009.86 L 725.12 1009.80 L 723.25 1009.73 L 721.39 1009.69 L 719.54 1009.69" stroke="rgb(140,255,190)" stroke-opacity="0.532" stroke-width="1.12" />
  <path d="M 870.79 1089.74 L 867.97 1090.46 L 865.13 1091.11 L 862.32 1091.78 L 859.51 1092.44 L 856.69 1092.96 L 853.88 1093.52 L 851.09 1094.07 L 848.31 1094.62 L 845.52 1095.07 L 842.75 1095.57 L 839.99 1096.05 L 837.23 1096.52 L 834.48 1096.93 L 831.73 1097.21 L 828.98 1097.47 L 826.25 1097.80 L 823.57 1098.32 L 820.90 1098.86 L 818.26 1099.52 L 815.61 1100.05 L 813.00 1100.69 L 810.42 1101.44 L 807.85 1102.17 L 805.30 1102.93 L 802.79 1103.78 L 800.31 1104.68 L 797.84 1105.57 L 795.37 1106.46 L 792.93 1107.37 L 790.48 1108.23 L 788.02 1109.03 L 785.57 1109.84 L 783.14 1110.67 L 780.69 1111.38 L 778.24 1112.08 L 775.81 1112.82 L 773.36 1113.43 L 770.97 1114.20 L 768.61 1115.05 L 766.23 1115.79 L 763.85 1116.51" stroke="rgb(140,255,190)" stroke-opacity="0.532" stroke-width="1.12" />
  <path d="M 1003.90 999.74 L 1006.25 998.42 L 1008.60 997.12 L 1010.94 995.83 L 1013.27 994.52 L 1015.53 993.14 L 1017.80 991.78 L 1020.13 990.56 L 1022.48 989.38 L 1024.76 988.11 L 1027.05 986.88 L 1029.37 985.72 L 1031.68 984.57 L 1033.96 983.39 L 1036.26 982.27 L 1038.57 981.17 L 1040.82 980.01 L 1043.05 978.81 L 1045.24 977.55 L 1047.41 976.29 L 1049.58 975.05 L 1051.73 973.81 L 1053.84 972.50 L 1055.90 971.14 L 1057.94 969.77 L 1059.95 968.36 L 1061.89 966.88 L 1063.81 965.39 L 1065.71 963.89 L 1067.66 962.47 L 1069.69 961.19 L 1071.74 959.96 L 1073.83 958.81 L 1075.89 957.64 L 1077.96 956.50 L 1080.01 955.34 L 1082.03 954.16 L 1084.11 953.09 L 1086.14 951.97" stroke="rgb(205,165,255)" stroke-opacity="0.470" stroke-width="1.11" />
  <path d="M 886.23 1080.52 L 884.74 1083.05 L 883.23 1085.54 L 881.67 1087.99 L 880.21 1090.48 L 878.72 1092.95 L 877.30 1095.44 L 875.86 1097.92 L 874.46 1100.40 L 873.16 1102.91 L 871.93 1105.46 L 870.82 1108.04 L 869.74 1110.63 L 868.63 1113.18 L 867.45 1115.70 L 866.31 1118.23 L 865.24 1120.77 L 864.11 1123.27 L 862.98 1125.76 L 861.86 1128.24 L 860.83 1130.75 L 859.71 1133.21 L 858.55 1135.64 L 857.41 1138.07 L 856.17 1140.43 L 854.94 1142.79 L 853.75 1145.15 L 852.43 1147.44 L 851.06 1149.68 L 849.76 1151.95 L 848.50 1154.24" stroke="rgb(140,255,190)" stroke-opacity="0.531" stroke-width="1.11" />
  <path d="M 1000.66 999.29 L 1001.65 996.96 L 1002.60 994.62 L 1003.73 992.38 L 1004.81 990.13 L 1005.95 987.92 L 1007.07 985.70 L 1008.05 983.43 L 1008.99 981.16 L 1009.86 978.87 L 1010.74 976.59 L 1011.61 974.32 L 1012.59 972.11 L 1013.58 969.91 L 1014.54 967.71 L 1015.46 965.50 L 1016.34 963.28 L 1017.18 961.06 L 1018.04 958.86 L 1018.90 956.67 L 1019.76 954.49 L 1020.68 952.34" stroke="rgb(140,255,190)" stroke-opacity="0.530" stroke-width="1.11" />
  <path d="M 1002.65 1002.44 L 1000.00 1003.34 L 997.33 1004.17 L 994.67 1004.94 L 992.00 1005.68 L 989.33 1006.36 L 986.72 1007.20 L 984.08 1007.90 L 981.41 1008.46 L 978.77 1009.04 L 976.16 1009.74 L 973.52 1010.29 L 970.92 1010.90 L 968.29 1011.36 L 965.69 1011.92 L 963.09 1012.43 L 960.49 1012.86 L 957.90 1013.26 L 955.31 1013.66 L 952.74 1014.07 L 950.18 1014.46 L 947.63 1014.89 L 945.10 1015.34 L 942.58 1015.81 L 940.07 1016.31 L 937.59 1016.87 L 935.12 1017.42 L 932.67 1018.00 L 930.22 1018.58 L 927.77 1019.09 L 925.32 1019.53 L 922.87 1019.96 L 920.44 1020.38 L 918.02 1020.82 L 915.61 1021.29 L 913.20 1021.70 L 910.83 1022.24 L 908.46 1022.75 L 906.09 1023.23 L 903.76 1023.80 L 901.43 1024.38 L 899.15 1025.06 L 896.87 1025.73 L 894.59 1026.34 L 892.30 1026.91 L 890.01 1027.41 L 887.72 1027.87 L 885.43 1028.34 L 883.16 1028.80 L 880.90 1029.27 L 878.65 1029.76 L 876.41 1030.21 L 874.17 1030.67 L 871.95 1031.17 L 869.74 1031.62 L 867.52 1032.05 L 865.34 1032.59 L 863.18 1033.17 L 861.02 1033.70 L 858.87 1034.26 L 856.73 1034.81 L 854.61 1035.38 L 852.48 1035.90" stroke="rgb(140,255,190)" stroke-opacity="0.530" stroke-width="1.11" />
  <path d="M 1003.18 1002.04 L 1000.58 1003.57 L 998.02 1005.16 L 995.47 1006.72 L 992.93 1008.30 L 990.34 1009.77 L 987.77 1011.23 L 985.24 1012.74 L 982.72 1014.26 L 980.20 1015.74 L 977.68 1017.21 L 975.17 1018.66 L 972.64 1020.06 L 970.11 1021.43 L 967.65 1022.91 L 965.22 1024.41 L 962.79 1025.89 L 960.42 1027.44 L 958.08 1029.02 L 955.71 1030.53 L 953.34 1032.02 L 950.96 1033.47 L 948.62 1034.97 L 946.30 1036.48 L 944.11 1038.15 L 941.90 1039.78 L 939.72 1041.43 L 937.52 1043.03 L 935.38 1044.69 L 933.26 1046.37 L 931.18 1048.08 L 929.08 1049.73 L 926.94 1051.32 L 924.79 1052.89 L 922.66 1054.46 L 920.50 1055.97 L 918.35 1057.47 L 916.25 1059.04" stroke="rgb(140,255,190)" stroke-opacity="0.528" stroke-width="1.10" />
  <path d="M 1002.28 999.65 L 999.72 1000.37 L 997.20 1001.20 L 994.69 1001.99 L 992.14 1002.66 L 989.60 1003.28 L 987.07 1003.91 L 984.58 1004.65 L 982.03 1005.05 L 979.48 1005.43 L 976.99 1006.02 L 974.51 1006.65 L 972.03 1007.22 L 969.57 1007.84 L 967.15 1008.55 L 964.74 1009.28 L 962.33 1009.94 L 959.92 1010.58" stroke="rgb(140,255,190)" stroke-opacity="0.528" stroke-width="1.10" />
  <path d="M 1000.26 1001.13 L 997.46 1001.88 L 994.66 1002.59 L 991.87 1003.30 L 989.10 1004.01 L 986.34 1004.72 L 983.63 1005.58 L 980.94 1006.45 L 978.26 1007.32 L 975.55 1008.08 L 972.88 1008.90 L 970.28 1009.88 L 967.66 1010.79 L 965.03 1011.65 L 962.43 1012.55 L 959.85 1013.46 L 957.29 1014.41 L 954.73 1015.32 L 952.17 1016.21 L 949.63 1017.13 L 947.13 1018.09" stroke="rgb(140,255,190)" stroke-opacity="0.528" stroke-width="1.10" />
  <path d="M 858.97 1099.69 L 857.17 1101.60 L 855.32 1103.44 L 853.48 1105.28 L 851.66 1107.13 L 849.89 1109.01 L 848.14 1110.89 L 846.49 1112.85 L 844.88 1114.83 L 843.26 1116.79 L 841.69 1118.77 L 840.14 1120.76 L 838.53 1122.69 L 836.96 1124.63 L 835.40 1126.57 L 833.92 1128.56 L 832.37 1130.48 L 830.88 1132.44 L 829.42 1134.41 L 828.03 1136.42 L 826.60 1138.39 L 825.11 1140.29 L 823.63 1142.20 L 822.18 1144.11 L 820.67 1145.97 L 819.15 1147.80 L 817.55 1149.55 L 815.95 1151.29 L 814.37 1153.04 L 812.78 1154.76 L 811.17 1156.46 L 809.60 1158.17 L 808.18 1160.00" stroke="rgb(140,255,190)" stroke-opacity="0.527" stroke-width="1.10" />
  <path d="M 894.82 975.62 L 892.15 976.27 L 889.50 976.98 L 886.88 977.73 L 884.23 978.32 L 881.57 978.85 L 878.94 979.43 L 876.32 980.01 L 873.72 980.67 L 871.14 981.32 L 868.57 981.99 L 866.02 982.67 L 863.49 983.39 L 860.96 984.08 L 858.44 984.78 L 855.93 985.44 L 853.44 986.16 L 850.96 986.89 L 848.50 987.62 L 846.08 988.44 L 843.61 989.08 L 841.17 989.79 L 838.79 990.63 L 836.39 991.41 L 834.03 992.26 L 831.65 993.03 L 829.27 993.73 L 826.88 994.41 L 824.51 995.11 L 822.15 995.78 L 819.80 996.48 L 817.51 997.31 L 815.21 998.11 L 812.90 998.83 L 810.61 999.57 L 808.31 1000.24 L 806.00 1000.87" stroke="rgb(140,255,190)" stroke-opacity="0.526" stroke-width="1.10" />
  <path d="M 1003.61 999.29 L 1000.89 999.41 L 998.19 999.56 L 995.50 999.56 L 992.82 999.55 L 990.15 999.41 L 987.49 999.25 L 984.85 999.11 L 982.21 998.90 L 979.60 998.57 L 977.02 998.18 L 974.44 997.74 L 971.90 997.22 L 969.34 996.84 L 966.78 996.49 L 964.27 995.96 L 961.78 995.41 L 959.33 994.71 L 956.92 993.91 L 954.49 993.23 L 952.06 992.58 L 949.65 991.87 L 947.26 991.14 L 944.90 990.37 L 942.52 989.70 L 940.13 989.07 L 937.72 988.62 L 935.31 988.18 L 932.94 987.62 L 930.61 986.94 L 928.32 986.18 L 926.02 985.45 L 923.74 984.71 L 921.48 983.94 L 919.21 983.24 L 916.94 982.54 L 914.69 981.83 L 912.43 981.18 L 910.20 980.46 L 907.98 979.77 L 905.74 979.13 L 903.56 978.38 L 901.38 977.63 L 899.19 976.95 L 896.99 976.31 L 894.82 975.62 L 892.66 974.95 L 890.50 974.27" stroke="rgb(140,255,190)" stroke-opacity="0.526" stroke-width="1.10" />
  <path d="M 2000.41 623.64 L 1997.33 624.49 L 1994.49 625.64 L 1991.68 627.18 L 1988.48 627.97 L 1985.68 629.28 L 1982.98 630.20 L 1980.06 630.98 L 1977.29 632.49 L 1974.53 633.30 L 1971.93 634.53 L 1969.27 635.08 L 1966.14 636.51 L 1963.26 637.85 L 1960.76 638.84 L 1958.10 639.67 L 1955.08 640.91 L 1952.42 641.79 L 1949.54 642.58 L 1946.63 643.97 L 1944.13 645.10 L 1940.95 646.39 L 1938.02 646.95 L 1935.80 648.03 L 1932.62 649.09 L 1929.90 649.98 L 1927.01 651.25 L 1923.98 652.59 L 1921.46 653.66 L 1918.51 654.60 L 1916.23 655.24 L 1912.64 656.73 L 1909.97 657.47 L 1907.15 658.80 L 1904.49 659.87 L 1901.73 660.77 L 1899.08 662.23 L 1895.82 662.68 L 1893.52 663.99 L 1890.47 665.44 L 1887.59 665.75 L 1885.07 667.00 L 1881.77 668.51 L 1879.47 669.07 L 1876.23 670.63 L 1873.44 671.29 L 1870.67 672.27 L 1867.84 673.44 L 1865.34 674.74 L 1862.42 675.93 L 1859.87 676.82 L 1856.84 677.72 L 1853.72 678.72 L 1851.05 680.01 L 1848.00 680.85 L 1845.73 682.25 L 1842.50 683.02 L 1840.15 683.68 L 1837.20 684.77 L 1834.68 686.04 L 1832.00 687.52 L 1828.42 688.27 L 1825.37 689.21 L 1823.30 690.16 L 1820.11 691.56 L 1817.50 692.30 L 1815.04 693.37 L 1811.78 694.61 L 1808.72 695.89 L 1806.21 696.36 L 1803.64 697.51 L 1800.67 699.04 L 1797.58 700.00 L 1794.89 701.11 L 1792.47 702.14 L 1789.73 703.12 L 1786.62 704.18 L 1783.92 705.37 L 1780.86 706.10 L 1778.19 707.67 L 1775.24 708.38 L 1772.45 709.13 L 1769.54 709.98 L 1766.77 711.60 L 1764.07 712.42 L 1761.03 714.18 L 1758.66 714.77 L 1755.89 715.85 L 1752.77 716.79 L 1750.25 717.75 L 1747.14 719.09 L 1744.39 719.71 L 1741.73 720.96 L 1739.25 721.84 L 1736.00 723.57 L 1733.31 724.20 L 1730.60 724.99 L 1727.75 726.32 L 1724.85 727.18 L 1721.99 728.48 L 1719.33 729.70 L 1716.23 730.45 L 1713.49 731.65 L 1710.82 732.97 L 1708.15 734.15 L 1705.21 735.04 L 1702.54 735.67 L 1699.70 737.47 L 1696.53 737.57 L 1693.97 739.09 L 1691.17 740.19 L 1688.33 741.31 L 1685.60 742.27 L 1682.58 742.85 L 1679.91 744.12 L 1677.25 745.34 L 1674.56 746.15 L 1671.10 747.22 L 1668.58 748.22 L 1665.96 749.61 L 1662.61 750.94 L 1660.19 751.32 L 1657.43 752.72 L 1654.57 753.30 L 1651.98 754.73 L 1648.87 755.80 L 1646.37 756.54 L 1643.56 758.28 L 1641.05 759.11 L 1637.81 759.82 L 1634.92 761.16 L 1632.47 762.57 L 1629.44 763.15 L 1626.28 764.22 L 1624.07 765.46 L 1621.11 766.40 L 1618.00 767.51 L 1615.71 768.71 L 1612.69 769.86 L 1609.14 770.30 L 1606.57 771.65 L 1603.91 772.65 L 1601.78 773.67 L 1598.47 774.81 L 1595.36 775.97 L 1592.96 776.65 L 1589.96 778.09 L 1587.02 779.01 L 1584.56 780.07 L 1581.78 781.29 L 1578.56 782.60 L 1575.95 783.41 L 1573.10 784.39 L 1570.63 785.57 L 1567.54 786.51 L 1564.75 787.78 L 1562.44 788.84 L 1559.62 789.61 L 1556.37 790.62 L 1553.62 792.08 L 1550.40 792.77 L 1547.88 793.94 L 1545.17 794.99 L 1542.19 796.16 L 1539.54 797.12 L 1536.78 797.93 L 1534.38 799.10 L 1530.90 800.28 L 1528.30 801.45 L 1524.75 802.68 L 1522.87 803.69 L 1519.77 804.39 L 1517.06 805.53 L 1514.31 806.83 L 1511.41 807.86 L 1508.58 808.21 L 1505.40 809.57 L 1502.97 810.77 L 1500.55 812.15 L 1496.97 812.75 L 1494.46 814.02 L 1491.89 814.62 L 1488.90 816.06 L 1486.22 817.34 L 1483.49 818.07 L 1480.50 818.71 L 1478.09 819.95 L 1475.01 821.18 L 1471.79 822.30 L 1469.62 823.53 L 1466.54 824.47 L 1463.73 825.61 L 1460.96 826.63 L 1458.01 827.36 L 1455.55 828.63 L 1452.63 830.05 L 1449.92 830.72 L 1447.07 832.00 L 1443.67 833.00 L 1441.49 834.11 L 1437.92 835.02 L 1435.62 836.13 L 1432.66 837.41 L 1430.23 838.77 L 1427.61 839.47 L 1423.81 840.27 L 1421.54 840.90 L 1418.76 842.78 L 1416.00 843.73 L 1412.97 844.45 L 1410.55 845.59 L 1407.73 846.75 L 1404.86 848.17 L 1401.69 848.73 L 1399.15 849.68 L 1396.46 850.94 L 1393.78 851.96 L 1390.67 852.93 L 1387.78 854.20 L 1385.04 854.95 L 1382.15 856.46 L 1378.84 857.40 L 1377.07 858.21 L 1373.70 859.40 L 1370.92 860.19 L 1368.36 861.45 L 1365.36 862.19 L 1362.88 863.44 L 1360.15 864.72 L 1357.02 865.86 L 1354.54 866.68 L 1351.61 867.92 L 1348.70 868.81 L 1345.92 870.09 L 1343.09 870.72 L 1340.26 872.22 L 1337.65 873.21 L 1335.03 874.03 L 1331.71 875.32 L 1329.06 876.88 L 1326.12 877.56 L 1323.54 878.17 L 1320.56 879.20 L 1317.50 880.31 L 1314.90 881.42 L 1311.82 882.45 L 1308.83 883.81 L 1306.52 884.71 L 1303.31 886.24 L 1300.35 887.01 L 1297.93 888.06 L 1295.22 889.16 L 1292.43 889.52 L 1289.64 891.28 L 1286.98 891.92 L 1283.42 892.91 L 1281.08 894.35 L 1278.19 895.28 L 1275.61 896.14 L 1272.40 897.39 L 1269.95 898.72 L 1267.24 899.06 L 1264.20 900.53 L 1261.42 901.44 L 1258.95 902.64 L 1255.56 903.74 L 1253.24 904.23 L 1250.34 905.73 L 1247.60 906.79 L 1244.94 907.53 L 1241.46 908.65 L 1238.65 909.68 L 1236.09 911.14 L 1233.60 911.70 L 1230.64 913.06 L 1227.49 914.22 L 1224.98 915.32 L 1222.20 916.13 L 1219.56 917.65 L 1216.74 918.45 L 1213.47 919.50 L 1211.01 920.61 L 1207.97 921.77 L 1205.20 922.73 L 1202.74 923.73 L 1199.77 924.38 L 1196.95 926.26 L 1193.95 926.82 L 1191.15 928.27 L 1188.31 929.19 L 1186.00 930.31 L 1183.20 931.52 L 1179.87 932.49 L 1176.96 933.43 L 1174.65 934.50 L 1171.51 935.38 L 1168.82 936.38 L 1166.11 937.24 L 1163.31 938.48 L 1160.33 939.81 L 1157.55 940.98 L 1154.49 941.46 L 1152.10 942.89 L 1149.45 943.47 L 1146.08 944.81 L 1143.53 946.09 L 1140.93 946.99 L 1138.22 948.06 L 1135.50 949.17 L 1132.60 950.43 L 1129.78 950.75 L 1126.60 952.38 L 1124.08 953.51 L 1121.09 954.45 L 1118.30 955.42 L 1115.09 956.82 L 1112.72 957.48 L 1109.88 958.57 L 1106.93 959.72 L 1104.07 960.73 L 1101.48 961.89 L 1099.13 962.64 L 1095.55 963.92 L 1093.29 964.93 L 1090.18 965.96 L 1087.16 967.05 L 1084.45 968.09 L 1082.05 969.35 L 1078.90 970.30 L 1076.07 971.14 L 1073.52 972.36 L 1070.90 973.54 L 1067.67 974.23 L 1065.00 975.59 L 1062.16 976.88 L 1059.50 977.34 L 1056.49 978.64 L 1053.57 980.02 L 1051.44 981.24 L 1047.88 982.04 L 1045.20 982.98 L 1042.64 984.26 L 1039.48 985.06 L 1036.93 985.92 L 1034.29 987.51 L 1031.15 988.48 L 1028.02 989.44 L 1025.69 990.44 L 1022.97 991.27 L 1020.10 992.31 L 1017.42 993.39 L 1014.28 994.55 L 1011.35 995.79 L 1008.77 996.92 L 1005.92 997.27 L 1003.35 998.70 L 1000.55 999.83 L 1000.00 1000.00 L 997.20 1001.08 L 994.41 1002.17 L 991.61 1003.26 L 988.81 1004.34 L 986.01 1005.42 L 983.20 1006.47 L 980.39 1007.51 L 977.57 1008.54 L 974.75 1009.57 L 971.93 1010.58 L 969.11 1011.59 L 966.28 1012.60 L 963.46 1013.62 L 960.64 1014.65 L 957.82 1015.68 L 955.00 1016.70 L 952.19 1017.74 L 949.37 1018.78 L 946.56 1019.82 L 943.74 1020.85 L 940.93 1021.90 L 938.12 1022.94 L 935.30 1023.96 L 932.47 1024.98 L 929.65 1025.99 L 926.83 1027.00 L 924.00 1028.00 L 921.17 1029.02 L 918.35 1030.02 L 915.52 1031.03 L 912.70 1032.04 L 909.87 1033.05 L 907.05 1034.06 L 904.22 1035.07 L 901.40 1036.09 L 898.58 1037.11 L 895.75 1038.11 L 892.92 1039.11 L 890.09 1040.10 L 887.26 1041.08 L 884.43 1042.08 L 881.59 1043.05 L 878.75 1044.03 L 875.92 1045.01 L 873.08 1045.98 L 870.24 1046.94 L 867.40 1047.90 L 864.55 1048.86 L 861.71 1049.83 L 858.88 1050.82 L 856.06 1051.83 L 853.24 1052.86 L 850.42 1053.89 L 847.61 1054.93 L 844.80 1055.98 L 841.99 1057.04 L 839.18 1058.09 L 836.37 1059.14 L 833.55 1060.17 L 830.74 1061.21 L 827.92 1062.24 L 825.11 1063.28 L 822.29 1064.30 L 819.47 1065.34 L 816.66 1066.38 L 813.84 1067.42 L 811.02 1068.44 L 808.20 1069.46 L 805.38 1070.48 L 802.57 1071.52 L 799.75 1072.56 L 796.93 1073.59 L 794.12 1074.62 L 791.31 1075.67 L 788.49 1076.71 L 785.68 1077.75 L 782.87 1078.80 L 780.06 1079.86 L 777.25 1080.92 L 774.46 1082.00 L 771.65 1083.05 L 768.84 1084.11 L 766.04 1085.18 L 763.23 1086.24 L 760.43 1087.31 L 757.62 1088.36 L 754.81 1089.40 L 751.99 1090.45 L 749.18 1091.50 L 746.38 1092.56 L 743.57 1093.62 L 740.77 1094.70 L 737.97 1095.78 L 735.17 1096.85 L 732.37 1097.93 L 729.58 1099.03 L 726.78 1100.12 L 723.98 1101.19 L 721.18 1102.25 L 718.37 1103.30 L 715.56 1104.36 L 712.76 1105.43 L 709.95 1106.50 L 707.15 1107.57 L 704.35 1108.65 L 701.55 1109.73 L 698.75 1110.80 L 695.95 1111.87 L 693.15 1112.94 L 690.34 1114.01 L 687.55 1115.10 L 684.76 1116.20 L 681.97 1117.32 L 679.18 1118.43 L 676.40 1119.54 L 673.61 1120.64 L 670.82 1121.74 L 668.03 1122.85 L 665.24 1123.96 L 662.45 1125.05 L 659.66 1126.16 L 656.87 1127.27 L 654.10 1128.41 L 651.33 1129.56 L 648.56 1130.71 L 645.78 1131.86 L 643.02 1133.02 L 640.25 1134.18 L 637.48 1135.33 L 634.70 1136.46 L 631.93 1137.60 L 629.15 1138.74 L 626.38 1139.88 L 623.60 1141.01 L 620.80 1142.10 L 618.01 1143.19 L 615.21 1144.27 L 612.41 1145.36 L 609.62 1146.44 L 606.82 1147.52 L 604.02 1148.60 L 601.21 1149.66 L 598.41 1150.73 L 595.60 1151.79 L 592.80 1152.85 L 590.00 1153.93 L 587.19 1155.00 L 584.38 1156.05 L 581.57 1157.09 L 578.76 1158.14 L 575.95 1159.19 L 573.14 1160.25 L 570.34 1161.31 L 567.53 1162.37 L 564.73 1163.43 L 561.92 1164.49 L 559.11 1165.56 L 556.30 1166.61 L 553.50 1167.68 L 550.71 1168.77 L 547.91 1169.86 L 545.12 1170.97 L 542.34 1172.08 L 539.55 1173.18 L 536.75 1174.27 L 533.96 1175.37 L 531.17 1176.48 L 528.38 1177.58 L 525.59 1178.69 L 522.80 1179.78 L 520.01 1180.88 L 517.21 1181.97 L 514.42 1183.05 L 511.62 1184.14 L 508.83 1185.24 L 506.03 1186.33 L 503.24 1187.41 L 500.44 1188.50 L 497.64 1189.58 L 494.84 1190.64 L 492.03 1191.70 L 489.22 1192.74 L 486.40 1193.77 L 483.58 1194.81 L 480.77 1195.85 L 477.96 1196.90 L 475.15 1197.95 L 472.34 1198.99 L 469.52 1200.02 L 466.70 1201.05 L 463.88 1202.08 L 461.06 1203.09 L 458.23 1204.10 L 455.41 1205.12 L 452.59 1206.13 L 449.77 1207.16 L 446.95 1208.19 L 444.14 1209.23 L 441.32 1210.28 L 438.52 1211.33 L 435.71 1212.38 L 432.90 1213.45 L 430.10 1214.52 L 427.30 1215.61 L 424.51 1216.69 L 421.71 1217.77 L 418.91 1218.86 L 416.12 1219.96 L 413.32 1221.04 L 410.52 1222.12 L 407.72 1223.18 L 404.91 1224.23 L 402.10 1225.28 L 399.29 1226.34 L 396.48 1227.38 L 393.66 1228.42 L 390.84 1229.45 L 388.02 1230.47 L 385.20 1231.49 L 382.37 1232.49 L 379.55 1233.50 L 376.72 1234.50 L 373.89 1235.48 L 371.05 1236.46 L 368.22 1237.44 L 365.38 1238.42 L 362.54 1239.40 L 359.70 1240.37 L 356.86 1241.33 L 354.02 1242.29 L 351.18 1243.25 L 348.34 1244.21 L 345.49 1245.17 L 342.65 1246.13 L 339.80 1247.07 L 336.96 1248.03 L 334.11 1248.98 L 331.27 1249.94 L 328.43 1250.90 L 325.60 1251.88 L 322.77 1252.88 L 319.94 1253.89 L 317.11 1254.89 L 314.28 1255.88 L 311.45 1256.87 L 308.61 1257.85 L 305.78 1258.83 L 302.95 1259.82 L 300.12 1260.82 L 297.28 1261.80 L 294.44 1262.77 L 291.60 1263.74 L 288.76 1264.69 L 285.92 1265.65 L 283.07 1266.59 L 280.22 1267.54 L 277.37 1268.47 L 274.53 1269.44 L 271.69 1270.42 L 268.85 1271.38 L 266.02 1272.37 L 263.19 1273.37 L 260.36 1274.37 L 257.54 1275.37 L 254.71 1276.38 L 251.88 1277.39 L 249.06 1278.39 L 246.24 1279.42 L 243.43 1280.46 L 240.61 1281.50 L 237.80 1282.54 L 234.98 1283.56 L 232.16 1284.58 L 229.34 1285.61 L 226.52 1286.65 L 223.71 1287.68 L 220.89 1288.71 L 218.07 1289.74 L 215.25 1290.77 L 212.43 1291.79 L 209.62 1292.84 L 206.82 1293.91 L 204.01 1294.97 L 201.21 1296.03 L 198.40 1297.09 L 195.60 1298.17 L 192.80 1299.25 L 190.00 1300.33 L 187.20 1301.41 L 184.41 1302.49 L 181.60 1303.56 L 178.80 1304.64 L 176.00 1305.71 L 173.20 1306.78 L 170.40 1307.87 L 167.60 1308.95 L 164.80 1310.01 L 161.99 1311.06 L 159.18 1312.11 L 156.37 1313.16 L 153.57 1314.23 L 150.77 1315.31 L 147.97 1316.41 L 145.18 1317.51 L 142.39 1318.60 L 139.60 1319.71 L 136.82 1320.82 L 134.03 1321.94 L 131.25 1323.06 L 128.46 1324.18 L 125.69 1325.32 L 122.92 1326.47 L 120.14 1327.61 L 117.37 1328.74 L 114.58 1329.87 L 111.81 1331.01 L 109.03 1332.14 L 106.26 1333.28 L 103.48 1334.41 L 100.70 1335.54 L 97.93 1336.69 L 95.15 1337.82 L 92.37 1338.94 L 89.59 1340.08 L 86.82 1341.22 L 84.04 1342.36 L 81.27 1343.50 L 78.48 1344.62 L 75.70 1345.73 L 72.92 1346.86 L 70.14 1348.00 L 67.36 1349.12 L 64.58 1350.24 L 61.79 1351.36 L 59.01 1352.47 L 56.21 1353.57 L 53.43 1354.68 L 50.64 1355.79 L 47.85 1356.89 L 45.06 1357.99 L 42.28 1359.11 L 39.49 1360.22 L 36.70 1361.34 L 33.91 1362.44 L 31.12 1363.53 L 28.33 1364.64 L 25.54 1365.74 L 22.75 1366.84 L 19.96 1367.95 L 17.18 1369.06 L 14.40 1370.19 L 11.62 1371.32 L 8.84 1372.44 L 6.05 1373.55 L 3.26 1374.67 L 0.48 1375.79 L -2.30 1376.91 L -5.09 1378.02 L -7.87 1379.14 L -10.65 1380.28 L -13.43 1381.39 L -16.23 1382.48 L -19.02 1383.58 L -21.80 1384.70" stroke="rgb(245,245,245)" stroke-opacity="0.701" stroke-width="1.10" />
  <path d="M 1002.55 1003.09 L 999.99 1004.02 L 997.46 1005.03 L 994.93 1006.00 L 992.42 1006.99 L 989.93 1007.99 L 987.45 1008.98 L 984.92 1009.83 L 982.39 1010.64 L 979.92 1011.57 L 977.46 1012.52 L 975.02 1013.48 L 972.59 1014.44 L 970.18 1015.42 L 967.80 1016.43 L 965.40 1017.40 L 963.03 1018.38 L 960.63 1019.28 L 958.23 1020.14 L 955.83 1020.96 L 953.43 1021.78 L 951.06 1022.63 L 948.70 1023.49 L 946.34 1024.31 L 943.99 1025.13 L 941.66 1025.97 L 939.32 1026.77 L 936.99 1027.55 L 934.67 1028.33 L 932.35 1029.10 L 930.08 1029.96 L 927.81 1030.79 L 925.52 1031.56 L 923.23 1032.27 L 920.93 1032.94 L 918.65 1033.62 L 916.39 1034.35 L 914.16 1035.13 L 911.92 1035.86 L 909.69 1036.57 L 907.47 1037.29 L 905.25 1038.00 L 903.07 1038.78 L 900.92 1039.61 L 898.77 1040.43 L 896.63 1041.23 L 894.50 1042.03" stroke="rgb(140,255,190)" stroke-opacity="0.523" stroke-width="1.09" />
  <path d="M 1003.01 1001.70 L 1000.52 1002.88 L 998.03 1004.04 L 995.50 1005.09 L 992.95 1006.04 L 990.44 1007.08 L 987.92 1008.06 L 985.41 1009.03 L 982.90 1009.98 L 980.43 1010.99 L 977.97 1012.00 L 975.47 1012.89 L 972.98 1013.77 L 970.52 1014.69 L 968.04 1015.53 L 965.57 1016.36 L 963.14 1017.26 L 960.72 1018.17 L 958.29 1019.05 L 955.88 1019.91 L 953.47 1020.78 L 951.09 1021.67" stroke="rgb(140,255,190)" stroke-opacity="0.523" stroke-width="1.09" />
  <path d="M 1000.30 1002.73 L 997.80 1002.48 L 995.30 1002.42 L 992.81 1002.40 L 990.33 1002.41 L 987.87 1002.59 L 985.42 1002.77 L 982.97 1002.94 L 980.55 1003.21 L 978.13 1003.47 L 975.72 1003.71 L 973.33 1004.03 L 970.95 1004.34 L 968.58 1004.64 L 966.21 1004.91 L 963.85 1005.10 L 961.50 1005.36 L 959.15 1005.58 L 956.83 1005.90 L 954.53 1006.28 L 952.22 1006.60 L 949.94 1006.98 L 947.65 1007.24 L 945.37 1007.54 L 943.09 1007.71 L 940.82 1007.92 L 938.56 1008.20 L 936.32 1008.48 L 934.09 1008.81 L 931.85 1008.97 L 929.63 1009.12 L 927.41 1009.32 L 925.20 1009.47 L 923.00 1009.64 L 920.80 1009.81 L 918.63 1010.10 L 916.46 1010.30 L 914.30 1010.49 L 912.14 1010.63 L 909.99 1010.77 L 907.85 1010.97 L 905.72 1011.09 L 903.59 1011.10" stroke="rgb(205,165,255)" stroke-opacity="0.461" stroke-width="1.08" />
  <path d="M 1001.19 1005.16 L 1001.72 1007.26 L 1002.19 1009.37 L 1002.74 1011.45 L 1003.26 1013.53 L 1003.74 1015.61 L 1004.17 1017.69 L 1004.60 1019.76 L 1004.87 1021.86 L 1005.23 1023.93 L 1005.57 1025.99 L 1005.95 1028.04 L 1006.31 1030.08 L 1006.63 1032.13 L 1006.84 1034.18 L 1007.05 1036.22 L 1007.19 1038.25 L 1007.39 1040.28 L 1007.44 1042.30 L 1007.31 1044.32 L 1007.16 1046.32 L 1006.87 1048.30 L 1006.65 1050.29 L 1006.36 1052.25 L 1006.10 1054.21 L 1005.98 1056.18 L 1005.92 1058.14 L 1005.91 1060.10 L 1005.86 1062.04 L 1005.74 1063.98 L 1005.70 1065.91 L 1005.68 1067.83 L 1005.67 1069.75 L 1005.57 1071.65 L 1005.49 1073.55 L 1005.33 1075.44 L 1005.24 1077.32 L 1005.27 1079.20 L 1005.28 1081.07 L 1005.24 1082.93 L 1005.06 1084.78 L 1004.73 1086.60 L 1004.51 1088.42" stroke="rgb(205,165,255)" stroke-opacity="0.447" stroke-width="1.03" />
  <path d="M 999.36 1001.00 L 998.14 1000.13 L 996.86 999.35 L 995.65 998.49 L 994.52 997.53 L 993.45 996.52 L 992.52 995.38 L 991.67 994.18" stroke="rgb(230,230,230)" stroke-opacity="0.384" stroke-width="0.71" />
  <path d="M 993.35 1000.07 L 993.14 998.59 L 992.98 997.10 L 992.82 995.62 L 992.65 994.15 L 992.67 992.67 L 992.70 991.20" stroke="rgb(230,230,230)" stroke-opacity="0.383" stroke-width="0.71" />
  <path d="M 1003.28 994.88 L 1003.82 993.48 L 1004.24 992.05 L 1004.76 990.65 L 1005.24 989.25 L 1005.65 987.84 L 1006.08 986.43 L 1006.67 985.09 L 1007.19 983.73" stroke="rgb(230,230,230)" stroke-opacity="0.381" stroke-width="0.70" />
  <path d="M 1002.29 1001.83 L 1001.43 1003.06 L 1000.54 1004.25 L 999.84 1005.57 L 999.07 1006.83 L 998.51 1008.20" stroke="rgb(230,230,230)" stroke-opacity="0.379" stroke-width="0.69" />
  <path d="M 993.62 1004.16 L 995.11 1004.34 L 996.60 1004.38 L 998.08 1004.51 L 999.56 1004.66 L 1001.03 1004.76 L 1002.43 1005.22" stroke="rgb(230,230,230)" stroke-opacity="0.378" stroke-width="0.69" />
  <path d="M 1002.34 1004.90 L 1002.54 1003.42 L 1002.62 1001.92 L 1002.53 1000.44 L 1002.28 998.98 L 1001.91 997.55 L 1001.56 996.12 L 1001.29 994.68 L 1001.22 993.22" stroke="rgb(230,230,230)" stroke-opacity="0.376" stroke-width="0.69" />
  <path d="M 1004.42 1000.26 L 1005.91 1000.40 L 1007.40 1000.55 L 1008.89 1000.59 L 1010.37 1000.67 L 1011.84 1000.84 L 1013.30 1000.89 L 1014.77 1000.88 L 1016.23 1000.88 L 1017.68 1000.91" stroke="rgb(230,230,230)" stroke-opacity="0.372" stroke-width="0.67" />
  <path d="M 995.78 1001.75 L 994.58 1002.65 L 993.40 1003.57 L 992.23 1004.48 L 991.16 1005.51 L 990.14 1006.58 L 989.22 1007.73 L 988.34 1008.90 L 987.43 1010.04 L 986.61 1011.23 L 985.76 1012.41 L 984.99 1013.63 L 984.24 1014.85 L 983.41 1016.01" stroke="rgb(230,230,230)" stroke-opacity="0.368" stroke-width="0.66" />
  <path d="M 1001.53 995.48 L 1002.52 996.61 L 1003.52 997.72 L 1004.52 998.82 L 1005.46 999.96 L 1006.44 1001.07 L 1007.48 1002.11 L 1008.59 1003.07" stroke="rgb(230,230,230)" stroke-opacity="0.366" stroke-width="0.66" />
  <path d="M 1002.97 992.61 L 1001.59 992.01 L 1000.20 991.47 L 998.81 990.94 L 997.38 990.54 L 995.95 990.17 L 994.53 989.79 L 993.16 989.28 L 991.80 988.75 L 990.45 988.21" stroke="rgb(230,230,230)" stroke-opacity="0.363" stroke-width="0.65" />
  <path d="M 1003.70 1001.36 L 1005.00 1000.62 L 1006.32 999.92 L 1007.62 999.19 L 1008.91 998.46" stroke="rgb(230,230,230)" stroke-opacity="0.363" stroke-width="0.65" />
  <path d="M 996.46 997.15 L 996.29 995.66 L 996.42 994.17 L 996.77 992.72 L 997.01 991.26 L 997.10 989.78 L 997.17 988.32 L 996.99 986.86 L 996.69 985.44 L 996.64 983.98 L 996.56 982.54 L 996.32 981.12 L 996.23 979.69 L 996.08 978.27 L 996.00 976.84 L 995.56 975.49" stroke="rgb(230,230,230)" stroke-opacity="0.361" stroke-width="0.64" />
  <path d="M 997.16 1006.19 L 998.11 1007.35 L 999.12 1008.46 L 1000.18 1009.49 L 1001.22 1010.56 L 1002.29 1011.57 L 1003.38 1012.56 L 1004.60 1013.36" stroke="rgb(230,230,230)" stroke-opacity="0.361" stroke-width="0.64" />
  <path d="M 1003.99 1000.00 L 1002.96 1001.08 L 1001.98 1002.22 L 1001.13 1003.44" stroke="rgb(230,230,230)" stroke-opacity="0.359" stroke-width="0.64" />
  <path d="M 996.16 1001.19 L 995.06 1002.21 L 994.04 1003.30 L 993.19 1004.52 L 992.18 1005.61 L 991.13 1006.64 L 990.01 1007.59 L 988.87 1008.51 L 987.71 1009.39 L 986.53 1010.24 L 985.48 1011.24 L 984.34 1012.12 L 983.20 1012.99 L 982.04 1013.83 L 980.82 1014.55 L 979.61 1015.29 L 978.47 1016.13 L 977.38 1017.02" stroke="rgb(230,230,230)" stroke-opacity="0.358" stroke-width="0.63" />
  <path d="M 999.91 996.83 L 1000.77 995.60 L 1001.50 994.29 L 1002.23 993.00 L 1002.84 991.65 L 1003.42 990.29 L 1004.07 988.97 L 1004.58 987.60" stroke="rgb(230,230,230)" stroke-opacity="0.355" stroke-width="0.62" />
  <path d="M 999.05 1004.91 L 1000.54 1005.08 L 1002.00 1005.41 L 1003.42 1005.85 L 1004.86 1006.20 L 1006.25 1006.70 L 1007.65 1007.15 L 1009.04 1007.62 L 1010.42 1008.08" stroke="rgb(230,230,230)" stroke-opacity="0.351" stroke-width="0.61" />
  <path d="M 997.25 1002.10 L 998.70 1001.71 L 1000.06 1001.10 L 1001.38 1000.40 L 1002.70 999.73 L 1003.96 998.96 L 1005.13 998.07 L 1006.23 997.11 L 1007.32 996.14 L 1008.18 994.97 L 1009.02 993.79 L 1010.02 992.75 L 1011.02 991.72 L 1011.85 990.56 L 1012.81 989.51" stroke="rgb(230,230,230)" stroke-opacity="0.351" stroke-width="0.61" />
</g>
</svg>
