{
  "asset": {
    "version": "2.0",
    "generator": "TES-23 Cosmic Ray Renderer"
  },
  "extensionsUsed": [
    "KHR_materials_unlit"
  ],
  "extensionsRequired": [
    "KHR_materials_unlit"
  ],
  "scene": 0,
  "scenes": [
    {
      "nodes": [
        0
      ]
    }
  ],
  "nodes": [
    {
      "name": "CosmicRayEvent",
      "mesh": 0
    }
  ],
  "meshes": [
    {
      "name": "CosmicRayEvent",
      "primitives": [
        {
          "attributes": {
            "POSITION": 0
          },
          "material": 0,
          "mode": 1
        },
        {
          "attributes": {
            "POSITION": 1
          },
          "material": 1,
          "mode": 1
        },
        {
          "attributes": {
            "POSITION": 2
          },
          "material": 2,
          "mode": 1
        },
        {
          "attributes": {
            "POSITION": 3
          },
          "material": 3,
          "mode": 1
        },
        {
          "attributes": {
            "POSITION": 4
          },
          "material": 4,
          "mode": 1
        }
      ]
    }
  ],
  "materials": [
    {
      "name": "primary",
      "extensions": {
        "KHR_materials_unlit": {}
      },
      "pbrMetallicRoughness": {
        "baseColorFactor": [
          0.961,
          0.961,
          0.961,
          1
        ],
        "metallicFactor": 0,
        "roughnessFactor": 1
      }
    },
    {
      "name": "vertex",
      "extensions": {
        "KHR_materials_unlit": {}
      },
      "pbrMetallicRoughness": {
        "baseColorFactor": [
          0.902,
          0.902,
          0.902,
          0.9
        ],
        "metallicFactor": 0,
        "roughnessFactor": 1
      }
    },
    {
      "name": "em",
      "extensions": {
        "KHR_materials_unlit": {}
      },
      "pbrMetallicRoughness": {
        "baseColorFactor": [
          0.471,
          0.824,
          1,
          1
        ],
        "metallicFactor": 0,
        "roughnessFactor": 1
      }
    },
    {
      "name": "hadron",
      "extensions": {
        "KHR_materials_unlit": {}
      },
      "pbrMetallicRoughness": {
        "baseColorFactor": [
          0.549,
          1,
          0.745,
          1
        ],
        "metallicFactor": 0,
        "roughnessFactor": 1
      }
    },
    {
      "name": "delta",
      "extensions": {
        "KHR_materials_unlit": {}
      },
      "pbrMetallicRoughness": {
        "baseColorFactor": [
          0.804,
          0.647,
          1,
          1
        ],
        "metallicFactor": 0,
        "roughnessFactor": 1
      }
    }
  ],
  "accessors": [
    {
      "bufferView": 0,
      "byteOffset": 0,
      "componentType": 5126,
      "count": 1590,
      "type": "VEC3",
      "min": [
        -0.6286794543266296,
        -0.9996994137763977,
        0
      ],
      "max": [
        0.634300947189331,
        1.0206621885299683,
        0
      ]
    },
    {
      "bufferView": 1,
      "byteOffset": 0,
      "componentType": 5126,
      "count": 338,
      "type": "VEC3",
      "min": [
        -0.02617899887263775,
        -0.014052885584533215,
        -0.05752228572964668
      ],
      "max": [
        0.02086222916841507,
        0.011061822064220905,
        0.051706548780202866
      ]
    },
    {
      "bufferView": 2,
      "byteOffset": 0,
      "componentType": 5126,
      "count": 1466,
      "type": "VEC3",
      "min": [
        -0.24611805379390717,
        -0.002482573501765728,
        -0.04692966118454933
      ],
      "max": [
        0.0011690726969391108,
        0.3273472785949707,
        0.22231999039649963
      ]
    },
    {
      "bufferView": 3,
      "byteOffset": 0,
      "componentType": 5126,
      "count": 2240,
      "type": "VEC3",
      "min": [
        -0.26217177510261536,
        -0.0028428947553038597,
        -0.26711204648017883
      ],
      "max": [
        0.004072025418281555,
        0.24118319153785706,
        0.33452722430229187
      ]
    },
    {
      "bufferView": 4,
      "byteOffset": 0,
      "componentType": 5126,
      "count": 614,
      "type": "VEC3",
      "min": [
        -0.07320652902126312,
        -0.22243501245975494,
        -0.24475987255573273
      ],
      "max": [
        0.11649080365896225,
        0.1051669493317604,
        0.5368134379386902
      ]
    }
  ],
  "bufferViews": [
    {
      "buffer": 0,
      "byteOffset": 0,
      "byteLength": 19080,
      "target": 34962
    },
    {
      "buffer": 0,
      "byteOffset": 19080,
      "byteLength": 4056,
      "target": 34962
    },
    {
      "buffer": 0,
      "byteOffset": 23136,
      "byteLength": 17592,
      "target": 34962
    },
    {
      "buffer": 0,
      "byteOffset": 40728,
      "byteLength": 26880,
      "target": 34962
    },
    {
      "buffer": 0,
      "byteOffset": 67608,
      "byteLength": 7368,
      "target": 34962
    }
  ],
  "buffers": [
    {
      "byteLength": 74976,
      "uri": "data:application/octet-stream;base64,"
    }
  ]
}