{
  "asset": {
    "version": "2.0",
    "generator": "TES-23 Cosmic Ray Renderer"
  },
  "extensionsUsed": [
    "KHR_materials_unlit"
  ],
  "extensionsRequired": [
    "KHR_materials_unlit"
  ],
  "scene": 0,
  "scenes": [
    {
      "nodes": [
        0
      ]
    }
  ],
  "nodes": [
    {
      "name": "CosmicRayEvent",
      "mesh": 0
    }
  ],
  "meshes": [
    {
      "name": "CosmicRayEvent",
      "primitives": [
        {
          "attributes": {
            "POSITION": 0
          },
          "material": 0,
          "mode": 1
        },
        {
          "attributes": {
            "POSITION": 1
          },
          "material": 1,
          "mode": 1
        },
        {
          "attributes": {
            "POSITION": 2
          },
          "material": 2,
          "mode": 1
        },
        {
          "attributes": {
            "POSITION": 3
          },
          "material": 3,
          "mode": 1
        },
        {
          "attributes": {
            "POSITION": 4
          },
          "material": 4,
          "mode": 1
        }
      ]
    }
  ],
  "materials": [
    {
      "name": "primary",
      "extensions": {
        "KHR_materials_unlit": {}
      },
      "pbrMetallicRoughness": {
        "baseColorFactor": [
          0.961,
          0.961,
          0.961,
          1
        ],
        "metallicFactor": 0,
        "roughnessFactor": 1
      }
    },
    {
      "name": "vertex",
      "extensions": {
        "KHR_materials_unlit": {}
      },
      "pbrMetallicRoughness": {
        "baseColorFactor": [
          0.902,
          0.902,
          0.902,
          0.9
        ],
        "metallicFactor": 0,
        "roughnessFactor": 1
      }
    },
    {
      "name": "em",
      "extensions": {
        "KHR_materials_unlit": {}
      },
      "pbrMetallicRoughness": {
        "baseColorFactor": [
          0.471,
          0.824,
          1,
          1
        ],
        "metallicFactor": 0,
        "roughnessFactor": 1
      }
    },
    {
      "name": "hadron",
      "extensions": {
        "KHR_materials_unlit": {}
      },
      "pbrMetallicRoughness": {
        "baseColorFactor": [
          0.549,
          1,
          0.745,
          1
        ],
        "metallicFactor": 0,
        "roughnessFactor": 1
      }
    },
    {
      "name": "delta",
      "extensions": {
        "KHR_materials_unlit": {}
      },
      "pbrMetallicRoughness": {
        "baseColorFactor": [
          0.804,
          0.647,
          1,
          1
        ],
        "metallicFactor": 0,
        "roughnessFactor": 1
      }
    }
  ],
  "accessors": [
    {
      "bufferView": 0,
      "byteOffset": 0,
      "componentType": 5126,
      "count": 1352,
      "type": "VEC3",
      "min": [
        -1.020550012588501,
        -0.06772235780954361,
        0
      ],
      "max": [
        1.0002410411834717,
        0.08734992146492004,
        0
      ]
    },
    {
      "bufferView": 1,
      "byteOffset": 0,
      "componentType": 5126,
      "count": 338,
      "type": "VEC3",
      "min": [
        -0.020214339718222618,
        -0.014384385198354721,
        -0.07467865943908691
      ],
      "max": [
        0.01719393953680992,
        0.009033950045704842,
        0.11061844229698181
      ]
    },
    {
      "bufferView": 2,
      "byteOffset": 0,
      "componentType": 5126,
      "count": 898,
      "type": "VEC3",
      "min": [
        -0.24483256042003632,
        -0.03608708083629608,
        -0.14126302301883698
      ],
      "max": [
        0.0011432727333158255,
        0.0007904171361587942,
        0.09069474041461945
      ]
    },
    {
      "bufferView": 3,
      "byteOffset": 0,
      "componentType": 5126,
      "count": 3712,
      "type": "VEC3",
      "min": [
        -0.3590307831764221,
        -0.14981277287006378,
        -1.6491795778274536
      ],
      "max": [
        0.028745077550411224,
        0.10074753314256668,
        0.5705626010894775
      ]
    },
    {
      "bufferView": 4,
      "byteOffset": 0,
      "componentType": 5126,
      "count": 696,
      "type": "VEC3",
      "min": [
        -0.16446317732334137,
        -0.06624253839254379,
        -0.23381657898426056
      ],
      "max": [
        0.0872526541352272,
        0.13605274260044098,
        0.7213427424430847
      ]
    }
  ],
  "bufferViews": [
    {
      "buffer": 0,
      "byteOffset": 0,
      "byteLength": 16224,
      "target": 34962
    },
    {
      "buffer": 0,
      "byteOffset": 16224,
      "byteLength": 4056,
      "target": 34962
    },
    {
      "buffer": 0,
      "byteOffset": 20280,
      "byteLength": 10776,
      "target": 34962
    },
    {
      "buffer": 0,
      "byteOffset": 31056,
      "byteLength": 44544,
      "target": 34962
    },
    {
      "buffer": 0,
      "byteOffset": 75600,
      "byteLength": 8352,
      "target": 34962
    }
  ],
  "buffers": [
    {
      "byteLength": 83952,
      "uri": "data:application/octet-stream;base64,"
    }
  ]
}