{
  "asset": {
    "version": "2.0",
    "generator": "TES-23 Cosmic Ray Renderer"
  },
  "extensionsUsed": [
    "KHR_materials_unlit"
  ],
  "extensionsRequired": [
    "KHR_materials_unlit"
  ],
  "scene": 0,
  "scenes": [
    {
      "nodes": [
        0
      ]
    }
  ],
  "nodes": [
    {
      "name": "CosmicRayEvent",
      "mesh": 0
    }
  ],
  "meshes": [
    {
      "name": "CosmicRayEvent",
      "primitives": [
        {
          "attributes": {
            "POSITION": 0
          },
          "material": 0,
          "mode": 1
        },
        {
          "attributes": {
            "POSITION": 1
          },
          "material": 1,
          "mode": 1
        },
        {
          "attributes": {
            "POSITION": 2
          },
          "material": 2,
          "mode": 1
        },
        {
          "attributes": {
            "POSITION": 3
          },
          "material": 3,
          "mode": 1
        },
        {
          "attributes": {
            "POSITION": 4
          },
          "material": 4,
          "mode": 1
        }
      ]
    }
  ],
  "materials": [
    {
      "name": "primary",
      "extensions": {
        "KHR_materials_unlit": {}
      },
      "pbrMetallicRoughness": {
        "baseColorFactor": [
          0.961,
          0.961,
          0.961,
          1
        ],
        "metallicFactor": 0,
        "roughnessFactor": 1
      }
    },
    {
      "name": "vertex",
      "extensions": {
        "KHR_materials_unlit": {}
      },
      "pbrMetallicRoughness": {
        "baseColorFactor": [
          0.902,
          0.902,
          0.902,
          0.9
        ],
        "metallicFactor": 0,
        "roughnessFactor": 1
      }
    },
    {
      "name": "em",
      "extensions": {
        "KHR_materials_unlit": {}
      },
      "pbrMetallicRoughness": {
        "baseColorFactor": [
          0.471,
          0.824,
          1,
          1
        ],
        "metallicFactor": 0,
        "roughnessFactor": 1
      }
    },
    {
      "name": "hadron",
      "extensions": {
        "KHR_materials_unlit": {}
      },
      "pbrMetallicRoughness": {
        "baseColorFactor": [
          0.549,
          1,
          0.745,
          1
        ],
        "metallicFactor": 0,
        "roughnessFactor": 1
      }
    },
    {
      "name": "delta",
      "extensions": {
        "KHR_materials_unlit": {}
      },
      "pbrMetallicRoughness": {
        "baseColorFactor": [
          0.804,
          0.647,
          1,
          1
        ],
        "metallicFactor": 0,
        "roughnessFactor": 1
      }
    }
  ],
  "accessors": [
    {
      "bufferView": 0,
      "byteOffset": 0,
      "componentType": 5126,
      "count": 1350,
      "type": "VEC3",
      "min": [
        -1.0225410461425781,
        -0.02131659910082817,
        0
      ],
      "max": [
        1.0000675916671753,
        0.0252474844455719,
        0
      ]
    },
    {
      "bufferView": 1,
      "byteOffset": 0,
      "componentType": 5126,
      "count": 310,
      "type": "VEC3",
      "min": [
        -0.018568430095911026,
        -0.026017358526587486,
        -0.11864631623029709
      ],
      "max": [
        0.015396255068480968,
        0.01633773185312748,
        0.05871208384633064
      ]
    },
    {
      "bufferView": 2,
      "byteOffset": 0,
      "componentType": 5126,
      "count": 466,
      "type": "VEC3",
      "min": [
        -0.18289701640605927,
        -0.004939455073326826,
        -0.01635821908712387
      ],
      "max": [
        0.0031044804491102695,
        0.013756174594163895,
        0.04268353432416916
      ]
    },
    {
      "bufferView": 3,
      "byteOffset": 0,
      "componentType": 5126,
      "count": 2342,
      "type": "VEC3",
      "min": [
        -0.3115245997905731,
        -0.19243133068084717,
        -0.39334237575531006
      ],
      "max": [
        0.015072617679834366,
        0.14808528125286102,
        0.8898870944976807
      ]
    },
    {
      "bufferView": 4,
      "byteOffset": 0,
      "componentType": 5126,
      "count": 628,
      "type": "VEC3",
      "min": [
        -0.13811838626861572,
        -0.02404174394905567,
        -0.29304665327072144
      ],
      "max": [
        0.11357493698596954,
        0.13791358470916748,
        0.3185769319534302
      ]
    }
  ],
  "bufferViews": [
    {
      "buffer": 0,
      "byteOffset": 0,
      "byteLength": 16200,
      "target": 34962
    },
    {
      "buffer": 0,
      "byteOffset": 16200,
      "byteLength": 3720,
      "target": 34962
    },
    {
      "buffer": 0,
      "byteOffset": 19920,
      "byteLength": 5592,
      "target": 34962
    },
    {
      "buffer": 0,
      "byteOffset": 25512,
      "byteLength": 28104,
      "target": 34962
    },
    {
      "buffer": 0,
      "byteOffset": 53616,
      "byteLength": 7536,
      "target": 34962
    }
  ],
  "buffers": [
    {
      "byteLength": 61152,
      "uri": "data:application/octet-stream;base64,"
    }
  ]
}