<?xml version="1.0" encoding="UTF-8"?>
<svg xmlns="http://www.w3.org/2000/svg" width="2000" height="2000" viewBox="0 0 2000 2000">
<g fill="none" stroke-linecap="round" stroke-linejoin="round">
  <path d="M 961.26 984.75 L 958.41 983.22 L 955.55 981.72 L 952.70 980.23 L 949.86 978.77 L 947.04 977.30 L 944.21 975.88 L 941.37 974.50 L 938.54 973.11 L 935.77 971.65 L 933.02 970.19 L 930.28 968.72 L 927.58 967.22 L 924.88 965.72 L 922.19 964.27 L 919.53 962.79 L 916.85 961.37 L 914.18 959.95 L 911.54 958.53 L 908.91 957.10 L 906.31 955.69 L 903.72 954.28 L 901.13 952.92 L 898.53 951.59 L 895.96 950.20 L 893.39 948.85 L 890.82 947.49 L 888.28 946.11 L 885.76 944.73 L 883.24 943.35 L 880.72 942.00 L 878.21 940.64 L 875.71 939.29 L 873.26 937.88 L 870.88 936.40 L 868.50 934.95 L 866.13 933.50 L 863.76 932.07 L 861.38 930.69 L 859.01 929.30 L 856.67 927.91 L 854.35 926.52 L 852.05 925.14 L 849.74 923.77 L 847.45 922.38 L 845.17 921.02 L 842.87 919.70 L 840.58 918.38 L 838.26 917.13 L 835.96 915.85 L 833.67 914.58 L 831.36 913.39 L 829.06 912.20 L 826.75 911.05 L 824.49 909.84 L 822.24 908.63 L 820.04 907.37" stroke="rgb(120,210,255)" stroke-opacity="0.854" stroke-width="1.64" />
  <path d="M 1000.50 1003.03 L 997.34 1001.87 L 994.20 1000.70 L 991.07 999.54 L 987.94 998.41 L 984.82 997.28 L 981.72 996.16 L 978.63 995.05 L 975.54 993.96 L 972.47 992.89 L 969.43 991.78 L 966.40 990.66 L 963.39 989.55 L 960.38 988.45 L 957.40 987.34 L 954.42 986.22 L 951.46 985.14 L 948.49 984.08 L 945.54 983.02 L 942.61 981.94 L 939.68 980.88 L 936.76 979.83 L 933.85 978.80 L 930.95 977.78 L 928.07 976.75 L 925.20 975.71 L 922.34 974.69 L 919.50 973.66 L 916.67 972.62 L 913.85 971.57 L 911.05 970.51 L 908.25 969.50 L 905.47 968.46 L 902.73 967.38 L 899.99 966.30 L 897.25 965.27 L 894.54 964.20 L 891.84 963.14 L 889.14 962.09" stroke="rgb(120,210,255)" stroke-opacity="0.853" stroke-width="1.63" />
  <path d="M 998.50 999.58 L 995.53 998.46 L 992.59 997.31 L 989.66 996.15 L 986.75 994.96 L 983.86 993.77 L 980.97 992.62 L 978.09 991.48 L 975.19 990.38 L 972.31 989.30 L 969.45 988.21 L 966.60 987.11 L 963.76 986.02 L 960.94 984.92 L 958.13 983.83 L 955.34 982.72 L 952.54 981.67 L 949.75 980.61 L 946.97 979.57 L 944.20 978.54 L 941.44 977.50 L 938.70 976.45 L 935.98 975.39 L 933.26 974.34 L 930.56 973.28 L 927.89 972.18 L 925.23 971.09 L 922.57 970.01 L 919.95 968.89 L 917.34 967.76 L 914.75 966.63 L 912.15 965.54 L 909.59 964.41 L 907.02 963.29 L 904.46 962.20 L 901.91 961.12 L 899.37 960.04 L 896.84 958.97 L 894.32 957.91 L 891.81 956.84 L 889.32 955.74 L 886.84 954.66 L 884.38 953.57 L 881.92 952.48 L 879.48 951.40 L 877.07 950.28 L 874.65 949.20 L 872.23 948.17" stroke="rgb(120,210,255)" stroke-opacity="0.852" stroke-width="1.63" />
  <path d="M 1001.73 1001.14 L 998.54 999.98 L 995.35 998.84 L 992.17 997.73 L 988.99 996.65 L 985.83 995.57 L 982.68 994.49 L 979.54 993.42 L 976.41 992.35 L 973.30 991.28 L 970.22 990.16 L 967.17 989.02 L 964.11 987.94 L 961.06 986.89 L 958.02 985.84 L 954.99 984.80 L 951.98 983.77 L 948.96 982.76 L 945.93 981.85 L 942.91 980.94 L 939.90 980.07 L 936.90 979.18 L 933.91 978.29 L 930.93 977.43 L 927.96 976.59 L 925.00 975.76 L 922.05 974.94 L 919.10 974.14 L 916.19 973.29 L 913.28 972.47 L 910.37 971.66 L 907.48 970.86 L 904.61 970.05 L 901.74 969.25 L 898.87 968.46 L 896.03 967.67 L 893.19 966.89 L 890.37 966.11 L 887.55 965.36 L 884.75 964.62 L 881.97 963.82 L 879.22 963.02 L 876.47 962.22 L 873.74 961.42 L 871.01 960.63 L 868.30 959.85 L 865.59 959.08 L 862.89 958.30 L 860.21 957.52 L 857.54 956.74 L 854.89 955.92 L 852.26 955.08 L 849.64 954.24 L 847.02 953.41 L 844.42 952.56 L 841.82 951.72 L 839.22 950.90 L 836.64 950.09 L 834.08 949.24 L 831.53 948.39 L 828.99 947.56 L 826.46 946.74 L 823.93 945.96" stroke="rgb(120,210,255)" stroke-opacity="0.848" stroke-width="1.62" />
  <path d="M 924.90 974.64 L 921.99 972.83 L 919.09 971.04 L 916.19 969.28 L 913.30 967.52 L 910.42 965.77 L 907.55 964.02 L 904.72 962.25 L 901.89 960.50 L 899.04 958.80 L 896.21 957.09 L 893.41 955.38 L 890.61 953.69 L 887.84 951.97 L 885.06 950.29 L 882.30 948.61 L 879.55 946.94 L 876.79 945.30 L 874.06 943.64 L 871.37 941.94 L 868.69 940.25 L 865.99 938.62 L 863.31 936.99 L 860.62 935.40 L 857.92 933.86 L 855.23 932.32 L 852.54 930.79 L 849.87 929.26 L 847.21 927.74 L 844.56 926.22 L 841.90 924.76 L 839.25 923.31 L 836.62 921.85 L 834.02 920.39 L 831.42 918.94 L 828.83 917.51 L 826.23 916.11" stroke="rgb(120,210,255)" stroke-opacity="0.848" stroke-width="1.62" />
  <path d="M 1001.98 998.54 L 998.79 997.39 L 995.62 996.23 L 992.46 995.08 L 989.32 993.93 L 986.19 992.80 L 983.06 991.69 L 979.92 990.63 L 976.80 989.58 L 973.70 988.51 L 970.58 987.52 L 967.48 986.55 L 964.37 985.63 L 961.26 984.75 L 958.17 983.88 L 955.08 983.01 L 952.01 982.15 L 948.96 981.28 L 945.91 980.42 L 942.88 979.56 L 939.86 978.72 L 936.85 977.88 L 933.84 977.06 L 930.85 976.26 L 927.87 975.44 L 924.90 974.64 L 921.95 973.81 L 919.02 972.96 L 916.08 972.17 L 913.18 971.31 L 910.29 970.42 L 907.42 969.54 L 904.55 968.70 L 901.70 967.84 L 898.87 966.94 L 896.04 966.07 L 893.25 965.13 L 890.47 964.19 L 887.72 963.21 L 884.98 962.25 L 882.24 961.29 L 879.52 960.34 L 876.80 959.40 L 874.10 958.46 L 871.39 957.56 L 868.69 956.70 L 865.98 955.87 L 863.28 955.07 L 860.59 954.27" stroke="rgb(120,210,255)" stroke-opacity="0.847" stroke-width="1.61" />
  <path d="M 997.60 999.67 L 994.76 998.74 L 991.93 997.84 L 989.12 996.92 L 986.34 995.98 L 983.59 995.04 L 980.86 994.05 L 978.19 992.99 L 975.54 991.90 L 972.93 990.77 L 970.33 989.65 L 967.73 988.58 L 965.14 987.49 L 962.53 986.44 L 959.92 985.42 L 957.31 984.42 L 954.73 983.45 L 952.15 982.44 L 949.59 981.45 L 947.05 980.46 L 944.49 979.48 L 941.97 978.50 L 939.44 977.53 L 936.97 976.50 L 934.49 975.49 L 932.05 974.42 L 929.62 973.34 L 927.21 972.26 L 924.81 971.17" stroke="rgb(120,210,255)" stroke-opacity="0.466" stroke-width="1.61" />
  <path d="M 998.76 1003.78 L 995.76 1002.76 L 992.76 1001.77 L 989.77 1000.79 L 986.80 999.79 L 983.86 998.77 L 980.94 997.72 L 978.03 996.67 L 975.16 995.56 L 972.31 994.43 L 969.49 993.27 L 966.67 992.13 L 963.81 991.11 L 960.95 990.14 L 958.09 989.19 L 955.23 988.27 L 952.39 987.33 L 949.56 986.42 L 946.73 985.53 L 943.91 984.64 L 941.11 983.73 L 938.32 982.84 L 935.54 981.94 L 932.79 980.98 L 930.06 980.02 L 927.36 979.02 L 924.65 978.03 L 921.96 977.06 L 919.27 976.10 L 916.60 975.13 L 913.93 974.18 L 911.31 973.14 L 908.70 972.13 L 906.11 971.08 L 903.52 970.04 L 900.98 968.93 L 898.49 967.75" stroke="rgb(120,210,255)" stroke-opacity="0.846" stroke-width="1.61" />
  <path d="M 999.78 997.99 L 996.86 996.89 L 993.94 995.83 L 991.03 994.79 L 988.14 993.70 L 985.25 992.66 L 982.37 991.62 L 979.51 990.58 L 976.66 989.53 L 973.80 988.56 L 970.94 987.60 L 968.09 986.66 L 965.27 985.69 L 962.47 984.68 L 959.68 983.67 L 956.90 982.70 L 954.13 981.73 L 951.37 980.75 L 948.64 979.75 L 945.91 978.77 L 943.19 977.79 L 940.49 976.80 L 937.80 975.83 L 935.11 974.87 L 932.46 973.85 L 929.83 972.82 L 927.23 971.74 L 924.63 970.67 L 922.09 969.50 L 919.54 968.36 L 917.03 967.18 L 914.52 966.01 L 912.01 964.87 L 909.51 963.75 L 906.97 962.74" stroke="rgb(120,210,255)" stroke-opacity="0.840" stroke-width="1.59" />
  <path d="M 1000.16 997.31 L 996.95 996.13 L 993.76 994.96 L 990.57 993.84 L 987.38 992.73 L 984.20 991.65 L 981.04 990.54 L 977.87 989.52 L 974.73 988.45 L 971.60 987.39 L 968.48 986.34 L 965.35 985.36 L 962.23 984.38 L 959.13 983.39 L 956.07 982.33 L 953.02 981.25 L 949.99 980.19 L 946.98 979.10 L 943.97 978.04 L 940.96 977.04 L 937.95 976.04 L 934.97 975.03 L 931.99 974.03 L 929.04 973.01 L 926.08 972.03 L 923.15 971.04 L 920.22 970.05 L 917.30 969.09 L 914.38 968.15 L 911.47 967.23 L 908.57 966.32 L 905.69 965.39 L 902.83 964.45 L 899.98 963.50 L 897.14 962.55" stroke="rgb(120,210,255)" stroke-opacity="0.839" stroke-width="1.59" />
  <path d="M 1001.39 998.40 L 998.79 997.32 L 996.18 996.28 L 993.58 995.27 L 990.98 994.27" stroke="rgb(120,210,255)" stroke-opacity="0.454" stroke-width="1.55" />
  <path d="M 893.25 965.13 L 890.91 964.34 L 888.60 963.51 L 886.30 962.69 L 884.00 961.84 L 881.71 961.05 L 879.45 960.22 L 877.15 959.59" stroke="rgb(120,210,255)" stroke-opacity="0.441" stroke-width="1.48" />
  <path d="M 1002.91 999.20 L 1000.77 998.59 L 998.63 997.98 L 996.50 997.40 L 994.37 996.86 L 992.25 996.33 L 990.13 995.81 L 988.02 995.29 L 985.90 994.84 L 983.78 994.44 L 981.68 993.96 L 979.59 993.49 L 977.51 993.01 L 975.45 992.47 L 973.39 992.00 L 971.33 991.58 L 969.30 991.08 L 967.30 990.53 L 965.30 989.96 L 963.33 989.35 L 961.33 988.83 L 959.33 988.37 L 957.32 987.95 L 955.32 987.52 L 953.32 987.17 L 951.32 986.84" stroke="rgb(120,210,255)" stroke-opacity="0.432" stroke-width="1.43" />
  <path d="M 1001.48 1005.75 L 999.48 1004.79 L 997.51 1003.80 L 995.53 1002.84 L 993.56 1001.88 L 991.60 1000.93 L 989.66 999.96 L 987.71 999.02 L 985.84 997.97 L 983.94 996.96 L 982.04 995.98 L 980.14 995.04 L 978.25 994.07 L 976.38 993.09 L 974.51 992.11 L 972.64 991.17 L 970.76 990.24 L 968.93 989.26 L 967.11 988.28 L 965.31 987.27 L 963.56 986.19 L 961.83 985.10 L 960.11 984.01 L 958.38 982.95 L 956.65 981.89 L 954.90 980.91 L 953.13 979.97 L 951.37 979.03 L 949.58 978.16 L 947.81 977.27 L 946.11 976.26 L 944.42 975.25 L 942.76 974.22 L 941.11 973.18 L 939.46 972.16 L 937.82 971.14 L 936.16 970.18 L 934.47 969.28 L 932.78 968.37 L 931.12 967.45 L 929.47 966.51 L 927.89 965.48 L 926.28 964.52 L 924.62 963.66 L 922.98 962.78 L 921.37 961.87 L 919.77 960.95 L 918.19 960.04 L 916.63 959.10 L 915.10 958.13 L 913.60 957.12" stroke="rgb(140,255,190)" stroke-opacity="0.571" stroke-width="1.25" />
  <path d="M 996.97 1000.29 L 994.29 1002.24 L 991.65 1004.19 L 989.01 1006.13 L 986.38 1008.05 L 983.78 1009.98 L 981.18 1011.89 L 978.59 1013.80 L 976.03 1015.69 L 973.47 1017.57 L 970.94 1019.45 L 968.40 1021.30 L 965.86 1023.14 L 963.31 1024.97 L 960.78 1026.80 L 958.28 1028.66 L 955.79 1030.52 L 953.32 1032.39 L 950.85 1034.24 L 948.40 1036.08 L 945.96 1037.93 L 943.51 1039.75" stroke="rgb(205,165,255)" stroke-opacity="0.712" stroke-width="1.22" />
  <path d="M 999.14 1000.30 L 996.26 998.95 L 993.39 997.63 L 990.53 996.30 L 987.66 995.03 L 984.78 993.81 L 981.89 992.62 L 979.05 991.36 L 976.23 990.09 L 973.44 988.79 L 970.66 987.48 L 967.91 986.14 L 965.18 984.78 L 962.48 983.40 L 959.77 982.06 L 957.08 980.73 L 954.42 979.34 L 951.77 977.97 L 949.13 976.60 L 946.53 975.19 L 943.95 973.76 L 941.37 972.34 L 938.80 970.93" stroke="rgb(205,165,255)" stroke-opacity="0.705" stroke-width="1.20" />
  <path d="M 934.37 980.90 L 931.60 978.91 L 928.79 976.99 L 926.01 975.06 L 923.26 973.11 L 920.48 971.22 L 917.72 969.35 L 914.99 967.44 L 912.26 965.54 L 909.55 963.64 L 906.89 961.67 L 904.23 959.73 L 901.57 957.80 L 898.93 955.87 L 896.24 954.03 L 893.58 952.18 L 890.96 950.30 L 888.34 948.42 L 885.74 946.55 L 883.13 944.71 L 880.53 942.88 L 877.94 941.04 L 875.36 939.22 L 872.79 937.41 L 870.21 935.64 L 867.67 933.83 L 865.14 932.03 L 862.62 930.24 L 860.11 928.45 L 857.58 926.71 L 855.06 924.99 L 852.52 923.30 L 849.98 921.64 L 847.45 919.98 L 844.94 918.31 L 842.44 916.66 L 839.92 915.06 L 837.40 913.48 L 834.87 911.94 L 832.35 910.40 L 829.87 908.84 L 827.37 907.32 L 824.90 905.79 L 822.44 904.25 L 820.01 902.69 L 817.57 901.18 L 815.10 899.72 L 812.64 898.29 L 810.17 896.89 L 807.70 895.49 L 805.24 894.13 L 802.78 892.76 L 800.34 891.39 L 797.90 890.04 L 795.48 888.69 L 793.07 887.33 L 790.66 885.98 L 788.27 884.64 L 785.88 883.30 L 783.51 881.98 L 781.15 880.64" stroke="rgb(140,255,190)" stroke-opacity="0.739" stroke-width="1.19" />
  <path d="M 873.94 987.71 L 871.58 986.50 L 869.19 985.32 L 866.83 984.18 L 864.45 983.10 L 862.07 982.07 L 859.66 981.02 L 857.23 980.02 L 854.74 979.02 L 852.23 978.00 L 849.73 976.99 L 847.15 976.02 L 844.60 975.03 L 842.06 974.05 L 839.49 973.11 L 836.97 972.15 L 834.52 971.17 L 831.99 970.21 L 829.45 969.32 L 826.91 968.47 L 824.39 967.61 L 821.88 966.68 L 819.35 965.79 L 816.83 964.95 L 814.34 964.10 L 811.89 963.32 L 809.44 962.60 L 806.99 961.88 L 804.56 961.17 L 802.17 960.50 L 799.80 959.85 L 797.46 959.21 L 795.13 958.54 L 792.83 957.95 L 790.52 957.47 L 788.20 956.93 L 785.86 956.42 L 783.57 955.85 L 781.24 955.33 L 778.92 954.84 L 776.63 954.34 L 774.36 953.84 L 772.10 953.31 L 769.85 952.76 L 767.59 952.20 L 765.33 951.60 L 763.07 950.93 L 760.83 950.19 L 758.59 949.45 L 756.37 948.72 L 754.14 948.01 L 751.90 947.39 L 749.66 946.78 L 747.44 946.16 L 745.21 945.54 L 742.99 944.92 L 740.84 944.31 L 738.69 943.70 L 736.56 943.11 L 734.47 942.56 L 732.40 942.02 L 730.33 941.52 L 728.26 941.03 L 726.23 940.57 L 724.25 940.17 L 722.27 939.81 L 720.32 939.48 L 718.39 939.14 L 716.45 938.75 L 714.51 938.35 L 712.59 937.95 L 710.68 937.55 L 708.78 937.15 L 706.93 936.76 L 705.11 936.34 L 703.23 935.95 L 701.38 935.58 L 699.54 935.20 L 697.74 934.84 L 695.95 934.49 L 694.17 934.15 L 692.41 933.78 L 690.65 933.41 L 688.87 933.04 L 687.10 932.67 L 685.31 932.29 L 683.52 931.91 L 681.70 931.51 L 679.90 931.05 L 678.12 930.59 L 676.36 930.12 L 674.57 929.67 L 672.77 929.22 L 670.97 928.77 L 669.19 928.29 L 667.43 927.83 L 665.68 927.37 L 663.90 926.92 L 662.14 926.45 L 660.39 925.96 L 658.65 925.48 L 656.90 925.01 L 655.16 924.53 L 653.42 924.10 L 651.70 923.65 L 649.98 923.21 L 648.26 922.81 L 646.53 922.41 L 644.82 921.98 L 643.12 921.53 L 641.45 921.06 L 639.78 920.58 L 638.10 920.08" stroke="rgb(140,255,190)" stroke-opacity="0.739" stroke-width="1.19" />
  <path d="M 1003.64 999.27 L 1000.42 997.97 L 997.23 996.63 L 994.03 995.35 L 990.85 994.07 L 987.68 992.82 L 984.54 991.54 L 981.44 990.22 L 978.33 988.93 L 975.25 987.62 L 972.17 986.32 L 969.10 985.04 L 966.05 983.77 L 963.00 982.52 L 959.97 981.26 L 956.96 979.98 L 953.99 978.65" stroke="rgb(140,255,190)" stroke-opacity="0.739" stroke-width="1.19" />
  <path d="M 916.41 956.89 L 913.15 955.96 L 909.90 955.06 L 906.64 954.22 L 903.39 953.35 L 900.15 952.51 L 896.93 951.69 L 893.73 950.85 L 890.54 950.01 L 887.36 949.17 L 884.21 948.30 L 881.07 947.44 L 877.94 946.61 L 874.80 945.81 L 871.69 945.01 L 868.59 944.16 L 865.50 943.29 L 862.43 942.41 L 859.37 941.56 L 856.32 940.71 L 853.27 939.86 L 850.23 939.05 L 847.20 938.26 L 844.19 937.45 L 841.19 936.66 L 838.21 935.87 L 835.23 935.06 L 832.27 934.23" stroke="rgb(140,255,190)" stroke-opacity="0.737" stroke-width="1.19" />
  <path d="M 854.89 987.80 L 851.87 988.46 L 848.87 989.12 L 845.84 989.72 L 842.84 990.32 L 839.84 990.96 L 836.86 991.60 L 833.87 992.20 L 830.90 992.76 L 827.94 993.37 L 824.98 993.97 L 822.05 994.54 L 819.11 995.09 L 816.19 995.62 L 813.28 996.12 L 810.38 996.63 L 807.50 997.09 L 804.63 997.53" stroke="rgb(140,255,190)" stroke-opacity="0.736" stroke-width="1.19" />
  <path d="M 1001.22 999.33 L 999.29 998.01 L 997.29 996.81 L 995.28 995.62 L 993.29 994.42 L 991.28 993.28 L 989.28 992.13 L 987.33 990.94 L 985.44 989.69 L 983.57 988.44 L 981.67 987.24 L 979.76 986.09 L 977.91 984.88 L 976.07 983.66 L 974.14 982.59 L 972.23 981.54 L 970.32 980.49 L 968.44 979.39 L 966.56 978.30 L 964.69 977.24 L 962.81 976.18 L 960.94 975.13 L 959.05 974.15 L 957.16 973.19 L 955.26 972.30 L 953.36 971.45 L 951.47 970.62 L 949.59 969.76 L 947.66 969.05 L 945.73 968.36 L 943.81 967.68 L 941.92 966.97 L 940.05 966.22 L 938.19 965.49 L 936.31 964.78 L 934.44 964.05 L 932.58 963.34 L 930.71 962.68 L 928.87 962.01 L 927.04 961.29 L 925.22 960.59 L 923.43 959.89 L 921.66 959.17 L 919.90 958.44 L 918.15 957.67 L 916.41 956.89 L 914.69 956.10 L 912.98 955.35" stroke="rgb(140,255,190)" stroke-opacity="0.550" stroke-width="1.18" />
  <path d="M 934.39 976.74 L 931.38 975.89 L 928.38 975.07 L 925.40 974.24 L 922.45 973.37 L 919.51 972.52 L 916.64 971.65 L 913.78 970.79 L 910.94 969.93 L 908.09 969.13 L 905.24 968.34 L 902.40 967.69 L 899.57 967.06 L 896.74 966.41 L 893.88 965.82 L 891.01 965.28 L 888.14 964.74 L 885.30 964.20 L 882.48 963.66 L 879.66 963.10 L 876.85 962.57 L 874.03 962.05 L 871.24 961.52 L 868.49 960.96 L 865.77 960.40 L 863.06 959.86 L 860.34 959.32 L 857.63 958.81 L 854.93 958.30 L 852.25 957.75 L 849.58 957.20 L 846.86 956.68 L 844.17 956.18 L 841.48 955.69 L 838.80 955.24 L 836.14 954.74 L 833.48 954.25 L 830.83 953.81 L 828.18 953.37 L 825.56 952.92 L 822.97 952.43 L 820.40 951.93 L 817.84 951.48 L 815.28 951.05 L 812.73 950.62 L 810.20 950.18 L 807.67 949.78 L 805.14 949.40 L 802.62 949.05 L 800.11 948.81 L 797.62 948.59 L 795.14 948.37 L 792.63 948.15 L 790.11 947.91 L 787.61 947.66 L 785.10 947.43 L 782.64 947.22 L 780.19 946.99 L 777.76 946.81 L 775.35 946.67 L 772.94 946.53 L 770.56 946.37 L 768.20 946.19 L 765.85 946.00 L 763.50 945.86 L 761.15 945.75 L 758.83 945.65 L 756.49 945.55 L 754.16 945.47 L 751.85 945.39 L 749.55 945.31 L 747.27 945.19 L 745.00 945.11 L 742.75 945.04 L 740.48 944.97 L 738.23 944.91 L 735.99 944.83 L 733.76 944.75 L 731.51 944.70 L 729.26 944.60 L 727.02 944.51 L 724.78 944.40 L 722.56 944.29 L 720.35 944.19 L 718.10 944.10 L 715.86 944.01 L 713.60 943.94 L 711.34 943.86 L 709.09 943.81 L 706.85 943.74 L 704.61 943.65 L 702.37 943.55 L 700.14 943.47 L 697.91 943.45 L 695.68 943.43 L 693.47 943.42 L 691.27 943.42 L 689.08 943.42 L 686.89 943.42 L 684.70 943.38 L 682.52 943.38 L 680.33 943.36 L 678.16 943.33 L 675.99 943.27 L 673.83 943.19 L 671.67 943.09 L 669.52 942.99 L 667.39 942.88 L 665.26 942.78 L 663.15 942.67 L 661.03 942.57 L 658.92 942.50 L 656.81 942.42 L 654.71 942.34 L 652.62 942.26 L 650.53 942.14 L 648.45 941.99 L 646.37 941.84 L 644.31 941.66 L 642.26 941.48 L 640.21 941.31 L 638.16 941.16 L 636.12 941.01 L 634.10 940.88 L 632.08 940.78 L 630.07 940.69 L 628.07 940.60 L 626.08 940.52 L 624.10 940.43 L 622.12 940.35 L 620.15 940.24" stroke="rgb(140,255,190)" stroke-opacity="0.733" stroke-width="1.18" />
  <path d="M 952.20 982.96 L 949.08 982.69 L 945.97 982.38 L 942.91 982.03 L 939.86 981.72 L 936.83 981.42 L 933.80 981.09 L 930.78 980.85 L 927.77 980.61 L 924.74 980.34 L 921.73 980.05 L 918.74 979.75 L 915.78 979.39 L 912.86 978.97 L 909.99 978.56 L 907.14 978.13 L 904.30 977.71 L 901.47 977.27 L 898.63 976.86 L 895.80 976.45 L 892.97 976.02 L 890.15 975.61 L 887.34 975.15 L 884.54 974.70 L 881.76 974.21 L 879.02 973.66 L 876.30 973.08 L 873.60 972.48 L 870.88 971.88 L 868.18 971.24 L 865.45 970.66 L 862.74 970.08 L 860.03 969.48 L 857.34 968.88 L 854.65 968.25 L 851.93 967.63 L 849.21 967.01 L 846.49 966.46 L 843.81 965.86" stroke="rgb(140,255,190)" stroke-opacity="0.733" stroke-width="1.18" />
  <path d="M 968.84 991.44 L 966.82 990.59 L 964.84 989.81 L 962.79 989.26 L 960.73 988.72 L 958.72 988.12 L 956.75 987.55 L 954.83 986.82 L 952.98 986.18 L 951.06 985.61 L 949.17 985.10 L 947.27 984.64 L 945.34 984.24 L 943.36 983.82" stroke="rgb(140,255,190)" stroke-opacity="0.548" stroke-width="1.17" />
  <path d="M 1001.55 999.86 L 998.57 999.43 L 995.60 999.02 L 992.64 998.62 L 989.70 998.21 L 986.81 997.78 L 983.94 997.36 L 981.09 996.88 L 978.27 996.40 L 975.46 995.96 L 972.68 995.47 L 969.93 994.91 L 967.17 994.46 L 964.42 994.01 L 961.66 993.53 L 958.90 993.06 L 956.16 992.61 L 953.46 992.09 L 950.76 991.61 L 948.08 991.22 L 945.39 990.80 L 942.72 990.42 L 940.04 990.06 L 937.38 989.69 L 934.72 989.30 L 932.06 988.95 L 929.42 988.57 L 926.82 988.22 L 924.23 987.82 L 921.63 987.50 L 919.05 987.16 L 916.48 986.83 L 913.91 986.45 L 911.36 986.08 L 908.83 985.68 L 906.31 985.24 L 903.81 984.81 L 901.30 984.34 L 898.81 983.86 L 896.30 983.46" stroke="rgb(205,165,255)" stroke-opacity="0.485" stroke-width="1.17" />
  <path d="M 998.00 998.44 L 994.70 997.74 L 991.42 997.03 L 988.16 996.31 L 984.91 995.59 L 981.68 994.85" stroke="rgb(140,255,190)" stroke-opacity="0.729" stroke-width="1.17" />
  <path d="M 1000.71 1000.84 L 998.49 999.94 L 996.25 999.13 L 994.01 998.33 L 991.80 997.48 L 989.60 996.62 L 987.44 995.64 L 985.29 994.66 L 983.15 993.68 L 981.02 992.69 L 978.91 991.77 L 976.72 990.95 L 974.56 990.12 L 972.43 989.32 L 970.24 988.51 L 968.06 987.72 L 965.89 986.93 L 963.71 986.18 L 961.53 985.43 L 959.34 984.74 L 957.14 984.06 L 954.98 983.36 L 952.83 982.64 L 950.70 981.92 L 948.57 981.15 L 946.48 980.35 L 944.36 979.60 L 942.29 978.83 L 940.22 978.06 L 938.13 977.24 L 936.05 976.40 L 933.98 975.55 L 931.94 974.69 L 929.91 973.83 L 927.90 972.97 L 925.87 972.15 L 923.88 971.31 L 921.94 970.43 L 920.01 969.54 L 918.07 968.64 L 916.13 967.75" stroke="rgb(205,165,255)" stroke-opacity="0.482" stroke-width="1.16" />
  <path d="M 999.83 1000.80 L 999.58 1003.03 L 999.35 1005.26 L 999.07 1007.43 L 998.77 1009.57 L 998.49 1011.71 L 998.10 1013.83 L 997.72 1015.92 L 997.35 1018.00 L 996.92 1020.03 L 996.50 1022.05 L 996.08 1024.06 L 995.63 1026.06 L 995.19 1028.04 L 994.74 1030.04 L 994.28 1032.03 L 993.82 1034.06 L 993.35 1036.02 L 992.91 1037.94" stroke="rgb(205,165,255)" stroke-opacity="0.482" stroke-width="1.16" />
  <path d="M 998.01 1000.18 L 994.69 999.61 L 991.38 999.10 L 988.08 998.63 L 984.78 998.20 L 981.50 997.81 L 978.23 997.42 L 974.98 997.04 L 971.75 996.64 L 968.53 996.22 L 965.32 995.86 L 962.11 995.53 L 958.92 995.24 L 955.74 994.93 L 952.57 994.63 L 949.43 994.30 L 946.29 993.95 L 943.17 993.61 L 940.06 993.34 L 936.96 993.07 L 933.87 992.85 L 930.80 992.64 L 927.73 992.43 L 924.68 992.22 L 921.64 992.03 L 918.61 991.87 L 915.58 991.71 L 912.57 991.55 L 909.57 991.36 L 906.59 991.12 L 903.63 990.87 L 900.67 990.62 L 897.72 990.38 L 894.79 990.18 L 891.86 989.97 L 888.95 989.79 L 886.05 989.62 L 883.16 989.40 L 880.29 989.20 L 877.42 989.00 L 874.57 988.77 L 871.72 988.61 L 868.89 988.44 L 866.07 988.32 L 863.25 988.19 L 860.45 988.07 L 857.66 987.95 L 854.89 987.80 L 852.12 987.63 L 849.36 987.51 L 846.61 987.37 L 843.87 987.24 L 841.15 987.11 L 838.43 986.97 L 835.73 986.81" stroke="rgb(140,255,190)" stroke-opacity="0.725" stroke-width="1.16" />
  <path d="M 1000.87 1001.53 L 997.69 1000.85 L 994.53 1000.14 L 991.38 999.46 L 988.24 998.78 L 985.12 998.11 L 982.01 997.43" stroke="rgb(140,255,190)" stroke-opacity="0.724" stroke-width="1.16" />
  <path d="M 949.59 969.76 L 947.95 967.56 L 946.36 965.37 L 944.83 963.21 L 943.31 961.07 L 941.81 958.87 L 940.29 956.66 L 938.77 954.45 L 937.24 952.26 L 935.72 950.06 L 934.27 947.81 L 932.82 945.61 L 931.38 943.42 L 929.94 941.23 L 928.53 939.06 L 927.12 936.90 L 925.74 934.74 L 924.39 932.59 L 923.04 930.46 L 921.70 928.33 L 920.35 926.22 L 919.08 924.03 L 917.80 921.87 L 916.50 919.74 L 915.19 917.61 L 913.91 915.49 L 912.65 913.38 L 911.39 911.27 L 910.15 909.18 L 908.97 907.09 L 907.80 905.01 L 906.64 902.94 L 905.48 900.87 L 904.34 898.81 L 903.20 896.75 L 902.07 894.67 L 901.06 892.62 L 899.99 890.62 L 898.93 888.63 L 897.88 886.66 L 896.81 884.72 L 895.75 882.79 L 894.69 880.86 L 893.63 878.94 L 892.63 877.02 L 891.62 875.07 L 890.59 873.15 L 889.46 871.26 L 888.32 869.37 L 887.22 867.48 L 886.14 865.58 L 885.06 863.71 L 883.98 861.83 L 882.93 859.94 L 881.89 858.04 L 880.88 856.13 L 879.84 854.25 L 878.81 852.38 L 877.80 850.50 L 876.80 848.64 L 875.77 846.81 L 874.74 845.00 L 873.75 843.20 L 872.72 841.43 L 871.71 839.66 L 870.73 837.89 L 869.75 836.12 L 868.79 834.31 L 867.90 832.48 L 867.02 830.65 L 866.12 828.84 L 865.23 827.04 L 864.35 825.23 L 863.43 823.40 L 862.45 821.63 L 861.49 819.87 L 860.49 818.15 L 859.46 816.46 L 858.44 814.78 L 857.39 813.12 L 856.27 811.45 L 855.15 809.79 L 854.04 808.14 L 852.90 806.49" stroke="rgb(140,255,190)" stroke-opacity="0.723" stroke-width="1.15" />
  <path d="M 1000.57 1000.19 L 998.25 999.51 L 995.94 998.83 L 993.63 998.16 L 991.31 997.57 L 989.03 996.88 L 986.76 996.26 L 984.47 995.73 L 982.21 995.12 L 979.95 994.48 L 977.70 993.90 L 975.48 993.27 L 973.26 992.65 L 971.04 992.06 L 968.84 991.44 L 966.61 990.91 L 964.44 990.26 L 962.25 989.64 L 960.08 989.04 L 957.90 988.49 L 955.73 987.93 L 953.56 987.39 L 951.41 986.84 L 949.27 986.29 L 947.15 985.68 L 945.03 985.10 L 942.91 984.55 L 940.78 984.07 L 938.66 983.63 L 936.53 983.20 L 934.43 982.76 L 932.32 982.34 L 930.23 981.92 L 928.14 981.53 L 926.05 981.15 L 923.97 980.78 L 921.90 980.42 L 919.84 980.05 L 917.79 979.70 L 915.74 979.41 L 913.69 979.11 L 911.65 978.86 L 909.60 978.64 L 907.57 978.47 L 905.54 978.28 L 903.52 978.07 L 901.51 977.87" stroke="rgb(140,255,190)" stroke-opacity="0.541" stroke-width="1.15" />
  <path d="M 1002.35 998.12 L 999.39 996.91 L 996.45 995.68 L 993.52 994.46 L 990.62 993.24 L 987.73 992.01 L 984.86 990.79 L 982.00 989.60 L 979.16 988.44 L 976.33 987.29 L 973.54 986.09 L 970.74 984.90 L 967.97 983.70" stroke="rgb(140,255,190)" stroke-opacity="0.717" stroke-width="1.14" />
  <path d="M 976.07 983.66 L 974.46 981.30 L 972.89 978.90 L 971.33 976.50 L 969.73 974.15 L 968.08 971.81 L 966.45 969.49 L 964.78 967.22 L 963.11 964.95 L 961.38 962.73 L 959.66 960.53 L 957.94 958.35 L 956.20 956.20 L 954.45 954.01 L 952.66 951.84 L 950.86 949.68 L 949.10 947.51 L 947.37 945.31 L 945.63 943.14 L 943.91 940.98 L 942.19 938.82 L 940.49 936.69 L 938.77 934.59 L 937.04 932.48 L 935.30 930.38 L 933.59 928.27 L 931.88 926.17 L 930.18 924.09 L 928.46 922.00 L 926.74 919.91 L 924.98 917.87 L 923.24 915.83 L 921.57 913.77 L 919.89 911.73 L 918.24 909.66 L 916.60 907.58 L 914.96 905.52 L 913.34 903.43 L 911.67 901.42 L 910.02 899.39 L 908.38 897.39 L 906.73 895.42 L 905.09 893.44 L 903.47 891.49 L 901.73 889.64 L 900.00 887.80 L 898.31 885.94 L 896.65 884.05 L 894.97 882.16 L 893.28 880.32 L 891.56 878.50" stroke="rgb(140,255,190)" stroke-opacity="0.717" stroke-width="1.14" />
  <path d="M 996.41 1000.22 L 993.51 999.10 L 990.64 997.97 L 987.75 996.89 L 984.87 995.83 L 981.99 994.80 L 979.13 993.77 L 976.29 992.72 L 973.47 991.66 L 970.65 990.60 L 967.88 989.47 L 965.13 988.36 L 962.42 987.17 L 959.73 985.98 L 957.02 984.84 L 954.33 983.71 L 951.66 982.55 L 949.02 981.36 L 946.39 980.16 L 943.73 979.06 L 941.10 977.96 L 938.48 976.83 L 935.91 975.64 L 933.32 974.50 L 930.74 973.36 L 928.17 972.25 L 925.63 971.10 L 923.09 970.00 L 920.55 968.90 L 918.04 967.78 L 915.54 966.67 L 913.03 965.60 L 910.53 964.53 L 908.03 963.49 L 905.53 962.47 L 903.04 961.47 L 900.56 960.51 L 898.09 959.55 L 895.64 958.56 L 893.19 957.61 L 890.75 956.66 L 888.30 955.78 L 885.85 954.95 L 883.40 954.15 L 880.95 953.40 L 878.52 952.61 L 876.10 951.83 L 873.68 951.06 L 871.28 950.30 L 868.92 949.47 L 866.58 948.62 L 864.26 947.78 L 861.93 946.96 L 859.62 946.15 L 857.30 945.33 L 855.01 944.48 L 852.73 943.64 L 850.47 942.77 L 848.24 941.88 L 845.99 941.01 L 843.76 940.14 L 841.53 939.28 L 839.30 938.47 L 837.08 937.67 L 834.87 936.86 L 832.69 936.01 L 830.53 935.09 L 828.39 934.17" stroke="rgb(140,255,190)" stroke-opacity="0.716" stroke-width="1.13" />
  <path d="M 998.35 996.55 L 995.19 996.41 L 992.04 996.23 L 988.92 996.07 L 985.80 995.95 L 982.69 995.83 L 979.59 995.79 L 976.51 995.74 L 973.43 995.70 L 970.37 995.67 L 967.32 995.65 L 964.29 995.72 L 961.27 995.76 L 958.26 995.80 L 955.25 995.77 L 952.26 995.74 L 949.28 995.71 L 946.32 995.64 L 943.38 995.56 L 940.43 995.46 L 937.50 995.35 L 934.59 995.24 L 931.68 995.12 L 928.79 994.97 L 925.91 994.82 L 923.04 994.70 L 920.18 994.63 L 917.34 994.55" stroke="rgb(140,255,190)" stroke-opacity="0.715" stroke-width="1.13" />
  <path d="M 906.59 991.12 L 903.86 990.75 L 901.13 990.42 L 898.45 990.06 L 895.74 989.72 L 893.05 989.41 L 890.37 989.05 L 887.64 988.74 L 884.89 988.58 L 882.16 988.38 L 879.43 988.20 L 876.70 987.96 L 873.94 987.71 L 871.20 987.45 L 868.48 987.16 L 865.77 986.85 L 863.13 986.40 L 860.51 985.95 L 857.90 985.52 L 855.30 984.94 L 852.75 984.28 L 850.22 983.62 L 847.72 982.97 L 845.26 982.21 L 842.80 981.51 L 840.39 980.81 L 837.98 980.10 L 835.60 979.45 L 833.21 978.83 L 830.82 978.24 L 828.50 977.62 L 826.23 976.95 L 823.96 976.27 L 821.71 975.60" stroke="rgb(140,255,190)" stroke-opacity="0.715" stroke-width="1.13" />
  <path d="M 998.84 999.53 L 996.60 998.59 L 994.34 997.69 L 992.09 996.80 L 989.84 995.93 L 987.61 995.05 L 985.40 994.15" stroke="rgb(140,255,190)" stroke-opacity="0.535" stroke-width="1.13" />
  <path d="M 910.30 974.96 L 907.35 974.40 L 904.40 973.87 L 901.44 973.38 L 898.50 972.92 L 895.58 972.48 L 892.68 972.01 L 889.79 971.48 L 886.90 971.07 L 884.02 970.66 L 881.13 970.26 L 878.28 969.93 L 875.44 969.59 L 872.61 969.22 L 869.79 968.79 L 866.99 968.36 L 864.20 967.97 L 861.38 967.61 L 858.56 967.28 L 855.75 966.95 L 852.97 966.52 L 850.22 966.10 L 847.48 965.74 L 844.75 965.37 L 842.03 965.01 L 839.32 964.65 L 836.65 964.34 L 833.99 964.03 L 831.35 963.71 L 828.71 963.44 L 826.08 963.15 L 823.45 962.85 L 820.89 962.43 L 818.33 962.02 L 815.78 961.67 L 813.24 961.30 L 810.69 960.96 L 808.16 960.51 L 805.66 960.03 L 803.18 959.65 L 800.71 959.20 L 798.26 958.76 L 795.81 958.29 L 793.38 957.77 L 790.96 957.18 L 788.54 956.66 L 786.12 956.24 L 783.75 955.78 L 781.41 955.28 L 779.06 954.81 L 776.72 954.28 L 774.38 953.78 L 772.02 953.27 L 769.68 952.72 L 767.33 952.18 L 764.99 951.61 L 762.67 950.99 L 760.37 950.36 L 758.05 949.79 L 755.74 949.21 L 753.45 948.66 L 751.15 948.13" stroke="rgb(140,255,190)" stroke-opacity="0.533" stroke-width="1.12" />
  <path d="M 905.09 893.44 L 903.61 892.27 L 902.14 891.07 L 900.71 889.82 L 899.36 888.60 L 898.07 887.33 L 896.83 886.08 L 895.68 884.82 L 894.40 883.56 L 893.18 882.24 L 891.85 881.04 L 890.53 879.83 L 889.22 878.62 L 887.81 877.36 L 886.41 876.08 L 885.02 874.80 L 883.57 873.57 L 882.19 872.21 L 880.77 870.92 L 879.38 869.58 L 877.96 868.25 L 876.59 866.95 L 875.19 865.63 L 873.71 864.31 L 872.15 863.01 L 870.59 861.70 L 869.04 860.40 L 867.41 859.13 L 865.78 857.91 L 864.10 856.76 L 862.45 855.54 L 860.80 854.34 L 859.13 853.07 L 857.45 851.79 L 855.79 850.51 L 854.14 849.19 L 852.50 847.87 L 850.90 846.46 L 849.32 845.04 L 847.76 843.62 L 846.28 842.15 L 844.78 840.68" stroke="rgb(140,255,190)" stroke-opacity="0.533" stroke-width="1.12" />
  <path d="M 997.12 1001.19 L 994.76 1000.45 L 992.40 999.73 L 990.06 999.01 L 987.77 998.17 L 985.48 997.35 L 983.20 996.53 L 980.94 995.69 L 978.71 994.80 L 976.44 994.04 L 974.21 993.22 L 971.98 992.42 L 969.79 991.61 L 967.61 990.77 L 965.40 990.05 L 963.19 989.37 L 960.98 988.63 L 958.80 987.89 L 956.62 987.14 L 954.45 986.44 L 952.32 985.74 L 950.20 985.02 L 948.08 984.35 L 945.95 983.73 L 943.83 983.09 L 941.73 982.47 L 939.64 981.89 L 937.50 981.51 L 935.36 981.16 L 933.22 980.73 L 931.08 980.31 L 928.94 979.90 L 926.84 979.43 L 924.75 979.02 L 922.67 978.60 L 920.59 978.19 L 918.52 977.79 L 916.45 977.39 L 914.40 976.94 L 912.36 976.48 L 910.33 976.03 L 908.30 975.52 L 906.28 975.00 L 904.25 974.54 L 902.23 974.07 L 900.22 973.60 L 898.22 973.13 L 896.24 972.59 L 894.25 972.08 L 892.28 971.57 L 890.31 971.07 L 888.36 970.55 L 886.41 970.06" stroke="rgb(140,255,190)" stroke-opacity="0.533" stroke-width="1.12" />
  <path d="M 999.86 997.61 L 996.89 996.82 L 993.93 996.07 L 990.97 995.35 L 988.03 994.63 L 985.10 993.89 L 982.19 993.12 L 979.29 992.36 L 976.41 991.57 L 973.54 990.79 L 970.69 989.99 L 967.85 989.22 L 965.02 988.41 L 962.19 987.68 L 959.39 986.86 L 956.59 986.09 L 953.79 985.35 L 951.00 984.63 L 948.21 983.97 L 945.42 983.34 L 942.64 982.73 L 939.87 982.13 L 937.11 981.53 L 934.37 980.90 L 931.64 980.27 L 928.92 979.66 L 926.21 979.04 L 923.52 978.39 L 920.86 977.70 L 918.20 977.01 L 915.56 976.32 L 912.93 975.61 L 910.30 974.96 L 907.68 974.32 L 905.07 973.67 L 902.46 973.06 L 899.86 972.45" stroke="rgb(140,255,190)" stroke-opacity="0.532" stroke-width="1.12" />
  <path d="M 1003.51 999.77 L 1002.31 997.63 L 1001.16 995.45 L 1000.02 993.27 L 998.90 991.08 L 997.76 988.89 L 996.59 986.73 L 995.47 984.56 L 994.34 982.39 L 993.22 980.24 L 992.11 978.10 L 991.02 975.97 L 989.87 973.90 L 988.63 971.88 L 987.33 969.89 L 985.93 967.97 L 984.58 966.04 L 983.28 964.12 L 981.94 962.21 L 980.69 960.25 L 979.53 958.26 L 978.35 956.28 L 977.17 954.33 L 975.99 952.37 L 974.81 950.43 L 973.64 948.49 L 972.52 946.57 L 971.37 944.68 L 970.14 942.85 L 968.89 941.03 L 967.66 939.19 L 966.42 937.34 L 965.22 935.50 L 964.04 933.66 L 962.82 931.86 L 961.66 930.03 L 960.45 928.20 L 959.26 926.41 L 958.04 924.62 L 956.74 922.90 L 955.44 921.26 L 954.10 919.62 L 952.79 917.99 L 951.54 916.35 L 950.30 914.73 L 949.06 913.09 L 947.88 911.41 L 946.72 909.76 L 945.59 908.06 L 944.41 906.41" stroke="rgb(205,165,255)" stroke-opacity="0.471" stroke-width="1.12" />
  <path d="M 826.08 963.15 L 823.57 963.17 L 821.04 963.19 L 818.53 963.21 L 816.00 963.29 L 813.43 963.41 L 810.87 963.51 L 808.28 963.58 L 805.69 963.64 L 803.13 963.65 L 800.61 963.68 L 798.13 963.79" stroke="rgb(140,255,190)" stroke-opacity="0.531" stroke-width="1.11" />
  <path d="M 997.55 998.78 L 994.78 997.87 L 992.03 996.97 L 989.29 996.02 L 986.60 995.00 L 983.91 993.99 L 981.22 993.04 L 978.55 992.07 L 975.89 991.09 L 973.23 990.13 L 970.57 989.22 L 967.90 988.36 L 965.24 987.48 L 962.61 986.59 L 959.98 985.71 L 957.36 984.83 L 954.77 983.91 L 952.20 982.96 L 949.62 982.10 L 947.05 981.21 L 944.50 980.30 L 941.94 979.44 L 939.43 978.49 L 936.92 977.56 L 934.39 976.74 L 931.86 975.94 L 929.36 975.09 L 926.88 974.21 L 924.43 973.26 L 921.97 972.39 L 919.52 971.52 L 917.08 970.67 L 914.67 969.73 L 912.30 968.74" stroke="rgb(140,255,190)" stroke-opacity="0.531" stroke-width="1.11" />
  <path d="M 998.89 996.08 L 995.97 995.36 L 993.04 994.75 L 990.12 994.16 L 987.19 993.65 L 984.28 993.14 L 981.38 992.64 L 978.48 992.19 L 975.59 991.74 L 972.72 991.29 L 969.86 990.82 L 967.01 990.34 L 964.18 989.84 L 961.38 989.31 L 958.58 988.81 L 955.81 988.21 L 953.07 987.60 L 950.33 986.99 L 947.60 986.39 L 944.87 985.81 L 942.15 985.23 L 939.46 984.56 L 936.79 983.88 L 934.12 983.22 L 931.47 982.54 L 928.83 981.86 L 926.20 981.19 L 923.57 980.57 L 920.94 980.00 L 918.33 979.40 L 915.73 978.80 L 913.14 978.20 L 910.54 977.73 L 907.95 977.23 L 905.38 976.69 L 902.82 976.13 L 900.26 975.62 L 897.71 975.11" stroke="rgb(140,255,190)" stroke-opacity="0.531" stroke-width="1.11" />
  <path d="M 999.87 1000.75 L 997.09 999.69 L 994.33 998.63 L 991.59 997.57 L 988.86 996.52 L 986.10 995.54 L 983.37 994.56 L 980.64 993.60 L 977.93 992.64 L 975.24 991.65 L 972.54 990.71 L 969.86 989.76 L 967.20 988.79 L 964.56 987.83 L 961.93 986.84 L 959.31 985.90 L 956.68 984.97 L 954.07 984.03 L 951.46 983.12 L 948.88 982.15 L 946.31 981.18 L 943.78 980.16 L 941.27 979.14 L 938.79 978.06 L 936.33 976.99 L 933.88 975.91 L 931.44 974.83 L 928.99 973.82 L 926.55 972.82 L 924.12 971.81 L 921.68 970.84 L 919.26 969.87 L 916.85 968.93 L 914.44 967.99 L 912.06 967.05 L 909.68 966.10 L 907.31 965.15 L 904.96 964.17 L 902.63 963.18" stroke="rgb(140,255,190)" stroke-opacity="0.531" stroke-width="1.11" />
  <path d="M 957.36 984.83 L 954.82 984.18 L 952.27 983.57 L 949.70 982.98 L 947.16 982.37 L 944.63 981.76 L 942.10 981.14 L 939.58 980.55 L 937.05 979.98 L 934.52 979.42 L 931.97 978.79 L 929.43 978.16 L 926.92 977.45 L 924.45 976.73 L 921.96 976.09 L 919.45 975.56 L 916.95 975.04 L 914.45 974.51 L 911.96 973.97 L 909.46 973.35 L 906.96 972.74 L 904.47 972.12 L 901.96 971.58 L 899.47 971.16 L 896.96 970.80 L 894.48 970.44 L 891.96 970.15 L 889.45 969.83 L 886.91 969.60 L 884.41 969.31 L 881.90 968.98 L 879.40 968.67 L 876.91 968.35 L 874.42 967.99 L 871.94 967.64 L 869.47 967.29 L 867.03 966.94 L 864.62 966.59 L 862.22 966.25 L 859.84 965.91 L 857.48 965.52 L 855.14 965.05 L 852.82 964.44 L 850.50 963.83 L 848.18 963.22 L 845.88 962.59 L 843.58 961.97 L 841.29 961.35 L 839.01 960.75 L 836.71 960.20 L 834.47 959.60 L 832.24 959.03 L 830.01 958.42 L 827.77 957.84 L 825.54 957.29 L 823.34 956.73 L 821.13 956.18 L 818.95 955.58 L 816.79 954.98 L 814.63 954.34 L 812.48 953.69 L 810.34 953.03 L 808.21 952.37 L 806.08 951.74 L 803.96 951.12 L 801.81 950.53 L 799.65 950.01 L 797.48 949.48 L 795.31 948.97 L 793.10 948.47 L 790.90 947.97 L 788.70 947.51 L 786.50 947.05 L 784.34 946.49" stroke="rgb(140,255,190)" stroke-opacity="0.530" stroke-width="1.11" />
  <path d="M 810.34 953.03 L 808.02 952.75 L 805.69 952.46 L 803.36 952.38 L 801.04 952.23 L 798.72 952.10 L 796.45 951.74 L 794.16 951.42 L 791.90 951.07 L 789.75 950.68 L 787.60 950.31 L 785.48 949.95 L 783.33 949.67 L 781.13 949.28 L 778.94 948.87 L 776.78 948.39 L 774.70 947.74 L 772.72 947.08 L 770.77 946.41" stroke="rgb(140,255,190)" stroke-opacity="0.530" stroke-width="1.11" />
  <path d="M 921.90 980.42 L 919.80 979.43 L 917.71 978.47 L 915.58 977.57 L 913.41 976.66 L 911.20 975.88 L 909.01 975.00 L 906.86 974.12 L 904.70 973.25 L 902.55 972.39 L 900.41 971.53 L 898.25 970.71 L 896.13 969.89 L 894.02 969.06 L 891.91 968.29 L 889.81 967.48 L 887.73 966.67 L 885.66 965.85 L 883.60 965.02 L 881.55 964.18 L 879.52 963.32 L 877.51 962.46 L 875.51 961.60 L 873.52 960.70 L 871.58 959.74 L 869.60 958.83 L 867.63 957.92 L 865.67 956.99 L 863.68 956.08 L 861.70 955.15 L 859.76 954.15 L 857.84 953.14 L 855.92 952.16 L 854.03 951.16 L 852.21 950.09 L 850.42 948.96 L 848.65 947.83 L 846.89 946.70 L 845.13 945.56 L 843.40 944.38 L 841.59 943.32 L 839.85 942.23 L 838.12 941.16 L 836.40 940.07 L 834.71 938.97 L 833.07 937.82 L 831.40 936.76 L 829.75 935.68 L 828.08 934.65 L 826.43 933.68 L 824.78 932.67 L 823.15 931.65 L 821.53 930.64 L 819.87 929.66" stroke="rgb(140,255,190)" stroke-opacity="0.529" stroke-width="1.11" />
  <path d="M 851.93 967.63 L 849.27 967.38 L 846.62 967.15 L 843.96 966.94 L 841.32 966.81 L 838.69 966.77 L 836.02 966.78 L 833.36 966.76 L 830.71 966.74 L 828.06 966.66 L 825.43 966.60 L 822.80 966.56 L 820.22 966.46 L 817.64 966.42 L 815.12 966.26 L 812.63 966.03 L 810.14 965.74 L 807.67 965.54 L 805.22 965.24 L 802.75 964.99 L 800.31 964.66 L 797.88 964.32 L 795.46 964.02 L 793.04 963.73 L 790.64 963.37 L 788.26 962.93 L 785.89 962.48 L 783.57 961.92 L 781.26 961.37 L 778.97 960.79 L 776.68 960.20 L 774.40 959.60 L 772.14 959.00 L 769.88 958.43" stroke="rgb(140,255,190)" stroke-opacity="0.528" stroke-width="1.10" />
  <path d="M 760.37 950.36 L 757.99 949.56 L 755.67 948.75 L 753.43 947.88 L 751.17 947.05 L 748.92 946.22 L 746.75 945.21 L 744.62 944.14 L 742.50 943.07 L 740.39 942.07 L 738.32 941.04 L 736.34 939.86 L 734.36 938.68 L 732.32 937.60 L 730.26 936.59 L 728.21 935.64 L 726.16 934.71 L 724.13 933.77 L 722.13 932.84 L 720.08 931.85 L 717.99 930.88 L 715.90 929.92 L 713.81 928.96 L 711.67 928.01 L 709.51 927.11 L 707.34 926.30 L 705.25 925.46 L 703.20 924.60 L 701.20 923.71 L 699.21 922.82 L 697.23 921.93 L 695.21 921.02 L 693.16 920.11 L 691.10 919.32 L 689.04 918.52 L 686.99 917.71 L 684.97 916.88 L 682.96 916.01 L 680.96 915.24 L 678.91 914.52 L 676.87 913.69 L 674.89 912.82 L 672.90 912.04 L 670.87 911.31 L 668.87 910.62 L 666.87 909.92 L 664.87 909.39 L 662.81 908.90 L 660.79 908.37 L 658.78 907.78 L 656.76 907.27 L 654.72 906.68 L 652.70 906.05 L 650.68 905.37 L 648.68 904.68 L 646.68 903.99 L 644.69 903.33 L 642.78 902.57 L 640.88 901.86 L 638.99 901.17 L 637.09 900.46 L 635.18 899.73 L 633.22 899.06 L 631.32 898.42 L 629.46 897.83 L 627.59 897.31 L 625.74 896.81 L 623.90 896.29 L 622.02 895.81 L 620.09 895.36 L 618.17 894.92 L 616.29 894.62 L 614.42 894.38 L 612.52 894.19 L 610.62 893.99 L 608.69 893.73 L 606.76 893.47 L 604.85 893.20 L 602.92 892.89 L 601.04 892.44 L 599.17 892.02 L 597.31 891.64 L 595.46 891.26 L 593.63 890.91 L 591.81 890.68 L 590.05 890.45 L 588.32 890.18 L 586.64 889.93 L 584.95 889.67 L 583.31 889.44 L 581.72 889.28 L 580.09 889.11 L 578.47 888.92 L 576.86 888.73 L 575.26 888.52 L 573.64 888.31 L 572.04 888.09 L 570.53 887.87 L 569.05 887.64 L 567.57 887.46 L 566.07 887.29 L 564.58 887.09 L 563.14 886.81" stroke="rgb(140,255,190)" stroke-opacity="0.526" stroke-width="1.10" />
  <path d="M 999.61 1003.59 L 1000.64 1005.89 L 1001.64 1008.20 L 1002.60 1010.52 L 1003.55 1012.83 L 1004.48 1015.13 L 1005.35 1017.44 L 1006.24 1019.75 L 1007.05 1022.07 L 1007.84 1024.39 L 1008.62 1026.70 L 1009.27 1029.03 L 1009.94 1031.35 L 1010.66 1033.62 L 1011.38 1035.89 L 1012.07 1038.16 L 1012.69 1040.46 L 1013.30 1042.74 L 1013.86 1045.04 L 1014.52 1047.31 L 1015.12 1049.58 L 1015.75 1051.84 L 1016.38 1054.08 L 1017.01 1056.31 L 1017.65 1058.53 L 1018.30 1060.74 L 1018.97 1062.94 L 1019.71 1065.09 L 1020.47 1067.24 L 1021.20 1069.38 L 1021.89 1071.54 L 1022.58 1073.67 L 1023.26 1075.81 L 1023.97 1077.91 L 1024.67 1080.01 L 1025.42 1082.09 L 1026.10 1084.18 L 1026.87 1086.25 L 1027.54 1088.33 L 1028.17 1090.43 L 1028.79 1092.51 L 1029.42 1094.59 L 1030.06 1096.65 L 1030.72 1098.69 L 1031.40 1100.72 L 1032.06 1102.75 L 1032.73 1104.76 L 1033.43 1106.76 L 1034.12 1108.75 L 1034.87 1110.72 L 1035.58 1112.68 L 1036.32 1114.63 L 1037.04 1116.58 L 1037.76 1118.52 L 1038.52 1120.43 L 1039.30 1122.33 L 1040.08 1124.22 L 1040.87 1126.09 L 1041.55 1128.00 L 1042.23 1129.90 L 1042.92 1131.79 L 1043.63 1133.66 L 1044.31 1135.53 L 1045.03 1137.39 L 1045.73 1139.24 L 1046.41 1141.08 L 1047.14 1142.90 L 1047.88 1144.71 L 1048.58 1146.52 L 1049.29 1148.33 L 1050.03 1150.11 L 1050.73 1151.90 L 1051.37 1153.71 L 1051.96 1155.52" stroke="rgb(205,165,255)" stroke-opacity="0.465" stroke-width="1.10" />
  <path d="M 998.65 999.19 L 996.08 998.19 L 993.51 997.22 L 990.95 996.32" stroke="rgb(140,255,190)" stroke-opacity="0.523" stroke-width="1.09" />
  <path d="M 1002.50 1000.33 L 1000.04 999.73 L 997.60 999.13 L 995.16 998.55 L 992.74 997.95 L 990.34 997.33 L 987.94 996.73 L 985.55 996.14 L 983.16 995.57 L 980.78 995.05 L 978.40 994.53 L 976.03 994.06 L 973.68 993.55 L 971.35 993.02" stroke="rgb(205,165,255)" stroke-opacity="0.463" stroke-width="1.09" />
  <path d="M 1999.67 1355.73 L 1997.29 1354.13 L 1994.06 1353.58 L 1991.88 1352.65 L 1988.79 1351.30 L 1986.23 1350.16 L 1983.47 1349.82 L 1979.88 1348.32 L 1977.24 1347.14 L 1974.69 1346.00 L 1971.82 1345.61 L 1969.06 1344.51 L 1965.89 1342.85 L 1963.53 1342.66 L 1960.26 1341.25 L 1957.42 1340.05 L 1954.40 1339.28 L 1952.10 1338.15 L 1949.02 1337.46 L 1946.62 1335.92 L 1943.60 1335.22 L 1940.62 1334.31 L 1938.13 1333.31 L 1935.17 1332.05 L 1931.97 1331.19 L 1929.25 1330.27 L 1926.19 1328.95 L 1923.48 1328.12 L 1920.82 1327.05 L 1917.33 1326.47 L 1915.11 1325.33 L 1912.42 1324.02 L 1909.38 1322.95 L 1906.75 1322.25 L 1903.89 1320.99 L 1900.98 1320.16 L 1898.20 1318.94 L 1895.42 1318.19 L 1892.53 1317.51 L 1889.92 1316.34 L 1886.80 1315.01 L 1884.18 1314.58 L 1881.05 1313.52 L 1878.29 1312.06 L 1875.47 1311.03 L 1872.96 1310.19 L 1869.53 1309.01 L 1867.04 1307.58 L 1864.19 1306.90 L 1860.66 1305.87 L 1859.00 1304.79 L 1856.12 1304.13 L 1852.94 1303.02 L 1850.23 1302.12 L 1847.50 1301.24 L 1844.52 1299.91 L 1841.65 1298.94 L 1838.78 1298.04 L 1836.31 1296.68 L 1833.10 1295.86 L 1829.96 1295.47 L 1827.83 1293.67 L 1825.00 1293.12 L 1821.57 1292.07 L 1818.92 1291.08 L 1816.13 1290.13 L 1813.40 1289.13 L 1810.55 1288.11 L 1807.45 1286.99 L 1804.91 1286.09 L 1802.16 1284.96 L 1799.33 1284.55 L 1796.26 1282.74 L 1793.37 1281.94 L 1790.74 1281.16 L 1787.93 1279.72 L 1785.27 1279.07 L 1782.05 1277.73 L 1779.69 1277.41 L 1776.80 1275.95 L 1773.94 1274.80 L 1770.83 1274.07 L 1768.11 1273.04 L 1765.37 1271.92 L 1762.86 1270.98 L 1759.46 1269.87 L 1756.61 1269.11 L 1754.28 1267.80 L 1751.32 1267.02 L 1748.56 1265.71 L 1745.40 1264.95 L 1743.02 1263.73 L 1740.10 1262.71 L 1737.37 1261.98 L 1734.30 1261.01 L 1731.16 1259.93 L 1728.87 1258.66 L 1725.68 1257.80 L 1722.86 1256.97 L 1720.11 1255.96 L 1717.16 1254.95 L 1714.33 1254.13 L 1711.99 1253.45 L 1709.02 1251.76 L 1705.97 1251.12 L 1703.13 1249.99 L 1700.35 1249.06 L 1697.33 1248.07 L 1694.92 1247.29 L 1692.04 1245.87 L 1689.05 1245.14 L 1685.92 1243.89 L 1683.43 1243.24 L 1680.69 1242.36 L 1677.22 1240.60 L 1675.10 1240.00 L 1671.93 1238.64 L 1668.90 1237.62 L 1666.15 1236.82 L 1663.79 1235.92 L 1660.47 1234.35 L 1657.86 1233.71 L 1654.97 1232.74 L 1652.20 1231.89 L 1649.23 1230.33 L 1646.94 1229.31 L 1643.50 1228.94 L 1641.29 1227.41 L 1638.49 1226.94 L 1635.51 1225.64 L 1632.53 1224.84 L 1629.75 1223.78 L 1626.80 1223.02 L 1624.28 1221.64 L 1621.20 1220.43 L 1618.69 1219.59 L 1615.53 1218.61 L 1613.08 1217.61 L 1610.47 1216.93 L 1606.80 1215.76 L 1604.36 1214.73 L 1601.15 1213.69 L 1598.32 1212.50 L 1595.72 1211.63 L 1592.75 1210.76 L 1589.89 1209.75 L 1587.61 1208.75 L 1584.61 1207.47 L 1581.42 1206.83 L 1578.94 1205.86 L 1576.22 1205.23 L 1573.27 1203.95 L 1570.62 1202.46 L 1567.16 1201.77 L 1564.92 1200.30 L 1562.12 1199.78 L 1559.16 1198.77 L 1556.19 1197.57 L 1552.85 1196.76 L 1550.56 1195.56 L 1547.71 1194.40 L 1544.72 1193.88 L 1542.05 1192.93 L 1539.08 1191.38 L 1536.23 1190.84 L 1533.30 1189.61 L 1530.43 1188.58 L 1527.74 1187.68 L 1525.20 1186.48 L 1522.34 1185.52 L 1519.57 1184.19 L 1516.59 1183.83 L 1513.76 1182.48 L 1510.89 1181.36 L 1508.21 1180.86 L 1505.38 1179.80 L 1502.11 1178.59 L 1499.84 1177.47 L 1496.87 1176.56 L 1493.85 1175.57 L 1491.18 1174.44 L 1488.15 1173.57 L 1485.16 1172.74 L 1482.32 1171.57 L 1479.68 1170.74 L 1476.92 1169.83 L 1474.22 1168.58 L 1471.12 1167.50 L 1468.30 1166.21 L 1465.61 1165.61 L 1462.49 1164.82 L 1460.19 1163.82 L 1457.00 1162.65 L 1454.74 1161.37 L 1452.00 1160.70 L 1448.86 1159.23 L 1445.83 1158.87 L 1443.59 1157.67 L 1440.29 1156.64 L 1437.23 1155.49 L 1434.75 1154.87 L 1431.63 1153.65 L 1428.70 1151.82 L 1425.94 1151.67 L 1423.16 1150.39 L 1420.51 1149.89 L 1417.31 1148.33 L 1415.04 1147.46 L 1412.04 1146.30 L 1408.89 1145.42 L 1406.35 1144.37 L 1403.76 1143.20 L 1400.67 1142.64 L 1397.75 1140.88 L 1394.96 1140.75 L 1391.84 1139.07 L 1389.65 1138.48 L 1386.44 1137.21 L 1383.48 1136.29 L 1380.97 1135.69 L 1378.52 1134.52 L 1375.19 1133.32 L 1372.45 1131.84 L 1369.79 1131.28 L 1367.09 1130.87 L 1364.14 1129.64 L 1361.22 1127.99 L 1358.46 1127.35 L 1355.37 1126.26 L 1352.53 1125.57 L 1349.87 1124.37 L 1347.03 1123.16 L 1344.05 1122.29 L 1341.57 1121.20 L 1338.29 1120.48 L 1335.76 1119.05 L 1333.31 1118.34 L 1329.71 1116.94 L 1327.00 1116.19 L 1324.67 1115.58 L 1321.82 1114.36 L 1318.83 1112.96 L 1315.85 1112.21 L 1313.03 1111.08 L 1310.26 1110.34 L 1308.00 1109.47 L 1304.79 1108.10 L 1301.76 1107.78 L 1299.08 1106.01 L 1296.39 1105.44 L 1293.41 1104.05 L 1290.21 1103.44 L 1287.87 1102.23 L 1284.82 1101.43 L 1282.24 1099.97 L 1279.09 1099.06 L 1276.51 1098.03 L 1273.64 1097.16 L 1270.71 1096.12 L 1267.82 1095.29 L 1265.24 1094.37 L 1262.18 1093.24 L 1259.49 1092.27 L 1256.73 1091.33 L 1253.75 1090.44 L 1250.95 1089.26 L 1248.01 1087.66 L 1245.33 1087.03 L 1242.36 1086.59 L 1239.70 1085.25 L 1237.07 1083.92 L 1234.20 1083.02 L 1231.22 1082.46 L 1227.97 1081.57 L 1225.19 1080.11 L 1222.63 1079.06 L 1219.67 1078.22 L 1217.26 1076.94 L 1213.97 1076.21 L 1211.07 1075.30 L 1208.34 1074.29 L 1205.90 1072.78 L 1202.63 1071.87 L 1200.02 1071.44 L 1197.45 1070.06 L 1194.55 1069.03 L 1191.59 1068.26 L 1188.90 1066.91 L 1186.18 1066.17 L 1182.70 1064.84 L 1180.58 1063.98 L 1177.53 1062.87 L 1174.33 1061.74 L 1171.99 1061.46 L 1168.60 1060.13 L 1165.98 1058.88 L 1163.59 1058.35 L 1160.33 1057.00 L 1157.63 1056.43 L 1154.42 1054.97 L 1151.82 1054.07 L 1149.13 1053.36 L 1146.54 1051.78 L 1143.22 1050.72 L 1140.41 1050.07 L 1137.54 1049.31 L 1134.62 1047.88 L 1132.44 1046.81 L 1129.26 1045.97 L 1126.40 1044.86 L 1123.20 1043.80 L 1120.42 1042.94 L 1118.14 1041.90 L 1115.39 1040.82 L 1112.25 1040.26 L 1109.30 1039.05 L 1106.71 1038.07 L 1103.88 1037.24 L 1101.05 1035.83 L 1097.88 1035.01 L 1095.16 1034.28 L 1092.53 1032.94 L 1090.00 1031.90 L 1087.20 1031.03 L 1083.94 1030.08 L 1081.63 1028.97 L 1078.34 1028.10 L 1075.34 1026.47 L 1072.74 1026.05 L 1070.05 1024.96 L 1067.15 1023.54 L 1064.24 1022.47 L 1061.59 1021.75 L 1058.65 1021.08 L 1055.99 1020.26 L 1053.01 1018.91 L 1050.18 1017.78 L 1047.27 1016.57 L 1044.31 1015.94 L 1041.91 1014.48 L 1038.59 1013.22 L 1036.09 1013.08 L 1032.84 1012.10 L 1030.45 1010.74 L 1027.48 1009.93 L 1024.48 1008.69 L 1021.90 1007.50 L 1019.15 1006.75 L 1016.31 1005.87 L 1013.49 1004.71 L 1010.75 1003.74 L 1007.99 1003.16 L 1005.22 1001.71 L 1001.98 1000.42 L 1000.00 1000.00 L 997.18 998.98 L 994.36 997.95 L 991.54 996.94 L 988.71 995.94 L 985.89 994.91 L 983.06 993.91 L 980.24 992.90 L 977.41 991.89 L 974.59 990.88 L 971.77 989.85 L 968.95 988.82 L 966.13 987.81 L 963.31 986.79 L 960.49 985.76 L 957.67 984.73 L 954.85 983.70 L 952.04 982.66 L 949.22 981.62 L 946.41 980.58 L 943.60 979.53 L 940.78 978.50 L 937.98 977.44 L 935.16 976.40 L 932.35 975.35 L 929.54 974.29 L 926.75 973.21 L 923.94 972.15 L 921.13 971.11 L 918.32 970.05 L 915.51 968.99 L 912.71 967.93 L 909.89 966.89 L 907.09 965.82 L 904.29 964.75 L 901.49 963.67 L 898.69 962.58 L 895.89 961.51 L 893.08 960.45 L 890.28 959.38 L 887.47 958.34 L 884.64 957.33 L 881.82 956.30 L 879.00 955.28 L 876.18 954.25 L 873.37 953.21 L 870.55 952.18 L 867.74 951.14 L 864.94 950.07 L 862.14 949.00 L 859.32 947.96 L 856.51 946.91 L 853.70 945.85 L 850.90 944.79 L 848.09 943.74 L 845.28 942.69 L 842.47 941.62 L 839.67 940.55 L 836.88 939.46 L 834.08 938.36 L 831.31 937.23 L 828.53 936.10 L 825.75 934.97 L 822.96 933.86 L 820.18 932.75 L 817.39 931.64 L 814.59 930.57 L 811.79 929.48 L 808.99 928.39 L 806.20 927.31 L 803.40 926.23 L 800.60 925.15 L 797.81 924.06 L 795.01 922.97 L 792.22 921.87 L 789.43 920.76 L 786.63 919.68 L 783.83 918.62 L 781.02 917.55 L 778.21 916.49 L 775.41 915.44 L 772.59 914.39 L 769.78 913.35 L 766.97 912.31 L 764.15 911.27 L 761.35 910.21 L 758.55 909.13 L 755.74 908.06 L 752.93 907.02 L 750.11 905.99 L 747.30 904.95 L 744.49 903.90 L 741.69 902.83 L 738.89 901.76 L 736.08 900.68 L 733.27 899.64 L 730.47 898.57 L 727.67 897.50 L 724.86 896.43 L 722.06 895.36 L 719.25 894.30 L 716.45 893.24 L 713.64 892.18 L 710.84 891.11 L 708.04 890.03 L 705.24 888.95 L 702.44 887.88 L 699.63 886.82 L 696.83 885.76 L 694.02 884.70 L 691.21 883.64 L 688.41 882.58 L 685.61 881.49 L 682.81 880.40 L 680.01 879.33 L 677.20 878.28 L 674.40 877.22 L 671.60 876.14 L 668.80 875.07 L 666.00 873.99 L 663.21 872.89 L 660.41 871.80 L 657.62 870.69 L 654.84 869.57 L 652.06 868.45 L 649.27 867.33 L 646.48 866.23 L 643.69 865.13 L 640.91 864.01 L 638.13 862.88 L 635.35 861.74 L 632.57 860.62 L 629.79 859.50 L 627.00 858.39 L 624.21 857.29 L 621.42 856.20 L 618.63 855.09 L 615.84 853.99 L 613.04 852.90 L 610.24 851.84 L 607.43 850.78 L 604.63 849.70 L 601.83 848.61 L 599.04 847.52 L 596.25 846.41 L 593.47 845.30 L 590.68 844.19 L 587.88 843.12 L 585.08 842.04 L 582.28 840.96 L 579.49 839.86 L 576.70 838.75 L 573.91 837.66 L 571.11 836.57 L 568.32 835.48 L 565.52 834.38 L 562.73 833.30 L 559.92 832.24 L 557.10 831.20 L 554.29 830.16 L 551.48 829.12 L 548.66 828.08 L 545.85 827.04 L 543.04 826.00 L 540.21 824.99 L 537.39 823.98 L 534.56 822.96 L 531.74 821.94 L 528.92 820.93 L 526.09 819.92 L 523.27 818.91 L 520.45 817.89 L 517.63 816.87 L 514.80 815.86 L 511.98 814.84 L 509.16 813.80 L 506.35 812.76 L 503.54 811.70 L 500.74 810.63 L 497.94 809.55 L 495.15 808.47 L 492.34 807.39 L 489.54 806.33 L 486.74 805.25 L 483.94 804.17 L 481.15 803.07 L 478.36 801.97 L 475.56 800.89 L 472.77 799.80 L 469.98 798.69 L 467.19 797.58 L 464.40 796.49 L 461.60 795.40 L 458.80 794.33 L 455.98 793.29 L 453.17 792.25 L 450.35 791.23 L 447.53 790.19 L 444.72 789.14 L 441.91 788.11 L 439.09 787.08 L 436.27 786.05 L 433.46 785.02 L 430.64 783.98 L 427.83 782.94 L 425.01 781.89 L 422.21 780.83 L 419.40 779.77 L 416.59 778.72 L 413.79 777.65 L 410.98 776.61 L 408.17 775.56 L 405.36 774.50 L 402.55 773.44 L 399.74 772.39 L 396.93 771.33 L 394.13 770.28 L 391.31 769.24 L 388.49 768.24 L 385.66 767.22 L 382.84 766.21 L 380.02 765.17 L 377.21 764.14 L 374.39 763.10 L 371.57 762.07 L 368.76 761.03 L 365.94 760.02 L 363.11 759.01 L 360.28 758.02 L 357.45 757.01 L 354.63 755.99 L 351.81 754.97 L 348.98 753.96 L 346.15 752.99 L 343.31 752.00 L 340.48 751.03 L 337.65 750.02 L 334.82 749.03 L 331.99 748.02 L 329.16 747.03 L 326.33 746.05 L 323.50 745.06 L 320.66 744.09 L 317.82 743.12 L 314.99 742.12 L 312.16 741.12 L 309.35 740.07 L 306.53 739.04 L 303.72 738.00 L 300.91 736.95 L 298.10 735.89 L 295.29 734.84 L 292.48 733.80 L 289.67 732.75 L 286.86 731.69 L 284.05 730.63 L 281.25 729.57 L 278.44 728.51 L 275.63 727.45 L 272.83 726.38 L 270.04 725.28 L 267.26 724.16 L 264.47 723.05 L 261.68 721.94 L 258.90 720.82 L 256.12 719.69 L 253.33 718.58 L 250.55 717.47 L 247.77 716.35 L 244.99 715.20 L 242.21 714.07 L 239.43 712.95 L 236.64 711.84 L 233.87 710.71 L 231.08 709.59 L 228.29 708.50 L 225.50 707.38 L 222.72 706.27 L 219.93 705.17 L 217.14 704.05 L 214.36 702.92 L 211.59 701.79 L 208.81 700.66 L 206.04 699.51 L 203.27 698.36 L 200.50 697.20 L 197.73 696.05 L 194.95 694.91 L 192.17 693.78 L 189.39 692.67 L 186.60 691.55 L 183.82 690.42 L 181.04 689.29 L 178.26 688.16 L 175.48 687.03 L 172.69 685.93 L 169.90 684.84 L 167.10 683.75 L 164.30 682.68 L 161.51 681.59 L 158.70 680.52 L 155.90 679.44 L 153.11 678.35 L 150.32 677.26 L 147.53 676.16 L 144.73 675.07 L 141.94 673.97 L 139.14 672.89 L 136.34 671.80 L 133.55 670.71 L 130.75 669.62 L 127.96 668.53 L 125.17 667.42 L 122.39 666.30 L 119.61 665.16 L 116.84 664.03 L 114.05 662.92 L 111.26 661.80 L 108.48 660.68 L 105.70 659.55 L 102.93 658.41 L 100.15 657.27 L 97.37 656.15 L 94.59 655.03 L 91.80 653.91 L 89.02 652.80 L 86.23 651.70 L 83.44 650.60 L 80.63 649.53 L 77.83 648.46 L 75.03 647.37 L 72.24 646.28 L 69.45 645.19 L 66.65 644.09 L 63.86 642.99 L 61.06 641.91 L 58.26 640.84 L 55.46 639.76 L 52.66 638.70 L 49.86 637.61 L 47.06 636.55 L 44.25 635.47 L 41.46 634.39 L 38.66 633.30 L 35.86 632.21 L 33.07 631.12 L 30.27 630.05 L 27.46 628.99 L 24.66 627.93 L 21.84 626.89 L 19.02 625.87 L 16.20 624.84 L 13.38 623.81 L 10.57 622.77 L 7.76 621.72 L 4.95 620.68 L 2.13 619.66 L -0.69 618.63 L -3.52 617.63 L -6.34 616.61 L -9.16 615.58 L -11.98 614.57 L -14.80 613.54 L -17.62 612.51 L -20.43 611.46" stroke="rgb(245,245,245)" stroke-opacity="0.696" stroke-width="1.08" />
  <path d="M 1005.25 999.17 L 1005.20 998.10 L 1005.08 997.03 L 1004.95 996.09 L 1004.77 995.24 L 1004.63 994.38" stroke="rgb(230,230,230)" stroke-opacity="0.378" stroke-width="0.69" />
  <path d="M 999.49 1003.44 L 999.38 1003.03 L 999.36 1002.67 L 999.42 1002.22 L 999.56 1001.86 L 999.88 1001.75 L 1000.47 1001.45 L 1001.07 1001.17 L 1001.43 1000.85 L 1001.80 1000.45 L 1002.08 999.82 L 1002.40 999.11 L 1002.86 998.67 L 1003.34 998.21 L 1003.82 997.71 L 1004.30 997.25" stroke="rgb(230,230,230)" stroke-opacity="0.376" stroke-width="0.68" />
  <path d="M 1002.82 998.91 L 1002.09 998.73 L 1001.36 998.60 L 1000.59 998.47 L 999.58 998.38 L 998.60 998.57 L 997.61 999.00" stroke="rgb(230,230,230)" stroke-opacity="0.375" stroke-width="0.68" />
  <path d="M 1003.02 996.70 L 1002.90 995.97 L 1002.70 995.19 L 1002.51 994.40 L 1002.38 993.70 L 1002.26 992.97 L 1002.18 992.26" stroke="rgb(230,230,230)" stroke-opacity="0.375" stroke-width="0.68" />
  <path d="M 1004.34 1000.62 L 1003.07 1001.35 L 1001.81 1002.08 L 1000.53 1002.78 L 999.25 1003.48" stroke="rgb(230,230,230)" stroke-opacity="0.374" stroke-width="0.68" />
  <path d="M 998.63 1000.23 L 997.60 1001.21 L 996.58 1002.15 L 995.57 1003.00 L 994.70 1004.07 L 993.86 1005.11" stroke="rgb(230,230,230)" stroke-opacity="0.373" stroke-width="0.68" />
  <path d="M 997.07 996.45 L 995.64 996.07 L 994.21 995.70 L 992.80 995.26 L 991.42 994.76 L 990.03 994.27 L 988.65 993.87 L 987.30 993.49 L 986.05 992.76" stroke="rgb(230,230,230)" stroke-opacity="0.369" stroke-width="0.66" />
  <path d="M 996.64 999.54 L 997.22 1000.36 L 997.80 1001.18 L 998.37 1002.04 L 998.98 1002.98 L 999.50 1003.94 L 999.98 1004.83 L 1000.14 1005.70" stroke="rgb(230,230,230)" stroke-opacity="0.367" stroke-width="0.66" />
  <path d="M 993.95 1001.33 L 994.36 1002.25 L 994.87 1003.03 L 995.26 1003.71 L 995.64 1004.36 L 996.02 1005.00 L 996.41 1005.64 L 996.73 1006.28" stroke="rgb(230,230,230)" stroke-opacity="0.365" stroke-width="0.65" />
  <path d="M 999.47 996.68 L 998.56 995.50 L 997.64 994.32 L 996.58 993.29" stroke="rgb(230,230,230)" stroke-opacity="0.359" stroke-width="0.64" />
  <path d="M 1005.16 997.60 L 1003.91 997.20 L 1002.68 996.63 L 1001.54 995.98 L 1000.39 995.40 L 999.22 994.86 L 997.99 994.26 L 996.80 993.66 L 995.60 993.06 L 994.48 992.41 L 993.44 991.90 L 992.42 991.38 L 991.29 991.00 L 990.31 990.73 L 989.30 990.63" stroke="rgb(230,230,230)" stroke-opacity="0.357" stroke-width="0.63" />
  <path d="M 1004.29 1002.69 L 1003.59 1003.50 L 1002.88 1004.29 L 1002.43 1005.33 L 1002.08 1006.33 L 1001.91 1007.37 L 1001.69 1008.47 L 1001.47 1009.59 L 1001.25 1010.71 L 1000.87 1011.86 L 1000.49 1013.01 L 1000.09 1014.18" stroke="rgb(230,230,230)" stroke-opacity="0.357" stroke-width="0.63" />
  <path d="M 999.87 995.81 L 1000.97 995.50 L 1002.00 994.94 L 1003.03 994.44 L 1003.85 993.62 L 1004.69 992.83 L 1005.59 992.05" stroke="rgb(230,230,230)" stroke-opacity="0.356" stroke-width="0.63" />
  <path d="M 997.69 1000.45 L 999.00 999.92 L 1000.30 999.40 L 1001.54 998.71 L 1002.79 998.02 L 1004.04 997.32 L 1005.28 996.61 L 1006.45 995.90 L 1007.68 995.28 L 1008.90 994.66 L 1010.10 994.01 L 1011.32 993.42" stroke="rgb(230,230,230)" stroke-opacity="0.354" stroke-width="0.62" />
  <path d="M 1003.32 994.70 L 1002.52 993.73 L 1001.71 992.80" stroke="rgb(230,230,230)" stroke-opacity="0.352" stroke-width="0.62" />
  <path d="M 1001.43 999.57 L 1000.43 998.71 L 999.45 997.85 L 998.57 996.97 L 997.65 996.10 L 996.72 995.26 L 995.95 994.40" stroke="rgb(230,230,230)" stroke-opacity="0.352" stroke-width="0.62" />
  <path d="M 998.66 1003.03 L 998.38 1002.03 L 998.25 1001.00 L 998.07 999.92" stroke="rgb(230,230,230)" stroke-opacity="0.351" stroke-width="0.61" />
  <path d="M 999.09 1000.75 L 998.87 1001.33 L 998.60 1001.91 L 998.41 1002.45 L 998.19 1003.02 L 998.01 1003.56 L 997.83 1004.03 L 997.63 1004.50 L 997.37 1005.00 L 997.06 1005.42 L 996.56 1005.79" stroke="rgb(230,230,230)" stroke-opacity="0.350" stroke-width="0.61" />
</g>
</svg>
