<?xml version="1.0" encoding="UTF-8"?>
<svg xmlns="http://www.w3.org/2000/svg" width="2000" height="2000" viewBox="0 0 2000 2000">
<g fill="none" stroke-linecap="round" stroke-linejoin="round">
  <path d="M 999.71 1003.43 L 996.54 1003.46 L 993.39 1003.54 L 990.25 1003.63 L 987.12 1003.72 L 984.00 1003.90 L 980.90 1004.09 L 977.81 1004.27 L 974.74 1004.45 L 971.68 1004.60 L 968.63 1004.80 L 965.59 1005.00 L 962.56 1005.21 L 959.55 1005.45 L 956.55 1005.65 L 953.56 1005.86 L 950.59 1006.09 L 947.62 1006.32 L 944.67 1006.57 L 941.74 1006.82 L 938.81 1007.01 L 935.89 1007.22 L 932.98 1007.42 L 930.09 1007.61 L 927.20 1007.80 L 924.34 1008.04 L 921.48 1008.26 L 918.63 1008.46 L 915.80 1008.73 L 912.98 1008.94 L 910.16 1009.12 L 907.36 1009.30 L 904.57 1009.47 L 901.80 1009.75 L 899.04 1010.02 L 896.30 1010.26 L 893.56 1010.51 L 890.83 1010.76 L 888.12 1011.07 L 885.42 1011.34 L 882.72 1011.62 L 880.04 1011.87 L 877.36 1012.14 L 874.70 1012.40 L 872.05 1012.66 L 869.41 1012.91" stroke="rgb(120,210,255)" stroke-opacity="0.854" stroke-width="1.64" />
  <path d="M 840.17 991.67 L 836.92 991.65 L 833.68 991.65 L 830.45 991.64 L 827.24 991.62 L 824.04 991.61 L 820.88 991.63 L 817.69 991.58 L 814.51 991.52 L 811.33 991.58 L 808.17 991.63 L 805.02 991.80 L 801.89 992.01 L 798.77 992.21 L 795.66 992.46 L 792.56 992.70 L 789.48 992.95 L 786.41 993.19 L 783.35 993.43 L 780.30 993.58 L 777.27 993.73 L 774.26 993.90 L 771.26 994.01 L 768.27 994.11 L 765.28 994.21" stroke="rgb(120,210,255)" stroke-opacity="0.849" stroke-width="1.62" />
  <path d="M 997.89 1000.80 L 994.53 1000.80 L 991.18 1000.82 L 987.84 1000.75 L 984.52 1000.65 L 981.21 1000.53 L 977.91 1000.43 L 974.63 1000.32 L 971.36 1000.23 L 968.11 1000.11 L 964.87 999.91 L 961.66 999.64 L 958.45 999.37 L 955.26 999.10 L 952.08 998.83 L 948.91 998.60 L 945.75 998.38 L 942.60 998.15 L 939.47 997.94 L 936.35 997.77 L 933.25 997.59 L 930.15 997.41 L 927.07 997.21 L 924.00 997.09 L 920.94 996.97 L 917.90 996.86 L 914.87 996.68 L 911.85 996.53 L 908.84 996.37 L 905.85 996.23 L 902.86 996.09 L 899.89 995.99 L 896.93 995.82 L 893.99 995.65 L 891.05 995.47 L 888.13 995.28 L 885.22 995.07 L 882.32 994.86 L 879.43 994.65 L 876.55 994.47 L 873.68 994.27 L 870.83 994.07 L 867.99 993.84 L 865.16 993.61 L 862.33 993.40 L 859.53 993.19 L 856.73 992.96 L 853.94 992.74 L 851.17 992.51 L 848.40 992.27 L 845.65 992.04 L 842.90 991.86 L 840.17 991.67 L 837.45 991.46 L 834.74 991.27 L 832.04 991.07 L 829.35 990.86 L 826.67 990.67 L 823.99 990.52 L 821.33 990.38 L 818.68 990.23 L 816.04 990.06 L 813.41 989.88 L 810.80 989.69 L 808.19 989.49 L 805.60 989.30 L 803.02 989.11 L 800.44 988.93 L 797.88 988.75 L 795.32 988.58 L 792.78 988.41 L 790.24 988.23 L 787.72 988.05 L 785.21 987.87 L 782.71 987.68 L 780.22 987.53" stroke="rgb(120,210,255)" stroke-opacity="0.848" stroke-width="1.62" />
  <path d="M 1000.75 1001.95 L 997.58 1002.22 L 994.42 1002.52 L 991.27 1002.77 L 988.14 1003.07 L 985.01 1003.34 L 981.90 1003.54 L 978.80 1003.73 L 975.71 1003.94 L 972.63 1004.17 L 969.57 1004.34 L 966.51 1004.53 L 963.47 1004.69 L 960.44 1004.90 L 957.42 1005.01 L 954.42 1005.15 L 951.43 1005.36 L 948.46 1005.58 L 945.49 1005.80 L 942.54 1006.01 L 939.60 1006.23 L 936.66 1006.43 L 933.74 1006.63 L 930.83 1006.85 L 927.93 1007.05 L 925.04 1007.21 L 922.17 1007.35" stroke="rgb(120,210,255)" stroke-opacity="0.847" stroke-width="1.61" />
  <path d="M 1001.99 1000.18 L 999.09 1000.18 L 996.21 1000.18 L 993.34 1000.18 L 990.48 1000.12 L 987.63 1000.05 L 984.79 999.98 L 981.96 999.92 L 979.14 999.87 L 976.34 999.71 L 973.55 999.57 L 970.77 999.40 L 968.00 999.27 L 965.24 999.19 L 962.49 999.11 L 959.75 998.98 L 957.03 998.80 L 954.32 998.61 L 951.62 998.47 L 948.93 998.33 L 946.25 998.26 L 943.59 998.16 L 940.93 998.08 L 938.28 998.01 L 935.64 997.95 L 933.02 997.91 L 930.40 997.92 L 927.79 997.98 L 925.20 998.03 L 922.61 998.11 L 920.03 998.21 L 917.47 998.31 L 914.91 998.37 L 912.36 998.38 L 909.82 998.37 L 907.30 998.36 L 904.78 998.43 L 902.27 998.49 L 899.78 998.57" stroke="rgb(120,210,255)" stroke-opacity="0.461" stroke-width="1.59" />
  <path d="M 945.75 998.38 L 942.85 997.99 L 939.97 997.63 L 937.09 997.40 L 934.20 997.30 L 931.32 997.22 L 928.47 997.12 L 925.63 997.01 L 922.81 996.90 L 920.01 996.72 L 917.23 996.54 L 914.45 996.32 L 911.69 996.09 L 908.93 995.95 L 906.19 995.80 L 903.46 995.66 L 900.73 995.50 L 898.01 995.32 L 895.31 995.23 L 892.62 995.14 L 889.96 995.03 L 887.31 994.98 L 884.67 994.94 L 882.04 994.94 L 879.43 995.02 L 876.83 995.12 L 874.26 995.32 L 871.70 995.56 L 869.18 995.88 L 866.67 996.27 L 864.18 996.63 L 861.72 997.00 L 859.26 997.39" stroke="rgb(120,210,255)" stroke-opacity="0.461" stroke-width="1.59" />
  <path d="M 1001.09 999.69 L 998.19 999.70 L 995.29 999.63 L 992.41 999.57 L 989.55 999.47 L 986.69 999.38 L 983.86 999.16 L 981.04 998.89 L 978.24 998.60 L 975.45 998.31 L 972.68 997.92 L 969.91 997.69 L 967.14 997.46 L 964.40 997.21 L 961.67 997.06 L 958.94 996.99 L 956.22 996.90 L 953.50 996.87 L 950.80 996.82 L 948.10 996.79 L 945.41 996.75 L 942.73 996.74 L 940.07 996.70 L 937.41 996.70 L 934.76 996.72 L 932.12 996.72 L 929.50 996.73 L 926.89 996.74 L 924.29 996.77 L 921.70 996.77 L 919.12 996.83 L 916.56 996.94 L 914.00 997.03 L 911.45 997.09 L 908.91 997.20 L 906.38 997.30 L 903.86 997.40 L 901.36 997.43 L 898.87 997.48 L 896.40 997.53 L 893.93 997.53 L 891.46 997.52 L 889.01 997.48" stroke="rgb(120,210,255)" stroke-opacity="0.460" stroke-width="1.58" />
  <path d="M 997.90 997.03 L 995.10 997.12 L 992.31 997.18 L 989.53 997.22 L 986.77 997.22 L 984.03 997.24" stroke="rgb(120,210,255)" stroke-opacity="0.454" stroke-width="1.55" />
  <path d="M 996.93 999.30 L 993.63 999.53 L 990.35 999.81 L 987.08 1000.08 L 983.82 1000.38 L 980.57 1000.67 L 977.34 1000.99 L 974.12 1001.24 L 970.91 1001.48 L 967.70 1001.69" stroke="rgb(205,165,255)" stroke-opacity="0.705" stroke-width="1.20" />
  <path d="M 787.70 1059.38 L 784.91 1061.24 L 782.15 1063.13 L 779.41 1065.02 L 776.73 1066.96 L 774.06 1068.91 L 771.38 1070.84 L 768.70 1072.74 L 766.02 1074.62 L 763.35 1076.48 L 760.69 1078.32 L 758.03 1080.14 L 755.38 1081.95 L 752.74 1083.73 L 750.11 1085.50 L 747.51 1087.28 L 744.91 1089.05 L 742.34 1090.83 L 739.73 1092.55 L 737.17 1094.34 L 734.59 1096.06 L 732.00 1097.76 L 729.37 1099.35 L 726.76 1100.93 L 724.13 1102.49 L 721.57 1104.13 L 719.03 1105.78 L 716.47 1107.38 L 713.88 1108.92 L 711.32 1110.49 L 708.78 1112.07 L 706.24 1113.63 L 703.71 1115.20 L 701.18 1116.74 L 698.62 1118.22 L 696.06 1119.69 L 693.52 1121.18 L 690.98 1122.63 L 688.41 1124.02 L 685.86 1125.41 L 683.33 1126.80 L 680.81 1128.19 L 678.31 1129.58 L 675.82 1130.96 L 673.33 1132.33 L 670.84 1133.68 L 668.36 1135.02 L 665.84 1136.26 L 663.33 1137.48 L 660.84 1138.72 L 658.38 1139.97 L 655.93 1141.21 L 653.49 1142.44 L 651.03 1143.61 L 648.59 1144.78 L 646.16 1145.98" stroke="rgb(140,255,190)" stroke-opacity="0.738" stroke-width="1.19" />
  <path d="M 855.81 1025.66 L 853.06 1027.26 L 850.26 1028.76 L 847.49 1030.25 L 844.74 1031.72 L 842.00 1033.18 L 839.26 1034.64 L 836.56 1036.08 L 833.89 1037.59 L 831.20 1039.04 L 828.49 1040.45 L 825.81 1041.92 L 823.13 1043.37 L 820.48 1044.86 L 817.86 1046.35 L 815.30 1047.90 L 812.74 1049.47 L 810.20 1051.01 L 807.67 1052.55 L 805.14 1054.08 L 802.63 1055.57 L 800.11 1057.05 L 797.62 1058.56 L 795.14 1060.07 L 792.65 1061.57 L 790.17 1063.06 L 787.75 1064.59 L 785.35 1066.14 L 782.90 1067.62 L 780.46 1069.07 L 777.99 1070.48 L 775.53 1071.87 L 773.05 1073.22 L 770.55 1074.51 L 768.08 1075.80 L 765.62 1077.09 L 763.20 1078.43 L 760.80 1079.74 L 758.43 1081.12 L 756.01 1082.43 L 753.57 1083.72 L 751.12 1085.01 L 748.70 1086.33 L 746.30 1087.70 L 743.89 1089.03 L 741.49 1090.38 L 739.08 1091.69 L 736.68 1092.99 L 734.27 1094.25 L 731.87 1095.51 L 729.48 1096.76" stroke="rgb(140,255,190)" stroke-opacity="0.737" stroke-width="1.19" />
  <path d="M 1000.82 999.66 L 997.35 999.90 L 993.91 1000.14 L 990.47 1000.39 L 987.06 1000.66 L 983.65 1000.93 L 980.25 1001.25 L 976.88 1001.55 L 973.51 1001.85 L 970.16 1002.15 L 966.82 1002.44 L 963.50 1002.80 L 960.20 1003.19 L 956.92 1003.60 L 953.64 1003.97 L 950.37 1004.34 L 947.12 1004.70 L 943.87 1005.05 L 940.65 1005.40 L 937.43 1005.77 L 934.23 1006.14 L 931.04 1006.50 L 927.87 1006.86 L 924.71 1007.23 L 921.56 1007.64 L 918.43 1008.04 L 915.31 1008.41 L 912.20 1008.78 L 909.11 1009.13 L 906.02 1009.48 L 902.95 1009.80 L 899.89 1010.12 L 896.84 1010.44 L 893.80 1010.77 L 890.78 1011.08 L 887.77 1011.43 L 884.77 1011.77 L 881.79 1012.11 L 878.81 1012.44 L 875.84 1012.75 L 872.88 1013.07 L 869.93 1013.38 L 866.99 1013.68 L 864.06 1013.99 L 861.15 1014.32 L 858.25 1014.64 L 855.36 1014.97 L 852.48 1015.30 L 849.61 1015.60 L 846.75 1015.91 L 843.90 1016.26" stroke="rgb(140,255,190)" stroke-opacity="0.737" stroke-width="1.19" />
  <path d="M 998.61 1001.25 L 995.33 1001.94 L 992.07 1002.67 L 988.81 1003.38 L 985.58 1004.10 L 982.33 1004.73 L 979.11 1005.37 L 975.89 1005.99 L 972.69 1006.63 L 969.51 1007.30 L 966.34 1007.98 L 963.19 1008.64 L 960.05 1009.31 L 956.91 1009.96 L 953.80 1010.61 L 950.69 1011.25 L 947.59 1011.88 L 944.50 1012.49 L 941.42 1013.06 L 938.34 1013.59 L 935.28 1014.12 L 932.23 1014.65 L 929.19 1015.18 L 926.16 1015.72 L 923.15 1016.28 L 920.16 1016.86 L 917.18 1017.42 L 914.21 1017.98 L 911.24 1018.51 L 908.28 1018.98 L 905.33 1019.46" stroke="rgb(140,255,190)" stroke-opacity="0.735" stroke-width="1.18" />
  <path d="M 917.18 1017.42 L 914.03 1018.64 L 910.87 1019.82 L 907.73 1021.01 L 904.59 1022.16 L 901.49 1023.34 L 898.39 1024.47 L 895.28 1025.54 L 892.17 1026.59 L 889.07 1027.62 L 885.98 1028.65 L 882.92 1029.69 L 879.86 1030.72 L 876.81 1031.72 L 873.77 1032.72 L 870.74 1033.71 L 867.72 1034.70 L 864.72 1035.68 L 861.72 1036.66 L 858.76 1037.62 L 855.81 1038.61 L 852.84 1039.53 L 849.90 1040.44 L 846.98 1041.37 L 844.08 1042.32 L 841.19 1043.25 L 838.30 1044.21 L 835.45 1045.17 L 832.57 1046.06 L 829.70 1046.91 L 826.84 1047.76 L 823.99 1048.64 L 821.15 1049.51 L 818.33 1050.38 L 815.51 1051.25 L 812.69 1052.08 L 809.88 1052.90 L 807.08 1053.72 L 804.28 1054.51 L 801.49 1055.31 L 798.71 1056.10 L 795.94 1056.90 L 793.19 1057.74 L 790.43 1058.54 L 787.70 1059.38 L 784.99 1060.23 L 782.29 1061.12 L 779.62 1062.05 L 776.93 1062.90 L 774.29 1063.85 L 771.66 1064.76 L 769.04 1065.68 L 766.42 1066.59 L 763.83 1067.51 L 761.24 1068.44 L 758.67 1069.36 L 756.12 1070.30 L 753.56 1071.22 L 751.01 1072.13 L 748.47 1073.07 L 745.94 1074.00 L 743.42 1074.92 L 740.91 1075.82 L 738.41 1076.72 L 735.92 1077.62 L 733.45 1078.52 L 730.99 1079.44 L 728.54 1080.38 L 726.10 1081.31 L 723.68 1082.26 L 721.27 1083.20 L 718.90 1084.16 L 716.53 1085.11 L 714.18 1086.09 L 711.84 1087.05 L 709.51 1088.01 L 707.17 1088.93 L 704.84 1089.85 L 702.51 1090.75 L 700.20 1091.65 L 697.91 1092.54 L 695.64 1093.45 L 693.39 1094.39 L 691.15 1095.35 L 688.94 1096.32" stroke="rgb(140,255,190)" stroke-opacity="0.735" stroke-width="1.18" />
  <path d="M 997.86 999.65 L 994.50 999.64 L 991.16 999.63 L 987.82 999.63 L 984.50 999.64 L 981.19 999.62 L 977.90 999.64 L 974.61 999.66 L 971.34 999.61 L 968.09 999.50 L 964.84 999.36 L 961.61 999.22 L 958.40 999.05 L 955.19 998.86 L 952.00 998.66 L 948.82 998.47 L 945.66 998.23 L 942.51 997.97 L 939.38 997.66 L 936.27 997.30 L 933.17 996.97 L 930.08 996.63 L 927.01 996.28 L 923.95 995.92 L 920.90 995.64" stroke="rgb(140,255,190)" stroke-opacity="0.731" stroke-width="1.17" />
  <path d="M 889.07 1019.49 L 885.92 1020.58 L 882.78 1021.64 L 879.64 1022.68 L 876.56 1023.84 L 873.52 1025.05 L 870.49 1026.26 L 867.46 1027.46 L 864.46 1028.68 L 861.47 1029.88 L 858.47 1031.04 L 855.48 1032.18 L 852.51 1033.32 L 849.55 1034.47 L 846.59 1035.56 L 843.65 1036.66 L 840.72 1037.75 L 837.81 1038.78 L 834.89 1039.79 L 831.99 1040.76 L 829.09 1041.73 L 826.21 1042.70 L 823.36 1043.69 L 820.51 1044.66 L 817.69 1045.65 L 814.89 1046.63 L 812.09 1047.53 L 809.29 1048.38 L 806.49 1049.21 L 803.70 1050.01 L 800.94 1050.84 L 798.20 1051.68 L 795.48 1052.52 L 792.77 1053.39 L 790.08 1054.28 L 787.42 1055.22 L 784.75 1056.09 L 782.08 1056.93 L 779.38 1057.74 L 776.70 1058.52 L 774.05 1059.35 L 771.42 1060.19 L 768.80 1061.10 L 766.20 1062.02 L 763.61 1062.98" stroke="rgb(140,255,190)" stroke-opacity="0.730" stroke-width="1.17" />
  <path d="M 941.42 1013.06 L 938.22 1012.27 L 935.02 1011.57 L 931.83 1010.88 L 928.64 1010.19 L 925.48 1009.51 L 922.33 1008.78 L 919.20 1008.03 L 916.08 1007.30 L 912.97 1006.59 L 909.87 1005.88 L 906.79 1005.17 L 903.73 1004.42 L 900.68 1003.68 L 897.64 1002.93 L 894.62 1002.19 L 891.62 1001.40 L 888.64 1000.59 L 885.67 999.78 L 882.71 998.98 L 879.77 998.17 L 876.83 997.39 L 873.89 996.64 L 870.98 995.88 L 868.07 995.13 L 865.19 994.33 L 862.32 993.54 L 859.46 992.76 L 856.62 991.99 L 853.78 991.24 L 850.95 990.53 L 848.11 989.87 L 845.29 989.20 L 842.50 988.45 L 839.71 987.76 L 836.93 987.05 L 834.16 986.36 L 831.40 985.64 L 828.66 984.91 L 825.94 984.13 L 823.24 983.35 L 820.55 982.55 L 817.90 981.68 L 815.25 980.82 L 812.60 980.02 L 809.97 979.22 L 807.34 978.41 L 804.73 977.60 L 802.13 976.80 L 799.54 975.99 L 796.97 975.15 L 794.43 974.26 L 791.90 973.39 L 789.36 972.57 L 786.83 971.79 L 784.31 971.02 L 781.78 970.31 L 779.27 969.61 L 776.77 968.93 L 774.27 968.25" stroke="rgb(140,255,190)" stroke-opacity="0.729" stroke-width="1.17" />
  <path d="M 841.29 1046.84 L 838.67 1048.77 L 836.12 1050.75 L 833.57 1052.73 L 831.04 1054.69 L 828.51 1056.64 L 825.96 1058.56 L 823.47 1060.52 L 820.98 1062.49 L 818.50 1064.44 L 816.03 1066.39 L 813.56 1068.33 L 811.13 1070.27 L 808.69 1072.18 L 806.28 1074.10 L 803.87 1076.00 L 801.47 1077.88 L 799.08 1079.76 L 796.70 1081.64 L 794.40 1083.59 L 792.08 1085.52 L 789.73 1087.40 L 787.35 1089.21 L 784.91 1090.92 L 782.47 1092.62 L 780.00 1094.26 L 777.55 1095.91 L 775.11 1097.56 L 772.65 1099.16 L 770.23 1100.81 L 767.81 1102.46 L 765.36 1104.06 L 762.92 1105.65 L 760.51 1107.29 L 758.11 1108.93 L 755.72 1110.55 L 753.35 1112.19 L 750.99 1113.82 L 748.65 1115.46 L 746.34 1117.13 L 744.05 1118.81 L 741.83 1120.55 L 739.62 1122.29 L 737.42 1124.03 L 735.28 1125.82 L 733.19 1127.64 L 731.07 1129.42 L 728.98 1131.22 L 726.91 1133.02 L 724.83 1134.79 L 722.76 1136.55 L 720.69 1138.31 L 718.63 1140.05 L 716.62 1141.84 L 714.61 1143.62 L 712.61 1145.38 L 710.64 1147.16 L 708.66 1148.93 L 706.70 1150.70 L 704.75 1152.46 L 702.73 1154.14 L 700.72 1155.80 L 698.72 1157.45 L 696.72 1159.09 L 694.78 1160.79 L 692.83 1162.45 L 690.92 1164.15 L 689.05 1165.87 L 687.19 1167.58 L 685.33 1169.28 L 683.49 1170.99 L 681.71 1172.74 L 679.94 1174.50 L 678.16 1176.22 L 676.39 1177.94 L 674.61 1179.63 L 672.85 1181.33 L 671.08 1183.01 L 669.28 1184.66 L 667.54 1186.35 L 665.80 1188.03 L 664.08 1189.71 L 662.40 1191.40 L 660.73 1193.10 L 659.06 1194.79 L 657.37 1196.44 L 655.69 1198.09" stroke="rgb(140,255,190)" stroke-opacity="0.728" stroke-width="1.16" />
  <path d="M 1000.88 997.84 L 997.64 998.09 L 994.42 998.32 L 991.20 998.55 L 988.01 998.87 L 984.84 999.21 L 981.67 999.53 L 978.52 999.85 L 975.38 1000.18 L 972.25 1000.53 L 969.14 1000.88 L 966.04 1001.18 L 962.96 1001.46 L 959.89 1001.78 L 956.82 1001.98 L 953.76 1002.18 L 950.72 1002.42 L 947.70 1002.71 L 944.69 1003.00 L 941.70 1003.34 L 938.71 1003.65 L 935.74 1003.97 L 932.78 1004.29 L 929.83 1004.68 L 926.90 1005.06 L 923.98 1005.43 L 921.09 1005.87 L 918.20 1006.30 L 915.31 1006.66 L 912.43 1007.04 L 909.58 1007.46 L 906.73 1007.86 L 903.89 1008.24 L 901.06 1008.60 L 898.24 1008.98 L 895.44 1009.34 L 892.64 1009.67 L 889.86 1010.01 L 887.08 1010.33 L 884.32 1010.63 L 881.57 1010.94 L 878.83 1011.27 L 876.11 1011.58 L 873.38 1011.82 L 870.67 1012.04 L 867.97 1012.28 L 865.29 1012.51 L 862.60 1012.66 L 859.93 1012.88 L 857.27 1013.09 L 854.62 1013.31 L 851.98 1013.54 L 849.36 1013.77 L 846.73 1013.95 L 844.13 1014.17 L 841.53 1014.41 L 838.95 1014.60 L 836.37 1014.76 L 833.80 1014.91 L 831.24 1015.05 L 828.69 1015.19 L 826.15 1015.31 L 823.62 1015.43 L 821.10 1015.55 L 818.60 1015.70 L 816.10 1015.83 L 813.62 1015.97" stroke="rgb(140,255,190)" stroke-opacity="0.726" stroke-width="1.16" />
  <path d="M 1000.73 1000.29 L 997.46 1000.34 L 994.20 1000.39 L 990.95 1000.46 L 987.72 1000.51 L 984.50 1000.56 L 981.30 1000.60 L 978.11 1000.67 L 974.94 1000.80 L 971.78 1000.96 L 968.63 1001.12 L 965.49 1001.25 L 962.37 1001.40 L 959.27 1001.57 L 956.19 1001.77 L 953.11 1001.95 L 950.06 1002.14 L 947.00 1002.33 L 943.96 1002.48 L 940.92 1002.61 L 937.90 1002.76 L 934.90 1002.93 L 931.90 1003.07 L 928.92 1003.21 L 925.94 1003.31 L 922.98 1003.39 L 920.02 1003.45 L 917.07 1003.52 L 914.14 1003.59 L 911.22 1003.68 L 908.30 1003.74 L 905.40 1003.82 L 902.52 1003.93 L 899.64 1004.01 L 896.77 1004.07 L 893.92 1004.15 L 891.08 1004.26 L 888.25 1004.35 L 885.43 1004.44 L 882.62 1004.54 L 879.82 1004.62 L 877.03 1004.70 L 874.26 1004.81 L 871.49 1004.91 L 868.74 1004.98" stroke="rgb(140,255,190)" stroke-opacity="0.725" stroke-width="1.16" />
  <path d="M 996.27 998.74 L 993.07 998.24 L 989.89 997.75 L 986.72 997.27 L 983.55 996.81 L 980.40 996.36 L 977.27 995.89 L 974.14 995.44 L 971.02 995.03 L 967.92 994.62 L 964.83 994.14 L 961.75 993.70 L 958.69 993.27 L 955.64 992.83 L 952.60 992.40 L 949.58 991.92 L 946.57 991.40 L 943.59 990.86 L 940.62 990.28 L 937.64 989.80 L 934.68 989.33 L 931.73 988.86 L 928.78 988.43 L 925.85 988.01 L 922.94 987.54" stroke="rgb(140,255,190)" stroke-opacity="0.723" stroke-width="1.15" />
  <path d="M 997.68 998.44 L 994.42 997.96 L 991.18 997.47 L 987.95 997.00 L 984.74 996.54 L 981.54 996.02 L 978.37 995.44 L 975.21 994.90 L 972.06 994.35 L 968.95 993.73 L 965.85 993.14 L 962.75 992.57 L 959.67 991.99 L 956.61 991.39 L 953.55 990.83 L 950.50 990.28 L 947.46 989.75 L 944.44 989.19 L 941.43 988.64 L 938.43 988.09 L 935.44 987.55 L 932.46 986.99 L 929.52 986.36 L 926.59 985.69 L 923.67 985.01 L 920.75 984.35 L 917.87 983.65 L 914.98 983.02 L 912.11 982.39 L 909.24 981.77 L 906.38 981.15 L 903.54 980.56 L 900.71 979.98 L 897.89 979.42 L 895.10 978.84 L 892.31 978.28 L 889.53 977.70 L 886.77 977.16 L 884.03 976.62 L 881.29 976.05 L 878.57 975.49 L 875.85 974.96 L 873.13 974.46 L 870.42 973.98 L 867.74 973.45 L 865.06 972.94 L 862.40 972.42 L 859.76 971.90 L 857.13 971.41 L 854.50 970.90 L 851.88 970.44 L 849.27 969.99 L 846.67 969.53 L 844.10 969.00 L 841.53 968.48 L 838.98 967.95 L 836.45 967.40 L 833.93 966.83 L 831.42 966.26 L 828.93 965.69 L 826.44 965.10 L 823.96 964.53 L 821.48 963.97 L 819.00 963.41 L 816.53 962.87 L 814.08 962.33 L 811.66 961.72 L 809.24 961.11 L 806.83 960.54 L 804.42 959.99 L 802.03 959.43 L 799.65 958.88 L 797.27 958.32 L 794.90 957.76" stroke="rgb(140,255,190)" stroke-opacity="0.722" stroke-width="1.15" />
  <path d="M 1004.09 997.59 L 1000.78 997.31 L 997.48 997.04 L 994.20 996.76 L 990.93 996.48 L 987.68 996.20 L 984.43 995.90 L 981.21 995.57 L 978.00 995.24 L 974.80 994.87 L 971.63 994.46 L 968.46 994.05 L 965.31 993.65 L 962.18 993.21 L 959.05 992.78 L 955.95 992.35 L 952.85 991.92 L 949.77 991.48 L 946.70 991.05 L 943.64 990.58 L 940.61 990.08 L 937.58 989.61 L 934.57 989.11 L 931.57 988.62 L 928.58 988.12 L 925.60 987.65 L 922.64 987.15 L 919.68 986.70 L 916.74 986.26 L 913.81 985.81 L 910.88 985.37 L 907.96 984.98 L 905.06 984.58 L 902.17 984.16 L 899.29 983.69 L 896.44 983.23 L 893.59 982.74 L 890.76 982.25 L 887.94 981.71 L 885.15 981.17 L 882.35 980.67 L 879.57 980.14 L 876.80 979.60 L 874.05 979.06" stroke="rgb(140,255,190)" stroke-opacity="0.722" stroke-width="1.15" />
  <path d="M 997.76 999.55 L 995.30 999.59 L 992.86 999.63 L 990.43 999.53 L 988.02 999.43 L 985.62 999.27 L 983.23 999.11 L 980.84 999.01 L 978.47 998.77 L 976.10 998.63 L 973.76 998.58 L 971.43 998.51 L 969.14 998.48 L 966.85 998.45 L 964.57 998.38 L 962.30 998.31 L 960.04 998.23 L 957.80 998.11 L 955.57 997.95 L 953.35 997.66 L 951.13 997.37 L 948.92 997.08 L 946.74 996.67 L 944.59 996.20 L 942.46 995.73 L 940.32 995.25 L 938.19 994.79 L 936.07 994.35 L 933.97 993.93 L 931.88 993.48 L 929.80 993.03 L 927.73 992.59 L 925.67 992.12 L 923.63 991.65 L 921.61 991.10 L 919.59 990.54 L 917.57 990.03 L 915.58 989.46 L 913.60 988.88 L 911.63 988.27 L 909.65 987.70 L 907.66 987.14 L 905.68 986.59 L 903.70 986.14 L 901.74 985.71 L 899.77 985.29 L 897.81 984.85 L 895.87 984.42 L 893.91 984.09 L 891.96 983.75 L 890.02 983.40 L 888.10 983.04 L 886.18 982.68 L 884.27 982.31 L 882.38 981.92" stroke="rgb(140,255,190)" stroke-opacity="0.541" stroke-width="1.15" />
  <path d="M 1001.24 998.62 L 998.09 998.89 L 994.95 999.13 L 991.82 999.42 L 988.71 999.67 L 985.60 999.93 L 982.51 1000.21 L 979.44 1000.53 L 976.38 1000.83 L 973.33 1001.10 L 970.29 1001.38 L 967.26 1001.66 L 964.24 1001.90 L 961.24 1002.13 L 958.25 1002.43 L 955.27 1002.68 L 952.30 1002.91 L 949.35 1003.14 L 946.40 1003.33 L 943.46 1003.49 L 940.54 1003.64 L 937.62 1003.80 L 934.72 1004.04 L 931.84 1004.28 L 928.97 1004.57 L 926.11 1004.86 L 923.26 1005.14 L 920.43 1005.42" stroke="rgb(140,255,190)" stroke-opacity="0.720" stroke-width="1.14" />
  <path d="M 998.90 1000.37 L 995.77 1000.72 L 992.65 1001.04 L 989.56 1001.41 L 986.48 1001.77 L 983.40 1002.13 L 980.36 1002.52 L 977.34 1002.85 L 974.33 1003.21 L 971.36 1003.62 L 968.40 1004.01 L 965.45 1004.40 L 962.52 1004.77 L 959.59 1005.17 L 956.66 1005.56 L 953.75 1005.93 L 950.83 1006.31 L 947.93 1006.72 L 945.05 1007.14 L 942.18 1007.55 L 939.30 1007.92 L 936.45 1008.32 L 933.60 1008.70 L 930.75 1009.09 L 927.90 1009.42 L 925.07 1009.74 L 922.23 1010.08 L 919.41 1010.40 L 916.59 1010.73 L 913.79 1011.05 L 911.00 1011.37 L 908.22 1011.73 L 905.46 1012.07 L 902.69 1012.38 L 899.93 1012.69 L 897.18 1013.00 L 894.44 1013.33 L 891.73 1013.72 L 889.02 1014.12 L 886.30 1014.38 L 883.60 1014.63 L 880.90 1014.87 L 878.22 1015.10 L 875.55 1015.32 L 872.89 1015.55 L 870.24 1015.76 L 867.60 1015.96 L 864.97 1016.16 L 862.35 1016.35 L 859.74 1016.55 L 857.15 1016.81 L 854.56 1017.05 L 851.99 1017.29 L 849.43 1017.51 L 846.88 1017.78 L 844.34 1018.02 L 841.82 1018.29 L 839.31 1018.59 L 836.81 1018.83 L 834.31 1019.06 L 831.82 1019.27 L 829.34 1019.47 L 826.87 1019.66 L 824.40 1019.85 L 821.95 1020.02 L 819.50 1020.19 L 817.06 1020.31 L 814.62 1020.46 L 812.20 1020.62 L 809.79 1020.73 L 807.38 1020.88 L 804.98 1021.02 L 802.60 1021.15 L 800.22 1021.30 L 797.86 1021.44 L 795.50 1021.59 L 793.16 1021.74 L 790.82 1021.91 L 788.49 1022.08 L 786.18 1022.30 L 783.87 1022.49 L 781.57 1022.68 L 779.28 1022.91 L 777.01 1023.14 L 774.74 1023.39 L 772.48 1023.60 L 770.23 1023.83 L 767.99 1024.04 L 765.76 1024.26 L 763.53 1024.44 L 761.31 1024.60" stroke="rgb(140,255,190)" stroke-opacity="0.718" stroke-width="1.14" />
  <path d="M 961.06 1001.99 L 958.12 1002.96 L 955.19 1003.91 L 952.27 1004.89 L 949.35 1005.79 L 946.46 1006.73 L 943.58 1007.69 L 940.71 1008.65 L 937.86 1009.64 L 935.03 1010.64 L 932.23 1011.69 L 929.43 1012.72 L 926.67 1013.79 L 923.89 1014.76 L 921.11 1015.72 L 918.35 1016.72 L 915.62 1017.75 L 912.90 1018.78 L 910.18 1019.76 L 907.46 1020.74 L 904.76 1021.71 L 902.06 1022.63 L 899.41 1023.66 L 896.77 1024.68 L 894.12 1025.69 L 891.49 1026.70 L 888.85 1027.63 L 886.22 1028.57 L 883.58 1029.48 L 880.98 1030.44 L 878.38 1031.39 L 875.84 1032.45 L 873.30 1033.49 L 870.78 1034.54 L 868.28 1035.63 L 865.80 1036.72 L 863.33 1037.82 L 860.87 1038.89 L 858.40 1039.94 L 855.94 1040.98 L 853.49 1042.00 L 851.05 1043.02 L 848.61 1044.02 L 846.16 1044.97 L 843.72 1045.90 L 841.29 1046.84 L 838.87 1047.77 L 836.47 1048.73 L 834.06 1049.62 L 831.64 1050.45 L 829.23 1051.28 L 826.87 1052.22 L 824.52 1053.16 L 822.17 1054.08 L 819.84 1055.01 L 817.51 1055.92 L 815.16 1056.76 L 812.82 1057.59 L 810.47 1058.36 L 808.13 1059.11 L 805.80 1059.87 L 803.49 1060.67 L 801.19 1061.48 L 798.90 1062.27 L 796.61 1063.02 L 794.31 1063.74 L 792.03 1064.47" stroke="rgb(140,255,190)" stroke-opacity="0.538" stroke-width="1.14" />
  <path d="M 973.18 1012.86 L 972.39 1014.00 L 971.56 1015.15 L 970.71 1016.30 L 969.89 1017.53 L 969.09 1018.71 L 968.29 1019.89 L 967.51 1021.11 L 966.72 1022.32 L 965.92 1023.57 L 965.08 1024.80 L 964.30 1026.00 L 963.45 1027.26 L 962.56 1028.53 L 961.65 1029.80 L 960.76 1031.07 L 959.86 1032.32 L 958.94 1033.51 L 957.99 1034.63 L 957.06 1035.71 L 956.11 1036.72 L 955.16 1037.71 L 954.20 1038.65 L 953.24 1039.59 L 952.35 1040.48 L 951.39 1041.36 L 950.41 1042.24 L 949.36 1043.05 L 948.37 1043.89 L 947.38 1044.79 L 946.39 1045.68 L 945.39 1046.50 L 944.46 1047.42 L 943.54 1048.34 L 942.65 1049.24 L 941.74 1050.14 L 940.82 1051.03 L 939.99 1052.02 L 939.18 1053.02 L 938.26 1054.07 L 937.33 1055.13 L 936.40 1056.24 L 935.51 1057.25 L 934.60 1058.29 L 933.79 1059.33 L 932.91 1060.38 L 932.04 1061.41 L 931.12 1062.52 L 930.21 1063.63 L 929.30 1064.79 L 928.55 1065.90 L 927.81 1067.01 L 927.05 1068.17 L 926.28 1069.29" stroke="rgb(205,165,255)" stroke-opacity="0.476" stroke-width="1.14" />
  <path d="M 899.64 1004.01 L 896.90 1005.40 L 894.17 1006.80 L 891.46 1008.20 L 888.76 1009.59 L 886.07 1010.97 L 883.34 1012.24 L 880.60 1013.48 L 877.85 1014.64 L 875.14 1015.85 L 872.40 1016.98 L 869.64 1018.01 L 866.89 1019.03 L 864.15 1020.03 L 861.40 1020.96 L 858.64 1021.78 L 855.92 1022.65 L 853.23 1023.52 L 850.55 1024.36 L 847.93 1025.34 L 845.32 1026.34 L 842.71 1027.29 L 840.16 1028.35 L 837.61 1029.40 L 835.11 1030.53 L 832.62 1031.66 L 830.12 1032.80 L 827.61 1033.89 L 825.12 1034.98 L 822.68 1036.14 L 820.23 1037.28 L 817.78 1038.38 L 815.38 1039.56 L 813.02 1040.83 L 810.67 1042.08 L 808.32 1043.32 L 805.96 1044.54 L 803.59 1045.71 L 801.24 1046.88 L 798.86 1047.98 L 796.52 1049.12 L 794.18 1050.27 L 791.85 1051.41 L 789.49 1052.48 L 787.14 1053.54 L 784.78 1054.55 L 782.40 1055.53 L 780.06 1056.54 L 777.70 1057.49 L 775.35 1058.46 L 773.03 1059.46 L 770.72 1060.45 L 768.46 1061.54 L 766.22 1062.64 L 763.98 1063.72 L 761.75 1064.81 L 759.53 1065.88 L 757.36 1067.03 L 755.16 1068.10 L 752.98 1069.18 L 750.79 1070.24 L 748.62 1071.29 L 746.42 1072.28 L 744.22 1073.23 L 742.03 1074.18 L 739.84 1075.12 L 737.68 1076.09 L 735.52 1077.06 L 733.41 1078.08 L 731.30 1079.10 L 729.17 1080.05 L 727.10 1081.11 L 725.08 1082.24 L 723.06 1083.33 L 721.06 1084.44 L 719.05 1085.53 L 717.07 1086.63 L 715.11 1087.76 L 713.11 1088.80 L 711.12 1089.82 L 709.13 1090.83" stroke="rgb(140,255,190)" stroke-opacity="0.536" stroke-width="1.13" />
  <path d="M 1000.55 1001.89 L 1003.48 1001.77 L 1006.36 1001.80 L 1009.23 1001.73 L 1012.08 1001.67 L 1014.94 1001.58 L 1017.75 1001.51 L 1020.57 1001.43 L 1023.38 1001.40 L 1026.16 1001.42 L 1028.92 1001.45 L 1031.67 1001.48 L 1034.40 1001.46 L 1037.13 1001.39 L 1039.84 1001.31 L 1042.54 1001.24 L 1045.22 1001.26 L 1047.90 1001.24 L 1050.56 1001.21 L 1053.18 1001.19 L 1055.79 1001.21 L 1058.41 1001.29 L 1061.01 1001.31 L 1063.59 1001.36 L 1066.18 1001.40 L 1068.72 1001.43 L 1071.24 1001.46 L 1073.74 1001.43 L 1076.24 1001.39 L 1078.70 1001.30 L 1081.15 1001.22 L 1083.57 1001.11 L 1085.96 1001.00 L 1088.31 1000.88 L 1090.65 1000.69 L 1092.97 1000.48 L 1095.27 1000.32 L 1097.54 1000.18 L 1099.83 1000.02 L 1102.12 999.84 L 1104.38 999.66 L 1106.65 999.48 L 1108.91 999.32 L 1111.18 999.14 L 1113.42 998.94 L 1115.64 998.75 L 1117.84 998.58 L 1120.02 998.41 L 1122.26 998.30 L 1124.42 998.16 L 1126.57 997.97 L 1128.71 997.79 L 1130.86 997.61 L 1132.99 997.43 L 1135.12 997.16 L 1137.23 996.95 L 1139.35 996.72 L 1141.45 996.49 L 1143.56 996.27 L 1145.62 996.13 L 1147.66 995.95 L 1149.72 995.81 L 1151.79 995.67 L 1153.85 995.57 L 1155.91 995.45 L 1157.94 995.33 L 1159.97 995.20 L 1162.00 995.07 L 1164.00 994.91 L 1166.00 994.74 L 1167.98 994.65 L 1169.95 994.57 L 1171.91 994.47 L 1173.86 994.36 L 1175.80 994.27 L 1177.74 994.10 L 1179.67 993.94 L 1181.58 993.79 L 1183.46 993.67 L 1185.32 993.57 L 1187.18 993.47 L 1189.02 993.42 L 1190.85 993.42" stroke="rgb(140,255,190)" stroke-opacity="0.535" stroke-width="1.13" />
  <path d="M 748.51 1017.99 L 745.46 1017.59 L 742.42 1017.15 L 739.41 1016.65 L 736.40 1016.15 L 733.40 1015.72 L 730.42 1015.20 L 727.47 1014.64 L 724.52 1014.08 L 721.60 1013.52 L 718.68 1012.95 L 715.77 1012.43 L 712.87 1011.93 L 709.97 1011.44 L 707.09 1010.95 L 704.22 1010.45 L 701.37 1009.92 L 698.52 1009.40 L 695.68 1008.95 L 692.84 1008.53 L 690.03 1008.06 L 687.22 1007.60 L 684.43 1007.11 L 681.64 1006.68 L 678.86 1006.26 L 676.09 1005.90 L 673.32 1005.61 L 670.55 1005.37 L 667.80 1005.19 L 665.05 1004.97 L 662.32 1004.75 L 659.60 1004.52 L 656.89 1004.32 L 654.19 1004.12 L 651.52 1003.83 L 648.85 1003.53 L 646.20 1003.22 L 643.55 1002.95 L 640.92 1002.67 L 638.31 1002.40 L 635.70 1002.18 L 633.10 1001.95 L 630.52 1001.74 L 627.95 1001.55 L 625.38 1001.36 L 622.83 1001.04 L 620.28 1000.70 L 617.74 1000.38 L 615.23 999.99 L 612.75 999.51 L 610.27 999.03 L 607.79 998.61 L 605.31 998.23 L 602.84 997.85 L 600.39 997.43 L 597.94 997.03 L 595.50 996.64 L 593.08 996.22 L 590.66 995.86 L 588.26 995.51 L 585.86 995.17 L 583.46 994.82 L 581.08 994.52 L 578.71 994.21" stroke="rgb(140,255,190)" stroke-opacity="0.535" stroke-width="1.13" />
  <path d="M 947.25 1002.48 L 944.39 1001.49 L 941.53 1000.56 L 938.70 999.55 L 935.88 998.54 L 933.07 997.53 L 930.26 996.56 L 927.47 995.58" stroke="rgb(140,255,190)" stroke-opacity="0.534" stroke-width="1.12" />
  <path d="M 851.05 1043.02 L 848.34 1044.53 L 845.63 1046.02 L 842.97 1047.57 L 840.28 1049.04 L 837.60 1050.51 L 834.94 1051.97 L 832.34 1053.53 L 829.76 1055.10 L 827.15 1056.59 L 824.56 1058.07 L 821.99 1059.58 L 819.40 1061.03 L 816.83 1062.50 L 814.27 1063.95 L 811.72 1065.40 L 809.16 1066.81 L 806.68 1068.32 L 804.22 1069.84 L 801.74 1071.32 L 799.30 1072.83 L 796.90 1074.39 L 794.51 1075.93 L 792.11 1077.45 L 789.72 1078.96 L 787.31 1080.41 L 784.93 1081.90 L 782.55 1083.37 L 780.22 1084.88 L 777.84 1086.32 L 775.44 1087.68 L 773.06 1089.06 L 770.70 1090.45 L 768.33 1091.80 L 765.95 1093.11" stroke="rgb(140,255,190)" stroke-opacity="0.533" stroke-width="1.12" />
  <path d="M 861.72 1036.66 L 859.52 1037.77 L 857.33 1038.83 L 855.17 1039.91 L 853.03 1040.97 L 850.94 1042.06 L 848.83 1043.24 L 846.74 1044.42 L 844.61 1045.51 L 842.51 1046.59 L 840.39 1047.60 L 838.32 1048.68 L 836.24 1049.73 L 834.13 1050.73 L 832.01 1051.71 L 829.92 1052.76 L 827.85 1053.85 L 825.77 1054.93 L 823.73 1056.01 L 821.71 1057.10 L 819.71 1058.19 L 817.71 1059.27 L 815.70 1060.28 L 813.69 1061.28 L 811.61 1062.13 L 809.58 1063.07 L 807.54 1064.05 L 805.51 1064.99 L 803.50 1065.98 L 801.53 1067.00 L 799.56 1068.02 L 797.56 1068.87 L 795.55 1069.66 L 793.54 1070.43" stroke="rgb(140,255,190)" stroke-opacity="0.533" stroke-width="1.12" />
  <path d="M 1000.10 999.11 L 997.09 998.59 L 994.09 998.11 L 991.08 997.69 L 988.08 997.25 L 985.08 996.87 L 982.10 996.50 L 979.12 996.13 L 976.15 995.77 L 973.20 995.40 L 970.27 995.02 L 967.35 994.61 L 964.44 994.21 L 961.56 993.80 L 958.68 993.41 L 955.80 993.11 L 952.93 992.77 L 950.09 992.48 L 947.27 992.18 L 944.46 991.88 L 941.66 991.58 L 938.88 991.29 L 936.10 990.99 L 933.34 990.70 L 930.60 990.44 L 927.87 990.19 L 925.15 989.95 L 922.44 989.75 L 919.75 989.53 L 917.07 989.31 L 914.41 989.09 L 911.73 988.96 L 909.07 988.83" stroke="rgb(140,255,190)" stroke-opacity="0.532" stroke-width="1.12" />
  <path d="M 997.39 1001.66 L 994.43 1001.66 L 991.49 1001.54 L 988.55 1001.41 L 985.63 1001.25 L 982.73 1001.10 L 979.83 1000.94 L 976.95 1000.76 L 974.08 1000.56 L 971.23 1000.30 L 968.39 1000.05 L 965.57 999.72 L 962.77 999.35 L 959.97 999.04 L 957.18 998.72 L 954.41 998.36 L 951.64 998.01 L 948.90 997.59 L 946.16 997.19 L 943.44 996.79 L 940.73 996.38 L 938.02 995.99 L 935.33 995.59 L 932.66 995.15 L 930.00 994.72 L 927.34 994.29 L 924.70 993.88 L 922.06 993.46 L 919.43 993.08 L 916.81 992.79 L 914.19 992.50 L 911.58 992.21 L 908.98 991.93 L 906.39 991.66 L 903.81 991.42 L 901.23 991.37 L 898.65 991.32 L 896.09 991.25 L 893.54 991.12 L 891.00 991.00 L 888.48 990.86 L 885.96 990.71 L 883.46 990.47 L 880.97 990.21 L 878.50 989.93 L 876.04 989.58 L 873.59 989.29 L 871.14 989.05 L 868.71 988.82 L 866.28 988.61 L 863.85 988.44 L 861.43 988.29 L 859.03 988.09 L 856.64 987.90 L 854.25 987.73 L 851.87 987.63 L 849.50 987.51 L 847.13 987.40 L 844.78 987.27" stroke="rgb(140,255,190)" stroke-opacity="0.532" stroke-width="1.12" />
  <path d="M 950.69 1011.25 L 947.74 1011.39 L 944.82 1011.66 L 941.91 1011.92 L 939.02 1012.21 L 936.13 1012.46 L 933.26 1012.79 L 930.41 1013.18 L 927.57 1013.55 L 924.75 1013.89 L 921.93 1014.17 L 919.12 1014.46 L 916.33 1014.77 L 913.55 1015.16 L 910.78 1015.55 L 908.01 1015.97 L 905.27 1016.45 L 902.55 1016.95 L 899.86 1017.50 L 897.17 1018.05 L 894.46 1018.52 L 891.76 1019.02 L 889.07 1019.49 L 886.38 1019.94 L 883.70 1020.36 L 881.04 1020.80 L 878.38 1021.25 L 875.75 1021.73 L 873.12 1022.24 L 870.50 1022.72 L 867.89 1023.18 L 865.26 1023.53 L 862.65 1023.82 L 860.04 1024.11 L 857.46 1024.41 L 854.87 1024.57 L 852.28 1024.74 L 849.71 1024.84 L 847.16 1025.00 L 844.61 1025.06 L 842.08 1025.11 L 839.57 1024.98 L 837.06 1024.73 L 834.57 1024.44 L 832.08 1024.23 L 829.60 1024.05 L 827.16 1023.74 L 824.72 1023.46 L 822.30 1023.14 L 819.86 1022.85 L 817.43 1022.58 L 815.01 1022.32 L 812.60 1022.05 L 810.21 1021.78 L 807.81 1021.52 L 805.42 1021.37 L 803.03 1021.27 L 800.65 1021.18 L 798.28 1021.09 L 795.91 1020.98 L 793.56 1020.85 L 791.22 1020.71 L 788.88 1020.59 L 786.56 1020.47 L 784.24 1020.34 L 781.94 1020.22 L 779.64 1020.10 L 777.35 1019.97 L 775.07 1019.84 L 772.81 1019.71 L 770.55 1019.55 L 768.31 1019.43 L 766.08 1019.21 L 763.86 1018.99 L 761.65 1018.79 L 759.44 1018.59 L 757.24 1018.41 L 755.05 1018.26 L 752.86 1018.14 L 750.68 1018.05 L 748.51 1017.99 L 746.35 1017.95 L 744.19 1017.97 L 742.05 1018.00 L 739.91 1018.04 L 737.78 1018.07 L 735.66 1018.09" stroke="rgb(140,255,190)" stroke-opacity="0.530" stroke-width="1.11" />
  <path d="M 1000.50 1000.01 L 997.85 999.68 L 995.20 999.35 L 992.55 999.06 L 989.91 998.81 L 987.28 998.54 L 984.67 998.21 L 982.09 997.79 L 979.52 997.35 L 976.99 996.82 L 974.47 996.26 L 971.96 995.69 L 969.46 995.13 L 966.96 994.59 L 964.48 994.01 L 962.03 993.46 L 959.59 992.93 L 957.15 992.43 L 954.72 992.02 L 952.29 991.58 L 949.88 991.14 L 947.47 990.67 L 945.07 990.20 L 942.69 989.74 L 940.31 989.31 L 937.94 988.89 L 935.55 988.58 L 933.18 988.26 L 930.81 987.96 L 928.45 987.66 L 926.11 987.35 L 923.76 987.12 L 921.42 986.92 L 919.10 986.69 L 916.78 986.44 L 914.48 986.19 L 912.18 985.92 L 909.88 985.71 L 907.58 985.48 L 905.30 985.31" stroke="rgb(205,165,255)" stroke-opacity="0.469" stroke-width="1.11" />
  <path d="M 1000.10 998.83 L 997.58 999.31 L 995.06 999.67 L 992.55 1000.04 L 990.04 1000.36 L 987.55 1000.71 L 985.06 1001.04 L 982.59 1001.40 L 980.13 1001.75 L 977.67 1002.06 L 975.25 1002.54 L 972.83 1003.01 L 970.42 1003.43 L 968.04 1003.92 L 965.68 1004.49 L 963.32 1004.98 L 960.98 1005.52 L 958.65 1006.07 L 956.33 1006.63 L 954.01 1007.13 L 951.69 1007.57 L 949.39 1007.98 L 947.10 1008.40 L 944.83 1008.89 L 942.56 1009.38 L 940.29 1009.82 L 938.02 1010.18 L 935.73 1010.46 L 933.45 1010.77 L 931.19 1011.14 L 928.94 1011.45 L 926.69 1011.76 L 924.45 1012.01 L 922.21 1012.23 L 919.98 1012.44 L 917.76 1012.65" stroke="rgb(205,165,255)" stroke-opacity="0.469" stroke-width="1.11" />
  <path d="M 925.94 1003.31 L 923.63 1003.81 L 921.33 1004.38 L 919.08 1004.93 L 916.84 1005.49 L 914.60 1006.05 L 912.37 1006.61 L 910.15 1007.19 L 907.92 1007.83 L 905.71 1008.51 L 903.60 1009.22 L 901.49 1009.89 L 899.38 1010.61 L 897.28 1011.37 L 895.22 1012.20 L 893.17 1013.04 L 891.13 1013.89 L 889.11 1014.74 L 887.03 1015.44 L 884.96 1016.15 L 882.94 1016.84 L 880.94 1017.55 L 878.95 1018.26 L 876.99 1018.91 L 875.04 1019.54 L 873.14 1020.15 L 871.23 1020.77 L 869.35 1021.43 L 867.42 1022.09 L 865.48 1022.66 L 863.48 1023.17 L 861.54 1023.77 L 859.62 1024.39 L 857.70 1025.00 L 855.81 1025.66 L 853.95 1026.39 L 852.14 1027.14" stroke="rgb(140,255,190)" stroke-opacity="0.528" stroke-width="1.11" />
  <path d="M 1002.84 1002.12 L 1000.53 1002.45 L 998.22 1002.78 L 995.95 1003.15 L 993.64 1003.37 L 991.35 1003.55 L 989.05 1003.79 L 986.77 1004.02 L 984.49 1004.24 L 982.24 1004.49 L 979.98 1004.77 L 977.75 1004.98 L 975.55 1005.20 L 973.39 1005.42 L 971.24 1005.65 L 969.07 1005.87 L 966.92 1006.07 L 964.78 1006.28 L 962.65 1006.48 L 960.50 1006.68 L 958.37 1006.83 L 956.22 1006.92 L 954.09 1006.97 L 951.98 1007.04 L 949.89 1007.14 L 947.80 1007.24 L 945.72 1007.30 L 943.64 1007.32 L 941.56 1007.36 L 939.49 1007.42 L 937.43 1007.48 L 935.37 1007.63 L 933.32 1007.77 L 931.27 1007.92 L 929.23 1008.05 L 927.19 1008.18 L 925.15 1008.30 L 923.11 1008.42 L 921.09 1008.55 L 919.04 1008.64 L 916.99 1008.70 L 914.96 1008.77 L 912.95 1008.87 L 910.96 1008.99 L 908.96 1009.09 L 907.02 1009.23 L 905.09 1009.36 L 903.16 1009.46 L 901.24 1009.55 L 899.33 1009.62 L 897.43 1009.75 L 895.51 1009.86 L 893.60 1009.95 L 891.70 1010.01 L 889.81 1010.17 L 887.91 1010.30 L 886.04 1010.49 L 884.17 1010.75 L 882.34 1011.00 L 880.53 1011.25 L 878.69 1011.39 L 876.88 1011.57" stroke="rgb(205,165,255)" stroke-opacity="0.468" stroke-width="1.10" />
  <path d="M 997.14 998.08 L 994.56 997.86 L 991.98 997.66 L 989.40 997.43 L 986.82 997.23 L 984.25 996.94 L 981.70 996.69 L 979.15 996.43 L 976.62 996.15 L 974.10 995.88 L 971.59 995.61 L 969.08 995.38 L 966.59 995.13 L 964.11 994.89 L 961.63 994.66 L 959.17 994.41 L 956.72 994.11 L 954.30 993.73 L 951.90 993.34 L 949.52 992.92 L 947.15 992.48 L 944.79 992.07 L 942.45 991.64 L 940.10 991.21 L 937.76 990.82 L 935.43 990.44 L 933.11 989.96 L 930.78 989.59 L 928.46 989.24 L 926.17 988.78 L 923.92 988.19 L 921.67 987.65 L 919.43 987.08 L 917.21 986.50 L 915.00 985.91 L 912.79 985.36 L 910.59 984.87 L 908.39 984.42 L 906.20 983.95 L 904.03 983.47 L 901.86 982.98 L 899.72 982.50 L 897.58 982.02 L 895.43 981.55 L 893.28 981.07 L 891.14 980.57 L 889.01 980.11 L 886.90 979.60 L 884.82 978.99 L 882.74 978.40 L 880.68 977.81 L 878.63 977.24 L 876.58 976.68 L 874.52 976.19 L 872.48 975.72 L 870.46 975.19 L 868.45 974.69 L 866.45 974.13 L 864.47 973.55 L 862.46 973.07 L 860.46 972.61 L 858.46 972.23 L 856.47 971.84 L 854.50 971.44 L 852.53 971.08 L 850.56 970.70 L 848.59 970.34 L 846.63 969.96 L 844.68 969.56 L 842.74 969.16 L 840.79 968.79 L 838.86 968.40 L 836.93 968.02 L 835.01 967.65 L 833.10 967.28 L 831.19 966.92 L 829.30 966.55 L 827.41 966.18 L 825.53 965.82 L 823.65 965.45 L 821.79 965.07 L 819.94 964.70" stroke="rgb(205,165,255)" stroke-opacity="0.468" stroke-width="1.10" />
  <path d="M 1002.46 1002.02 L 999.93 1001.82 L 997.43 1001.62 L 994.93 1001.53 L 992.45 1001.51 L 989.98 1001.42 L 987.51 1001.43 L 985.05 1001.52 L 982.61 1001.51 L 980.18 1001.49 L 977.76 1001.62 L 975.35 1001.71 L 972.94 1001.74 L 970.54 1001.76 L 968.15 1001.82 L 965.77 1001.89 L 963.40 1001.97 L 961.06 1001.99 L 958.73 1001.98 L 956.41 1001.97 L 954.10 1002.00 L 951.82 1002.08 L 949.53 1002.28 L 947.25 1002.48 L 944.99 1002.78 L 942.74 1002.99 L 940.48 1003.20 L 938.23 1003.41 L 936.00 1003.63 L 933.79 1003.89" stroke="rgb(140,255,190)" stroke-opacity="0.527" stroke-width="1.10" />
  <path d="M 2000.08 964.00 L 1996.93 964.65 L 1993.79 964.22 L 1990.54 964.51 L 1987.92 964.59 L 1985.14 965.04 L 1981.89 965.02 L 1979.25 965.15 L 1976.04 965.07 L 1972.78 965.25 L 1970.18 965.33 L 1967.07 965.57 L 1963.85 965.74 L 1961.05 965.60 L 1958.25 965.71 L 1955.43 965.85 L 1952.41 965.89 L 1948.91 966.13 L 1946.35 966.00 L 1942.84 966.28 L 1940.13 966.31 L 1937.33 966.63 L 1934.34 966.87 L 1931.18 966.35 L 1927.67 966.37 L 1924.95 967.07 L 1922.01 967.01 L 1918.91 967.10 L 1915.86 967.37 L 1913.24 966.98 L 1909.69 967.20 L 1907.05 967.40 L 1904.24 967.61 L 1901.44 967.60 L 1898.20 967.89 L 1895.40 968.13 L 1891.91 968.22 L 1888.94 968.33 L 1886.15 968.37 L 1882.87 968.36 L 1879.96 968.43 L 1877.09 968.69 L 1874.35 969.26 L 1871.30 969.10 L 1868.17 969.04 L 1865.07 969.00 L 1862.40 968.75 L 1859.07 969.17 L 1856.01 969.19 L 1853.21 969.62 L 1850.41 969.57 L 1847.09 969.51 L 1844.03 969.87 L 1841.11 969.92 L 1837.71 970.00 L 1834.59 970.10 L 1832.33 970.49 L 1829.30 970.47 L 1825.74 969.99 L 1823.01 970.81 L 1820.34 970.79 L 1817.48 971.28 L 1813.98 970.90 L 1811.52 971.00 L 1807.86 971.32 L 1805.13 971.15 L 1802.41 971.47 L 1799.13 971.20 L 1796.44 971.32 L 1793.34 971.27 L 1790.21 972.13 L 1787.35 972.01 L 1784.16 971.66 L 1781.21 971.76 L 1778.39 972.58 L 1775.43 972.49 L 1772.01 972.00 L 1768.93 972.47 L 1766.59 972.51 L 1762.96 972.63 L 1760.07 972.75 L 1757.20 972.54 L 1753.93 972.98 L 1751.14 973.24 L 1748.15 973.45 L 1745.21 973.42 L 1742.27 973.22 L 1738.81 973.49 L 1735.76 973.41 L 1732.96 973.69 L 1730.64 973.70 L 1727.76 973.86 L 1724.35 974.17 L 1721.28 974.08 L 1718.02 973.93 L 1715.21 974.51 L 1712.13 974.89 L 1708.77 974.68 L 1706.47 974.66 L 1703.75 974.64 L 1700.51 974.79 L 1697.45 975.27 L 1693.74 975.49 L 1691.02 975.31 L 1688.35 975.48 L 1685.01 975.47 L 1682.12 975.50 L 1679.28 975.51 L 1676.34 975.70 L 1673.15 975.64 L 1670.09 976.02 L 1667.22 976.14 L 1664.31 976.14 L 1661.64 976.28 L 1658.45 976.55 L 1655.24 976.74 L 1652.67 976.92 L 1649.31 976.24 L 1645.66 976.94 L 1643.08 977.28 L 1640.74 977.03 L 1637.25 977.01 L 1634.44 977.04 L 1631.52 977.56 L 1628.36 977.44 L 1625.32 977.72 L 1622.17 977.77 L 1619.03 977.83 L 1616.30 978.04 L 1613.12 978.00 L 1610.48 978.15 L 1607.51 978.44 L 1604.21 978.93 L 1601.59 978.52 L 1598.17 978.82 L 1595.34 978.56 L 1592.18 978.51 L 1589.26 978.66 L 1586.46 978.96 L 1582.86 978.96 L 1580.03 979.20 L 1577.30 979.12 L 1574.53 979.44 L 1571.18 979.55 L 1568.30 979.60 L 1565.18 979.71 L 1562.33 979.70 L 1558.79 980.15 L 1556.21 980.15 L 1553.24 980.54 L 1549.98 980.30 L 1546.80 980.22 L 1544.70 980.85 L 1541.28 980.83 L 1538.22 980.70 L 1535.22 980.76 L 1532.40 981.09 L 1529.12 981.30 L 1526.29 980.52 L 1523.29 981.24 L 1520.08 981.14 L 1517.41 981.34 L 1514.09 981.74 L 1511.35 981.75 L 1508.16 981.77 L 1505.31 981.67 L 1502.10 981.82 L 1499.53 982.29 L 1496.32 982.29 L 1493.60 982.81 L 1490.22 982.31 L 1487.27 982.37 L 1484.17 982.40 L 1481.31 982.80 L 1478.90 983.06 L 1475.30 982.93 L 1472.61 983.09 L 1469.59 983.41 L 1466.24 983.44 L 1463.52 983.33 L 1460.36 983.51 L 1457.02 983.61 L 1454.28 983.67 L 1451.48 983.90 L 1448.39 984.29 L 1445.78 983.92 L 1442.48 983.76 L 1439.30 984.08 L 1436.34 984.43 L 1433.11 984.72 L 1430.29 984.55 L 1427.51 984.60 L 1424.80 985.13 L 1421.36 985.26 L 1418.48 985.08 L 1415.58 985.37 L 1412.48 984.98 L 1409.72 985.52 L 1406.48 985.63 L 1403.51 985.81 L 1400.50 985.72 L 1397.43 985.88 L 1394.52 985.86 L 1391.01 985.87 L 1388.34 986.20 L 1385.53 986.16 L 1382.34 986.15 L 1379.13 986.39 L 1376.27 986.47 L 1372.89 986.35 L 1370.17 986.68 L 1367.99 986.54 L 1364.40 987.06 L 1361.08 987.26 L 1358.39 987.71 L 1355.62 987.30 L 1352.36 987.31 L 1349.33 987.31 L 1346.35 987.93 L 1342.91 987.77 L 1340.48 987.76 L 1337.48 988.21 L 1334.34 987.52 L 1331.41 987.81 L 1328.36 988.47 L 1325.74 988.22 L 1322.35 988.50 L 1319.84 988.87 L 1316.46 988.56 L 1313.35 988.42 L 1310.41 989.19 L 1307.85 988.93 L 1304.79 989.42 L 1301.61 989.01 L 1299.06 989.04 L 1295.68 989.50 L 1292.34 989.67 L 1289.35 989.79 L 1286.26 989.70 L 1283.77 990.20 L 1280.34 990.18 L 1277.41 990.04 L 1274.51 990.04 L 1271.58 990.38 L 1268.58 990.41 L 1265.06 990.48 L 1262.50 990.57 L 1259.51 990.45 L 1256.46 990.84 L 1253.51 990.95 L 1250.43 990.73 L 1247.79 990.93 L 1244.42 991.35 L 1241.54 991.43 L 1238.79 991.39 L 1235.25 991.37 L 1232.25 991.40 L 1229.93 991.79 L 1226.26 991.98 L 1223.57 991.89 L 1220.59 991.90 L 1217.47 992.30 L 1214.15 992.45 L 1210.93 992.55 L 1208.73 992.84 L 1205.50 992.97 L 1202.57 992.69 L 1199.81 992.84 L 1196.41 993.12 L 1193.89 993.20 L 1190.39 993.05 L 1187.47 993.22 L 1184.45 993.65 L 1181.58 993.27 L 1178.31 993.42 L 1175.37 993.64 L 1172.47 993.70 L 1169.51 993.97 L 1166.98 994.24 L 1163.20 994.02 L 1160.43 994.42 L 1157.61 994.75 L 1154.58 994.21 L 1151.48 994.62 L 1148.20 994.71 L 1145.26 994.77 L 1142.38 995.05 L 1139.91 994.65 L 1136.46 995.32 L 1133.72 995.00 L 1130.51 995.40 L 1127.71 995.85 L 1124.75 995.48 L 1121.58 995.40 L 1118.41 995.85 L 1114.96 995.40 L 1112.31 996.22 L 1109.73 995.99 L 1106.55 996.46 L 1103.53 996.49 L 1100.41 996.47 L 1097.71 996.54 L 1094.61 996.69 L 1091.36 996.81 L 1088.38 996.96 L 1085.54 996.70 L 1082.67 996.69 L 1079.36 997.43 L 1076.74 997.46 L 1073.60 997.12 L 1070.71 997.45 L 1067.82 997.02 L 1064.92 997.50 L 1061.69 997.77 L 1058.77 998.04 L 1055.41 998.18 L 1052.83 998.19 L 1049.65 998.25 L 1046.72 998.08 L 1043.55 998.44 L 1040.68 998.97 L 1037.49 998.59 L 1034.67 998.91 L 1031.10 998.90 L 1028.48 999.16 L 1025.53 999.29 L 1022.58 999.27 L 1019.40 998.92 L 1016.69 999.74 L 1013.74 999.13 L 1010.87 999.35 L 1007.56 999.73 L 1004.43 999.69 L 1001.89 999.95 L 1000.00 1000.00 L 997.00 1000.10 L 994.00 1000.20 L 991.01 1000.30 L 988.01 1000.38 L 985.01 1000.46 L 982.01 1000.55 L 979.01 1000.62 L 976.01 1000.69 L 973.01 1000.75 L 970.01 1000.82 L 967.01 1000.86 L 964.01 1000.90 L 961.01 1000.93 L 958.01 1000.96 L 955.01 1001.00 L 952.01 1001.05 L 949.01 1001.09 L 946.01 1001.13 L 943.01 1001.16 L 940.01 1001.18 L 937.01 1001.21 L 934.01 1001.23 L 931.01 1001.25 L 928.01 1001.26 L 925.01 1001.26 L 922.01 1001.29 L 919.01 1001.30 L 916.01 1001.32 L 913.01 1001.32 L 910.01 1001.31 L 907.01 1001.30 L 904.01 1001.29 L 901.01 1001.26 L 898.01 1001.24 L 895.01 1001.22 L 892.01 1001.21 L 889.01 1001.19 L 886.01 1001.18 L 883.01 1001.16 L 880.01 1001.15 L 877.01 1001.13 L 874.01 1001.14 L 871.02 1001.16 L 868.02 1001.18 L 865.02 1001.20 L 862.02 1001.20 L 859.02 1001.21 L 856.02 1001.21 L 853.02 1001.22 L 850.02 1001.24 L 847.02 1001.26 L 844.02 1001.29 L 841.02 1001.33 L 838.02 1001.37 L 835.02 1001.41 L 832.02 1001.47 L 829.02 1001.51 L 826.02 1001.57 L 823.02 1001.61 L 820.02 1001.66 L 817.02 1001.71 L 814.02 1001.75 L 811.02 1001.78 L 808.02 1001.82 L 805.02 1001.88 L 802.02 1001.91 L 799.02 1001.94 L 796.02 1001.99 L 793.02 1002.01 L 790.02 1002.05 L 787.02 1002.07 L 784.02 1002.11 L 781.02 1002.16 L 778.02 1002.22 L 775.02 1002.31 L 772.03 1002.41 L 769.03 1002.50 L 766.03 1002.59 L 763.03 1002.67 L 760.03 1002.75 L 757.03 1002.83 L 754.03 1002.93 L 751.03 1003.03 L 748.04 1003.11 L 745.04 1003.18 L 742.04 1003.23 L 739.04 1003.29 L 736.04 1003.34 L 733.04 1003.40 L 730.04 1003.47 L 727.04 1003.53 L 724.04 1003.61 L 721.04 1003.69 L 718.04 1003.78 L 715.05 1003.89 L 712.05 1004.02 L 709.05 1004.15 L 706.05 1004.30 L 703.06 1004.45 L 700.06 1004.62 L 697.07 1004.78 L 694.07 1004.95 L 691.08 1005.13 L 688.08 1005.32 L 685.09 1005.49 L 682.09 1005.66 L 679.10 1005.82 L 676.10 1006.00 L 673.11 1006.18 L 670.11 1006.37 L 667.12 1006.56 L 664.13 1006.75 L 661.13 1006.92 L 658.14 1007.10 L 655.14 1007.28 L 652.15 1007.45 L 649.15 1007.61 L 646.16 1007.77 L 643.16 1007.96 L 640.17 1008.14 L 637.17 1008.34 L 634.18 1008.54 L 631.19 1008.72 L 628.19 1008.90 L 625.20 1009.07 L 622.20 1009.25 L 619.21 1009.41 L 616.21 1009.57 L 613.21 1009.71 L 610.22 1009.85 L 607.22 1010.01 L 604.22 1010.14 L 601.23 1010.26 L 598.23 1010.36 L 595.23 1010.46 L 592.23 1010.55 L 589.23 1010.64 L 586.23 1010.72 L 583.23 1010.79 L 580.23 1010.87 L 577.24 1010.96 L 574.24 1011.05 L 571.24 1011.14 L 568.24 1011.22 L 565.24 1011.30 L 562.24 1011.38 L 559.24 1011.48 L 556.25 1011.57 L 553.25 1011.67 L 550.25 1011.79 L 547.25 1011.89 L 544.25 1011.99 L 541.25 1012.10 L 538.26 1012.19 L 535.26 1012.30 L 532.26 1012.40 L 529.26 1012.50 L 526.26 1012.61 L 523.26 1012.70 L 520.27 1012.79 L 517.27 1012.87 L 514.27 1012.95 L 511.27 1013.04 L 508.27 1013.16 L 505.27 1013.27 L 502.28 1013.38 L 499.28 1013.50 L 496.28 1013.60 L 493.28 1013.71 L 490.28 1013.82 L 487.29 1013.91 L 484.29 1014.02 L 481.29 1014.12 L 478.29 1014.20 L 475.29 1014.29 L 472.29 1014.38 L 469.29 1014.48 L 466.30 1014.56 L 463.30 1014.63 L 460.30 1014.71 L 457.30 1014.79 L 454.30 1014.87 L 451.30 1014.95 L 448.30 1015.03 L 445.30 1015.10 L 442.30 1015.15 L 439.30 1015.20 L 436.30 1015.26 L 433.30 1015.30 L 430.30 1015.33 L 427.30 1015.37 L 424.31 1015.42 L 421.31 1015.49 L 418.31 1015.55 L 415.31 1015.61 L 412.31 1015.69 L 409.31 1015.76 L 406.31 1015.83 L 403.31 1015.89 L 400.31 1015.95 L 397.31 1016.01 L 394.31 1016.06 L 391.31 1016.11 L 388.31 1016.14 L 385.31 1016.16 L 382.31 1016.17 L 379.31 1016.18 L 376.31 1016.17 L 373.31 1016.15 L 370.31 1016.13 L 367.31 1016.12 L 364.31 1016.12 L 361.31 1016.13 L 358.31 1016.12 L 355.31 1016.11 L 352.31 1016.11 L 349.31 1016.11 L 346.31 1016.11 L 343.31 1016.10 L 340.31 1016.08 L 337.31 1016.07 L 334.31 1016.02 L 331.31 1015.98 L 328.31 1015.93 L 325.31 1015.88 L 322.31 1015.83 L 319.32 1015.76 L 316.32 1015.68 L 313.32 1015.58 L 310.32 1015.49 L 307.32 1015.41 L 304.32 1015.32 L 301.32 1015.22 L 298.33 1015.12 L 295.33 1015.02 L 292.33 1014.92 L 289.33 1014.82 L 286.33 1014.71 L 283.33 1014.61 L 280.34 1014.52 L 277.34 1014.44 L 274.34 1014.36 L 271.34 1014.29 L 268.34 1014.25 L 265.34 1014.24 L 262.34 1014.21 L 259.34 1014.18 L 256.34 1014.18 L 253.34 1014.16 L 250.34 1014.14 L 247.34 1014.12 L 244.34 1014.09 L 241.34 1014.06 L 238.34 1014.01 L 235.34 1013.96 L 232.34 1013.93 L 229.34 1013.89 L 226.34 1013.85 L 223.34 1013.80 L 220.34 1013.72 L 217.34 1013.67 L 214.34 1013.60 L 211.34 1013.54 L 208.34 1013.48 L 205.35 1013.43 L 202.35 1013.38 L 199.35 1013.32 L 196.35 1013.26 L 193.35 1013.23 L 190.35 1013.19 L 187.35 1013.15 L 184.35 1013.10 L 181.35 1013.06 L 178.35 1013.02 L 175.35 1012.97 L 172.35 1012.92 L 169.35 1012.89 L 166.35 1012.86 L 163.35 1012.86 L 160.35 1012.86 L 157.35 1012.87 L 154.35 1012.87 L 151.35 1012.86 L 148.35 1012.84 L 145.35 1012.84 L 142.35 1012.86 L 139.35 1012.92 L 136.35 1013.00 L 133.35 1013.05 L 130.35 1013.07 L 127.35 1013.09 L 124.35 1013.09 L 121.35 1013.11 L 118.35 1013.12 L 115.35 1013.14 L 112.35 1013.15 L 109.35 1013.16 L 106.35 1013.17 L 103.35 1013.19 L 100.35 1013.21 L 97.35 1013.25 L 94.35 1013.29 L 91.35 1013.34 L 88.35 1013.40 L 85.35 1013.43 L 82.35 1013.49 L 79.36 1013.56 L 76.36 1013.59 L 73.36 1013.63 L 70.36 1013.70 L 67.36 1013.77 L 64.36 1013.84 L 61.36 1013.89 L 58.36 1013.96 L 55.36 1014.02 L 52.36 1014.07 L 49.36 1014.12 L 46.36 1014.16 L 43.36 1014.20 L 40.36 1014.24 L 37.36 1014.28 L 34.36 1014.32 L 31.36 1014.37 L 28.36 1014.41 L 25.36 1014.42 L 22.36 1014.42 L 19.36 1014.43 L 16.36 1014.42 L 13.36 1014.42 L 10.36 1014.43 L 7.36 1014.44 L 4.36 1014.46 L 1.36 1014.50 L -1.64 1014.56 L -4.64 1014.61 L -7.64 1014.64 L -10.64 1014.68 L -13.64 1014.68 L -16.64 1014.69 L -19.64 1014.68 L -22.64 1014.69" stroke="rgb(245,245,245)" stroke-opacity="0.700" stroke-width="1.09" />
  <path d="M 1000.36 1001.95 L 1001.29 1003.02 L 1002.12 1004.13 L 1002.94 1005.23 L 1003.69 1006.39 L 1004.50 1007.51 L 1005.31 1008.67 L 1006.11 1009.84 L 1006.89 1011.01" stroke="rgb(205,165,255)" stroke-opacity="0.459" stroke-width="1.07" />
  <path d="M 996.21 999.93 L 994.76 1000.73 L 993.31 1001.53 L 991.86 1002.32 L 990.42 1003.10 L 989.04 1003.91 L 987.85 1004.66 L 986.54 1005.42 L 985.22 1006.16 L 983.90 1006.82 L 982.54 1007.52 L 981.22 1008.23 L 979.87 1008.95 L 978.52 1009.72 L 977.16 1010.48 L 975.80 1011.29 L 974.45 1012.09 L 973.18 1012.86 L 971.98 1013.63 L 970.79 1014.46 L 969.64 1015.28 L 968.47 1016.07 L 967.38 1016.80 L 966.30 1017.52 L 965.26 1018.28 L 964.34 1019.14 L 963.45 1020.01 L 962.61 1020.92 L 961.84 1021.74 L 961.02 1022.60 L 960.19 1023.43 L 959.42 1024.22 L 958.55 1024.98 L 957.62 1025.76 L 956.65 1026.63" stroke="rgb(205,165,255)" stroke-opacity="0.454" stroke-width="1.05" />
  <path d="M 1004.19 996.74 L 1004.74 997.41 L 1005.29 998.04" stroke="rgb(230,230,230)" stroke-opacity="0.388" stroke-width="0.72" />
  <path d="M 996.19 994.36 L 996.06 995.48 L 995.91 996.54 L 995.84 997.57 L 995.63 998.58 L 995.44 999.59" stroke="rgb(230,230,230)" stroke-opacity="0.387" stroke-width="0.72" />
  <path d="M 998.89 997.30 L 1000.04 997.02 L 1001.23 996.70 L 1002.41 996.36 L 1003.58 996.00 L 1004.77 995.64 L 1005.96 995.25 L 1007.12 994.86 L 1008.20 994.27 L 1009.39 993.61 L 1010.57 992.94 L 1011.75 992.23" stroke="rgb(230,230,230)" stroke-opacity="0.382" stroke-width="0.70" />
  <path d="M 997.18 993.83 L 997.07 994.09 L 996.93 994.43 L 996.88 994.86 L 996.81 995.29 L 996.73 995.74 L 996.71 996.21 L 996.74 996.64 L 996.70 997.17" stroke="rgb(230,230,230)" stroke-opacity="0.377" stroke-width="0.69" />
  <path d="M 1003.20 1001.45 L 1003.46 1000.78 L 1003.61 1000.09 L 1003.62 999.41 L 1003.59 998.76 L 1003.56 998.11 L 1003.71 997.61" stroke="rgb(230,230,230)" stroke-opacity="0.376" stroke-width="0.69" />
  <path d="M 1001.08 1003.21 L 1001.96 1002.15 L 1002.86 1001.09 L 1003.77 1000.04 L 1004.68 998.97" stroke="rgb(230,230,230)" stroke-opacity="0.374" stroke-width="0.68" />
  <path d="M 1003.35 998.61 L 1003.85 998.61 L 1004.37 998.77 L 1004.88 998.88 L 1005.30 998.95 L 1005.91 999.08 L 1006.43 999.38 L 1006.97 999.75 L 1007.54 1000.21" stroke="rgb(230,230,230)" stroke-opacity="0.374" stroke-width="0.68" />
  <path d="M 1011.40 998.53 L 1012.66 998.84 L 1013.89 999.16 L 1015.11 999.46 L 1016.33 999.74 L 1017.54 1000.01 L 1018.81 1000.25 L 1020.09 1000.40 L 1021.35 1000.47 L 1022.66 1000.50" stroke="rgb(230,230,230)" stroke-opacity="0.370" stroke-width="0.67" />
  <path d="M 1000.46 994.69 L 999.23 995.46 L 997.95 996.13 L 996.83 996.80 L 995.63 997.44 L 994.45 998.01 L 993.29 998.52 L 992.27 999.21 L 991.11 999.73 L 989.95 1000.23 L 988.80 1000.65" stroke="rgb(230,230,230)" stroke-opacity="0.370" stroke-width="0.67" />
  <path d="M 999.33 1000.62 L 998.65 1001.95 L 997.97 1003.28 L 997.25 1004.58 L 996.46 1005.83 L 995.56 1006.99 L 994.62 1008.11 L 993.61 1009.14" stroke="rgb(230,230,230)" stroke-opacity="0.370" stroke-width="0.67" />
  <path d="M 1001.78 1003.60 L 1003.16 1003.02 L 1004.54 1002.46 L 1005.92 1002.03 L 1007.35 1001.77 L 1008.64 1001.23 L 1009.82 1000.40 L 1010.87 999.48" stroke="rgb(230,230,230)" stroke-opacity="0.368" stroke-width="0.66" />
  <path d="M 992.55 999.86 L 993.87 1000.27 L 995.20 1000.61 L 996.49 1000.97" stroke="rgb(230,230,230)" stroke-opacity="0.366" stroke-width="0.66" />
  <path d="M 995.99 1006.09 L 995.00 1005.16 L 993.99 1004.32 L 993.02 1003.43 L 992.06 1002.55 L 991.07 1001.69 L 990.08 1000.89 L 989.16 999.99 L 988.26 999.01 L 987.38 998.00 L 986.47 996.98" stroke="rgb(230,230,230)" stroke-opacity="0.360" stroke-width="0.64" />
  <path d="M 998.26 1001.49 L 999.44 1002.40 L 1000.58 1003.33 L 1001.77 1004.16" stroke="rgb(230,230,230)" stroke-opacity="0.359" stroke-width="0.64" />
  <path d="M 1003.74 1000.11 L 1003.56 998.64 L 1003.09 997.23 L 1002.76 995.78 L 1002.45 994.33 L 1002.13 992.89 L 1001.75 991.47 L 1001.71 990.03 L 1001.55 988.62 L 1001.41 987.19 L 1001.27 985.76 L 1000.98 984.39 L 1000.67 983.02 L 1000.25 981.67 L 999.88 980.30 L 999.59 978.91 L 999.20 977.56 L 998.75 976.23" stroke="rgb(230,230,230)" stroke-opacity="0.358" stroke-width="0.63" />
  <path d="M 999.59 997.79 L 998.58 996.70 L 997.61 995.57 L 996.65 994.44 L 995.73 993.30 L 994.85 992.12 L 993.92 990.99 L 992.98 989.89 L 992.04 988.79 L 991.12 987.68" stroke="rgb(230,230,230)" stroke-opacity="0.355" stroke-width="0.62" />
  <path d="M 1002.51 1003.14 L 1002.17 1003.35 L 1001.92 1003.71 L 1001.69 1004.07 L 1001.52 1004.55 L 1001.37 1005.34 L 1001.19 1006.14 L 1000.92 1006.98 L 1000.93 1007.77 L 1000.94 1008.49 L 1000.98 1009.31 L 1001.02 1010.09 L 1001.09 1010.87 L 1001.19 1011.87 L 1001.34 1012.92 L 1001.53 1013.97 L 1001.65 1014.99 L 1001.71 1016.03" stroke="rgb(230,230,230)" stroke-opacity="0.355" stroke-width="0.62" />
  <path d="M 1003.72 1000.12 L 1004.05 998.71 L 1004.48 997.39 L 1004.96 996.09 L 1005.47 994.77 L 1005.98 993.45 L 1006.48 992.13 L 1006.92 990.78 L 1007.30 989.43 L 1007.75 988.11 L 1008.04 986.76" stroke="rgb(230,230,230)" stroke-opacity="0.353" stroke-width="0.62" />
</g>
</svg>
