<?xml version="1.0" encoding="UTF-8"?>
<svg xmlns="http://www.w3.org/2000/svg" width="2000" height="2000" viewBox="0 0 2000 2000">
<g fill="none" stroke-linecap="round" stroke-linejoin="round">
  <path d="M 998.68 997.02 L 995.71 995.34 L 992.73 993.68 L 989.76 992.04 L 986.80 990.42 L 983.87 988.75 L 980.94 987.13 L 978.04 985.48 L 975.15 983.84 L 972.28 982.18 L 969.42 980.55 L 966.56 978.94 L 963.71 977.32 L 960.88 975.71 L 958.06 974.11 L 955.24 972.53 L 952.44 970.94 L 949.68 969.31 L 946.91 967.72 L 944.15 966.13 L 941.41 964.54 L 938.68 962.97 L 935.93 961.44 L 933.19 959.92 L 930.45 958.43 L 927.74 956.92 L 925.03 955.43 L 922.33 953.94 L 919.66 952.43 L 917.01 950.90 L 914.38 949.38 L 911.74 947.89 L 909.11 946.39 L 906.50 944.90 L 903.93 943.37 L 901.36 941.85 L 898.82 940.30 L 896.29 938.76 L 893.77 937.24 L 891.26 935.72 L 888.74 934.24 L 886.25 932.72 L 883.78 931.20 L 881.33 929.67 L 878.89 928.15 L 876.45 926.64 L 874.04 925.12 L 871.64 923.60 L 869.26 922.07 L 866.88 920.56 L 864.51 919.05 L 862.16 917.54 L 859.84 915.99 L 857.54 914.45 L 855.25 912.91 L 852.95 911.39 L 850.68 909.85 L 848.41 908.34 L 846.16 906.82 L 843.91 905.30 L 841.63 903.86 L 839.36 902.43" stroke="rgb(120,210,255)" stroke-opacity="0.854" stroke-width="1.63" />
  <path d="M 997.06 999.88 L 994.40 998.18 L 991.75 996.49 L 989.13 994.77 L 986.52 993.06 L 983.92 991.36 L 981.34 989.65 L 978.77 987.97 L 976.22 986.26 L 973.68 984.57 L 971.15 982.87 L 968.67 981.13 L 966.20 979.40 L 963.77 977.63 L 961.36 975.86 L 958.94 974.11 L 956.58 972.33 L 954.20 970.57 L 951.84 968.82 L 949.49 967.06 L 947.13 965.33 L 944.77 963.63 L 942.40 961.95 L 940.05 960.27 L 937.72 958.58 L 935.41 956.87 L 933.09 955.20 L 930.79 953.51 L 928.51 951.83 L 926.23 950.16 L 923.98 948.48 L 921.73 946.81 L 919.52 945.10 L 917.33 943.40 L 915.16 941.68" stroke="rgb(120,210,255)" stroke-opacity="0.852" stroke-width="1.63" />
  <path d="M 1001.83 999.22 L 998.95 997.41 L 996.09 995.61 L 993.23 993.81 L 990.40 992.00 L 987.57 990.22 L 984.71 988.50 L 981.86 986.81 L 979.04 985.09 L 976.20 983.42 L 973.38 981.76 L 970.56 980.11" stroke="rgb(120,210,255)" stroke-opacity="0.846" stroke-width="1.61" />
  <path d="M 1001.38 1000.75 L 998.68 999.09 L 996.01 997.43 L 993.33 995.79 L 990.67 994.14 L 988.02 992.50 L 985.40 990.85 L 982.79 989.19 L 980.23 987.48 L 977.65 985.83 L 975.08 984.20 L 972.51 982.57 L 969.94 980.98 L 967.37 979.39 L 964.81 977.82 L 962.27 976.25 L 959.74 974.67 L 957.22 973.11 L 954.68 971.60 L 952.13 970.13 L 949.58 968.67 L 947.05 967.22 L 944.53 965.78 L 942.03 964.33 L 939.55 962.86 L 937.09 961.38 L 934.63 959.92 L 932.19 958.46 L 929.78 956.97 L 927.37 955.49 L 925.03 953.94 L 922.72 952.34 L 920.42 950.77 L 918.14 949.18 L 915.86 947.61 L 913.64 945.99 L 911.44 944.34 L 909.30 942.63 L 907.13 940.97 L 905.01 939.28 L 902.90 937.58 L 900.82 935.87 L 898.76 934.15 L 896.73 932.42 L 894.70 930.69 L 892.68 928.97 L 890.66 927.26 L 888.67 925.54 L 886.71 923.80 L 884.74 922.10 L 882.78 920.39 L 880.84 918.67 L 878.89 916.99 L 876.95 915.30 L 874.99 913.66" stroke="rgb(120,210,255)" stroke-opacity="0.846" stroke-width="1.61" />
  <path d="M 998.97 1000.07 L 996.09 998.23 L 993.23 996.40 L 990.35 994.60 L 987.48 992.83 L 984.62 991.06 L 981.77 989.30 L 978.94 987.53 L 976.13 985.76 L 973.37 983.94 L 970.61 982.13 L 967.83 980.39 L 965.05 978.67 L 962.28 976.96 L 959.51 975.28" stroke="rgb(120,210,255)" stroke-opacity="0.846" stroke-width="1.61" />
  <path d="M 929.38 953.97 L 926.66 952.02 L 923.95 950.07 L 921.24 948.14 L 918.52 946.23 L 915.82 944.34 L 913.20 942.37 L 910.54 940.49 L 907.90 938.62 L 905.25 936.77 L 902.64 934.88 L 900.06 932.96 L 897.50 931.02 L 894.93 929.15 L 892.35 927.30 L 889.77 925.44 L 887.21 923.60 L 884.66 921.77 L 882.07 920.00 L 879.54 918.19 L 876.99 916.43 L 874.47 914.65 L 871.93 912.92 L 869.42 911.16 L 866.90 909.43 L 864.33 907.78 L 861.77 906.12 L 859.19 904.53 L 856.62 902.94 L 854.06 901.35 L 851.49 899.81 L 848.92 898.30 L 846.36 896.80 L 843.80 895.33 L 841.25 893.86 L 838.73 892.37 L 836.24 890.84 L 833.79 889.30 L 831.35 887.76 L 828.93 886.18 L 826.52 884.62 L 824.11 883.07 L 821.72 881.53 L 819.34 879.98 L 816.92 878.51 L 814.51 877.04 L 812.11 875.59 L 809.74 874.10 L 807.40 872.57" stroke="rgb(120,210,255)" stroke-opacity="0.845" stroke-width="1.61" />
  <path d="M 999.19 1001.98 L 996.37 1000.17 L 993.56 998.39 L 990.76 996.62 L 987.97 994.84 L 985.19 993.09 L 982.41 991.36 L 979.63 989.65 L 976.87 987.94 L 974.14 986.20 L 971.42 984.47 L 968.72 982.74 L 966.03 981.01 L 963.35 979.29 L 960.66 977.60 L 957.99 975.91 L 955.33 974.23 L 952.70 972.52 L 950.12 970.77 L 947.56 969.01 L 945.01 967.25 L 942.48 965.50 L 939.95 963.77 L 937.43 962.04 L 934.92 960.31 L 932.42 958.59 L 929.92 956.90 L 927.43 955.22" stroke="rgb(120,210,255)" stroke-opacity="0.844" stroke-width="1.60" />
  <path d="M 952.05 968.62 L 949.19 967.11 L 946.39 965.53 L 943.61 963.95 L 940.85 962.38 L 938.10 960.80 L 935.37 959.22 L 932.58 957.74 L 929.81 956.26 L 927.03 954.83" stroke="rgb(120,210,255)" stroke-opacity="0.842" stroke-width="1.60" />
  <path d="M 899.87 941.44 L 897.06 939.90 L 894.28 938.37 L 891.51 936.83 L 888.71 935.36 L 885.87 934.03 L 883.05 932.70 L 880.23 931.37 L 877.43 930.09 L 874.65 928.81 L 871.87 927.55 L 869.12 926.29 L 866.35 925.03 L 863.60 923.79 L 860.83 922.60 L 858.09 921.42 L 855.36 920.25 L 852.62 919.14 L 849.90 918.07 L 847.19 917.00 L 844.45 916.02 L 841.72 915.04 L 839.01 914.04 L 836.30 913.03 L 833.59 912.04 L 830.90 911.06 L 828.19 910.09 L 825.52 909.09 L 822.89 908.01 L 820.26 906.94 L 817.63 905.89 L 815.00 904.89 L 812.38 903.91 L 809.76 902.91 L 807.13 901.95 L 804.57 900.91 L 801.99 899.88 L 799.43 898.87 L 796.86 897.94 L 794.30 897.02 L 791.74 896.19 L 789.18 895.38 L 786.64 894.57 L 784.10 893.77 L 781.57 892.96 L 779.05 892.17 L 776.55 891.41 L 774.06 890.64 L 771.53 889.91 L 769.00 889.19 L 766.46 888.51 L 763.94 887.82" stroke="rgb(120,210,255)" stroke-opacity="0.841" stroke-width="1.60" />
  <path d="M 1001.37 999.61 L 998.36 997.85 L 995.35 996.14 L 992.33 994.45 L 989.34 992.74 L 986.38 991.03 L 983.43 989.31 L 980.49 987.59 L 977.57 985.88 L 974.67 984.15 L 971.76 982.48 L 968.85 980.83 L 965.94 979.21 L 963.05 977.57 L 960.17 975.94 L 957.30 974.33 L 954.45 972.72 L 951.64 971.05 L 948.82 969.42 L 946.01 967.82 L 943.21 966.20 L 940.43 964.60 L 937.65 963.00 L 934.90 961.39 L 932.16 959.78 L 929.43 958.18 L 926.70 956.60 L 923.99 955.02 L 921.29 953.45 L 918.57 951.94 L 915.86 950.43 L 913.16 948.94 L 910.46 947.45 L 907.78 945.96 L 905.12 944.47 L 902.48 942.97 L 899.87 941.44 L 897.27 939.91 L 894.67 938.39 L 892.09 936.89 L 889.50 935.41 L 886.94 933.91 L 884.39 932.42 L 881.85 930.94 L 879.32 929.44 L 876.78 928.01 L 874.26 926.57 L 871.73 925.14 L 869.21 923.73 L 866.72 922.30 L 864.25 920.86 L 861.78 919.44" stroke="rgb(120,210,255)" stroke-opacity="0.841" stroke-width="1.60" />
  <path d="M 910.46 947.45 L 908.02 946.25 L 905.59 945.09 L 903.17 943.92 L 900.77 942.76 L 898.38 941.59 L 896.01 940.43 L 893.70 939.16 L 891.41 937.90 L 889.16 936.59 L 886.95 935.26 L 884.73 934.01 L 882.46 932.82 L 880.12 931.77 L 877.78 930.71 L 875.43 929.70 L 873.10 928.66 L 870.76 927.63 L 868.44 926.59 L 866.13 925.55 L 863.85 924.46 L 861.60 923.34 L 859.34 922.26 L 857.10 921.18 L 854.88 920.10 L 852.65 919.04 L 850.45 917.95 L 848.26 916.87 L 846.08 915.76 L 843.95 914.62 L 841.83 913.49 L 839.72 912.36 L 837.62 911.23 L 835.54 910.13 L 833.47 909.07 L 831.39 908.06" stroke="rgb(120,210,255)" stroke-opacity="0.453" stroke-width="1.55" />
  <path d="M 1002.50 999.83 L 1000.09 998.56 L 997.67 997.32 L 995.29 996.03 L 992.91 994.78 L 990.54 993.53 L 988.17 992.31 L 985.81 991.10 L 983.45 989.90 L 981.10 988.70 L 978.79 987.45 L 976.55 986.14 L 974.36 984.76 L 972.19 983.40 L 970.08 981.98 L 967.97 980.57 L 965.85 979.21 L 963.78 977.76 L 961.71 976.30 L 959.68 974.83 L 957.57 973.47 L 955.47 972.14 L 953.40 970.83 L 951.34 969.49 L 949.33 968.14 L 947.23 966.93 L 945.15 965.72 L 943.02 964.58 L 940.88 963.50 L 938.74 962.43 L 936.61 961.39 L 934.46 960.37 L 932.32 959.33 L 930.17 958.40 L 928.04 957.47 L 925.92 956.53 L 923.86 955.53 L 921.75 954.57 L 919.62 953.63 L 917.51 952.65 L 915.46 951.60" stroke="rgb(120,210,255)" stroke-opacity="0.450" stroke-width="1.53" />
  <path d="M 1001.98 998.44 L 999.79 997.13 L 997.61 995.83 L 995.46 994.50 L 993.33 993.15 L 991.20 991.82 L 989.08 990.51 L 986.88 989.36 L 984.67 988.22 L 982.48 987.09 L 980.34 985.89 L 978.22 984.67 L 976.15 983.40 L 974.08 982.15 L 971.99 980.96 L 969.93 979.75 L 967.89 978.52 L 965.88 977.28 L 963.89 975.99 L 961.89 974.76 L 959.90 973.53 L 957.91 972.32 L 955.95 971.07 L 953.99 969.84 L 952.05 968.62 L 950.09 967.40 L 948.14 966.20 L 946.20 965.00 L 944.30 963.74 L 942.42 962.48 L 940.55 961.23 L 938.66 960.01 L 936.78 958.80 L 934.88 957.61 L 933.00 956.44 L 931.15 955.24 L 929.38 953.97 L 927.63 952.69 L 925.84 951.45 L 924.04 950.26 L 922.21 949.12" stroke="rgb(120,210,255)" stroke-opacity="0.447" stroke-width="1.51" />
  <path d="M 994.30 1000.34 L 992.16 999.06 L 990.04 997.78 L 987.94 996.46 L 985.86 995.15 L 983.77 993.86 L 981.70 992.57 L 979.69 991.20 L 977.68 989.84 L 975.63 988.57 L 973.61 987.28 L 971.58 986.00 L 969.55 984.75 L 967.53 983.51 L 965.48 982.33 L 963.47 981.12 L 961.45 979.93 L 959.46 978.73 L 957.46 977.57 L 955.48 976.39 L 953.51 975.20 L 951.54 974.03 L 949.60 972.84 L 947.68 971.66 L 945.76 970.48 L 943.84 969.32 L 941.92 968.20 L 940.00 967.07 L 938.09 965.96 L 936.19 964.86 L 934.40 963.61 L 932.61 962.37 L 930.79 961.18 L 928.95 960.00 L 927.10 958.87 L 925.23 957.79 L 923.40 956.67 L 921.55 955.58 L 919.71 954.49 L 917.81 953.51 L 915.92 952.57 L 914.05 951.62 L 912.19 950.68 L 910.35 949.71 L 908.51 948.78 L 906.70 947.81 L 904.91 946.79 L 903.13 945.79 L 901.36 944.77 L 899.59 943.75" stroke="rgb(120,210,255)" stroke-opacity="0.441" stroke-width="1.48" />
  <path d="M 1002.32 999.77 L 1000.57 998.49 L 998.89 997.13 L 997.21 995.80 L 995.50 994.52 L 993.78 993.25 L 992.08 992.00 L 990.38 990.75 L 988.68 989.51 L 986.99 988.28 L 985.36 986.99 L 983.68 985.76 L 982.00 984.57 L 980.30 983.40 L 978.60 982.25 L 976.85 981.21 L 975.11 980.15 L 973.30 979.22 L 971.50 978.30 L 969.72 977.36 L 967.98 976.38 L 966.25 975.40 L 964.55 974.41 L 962.83 973.43 L 961.11 972.47 L 959.44 971.45 L 957.79 970.40 L 956.18 969.30 L 954.59 968.19 L 953.02 967.05 L 951.44 965.97 L 949.90 964.83 L 948.32 963.75 L 946.76 962.66 L 945.17 961.63 L 943.58 960.63 L 941.99 959.63 L 940.44 958.60 L 938.91 957.55 L 937.38 956.50 L 935.86 955.46 L 934.34 954.43 L 932.84 953.39 L 931.31 952.39 L 929.80 951.39 L 928.33 950.32 L 926.89 949.25 L 925.50 948.12 L 924.15 946.97 L 922.83 945.80 L 921.51 944.63 L 920.20 943.48 L 918.89 942.31" stroke="rgb(140,255,190)" stroke-opacity="0.584" stroke-width="1.29" />
  <path d="M 820.03 908.49 L 818.01 908.12 L 816.02 907.78 L 814.04 907.44 L 812.03 907.15 L 810.05 907.07 L 808.17 907.17 L 806.24 907.39 L 804.33 907.58" stroke="rgb(140,255,190)" stroke-opacity="0.577" stroke-width="1.27" />
  <path d="M 791.80 888.36 L 789.65 887.90 L 787.53 887.44 L 785.41 886.98 L 783.30 886.54 L 781.19 886.11 L 779.11 885.71 L 777.04 885.34 L 774.99 884.97 L 772.91 884.54 L 770.84 884.14 L 768.77 883.74 L 766.69 883.47 L 764.66 883.02 L 762.65 882.55 L 760.63 882.07 L 758.62 881.59" stroke="rgb(140,255,190)" stroke-opacity="0.575" stroke-width="1.26" />
  <path d="M 1003.25 1001.86 L 1001.54 1000.55 L 999.84 999.24 L 998.12 997.98 L 996.40 996.74 L 994.69 995.51 L 992.98 994.29 L 991.26 993.12 L 989.56 991.96 L 987.89 990.79 L 986.22 989.61 L 984.56 988.44 L 982.98 987.24 L 981.43 986.07 L 979.90 984.87 L 978.34 983.69 L 976.76 982.49 L 975.21 981.25 L 973.65 980.02 L 972.12 978.72 L 970.59 977.44 L 969.07 976.18 L 967.55 974.92 L 966.01 973.66" stroke="rgb(140,255,190)" stroke-opacity="0.569" stroke-width="1.24" />
  <path d="M 1001.52 1002.44 L 999.69 1001.15 L 997.86 999.88 L 996.14 998.48 L 994.41 997.11 L 992.66 995.77 L 990.93 994.43 L 989.20 993.09 L 987.59 991.63 L 985.98 990.19 L 984.40 988.72 L 982.82 987.26 L 981.27 985.78 L 979.69 984.35 L 978.08 982.97 L 976.41 981.69 L 974.74 980.41 L 973.05 979.19 L 971.36 977.98 L 969.68 976.77 L 968.02 975.55 L 966.38 974.33 L 964.68 973.20 L 962.97 972.11 L 961.28 971.02 L 959.59 969.93 L 957.91 968.83 L 956.23 967.77 L 954.56 966.70 L 952.91 965.63 L 951.24 964.61 L 949.59 963.59 L 947.93 962.61 L 946.31 961.57" stroke="rgb(140,255,190)" stroke-opacity="0.566" stroke-width="1.23" />
  <path d="M 997.89 997.38 L 995.19 996.13 L 992.48 994.90 L 989.78 993.67 L 987.08 992.45 L 984.37 991.24 L 981.68 990.03 L 978.99 988.82 L 976.31 987.62 L 973.64 986.43 L 970.98 985.26 L 968.32 984.08 L 965.66 982.94 L 962.98 981.84 L 960.31 980.73 L 957.67 979.58 L 955.05 978.43 L 952.44 977.28 L 949.84 976.08 L 947.25 974.87 L 944.68 973.67 L 942.11 972.48 L 939.55 971.26 L 937.01 970.04 L 934.48 968.82 L 931.94 967.60 L 929.40 966.37 L 926.88 965.13 L 924.34 963.96 L 921.80 962.81 L 919.26 961.68 L 916.74 960.54 L 914.23 959.42 L 911.75 958.25 L 909.29 957.10 L 906.84 955.98 L 904.40 954.87 L 901.96 953.79 L 899.52 952.72 L 897.09 951.69 L 894.67 950.66 L 892.26 949.65 L 889.87 948.63 L 887.48 947.62 L 885.10 946.62 L 882.76 945.55 L 880.44 944.48 L 878.13 943.43 L 875.83 942.38 L 873.54 941.34 L 871.23 940.28" stroke="rgb(205,165,255)" stroke-opacity="0.708" stroke-width="1.21" />
  <path d="M 1003.99 1002.01 L 1000.84 1001.15 L 997.71 1000.29 L 994.59 999.47 L 991.48 998.63 L 988.38 997.78 L 985.30 996.93 L 982.21 996.12 L 979.14 995.32 L 976.10 994.44 L 973.07 993.55 L 970.07 992.64 L 967.09 991.70 L 964.09 990.86 L 961.12 989.98 L 958.15 989.13 L 955.19 988.31 L 952.25 987.47 L 949.32 986.65 L 946.41 985.83 L 943.51 985.01 L 940.61 984.22 L 937.73 983.45 L 934.86 982.67 L 932.00 981.87 L 929.15 981.05 L 926.32 980.22 L 923.50 979.40 L 920.69 978.58 L 917.89 977.79 L 915.09 977.01 L 912.30 976.22 L 909.53 975.45 L 906.76 974.69 L 904.02 973.89 L 901.28 973.07 L 898.55 972.25 L 895.83 971.42 L 893.13 970.61 L 890.45 969.74 L 887.78 968.88 L 885.12 968.04 L 882.47 967.19 L 879.84 966.32 L 877.22 965.43 L 874.62 964.53 L 872.03 963.63 L 869.45 962.74 L 866.88 961.84 L 864.32 960.95 L 861.77 960.07 L 859.23 959.18 L 856.70 958.28 L 854.20 957.36 L 851.69 956.48 L 849.20 955.60 L 846.72 954.72 L 844.26 953.83 L 841.81 952.94 L 839.35 952.09" stroke="rgb(205,165,255)" stroke-opacity="0.707" stroke-width="1.21" />
  <path d="M 999.53 1005.25 L 997.42 1003.77 L 995.32 1002.28 L 993.20 1000.87 L 991.11 999.44 L 989.03 997.99 L 986.93 996.51 L 984.82 994.97 L 982.69 993.49 L 980.54 992.13 L 978.36 990.80 L 976.19 989.51 L 974.05 988.23 L 971.94 986.96 L 969.84 985.71 L 967.76 984.48 L 965.72 983.17 L 963.71 981.86 L 961.74 980.51 L 959.80 979.12 L 957.84 977.75 L 955.91 976.37 L 953.96 974.99 L 952.02 973.62 L 950.13 972.24 L 948.26 970.79 L 946.39 969.38 L 944.48 968.02 L 942.60 966.66 L 940.68 965.27 L 938.72 963.88 L 936.74 962.51 L 934.77 961.13 L 932.85 959.75 L 930.92 958.42 L 928.98 957.10 L 927.07 955.76 L 925.16 954.42 L 923.26 953.09 L 921.36 951.76" stroke="rgb(205,165,255)" stroke-opacity="0.492" stroke-width="1.19" />
  <path d="M 928.03 948.26 L 926.19 946.22 L 924.36 944.19 L 922.51 942.20 L 920.67 940.21 L 918.84 938.25 L 917.02 936.31 L 915.20 934.37 L 913.35 932.45 L 911.50 930.56 L 909.69 928.69 L 907.92 926.84 L 906.14 925.00 L 904.39 923.13 L 902.53 921.33 L 900.69 919.50 L 898.85 917.68 L 897.08 915.83 L 895.31 913.96 L 893.50 912.15 L 891.74 910.31 L 889.95 908.49 L 888.19 906.66 L 886.43 904.88 L 884.66 903.06 L 882.90 901.24 L 881.13 899.45 L 879.45 897.68 L 877.73 895.95 L 875.95 894.26 L 874.15 892.58 L 872.31 890.94 L 870.50 889.29 L 868.69 887.66 L 866.88 886.05 L 865.05 884.47 L 863.31 882.85 L 861.57 881.23 L 859.85 879.65 L 858.17 878.01 L 856.51 876.38 L 854.87 874.75 L 853.19 873.17 L 851.54 871.57 L 849.91 869.97 L 848.28 868.38 L 846.65 866.78 L 845.02 865.19 L 843.32 863.65 L 841.62 862.11 L 839.94 860.56 L 838.32 859.05 L 836.72 857.55 L 835.09 856.06 L 833.48 854.58 L 831.87 853.11 L 830.29 851.62 L 828.69 850.15 L 827.07 848.71 L 825.45 847.27 L 823.86 845.86 L 822.26 844.48 L 820.65 843.12 L 819.06 841.75 L 817.46 840.39 L 815.85 839.11 L 814.26 837.85 L 812.69 836.54 L 811.09 835.18 L 809.48 833.82 L 807.87 832.50 L 806.25 831.15 L 804.59 829.76 L 802.92 828.35 L 801.35 826.91 L 799.74 825.49 L 798.15 824.09 L 796.52 822.62 L 794.93 821.18 L 793.34 819.77 L 791.75 818.37 L 790.15 816.94 L 788.57 815.49 L 786.98 814.05 L 785.41 812.60 L 783.85 811.16 L 782.29 809.71 L 780.73 808.26 L 779.18 806.82 L 777.64 805.38 L 776.05 803.98 L 774.48 802.55 L 772.91 801.12" stroke="rgb(140,255,190)" stroke-opacity="0.737" stroke-width="1.19" />
  <path d="M 1003.68 1000.38 L 1006.48 1002.30 L 1009.28 1004.20 L 1012.06 1006.11 L 1014.85 1007.98 L 1017.62 1009.85 L 1020.42 1011.66 L 1023.17 1013.51 L 1025.88 1015.38 L 1028.59 1017.25 L 1031.29 1019.10 L 1033.98 1020.94 L 1036.67 1022.77 L 1039.38 1024.53 L 1042.09 1026.27 L 1044.80 1027.99 L 1047.49 1029.71 L 1050.16 1031.43 L 1052.83 1033.15 L 1055.51 1034.82 L 1058.17 1036.50 L 1060.80 1038.19 L 1063.38 1039.93 L 1065.96 1041.67 L 1068.53 1043.39 L 1071.11 1045.06 L 1073.69 1046.72 L 1076.25 1048.40 L 1078.80 1050.06 L 1081.38 1051.65 L 1083.95 1053.24 L 1086.51 1054.82 L 1089.05 1056.40 L 1091.59 1057.97 L 1094.11 1059.55 L 1096.62 1061.12 L 1099.09 1062.74 L 1101.52 1064.38 L 1103.94 1066.03 L 1106.34 1067.68 L 1108.75 1069.31 L 1111.18 1070.88 L 1113.59 1072.45 L 1115.99 1074.02 L 1118.39 1075.56 L 1120.80 1077.09 L 1123.18 1078.62 L 1125.55 1080.15 L 1127.91 1081.68 L 1130.25 1083.21" stroke="rgb(140,255,190)" stroke-opacity="0.735" stroke-width="1.18" />
  <path d="M 952.97 965.15 L 951.23 962.26 L 949.48 959.39 L 947.79 956.50 L 946.12 953.62 L 944.46 950.74 L 942.80 947.87 L 941.16 945.01 L 939.52 942.16 L 937.87 939.34 L 936.21 936.54 L 934.58 933.75 L 932.91 931.01 L 931.26 928.27 L 929.63 925.53 L 927.99 922.80 L 926.36 920.09 L 924.71 917.39 L 923.07 914.70 L 921.43 912.02 L 919.80 909.35 L 918.20 906.68 L 916.58 904.05 L 914.98 901.42 L 913.38 898.80 L 911.78 896.19 L 910.24 893.57 L 908.66 890.97 L 907.11 888.35 L 905.56 885.75 L 903.96 883.19 L 902.35 880.65 L 900.80 878.08 L 899.27 875.52 L 897.74 872.98 L 896.20 870.45 L 894.66 867.94" stroke="rgb(140,255,190)" stroke-opacity="0.735" stroke-width="1.18" />
  <path d="M 895.64 959.82 L 893.31 960.07 L 891.01 960.30 L 888.73 960.49 L 886.46 960.65 L 884.19 960.80 L 881.96 960.88 L 879.75 960.96 L 877.61 961.36 L 875.46 961.63 L 873.33 961.91 L 871.18 962.19 L 869.11 962.58 L 867.10 963.05 L 865.11 963.46 L 863.13 963.88 L 861.17 964.29 L 859.16 964.46 L 857.10 964.68 L 855.05 964.84 L 852.98 965.09 L 850.93 965.46 L 848.87 965.73 L 846.81 966.01 L 844.78 966.51 L 842.77 967.04 L 840.80 967.65 L 838.86 968.35 L 836.95 969.03" stroke="rgb(140,255,190)" stroke-opacity="0.550" stroke-width="1.18" />
  <path d="M 911.22 934.75 L 910.26 932.33 L 909.30 929.92 L 908.31 927.54 L 907.33 925.14 L 906.40 922.73 L 905.35 920.41 L 904.28 918.09 L 903.20 915.78 L 902.13 913.44 L 901.04 911.10 L 899.95 908.77 L 898.85 906.49 L 897.74 904.27 L 896.59 902.06 L 895.41 899.84 L 894.25 897.62 L 893.12 895.42 L 891.97 893.27 L 890.85 891.11 L 889.71 888.87 L 888.55 886.69 L 887.47 884.50 L 886.45 882.27 L 885.44 880.05 L 884.59 877.85 L 883.78 875.66 L 882.98 873.47 L 882.24 871.32 L 881.52 869.17 L 880.72 867.04 L 879.92 864.92 L 879.14 862.72 L 878.36 860.53 L 877.66 858.34 L 876.97 856.21 L 876.27 854.07 L 875.55 851.96 L 874.91 849.90 L 874.31 847.88 L 873.75 845.86 L 873.21 843.87 L 872.66 841.87 L 872.12 839.87 L 871.58 837.89 L 871.06 835.94 L 870.60 834.00 L 870.15 832.08" stroke="rgb(205,165,255)" stroke-opacity="0.695" stroke-width="1.17" />
  <path d="M 1001.18 997.60 L 998.34 995.81 L 995.53 994.02 L 992.71 992.25 L 989.91 990.50 L 987.09 988.79 L 984.28 987.08 L 981.48 985.40 L 978.68 983.74 L 975.88 982.11 L 973.09 980.46 L 970.33 978.82 L 967.56 977.19 L 964.79 975.61 L 962.00 974.08 L 959.22 972.56 L 956.46 971.03 L 953.73 969.47 L 950.99 967.96 L 948.26 966.46 L 945.54 964.97 L 942.82 963.49 L 940.12 962.02 L 937.44 960.52 L 934.77 959.03 L 932.12 957.53 L 929.49 956.03 L 926.86 954.55 L 924.24 953.07 L 921.64 951.59 L 919.08 950.06 L 916.53 948.54 L 913.99 947.02 L 911.46 945.51 L 908.94 944.01 L 906.45 942.47 L 903.95 940.99 L 901.46 939.51 L 898.99 938.01 L 896.53 936.51 L 894.08 935.02 L 891.65 933.53 L 889.21 932.08 L 886.76 930.66 L 884.33 929.22 L 881.90 927.82 L 879.46 926.45 L 877.01 925.12 L 874.55 923.84 L 872.12 922.53 L 869.69 921.22 L 867.30 919.88 L 864.92 918.55 L 862.55 917.21 L 860.19 915.88 L 857.84 914.55 L 855.50 913.22 L 853.21 911.84 L 850.93 910.46 L 848.66 909.09 L 846.39 907.72 L 844.13 906.37 L 841.88 905.02 L 839.67 903.64 L 837.45 902.27 L 835.24 900.91 L 833.04 899.56 L 830.90 898.14 L 828.76 896.74 L 826.62 895.37 L 824.48 894.00 L 822.36 892.63 L 820.26 891.25 L 818.18 889.85 L 816.11 888.45 L 814.06 887.03 L 812.00 885.66 L 809.93 884.31 L 807.89 882.95 L 805.85 881.58 L 803.83 880.22 L 801.81 878.87 L 799.80 877.51 L 797.81 876.15 L 795.84 874.78 L 793.88 873.42 L 791.93 872.05 L 790.00 870.67 L 788.08 869.29 L 786.16 867.92 L 784.26 866.55 L 782.37 865.18 L 780.48 863.82 L 778.59 862.47 L 776.68 861.18 L 774.77 859.90 L 772.87 858.62 L 770.98 857.35 L 769.07 856.12 L 767.17 854.89 L 765.27 853.68 L 763.37 852.48 L 761.48 851.29 L 759.58 850.12 L 757.71 848.94 L 755.85 847.75" stroke="rgb(140,255,190)" stroke-opacity="0.732" stroke-width="1.17" />
  <path d="M 1000.41 1002.96 L 998.27 1002.90 L 996.18 1002.80 L 994.14 1002.72 L 992.11 1002.65 L 990.07 1002.64 L 988.04 1002.61 L 986.00 1002.51 L 983.96 1002.42 L 981.95 1002.37 L 979.98 1002.35 L 978.03 1002.32 L 976.08 1002.28 L 974.09 1002.30 L 972.14 1002.33 L 970.20 1002.41 L 968.27 1002.49 L 966.33 1002.60 L 964.40 1002.71 L 962.44 1002.77 L 960.53 1002.82 L 958.60 1002.90 L 956.66 1003.07 L 954.73 1003.25 L 952.80 1003.42" stroke="rgb(205,165,255)" stroke-opacity="0.486" stroke-width="1.17" />
  <path d="M 1000.65 998.46 L 997.95 996.87 L 995.24 995.30 L 992.54 993.75 L 989.87 992.18 L 987.21 990.61 L 984.55 989.06 L 981.91 987.52 L 979.29 985.95 L 976.67 984.43 L 974.03 982.95 L 971.39 981.49 L 968.76 980.05 L 966.16 978.56 L 963.62 977.02 L 961.07 975.49 L 958.53 973.99 L 956.01 972.48 L 953.49 970.98 L 950.98 969.48 L 948.49 968.00 L 946.00 966.51 L 943.53 965.03 L 941.08 963.54 L 938.63 962.06 L 936.19 960.60 L 933.74 959.16 L 931.32 957.71 L 928.91 956.27 L 926.52 954.80 L 924.13 953.36 L 921.78 951.88 L 919.44 950.39 L 917.12 948.91 L 914.79 947.44 L 912.50 945.94 L 910.22 944.45 L 907.94 942.98 L 905.67 941.50 L 903.40 940.06 L 901.13 938.63 L 898.86 937.22 L 896.61 935.79 L 894.36 934.39 L 892.11 933.01 L 889.88 931.61 L 887.68 930.20 L 885.48 928.79 L 883.30 927.37 L 881.17 925.91 L 879.04 924.46 L 876.92 923.01 L 874.82 921.54 L 872.74 920.09 L 870.66 918.64 L 868.59 917.19 L 866.51 915.76 L 864.45 914.34 L 862.40 912.92 L 860.36 911.50 L 858.32 910.09 L 856.32 908.65 L 854.34 907.19 L 852.37 905.75 L 850.39 904.33" stroke="rgb(205,165,255)" stroke-opacity="0.694" stroke-width="1.17" />
  <path d="M 734.05 868.59 L 730.73 868.26 L 727.43 867.95 L 724.15 867.58 L 720.87 867.23 L 717.61 866.87 L 714.38 866.43 L 711.16 865.99 L 707.96 865.49 L 704.78 864.96 L 701.62 864.44 L 698.47 863.88 L 695.33 863.40 L 692.21 862.92 L 689.10 862.44 L 686.01 861.98 L 682.92 861.54 L 679.85 861.09 L 676.79 860.63 L 673.74 860.18 L 670.72 859.62 L 667.71 859.09 L 664.72 858.57 L 661.74 858.07 L 658.77 857.53" stroke="rgb(140,255,190)" stroke-opacity="0.731" stroke-width="1.17" />
  <path d="M 1002.00 999.22 L 998.98 997.59 L 995.96 995.98 L 992.95 994.38 L 989.97 992.77 L 986.99 991.16 L 984.02 989.58 L 981.04 988.03 L 978.08 986.48 L 975.13 984.95 L 972.20 983.40 L 969.28 981.87 L 966.37 980.34 L 963.48 978.82 L 960.60 977.29 L 957.73 975.78 L 954.88 974.24 L 952.04 972.71 L 949.21 971.21 L 946.39 969.72" stroke="rgb(140,255,190)" stroke-opacity="0.731" stroke-width="1.17" />
  <path d="M 1000.91 1001.67 L 998.14 999.78 L 995.35 997.94 L 992.57 996.11 L 989.82 994.27 L 987.07 992.43 L 984.33 990.62 L 981.60 988.81 L 978.88 987.00 L 976.17 985.21 L 973.47 983.42 L 970.79 981.64 L 968.10 979.88 L 965.43 978.14 L 962.74 976.44 L 960.05 974.75 L 957.38 973.07 L 954.72 971.39 L 952.07 969.71 L 949.43 968.04 L 946.80 966.38 L 944.16 964.77 L 941.51 963.19 L 938.87 961.61 L 936.24 960.04 L 933.60 958.52 L 930.97 957.00 L 928.34 955.50 L 925.75 953.96 L 923.18 952.41 L 920.62 950.87 L 918.07 949.32 L 915.54 947.78 L 913.04 946.21 L 910.55 944.64 L 908.08 943.07 L 905.63 941.48 L 903.20 939.89 L 900.78 938.30 L 898.38 936.72 L 895.98 935.13 L 893.57 933.59 L 891.18 932.05 L 888.79 930.53 L 886.38 929.04 L 884.00 927.55 L 881.63 926.04 L 879.27 924.55 L 876.92 923.07 L 874.57 921.60 L 872.23 920.14 L 869.89 918.70 L 867.57 917.26 L 865.26 915.82 L 862.96 914.38 L 860.64 912.98 L 858.33 911.60 L 856.01 910.25 L 853.70 908.91 L 851.37 907.63 L 849.07 906.32 L 846.79 905.00 L 844.51 903.69 L 842.23 902.40 L 839.97 901.11" stroke="rgb(140,255,190)" stroke-opacity="0.731" stroke-width="1.17" />
  <path d="M 1001.10 1003.07 L 998.83 1001.29 L 996.52 999.60 L 994.22 997.92 L 991.93 996.26 L 989.65 994.60 L 987.42 992.92 L 985.20 991.26 L 982.98 989.61 L 980.81 987.94 L 978.61 986.30 L 976.44 984.65 L 974.33 982.90 L 972.26 981.07 L 970.22 979.25 L 968.19 977.42 L 966.16 975.61 L 964.19 973.78 L 962.21 971.97 L 960.24 970.15 L 958.30 968.33 L 956.35 966.53 L 954.41 964.72 L 952.43 962.97 L 950.47 961.21 L 948.58 959.41 L 946.69 957.67 L 944.83 955.89 L 942.93 954.19" stroke="rgb(205,165,255)" stroke-opacity="0.485" stroke-width="1.17" />
  <path d="M 1000.37 1000.21 L 997.57 998.49 L 994.78 996.78 L 992.00 995.09 L 989.23 993.39 L 986.46 991.72 L 983.70 990.06 L 980.96 988.40 L 978.22 986.75 L 975.50 985.10 L 972.80 983.45 L 970.11 981.78 L 967.44 980.13 L 964.83 978.40 L 962.18 976.75 L 959.54 975.10 L 956.92 973.45 L 954.31 971.82 L 951.71 970.18 L 949.10 968.58 L 946.52 966.97 L 943.95 965.36 L 941.40 963.73 L 938.87 962.09 L 936.38 960.42" stroke="rgb(140,255,190)" stroke-opacity="0.730" stroke-width="1.17" />
  <path d="M 1001.02 997.47 L 998.08 995.70 L 995.16 993.94 L 992.23 992.20 L 989.32 990.47 L 986.41 988.76 L 983.50 987.06 L 980.61 985.37 L 977.72 983.70 L 974.86 982.02 L 972.01 980.34 L 969.19 978.63 L 966.38 976.93 L 963.55 975.30 L 960.72 973.68 L 957.91 972.06 L 955.12 970.44 L 952.33 968.84 L 949.57 967.22 L 946.80 965.62 L 944.06 964.02 L 941.32 962.42 L 938.59 960.85 L 935.87 959.27 L 933.17 957.70 L 930.46 956.15 L 927.78 954.60 L 925.09 953.07 L 922.38 951.60" stroke="rgb(140,255,190)" stroke-opacity="0.730" stroke-width="1.17" />
  <path d="M 935.87 959.27 L 934.16 956.45 L 932.49 953.61 L 930.82 950.79 L 929.21 947.95 L 927.57 945.14 L 925.87 942.38 L 924.16 939.63 L 922.46 936.90 L 920.73 934.20 L 918.99 931.52 L 917.23 928.87 L 915.48 926.23 L 913.74 923.60 L 912.00 920.98 L 910.22 918.41 L 908.41 915.87 L 906.64 913.31 L 904.85 910.80 L 903.07 908.28 L 901.35 905.74 L 899.71 903.16 L 898.06 900.60 L 896.41 898.05" stroke="rgb(140,255,190)" stroke-opacity="0.729" stroke-width="1.17" />
  <path d="M 934.84 948.56 L 931.68 947.73 L 928.54 946.85 L 925.43 945.96 L 922.32 945.05 L 919.24 944.14 L 916.15 943.26 L 913.08 942.45 L 910.02 941.62 L 906.99 940.71 L 903.98 939.80 L 900.98 938.92 L 897.98 938.05 L 894.99 937.21 L 892.02 936.35 L 889.06 935.49 L 886.10 934.70 L 883.16 933.92 L 880.22 933.18 L 877.29 932.42 L 874.39 931.66 L 871.49 930.96 L 868.60 930.24 L 865.75 929.50 L 862.90 928.76 L 860.05 928.02 L 857.24 927.25" stroke="rgb(140,255,190)" stroke-opacity="0.729" stroke-width="1.17" />
  <path d="M 1000.49 1001.42 L 997.69 1001.54 L 994.92 1001.65 L 992.16 1001.76 L 989.43 1001.88 L 986.69 1001.96 L 983.96 1002.03 L 981.26 1002.06 L 978.57 1002.07 L 975.90 1002.07" stroke="rgb(205,165,255)" stroke-opacity="0.484" stroke-width="1.17" />
  <path d="M 920.97 940.44 L 917.73 939.62 L 914.50 938.77 L 911.29 937.92 L 908.08 937.09 L 904.89 936.28 L 901.73 935.43 L 898.57 934.66 L 895.42 933.82 L 892.30 932.93 L 889.20 932.02 L 886.11 931.10 L 883.04 930.16 L 880.02 929.16 L 877.02 928.16 L 874.02 927.17 L 871.05 926.17 L 868.09 925.20 L 865.16 924.21 L 862.25 923.19 L 859.33 922.21 L 856.45 921.18 L 853.57 920.18 L 850.73 919.20 L 847.90 918.21 L 845.09 917.15 L 842.30 916.11 L 839.52 915.05 L 836.72 914.03 L 833.93 913.04 L 831.13 912.12 L 828.34 911.19 L 825.56 910.28 L 822.79 909.38 L 820.03 908.49 L 817.28 907.60 L 814.52 906.75 L 811.77 905.90 L 809.04 905.02" stroke="rgb(140,255,190)" stroke-opacity="0.728" stroke-width="1.16" />
  <path d="M 1000.91 999.86 L 998.86 998.77 L 996.84 997.63 L 994.85 996.44 L 992.87 995.27 L 990.94 994.04 L 989.03 992.79 L 987.15 991.50 L 985.28 990.22 L 983.39 988.99 L 981.48 987.80 L 979.59 986.60 L 977.65 985.50 L 975.73 984.39 L 973.79 983.31 L 971.88 982.20 L 969.97 981.12 L 968.07 980.04 L 966.18 978.98 L 964.30 977.92 L 962.42 976.88 L 960.55 975.83 L 958.66 974.82 L 956.78 973.80 L 954.97 972.68 L 953.12 971.62 L 951.28 970.59 L 949.46 969.54 L 947.63 968.51 L 945.75 967.61 L 943.96 966.59 L 942.14 965.63 L 940.32 964.73 L 938.51 963.80 L 936.72 962.88 L 934.94 961.94 L 933.22 960.91 L 931.54 959.87 L 929.85 958.88 L 928.17 957.88 L 926.45 956.98 L 924.67 956.19" stroke="rgb(140,255,190)" stroke-opacity="0.546" stroke-width="1.16" />
  <path d="M 996.22 996.94 L 993.48 995.24 L 990.79 993.50 L 988.10 991.77 L 985.43 990.04 L 982.77 988.31 L 980.11 986.60 L 977.45 984.92 L 974.79 983.27 L 972.13 981.63 L 969.48 980.02 L 966.79 978.48 L 964.12 976.94 L 961.44 975.44 L 958.77 973.94 L 956.17 972.35 L 953.60 970.74 L 951.06 969.11 L 948.54 967.45 L 946.04 965.79 L 943.55 964.14 L 941.07 962.50 L 938.58 960.89 L 936.13 959.26 L 933.68 957.63 L 931.23 956.02 L 928.80 954.42 L 926.39 952.79 L 924.04 951.11 L 921.66 949.48 L 919.31 947.84 L 916.96 946.22 L 914.61 944.61 L 912.24 943.06 L 909.89 941.49 L 907.55 939.93 L 905.21 938.39 L 902.89 936.85 L 900.60 935.27 L 898.33 933.69 L 896.08 932.10 L 893.86 930.49 L 891.65 928.88 L 889.46 927.27 L 887.27 925.66 L 885.09 924.07 L 882.91 922.49 L 880.73 920.93 L 878.52 919.44 L 876.33 917.95 L 874.12 916.48 L 871.93 915.02 L 869.76 913.55 L 867.61 912.06 L 865.44 910.61 L 863.31 909.13 L 861.20 907.66 L 859.09 906.18 L 856.99 904.72 L 854.89 903.27 L 852.81 901.82" stroke="rgb(140,255,190)" stroke-opacity="0.726" stroke-width="1.16" />
  <path d="M 998.53 1002.50 L 999.34 1004.61 L 1000.15 1006.75 L 1000.95 1008.87 L 1001.75 1010.98 L 1002.54 1012.98 L 1003.32 1015.00 L 1004.12 1017.00 L 1004.90 1018.99 L 1005.65 1020.99 L 1006.42 1022.94 L 1007.16 1024.87 L 1007.89 1026.79 L 1008.69 1028.70 L 1009.34 1030.61 L 1009.95 1032.49 L 1010.49 1034.33 L 1011.07 1036.11 L 1011.66 1037.87 L 1012.30 1039.60 L 1012.94 1041.32 L 1013.68 1043.02 L 1014.38 1044.70 L 1015.06 1046.34" stroke="rgb(205,165,255)" stroke-opacity="0.482" stroke-width="1.16" />
  <path d="M 972.12 978.72 L 969.91 977.32 L 967.73 975.87 L 965.60 974.41 L 963.48 972.99 L 961.42 971.54 L 959.35 970.02 L 957.28 968.46 L 955.23 966.88 L 953.18 965.31 L 951.16 963.72 L 949.19 962.10 L 947.23 960.49 L 945.33 958.93 L 943.44 957.25 L 941.55 955.54 L 939.71 953.81 L 937.86 952.13 L 936.06 950.38 L 934.28 948.63 L 932.53 946.89 L 930.79 945.17 L 928.99 943.44 L 927.14 941.72 L 925.38 939.96 L 923.60 938.24 L 921.88 936.51 L 920.12 934.81 L 918.42 933.11 L 916.73 931.41 L 915.04 929.68 L 913.36 927.95 L 911.74 926.21 L 910.22 924.42 L 908.72 922.65 L 907.21 920.84 L 905.69 919.05 L 904.19 917.26 L 902.69 915.50 L 901.19 913.76 L 899.70 912.02 L 898.19 910.30" stroke="rgb(140,255,190)" stroke-opacity="0.726" stroke-width="1.16" />
  <path d="M 969.85 981.60 L 966.59 980.88 L 963.36 980.11 L 960.16 979.31 L 956.98 978.52 L 953.80 977.73 L 950.65 976.93 L 947.50 976.13 L 944.36 975.39 L 941.24 974.64 L 938.12 973.89 L 935.00 973.17 L 931.90 972.45 L 928.82 971.72 L 925.75 971.06 L 922.70 970.38 L 919.67 969.74 L 916.65 969.06" stroke="rgb(140,255,190)" stroke-opacity="0.725" stroke-width="1.16" />
  <path d="M 847.90 918.21 L 845.85 917.06 L 843.87 915.88 L 841.94 914.65 L 839.93 913.56 L 837.96 912.42 L 836.00 911.28 L 834.06 910.12 L 832.14 908.94 L 830.25 907.74 L 828.37 906.53 L 826.48 905.32 L 824.67 903.99 L 822.86 902.69 L 821.07 901.45 L 819.29 900.25 L 817.53 899.02 L 815.79 897.80 L 813.98 896.63 L 812.26 895.32 L 810.55 894.01 L 808.84 892.70 L 807.07 891.46 L 805.28 890.26 L 803.50 889.06 L 801.72 887.87 L 799.90 886.79 L 798.12 885.71 L 796.33 884.65 L 794.58 883.61 L 792.82 882.57 L 791.09 881.56 L 789.37 880.48 L 787.77 879.29 L 786.13 878.15 L 784.50 877.01 L 782.88 875.86" stroke="rgb(140,255,190)" stroke-opacity="0.543" stroke-width="1.15" />
  <path d="M 801.32 908.10 L 798.20 907.61 L 795.07 907.11 L 791.96 906.64 L 788.84 906.27 L 785.73 905.87 L 782.64 905.45 L 779.56 905.05 L 776.50 904.54 L 773.45 904.02 L 770.45 903.44 L 767.46 902.80 L 764.48 902.17 L 761.50 901.62 L 758.54 901.10 L 755.59 900.55 L 752.63 900.05 L 749.68 899.51 L 746.75 898.96 L 743.82 898.42 L 740.92 897.85 L 738.05 897.26" stroke="rgb(140,255,190)" stroke-opacity="0.721" stroke-width="1.15" />
  <path d="M 1000.19 1000.63 L 1000.73 1003.22 L 1001.23 1005.82 L 1001.78 1008.44 L 1002.34 1011.03 L 1002.88 1013.56 L 1003.43 1016.09 L 1004.00 1018.64 L 1004.56 1021.17 L 1005.15 1023.70 L 1005.73 1026.22 L 1006.33 1028.73 L 1006.84 1031.26 L 1007.34 1033.76 L 1007.84 1036.23 L 1008.29 1038.69 L 1008.75 1041.15 L 1009.22 1043.59 L 1009.62 1046.04 L 1010.04 1048.49 L 1010.41 1050.92 L 1010.79 1053.35 L 1011.18 1055.74 L 1011.55 1058.11 L 1011.90 1060.43" stroke="rgb(205,165,255)" stroke-opacity="0.477" stroke-width="1.14" />
  <path d="M 966.38 976.93 L 964.10 975.12 L 961.83 973.31 L 959.55 971.52 L 957.22 969.83 L 954.93 968.10 L 952.67 966.35 L 950.37 964.66 L 948.08 963.01 L 945.83 961.34 L 943.56 959.72 L 941.30 958.09 L 939.07 956.46 L 936.85 954.82 L 934.67 953.13 L 932.46 951.49 L 930.25 949.85 L 928.03 948.26 L 925.80 946.70 L 923.60 945.22 L 921.42 943.70 L 919.23 942.17 L 917.06 940.65 L 914.82 939.20 L 912.61 937.68 L 910.45 936.10 L 908.30 934.52 L 906.13 932.99 L 904.00 931.41 L 901.88 929.84 L 899.79 928.25 L 897.69 926.72 L 895.61 925.19 L 893.55 923.66 L 891.51 922.20 L 889.49 920.72 L 887.47 919.26 L 885.42 917.88 L 883.37 916.52 L 881.41 915.09 L 879.51 913.61 L 877.62 912.15 L 875.75 910.68" stroke="rgb(140,255,190)" stroke-opacity="0.538" stroke-width="1.14" />
  <path d="M 890.26 932.47 L 888.69 929.70 L 887.08 926.98 L 885.48 924.26 L 883.96 921.50 L 882.44 918.76 L 880.99 916.00 L 879.58 913.22 L 878.21 910.44 L 876.87 907.66 L 875.54 904.89 L 874.23 902.13 L 872.89 899.39 L 871.51 896.68 L 870.15 893.98 L 868.85 891.26 L 867.48 888.59 L 866.11 885.93 L 864.72 883.30 L 863.33 880.68 L 861.95 878.07 L 860.58 875.47 L 859.21 872.88 L 857.88 870.28 L 856.57 867.70 L 855.26 865.13 L 853.98 862.55 L 852.68 860.00 L 851.38 857.46" stroke="rgb(140,255,190)" stroke-opacity="0.715" stroke-width="1.13" />
  <path d="M 837.45 902.27 L 834.49 901.37 L 831.55 900.47 L 828.62 899.60 L 825.70 898.73 L 822.81 897.86 L 819.92 897.00 L 817.04 896.16 L 814.18 895.30 L 811.33 894.46 L 808.47 893.69 L 805.63 892.92 L 802.83 892.04 L 800.06 891.14 L 797.28 890.27 L 794.53 889.31 L 791.80 888.36 L 789.08 887.41 L 786.37 886.47 L 783.66 885.55 L 780.96 884.64 L 778.25 883.73 L 775.58 882.73 L 772.92 881.76 L 770.26 880.79 L 767.63 879.80 L 765.03 878.80 L 762.42 877.84 L 759.84 876.87 L 757.24 875.94 L 754.67 875.02 L 752.10 874.12 L 749.50 873.33 L 746.91 872.52 L 744.33 871.71 L 741.75 870.89 L 739.18 870.10 L 736.61 869.33 L 734.05 868.59 L 731.51 867.82 L 728.96 867.09 L 726.44 866.32 L 723.92 865.53 L 721.41 864.78 L 718.90 864.02 L 716.39 863.29 L 713.89 862.58 L 711.41 861.86 L 708.91 861.22" stroke="rgb(140,255,190)" stroke-opacity="0.714" stroke-width="1.13" />
  <path d="M 1000.56 999.51 L 998.07 997.85 L 995.62 996.14 L 993.18 994.44 L 990.74 992.77 L 988.33 991.06 L 985.90 989.43 L 983.47 987.80 L 981.06 986.17 L 978.67 984.53 L 976.29 982.89 L 973.92 981.25 L 971.62 979.54 L 969.35 977.81 L 967.09 976.08 L 964.83 974.36 L 962.62 972.61 L 960.51 970.75 L 958.40 968.91 L 956.29 967.08 L 954.18 965.28 L 952.06 963.51 L 949.92 961.77 L 947.80 960.03 L 945.69 958.30 L 943.56 956.60" stroke="rgb(140,255,190)" stroke-opacity="0.534" stroke-width="1.12" />
  <path d="M 1000.29 1002.24 L 997.73 1000.51 L 995.17 998.80 L 992.61 997.10 L 990.06 995.41 L 987.56 993.66 L 985.08 991.91 L 982.60 990.18 L 980.11 988.49 L 977.63 986.81 L 975.17 985.11 L 972.69 983.47 L 970.19 981.88 L 967.70 980.29 L 965.20 978.74 L 962.70 977.22 L 960.20 975.72 L 957.75 974.16 L 955.31 972.60 L 952.89 971.04 L 950.49 969.46 L 948.10 967.90 L 945.73 966.32 L 943.36 964.76 L 941.02 963.18 L 938.66 961.64 L 936.32 960.10 L 934.01 958.55 L 931.68 957.02 L 929.36 955.52 L 927.03 954.05 L 924.70 952.59 L 922.35 951.19 L 920.02 949.79 L 917.71 948.36 L 915.44 946.90 L 913.16 945.46 L 910.90 944.03 L 908.60 942.66 L 906.32 941.30 L 904.03 939.97 L 901.72 938.70 L 899.41 937.43 L 897.12 936.17 L 894.83 934.93 L 892.55 933.68 L 890.26 932.47 L 887.99 931.26 L 885.71 930.09 L 883.46 928.87 L 881.23 927.66 L 879.01 926.44 L 876.82 925.17 L 874.62 923.96 L 872.44 922.74 L 870.25 921.53 L 868.06 920.36 L 865.87 919.21 L 863.69 918.07 L 861.51 916.95 L 859.35 915.82 L 857.20 914.69 L 855.03 913.61 L 852.86 912.56 L 850.71 911.49 L 848.57 910.42 L 846.42 909.38 L 844.28 908.36 L 842.15 907.35 L 840.02 906.36 L 837.87 905.42 L 835.75 904.45 L 833.63 903.50 L 831.53 902.55 L 829.45 901.56 L 827.40 900.53 L 825.37 899.49 L 823.35 898.46 L 821.35 897.41 L 819.33 896.39 L 817.32 895.39 L 815.31 894.40 L 813.29 893.44 L 811.29 892.48 L 809.29 891.52 L 807.29 890.58 L 805.29 889.66 L 803.31 888.73 L 801.36 887.74 L 799.42 886.77 L 797.49 885.80 L 795.57 884.82 L 793.63 883.89 L 791.70 882.98 L 789.75 882.12 L 787.82 881.24 L 785.90 880.35 L 784.00 879.45 L 782.10 878.56 L 780.19 877.72 L 778.27 876.92 L 776.35 876.13 L 774.45 875.33 L 772.55 874.53 L 770.67 873.73 L 768.79 872.92 L 766.93 872.11 L 765.07 871.31 L 763.22 870.53 L 761.37 869.74 L 759.54 868.93 L 757.73 868.10 L 755.91 867.31 L 754.09 866.52" stroke="rgb(140,255,190)" stroke-opacity="0.533" stroke-width="1.12" />
  <path d="M 999.30 998.20 L 996.90 996.30 L 994.50 994.40 L 992.13 992.51 L 989.74 990.64 L 987.41 988.72 L 985.12 986.78 L 982.80 984.89 L 980.42 983.08 L 978.06 981.29 L 975.70 979.50 L 973.33 977.75 L 970.97 976.01 L 968.61 974.29 L 966.26 972.57 L 963.92 970.86 L 961.57 969.19 L 959.27 967.46 L 956.96 965.76 L 954.65 964.09 L 952.35 962.42 L 950.08 960.73 L 947.88 958.97 L 945.67 957.23 L 943.49 955.48 L 941.33 953.72 L 939.18 951.97 L 937.01 950.26 L 934.84 948.56 L 932.71 946.84 L 930.59 945.12 L 928.44 943.45 L 926.30 941.79 L 924.17 940.14 L 922.10 938.43 L 920.04 936.72 L 917.98 935.02 L 915.94 933.32 L 913.92 931.62 L 911.90 929.93 L 909.88 928.25 L 907.84 926.62 L 905.81 924.99 L 903.77 923.39 L 901.79 921.74 L 899.82 920.08 L 897.87 918.43" stroke="rgb(140,255,190)" stroke-opacity="0.532" stroke-width="1.12" />
  <path d="M 865.39 941.36 L 862.37 941.27 L 859.35 941.22 L 856.35 941.17 L 853.37 941.19 L 850.40 941.30 L 847.43 941.38 L 844.47 941.39 L 841.52 941.47 L 838.58 941.49 L 835.65 941.54 L 832.73 941.58 L 829.84 941.70 L 826.96 941.87 L 824.10 942.13 L 821.26 942.46 L 818.43 942.84 L 815.61 943.28 L 812.80 943.72 L 810.00 944.15 L 807.22 944.63 L 804.45 945.08 L 801.68 945.50 L 798.93 945.93 L 796.20 946.38 L 793.47 946.82 L 790.76 947.25 L 788.05 947.65 L 785.35 948.06 L 782.67 948.47 L 779.99 948.87 L 777.32 949.28 L 774.66 949.69 L 772.01 950.09 L 769.37 950.46 L 766.75 950.91 L 764.13 951.32 L 761.53 951.73 L 758.94 952.15 L 756.37 952.64 L 753.81 953.11 L 751.28 953.68 L 748.75 954.18 L 746.22 954.68 L 743.73 955.26 L 741.25 955.88 L 738.80 956.52 L 736.34 957.10 L 733.88 957.60 L 731.43 958.10 L 728.98 958.56 L 726.55 959.04 L 724.13 959.48 L 721.73 959.96 L 719.34 960.45 L 716.96 960.95 L 714.60 961.45 L 712.27 961.84 L 709.95 962.32 L 707.66 962.77 L 705.39 963.22 L 703.14 963.66 L 700.91 964.12 L 698.69 964.61 L 696.47 965.08 L 694.24 965.59" stroke="rgb(140,255,190)" stroke-opacity="0.532" stroke-width="1.12" />
  <path d="M 938.63 962.06 L 936.88 960.26 L 935.14 958.49 L 933.41 956.74 L 931.70 954.98 L 929.93 953.29 L 928.16 951.59 L 926.37 949.91 L 924.58 948.23 L 922.81 946.56 L 921.05 944.89 L 919.31 943.20 L 917.62 941.51 L 915.96 939.84 L 914.38 938.14 L 912.79 936.46 L 911.22 934.75 L 909.64 933.08 L 908.06 931.42 L 906.53 929.68 L 905.06 927.98 L 903.55 926.22 L 902.08 924.43 L 900.57 922.69 L 899.10 920.90 L 897.66 919.10 L 896.29 917.26 L 895.01 915.37 L 893.79 913.43 L 892.60 911.49 L 891.41 909.56" stroke="rgb(205,165,255)" stroke-opacity="0.471" stroke-width="1.12" />
  <path d="M 894.42 949.89 L 892.15 949.05 L 889.97 947.99 L 887.80 946.92 L 885.64 945.84 L 883.45 944.83 L 881.29 943.82 L 879.15 942.75 L 877.03 941.69" stroke="rgb(140,255,190)" stroke-opacity="0.531" stroke-width="1.11" />
  <path d="M 972.12 978.72 L 969.79 977.97 L 967.50 977.21 L 965.23 976.44 L 962.96 975.77 L 960.68 975.08 L 958.41 974.39 L 956.14 973.71 L 953.89 972.93 L 951.61 972.25 L 949.33 971.59 L 947.07 970.95 L 944.85 970.33 L 942.63 969.75 L 940.44 969.13 L 938.23 968.65 L 936.02 968.06 L 933.86 967.42 L 931.78 966.69 L 929.67 965.94 L 927.59 965.13 L 925.54 964.40" stroke="rgb(140,255,190)" stroke-opacity="0.531" stroke-width="1.11" />
  <path d="M 999.18 1001.14 L 996.58 999.52 L 993.99 997.91 L 991.39 996.34 L 988.85 994.69 L 986.31 993.06 L 983.78 991.44 L 981.29 989.79 L 978.81 988.13 L 976.35 986.47 L 973.84 984.90 L 971.31 983.40 L 968.82 981.85 L 966.36 980.27 L 963.91 978.70 L 961.49 977.11 L 959.10 975.51 L 956.70 973.93 L 954.31 972.36 L 951.92 970.82 L 949.56 969.24 L 947.20 967.70 L 944.85 966.16 L 942.52 964.61 L 940.20 963.08 L 937.88 961.56 L 935.58 960.04 L 933.27 958.53 L 931.01 956.97 L 928.69 955.51 L 926.39 954.05 L 924.12 952.56 L 921.90 951.02 L 919.71 949.46 L 917.48 947.99 L 915.27 946.53 L 913.02 945.16 L 910.76 943.80 L 908.55 942.40 L 906.38 940.96 L 904.20 939.55 L 902.04 938.13 L 899.90 936.69 L 897.77 935.27 L 895.69 933.81 L 893.62 932.35 L 891.55 930.92 L 889.50 929.47 L 887.43 928.05 L 885.37 926.67" stroke="rgb(140,255,190)" stroke-opacity="0.531" stroke-width="1.11" />
  <path d="M 966.38 976.93 L 963.62 976.44 L 960.87 975.95 L 958.14 975.42 L 955.42 975.00 L 952.71 974.58 L 950.01 974.16 L 947.36 973.63 L 944.74 973.08 L 942.13 972.53 L 939.51 972.00 L 936.89 971.45 L 934.31 970.90 L 931.73 970.38 L 929.13 969.98 L 926.54 969.57 L 923.95 969.19 L 921.36 968.85 L 918.78 968.51 L 916.20 968.24 L 913.63 967.95 L 911.06 967.76 L 908.50 967.47 L 905.95 967.23 L 903.41 966.98 L 900.88 966.70 L 898.37 966.38 L 895.88 966.02 L 893.38 965.69 L 890.89 965.40 L 888.41 965.11 L 885.93 964.88 L 883.47 964.58 L 881.02 964.27 L 878.57 964.06 L 876.14 963.85 L 873.71 963.64 L 871.30 963.46 L 868.89 963.31 L 866.50 963.12 L 864.12 962.97 L 861.76 962.79 L 859.41 962.64 L 857.07 962.44 L 854.74 962.29 L 852.41 962.11 L 850.09 961.83 L 847.81 961.46 L 845.55 960.96 L 843.35 960.36 L 841.14 959.86 L 838.93 959.36 L 836.74 958.82 L 834.55 958.33 L 832.39 957.76 L 830.24 957.22 L 828.09 956.68 L 825.95 956.14 L 823.83 955.59 L 821.71 955.03 L 819.62 954.42 L 817.56 953.80 L 815.47 953.25" stroke="rgb(140,255,190)" stroke-opacity="0.530" stroke-width="1.11" />
  <path d="M 996.53 1000.71 L 994.19 999.39 L 991.88 998.03 L 989.58 996.68 L 987.30 995.32 L 985.03 993.98 L 982.78 992.61 L 980.56 991.22 L 978.33 989.86 L 976.09 988.53 L 973.86 987.23 L 971.63 985.93 L 969.40 984.67 L 967.18 983.41 L 965.00 982.11 L 962.84 980.80" stroke="rgb(140,255,190)" stroke-opacity="0.530" stroke-width="1.11" />
  <path d="M 902.69 915.50 L 900.49 914.96 L 898.19 914.46 L 895.90 913.93 L 893.69 913.51 L 891.48 913.07 L 889.35 912.63 L 887.22 912.16 L 885.09 911.65 L 882.97 911.13 L 880.87 910.62 L 878.80 910.10 L 876.73 909.58 L 874.70 909.07 L 872.68 908.58 L 870.66 908.11 L 868.64 907.65 L 866.56 907.14 L 864.49 906.61 L 862.45 906.10 L 860.39 905.58 L 858.30 905.03 L 856.23 904.40 L 854.16 903.74 L 852.03 903.13 L 849.91 902.52 L 847.76 901.90 L 845.59 901.31 L 843.49 900.80 L 841.47 900.29 L 839.43 899.78 L 837.40 899.22 L 835.39 898.68 L 833.40 898.11 L 831.41 897.57" stroke="rgb(140,255,190)" stroke-opacity="0.529" stroke-width="1.11" />
  <path d="M 937.01 950.26 L 934.20 949.29 L 931.39 948.32 L 928.59 947.39 L 925.79 946.48 L 922.98 945.70 L 920.17 944.93 L 917.37 944.16 L 914.59 943.32 L 911.85 942.38 L 909.13 941.40 L 906.45 940.39 L 903.76 939.34 L 901.09 938.30 L 898.42 937.28 L 895.77 936.27 L 893.15 935.15 L 890.54 934.02 L 887.98 932.82 L 885.48 931.55 L 882.98 930.28 L 880.50 929.02 L 878.04 927.78 L 875.54 926.60 L 873.01 925.47 L 870.51 924.30 L 868.01 923.14 L 865.55 921.96 L 863.04 920.88 L 860.56 919.75 L 858.09 918.64 L 855.68 917.43 L 853.26 916.27 L 850.85 915.09 L 848.45 913.94 L 846.04 912.81 L 843.65 911.68 L 841.24 910.61 L 838.84 909.53 L 836.49 908.39 L 834.15 907.26 L 831.84 906.09" stroke="rgb(140,255,190)" stroke-opacity="0.529" stroke-width="1.11" />
  <path d="M 1003.00 1002.20 L 1000.73 1000.27 L 998.50 998.32 L 996.28 996.39 L 994.09 994.44 L 991.92 992.47 L 989.82 990.44 L 987.71 988.43 L 985.66 986.39 L 983.62 984.34 L 981.61 982.28 L 979.62 980.23 L 977.62 978.19 L 975.67 976.14 L 973.70 974.12 L 971.74 972.11 L 969.77 970.11 L 967.76 968.18 L 965.74 966.27 L 963.76 964.33 L 961.80 962.39 L 959.82 960.47 L 957.86 958.55 L 955.93 956.63 L 953.97 954.74 L 951.98 952.89 L 949.98 951.09 L 947.95 949.32 L 945.90 947.60 L 943.83 945.92 L 941.76 944.26 L 939.69 942.61" stroke="rgb(140,255,190)" stroke-opacity="0.528" stroke-width="1.10" />
  <path d="M 1001.22 999.60 L 998.96 998.13 L 996.69 996.70 L 994.44 995.25 L 992.20 993.81 L 989.97 992.37 L 987.75 990.95 L 985.54 989.52 L 983.37 988.05 L 981.21 986.58 L 979.16 984.98 L 977.13 983.37 L 975.09 981.79 L 973.06 980.22 L 971.04 978.66 L 969.01 977.12 L 967.02 975.54 L 965.04 973.97 L 963.06 972.42 L 961.08 970.88 L 959.06 969.41 L 957.04 967.95 L 955.00 966.55 L 952.97 965.15 L 950.94 963.76 L 948.95 962.33 L 946.96 960.93 L 944.97 959.54 L 943.04 958.08 L 941.15 956.59 L 939.30 955.07 L 937.48 953.52 L 935.59 952.08 L 933.67 950.68 L 931.80 949.25 L 929.96 947.78 L 928.13 946.33 L 926.31 944.88 L 924.50 943.42 L 922.69 941.97 L 920.97 940.44 L 919.26 938.91 L 917.54 937.41 L 915.82 935.93 L 914.10 934.46 L 912.39 932.99 L 910.71 931.51 L 908.96 930.12 L 907.20 928.75 L 905.46 927.39 L 903.72 926.03 L 901.98 924.68 L 900.26 923.32 L 898.56 921.95 L 896.84 920.60 L 895.11 919.30 L 893.38 918.00 L 891.65 916.71 L 890.01 915.34" stroke="rgb(140,255,190)" stroke-opacity="0.528" stroke-width="1.10" />
  <path d="M 917.54 937.41 L 914.91 936.56 L 912.26 935.82 L 909.63 935.08 L 907.00 934.35 L 904.39 933.61 L 901.78 932.89 L 899.19 932.16 L 896.64 931.46 L 894.07 930.77 L 891.52 930.07 L 888.99 929.38 L 886.43 928.77 L 883.90 928.15 L 881.37 927.49 L 878.82 926.96 L 876.28 926.44 L 873.75 925.89 L 871.25 925.37 L 868.75 924.87 L 866.27 924.42 L 863.80 923.93 L 861.36 923.35 L 858.95 922.78 L 856.58 922.10 L 854.21 921.43 L 851.88 920.63 L 849.53 919.92 L 847.18 919.29 L 844.84 918.74 L 842.51 918.18 L 840.20 917.63 L 837.92 917.10 L 835.65 916.60 L 833.43 916.06 L 831.23 915.49 L 829.05 914.90 L 826.86 914.32 L 824.68 913.73 L 822.51 913.22 L 820.37 912.71 L 818.23 912.24 L 816.09 911.72 L 813.91 911.21 L 811.73 910.69 L 809.58 910.16 L 807.49 909.61 L 805.40 909.16 L 803.35 908.63 L 801.32 908.10 L 799.29 907.54 L 797.26 906.97 L 795.24 906.42 L 793.23 905.85 L 791.22 905.34 L 789.21 904.90 L 787.19 904.50" stroke="rgb(140,255,190)" stroke-opacity="0.527" stroke-width="1.10" />
  <path d="M 2000.10 1626.26 L 1997.41 1624.86 L 1994.77 1622.74 L 1992.14 1621.69 L 1989.72 1620.15 L 1986.95 1618.14 L 1984.51 1617.07 L 1982.73 1614.94 L 1979.77 1613.76 L 1977.24 1612.22 L 1974.28 1610.43 L 1971.82 1608.59 L 1969.64 1607.27 L 1967.09 1605.43 L 1964.53 1603.87 L 1961.89 1602.64 L 1959.59 1600.95 L 1956.53 1599.45 L 1954.26 1597.51 L 1951.61 1595.96 L 1948.92 1594.13 L 1946.82 1593.10 L 1943.84 1591.36 L 1941.70 1589.51 L 1938.71 1587.93 L 1936.55 1586.91 L 1934.02 1585.05 L 1931.45 1582.94 L 1928.87 1581.98 L 1926.25 1579.84 L 1923.67 1578.75 L 1921.13 1577.31 L 1918.37 1575.50 L 1916.10 1573.90 L 1913.75 1572.37 L 1910.85 1570.51 L 1908.11 1569.32 L 1905.91 1567.38 L 1903.40 1565.53 L 1900.54 1563.90 L 1898.30 1562.58 L 1895.68 1561.13 L 1893.43 1559.64 L 1890.93 1557.97 L 1887.99 1556.35 L 1885.56 1554.67 L 1882.90 1553.10 L 1880.73 1551.47 L 1877.75 1549.66 L 1875.57 1548.09 L 1872.59 1546.75 L 1870.76 1545.05 L 1867.78 1543.30 L 1865.25 1542.27 L 1862.68 1540.26 L 1860.38 1538.90 L 1857.92 1537.00 L 1855.24 1535.70 L 1852.57 1534.03 L 1849.99 1532.52 L 1847.29 1531.11 L 1845.08 1529.44 L 1842.28 1527.56 L 1839.78 1525.66 L 1837.22 1524.34 L 1834.93 1522.75 L 1832.34 1521.26 L 1829.46 1519.52 L 1827.23 1518.54 L 1824.53 1515.95 L 1822.04 1515.26 L 1819.54 1513.62 L 1817.31 1512.00 L 1814.57 1510.13 L 1812.11 1508.11 L 1809.18 1506.63 L 1806.55 1505.35 L 1804.06 1504.07 L 1801.93 1501.79 L 1799.36 1500.72 L 1796.65 1498.92 L 1794.25 1497.61 L 1791.52 1495.80 L 1789.04 1494.10 L 1786.38 1492.78 L 1783.89 1490.68 L 1781.59 1489.34 L 1778.61 1488.19 L 1776.11 1486.50 L 1774.03 1484.84 L 1771.00 1483.23 L 1768.73 1481.62 L 1765.98 1479.76 L 1763.82 1478.25 L 1761.23 1476.67 L 1758.38 1474.76 L 1755.73 1473.49 L 1753.54 1472.03 L 1751.00 1470.16 L 1748.44 1469.03 L 1745.93 1467.30 L 1743.32 1465.60 L 1740.36 1464.06 L 1737.85 1462.33 L 1735.53 1461.12 L 1733.29 1459.50 L 1730.57 1457.31 L 1727.86 1456.16 L 1725.53 1454.15 L 1723.10 1452.75 L 1720.41 1451.53 L 1718.13 1449.61 L 1715.54 1448.48 L 1712.78 1446.38 L 1710.20 1444.96 L 1708.01 1443.43 L 1705.31 1441.56 L 1702.65 1439.98 L 1700.09 1438.54 L 1697.25 1436.84 L 1695.01 1435.47 L 1692.33 1433.66 L 1690.31 1432.14 L 1687.61 1430.42 L 1684.63 1428.65 L 1682.24 1427.16 L 1680.00 1425.72 L 1676.97 1424.21 L 1674.64 1422.68 L 1672.23 1421.11 L 1669.13 1419.48 L 1666.53 1417.56 L 1664.79 1416.12 L 1661.69 1414.73 L 1659.18 1412.75 L 1656.70 1411.70 L 1654.35 1409.58 L 1651.52 1408.50 L 1648.75 1406.24 L 1646.87 1404.70 L 1644.02 1403.67 L 1641.61 1401.78 L 1639.03 1400.30 L 1636.32 1398.44 L 1633.44 1396.90 L 1631.57 1395.51 L 1628.89 1394.24 L 1626.42 1392.26 L 1623.21 1390.87 L 1621.46 1389.27 L 1618.34 1387.38 L 1615.94 1385.87 L 1613.71 1384.26 L 1611.11 1382.53 L 1608.60 1381.15 L 1606.20 1378.99 L 1603.60 1378.19 L 1600.80 1376.06 L 1598.37 1374.90 L 1595.67 1373.33 L 1593.36 1371.44 L 1590.69 1369.82 L 1587.97 1368.28 L 1585.65 1366.72 L 1582.99 1365.55 L 1580.85 1363.66 L 1578.11 1362.18 L 1575.44 1360.47 L 1573.00 1359.06 L 1570.21 1356.78 L 1567.85 1355.28 L 1565.23 1354.42 L 1562.54 1352.50 L 1560.17 1350.98 L 1557.40 1349.21 L 1555.31 1347.62 L 1552.95 1346.10 L 1549.90 1344.20 L 1547.10 1343.11 L 1545.04 1341.11 L 1542.25 1339.72 L 1539.84 1337.79 L 1537.40 1336.47 L 1534.77 1334.45 L 1531.81 1333.35 L 1529.53 1331.62 L 1527.31 1330.24 L 1524.61 1328.97 L 1522.19 1326.97 L 1519.60 1325.03 L 1516.91 1323.35 L 1514.31 1321.75 L 1511.76 1320.64 L 1509.18 1318.79 L 1506.68 1317.12 L 1503.56 1316.24 L 1501.63 1314.10 L 1499.17 1312.85 L 1496.45 1311.53 L 1493.82 1309.58 L 1491.23 1308.00 L 1489.06 1306.11 L 1486.30 1304.59 L 1483.82 1302.97 L 1481.08 1301.72 L 1479.12 1299.82 L 1476.12 1298.39 L 1473.90 1296.86 L 1470.85 1294.66 L 1468.50 1293.57 L 1466.02 1291.76 L 1463.29 1290.00 L 1461.30 1288.46 L 1458.77 1286.94 L 1455.99 1285.63 L 1453.63 1283.97 L 1450.70 1282.13 L 1448.86 1280.99 L 1445.83 1279.31 L 1443.04 1277.84 L 1440.70 1275.95 L 1438.14 1274.63 L 1435.95 1272.86 L 1432.77 1271.08 L 1430.56 1269.56 L 1427.64 1268.21 L 1425.42 1266.45 L 1422.98 1264.74 L 1420.20 1263.28 L 1417.52 1261.70 L 1415.48 1260.04 L 1412.65 1258.16 L 1410.09 1256.66 L 1408.13 1255.42 L 1404.74 1253.92 L 1402.68 1252.04 L 1400.11 1250.50 L 1397.48 1248.95 L 1395.10 1247.13 L 1392.06 1246.09 L 1389.47 1243.96 L 1386.93 1242.74 L 1384.95 1240.71 L 1382.27 1239.25 L 1379.73 1237.97 L 1376.98 1236.47 L 1374.86 1234.84 L 1372.14 1232.97 L 1369.31 1231.25 L 1367.08 1229.65 L 1364.16 1228.57 L 1362.06 1226.50 L 1359.19 1225.03 L 1356.95 1223.69 L 1354.59 1221.92 L 1351.22 1220.49 L 1349.00 1218.63 L 1346.90 1217.14 L 1344.46 1215.58 L 1342.06 1213.96 L 1338.96 1212.41 L 1336.22 1210.99 L 1334.32 1209.17 L 1331.19 1207.46 L 1328.87 1205.84 L 1326.37 1204.30 L 1323.86 1202.43 L 1321.15 1201.41 L 1318.75 1199.60 L 1316.19 1198.28 L 1313.29 1196.73 L 1311.40 1194.79 L 1308.41 1193.32 L 1306.24 1191.62 L 1303.14 1190.38 L 1300.73 1188.37 L 1297.86 1186.83 L 1295.79 1185.28 L 1293.21 1183.84 L 1290.75 1182.03 L 1287.78 1180.53 L 1285.33 1179.11 L 1283.05 1177.17 L 1280.40 1175.69 L 1277.92 1174.07 L 1275.26 1172.22 L 1272.74 1170.79 L 1270.34 1169.48 L 1267.80 1167.61 L 1265.08 1166.09 L 1263.07 1164.58 L 1260.41 1163.20 L 1257.58 1161.18 L 1254.51 1160.02 L 1252.44 1157.95 L 1249.85 1156.47 L 1247.43 1155.14 L 1244.99 1153.02 L 1242.13 1151.96 L 1239.78 1150.14 L 1237.24 1148.66 L 1234.75 1147.10 L 1231.92 1145.28 L 1229.74 1143.89 L 1227.09 1142.03 L 1224.17 1140.72 L 1221.69 1139.18 L 1219.34 1137.51 L 1216.69 1136.16 L 1213.98 1134.53 L 1212.18 1132.21 L 1208.99 1130.75 L 1206.61 1129.52 L 1204.71 1127.70 L 1201.35 1126.48 L 1199.20 1124.47 L 1196.71 1123.29 L 1194.15 1121.27 L 1191.79 1119.75 L 1189.05 1118.10 L 1186.23 1116.47 L 1184.06 1115.36 L 1181.69 1113.17 L 1178.67 1112.32 L 1176.52 1110.80 L 1173.64 1108.65 L 1170.92 1107.19 L 1168.47 1105.45 L 1166.16 1103.99 L 1163.22 1102.38 L 1160.57 1100.63 L 1158.41 1099.29 L 1156.41 1097.71 L 1152.91 1095.82 L 1150.94 1094.73 L 1148.35 1093.07 L 1145.71 1091.13 L 1143.14 1089.75 L 1140.89 1088.02 L 1138.07 1086.66 L 1135.51 1085.03 L 1133.20 1083.31 L 1130.44 1082.02 L 1128.15 1080.21 L 1125.45 1078.50 L 1122.59 1076.78 L 1120.19 1075.57 L 1118.45 1073.80 L 1115.25 1071.97 L 1112.78 1070.49 L 1110.26 1069.06 L 1107.70 1067.41 L 1105.33 1065.57 L 1102.52 1063.86 L 1100.05 1062.56 L 1097.39 1060.94 L 1095.33 1059.28 L 1092.25 1057.62 L 1089.75 1056.64 L 1087.21 1054.64 L 1084.25 1052.70 L 1081.98 1051.61 L 1079.64 1050.09 L 1076.98 1048.16 L 1074.48 1046.54 L 1072.30 1045.17 L 1069.22 1043.34 L 1067.06 1041.59 L 1064.15 1040.45 L 1061.47 1038.87 L 1059.53 1037.30 L 1056.78 1035.57 L 1054.39 1033.85 L 1051.38 1032.60 L 1049.40 1030.86 L 1046.65 1029.08 L 1044.10 1027.47 L 1041.66 1025.81 L 1038.46 1024.52 L 1036.32 1022.93 L 1033.82 1021.28 L 1031.10 1019.47 L 1028.95 1017.68 L 1026.07 1016.30 L 1023.52 1014.76 L 1021.19 1013.10 L 1018.85 1011.80 L 1016.16 1010.20 L 1013.64 1008.56 L 1010.89 1007.18 L 1008.17 1005.46 L 1006.23 1003.75 L 1003.46 1001.93 L 1001.08 1000.71 L 1000.00 1000.00 L 997.45 998.41 L 994.91 996.83 L 992.36 995.24 L 989.81 993.66 L 987.26 992.08 L 984.71 990.50 L 982.16 988.92 L 979.62 987.33 L 977.07 985.74 L 974.53 984.15 L 971.99 982.55 L 969.45 980.96 L 966.92 979.35 L 964.40 977.72 L 961.88 976.09 L 959.36 974.46 L 956.85 972.82 L 954.33 971.18 L 951.82 969.54 L 949.31 967.90 L 946.80 966.26 L 944.28 964.62 L 941.77 962.99 L 939.25 961.36 L 936.73 959.74 L 934.20 958.12 L 931.68 956.50 L 929.15 954.87 L 926.62 953.26 L 924.09 951.65 L 921.56 950.04 L 919.03 948.43 L 916.51 946.81 L 913.98 945.19 L 911.45 943.58 L 908.92 941.96 L 906.39 940.36 L 903.85 938.76 L 901.32 937.16 L 898.79 935.54 L 896.26 933.92 L 893.74 932.30 L 891.21 930.68 L 888.68 929.07 L 886.15 927.46 L 883.62 925.85 L 881.09 924.24 L 878.56 922.62 L 876.04 921.00 L 873.52 919.37 L 870.99 917.75 L 868.48 916.12 L 865.96 914.49 L 863.44 912.86 L 860.91 911.24 L 858.39 909.62 L 855.86 908.01 L 853.32 906.41 L 850.77 904.82 L 848.23 903.23 L 845.69 901.64 L 843.14 900.05 L 840.59 898.47 L 838.05 896.88 L 835.50 895.30 L 832.96 893.70 L 830.42 892.11 L 827.87 890.52 L 825.32 888.94 L 822.78 887.35 L 820.23 885.76 L 817.68 884.18 L 815.13 882.60 L 812.58 881.03 L 810.03 879.45 L 807.48 877.87 L 804.92 876.29 L 802.38 874.71 L 799.83 873.13 L 797.27 871.56 L 794.72 869.99 L 792.16 868.42 L 789.60 866.85 L 787.03 865.30 L 784.47 863.74 L 781.91 862.18 L 779.34 860.62 L 776.78 859.06 L 774.21 857.51 L 771.65 855.95 L 769.09 854.39 L 766.53 852.83 L 763.96 851.27 L 761.40 849.71 L 758.84 848.15 L 756.27 846.60 L 753.70 845.05 L 751.13 843.50 L 748.57 841.94 L 746.01 840.38 L 743.45 838.82 L 740.88 837.26 L 738.33 835.69 L 735.76 834.14 L 733.19 832.58 L 730.63 831.02 L 728.08 829.45 L 725.52 827.88 L 722.97 826.30 L 720.41 824.73 L 717.85 823.17 L 715.28 821.62 L 712.72 820.07 L 710.15 818.51 L 707.58 816.96 L 705.02 815.41 L 702.45 813.85 L 699.88 812.30 L 697.32 810.75 L 694.75 809.19 L 692.19 807.63 L 689.64 806.06 L 687.07 804.50 L 684.51 802.94 L 681.95 801.37 L 679.39 799.81 L 676.83 798.25 L 674.27 796.69 L 671.70 795.13 L 669.13 793.58 L 666.56 792.04 L 663.98 790.51 L 661.40 788.98 L 658.82 787.44 L 656.25 785.90 L 653.67 784.36 L 651.10 782.82 L 648.53 781.27 L 645.95 779.74 L 643.38 778.20 L 640.80 776.66 L 638.23 775.12 L 635.65 773.58 L 633.08 772.03 L 630.51 770.49 L 627.94 768.95 L 625.36 767.41 L 622.78 765.88 L 620.20 764.35 L 617.63 762.80 L 615.05 761.26 L 612.48 759.73 L 609.90 758.19 L 607.32 756.65 L 604.74 755.12 L 602.16 753.59 L 599.58 752.06 L 597.00 750.53 L 594.42 749.00 L 591.84 747.48 L 589.26 745.95 L 586.68 744.41 L 584.10 742.88 L 581.52 741.36 L 578.94 739.83 L 576.36 738.29 L 573.79 736.75 L 571.21 735.21 L 568.63 733.67 L 566.06 732.13 L 563.49 730.58 L 560.92 729.04 L 558.34 727.50 L 555.77 725.95 L 553.20 724.40 L 550.63 722.86 L 548.06 721.31 L 545.48 719.78 L 542.91 718.24 L 540.33 716.70 L 537.76 715.16 L 535.19 713.61 L 532.61 712.07 L 530.04 710.53 L 527.48 708.97 L 524.91 707.42 L 522.34 705.87 L 519.77 704.33 L 517.20 702.78 L 514.63 701.23 L 512.07 699.67 L 509.50 698.12 L 506.93 696.57 L 504.36 695.02 L 501.79 693.48 L 499.21 691.94 L 496.65 690.39 L 494.08 688.84 L 491.51 687.29 L 488.94 685.73 L 486.37 684.18 L 483.81 682.63 L 481.24 681.08 L 478.67 679.52 L 476.11 677.97 L 473.54 676.42 L 470.96 674.88 L 468.39 673.34 L 465.81 671.80 L 463.23 670.27 L 460.65 668.75 L 458.08 667.20 L 455.51 665.65 L 452.95 664.09 L 450.38 662.54 L 447.82 660.97 L 445.26 659.41 L 442.71 657.83 L 440.16 656.25 L 437.62 654.66 L 435.08 653.07 L 432.53 651.47 L 429.99 649.88 L 427.45 648.29 L 424.90 646.70 L 422.36 645.11 L 419.81 643.53 L 417.26 641.96 L 414.71 640.37 L 412.17 638.77 L 409.64 637.16 L 407.10 635.56 L 404.58 633.94 L 402.05 632.32 L 399.52 630.70 L 397.00 629.09 L 394.47 627.47 L 391.94 625.85 L 389.42 624.23 L 386.90 622.60 L 384.38 620.98 L 381.86 619.35 L 379.34 617.72 L 376.82 616.09 L 374.30 614.47 L 371.78 612.84 L 369.25 611.22 L 366.73 609.60 L 364.20 607.98 L 361.68 606.35 L 359.17 604.72 L 356.65 603.09 L 354.13 601.46 L 351.61 599.83 L 349.08 598.21 L 346.56 596.59 L 344.03 594.98 L 341.50 593.36 L 338.98 591.74 L 336.44 590.13 L 333.91 588.53 L 331.38 586.92 L 328.84 585.32 L 326.30 583.73 L 323.75 582.14 L 321.21 580.54 L 318.67 578.95 L 316.13 577.35 L 313.59 575.75 L 311.05 574.16 L 308.51 572.57 L 305.97 570.97 L 303.44 569.36 L 300.89 567.77 L 298.35 566.18 L 295.81 564.59 L 293.27 562.99 L 290.73 561.39 L 288.20 559.78 L 285.67 558.17 L 283.13 556.57 L 280.59 554.98 L 278.04 553.39 L 275.50 551.80 L 272.96 550.20 L 270.42 548.60 L 267.88 547.00 L 265.35 545.39 L 262.82 543.78 L 260.28 542.18 L 257.75 540.58 L 255.21 538.98 L 252.67 537.38 L 250.13 535.78 L 247.59 534.18 L 245.06 532.58 L 242.53 530.97 L 240.00 529.36 L 237.46 527.75 L 234.93 526.14 L 232.40 524.53 L 229.87 522.91 L 227.34 521.30 L 224.81 519.69 L 222.28 518.08 L 219.75 516.47 L 217.23 514.85 L 214.71 513.22 L 212.18 511.60 L 209.65 509.99 L 207.12 508.38 L 204.58 506.78 L 202.05 505.17 L 199.52 503.56 L 196.98 501.96 L 194.45 500.35 L 191.92 498.73 L 189.40 497.11 L 186.88 495.48 L 184.36 493.86 L 181.84 492.22 L 179.32 490.59 L 176.80 488.97 L 174.28 487.34 L 171.75 485.72 L 169.23 484.11 L 166.70 482.49 L 164.18 480.87 L 161.65 479.25 L 159.12 477.64 L 156.58 476.04 L 154.05 474.43 L 151.51 472.83 L 148.97 471.23 L 146.44 469.63 L 143.90 468.03 L 141.36 466.43 L 138.81 464.85 L 136.26 463.27 L 133.71 461.69 L 131.15 460.12 L 128.59 458.56 L 126.03 456.99 L 123.47 455.43 L 120.90 453.88 L 118.35 452.31 L 115.78 450.76 L 113.22 449.20 L 110.65 447.64 L 108.09 446.08 L 105.52 444.54 L 102.94 443.00 L 100.37 441.46 L 97.80 439.91 L 95.23 438.36 L 92.67 436.80 L 90.11 435.23 L 87.55 433.67 L 84.99 432.10 L 82.44 430.53 L 79.88 428.97 L 77.31 427.41 L 74.74 425.86 L 72.17 424.31 L 69.61 422.75 L 67.03 421.22 L 64.46 419.68 L 61.88 418.14 L 59.31 416.60 L 56.73 415.06 L 54.16 413.52 L 51.59 411.97 L 49.02 410.42 L 46.46 408.87 L 43.89 407.31 L 41.33 405.75 L 38.77 404.18 L 36.21 402.62 L 33.65 401.05 L 31.09 399.49 L 28.53 397.93 L 25.97 396.36 L 23.42 394.78 L 20.87 393.20 L 18.32 391.63 L 15.77 390.04 L 13.22 388.45 L 10.68 386.87 L 8.13 385.29 L 5.59 383.69 L 3.05 382.10 L 0.51 380.50 L -2.04 378.91 L -4.58 377.31 L -7.12 375.72 L -9.67 374.14 L -12.22 372.56 L -14.77 370.99 L -17.32 369.41 L -19.88 367.83 L -22.43 366.26" stroke="rgb(245,245,245)" stroke-opacity="0.703" stroke-width="1.10" />
  <path d="M 997.89 1000.57 L 995.73 998.89 L 993.60 997.19 L 991.45 995.52 L 989.32 993.87 L 987.23 992.17 L 985.16 990.47 L 983.10 988.76 L 981.06 987.05 L 979.04 985.36 L 977.02 983.67 L 975.01 981.99 L 973.00 980.32 L 971.01 978.64 L 969.02 976.98 L 967.04 975.35 L 965.01 973.80 L 963.04 972.19 L 961.07 970.59 L 959.09 969.01 L 957.11 967.46 L 955.14 965.91 L 953.18 964.37 L 951.24 962.82" stroke="rgb(140,255,190)" stroke-opacity="0.527" stroke-width="1.10" />
  <path d="M 956.62 974.93 L 954.01 974.59 L 951.42 974.18 L 948.84 973.75 L 946.28 973.31 L 943.73 972.81 L 941.19 972.27 L 938.70 971.61 L 936.23 970.86 L 933.77 970.15 L 931.34 969.40 L 928.92 968.66 L 926.47 968.00 L 924.04 967.33 L 921.63 966.64 L 919.23 965.93 L 916.84 965.23 L 914.45 964.54 L 912.08 963.84 L 909.69 963.25 L 907.31 962.72 L 904.96 962.12 L 902.63 961.51 L 900.30 960.92 L 897.97 960.34 L 895.64 959.82 L 893.32 959.31 L 890.99 958.95 L 888.67 958.53 L 886.35 958.19 L 884.01 957.91 L 881.69 957.57" stroke="rgb(140,255,190)" stroke-opacity="0.526" stroke-width="1.10" />
  <path d="M 932.12 957.53 L 929.60 956.89 L 927.10 956.17 L 924.63 955.45 L 922.18 954.68 L 919.74 953.91 L 917.31 953.17 L 914.91 952.39 L 912.53 951.61 L 910.16 950.85 L 907.78 950.20 L 905.41 949.57 L 903.05 948.94 L 900.65 948.40 L 898.28 947.77 L 895.88 947.25 L 893.50 946.69 L 891.13 946.15 L 888.79 945.52 L 886.43 944.97 L 884.10 944.37 L 881.77 943.78 L 879.42 943.29 L 877.08 942.83 L 874.74 942.42 L 872.41 942.00 L 870.06 941.77 L 867.73 941.56 L 865.39 941.36 L 863.08 941.15 L 860.78 940.94 L 858.49 940.73 L 856.21 940.43 L 853.93 940.15" stroke="rgb(140,255,190)" stroke-opacity="0.525" stroke-width="1.09" />
  <path d="M 1004.10 1000.15 L 1001.58 998.82 L 999.07 997.50 L 996.54 996.22 L 994.03 994.94 L 991.52 993.68 L 989.05 992.34 L 986.61 991.00 L 984.17 989.66 L 981.72 988.38 L 979.30 987.05 L 976.90 985.72 L 974.52 984.37 L 972.17 983.00 L 969.85 981.60 L 967.54 980.18 L 965.23 978.82 L 962.91 977.47 L 960.61 976.13 L 958.31 974.82 L 956.04 973.47 L 953.77 972.13 L 951.52 970.79 L 949.26 969.49 L 947.02 968.18" stroke="rgb(140,255,190)" stroke-opacity="0.524" stroke-width="1.09" />
  <path d="M 902.69 915.50 L 901.30 914.13 L 899.80 912.83 L 898.40 911.39 L 896.77 910.05 L 895.16 908.70 L 893.51 907.43 L 891.82 906.17 L 890.14 904.96 L 888.47 903.88 L 886.78 902.99 L 885.11 902.08 L 883.59 901.13 L 882.03 900.20 L 880.44 899.28 L 878.81 898.34 L 877.20 897.42 L 875.64 896.54 L 874.09 895.62 L 872.58 894.66 L 871.10 893.71 L 869.61 892.70 L 868.06 891.83" stroke="rgb(140,255,190)" stroke-opacity="0.524" stroke-width="1.09" />
  <path d="M 1001.36 998.57 L 999.08 997.22 L 996.80 995.87 L 994.57 994.50 L 992.30 993.23 L 990.03 991.95 L 987.76 990.70 L 985.53 989.43 L 983.29 988.19 L 981.06 986.97 L 978.85 985.74 L 976.62 984.54 L 974.38 983.41 L 972.14 982.31 L 969.89 981.24 L 967.65 980.18 L 965.43 979.11 L 963.21 978.06 L 961.00 977.04 L 958.81 975.97 L 956.62 974.93 L 954.45 973.92 L 952.37 972.80 L 950.26 971.70 L 948.22 970.53 L 946.20 969.37 L 944.12 968.31 L 942.03 967.28 L 939.93 966.29 L 937.83 965.35 L 935.76 964.46 L 933.69 963.54 L 931.58 962.72 L 929.47 961.93 L 927.36 961.15 L 925.25 960.37 L 923.15 959.58 L 921.05 958.83 L 918.95 958.07 L 916.86 957.32 L 914.80 956.55 L 912.74 955.76 L 910.68 954.97 L 908.63 954.26 L 906.60 953.56 L 904.56 952.97 L 902.52 952.35 L 900.49 951.71 L 898.45 951.11 L 896.42 950.52 L 894.42 949.89 L 892.45 949.35 L 890.47 948.77 L 888.50 948.19 L 886.52 947.59 L 884.57 947.00 L 882.63 946.45 L 880.68 945.91 L 878.74 945.37 L 876.80 944.83 L 874.85 944.33 L 872.89 943.87 L 870.92 943.39 L 868.96 942.92 L 867.01 942.48 L 865.06 942.02 L 863.13 941.56 L 861.20 941.09 L 859.28 940.63 L 857.37 940.15 L 855.43 939.81 L 853.48 939.50 L 851.54 939.19 L 849.60 938.87 L 847.70 938.55 L 845.83 938.23 L 843.96 937.92" stroke="rgb(140,255,190)" stroke-opacity="0.524" stroke-width="1.09" />
  <path d="M 1002.86 997.48 L 1000.58 996.88 L 998.33 996.17 L 996.08 995.49 L 993.81 994.93 L 991.54 994.40 L 989.29 993.87 L 987.04 993.34 L 984.83 992.70 L 982.63 992.07 L 980.44 991.43 L 978.28 990.74 L 976.13 990.03 L 973.98 989.36 L 971.83 988.72 L 969.66 988.18 L 967.50 987.63 L 965.33 987.16 L 963.18 986.64 L 961.03 986.15 L 958.90 985.64 L 956.78 985.11 L 954.67 984.59 L 952.60 983.96 L 950.52 983.39 L 948.46 982.76 L 946.42 982.12 L 944.39 981.48 L 942.37 980.83 L 940.38 980.13 L 938.36 979.53" stroke="rgb(205,165,255)" stroke-opacity="0.453" stroke-width="1.05" />
  <path d="M 956.66 1003.07 L 955.77 1003.10 L 954.84 1003.05 L 953.86 1003.03 L 952.89 1002.99" stroke="rgb(205,165,255)" stroke-opacity="0.450" stroke-width="1.04" />
  <path d="M 999.26 1004.07 L 998.33 1003.05 L 997.40 1002.00 L 996.57 1000.92 L 995.72 999.89 L 995.11 998.82 L 994.52 997.76 L 993.94 996.68 L 993.36 995.61 L 992.77 994.45 L 992.21 993.27 L 991.64 992.10 L 991.13 990.87" stroke="rgb(230,230,230)" stroke-opacity="0.382" stroke-width="0.70" />
  <path d="M 994.21 992.16 L 993.31 991.01 L 992.51 989.80 L 991.73 988.57 L 990.99 987.33 L 990.31 986.07 L 989.59 984.83 L 988.87 983.61" stroke="rgb(230,230,230)" stroke-opacity="0.380" stroke-width="0.70" />
  <path d="M 1004.63 999.63 L 1005.63 999.42 L 1006.56 999.09 L 1007.47 998.59 L 1008.37 998.07 L 1009.26 997.56 L 1010.06 996.98" stroke="rgb(230,230,230)" stroke-opacity="0.380" stroke-width="0.69" />
  <path d="M 1001.43 994.95 L 1000.64 994.22 L 999.88 993.49 L 999.20 992.73 L 998.38 992.08 L 997.59 991.39 L 996.86 990.68 L 996.02 989.98" stroke="rgb(230,230,230)" stroke-opacity="0.380" stroke-width="0.69" />
  <path d="M 1004.24 999.89 L 1004.40 1001.06 L 1004.41 1002.32 L 1004.86 1003.61 L 1005.67 1004.67 L 1006.46 1005.67 L 1007.28 1006.61" stroke="rgb(230,230,230)" stroke-opacity="0.376" stroke-width="0.69" />
  <path d="M 1003.45 1000.93 L 1002.74 999.90 L 1002.05 998.87 L 1001.32 997.75 L 1000.64 996.62 L 1000.14 995.40 L 999.62 994.16 L 999.15 992.89 L 998.54 991.62 L 998.02 990.34 L 997.54 989.04 L 996.87 987.82" stroke="rgb(230,230,230)" stroke-opacity="0.376" stroke-width="0.69" />
  <path d="M 1008.52 997.64 L 1010.00 997.46 L 1011.47 997.20 L 1012.93 996.93 L 1014.41 996.79 L 1015.87 996.64 L 1017.33 996.51" stroke="rgb(230,230,230)" stroke-opacity="0.367" stroke-width="0.66" />
  <path d="M 1001.11 997.11 L 999.90 996.47" stroke="rgb(230,230,230)" stroke-opacity="0.364" stroke-width="0.65" />
  <path d="M 996.78 995.03 L 996.37 996.40 L 995.91 997.73 L 995.42 999.08" stroke="rgb(230,230,230)" stroke-opacity="0.360" stroke-width="0.64" />
  <path d="M 1002.89 997.37 L 1001.53 997.62 L 1000.24 997.95 L 999.02 998.28 L 997.85 998.72 L 996.58 999.12 L 995.32 999.51 L 994.08 999.99 L 992.85 1000.47 L 991.60 1000.93 L 990.41 1001.45" stroke="rgb(230,230,230)" stroke-opacity="0.358" stroke-width="0.63" />
  <path d="M 991.35 1005.19 L 989.91 1005.03 L 988.53 1004.84 L 987.16 1004.66 L 985.86 1004.47" stroke="rgb(230,230,230)" stroke-opacity="0.357" stroke-width="0.63" />
  <path d="M 996.92 1003.35 L 998.29 1003.07 L 999.64 1002.90 L 1000.97 1002.75 L 1002.33 1002.55 L 1003.74 1002.16 L 1005.17 1001.83 L 1006.58 1001.44 L 1008.02 1001.19 L 1009.42 1000.90" stroke="rgb(230,230,230)" stroke-opacity="0.357" stroke-width="0.63" />
  <path d="M 1001.17 1004.57 L 1000.68 1005.52 L 1000.18 1006.45 L 999.69 1007.32 L 999.32 1008.24 L 998.97 1009.16 L 998.59 1010.06 L 998.29 1010.89 L 997.98 1011.72" stroke="rgb(230,230,230)" stroke-opacity="0.357" stroke-width="0.63" />
  <path d="M 1002.19 1003.26 L 1001.33 1004.44 L 1000.46 1005.61 L 999.53 1006.74 L 998.66 1007.93 L 997.85 1009.16 L 997.04 1010.37 L 996.20 1011.55 L 995.39 1012.73 L 994.55 1013.88 L 993.73 1015.03" stroke="rgb(230,230,230)" stroke-opacity="0.356" stroke-width="0.63" />
  <path d="M 1003.07 1003.27 L 1003.32 1003.94 L 1003.58 1004.60 L 1003.81 1005.40 L 1004.03 1006.21 L 1004.05 1007.07 L 1004.05 1007.97 L 1004.06 1008.87 L 1004.23 1009.93 L 1004.50 1010.89 L 1004.80 1011.85 L 1005.09 1012.81" stroke="rgb(230,230,230)" stroke-opacity="0.354" stroke-width="0.62" />
  <path d="M 993.61 1006.22 L 993.84 1004.76 L 994.12 1003.32 L 994.30 1001.86 L 994.51 1000.43 L 994.83 999.02" stroke="rgb(230,230,230)" stroke-opacity="0.353" stroke-width="0.62" />
  <path d="M 999.77 998.20 L 1000.49 999.21 L 1001.23 1000.23 L 1001.97 1001.25 L 1002.73 1002.29 L 1003.39 1003.40 L 1004.22 1004.34" stroke="rgb(230,230,230)" stroke-opacity="0.353" stroke-width="0.62" />
  <path d="M 1000.45 994.66 L 1001.36 993.83 L 1002.23 993.05 L 1003.16 992.28 L 1004.09 991.50 L 1005.02 990.71 L 1006.05 989.90 L 1007.11 989.22" stroke="rgb(230,230,230)" stroke-opacity="0.352" stroke-width="0.62" />
</g>
</svg>
