{
  "asset": {
    "version": "2.0",
    "generator": "TES-23 Cosmic Ray Renderer"
  },
  "extensionsUsed": [
    "KHR_materials_unlit"
  ],
  "extensionsRequired": [
    "KHR_materials_unlit"
  ],
  "scene": 0,
  "scenes": [
    {
      "nodes": [
        0
      ]
    }
  ],
  "nodes": [
    {
      "name": "CosmicRayEvent",
      "mesh": 0
    }
  ],
  "meshes": [
    {
      "name": "CosmicRayEvent",
      "primitives": [
        {
          "attributes": {
            "POSITION": 0
          },
          "material": 0,
          "mode": 1
        },
        {
          "attributes": {
            "POSITION": 1
          },
          "material": 1,
          "mode": 1
        },
        {
          "attributes": {
            "POSITION": 2
          },
          "material": 2,
          "mode": 1
        },
        {
          "attributes": {
            "POSITION": 3
          },
          "material": 3,
          "mode": 1
        },
        {
          "attributes": {
            "POSITION": 4
          },
          "material": 4,
          "mode": 1
        }
      ]
    }
  ],
  "materials": [
    {
      "name": "primary",
      "extensions": {
        "KHR_materials_unlit": {}
      },
      "pbrMetallicRoughness": {
        "baseColorFactor": [
          0.961,
          0.961,
          0.961,
          1
        ],
        "metallicFactor": 0,
        "roughnessFactor": 1
      }
    },
    {
      "name": "vertex",
      "extensions": {
        "KHR_materials_unlit": {}
      },
      "pbrMetallicRoughness": {
        "baseColorFactor": [
          0.902,
          0.902,
          0.902,
          0.9
        ],
        "metallicFactor": 0,
        "roughnessFactor": 1
      }
    },
    {
      "name": "em",
      "extensions": {
        "KHR_materials_unlit": {}
      },
      "pbrMetallicRoughness": {
        "baseColorFactor": [
          0.471,
          0.824,
          1,
          1
        ],
        "metallicFactor": 0,
        "roughnessFactor": 1
      }
    },
    {
      "name": "hadron",
      "extensions": {
        "KHR_materials_unlit": {}
      },
      "pbrMetallicRoughness": {
        "baseColorFactor": [
          0.549,
          1,
          0.745,
          1
        ],
        "metallicFactor": 0,
        "roughnessFactor": 1
      }
    },
    {
      "name": "delta",
      "extensions": {
        "KHR_materials_unlit": {}
      },
      "pbrMetallicRoughness": {
        "baseColorFactor": [
          0.804,
          0.647,
          1,
          1
        ],
        "metallicFactor": 0,
        "roughnessFactor": 1
      }
    }
  ],
  "accessors": [
    {
      "bufferView": 0,
      "byteOffset": 0,
      "componentType": 5126,
      "count": 1430,
      "type": "VEC3",
      "min": [
        -0.361507385969162,
        -1.0001956224441528,
        0
      ],
      "max": [
        0.35475441813468933,
        1.0208024978637695,
        0
      ]
    },
    {
      "bufferView": 1,
      "byteOffset": 0,
      "componentType": 5126,
      "count": 352,
      "type": "VEC3",
      "min": [
        -0.021194303408265114,
        -0.013311815448105335,
        -0.07527513056993484
      ],
      "max": [
        0.013355070725083351,
        0.0178455151617527,
        0.07001045346260071
      ]
    },
    {
      "bufferView": 2,
      "byteOffset": 0,
      "componentType": 5126,
      "count": 1250,
      "type": "VEC3",
      "min": [
        -0.0866110697388649,
        -0.003740352112799883,
        -0.08616640418767929
      ],
      "max": [
        0.0032989955507218838,
        0.22748905420303345,
        0.06341415643692017
      ]
    },
    {
      "bufferView": 3,
      "byteOffset": 0,
      "componentType": 5126,
      "count": 3400,
      "type": "VEC3",
      "min": [
        -0.19217108190059662,
        -0.044092319905757904,
        -0.6255366802215576
      ],
      "max": [
        0.0027846312150359154,
        0.30143600702285767,
        0.5311163067817688
      ]
    },
    {
      "bufferView": 4,
      "byteOffset": 0,
      "componentType": 5126,
      "count": 936,
      "type": "VEC3",
      "min": [
        -0.2074059396982193,
        -0.07653012126684189,
        -0.6142717599868774
      ],
      "max": [
        0.21297219395637512,
        0.15785053372383118,
        0.4866335988044739
      ]
    }
  ],
  "bufferViews": [
    {
      "buffer": 0,
      "byteOffset": 0,
      "byteLength": 17160,
      "target": 34962
    },
    {
      "buffer": 0,
      "byteOffset": 17160,
      "byteLength": 4224,
      "target": 34962
    },
    {
      "buffer": 0,
      "byteOffset": 21384,
      "byteLength": 15000,
      "target": 34962
    },
    {
      "buffer": 0,
      "byteOffset": 36384,
      "byteLength": 40800,
      "target": 34962
    },
    {
      "buffer": 0,
      "byteOffset": 77184,
      "byteLength": 11232,
      "target": 34962
    }
  ],
  "buffers": [
    {
      "byteLength": 88416,
      "uri": "data:application/octet-stream;base64,"
    }
  ]
}