{
  "asset": {
    "version": "2.0",
    "generator": "TES-23 Cosmic Ray Renderer"
  },
  "extensionsUsed": [
    "KHR_materials_unlit"
  ],
  "extensionsRequired": [
    "KHR_materials_unlit"
  ],
  "scene": 0,
  "scenes": [
    {
      "nodes": [
        0
      ]
    }
  ],
  "nodes": [
    {
      "name": "CosmicRayEvent",
      "mesh": 0
    }
  ],
  "meshes": [
    {
      "name": "CosmicRayEvent",
      "primitives": [
        {
          "attributes": {
            "POSITION": 0
          },
          "material": 0,
          "mode": 1
        },
        {
          "attributes": {
            "POSITION": 1
          },
          "material": 1,
          "mode": 1
        },
        {
          "attributes": {
            "POSITION": 2
          },
          "material": 2,
          "mode": 1
        },
        {
          "attributes": {
            "POSITION": 3
          },
          "material": 3,
          "mode": 1
        },
        {
          "attributes": {
            "POSITION": 4
          },
          "material": 4,
          "mode": 1
        }
      ]
    }
  ],
  "materials": [
    {
      "name": "primary",
      "extensions": {
        "KHR_materials_unlit": {}
      },
      "pbrMetallicRoughness": {
        "baseColorFactor": [
          0.961,
          0.961,
          0.961,
          1
        ],
        "metallicFactor": 0,
        "roughnessFactor": 1
      }
    },
    {
      "name": "vertex",
      "extensions": {
        "KHR_materials_unlit": {}
      },
      "pbrMetallicRoughness": {
        "baseColorFactor": [
          0.902,
          0.902,
          0.902,
          0.9
        ],
        "metallicFactor": 0,
        "roughnessFactor": 1
      }
    },
    {
      "name": "em",
      "extensions": {
        "KHR_materials_unlit": {}
      },
      "pbrMetallicRoughness": {
        "baseColorFactor": [
          0.471,
          0.824,
          1,
          1
        ],
        "metallicFactor": 0,
        "roughnessFactor": 1
      }
    },
    {
      "name": "hadron",
      "extensions": {
        "KHR_materials_unlit": {}
      },
      "pbrMetallicRoughness": {
        "baseColorFactor": [
          0.549,
          1,
          0.745,
          1
        ],
        "metallicFactor": 0,
        "roughnessFactor": 1
      }
    },
    {
      "name": "delta",
      "extensions": {
        "KHR_materials_unlit": {}
      },
      "pbrMetallicRoughness": {
        "baseColorFactor": [
          0.804,
          0.647,
          1,
          1
        ],
        "metallicFactor": 0,
        "roughnessFactor": 1
      }
    }
  ],
  "accessors": [
    {
      "bufferView": 0,
      "byteOffset": 0,
      "componentType": 5126,
      "count": 1590,
      "type": "VEC3",
      "min": [
        -0.631436824798584,
        -1.0001556873321533,
        0
      ],
      "max": [
        0.6308427453041077,
        1.020164132118225,
        0
      ]
    },
    {
      "bufferView": 1,
      "byteOffset": 0,
      "componentType": 5126,
      "count": 274,
      "type": "VEC3",
      "min": [
        -0.018560128286480904,
        -0.015394916757941246,
        -0.05955959111452103
      ],
      "max": [
        0.01749102957546711,
        0.01676969788968563,
        0.06824421882629395
      ]
    },
    {
      "bufferView": 2,
      "byteOffset": 0,
      "componentType": 5126,
      "count": 1538,
      "type": "VEC3",
      "min": [
        -0.006148302461951971,
        -0.0037768988404423,
        -0.12930475175380707
      ],
      "max": [
        0.2773522436618805,
        0.2812335789203644,
        0.049090880900621414
      ]
    },
    {
      "bufferView": 3,
      "byteOffset": 0,
      "componentType": 5126,
      "count": 2842,
      "type": "VEC3",
      "min": [
        -0.04459281638264656,
        -0.0026118671521544456,
        -0.43491849303245544
      ],
      "max": [
        0.1854536384344101,
        0.330683171749115,
        0.9890117645263672
      ]
    },
    {
      "bufferView": 4,
      "byteOffset": 0,
      "componentType": 5126,
      "count": 898,
      "type": "VEC3",
      "min": [
        -0.08781999349594116,
        -0.2222454845905304,
        -0.44812819361686707
      ],
      "max": [
        0.056379858404397964,
        0.1255369782447815,
        0.7839780449867249
      ]
    }
  ],
  "bufferViews": [
    {
      "buffer": 0,
      "byteOffset": 0,
      "byteLength": 19080,
      "target": 34962
    },
    {
      "buffer": 0,
      "byteOffset": 19080,
      "byteLength": 3288,
      "target": 34962
    },
    {
      "buffer": 0,
      "byteOffset": 22368,
      "byteLength": 18456,
      "target": 34962
    },
    {
      "buffer": 0,
      "byteOffset": 40824,
      "byteLength": 34104,
      "target": 34962
    },
    {
      "buffer": 0,
      "byteOffset": 74928,
      "byteLength": 10776,
      "target": 34962
    }
  ],
  "buffers": [
    {
      "byteLength": 85704,
      "uri": "data:application/octet-stream;base64,"
    }
  ]
}