{
  "asset": {
    "version": "2.0",
    "generator": "TES-23 Cosmic Ray Renderer"
  },
  "extensionsUsed": [
    "KHR_materials_unlit"
  ],
  "extensionsRequired": [
    "KHR_materials_unlit"
  ],
  "scene": 0,
  "scenes": [
    {
      "nodes": [
        0
      ]
    }
  ],
  "nodes": [
    {
      "name": "CosmicRayEvent",
      "mesh": 0
    }
  ],
  "meshes": [
    {
      "name": "CosmicRayEvent",
      "primitives": [
        {
          "attributes": {
            "POSITION": 0
          },
          "material": 0,
          "mode": 1
        },
        {
          "attributes": {
            "POSITION": 1
          },
          "material": 1,
          "mode": 1
        },
        {
          "attributes": {
            "POSITION": 2
          },
          "material": 2,
          "mode": 1
        },
        {
          "attributes": {
            "POSITION": 3
          },
          "material": 3,
          "mode": 1
        },
        {
          "attributes": {
            "POSITION": 4
          },
          "material": 4,
          "mode": 1
        }
      ]
    }
  ],
  "materials": [
    {
      "name": "primary",
      "extensions": {
        "KHR_materials_unlit": {}
      },
      "pbrMetallicRoughness": {
        "baseColorFactor": [
          0.961,
          0.961,
          0.961,
          1
        ],
        "metallicFactor": 0,
        "roughnessFactor": 1
      }
    },
    {
      "name": "vertex",
      "extensions": {
        "KHR_materials_unlit": {}
      },
      "pbrMetallicRoughness": {
        "baseColorFactor": [
          0.902,
          0.902,
          0.902,
          0.9
        ],
        "metallicFactor": 0,
        "roughnessFactor": 1
      }
    },
    {
      "name": "em",
      "extensions": {
        "KHR_materials_unlit": {}
      },
      "pbrMetallicRoughness": {
        "baseColorFactor": [
          0.471,
          0.824,
          1,
          1
        ],
        "metallicFactor": 0,
        "roughnessFactor": 1
      }
    },
    {
      "name": "hadron",
      "extensions": {
        "KHR_materials_unlit": {}
      },
      "pbrMetallicRoughness": {
        "baseColorFactor": [
          0.549,
          1,
          0.745,
          1
        ],
        "metallicFactor": 0,
        "roughnessFactor": 1
      }
    },
    {
      "name": "delta",
      "extensions": {
        "KHR_materials_unlit": {}
      },
      "pbrMetallicRoughness": {
        "baseColorFactor": [
          0.804,
          0.647,
          1,
          1
        ],
        "metallicFactor": 0,
        "roughnessFactor": 1
      }
    }
  ],
  "accessors": [
    {
      "bufferView": 0,
      "byteOffset": 0,
      "componentType": 5126,
      "count": 1664,
      "type": "VEC3",
      "min": [
        -0.7238760590553284,
        -0.9997256994247437,
        0
      ],
      "max": [
        0.7369064092636108,
        1.0200875997543335,
        0
      ]
    },
    {
      "bufferView": 1,
      "byteOffset": 0,
      "componentType": 5126,
      "count": 310,
      "type": "VEC3",
      "min": [
        -0.022446980699896812,
        -0.016846248880028725,
        -0.07910962402820587
      ],
      "max": [
        0.016249436885118484,
        0.010782066732645035,
        0.07712114602327347
      ]
    },
    {
      "bufferView": 2,
      "byteOffset": 0,
      "componentType": 5126,
      "count": 768,
      "type": "VEC3",
      "min": [
        -0.09339751303195953,
        -0.0017982148565351963,
        -0.005805655382573605
      ],
      "max": [
        0.0052869124338030815,
        0.12051849812269211,
        0.05982723459601402
      ]
    },
    {
      "bufferView": 3,
      "byteOffset": 0,
      "componentType": 5126,
      "count": 1680,
      "type": "VEC3",
      "min": [
        -0.1660623699426651,
        -0.0025662456173449755,
        -0.4351221024990082
      ],
      "max": [
        0.003091170685365796,
        0.23043067753314972,
        0.4971857964992523
      ]
    },
    {
      "bufferView": 4,
      "byteOffset": 0,
      "componentType": 5126,
      "count": 580,
      "type": "VEC3",
      "min": [
        -0.10466767847537994,
        -0.002454417757689953,
        -0.04761161282658577
      ],
      "max": [
        0.04893824830651283,
        0.1150747686624527,
        0.4778808653354645
      ]
    }
  ],
  "bufferViews": [
    {
      "buffer": 0,
      "byteOffset": 0,
      "byteLength": 19968,
      "target": 34962
    },
    {
      "buffer": 0,
      "byteOffset": 19968,
      "byteLength": 3720,
      "target": 34962
    },
    {
      "buffer": 0,
      "byteOffset": 23688,
      "byteLength": 9216,
      "target": 34962
    },
    {
      "buffer": 0,
      "byteOffset": 32904,
      "byteLength": 20160,
      "target": 34962
    },
    {
      "buffer": 0,
      "byteOffset": 53064,
      "byteLength": 6960,
      "target": 34962
    }
  ],
  "buffers": [
    {
      "byteLength": 60024,
      "uri": "data:application/octet-stream;base64,"
    }
  ]
}