<?xml version="1.0" encoding="UTF-8"?>
<svg xmlns="http://www.w3.org/2000/svg" width="2000" height="2000" viewBox="0 0 2000 2000">
<g fill="none" stroke-linecap="round" stroke-linejoin="round">
  <path d="M 1999.93 948.03 L 1996.86 948.27 L 1993.76 948.27 L 1990.94 948.26 L 1987.99 948.42 L 1985.07 948.97 L 1981.77 948.97 L 1979.10 949.06 L 1976.04 949.18 L 1973.04 949.11 L 1969.90 949.32 L 1966.92 949.95 L 1964.39 949.88 L 1960.96 950.00 L 1957.75 949.56 L 1954.97 950.04 L 1952.24 950.76 L 1949.17 950.70 L 1946.16 951.06 L 1942.92 950.81 L 1939.83 951.07 L 1936.93 951.15 L 1934.26 951.40 L 1931.13 951.16 L 1927.86 951.94 L 1925.12 951.76 L 1922.22 951.48 L 1918.90 952.00 L 1915.92 952.22 L 1913.30 952.21 L 1909.94 952.51 L 1907.52 952.29 L 1904.35 953.25 L 1901.18 953.50 L 1898.47 953.19 L 1895.00 953.13 L 1892.30 953.58 L 1889.30 953.66 L 1886.08 953.64 L 1882.91 954.07 L 1880.14 954.40 L 1877.11 954.28 L 1873.94 955.09 L 1871.09 954.97 L 1868.29 954.96 L 1865.10 954.89 L 1861.86 954.89 L 1858.83 955.20 L 1855.93 955.59 L 1852.90 955.92 L 1849.82 955.64 L 1847.27 955.76 L 1844.43 956.29 L 1841.40 956.18 L 1837.85 956.56 L 1834.82 956.86 L 1831.95 956.34 L 1829.68 956.78 L 1826.35 957.06 L 1822.96 957.45 L 1820.25 957.18 L 1817.55 957.57 L 1814.26 957.72 L 1811.16 957.89 L 1808.45 957.74 L 1805.39 957.77 L 1802.52 958.52 L 1799.26 958.59 L 1796.15 958.74 L 1793.16 959.00 L 1790.04 958.91 L 1787.73 958.73 L 1783.86 959.22 L 1781.35 959.39 L 1778.34 959.52 L 1775.32 959.93 L 1772.37 960.30 L 1769.50 960.09 L 1766.31 960.01 L 1763.18 960.25 L 1759.97 960.61 L 1757.40 960.67 L 1754.28 960.61 L 1751.33 961.09 L 1748.23 961.11 L 1745.28 961.32 L 1742.32 961.41 L 1739.29 961.43 L 1736.47 961.84 L 1733.36 961.73 L 1730.42 961.81 L 1727.52 962.18 L 1725.00 962.13 L 1721.54 962.35 L 1718.65 962.65 L 1715.35 962.76 L 1712.43 962.97 L 1709.51 962.97 L 1706.50 963.37 L 1703.29 963.34 L 1700.01 963.85 L 1697.33 963.40 L 1694.43 963.75 L 1691.50 964.21 L 1688.17 963.86 L 1685.24 964.23 L 1682.39 964.07 L 1679.18 964.21 L 1676.73 964.76 L 1673.26 964.74 L 1670.30 964.56 L 1667.21 965.43 L 1664.82 965.43 L 1661.41 965.67 L 1657.96 965.61 L 1655.56 965.62 L 1652.23 965.63 L 1649.20 966.05 L 1646.56 966.25 L 1643.37 966.85 L 1640.35 966.34 L 1637.56 966.85 L 1634.49 966.98 L 1631.58 966.75 L 1628.46 967.12 L 1625.19 967.82 L 1622.62 967.96 L 1619.89 967.86 L 1616.54 967.78 L 1613.54 968.29 L 1610.55 968.21 L 1607.73 967.80 L 1604.70 968.66 L 1601.61 968.55 L 1598.35 968.51 L 1595.67 968.80 L 1592.52 969.03 L 1589.45 969.21 L 1586.75 969.47 L 1583.60 969.42 L 1580.59 969.73 L 1577.65 969.93 L 1574.83 970.23 L 1571.65 970.14 L 1568.64 969.94 L 1565.09 970.92 L 1562.66 970.59 L 1559.65 970.91 L 1556.07 970.68 L 1553.47 971.33 L 1550.84 971.58 L 1547.19 971.28 L 1544.24 971.12 L 1541.80 971.76 L 1538.31 972.14 L 1535.49 972.43 L 1533.19 972.45 L 1529.81 972.27 L 1526.37 972.72 L 1523.80 972.50 L 1520.99 972.90 L 1517.78 973.28 L 1514.34 973.19 L 1511.87 973.22 L 1508.44 973.90 L 1505.60 973.87 L 1502.85 973.96 L 1500.03 974.06 L 1496.28 974.10 L 1494.11 974.54 L 1490.89 974.37 L 1487.31 974.40 L 1484.59 975.19 L 1481.69 974.95 L 1478.54 975.68 L 1475.74 975.26 L 1472.72 975.23 L 1469.83 975.75 L 1466.39 975.67 L 1463.92 975.64 L 1460.75 975.98 L 1457.51 976.13 L 1454.44 976.36 L 1452.01 976.48 L 1448.72 976.80 L 1445.70 976.89 L 1442.66 976.75 L 1439.89 977.23 L 1437.18 977.47 L 1433.92 977.42 L 1431.12 978.11 L 1427.98 977.47 L 1424.75 977.98 L 1421.63 978.20 L 1418.55 978.28 L 1415.84 978.48 L 1412.61 978.79 L 1409.14 978.73 L 1406.73 978.74 L 1404.23 978.97 L 1400.51 979.14 L 1397.78 979.49 L 1394.88 979.66 L 1392.12 979.84 L 1388.64 979.87 L 1385.84 979.50 L 1382.65 980.03 L 1380.15 980.24 L 1376.74 980.35 L 1374.14 980.99 L 1370.84 980.65 L 1367.88 980.74 L 1364.71 981.15 L 1362.27 981.19 L 1359.01 981.41 L 1355.62 981.67 L 1353.02 981.44 L 1349.91 981.52 L 1346.90 982.09 L 1343.56 982.11 L 1340.96 982.19 L 1338.01 982.54 L 1334.86 982.51 L 1331.85 982.55 L 1328.79 982.82 L 1325.87 983.03 L 1323.19 983.20 L 1320.00 983.91 L 1316.81 983.58 L 1313.85 983.59 L 1311.04 983.78 L 1307.97 983.81 L 1304.95 983.98 L 1301.96 984.42 L 1298.67 984.30 L 1296.27 985.02 L 1293.43 984.72 L 1290.35 985.18 L 1286.77 985.09 L 1283.98 985.45 L 1280.93 985.95 L 1277.91 985.66 L 1274.95 986.07 L 1272.15 985.69 L 1268.89 985.85 L 1265.22 986.47 L 1262.86 986.18 L 1260.14 986.22 L 1257.04 986.54 L 1253.97 986.38 L 1251.22 986.57 L 1248.11 987.17 L 1245.01 987.47 L 1242.17 987.29 L 1238.84 987.33 L 1235.86 987.64 L 1233.28 987.95 L 1230.64 988.06 L 1227.09 988.24 L 1223.81 987.91 L 1221.15 988.83 L 1218.13 988.49 L 1215.08 988.64 L 1212.00 988.67 L 1208.93 989.55 L 1206.06 989.43 L 1202.80 989.19 L 1200.34 989.47 L 1197.59 989.69 L 1194.16 989.93 L 1191.51 990.14 L 1187.82 990.00 L 1184.52 990.50 L 1182.00 990.28 L 1179.41 990.54 L 1176.20 990.94 L 1172.95 990.86 L 1170.16 991.63 L 1167.61 991.56 L 1164.63 991.60 L 1161.08 991.61 L 1158.19 991.77 L 1155.27 992.32 L 1152.00 992.42 L 1149.16 992.17 L 1146.31 992.33 L 1143.13 992.66 L 1140.01 992.63 L 1137.36 992.74 L 1134.17 993.25 L 1131.30 993.20 L 1128.03 993.19 L 1124.92 993.30 L 1122.18 993.54 L 1119.44 993.48 L 1115.95 994.32 L 1113.42 993.84 L 1110.50 994.42 L 1107.21 994.01 L 1104.24 994.26 L 1101.05 994.77 L 1098.07 994.63 L 1095.39 995.07 L 1092.19 995.35 L 1089.46 995.33 L 1086.36 995.45 L 1083.42 995.71 L 1080.41 996.10 L 1076.89 996.38 L 1074.15 996.40 L 1071.50 996.20 L 1067.62 996.27 L 1065.35 997.12 L 1062.40 997.10 L 1059.43 997.02 L 1056.10 997.10 L 1053.22 996.90 L 1050.25 997.55 L 1047.37 997.50 L 1044.69 997.99 L 1041.46 997.84 L 1038.17 998.16 L 1035.48 998.02 L 1032.37 998.27 L 1029.15 998.60 L 1026.52 998.62 L 1023.42 998.98 L 1020.52 998.89 L 1016.81 998.96 L 1014.78 999.22 L 1011.11 999.20 L 1008.61 999.58 L 1005.29 999.91 L 1002.51 999.75 L 1000.00 1000.00 L 997.00 1000.15 L 994.01 1000.30 L 991.01 1000.46 L 988.02 1000.62 L 985.02 1000.78 L 982.02 1000.94 L 979.03 1001.10 L 976.03 1001.25 L 973.04 1001.41 L 970.04 1001.57 L 967.05 1001.74 L 964.05 1001.91 L 961.05 1002.06 L 958.06 1002.22 L 955.06 1002.38 L 952.07 1002.53 L 949.07 1002.68 L 946.07 1002.84 L 943.08 1002.99 L 940.08 1003.13 L 937.09 1003.27 L 934.09 1003.42 L 931.09 1003.56 L 928.10 1003.71 L 925.10 1003.87 L 922.10 1004.04 L 919.11 1004.21 L 916.11 1004.38 L 913.12 1004.54 L 910.12 1004.72 L 907.13 1004.89 L 904.14 1005.08 L 901.14 1005.26 L 898.15 1005.44 L 895.15 1005.62 L 892.16 1005.79 L 889.16 1005.96 L 886.17 1006.13 L 883.17 1006.28 L 880.17 1006.45 L 877.18 1006.61 L 874.18 1006.77 L 871.19 1006.94 L 868.19 1007.11 L 865.20 1007.27 L 862.20 1007.44 L 859.21 1007.61 L 856.21 1007.77 L 853.22 1007.93 L 850.22 1008.11 L 847.23 1008.28 L 844.23 1008.46 L 841.23 1008.62 L 838.24 1008.80 L 835.25 1008.97 L 832.25 1009.14 L 829.25 1009.32 L 826.26 1009.49 L 823.26 1009.65 L 820.27 1009.81 L 817.27 1009.97 L 814.28 1010.12 L 811.28 1010.28 L 808.28 1010.42 L 805.29 1010.57 L 802.29 1010.72 L 799.30 1010.87 L 796.30 1011.01 L 793.30 1011.16 L 790.31 1011.31 L 787.31 1011.46 L 784.31 1011.61 L 781.32 1011.76 L 778.32 1011.90 L 775.32 1012.04 L 772.33 1012.18 L 769.33 1012.33 L 766.33 1012.47 L 763.34 1012.62 L 760.34 1012.76 L 757.34 1012.89 L 754.35 1013.04 L 751.35 1013.17 L 748.35 1013.29 L 745.36 1013.42 L 742.36 1013.55 L 739.36 1013.67 L 736.36 1013.79 L 733.37 1013.91 L 730.37 1014.02 L 727.37 1014.14 L 724.37 1014.26 L 721.38 1014.38 L 718.38 1014.50 L 715.38 1014.63 L 712.38 1014.76 L 709.39 1014.89 L 706.39 1015.03 L 703.39 1015.17 L 700.40 1015.31 L 697.40 1015.47 L 694.40 1015.62 L 691.41 1015.77 L 688.41 1015.92 L 685.41 1016.06 L 682.42 1016.19 L 679.42 1016.34 L 676.42 1016.49 L 673.43 1016.65 L 670.43 1016.81 L 667.44 1016.96 L 664.44 1017.12 L 661.44 1017.27 L 658.45 1017.42 L 655.45 1017.57 L 652.46 1017.74 L 649.46 1017.90 L 646.47 1018.05 L 643.47 1018.21 L 640.47 1018.37 L 637.48 1018.54 L 634.48 1018.70 L 631.49 1018.86 L 628.49 1019.03 L 625.50 1019.19 L 622.50 1019.36 L 619.51 1019.52 L 616.51 1019.68 L 613.51 1019.84 L 610.52 1020.01 L 607.52 1020.16 L 604.53 1020.32 L 601.53 1020.47 L 598.53 1020.61 L 595.54 1020.77 L 592.54 1020.92 L 589.55 1021.07 L 586.55 1021.21 L 583.55 1021.35 L 580.56 1021.49 L 577.56 1021.64 L 574.56 1021.78 L 571.57 1021.91 L 568.57 1022.05 L 565.57 1022.17 L 562.57 1022.30 L 559.58 1022.42 L 556.58 1022.55 L 553.58 1022.67 L 550.58 1022.80 L 547.59 1022.93 L 544.59 1023.06 L 541.59 1023.19 L 538.60 1023.33 L 535.60 1023.46 L 532.60 1023.60 L 529.60 1023.74 L 526.61 1023.88 L 523.61 1024.00 L 520.61 1024.13 L 517.62 1024.27 L 514.62 1024.39 L 511.62 1024.51 L 508.62 1024.63 L 505.63 1024.76 L 502.63 1024.87 L 499.63 1024.99 L 496.63 1025.11 L 493.64 1025.23 L 490.64 1025.34 L 487.64 1025.47 L 484.64 1025.59 L 481.65 1025.72 L 478.65 1025.85 L 475.65 1025.99 L 472.66 1026.13 L 469.66 1026.27 L 466.66 1026.41 L 463.67 1026.55 L 460.67 1026.69 L 457.67 1026.84 L 454.68 1026.99 L 451.68 1027.13 L 448.68 1027.27 L 445.69 1027.41 L 442.69 1027.54 L 439.69 1027.67 L 436.70 1027.82 L 433.70 1027.97 L 430.70 1028.12 L 427.71 1028.29 L 424.71 1028.45 L 421.72 1028.61 L 418.72 1028.78 L 415.73 1028.94 L 412.73 1029.10 L 409.73 1029.24 L 406.74 1029.39 L 403.74 1029.53 L 400.74 1029.68 L 397.75 1029.81 L 394.75 1029.95 L 391.75 1030.08 L 388.76 1030.21 L 385.76 1030.34 L 382.76 1030.47 L 379.76 1030.60 L 376.77 1030.72 L 373.77 1030.83 L 370.77 1030.95 L 367.77 1031.07 L 364.78 1031.20 L 361.78 1031.32 L 358.78 1031.43 L 355.78 1031.54 L 352.78 1031.64 L 349.79 1031.75 L 346.79 1031.86 L 343.79 1031.97 L 340.79 1032.08 L 337.79 1032.20 L 334.80 1032.32 L 331.80 1032.45 L 328.80 1032.57 L 325.80 1032.70 L 322.81 1032.83 L 319.81 1032.97 L 316.81 1033.12 L 313.82 1033.27 L 310.82 1033.44 L 307.83 1033.61 L 304.83 1033.80 L 301.84 1033.97 L 298.84 1034.15 L 295.85 1034.33 L 292.85 1034.50 L 289.86 1034.69 L 286.87 1034.87 L 283.87 1035.06 L 280.88 1035.24 L 277.88 1035.42 L 274.89 1035.60 L 271.89 1035.78 L 268.90 1035.95 L 265.90 1036.13 L 262.91 1036.29 L 259.91 1036.46 L 256.92 1036.62 L 253.92 1036.78 L 250.93 1036.93 L 247.93 1037.09 L 244.93 1037.23 L 241.94 1037.37 L 238.94 1037.51 L 235.94 1037.64 L 232.94 1037.77 L 229.95 1037.90 L 226.95 1038.02 L 223.95 1038.15 L 220.96 1038.28 L 217.96 1038.42 L 214.96 1038.55 L 211.96 1038.68 L 208.97 1038.82 L 205.97 1038.95 L 202.97 1039.09 L 199.98 1039.22 L 196.98 1039.36 L 193.98 1039.49 L 190.99 1039.64 L 187.99 1039.79 L 184.99 1039.95 L 182.00 1040.11 L 179.00 1040.27 L 176.01 1040.44 L 173.01 1040.61 L 170.02 1040.77 L 167.02 1040.92 L 164.02 1041.08 L 161.03 1041.25 L 158.03 1041.41 L 155.04 1041.58 L 152.04 1041.75 L 149.05 1041.93 L 146.05 1042.10 L 143.06 1042.27 L 140.06 1042.44 L 137.07 1042.61 L 134.07 1042.78 L 131.08 1042.96 L 128.08 1043.14 L 125.09 1043.31 L 122.09 1043.48 L 119.10 1043.65 L 116.10 1043.81 L 113.11 1043.97 L 110.11 1044.12 L 107.12 1044.28 L 104.12 1044.45 L 101.12 1044.63 L 98.13 1044.79 L 95.13 1044.96 L 92.14 1045.14 L 89.14 1045.30 L 86.15 1045.47 L 83.15 1045.64 L 80.16 1045.82 L 77.17 1046.01 L 74.17 1046.19 L 71.18 1046.38 L 68.18 1046.57 L 65.19 1046.76 L 62.19 1046.94 L 59.20 1047.12 L 56.20 1047.30 L 53.21 1047.48 L 50.22 1047.67 L 47.22 1047.85 L 44.23 1048.06 L 41.24 1048.26 L 38.24 1048.47 L 35.25 1048.68 L 32.26 1048.88 L 29.26 1049.08 L 26.27 1049.29 L 23.28 1049.49 L 20.29 1049.71 L 17.29 1049.92 L 14.30 1050.14 L 11.31 1050.36 L 8.32 1050.58 L 5.32 1050.79 L 2.33 1050.99 L -0.66 1051.18 L -3.66 1051.38 L -6.65 1051.57 L -9.64 1051.77 L -12.64 1051.97 L -15.63 1052.16 L -18.62 1052.35 L -21.62 1052.56" stroke="rgb(245,245,245)" stroke-opacity="0.912" stroke-width="1.68" />
  <path d="M 999.33 1001.81 L 996.26 1002.06 L 993.20 1002.27 L 990.15 1002.37 L 987.11 1002.46 L 984.08 1002.48 L 981.07 1002.50 L 978.07 1002.55 L 975.08 1002.60 L 972.10 1002.71 L 969.13 1002.80 L 966.18 1002.91 L 963.24 1002.98 L 960.32 1003.11 L 957.40 1003.23 L 954.49 1003.35 L 951.60 1003.52 L 948.72 1003.68 L 945.85 1003.85 L 943.01 1004.09 L 940.17 1004.28 L 937.34 1004.48 L 934.53 1004.71 L 931.74 1004.94 L 928.96 1005.17 L 926.19 1005.36 L 923.44 1005.55 L 920.69 1005.79 L 917.95 1005.95 L 915.22 1006.17 L 912.50 1006.44 L 909.80 1006.73 L 907.10 1007.01 L 904.42 1007.29 L 901.76 1007.56 L 899.10 1007.84 L 896.45 1008.11 L 893.82 1008.38" stroke="rgb(120,210,255)" stroke-opacity="0.470" stroke-width="1.64" />
  <path d="M 1000.47 1002.78 L 997.28 1003.00 L 994.10 1003.19 L 990.93 1003.37 L 987.78 1003.65 L 984.65 1003.94 L 981.54 1004.25 L 978.45 1004.67 L 975.37 1005.10 L 972.30 1005.47" stroke="rgb(120,210,255)" stroke-opacity="0.847" stroke-width="1.62" />
  <path d="M 1004.23 999.29 L 1000.79 999.44 L 997.36 999.54 L 993.94 999.63 L 990.54 999.75 L 987.16 999.86 L 983.79 1000.04 L 980.43 1000.20 L 977.08 1000.36 L 973.75 1000.52 L 970.43 1000.68 L 967.12 1000.87 L 963.83 1001.00 L 960.55 1001.15 L 957.28 1001.29 L 954.03 1001.43 L 950.79 1001.53 L 947.56 1001.63 L 944.34 1001.73 L 941.14 1001.85 L 937.95 1001.96 L 934.77 1002.05 L 931.60 1002.15 L 928.45 1002.24 L 925.31 1002.32 L 922.18 1002.38 L 919.07 1002.41 L 915.96 1002.42 L 912.87 1002.45 L 909.79 1002.50 L 906.73 1002.55 L 903.67 1002.60 L 900.63 1002.69 L 897.60 1002.78 L 894.59 1002.84 L 891.58 1002.91 L 888.59 1002.97 L 885.61 1003.06 L 882.64 1003.15 L 879.68 1003.25 L 876.74 1003.29 L 873.80 1003.32 L 870.88 1003.33 L 867.97 1003.35 L 865.07 1003.36 L 862.18 1003.38 L 859.30 1003.37 L 856.44 1003.38 L 853.59 1003.42 L 850.74 1003.45 L 847.91 1003.48 L 845.09 1003.53 L 842.29 1003.61 L 839.50 1003.71 L 836.71 1003.80 L 833.94 1003.91 L 831.18 1003.99 L 828.43 1004.09 L 825.69 1004.21 L 822.96 1004.36 L 820.25 1004.52 L 817.55 1004.67 L 814.85 1004.82 L 812.17 1005.01" stroke="rgb(120,210,255)" stroke-opacity="0.847" stroke-width="1.61" />
  <path d="M 1000.77 1003.17 L 997.62 1003.32 L 994.50 1003.54 L 991.38 1003.75 L 988.27 1003.97 L 985.18 1004.18 L 982.10 1004.40 L 979.03 1004.58" stroke="rgb(120,210,255)" stroke-opacity="0.844" stroke-width="1.61" />
  <path d="M 1001.82 999.13 L 998.67 999.15 L 995.53 999.15 L 992.41 999.16 L 989.29 999.17 L 986.20 999.12 L 983.11 999.17 L 980.04 999.23 L 976.98 999.29 L 973.93 999.36 L 970.89 999.43 L 967.86 999.48 L 964.84 999.51 L 961.84 999.52 L 958.84 999.53 L 955.86 999.51 L 952.89 999.48 L 949.93 999.51 L 946.99 999.53 L 944.05 999.54 L 941.13 999.53 L 938.22 999.55 L 935.33 999.56 L 932.44 999.54 L 929.57 999.59 L 926.73 999.69 L 923.89 999.77 L 921.07 999.88 L 918.26 999.99 L 915.46 1000.03 L 912.68 1000.01 L 909.90 1000.01 L 907.14 999.97 L 904.40 1000.02 L 901.66 1000.03 L 898.94 1000.06 L 896.23 1000.09 L 893.53 1000.08 L 890.85 1000.07 L 888.17 1000.01 L 885.52 999.89 L 882.89 999.79 L 880.26 999.68 L 877.65 999.56 L 875.06 999.44 L 872.47 999.30 L 869.89 999.17 L 867.32 999.02 L 864.76 998.87 L 862.21 998.73 L 859.66 998.57 L 857.12 998.49 L 854.59 998.43" stroke="rgb(120,210,255)" stroke-opacity="0.844" stroke-width="1.60" />
  <path d="M 1001.07 1002.71 L 998.26 1002.85 L 995.45 1003.03 L 992.66 1003.19 L 989.89 1003.38 L 987.11 1003.44 L 984.36 1003.59 L 981.62 1003.75 L 978.89 1003.96 L 976.18 1004.20 L 973.48 1004.47 L 970.79 1004.72 L 968.11 1004.99 L 965.44 1005.27 L 962.79 1005.52 L 960.14 1005.78 L 957.51 1006.08 L 954.90 1006.33 L 952.29 1006.67 L 949.69 1006.96 L 947.09 1007.23 L 944.50 1007.48 L 941.93 1007.82 L 939.38 1008.18 L 936.83 1008.58 L 934.32 1009.07 L 931.83 1009.66 L 929.35 1010.21 L 926.88 1010.75 L 924.40 1011.18 L 921.92 1011.58 L 919.46 1011.98 L 917.01 1012.36 L 914.56 1012.74 L 912.13 1013.13 L 909.71 1013.49 L 907.29 1013.79" stroke="rgb(120,210,255)" stroke-opacity="0.457" stroke-width="1.56" />
  <path d="M 996.70 1003.27 L 994.02 1003.49 L 991.34 1003.69 L 988.67 1003.90 L 986.02 1004.16 L 983.39 1004.50 L 980.76 1004.83 L 978.15 1005.16 L 975.55 1005.51 L 972.96 1005.84 L 970.38 1006.20 L 967.82 1006.61 L 965.26 1006.89 L 962.70 1007.16 L 960.15 1007.40 L 957.62 1007.70 L 955.09 1007.90 L 952.57 1008.09 L 950.06 1008.29 L 947.57 1008.47 L 945.08 1008.65 L 942.59 1008.76 L 940.12 1008.90 L 937.65 1009.04 L 935.19 1009.19 L 932.75 1009.35 L 930.31 1009.53 L 927.90 1009.69 L 925.48 1009.82 L 923.08 1010.02 L 920.70 1010.25 L 918.32 1010.53 L 915.95 1010.76 L 913.58 1010.93 L 911.22 1011.06 L 908.87 1011.22 L 906.53 1011.39 L 904.21 1011.63 L 901.90 1011.87 L 899.59 1012.11 L 897.30 1012.34 L 895.01 1012.58 L 892.72 1012.69 L 890.45 1012.84 L 888.18 1013.00 L 885.93 1013.18 L 883.69 1013.36 L 881.45 1013.51 L 879.21 1013.57 L 876.99 1013.59 L 874.77 1013.61 L 872.57 1013.63 L 870.37 1013.67 L 868.19 1013.73 L 866.01 1013.79 L 863.84 1013.85" stroke="rgb(120,210,255)" stroke-opacity="0.451" stroke-width="1.53" />
  <path d="M 1000.72 1002.77 L 1000.05 1002.03 L 999.39 1001.29 L 998.70 1000.58 L 998.02 999.86 L 997.37 999.16 L 996.73 998.47 L 996.09 997.78 L 995.46 997.15 L 994.84 996.52 L 994.23 995.89" stroke="rgb(255,210,135)" stroke-opacity="0.657" stroke-width="1.32" />
  <path d="M 832.41 1006.02 L 830.34 1006.58 L 828.28 1007.15 L 826.27 1007.85 L 824.29 1008.59 L 822.39 1009.48 L 820.49 1010.31 L 818.58 1011.10 L 816.66 1011.84 L 814.82 1012.75 L 812.94 1013.56" stroke="rgb(140,255,190)" stroke-opacity="0.588" stroke-width="1.31" />
  <path d="M 918.55 1022.70 L 915.59 1022.29 L 912.64 1021.89 L 909.71 1021.47 L 906.80 1021.06 L 903.91 1020.64 L 901.00 1020.35 L 898.11 1020.06 L 895.22 1019.80 L 892.33 1019.54 L 889.45 1019.29 L 886.55 1019.01 L 883.69 1018.68 L 880.82 1018.35 L 877.96 1018.05 L 875.11 1017.74 L 872.28 1017.44 L 869.46 1017.14 L 866.63 1016.76 L 863.81 1016.39 L 861.01 1016.01 L 858.22 1015.64 L 855.46 1015.24 L 852.71 1014.85 L 849.96 1014.46 L 847.25 1014.03 L 844.56 1013.61 L 841.89 1013.18 L 839.22 1012.77 L 836.56 1012.40 L 833.90 1012.03 L 831.25 1011.72 L 828.61 1011.42 L 825.98 1011.14 L 823.35 1010.85 L 820.74 1010.57 L 818.14 1010.27 L 815.55 1009.95" stroke="rgb(255,210,135)" stroke-opacity="0.653" stroke-width="1.30" />
  <path d="M 998.08 998.33 L 1001.31 998.75 L 1004.54 999.16 L 1007.72 999.64 L 1010.88 1000.12 L 1014.02 1000.61 L 1017.12 1001.11 L 1020.21 1001.60 L 1023.29 1002.09 L 1026.36 1002.56 L 1029.42 1003.05 L 1032.48 1003.56 L 1035.53 1004.05 L 1038.57 1004.53 L 1041.59 1004.96 L 1044.61 1005.37 L 1047.63 1005.81 L 1050.64 1006.24 L 1053.64 1006.67 L 1056.63 1007.09 L 1059.62 1007.50 L 1062.59 1007.90 L 1065.56 1008.28 L 1068.52 1008.62 L 1071.47 1008.94 L 1074.42 1009.26 L 1077.35 1009.59 L 1080.29 1009.93 L 1083.21 1010.27 L 1086.11 1010.61 L 1089.00 1010.96 L 1091.88 1011.30 L 1094.75 1011.63 L 1097.58 1011.97 L 1100.41 1012.31 L 1103.22 1012.68 L 1106.01 1013.07 L 1108.79 1013.45 L 1111.56 1013.83 L 1114.30 1014.23 L 1117.03 1014.69 L 1119.74 1015.17 L 1122.44 1015.70 L 1125.13 1016.22 L 1127.81 1016.74 L 1130.47 1017.30 L 1133.11 1017.85 L 1135.77 1018.37 L 1138.42 1018.88 L 1141.05 1019.41 L 1143.68 1019.94 L 1146.29 1020.52 L 1148.88 1021.15 L 1151.46 1021.80 L 1154.02 1022.45 L 1156.56 1023.10 L 1159.11 1023.75 L 1161.63 1024.43 L 1164.14 1025.14 L 1166.63 1025.90 L 1169.11 1026.65 L 1171.58 1027.38 L 1174.04 1028.09 L 1176.50 1028.80" stroke="rgb(255,210,135)" stroke-opacity="0.647" stroke-width="1.29" />
  <path d="M 953.30 997.76 L 951.29 998.57 L 949.29 999.40 L 947.29 1000.21 L 945.31 1001.03 L 943.33 1001.83 L 941.34 1002.55 L 939.36 1003.28 L 937.40 1004.03 L 935.47 1004.85 L 933.49 1005.52 L 931.50 1006.12 L 929.52 1006.72 L 927.55 1007.34 L 925.59 1007.96 L 923.63 1008.58 L 921.67 1009.18 L 919.72 1009.76 L 917.74 1010.16 L 915.78 1010.67 L 913.86 1011.23 L 911.95 1011.84 L 910.09 1012.52 L 908.23 1013.19 L 906.38 1013.83 L 904.54 1014.43 L 902.69 1014.98 L 900.86 1015.62" stroke="rgb(140,255,190)" stroke-opacity="0.579" stroke-width="1.28" />
  <path d="M 809.29 1018.72 L 807.23 1019.15 L 805.22 1019.59 L 803.17 1020.01 L 801.12 1020.39 L 799.04 1020.60 L 796.96 1020.80 L 794.89 1021.00 L 792.84 1021.18 L 790.79 1021.33 L 788.75 1021.49 L 786.71 1021.56 L 784.68 1021.65 L 782.67 1021.60 L 780.68 1021.42 L 778.70 1021.22 L 776.72 1021.04 L 774.76 1020.81 L 772.80 1020.54 L 770.86 1020.33 L 768.92 1020.12 L 766.96 1019.84 L 765.04 1019.46 L 763.17 1018.95 L 761.32 1018.43 L 759.47 1017.94 L 757.64 1017.47 L 755.93 1016.90 L 754.23 1016.34 L 752.53 1015.77" stroke="rgb(140,255,190)" stroke-opacity="0.578" stroke-width="1.27" />
  <path d="M 999.03 1002.64 L 996.82 1002.66 L 994.62 1002.69 L 992.44 1002.82 L 990.26 1002.97 L 988.09 1003.10 L 985.93 1003.27 L 983.78 1003.46 L 981.64 1003.59 L 979.51 1003.79 L 977.39 1004.07 L 975.29 1004.34 L 973.20 1004.66 L 971.10 1004.89 L 969.02 1005.05 L 966.93 1005.18 L 964.86 1005.33 L 962.79 1005.47 L 960.74 1005.63 L 958.70 1005.85 L 956.67 1005.99 L 954.64 1006.14 L 952.61 1006.27 L 950.60 1006.42 L 948.59 1006.55 L 946.60 1006.60 L 944.61 1006.70 L 942.63 1006.79 L 940.66 1007.02 L 938.70 1007.22 L 936.74 1007.45" stroke="rgb(140,255,190)" stroke-opacity="0.571" stroke-width="1.25" />
  <path d="M 926.67 1001.21 L 923.93 1000.00 L 921.18 998.81 L 918.47 997.61 L 915.80 996.39 L 913.14 995.17 L 910.50 993.96 L 907.87 992.75 L 905.29 991.44 L 902.71 990.14 L 900.15 988.87 L 897.60 987.59 L 895.04 986.32 L 892.47 985.07 L 889.94 983.82 L 887.39 982.57 L 884.84 981.33" stroke="rgb(205,165,255)" stroke-opacity="0.716" stroke-width="1.23" />
  <path d="M 1000.67 999.82 L 998.08 999.35 L 995.50 998.88 L 992.92 998.37 L 990.34 997.85 L 987.78 997.29 L 985.23 996.73 L 982.71 996.14 L 980.19 995.55 L 977.69 994.94 L 975.20 994.34 L 972.72 993.74 L 970.25 993.14 L 967.79 992.55 L 965.35 991.96 L 962.90 991.52 L 960.45 991.10 L 958.04 990.67 L 955.63 990.26 L 953.26 989.88 L 950.89 989.49 L 948.51 989.15 L 946.13 988.82 L 943.76 988.49 L 941.39 988.22 L 939.05 987.97 L 936.74 987.77 L 934.44 987.56 L 932.13 987.35 L 929.85 987.09 L 927.55 986.82 L 925.25 986.59 L 922.97 986.37 L 920.70 986.15" stroke="rgb(255,210,135)" stroke-opacity="0.431" stroke-width="1.23" />
  <path d="M 995.99 1000.17 L 996.22 997.74 L 996.47 995.31 L 996.71 992.88 L 996.97 990.44 L 997.17 987.99 L 997.38 985.55 L 997.55 983.10 L 997.70 980.67 L 997.84 978.25 L 998.03 975.84 L 998.27 973.43 L 998.48 971.01 L 998.73 968.58 L 998.97 966.17 L 999.22 963.78 L 999.48 961.40 L 999.75 959.03 L 1000.00 956.71 L 1000.25 954.39 L 1000.50 952.07 L 1000.74 949.76 L 1000.98 947.46 L 1001.20 945.16 L 1001.41 942.90" stroke="rgb(205,165,255)" stroke-opacity="0.715" stroke-width="1.23" />
  <path d="M 997.72 998.21 L 994.85 999.14 L 991.99 1000.10 L 989.15 1001.06 L 986.31 1001.98 L 983.49 1002.92 L 980.66 1003.81 L 977.85 1004.68 L 975.05 1005.54 L 972.26 1006.41 L 969.49 1007.27 L 966.72 1008.13 L 963.97 1008.99 L 961.23 1009.86 L 958.50 1010.71 L 955.77 1011.54 L 953.06 1012.41 L 950.35 1013.28 L 947.67 1014.16 L 944.99 1015.03 L 942.33 1015.91 L 939.68 1016.79 L 937.02 1017.59 L 934.36 1018.34 L 931.70 1019.05 L 929.04 1019.78 L 926.41 1020.52 L 923.78 1021.23 L 921.15 1021.96 L 918.55 1022.70 L 915.95 1023.43 L 913.37 1024.18 L 910.80 1024.94 L 908.24 1025.67 L 905.69 1026.41 L 903.19 1027.24 L 900.69 1028.07 L 898.21 1028.92 L 895.75 1029.78 L 893.29 1030.65 L 890.83 1031.44 L 888.37 1032.22 L 885.92 1032.96 L 883.47 1033.69 L 881.04 1034.47 L 878.63 1035.25 L 876.22 1035.99 L 873.82 1036.72 L 871.43 1037.43" stroke="rgb(255,210,135)" stroke-opacity="0.430" stroke-width="1.23" />
  <path d="M 1000.75 999.36 L 998.79 1000.73 L 996.86 1002.12 L 994.92 1003.50 L 993.04 1004.91 L 991.15 1006.29 L 989.27 1007.68 L 987.31 1009.05 L 985.37 1010.43 L 983.44 1011.80 L 981.52 1013.19 L 979.61 1014.62 L 977.70 1016.03 L 975.79 1017.42 L 973.87 1018.79 L 971.94 1020.14 L 970.05 1021.46 L 968.16 1022.77 L 966.28 1024.09 L 964.45 1025.40 L 962.63 1026.74 L 960.81 1028.10 L 958.98 1029.44 L 957.16 1030.79 L 955.36 1032.13 L 953.57 1033.47 L 951.79 1034.80 L 950.03 1036.12 L 948.29 1037.43 L 946.59 1038.76 L 944.90 1040.10 L 943.24 1041.45 L 941.61 1042.80 L 940.00 1044.17 L 938.39 1045.55 L 936.80 1046.91 L 935.20 1048.24 L 933.61 1049.57 L 932.01 1050.87 L 930.45 1052.21" stroke="rgb(205,165,255)" stroke-opacity="0.715" stroke-width="1.23" />
  <path d="M 999.15 996.72 L 997.81 993.94 L 996.45 991.17 L 995.19 988.39 L 993.94 985.63 L 992.67 982.89 L 991.40 980.16 L 990.13 977.44 L 988.88 974.73 L 987.69 972.03 L 986.52 969.35 L 985.32 966.71 L 984.17 964.07 L 983.06 961.43 L 982.00 958.76 L 980.89 956.13 L 979.80 953.49 L 978.69 950.89 L 977.59 948.31 L 976.49 945.73 L 975.38 943.16 L 974.28 940.61 L 973.16 938.06 L 972.01 935.56 L 970.84 933.05 L 969.67 930.55 L 968.51 928.06 L 967.35 925.61 L 966.16 923.21 L 965.00 920.81 L 963.89 918.40 L 962.82 915.99 L 961.77 913.60 L 960.64 911.28 L 959.55 908.98 L 958.50 906.69 L 957.45 904.41 L 956.41 902.14 L 955.36 899.86 L 954.30 897.60 L 953.28 895.36 L 952.28 893.10 L 951.30 890.85 L 950.32 888.61 L 949.30 886.41 L 948.30 884.23 L 947.29 882.06 L 946.28 879.89 L 945.20 877.76 L 944.12 875.65 L 943.04 873.55 L 941.94 871.48 L 940.82 869.40 L 939.70 867.34 L 938.60 865.28" stroke="rgb(205,165,255)" stroke-opacity="0.709" stroke-width="1.21" />
  <path d="M 926.67 1001.21 L 924.04 1001.09 L 921.38 1000.99 L 918.72 1000.96 L 916.04 1000.92 L 913.35 1000.89 L 910.73 1000.93 L 908.12 1000.95 L 905.52 1000.99 L 902.92 1001.00 L 900.31 1001.01 L 897.77 1001.03 L 895.23 1001.07 L 892.71 1001.12 L 890.16 1001.15 L 887.58 1001.20 L 885.00 1001.31 L 882.44 1001.38 L 879.89 1001.46 L 877.37 1001.59 L 874.86 1001.70 L 872.37 1001.81 L 869.87 1001.93 L 867.39 1002.06 L 864.96 1002.21 L 862.55 1002.36 L 860.15 1002.51 L 857.76 1002.66 L 855.38 1002.80 L 853.01 1002.94 L 850.64 1003.14 L 848.30 1003.31" stroke="rgb(205,165,255)" stroke-opacity="0.708" stroke-width="1.21" />
  <path d="M 1033.71 910.72 L 1034.12 908.20 L 1034.51 905.61 L 1035.01 902.97 L 1035.56 900.38 L 1036.20 897.84 L 1036.67 895.25 L 1037.10 892.67 L 1037.56 890.10 L 1038.05 887.49 L 1038.52 884.94 L 1038.80 882.44 L 1039.02 879.89 L 1039.18 877.37 L 1039.42 875.02 L 1039.73 872.62 L 1040.06 870.23" stroke="rgb(205,165,255)" stroke-opacity="0.708" stroke-width="1.21" />
  <path d="M 1000.55 998.28 L 1000.42 999.08 L 1000.24 999.85 L 1000.15 1000.66 L 1000.05 1001.50 L 999.91 1002.31 L 999.79 1003.11 L 999.61 1003.93 L 999.45 1004.75 L 999.29 1005.55 L 999.12 1006.41 L 998.97 1007.26 L 998.82 1008.10 L 998.69 1008.95 L 998.56 1009.80 L 998.37 1010.66 L 998.17 1011.48 L 998.01 1012.29" stroke="rgb(255,210,135)" stroke-opacity="0.425" stroke-width="1.21" />
  <path d="M 956.39 1002.67 L 953.51 1003.71 L 950.65 1004.72 L 947.79 1005.66 L 944.97 1006.57 L 942.12 1007.48 L 939.29 1008.38 L 936.45 1009.27 L 933.64 1010.14 L 930.83 1010.95 L 928.05 1011.82 L 925.23 1012.63 L 922.36 1013.40 L 919.49 1014.12 L 916.63 1014.82 L 913.77 1015.51 L 910.94 1016.18 L 908.13 1016.87 L 905.33 1017.54 L 902.55 1018.22 L 899.75 1018.87 L 896.97 1019.54 L 894.19 1020.20 L 891.41 1020.82 L 888.63 1021.39 L 885.88 1021.94 L 883.10 1022.40 L 880.35 1022.79 L 877.64 1023.26 L 874.93 1023.72 L 872.24 1024.18 L 869.57 1024.64 L 866.89 1025.10 L 864.23 1025.55 L 861.59 1026.02 L 858.94 1026.48 L 856.26 1026.89 L 853.59 1027.35 L 850.96 1027.86 L 848.34 1028.36 L 845.73 1028.84 L 843.15 1029.30 L 840.57 1029.77 L 838.00 1030.25 L 835.41 1030.68 L 832.79 1031.09 L 830.18 1031.50 L 827.58 1031.87 L 824.97 1032.19 L 822.39 1032.49 L 819.80 1032.80 L 817.23 1033.16 L 814.70 1033.53 L 812.17 1033.90 L 809.66 1034.28 L 807.15 1034.64" stroke="rgb(140,255,190)" stroke-opacity="0.742" stroke-width="1.20" />
  <path d="M 1000.58 1001.59 L 997.11 1001.79 L 993.66 1001.97 L 990.22 1002.11 L 986.79 1002.26 L 983.38 1002.43 L 979.98 1002.58 L 976.60 1002.74 L 973.22 1002.91 L 969.86 1003.06 L 966.52 1003.21 L 963.19 1003.34 L 959.87 1003.47 L 956.56 1003.61 L 953.27 1003.74 L 949.98 1003.83 L 946.72 1003.92 L 943.46 1003.99 L 940.22 1004.03 L 936.99 1004.06 L 933.77 1004.10 L 930.57 1004.14 L 927.38 1004.18 L 924.20 1004.22 L 921.04 1004.27 L 917.88 1004.32 L 914.74 1004.34 L 911.62 1004.38 L 908.50 1004.43 L 905.40 1004.44 L 902.31 1004.43 L 899.23 1004.40 L 896.17 1004.37 L 893.11 1004.33 L 890.07 1004.28 L 887.04 1004.24 L 884.03 1004.23 L 881.02 1004.22 L 878.03 1004.19 L 875.05 1004.20 L 872.07 1004.23 L 869.12 1004.27 L 866.17 1004.29 L 863.23 1004.31 L 860.31 1004.36 L 857.40 1004.44 L 854.50 1004.53 L 851.62 1004.61 L 848.74 1004.68 L 845.87 1004.73 L 843.02 1004.75 L 840.18 1004.78 L 837.35 1004.80 L 834.53 1004.83 L 831.72 1004.88 L 828.92 1004.93 L 826.14 1004.95 L 823.37 1004.98 L 820.60 1005.02 L 817.85 1005.07 L 815.11 1005.11 L 812.39 1005.19 L 809.67 1005.29 L 806.96 1005.38 L 804.27 1005.49 L 801.59 1005.59 L 798.91 1005.70 L 796.25 1005.78 L 793.60 1005.90 L 790.96 1006.02 L 788.33 1006.14 L 785.71 1006.25 L 783.10 1006.35 L 780.51 1006.44 L 777.92 1006.53 L 775.34 1006.58 L 772.77 1006.64 L 770.21 1006.69 L 767.66 1006.75 L 765.12 1006.82 L 762.59 1006.91 L 760.07 1006.99 L 757.56 1007.08 L 755.06 1007.15 L 752.58 1007.25 L 750.10 1007.35 L 747.63 1007.48 L 745.17 1007.60 L 742.72 1007.72 L 740.29 1007.84 L 737.86 1007.95 L 735.44 1008.06 L 733.03 1008.17 L 730.63 1008.28 L 728.24 1008.40 L 725.86 1008.52 L 723.50 1008.66 L 721.14 1008.81 L 718.79 1008.97 L 716.45 1009.12 L 714.12 1009.27 L 711.80 1009.40 L 709.49 1009.51 L 707.19 1009.61" stroke="rgb(140,255,190)" stroke-opacity="0.741" stroke-width="1.20" />
  <path d="M 997.64 1001.44 L 994.41 1001.51 L 991.19 1001.54 L 987.99 1001.62 L 984.80 1001.70 L 981.62 1001.78 L 978.46 1001.85 L 975.30 1001.89 L 972.17 1001.86 L 969.04 1001.86 L 965.93 1001.91 L 962.84 1001.92 L 959.76 1001.93 L 956.69 1001.87 L 953.63 1001.80 L 950.59 1001.72 L 947.56 1001.65 L 944.54 1001.53 L 941.53 1001.41 L 938.53 1001.35 L 935.55 1001.27 L 932.57 1001.26 L 929.62 1001.25 L 926.67 1001.21 L 923.75 1001.12 L 920.83 1001.03 L 917.93 1000.95 L 915.04 1000.85" stroke="rgb(205,165,255)" stroke-opacity="0.703" stroke-width="1.20" />
  <path d="M 999.46 995.58 L 996.02 995.75 L 992.60 995.94 L 989.19 996.12 L 985.80 996.26 L 982.41 996.40 L 979.04 996.54 L 975.68 996.68 L 972.34 996.82 L 969.01 996.97 L 965.69 997.13 L 962.39 997.32 L 959.11 997.51 L 955.83 997.68 L 952.57 997.85 L 949.32 998.05 L 946.09 998.26 L 942.86 998.48 L 939.66 998.67 L 936.46 998.85 L 933.27 999.04 L 930.10 999.19 L 926.94 999.37 L 923.80 999.55 L 920.67 999.78 L 917.55 1000.02 L 914.44 1000.25 L 911.35 1000.48 L 908.27 1000.70 L 905.20 1000.92 L 902.14 1001.13 L 899.10 1001.33 L 896.07 1001.53 L 893.05 1001.82 L 890.05 1002.09 L 887.06 1002.36 L 884.08 1002.59 L 881.11 1002.83 L 878.15 1003.07 L 875.20 1003.32 L 872.27 1003.54 L 869.35 1003.81 L 866.44 1004.06 L 863.54 1004.31 L 860.66 1004.52 L 857.78 1004.74 L 854.92 1004.93 L 852.06 1005.08 L 849.22 1005.21 L 846.38 1005.33 L 843.57 1005.46 L 840.76 1005.57 L 837.96 1005.72 L 835.18 1005.86 L 832.41 1006.02 L 829.64 1006.19 L 826.90 1006.37 L 824.16 1006.55 L 821.43 1006.74 L 818.72 1006.94 L 816.01 1007.11 L 813.31 1007.26 L 810.63 1007.41 L 807.95 1007.56 L 805.29 1007.69 L 802.63 1007.79 L 799.98 1007.86 L 797.34 1007.91 L 794.71 1007.98 L 792.09 1008.04 L 789.48 1008.09 L 786.89 1008.14 L 784.30 1008.19" stroke="rgb(140,255,190)" stroke-opacity="0.740" stroke-width="1.20" />
  <path d="M 1000.96 998.46 L 997.46 998.36 L 993.98 998.31 L 990.52 998.21 L 987.07 998.19 L 983.63 998.15 L 980.20 998.15 L 976.79 998.14 L 973.39 998.12 L 970.01 998.05 L 966.64 998.00 L 963.29 997.92 L 959.94 997.85 L 956.61 997.79 L 953.30 997.76 L 950.00 997.77 L 946.71 997.78 L 943.43 997.82 L 940.17 997.84 L 936.92 997.89 L 933.69 997.95 L 930.46 998.01 L 927.25 998.06 L 924.05 998.11 L 920.87 998.23 L 917.69 998.35 L 914.53 998.46 L 911.39 998.55 L 908.25 998.63 L 905.13 998.72 L 902.02 998.81 L 898.92 998.92 L 895.84 999.01 L 892.77 999.11 L 889.71 999.21 L 886.66 999.26 L 883.62 999.31 L 880.60 999.34 L 877.58 999.38 L 874.58 999.41 L 871.59 999.43 L 868.62 999.42 L 865.65 999.39 L 862.70 999.37 L 859.76 999.33 L 856.83 999.33 L 853.91 999.31 L 851.00 999.31 L 848.11 999.34" stroke="rgb(140,255,190)" stroke-opacity="0.740" stroke-width="1.19" />
  <path d="M 886.05 1003.90 L 883.90 1003.43 L 881.82 1002.89 L 879.72 1002.41 L 877.64 1001.92 L 875.56 1001.48 L 873.50 1001.04 L 871.42 1000.66 L 869.34 1000.22 L 867.26 999.66 L 865.23 999.14 L 863.22 998.55 L 861.21 997.99 L 859.27 997.32 L 857.38 996.59 L 855.51 995.84 L 853.65 995.08" stroke="rgb(140,255,190)" stroke-opacity="0.555" stroke-width="1.19" />
  <path d="M 942.99 1002.64 L 939.57 1002.35 L 936.15 1002.04 L 932.73 1001.78 L 929.33 1001.56 L 925.94 1001.35 L 922.58 1001.14 L 919.23 1000.88 L 915.89 1000.63 L 912.56 1000.45 L 909.24 1000.27 L 905.94 1000.06 L 902.65 999.86 L 899.39 999.63 L 896.14 999.41 L 892.89 999.24 L 889.66 999.07 L 886.45 998.91 L 883.25 998.75 L 880.06 998.57 L 876.88 998.41 L 873.71 998.23 L 870.57 998.04 L 867.45 997.81 L 864.34 997.58 L 861.25 997.33 L 858.18 997.04 L 855.12 996.75 L 852.07 996.46 L 849.03 996.22 L 846.01 995.97 L 843.00 995.71 L 840.01 995.44 L 837.04 995.13 L 834.10 994.70 L 831.18 994.19 L 828.29 993.68 L 825.41 993.14 L 822.55 992.61 L 819.70 992.09 L 816.86 991.57 L 814.04 991.07 L 811.22 990.66 L 808.40 990.26 L 805.60 989.79 L 802.82 989.32 L 800.04 988.85 L 797.27 988.36 L 794.51 987.86 L 791.76 987.37 L 789.02 986.92 L 786.30 986.48 L 783.59 986.05 L 780.89 985.63 L 778.19 985.20 L 775.51 984.77 L 772.83 984.34 L 770.15 983.92 L 767.48 983.50 L 764.82 983.09 L 762.17 982.67 L 759.53 982.26 L 756.91 981.84 L 754.28 981.43 L 751.67 980.97 L 749.07 980.53 L 746.50 980.01 L 743.93 979.51 L 741.39 978.97 L 738.87 978.42 L 736.36 977.87 L 733.86 977.33 L 731.36 976.79 L 728.88 976.23 L 726.44 975.62 L 724.00 975.02 L 721.58 974.42 L 719.16 973.84 L 716.75 973.24 L 714.37 972.64 L 711.99 972.03 L 709.64 971.44 L 707.28 970.87 L 704.94 970.32 L 702.60 969.75" stroke="rgb(140,255,190)" stroke-opacity="0.739" stroke-width="1.19" />
  <path d="M 1004.63 999.91 L 1002.30 1000.04 L 999.97 1000.18 L 997.66 1000.23 L 995.37 1000.35 L 993.12 1000.48 L 990.88 1000.62 L 988.62 1000.73 L 986.38 1000.87 L 984.13 1000.98 L 981.89 1001.14 L 979.67 1001.29 L 977.45 1001.45 L 975.24 1001.73 L 973.04 1002.06 L 970.85 1002.34" stroke="rgb(140,255,190)" stroke-opacity="0.554" stroke-width="1.19" />
  <path d="M 999.40 1000.61 L 997.24 1002.94 L 995.08 1005.24 L 992.92 1007.53 L 990.77 1009.81 L 988.62 1012.08 L 986.48 1014.34 L 984.35 1016.58 L 982.24 1018.83 L 980.12 1021.05 L 977.98 1023.24 L 975.87 1025.43 L 973.74 1027.60 L 971.57 1029.70 L 969.40 1031.79 L 967.22 1033.85 L 965.07 1035.92 L 962.91 1037.96 L 960.75 1040.00 L 958.58 1042.00 L 956.43 1044.00 L 954.28 1045.99 L 952.12 1047.95 L 949.97 1049.91 L 947.84 1051.86 L 945.73 1053.83 L 943.63 1055.78 L 941.51 1057.71 L 939.40 1059.62 L 937.30 1061.53" stroke="rgb(205,165,255)" stroke-opacity="0.700" stroke-width="1.19" />
  <path d="M 948.70 1001.31 L 945.63 1002.11 L 942.57 1002.91 L 939.50 1003.67 L 936.47 1004.49 L 933.42 1005.28 L 930.37 1006.03 L 927.33 1006.76 L 924.31 1007.49 L 921.31 1008.19 L 918.30 1008.92 L 915.30 1009.65 L 912.30 1010.35 L 909.31 1011.10 L 906.33 1011.84 L 903.34 1012.54 L 900.35 1013.21 L 897.39 1013.91 L 894.45 1014.65 L 891.53 1015.35 L 888.59 1016.08 L 885.65 1016.72 L 882.71 1017.37" stroke="rgb(140,255,190)" stroke-opacity="0.737" stroke-width="1.19" />
  <path d="M 872.11 1018.00 L 869.80 1018.39 L 867.53 1018.94 L 865.27 1019.52 L 863.07 1020.22 L 860.83 1020.79 L 858.56 1021.16 L 856.30 1021.47 L 854.04 1021.81 L 851.78 1022.04 L 849.52 1022.17 L 847.28 1022.24 L 845.05 1022.38 L 842.81 1022.45 L 840.59 1022.56 L 838.38 1022.66 L 836.17 1022.77 L 833.98 1022.85 L 831.79 1022.93 L 829.61 1023.03 L 827.44 1023.11 L 825.28 1023.31 L 823.13 1023.51 L 821.00 1023.75 L 818.88 1024.00 L 816.77 1024.24 L 814.68 1024.49 L 812.60 1024.72" stroke="rgb(140,255,190)" stroke-opacity="0.552" stroke-width="1.19" />
  <path d="M 1151.46 1021.80 L 1154.15 1022.12 L 1156.82 1022.43 L 1159.48 1022.75 L 1162.14 1023.04 L 1164.82 1023.40 L 1167.48 1023.78 L 1170.12 1024.14" stroke="rgb(255,210,135)" stroke-opacity="0.419" stroke-width="1.18" />
  <path d="M 811.97 1035.05 L 808.80 1036.22 L 805.67 1037.44 L 802.54 1038.64 L 799.42 1039.85 L 796.33 1041.08 L 793.25 1042.33 L 790.18 1043.56 L 787.14 1044.82 L 784.13 1046.11 L 781.18 1047.51 L 778.30 1049.00 L 775.43 1050.48 L 772.55 1051.93 L 769.70 1053.41 L 766.84 1054.83 L 763.99 1056.24 L 761.15 1057.66 L 758.34 1059.09 L 755.53 1060.50 L 752.74 1061.93 L 749.96 1063.34 L 747.19 1064.73 L 744.42 1066.10 L 741.67 1067.48 L 738.91 1068.80 L 736.14 1070.08 L 733.36 1071.31 L 730.58 1072.52 L 727.82 1073.72 L 725.07 1074.93 L 722.35 1076.16 L 719.63 1077.38 L 716.94 1078.60 L 714.22 1079.74 L 711.52 1080.87 L 708.84 1082.02" stroke="rgb(140,255,190)" stroke-opacity="0.734" stroke-width="1.18" />
  <path d="M 854.92 1004.93 L 851.90 1006.19 L 848.89 1007.43 L 845.91 1008.67 L 842.94 1009.90 L 839.97 1011.12 L 836.99 1012.30 L 834.02 1013.46" stroke="rgb(140,255,190)" stroke-opacity="0.733" stroke-width="1.18" />
  <path d="M 996.93 1000.70 L 994.14 1000.10 L 991.36 999.51 L 988.59 998.97 L 985.85 998.40 L 983.10 997.86 L 980.37 997.30 L 977.65 996.77 L 974.96 996.24 L 972.27 995.70 L 969.60 995.16 L 966.92 994.64 L 964.25 994.11 L 961.60 993.60 L 958.96 993.09 L 956.33 992.58 L 953.71 992.07 L 951.13 991.48 L 948.54 990.87 L 945.97 990.25 L 943.39 989.70 L 940.81 989.15 L 938.26 988.54 L 935.71 987.94 L 933.14 987.35 L 930.56 986.88 L 928.00 986.40 L 925.43 985.98 L 922.88 985.55 L 920.33 985.19 L 917.79 984.84 L 915.28 984.45 L 912.80 984.02 L 910.34 983.58 L 907.94 983.09 L 905.55 982.58 L 903.17 982.08 L 900.81 981.58 L 898.43 981.10 L 896.07 980.63 L 893.73 980.12 L 891.41 979.55 L 889.10 979.02 L 886.80 978.49 L 884.47 977.99 L 882.13 977.42" stroke="rgb(205,165,255)" stroke-opacity="0.695" stroke-width="1.18" />
  <path d="M 772.39 1041.81 L 769.16 1042.51 L 765.95 1043.25 L 762.72 1043.92 L 759.51 1044.55 L 756.32 1045.20 L 753.16 1045.89 L 750.02 1046.60 L 746.90 1047.29 L 743.77 1047.96 L 740.65 1048.62 L 737.54 1049.28 L 734.46 1049.97 L 731.42 1050.75 L 728.39 1051.57 L 725.38 1052.38 L 722.37 1053.17 L 719.39 1054.03 L 716.44 1054.95 L 713.51 1055.88 L 710.58 1056.78 L 707.65 1057.59 L 704.74 1058.42 L 701.83 1059.27 L 698.90 1060.07 L 695.99 1060.87 L 693.09 1061.68 L 690.21 1062.50 L 687.33 1063.29 L 684.45 1064.02 L 681.59 1064.70 L 678.76 1065.47 L 675.95 1066.25 L 673.13 1066.98 L 670.31 1067.70 L 667.51 1068.41 L 664.72 1069.13 L 661.94 1069.86 L 659.17 1070.54 L 656.42 1071.22 L 653.70 1072.02 L 650.99 1072.81 L 648.30 1073.62 L 645.64 1074.49 L 642.98 1075.34 L 640.33 1076.19 L 637.69 1077.06 L 635.07 1077.94 L 632.50 1078.88 L 629.93 1079.81 L 627.38 1080.75 L 624.84 1081.66 L 622.31 1082.55 L 619.79 1083.44 L 617.27 1084.30 L 614.77 1085.18 L 612.30 1086.10 L 609.84 1087.03 L 607.40 1087.96 L 604.97 1088.88 L 602.57 1089.87 L 600.19 1090.86 L 597.86 1091.91 L 595.54 1092.96 L 593.24 1094.02 L 590.94 1095.05 L 588.63 1096.06 L 586.31 1097.06 L 584.02 1098.09 L 581.73 1099.09 L 579.45 1100.12 L 577.21 1101.16 L 575.00 1102.24 L 572.80 1103.29 L 570.61 1104.35 L 568.44 1105.42 L 566.30 1106.54 L 564.17 1107.67 L 562.05 1108.80 L 559.93 1109.89 L 557.77 1110.93 L 555.65 1111.99 L 553.54 1113.05 L 551.46 1114.12 L 549.36 1115.12 L 547.27 1116.11 L 545.19 1117.10" stroke="rgb(140,255,190)" stroke-opacity="0.733" stroke-width="1.18" />
  <path d="M 882.48 1029.73 L 879.91 1031.93 L 877.35 1034.12 L 874.80 1036.29 L 872.28 1038.47 L 869.78 1040.66 L 867.28 1042.80 L 864.73 1044.86 L 862.18 1046.88 L 859.63 1048.88 L 857.08 1050.86 L 854.52 1052.79 L 851.98 1054.71 L 849.47 1056.64 L 846.97 1058.55 L 844.44 1060.39 L 841.93 1062.22 L 839.44 1064.04 L 836.98 1065.88 L 834.53 1067.71 L 832.08 1069.51 L 829.64 1071.28 L 827.17 1073.00 L 824.69 1074.69 L 822.23 1076.37 L 819.77 1078.05 L 817.34 1079.74 L 814.88 1081.34 L 812.42 1082.96 L 809.97 1084.57 L 807.54 1086.22 L 805.15 1087.92 L 802.78 1089.60 L 800.43 1091.31 L 798.10 1093.01 L 795.78 1094.70 L 793.46 1096.37 L 791.19 1098.09 L 788.90 1099.76 L 786.62 1101.42 L 784.37 1103.10 L 782.11 1104.76 L 779.86 1106.41 L 777.63 1108.08 L 775.43 1109.79 L 773.26 1111.51 L 771.16 1113.29 L 769.07 1115.04 L 766.97 1116.78 L 764.89 1118.52 L 762.81 1120.25 L 760.74 1121.96 L 758.70 1123.68 L 756.66 1125.38 L 754.60 1127.05 L 752.57 1128.72 L 750.54 1130.39 L 748.52 1132.05 L 746.50 1133.69 L 744.46 1135.31 L 742.47 1136.96 L 740.50 1138.61 L 738.53 1140.26 L 736.58 1141.92 L 734.60 1143.56 L 732.60 1145.17" stroke="rgb(140,255,190)" stroke-opacity="0.732" stroke-width="1.18" />
  <path d="M 853.91 999.31 L 850.80 1000.56 L 847.72 1001.83 L 844.64 1003.08 L 841.60 1004.36 L 838.57 1005.63 L 835.56 1006.89 L 832.58 1008.20 L 829.61 1009.50 L 826.67 1010.83 L 823.73 1012.14 L 820.81 1013.47 L 817.91 1014.79 L 815.02 1016.09 L 812.15 1017.41 L 809.29 1018.72 L 806.44 1020.05 L 803.59 1021.35 L 800.77 1022.70 L 797.99 1024.07 L 795.25 1025.48 L 792.53 1026.89 L 789.84 1028.32 L 787.15 1029.76 L 784.48 1031.20 L 781.82 1032.61 L 779.13 1033.96 L 776.48 1035.34 L 773.82 1036.70 L 771.15 1038.00 L 768.48 1039.30 L 765.84 1040.63 L 763.20 1041.95 L 760.58 1043.27 L 757.99 1044.60 L 755.39 1045.89 L 752.80 1047.17 L 750.24 1048.50 L 747.70 1049.83 L 745.18 1051.17 L 742.64 1052.47 L 740.12 1053.78 L 737.61 1055.08 L 735.11 1056.36 L 732.59 1057.61 L 730.09 1058.87 L 727.59 1060.09 L 725.10 1061.31 L 722.61 1062.50" stroke="rgb(140,255,190)" stroke-opacity="0.732" stroke-width="1.17" />
  <path d="M 961.26 1003.78 L 958.16 1005.00 L 955.08 1006.22 L 952.01 1007.46 L 948.95 1008.69 L 945.89 1009.87 L 942.85 1011.04 L 939.80 1012.20 L 936.79 1013.39 L 933.76 1014.51 L 930.76 1015.65 L 927.76 1016.78 L 924.77 1017.87 L 921.79 1018.97 L 918.83 1020.10 L 915.91 1021.25 L 912.99 1022.41 L 910.07 1023.50 L 907.15 1024.58" stroke="rgb(140,255,190)" stroke-opacity="0.732" stroke-width="1.17" />
  <path d="M 799.65 998.43 L 797.00 998.10 L 794.37 997.78 L 791.76 997.47 L 789.16 997.19 L 786.60 996.94 L 784.07 996.76 L 781.55 996.58 L 779.01 996.44 L 776.49 996.32 L 773.96 996.23 L 771.45 996.18 L 768.96 996.15 L 766.47 996.11 L 763.98 996.05 L 761.51 995.96 L 759.04 995.81" stroke="rgb(140,255,190)" stroke-opacity="0.732" stroke-width="1.17" />
  <path d="M 838.32 1031.57 L 835.55 1031.95 L 832.83 1032.40 L 830.12 1032.79 L 827.45 1033.31 L 824.79 1033.77 L 822.10 1034.21 L 819.42 1034.65 L 816.76 1035.15 L 814.06 1035.58 L 811.43 1036.04 L 808.78 1036.48 L 806.13 1036.91 L 803.49 1037.33 L 800.85 1037.75 L 798.26 1038.16 L 795.68 1038.57 L 793.10 1038.99 L 790.55 1039.41 L 788.01 1039.83 L 785.47 1040.21 L 782.96 1040.61 L 780.46 1041.00 L 777.95 1041.35 L 775.44 1041.72 L 772.92 1042.17 L 770.41 1042.65 L 767.91 1043.13 L 765.42 1043.60 L 762.93 1044.05 L 760.42 1044.47 L 757.96 1044.87 L 755.52 1045.26 L 753.09 1045.67 L 750.68 1046.09 L 748.32 1046.56 L 745.93 1046.99 L 743.55 1047.41 L 741.17 1047.82 L 738.81 1048.26 L 736.45 1048.82 L 734.07 1049.34 L 731.68 1049.90 L 729.31 1050.43 L 726.90 1050.95 L 724.52 1051.47 L 722.13 1052.00 L 719.75 1052.52 L 717.37 1053.05 L 715.00 1053.62 L 712.65 1054.15 L 710.31 1054.68 L 708.00 1055.20 L 705.75 1055.70 L 703.50 1056.20 L 701.26 1056.69 L 699.02 1057.19 L 696.78 1057.64 L 694.56 1058.09 L 692.34 1058.57 L 690.14 1059.06 L 687.96 1059.56 L 685.81 1060.11 L 683.68 1060.64 L 681.54 1061.13 L 679.42 1061.62 L 677.30 1062.10 L 675.19 1062.47 L 673.11 1062.83 L 671.06 1063.22 L 669.00 1063.54 L 666.87 1063.90 L 664.75 1064.24 L 662.64 1064.51 L 660.53 1064.78 L 658.42 1065.06 L 656.30 1065.32 L 654.20 1065.61 L 652.09 1065.85 L 649.99 1066.11 L 647.93 1066.37 L 645.87 1066.60 L 643.83 1066.94 L 641.79 1067.21 L 639.75 1067.48 L 637.72 1067.70" stroke="rgb(140,255,190)" stroke-opacity="0.731" stroke-width="1.17" />
  <path d="M 834.15 1013.18 L 832.22 1014.16 L 830.28 1015.21 L 828.36 1016.24 L 826.51 1017.35 L 824.63 1018.42 L 822.77 1019.52 L 820.88 1020.58 L 819.00 1021.62 L 817.11 1022.62 L 815.22 1023.61 L 813.30 1024.64 L 811.41 1025.73 L 809.56 1026.87 L 807.71 1028.00 L 805.83 1029.07 L 803.92 1030.03 L 801.96 1030.95 L 799.97 1031.76 L 797.98 1032.58 L 796.00 1033.35 L 793.98 1034.04 L 792.00 1034.84 L 790.01 1035.60 L 788.00 1036.31 L 786.03 1037.03 L 784.06 1037.68 L 782.11 1038.39 L 780.14 1039.02 L 778.19 1039.71 L 776.24 1040.38 L 774.32 1041.09 L 772.39 1041.81 L 770.46 1042.50 L 768.53 1043.18 L 766.62 1043.92 L 764.72 1044.66 L 762.80 1045.34 L 760.86 1045.88 L 758.92 1046.41 L 756.99 1046.93" stroke="rgb(140,255,190)" stroke-opacity="0.548" stroke-width="1.17" />
  <path d="M 997.88 995.68 L 994.89 995.70 L 991.92 995.75 L 988.95 995.85 L 986.00 995.95 L 983.06 996.05 L 980.13 996.05 L 977.22 996.13 L 974.32 996.21 L 971.43 996.23 L 968.54 996.26 L 965.67 996.33 L 962.81 996.40 L 959.96 996.45 L 957.13 996.50 L 954.30 996.55 L 951.49 996.62 L 948.69 996.68 L 945.89 996.75 L 943.11 996.71 L 940.34 996.67 L 937.58 996.64 L 934.84 996.62" stroke="rgb(205,165,255)" stroke-opacity="0.485" stroke-width="1.17" />
  <path d="M 996.46 1000.31 L 993.05 1000.55 L 989.67 1000.82 L 986.29 1001.06 L 982.93 1001.31 L 979.58 1001.54 L 976.24 1001.74 L 972.92 1001.94 L 969.61 1002.16" stroke="rgb(140,255,190)" stroke-opacity="0.730" stroke-width="1.17" />
  <path d="M 896.04 1010.06 L 892.87 1010.96 L 889.74 1011.89 L 886.61 1012.80 L 883.51 1013.78 L 880.42 1014.83 L 877.38 1015.95 L 874.36 1017.08 L 871.35 1018.21 L 868.32 1019.26 L 865.31 1020.30 L 862.32 1021.36 L 859.34 1022.43 L 856.37 1023.48 L 853.41 1024.53 L 850.44 1025.54 L 847.53 1026.64 L 844.60 1027.69 L 841.68 1028.73 L 838.78 1029.75 L 835.88 1030.79 L 832.99 1031.79" stroke="rgb(140,255,190)" stroke-opacity="0.729" stroke-width="1.17" />
  <path d="M 999.29 1000.65 L 998.53 1003.08 L 997.77 1005.50 L 997.01 1007.95 L 996.24 1010.38 L 995.42 1012.79 L 994.56 1015.18 L 993.67 1017.56 L 992.79 1019.92 L 991.87 1022.25 L 990.86 1024.51 L 989.85 1026.77 L 988.83 1029.02 L 987.91 1031.28 L 986.95 1033.49 L 986.04 1035.70 L 985.23 1037.94 L 984.42 1040.14 L 983.64 1042.31 L 982.86 1044.47 L 982.09 1046.63 L 981.40 1048.78 L 980.71 1050.93" stroke="rgb(255,210,135)" stroke-opacity="0.416" stroke-width="1.17" />
  <path d="M 1000.76 1001.40 L 997.40 1001.61 L 994.05 1001.86 L 990.72 1002.11 L 987.39 1002.30 L 984.08 1002.49 L 980.79 1002.66 L 977.50 1002.83 L 974.24 1003.05 L 970.98 1003.26 L 967.74 1003.46 L 964.51 1003.67 L 961.28 1003.80 L 958.08 1003.90 L 954.88 1004.01 L 951.69 1004.11 L 948.52 1004.17 L 945.36 1004.22 L 942.22 1004.28 L 939.08 1004.38 L 935.96 1004.49 L 932.86 1004.60 L 929.76 1004.68 L 926.68 1004.71 L 923.61 1004.75 L 920.55 1004.74 L 917.50 1004.72 L 914.46 1004.69 L 911.44 1004.71 L 908.43 1004.73 L 905.44 1004.75 L 902.45 1004.77 L 899.48 1004.78 L 896.52 1004.79 L 893.57 1004.78 L 890.63 1004.78 L 887.71 1004.77 L 884.79 1004.77 L 881.89 1004.76 L 879.00 1004.76 L 876.12 1004.74 L 873.25 1004.69 L 870.40 1004.63 L 867.56 1004.58 L 864.72 1004.52 L 861.90 1004.48 L 859.09 1004.43 L 856.29 1004.38 L 853.50 1004.33 L 850.72 1004.26" stroke="rgb(140,255,190)" stroke-opacity="0.729" stroke-width="1.17" />
  <path d="M 878.76 993.49 L 875.80 994.46 L 872.84 995.38 L 869.90 996.28 L 866.96 997.15 L 864.05 998.04 L 861.16 998.92 L 858.25 999.80 L 855.36 1000.71 L 852.52 1001.63 L 849.71 1002.57 L 846.92 1003.52 L 844.12 1004.48 L 841.37 1005.52 L 838.63 1006.58 L 835.88 1007.62" stroke="rgb(140,255,190)" stroke-opacity="0.729" stroke-width="1.17" />
  <path d="M 831.75 965.73 L 829.52 964.99 L 827.30 964.27 L 825.07 963.51 L 822.86 962.77 L 820.67 961.97 L 818.47 961.21 L 816.26 960.50 L 814.05 959.81 L 811.90 958.96 L 809.75 958.15 L 807.61 957.34 L 805.41 956.76 L 803.19 956.35 L 800.97 955.92 L 798.78 955.38 L 796.60 954.87 L 794.43 954.40 L 792.25 953.94 L 790.09 953.51 L 787.93 953.08 L 785.79 952.62" stroke="rgb(140,255,190)" stroke-opacity="0.546" stroke-width="1.16" />
  <path d="M 1000.25 954.39 L 1001.73 952.54 L 1003.21 950.68 L 1004.69 948.83 L 1006.22 946.97 L 1007.80 945.15 L 1009.36 943.36 L 1010.89 941.56 L 1012.44 939.81 L 1013.93 938.00 L 1015.41 936.22 L 1016.94 934.44 L 1018.36 932.64 L 1019.63 930.82 L 1020.83 929.06 L 1022.08 927.35 L 1023.33 925.65 L 1024.53 924.01 L 1025.73 922.38 L 1026.93 920.74 L 1028.11 919.08 L 1029.33 917.42 L 1030.51 915.77 L 1031.60 914.07 L 1032.66 912.39 L 1033.71 910.72 L 1034.77 909.06 L 1035.80 907.39 L 1036.84 905.74 L 1037.80 904.07 L 1038.76 902.40 L 1039.68 900.69 L 1040.54 898.98 L 1041.39 897.27 L 1042.36 895.54 L 1043.33 893.81 L 1044.42 892.10 L 1045.50 890.39 L 1046.54 888.65" stroke="rgb(205,165,255)" stroke-opacity="0.482" stroke-width="1.16" />
  <path d="M 995.95 999.71 L 992.67 999.84 L 989.42 1000.01 L 986.17 1000.19 L 982.94 1000.37 L 979.72 1000.55 L 976.52 1000.75 L 973.33 1000.95 L 970.14 1001.09 L 966.97 1001.25 L 963.82 1001.41 L 960.68 1001.58 L 957.55 1001.79 L 954.43 1001.96 L 951.31 1002.12 L 948.22 1002.24 L 945.13 1002.30 L 942.05 1002.42 L 938.99 1002.63 L 935.95 1002.86 L 932.92 1003.10 L 929.89 1003.32 L 926.89 1003.54 L 923.88 1003.72 L 920.90 1003.92 L 917.93 1004.14 L 914.98 1004.46 L 912.05 1004.79 L 909.11 1005.03 L 906.19 1005.27 L 903.28 1005.53 L 900.39 1005.79 L 897.50 1006.04 L 894.62 1006.25 L 891.75 1006.47 L 888.90 1006.69 L 886.05 1006.91 L 883.22 1007.12 L 880.40 1007.30 L 877.59 1007.45 L 874.80 1007.67 L 872.02 1007.89 L 869.25 1008.11 L 866.50 1008.35 L 863.76 1008.62 L 861.02 1008.87 L 858.30 1009.12 L 855.59 1009.37" stroke="rgb(140,255,190)" stroke-opacity="0.725" stroke-width="1.16" />
  <path d="M 998.22 1001.91 L 1000.03 1003.65 L 1001.82 1005.38 L 1003.56 1007.14 L 1005.37 1008.82 L 1007.20 1010.47 L 1008.96 1012.18 L 1010.69 1013.91 L 1012.44 1015.62 L 1014.20 1017.32 L 1015.94 1019.01 L 1017.68 1020.70 L 1019.39 1022.41 L 1021.09 1024.07 L 1022.80 1025.70 L 1024.48 1027.29 L 1026.14 1028.91 L 1027.85 1030.44 L 1029.57 1032.00 L 1031.28 1033.46 L 1032.96 1034.90 L 1034.65 1036.32 L 1036.33 1037.72 L 1037.93 1039.19 L 1039.50 1040.66 L 1040.98 1042.24 L 1042.42 1043.83 L 1043.85 1045.42 L 1045.21 1047.07 L 1046.57 1048.72 L 1047.84 1050.39 L 1049.13 1052.06 L 1050.41 1053.70 L 1051.70 1055.34 L 1052.97 1056.95" stroke="rgb(255,210,135)" stroke-opacity="0.413" stroke-width="1.15" />
  <path d="M 996.46 1002.52 L 993.20 1002.50 L 989.95 1002.50 L 986.72 1002.51 L 983.49 1002.50 L 980.28 1002.48 L 977.08 1002.47 L 973.90 1002.44 L 970.73 1002.48 L 967.57 1002.52 L 964.42 1002.54 L 961.29 1002.61 L 958.17 1002.67 L 955.06 1002.75 L 951.97 1002.84 L 948.89 1003.01 L 945.82 1003.15 L 942.77 1003.36 L 939.73 1003.61 L 936.72 1003.92 L 933.72 1004.27 L 930.74 1004.65 L 927.77 1005.05 L 924.82 1005.46 L 921.88 1005.87 L 918.96 1006.32 L 916.05 1006.78 L 913.16 1007.23 L 910.27 1007.68 L 907.40 1008.14 L 904.54 1008.58 L 901.69 1009.04 L 898.85 1009.54 L 896.04 1010.06 L 893.23 1010.57 L 890.45 1011.10" stroke="rgb(140,255,190)" stroke-opacity="0.724" stroke-width="1.15" />
  <path d="M 1000.62 999.87 L 997.39 1000.01 L 994.18 1000.15 L 990.98 1000.25 L 987.80 1000.27 L 984.62 1000.36 L 981.46 1000.43 L 978.32 1000.54 L 975.18 1000.61 L 972.06 1000.65 L 968.95 1000.79 L 965.85 1000.91 L 962.77 1001.01 L 959.69 1001.08 L 956.63 1001.18 L 953.58 1001.25 L 950.55 1001.30 L 947.52 1001.35 L 944.51 1001.41 L 941.51 1001.51 L 938.52 1001.61 L 935.55 1001.73 L 932.58 1001.84 L 929.63 1001.86 L 926.69 1001.87 L 923.76 1001.89 L 920.84 1001.93 L 917.93 1002.02 L 915.04 1002.11 L 912.16 1002.19 L 909.29 1002.28 L 906.43 1002.33 L 903.58 1002.32 L 900.74 1002.35 L 897.91 1002.39 L 895.10 1002.43 L 892.29 1002.46 L 889.50 1002.51 L 886.72 1002.56 L 883.95 1002.63 L 881.19 1002.67 L 878.44 1002.69 L 875.71 1002.69 L 872.98 1002.69 L 870.26 1002.69 L 867.56 1002.69 L 864.87 1002.69 L 862.18 1002.66 L 859.51 1002.60 L 856.85 1002.52 L 854.20 1002.46 L 851.56 1002.41 L 848.93 1002.40 L 846.32 1002.38" stroke="rgb(140,255,190)" stroke-opacity="0.723" stroke-width="1.15" />
  <path d="M 1000.22 999.44 L 996.98 999.61 L 993.76 999.80 L 990.55 999.96 L 987.36 1000.16 L 984.18 1000.39 L 981.01 1000.64 L 977.86 1000.88 L 974.72 1001.17 L 971.61 1001.52 L 968.50 1001.86 L 965.41 1002.18 L 962.32 1002.45 L 959.25 1002.82 L 956.20 1003.18 L 953.16 1003.52 L 950.13 1003.86 L 947.11 1004.17 L 944.10 1004.46 L 941.10 1004.78 L 938.12 1005.08 L 935.14 1005.37 L 932.18 1005.68 L 929.24 1006.01 L 926.30 1006.34 L 923.39 1006.71 L 920.48 1007.07 L 917.59 1007.47 L 914.71 1007.87 L 911.84 1008.27 L 908.98 1008.67 L 906.14 1009.08 L 903.30 1009.47 L 900.48 1009.87 L 897.67 1010.26 L 894.86 1010.64 L 892.07 1011.00 L 889.29 1011.39 L 886.52 1011.77 L 883.77 1012.14 L 881.02 1012.52 L 878.29 1012.93 L 875.57 1013.35 L 872.86 1013.76 L 870.17 1014.17 L 867.48 1014.55 L 864.80 1014.94 L 862.13 1015.34 L 859.47 1015.72 L 856.83 1016.09 L 854.19 1016.47 L 851.57 1016.86 L 848.96 1017.30 L 846.37 1017.75 L 843.79 1018.20 L 841.22 1018.66 L 838.67 1019.16 L 836.13 1019.66 L 833.61 1020.21 L 831.10 1020.77 L 828.60 1021.30 L 826.11 1021.83 L 823.63 1022.32 L 821.16 1022.83" stroke="rgb(140,255,190)" stroke-opacity="0.723" stroke-width="1.15" />
  <path d="M 1000.99 999.59 L 1001.85 997.67 L 1002.69 995.75 L 1003.49 993.71 L 1004.29 991.69 L 1005.08 989.64 L 1005.86 987.59 L 1006.66 985.55 L 1007.41 983.55 L 1008.10 981.54 L 1008.78 979.53 L 1009.38 977.55 L 1009.94 975.56 L 1010.53 973.58 L 1011.13 971.61 L 1011.76 969.66 L 1012.32 967.73 L 1012.76 965.81 L 1013.19 963.90 L 1013.60 962.04 L 1014.00 960.18 L 1014.38 958.33 L 1014.69 956.50 L 1015.02 954.68 L 1015.32 952.81 L 1015.50 951.01 L 1015.63 949.20 L 1015.69 947.45 L 1015.68 945.65 L 1015.64 943.85 L 1015.62 942.12 L 1015.56 940.43 L 1015.50 938.72 L 1015.45 937.03 L 1015.45 935.39 L 1015.46 933.75 L 1015.49 932.09 L 1015.49 930.46 L 1015.51 928.82 L 1015.52 927.19 L 1015.47 925.59 L 1015.38 924.02 L 1015.28 922.43 L 1015.16 920.84 L 1014.92 919.33 L 1014.76 917.86 L 1014.53 916.37 L 1014.36 914.88 L 1014.17 913.40 L 1013.95 911.86 L 1013.76 910.32 L 1013.59 908.78 L 1013.41 907.25 L 1013.24 905.72 L 1013.03 904.25" stroke="rgb(205,165,255)" stroke-opacity="0.480" stroke-width="1.15" />
  <path d="M 999.51 997.31 L 996.30 997.46 L 993.10 997.59 L 989.92 997.73 L 986.74 997.81 L 983.58 997.90 L 980.43 998.01 L 977.29 998.11 L 974.16 998.21 L 971.05 998.31 L 967.95 998.43 L 964.87 998.56 L 961.79 998.68 L 958.73 998.75 L 955.68 998.83 L 952.65 998.91 L 949.62 999.03 L 946.62 999.21 L 943.62 999.39 L 940.64 999.57 L 937.66 999.69 L 934.70 999.77 L 931.75 999.85 L 928.82 999.92 L 925.91 999.96 L 923.00 999.99 L 920.11 999.99 L 917.24 1000.00 L 914.38 1000.08 L 911.53 1000.17 L 908.69 1000.29 L 905.86 1000.41 L 903.04 1000.61 L 900.24 1000.80 L 897.44 1000.97 L 894.66 1001.14 L 891.89 1001.39 L 889.14 1001.66 L 886.39 1001.94 L 883.65 1002.17 L 880.92 1002.36 L 878.20 1002.54 L 875.50 1002.80 L 872.81 1003.08 L 870.14 1003.32 L 867.47 1003.57 L 864.82 1003.85 L 862.18 1004.13" stroke="rgb(140,255,190)" stroke-opacity="0.722" stroke-width="1.15" />
  <path d="M 922.36 1013.40 L 919.55 1014.56 L 916.79 1015.83 L 914.06 1017.08 L 911.34 1018.45 L 908.66 1019.88 L 906.01 1021.29 L 903.39 1022.72 L 900.79 1024.19 L 898.18 1025.65 L 895.55 1027.08 L 892.95 1028.51 L 890.36 1029.96 L 887.79 1031.46 L 885.24 1032.96 L 882.70 1034.50 L 880.19 1036.06 L 877.72 1037.66 L 875.24 1039.22 L 872.76 1040.75 L 870.27 1042.25 L 867.79 1043.75 L 865.34 1045.26 L 862.91 1046.78 L 860.46 1048.20 L 858.01 1049.59 L 855.62 1051.01 L 853.22 1052.41 L 850.84 1053.87 L 848.47 1055.33 L 846.10 1056.77 L 843.73 1058.18 L 841.34 1059.58 L 838.96 1060.94 L 836.56 1062.22 L 834.16 1063.49 L 831.81 1064.77 L 829.44 1066.03 L 827.09 1067.28 L 824.75 1068.47 L 822.42 1069.60 L 820.11 1070.75 L 817.78 1071.87 L 815.50 1073.03 L 813.23 1074.21 L 810.97 1075.39 L 808.76 1076.63 L 806.64 1077.92 L 804.53 1079.19 L 802.45 1080.46 L 800.38 1081.72 L 798.37 1083.00 L 796.37 1084.35 L 794.37 1085.73" stroke="rgb(140,255,190)" stroke-opacity="0.721" stroke-width="1.15" />
  <path d="M 888.90 1006.69 L 886.11 1007.98 L 883.30 1009.23 L 880.52 1010.52 L 877.77 1011.85 L 875.05 1013.20 L 872.35 1014.53 L 869.65 1015.84 L 866.98 1017.16 L 864.31 1018.47 L 861.67 1019.81 L 859.08 1021.22 L 856.48 1022.58 L 853.92 1023.98 L 851.35 1025.33 L 848.78 1026.64 L 846.20 1027.93 L 843.56 1029.12 L 840.95 1030.36 L 838.32 1031.57 L 835.71 1032.76 L 833.09 1033.85 L 830.48 1034.92 L 827.86 1035.92 L 825.25 1036.92 L 822.64 1037.82 L 820.05 1038.70" stroke="rgb(140,255,190)" stroke-opacity="0.720" stroke-width="1.14" />
  <path d="M 1001.33 1000.14 L 998.06 1000.25 L 994.80 1000.37 L 991.56 1000.45 L 988.33 1000.53 L 985.11 1000.58 L 981.91 1000.65 L 978.71 1000.72 L 975.54 1000.78 L 972.37 1000.82 L 969.22 1000.86 L 966.08 1000.82 L 962.95 1000.78 L 959.84 1000.74 L 956.74 1000.72 L 953.65 1000.69 L 950.57 1000.65 L 947.51 1000.61 L 944.46 1000.58 L 941.41 1000.57 L 938.38 1000.60 L 935.37 1000.71 L 932.36 1000.83 L 929.37 1000.96 L 926.39 1001.08 L 923.42 1001.23 L 920.47 1001.46 L 917.54 1001.69 L 914.62 1001.93 L 911.71 1002.17 L 908.81 1002.40 L 905.92 1002.59 L 903.05 1002.81 L 900.19 1003.05 L 897.35 1003.26 L 894.51 1003.46 L 891.68 1003.59 L 888.86 1003.75 L 886.05 1003.90 L 883.26 1004.04 L 880.47 1004.19 L 877.71 1004.32 L 874.95 1004.45 L 872.22 1004.60 L 869.48 1004.72 L 866.75 1004.85 L 864.04 1004.98 L 861.33 1005.10 L 858.64 1005.20 L 855.95 1005.28 L 853.28 1005.35 L 850.62 1005.44 L 847.97 1005.55 L 845.32 1005.65 L 842.69 1005.79 L 840.07 1005.92 L 837.46 1006.08 L 834.86 1006.25 L 832.28 1006.40 L 829.70 1006.59 L 827.13 1006.79 L 824.57 1007.00 L 822.02 1007.14 L 819.47 1007.27 L 816.94 1007.41 L 814.41 1007.54 L 811.90 1007.69 L 809.40 1007.89 L 806.91 1008.08 L 804.43 1008.29 L 801.96 1008.47 L 799.50 1008.62 L 797.05 1008.72 L 794.60 1008.82" stroke="rgb(140,255,190)" stroke-opacity="0.719" stroke-width="1.14" />
  <path d="M 996.77 998.21 L 996.93 1000.71 L 997.07 1003.20 L 997.31 1005.67 L 997.59 1008.13 L 997.91 1010.57 L 998.29 1013.00 L 998.68 1015.41 L 999.00 1017.83 L 999.25 1020.25 L 999.46 1022.66 L 999.67 1025.06 L 1000.00 1027.46 L 1000.31 1029.84 L 1000.81 1032.19 L 1001.43 1034.49 L 1002.04 1036.78 L 1002.67 1039.06 L 1003.31 1041.33 L 1003.90 1043.60 L 1004.48 1045.86 L 1005.09 1048.11" stroke="rgb(255,210,135)" stroke-opacity="0.410" stroke-width="1.14" />
  <path d="M 1035.80 907.39 L 1037.42 907.00 L 1038.94 906.67 L 1040.32 906.28 L 1041.70 905.97 L 1043.08 905.68 L 1044.43 905.35 L 1045.74 905.18 L 1047.03 904.98 L 1048.36 904.68 L 1049.69 904.35 L 1050.98 904.03 L 1052.30 903.75 L 1053.62 903.47 L 1054.95 903.18 L 1056.25 902.89 L 1057.54 902.60 L 1058.73 902.44 L 1059.95 902.27 L 1061.17 902.09 L 1062.37 901.92" stroke="rgb(205,165,255)" stroke-opacity="0.477" stroke-width="1.14" />
  <path d="M 954.63 1003.72 L 951.60 1004.46 L 948.57 1005.22 L 945.55 1005.96 L 942.53 1006.68 L 939.53 1007.41 L 936.50 1008.03 L 933.49 1008.65 L 930.49 1009.25 L 927.50 1009.79 L 924.53 1010.28 L 921.59 1010.83 L 918.67 1011.40 L 915.74 1011.94 L 912.83 1012.49 L 909.94 1013.07 L 907.08 1013.69 L 904.23 1014.25 L 901.38 1014.77 L 898.53 1015.28 L 895.71 1015.82 L 892.90 1016.39 L 890.10 1016.96 L 887.29 1017.48 L 884.50 1018.07 L 881.75 1018.70 L 878.99 1019.30 L 876.25 1019.91 L 873.53 1020.55 L 870.82 1021.19 L 868.11 1021.79 L 865.39 1022.44 L 862.69 1023.15 L 859.99 1023.80 L 857.30 1024.46 L 854.64 1025.15 L 851.97 1025.82 L 849.34 1026.56 L 846.71 1027.33 L 844.09 1028.10 L 841.48 1028.86 L 838.88 1029.60 L 836.29 1030.36 L 833.72 1031.12 L 831.14 1031.84" stroke="rgb(140,255,190)" stroke-opacity="0.717" stroke-width="1.14" />
  <path d="M 999.28 997.75 L 999.47 995.19 L 999.66 992.63 L 999.89 990.05 L 1000.08 987.46 L 1000.18 984.86 L 1000.31 982.27 L 1000.39 979.69 L 1000.50 977.11 L 1000.61 974.52 L 1000.71 971.94 L 1000.81 969.34 L 1000.95 966.74 L 1001.07 964.14 L 1001.13 961.54 L 1001.18 958.96 L 1001.20 956.36 L 1001.22 953.77 L 1001.26 951.16 L 1001.26 948.53 L 1001.32 945.93" stroke="rgb(140,255,190)" stroke-opacity="0.537" stroke-width="1.13" />
  <path d="M 998.57 999.83 L 995.49 1000.27 L 992.42 1000.71 L 989.36 1001.14 L 986.31 1001.57 L 983.28 1002.00 L 980.26 1002.42 L 977.25 1002.86 L 974.25 1003.30 L 971.27 1003.73 L 968.30 1004.20" stroke="rgb(140,255,190)" stroke-opacity="0.715" stroke-width="1.13" />
  <path d="M 1000.84 999.57 L 998.37 999.85 L 995.91 1000.18 L 993.46 1000.52 L 991.02 1000.80 L 988.59 1001.07 L 986.19 1001.32 L 983.79 1001.59 L 981.40 1001.90 L 979.01 1002.21 L 976.64 1002.55" stroke="rgb(140,255,190)" stroke-opacity="0.536" stroke-width="1.13" />
  <path d="M 999.17 997.76 L 996.67 997.89 L 994.18 998.05 L 991.70 998.31 L 989.24 998.58 L 986.78 998.86 L 984.35 999.20 L 981.92 999.54 L 979.51 999.88 L 977.10 1000.23 L 974.72 1000.61" stroke="rgb(140,255,190)" stroke-opacity="0.535" stroke-width="1.13" />
  <path d="M 913.53 997.79 L 910.78 997.79 L 908.01 997.78 L 905.25 997.76 L 902.45 997.66 L 899.64 997.49 L 896.96 997.33 L 894.39 997.26 L 891.81 997.24 L 889.24 997.22 L 886.68 997.19" stroke="rgb(140,255,190)" stroke-opacity="0.713" stroke-width="1.13" />
  <path d="M 998.50 998.84 L 996.29 997.57 L 994.06 996.33 L 991.84 995.14 L 989.62 993.96 L 987.41 992.78 L 985.22 991.58 L 983.05 990.42 L 980.87 989.35 L 978.67 988.34 L 976.50 987.31 L 974.33 986.28 L 972.16 985.22 L 970.00 984.22 L 967.86 983.21 L 965.79 982.17 L 963.68 981.19 L 961.58 980.21 L 959.45 979.29 L 957.30 978.41 L 955.12 977.61 L 952.95 976.81 L 950.81 975.99 L 948.74 975.09 L 946.68 974.25 L 944.64 973.42 L 942.60 972.61 L 940.56 971.81 L 938.52 971.05 L 936.49 970.27 L 934.47 969.49 L 932.48 968.77 L 930.43 968.06 L 928.43 967.36 L 926.40 966.65 L 924.37 965.98 L 922.34 965.40 L 920.36 964.70 L 918.38 964.02 L 916.42 963.32 L 914.46 962.57 L 912.49 961.86 L 910.52 961.19 L 908.54 960.59 L 906.58 960.02 L 904.59 959.45 L 902.60 958.89 L 900.63 958.35 L 898.66 957.84 L 896.69 957.36 L 894.72 956.90 L 892.77 956.43 L 890.81 955.99 L 888.90 955.49 L 887.01 955.00 L 885.09 954.53 L 883.16 954.01 L 881.26 953.47 L 879.34 952.91 L 877.42 952.31" stroke="rgb(205,165,255)" stroke-opacity="0.474" stroke-width="1.13" />
  <path d="M 826.90 1006.37 L 824.11 1006.91 L 821.32 1007.46 L 818.54 1008.02 L 815.77 1008.59 L 813.03 1009.10 L 810.32 1009.65 L 807.59 1010.13 L 804.88 1010.62 L 802.17 1011.04 L 799.49 1011.49 L 796.85 1011.85 L 794.23 1012.21 L 791.61 1012.56 L 789.00 1012.93 L 786.40 1013.36 L 783.80 1013.74 L 781.21 1014.12 L 778.64 1014.49 L 776.07 1014.86 L 773.54 1015.25 L 771.03 1015.67 L 768.54 1016.08 L 766.06 1016.48 L 763.59 1016.77 L 761.08 1017.09 L 758.65 1017.42 L 756.23 1017.84 L 753.83 1018.26 L 751.43 1018.67 L 749.05 1019.08 L 746.67 1019.47 L 744.30 1019.86 L 741.93 1020.12 L 739.49 1020.29 L 737.07 1020.48 L 734.65 1020.67 L 732.24 1020.90 L 729.87 1021.12 L 727.52 1021.36 L 725.22 1021.60 L 722.94 1021.83 L 720.66 1022.06 L 718.39 1022.36 L 716.13 1022.73 L 713.87 1023.07 L 711.65 1023.44 L 709.43 1023.81 L 707.21 1024.18 L 705.02 1024.53 L 702.83 1024.88 L 700.70 1025.17 L 698.58 1025.47 L 696.44 1025.77 L 694.27 1026.06 L 692.10 1026.30 L 689.93 1026.52 L 687.79 1026.72" stroke="rgb(140,255,190)" stroke-opacity="0.713" stroke-width="1.13" />
  <path d="M 964.86 1005.33 L 961.94 1006.18 L 959.03 1007.00 L 956.16 1007.94 L 953.34 1008.96 L 950.54 1010.01 L 947.73 1011.00 L 944.92 1011.96 L 942.09 1012.80 L 939.31 1013.77 L 936.54 1014.73 L 933.76 1015.64 L 931.00 1016.56 L 928.25 1017.49 L 925.52 1018.43 L 922.78 1019.34 L 920.08 1020.28 L 917.38 1021.20 L 914.66 1022.04 L 911.96 1022.88 L 909.28 1023.73 L 906.58 1024.51 L 903.89 1025.27 L 901.17 1025.87 L 898.47 1026.48 L 895.78 1027.06 L 893.11 1027.63 L 890.45 1028.20 L 887.78 1028.71 L 885.13 1029.23 L 882.48 1029.73 L 879.84 1030.23 L 877.21 1030.72 L 874.61 1031.21 L 872.04 1031.85" stroke="rgb(140,255,190)" stroke-opacity="0.534" stroke-width="1.12" />
  <path d="M 964.97 1002.08 L 962.08 1002.23 L 959.21 1002.34 L 956.40 1002.39 L 953.57 1002.34 L 950.76 1002.32 L 947.96 1002.20 L 945.17 1002.10 L 942.39 1001.91 L 939.65 1001.73 L 936.91 1001.55 L 934.19 1001.36 L 931.44 1001.12 L 928.69 1001.02 L 925.94 1000.93 L 923.22 1000.84 L 920.49 1000.67 L 917.78 1000.48 L 915.06 1000.30 L 912.35 1000.12 L 909.64 999.94 L 906.93 999.76 L 904.23 999.65 L 901.55 999.52 L 898.88 999.40 L 896.22 999.31 L 893.57 999.22 L 890.95 999.09 L 888.35 998.92 L 885.76 998.76 L 883.17 998.58 L 880.58 998.39 L 878.00 998.19 L 875.42 998.09 L 872.84 998.00 L 870.26 997.90 L 867.68 997.79 L 865.12 997.68 L 862.57 997.70 L 860.02 997.69 L 857.49 997.72 L 854.98 997.78 L 852.48 997.83 L 850.00 997.81 L 847.52 997.81 L 845.07 997.92 L 842.62 998.04 L 840.18 998.14 L 837.74 998.17 L 835.30 998.21 L 832.88 998.24 L 830.45 998.20 L 828.03 998.18 L 825.60 998.17 L 823.20 998.16 L 820.80 998.22 L 818.41 998.32 L 816.04 998.42 L 813.66 998.50 L 811.30 998.51 L 808.94 998.42 L 806.60 998.42 L 804.27 998.41 L 801.95 998.43 L 799.65 998.43 L 797.36 998.42 L 795.06 998.44 L 792.78 998.45 L 790.50 998.42" stroke="rgb(140,255,190)" stroke-opacity="0.532" stroke-width="1.12" />
  <path d="M 1001.18 999.77 L 1003.25 999.99 L 1005.29 1000.17 L 1007.33 1000.36 L 1009.35 1000.53 L 1011.35 1000.70 L 1013.35 1000.86 L 1015.34 1001.01 L 1017.31 1001.15 L 1019.28 1001.35 L 1021.23 1001.53 L 1023.25 1001.65 L 1025.27 1001.80 L 1027.28 1001.95 L 1029.29 1002.09 L 1031.35 1002.12 L 1033.45 1002.16 L 1035.54 1002.22 L 1037.63 1002.40 L 1039.70 1002.55 L 1041.80 1002.72 L 1043.89 1002.87 L 1045.98 1003.00 L 1048.06 1003.12" stroke="rgb(255,210,135)" stroke-opacity="0.405" stroke-width="1.12" />
  <path d="M 996.96 1001.21 L 993.86 1001.27 L 990.77 1001.35 L 987.70 1001.44 L 984.63 1001.56 L 981.58 1001.59 L 978.55 1001.63 L 975.51 1001.65 L 972.50 1001.69 L 969.50 1001.73 L 966.50 1001.77 L 963.52 1001.84 L 960.56 1001.94 L 957.61 1002.05 L 954.66 1002.16 L 951.72 1002.26 L 948.80 1002.40 L 945.89 1002.52 L 942.99 1002.64 L 940.11 1002.80 L 937.23 1002.95 L 934.37 1003.12 L 931.52 1003.27 L 928.68 1003.41 L 925.85 1003.55 L 923.03 1003.67 L 920.22 1003.77 L 917.42 1003.85 L 914.64 1003.92 L 911.86 1004.07 L 909.11 1004.28 L 906.36 1004.48 L 903.63 1004.74 L 900.91 1004.98 L 898.20 1005.22 L 895.50 1005.44 L 892.81 1005.69 L 890.14 1005.96 L 887.47 1006.17 L 884.81 1006.34 L 882.16 1006.48 L 879.52 1006.66 L 876.90 1006.88 L 874.28 1007.10 L 871.68 1007.33 L 869.08 1007.54 L 866.50 1007.77 L 863.93 1008.03 L 861.36 1008.20" stroke="rgb(140,255,190)" stroke-opacity="0.532" stroke-width="1.12" />
  <path d="M 935.37 1000.71 L 932.51 1001.54 L 929.63 1002.29 L 926.77 1003.07 L 923.92 1003.83 L 921.08 1004.54 L 918.24 1005.21 L 915.43 1005.90 L 912.64 1006.64 L 909.86 1007.38 L 907.10 1008.12 L 904.35 1008.88 L 901.61 1009.64 L 898.87 1010.39 L 896.14 1011.16 L 893.42 1011.89 L 890.72 1012.67 L 888.04 1013.46 L 885.36 1014.22 L 882.69 1014.99 L 880.03 1015.73 L 877.39 1016.51 L 874.76 1017.31 L 872.11 1018.00 L 869.46 1018.66 L 866.82 1019.26 L 864.18 1019.86 L 861.54 1020.45 L 858.92 1021.05 L 856.31 1021.66 L 853.70 1022.25 L 851.11 1022.84 L 848.52 1023.41 L 845.95 1024.00 L 843.39 1024.59 L 840.84 1025.22 L 838.32 1025.87 L 835.80 1026.50 L 833.29 1027.13 L 830.79 1027.76 L 828.30 1028.38 L 825.82 1028.99 L 823.35 1029.60 L 820.87 1030.12 L 818.40 1030.67" stroke="rgb(140,255,190)" stroke-opacity="0.532" stroke-width="1.12" />
  <path d="M 883.10 1022.40 L 880.38 1022.35 L 877.65 1022.30 L 874.93 1022.24 L 872.24 1022.16 L 869.53 1022.02 L 866.83 1021.68 L 864.16 1021.42 L 861.49 1021.13 L 858.83 1020.88 L 856.23 1020.55 L 853.67 1020.19 L 851.12 1019.82 L 848.60 1019.44 L 846.08 1019.24 L 843.54 1019.02 L 841.01 1018.76 L 838.48 1018.64 L 836.05 1018.51 L 833.59 1018.52 L 831.15 1018.54 L 828.72 1018.59 L 826.29 1018.67 L 823.87 1018.85 L 821.46 1019.05 L 819.06 1019.29 L 816.64 1019.58 L 814.21 1019.79 L 811.79 1020.02 L 809.39 1020.26 L 806.95 1020.39 L 804.49 1020.53 L 802.04 1020.67 L 799.65 1020.83 L 797.27 1020.98 L 794.88 1021.13 L 792.51 1021.16 L 790.17 1021.22 L 787.84 1021.33 L 785.51 1021.44 L 783.13 1021.58 L 780.77 1021.69 L 778.47 1021.81 L 776.17 1021.99 L 773.87 1022.12 L 771.58 1022.26 L 769.32 1022.37 L 767.05 1022.48 L 764.80 1022.53 L 762.53 1022.67 L 760.29 1022.84 L 758.10 1023.10 L 755.94 1023.35 L 753.77 1023.49 L 751.65 1023.64 L 749.54 1023.80 L 747.45 1024.00 L 745.42 1024.21" stroke="rgb(140,255,190)" stroke-opacity="0.531" stroke-width="1.12" />
  <path d="M 911.96 1022.88 L 909.21 1023.80 L 906.50 1024.78 L 903.81 1025.78 L 901.12 1026.74 L 898.45 1027.70 L 895.76 1028.63 L 893.02 1029.42 L 890.35 1030.35 L 887.70 1031.27 L 885.08 1032.21 L 882.46 1033.14 L 879.84 1034.03 L 877.23 1034.89 L 874.62 1035.74 L 872.03 1036.60 L 869.44 1037.46 L 866.86 1038.26 L 864.28 1039.03 L 861.71 1039.80 L 859.18 1040.63 L 856.61 1041.35 L 854.05 1042.09 L 851.50 1042.80 L 848.96 1043.49 L 846.44 1044.24 L 843.99 1045.06 L 841.55 1045.89 L 839.12 1046.73 L 836.71 1047.59 L 834.34 1048.54 L 831.98 1049.50 L 829.65 1050.49 L 827.34 1051.47 L 825.03 1052.46 L 822.71 1053.42 L 820.38 1054.37 L 818.09 1055.36 L 815.81 1056.36 L 813.56 1057.34 L 811.30 1058.30 L 809.02 1059.16" stroke="rgb(140,255,190)" stroke-opacity="0.531" stroke-width="1.11" />
  <path d="M 999.23 1001.69 L 996.31 1001.74 L 993.40 1001.76 L 990.51 1001.78 L 987.62 1001.81 L 984.75 1001.84 L 981.89 1001.82 L 979.04 1001.80 L 976.20 1001.86 L 973.38 1001.92 L 970.56 1001.98 L 967.76 1002.04 L 964.97 1002.08 L 962.18 1002.11 L 959.41 1002.17 L 956.66 1002.28 L 953.91 1002.31 L 951.17 1002.39 L 948.44 1002.48 L 945.73 1002.52 L 943.02 1002.55 L 940.33 1002.60 L 937.65 1002.69" stroke="rgb(140,255,190)" stroke-opacity="0.531" stroke-width="1.11" />
  <path d="M 1002.44 998.26 L 999.42 998.65 L 996.42 999.10 L 993.42 999.52 L 990.45 999.97 L 987.48 1000.38 L 984.52 1000.77 L 981.57 1001.14 L 978.64 1001.53 L 975.71 1001.91 L 972.80 1002.27 L 969.90 1002.66 L 967.00 1003.01 L 964.13 1003.40 L 961.26 1003.78 L 958.42 1004.23 L 955.58 1004.64 L 952.77 1005.09 L 949.95 1005.51 L 947.15 1005.95 L 944.35 1006.27 L 941.56 1006.62 L 938.78 1006.94 L 936.02 1007.26 L 933.26 1007.59 L 930.53 1007.95 L 927.80 1008.31 L 925.09 1008.68 L 922.38 1009.03 L 919.69 1009.37 L 917.00 1009.70 L 914.32 1009.95 L 911.66 1010.21 L 909.01 1010.45 L 906.37 1010.66 L 903.75 1010.86 L 901.15 1011.09 L 898.55 1011.25 L 895.97 1011.43 L 893.40 1011.63 L 890.82 1011.79 L 888.26 1011.94 L 885.70 1012.03 L 883.15 1012.07 L 880.61 1012.08 L 878.07 1012.09 L 875.55 1012.19 L 873.03 1012.28 L 870.52 1012.40 L 868.02 1012.49 L 865.53 1012.56 L 863.05 1012.64 L 860.59 1012.74 L 858.14 1012.84 L 855.70 1012.94 L 853.26 1013.01 L 850.84 1013.08 L 848.43 1013.14 L 846.03 1013.21 L 843.64 1013.28 L 841.25 1013.24 L 838.88 1013.20 L 836.52 1013.16 L 834.15 1013.18 L 831.80 1013.22 L 829.45 1013.26 L 827.12 1013.30 L 824.79 1013.29 L 822.47 1013.32 L 820.17 1013.36 L 817.88 1013.42 L 815.60 1013.44 L 813.33 1013.52 L 811.08 1013.62 L 808.84 1013.72 L 806.60 1013.79 L 804.37 1013.84" stroke="rgb(140,255,190)" stroke-opacity="0.530" stroke-width="1.11" />
  <path d="M 951.97 1002.84 L 949.13 1002.40 L 946.33 1001.94 L 943.55 1001.52 L 940.75 1001.12 L 937.97 1000.66 L 935.21 1000.15 L 932.46 999.72 L 929.70 999.40 L 926.97 999.14 L 924.26 998.82 L 921.57 998.51 L 918.88 998.31 L 916.19 998.08 L 913.53 997.79 L 910.89 997.50 L 908.24 997.21 L 905.60 996.94 L 902.96 996.67 L 900.35 996.33 L 897.75 996.01 L 895.17 995.66 L 892.60 995.31 L 890.02 994.90 L 887.46 994.50 L 884.92 994.09 L 882.39 993.64 L 879.87 993.16 L 877.37 992.73 L 874.88 992.27 L 872.42 991.80 L 869.96 991.37 L 867.52 990.91 L 865.08 990.36" stroke="rgb(140,255,190)" stroke-opacity="0.530" stroke-width="1.11" />
  <path d="M 865.65 999.39 L 863.42 999.31 L 861.27 999.23 L 859.25 999.11 L 857.21 999.03 L 855.18 998.95 L 853.27 998.89 L 851.37 998.82 L 849.65 998.72 L 847.99 998.61 L 846.33 998.45 L 844.64 998.34 L 843.00 998.14 L 841.32 998.01 L 839.68 997.90 L 838.05 997.76 L 836.39 997.64 L 834.78 997.65 L 833.14 997.62" stroke="rgb(140,255,190)" stroke-opacity="0.530" stroke-width="1.11" />
  <path d="M 1001.54 998.13 L 998.67 998.16 L 995.80 998.16 L 992.95 998.16 L 990.11 998.14" stroke="rgb(140,255,190)" stroke-opacity="0.529" stroke-width="1.11" />
  <path d="M 996.14 999.40 L 993.22 999.78 L 990.31 1000.21 L 987.41 1000.67 L 984.53 1001.10 L 981.65 1001.51 L 978.78 1001.88 L 975.92 1002.25 L 973.08 1002.66 L 970.25 1003.07 L 967.44 1003.47 L 964.62 1003.79 L 961.82 1004.12 L 959.03 1004.43 L 956.24 1004.70 L 953.49 1005.02 L 950.74 1005.31 L 948.00 1005.59 L 945.26 1005.86 L 942.54 1006.14 L 939.84 1006.46 L 937.14 1006.76 L 934.45 1007.00 L 931.77 1007.26 L 929.11 1007.49" stroke="rgb(140,255,190)" stroke-opacity="0.529" stroke-width="1.11" />
  <path d="M 846.03 1013.21 L 843.52 1014.80 L 841.01 1016.36 L 838.52 1017.92 L 836.06 1019.52 L 833.62 1021.13 L 831.19 1022.72 L 828.71 1024.23 L 826.25 1025.72 L 823.82 1027.24 L 821.40 1028.77 L 818.98 1030.28 L 816.62 1031.85 L 814.29 1033.45 L 811.97 1035.05 L 809.68 1036.67 L 807.43 1038.33 L 805.21 1040.00 L 803.02 1041.71 L 800.86 1043.43 L 798.72 1045.14 L 796.66 1046.93 L 794.57 1048.68 L 792.49 1050.41 L 790.42 1052.14 L 788.31 1053.79 L 786.20 1055.45 L 784.11 1057.11 L 782.06 1058.79 L 780.07 1060.54" stroke="rgb(140,255,190)" stroke-opacity="0.528" stroke-width="1.11" />
  <path d="M 929.37 1000.96 L 926.80 1000.18 L 924.24 999.39 L 921.69 998.61 L 919.11 997.87 L 916.56 997.07 L 914.04 996.24 L 911.53 995.36 L 909.04 994.48 L 906.54 993.62 L 904.05 992.77 L 901.57 991.94 L 899.13 991.05 L 896.70 990.16 L 894.30 989.23 L 891.94 988.24 L 889.57 987.21 L 887.30 986.07" stroke="rgb(140,255,190)" stroke-opacity="0.528" stroke-width="1.10" />
  <path d="M 999.97 1002.48 L 997.26 1002.61 L 994.56 1002.79 L 991.87 1002.94 L 989.19 1003.08 L 986.52 1003.15 L 983.86 1003.11 L 981.22 1003.03 L 978.58 1002.95 L 975.96 1002.87 L 973.34 1002.85 L 970.74 1002.79 L 968.14 1002.70 L 965.57 1002.59 L 963.00 1002.49 L 960.47 1002.32 L 957.94 1002.13 L 955.40 1001.96 L 952.88 1001.70 L 950.37 1001.47 L 947.86 1001.28 L 945.37 1000.97 L 942.89 1000.71 L 940.41 1000.44 L 937.95 1000.16 L 935.50 999.91 L 933.06 999.74 L 930.64 999.50 L 928.23 999.32 L 925.84 999.20 L 923.46 999.10 L 921.12 998.97 L 918.81 998.72 L 916.50 998.45 L 914.21 998.20 L 911.91 997.95 L 909.63 997.64 L 907.35 997.39 L 905.09 997.15 L 902.84 996.94 L 900.60 996.74 L 898.38 996.49 L 896.19 996.22 L 894.00 995.97 L 891.80 995.70 L 889.61 995.42 L 887.42 995.08 L 885.25 994.67 L 883.08 994.25 L 880.91 993.87 L 878.76 993.49 L 876.62 993.10 L 874.50 992.69 L 872.40 992.25 L 870.32 991.80 L 868.24 991.37 L 866.19 990.93 L 864.14 990.50 L 862.12 990.02 L 860.11 989.57 L 858.13 989.07 L 856.17 988.58 L 854.19 988.17 L 852.24 987.79 L 850.30 987.41 L 848.38 987.04 L 846.46 986.63" stroke="rgb(140,255,190)" stroke-opacity="0.528" stroke-width="1.10" />
  <path d="M 912.05 1004.79 L 909.30 1004.18 L 906.56 1003.64 L 903.83 1003.10 L 901.09 1002.58 L 898.41 1002.06 L 895.70 1001.58" stroke="rgb(140,255,190)" stroke-opacity="0.528" stroke-width="1.10" />
  <path d="M 1001.61 1003.87 L 998.80 1004.11 L 996.00 1004.28 L 993.23 1004.50 L 990.46 1004.71 L 987.70 1004.95 L 984.96 1005.18 L 982.23 1005.41 L 979.52 1005.68 L 976.82 1005.94 L 974.12 1006.11 L 971.43 1006.26 L 968.75 1006.41 L 966.08 1006.52 L 963.42 1006.63" stroke="rgb(140,255,190)" stroke-opacity="0.527" stroke-width="1.10" />
  <path d="M 998.54 1000.97 L 995.98 1001.04 L 993.43 1001.11 L 990.88 1001.13 L 988.35 1001.16 L 985.83 1001.21 L 983.32 1001.29 L 980.82 1001.48 L 978.33 1001.51 L 975.85 1001.57 L 973.38 1001.64 L 970.92 1001.71 L 968.48 1001.91 L 966.05 1002.14 L 963.62 1002.29 L 961.20 1002.42 L 958.79 1002.53 L 956.39 1002.67 L 954.01 1002.79 L 951.64 1002.84 L 949.29 1002.87 L 946.95 1002.92 L 944.62 1002.92 L 942.30 1002.93 L 939.99 1002.93 L 937.69 1002.97 L 935.40 1002.92" stroke="rgb(140,255,190)" stroke-opacity="0.527" stroke-width="1.10" />
  <path d="M 915.74 1011.94 L 913.14 1012.27 L 910.56 1012.58 L 907.94 1012.81 L 905.34 1013.04 L 902.77 1013.28 L 900.22 1013.68 L 897.68 1014.02 L 895.17 1014.42 L 892.62 1014.75 L 890.09 1015.17 L 887.56 1015.51 L 885.04 1015.85 L 882.53 1016.22 L 880.01 1016.55 L 877.50 1016.89 L 874.99 1017.32 L 872.51 1017.82 L 870.04 1018.36 L 867.59 1018.89 L 865.14 1019.42 L 862.69 1019.97 L 860.20 1020.53 L 857.72 1021.03 L 855.27 1021.61 L 852.82 1022.16 L 850.37 1022.70 L 847.99 1023.22 L 845.63 1023.74 L 843.29 1024.26 L 840.96 1024.75 L 838.63 1025.24 L 836.28 1025.64 L 833.94 1026.15" stroke="rgb(140,255,190)" stroke-opacity="0.526" stroke-width="1.10" />
  <path d="M 963.00 1002.49 L 960.40 1002.72 L 957.81 1003.02 L 955.26 1003.31 L 952.70 1003.55 L 950.16 1003.80 L 947.62 1004.05 L 945.09 1004.30 L 942.62 1004.73 L 940.11 1005.01 L 937.67 1005.23 L 935.24 1005.45 L 932.80 1005.70 L 930.32 1006.00 L 927.86 1006.21 L 925.40 1006.43 L 922.95 1006.58 L 920.55 1006.81 L 918.17 1007.04 L 915.79 1007.24 L 913.37 1007.37 L 910.98 1007.48 L 908.62 1007.58 L 906.25 1007.64 L 903.90 1007.66 L 901.58 1007.65 L 899.27 1007.64 L 896.96 1007.63 L 894.69 1007.58 L 892.43 1007.51 L 890.20 1007.42 L 887.97 1007.21 L 885.76 1007.03" stroke="rgb(140,255,190)" stroke-opacity="0.526" stroke-width="1.10" />
  <path d="M 954.01 1002.79 L 951.57 1003.45 L 949.12 1004.05 L 946.62 1004.58 L 944.15 1005.10 L 941.69 1005.56 L 939.22 1006.12 L 936.79 1006.72 L 934.35 1007.37 L 931.90 1007.99 L 929.43 1008.60 L 927.00 1009.33 L 924.58 1009.95 L 922.17 1010.54 L 919.72 1011.12 L 917.24 1011.60 L 914.77 1012.11 L 912.35 1012.68 L 909.94 1013.24 L 907.54 1013.86 L 905.14 1014.50 L 902.75 1015.13 L 900.37 1015.75 L 897.99 1016.37 L 895.61 1016.97 L 893.27 1017.62 L 890.94 1018.26 L 888.61 1018.89 L 886.30 1019.54 L 884.00 1020.19 L 881.70 1020.86 L 879.42 1021.58 L 877.14 1022.31 L 874.88 1023.04 L 872.59 1023.67 L 870.30 1024.28 L 868.01 1024.81 L 865.72 1025.34 L 863.44 1025.85 L 861.17 1026.41 L 858.91 1027.00 L 856.64 1027.52 L 854.38 1027.98 L 852.12 1028.43 L 849.87 1028.87 L 847.62 1029.27 L 845.38 1029.63 L 843.15 1029.92 L 840.94 1030.23 L 838.72 1030.48 L 836.51 1030.73 L 834.31 1031.00 L 832.10 1031.15 L 829.88 1031.23 L 827.67 1031.28 L 825.48 1031.29 L 823.30 1031.29 L 821.12 1031.31 L 818.95 1031.37 L 816.79 1031.40 L 814.65 1031.41 L 812.50 1031.32 L 810.37 1031.23 L 808.25 1031.11 L 806.13 1031.04 L 804.06 1031.08 L 801.99 1031.15 L 799.95 1031.17 L 797.90 1031.20 L 795.85 1031.13 L 793.80 1031.07 L 791.76 1031.00 L 789.72 1030.90 L 787.71 1030.86 L 785.68 1030.85 L 783.68 1030.81 L 781.67 1030.71 L 779.68 1030.64 L 777.69 1030.55 L 775.70 1030.48 L 773.72 1030.41 L 771.74 1030.30 L 769.77 1030.18 L 767.81 1030.10 L 765.84 1029.99 L 763.88 1029.88 L 761.92 1029.79 L 759.98 1029.71 L 758.04 1029.58 L 756.13 1029.40 L 754.22 1029.21 L 752.32 1029.08 L 750.42 1028.95 L 748.54 1028.84 L 746.67 1028.71 L 744.82 1028.62 L 742.98 1028.48 L 741.13 1028.37 L 739.30 1028.16 L 737.47 1027.97 L 735.64 1027.78 L 733.82 1027.56 L 732.00 1027.36 L 730.18 1027.17 L 728.37 1027.08 L 726.55 1027.02 L 724.74 1026.96 L 722.93 1026.91 L 721.13 1026.85 L 719.34 1026.78 L 717.55 1026.78 L 715.78 1026.80 L 714.00 1026.82 L 712.24 1026.82 L 710.49 1026.79" stroke="rgb(140,255,190)" stroke-opacity="0.525" stroke-width="1.09" />
  <path d="M 928.23 999.32 L 925.55 999.13 L 922.86 999.07 L 920.19 998.95 L 917.52 998.83 L 914.86 998.70 L 912.19 998.49 L 909.53 998.34 L 906.87 998.19 L 904.23 998.03 L 901.60 997.84 L 899.01 997.60 L 896.43 997.37 L 893.85 997.12 L 891.31 996.87 L 888.80 996.55 L 886.27 996.19 L 883.76 995.87 L 881.26 995.52 L 878.77 995.19 L 876.30 994.89 L 873.83 994.58 L 871.37 994.28 L 868.93 994.01 L 866.54 993.61 L 864.16 993.19 L 861.79 992.72 L 859.44 992.26 L 857.09 991.83 L 854.76 991.39 L 852.44 990.90 L 850.15 990.46 L 847.87 989.98 L 845.60 989.50 L 843.33 989.09 L 841.07 988.71 L 838.81 988.40 L 836.56 988.08 L 834.31 987.72 L 832.08 987.37 L 829.84 986.98 L 827.60 986.73" stroke="rgb(140,255,190)" stroke-opacity="0.524" stroke-width="1.09" />
  <path d="M 962.18 1002.11 L 959.59 1002.34 L 957.01 1002.59 L 954.45 1002.85 L 951.91 1003.19 L 949.38 1003.54 L 946.86 1003.92 L 944.34 1004.26 L 941.88 1004.62 L 939.44 1004.94 L 936.95 1005.21 L 934.47 1005.50 L 931.95 1005.91 L 929.42 1006.26 L 926.90 1006.63 L 924.38 1007.01 L 921.86 1007.38 L 919.36 1007.77 L 916.88 1008.16 L 914.37 1008.52 L 911.94 1008.95 L 909.51 1009.45 L 907.09 1009.97 L 904.66 1010.53 L 902.24 1011.09 L 899.81 1011.60 L 897.36 1012.09 L 894.92 1012.62 L 892.50 1013.15 L 890.09 1013.67 L 887.67 1014.17 L 885.24 1014.62 L 882.81 1015.11 L 880.37 1015.57 L 877.95 1016.08 L 875.55 1016.56 L 873.14 1016.99 L 870.74 1017.41 L 868.34 1017.81 L 865.95 1018.27 L 863.61 1018.89 L 861.26 1019.48 L 858.93 1020.08 L 856.63 1020.74" stroke="rgb(140,255,190)" stroke-opacity="0.524" stroke-width="1.09" />
  <path d="M 1001.59 1000.65 L 998.87 1000.86 L 996.17 1001.06 L 993.48 1001.25 L 990.80 1001.32 L 988.13 1001.40 L 985.49 1001.57 L 982.86 1001.78 L 980.26 1001.90 L 977.65 1002.06 L 975.05 1002.23 L 972.47 1002.41 L 969.90 1002.61 L 967.32 1002.74 L 964.75 1002.88 L 962.20 1003.09 L 959.67 1003.30 L 957.15 1003.51 L 954.63 1003.72 L 952.12 1003.82 L 949.66 1004.00 L 947.22 1004.14 L 944.79 1004.29 L 942.37 1004.53 L 939.96 1004.71 L 937.53 1004.77 L 935.09 1004.85 L 932.68 1004.92 L 930.28 1004.86 L 927.88 1004.84 L 925.48 1004.82 L 923.09 1004.79 L 920.71 1004.76 L 918.34 1004.71 L 915.98 1004.62 L 913.63 1004.51 L 911.28 1004.40 L 908.95 1004.19 L 906.62 1004.00" stroke="rgb(140,255,190)" stroke-opacity="0.524" stroke-width="1.09" />
  <path d="M 1001.72 1000.51 L 999.44 999.59 L 997.16 998.68 L 994.91 997.75 L 992.60 996.91 L 990.33 996.04 L 988.05 995.20 L 985.78 994.37 L 983.55 993.49 L 981.31 992.65 L 979.10 991.76 L 976.90 990.85 L 974.67 990.07 L 972.45 989.31 L 970.24 988.55 L 968.03 987.82 L 965.83 987.10 L 963.64 986.33 L 961.47 985.60 L 959.28 984.93 L 957.11 984.28 L 954.97 983.61 L 952.82 982.98 L 950.68 982.40 L 948.52 981.89 L 946.33 981.41 L 944.15 980.90 L 941.98 980.43 L 939.82 980.08 L 937.67 979.78 L 935.52 979.47 L 933.41 979.15 L 931.31 978.83 L 929.19 978.48 L 927.05 978.14 L 924.93 977.84 L 922.83 977.54 L 920.71 977.28 L 918.61 976.99 L 916.50 976.74" stroke="rgb(205,165,255)" stroke-opacity="0.464" stroke-width="1.09" />
  <path d="M 1000.89 1001.28 L 998.04 1001.41 L 995.19 1001.52 L 992.36 1001.63 L 989.54 1001.76 L 986.73 1001.88 L 983.94 1001.91 L 981.15 1002.06 L 978.38 1002.12 L 975.62 1002.16 L 972.88 1002.26 L 970.16 1002.37 L 967.44 1002.38 L 964.74 1002.32 L 962.05 1002.26 L 959.36 1002.17 L 956.67 1002.02 L 954.00 1001.81 L 951.35 1001.56 L 948.70 1001.31 L 946.07 1001.06 L 943.44 1000.82 L 940.81 1000.61 L 938.20 1000.42 L 935.61 1000.29 L 933.01 1000.21 L 930.44 1000.09 L 927.87 999.99 L 925.30 999.91" stroke="rgb(140,255,190)" stroke-opacity="0.523" stroke-width="1.09" />
  <path d="M 1000.45 995.93 L 997.66 996.07 L 994.88 996.24 L 992.11 996.41 L 989.36 996.56 L 986.61 996.69 L 983.87 996.74 L 981.14 996.89 L 978.43 997.03 L 975.73 997.26 L 973.04 997.46 L 970.36 997.63 L 967.69 997.81 L 965.03 998.01 L 962.39 998.24 L 959.75 998.46 L 957.14 998.74 L 954.53 999.04 L 951.93 999.31 L 949.33 999.48 L 946.75 999.70 L 944.18 999.91 L 941.61 1000.01 L 939.05 1000.11 L 936.50 1000.10 L 933.97 1000.20 L 931.44 1000.29 L 928.93 1000.38 L 926.43 1000.51 L 923.93 1000.61 L 921.44 1000.68 L 918.97 1000.78 L 916.51 1000.87 L 914.07 1000.95 L 911.63 1001.02 L 909.22 1001.05 L 906.81 1001.10 L 904.42 1001.12 L 902.03 1001.13 L 899.66 1001.16 L 897.30 1001.17 L 894.95 1001.14 L 892.62 1001.09 L 890.30 1001.05" stroke="rgb(140,255,190)" stroke-opacity="0.522" stroke-width="1.08" />
  <path d="M 909.11 1005.03 L 906.59 1003.81 L 904.08 1002.58 L 901.61 1001.31 L 899.14 1000.06 L 896.69 998.79 L 894.27 997.48 L 891.87 996.17 L 889.51 994.80 L 887.16 993.45 L 884.81 992.10 L 882.47 990.78 L 880.10 989.51 L 877.70 988.34 L 875.33 987.15 L 872.96 985.97 L 870.67 984.66 L 868.38 983.37 L 866.02 982.23 L 863.65 981.13 L 861.30 980.03 L 858.96 978.93 L 856.63 977.83 L 854.31 976.73 L 852.01 975.62 L 849.73 974.49 L 847.44 973.41 L 845.20 972.23 L 842.94 971.14 L 840.67 970.06 L 838.43 968.97 L 836.18 967.91 L 833.95 966.83 L 831.75 965.73 L 829.53 964.66 L 827.33 963.61 L 825.17 962.49 L 823.02 961.37 L 820.85 960.33 L 818.68 959.30 L 816.53 958.24 L 814.42 957.16 L 812.25 956.19 L 810.13 955.16 L 808.05 954.06 L 805.99 952.95 L 803.95 951.82 L 801.91 950.71 L 799.87 949.61 L 797.83 948.55 L 795.77 947.56 L 793.69 946.60 L 791.63 945.64 L 789.59 944.66 L 787.58 943.63 L 785.56 942.64 L 783.57 941.62 L 781.56 940.65 L 779.59 939.63 L 777.59 938.66 L 775.59 937.73 L 773.52 936.98 L 771.48 936.17 L 769.47 935.33 L 767.49 934.43 L 765.54 933.49 L 763.59 932.56 L 761.65 931.64" stroke="rgb(140,255,190)" stroke-opacity="0.522" stroke-width="1.08" />
  <path d="M 996.96 1000.66 L 994.60 1001.29 L 992.25 1001.91 L 989.92 1002.49 L 987.60 1003.07 L 985.28 1003.64 L 982.98 1004.17 L 980.69 1004.71 L 978.39 1005.25 L 976.10 1005.79 L 973.81 1006.35 L 971.55 1006.91 L 969.31 1007.48 L 967.08 1008.10 L 964.87 1008.80 L 962.67 1009.57 L 960.48 1010.31 L 958.30 1011.02 L 956.14 1011.75 L 953.96 1012.29 L 951.78 1012.77 L 949.56 1013.14 L 947.37 1013.68 L 945.18 1014.21 L 943.00 1014.77 L 940.82 1015.32 L 938.67 1015.99 L 936.51 1016.59 L 934.35 1017.19 L 932.21 1017.79 L 930.05 1018.32 L 927.92 1018.87 L 925.77 1019.40 L 923.64 1019.92 L 921.51 1020.44 L 919.39 1020.98 L 917.29 1021.52 L 915.19 1022.04 L 913.09 1022.52 L 910.99 1022.94 L 908.89 1023.39 L 906.80 1023.85" stroke="rgb(205,165,255)" stroke-opacity="0.459" stroke-width="1.07" />
  <path d="M 1001.77 1000.65 L 999.63 1000.76 L 997.54 1000.88 L 995.45 1001.04 L 993.35 1001.23 L 991.24 1001.42 L 989.21 1001.62 L 987.15 1001.84 L 985.11 1002.08 L 983.12 1002.27 L 981.19 1002.55 L 979.23 1002.87 L 977.28 1003.19 L 975.29 1003.46 L 973.31 1003.71 L 971.34 1003.94 L 969.31 1004.09 L 967.31 1004.17 L 965.30 1004.33 L 963.33 1004.44 L 961.39 1004.52 L 959.44 1004.62 L 957.49 1004.65 L 955.53 1004.67 L 953.59 1004.65 L 951.67 1004.59 L 949.77 1004.55 L 947.92 1004.54 L 946.10 1004.55 L 944.28 1004.56 L 942.45 1004.58 L 940.62 1004.60 L 938.85 1004.62 L 937.08 1004.64 L 935.31 1004.64 L 933.54 1004.64 L 931.79 1004.66 L 930.04 1004.68" stroke="rgb(205,165,255)" stroke-opacity="0.459" stroke-width="1.07" />
  <path d="M 999.67 996.91 L 1001.79 996.79 L 1003.90 996.63 L 1006.00 996.51 L 1008.08 996.31 L 1010.15 996.10 L 1012.22 995.91 L 1014.29 995.71 L 1016.34 995.55 L 1018.39 995.38 L 1020.43 995.21 L 1022.45 994.93 L 1024.46 994.65 L 1026.46 994.37 L 1028.45 994.05 L 1030.42 993.73" stroke="rgb(255,210,135)" stroke-opacity="0.392" stroke-width="1.06" />
  <path d="M 1001.29 999.51 L 1000.55 1001.61 L 999.82 1003.70 L 999.04 1005.79 L 998.19 1007.83 L 997.20 1009.83 L 996.17 1011.76 L 995.17 1013.66 L 994.25 1015.57 L 993.32 1017.46 L 992.42 1019.36 L 991.56 1021.29 L 990.69 1023.21 L 989.82 1025.11 L 988.94 1027.03 L 988.08 1028.95 L 987.21 1030.90 L 986.37 1032.82 L 985.46 1034.72 L 984.60 1036.62 L 983.72 1038.49" stroke="rgb(205,165,255)" stroke-opacity="0.455" stroke-width="1.06" />
  <path d="M 999.22 963.78 L 1000.48 962.17 L 1001.74 960.58 L 1003.05 959.04 L 1004.37 957.54 L 1005.79 956.12 L 1007.20 954.70 L 1008.57 953.25 L 1009.89 951.72 L 1011.26 950.27 L 1012.62 948.82 L 1013.94 947.34 L 1015.16 945.85 L 1016.29 944.33 L 1017.31 942.76 L 1018.33 941.16 L 1019.31 939.55 L 1020.29 937.95 L 1021.27 936.33 L 1022.36 934.72 L 1023.34 933.05 L 1024.38 931.40 L 1025.36 929.68 L 1026.32 928.02 L 1027.26 926.35 L 1028.32 924.70 L 1029.37 923.05 L 1030.42 921.42 L 1031.45 919.82 L 1032.48 918.22 L 1033.61 916.67 L 1034.65 915.04 L 1035.70 913.43 L 1036.72 911.79 L 1037.76 910.16" stroke="rgb(205,165,255)" stroke-opacity="0.453" stroke-width="1.05" />
  <path d="M 996.43 1001.33 L 996.19 1001.22 L 995.97 1001.08 L 995.80 1000.93 L 995.62 1000.76 L 995.43 1000.67 L 995.22 1000.59 L 995.02 1000.53 L 994.87 1000.38 L 994.67 1000.23 L 994.38 1000.02 L 994.11 999.82 L 993.85 999.58 L 993.58 999.25 L 993.35 998.80 L 993.23 998.29 L 992.96 997.82 L 992.73 997.31 L 992.48 996.73 L 992.22 996.13 L 992.00 995.49 L 991.77 994.84 L 991.65 994.29 L 991.51 993.73 L 991.51 993.21 L 991.48 992.74 L 991.51 992.28 L 991.51 991.81 L 991.49 991.32 L 991.33 990.85 L 991.28 990.41 L 991.23 989.92 L 991.18 989.42 L 991.13 989.02 L 991.07 988.65 L 990.98 988.28 L 990.90 987.91 L 990.83 987.63 L 990.74 987.35" stroke="rgb(255,210,135)" stroke-opacity="0.389" stroke-width="1.05" />
  <path d="M 950.59 1001.72 L 948.46 1002.22 L 946.32 1002.65 L 944.19 1003.08 L 942.07 1003.49 L 939.95 1003.89 L 937.83 1004.27 L 935.73 1004.65 L 933.63 1005.02 L 931.55 1005.38 L 929.44 1005.71 L 927.35 1006.10 L 925.26 1006.42 L 923.19 1006.69 L 921.12 1006.96 L 919.07 1007.23 L 917.04 1007.56 L 915.01 1007.93 L 913.00 1008.32 L 910.99 1008.70 L 909.00 1009.12 L 907.01 1009.54 L 905.02 1009.97 L 903.05 1010.40 L 901.09 1010.83 L 899.14 1011.30 L 897.20 1011.75 L 895.31 1012.29 L 893.44 1012.88 L 891.56 1013.44 L 889.69 1013.97 L 887.85 1014.55 L 886.01 1015.19 L 884.25 1015.93 L 882.52 1016.74 L 880.82 1017.57 L 879.10 1018.34 L 877.46 1019.24 L 875.79 1020.04 L 874.12 1020.78" stroke="rgb(205,165,255)" stroke-opacity="0.449" stroke-width="1.04" />
  <path d="M 1001.15 1000.02 L 1001.49 1000.06 L 1001.82 1000.10 L 1002.16 1000.11 L 1002.49 1000.13 L 1002.91 1000.08" stroke="rgb(230,230,230)" stroke-opacity="0.385" stroke-width="0.71" />
  <path d="M 1003.75 1002.10 L 1003.39 1000.68 L 1003.03 999.26 L 1002.70 997.83 L 1002.38 996.41 L 1002.08 995.03 L 1001.86 993.67 L 1001.70 992.30" stroke="rgb(230,230,230)" stroke-opacity="0.384" stroke-width="0.71" />
  <path d="M 1001.85 1000.89 L 1000.48 1001.32 L 999.29 1001.67 L 998.18 1001.87 L 996.91 1001.95 L 995.65 1002.05 L 994.45 1002.15 L 993.25 1002.27 L 992.12 1002.28 L 991.04 1002.10 L 989.95 1001.75 L 988.77 1001.34 L 987.50 1000.90 L 986.34 1000.37 L 985.07 999.98 L 983.81 999.58 L 982.56 999.06 L 981.28 998.60" stroke="rgb(230,230,230)" stroke-opacity="0.384" stroke-width="0.71" />
  <path d="M 997.34 1002.48 L 995.95 1002.39 L 994.64 1002.20 L 993.31 1001.96 L 992.02 1001.74 L 990.72 1001.52 L 989.39 1001.14 L 988.06 1000.75 L 986.73 1000.29" stroke="rgb(230,230,230)" stroke-opacity="0.383" stroke-width="0.70" />
  <path d="M 1004.07 1001.47 L 1005.31 1002.04 L 1006.57 1002.55 L 1007.68 1003.11 L 1008.81 1003.73 L 1009.97 1004.43 L 1011.08 1005.26 L 1012.15 1006.08 L 1013.14 1007.02 L 1014.19 1007.86 L 1015.26 1008.67" stroke="rgb(230,230,230)" stroke-opacity="0.382" stroke-width="0.70" />
  <path d="M 997.76 1002.07 L 998.30 1001.66 L 998.89 1001.16 L 999.48 1000.65 L 1000.12 1000.17 L 1000.78 999.68 L 1001.44 999.21 L 1002.09 998.60 L 1002.76 997.99 L 1003.38 997.32 L 1004.01 996.65" stroke="rgb(230,230,230)" stroke-opacity="0.381" stroke-width="0.70" />
  <path d="M 1001.12 1004.75 L 1000.04 1003.78 L 999.01 1002.79 L 997.87 1001.89 L 996.85 1000.86 L 995.84 999.80 L 994.84 998.76 L 993.83 997.78 L 992.78 996.78 L 991.74 995.79 L 990.72 994.79 L 989.57 993.92 L 988.51 992.96 L 987.58 991.88 L 986.67 990.80" stroke="rgb(230,230,230)" stroke-opacity="0.381" stroke-width="0.70" />
  <path d="M 999.51 997.75 L 999.71 996.28 L 999.94 994.83 L 1000.17 993.40 L 1000.49 992.00 L 1000.89 990.61 L 1001.29 989.23 L 1001.54 987.82" stroke="rgb(230,230,230)" stroke-opacity="0.366" stroke-width="0.66" />
  <path d="M 1007.55 995.81 L 1007.27 994.75 L 1006.99 993.71 L 1006.82 992.63 L 1006.76 991.47 L 1006.71 990.30 L 1006.57 989.16 L 1006.45 988.04 L 1006.30 987.07 L 1006.14 986.11 L 1005.97 985.14 L 1005.66 984.10 L 1005.49 982.89 L 1005.35 981.67" stroke="rgb(230,230,230)" stroke-opacity="0.363" stroke-width="0.65" />
  <path d="M 997.06 1002.42 L 995.58 1002.61 L 994.10 1002.83 L 992.62 1003.05 L 991.16 1003.21 L 989.70 1003.42 L 988.24 1003.62 L 986.79 1003.79 L 985.34 1003.94 L 983.90 1004.10 L 982.45 1004.21 L 981.04 1004.47" stroke="rgb(230,230,230)" stroke-opacity="0.363" stroke-width="0.65" />
  <path d="M 998.75 999.50 L 997.63 999.34 L 996.66 998.80 L 995.70 998.20 L 994.62 997.40 L 993.67 996.49 L 992.75 995.70 L 991.82 994.92 L 990.82 994.27 L 989.75 993.60 L 988.68 992.94 L 987.69 992.02 L 986.68 991.11" stroke="rgb(230,230,230)" stroke-opacity="0.363" stroke-width="0.65" />
  <path d="M 998.01 1007.13 L 996.85 1006.91 L 995.68 1006.75 L 994.41 1006.59 L 993.18 1006.41 L 991.94 1006.22 L 990.72 1006.05 L 989.54 1005.86" stroke="rgb(230,230,230)" stroke-opacity="0.360" stroke-width="0.64" />
  <path d="M 998.79 999.94 L 997.48 999.70 L 996.16 999.63 L 994.89 999.37 L 993.59 999.13 L 992.31 998.96 L 991.08 998.62 L 989.87 998.28 L 988.66 997.87 L 987.48 997.43 L 986.37 996.89" stroke="rgb(230,230,230)" stroke-opacity="0.356" stroke-width="0.63" />
  <path d="M 1001.85 998.53 L 1001.29 997.61 L 1000.74 996.70 L 1000.12 995.74 L 999.52 994.78 L 998.96 993.94 L 998.36 993.18 L 997.74 992.26 L 997.24 991.29" stroke="rgb(230,230,230)" stroke-opacity="0.356" stroke-width="0.63" />
  <path d="M 997.10 997.87 L 998.47 998.17 L 999.84 998.51 L 1001.21 998.86 L 1002.57 999.21 L 1003.93 999.59 L 1005.28 999.87 L 1006.64 1000.11 L 1007.95 1000.54 L 1009.23 1000.94" stroke="rgb(230,230,230)" stroke-opacity="0.355" stroke-width="0.63" />
  <path d="M 993.17 998.27 L 994.24 998.13 L 995.32 997.98 L 996.45 997.79 L 997.65 997.56 L 998.83 997.38 L 1000.02 997.23 L 1001.20 997.03 L 1002.44 996.82 L 1003.64 996.90 L 1004.92 997.09 L 1006.24 997.18 L 1007.49 997.14" stroke="rgb(230,230,230)" stroke-opacity="0.354" stroke-width="0.62" />
  <path d="M 996.54 994.22 L 996.42 993.88 L 996.25 993.49 L 995.96 993.03 L 995.57 992.60 L 995.31 992.53 L 995.03 992.49 L 994.77 992.38 L 994.52 992.48 L 994.35 992.53 L 994.35 992.57" stroke="rgb(230,230,230)" stroke-opacity="0.353" stroke-width="0.62" />
  <path d="M 1004.33 998.64 L 1005.32 998.33 L 1006.30 998.03 L 1007.24 997.63 L 1008.15 997.13 L 1009.06 996.63 L 1009.97 996.12 L 1010.83 995.58 L 1011.73 994.87 L 1012.59 994.22 L 1013.63 993.56" stroke="rgb(230,230,230)" stroke-opacity="0.353" stroke-width="0.62" />
</g>
</svg>
