<?xml version="1.0" encoding="UTF-8"?>
<svg xmlns="http://www.w3.org/2000/svg" width="2000" height="2000" viewBox="0 0 2000 2000">
<g fill="none" stroke-linecap="round" stroke-linejoin="round">
  <path d="M 1001.71 1000.90 L 998.59 1001.42 L 995.47 1001.90 L 992.37 1002.40 L 989.28 1002.90 L 986.21 1003.41 L 983.15 1003.93 L 980.10 1004.45 L 977.07 1004.98 L 974.05 1005.51 L 971.04 1006.06 L 968.06 1006.64 L 965.11 1007.30 L 962.17 1007.97 L 959.24 1008.61 L 956.32 1009.23 L 953.42 1009.85 L 950.53 1010.45 L 947.66 1011.00 L 944.80 1011.56 L 941.96 1012.13 L 939.13 1012.72 L 936.31 1013.27 L 933.50 1013.80 L 930.70 1014.26 L 927.91 1014.77 L 925.13 1015.28 L 922.37 1015.79 L 919.60 1016.24 L 916.84 1016.71 L 914.09 1017.20 L 911.35 1017.70 L 908.63 1018.16 L 905.92 1018.60 L 903.23 1019.04 L 900.56 1019.50 L 897.90 1019.96 L 895.26 1020.48 L 892.62 1021.00 L 889.97 1021.49 L 887.33 1021.96 L 884.69 1022.41 L 882.08 1022.87 L 879.48 1023.32 L 876.90 1023.76 L 874.34 1024.25 L 871.79 1024.68 L 869.24 1025.10 L 866.70 1025.51 L 864.18 1025.95 L 861.66 1026.38 L 859.16 1026.79 L 856.65 1027.20 L 854.15 1027.61 L 851.66 1028.00" stroke="rgb(120,210,255)" stroke-opacity="0.855" stroke-width="1.64" />
  <path d="M 1003.32 998.80 L 1000.11 999.65 L 996.94 1000.57 L 993.77 1001.46 L 990.59 1002.24 L 987.42 1003.01 L 984.26 1003.76 L 981.12 1004.50 L 977.98 1005.24 L 974.85 1005.97 L 971.74 1006.71 L 968.65 1007.45 L 965.57 1008.24 L 962.53 1009.10 L 959.51 1009.98 L 956.50 1010.85 L 953.50 1011.71 L 950.50 1012.56 L 947.52 1013.41 L 944.54 1014.21 L 941.59 1015.05 L 938.64 1015.85 L 935.69 1016.64 L 932.76 1017.42 L 929.85 1018.23 L 926.95 1019.03 L 924.05 1019.82 L 921.16 1020.59 L 918.29 1021.38 L 915.44 1022.20 L 912.63 1023.08 L 909.82 1023.94 L 907.02 1024.80 L 904.24 1025.67 L 901.47 1026.56 L 898.70 1027.38 L 895.95 1028.21 L 893.21 1029.04 L 890.48 1029.89 L 887.78 1030.78 L 885.10 1031.67 L 882.42 1032.56 L 879.75 1033.43 L 877.08 1034.29 L 874.44 1035.17 L 871.79 1036.03 L 869.16 1036.88" stroke="rgb(120,210,255)" stroke-opacity="0.850" stroke-width="1.62" />
  <path d="M 998.82 998.11 L 995.70 998.89 L 992.59 999.65 L 989.49 1000.38 L 986.39 1001.08 L 983.30 1001.73 L 980.21 1002.37 L 977.12 1002.91 L 974.04 1003.42 L 970.98 1003.94 L 967.93 1004.47 L 964.88 1004.97 L 961.85 1005.47 L 958.83 1005.98 L 955.83 1006.48 L 952.83 1006.99 L 949.86 1007.51 L 946.89 1008.03 L 943.93 1008.56 L 940.99 1009.08 L 938.06 1009.60 L 935.13 1010.11 L 932.22 1010.59 L 929.31 1011.02 L 926.41 1011.45 L 923.52 1011.88 L 920.66 1012.39 L 917.81 1012.90 L 914.96 1013.34 L 912.12 1013.79 L 909.30 1014.24 L 906.48 1014.68 L 903.69 1015.17 L 900.91 1015.69 L 898.14 1016.19 L 895.38 1016.67 L 892.63 1017.15 L 889.89 1017.61 L 887.15 1018.06 L 884.43 1018.51 L 881.72 1018.95 L 879.01 1019.33 L 876.31 1019.71 L 873.62 1020.07 L 870.93 1020.41 L 868.26 1020.76 L 865.60 1021.06 L 862.94 1021.35 L 860.29 1021.64 L 857.66 1021.94 L 855.04 1022.25 L 852.43 1022.53 L 849.83 1022.82 L 847.24 1023.18 L 844.67 1023.54 L 842.10 1023.90 L 839.55 1024.27 L 837.00 1024.58 L 834.47 1024.92 L 831.95 1025.26" stroke="rgb(120,210,255)" stroke-opacity="0.850" stroke-width="1.62" />
  <path d="M 1003.10 1000.37 L 999.85 1001.15 L 996.60 1001.91 L 993.37 1002.67 L 990.15 1003.41 L 986.94 1004.13 L 983.75 1004.86 L 980.56 1005.54 L 977.38 1006.24 L 974.21 1006.90 L 971.04 1007.49 L 967.87 1007.97 L 964.70 1008.44 L 961.55 1008.90 L 958.40 1009.36 L 955.29 1009.90 L 952.19 1010.46 L 949.10 1010.97 L 946.02 1011.48 L 942.96 1012.01 L 939.92 1012.55 L 936.89 1013.09 L 933.86 1013.60 L 930.85 1014.11 L 927.84 1014.62 L 924.85 1015.10 L 921.87 1015.61 L 918.90 1016.11 L 915.94 1016.58 L 912.99 1017.06 L 910.07 1017.56 L 907.15 1018.06 L 904.25 1018.60 L 901.36 1019.11 L 898.48 1019.60 L 895.61 1020.06 L 892.75 1020.50 L 889.88 1020.86 L 887.04 1021.25 L 884.20 1021.62 L 881.37 1021.98 L 878.55 1022.31 L 875.73 1022.59 L 872.93 1022.85 L 870.13 1023.12 L 867.34 1023.39 L 864.57 1023.66 L 861.81 1023.94 L 859.06 1024.22 L 856.32 1024.54 L 853.61 1024.89 L 850.91 1025.25 L 848.23 1025.66 L 845.55 1026.04 L 842.88 1026.45 L 840.22 1026.81 L 837.58 1027.25 L 834.96 1027.70 L 832.34 1028.14 L 829.75 1028.60 L 827.16 1029.05 L 824.59 1029.49 L 822.02 1029.94 L 819.47 1030.37 L 816.92 1030.79 L 814.38 1031.20 L 811.87 1031.64 L 809.36 1032.08 L 806.86 1032.51 L 804.38 1032.94 L 801.91 1033.41 L 799.45 1033.91 L 797.00 1034.41 L 794.55 1034.88 L 792.11 1035.39 L 789.69 1035.90 L 787.27 1036.37 L 784.87 1036.86 L 782.48 1037.34 L 780.10 1037.85 L 777.73 1038.35 L 775.37 1038.85 L 773.02 1039.35 L 770.68 1039.86" stroke="rgb(120,210,255)" stroke-opacity="0.850" stroke-width="1.62" />
  <path d="M 941.72 1011.72 L 938.35 1012.63 L 935.00 1013.52 L 931.66 1014.42 L 928.34 1015.31 L 925.02 1016.18 L 921.72 1017.06 L 918.44 1017.97 L 915.17 1018.87 L 911.92 1019.77 L 908.69 1020.71 L 905.47 1021.64 L 902.27 1022.57 L 899.08 1023.48 L 895.89 1024.32 L 892.72 1025.17 L 889.56 1026.04 L 886.42 1026.93 L 883.30 1027.87 L 880.19 1028.77 L 877.08 1029.66 L 873.97 1030.50 L 870.87 1031.34 L 867.78 1032.15 L 864.70 1032.95 L 861.63 1033.71 L 858.56 1034.42 L 855.49 1035.09 L 852.43 1035.76 L 849.38 1036.41 L 846.35 1037.08 L 843.33 1037.75 L 840.32 1038.41 L 837.32 1039.08 L 834.34 1039.74 L 831.36 1040.37 L 828.40 1041.01 L 825.44 1041.62 L 822.49 1042.23 L 819.58 1042.92 L 816.67 1043.63 L 813.78 1044.34 L 810.91 1045.06 L 808.05 1045.79 L 805.21 1046.53 L 802.38 1047.28 L 799.56 1048.04 L 796.76 1048.82 L 793.98 1049.63 L 791.22 1050.44 L 788.47 1051.28 L 785.75 1052.14 L 783.03 1053.02" stroke="rgb(120,210,255)" stroke-opacity="0.845" stroke-width="1.61" />
  <path d="M 1003.14 1001.17 L 999.94 1001.64 L 996.75 1002.06 L 993.59 1002.55 L 990.44 1003.08 L 987.30 1003.61 L 984.16 1004.06 L 981.03 1004.44 L 977.92 1004.88 L 974.82 1005.34 L 971.74 1005.86 L 968.68 1006.39 L 965.63 1006.95 L 962.59 1007.51 L 959.57 1008.08 L 956.56 1008.66 L 953.57 1009.27 L 950.59 1009.87 L 947.62 1010.48 L 944.67 1011.11 L 941.72 1011.72 L 938.79 1012.32 L 935.87 1012.93 L 932.97 1013.54 L 930.07 1014.12 L 927.18 1014.70 L 924.32 1015.33 L 921.45 1015.93 L 918.61 1016.54" stroke="rgb(120,210,255)" stroke-opacity="0.845" stroke-width="1.61" />
  <path d="M 997.48 998.88 L 994.18 999.73 L 990.90 1000.59 L 987.62 1001.43 L 984.36 1002.25 L 981.11 1003.07 L 977.89 1003.96 L 974.69 1004.88 L 971.49 1005.74 L 968.29 1006.57 L 965.13 1007.43 L 961.97 1008.28 L 958.83 1009.13 L 955.70 1009.98 L 952.57 1010.79 L 949.45 1011.59 L 946.36 1012.40 L 943.28 1013.22 L 940.21 1014.03 L 937.16 1014.87 L 934.11 1015.66 L 931.07 1016.46 L 928.05 1017.26 L 925.05 1018.07 L 922.06 1018.88 L 919.09 1019.71 L 916.13 1020.53 L 913.18 1021.36 L 910.25 1022.19 L 907.33 1023.01 L 904.43 1023.81 L 901.53 1024.58 L 898.62 1025.28 L 895.75 1026.02 L 892.89 1026.77 L 890.04 1027.50 L 887.20 1028.21 L 884.37 1028.96 L 881.55 1029.71" stroke="rgb(120,210,255)" stroke-opacity="0.843" stroke-width="1.60" />
  <path d="M 999.73 1001.09 L 996.36 1002.02 L 993.02 1002.97 L 989.69 1003.95 L 986.38 1004.95 L 983.09 1005.94 L 979.80 1006.89 L 976.52 1007.84 L 973.25 1008.78 L 970.00 1009.73 L 966.77 1010.66 L 963.54 1011.60 L 960.34 1012.55 L 957.15 1013.52 L 953.96 1014.44 L 950.78 1015.33 L 947.62 1016.22 L 944.46 1017.09 L 941.32 1017.98 L 938.19 1018.87 L 935.09 1019.78 L 931.99 1020.70 L 928.91 1021.61 L 925.84 1022.52 L 922.79 1023.44 L 919.76 1024.35 L 916.72 1025.24 L 913.72 1026.18 L 910.72 1027.11 L 907.74 1028.04 L 904.77 1028.96 L 901.81 1029.88 L 898.87 1030.81 L 895.93 1031.74 L 893.01 1032.65 L 890.10 1033.56 L 887.20 1034.47 L 884.31 1035.36 L 881.43 1036.24 L 878.57 1037.13 L 875.71 1038.02 L 872.87 1038.89 L 870.02 1039.71 L 867.18 1040.52 L 864.34 1041.28 L 861.51 1042.06 L 858.69 1042.81 L 855.87 1043.52 L 853.07 1044.23 L 850.26 1044.90 L 847.47 1045.56 L 844.68 1046.22 L 841.91 1046.88" stroke="rgb(120,210,255)" stroke-opacity="0.841" stroke-width="1.60" />
  <path d="M 1000.86 1000.97 L 997.44 1001.54 L 994.03 1002.13 L 990.65 1002.72 L 987.27 1003.30 L 983.90 1003.86 L 980.55 1004.41 L 977.21 1004.95 L 973.87 1005.46 L 970.55 1005.97 L 967.24 1006.47 L 963.94 1006.97 L 960.66 1007.46 L 957.39 1007.97 L 954.13 1008.47 L 950.89 1008.99 L 947.66 1009.50 L 944.45 1010.00 L 941.24 1010.50 L 938.05 1011.01 L 934.87 1011.47 L 931.70 1011.93 L 928.55 1012.44 L 925.41 1012.93 L 922.28 1013.40 L 919.17 1013.88 L 916.06 1014.35 L 912.96 1014.78 L 909.87 1015.17 L 906.80 1015.58 L 903.73 1015.94 L 900.67 1016.30 L 897.63 1016.66 L 894.60 1017.03 L 891.58 1017.41 L 888.58 1017.80 L 885.59 1018.18" stroke="rgb(120,210,255)" stroke-opacity="0.840" stroke-width="1.59" />
  <path d="M 1001.75 999.92 L 998.98 1000.66 L 996.21 1001.36 L 993.45 1002.04 L 990.68 1002.67 L 987.93 1003.30 L 985.20 1003.97 L 982.49 1004.67 L 979.79 1005.33 L 977.09 1006.00 L 974.40 1006.63 L 971.73 1007.29 L 969.08 1007.98 L 966.44 1008.67 L 963.80 1009.32 L 961.19 1010.03 L 958.58 1010.65 L 955.97 1011.26 L 953.37 1011.85 L 950.76 1012.40 L 948.17 1012.96 L 945.61 1013.57 L 943.07 1014.23 L 940.54 1014.89 L 938.02 1015.54 L 935.53 1016.25 L 933.02 1016.89 L 930.52 1017.50 L 928.03 1018.09 L 925.55 1018.68 L 923.08 1019.29 L 920.63 1019.92 L 918.22 1020.61 L 915.81 1021.30 L 913.44 1022.03 L 911.08 1022.75 L 908.73 1023.52 L 906.39 1024.29 L 904.08 1025.13 L 901.77 1025.92 L 899.45 1026.67 L 897.13 1027.39 L 894.81 1028.10 L 892.51 1028.82 L 890.24 1029.60 L 888.01 1030.44 L 885.80 1031.27 L 883.60 1032.11 L 881.41 1032.93 L 879.23 1033.75 L 877.05 1034.59 L 874.89 1035.43 L 872.73 1036.23 L 870.58 1037.03 L 868.44 1037.82 L 866.30 1038.60 L 864.19 1039.41 L 862.11 1040.25" stroke="rgb(120,210,255)" stroke-opacity="0.461" stroke-width="1.59" />
  <path d="M 916.84 1016.71 L 914.05 1017.45 L 911.29 1018.25 L 908.54 1019.04 L 905.81 1019.83 L 903.09 1020.66 L 900.42 1021.58 L 897.76 1022.50 L 895.14 1023.49 L 892.52 1024.45 L 889.90 1025.39 L 887.32 1026.39 L 884.71 1027.30 L 882.12 1028.20 L 879.54 1029.10 L 877.01 1030.13 L 874.50 1031.16 L 871.99 1032.18 L 869.55 1033.30 L 867.09 1034.37 L 864.67 1035.49 L 862.24 1036.54 L 859.83 1037.60 L 857.46 1038.76 L 855.11 1039.92 L 852.76 1041.06 L 850.42 1042.19 L 848.07 1043.28 L 845.74 1044.39 L 843.43 1045.49 L 841.11 1046.55 L 838.80 1047.60 L 836.49 1048.67 L 834.15 1049.64 L 831.83 1050.62 L 829.51 1051.57 L 827.20 1052.54 L 824.90 1053.49 L 822.60 1054.43 L 820.31 1055.35 L 818.02 1056.26 L 815.75 1057.19 L 813.46 1058.05 L 811.17 1058.88 L 808.88 1059.67 L 806.62 1060.52 L 804.37 1061.37 L 802.14 1062.24" stroke="rgb(120,210,255)" stroke-opacity="0.461" stroke-width="1.58" />
  <path d="M 1000.79 996.24 L 998.04 997.07 L 995.30 997.92 L 992.57 998.74 L 989.85 999.57 L 987.15 1000.39 L 984.45 1001.22 L 981.82 1002.19 L 979.21 1003.20 L 976.60 1004.19 L 974.01 1005.16 L 971.41 1006.10 L 968.85 1007.10 L 966.28 1008.05 L 963.70 1008.92 L 961.12 1009.77 L 958.55 1010.61 L 955.98 1011.42 L 953.43 1012.23 L 950.89 1013.05 L 948.37 1013.90 L 945.86 1014.75" stroke="rgb(120,210,255)" stroke-opacity="0.459" stroke-width="1.58" />
  <path d="M 887.15 1018.06 L 884.53 1019.07 L 881.92 1020.09 L 879.36 1021.20 L 876.81 1022.29 L 874.25 1023.31 L 871.69 1024.30 L 869.14 1025.29 L 866.60 1026.29 L 864.08 1027.29 L 861.57 1028.32 L 859.04 1029.27 L 856.53 1030.24 L 854.05 1031.26 L 851.52 1032.13 L 849.01 1033.02 L 846.56 1034.01 L 844.11 1034.99 L 841.67 1035.98 L 839.24 1036.97 L 836.80 1037.90 L 834.37 1038.83 L 831.92 1039.65 L 829.48 1040.47 L 827.04 1041.25 L 824.61 1042.03 L 822.16 1042.74 L 819.73 1043.48 L 817.31 1044.21 L 814.89 1044.93 L 812.49 1045.66 L 810.12 1046.43 L 807.76 1047.22 L 805.42 1048.00 L 803.08 1048.80 L 800.74 1049.54 L 798.41 1050.28 L 796.08 1051.00 L 793.76 1051.70 L 791.46 1052.43 L 789.17 1053.16 L 786.88 1053.84 L 784.62 1054.60 L 782.36 1055.34 L 780.11 1056.09 L 777.91 1056.93 L 775.70 1057.72" stroke="rgb(120,210,255)" stroke-opacity="0.455" stroke-width="1.55" />
  <path d="M 866.70 1025.51 L 864.12 1026.03 L 861.53 1026.53 L 858.95 1027.03 L 856.38 1027.53 L 853.83 1028.07 L 851.29 1028.62 L 848.79 1029.32 L 846.27 1029.95 L 843.77 1030.50 L 841.29 1031.05 L 838.80 1031.62 L 836.35 1032.24 L 833.88 1032.80 L 831.43 1033.40 L 829.01 1034.03 L 826.60 1034.64 L 824.17 1035.19 L 821.75 1035.68 L 819.33 1036.13 L 816.91 1036.60 L 814.50 1037.05 L 812.11 1037.49 L 809.74 1037.96 L 807.38 1038.41 L 805.04 1038.92 L 802.68 1039.36 L 800.34 1039.80 L 798.00 1040.30 L 795.68 1040.79 L 793.37 1041.31 L 791.07 1041.82 L 788.80 1042.38 L 786.54 1042.99 L 784.30 1043.62 L 782.07 1044.27 L 779.80 1044.76 L 777.54 1045.22 L 775.27 1045.63 L 773.03 1046.04 L 770.80 1046.53 L 768.58 1047.04 L 766.38 1047.55 L 764.17 1048.02" stroke="rgb(120,210,255)" stroke-opacity="0.455" stroke-width="1.55" />
  <path d="M 1001.61 999.11 L 999.10 999.97 L 996.59 1000.78 L 994.08 1001.54 L 991.57 1002.29 L 989.06 1002.95 L 986.54 1003.57 L 984.06 1004.21 L 981.59 1004.84 L 979.13 1005.50 L 976.67 1006.13 L 974.21 1006.74 L 971.76 1007.38 L 969.33 1008.02 L 966.92 1008.65 L 964.51 1009.31 L 962.09 1009.92 L 959.69 1010.54 L 957.29 1011.15 L 954.91 1011.80 L 952.54 1012.43 L 950.16 1012.97 L 947.80 1013.52 L 945.44 1014.08 L 943.08 1014.60 L 940.74 1015.16 L 938.42 1015.76 L 936.11 1016.35 L 933.81 1016.95 L 931.52 1017.54 L 929.22 1018.08 L 926.94 1018.64 L 924.67 1019.22 L 922.42 1019.80 L 920.17 1020.36 L 917.92 1020.92 L 915.69 1021.49 L 913.49 1022.11 L 911.29 1022.72 L 909.11 1023.37 L 906.94 1024.03 L 904.79 1024.70 L 902.65 1025.37 L 900.51 1026.04 L 898.38 1026.70 L 896.26 1027.32 L 894.14 1027.94 L 892.03 1028.56 L 889.93 1029.18 L 887.83 1029.79 L 885.76 1030.42 L 883.67 1030.99 L 881.58 1031.55 L 879.52 1032.14 L 877.47 1032.75" stroke="rgb(120,210,255)" stroke-opacity="0.452" stroke-width="1.54" />
  <path d="M 862.26 1035.33 L 860.36 1036.40 L 858.46 1037.46 L 856.49 1038.39 L 854.54 1039.33 L 852.62 1040.31 L 850.77 1041.40 L 848.94 1042.49" stroke="rgb(140,255,190)" stroke-opacity="0.575" stroke-width="1.26" />
  <path d="M 1004.12 998.42 L 1000.94 998.18 L 997.79 997.89 L 994.65 997.62 L 991.54 997.34 L 988.43 997.06 L 985.33 996.79 L 982.25 996.52 L 979.18 996.33 L 976.12 996.14 L 973.09 995.96 L 970.04 995.82 L 967.00 995.68 L 963.97 995.54 L 960.96 995.40 L 957.93 995.29 L 954.91 995.16 L 951.91 994.99 L 948.91 994.82 L 945.93 994.63 L 942.95 994.44 L 939.97 994.24 L 937.01 994.06 L 934.06 993.87 L 931.12 993.67 L 928.19 993.46 L 925.27 993.26 L 922.36 993.05 L 919.46 992.85 L 916.57 992.70 L 913.69 992.54 L 910.83 992.38 L 907.99 992.23 L 905.15 992.08 L 902.33 991.92 L 899.52 991.73 L 896.70 991.50 L 893.90 991.28 L 891.11 991.07 L 888.33 990.86 L 885.55 990.67 L 882.78 990.47 L 880.02 990.23 L 877.27 989.99 L 874.54 989.76 L 871.82 989.51 L 869.12 989.24 L 866.42 988.96 L 863.74 988.66 L 861.07 988.36 L 858.41 988.05 L 855.76 987.73 L 853.12 987.40 L 850.49 987.09 L 847.88 986.77 L 845.29 986.42 L 842.71 986.07 L 840.14 985.72" stroke="rgb(205,165,255)" stroke-opacity="0.721" stroke-width="1.24" />
  <path d="M 1002.28 999.30 L 1000.18 1000.07 L 998.09 1000.84 L 996.02 1001.68 L 993.97 1002.52 L 991.95 1003.39 L 989.93 1004.26 L 987.90 1005.09 L 985.91 1005.98 L 983.99 1006.99 L 982.09 1008.01 L 980.20 1009.01 L 978.32 1010.05 L 976.43 1011.03 L 974.55 1012.02 L 972.69 1013.03 L 970.78 1013.92 L 968.86 1014.80 L 966.98 1015.71 L 965.10 1016.62 L 963.23 1017.53 L 961.36 1018.40 L 959.50 1019.24 L 957.62 1020.03 L 955.75 1020.85 L 953.87 1021.58 L 951.98 1022.28 L 950.13 1023.06 L 948.26 1023.79 L 946.39 1024.49 L 944.54 1025.21 L 942.69 1025.93 L 940.82 1026.56 L 938.96 1027.20 L 937.11 1027.83 L 935.24 1028.39 L 933.38 1028.94" stroke="rgb(140,255,190)" stroke-opacity="0.567" stroke-width="1.23" />
  <path d="M 1000.25 1000.72 L 996.94 1001.67 L 993.64 1002.61 L 990.34 1003.48 L 987.05 1004.34 L 983.77 1005.20 L 980.51 1006.07 L 977.26 1006.91 L 974.02 1007.72 L 970.78 1008.53 L 967.57 1009.36 L 964.36 1010.16 L 961.18 1011.02 L 958.01 1011.88 L 954.86 1012.73 L 951.72 1013.60 L 948.59 1014.45 L 945.48 1015.30 L 942.37 1016.08 L 939.28 1016.86 L 936.21 1017.70 L 933.15 1018.53 L 930.11 1019.36 L 927.07 1020.17 L 924.04 1020.96 L 921.02 1021.75 L 918.00 1022.48 L 914.99 1023.21 L 912.01 1024.00 L 909.03 1024.77 L 906.07 1025.55 L 903.12 1026.32 L 900.18 1027.11 L 897.26 1027.89 L 894.35 1028.66 L 891.45 1029.43 L 888.55 1030.19 L 885.67 1030.94 L 882.80 1031.68 L 879.93 1032.38 L 877.07 1033.06 L 874.22 1033.75 L 871.39 1034.50 L 868.58 1035.27 L 865.78 1036.00 L 862.99 1036.73 L 860.21 1037.45 L 857.44 1038.19 L 854.69 1038.93 L 851.95 1039.66 L 849.21 1040.39 L 846.49 1041.10 L 843.77 1041.81 L 841.06 1042.53 L 838.37 1043.26 L 835.70 1044.01 L 833.06 1044.84 L 830.44 1045.69 L 827.83 1046.53 L 825.23 1047.36 L 822.63 1048.18 L 820.05 1049.01 L 817.47 1049.79 L 814.89 1050.57 L 812.33 1051.33 L 809.77 1052.11 L 807.23 1052.87 L 804.69 1053.62 L 802.16 1054.34 L 799.63 1055.03 L 797.13 1055.80 L 794.64 1056.57 L 792.17 1057.35 L 789.71 1058.13 L 787.25 1058.88 L 784.80 1059.63 L 782.36 1060.37" stroke="rgb(140,255,190)" stroke-opacity="0.739" stroke-width="1.19" />
  <path d="M 923.36 1014.09 L 920.19 1014.76 L 917.04 1015.37 L 913.90 1015.97 L 910.78 1016.62 L 907.62 1017.23 L 904.47 1017.83 L 901.34 1018.45 L 898.21 1019.06 L 895.09 1019.65 L 891.96 1020.22 L 888.82 1020.71 L 885.72 1021.23 L 882.64 1021.76 L 879.57 1022.25 L 876.53 1022.76 L 873.50 1023.26 L 870.49 1023.75 L 867.49 1024.22 L 864.51 1024.72 L 861.54 1025.22" stroke="rgb(140,255,190)" stroke-opacity="0.738" stroke-width="1.19" />
  <path d="M 998.47 998.70 L 995.14 999.24 L 991.81 999.79 L 988.52 1000.35 L 985.23 1000.88 L 981.96 1001.41 L 978.71 1001.90 L 975.47 1002.42 L 972.25 1002.93 L 969.04 1003.44 L 965.84 1003.92 L 962.66 1004.41 L 959.49 1004.90 L 956.33 1005.36 L 953.18 1005.82 L 950.05 1006.30 L 946.93 1006.77 L 943.82 1007.23 L 940.72 1007.69 L 937.63 1008.16 L 934.58 1008.64 L 931.53 1009.12 L 928.50 1009.59 L 925.48 1010.11 L 922.48 1010.58 L 919.48 1011.05 L 916.50 1011.52 L 913.53 1011.99 L 910.57 1012.45 L 907.62 1012.92 L 904.69 1013.34 L 901.76 1013.79 L 898.84 1014.25 L 895.95 1014.74 L 893.08 1015.24 L 890.21 1015.70 L 887.35 1016.16 L 884.51 1016.57 L 881.67 1016.97 L 878.86 1017.44 L 876.05 1017.92 L 873.26 1018.40" stroke="rgb(140,255,190)" stroke-opacity="0.738" stroke-width="1.19" />
  <path d="M 883.67 1045.62 L 880.74 1047.37 L 877.81 1049.09 L 874.90 1050.81 L 871.99 1052.52 L 869.10 1054.22 L 866.23 1055.92 L 863.32 1057.55 L 860.42 1059.16 L 857.54 1060.76 L 854.67 1062.38 L 851.80 1063.97 L 848.99 1065.63 L 846.20 1067.30 L 843.42 1068.98 L 840.67 1070.65 L 837.92 1072.33 L 835.19 1074.00 L 832.47 1075.66 L 829.77 1077.33 L 827.09 1078.99 L 824.39 1080.62 L 821.71 1082.23 L 819.03 1083.84 L 816.38 1085.47 L 813.73 1087.06 L 811.06 1088.60 L 808.36 1090.04 L 805.67 1091.48 L 802.99 1092.92 L 800.29 1094.31 L 797.61 1095.69 L 794.96 1097.12 L 792.29 1098.49 L 789.62 1099.84 L 786.92 1101.08 L 784.22 1102.31" stroke="rgb(140,255,190)" stroke-opacity="0.737" stroke-width="1.19" />
  <path d="M 967.04 1010.33 L 964.99 1011.16 L 962.98 1012.06 L 961.02 1012.90 L 959.08 1013.80 L 957.15 1014.63 L 955.28 1015.60 L 953.35 1016.47 L 951.51 1017.45 L 949.65 1018.37 L 947.88 1019.35 L 946.12 1020.34 L 944.35 1021.31" stroke="rgb(140,255,190)" stroke-opacity="0.551" stroke-width="1.18" />
  <path d="M 1000.70 999.13 L 997.28 999.47 L 993.87 999.82 L 990.47 1000.20 L 987.09 1000.58 L 983.73 1000.99 L 980.38 1001.37" stroke="rgb(140,255,190)" stroke-opacity="0.733" stroke-width="1.18" />
  <path d="M 925.34 1023.84 L 922.33 1025.46 L 919.31 1027.02 L 916.29 1028.57 L 913.29 1030.13 L 910.28 1031.64 L 907.30 1033.18 L 904.33 1034.72 L 901.37 1036.24 L 898.44 1037.79 L 895.51 1039.32 L 892.61 1040.86 L 889.73 1042.41 L 886.86 1043.96 L 883.99 1045.48 L 881.14 1047.02 L 878.31 1048.55 L 875.49 1050.08 L 872.69 1051.62 L 869.94 1053.23 L 867.20 1054.84 L 864.49 1056.47 L 861.79 1058.09 L 859.11 1059.72 L 856.44 1061.35 L 853.79 1062.98 L 851.15 1064.61 L 848.53 1066.23 L 845.91 1067.85 L 843.30 1069.45 L 840.69 1071.04 L 838.11 1072.62 L 835.50 1074.16 L 832.89 1075.65 L 830.30 1077.15 L 827.73 1078.67 L 825.17 1080.19 L 822.64 1081.71 L 820.12 1083.24 L 817.60 1084.76 L 815.09 1086.27 L 812.57 1087.74 L 810.06 1089.19 L 807.56 1090.65 L 805.08 1092.10 L 802.59 1093.54 L 800.12 1094.96 L 797.65 1096.38 L 795.18 1097.77 L 792.71 1099.13 L 790.27 1100.52 L 787.83 1101.89 L 785.43 1103.30 L 783.04 1104.71 L 780.65 1106.10 L 778.28 1107.50 L 775.96 1108.97 L 773.65 1110.42 L 771.35 1111.87 L 769.06 1113.31 L 766.79 1114.77 L 764.53 1116.23 L 762.31 1117.73 L 760.09 1119.21 L 757.89 1120.70 L 755.69 1122.17 L 753.51 1123.64 L 751.33 1125.10 L 749.19 1126.59 L 747.06 1128.09 L 744.92 1129.51 L 742.78 1130.94" stroke="rgb(140,255,190)" stroke-opacity="0.730" stroke-width="1.17" />
  <path d="M 998.80 1002.12 L 1001.72 1003.17 L 1004.66 1004.20 L 1007.55 1005.17 L 1010.43 1006.14 L 1013.31 1007.11 L 1016.17 1008.07 L 1019.01 1009.03 L 1021.84 1009.97 L 1024.65 1010.97 L 1027.44 1011.95 L 1030.23 1012.89 L 1033.05 1013.81 L 1035.84 1014.77 L 1038.64 1015.71 L 1041.41 1016.65 L 1044.18 1017.64 L 1046.93 1018.61 L 1049.67 1019.64 L 1052.43 1020.59 L 1055.18 1021.53 L 1057.92 1022.47 L 1060.65 1023.41 L 1063.36 1024.33 L 1066.06 1025.24 L 1068.76 1026.13 L 1071.44 1027.01 L 1074.14 1027.84 L 1076.85 1028.68 L 1079.53 1029.54 L 1082.21 1030.36 L 1084.88 1031.13 L 1087.53 1031.87 L 1090.16 1032.60 L 1092.78 1033.35 L 1095.39 1034.10 L 1097.98 1034.83 L 1100.57 1035.54 L 1103.15 1036.27 L 1105.71 1036.99 L 1108.23 1037.73 L 1110.75 1038.46 L 1113.25 1039.22 L 1115.74 1039.99 L 1118.23 1040.74 L 1120.72 1041.49 L 1123.21 1042.24 L 1125.68 1042.98 L 1128.16 1043.66 L 1130.61 1044.31 L 1133.07 1044.94 L 1135.51 1045.57 L 1137.93 1046.21 L 1140.34 1046.85 L 1142.75 1047.45 L 1145.16 1048.10 L 1147.57 1048.75 L 1149.96 1049.40 L 1152.33 1050.09 L 1154.68 1050.80 L 1157.03 1051.49 L 1159.39 1052.14 L 1161.72 1052.79 L 1164.07 1053.42 L 1166.40 1054.08 L 1168.72 1054.74 L 1171.02 1055.40 L 1173.32 1056.07 L 1175.59 1056.70 L 1177.85 1057.33 L 1180.10 1057.96 L 1182.37 1058.53 L 1184.60 1059.11 L 1186.83 1059.69 L 1189.04 1060.27 L 1191.25 1060.83 L 1193.45 1061.42 L 1195.63 1062.01 L 1197.81 1062.58 L 1199.98 1063.15 L 1202.13 1063.72 L 1204.28 1064.29 L 1206.43 1064.83 L 1208.57 1065.32" stroke="rgb(140,255,190)" stroke-opacity="0.728" stroke-width="1.17" />
  <path d="M 998.67 1000.61 L 996.55 1002.02 L 994.45 1003.37 L 992.34 1004.70 L 990.25 1006.01 L 988.17 1007.31 L 986.08 1008.60 L 984.06 1009.94 L 982.03 1011.26 L 980.02 1012.62 L 978.02 1013.99" stroke="rgb(205,165,255)" stroke-opacity="0.483" stroke-width="1.16" />
  <path d="M 880.76 1030.87 L 877.94 1032.54 L 875.13 1034.19 L 872.32 1035.82 L 869.50 1037.44 L 866.70 1039.05 L 863.90 1040.66 L 861.13 1042.27 L 858.37 1043.89 L 855.63 1045.52 L 852.87 1047.09 L 850.15 1048.71 L 847.46 1050.34 L 844.77 1051.97 L 842.09 1053.58 L 839.42 1055.18 L 836.80 1056.82 L 834.21 1058.48 L 831.60 1060.08 L 828.97 1061.63 L 826.35 1063.17 L 823.72 1064.67 L 821.09 1066.16 L 818.45 1067.59 L 815.83 1069.03 L 813.22 1070.42 L 810.61 1071.80 L 808.01 1073.18 L 805.43 1074.59 L 802.86 1075.99 L 800.31 1077.42 L 797.78 1078.86 L 795.28 1080.33 L 792.77 1081.79 L 790.24 1083.21 L 787.75 1084.66 L 785.26 1086.11 L 782.76 1087.51 L 780.25 1088.85 L 777.74 1090.19 L 775.24 1091.54 L 772.75 1092.88 L 770.26 1094.21 L 767.79 1095.53 L 765.32 1096.85 L 762.87 1098.17 L 760.42 1099.48 L 757.98 1100.78 L 755.55 1102.07 L 753.11 1103.32 L 750.70 1104.60 L 748.31 1105.88 L 745.98 1107.24 L 743.66 1108.59 L 741.35 1109.95 L 739.04 1111.32 L 736.75 1112.69 L 734.47 1114.02 L 732.23 1115.40 L 730.00 1116.79 L 727.76 1118.12 L 725.50 1119.40 L 723.27 1120.70 L 721.06 1122.02 L 718.86 1123.34 L 716.70 1124.69 L 714.54 1126.04 L 712.40 1127.37 L 710.26 1128.72 L 708.11 1130.03 L 705.96 1131.35 L 703.83 1132.68 L 701.72 1134.01 L 699.61 1135.34 L 697.51 1136.65 L 695.41 1137.94 L 693.33 1139.25 L 691.25 1140.54 L 689.17 1141.79 L 687.12 1143.08 L 685.07 1144.36" stroke="rgb(140,255,190)" stroke-opacity="0.727" stroke-width="1.16" />
  <path d="M 1001.35 997.60 L 1001.05 1000.31 L 1000.78 1003.04 L 1000.45 1005.72 L 1000.15 1008.39 L 999.85 1011.04 L 999.47 1013.70 L 999.07 1016.34 L 998.79 1018.97 L 998.51 1021.59 L 998.20 1024.22 L 997.98 1026.83 L 997.74 1029.43 L 997.46 1032.00 L 997.20 1034.56 L 996.93 1037.10 L 996.69 1039.61 L 996.44 1042.12 L 996.20 1044.62 L 995.94 1047.10 L 995.68 1049.57 L 995.46 1052.01 L 995.23 1054.44 L 994.98 1056.83 L 994.73 1059.21 L 994.52 1061.58 L 994.31 1063.93 L 994.15 1066.24 L 993.92 1068.52 L 993.69 1070.78 L 993.47 1073.04 L 993.27 1075.28 L 993.07 1077.51 L 992.88 1079.74" stroke="rgb(205,165,255)" stroke-opacity="0.482" stroke-width="1.16" />
  <path d="M 1001.44 1001.76 L 998.25 1002.66 L 995.05 1003.54 L 991.87 1004.40 L 988.69 1005.24 L 985.52 1006.02 L 982.35 1006.79 L 979.19 1007.54 L 976.03 1008.19 L 972.88 1008.84 L 969.75 1009.50 L 966.62 1010.17 L 963.50 1010.79 L 960.39 1011.42 L 957.29 1012.04 L 954.19 1012.63 L 951.10 1013.17 L 948.03 1013.70 L 944.96 1014.24 L 941.91 1014.78 L 938.87 1015.26" stroke="rgb(140,255,190)" stroke-opacity="0.725" stroke-width="1.16" />
  <path d="M 943.85 1012.14 L 940.73 1011.79 L 937.63 1011.39 L 934.53 1010.99 L 931.46 1010.53 L 928.41 1010.04 L 925.36 1009.59 L 922.33 1009.08 L 919.32 1008.60 L 916.31 1008.12 L 913.31 1007.68 L 910.31 1007.33 L 907.32 1007.02 L 904.34 1006.73 L 901.37 1006.43 L 898.42 1006.11 L 895.47 1005.82 L 892.53 1005.57 L 889.61 1005.31 L 886.69 1005.14 L 883.78 1004.99 L 880.88 1004.82 L 878.00 1004.63 L 875.13 1004.46 L 872.27 1004.27 L 869.43 1004.12 L 866.60 1003.97 L 863.78 1003.79 L 860.97 1003.61 L 858.17 1003.42 L 855.39 1003.20 L 852.62 1002.92 L 849.86 1002.63 L 847.11 1002.34 L 844.37 1002.07 L 841.64 1001.77 L 838.92 1001.52 L 836.21 1001.30 L 833.51 1001.09 L 830.83 1000.85 L 828.16 1000.57 L 825.49 1000.31 L 822.84 1000.03 L 820.20 999.78 L 817.57 999.52 L 814.95 999.25 L 812.33 999.01 L 809.73 998.78 L 807.14 998.54 L 804.55 998.43 L 801.97 998.33 L 799.40 998.22 L 796.84 998.11 L 794.29 997.97 L 791.75 997.85 L 789.22 997.80 L 786.70 997.75 L 784.19 997.73 L 781.69 997.67 L 779.20 997.67 L 776.72 997.67 L 774.25 997.65 L 771.79 997.66 L 769.34 997.66 L 766.90 997.68 L 764.47 997.69 L 762.05 997.70 L 759.63 997.70 L 757.23 997.72 L 754.85 997.80 L 752.48 997.88" stroke="rgb(140,255,190)" stroke-opacity="0.718" stroke-width="1.14" />
  <path d="M 997.18 1002.11 L 994.12 1002.84 L 991.08 1003.61 L 988.05 1004.39 L 985.04 1005.19 L 982.07 1006.05 L 979.12 1006.96 L 976.17 1007.86 L 973.25 1008.75 L 970.32 1009.62 L 967.43 1010.55 L 964.54 1011.45 L 961.67 1012.38 L 958.80 1013.25 L 955.94 1014.11 L 953.08 1014.97 L 950.26 1015.87 L 947.45 1016.77 L 944.64 1017.66 L 941.85 1018.54 L 939.06 1019.43 L 936.29 1020.30 L 933.53 1021.16 L 930.78 1022.04 L 928.05 1022.93 L 925.34 1023.84 L 922.63 1024.74 L 919.95 1025.66 L 917.29 1026.61 L 914.66 1027.61 L 912.03 1028.58" stroke="rgb(140,255,190)" stroke-opacity="0.717" stroke-width="1.14" />
  <path d="M 998.22 1000.75 L 995.13 1001.54 L 992.06 1002.40 L 989.01 1003.25 L 985.96 1004.07 L 982.93 1004.87 L 979.91 1005.68 L 976.87 1006.41 L 973.85 1007.11 L 970.82 1007.74 L 967.79 1008.36 L 964.79 1008.99 L 961.79 1009.60 L 958.78 1010.09 L 955.77 1010.55 L 952.78 1010.97 L 949.79 1011.37 L 946.82 1011.76 L 943.85 1012.14 L 940.89 1012.44 L 937.94 1012.74 L 935.00 1013.03 L 932.07 1013.31 L 929.16 1013.59 L 926.26 1013.87 L 923.36 1014.09 L 920.48 1014.32 L 917.61 1014.57 L 914.75 1014.82 L 911.90 1015.04 L 909.06 1015.22 L 906.23 1015.41 L 903.41 1015.60 L 900.60 1015.73 L 897.80 1015.78 L 895.02 1015.88" stroke="rgb(140,255,190)" stroke-opacity="0.716" stroke-width="1.13" />
  <path d="M 923.36 1014.09 L 920.99 1013.89 L 918.63 1013.61 L 916.27 1013.29 L 913.95 1013.00 L 911.64 1012.71 L 909.33 1012.44 L 907.04 1012.21 L 904.76 1012.09 L 902.50 1011.96 L 900.23 1011.79 L 897.97 1011.62 L 895.69 1011.49 L 893.42 1011.33 L 891.20 1011.09 L 888.97 1010.84 L 886.76 1010.60 L 884.54 1010.34 L 882.33 1010.05 L 880.11 1009.73 L 877.89 1009.51 L 875.67 1009.37 L 873.45 1009.22 L 871.24 1009.02 L 869.05 1008.84 L 866.87 1008.61 L 864.66 1008.39 L 862.46 1008.15 L 860.26 1007.90 L 858.07 1007.62 L 855.89 1007.40 L 853.71 1007.20 L 851.55 1006.99 L 849.39 1006.80 L 847.24 1006.55 L 845.10 1006.34 L 842.96 1006.24 L 840.83 1006.12 L 838.71 1006.05 L 836.61 1006.00 L 834.51 1005.95 L 832.43 1005.97 L 830.36 1006.02 L 828.32 1005.90 L 826.29 1005.81" stroke="rgb(140,255,190)" stroke-opacity="0.536" stroke-width="1.13" />
  <path d="M 998.98 1000.07 L 996.17 1000.71 L 993.37 1001.34 L 990.60 1001.96 L 987.86 1002.67 L 985.13 1003.41 L 982.42 1004.19 L 979.71 1004.92 L 977.00 1005.68 L 974.30 1006.43 L 971.62 1007.25 L 968.95 1008.07 L 966.29 1008.87 L 963.63 1009.63 L 960.96 1010.36 L 958.31 1011.08 L 955.63 1011.69 L 952.94 1012.32 L 950.26 1012.94 L 947.59 1013.57 L 944.94 1014.19 L 942.30 1014.81 L 939.69 1015.42 L 937.10 1016.09 L 934.50 1016.67 L 931.89 1017.25 L 929.30 1017.83 L 926.73 1018.46" stroke="rgb(140,255,190)" stroke-opacity="0.536" stroke-width="1.13" />
  <path d="M 1001.43 998.96 L 998.43 999.75 L 995.44 1000.59 L 992.47 1001.45 L 989.52 1002.29 L 986.58 1003.13 L 983.64 1003.93 L 980.73 1004.77 L 977.83 1005.60 L 974.95 1006.45 L 972.09 1007.33 L 969.25 1008.20 L 966.42 1009.06 L 963.59 1009.92 L 960.75 1010.72 L 957.91 1011.49 L 955.08 1012.28 L 952.26 1013.05 L 949.44 1013.82 L 946.63 1014.56 L 943.83 1015.26 L 941.04 1015.98 L 938.25 1016.63 L 935.47 1017.24 L 932.69 1017.85 L 929.93 1018.47 L 927.18 1019.08 L 924.45 1019.72 L 921.73 1020.35 L 919.04 1021.03 L 916.37 1021.72 L 913.70 1022.41" stroke="rgb(140,255,190)" stroke-opacity="0.714" stroke-width="1.13" />
  <path d="M 838.71 1006.05 L 836.19 1006.82 L 833.66 1007.59 L 831.13 1008.34 L 828.66 1009.07 L 826.19 1009.80 L 823.69 1010.50 L 821.19 1011.18 L 818.71 1011.87 L 816.23 1012.56 L 813.72 1013.32 L 811.26 1014.15 L 808.78 1014.97 L 806.28 1015.81 L 803.83 1016.67 L 801.41 1017.43 L 798.99 1018.17 L 796.64 1018.78 L 794.27 1019.48 L 791.94 1020.20 L 789.61 1020.91 L 787.33 1021.59 L 785.02 1022.37 L 782.73 1023.18 L 780.45 1023.98 L 778.17 1024.79 L 775.90 1025.59 L 773.65 1026.37 L 771.39 1027.15 L 769.13 1027.99 L 766.89 1028.80 L 764.60 1029.59" stroke="rgb(140,255,190)" stroke-opacity="0.535" stroke-width="1.13" />
  <path d="M 1000.06 1002.95 L 997.73 1004.18 L 995.41 1005.42 L 993.15 1006.76 L 990.93 1008.17 L 988.71 1009.57 L 986.50 1010.93 L 984.29 1012.27 L 982.06 1013.58 L 979.86 1014.90 L 977.66 1016.22 L 975.53 1017.61 L 973.39 1018.97 L 971.23 1020.30 L 969.15 1021.72 L 967.08 1023.15 L 964.94 1024.44 L 962.76 1025.65 L 960.60 1026.88" stroke="rgb(205,165,255)" stroke-opacity="0.474" stroke-width="1.13" />
  <path d="M 997.26 1001.24 L 994.34 1002.01 L 991.42 1002.70 L 988.51 1003.40 L 985.58 1004.00 L 982.67 1004.59 L 979.78 1005.20 L 976.90 1005.82 L 974.02 1006.40 L 971.15 1006.94 L 968.28 1007.48" stroke="rgb(140,255,190)" stroke-opacity="0.534" stroke-width="1.12" />
  <path d="M 999.86 1000.10 L 996.91 1000.53 L 993.98 1001.00 L 991.05 1001.47 L 988.15 1001.96 L 985.25 1002.42 L 982.37 1002.91 L 979.50 1003.41 L 976.64 1003.91 L 973.80 1004.40 L 970.97 1004.91 L 968.14 1005.40 L 965.34 1005.91 L 962.54 1006.42 L 959.77 1006.94 L 957.00 1007.46 L 954.24 1007.97 L 951.49 1008.48 L 948.76 1009.01 L 946.05 1009.53 L 943.33 1009.99 L 940.62 1010.47 L 937.93 1010.98 L 935.26 1011.46 L 932.58 1011.91 L 929.91 1012.32 L 927.25 1012.73 L 924.59 1013.13 L 921.95 1013.49 L 919.31 1013.87 L 916.69 1014.23 L 914.07 1014.61 L 911.47 1015.04 L 908.88 1015.46 L 906.30 1015.90 L 903.72 1016.32 L 901.16 1016.72 L 898.61 1017.11 L 896.06 1017.48 L 893.53 1017.84 L 891.00 1018.20 L 888.48 1018.55 L 885.97 1018.89 L 883.47 1019.22 L 880.98 1019.53 L 878.49 1019.80 L 876.01 1020.06 L 873.54 1020.37 L 871.09 1020.70 L 868.65 1021.04 L 866.22 1021.38 L 863.80 1021.75" stroke="rgb(140,255,190)" stroke-opacity="0.531" stroke-width="1.11" />
  <path d="M 999.35 1000.18 L 996.50 1000.84 L 993.65 1001.48 L 990.82 1002.12 L 988.02 1002.88 L 985.24 1003.64 L 982.46 1004.37 L 979.71 1005.13 L 976.95 1005.83 L 974.18 1006.49 L 971.44 1007.12 L 968.72 1007.78 L 966.02 1008.45 L 963.33 1009.08 L 960.67 1009.81 L 958.03 1010.58 L 955.45 1011.40 L 952.84 1012.19 L 950.23 1012.93 L 947.63 1013.67 L 945.06 1014.48 L 942.49 1015.25 L 939.92 1016.01 L 937.36 1016.72 L 934.81 1017.44 L 932.27 1018.12 L 929.72 1018.79 L 927.19 1019.40 L 924.65 1020.01 L 922.12 1020.60 L 919.61 1021.24 L 917.11 1021.91 L 914.64 1022.60 L 912.17 1023.29 L 909.70 1023.95 L 907.23 1024.61 L 904.76 1025.23 L 902.30 1025.80 L 899.83 1026.36 L 897.41 1026.96 L 895.00 1027.53 L 892.60 1028.09 L 890.22 1028.63 L 887.84 1029.19 L 885.47 1029.72 L 883.12 1030.30 L 880.76 1030.87 L 878.41 1031.44 L 876.09 1032.02 L 873.77 1032.58 L 871.46 1033.16 L 869.15 1033.72 L 866.84 1034.23 L 864.55 1034.78 L 862.26 1035.33 L 859.98 1035.87 L 857.70 1036.37 L 855.44 1036.89 L 853.18 1037.34 L 850.90 1037.75 L 848.64 1038.16 L 846.38 1038.52 L 844.12 1038.89 L 841.86 1039.25 L 839.62 1039.62 L 837.39 1040.04 L 835.18 1040.56 L 832.98 1041.08 L 830.76 1041.52 L 828.55 1041.90 L 826.34 1042.28 L 824.14 1042.66 L 821.95 1043.04 L 819.79 1043.44 L 817.63 1043.84 L 815.48 1044.27 L 813.34 1044.71" stroke="rgb(140,255,190)" stroke-opacity="0.530" stroke-width="1.11" />
  <path d="M 999.47 999.38 L 997.03 1000.11 L 994.61 1000.87 L 992.21 1001.64 L 989.84 1002.42 L 987.46 1003.14 L 985.08 1003.83 L 982.71 1004.49 L 980.40 1005.26 L 978.12 1006.07 L 975.83 1006.82 L 973.61 1007.68 L 971.39 1008.54 L 969.18 1009.41 L 967.04 1010.33 L 964.92 1011.25 L 962.80 1012.16 L 960.72 1013.12 L 958.69 1014.15 L 956.60 1015.10 L 954.54 1016.06 L 952.48 1016.99 L 950.44 1017.93 L 948.41 1018.88 L 946.37 1019.82 L 944.34 1020.76 L 942.31 1021.66 L 940.29 1022.56 L 938.29 1023.45 L 936.31 1024.36 L 934.32 1025.32 L 932.34 1026.27 L 930.37 1027.20 L 928.42 1028.14 L 926.47 1029.05 L 924.51 1029.95 L 922.57 1030.83 L 920.64 1031.72 L 918.66 1032.52 L 916.65 1033.32 L 914.67 1034.14 L 912.67 1034.92 L 910.68 1035.71 L 908.70 1036.52 L 906.72 1037.32 L 904.74 1038.07 L 902.74 1038.75 L 900.73 1039.38 L 898.76 1040.07 L 896.80 1040.75 L 894.88 1041.42 L 892.95 1042.00 L 891.03 1042.59 L 889.14 1043.29 L 887.30 1044.04 L 885.48 1044.86 L 883.67 1045.62 L 881.87 1046.38 L 880.05 1047.14 L 878.23 1047.92" stroke="rgb(140,255,190)" stroke-opacity="0.530" stroke-width="1.11" />
  <path d="M 963.94 1012.08 L 961.48 1013.35 L 959.06 1014.71 L 956.62 1016.02 L 954.23 1017.37 L 951.85 1018.72 L 949.52 1020.08 L 947.14 1021.45 L 944.74 1022.80 L 942.37 1024.16 L 940.02 1025.55 L 937.73 1027.02 L 935.44 1028.46 L 933.13 1029.85 L 930.89 1031.35 L 928.68 1032.86 L 926.49 1034.39 L 924.30 1035.90 L 922.10 1037.38 L 919.91 1038.85 L 917.75 1040.33 L 915.63 1041.87" stroke="rgb(140,255,190)" stroke-opacity="0.529" stroke-width="1.11" />
  <path d="M 881.67 1016.97 L 879.66 1018.45 L 877.82 1020.09 L 875.96 1021.72 L 874.11 1023.36 L 872.24 1024.97 L 870.39 1026.57 L 868.61 1028.20 L 866.82 1029.81 L 865.00 1031.38 L 863.14 1032.82 L 861.27 1034.18 L 859.53 1035.69 L 857.80 1037.17 L 856.11 1038.72 L 854.48 1040.24 L 852.84 1041.75 L 851.21 1043.30 L 849.60 1044.86 L 847.99 1046.41 L 846.38 1047.91 L 844.81 1049.52 L 843.24 1051.12 L 841.67 1052.71 L 840.16 1054.35 L 838.69 1056.00 L 837.16 1057.63" stroke="rgb(140,255,190)" stroke-opacity="0.528" stroke-width="1.10" />
  <path d="M 999.22 997.92 L 996.59 998.87 L 993.98 999.84 L 991.38 1000.80 L 988.80 1001.77 L 986.22 1002.70 L 983.65 1003.64 L 981.09 1004.59 L 978.60 1005.64 L 976.11 1006.68 L 973.67 1007.79 L 971.23 1008.88 L 968.79 1009.96 L 966.35 1011.00 L 963.94 1012.08 L 961.56 1013.20 L 959.18 1014.32 L 956.81 1015.40 L 954.41 1016.42 L 952.03 1017.43 L 949.64 1018.43 L 947.26 1019.40 L 944.90 1020.40 L 942.55 1021.41 L 940.20 1022.39 L 937.87 1023.39 L 935.58 1024.45 L 933.34 1025.58 L 931.17 1026.80 L 929.01 1028.02 L 926.86 1029.23 L 924.71 1030.41 L 922.54 1031.55 L 920.36 1032.61 L 918.13 1033.57 L 915.91 1034.51 L 913.70 1035.47 L 911.50 1036.42 L 909.35 1037.47 L 907.21 1038.50 L 905.07 1039.55 L 902.95 1040.62 L 900.83 1041.67" stroke="rgb(140,255,190)" stroke-opacity="0.527" stroke-width="1.10" />
  <path d="M 998.22 999.78 L 996.04 1001.20 L 993.84 1002.58 L 991.64 1003.94 L 989.40 1005.22 L 987.18 1006.55 L 984.98 1007.89 L 982.79 1009.22 L 980.61 1010.56 L 978.43 1011.87 L 976.29 1013.21 L 974.16 1014.54 L 972.14 1016.01 L 970.12 1017.47 L 968.16 1018.97 L 966.23 1020.49 L 964.28 1021.98 L 962.39 1023.51 L 960.43 1024.96 L 958.50 1026.43 L 956.62 1027.95 L 954.74 1029.47 L 952.88 1030.99 L 951.02 1032.50 L 949.19 1034.05 L 947.37 1035.58 L 945.58 1037.14" stroke="rgb(140,255,190)" stroke-opacity="0.527" stroke-width="1.10" />
  <path d="M 1004.02 996.49 L 1001.85 995.70 L 999.71 994.84 L 997.60 994.04 L 995.50 993.23 L 993.42 992.45 L 991.37 991.67 L 989.28 990.85 L 987.22 990.10 L 985.17 989.34 L 983.15 988.53 L 981.15 987.71 L 979.18 986.83 L 977.20 986.02 L 975.26 985.23 L 973.33 984.48 L 971.38 983.78 L 969.53 983.02 L 967.69 982.25 L 965.92 981.41 L 964.14 980.58 L 962.37 979.74 L 960.60 978.90 L 958.88 978.04 L 957.15 977.18 L 955.41 976.32 L 953.68 975.48 L 951.94 974.65 L 950.20 973.82 L 948.54 972.90 L 946.90 971.98 L 945.27 971.05 L 943.65 970.10 L 941.97 969.20 L 940.30 968.31 L 938.67 967.37 L 937.04 966.43 L 935.36 965.60 L 933.69 964.80 L 932.05 963.99 L 930.42 963.20 L 928.79 962.36 L 927.16 961.53" stroke="rgb(205,165,255)" stroke-opacity="0.465" stroke-width="1.10" />
  <path d="M 904.74 1038.07 L 902.14 1037.69 L 899.54 1037.34 L 896.93 1037.02 L 894.34 1036.65 L 891.78 1036.22 L 889.26 1035.78 L 886.78 1035.38 L 884.30 1035.01 L 881.83 1034.64 L 879.36 1034.29 L 876.88 1034.00 L 874.38 1033.75 L 871.88 1033.50 L 869.39 1033.26 L 866.94 1032.95 L 864.52 1032.62 L 862.12 1032.28 L 859.72 1031.91 L 857.33 1031.55 L 854.96 1031.20 L 852.61 1030.86 L 850.29 1030.52 L 847.94 1030.15 L 845.62 1029.79 L 843.30 1029.40 L 841.02 1029.00 L 838.75 1028.61 L 836.49 1028.23 L 834.23 1027.84 L 831.98 1027.44 L 829.75 1027.00 L 827.51 1026.58 L 825.33 1026.16 L 823.12 1025.77 L 820.93 1025.36 L 818.78 1024.94 L 816.64 1024.66 L 814.50 1024.46 L 812.33 1024.29 L 810.20 1024.16 L 808.05 1024.10 L 805.92 1024.14 L 803.82 1024.14 L 801.73 1024.14 L 799.65 1024.05 L 797.61 1023.95 L 795.54 1023.87 L 793.49 1023.79 L 791.44 1023.72 L 789.39 1023.66 L 787.34 1023.64 L 785.31 1023.63 L 783.28 1023.63 L 781.26 1023.62 L 779.24 1023.61 L 777.22 1023.62 L 775.20 1023.66 L 773.17 1023.65 L 771.19 1023.57 L 769.21 1023.49 L 767.24 1023.44 L 765.33 1023.40 L 763.45 1023.29 L 761.57 1023.20 L 759.69 1023.13 L 757.83 1023.07 L 755.96 1023.12 L 754.09 1023.18 L 752.22 1023.25" stroke="rgb(140,255,190)" stroke-opacity="0.525" stroke-width="1.09" />
  <path d="M 2000.33 738.48 L 1996.93 739.72 L 1994.33 740.24 L 1991.44 741.33 L 1988.10 741.43 L 1985.57 742.55 L 1982.51 743.66 L 1979.82 744.11 L 1976.87 745.20 L 1973.58 745.57 L 1971.04 746.47 L 1967.92 746.85 L 1965.25 747.65 L 1962.26 748.65 L 1959.28 749.48 L 1956.20 750.00 L 1953.64 751.03 L 1950.29 751.50 L 1947.78 752.08 L 1944.95 752.71 L 1941.65 753.81 L 1939.21 754.36 L 1936.31 755.15 L 1933.17 755.72 L 1930.11 756.94 L 1927.44 757.60 L 1924.69 758.14 L 1921.32 759.25 L 1918.58 759.83 L 1916.04 760.16 L 1913.23 761.21 L 1910.43 761.94 L 1906.72 762.75 L 1904.26 763.73 L 1900.95 764.33 L 1898.38 764.79 L 1895.44 766.27 L 1892.58 766.80 L 1890.13 767.29 L 1887.01 767.99 L 1883.90 769.42 L 1881.04 769.96 L 1877.90 770.53 L 1875.23 771.30 L 1872.43 771.90 L 1869.20 772.39 L 1866.34 773.30 L 1863.77 774.35 L 1860.81 774.80 L 1857.63 775.81 L 1855.27 775.84 L 1852.22 776.94 L 1849.22 778.07 L 1846.21 778.89 L 1843.07 779.84 L 1840.35 780.11 L 1837.49 781.18 L 1834.76 781.99 L 1831.64 782.61 L 1829.06 783.61 L 1825.97 783.72 L 1823.15 784.76 L 1820.19 785.55 L 1816.90 786.28 L 1813.80 787.03 L 1811.22 787.87 L 1808.43 789.11 L 1805.82 789.95 L 1802.68 790.71 L 1799.77 790.94 L 1796.61 791.57 L 1793.84 792.48 L 1791.02 793.24 L 1788.28 793.85 L 1785.23 794.93 L 1782.40 795.20 L 1779.55 796.65 L 1776.62 797.13 L 1773.66 797.68 L 1770.86 798.59 L 1767.87 799.33 L 1764.35 800.00 L 1761.92 801.08 L 1758.90 801.64 L 1756.40 802.22 L 1753.13 803.25 L 1750.20 803.85 L 1747.44 804.25 L 1744.81 805.46 L 1741.54 806.04 L 1738.93 807.22 L 1735.81 808.06 L 1732.74 808.32 L 1730.14 809.06 L 1726.99 809.95 L 1723.89 810.74 L 1721.41 811.51 L 1718.37 812.31 L 1715.21 813.14 L 1712.88 813.80 L 1709.73 814.46 L 1706.70 815.12 L 1704.12 816.09 L 1700.88 816.47 L 1698.39 817.41 L 1695.28 817.86 L 1692.10 818.60 L 1689.54 820.01 L 1686.51 820.28 L 1683.20 821.27 L 1680.75 822.34 L 1677.57 822.15 L 1674.70 823.72 L 1671.90 824.31 L 1669.24 825.16 L 1666.36 826.41 L 1663.23 826.50 L 1660.08 826.86 L 1657.49 827.95 L 1654.58 828.55 L 1651.64 829.65 L 1648.80 830.62 L 1645.92 831.23 L 1642.90 831.55 L 1639.82 832.98 L 1637.16 833.60 L 1634.23 833.83 L 1631.03 834.90 L 1628.40 835.54 L 1625.65 836.46 L 1622.57 837.26 L 1620.12 838.11 L 1616.88 838.84 L 1613.52 839.46 L 1611.19 840.12 L 1608.54 840.92 L 1605.17 841.98 L 1602.24 842.98 L 1599.48 843.56 L 1596.77 843.85 L 1593.72 844.61 L 1590.85 845.53 L 1587.35 846.14 L 1585.37 847.46 L 1581.85 848.33 L 1579.35 848.68 L 1576.31 849.59 L 1573.62 850.19 L 1570.40 851.06 L 1567.10 851.58 L 1564.72 852.65 L 1562.07 853.16 L 1559.02 854.18 L 1555.75 854.88 L 1553.13 855.72 L 1550.01 856.04 L 1547.40 857.08 L 1544.21 857.71 L 1541.08 858.51 L 1538.47 859.07 L 1535.61 860.42 L 1533.06 860.72 L 1530.06 861.40 L 1527.04 862.26 L 1524.00 863.04 L 1520.99 863.93 L 1518.35 864.34 L 1514.93 865.44 L 1512.53 866.22 L 1509.75 867.05 L 1506.57 867.54 L 1503.76 867.92 L 1500.55 868.96 L 1497.74 870.07 L 1495.43 870.55 L 1492.07 871.47 L 1489.30 872.15 L 1486.22 872.99 L 1483.04 873.71 L 1480.52 874.18 L 1477.46 875.11 L 1474.63 875.60 L 1471.67 876.40 L 1468.58 877.21 L 1465.91 878.19 L 1462.86 878.82 L 1460.22 879.83 L 1456.93 880.25 L 1454.22 881.30 L 1451.20 881.77 L 1448.48 882.61 L 1445.84 883.31 L 1442.85 884.14 L 1439.87 884.88 L 1436.84 885.73 L 1433.93 886.78 L 1430.67 887.45 L 1428.25 888.20 L 1424.93 888.72 L 1422.32 889.29 L 1419.55 889.92 L 1415.96 891.26 L 1413.94 891.91 L 1410.68 892.48 L 1408.02 893.24 L 1405.31 894.19 L 1401.89 894.81 L 1399.14 895.59 L 1396.17 896.18 L 1393.16 897.41 L 1390.18 897.90 L 1387.54 899.17 L 1384.52 899.39 L 1381.82 900.19 L 1378.57 900.96 L 1375.96 901.65 L 1373.01 902.11 L 1370.19 903.50 L 1367.64 903.82 L 1364.35 904.86 L 1361.45 905.25 L 1358.80 905.96 L 1355.65 907.38 L 1352.62 907.95 L 1349.88 908.29 L 1347.07 909.16 L 1344.01 910.39 L 1340.79 910.80 L 1338.03 911.45 L 1335.39 912.20 L 1332.81 913.08 L 1329.03 913.55 L 1326.67 914.58 L 1323.68 915.67 L 1320.46 915.95 L 1317.85 916.81 L 1315.29 917.46 L 1311.75 918.41 L 1309.25 919.22 L 1306.72 920.03 L 1303.73 920.98 L 1300.15 921.21 L 1297.65 921.92 L 1294.56 923.09 L 1292.00 923.25 L 1288.75 924.69 L 1285.73 925.59 L 1282.93 925.53 L 1280.17 926.81 L 1277.33 927.27 L 1274.37 928.30 L 1271.28 929.25 L 1268.83 929.61 L 1266.04 930.77 L 1263.26 931.33 L 1259.90 931.64 L 1257.34 932.52 L 1254.16 933.29 L 1251.04 934.04 L 1248.24 935.02 L 1245.72 935.90 L 1242.49 936.49 L 1239.72 937.44 L 1236.65 938.34 L 1233.65 938.95 L 1231.00 939.64 L 1228.23 940.10 L 1224.73 941.29 L 1222.19 941.81 L 1219.45 942.79 L 1216.22 943.31 L 1213.26 943.92 L 1210.57 945.09 L 1207.46 945.88 L 1204.84 946.67 L 1202.18 947.33 L 1198.87 947.87 L 1195.55 948.76 L 1193.34 949.17 L 1190.31 950.16 L 1187.24 950.97 L 1184.13 952.11 L 1181.11 952.65 L 1178.81 953.48 L 1175.83 953.76 L 1172.73 954.90 L 1169.80 955.79 L 1167.06 955.94 L 1164.14 957.54 L 1161.47 957.80 L 1158.43 958.64 L 1155.65 959.33 L 1152.50 959.96 L 1149.61 960.81 L 1146.71 961.70 L 1143.46 962.57 L 1140.96 963.00 L 1138.38 963.93 L 1135.39 964.34 L 1132.29 965.36 L 1129.04 965.96 L 1126.31 967.08 L 1123.62 967.82 L 1121.01 968.49 L 1117.55 969.03 L 1114.57 970.34 L 1111.85 970.55 L 1109.38 971.66 L 1106.10 972.19 L 1103.35 972.61 L 1100.13 973.57 L 1097.32 974.31 L 1094.63 975.66 L 1091.48 976.08 L 1088.69 976.85 L 1085.61 977.04 L 1082.76 978.05 L 1080.07 979.16 L 1077.14 979.60 L 1074.45 980.29 L 1071.28 981.18 L 1068.84 981.76 L 1065.42 982.87 L 1062.69 983.47 L 1059.63 984.46 L 1056.70 985.23 L 1053.88 985.96 L 1050.62 986.66 L 1047.58 987.35 L 1045.31 988.32 L 1041.93 988.96 L 1038.94 989.40 L 1036.36 990.55 L 1033.62 991.31 L 1030.18 991.95 L 1027.74 992.57 L 1024.60 993.62 L 1021.99 994.34 L 1018.79 995.08 L 1016.19 996.05 L 1013.56 996.34 L 1010.23 997.23 L 1007.12 997.69 L 1004.31 998.85 L 1001.55 999.44 L 1000.00 1000.00 L 997.10 1000.77 L 994.21 1001.58 L 991.32 1002.39 L 988.43 1003.18 L 985.53 1003.96 L 982.64 1004.74 L 979.74 1005.52 L 976.83 1006.26 L 973.93 1007.01 L 971.03 1007.78 L 968.12 1008.52 L 965.21 1009.25 L 962.30 1009.98 L 959.38 1010.68 L 956.47 1011.38 L 953.55 1012.08 L 950.63 1012.77 L 947.71 1013.47 L 944.79 1014.16 L 941.88 1014.86 L 938.96 1015.58 L 936.05 1016.31 L 933.14 1017.05 L 930.23 1017.75 L 927.31 1018.46 L 924.41 1019.21 L 921.50 1019.95 L 918.60 1020.71 L 915.69 1021.45 L 912.79 1022.19 L 909.88 1022.95 L 906.98 1023.72 L 904.09 1024.52 L 901.20 1025.30 L 898.31 1026.11 L 895.42 1026.92 L 892.53 1027.73 L 889.64 1028.53 L 886.74 1029.30 L 883.85 1030.10 L 880.95 1030.90 L 878.05 1031.66 L 875.15 1032.41 L 872.25 1033.18 L 869.35 1033.95 L 866.45 1034.73 L 863.56 1035.51 L 860.66 1036.31 L 857.78 1037.12 L 854.89 1037.94 L 852.01 1038.77 L 849.13 1039.63 L 846.26 1040.49 L 843.38 1041.32 L 840.49 1042.15 L 837.60 1042.96 L 834.71 1043.76 L 831.82 1044.56 L 828.93 1045.37 L 826.04 1046.15 L 823.14 1046.94 L 820.25 1047.74 L 817.35 1048.51 L 814.45 1049.28 L 811.55 1050.05 L 808.66 1050.83 L 805.76 1051.63 L 802.87 1052.41 L 799.97 1053.20 L 797.08 1054.00 L 794.18 1054.78 L 791.28 1055.54 L 788.38 1056.29 L 785.48 1057.06 L 782.58 1057.82 L 779.67 1058.57 L 776.77 1059.32 L 773.87 1060.10 L 770.97 1060.87 L 768.07 1061.65 L 765.18 1062.44 L 762.28 1063.20 L 759.39 1064.00 L 756.51 1064.84 L 753.63 1065.69 L 750.76 1066.57 L 747.89 1067.45 L 745.03 1068.33 L 742.16 1069.22 L 739.28 1070.07 L 736.41 1070.93 L 733.53 1071.76 L 730.64 1072.59 L 727.76 1073.43 L 724.89 1074.29 L 722.02 1075.15 L 719.14 1076.02 L 716.27 1076.89 L 713.40 1077.77 L 710.54 1078.65 L 707.67 1079.54 L 704.81 1080.43 L 701.94 1081.32 L 699.08 1082.21 L 696.21 1083.11 L 693.35 1084.01 L 690.49 1084.90 L 687.63 1085.80 L 684.77 1086.70 L 681.90 1087.58 L 679.03 1088.46 L 676.16 1089.35 L 673.29 1090.22 L 670.42 1091.07 L 667.54 1091.93 L 664.67 1092.81 L 661.80 1093.69 L 658.94 1094.56 L 656.07 1095.44 L 653.20 1096.33 L 650.34 1097.22 L 647.47 1098.12 L 644.61 1099.01 L 641.74 1099.88 L 638.87 1100.76 L 636.01 1101.65 L 633.14 1102.55 L 630.29 1103.49 L 627.44 1104.42 L 624.59 1105.34 L 621.73 1106.24 L 618.87 1107.14 L 616.00 1108.05 L 613.14 1108.96 L 610.28 1109.85 L 607.42 1110.76 L 604.57 1111.67 L 601.70 1112.57 L 598.85 1113.49 L 595.99 1114.40 L 593.13 1115.32 L 590.27 1116.23 L 587.41 1117.14 L 584.56 1118.05 L 581.70 1118.96 L 578.84 1119.87 L 575.98 1120.77 L 573.12 1121.68 L 570.26 1122.59 L 567.40 1123.48 L 564.53 1124.35 L 561.65 1125.22 L 558.78 1126.07 L 555.91 1126.94 L 553.04 1127.82 L 550.17 1128.71 L 547.30 1129.59 L 544.43 1130.46 L 541.57 1131.36 L 538.71 1132.26 L 535.85 1133.16 L 532.98 1134.04 L 530.11 1134.93 L 527.25 1135.82 L 524.39 1136.73 L 521.53 1137.62 L 518.66 1138.52 L 515.80 1139.42 L 512.94 1140.32 L 510.08 1141.22 L 507.22 1142.14 L 504.36 1143.03 L 501.50 1143.93 L 498.64 1144.86 L 495.79 1145.79 L 492.93 1146.70 L 490.07 1147.60 L 487.22 1148.52 L 484.36 1149.44 L 481.51 1150.36 L 478.65 1151.28 L 475.79 1152.20 L 472.94 1153.12 L 470.09 1154.07 L 467.24 1155.01 L 464.39 1155.95 L 461.55 1156.89 L 458.70 1157.83 L 455.86 1158.79 L 453.01 1159.75 L 450.17 1160.69 L 447.32 1161.64 L 444.47 1162.59 L 441.62 1163.52 L 438.77 1164.46 L 435.93 1165.42 L 433.09 1166.38 L 430.24 1167.32 L 427.39 1168.27 L 424.54 1169.20 L 421.68 1170.11 L 418.81 1170.99 L 415.95 1171.87 L 413.09 1172.78 L 410.22 1173.67 L 407.36 1174.55 L 404.49 1175.44 L 401.62 1176.30 L 398.74 1177.17 L 395.87 1178.03 L 392.99 1178.88 L 390.12 1179.75 L 387.24 1180.60 L 384.36 1181.41 L 381.47 1182.25 L 378.60 1183.09 L 375.71 1183.92 L 372.82 1184.73 L 369.94 1185.55 L 367.05 1186.37 L 364.17 1187.21 L 361.29 1188.05 L 358.41 1188.87 L 355.52 1189.70 L 352.64 1190.53 L 349.75 1191.34 L 346.86 1192.13 L 343.97 1192.93 L 341.07 1193.72 L 338.18 1194.52 L 335.29 1195.33 L 332.40 1196.13 L 329.51 1196.91 L 326.61 1197.69 L 323.71 1198.46 L 320.80 1199.20 L 317.89 1199.92 L 314.97 1200.63 L 312.06 1201.35 L 309.15 1202.07 L 306.24 1202.81 L 303.33 1203.53 L 300.42 1204.26 L 297.52 1205.02 L 294.61 1205.75 L 291.70 1206.49 L 288.79 1207.21 L 285.87 1207.91 L 282.95 1208.61 L 280.03 1209.30 L 277.11 1209.97 L 274.19 1210.67 L 271.27 1211.36 L 268.36 1212.06 L 265.44 1212.77 L 262.53 1213.48 L 259.61 1214.16 L 256.69 1214.85 L 253.76 1215.53 L 250.84 1216.19 L 247.91 1216.85 L 244.99 1217.52 L 242.06 1218.17 L 239.13 1218.82 L 236.20 1219.46 L 233.27 1220.10 L 230.33 1220.72 L 227.40 1221.36 L 224.47 1222.02 L 221.55 1222.68 L 218.62 1223.33 L 215.69 1223.99 L 212.77 1224.66 L 209.84 1225.33 L 206.92 1226.01 L 204.00 1226.69 L 201.08 1227.39 L 198.17 1228.10 L 195.26 1228.83 L 192.35 1229.57 L 189.45 1230.34 L 186.56 1231.12 L 183.66 1231.90 L 180.76 1232.68 L 177.87 1233.48 L 174.98 1234.29 L 172.09 1235.10 L 169.20 1235.91 L 166.31 1236.71 L 163.42 1237.52 L 160.53 1238.32 L 157.64 1239.10 L 154.74 1239.88 L 151.84 1240.65 L 148.95 1241.47 L 146.07 1242.30 L 143.18 1243.10 L 140.28 1243.87 L 137.38 1244.63 L 134.47 1245.36 L 131.56 1246.10 L 128.65 1246.81 L 125.73 1247.51 L 122.81 1248.20 L 119.89 1248.89 L 116.98 1249.62 L 114.07 1250.35 L 111.15 1251.06 L 108.24 1251.75 L 105.32 1252.44 L 102.40 1253.14 L 99.48 1253.83 L 96.56 1254.51 L 93.64 1255.21 L 90.72 1255.91 L 87.80 1256.59 L 84.88 1257.28 L 81.96 1257.96 L 79.04 1258.65 L 76.13 1259.37 L 73.22 1260.10 L 70.31 1260.83 L 67.40 1261.57 L 64.50 1262.32 L 61.59 1263.06 L 58.68 1263.79 L 55.76 1264.50 L 52.85 1265.21 L 49.94 1265.95 L 47.03 1266.66 L 44.11 1267.38 L 41.21 1268.12 L 38.30 1268.87 L 35.40 1269.63 L 32.50 1270.38 L 29.58 1271.10 L 26.67 1271.81 L 23.76 1272.54 L 20.85 1273.29 L 17.94 1274.01 L 15.03 1274.74 L 12.13 1275.50 L 9.23 1276.26 L 6.33 1277.02 L 3.42 1277.75 L 0.51 1278.49 L -2.40 1279.23 L -5.30 1279.98 L -8.21 1280.73 L -11.11 1281.49 L -14.01 1282.27 L -16.91 1283.04 L -19.81 1283.81 L -22.71 1284.56" stroke="rgb(245,245,245)" stroke-opacity="0.700" stroke-width="1.09" />
  <path d="M 976.24 1015.09 L 974.25 1016.43 L 972.29 1017.78 L 970.33 1019.09 L 968.40 1020.48 L 966.46 1021.86 L 964.55 1023.27 L 962.63 1024.66 L 960.69 1025.95 L 958.70 1027.20 L 956.76 1028.46 L 954.87 1029.79 L 952.99 1031.08 L 951.13 1032.39 L 949.22 1033.63 L 947.33 1034.87 L 945.43 1036.10 L 943.61 1037.40 L 941.80 1038.72 L 940.01 1040.04 L 938.25 1041.40 L 936.51 1042.78 L 934.76 1044.12 L 933.00 1045.37 L 931.24 1046.61 L 929.41 1047.75 L 927.58 1048.86 L 925.79 1050.01 L 924.03 1051.24 L 922.28 1052.48 L 920.54 1053.71 L 918.85 1054.99 L 917.17 1056.27 L 915.51 1057.54 L 913.88 1058.87" stroke="rgb(205,165,255)" stroke-opacity="0.460" stroke-width="1.08" />
  <path d="M 998.43 1000.54 L 996.33 1001.03 L 994.22 1001.50 L 992.15 1002.09 L 990.13 1002.76 L 988.12 1003.42 L 986.12 1004.08 L 984.13 1004.73 L 982.17 1005.44 L 980.24 1006.13 L 978.31 1006.82 L 976.38 1007.49 L 974.47 1008.17 L 972.66 1008.93 L 970.81 1009.64 L 968.97 1010.37 L 967.13 1011.17 L 965.30 1011.97 L 963.50 1012.80 L 961.75 1013.75 L 960.01 1014.66 L 958.41 1015.72 L 956.84 1016.80 L 955.29 1017.96 L 953.75 1019.11 L 952.14 1020.20 L 950.53 1021.28 L 948.94 1022.35 L 947.28 1023.35 L 945.58 1024.25 L 943.87 1025.11 L 942.16 1025.98 L 940.46 1026.86 L 938.76 1027.74 L 937.07 1028.62 L 935.38 1029.49 L 933.73 1030.41 L 932.10 1031.34 L 930.45 1032.20 L 928.81 1033.07 L 927.12 1033.82 L 925.44 1034.58 L 923.79 1035.38 L 922.13 1036.16 L 920.48 1036.95 L 918.84 1037.70 L 917.20 1038.44 L 915.58 1039.19 L 913.97 1039.96 L 912.39 1040.76 L 910.81 1041.57 L 909.26 1042.42 L 907.70 1043.23 L 906.12 1044.00 L 904.55 1044.76 L 902.98 1045.50 L 901.40 1046.20 L 899.81 1046.84 L 898.22 1047.50 L 896.69 1048.19 L 895.16 1048.86 L 893.64 1049.53 L 892.11 1050.19 L 890.61 1050.83 L 889.12 1051.52 L 887.64 1052.20 L 886.17 1052.88 L 884.68 1053.53 L 883.20 1054.17 L 881.72 1054.81 L 880.27 1055.47 L 878.82 1056.08" stroke="rgb(205,165,255)" stroke-opacity="0.452" stroke-width="1.05" />
  <path d="M 954.47 1025.76 L 952.77 1026.86 L 951.05 1027.95 L 949.33 1029.05 L 947.64 1030.24 L 946.04 1031.56 L 944.43 1032.88 L 942.82 1034.12 L 941.25 1035.40 L 939.66 1036.73 L 937.98 1037.95 L 936.37 1039.22 L 934.77 1040.46 L 933.16 1041.62 L 931.56 1042.71" stroke="rgb(205,165,255)" stroke-opacity="0.451" stroke-width="1.04" />
  <path d="M 1001.13 1003.23 L 999.15 1004.14 L 997.18 1005.06 L 995.22 1005.96 L 993.27 1006.88 L 991.36 1007.85 L 989.44 1008.77 L 987.50 1009.60 L 985.60 1010.53 L 983.69 1011.41 L 981.81 1012.32 L 979.94 1013.24 L 978.08 1014.17 L 976.24 1015.09 L 974.41 1016.05 L 972.61 1017.02 L 970.77 1017.94 L 968.94 1018.84 L 967.12 1019.73 L 965.27 1020.56 L 963.47 1021.46 L 961.64 1022.31 L 959.85 1023.20 L 958.06 1024.08 L 956.27 1024.95 L 954.47 1025.76 L 952.75 1026.73 L 951.04 1027.66 L 949.33 1028.61 L 947.64 1029.55 L 945.95 1030.48 L 944.25 1031.37 L 942.54 1032.24 L 940.82 1033.08 L 939.10 1033.89 L 937.37 1034.67 L 935.68 1035.52 L 934.00 1036.36 L 932.29 1037.14" stroke="rgb(205,165,255)" stroke-opacity="0.449" stroke-width="1.04" />
  <path d="M 1003.02 997.61 L 1003.38 998.95 L 1003.69 1000.29 L 1004.02 1001.58 L 1004.47 1002.85 L 1004.93 1004.12 L 1005.32 1005.37" stroke="rgb(230,230,230)" stroke-opacity="0.384" stroke-width="0.71" />
  <path d="M 1000.95 996.05 L 1000.35 994.74 L 999.76 993.44" stroke="rgb(230,230,230)" stroke-opacity="0.380" stroke-width="0.70" />
  <path d="M 1000.45 1001.93 L 1000.74 1002.88 L 1001.37 1003.75 L 1001.95 1004.66 L 1002.62 1005.52" stroke="rgb(230,230,230)" stroke-opacity="0.380" stroke-width="0.70" />
  <path d="M 1000.92 993.37 L 1001.07 991.93 L 1001.23 990.49 L 1001.51 989.07 L 1001.82 987.69 L 1002.12 986.29" stroke="rgb(230,230,230)" stroke-opacity="0.376" stroke-width="0.69" />
  <path d="M 995.94 1003.16 L 996.86 1002.59 L 997.89 1002.01 L 998.91 1001.48 L 999.87 1000.89 L 1000.78 1000.27 L 1001.70 999.58" stroke="rgb(230,230,230)" stroke-opacity="0.376" stroke-width="0.68" />
  <path d="M 996.48 996.67 L 995.70 997.86 L 995.00 999.00 L 994.30 1000.10 L 993.61 1001.16 L 992.95 1002.23 L 992.35 1003.24 L 991.74 1004.25 L 991.26 1005.29 L 990.72 1006.39 L 990.16 1007.44 L 989.67 1008.48" stroke="rgb(230,230,230)" stroke-opacity="0.374" stroke-width="0.68" />
  <path d="M 1001.09 1009.42 L 1000.12 1008.60 L 999.12 1007.86 L 998.09 1007.09 L 997.11 1006.26 L 996.13 1005.45 L 995.15 1004.64 L 994.19 1003.84 L 993.23 1003.04 L 992.26 1002.22" stroke="rgb(230,230,230)" stroke-opacity="0.373" stroke-width="0.67" />
  <path d="M 1003.54 1003.74 L 1003.01 1004.31 L 1002.47 1004.78 L 1001.92 1005.22 L 1001.15 1005.53 L 1000.44 1005.90 L 999.68 1006.39 L 998.80 1006.93 L 998.02 1007.54 L 997.18 1008.13 L 996.45 1008.75 L 995.73 1009.37 L 995.00 1009.91 L 994.28 1010.39 L 993.57 1010.89" stroke="rgb(230,230,230)" stroke-opacity="0.372" stroke-width="0.67" />
  <path d="M 997.59 998.16 L 997.62 997.35 L 997.61 996.57 L 997.63 995.78 L 997.64 994.98 L 997.69 994.06 L 997.74 993.16 L 997.75 992.24 L 997.71 991.30 L 997.70 990.35 L 997.71 989.40 L 997.70 988.45" stroke="rgb(230,230,230)" stroke-opacity="0.371" stroke-width="0.67" />
  <path d="M 999.58 1002.47 L 998.27 1003.16 L 996.99 1003.81 L 995.71 1004.44 L 994.46 1005.11 L 993.18 1005.75 L 991.88 1006.39 L 990.59 1007.04 L 989.37 1007.79 L 988.08 1008.46 L 986.82 1009.15 L 985.61 1009.93 L 984.42 1010.71 L 983.20 1011.36 L 981.96 1011.95 L 980.70 1012.51 L 979.45 1013.06" stroke="rgb(230,230,230)" stroke-opacity="0.368" stroke-width="0.66" />
  <path d="M 1001.17 998.15 L 1000.39 999.41 L 999.55 1000.61 L 998.73 1001.81 L 997.93 1003.00 L 997.07 1004.15 L 996.23 1005.31 L 995.41 1006.48 L 994.61 1007.66 L 993.87 1008.83" stroke="rgb(230,230,230)" stroke-opacity="0.366" stroke-width="0.66" />
  <path d="M 1003.71 1002.42 L 1004.88 1002.14 L 1006.05 1001.58 L 1007.23 1001.14 L 1008.41 1000.75 L 1009.59 1000.36 L 1010.72 999.95 L 1011.82 999.50 L 1013.03 999.18 L 1014.18 998.65 L 1015.38 998.25 L 1016.55 997.96 L 1017.73 997.61 L 1018.87 997.39 L 1019.98 997.18" stroke="rgb(230,230,230)" stroke-opacity="0.363" stroke-width="0.65" />
  <path d="M 1004.01 997.55 L 1004.23 996.11 L 1004.42 994.67 L 1004.73 993.24 L 1005.04 991.85 L 1005.35 990.46 L 1005.48 989.02 L 1005.61 987.59 L 1005.59 986.14" stroke="rgb(230,230,230)" stroke-opacity="0.362" stroke-width="0.64" />
  <path d="M 994.71 997.58 L 996.14 997.29 L 997.59 997.00 L 998.96 996.59 L 1000.36 996.27" stroke="rgb(230,230,230)" stroke-opacity="0.357" stroke-width="0.63" />
  <path d="M 997.77 997.60 L 998.84 998.19 L 999.99 998.47 L 1001.20 998.68" stroke="rgb(230,230,230)" stroke-opacity="0.353" stroke-width="0.62" />
  <path d="M 1005.71 995.18 L 1006.63 994.84 L 1007.56 994.50 L 1008.48 994.13 L 1009.42 993.84 L 1010.37 993.59 L 1011.32 993.39 L 1012.27 993.17 L 1013.22 993.02 L 1014.11 992.87 L 1014.88 992.55 L 1015.66 992.23 L 1016.53 991.84" stroke="rgb(230,230,230)" stroke-opacity="0.353" stroke-width="0.62" />
  <path d="M 994.82 1009.80 L 993.91 1010.01 L 993.08 1010.13 L 992.36 1010.11 L 991.69 1010.07 L 991.01 1010.05 L 990.34 1010.10 L 989.68 1010.16" stroke="rgb(230,230,230)" stroke-opacity="0.352" stroke-width="0.62" />
  <path d="M 997.60 996.01 L 997.56 995.83 L 997.68 995.76 L 997.67 995.60 L 997.87 995.55 L 998.16 995.64 L 998.43 995.67" stroke="rgb(230,230,230)" stroke-opacity="0.352" stroke-width="0.62" />
</g>
</svg>
