{
  "asset": {
    "version": "2.0",
    "generator": "TES-23 Cosmic Ray Renderer"
  },
  "extensionsUsed": [
    "KHR_materials_unlit"
  ],
  "extensionsRequired": [
    "KHR_materials_unlit"
  ],
  "scene": 0,
  "scenes": [
    {
      "nodes": [
        0
      ]
    }
  ],
  "nodes": [
    {
      "name": "CosmicRayEvent",
      "mesh": 0
    }
  ],
  "meshes": [
    {
      "name": "CosmicRayEvent",
      "primitives": [
        {
          "attributes": {
            "POSITION": 0
          },
          "material": 0,
          "mode": 1
        },
        {
          "attributes": {
            "POSITION": 1
          },
          "material": 1,
          "mode": 1
        },
        {
          "attributes": {
            "POSITION": 2
          },
          "material": 2,
          "mode": 1
        }
      ]
    }
  ],
  "materials": [
    {
      "name": "primary",
      "extensions": {
        "KHR_materials_unlit": {}
      },
      "pbrMetallicRoughness": {
        "baseColorFactor": [
          0.961,
          0.961,
          0.961,
          1
        ],
        "metallicFactor": 0,
        "roughnessFactor": 1
      }
    },
    {
      "name": "vertex",
      "extensions": {
        "KHR_materials_unlit": {}
      },
      "pbrMetallicRoughness": {
        "baseColorFactor": [
          0.902,
          0.902,
          0.902,
          0.9
        ],
        "metallicFactor": 0,
        "roughnessFactor": 1
      }
    },
    {
      "name": "em",
      "extensions": {
        "KHR_materials_unlit": {}
      },
      "pbrMetallicRoughness": {
        "baseColorFactor": [
          0.471,
          0.824,
          1,
          1
        ],
        "metallicFactor": 0,
        "roughnessFactor": 1
      }
    }
  ],
  "accessors": [
    {
      "bufferView": 0,
      "byteOffset": 0,
      "componentType": 5126,
      "count": 1358,
      "type": "VEC3",
      "min": [
        -1.0000327825546265,
        -0.10910492390394211,
        0
      ],
      "max": [
        1.022908091545105,
        0.11061089485883713,
        0
      ]
    },
    {
      "bufferView": 1,
      "byteOffset": 0,
      "componentType": 5126,
      "count": 308,
      "type": "VEC3",
      "min": [
        -0.01855495013296604,
        -0.016601255163550377,
        -0.08144500851631165
      ],
      "max": [
        0.014829285442829132,
        0.011826679110527039,
        0.06839995831251144
      ]
    },
    {
      "bufferView": 2,
      "byteOffset": 0,
      "componentType": 5126,
      "count": 1694,
      "type": "VEC3",
      "min": [
        -0.0022013899870216846,
        -0.007100437767803669,
        -0.0602068230509758
      ],
      "max": [
        0.39207518100738525,
        0.046455930918455124,
        0.2110464721918106
      ]
    }
  ],
  "bufferViews": [
    {
      "buffer": 0,
      "byteOffset": 0,
      "byteLength": 16296,
      "target": 34962
    },
    {
      "buffer": 0,
      "byteOffset": 16296,
      "byteLength": 3696,
      "target": 34962
    },
    {
      "buffer": 0,
      "byteOffset": 19992,
      "byteLength": 20328,
      "target": 34962
    }
  ],
  "buffers": [
    {
      "byteLength": 40320,
      "uri": "data:application/octet-stream;base64,"
    }
  ]
}