{
  "asset": {
    "version": "2.0",
    "generator": "TES-23 Cosmic Ray Renderer"
  },
  "extensionsUsed": [
    "KHR_materials_unlit"
  ],
  "extensionsRequired": [
    "KHR_materials_unlit"
  ],
  "scene": 0,
  "scenes": [
    {
      "nodes": [
        0
      ]
    }
  ],
  "nodes": [
    {
      "name": "CosmicRayEvent",
      "mesh": 0
    }
  ],
  "meshes": [
    {
      "name": "CosmicRayEvent",
      "primitives": [
        {
          "attributes": {
            "POSITION": 0
          },
          "material": 0,
          "mode": 1
        },
        {
          "attributes": {
            "POSITION": 1
          },
          "material": 1,
          "mode": 1
        },
        {
          "attributes": {
            "POSITION": 2
          },
          "material": 2,
          "mode": 1
        },
        {
          "attributes": {
            "POSITION": 3
          },
          "material": 3,
          "mode": 1
        },
        {
          "attributes": {
            "POSITION": 4
          },
          "material": 4,
          "mode": 1
        }
      ]
    }
  ],
  "materials": [
    {
      "name": "primary",
      "extensions": {
        "KHR_materials_unlit": {}
      },
      "pbrMetallicRoughness": {
        "baseColorFactor": [
          0.961,
          0.961,
          0.961,
          1
        ],
        "metallicFactor": 0,
        "roughnessFactor": 1
      }
    },
    {
      "name": "vertex",
      "extensions": {
        "KHR_materials_unlit": {}
      },
      "pbrMetallicRoughness": {
        "baseColorFactor": [
          0.902,
          0.902,
          0.902,
          0.9
        ],
        "metallicFactor": 0,
        "roughnessFactor": 1
      }
    },
    {
      "name": "em",
      "extensions": {
        "KHR_materials_unlit": {}
      },
      "pbrMetallicRoughness": {
        "baseColorFactor": [
          0.471,
          0.824,
          1,
          1
        ],
        "metallicFactor": 0,
        "roughnessFactor": 1
      }
    },
    {
      "name": "hadron",
      "extensions": {
        "KHR_materials_unlit": {}
      },
      "pbrMetallicRoughness": {
        "baseColorFactor": [
          0.549,
          1,
          0.745,
          1
        ],
        "metallicFactor": 0,
        "roughnessFactor": 1
      }
    },
    {
      "name": "delta",
      "extensions": {
        "KHR_materials_unlit": {}
      },
      "pbrMetallicRoughness": {
        "baseColorFactor": [
          0.804,
          0.647,
          1,
          1
        ],
        "metallicFactor": 0,
        "roughnessFactor": 1
      }
    }
  ],
  "accessors": [
    {
      "bufferView": 0,
      "byteOffset": 0,
      "componentType": 5126,
      "count": 1360,
      "type": "VEC3",
      "min": [
        -1.0200145244598389,
        -0.14400261640548706,
        0
      ],
      "max": [
        1.0001410245895386,
        0.13486573100090027,
        0
      ]
    },
    {
      "bufferView": 1,
      "byteOffset": 0,
      "componentType": 5126,
      "count": 310,
      "type": "VEC3",
      "min": [
        -0.021631449460983276,
        -0.016972636803984642,
        -0.06934870034456253
      ],
      "max": [
        0.01475345715880394,
        0.01688411645591259,
        0.033369239419698715
      ]
    },
    {
      "bufferView": 2,
      "byteOffset": 0,
      "componentType": 5126,
      "count": 1428,
      "type": "VEC3",
      "min": [
        -0.2952306866645813,
        -0.002188808051869273,
        -0.16194842755794525
      ],
      "max": [
        0.0032369554974138737,
        0.04681367799639702,
        0.164206862449646
      ]
    },
    {
      "bufferView": 3,
      "byteOffset": 0,
      "componentType": 5126,
      "count": 1492,
      "type": "VEC3",
      "min": [
        -0.2354208081960678,
        -0.0035891267471015453,
        -0.4966764450073242
      ],
      "max": [
        0.005871828179806471,
        0.08236765116453171,
        0.29858747124671936
      ]
    },
    {
      "bufferView": 4,
      "byteOffset": 0,
      "componentType": 5126,
      "count": 988,
      "type": "VEC3",
      "min": [
        -0.32512328028678894,
        -0.10791417956352234,
        -0.9992650747299194
      ],
      "max": [
        0.09777920693159103,
        0.12948685884475708,
        0.4039211571216583
      ]
    }
  ],
  "bufferViews": [
    {
      "buffer": 0,
      "byteOffset": 0,
      "byteLength": 16320,
      "target": 34962
    },
    {
      "buffer": 0,
      "byteOffset": 16320,
      "byteLength": 3720,
      "target": 34962
    },
    {
      "buffer": 0,
      "byteOffset": 20040,
      "byteLength": 17136,
      "target": 34962
    },
    {
      "buffer": 0,
      "byteOffset": 37176,
      "byteLength": 17904,
      "target": 34962
    },
    {
      "buffer": 0,
      "byteOffset": 55080,
      "byteLength": 11856,
      "target": 34962
    }
  ],
  "buffers": [
    {
      "byteLength": 66936,
      "uri": "data:application/octet-stream;base64,"
    }
  ]
}