{
  "asset": {
    "version": "2.0",
    "generator": "TES-23 Cosmic Ray Renderer"
  },
  "extensionsUsed": [
    "KHR_materials_unlit"
  ],
  "extensionsRequired": [
    "KHR_materials_unlit"
  ],
  "scene": 0,
  "scenes": [
    {
      "nodes": [
        0
      ]
    }
  ],
  "nodes": [
    {
      "name": "CosmicRayEvent",
      "mesh": 0
    }
  ],
  "meshes": [
    {
      "name": "CosmicRayEvent",
      "primitives": [
        {
          "attributes": {
            "POSITION": 0
          },
          "material": 0,
          "mode": 1
        },
        {
          "attributes": {
            "POSITION": 1
          },
          "material": 1,
          "mode": 1
        },
        {
          "attributes": {
            "POSITION": 2
          },
          "material": 2,
          "mode": 1
        },
        {
          "attributes": {
            "POSITION": 3
          },
          "material": 3,
          "mode": 1
        },
        {
          "attributes": {
            "POSITION": 4
          },
          "material": 4,
          "mode": 1
        }
      ]
    }
  ],
  "materials": [
    {
      "name": "primary",
      "extensions": {
        "KHR_materials_unlit": {}
      },
      "pbrMetallicRoughness": {
        "baseColorFactor": [
          0.961,
          0.961,
          0.961,
          1
        ],
        "metallicFactor": 0,
        "roughnessFactor": 1
      }
    },
    {
      "name": "vertex",
      "extensions": {
        "KHR_materials_unlit": {}
      },
      "pbrMetallicRoughness": {
        "baseColorFactor": [
          0.902,
          0.902,
          0.902,
          0.9
        ],
        "metallicFactor": 0,
        "roughnessFactor": 1
      }
    },
    {
      "name": "em",
      "extensions": {
        "KHR_materials_unlit": {}
      },
      "pbrMetallicRoughness": {
        "baseColorFactor": [
          0.471,
          0.824,
          1,
          1
        ],
        "metallicFactor": 0,
        "roughnessFactor": 1
      }
    },
    {
      "name": "hadron",
      "extensions": {
        "KHR_materials_unlit": {}
      },
      "pbrMetallicRoughness": {
        "baseColorFactor": [
          0.549,
          1,
          0.745,
          1
        ],
        "metallicFactor": 0,
        "roughnessFactor": 1
      }
    },
    {
      "name": "delta",
      "extensions": {
        "KHR_materials_unlit": {}
      },
      "pbrMetallicRoughness": {
        "baseColorFactor": [
          0.804,
          0.647,
          1,
          1
        ],
        "metallicFactor": 0,
        "roughnessFactor": 1
      }
    }
  ],
  "accessors": [
    {
      "bufferView": 0,
      "byteOffset": 0,
      "componentType": 5126,
      "count": 1476,
      "type": "VEC3",
      "min": [
        -0.448458731174469,
        -1.000638484954834,
        0
      ],
      "max": [
        0.45158734917640686,
        1.0203763246536255,
        0
      ]
    },
    {
      "bufferView": 1,
      "byteOffset": 0,
      "componentType": 5126,
      "count": 312,
      "type": "VEC3",
      "min": [
        -0.01826566644012928,
        -0.018403640016913414,
        -0.05384951829910278
      ],
      "max": [
        0.00828463677316904,
        0.023393157869577408,
        0.07217444479465485
      ]
    },
    {
      "bufferView": 2,
      "byteOffset": 0,
      "componentType": 5126,
      "count": 930,
      "type": "VEC3",
      "min": [
        -0.0006065804627723992,
        -0.002952637616544962,
        -0.14664968848228455
      ],
      "max": [
        0.1185225322842598,
        0.21896399557590485,
        0.05935289338231087
      ]
    },
    {
      "bufferView": 3,
      "byteOffset": 0,
      "componentType": 5126,
      "count": 3218,
      "type": "VEC3",
      "min": [
        -0.08268428593873978,
        -0.12352022528648376,
        -0.2711392343044281
      ],
      "max": [
        0.1411125808954239,
        0.3014012575149536,
        0.540507972240448
      ]
    },
    {
      "bufferView": 4,
      "byteOffset": 0,
      "componentType": 5126,
      "count": 864,
      "type": "VEC3",
      "min": [
        -0.09653181582689285,
        -0.11128164082765579,
        -0.36710125207901
      ],
      "max": [
        0.16536195576190948,
        0.13325192034244537,
        0.24297207593917847
      ]
    }
  ],
  "bufferViews": [
    {
      "buffer": 0,
      "byteOffset": 0,
      "byteLength": 17712,
      "target": 34962
    },
    {
      "buffer": 0,
      "byteOffset": 17712,
      "byteLength": 3744,
      "target": 34962
    },
    {
      "buffer": 0,
      "byteOffset": 21456,
      "byteLength": 11160,
      "target": 34962
    },
    {
      "buffer": 0,
      "byteOffset": 32616,
      "byteLength": 38616,
      "target": 34962
    },
    {
      "buffer": 0,
      "byteOffset": 71232,
      "byteLength": 10368,
      "target": 34962
    }
  ],
  "buffers": [
    {
      "byteLength": 81600,
      "uri": "data:application/octet-stream;base64,"
    }
  ]
}