{
  "asset": {
    "version": "2.0",
    "generator": "TES-23 Cosmic Ray Renderer"
  },
  "extensionsUsed": [
    "KHR_materials_unlit"
  ],
  "extensionsRequired": [
    "KHR_materials_unlit"
  ],
  "scene": 0,
  "scenes": [
    {
      "nodes": [
        0
      ]
    }
  ],
  "nodes": [
    {
      "name": "CosmicRayEvent",
      "mesh": 0
    }
  ],
  "meshes": [
    {
      "name": "CosmicRayEvent",
      "primitives": [
        {
          "attributes": {
            "POSITION": 0
          },
          "material": 0,
          "mode": 1
        },
        {
          "attributes": {
            "POSITION": 1
          },
          "material": 1,
          "mode": 1
        },
        {
          "attributes": {
            "POSITION": 2
          },
          "material": 2,
          "mode": 1
        },
        {
          "attributes": {
            "POSITION": 3
          },
          "material": 3,
          "mode": 1
        }
      ]
    }
  ],
  "materials": [
    {
      "name": "primary",
      "extensions": {
        "KHR_materials_unlit": {}
      },
      "pbrMetallicRoughness": {
        "baseColorFactor": [
          0.961,
          0.961,
          0.961,
          1
        ],
        "metallicFactor": 0,
        "roughnessFactor": 1
      }
    },
    {
      "name": "vertex",
      "extensions": {
        "KHR_materials_unlit": {}
      },
      "pbrMetallicRoughness": {
        "baseColorFactor": [
          0.902,
          0.902,
          0.902,
          0.9
        ],
        "metallicFactor": 0,
        "roughnessFactor": 1
      }
    },
    {
      "name": "em",
      "extensions": {
        "KHR_materials_unlit": {}
      },
      "pbrMetallicRoughness": {
        "baseColorFactor": [
          0.471,
          0.824,
          1,
          1
        ],
        "metallicFactor": 0,
        "roughnessFactor": 1
      }
    },
    {
      "name": "backscatter",
      "extensions": {
        "KHR_materials_unlit": {}
      },
      "pbrMetallicRoughness": {
        "baseColorFactor": [
          1,
          0.824,
          0.529,
          0.95
        ],
        "metallicFactor": 0,
        "roughnessFactor": 1
      }
    }
  ],
  "accessors": [
    {
      "bufferView": 0,
      "byteOffset": 0,
      "componentType": 5126,
      "count": 1358,
      "type": "VEC3",
      "min": [
        -1.000301480293274,
        -0.0993310809135437,
        0
      ],
      "max": [
        1.0211472511291504,
        0.12632134556770325,
        0
      ]
    },
    {
      "bufferView": 1,
      "byteOffset": 0,
      "componentType": 5126,
      "count": 272,
      "type": "VEC3",
      "min": [
        -0.011154429987072945,
        -0.018031124025583267,
        -0.06765547394752502
      ],
      "max": [
        0.022958992049098015,
        0.015872705727815628,
        0.0676029622554779
      ]
    },
    {
      "bufferView": 2,
      "byteOffset": 0,
      "componentType": 5126,
      "count": 1280,
      "type": "VEC3",
      "min": [
        -0.0042593530379235744,
        -0.0029341205954551697,
        -0.08754678815603256
      ],
      "max": [
        0.28321412205696106,
        0.07583887875080109,
        0.3152466118335724
      ]
    },
    {
      "bufferView": 3,
      "byteOffset": 0,
      "componentType": 5126,
      "count": 1202,
      "type": "VEC3",
      "min": [
        -0.09562919288873672,
        -0.2520301640033722,
        -0.7416601777076721
      ],
      "max": [
        0.16333988308906555,
        0.08600417524576187,
        0.35519319772720337
      ]
    }
  ],
  "bufferViews": [
    {
      "buffer": 0,
      "byteOffset": 0,
      "byteLength": 16296,
      "target": 34962
    },
    {
      "buffer": 0,
      "byteOffset": 16296,
      "byteLength": 3264,
      "target": 34962
    },
    {
      "buffer": 0,
      "byteOffset": 19560,
      "byteLength": 15360,
      "target": 34962
    },
    {
      "buffer": 0,
      "byteOffset": 34920,
      "byteLength": 14424,
      "target": 34962
    }
  ],
  "buffers": [
    {
      "byteLength": 49344,
      "uri": "data:application/octet-stream;base64,"
    }
  ]
}