{
  "asset": {
    "version": "2.0",
    "generator": "TES-23 Cosmic Ray Renderer"
  },
  "extensionsUsed": [
    "KHR_materials_unlit"
  ],
  "extensionsRequired": [
    "KHR_materials_unlit"
  ],
  "scene": 0,
  "scenes": [
    {
      "nodes": [
        0
      ]
    }
  ],
  "nodes": [
    {
      "name": "CosmicRayEvent",
      "mesh": 0
    }
  ],
  "meshes": [
    {
      "name": "CosmicRayEvent",
      "primitives": [
        {
          "attributes": {
            "POSITION": 0
          },
          "material": 0,
          "mode": 1
        },
        {
          "attributes": {
            "POSITION": 1
          },
          "material": 1,
          "mode": 1
        },
        {
          "attributes": {
            "POSITION": 2
          },
          "material": 2,
          "mode": 1
        },
        {
          "attributes": {
            "POSITION": 3
          },
          "material": 3,
          "mode": 1
        },
        {
          "attributes": {
            "POSITION": 4
          },
          "material": 4,
          "mode": 1
        },
        {
          "attributes": {
            "POSITION": 5
          },
          "material": 5,
          "mode": 1
        }
      ]
    }
  ],
  "materials": [
    {
      "name": "primary",
      "extensions": {
        "KHR_materials_unlit": {}
      },
      "pbrMetallicRoughness": {
        "baseColorFactor": [
          0.961,
          0.961,
          0.961,
          1
        ],
        "metallicFactor": 0,
        "roughnessFactor": 1
      }
    },
    {
      "name": "vertex",
      "extensions": {
        "KHR_materials_unlit": {}
      },
      "pbrMetallicRoughness": {
        "baseColorFactor": [
          0.902,
          0.902,
          0.902,
          0.9
        ],
        "metallicFactor": 0,
        "roughnessFactor": 1
      }
    },
    {
      "name": "em",
      "extensions": {
        "KHR_materials_unlit": {}
      },
      "pbrMetallicRoughness": {
        "baseColorFactor": [
          0.471,
          0.824,
          1,
          1
        ],
        "metallicFactor": 0,
        "roughnessFactor": 1
      }
    },
    {
      "name": "hadron",
      "extensions": {
        "KHR_materials_unlit": {}
      },
      "pbrMetallicRoughness": {
        "baseColorFactor": [
          0.549,
          1,
          0.745,
          1
        ],
        "metallicFactor": 0,
        "roughnessFactor": 1
      }
    },
    {
      "name": "delta",
      "extensions": {
        "KHR_materials_unlit": {}
      },
      "pbrMetallicRoughness": {
        "baseColorFactor": [
          0.804,
          0.647,
          1,
          1
        ],
        "metallicFactor": 0,
        "roughnessFactor": 1
      }
    },
    {
      "name": "backscatter",
      "extensions": {
        "KHR_materials_unlit": {}
      },
      "pbrMetallicRoughness": {
        "baseColorFactor": [
          1,
          0.824,
          0.529,
          0.95
        ],
        "metallicFactor": 0,
        "roughnessFactor": 1
      }
    }
  ],
  "accessors": [
    {
      "bufferView": 0,
      "byteOffset": 0,
      "componentType": 5126,
      "count": 1434,
      "type": "VEC3",
      "min": [
        -1.021955966949463,
        -0.37197616696357727,
        0
      ],
      "max": [
        0.9999191761016846,
        0.3568931519985199,
        0
      ]
    },
    {
      "bufferView": 1,
      "byteOffset": 0,
      "componentType": 5126,
      "count": 308,
      "type": "VEC3",
      "min": [
        -0.01248238980770111,
        -0.015938404947519302,
        -0.07140752673149109
      ],
      "max": [
        0.01735587790608406,
        0.012304021045565605,
        0.0709756463766098
      ]
    },
    {
      "bufferView": 2,
      "byteOffset": 0,
      "componentType": 5126,
      "count": 1248,
      "type": "VEC3",
      "min": [
        -0.3334599435329437,
        -0.00416435394436121,
        -0.3443204462528229
      ],
      "max": [
        0.0036576585844159126,
        0.1452578902244568,
        0.1515681892633438
      ]
    },
    {
      "bufferView": 3,
      "byteOffset": 0,
      "componentType": 5126,
      "count": 2214,
      "type": "VEC3",
      "min": [
        -0.3071122467517853,
        -0.0038556414656341076,
        -0.3727315068244934
      ],
      "max": [
        0.003230311907827854,
        0.21676769852638245,
        0.3709796071052551
      ]
    },
    {
      "bufferView": 4,
      "byteOffset": 0,
      "componentType": 5126,
      "count": 706,
      "type": "VEC3",
      "min": [
        -0.13194845616817474,
        -0.027770519256591797,
        -0.6753732562065125
      ],
      "max": [
        0.0022199805825948715,
        0.100505031645298,
        0.3239832818508148
      ]
    },
    {
      "bufferView": 5,
      "byteOffset": 0,
      "componentType": 5126,
      "count": 666,
      "type": "VEC3",
      "min": [
        -0.07674234360456467,
        -0.08236332982778549,
        -0.3666132092475891
      ],
      "max": [
        0.11328012496232986,
        0.11736863106489182,
        0.5194188952445984
      ]
    }
  ],
  "bufferViews": [
    {
      "buffer": 0,
      "byteOffset": 0,
      "byteLength": 17208,
      "target": 34962
    },
    {
      "buffer": 0,
      "byteOffset": 17208,
      "byteLength": 3696,
      "target": 34962
    },
    {
      "buffer": 0,
      "byteOffset": 20904,
      "byteLength": 14976,
      "target": 34962
    },
    {
      "buffer": 0,
      "byteOffset": 35880,
      "byteLength": 26568,
      "target": 34962
    },
    {
      "buffer": 0,
      "byteOffset": 62448,
      "byteLength": 8472,
      "target": 34962
    },
    {
      "buffer": 0,
      "byteOffset": 70920,
      "byteLength": 7992,
      "target": 34962
    }
  ],
  "buffers": [
    {
      "byteLength": 78912,
      "uri": "data:application/octet-stream;base64,"
    }
  ]
}