{
  "asset": {
    "version": "2.0",
    "generator": "TES-23 Cosmic Ray Renderer"
  },
  "extensionsUsed": [
    "KHR_materials_unlit"
  ],
  "extensionsRequired": [
    "KHR_materials_unlit"
  ],
  "scene": 0,
  "scenes": [
    {
      "nodes": [
        0
      ]
    }
  ],
  "nodes": [
    {
      "name": "CosmicRayEvent",
      "mesh": 0
    }
  ],
  "meshes": [
    {
      "name": "CosmicRayEvent",
      "primitives": [
        {
          "attributes": {
            "POSITION": 0
          },
          "material": 0,
          "mode": 1
        },
        {
          "attributes": {
            "POSITION": 1
          },
          "material": 1,
          "mode": 1
        },
        {
          "attributes": {
            "POSITION": 2
          },
          "material": 2,
          "mode": 1
        },
        {
          "attributes": {
            "POSITION": 3
          },
          "material": 3,
          "mode": 1
        },
        {
          "attributes": {
            "POSITION": 4
          },
          "material": 4,
          "mode": 1
        }
      ]
    }
  ],
  "materials": [
    {
      "name": "primary",
      "extensions": {
        "KHR_materials_unlit": {}
      },
      "pbrMetallicRoughness": {
        "baseColorFactor": [
          0.961,
          0.961,
          0.961,
          1
        ],
        "metallicFactor": 0,
        "roughnessFactor": 1
      }
    },
    {
      "name": "vertex",
      "extensions": {
        "KHR_materials_unlit": {}
      },
      "pbrMetallicRoughness": {
        "baseColorFactor": [
          0.902,
          0.902,
          0.902,
          0.9
        ],
        "metallicFactor": 0,
        "roughnessFactor": 1
      }
    },
    {
      "name": "em",
      "extensions": {
        "KHR_materials_unlit": {}
      },
      "pbrMetallicRoughness": {
        "baseColorFactor": [
          0.471,
          0.824,
          1,
          1
        ],
        "metallicFactor": 0,
        "roughnessFactor": 1
      }
    },
    {
      "name": "hadron",
      "extensions": {
        "KHR_materials_unlit": {}
      },
      "pbrMetallicRoughness": {
        "baseColorFactor": [
          0.549,
          1,
          0.745,
          1
        ],
        "metallicFactor": 0,
        "roughnessFactor": 1
      }
    },
    {
      "name": "delta",
      "extensions": {
        "KHR_materials_unlit": {}
      },
      "pbrMetallicRoughness": {
        "baseColorFactor": [
          0.804,
          0.647,
          1,
          1
        ],
        "metallicFactor": 0,
        "roughnessFactor": 1
      }
    }
  ],
  "accessors": [
    {
      "bufferView": 0,
      "byteOffset": 0,
      "componentType": 5126,
      "count": 1534,
      "type": "VEC3",
      "min": [
        -0.5422570109367371,
        -0.9997239112854004,
        0
      ],
      "max": [
        0.5503271818161011,
        1.021605134010315,
        0
      ]
    },
    {
      "bufferView": 1,
      "byteOffset": 0,
      "componentType": 5126,
      "count": 340,
      "type": "VEC3",
      "min": [
        -0.014272321946918964,
        -0.014150193892419338,
        -0.07208973169326782
      ],
      "max": [
        0.019181877374649048,
        0.030384276062250137,
        0.08294063806533813
      ]
    },
    {
      "bufferView": 2,
      "byteOffset": 0,
      "componentType": 5126,
      "count": 1008,
      "type": "VEC3",
      "min": [
        -0.003776201279833913,
        -0.00255744531750679,
        -0.06818976253271103
      ],
      "max": [
        0.1263735592365265,
        0.25127503275871277,
        0.05564367398619652
      ]
    },
    {
      "bufferView": 3,
      "byteOffset": 0,
      "componentType": 5126,
      "count": 3346,
      "type": "VEC3",
      "min": [
        -0.023600779473781586,
        -0.05355155095458031,
        -1.3414034843444824
      ],
      "max": [
        0.24360330402851105,
        0.29250776767730713,
        0.42562928795814514
      ]
    },
    {
      "bufferView": 4,
      "byteOffset": 0,
      "componentType": 5126,
      "count": 858,
      "type": "VEC3",
      "min": [
        -0.014165177941322327,
        -0.17657490074634552,
        -0.12310332804918289
      ],
      "max": [
        0.29188230633735657,
        0.09743684530258179,
        0.6609293222427368
      ]
    }
  ],
  "bufferViews": [
    {
      "buffer": 0,
      "byteOffset": 0,
      "byteLength": 18408,
      "target": 34962
    },
    {
      "buffer": 0,
      "byteOffset": 18408,
      "byteLength": 4080,
      "target": 34962
    },
    {
      "buffer": 0,
      "byteOffset": 22488,
      "byteLength": 12096,
      "target": 34962
    },
    {
      "buffer": 0,
      "byteOffset": 34584,
      "byteLength": 40152,
      "target": 34962
    },
    {
      "buffer": 0,
      "byteOffset": 74736,
      "byteLength": 10296,
      "target": 34962
    }
  ],
  "buffers": [
    {
      "byteLength": 85032,
      "uri": "data:application/octet-stream;base64,"
    }
  ]
}