<?xml version="1.0" encoding="UTF-8"?>
<svg xmlns="http://www.w3.org/2000/svg" width="2000" height="2000" viewBox="0 0 2000 2000">
<g fill="none" stroke-linecap="round" stroke-linejoin="round">
  <path d="M 1001.50 999.05 L 1000.44 995.77 L 999.43 992.49 L 998.41 989.23 L 997.39 985.99 L 996.35 982.76 L 995.34 979.54 L 994.31 976.35 L 993.29 973.16" stroke="rgb(120,210,255)" stroke-opacity="0.853" stroke-width="1.63" />
  <path d="M 970.53 917.86 L 969.56 914.51 L 968.52 911.19 L 967.52 907.87 L 966.52 904.57 L 965.52 901.29 L 964.52 898.01 L 963.52 894.75 L 962.56 891.49 L 961.59 888.24 L 960.58 885.03 L 959.57 881.82 L 958.56 878.63 L 957.54 875.46" stroke="rgb(120,210,255)" stroke-opacity="0.852" stroke-width="1.63" />
  <path d="M 998.72 998.06 L 997.55 994.98 L 996.36 991.92 L 995.14 988.89 L 993.97 985.85 L 992.73 982.85 L 991.51 979.86 L 990.31 976.88 L 989.13 973.90 L 987.95 970.93 L 986.75 968.00 L 985.55 965.07 L 984.39 962.14 L 983.22 959.23 L 982.03 956.34 L 980.86 953.46 L 979.72 950.58 L 978.57 947.73 L 977.44 944.87 L 976.31 942.03 L 975.17 939.21 L 974.05 936.40 L 972.93 933.59 L 971.81 930.80 L 970.70 928.02 L 969.65 925.24 L 968.61 922.47 L 967.58 919.71 L 966.57 916.94 L 965.59 914.18 L 964.56 911.45 L 963.52 908.73 L 962.45 906.04 L 961.37 903.37 L 960.29 900.70 L 959.21 898.04 L 958.11 895.41 L 957.04 892.77 L 955.99 890.14 L 954.92 887.52 L 953.81 884.93 L 952.69 882.36 L 951.56 879.80 L 950.52 877.23 L 949.47 874.66 L 948.44 872.10 L 947.41 869.56 L 946.40 867.01 L 945.44 864.47 L 944.50 861.93 L 943.57 859.41 L 942.61 856.90" stroke="rgb(120,210,255)" stroke-opacity="0.851" stroke-width="1.63" />
  <path d="M 971.13 932.65 L 969.82 929.82 L 968.51 927.01 L 967.36 924.13 L 966.21 921.28 L 965.10 918.42 L 963.94 915.59 L 962.80 912.77 L 961.72 909.93 L 960.66 907.11 L 959.57 904.31 L 958.48 901.53 L 957.37 898.78 L 956.26 896.04 L 955.14 893.31 L 953.99 890.61 L 952.93 887.89 L 951.86 885.17 L 950.86 882.45 L 949.80 879.75 L 948.75 877.06 L 947.73 874.36 L 946.66 871.70 L 945.61 869.05 L 944.52 866.42 L 943.47 863.79 L 942.28 861.24 L 941.10 858.70 L 939.93 856.16 L 938.76 853.64 L 937.60 851.13 L 936.42 848.63 L 935.22 846.16 L 934.00 843.72 L 932.74 841.32 L 931.50 838.93 L 930.25 836.54 L 929.03 834.17 L 927.85 831.78 L 926.64 829.40 L 925.39 827.07 L 924.14 824.74 L 922.88 822.44 L 921.72 820.10 L 920.52 817.80 L 919.34 815.50 L 918.17 813.20 L 916.98 810.92 L 915.79 808.66 L 914.61 806.39 L 913.44 804.14 L 912.30 801.89 L 911.17 799.65" stroke="rgb(120,210,255)" stroke-opacity="0.850" stroke-width="1.62" />
  <path d="M 998.34 1001.24 L 997.13 998.26 L 995.91 995.29 L 994.74 992.31 L 993.60 989.34 L 992.46 986.38 L 991.30 983.44 L 990.16 980.51 L 988.97 977.61 L 987.76 974.73 L 986.54 971.88 L 985.37 969.01 L 984.21 966.16 L 983.04 963.33 L 981.89 960.50 L 980.78 957.68 L 979.66 954.87 L 978.56 952.06 L 977.46 949.26 L 976.29 946.50 L 975.25 943.71 L 974.19 940.94 L 973.17 938.16 L 972.13 935.41 L 971.13 932.65 L 970.10 929.91 L 969.08 927.19 L 968.10 924.46 L 967.12 921.74 L 966.18 919.01 L 965.25 916.30 L 964.36 913.59 L 963.47 910.89 L 962.58 908.20 L 961.63 905.54 L 960.70 902.89 L 959.81 900.24 L 958.91 897.60 L 958.02 894.97 L 957.10 892.36 L 956.17 889.77 L 955.20 887.21 L 954.24 884.65 L 953.34 882.08 L 952.42 879.53 L 951.50 876.99 L 950.56 874.47 L 949.63 871.96 L 948.71 869.45 L 947.78 866.96 L 946.85 864.48 L 945.90 862.02 L 944.96 859.57 L 944.08 857.11 L 943.14 854.68 L 942.15 852.29 L 941.18 849.90 L 940.22 847.52 L 939.26 845.14 L 938.32 842.78 L 937.39 840.42 L 936.47 838.06 L 935.57 835.71 L 934.69 833.36" stroke="rgb(120,210,255)" stroke-opacity="0.848" stroke-width="1.62" />
  <path d="M 979.66 954.87 L 978.69 951.72 L 977.68 948.59 L 976.67 945.49 L 975.66 942.39 L 974.68 939.30 L 973.70 936.23 L 972.67 933.18 L 971.61 930.16 L 970.56 927.14 L 969.51 924.15 L 968.45 921.17 L 967.38 918.20 L 966.34 915.24 L 965.34 912.28 L 964.34 909.33 L 963.37 906.39 L 962.44 903.45 L 961.50 900.54 L 960.52 897.65 L 959.46 894.81" stroke="rgb(120,210,255)" stroke-opacity="0.846" stroke-width="1.61" />
  <path d="M 998.78 999.84 L 997.73 996.53 L 996.66 993.25 L 995.58 989.99 L 994.51 986.74 L 993.45 983.50 L 992.40 980.27 L 991.35 977.06 L 990.27 973.87 L 989.18 970.70 L 988.07 967.56 L 986.93 964.44 L 985.83 961.32 L 984.72 958.22 L 983.60 955.14 L 982.44 952.08 L 981.29 949.04 L 980.12 946.01 L 978.99 942.99" stroke="rgb(120,210,255)" stroke-opacity="0.844" stroke-width="1.61" />
  <path d="M 977.46 949.26 L 976.57 946.00 L 975.65 942.76 L 974.74 939.53 L 973.84 936.32 L 972.91 933.11 L 972.00 929.92 L 971.12 926.74 L 970.26 923.56 L 969.38 920.40 L 968.57 917.24 L 967.76 914.09 L 966.91 910.96 L 966.04 907.85 L 965.17 904.76 L 964.30 901.68 L 963.45 898.61 L 962.61 895.55 L 961.77 892.50 L 960.94 889.46 L 960.13 886.43 L 959.32 883.41 L 958.50 880.41 L 957.69 877.42 L 956.86 874.45 L 956.05 871.48 L 955.25 868.52 L 954.43 865.58 L 953.61 862.66 L 952.75 859.76" stroke="rgb(120,210,255)" stroke-opacity="0.842" stroke-width="1.60" />
  <path d="M 997.61 997.07 L 996.52 993.79 L 995.43 990.53 L 994.35 987.29 L 993.28 984.05 L 992.23 980.82 L 991.19 977.60 L 990.12 974.41 L 989.05 971.23 L 987.99 968.06 L 986.89 964.92 L 985.83 961.78 L 984.80 958.64 L 983.77 955.52 L 982.75 952.40 L 981.72 949.31 L 980.69 946.22 L 979.72 943.13 L 978.76 940.06 L 977.73 937.01 L 976.66 934.00 L 975.56 931.01 L 974.49 928.02 L 973.42 925.05 L 972.38 922.08 L 971.34 919.12 L 970.31 916.17 L 969.28 913.24 L 968.23 910.32 L 967.23 907.41 L 966.27 904.49 L 965.27 901.60 L 964.25 898.72 L 963.27 895.85 L 962.35 892.98 L 961.45 890.11 L 960.55 887.25 L 959.69 884.39 L 958.82 881.55 L 957.93 878.73 L 957.03 875.93 L 956.11 873.14 L 955.21 870.36 L 954.32 867.59 L 953.44 864.82 L 952.61 862.05 L 951.77 859.30 L 950.93 856.55 L 950.08 853.83 L 949.24 851.11 L 948.39 848.40 L 947.59 845.69 L 946.80 842.99 L 945.94 840.33 L 945.09 837.67 L 944.23 835.02 L 943.40 832.39 L 942.55 829.76 L 941.66 827.17 L 940.75 824.59 L 939.81 822.03 L 938.86 819.49 L 937.89 816.97 L 936.89 814.46 L 935.89 811.98 L 934.85 809.52 L 933.82 807.07 L 932.78 804.63 L 931.75 802.20 L 930.72 799.78 L 929.73 797.36 L 928.73 794.95 L 927.73 792.56 L 926.72 790.17 L 925.70 787.81 L 924.69 785.45 L 923.67 783.10 L 922.63 780.78 L 921.58 778.47 L 920.53 776.18 L 919.48 773.89 L 918.43 771.62 L 917.35 769.37 L 916.28 767.13 L 915.21 764.90 L 914.17 762.66 L 913.13 760.44 L 912.09 758.23 L 911.01 756.05 L 909.94 753.87 L 908.88 751.70 L 907.84 749.53 L 906.80 747.37 L 905.77 745.22 L 904.73 743.08 L 903.70 740.95 L 902.66 738.83" stroke="rgb(120,210,255)" stroke-opacity="0.842" stroke-width="1.60" />
  <path d="M 969.29 908.95 L 968.20 905.93 L 967.13 902.93 L 966.02 899.96 L 965.00 896.96 L 963.98 893.98 L 962.94 891.01 L 961.89 888.07 L 960.82 885.15 L 959.75 882.24 L 958.68 879.35 L 957.62 876.46 L 956.57 873.59 L 955.48 870.77 L 954.32 867.97 L 953.19 865.18 L 952.07 862.39 L 951.02 859.58 L 949.98 856.78 L 948.85 854.04 L 947.72 851.30 L 946.55 848.61 L 945.38 845.93 L 944.22 843.26 L 943.08 840.64 L 941.95 838.02 L 940.80 835.43 L 939.67 832.85 L 938.51 830.30 L 937.31 827.77 L 936.17 825.26 L 934.99 822.76 L 933.80 820.31" stroke="rgb(120,210,255)" stroke-opacity="0.840" stroke-width="1.59" />
  <path d="M 981.22 956.07 L 980.75 952.83 L 980.28 949.60 L 979.80 946.38 L 979.30 943.19 L 978.75 940.01 L 978.25 936.84 L 977.75 933.68 L 977.25 930.54 L 976.77 927.40 L 976.31 924.28 L 975.82 921.17 L 975.26 918.08 L 974.67 915.02 L 973.95 911.99 L 973.12 909.01 L 972.27 906.05 L 971.37 903.11 L 970.47 900.19 L 969.57 897.28 L 968.61 894.40 L 967.66 891.54 L 966.75 888.67 L 965.89 885.81 L 965.02 882.96 L 964.15 880.13 L 963.31 877.30 L 962.47 874.48 L 961.63 871.67 L 960.80 868.87 L 959.96 866.09 L 959.10 863.33 L 958.29 860.56 L 957.43 857.83 L 956.58 855.10 L 955.74 852.39 L 954.90 849.69 L 954.13 846.98 L 953.35 844.29 L 952.55 841.62 L 951.69 838.98 L 950.88 836.33 L 950.07 833.69 L 949.25 831.07 L 948.43 828.46 L 947.65 825.86 L 946.85 823.28 L 946.05 820.71 L 945.25 818.16 L 944.53 815.61 L 943.86 813.05 L 943.23 810.49 L 942.59 807.94 L 942.03 805.40 L 941.44 802.87 L 940.78 800.37 L 940.18 797.86" stroke="rgb(120,210,255)" stroke-opacity="0.840" stroke-width="1.59" />
  <path d="M 997.04 1001.22 L 996.10 998.77 L 995.14 996.34 L 994.18 993.92 L 993.24 991.51 L 992.28 989.12 L 991.36 986.73 L 990.44 984.35 L 989.61 981.95 L 988.91 979.51 L 988.13 977.11 L 987.33 974.73 L 986.53 972.37 L 985.76 970.01 L 985.07 967.64 L 984.39 965.27 L 983.67 962.92 L 982.86 960.61 L 982.04 958.34 L 981.22 956.07 L 980.46 953.80 L 979.75 951.53 L 979.02 949.27 L 978.32 947.00 L 977.71 944.71 L 977.05 942.44 L 976.43 940.17 L 975.86 937.90 L 975.26 935.64 L 974.66 933.40 L 974.05 931.16 L 973.35 928.96 L 972.69 926.75 L 972.09 924.53 L 971.50 922.31 L 970.96 920.09 L 970.53 917.86 L 970.16 915.63 L 969.83 913.40 L 969.55 911.17 L 969.29 908.95 L 969.02 906.73 L 968.76 904.52 L 968.50 902.32 L 968.23 900.14" stroke="rgb(120,210,255)" stroke-opacity="0.449" stroke-width="1.52" />
  <path d="M 1001.49 998.31 L 1000.73 996.35 L 999.95 994.39 L 999.21 992.44 L 998.44 990.50 L 997.64 988.58 L 996.82 986.69 L 996.12 984.75 L 995.35 982.86 L 994.53 981.00 L 993.68 979.16 L 992.85 977.32 L 992.00 975.52 L 991.16 973.75 L 990.29 971.99 L 989.48 970.20 L 988.68 968.41 L 987.92 966.63 L 987.21 964.82 L 986.44 963.03 L 985.72 961.23 L 984.98 959.45 L 984.26 957.67 L 983.52 955.92 L 982.78 954.17 L 982.03 952.42 L 981.27 950.69 L 980.50 948.97 L 979.73 947.26 L 978.92 945.58 L 978.11 943.90 L 977.33 942.21 L 976.52 940.54 L 975.71 938.89 L 974.94 937.23 L 974.17 935.58" stroke="rgb(140,255,190)" stroke-opacity="0.597" stroke-width="1.34" />
  <path d="M 1001.29 999.30 L 1000.97 996.89 L 1000.69 994.48 L 1000.43 992.04 L 1000.18 989.62 L 999.91 987.19 L 999.61 984.77 L 999.32 982.36 L 999.07 979.96 L 998.82 977.56 L 998.60 975.18 L 998.32 972.81 L 998.08 970.41 L 997.86 968.01 L 997.63 965.63 L 997.41 963.25 L 997.19 960.89 L 996.97 958.56 L 996.79 956.20 L 996.60 953.86 L 996.43 951.53 L 996.29 949.16 L 996.15 946.81 L 996.05 944.49 L 995.91 942.18 L 995.77 939.88 L 995.63 937.58 L 995.47 935.30 L 995.31 933.05 L 995.14 930.79 L 994.97 928.57 L 994.78 926.35 L 994.58 924.15 L 994.39 921.92 L 994.23 919.68 L 994.08 917.46 L 993.90 915.30 L 993.77 913.15 L 993.61 911.03 L 993.47 908.91 L 993.35 906.80 L 993.17 904.69 L 992.95 902.61 L 992.74 900.54 L 992.52 898.47 L 992.32 896.38 L 992.10 894.30 L 991.83 892.24 L 991.56 890.19 L 991.25 888.14 L 990.96 886.06 L 990.66 884.01 L 990.38 881.97 L 990.10 879.95 L 989.84 877.94" stroke="rgb(205,165,255)" stroke-opacity="0.723" stroke-width="1.25" />
  <path d="M 966.77 912.85 L 966.11 910.96 L 965.40 909.09 L 964.62 907.35 L 963.90 905.63 L 963.19 903.87 L 962.58 902.19 L 961.98 900.50 L 961.40 898.90 L 960.95 897.37 L 960.56 895.90 L 960.25 894.42 L 959.89 892.93 L 959.53 891.48 L 959.21 889.99 L 958.93 888.49 L 958.66 886.99 L 958.43 885.42 L 958.19 883.85 L 957.89 882.34 L 957.65 880.91 L 957.41 879.48 L 957.15 878.02 L 956.99 876.65 L 957.02 875.34 L 957.02 873.95 L 957.03 872.56 L 956.94 871.17 L 956.76 869.82 L 956.53 868.55 L 956.21 867.29 L 955.96 866.02 L 955.72 864.72 L 955.49 863.46 L 955.25 862.22 L 955.05 861.06 L 954.87 859.89 L 954.49 858.88 L 954.10 857.79 L 953.76 856.73 L 953.38 855.62 L 953.01 854.52 L 952.62 853.43 L 952.07 852.36 L 951.53 851.32 L 951.01 850.31 L 950.46 849.28 L 949.89 848.17 L 949.38 847.11 L 948.87 846.05 L 948.45 844.93 L 948.03 843.91 L 947.66 842.82 L 947.22 841.75 L 946.67 840.67 L 946.08 839.59 L 945.51 838.54 L 944.96 837.45 L 944.48 836.30 L 944.02 835.15 L 943.54 834.01 L 943.14 832.86 L 942.70 831.75 L 942.18 830.61 L 941.66 829.52" stroke="rgb(140,255,190)" stroke-opacity="0.562" stroke-width="1.22" />
  <path d="M 997.80 1001.05 L 997.09 998.86 L 996.37 996.68 L 995.65 994.51 L 995.00 992.33 L 994.40 990.15 L 993.72 988.00 L 993.08 985.85 L 992.42 983.73 L 991.76 981.60 L 991.11 979.49 L 990.46 977.39 L 989.74 975.31 L 989.04 973.24 L 988.30 971.19 L 987.60 969.14 L 986.77 967.16 L 985.96 965.16 L 985.13 963.18 L 984.25 961.23 L 983.43 959.26 L 982.66 957.29 L 981.90 955.33 L 981.13 953.37 L 980.39 951.41 L 979.66 949.46 L 978.85 947.55 L 978.08 945.63 L 977.25 943.75 L 976.38 941.89 L 975.50 940.04 L 974.66 938.18 L 973.82 936.35" stroke="rgb(140,255,190)" stroke-opacity="0.560" stroke-width="1.21" />
  <path d="M 1031.11 1040.90 L 1031.48 1042.44 L 1031.87 1043.97 L 1032.18 1045.56 L 1032.55 1047.18 L 1032.91 1048.81 L 1033.38 1050.44 L 1033.91 1051.99 L 1034.48 1053.56 L 1034.95 1055.22 L 1035.42 1056.87 L 1035.90 1058.48 L 1036.47 1059.94 L 1037.22 1061.33 L 1037.97 1062.75 L 1038.82 1064.13 L 1039.70 1065.37 L 1040.48 1066.63 L 1041.28 1067.89 L 1042.13 1069.16 L 1043.02 1070.40 L 1044.03 1071.53 L 1045.05 1072.63 L 1045.90 1073.76 L 1046.68 1074.93 L 1047.57 1076.10 L 1048.46 1077.27 L 1049.32 1078.43 L 1050.19 1079.54 L 1051.03 1080.62 L 1051.91 1081.70 L 1052.79 1082.78 L 1053.64 1083.85 L 1054.45 1084.91 L 1055.25 1085.88 L 1055.97 1086.91 L 1056.72 1087.93 L 1057.49 1088.93 L 1058.17 1089.78 L 1058.73 1090.67 L 1059.25 1091.31 L 1059.70 1092.01 L 1060.23 1092.73 L 1060.67 1093.44 L 1061.11 1094.15 L 1061.56 1094.84 L 1062.01 1095.56 L 1062.42 1096.18 L 1062.83 1096.78" stroke="rgb(140,255,190)" stroke-opacity="0.554" stroke-width="1.19" />
  <path d="M 998.20 998.93 L 997.23 995.57 L 996.25 992.23 L 995.27 988.90 L 994.31 985.58 L 993.35 982.27 L 992.34 979.00 L 991.34 975.74 L 990.35 972.49 L 989.36 969.25 L 988.37 966.03 L 987.36 962.83 L 986.30 959.66 L 985.23 956.51 L 984.17 953.37 L 983.11 950.24 L 982.05 947.12 L 980.99 944.02 L 979.93 940.94 L 978.89 937.86 L 977.84 934.80 L 976.80 931.75 L 975.74 928.72 L 974.70 925.70 L 973.70 922.68 L 972.70 919.67 L 971.72 916.68 L 970.72 913.71 L 969.73 910.75 L 968.75 907.79 L 967.78 904.84 L 966.78 901.91 L 965.79 899.00 L 964.80 896.09 L 963.87 893.19 L 962.94 890.29 L 962.02 887.40 L 961.11 884.52 L 960.19 881.65 L 959.29 878.80 L 958.40 875.95 L 957.51 873.11 L 956.59 870.30 L 955.66 867.50 L 954.74 864.71 L 953.87 861.92" stroke="rgb(140,255,190)" stroke-opacity="0.737" stroke-width="1.19" />
  <path d="M 998.39 1000.62 L 997.34 997.61 L 996.26 994.62 L 995.17 991.64 L 994.05 988.70 L 992.94 985.76 L 991.85 982.83 L 990.75 979.92 L 989.66 977.01 L 988.59 974.11 L 987.54 971.23 L 986.53 968.33 L 985.52 965.46 L 984.51 962.60 L 983.52 959.73 L 982.54 956.88 L 981.65 954.01 L 980.74 951.16 L 979.85 948.31 L 978.92 945.49 L 978.01 942.68 L 977.14 939.87 L 976.30 937.06 L 975.43 934.27 L 974.56 931.49 L 973.66 928.73 L 972.82 925.97 L 971.91 923.25 L 971.00 920.53 L 970.10 917.82 L 969.22 915.12 L 968.31 912.44 L 967.40 909.77 L 966.50 907.11 L 965.64 904.45 L 964.77 901.80 L 963.94 899.15 L 963.12 896.51 L 962.33 893.87 L 961.57 891.24 L 960.81 888.62 L 960.08 886.01 L 959.32 883.41 L 958.57 880.82 L 957.79 878.25 L 957.02 875.69 L 956.23 873.15 L 955.38 870.63 L 954.55 868.12 L 953.72 865.61 L 952.86 863.13" stroke="rgb(205,165,255)" stroke-opacity="0.699" stroke-width="1.19" />
  <path d="M 1000.32 998.97 L 999.60 996.80 L 998.85 994.65 L 998.09 992.51 L 997.34 990.38 L 996.59 988.27 L 995.90 986.16 L 995.21 984.05 L 994.51 981.95 L 993.87 979.83 L 993.18 977.73 L 992.48 975.66 L 991.68 973.61 L 990.97 971.55 L 990.24 969.49 L 989.46 967.47" stroke="rgb(140,255,190)" stroke-opacity="0.552" stroke-width="1.18" />
  <path d="M 1001.58 998.90 L 1000.76 995.56 L 999.96 992.22 L 999.17 988.90 L 998.38 985.58 L 997.58 982.29 L 996.76 979.01 L 995.90 975.76 L 995.07 972.52 L 994.22 969.30 L 993.43 966.07 L 992.62 962.87 L 991.81 959.68 L 991.00 956.50 L 990.16 953.34 L 989.32 950.20 L 988.54 947.05 L 987.76 943.92 L 986.97 940.80 L 986.19 937.69 L 985.40 934.60 L 984.62 931.52 L 983.83 928.46 L 982.99 925.42 L 982.13 922.41 L 981.29 919.40 L 980.46 916.40 L 979.65 913.42 L 978.84 910.45 L 978.00 907.50 L 977.15 904.56 L 976.33 901.62 L 975.53 898.69 L 974.73 895.76 L 973.94 892.85 L 973.19 889.94 L 972.46 887.04 L 971.73 884.14 L 971.00 881.27 L 970.25 878.41 L 969.47 875.57 L 968.68 872.75 L 967.84 869.95 L 967.03 867.15" stroke="rgb(140,255,190)" stroke-opacity="0.734" stroke-width="1.18" />
  <path d="M 955.74 876.05 L 954.52 873.02 L 953.30 869.99 L 952.15 866.94 L 950.99 863.90 L 949.83 860.88 L 948.69 857.86 L 947.54 854.85 L 946.36 851.88 L 945.13 848.95 L 943.92 846.02 L 942.70 843.12 L 941.47 840.25 L 940.24 837.40 L 938.96 834.58 L 937.68 831.77 L 936.41 828.97 L 935.13 826.20 L 933.86 823.44 L 932.58 820.69 L 931.26 818.00 L 929.95 815.33 L 928.68 812.61 L 927.39 809.90 L 926.12 807.20 L 924.85 804.51 L 923.66 801.80 L 922.47 799.11 L 921.27 796.44 L 920.05 793.83 L 918.83 791.22 L 917.62 788.59 L 916.41 785.98 L 915.21 783.36 L 914.02 780.75 L 912.84 778.14 L 911.66 775.54 L 910.49 772.97 L 909.31 770.39 L 908.11 767.84 L 906.91 765.30 L 905.70 762.78 L 904.50 760.26 L 903.30 757.76 L 902.11 755.25 L 900.93 752.74 L 899.74 750.27 L 898.54 747.81 L 897.35 745.35 L 896.14 742.90 L 894.89 740.47 L 893.65 738.06 L 892.39 735.67 L 891.16 733.28 L 889.91 730.92 L 888.67 728.57 L 887.44 726.23 L 886.20 723.93 L 884.97 721.63 L 883.75 719.34 L 882.56 717.05 L 881.37 714.75 L 880.20 712.45 L 879.04 710.16 L 877.85 707.91 L 876.67 705.70 L 875.49 703.50 L 874.32 701.32 L 873.18 699.13 L 872.04 696.93 L 870.89 694.75 L 869.75 692.58 L 868.62 690.41 L 867.49 688.25 L 866.37 686.11 L 865.25 683.99 L 864.15 681.86 L 863.09 679.74 L 862.02 677.62 L 860.95 675.52 L 859.85 673.43 L 858.75 671.35" stroke="rgb(140,255,190)" stroke-opacity="0.733" stroke-width="1.18" />
  <path d="M 1000.17 1061.44 L 1001.44 1064.33 L 1002.75 1067.20 L 1004.07 1070.06 L 1005.38 1072.92 L 1006.64 1075.77 L 1007.89 1078.61 L 1009.16 1081.45 L 1010.42 1084.28 L 1011.73 1087.07 L 1013.03 1089.86 L 1014.35 1092.65 L 1015.70 1095.42 L 1017.01 1098.19 L 1018.34 1100.94 L 1019.66 1103.69 L 1020.98 1106.44 L 1022.34 1109.14 L 1023.69 1111.84 L 1025.04 1114.51 L 1026.42 1117.15 L 1027.72 1119.82" stroke="rgb(140,255,190)" stroke-opacity="0.731" stroke-width="1.17" />
  <path d="M 1002.21 1040.45 L 1000.61 1043.21 L 999.06 1045.98 L 997.52 1048.74 L 996.01 1051.51 L 994.49 1054.24 L 992.94 1056.94 L 991.46 1059.66 L 990.02 1062.37 L 988.58 1065.08 L 987.09 1067.75 L 985.59 1070.41 L 984.10 1073.07 L 982.59 1075.71 L 981.07 1078.32 L 979.56 1080.94 L 978.06 1083.54 L 976.52 1086.12 L 974.99 1088.69 L 973.51 1091.25 L 972.01 1093.80 L 970.53 1096.35 L 969.06 1098.88 L 967.59 1101.40 L 966.12 1103.94 L 964.66 1106.46 L 963.24 1109.00 L 961.83 1111.53 L 960.41 1114.04 L 958.99 1116.54 L 957.60 1119.04 L 956.25 1121.57 L 954.92 1124.08 L 953.54 1126.57 L 952.20 1129.08 L 950.88 1131.59 L 949.57 1134.08 L 948.24 1136.56 L 946.87 1139.00 L 945.46 1141.40 L 943.98 1143.73 L 942.54 1146.08 L 941.10 1148.43 L 939.66 1150.76 L 938.20 1153.07 L 936.70 1155.35 L 935.15 1157.57 L 933.60 1159.78 L 932.07 1161.99 L 930.50 1164.13 L 928.92 1166.26" stroke="rgb(140,255,190)" stroke-opacity="0.728" stroke-width="1.16" />
  <path d="M 1000.87 999.41 L 1002.65 1001.95 L 1004.44 1004.49 L 1006.24 1007.01 L 1008.02 1009.52 L 1009.76 1012.02 L 1011.49 1014.51 L 1013.22 1017.00 L 1014.99 1019.46 L 1016.76 1021.90 L 1018.53 1024.31 L 1020.30 1026.71 L 1022.08 1029.10 L 1023.86 1031.48 L 1025.63 1033.86 L 1027.44 1036.21 L 1029.28 1038.55 L 1031.11 1040.90 L 1032.92 1043.24 L 1034.72 1045.58 L 1036.58 1047.85 L 1038.40 1050.13 L 1040.22 1052.39 L 1042.01 1054.64 L 1043.79 1056.89 L 1045.57 1059.13 L 1047.33 1061.34 L 1049.08 1063.55 L 1050.83 1065.74 L 1052.59 1067.89 L 1054.29 1070.09 L 1056.02 1072.25" stroke="rgb(140,255,190)" stroke-opacity="0.728" stroke-width="1.16" />
  <path d="M 973.08 924.54 L 972.45 921.70 L 971.73 918.87 L 970.96 916.07 L 970.20 913.27 L 969.51 910.48 L 968.80 907.68 L 968.10 904.88 L 967.44 902.07 L 966.75 899.29 L 966.03 896.56 L 965.32 893.83 L 964.60 891.11 L 963.83 888.39 L 963.01 885.66 L 962.20 882.95 L 961.32 880.30 L 960.46 877.65 L 959.59 875.01 L 958.70 872.36 L 957.82 869.71 L 956.94 867.07 L 956.09 864.45 L 955.29 861.80 L 954.47 859.14 L 953.62 856.49 L 952.69 853.87 L 951.75 851.27 L 950.84 848.68 L 949.97 846.09 L 949.23 843.48 L 948.50 840.89 L 947.80 838.34 L 947.10 835.81 L 946.42 833.29 L 945.75 830.77 L 945.13 828.27 L 944.56 825.78 L 944.02 823.32 L 943.49 820.89 L 942.93 818.48 L 942.30 816.11 L 941.71 813.71 L 941.11 811.33 L 940.52 808.96 L 939.97 806.61 L 939.42 804.27 L 938.88 801.96 L 938.34 799.63 L 937.79 797.32 L 937.25 795.01 L 936.67 792.74 L 936.15 790.46 L 935.63 788.17 L 935.17 785.86 L 934.72 783.58 L 934.25 781.29 L 933.78 779.03 L 933.39 776.73 L 933.04 774.44 L 932.71 772.16 L 932.33 769.86 L 931.96 767.57 L 931.61 765.32 L 931.26 763.08 L 930.83 760.85 L 930.43 758.60 L 930.03 756.35 L 929.58 754.14 L 929.09 751.95 L 928.61 749.77 L 928.12 747.59 L 927.66 745.43" stroke="rgb(140,255,190)" stroke-opacity="0.728" stroke-width="1.16" />
  <path d="M 956.59 870.30 L 954.84 867.57 L 953.10 864.84 L 951.35 862.14 L 949.62 859.44 L 947.85 856.78 L 946.12 854.12 L 944.40 851.47 L 942.67 848.84 L 940.92 846.24 L 939.19 843.65 L 937.51 841.04 L 935.85 838.41 L 934.20 835.80 L 932.56 833.19 L 930.92 830.60 L 929.29 828.01 L 927.69 825.41 L 926.10 822.81 L 924.54 820.24 L 922.95 817.69 L 921.35 815.17 L 919.76 812.66 L 918.20 810.13 L 916.65 807.61 L 915.15 805.07 L 913.62 802.56 L 912.15 800.02 L 910.68 797.49 L 909.23 794.97 L 907.74 792.47 L 906.28 789.98 L 904.84 787.48 L 903.40 784.99 L 902.01 782.49 L 900.61 780.00 L 899.22 777.53 L 897.87 775.06 L 896.53 772.61 L 895.19 770.16 L 893.89 767.72 L 892.60 765.29 L 891.33 762.87 L 890.02 760.47 L 888.72 758.08 L 887.40 755.70 L 886.04 753.38 L 884.68 751.07 L 883.25 748.81 L 881.82 746.57 L 880.43 744.32 L 879.03 742.07 L 877.61 739.84 L 876.19 737.67 L 874.80 735.51 L 873.40 733.36 L 872.01 731.24 L 870.62 729.13 L 869.23 727.02 L 867.84 724.95 L 866.47 722.85 L 865.11 720.76 L 863.79 718.66 L 862.47 716.57 L 861.15 714.50 L 859.78 712.48 L 858.42 710.47 L 857.06 708.47 L 855.72 706.46 L 854.38 704.47 L 852.98 702.52 L 851.58 700.58 L 850.19 698.65 L 848.81 696.72 L 847.43 694.79 L 846.03 692.89 L 844.66 690.97 L 843.25 689.09 L 841.87 687.19 L 840.46 685.30 L 839.07 683.43 L 837.69 681.56 L 836.31 679.68 L 835.01 677.77 L 833.74 675.85" stroke="rgb(140,255,190)" stroke-opacity="0.726" stroke-width="1.16" />
  <path d="M 1000.93 1000.88 L 998.95 999.44 L 996.98 997.99 L 994.96 996.54 L 992.98 995.09 L 991.08 993.65 L 989.18 992.21 L 987.26 990.82 L 985.34 989.43 L 983.45 988.03 L 981.56 986.64 L 979.71 985.23 L 977.85 983.88 L 976.04 982.51 L 974.24 981.15 L 972.45 979.81 L 970.66 978.47 L 968.89 977.14 L 967.11 975.82 L 965.36 974.46 L 963.61 973.10 L 961.85 971.77 L 960.08 970.44 L 958.30 969.11 L 956.58 967.76 L 954.82 966.43 L 953.06 965.10 L 951.34 963.82 L 949.65 962.55 L 947.98 961.29 L 946.30 960.01 L 944.63 958.72 L 942.96 957.42 L 941.29 956.15 L 939.59 954.89 L 937.89 953.65 L 936.22 952.38 L 934.55 951.13 L 932.87 949.89 L 931.20 948.59 L 929.54 947.31 L 927.91 946.02 L 926.28 944.73 L 924.67 943.46 L 923.10 942.19 L 921.50 940.98 L 919.90 939.81 L 918.27 938.65 L 916.68 937.47 L 915.06 936.34 L 913.44 935.27 L 911.79 934.25 L 910.13 933.23 L 908.47 932.24 L 906.80 931.26 L 905.09 930.28 L 903.40 929.34 L 901.70 928.38 L 900.00 927.42 L 898.32 926.47 L 896.63 925.58 L 894.94 924.69 L 893.27 923.77 L 891.60 922.84 L 889.90 921.95 L 888.22 921.07 L 886.56 920.20 L 884.91 919.33 L 883.28 918.44 L 881.63 917.59 L 879.98 916.75 L 878.33 915.90 L 876.67 914.99 L 875.02 914.04 L 873.33 913.11 L 871.66 912.16 L 869.98 911.23 L 868.33 910.29 L 866.69 909.35" stroke="rgb(140,255,190)" stroke-opacity="0.726" stroke-width="1.16" />
  <path d="M 983.13 954.49 L 981.89 951.98 L 980.66 949.45 L 979.43 946.95 L 978.15 944.46 L 976.88 942.02 L 975.67 939.57 L 974.46 937.18 L 973.21 934.80 L 971.94 932.38 L 970.63 930.04 L 969.27 927.75 L 967.93 925.47 L 966.57 923.15 L 965.30 920.86 L 963.98 918.60 L 962.69 916.39 L 961.40 914.20 L 960.17 912.05 L 959.01 909.88 L 957.84 907.73 L 956.68 905.57 L 955.47 903.46 L 954.29 901.34 L 953.10 899.23 L 951.92 897.15 L 950.78 895.10 L 949.69 893.00 L 948.62 890.92 L 947.66 888.82 L 946.71 886.74 L 945.76 884.66 L 944.83 882.60 L 943.92 880.55 L 943.02 878.49 L 942.10 876.43 L 941.23 874.35 L 940.38 872.31 L 939.54 870.25 L 938.75 868.19 L 938.00 866.12 L 937.35 864.06 L 936.74 862.03 L 936.14 859.98" stroke="rgb(140,255,190)" stroke-opacity="0.725" stroke-width="1.16" />
  <path d="M 955.96 866.02 L 955.33 864.46 L 954.66 863.01 L 954.03 861.59 L 953.33 860.23 L 952.66 858.88 L 952.00 857.59 L 951.18 856.36 L 950.32 855.13 L 949.49 853.96 L 948.66 852.73 L 947.90 851.56 L 947.07 850.45 L 946.07 849.32 L 945.12 848.08 L 944.19 847.02 L 943.27 845.93 L 942.43 844.90 L 941.57 843.90 L 940.69 842.82 L 939.78 841.74 L 938.90 840.63 L 938.09 839.44 L 937.40 838.20 L 936.70 836.92 L 936.17 835.64 L 935.67 834.37 L 935.14 833.19 L 934.64 831.96 L 934.15 830.74 L 933.69 829.45 L 933.20 828.15 L 932.72 826.80 L 932.28 825.50 L 931.86 824.24 L 931.43 822.83 L 931.05 821.64 L 930.70 820.43 L 930.28 819.27 L 929.89 818.00 L 929.60 816.78 L 929.28 815.56 L 928.84 814.30 L 928.47 813.00 L 928.05 811.79 L 927.63 810.55 L 927.32 809.33 L 927.04 808.12 L 926.79 806.98 L 926.50 805.84 L 926.22 804.69 L 925.95 803.55 L 925.73 802.45 L 925.49 801.28 L 925.29 800.10 L 925.09 798.92 L 924.93 797.72 L 924.73 796.45 L 924.52 795.24 L 924.32 794.01 L 924.12 792.80 L 923.93 791.63 L 923.67 790.45 L 923.32 789.32 L 922.98 788.10 L 922.62 786.86 L 922.27 785.59 L 921.92 784.34 L 921.57 783.13 L 921.12 781.85 L 920.69 780.56 L 920.25 779.33 L 919.80 778.11 L 919.31 776.89 L 918.85 775.67 L 918.41 774.44 L 917.77 773.28" stroke="rgb(140,255,190)" stroke-opacity="0.543" stroke-width="1.15" />
  <path d="M 973.96 936.54 L 973.77 933.28 L 973.59 930.03 L 973.43 926.80 L 973.24 923.58 L 973.05 920.37 L 972.82 917.18 L 972.64 914.01 L 972.46 910.84 L 972.28 907.69" stroke="rgb(140,255,190)" stroke-opacity="0.723" stroke-width="1.15" />
  <path d="M 999.93 1000.73 L 998.96 997.65 L 998.05 994.56 L 997.15 991.49 L 996.26 988.43 L 995.35 985.39 L 994.41 982.37 L 993.48 979.37 L 992.62 976.35 L 991.77 973.34 L 990.91 970.35 L 990.07 967.36 L 989.26 964.38 L 988.40 961.43 L 987.54 958.49 L 986.71 955.55 L 985.88 952.62 L 985.06 949.71 L 984.23 946.81 L 983.34 943.94 L 982.46 941.08 L 981.60 938.22 L 980.75 935.38 L 979.88 932.55 L 979.03 929.73 L 978.19 926.92 L 977.36 924.12 L 976.48 921.35 L 975.61 918.58 L 974.75 915.83 L 973.89 913.09 L 973.02 910.36 L 972.16 907.64 L 971.30 904.93 L 970.44 902.24 L 969.61 899.55 L 968.76 896.87 L 967.93 894.20 L 967.12 891.54 L 966.29 888.89 L 965.47 886.25 L 964.63 883.63 L 963.77 881.03 L 962.92 878.43 L 962.09 875.84 L 961.28 873.26 L 960.48 870.69 L 959.65 868.13 L 958.83 865.59 L 958.01 863.05 L 957.18 860.53 L 956.35 858.02 L 955.54 855.52" stroke="rgb(140,255,190)" stroke-opacity="0.721" stroke-width="1.15" />
  <path d="M 997.35 1000.58 L 996.37 998.32 L 995.36 996.08 L 994.36 993.84 L 993.39 991.61 L 992.43 989.38 L 991.55 987.13 L 990.67 984.89 L 989.68 982.70 L 988.70 980.52 L 987.75 978.35 L 986.78 976.18 L 985.91 973.99 L 985.09 971.78 L 984.29 969.58 L 983.50 967.38 L 982.66 965.22 L 981.80 963.07 L 980.98 960.91 L 980.22 958.74 L 979.50 956.57 L 978.78 954.41 L 978.18 952.22 L 977.53 950.05 L 976.90 947.89 L 976.25 945.74 L 975.60 943.60 L 974.96 941.47 L 974.30 939.36 L 973.69 937.24 L 973.07 935.13 L 972.44 933.03 L 971.82 930.94 L 971.21 928.85 L 970.51 926.81" stroke="rgb(140,255,190)" stroke-opacity="0.540" stroke-width="1.14" />
  <path d="M 978.91 938.21 L 976.57 935.89 L 974.27 933.56 L 971.98 931.24 L 969.72 928.91 L 967.45 926.60 L 965.20 924.30 L 962.93 922.03 L 960.64 919.80 L 958.36 917.57 L 956.11 915.34 L 953.85 913.14 L 951.59 910.95 L 949.39 908.72 L 947.19 906.52 L 944.99 904.32 L 942.85 902.09 L 940.74 899.85 L 938.62 897.63 L 936.52 895.41 L 934.41 893.21 L 932.29 891.05 L 930.18 888.90 L 928.07 886.76 L 925.97 884.64 L 923.91 882.50 L 921.87 880.34 L 919.92 878.13 L 917.95 875.95 L 915.97 873.80 L 914.01 871.65" stroke="rgb(140,255,190)" stroke-opacity="0.720" stroke-width="1.14" />
  <path d="M 944.24 876.57 L 943.90 873.67 L 943.60 870.79 L 943.38 867.96 L 943.15 865.13 L 942.94 862.35 L 942.75 859.56 L 942.59 856.80 L 942.45 854.04 L 942.28 851.28 L 942.07 848.53 L 941.87 845.79 L 941.67 843.05 L 941.52 840.30 L 941.36 837.57 L 941.23 834.84 L 941.13 832.11 L 941.04 829.39 L 941.01 826.67 L 940.90 824.01 L 940.76 821.39 L 940.54 818.81 L 940.31 816.25 L 940.12 813.71 L 939.99 811.15 L 939.87 808.60 L 939.77 806.06 L 939.59 803.56 L 939.42 801.05 L 939.28 798.54 L 939.14 796.05 L 938.98 793.58 L 938.84 791.12 L 938.66 788.69 L 938.48 786.26 L 938.31 783.85 L 938.14 781.45 L 937.95 779.04 L 937.71 776.66 L 937.43 774.28 L 937.07 771.90 L 936.69 769.52 L 936.32 767.15 L 935.97 764.78 L 935.62 762.43 L 935.24 760.07 L 934.85 757.72 L 934.47 755.38 L 934.07 753.06 L 933.66 750.71 L 933.31 748.36 L 932.98 746.02 L 932.68 743.67 L 932.35 741.33 L 931.99 739.00 L 931.63 736.68 L 931.29 734.35 L 930.95 732.04 L 930.52 729.74 L 930.09 727.43 L 929.72 725.13 L 929.32 722.86" stroke="rgb(140,255,190)" stroke-opacity="0.718" stroke-width="1.14" />
  <path d="M 954.59 872.19 L 952.36 869.99 L 950.20 867.74 L 948.05 865.49 L 945.98 863.20 L 943.86 860.96 L 941.74 858.75 L 939.61 856.56 L 937.50 854.37 L 935.40 852.19 L 933.30 850.03 L 931.21 847.86 L 929.09 845.76 L 926.99 843.66 L 924.89 841.57 L 922.79 839.49 L 920.73 837.41 L 918.68 835.34 L 916.70 833.22 L 914.74 831.08 L 912.81 828.93 L 910.86 826.82 L 908.91 824.71 L 906.99 822.61 L 905.00 820.59 L 903.00 818.57 L 901.02 816.57 L 899.13 814.50 L 897.25 812.44 L 895.37 810.39 L 893.55 808.31 L 891.74 806.25 L 889.98 804.15 L 888.27 802.01 L 886.66 799.82 L 885.05 797.62 L 883.49 795.42 L 881.97 793.21 L 880.52 790.98 L 879.07 788.76 L 877.66 786.55 L 876.25 784.35 L 874.85 782.17 L 873.40 780.01 L 871.98 777.85 L 870.59 775.65 L 869.17 773.47 L 867.70 771.35 L 866.21 769.25 L 864.77 767.12 L 863.35 764.99 L 861.93 762.88 L 860.54 760.75 L 859.20 758.61 L 857.84 756.50 L 856.50 754.38 L 855.16 752.28 L 853.83 750.18 L 852.52 748.09 L 851.25 745.98 L 849.99 743.89 L 848.80 741.77 L 847.64 739.64" stroke="rgb(140,255,190)" stroke-opacity="0.717" stroke-width="1.14" />
  <path d="M 1000.01 1000.33 L 999.17 997.39 L 998.33 994.46 L 997.45 991.55 L 996.57 988.66 L 995.67 985.79 L 994.79 982.93 L 993.92 980.07 L 993.05 977.23 L 992.27 974.37 L 991.46 971.54 L 990.62 968.73 L 989.77 965.93 L 988.86 963.16 L 988.06 960.38 L 987.23 957.61 L 986.42 954.85" stroke="rgb(140,255,190)" stroke-opacity="0.536" stroke-width="1.13" />
  <path d="M 1000.76 998.87 L 999.53 996.11 L 998.30 993.37 L 997.07 990.63 L 995.84 987.91 L 994.62 985.20 L 993.48 982.46 L 992.36 979.73 L 991.24 977.01 L 990.14 974.29 L 988.94 971.63 L 987.75 968.98 L 986.57 966.34 L 985.41 963.70 L 984.23 961.08 L 983.11 958.45 L 982.00 955.83 L 980.86 953.23 L 979.68 950.66 L 978.55 948.09 L 977.45 945.51 L 976.39 942.93 L 975.30 940.37 L 974.23 937.81 L 973.17 935.27 L 972.06 932.76 L 970.98 930.24 L 969.90 927.74 L 968.83 925.25 L 967.70 922.79 L 966.54 920.36 L 965.39 917.94 L 964.18 915.56 L 963.03 913.16 L 961.86 910.78 L 960.71 908.41 L 959.57 906.04 L 958.41 903.69 L 957.28 901.34 L 956.15 899.00 L 954.96 896.71 L 953.79 894.41 L 952.59 892.14 L 951.45 889.85 L 950.27 887.60 L 949.09 885.35 L 947.92 883.12 L 946.69 880.92 L 945.44 878.75 L 944.24 876.57 L 943.04 874.39 L 941.85 872.22" stroke="rgb(140,255,190)" stroke-opacity="0.534" stroke-width="1.12" />
  <path d="M 1001.41 999.07 L 1000.11 996.24 L 998.82 993.44 L 997.51 990.64 L 996.26 987.83 L 995.05 985.03 L 993.90 982.20 L 992.76 979.40 L 991.68 976.59 L 990.63 973.78 L 989.60 970.97 L 988.56 968.17 L 987.49 965.41 L 986.38 962.66 L 985.27 959.94 L 984.20 957.22 L 983.13 954.49 L 982.07 951.77 L 981.11 949.02 L 980.13 946.29 L 979.16 943.58 L 978.20 940.86 L 977.31 938.12 L 976.42 935.40 L 975.56 932.67 L 974.73 929.95 L 973.90 927.24 L 973.08 924.54 L 972.25 921.86 L 971.42 919.19 L 970.64 916.51 L 969.85 913.85 L 969.07 911.19 L 968.34 908.52 L 967.60 905.88 L 966.85 903.24 L 966.12 900.62" stroke="rgb(140,255,190)" stroke-opacity="0.712" stroke-width="1.12" />
  <path d="M 969.06 1098.88 L 968.30 1101.79 L 967.64 1104.72 L 966.98 1107.62 L 966.33 1110.51 L 965.67 1113.36 L 965.00 1116.20 L 964.25 1119.04 L 963.52 1121.86 L 962.78 1124.67 L 962.17 1127.50 L 961.54 1130.33 L 960.86 1133.13 L 960.18 1135.96 L 959.38 1138.77 L 958.55 1141.55 L 957.74 1144.33 L 956.93 1147.09 L 956.09 1149.84 L 955.20 1152.58 L 954.24 1155.29 L 953.28 1157.97 L 952.34 1160.64 L 951.43 1163.30 L 950.54 1165.95 L 949.66 1168.60 L 948.79 1171.23 L 947.87 1173.84 L 946.95 1176.43 L 946.04 1179.01 L 945.15 1181.60 L 944.31 1184.19 L 943.48 1186.78 L 942.62 1189.33 L 941.78 1191.87 L 941.05 1194.46 L 940.31 1197.03 L 939.63 1199.62 L 938.95 1202.18 L 938.30 1204.72 L 937.64 1207.26 L 937.00 1209.78 L 936.41 1212.31 L 935.92 1214.84 L 935.47 1217.35 L 934.96 1219.86 L 934.45 1222.35 L 933.96 1224.84 L 933.46 1227.30 L 932.96 1229.76 L 932.55 1232.23 L 932.14 1234.69 L 931.72 1237.14 L 931.27 1239.56 L 930.81 1241.97 L 930.42 1244.38 L 930.08 1246.78 L 929.76 1249.19 L 929.45 1251.60 L 929.17 1254.00 L 928.90 1256.40 L 928.62 1258.79" stroke="rgb(140,255,190)" stroke-opacity="0.711" stroke-width="1.12" />
  <path d="M 998.07 997.79 L 997.15 994.93 L 996.21 992.08 L 995.29 989.24 L 994.40 986.40 L 993.43 983.61 L 992.49 980.82 L 991.60 978.02 L 990.71 975.24 L 989.79 972.49 L 988.86 969.75 L 987.90 967.05 L 987.01 964.34 L 986.13 961.63 L 985.37 958.92 L 984.61 956.20 L 983.93 953.47 L 983.24 950.76 L 982.53 948.07 L 981.80 945.38 L 981.07 942.71 L 980.33 940.05 L 979.61 937.39 L 978.91 934.75 L 978.17 932.12 L 977.50 929.48 L 976.73 926.88 L 975.96 924.29 L 975.17 921.72 L 974.36 919.16 L 973.56 916.62 L 972.85 914.06 L 972.12 911.52 L 971.40 908.98 L 970.69 906.45" stroke="rgb(140,255,190)" stroke-opacity="0.532" stroke-width="1.12" />
  <path d="M 999.60 1001.11 L 998.61 998.69 L 997.60 996.28 L 996.61 993.87 L 995.61 991.48 L 994.65 989.08 L 993.65 986.71 L 992.66 984.35 L 991.63 982.02 L 990.70 979.66 L 989.73 977.33 L 988.76 975.01 L 987.78 972.71 L 986.80 970.42 L 985.88 968.11 L 984.99 965.80 L 984.08 963.51 L 983.20 961.21 L 982.36 958.91 L 981.51 956.63 L 980.62 954.37 L 979.74 952.12 L 978.87 949.88 L 978.03 947.64 L 977.20 945.40 L 976.38 943.17 L 975.59 940.94 L 974.76 938.74 L 973.96 936.54 L 973.21 934.33 L 972.49 932.12 L 971.87 929.90 L 971.24 927.69 L 970.61 925.50 L 970.04 923.29 L 969.44 921.11 L 968.91 918.93 L 968.36 916.76 L 967.75 914.62 L 967.09 912.51 L 966.37 910.42 L 965.64 908.34 L 964.92 906.26 L 964.20 904.20 L 963.52 902.11 L 962.94 900.02 L 962.35 897.97 L 961.74 895.94 L 961.13 893.90 L 960.52 891.86 L 959.96 889.83 L 959.40 887.81 L 958.82 885.80 L 958.17 883.83 L 957.54 881.88 L 956.94 879.92 L 956.34 877.98 L 955.74 876.05 L 955.14 874.13 L 954.59 872.19 L 954.04 870.28 L 953.56 868.34 L 953.08 866.39 L 952.61 864.44 L 952.12 862.51 L 951.65 860.58 L 951.14 858.67 L 950.64 856.78 L 950.15 854.90 L 949.55 853.04 L 948.96 851.19 L 948.38 849.35 L 947.79 847.51 L 947.21 845.66 L 946.66 843.81 L 946.12 841.98" stroke="rgb(140,255,190)" stroke-opacity="0.531" stroke-width="1.11" />
  <path d="M 997.38 999.91 L 997.02 997.55 L 996.69 995.19 L 996.36 992.85 L 996.17 990.57 L 995.93 988.35 L 995.69 986.15 L 995.48 983.96 L 995.28 981.81 L 995.04 979.66 L 994.78 977.49" stroke="rgb(205,165,255)" stroke-opacity="0.470" stroke-width="1.11" />
  <path d="M 996.93 999.46 L 998.02 1001.80 L 999.15 1004.12 L 1000.28 1006.43 L 1001.40 1008.73 L 1002.52 1011.02 L 1003.61 1013.29 L 1004.69 1015.55 L 1005.78 1017.80 L 1006.84 1020.04 L 1007.91 1022.27" stroke="rgb(205,165,255)" stroke-opacity="0.470" stroke-width="1.11" />
  <path d="M 1005.41 1002.03 L 1004.42 999.29 L 1003.44 996.56 L 1002.49 993.83 L 1001.54 991.11 L 1000.63 988.39 L 999.70 985.69 L 998.77 983.00 L 997.83 980.33 L 996.88 977.68 L 995.94 975.03 L 994.96 972.42 L 993.94 969.83 L 992.87 967.28 L 991.75 964.75 L 990.57 962.27 L 989.40 959.79 L 988.22 957.34 L 987.02 954.93 L 985.81 952.53 L 984.61 950.14 L 983.44 947.74 L 982.28 945.35 L 981.13 942.96 L 980.00 940.58 L 978.91 938.21 L 977.80 935.84 L 976.71 933.48 L 975.57 931.16 L 974.43 928.85 L 973.26 926.56 L 972.14 924.26 L 971.06 921.95 L 969.98 919.67 L 968.90 917.41 L 967.83 915.13 L 966.77 912.85 L 965.68 910.61 L 964.60 908.37 L 963.61 906.10 L 962.61 903.84 L 961.60 901.59 L 960.55 899.38 L 959.52 897.17" stroke="rgb(140,255,190)" stroke-opacity="0.531" stroke-width="1.11" />
  <path d="M 984.10 1073.07 L 983.31 1075.57 L 982.49 1078.04 L 981.58 1080.42 L 980.67 1082.81 L 979.59 1085.14 L 978.52 1087.45 L 977.48 1089.75 L 976.52 1092.13 L 975.66 1094.52 L 974.88 1096.91 L 974.15 1099.31" stroke="rgb(140,255,190)" stroke-opacity="0.530" stroke-width="1.11" />
  <path d="M 1000.21 1002.30 L 999.22 999.78 L 998.21 997.29 L 997.23 994.80 L 996.24 992.32 L 995.21 989.87 L 994.23 987.41 L 993.26 984.95 L 992.29 982.51 L 991.31 980.08 L 990.38 977.65 L 989.49 975.21 L 988.51 972.82 L 987.53 970.43 L 986.61 968.04 L 985.63 965.67 L 984.61 963.34 L 983.59 961.01 L 982.61 958.70 L 981.62 956.39 L 980.64 954.09 L 979.68 951.80 L 978.66 949.54 L 977.60 947.32 L 976.56 945.10 L 975.48 942.90 L 974.43 940.70 L 973.37 938.52 L 972.27 936.36 L 971.13 934.25 L 970.00 932.14 L 968.89 930.03 L 967.81 927.91" stroke="rgb(140,255,190)" stroke-opacity="0.530" stroke-width="1.11" />
  <path d="M 969.98 919.67 L 968.36 917.52 L 966.76 915.40 L 965.08 913.30 L 963.49 911.15 L 961.90 909.01 L 960.34 906.85 L 958.79 904.72 L 957.20 902.59 L 955.58 900.49 L 954.00 898.36 L 952.43 896.23" stroke="rgb(140,255,190)" stroke-opacity="0.530" stroke-width="1.11" />
  <path d="M 996.45 1001.73 L 995.36 998.89 L 994.30 996.06 L 993.23 993.23 L 992.16 990.42 L 991.14 987.61 L 990.11 984.81 L 989.09 982.02 L 988.08 979.25 L 987.06 976.48 L 986.05 973.73 L 985.03 970.99 L 984.06 968.26 L 983.15 965.50 L 982.18 962.78 L 981.21 960.07 L 980.27 957.37 L 979.33 954.69 L 978.45 951.99 L 977.58 949.31 L 976.72 946.63 L 975.85 943.98 L 974.94 941.34 L 974.02 938.73 L 973.10 936.12 L 972.18 933.54 L 971.30 930.95 L 970.42 928.38 L 969.52 925.83 L 968.62 923.28 L 967.71 920.76 L 966.81 918.25 L 965.93 915.73 L 965.07 913.21 L 964.18 910.71 L 963.25 908.23 L 962.32 905.76 L 961.41 903.30 L 960.47 900.86 L 959.54 898.43 L 958.63 896.00 L 957.73 893.58 L 956.78 891.18 L 955.84 888.79 L 954.91 886.41 L 954.03 884.02 L 953.18 881.63 L 952.35 879.25 L 951.52 876.88 L 950.70 874.52 L 949.91 872.17 L 949.13 869.82 L 948.34 867.48 L 947.58 865.15 L 946.90 862.79 L 946.28 860.43 L 945.66 858.08 L 944.94 855.77 L 944.28 853.45 L 943.59 851.16 L 942.80 848.91 L 942.06 846.65 L 941.33 844.41 L 940.61 842.17 L 939.92 839.93" stroke="rgb(140,255,190)" stroke-opacity="0.530" stroke-width="1.11" />
  <path d="M 1337.06 2000.09 L 1335.53 1996.69 L 1334.90 1994.28 L 1334.07 1991.10 L 1332.87 1988.80 L 1331.95 1985.61 L 1330.89 1982.51 L 1330.16 1980.26 L 1329.16 1977.19 L 1328.40 1974.44 L 1327.06 1971.57 L 1326.58 1968.61 L 1325.19 1965.88 L 1324.71 1963.19 L 1323.52 1960.27 L 1322.17 1957.45 L 1321.01 1954.64 L 1320.51 1951.70 L 1319.53 1948.72 L 1318.42 1946.12 L 1317.82 1943.28 L 1316.64 1940.04 L 1315.77 1937.30 L 1314.89 1934.61 L 1314.07 1931.72 L 1313.04 1929.14 L 1311.83 1926.44 L 1311.09 1923.47 L 1310.32 1920.56 L 1309.23 1917.59 L 1308.37 1914.44 L 1307.31 1911.97 L 1305.99 1908.89 L 1305.66 1906.44 L 1304.42 1903.43 L 1303.51 1900.38 L 1302.39 1897.80 L 1301.22 1894.63 L 1300.26 1891.94 L 1299.54 1889.18 L 1298.42 1886.52 L 1297.55 1883.91 L 1296.61 1880.72 L 1295.56 1877.77 L 1294.77 1874.79 L 1293.87 1872.10 L 1292.48 1869.73 L 1291.96 1865.88 L 1291.00 1863.68 L 1289.87 1860.88 L 1289.04 1858.06 L 1288.18 1854.81 L 1287.44 1851.73 L 1286.63 1849.26 L 1285.06 1846.17 L 1284.18 1843.78 L 1283.19 1840.66 L 1282.39 1837.34 L 1281.25 1835.10 L 1279.91 1832.43 L 1279.58 1829.19 L 1278.25 1826.45 L 1277.47 1823.51 L 1276.69 1820.83 L 1275.54 1818.24 L 1274.45 1815.02 L 1273.62 1812.42 L 1272.92 1809.78 L 1271.63 1806.90 L 1270.58 1803.90 L 1269.86 1800.85 L 1268.73 1798.38 L 1267.59 1795.38 L 1266.99 1792.58 L 1265.79 1789.69 L 1264.72 1786.68 L 1264.06 1784.16 L 1263.35 1781.44 L 1262.11 1778.29 L 1260.88 1775.28 L 1260.48 1772.33 L 1258.95 1769.75 L 1258.36 1766.72 L 1257.14 1763.96 L 1256.55 1761.39 L 1255.54 1758.38 L 1254.54 1755.70 L 1253.40 1752.32 L 1252.37 1750.25 L 1251.45 1747.28 L 1250.82 1744.17 L 1250.06 1741.41 L 1248.91 1738.43 L 1247.93 1735.54 L 1246.60 1732.70 L 1246.04 1729.69 L 1245.18 1726.66 L 1243.73 1724.37 L 1243.40 1721.57 L 1242.39 1718.23 L 1241.10 1715.94 L 1240.01 1712.68 L 1239.01 1709.64 L 1238.23 1707.04 L 1237.18 1704.20 L 1236.65 1701.42 L 1235.60 1698.46 L 1234.33 1695.94 L 1233.12 1692.64 L 1232.29 1689.83 L 1231.46 1687.41 L 1230.45 1684.39 L 1229.74 1681.34 L 1228.95 1678.89 L 1227.38 1676.04 L 1226.77 1673.40 L 1225.68 1670.39 L 1224.91 1667.15 L 1223.64 1664.80 L 1223.28 1661.73 L 1222.19 1658.43 L 1220.69 1656.26 L 1219.95 1653.24 L 1218.75 1650.56 L 1218.04 1647.31 L 1217.18 1645.13 L 1216.03 1641.74 L 1215.39 1639.27 L 1214.15 1636.24 L 1213.61 1633.33 L 1212.53 1630.58 L 1211.35 1627.63 L 1210.31 1624.64 L 1209.70 1621.94 L 1208.89 1618.77 L 1207.23 1616.30 L 1206.60 1613.60 L 1205.53 1611.09 L 1205.13 1607.39 L 1203.43 1604.61 L 1202.79 1602.18 L 1201.86 1598.61 L 1200.79 1596.56 L 1199.35 1593.28 L 1199.22 1590.27 L 1198.14 1587.58 L 1196.73 1585.07 L 1195.88 1582.03 L 1195.13 1579.31 L 1194.10 1576.26 L 1193.30 1573.47 L 1192.48 1571.01 L 1191.42 1567.97 L 1190.74 1565.03 L 1189.42 1561.93 L 1188.18 1559.02 L 1187.46 1557.13 L 1186.37 1553.11 L 1185.34 1550.67 L 1184.84 1547.63 L 1183.51 1545.49 L 1182.88 1542.14 L 1181.70 1539.43 L 1180.67 1536.36 L 1179.88 1533.95 L 1178.77 1530.91 L 1178.03 1527.88 L 1176.75 1524.87 L 1176.08 1522.64 L 1175.13 1519.64 L 1174.16 1516.87 L 1173.14 1514.12 L 1171.76 1510.60 L 1170.98 1508.08 L 1170.27 1505.87 L 1169.18 1502.18 L 1168.09 1499.58 L 1167.66 1496.84 L 1166.30 1493.76 L 1165.54 1491.15 L 1164.13 1488.80 L 1163.69 1485.25 L 1162.82 1482.62 L 1161.54 1479.66 L 1160.69 1476.85 L 1159.64 1474.30 L 1158.86 1471.31 L 1157.86 1468.40 L 1156.50 1465.45 L 1156.00 1462.41 L 1155.12 1459.55 L 1153.70 1457.20 L 1152.81 1453.51 L 1152.14 1451.40 L 1151.64 1448.73 L 1150.28 1445.68 L 1149.16 1442.86 L 1148.58 1440.01 L 1146.99 1437.22 L 1146.43 1434.22 L 1145.21 1431.45 L 1144.37 1428.24 L 1143.52 1425.77 L 1142.41 1422.67 L 1141.66 1420.28 L 1140.71 1416.82 L 1139.71 1414.33 L 1138.42 1411.43 L 1137.71 1408.80 L 1136.85 1405.56 L 1135.93 1403.04 L 1134.90 1400.61 L 1133.94 1397.21 L 1133.09 1394.18 L 1131.83 1391.57 L 1131.02 1389.06 L 1130.05 1385.94 L 1129.28 1383.06 L 1128.14 1380.10 L 1127.22 1377.51 L 1125.95 1374.51 L 1124.94 1371.51 L 1124.05 1369.15 L 1123.47 1365.78 L 1122.80 1363.28 L 1121.50 1360.56 L 1120.59 1357.36 L 1119.70 1354.93 L 1118.82 1351.62 L 1117.29 1348.85 L 1116.56 1345.95 L 1115.62 1343.05 L 1114.52 1340.23 L 1113.84 1337.52 L 1112.92 1334.69 L 1112.02 1331.50 L 1110.48 1329.57 L 1109.78 1325.52 L 1108.75 1323.02 L 1107.83 1320.41 L 1106.75 1317.51 L 1106.05 1315.02 L 1104.92 1312.10 L 1104.04 1309.09 L 1103.36 1305.85 L 1102.04 1303.33 L 1101.46 1300.43 L 1099.85 1297.74 L 1099.14 1294.87 L 1098.39 1292.00 L 1097.51 1289.47 L 1096.37 1286.18 L 1095.61 1283.57 L 1094.95 1280.49 L 1093.44 1277.99 L 1092.36 1275.30 L 1091.78 1272.16 L 1090.72 1269.12 L 1089.71 1266.60 L 1088.76 1263.89 L 1088.34 1260.95 L 1086.78 1258.14 L 1085.91 1255.54 L 1084.49 1252.06 L 1084.10 1249.78 L 1082.78 1246.63 L 1082.19 1243.75 L 1081.23 1241.02 L 1080.12 1237.68 L 1079.75 1235.31 L 1078.25 1231.98 L 1077.28 1229.84 L 1076.42 1226.78 L 1075.17 1223.73 L 1074.10 1221.27 L 1073.54 1218.06 L 1073.15 1214.73 L 1071.41 1212.64 L 1070.30 1209.22 L 1069.70 1206.66 L 1068.84 1204.19 L 1068.19 1201.29 L 1067.00 1198.58 L 1065.61 1195.61 L 1065.02 1192.59 L 1064.27 1189.90 L 1063.12 1187.12 L 1061.80 1184.11 L 1061.48 1181.24 L 1059.68 1178.68 L 1059.34 1175.45 L 1058.00 1172.56 L 1057.31 1169.74 L 1056.79 1167.29 L 1055.40 1164.12 L 1054.51 1161.34 L 1053.39 1158.37 L 1052.23 1155.67 L 1051.40 1152.39 L 1050.82 1149.31 L 1049.16 1147.40 L 1048.59 1144.47 L 1047.51 1141.48 L 1046.39 1138.57 L 1045.69 1135.61 L 1044.81 1132.96 L 1043.97 1129.58 L 1042.91 1127.32 L 1041.95 1124.35 L 1040.85 1121.44 L 1039.76 1118.65 L 1039.07 1115.91 L 1038.43 1112.84 L 1037.03 1110.27 L 1036.35 1107.16 L 1034.91 1104.21 L 1034.19 1101.59 L 1033.14 1098.63 L 1032.17 1096.01 L 1031.13 1093.19 L 1030.59 1090.45 L 1029.53 1087.50 L 1028.16 1084.62 L 1027.68 1081.52 L 1026.62 1078.95 L 1025.22 1075.84 L 1024.55 1073.19 L 1023.81 1070.29 L 1022.94 1067.34 L 1022.25 1064.81 L 1020.52 1061.52 L 1019.57 1058.95 L 1018.92 1056.25 L 1017.69 1053.10 L 1016.84 1050.31 L 1015.87 1047.60 L 1014.83 1044.80 L 1014.24 1041.75 L 1013.40 1038.89 L 1011.70 1036.15 L 1011.13 1033.39 L 1010.59 1030.74 L 1009.07 1027.45 L 1008.27 1024.58 L 1007.56 1022.38 L 1006.59 1019.36 L 1005.60 1016.31 L 1004.98 1013.33 L 1003.65 1010.48 L 1002.16 1007.86 L 1001.51 1005.42 L 1000.95 1001.83 L 1000.00 1000.00 L 999.04 997.16 L 998.07 994.32 L 997.12 991.47 L 996.15 988.63 L 995.20 985.79 L 994.26 982.94 L 993.31 980.09 L 992.37 977.24 L 991.43 974.40 L 990.50 971.54 L 989.56 968.70 L 988.63 965.84 L 987.69 962.99 L 986.77 960.14 L 985.85 957.28 L 984.93 954.43 L 984.02 951.57 L 983.11 948.71 L 982.20 945.85 L 981.29 942.99 L 980.39 940.13 L 979.48 937.27 L 978.55 934.42 L 977.63 931.57 L 976.69 928.72 L 975.76 925.87 L 974.82 923.02 L 973.88 920.17 L 972.93 917.32 L 971.98 914.47 L 971.03 911.63 L 970.07 908.79 L 969.12 905.94 L 968.18 903.09 L 967.22 900.25 L 966.27 897.41 L 965.31 894.56 L 964.34 891.72 L 963.36 888.89 L 962.37 886.05 L 961.39 883.22 L 960.38 880.40 L 959.37 877.57 L 958.35 874.75 L 957.32 871.93 L 956.31 869.11 L 955.29 866.29 L 954.27 863.46 L 953.25 860.64 L 952.24 857.82 L 951.22 855.00 L 950.19 852.18 L 949.16 849.36 L 948.13 846.54 L 947.11 843.72 L 946.08 840.90 L 945.06 838.08 L 944.04 835.26 L 943.02 832.44 L 941.99 829.62 L 940.97 826.80 L 939.94 823.99 L 938.91 821.17 L 937.88 818.35 L 936.85 815.53 L 935.83 812.71 L 934.81 809.89 L 933.80 807.06 L 932.79 804.24 L 931.79 801.41 L 930.79 798.58 L 929.79 795.75 L 928.80 792.92 L 927.82 790.09 L 926.83 787.25 L 925.84 784.42 L 924.87 781.58 L 923.88 778.75 L 922.91 775.91 L 921.94 773.07 L 920.98 770.23 L 920.02 767.39 L 919.05 764.55 L 918.07 761.72 L 917.11 758.87 L 916.15 756.03 L 915.21 753.18 L 914.26 750.34 L 913.33 747.48 L 912.41 744.63 L 911.49 741.77 L 910.57 738.92 L 909.66 736.06 L 908.74 733.20 L 907.81 730.35 L 906.87 727.50 L 905.94 724.65 L 905.00 721.80 L 904.06 718.95 L 903.13 716.10 L 902.19 713.25 L 901.26 710.40 L 900.33 707.55 L 899.39 704.70 L 898.45 701.85 L 897.50 699.00 L 896.55 696.16 L 895.61 693.31 L 894.67 690.46 L 893.72 687.61 L 892.78 684.76 L 891.85 681.91 L 890.92 679.06 L 889.98 676.21 L 889.02 673.37 L 888.07 670.53 L 887.12 667.68 L 886.17 664.83 L 885.22 661.99 L 884.27 659.14 L 883.33 656.29 L 882.40 653.44 L 881.48 650.59 L 880.56 647.73 L 879.65 644.87 L 878.75 642.01 L 877.85 639.15 L 876.96 636.28 L 876.07 633.42 L 875.17 630.56 L 874.27 627.69 L 873.37 624.83 L 872.47 621.97 L 871.57 619.11 L 870.67 616.25 L 869.77 613.38 L 868.86 610.53 L 867.96 607.67 L 867.05 604.81 L 866.12 601.95 L 865.19 599.10 L 864.27 596.24 L 863.36 593.39 L 862.44 590.53 L 861.52 587.68 L 860.60 584.82 L 859.68 581.97 L 858.75 579.11 L 857.82 576.26 L 856.88 573.41 L 855.94 570.56 L 854.99 567.72 L 854.03 564.88 L 853.06 562.04 L 852.10 559.19 L 851.13 556.35 L 850.18 553.51 L 849.24 550.66 L 848.30 547.81 L 847.35 544.97 L 846.40 542.12 L 845.44 539.28 L 844.49 536.43 L 843.53 533.59 L 842.57 530.75 L 841.60 527.91 L 840.63 525.07 L 839.65 522.23 L 838.67 519.40 L 837.68 516.57 L 836.69 513.74 L 835.70 510.90 L 834.72 508.07 L 833.74 505.23 L 832.76 502.40 L 831.77 499.56 L 830.78 496.73 L 829.79 493.90 L 828.81 491.07 L 827.82 488.23 L 826.82 485.40 L 825.82 482.58 L 824.81 479.75 L 823.80 476.93 L 822.77 474.11 L 821.74 471.29 L 820.71 468.47 L 819.69 465.65 L 818.66 462.84 L 817.63 460.02 L 816.60 457.20 L 815.59 454.38 L 814.57 451.55 L 813.56 448.73 L 812.55 445.90 L 811.54 443.08 L 810.54 440.25 L 809.53 437.43 L 808.54 434.60 L 807.54 431.77 L 806.54 428.94 L 805.56 426.10 L 804.57 423.27 L 803.60 420.43 L 802.61 417.60 L 801.63 414.77 L 800.64 411.93 L 799.65 409.10 L 798.67 406.26 L 797.70 403.43 L 796.73 400.59 L 795.76 397.75 L 794.80 394.91 L 793.81 392.07 L 792.82 389.24 L 791.83 386.41 L 790.85 383.58 L 789.86 380.74 L 788.88 377.91 L 787.90 375.07 L 786.92 372.24 L 785.94 369.40 L 784.96 366.57 L 783.98 363.73 L 782.99 360.90 L 782.02 358.06 L 781.06 355.22 L 780.09 352.38 L 779.11 349.54 L 778.15 346.70 L 777.18 343.86 L 776.21 341.02 L 775.24 338.18 L 774.27 335.34 L 773.30 332.51 L 772.32 329.67 L 771.34 326.84 L 770.37 324.00 L 769.40 321.16 L 768.44 318.32 L 767.48 315.47 L 766.52 312.63 L 765.55 309.79 L 764.59 306.95 L 763.62 304.11 L 762.67 301.27 L 761.71 298.42 L 760.75 295.58 L 759.79 292.74 L 758.84 289.89 L 757.90 287.04 L 756.96 284.19 L 756.02 281.34 L 755.09 278.49 L 754.15 275.64 L 753.22 272.79 L 752.30 269.94 L 751.37 267.09 L 750.43 264.24 L 749.48 261.39 L 748.53 258.55 L 747.58 255.70 L 746.63 252.85 L 745.68 250.01 L 744.74 247.16 L 743.80 244.31 L 742.86 241.46 L 741.93 238.61 L 741.00 235.76 L 740.05 232.91 L 739.10 230.07 L 738.14 227.22 L 737.19 224.38 L 736.22 221.54 L 735.25 218.70 L 734.28 215.86 L 733.32 213.02 L 732.35 210.18 L 731.36 207.35 L 730.37 204.51 L 729.40 201.68 L 728.42 198.84 L 727.44 196.01 L 726.45 193.18 L 725.47 190.34 L 724.49 187.50 L 723.50 184.67 L 722.51 181.84 L 721.52 179.01 L 720.52 176.18 L 719.52 173.35 L 718.51 170.52 L 717.51 167.70 L 716.51 164.87 L 715.50 162.04 L 714.49 159.22 L 713.48 156.40 L 712.48 153.57 L 711.48 150.74 L 710.48 147.91 L 709.48 145.08 L 708.48 142.25 L 707.48 139.42 L 706.50 136.59 L 705.51 133.76 L 704.53 130.92 L 703.56 128.08 L 702.60 125.24 L 701.64 122.40 L 700.67 119.56 L 699.70 116.72 L 698.73 113.88 L 697.75 111.04 L 696.79 108.20 L 695.82 105.37 L 694.84 102.53 L 693.85 99.70 L 692.88 96.86 L 691.91 94.02 L 690.93 91.18 L 689.97 88.34 L 689.00 85.50 L 688.02 82.67 L 687.04 79.83 L 686.06 77.00 L 685.07 74.16 L 684.09 71.33 L 683.13 68.49 L 682.17 65.65 L 681.21 62.80 L 680.25 59.96 L 679.29 57.12 L 678.33 54.28 L 677.35 51.44 L 676.38 48.60 L 675.42 45.76 L 674.47 42.91 L 673.54 40.06 L 672.60 37.21 L 671.65 34.37 L 670.71 31.52 L 669.76 28.67 L 668.83 25.82 L 667.89 22.97 L 666.95 20.12 L 666.00 17.28 L 665.06 14.43 L 664.11 11.58 L 663.16 8.74 L 662.20 5.89 L 661.26 3.04 L 660.33 0.19 L 659.39 -2.66 L 658.46 -5.51 L 657.51 -8.35 L 656.56 -11.20 L 655.61 -14.04 L 654.66 -16.89 L 653.70 -19.73 L 652.75 -22.58" stroke="rgb(245,245,245)" stroke-opacity="0.706" stroke-width="1.11" />
  <path d="M 1002.48 1033.35 L 1002.25 1035.59 L 1002.02 1037.78 L 1001.84 1039.97 L 1001.64 1042.17 L 1001.44 1044.37 L 1001.23 1046.56 L 1001.01 1048.73 L 1000.85 1050.96 L 1000.71 1053.21 L 1000.53 1055.42 L 1000.32 1057.67 L 1000.11 1059.90 L 999.87 1062.11 L 999.60 1064.35 L 999.32 1066.59 L 999.04 1068.82 L 998.77 1071.00 L 998.54 1073.15 L 998.24 1075.29 L 997.95 1077.37 L 997.65 1079.46 L 997.33 1081.55 L 997.01 1083.62 L 996.63 1085.69 L 996.30 1087.75 L 996.01 1089.75 L 995.70 1091.69 L 995.40 1093.60 L 995.13 1095.50 L 994.86 1097.39 L 994.57 1099.29 L 994.29 1101.16 L 994.05 1103.05 L 993.85 1104.96 L 993.61 1106.90 L 993.33 1108.91 L 992.98 1110.88 L 992.61 1112.84 L 992.23 1114.75 L 991.85 1116.65 L 991.43 1118.54 L 991.01 1120.41 L 990.62 1122.32 L 990.24 1124.22 L 989.81 1126.12 L 989.39 1128.01 L 988.96 1129.91 L 988.52 1131.81 L 988.08 1133.70 L 987.60 1135.59 L 987.08 1137.46 L 986.58 1139.34 L 986.05 1141.23 L 985.50 1143.10 L 984.95 1144.97 L 984.40 1146.84 L 983.87 1148.71 L 983.36 1150.58 L 982.85 1152.41 L 982.31 1154.22 L 981.79 1156.03" stroke="rgb(140,255,190)" stroke-opacity="0.528" stroke-width="1.11" />
  <path d="M 998.77 1071.00 L 999.14 1072.71 L 999.53 1074.37 L 1000.03 1075.97 L 1000.51 1077.61 L 1000.99 1079.23 L 1001.48 1080.84 L 1002.01 1082.44 L 1002.46 1084.06 L 1002.93 1085.67 L 1003.46 1087.32 L 1004.08 1089.03 L 1004.58 1090.72 L 1005.07 1092.45 L 1005.67 1094.14 L 1006.23 1095.84 L 1006.77 1097.55 L 1007.23 1099.22 L 1007.70 1100.88 L 1008.04 1102.60 L 1008.50 1104.22 L 1008.94 1105.83 L 1009.38 1107.44 L 1009.72 1108.95 L 1010.06 1110.45 L 1010.36 1111.92 L 1010.69 1113.40 L 1010.99 1114.89 L 1011.26 1116.42 L 1011.53 1117.95 L 1011.75 1119.52 L 1011.88 1121.01 L 1012.02 1122.55 L 1012.16 1124.06 L 1012.28 1125.57 L 1012.38 1127.05 L 1012.40 1128.49 L 1012.35 1129.95 L 1012.29 1131.40 L 1012.19 1132.85 L 1012.09 1134.41 L 1011.97 1135.96 L 1011.86 1137.56 L 1011.78 1139.13 L 1011.62 1140.62 L 1011.45 1142.11 L 1011.21 1143.53 L 1010.92 1144.91 L 1010.52 1146.19 L 1010.12 1147.46 L 1009.70 1148.78 L 1009.12 1150.08 L 1008.51 1151.39 L 1007.89 1152.68 L 1007.25 1153.98 L 1006.60 1155.28" stroke="rgb(140,255,190)" stroke-opacity="0.528" stroke-width="1.10" />
  <path d="M 1001.22 1003.28 L 1000.14 1000.51 L 999.09 997.74 L 998.10 994.97 L 997.11 992.22 L 996.10 989.48 L 995.14 986.74 L 994.21 984.00 L 993.33 981.26 L 992.48 978.51 L 991.67 975.77 L 990.87 973.04 L 990.02 970.34 L 989.14 967.65 L 988.26 964.99 L 987.39 962.34 L 986.55 959.68 L 985.69 957.03 L 984.84 954.39 L 984.04 951.75 L 983.24 949.12 L 982.49 946.49 L 981.76 943.86 L 981.03 941.25 L 980.21 938.67 L 979.43 936.09 L 978.70 933.51 L 977.96 930.94 L 977.23 928.38 L 976.50 925.84 L 975.82 923.29 L 975.14 920.75 L 974.49 918.22 L 973.87 915.69 L 973.24 913.17 L 972.61 910.66 L 971.99 908.17 L 971.37 905.68" stroke="rgb(140,255,190)" stroke-opacity="0.527" stroke-width="1.10" />
  <path d="M 997.74 999.53 L 997.09 999.43 L 996.47 999.39 L 995.84 999.37 L 995.18 999.36 L 994.48 999.39 L 993.80 999.34 L 993.00 999.36 L 992.17 999.45 L 991.32 999.56 L 990.44 999.73 L 989.54 999.92 L 988.59 1000.07 L 987.67 1000.21 L 986.69 1000.25 L 985.74 1000.34 L 984.82 1000.43 L 983.93 1000.57 L 983.03 1000.82 L 982.13 1001.07 L 981.22 1001.32 L 980.31 1001.48 L 979.32 1001.60 L 978.32 1001.68 L 977.29 1001.72 L 976.28 1001.80 L 975.30 1001.82" stroke="rgb(205,165,255)" stroke-opacity="0.467" stroke-width="1.10" />
  <path d="M 988.26 964.99 L 986.59 962.81 L 984.94 960.61 L 983.19 958.50 L 981.53 956.34 L 979.85 954.19 L 978.16 952.08 L 976.54 949.93 L 974.93 947.78 L 973.35 945.62 L 971.65 943.57 L 969.93 941.55 L 968.18 939.58 L 966.41 937.64 L 964.63 935.73 L 962.85 933.84 L 961.07 931.95 L 959.21 930.19 L 957.38 928.41 L 955.56 926.65 L 953.65 924.98 L 951.75 923.32 L 949.86 921.67 L 948.04 919.95 L 946.19 918.30 L 944.41 916.55 L 942.70 914.74 L 940.97 912.95 L 939.27 911.15 L 937.55 909.37 L 935.87 907.57 L 934.28 905.71 L 932.71 903.85 L 931.13 902.02 L 929.48 900.26 L 927.79 898.54 L 926.17 896.77 L 924.55 895.00 L 922.89 893.29 L 921.24 891.59 L 919.61 889.89 L 918.03 888.15 L 916.45 886.42" stroke="rgb(140,255,190)" stroke-opacity="0.527" stroke-width="1.10" />
  <path d="M 1000.15 1000.34 L 997.75 999.55 L 995.36 998.74 L 992.98 997.91 L 990.61 997.05 L 988.24 996.33 L 985.90 995.63 L 983.58 994.93 L 981.26 994.19 L 978.97 993.34 L 976.68 992.55 L 974.43 991.74 L 972.18 990.94 L 969.94 990.12 L 967.74 989.25 L 965.59 988.24 L 963.41 987.32 L 961.26 986.40 L 959.09 985.49 L 956.92 984.57 L 954.78 983.63" stroke="rgb(205,165,255)" stroke-opacity="0.466" stroke-width="1.10" />
  <path d="M 1003.05 999.22 L 1002.97 1001.74 L 1002.95 1004.23 L 1002.92 1006.70 L 1002.89 1009.16 L 1002.87 1011.63 L 1002.85 1014.09 L 1002.84 1016.54 L 1002.81 1018.96 L 1002.77 1021.38 L 1002.75 1023.78 L 1002.69 1026.19 L 1002.61 1028.58 L 1002.54 1030.97 L 1002.48 1033.35 L 1002.42 1035.72 L 1002.32 1038.09 L 1002.21 1040.45 L 1002.04 1042.80 L 1001.84 1045.17 L 1001.58 1047.54 L 1001.33 1049.90 L 1001.11 1052.24 L 1000.90 1054.57 L 1000.68 1056.88 L 1000.46 1059.18 L 1000.17 1061.44 L 999.91 1063.72 L 999.63 1065.97 L 999.35 1068.22 L 999.05 1070.47 L 998.75 1072.71 L 998.38 1074.92 L 998.04 1077.11 L 997.70 1079.29 L 997.30 1081.46 L 996.92 1083.62 L 996.57 1085.79 L 996.23 1087.95 L 995.88 1090.10" stroke="rgb(140,255,190)" stroke-opacity="0.527" stroke-width="1.10" />
  <path d="M 957.89 882.34 L 957.61 879.59 L 957.20 876.87 L 956.79 874.15 L 956.29 871.45 L 955.84 868.77 L 955.36 866.10 L 954.89 863.44 L 954.41 860.79 L 953.95 858.14 L 953.36 855.51 L 952.93 852.86 L 952.48 850.22 L 952.10 847.57 L 951.85 844.93 L 951.49 842.31 L 951.00 839.73 L 950.51 837.16 L 950.02 834.60 L 949.51 832.05 L 949.01 829.51 L 948.58 826.97 L 948.10 824.46 L 947.58 821.97 L 947.00 819.49 L 946.44 817.03 L 945.85 814.58 L 945.23 812.14 L 944.59 809.72 L 943.95 807.31 L 943.36 804.91 L 942.78 802.51 L 942.23 800.11 L 941.56 797.76 L 940.85 795.43 L 940.05 793.13 L 939.28 790.83 L 938.46 788.56 L 937.64 786.29 L 936.82 784.03 L 936.02 781.78 L 935.16 779.56 L 934.36 777.32 L 933.64 775.06 L 932.94 772.80 L 932.25 770.56 L 931.80 768.26 L 931.37 765.98 L 930.91 763.71 L 930.46 761.45 L 930.00 759.22 L 929.58 756.98 L 929.18 754.75 L 928.76 752.54 L 928.37 750.33 L 927.98 748.14 L 927.62 745.94 L 927.21 743.76 L 926.84 741.57 L 926.44 739.39 L 926.14 737.22 L 925.87 735.06 L 925.69 732.90 L 925.40 730.77 L 925.06 728.65" stroke="rgb(140,255,190)" stroke-opacity="0.526" stroke-width="1.10" />
  <path d="M 979.16 943.58 L 978.64 941.35 L 978.12 939.15 L 977.65 936.97 L 977.18 934.81 L 976.65 932.66 L 976.10 930.51 L 975.72 928.29 L 975.33 926.05 L 974.95 923.80 L 974.56 921.52 L 974.18 919.25 L 973.79 916.99 L 973.37 914.72 L 972.97 912.44 L 972.56 910.18 L 972.16 907.92 L 971.60 905.71 L 971.05 903.49 L 970.55 901.26 L 970.00 899.00 L 969.40 896.75 L 968.70 894.54 L 968.00 892.34 L 967.25 890.15 L 966.51 887.97" stroke="rgb(140,255,190)" stroke-opacity="0.526" stroke-width="1.10" />
  <path d="M 973.37 938.52 L 973.03 935.76 L 972.72 933.01 L 972.38 930.28 L 972.07 927.57 L 971.63 924.88 L 971.01 922.23 L 970.37 919.61 L 969.90 916.98 L 969.53 914.34 L 969.19 911.71 L 968.88 909.08 L 968.57 906.47 L 968.26 903.87" stroke="rgb(140,255,190)" stroke-opacity="0.525" stroke-width="1.09" />
  <path d="M 1004.80 997.52 L 1003.89 995.01 L 1003.01 992.49 L 1002.15 989.98 L 1001.29 987.48 L 1000.39 985.00 L 999.45 982.55 L 998.52 980.11 L 997.57 977.69" stroke="rgb(140,255,190)" stroke-opacity="0.525" stroke-width="1.09" />
  <path d="M 998.60 1001.11 L 997.80 998.74 L 996.99 996.39 L 996.13 994.07 L 995.30 991.74 L 994.50 989.42 L 993.64 987.13 L 992.77 984.87 L 991.90 982.62 L 990.98 980.40 L 990.08 978.17 L 989.22 975.95 L 988.37 973.74 L 987.50 971.55 L 986.63 969.36 L 985.77 967.18 L 984.92 965.01 L 984.07 962.86 L 983.22 960.72 L 982.40 958.57 L 981.63 956.40 L 980.92 954.22 L 980.19 952.08 L 979.49 949.94 L 978.78 947.82 L 978.09 945.71 L 977.40 943.60 L 976.69 941.51 L 975.99 939.42 L 975.29 937.33 L 974.59 935.27 L 973.85 933.21 L 973.12 931.16 L 972.38 929.12 L 971.65 927.09 L 970.93 925.06 L 970.19 923.05 L 969.47 921.04 L 968.75 919.04 L 968.04 917.04 L 967.25 915.08 L 966.48 913.13 L 965.78 911.17 L 965.05 909.21 L 964.32 907.27 L 963.62 905.32 L 962.96 903.36 L 962.23 901.43 L 961.50 899.51 L 960.81 897.59 L 960.16 895.66 L 959.49 893.76 L 958.87 891.84 L 958.28 889.92 L 957.69 888.02" stroke="rgb(205,165,255)" stroke-opacity="0.464" stroke-width="1.09" />
  <path d="M 996.64 1000.42 L 996.46 998.23 L 996.27 996.03 L 996.11 993.86 L 995.94 991.69 L 995.70 989.50 L 995.45 987.33 L 995.17 985.18 L 994.70 983.03 L 994.27 980.91 L 993.78 978.81 L 993.28 976.72 L 992.69 974.63 L 992.10 972.52 L 991.53 970.42 L 990.94 968.33 L 990.34 966.26 L 989.68 964.21 L 989.03 962.18 L 988.39 960.15 L 987.76 958.15 L 987.14 956.16 L 986.48 954.25 L 985.83 952.38 L 985.18 950.53 L 984.53 948.70 L 983.76 947.01 L 983.04 945.30 L 982.28 943.67 L 981.46 942.05 L 980.61 940.46 L 979.78 938.82 L 978.96 937.18 L 978.14 935.54 L 977.28 933.95" stroke="rgb(205,165,255)" stroke-opacity="0.463" stroke-width="1.09" />
  <path d="M 951.59 910.95 L 949.50 909.28 L 947.42 907.62 L 945.30 906.03 L 943.16 904.46 L 941.04 902.91 L 938.92 901.36 L 936.78 899.85 L 934.69 898.33 L 932.60 896.81 L 930.52 895.31 L 928.44 893.81 L 926.35 892.33 L 924.29 890.84 L 922.31 889.30 L 920.34 887.75 L 918.40 886.15 L 916.44 884.59 L 914.49 883.04 L 912.62 881.45 L 910.72 879.89 L 908.86 878.35 L 907.02 876.81 L 905.24 875.23 L 903.52 873.61 L 901.90 871.90 L 900.28 870.17 L 898.69 868.44 L 897.09 866.72 L 895.58 864.92 L 894.09 863.13 L 892.58 861.35 L 891.13 859.52 L 889.70 857.76 L 888.12 856.16 L 886.55 854.59" stroke="rgb(140,255,190)" stroke-opacity="0.522" stroke-width="1.08" />
  <path d="M 1000.98 1000.54 L 1001.19 999.49 L 1001.40 998.46 L 1001.72 997.50 L 1001.99 996.42 L 1002.26 995.35 L 1002.48 994.31 L 1002.75 993.32 L 1003.00 992.29 L 1003.23 991.27 L 1003.38 990.28 L 1003.56 989.29 L 1003.89 988.31 L 1004.24 987.31 L 1004.59 986.32 L 1004.90 985.26 L 1005.24 984.22 L 1005.55 983.11 L 1005.96 982.04 L 1006.31 980.96 L 1006.67 979.85 L 1007.01 978.75 L 1007.34 977.65 L 1007.55 976.46 L 1007.72 975.27 L 1007.88 973.99 L 1008.05 972.71 L 1008.24 971.43 L 1008.45 970.20 L 1008.67 968.96" stroke="rgb(205,165,255)" stroke-opacity="0.455" stroke-width="1.06" />
  <path d="M 1006.45 1001.21 L 1007.37 1002.38 L 1008.35 1003.50 L 1009.34 1004.61 L 1010.39 1005.65 L 1011.48 1006.65 L 1012.48 1007.73 L 1013.46 1008.81" stroke="rgb(230,230,230)" stroke-opacity="0.384" stroke-width="0.71" />
  <path d="M 1000.51 999.94 L 1001.97 999.89 L 1003.40 999.75 L 1004.84 999.70 L 1006.27 999.74 L 1007.69 999.88 L 1009.13 999.98 L 1010.58 999.95 L 1012.01 999.84 L 1013.43 999.67 L 1014.83 999.38 L 1016.23 999.09 L 1017.61 998.75 L 1018.97 998.33 L 1020.32 997.87 L 1021.66 997.41" stroke="rgb(230,230,230)" stroke-opacity="0.380" stroke-width="0.70" />
  <path d="M 1006.09 1000.82 L 1004.84 1001.56 L 1003.68 1002.11" stroke="rgb(230,230,230)" stroke-opacity="0.380" stroke-width="0.69" />
  <path d="M 1004.60 1000.60 L 1005.68 1000.36 L 1006.74 1000.12 L 1007.80 999.88 L 1008.83 999.59 L 1009.88 999.25 L 1010.89 999.03 L 1011.95 998.73 L 1012.98 998.43 L 1014.05 998.19 L 1015.01 997.97" stroke="rgb(230,230,230)" stroke-opacity="0.375" stroke-width="0.68" />
  <path d="M 997.61 1006.27 L 996.65 1007.41 L 995.51 1008.38 L 994.39 1009.35 L 993.58 1010.59 L 992.83 1011.87 L 992.08 1013.13 L 991.45 1014.44 L 990.68 1015.68 L 990.02 1016.96" stroke="rgb(230,230,230)" stroke-opacity="0.371" stroke-width="0.67" />
  <path d="M 996.41 995.01 L 994.98 995.11 L 993.55 995.37 L 992.12 995.61" stroke="rgb(230,230,230)" stroke-opacity="0.371" stroke-width="0.67" />
  <path d="M 998.58 999.10 L 997.75 999.61 L 996.84 1000.05 L 996.07 1000.55 L 995.30 1001.06 L 994.58 1001.56 L 994.04 1002.00 L 993.50 1002.42 L 993.02 1002.80 L 992.46 1002.97 L 991.96 1003.00" stroke="rgb(230,230,230)" stroke-opacity="0.371" stroke-width="0.67" />
  <path d="M 996.97 1004.43 L 996.57 1004.90 L 996.18 1005.43 L 995.89 1006.04 L 995.63 1006.62 L 995.35 1007.21 L 994.95 1007.81 L 994.55 1008.40 L 994.15 1008.96 L 993.71 1009.57 L 993.34 1010.03 L 992.93 1010.47 L 992.47 1010.75 L 991.99 1011.12 L 991.53 1011.47 L 990.98 1011.82 L 990.42 1012.19 L 989.89 1012.56 L 989.35 1013.00" stroke="rgb(230,230,230)" stroke-opacity="0.369" stroke-width="0.66" />
  <path d="M 995.42 997.58 L 996.48 998.52 L 997.57 999.43 L 998.66 1000.33 L 999.71 1001.31 L 1000.84 1002.17 L 1001.99 1003.01 L 1003.14 1003.81 L 1004.30 1004.58 L 1005.52 1005.30" stroke="rgb(230,230,230)" stroke-opacity="0.367" stroke-width="0.66" />
  <path d="M 995.60 1002.76 L 996.91 1002.25 L 998.14 1001.71 L 999.39 1001.25 L 1000.64 1000.80 L 1001.88 1000.36 L 1003.14 999.97 L 1004.39 999.61 L 1005.62 999.24 L 1006.86 998.86" stroke="rgb(230,230,230)" stroke-opacity="0.365" stroke-width="0.65" />
  <path d="M 1009.87 995.92 L 1011.06 996.75 L 1012.21 997.53 L 1013.35 998.32 L 1014.45 999.17 L 1015.52 1000.06 L 1016.60 1000.94" stroke="rgb(230,230,230)" stroke-opacity="0.364" stroke-width="0.65" />
  <path d="M 1003.92 1003.33 L 1004.59 1004.60 L 1005.34 1005.88 L 1006.06 1007.15 L 1006.92 1008.34 L 1007.75 1009.54 L 1008.54 1010.77 L 1009.28 1012.04 L 1009.93 1013.33 L 1010.62 1014.59 L 1011.25 1015.89" stroke="rgb(230,230,230)" stroke-opacity="0.363" stroke-width="0.65" />
  <path d="M 1004.12 1001.64 L 1005.05 1000.98 L 1005.90 1000.37 L 1006.80 999.71 L 1007.71 999.01 L 1008.64 998.27 L 1009.53 997.40 L 1010.48 996.47 L 1011.29 995.30" stroke="rgb(230,230,230)" stroke-opacity="0.360" stroke-width="0.64" />
  <path d="M 996.94 998.09 L 997.99 997.36 L 999.12 996.69 L 1000.25 996.03 L 1001.39 995.53 L 1002.51 995.00 L 1003.65 994.51 L 1004.87 994.10 L 1006.17 993.62" stroke="rgb(230,230,230)" stroke-opacity="0.358" stroke-width="0.63" />
  <path d="M 1002.40 998.55 L 1001.92 998.87 L 1001.30 999.08 L 1000.72 999.31 L 999.98 999.53 L 999.26 999.64 L 998.73 999.62 L 998.19 999.62" stroke="rgb(230,230,230)" stroke-opacity="0.356" stroke-width="0.63" />
  <path d="M 999.69 993.19 L 1000.81 993.84 L 1001.95 994.58 L 1003.12 995.29 L 1004.24 996.01 L 1005.36 996.72 L 1006.39 997.54 L 1007.43 998.32 L 1008.46 999.10 L 1009.48 999.87 L 1010.45 1000.65 L 1011.50 1001.35 L 1012.55 1002.03 L 1013.57 1002.76" stroke="rgb(230,230,230)" stroke-opacity="0.355" stroke-width="0.62" />
  <path d="M 999.06 994.18 L 998.25 993.14 L 997.36 992.21 L 996.47 991.29 L 995.47 990.37 L 994.48 989.48 L 993.48 988.61 L 992.47 987.77" stroke="rgb(230,230,230)" stroke-opacity="0.348" stroke-width="0.61" />
  <path d="M 1005.60 1007.21 L 1004.73 1006.14 L 1003.84 1005.12 L 1003.05 1004.06 L 1002.23 1002.99 L 1001.29 1001.95 L 1000.34 1000.96 L 999.29 1000.05" stroke="rgb(230,230,230)" stroke-opacity="0.348" stroke-width="0.61" />
</g>
</svg>
