{
  "asset": {
    "version": "2.0",
    "generator": "TES-23 Cosmic Ray Renderer"
  },
  "extensionsUsed": [
    "KHR_materials_unlit"
  ],
  "extensionsRequired": [
    "KHR_materials_unlit"
  ],
  "scene": 0,
  "scenes": [
    {
      "nodes": [
        0
      ]
    }
  ],
  "nodes": [
    {
      "name": "CosmicRayEvent",
      "mesh": 0
    }
  ],
  "meshes": [
    {
      "name": "CosmicRayEvent",
      "primitives": [
        {
          "attributes": {
            "POSITION": 0
          },
          "material": 0,
          "mode": 1
        },
        {
          "attributes": {
            "POSITION": 1
          },
          "material": 1,
          "mode": 1
        },
        {
          "attributes": {
            "POSITION": 2
          },
          "material": 2,
          "mode": 1
        },
        {
          "attributes": {
            "POSITION": 3
          },
          "material": 3,
          "mode": 1
        },
        {
          "attributes": {
            "POSITION": 4
          },
          "material": 4,
          "mode": 1
        }
      ]
    }
  ],
  "materials": [
    {
      "name": "primary",
      "extensions": {
        "KHR_materials_unlit": {}
      },
      "pbrMetallicRoughness": {
        "baseColorFactor": [
          0.961,
          0.961,
          0.961,
          1
        ],
        "metallicFactor": 0,
        "roughnessFactor": 1
      }
    },
    {
      "name": "vertex",
      "extensions": {
        "KHR_materials_unlit": {}
      },
      "pbrMetallicRoughness": {
        "baseColorFactor": [
          0.902,
          0.902,
          0.902,
          0.9
        ],
        "metallicFactor": 0,
        "roughnessFactor": 1
      }
    },
    {
      "name": "em",
      "extensions": {
        "KHR_materials_unlit": {}
      },
      "pbrMetallicRoughness": {
        "baseColorFactor": [
          0.471,
          0.824,
          1,
          1
        ],
        "metallicFactor": 0,
        "roughnessFactor": 1
      }
    },
    {
      "name": "hadron",
      "extensions": {
        "KHR_materials_unlit": {}
      },
      "pbrMetallicRoughness": {
        "baseColorFactor": [
          0.549,
          1,
          0.745,
          1
        ],
        "metallicFactor": 0,
        "roughnessFactor": 1
      }
    },
    {
      "name": "delta",
      "extensions": {
        "KHR_materials_unlit": {}
      },
      "pbrMetallicRoughness": {
        "baseColorFactor": [
          0.804,
          0.647,
          1,
          1
        ],
        "metallicFactor": 0,
        "roughnessFactor": 1
      }
    }
  ],
  "accessors": [
    {
      "bufferView": 0,
      "byteOffset": 0,
      "componentType": 5126,
      "count": 1364,
      "type": "VEC3",
      "min": [
        -0.9998453259468079,
        -0.15321506559848785,
        0
      ],
      "max": [
        1.020384669303894,
        0.16225862503051758,
        0
      ]
    },
    {
      "bufferView": 1,
      "byteOffset": 0,
      "componentType": 5126,
      "count": 326,
      "type": "VEC3",
      "min": [
        -0.008049212396144867,
        -0.01985936425626278,
        -0.046362873166799545
      ],
      "max": [
        0.022736456245183945,
        0.015427895821630955,
        0.07693549245595932
      ]
    },
    {
      "bufferView": 2,
      "byteOffset": 0,
      "componentType": 5126,
      "count": 1888,
      "type": "VEC3",
      "min": [
        -0.018810248002409935,
        -0.11697886884212494,
        -0.13583844900131226
      ],
      "max": [
        0.37419697642326355,
        0.0021773481275886297,
        0.2404143512248993
      ]
    },
    {
      "bufferView": 3,
      "byteOffset": 0,
      "componentType": 5126,
      "count": 3124,
      "type": "VEC3",
      "min": [
        -0.0027569353114813566,
        -0.1924208551645279,
        -0.2683885097503662
      ],
      "max": [
        0.2814832925796509,
        0.012829084880650043,
        0.45538783073425293
      ]
    },
    {
      "bufferView": 4,
      "byteOffset": 0,
      "componentType": 5126,
      "count": 812,
      "type": "VEC3",
      "min": [
        -0.09041976928710938,
        -0.05244872719049454,
        -0.2948518395423889
      ],
      "max": [
        0.16688291728496552,
        0.02798067033290863,
        0.44784173369407654
      ]
    }
  ],
  "bufferViews": [
    {
      "buffer": 0,
      "byteOffset": 0,
      "byteLength": 16368,
      "target": 34962
    },
    {
      "buffer": 0,
      "byteOffset": 16368,
      "byteLength": 3912,
      "target": 34962
    },
    {
      "buffer": 0,
      "byteOffset": 20280,
      "byteLength": 22656,
      "target": 34962
    },
    {
      "buffer": 0,
      "byteOffset": 42936,
      "byteLength": 37488,
      "target": 34962
    },
    {
      "buffer": 0,
      "byteOffset": 80424,
      "byteLength": 9744,
      "target": 34962
    }
  ],
  "buffers": [
    {
      "byteLength": 90168,
      "uri": "data:application/octet-stream;base64,"
    }
  ]
}