<?xml version="1.0" encoding="UTF-8"?>
<svg xmlns="http://www.w3.org/2000/svg" width="2000" height="2000" viewBox="0 0 2000 2000">
<g fill="none" stroke-linecap="round" stroke-linejoin="round">
  <path d="M 859.36 1123.05 L 856.49 1122.91 L 853.63 1122.76 L 850.79 1122.58 L 847.95 1122.43 L 845.13 1122.30 L 842.33 1122.15 L 839.54 1121.99 L 836.80 1121.82 L 834.08 1121.66 L 831.38 1121.50 L 828.70 1121.37 L 826.00 1121.29 L 823.32 1121.25 L 820.65 1121.20 L 817.95 1121.13 L 815.26 1121.06 L 812.56 1120.94 L 809.86 1120.77 L 807.16 1120.56 L 804.47 1120.33 L 801.78 1120.11 L 799.10 1119.88 L 796.43 1119.64 L 793.77 1119.41 L 791.11 1119.19 L 788.48 1118.97 L 785.86 1118.75 L 783.25 1118.53 L 780.65 1118.29 L 778.06 1118.08 L 775.48 1117.94 L 772.89 1117.81 L 770.33 1117.65 L 767.79 1117.50 L 765.25 1117.40 L 762.72 1117.29 L 760.23 1117.16 L 757.75 1117.02 L 755.29 1116.88 L 752.85 1116.74" stroke="rgb(255,210,135)" stroke-opacity="0.657" stroke-width="1.32" />
  <path d="M 1093.43 959.62 L 1096.55 958.81 L 1099.65 957.99 L 1102.73 957.18 L 1105.79 956.39 L 1108.84 955.60 L 1111.87 954.80 L 1114.88 954.00 L 1117.87 953.20 L 1120.85 952.41 L 1123.82 951.64 L 1126.78 950.88 L 1129.74 950.13 L 1132.69 949.37 L 1135.62 948.60 L 1138.52 947.77 L 1141.42 946.93 L 1144.31 946.10 L 1147.18 945.27 L 1150.04 944.44 L 1152.88 943.62 L 1155.70 942.77 L 1158.51 941.98 L 1161.33 941.21 L 1164.15 940.44 L 1166.96 939.67 L 1169.76 938.88 L 1172.54 938.06 L 1175.30 937.28 L 1178.06 936.46 L 1180.80 935.65 L 1183.54 934.86 L 1186.27 934.08 L 1188.99 933.30 L 1191.70 932.52 L 1194.39 931.68 L 1197.09 930.88 L 1199.78 930.04 L 1202.47 929.24 L 1205.14 928.41" stroke="rgb(120,210,255)" stroke-opacity="0.771" stroke-width="1.31" />
  <path d="M 1058.77 969.02 L 1061.55 967.27 L 1064.31 965.52 L 1067.04 963.77 L 1069.80 962.08 L 1072.54 960.42 L 1075.29 958.77 L 1078.02 957.12 L 1080.73 955.49 L 1083.43 953.87 L 1086.12 952.26 L 1088.82 950.69 L 1091.49 949.11 L 1094.12 947.51 L 1096.72 945.90 L 1099.32 944.32 L 1101.89 942.75 L 1104.47 941.19 L 1107.04 939.64 L 1109.63 938.12 L 1112.22 936.61 L 1114.76 935.07 L 1117.32 933.53 L 1119.91 932.08 L 1122.49 930.64 L 1125.13 929.30 L 1127.76 927.96 L 1130.38 926.61 L 1132.97 925.26 L 1135.58 923.97 L 1138.18 922.69 L 1140.76 921.39 L 1143.34 920.11 L 1145.93 918.88 L 1148.52 917.67 L 1151.10 916.47 L 1153.68 915.29 L 1156.26 914.12 L 1158.85 912.97 L 1161.44 911.90 L 1164.04 910.85 L 1166.58 909.70 L 1169.11 908.56 L 1171.64 907.43 L 1174.13 906.27 L 1176.61 905.12 L 1179.09 903.99 L 1181.55 902.82" stroke="rgb(120,210,255)" stroke-opacity="0.771" stroke-width="1.31" />
  <path d="M 1002.32 1000.65 L 999.87 1002.76 L 997.43 1004.85 L 995.00 1006.93 L 992.59 1009.01 L 990.14 1011.04 L 987.74 1013.12 L 985.35 1015.17 L 982.99 1017.21 L 980.63 1019.26 L 978.28 1021.32 L 975.94 1023.36 L 973.60 1025.39 L 971.28 1027.43 L 968.95 1029.44 L 966.64 1031.46 L 964.33 1033.47 L 962.00 1035.43 L 959.69 1037.42 L 957.39 1039.39 L 955.13 1041.39 L 952.86 1043.38 L 950.60 1045.35 L 948.34 1047.31 L 946.10 1049.26 L 943.86 1051.20 L 941.63 1053.12 L 939.41 1055.02 L 937.20 1056.95 L 934.99 1058.86 L 932.78 1060.74 L 930.58 1062.62 L 928.39 1064.51 L 926.18 1066.36 L 923.98 1068.21 L 921.80 1070.06 L 919.66 1071.92 L 917.53 1073.76 L 915.40 1075.59 L 913.27 1077.41 L 911.12 1079.20 L 909.00 1081.00 L 906.91 1082.81 L 904.84 1084.62 L 902.72 1086.37 L 900.61 1088.11 L 898.50 1089.84 L 896.43 1091.58 L 894.36 1093.30 L 892.31 1094.99 L 890.26 1096.66 L 888.23 1098.33 L 886.20 1099.99 L 884.19 1101.66 L 882.22 1103.35 L 880.26 1105.01 L 878.33 1106.69 L 876.40 1108.36 L 874.48 1110.02 L 872.58 1111.68 L 870.68 1113.33 L 868.79 1114.98 L 866.89 1116.60 L 864.98 1118.21 L 863.08 1119.82 L 861.20 1121.43 L 859.36 1123.05 L 857.52 1124.67 L 855.68 1126.27 L 853.84 1127.85 L 852.01 1129.43 L 850.19 1131.00 L 848.37 1132.55 L 846.56 1134.10 L 844.74 1135.65 L 842.96 1137.22 L 841.18 1138.77 L 839.42 1140.35 L 837.67 1141.92 L 835.94 1143.49 L 834.22 1145.05 L 832.49 1146.58 L 830.76 1148.10 L 829.05 1149.62" stroke="rgb(255,210,135)" stroke-opacity="0.655" stroke-width="1.31" />
  <path d="M 996.62 1001.83 L 999.68 1000.17 L 1002.73 998.52 L 1005.77 996.87 L 1008.79 995.22 L 1011.83 993.63 L 1014.86 992.07 L 1017.87 990.49 L 1020.87 988.91 L 1023.84 987.33 L 1026.81 985.75 L 1029.77 984.20 L 1032.73 982.67 L 1035.67 981.13 L 1038.60 979.60 L 1041.52 978.07 L 1044.42 976.55 L 1047.32 975.04 L 1050.19 973.52 L 1053.06 972.02 L 1055.92 970.51 L 1058.77 969.02 L 1061.61 967.54 L 1064.43 966.05 L 1067.23 964.57 L 1070.05 963.12 L 1072.85 961.68 L 1075.65 960.26 L 1078.43 958.83 L 1081.18 957.38 L 1083.93 955.93 L 1086.66 954.49 L 1089.39 953.07 L 1092.11 951.66 L 1094.81 950.24 L 1097.50 948.82 L 1100.18 947.42 L 1102.86 946.03" stroke="rgb(120,210,255)" stroke-opacity="0.769" stroke-width="1.31" />
  <path d="M 998.56 999.67 L 1001.48 997.88 L 1004.39 996.09 L 1007.28 994.30 L 1010.16 992.51 L 1013.04 990.75 L 1015.89 988.98 L 1018.74 987.22 L 1021.62 985.55 L 1024.49 983.88 L 1027.36 982.23 L 1030.21 980.59 L 1033.05 978.94 L 1035.87 977.29 L 1038.69 975.67 L 1041.49 974.04 L 1044.28 972.41 L 1047.05 970.79 L 1049.79 969.13 L 1052.52 967.49 L 1055.25 965.86 L 1057.93 964.20 L 1060.62 962.58 L 1063.29 960.94 L 1065.94 959.30 L 1068.57 957.66 L 1071.23 956.08 L 1073.87 954.49 L 1076.51 952.93 L 1079.14 951.38 L 1081.77 949.84 L 1084.39 948.32 L 1087.00 946.80 L 1089.60 945.30 L 1092.20 943.82 L 1094.78 942.32 L 1097.34 940.81 L 1099.90 939.34 L 1102.46 937.90 L 1105.00 936.45 L 1107.52 934.99 L 1110.04 933.54 L 1112.57 932.17 L 1115.11 930.82 L 1117.64 929.47 L 1120.17 928.14 L 1122.70 926.85 L 1125.22 925.56 L 1127.73 924.27 L 1130.20 922.94 L 1132.70 921.67 L 1135.20 920.41 L 1137.68 919.15 L 1140.15 917.90 L 1142.61 916.65 L 1145.07 915.42 L 1147.49 914.16 L 1149.92 912.90 L 1152.35 911.70" stroke="rgb(120,210,255)" stroke-opacity="0.769" stroke-width="1.31" />
  <path d="M 919.66 1071.92 L 918.92 1075.11 L 918.13 1078.29 L 917.35 1081.45 L 916.59 1084.61 L 915.82 1087.74 L 914.97 1090.85 L 914.15 1093.97 L 913.24 1097.06 L 912.33 1100.15 L 911.41 1103.22 L 910.46 1106.27 L 909.52 1109.31 L 908.58 1112.33 L 907.62 1115.32 L 906.64 1118.29 L 905.71 1121.27 L 904.75 1124.23 L 903.78 1127.17 L 902.82 1130.10 L 901.83 1133.01 L 900.84 1135.91 L 899.92 1138.83 L 898.97 1141.72 L 898.01 1144.60 L 897.08 1147.48 L 896.19 1150.35 L 895.31 1153.22 L 894.38 1156.05 L 893.43 1158.86 L 892.48 1161.65 L 891.55 1164.43 L 890.63 1167.21 L 889.70 1169.96 L 888.76 1172.70 L 887.85 1175.44 L 886.97 1178.18 L 886.10 1180.88 L 885.24 1183.58 L 884.46 1186.28 L 883.70 1188.97 L 882.95 1191.65 L 882.21 1194.31 L 881.47 1196.96 L 880.75 1199.59 L 880.02 1202.22 L 879.31 1204.86 L 878.56 1207.48 L 877.76 1210.07 L 876.95 1212.64 L 876.13 1215.20 L 875.31 1217.72 L 874.54 1220.25 L 873.84 1222.79 L 873.15 1225.32 L 872.47 1227.83 L 871.79 1230.33 L 871.07 1232.81" stroke="rgb(255,210,135)" stroke-opacity="0.653" stroke-width="1.30" />
  <path d="M 1029.43 988.26 L 1032.59 986.94 L 1035.75 985.64 L 1038.88 984.33 L 1042.00 983.02 L 1045.10 981.71 L 1048.20 980.43 L 1051.29 979.15 L 1054.36 977.87 L 1057.43 976.59 L 1060.47 975.32 L 1063.48 974.03 L 1066.49 972.75 L 1069.48 971.47 L 1072.46 970.20 L 1075.40 968.88 L 1078.32 967.57 L 1081.24 966.27 L 1084.15 964.99 L 1087.06 963.79 L 1089.97 962.62 L 1092.87 961.46 L 1095.78 960.29 L 1098.68 959.08 L 1101.55 957.85 L 1104.40 956.62 L 1107.26 955.41 L 1110.12 954.22 L 1112.97 953.04 L 1115.81 951.89 L 1118.65 950.77 L 1121.50 949.69 L 1124.36 948.65 L 1127.22 947.62 L 1130.05 946.56 L 1132.88 945.53 L 1135.70 944.48 L 1138.51 943.45 L 1141.30 942.40 L 1144.07 941.33 L 1146.83 940.27 L 1149.58 939.20 L 1152.32 938.15 L 1155.05 937.10 L 1157.77 936.07 L 1160.49 935.08 L 1163.22 934.11 L 1165.92 933.12 L 1168.60 932.13 L 1171.26 931.08 L 1173.89 930.02 L 1176.51 928.93 L 1179.10 927.82 L 1181.66 926.66 L 1184.19 925.48" stroke="rgb(120,210,255)" stroke-opacity="0.768" stroke-width="1.30" />
  <path d="M 1134.79 939.37 L 1137.80 938.38 L 1140.79 937.40 L 1143.75 936.34 L 1146.70 935.25 L 1149.63 934.10 L 1152.55 932.96 L 1155.45 931.83 L 1158.35 930.70 L 1161.21 929.53 L 1164.07 928.37 L 1166.91 927.21 L 1169.73 926.03 L 1172.54 924.86 L 1175.35 923.76 L 1178.16 922.71 L 1180.96 921.65 L 1183.74 920.56 L 1186.49 919.43 L 1189.28 918.44 L 1192.08 917.52 L 1194.88 916.60 L 1197.65 915.70 L 1200.43 914.82 L 1203.25 914.03 L 1206.05 913.23 L 1208.84 912.44 L 1211.59 911.59 L 1214.35 910.76 L 1217.09 909.92 L 1219.83 909.09 L 1222.56 908.25 L 1225.28 907.45 L 1227.99 906.65 L 1230.69 905.85 L 1233.37 905.04 L 1236.01 904.19 L 1238.65 903.38 L 1241.27 902.53 L 1243.88 901.69 L 1246.46 900.81 L 1249.03 899.91 L 1251.61 899.04 L 1254.19 898.19 L 1256.75 897.31 L 1259.30 896.43 L 1261.84 895.58 L 1264.36 894.70 L 1266.88 893.82 L 1269.38 892.96 L 1271.87 892.09 L 1274.34 891.22 L 1276.81 890.34 L 1279.27 889.49 L 1281.73 888.65 L 1284.17 887.81 L 1286.59 886.94 L 1289.01 886.08 L 1291.42 885.30" stroke="rgb(120,210,255)" stroke-opacity="0.766" stroke-width="1.30" />
  <path d="M 1075.65 960.26 L 1078.92 959.11 L 1082.19 957.97 L 1085.44 956.83 L 1088.68 955.73 L 1091.91 954.63 L 1095.15 953.61 L 1098.37 952.59 L 1101.58 951.61 L 1104.77 950.60 L 1107.97 949.67 L 1111.15 948.74 L 1114.33 947.83 L 1117.48 946.89 L 1120.62 945.93 L 1123.74 944.95 L 1126.85 943.97 L 1129.95 942.99 L 1133.04 942.03 L 1136.11 941.04 L 1139.15 940.03 L 1142.19 939.03 L 1145.22 938.06 L 1148.25 937.11 L 1151.27 936.17 L 1154.28 935.24 L 1157.28 934.32 L 1160.28 933.46 L 1163.27 932.60 L 1166.27 931.79 L 1169.25 930.99 L 1172.21 930.14 L 1175.17 929.33 L 1178.11 928.52 L 1181.05 927.71 L 1183.97 926.91 L 1186.87 926.10 L 1189.78 925.34 L 1192.67 924.56 L 1195.55 923.82 L 1198.44 923.10 L 1201.31 922.40 L 1204.17 921.72 L 1207.02 921.05 L 1209.87 920.40 L 1212.70 919.75 L 1215.52 919.09 L 1218.32 918.40 L 1221.11 917.73 L 1223.88 917.05 L 1226.65 916.37 L 1229.40 915.66 L 1232.14 914.96 L 1234.87 914.27 L 1237.60 913.62 L 1240.32 912.98 L 1243.03 912.33 L 1245.72 911.66 L 1248.40 911.01 L 1251.05 910.33 L 1253.70 909.63 L 1256.33 908.93 L 1258.95 908.22 L 1261.56 907.53 L 1264.16 906.82 L 1266.75 906.15 L 1269.33 905.45 L 1271.90 904.76 L 1274.45 904.04 L 1277.00 903.33 L 1279.53 902.60 L 1282.06 901.89 L 1284.58 901.18 L 1287.08 900.46 L 1289.58 899.74 L 1292.07 899.03 L 1294.55 898.31 L 1297.01 897.59 L 1299.47 896.89 L 1301.91 896.18 L 1304.36 895.51 L 1306.80 894.85 L 1309.22 894.19 L 1311.64 893.52 L 1314.06 892.90 L 1316.47 892.31 L 1318.87 891.71 L 1321.26 891.11" stroke="rgb(120,210,255)" stroke-opacity="0.766" stroke-width="1.30" />
  <path d="M 1001.10 998.53 L 1004.03 996.79 L 1006.94 995.06 L 1009.83 993.31 L 1012.69 991.55 L 1015.59 989.88 L 1018.47 988.19 L 1021.34 986.52 L 1024.17 984.80 L 1027.02 983.14 L 1029.85 981.48 L 1032.64 979.78 L 1035.42 978.08 L 1038.19 976.40 L 1040.94 974.70 L 1043.68 973.01 L 1046.40 971.33 L 1049.12 969.65 L 1051.82 967.98 L 1054.53 966.33 L 1057.23 964.70 L 1059.92 963.08 L 1062.59 961.45 L 1065.24 959.82 L 1067.86 958.16 L 1070.47 956.50 L 1073.07 954.85 L 1075.65 953.19 L 1078.24 951.58 L 1080.84 950.00 L 1083.43 948.43 L 1086.01 946.88 L 1088.59 945.33 L 1091.13 943.75 L 1093.66 942.17 L 1096.18 940.60 L 1098.69 939.03 L 1101.19 937.47 L 1103.65 935.88 L 1106.12 934.31 L 1108.57 932.74 L 1111.02 931.19 L 1113.47 929.66 L 1115.94 928.19 L 1118.39 926.71 L 1120.81 925.20 L 1123.20 923.66 L 1125.56 922.10 L 1127.92 920.55 L 1130.28 919.03 L 1132.61 917.49 L 1134.94 915.97 L 1137.23 914.40 L 1139.54 912.88 L 1141.83 911.36 L 1144.12 909.85 L 1146.39 908.34 L 1148.65 906.84 L 1150.92 905.36 L 1153.17 903.87 L 1155.42 902.40 L 1157.66 900.93 L 1159.86 899.44 L 1162.04 897.93 L 1164.21 896.42 L 1166.36 894.91 L 1168.51 893.40 L 1170.65 891.91 L 1172.77 890.40 L 1174.89 888.91 L 1176.99 887.41 L 1179.08 885.92 L 1181.16 884.43 L 1183.22 882.94 L 1185.28 881.46 L 1187.33 879.99 L 1189.36 878.51 L 1191.39 877.04 L 1193.43 875.61 L 1195.46 874.18 L 1197.47 872.74 L 1199.45 871.27 L 1201.43 869.81 L 1203.43 868.40 L 1205.43 867.01 L 1207.43 865.62 L 1209.40 864.22 L 1211.35 862.82 L 1213.30 861.41 L 1215.23 860.00 L 1217.15 858.60 L 1219.07 857.20 L 1220.97 855.81" stroke="rgb(120,210,255)" stroke-opacity="0.766" stroke-width="1.30" />
  <path d="M 1049.81 961.83 L 1052.18 959.75 L 1054.57 957.72 L 1056.96 955.70 L 1059.33 953.67 L 1061.67 951.63 L 1064.05 949.64 L 1066.49 947.77 L 1068.91 945.89 L 1071.31 944.02 L 1073.71 942.17 L 1076.09 940.31 L 1078.51 938.52 L 1080.93 936.74 L 1083.33 934.96 L 1085.73 933.20 L 1088.12 931.43 L 1090.48 929.65 L 1092.84 927.87 L 1095.24 926.17 L 1097.66 924.51 L 1100.10 922.91 L 1102.54 921.33 L 1104.96 919.74 L 1107.36 918.14 L 1109.75 916.54 L 1112.13 914.94 L 1114.48 913.34 L 1116.82 911.74 L 1119.15 910.12 L 1121.46 908.51 L 1123.76 906.91 L 1126.02 905.28 L 1128.26 903.63 L 1130.46 901.95 L 1132.69 900.32 L 1134.95 898.75 L 1137.20 897.21" stroke="rgb(120,210,255)" stroke-opacity="0.765" stroke-width="1.30" />
  <path d="M 1001.47 1002.08 L 1003.37 1001.66 L 1005.35 1001.24 L 1007.27 1000.80 L 1009.18 1000.49 L 1011.09 1000.22 L 1013.02 999.86 L 1014.94 999.50 L 1016.86 999.10 L 1018.77 998.71 L 1020.64 998.25 L 1022.50 997.82 L 1024.33 997.31 L 1026.16 996.80 L 1027.98 996.29 L 1029.79 995.78 L 1031.64 995.29 L 1033.49 994.80 L 1035.36 994.36 L 1037.19 993.99 L 1039.01 993.61 L 1040.83 993.23 L 1042.62 992.86 L 1044.42 992.49 L 1046.21 992.12 L 1047.95 991.74 L 1049.68 991.35 L 1051.41 990.93 L 1053.09 990.47 L 1054.76 990.03 L 1056.40 989.60 L 1058.03 989.18 L 1059.66 988.71 L 1061.30 988.25 L 1062.95 987.80 L 1064.61 987.33 L 1066.23 986.85 L 1067.91 986.45 L 1069.59 986.06 L 1071.30 985.73 L 1073.01 985.40 L 1074.72 985.05" stroke="rgb(255,210,135)" stroke-opacity="0.649" stroke-width="1.29" />
  <path d="M 1167.51 923.10 L 1170.37 921.32 L 1173.19 919.51 L 1176.03 917.75 L 1178.85 916.00 L 1181.66 914.24 L 1184.41 912.44 L 1187.18 910.69 L 1189.94 908.95 L 1192.71 907.26 L 1195.47 905.58 L 1198.21 903.89 L 1200.95 902.21 L 1203.62 900.46 L 1206.29 898.72" stroke="rgb(120,210,255)" stroke-opacity="0.763" stroke-width="1.29" />
  <path d="M 1038.93 981.23 L 1041.92 980.07 L 1044.87 978.88 L 1047.83 977.74 L 1050.78 976.60 L 1053.72 975.48 L 1056.66 974.37 L 1059.59 973.29 L 1062.50 972.21 L 1065.41 971.14 L 1068.31 970.10 L 1071.18 969.00 L 1074.03 967.88 L 1076.86 966.73 L 1079.66 965.56 L 1082.44 964.37 L 1085.25 963.27 L 1088.02 962.13 L 1090.74 960.89 L 1093.43 959.62 L 1096.10 958.32 L 1098.77 957.06 L 1101.43 955.81 L 1104.10 954.59 L 1106.75 953.38 L 1109.40 952.17 L 1111.99 950.88 L 1114.57 949.59 L 1117.16 948.34 L 1119.70 947.04 L 1122.25 945.77 L 1124.78 944.48 L 1127.30 943.19 L 1129.80 941.91 L 1132.29 940.62 L 1134.79 939.37 L 1137.28 938.13 L 1139.76 936.91 L 1142.24 935.70 L 1144.72 934.51 L 1147.15 933.25 L 1149.56 931.99 L 1151.96 930.71 L 1154.33 929.43 L 1156.70 928.15 L 1159.08 926.91 L 1161.46 925.70 L 1163.86 924.55" stroke="rgb(120,210,255)" stroke-opacity="0.761" stroke-width="1.29" />
  <path d="M 997.46 999.23 L 1000.21 997.69 L 1002.95 996.15 L 1005.67 994.60 L 1008.38 993.06 L 1011.07 991.52 L 1013.77 990.02 L 1016.46 988.53 L 1019.14 987.02 L 1021.79 985.51 L 1024.44 984.02 L 1027.08 982.53 L 1029.70 981.05 L 1032.31 979.55 L 1034.92 978.08 L 1037.51 976.62 L 1040.12 975.21 L 1042.73 973.82 L 1045.32 972.41" stroke="rgb(120,210,255)" stroke-opacity="0.761" stroke-width="1.28" />
  <path d="M 999.63 996.99 L 1002.36 995.52 L 1005.04 993.99 L 1007.70 992.45 L 1010.36 990.94 L 1013.07 989.55 L 1015.73 988.10 L 1018.42 986.71 L 1021.09 985.31 L 1023.76 983.96 L 1026.43 982.62 L 1029.07 981.25 L 1031.70 979.89 L 1034.32 978.55 L 1036.91 977.17 L 1039.49 975.79 L 1042.09 974.48 L 1044.71 973.23 L 1047.32 971.97 L 1049.92 970.74 L 1052.51 969.51 L 1055.10 968.30 L 1057.71 967.17 L 1060.31 966.02 L 1062.88 964.84 L 1065.42 963.66 L 1067.96 962.47 L 1070.51 961.34 L 1073.05 960.21 L 1075.57 959.08 L 1078.09 957.96 L 1080.59 956.83 L 1083.07 955.68 L 1085.53 954.53 L 1087.98 953.36 L 1090.41 952.19 L 1092.83 951.04 L 1095.25 949.88 L 1097.65 948.74 L 1100.06 947.66 L 1102.47 946.58 L 1104.80 945.38 L 1107.13 944.23 L 1109.45 943.10 L 1111.74 941.92 L 1114.03 940.74 L 1116.31 939.56 L 1118.58 938.43 L 1120.83 937.25" stroke="rgb(120,210,255)" stroke-opacity="0.568" stroke-width="1.27" />
  <path d="M 1039.87 979.98 L 1042.66 978.88 L 1045.44 977.78 L 1048.23 976.75 L 1051.01 975.74 L 1053.75 974.64 L 1056.49 973.57 L 1059.21 972.49 L 1061.93 971.46 L 1064.65 970.43 L 1067.36 969.45 L 1070.06 968.47 L 1072.76 967.52 L 1075.47 966.63 L 1078.17 965.78 L 1080.86 964.93 L 1083.53 964.04 L 1086.23 963.26 L 1088.86 962.31 L 1091.48 961.36 L 1094.12 960.52 L 1096.74 959.67 L 1099.36 958.87 L 1101.98 958.08 L 1104.60 957.33 L 1107.19 956.53 L 1109.76 955.70 L 1112.31 954.88 L 1114.85 954.04 L 1117.37 953.20 L 1119.89 952.36 L 1122.40 951.50 L 1124.92 950.72 L 1127.43 949.95 L 1129.96 949.26 L 1132.47 948.58 L 1134.99 947.94 L 1137.49 947.31 L 1139.99 946.70 L 1142.49 946.13 L 1144.96 945.50 L 1147.43 944.87 L 1149.89 944.28 L 1152.33 943.66 L 1154.77 943.04" stroke="rgb(120,210,255)" stroke-opacity="0.560" stroke-width="1.25" />
  <path d="M 1002.05 1002.54 L 1004.63 1000.97 L 1007.21 999.42 L 1009.76 997.86 L 1012.31 996.32 L 1014.84 994.75 L 1017.36 993.20 L 1019.88 991.67 L 1022.39 990.14 L 1024.90 988.65 L 1027.43 987.21 L 1029.96 985.79 L 1032.45 984.33 L 1034.94 982.89 L 1037.41 981.43 L 1039.87 979.98 L 1042.33 978.57 L 1044.77 977.12 L 1047.18 975.66 L 1049.58 974.19 L 1051.98 972.77 L 1054.40 971.38 L 1056.81 970.00 L 1059.22 968.65 L 1061.62 967.30 L 1064.01 965.96 L 1066.38 964.61 L 1068.74 963.25" stroke="rgb(120,210,255)" stroke-opacity="0.558" stroke-width="1.24" />
  <path d="M 999.51 1000.22 L 1001.89 998.74 L 1004.24 997.22 L 1006.57 995.70 L 1008.87 994.15 L 1011.11 992.53 L 1013.32 990.89 L 1015.52 989.26 L 1017.71 987.62 L 1019.88 985.99 L 1022.03 984.35 L 1024.11 982.64 L 1026.22 980.98 L 1028.29 979.27 L 1030.31 977.54 L 1032.26 975.74 L 1034.21 973.97 L 1036.19 972.25" stroke="rgb(120,210,255)" stroke-opacity="0.553" stroke-width="1.22" />
  <path d="M 1209.87 920.40 L 1212.47 919.73 L 1215.09 919.10 L 1217.68 918.47 L 1220.26 917.76 L 1222.84 917.03 L 1225.39 916.20 L 1227.94 915.40 L 1230.49 914.65 L 1232.98 913.75 L 1235.35 912.69 L 1237.75 911.73 L 1240.09 910.73 L 1242.48 909.79 L 1244.81 908.84 L 1247.13 907.89 L 1249.43 906.90 L 1251.67 905.90 L 1253.92 904.91 L 1256.15 903.90 L 1258.35 902.88 L 1260.53 901.88 L 1262.73 900.96 L 1264.90 900.08 L 1267.02 899.14 L 1269.13 898.20 L 1271.18 897.22 L 1273.23 896.27 L 1275.26 895.33 L 1277.25 894.41 L 1279.28 893.40 L 1281.23 892.29 L 1283.12 891.05 L 1285.04 889.84 L 1286.92 888.60 L 1288.77 887.35 L 1290.61 886.03 L 1292.45 884.64 L 1294.29 883.28 L 1296.14 881.92 L 1297.99 880.57 L 1299.86 879.24 L 1301.70 877.88 L 1303.51 876.51 L 1305.31 875.18 L 1307.15 873.95 L 1308.99 872.75 L 1310.86 871.59 L 1312.69 870.33 L 1314.51 869.07 L 1316.30 867.80 L 1318.07 866.46 L 1319.85 865.13 L 1321.62 863.80 L 1323.40 862.51 L 1325.19 861.20 L 1326.99 859.90 L 1328.79 858.58 L 1330.55 857.24 L 1332.29 855.87" stroke="rgb(120,210,255)" stroke-opacity="0.551" stroke-width="1.22" />
  <path d="M 1148.11 927.78 L 1149.79 925.61 L 1151.46 923.45 L 1153.11 921.30 L 1154.79 919.19 L 1156.41 917.04 L 1157.99 914.85" stroke="rgb(120,210,255)" stroke-opacity="0.551" stroke-width="1.22" />
  <path d="M 1122.70 926.85 L 1125.44 926.23 L 1128.18 925.64 L 1130.91 925.07 L 1133.62 924.50 L 1136.31 923.86 L 1138.94 923.12 L 1141.58 922.42 L 1144.22 921.81 L 1146.84 921.18 L 1149.47 920.63 L 1152.10 920.12 L 1154.73 919.71 L 1157.36 919.33" stroke="rgb(120,210,255)" stroke-opacity="0.549" stroke-width="1.21" />
  <path d="M 996.26 1004.78 L 997.60 1003.30 L 998.93 1001.79 L 1000.16 1000.27 L 1001.45 998.79 L 1002.76 997.33 L 1004.03 995.83 L 1005.32 994.34 L 1006.65 992.89 L 1007.94 991.46 L 1009.23 990.03 L 1010.48 988.58 L 1011.73 987.09 L 1012.96 985.60 L 1014.23 984.07 L 1015.49 982.49 L 1016.74 980.91 L 1018.02 979.37 L 1019.24 977.81 L 1020.45 976.27 L 1021.73 974.73 L 1022.99 973.20 L 1024.26 971.67 L 1025.50 970.11 L 1026.74 968.53 L 1027.96 966.88 L 1029.22 965.29 L 1030.53 963.74 L 1031.84 962.20 L 1033.20 960.70 L 1034.57 959.21 L 1035.93 957.71 L 1037.27 956.19 L 1038.67 954.72 L 1040.08 953.28 L 1041.47 951.87 L 1042.79 950.42 L 1044.09 948.95 L 1045.39 947.46 L 1046.62 945.89 L 1047.76 944.25 L 1048.90 942.62 L 1050.03 940.99 L 1051.13 939.30 L 1052.23 937.68 L 1053.31 936.03 L 1054.36 934.41 L 1055.41 932.78 L 1056.48 931.18 L 1057.54 929.58 L 1058.60 927.98 L 1059.68 926.40" stroke="rgb(255,210,135)" stroke-opacity="0.421" stroke-width="1.19" />
  <path d="M 1026.66 1016.90 L 1027.91 1018.84 L 1029.07 1020.91 L 1030.22 1022.94 L 1031.43 1024.96 L 1032.56 1026.97 L 1033.71 1029.00 L 1034.84 1030.99 L 1035.91 1032.93 L 1037.02 1034.97 L 1038.12 1037.00 L 1039.19 1039.04 L 1040.23 1041.06 L 1041.27 1042.99 L 1042.24 1044.95 L 1043.07 1047.00 L 1043.96 1049.02 L 1044.73 1051.06 L 1045.48 1053.06 L 1046.25 1055.04 L 1047.01 1056.98 L 1047.66 1058.93 L 1048.31 1060.87 L 1048.89 1062.89 L 1049.47 1064.91 L 1050.05 1066.97 L 1050.69 1069.00 L 1051.35 1071.03 L 1051.97 1073.05 L 1052.62 1075.06 L 1053.25 1077.04 L 1053.90 1078.96 L 1054.53 1080.93 L 1055.17 1082.81 L 1055.71 1084.67 L 1056.07 1086.58 L 1056.43 1088.48 L 1056.81 1090.37 L 1057.23 1092.18 L 1057.76 1093.96 L 1058.29 1095.74 L 1058.81 1097.48 L 1059.33 1099.21" stroke="rgb(255,210,135)" stroke-opacity="0.417" stroke-width="1.17" />
  <path d="M 999.90 1003.27 L 1001.77 1004.35 L 1003.63 1005.45 L 1005.49 1006.52 L 1007.41 1007.55 L 1009.32 1008.64 L 1011.24 1009.70 L 1013.17 1010.70 L 1015.14 1011.64 L 1017.05 1012.56 L 1018.97 1013.46 L 1020.92 1014.35 L 1022.86 1015.22 L 1024.81 1016.04 L 1026.66 1016.90 L 1028.48 1017.75 L 1030.33 1018.51 L 1032.18 1019.21 L 1034.03 1019.91 L 1035.86 1020.65 L 1037.70 1021.40 L 1039.54 1022.15 L 1041.33 1023.01 L 1043.15 1023.84 L 1044.96 1024.67 L 1046.72 1025.50 L 1048.47 1026.32 L 1050.20 1027.19 L 1051.90 1028.01 L 1053.57 1028.86 L 1055.23 1029.73 L 1056.88 1030.60 L 1058.50 1031.39 L 1060.14 1032.22 L 1061.74 1032.95 L 1063.33 1033.72 L 1064.90 1034.45 L 1066.46 1035.17 L 1068.02 1035.92 L 1069.53 1036.65 L 1071.06 1037.39 L 1072.57 1038.16 L 1074.07 1039.02 L 1075.51 1039.83 L 1076.97 1040.66 L 1078.46 1041.47 L 1079.96 1042.35 L 1081.42 1043.24" stroke="rgb(255,210,135)" stroke-opacity="0.415" stroke-width="1.16" />
  <path d="M 1078.43 958.83 L 1080.46 957.23 L 1082.48 955.64 L 1084.56 954.16 L 1086.66 952.79 L 1088.80 951.53 L 1090.91 950.39 L 1093.02 949.36 L 1095.12 948.47 L 1097.14 947.58 L 1099.16 946.66 L 1101.18 945.73 L 1103.17 944.79 L 1105.15 943.82 L 1107.16 942.89 L 1109.16 941.95 L 1111.17 941.02 L 1113.17 940.10 L 1115.19 939.29 L 1117.18 938.41 L 1119.15 937.53 L 1121.03 936.58 L 1122.88 935.62 L 1124.77 934.72 L 1126.69 933.94 L 1128.64 933.26 L 1130.57 932.56 L 1132.44 931.87 L 1134.33 931.29 L 1136.30 930.74 L 1138.24 930.21 L 1140.19 929.67 L 1142.16 929.23 L 1144.17 928.74 L 1146.15 928.26 L 1148.11 927.78 L 1150.09 927.43 L 1152.03 927.07 L 1153.89 926.66 L 1155.69 926.30 L 1157.49 925.93 L 1159.28 925.57 L 1161.07 925.20 L 1162.76 924.71 L 1164.39 924.24 L 1165.96 923.67 L 1167.51 923.10 L 1169.01 922.51 L 1170.50 921.93 L 1172.06 921.38 L 1173.58 920.83 L 1175.11 920.30 L 1176.60 919.77 L 1178.11 919.24" stroke="rgb(120,210,255)" stroke-opacity="0.535" stroke-width="1.16" />
  <path d="M 999.55 998.64 L 1001.87 997.44 L 1004.19 996.24 L 1006.49 995.05 L 1008.80 993.90 L 1011.12 992.78 L 1013.42 991.70 L 1015.72 990.63 L 1018.00 989.54 L 1020.26 988.42 L 1022.51 987.27 L 1024.79 986.22 L 1027.07 985.19 L 1029.34 984.17 L 1031.64 983.23 L 1033.92 982.29 L 1036.19 981.35 L 1038.47 980.43 L 1040.76 979.57 L 1043.02 978.68 L 1045.29 977.83 L 1047.55 976.96 L 1049.80 976.11 L 1052.05 975.29 L 1054.30 974.51 L 1056.55 973.73 L 1058.75 972.87 L 1060.94 972.00 L 1063.16 971.22 L 1065.36 970.43 L 1067.55 969.64 L 1069.74 968.87 L 1071.92 968.11 L 1074.10 967.37 L 1076.27 966.65 L 1078.42 965.86 L 1080.54 965.05 L 1082.66 964.24 L 1084.78 963.48 L 1086.93 962.83 L 1089.08 962.21 L 1091.23 961.62 L 1093.37 961.03 L 1095.52 960.49 L 1097.65 959.95 L 1099.78 959.42 L 1101.93 959.02 L 1104.07 958.63 L 1106.20 958.27 L 1108.33 957.88 L 1110.44 957.50 L 1112.56 957.17 L 1114.66 956.84 L 1116.76 956.49 L 1118.85 956.14 L 1120.91 955.73 L 1122.96 955.27 L 1125.00 954.82 L 1127.03 954.37 L 1129.04 953.90 L 1131.05 953.43 L 1133.02 952.92 L 1134.99 952.45 L 1136.97 952.05 L 1138.91 951.56 L 1140.84 951.08 L 1142.75 950.58 L 1144.71 950.19 L 1146.66 949.81 L 1148.61 949.45 L 1150.54 949.09 L 1152.47 948.70 L 1154.38 948.29 L 1156.29 947.87 L 1158.19 947.50" stroke="rgb(120,210,255)" stroke-opacity="0.533" stroke-width="1.15" />
  <path d="M 1004.42 997.55 L 1005.27 995.22 L 1006.07 992.87 L 1006.80 990.51 L 1007.59 988.19 L 1008.42 985.90 L 1009.21 983.60 L 1010.00 981.31 L 1010.77 979.03 L 1011.51 976.75 L 1012.25 974.49 L 1013.03 972.26 L 1013.82 970.04 L 1014.65 967.84 L 1015.41 965.63 L 1016.25 963.49 L 1017.08 961.34 L 1018.01 959.23 L 1018.93 957.13 L 1019.79 955.00 L 1020.67 952.89 L 1021.54 950.80 L 1022.43 948.75 L 1023.33 946.70 L 1024.22 944.66 L 1025.11 942.63 L 1026.01 940.61 L 1026.87 938.57 L 1027.74 936.54 L 1028.58 934.50 L 1029.41 932.46 L 1030.16 930.40 L 1030.88 928.35 L 1031.63 926.32 L 1032.37 924.33 L 1033.13 922.35 L 1033.87 920.36 L 1034.60 918.39 L 1035.36 916.44 L 1036.14 914.49 L 1036.92 912.56 L 1037.72 910.60 L 1038.52 908.65 L 1039.30 906.69 L 1040.11 904.76 L 1040.96 902.87 L 1041.83 900.98 L 1042.66 899.09" stroke="rgb(255,210,135)" stroke-opacity="0.411" stroke-width="1.14" />
  <path d="M 1001.86 1004.30 L 1004.07 1003.08 L 1006.25 1001.85 L 1008.42 1000.61 L 1010.55 999.33 L 1012.68 998.06 L 1014.81 996.80 L 1016.98 995.66 L 1019.12 994.48 L 1021.25 993.31 L 1023.30 992.03 L 1025.35 990.76 L 1027.40 989.51 L 1029.43 988.26 L 1031.44 986.96 L 1033.36 985.57 L 1035.24 984.14 L 1037.08 982.67 L 1038.93 981.23 L 1040.83 979.89 L 1042.69 978.48 L 1044.59 977.15 L 1046.47 975.81 L 1048.33 974.47 L 1050.19 973.13" stroke="rgb(120,210,255)" stroke-opacity="0.530" stroke-width="1.14" />
  <path d="M 999.50 995.81 L 1001.60 994.54 L 1003.69 993.27 L 1005.78 992.01 L 1007.89 990.81 L 1009.99 989.62 L 1012.07 988.41 L 1014.14 987.19 L 1016.21 986.00 L 1018.28 984.83 L 1020.34 983.66 L 1022.35 982.42 L 1024.34 981.17 L 1026.28 979.85 L 1028.15 978.46 L 1030.03 977.08 L 1031.85 975.64 L 1033.66 974.21 L 1035.47 972.80 L 1037.30 971.43 L 1039.15 970.09 L 1040.97 968.74 L 1042.80 967.40 L 1044.59 966.03 L 1046.33 964.62 L 1048.07 963.22 L 1049.81 961.83 L 1051.53 960.43 L 1053.20 958.98 L 1054.84 957.52 L 1056.47 956.06 L 1058.11 954.61 L 1059.76 953.21 L 1061.40 951.79 L 1063.02 950.37 L 1064.64 948.96 L 1066.25 947.56 L 1067.81 946.11 L 1069.38 944.68 L 1071.00 943.32 L 1072.62 941.98 L 1074.21 940.62 L 1075.80 939.26 L 1077.38 937.91 L 1078.94 936.55" stroke="rgb(120,210,255)" stroke-opacity="0.527" stroke-width="1.13" />
  <path d="M 1002.20 1001.96 L 1000.08 1003.39 L 997.97 1004.83 L 995.87 1006.26 L 993.76 1007.68 L 991.64 1009.05 L 989.52 1010.40 L 987.41 1011.75 L 985.27 1013.05 L 983.19 1014.41 L 981.12 1015.77 L 979.06 1017.12 L 976.98 1018.44 L 974.91 1019.75 L 972.85 1021.05 L 970.79 1022.33 L 968.74 1023.61 L 966.68 1024.86 L 964.68 1026.16 L 962.76 1027.58 L 960.85 1028.99 L 959.00 1030.46 L 957.17 1031.93 L 955.33 1033.39 L 953.57 1034.93 L 951.82 1036.47 L 950.08 1037.99 L 948.36 1039.53 L 946.63 1041.04 L 944.90 1042.55 L 943.16 1044.02 L 941.40 1045.47 L 939.62 1046.87 L 937.82 1048.24 L 936.05 1049.63 L 934.32 1051.05 L 932.59 1052.46 L 930.84 1053.83 L 929.09 1055.19 L 927.37 1056.57 L 925.74 1058.05 L 924.09 1059.49 L 922.49 1060.96 L 920.88 1062.42" stroke="rgb(255,210,135)" stroke-opacity="0.408" stroke-width="1.13" />
  <path d="M 948.36 1039.53 L 947.06 1041.65 L 945.64 1043.68 L 944.22 1045.69 L 942.81 1047.69 L 941.50 1049.72 L 940.19 1051.73 L 938.89 1053.75 L 937.70 1055.85 L 936.54 1057.95 L 935.42 1060.09 L 934.34 1062.24 L 933.37 1064.42 L 932.38 1066.59 L 931.40 1068.74 L 930.49 1070.92 L 929.48 1073.05 L 928.47 1075.17 L 927.36 1077.22 L 926.25 1079.26 L 925.10 1081.28 L 923.98 1083.29 L 922.87 1085.30 L 921.75 1087.25 L 920.67 1089.23 L 919.63 1091.21" stroke="rgb(255,210,135)" stroke-opacity="0.406" stroke-width="1.12" />
  <path d="M 1000.87 995.93 L 998.77 995.50 L 996.68 995.07 L 994.59 994.63 L 992.52 994.12 L 990.45 993.76 L 988.38 993.40 L 986.32 993.04 L 984.28 992.75 L 982.27 992.36 L 980.26 991.98 L 978.27 991.63 L 976.27 991.27 L 974.27 990.94 L 972.28 990.60 L 970.23 990.32 L 968.21 990.02 L 966.20 989.70 L 964.19 989.37 L 962.20 989.04 L 960.21 988.71 L 958.22 988.45 L 956.23 988.18 L 954.25 987.92 L 952.27 987.65 L 950.30 987.38 L 948.35 987.09 L 946.41 986.80 L 944.49 986.52 L 942.60 986.25 L 940.72 985.97 L 938.85 985.65 L 937.00 985.25 L 935.16 984.86 L 933.36 984.41 L 931.57 983.96 L 929.84 983.36 L 928.09 982.77 L 926.35 982.18 L 924.62 981.60 L 922.89 981.02 L 921.20 980.36 L 919.46 979.79 L 917.73 979.18 L 916.01 978.57 L 914.30 977.99 L 912.56 977.53 L 910.82 977.08 L 909.07 976.71 L 907.31 976.34" stroke="rgb(255,210,135)" stroke-opacity="0.400" stroke-width="1.09" />
  <path d="M 1171.64 907.43 L 1173.62 906.67 L 1175.62 905.97 L 1177.61 905.30 L 1179.62 904.68 L 1181.60 903.99 L 1183.61 903.38 L 1185.58 902.76 L 1187.59 902.22 L 1189.57 901.62 L 1191.59 901.14 L 1193.60 900.67 L 1195.60 900.20 L 1197.62 899.78 L 1199.62 899.35 L 1201.64 898.98 L 1203.63 898.55 L 1205.63 898.13 L 1207.60 897.72 L 1209.57 897.28 L 1211.54 896.83 L 1213.50 896.39 L 1215.46 896.01 L 1217.42 895.59 L 1219.38 895.26 L 1221.34 894.94 L 1223.28 894.67 L 1225.19 894.22 L 1227.09 893.72 L 1228.99 893.24 L 1230.87 892.65 L 1232.74 892.09 L 1234.61 891.53 L 1236.47 890.98 L 1238.33 890.42 L 1240.17 889.85 L 1242.05 889.37 L 1243.92 888.88 L 1245.78 888.39 L 1247.63 887.90 L 1249.48 887.45" stroke="rgb(120,210,255)" stroke-opacity="0.510" stroke-width="1.08" />
  <path d="M 934.99 1058.86 L 933.02 1059.83 L 931.09 1060.84 L 929.18 1061.87 L 927.28 1062.88 L 925.42 1063.94 L 923.60 1065.04 L 921.78 1066.14 L 920.00 1067.22 L 918.24 1068.33 L 916.56 1069.50 L 914.96 1070.81 L 913.38 1072.12 L 911.81 1073.42 L 910.25 1074.74 L 908.61 1075.99 L 907.02 1077.29" stroke="rgb(255,210,135)" stroke-opacity="0.394" stroke-width="1.07" />
  <path d="M 1034.57 959.21 L 1034.94 957.12 L 1035.24 955.04 L 1035.58 952.97 L 1035.88 950.93 L 1036.28 948.90 L 1036.67 946.90 L 1037.24 944.91 L 1038.05 943.07 L 1039.00 941.34 L 1039.97 939.64 L 1041.02 937.98 L 1042.21 936.43 L 1043.45 934.92 L 1044.69 933.43 L 1046.00 931.97 L 1047.30 930.53 L 1048.60 929.09 L 1049.90 927.66 L 1051.20 926.24 L 1052.49 924.82 L 1053.76 923.40 L 1055.05 922.02 L 1056.42 920.75 L 1057.78 919.47 L 1059.11 918.14 L 1060.41 916.80 L 1061.71 915.44 L 1062.98 914.10 L 1064.32 912.84 L 1065.65 911.58 L 1066.99 910.35 L 1068.29 909.08 L 1069.57 907.80 L 1070.83 906.53 L 1072.10 905.34 L 1073.38 904.16 L 1074.65 902.99 L 1075.93 901.82 L 1077.20 900.64 L 1078.54 899.60 L 1079.85 898.52 L 1081.15 897.44 L 1082.43 896.36 L 1083.71 895.28 L 1084.88 894.18 L 1086.06 893.09 L 1087.28 892.05 L 1088.50 890.96 L 1089.74 889.90 L 1091.00 888.88 L 1092.27 887.88 L 1093.46 886.84 L 1094.63 885.82 L 1095.82 884.80 L 1097.01 883.78 L 1098.17 882.75 L 1099.39 881.86 L 1100.56 880.92 L 1101.71 879.92 L 1102.85 878.98 L 1103.93 878.03 L 1105.03 877.08 L 1106.11 876.13 L 1107.19 875.19 L 1108.20 874.24 L 1109.23 873.37" stroke="rgb(255,210,135)" stroke-opacity="0.392" stroke-width="1.06" />
  <path d="M 0.05 1574.56 L 2.92 1573.75 L 5.17 1571.97 L 7.59 1570.58 L 10.41 1569.44 L 12.84 1567.59 L 15.53 1566.20 L 18.20 1564.52 L 20.60 1562.89 L 23.52 1561.68 L 26.21 1559.75 L 28.48 1558.49 L 30.86 1557.07 L 33.84 1555.56 L 36.54 1554.21 L 38.72 1552.75 L 41.64 1551.48 L 43.88 1549.49 L 46.76 1547.53 L 49.06 1546.78 L 52.12 1544.65 L 54.31 1543.12 L 57.27 1542.16 L 60.12 1540.71 L 62.39 1538.98 L 65.03 1537.35 L 67.77 1535.90 L 69.90 1534.46 L 72.96 1532.92 L 75.40 1531.80 L 78.33 1530.09 L 80.74 1528.78 L 83.52 1527.03 L 86.23 1525.99 L 88.64 1524.42 L 91.00 1521.95 L 93.38 1521.51 L 96.43 1519.32 L 98.77 1518.45 L 101.34 1516.50 L 104.08 1514.87 L 106.49 1513.80 L 109.18 1512.31 L 111.94 1510.54 L 114.33 1509.03 L 117.16 1507.71 L 119.59 1505.94 L 122.34 1504.45 L 124.84 1503.15 L 127.51 1501.45 L 129.77 1500.07 L 132.75 1498.77 L 134.95 1496.93 L 137.84 1495.73 L 140.37 1494.45 L 142.99 1492.37 L 145.67 1491.01 L 148.09 1489.48 L 150.72 1488.35 L 152.96 1486.53 L 155.67 1485.16 L 158.71 1483.64 L 161.00 1482.15 L 164.60 1481.10 L 166.31 1479.29 L 169.05 1477.79 L 172.08 1476.03 L 173.92 1474.89 L 176.75 1473.08 L 178.99 1471.70 L 182.12 1470.19 L 184.62 1468.73 L 187.52 1467.45 L 189.70 1465.84 L 192.38 1464.30 L 195.27 1463.03 L 197.49 1461.28 L 200.10 1459.38 L 202.71 1458.54 L 205.59 1456.33 L 208.03 1455.36 L 210.38 1453.88 L 213.46 1451.89 L 216.40 1450.70 L 218.64 1449.23 L 221.21 1447.74 L 223.24 1446.92 L 226.25 1444.78 L 228.64 1443.36 L 231.90 1441.91 L 234.53 1440.50 L 236.63 1439.10 L 238.98 1437.46 L 242.16 1435.81 L 244.24 1434.25 L 247.22 1433.07 L 249.55 1431.52 L 251.98 1429.57 L 255.06 1428.18 L 257.80 1426.68 L 259.99 1425.42 L 262.68 1423.58 L 265.20 1422.48 L 267.63 1420.54 L 270.63 1419.38 L 272.84 1417.67 L 275.67 1416.16 L 278.25 1414.46 L 280.92 1413.58 L 283.70 1412.13 L 285.83 1410.67 L 289.36 1408.92 L 291.22 1407.17 L 293.93 1405.95 L 296.12 1404.67 L 299.49 1402.84 L 301.78 1401.69 L 304.22 1400.17 L 307.27 1398.22 L 309.27 1396.92 L 311.47 1395.24 L 314.70 1393.90 L 316.96 1392.59 L 320.03 1390.61 L 322.67 1389.43 L 324.93 1388.33 L 327.78 1386.31 L 330.77 1385.48 L 332.90 1383.47 L 335.28 1381.59 L 338.10 1380.62 L 340.95 1378.76 L 343.46 1377.56 L 345.86 1375.58 L 347.95 1374.55 L 351.15 1373.11 L 353.93 1371.30 L 356.05 1369.97 L 359.29 1368.30 L 361.64 1367.10 L 364.18 1365.59 L 366.40 1364.27 L 369.34 1362.34 L 371.71 1361.03 L 374.62 1359.65 L 377.20 1358.12 L 380.17 1356.86 L 382.44 1355.13 L 384.83 1353.65 L 387.42 1351.93 L 390.42 1350.43 L 392.58 1348.75 L 395.19 1347.32 L 397.94 1345.80 L 400.64 1344.54 L 403.44 1342.94 L 405.79 1341.84 L 408.14 1340.32 L 410.74 1338.54 L 413.44 1336.99 L 415.70 1335.34 L 419.14 1333.69 L 421.30 1332.58 L 423.71 1331.04 L 427.09 1329.53 L 429.18 1327.87 L 431.55 1326.35 L 434.26 1325.10 L 436.87 1323.63 L 439.56 1321.95 L 442.15 1320.58 L 444.37 1319.22 L 447.58 1317.44 L 449.81 1316.56 L 452.81 1314.75 L 455.03 1312.92 L 458.07 1311.87 L 460.29 1310.26 L 463.07 1308.68 L 465.03 1307.28 L 467.98 1305.26 L 470.80 1304.15 L 473.20 1302.74 L 475.76 1301.26 L 478.53 1299.73 L 481.20 1298.23 L 484.15 1296.82 L 486.43 1295.61 L 489.04 1294.03 L 491.38 1292.28 L 494.24 1290.59 L 496.68 1289.76 L 499.14 1288.06 L 502.12 1286.54 L 504.75 1284.78 L 507.26 1283.60 L 509.65 1282.08 L 511.93 1280.78 L 515.22 1279.11 L 517.60 1277.50 L 520.01 1276.03 L 523.02 1274.13 L 525.36 1272.86 L 528.07 1271.86 L 530.48 1269.82 L 533.38 1268.46 L 535.82 1266.80 L 538.05 1265.17 L 540.91 1263.99 L 543.69 1262.64 L 546.22 1260.80 L 548.81 1259.49 L 551.38 1257.74 L 554.08 1256.50 L 555.90 1255.42 L 559.17 1253.53 L 562.06 1252.23 L 564.21 1250.45 L 567.29 1248.81 L 570.04 1247.10 L 571.60 1245.82 L 574.80 1244.56 L 577.25 1243.00 L 580.39 1241.47 L 582.50 1239.62 L 585.15 1238.15 L 587.74 1236.64 L 590.12 1235.56 L 593.15 1233.88 L 595.29 1232.17 L 598.27 1230.89 L 600.63 1229.45 L 603.56 1227.77 L 605.96 1226.45 L 608.68 1224.99 L 611.46 1224.11 L 614.16 1221.90 L 616.62 1220.53 L 619.03 1219.26 L 621.39 1217.64 L 624.31 1215.72 L 626.87 1215.07 L 629.48 1213.12 L 632.37 1211.69 L 634.30 1210.21 L 637.30 1208.42 L 640.00 1206.78 L 642.67 1205.49 L 645.56 1204.13 L 647.49 1202.62 L 650.25 1201.08 L 653.19 1199.63 L 655.39 1198.44 L 657.76 1196.92 L 660.68 1195.12 L 662.98 1194.03 L 665.55 1192.30 L 668.42 1190.75 L 670.45 1189.02 L 673.79 1187.73 L 676.42 1185.89 L 678.41 1184.33 L 681.39 1183.00 L 684.19 1181.70 L 686.63 1180.54 L 689.39 1178.73 L 691.74 1177.48 L 694.36 1175.95 L 696.44 1174.17 L 699.47 1172.85 L 701.84 1171.18 L 704.95 1169.50 L 707.39 1167.93 L 710.03 1166.82 L 712.58 1164.93 L 715.32 1163.63 L 717.65 1162.12 L 720.40 1160.98 L 723.13 1159.20 L 725.61 1157.77 L 728.14 1156.24 L 731.23 1154.61 L 733.70 1153.03 L 736.00 1151.71 L 738.79 1150.33 L 741.50 1149.01 L 743.99 1147.42 L 746.66 1145.43 L 748.76 1144.31 L 751.66 1143.04 L 753.90 1141.26 L 756.76 1139.63 L 760.21 1138.40 L 762.01 1136.68 L 764.61 1135.29 L 767.28 1133.59 L 770.08 1132.67 L 772.09 1130.91 L 775.07 1129.44 L 777.78 1127.68 L 780.34 1126.29 L 782.65 1125.06 L 785.75 1123.25 L 787.97 1122.14 L 790.65 1120.72 L 793.38 1118.78 L 796.06 1117.08 L 798.49 1115.84 L 801.15 1114.46 L 803.66 1113.06 L 806.31 1111.51 L 808.76 1109.72 L 811.60 1108.36 L 814.13 1106.91 L 816.73 1105.42 L 819.47 1103.57 L 822.12 1102.54 L 824.89 1100.78 L 827.15 1099.20 L 829.93 1097.94 L 832.06 1096.82 L 834.81 1095.28 L 837.64 1093.28 L 840.49 1091.83 L 842.95 1090.27 L 845.52 1089.03 L 848.00 1087.35 L 850.48 1086.09 L 853.08 1084.47 L 855.57 1083.47 L 858.80 1081.62 L 860.81 1079.71 L 863.35 1078.35 L 866.38 1076.80 L 868.35 1075.79 L 871.41 1073.82 L 873.64 1072.07 L 876.59 1070.79 L 879.30 1069.73 L 881.86 1068.00 L 884.72 1066.12 L 886.57 1065.52 L 889.56 1064.02 L 892.08 1062.14 L 894.77 1060.35 L 897.44 1058.63 L 899.93 1057.43 L 902.84 1055.96 L 904.80 1054.81 L 907.44 1052.84 L 910.31 1051.40 L 913.15 1049.84 L 915.21 1048.51 L 918.14 1047.33 L 920.87 1045.43 L 923.34 1044.09 L 925.55 1042.58 L 928.66 1041.06 L 931.26 1039.87 L 933.96 1037.97 L 936.20 1036.59 L 939.18 1035.16 L 941.59 1033.14 L 943.94 1032.18 L 946.48 1030.78 L 949.28 1028.96 L 951.85 1027.23 L 954.19 1026.58 L 956.94 1024.69 L 959.91 1023.34 L 962.65 1021.41 L 965.15 1019.70 L 967.48 1018.90 L 970.30 1017.09 L 972.78 1015.70 L 975.19 1014.20 L 977.96 1012.86 L 980.55 1011.29 L 982.85 1009.79 L 985.26 1008.36 L 988.74 1007.12 L 991.13 1005.21 L 993.49 1003.85 L 996.13 1002.42 L 998.62 1000.89 L 1000.00 1000.00 L 1002.60 998.50 L 1005.18 996.98 L 1007.72 995.38 L 1010.32 993.88 L 1012.87 992.30 L 1015.34 990.59 L 1017.79 988.86 L 1020.21 987.09 L 1022.65 985.34 L 1025.10 983.61 L 1027.58 981.93 L 1030.04 980.22 L 1032.58 978.62 L 1035.14 977.05 L 1037.71 975.50 L 1040.29 973.97 L 1042.94 972.55 L 1045.56 971.11 L 1048.21 969.69 L 1050.83 968.24 L 1053.47 966.81 L 1056.10 965.38 L 1058.78 964.01 L 1061.48 962.72 L 1064.15 961.34 L 1066.85 960.04 L 1069.56 958.75 L 1072.30 957.53 L 1075.05 956.32 L 1077.84 955.22 L 1080.63 954.14 L 1083.43 953.06 L 1086.24 952.00 L 1089.06 950.97 L 1091.86 949.90 L 1094.64 948.77 L 1097.43 947.67 L 1100.24 946.61 L 1103.03 945.51 L 1105.81 944.37 L 1108.51 943.08 L 1111.20 941.75 L 1113.93 940.50 L 1116.62 939.17 L 1119.34 937.91 L 1122.02 936.56 L 1124.66 935.13 L 1127.29 933.69 L 1129.99 932.38 L 1132.63 930.95 L 1135.22 929.44 L 1137.81 927.94 L 1140.40 926.42 L 1142.97 924.86 L 1145.54 923.32 L 1148.11 921.77 L 1150.62 920.13 L 1153.12 918.47 L 1155.58 916.76 L 1158.08 915.10 L 1160.54 913.38 L 1162.99 911.65 L 1165.45 909.94 L 1167.96 908.28 L 1170.49 906.67 L 1172.96 904.98 L 1175.42 903.25 L 1177.81 901.44 L 1180.21 899.64 L 1182.60 897.82 L 1184.94 895.95 L 1187.29 894.08 L 1189.60 892.17 L 1191.85 890.18 L 1194.10 888.20 L 1196.35 886.22 L 1198.62 884.26 L 1201.00 882.43 L 1203.39 880.62 L 1205.73 878.75 L 1208.10 876.90 L 1210.56 875.18 L 1213.04 873.50 L 1215.49 871.77 L 1217.99 870.10 L 1220.52 868.49 L 1222.98 866.77 L 1225.44 865.07 L 1227.91 863.35 L 1230.30 861.54 L 1232.70 859.74 L 1235.19 858.07 L 1237.67 856.38 L 1240.19 854.76 L 1242.71 853.13 L 1245.21 851.47 L 1247.72 849.82 L 1250.22 848.16 L 1252.64 846.40 L 1255.09 844.67 L 1257.47 842.84 L 1259.91 841.09 L 1262.38 839.39 L 1264.83 837.66 L 1267.34 836.01 L 1269.89 834.44 L 1272.48 832.91 L 1275.09 831.45 L 1277.75 830.06 L 1280.36 828.58 L 1282.99 827.13 L 1285.62 825.69 L 1288.26 824.27 L 1290.88 822.79 L 1293.46 821.27 L 1296.03 819.72 L 1298.51 818.04 L 1301.04 816.43 L 1303.56 814.80 L 1306.13 813.24 L 1308.67 811.65 L 1311.19 810.02 L 1313.74 808.44 L 1316.26 806.82 L 1318.79 805.21 L 1321.31 803.57 L 1323.83 801.95 L 1326.37 800.35 L 1328.91 798.76 L 1331.43 797.12 L 1333.88 795.40 L 1336.32 793.64 L 1338.73 791.86 L 1341.25 790.23 L 1343.79 788.64 L 1346.30 786.99 L 1348.77 785.30 L 1351.25 783.60 L 1353.70 781.88 L 1356.13 780.11 L 1358.52 778.30 L 1360.87 776.43 L 1363.22 774.57 L 1365.56 772.70 L 1367.94 770.87 L 1370.25 768.95 L 1372.56 767.04 L 1374.91 765.17 L 1377.22 763.26 L 1379.48 761.28 L 1381.72 759.29 L 1383.92 757.25 L 1386.06 755.15 L 1388.30 753.15 L 1390.57 751.19 L 1392.87 749.27 L 1395.23 747.42 L 1397.55 745.51 L 1399.85 743.59 L 1402.15 741.66 L 1404.44 739.72 L 1406.78 737.85 L 1409.24 736.12 L 1411.64 734.33 L 1414.14 732.66 L 1416.63 730.99 L 1419.03 729.19 L 1421.40 727.36 L 1423.69 725.42 L 1425.98 723.47 L 1428.25 721.52 L 1430.54 719.57 L 1432.86 717.68 L 1435.20 715.79 L 1437.46 713.82 L 1439.68 711.81 L 1441.84 709.72 L 1444.02 707.67 L 1446.25 705.66 L 1448.46 703.63 L 1450.74 701.68 L 1452.99 699.69 L 1455.22 697.69 L 1457.44 695.68 L 1459.63 693.62 L 1461.88 691.64 L 1464.19 689.73 L 1466.50 687.81 L 1468.81 685.90 L 1471.15 684.01 L 1473.52 682.18 L 1475.88 680.33 L 1478.33 678.59 L 1480.73 676.79 L 1483.14 675.00 L 1485.58 673.27 L 1488.03 671.53 L 1490.53 669.88 L 1492.98 668.14 L 1495.34 666.29 L 1497.65 664.37 L 1499.97 662.47 L 1502.34 660.63 L 1504.69 658.77 L 1507.04 656.90 L 1509.44 655.11 L 1511.93 653.43 L 1514.43 651.77 L 1516.93 650.12 L 1519.45 648.49 L 1522.04 646.97 L 1524.57 645.37 L 1527.06 643.68 L 1529.51 641.95 L 1532.00 640.29 L 1534.45 638.55 L 1536.88 636.79 L 1539.33 635.05 L 1541.75 633.28 L 1544.14 631.47 L 1546.59 629.75 L 1549.09 628.08 L 1551.62 626.47 L 1554.19 624.92 L 1556.76 623.37 L 1559.43 622.00 L 1562.07 620.58 L 1564.69 619.13 L 1567.33 617.69 L 1569.91 616.17 L 1572.56 614.75 L 1575.20 613.33 L 1577.82 611.87 L 1580.34 610.25 L 1582.85 608.59 L 1585.37 606.97 L 1587.87 605.32 L 1590.31 603.56 L 1592.75 601.82 L 1595.14 600.01 L 1597.66 598.38 L 1600.19 596.77 L 1602.70 595.12 L 1605.20 593.47 L 1607.73 591.86 L 1610.23 590.21 L 1612.75 588.57 L 1615.33 587.03 L 1617.88 585.46 L 1620.44 583.90 L 1623.06 582.43 L 1625.70 581.01 L 1628.37 579.64 L 1631.01 578.21 L 1633.59 576.69 L 1636.13 575.08 L 1638.73 573.59 L 1641.30 572.05 L 1643.85 570.47 L 1646.36 568.82 L 1648.83 567.12 L 1651.24 565.34 L 1653.58 563.45 L 1655.92 561.58 L 1658.30 559.75 L 1660.70 557.95 L 1663.17 556.24 L 1665.60 554.49 L 1668.01 552.71 L 1670.43 550.93 L 1672.81 549.10 L 1675.18 547.27 L 1677.57 545.45 L 1679.91 543.57 L 1682.20 541.64 L 1684.53 539.74 L 1686.86 537.85 L 1689.15 535.92 L 1691.42 533.96 L 1693.68 531.99 L 1695.98 530.05 L 1698.24 528.08 L 1700.54 526.16 L 1702.84 524.23 L 1705.10 522.26 L 1707.34 520.26 L 1709.58 518.27 L 1711.81 516.26 L 1714.02 514.23 L 1716.23 512.21 L 1718.38 510.11 L 1720.43 507.92 L 1722.47 505.72 L 1724.50 503.52 L 1726.56 501.33 L 1728.72 499.25 L 1730.95 497.24 L 1733.32 495.40 L 1735.68 493.55 L 1738.16 491.86 L 1740.56 490.06 L 1742.99 488.30 L 1745.43 486.56 L 1747.96 484.95 L 1750.40 483.20 L 1752.84 481.46 L 1755.33 479.78 L 1757.79 478.07 L 1760.24 476.34 L 1762.66 474.57 L 1765.01 472.70 L 1767.41 470.90 L 1769.84 469.13 L 1772.31 467.44 L 1774.73 465.66 L 1777.13 463.86 L 1779.57 462.11 L 1782.00 460.36 L 1784.39 458.54 L 1786.73 456.67 L 1789.12 454.85 L 1791.43 452.94 L 1793.73 451.01 L 1796.06 449.12 L 1798.40 447.25 L 1800.80 445.44 L 1803.22 443.67 L 1805.64 441.90 L 1808.04 440.10 L 1810.48 438.35 L 1812.89 436.56 L 1815.30 434.78 L 1817.73 433.02 L 1820.25 431.40 L 1822.76 429.76 L 1825.28 428.12 L 1827.85 426.57 L 1830.44 425.07 L 1833.04 423.56 L 1835.67 422.12 L 1838.28 420.65 L 1840.86 419.11 L 1843.39 417.51 L 1845.98 415.99 L 1848.62 414.55 L 1851.28 413.17 L 1853.99 411.88 L 1856.71 410.63 L 1859.47 409.43 L 1862.17 408.14 L 1864.86 406.80 L 1867.46 405.30 L 1870.09 403.87 L 1872.73 402.44 L 1875.38 401.03 L 1878.00 399.58 L 1880.66 398.19 L 1883.35 396.86 L 1886.07 395.59 L 1888.77 394.29 L 1891.46 392.96 L 1894.16 391.65 L 1896.78 390.20 L 1899.39 388.71 L 1902.06 387.35 L 1904.81 386.15 L 1907.52 384.86 L 1910.24 383.59 L 1913.01 382.45 L 1915.76 381.24 L 1918.49 380.00 L 1921.28 378.89 L 1924.06 377.76 L 1926.83 376.61 L 1929.65 375.58 L 1932.44 374.49 L 1935.26 373.47 L 1938.08 372.44 L 1940.85 371.30 L 1943.60 370.08 L 1946.31 368.79 L 1949.05 367.59 L 1951.77 366.31 L 1954.45 364.97 L 1957.18 363.73 L 1959.96 362.60 L 1962.69 361.36 L 1965.37 360.01 L 1968.04 358.64 L 1970.74 357.34 L 1973.45 356.04 L 1976.11 354.65 L 1978.81 353.35 L 1981.55 352.13 L 1984.29 350.90 L 1987.01 349.64 L 1989.76 348.44 L 1992.44 347.08 L 1995.09 345.68 L 1997.75 344.30 L 2000.48 343.04 L 2003.19 341.76 L 2005.94 340.57 L 2008.69 339.36 L 2011.41 338.11 L 2014.14 336.86 L 2016.80 335.47 L 2019.51 334.18 L 2022.19 332.83" stroke="rgb(245,245,245)" stroke-opacity="0.585" stroke-width="0.80" />
  <path d="M 993.36 997.46 L 993.72 996.44 L 994.16 995.53 L 994.62 994.64 L 995.24 993.86 L 995.85 993.09 L 996.35 992.38 L 996.82 991.80 L 997.27 991.22 L 997.75 990.65 L 998.42 990.01" stroke="rgb(230,230,230)" stroke-opacity="0.387" stroke-width="0.72" />
  <path d="M 1001.39 1004.00 L 1002.06 1005.26 L 1002.61 1006.53 L 1003.19 1007.76 L 1003.78 1008.97 L 1004.41 1010.11 L 1005.04 1011.25 L 1005.66 1012.36" stroke="rgb(230,230,230)" stroke-opacity="0.385" stroke-width="0.71" />
  <path d="M 997.81 999.65 L 997.81 1000.17 L 997.93 1000.75 L 998.03 1001.31 L 998.27 1001.90 L 998.46 1002.51 L 998.64 1003.12 L 998.92 1003.75 L 999.31 1004.29 L 999.79 1004.66 L 1000.27 1005.01 L 1000.70 1005.41" stroke="rgb(230,230,230)" stroke-opacity="0.384" stroke-width="0.71" />
  <path d="M 990.78 997.32 L 991.20 996.71 L 991.32 996.31 L 991.72 996.07 L 992.16 995.51 L 992.59 995.04 L 993.02 994.57 L 993.42 994.12 L 993.84 993.68 L 994.31 993.12 L 994.75 992.77 L 995.16 992.46 L 995.54 992.28" stroke="rgb(230,230,230)" stroke-opacity="0.383" stroke-width="0.71" />
  <path d="M 998.30 1000.04 L 998.66 1000.05 L 999.13 1000.21 L 999.26 1000.47 L 999.40 1000.78 L 999.51 1001.21 L 999.57 1001.68 L 999.39 1002.22 L 999.20 1002.57 L 999.09 1003.03 L 998.98 1003.48 L 999.09 1004.04 L 999.32 1004.47 L 999.47 1004.93" stroke="rgb(230,230,230)" stroke-opacity="0.380" stroke-width="0.70" />
  <path d="M 994.67 998.76 L 994.11 999.61 L 993.69 1000.42 L 993.25 1001.23 L 992.81 1002.03 L 992.39 1002.85 L 991.97 1003.67 L 991.61 1004.54" stroke="rgb(230,230,230)" stroke-opacity="0.380" stroke-width="0.69" />
  <path d="M 1000.74 999.61 L 1000.27 999.38 L 999.78 999.03 L 999.39 998.69 L 999.35 998.05 L 999.27 997.54 L 999.14 997.13 L 998.94 997.02 L 999.18 997.08 L 999.41 996.89 L 999.63 996.79 L 1000.20 996.74" stroke="rgb(230,230,230)" stroke-opacity="0.378" stroke-width="0.69" />
  <path d="M 997.97 1001.69 L 997.03 1002.86 L 996.11 1004.04 L 995.17 1005.19 L 994.25 1006.35 L 993.28 1007.46 L 992.32 1008.57 L 991.50 1009.78" stroke="rgb(230,230,230)" stroke-opacity="0.375" stroke-width="0.68" />
  <path d="M 1003.19 999.21 L 1003.50 1000.66 L 1003.87 1002.10 L 1004.18 1003.55" stroke="rgb(230,230,230)" stroke-opacity="0.369" stroke-width="0.66" />
  <path d="M 1002.70 991.49 L 1002.96 992.91 L 1003.22 994.36 L 1003.44 995.78 L 1003.62 997.22 L 1003.87 998.65 L 1003.97 1000.09 L 1004.04 1001.54 L 1004.13 1002.98 L 1004.13 1004.40 L 1004.08 1005.83 L 1004.03 1007.24" stroke="rgb(230,230,230)" stroke-opacity="0.368" stroke-width="0.66" />
  <path d="M 997.50 1003.53 L 997.06 1004.27 L 996.60 1005.00 L 996.13 1005.74 L 995.59 1006.45 L 995.36 1007.18" stroke="rgb(230,230,230)" stroke-opacity="0.366" stroke-width="0.66" />
  <path d="M 996.95 995.53 L 997.08 994.23 L 997.24 992.91 L 997.46 991.60 L 997.63 990.31 L 997.82 989.01 L 998.00 987.71" stroke="rgb(230,230,230)" stroke-opacity="0.365" stroke-width="0.65" />
  <path d="M 1005.73 999.91 L 1005.58 1000.07 L 1005.44 1000.22 L 1005.29 1000.37 L 1005.11 1000.63 L 1004.92 1000.87 L 1004.79 1001.05 L 1004.75 1001.27 L 1004.70 1001.46 L 1004.55 1001.72" stroke="rgb(230,230,230)" stroke-opacity="0.365" stroke-width="0.65" />
  <path d="M 1004.11 995.21 L 1005.12 995.38 L 1006.11 995.54 L 1007.16 995.69 L 1008.18 995.84 L 1009.15 996.03 L 1010.23 996.23" stroke="rgb(230,230,230)" stroke-opacity="0.364" stroke-width="0.65" />
  <path d="M 999.42 996.77 L 998.56 997.44 L 997.68 998.17 L 996.74 998.85 L 995.82 999.36 L 994.85 999.92 L 993.92 1000.53 L 992.93 1000.99 L 991.86 1001.39 L 990.79 1001.74" stroke="rgb(230,230,230)" stroke-opacity="0.363" stroke-width="0.65" />
  <path d="M 998.98 998.20 L 999.74 997.13 L 1000.57 996.12 L 1001.40 995.11 L 1002.26 994.13 L 1003.11 993.19 L 1004.03 992.33 L 1004.82 991.52" stroke="rgb(230,230,230)" stroke-opacity="0.361" stroke-width="0.64" />
  <path d="M 1004.65 1000.48 L 1003.99 1001.80 L 1003.53 1003.21 L 1003.09 1004.60 L 1002.58 1005.95 L 1002.10 1007.33 L 1001.91 1008.72 L 1001.64 1010.07 L 1001.37 1011.49 L 1001.09 1012.89 L 1000.77 1014.28 L 1000.45 1015.66" stroke="rgb(230,230,230)" stroke-opacity="0.357" stroke-width="0.63" />
  <path d="M 994.92 1002.44 L 993.59 1002.58 L 992.26 1002.71 L 990.97 1002.80 L 989.76 1002.83 L 988.50 1002.85" stroke="rgb(230,230,230)" stroke-opacity="0.350" stroke-width="0.61" />
</g>
</svg>
