{
  "asset": {
    "version": "2.0",
    "generator": "TES-23 Cosmic Ray Renderer"
  },
  "extensionsUsed": [
    "KHR_materials_unlit"
  ],
  "extensionsRequired": [
    "KHR_materials_unlit"
  ],
  "scene": 0,
  "scenes": [
    {
      "nodes": [
        0
      ]
    }
  ],
  "nodes": [
    {
      "name": "CosmicRayEvent",
      "mesh": 0
    }
  ],
  "meshes": [
    {
      "name": "CosmicRayEvent",
      "primitives": [
        {
          "attributes": {
            "POSITION": 0
          },
          "material": 0,
          "mode": 1
        },
        {
          "attributes": {
            "POSITION": 1
          },
          "material": 1,
          "mode": 1
        },
        {
          "attributes": {
            "POSITION": 2
          },
          "material": 2,
          "mode": 1
        },
        {
          "attributes": {
            "POSITION": 3
          },
          "material": 3,
          "mode": 1
        },
        {
          "attributes": {
            "POSITION": 4
          },
          "material": 4,
          "mode": 1
        }
      ]
    }
  ],
  "materials": [
    {
      "name": "primary",
      "extensions": {
        "KHR_materials_unlit": {}
      },
      "pbrMetallicRoughness": {
        "baseColorFactor": [
          0.961,
          0.961,
          0.961,
          1
        ],
        "metallicFactor": 0,
        "roughnessFactor": 1
      }
    },
    {
      "name": "vertex",
      "extensions": {
        "KHR_materials_unlit": {}
      },
      "pbrMetallicRoughness": {
        "baseColorFactor": [
          0.902,
          0.902,
          0.902,
          0.9
        ],
        "metallicFactor": 0,
        "roughnessFactor": 1
      }
    },
    {
      "name": "em",
      "extensions": {
        "KHR_materials_unlit": {}
      },
      "pbrMetallicRoughness": {
        "baseColorFactor": [
          0.471,
          0.824,
          1,
          1
        ],
        "metallicFactor": 0,
        "roughnessFactor": 1
      }
    },
    {
      "name": "hadron",
      "extensions": {
        "KHR_materials_unlit": {}
      },
      "pbrMetallicRoughness": {
        "baseColorFactor": [
          0.549,
          1,
          0.745,
          1
        ],
        "metallicFactor": 0,
        "roughnessFactor": 1
      }
    },
    {
      "name": "delta",
      "extensions": {
        "KHR_materials_unlit": {}
      },
      "pbrMetallicRoughness": {
        "baseColorFactor": [
          0.804,
          0.647,
          1,
          1
        ],
        "metallicFactor": 0,
        "roughnessFactor": 1
      }
    }
  ],
  "accessors": [
    {
      "bufferView": 0,
      "byteOffset": 0,
      "componentType": 5126,
      "count": 1360,
      "type": "VEC3",
      "min": [
        -1.0221097469329834,
        -0.133225217461586,
        0
      ],
      "max": [
        1.0000582933425903,
        0.11630283296108246,
        0
      ]
    },
    {
      "bufferView": 1,
      "byteOffset": 0,
      "componentType": 5126,
      "count": 302,
      "type": "VEC3",
      "min": [
        -0.012537837959825993,
        -0.008809341117739677,
        -0.06226774677634239
      ],
      "max": [
        0.014462096616625786,
        0.026210609823465347,
        0.1312360167503357
      ]
    },
    {
      "bufferView": 2,
      "byteOffset": 0,
      "componentType": 5126,
      "count": 836,
      "type": "VEC3",
      "min": [
        -0.20293423533439636,
        -0.007531733717769384,
        -0.19361917674541473
      ],
      "max": [
        0.0038404962979257107,
        0.05189575254917145,
        0.0526813268661499
      ]
    },
    {
      "bufferView": 3,
      "byteOffset": 0,
      "componentType": 5126,
      "count": 1990,
      "type": "VEC3",
      "min": [
        -0.3433968126773834,
        -0.044598136097192764,
        -0.4621132016181946
      ],
      "max": [
        0.0027391561307013035,
        0.11391694843769073,
        0.26102253794670105
      ]
    },
    {
      "bufferView": 4,
      "byteOffset": 0,
      "componentType": 5126,
      "count": 460,
      "type": "VEC3",
      "min": [
        -0.16069482266902924,
        -0.09366096556186676,
        -0.20074374973773956
      ],
      "max": [
        0.044304780662059784,
        0.13633370399475098,
        0.49169492721557617
      ]
    }
  ],
  "bufferViews": [
    {
      "buffer": 0,
      "byteOffset": 0,
      "byteLength": 16320,
      "target": 34962
    },
    {
      "buffer": 0,
      "byteOffset": 16320,
      "byteLength": 3624,
      "target": 34962
    },
    {
      "buffer": 0,
      "byteOffset": 19944,
      "byteLength": 10032,
      "target": 34962
    },
    {
      "buffer": 0,
      "byteOffset": 29976,
      "byteLength": 23880,
      "target": 34962
    },
    {
      "buffer": 0,
      "byteOffset": 53856,
      "byteLength": 5520,
      "target": 34962
    }
  ],
  "buffers": [
    {
      "byteLength": 59376,
      "uri": "data:application/octet-stream;base64,"
    }
  ]
}