{
  "asset": {
    "version": "2.0",
    "generator": "TES-23 Cosmic Ray Renderer"
  },
  "extensionsUsed": [
    "KHR_materials_unlit"
  ],
  "extensionsRequired": [
    "KHR_materials_unlit"
  ],
  "scene": 0,
  "scenes": [
    {
      "nodes": [
        0
      ]
    }
  ],
  "nodes": [
    {
      "name": "CosmicRayEvent",
      "mesh": 0
    }
  ],
  "meshes": [
    {
      "name": "CosmicRayEvent",
      "primitives": [
        {
          "attributes": {
            "POSITION": 0
          },
          "material": 0,
          "mode": 1
        },
        {
          "attributes": {
            "POSITION": 1
          },
          "material": 1,
          "mode": 1
        },
        {
          "attributes": {
            "POSITION": 2
          },
          "material": 2,
          "mode": 1
        },
        {
          "attributes": {
            "POSITION": 3
          },
          "material": 3,
          "mode": 1
        },
        {
          "attributes": {
            "POSITION": 4
          },
          "material": 4,
          "mode": 1
        }
      ]
    }
  ],
  "materials": [
    {
      "name": "primary",
      "extensions": {
        "KHR_materials_unlit": {}
      },
      "pbrMetallicRoughness": {
        "baseColorFactor": [
          0.961,
          0.961,
          0.961,
          1
        ],
        "metallicFactor": 0,
        "roughnessFactor": 1
      }
    },
    {
      "name": "vertex",
      "extensions": {
        "KHR_materials_unlit": {}
      },
      "pbrMetallicRoughness": {
        "baseColorFactor": [
          0.902,
          0.902,
          0.902,
          0.9
        ],
        "metallicFactor": 0,
        "roughnessFactor": 1
      }
    },
    {
      "name": "em",
      "extensions": {
        "KHR_materials_unlit": {}
      },
      "pbrMetallicRoughness": {
        "baseColorFactor": [
          0.471,
          0.824,
          1,
          1
        ],
        "metallicFactor": 0,
        "roughnessFactor": 1
      }
    },
    {
      "name": "hadron",
      "extensions": {
        "KHR_materials_unlit": {}
      },
      "pbrMetallicRoughness": {
        "baseColorFactor": [
          0.549,
          1,
          0.745,
          1
        ],
        "metallicFactor": 0,
        "roughnessFactor": 1
      }
    },
    {
      "name": "delta",
      "extensions": {
        "KHR_materials_unlit": {}
      },
      "pbrMetallicRoughness": {
        "baseColorFactor": [
          0.804,
          0.647,
          1,
          1
        ],
        "metallicFactor": 0,
        "roughnessFactor": 1
      }
    }
  ],
  "accessors": [
    {
      "bufferView": 0,
      "byteOffset": 0,
      "componentType": 5126,
      "count": 1480,
      "type": "VEC3",
      "min": [
        -0.4557659924030304,
        -0.9998645782470703,
        0
      ],
      "max": [
        0.4599056839942932,
        1.0216859579086304,
        0
      ]
    },
    {
      "bufferView": 1,
      "byteOffset": 0,
      "componentType": 5126,
      "count": 300,
      "type": "VEC3",
      "min": [
        -0.015700289979577065,
        -0.013544832356274128,
        -0.0689009577035904
      ],
      "max": [
        0.006470444146543741,
        0.020098891109228134,
        0.05877372622489929
      ]
    },
    {
      "bufferView": 2,
      "byteOffset": 0,
      "componentType": 5126,
      "count": 886,
      "type": "VEC3",
      "min": [
        -0.14353787899017334,
        -0.004015439655631781,
        -0.04861094802618027
      ],
      "max": [
        0.002828419441357255,
        0.2345607876777649,
        0.14300213754177094
      ]
    },
    {
      "bufferView": 3,
      "byteOffset": 0,
      "componentType": 5126,
      "count": 1260,
      "type": "VEC3",
      "min": [
        -0.13727644085884094,
        -0.028047295287251472,
        -0.07585764676332474
      ],
      "max": [
        0.11881513893604279,
        0.14332374930381775,
        0.40069419145584106
      ]
    },
    {
      "bufferView": 4,
      "byteOffset": 0,
      "componentType": 5126,
      "count": 864,
      "type": "VEC3",
      "min": [
        -0.27178218960762024,
        -0.13902974128723145,
        -1.1356408596038818
      ],
      "max": [
        0.0689641460776329,
        0.0691773071885109,
        0.544740617275238
      ]
    }
  ],
  "bufferViews": [
    {
      "buffer": 0,
      "byteOffset": 0,
      "byteLength": 17760,
      "target": 34962
    },
    {
      "buffer": 0,
      "byteOffset": 17760,
      "byteLength": 3600,
      "target": 34962
    },
    {
      "buffer": 0,
      "byteOffset": 21360,
      "byteLength": 10632,
      "target": 34962
    },
    {
      "buffer": 0,
      "byteOffset": 31992,
      "byteLength": 15120,
      "target": 34962
    },
    {
      "buffer": 0,
      "byteOffset": 47112,
      "byteLength": 10368,
      "target": 34962
    }
  ],
  "buffers": [
    {
      "byteLength": 57480,
      "uri": "data:application/octet-stream;base64,"
    }
  ]
}