<?xml version="1.0" encoding="UTF-8"?>
<svg xmlns="http://www.w3.org/2000/svg" width="2000" height="2000" viewBox="0 0 2000 2000">
<g fill="none" stroke-linecap="round" stroke-linejoin="round">
  <path d="M 999.10 1002.16 L 1001.41 1000.16 L 1003.74 998.19 L 1006.03 996.21 L 1008.33 994.25 L 1010.62 992.30 L 1012.86 990.31 L 1015.08 988.31 L 1017.32 986.35 L 1019.55 984.40 L 1021.78 982.47 L 1023.99 980.54 L 1026.21 978.62 L 1028.41 976.71 L 1030.60 974.82 L 1032.77 972.90 L 1034.93 971.00 L 1037.07 969.10 L 1039.20 967.20 L 1041.28 965.27" stroke="rgb(120,210,255)" stroke-opacity="0.470" stroke-width="1.64" />
  <path d="M 1004.41 998.42 L 1006.67 996.39 L 1008.92 994.36 L 1011.19 992.37 L 1013.50 990.46 L 1015.81 988.58 L 1018.10 986.69 L 1020.38 984.80 L 1022.66 982.93 L 1024.95 981.09 L 1027.20 979.20 L 1029.46 977.36 L 1031.69 975.49 L 1033.90 973.63 L 1036.06 971.72 L 1038.20 969.81 L 1040.30 967.88 L 1042.31 965.87 L 1044.29 963.85 L 1046.24 961.82 L 1048.22 959.82 L 1050.25 957.89 L 1052.27 955.96 L 1054.29 954.04 L 1056.31 952.14 L 1058.31 950.25 L 1060.38 948.43" stroke="rgb(120,210,255)" stroke-opacity="0.466" stroke-width="1.62" />
  <path d="M 1000.37 1002.07 L 1002.79 1000.03 L 1005.18 997.99 L 1007.54 995.92 L 1009.90 993.86 L 1012.15 991.71 L 1014.43 989.60 L 1016.70 987.51 L 1019.01 985.47 L 1021.31 983.45 L 1023.60 981.44 L 1025.90 979.44 L 1028.19 977.46 L 1030.45 975.45 L 1032.71 973.47 L 1034.91 971.43 L 1037.09 969.40 L 1039.26 967.38 L 1041.44 965.38 L 1043.60 963.39 L 1045.74 961.39 L 1047.88 959.40 L 1050.02 957.44 L 1052.17 955.50 L 1054.29 953.57 L 1056.42 951.66 L 1058.56 949.79 L 1060.69 947.93 L 1062.81 946.08 L 1064.88 944.19 L 1066.96 942.34 L 1069.04 940.51 L 1071.10 938.68 L 1073.15 936.87 L 1075.23 935.09 L 1077.29 933.30 L 1079.33 931.51 L 1081.38 929.75" stroke="rgb(120,210,255)" stroke-opacity="0.842" stroke-width="1.60" />
  <path d="M 1000.82 996.47 L 1003.25 994.19 L 1005.68 991.92 L 1008.11 989.68 L 1010.53 987.45 L 1012.94 985.22 L 1015.34 983.01 L 1017.74 980.80 L 1020.08 978.56 L 1022.41 976.32 L 1024.72 974.08 L 1027.06 971.89 L 1029.38 969.70 L 1031.69 967.53 L 1034.01 965.37 L 1036.33 963.24 L 1038.64 961.12 L 1040.98 959.05 L 1043.32 957.00 L 1045.69 955.01 L 1048.03 952.99 L 1050.34 950.96 L 1052.64 948.93 L 1054.93 946.91 L 1057.22 944.91 L 1059.49 942.91 L 1061.78 940.94 L 1064.04 938.97 L 1066.32 937.03 L 1068.62 935.12 L 1070.88 933.20 L 1073.14 931.29 L 1075.36 929.36 L 1077.57 927.43 L 1079.76 925.49 L 1081.94 923.56 L 1084.12 921.65 L 1086.25 919.70 L 1088.34 917.74 L 1090.43 915.78 L 1092.51 913.83 L 1094.55 911.87 L 1096.58 909.90 L 1098.61 907.94 L 1100.62 906.00 L 1102.62 904.05 L 1104.65 902.14 L 1106.68 900.26 L 1108.73 898.42 L 1110.75 896.56 L 1112.75 894.70" stroke="rgb(120,210,255)" stroke-opacity="0.842" stroke-width="1.60" />
  <path d="M 995.48 999.38 L 998.01 997.04 L 1000.51 994.70 L 1003.01 992.36 L 1005.52 990.05 L 1008.02 987.76 L 1010.52 985.48" stroke="rgb(120,210,255)" stroke-opacity="0.842" stroke-width="1.60" />
  <path d="M 997.77 1003.05 L 1000.09 1000.99 L 1002.39 998.93 L 1004.69 996.89 L 1006.90 994.77 L 1009.09 992.64 L 1011.22 990.47 L 1013.34 988.30 L 1015.45 986.14 L 1017.50 983.95 L 1019.54 981.75 L 1021.54 979.54 L 1023.55 977.37 L 1025.55 975.20 L 1027.56 973.06 L 1029.62 970.97 L 1031.64 968.89 L 1033.67 966.82 L 1035.69 964.77 L 1037.71 962.72 L 1039.74 960.69 L 1041.73 958.66 L 1043.72 956.62 L 1045.70 954.61 L 1047.69 952.61 L 1049.68 950.63 L 1051.67 948.66" stroke="rgb(120,210,255)" stroke-opacity="0.462" stroke-width="1.59" />
  <path d="M 1023.55 977.37 L 1025.81 976.08 L 1028.06 974.80 L 1030.31 973.53 L 1032.47 972.15 L 1034.70 970.92 L 1036.94 969.73 L 1039.16 968.55 L 1041.37 967.36 L 1043.58 966.19 L 1045.78 965.03 L 1047.98 963.86 L 1050.17 962.71 L 1052.38 961.62 L 1054.63 960.66 L 1056.89 959.74 L 1059.16 958.88 L 1061.45 958.09" stroke="rgb(120,210,255)" stroke-opacity="0.452" stroke-width="1.54" />
  <path d="M 1018.57 974.19 L 1020.12 972.73 L 1021.65 971.27 L 1023.17 969.81 L 1024.64 968.31 L 1025.98 966.70 L 1027.36 965.15 L 1028.69 963.55" stroke="rgb(140,255,190)" stroke-opacity="0.592" stroke-width="1.32" />
  <path d="M 1032.85 966.94 L 1034.57 965.63 L 1036.31 964.33 L 1037.96 962.94 L 1039.60 961.55 L 1041.18 960.12 L 1042.75 958.69 L 1044.31 957.26 L 1045.84 955.82 L 1047.38 954.40 L 1048.95 953.01 L 1050.44 951.55 L 1051.92 950.10 L 1053.33 948.65 L 1054.74 947.21 L 1056.22 945.80 L 1057.69 944.38" stroke="rgb(140,255,190)" stroke-opacity="0.572" stroke-width="1.25" />
  <path d="M 1036.93 963.22 L 1040.29 962.53 L 1043.63 961.83 L 1046.95 961.13 L 1050.26 960.43 L 1053.56 959.76 L 1056.85 959.11 L 1060.13 958.47 L 1063.40 957.83 L 1066.65 957.21 L 1069.90 956.56 L 1073.13 955.91 L 1076.34 955.26 L 1079.54 954.62 L 1082.73 953.99 L 1085.91 953.36 L 1089.07 952.74 L 1092.23 952.14 L 1095.37 951.55 L 1098.50 950.95 L 1101.62 950.36 L 1104.72 949.75 L 1107.81 949.15 L 1110.88 948.54 L 1113.94 947.94 L 1116.98 947.35 L 1120.01 946.77 L 1123.03 946.23 L 1126.03 945.69 L 1129.01 945.10 L 1131.97 944.50 L 1134.92 943.91 L 1137.84 943.34 L 1140.76 942.80 L 1143.67 942.28 L 1146.57 941.77 L 1149.47 941.26 L 1152.34 940.79 L 1155.21 940.33 L 1158.07 939.87 L 1160.92 939.43 L 1163.77 939.00 L 1166.60 938.59 L 1169.42 938.17 L 1172.22 937.75 L 1175.01 937.36 L 1177.79 936.95 L 1180.57 936.57 L 1183.33 936.22 L 1186.09 935.87 L 1188.84 935.51 L 1191.59 935.15 L 1194.33 934.81 L 1197.07 934.49 L 1199.79 934.14 L 1202.51 933.82 L 1205.21 933.50 L 1207.91 933.17 L 1210.60 932.83 L 1213.28 932.50 L 1215.94 932.12 L 1218.58 931.68 L 1221.21 931.24 L 1223.84 930.81 L 1226.44 930.30 L 1229.01 929.73 L 1231.56 929.12 L 1234.12 928.55 L 1236.67 927.96 L 1239.20 927.35 L 1241.71 926.71 L 1244.21 926.08 L 1246.70 925.44 L 1249.18 924.78 L 1251.66 924.18 L 1254.14 923.61 L 1256.60 923.04 L 1259.06 922.50 L 1261.51 921.96 L 1263.95 921.42 L 1266.38 920.88 L 1268.81 920.34" stroke="rgb(140,255,190)" stroke-opacity="0.742" stroke-width="1.20" />
  <path d="M 1003.54 1002.40 L 1005.57 999.64 L 1007.59 996.90 L 1009.59 994.17 L 1011.58 991.44 L 1013.55 988.71 L 1015.49 985.97 L 1017.38 983.21 L 1019.30 980.48 L 1021.21 977.76 L 1023.09 975.03 L 1024.96 972.30 L 1026.89 969.64 L 1028.81 966.99 L 1030.76 964.37 L 1032.70 961.76 L 1034.64 959.16 L 1036.57 956.57 L 1038.52 954.01 L 1040.50 951.48 L 1042.48 948.97 L 1044.43 946.46 L 1046.36 943.94 L 1048.28 941.44 L 1050.19 938.94 L 1052.09 936.45 L 1054.01 933.98 L 1055.93 931.55 L 1057.85 929.13 L 1059.77 926.71 L 1061.67 924.31 L 1063.56 921.91 L 1065.48 919.54 L 1067.41 917.19 L 1069.33 914.85 L 1071.25 912.53 L 1073.13 910.19 L 1075.01 907.86 L 1076.86 905.53 L 1078.75 903.23 L 1080.63 900.95 L 1082.51 898.69 L 1084.36 896.41 L 1086.20 894.13 L 1088.04 891.87 L 1089.85 889.60 L 1091.60 887.30 L 1093.33 884.99 L 1095.11 882.73 L 1096.89 880.48 L 1098.69 878.26 L 1100.47 876.04 L 1102.22 873.82 L 1103.97 871.60 L 1105.71 869.40 L 1107.43 867.20 L 1109.16 865.01 L 1110.90 862.84 L 1112.62 860.67 L 1114.33 858.52 L 1116.04 856.37 L 1117.76 854.24 L 1119.45 852.10 L 1121.16 849.99 L 1122.85 847.89 L 1124.51 845.77 L 1126.15 843.65 L 1127.78 841.54 L 1129.42 839.44 L 1131.04 837.35 L 1132.66 835.27 L 1134.27 833.19 L 1135.89 831.14 L 1137.47 829.06 L 1139.05 827.00 L 1140.61 824.94" stroke="rgb(140,255,190)" stroke-opacity="0.741" stroke-width="1.20" />
  <path d="M 1001.32 999.07 L 1003.83 997.20 L 1006.36 995.37 L 1008.86 993.53 L 1011.35 991.69 L 1013.81 989.85 L 1016.28 988.03 L 1018.75 986.23 L 1021.22 984.46 L 1023.65 982.64 L 1026.03 980.78 L 1028.39 978.92 L 1030.79 977.13 L 1033.12 975.28 L 1035.45 973.44 L 1037.78 971.61 L 1040.10 969.80 L 1042.41 967.98 L 1044.70 966.16 L 1046.99 964.37 L 1049.33 962.64 L 1051.66 960.94 L 1054.01 959.28 L 1056.35 957.62 L 1058.68 955.97 L 1061.00 954.33 L 1063.32 952.70 L 1065.63 951.07 L 1067.93 949.46" stroke="rgb(205,165,255)" stroke-opacity="0.703" stroke-width="1.19" />
  <path d="M 999.39 995.28 L 999.82 995.40 L 1000.25 995.53 L 1000.70 995.66 L 1001.14 995.79 L 1001.58 995.95 L 1002.03 996.09 L 1002.46 996.22 L 1002.94 996.37 L 1003.36 996.50 L 1003.76 996.65 L 1004.15 996.80 L 1004.53 996.95 L 1004.91 997.11 L 1005.31 997.22 L 1005.73 997.34 L 1006.18 997.46 L 1006.66 997.60 L 1007.12 997.74 L 1007.56 997.87 L 1008.01 997.99 L 1008.45 998.11 L 1008.89 998.25 L 1009.33 998.39 L 1009.77 998.53 L 1010.24 998.67 L 1010.70 998.81 L 1011.13 998.92 L 1011.55 999.03 L 1011.97 999.16 L 1012.34 999.30 L 1012.73 999.42 L 1013.21 999.51 L 1013.68 999.60 L 1014.16 999.69 L 1014.64 999.73 L 1015.13 999.77 L 1015.59 999.76 L 1016.04 999.74 L 1016.49 999.70 L 1016.92 999.73 L 1017.36 999.78 L 1017.79 999.82 L 1018.20 999.88 L 1018.64 999.96 L 1019.08 1000.05 L 1019.56 1000.15 L 1020.01 1000.26 L 1020.45 1000.34 L 1020.92 1000.41 L 1021.39 1000.48 L 1021.81 1000.51 L 1022.27 1000.51 L 1022.71 1000.49 L 1023.17 1000.45 L 1023.62 1000.40 L 1024.09 1000.35 L 1024.55 1000.31 L 1025.04 1000.21 L 1025.54 1000.11 L 1026.05 1000.01 L 1026.60 999.91 L 1027.15 999.80 L 1027.69 999.68 L 1028.23 999.54 L 1028.76 999.41" stroke="rgb(140,255,190)" stroke-opacity="0.736" stroke-width="1.18" />
  <path d="M 1017.64 990.52 L 1018.25 990.08 L 1018.85 989.60 L 1019.44 989.17 L 1020.00 988.75 L 1020.51 988.30 L 1020.98 987.95 L 1021.42 987.66 L 1021.87 987.47 L 1022.27 987.28 L 1022.61 987.17 L 1022.98 986.97 L 1023.29 986.84 L 1023.57 986.66 L 1023.84 986.49 L 1024.12 986.33 L 1024.39 986.18 L 1024.67 986.03 L 1024.93 985.84 L 1025.18 985.65 L 1025.34 985.45 L 1025.49 985.13 L 1025.72 984.80 L 1026.11 984.49 L 1026.42 984.24 L 1026.72 983.99 L 1027.00 983.63 L 1027.27 983.27 L 1027.52 982.80 L 1027.89 982.31" stroke="rgb(140,255,190)" stroke-opacity="0.734" stroke-width="1.18" />
  <path d="M 997.96 995.77 L 1000.78 995.62 L 1003.56 995.46 L 1006.33 995.25 L 1009.05 995.05" stroke="rgb(205,165,255)" stroke-opacity="0.695" stroke-width="1.18" />
  <path d="M 1013.92 1001.93 L 1015.13 1001.13 L 1016.33 1000.33 L 1017.55 999.56 L 1018.76 998.81 L 1020.00 998.08 L 1021.23 997.26 L 1022.48 996.49 L 1023.75 995.75 L 1024.99 994.99 L 1026.20 994.22 L 1027.42 993.45 L 1028.62 992.69 L 1029.75 991.88 L 1030.95 991.05 L 1032.11 990.25 L 1033.24 989.47 L 1034.36 988.70 L 1035.47 987.94 L 1036.56 987.18 L 1037.68 986.43 L 1038.72 985.68 L 1039.74 984.94 L 1040.73 984.22 L 1041.73 983.57 L 1042.77 982.90 L 1043.84 982.21 L 1044.85 981.54 L 1045.87 980.86 L 1046.91 980.17 L 1047.92 979.49 L 1048.90 978.84 L 1049.83 978.23 L 1050.72 977.59 L 1051.60 976.99" stroke="rgb(140,255,190)" stroke-opacity="0.729" stroke-width="1.17" />
  <path d="M 1001.82 999.39 L 1004.64 997.54 L 1007.45 995.69 L 1010.26 993.86 L 1013.05 992.04 L 1015.82 990.20 L 1018.55 988.33 L 1021.28 986.49 L 1024.00 984.65 L 1026.68 982.77 L 1029.32 980.86 L 1031.95 978.97 L 1034.58 977.09 L 1037.20 975.22 L 1039.82 973.37 L 1042.42 971.53 L 1045.03 969.71 L 1047.62 967.88 L 1050.20 966.08 L 1052.79 964.31 L 1055.34 962.49 L 1057.88 960.69 L 1060.40 958.87 L 1062.91 957.07 L 1065.43 955.31 L 1067.95 953.55 L 1070.46 951.81 L 1072.95 950.06 L 1075.42 948.32 L 1077.90 946.60 L 1080.35 944.85 L 1082.78 943.11 L 1085.22 941.40 L 1087.65 939.69 L 1090.07 937.99 L 1092.50 936.33 L 1094.93 934.68 L 1097.35 933.04 L 1099.74 931.38 L 1102.12 929.73 L 1104.50 928.10 L 1106.90 926.51 L 1109.28 924.92 L 1111.66 923.34 L 1114.04 921.79 L 1116.41 920.24 L 1118.76 918.68 L 1121.12 917.16 L 1123.44 915.61 L 1125.78 914.10 L 1128.13 912.63 L 1130.44 911.11 L 1132.74 909.60 L 1135.02 908.09 L 1137.29 906.58 L 1139.58 905.11" stroke="rgb(140,255,190)" stroke-opacity="0.729" stroke-width="1.17" />
  <path d="M 1071.20 966.02 L 1073.55 965.83 L 1075.88 965.58 L 1078.27 965.40 L 1080.64 965.23 L 1083.03 965.03 L 1085.47 964.77 L 1087.90 964.52 L 1090.29 964.36 L 1092.73 964.18 L 1095.17 964.00 L 1097.56 963.79 L 1099.94 963.59 L 1102.32 963.33 L 1104.62 963.05 L 1106.92 962.84 L 1109.21 962.62 L 1111.50 962.45 L 1113.75 962.25 L 1115.97 962.03 L 1118.16 961.83 L 1120.35 961.63 L 1122.49 961.33 L 1124.61 961.10 L 1126.71 960.88" stroke="rgb(140,255,190)" stroke-opacity="0.729" stroke-width="1.17" />
  <path d="M 1028.63 969.81 L 1029.74 967.91 L 1030.87 966.02 L 1031.95 964.14 L 1033.05 962.27 L 1034.12 960.39 L 1035.29 958.52 L 1036.43 956.64 L 1037.66 954.78" stroke="rgb(140,255,190)" stroke-opacity="0.545" stroke-width="1.16" />
  <path d="M 1125.78 914.10 L 1128.61 912.83 L 1131.44 911.60 L 1134.25 910.41 L 1137.01 909.14 L 1139.78 907.90 L 1142.50 906.68 L 1145.23 905.47 L 1147.95 904.27 L 1150.68 903.11 L 1153.41 901.98 L 1156.10 900.80 L 1158.81 899.71 L 1161.50 898.62 L 1164.18 897.53 L 1166.83 896.40 L 1169.46 895.29 L 1172.08 894.15 L 1174.69 893.03 L 1177.27 891.88 L 1179.86 890.74 L 1182.48 889.61 L 1185.08 888.48 L 1187.66 887.37 L 1190.23 886.27 L 1192.81 885.23 L 1195.38 884.19 L 1197.93 883.16 L 1200.46 882.12 L 1203.03 881.11 L 1205.59 880.11 L 1208.11 879.06 L 1210.60 877.97 L 1213.09 876.92 L 1215.57 875.89" stroke="rgb(140,255,190)" stroke-opacity="0.725" stroke-width="1.16" />
  <path d="M 1073.08 966.36 L 1075.50 964.09 L 1077.90 961.83 L 1080.30 959.58 L 1082.63 957.29 L 1084.99 955.04 L 1087.32 952.78 L 1089.63 950.52 L 1091.94 948.27 L 1094.23 946.03 L 1096.50 943.79 L 1098.76 941.55 L 1101.02 939.32 L 1103.27 937.10 L 1105.51 934.91 L 1107.74 932.72 L 1109.98 930.55 L 1112.18 928.36 L 1114.37 926.19 L 1116.61 924.08 L 1118.79 921.92 L 1120.96 919.77 L 1123.15 917.66 L 1125.34 915.56 L 1127.53 913.48 L 1129.70 911.41 L 1131.87 909.35 L 1134.02 907.30 L 1136.12 905.21 L 1138.17 903.10 L 1140.21 900.99 L 1142.19 898.85 L 1144.18 896.73 L 1146.13 894.60 L 1148.06 892.47 L 1149.96 890.32 L 1151.86 888.19 L 1153.72 886.05 L 1155.62 883.96 L 1157.49 881.86 L 1159.29 879.73 L 1161.13 877.63 L 1162.95 875.55 L 1164.75 873.44 L 1166.54 871.34 L 1168.30 869.23 L 1170.06 867.13 L 1171.84 865.07 L 1173.66 863.05 L 1175.51 861.08 L 1177.32 859.10 L 1179.10 857.12 L 1180.86 855.13 L 1182.61 853.15 L 1184.36 851.18 L 1186.07 849.20 L 1187.78 847.23 L 1189.49 845.27 L 1191.18 843.31 L 1192.86 841.35 L 1194.52 839.38 L 1196.22 837.45 L 1197.88 835.51 L 1199.53 833.56 L 1201.16 831.61 L 1202.79 829.68 L 1204.42 827.75 L 1206.04 825.83 L 1207.65 823.92 L 1209.26 822.03 L 1210.87 820.15 L 1212.47 818.28 L 1214.07 816.39 L 1215.65 814.52 L 1217.29 812.70 L 1218.97 810.94 L 1220.63 809.19 L 1222.30 807.44 L 1223.96 805.70 L 1225.61 803.96 L 1227.26 802.23 L 1228.89 800.50 L 1230.52 798.79 L 1232.15 797.07 L 1233.74 795.34 L 1235.36 793.64 L 1236.99 791.95 L 1238.60 790.28 L 1240.22 788.61 L 1241.82 786.95 L 1243.40 785.28 L 1244.97 783.61 L 1246.49 781.90 L 1247.99 780.19 L 1249.49 778.50 L 1250.99 776.81 L 1252.47 775.12 L 1253.95 773.44 L 1255.46 771.79 L 1256.95 770.15 L 1258.44 768.50 L 1259.93 766.88 L 1261.42 765.27 L 1262.87 763.64 L 1264.32 762.03" stroke="rgb(140,255,190)" stroke-opacity="0.724" stroke-width="1.15" />
  <path d="M 1026.49 981.27 L 1029.32 980.34 L 1032.15 979.40 L 1034.95 978.43 L 1037.78 977.48 L 1040.63 976.51 L 1043.48 975.58 L 1046.29 974.64 L 1049.09 973.69 L 1051.91 972.77 L 1054.72 971.86 L 1057.53 970.93 L 1060.29 969.96 L 1063.04 968.99 L 1065.77 968.00 L 1068.49 967.01 L 1071.20 966.02 L 1073.88 965.05 L 1076.55 964.07 L 1079.21 963.12 L 1081.94 962.29 L 1084.66 961.47 L 1087.36 960.65 L 1090.06 959.83 L 1092.74 958.95 L 1095.41 958.06 L 1098.06 957.18 L 1100.68 956.27 L 1103.29 955.37 L 1105.88 954.47 L 1108.46 953.56 L 1111.02 952.64 L 1113.57 951.73 L 1116.10 950.79 L 1118.61 949.85 L 1121.11 948.87 L 1123.59 947.91 L 1126.07 946.95 L 1128.54 945.98 L 1131.01 945.06 L 1133.47 944.12 L 1135.93 943.20 L 1138.38 942.29 L 1140.79 941.34 L 1143.16 940.37 L 1145.52 939.42 L 1147.89 938.50 L 1150.29 937.64" stroke="rgb(140,255,190)" stroke-opacity="0.720" stroke-width="1.14" />
  <path d="M 1000.42 998.96 L 1002.24 997.32 L 1004.10 995.74 L 1005.91 994.12 L 1007.69 992.49 L 1009.52 990.94 L 1011.38 989.42 L 1013.26 987.95 L 1015.11 986.47 L 1016.88 984.92 L 1018.66 983.39 L 1020.40 981.81 L 1022.14 980.23 L 1023.85 978.67 L 1025.58 977.12 L 1027.29 975.57 L 1029.01 974.06 L 1030.72 972.55" stroke="rgb(140,255,190)" stroke-opacity="0.540" stroke-width="1.14" />
  <path d="M 1053.11 974.44 L 1055.32 972.34 L 1057.53 970.27 L 1059.74 968.23 L 1061.97 966.20 L 1064.17 964.16 L 1066.31 962.08 L 1068.45 960.01 L 1070.60 957.98 L 1072.70 955.92 L 1074.78 953.83 L 1076.88 951.80 L 1078.95 949.73 L 1081.01 947.67 L 1083.07 945.63 L 1085.07 943.56 L 1087.10 941.52 L 1089.13 939.50 L 1091.06 937.41 L 1092.97 935.30 L 1094.88 933.24 L 1096.70 931.15 L 1098.52 929.06 L 1100.31 927.00 L 1102.04 924.95 L 1103.76 922.91 L 1105.47 920.88 L 1107.24 918.89 L 1108.97 916.90 L 1110.72 914.93 L 1112.43 912.95 L 1114.11 910.93 L 1115.75 908.89 L 1117.39 906.87 L 1119.01 904.85 L 1120.63 902.86 L 1122.24 900.87 L 1123.86 898.91 L 1125.47 897.01 L 1127.11 895.10 L 1128.75 893.18 L 1130.39 891.30 L 1132.03 889.42 L 1133.61 887.50 L 1135.17 885.59" stroke="rgb(140,255,190)" stroke-opacity="0.539" stroke-width="1.14" />
  <path d="M 1011.13 998.92 L 1012.39 998.12 L 1013.63 997.33 L 1014.86 996.50 L 1016.10 995.69 L 1017.32 994.90 L 1018.54 994.13 L 1019.74 993.36 L 1020.91 992.67 L 1022.08 992.00 L 1023.25 991.33 L 1024.40 990.68 L 1025.52 990.02 L 1026.62 989.36 L 1027.69 988.69 L 1028.75 988.02 L 1029.81 987.39 L 1030.86 986.77 L 1031.95 986.15 L 1033.07 985.52 L 1034.28 984.89 L 1035.47 984.27 L 1036.67 983.66 L 1037.91 983.07 L 1039.15 982.47 L 1040.40 981.89 L 1041.69 981.29 L 1042.97 980.69 L 1044.24 980.10 L 1045.54 979.57 L 1046.83 979.02 L 1048.05 978.46 L 1049.22 977.90 L 1050.40 977.38 L 1051.61 976.87 L 1052.82 976.35 L 1054.03 975.83 L 1055.21 975.36 L 1056.40 974.87 L 1057.60 974.38 L 1058.80 973.86 L 1060.01 973.38 L 1061.32 972.84 L 1062.63 972.30" stroke="rgb(140,255,190)" stroke-opacity="0.719" stroke-width="1.14" />
  <path d="M 1017.95 988.32 L 1018.14 989.31 L 1018.37 990.43 L 1018.64 991.47 L 1018.79 992.42 L 1018.98 993.40 L 1019.16 994.38 L 1019.46 995.34 L 1019.75 996.25 L 1020.00 997.19 L 1020.25 998.11 L 1020.41 998.93 L 1020.56 999.75 L 1020.65 1000.56 L 1020.72 1001.36 L 1020.75 1002.20 L 1020.77 1003.04 L 1020.91 1003.90 L 1021.12 1004.81 L 1021.28 1005.62 L 1021.66 1006.46 L 1022.06 1007.25 L 1022.52 1008.08 L 1022.89 1008.91" stroke="rgb(140,255,190)" stroke-opacity="0.537" stroke-width="1.13" />
  <path d="M 1042.48 948.97 L 1043.90 946.27 L 1045.33 943.59 L 1046.75 940.91 L 1048.17 938.25 L 1049.59 935.60 L 1050.95 932.93 L 1052.28 930.26 L 1053.59 927.60 L 1054.87 924.93 L 1056.17 922.29 L 1057.37 919.61 L 1058.51 916.91 L 1059.65 914.23 L 1060.79 911.56 L 1061.83 908.86 L 1062.86 906.17 L 1063.90 903.50 L 1064.93 900.83 L 1065.92 898.17 L 1066.90 895.51 L 1067.89 892.87 L 1068.90 890.25 L 1069.88 887.63 L 1070.83 885.01 L 1071.79 882.41 L 1072.77 879.83 L 1073.74 877.27 L 1074.73 874.73 L 1075.73 872.21 L 1076.74 869.71 L 1077.68 867.19 L 1078.50 864.64 L 1079.30 862.09 L 1080.10 859.56 L 1080.88 857.03 L 1081.60 854.52 L 1082.31 852.01 L 1083.02 849.52 L 1083.67 847.01 L 1084.23 844.50 L 1084.82 842.01 L 1085.40 839.54" stroke="rgb(140,255,190)" stroke-opacity="0.536" stroke-width="1.13" />
  <path d="M 1028.63 970.58 L 1031.48 969.71 L 1034.31 968.87 L 1037.13 968.05 L 1039.90 967.20 L 1042.63 966.36 L 1045.35 965.49 L 1048.03 964.56 L 1050.66 963.64 L 1053.26 962.81 L 1055.88 961.92 L 1058.47 961.03 L 1061.04 960.12 L 1063.62 959.27 L 1066.19 958.39 L 1068.78 957.55 L 1071.38 956.79 L 1073.94 956.01 L 1076.47 955.23 L 1079.00 954.47 L 1081.55 953.75 L 1084.07 952.97 L 1086.58 952.24 L 1089.09 951.51 L 1091.57 950.68 L 1094.01 949.89 L 1096.46 949.14 L 1098.91 948.38 L 1101.33 947.61 L 1103.74 946.84 L 1106.08 945.99 L 1108.41 945.14 L 1110.70 944.27 L 1112.99 943.42 L 1115.27 942.57 L 1117.54 941.75 L 1119.77 940.86 L 1121.99 939.97 L 1124.23 939.11 L 1126.45 938.25 L 1128.66 937.35 L 1130.81 936.46 L 1132.94 935.59 L 1135.08 934.82 L 1137.22 934.08" stroke="rgb(140,255,190)" stroke-opacity="0.713" stroke-width="1.13" />
  <path d="M 995.30 1000.03 L 997.08 998.32 L 998.88 996.64 L 1000.72 995.02 L 1002.67 993.55 L 1004.61 992.09 L 1006.60 990.70 L 1008.58 989.33 L 1010.52 987.92 L 1012.47 986.54 L 1014.44 985.20 L 1016.44 983.94 L 1018.43 982.68 L 1020.39 981.39 L 1022.38 980.19 L 1024.37 978.99 L 1026.36 977.81 L 1028.34 976.65 L 1030.35 975.55 L 1032.39 974.52 L 1034.39 973.43 L 1036.37 972.32 L 1038.35 971.23 L 1040.34 970.16 L 1042.28 969.08 L 1044.27 968.07" stroke="rgb(140,255,190)" stroke-opacity="0.532" stroke-width="1.12" />
  <path d="M 1001.30 1000.10 L 1003.23 998.54 L 1005.19 997.04 L 1007.19 995.59 L 1009.17 994.14 L 1011.23 992.84 L 1013.24 991.50 L 1015.24 990.15 L 1017.23 988.79 L 1019.21 987.43 L 1021.09 985.94 L 1022.89 984.37 L 1024.70 982.83 L 1026.49 981.27 L 1028.34 979.79 L 1030.20 978.34 L 1032.05 976.88 L 1033.88 975.41 L 1035.67 973.92 L 1037.44 972.41 L 1039.21 970.91 L 1040.99 969.44 L 1042.76 967.98" stroke="rgb(140,255,190)" stroke-opacity="0.532" stroke-width="1.12" />
  <path d="M 1009.72 1002.18 L 1009.80 1002.07 L 1009.92 1001.86 L 1010.13 1001.50 L 1010.36 1001.15 L 1010.55 1000.78 L 1010.82 1000.47 L 1011.11 1000.12 L 1011.41 999.77 L 1011.69 999.28 L 1011.95 998.78 L 1012.33 998.21 L 1012.82 997.64 L 1013.40 997.11 L 1013.87 996.59 L 1014.31 996.10 L 1014.75 995.61 L 1015.16 995.11 L 1015.60 994.55 L 1015.98 993.98 L 1016.36 993.41 L 1016.78 992.82 L 1017.11 992.20 L 1017.34 991.59 L 1017.54 991.00 L 1017.64 990.52 L 1017.75 990.05 L 1017.84 989.62 L 1017.90 989.21 L 1017.96 988.81 L 1017.95 988.32 L 1017.89 987.82 L 1017.71 987.34" stroke="rgb(140,255,190)" stroke-opacity="0.531" stroke-width="1.12" />
  <path d="M 1000.67 1002.23 L 1003.03 1001.30 L 1005.39 1000.36 L 1007.74 999.40 L 1010.08 998.47 L 1012.41 997.63 L 1014.71 996.75 L 1017.00 995.86 L 1019.26 994.94 L 1021.51 994.05 L 1023.76 993.15 L 1026.00 992.25 L 1028.23 991.36 L 1030.42 990.43 L 1032.66 989.61 L 1034.93 988.86 L 1037.17 988.09 L 1039.42 987.37" stroke="rgb(140,255,190)" stroke-opacity="0.531" stroke-width="1.11" />
  <path d="M 1053.62 945.50 L 1056.01 944.45 L 1058.36 943.41 L 1060.68 942.37 L 1063.00 941.34 L 1065.34 940.39 L 1067.69 939.47 L 1070.06 938.64 L 1072.42 937.87 L 1074.83 937.24 L 1077.25 936.65 L 1079.65 936.05 L 1082.03 935.39 L 1084.44 934.81 L 1086.84 934.24 L 1089.22 933.64 L 1091.57 933.04 L 1093.93 932.45 L 1096.28 931.85 L 1098.66 931.35 L 1100.99 930.80 L 1103.32 930.26 L 1105.64 929.71 L 1107.92 929.07 L 1110.19 928.44 L 1112.46 927.80 L 1114.68 927.20 L 1116.90 926.63 L 1119.11 926.04 L 1121.30 925.36 L 1123.49 924.70 L 1125.67 924.02 L 1127.84 923.33 L 1129.97 922.56 L 1132.11 921.90 L 1134.25 921.23 L 1136.36 920.56 L 1138.53 919.98" stroke="rgb(140,255,190)" stroke-opacity="0.530" stroke-width="1.11" />
  <path d="M 999.04 999.92 L 1001.65 998.52 L 1004.30 997.25 L 1006.94 995.98 L 1009.56 994.66 L 1012.16 993.35 L 1014.74 992.03 L 1017.33 990.78 L 1019.92 989.54 L 1022.48 988.26 L 1025.04 986.98 L 1027.61 985.76 L 1030.18 984.59 L 1032.75 983.42 L 1035.34 982.30 L 1037.92 981.19 L 1040.49 980.08 L 1043.05 978.97 L 1045.59 977.86 L 1048.11 976.72 L 1050.62 975.58 L 1053.11 974.44 L 1055.60 973.30 L 1058.08 972.17 L 1060.54 971.03 L 1063.03 970.01 L 1065.54 969.05 L 1068.07 968.16 L 1070.58 967.27 L 1073.08 966.36 L 1075.59 965.48 L 1078.08 964.59 L 1080.54 963.63 L 1083.00 962.71 L 1085.45 961.79 L 1087.88 960.86 L 1090.30 959.93 L 1092.71 958.98 L 1095.12 958.07 L 1097.51 957.16 L 1099.90 956.25 L 1102.29 955.36 L 1104.67 954.49 L 1107.05 953.66 L 1109.43 952.84 L 1111.79 952.01 L 1114.14 951.19 L 1116.49 950.42 L 1118.84 949.64 L 1121.20 948.95 L 1123.54 948.26 L 1125.87 947.54 L 1128.19 946.81 L 1130.50 946.10 L 1132.80 945.39 L 1135.10 944.67 L 1137.35 943.86 L 1139.59 943.05 L 1141.84 942.30" stroke="rgb(140,255,190)" stroke-opacity="0.530" stroke-width="1.11" />
  <path d="M 1002.06 1003.16 L 1004.26 1001.57" stroke="rgb(140,255,190)" stroke-opacity="0.530" stroke-width="1.11" />
  <path d="M 997.93 998.52 L 999.89 996.64 L 1001.88 994.78 L 1003.82 992.90 L 1005.75 991.03 L 1007.67 989.16 L 1009.61 987.31 L 1011.53 985.46 L 1013.47 983.65 L 1015.35 981.80 L 1017.16 979.90 L 1018.92 977.96 L 1020.69 976.04 L 1022.55 974.24 L 1024.39 972.43 L 1026.26 970.65 L 1028.14 968.90 L 1029.99 967.14 L 1031.86 965.41 L 1033.76 963.72 L 1035.68 962.07 L 1037.59 960.41 L 1039.48 958.77 L 1041.41 957.17 L 1043.37 955.61 L 1045.31 954.06 L 1047.27 952.54 L 1049.21 951.03 L 1051.12 949.52 L 1053.04 948.05 L 1054.95 946.57 L 1056.85 945.10 L 1058.71 943.59 L 1060.60 942.16 L 1062.47 940.71 L 1064.33 939.27 L 1066.25 937.92 L 1068.16 936.59 L 1070.06 935.24 L 1071.95 933.89 L 1073.88 932.62 L 1075.78 931.30 L 1077.65 929.99 L 1079.57 928.75 L 1081.46 927.49 L 1083.37 926.28 L 1085.27 925.07 L 1087.17 923.87 L 1089.08 922.71 L 1091.01 921.60 L 1092.91 920.48 L 1094.80 919.37 L 1096.68 918.27 L 1098.56 917.16 L 1100.43 916.08 L 1102.31 915.02" stroke="rgb(140,255,190)" stroke-opacity="0.529" stroke-width="1.11" />
  <path d="M 997.51 999.05 L 999.69 997.09 L 1001.85 995.12 L 1004.02 993.19 L 1006.14 991.22 L 1008.21 989.22 L 1010.24 987.19 L 1012.27 985.18 L 1014.33 983.22 L 1016.37 981.25 L 1018.46 979.36 L 1020.52 977.44 L 1022.57 975.53 L 1024.60 973.63 L 1026.63 971.73 L 1028.63 969.81 L 1030.55 967.85 L 1032.56 965.98 L 1034.57 964.12 L 1036.52 962.23 L 1038.42 960.29 L 1040.38 958.42 L 1042.30 956.54 L 1044.21 954.67 L 1046.09 952.80 L 1047.97 950.93 L 1049.87 949.11 L 1051.73 947.27 L 1053.62 945.50 L 1055.51 943.76 L 1057.40 942.02 L 1059.28 940.29 L 1061.15 938.57 L 1063.01 936.84 L 1064.88 935.14 L 1066.79 933.53 L 1068.66 931.87 L 1070.54 930.23 L 1072.40 928.60" stroke="rgb(140,255,190)" stroke-opacity="0.529" stroke-width="1.11" />
  <path d="M 1057.88 960.69 L 1059.93 959.60 L 1061.97 958.53 L 1064.03 957.56 L 1066.10 956.60 L 1068.15 955.64 L 1070.07 954.53 L 1072.01 953.48 L 1073.97 952.45 L 1075.93 951.37 L 1077.90 950.27 L 1079.86 949.18 L 1081.69 947.85 L 1083.55 946.55 L 1085.39 945.25 L 1087.23 944.00 L 1089.06 942.75 L 1090.88 941.51 L 1092.67 940.33 L 1094.44 939.12 L 1096.19 937.92 L 1098.00 936.74 L 1099.78 935.55 L 1101.56 934.35 L 1103.35 933.17 L 1104.99 931.92 L 1106.63 930.76 L 1108.26 929.62 L 1109.90 928.45" stroke="rgb(140,255,190)" stroke-opacity="0.529" stroke-width="1.11" />
  <path d="M 1087.65 939.69 L 1089.56 937.63 L 1091.36 935.48 L 1093.16 933.34 L 1095.00 931.24 L 1096.74 929.07 L 1098.40 926.86 L 1100.04 924.64 L 1101.66 922.43 L 1103.23 920.19 L 1104.89 918.00 L 1106.59 915.86 L 1108.29 913.75 L 1109.95 911.63 L 1111.59 909.50 L 1113.29 907.45 L 1114.93 905.36 L 1116.47 903.23 L 1117.97 901.10 L 1119.48 899.01 L 1120.99 896.94" stroke="rgb(140,255,190)" stroke-opacity="0.528" stroke-width="1.10" />
  <path d="M 1179.86 890.74 L 1182.12 888.94 L 1184.27 887.08 L 1186.42 885.22 L 1188.55 883.40 L 1190.67 881.58 L 1192.79 879.78" stroke="rgb(140,255,190)" stroke-opacity="0.528" stroke-width="1.10" />
  <path d="M 1000.93 997.89 L 1002.96 996.03 L 1004.96 994.15 L 1006.92 992.26 L 1008.89 990.38 L 1010.86 988.52 L 1012.80 986.64 L 1014.75 984.80 L 1016.64 982.91 L 1018.47 980.96 L 1020.23 978.99 L 1021.99 977.01 L 1023.79 975.09 L 1025.53 973.13 L 1027.27 971.17 L 1028.94 969.18 L 1030.45 967.08 L 1031.96 964.98 L 1033.53 962.95 L 1035.06 960.91 L 1036.51 958.83 L 1037.92 956.73 L 1039.33 954.65 L 1040.66 952.55 L 1042.04 950.48 L 1043.38 948.41 L 1044.75 946.37 L 1046.10 944.32 L 1047.50 942.30 L 1048.87 940.28 L 1050.25 938.27 L 1051.64 936.27 L 1053.01 934.28 L 1054.42 932.32 L 1055.87 930.40" stroke="rgb(140,255,190)" stroke-opacity="0.528" stroke-width="1.10" />
  <path d="M 999.18 997.98 L 1001.37 996.03 L 1003.52 994.04 L 1005.64 992.03 L 1007.71 989.99 L 1009.80 987.97 L 1011.87 985.95 L 1013.94 983.94 L 1016.05 981.99 L 1018.16 980.06 L 1020.27 978.14 L 1022.37 976.24 L 1024.45 974.32 L 1026.53 972.43 L 1028.63 970.58 L 1030.75 968.76 L 1032.85 966.94 L 1034.94 965.13 L 1036.93 963.22 L 1038.90 961.31 L 1040.87 959.41 L 1042.83 957.52 L 1044.79 955.64 L 1046.74 953.77 L 1048.64 951.86 L 1050.53 949.96 L 1052.41 948.05 L 1054.29 946.18 L 1056.26 944.40 L 1058.18 942.59 L 1060.09 940.79 L 1061.99 938.98 L 1063.89 937.19 L 1065.77 935.40" stroke="rgb(140,255,190)" stroke-opacity="0.528" stroke-width="1.10" />
  <path d="M -0.30 1883.12 L 2.42 1881.20 L 4.31 1879.21 L 6.55 1877.35 L 8.79 1875.22 L 11.33 1873.63 L 13.95 1871.55 L 15.71 1869.43 L 18.24 1867.26 L 20.23 1865.43 L 22.82 1863.35 L 24.91 1861.35 L 26.62 1859.05 L 29.15 1857.14 L 31.32 1855.49 L 33.64 1853.11 L 36.30 1851.33 L 38.04 1849.89 L 40.54 1848.05 L 42.58 1845.65 L 45.12 1843.43 L 47.17 1841.32 L 49.27 1839.75 L 51.67 1837.41 L 53.66 1835.65 L 55.98 1833.43 L 58.22 1832.02 L 60.47 1829.76 L 62.80 1827.42 L 64.95 1825.59 L 67.42 1823.67 L 69.77 1821.61 L 72.20 1819.65 L 74.51 1817.22 L 76.50 1815.51 L 78.79 1813.90 L 80.78 1811.38 L 83.38 1810.12 L 85.49 1808.03 L 87.35 1805.46 L 89.69 1803.76 L 92.13 1801.82 L 94.32 1799.35 L 96.90 1797.87 L 99.07 1796.01 L 101.39 1793.99 L 103.63 1791.91 L 105.95 1790.01 L 107.99 1787.49 L 110.29 1786.20 L 112.23 1783.77 L 114.43 1781.91 L 116.92 1779.69 L 119.38 1777.82 L 121.30 1775.90 L 123.34 1774.20 L 125.52 1771.91 L 128.28 1770.06 L 130.49 1768.04 L 132.73 1765.81 L 135.03 1764.22 L 137.05 1762.00 L 139.24 1759.85 L 141.71 1757.99 L 144.22 1756.40 L 146.15 1753.92 L 148.27 1751.94 L 150.46 1750.16 L 153.42 1748.24 L 155.30 1745.90 L 157.30 1743.84 L 159.96 1742.80 L 162.13 1740.15 L 164.37 1738.06 L 166.18 1736.22 L 168.49 1734.14 L 171.08 1732.17 L 172.65 1730.24 L 175.31 1728.83 L 177.51 1726.10 L 179.76 1724.11 L 181.82 1722.16 L 184.44 1720.70 L 186.78 1718.14 L 188.35 1716.36 L 191.22 1714.39 L 193.70 1712.48 L 195.60 1710.39 L 197.56 1708.07 L 200.30 1706.48 L 202.32 1704.33 L 204.47 1702.53 L 206.90 1700.34 L 209.25 1698.15 L 211.49 1696.56 L 213.48 1694.31 L 215.99 1692.81 L 218.30 1690.51 L 220.49 1688.18 L 222.55 1686.44 L 225.21 1684.19 L 227.16 1682.50 L 229.17 1680.23 L 231.53 1678.91 L 234.04 1676.60 L 236.54 1674.73 L 238.54 1672.73 L 240.47 1670.92 L 242.85 1668.94 L 245.32 1666.69 L 247.20 1664.65 L 249.42 1663.06 L 251.78 1660.74 L 254.12 1658.61 L 256.21 1656.42 L 258.43 1654.52 L 260.85 1653.10 L 262.83 1650.84 L 265.51 1648.89 L 267.22 1646.81 L 270.26 1644.61 L 272.43 1642.58 L 274.23 1641.16 L 276.59 1639.20 L 279.20 1636.90 L 280.95 1635.30 L 283.16 1633.07 L 285.41 1630.69 L 287.93 1628.64 L 290.31 1627.04 L 291.74 1625.15 L 294.23 1622.95 L 296.86 1620.59 L 299.08 1618.99 L 300.96 1617.03 L 303.50 1615.13 L 305.95 1613.18 L 307.79 1610.78 L 309.94 1609.18 L 312.69 1606.95 L 314.87 1605.15 L 316.86 1603.23 L 319.32 1601.01 L 321.62 1599.32 L 323.88 1596.54 L 325.85 1595.57 L 328.36 1592.78 L 330.58 1591.03 L 332.51 1589.02 L 334.82 1587.53 L 337.19 1585.27 L 339.17 1583.48 L 341.34 1581.39 L 344.10 1579.44 L 346.34 1577.50 L 348.72 1575.50 L 350.38 1573.66 L 353.00 1571.31 L 355.16 1569.18 L 357.26 1567.32 L 359.93 1565.39 L 361.77 1563.77 L 364.10 1561.70 L 366.47 1559.39 L 368.59 1557.37 L 371.04 1555.24 L 373.33 1553.63 L 375.24 1551.30 L 377.89 1549.64 L 379.88 1547.55 L 382.18 1546.09 L 384.75 1543.61 L 386.47 1541.64 L 389.11 1539.64 L 391.39 1537.96 L 393.10 1535.47 L 395.80 1533.70 L 397.65 1531.40 L 400.02 1529.89 L 402.45 1527.89 L 405.08 1525.45 L 407.05 1523.62 L 409.38 1521.83 L 411.59 1519.49 L 413.75 1517.54 L 415.94 1515.58 L 418.43 1513.75 L 420.46 1511.84 L 422.66 1509.55 L 425.07 1507.90 L 427.51 1505.84 L 429.30 1503.71 L 431.65 1501.98 L 433.90 1499.88 L 436.16 1497.89 L 438.54 1495.78 L 440.96 1493.98 L 442.78 1491.59 L 445.09 1489.81 L 447.92 1487.99 L 449.89 1485.99 L 451.63 1483.98 L 454.54 1481.62 L 456.61 1479.28 L 458.81 1477.77 L 461.24 1476.10 L 463.37 1474.15 L 465.27 1472.06 L 467.87 1470.19 L 470.06 1468.28 L 471.67 1465.80 L 474.18 1464.29 L 476.93 1462.49 L 479.00 1460.21 L 480.84 1458.04 L 483.45 1456.14 L 485.75 1454.41 L 487.98 1452.35 L 490.31 1450.13 L 492.58 1447.77 L 494.59 1446.27 L 496.82 1444.29 L 499.34 1441.75 L 501.40 1440.40 L 503.55 1438.62 L 505.60 1436.51 L 507.97 1434.18 L 510.30 1431.96 L 512.91 1430.33 L 514.70 1428.60 L 516.85 1426.08 L 519.35 1424.54 L 521.86 1422.29 L 523.59 1420.37 L 526.52 1418.34 L 528.06 1416.44 L 530.80 1414.54 L 533.03 1412.71 L 535.29 1410.56 L 537.36 1408.65 L 539.69 1406.88 L 541.76 1404.62 L 544.25 1403.11 L 546.03 1400.46 L 548.79 1398.54 L 550.79 1396.31 L 553.13 1394.68 L 555.13 1392.94 L 557.87 1390.18 L 560.18 1388.92 L 562.06 1386.51 L 564.45 1384.72 L 566.15 1382.65 L 568.84 1380.81 L 571.22 1378.69 L 573.30 1376.83 L 576.19 1375.11 L 577.96 1372.81 L 580.22 1371.03 L 582.34 1369.19 L 584.24 1366.98 L 586.97 1364.75 L 589.16 1362.73 L 591.20 1360.53 L 594.14 1358.98 L 595.90 1356.52 L 598.01 1354.92 L 600.44 1352.76 L 602.24 1350.58 L 604.88 1348.78 L 607.49 1347.20 L 609.59 1344.56 L 611.73 1343.04 L 613.80 1340.58 L 616.09 1339.28 L 618.55 1337.05 L 620.38 1335.08 L 622.79 1333.17 L 625.31 1330.75 L 627.28 1329.16 L 629.89 1327.06 L 631.64 1325.18 L 634.19 1322.95 L 636.27 1321.23 L 639.02 1319.03 L 640.95 1317.45 L 643.01 1315.22 L 645.35 1313.07 L 647.70 1311.06 L 649.57 1309.18 L 652.14 1307.49 L 654.17 1305.37 L 656.69 1303.60 L 659.17 1300.99 L 661.61 1299.35 L 663.46 1297.34 L 665.41 1295.42 L 668.06 1293.45 L 670.05 1291.14 L 672.47 1289.29 L 674.69 1287.38 L 676.61 1285.32 L 678.95 1283.17 L 681.73 1281.13 L 683.40 1279.34 L 685.44 1277.34 L 688.23 1275.40 L 690.66 1273.78 L 692.76 1271.34 L 694.76 1269.62 L 697.46 1267.46 L 699.43 1265.73 L 701.78 1263.29 L 703.67 1260.90 L 706.03 1259.35 L 707.94 1257.28 L 710.82 1255.60 L 712.81 1253.41 L 715.22 1251.56 L 717.38 1249.76 L 719.78 1248.06 L 721.97 1245.75 L 723.70 1243.90 L 726.50 1241.77 L 728.55 1239.66 L 730.72 1237.84 L 732.96 1235.87 L 735.30 1233.58 L 737.39 1231.48 L 739.53 1229.70 L 742.12 1227.92 L 744.38 1225.46 L 746.55 1223.86 L 748.68 1221.83 L 751.25 1220.35 L 753.53 1217.80 L 755.52 1216.00 L 757.94 1213.38 L 760.11 1211.56 L 762.25 1210.21 L 764.34 1207.89 L 766.85 1205.96 L 768.57 1203.92 L 771.01 1202.12 L 773.14 1199.87 L 775.84 1197.90 L 778.27 1195.72 L 780.28 1194.12 L 782.64 1191.92 L 785.19 1189.72 L 787.06 1188.46 L 789.32 1186.02 L 791.44 1184.21 L 793.79 1181.66 L 796.16 1180.23 L 798.49 1178.34 L 800.94 1176.31 L 802.84 1174.34 L 805.16 1172.15 L 807.09 1170.34 L 809.33 1168.00 L 811.70 1166.16 L 814.26 1163.95 L 816.30 1162.05 L 818.70 1160.17 L 820.56 1158.62 L 823.02 1156.42 L 825.49 1154.38 L 827.73 1152.35 L 830.08 1150.08 L 831.90 1148.33 L 834.39 1146.13 L 836.94 1144.55 L 838.78 1142.12 L 840.93 1140.85 L 843.04 1138.26 L 845.65 1136.88 L 847.49 1134.38 L 850.20 1132.52 L 852.40 1130.53 L 854.53 1128.57 L 856.85 1126.74 L 859.48 1124.57 L 860.66 1122.60 L 863.54 1121.02 L 865.64 1118.39 L 868.59 1116.69 L 869.78 1114.52 L 872.63 1112.62 L 874.48 1110.61 L 877.04 1108.55 L 879.29 1106.50 L 881.64 1104.91 L 883.63 1102.49 L 885.67 1100.95 L 888.73 1098.58 L 890.90 1096.78 L 892.91 1094.78 L 894.74 1092.79 L 897.50 1090.52 L 899.28 1088.75 L 901.93 1087.14 L 904.01 1084.94 L 906.33 1082.62 L 908.52 1080.71 L 910.76 1078.80 L 913.25 1076.94 L 915.10 1074.97 L 917.53 1073.27 L 919.91 1071.29 L 921.71 1069.13 L 924.54 1066.65 L 926.20 1065.11 L 928.76 1063.06 L 931.09 1061.18 L 933.08 1059.22 L 935.31 1056.86 L 937.93 1055.28 L 939.98 1052.97 L 941.92 1051.40 L 944.26 1049.11 L 946.67 1047.18 L 948.89 1045.14 L 950.76 1043.25 L 953.36 1041.21 L 955.65 1039.12 L 958.03 1037.20 L 960.27 1035.10 L 962.48 1033.06 L 964.35 1031.04 L 966.86 1028.88 L 969.54 1027.43 L 971.56 1024.99 L 973.60 1023.09 L 975.80 1021.02 L 978.10 1019.53 L 980.16 1017.21 L 982.59 1015.21 L 985.15 1013.30 L 987.45 1011.01 L 989.47 1009.60 L 991.66 1007.03 L 994.05 1005.04 L 996.46 1003.64 L 998.53 1001.39 L 1000.00 1000.00 L 1002.25 998.01 L 1004.51 996.04 L 1006.77 994.07 L 1009.03 992.10 L 1011.29 990.13 L 1013.56 988.16 L 1015.82 986.19 L 1018.09 984.23 L 1020.35 982.26 L 1022.62 980.29 L 1024.88 978.32 L 1027.17 976.38 L 1029.47 974.45 L 1031.77 972.53 L 1034.08 970.62 L 1036.38 968.69 L 1038.66 966.74 L 1040.95 964.81 L 1043.24 962.87 L 1045.53 960.93 L 1047.84 959.01 L 1050.13 957.08 L 1052.42 955.14 L 1054.73 953.23 L 1057.05 951.32 L 1059.36 949.41 L 1061.65 947.47 L 1063.94 945.53 L 1066.22 943.58 L 1068.51 941.64 L 1070.80 939.70 L 1073.09 937.77 L 1075.39 935.84 L 1077.68 933.91 L 1079.98 931.97 L 1082.28 930.05 L 1084.60 928.15 L 1086.91 926.23 L 1089.21 924.31 L 1091.51 922.38 L 1093.79 920.43 L 1096.08 918.49 L 1098.38 916.57 L 1100.68 914.64 L 1102.96 912.69 L 1105.25 910.75 L 1107.55 908.83 L 1109.87 906.92 L 1112.16 904.99 L 1114.46 903.06 L 1116.78 901.16 L 1119.09 899.24 L 1121.42 897.36 L 1123.75 895.47 L 1126.08 893.57 L 1128.38 891.65 L 1130.70 889.74 L 1133.00 887.83 L 1135.31 885.90 L 1137.62 883.99 L 1139.92 882.06 L 1142.22 880.15 L 1144.53 878.22 L 1146.81 876.28 L 1149.11 874.35 L 1151.40 872.42 L 1153.70 870.49 L 1155.99 868.55 L 1158.29 866.62 L 1160.58 864.68 L 1162.85 862.72 L 1165.11 860.75 L 1167.38 858.79 L 1169.65 856.82 L 1171.92 854.87 L 1174.19 852.90 L 1176.45 850.93 L 1178.72 848.97 L 1181.00 847.03 L 1183.28 845.07 L 1185.57 843.14 L 1187.86 841.19 L 1190.15 839.25 L 1192.44 837.31 L 1194.74 835.39 L 1197.04 833.46 L 1199.33 831.53 L 1201.63 829.60 L 1203.93 827.67 L 1206.23 825.75 L 1208.52 823.81 L 1210.82 821.89 L 1213.13 819.97 L 1215.45 818.06 L 1217.76 816.15 L 1220.08 814.25 L 1222.40 812.36 L 1224.72 810.45 L 1227.01 808.52 L 1229.31 806.58 L 1231.61 804.66 L 1233.94 802.76 L 1236.26 800.87 L 1238.59 798.98 L 1240.91 797.08 L 1243.24 795.19 L 1245.57 793.30 L 1247.90 791.40 L 1250.23 789.51 L 1252.57 787.64 L 1254.93 785.79 L 1257.27 783.91 L 1259.63 782.06 L 1262.00 780.22 L 1264.36 778.37 L 1266.75 776.55 L 1269.15 774.75 L 1271.55 772.95 L 1273.94 771.13 L 1276.32 769.31 L 1278.72 767.51 L 1281.13 765.72 L 1283.54 763.94 L 1285.95 762.16 L 1288.35 760.36 L 1290.75 758.56 L 1293.16 756.76 L 1295.55 754.96 L 1297.94 753.14 L 1300.34 751.34 L 1302.71 749.50 L 1305.07 747.65 L 1307.43 745.79 L 1309.77 743.92 L 1312.11 742.04 L 1314.45 740.17 L 1316.78 738.28 L 1319.11 736.39 L 1321.44 734.49 L 1323.76 732.60 L 1326.10 730.72 L 1328.45 728.85 L 1330.77 726.95 L 1333.11 725.07 L 1335.44 723.18 L 1337.79 721.31 L 1340.15 719.47 L 1342.49 717.59 L 1344.81 715.69 L 1347.12 713.77 L 1349.41 711.84 L 1351.70 709.89 L 1353.98 707.94 L 1356.25 705.98 L 1358.53 704.03 L 1360.81 702.09 L 1363.09 700.14 L 1365.39 698.21 L 1367.68 696.27 L 1369.97 694.33 L 1372.25 692.39 L 1374.52 690.42 L 1376.80 688.48 L 1379.10 686.55 L 1381.41 684.63 L 1383.73 682.73 L 1386.06 680.84 L 1388.37 678.93 L 1390.68 677.01 L 1392.97 675.07 L 1395.27 673.15 L 1397.58 671.24 L 1399.89 669.31 L 1402.18 667.38 L 1404.46 665.43 L 1406.72 663.46 L 1408.98 661.48 L 1411.27 659.54 L 1413.55 657.60 L 1415.80 655.62 L 1418.05 653.63 L 1420.32 651.66 L 1422.58 649.70 L 1424.83 647.72 L 1427.08 645.73 L 1429.32 643.73 L 1431.56 641.74 L 1433.78 639.72 L 1436.03 637.73 L 1438.32 635.79 L 1440.61 633.86 L 1442.90 631.92 L 1445.18 629.97 L 1447.45 628.01 L 1449.72 626.05 L 1451.99 624.09 L 1454.26 622.12 L 1456.52 620.15 L 1458.77 618.17 L 1461.04 616.20 L 1463.31 614.24 L 1465.58 612.28 L 1467.84 610.31 L 1470.10 608.33 L 1472.37 606.37 L 1474.61 604.38 L 1476.85 602.38 L 1479.09 600.39 L 1481.32 598.38 L 1483.54 596.36 L 1485.77 594.36 L 1488.01 592.36 L 1490.26 590.38 L 1492.51 588.39 L 1494.75 586.40 L 1496.99 584.40 L 1499.21 582.38 L 1501.43 580.37 L 1503.66 578.36 L 1505.87 576.32 L 1508.09 574.32 L 1510.33 572.32 L 1512.59 570.34 L 1514.85 568.37 L 1517.12 566.41 L 1519.40 564.46 L 1521.66 562.49 L 1523.93 560.52 L 1526.20 558.57 L 1528.48 556.62 L 1530.76 554.66 L 1533.05 552.73 L 1535.36 550.81 L 1537.64 548.86 L 1539.91 546.89 L 1542.17 544.93 L 1544.44 542.96 L 1546.69 540.99 L 1548.95 539.01 L 1551.21 537.03 L 1553.45 535.04 L 1555.66 533.01 L 1557.86 530.97 L 1560.07 528.94 L 1562.24 526.88 L 1564.43 524.82 L 1566.61 522.76 L 1568.78 520.69 L 1570.95 518.62 L 1573.13 516.56 L 1575.32 514.50 L 1577.51 512.45 L 1579.69 510.39 L 1581.87 508.34 L 1584.06 506.28 L 1586.24 504.22 L 1588.42 502.16 L 1590.61 500.11 L 1592.81 498.07 L 1595.00 496.02 L 1597.18 493.96 L 1599.36 491.90 L 1601.53 489.83 L 1603.68 487.74 L 1605.83 485.64 L 1607.96 483.53 L 1610.09 481.42 L 1612.24 479.32 L 1614.39 477.24 L 1616.55 475.15 L 1618.71 473.06 L 1620.87 470.98 L 1623.02 468.90 L 1625.19 466.82 L 1627.34 464.73 L 1629.48 462.63 L 1631.61 460.51 L 1633.73 458.39 L 1635.85 456.27 L 1637.97 454.15 L 1640.11 452.04 L 1642.21 449.90 L 1644.31 447.76 L 1646.42 445.63 L 1648.54 443.50 L 1650.64 441.37 L 1652.75 439.23 L 1654.86 437.10 L 1656.98 434.97 L 1659.09 432.84 L 1661.20 430.71 L 1663.32 428.58 L 1665.44 426.46 L 1667.57 424.36 L 1669.74 422.28 L 1671.91 420.21 L 1674.09 418.14 L 1676.25 416.07 L 1678.39 413.97 L 1680.56 411.89 L 1682.72 409.81 L 1684.86 407.71 L 1687.01 405.62 L 1689.15 403.52 L 1691.30 401.42 L 1693.47 399.35 L 1695.63 397.26 L 1697.79 395.19 L 1699.97 393.12 L 1702.16 391.07 L 1704.36 389.04 L 1706.55 386.98 L 1708.72 384.91 L 1710.90 382.86 L 1713.11 380.82 L 1715.33 378.81 L 1717.56 376.79 L 1719.79 374.79 L 1722.05 372.82 L 1724.32 370.86 L 1726.60 368.91 L 1728.89 366.97 L 1731.17 365.02 L 1733.43 363.05 L 1735.71 361.10 L 1738.00 359.16 L 1740.29 357.23 L 1742.58 355.28 L 1744.84 353.31 L 1747.08 351.32 L 1749.32 349.31 L 1751.53 347.29 L 1753.73 345.25 L 1755.91 343.19 L 1758.12 341.16 L 1760.31 339.11 L 1762.51 337.08 L 1764.72 335.04 L 1766.94 333.03 L 1769.19 331.04 L 1771.43 329.04 L 1773.67 327.05 L 1775.90 325.04 L 1778.13 323.03 L 1780.35 321.02 L 1782.56 318.99 L 1784.78 316.97 L 1787.01 314.96 L 1789.25 312.97 L 1791.50 310.99 L 1793.76 309.01 L 1796.03 307.05 L 1798.29 305.07 L 1800.55 303.10 L 1802.81 301.13 L 1805.07 299.16 L 1807.33 297.18 L 1809.59 295.21 L 1811.83 293.22 L 1814.10 291.25 L 1816.36 289.28 L 1818.64 287.33 L 1820.92 285.38 L 1823.20 283.43 L 1825.49 281.50 L 1827.79 279.57 L 1830.08 277.63 L 1832.38 275.70 L 1834.68 273.78 L 1836.98 271.85 L 1839.29 269.94 L 1841.59 268.02 L 1843.90 266.09 L 1846.20 264.17 L 1848.48 262.22 L 1850.77 260.28 L 1853.06 258.35 L 1855.34 256.39 L 1857.61 254.43 L 1859.87 252.46 L 1862.14 250.50 L 1864.42 248.55 L 1866.71 246.61 L 1868.99 244.66 L 1871.26 242.70 L 1873.55 240.76 L 1875.82 238.80 L 1878.08 236.83 L 1880.35 234.87 L 1882.62 232.90 L 1884.87 230.93 L 1887.15 228.97 L 1889.40 226.99 L 1891.65 225.00 L 1893.91 223.03 L 1896.16 221.05 L 1898.42 219.07 L 1900.70 217.12 L 1902.97 215.16 L 1905.24 213.20 L 1907.51 211.24 L 1909.79 209.29 L 1912.06 207.33 L 1914.31 205.35 L 1916.56 203.36 L 1918.80 201.37 L 1921.06 199.38 L 1923.30 197.40 L 1925.55 195.41 L 1927.81 193.44 L 1930.08 191.48 L 1932.35 189.51 L 1934.63 187.56 L 1936.92 185.63 L 1939.23 183.72 L 1941.54 181.80 L 1943.84 179.88 L 1946.13 177.94 L 1948.44 176.02 L 1950.76 174.12 L 1953.09 172.23 L 1955.40 170.32 L 1957.71 168.40 L 1960.03 166.49 L 1962.32 164.56 L 1964.61 162.62 L 1966.90 160.69 L 1969.19 158.75 L 1971.48 156.81 L 1973.77 154.87 L 1976.05 152.92 L 1978.34 150.98 L 1980.62 149.04 L 1982.89 147.07 L 1985.17 145.12 L 1987.42 143.14 L 1989.67 141.15 L 1991.91 139.16 L 1994.17 137.18 L 1996.43 135.21 L 1998.70 133.25 L 2000.95 131.27 L 2003.21 129.30 L 2005.48 127.33 L 2007.73 125.35 L 2010.00 123.39 L 2012.28 121.44 L 2014.58 119.51 L 2016.86 117.56 L 2019.15 115.62 L 2021.43 113.67" stroke="rgb(245,245,245)" stroke-opacity="0.703" stroke-width="1.10" />
  <path d="M 998.78 999.57 L 1000.28 997.48 L 1001.77 995.42 L 1003.27 993.39 L 1004.77 991.35 L 1006.36 989.41 L 1007.93 987.48 L 1009.49 985.56 L 1011.09 983.70 L 1012.67 981.88 L 1014.19 980.00 L 1015.67 978.07 L 1017.10 976.11 L 1018.57 974.19 L 1020.03 972.27 L 1021.39 970.30 L 1022.73 968.32 L 1024.09 966.36 L 1025.45 964.41 L 1026.76 962.44 L 1028.10 960.48 L 1029.42 958.53 L 1030.70 956.57 L 1032.02 954.63 L 1033.40 952.73 L 1034.77 950.84 L 1036.14 948.96 L 1037.47 947.06 L 1038.81 945.17 L 1040.16 943.29 L 1041.47 941.39" stroke="rgb(140,255,190)" stroke-opacity="0.527" stroke-width="1.10" />
  <path d="M 1035.67 973.92 L 1037.44 972.30 L 1039.25 970.80 L 1041.12 969.46 L 1043.04 968.16 L 1045.02 966.93 L 1046.99 965.74 L 1048.92 964.53 L 1050.83 963.33 L 1052.75 962.12 L 1054.59 960.90 L 1056.49 959.70 L 1058.39 958.52 L 1060.26 957.33 L 1062.16 956.15 L 1063.99 954.98 L 1065.80 953.81 L 1067.58 952.77 L 1069.45 951.74 L 1071.28 950.66 L 1073.07 949.53 L 1074.84 948.36 L 1076.60 947.19 L 1078.35 946.00 L 1080.04 944.81 L 1081.71 943.62 L 1083.39 942.37 L 1085.06 941.08 L 1086.72 939.79 L 1088.38 938.53 L 1089.99 937.19 L 1091.58 935.80 L 1093.23 934.44 L 1094.86 933.07 L 1096.48 931.70 L 1098.07 930.33 L 1099.67 928.96 L 1101.26 927.64 L 1102.85 926.32 L 1104.39 924.98 L 1105.95 923.69 L 1107.51 922.40 L 1109.03 921.11 L 1110.46 919.74 L 1111.85 918.37 L 1113.17 917.05 L 1114.47 915.76 L 1115.77 914.49 L 1117.06 913.20 L 1118.33 911.90 L 1119.59 910.62 L 1120.87 909.37 L 1122.14 908.11 L 1123.35 906.85 L 1124.57 905.60 L 1125.78 904.31 L 1127.02 902.95 L 1128.26 901.59 L 1129.47 900.19 L 1130.73 898.80 L 1131.96 897.42 L 1133.19 896.02 L 1134.42 894.64 L 1135.65 893.25 L 1136.88 891.88 L 1138.09 890.51 L 1139.24 889.06 L 1140.32 887.58 L 1141.33 886.10 L 1142.36 884.64 L 1143.44 883.19 L 1144.57 881.73 L 1145.74 880.26 L 1146.89 878.75 L 1148.05 877.26 L 1149.17 875.75 L 1150.30 874.25 L 1151.42 872.73 L 1152.56 871.21 L 1153.68 869.66 L 1154.69 868.05 L 1155.70 866.48 L 1156.66 864.89 L 1157.62 863.31 L 1158.62 861.73 L 1159.59 860.14 L 1160.52 858.55 L 1161.49 857.01" stroke="rgb(140,255,190)" stroke-opacity="0.526" stroke-width="1.10" />
  <path d="M 1040.66 952.55 L 1043.06 951.68 L 1045.45 950.81 L 1047.76 949.81 L 1050.07 948.80 L 1052.37 947.85 L 1054.69 946.94 L 1057.01 946.00 L 1059.38 945.20 L 1061.73 944.39 L 1064.05 943.60 L 1066.38 942.84 L 1068.74 942.18 L 1071.06 941.40 L 1073.39 940.71 L 1075.68 939.94" stroke="rgb(140,255,190)" stroke-opacity="0.526" stroke-width="1.10" />
  <path d="M 1078.08 964.59 L 1080.64 964.42 L 1083.18 964.17 L 1085.71 963.91" stroke="rgb(140,255,190)" stroke-opacity="0.525" stroke-width="1.09" />
  <path d="M 1152.34 940.79 L 1155.01 940.98 L 1157.69 941.07 L 1160.37 941.11 L 1163.00 941.12 L 1165.61 941.06 L 1168.22 941.09 L 1170.82 941.13 L 1173.41 941.21 L 1175.95 941.23 L 1178.47 941.26 L 1181.00 941.32 L 1183.52 941.53 L 1186.04 941.74 L 1188.56 941.97 L 1191.06 942.19 L 1193.56 942.43 L 1196.05 942.67 L 1198.56 942.80 L 1201.06 942.91 L 1203.55 942.98 L 1206.02 942.94 L 1208.44 942.91 L 1210.83 942.79 L 1213.25 942.81" stroke="rgb(140,255,190)" stroke-opacity="0.524" stroke-width="1.09" />
  <path d="M 1013.92 1001.93 L 1013.12 1001.62 L 1012.30 1001.32 L 1011.47 1001.04 L 1010.67 1000.76 L 1009.90 1000.47 L 1009.04 1000.26 L 1008.27 999.96 L 1007.54 999.71 L 1006.83 999.37 L 1006.16 999.06 L 1005.55 998.86 L 1004.97 998.66 L 1004.43 998.47 L 1003.84 998.29 L 1003.25 998.13 L 1002.62 997.97 L 1001.92 997.82 L 1001.19 997.65 L 1000.44 997.52 L 999.70 997.40 L 999.06 997.23 L 998.40 997.06 L 997.77 996.81 L 997.17 996.54 L 996.55 996.28 L 995.85 996.01 L 995.13 995.79 L 994.40 995.58 L 993.74 995.37 L 993.07 995.16 L 992.35 994.90 L 991.61 994.64 L 990.84 994.36 L 990.09 994.11 L 989.34 993.84 L 988.70 993.55 L 988.04 993.17 L 987.30 992.67 L 986.58 992.15 L 985.78 991.67 L 984.84 991.32 L 983.91 990.87 L 983.07 990.42 L 982.35 989.94 L 981.59 989.42" stroke="rgb(140,255,190)" stroke-opacity="0.524" stroke-width="1.09" />
  <path d="M 998.11 1002.53 L 998.75 1002.44 L 999.54 1002.37 L 1000.38 1002.28 L 1001.21 1002.31 L 1002.04 1002.25 L 1002.85 1002.19 L 1003.69 1002.09 L 1004.53 1001.99 L 1005.36 1001.89 L 1006.09 1001.81 L 1006.82 1001.82 L 1007.55 1001.89 L 1008.29 1001.99 L 1009.01 1002.10 L 1009.72 1002.18 L 1010.52 1002.16 L 1011.35 1002.12 L 1012.26 1002.02 L 1013.09 1001.98 L 1013.92 1001.93 L 1014.76 1001.90 L 1015.59 1001.87 L 1016.42 1001.76 L 1017.24 1001.62 L 1018.04 1001.52 L 1018.86 1001.37" stroke="rgb(140,255,190)" stroke-opacity="0.523" stroke-width="1.09" />
  <path d="M 1001.20 1003.27 L 1003.16 1003.14 L 1005.13 1003.02 L 1007.14 1002.82 L 1009.18 1002.75 L 1011.21 1002.69 L 1013.24 1002.62 L 1015.28 1002.57 L 1017.31 1002.52 L 1019.35 1002.57 L 1021.38 1002.60 L 1023.38 1002.57 L 1025.33 1002.59 L 1027.27 1002.61 L 1029.20 1002.63 L 1031.12 1002.66 L 1032.93 1002.72 L 1034.74 1002.78 L 1036.55 1002.96 L 1038.36 1003.24 L 1040.15 1003.54 L 1041.91 1003.90 L 1043.67 1004.24 L 1045.42 1004.60 L 1047.19 1005.03 L 1048.96 1005.45 L 1050.70 1005.86 L 1052.44 1006.27 L 1054.12 1006.67 L 1055.80 1007.07 L 1057.53 1007.30 L 1059.24 1007.52 L 1060.96 1007.72 L 1062.62 1007.91 L 1064.29 1008.16 L 1065.90 1008.34" stroke="rgb(205,165,255)" stroke-opacity="0.457" stroke-width="1.06" />
  <path d="M 1001.07 998.54 L 1000.22 999.59 L 999.37 1000.66 L 998.52 1001.77 L 997.67 1002.95 L 996.83 1004.10 L 996.00 1005.30 L 995.14 1006.44 L 994.30 1007.56 L 993.50 1008.71 L 992.72 1009.94 L 991.83 1011.13 L 990.89 1012.33 L 989.93 1013.52 L 988.97 1014.71 L 988.00 1015.89 L 987.02 1017.04" stroke="rgb(205,165,255)" stroke-opacity="0.455" stroke-width="1.06" />
  <path d="M 1002.21 998.73 L 1000.57 1000.37 L 998.94 1001.98 L 997.31 1003.59 L 995.69 1005.20 L 994.12 1006.84 L 992.55 1008.47 L 991.02 1010.12 L 989.51 1011.77 L 988.02 1013.40 L 986.48 1014.99 L 984.94 1016.59 L 983.36 1018.17 L 981.78 1019.75 L 980.22 1021.33 L 978.65 1022.87 L 977.05 1024.36 L 975.43 1025.83 L 973.81 1027.27 L 972.19 1028.70 L 970.60 1030.16 L 969.02 1031.61 L 967.45 1033.05 L 965.88 1034.49 L 964.32 1035.93 L 962.75 1037.35 L 961.19 1038.76 L 959.60 1040.12 L 957.97 1041.40 L 956.35 1042.67 L 954.84 1044.09 L 953.38 1045.47 L 951.89 1046.82 L 950.41 1048.18 L 948.97 1049.53 L 947.55 1050.88 L 946.14 1052.22 L 944.66 1053.48 L 943.18 1054.72" stroke="rgb(205,165,255)" stroke-opacity="0.455" stroke-width="1.06" />
  <path d="M 998.91 1000.42 L 999.26 998.10 L 999.64 995.78 L 1000.03 993.47 L 1000.31 991.17 L 1000.64 988.87 L 1001.03 986.59 L 1001.46 984.33 L 1001.88 982.08 L 1002.30 979.83 L 1002.72 977.60 L 1003.09 975.36 L 1003.55 973.15 L 1004.01 970.95 L 1004.46 968.76 L 1004.85 966.56 L 1005.24 964.38 L 1005.64 962.20 L 1006.01 960.04 L 1006.38 957.87 L 1006.81 955.73 L 1007.29 953.60 L 1007.79 951.49 L 1008.29 949.39 L 1008.73 947.28 L 1009.15 945.18 L 1009.57 943.09 L 1010.01 941.00 L 1010.45 938.93 L 1010.92 936.87" stroke="rgb(205,165,255)" stroke-opacity="0.453" stroke-width="1.05" />
  <path d="M 1001.21 997.22 L 999.98 997.45 L 998.73 997.65 L 997.33 997.81 L 995.92 998.06 L 994.55 998.23 L 993.27 998.49 L 992.00 998.81 L 990.75 999.31 L 989.49 999.84" stroke="rgb(230,230,230)" stroke-opacity="0.387" stroke-width="0.72" />
  <path d="M 996.33 1003.63 L 995.51 1003.46 L 994.64 1003.23 L 993.91 1003.06 L 993.10 1002.93" stroke="rgb(230,230,230)" stroke-opacity="0.386" stroke-width="0.71" />
  <path d="M 1005.64 1006.48 L 1005.49 1005.72 L 1005.51 1005.05 L 1005.56 1004.28 L 1005.60 1003.51 L 1005.65 1002.75 L 1005.92 1002.04 L 1006.10 1001.13 L 1006.25 1000.27 L 1006.29 999.42 L 1006.34 998.58" stroke="rgb(230,230,230)" stroke-opacity="0.384" stroke-width="0.71" />
  <path d="M 998.04 1000.02 L 999.10 999.25 L 1000.18 998.54 L 1001.26 997.82 L 1002.36 997.02 L 1003.43 996.21 L 1004.47 995.40 L 1005.50 994.53" stroke="rgb(230,230,230)" stroke-opacity="0.383" stroke-width="0.70" />
  <path d="M 1000.15 996.18 L 1001.36 997.00 L 1002.58 997.79 L 1003.74 998.62 L 1004.70 999.40 L 1005.58 1000.22 L 1006.38 1001.11 L 1007.21 1002.00 L 1007.85 1002.82 L 1008.54 1003.64 L 1009.03 1004.47 L 1009.54 1005.18 L 1010.08 1006.02 L 1010.61 1006.95" stroke="rgb(230,230,230)" stroke-opacity="0.382" stroke-width="0.70" />
  <path d="M 994.18 996.78 L 995.49 997.49 L 996.79 998.21 L 998.09 998.94 L 999.28 999.82 L 1000.49 1000.66 L 1001.72 1001.48 L 1002.97 1002.24" stroke="rgb(230,230,230)" stroke-opacity="0.382" stroke-width="0.70" />
  <path d="M 1004.75 995.55 L 1003.43 994.95 L 1002.04 994.49 L 1000.63 994.08 L 999.26 993.58 L 997.89 993.07 L 996.52 992.54 L 995.33 991.71 L 994.10 990.92 L 992.86 990.16" stroke="rgb(230,230,230)" stroke-opacity="0.370" stroke-width="0.67" />
  <path d="M 1002.09 995.62 L 1002.68 995.96 L 1003.28 996.30 L 1003.82 996.64 L 1004.46 996.99 L 1005.13 997.33 L 1005.80 997.70 L 1006.56 998.00" stroke="rgb(230,230,230)" stroke-opacity="0.368" stroke-width="0.66" />
  <path d="M 996.54 1000.93 L 997.31 1000.05 L 998.11 999.05 L 998.86 997.96 L 999.44 996.86 L 1000.02 995.76 L 1000.58 994.66 L 1001.21 993.56 L 1001.79 992.48 L 1002.33 991.39 L 1002.99 990.38" stroke="rgb(230,230,230)" stroke-opacity="0.367" stroke-width="0.66" />
  <path d="M 1003.52 1006.33 L 1003.57 1007.13 L 1003.76 1007.88 L 1003.89 1008.57 L 1003.96 1009.22 L 1004.02 1009.92 L 1004.10 1010.60" stroke="rgb(230,230,230)" stroke-opacity="0.366" stroke-width="0.66" />
  <path d="M 1001.07 999.18 L 999.59 999.03 L 998.12 998.87" stroke="rgb(230,230,230)" stroke-opacity="0.365" stroke-width="0.65" />
  <path d="M 997.28 999.84 L 996.82 999.75 L 996.34 999.61 L 995.97 999.39 L 995.63 999.21 L 995.26 998.90 L 994.90 998.42 L 994.60 997.90 L 994.27 997.47 L 993.95 997.03 L 993.64 996.75 L 993.38 996.44 L 993.06 996.19" stroke="rgb(230,230,230)" stroke-opacity="0.364" stroke-width="0.65" />
  <path d="M 1002.68 1000.93 L 1001.56 999.96 L 1000.51 998.90 L 999.43 997.88 L 998.27 996.96 L 997.12 996.04 L 996.09 995.00 L 994.98 994.05 L 993.88 993.10" stroke="rgb(230,230,230)" stroke-opacity="0.362" stroke-width="0.64" />
  <path d="M 1004.32 999.91 L 1005.58 1000.26 L 1006.92 1000.57 L 1008.29 1000.79 L 1009.67 1000.97 L 1011.03 1001.21" stroke="rgb(230,230,230)" stroke-opacity="0.352" stroke-width="0.62" />
  <path d="M 994.85 997.36 L 995.26 996.78 L 995.70 996.24 L 996.05 995.80 L 996.44 995.34 L 996.88 994.88 L 997.23 994.45 L 997.47 993.96" stroke="rgb(230,230,230)" stroke-opacity="0.351" stroke-width="0.61" />
  <path d="M 1000.56 1003.77 L 999.36 1003.37 L 998.25 1002.80 L 997.11 1002.13 L 996.04 1001.41 L 994.99 1000.67 L 994.01 999.90" stroke="rgb(230,230,230)" stroke-opacity="0.351" stroke-width="0.61" />
  <path d="M 999.73 998.78 L 1000.41 999.91 L 1001.12 1001.02 L 1001.80 1002.14 L 1002.41 1003.26 L 1002.95 1004.38 L 1003.48 1005.51 L 1004.01 1006.63 L 1004.52 1007.67 L 1005.16 1008.49 L 1005.76 1009.32 L 1006.25 1010.29 L 1006.77 1011.30 L 1007.21 1012.32 L 1007.88 1013.19 L 1008.60 1013.99" stroke="rgb(230,230,230)" stroke-opacity="0.351" stroke-width="0.61" />
  <path d="M 999.72 1006.31 L 998.93 1007.56 L 998.22 1008.87 L 997.51 1010.17 L 996.69 1011.34 L 995.82 1012.43 L 994.98 1013.55" stroke="rgb(230,230,230)" stroke-opacity="0.350" stroke-width="0.61" />
</g>
</svg>
