{
  "asset": {
    "version": "2.0",
    "generator": "TES-23 Cosmic Ray Renderer"
  },
  "extensionsUsed": [
    "KHR_materials_unlit"
  ],
  "extensionsRequired": [
    "KHR_materials_unlit"
  ],
  "scene": 0,
  "scenes": [
    {
      "nodes": [
        0
      ]
    }
  ],
  "nodes": [
    {
      "name": "CosmicRayEvent",
      "mesh": 0
    }
  ],
  "meshes": [
    {
      "name": "CosmicRayEvent",
      "primitives": [
        {
          "attributes": {
            "POSITION": 0
          },
          "material": 0,
          "mode": 1
        },
        {
          "attributes": {
            "POSITION": 1
          },
          "material": 1,
          "mode": 1
        },
        {
          "attributes": {
            "POSITION": 2
          },
          "material": 2,
          "mode": 1
        },
        {
          "attributes": {
            "POSITION": 3
          },
          "material": 3,
          "mode": 1
        },
        {
          "attributes": {
            "POSITION": 4
          },
          "material": 4,
          "mode": 1
        },
        {
          "attributes": {
            "POSITION": 5
          },
          "material": 5,
          "mode": 1
        }
      ]
    }
  ],
  "materials": [
    {
      "name": "primary",
      "extensions": {
        "KHR_materials_unlit": {}
      },
      "pbrMetallicRoughness": {
        "baseColorFactor": [
          0.961,
          0.961,
          0.961,
          1
        ],
        "metallicFactor": 0,
        "roughnessFactor": 1
      }
    },
    {
      "name": "vertex",
      "extensions": {
        "KHR_materials_unlit": {}
      },
      "pbrMetallicRoughness": {
        "baseColorFactor": [
          0.902,
          0.902,
          0.902,
          0.9
        ],
        "metallicFactor": 0,
        "roughnessFactor": 1
      }
    },
    {
      "name": "em",
      "extensions": {
        "KHR_materials_unlit": {}
      },
      "pbrMetallicRoughness": {
        "baseColorFactor": [
          0.471,
          0.824,
          1,
          1
        ],
        "metallicFactor": 0,
        "roughnessFactor": 1
      }
    },
    {
      "name": "hadron",
      "extensions": {
        "KHR_materials_unlit": {}
      },
      "pbrMetallicRoughness": {
        "baseColorFactor": [
          0.549,
          1,
          0.745,
          1
        ],
        "metallicFactor": 0,
        "roughnessFactor": 1
      }
    },
    {
      "name": "delta",
      "extensions": {
        "KHR_materials_unlit": {}
      },
      "pbrMetallicRoughness": {
        "baseColorFactor": [
          0.804,
          0.647,
          1,
          1
        ],
        "metallicFactor": 0,
        "roughnessFactor": 1
      }
    },
    {
      "name": "backscatter",
      "extensions": {
        "KHR_materials_unlit": {}
      },
      "pbrMetallicRoughness": {
        "baseColorFactor": [
          1,
          0.824,
          0.529,
          0.95
        ],
        "metallicFactor": 0,
        "roughnessFactor": 1
      }
    }
  ],
  "accessors": [
    {
      "bufferView": 0,
      "byteOffset": 0,
      "componentType": 5126,
      "count": 1864,
      "type": "VEC3",
      "min": [
        -0.9998868107795715,
        -0.9407603740692139,
        0
      ],
      "max": [
        1.020748496055603,
        0.9889453649520874,
        0
      ]
    },
    {
      "bufferView": 1,
      "byteOffset": 0,
      "componentType": 5126,
      "count": 348,
      "type": "VEC3",
      "min": [
        -0.02232632040977478,
        -0.011721962131559849,
        -0.07905261963605881
      ],
      "max": [
        0.012488043867051601,
        0.02048889547586441,
        0.07829499989748001
      ]
    },
    {
      "bufferView": 2,
      "byteOffset": 0,
      "componentType": 5126,
      "count": 1196,
      "type": "VEC3",
      "min": [
        -0.0053825220093131065,
        -0.004650576505810022,
        -0.13829655945301056
      ],
      "max": [
        0.24430203437805176,
        0.2118334174156189,
        0.08796094357967377
      ]
    },
    {
      "bufferView": 3,
      "byteOffset": 0,
      "componentType": 5126,
      "count": 3460,
      "type": "VEC3",
      "min": [
        -0.004461163654923439,
        -0.030238786712288857,
        -0.39799460768699646
      ],
      "max": [
        0.3884594738483429,
        0.21804775297641754,
        0.22074748575687408
      ]
    },
    {
      "bufferView": 4,
      "byteOffset": 0,
      "componentType": 5126,
      "count": 638,
      "type": "VEC3",
      "min": [
        -0.13142336905002594,
        -0.005646563600748777,
        -0.7316827178001404
      ],
      "max": [
        0.050473496317863464,
        0.1267225593328476,
        0.12065455317497253
      ]
    },
    {
      "bufferView": 5,
      "byteOffset": 0,
      "componentType": 5126,
      "count": 1158,
      "type": "VEC3",
      "min": [
        -0.25258421897888184,
        -0.21235711872577667,
        -0.6217830181121826
      ],
      "max": [
        0.07599290460348129,
        0.2745782732963562,
        0.5789561867713928
      ]
    }
  ],
  "bufferViews": [
    {
      "buffer": 0,
      "byteOffset": 0,
      "byteLength": 22368,
      "target": 34962
    },
    {
      "buffer": 0,
      "byteOffset": 22368,
      "byteLength": 4176,
      "target": 34962
    },
    {
      "buffer": 0,
      "byteOffset": 26544,
      "byteLength": 14352,
      "target": 34962
    },
    {
      "buffer": 0,
      "byteOffset": 40896,
      "byteLength": 41520,
      "target": 34962
    },
    {
      "buffer": 0,
      "byteOffset": 82416,
      "byteLength": 7656,
      "target": 34962
    },
    {
      "buffer": 0,
      "byteOffset": 90072,
      "byteLength": 13896,
      "target": 34962
    }
  ],
  "buffers": [
    {
      "byteLength": 103968,
      "uri": "data:application/octet-stream;base64,"
    }
  ]
}