{
  "asset": {
    "version": "2.0",
    "generator": "TES-23 Cosmic Ray Renderer"
  },
  "extensionsUsed": [
    "KHR_materials_unlit"
  ],
  "extensionsRequired": [
    "KHR_materials_unlit"
  ],
  "scene": 0,
  "scenes": [
    {
      "nodes": [
        0
      ]
    }
  ],
  "nodes": [
    {
      "name": "CosmicRayEvent",
      "mesh": 0
    }
  ],
  "meshes": [
    {
      "name": "CosmicRayEvent",
      "primitives": [
        {
          "attributes": {
            "POSITION": 0
          },
          "material": 0,
          "mode": 1
        },
        {
          "attributes": {
            "POSITION": 1
          },
          "material": 1,
          "mode": 1
        },
        {
          "attributes": {
            "POSITION": 2
          },
          "material": 2,
          "mode": 1
        }
      ]
    }
  ],
  "materials": [
    {
      "name": "primary",
      "extensions": {
        "KHR_materials_unlit": {}
      },
      "pbrMetallicRoughness": {
        "baseColorFactor": [
          0.961,
          0.961,
          0.961,
          1
        ],
        "metallicFactor": 0,
        "roughnessFactor": 1
      }
    },
    {
      "name": "vertex",
      "extensions": {
        "KHR_materials_unlit": {}
      },
      "pbrMetallicRoughness": {
        "baseColorFactor": [
          0.902,
          0.902,
          0.902,
          0.9
        ],
        "metallicFactor": 0,
        "roughnessFactor": 1
      }
    },
    {
      "name": "em",
      "extensions": {
        "KHR_materials_unlit": {}
      },
      "pbrMetallicRoughness": {
        "baseColorFactor": [
          0.471,
          0.824,
          1,
          1
        ],
        "metallicFactor": 0,
        "roughnessFactor": 1
      }
    }
  ],
  "accessors": [
    {
      "bufferView": 0,
      "byteOffset": 0,
      "componentType": 5126,
      "count": 1460,
      "type": "VEC3",
      "min": [
        -0.9999682307243347,
        -0.4242684543132782,
        0
      ],
      "max": [
        1.0211700201034546,
        0.3677647113800049,
        0
      ]
    },
    {
      "bufferView": 1,
      "byteOffset": 0,
      "componentType": 5126,
      "count": 298,
      "type": "VEC3",
      "min": [
        -0.013427162542939186,
        -0.00947422906756401,
        -0.04804947227239609
      ],
      "max": [
        0.00904304999858141,
        0.03080998733639717,
        0.0647527202963829
      ]
    },
    {
      "bufferView": 2,
      "byteOffset": 0,
      "componentType": 5126,
      "count": 1576,
      "type": "VEC3",
      "min": [
        -0.05326421931385994,
        -0.0016309779603034258,
        -0.0871284231543541
      ],
      "max": [
        0.3096109926700592,
        0.15086646378040314,
        0.2787942886352539
      ]
    }
  ],
  "bufferViews": [
    {
      "buffer": 0,
      "byteOffset": 0,
      "byteLength": 17520,
      "target": 34962
    },
    {
      "buffer": 0,
      "byteOffset": 17520,
      "byteLength": 3576,
      "target": 34962
    },
    {
      "buffer": 0,
      "byteOffset": 21096,
      "byteLength": 18912,
      "target": 34962
    }
  ],
  "buffers": [
    {
      "byteLength": 40008,
      "uri": "data:application/octet-stream;base64,"
    }
  ]
}