{
  "asset": {
    "version": "2.0",
    "generator": "TES-23 Cosmic Ray Renderer"
  },
  "extensionsUsed": [
    "KHR_materials_unlit"
  ],
  "extensionsRequired": [
    "KHR_materials_unlit"
  ],
  "scene": 0,
  "scenes": [
    {
      "nodes": [
        0
      ]
    }
  ],
  "nodes": [
    {
      "name": "CosmicRayEvent",
      "mesh": 0
    }
  ],
  "meshes": [
    {
      "name": "CosmicRayEvent",
      "primitives": [
        {
          "attributes": {
            "POSITION": 0
          },
          "material": 0,
          "mode": 1
        },
        {
          "attributes": {
            "POSITION": 1
          },
          "material": 1,
          "mode": 1
        },
        {
          "attributes": {
            "POSITION": 2
          },
          "material": 2,
          "mode": 1
        },
        {
          "attributes": {
            "POSITION": 3
          },
          "material": 3,
          "mode": 1
        },
        {
          "attributes": {
            "POSITION": 4
          },
          "material": 4,
          "mode": 1
        }
      ]
    }
  ],
  "materials": [
    {
      "name": "primary",
      "extensions": {
        "KHR_materials_unlit": {}
      },
      "pbrMetallicRoughness": {
        "baseColorFactor": [
          0.961,
          0.961,
          0.961,
          1
        ],
        "metallicFactor": 0,
        "roughnessFactor": 1
      }
    },
    {
      "name": "vertex",
      "extensions": {
        "KHR_materials_unlit": {}
      },
      "pbrMetallicRoughness": {
        "baseColorFactor": [
          0.902,
          0.902,
          0.902,
          0.9
        ],
        "metallicFactor": 0,
        "roughnessFactor": 1
      }
    },
    {
      "name": "em",
      "extensions": {
        "KHR_materials_unlit": {}
      },
      "pbrMetallicRoughness": {
        "baseColorFactor": [
          0.471,
          0.824,
          1,
          1
        ],
        "metallicFactor": 0,
        "roughnessFactor": 1
      }
    },
    {
      "name": "hadron",
      "extensions": {
        "KHR_materials_unlit": {}
      },
      "pbrMetallicRoughness": {
        "baseColorFactor": [
          0.549,
          1,
          0.745,
          1
        ],
        "metallicFactor": 0,
        "roughnessFactor": 1
      }
    },
    {
      "name": "delta",
      "extensions": {
        "KHR_materials_unlit": {}
      },
      "pbrMetallicRoughness": {
        "baseColorFactor": [
          0.804,
          0.647,
          1,
          1
        ],
        "metallicFactor": 0,
        "roughnessFactor": 1
      }
    }
  ],
  "accessors": [
    {
      "bufferView": 0,
      "byteOffset": 0,
      "componentType": 5126,
      "count": 1728,
      "type": "VEC3",
      "min": [
        -1.0220141410827637,
        -0.7964263558387756,
        0
      ],
      "max": [
        1.0002906322479248,
        0.8194706439971924,
        0
      ]
    },
    {
      "bufferView": 1,
      "byteOffset": 0,
      "componentType": 5126,
      "count": 274,
      "type": "VEC3",
      "min": [
        -0.008947046473622322,
        -0.014199070632457733,
        -0.05023151636123657
      ],
      "max": [
        0.0165946613997221,
        0.011976933106780052,
        0.06936484575271606
      ]
    },
    {
      "bufferView": 2,
      "byteOffset": 0,
      "componentType": 5126,
      "count": 1620,
      "type": "VEC3",
      "min": [
        -0.25875240564346313,
        -0.005158808082342148,
        -0.17402318120002747
      ],
      "max": [
        0.003082139417529106,
        0.19228599965572357,
        0.13764448463916779
      ]
    },
    {
      "bufferView": 3,
      "byteOffset": 0,
      "componentType": 5126,
      "count": 2542,
      "type": "VEC3",
      "min": [
        -0.26284468173980713,
        -0.0019323618616908789,
        -0.6434208750724792
      ],
      "max": [
        0.0036588795483112335,
        0.307582288980484,
        0.41241180896759033
      ]
    },
    {
      "bufferView": 4,
      "byteOffset": 0,
      "componentType": 5126,
      "count": 428,
      "type": "VEC3",
      "min": [
        -0.1485532522201538,
        -0.052157994359731674,
        -0.13902702927589417
      ],
      "max": [
        0.10046263039112091,
        0.06153659522533417,
        0.14681467413902283
      ]
    }
  ],
  "bufferViews": [
    {
      "buffer": 0,
      "byteOffset": 0,
      "byteLength": 20736,
      "target": 34962
    },
    {
      "buffer": 0,
      "byteOffset": 20736,
      "byteLength": 3288,
      "target": 34962
    },
    {
      "buffer": 0,
      "byteOffset": 24024,
      "byteLength": 19440,
      "target": 34962
    },
    {
      "buffer": 0,
      "byteOffset": 43464,
      "byteLength": 30504,
      "target": 34962
    },
    {
      "buffer": 0,
      "byteOffset": 73968,
      "byteLength": 5136,
      "target": 34962
    }
  ],
  "buffers": [
    {
      "byteLength": 79104,
      "uri": "data:application/octet-stream;base64,"
    }
  ]
}