{
  "asset": {
    "version": "2.0",
    "generator": "TES-23 Cosmic Ray Renderer"
  },
  "extensionsUsed": [
    "KHR_materials_unlit"
  ],
  "extensionsRequired": [
    "KHR_materials_unlit"
  ],
  "scene": 0,
  "scenes": [
    {
      "nodes": [
        0
      ]
    }
  ],
  "nodes": [
    {
      "name": "CosmicRayEvent",
      "mesh": 0
    }
  ],
  "meshes": [
    {
      "name": "CosmicRayEvent",
      "primitives": [
        {
          "attributes": {
            "POSITION": 0
          },
          "material": 0,
          "mode": 1
        },
        {
          "attributes": {
            "POSITION": 1
          },
          "material": 1,
          "mode": 1
        },
        {
          "attributes": {
            "POSITION": 2
          },
          "material": 2,
          "mode": 1
        },
        {
          "attributes": {
            "POSITION": 3
          },
          "material": 3,
          "mode": 1
        },
        {
          "attributes": {
            "POSITION": 4
          },
          "material": 4,
          "mode": 1
        }
      ]
    }
  ],
  "materials": [
    {
      "name": "primary",
      "extensions": {
        "KHR_materials_unlit": {}
      },
      "pbrMetallicRoughness": {
        "baseColorFactor": [
          0.961,
          0.961,
          0.961,
          1
        ],
        "metallicFactor": 0,
        "roughnessFactor": 1
      }
    },
    {
      "name": "vertex",
      "extensions": {
        "KHR_materials_unlit": {}
      },
      "pbrMetallicRoughness": {
        "baseColorFactor": [
          0.902,
          0.902,
          0.902,
          0.9
        ],
        "metallicFactor": 0,
        "roughnessFactor": 1
      }
    },
    {
      "name": "em",
      "extensions": {
        "KHR_materials_unlit": {}
      },
      "pbrMetallicRoughness": {
        "baseColorFactor": [
          0.471,
          0.824,
          1,
          1
        ],
        "metallicFactor": 0,
        "roughnessFactor": 1
      }
    },
    {
      "name": "hadron",
      "extensions": {
        "KHR_materials_unlit": {}
      },
      "pbrMetallicRoughness": {
        "baseColorFactor": [
          0.549,
          1,
          0.745,
          1
        ],
        "metallicFactor": 0,
        "roughnessFactor": 1
      }
    },
    {
      "name": "delta",
      "extensions": {
        "KHR_materials_unlit": {}
      },
      "pbrMetallicRoughness": {
        "baseColorFactor": [
          0.804,
          0.647,
          1,
          1
        ],
        "metallicFactor": 0,
        "roughnessFactor": 1
      }
    }
  ],
  "accessors": [
    {
      "bufferView": 0,
      "byteOffset": 0,
      "componentType": 5126,
      "count": 1708,
      "type": "VEC3",
      "min": [
        -1.0000187158584595,
        -0.7904667854309082,
        0
      ],
      "max": [
        1.0206516981124878,
        0.7828686833381653,
        0
      ]
    },
    {
      "bufferView": 1,
      "byteOffset": 0,
      "componentType": 5126,
      "count": 284,
      "type": "VEC3",
      "min": [
        -0.020378410816192627,
        -0.011654158122837543,
        -0.036860328167676926
      ],
      "max": [
        0.011279677040874958,
        0.020084340125322342,
        0.04479571431875229
      ]
    },
    {
      "bufferView": 2,
      "byteOffset": 0,
      "componentType": 5126,
      "count": 1534,
      "type": "VEC3",
      "min": [
        -0.0021201297640800476,
        -0.001222116407006979,
        -0.17790232598781586
      ],
      "max": [
        0.27006882429122925,
        0.2528575658798218,
        0.25929972529411316
      ]
    },
    {
      "bufferView": 3,
      "byteOffset": 0,
      "componentType": 5126,
      "count": 2404,
      "type": "VEC3",
      "min": [
        -0.049713172018527985,
        -0.05000778287649155,
        -0.25618991255760193
      ],
      "max": [
        0.3021746575832367,
        0.1775129735469818,
        0.4386901259422302
      ]
    },
    {
      "bufferView": 4,
      "byteOffset": 0,
      "componentType": 5126,
      "count": 690,
      "type": "VEC3",
      "min": [
        -0.0020968143362551928,
        -0.0034693097695708275,
        -0.047656428068876266
      ],
      "max": [
        0.1400233507156372,
        0.16170759499073029,
        0.3798143267631531
      ]
    }
  ],
  "bufferViews": [
    {
      "buffer": 0,
      "byteOffset": 0,
      "byteLength": 20496,
      "target": 34962
    },
    {
      "buffer": 0,
      "byteOffset": 20496,
      "byteLength": 3408,
      "target": 34962
    },
    {
      "buffer": 0,
      "byteOffset": 23904,
      "byteLength": 18408,
      "target": 34962
    },
    {
      "buffer": 0,
      "byteOffset": 42312,
      "byteLength": 28848,
      "target": 34962
    },
    {
      "buffer": 0,
      "byteOffset": 71160,
      "byteLength": 8280,
      "target": 34962
    }
  ],
  "buffers": [
    {
      "byteLength": 79440,
      "uri": "data:application/octet-stream;base64,"
    }
  ]
}