{
  "asset": {
    "version": "2.0",
    "generator": "TES-23 Cosmic Ray Renderer"
  },
  "extensionsUsed": [
    "KHR_materials_unlit"
  ],
  "extensionsRequired": [
    "KHR_materials_unlit"
  ],
  "scene": 0,
  "scenes": [
    {
      "nodes": [
        0
      ]
    }
  ],
  "nodes": [
    {
      "name": "CosmicRayEvent",
      "mesh": 0
    }
  ],
  "meshes": [
    {
      "name": "CosmicRayEvent",
      "primitives": [
        {
          "attributes": {
            "POSITION": 0
          },
          "material": 0,
          "mode": 1
        },
        {
          "attributes": {
            "POSITION": 1
          },
          "material": 1,
          "mode": 1
        },
        {
          "attributes": {
            "POSITION": 2
          },
          "material": 2,
          "mode": 1
        },
        {
          "attributes": {
            "POSITION": 3
          },
          "material": 3,
          "mode": 1
        },
        {
          "attributes": {
            "POSITION": 4
          },
          "material": 4,
          "mode": 1
        }
      ]
    }
  ],
  "materials": [
    {
      "name": "primary",
      "extensions": {
        "KHR_materials_unlit": {}
      },
      "pbrMetallicRoughness": {
        "baseColorFactor": [
          0.961,
          0.961,
          0.961,
          1
        ],
        "metallicFactor": 0,
        "roughnessFactor": 1
      }
    },
    {
      "name": "vertex",
      "extensions": {
        "KHR_materials_unlit": {}
      },
      "pbrMetallicRoughness": {
        "baseColorFactor": [
          0.902,
          0.902,
          0.902,
          0.9
        ],
        "metallicFactor": 0,
        "roughnessFactor": 1
      }
    },
    {
      "name": "em",
      "extensions": {
        "KHR_materials_unlit": {}
      },
      "pbrMetallicRoughness": {
        "baseColorFactor": [
          0.471,
          0.824,
          1,
          1
        ],
        "metallicFactor": 0,
        "roughnessFactor": 1
      }
    },
    {
      "name": "hadron",
      "extensions": {
        "KHR_materials_unlit": {}
      },
      "pbrMetallicRoughness": {
        "baseColorFactor": [
          0.549,
          1,
          0.745,
          1
        ],
        "metallicFactor": 0,
        "roughnessFactor": 1
      }
    },
    {
      "name": "delta",
      "extensions": {
        "KHR_materials_unlit": {}
      },
      "pbrMetallicRoughness": {
        "baseColorFactor": [
          0.804,
          0.647,
          1,
          1
        ],
        "metallicFactor": 0,
        "roughnessFactor": 1
      }
    }
  ],
  "accessors": [
    {
      "bufferView": 0,
      "byteOffset": 0,
      "componentType": 5126,
      "count": 1704,
      "type": "VEC3",
      "min": [
        -0.7878078818321228,
        -0.9998730421066284,
        0
      ],
      "max": [
        0.7753164768218994,
        1.0213922262191772,
        0
      ]
    },
    {
      "bufferView": 1,
      "byteOffset": 0,
      "componentType": 5126,
      "count": 270,
      "type": "VEC3",
      "min": [
        -0.012432491406798363,
        -0.007896699011325836,
        -0.14086194336414337
      ],
      "max": [
        0.01541287824511528,
        0.007756080012768507,
        0.07403092831373215
      ]
    },
    {
      "bufferView": 2,
      "byteOffset": 0,
      "componentType": 5126,
      "count": 1684,
      "type": "VEC3",
      "min": [
        -0.18315519392490387,
        -0.0018775520147755742,
        -0.11085101962089539
      ],
      "max": [
        0.0014447853900492191,
        0.2651638686656952,
        0.2089146226644516
      ]
    },
    {
      "bufferView": 3,
      "byteOffset": 0,
      "componentType": 5126,
      "count": 5052,
      "type": "VEC3",
      "min": [
        -0.2502799332141876,
        -0.13501371443271637,
        -0.251544713973999
      ],
      "max": [
        0.06760938465595245,
        0.3307390511035919,
        0.4217311441898346
      ]
    },
    {
      "bufferView": 4,
      "byteOffset": 0,
      "componentType": 5126,
      "count": 946,
      "type": "VEC3",
      "min": [
        -0.09386160969734192,
        -0.030896279960870743,
        -0.49260470271110535
      ],
      "max": [
        0.13160264492034912,
        0.19385124742984772,
        0.32728996872901917
      ]
    }
  ],
  "bufferViews": [
    {
      "buffer": 0,
      "byteOffset": 0,
      "byteLength": 20448,
      "target": 34962
    },
    {
      "buffer": 0,
      "byteOffset": 20448,
      "byteLength": 3240,
      "target": 34962
    },
    {
      "buffer": 0,
      "byteOffset": 23688,
      "byteLength": 20208,
      "target": 34962
    },
    {
      "buffer": 0,
      "byteOffset": 43896,
      "byteLength": 60624,
      "target": 34962
    },
    {
      "buffer": 0,
      "byteOffset": 104520,
      "byteLength": 11352,
      "target": 34962
    }
  ],
  "buffers": [
    {
      "byteLength": 115872,
      "uri": "data:application/octet-stream;base64,"
    }
  ]
}