{
  "asset": {
    "version": "2.0",
    "generator": "TES-23 Cosmic Ray Renderer"
  },
  "extensionsUsed": [
    "KHR_materials_unlit"
  ],
  "extensionsRequired": [
    "KHR_materials_unlit"
  ],
  "scene": 0,
  "scenes": [
    {
      "nodes": [
        0
      ]
    }
  ],
  "nodes": [
    {
      "name": "CosmicRayEvent",
      "mesh": 0
    }
  ],
  "meshes": [
    {
      "name": "CosmicRayEvent",
      "primitives": [
        {
          "attributes": {
            "POSITION": 0
          },
          "material": 0,
          "mode": 1
        },
        {
          "attributes": {
            "POSITION": 1
          },
          "material": 1,
          "mode": 1
        },
        {
          "attributes": {
            "POSITION": 2
          },
          "material": 2,
          "mode": 1
        },
        {
          "attributes": {
            "POSITION": 3
          },
          "material": 3,
          "mode": 1
        },
        {
          "attributes": {
            "POSITION": 4
          },
          "material": 4,
          "mode": 1
        }
      ]
    }
  ],
  "materials": [
    {
      "name": "primary",
      "extensions": {
        "KHR_materials_unlit": {}
      },
      "pbrMetallicRoughness": {
        "baseColorFactor": [
          0.961,
          0.961,
          0.961,
          1
        ],
        "metallicFactor": 0,
        "roughnessFactor": 1
      }
    },
    {
      "name": "vertex",
      "extensions": {
        "KHR_materials_unlit": {}
      },
      "pbrMetallicRoughness": {
        "baseColorFactor": [
          0.902,
          0.902,
          0.902,
          0.9
        ],
        "metallicFactor": 0,
        "roughnessFactor": 1
      }
    },
    {
      "name": "em",
      "extensions": {
        "KHR_materials_unlit": {}
      },
      "pbrMetallicRoughness": {
        "baseColorFactor": [
          0.471,
          0.824,
          1,
          1
        ],
        "metallicFactor": 0,
        "roughnessFactor": 1
      }
    },
    {
      "name": "hadron",
      "extensions": {
        "KHR_materials_unlit": {}
      },
      "pbrMetallicRoughness": {
        "baseColorFactor": [
          0.549,
          1,
          0.745,
          1
        ],
        "metallicFactor": 0,
        "roughnessFactor": 1
      }
    },
    {
      "name": "delta",
      "extensions": {
        "KHR_materials_unlit": {}
      },
      "pbrMetallicRoughness": {
        "baseColorFactor": [
          0.804,
          0.647,
          1,
          1
        ],
        "metallicFactor": 0,
        "roughnessFactor": 1
      }
    }
  ],
  "accessors": [
    {
      "bufferView": 0,
      "byteOffset": 0,
      "componentType": 5126,
      "count": 1436,
      "type": "VEC3",
      "min": [
        -1.0225244760513306,
        -0.36028456687927246,
        0
      ],
      "max": [
        0.9997477531433105,
        0.374325156211853,
        0
      ]
    },
    {
      "bufferView": 1,
      "byteOffset": 0,
      "componentType": 5126,
      "count": 358,
      "type": "VEC3",
      "min": [
        -0.020592976361513138,
        -0.013726845383644104,
        -0.07076705247163773
      ],
      "max": [
        0.016986731439828873,
        0.015287951566278934,
        0.0624210387468338
      ]
    },
    {
      "bufferView": 2,
      "byteOffset": 0,
      "componentType": 5126,
      "count": 1250,
      "type": "VEC3",
      "min": [
        -0.21597802639007568,
        -0.004304226953536272,
        -0.09093962609767914
      ],
      "max": [
        0.0038089544977992773,
        0.08263826370239258,
        0.13797666132450104
      ]
    },
    {
      "bufferView": 3,
      "byteOffset": 0,
      "componentType": 5126,
      "count": 5142,
      "type": "VEC3",
      "min": [
        -0.36396321654319763,
        -0.00997051503509283,
        -0.4819348454475403
      ],
      "max": [
        0.003115186933428049,
        0.27121174335479736,
        0.7244710922241211
      ]
    },
    {
      "bufferView": 4,
      "byteOffset": 0,
      "componentType": 5126,
      "count": 658,
      "type": "VEC3",
      "min": [
        -0.17433707416057587,
        -0.06866921484470367,
        -0.45285916328430176
      ],
      "max": [
        0.07989439368247986,
        0.06311187148094177,
        0.6800898909568787
      ]
    }
  ],
  "bufferViews": [
    {
      "buffer": 0,
      "byteOffset": 0,
      "byteLength": 17232,
      "target": 34962
    },
    {
      "buffer": 0,
      "byteOffset": 17232,
      "byteLength": 4296,
      "target": 34962
    },
    {
      "buffer": 0,
      "byteOffset": 21528,
      "byteLength": 15000,
      "target": 34962
    },
    {
      "buffer": 0,
      "byteOffset": 36528,
      "byteLength": 61704,
      "target": 34962
    },
    {
      "buffer": 0,
      "byteOffset": 98232,
      "byteLength": 7896,
      "target": 34962
    }
  ],
  "buffers": [
    {
      "byteLength": 106128,
      "uri": "data:application/octet-stream;base64,"
    }
  ]
}