{
  "asset": {
    "version": "2.0",
    "generator": "TES-23 Cosmic Ray Renderer"
  },
  "extensionsUsed": [
    "KHR_materials_unlit"
  ],
  "extensionsRequired": [
    "KHR_materials_unlit"
  ],
  "scene": 0,
  "scenes": [
    {
      "nodes": [
        0
      ]
    }
  ],
  "nodes": [
    {
      "name": "CosmicRayEvent",
      "mesh": 0
    }
  ],
  "meshes": [
    {
      "name": "CosmicRayEvent",
      "primitives": [
        {
          "attributes": {
            "POSITION": 0
          },
          "material": 0,
          "mode": 1
        },
        {
          "attributes": {
            "POSITION": 1
          },
          "material": 1,
          "mode": 1
        },
        {
          "attributes": {
            "POSITION": 2
          },
          "material": 2,
          "mode": 1
        },
        {
          "attributes": {
            "POSITION": 3
          },
          "material": 3,
          "mode": 1
        },
        {
          "attributes": {
            "POSITION": 4
          },
          "material": 4,
          "mode": 1
        }
      ]
    }
  ],
  "materials": [
    {
      "name": "primary",
      "extensions": {
        "KHR_materials_unlit": {}
      },
      "pbrMetallicRoughness": {
        "baseColorFactor": [
          0.961,
          0.961,
          0.961,
          1
        ],
        "metallicFactor": 0,
        "roughnessFactor": 1
      }
    },
    {
      "name": "vertex",
      "extensions": {
        "KHR_materials_unlit": {}
      },
      "pbrMetallicRoughness": {
        "baseColorFactor": [
          0.902,
          0.902,
          0.902,
          0.9
        ],
        "metallicFactor": 0,
        "roughnessFactor": 1
      }
    },
    {
      "name": "em",
      "extensions": {
        "KHR_materials_unlit": {}
      },
      "pbrMetallicRoughness": {
        "baseColorFactor": [
          0.471,
          0.824,
          1,
          1
        ],
        "metallicFactor": 0,
        "roughnessFactor": 1
      }
    },
    {
      "name": "hadron",
      "extensions": {
        "KHR_materials_unlit": {}
      },
      "pbrMetallicRoughness": {
        "baseColorFactor": [
          0.549,
          1,
          0.745,
          1
        ],
        "metallicFactor": 0,
        "roughnessFactor": 1
      }
    },
    {
      "name": "delta",
      "extensions": {
        "KHR_materials_unlit": {}
      },
      "pbrMetallicRoughness": {
        "baseColorFactor": [
          0.804,
          0.647,
          1,
          1
        ],
        "metallicFactor": 0,
        "roughnessFactor": 1
      }
    }
  ],
  "accessors": [
    {
      "bufferView": 0,
      "byteOffset": 0,
      "componentType": 5126,
      "count": 1436,
      "type": "VEC3",
      "min": [
        -1.0204296112060547,
        -0.3557320833206177,
        0
      ],
      "max": [
        0.9996724128723145,
        0.3885394036769867,
        0
      ]
    },
    {
      "bufferView": 1,
      "byteOffset": 0,
      "componentType": 5126,
      "count": 258,
      "type": "VEC3",
      "min": [
        -0.013947909697890282,
        -0.014177481643855572,
        -0.10025594383478165
      ],
      "max": [
        0.01132189016789198,
        0.009366797283291817,
        0.06780748814344406
      ]
    },
    {
      "bufferView": 2,
      "byteOffset": 0,
      "componentType": 5126,
      "count": 910,
      "type": "VEC3",
      "min": [
        -0.17995822429656982,
        -0.0037758098915219307,
        -0.08793821185827255
      ],
      "max": [
        0.0029076584614813328,
        0.09262906014919281,
        0.1558363437652588
      ]
    },
    {
      "bufferView": 3,
      "byteOffset": 0,
      "componentType": 5126,
      "count": 2980,
      "type": "VEC3",
      "min": [
        -0.4368579387664795,
        -0.005748042371124029,
        -1.0510417222976685
      ],
      "max": [
        0.0036404503043740988,
        0.1935129016637802,
        0.7216081619262695
      ]
    },
    {
      "bufferView": 4,
      "byteOffset": 0,
      "componentType": 5126,
      "count": 550,
      "type": "VEC3",
      "min": [
        -0.10370349138975143,
        -0.1555240899324417,
        -0.17315267026424408
      ],
      "max": [
        0.051963768899440765,
        0.09359025955200195,
        0.2836090922355652
      ]
    }
  ],
  "bufferViews": [
    {
      "buffer": 0,
      "byteOffset": 0,
      "byteLength": 17232,
      "target": 34962
    },
    {
      "buffer": 0,
      "byteOffset": 17232,
      "byteLength": 3096,
      "target": 34962
    },
    {
      "buffer": 0,
      "byteOffset": 20328,
      "byteLength": 10920,
      "target": 34962
    },
    {
      "buffer": 0,
      "byteOffset": 31248,
      "byteLength": 35760,
      "target": 34962
    },
    {
      "buffer": 0,
      "byteOffset": 67008,
      "byteLength": 6600,
      "target": 34962
    }
  ],
  "buffers": [
    {
      "byteLength": 73608,
      "uri": "data:application/octet-stream;base64,"
    }
  ]
}