{
  "asset": {
    "version": "2.0",
    "generator": "TES-23 Cosmic Ray Renderer"
  },
  "extensionsUsed": [
    "KHR_materials_unlit"
  ],
  "extensionsRequired": [
    "KHR_materials_unlit"
  ],
  "scene": 0,
  "scenes": [
    {
      "nodes": [
        0
      ]
    }
  ],
  "nodes": [
    {
      "name": "CosmicRayEvent",
      "mesh": 0
    }
  ],
  "meshes": [
    {
      "name": "CosmicRayEvent",
      "primitives": [
        {
          "attributes": {
            "POSITION": 0
          },
          "material": 0,
          "mode": 1
        },
        {
          "attributes": {
            "POSITION": 1
          },
          "material": 1,
          "mode": 1
        },
        {
          "attributes": {
            "POSITION": 2
          },
          "material": 2,
          "mode": 1
        },
        {
          "attributes": {
            "POSITION": 3
          },
          "material": 3,
          "mode": 1
        },
        {
          "attributes": {
            "POSITION": 4
          },
          "material": 4,
          "mode": 1
        }
      ]
    }
  ],
  "materials": [
    {
      "name": "primary",
      "extensions": {
        "KHR_materials_unlit": {}
      },
      "pbrMetallicRoughness": {
        "baseColorFactor": [
          0.961,
          0.961,
          0.961,
          1
        ],
        "metallicFactor": 0,
        "roughnessFactor": 1
      }
    },
    {
      "name": "vertex",
      "extensions": {
        "KHR_materials_unlit": {}
      },
      "pbrMetallicRoughness": {
        "baseColorFactor": [
          0.902,
          0.902,
          0.902,
          0.9
        ],
        "metallicFactor": 0,
        "roughnessFactor": 1
      }
    },
    {
      "name": "em",
      "extensions": {
        "KHR_materials_unlit": {}
      },
      "pbrMetallicRoughness": {
        "baseColorFactor": [
          0.471,
          0.824,
          1,
          1
        ],
        "metallicFactor": 0,
        "roughnessFactor": 1
      }
    },
    {
      "name": "hadron",
      "extensions": {
        "KHR_materials_unlit": {}
      },
      "pbrMetallicRoughness": {
        "baseColorFactor": [
          0.549,
          1,
          0.745,
          1
        ],
        "metallicFactor": 0,
        "roughnessFactor": 1
      }
    },
    {
      "name": "delta",
      "extensions": {
        "KHR_materials_unlit": {}
      },
      "pbrMetallicRoughness": {
        "baseColorFactor": [
          0.804,
          0.647,
          1,
          1
        ],
        "metallicFactor": 0,
        "roughnessFactor": 1
      }
    }
  ],
  "accessors": [
    {
      "bufferView": 0,
      "byteOffset": 0,
      "componentType": 5126,
      "count": 1406,
      "type": "VEC3",
      "min": [
        -1.0202304124832153,
        -0.30497804284095764,
        0
      ],
      "max": [
        0.9999349117279053,
        0.2904842495918274,
        0
      ]
    },
    {
      "bufferView": 1,
      "byteOffset": 0,
      "componentType": 5126,
      "count": 308,
      "type": "VEC3",
      "min": [
        -0.01632634736597538,
        -0.018289001658558846,
        -0.043187376111745834
      ],
      "max": [
        0.015933088958263397,
        0.011474165134131908,
        0.0939842164516449
      ]
    },
    {
      "bufferView": 2,
      "byteOffset": 0,
      "componentType": 5126,
      "count": 580,
      "type": "VEC3",
      "min": [
        -0.22286026179790497,
        -0.07782064378261566,
        -0.05188914015889168
      ],
      "max": [
        0.0046524289064109325,
        0.0003436810220591724,
        0.09578166157007217
      ]
    },
    {
      "bufferView": 3,
      "byteOffset": 0,
      "componentType": 5126,
      "count": 3072,
      "type": "VEC3",
      "min": [
        -0.47548967599868774,
        -0.10025627911090851,
        -0.25458359718322754
      ],
      "max": [
        0.0028363557066768408,
        0.11236361414194107,
        0.4113360047340393
      ]
    },
    {
      "bufferView": 4,
      "byteOffset": 0,
      "componentType": 5126,
      "count": 626,
      "type": "VEC3",
      "min": [
        -0.13005532324314117,
        -0.18562918901443481,
        -0.7589865326881409
      ],
      "max": [
        0.0709100216627121,
        0.05933385714888573,
        0.8535966873168945
      ]
    }
  ],
  "bufferViews": [
    {
      "buffer": 0,
      "byteOffset": 0,
      "byteLength": 16872,
      "target": 34962
    },
    {
      "buffer": 0,
      "byteOffset": 16872,
      "byteLength": 3696,
      "target": 34962
    },
    {
      "buffer": 0,
      "byteOffset": 20568,
      "byteLength": 6960,
      "target": 34962
    },
    {
      "buffer": 0,
      "byteOffset": 27528,
      "byteLength": 36864,
      "target": 34962
    },
    {
      "buffer": 0,
      "byteOffset": 64392,
      "byteLength": 7512,
      "target": 34962
    }
  ],
  "buffers": [
    {
      "byteLength": 71904,
      "uri": "data:application/octet-stream;base64,"
    }
  ]
}