{
  "asset": {
    "version": "2.0",
    "generator": "TES-23 Cosmic Ray Renderer"
  },
  "extensionsUsed": [
    "KHR_materials_unlit"
  ],
  "extensionsRequired": [
    "KHR_materials_unlit"
  ],
  "scene": 0,
  "scenes": [
    {
      "nodes": [
        0
      ]
    }
  ],
  "nodes": [
    {
      "name": "CosmicRayEvent",
      "mesh": 0
    }
  ],
  "meshes": [
    {
      "name": "CosmicRayEvent",
      "primitives": [
        {
          "attributes": {
            "POSITION": 0
          },
          "material": 0,
          "mode": 1
        },
        {
          "attributes": {
            "POSITION": 1
          },
          "material": 1,
          "mode": 1
        },
        {
          "attributes": {
            "POSITION": 2
          },
          "material": 2,
          "mode": 1
        },
        {
          "attributes": {
            "POSITION": 3
          },
          "material": 3,
          "mode": 1
        },
        {
          "attributes": {
            "POSITION": 4
          },
          "material": 4,
          "mode": 1
        }
      ]
    }
  ],
  "materials": [
    {
      "name": "primary",
      "extensions": {
        "KHR_materials_unlit": {}
      },
      "pbrMetallicRoughness": {
        "baseColorFactor": [
          0.961,
          0.961,
          0.961,
          1
        ],
        "metallicFactor": 0,
        "roughnessFactor": 1
      }
    },
    {
      "name": "vertex",
      "extensions": {
        "KHR_materials_unlit": {}
      },
      "pbrMetallicRoughness": {
        "baseColorFactor": [
          0.902,
          0.902,
          0.902,
          0.9
        ],
        "metallicFactor": 0,
        "roughnessFactor": 1
      }
    },
    {
      "name": "em",
      "extensions": {
        "KHR_materials_unlit": {}
      },
      "pbrMetallicRoughness": {
        "baseColorFactor": [
          0.471,
          0.824,
          1,
          1
        ],
        "metallicFactor": 0,
        "roughnessFactor": 1
      }
    },
    {
      "name": "hadron",
      "extensions": {
        "KHR_materials_unlit": {}
      },
      "pbrMetallicRoughness": {
        "baseColorFactor": [
          0.549,
          1,
          0.745,
          1
        ],
        "metallicFactor": 0,
        "roughnessFactor": 1
      }
    },
    {
      "name": "delta",
      "extensions": {
        "KHR_materials_unlit": {}
      },
      "pbrMetallicRoughness": {
        "baseColorFactor": [
          0.804,
          0.647,
          1,
          1
        ],
        "metallicFactor": 0,
        "roughnessFactor": 1
      }
    }
  ],
  "accessors": [
    {
      "bufferView": 0,
      "byteOffset": 0,
      "componentType": 5126,
      "count": 1604,
      "type": "VEC3",
      "min": [
        -1.0216342210769653,
        -0.6438985466957092,
        0
      ],
      "max": [
        0.9997224807739258,
        0.656989336013794,
        0
      ]
    },
    {
      "bufferView": 1,
      "byteOffset": 0,
      "componentType": 5126,
      "count": 372,
      "type": "VEC3",
      "min": [
        -0.01552381832152605,
        -0.01865438185632229,
        -0.11678499728441238
      ],
      "max": [
        0.019909972324967384,
        0.0158091988414526,
        0.0655052438378334
      ]
    },
    {
      "bufferView": 2,
      "byteOffset": 0,
      "componentType": 5126,
      "count": 1398,
      "type": "VEC3",
      "min": [
        -0.2610485851764679,
        -0.0015974933048710227,
        -0.10905058681964874
      ],
      "max": [
        0.005123856011778116,
        0.18626801669597626,
        0.0783386379480362
      ]
    },
    {
      "bufferView": 3,
      "byteOffset": 0,
      "componentType": 5126,
      "count": 2470,
      "type": "VEC3",
      "min": [
        -0.2117500752210617,
        -0.00280032423324883,
        -0.13477349281311035
      ],
      "max": [
        0.0035828901454806328,
        0.17419329285621643,
        0.3148579001426697
      ]
    },
    {
      "bufferView": 4,
      "byteOffset": 0,
      "componentType": 5126,
      "count": 648,
      "type": "VEC3",
      "min": [
        -0.15184147655963898,
        -0.16723674535751343,
        -0.47684246301651
      ],
      "max": [
        0.0075665805488824844,
        0.09087561815977097,
        0.30058231949806213
      ]
    }
  ],
  "bufferViews": [
    {
      "buffer": 0,
      "byteOffset": 0,
      "byteLength": 19248,
      "target": 34962
    },
    {
      "buffer": 0,
      "byteOffset": 19248,
      "byteLength": 4464,
      "target": 34962
    },
    {
      "buffer": 0,
      "byteOffset": 23712,
      "byteLength": 16776,
      "target": 34962
    },
    {
      "buffer": 0,
      "byteOffset": 40488,
      "byteLength": 29640,
      "target": 34962
    },
    {
      "buffer": 0,
      "byteOffset": 70128,
      "byteLength": 7776,
      "target": 34962
    }
  ],
  "buffers": [
    {
      "byteLength": 77904,
      "uri": "data:application/octet-stream;base64,"
    }
  ]
}