{
  "asset": {
    "version": "2.0",
    "generator": "TES-23 Cosmic Ray Renderer"
  },
  "extensionsUsed": [
    "KHR_materials_unlit"
  ],
  "extensionsRequired": [
    "KHR_materials_unlit"
  ],
  "scene": 0,
  "scenes": [
    {
      "nodes": [
        0
      ]
    }
  ],
  "nodes": [
    {
      "name": "CosmicRayEvent",
      "mesh": 0
    }
  ],
  "meshes": [
    {
      "name": "CosmicRayEvent",
      "primitives": [
        {
          "attributes": {
            "POSITION": 0
          },
          "material": 0,
          "mode": 1
        },
        {
          "attributes": {
            "POSITION": 1
          },
          "material": 1,
          "mode": 1
        },
        {
          "attributes": {
            "POSITION": 2
          },
          "material": 2,
          "mode": 1
        },
        {
          "attributes": {
            "POSITION": 3
          },
          "material": 3,
          "mode": 1
        },
        {
          "attributes": {
            "POSITION": 4
          },
          "material": 4,
          "mode": 1
        }
      ]
    }
  ],
  "materials": [
    {
      "name": "primary",
      "extensions": {
        "KHR_materials_unlit": {}
      },
      "pbrMetallicRoughness": {
        "baseColorFactor": [
          0.961,
          0.961,
          0.961,
          1
        ],
        "metallicFactor": 0,
        "roughnessFactor": 1
      }
    },
    {
      "name": "vertex",
      "extensions": {
        "KHR_materials_unlit": {}
      },
      "pbrMetallicRoughness": {
        "baseColorFactor": [
          0.902,
          0.902,
          0.902,
          0.9
        ],
        "metallicFactor": 0,
        "roughnessFactor": 1
      }
    },
    {
      "name": "em",
      "extensions": {
        "KHR_materials_unlit": {}
      },
      "pbrMetallicRoughness": {
        "baseColorFactor": [
          0.471,
          0.824,
          1,
          1
        ],
        "metallicFactor": 0,
        "roughnessFactor": 1
      }
    },
    {
      "name": "hadron",
      "extensions": {
        "KHR_materials_unlit": {}
      },
      "pbrMetallicRoughness": {
        "baseColorFactor": [
          0.549,
          1,
          0.745,
          1
        ],
        "metallicFactor": 0,
        "roughnessFactor": 1
      }
    },
    {
      "name": "delta",
      "extensions": {
        "KHR_materials_unlit": {}
      },
      "pbrMetallicRoughness": {
        "baseColorFactor": [
          0.804,
          0.647,
          1,
          1
        ],
        "metallicFactor": 0,
        "roughnessFactor": 1
      }
    }
  ],
  "accessors": [
    {
      "bufferView": 0,
      "byteOffset": 0,
      "componentType": 5126,
      "count": 1430,
      "type": "VEC3",
      "min": [
        -1.0224448442459106,
        -0.3580828905105591,
        0
      ],
      "max": [
        0.9997250437736511,
        0.34759899973869324,
        0
      ]
    },
    {
      "bufferView": 1,
      "byteOffset": 0,
      "componentType": 5126,
      "count": 250,
      "type": "VEC3",
      "min": [
        -0.013957308605313301,
        -0.02048904448747635,
        -0.07950901240110397
      ],
      "max": [
        0.014759101904928684,
        0.01525088306516409,
        0.03611326962709427
      ]
    },
    {
      "bufferView": 2,
      "byteOffset": 0,
      "componentType": 5126,
      "count": 906,
      "type": "VEC3",
      "min": [
        -0.26722973585128784,
        -0.004677849821746349,
        -0.16200022399425507
      ],
      "max": [
        0.0012087004724889994,
        0.09377236664295197,
        0.020073166117072105
      ]
    },
    {
      "bufferView": 3,
      "byteOffset": 0,
      "componentType": 5126,
      "count": 3616,
      "type": "VEC3",
      "min": [
        -0.3690311908721924,
        -0.011491159908473492,
        -0.4853380620479584
      ],
      "max": [
        0.00460607698187232,
        0.1412723809480667,
        0.6706118583679199
      ]
    },
    {
      "bufferView": 4,
      "byteOffset": 0,
      "componentType": 5126,
      "count": 618,
      "type": "VEC3",
      "min": [
        -0.14893078804016113,
        -0.009944145567715168,
        -0.28036487102508545
      ],
      "max": [
        0.004679965786635876,
        0.11660642176866531,
        0.3569062650203705
      ]
    }
  ],
  "bufferViews": [
    {
      "buffer": 0,
      "byteOffset": 0,
      "byteLength": 17160,
      "target": 34962
    },
    {
      "buffer": 0,
      "byteOffset": 17160,
      "byteLength": 3000,
      "target": 34962
    },
    {
      "buffer": 0,
      "byteOffset": 20160,
      "byteLength": 10872,
      "target": 34962
    },
    {
      "buffer": 0,
      "byteOffset": 31032,
      "byteLength": 43392,
      "target": 34962
    },
    {
      "buffer": 0,
      "byteOffset": 74424,
      "byteLength": 7416,
      "target": 34962
    }
  ],
  "buffers": [
    {
      "byteLength": 81840,
      "uri": "data:application/octet-stream;base64,"
    }
  ]
}