{
  "asset": {
    "version": "2.0",
    "generator": "TES-23 Cosmic Ray Renderer"
  },
  "extensionsUsed": [
    "KHR_materials_unlit"
  ],
  "extensionsRequired": [
    "KHR_materials_unlit"
  ],
  "scene": 0,
  "scenes": [
    {
      "nodes": [
        0
      ]
    }
  ],
  "nodes": [
    {
      "name": "CosmicRayEvent",
      "mesh": 0
    }
  ],
  "meshes": [
    {
      "name": "CosmicRayEvent",
      "primitives": [
        {
          "attributes": {
            "POSITION": 0
          },
          "material": 0,
          "mode": 1
        },
        {
          "attributes": {
            "POSITION": 1
          },
          "material": 1,
          "mode": 1
        },
        {
          "attributes": {
            "POSITION": 2
          },
          "material": 2,
          "mode": 1
        },
        {
          "attributes": {
            "POSITION": 3
          },
          "material": 3,
          "mode": 1
        },
        {
          "attributes": {
            "POSITION": 4
          },
          "material": 4,
          "mode": 1
        },
        {
          "attributes": {
            "POSITION": 5
          },
          "material": 5,
          "mode": 1
        }
      ]
    }
  ],
  "materials": [
    {
      "name": "primary",
      "extensions": {
        "KHR_materials_unlit": {}
      },
      "pbrMetallicRoughness": {
        "baseColorFactor": [
          0.961,
          0.961,
          0.961,
          1
        ],
        "metallicFactor": 0,
        "roughnessFactor": 1
      }
    },
    {
      "name": "vertex",
      "extensions": {
        "KHR_materials_unlit": {}
      },
      "pbrMetallicRoughness": {
        "baseColorFactor": [
          0.902,
          0.902,
          0.902,
          0.9
        ],
        "metallicFactor": 0,
        "roughnessFactor": 1
      }
    },
    {
      "name": "em",
      "extensions": {
        "KHR_materials_unlit": {}
      },
      "pbrMetallicRoughness": {
        "baseColorFactor": [
          0.471,
          0.824,
          1,
          1
        ],
        "metallicFactor": 0,
        "roughnessFactor": 1
      }
    },
    {
      "name": "hadron",
      "extensions": {
        "KHR_materials_unlit": {}
      },
      "pbrMetallicRoughness": {
        "baseColorFactor": [
          0.549,
          1,
          0.745,
          1
        ],
        "metallicFactor": 0,
        "roughnessFactor": 1
      }
    },
    {
      "name": "delta",
      "extensions": {
        "KHR_materials_unlit": {}
      },
      "pbrMetallicRoughness": {
        "baseColorFactor": [
          0.804,
          0.647,
          1,
          1
        ],
        "metallicFactor": 0,
        "roughnessFactor": 1
      }
    },
    {
      "name": "backscatter",
      "extensions": {
        "KHR_materials_unlit": {}
      },
      "pbrMetallicRoughness": {
        "baseColorFactor": [
          1,
          0.824,
          0.529,
          0.95
        ],
        "metallicFactor": 0,
        "roughnessFactor": 1
      }
    }
  ],
  "accessors": [
    {
      "bufferView": 0,
      "byteOffset": 0,
      "componentType": 5126,
      "count": 1408,
      "type": "VEC3",
      "min": [
        -0.9995740652084351,
        -0.30345502495765686,
        0
      ],
      "max": [
        1.0211292505264282,
        0.3020983338356018,
        0
      ]
    },
    {
      "bufferView": 1,
      "byteOffset": 0,
      "componentType": 5126,
      "count": 290,
      "type": "VEC3",
      "min": [
        -0.010491596534848213,
        -0.018919551745057106,
        -0.06292182952165604
      ],
      "max": [
        0.016570331528782845,
        0.011208360083401203,
        0.05689728632569313
      ]
    },
    {
      "bufferView": 2,
      "byteOffset": 0,
      "componentType": 5126,
      "count": 1360,
      "type": "VEC3",
      "min": [
        -0.0028914548456668854,
        -0.0031549660488963127,
        -0.21483191847801208
      ],
      "max": [
        0.21343405544757843,
        0.08413895219564438,
        0.1395779550075531
      ]
    },
    {
      "bufferView": 3,
      "byteOffset": 0,
      "componentType": 5126,
      "count": 3314,
      "type": "VEC3",
      "min": [
        -0.11570094525814056,
        -0.0930827409029007,
        -0.3591149151325226
      ],
      "max": [
        0.33555513620376587,
        0.14442910254001617,
        1.4098467826843262
      ]
    },
    {
      "bufferView": 4,
      "byteOffset": 0,
      "componentType": 5126,
      "count": 580,
      "type": "VEC3",
      "min": [
        -0.1490819752216339,
        -0.14257949590682983,
        -0.6757894158363342
      ],
      "max": [
        0.12140430510044098,
        0.07230649143457413,
        0.08284138888120651
      ]
    },
    {
      "bufferView": 5,
      "byteOffset": 0,
      "componentType": 5126,
      "count": 592,
      "type": "VEC3",
      "min": [
        -0.2353876233100891,
        -0.08498208224773407,
        -0.46789270639419556
      ],
      "max": [
        0.06438358128070831,
        0.09829066693782806,
        0.03410232439637184
      ]
    }
  ],
  "bufferViews": [
    {
      "buffer": 0,
      "byteOffset": 0,
      "byteLength": 16896,
      "target": 34962
    },
    {
      "buffer": 0,
      "byteOffset": 16896,
      "byteLength": 3480,
      "target": 34962
    },
    {
      "buffer": 0,
      "byteOffset": 20376,
      "byteLength": 16320,
      "target": 34962
    },
    {
      "buffer": 0,
      "byteOffset": 36696,
      "byteLength": 39768,
      "target": 34962
    },
    {
      "buffer": 0,
      "byteOffset": 76464,
      "byteLength": 6960,
      "target": 34962
    },
    {
      "buffer": 0,
      "byteOffset": 83424,
      "byteLength": 7104,
      "target": 34962
    }
  ],
  "buffers": [
    {
      "byteLength": 90528,
      "uri": "data:application/octet-stream;base64,"
    }
  ]
}