{
  "asset": {
    "version": "2.0",
    "generator": "TES-23 Cosmic Ray Renderer"
  },
  "extensionsUsed": [
    "KHR_materials_unlit"
  ],
  "extensionsRequired": [
    "KHR_materials_unlit"
  ],
  "scene": 0,
  "scenes": [
    {
      "nodes": [
        0
      ]
    }
  ],
  "nodes": [
    {
      "name": "CosmicRayEvent",
      "mesh": 0
    }
  ],
  "meshes": [
    {
      "name": "CosmicRayEvent",
      "primitives": [
        {
          "attributes": {
            "POSITION": 0
          },
          "material": 0,
          "mode": 1
        },
        {
          "attributes": {
            "POSITION": 1
          },
          "material": 1,
          "mode": 1
        },
        {
          "attributes": {
            "POSITION": 2
          },
          "material": 2,
          "mode": 1
        },
        {
          "attributes": {
            "POSITION": 3
          },
          "material": 3,
          "mode": 1
        },
        {
          "attributes": {
            "POSITION": 4
          },
          "material": 4,
          "mode": 1
        }
      ]
    }
  ],
  "materials": [
    {
      "name": "primary",
      "extensions": {
        "KHR_materials_unlit": {}
      },
      "pbrMetallicRoughness": {
        "baseColorFactor": [
          0.961,
          0.961,
          0.961,
          1
        ],
        "metallicFactor": 0,
        "roughnessFactor": 1
      }
    },
    {
      "name": "vertex",
      "extensions": {
        "KHR_materials_unlit": {}
      },
      "pbrMetallicRoughness": {
        "baseColorFactor": [
          0.902,
          0.902,
          0.902,
          0.9
        ],
        "metallicFactor": 0,
        "roughnessFactor": 1
      }
    },
    {
      "name": "em",
      "extensions": {
        "KHR_materials_unlit": {}
      },
      "pbrMetallicRoughness": {
        "baseColorFactor": [
          0.471,
          0.824,
          1,
          1
        ],
        "metallicFactor": 0,
        "roughnessFactor": 1
      }
    },
    {
      "name": "hadron",
      "extensions": {
        "KHR_materials_unlit": {}
      },
      "pbrMetallicRoughness": {
        "baseColorFactor": [
          0.549,
          1,
          0.745,
          1
        ],
        "metallicFactor": 0,
        "roughnessFactor": 1
      }
    },
    {
      "name": "delta",
      "extensions": {
        "KHR_materials_unlit": {}
      },
      "pbrMetallicRoughness": {
        "baseColorFactor": [
          0.804,
          0.647,
          1,
          1
        ],
        "metallicFactor": 0,
        "roughnessFactor": 1
      }
    }
  ],
  "accessors": [
    {
      "bufferView": 0,
      "byteOffset": 0,
      "componentType": 5126,
      "count": 1900,
      "type": "VEC3",
      "min": [
        -1.0198638439178467,
        -0.9997043609619141,
        0
      ],
      "max": [
        0.9901159405708313,
        1.020525574684143,
        0
      ]
    },
    {
      "bufferView": 1,
      "byteOffset": 0,
      "componentType": 5126,
      "count": 302,
      "type": "VEC3",
      "min": [
        -0.021253257989883423,
        -0.011797789484262466,
        -0.031282003968954086
      ],
      "max": [
        0.008221219293773174,
        0.021260710433125496,
        0.07088294625282288
      ]
    },
    {
      "bufferView": 2,
      "byteOffset": 0,
      "componentType": 5126,
      "count": 684,
      "type": "VEC3",
      "min": [
        -0.13546009361743927,
        -0.003084451425820589,
        -0.10406387597322464
      ],
      "max": [
        0.004154103808104992,
        0.14381523430347443,
        0.048057667911052704
      ]
    },
    {
      "bufferView": 3,
      "byteOffset": 0,
      "componentType": 5126,
      "count": 2406,
      "type": "VEC3",
      "min": [
        -0.2138301283121109,
        -0.04943130910396576,
        -0.21197670698165894
      ],
      "max": [
        0.0628315806388855,
        0.2563304901123047,
        0.33058080077171326
      ]
    },
    {
      "bufferView": 4,
      "byteOffset": 0,
      "componentType": 5126,
      "count": 370,
      "type": "VEC3",
      "min": [
        -0.08530020713806152,
        -0.020293526351451874,
        -0.6002097129821777
      ],
      "max": [
        0.010123989544808865,
        0.09319352358579636,
        0.7389978170394897
      ]
    }
  ],
  "bufferViews": [
    {
      "buffer": 0,
      "byteOffset": 0,
      "byteLength": 22800,
      "target": 34962
    },
    {
      "buffer": 0,
      "byteOffset": 22800,
      "byteLength": 3624,
      "target": 34962
    },
    {
      "buffer": 0,
      "byteOffset": 26424,
      "byteLength": 8208,
      "target": 34962
    },
    {
      "buffer": 0,
      "byteOffset": 34632,
      "byteLength": 28872,
      "target": 34962
    },
    {
      "buffer": 0,
      "byteOffset": 63504,
      "byteLength": 4440,
      "target": 34962
    }
  ],
  "buffers": [
    {
      "byteLength": 67944,
      "uri": "data:application/octet-stream;base64,"
    }
  ]
}