{
  "asset": {
    "version": "2.0",
    "generator": "TES-23 Cosmic Ray Renderer"
  },
  "extensionsUsed": [
    "KHR_materials_unlit"
  ],
  "extensionsRequired": [
    "KHR_materials_unlit"
  ],
  "scene": 0,
  "scenes": [
    {
      "nodes": [
        0
      ]
    }
  ],
  "nodes": [
    {
      "name": "CosmicRayEvent",
      "mesh": 0
    }
  ],
  "meshes": [
    {
      "name": "CosmicRayEvent",
      "primitives": [
        {
          "attributes": {
            "POSITION": 0
          },
          "material": 0,
          "mode": 1
        },
        {
          "attributes": {
            "POSITION": 1
          },
          "material": 1,
          "mode": 1
        },
        {
          "attributes": {
            "POSITION": 2
          },
          "material": 2,
          "mode": 1
        },
        {
          "attributes": {
            "POSITION": 3
          },
          "material": 3,
          "mode": 1
        },
        {
          "attributes": {
            "POSITION": 4
          },
          "material": 4,
          "mode": 1
        }
      ]
    }
  ],
  "materials": [
    {
      "name": "primary",
      "extensions": {
        "KHR_materials_unlit": {}
      },
      "pbrMetallicRoughness": {
        "baseColorFactor": [
          0.961,
          0.961,
          0.961,
          1
        ],
        "metallicFactor": 0,
        "roughnessFactor": 1
      }
    },
    {
      "name": "vertex",
      "extensions": {
        "KHR_materials_unlit": {}
      },
      "pbrMetallicRoughness": {
        "baseColorFactor": [
          0.902,
          0.902,
          0.902,
          0.9
        ],
        "metallicFactor": 0,
        "roughnessFactor": 1
      }
    },
    {
      "name": "em",
      "extensions": {
        "KHR_materials_unlit": {}
      },
      "pbrMetallicRoughness": {
        "baseColorFactor": [
          0.471,
          0.824,
          1,
          1
        ],
        "metallicFactor": 0,
        "roughnessFactor": 1
      }
    },
    {
      "name": "hadron",
      "extensions": {
        "KHR_materials_unlit": {}
      },
      "pbrMetallicRoughness": {
        "baseColorFactor": [
          0.549,
          1,
          0.745,
          1
        ],
        "metallicFactor": 0,
        "roughnessFactor": 1
      }
    },
    {
      "name": "delta",
      "extensions": {
        "KHR_materials_unlit": {}
      },
      "pbrMetallicRoughness": {
        "baseColorFactor": [
          0.804,
          0.647,
          1,
          1
        ],
        "metallicFactor": 0,
        "roughnessFactor": 1
      }
    }
  ],
  "accessors": [
    {
      "bufferView": 0,
      "byteOffset": 0,
      "componentType": 5126,
      "count": 1402,
      "type": "VEC3",
      "min": [
        -0.2823277413845062,
        -1.0000665187835693,
        0
      ],
      "max": [
        0.2902895510196686,
        1.0213204622268677,
        0
      ]
    },
    {
      "bufferView": 1,
      "byteOffset": 0,
      "componentType": 5126,
      "count": 306,
      "type": "VEC3",
      "min": [
        -0.016153132542967796,
        -0.01829138956964016,
        -0.03127508983016014
      ],
      "max": [
        0.012855674140155315,
        0.02459934912621975,
        0.05406768247485161
      ]
    },
    {
      "bufferView": 2,
      "byteOffset": 0,
      "componentType": 5126,
      "count": 1176,
      "type": "VEC3",
      "min": [
        -0.003789351088926196,
        -0.004110710229724646,
        -0.16147257387638092
      ],
      "max": [
        0.08577992767095566,
        0.256526380777359,
        0.057976845651865005
      ]
    },
    {
      "bufferView": 3,
      "byteOffset": 0,
      "componentType": 5126,
      "count": 2100,
      "type": "VEC3",
      "min": [
        -0.0774523913860321,
        -0.004108968190848827,
        -0.48656895756721497
      ],
      "max": [
        0.13384360074996948,
        0.24387525022029877,
        0.3665839731693268
      ]
    },
    {
      "bufferView": 4,
      "byteOffset": 0,
      "componentType": 5126,
      "count": 618,
      "type": "VEC3",
      "min": [
        -0.01648719236254692,
        -0.002221279079094529,
        -0.5053423047065735
      ],
      "max": [
        0.10237547755241394,
        0.20958472788333893,
        0.2665743827819824
      ]
    }
  ],
  "bufferViews": [
    {
      "buffer": 0,
      "byteOffset": 0,
      "byteLength": 16824,
      "target": 34962
    },
    {
      "buffer": 0,
      "byteOffset": 16824,
      "byteLength": 3672,
      "target": 34962
    },
    {
      "buffer": 0,
      "byteOffset": 20496,
      "byteLength": 14112,
      "target": 34962
    },
    {
      "buffer": 0,
      "byteOffset": 34608,
      "byteLength": 25200,
      "target": 34962
    },
    {
      "buffer": 0,
      "byteOffset": 59808,
      "byteLength": 7416,
      "target": 34962
    }
  ],
  "buffers": [
    {
      "byteLength": 67224,
      "uri": "data:application/octet-stream;base64,"
    }
  ]
}