{
  "asset": {
    "version": "2.0",
    "generator": "TES-23 Cosmic Ray Renderer"
  },
  "extensionsUsed": [
    "KHR_materials_unlit"
  ],
  "extensionsRequired": [
    "KHR_materials_unlit"
  ],
  "scene": 0,
  "scenes": [
    {
      "nodes": [
        0
      ]
    }
  ],
  "nodes": [
    {
      "name": "CosmicRayEvent",
      "mesh": 0
    }
  ],
  "meshes": [
    {
      "name": "CosmicRayEvent",
      "primitives": [
        {
          "attributes": {
            "POSITION": 0
          },
          "material": 0,
          "mode": 1
        },
        {
          "attributes": {
            "POSITION": 1
          },
          "material": 1,
          "mode": 1
        },
        {
          "attributes": {
            "POSITION": 2
          },
          "material": 2,
          "mode": 1
        },
        {
          "attributes": {
            "POSITION": 3
          },
          "material": 3,
          "mode": 1
        },
        {
          "attributes": {
            "POSITION": 4
          },
          "material": 4,
          "mode": 1
        },
        {
          "attributes": {
            "POSITION": 5
          },
          "material": 5,
          "mode": 1
        }
      ]
    }
  ],
  "materials": [
    {
      "name": "primary",
      "extensions": {
        "KHR_materials_unlit": {}
      },
      "pbrMetallicRoughness": {
        "baseColorFactor": [
          0.961,
          0.961,
          0.961,
          1
        ],
        "metallicFactor": 0,
        "roughnessFactor": 1
      }
    },
    {
      "name": "vertex",
      "extensions": {
        "KHR_materials_unlit": {}
      },
      "pbrMetallicRoughness": {
        "baseColorFactor": [
          0.902,
          0.902,
          0.902,
          0.9
        ],
        "metallicFactor": 0,
        "roughnessFactor": 1
      }
    },
    {
      "name": "em",
      "extensions": {
        "KHR_materials_unlit": {}
      },
      "pbrMetallicRoughness": {
        "baseColorFactor": [
          0.471,
          0.824,
          1,
          1
        ],
        "metallicFactor": 0,
        "roughnessFactor": 1
      }
    },
    {
      "name": "hadron",
      "extensions": {
        "KHR_materials_unlit": {}
      },
      "pbrMetallicRoughness": {
        "baseColorFactor": [
          0.549,
          1,
          0.745,
          1
        ],
        "metallicFactor": 0,
        "roughnessFactor": 1
      }
    },
    {
      "name": "delta",
      "extensions": {
        "KHR_materials_unlit": {}
      },
      "pbrMetallicRoughness": {
        "baseColorFactor": [
          0.804,
          0.647,
          1,
          1
        ],
        "metallicFactor": 0,
        "roughnessFactor": 1
      }
    },
    {
      "name": "backscatter",
      "extensions": {
        "KHR_materials_unlit": {}
      },
      "pbrMetallicRoughness": {
        "baseColorFactor": [
          1,
          0.824,
          0.529,
          0.95
        ],
        "metallicFactor": 0,
        "roughnessFactor": 1
      }
    }
  ],
  "accessors": [
    {
      "bufferView": 0,
      "byteOffset": 0,
      "componentType": 5126,
      "count": 1386,
      "type": "VEC3",
      "min": [
        -0.23334923386573792,
        -1.0001609325408936,
        0
      ],
      "max": [
        0.24447128176689148,
        1.0211023092269897,
        0
      ]
    },
    {
      "bufferView": 1,
      "byteOffset": 0,
      "componentType": 5126,
      "count": 272,
      "type": "VEC3",
      "min": [
        -0.009699520654976368,
        -0.009728285484015942,
        -0.04681526497006416
      ],
      "max": [
        0.013551599346101284,
        0.010394791141152382,
        0.0998685359954834
      ]
    },
    {
      "bufferView": 2,
      "byteOffset": 0,
      "componentType": 5126,
      "count": 618,
      "type": "VEC3",
      "min": [
        -0.00278574600815773,
        -0.0038137456867843866,
        -0.0455641932785511
      ],
      "max": [
        0.0475991927087307,
        0.1756526380777359,
        0.10374880582094193
      ]
    },
    {
      "bufferView": 3,
      "byteOffset": 0,
      "componentType": 5126,
      "count": 3770,
      "type": "VEC3",
      "min": [
        -0.03331514447927475,
        -0.128931924700737,
        -0.3462313711643219
      ],
      "max": [
        0.21844856441020966,
        0.4063093662261963,
        0.27541014552116394
      ]
    },
    {
      "bufferView": 4,
      "byteOffset": 0,
      "componentType": 5126,
      "count": 1066,
      "type": "VEC3",
      "min": [
        -0.10251297801733017,
        -0.13884462416172028,
        -0.5348960161209106
      ],
      "max": [
        0.16603553295135498,
        0.17488513886928558,
        0.7221197485923767
      ]
    },
    {
      "bufferView": 5,
      "byteOffset": 0,
      "componentType": 5126,
      "count": 402,
      "type": "VEC3",
      "min": [
        -0.04214297607541084,
        -0.12208884209394455,
        -0.04551459848880768
      ],
      "max": [
        0.046735312789678574,
        0.029659157618880272,
        0.7017264366149902
      ]
    }
  ],
  "bufferViews": [
    {
      "buffer": 0,
      "byteOffset": 0,
      "byteLength": 16632,
      "target": 34962
    },
    {
      "buffer": 0,
      "byteOffset": 16632,
      "byteLength": 3264,
      "target": 34962
    },
    {
      "buffer": 0,
      "byteOffset": 19896,
      "byteLength": 7416,
      "target": 34962
    },
    {
      "buffer": 0,
      "byteOffset": 27312,
      "byteLength": 45240,
      "target": 34962
    },
    {
      "buffer": 0,
      "byteOffset": 72552,
      "byteLength": 12792,
      "target": 34962
    },
    {
      "buffer": 0,
      "byteOffset": 85344,
      "byteLength": 4824,
      "target": 34962
    }
  ],
  "buffers": [
    {
      "byteLength": 90168,
      "uri": "data:application/octet-stream;base64,"
    }
  ]
}