{
  "asset": {
    "version": "2.0",
    "generator": "TES-23 Cosmic Ray Renderer"
  },
  "extensionsUsed": [
    "KHR_materials_unlit"
  ],
  "extensionsRequired": [
    "KHR_materials_unlit"
  ],
  "scene": 0,
  "scenes": [
    {
      "nodes": [
        0
      ]
    }
  ],
  "nodes": [
    {
      "name": "CosmicRayEvent",
      "mesh": 0
    }
  ],
  "meshes": [
    {
      "name": "CosmicRayEvent",
      "primitives": [
        {
          "attributes": {
            "POSITION": 0
          },
          "material": 0,
          "mode": 1
        },
        {
          "attributes": {
            "POSITION": 1
          },
          "material": 1,
          "mode": 1
        },
        {
          "attributes": {
            "POSITION": 2
          },
          "material": 2,
          "mode": 1
        },
        {
          "attributes": {
            "POSITION": 3
          },
          "material": 3,
          "mode": 1
        },
        {
          "attributes": {
            "POSITION": 4
          },
          "material": 4,
          "mode": 1
        }
      ]
    }
  ],
  "materials": [
    {
      "name": "primary",
      "extensions": {
        "KHR_materials_unlit": {}
      },
      "pbrMetallicRoughness": {
        "baseColorFactor": [
          0.961,
          0.961,
          0.961,
          1
        ],
        "metallicFactor": 0,
        "roughnessFactor": 1
      }
    },
    {
      "name": "vertex",
      "extensions": {
        "KHR_materials_unlit": {}
      },
      "pbrMetallicRoughness": {
        "baseColorFactor": [
          0.902,
          0.902,
          0.902,
          0.9
        ],
        "metallicFactor": 0,
        "roughnessFactor": 1
      }
    },
    {
      "name": "em",
      "extensions": {
        "KHR_materials_unlit": {}
      },
      "pbrMetallicRoughness": {
        "baseColorFactor": [
          0.471,
          0.824,
          1,
          1
        ],
        "metallicFactor": 0,
        "roughnessFactor": 1
      }
    },
    {
      "name": "hadron",
      "extensions": {
        "KHR_materials_unlit": {}
      },
      "pbrMetallicRoughness": {
        "baseColorFactor": [
          0.549,
          1,
          0.745,
          1
        ],
        "metallicFactor": 0,
        "roughnessFactor": 1
      }
    },
    {
      "name": "delta",
      "extensions": {
        "KHR_materials_unlit": {}
      },
      "pbrMetallicRoughness": {
        "baseColorFactor": [
          0.804,
          0.647,
          1,
          1
        ],
        "metallicFactor": 0,
        "roughnessFactor": 1
      }
    }
  ],
  "accessors": [
    {
      "bufferView": 0,
      "byteOffset": 0,
      "componentType": 5126,
      "count": 1724,
      "type": "VEC3",
      "min": [
        -1.0002914667129517,
        -0.804732084274292,
        0
      ],
      "max": [
        1.0210920572280884,
        0.8076496720314026,
        0
      ]
    },
    {
      "bufferView": 1,
      "byteOffset": 0,
      "componentType": 5126,
      "count": 292,
      "type": "VEC3",
      "min": [
        -0.010509073734283447,
        -0.012253990396857262,
        -0.08568477630615234
      ],
      "max": [
        0.015926791355013847,
        0.016588859260082245,
        0.10617715865373611
      ]
    },
    {
      "bufferView": 2,
      "byteOffset": 0,
      "componentType": 5126,
      "count": 708,
      "type": "VEC3",
      "min": [
        -0.002201111288741231,
        -0.0025759979616850615,
        -0.25489509105682373
      ],
      "max": [
        0.24368278682231903,
        0.154667466878891,
        0.16933566331863403
      ]
    },
    {
      "bufferView": 3,
      "byteOffset": 0,
      "componentType": 5126,
      "count": 2206,
      "type": "VEC3",
      "min": [
        -0.0036241980269551277,
        -0.003067531855776906,
        -0.5447533130645752
      ],
      "max": [
        0.2993931472301483,
        0.27627015113830566,
        0.15123175084590912
      ]
    },
    {
      "bufferView": 4,
      "byteOffset": 0,
      "componentType": 5126,
      "count": 488,
      "type": "VEC3",
      "min": [
        -0.030226385220885277,
        -0.07982049882411957,
        -0.4063049554824829
      ],
      "max": [
        0.08129158616065979,
        0.07904399931430817,
        0.5184105038642883
      ]
    }
  ],
  "bufferViews": [
    {
      "buffer": 0,
      "byteOffset": 0,
      "byteLength": 20688,
      "target": 34962
    },
    {
      "buffer": 0,
      "byteOffset": 20688,
      "byteLength": 3504,
      "target": 34962
    },
    {
      "buffer": 0,
      "byteOffset": 24192,
      "byteLength": 8496,
      "target": 34962
    },
    {
      "buffer": 0,
      "byteOffset": 32688,
      "byteLength": 26472,
      "target": 34962
    },
    {
      "buffer": 0,
      "byteOffset": 59160,
      "byteLength": 5856,
      "target": 34962
    }
  ],
  "buffers": [
    {
      "byteLength": 65016,
      "uri": "data:application/octet-stream;base64,"
    }
  ]
}