{
  "asset": {
    "version": "2.0",
    "generator": "TES-23 Cosmic Ray Renderer"
  },
  "extensionsUsed": [
    "KHR_materials_unlit"
  ],
  "extensionsRequired": [
    "KHR_materials_unlit"
  ],
  "scene": 0,
  "scenes": [
    {
      "nodes": [
        0
      ]
    }
  ],
  "nodes": [
    {
      "name": "CosmicRayEvent",
      "mesh": 0
    }
  ],
  "meshes": [
    {
      "name": "CosmicRayEvent",
      "primitives": [
        {
          "attributes": {
            "POSITION": 0
          },
          "material": 0,
          "mode": 1
        },
        {
          "attributes": {
            "POSITION": 1
          },
          "material": 1,
          "mode": 1
        },
        {
          "attributes": {
            "POSITION": 2
          },
          "material": 2,
          "mode": 1
        },
        {
          "attributes": {
            "POSITION": 3
          },
          "material": 3,
          "mode": 1
        },
        {
          "attributes": {
            "POSITION": 4
          },
          "material": 4,
          "mode": 1
        }
      ]
    }
  ],
  "materials": [
    {
      "name": "primary",
      "extensions": {
        "KHR_materials_unlit": {}
      },
      "pbrMetallicRoughness": {
        "baseColorFactor": [
          0.961,
          0.961,
          0.961,
          1
        ],
        "metallicFactor": 0,
        "roughnessFactor": 1
      }
    },
    {
      "name": "vertex",
      "extensions": {
        "KHR_materials_unlit": {}
      },
      "pbrMetallicRoughness": {
        "baseColorFactor": [
          0.902,
          0.902,
          0.902,
          0.9
        ],
        "metallicFactor": 0,
        "roughnessFactor": 1
      }
    },
    {
      "name": "em",
      "extensions": {
        "KHR_materials_unlit": {}
      },
      "pbrMetallicRoughness": {
        "baseColorFactor": [
          0.471,
          0.824,
          1,
          1
        ],
        "metallicFactor": 0,
        "roughnessFactor": 1
      }
    },
    {
      "name": "hadron",
      "extensions": {
        "KHR_materials_unlit": {}
      },
      "pbrMetallicRoughness": {
        "baseColorFactor": [
          0.549,
          1,
          0.745,
          1
        ],
        "metallicFactor": 0,
        "roughnessFactor": 1
      }
    },
    {
      "name": "delta",
      "extensions": {
        "KHR_materials_unlit": {}
      },
      "pbrMetallicRoughness": {
        "baseColorFactor": [
          0.804,
          0.647,
          1,
          1
        ],
        "metallicFactor": 0,
        "roughnessFactor": 1
      }
    }
  ],
  "accessors": [
    {
      "bufferView": 0,
      "byteOffset": 0,
      "componentType": 5126,
      "count": 1566,
      "type": "VEC3",
      "min": [
        -1.0213693380355835,
        -0.5845873951911926,
        0
      ],
      "max": [
        0.9996059536933899,
        0.6067171692848206,
        0
      ]
    },
    {
      "bufferView": 1,
      "byteOffset": 0,
      "componentType": 5126,
      "count": 404,
      "type": "VEC3",
      "min": [
        -0.02360600419342518,
        -0.02185593731701374,
        -0.09065283834934235
      ],
      "max": [
        0.016358675435185432,
        0.020221423357725143,
        0.10966429859399796
      ]
    },
    {
      "bufferView": 2,
      "byteOffset": 0,
      "componentType": 5126,
      "count": 1218,
      "type": "VEC3",
      "min": [
        -0.1926979124546051,
        -0.003730319906026125,
        -0.03559783846139908
      ],
      "max": [
        0.002412092173472047,
        0.09465209394693375,
        0.12763844430446625
      ]
    },
    {
      "bufferView": 3,
      "byteOffset": 0,
      "componentType": 5126,
      "count": 2706,
      "type": "VEC3",
      "min": [
        -0.2624656856060028,
        -0.0027024676091969013,
        -0.5007365345954895
      ],
      "max": [
        0.003305724123492837,
        0.20777669548988342,
        0.46353256702423096
      ]
    },
    {
      "bufferView": 4,
      "byteOffset": 0,
      "componentType": 5126,
      "count": 1110,
      "type": "VEC3",
      "min": [
        -0.17942620813846588,
        -0.2118167132139206,
        -1.0907955169677734
      ],
      "max": [
        0.05063805729150772,
        0.11473871767520905,
        0.8388617634773254
      ]
    }
  ],
  "bufferViews": [
    {
      "buffer": 0,
      "byteOffset": 0,
      "byteLength": 18792,
      "target": 34962
    },
    {
      "buffer": 0,
      "byteOffset": 18792,
      "byteLength": 4848,
      "target": 34962
    },
    {
      "buffer": 0,
      "byteOffset": 23640,
      "byteLength": 14616,
      "target": 34962
    },
    {
      "buffer": 0,
      "byteOffset": 38256,
      "byteLength": 32472,
      "target": 34962
    },
    {
      "buffer": 0,
      "byteOffset": 70728,
      "byteLength": 13320,
      "target": 34962
    }
  ],
  "buffers": [
    {
      "byteLength": 84048,
      "uri": "data:application/octet-stream;base64,"
    }
  ]
}