{
  "asset": {
    "version": "2.0",
    "generator": "TES-23 Cosmic Ray Renderer"
  },
  "extensionsUsed": [
    "KHR_materials_unlit"
  ],
  "extensionsRequired": [
    "KHR_materials_unlit"
  ],
  "scene": 0,
  "scenes": [
    {
      "nodes": [
        0
      ]
    }
  ],
  "nodes": [
    {
      "name": "CosmicRayEvent",
      "mesh": 0
    }
  ],
  "meshes": [
    {
      "name": "CosmicRayEvent",
      "primitives": [
        {
          "attributes": {
            "POSITION": 0
          },
          "material": 0,
          "mode": 1
        },
        {
          "attributes": {
            "POSITION": 1
          },
          "material": 1,
          "mode": 1
        },
        {
          "attributes": {
            "POSITION": 2
          },
          "material": 2,
          "mode": 1
        },
        {
          "attributes": {
            "POSITION": 3
          },
          "material": 3,
          "mode": 1
        },
        {
          "attributes": {
            "POSITION": 4
          },
          "material": 4,
          "mode": 1
        }
      ]
    }
  ],
  "materials": [
    {
      "name": "primary",
      "extensions": {
        "KHR_materials_unlit": {}
      },
      "pbrMetallicRoughness": {
        "baseColorFactor": [
          0.961,
          0.961,
          0.961,
          1
        ],
        "metallicFactor": 0,
        "roughnessFactor": 1
      }
    },
    {
      "name": "vertex",
      "extensions": {
        "KHR_materials_unlit": {}
      },
      "pbrMetallicRoughness": {
        "baseColorFactor": [
          0.902,
          0.902,
          0.902,
          0.9
        ],
        "metallicFactor": 0,
        "roughnessFactor": 1
      }
    },
    {
      "name": "em",
      "extensions": {
        "KHR_materials_unlit": {}
      },
      "pbrMetallicRoughness": {
        "baseColorFactor": [
          0.471,
          0.824,
          1,
          1
        ],
        "metallicFactor": 0,
        "roughnessFactor": 1
      }
    },
    {
      "name": "hadron",
      "extensions": {
        "KHR_materials_unlit": {}
      },
      "pbrMetallicRoughness": {
        "baseColorFactor": [
          0.549,
          1,
          0.745,
          1
        ],
        "metallicFactor": 0,
        "roughnessFactor": 1
      }
    },
    {
      "name": "delta",
      "extensions": {
        "KHR_materials_unlit": {}
      },
      "pbrMetallicRoughness": {
        "baseColorFactor": [
          0.804,
          0.647,
          1,
          1
        ],
        "metallicFactor": 0,
        "roughnessFactor": 1
      }
    }
  ],
  "accessors": [
    {
      "bufferView": 0,
      "byteOffset": 0,
      "componentType": 5126,
      "count": 1500,
      "type": "VEC3",
      "min": [
        -0.48815056681632996,
        -1.0003186464309692,
        0
      ],
      "max": [
        0.497878760099411,
        1.0221432447433472,
        0
      ]
    },
    {
      "bufferView": 1,
      "byteOffset": 0,
      "componentType": 5126,
      "count": 320,
      "type": "VEC3",
      "min": [
        -0.00909977126866579,
        -0.015643544495105743,
        -0.07054213434457779
      ],
      "max": [
        0.01796526089310646,
        0.0173622015863657,
        0.12036994099617004
      ]
    },
    {
      "bufferView": 2,
      "byteOffset": 0,
      "componentType": 5126,
      "count": 472,
      "type": "VEC3",
      "min": [
        -0.005434279330074787,
        -0.0018477198900654912,
        -0.05293775722384453
      ],
      "max": [
        0.06707684695720673,
        0.16039343178272247,
        0.02154451049864292
      ]
    },
    {
      "bufferView": 3,
      "byteOffset": 0,
      "componentType": 5126,
      "count": 3690,
      "type": "VEC3",
      "min": [
        -0.005065143574029207,
        -0.0026178753469139338,
        -0.9359680414199829
      ],
      "max": [
        0.2529977262020111,
        0.4032474756240845,
        0.6254681944847107
      ]
    },
    {
      "bufferView": 4,
      "byteOffset": 0,
      "componentType": 5126,
      "count": 698,
      "type": "VEC3",
      "min": [
        -0.1394835263490677,
        -0.09872061759233475,
        -0.5050767064094543
      ],
      "max": [
        0.11442870646715164,
        0.15212859213352203,
        0.15495456755161285
      ]
    }
  ],
  "bufferViews": [
    {
      "buffer": 0,
      "byteOffset": 0,
      "byteLength": 18000,
      "target": 34962
    },
    {
      "buffer": 0,
      "byteOffset": 18000,
      "byteLength": 3840,
      "target": 34962
    },
    {
      "buffer": 0,
      "byteOffset": 21840,
      "byteLength": 5664,
      "target": 34962
    },
    {
      "buffer": 0,
      "byteOffset": 27504,
      "byteLength": 44280,
      "target": 34962
    },
    {
      "buffer": 0,
      "byteOffset": 71784,
      "byteLength": 8376,
      "target": 34962
    }
  ],
  "buffers": [
    {
      "byteLength": 80160,
      "uri": "data:application/octet-stream;base64,"
    }
  ]
}