<?xml version="1.0" encoding="UTF-8"?>
<svg xmlns="http://www.w3.org/2000/svg" width="2000" height="2000" viewBox="0 0 2000 2000">
<g fill="none" stroke-linecap="round" stroke-linejoin="round">
  <path d="M 998.97 1002.52 L 1002.04 1001.18 L 1005.09 999.84 L 1008.13 998.51 L 1011.17 997.19 L 1014.17 995.84 L 1017.15 994.47 L 1020.11 993.09 L 1023.07 991.75 L 1026.04 990.45 L 1028.98 989.15 L 1031.92 987.86 L 1034.84 986.57 L 1037.75 985.28 L 1040.65 984.00 L 1043.54 982.71 L 1046.41 981.42 L 1049.26 980.12 L 1052.09 978.79 L 1054.92 977.50 L 1057.73 976.19 L 1060.52 974.87 L 1063.31 973.57 L 1066.10 972.30 L 1068.89 971.06 L 1071.66 969.81 L 1074.44 968.60 L 1077.21 967.41 L 1079.99 966.27 L 1082.76 965.14 L 1085.52 964.02" stroke="rgb(120,210,255)" stroke-opacity="0.851" stroke-width="1.63" />
  <path d="M 1000.96 999.30 L 1004.23 998.16 L 1007.48 997.01 L 1010.72 995.83 L 1013.94 994.66 L 1017.16 993.51 L 1020.37 992.38 L 1023.56 991.25 L 1026.73 990.13 L 1029.89 989.00 L 1033.04 987.88 L 1036.19 986.82 L 1039.33 985.77 L 1042.44 984.73 L 1045.56 983.71 L 1048.65 982.68 L 1051.74 981.69 L 1054.83 980.74 L 1057.90 979.79 L 1060.96 978.87 L 1063.98 977.93 L 1067.01 977.02 L 1070.02 976.10 L 1073.02 975.16 L 1076.00 974.24 L 1078.97 973.28 L 1081.92 972.32 L 1084.87 971.38 L 1087.81 970.44 L 1090.74 969.50 L 1093.65 968.55 L 1096.55 967.62 L 1099.42 966.66 L 1102.28 965.71 L 1105.12 964.76 L 1107.95 963.81 L 1110.78 962.88 L 1113.59 961.97 L 1116.40 961.06 L 1119.19 960.15 L 1121.96 959.23 L 1124.73 958.33 L 1127.49 957.45 L 1130.24 956.56 L 1132.98 955.68 L 1135.71 954.81 L 1138.44 953.94 L 1141.16 953.08 L 1143.87 952.23" stroke="rgb(120,210,255)" stroke-opacity="0.850" stroke-width="1.62" />
  <path d="M 1002.02 997.78 L 1004.85 996.50 L 1007.63 995.17 L 1010.41 993.85 L 1013.15 992.49 L 1015.85 991.08 L 1018.53 989.63" stroke="rgb(120,210,255)" stroke-opacity="0.468" stroke-width="1.62" />
  <path d="M 1079.91 983.09 L 1083.06 982.70 L 1086.19 982.24 L 1089.31 981.79 L 1092.42 981.36 L 1095.50 980.89 L 1098.58 980.45 L 1101.64 980.01 L 1104.70 979.64 L 1107.75 979.24 L 1110.78 978.84 L 1113.78 978.31 L 1116.77 977.79 L 1119.75 977.25 L 1122.72 976.72 L 1125.67 976.18 L 1128.62 975.68 L 1131.55 975.18 L 1134.48 974.74 L 1137.39 974.31 L 1140.28 973.83 L 1143.15 973.33 L 1146.00 972.78" stroke="rgb(120,210,255)" stroke-opacity="0.849" stroke-width="1.62" />
  <path d="M 1060.67 979.47 L 1063.64 978.19 L 1066.58 976.86 L 1069.48 975.48 L 1072.36 974.07 L 1075.23 972.66 L 1078.11 971.32 L 1080.99 969.96 L 1083.85 968.61 L 1086.70 967.23 L 1089.53 965.85 L 1092.31 964.43 L 1095.08 963.01" stroke="rgb(120,210,255)" stroke-opacity="0.848" stroke-width="1.62" />
  <path d="M 1001.19 1003.14 L 1004.29 1001.80 L 1007.37 1000.46 L 1010.44 999.13 L 1013.49 997.80 L 1016.52 996.44 L 1019.50 995.02 L 1022.45 993.57 L 1025.39 992.11 L 1028.31 990.67 L 1031.21 989.19 L 1034.08 987.70 L 1036.95 986.23 L 1039.78 984.72 L 1042.64 983.28 L 1045.48 981.83 L 1048.34 980.44 L 1051.18 979.05 L 1054.00 977.66 L 1056.82 976.29 L 1059.64 974.93 L 1062.44 973.56 L 1065.22 972.20 L 1068.00 970.86 L 1070.75 969.48 L 1073.46 968.06 L 1076.15 966.64 L 1078.84 965.22 L 1081.50 963.81 L 1084.18 962.45 L 1086.86 961.10 L 1089.52 959.75 L 1092.17 958.40 L 1094.83 957.08 L 1097.47 955.77 L 1100.12 954.49 L 1102.73 953.16 L 1105.34 951.85 L 1107.92 950.51 L 1110.48 949.16 L 1113.02 947.80 L 1115.55 946.44 L 1118.05 945.05 L 1120.52 943.62 L 1122.94 942.15 L 1125.36 940.68 L 1127.75 939.19 L 1130.11 937.69 L 1132.46 936.17 L 1134.77 934.62 L 1137.07 933.07 L 1139.36 931.53 L 1141.63 929.98 L 1143.88 928.43 L 1146.13 926.88 L 1148.37 925.34 L 1150.59 923.80 L 1152.79 922.25 L 1154.98 920.69 L 1157.16 919.14 L 1159.32 917.59 L 1161.51 916.09 L 1163.68 914.58 L 1165.84 913.09 L 1167.99 911.59 L 1170.13 910.10 L 1172.25 908.60 L 1174.38 907.13 L 1176.50 905.66 L 1178.57 904.14 L 1180.63 902.62 L 1182.68 901.11" stroke="rgb(120,210,255)" stroke-opacity="0.846" stroke-width="1.61" />
  <path d="M 1000.64 998.94 L 1003.68 997.79 L 1006.70 996.62 L 1009.70 995.43 L 1012.66 994.20 L 1015.62 992.98 L 1018.55 991.73 L 1021.46 990.48 L 1024.37 989.24 L 1027.26 988.00 L 1030.13 986.74 L 1032.98 985.48 L 1035.81 984.20 L 1038.63 982.93 L 1041.44 981.66 L 1044.24 980.40 L 1047.03 979.15 L 1049.78 977.84 L 1052.54 976.56 L 1055.26 975.25 L 1057.97 973.95 L 1060.67 972.63 L 1063.34 971.29 L 1065.99 969.94 L 1068.64 968.61 L 1071.27 967.29 L 1073.91 966.00 L 1076.54 964.70 L 1079.14 963.38 L 1081.72 962.05 L 1084.29 960.73 L 1086.86 959.42 L 1089.42 958.14 L 1091.97 956.86 L 1094.54 955.62 L 1097.09 954.39 L 1099.61 953.11 L 1102.13 951.88 L 1104.64 950.65 L 1107.16 949.46 L 1109.66 948.24 L 1112.15 947.04 L 1114.63 945.84" stroke="rgb(120,210,255)" stroke-opacity="0.845" stroke-width="1.61" />
  <path d="M 1002.93 1001.02 L 1006.02 999.85 L 1009.12 998.71 L 1012.20 997.57 L 1015.27 996.43 L 1018.33 995.31 L 1021.39 994.23 L 1024.44 993.17 L 1027.48 992.10 L 1030.49 991.02 L 1033.49 989.93 L 1036.48 988.84 L 1039.45 987.75 L 1042.42 986.68 L 1045.36 985.58 L 1048.29 984.47 L 1051.20 983.34 L 1054.10 982.25 L 1056.99 981.12" stroke="rgb(120,210,255)" stroke-opacity="0.844" stroke-width="1.60" />
  <path d="M 1075.23 983.53 L 1078.30 982.44 L 1081.36 981.30 L 1084.40 980.17 L 1087.44 979.11 L 1090.47 978.05 L 1093.49 977.04 L 1096.52 976.06 L 1099.52 975.03 L 1102.49 973.91 L 1105.44 972.80 L 1108.37 971.68 L 1111.28 970.56 L 1114.16 969.38 L 1117.05 968.23 L 1119.91 967.05 L 1122.72 965.82 L 1125.52 964.60 L 1128.26 963.30 L 1131.01 962.04 L 1133.78 960.83 L 1136.53 959.61 L 1139.27 958.42 L 1142.01 957.24 L 1144.73 956.06 L 1147.44 954.88 L 1150.11 953.62 L 1152.77 952.37 L 1155.43 951.12 L 1158.08 949.89 L 1160.71 948.63 L 1163.35 947.39 L 1165.98 946.17 L 1168.60 944.94 L 1171.19 943.66 L 1173.77 942.40 L 1176.34 941.14 L 1178.90 939.89 L 1181.45 938.64 L 1184.00 937.45 L 1186.54 936.25 L 1189.05 935.01 L 1191.56 933.79 L 1194.04 932.53 L 1196.52 931.31 L 1199.00 930.10 L 1201.47 928.92 L 1203.91 927.73 L 1206.34 926.52" stroke="rgb(120,210,255)" stroke-opacity="0.843" stroke-width="1.60" />
  <path d="M 1000.44 998.04 L 1003.56 997.03 L 1006.67 996.04 L 1009.78 995.08 L 1012.87 994.14 L 1015.95 993.21 L 1018.99 992.20 L 1022.02 991.20 L 1025.05 990.27 L 1028.07 989.35 L 1031.09 988.43 L 1034.08 987.51 L 1037.07 986.59 L 1040.07 985.73 L 1043.06 984.85 L 1046.04 984.00 L 1049.01 983.16 L 1051.96 982.28 L 1054.89 981.38 L 1057.78 980.43 L 1060.67 979.47 L 1063.55 978.54 L 1066.42 977.62 L 1069.28 976.70 L 1072.13 975.80 L 1074.99 974.98 L 1077.84 974.15" stroke="rgb(120,210,255)" stroke-opacity="0.843" stroke-width="1.60" />
  <path d="M 1004.00 997.12 L 1006.94 995.93 L 1009.85 994.73 L 1012.77 993.57 L 1015.70 992.48 L 1018.61 991.37 L 1021.51 990.26 L 1024.41 989.22 L 1027.30 988.19 L 1030.18 987.14 L 1033.08 986.19 L 1035.97 985.26 L 1038.86 984.35 L 1041.74 983.46 L 1044.60 982.56 L 1047.44 981.63 L 1050.26 980.68 L 1053.07 979.72 L 1055.85 978.73 L 1058.62 977.72 L 1061.39 976.72 L 1064.10 975.65 L 1066.82 974.58 L 1069.51 973.49 L 1072.18 972.41 L 1074.85 971.33 L 1077.51 970.24 L 1080.15 969.17 L 1082.79 968.11" stroke="rgb(120,210,255)" stroke-opacity="0.841" stroke-width="1.60" />
  <path d="M 1003.80 1001.57 L 1007.03 1000.44 L 1010.25 999.30 L 1013.45 998.16 L 1016.62 997.00 L 1019.79 995.85 L 1022.94 994.70 L 1026.08 993.56 L 1029.22 992.47 L 1032.34 991.36 L 1035.45 990.24 L 1038.55 989.14 L 1041.63 988.06 L 1044.70 986.96 L 1047.75 985.86 L 1050.80 984.77 L 1053.82 983.66 L 1056.81 982.54 L 1059.81 981.46 L 1062.80 980.38" stroke="rgb(120,210,255)" stroke-opacity="0.840" stroke-width="1.59" />
  <path d="M 998.31 1001.43 L 1001.00 1000.46 L 1003.68 999.51 L 1006.31 998.47 L 1008.94 997.43 L 1011.55 996.40 L 1014.16 995.38 L 1016.77 994.41 L 1019.36 993.40 L 1021.95 992.42 L 1024.52 991.43 L 1027.09 990.47 L 1029.69 989.64 L 1032.30 988.87 L 1034.86 987.99 L 1037.40 987.08 L 1039.93 986.17 L 1042.44 985.27 L 1044.95 984.38 L 1047.44 983.46 L 1049.91 982.52 L 1052.37 981.59 L 1054.82 980.65 L 1057.25 979.71 L 1059.64 978.69 L 1062.01 977.65 L 1064.38 976.64 L 1066.74 975.61 L 1069.08 974.58 L 1071.43 973.57 L 1073.76 972.57 L 1076.10 971.63 L 1078.44 970.69 L 1080.76 969.75 L 1083.09 968.86 L 1085.41 967.97 L 1087.73 967.13 L 1090.05 966.30 L 1092.39 965.57 L 1094.72 964.85 L 1097.04 964.14 L 1099.34 963.37 L 1101.61 962.55 L 1103.87 961.71 L 1106.12 960.87 L 1108.36 960.06 L 1110.60 959.24 L 1112.82 958.41 L 1115.02 957.54 L 1117.20 956.66" stroke="rgb(120,210,255)" stroke-opacity="0.461" stroke-width="1.59" />
  <path d="M 1040.07 985.73 L 1042.68 984.97 L 1045.29 984.22 L 1047.90 983.50 L 1050.47 982.76 L 1053.03 982.02 L 1055.57 981.28 L 1058.12 980.61 L 1060.65 979.94 L 1063.18 979.28 L 1065.72 978.67 L 1068.25 978.09 L 1070.76 977.51 L 1073.23 976.79 L 1075.69 976.09 L 1078.15 975.39 L 1080.62 974.75 L 1083.08 974.05 L 1085.53 973.36 L 1087.95 972.63 L 1090.37 971.89 L 1092.76 971.16 L 1095.17 970.49 L 1097.59 969.84 L 1099.98 969.14 L 1102.34 968.36 L 1104.70 967.59 L 1107.03 966.80 L 1109.29 965.91 L 1111.55 965.02 L 1113.81 964.21 L 1116.05 963.42 L 1118.31 962.70 L 1120.57 962.00 L 1122.81 961.30 L 1125.06 960.61 L 1127.34 960.01" stroke="rgb(120,210,255)" stroke-opacity="0.458" stroke-width="1.57" />
  <path d="M 997.49 1000.48 L 1000.12 999.30 L 1002.72 998.12 L 1005.30 996.91 L 1007.88 995.71 L 1010.45 994.53 L 1013.00 993.34 L 1015.53 992.11 L 1018.04 990.89 L 1020.54 989.65 L 1023.03 988.44 L 1025.56 987.34 L 1028.05 986.17 L 1030.52 985.00 L 1032.99 983.84" stroke="rgb(120,210,255)" stroke-opacity="0.457" stroke-width="1.57" />
  <path d="M 998.85 999.38 L 1001.41 998.57 L 1003.95 997.78 L 1006.50 997.04 L 1009.08 996.42 L 1011.64 995.80 L 1014.19 995.18 L 1016.74 994.56 L 1019.27 993.92 L 1021.79 993.29 L 1024.30 992.68 L 1026.82 992.12 L 1029.32 991.57 L 1031.81 990.97 L 1034.28 990.39 L 1036.76 989.88 L 1039.23 989.37 L 1041.69 988.87 L 1044.13 988.33 L 1046.56 987.83 L 1048.97 987.28 L 1051.39 986.86 L 1053.79 986.45 L 1056.19 986.04 L 1058.57 985.58 L 1060.96 985.15 L 1063.33 984.72 L 1065.73 984.43 L 1068.11 984.15 L 1070.50 983.94 L 1072.87 983.72 L 1075.23 983.53 L 1077.58 983.31 L 1079.91 983.09 L 1082.23 982.86 L 1084.55 982.63 L 1086.87 982.46 L 1089.15 982.28 L 1091.43 982.12" stroke="rgb(120,210,255)" stroke-opacity="0.449" stroke-width="1.52" />
  <path d="M 1002.90 1002.82 L 1004.95 1002.24 L 1007.01 1001.72 L 1009.06 1001.20 L 1011.11 1000.73 L 1013.16 1000.28 L 1015.20 999.83 L 1017.24 999.41 L 1019.29 999.06 L 1021.33 998.76 L 1023.34 998.44 L 1025.34 998.08 L 1027.34 997.68 L 1029.31 997.24 L 1031.28 996.79 L 1033.23 996.31 L 1035.17 995.83 L 1037.13 995.48 L 1039.09 995.19 L 1041.01 994.94 L 1042.93 994.70 L 1044.84 994.50 L 1046.74 994.24 L 1048.62 993.98 L 1050.50 993.74 L 1052.40 993.54 L 1054.29 993.31 L 1056.17 993.14 L 1058.05 992.96 L 1059.92 992.78 L 1061.79 992.61 L 1063.65 992.44 L 1065.49 992.29 L 1067.34 992.11 L 1069.16 991.98 L 1070.97 991.82 L 1072.76 991.68 L 1074.56 991.55 L 1076.34 991.34 L 1078.11 991.15" stroke="rgb(140,255,190)" stroke-opacity="0.588" stroke-width="1.31" />
  <path d="M 1001.04 999.83 L 1003.17 1000.24 L 1005.29 1000.65 L 1007.41 1001.09 L 1009.50 1001.50 L 1011.57 1001.84 L 1013.63 1002.18 L 1015.68 1002.53 L 1017.71 1002.89 L 1019.73 1003.34 L 1021.73 1003.78 L 1023.73 1004.29 L 1025.73 1004.80 L 1027.76 1005.33 L 1029.79 1005.87 L 1031.83 1006.46 L 1033.77 1007.16 L 1035.70 1007.86 L 1037.63 1008.59 L 1039.54 1009.30 L 1041.41 1010.04 L 1043.30 1010.82 L 1045.23 1011.55 L 1047.18 1012.31 L 1049.17 1013.01 L 1051.15 1013.72 L 1053.17 1014.43 L 1055.16 1015.16 L 1057.14 1015.88 L 1059.13 1016.57 L 1061.13 1017.25 L 1063.11 1017.94 L 1065.10 1018.59 L 1067.05 1019.22 L 1068.98 1019.86 L 1070.99 1020.42 L 1072.95 1021.09 L 1074.88 1021.80 L 1076.83 1022.53 L 1078.77 1023.25 L 1080.68 1023.97 L 1082.57 1024.68 L 1084.48 1025.38" stroke="rgb(255,210,135)" stroke-opacity="0.642" stroke-width="1.27" />
  <path d="M 998.54 999.86 L 998.04 1002.34 L 997.54 1004.80 L 997.04 1007.23 L 996.54 1009.65 L 996.08 1012.03 L 995.64 1014.42 L 995.21 1016.80 L 994.77 1019.18 L 994.33 1021.53 L 993.91 1023.87 L 993.50 1026.21 L 993.13 1028.58 L 992.78 1030.96 L 992.43 1033.32 L 992.06 1035.69 L 991.69 1038.02 L 991.31 1040.31 L 990.93 1042.57 L 990.54 1044.85 L 990.14 1047.13 L 989.75 1049.37 L 989.32 1051.60 L 988.93 1053.83 L 988.59 1056.07 L 988.25 1058.29 L 988.00 1060.53 L 987.76 1062.76 L 987.51 1064.98 L 987.26 1067.20 L 986.98 1069.43 L 986.66 1071.59 L 986.32 1073.75 L 985.99 1075.91 L 985.65 1078.05 L 985.30 1080.24 L 984.99 1082.44 L 984.67 1084.62 L 984.35 1086.82 L 984.01 1089.04 L 983.66 1091.26 L 983.33 1093.47 L 983.10 1095.71 L 982.92 1097.94 L 982.74 1100.18 L 982.56 1102.42 L 982.43 1104.65 L 982.24 1106.87 L 982.04 1109.08 L 981.81 1111.27 L 981.61 1113.45 L 981.40 1115.62 L 981.19 1117.79 L 980.99 1119.94 L 980.79 1122.09 L 980.61 1124.24 L 980.39 1126.36 L 980.18 1128.48 L 979.99 1130.58 L 979.81 1132.68 L 979.62 1134.76 L 979.43 1136.82 L 979.25 1138.87 L 979.13 1140.94 L 978.97 1143.00 L 978.82 1145.04 L 978.66 1147.07 L 978.54 1149.10 L 978.39 1151.13 L 978.26 1153.15 L 978.16 1155.20 L 978.08 1157.26 L 978.06 1159.32 L 978.07 1161.42 L 978.02 1163.54 L 977.92 1165.67 L 977.79 1167.82 L 977.66 1169.97 L 977.53 1172.09 L 977.39 1174.21 L 977.21 1176.34 L 977.02 1178.43 L 976.83 1180.52 L 976.67 1182.62" stroke="rgb(255,210,135)" stroke-opacity="0.638" stroke-width="1.26" />
  <path d="M 1041.26 990.08 L 1043.41 989.65 L 1045.54 989.16 L 1047.67 988.69 L 1049.79 988.22 L 1051.88 987.69 L 1053.96 987.17 L 1055.98 986.65 L 1058.05 986.24 L 1060.16 986.01 L 1062.25 985.66 L 1064.33 985.34 L 1066.43 985.09 L 1068.51 984.81 L 1070.58 984.53 L 1072.65 984.27 L 1074.73 984.05 L 1076.80 983.92 L 1078.86 983.77 L 1080.92 983.62 L 1082.97 983.55 L 1085.02 983.43 L 1087.06 983.37 L 1089.09 983.35 L 1091.12 983.33 L 1093.14 983.29 L 1095.15 983.24" stroke="rgb(140,255,190)" stroke-opacity="0.573" stroke-width="1.26" />
  <path d="M 1001.64 1002.46 L 998.68 1002.23 L 995.74 1001.97 L 992.83 1001.70 L 989.92 1001.40 L 987.01 1001.15 L 984.12 1000.88 L 981.26 1000.55 L 978.41 1000.25 L 975.57 999.96 L 972.73 999.69 L 969.90 999.49 L 967.06 999.37 L 964.23 999.26 L 961.40 999.27 L 958.58 999.28 L 955.79 999.35 L 953.01 999.42 L 950.24 999.47 L 947.47 999.42" stroke="rgb(255,210,135)" stroke-opacity="0.432" stroke-width="1.24" />
  <path d="M 1000.39 1001.14 L 1002.55 1000.50 L 1004.69 999.83 L 1006.83 999.19 L 1008.99 998.61 L 1011.12 998.01 L 1013.24 997.37 L 1015.33 996.69 L 1017.42 996.03 L 1019.50 995.42 L 1021.55 994.76 L 1023.61 994.12 L 1025.71 993.59 L 1027.81 993.13 L 1029.91 992.68 L 1032.01 992.26 L 1034.08 991.75 L 1036.16 991.36 L 1038.22 990.88 L 1040.27 990.37 L 1042.29 989.80 L 1044.29 989.22 L 1046.28 988.66 L 1048.29 988.15 L 1050.29 987.64 L 1052.27 987.11 L 1054.24 986.57 L 1056.23 986.16 L 1058.19 985.72 L 1060.13 985.24 L 1062.04 984.73 L 1063.95 984.29 L 1065.85 983.86 L 1067.75 983.42 L 1069.59 982.92 L 1071.43 982.37 L 1073.26 981.79 L 1075.05 981.09 L 1076.85 980.41 L 1078.65 979.75 L 1080.46 979.09 L 1082.24 978.41 L 1084.03 977.75 L 1085.83 977.16 L 1087.59 976.52 L 1089.33 975.85 L 1091.07 975.18 L 1092.80 974.52 L 1094.52 973.85 L 1096.26 973.29 L 1098.00 972.73 L 1099.73 972.17 L 1101.42 971.57 L 1103.10 970.94 L 1104.80 970.37 L 1106.49 969.80 L 1108.19 969.22 L 1109.89 968.69 L 1111.58 968.19 L 1113.27 967.73 L 1114.92 967.23 L 1116.58 966.72 L 1118.23 966.22 L 1119.88 965.78 L 1121.52 965.32 L 1123.14 964.85 L 1124.74 964.40 L 1126.37 964.01 L 1127.98 963.61 L 1129.58 963.20 L 1131.19 962.84 L 1132.81 962.57 L 1134.45 962.28 L 1136.08 962.04" stroke="rgb(140,255,190)" stroke-opacity="0.567" stroke-width="1.23" />
  <path d="M 997.23 999.83 L 1000.24 998.68 L 1003.24 997.53 L 1006.22 996.36 L 1009.17 995.18 L 1012.14 994.02 L 1015.07 992.84 L 1018.00 991.70" stroke="rgb(205,165,255)" stroke-opacity="0.717" stroke-width="1.23" />
  <path d="M 1111.52 964.90 L 1114.67 965.79 L 1117.80 966.74" stroke="rgb(205,165,255)" stroke-opacity="0.713" stroke-width="1.22" />
  <path d="M 1051.69 983.77 L 1054.65 983.41 L 1057.58 983.06 L 1060.50 982.73 L 1063.41 982.41 L 1066.30 982.09 L 1069.20 981.80 L 1072.07 981.47 L 1074.91 981.15 L 1077.77 980.85 L 1080.62 980.53 L 1083.48 980.23 L 1086.33 979.96 L 1089.15 979.70 L 1091.97 979.44 L 1094.78 979.18 L 1097.57 978.91 L 1100.37 978.61 L 1103.16 978.28 L 1105.95 978.01 L 1108.73 977.76 L 1111.48 977.50 L 1114.24 977.29 L 1116.98 977.08 L 1119.76 976.93 L 1122.52 976.75 L 1125.28 976.57 L 1128.00 976.45 L 1130.71 976.32 L 1133.42 976.20 L 1136.16 976.11 L 1138.88 976.04 L 1141.58 976.00 L 1144.30 976.04 L 1146.99 976.11 L 1149.67 976.18 L 1152.35 976.22 L 1155.02 976.23" stroke="rgb(205,165,255)" stroke-opacity="0.713" stroke-width="1.22" />
  <path d="M 999.01 998.91 L 1002.22 998.00 L 1005.41 997.10 L 1008.57 996.17 L 1011.73 995.25 L 1014.87 994.33 L 1017.99 993.38 L 1021.11 992.45 L 1024.21 991.52 L 1027.30 990.61 L 1030.36 989.64 L 1033.43 988.74 L 1036.50 987.89 L 1039.56 987.04 L 1042.61 986.21 L 1045.65 985.39 L 1048.67 984.57 L 1051.69 983.77 L 1054.69 982.94 L 1057.68 982.14 L 1060.66 981.33 L 1063.62 980.54 L 1066.57 979.71 L 1069.50 978.86 L 1072.40 977.95 L 1075.28 977.04 L 1078.16 976.17 L 1081.02 975.26 L 1083.87 974.35 L 1086.70 973.43 L 1089.52 972.52 L 1092.32 971.58 L 1095.11 970.67 L 1097.88 969.74 L 1100.64 968.78 L 1103.38 967.83 L 1106.11 966.85 L 1108.82 965.87 L 1111.52 964.90 L 1114.21 963.94 L 1116.89 962.96 L 1119.55 961.99 L 1122.20 961.03 L 1124.87 960.12 L 1127.51 959.20" stroke="rgb(205,165,255)" stroke-opacity="0.712" stroke-width="1.22" />
  <path d="M 1081.02 975.26 L 1084.39 975.61 L 1087.72 976.03 L 1091.04 976.42 L 1094.35 976.79 L 1097.63 977.17 L 1100.90 977.52 L 1104.16 977.83 L 1107.39 978.12 L 1110.61 978.41 L 1113.82 978.67 L 1117.02 978.93 L 1120.22 979.17 L 1123.40 979.42 L 1126.56 979.78 L 1129.71 980.14 L 1132.84 980.52 L 1135.96 980.88 L 1139.05 981.27 L 1142.14 981.59 L 1145.23 981.95 L 1148.31 982.31 L 1151.38 982.63 L 1154.45 982.97 L 1157.50 983.33 L 1160.55 983.69 L 1163.58 984.09 L 1166.60 984.49 L 1169.60 984.82 L 1172.59 985.17 L 1175.58 985.53 L 1178.55 985.86 L 1181.51 986.13 L 1184.45 986.41 L 1187.37 986.69 L 1190.30 986.96 L 1193.20 987.25 L 1196.10 987.55 L 1198.98 987.86 L 1201.86 988.17 L 1204.71 988.48 L 1207.56 988.77 L 1210.40 989.04 L 1213.23 989.29 L 1216.05 989.53 L 1218.87 989.73 L 1221.67 989.93 L 1224.47 990.18 L 1227.26 990.41 L 1230.03 990.67 L 1232.79 990.92 L 1235.54 991.15 L 1238.28 991.43 L 1241.01 991.74 L 1243.73 992.05 L 1246.42 992.39 L 1249.10 992.74 L 1251.77 993.08 L 1254.43 993.43 L 1257.09 993.78 L 1259.73 994.11 L 1262.37 994.45" stroke="rgb(205,165,255)" stroke-opacity="0.711" stroke-width="1.22" />
  <path d="M 1001.37 1001.60 L 1003.64 1003.25 L 1005.87 1004.93 L 1008.05 1006.67 L 1010.22 1008.41 L 1012.38 1010.15 L 1014.52 1011.91 L 1016.67 1013.66 L 1018.77 1015.45 L 1020.83 1017.28 L 1022.86 1019.12 L 1024.92 1020.91 L 1026.98 1022.66 L 1029.08 1024.38 L 1031.17 1026.07 L 1033.27 1027.73 L 1035.35 1029.39 L 1037.42 1031.07 L 1039.51 1032.71 L 1041.57 1034.36 L 1043.60 1036.03 L 1045.60 1037.72 L 1047.61 1039.40 L 1049.69 1041.00 L 1051.77 1042.60" stroke="rgb(255,210,135)" stroke-opacity="0.427" stroke-width="1.21" />
  <path d="M 998.30 999.57 L 996.84 1001.90 L 995.37 1004.21 L 993.95 1006.52 L 992.51 1008.85 L 991.02 1011.12 L 989.54 1013.37 L 987.96 1015.58 L 986.39 1017.80 L 984.75 1019.97 L 983.00 1022.05 L 981.26 1024.14 L 979.58 1026.23 L 978.00 1028.40 L 976.51 1030.60 L 974.92 1032.71 L 973.36 1034.86 L 971.84 1037.02 L 970.33 1039.17 L 968.86 1041.33 L 967.44 1043.48 L 966.10 1045.66 L 964.77 1047.84 L 963.45 1050.01 L 962.14 1052.17 L 960.86 1054.35 L 959.61 1056.52 L 958.39 1058.67 L 957.19 1060.82 L 956.02 1062.97 L 954.87 1065.12 L 953.73 1067.26 L 952.59 1069.38 L 951.49 1071.49 L 950.39 1073.59 L 949.33 1075.66 L 948.28 1077.72 L 947.23 1079.78 L 946.19 1081.82 L 945.09 1083.84 L 944.05 1085.85 L 943.05 1087.85 L 942.06 1089.87 L 941.08 1091.88 L 940.05 1093.86 L 938.90 1095.78 L 937.76 1097.68 L 936.66 1099.60 L 935.53 1101.49 L 934.40 1103.35 L 933.27 1105.19 L 932.10 1107.01 L 930.95 1108.82 L 929.71 1110.63 L 928.46 1112.41 L 927.20 1114.19 L 925.94 1115.97 L 924.73 1117.79 L 923.50 1119.60 L 922.27 1121.40 L 921.11 1123.25 L 919.98 1125.10 L 918.86 1126.97 L 917.68 1128.78 L 916.54 1130.59 L 915.39 1132.38 L 914.24 1134.16 L 913.05 1135.91 L 911.93 1137.67 L 910.86 1139.46 L 909.80 1141.25 L 908.73 1143.04 L 907.69 1144.84 L 906.64 1146.60 L 905.58 1148.35 L 904.50 1150.07 L 903.38 1151.74 L 902.26 1153.40 L 901.19 1155.09 L 900.10 1156.77 L 899.00 1158.45 L 897.93 1160.12 L 896.88 1161.78" stroke="rgb(255,210,135)" stroke-opacity="0.425" stroke-width="1.21" />
  <path d="M 1000.07 1003.44 L 1003.02 1005.26 L 1005.95 1007.06 L 1008.91 1008.80 L 1011.85 1010.54 L 1014.78 1012.27 L 1017.68 1014.01 L 1020.56 1015.78 L 1023.43 1017.54 L 1026.28 1019.30 L 1029.11 1021.07 L 1031.91 1022.86 L 1034.70 1024.64 L 1037.49 1026.40 L 1040.27 1028.15 L 1043.03 1029.90 L 1045.78 1031.65 L 1048.52 1033.39 L 1051.24 1035.15 L 1053.95 1036.89 L 1056.67 1038.60 L 1059.35 1040.33 L 1062.00 1042.10 L 1064.64 1043.84 L 1067.27 1045.59 L 1069.88 1047.33 L 1072.48 1049.07 L 1075.08 1050.79 L 1077.66 1052.50 L 1080.24 1054.20 L 1082.84 1055.85 L 1085.44 1057.48 L 1088.03 1059.08 L 1090.61 1060.68 L 1093.19 1062.27 L 1095.77 1063.83 L 1098.36 1065.35 L 1100.95 1066.85 L 1103.56 1068.30 L 1106.15 1069.74 L 1108.73 1071.19 L 1111.29 1072.63 L 1113.84 1074.09 L 1116.37 1075.55 L 1118.90 1076.99 L 1121.40 1078.44 L 1123.89 1079.91 L 1126.34 1081.39 L 1128.81 1082.84 L 1131.27 1084.28 L 1133.70 1085.75 L 1136.10 1087.23 L 1138.51 1088.69 L 1140.90 1090.16 L 1143.30 1091.60 L 1145.67 1093.07 L 1148.03 1094.53 L 1150.38 1095.98 L 1152.72 1097.43 L 1155.03 1098.91 L 1157.33 1100.37 L 1159.64 1101.81 L 1161.93 1103.24 L 1164.21 1104.69 L 1166.48 1106.11 L 1168.77 1107.49 L 1171.06 1108.85 L 1173.34 1110.21" stroke="rgb(140,255,190)" stroke-opacity="0.741" stroke-width="1.20" />
  <path d="M 1195.69 965.28 L 1198.62 964.84 L 1201.53 964.43 L 1204.43 964.03 L 1207.32 963.65 L 1210.20 963.27 L 1213.07 962.87 L 1215.93 962.48 L 1218.77 962.15 L 1221.60 961.82 L 1224.44 961.50 L 1227.25 961.21 L 1230.02 960.86 L 1232.76 960.52 L 1235.51 960.14 L 1238.29 959.80 L 1241.06 959.60 L 1243.82 959.40 L 1246.55 959.17 L 1249.28 958.91 L 1252.00 958.66 L 1254.71 958.39 L 1257.42 958.13 L 1260.12 957.86 L 1262.80 957.61 L 1265.49 957.32 L 1268.16 957.04 L 1270.82 956.75 L 1273.46 956.49 L 1276.11 956.22 L 1278.74 955.96 L 1281.36 955.72 L 1283.98 955.43 L 1286.58 955.15 L 1289.17 954.86 L 1291.75 954.58 L 1294.33 954.31 L 1296.89 954.07 L 1299.41 953.91 L 1301.92 953.68 L 1304.43 953.47 L 1306.92 953.26 L 1309.42 953.06 L 1311.94 952.80 L 1314.45 952.54 L 1316.93 952.26 L 1319.40 951.98" stroke="rgb(140,255,190)" stroke-opacity="0.739" stroke-width="1.19" />
  <path d="M 892.98 990.74 L 890.28 988.99 L 887.56 987.31 L 884.85 985.65 L 882.16 984.01 L 879.47 982.37 L 876.79 980.76 L 874.12 979.16 L 871.42 977.57 L 868.72 976.01 L 866.03 974.45 L 863.34 972.92 L 860.65 971.39 L 857.98 969.85 L 855.29 968.34 L 852.58 966.84 L 849.89 965.34 L 847.23 963.81 L 844.58 962.28 L 841.94 960.76 L 839.31 959.23 L 836.65 957.78 L 833.98 956.37 L 831.31 954.97 L 828.64 953.59 L 825.97 952.24 L 823.31 950.87 L 820.65 949.54 L 817.99 948.22 L 815.37 946.90 L 812.75 945.61 L 810.15 944.33 L 807.53 943.07 L 804.91 941.85 L 802.30 940.68 L 799.69 939.51 L 797.09 938.32 L 794.52 937.10 L 791.97 935.89" stroke="rgb(140,255,190)" stroke-opacity="0.736" stroke-width="1.18" />
  <path d="M 1072.76 991.68 L 1075.94 991.16 L 1079.11 990.63 L 1082.25 990.13 L 1085.37 989.62 L 1088.48 989.11 L 1091.59 988.59 L 1094.69 988.08 L 1097.76 987.52 L 1100.82 986.93 L 1103.84 986.36 L 1106.83 985.76 L 1109.80 985.16 L 1112.76 984.56 L 1115.71 983.98 L 1118.65 983.40 L 1121.58 982.75 L 1124.52 982.08 L 1127.45 981.43 L 1130.37 980.76 L 1133.27 980.08 L 1136.14 979.37 L 1139.01 978.68 L 1141.87 977.96 L 1144.72 977.24 L 1147.54 976.48 L 1150.37 975.80 L 1153.19 975.11 L 1155.99 974.42 L 1158.79 973.67 L 1161.59 972.95 L 1164.37 972.22 L 1167.16 971.52 L 1169.97 970.88 L 1172.80 970.30 L 1175.61 969.70 L 1178.42 969.12 L 1181.22 968.55 L 1184.00 967.95 L 1186.76 967.36 L 1189.52 966.76 L 1192.28 966.16 L 1195.03 965.60 L 1197.79 965.10 L 1200.54 964.60 L 1203.28 964.09 L 1206.03 963.60 L 1208.77 963.09 L 1211.50 962.58 L 1214.22 962.06 L 1216.92 961.55" stroke="rgb(140,255,190)" stroke-opacity="0.736" stroke-width="1.18" />
  <path d="M 1001.34 1003.21 L 1002.63 1006.05 L 1003.89 1008.88 L 1005.17 1011.69 L 1006.39 1014.52 L 1007.62 1017.33 L 1008.83 1020.13 L 1010.06 1022.91 L 1011.28 1025.68 L 1012.52 1028.43 L 1013.78 1031.16 L 1014.95 1033.90 L 1016.11 1036.65 L 1017.30 1039.36 L 1018.50 1042.05 L 1019.67 1044.76 L 1020.85 1047.44 L 1022.05 1050.10 L 1023.20 1052.76 L 1024.34 1055.43 L 1025.46 1058.08 L 1026.58 1060.73 L 1027.64 1063.39 L 1028.74 1066.00 L 1029.82 1068.63 L 1030.89 1071.24 L 1031.96 1073.84 L 1033.02 1076.44 L 1034.15 1078.99 L 1035.28 1081.53 L 1036.40 1084.07 L 1037.60 1086.55 L 1038.82 1089.00 L 1040.05 1091.45 L 1041.26 1093.90 L 1042.43 1096.35 L 1043.64 1098.77 L 1044.84 1101.19 L 1046.10 1103.56 L 1047.36 1105.92 L 1048.56 1108.29 L 1049.76 1110.66 L 1050.94 1113.01 L 1052.07 1115.37 L 1053.23 1117.70 L 1054.38 1120.03 L 1055.58 1122.31 L 1056.78 1124.59 L 1057.92 1126.88 L 1059.03 1129.18 L 1060.18 1131.45 L 1061.33 1133.71 L 1062.39 1136.00 L 1063.44 1138.28 L 1064.52 1140.54 L 1065.55 1142.80 L 1066.53 1145.08 L 1067.46 1147.38 L 1068.39 1149.67 L 1069.31 1151.94 L 1070.22 1154.21 L 1071.14 1156.48 L 1072.05 1158.73 L 1072.98 1160.95 L 1073.91 1163.17 L 1074.86 1165.38 L 1075.80 1167.57 L 1076.74 1169.75 L 1077.68 1171.93 L 1078.64 1174.08 L 1079.60 1176.23 L 1080.53 1178.39 L 1081.42 1180.55 L 1082.32 1182.71 L 1083.23 1184.84 L 1084.12 1186.97 L 1085.00 1189.10 L 1085.87 1191.22 L 1086.79 1193.30 L 1087.69 1195.39 L 1088.59 1197.47 L 1089.49 1199.54 L 1090.36 1201.61 L 1091.22 1203.67 L 1092.08 1205.72 L 1092.95 1207.76 L 1093.81 1209.80 L 1094.67 1211.82 L 1095.54 1213.83 L 1096.45 1215.81 L 1097.34 1217.80 L 1098.22 1219.78 L 1099.09 1221.74 L 1099.92 1223.72 L 1100.76 1225.69 L 1101.60 1227.64 L 1102.44 1229.59 L 1103.28 1231.53 L 1104.12 1233.45 L 1104.96 1235.38 L 1105.82 1237.28 L 1106.66 1239.17 L 1107.50 1241.05 L 1108.35 1242.92 L 1109.17 1244.80 L 1109.98 1246.66 L 1110.74 1248.53 L 1111.51 1250.40 L 1112.28 1252.26 L 1113.05 1254.11" stroke="rgb(205,165,255)" stroke-opacity="0.697" stroke-width="1.18" />
  <path d="M 997.50 1003.14 L 1000.66 1001.88 L 1003.82 1000.65 L 1006.97 999.44 L 1010.10 998.23" stroke="rgb(140,255,190)" stroke-opacity="0.734" stroke-width="1.18" />
  <path d="M 996.52 999.67 L 994.01 998.70 L 991.54 997.68 L 989.08 996.65 L 986.63 995.64 L 984.20 994.65 L 981.76 993.76 L 979.36 992.80 L 976.98 991.85 L 974.63 990.90 L 972.33 989.89 L 970.09 988.79 L 967.88 987.62 L 965.70 986.42 L 963.51 985.29 L 961.34 984.12 L 959.18 982.97 L 957.05 981.87 L 954.91 980.78 L 952.75 979.72 L 950.58 978.71 L 948.43 977.71 L 946.29 976.73 L 944.14 975.74 L 942.02 974.79 L 939.93 973.84 L 937.84 972.92 L 935.76 972.01 L 933.68 971.10 L 931.62 970.16 L 929.61 969.17 L 927.59 968.22 L 925.58 967.35 L 923.57 966.50 L 921.56 965.60 L 919.57 964.67 L 917.57 963.76 L 915.53 962.91 L 913.50 962.10 L 911.48 961.26 L 909.48 960.42 L 907.48 959.56 L 905.50 958.69 L 903.55 957.81 L 901.62 957.01 L 899.67 956.18 L 897.72 955.36 L 895.77 954.58 L 893.80 953.84 L 891.84 953.04 L 889.83 952.31 L 887.83 951.59 L 885.83 950.86 L 883.82 950.25 L 881.81 949.67 L 879.84 949.03 L 877.87 948.47 L 875.87 947.92 L 873.86 947.38 L 871.88 946.85 L 869.92 946.28 L 867.97 945.72 L 866.01 945.16 L 864.07 944.55 L 862.12 943.96 L 860.20 943.40 L 858.28 942.82 L 856.37 942.22 L 854.44 941.67 L 852.52 941.11 L 850.60 940.55 L 848.68 939.99" stroke="rgb(255,210,135)" stroke-opacity="0.419" stroke-width="1.18" />
  <path d="M 1195.69 965.28 L 1197.91 964.57 L 1200.10 963.83 L 1202.32 963.19 L 1204.53 962.55 L 1206.74 961.93 L 1208.91 961.20 L 1211.10 960.54 L 1213.25 959.77 L 1215.33 958.86 L 1217.41 957.97 L 1219.47 957.06 L 1221.54 956.18 L 1223.58 955.27 L 1225.62 954.36 L 1227.69 953.57 L 1229.73 952.73 L 1231.75 951.85 L 1233.77 951.03 L 1235.81 950.29 L 1237.84 949.56 L 1239.81 948.73 L 1241.71 947.78 L 1243.61 946.83 L 1245.49 945.89 L 1247.39 944.99 L 1249.27 944.04 L 1251.13 943.07 L 1252.99 942.14 L 1254.85 941.28 L 1256.70 940.43 L 1258.62 939.69 L 1260.54 938.97 L 1262.41 938.19 L 1264.31 937.44 L 1266.20 936.77 L 1268.10 936.15 L 1270.07 935.79 L 1272.04 935.42 L 1273.98 934.96 L 1275.93 934.59 L 1277.90 934.27 L 1279.86 933.96 L 1281.80 933.67 L 1283.73 933.44 L 1285.66 933.21 L 1287.57 932.97 L 1289.47 932.82 L 1291.35 932.66 L 1293.21 932.47 L 1295.06 932.32 L 1296.91 932.19 L 1298.73 932.03 L 1300.53 931.77 L 1302.33 931.47 L 1304.14 931.27 L 1305.97 931.24 L 1307.75 931.24 L 1309.54 931.18" stroke="rgb(140,255,190)" stroke-opacity="0.550" stroke-width="1.18" />
  <path d="M 1002.84 998.06 L 999.55 997.82 L 996.27 997.61 L 993.01 997.39 L 989.76 997.19 L 986.54 996.97 L 983.32 996.77 L 980.11 996.64 L 976.93 996.50 L 973.75 996.34 L 970.59 996.17 L 967.45 995.99 L 964.34 995.83 L 961.24 995.68 L 958.16 995.50 L 955.08 995.33 L 952.02 995.15 L 948.96 994.95 L 945.91 994.77 L 942.86 994.57 L 939.83 994.36 L 936.81 994.14 L 933.83 993.89 L 930.85 993.64 L 927.86 993.43 L 924.89 993.25 L 921.93 993.05 L 918.98 992.82 L 916.04 992.59 L 913.12 992.38 L 910.20 992.15 L 907.29 991.93 L 904.40 991.68 L 901.53 991.46 L 898.67 991.26 L 895.82 991.03 L 892.98 990.74 L 890.15 990.44 L 887.33 990.15 L 884.52 989.88 L 881.71 989.62 L 878.92 989.38 L 876.14 989.13 L 873.37 988.90 L 870.62 988.73 L 867.87 988.56 L 865.13 988.39 L 862.40 988.22 L 859.68 988.07 L 856.97 987.93 L 854.27 987.79 L 851.58 987.65 L 848.90 987.50 L 846.23 987.36" stroke="rgb(140,255,190)" stroke-opacity="0.731" stroke-width="1.17" />
  <path d="M 1177.00 929.04 L 1180.28 928.78 L 1183.55 928.58 L 1186.81 928.48 L 1190.05 928.29 L 1193.28 928.09 L 1196.49 927.79 L 1199.68 927.49 L 1202.87 927.21 L 1206.05 926.97 L 1209.20 926.67 L 1212.35 926.35 L 1215.49 926.15 L 1218.62 926.02 L 1221.73 925.85 L 1224.83 925.67 L 1227.92 925.47 L 1230.99 925.28 L 1234.06 925.09 L 1237.10 924.94 L 1240.13 924.85 L 1243.15 924.81 L 1246.17 924.79 L 1249.16 924.84 L 1252.13 924.94 L 1255.09 924.98 L 1258.05 925.02 L 1261.00 925.00 L 1263.93 924.97 L 1266.86 924.96 L 1269.77 924.96 L 1272.67 924.94 L 1275.55 924.84 L 1278.42 924.75 L 1281.27 924.73 L 1284.12 924.70 L 1286.96 924.73 L 1289.79 924.84 L 1292.61 924.95 L 1295.42 924.98 L 1298.22 925.00 L 1301.00 925.05 L 1303.76 925.12 L 1306.50 925.16 L 1309.23 925.16 L 1311.95 925.19" stroke="rgb(140,255,190)" stroke-opacity="0.730" stroke-width="1.17" />
  <path d="M 997.40 1002.84 L 1000.48 1001.58 L 1003.54 1000.32 L 1006.59 999.04 L 1009.61 997.74 L 1012.61 996.44 L 1015.61 995.15 L 1018.62 993.93 L 1021.61 992.72 L 1024.61 991.55 L 1027.59 990.36 L 1030.56 989.17 L 1033.51 987.99 L 1036.44 986.79 L 1039.37 985.61 L 1042.28 984.43 L 1045.19 983.28 L 1048.09 982.13 L 1050.98 981.01 L 1053.87 979.90 L 1056.74 978.78 L 1059.59 977.63 L 1062.44 976.51 L 1065.26 975.37 L 1068.08 974.24 L 1070.88 973.11 L 1073.68 971.99 L 1076.47 970.89 L 1079.25 969.79 L 1082.00 968.65 L 1084.74 967.53 L 1087.50 966.48 L 1090.25 965.44 L 1092.99 964.40 L 1095.72 963.39 L 1098.45 962.39 L 1101.16 961.37 L 1103.85 960.35 L 1106.55 959.36 L 1109.24 958.41 L 1111.93 957.46 L 1114.60 956.50 L 1117.26 955.55 L 1119.91 954.62 L 1122.55 953.68 L 1125.16 952.68 L 1127.76 951.71 L 1130.36 950.75 L 1132.95 949.80 L 1135.53 948.87 L 1138.11 947.95 L 1140.69 947.07 L 1143.27 946.23 L 1145.84 945.39 L 1148.40 944.55 L 1150.93 943.68 L 1153.46 942.82 L 1155.98 941.96 L 1158.48 941.09 L 1161.00 940.30 L 1163.49 939.46" stroke="rgb(140,255,190)" stroke-opacity="0.729" stroke-width="1.17" />
  <path d="M 1048.84 988.68 L 1051.23 988.84 L 1053.59 989.09 L 1055.99 989.32 L 1058.39 989.55 L 1060.74 989.77 L 1063.06 989.92 L 1065.39 990.06 L 1067.71 990.15 L 1070.05 990.20 L 1072.44 990.31 L 1074.80 990.45 L 1077.18 990.61 L 1079.55 990.77 L 1081.91 990.92 L 1084.32 991.13 L 1086.74 991.39 L 1089.15 991.65 L 1091.54 991.90 L 1093.91 992.19 L 1096.26 992.47 L 1098.59 992.75 L 1100.92 993.03 L 1103.27 993.29 L 1105.61 993.54 L 1107.93 993.77 L 1110.28 994.00 L 1112.61 994.22 L 1114.93 994.44 L 1117.24 994.62 L 1119.54 994.77 L 1121.83 994.93 L 1124.06 995.21 L 1126.28 995.48 L 1128.48 995.74 L 1130.68 996.01 L 1132.86 996.28 L 1135.06 996.53 L 1137.28 996.78 L 1139.50 997.05" stroke="rgb(140,255,190)" stroke-opacity="0.727" stroke-width="1.16" />
  <path d="M 1001.50 999.64 L 1004.31 997.79 L 1007.13 995.97 L 1009.96 994.20 L 1012.77 992.43 L 1015.58 990.67 L 1018.36 988.89 L 1021.12 987.11 L 1023.88 985.34 L 1026.64 983.60 L 1029.38 981.87 L 1032.12 980.15 L 1034.86 978.45 L 1037.58 976.75 L 1040.29 975.05" stroke="rgb(140,255,190)" stroke-opacity="0.727" stroke-width="1.16" />
  <path d="M 1001.75 1000.07 L 1001.26 997.24 L 1000.73 994.42 L 1000.20 991.61 L 999.63 988.81 L 999.01 986.03 L 998.41 983.26 L 997.85 980.49 L 997.27 977.75 L 996.76 974.99 L 996.30 972.26 L 995.83 969.53 L 995.36 966.82 L 994.86 964.12 L 994.33 961.43 L 993.80 958.76 L 993.30 956.09 L 992.81 953.43 L 992.38 950.77 L 991.95 948.12 L 991.53 945.47 L 991.07 942.84 L 990.60 940.22 L 990.14 937.61 L 989.66 935.02 L 989.24 932.43 L 988.82 929.85 L 988.40 927.28 L 987.97 924.73 L 987.48 922.20 L 986.97 919.68 L 986.46 917.18 L 986.01 914.69 L 985.56 912.21 L 985.01 909.78 L 984.43 907.35 L 983.89 904.92 L 983.37 902.50 L 982.85 900.09 L 982.32 897.69 L 981.79 895.29 L 981.24 892.91 L 980.69 890.54 L 980.18 888.17 L 979.69 885.79" stroke="rgb(205,165,255)" stroke-opacity="0.483" stroke-width="1.16" />
  <path d="M 1001.43 1001.58 L 1004.45 1000.39 L 1007.48 999.24 L 1010.48 998.06 L 1013.43 996.81 L 1016.37 995.56 L 1019.32 994.36 L 1022.24 993.13 L 1025.16 991.95 L 1028.07 990.74 L 1030.97 989.56 L 1033.88 988.43 L 1036.78 987.32 L 1039.66 986.20 L 1042.52 985.04 L 1045.36 983.88 L 1048.19 982.73 L 1051.03 981.61 L 1053.85 980.49 L 1056.65 979.37 L 1059.45 978.26 L 1062.22 977.14 L 1064.98 976.01 L 1067.72 974.88 L 1070.45 973.75 L 1073.16 972.61 L 1075.87 971.48 L 1078.55 970.30 L 1081.23 969.15 L 1083.88 967.99 L 1086.52 966.81" stroke="rgb(140,255,190)" stroke-opacity="0.726" stroke-width="1.16" />
  <path d="M 864.46 1004.86 L 862.59 1006.09 L 860.78 1007.42 L 858.92 1008.60 L 856.97 1009.69 L 855.05 1010.77 L 853.12 1011.83 L 851.17 1012.72 L 849.22 1013.60 L 847.36 1014.59 L 845.46 1015.39 L 843.57 1016.17 L 841.69 1017.02 L 839.81 1017.85 L 838.00 1018.86 L 836.18 1019.85 L 834.38 1020.88 L 832.57 1021.98 L 830.69 1022.99 L 828.81 1023.95 L 826.94 1024.87 L 825.14 1025.92 L 823.45 1027.05 L 821.84 1028.27 L 820.32 1029.55 L 818.76 1030.79 L 817.21 1032.03 L 815.61 1033.20 L 814.04 1034.38 L 812.57 1035.66 L 811.06 1036.89 L 809.57 1038.15 L 808.01 1039.23 L 806.42 1040.33 L 804.82 1041.37" stroke="rgb(140,255,190)" stroke-opacity="0.545" stroke-width="1.16" />
  <path d="M 995.90 999.46 L 992.97 1000.60 L 990.07 1001.73 L 987.18 1002.88 L 984.31 1004.04 L 981.46 1005.22 L 978.62 1006.39 L 975.77 1007.51 L 972.93 1008.63 L 970.13 1009.80 L 967.35 1010.97 L 964.58 1012.17 L 961.83 1013.37 L 959.06 1014.49 L 956.31 1015.61 L 953.57 1016.74 L 950.84 1017.87 L 948.11 1018.96 L 945.41 1020.10 L 942.72 1021.23 L 940.04 1022.34 L 937.36 1023.44 L 934.72 1024.60 L 932.09 1025.75 L 929.47 1026.88 L 926.85 1028.01 L 924.24 1029.11 L 921.64 1030.21 L 919.03 1031.26 L 916.45 1032.35 L 913.88 1033.44 L 911.33 1034.55 L 908.79 1035.64 L 906.25 1036.71 L 903.73 1037.79 L 901.22 1038.87" stroke="rgb(140,255,190)" stroke-opacity="0.721" stroke-width="1.15" />
  <path d="M 1043.80 989.60 L 1045.50 988.24 L 1047.18 986.85 L 1048.87 985.47 L 1050.59 984.12 L 1052.33 982.81 L 1054.12 981.51 L 1055.91 980.22 L 1057.73 978.94 L 1059.54 977.66 L 1061.34 976.41 L 1063.11 975.14 L 1064.89 973.96 L 1066.66 972.80 L 1068.38 971.62 L 1070.11 970.40 L 1071.85 969.27 L 1073.56 968.10 L 1075.21 966.91 L 1076.82 965.68 L 1078.40 964.44 L 1079.97 963.18 L 1081.61 962.04 L 1083.31 960.91 L 1084.98 959.78 L 1086.63 958.65 L 1088.26 957.46 L 1089.89 956.27 L 1091.52 955.10 L 1093.12 953.91 L 1094.70 952.73 L 1096.38 951.62 L 1098.00 950.47 L 1099.57 949.31 L 1101.13 948.14 L 1102.72 946.99 L 1104.27 945.78 L 1105.77 944.55 L 1107.26 943.32 L 1108.75 942.13 L 1110.29 941.01 L 1111.78 939.81 L 1113.26 938.61 L 1114.77 937.45 L 1116.31 936.33 L 1117.89 935.22 L 1119.45 934.16" stroke="rgb(140,255,190)" stroke-opacity="0.540" stroke-width="1.14" />
  <path d="M 1001.52 999.45 L 1001.51 998.48 L 1001.51 997.69 L 1001.46 996.89 L 1001.27 996.10 L 1001.10 995.40 L 1000.79 994.64 L 1000.49 993.96 L 1000.22 993.30 L 999.95 992.70 L 999.68 991.97 L 999.30 991.14 L 998.90 990.35 L 998.51 989.57 L 998.13 988.71 L 997.81 987.81 L 997.52 986.91 L 997.24 986.01 L 996.96 985.11 L 996.77 984.09 L 996.59 983.04 L 996.35 981.95 L 996.08 980.94 L 995.74 979.91 L 995.29 978.86 L 994.92 977.78 L 994.53 976.70 L 994.11 975.65 L 993.69 974.65 L 993.27 973.66 L 992.82 972.69 L 992.41 971.76 L 991.98 970.87 L 991.57 969.98 L 991.21 969.08 L 990.83 968.20 L 990.49 967.46 L 990.18 966.68 L 989.81 965.88 L 989.44 965.11 L 989.11 964.41 L 988.83 963.76 L 988.46 963.15 L 988.09 962.56 L 987.78 962.07" stroke="rgb(140,255,190)" stroke-opacity="0.538" stroke-width="1.14" />
  <path d="M 898.67 991.26 L 896.93 991.90 L 895.25 992.54 L 893.55 993.15 L 891.80 993.71 L 890.11 994.30 L 888.42 994.91 L 886.73 995.52 L 885.03 996.00 L 883.34 996.44 L 881.65 996.90 L 879.95 997.38 L 878.42 997.98 L 876.94 998.66 L 875.51 999.35 L 874.10 1000.02 L 872.74 1000.77 L 871.39 1001.60 L 870.12 1002.36 L 868.83 1003.13 L 867.36 1003.71 L 865.90 1004.28 L 864.46 1004.86 L 863.11 1005.45 L 861.70 1006.03 L 860.21 1006.58 L 858.80 1007.16 L 857.39 1007.75 L 855.94 1008.25 L 854.53 1008.77 L 853.07 1009.21 L 851.52 1009.56 L 850.09 1010.00" stroke="rgb(140,255,190)" stroke-opacity="0.538" stroke-width="1.14" />
  <path d="M 1121.61 953.67 L 1124.57 953.33 L 1127.51 953.07 L 1130.44 952.80 L 1133.34 952.53 L 1136.20 952.25 L 1139.05 951.97 L 1141.85 951.63 L 1144.64 951.29 L 1147.42 950.96 L 1150.20 950.63 L 1152.99 950.21 L 1155.78 949.76 L 1158.58 949.34 L 1161.34 948.91 L 1164.08 948.51 L 1166.82 948.09 L 1169.53 947.65 L 1172.23 947.13 L 1174.92 946.47 L 1177.60 945.81 L 1180.31 945.20 L 1182.99 944.57" stroke="rgb(140,255,190)" stroke-opacity="0.717" stroke-width="1.14" />
  <path d="M 1086.74 991.39 L 1088.90 991.02 L 1091.05 990.65 L 1093.21 990.18 L 1095.28 989.60 L 1097.34 989.02 L 1099.39 988.41 L 1101.35 987.73 L 1103.31 987.05 L 1105.22 986.43 L 1107.18 985.86 L 1109.08 985.34 L 1110.96 984.83 L 1112.87 984.33 L 1114.78 983.67 L 1116.59 982.91 L 1118.36 982.10 L 1120.12 981.30 L 1121.86 980.58 L 1123.59 979.82 L 1125.26 979.03 L 1126.93 978.27 L 1128.58 977.50 L 1130.25 976.67 L 1131.91 975.78 L 1133.62 974.78 L 1135.25 973.80 L 1136.89 972.85 L 1138.52 971.88 L 1140.21 970.99 L 1141.87 970.11 L 1143.47 969.32 L 1144.99 968.51 L 1146.47 967.71 L 1147.96 967.08 L 1149.45 966.42 L 1150.96 965.85 L 1152.53 965.19 L 1154.13 964.57 L 1155.73 964.17 L 1157.32 963.76 L 1158.90 963.32 L 1160.44 962.78 L 1161.95 962.16 L 1163.49 961.59" stroke="rgb(140,255,190)" stroke-opacity="0.536" stroke-width="1.13" />
  <path d="M 998.89 1000.47 L 999.35 998.15 L 999.82 995.84 L 1000.28 993.52 L 1000.72 991.19 L 1001.20 988.85 L 1001.68 986.47 L 1002.14 984.09 L 1002.57 981.72 L 1002.97 979.34 L 1003.36 976.93 L 1003.76 974.54 L 1004.12 972.14 L 1004.49 969.75 L 1004.89 967.35 L 1005.28 964.96 L 1005.66 962.60 L 1006.03 960.23" stroke="rgb(205,165,255)" stroke-opacity="0.475" stroke-width="1.13" />
  <path d="M 999.45 999.61 L 997.13 1000.30 L 994.81 1000.98 L 992.52 1001.65 L 990.24 1002.35 L 987.98 1003.04 L 985.72 1003.77 L 983.50 1004.50 L 981.27 1005.25 L 979.07 1006.01 L 976.91 1006.77 L 974.77 1007.54 L 972.64 1008.31 L 970.54 1009.10 L 968.45 1009.89 L 966.39 1010.67 L 964.34 1011.48 L 962.25 1012.24 L 960.19 1012.98 L 958.18 1013.72 L 956.20 1014.46 L 954.26 1015.21 L 952.33 1015.98 L 950.47 1016.79 L 948.60 1017.57 L 946.70 1018.28 L 944.85 1019.12 L 943.01 1019.96 L 941.22 1020.82 L 939.43 1021.65 L 937.63 1022.44 L 935.91 1023.29" stroke="rgb(255,210,135)" stroke-opacity="0.408" stroke-width="1.13" />
  <path d="M 1087.59 976.52 L 1090.61 976.80 L 1093.60 977.06 L 1096.55 977.35 L 1099.51 977.63 L 1102.46 977.93 L 1105.40 978.22 L 1108.33 978.61 L 1111.24 979.10 L 1114.13 979.53 L 1117.00 979.99 L 1119.86 980.50" stroke="rgb(140,255,190)" stroke-opacity="0.715" stroke-width="1.13" />
  <path d="M 1000.34 999.07 L 1002.82 998.83 L 1005.30 998.61 L 1007.78 998.35 L 1010.24 998.06 L 1012.68 997.79 L 1015.12 997.51 L 1017.54 997.17 L 1019.96 996.84 L 1022.40 996.58 L 1024.83 996.30 L 1027.26 996.05 L 1029.67 995.81 L 1032.08 995.57 L 1034.48 995.33 L 1036.86 995.08 L 1039.24 994.89 L 1041.61 994.62 L 1043.95 994.27 L 1046.28 993.84 L 1048.61 993.45 L 1050.92 993.07 L 1053.23 992.67" stroke="rgb(140,255,190)" stroke-opacity="0.535" stroke-width="1.13" />
  <path d="M 1101.42 971.57 L 1104.33 971.40 L 1107.22 971.28 L 1110.11 971.16 L 1112.98 971.04 L 1115.84 970.72 L 1118.70 970.42 L 1121.56 970.24 L 1124.39 969.98 L 1127.22 969.74 L 1130.03 969.48 L 1132.84 969.18 L 1135.64 968.89 L 1138.45 968.69 L 1141.27 968.40 L 1144.07 968.09 L 1146.85 967.82 L 1149.62 967.59 L 1152.41 967.45 L 1155.18 967.27 L 1157.95 967.09 L 1160.71 966.92 L 1163.46 966.77 L 1166.19 966.59 L 1168.92 966.40 L 1171.64 966.24 L 1174.35 966.06 L 1177.06 965.91 L 1179.75 965.77 L 1182.43 965.64 L 1185.10 965.51 L 1187.77 965.41 L 1190.42 965.30 L 1193.06 965.25 L 1195.69 965.28 L 1198.31 965.34 L 1200.92 965.38" stroke="rgb(140,255,190)" stroke-opacity="0.532" stroke-width="1.12" />
  <path d="M 0.17 1363.79 L 2.96 1362.95 L 5.55 1362.20 L 8.19 1361.17 L 11.17 1359.78 L 13.54 1359.03 L 16.74 1357.86 L 19.79 1356.89 L 22.69 1355.64 L 25.78 1354.61 L 28.24 1353.60 L 31.09 1352.56 L 33.86 1351.97 L 36.77 1350.57 L 39.30 1349.84 L 42.10 1348.64 L 44.95 1348.01 L 47.75 1346.83 L 50.99 1345.92 L 53.66 1344.23 L 56.24 1343.22 L 59.45 1342.69 L 62.47 1341.42 L 64.70 1340.23 L 67.62 1339.35 L 70.40 1338.34 L 73.46 1337.03 L 76.22 1336.53 L 78.85 1335.35 L 81.68 1334.15 L 84.53 1333.62 L 87.09 1331.94 L 90.04 1331.05 L 93.24 1330.05 L 95.85 1328.90 L 98.52 1328.43 L 101.40 1327.54 L 104.27 1326.09 L 107.31 1324.94 L 109.88 1324.04 L 112.79 1323.29 L 115.57 1322.01 L 118.70 1321.13 L 121.28 1320.01 L 124.49 1319.13 L 126.95 1318.28 L 130.02 1316.59 L 132.33 1315.78 L 135.29 1314.70 L 138.19 1314.09 L 140.84 1312.99 L 143.88 1311.99 L 146.72 1310.53 L 149.63 1309.56 L 152.13 1308.53 L 155.00 1307.69 L 158.19 1306.23 L 160.57 1305.53 L 163.57 1304.47 L 166.65 1303.62 L 169.21 1302.59 L 171.92 1301.37 L 174.78 1300.59 L 177.57 1298.82 L 180.17 1298.74 L 182.97 1297.40 L 186.39 1296.72 L 188.66 1295.26 L 191.79 1294.27 L 194.65 1292.98 L 197.14 1292.33 L 200.15 1290.90 L 203.02 1290.09 L 205.70 1289.15 L 208.55 1288.08 L 211.62 1286.86 L 214.32 1286.08 L 216.88 1284.95 L 220.17 1283.92 L 222.52 1282.77 L 225.36 1282.21 L 228.48 1280.84 L 231.83 1279.70 L 234.44 1279.19 L 237.00 1277.62 L 239.43 1276.66 L 242.71 1275.81 L 245.30 1274.70 L 248.21 1273.97 L 250.77 1272.68 L 253.38 1271.51 L 256.59 1270.89 L 259.34 1269.26 L 262.64 1268.76 L 265.05 1267.58 L 268.01 1266.20 L 270.98 1265.56 L 273.63 1264.67 L 276.30 1263.44 L 279.27 1262.36 L 281.78 1261.20 L 284.74 1260.55 L 287.69 1259.08 L 290.34 1258.58 L 293.18 1257.17 L 295.93 1256.16 L 298.69 1255.12 L 302.14 1253.95 L 304.70 1253.05 L 307.66 1252.48 L 309.91 1251.25 L 312.53 1250.32 L 315.84 1249.30 L 318.25 1248.18 L 321.63 1247.21 L 323.87 1245.63 L 326.76 1244.72 L 329.86 1244.24 L 332.88 1243.00 L 335.41 1242.44 L 338.55 1240.90 L 340.82 1240.04 L 344.13 1238.71 L 346.82 1237.41 L 349.58 1236.50 L 352.30 1235.97 L 354.78 1234.67 L 358.04 1233.59 L 360.61 1232.45 L 363.86 1231.66 L 366.37 1230.61 L 369.53 1229.66 L 371.87 1228.80 L 374.92 1227.79 L 378.01 1226.60 L 381.23 1225.35 L 383.40 1224.39 L 386.09 1223.18 L 388.93 1222.63 L 391.93 1221.74 L 395.22 1220.72 L 397.36 1219.58 L 400.24 1217.80 L 402.90 1217.03 L 406.12 1216.42 L 408.83 1215.49 L 411.60 1214.32 L 414.35 1213.36 L 417.42 1212.09 L 420.50 1211.26 L 422.71 1210.09 L 425.94 1208.87 L 428.17 1208.17 L 431.28 1206.89 L 433.99 1205.58 L 436.79 1205.69 L 439.47 1204.06 L 442.62 1203.37 L 445.48 1201.78 L 448.40 1200.98 L 451.05 1199.35 L 453.76 1198.80 L 456.92 1197.95 L 459.61 1196.91 L 462.49 1195.86 L 464.79 1194.77 L 467.83 1193.63 L 470.73 1192.44 L 473.73 1191.56 L 476.18 1190.29 L 479.23 1189.59 L 482.12 1188.24 L 484.19 1187.55 L 488.01 1186.52 L 490.36 1185.45 L 493.29 1184.68 L 495.92 1183.32 L 498.69 1182.24 L 501.56 1181.46 L 504.66 1179.95 L 507.17 1179.21 L 510.10 1178.40 L 512.99 1176.91 L 515.91 1176.36 L 519.07 1175.40 L 521.40 1173.78 L 524.55 1173.25 L 527.52 1172.25 L 530.16 1171.44 L 532.82 1170.20 L 535.50 1169.47 L 538.71 1167.71 L 541.21 1166.96 L 544.00 1166.18 L 546.92 1165.20 L 549.54 1164.09 L 552.19 1163.03 L 555.16 1162.06 L 558.15 1160.98 L 560.84 1160.24 L 563.77 1158.28 L 566.41 1157.54 L 569.73 1156.59 L 572.04 1155.78 L 575.25 1154.85 L 578.04 1153.11 L 580.74 1152.44 L 583.37 1151.53 L 586.32 1150.88 L 589.34 1149.50 L 592.05 1148.36 L 595.06 1147.26 L 597.40 1146.41 L 600.36 1145.01 L 603.20 1144.65 L 606.58 1143.74 L 608.88 1142.51 L 611.74 1141.44 L 614.58 1140.16 L 617.43 1139.60 L 619.99 1138.54 L 623.15 1137.18 L 625.44 1136.39 L 629.13 1134.69 L 631.62 1134.04 L 634.16 1132.86 L 637.08 1132.06 L 640.08 1130.97 L 642.37 1130.00 L 645.29 1129.01 L 648.46 1127.83 L 651.42 1127.16 L 654.05 1125.86 L 656.74 1124.71 L 660.01 1123.92 L 662.55 1122.76 L 665.01 1121.97 L 668.36 1121.17 L 670.91 1120.05 L 673.96 1118.94 L 676.39 1117.99 L 679.22 1117.07 L 682.24 1115.92 L 685.13 1114.53 L 687.39 1114.23 L 690.55 1112.40 L 693.24 1111.78 L 696.27 1110.77 L 698.97 1109.55 L 701.86 1108.34 L 705.03 1107.68 L 707.37 1106.42 L 710.24 1105.65 L 713.49 1104.19 L 715.63 1103.17 L 719.12 1102.32 L 721.84 1101.25 L 724.70 1100.09 L 727.89 1099.03 L 729.78 1097.91 L 732.76 1097.16 L 735.76 1096.17 L 738.45 1095.37 L 741.30 1094.30 L 744.11 1092.82 L 747.13 1091.96 L 749.99 1090.73 L 752.74 1089.86 L 755.33 1088.84 L 757.82 1087.94 L 761.19 1087.13 L 763.57 1085.84 L 766.76 1084.59 L 769.96 1084.10 L 772.39 1082.83 L 774.97 1081.67 L 778.22 1080.86 L 780.71 1079.87 L 783.59 1078.78 L 786.50 1077.87 L 789.26 1076.86 L 792.10 1075.84 L 794.72 1074.48 L 798.20 1073.69 L 800.37 1072.80 L 803.75 1071.14 L 806.10 1070.35 L 809.23 1069.11 L 812.07 1068.69 L 814.81 1067.74 L 817.63 1066.48 L 820.47 1065.49 L 823.04 1064.62 L 826.51 1063.03 L 828.95 1062.23 L 831.60 1061.06 L 833.89 1060.03 L 837.12 1058.54 L 840.13 1058.84 L 842.86 1056.65 L 845.75 1056.26 L 848.28 1055.22 L 851.44 1054.13 L 854.51 1053.19 L 856.96 1052.11 L 859.78 1050.57 L 862.91 1049.90 L 865.32 1048.88 L 868.27 1048.10 L 870.93 1046.97 L 873.68 1045.83 L 876.32 1044.90 L 879.19 1043.60 L 882.59 1042.73 L 884.94 1041.65 L 888.45 1040.62 L 890.37 1039.91 L 893.65 1038.71 L 896.59 1037.81 L 899.34 1036.60 L 902.42 1036.04 L 904.53 1034.36 L 907.91 1033.84 L 910.66 1032.59 L 913.23 1031.32 L 916.26 1030.24 L 918.72 1029.66 L 922.12 1028.18 L 924.65 1027.19 L 927.60 1026.89 L 930.16 1025.22 L 933.21 1024.42 L 936.31 1023.52 L 938.71 1021.84 L 941.08 1021.45 L 944.44 1020.32 L 947.43 1018.82 L 950.33 1018.14 L 953.05 1017.32 L 955.58 1016.10 L 958.70 1015.17 L 961.54 1014.16 L 964.25 1013.21 L 967.00 1012.45 L 969.81 1010.61 L 972.59 1010.06 L 975.23 1008.66 L 978.34 1007.65 L 981.22 1007.19 L 983.62 1005.82 L 986.21 1005.20 L 989.19 1004.12 L 992.33 1003.19 L 995.08 1002.04 L 997.98 1000.99 L 1000.00 1000.00 L 1002.83 999.00 L 1005.66 998.00 L 1008.49 997.01 L 1011.32 996.01 L 1014.14 994.99 L 1016.96 993.98 L 1019.79 992.97 L 1022.61 991.95 L 1025.44 990.95 L 1028.27 989.96 L 1031.11 988.98 L 1033.94 988.01 L 1036.79 987.05 L 1039.63 986.10 L 1042.48 985.15 L 1045.32 984.20 L 1048.16 983.24 L 1051.01 982.29 L 1053.85 981.32 L 1056.69 980.35 L 1059.53 979.40 L 1062.38 978.44 L 1065.23 977.51 L 1068.07 976.56 L 1070.92 975.61 L 1073.76 974.64 L 1076.60 973.68 L 1079.45 972.74 L 1082.30 971.80 L 1085.15 970.85 L 1088.00 969.92 L 1090.84 968.96 L 1093.68 968.00 L 1096.51 967.00 L 1099.35 966.02 L 1102.17 965.02 L 1105.00 964.01 L 1107.83 963.02 L 1110.66 962.02 L 1113.49 961.04 L 1116.33 960.07 L 1119.17 959.09 L 1122.00 958.11 L 1124.85 957.15 L 1127.69 956.19 L 1130.53 955.22 L 1133.36 954.23 L 1136.19 953.24 L 1139.01 952.22 L 1141.84 951.22 L 1144.68 950.24 L 1147.51 949.27 L 1150.36 948.31 L 1153.18 947.30 L 1156.00 946.28 L 1158.82 945.25 L 1161.64 944.21 L 1164.46 943.19 L 1167.28 942.19 L 1170.11 941.19 L 1172.95 940.21 L 1175.78 939.23 L 1178.63 938.27 L 1181.46 937.30 L 1184.30 936.33 L 1187.14 935.36 L 1189.98 934.39 L 1192.82 933.41 L 1195.65 932.43 L 1198.48 931.43 L 1201.32 930.45 L 1204.15 929.46 L 1206.99 928.50 L 1209.83 927.52 L 1212.67 926.55 L 1215.50 925.57 L 1218.33 924.57 L 1221.15 923.56 L 1223.98 922.54 L 1226.80 921.53 L 1229.63 920.52 L 1232.44 919.49 L 1235.27 918.49 L 1238.10 917.49 L 1240.93 916.50 L 1243.77 915.52 L 1246.61 914.55 L 1249.44 913.58 L 1252.28 912.60 L 1255.12 911.62 L 1257.95 910.64 L 1260.78 909.65 L 1263.63 908.70 L 1266.48 907.76 L 1269.33 906.83 L 1272.17 905.88 L 1275.01 904.90 L 1277.85 903.94 L 1280.70 902.99 L 1283.55 902.05 L 1286.40 901.13 L 1289.26 900.21 L 1292.11 899.29 L 1294.96 898.34 L 1297.81 897.40 L 1300.66 896.47 L 1303.50 895.51 L 1306.34 894.54 L 1309.19 893.59 L 1312.03 892.63 L 1314.87 891.66 L 1317.70 890.68 L 1320.55 889.72 L 1323.39 888.75 L 1326.23 887.80 L 1329.07 886.82 L 1331.92 885.88 L 1334.77 884.96 L 1337.63 884.05 L 1340.49 883.15 L 1343.36 882.26 L 1346.23 881.39 L 1349.10 880.52 L 1351.97 879.64 L 1354.84 878.77 L 1357.71 877.91 L 1360.59 877.08 L 1363.47 876.24 L 1366.35 875.39 L 1369.23 874.53 L 1372.09 873.63 L 1374.94 872.70 L 1377.79 871.75 L 1380.63 870.80 L 1383.48 869.85 L 1386.31 868.88 L 1389.16 867.93 L 1392.01 866.99 L 1394.86 866.06 L 1397.71 865.12 L 1400.55 864.16 L 1403.39 863.19 L 1406.23 862.21 L 1409.06 861.23 L 1411.90 860.27 L 1414.75 859.31 L 1417.59 858.35 L 1420.42 857.35 L 1423.24 856.33 L 1426.06 855.31 L 1428.87 854.27 L 1431.68 853.21 L 1434.50 852.18 L 1437.32 851.15 L 1440.14 850.13 L 1442.95 849.10 L 1445.77 848.06 L 1448.59 847.04 L 1451.41 846.03 L 1454.23 845.00 L 1457.06 843.99 L 1459.88 842.97 L 1462.69 841.93 L 1465.52 840.91 L 1468.34 839.89 L 1471.15 838.86 L 1473.96 837.81 L 1476.77 836.76 L 1479.58 835.70 L 1482.39 834.65 L 1485.20 833.59 L 1488.01 832.54 L 1490.81 831.47 L 1493.62 830.43 L 1496.44 829.40 L 1499.26 828.36 L 1502.07 827.33 L 1504.90 826.32 L 1507.71 825.29 L 1510.54 824.28 L 1513.37 823.27 L 1516.19 822.26 L 1519.02 821.26 L 1521.84 820.25 L 1524.68 819.26 L 1527.51 818.28 L 1530.34 817.29 L 1533.18 816.31 L 1536.01 815.33 L 1538.86 814.39 L 1541.71 813.43 L 1544.55 812.48 L 1547.39 811.51 L 1550.23 810.53 L 1553.05 809.53 L 1555.89 808.55 L 1558.72 807.56 L 1561.56 806.59 L 1564.39 805.59 L 1567.22 804.60 L 1570.06 803.63 L 1572.90 802.67 L 1575.73 801.68 L 1578.56 800.69 L 1581.40 799.70 L 1584.23 798.71 L 1587.06 797.72 L 1589.89 796.72 L 1592.71 795.69 L 1595.53 794.67 L 1598.35 793.65 L 1601.17 792.63 L 1604.00 791.63 L 1606.82 790.62 L 1609.66 789.64 L 1612.48 788.63 L 1615.31 787.64 L 1618.15 786.65 L 1620.98 785.67 L 1623.81 784.67 L 1626.64 783.66 L 1629.46 782.65 L 1632.29 781.66 L 1635.12 780.65 L 1637.95 779.65 L 1640.79 778.68 L 1643.62 777.70 L 1646.46 776.74 L 1649.30 775.77 L 1652.15 774.81 L 1654.99 773.87 L 1657.84 772.91 L 1660.67 771.93 L 1663.51 770.96 L 1666.35 770.01 L 1669.20 769.07 L 1672.05 768.12 L 1674.89 767.15 L 1677.73 766.19 L 1680.57 765.23 L 1683.41 764.25 L 1686.24 763.27 L 1689.08 762.28 L 1691.91 761.29 L 1694.74 760.29 L 1697.57 759.32 L 1700.41 758.33 L 1703.24 757.35 L 1706.07 756.36 L 1708.91 755.39 L 1711.76 754.45 L 1714.61 753.50 L 1717.46 752.57 L 1720.31 751.63 L 1723.15 750.68 L 1726.00 749.74 L 1728.85 748.78 L 1731.69 747.82 L 1734.53 746.86 L 1737.37 745.89 L 1740.20 744.90 L 1743.03 743.90 L 1745.86 742.91 L 1748.69 741.92 L 1751.53 740.95 L 1754.37 739.97 L 1757.20 738.99 L 1760.04 738.01 L 1762.87 737.03 L 1765.71 736.05 L 1768.54 735.04 L 1771.36 734.03 L 1774.18 733.01 L 1776.99 731.97 L 1779.80 730.92 L 1782.61 729.85 L 1785.40 728.76 L 1788.19 727.65 L 1790.98 726.55 L 1793.78 725.46 L 1796.58 724.39 L 1799.38 723.32 L 1802.19 722.27 L 1805.00 721.21 L 1807.81 720.16 L 1810.62 719.12 L 1813.43 718.06 L 1816.23 716.98 L 1819.03 715.91 L 1821.83 714.84 L 1824.63 713.77 L 1827.43 712.69 L 1830.23 711.61 L 1833.03 710.53 L 1835.84 709.47 L 1838.64 708.41 L 1841.45 707.34 L 1844.26 706.30 L 1847.07 705.25 L 1849.89 704.22 L 1852.71 703.19 L 1855.53 702.17 L 1858.35 701.15 L 1861.17 700.14 L 1864.00 699.14 L 1866.83 698.14 L 1869.66 697.15 L 1872.49 696.16 L 1875.33 695.17 L 1878.16 694.17 L 1880.98 693.16 L 1883.81 692.15 L 1886.63 691.15 L 1889.46 690.15 L 1892.29 689.14 L 1895.11 688.13 L 1897.93 687.10 L 1900.75 686.08 L 1903.56 685.04 L 1906.38 684.00 L 1909.18 682.94 L 1911.98 681.86 L 1914.78 680.78 L 1917.57 679.68 L 1920.37 678.58 L 1923.16 677.48 L 1925.94 676.37 L 1928.73 675.27 L 1931.52 674.16 L 1934.31 673.06 L 1937.10 671.94 L 1939.88 670.83 L 1942.66 669.70 L 1945.44 668.56 L 1948.20 667.40 L 1950.96 666.22 L 1953.73 665.06 L 1956.50 663.90 L 1959.27 662.76 L 1962.04 661.62 L 1964.83 660.49 L 1967.60 659.35 L 1970.38 658.24 L 1973.17 657.12 L 1975.96 656.02 L 1978.74 654.90 L 1981.54 653.81 L 1984.34 652.73 L 1987.14 651.67 L 1989.95 650.62 L 1992.76 649.57 L 1995.57 648.51 L 1998.37 647.44 L 2001.17 646.36 L 2003.98 645.32 L 2006.80 644.27 L 2009.60 643.21 L 2012.41 642.14 L 2015.22 641.10 L 2018.03 640.06 L 2020.84 639.01" stroke="rgb(245,245,245)" stroke-opacity="0.709" stroke-width="1.12" />
  <path d="M 998.14 998.10 L 1000.88 997.14 L 1003.62 996.24 L 1006.33 995.32 L 1009.04 994.46 L 1011.75 993.60 L 1014.43 992.71 L 1017.10 991.81 L 1019.77 990.95 L 1022.43 990.05 L 1025.09 989.20 L 1027.70 988.29 L 1030.29 987.38 L 1032.87 986.52 L 1035.44 985.68 L 1038.00 984.85 L 1040.54 984.01 L 1043.07 983.19 L 1045.57 982.32 L 1048.05 981.48 L 1050.52 980.68 L 1052.98 979.88 L 1055.46 979.09 L 1057.92 978.32 L 1060.36 977.53 L 1062.79 976.75 L 1065.19 975.93 L 1067.54 975.05 L 1069.89 974.24 L 1072.22 973.44 L 1074.55 972.65 L 1076.86 971.84" stroke="rgb(140,255,190)" stroke-opacity="0.531" stroke-width="1.11" />
  <path d="M 997.58 1004.50 L 1000.05 1002.70 L 1002.51 1000.90 L 1004.96 999.11 L 1007.40 997.31 L 1009.82 995.53 L 1012.23 993.74 L 1014.63 991.95 L 1017.01 990.17 L 1019.38 988.39 L 1021.72 986.59 L 1024.05 984.79 L 1026.39 983.04 L 1028.76 981.33 L 1031.07 979.57 L 1033.42 977.88 L 1035.75 976.19 L 1038.08 974.51 L 1040.41 972.85 L 1042.76 971.24 L 1045.12 969.67 L 1047.47 968.10 L 1049.82 966.55" stroke="rgb(140,255,190)" stroke-opacity="0.530" stroke-width="1.11" />
  <path d="M 1000.25 998.01 L 1002.91 997.03 L 1005.55 996.05 L 1008.16 994.99 L 1010.73 993.87 L 1013.27 992.73 L 1015.81 991.59 L 1018.31 990.41 L 1020.85 989.32 L 1023.38 988.25 L 1025.89 987.18 L 1028.39 986.10 L 1030.88 985.03 L 1033.42 984.10 L 1035.94 983.15 L 1038.42 982.14 L 1040.91 981.19 L 1043.40 980.23 L 1045.85 979.25 L 1048.35 978.40 L 1050.84 977.54 L 1053.31 976.69 L 1055.77 975.83 L 1058.20 974.90 L 1060.61 973.96 L 1063.00 973.01 L 1065.38 972.07 L 1067.76 971.13 L 1070.12 970.17 L 1072.46 969.21 L 1074.77 968.18 L 1077.06 967.15 L 1079.37 966.19 L 1081.67 965.22 L 1083.96 964.25 L 1086.23 963.28 L 1088.49 962.29 L 1090.70 961.22 L 1092.91 960.16 L 1095.09 959.10 L 1097.31 958.11 L 1099.51 957.12 L 1101.72 956.18 L 1103.98 955.41 L 1106.22 954.63 L 1108.45 953.85" stroke="rgb(140,255,190)" stroke-opacity="0.529" stroke-width="1.11" />
  <path d="M 1090.25 965.44 L 1092.74 964.48 L 1095.25 963.57 L 1097.74 962.71 L 1100.21 961.86 L 1102.66 961.05 L 1105.08 960.16 L 1107.48 959.24 L 1109.87 958.37 L 1112.25 957.48 L 1114.63 956.59 L 1116.96 955.60 L 1119.30 954.60 L 1121.61 953.67 L 1123.92 952.75 L 1126.15 951.71 L 1128.38 950.70 L 1130.63 949.71 L 1132.80 948.73 L 1135.01 947.84 L 1137.23 946.93 L 1139.39 945.93 L 1141.55 944.91 L 1143.71 943.91 L 1145.81 942.85 L 1147.91 941.77 L 1150.06 940.82 L 1152.14 939.78 L 1154.23 938.76 L 1156.32 937.74 L 1158.40 936.79 L 1160.49 935.86 L 1162.58 934.94 L 1164.68 934.11 L 1166.81 933.34 L 1168.92 932.55 L 1171.00 931.69 L 1173.00 930.80 L 1175.01 929.92 L 1177.00 929.04 L 1178.96 928.06 L 1180.92 927.10 L 1182.88 926.15 L 1184.86 925.25 L 1186.82 924.29 L 1188.74 923.24" stroke="rgb(140,255,190)" stroke-opacity="0.528" stroke-width="1.10" />
  <path d="M 999.40 999.82 L 1002.10 999.18 L 1004.78 998.56 L 1007.44 997.97 L 1010.10 997.36 L 1012.74 996.76 L 1015.38 996.12 L 1018.02 995.48 L 1020.64 994.87 L 1023.23 994.24 L 1025.80 993.61 L 1028.37 992.99 L 1030.94 992.37 L 1033.52 991.77 L 1036.09 991.15 L 1038.68 990.64 L 1041.26 990.08 L 1043.80 989.60 L 1046.32 989.14 L 1048.84 988.68 L 1051.31 988.31 L 1053.78 987.93 L 1056.23 987.57 L 1058.68 987.26 L 1061.12 986.93 L 1063.56 986.60 L 1065.98 986.25 L 1068.35 985.87" stroke="rgb(140,255,190)" stroke-opacity="0.526" stroke-width="1.10" />
  <path d="M 1000.52 999.32 L 1000.94 1001.53 L 1001.45 1003.70 L 1001.92 1005.90 L 1002.34 1008.15 L 1002.79 1010.37 L 1003.10 1012.65 L 1003.33 1014.91 L 1003.59 1017.17" stroke="rgb(205,165,255)" stroke-opacity="0.464" stroke-width="1.09" />
  <path d="M 999.88 1001.56 L 1001.94 1000.66 L 1003.97 999.76 L 1005.97 998.81 L 1007.97 997.86 L 1009.98 996.94 L 1011.97 996.00 L 1013.90 995.06 L 1015.83 994.14 L 1017.76 993.22 L 1019.68 992.34 L 1021.63 991.59 L 1023.58 990.84" stroke="rgb(205,165,255)" stroke-opacity="0.451" stroke-width="1.04" />
  <path d="M 998.45 1000.59 L 997.79 1001.79 L 997.12 1002.99" stroke="rgb(230,230,230)" stroke-opacity="0.386" stroke-width="0.71" />
  <path d="M 1003.33 998.97 L 1002.58 998.81 L 1001.88 998.67 L 1001.17 998.52 L 1000.49 998.36 L 999.83 998.19 L 999.19 997.97 L 998.56 997.77 L 997.93 997.61" stroke="rgb(230,230,230)" stroke-opacity="0.383" stroke-width="0.70" />
  <path d="M 1001.76 1001.84 L 1000.94 1001.47 L 1000.00 1001.13 L 998.98 1000.76 L 997.98 1000.59 L 997.07 1000.53 L 996.09 1000.45 L 995.15 1000.04" stroke="rgb(230,230,230)" stroke-opacity="0.374" stroke-width="0.68" />
  <path d="M 1004.09 1003.91 L 1005.49 1004.15 L 1006.90 1004.32 L 1008.22 1004.48 L 1009.54 1004.59 L 1010.86 1004.79 L 1012.19 1004.79 L 1013.53 1004.80 L 1014.85 1004.79 L 1016.23 1004.88 L 1017.59 1005.20 L 1018.94 1005.60 L 1020.28 1005.99 L 1021.56 1006.34" stroke="rgb(230,230,230)" stroke-opacity="0.370" stroke-width="0.67" />
  <path d="M 997.67 998.35 L 998.07 998.99 L 998.50 999.62 L 998.92 1000.24 L 999.33 1000.92 L 999.73 1001.59 L 1000.13 1002.26 L 1000.54 1002.91 L 1000.98 1003.45 L 1001.43 1003.97 L 1001.85 1004.51" stroke="rgb(230,230,230)" stroke-opacity="0.369" stroke-width="0.67" />
  <path d="M 1000.05 1000.07 L 999.53 998.67 L 998.99 997.29 L 998.44 995.91 L 997.79 994.60 L 997.13 993.31 L 996.42 992.05 L 995.73 990.76 L 995.04 989.48 L 994.30 988.23 L 993.56 986.99" stroke="rgb(230,230,230)" stroke-opacity="0.368" stroke-width="0.66" />
  <path d="M 1002.78 996.63 L 1002.90 995.36 L 1003.03 994.10 L 1003.24 992.78 L 1003.54 991.47 L 1003.81 990.13 L 1004.06 988.84" stroke="rgb(230,230,230)" stroke-opacity="0.367" stroke-width="0.66" />
  <path d="M 996.05 1000.80 L 997.44 1001.27 L 998.81 1001.76 L 1000.16 1002.27 L 1001.42 1002.79 L 1002.54 1003.39 L 1003.62 1003.98 L 1004.70 1004.55 L 1005.83 1005.11 L 1007.07 1005.42 L 1008.30 1005.61 L 1009.55 1005.58 L 1010.78 1005.54 L 1012.12 1005.27 L 1013.24 1004.60 L 1014.34 1003.95" stroke="rgb(230,230,230)" stroke-opacity="0.367" stroke-width="0.66" />
  <path d="M 1002.39 995.02 L 1001.24 995.04 L 1000.14 995.09 L 999.04 995.15 L 998.33 995.26 L 997.41 995.25 L 996.75 995.14 L 996.10 995.01" stroke="rgb(230,230,230)" stroke-opacity="0.365" stroke-width="0.65" />
  <path d="M 1007.05 996.35 L 1005.78 996.98 L 1004.42 997.43 L 1003.09 997.92 L 1001.71 998.40 L 1000.33 998.85 L 999.01 999.37 L 997.84 1000.05 L 996.76 1000.68 L 995.71 1001.22 L 994.75 1001.85 L 993.71 1002.44 L 992.59 1003.08 L 991.63 1003.88 L 990.72 1004.59" stroke="rgb(230,230,230)" stroke-opacity="0.363" stroke-width="0.65" />
  <path d="M 1003.00 998.46 L 1002.62 997.09 L 1002.24 995.71 L 1001.76 994.37 L 1001.28 993.04 L 1000.74 991.69 L 1000.27 990.30 L 999.80 988.92 L 999.25 987.58 L 998.66 986.26 L 997.83 985.10 L 997.02 983.94 L 996.16 982.80" stroke="rgb(230,230,230)" stroke-opacity="0.363" stroke-width="0.65" />
  <path d="M 998.88 995.06 L 999.00 993.56 L 999.20 992.09 L 999.41 990.62 L 999.44 989.15 L 999.33 987.69 L 999.25 986.23" stroke="rgb(230,230,230)" stroke-opacity="0.358" stroke-width="0.63" />
  <path d="M 1000.23 994.97 L 1001.62 995.19 L 1003.00 995.31 L 1004.33 995.54 L 1005.66 995.77 L 1006.94 996.28" stroke="rgb(230,230,230)" stroke-opacity="0.357" stroke-width="0.63" />
  <path d="M 997.61 997.80 L 998.97 998.42 L 1000.33 999.02 L 1001.65 999.69 L 1002.95 1000.36 L 1004.27 1000.95 L 1005.58 1001.56 L 1006.89 1002.17 L 1008.17 1002.86" stroke="rgb(230,230,230)" stroke-opacity="0.354" stroke-width="0.62" />
  <path d="M 993.89 999.62 L 995.14 1000.13 L 996.37 1000.62 L 997.61 1001.21 L 998.87 1001.66 L 1000.13 1002.08 L 1001.37 1002.60 L 1002.68 1003.20 L 1004.01 1003.68 L 1005.33 1004.28 L 1006.58 1004.94 L 1007.82 1005.60 L 1009.01 1006.38 L 1010.18 1007.20 L 1011.22 1008.14" stroke="rgb(230,230,230)" stroke-opacity="0.354" stroke-width="0.62" />
  <path d="M 1004.47 998.93 L 1003.67 997.66 L 1002.81 996.45 L 1002.02 995.20 L 1001.39 993.87 L 1000.75 992.55 L 1000.13 991.24 L 999.35 990.01 L 998.48 988.87 L 997.64 987.71 L 996.80 986.56 L 995.99 985.40 L 995.09 984.31 L 994.21 983.22" stroke="rgb(230,230,230)" stroke-opacity="0.352" stroke-width="0.62" />
  <path d="M 999.69 1000.69 L 999.66 1002.09 L 999.72 1003.55 L 999.90 1005.01 L 999.96 1006.45 L 1000.11 1007.87 L 1000.35 1009.26 L 1000.58 1010.65 L 1000.76 1012.04 L 1000.98 1013.41 L 1001.31 1014.69 L 1001.50 1016.02 L 1001.61 1017.35 L 1001.76 1018.63 L 1002.05 1019.96" stroke="rgb(230,230,230)" stroke-opacity="0.351" stroke-width="0.61" />
  <path d="M 994.72 1009.27 L 995.55 1008.77 L 996.33 1008.35 L 997.15 1007.94 L 997.98 1007.54 L 998.89 1007.13 L 999.76 1006.69 L 1000.58 1006.21 L 1001.41 1005.74 L 1002.11 1005.34 L 1002.76 1004.88" stroke="rgb(230,230,230)" stroke-opacity="0.349" stroke-width="0.61" />
</g>
</svg>
