<?xml version="1.0" encoding="UTF-8"?>
<svg xmlns="http://www.w3.org/2000/svg" width="2000" height="2000" viewBox="0 0 2000 2000">
<g fill="none" stroke-linecap="round" stroke-linejoin="round">
  <path d="M 997.03 999.60 L 994.59 997.31 L 992.15 995.03 L 989.76 992.72 L 987.42 990.39 L 985.04 988.11 L 982.66 985.84 L 980.31 983.56 L 977.99 981.28 L 975.69 978.99 L 973.38 976.73 L 971.05 974.51 L 968.77 972.26 L 966.51 970.00 L 964.26 967.75 L 962.05 965.49 L 959.82 963.25 L 957.59 961.04 L 955.29 958.91 L 953.01 956.79 L 950.74 954.67 L 948.50 952.54 L 946.30 950.38 L 944.06 948.30 L 941.81 946.23 L 939.56 944.18 L 937.28 942.18 L 935.01 940.19 L 932.78 938.18 L 930.56 936.16 L 928.34 934.17 L 926.11 932.21 L 923.89 930.26 L 921.71 928.27 L 919.55 926.28 L 917.45 924.25 L 915.37 922.21 L 913.29 920.19 L 911.29 918.11 L 909.29 916.04 L 907.29 913.99 L 905.31 911.93 L 903.35 909.87 L 901.32 907.90 L 899.29 905.95 L 897.27 903.99 L 895.28 902.03 L 893.33 900.03 L 891.44 898.01" stroke="rgb(120,210,255)" stroke-opacity="0.854" stroke-width="1.64" />
  <path d="M 996.79 999.75 L 994.55 997.44 L 992.38 995.06 L 990.20 992.72 L 988.07 990.34 L 985.98 987.95 L 983.88 985.59 L 981.78 983.24 L 979.74 980.86 L 977.65 978.53 L 975.58 976.21 L 973.48 973.93 L 971.40 971.64 L 969.38 969.33 L 967.34 967.04 L 965.36 964.72 L 963.40 962.40 L 961.43 960.10 L 959.42 957.85 L 957.40 955.63 L 955.38 953.43 L 953.27 951.32 L 951.19 949.21 L 949.15 947.07 L 947.15 944.91 L 945.16 942.76" stroke="rgb(120,210,255)" stroke-opacity="0.851" stroke-width="1.63" />
  <path d="M 1001.72 997.07 L 999.45 994.97 L 997.18 992.89 L 994.91 990.83 L 992.68 988.73 L 990.44 986.67 L 988.22 984.60 L 986.00 982.56 L 983.73 980.58 L 981.43 978.66 L 979.05 976.87 L 976.68 975.07 L 974.36 973.23 L 972.14 971.29 L 969.94 969.35 L 967.76 967.40 L 965.63 965.41 L 963.52 963.42 L 961.38 961.47 L 959.22 959.57 L 957.09 957.65 L 955.03 955.67 L 952.95 953.74 L 950.90 951.78 L 948.88 949.81 L 946.85 947.87 L 944.93 945.83 L 942.99 943.83 L 941.06 941.84 L 939.09 939.89 L 937.10 937.99 L 935.13 936.08 L 933.23 934.11 L 931.37 932.13 L 929.51 930.15 L 927.65 928.20 L 925.83 926.22 L 924.04 924.23 L 922.20 922.30 L 920.34 920.40 L 918.46 918.54 L 916.56 916.72 L 914.75 914.81 L 912.97 912.90 L 911.17 911.02 L 909.36 909.16 L 907.55 907.32 L 905.70 905.52 L 903.87 903.73 L 902.02 901.98 L 900.23 900.17 L 898.47 898.35 L 896.74 896.52 L 895.02 894.68 L 893.31 892.86 L 891.62 891.02 L 889.95 889.19 L 888.28 887.37 L 886.64 885.53 L 885.00 883.71 L 883.35 881.91 L 881.66 880.16 L 879.99 878.41 L 878.34 876.64 L 876.70 874.89 L 875.04 873.16 L 873.41 871.43 L 871.81 869.67 L 870.25 867.89 L 868.66 866.15 L 867.07 864.42" stroke="rgb(120,210,255)" stroke-opacity="0.466" stroke-width="1.61" />
  <path d="M 999.59 1000.16 L 997.29 998.05 L 995.00 995.93 L 992.70 993.85 L 990.45 991.72 L 988.30 989.53 L 986.14 987.34 L 983.98 985.19 L 981.81 983.05 L 979.65 980.93 L 977.52 978.79 L 975.38 976.68 L 973.26 974.57 L 971.12 972.49 L 969.01 970.39 L 966.89 968.33 L 964.79 966.27" stroke="rgb(120,210,255)" stroke-opacity="0.847" stroke-width="1.61" />
  <path d="M 1000.35 1000.07 L 998.05 997.58 L 995.74 995.11 L 993.47 992.62 L 991.19 990.16 L 988.92 987.71 L 986.71 985.22 L 984.49 982.76 L 982.26 980.33 L 980.05 977.89 L 977.78 975.53 L 975.52 973.18 L 973.29 970.82 L 971.05 968.48" stroke="rgb(120,210,255)" stroke-opacity="0.842" stroke-width="1.60" />
  <path d="M 998.80 1002.52 L 996.89 1000.38 L 994.98 998.24 L 993.13 996.08 L 991.37 993.85 L 989.57 991.67 L 987.82 989.47 L 986.00 987.33 L 984.35 985.08 L 982.66 982.87 L 981.04 980.62 L 979.54 978.31 L 978.00 976.04 L 976.43 973.79 L 974.90 971.54 L 973.33 969.32 L 971.76 967.12 L 970.12 964.98 L 968.44 962.89 L 966.72 960.84 L 965.01 958.80 L 963.32 956.77 L 961.54 954.81 L 959.74 952.90" stroke="rgb(120,210,255)" stroke-opacity="0.463" stroke-width="1.60" />
  <path d="M 1002.33 998.90 L 1000.07 996.65 L 997.79 994.44 L 995.48 992.30 L 993.21 990.11 L 990.92 987.97 L 988.65 985.83 L 986.41 983.66 L 984.23 981.46 L 982.09 979.24" stroke="rgb(120,210,255)" stroke-opacity="0.840" stroke-width="1.59" />
  <path d="M 1000.43 997.20 L 998.38 995.13 L 996.35 993.06 L 994.36 990.98 L 992.43 988.84 L 990.59 986.65 L 988.69 984.53 L 986.79 982.42 L 984.93 980.29 L 983.13 978.12 L 981.31 975.99 L 979.49 973.86 L 977.73 971.71" stroke="rgb(120,210,255)" stroke-opacity="0.458" stroke-width="1.57" />
  <path d="M 1000.28 1003.56 L 998.64 1002.03 L 996.92 1000.60 L 995.14 999.26 L 993.38 997.91 L 991.59 996.61 L 989.77 995.39 L 987.91 994.22 L 986.03 993.11 L 984.20 991.94 L 982.41 990.72 L 980.70 989.41 L 979.01 988.08 L 977.31 986.78 L 975.68 985.41 L 974.02 984.08 L 972.40 982.74" stroke="rgb(140,255,190)" stroke-opacity="0.568" stroke-width="1.24" />
  <path d="M 1004.74 1001.17 L 1001.35 1000.76 L 997.97 1000.36 L 994.60 999.98 L 991.26 999.53 L 987.92 999.14 L 984.60 998.75 L 981.28 998.38 L 977.99 997.98 L 974.71 997.57 L 971.43 997.21 L 968.17 996.90 L 964.91 996.59 L 961.68 996.26 L 958.45 995.91 L 955.25 995.54 L 952.06 995.13 L 948.88 994.75 L 945.70 994.41 L 942.54 994.12 L 939.40 993.77" stroke="rgb(205,165,255)" stroke-opacity="0.719" stroke-width="1.24" />
  <path d="M 997.57 999.34 L 994.34 998.62 L 991.10 997.98 L 987.87 997.35 L 984.67 996.68 L 981.48 995.97 L 978.31 995.29 L 975.13 994.67 L 971.96 994.12 L 968.80 993.55 L 965.67 992.91 L 962.55 992.27 L 959.43 991.69 L 956.33 991.11 L 953.23 990.57 L 950.16 989.97 L 947.09 989.38 L 944.03 988.84 L 940.98 988.31 L 937.94 987.78 L 934.92 987.24 L 931.91 986.68 L 928.92 986.13 L 925.93 985.61 L 922.96 985.03 L 920.02 984.40 L 917.10 983.71 L 914.19 983.06 L 911.28 982.45 L 908.40 981.77 L 905.51 981.16 L 902.62 980.61 L 899.77 979.98 L 896.92 979.32 L 894.09 978.68 L 891.27 978.05 L 888.45 977.47 L 885.64 976.90 L 882.83 976.39 L 880.04 975.85 L 877.26 975.28 L 874.49 974.74 L 871.73 974.17 L 868.99 973.62 L 866.26 973.06 L 863.54 972.46 L 860.85 971.84 L 858.15 971.27 L 855.47 970.68 L 852.80 970.10 L 850.14 969.51 L 847.49 968.92 L 844.86 968.32 L 842.25 967.66 L 839.66 967.00 L 837.06 966.37 L 834.47 965.76 L 831.91 965.10 L 829.36 964.45 L 826.82 963.78 L 824.29 963.11 L 821.77 962.42 L 819.27 961.74 L 816.77 961.09 L 814.29 960.41 L 811.82 959.71 L 809.37 958.99 L 806.92 958.29 L 804.48 957.62 L 802.05 956.94 L 799.63 956.28 L 797.20 955.65 L 794.79 955.05 L 792.39 954.38 L 790.00 953.75 L 787.63 953.10 L 785.27 952.42 L 782.93 951.71 L 780.60 951.01 L 778.26 950.37" stroke="rgb(205,165,255)" stroke-opacity="0.716" stroke-width="1.23" />
  <path d="M 997.81 996.85 L 994.67 995.46 L 991.52 994.15 L 988.35 992.90 L 985.21 991.63 L 982.07 990.38 L 978.93 989.17 L 975.79 988.00 L 972.67 986.83 L 969.55 985.67 L 966.46 984.51 L 963.37 983.36 L 960.29 982.22 L 957.24 981.03 L 954.23 979.80 L 951.24 978.53 L 948.23 977.35 L 945.28 976.05 L 942.36 974.74 L 939.47 973.38 L 936.61 972.00 L 933.77 970.60 L 930.96 969.17 L 928.15 967.76 L 925.35 966.36 L 922.54 965.00 L 919.75 963.64" stroke="rgb(205,165,255)" stroke-opacity="0.715" stroke-width="1.23" />
  <path d="M 998.36 1001.38 L 995.04 1000.62 L 991.72 999.89 L 988.42 999.10 L 985.16 998.25 L 981.90 997.45 L 978.65 996.66 L 975.40 995.91 L 972.16 995.21 L 968.92 994.56 L 965.69 993.93 L 962.46 993.35 L 959.26 992.70 L 956.08 992.03 L 952.92 991.32 L 949.76 990.64 L 946.62 989.97 L 943.49 989.32 L 940.37 988.68 L 937.27 987.99 L 934.18 987.32 L 931.09 986.70 L 928.02 986.02 L 924.98 985.31 L 921.96 984.58 L 918.94 983.88 L 915.92 983.21 L 912.93 982.51 L 909.95 981.78 L 907.00 981.00 L 904.08 980.20 L 901.17 979.36 L 898.28 978.50 L 895.40 977.66 L 892.52 976.84 L 889.66 976.00 L 886.84 975.10 L 884.02 974.21 L 881.21 973.33" stroke="rgb(205,165,255)" stroke-opacity="0.712" stroke-width="1.22" />
  <path d="M 997.43 1002.29 L 997.65 998.85 L 997.81 995.42 L 997.95 992.00 L 998.09 988.60 L 998.23 985.21 L 998.43 981.83 L 998.61 978.47 L 998.74 975.12 L 998.85 971.79 L 998.93 968.46 L 998.95 965.15 L 998.95 961.85 L 998.98 958.57 L 999.00 955.29 L 999.05 952.03 L 999.15 948.79 L 999.27 945.56 L 999.34 942.34 L 999.36 939.13 L 999.39 935.94 L 999.41 932.75 L 999.40 929.59 L 999.40 926.43 L 999.44 923.29 L 999.49 920.15 L 999.55 917.04 L 999.61 913.93 L 999.63 910.84 L 999.61 907.76 L 999.62 904.69 L 999.62 901.63 L 999.61 898.58 L 999.58 895.55 L 999.50 892.53 L 999.41 889.53 L 999.28 886.53 L 999.15 883.55 L 999.00 880.58 L 998.88 877.62 L 998.69 874.68 L 998.51 871.75 L 998.31 868.83 L 998.10 865.93 L 997.90 863.03 L 997.68 860.15 L 997.49 857.28 L 997.28 854.42 L 997.02 851.57 L 996.73 848.74 L 996.46 845.92 L 996.23 843.11 L 995.94 840.32 L 995.65 837.53 L 995.40 834.76 L 995.18 831.99 L 994.93 829.23 L 994.68 826.49 L 994.49 823.75 L 994.32 821.03 L 994.16 818.31 L 993.95 815.61 L 993.73 812.92 L 993.46 810.24 L 993.16 807.58 L 992.85 804.93 L 992.52 802.29 L 992.24 799.66 L 991.97 797.04 L 991.71 794.43 L 991.48 791.82 L 991.29 789.23 L 991.09 786.64 L 990.88 784.07 L 990.70 781.50 L 990.49 778.95 L 990.32 776.40 L 990.15 773.86 L 989.98 771.34 L 989.78 768.82 L 989.53 766.32 L 989.28 763.83" stroke="rgb(205,165,255)" stroke-opacity="0.712" stroke-width="1.22" />
  <path d="M 997.56 1061.85 L 995.93 1064.76 L 994.24 1067.62 L 992.63 1070.51 L 991.00 1073.37 L 989.35 1076.21 L 987.72 1079.05" stroke="rgb(205,165,255)" stroke-opacity="0.710" stroke-width="1.22" />
  <path d="M 937.27 987.99 L 934.68 985.98 L 932.10 983.98 L 929.53 982.00 L 926.92 980.10 L 924.32 978.20 L 921.79 976.23 L 919.30 974.22 L 916.84 972.20 L 914.38 970.20 L 911.90 968.25 L 909.45 966.28 L 907.06 964.25 L 904.64 962.28 L 902.23 960.33 L 899.83 958.36 L 897.46 956.39 L 895.04 954.51 L 892.66 952.59 L 890.25 950.73 L 887.85 948.87 L 885.51 946.97 L 883.24 944.98 L 881.01 942.98 L 878.75 941.04 L 876.52 939.07 L 874.36 937.04 L 872.14 935.10 L 869.98 933.11 L 867.90 931.06 L 865.87 928.97 L 863.85 926.88 L 861.82 924.82 L 859.87 922.70 L 857.93 920.59 L 856.02 918.47 L 854.16 916.32 L 852.35 914.14 L 850.59 911.93 L 848.80 909.76 L 847.01 907.61 L 845.21 905.48 L 843.47 903.32 L 841.80 901.11 L 840.18 898.89 L 838.55 896.68 L 836.91 894.49 L 835.25 892.33 L 833.64 890.15 L 832.03 887.98 L 830.43 885.82 L 828.86 883.65 L 827.37 881.43 L 825.88 879.23 L 824.35 877.08 L 822.77 874.97 L 821.18 872.87 L 819.70 870.72" stroke="rgb(205,165,255)" stroke-opacity="0.710" stroke-width="1.21" />
  <path d="M 1000.79 998.24 L 1000.60 994.96 L 1000.46 991.69 L 1000.34 988.44 L 1000.19 985.19 L 1000.11 981.96 L 1000.06 978.74 L 999.97 975.54 L 999.86 972.34 L 999.75 969.17 L 999.59 966.00 L 999.45 962.85 L 999.28 959.71 L 999.12 956.58 L 999.05 953.47 L 998.96 950.36 L 998.90 947.27 L 998.83 944.19 L 998.81 941.12 L 998.73 938.07 L 998.58 935.03 L 998.47 932.00 L 998.35 928.98 L 998.26 925.97 L 998.18 922.98 L 998.12 920.00 L 998.06 917.02 L 998.02 914.06 L 997.94 911.12 L 997.82 908.18 L 997.72 905.26 L 997.63 902.35 L 997.54 899.45 L 997.45 896.56 L 997.38 893.69 L 997.29 890.82 L 997.24 887.97 L 997.08 885.13 L 996.89 882.30 L 996.68 879.49 L 996.51 876.68 L 996.42 873.89 L 996.30 871.10 L 996.16 868.33 L 995.97 865.57 L 995.78 862.83 L 995.67 860.09 L 995.48 857.36 L 995.29 854.65 L 995.09 851.94 L 994.88 849.25 L 994.67 846.57 L 994.53 843.90 L 994.39 841.24 L 994.27 838.58 L 994.16 835.94 L 994.04 833.31 L 993.90 830.69 L 993.78 828.07 L 993.70 825.47 L 993.61 822.88 L 993.44 820.30 L 993.31 817.74 L 993.21 815.17 L 993.12 812.62 L 993.08 810.08 L 993.00 807.55 L 992.88 805.03 L 992.74 802.53 L 992.62 800.03 L 992.47 797.54 L 992.33 795.07 L 992.18 792.60 L 992.08 790.14 L 991.96 787.69 L 991.90 785.25 L 991.88 782.82 L 991.87 780.40" stroke="rgb(205,165,255)" stroke-opacity="0.708" stroke-width="1.21" />
  <path d="M 1061.21 1103.20 L 1061.80 1106.64 L 1062.40 1110.07 L 1062.95 1113.49 L 1063.49 1116.90 L 1064.01 1120.29 L 1064.58 1123.67 L 1065.19 1127.03 L 1065.75 1130.38 L 1066.31 1133.71 L 1066.85 1137.04 L 1067.35 1140.35 L 1067.93 1143.65 L 1068.45 1146.93 L 1068.91 1150.22 L 1069.35 1153.49 L 1069.76 1156.75 L 1070.20 1160.00 L 1070.61 1163.24 L 1070.98 1166.47 L 1071.35 1169.68 L 1071.72 1172.88 L 1072.12 1176.07 L 1072.53 1179.24 L 1073.00 1182.39 L 1073.42 1185.54 L 1073.83 1188.67 L 1074.27 1191.78 L 1074.65 1194.90 L 1075.04 1197.99 L 1075.42 1201.08 L 1075.77 1204.16 L 1076.08 1207.23 L 1076.41 1210.28 L 1076.78 1213.32 L 1077.14 1216.35" stroke="rgb(140,255,190)" stroke-opacity="0.744" stroke-width="1.20" />
  <path d="M 935.34 941.40 L 932.03 940.36 L 928.76 939.24 L 925.50 938.17 L 922.24 937.11 L 918.99 936.08 L 915.75 935.06 L 912.53 934.03 L 909.32 933.02 L 906.12 931.99 L 902.94 930.97 L 899.77 929.95 L 896.62 928.90 L 893.49 927.85 L 890.36 926.85 L 887.23 925.88 L 884.11 924.92 L 881.01 923.94 L 877.91 923.00 L 874.82 922.10 L 871.74 921.18 L 868.68 920.25 L 865.61 919.38 L 862.55 918.55 L 859.51 917.69 L 856.49 916.81 L 853.48 915.94 L 850.50 915.01" stroke="rgb(140,255,190)" stroke-opacity="0.744" stroke-width="1.20" />
  <path d="M 960.05 986.04 L 957.90 983.32 L 955.77 980.60 L 953.70 977.86 L 951.65 975.11 L 949.61 972.38 L 947.60 969.65 L 945.58 966.93 L 943.55 964.24 L 941.55 961.54 L 939.59 958.83 L 937.58 956.18 L 935.65 953.48 L 933.77 950.77 L 931.90 948.06 L 930.03 945.37 L 928.21 942.66 L 926.34 940.00 L 924.43 937.39 L 922.51 934.80 L 920.60 932.21 L 918.70 929.64 L 916.77 927.11 L 914.84 924.59 L 912.95 922.05 L 911.10 919.51 L 909.27 916.97 L 907.43 914.44 L 905.58 911.94 L 903.78 909.42 L 902.06 906.85 L 900.31 904.33 L 898.57 901.81 L 896.79 899.33 L 894.99 896.89 L 893.26 894.41 L 891.53 891.95 L 889.79 889.50 L 888.09 887.04 L 886.38 884.61" stroke="rgb(140,255,190)" stroke-opacity="0.737" stroke-width="1.19" />
  <path d="M 1000.09 1001.11 L 997.60 998.85 L 995.15 996.57 L 992.71 994.29 L 990.27 992.04 L 987.76 989.89 L 985.27 987.72 L 982.84 985.52 L 980.37 983.38 L 977.94 981.20 L 975.52 979.05 L 973.13 976.87 L 970.75 974.71 L 968.36 972.58 L 965.97 970.46 L 963.59 968.36 L 961.17 966.31 L 958.79 964.25 L 956.40 962.20 L 954.03 960.16 L 951.68 958.12 L 949.34 956.07 L 947.03 954.02 L 944.71 951.99 L 942.39 949.99 L 940.07 948.00 L 937.72 946.07 L 935.41 944.11 L 933.09 942.19 L 930.78 940.26 L 928.46 938.37 L 926.15 936.48 L 923.84 934.62 L 921.55 932.75 L 919.27 930.88 L 916.99 929.04 L 914.74 927.17 L 912.47 925.35 L 910.20 923.55" stroke="rgb(140,255,190)" stroke-opacity="0.736" stroke-width="1.18" />
  <path d="M 874.42 916.44 L 873.71 913.14 L 873.01 909.87 L 872.29 906.60 L 871.64 903.34 L 870.95 900.10 L 870.29 896.87 L 869.63 893.65 L 869.05 890.43 L 868.40 887.23 L 867.74 884.05 L 867.00 880.90 L 866.24 877.78 L 865.50 874.65 L 864.79 871.54 L 864.11 868.43 L 863.51 865.31 L 863.03 862.19 L 862.61 859.08" stroke="rgb(140,255,190)" stroke-opacity="0.729" stroke-width="1.17" />
  <path d="M 940.57 923.05 L 939.91 920.79 L 939.35 918.52 L 938.84 916.25 L 938.44 913.96 L 938.08 911.68 L 937.72 909.41 L 937.43 907.14 L 936.98 904.90 L 936.46 902.69 L 935.99 900.47 L 935.52 898.27 L 935.17 896.05 L 934.84 893.83 L 934.53 891.63 L 934.23 889.43 L 934.01 887.23 L 933.74 885.04 L 933.56 882.86 L 933.46 880.68 L 933.46 878.50 L 933.32 876.34" stroke="rgb(140,255,190)" stroke-opacity="0.547" stroke-width="1.17" />
  <path d="M 999.17 998.61 L 1001.88 997.50 L 1004.58 996.40 L 1007.28 995.30 L 1009.95 994.18 L 1012.63 993.13 L 1015.31 992.09 L 1017.98 991.07 L 1020.63 990.02 L 1023.25 988.91 L 1025.91 987.95 L 1028.53 986.92 L 1031.12 985.85 L 1033.66 984.69 L 1036.24 983.65 L 1038.84 982.67 L 1041.44 981.77 L 1044.06 980.94 L 1046.65 980.05" stroke="rgb(205,165,255)" stroke-opacity="0.483" stroke-width="1.16" />
  <path d="M 968.15 958.31 L 965.52 956.43 L 962.87 954.60 L 960.22 952.79 L 957.59 950.97 L 954.96 949.17 L 952.36 947.35 L 949.78 945.53 L 947.18 943.76 L 944.54 942.07 L 941.98 940.29 L 939.44 938.49 L 936.94 936.66 L 934.40 934.92 L 931.92 933.11 L 929.41 931.36 L 926.90 929.64 L 924.43 927.88 L 921.99 926.09 L 919.51 924.39 L 916.99 922.76 L 914.47 921.15 L 911.98 919.53 L 909.51 917.90 L 907.03 916.30 L 904.58 914.67 L 902.17 913.01 L 899.75 911.38 L 897.35 909.75 L 894.87 908.26 L 892.37 906.83 L 889.87 905.43 L 887.42 903.96 L 885.00 902.46 L 882.60 900.94 L 880.21 899.44 L 877.81 897.98 L 875.43 896.51 L 873.05 895.05 L 870.72 893.54 L 868.38 892.06 L 866.04 890.60 L 863.71 889.15 L 861.40 887.68 L 859.10 886.22 L 856.83 884.75 L 854.54 883.31 L 852.27 881.87 L 850.02 880.40 L 847.82 878.90 L 845.62 877.40 L 843.40 875.96 L 841.22 874.47 L 839.03 873.03 L 836.84 871.60 L 834.67 870.16 L 832.49 868.74 L 830.30 867.37 L 828.08 866.06 L 825.89 864.73 L 823.74 863.36 L 821.59 862.00 L 819.49 860.57 L 817.41 859.15 L 815.36 857.69 L 813.30 856.27 L 811.23 854.87 L 809.15 853.53 L 807.10 852.13 L 805.10 850.71 L 803.11 849.27 L 801.15 847.80 L 799.25 846.28 L 797.34 844.79" stroke="rgb(140,255,190)" stroke-opacity="0.727" stroke-width="1.16" />
  <path d="M 937.02 891.28 L 936.28 888.04 L 935.56 884.81 L 934.90 881.58 L 934.17 878.38 L 933.42 875.20 L 932.71 872.02 L 931.97 868.87 L 931.11 865.75 L 930.34 862.63 L 929.59 859.51 L 928.76 856.43 L 928.00 853.34 L 927.27 850.26 L 926.55 847.19 L 925.96 844.11 L 925.51 841.01 L 925.15 837.92 L 924.88 834.82 L 924.63 831.74 L 924.17 828.70 L 923.66 825.68 L 923.15 822.67 L 922.63 819.67 L 922.07 816.69" stroke="rgb(140,255,190)" stroke-opacity="0.726" stroke-width="1.16" />
  <path d="M 850.84 872.85 L 850.85 869.55 L 850.71 866.27 L 850.50 863.00 L 850.43 859.74 L 850.33 856.50 L 850.25 853.26 L 850.21 850.04 L 850.19 846.84 L 850.14 843.64 L 850.21 840.46 L 850.27 837.29 L 850.29 834.14 L 850.30 830.99 L 850.34 827.86 L 850.32 824.74 L 850.35 821.64 L 850.35 818.54 L 850.45 815.46 L 850.49 812.40 L 850.56 809.34 L 850.72 806.30 L 850.96 803.28 L 851.21 800.27 L 851.53 797.28 L 851.78 794.29 L 852.04 791.32 L 852.30 788.36 L 852.53 785.41 L 852.71 782.46 L 852.89 779.53 L 853.12 776.62 L 853.37 773.71 L 853.58 770.82 L 853.79 767.94 L 854.05 765.07 L 854.32 762.22 L 854.56 759.37 L 854.90 756.55 L 855.17 753.73 L 855.35 750.91 L 855.61 748.11 L 855.89 745.33 L 856.06 742.55 L 856.20 739.77 L 856.31 737.01 L 856.30 734.26 L 856.29 731.51 L 856.27 728.78 L 856.27 726.06 L 856.28 723.35 L 856.34 720.65 L 856.40 717.96 L 856.46 715.29 L 856.54 712.62 L 856.65 709.96 L 856.84 707.33" stroke="rgb(140,255,190)" stroke-opacity="0.724" stroke-width="1.15" />
  <path d="M 997.60 1000.52 L 995.11 998.44 L 992.64 996.37 L 990.21 994.28 L 987.85 992.11 L 985.48 989.98 L 983.14 987.84 L 980.77 985.75 L 978.43 983.64 L 976.09 981.55 L 973.75 979.48 L 971.46 977.38 L 969.18 975.28 L 966.95 973.15 L 964.75 971.01 L 962.54 968.89 L 960.29 966.83 L 958.06 964.77 L 955.89 962.66 L 953.75 960.54 L 951.63 958.42 L 949.52 956.30 L 947.39 954.22 L 945.27 952.15 L 943.17 950.08 L 941.14 947.95 L 939.19 945.76 L 937.24 943.60 L 935.34 941.40 L 933.42 939.23 L 931.48 937.10 L 929.49 935.02 L 927.52 932.95 L 925.56 930.89 L 923.66 928.78 L 921.80 926.66 L 919.89 924.59" stroke="rgb(140,255,190)" stroke-opacity="0.724" stroke-width="1.15" />
  <path d="M 946.68 981.69 L 945.02 978.96 L 943.36 976.24 L 941.74 973.52 L 940.07 970.84 L 938.45 968.14 L 936.82 965.47 L 935.23 962.78 L 933.69 960.08 L 932.11 957.42 L 930.61 954.73 L 929.12 952.04 L 927.69 949.34 L 926.34 946.61 L 924.97 943.90 L 923.64 941.19 L 922.23 938.53 L 920.80 935.90 L 919.43 933.24 L 918.13 930.57 L 916.76 927.95 L 915.31 925.38 L 913.92 922.79 L 912.48 920.24 L 911.10 917.68 L 909.73 915.11 L 908.50 912.50 L 907.24 909.91 L 905.98 907.33 L 904.70 904.78 L 903.38 902.26 L 902.13 899.71 L 900.84 897.20 L 899.52 894.72 L 898.22 892.24 L 896.97 889.75 L 895.65 887.30 L 894.36 884.86 L 893.12 882.40 L 891.82 879.98 L 890.58 877.54 L 889.31 875.14 L 888.05 872.73 L 886.78 870.35" stroke="rgb(140,255,190)" stroke-opacity="0.724" stroke-width="1.15" />
  <path d="M 1001.90 1002.49 L 999.71 1000.13 L 997.49 997.82 L 995.27 995.54 L 993.09 993.22 L 990.91 990.93 L 988.81 988.57 L 986.71 986.24 L 984.70 983.84 L 982.77 981.40 L 980.79 979.01 L 978.78 976.66 L 976.77 974.34 L 974.72 972.05 L 972.63 969.83 L 970.62 967.55 L 968.61 965.28 L 966.65 963.00 L 964.73 960.68 L 962.84 958.36 L 960.85 956.14 L 958.94 953.87 L 957.00 951.64 L 955.05 949.43 L 953.08 947.26 L 951.12 945.09 L 949.16 942.94 L 947.19 940.82 L 945.26 938.67 L 943.32 936.55 L 941.40 934.43 L 939.46 932.34 L 937.54 930.25 L 935.60 928.19 L 933.66 926.14" stroke="rgb(140,255,190)" stroke-opacity="0.723" stroke-width="1.15" />
  <path d="M 998.83 998.02 L 996.71 995.54 L 994.60 993.08 L 992.51 990.61 L 990.33 988.23 L 988.16 985.87 L 985.99 983.53 L 983.84 981.18 L 981.70 978.84 L 979.53 976.55 L 977.38 974.25" stroke="rgb(140,255,190)" stroke-opacity="0.722" stroke-width="1.15" />
  <path d="M 947.39 954.22 L 946.09 951.34 L 944.79 948.47 L 943.61 945.56 L 942.45 942.66 L 941.37 939.75 L 940.40 936.80 L 939.39 933.89 L 938.48 930.95 L 937.58 928.02 L 936.68 925.11 L 935.75 922.22 L 934.81 919.34 L 933.84 916.49 L 932.98 913.61 L 932.09 910.76 L 931.34 907.88 L 930.64 905.00 L 929.89 902.14 L 929.11 899.30 L 928.35 896.47 L 927.59 893.66 L 926.91 890.83 L 926.37 887.99 L 925.88 885.15 L 925.36 882.32 L 924.83 879.51 L 924.24 876.72 L 923.59 873.96 L 922.93 871.21 L 922.28 868.48 L 921.61 865.75 L 920.96 863.04 L 920.38 860.32 L 919.77 857.61 L 919.23 854.91 L 918.72 852.21 L 918.25 849.51 L 917.82 846.82 L 917.49 844.13" stroke="rgb(140,255,190)" stroke-opacity="0.721" stroke-width="1.15" />
  <path d="M 933.36 880.41 L 931.64 877.77 L 929.90 875.16 L 928.23 872.52 L 926.75 869.79 L 925.42 866.99 L 924.02 864.24 L 922.51 861.56 L 921.17 858.81 L 919.93 856.02 L 918.77 853.22 L 917.54 850.45 L 916.32 847.70 L 914.98 845.01 L 913.64 842.35 L 912.27 839.70 L 910.76 837.15 L 909.33 834.57 L 908.03 831.93 L 906.80 829.28 L 905.57 826.63 L 904.35 823.99 L 903.24 821.32 L 902.00 818.71 L 900.64 816.19 L 899.33 813.64 L 898.03 811.11 L 896.67 808.62 L 895.36 806.12 L 894.07 803.62 L 892.77 801.14 L 891.47 798.67 L 890.18 796.20 L 888.92 793.74 L 887.59 791.32 L 886.34 788.88 L 885.04 786.47 L 883.71 784.09 L 882.32 781.76 L 880.92 779.45" stroke="rgb(140,255,190)" stroke-opacity="0.718" stroke-width="1.14" />
  <path d="M 1062.43 1105.02 L 1062.55 1108.12 L 1062.64 1111.20 L 1062.73 1114.28 L 1062.88 1117.33 L 1062.88 1120.38 L 1062.96 1123.42 L 1063.12 1126.44 L 1063.30 1129.44 L 1063.49 1132.44 L 1063.71 1135.42" stroke="rgb(140,255,190)" stroke-opacity="0.536" stroke-width="1.13" />
  <path d="M 888.90 922.56 L 886.37 920.98 L 883.80 919.48 L 881.24 917.98 L 878.70 916.48 L 876.19 914.96 L 873.67 913.47 L 871.15 911.99 L 868.68 910.47 L 866.21 908.96 L 863.72 907.52 L 861.24 906.08 L 858.80 904.59 L 856.43 903.01 L 854.03 901.49 L 851.60 900.06 L 849.11 898.75 L 846.66 897.40 L 844.19 896.10 L 841.73 894.81 L 839.26 893.56 L 836.76 892.38 L 834.28 891.20 L 831.78 890.10 L 829.26 889.07 L 826.69 888.19 L 824.18 887.20 L 821.66 886.26 L 819.16 885.30 L 816.67 884.32 L 814.18 883.39" stroke="rgb(140,255,190)" stroke-opacity="0.534" stroke-width="1.12" />
  <path d="M 1001.40 999.59 L 999.46 997.94 L 997.52 996.31 L 995.53 994.77 L 993.50 993.28 L 991.47 991.82 L 989.45 990.35 L 987.43 988.90 L 985.44 987.43 L 983.42 986.03 L 981.43 984.59 L 979.45 983.15 L 977.55 981.64 L 975.66 980.11 L 973.73 978.65 L 971.78 977.25 L 969.74 976.00 L 967.63 974.87 L 965.47 973.88 L 963.29 972.96 L 961.11 972.06 L 958.93 971.19 L 956.78 970.27 L 954.63 969.38 L 952.51 968.44 L 950.45 967.39 L 948.37 966.39 L 946.32 965.37 L 944.32 964.27 L 942.32 963.18 L 940.31 962.13 L 938.35 961.02 L 936.39 959.93 L 934.49 958.74 L 932.62 957.52 L 930.71 956.40 L 928.79 955.30 L 926.88 954.21 L 925.00 953.08 L 923.20 951.84 L 921.35 950.69 L 919.58 949.43 L 917.92 948.05 L 916.31 946.63 L 914.71 945.21 L 913.13 943.77 L 911.60 942.30 L 910.05 940.86 L 908.46 939.47 L 906.88 938.09 L 905.36 936.66 L 903.85 935.22 L 902.39 933.75 L 900.89 932.33 L 899.36 930.95" stroke="rgb(140,255,190)" stroke-opacity="0.533" stroke-width="1.12" />
  <path d="M 1041.89 1075.16 L 1044.12 1077.17 L 1046.38 1079.13 L 1048.61 1081.10 L 1050.84 1083.04 L 1053.11 1084.94 L 1055.32 1086.88 L 1057.55 1088.77 L 1059.69 1090.76 L 1061.81 1092.74 L 1064.02 1094.61 L 1066.24 1096.45 L 1068.46 1098.26 L 1070.71 1100.02 L 1072.95 1101.79 L 1075.26 1103.43 L 1077.58 1105.05 L 1079.91 1106.61 L 1082.28 1108.12 L 1084.67 1109.55 L 1087.07 1110.96 L 1089.39 1112.46 L 1091.77 1113.85 L 1094.08 1115.35 L 1096.38 1116.81 L 1098.74 1118.18 L 1101.07 1119.57 L 1103.35 1121.02 L 1105.62 1122.48 L 1107.90 1123.88 L 1110.17 1125.29 L 1112.41 1126.72 L 1114.61 1128.20 L 1116.73 1129.77 L 1118.79 1131.40 L 1120.83 1133.04 L 1122.96 1134.55 L 1125.05 1136.09 L 1127.13 1137.62 L 1129.18 1139.18 L 1131.19 1140.78 L 1133.19 1142.36 L 1135.20 1143.93 L 1137.15 1145.55 L 1139.07 1147.19 L 1140.98 1148.82 L 1142.90 1150.44 L 1144.75 1152.10 L 1146.68 1153.67 L 1148.54 1155.30" stroke="rgb(140,255,190)" stroke-opacity="0.532" stroke-width="1.12" />
  <path d="M 1000.36 1000.81 L 998.32 998.66 L 996.35 996.47 L 994.39 994.30 L 992.45 992.10 L 990.44 990.00 L 988.40 987.94 L 986.36 985.90 L 984.32 983.87 L 982.23 981.91 L 980.13 979.98 L 978.05 978.04 L 975.99 976.11 L 973.97 974.14 L 972.03 972.11 L 970.07 970.11 L 968.12 968.13 L 966.19 966.13 L 964.26 964.16 L 962.33 962.20 L 960.36 960.29 L 958.33 958.46 L 956.33 956.62 L 954.30 954.83 L 952.34 952.98 L 950.35 951.17 L 948.39 949.35 L 946.49 947.48 L 944.60 945.62 L 942.78 943.70 L 940.98 941.78 L 939.20 939.85 L 937.43 937.93 L 935.67 936.01 L 933.95 934.08 L 932.30 932.09 L 930.62 930.14 L 928.95 928.20 L 927.29 926.27 L 925.65 924.33 L 924.01 922.41 L 922.46 920.42 L 920.92 918.44 L 919.43 916.43 L 917.91 914.46 L 916.40 912.49 L 914.88 910.55 L 913.31 908.65 L 911.75 906.76 L 910.28 904.81 L 908.87 902.84 L 907.42 900.89 L 906.07 898.90 L 904.72 896.92 L 903.42 894.91 L 902.25 892.83 L 901.12 890.74 L 900.00 888.66 L 898.96 886.55 L 897.84 884.49 L 896.72 882.45 L 895.59 880.41 L 894.46 878.39 L 893.40 876.34 L 892.29 874.33 L 891.09 872.38 L 889.84 870.47 L 888.57 868.59 L 887.37 866.68 L 886.14 864.79 L 884.95 862.89 L 883.82 860.96 L 882.79 858.99 L 881.70 857.06 L 880.61 855.14 L 879.52 853.23 L 878.52 851.28 L 877.54 849.33 L 876.61 847.37 L 875.65 845.43 L 874.72 843.49 L 873.75 841.57 L 872.75 839.68 L 871.70 837.83 L 870.67 835.98 L 869.67 834.11 L 868.67 832.26 L 867.66 830.43 L 866.68 828.59 L 865.63 826.79 L 864.62 824.98 L 863.60 823.19 L 862.68 821.35 L 861.72 819.55 L 860.75 817.76" stroke="rgb(140,255,190)" stroke-opacity="0.532" stroke-width="1.12" />
  <path d="M 966.12 960.49 L 965.21 957.65 L 964.40 954.80 L 963.49 951.99 L 962.59 949.19 L 961.71 946.39 L 960.84 943.61 L 960.02 940.82 L 959.19 938.05 L 958.36 935.28 L 957.57 932.52 L 956.68 929.81 L 955.71 927.13 L 954.92 924.40 L 954.16 921.68 L 953.47 918.95 L 952.64 916.27 L 951.84 913.60 L 951.13 910.91 L 950.33 908.25 L 949.70 905.57 L 949.01 902.91 L 948.42 900.24 L 947.78 897.59 L 947.18 894.94 L 946.62 892.29 L 946.18 889.64 L 945.85 886.97 L 945.49 884.33 L 945.18 881.68 L 944.85 879.05 L 944.57 876.43 L 944.32 873.81 L 944.14 871.20 L 943.90 868.60 L 943.77 866.01 L 943.53 863.43 L 943.31 860.86 L 943.18 858.30 L 943.09 855.74 L 943.08 853.20 L 943.08 850.66 L 943.12 848.14 L 943.11 845.62 L 943.03 843.11 L 942.88 840.62 L 942.66 838.15 L 942.54 835.67 L 942.38 833.21 L 942.19 830.76 L 942.05 828.32 L 941.90 825.89 L 941.67 823.47" stroke="rgb(140,255,190)" stroke-opacity="0.532" stroke-width="1.12" />
  <path d="M 1000.19 1000.66 L 998.06 998.65 L 995.99 996.61 L 993.87 994.61 L 991.74 992.65 L 989.60 990.73 L 987.45 988.82 L 985.29 986.95 L 983.14 985.08 L 981.04 983.17 L 978.95 981.27 L 976.96 979.28 L 975.02 977.26 L 973.08 975.25 L 971.18 973.22 L 969.25 971.24 L 967.29 969.30 L 965.29 967.41 L 963.31 965.53 L 961.36 963.62" stroke="rgb(140,255,190)" stroke-opacity="0.532" stroke-width="1.12" />
  <path d="M 1001.53 1001.77 L 999.59 1000.01 L 997.62 998.30 L 995.66 996.59 L 993.81 994.78 L 991.98 992.96 L 990.16 991.15 L 988.36 989.33 L 986.50 987.60 L 984.62 985.88 L 982.72 984.22 L 980.87 982.52 L 979.03 980.81 L 977.12 979.20 L 975.18 977.64" stroke="rgb(140,255,190)" stroke-opacity="0.532" stroke-width="1.12" />
  <path d="M 975.72 969.81 L 973.08 968.50 L 970.43 967.24 L 967.80 965.96 L 965.18 964.69 L 962.57 963.42 L 959.94 962.23 L 957.33 961.01 L 954.78 959.71 L 952.19 958.50 L 949.62 957.29 L 947.06 956.08 L 944.50 954.89 L 941.95 953.71 L 939.40 952.57 L 936.85 951.45 L 934.32 950.29 L 931.80 949.15 L 929.33 947.95 L 926.87 946.72 L 924.42 945.52 L 921.99 944.30 L 919.57 943.08 L 917.23 941.74 L 914.89 940.41 L 912.61 939.01 L 910.31 937.66 L 908.09 936.20 L 905.87 934.76 L 903.73 933.23 L 901.65 931.62 L 899.62 929.98 L 897.59 928.35 L 895.63 926.65 L 893.75 924.87 L 891.84 923.16 L 889.99 921.38 L 888.16 919.61 L 886.34 917.83 L 884.47 916.12 L 882.66 914.37 L 880.89 912.58 L 879.08 910.85 L 877.24 909.18 L 875.44 907.47 L 873.72 905.70 L 872.00 903.94 L 870.33 902.14 L 868.62 900.40 L 866.91 898.67 L 865.14 897.02 L 863.34 895.40 L 861.52 893.84 L 859.73 892.25 L 857.83 890.81 L 855.88 889.45 L 853.92 888.14 L 851.94 886.86 L 849.97 885.58" stroke="rgb(140,255,190)" stroke-opacity="0.532" stroke-width="1.12" />
  <path d="M 1001.14 1002.01 L 999.18 999.89 L 997.20 997.80 L 995.30 995.67 L 993.36 993.58 L 991.38 991.54 L 989.37 989.55 L 987.39 987.56 L 985.36 985.62 L 983.34 983.69 L 981.30 981.80 L 979.25 979.94" stroke="rgb(140,255,190)" stroke-opacity="0.531" stroke-width="1.11" />
  <path d="M 955.89 962.66 L 955.17 960.15 L 954.49 957.64 L 953.85 955.13 L 953.20 952.64 L 952.65 950.13 L 952.15 947.62 L 951.71 945.11 L 951.25 942.61 L 950.68 940.15 L 950.08 937.71 L 949.45 935.28 L 948.81 932.86 L 948.10 930.48 L 947.37 928.11 L 946.59 925.77 L 945.90 923.41 L 945.36 921.02 L 944.70 918.68 L 943.97 916.36 L 943.22 914.06 L 942.55 911.74 L 941.91 909.43 L 941.49 907.08 L 941.14 904.72 L 940.67 902.40 L 940.06 900.12 L 939.39 897.86 L 938.69 895.63 L 937.83 893.46 L 937.02 891.28 L 936.27 889.09 L 935.61 886.88 L 934.94 884.68 L 934.22 882.52 L 933.36 880.41 L 932.57 878.28 L 931.80 876.16 L 931.05 874.03 L 930.23 871.95 L 929.44 869.86 L 928.75 867.74 L 928.24 865.59 L 927.69 863.45 L 927.16 861.32 L 926.52 859.23 L 925.98 857.12 L 925.33 855.04 L 924.72 852.97 L 924.11 850.91 L 923.55 848.84 L 923.04 846.76 L 922.54 844.69 L 922.06 842.63" stroke="rgb(140,255,190)" stroke-opacity="0.531" stroke-width="1.11" />
  <path d="M 917.88 973.41 L 914.88 972.81 L 911.88 972.28 L 908.89 971.75 L 905.90 971.26 L 902.94 970.71 L 899.97 970.29 L 897.02 969.82 L 894.08 969.35 L 891.15 968.92 L 888.21 968.61 L 885.29 968.26 L 882.39 967.83 L 879.51 967.38 L 876.64 966.91 L 873.79 966.40 L 870.95 965.92 L 868.11 965.51 L 865.28 965.10 L 862.45 964.75 L 859.64 964.39 L 856.83 964.06 L 854.04 963.71 L 851.26 963.39 L 848.49 963.01 L 845.73 962.68 L 842.97 962.39 L 840.23 962.12 L 837.49 961.86 L 834.77 961.55 L 832.07 961.24 L 829.37 960.93 L 826.68 960.62 L 824.00 960.44 L 821.33 960.17 L 818.67 959.91 L 816.02 959.65 L 813.38 959.44 L 810.76 959.10 L 808.16 958.70 L 805.58 958.30 L 803.00 957.90 L 800.43 957.52 L 797.86 957.22 L 795.30 956.90 L 792.75 956.62 L 790.22 956.25 L 787.71 955.88 L 785.20 955.49 L 782.70 955.13 L 780.20 954.84 L 777.71 954.60 L 775.22 954.41 L 772.75 954.11 L 770.29 953.84 L 767.84 953.57 L 765.39 953.41 L 762.95 953.26 L 760.52 953.11 L 758.10 952.89 L 755.69 952.66 L 753.31 952.35 L 750.92 952.16 L 748.54 952.00 L 746.16 951.88 L 743.80 951.73 L 741.44 951.62 L 739.09 951.48 L 736.76 951.31 L 734.43 951.22 L 732.11 951.14 L 729.80 951.08 L 727.50 951.10 L 725.20 951.08 L 722.92 950.98 L 720.64 950.90 L 718.38 950.84 L 716.12 950.71 L 713.88 950.63 L 711.64 950.60 L 709.41 950.62" stroke="rgb(140,255,190)" stroke-opacity="0.530" stroke-width="1.11" />
  <path d="M 997.25 1002.75 L 994.68 1001.20 L 992.09 999.72 L 989.54 998.19 L 986.95 996.75 L 984.30 995.44 L 981.65 994.18 L 978.97 993.00 L 976.27 991.91 L 973.58 990.81 L 970.86 989.81 L 968.13 988.89 L 965.42 987.96 L 962.73 987.01 L 960.05 986.04 L 957.35 985.16 L 954.66 984.29 L 951.97 983.49 L 949.33 982.56 L 946.68 981.69 L 944.04 980.82 L 941.41 979.95 L 938.77 979.15 L 936.13 978.41 L 933.49 977.69 L 930.86 976.97 L 928.24 976.28 L 925.62 975.59 L 923.04 974.85 L 920.45 974.14 L 917.88 973.41 L 915.31 972.73 L 912.73 972.13 L 910.16 971.54" stroke="rgb(140,255,190)" stroke-opacity="0.530" stroke-width="1.11" />
  <path d="M 998.04 999.44 L 996.35 997.05 L 994.59 994.73 L 992.80 992.45 L 991.01 990.18 L 989.12 988.01 L 987.27 985.82 L 985.47 983.60 L 983.71 981.37 L 982.05 979.08 L 980.40 976.79 L 978.88 974.42 L 977.32 972.10 L 975.72 969.81 L 974.20 967.49 L 972.67 965.19 L 971.10 962.93 L 969.62 960.62 L 968.15 958.31 L 966.60 956.08 L 965.08 953.83 L 963.49 951.65 L 961.90 949.48 L 960.31 947.33 L 958.70 945.20 L 957.13 943.06 L 955.52 940.96 L 953.87 938.90 L 952.24 936.85 L 950.58 934.82 L 948.93 932.81 L 947.29 930.80 L 945.67 928.79 L 944.02 926.82 L 942.30 924.92 L 940.57 923.05 L 938.82 921.20 L 937.11 919.33 L 935.51 917.38 L 933.92 915.44 L 932.32 913.52 L 930.72 911.61 L 929.14 909.69 L 927.62 907.74 L 926.17 905.75 L 924.69 903.80 L 923.27 901.81 L 921.83 899.85 L 920.29 897.98 L 918.69 896.18 L 917.06 894.41 L 915.48 892.61 L 913.92 890.80 L 912.34 889.03" stroke="rgb(140,255,190)" stroke-opacity="0.530" stroke-width="1.11" />
  <path d="M 1000.47 999.88 L 998.73 997.96 L 997.06 996.00 L 995.39 994.04 L 993.74 992.08 L 992.00 990.22 L 990.22 988.41 L 988.44 986.62 L 986.76 984.74 L 985.09 982.86 L 983.43 980.99 L 981.81 979.10 L 980.25 977.18 L 978.68 975.27 L 977.09 973.39 L 975.49 971.54 L 973.99 969.61 L 972.42 967.76 L 970.84 965.93 L 969.33 964.04 L 967.73 962.25 L 966.12 960.49 L 964.50 958.74 L 962.79 957.10 L 961.05 955.49 L 959.36 953.85" stroke="rgb(140,255,190)" stroke-opacity="0.530" stroke-width="1.11" />
  <path d="M 1000.39 1000.52 L 1000.60 1003.09 L 1000.74 1005.66 L 1000.97 1008.21 L 1001.11 1010.76 L 1001.24 1013.30 L 1001.27 1015.83 L 1001.26 1018.35 L 1001.24 1020.86 L 1001.19 1023.36 L 1000.98 1025.85 L 1000.64 1028.30 L 1000.21 1030.74 L 999.89 1033.18 L 999.64 1035.62 L 999.49 1038.05 L 999.32 1040.48 L 999.26 1042.90 L 999.09 1045.31 L 998.94 1047.70 L 998.84 1050.10 L 998.62 1052.47 L 998.35 1054.83 L 998.15 1057.18 L 997.86 1059.52 L 997.56 1061.85 L 997.21 1064.16 L 996.84 1066.45 L 996.38 1068.73" stroke="rgb(205,165,255)" stroke-opacity="0.469" stroke-width="1.11" />
  <path d="M 1004.20 1001.32 L 1003.65 998.84 L 1003.14 996.37 L 1002.65 993.90 L 1002.14 991.44 L 1001.68 988.99 L 1001.11 986.57 L 1000.53 984.16 L 999.80 981.80 L 999.05 979.46 L 998.27 977.14 L 997.42 974.86 L 996.51 972.61 L 995.63 970.35 L 994.63 968.16 L 993.70 965.95 L 992.79 963.74 L 991.94 961.52 L 991.08 959.31 L 990.29 957.08 L 989.39 954.91 L 988.52 952.74 L 987.66 950.57 L 986.83 948.40 L 985.97 946.25 L 985.24 944.06 L 984.51 941.89 L 983.72 939.74 L 982.92 937.61 L 982.08 935.50 L 981.30 933.38 L 980.55 931.26 L 979.81 929.15 L 979.06 927.04 L 978.30 924.95 L 977.59 922.86 L 976.94 920.75 L 976.43 918.61 L 975.94 916.48 L 975.52 914.34 L 975.00 912.23 L 974.46 910.14 L 973.95 908.05 L 973.42 905.97 L 972.90 903.90 L 972.48 901.81 L 972.02 899.75 L 971.48 897.71 L 970.98 895.66 L 970.54 893.62 L 970.08 891.58 L 969.66 889.55 L 969.16 887.54 L 968.67 885.54 L 968.14 883.56 L 967.57 881.59 L 967.08 879.62 L 966.59 877.65 L 966.12 875.69 L 965.69 873.72 L 965.12 871.80 L 964.50 869.91 L 963.89 868.01 L 963.28 866.13 L 962.65 864.26 L 961.99 862.41 L 961.33 860.57 L 960.59 858.77 L 959.87 856.97 L 959.12 855.19" stroke="rgb(140,255,190)" stroke-opacity="0.529" stroke-width="1.11" />
  <path d="M 872.40 915.54 L 871.47 913.10 L 870.57 910.66 L 869.57 908.27 L 868.48 905.93 L 867.36 903.61 L 866.12 901.37 L 864.92 899.13 L 863.75 896.87 L 862.56 894.64 L 861.40 892.40 L 860.27 890.16 L 859.02 887.99 L 857.90 885.77 L 856.65 883.63 L 855.45 881.47 L 854.30 879.30 L 853.16 877.13 L 852.01 874.98 L 850.84 872.85 L 849.71 870.71 L 848.42 868.67 L 847.21 866.59" stroke="rgb(140,255,190)" stroke-opacity="0.529" stroke-width="1.11" />
  <path d="M 1002.35 998.17 L 999.97 996.34 L 997.60 994.50 L 995.36 992.53 L 993.13 990.57 L 990.94 988.59 L 988.68 986.70 L 986.48 984.75 L 984.25 982.86 L 981.95 981.07 L 979.62 979.35 L 977.34 977.58 L 975.05 975.84 L 972.76 974.11 L 970.46 972.43 L 968.18 970.73 L 965.93 969.02 L 963.82 967.14 L 961.70 965.30 L 959.56 963.50 L 957.42 961.73 L 955.30 959.93 L 953.18 958.16 L 951.01 956.47 L 948.79 954.86 L 946.58 953.26 L 944.39 951.64 L 942.25 949.98 L 940.15 948.29" stroke="rgb(140,255,190)" stroke-opacity="0.529" stroke-width="1.11" />
  <path d="M 1982.89 2000.11 L 1980.19 1997.75 L 1978.46 1995.74 L 1976.22 1993.67 L 1973.79 1991.60 L 1971.96 1989.27 L 1969.97 1986.98 L 1967.81 1984.51 L 1965.92 1982.92 L 1963.57 1981.16 L 1961.35 1978.49 L 1959.47 1976.53 L 1957.50 1974.18 L 1955.41 1971.89 L 1953.22 1970.04 L 1951.09 1968.09 L 1948.69 1965.63 L 1947.04 1963.38 L 1944.06 1961.59 L 1942.54 1959.13 L 1940.18 1957.06 L 1938.51 1954.70 L 1936.48 1952.97 L 1934.29 1950.69 L 1931.98 1949.04 L 1930.35 1946.43 L 1927.76 1944.54 L 1925.25 1942.06 L 1923.41 1939.96 L 1921.84 1937.92 L 1919.31 1935.73 L 1917.18 1933.59 L 1915.15 1931.19 L 1913.45 1929.34 L 1910.90 1927.22 L 1908.97 1925.25 L 1906.70 1923.10 L 1904.83 1920.99 L 1903.01 1918.75 L 1900.31 1916.81 L 1898.17 1914.67 L 1895.77 1912.20 L 1894.62 1909.48 L 1892.03 1907.75 L 1889.84 1906.07 L 1888.01 1903.63 L 1885.91 1901.49 L 1883.85 1899.77 L 1881.69 1897.32 L 1879.60 1895.13 L 1877.38 1892.93 L 1874.91 1891.07 L 1873.56 1888.89 L 1870.59 1886.57 L 1869.22 1884.74 L 1866.97 1882.15 L 1864.24 1879.62 L 1862.87 1877.83 L 1860.22 1876.16 L 1858.43 1874.26 L 1856.05 1871.67 L 1854.39 1869.00 L 1851.97 1867.26 L 1849.92 1865.03 L 1848.16 1863.22 L 1845.55 1861.09 L 1843.62 1858.55 L 1841.90 1856.48 L 1840.03 1854.69 L 1837.42 1852.36 L 1835.41 1850.46 L 1833.21 1848.07 L 1831.01 1846.00 L 1829.30 1843.81 L 1827.02 1841.31 L 1824.90 1839.31 L 1822.52 1837.19 L 1820.70 1835.19 L 1818.66 1832.78 L 1816.24 1830.71 L 1814.65 1829.12 L 1812.15 1826.43 L 1809.81 1824.54 L 1807.71 1821.91 L 1806.01 1820.20 L 1803.66 1817.61 L 1801.69 1815.61 L 1799.56 1814.18 L 1797.47 1811.38 L 1795.36 1809.61 L 1793.63 1807.44 L 1791.71 1804.87 L 1789.46 1803.05 L 1786.93 1800.88 L 1784.95 1798.83 L 1782.55 1796.99 L 1781.17 1794.78 L 1778.71 1792.48 L 1776.27 1790.21 L 1774.70 1787.88 L 1772.45 1786.05 L 1770.11 1783.85 L 1767.96 1781.69 L 1766.17 1779.64 L 1764.02 1777.52 L 1761.98 1775.65 L 1759.56 1773.08 L 1757.89 1770.72 L 1755.47 1768.77 L 1753.47 1766.73 L 1750.94 1764.85 L 1749.44 1762.70 L 1747.02 1760.39 L 1744.89 1757.86 L 1743.03 1756.01 L 1740.61 1754.06 L 1738.70 1751.74 L 1736.62 1749.77 L 1734.53 1747.26 L 1732.51 1745.41 L 1730.07 1743.12 L 1728.13 1741.31 L 1725.68 1738.77 L 1724.07 1736.65 L 1721.67 1734.13 L 1719.44 1732.58 L 1717.84 1730.27 L 1715.63 1728.22 L 1713.77 1726.19 L 1711.41 1723.61 L 1709.23 1721.91 L 1707.13 1719.41 L 1705.18 1717.34 L 1702.93 1715.50 L 1700.66 1712.83 L 1698.97 1711.57 L 1696.39 1709.08 L 1694.37 1706.85 L 1692.69 1704.59 L 1690.05 1702.69 L 1688.15 1700.38 L 1686.00 1698.06 L 1683.75 1696.12 L 1681.74 1694.19 L 1679.61 1691.92 L 1677.36 1689.81 L 1675.75 1687.38 L 1673.27 1685.38 L 1671.24 1683.13 L 1669.08 1681.39 L 1666.93 1678.92 L 1665.37 1676.68 L 1662.82 1675.10 L 1660.57 1672.78 L 1658.50 1670.66 L 1656.64 1668.66 L 1654.77 1666.28 L 1652.37 1664.23 L 1650.33 1662.10 L 1648.33 1660.11 L 1645.86 1657.81 L 1643.66 1655.51 L 1641.82 1653.29 L 1639.72 1651.16 L 1638.02 1649.33 L 1635.51 1647.12 L 1633.56 1644.51 L 1631.11 1642.67 L 1629.30 1640.60 L 1627.26 1638.13 L 1625.22 1636.24 L 1622.68 1634.04 L 1620.88 1632.21 L 1618.76 1630.14 L 1616.60 1627.89 L 1614.50 1625.27 L 1611.96 1623.17 L 1610.84 1621.80 L 1608.32 1619.23 L 1606.15 1616.33 L 1603.98 1615.01 L 1601.89 1612.10 L 1599.59 1610.57 L 1597.90 1608.47 L 1595.59 1606.14 L 1593.50 1604.14 L 1591.25 1602.02 L 1589.42 1599.66 L 1587.48 1597.73 L 1585.03 1595.66 L 1582.73 1593.43 L 1580.55 1591.42 L 1579.09 1588.91 L 1576.75 1587.53 L 1574.62 1584.84 L 1572.26 1582.96 L 1570.56 1580.50 L 1568.38 1578.53 L 1566.11 1576.38 L 1564.38 1574.36 L 1561.88 1572.21 L 1559.64 1569.47 L 1557.84 1567.84 L 1555.42 1565.31 L 1553.61 1563.49 L 1551.78 1561.16 L 1549.25 1559.66 L 1547.18 1557.09 L 1545.18 1554.79 L 1542.80 1552.68 L 1540.92 1550.46 L 1539.06 1548.73 L 1536.59 1546.13 L 1534.43 1544.02 L 1532.39 1541.79 L 1530.38 1540.03 L 1528.47 1537.61 L 1526.55 1535.50 L 1523.85 1533.45 L 1521.68 1531.08 L 1519.77 1528.99 L 1518.12 1526.88 L 1515.94 1524.76 L 1513.50 1522.77 L 1511.35 1520.98 L 1509.43 1518.54 L 1507.13 1516.63 L 1505.67 1514.40 L 1503.23 1512.17 L 1501.26 1509.89 L 1498.74 1507.96 L 1496.91 1505.48 L 1494.78 1503.65 L 1492.60 1501.39 L 1490.47 1498.90 L 1488.73 1496.72 L 1485.94 1495.25 L 1483.84 1492.84 L 1482.54 1490.55 L 1480.47 1488.63 L 1478.13 1486.75 L 1475.49 1484.06 L 1473.89 1482.38 L 1471.42 1479.78 L 1469.32 1477.69 L 1467.78 1475.53 L 1465.30 1473.54 L 1463.07 1471.15 L 1460.90 1469.12 L 1458.78 1467.15 L 1456.70 1464.72 L 1454.90 1462.68 L 1452.90 1460.91 L 1450.90 1458.67 L 1448.37 1456.55 L 1446.42 1454.17 L 1444.13 1452.49 L 1442.17 1450.18 L 1439.79 1447.81 L 1437.71 1445.84 L 1435.92 1443.84 L 1433.68 1441.54 L 1431.83 1439.08 L 1429.35 1437.47 L 1427.56 1434.82 L 1425.05 1432.82 L 1422.93 1430.49 L 1421.03 1428.52 L 1419.25 1426.14 L 1417.03 1424.49 L 1415.03 1422.00 L 1412.31 1420.14 L 1410.20 1417.98 L 1408.53 1415.91 L 1406.61 1413.45 L 1404.27 1411.50 L 1402.39 1409.13 L 1399.95 1406.88 L 1397.85 1405.09 L 1395.77 1402.87 L 1393.98 1400.62 L 1391.64 1398.72 L 1389.80 1396.59 L 1387.22 1394.23 L 1385.75 1392.35 L 1383.30 1390.63 L 1380.83 1387.79 L 1379.26 1386.18 L 1376.98 1383.37 L 1375.10 1381.77 L 1372.70 1378.99 L 1370.81 1377.20 L 1367.93 1374.78 L 1366.22 1372.95 L 1364.30 1370.82 L 1362.31 1368.66 L 1360.19 1366.78 L 1358.17 1364.51 L 1356.18 1362.50 L 1353.43 1359.85 L 1352.07 1358.12 L 1349.26 1356.31 L 1347.59 1354.00 L 1345.48 1351.65 L 1343.43 1349.53 L 1341.31 1347.44 L 1338.67 1345.57 L 1337.17 1342.78 L 1334.83 1340.78 L 1333.05 1338.43 L 1331.03 1336.55 L 1329.01 1334.36 L 1326.44 1332.19 L 1324.58 1330.32 L 1322.50 1327.62 L 1320.10 1325.92 L 1318.05 1324.36 L 1316.30 1322.07 L 1313.70 1320.02 L 1312.06 1317.59 L 1309.36 1315.23 L 1307.51 1312.88 L 1305.46 1311.03 L 1303.49 1308.66 L 1301.60 1306.88 L 1299.01 1304.19 L 1296.83 1302.37 L 1294.95 1300.71 L 1292.83 1298.30 L 1290.61 1296.27 L 1288.57 1293.63 L 1286.19 1291.56 L 1284.41 1289.71 L 1282.25 1287.57 L 1280.18 1285.50 L 1278.10 1283.27 L 1276.29 1281.16 L 1274.24 1279.35 L 1271.66 1276.18 L 1269.92 1274.94 L 1267.57 1272.30 L 1266.02 1270.14 L 1263.49 1267.66 L 1261.02 1266.13 L 1259.12 1263.73 L 1256.91 1262.02 L 1254.89 1259.76 L 1253.20 1257.54 L 1250.31 1255.18 L 1248.62 1252.92 L 1246.79 1250.97 L 1244.65 1248.38 L 1242.46 1246.85 L 1240.49 1244.71 L 1238.44 1242.16 L 1235.63 1240.40 L 1234.44 1238.29 L 1232.01 1235.91 L 1229.87 1234.32 L 1227.44 1231.76 L 1225.87 1229.64 L 1223.64 1227.76 L 1221.64 1225.32 L 1219.17 1223.43 L 1216.97 1220.93 L 1215.09 1219.21 L 1213.16 1217.00 L 1210.60 1214.46 L 1208.79 1212.19 L 1206.63 1210.56 L 1204.62 1208.35 L 1202.37 1205.99 L 1200.65 1204.25 L 1198.07 1201.94 L 1196.17 1199.62 L 1194.32 1197.78 L 1192.08 1195.86 L 1190.04 1192.97 L 1187.55 1190.79 L 1185.74 1189.37 L 1183.66 1186.55 L 1181.38 1184.69 L 1179.02 1182.49 L 1177.14 1180.45 L 1175.05 1178.25 L 1173.11 1176.09 L 1171.07 1173.91 L 1168.32 1172.22 L 1166.64 1169.83 L 1165.12 1167.59 L 1162.36 1165.17 L 1160.26 1163.38 L 1158.44 1161.31 L 1156.50 1159.38 L 1154.09 1157.28 L 1151.80 1155.08 L 1150.00 1152.52 L 1147.70 1150.13 L 1145.58 1148.49 L 1143.61 1146.38 L 1141.17 1144.06 L 1139.53 1141.95 L 1137.16 1139.85 L 1134.73 1137.81 L 1133.12 1135.44 L 1131.20 1133.64 L 1129.20 1131.18 L 1126.77 1128.87 L 1125.07 1126.80 L 1122.80 1124.73 L 1120.14 1122.71 L 1118.43 1120.47 L 1116.16 1118.36 L 1113.87 1116.44 L 1112.13 1113.91 L 1109.94 1111.42 L 1107.85 1109.91 L 1105.97 1107.74 L 1103.16 1105.16 L 1101.49 1103.38 L 1099.66 1101.19 L 1097.18 1098.80 L 1095.56 1097.17 L 1092.79 1095.09 L 1091.31 1092.60 L 1088.83 1090.55 L 1086.95 1088.32 L 1084.70 1086.36 L 1082.92 1084.14 L 1080.79 1082.06 L 1078.48 1079.61 L 1076.26 1077.54 L 1073.67 1075.63 L 1071.87 1073.84 L 1069.96 1071.49 L 1067.85 1069.24 L 1066.09 1066.94 L 1063.68 1064.87 L 1061.64 1062.83 L 1059.48 1060.61 L 1057.35 1058.21 L 1055.52 1056.66 L 1053.41 1054.20 L 1051.31 1051.81 L 1048.95 1049.57 L 1046.60 1047.48 L 1044.85 1045.38 L 1043.07 1043.32 L 1040.83 1041.50 L 1038.77 1039.33 L 1036.58 1036.74 L 1034.23 1034.81 L 1032.60 1032.75 L 1030.05 1030.68 L 1027.83 1028.57 L 1025.69 1026.82 L 1023.57 1023.97 L 1021.60 1022.36 L 1019.37 1019.85 L 1017.26 1018.06 L 1015.08 1015.44 L 1013.18 1013.24 L 1010.90 1011.35 L 1009.02 1009.47 L 1007.13 1007.20 L 1004.69 1004.89 L 1002.95 1002.65 L 1000.94 1000.61 L 1000.00 1000.00 L 997.89 997.87 L 995.78 995.73 L 993.68 993.59 L 991.58 991.45 L 989.48 989.31 L 987.39 987.16 L 985.28 985.02 L 983.18 982.88 L 981.08 980.74 L 978.99 978.59 L 976.88 976.45 L 974.79 974.31 L 972.70 972.15 L 970.61 970.00 L 968.52 967.84 L 966.44 965.69 L 964.35 963.53 L 962.28 961.36 L 960.20 959.20 L 958.13 957.03 L 956.06 954.86 L 953.99 952.68 L 951.92 950.51 L 949.85 948.34 L 947.79 946.16 L 945.72 943.99 L 943.64 941.82 L 941.57 939.66 L 939.49 937.50 L 937.40 935.34 L 935.31 933.19 L 933.23 931.03 L 931.14 928.87 L 929.06 926.71 L 926.98 924.55 L 924.90 922.39 L 922.82 920.23 L 920.75 918.06 L 918.67 915.89 L 916.60 913.72 L 914.53 911.55 L 912.45 909.39 L 910.38 907.21 L 908.31 905.04 L 906.25 902.87 L 904.17 900.70 L 902.10 898.53 L 900.02 896.37 L 897.94 894.20 L 895.87 892.04 L 893.78 889.88 L 891.70 887.72 L 889.61 885.57 L 887.51 883.42 L 885.42 881.28 L 883.33 879.13 L 881.23 876.98 L 879.14 874.83 L 877.05 872.67 L 874.97 870.52 L 872.88 868.36 L 870.79 866.21 L 868.69 864.06 L 866.60 861.92 L 864.50 859.77 L 862.41 857.62 L 860.32 855.47 L 858.23 853.32 L 856.13 851.17 L 854.04 849.02 L 851.94 846.88 L 849.83 844.75 L 847.73 842.61 L 845.63 840.46 L 843.53 838.32 L 841.43 836.17 L 839.34 834.03 L 837.24 831.88 L 835.14 829.74 L 833.03 827.60 L 830.92 825.47 L 828.81 823.34 L 826.70 821.21 L 824.59 819.08 L 822.47 816.95 L 820.36 814.83 L 818.24 812.69 L 816.13 810.56 L 814.02 808.43 L 811.91 806.30 L 809.80 804.16 L 807.69 802.03 L 805.59 799.90 L 803.48 797.76 L 801.38 795.62 L 799.28 793.48 L 797.19 791.33 L 795.10 789.17 L 793.02 787.01 L 790.94 784.85 L 788.85 782.69 L 786.77 780.53 L 784.69 778.37 L 782.62 776.20 L 780.55 774.03 L 778.48 771.86 L 776.40 769.69 L 774.33 767.53 L 772.25 765.37 L 770.17 763.20 L 768.10 761.03 L 766.02 758.86 L 763.95 756.70 L 761.86 754.54 L 759.78 752.38 L 757.70 750.22 L 755.61 748.07 L 753.51 745.93 L 751.41 743.78 L 749.32 741.63 L 747.23 739.48 L 745.12 737.34 L 743.01 735.21 L 740.90 733.08 L 738.78 730.96 L 736.65 728.84 L 734.53 726.72 L 732.41 724.60 L 730.29 722.48 L 728.17 720.36 L 726.05 718.24 L 723.93 716.11 L 721.82 713.98 L 719.70 711.85 L 717.58 709.73 L 715.47 707.59 L 713.36 705.46 L 711.25 703.33 L 709.14 701.20 L 707.04 699.06 L 704.94 696.92 L 702.84 694.78 L 700.74 692.63 L 698.64 690.49 L 696.54 688.34 L 694.44 686.20 L 692.34 684.06 L 690.25 681.91 L 688.16 679.76 L 686.07 677.60 L 683.99 675.45 L 681.90 673.29 L 679.82 671.13 L 677.74 668.97 L 675.66 666.80 L 673.58 664.64 L 671.50 662.48 L 669.41 660.33 L 667.33 658.17 L 665.25 656.01 L 663.17 653.84 L 661.10 651.68 L 659.02 649.51 L 656.95 647.34 L 654.87 645.17 L 652.80 643.00 L 650.72 640.84 L 648.64 638.68 L 646.56 636.52 L 644.47 634.37 L 642.38 632.22 L 640.30 630.05 L 638.22 627.89 L 636.14 625.73 L 634.06 623.57 L 631.97 621.42 L 629.88 619.27 L 627.78 617.12 L 625.69 614.97 L 623.60 612.81 L 621.52 610.65 L 619.44 608.50 L 617.35 606.35 L 615.26 604.19 L 613.17 602.04 L 611.08 599.89 L 608.99 597.74 L 606.90 595.58 L 604.81 593.43 L 602.73 591.27 L 600.64 589.12 L 598.54 586.98 L 596.43 584.84 L 594.31 582.71 L 592.19 580.59 L 590.08 578.46 L 587.95 576.35 L 585.82 574.23 L 583.69 572.13 L 581.55 570.02 L 579.42 567.91 L 577.28 565.80 L 575.15 563.70 L 573.01 561.59 L 570.88 559.48 L 568.75 557.37 L 566.62 555.26 L 564.49 553.14 L 562.35 551.04 L 560.22 548.93 L 558.08 546.82 L 555.95 544.71 L 553.82 542.60 L 551.69 540.49 L 549.56 538.38 L 547.43 536.26 L 545.31 534.14 L 543.18 532.03 L 541.06 529.90 L 538.93 527.79 L 536.81 525.67 L 534.68 523.55 L 532.55 521.44 L 530.42 519.33 L 528.29 517.22 L 526.16 515.11 L 524.03 512.99 L 521.91 510.87 L 519.79 508.75 L 517.67 506.62 L 515.55 504.50 L 513.44 502.37 L 511.32 500.25 L 509.21 498.12 L 507.10 495.98 L 504.98 493.86 L 502.86 491.74 L 500.74 489.62 L 498.62 487.49 L 496.49 485.38 L 494.36 483.26 L 492.24 481.14 L 490.10 479.03 L 487.97 476.92 L 485.84 474.81 L 483.71 472.70 L 481.58 470.59 L 479.46 468.47 L 477.33 466.35 L 475.21 464.23 L 473.10 462.10 L 470.99 459.97 L 468.88 457.83 L 466.77 455.70 L 464.66 453.57 L 462.55 451.44 L 460.44 449.30 L 458.34 447.16 L 456.23 445.03 L 454.12 442.90 L 452.01 440.76 L 449.91 438.62 L 447.80 436.49 L 445.69 434.35 L 443.59 432.21 L 441.49 430.07 L 439.39 427.93 L 437.28 425.80 L 435.17 423.66 L 433.06 421.53 L 430.94 419.41 L 428.82 417.29 L 426.70 415.17 L 424.58 413.04 L 422.47 410.91 L 420.35 408.78 L 418.25 406.65 L 416.13 404.51 L 414.02 402.38 L 411.91 400.26 L 409.79 398.13 L 407.67 396.01 L 405.55 393.89 L 403.43 391.76 L 401.31 389.64 L 399.20 387.51 L 397.09 385.38 L 394.97 383.26 L 392.84 381.14 L 390.71 379.03 L 388.58 376.91 L 386.46 374.79 L 384.34 372.67 L 382.21 370.56 L 380.07 368.45 L 377.93 366.35 L 375.80 364.24 L 373.66 362.14 L 371.53 360.02 L 369.41 357.91 L 367.27 355.80 L 365.12 353.70 L 362.98 351.61 L 360.83 349.52 L 358.67 347.43 L 356.53 345.32 L 354.38 343.23 L 352.23 341.14 L 350.08 339.05 L 347.94 336.95 L 345.79 334.85 L 343.65 332.75 L 341.52 330.65 L 339.37 328.55 L 337.23 326.45 L 335.09 324.34 L 332.95 322.24 L 330.82 320.13 L 328.69 318.02 L 326.56 315.90 L 324.43 313.79 L 322.31 311.67 L 320.18 309.55 L 318.07 307.43 L 315.95 305.30 L 313.82 303.19 L 311.70 301.06 L 309.58 298.94 L 307.47 296.81 L 305.36 294.67 L 303.27 292.53 L 301.16 290.40 L 299.05 288.26 L 296.94 286.12 L 294.83 283.99 L 292.73 281.86 L 290.62 279.72 L 288.51 277.59 L 286.41 275.45 L 284.30 273.31 L 282.19 271.18 L 280.09 269.04 L 277.99 266.90 L 275.89 264.75 L 273.80 262.60 L 271.69 260.47 L 269.59 258.32 L 267.49 256.18 L 265.39 254.04 L 263.29 251.90 L 261.20 249.75 L 259.10 247.60 L 257.00 245.46 L 254.91 243.31 L 252.83 241.15 L 250.74 238.99 L 248.65 236.84 L 246.57 234.68 L 244.48 232.53 L 242.39 230.38 L 240.30 228.22 L 238.22 226.07 L 236.13 223.91 L 234.04 221.76 L 231.95 219.61 L 229.86 217.45 L 227.78 215.29 L 225.69 213.14 L 223.61 210.98 L 221.51 208.83 L 219.42 206.68 L 217.34 204.52 L 215.25 202.37 L 213.15 200.23 L 211.06 198.08 L 208.97 195.92 L 206.87 193.78 L 204.77 191.63 L 202.67 189.49 L 200.56 187.36 L 198.46 185.22 L 196.35 183.08 L 194.26 180.94 L 192.16 178.79 L 190.07 176.64 L 187.97 174.50 L 185.86 172.36 L 183.76 170.22 L 181.66 168.08 L 179.56 165.94 L 177.46 163.79 L 175.37 161.65 L 173.27 159.50 L 171.16 157.37 L 169.07 155.22 L 166.97 153.08 L 164.87 150.93 L 162.78 148.77 L 160.70 146.62 L 158.62 144.46 L 156.53 142.30 L 154.43 140.16 L 152.33 138.02 L 150.22 135.88 L 148.12 133.74 L 146.02 131.60 L 143.92 129.46 L 141.82 127.31 L 139.73 125.17 L 137.63 123.02 L 135.53 120.88 L 133.43 118.74 L 131.32 116.60 L 129.22 114.46 L 127.11 112.33 L 125.01 110.19 L 122.90 108.05 L 120.80 105.91 L 118.70 103.77 L 116.60 101.62 L 114.50 99.48 L 112.40 97.34 L 110.30 95.20 L 108.20 93.05 L 106.11 90.91 L 104.02 88.76 L 101.91 86.62 L 99.81 84.47 L 97.71 82.34 L 95.60 80.21 L 93.48 78.08 L 91.37 75.95 L 89.26 73.82 L 87.14 71.69 L 85.03 69.55 L 82.92 67.42 L 80.81 65.30 L 78.69 63.17 L 76.58 61.04 L 74.47 58.91 L 72.36 56.78 L 70.25 54.64 L 68.15 52.50 L 66.04 50.37 L 63.94 48.23 L 61.83 46.09 L 59.71 43.96 L 57.61 41.83 L 55.49 39.70 L 53.38 37.57 L 51.28 35.43 L 49.17 33.30 L 47.06 31.16 L 44.96 29.02 L 42.85 26.89 L 40.75 24.75 L 38.65 22.61 L 36.54 20.47 L 34.43 18.34 L 32.31 16.21 L 30.20 14.08 L 28.08 11.96 L 25.96 9.83 L 23.85 7.70 L 21.74 5.57 L 19.63 3.44 L 17.52 1.31 L 15.40 -0.82 L 13.28 -2.94 L 11.17 -5.07 L 9.06 -7.20 L 6.95 -9.33 L 4.84 -11.46 L 2.73 -13.60 L 0.62 -15.73 L -1.49 -17.86 L -3.60 -20.00" stroke="rgb(245,245,245)" stroke-opacity="0.703" stroke-width="1.10" />
  <path d="M 997.41 996.52 L 995.29 994.49 L 993.16 992.49 L 991.09 990.43 L 989.02 988.39 L 986.93 986.39 L 984.78 984.46 L 982.58 982.63 L 980.37 980.81 L 978.13 979.05 L 975.93 977.26 L 973.81 975.39 L 971.67 973.56 L 969.54 971.74 L 967.44 969.90 L 965.38 968.03 L 963.32 966.19 L 961.32 964.28 L 959.36 962.36 L 957.41 960.45 L 955.54 958.46 L 953.68 956.48 L 951.77 954.57 L 949.97 952.57 L 948.23 950.53 L 946.39 948.59 L 944.61 946.61 L 942.90 944.59 L 941.17 942.59 L 939.52 940.55 L 937.88 938.51 L 936.31 936.42 L 934.76 934.34 L 933.21 932.27 L 931.68 930.20 L 930.17 928.13 L 928.71 926.03 L 927.10 924.05 L 925.55 922.05 L 924.01 920.05 L 922.51 918.03 L 920.93 916.08 L 919.37 914.13 L 917.88 912.15 L 916.43 910.14 L 914.93 908.19 L 913.39 906.27 L 911.84 904.38 L 910.27 902.52 L 908.71 900.66 L 907.14 898.82 L 905.50 897.06 L 903.82 895.35 L 902.12 893.68 L 900.46 891.97 L 898.87 890.22 L 897.22 888.53 L 895.58 886.85 L 893.89 885.23 L 892.23 883.60 L 890.58 881.96 L 888.94 880.34 L 887.34 878.68 L 885.75 877.02 L 884.18 875.36 L 882.64 873.69 L 881.05 872.07 L 879.49 870.44 L 877.96 868.79 L 876.44 867.15 L 874.95 865.49 L 873.40 863.90 L 871.87 862.30" stroke="rgb(140,255,190)" stroke-opacity="0.526" stroke-width="1.10" />
  <path d="M 1001.47 999.22 L 999.62 996.90 L 997.83 994.56 L 996.08 992.19 L 994.36 989.83 L 992.70 987.43 L 990.95 985.11 L 989.19 982.82 L 987.51 980.48 L 985.81 978.17 L 984.12 975.87 L 982.45 973.56 L 980.72 971.31 L 979.07 969.02 L 977.51 966.68 L 975.96 964.35 L 974.35 962.08 L 972.77 959.79 L 971.18 957.52 L 969.59 955.27 L 968.04 953.01 L 966.52 950.73 L 965.02 948.46 L 963.54 946.18 L 962.09 943.91 L 960.57 941.69" stroke="rgb(140,255,190)" stroke-opacity="0.526" stroke-width="1.10" />
  <path d="M 1001.41 997.33 L 1002.51 999.78 L 1003.58 1002.24 L 1004.75 1004.63 L 1005.96 1006.99 L 1007.17 1009.34 L 1008.36 1011.69 L 1009.50 1014.05 L 1010.64 1016.40 L 1011.75 1018.76 L 1012.87 1021.09 L 1013.96 1023.43 L 1014.96 1025.80 L 1015.95 1028.16 L 1017.00 1030.48 L 1018.12 1032.77 L 1019.25 1035.03 L 1020.32 1037.31 L 1021.35 1039.59 L 1022.40 1041.86 L 1023.51 1044.09 L 1024.57 1046.33 L 1025.65 1048.55 L 1026.79 1050.73 L 1027.93 1052.90 L 1029.09 1055.05 L 1030.25 1057.19 L 1031.37 1059.33 L 1032.57 1061.42 L 1033.91 1063.41 L 1035.30 1065.36 L 1036.59 1067.36 L 1037.95 1069.31 L 1039.27 1071.27 L 1040.54 1073.25 L 1041.89 1075.16 L 1043.22 1077.08 L 1044.53 1079.01 L 1045.80 1080.94 L 1047.13 1082.82 L 1048.47 1084.69 L 1049.75 1086.59 L 1050.96 1088.52 L 1052.23 1090.40 L 1053.52 1092.26 L 1054.74 1094.15 L 1055.98 1096.02 L 1057.24 1097.87 L 1058.57 1099.65 L 1059.92 1101.40 L 1061.21 1103.20 L 1062.43 1105.02 L 1063.73 1106.79 L 1065.08 1108.50 L 1066.39 1110.23 L 1067.78 1111.90 L 1069.15 1113.55 L 1070.54 1115.20 L 1072.01 1116.75 L 1073.44 1118.32 L 1074.83 1119.92 L 1076.23 1121.50 L 1077.59 1123.11 L 1078.98 1124.68 L 1080.34 1126.26 L 1081.72 1127.81 L 1083.02 1129.42" stroke="rgb(140,255,190)" stroke-opacity="0.526" stroke-width="1.10" />
  <path d="M 969.16 887.54 L 967.71 885.18 L 966.18 882.89 L 964.62 880.64 L 962.99 878.44 L 961.40 876.23 L 959.84 874.01 L 958.38 871.74 L 956.90 869.49 L 955.46 867.23 L 954.07 864.96 L 952.81 862.61 L 951.70 860.21 L 950.50 857.86 L 949.26 855.55 L 947.96 853.28 L 946.52 851.11 L 945.18 848.89 L 943.86 846.67 L 942.52 844.47 L 941.12 842.32 L 939.82 840.12 L 938.55 837.92 L 937.23 835.76 L 935.89 833.62" stroke="rgb(140,255,190)" stroke-opacity="0.526" stroke-width="1.10" />
  <path d="M 1001.47 998.81 L 999.75 996.57 L 998.00 994.37 L 996.26 992.17 L 994.48 990.03 L 992.69 987.90 L 990.86 985.83 L 988.96 983.83 L 987.04 981.86 L 985.10 979.94 L 983.03 978.17 L 980.94 976.44 L 978.84 974.74 L 976.71 973.09 L 974.63 971.40 L 972.55 969.73 L 970.39 968.18 L 968.23 966.65 L 966.11 965.07 L 963.93 963.62 L 961.74 962.18 L 959.55 960.78 L 957.38 959.35 L 955.16 958.02 L 952.89 956.80 L 950.61 955.63 L 948.32 954.50 L 946.02 953.42 L 943.72 952.34 L 941.45 951.24 L 939.22 950.09 L 937.01 948.90 L 934.81 947.74 L 932.63 946.54 L 930.49 945.30 L 928.35 944.08 L 926.21 942.87 L 924.06 941.71 L 921.94 940.52 L 919.92 939.18 L 917.90 937.85 L 915.83 936.62 L 913.77 935.40 L 911.73 934.16 L 909.68 932.97 L 907.63 931.78 L 905.53 930.70 L 903.46 929.59 L 901.41 928.48 L 899.32 927.44 L 897.19 926.52 L 895.09 925.55 L 892.99 924.62 L 890.93 923.62 L 888.90 922.56 L 886.86 921.57 L 884.81 920.59 L 882.74 919.71 L 880.65 918.88 L 878.56 918.07 L 876.48 917.27 L 874.42 916.44 L 872.40 915.54 L 870.39 914.64 L 868.37 913.78 L 866.37 912.92 L 864.35 912.11 L 862.34 911.28" stroke="rgb(140,255,190)" stroke-opacity="0.525" stroke-width="1.09" />
  <path d="M 1001.34 998.62 L 1000.24 996.26 L 999.20 993.88 L 998.30 991.45 L 997.44 989.03 L 996.65 986.58 L 995.74 984.20 L 994.94 981.78 L 993.98 979.44 L 992.98 977.12 L 991.86 974.87 L 990.79 972.60 L 989.78 970.32 L 988.79 968.04 L 987.88 965.74 L 987.02 963.43 L 986.20 961.12 L 985.38 958.82 L 984.62 956.50 L 983.85 954.20 L 983.02 951.94 L 982.21 949.67 L 981.37 947.43 L 980.56 945.18 L 979.88 942.90 L 979.29 940.61 L 978.77 938.31 L 978.18 936.04 L 977.63 933.76" stroke="rgb(205,165,255)" stroke-opacity="0.464" stroke-width="1.09" />
  <path d="M 998.78 1003.38 L 996.68 1001.59 L 994.56 999.83 L 992.42 998.12 L 990.37 996.31 L 988.22 994.65 L 986.04 993.04 L 983.78 991.57 L 981.56 990.05 L 979.37 988.51 L 977.16 987.02" stroke="rgb(140,255,190)" stroke-opacity="0.522" stroke-width="1.08" />
  <path d="M 999.26 1042.90 L 998.27 1045.07 L 997.23 1047.21 L 996.23 1049.36 L 995.12 1051.44 L 994.08 1053.55 L 992.99 1055.62 L 991.79 1057.62 L 990.58 1059.60 L 989.37 1061.57 L 988.14 1063.52 L 986.98 1065.50 L 985.91 1067.52 L 984.87 1069.54" stroke="rgb(205,165,255)" stroke-opacity="0.454" stroke-width="1.05" />
  <path d="M 904.08 980.20 L 902.42 978.83 L 900.77 977.47 L 899.10 976.16 L 897.44 974.84 L 895.80 973.51 L 894.15 972.21 L 892.55 970.84 L 890.97 969.48 L 889.42 968.10 L 887.89 966.71 L 886.44 965.24 L 885.02 963.76 L 883.47 962.43 L 881.86 961.18 L 880.29 959.89 L 878.64 958.73 L 876.97 957.60 L 875.27 956.54 L 873.60 955.46 L 871.90 954.41 L 870.20 953.40 L 868.50 952.40 L 866.80 951.42 L 865.01 950.61 L 863.21 949.86 L 861.40 949.18 L 859.58 948.52 L 857.78 947.83 L 856.04 947.02 L 854.32 946.21 L 852.57 945.45 L 850.81 944.74 L 849.07 944.03 L 847.35 943.26 L 845.61 942.57 L 843.83 941.99 L 842.04 941.50 L 840.25 941.03 L 838.46 940.59 L 836.69 940.11 L 834.90 939.75" stroke="rgb(205,165,255)" stroke-opacity="0.447" stroke-width="1.03" />
  <path d="M 1001.06 995.10 L 1002.40 995.77 L 1003.61 996.63 L 1004.74 997.60 L 1005.92 998.51 L 1007.13 999.35 L 1008.32 1000.21 L 1009.57 1000.98 L 1010.80 1001.76 L 1012.01 1002.56 L 1013.18 1003.41" stroke="rgb(230,230,230)" stroke-opacity="0.386" stroke-width="0.71" />
  <path d="M 1001.16 1003.02 L 999.66 1003.12 L 998.19 1003.35 L 996.72 1003.59 L 995.25 1003.78 L 993.77 1003.87 L 992.34 1004.18 L 990.88 1004.30" stroke="rgb(230,230,230)" stroke-opacity="0.384" stroke-width="0.71" />
  <path d="M 1001.86 1003.14 L 1000.38 1002.93 L 998.91 1002.66 L 997.44 1002.41 L 995.99 1002.12 L 994.55 1001.80" stroke="rgb(230,230,230)" stroke-opacity="0.379" stroke-width="0.69" />
  <path d="M 997.75 998.87 L 997.77 1000.37 L 997.81 1001.87 L 997.83 1003.35 L 998.08 1004.82 L 998.29 1006.28 L 998.52 1007.73 L 998.70 1009.18" stroke="rgb(230,230,230)" stroke-opacity="0.379" stroke-width="0.69" />
  <path d="M 998.82 1000.48 L 998.61 998.99 L 998.72 997.50 L 998.84 996.02 L 998.90 994.54" stroke="rgb(230,230,230)" stroke-opacity="0.371" stroke-width="0.67" />
  <path d="M 999.65 997.55 L 998.16 997.42 L 996.67 997.29 L 995.19 997.16 L 993.71 997.21 L 992.23 997.22 L 990.76 997.26" stroke="rgb(230,230,230)" stroke-opacity="0.370" stroke-width="0.67" />
  <path d="M 997.93 998.36 L 998.27 996.89 L 998.51 995.42 L 998.81 993.96 L 998.99 992.49 L 999.24 991.04 L 999.15 989.57 L 998.85 988.13" stroke="rgb(230,230,230)" stroke-opacity="0.367" stroke-width="0.66" />
  <path d="M 999.78 1000.14 L 998.78 999.02 L 997.78 997.92 L 996.73 996.86 L 995.71 995.78 L 994.67 994.74 L 993.60 993.73 L 992.47 992.80 L 991.43 991.78 L 990.38 990.77 L 989.33 989.78 L 988.30 988.76 L 987.33 987.71 L 986.34 986.67 L 985.31 985.70" stroke="rgb(230,230,230)" stroke-opacity="0.363" stroke-width="0.65" />
  <path d="M 1004.39 1003.31 L 1005.51 1002.32 L 1006.59 1001.28 L 1007.82 1000.45" stroke="rgb(230,230,230)" stroke-opacity="0.362" stroke-width="0.64" />
  <path d="M 999.75 1002.52 L 998.38 1003.13 L 997.01 1003.72 L 995.63 1004.28 L 994.24 1004.81 L 992.86 1005.32 L 991.51 1005.90 L 990.14 1006.41" stroke="rgb(230,230,230)" stroke-opacity="0.362" stroke-width="0.64" />
  <path d="M 996.64 995.36 L 996.73 996.86 L 996.90 998.34 L 997.07 999.82 L 997.23 1001.29 L 997.51 1002.74 L 997.51 1004.21 L 997.11 1005.62 L 996.47 1006.94" stroke="rgb(230,230,230)" stroke-opacity="0.360" stroke-width="0.64" />
  <path d="M 998.28 990.91 L 998.27 992.41 L 998.57 993.88 L 999.03 995.29 L 999.39 996.73 L 999.67 998.18 L 999.88 999.64 L 1000.28 1001.04 L 1000.94 1002.34" stroke="rgb(230,230,230)" stroke-opacity="0.359" stroke-width="0.64" />
  <path d="M 993.82 998.99 L 994.93 997.98 L 995.89 996.84 L 996.98 995.83 L 998.24 995.05 L 999.63 994.55" stroke="rgb(230,230,230)" stroke-opacity="0.358" stroke-width="0.63" />
  <path d="M 1004.18 1000.57 L 1003.55 1001.93 L 1002.98 1003.31 L 1002.26 1004.62 L 1001.51 1005.89 L 1000.98 1007.27 L 1000.45 1008.64 L 999.94 1010.01 L 999.58 1011.43 L 999.30 1012.85 L 998.95 1014.25" stroke="rgb(230,230,230)" stroke-opacity="0.357" stroke-width="0.63" />
  <path d="M 995.25 1003.85 L 993.83 1004.33 L 992.37 1004.66 L 990.93 1005.01" stroke="rgb(230,230,230)" stroke-opacity="0.355" stroke-width="0.63" />
  <path d="M 996.86 1000.31 L 995.44 999.82 L 993.99 999.48 L 992.57 999.03 L 991.17 998.55 L 989.76 998.09 L 988.34 997.71" stroke="rgb(230,230,230)" stroke-opacity="0.354" stroke-width="0.62" />
  <path d="M 998.13 999.85 L 999.21 1000.90 L 1000.19 1002.02 L 1001.05 1003.24 L 1001.79 1004.52 L 1002.41 1005.86 L 1003.10 1007.16 L 1003.68 1008.50 L 1004.39 1009.78 L 1005.02 1011.08" stroke="rgb(230,230,230)" stroke-opacity="0.352" stroke-width="0.62" />
  <path d="M 997.22 1000.24 L 995.72 1000.30 L 994.23 1000.36 L 992.74 1000.44 L 991.27 1000.60 L 989.81 1000.78 L 988.34 1000.86 L 986.88 1000.97" stroke="rgb(230,230,230)" stroke-opacity="0.351" stroke-width="0.61" />
</g>
</svg>
