<?xml version="1.0" encoding="UTF-8"?>
<svg xmlns="http://www.w3.org/2000/svg" width="2000" height="2000" viewBox="0 0 2000 2000">
<g fill="none" stroke-linecap="round" stroke-linejoin="round">
  <path d="M 1004.07 1001.58 L 1002.21 998.65 L 1000.29 995.77 L 998.37 992.90 L 996.47 990.04 L 994.56 987.21 L 992.69 984.36 L 990.85 981.51 L 989.08 978.63 L 987.30 975.77 L 985.54 972.92 L 983.78 970.08 L 982.01 967.27 L 980.23 964.47 L 978.44 961.70 L 976.66 958.94 L 974.90 956.18 L 973.11 953.45 L 971.32 950.74 L 969.56 948.03 L 967.80 945.32 L 966.05 942.63 L 964.33 939.94 L 962.61 937.26 L 960.89 934.59 L 959.19 931.93 L 957.50 929.29 L 955.85 926.62 L 954.22 923.96 L 952.57 921.33 L 950.92 918.72 L 949.28 916.10 L 947.68 913.49 L 946.09 910.88 L 944.52 908.26 L 942.97 905.66 L 941.42 903.07 L 939.85 900.50 L 938.28 897.95 L 936.70 895.41 L 935.14 892.88 L 933.55 890.39 L 931.96 887.91 L 930.41 885.41 L 928.89 882.91 L 927.39 880.42" stroke="rgb(120,210,255)" stroke-opacity="0.853" stroke-width="1.63" />
  <path d="M 949.06 903.36 L 947.26 900.44 L 945.46 897.54 L 943.64 894.66 L 941.81 891.79 L 940.00 888.94 L 938.18 886.11 L 936.42 883.27 L 934.66 880.44 L 932.90 877.64 L 931.16 874.85 L 929.42 872.06 L 927.68 869.30 L 925.97 866.55 L 924.24 863.82 L 922.59 861.05 L 920.98 858.28 L 919.43 855.49 L 917.89 852.71 L 916.40 849.91 L 914.87 847.14 L 913.40 844.36 L 911.94 841.59 L 910.52 838.82 L 909.10 836.05 L 907.68 833.29 L 906.27 830.55 L 904.90 827.80 L 903.53 825.05 L 902.17 822.32 L 900.79 819.60 L 899.45 816.87 L 898.12 814.16 L 896.77 811.46 L 895.45 808.78 L 894.14 806.11 L 892.83 803.44 L 891.56 800.78 L 890.29 798.12 L 889.02 795.48 L 887.74 792.85 L 886.45 790.24 L 885.19 787.62 L 883.95 784.99 L 882.71 782.39 L 881.48 779.78 L 880.27 777.19 L 879.04 774.61 L 877.82 772.03 L 876.62 769.45 L 875.39 766.91 L 874.16 764.38 L 872.95 761.84 L 871.75 759.32 L 870.54 756.81 L 869.33 754.32 L 868.14 751.83 L 866.93 749.36 L 865.70 746.90 L 864.48 744.46 L 863.25 742.04 L 862.02 739.64 L 860.81 737.24 L 859.60 734.85 L 858.40 732.47 L 857.21 730.10 L 856.03 727.74 L 854.83 725.39 L 853.60 723.09 L 852.37 720.80 L 851.13 718.51 L 849.90 716.24 L 848.67 713.98 L 847.43 711.74 L 846.20 709.50 L 844.98 707.26 L 843.75 705.04 L 842.52 702.83 L 841.27 700.66 L 840.02 698.49 L 838.76 696.33 L 837.55 694.16 L 836.35 692.00 L 835.17 689.84 L 834.00 687.69 L 832.84 685.54" stroke="rgb(120,210,255)" stroke-opacity="0.851" stroke-width="1.63" />
  <path d="M 998.65 997.16 L 996.92 994.35 L 995.24 991.52 L 993.52 988.74 L 991.79 985.98 L 990.07 983.23 L 988.35 980.49 L 986.63 977.77 L 984.92 975.05 L 983.21 972.35 L 981.50 969.66 L 979.79 966.98 L 978.09 964.32 L 976.41 961.65 L 974.75 958.98 L 973.11 956.32 L 971.47 953.67 L 969.85 951.03 L 968.26 948.38 L 966.67 945.74 L 965.13 943.10 L 963.59 940.46 L 962.08 937.82 L 960.54 935.21 L 959.01 932.61 L 957.52 930.01 L 956.03 927.41 L 954.54 924.83 L 953.06 922.26 L 951.60 919.69 L 950.15 917.13 L 948.70 914.58 L 947.26 912.04 L 945.82 909.51 L 944.39 907.00 L 942.94 904.51 L 941.54 901.99 L 940.15 899.49 L 938.72 897.03 L 937.35 894.54 L 935.99 892.06 L 934.61 889.61 L 933.23 887.17 L 931.87 884.73 L 930.52 882.30 L 929.22 879.86 L 927.94 877.41 L 926.66 874.98 L 925.42 872.54 L 924.21 870.10 L 922.99 867.67 L 921.80 865.24" stroke="rgb(120,210,255)" stroke-opacity="0.849" stroke-width="1.62" />
  <path d="M 966.90 938.45 L 965.75 935.47 L 964.59 932.50 L 963.45 929.54 L 962.31 926.60 L 961.17 923.67 L 960.05 920.74 L 958.89 917.84 L 957.75 914.95 L 956.65 912.06 L 955.61 909.16 L 954.57 906.27 L 953.45 903.42 L 952.32 900.59 L 951.19 897.78 L 950.08 894.97 L 948.99 892.17 L 947.91 889.37 L 946.77 886.61 L 945.63 883.87 L 944.51 881.14 L 943.37 878.42 L 942.26 875.70 L 941.19 872.98 L 940.09 870.28 L 939.01 867.58 L 937.91 864.90 L 936.86 862.22" stroke="rgb(120,210,255)" stroke-opacity="0.848" stroke-width="1.62" />
  <path d="M 1000.37 999.08 L 998.43 996.22 L 996.49 993.37 L 994.53 990.55 L 992.56 987.76 L 990.57 985.00 L 988.60 982.24 L 986.67 979.47 L 984.73 976.73 L 982.80 973.99 L 980.88 971.27 L 978.97 968.56 L 977.07 965.84 L 975.20 963.14 L 973.31 960.45 L 971.40 957.80 L 969.47 955.18 L 967.55 952.56 L 965.60 949.99 L 963.67 947.41 L 961.80 944.81 L 959.95 942.22 L 958.10 939.63 L 956.27 937.04 L 954.43 934.49 L 952.60 931.94 L 950.81 929.38 L 949.05 926.82 L 947.29 924.27" stroke="rgb(120,210,255)" stroke-opacity="0.846" stroke-width="1.61" />
  <path d="M 999.12 1001.43 L 997.13 998.78 L 995.17 996.12 L 993.18 993.50 L 991.20 990.90 L 989.22 988.30 L 987.19 985.77 L 985.17 983.24 L 983.18 980.70 L 981.21 978.17 L 979.24 975.66 L 977.28 973.15 L 975.32 970.66 L 973.37 968.19 L 971.41 965.73 L 969.48 963.27 L 967.56 960.81 L 965.66 958.36 L 963.77 955.91 L 961.89 953.48 L 960.02 951.05 L 958.12 948.66 L 956.20 946.30 L 954.30 943.94 L 952.41 941.59 L 950.55 939.24 L 948.69 936.89 L 946.85 934.56 L 944.97 932.26 L 943.07 929.99 L 941.17 927.74 L 939.26 925.51" stroke="rgb(120,210,255)" stroke-opacity="0.844" stroke-width="1.61" />
  <path d="M 959.95 942.22 L 957.89 939.92 L 955.85 937.64 L 953.80 935.37 L 951.76 933.11 L 949.75 930.84 L 947.73 928.60 L 945.75 926.34 L 943.85 924.02 L 941.95 921.72 L 940.02 919.46 L 938.11 917.21 L 936.21 914.96 L 934.32 912.72 L 932.42 910.50 L 930.61 908.22 L 928.80 905.95 L 926.96 903.73 L 925.15 901.50 L 923.36 899.26 L 921.65 896.98 L 919.92 894.73 L 918.18 892.50 L 916.45 890.27 L 914.73 888.05 L 913.03 885.84 L 911.40 883.59 L 909.77 881.36 L 908.18 879.11 L 906.59 876.87 L 905.00 874.66 L 903.41 872.47 L 901.82 870.29 L 900.23 868.12 L 898.66 865.95 L 897.09 863.80 L 895.52 861.66 L 893.93 859.55 L 892.33 857.45 L 890.75 855.34 L 889.20 853.22 L 887.68 851.10 L 886.20 848.96 L 884.67 846.87 L 883.15 844.80 L 881.68 842.70 L 880.21 840.62 L 878.75 838.55 L 877.21 836.54 L 875.66 834.55 L 874.16 832.53 L 872.65 830.53 L 871.15 828.53 L 869.65 826.56 L 868.16 824.59 L 866.62 822.67 L 865.11 820.75" stroke="rgb(120,210,255)" stroke-opacity="0.464" stroke-width="1.60" />
  <path d="M 994.64 1001.99 L 993.13 999.47 L 991.53 997.01 L 989.91 994.58 L 988.34 992.13 L 986.76 989.70 L 985.23 987.25 L 983.72 984.81 L 982.20 982.38 L 980.68 979.97 L 979.15 977.57 L 977.61 975.20 L 976.05 972.85 L 974.55 970.48 L 972.98 968.18 L 971.38 965.90 L 969.75 963.65 L 968.13 961.42 L 966.52 959.20 L 964.94 956.96 L 963.27 954.80 L 961.61 952.65 L 960.03 950.46 L 958.45 948.28 L 956.84 946.14 L 955.24 944.01 L 953.67 941.87 L 952.09 939.75 L 950.45 937.71 L 948.82 935.64 L 947.15 933.63 L 945.46 931.65 L 943.78 929.66 L 942.10 927.70 L 940.40 925.77 L 938.69 923.86 L 936.98 921.97 L 935.27 920.09 L 933.56 918.22 L 931.84 916.37 L 930.19 914.48 L 928.58 912.56 L 926.99 910.63 L 925.42 908.71 L 923.84 906.80 L 922.27 904.89 L 920.70 903.00 L 919.19 901.08 L 917.65 899.18 L 916.13 897.29 L 914.62 895.40 L 913.11 893.52 L 911.66 891.61 L 910.19 889.72 L 908.75 887.83" stroke="rgb(120,210,255)" stroke-opacity="0.463" stroke-width="1.60" />
  <path d="M 1003.52 995.77 L 1001.74 993.23 L 999.96 990.71 L 998.15 988.23 L 996.36 985.74 L 994.59 983.26 L 992.82 980.79 L 991.04 978.35 L 989.28 975.91 L 987.52 973.47 L 985.80 971.03 L 984.08 968.60 L 982.35 966.19 L 980.64 963.79 L 978.92 961.40 L 977.26 958.99 L 975.65 956.55 L 974.08 954.11 L 972.52 951.68 L 970.85 949.32 L 969.20 946.98 L 967.54 944.64" stroke="rgb(120,210,255)" stroke-opacity="0.462" stroke-width="1.59" />
  <path d="M 1000.95 1002.39 L 999.35 1000.05 L 997.81 997.70 L 996.26 995.36 L 994.77 993.00 L 993.44 990.55 L 992.09 988.14 L 990.72 985.74 L 989.42 983.32 L 988.15 980.89 L 986.89 978.47 L 985.66 976.05 L 984.45 973.63 L 983.27 971.21 L 982.07 968.81 L 980.86 966.42 L 979.69 964.03 L 978.50 961.66 L 977.33 959.29 L 976.15 956.94 L 974.97 954.60 L 973.77 952.29 L 972.60 949.96 L 971.46 947.64 L 970.34 945.32 L 969.22 943.00 L 968.08 940.71 L 966.90 938.45 L 965.73 936.20 L 964.54 933.97 L 963.38 931.74 L 962.20 929.53 L 960.97 927.35 L 959.84 925.15 L 958.68 922.96 L 957.60 920.74 L 956.53 918.54 L 955.42 916.36 L 954.32 914.19 L 953.28 912.00 L 952.25 909.81 L 951.19 907.64 L 950.13 905.50 L 949.06 903.36 L 948.00 901.23 L 946.93 899.11 L 945.71 897.09 L 944.53 895.07 L 943.37 893.05 L 942.32 890.99 L 941.27 888.93 L 940.21 886.89 L 939.17 884.85 L 938.13 882.82 L 937.03 880.82 L 936.00 878.81 L 934.95 876.82 L 933.90 874.84 L 932.86 872.87 L 931.84 870.90 L 930.84 868.93 L 929.79 867.01 L 928.73 865.10 L 927.65 863.22 L 926.60 861.33 L 925.54 859.45 L 924.48 857.59" stroke="rgb(120,210,255)" stroke-opacity="0.458" stroke-width="1.57" />
  <path d="M 997.98 1001.20 L 996.36 998.92 L 994.72 996.67 L 993.08 994.42 L 991.42 992.20 L 989.79 989.98 L 988.14 987.77 L 986.47 985.60 L 984.80 983.43 L 983.18 981.24 L 981.57 979.07 L 979.95 976.90 L 978.34 974.75 L 976.72 972.62 L 975.10 970.49 L 973.57 968.32 L 972.04 966.16 L 970.52 964.01 L 969.01 961.86" stroke="rgb(120,210,255)" stroke-opacity="0.454" stroke-width="1.55" />
  <path d="M 940.21 886.89 L 938.79 884.69 L 937.35 882.51 L 935.83 880.41 L 934.29 878.33 L 932.74 876.26 L 931.23 874.18 L 929.70 872.16 L 928.25 870.08 L 926.85 867.98 L 925.42 865.92 L 923.97 863.90 L 922.62 861.83 L 921.24 859.79 L 919.87 857.75 L 918.51 855.73 L 917.19 853.68 L 915.92 851.64 L 914.66 849.60 L 913.36 847.64 L 912.04 845.69 L 910.79 843.70 L 909.53 841.72 L 908.38 839.72 L 907.18 837.76 L 906.06 835.79 L 904.96 833.82 L 903.87 831.85 L 902.82 829.87 L 901.78 827.90 L 900.70 825.98" stroke="rgb(120,210,255)" stroke-opacity="0.447" stroke-width="1.51" />
  <path d="M 961.80 944.81 L 960.10 942.99 L 958.46 941.18 L 956.81 939.40 L 955.18 937.62 L 953.53 935.87 L 951.93 934.08 L 950.39 932.29 L 948.82 930.52 L 947.31 928.74 L 945.87 926.92 L 944.44 925.11 L 943.12 923.22 L 941.80 921.33 L 940.52 919.47 L 939.25 917.61 L 938.01 915.73 L 936.76 913.87 L 935.56 911.95 L 934.40 910.03 L 933.22 908.17 L 932.06 906.33 L 930.92 904.51 L 929.87 902.67 L 928.87 900.76 L 927.89 898.84 L 926.89 896.96" stroke="rgb(120,210,255)" stroke-opacity="0.447" stroke-width="1.51" />
  <path d="M 883.20 878.70 L 881.50 877.52 L 879.78 876.36 L 878.07 875.20 L 876.32 874.17 L 874.57 873.07 L 872.82 872.00 L 871.07 870.93 L 869.37 869.84 L 867.66 868.77 L 866.02 867.72 L 864.47 866.62 L 862.97 865.45 L 861.45 864.30 L 859.87 863.24 L 858.30 862.21 L 856.71 861.19 L 855.09 860.37 L 853.51 859.53 L 851.90 858.68 L 850.31 857.85 L 848.65 857.03 L 847.04 856.07 L 845.39 855.24 L 843.78 854.42 L 842.22 853.55 L 840.70 852.55 L 839.28 851.46 L 837.89 850.36 L 836.45 849.31 L 834.99 848.30" stroke="rgb(140,255,190)" stroke-opacity="0.573" stroke-width="1.26" />
  <path d="M 997.96 997.09 L 1001.01 997.05 L 1004.05 997.03 L 1007.06 997.03 L 1010.06 997.05 L 1013.06 997.10 L 1016.06 997.09 L 1019.04 997.08 L 1022.01 997.07 L 1024.96 997.05 L 1027.90 997.03 L 1030.83 997.04" stroke="rgb(205,165,255)" stroke-opacity="0.724" stroke-width="1.25" />
  <path d="M 952.08 965.62 L 950.04 963.20 L 947.99 960.80 L 946.00 958.37 L 944.00 955.96 L 941.99 953.59 L 939.94 951.29 L 937.87 949.01 L 935.89 946.72 L 933.99 944.36 L 932.08 942.05 L 930.14 939.80 L 928.21 937.52 L 926.30 935.25 L 924.39 932.99 L 922.48 930.76 L 920.59 928.54 L 918.69 926.35 L 916.79 924.17 L 914.90 922.00 L 913.10 919.81 L 911.32 917.62 L 909.58 915.40 L 907.86 913.16 L 906.18 910.91 L 904.52 908.67 L 902.87 906.42 L 901.17 904.18 L 899.47 901.96 L 897.75 899.79 L 896.04 897.64 L 894.30 895.57 L 892.58 893.50 L 890.90 891.41 L 889.21 889.34 L 887.51 887.29 L 885.88 885.22 L 884.26 883.16 L 882.72 881.07 L 881.13 879.01 L 879.52 877.00 L 877.91 874.99 L 876.33 872.95 L 874.76 870.91 L 873.21 868.88 L 871.66 866.87 L 870.11 864.87 L 868.59 862.85 L 867.08 860.84 L 865.61 858.80 L 864.17 856.72 L 862.72 854.67 L 861.24 852.66 L 859.74 850.68" stroke="rgb(205,165,255)" stroke-opacity="0.712" stroke-width="1.22" />
  <path d="M 919.78 893.05 L 918.15 890.47 L 916.55 887.91 L 914.97 885.36 L 913.39 882.83 L 911.76 880.32 L 910.12 877.83 L 908.48 875.33 L 906.84 872.84" stroke="rgb(140,255,190)" stroke-opacity="0.744" stroke-width="1.20" />
  <path d="M 999.95 997.52 L 1000.06 999.51 L 1000.16 1001.48 L 1000.38 1003.43 L 1000.60 1005.39 L 1000.77 1007.36 L 1000.90 1009.26 L 1001.07 1011.14 L 1001.21 1012.96 L 1001.37 1014.80 L 1001.51 1016.64 L 1001.65 1018.47 L 1001.72 1020.28 L 1001.78 1022.09 L 1001.85 1023.89 L 1001.91 1025.68 L 1002.04 1027.46 L 1002.20 1029.25 L 1002.34 1031.03 L 1002.49 1032.81 L 1002.61 1034.55 L 1002.68 1036.27 L 1002.85 1038.05 L 1002.95 1039.83 L 1003.13 1041.62 L 1003.29 1043.42 L 1003.44 1045.19 L 1003.60 1046.94 L 1003.77 1048.66 L 1003.90 1050.40 L 1004.06 1052.14 L 1004.24 1053.86 L 1004.40 1055.56 L 1004.61 1057.20 L 1004.74 1058.88 L 1004.88 1060.54 L 1005.00 1062.24 L 1005.12 1063.94 L 1005.25 1065.63 L 1005.35 1067.35 L 1005.45 1069.07 L 1005.46 1070.75 L 1005.43 1072.42 L 1005.39 1074.08 L 1005.39 1075.75 L 1005.39 1077.42 L 1005.37 1079.09 L 1005.33 1080.76 L 1005.28 1082.41 L 1005.23 1084.06 L 1005.20 1085.70 L 1005.15 1087.30 L 1005.11 1088.89" stroke="rgb(205,165,255)" stroke-opacity="0.705" stroke-width="1.20" />
  <path d="M 969.59 963.08 L 968.50 959.77 L 967.42 956.46 L 966.33 953.17 L 965.28 949.89 L 964.24 946.61 L 963.21 943.35 L 962.21 940.09 L 961.22 936.85 L 960.23 933.61 L 959.23 930.40 L 958.23 927.20 L 957.22 924.02 L 956.20 920.85 L 955.20 917.69 L 954.20 914.54 L 953.20 911.41 L 952.19 908.29 L 951.22 905.17 L 950.24 902.07 L 949.28 898.98 L 948.33 895.90 L 947.37 892.83 L 946.41 889.78 L 945.52 886.73" stroke="rgb(140,255,190)" stroke-opacity="0.743" stroke-width="1.20" />
  <path d="M 891.99 832.14 L 889.70 830.05 L 887.43 827.98 L 885.15 825.86 L 882.90 823.74 L 880.67 821.64 L 878.42 819.58 L 876.16 817.65 L 873.91 815.72 L 871.67 813.81 L 869.47 811.92 L 867.27 810.06 L 865.08 808.19 L 862.89 806.25 L 860.73 804.36 L 858.52 802.55 L 856.30 800.75 L 854.09 798.98 L 851.84 797.23 L 849.55 795.54 L 847.22 793.87 L 844.90 792.22 L 842.59 790.56 L 840.26 788.93 L 837.94 787.32 L 835.62 785.73 L 833.30 784.16" stroke="rgb(140,255,190)" stroke-opacity="0.743" stroke-width="1.20" />
  <path d="M 952.08 965.62 L 950.34 963.30 L 948.58 961.03 L 946.88 958.73 L 945.19 956.43 L 943.49 954.16 L 941.77 951.89 L 940.04 949.64 L 938.31 947.41 L 936.52 945.22 L 934.71 943.07 L 932.88 940.95 L 931.05 938.84 L 929.24 936.73 L 927.44 934.63 L 925.64 932.54 L 923.86 930.45 L 922.13 928.38 L 920.39 926.36 L 918.63 924.37 L 916.94 922.29 L 915.28 920.21 L 913.58 918.18 L 911.91 916.19 L 910.25 914.19 L 908.60 912.21 L 906.95 910.22 L 905.31 908.22 L 903.65 906.25 L 902.00 904.31 L 900.30 902.43 L 898.63 900.49 L 896.95 898.59 L 895.29 896.68 L 893.60 894.82 L 891.93 892.98 L 890.25 891.21 L 888.60 889.45 L 886.96 887.65 L 885.33 885.87 L 883.72 884.12 L 882.13 882.37 L 880.55 880.60 L 878.97 878.85 L 877.42 877.13 L 875.86 875.42 L 874.30 873.75 L 872.72 872.09 L 871.15 870.45 L 869.58 868.82 L 868.01 867.20 L 866.45 865.55 L 864.90 863.91 L 863.35 862.30 L 861.80 860.71 L 860.26 859.13 L 858.73 857.55 L 857.20 855.97 L 855.70 854.41 L 854.21 852.83 L 852.68 851.25 L 851.16 849.69 L 849.67 848.13 L 848.20 846.54 L 846.72 844.98 L 845.19 843.43" stroke="rgb(205,165,255)" stroke-opacity="0.493" stroke-width="1.20" />
  <path d="M 999.35 999.52 L 1000.89 1000.66 L 1002.41 1001.79 L 1003.96 1002.92 L 1005.49 1004.03 L 1007.02 1005.10 L 1008.56 1006.10 L 1010.09 1007.11 L 1011.60 1008.11 L 1013.09 1009.12 L 1014.57 1010.15 L 1016.03 1011.16 L 1017.49 1012.16 L 1018.93 1013.20 L 1020.35 1014.23 L 1021.76 1015.28 L 1023.18 1016.33 L 1024.60 1017.39 L 1026.03 1018.47 L 1027.45 1019.55 L 1028.85 1020.59 L 1030.30 1021.61 L 1031.73 1022.63 L 1033.21 1023.60 L 1034.68 1024.59 L 1036.14 1025.57 L 1037.59 1026.54 L 1039.00 1027.42 L 1040.39 1028.28 L 1041.77 1029.15 L 1043.14 1030.02 L 1044.54 1030.88" stroke="rgb(140,255,190)" stroke-opacity="0.741" stroke-width="1.20" />
  <path d="M 933.81 842.01 L 934.47 838.81 L 935.10 835.60 L 935.72 832.41 L 936.31 829.22 L 936.89 826.04 L 937.47 822.87 L 938.03 819.71 L 938.58 816.57 L 939.11 813.44 L 939.66 810.31 L 940.16 807.19 L 940.73 804.09 L 941.31 801.00 L 941.95 797.96 L 942.60 794.95 L 943.24 791.95 L 943.87 788.97 L 944.51 786.01 L 945.14 783.06 L 945.77 780.11 L 946.39 777.17 L 947.00 774.24 L 947.60 771.36 L 948.12 768.47 L 948.66 765.59 L 949.17 762.74 L 949.66 759.90 L 950.16 757.08 L 950.65 754.26 L 951.10 751.46 L 951.57 748.66 L 952.13 745.91 L 952.69 743.16 L 953.26 740.42 L 953.86 737.69" stroke="rgb(140,255,190)" stroke-opacity="0.741" stroke-width="1.20" />
  <path d="M 1000.20 1003.93 L 998.69 1002.24 L 997.19 1000.57 L 995.71 998.88 L 994.21 997.21 L 992.76 995.55 L 991.35 993.87 L 989.92 992.22 L 988.49 990.56 L 987.21 988.79 L 985.96 987.00 L 984.69 985.23 L 983.51 983.43 L 982.37 981.62 L 981.25 979.82 L 980.16 978.02 L 978.96 976.31 L 977.80 974.62 L 976.64 972.96 L 975.47 971.28 L 974.29 969.62 L 973.13 967.97 L 971.96 966.33 L 970.79 964.69 L 969.59 963.08 L 968.41 961.48 L 967.24 959.89 L 966.12 958.25 L 965.03 956.62" stroke="rgb(140,255,190)" stroke-opacity="0.555" stroke-width="1.20" />
  <path d="M 929.06 901.51 L 927.29 900.06 L 925.55 898.63 L 923.83 897.17 L 922.13 895.68 L 920.44 894.20 L 918.79 892.70 L 917.12 891.25 L 915.44 889.83 L 913.73 888.42 L 912.03 887.03 L 910.34 885.67 L 908.64 884.35 L 906.99 882.98 L 905.34 881.64 L 903.70 880.31 L 902.06 878.99 L 900.41 877.68 L 898.75 876.38 L 897.20 875.01 L 895.67 873.71 L 894.09 872.44 L 892.51 871.19 L 890.97 869.92 L 889.34 868.78 L 887.66 867.72 L 885.99 866.65 L 884.31 865.61 L 882.68 864.58 L 881.05 863.50 L 879.40 862.47 L 877.76 861.43 L 876.11 860.41 L 874.42 859.48 L 872.74 858.52 L 871.01 857.67 L 869.27 856.82 L 867.52 856.03 L 865.78 855.19 L 864.02 854.40 L 862.29 853.65 L 860.51 852.94 L 858.71 852.28 L 856.93 851.63" stroke="rgb(140,255,190)" stroke-opacity="0.555" stroke-width="1.19" />
  <path d="M 962.42 920.84 L 961.86 917.51 L 961.28 914.17 L 960.78 910.84 L 960.29 907.53 L 959.81 904.22 L 959.35 900.92 L 958.90 897.64 L 958.38 894.37 L 957.88 891.10 L 957.34 887.85 L 956.77 884.64 L 956.16 881.44 L 955.51 878.26 L 954.89 875.08 L 954.27 871.91 L 953.63 868.75 L 952.93 865.62 L 952.23 862.51 L 951.55 859.39 L 950.90 856.29 L 950.32 853.18 L 949.75 850.09 L 949.21 847.00 L 948.69 843.92 L 948.15 840.86 L 947.56 837.82 L 946.95 834.79 L 946.34 831.78 L 945.73 828.78 L 945.07 825.81 L 944.45 822.82 L 943.82 819.85 L 943.18 816.90 L 942.56 813.94 L 941.93 811.00 L 941.30 808.08 L 940.68 805.17 L 940.06 802.27 L 939.49 799.38 L 938.95 796.49 L 938.42 793.61 L 937.86 790.75 L 937.29 787.91 L 936.75 785.08 L 936.23 782.26 L 935.78 779.43 L 935.33 776.62 L 934.88 773.81 L 934.42 771.01 L 933.96 768.22 L 933.49 765.46 L 933.02 762.71 L 932.55 759.97 L 932.11 757.23 L 931.67 754.50 L 931.25 751.78 L 930.75 749.08 L 930.31 746.39 L 929.91 743.70 L 929.54 741.03 L 929.11 738.38 L 928.70 735.74 L 928.28 733.11" stroke="rgb(140,255,190)" stroke-opacity="0.738" stroke-width="1.19" />
  <path d="M 999.46 1000.79 L 998.11 997.58 L 996.76 994.39 L 995.41 991.21 L 994.07 988.04 L 992.73 984.88 L 991.44 981.73 L 990.14 978.59 L 988.78 975.50 L 987.44 972.42 L 986.11 969.35 L 984.78 966.29 L 983.46 963.24 L 982.13 960.21 L 980.82 957.18 L 979.54 954.15 L 978.29 951.12 L 977.05 948.10 L 975.82 945.09 L 974.62 942.09 L 973.42 939.10 L 972.23 936.12 L 971.04 933.15 L 969.89 930.18 L 968.74 927.23 L 967.60 924.28 L 966.46 921.35 L 965.30 918.44 L 964.15 915.54 L 963.00 912.65 L 961.84 909.78 L 960.70 906.92 L 959.52 904.08 L 958.34 901.25 L 957.18 898.44 L 956.02 895.63 L 954.86 892.84 L 953.72 890.05 L 952.58 887.28 L 951.48 884.51 L 950.36 881.75 L 949.22 879.01 L 948.09 876.28 L 946.99 873.55 L 945.89 870.83 L 944.76 868.14 L 943.57 865.49 L 942.38 862.84 L 941.21 860.20 L 940.10 857.55 L 938.99 854.90 L 937.89 852.27 L 936.77 849.66 L 935.67 847.04 L 934.57 844.45 L 933.49 841.85 L 932.41 839.27 L 931.33 836.70 L 930.26 834.14 L 929.20 831.58 L 928.14 829.04 L 927.06 826.51 L 925.99 824.00 L 924.90 821.50 L 923.80 819.02 L 922.71 816.55 L 921.63 814.08 L 920.57 811.62 L 919.57 809.14 L 918.56 806.68 L 917.53 804.24 L 916.51 801.80 L 915.51 799.37 L 914.48 796.96 L 913.42 794.58 L 912.37 792.20 L 911.33 789.83 L 910.30 787.47 L 909.29 785.11 L 908.25 782.77 L 907.21 780.45 L 906.20 778.13 L 905.19 775.81 L 904.15 773.52 L 903.08 771.25 L 902.01 769.00 L 900.94 766.75 L 899.87 764.52 L 898.82 762.29 L 897.71 760.10 L 896.63 757.91 L 895.57 755.71 L 894.50 753.54 L 893.40 751.39 L 892.31 749.25 L 891.22 747.13 L 890.13 745.01 L 889.06 742.90 L 887.98 740.79 L 886.91 738.70" stroke="rgb(140,255,190)" stroke-opacity="0.738" stroke-width="1.19" />
  <path d="M 999.46 1004.03 L 1001.35 1006.10 L 1003.22 1008.18 L 1005.11 1010.22 L 1006.98 1012.26 L 1008.85 1014.30 L 1010.70 1016.34 L 1012.56 1018.36 L 1014.39 1020.38 L 1016.19 1022.40 L 1018.01 1024.40 L 1019.81 1026.39 L 1021.63 1028.42 L 1023.43 1030.44 L 1025.26 1032.43 L 1027.06 1034.41 L 1028.78 1036.50 L 1030.52 1038.57 L 1032.25 1040.63 L 1033.96 1042.69 L 1035.71 1044.73 L 1037.49 1046.73 L 1039.26 1048.71 L 1041.01 1050.69 L 1042.76 1052.64 L 1044.53 1054.55 L 1046.29 1056.46 L 1048.04 1058.36 L 1049.77 1060.24 L 1051.45 1062.18 L 1053.18 1064.04 L 1054.84 1065.92 L 1056.48 1067.80 L 1058.04 1069.73 L 1059.61 1071.64 L 1061.15 1073.54" stroke="rgb(205,165,255)" stroke-opacity="0.489" stroke-width="1.18" />
  <path d="M 1000.27 998.58 L 998.61 997.01 L 996.94 995.45 L 995.32 993.85 L 993.72 992.20 L 992.13 990.57 L 990.49 988.99 L 988.94 987.35 L 987.43 985.69 L 985.96 984.01 L 984.60 982.26 L 983.25 980.51 L 981.92 978.75 L 980.60 976.97 L 979.33 975.17 L 978.05 973.38 L 976.86 971.55 L 975.67 969.73 L 974.46 967.93 L 973.29 966.12 L 972.12 964.32 L 970.87 962.58 L 969.63 960.84 L 968.28 959.21 L 967.07 957.49 L 965.85 955.79 L 964.59 954.10 L 963.40 952.39 L 962.20 950.69 L 961.01 948.98 L 959.85 947.26 L 958.66 945.57 L 957.48 943.88 L 956.31 942.20 L 955.11 940.54" stroke="rgb(140,255,190)" stroke-opacity="0.552" stroke-width="1.18" />
  <path d="M 999.07 995.58 L 997.65 993.77 L 996.24 991.96 L 994.86 990.14 L 993.37 988.44 L 991.88 986.74 L 990.33 985.13 L 988.80 983.52 L 987.28 981.93 L 985.86 980.32 L 984.37 978.77 L 982.91 977.20 L 981.50 975.61 L 980.11 974.00 L 978.76 972.35 L 977.38 970.76 L 976.00 969.19 L 974.63 967.62 L 973.25 966.08 L 971.87 964.55 L 970.50 963.00 L 969.15 961.44 L 967.84 959.86" stroke="rgb(140,255,190)" stroke-opacity="0.552" stroke-width="1.18" />
  <path d="M 934.01 908.38 L 932.56 905.87 L 931.14 903.36 L 929.76 900.83 L 928.37 898.31 L 927.05 895.80 L 925.71 893.31 L 924.39 890.86 L 923.08 888.42 L 921.77 886.00 L 920.46 883.59 L 919.14 881.17 L 917.80 878.73 L 916.49 876.32 L 915.20 873.92 L 913.88 871.56 L 912.56 869.20 L 911.23 866.83 L 909.90 864.47 L 908.57 862.10 L 907.22 859.75 L 905.89 857.41 L 904.60 855.05 L 903.30 852.70 L 901.99 850.36 L 900.73 848.02 L 899.47 845.68 L 898.22 843.37 L 896.98 841.07 L 895.74 838.78 L 894.51 836.52 L 893.25 834.33 L 891.99 832.14 L 890.73 829.95 L 889.47 827.78 L 888.18 825.64 L 886.91 823.50 L 885.63 821.36 L 884.34 819.24 L 883.06 817.13 L 881.70 815.05 L 880.33 812.97 L 878.98 810.90 L 877.62 808.84 L 876.30 806.75 L 874.99 804.66" stroke="rgb(140,255,190)" stroke-opacity="0.735" stroke-width="1.18" />
  <path d="M 947.56 892.20 L 945.96 889.64 L 944.41 887.04 L 942.87 884.45 L 941.34 881.87 L 939.85 879.31 L 938.36 876.76 L 936.95 874.20 L 935.58 871.66 L 934.12 869.23 L 932.69 866.77 L 931.27 864.32 L 929.83 861.89 L 928.48 859.41 L 927.09 856.93 L 925.70 854.47 L 924.26 852.07 L 922.79 849.73" stroke="rgb(140,255,190)" stroke-opacity="0.734" stroke-width="1.18" />
  <path d="M 935.15 856.64 L 934.98 853.73 L 934.81 850.82 L 934.57 847.97 L 934.36 845.15 L 934.15 842.35 L 933.95 839.57 L 933.74 836.79 L 933.49 834.04 L 933.28 831.28 L 933.09 828.57 L 932.91 825.86 L 932.73 823.16 L 932.54 820.46 L 932.38 817.76 L 932.19 815.09 L 932.00 812.44 L 931.76 809.81 L 931.56 807.22 L 931.30 804.65 L 931.06 802.07 L 930.83 799.55 L 930.60 797.02 L 930.36 794.49 L 930.10 791.97 L 929.90 789.48 L 929.70 787.01 L 929.51 784.52" stroke="rgb(140,255,190)" stroke-opacity="0.733" stroke-width="1.18" />
  <path d="M 1000.87 1001.26 L 999.10 998.45 L 997.38 995.62 L 995.73 992.77 L 994.09 989.93 L 992.45 987.10 L 990.82 984.28 L 989.16 981.50 L 987.55 978.70 L 985.92 975.92 L 984.30 973.16 L 982.66 970.43 L 981.02 967.71 L 979.39 964.99 L 977.78 962.28 L 976.15 959.60 L 974.56 956.91 L 972.92 954.25 L 971.31 951.60 L 969.72 948.95 L 968.16 946.29 L 966.61 943.64 L 965.02 941.03 L 963.45 938.43 L 961.90 935.82 L 960.37 933.23 L 958.82 930.65 L 957.27 928.09 L 955.78 925.50 L 954.29 922.93 L 952.80 920.38 L 951.29 917.85 L 949.79 915.32 L 948.30 912.81 L 946.81 910.30 L 945.36 907.79 L 943.91 905.29 L 942.45 902.81 L 941.01 900.33 L 939.62 897.84 L 938.27 895.35 L 936.95 892.85 L 935.63 890.35 L 934.30 887.88" stroke="rgb(140,255,190)" stroke-opacity="0.732" stroke-width="1.17" />
  <path d="M 963.26 948.67 L 960.59 946.83 L 957.90 945.01 L 955.24 943.18 L 952.57 941.37 L 949.91 939.58 L 947.28 937.78 L 944.66 936.00 L 942.03 934.27 L 939.41 932.54 L 936.80 930.81 L 934.20 929.09 L 931.61 927.40 L 929.03 925.72 L 926.39 924.11 L 923.74 922.52 L 921.14 920.87 L 918.55 919.21 L 916.00 917.55 L 913.45 915.94 L 910.85 914.40 L 908.27 912.86 L 905.71 911.30 L 903.12 909.81 L 900.55 908.30 L 898.01 906.77 L 895.49 905.24 L 892.98 903.69 L 890.48 902.17 L 887.99 900.63 L 885.50 899.10 L 883.01 897.60 L 880.53 896.11 L 878.03 894.66 L 875.55 893.20 L 873.05 891.73 L 870.56 890.28 L 868.07 888.84 L 865.58 887.42 L 863.12 885.99 L 860.67 884.58 L 858.24 883.16 L 855.83 881.71 L 853.43 880.28 L 851.03 878.86 L 848.64 877.46 L 846.26 876.06 L 843.90 874.66 L 841.49 873.33 L 839.09 872.01 L 836.69 870.70 L 834.31 869.40 L 831.90 868.13 L 829.53 866.87 L 827.14 865.65 L 824.77 864.42 L 822.40 863.21 L 820.04 861.98" stroke="rgb(140,255,190)" stroke-opacity="0.729" stroke-width="1.17" />
  <path d="M 1003.27 998.73 L 1001.29 996.07 L 999.29 993.45 L 997.26 990.86 L 995.22 988.31 L 993.20 985.76 L 991.17 983.23 L 989.15 980.72 L 987.12 978.22 L 985.10 975.73 L 983.11 973.23 L 981.13 970.75 L 979.15 968.28 L 977.19 965.83 L 975.23 963.38 L 973.29 960.94 L 971.35 958.50 L 969.48 956.04 L 967.61 953.59 L 965.75 951.15 L 963.88 948.75 L 962.02 946.36 L 960.18 943.93 L 958.35 941.53 L 956.53 939.12 L 954.72 936.73 L 952.94 934.33 L 951.18 931.93 L 949.42 929.53 L 947.67 927.15 L 945.92 924.78 L 944.18 922.41 L 942.45 920.06 L 940.72 917.72 L 939.02 915.36 L 937.36 913.01 L 935.69 910.69 L 934.01 908.38 L 932.36 906.08 L 930.71 903.79 L 929.06 901.51 L 927.42 899.24 L 925.80 896.96 L 924.19 894.70 L 922.59 892.44 L 920.98 890.21 L 919.37 887.98 L 917.76 885.77 L 916.18 883.55 L 914.62 881.34 L 913.06 879.13 L 911.51 876.93 L 910.01 874.72 L 908.53 872.51 L 907.09 870.29 L 905.67 868.07 L 904.25 865.86 L 902.83 863.65 L 901.39 861.47 L 899.99 859.29" stroke="rgb(140,255,190)" stroke-opacity="0.729" stroke-width="1.17" />
  <path d="M 933.96 768.22 L 933.93 764.88 L 934.02 761.56 L 934.18 758.25 L 934.37 754.96 L 934.56 751.68 L 934.75 748.42 L 934.96 745.17 L 935.16 741.95 L 935.29 738.74 L 935.37 735.54 L 935.49 732.36 L 935.62 729.17 L 935.77 726.00 L 935.87 722.85 L 935.91 719.69 L 935.99 716.56 L 935.99 713.44 L 936.00 710.32 L 936.01 707.21" stroke="rgb(140,255,190)" stroke-opacity="0.728" stroke-width="1.16" />
  <path d="M 1001.46 1003.49 L 1004.43 1003.50 L 1007.39 1003.43 L 1010.33 1003.21 L 1013.26 1002.96 L 1016.18 1002.72 L 1019.08 1002.48 L 1021.97 1002.22 L 1024.85 1001.97 L 1027.73 1001.81 L 1030.59 1001.70 L 1033.45 1001.60 L 1036.29 1001.51 L 1039.13 1001.39 L 1041.95 1001.35 L 1044.77 1001.44 L 1047.57 1001.47 L 1050.37 1001.42 L 1053.15 1001.34 L 1055.92 1001.27 L 1058.68 1001.17 L 1061.43 1001.07 L 1064.17 1000.98 L 1066.90 1000.86 L 1069.61 1000.72 L 1072.32 1000.61 L 1075.01 1000.49 L 1077.69 1000.31 L 1080.36 1000.13 L 1083.01 999.91 L 1085.66 999.67 L 1088.28 999.36 L 1090.90 999.08 L 1093.50 998.80 L 1096.10 998.54 L 1098.69 998.30 L 1101.27 998.06 L 1103.84 997.82 L 1106.40 997.59 L 1108.95 997.37 L 1111.49 997.17 L 1114.01 996.98 L 1116.53 996.80 L 1119.04 996.66 L 1121.53 996.52 L 1124.01 996.38 L 1126.49 996.31 L 1128.95 996.25" stroke="rgb(205,165,255)" stroke-opacity="0.484" stroke-width="1.16" />
  <path d="M 941.92 882.27 L 939.20 880.40 L 936.49 878.57 L 933.79 876.74 L 931.11 874.92 L 928.43 873.10 L 925.81 871.22 L 923.19 869.38 L 920.57 867.55 L 917.96 865.73 L 915.34 863.95 L 912.76 862.16 L 910.20 860.35 L 907.67 858.53 L 905.16 856.69 L 902.67 854.89 L 900.19 853.07 L 897.72 851.25 L 895.32 849.38" stroke="rgb(140,255,190)" stroke-opacity="0.726" stroke-width="1.16" />
  <path d="M 999.15 1000.75 L 997.45 997.98 L 995.76 995.21 L 994.08 992.46 L 992.40 989.72 L 990.83 986.94 L 989.31 984.16 L 987.81 981.39 L 986.30 978.63 L 984.81 975.88 L 983.33 973.15 L 981.85 970.42 L 980.37 967.72 L 978.88 965.05 L 977.38 962.39 L 975.88 959.75 L 974.39 957.14 L 972.93 954.52 L 971.47 951.90 L 970.09 949.26 L 968.74 946.62 L 967.40 944.00 L 966.11 941.38 L 964.82 938.79 L 963.52 936.24 L 962.21 933.71 L 960.91 931.21 L 959.62 928.69 L 958.34 926.18 L 957.04 923.70 L 955.81 921.21 L 954.59 918.74" stroke="rgb(140,255,190)" stroke-opacity="0.726" stroke-width="1.16" />
  <path d="M 941.79 957.52 L 939.45 955.76 L 937.04 954.06 L 934.65 952.33 L 932.28 950.63 L 929.96 948.87 L 927.69 947.08 L 925.43 945.31 L 923.23 943.44 L 921.04 941.61 L 918.86 939.77 L 916.67 937.94 L 914.50 936.13 L 912.23 934.47 L 909.98 932.81 L 907.73 931.16 L 905.49 929.52 L 903.26 927.91 L 901.03 926.30 L 898.81 924.72" stroke="rgb(205,165,255)" stroke-opacity="0.481" stroke-width="1.15" />
  <path d="M 1001.22 995.45 L 999.92 993.43 L 998.61 991.43 L 997.27 989.46 L 995.99 987.46 L 994.65 985.51 L 993.25 983.62 L 991.90 981.70 L 990.56 979.80 L 989.28 977.86 L 988.04 975.90 L 986.76 973.98 L 985.53 972.04 L 984.31 970.11 L 983.25 968.09 L 982.14 966.11 L 981.08 964.11 L 980.03 962.12 L 978.94 960.16 L 977.86 958.20 L 976.79 956.25 L 975.69 954.33 L 974.60 952.42 L 973.67 950.44 L 972.81 948.43 L 971.97 946.43 L 971.13 944.43 L 970.33 942.44 L 969.45 940.49 L 968.59 938.54 L 967.73 936.61 L 966.83 934.69 L 965.95 932.78 L 965.02 930.89 L 964.14 928.98 L 963.22 927.10 L 962.38 925.20 L 961.54 923.30 L 960.64 921.43 L 959.84 919.53 L 959.01 917.66 L 958.20 915.78 L 957.37 913.91 L 956.57 912.04 L 955.74 910.20 L 954.86 908.39 L 954.00 906.57 L 953.22 904.73 L 952.42 902.91 L 951.62 901.10 L 950.80 899.30 L 949.99 897.52 L 949.18 895.74 L 948.36 893.97 L 947.56 892.20 L 946.66 890.49 L 945.70 888.83 L 944.78 887.15 L 943.84 885.50 L 942.87 883.89 L 941.92 882.27 L 940.99 880.65 L 940.05 879.04 L 939.14 877.43 L 938.24 875.82 L 937.35 874.21 L 936.53 872.57 L 935.71 870.94 L 934.93 869.31 L 934.17 867.68" stroke="rgb(140,255,190)" stroke-opacity="0.543" stroke-width="1.15" />
  <path d="M 979.39 964.99 L 978.42 962.20 L 977.39 959.41 L 976.25 956.69 L 975.08 954.01 L 973.94 951.30 L 972.83 948.58 L 971.71 945.86 L 970.56 943.14 L 969.40 940.41 L 968.32 937.68 L 967.23 934.98 L 966.12 932.29 L 964.98 929.62 L 963.81 926.97 L 962.64 924.34 L 961.46 921.72 L 960.25 919.11 L 959.02 916.55 L 957.84 913.96 L 956.72 911.37 L 955.57 908.82 L 954.41 906.28 L 953.29 903.73 L 952.17 901.19 L 951.10 898.65 L 950.03 896.13 L 949.01 893.61 L 947.99 891.09 L 947.00 888.57 L 946.03 886.06 L 945.05 883.60 L 944.07 881.14 L 943.13 878.67 L 942.21 876.19 L 941.34 873.69 L 940.48 871.20 L 939.60 868.75 L 938.69 866.32 L 937.79 863.89 L 936.89 861.47 L 936.01 859.05 L 935.15 856.64 L 934.28 854.21 L 933.42 851.81 L 932.54 849.42 L 931.62 847.05 L 930.69 844.69 L 929.77 842.34 L 928.87 839.99 L 928.00 837.66 L 927.10 835.35 L 926.18 833.04 L 925.26 830.74 L 924.37 828.44 L 923.46 826.17 L 922.52 823.91 L 921.58 821.66 L 920.70 819.42 L 919.76 817.22 L 918.85 815.01 L 917.94 812.85 L 917.12 810.66 L 916.32 808.46 L 915.53 806.30 L 914.75 804.12 L 913.98 801.93 L 913.22 799.75 L 912.44 797.58 L 911.66 795.43 L 910.90 793.27" stroke="rgb(140,255,190)" stroke-opacity="0.720" stroke-width="1.14" />
  <path d="M 950.90 856.29 L 951.38 854.00 L 951.95 851.73 L 952.48 849.43 L 952.99 847.14 L 953.55 844.89 L 954.10 842.65 L 954.59 840.42 L 955.11 838.18 L 955.63 835.95 L 956.15 833.72 L 956.65 831.48 L 957.21 829.25 L 957.76 827.04 L 958.23 824.85 L 958.90 822.75 L 959.60 820.67 L 960.27 818.62" stroke="rgb(140,255,190)" stroke-opacity="0.540" stroke-width="1.14" />
  <path d="M 999.47 1000.86 L 1001.18 998.54 L 1002.97 996.30 L 1004.77 994.09" stroke="rgb(205,165,255)" stroke-opacity="0.478" stroke-width="1.14" />
  <path d="M 1000.58 1000.62 L 998.79 998.00 L 997.04 995.36 L 995.29 992.74 L 993.51 990.16 L 991.71 987.60 L 989.92 985.05 L 988.15 982.50 L 986.33 980.01 L 984.55 977.50 L 982.76 975.01 L 980.98 972.54 L 979.16 970.10 L 977.39 967.65 L 975.67 965.17 L 973.88 962.76 L 972.02 960.42 L 970.13 958.14 L 968.26 955.84 L 966.40 953.56 L 964.53 951.30 L 962.64 949.09 L 960.78 946.88 L 958.91 944.67 L 957.02 942.51 L 955.10 940.38 L 953.18 938.27 L 951.26 936.17 L 949.35 934.07 L 947.48 931.96 L 945.62 929.85 L 943.77 927.74 L 941.94 925.64 L 940.10 923.56 L 938.27 921.48 L 936.45 919.41 L 934.69 917.30 L 932.93 915.21 L 931.12 913.17 L 929.30 911.14 L 927.48 909.13 L 925.66 907.14 L 923.92 905.10 L 922.17 903.08 L 920.49 901.02 L 918.83 898.96 L 917.19 896.89 L 915.58 894.82 L 913.99 892.75 L 912.40 890.69 L 910.81 888.65 L 909.22 886.61 L 907.66 884.57 L 906.13 882.51 L 904.63 880.44" stroke="rgb(140,255,190)" stroke-opacity="0.720" stroke-width="1.14" />
  <path d="M 1000.88 1001.12 L 999.39 998.35 L 997.90 995.60 L 996.42 992.84 L 994.94 990.11 L 993.50 987.37 L 992.07 984.64 L 990.68 981.90 L 989.34 979.15 L 988.07 976.38 L 986.83 973.61 L 985.60 970.85 L 984.38 968.10 L 983.17 965.36 L 981.89 962.66 L 980.65 959.95 L 979.37 957.28 L 978.14 954.60 L 976.88 951.95 L 975.60 949.31 L 974.38 946.67 L 973.10 944.06 L 971.83 941.47 L 970.57 938.88 L 969.33 936.29 L 968.10 933.71 L 966.89 931.14 L 965.66 928.60 L 964.53 926.02 L 963.47 923.43 L 962.42 920.84 L 961.41 918.25 L 960.40 915.66 L 959.39 913.10 L 958.35 910.56 L 957.28 908.03 L 956.21 905.52 L 955.14 903.02 L 954.06 900.53 L 952.99 898.06 L 951.93 895.59 L 950.88 893.13 L 949.85 890.67 L 948.82 888.22 L 947.71 885.81 L 946.61 883.42 L 945.54 881.02 L 944.48 878.63 L 943.43 876.24 L 942.43 873.85 L 941.42 871.47 L 940.36 869.13" stroke="rgb(140,255,190)" stroke-opacity="0.718" stroke-width="1.14" />
  <path d="M 945.70 888.83 L 944.21 886.94 L 942.77 885.07 L 941.34 883.20 L 939.91 881.33 L 938.43 879.52 L 936.97 877.68 L 935.51 875.86 L 934.07 874.01 L 932.64 872.15 L 931.26 870.24 L 929.97 868.30 L 928.69 866.37 L 927.40 864.44 L 926.12 862.51 L 924.84 860.59" stroke="rgb(140,255,190)" stroke-opacity="0.537" stroke-width="1.13" />
  <path d="M 973.13 967.97 L 971.85 965.91 L 970.55 963.88 L 969.29 961.82 L 967.95 959.81 L 966.66 957.79 L 965.36 955.79 L 964.13 953.75 L 962.82 951.79 L 961.46 949.87 L 960.10 947.95 L 958.72 946.06 L 957.31 944.21 L 955.91 942.36 L 954.52 940.53 L 953.16 938.68 L 951.81 936.83 L 950.49 934.98 L 949.10 933.19 L 947.70 931.43 L 946.29 929.68 L 944.94 927.90 L 943.59 926.12 L 942.24 924.36 L 940.96 922.57" stroke="rgb(140,255,190)" stroke-opacity="0.536" stroke-width="1.13" />
  <path d="M 997.02 1004.06 L 995.36 1001.50 L 993.68 998.95 L 992.04 996.40 L 990.42 993.85 L 988.76 991.34 L 987.11 988.84 L 985.49 986.35 L 983.85 983.88 L 982.22 981.42 L 980.61 978.96 L 979.02 976.51 L 977.39 974.10 L 975.78 971.71 L 974.16 969.34 L 972.64 966.91 L 971.14 964.49 L 969.67 962.04 L 968.21 959.60 L 966.81 957.14 L 965.40 954.69" stroke="rgb(140,255,190)" stroke-opacity="0.536" stroke-width="1.13" />
  <path d="M 1003.00 1000.71 L 1001.75 998.58 L 1000.51 996.46 L 999.26 994.34 L 998.10 992.19 L 996.93 990.05 L 995.80 987.91 L 994.72 985.75 L 993.63 983.60 L 992.52 981.47 L 991.44 979.34 L 990.32 977.25 L 989.25 975.14 L 988.16 973.05 L 987.02 971.00 L 985.88 968.96 L 984.76 966.92 L 983.61 964.90 L 982.46 962.91 L 981.31 960.92 L 980.16 958.95 L 979.01 956.98 L 977.91 955.01 L 976.78 953.05 L 975.70 951.07 L 974.60 949.13 L 973.58 947.16 L 972.59 945.20 L 971.58 943.25 L 970.57 941.31 L 969.52 939.40 L 968.56 937.45 L 967.61 935.50" stroke="rgb(140,255,190)" stroke-opacity="0.534" stroke-width="1.13" />
  <path d="M 940.24 860.34 L 939.17 858.27 L 937.93 856.28 L 936.74 854.32 L 935.52 852.38 L 934.31 850.43 L 933.13 848.49 L 932.05 846.49 L 930.98 844.51 L 929.93 842.52 L 928.85 840.56 L 927.75 838.56 L 926.65 836.57 L 925.51 834.62 L 924.39 832.66 L 923.43 830.57 L 922.46 828.51 L 921.39 826.52 L 920.39 824.49 L 919.49 822.44 L 918.48 820.47 L 917.45 818.52" stroke="rgb(140,255,190)" stroke-opacity="0.534" stroke-width="1.12" />
  <path d="M 915.51 799.37 L 915.45 797.08 L 915.35 794.81 L 915.35 792.52 L 915.38 790.24 L 915.28 787.94 L 915.27 785.63 L 915.18 783.34 L 915.09 781.07 L 915.00 778.82 L 914.96 776.54 L 914.93 774.27 L 914.94 772.02 L 914.94 769.79 L 914.86 767.53 L 914.67 765.28 L 914.48 763.05 L 914.36 760.82 L 914.32 758.58 L 914.29 756.35" stroke="rgb(140,255,190)" stroke-opacity="0.533" stroke-width="1.12" />
  <path d="M 971.58 943.25 L 969.74 941.49 L 967.87 939.72 L 965.99 938.02 L 964.14 936.31 L 962.27 934.67 L 960.44 933.06 L 958.66 931.45 L 956.91 929.76 L 955.18 928.10 L 953.51 926.40 L 951.83 924.72 L 950.18 923.06 L 948.49 921.42 L 946.79 919.81 L 945.10 918.21 L 943.43 916.64 L 941.78 915.12 L 940.15 913.60 L 938.58 911.99 L 936.91 910.42 L 935.27 908.87 L 933.67 907.28 L 932.03 905.74 L 930.48 904.17 L 928.93 902.61 L 927.37 901.04 L 925.81 899.45 L 924.26 897.86 L 922.71 896.28 L 921.21 894.68 L 919.78 893.05 L 918.27 891.48 L 916.78 889.91 L 915.27 888.35 L 913.78 886.80 L 912.21 885.23 L 910.66 883.67 L 909.13 882.09 L 907.56 880.55 L 906.02 878.98 L 904.48 877.42" stroke="rgb(140,255,190)" stroke-opacity="0.531" stroke-width="1.11" />
  <path d="M 980.16 958.95 L 979.15 956.09 L 978.12 953.23 L 977.14 950.39 L 976.17 947.55 L 975.22 944.71 L 974.33 941.85 L 973.39 939.00 L 972.39 936.19 L 971.37 933.40 L 970.47 930.58 L 969.57 927.78 L 968.69 924.99 L 967.76 922.23 L 966.86 919.47 L 965.89 916.75 L 964.92 914.05 L 964.05 911.32 L 963.24 908.59 L 962.47 905.86 L 961.63 903.15 L 960.80 900.46 L 959.94 897.79 L 959.08 895.12 L 958.22 892.46 L 957.29 889.84 L 956.34 887.23 L 955.32 884.67 L 954.29 882.12 L 953.24 879.60 L 952.20 877.07 L 951.20 874.54 L 950.21 872.01 L 949.22 869.50 L 948.24 866.99 L 947.28 864.48 L 946.33 861.98 L 945.40 859.49 L 944.59 856.97 L 943.86 854.43 L 943.17 851.89 L 942.49 849.36 L 941.85 846.83 L 941.24 844.30 L 940.63 841.78 L 940.02 839.28 L 939.45 836.77 L 938.87 834.28 L 938.33 831.79 L 937.64 829.35 L 937.00 826.90 L 936.37 824.47 L 935.73 822.04 L 935.16 819.61 L 934.60 817.19 L 934.04 814.78" stroke="rgb(140,255,190)" stroke-opacity="0.531" stroke-width="1.11" />
  <path d="M 933.49 841.85 L 932.84 839.48 L 932.16 837.13 L 931.50 834.76 L 930.84 832.41 L 930.12 830.06 L 929.36 827.74 L 928.57 825.48 L 927.75 823.24 L 927.03 820.99 L 926.39 818.76 L 925.61 816.57 L 924.80 814.42 L 923.96 812.29 L 923.11 810.19 L 922.28 808.12 L 921.47 805.97 L 920.65 803.79 L 919.82 801.59 L 919.01 799.39 L 918.20 797.18 L 917.39 794.97 L 916.58 792.78 L 915.74 790.60 L 914.91 788.41 L 914.01 786.26 L 913.11 784.11" stroke="rgb(140,255,190)" stroke-opacity="0.531" stroke-width="1.11" />
  <path d="M 942.38 862.84 L 942.21 860.00 L 942.07 857.16 L 941.92 854.36 L 941.75 851.58 L 941.57 848.81 L 941.35 846.08 L 941.09 843.34 L 940.78 840.60 L 940.55 837.85 L 940.41 835.14 L 940.27 832.42 L 940.20 829.72 L 940.03 827.03 L 939.91 824.36 L 939.67 821.75 L 939.42 819.16 L 939.06 816.57 L 938.73 813.97 L 938.41 811.39 L 938.25 808.82 L 938.06 806.28 L 937.88 803.74 L 937.67 801.22 L 937.51 798.70 L 937.33 796.20 L 937.16 793.71 L 937.12 791.21 L 937.05 788.73 L 937.07 786.30 L 937.08 783.88 L 937.17 781.48 L 937.27 779.10 L 937.42 776.72 L 937.58 774.35 L 937.80 772.02 L 938.03 769.69 L 938.29 767.39 L 938.67 765.16 L 939.06 762.94 L 939.42 760.71 L 939.71 758.54 L 939.99 756.37 L 940.30 754.20 L 940.63 752.07 L 940.89 749.96 L 941.13 747.87 L 941.32 745.76 L 941.53 743.71 L 941.72 741.70 L 941.84 739.71 L 941.94 737.74 L 942.09 735.77 L 942.29 733.79 L 942.53 731.80 L 942.78 729.82 L 943.03 727.85 L 943.29 725.87 L 943.56 723.90 L 943.79 721.92 L 944.03 719.95 L 944.25 717.99 L 944.55 716.05 L 944.95 714.12 L 945.33 712.17 L 945.68 710.18 L 946.02 708.20 L 946.35 706.21 L 946.66 704.23 L 946.93 702.26 L 947.20 700.28 L 947.49 698.30 L 947.73 696.30 L 947.98 694.34 L 948.19 692.41 L 948.33 690.46 L 948.43 688.52 L 948.53 686.57 L 948.54 684.65 L 948.54 682.73 L 948.53 680.83 L 948.55 678.96 L 948.53 677.07 L 948.52 675.22 L 948.48 673.39 L 948.43 671.56 L 948.37 669.75 L 948.33 667.92" stroke="rgb(140,255,190)" stroke-opacity="0.530" stroke-width="1.11" />
  <path d="M 922.71 896.28 L 920.86 894.98 L 918.96 893.61 L 917.06 892.24 L 915.17 890.87 L 913.37 889.56 L 911.57 888.25 L 909.78 886.98 L 908.04 885.72 L 906.14 884.56 L 904.23 883.54 L 902.36 882.46 L 900.51 881.39 L 898.72 880.36 L 897.09 879.26 L 895.40 878.25 L 893.73 877.24 L 892.12 876.22 L 890.53 875.28 L 889.01 874.31 L 887.51 873.35 L 886.06 872.37 L 884.63 871.40 L 883.26 870.41 L 881.86 869.42" stroke="rgb(140,255,190)" stroke-opacity="0.530" stroke-width="1.11" />
  <path d="M 963.26 948.67 L 962.87 946.37 L 962.46 944.09 L 961.99 941.84 L 961.57 939.59 L 961.18 937.34 L 960.77 935.11 L 960.36 932.90" stroke="rgb(140,255,190)" stroke-opacity="0.530" stroke-width="1.11" />
  <path d="M 980.16 958.95 L 979.62 956.47 L 979.08 954.01 L 978.51 951.55 L 977.91 949.12 L 977.31 946.70 L 976.86 944.31 L 976.36 941.89 L 975.72 939.49 L 974.97 937.12 L 974.27 934.74 L 973.57 932.38 L 972.86 930.02 L 972.16 927.68 L 971.44 925.35 L 970.72 923.02 L 969.96 920.74 L 969.25 918.46 L 968.59 916.17 L 967.95 913.89 L 967.23 911.63 L 966.52 909.39 L 965.82 907.15 L 965.17 904.87 L 964.50 902.64 L 963.86 900.40 L 963.23 898.18 L 962.56 895.99 L 961.87 893.85 L 961.18 891.72 L 960.48 889.60 L 959.75 887.50 L 959.01 885.41 L 958.22 883.34 L 957.47 881.24 L 956.69 879.16 L 955.93 877.09 L 955.18 875.02 L 954.43 872.96 L 953.67 870.93 L 952.90 868.90 L 952.17 866.87 L 951.40 864.87 L 950.67 862.85 L 949.95 860.84 L 949.24 858.78 L 948.52 856.72 L 947.92 854.65 L 947.45 852.56 L 946.92 850.54" stroke="rgb(140,255,190)" stroke-opacity="0.530" stroke-width="1.11" />
  <path d="M 937.12 791.21 L 936.11 788.60 L 935.06 786.01 L 934.06 783.42 L 933.07 780.83 L 932.04 778.27 L 931.01 775.72 L 929.93 773.20 L 928.88 770.69 L 927.68 768.26 L 926.46 765.85 L 925.24 763.45 L 924.03 761.07 L 922.83 758.69 L 921.55 756.36 L 920.30 754.02 L 918.97 751.74 L 917.76 749.41" stroke="rgb(140,255,190)" stroke-opacity="0.529" stroke-width="1.11" />
  <path d="M 963.26 948.67 L 962.69 945.99 L 962.15 943.33 L 961.57 940.69 L 960.99 938.07 L 960.33 935.47 L 959.64 932.87 L 958.96 930.25 L 958.25 927.65 L 957.61 925.04 L 957.00 922.43 L 956.38 919.85 L 955.73 917.26 L 955.15 914.66 L 954.67 912.04 L 954.12 909.42 L 953.59 906.82 L 953.16 904.20 L 952.70 901.60 L 952.16 899.05 L 951.61 896.51 L 951.02 893.97 L 950.38 891.47 L 949.74 888.97 L 948.95 886.53 L 948.12 884.11 L 947.29 881.71 L 946.46 879.32 L 945.65 876.92 L 944.87 874.52 L 944.14 872.12 L 943.41 869.72 L 942.69 867.33 L 941.92 864.97 L 941.09 862.64 L 940.24 860.34 L 939.40 858.03 L 938.61 855.72 L 937.84 853.39 L 937.07 851.08 L 936.28 848.79 L 935.47 846.51 L 934.63 844.26 L 933.81 842.01 L 933.01 839.76 L 932.17 837.54" stroke="rgb(140,255,190)" stroke-opacity="0.529" stroke-width="1.11" />
  <path d="M 1658.57 2000.11 L 1657.40 1997.72 L 1655.35 1995.32 L 1653.42 1992.69 L 1652.14 1989.76 L 1650.88 1987.24 L 1648.86 1985.21 L 1647.28 1982.45 L 1645.19 1980.62 L 1644.29 1977.24 L 1642.06 1974.79 L 1640.91 1972.26 L 1638.91 1969.81 L 1637.54 1967.48 L 1636.22 1964.65 L 1633.83 1962.51 L 1632.60 1959.98 L 1630.78 1957.46 L 1629.21 1954.64 L 1627.36 1952.19 L 1626.03 1950.14 L 1624.36 1947.56 L 1622.44 1944.85 L 1620.69 1942.21 L 1619.22 1940.06 L 1618.08 1937.63 L 1616.53 1934.78 L 1613.98 1932.18 L 1612.96 1929.87 L 1611.22 1927.49 L 1609.30 1924.91 L 1607.54 1922.63 L 1605.71 1919.98 L 1604.37 1917.01 L 1602.78 1914.70 L 1600.68 1912.44 L 1599.54 1909.77 L 1597.80 1907.25 L 1595.85 1904.50 L 1593.87 1902.36 L 1592.89 1900.27 L 1591.04 1897.22 L 1589.44 1894.51 L 1587.39 1892.49 L 1586.56 1889.36 L 1584.73 1887.22 L 1583.28 1884.89 L 1581.20 1882.34 L 1579.28 1879.70 L 1578.17 1877.36 L 1576.19 1874.58 L 1574.60 1872.67 L 1572.57 1869.99 L 1571.36 1867.05 L 1569.79 1864.71 L 1568.19 1862.14 L 1566.68 1859.66 L 1564.32 1857.49 L 1563.10 1854.42 L 1561.39 1852.37 L 1559.47 1849.51 L 1558.07 1847.26 L 1556.63 1844.56 L 1555.10 1842.23 L 1552.69 1839.85 L 1551.19 1836.97 L 1550.03 1834.56 L 1548.20 1832.51 L 1547.06 1829.32 L 1544.96 1826.85 L 1543.11 1824.84 L 1541.15 1821.92 L 1540.10 1819.52 L 1538.19 1816.75 L 1536.33 1814.96 L 1535.31 1812.14 L 1533.68 1809.59 L 1531.66 1806.96 L 1530.45 1804.45 L 1528.29 1802.26 L 1527.04 1799.59 L 1525.49 1797.18 L 1523.66 1794.26 L 1521.83 1792.11 L 1520.36 1789.67 L 1518.57 1787.05 L 1516.74 1784.27 L 1515.01 1781.79 L 1513.56 1779.63 L 1511.56 1777.05 L 1510.69 1774.58 L 1508.38 1771.92 L 1507.40 1769.69 L 1505.46 1766.71 L 1504.04 1764.54 L 1502.27 1761.80 L 1500.37 1759.44 L 1498.32 1757.07 L 1497.05 1754.34 L 1495.52 1752.14 L 1493.87 1749.62 L 1492.06 1746.78 L 1490.85 1744.35 L 1488.91 1741.71 L 1486.95 1739.42 L 1485.58 1736.94 L 1483.92 1734.20 L 1482.35 1731.84 L 1480.13 1729.14 L 1478.94 1727.20 L 1477.14 1724.38 L 1476.05 1722.12 L 1473.83 1719.15 L 1472.17 1717.27 L 1470.94 1714.63 L 1469.29 1711.76 L 1467.16 1709.37 L 1465.63 1706.89 L 1463.87 1704.05 L 1462.50 1701.77 L 1460.89 1699.44 L 1459.28 1697.01 L 1457.99 1693.89 L 1455.73 1691.84 L 1454.09 1689.20 L 1452.77 1686.93 L 1450.52 1684.41 L 1449.50 1681.77 L 1447.83 1679.23 L 1446.02 1676.76 L 1444.50 1674.28 L 1442.73 1672.09 L 1440.88 1669.17 L 1439.39 1666.69 L 1438.01 1664.63 L 1435.73 1661.97 L 1434.30 1659.66 L 1432.28 1656.70 L 1431.02 1654.22 L 1429.55 1651.98 L 1427.55 1649.01 L 1426.11 1646.84 L 1424.29 1644.58 L 1422.70 1641.50 L 1421.31 1639.20 L 1419.55 1636.85 L 1417.91 1634.77 L 1415.66 1631.68 L 1414.67 1629.32 L 1412.88 1626.45 L 1411.20 1624.12 L 1409.75 1621.58 L 1408.38 1618.94 L 1406.32 1616.67 L 1404.49 1614.41 L 1402.70 1611.94 L 1401.10 1608.99 L 1399.68 1606.83 L 1397.94 1603.91 L 1396.56 1601.55 L 1395.10 1599.29 L 1393.31 1596.71 L 1391.35 1594.44 L 1389.73 1591.66 L 1388.43 1589.33 L 1386.54 1586.78 L 1384.88 1583.81 L 1383.45 1581.71 L 1381.07 1579.17 L 1380.33 1576.57 L 1378.12 1574.27 L 1376.52 1571.67 L 1374.89 1569.37 L 1373.33 1566.71 L 1371.66 1564.17 L 1369.92 1561.84 L 1368.53 1558.84 L 1366.50 1556.78 L 1365.05 1554.26 L 1363.73 1551.06 L 1361.89 1548.90 L 1359.79 1546.98 L 1358.68 1544.03 L 1356.51 1541.89 L 1355.06 1538.67 L 1353.30 1536.86 L 1351.63 1533.90 L 1350.20 1531.23 L 1348.40 1528.66 L 1346.83 1526.51 L 1345.18 1524.32 L 1343.27 1521.60 L 1341.94 1519.20 L 1340.50 1516.30 L 1338.37 1514.33 L 1337.00 1511.41 L 1335.45 1508.71 L 1333.77 1506.49 L 1331.96 1503.82 L 1330.34 1501.33 L 1328.96 1498.82 L 1327.29 1496.55 L 1325.32 1493.90 L 1323.67 1491.82 L 1322.08 1488.57 L 1320.13 1486.91 L 1319.17 1484.47 L 1317.16 1481.70 L 1315.55 1479.23 L 1313.74 1476.31 L 1312.26 1473.84 L 1310.83 1471.36 L 1309.12 1469.05 L 1306.83 1466.24 L 1305.87 1463.99 L 1303.75 1461.37 L 1302.34 1459.01 L 1300.94 1456.13 L 1298.99 1453.65 L 1297.23 1451.30 L 1295.61 1448.66 L 1294.16 1446.21 L 1292.91 1443.79 L 1290.54 1441.97 L 1289.26 1438.96 L 1287.92 1436.33 L 1285.87 1433.46 L 1284.12 1431.15 L 1282.79 1428.62 L 1281.21 1426.36 L 1279.18 1423.81 L 1277.57 1421.49 L 1276.32 1418.97 L 1274.17 1416.59 L 1272.36 1413.86 L 1271.23 1411.37 L 1269.28 1408.81 L 1267.54 1405.96 L 1265.98 1403.82 L 1264.53 1401.19 L 1262.68 1398.99 L 1261.11 1396.26 L 1259.43 1393.86 L 1257.73 1391.10 L 1256.20 1389.07 L 1254.54 1386.02 L 1252.53 1383.75 L 1251.01 1381.07 L 1249.66 1378.44 L 1247.60 1376.13 L 1246.36 1373.91 L 1244.24 1371.20 L 1243.12 1368.46 L 1241.25 1366.35 L 1239.29 1363.63 L 1238.12 1361.26 L 1236.31 1358.50 L 1235.50 1356.08 L 1232.90 1353.27 L 1231.37 1351.55 L 1230.01 1348.72 L 1228.14 1346.08 L 1226.52 1343.53 L 1224.58 1341.12 L 1222.87 1338.54 L 1221.57 1336.18 L 1219.81 1333.70 L 1218.01 1331.53 L 1216.84 1328.43 L 1214.59 1326.26 L 1213.15 1323.49 L 1211.78 1320.82 L 1210.11 1318.66 L 1208.53 1315.88 L 1206.64 1313.42 L 1204.87 1311.13 L 1202.91 1308.41 L 1201.54 1306.05 L 1200.41 1303.65 L 1198.05 1300.96 L 1196.78 1298.85 L 1194.90 1296.18 L 1193.60 1293.11 L 1191.70 1290.86 L 1189.82 1288.51 L 1188.26 1286.58 L 1186.90 1283.44 L 1185.44 1280.92 L 1183.52 1278.17 L 1182.23 1276.01 L 1180.23 1273.41 L 1178.36 1271.22 L 1177.04 1268.69 L 1174.94 1265.59 L 1174.21 1263.76 L 1171.97 1261.10 L 1170.06 1258.13 L 1168.79 1255.82 L 1167.00 1253.79 L 1165.37 1250.96 L 1163.50 1248.52 L 1162.19 1246.16 L 1160.55 1243.44 L 1158.66 1240.79 L 1157.35 1238.24 L 1155.49 1236.12 L 1153.52 1233.44 L 1152.13 1230.73 L 1150.56 1228.08 L 1148.81 1225.91 L 1147.50 1223.20 L 1145.81 1221.07 L 1144.35 1218.45 L 1142.11 1215.76 L 1140.27 1213.81 L 1138.70 1210.75 L 1137.23 1208.47 L 1135.91 1205.93 L 1134.22 1202.99 L 1132.27 1201.00 L 1130.82 1198.26 L 1129.13 1195.98 L 1127.49 1193.62 L 1125.68 1190.50 L 1124.46 1188.30 L 1122.57 1185.94 L 1120.99 1183.29 L 1118.55 1181.15 L 1117.46 1178.34 L 1115.52 1175.83 L 1114.29 1173.08 L 1112.57 1170.74 L 1110.88 1168.34 L 1109.40 1165.79 L 1107.75 1163.40 L 1105.96 1160.48 L 1104.51 1158.06 L 1102.53 1155.77 L 1100.76 1153.24 L 1099.27 1150.68 L 1098.00 1148.21 L 1096.03 1145.82 L 1094.62 1143.71 L 1092.92 1140.59 L 1090.70 1138.27 L 1089.69 1135.62 L 1087.82 1133.07 L 1086.69 1130.65 L 1084.63 1128.23 L 1082.97 1125.70 L 1081.14 1123.09 L 1079.41 1120.51 L 1078.03 1118.04 L 1075.86 1115.92 L 1074.64 1113.32 L 1072.56 1110.60 L 1071.60 1108.29 L 1069.45 1105.61 L 1067.83 1103.03 L 1066.14 1100.33 L 1064.92 1098.47 L 1063.34 1095.36 L 1061.61 1093.05 L 1059.90 1090.55 L 1058.16 1088.19 L 1056.03 1085.68 L 1054.76 1083.00 L 1053.17 1080.89 L 1051.29 1078.00 L 1049.57 1075.11 L 1048.24 1073.06 L 1046.43 1070.32 L 1044.84 1068.17 L 1043.11 1065.41 L 1041.46 1063.35 L 1040.07 1060.58 L 1038.52 1058.09 L 1036.80 1055.32 L 1034.80 1053.03 L 1033.73 1050.75 L 1031.30 1048.02 L 1030.59 1045.64 L 1028.49 1043.21 L 1026.77 1040.68 L 1025.28 1038.12 L 1023.45 1035.59 L 1021.35 1033.18 L 1020.23 1030.87 L 1018.32 1028.17 L 1016.57 1025.92 L 1015.11 1023.00 L 1013.30 1020.67 L 1011.86 1017.75 L 1010.27 1015.35 L 1008.35 1012.64 L 1006.76 1010.29 L 1005.06 1008.05 L 1003.76 1005.33 L 1001.81 1002.77 L 1000.37 1000.36 L 1000.00 1000.00 L 998.35 997.49 L 996.71 994.98 L 995.08 992.47 L 993.43 989.96 L 991.78 987.45 L 990.15 984.94 L 988.51 982.42 L 986.88 979.90 L 985.25 977.39 L 983.60 974.88 L 981.95 972.37 L 980.31 969.86 L 978.66 967.36 L 976.99 964.86 L 975.34 962.36 L 973.67 959.86 L 972.03 957.35 L 970.38 954.85 L 968.72 952.35 L 967.08 949.84 L 965.47 947.31 L 963.86 944.77 L 962.27 942.23 L 960.68 939.69 L 959.07 937.15 L 957.47 934.62 L 955.85 932.09 L 954.24 929.56 L 952.63 927.03 L 951.01 924.51 L 949.40 921.98 L 947.79 919.44 L 946.18 916.91 L 944.57 914.38 L 942.96 911.85 L 941.36 909.31 L 939.77 906.77 L 938.17 904.23 L 936.58 901.68 L 934.99 899.14 L 933.40 896.60 L 931.81 894.06 L 930.22 891.51 L 928.64 888.96 L 927.07 886.40 L 925.52 883.84 L 923.96 881.27 L 922.41 878.71 L 920.85 876.14 L 919.29 873.58 L 917.72 871.02 L 916.13 868.48 L 914.55 865.93 L 912.96 863.39 L 911.36 860.84 L 909.76 858.31 L 908.16 855.77 L 906.57 853.23 L 904.98 850.68 L 903.41 848.13 L 901.82 845.58 L 900.26 843.02 L 898.71 840.45 L 897.18 837.87 L 895.62 835.31 L 894.06 832.75 L 892.48 830.19 L 890.90 827.65 L 889.31 825.10 L 887.73 822.55 L 886.14 820.00 L 884.56 817.45 L 882.99 814.90 L 881.40 812.35 L 879.81 809.81 L 878.22 807.26 L 876.63 804.73 L 875.02 802.19 L 873.41 799.66 L 871.80 797.13 L 870.19 794.60 L 868.59 792.06 L 867.00 789.52 L 865.39 786.99 L 863.78 784.45 L 862.18 781.91 L 860.58 779.38 L 858.97 776.84 L 857.37 774.31 L 855.75 771.78 L 854.13 769.26 L 852.51 766.73 L 850.90 764.20 L 849.28 761.68 L 847.67 759.15 L 846.05 756.62 L 844.44 754.09 L 842.84 751.55 L 841.27 749.00 L 839.68 746.45 L 838.09 743.91 L 836.50 741.36 L 834.91 738.82 L 833.32 736.28 L 831.72 733.74 L 830.11 731.20 L 828.51 728.67 L 826.90 726.14 L 825.30 723.60 L 823.67 721.08 L 822.06 718.55 L 820.43 716.03 L 818.80 713.51 L 817.19 710.98 L 815.58 708.45 L 813.96 705.93 L 812.34 703.40 L 810.73 700.87 L 809.11 698.34 L 807.48 695.82 L 805.86 693.30 L 804.20 690.80 L 802.55 688.29 L 800.89 685.79 L 799.23 683.30 L 797.57 680.80 L 795.92 678.30 L 794.27 675.79 L 792.60 673.29 L 790.95 670.79 L 789.31 668.28 L 787.66 665.77 L 786.01 663.26 L 784.37 660.75 L 782.73 658.25 L 781.07 655.74 L 779.41 653.25 L 777.75 650.74 L 776.10 648.24 L 774.44 645.74 L 772.76 643.25 L 771.09 640.76 L 769.41 638.28 L 767.74 635.79 L 766.07 633.29 L 764.41 630.80 L 762.73 628.31 L 761.05 625.83 L 759.36 623.34 L 757.68 620.86 L 755.98 618.39 L 754.27 615.92 L 752.56 613.46 L 750.83 611.00 L 749.11 608.55 L 747.37 606.11 L 745.63 603.66 L 743.88 601.22 L 742.13 598.79 L 740.37 596.36 L 738.61 593.93 L 736.86 591.49 L 735.11 589.06 L 733.35 586.63 L 731.60 584.19 L 729.86 581.74 L 728.14 579.29 L 726.42 576.83 L 724.69 574.38 L 722.95 571.93 L 721.23 569.48 L 719.51 567.02 L 717.78 564.57 L 716.07 562.10 L 714.36 559.64 L 712.65 557.17 L 710.94 554.71 L 709.24 552.23 L 707.55 549.76 L 705.84 547.29 L 704.13 544.83 L 702.41 542.37 L 700.69 539.91 L 698.97 537.45 L 697.25 535.00 L 695.53 532.54 L 693.81 530.08 L 692.10 527.62 L 690.39 525.15 L 688.68 522.69 L 686.97 520.22 L 685.26 517.75 L 683.55 515.29 L 681.86 512.81 L 680.16 510.34 L 678.46 507.87 L 676.78 505.39 L 675.08 502.91 L 673.41 500.42 L 671.73 497.94 L 670.04 495.45 L 668.37 492.96 L 666.71 490.47 L 665.03 487.97 L 663.37 485.48 L 661.70 482.98 L 660.02 480.50 L 658.33 478.02 L 656.63 475.55 L 654.94 473.07 L 653.24 470.60 L 651.55 468.12 L 649.86 465.64 L 648.18 463.16 L 646.50 460.67 L 644.83 458.18 L 643.16 455.68 L 641.50 453.19 L 639.85 450.68 L 638.20 448.18 L 636.53 445.68 L 634.86 443.19 L 633.19 440.70 L 631.53 438.20 L 629.86 435.71 L 628.18 433.22 L 626.51 430.74 L 624.83 428.25 L 623.14 425.77 L 621.45 423.29 L 619.78 420.80 L 618.10 418.31 L 616.45 415.80 L 614.79 413.31 L 613.14 410.80 L 611.48 408.30 L 609.83 405.80 L 608.18 403.29 L 606.52 400.79 L 604.88 398.28 L 603.21 395.79 L 601.55 393.29 L 599.88 390.80 L 598.23 388.29 L 596.58 385.79 L 594.94 383.27 L 593.29 380.77 L 591.65 378.25 L 590.00 375.75 L 588.36 373.24 L 586.70 370.74 L 585.06 368.23 L 583.40 365.73 L 581.75 363.22 L 580.10 360.72 L 578.44 358.22 L 576.79 355.72 L 575.14 353.21 L 573.47 350.71 L 571.80 348.22 L 570.14 345.72 L 568.49 343.22 L 566.84 340.72 L 565.20 338.20 L 563.59 335.67 L 562.00 333.13 L 560.42 330.58 L 558.85 328.02 L 557.28 325.46 L 555.71 322.91 L 554.12 320.36 L 552.55 317.81 L 550.99 315.25 L 549.42 312.69 L 547.84 310.14 L 546.27 307.58 L 544.70 305.03 L 543.12 302.48 L 541.53 299.93 L 539.95 297.38 L 538.37 294.83 L 536.77 292.29 L 535.17 289.76 L 533.55 287.23 L 531.95 284.69 L 530.34 282.16 L 528.75 279.62 L 527.15 277.08 L 525.56 274.54 L 523.95 272.00 L 522.35 269.47 L 520.74 266.93 L 519.14 264.40 L 517.53 261.86 L 515.92 259.34 L 514.29 256.81 L 512.65 254.30 L 511.02 251.78 L 509.38 249.28 L 507.74 246.76 L 506.10 244.25 L 504.46 241.74 L 502.82 239.23 L 501.17 236.72 L 499.52 234.21 L 497.88 231.70 L 496.23 229.19 L 494.59 226.69 L 492.95 224.17 L 491.32 221.66 L 489.67 219.15 L 488.04 216.63 L 486.41 214.11 L 484.77 211.60 L 483.11 209.10 L 481.45 206.60 L 479.79 204.10 L 478.14 201.60 L 476.49 199.09 L 474.86 196.58 L 473.23 194.06 L 471.61 191.53 L 470.00 189.00 L 468.37 186.48 L 466.72 183.97 L 465.08 181.46 L 463.43 178.96 L 461.79 176.45 L 460.15 173.93 L 458.52 171.42 L 456.89 168.89 L 455.26 166.37 L 453.63 163.86 L 451.99 161.34 L 450.36 158.83 L 448.72 156.32 L 447.06 153.82 L 445.40 151.32 L 443.74 148.82 L 442.07 146.33 L 440.39 143.84 L 438.71 141.35 L 437.05 138.86 L 435.39 136.36 L 433.72 133.86 L 432.06 131.37 L 430.40 128.87 L 428.74 126.37 L 427.07 123.87 L 425.41 121.38 L 423.74 118.89 L 422.06 116.40 L 420.40 113.90 L 418.74 111.40 L 417.07 108.91 L 415.40 106.42 L 413.73 103.93 L 412.06 101.43 L 410.40 98.94 L 408.72 96.45 L 407.05 93.95 L 405.39 91.46 L 403.73 88.96 L 402.07 86.46 L 400.40 83.97 L 398.74 81.47 L 397.07 78.97 L 395.40 76.48 L 393.73 73.99 L 392.06 71.50 L 390.39 69.01 L 388.72 66.51 L 387.06 64.02 L 385.40 61.52 L 383.74 59.02 L 382.08 56.52 L 380.43 54.01 L 378.79 51.50 L 377.12 49.01 L 375.48 46.50 L 373.83 43.99 L 372.18 41.49 L 370.52 38.99 L 368.86 36.49 L 367.20 33.99 L 365.54 31.49 L 363.88 28.99 L 362.22 26.49 L 360.56 24.00 L 358.90 21.49 L 357.24 19.00 L 355.57 16.50 L 353.91 14.00 L 352.25 11.51 L 350.57 9.02 L 348.89 6.54 L 347.20 4.06 L 345.52 1.57 L 343.83 -0.91 L 342.15 -3.39 L 340.46 -5.87 L 338.78 -8.36 L 337.09 -10.83 L 335.40 -13.31 L 333.70 -15.79 L 332.01 -18.27 L 330.32 -20.74" stroke="rgb(245,245,245)" stroke-opacity="0.704" stroke-width="1.10" />
  <path d="M 999.97 1000.69 L 998.57 998.29 L 997.16 995.90 L 995.79 993.50 L 994.45 991.10 L 993.07 988.73 L 991.62 986.42 L 990.18 984.12 L 988.69 981.86 L 987.13 979.66 L 985.53 977.51 L 983.89 975.40 L 982.28 973.28 L 980.64 971.19 L 979.00 969.12 L 977.34 967.08 L 975.68 965.05 L 973.96 963.09 L 972.27 961.11 L 970.70 959.05 L 969.15 956.99 L 967.66 954.90 L 966.13 952.85 L 964.67 950.77 L 963.26 948.67 L 961.87 946.57 L 960.48 944.49 L 959.11 942.41 L 957.73 940.33" stroke="rgb(140,255,190)" stroke-opacity="0.528" stroke-width="1.10" />
  <path d="M 916.49 876.32 L 916.22 873.98 L 915.93 871.65 L 915.65 869.31 L 915.37 866.95 L 915.02 864.57 L 914.68 862.21 L 914.34 859.85 L 914.02 857.49 L 913.67 855.16 L 913.32 852.84 L 912.90 850.52 L 912.49 848.18 L 912.07 845.83 L 911.82 843.47 L 911.60 841.09 L 911.38 838.72 L 911.18 836.36 L 910.99 834.00 L 910.78 831.66 L 910.45 829.31 L 910.18 826.96 L 909.92 824.62 L 909.73 822.28 L 909.60 819.94 L 909.41 817.60 L 909.21 815.27 L 909.09 812.93 L 909.00 810.60 L 908.85 808.28 L 908.84 805.97 L 908.82 803.67 L 908.77 801.40 L 908.71 799.14 L 908.62 796.91 L 908.59 794.70 L 908.60 792.50 L 908.60 790.31 L 908.65 788.16 L 908.59 786.03 L 908.52 783.90" stroke="rgb(140,255,190)" stroke-opacity="0.528" stroke-width="1.10" />
  <path d="M 1003.12 999.32 L 1000.98 997.23 L 998.84 995.15 L 996.72 993.08 L 994.51 991.11 L 992.35 989.11 L 990.19 987.14 L 988.04 985.16 L 985.92 983.17 L 983.77 981.23 L 981.69 979.23 L 979.52 977.34 L 977.42 975.40 L 975.33 973.47 L 973.23 971.55 L 971.16 969.62 L 969.10 967.71 L 967.07 965.77 L 965.05 963.84 L 963.03 961.92 L 961.01 960.03 L 959.03 958.11 L 957.03 956.22 L 955.09 954.29 L 953.20 952.33 L 951.33 950.35 L 949.48 948.38 L 947.64 946.41 L 945.81 944.45 L 943.97 942.52 L 942.13 940.59 L 940.34 938.64 L 938.54 936.71 L 936.71 934.82 L 934.90 932.93 L 933.12 931.02 L 931.35 929.12 L 929.57 927.24 L 927.81 925.36 L 926.14 923.42 L 924.43 921.53 L 922.73 919.63 L 921.04 917.75 L 919.38 915.86 L 917.76 913.94 L 916.17 912.01 L 914.56 910.11 L 912.99 908.19 L 911.41 906.30 L 909.78 904.46 L 908.12 902.66 L 906.48 900.86 L 904.91 899.01" stroke="rgb(140,255,190)" stroke-opacity="0.528" stroke-width="1.10" />
  <path d="M 955.18 875.02 L 954.88 873.03 L 954.64 870.99 L 954.41 868.92 L 954.15 866.86 L 954.12 864.85 L 954.17 862.88 L 954.15 860.93 L 954.16 858.99 L 954.05 857.09 L 953.89 855.17 L 953.68 853.21 L 953.45 851.27 L 953.25 849.38 L 952.89 847.56 L 952.57 845.68 L 952.31 843.77 L 952.13 841.92 L 951.94 840.03 L 951.69 838.09 L 951.48 836.17 L 951.24 834.33 L 950.95 832.53 L 950.73 830.80 L 950.65 829.19 L 950.58 827.58 L 950.55 825.92 L 950.63 824.32 L 950.72 822.76 L 950.78 821.20 L 950.84 819.66" stroke="rgb(140,255,190)" stroke-opacity="0.526" stroke-width="1.10" />
  <path d="M 958.22 883.34 L 957.21 881.05 L 956.17 878.80 L 955.12 876.60 L 954.05 874.41 L 953.00 872.22" stroke="rgb(140,255,190)" stroke-opacity="0.526" stroke-width="1.10" />
  <path d="M 1002.80 1000.96 L 1001.48 998.74 L 1000.16 996.54 L 998.86 994.34 L 997.54 992.16 L 996.24 989.98 L 994.96 987.79 L 993.69 985.62 L 992.54 983.40 L 991.33 981.21 L 990.15 979.03 L 989.02 976.82 L 987.74 974.71 L 986.48 972.60 L 985.26 970.49" stroke="rgb(140,255,190)" stroke-opacity="0.526" stroke-width="1.10" />
  <path d="M 941.94 737.74 L 941.14 734.97 L 940.35 732.22 L 939.61 729.46 L 938.88 726.72 L 938.14 724.00 L 937.42 721.27 L 936.67 718.57 L 935.89 715.88 L 935.14 713.21 L 934.26 710.58 L 933.41 707.97 L 932.58 705.34 L 931.76 702.73 L 930.93 700.13 L 930.15 697.53 L 929.32 694.96 L 928.43 692.41 L 927.52 689.87 L 926.56 687.36 L 925.56 684.88 L 924.47 682.45 L 923.50 679.98" stroke="rgb(140,255,190)" stroke-opacity="0.525" stroke-width="1.09" />
  <path d="M 999.58 1005.20 L 999.87 1006.21 L 1000.14 1007.20 L 1000.43 1008.12 L 1000.72 1009.04 L 1001.03 1009.99 L 1001.34 1010.97 L 1001.55 1011.83 L 1001.88 1012.61 L 1002.22 1013.42 L 1002.61 1014.20 L 1002.91 1015.02 L 1003.33 1015.79 L 1003.73 1016.56 L 1004.01 1017.30 L 1004.29 1018.02 L 1004.58 1018.74 L 1004.86 1019.46 L 1005.17 1020.21 L 1005.46 1021.00 L 1005.79 1021.73 L 1006.12 1022.47 L 1006.48 1023.14 L 1006.86 1023.84 L 1007.25 1024.56 L 1007.68 1025.36 L 1008.10 1026.18 L 1008.44 1027.04 L 1008.83 1027.92 L 1009.19 1028.73 L 1009.58 1029.52" stroke="rgb(205,165,255)" stroke-opacity="0.464" stroke-width="1.09" />
  <path d="M 926.18 833.04 L 926.28 830.58 L 926.11 828.19 L 925.99 825.85 L 925.90 823.52 L 925.79 821.20 L 925.80 818.84 L 925.78 816.49 L 925.82 814.20 L 925.94 811.91 L 926.06 809.64 L 926.14 807.36 L 926.12 805.07 L 925.97 802.82 L 925.86 800.57 L 925.78 798.36 L 925.76 796.17 L 925.57 794.07 L 925.42 792.00 L 925.24 789.92 L 925.15 787.81" stroke="rgb(140,255,190)" stroke-opacity="0.524" stroke-width="1.09" />
  <path d="M 925.80 896.96 L 923.42 896.00 L 921.04 895.03 L 918.66 894.09 L 916.29 893.10 L 913.98 892.04 L 911.66 890.97 L 909.36 889.97 L 907.10 888.88 L 904.85 887.81 L 902.63 886.75 L 900.41 885.74 L 898.19 884.77 L 895.96 883.81 L 893.80 882.83 L 891.65 881.91 L 889.53 881.08 L 887.42 880.29 L 885.30 879.51 L 883.20 878.70 L 881.11 877.96 L 878.97 877.28 L 876.89 876.55 L 874.79 875.81 L 872.71 875.07 L 870.63 874.32 L 868.57 873.59 L 866.52 872.85 L 864.49 872.10 L 862.47 871.34 L 860.41 870.60 L 858.36 869.86 L 856.30 869.14 L 854.26 868.40 L 852.26 867.67 L 850.27 866.96 L 848.29 866.23 L 846.27 865.54 L 844.17 864.98 L 842.09 864.47 L 840.03 863.96 L 837.97 863.43 L 835.99 862.86 L 833.99 862.30 L 832.00 861.67 L 830.02 861.05 L 828.05 860.45" stroke="rgb(140,255,190)" stroke-opacity="0.522" stroke-width="1.09" />
  <path d="M 1000.87 1001.21 L 998.85 999.85 L 996.85 998.47 L 994.85 997.10 L 992.90 995.70 L 990.91 994.37 L 988.90 993.10 L 986.90 991.80 L 984.91 990.50 L 982.94 989.21 L 980.97 987.90 L 979.00 986.62 L 977.09 985.29 L 975.15 984.00 L 973.26 982.65 L 971.40 981.27 L 969.57 979.86 L 967.81 978.40 L 966.03 976.96 L 964.26 975.53 L 962.49 974.10 L 960.75 972.66 L 959.02 971.22 L 957.27 969.82 L 955.51 968.45 L 953.74 967.09 L 952.08 965.62 L 950.40 964.19 L 948.69 962.81 L 946.96 961.47 L 945.24 960.14 L 943.53 958.79 L 941.79 957.52 L 940.06 956.26 L 938.35 954.96 L 936.60 953.73 L 934.90 952.45 L 933.25 951.11 L 931.62 949.77 L 930.03 948.40" stroke="rgb(205,165,255)" stroke-opacity="0.456" stroke-width="1.06" />
  <path d="M 997.84 1003.64 L 998.21 1004.73 L 998.69 1005.88 L 999.29 1006.88 L 999.86 1007.91" stroke="rgb(230,230,230)" stroke-opacity="0.387" stroke-width="0.72" />
  <path d="M 1007.19 1001.68 L 1006.48 1000.70 L 1005.88 999.65 L 1005.16 998.73 L 1004.45 997.83 L 1003.57 997.04 L 1002.60 996.41 L 1001.78 995.70 L 1000.91 995.05" stroke="rgb(230,230,230)" stroke-opacity="0.386" stroke-width="0.71" />
  <path d="M 1000.51 1003.83 L 999.09 1003.93 L 997.67 1004.05 L 996.23 1004.17 L 994.79 1004.37" stroke="rgb(230,230,230)" stroke-opacity="0.385" stroke-width="0.71" />
  <path d="M 1002.65 1005.35 L 1003.92 1004.62 L 1005.16 1003.89 L 1006.45 1003.19 L 1007.74 1002.49 L 1009.06 1001.85 L 1010.32 1001.10 L 1011.57 1000.33" stroke="rgb(230,230,230)" stroke-opacity="0.383" stroke-width="0.71" />
  <path d="M 998.05 997.93 L 997.75 999.40 L 997.44 1000.86 L 997.01 1002.28 L 996.54 1003.68 L 996.11 1005.09 L 995.66 1006.49" stroke="rgb(230,230,230)" stroke-opacity="0.383" stroke-width="0.71" />
  <path d="M 1004.11 997.89 L 1002.73 997.46 L 1001.39 996.92 L 1000.04 996.43 L 998.65 995.98 L 997.26 995.60 L 995.88 995.28 L 994.51 994.96" stroke="rgb(230,230,230)" stroke-opacity="0.378" stroke-width="0.69" />
  <path d="M 997.43 1001.81 L 998.53 1001.40 L 999.42 1000.62 L 1000.00 999.64 L 1000.55 998.68 L 1001.28 997.82 L 1001.97 997.00" stroke="rgb(230,230,230)" stroke-opacity="0.376" stroke-width="0.68" />
  <path d="M 1002.75 995.53 L 1001.92 995.07 L 1001.07 994.57 L 1000.21 994.12 L 999.35 993.70 L 998.59 993.27 L 997.83 992.86" stroke="rgb(230,230,230)" stroke-opacity="0.376" stroke-width="0.68" />
  <path d="M 999.30 993.51 L 998.76 992.84 L 998.13 992.15 L 997.28 991.56 L 996.61 990.69 L 995.98 989.67 L 995.48 988.65 L 995.14 987.64 L 994.93 986.63 L 994.83 985.56 L 994.68 984.47 L 994.69 983.49 L 994.70 982.52 L 994.92 981.48" stroke="rgb(230,230,230)" stroke-opacity="0.375" stroke-width="0.68" />
  <path d="M 996.10 1004.69 L 996.30 1004.53 L 996.53 1004.34 L 996.58 1004.19 L 996.60 1004.05 L 996.67 1003.89" stroke="rgb(230,230,230)" stroke-opacity="0.374" stroke-width="0.68" />
  <path d="M 1002.70 998.73 L 1001.25 998.41 L 999.88 997.98 L 998.46 997.72 L 997.01 997.69 L 995.57 997.68 L 994.12 997.79 L 992.67 997.93" stroke="rgb(230,230,230)" stroke-opacity="0.373" stroke-width="0.67" />
  <path d="M 995.52 997.17 L 996.59 997.77 L 997.61 998.47 L 998.63 999.07 L 999.65 999.66 L 1000.57 1000.32 L 1001.42 1001.12 L 1002.22 1001.98 L 1003.03 1002.84" stroke="rgb(230,230,230)" stroke-opacity="0.370" stroke-width="0.67" />
  <path d="M 998.37 999.25 L 998.31 998.57 L 998.34 997.66 L 998.38 996.75 L 998.32 995.82 L 998.21 994.87 L 998.12 993.95 L 998.13 993.02" stroke="rgb(230,230,230)" stroke-opacity="0.366" stroke-width="0.66" />
  <path d="M 1000.73 999.59 L 1001.18 1000.85 L 1001.60 1002.18 L 1001.92 1003.62 L 1002.32 1005.03 L 1002.77 1006.37 L 1003.35 1007.69" stroke="rgb(230,230,230)" stroke-opacity="0.365" stroke-width="0.65" />
  <path d="M 997.80 992.87 L 999.27 993.11 L 1000.73 993.37 L 1002.18 993.69 L 1003.60 994.10 L 1005.01 994.53 L 1006.36 995.10 L 1007.74 995.59 L 1009.09 996.12 L 1010.46 996.57 L 1011.82 997.02 L 1013.22 997.36" stroke="rgb(230,230,230)" stroke-opacity="0.364" stroke-width="0.65" />
  <path d="M 991.47 1000.91 L 990.00 1000.61 L 988.53 1000.31 L 987.06 1000.13 L 985.59 999.93 L 984.14 999.69 L 982.70 999.41" stroke="rgb(230,230,230)" stroke-opacity="0.362" stroke-width="0.64" />
  <path d="M 1004.79 1001.49 L 1004.03 1001.60 L 1003.17 1001.63 L 1002.21 1001.75 L 1001.25 1001.87 L 1000.19 1001.99 L 999.37 1002.17" stroke="rgb(230,230,230)" stroke-opacity="0.354" stroke-width="0.62" />
  <path d="M 1002.44 996.02 L 1001.35 997.00 L 1000.29 998.01 L 999.09 998.86 L 997.90 999.69 L 996.71 1000.48 L 995.50 1001.27 L 994.28 1002.02 L 992.96 1002.53 L 991.62 1003.01 L 990.29 1003.49 L 988.98 1003.97" stroke="rgb(230,230,230)" stroke-opacity="0.349" stroke-width="0.61" />
</g>
</svg>
