{
  "asset": {
    "version": "2.0",
    "generator": "TES-23 Cosmic Ray Renderer"
  },
  "extensionsUsed": [
    "KHR_materials_unlit"
  ],
  "extensionsRequired": [
    "KHR_materials_unlit"
  ],
  "scene": 0,
  "scenes": [
    {
      "nodes": [
        0
      ]
    }
  ],
  "nodes": [
    {
      "name": "CosmicRayEvent",
      "mesh": 0
    }
  ],
  "meshes": [
    {
      "name": "CosmicRayEvent",
      "primitives": [
        {
          "attributes": {
            "POSITION": 0
          },
          "material": 0,
          "mode": 1
        },
        {
          "attributes": {
            "POSITION": 1
          },
          "material": 1,
          "mode": 1
        },
        {
          "attributes": {
            "POSITION": 2
          },
          "material": 2,
          "mode": 1
        },
        {
          "attributes": {
            "POSITION": 3
          },
          "material": 3,
          "mode": 1
        },
        {
          "attributes": {
            "POSITION": 4
          },
          "material": 4,
          "mode": 1
        },
        {
          "attributes": {
            "POSITION": 5
          },
          "material": 5,
          "mode": 1
        }
      ]
    }
  ],
  "materials": [
    {
      "name": "primary",
      "extensions": {
        "KHR_materials_unlit": {}
      },
      "pbrMetallicRoughness": {
        "baseColorFactor": [
          0.961,
          0.961,
          0.961,
          1
        ],
        "metallicFactor": 0,
        "roughnessFactor": 1
      }
    },
    {
      "name": "vertex",
      "extensions": {
        "KHR_materials_unlit": {}
      },
      "pbrMetallicRoughness": {
        "baseColorFactor": [
          0.902,
          0.902,
          0.902,
          0.9
        ],
        "metallicFactor": 0,
        "roughnessFactor": 1
      }
    },
    {
      "name": "em",
      "extensions": {
        "KHR_materials_unlit": {}
      },
      "pbrMetallicRoughness": {
        "baseColorFactor": [
          0.471,
          0.824,
          1,
          1
        ],
        "metallicFactor": 0,
        "roughnessFactor": 1
      }
    },
    {
      "name": "hadron",
      "extensions": {
        "KHR_materials_unlit": {}
      },
      "pbrMetallicRoughness": {
        "baseColorFactor": [
          0.549,
          1,
          0.745,
          1
        ],
        "metallicFactor": 0,
        "roughnessFactor": 1
      }
    },
    {
      "name": "delta",
      "extensions": {
        "KHR_materials_unlit": {}
      },
      "pbrMetallicRoughness": {
        "baseColorFactor": [
          0.804,
          0.647,
          1,
          1
        ],
        "metallicFactor": 0,
        "roughnessFactor": 1
      }
    },
    {
      "name": "backscatter",
      "extensions": {
        "KHR_materials_unlit": {}
      },
      "pbrMetallicRoughness": {
        "baseColorFactor": [
          1,
          0.824,
          0.529,
          0.95
        ],
        "metallicFactor": 0,
        "roughnessFactor": 1
      }
    }
  ],
  "accessors": [
    {
      "bufferView": 0,
      "byteOffset": 0,
      "componentType": 5126,
      "count": 1568,
      "type": "VEC3",
      "min": [
        -0.9998801946640015,
        -0.5893003940582275,
        0
      ],
      "max": [
        1.0202882289886475,
        0.6143249273300171,
        0
      ]
    },
    {
      "bufferView": 1,
      "byteOffset": 0,
      "componentType": 5126,
      "count": 316,
      "type": "VEC3",
      "min": [
        -0.01706034131348133,
        -0.02770542912185192,
        -0.048952214419841766
      ],
      "max": [
        0.01889784261584282,
        0.008648225106298923,
        0.08680684864521027
      ]
    },
    {
      "bufferView": 2,
      "byteOffset": 0,
      "componentType": 5126,
      "count": 1256,
      "type": "VEC3",
      "min": [
        -0.0023846926633268595,
        -0.002843431895598769,
        -0.06637327373027802
      ],
      "max": [
        0.27707186341285706,
        0.12761631608009338,
        0.23486067354679108
      ]
    },
    {
      "bufferView": 3,
      "byteOffset": 0,
      "componentType": 5126,
      "count": 2470,
      "type": "VEC3",
      "min": [
        -0.003987421281635761,
        -0.005075032357126474,
        -0.6692007780075073
      ],
      "max": [
        0.3009742498397827,
        0.21199995279312134,
        0.39275306463241577
      ]
    },
    {
      "bufferView": 4,
      "byteOffset": 0,
      "componentType": 5126,
      "count": 706,
      "type": "VEC3",
      "min": [
        -0.036659304052591324,
        -0.05768711492419243,
        -0.44330093264579773
      ],
      "max": [
        0.25184187293052673,
        0.10369166731834412,
        0.13063080608844757
      ]
    },
    {
      "bufferView": 5,
      "byteOffset": 0,
      "componentType": 5126,
      "count": 1192,
      "type": "VEC3",
      "min": [
        -0.10441449284553528,
        -0.1147911548614502,
        -0.18317434191703796
      ],
      "max": [
        0.13328875601291656,
        0.06566964089870453,
        1.7254623174667358
      ]
    }
  ],
  "bufferViews": [
    {
      "buffer": 0,
      "byteOffset": 0,
      "byteLength": 18816,
      "target": 34962
    },
    {
      "buffer": 0,
      "byteOffset": 18816,
      "byteLength": 3792,
      "target": 34962
    },
    {
      "buffer": 0,
      "byteOffset": 22608,
      "byteLength": 15072,
      "target": 34962
    },
    {
      "buffer": 0,
      "byteOffset": 37680,
      "byteLength": 29640,
      "target": 34962
    },
    {
      "buffer": 0,
      "byteOffset": 67320,
      "byteLength": 8472,
      "target": 34962
    },
    {
      "buffer": 0,
      "byteOffset": 75792,
      "byteLength": 14304,
      "target": 34962
    }
  ],
  "buffers": [
    {
      "byteLength": 90096,
      "uri": "data:application/octet-stream;base64,"
    }
  ]
}