<?xml version="1.0" encoding="UTF-8"?>
<svg xmlns="http://www.w3.org/2000/svg" width="2000" height="2000" viewBox="0 0 2000 2000">
<g fill="none" stroke-linecap="round" stroke-linejoin="round">
  <path d="M 1033.65 1999.95 L 1033.35 1996.71 L 1033.13 1994.28 L 1033.70 1990.73 L 1033.69 1987.46 L 1033.42 1985.00 L 1033.47 1982.11 L 1032.65 1978.81 L 1032.35 1975.85 L 1032.94 1972.89 L 1032.97 1969.87 L 1033.00 1966.91 L 1032.26 1964.20 L 1032.52 1960.90 L 1032.44 1958.03 L 1032.48 1955.08 L 1032.49 1952.28 L 1031.97 1948.96 L 1032.06 1946.01 L 1031.82 1943.12 L 1032.04 1940.23 L 1031.34 1936.47 L 1031.74 1934.07 L 1031.46 1931.20 L 1031.28 1928.15 L 1031.42 1925.26 L 1030.89 1921.97 L 1031.45 1919.55 L 1031.21 1915.92 L 1031.13 1912.82 L 1030.53 1910.26 L 1030.77 1907.15 L 1030.30 1903.80 L 1030.43 1901.13 L 1030.44 1898.28 L 1029.87 1895.09 L 1030.04 1891.99 L 1029.86 1889.26 L 1029.72 1886.05 L 1029.73 1882.99 L 1029.85 1879.74 L 1029.50 1877.01 L 1029.21 1874.16 L 1029.49 1870.93 L 1029.23 1868.43 L 1028.82 1865.12 L 1029.25 1861.98 L 1028.94 1859.15 L 1028.53 1855.93 L 1028.84 1853.02 L 1028.63 1850.59 L 1028.30 1847.18 L 1028.38 1844.30 L 1028.22 1840.81 L 1028.73 1838.17 L 1027.85 1834.70 L 1027.75 1831.77 L 1028.07 1828.99 L 1027.54 1825.79 L 1027.75 1822.92 L 1027.61 1819.59 L 1027.58 1817.00 L 1027.46 1814.06 L 1027.24 1811.07 L 1026.89 1807.89 L 1026.97 1805.01 L 1027.39 1801.79 L 1027.02 1798.97 L 1026.98 1796.59 L 1026.49 1793.35 L 1026.51 1789.87 L 1027.00 1787.30 L 1026.10 1784.11 L 1026.42 1781.15 L 1026.40 1778.14 L 1026.33 1775.18 L 1026.31 1772.48 L 1025.88 1769.17 L 1026.05 1766.09 L 1025.87 1763.28 L 1025.43 1760.26 L 1025.77 1756.92 L 1025.45 1753.93 L 1025.36 1751.17 L 1025.38 1748.01 L 1025.22 1745.49 L 1024.99 1742.30 L 1024.66 1739.36 L 1024.84 1736.53 L 1024.88 1733.24 L 1024.82 1730.34 L 1024.65 1727.00 L 1024.15 1724.35 L 1024.58 1721.48 L 1024.12 1717.91 L 1024.19 1715.34 L 1024.07 1712.45 L 1024.02 1709.33 L 1023.58 1706.28 L 1023.92 1702.89 L 1023.19 1700.11 L 1023.58 1697.19 L 1023.37 1694.01 L 1023.26 1691.05 L 1023.03 1688.13 L 1023.41 1685.31 L 1023.34 1682.29 L 1022.68 1679.16 L 1022.88 1676.60 L 1022.88 1673.46 L 1022.54 1670.25 L 1022.53 1667.12 L 1022.22 1664.23 L 1022.43 1661.11 L 1022.40 1658.07 L 1022.03 1654.72 L 1021.66 1651.96 L 1021.96 1649.32 L 1021.79 1646.16 L 1021.71 1643.08 L 1021.82 1639.85 L 1021.37 1637.31 L 1021.38 1634.12 L 1021.24 1631.64 L 1021.21 1628.10 L 1021.18 1625.34 L 1021.19 1622.37 L 1021.22 1619.31 L 1020.66 1615.90 L 1020.67 1613.27 L 1020.64 1610.27 L 1020.30 1607.16 L 1020.04 1604.06 L 1020.39 1601.35 L 1020.12 1597.62 L 1019.97 1595.17 L 1020.17 1592.33 L 1019.85 1589.85 L 1020.14 1586.62 L 1019.62 1583.15 L 1019.47 1580.27 L 1019.76 1577.03 L 1019.61 1574.50 L 1019.38 1571.18 L 1019.43 1568.11 L 1019.36 1565.55 L 1018.75 1562.66 L 1019.74 1559.44 L 1018.87 1556.22 L 1018.93 1552.83 L 1018.32 1550.30 L 1018.13 1547.25 L 1017.98 1544.25 L 1018.72 1541.40 L 1018.29 1538.24 L 1017.94 1535.14 L 1018.00 1532.23 L 1017.43 1529.45 L 1017.45 1526.52 L 1017.79 1523.33 L 1017.37 1520.01 L 1017.64 1517.01 L 1017.25 1514.06 L 1016.86 1511.18 L 1017.14 1508.75 L 1016.57 1505.57 L 1016.64 1502.10 L 1016.78 1499.31 L 1016.75 1496.41 L 1016.60 1493.59 L 1016.44 1490.25 L 1016.89 1487.37 L 1016.18 1484.34 L 1016.49 1480.75 L 1016.17 1478.17 L 1015.88 1475.38 L 1016.15 1472.24 L 1015.89 1469.32 L 1015.53 1466.53 L 1015.59 1463.14 L 1015.26 1460.01 L 1015.55 1457.73 L 1015.43 1454.31 L 1015.27 1451.24 L 1015.07 1448.13 L 1015.07 1445.23 L 1015.00 1442.19 L 1014.81 1439.32 L 1014.39 1436.60 L 1014.29 1433.63 L 1014.53 1430.35 L 1014.45 1427.66 L 1014.15 1424.33 L 1014.67 1421.15 L 1014.15 1417.64 L 1013.96 1415.37 L 1013.90 1412.14 L 1013.86 1408.97 L 1013.77 1406.15 L 1013.48 1403.47 L 1013.35 1400.47 L 1013.36 1397.58 L 1013.46 1394.50 L 1013.04 1391.32 L 1013.11 1388.73 L 1012.87 1385.33 L 1013.01 1382.25 L 1013.14 1379.74 L 1012.88 1376.14 L 1012.34 1373.12 L 1012.30 1370.11 L 1012.32 1367.18 L 1012.03 1364.64 L 1012.05 1361.32 L 1012.45 1358.53 L 1012.20 1355.47 L 1011.96 1352.44 L 1011.88 1349.22 L 1011.54 1346.48 L 1011.77 1343.42 L 1011.19 1340.63 L 1011.28 1337.24 L 1011.48 1334.47 L 1010.92 1331.30 L 1011.01 1328.29 L 1010.97 1325.24 L 1010.48 1322.67 L 1010.77 1319.36 L 1010.70 1316.30 L 1009.90 1313.58 L 1010.44 1310.09 L 1011.04 1307.74 L 1010.20 1304.43 L 1010.52 1301.47 L 1009.95 1298.49 L 1009.82 1295.32 L 1009.69 1292.63 L 1009.79 1289.30 L 1009.60 1286.61 L 1009.49 1283.58 L 1009.57 1280.65 L 1009.09 1277.67 L 1009.54 1274.38 L 1009.35 1271.66 L 1009.39 1268.27 L 1009.07 1265.46 L 1009.04 1262.26 L 1008.70 1259.64 L 1008.72 1256.45 L 1008.73 1253.09 L 1008.63 1250.09 L 1007.97 1247.63 L 1007.82 1244.49 L 1008.34 1241.70 L 1008.04 1238.62 L 1007.95 1235.31 L 1007.99 1232.53 L 1007.59 1229.58 L 1007.67 1226.36 L 1007.49 1223.51 L 1007.67 1220.52 L 1007.17 1217.62 L 1007.29 1214.75 L 1007.12 1211.27 L 1006.96 1207.69 L 1007.04 1205.64 L 1006.72 1202.01 L 1006.71 1199.33 L 1006.28 1196.54 L 1006.06 1193.46 L 1006.50 1190.59 L 1006.39 1187.62 L 1006.44 1184.93 L 1006.23 1181.32 L 1006.40 1178.66 L 1005.46 1175.21 L 1005.53 1172.20 L 1005.85 1169.53 L 1005.74 1166.59 L 1005.46 1163.63 L 1005.50 1160.49 L 1005.31 1157.45 L 1004.93 1154.75 L 1005.68 1151.50 L 1004.63 1148.71 L 1004.94 1145.56 L 1004.46 1142.42 L 1005.01 1139.19 L 1004.68 1136.37 L 1004.82 1133.17 L 1004.27 1130.29 L 1004.45 1127.34 L 1003.91 1124.34 L 1004.09 1121.82 L 1004.27 1118.88 L 1003.69 1115.63 L 1004.14 1112.77 L 1003.34 1109.24 L 1003.38 1106.18 L 1003.36 1103.01 L 1003.13 1100.04 L 1003.11 1097.43 L 1003.51 1094.19 L 1003.15 1091.30 L 1003.01 1088.29 L 1002.75 1085.71 L 1002.57 1082.52 L 1002.69 1079.12 L 1002.52 1076.78 L 1002.16 1073.79 L 1002.73 1070.61 L 1002.51 1067.25 L 1002.47 1064.26 L 1001.81 1061.74 L 1002.01 1058.24 L 1001.90 1055.23 L 1002.10 1052.55 L 1001.28 1049.77 L 1001.78 1046.57 L 1001.43 1043.45 L 1001.58 1040.57 L 1001.33 1037.49 L 1001.07 1034.49 L 1001.08 1031.93 L 1000.67 1028.72 L 1000.59 1025.45 L 1001.03 1022.66 L 1000.81 1019.71 L 1000.49 1016.51 L 1000.61 1013.91 L 1000.50 1010.48 L 999.90 1007.37 L 1000.07 1004.44 L 999.60 1001.58 L 1000.00 1000.00 L 999.91 997.00 L 999.79 994.00 L 999.69 991.01 L 999.61 988.01 L 999.53 985.01 L 999.47 982.01 L 999.40 979.01 L 999.33 976.01 L 999.22 973.01 L 999.12 970.01 L 999.03 967.01 L 998.91 964.02 L 998.77 961.02 L 998.64 958.02 L 998.51 955.03 L 998.38 952.03 L 998.25 949.03 L 998.12 946.03 L 997.99 943.04 L 997.87 940.04 L 997.75 937.04 L 997.65 934.04 L 997.56 931.05 L 997.45 928.05 L 997.32 925.05 L 997.17 922.05 L 997.00 919.06 L 996.86 916.06 L 996.72 913.07 L 996.59 910.07 L 996.44 907.07 L 996.27 904.08 L 996.13 901.08 L 995.99 898.08 L 995.85 895.09 L 995.73 892.09 L 995.61 889.09 L 995.49 886.09 L 995.41 883.09 L 995.32 880.10 L 995.22 877.10 L 995.10 874.10 L 994.96 871.10 L 994.82 868.11 L 994.67 865.11 L 994.53 862.11 L 994.41 859.12 L 994.30 856.12 L 994.20 853.12 L 994.13 850.12 L 994.08 847.12 L 994.01 844.12 L 993.94 841.12 L 993.89 838.12 L 993.79 835.12 L 993.70 832.13 L 993.59 829.13 L 993.46 826.13 L 993.34 823.13 L 993.20 820.14 L 993.10 817.14 L 993.00 814.14 L 992.90 811.14 L 992.76 808.14 L 992.63 805.15 L 992.52 802.15 L 992.38 799.15 L 992.26 796.15 L 992.15 793.16 L 992.01 790.16 L 991.87 787.16 L 991.72 784.17 L 991.58 781.17 L 991.44 778.17 L 991.29 775.18 L 991.15 772.18 L 991.01 769.18 L 990.89 766.19 L 990.76 763.19 L 990.63 760.19 L 990.51 757.19 L 990.39 754.20 L 990.27 751.20 L 990.15 748.20 L 990.03 745.20 L 989.89 742.21 L 989.79 739.21 L 989.68 736.21 L 989.56 733.21 L 989.44 730.22 L 989.31 727.22 L 989.17 724.22 L 989.08 721.22 L 988.99 718.22 L 988.89 715.23 L 988.78 712.23 L 988.65 709.23 L 988.51 706.23 L 988.37 703.24 L 988.23 700.24 L 988.11 697.24 L 987.98 694.25 L 987.86 691.25 L 987.74 688.25 L 987.61 685.25 L 987.50 682.26 L 987.37 679.26 L 987.23 676.26 L 987.12 673.26 L 987.00 670.27 L 986.89 667.27 L 986.79 664.27 L 986.69 661.27 L 986.61 658.27 L 986.54 655.27 L 986.43 652.28 L 986.35 649.28 L 986.22 646.28 L 986.10 643.28 L 985.98 640.28 L 985.89 637.29 L 985.81 634.29 L 985.74 631.29 L 985.67 628.29 L 985.62 625.29 L 985.56 622.29 L 985.49 619.29 L 985.43 616.29 L 985.36 613.29 L 985.30 610.29 L 985.23 607.29 L 985.16 604.29 L 985.10 601.29 L 985.04 598.29 L 984.98 595.30 L 984.92 592.30 L 984.86 589.30 L 984.80 586.30 L 984.74 583.30 L 984.69 580.30 L 984.65 577.30 L 984.60 574.30 L 984.54 571.30 L 984.51 568.30 L 984.47 565.30 L 984.43 562.30 L 984.37 559.30 L 984.32 556.30 L 984.26 553.30 L 984.18 550.30 L 984.08 547.30 L 984.00 544.31 L 983.92 541.31 L 983.83 538.31 L 983.75 535.31 L 983.66 532.31 L 983.57 529.31 L 983.48 526.31 L 983.40 523.31 L 983.33 520.31 L 983.27 517.32 L 983.21 514.32 L 983.13 511.32 L 983.05 508.32 L 982.95 505.32 L 982.86 502.32 L 982.78 499.32 L 982.69 496.32 L 982.59 493.33 L 982.51 490.33 L 982.43 487.33 L 982.35 484.33 L 982.26 481.33 L 982.18 478.33 L 982.09 475.33 L 982.00 472.33 L 981.89 469.34 L 981.76 466.34 L 981.65 463.34 L 981.55 460.34 L 981.44 457.34 L 981.32 454.35 L 981.22 451.35 L 981.10 448.35 L 981.00 445.35 L 980.89 442.35 L 980.77 439.36 L 980.65 436.36 L 980.53 433.36 L 980.39 430.36 L 980.25 427.37 L 980.11 424.37 L 979.98 421.37 L 979.83 418.38 L 979.64 415.38 L 979.44 412.39 L 979.22 409.40 L 979.00 406.41 L 978.79 403.41 L 978.56 400.42 L 978.32 397.43 L 978.10 394.44 L 977.92 391.45 L 977.74 388.45 L 977.56 385.46 L 977.37 382.46 L 977.21 379.47 L 977.05 376.47 L 976.93 373.47 L 976.84 370.48 L 976.75 367.48 L 976.66 364.48 L 976.56 361.48 L 976.48 358.48 L 976.41 355.48 L 976.36 352.48 L 976.30 349.48 L 976.24 346.48 L 976.16 343.48 L 976.09 340.49 L 976.03 337.49 L 975.98 334.49 L 975.93 331.49 L 975.88 328.49 L 975.82 325.49 L 975.77 322.49 L 975.71 319.49 L 975.64 316.49 L 975.61 313.49 L 975.56 310.49 L 975.48 307.49 L 975.38 304.49 L 975.28 301.49 L 975.19 298.50 L 975.11 295.50 L 975.02 292.50 L 974.94 289.50 L 974.86 286.50 L 974.79 283.50 L 974.72 280.50 L 974.64 277.50 L 974.55 274.50 L 974.47 271.51 L 974.40 268.51 L 974.32 265.51 L 974.24 262.51 L 974.17 259.51 L 974.13 256.51 L 974.08 253.51 L 974.02 250.51 L 973.97 247.51 L 973.91 244.51 L 973.83 241.51 L 973.75 238.51 L 973.67 235.51 L 973.59 232.52 L 973.51 229.52 L 973.43 226.52 L 973.35 223.52 L 973.25 220.52 L 973.18 217.52 L 973.12 214.52 L 973.04 211.52 L 972.99 208.52 L 972.93 205.52 L 972.87 202.52 L 972.82 199.52 L 972.73 196.53 L 972.66 193.53 L 972.60 190.53 L 972.53 187.53 L 972.47 184.53 L 972.41 181.53 L 972.34 178.53 L 972.28 175.53 L 972.23 172.53 L 972.19 169.53 L 972.14 166.53 L 972.07 163.53 L 971.98 160.53 L 971.89 157.54 L 971.79 154.54 L 971.69 151.54 L 971.60 148.54 L 971.50 145.54 L 971.41 142.54 L 971.33 139.54 L 971.26 136.55 L 971.16 133.55 L 971.07 130.55 L 970.99 127.55 L 970.90 124.55 L 970.82 121.55 L 970.75 118.55 L 970.69 115.55 L 970.60 112.55 L 970.53 109.56 L 970.45 106.56 L 970.37 103.56 L 970.26 100.56 L 970.15 97.56 L 970.06 94.56 L 969.97 91.56 L 969.87 88.57 L 969.78 85.57 L 969.69 82.57 L 969.62 79.57 L 969.56 76.57 L 969.47 73.57 L 969.43 70.57 L 969.38 67.57 L 969.33 64.57 L 969.27 61.57 L 969.22 58.57 L 969.14 55.57 L 969.06 52.58 L 968.98 49.58 L 968.88 46.58 L 968.80 43.58 L 968.72 40.58 L 968.65 37.58 L 968.60 34.58 L 968.57 31.58 L 968.56 28.58 L 968.53 25.58 L 968.51 22.58 L 968.51 19.58 L 968.50 16.58 L 968.47 13.58 L 968.44 10.58 L 968.41 7.58 L 968.38 4.58 L 968.34 1.58 L 968.32 -1.42 L 968.29 -4.42 L 968.25 -7.42 L 968.22 -10.42 L 968.19 -13.42 L 968.18 -16.42 L 968.16 -19.42 L 968.16 -22.42" stroke="rgb(245,245,245)" stroke-opacity="0.980" stroke-width="1.93" />
  <path d="M 999.48 1000.55 L 999.42 997.50 L 999.38 994.47 L 999.35 991.44 L 999.33 988.43 L 999.34 985.43 L 999.32 982.45 L 999.30 979.48 L 999.26 976.52 L 999.35 973.57 L 999.46 970.64 L 999.56 967.72 L 999.68 964.81 L 999.82 961.92 L 999.97 959.05 L 1000.09 956.18 L 1000.16 953.33 L 1000.27 950.49 L 1000.40 947.66 L 1000.53 944.84 L 1000.67 942.04 L 1000.78 939.24 L 1000.93 936.46 L 1001.06 933.68 L 1001.13 930.92 L 1001.19 928.16 L 1001.25 925.42 L 1001.32 922.69 L 1001.37 919.97 L 1001.33 917.26 L 1001.30 914.56 L 1001.30 911.87 L 1001.28 909.19 L 1001.31 906.52 L 1001.34 903.86 L 1001.37 901.22 L 1001.39 898.58 L 1001.41 895.96 L 1001.50 893.34 L 1001.59 890.73 L 1001.69 888.13 L 1001.79 885.54 L 1001.90 882.96 L 1002.01 880.40 L 1002.13 877.84 L 1002.21 875.30 L 1002.30 872.77 L 1002.39 870.25 L 1002.49 867.74" stroke="rgb(120,210,255)" stroke-opacity="0.469" stroke-width="1.63" />
  <path d="M 1002.48 1001.06 L 1002.34 997.58 L 1002.19 994.11 L 1002.00 990.65 L 1001.87 987.21 L 1001.74 983.78 L 1001.62 980.36 L 1001.52 976.96 L 1001.41 973.57 L 1001.29 970.20 L 1001.17 966.83 L 1001.01 963.49 L 1000.84 960.15 L 1000.65 956.84 L 1000.47 953.53 L 1000.27 950.24 L 1000.04 946.97 L 999.80 943.70 L 999.53 940.46 L 999.21 937.23 L 998.94 934.01 L 998.67 930.80 L 998.36 927.61 L 998.03 924.43" stroke="rgb(120,210,255)" stroke-opacity="0.852" stroke-width="1.63" />
  <path d="M 996.12 1000.17 L 995.91 996.75 L 995.75 993.33 L 995.59 989.94 L 995.44 986.55 L 995.30 983.18 L 995.13 979.82 L 994.92 976.48 L 994.70 973.15 L 994.50 969.83 L 994.32 966.53 L 994.15 963.24 L 994.00 959.96 L 993.82 956.70 L 993.68 953.45 L 993.55 950.21 L 993.41 946.99 L 993.28 943.77 L 993.15 940.58 L 993.00 937.39 L 992.85 934.22 L 992.70 931.06 L 992.56 927.91 L 992.41 924.77 L 992.26 921.65 L 992.11 918.54 L 991.98 915.44 L 991.81 912.36 L 991.64 909.29 L 991.46 906.23 L 991.28 903.19 L 991.10 900.16 L 990.95 897.13 L 990.81 894.12 L 990.67 891.12 L 990.53 888.13 L 990.38 885.15 L 990.26 882.19" stroke="rgb(120,210,255)" stroke-opacity="0.850" stroke-width="1.62" />
  <path d="M 996.42 1001.83 L 996.41 998.80 L 996.42 995.78 L 996.48 992.78 L 996.53 989.79 L 996.61 986.81 L 996.73 983.84 L 996.82 980.89 L 996.93 977.96 L 996.98 975.04 L 997.00 972.12 L 997.05 969.23 L 997.03 966.34 L 997.03 963.47 L 997.03 960.61 L 997.07 957.76 L 997.13 954.94 L 997.15 952.11 L 997.20 949.30 L 997.26 946.49 L 997.32 943.70 L 997.43 940.92 L 997.53 938.15" stroke="rgb(120,210,255)" stroke-opacity="0.467" stroke-width="1.62" />
  <path d="M 999.25 997.89 L 999.13 994.63 L 999.00 991.38 L 998.86 988.15 L 998.73 984.93 L 998.67 981.72 L 998.61 978.53 L 998.52 975.35 L 998.34 972.18 L 998.18 969.02 L 997.93 965.88 L 997.62 962.76 L 997.37 959.65 L 997.13 956.55 L 996.90 953.46 L 996.70 950.38 L 996.49 947.32 L 996.30 944.26" stroke="rgb(120,210,255)" stroke-opacity="0.850" stroke-width="1.62" />
  <path d="M 1000.91 1002.57 L 1000.79 999.32 L 1000.65 996.10 L 1000.50 992.88 L 1000.45 989.68 L 1000.40 986.49 L 1000.33 983.31 L 1000.23 980.14 L 1000.12 976.99 L 1000.00 973.85 L 999.90 970.72 L 999.80 967.61 L 999.63 964.51 L 999.46 961.43 L 999.27 958.35 L 999.06 955.30 L 998.86 952.25 L 998.64 949.21 L 998.41 946.19 L 998.21 943.18 L 997.96 940.19 L 997.77 937.20 L 997.55 934.23 L 997.34 931.26 L 997.13 928.31 L 996.93 925.37 L 996.73 922.45 L 996.54 919.53 L 996.30 916.63 L 996.03 913.74 L 995.75 910.87 L 995.45 908.01 L 995.23 905.15 L 995.10 902.31 L 994.99 899.48 L 994.87 896.65" stroke="rgb(120,210,255)" stroke-opacity="0.846" stroke-width="1.61" />
  <path d="M 999.99 1002.57 L 999.87 999.36 L 999.80 996.17 L 999.76 992.99 L 999.71 989.82 L 999.64 986.66 L 999.66 983.51 L 999.69 980.38 L 999.72 977.26 L 999.68 974.16 L 999.58 971.06 L 999.47 967.98 L 999.43 964.92 L 999.42 961.86 L 999.42 958.82 L 999.41 955.79 L 999.40 952.77 L 999.43 949.76 L 999.49 946.77 L 999.49 943.79 L 999.48 940.82 L 999.45 937.86 L 999.42 934.91 L 999.39 931.97 L 999.32 929.04 L 999.30 926.13 L 999.26 923.23 L 999.23 920.34 L 999.22 917.46 L 999.22 914.59 L 999.22 911.74 L 999.23 908.90 L 999.24 906.07 L 999.26 903.25 L 999.24 900.45 L 999.13 897.66 L 999.04 894.88 L 998.90 892.11 L 998.75 889.35 L 998.61 886.60 L 998.48 883.87 L 998.36 881.16 L 998.23 878.45 L 998.13 875.76 L 998.02 873.07 L 997.89 870.39 L 997.73 867.73 L 997.53 865.08 L 997.32 862.44 L 997.13 859.81 L 996.95 857.19 L 996.82 854.58 L 996.66 851.98 L 996.52 849.39 L 996.45 846.81 L 996.37 844.24 L 996.29 841.69 L 996.27 839.14 L 996.24 836.60 L 996.19 834.07 L 996.17 831.54 L 996.15 829.03 L 996.15 826.52 L 996.15 824.02 L 996.14 821.54 L 996.12 819.07 L 996.10 816.61 L 996.12 814.16 L 996.14 811.72 L 996.15 809.29 L 996.21 806.87 L 996.27 804.46 L 996.35 802.06 L 996.43 799.67 L 996.48 797.28 L 996.53 794.90 L 996.56 792.54 L 996.59 790.18" stroke="rgb(120,210,255)" stroke-opacity="0.841" stroke-width="1.60" />
  <path d="M 999.80 998.01 L 999.88 994.93 L 1000.02 991.86 L 1000.18 988.80 L 1000.30 985.76 L 1000.38 982.72 L 1000.42 979.69 L 1000.50 976.68 L 1000.56 973.67 L 1000.56 970.68 L 1000.57 967.71 L 1000.57 964.74 L 1000.52 961.78 L 1000.47 958.84 L 1000.44 955.91 L 1000.31 953.00 L 1000.18 950.10 L 1000.21 947.20 L 1000.22 944.32 L 1000.22 941.45 L 1000.23 938.59 L 1000.31 935.74 L 1000.38 932.90 L 1000.46 930.07 L 1000.56 927.26 L 1000.68 924.46 L 1000.79 921.66 L 1000.90 918.88 L 1001.00 916.10 L 1001.03 913.34 L 1001.07 910.59 L 1001.09 907.85 L 1001.14 905.12 L 1001.13 902.41 L 1001.13 899.70 L 1001.13 897.00 L 1001.12 894.31 L 1001.14 891.64 L 1001.16 888.98 L 1001.15 886.32 L 1001.20 883.68 L 1001.29 881.05 L 1001.41 878.43 L 1001.52 875.82 L 1001.62 873.22 L 1001.73 870.63 L 1001.83 868.06 L 1001.87 865.50 L 1001.92 862.94 L 1001.99 860.39 L 1002.02 857.85 L 1001.98 855.32 L 1001.91 852.81 L 1001.85 850.30 L 1001.78 847.80 L 1001.69 845.31 L 1001.58 842.84 L 1001.50 840.37 L 1001.39 837.91 L 1001.30 835.47 L 1001.19 833.03 L 1001.06 830.60 L 1000.91 828.19 L 1000.76 825.78 L 1000.59 823.38 L 1000.41 821.00 L 1000.24 818.62 L 1000.09 816.25 L 999.94 813.89" stroke="rgb(120,210,255)" stroke-opacity="0.462" stroke-width="1.59" />
  <path d="M 998.68 1000.75 L 998.68 997.45 L 998.62 994.16 L 998.57 990.89 L 998.55 987.63 L 998.45 984.38 L 998.37 981.15 L 998.33 977.92 L 998.32 974.71 L 998.24 971.52 L 998.08 968.34 L 997.91 965.18 L 997.75 962.03 L 997.58 958.89 L 997.42 955.76 L 997.28 952.65 L 997.17 949.55 L 997.11 946.45 L 997.01 943.37 L 996.93 940.30 L 996.86 937.24 L 996.80 934.19 L 996.76 931.15 L 996.73 928.13 L 996.71 925.12 L 996.74 922.12 L 996.73 919.13 L 996.77 916.16 L 996.84 913.20 L 996.88 910.25 L 996.90 907.31 L 996.91 904.38 L 996.92 901.46 L 996.89 898.56 L 996.85 895.67 L 996.79 892.79 L 996.72 889.92 L 996.64 887.06 L 996.53 884.21 L 996.41 881.38 L 996.28 878.56 L 996.11 875.75 L 995.93 872.95 L 995.75 870.17 L 995.55 867.40 L 995.37 864.64 L 995.18 861.88 L 994.99 859.15 L 994.79 856.42 L 994.59 853.70 L 994.37 851.00 L 994.09 848.31 L 993.81 845.63 L 993.50 842.97 L 993.17 840.32 L 992.85 837.68" stroke="rgb(120,210,255)" stroke-opacity="0.840" stroke-width="1.59" />
  <path d="M 1000.52 1002.90 L 1000.49 999.94 L 1000.47 996.99 L 1000.43 994.05 L 1000.34 991.13 L 1000.25 988.22 L 1000.23 985.32 L 1000.15 982.43 L 1000.08 979.56 L 1000.00 976.69 L 999.92 973.84 L 999.78 971.00 L 999.57 968.18 L 999.38 965.36 L 999.12 962.57 L 998.87 959.78 L 998.61 957.00 L 998.34 954.24 L 998.08 951.49 L 997.82 948.75 L 997.49 946.02 L 997.17 943.31 L 996.83 940.61 L 996.55 937.92 L 996.26 935.24 L 995.95 932.57 L 995.60 929.93 L 995.29 927.28 L 995.00 924.65 L 994.71 922.02 L 994.35 919.41 L 993.98 916.81 L 993.61 914.23" stroke="rgb(120,210,255)" stroke-opacity="0.461" stroke-width="1.59" />
  <path d="M 1000.12 996.83 L 1000.06 994.06 L 999.99 991.29 L 999.90 988.54 L 999.79 985.81 L 999.70 983.10 L 999.58 980.40 L 999.40 977.71 L 999.22 975.02 L 998.94 972.35 L 998.68 969.69 L 998.50 967.03 L 998.41 964.38 L 998.33 961.74 L 998.14 959.12 L 998.00 956.50 L 997.77 953.90 L 997.55 951.31 L 997.32 948.73 L 997.07 946.16 L 996.71 943.62 L 996.27 941.10 L 995.86 938.58 L 995.44 936.08 L 995.02 933.59 L 994.51 931.12 L 994.01 928.66 L 993.51 926.22 L 992.99 923.79 L 992.46 921.38" stroke="rgb(120,210,255)" stroke-opacity="0.459" stroke-width="1.57" />
  <path d="M 999.39 998.96 L 999.27 996.06 L 999.16 993.17 L 999.00 990.29 L 998.93 987.43 L 998.89 984.57 L 998.83 981.72 L 998.78 978.89 L 998.72 976.06 L 998.75 973.25 L 998.80 970.46 L 998.85 967.67 L 998.94 964.89 L 999.01 962.12 L 999.12 959.37 L 999.21 956.62 L 999.31 953.89 L 999.33 951.17 L 999.36 948.45 L 999.40 945.75 L 999.47 943.06" stroke="rgb(120,210,255)" stroke-opacity="0.458" stroke-width="1.57" />
  <path d="M 999.66 999.85 L 999.53 997.04 L 999.36 994.23 L 999.11 991.45 L 998.91 988.68 L 998.77 985.92 L 998.64 983.16 L 998.53 980.41 L 998.33 977.69 L 998.12 974.98 L 997.79 972.28 L 997.51 969.59 L 997.22 966.92 L 996.88 964.29 L 996.51 961.67 L 996.11 959.06 L 995.60 956.48 L 995.02 953.92 L 994.45 951.36 L 993.89 948.82 L 993.31 946.29 L 992.65 943.79 L 992.02 941.29 L 991.33 938.81 L 990.64 936.35 L 989.91 933.91 L 989.21 931.47 L 988.54 929.03 L 987.81 926.61 L 987.04 924.22 L 986.30 921.84 L 985.53 919.47 L 984.89 917.08 L 984.14 914.73 L 983.33 912.41 L 982.55 910.08 L 981.71 907.79 L 980.95 905.48 L 980.23 903.16 L 979.51 900.87 L 978.79 898.58 L 978.00 896.32 L 977.18 894.08 L 976.38 891.85 L 975.58 889.63 L 974.80 887.41 L 974.06 885.19 L 973.30 882.98 L 972.56 880.78 L 971.80 878.60 L 971.01 876.46 L 970.24 874.32 L 969.50 872.17 L 968.77 870.04 L 968.03 867.92 L 967.25 865.82 L 966.45 863.74 L 965.60 861.69 L 964.77 859.65 L 963.98 857.59 L 963.20 855.53 L 962.42 853.49" stroke="rgb(120,210,255)" stroke-opacity="0.457" stroke-width="1.56" />
  <path d="M 997.06 997.25 L 996.95 995.10 L 996.76 992.95 L 996.55 990.82 L 996.34 988.69 L 996.17 986.57 L 996.01 984.46 L 995.90 982.36 L 995.84 980.25 L 995.79 978.16 L 995.77 976.08 L 995.75 974.00 L 995.74 971.94 L 995.72 969.88 L 995.65 967.84 L 995.68 965.80 L 995.77 963.78 L 995.94 961.76 L 996.14 959.76 L 996.50 957.79 L 996.77 955.80 L 997.10 953.84 L 997.43 951.89 L 997.74 949.93 L 998.03 947.98 L 998.32 946.04 L 998.62 944.11 L 998.86 942.18 L 999.15 940.26 L 999.50 938.36 L 999.84 936.47" stroke="rgb(140,255,190)" stroke-opacity="0.578" stroke-width="1.27" />
  <path d="M 984.01 931.10 L 984.26 928.05 L 984.47 925.02 L 984.65 922.02 L 984.91 919.04 L 985.12 916.09 L 985.26 913.17 L 985.40 910.24 L 985.59 907.29 L 985.79 904.35 L 986.03 901.44 L 986.25 898.54 L 986.48 895.68 L 986.75 892.84 L 987.05 889.99 L 987.36 887.14 L 987.67 884.28" stroke="rgb(205,165,255)" stroke-opacity="0.720" stroke-width="1.24" />
  <path d="M 999.09 912.89 L 997.85 910.08 L 996.61 907.33 L 995.29 904.65 L 993.91 902.03 L 992.60 899.37 L 991.24 896.75 L 989.84 894.15 L 988.42 891.57 L 986.97 889.02 L 985.54 886.48 L 984.18 883.97 L 982.79 881.48 L 981.41 879.01 L 980.00 876.59 L 978.60 874.16 L 977.25 871.74 L 975.94 869.30 L 974.66 866.83 L 973.40 864.38 L 972.12 861.94 L 970.85 859.49 L 969.62 857.07 L 968.33 854.68 L 967.03 852.30 L 965.75 849.93 L 964.48 847.56 L 963.23 845.20 L 961.94 842.87 L 960.67 840.51 L 959.36 838.15 L 958.05 835.81 L 956.76 833.49 L 955.47 831.16 L 954.18 828.85 L 952.95 826.54 L 951.71 824.24 L 950.48 821.95 L 949.25 819.68 L 948.02 817.41 L 946.77 815.16 L 945.51 812.91 L 944.24 810.68 L 942.99 808.45 L 941.69 806.22 L 940.38 804.03 L 939.06 801.86 L 937.82 799.69 L 936.58 797.53 L 935.35 795.39 L 934.10 793.22 L 932.84 791.06 L 931.59 788.93 L 930.35 786.79 L 929.09 784.69 L 927.79 782.60 L 926.49 780.52 L 925.29 778.42 L 924.13 776.29 L 922.96 774.19" stroke="rgb(205,165,255)" stroke-opacity="0.716" stroke-width="1.23" />
  <path d="M 1000.36 1001.68 L 1000.25 1005.02 L 1000.16 1008.35 L 1000.10 1011.69 L 1000.00 1015.01 L 999.93 1018.33 L 999.86 1021.62 L 999.80 1024.92 L 999.75 1028.20 L 999.68 1031.48 L 999.64 1034.76 L 999.59 1038.00 L 999.53 1041.23 L 999.48 1044.46 L 999.44 1047.68 L 999.46 1050.88 L 999.43 1054.08 L 999.42 1057.26 L 999.43 1060.43 L 999.41 1063.57 L 999.39 1066.69 L 999.36 1069.79 L 999.38 1072.89 L 999.35 1075.98 L 999.31 1079.06 L 999.26 1082.13 L 999.22 1085.18 L 999.19 1088.20 L 999.19 1091.23 L 999.18 1094.23 L 999.18 1097.23 L 999.18 1100.20 L 999.18 1103.16 L 999.17 1106.11 L 999.15 1109.05 L 999.15 1111.98 L 999.17 1114.91" stroke="rgb(205,165,255)" stroke-opacity="0.715" stroke-width="1.23" />
  <path d="M 995.77 963.78 L 995.26 961.74 L 994.79 959.67 L 994.38 957.64 L 994.00 955.61 L 993.75 953.55 L 993.44 951.53 L 993.09 949.50 L 992.70 947.50 L 992.29 945.52 L 991.83 943.53 L 991.33 941.60 L 990.84 939.68 L 990.33 937.72 L 989.93 935.74 L 989.60 933.78 L 989.35 931.79 L 989.13 929.81 L 988.88 927.84 L 988.61 925.87 L 988.38 923.90 L 988.21 921.91 L 987.97 919.95 L 987.76 917.99 L 987.55 916.04 L 987.34 914.10 L 987.15 912.16 L 987.03 910.25 L 986.90 908.34 L 986.96 906.43 L 986.94 904.51 L 986.93 902.60 L 986.94 900.69 L 986.94 898.81 L 987.07 896.92 L 987.18 895.01 L 987.40 893.12 L 987.54 891.23 L 987.72 889.36 L 987.88 887.51 L 987.94 885.70 L 987.96 883.89" stroke="rgb(140,255,190)" stroke-opacity="0.564" stroke-width="1.23" />
  <path d="M 995.04 998.40 L 995.10 996.12 L 995.23 993.83 L 995.37 991.49 L 995.46 989.16 L 995.57 986.87 L 995.67 984.58 L 995.82 982.25 L 995.98 979.95 L 996.14 977.71 L 996.32 975.48 L 996.41 973.26 L 996.52 971.06 L 996.66 968.83 L 996.79 966.61 L 996.94 964.43 L 997.09 962.24 L 997.21 960.03 L 997.32 957.81 L 997.38 955.57 L 997.44 953.36 L 997.51 951.17 L 997.58 948.99 L 997.65 946.82 L 997.70 944.66 L 997.73 942.53 L 997.80 940.41 L 997.90 938.32 L 998.00 936.28 L 998.12 934.24 L 998.22 932.20 L 998.31 930.20 L 998.37 928.22 L 998.44 926.25 L 998.49 924.29 L 998.53 922.36 L 998.60 920.44 L 998.70 918.54 L 998.81 916.63 L 998.92 914.74 L 999.09 912.89 L 999.28 911.06 L 999.50 909.15 L 999.73 907.23" stroke="rgb(205,165,255)" stroke-opacity="0.714" stroke-width="1.22" />
  <path d="M 999.73 999.15 L 998.44 998.41 L 997.17 997.69 L 995.92 996.98 L 994.64 996.28 L 993.37 995.56 L 992.10 994.84 L 990.85 994.11 L 989.60 993.38 L 988.37 992.67 L 987.12 991.97 L 985.88 991.31 L 984.60 990.63 L 983.32 989.95 L 982.04 989.28 L 980.77 988.62 L 979.50 987.99 L 978.24 987.37 L 977.03 986.75 L 975.88 986.11 L 974.74 985.48 L 973.60 984.86 L 972.46 984.25 L 971.36 983.63 L 970.28 983.01 L 969.19 982.39 L 968.10 981.77 L 967.01 981.15 L 965.92 980.56 L 964.86 980.02 L 963.82 979.50 L 962.79 978.99 L 961.77 978.50 L 960.78 978.05 L 959.79 977.59 L 958.80 977.18 L 957.79 976.81" stroke="rgb(205,165,255)" stroke-opacity="0.713" stroke-width="1.22" />
  <path d="M 1002.68 999.29 L 1004.98 996.89 L 1007.27 994.49 L 1009.55 992.10 L 1011.82 989.73 L 1014.03 987.30 L 1016.24 984.91 L 1018.45 982.53 L 1020.67 980.18 L 1022.89 977.85 L 1025.12 975.53 L 1027.32 973.22 L 1029.44 970.85 L 1031.57 968.49 L 1033.69 966.15 L 1035.80 963.82 L 1037.90 961.50 L 1039.97 959.16 L 1042.01 956.82 L 1044.05 954.50 L 1046.09 952.18 L 1048.11 949.87 L 1050.14 947.58 L 1052.14 945.29 L 1054.08 942.95 L 1056.05 940.66 L 1057.99 938.37 L 1059.93 936.08 L 1061.87 933.81 L 1063.76 931.52 L 1065.69 929.28 L 1067.60 927.03 L 1069.53 924.82 L 1071.44 922.60 L 1073.36 920.42 L 1075.30 918.25 L 1077.20 916.08 L 1079.09 913.91 L 1080.96 911.74 L 1082.84 909.58" stroke="rgb(205,165,255)" stroke-opacity="0.706" stroke-width="1.20" />
  <path d="M 998.95 999.37 L 997.38 1001.34 L 995.78 1003.30 L 994.18 1005.23 L 992.53 1007.18 L 990.87 1009.11 L 989.24 1011.04 L 987.60 1012.93 L 985.98 1014.83 L 984.36 1016.74 L 982.73 1018.67 L 981.09 1020.59 L 979.45 1022.51 L 977.90 1024.44 L 976.31 1026.35 L 974.66 1028.25 L 973.01 1030.16 L 971.35 1032.05 L 969.69 1033.92 L 968.05 1035.77 L 966.38 1037.60 L 964.72 1039.41 L 963.10 1041.23 L 961.46 1042.95 L 959.88 1044.69 L 958.33 1046.42 L 956.77 1048.15 L 955.22 1049.87 L 953.67 1051.57 L 952.12 1053.24 L 950.57 1054.89 L 949.02 1056.54 L 947.53 1058.18 L 946.07 1059.82 L 944.62 1061.46 L 943.19 1063.09 L 941.76 1064.69 L 940.33 1066.29 L 938.90 1067.87 L 937.49 1069.47 L 936.10 1071.10 L 934.73 1072.73 L 933.34 1074.35 L 931.92 1075.93 L 930.50 1077.51 L 929.11 1079.03 L 927.68 1080.54 L 926.24 1082.04 L 924.78 1083.59 L 923.33 1085.14 L 921.91 1086.70 L 920.51 1088.28 L 919.12 1089.85 L 917.76 1091.44 L 916.40 1093.03 L 915.07 1094.63 L 913.73 1096.23 L 912.38 1097.84" stroke="rgb(205,165,255)" stroke-opacity="0.706" stroke-width="1.20" />
  <path d="M 999.77 927.02 L 999.15 924.93 L 998.47 922.85 L 997.79 920.75 L 997.15 918.70 L 996.50 916.63 L 995.87 914.58 L 995.25 912.52 L 994.68 910.47 L 994.06 908.46 L 993.48 906.47 L 992.84 904.53 L 992.22 902.61 L 991.63 900.61 L 991.14 898.65 L 990.60 896.71 L 990.07 894.86 L 989.53 893.05 L 988.94 891.31 L 988.33 889.61 L 987.79 887.86 L 987.26 886.20 L 986.77 884.58 L 986.16 883.02 L 985.58 881.38 L 985.00 879.69 L 984.39 878.03 L 983.75 876.41 L 983.14 874.76 L 982.57 873.11" stroke="rgb(140,255,190)" stroke-opacity="0.555" stroke-width="1.19" />
  <path d="M 998.80 1001.60 L 998.98 998.24 L 999.09 994.88 L 999.21 991.56 L 999.31 988.25 L 999.41 984.97 L 999.47 981.71 L 999.53 978.46 L 999.54 975.22 L 999.55 972.00 L 999.64 968.78 L 999.75 965.58 L 999.85 962.39 L 999.98 959.22 L 1000.15 956.06 L 1000.31 952.91 L 1000.53 949.78 L 1000.76 946.65 L 1000.98 943.54 L 1001.22 940.44 L 1001.50 937.37 L 1001.82 934.32 L 1002.14 931.27 L 1002.50 928.24 L 1002.85 925.22" stroke="rgb(140,255,190)" stroke-opacity="0.740" stroke-width="1.19" />
  <path d="M 959.45 858.30 L 957.13 856.62 L 954.81 854.96 L 952.50 853.29 L 950.16 851.64 L 947.84 849.97 L 945.53 848.32 L 943.22 846.72 L 940.90 845.10 L 938.59 843.43 L 936.21 841.83 L 933.85 840.21 L 931.50 838.61 L 929.16 837.01 L 926.83 835.43 L 924.50 833.86 L 922.17 832.34 L 919.82 830.90 L 917.45 829.48 L 915.11 828.07 L 912.80 826.61 L 910.47 825.22 L 908.12 823.90 L 905.75 822.60 L 903.40 821.30 L 901.04 820.02 L 898.71 818.72 L 896.40 817.45" stroke="rgb(140,255,190)" stroke-opacity="0.739" stroke-width="1.19" />
  <path d="M 1006.92 940.76 L 1008.45 938.28 L 1009.99 935.80 L 1011.47 933.27 L 1012.89 930.75 L 1014.27 928.25 L 1015.63 925.73 L 1016.99 923.23 L 1018.33 920.74 L 1019.69 918.27 L 1021.04 915.81 L 1022.50 913.48 L 1023.93 911.16 L 1025.40 908.87 L 1026.87 906.59 L 1028.35 904.31 L 1029.82 902.04 L 1031.27 899.79 L 1032.76 897.58 L 1034.19 895.34 L 1035.62 893.12 L 1037.00 890.88 L 1038.38 888.66 L 1039.82 886.51 L 1041.23 884.35 L 1042.64 882.22 L 1044.02 880.08 L 1045.40 877.95 L 1046.73 875.77 L 1048.06 873.60 L 1049.44 871.43 L 1050.81 869.27 L 1052.18 867.10 L 1053.55 864.98 L 1054.91 862.87 L 1056.25 860.76 L 1057.59 858.71 L 1058.93 856.72 L 1060.28 854.72 L 1061.62 852.72 L 1062.98 850.75 L 1064.33 848.77 L 1065.74 846.79 L 1067.12 844.82 L 1068.52 842.88 L 1069.92 840.98 L 1071.32 839.07 L 1072.73 837.19 L 1074.12 835.31 L 1075.50 833.44 L 1076.87 831.61 L 1078.21 829.76 L 1079.51 827.91 L 1080.80 826.05 L 1082.10 824.18 L 1083.40 822.32 L 1084.67 820.45 L 1085.95 818.56 L 1087.21 816.66 L 1088.45 814.78 L 1089.66 812.91 L 1090.86 811.02 L 1092.04 809.14 L 1093.22 807.25 L 1094.38 805.39 L 1095.51 803.54 L 1096.64 801.70 L 1097.75 799.86 L 1098.85 798.03 L 1099.96 796.21 L 1101.06 794.39" stroke="rgb(140,255,190)" stroke-opacity="0.736" stroke-width="1.18" />
  <path d="M 999.97 929.14 L 999.83 925.85 L 999.78 922.55 L 999.69 919.26 L 999.61 915.99 L 999.52 912.72 L 999.52 909.47 L 999.45 906.21 L 999.35 902.98 L 999.26 899.76 L 999.24 896.55 L 999.21 893.39 L 999.20 890.22 L 999.21 887.07 L 999.21 883.93 L 999.21 880.80 L 999.15 877.68 L 999.06 874.58 L 998.97 871.49 L 998.90 868.40 L 998.87 865.32 L 998.83 862.24 L 998.79 859.19 L 998.71 856.13 L 998.63 853.09 L 998.52 850.07 L 998.42 847.06 L 998.24 844.06 L 998.10 841.07 L 997.90 838.10 L 997.76 835.11 L 997.62 832.14 L 997.51 829.18" stroke="rgb(140,255,190)" stroke-opacity="0.735" stroke-width="1.18" />
  <path d="M 995.57 998.81 L 995.69 995.38 L 995.83 991.97 L 995.97 988.58 L 996.15 985.21 L 996.34 981.86 L 996.48 978.52 L 996.61 975.18 L 996.75 971.86 L 996.92 968.54 L 997.08 965.24 L 997.28 961.95 L 997.55 958.68 L 997.84 955.42 L 998.11 952.17 L 998.39 948.94 L 998.64 945.71 L 998.90 942.49 L 999.16 939.28 L 999.40 936.09 L 999.64 932.90 L 999.86 929.73 L 1000.01 926.57 L 1000.15 923.42 L 1000.27 920.28 L 1000.41 917.16 L 1000.57 914.05 L 1000.72 910.96 L 1000.88 907.88 L 1001.04 904.81 L 1001.24 901.76 L 1001.43 898.72 L 1001.62 895.69 L 1001.81 892.67 L 1001.98 889.66 L 1002.16 886.66 L 1002.30 883.68 L 1002.41 880.71 L 1002.53 877.76 L 1002.66 874.81 L 1002.79 871.88 L 1002.93 868.95 L 1003.06 866.05 L 1003.16 863.16 L 1003.27 860.27 L 1003.37 857.40 L 1003.49 854.54 L 1003.61 851.69 L 1003.65 848.85 L 1003.69 846.02 L 1003.73 843.20 L 1003.77 840.40 L 1003.80 837.61 L 1003.88 834.82 L 1003.94 832.05 L 1003.94 829.28 L 1003.95 826.52 L 1003.96 823.78 L 1003.96 821.04 L 1003.97 818.32 L 1003.99 815.60 L 1004.01 812.90 L 1004.05 810.20 L 1004.08 807.52 L 1004.07 804.85 L 1004.03 802.19 L 1003.99 799.54 L 1003.94 796.90 L 1003.89 794.27 L 1003.83 791.65 L 1003.78 789.03 L 1003.73 786.43 L 1003.69 783.83 L 1003.62 781.25 L 1003.55 778.68 L 1003.49 776.11 L 1003.42 773.56 L 1003.30 771.02 L 1003.19 768.50 L 1003.08 765.99 L 1002.95 763.48 L 1002.84 760.98 L 1002.72 758.49 L 1002.58 756.02 L 1002.45 753.55 L 1002.35 751.09 L 1002.27 748.65" stroke="rgb(140,255,190)" stroke-opacity="0.735" stroke-width="1.18" />
  <path d="M 1015.76 877.11 L 1016.26 873.85 L 1016.83 870.62 L 1017.41 867.40 L 1017.97 864.19 L 1018.49 860.96 L 1018.99 857.74 L 1019.46 854.52 L 1019.86 851.29 L 1020.27 848.08 L 1020.67 844.88 L 1021.08 841.69 L 1021.52 838.51 L 1022.06 835.38 L 1022.57 832.27 L 1023.02 829.18 L 1023.48 826.11 L 1024.01 823.06 L 1024.54 820.02 L 1025.11 817.01 L 1025.62 814.01 L 1026.12 811.02 L 1026.62 808.04 L 1027.11 805.06 L 1027.59 802.08 L 1028.08 799.12 L 1028.56 796.17 L 1029.00 793.23 L 1029.39 790.27 L 1029.74 787.30 L 1030.12 784.35 L 1030.53 781.42 L 1030.97 778.51 L 1031.44 775.64 L 1031.92 772.77 L 1032.44 769.92 L 1032.96 767.07 L 1033.46 764.24 L 1034.00 761.42 L 1034.53 758.61 L 1035.05 755.80 L 1035.56 753.00 L 1036.10 750.21 L 1036.64 747.44 L 1037.19 744.69 L 1037.74 741.95 L 1038.33 739.22 L 1038.95 736.50 L 1039.58 733.79 L 1040.20 731.09 L 1040.82 728.39 L 1041.44 725.71 L 1042.03 723.03 L 1042.63 720.35 L 1043.22 717.68 L 1043.82 715.01 L 1044.40 712.36 L 1044.99 709.72 L 1045.61 707.09 L 1046.28 704.49 L 1046.92 701.90 L 1047.55 699.31 L 1048.16 696.72 L 1048.76 694.15" stroke="rgb(140,255,190)" stroke-opacity="0.734" stroke-width="1.18" />
  <path d="M 1002.62 1001.65 L 1002.56 998.22 L 1002.50 994.81 L 1002.45 991.41 L 1002.42 988.02 L 1002.42 984.65 L 1002.45 981.29 L 1002.54 977.95 L 1002.65 974.62 L 1002.76 971.31 L 1002.85 968.01 L 1002.91 964.73 L 1003.00 961.45 L 1003.11 958.20 L 1003.16 954.95 L 1003.20 951.71 L 1003.27 948.49 L 1003.32 945.27 L 1003.39 942.08 L 1003.47 938.89 L 1003.54 935.72 L 1003.64 932.56 L 1003.74 929.41 L 1003.83 926.27 L 1003.89 923.15 L 1004.02 920.04 L 1004.14 916.95 L 1004.26 913.87 L 1004.39 910.81 L 1004.52 907.76 L 1004.65 904.72 L 1004.75 901.69 L 1004.89 898.68" stroke="rgb(140,255,190)" stroke-opacity="0.734" stroke-width="1.18" />
  <path d="M 998.79 996.59 L 998.37 993.14 L 997.96 989.69 L 997.57 986.26 L 997.19 982.84 L 996.76 979.44 L 996.36 976.05 L 995.96 972.67 L 995.57 969.31 L 995.17 965.96 L 994.76 962.63 L 994.36 959.31 L 993.96 956.00 L 993.55 952.71 L 993.14 949.43 L 992.73 946.17 L 992.30 942.92 L 991.90 939.69 L 991.51 936.46 L 991.14 933.25 L 990.77 930.05 L 990.40 926.86 L 990.04 923.68 L 989.67 920.52 L 989.32 917.37 L 988.96 914.23 L 988.62 911.09 L 988.29 907.98 L 987.95 904.87 L 987.64 901.78 L 987.34 898.70 L 987.05 895.62 L 986.80 892.56 L 986.56 889.50 L 986.35 886.46 L 986.14 883.43" stroke="rgb(140,255,190)" stroke-opacity="0.733" stroke-width="1.18" />
  <path d="M 1001.98 953.06 L 1002.37 949.79 L 1002.76 946.53 L 1003.16 943.29 L 1003.51 940.07 L 1003.83 936.84 L 1004.18 933.62 L 1004.49 930.41 L 1004.75 927.21 L 1005.02 924.03 L 1005.25 920.85 L 1005.48 917.68 L 1005.62 914.51 L 1005.77 911.35 L 1005.92 908.21 L 1006.07 905.09 L 1006.22 901.98 L 1006.35 898.88 L 1006.49 895.81 L 1006.59 892.75 L 1006.69 889.70 L 1006.79 886.64 L 1006.90 883.60 L 1007.04 880.55 L 1007.22 877.52 L 1007.40 874.50 L 1007.62 871.49 L 1007.89 868.49 L 1008.17 865.50" stroke="rgb(140,255,190)" stroke-opacity="0.732" stroke-width="1.17" />
  <path d="M 1002.86 926.52 L 1001.67 923.61 L 1000.48 920.71 L 999.30 917.83 L 998.15 914.93 L 997.01 912.03 L 995.86 909.14 L 994.71 906.26 L 993.50 903.40 L 992.32 900.54 L 991.14 897.69 L 990.02 894.82 L 988.91 891.97 L 987.79 889.12 L 986.71 886.29 L 985.57 883.49 L 984.47 880.70 L 983.30 877.97 L 982.15 875.21 L 981.07 872.46 L 979.98 869.74 L 978.90 867.02 L 977.81 864.32 L 976.74 861.63 L 975.60 858.97 L 974.47 856.33 L 973.33 853.70 L 972.21 851.08 L 971.13 848.46 L 970.05 845.85 L 969.07 843.24 L 968.10 840.63 L 967.10 838.01" stroke="rgb(140,255,190)" stroke-opacity="0.732" stroke-width="1.17" />
  <path d="M 1006.08 948.96 L 1007.02 947.30 L 1007.98 945.67 L 1008.96 944.06 L 1009.94 942.46 L 1010.91 941.00 L 1011.86 939.54 L 1012.82 938.08 L 1013.78 936.57 L 1014.74 935.07 L 1015.61 933.49 L 1016.48 931.91 L 1017.31 930.28 L 1018.17 928.67 L 1019.03 927.06 L 1019.93 925.53 L 1020.81 924.02 L 1021.69 922.54 L 1022.55 921.07 L 1023.40 919.59 L 1024.35 918.19" stroke="rgb(140,255,190)" stroke-opacity="0.547" stroke-width="1.17" />
  <path d="M 998.00 936.28 L 998.87 935.39 L 999.61 934.44 L 1000.35 933.45 L 1001.07 932.61 L 1001.79 931.81 L 1002.41 931.14 L 1002.98 930.55 L 1003.67 929.94 L 1004.32 929.39 L 1005.07 928.94 L 1005.83 928.49 L 1006.61 928.02 L 1007.41 927.55 L 1008.21 927.05 L 1008.95 926.61 L 1009.62 926.16 L 1010.30 925.74 L 1010.95 925.30 L 1011.60 924.87 L 1012.22 924.49 L 1012.84 924.11 L 1013.45 923.72 L 1014.06 923.35 L 1014.61 922.94 L 1015.09 922.54 L 1015.57 922.15 L 1016.01 921.73 L 1016.48 921.35 L 1016.92 920.94 L 1017.35 920.53 L 1017.68 920.11 L 1018.02 919.70 L 1018.39 919.23 L 1018.69 918.74 L 1018.99 918.24 L 1019.32 917.78 L 1019.59 917.32 L 1019.82 916.84 L 1020.16 916.35 L 1020.55 915.81 L 1020.98 915.30 L 1021.39 914.85 L 1021.79 914.39 L 1022.28 913.97 L 1022.89 913.52 L 1023.42 913.05 L 1023.92 912.67 L 1024.47 912.25 L 1025.00 911.80 L 1025.54 911.42 L 1026.08 911.02 L 1026.57 910.56 L 1027.12 910.13 L 1027.64 909.70 L 1028.21 909.22" stroke="rgb(205,165,255)" stroke-opacity="0.484" stroke-width="1.17" />
  <path d="M 998.94 1001.61 L 998.84 998.23 L 998.73 994.87 L 998.60 991.52 L 998.48 988.18 L 998.35 984.86 L 998.22 981.55 L 998.17 978.25 L 998.17 974.96 L 998.20 971.69 L 998.22 968.43 L 998.20 965.18 L 998.19 961.95 L 998.18 958.73 L 998.20 955.52 L 998.27 952.32 L 998.34 949.14 L 998.37 945.97 L 998.43 942.81 L 998.48 939.67 L 998.45 936.54 L 998.42 933.42 L 998.38 930.31 L 998.34 927.22 L 998.22 924.14 L 998.12 921.07 L 998.02 918.02 L 997.92 914.98 L 997.80 911.95 L 997.65 908.93 L 997.47 905.94 L 997.30 902.95 L 997.13 899.97 L 996.97 897.02 L 996.79 894.08 L 996.60 891.15 L 996.42 888.23 L 996.21 885.32 L 996.03 882.44 L 995.83 879.57 L 995.66 876.70 L 995.46 873.85 L 995.27 871.01 L 995.09 868.19 L 994.98 865.38 L 994.89 862.58" stroke="rgb(140,255,190)" stroke-opacity="0.728" stroke-width="1.16" />
  <path d="M 1012.63 969.52 L 1012.61 967.13 L 1012.50 964.77 L 1012.47 962.42 L 1012.32 960.11 L 1012.17 957.79 L 1011.95 955.46 L 1011.61 953.07 L 1011.27 950.70 L 1010.93 948.36 L 1010.56 946.04 L 1010.20 943.76 L 1009.87 941.49 L 1009.54 939.21 L 1009.23 936.93 L 1008.92 934.66 L 1008.46 932.44 L 1008.01 930.24 L 1007.56 928.06 L 1007.06 925.88 L 1006.55 923.77 L 1006.01 921.67 L 1005.48 919.58 L 1004.91 917.49 L 1004.38 915.44 L 1003.85 913.42" stroke="rgb(205,165,255)" stroke-opacity="0.482" stroke-width="1.16" />
  <path d="M 995.83 957.34 L 996.68 954.23 L 997.51 951.15 L 998.38 948.10 L 999.18 945.03 L 1000.02 941.97 L 1000.83 938.92 L 1001.64 935.88 L 1002.41 932.84 L 1003.23 929.82 L 1004.05 926.82 L 1004.82 923.82 L 1005.51 920.81 L 1006.20 917.80 L 1006.91 914.81 L 1007.61 911.83 L 1008.33 908.87 L 1009.06 905.92 L 1009.78 902.98 L 1010.46 900.06 L 1011.13 897.14 L 1011.79 894.24 L 1012.45 891.35 L 1013.15 888.48 L 1013.82 885.62 L 1014.49 882.77 L 1015.12 879.93 L 1015.76 877.11 L 1016.46 874.32 L 1017.16 871.54 L 1017.83 868.77 L 1018.41 865.98 L 1018.95 863.21 L 1019.56 860.46 L 1020.19 857.72 L 1020.68 854.97 L 1021.19 852.23 L 1021.75 849.52 L 1022.40 846.85 L 1023.13 844.20 L 1023.87 841.57 L 1024.60 838.95 L 1025.32 836.35 L 1026.06 833.76" stroke="rgb(140,255,190)" stroke-opacity="0.725" stroke-width="1.16" />
  <path d="M 999.00 999.04 L 1001.65 997.99 L 1004.30 996.97 L 1006.92 995.91 L 1009.52 994.83 L 1012.11 993.79 L 1014.69 992.76 L 1017.25 991.73 L 1019.81 990.65 L 1022.35 989.58 L 1024.93 988.55 L 1027.53 987.63 L 1030.11 986.71 L 1032.71 985.80 L 1035.30 984.95 L 1037.88 984.11 L 1040.45 983.29 L 1043.01 982.44 L 1045.56 981.59 L 1048.11 980.78 L 1050.64 979.98 L 1053.15 979.08 L 1055.62 978.16 L 1058.07 977.19 L 1060.50 976.21 L 1062.92 975.24 L 1065.34 974.30 L 1067.75 973.32 L 1070.15 972.34 L 1072.55 971.40 L 1074.93 970.40 L 1077.30 969.42 L 1079.63 968.35 L 1081.97 967.36 L 1084.34 966.41 L 1086.69 965.45 L 1089.04 964.51 L 1091.35 963.54 L 1093.66 962.58 L 1095.97 961.64 L 1098.24 960.68 L 1100.52 959.75 L 1102.80 958.83 L 1105.07 957.93 L 1107.34 957.05 L 1109.60 956.14 L 1111.85 955.26 L 1114.12 954.46" stroke="rgb(205,165,255)" stroke-opacity="0.481" stroke-width="1.16" />
  <path d="M 1008.46 932.44 L 1007.54 930.97 L 1006.54 929.45 L 1005.58 927.91 L 1004.64 926.39 L 1003.77 924.84 L 1002.95 923.29 L 1002.31 921.60 L 1001.75 919.79 L 1001.16 917.93 L 1000.65 916.20 L 1000.27 914.51 L 999.88 912.81 L 999.51 911.16 L 999.12 909.53 L 998.82 907.85 L 998.50 906.13 L 998.37 904.38 L 998.29 902.64 L 998.27 900.96 L 998.22 899.31 L 998.17 897.64 L 998.05 895.92 L 997.95 894.18 L 997.89 892.57 L 997.81 890.96" stroke="rgb(205,165,255)" stroke-opacity="0.480" stroke-width="1.15" />
  <path d="M 999.34 998.29 L 1000.64 1000.76 L 1002.08 1003.15 L 1003.45 1005.55 L 1004.80 1007.94 L 1006.17 1010.33 L 1007.54 1012.71 L 1008.89 1015.08 L 1010.28 1017.43 L 1011.67 1019.77 L 1013.06 1022.09 L 1014.45 1024.40 L 1015.82 1026.72 L 1017.22 1029.00 L 1018.67 1031.25 L 1020.14 1033.46 L 1021.61 1035.66 L 1022.97 1037.91 L 1024.42 1040.11 L 1025.81 1042.32 L 1027.21 1044.52 L 1028.60 1046.71 L 1030.00 1048.88 L 1031.40 1051.04 L 1032.79 1053.20 L 1034.20 1055.34 L 1035.60 1057.46 L 1037.03 1059.56 L 1038.44 1061.66" stroke="rgb(205,165,255)" stroke-opacity="0.480" stroke-width="1.15" />
  <path d="M 1003.97 1004.31 L 1003.99 1001.88 L 1003.86 999.46 L 1003.78 997.05 L 1003.69 994.66 L 1003.66 992.26 L 1003.61 989.88 L 1003.54 987.51 L 1003.42 985.15 L 1003.29 982.80 L 1003.11 980.46 L 1002.94 978.13 L 1002.81 975.81 L 1002.72 973.50 L 1002.63 971.19 L 1002.68 968.89 L 1002.69 966.60 L 1002.62 964.32 L 1002.54 962.05 L 1002.39 959.79 L 1002.24 957.54 L 1002.13 955.30 L 1001.98 953.06 L 1001.84 950.84 L 1001.58 948.64 L 1001.32 946.44 L 1001.15 944.25 L 1001.09 942.06 L 1000.95 939.88 L 1000.82 937.71 L 1000.62 935.55 L 1000.40 933.41 L 1000.18 931.27 L 999.97 929.14 L 999.77 927.02 L 999.62 924.90 L 999.47 922.80 L 999.31 920.70 L 999.21 918.60 L 999.14 916.52 L 999.14 914.44" stroke="rgb(140,255,190)" stroke-opacity="0.541" stroke-width="1.15" />
  <path d="M 999.69 999.15 L 999.59 995.98 L 999.50 992.82 L 999.47 989.67 L 999.46 986.54 L 999.44 983.41 L 999.47 980.30 L 999.57 977.21 L 999.66 974.13 L 999.75 971.05 L 999.92 968.00 L 1000.09 964.95 L 1000.26 961.92 L 1000.45 958.90 L 1000.68 955.90 L 1000.91 952.91 L 1001.16 949.93 L 1001.42 946.97 L 1001.62 944.01 L 1001.82 941.07 L 1002.06 938.13 L 1002.29 935.21 L 1002.53 932.31 L 1002.73 929.41 L 1002.86 926.52 L 1003.01 923.64 L 1003.15 920.78 L 1003.33 917.93 L 1003.46 915.09 L 1003.65 912.26 L 1003.86 909.45 L 1004.05 906.66 L 1004.26 903.87 L 1004.52 901.10 L 1004.76 898.33 L 1004.96 895.57 L 1005.18 892.83 L 1005.43 890.10 L 1005.72 887.38 L 1006.03 884.67 L 1006.31 881.97 L 1006.56 879.28 L 1006.86 876.61 L 1007.18 873.94 L 1007.45 871.29 L 1007.73 868.64 L 1007.99 866.01 L 1008.22 863.38 L 1008.43 860.76 L 1008.65 858.15 L 1008.88 855.55 L 1009.05 852.96 L 1009.22 850.38" stroke="rgb(140,255,190)" stroke-opacity="0.721" stroke-width="1.15" />
  <path d="M 993.14 949.43 L 993.77 946.26 L 994.39 943.10 L 995.12 939.97 L 995.84 936.86 L 996.57 933.76 L 997.35 930.68 L 998.12 927.61 L 998.90 924.55 L 999.68 921.51 L 1000.45 918.48 L 1001.23 915.46 L 1002.00 912.46 L 1002.81 909.48 L 1003.60 906.51 L 1004.42 903.56 L 1005.17 900.60 L 1005.92 897.64 L 1006.66 894.70 L 1007.40 891.77 L 1008.10 888.84 L 1008.81 885.92 L 1009.55 883.04 L 1010.26 880.15 L 1010.97 877.28 L 1011.70 874.43 L 1012.41 871.57 L 1013.13 868.73 L 1013.84 865.90 L 1014.46 863.05 L 1015.08 860.22 L 1015.75 857.40 L 1016.47 854.61 L 1017.14 851.82 L 1017.80 849.04 L 1018.47 846.28 L 1019.15 843.52 L 1019.77 840.77 L 1020.40 838.03 L 1021.01 835.29 L 1021.62 832.57 L 1022.25 829.86" stroke="rgb(140,255,190)" stroke-opacity="0.719" stroke-width="1.14" />
  <path d="M 997.99 999.60 L 997.91 996.47 L 997.83 993.35 L 997.76 990.24 L 997.78 987.14 L 997.81 984.06 L 997.73 980.99 L 997.66 977.93 L 997.61 974.89 L 997.52 971.86 L 997.43 968.83 L 997.35 965.82 L 997.22 962.83 L 997.09 959.85 L 996.92 956.88 L 996.70 953.93 L 996.47 950.99 L 996.23 948.06 L 996.10 945.14 L 995.98 942.23 L 995.85 939.34 L 995.72 936.45 L 995.59 933.58 L 995.49 930.71 L 995.32 927.86 L 995.19 925.02 L 995.11 922.19 L 994.97 919.37 L 994.84 916.56 L 994.66 913.76 L 994.48 910.98 L 994.27 908.20 L 994.09 905.44 L 993.91 902.69 L 993.73 899.95 L 993.62 897.21 L 993.52 894.49 L 993.45 891.78 L 993.36 889.08 L 993.26 886.39 L 993.20 883.71 L 993.14 881.04 L 993.11 878.38 L 993.03 875.73" stroke="rgb(140,255,190)" stroke-opacity="0.719" stroke-width="1.14" />
  <path d="M 942.45 776.95 L 942.10 774.09 L 941.74 771.24 L 941.48 768.43 L 941.23 765.61 L 940.98 762.81 L 940.74 759.95 L 940.51 757.10 L 940.31 754.24 L 940.13 751.37 L 939.92 748.51" stroke="rgb(140,255,190)" stroke-opacity="0.718" stroke-width="1.14" />
  <path d="M 1020.83 891.00 L 1022.39 888.21 L 1023.94 885.44 L 1025.49 882.69 L 1027.03 879.95 L 1028.50 877.19 L 1029.95 874.44 L 1031.40 871.70 L 1032.89 869.04 L 1034.45 866.44 L 1036.01 863.85 L 1037.59 861.28 L 1039.17 858.74 L 1040.76 856.21 L 1042.29 853.65 L 1043.82 851.11 L 1045.26 848.52 L 1046.75 845.98 L 1048.36 843.57 L 1049.97 841.16 L 1051.57 838.76 L 1053.18 836.38 L 1054.83 834.02 L 1056.52 831.68 L 1058.25 829.40 L 1059.97 827.12 L 1061.68 824.86 L 1063.37 822.59 L 1065.08 820.35 L 1066.81 818.14 L 1068.53 815.92 L 1070.20 813.69 L 1071.88 811.47 L 1073.57 809.27 L 1075.25 807.08 L 1076.93 804.89 L 1078.67 802.76 L 1080.39 800.65 L 1082.08 798.53 L 1083.77 796.44 L 1085.40 794.31 L 1087.00 792.21 L 1088.61 790.12 L 1090.23 788.04 L 1091.81 785.95 L 1093.38 783.84 L 1094.92 781.73 L 1096.49 779.66 L 1098.10 777.60 L 1099.69 775.51 L 1101.36 773.50 L 1102.98 771.48 L 1104.65 769.47 L 1106.35 767.51 L 1108.09 765.57 L 1109.80 763.63 L 1111.45 761.67 L 1113.16 759.77 L 1114.84 757.88 L 1116.49 755.98 L 1118.13 754.10 L 1119.77 752.24 L 1121.42 750.36 L 1123.02 748.45 L 1124.65 746.57 L 1126.28 744.68 L 1127.91 742.80 L 1129.51 740.92 L 1131.09 739.04 L 1132.72 737.21 L 1134.32 735.38 L 1135.85 733.52" stroke="rgb(140,255,190)" stroke-opacity="0.718" stroke-width="1.14" />
  <path d="M 1003.27 948.49 L 1004.17 945.52 L 1005.08 942.56 L 1005.95 939.61 L 1006.79 936.64 L 1007.66 933.70 L 1008.51 930.77 L 1009.37 927.84 L 1010.31 924.95 L 1011.21 922.06 L 1012.11 919.18 L 1013.03 916.32 L 1013.97 913.48 L 1014.88 910.64 L 1015.71 907.79 L 1016.54 904.96 L 1017.38 902.13 L 1018.26 899.34 L 1019.14 896.56 L 1019.99 893.77 L 1020.83 891.00 L 1021.69 888.24 L 1022.53 885.49 L 1023.35 882.76 L 1024.12 880.03 L 1024.89 877.32 L 1025.67 874.61 L 1026.33 871.89 L 1027.01 869.17 L 1027.69 866.48 L 1028.30 863.78 L 1028.93 861.09 L 1029.53 858.40 L 1030.14 855.73 L 1030.77 853.06 L 1031.38 850.41 L 1031.97 847.76 L 1032.61 845.13 L 1033.27 842.52 L 1033.92 839.92 L 1034.50 837.32 L 1035.06 834.72" stroke="rgb(140,255,190)" stroke-opacity="0.717" stroke-width="1.14" />
  <path d="M 995.68 965.80 L 995.35 962.81 L 994.91 959.84 L 994.46 956.89 L 994.01 953.94 L 993.52 951.04 L 993.04 948.15 L 992.57 945.27 L 992.07 942.42 L 991.56 939.58 L 991.06 936.75 L 990.58 933.96 L 990.10 931.18 L 989.61 928.42 L 989.12 925.69 L 988.61 922.97 L 988.06 920.26 L 987.56 917.55 L 987.04 914.85 L 986.50 912.16 L 985.91 909.53 L 985.29 906.88 L 984.64 904.25 L 983.86 901.63 L 983.08 899.06 L 982.27 896.52 L 981.48 894.01 L 980.72 891.48 L 980.00 888.95 L 979.28 886.44 L 978.58 883.92 L 977.92 881.36 L 977.27 878.80 L 976.57 876.26 L 975.91 873.71 L 975.25 871.17 L 974.58 868.65 L 973.90 866.15 L 973.22 863.67 L 972.54 861.20 L 971.82 858.75 L 971.08 856.30 L 970.34 853.85 L 969.57 851.42 L 968.72 849.04 L 967.88 846.65 L 967.04 844.25 L 966.28 841.83 L 965.46 839.45 L 964.64 837.08 L 963.80 834.74 L 962.94 832.41 L 962.09 830.09 L 961.32 827.76 L 960.57 825.45 L 959.80 823.14 L 959.05 820.84 L 958.30 818.57 L 957.58 816.29 L 956.80 814.08 L 956.01 811.87 L 955.29 809.69 L 954.57 807.51 L 953.69 805.41 L 952.80 803.32 L 951.96 801.25 L 951.16 799.19 L 950.37 797.13 L 949.56 795.08 L 948.76 793.03 L 947.96 791.00 L 947.18 788.99 L 946.36 786.98 L 945.54 784.98 L 944.74 782.97 L 943.97 780.96 L 943.21 778.97 L 942.45 776.95 L 941.70 774.94 L 940.97 772.91 L 940.23 770.88 L 939.47 768.86" stroke="rgb(140,255,190)" stroke-opacity="0.715" stroke-width="1.13" />
  <path d="M 999.55 1000.81 L 998.93 998.17 L 998.33 995.53 L 997.78 992.90 L 997.22 990.29 L 996.71 987.67 L 996.12 985.08 L 995.49 982.52 L 994.89 979.96 L 994.28 977.42 L 993.72 974.88 L 993.16 972.34 L 992.51 969.84 L 991.90 967.35 L 991.31 964.86 L 990.75 962.38 L 990.18 959.91 L 989.59 957.46 L 989.00 955.03 L 988.41 952.60 L 987.84 950.17 L 987.28 947.76 L 986.75 945.36 L 986.31 942.97 L 985.89 940.59 L 985.40 938.21 L 984.90 935.84 L 984.44 933.47 L 984.01 931.10 L 983.54 928.74 L 983.07 926.39 L 982.57 924.05 L 981.99 921.74 L 981.43 919.43 L 980.90 917.13 L 980.38 914.84 L 979.83 912.56 L 979.27 910.28" stroke="rgb(205,165,255)" stroke-opacity="0.473" stroke-width="1.13" />
  <path d="M 1000.38 1001.23 L 1000.26 998.19 L 1000.11 995.17 L 999.99 992.15 L 999.75 989.15 L 999.43 986.17 L 999.10 983.20 L 998.76 980.25 L 998.40 977.31 L 998.03 974.38 L 997.66 971.46 L 997.26 968.56 L 996.86 965.67 L 996.48 962.79 L 996.08 959.93 L 995.71 957.07 L 995.32 954.24 L 994.97 951.40 L 994.66 948.57 L 994.39 945.75 L 994.16 942.93 L 993.94 940.13 L 993.77 937.33 L 993.64 934.54 L 993.49 931.77 L 993.29 929.00 L 993.00 926.26 L 992.71 923.53 L 992.45 920.80 L 992.22 918.09 L 991.94 915.39 L 991.67 912.70 L 991.40 910.02 L 991.15 907.35 L 990.89 904.70 L 990.61 902.05 L 990.29 899.43 L 990.01 896.82 L 989.72 894.21 L 989.40 891.62 L 989.05 889.05 L 988.74 886.48 L 988.44 883.92 L 988.12 881.38 L 987.79 878.85 L 987.43 876.34 L 987.11 873.83 L 986.79 871.33 L 986.47 868.84 L 986.17 866.37 L 985.87 863.90 L 985.61 861.43 L 985.36 858.97 L 985.11 856.52 L 984.84 854.07 L 984.64 851.64 L 984.39 849.22" stroke="rgb(140,255,190)" stroke-opacity="0.535" stroke-width="1.13" />
  <path d="M 1002.73 929.41 L 1003.84 926.62" stroke="rgb(140,255,190)" stroke-opacity="0.535" stroke-width="1.13" />
  <path d="M 1023.87 841.57 L 1023.53 838.58 L 1023.25 835.60 L 1022.99 832.60 L 1022.71 829.64 L 1022.46 826.71 L 1022.22 823.79 L 1021.85 820.93 L 1021.53 818.09 L 1021.21 815.27 L 1020.88 812.48 L 1020.49 809.68 L 1020.06 806.90 L 1019.69 804.14 L 1019.26 801.38 L 1018.90 798.61 L 1018.49 795.87 L 1018.02 793.18 L 1017.56 790.49 L 1017.08 787.86 L 1016.60 785.24 L 1016.24 782.66 L 1015.90 780.07 L 1015.56 777.50 L 1015.13 774.96 L 1014.71 772.43 L 1014.25 769.93 L 1013.79 767.43 L 1013.32 764.92 L 1012.90 762.41 L 1012.50 759.89 L 1012.09 757.40 L 1011.62 754.92 L 1011.19 752.48 L 1010.80 750.04 L 1010.48 747.56 L 1010.17 745.09 L 1009.85 742.63 L 1009.63 740.17 L 1009.31 737.71 L 1009.07 735.28 L 1008.81 732.86 L 1008.51 730.50 L 1008.19 728.16 L 1007.85 725.86 L 1007.54 723.57 L 1007.25 721.28 L 1006.93 719.00 L 1006.63 716.72 L 1006.27 714.45 L 1005.74 712.25 L 1005.07 710.03 L 1004.36 707.85 L 1003.74 705.71 L 1003.15 703.58 L 1002.59 701.42 L 1002.08 699.25 L 1001.58 697.09 L 1001.08 694.92 L 1000.48 692.80 L 999.85 690.70" stroke="rgb(140,255,190)" stroke-opacity="0.533" stroke-width="1.12" />
  <path d="M 989.67 920.52 L 989.29 917.78 L 988.89 915.05 L 988.49 912.34 L 988.01 909.62 L 987.54 906.91 L 987.09 904.20 L 986.74 901.48 L 986.40 898.78 L 986.01 896.12 L 985.65 893.51 L 985.29 890.90 L 984.93 888.28 L 984.61 885.71 L 984.21 883.14 L 983.81 880.58 L 983.39 878.02 L 982.91 875.50 L 982.46 873.03 L 981.99 870.57 L 981.51 868.12 L 981.00 865.70 L 980.51 863.28 L 980.00 860.89 L 979.48 858.55 L 978.83 856.25 L 978.21 853.95 L 977.63 851.66 L 977.01 849.38 L 976.49 847.14 L 975.93 844.94 L 975.38 842.73 L 974.86 840.51 L 974.31 838.33 L 973.72 836.16 L 972.93 834.06 L 972.09 832.01 L 971.21 829.99 L 970.33 827.97 L 969.43 825.99 L 968.48 824.06 L 967.57 822.10 L 966.64 820.17 L 965.70 818.27 L 964.69 816.37 L 963.68 814.50 L 962.65 812.62 L 961.62 810.77 L 960.60 808.93 L 959.57 807.10 L 958.55 805.27 L 957.49 803.48" stroke="rgb(140,255,190)" stroke-opacity="0.533" stroke-width="1.12" />
  <path d="M 992.33 936.66 L 992.86 934.15 L 993.26 931.64 L 993.75 929.16 L 994.23 926.69 L 994.76 924.24 L 995.24 921.80 L 995.77 919.39 L 996.28 916.98 L 996.83 914.59 L 997.39 912.21 L 997.97 909.84 L 998.52 907.49 L 999.00 905.12 L 999.47 902.76 L 999.85 900.39 L 1000.18 898.02 L 1000.51 895.68 L 1000.86 893.35 L 1001.24 891.03" stroke="rgb(140,255,190)" stroke-opacity="0.532" stroke-width="1.12" />
  <path d="M 1000.22 996.60 L 1000.11 993.55 L 999.99 990.51 L 999.86 987.49 L 999.71 984.47 L 999.46 981.48 L 999.08 978.51 L 998.71 975.55 L 998.38 972.59" stroke="rgb(140,255,190)" stroke-opacity="0.532" stroke-width="1.12" />
  <path d="M 998.19 961.95 L 999.48 959.32 L 1000.79 956.70 L 1002.05 954.08" stroke="rgb(140,255,190)" stroke-opacity="0.532" stroke-width="1.12" />
  <path d="M 998.99 1000.48 L 999.11 997.95 L 999.12 995.43 L 999.11 992.92 L 999.08 990.41 L 999.12 987.93 L 999.17 985.46 L 999.22 983.01 L 999.28 980.57 L 999.32 978.14 L 999.33 975.71 L 999.38 973.30 L 999.40 970.90 L 999.46 968.51 L 999.51 966.14 L 999.57 963.77 L 999.61 961.41 L 999.64 959.05 L 999.70 956.71 L 999.87 954.39 L 1000.00 952.08 L 1000.07 949.77 L 1000.15 947.47 L 1000.18 945.18 L 1000.25 942.90 L 1000.29 940.63 L 1000.27 938.36 L 1000.23 936.09 L 1000.16 933.83 L 1000.09 931.59 L 1000.02 929.34 L 999.96 927.11 L 999.86 924.89" stroke="rgb(140,255,190)" stroke-opacity="0.532" stroke-width="1.12" />
  <path d="M 1008.87 929.20 L 1007.72 927.44 L 1006.57 925.60 L 1005.39 923.81 L 1004.22 922.02 L 1003.10 920.36 L 1002.06 918.70 L 1001.00 917.02 L 999.97 915.33 L 998.98 913.65 L 997.94 911.98 L 996.90 910.32 L 995.88 908.66 L 994.86 907.01 L 993.82 905.36 L 992.75 903.73 L 991.68 902.11 L 990.61 900.51 L 989.58 898.88 L 988.52 897.35 L 987.47 895.83 L 986.42 894.30 L 985.38 892.77 L 984.34 891.25 L 983.32 889.81 L 982.27 888.37 L 981.24 886.89 L 980.23 885.43 L 979.27 883.93 L 978.31 882.44 L 977.29 880.92 L 976.19 879.42 L 975.10 877.94 L 974.04 876.49 L 973.04 875.08 L 972.06 873.66 L 971.06 872.24 L 970.07 870.90 L 969.03 869.53 L 967.99 868.15 L 966.94 866.84 L 965.87 865.60 L 964.82 864.38 L 963.74 863.14 L 962.65 861.91 L 961.58 860.70 L 960.52 859.49 L 959.45 858.30 L 958.37 857.15 L 957.30 855.99" stroke="rgb(140,255,190)" stroke-opacity="0.531" stroke-width="1.11" />
  <path d="M 992.93 939.18 L 991.96 936.35 L 990.98 933.55 L 989.94 930.80 L 988.94 928.02 L 987.96 925.26 L 986.96 922.52 L 985.98 919.80 L 984.93 917.12 L 983.91 914.44 L 982.88 911.79 L 981.82 909.11 L 980.69 906.48 L 979.62 903.83 L 978.53 901.20 L 977.52 898.53 L 976.50 895.87 L 975.49 893.22 L 974.47 890.61" stroke="rgb(140,255,190)" stroke-opacity="0.531" stroke-width="1.11" />
  <path d="M 1004.65 904.72 L 1005.62 901.98 L 1006.60 899.25 L 1007.61 896.52 L 1008.55 893.79 L 1009.52 891.11 L 1010.49 888.43 L 1011.43 885.77 L 1012.37 883.10 L 1013.32 880.51 L 1014.28 877.93 L 1015.25 875.37 L 1016.24 872.79 L 1017.30 870.25 L 1018.37 867.73 L 1019.48 865.25 L 1020.59 862.75 L 1021.68 860.28 L 1022.81 857.82 L 1024.01 855.39 L 1025.21 852.99 L 1026.44 850.61 L 1027.66 848.24 L 1028.85 845.88 L 1030.16 843.56 L 1031.47 841.27 L 1032.80 838.99 L 1034.08 836.70 L 1035.35 834.42 L 1036.65 832.15 L 1037.88 829.86 L 1039.11 827.60 L 1040.36 825.36 L 1041.60 823.12 L 1042.85 820.92 L 1044.10 818.73 L 1045.38 816.56 L 1046.51 814.31 L 1047.55 812.02 L 1048.61 809.75 L 1049.67 807.48 L 1050.81 805.26" stroke="rgb(140,255,190)" stroke-opacity="0.531" stroke-width="1.11" />
  <path d="M 983.14 848.09 L 981.61 845.74 L 980.11 843.37 L 978.65 841.00 L 977.16 838.65 L 975.75 836.27 L 974.36 833.88 L 972.93 831.52 L 971.55 829.16 L 970.21 826.78 L 968.80 824.45 L 967.38 822.14 L 965.87 819.91 L 964.39 817.70 L 962.89 815.52 L 961.37 813.38 L 959.86 811.24 L 958.31 809.13 L 956.81 807.00 L 955.34 804.88 L 953.79 802.84 L 952.24 800.82 L 950.68 798.80 L 949.16 796.77 L 947.68 794.74 L 946.22 792.74 L 944.77 790.74 L 943.31 788.76 L 941.86 786.77 L 940.49 784.75 L 939.14 782.73" stroke="rgb(140,255,190)" stroke-opacity="0.531" stroke-width="1.11" />
  <path d="M 988.62 911.09 L 987.41 908.28 L 986.16 905.49 L 984.93 902.71 L 983.71 899.95 L 982.47 897.20 L 981.21 894.47 L 979.97 891.76 L 978.69 889.10 L 977.38 886.46 L 976.09 883.82 L 974.78 881.21 L 973.45 878.61 L 972.14 876.02 L 970.89 873.41 L 969.70 870.80 L 968.52 868.20 L 967.41 865.60 L 966.30 863.01 L 965.19 860.45 L 964.02 857.92 L 962.87 855.40 L 961.84 852.82 L 960.82 850.26 L 959.83 847.69 L 958.85 845.13 L 957.88 842.57 L 956.90 840.03 L 955.94 837.51 L 954.98 835.00 L 954.05 832.49 L 953.04 830.02 L 952.07 827.53 L 951.11 825.06 L 950.17 822.59 L 949.21 820.13 L 948.35 817.67 L 947.54 815.20 L 946.59 812.78 L 945.66 810.37 L 944.68 807.98 L 943.70 805.60 L 942.74 803.23 L 941.78 800.87" stroke="rgb(140,255,190)" stroke-opacity="0.530" stroke-width="1.11" />
  <path d="M 997.83 1003.26 L 998.14 1000.24 L 998.43 997.22 L 998.68 994.22 L 998.92 991.23 L 999.17 988.25 L 999.47 985.29 L 999.77 982.35 L 1000.07 979.42 L 1000.35 976.49 L 1000.68 973.58 L 1000.98 970.68 L 1001.25 967.80 L 1001.55 964.93 L 1001.85 962.08 L 1002.19 959.26 L 1002.48 956.44 L 1002.82 953.65 L 1003.17 950.88 L 1003.53 948.12 L 1003.90 945.36 L 1004.28 942.62 L 1004.67 939.89 L 1005.08 937.16 L 1005.47 934.45 L 1005.84 931.74 L 1006.22 929.04 L 1006.61 926.36 L 1006.88 923.67 L 1007.23 921.00 L 1007.59 918.36 L 1007.95 915.72 L 1008.30 913.09 L 1008.59 910.46 L 1008.86 907.83 L 1009.16 905.23 L 1009.51 902.64 L 1009.83 900.06 L 1010.16 897.48 L 1010.48 894.92 L 1010.85 892.37 L 1011.24 889.86 L 1011.64 887.35 L 1012.08 884.85 L 1012.54 882.37 L 1013.02 879.91 L 1013.46 877.46 L 1013.86 875.03 L 1014.29 872.60 L 1014.74 870.20 L 1015.19 867.81 L 1015.63 865.43 L 1016.06 863.05 L 1016.47 860.69 L 1016.89 858.34 L 1017.35 856.00" stroke="rgb(140,255,190)" stroke-opacity="0.530" stroke-width="1.11" />
  <path d="M 1004.52 907.76 L 1003.72 905.11 L 1002.91 902.47 L 1002.11 899.84 L 1001.28 897.22 L 1000.46 894.62 L 999.63 892.03 L 998.90 889.42 L 998.17 886.83 L 997.46 884.23 L 996.77 881.65 L 996.01 879.10 L 995.14 876.59 L 994.10 874.16 L 992.99 871.77 L 991.87 869.40 L 990.79 867.03 L 989.73 864.65 L 988.71 862.28 L 987.71 859.91 L 986.74 857.54 L 985.78 855.18 L 984.81 852.83 L 983.94 850.46 L 983.14 848.09 L 982.30 845.72 L 981.47 843.37 L 980.60 841.04 L 979.83 838.70 L 978.90 836.42 L 977.98 834.16 L 977.04 831.91 L 976.11 829.68 L 975.25 827.43 L 974.43 825.16 L 973.62 822.90 L 972.77 820.66 L 972.07 818.37 L 971.38 816.10 L 970.68 813.83 L 969.97 811.58 L 969.28 809.34 L 968.62 807.10 L 967.93 804.89 L 967.29 802.66 L 966.66 800.44 L 966.04 798.23 L 965.39 796.02 L 964.74 793.83 L 964.09 791.64 L 963.43 789.46" stroke="rgb(140,255,190)" stroke-opacity="0.530" stroke-width="1.11" />
  <path d="M 1001.08 1000.07 L 1001.19 997.31 L 1001.31 994.57 L 1001.53 991.84 L 1001.69 989.11 L 1001.86 986.40 L 1002.04 983.70 L 1002.22 981.01 L 1002.39 978.33" stroke="rgb(140,255,190)" stroke-opacity="0.530" stroke-width="1.11" />
  <path d="M 1006.90 883.60 L 1007.46 880.85 L 1008.01 878.12 L 1008.63 875.39 L 1009.25 872.70 L 1009.84 870.03 L 1010.38 867.37 L 1010.91 864.71 L 1011.49 862.06 L 1012.06 859.43 L 1012.68 856.82 L 1013.24 854.27 L 1013.85 851.74 L 1014.46 849.23 L 1015.02 846.74 L 1015.71 844.23 L 1016.41 841.73 L 1017.14 839.25 L 1017.90 836.75 L 1018.65 834.27 L 1019.34 831.79 L 1020.00 829.33 L 1020.68 826.90 L 1021.34 824.45" stroke="rgb(140,255,190)" stroke-opacity="0.529" stroke-width="1.11" />
  <path d="M 1000.32 1004.65 L 1000.03 1001.85 L 999.75 999.05 L 999.50 996.27 L 999.29 993.49 L 999.09 990.72 L 998.91 987.95 L 998.66 985.21 L 998.39 982.48 L 998.05 979.77 L 997.73 977.07 L 997.41 974.38 L 996.97 971.72 L 996.54 969.06 L 996.11 966.42 L 995.69 963.78 L 995.27 961.16 L 994.85 958.55 L 994.35 955.96 L 993.86 953.39 L 993.35 950.83 L 992.92 948.26 L 992.50 945.70 L 992.18 943.14 L 991.80 940.61 L 991.37 938.10 L 990.95 935.60" stroke="rgb(140,255,190)" stroke-opacity="0.529" stroke-width="1.11" />
  <path d="M 1000.18 1000.33 L 999.88 997.59 L 999.58 994.87 L 999.26 992.16 L 999.08 989.45 L 998.94 986.75 L 998.80 984.06 L 998.65 981.39 L 998.50 978.72 L 998.34 976.07 L 998.24 973.42 L 998.10 970.79 L 997.95 968.17 L 997.81 965.57 L 997.67 962.97 L 997.57 960.38 L 997.50 957.80 L 997.38 955.23 L 997.25 952.68 L 997.09 950.15 L 996.95 947.63 L 996.69 945.13 L 996.54 942.64 L 996.40 940.16 L 996.31 937.69 L 996.25 935.22 L 996.23 932.74 L 996.20 930.26 L 996.18 927.80 L 996.19 925.35 L 996.30 922.92 L 996.43 920.50 L 996.49 918.07 L 996.53 915.65 L 996.55 913.25 L 996.61 910.85" stroke="rgb(140,255,190)" stroke-opacity="0.529" stroke-width="1.11" />
  <path d="M 990.07 894.86 L 989.06 892.55 L 988.05 890.25 L 987.09 887.91 L 986.08 885.60 L 985.07 883.30 L 984.08 881.01 L 983.21 878.70 L 982.27 876.41 L 981.32 874.12 L 980.33 871.83 L 979.47 869.48 L 978.60 867.16 L 977.67 864.76 L 976.75 862.36 L 975.89 860.00 L 974.96 857.66 L 973.96 855.38 L 972.84 853.13 L 971.72 850.89 L 970.62 848.65 L 969.56 846.36 L 968.63 844.09 L 967.70 841.82 L 966.86 839.53 L 966.01 837.23 L 965.12 834.95 L 964.18 832.73" stroke="rgb(140,255,190)" stroke-opacity="0.528" stroke-width="1.10" />
  <path d="M 999.56 999.17 L 999.62 997.44 L 999.67 995.73 L 999.74 994.06 L 999.84 992.38 L 1000.01 990.66 L 1000.18 988.87 L 1000.44 987.01 L 1000.68 985.21 L 1000.87 983.46 L 1001.06 981.72 L 1001.31 980.06 L 1001.55 978.47 L 1001.79 976.86 L 1002.01 975.26 L 1002.22 973.67 L 1002.43 972.12 L 1002.62 970.57 L 1002.82 969.09 L 1003.00 967.61 L 1003.18 966.14 L 1003.44 964.71 L 1003.78 963.33 L 1004.15 961.95 L 1004.43 960.52 L 1004.71 959.10 L 1004.95 957.63 L 1005.16 956.17 L 1005.37 954.71 L 1005.56 953.24 L 1005.77 951.79 L 1005.94 950.35 L 1006.08 948.96 L 1006.24 947.54 L 1006.38 946.14 L 1006.50 944.75 L 1006.63 943.40 L 1006.78 942.08 L 1006.92 940.76 L 1007.07 939.45 L 1007.24 938.31 L 1007.49 937.08 L 1007.77 935.87 L 1008.02 934.64 L 1008.19 933.54 L 1008.36 932.44 L 1008.55 931.35 L 1008.78 930.28 L 1008.87 929.20 L 1009.04 928.14 L 1009.19 927.11 L 1009.31 926.02" stroke="rgb(140,255,190)" stroke-opacity="0.527" stroke-width="1.10" />
  <path d="M 982.04 989.28 L 982.33 988.70 L 982.54 988.13 L 982.75 987.68 L 982.96 987.23 L 983.22 986.63" stroke="rgb(205,165,255)" stroke-opacity="0.467" stroke-width="1.10" />
  <path d="M 966.66 800.44 L 966.67 797.59 L 966.67 794.73 L 966.60 791.89 L 966.58 789.05 L 966.49 786.22 L 966.35 783.40 L 966.17 780.60 L 966.02 777.81 L 965.98 775.02 L 965.97 772.25 L 965.87 769.48 L 965.78 766.73 L 965.64 763.99 L 965.47 761.26 L 965.21 758.55 L 964.98 755.85 L 964.78 753.16 L 964.66 750.48 L 964.62 747.80 L 964.66 745.13 L 964.71 742.48 L 964.81 739.83 L 964.86 737.20 L 964.92 734.57 L 964.83 731.96 L 964.69 729.36 L 964.55 726.77 L 964.48 724.18 L 964.45 721.62 L 964.47 719.06 L 964.43 716.53 L 964.37 714.00 L 964.42 711.49 L 964.55 709.00 L 964.72 706.51 L 964.87 704.04 L 964.94 701.58 L 965.01 699.13 L 965.05 696.68 L 965.10 694.25 L 965.12 691.81 L 965.06 689.39 L 964.94 687.01 L 964.85 684.61 L 964.71 682.23 L 964.59 679.85 L 964.39 677.48 L 964.18 675.13 L 963.94 672.78 L 963.72 670.45 L 963.51 668.12 L 963.23 665.81 L 962.87 663.52 L 962.35 661.25 L 961.84 659.00 L 961.35 656.74 L 960.82 654.51 L 960.29 652.28 L 959.78 650.05 L 959.25 647.84 L 958.73 645.64 L 958.34 643.42" stroke="rgb(140,255,190)" stroke-opacity="0.527" stroke-width="1.10" />
  <path d="M 1005.77 911.35 L 1006.92 909.14 L 1008.05 906.94 L 1009.26 904.77 L 1010.46 902.65 L 1011.57 900.53 L 1012.60 898.37 L 1013.62 896.23 L 1014.59 894.06 L 1015.56 891.92 L 1016.54 889.79 L 1017.56 887.75 L 1018.59 885.75 L 1019.58 883.79 L 1020.53 881.83 L 1021.41 879.86 L 1022.36 877.92 L 1023.28 875.99 L 1024.19 874.05 L 1025.16 872.15 L 1026.20 870.32" stroke="rgb(140,255,190)" stroke-opacity="0.527" stroke-width="1.10" />
  <path d="M 999.65 999.75 L 1001.91 998.82 L 1004.09 997.88 L 1006.28 996.96 L 1008.37 995.97 L 1010.46 995.01 L 1012.64 994.14 L 1014.81 993.29 L 1016.98 992.42 L 1019.14 991.55 L 1021.28 990.69 L 1023.42 989.79 L 1025.50 988.86 L 1027.58 987.93 L 1029.66 987.01 L 1031.72 986.08 L 1033.77 985.15 L 1035.77 984.22 L 1037.80 983.27" stroke="rgb(140,255,190)" stroke-opacity="0.527" stroke-width="1.10" />
  <path d="M 1001.20 1001.27 L 1001.04 998.59 L 1000.93 995.92 L 1000.82 993.26 L 1000.66 990.60 L 1000.52 987.96 L 1000.43 985.32 L 1000.43 982.70 L 1000.44 980.09 L 1000.43 977.49 L 1000.40 974.90 L 1000.40 972.32 L 1000.40 969.75 L 1000.36 967.19 L 1000.29 964.65 L 1000.15 962.11 L 1000.08 959.58 L 999.98 957.06 L 999.89 954.55 L 999.77 952.05 L 999.70 949.57 L 999.62 947.09" stroke="rgb(140,255,190)" stroke-opacity="0.526" stroke-width="1.10" />
  <path d="M 1008.01 930.24 L 1008.14 927.73 L 1008.20 925.24 L 1008.23 922.75 L 1008.33 920.26 L 1008.41 917.79 L 1008.39 915.32 L 1008.32 912.86 L 1008.22 910.41 L 1008.04 907.98 L 1007.83 905.56 L 1007.69 903.15 L 1007.51 900.76 L 1007.25 898.38 L 1007.09 896.00 L 1006.89 893.63 L 1006.71 891.26 L 1006.64 888.90 L 1006.51 886.55 L 1006.42 884.22 L 1006.21 881.92 L 1006.00 879.62 L 1005.83 877.30 L 1005.58 875.00 L 1005.35 872.71 L 1005.07 870.43 L 1004.84 868.16 L 1004.58 865.90 L 1004.27 863.66 L 1003.99 861.42 L 1003.95 859.17 L 1003.88 856.93 L 1004.00 854.70 L 1004.12 852.48 L 1004.16 850.27 L 1004.24 848.07 L 1004.54 845.89 L 1004.83 843.72 L 1005.20 841.58 L 1005.50 839.44 L 1005.86 837.31 L 1006.22 835.19 L 1006.59 833.08 L 1006.93 830.98 L 1007.13 828.86 L 1007.45 826.77 L 1007.86 824.71 L 1008.38 822.68 L 1008.87 820.66 L 1009.25 818.61 L 1009.53 816.56 L 1009.79 814.51 L 1010.06 812.47 L 1010.33 810.44" stroke="rgb(205,165,255)" stroke-opacity="0.465" stroke-width="1.09" />
  <path d="M 985.40 938.21 L 986.47 935.83 L 987.38 933.40 L 988.39 931.03 L 989.43 928.69 L 990.46 926.35 L 991.56 924.05 L 992.49 921.70 L 993.42 919.35 L 994.32 917.00 L 995.22 914.67 L 996.20 912.40 L 997.03 910.07 L 997.85 907.74 L 998.61 905.39 L 999.34 903.04 L 1000.13 900.72 L 1001.02 898.44 L 1001.88 896.16 L 1002.73 893.89 L 1003.56 891.62 L 1004.40 889.37 L 1005.20 887.12 L 1006.03 884.87 L 1006.85 882.63 L 1007.53 880.36 L 1008.22 878.10 L 1008.94 875.86 L 1009.54 873.59 L 1010.14 871.34 L 1010.74 869.09 L 1011.34 866.85 L 1011.97 864.63 L 1012.62 862.43 L 1013.22 860.22 L 1013.97 858.07 L 1014.74 855.94 L 1015.53 853.83 L 1016.29 851.72 L 1017.04 849.62 L 1017.82 847.53 L 1018.60 845.45" stroke="rgb(205,165,255)" stroke-opacity="0.464" stroke-width="1.09" />
  <path d="M 1018.57 955.67 L 1018.27 953.91 L 1017.95 952.16 L 1017.62 950.40 L 1017.19 948.63 L 1016.89 946.95 L 1016.59 945.29 L 1016.36 943.63 L 1016.13 941.92 L 1015.80 940.20 L 1015.44 938.57 L 1015.10 936.96 L 1014.71 935.44 L 1014.30 933.91 L 1013.85 932.47 L 1013.39 931.05 L 1012.92 929.56 L 1012.46 928.09 L 1011.95 926.68 L 1011.56 925.24 L 1011.15 923.79 L 1010.79 922.42 L 1010.44 921.05 L 1010.11 919.75 L 1009.76 918.48 L 1009.41 917.14 L 1009.01 915.77 L 1008.61 914.40 L 1008.22 913.03 L 1007.96 911.67 L 1007.66 910.25 L 1007.38 908.82" stroke="rgb(205,165,255)" stroke-opacity="0.464" stroke-width="1.09" />
  <path d="M 1000.24 1001.17 L 1000.14 998.33 L 1000.01 995.51 L 999.86 992.69 L 999.73 989.89 L 999.49 987.10 L 999.25 984.33 L 999.03 981.57 L 998.81 978.81 L 998.49 976.08 L 998.15 973.36 L 997.79 970.66 L 997.38 967.97 L 996.98 965.30 L 996.57 962.65 L 996.21 959.99 L 995.83 957.34 L 995.42 954.71 L 995.04 952.09 L 994.73 949.46 L 994.39 946.86 L 994.00 944.27 L 993.54 941.70 L 992.93 939.18 L 992.33 936.66 L 991.72 934.16 L 991.10 931.66 L 990.48 929.18" stroke="rgb(140,255,190)" stroke-opacity="0.523" stroke-width="1.09" />
  <path d="M 990.07 894.86 L 989.88 892.15 L 989.67 889.46 L 989.46 886.77 L 989.16 884.13 L 988.87 881.49 L 988.66 878.85 L 988.45 876.23 L 988.24 873.62 L 988.03 871.02 L 987.90 868.42 L 987.78 865.84 L 987.54 863.25 L 987.37 860.71" stroke="rgb(140,255,190)" stroke-opacity="0.523" stroke-width="1.09" />
  <path d="M 997.64 998.73 L 997.65 996.00 L 997.65 993.27 L 997.65 990.55 L 997.66 987.85 L 997.60 985.16 L 997.59 982.47 L 997.53 979.80 L 997.33 977.14 L 997.01 974.51 L 996.72 971.88 L 996.47 969.26 L 996.24 966.65 L 996.05 964.06 L 995.87 961.48 L 995.66 958.91 L 995.44 956.35 L 995.24 953.80 L 995.01 951.26 L 994.83 948.73 L 994.64 946.20 L 994.50 943.68" stroke="rgb(140,255,190)" stroke-opacity="0.522" stroke-width="1.08" />
  <path d="M 1032.71 985.80 L 1035.03 985.07 L 1037.33 984.31 L 1039.63 983.58 L 1041.89 982.76 L 1044.13 981.92 L 1046.36 981.08 L 1048.56 980.22 L 1050.73 979.32 L 1052.89 978.40 L 1055.05 977.49 L 1057.21 976.63 L 1059.39 975.83 L 1061.59 975.11 L 1063.78 974.41 L 1065.95 973.71 L 1068.08 972.90 L 1070.16 971.96 L 1072.22 971.01 L 1074.26 970.04 L 1076.27 969.07" stroke="rgb(205,165,255)" stroke-opacity="0.460" stroke-width="1.08" />
  <path d="M 1000.79 998.24 L 1001.58 996.40 L 1002.31 994.53 L 1003.02 992.69 L 1003.68 990.85 L 1004.34 989.01 L 1004.97 987.18 L 1005.60 985.35 L 1006.19 983.54 L 1006.76 981.74 L 1007.45 979.95 L 1008.25 978.18 L 1009.00 976.40 L 1009.82 974.64 L 1010.73 972.93 L 1011.68 971.22 L 1012.63 969.52 L 1013.42 967.80 L 1014.16 966.06 L 1014.92 964.33 L 1015.68 962.59 L 1016.43 960.86 L 1017.13 959.10 L 1017.87 957.38 L 1018.57 955.67 L 1019.40 954.07 L 1020.12 952.52 L 1020.77 951.04 L 1021.39 949.51 L 1022.05 948.00 L 1022.70 946.50 L 1023.34 945.02" stroke="rgb(205,165,255)" stroke-opacity="0.460" stroke-width="1.07" />
  <path d="M 962.79 978.99 L 962.43 978.93 L 962.10 978.87 L 961.81 978.65 L 961.54 978.43 L 961.30 978.20 L 961.05 977.88 L 960.78 977.66 L 960.50 977.45 L 960.08 977.17 L 959.54 976.84 L 959.06 976.43 L 958.52 976.13 L 958.11 975.82 L 957.71 975.52 L 957.31 975.22 L 956.86 974.98 L 956.40 974.75 L 955.91 974.45 L 955.51 974.07 L 954.91 973.65 L 954.28 973.27 L 953.52 972.97 L 952.76 972.64 L 952.00 972.32 L 951.35 971.86 L 950.78 971.60 L 950.10 971.37 L 949.39 971.06 L 948.73 970.76 L 948.09 970.45 L 947.43 970.12 L 946.77 969.53 L 946.09 968.93 L 945.44 968.38 L 944.83 967.83 L 944.25 967.18 L 943.72 966.72 L 943.27 966.15" stroke="rgb(205,165,255)" stroke-opacity="0.453" stroke-width="1.05" />
  <path d="M 967.01 981.15 L 965.74 981.25 L 964.59 981.33 L 963.44 981.36 L 962.27 981.54 L 961.12 981.71 L 960.03 981.77 L 958.94 981.85 L 957.85 982.02 L 956.88 982.37 L 955.95 982.70 L 955.11 983.04 L 954.23 983.42 L 953.38 983.83 L 952.52 984.16 L 951.69 984.50 L 950.96 984.96 L 950.22 985.41 L 949.55 985.94 L 948.91 986.46 L 948.26 986.98 L 947.61 987.50 L 947.00 988.03 L 946.30 988.55 L 945.64 988.99 L 944.96 989.39 L 944.33 989.84 L 943.72 990.27 L 943.02 990.75" stroke="rgb(205,165,255)" stroke-opacity="0.453" stroke-width="1.05" />
  <path d="M 1000.62 1000.02 L 999.23 1000.09 L 997.87 1000.14 L 996.52 1000.05 L 995.17 999.95 L 993.86 999.94 L 992.56 999.92 L 991.26 999.91 L 989.95 999.86 L 988.67 999.78 L 987.34 999.68 L 986.04 999.62 L 984.77 999.54 L 983.40 999.25 L 982.01 998.97 L 980.59 998.67 L 979.17 998.32 L 977.77 998.07 L 976.35 997.80 L 974.91 997.54 L 973.45 997.31 L 971.96 997.17 L 970.52 997.02 L 969.14 997.01 L 967.76 997.02 L 966.36 997.04 L 964.99 997.00 L 963.64 997.01 L 962.31 997.08 L 960.99 997.11 L 959.71 997.24 L 958.42 997.29 L 957.18 997.33 L 956.11 997.43" stroke="rgb(205,165,255)" stroke-opacity="0.451" stroke-width="1.04" />
  <path d="M 999.87 997.68 L 999.04 996.51 L 998.47 995.18 L 997.91 993.86 L 997.45 992.53 L 996.94 991.26 L 996.43 990.01 L 995.75 988.77 L 995.06 987.61 L 994.50 986.42 L 993.87 985.23 L 993.16 984.13" stroke="rgb(230,230,230)" stroke-opacity="0.386" stroke-width="0.71" />
  <path d="M 1005.59 996.18 L 1004.90 996.97 L 1004.21 997.75 L 1003.55 998.50 L 1002.90 999.27 L 1002.30 1000.16 L 1001.72 1001.06 L 1001.11 1001.94 L 1000.55 1002.74 L 1000.03 1003.53 L 999.50 1004.38 L 999.01 1005.23 L 998.57 1006.08 L 998.13 1006.84 L 997.88 1007.61 L 997.66 1008.33 L 997.42 1009.11 L 997.16 1009.88 L 996.93 1010.66 L 996.78 1011.39" stroke="rgb(230,230,230)" stroke-opacity="0.381" stroke-width="0.70" />
  <path d="M 999.36 1005.20 L 998.97 1006.61 L 998.58 1008.02 L 998.19 1009.41 L 997.79 1010.80 L 997.50 1012.22 L 997.25 1013.64 L 996.93 1015.04 L 996.64 1016.46 L 996.35 1017.86 L 996.05 1019.25 L 995.77 1020.66 L 995.45 1022.06 L 995.03 1023.42 L 994.49 1024.73" stroke="rgb(230,230,230)" stroke-opacity="0.380" stroke-width="0.69" />
  <path d="M 998.11 993.76 L 996.67 994.15 L 995.23 994.54 L 993.79 994.91 L 992.37 995.32 L 990.94 995.66 L 989.49 995.93" stroke="rgb(230,230,230)" stroke-opacity="0.375" stroke-width="0.68" />
  <path d="M 999.13 998.69 L 998.27 999.21 L 997.30 999.82 L 996.31 1000.47 L 995.32 1001.15 L 994.24 1001.70 L 993.13 1002.36" stroke="rgb(230,230,230)" stroke-opacity="0.370" stroke-width="0.67" />
  <path d="M 1001.35 1000.02 L 1000.59 999.53 L 999.79 998.97 L 998.94 998.47 L 998.03 998.16 L 997.13 997.86" stroke="rgb(230,230,230)" stroke-opacity="0.369" stroke-width="0.66" />
  <path d="M 1003.49 1003.23 L 1002.80 1001.95 L 1001.99 1000.75 L 1001.14 999.60 L 1000.30 998.45 L 999.42 997.29" stroke="rgb(230,230,230)" stroke-opacity="0.367" stroke-width="0.66" />
  <path d="M 1001.80 1002.27 L 1001.19 1001.92 L 1000.58 1001.54 L 999.84 1001.17 L 999.03 1000.82 L 998.22 1000.47 L 997.43 1000.07" stroke="rgb(230,230,230)" stroke-opacity="0.366" stroke-width="0.65" />
  <path d="M 998.12 1001.61 L 998.56 1000.59 L 999.02 999.64 L 999.40 998.72 L 999.75 997.79 L 1000.12 996.86 L 1000.45 995.94 L 1000.71 994.94 L 1000.99 993.95 L 1001.29 992.95 L 1001.62 991.96 L 1001.67 991.03 L 1001.72 990.10 L 1001.91 989.23 L 1002.10 988.39" stroke="rgb(230,230,230)" stroke-opacity="0.358" stroke-width="0.63" />
  <path d="M 997.39 1004.08 L 998.06 1005.42 L 998.85 1006.68 L 999.72 1007.89 L 1000.64 1009.05 L 1001.45 1010.28 L 1002.30 1011.49" stroke="rgb(230,230,230)" stroke-opacity="0.357" stroke-width="0.63" />
  <path d="M 1001.46 997.96 L 1000.59 997.35 L 999.84 996.52 L 999.23 995.67 L 998.63 994.94 L 998.02 994.28 L 997.38 993.65 L 996.79 992.98 L 996.20 992.20 L 995.64 991.43" stroke="rgb(230,230,230)" stroke-opacity="0.355" stroke-width="0.63" />
  <path d="M 996.38 997.31 L 996.86 996.09 L 997.40 994.90 L 997.95 993.70 L 998.46 992.50 L 998.97 991.28 L 999.57 990.10 L 1000.13 988.90 L 1000.74 987.68 L 1001.29 986.49" stroke="rgb(230,230,230)" stroke-opacity="0.352" stroke-width="0.62" />
  <path d="M 997.07 997.46 L 995.87 998.35 L 994.75 999.32 L 993.63 1000.28 L 992.51 1001.21 L 991.42 1002.16 L 990.36 1003.18 L 989.27 1004.13 L 988.26 1005.14 L 987.32 1006.19 L 986.26 1007.18 L 985.25 1008.20 L 984.19 1009.16 L 983.13 1010.12" stroke="rgb(230,230,230)" stroke-opacity="0.351" stroke-width="0.62" />
  <path d="M 997.02 1000.53 L 997.92 1001.72 L 998.87 1002.87 L 999.82 1004.01 L 1000.76 1005.14 L 1001.73 1006.25 L 1002.65 1007.39 L 1003.57 1008.52 L 1004.33 1009.76 L 1005.10 1010.99 L 1005.89 1012.21 L 1006.63 1013.44 L 1007.41 1014.64 L 1008.13 1015.86" stroke="rgb(230,230,230)" stroke-opacity="0.351" stroke-width="0.61" />
  <path d="M 1003.38 1000.17 L 1003.07 1001.28 L 1002.77 1002.38 L 1002.63 1003.47 L 1002.56 1004.61 L 1002.47 1005.79 L 1002.44 1007.02" stroke="rgb(230,230,230)" stroke-opacity="0.351" stroke-width="0.61" />
  <path d="M 1004.53 1000.99 L 1004.05 1000.05 L 1003.61 999.14 L 1003.12 998.31 L 1002.70 997.45 L 1002.27 996.59 L 1001.88 995.71 L 1001.60 994.77 L 1001.20 993.83 L 1000.79 992.89" stroke="rgb(230,230,230)" stroke-opacity="0.349" stroke-width="0.61" />
  <path d="M 991.83 999.19 L 990.82 999.22 L 989.87 999.19 L 989.06 999.29 L 988.40 999.40 L 987.65 999.53 L 986.95 999.62 L 986.12 999.73" stroke="rgb(230,230,230)" stroke-opacity="0.349" stroke-width="0.61" />
  <path d="M 998.80 1002.70 L 999.14 1001.25 L 999.44 999.79 L 999.85 998.39 L 1000.36 997.00 L 1000.84 995.61 L 1001.25 994.20 L 1001.65 992.79" stroke="rgb(230,230,230)" stroke-opacity="0.348" stroke-width="0.61" />
</g>
</svg>
