{
  "asset": {
    "version": "2.0",
    "generator": "TES-23 Cosmic Ray Renderer"
  },
  "extensionsUsed": [
    "KHR_materials_unlit"
  ],
  "extensionsRequired": [
    "KHR_materials_unlit"
  ],
  "scene": 0,
  "scenes": [
    {
      "nodes": [
        0
      ]
    }
  ],
  "nodes": [
    {
      "name": "CosmicRayEvent",
      "mesh": 0
    }
  ],
  "meshes": [
    {
      "name": "CosmicRayEvent",
      "primitives": [
        {
          "attributes": {
            "POSITION": 0
          },
          "material": 0,
          "mode": 1
        },
        {
          "attributes": {
            "POSITION": 1
          },
          "material": 1,
          "mode": 1
        },
        {
          "attributes": {
            "POSITION": 2
          },
          "material": 2,
          "mode": 1
        },
        {
          "attributes": {
            "POSITION": 3
          },
          "material": 3,
          "mode": 1
        },
        {
          "attributes": {
            "POSITION": 4
          },
          "material": 4,
          "mode": 1
        }
      ]
    }
  ],
  "materials": [
    {
      "name": "primary",
      "extensions": {
        "KHR_materials_unlit": {}
      },
      "pbrMetallicRoughness": {
        "baseColorFactor": [
          0.961,
          0.961,
          0.961,
          1
        ],
        "metallicFactor": 0,
        "roughnessFactor": 1
      }
    },
    {
      "name": "vertex",
      "extensions": {
        "KHR_materials_unlit": {}
      },
      "pbrMetallicRoughness": {
        "baseColorFactor": [
          0.902,
          0.902,
          0.902,
          0.9
        ],
        "metallicFactor": 0,
        "roughnessFactor": 1
      }
    },
    {
      "name": "em",
      "extensions": {
        "KHR_materials_unlit": {}
      },
      "pbrMetallicRoughness": {
        "baseColorFactor": [
          0.471,
          0.824,
          1,
          1
        ],
        "metallicFactor": 0,
        "roughnessFactor": 1
      }
    },
    {
      "name": "hadron",
      "extensions": {
        "KHR_materials_unlit": {}
      },
      "pbrMetallicRoughness": {
        "baseColorFactor": [
          0.549,
          1,
          0.745,
          1
        ],
        "metallicFactor": 0,
        "roughnessFactor": 1
      }
    },
    {
      "name": "delta",
      "extensions": {
        "KHR_materials_unlit": {}
      },
      "pbrMetallicRoughness": {
        "baseColorFactor": [
          0.804,
          0.647,
          1,
          1
        ],
        "metallicFactor": 0,
        "roughnessFactor": 1
      }
    }
  ],
  "accessors": [
    {
      "bufferView": 0,
      "byteOffset": 0,
      "componentType": 5126,
      "count": 1526,
      "type": "VEC3",
      "min": [
        -0.5283818244934082,
        -1.0002562999725342,
        0
      ],
      "max": [
        0.5390853881835938,
        1.0208626985549927,
        0
      ]
    },
    {
      "bufferView": 1,
      "byteOffset": 0,
      "componentType": 5126,
      "count": 316,
      "type": "VEC3",
      "min": [
        -0.016330642625689507,
        -0.015507330186665058,
        -0.09592384099960327
      ],
      "max": [
        0.01632227934896946,
        0.01999397575855255,
        0.03805655986070633
      ]
    },
    {
      "bufferView": 2,
      "byteOffset": 0,
      "componentType": 5126,
      "count": 1186,
      "type": "VEC3",
      "min": [
        -0.0025040123146027327,
        -0.00211484357714653,
        -0.09763293713331223
      ],
      "max": [
        0.15119850635528564,
        0.2738807499408722,
        0.154686838388443
      ]
    },
    {
      "bufferView": 3,
      "byteOffset": 0,
      "componentType": 5126,
      "count": 2886,
      "type": "VEC3",
      "min": [
        -0.0023495242930948734,
        -0.003602422308176756,
        -0.26148828864097595
      ],
      "max": [
        0.21534748375415802,
        0.30421409010887146,
        0.6675292253494263
      ]
    },
    {
      "bufferView": 4,
      "byteOffset": 0,
      "componentType": 5126,
      "count": 736,
      "type": "VEC3",
      "min": [
        -0.12324179708957672,
        -0.08473417162895203,
        -0.4970971345901489
      ],
      "max": [
        0.10589469224214554,
        0.09479603916406631,
        0.22094053030014038
      ]
    }
  ],
  "bufferViews": [
    {
      "buffer": 0,
      "byteOffset": 0,
      "byteLength": 18312,
      "target": 34962
    },
    {
      "buffer": 0,
      "byteOffset": 18312,
      "byteLength": 3792,
      "target": 34962
    },
    {
      "buffer": 0,
      "byteOffset": 22104,
      "byteLength": 14232,
      "target": 34962
    },
    {
      "buffer": 0,
      "byteOffset": 36336,
      "byteLength": 34632,
      "target": 34962
    },
    {
      "buffer": 0,
      "byteOffset": 70968,
      "byteLength": 8832,
      "target": 34962
    }
  ],
  "buffers": [
    {
      "byteLength": 79800,
      "uri": "data:application/octet-stream;base64,"
    }
  ]
}