{
  "asset": {
    "version": "2.0",
    "generator": "TES-23 Cosmic Ray Renderer"
  },
  "extensionsUsed": [
    "KHR_materials_unlit"
  ],
  "extensionsRequired": [
    "KHR_materials_unlit"
  ],
  "scene": 0,
  "scenes": [
    {
      "nodes": [
        0
      ]
    }
  ],
  "nodes": [
    {
      "name": "CosmicRayEvent",
      "mesh": 0
    }
  ],
  "meshes": [
    {
      "name": "CosmicRayEvent",
      "primitives": [
        {
          "attributes": {
            "POSITION": 0
          },
          "material": 0,
          "mode": 1
        },
        {
          "attributes": {
            "POSITION": 1
          },
          "material": 1,
          "mode": 1
        },
        {
          "attributes": {
            "POSITION": 2
          },
          "material": 2,
          "mode": 1
        },
        {
          "attributes": {
            "POSITION": 3
          },
          "material": 3,
          "mode": 1
        },
        {
          "attributes": {
            "POSITION": 4
          },
          "material": 4,
          "mode": 1
        }
      ]
    }
  ],
  "materials": [
    {
      "name": "primary",
      "extensions": {
        "KHR_materials_unlit": {}
      },
      "pbrMetallicRoughness": {
        "baseColorFactor": [
          0.961,
          0.961,
          0.961,
          1
        ],
        "metallicFactor": 0,
        "roughnessFactor": 1
      }
    },
    {
      "name": "vertex",
      "extensions": {
        "KHR_materials_unlit": {}
      },
      "pbrMetallicRoughness": {
        "baseColorFactor": [
          0.902,
          0.902,
          0.902,
          0.9
        ],
        "metallicFactor": 0,
        "roughnessFactor": 1
      }
    },
    {
      "name": "em",
      "extensions": {
        "KHR_materials_unlit": {}
      },
      "pbrMetallicRoughness": {
        "baseColorFactor": [
          0.471,
          0.824,
          1,
          1
        ],
        "metallicFactor": 0,
        "roughnessFactor": 1
      }
    },
    {
      "name": "hadron",
      "extensions": {
        "KHR_materials_unlit": {}
      },
      "pbrMetallicRoughness": {
        "baseColorFactor": [
          0.549,
          1,
          0.745,
          1
        ],
        "metallicFactor": 0,
        "roughnessFactor": 1
      }
    },
    {
      "name": "delta",
      "extensions": {
        "KHR_materials_unlit": {}
      },
      "pbrMetallicRoughness": {
        "baseColorFactor": [
          0.804,
          0.647,
          1,
          1
        ],
        "metallicFactor": 0,
        "roughnessFactor": 1
      }
    }
  ],
  "accessors": [
    {
      "bufferView": 0,
      "byteOffset": 0,
      "componentType": 5126,
      "count": 1392,
      "type": "VEC3",
      "min": [
        -0.2648213803768158,
        -1.0001780986785889,
        0
      ],
      "max": [
        0.25026753544807434,
        1.0220860242843628,
        0
      ]
    },
    {
      "bufferView": 1,
      "byteOffset": 0,
      "componentType": 5126,
      "count": 348,
      "type": "VEC3",
      "min": [
        -0.019144345074892044,
        -0.01984376087784767,
        -0.0708627700805664
      ],
      "max": [
        0.012135609053075314,
        0.01418882142752409,
        0.0813303142786026
      ]
    },
    {
      "bufferView": 2,
      "byteOffset": 0,
      "componentType": 5126,
      "count": 1184,
      "type": "VEC3",
      "min": [
        -0.08030073344707489,
        -0.0028782570734620094,
        -0.12907527387142181
      ],
      "max": [
        0.0037846090272068977,
        0.21243155002593994,
        0.0827130675315857
      ]
    },
    {
      "bufferView": 3,
      "byteOffset": 0,
      "componentType": 5126,
      "count": 5058,
      "type": "VEC3",
      "min": [
        -0.20473240315914154,
        -0.06036027520895004,
        -0.5742906332015991
      ],
      "max": [
        0.1613336056470871,
        0.36883968114852905,
        1.0549684762954712
      ]
    },
    {
      "bufferView": 4,
      "byteOffset": 0,
      "componentType": 5126,
      "count": 1154,
      "type": "VEC3",
      "min": [
        -0.07986185699701309,
        -0.03973626345396042,
        -0.41716793179512024
      ],
      "max": [
        0.13261891901493073,
        0.2974838614463806,
        0.5126832127571106
      ]
    }
  ],
  "bufferViews": [
    {
      "buffer": 0,
      "byteOffset": 0,
      "byteLength": 16704,
      "target": 34962
    },
    {
      "buffer": 0,
      "byteOffset": 16704,
      "byteLength": 4176,
      "target": 34962
    },
    {
      "buffer": 0,
      "byteOffset": 20880,
      "byteLength": 14208,
      "target": 34962
    },
    {
      "buffer": 0,
      "byteOffset": 35088,
      "byteLength": 60696,
      "target": 34962
    },
    {
      "buffer": 0,
      "byteOffset": 95784,
      "byteLength": 13848,
      "target": 34962
    }
  ],
  "buffers": [
    {
      "byteLength": 109632,
      "uri": "data:application/octet-stream;base64,"
    }
  ]
}