{
  "asset": {
    "version": "2.0",
    "generator": "TES-23 Cosmic Ray Renderer"
  },
  "extensionsUsed": [
    "KHR_materials_unlit"
  ],
  "extensionsRequired": [
    "KHR_materials_unlit"
  ],
  "scene": 0,
  "scenes": [
    {
      "nodes": [
        0
      ]
    }
  ],
  "nodes": [
    {
      "name": "CosmicRayEvent",
      "mesh": 0
    }
  ],
  "meshes": [
    {
      "name": "CosmicRayEvent",
      "primitives": [
        {
          "attributes": {
            "POSITION": 0
          },
          "material": 0,
          "mode": 1
        },
        {
          "attributes": {
            "POSITION": 1
          },
          "material": 1,
          "mode": 1
        },
        {
          "attributes": {
            "POSITION": 2
          },
          "material": 2,
          "mode": 1
        },
        {
          "attributes": {
            "POSITION": 3
          },
          "material": 3,
          "mode": 1
        },
        {
          "attributes": {
            "POSITION": 4
          },
          "material": 4,
          "mode": 1
        },
        {
          "attributes": {
            "POSITION": 5
          },
          "material": 5,
          "mode": 1
        }
      ]
    }
  ],
  "materials": [
    {
      "name": "primary",
      "extensions": {
        "KHR_materials_unlit": {}
      },
      "pbrMetallicRoughness": {
        "baseColorFactor": [
          0.961,
          0.961,
          0.961,
          1
        ],
        "metallicFactor": 0,
        "roughnessFactor": 1
      }
    },
    {
      "name": "vertex",
      "extensions": {
        "KHR_materials_unlit": {}
      },
      "pbrMetallicRoughness": {
        "baseColorFactor": [
          0.902,
          0.902,
          0.902,
          0.9
        ],
        "metallicFactor": 0,
        "roughnessFactor": 1
      }
    },
    {
      "name": "em",
      "extensions": {
        "KHR_materials_unlit": {}
      },
      "pbrMetallicRoughness": {
        "baseColorFactor": [
          0.471,
          0.824,
          1,
          1
        ],
        "metallicFactor": 0,
        "roughnessFactor": 1
      }
    },
    {
      "name": "hadron",
      "extensions": {
        "KHR_materials_unlit": {}
      },
      "pbrMetallicRoughness": {
        "baseColorFactor": [
          0.549,
          1,
          0.745,
          1
        ],
        "metallicFactor": 0,
        "roughnessFactor": 1
      }
    },
    {
      "name": "delta",
      "extensions": {
        "KHR_materials_unlit": {}
      },
      "pbrMetallicRoughness": {
        "baseColorFactor": [
          0.804,
          0.647,
          1,
          1
        ],
        "metallicFactor": 0,
        "roughnessFactor": 1
      }
    },
    {
      "name": "backscatter",
      "extensions": {
        "KHR_materials_unlit": {}
      },
      "pbrMetallicRoughness": {
        "baseColorFactor": [
          1,
          0.824,
          0.529,
          0.95
        ],
        "metallicFactor": 0,
        "roughnessFactor": 1
      }
    }
  ],
  "accessors": [
    {
      "bufferView": 0,
      "byteOffset": 0,
      "componentType": 5126,
      "count": 1372,
      "type": "VEC3",
      "min": [
        -0.1902422159910202,
        -1.0001413822174072,
        0
      ],
      "max": [
        0.17872019112110138,
        1.0218249559402466,
        0
      ]
    },
    {
      "bufferView": 1,
      "byteOffset": 0,
      "componentType": 5126,
      "count": 296,
      "type": "VEC3",
      "min": [
        -0.02665175311267376,
        -0.01726881042122841,
        -0.046627193689346313
      ],
      "max": [
        0.014766668900847435,
        0.021084563806653023,
        0.06594538688659668
      ]
    },
    {
      "bufferView": 2,
      "byteOffset": 0,
      "componentType": 5126,
      "count": 1370,
      "type": "VEC3",
      "min": [
        -0.0025988691486418247,
        -0.0033570427913218737,
        -0.04655473679304123
      ],
      "max": [
        0.08365804702043533,
        0.29261234402656555,
        0.24832579493522644
      ]
    },
    {
      "bufferView": 3,
      "byteOffset": 0,
      "componentType": 5126,
      "count": 2710,
      "type": "VEC3",
      "min": [
        -0.036402322351932526,
        -0.05246264487504959,
        -0.7964081168174744
      ],
      "max": [
        0.21748891472816467,
        0.4580898582935333,
        0.49105915427207947
      ]
    },
    {
      "bufferView": 4,
      "byteOffset": 0,
      "componentType": 5126,
      "count": 586,
      "type": "VEC3",
      "min": [
        -0.04028228670358658,
        -0.09588704258203506,
        -0.09251169860363007
      ],
      "max": [
        0.17630457878112793,
        0.15227669477462769,
        0.4984830319881439
      ]
    },
    {
      "bufferView": 5,
      "byteOffset": 0,
      "componentType": 5126,
      "count": 764,
      "type": "VEC3",
      "min": [
        -0.08738522231578827,
        -0.06889304518699646,
        -0.658669114112854
      ],
      "max": [
        0.04388650879263878,
        0.21714775264263153,
        0.8516678214073181
      ]
    }
  ],
  "bufferViews": [
    {
      "buffer": 0,
      "byteOffset": 0,
      "byteLength": 16464,
      "target": 34962
    },
    {
      "buffer": 0,
      "byteOffset": 16464,
      "byteLength": 3552,
      "target": 34962
    },
    {
      "buffer": 0,
      "byteOffset": 20016,
      "byteLength": 16440,
      "target": 34962
    },
    {
      "buffer": 0,
      "byteOffset": 36456,
      "byteLength": 32520,
      "target": 34962
    },
    {
      "buffer": 0,
      "byteOffset": 68976,
      "byteLength": 7032,
      "target": 34962
    },
    {
      "buffer": 0,
      "byteOffset": 76008,
      "byteLength": 9168,
      "target": 34962
    }
  ],
  "buffers": [
    {
      "byteLength": 85176,
      "uri": "data:application/octet-stream;base64,"
    }
  ]
}