{
  "asset": {
    "version": "2.0",
    "generator": "TES-23 Cosmic Ray Renderer"
  },
  "extensionsUsed": [
    "KHR_materials_unlit"
  ],
  "extensionsRequired": [
    "KHR_materials_unlit"
  ],
  "scene": 0,
  "scenes": [
    {
      "nodes": [
        0
      ]
    }
  ],
  "nodes": [
    {
      "name": "CosmicRayEvent",
      "mesh": 0
    }
  ],
  "meshes": [
    {
      "name": "CosmicRayEvent",
      "primitives": [
        {
          "attributes": {
            "POSITION": 0
          },
          "material": 0,
          "mode": 1
        },
        {
          "attributes": {
            "POSITION": 1
          },
          "material": 1,
          "mode": 1
        },
        {
          "attributes": {
            "POSITION": 2
          },
          "material": 2,
          "mode": 1
        },
        {
          "attributes": {
            "POSITION": 3
          },
          "material": 3,
          "mode": 1
        },
        {
          "attributes": {
            "POSITION": 4
          },
          "material": 4,
          "mode": 1
        },
        {
          "attributes": {
            "POSITION": 5
          },
          "material": 5,
          "mode": 1
        }
      ]
    }
  ],
  "materials": [
    {
      "name": "primary",
      "extensions": {
        "KHR_materials_unlit": {}
      },
      "pbrMetallicRoughness": {
        "baseColorFactor": [
          0.961,
          0.961,
          0.961,
          1
        ],
        "metallicFactor": 0,
        "roughnessFactor": 1
      }
    },
    {
      "name": "vertex",
      "extensions": {
        "KHR_materials_unlit": {}
      },
      "pbrMetallicRoughness": {
        "baseColorFactor": [
          0.902,
          0.902,
          0.902,
          0.9
        ],
        "metallicFactor": 0,
        "roughnessFactor": 1
      }
    },
    {
      "name": "em",
      "extensions": {
        "KHR_materials_unlit": {}
      },
      "pbrMetallicRoughness": {
        "baseColorFactor": [
          0.471,
          0.824,
          1,
          1
        ],
        "metallicFactor": 0,
        "roughnessFactor": 1
      }
    },
    {
      "name": "hadron",
      "extensions": {
        "KHR_materials_unlit": {}
      },
      "pbrMetallicRoughness": {
        "baseColorFactor": [
          0.549,
          1,
          0.745,
          1
        ],
        "metallicFactor": 0,
        "roughnessFactor": 1
      }
    },
    {
      "name": "delta",
      "extensions": {
        "KHR_materials_unlit": {}
      },
      "pbrMetallicRoughness": {
        "baseColorFactor": [
          0.804,
          0.647,
          1,
          1
        ],
        "metallicFactor": 0,
        "roughnessFactor": 1
      }
    },
    {
      "name": "backscatter",
      "extensions": {
        "KHR_materials_unlit": {}
      },
      "pbrMetallicRoughness": {
        "baseColorFactor": [
          1,
          0.824,
          0.529,
          0.95
        ],
        "metallicFactor": 0,
        "roughnessFactor": 1
      }
    }
  ],
  "accessors": [
    {
      "bufferView": 0,
      "byteOffset": 0,
      "componentType": 5126,
      "count": 1568,
      "type": "VEC3",
      "min": [
        -0.6050987839698792,
        -0.9999671578407288,
        0
      ],
      "max": [
        0.5932110548019409,
        1.0221452713012695,
        0
      ]
    },
    {
      "bufferView": 1,
      "byteOffset": 0,
      "componentType": 5126,
      "count": 374,
      "type": "VEC3",
      "min": [
        -0.01937793754041195,
        -0.023623673245310783,
        -0.062201157212257385
      ],
      "max": [
        0.017093390226364136,
        0.012182135134935379,
        0.0883026123046875
      ]
    },
    {
      "bufferView": 2,
      "byteOffset": 0,
      "componentType": 5126,
      "count": 298,
      "type": "VEC3",
      "min": [
        -0.06700116395950317,
        -0.004340485669672489,
        -0.029053544625639915
      ],
      "max": [
        0.0026044754777103662,
        0.11880603432655334,
        0.023742301389575005
      ]
    },
    {
      "bufferView": 3,
      "byteOffset": 0,
      "componentType": 5126,
      "count": 3066,
      "type": "VEC3",
      "min": [
        -0.2815943956375122,
        -0.025338251143693924,
        -0.38091328740119934
      ],
      "max": [
        0.12330447137355804,
        0.2988957166671753,
        0.7499979734420776
      ]
    },
    {
      "bufferView": 4,
      "byteOffset": 0,
      "componentType": 5126,
      "count": 408,
      "type": "VEC3",
      "min": [
        -0.11972850561141968,
        -0.05106323957443237,
        -0.45584356784820557
      ],
      "max": [
        0.02433980628848076,
        0.1846630871295929,
        0.5643261671066284
      ]
    },
    {
      "bufferView": 5,
      "byteOffset": 0,
      "componentType": 5126,
      "count": 526,
      "type": "VEC3",
      "min": [
        -0.11259989440441132,
        -0.050572652369737625,
        -0.2543506324291229
      ],
      "max": [
        0.09013602137565613,
        0.1155846118927002,
        0.4753386080265045
      ]
    }
  ],
  "bufferViews": [
    {
      "buffer": 0,
      "byteOffset": 0,
      "byteLength": 18816,
      "target": 34962
    },
    {
      "buffer": 0,
      "byteOffset": 18816,
      "byteLength": 4488,
      "target": 34962
    },
    {
      "buffer": 0,
      "byteOffset": 23304,
      "byteLength": 3576,
      "target": 34962
    },
    {
      "buffer": 0,
      "byteOffset": 26880,
      "byteLength": 36792,
      "target": 34962
    },
    {
      "buffer": 0,
      "byteOffset": 63672,
      "byteLength": 4896,
      "target": 34962
    },
    {
      "buffer": 0,
      "byteOffset": 68568,
      "byteLength": 6312,
      "target": 34962
    }
  ],
  "buffers": [
    {
      "byteLength": 74880,
      "uri": "data:application/octet-stream;base64,"
    }
  ]
}