{
  "asset": {
    "version": "2.0",
    "generator": "TES-23 Cosmic Ray Renderer"
  },
  "extensionsUsed": [
    "KHR_materials_unlit"
  ],
  "extensionsRequired": [
    "KHR_materials_unlit"
  ],
  "scene": 0,
  "scenes": [
    {
      "nodes": [
        0
      ]
    }
  ],
  "nodes": [
    {
      "name": "CosmicRayEvent",
      "mesh": 0
    }
  ],
  "meshes": [
    {
      "name": "CosmicRayEvent",
      "primitives": [
        {
          "attributes": {
            "POSITION": 0
          },
          "material": 0,
          "mode": 1
        },
        {
          "attributes": {
            "POSITION": 1
          },
          "material": 1,
          "mode": 1
        },
        {
          "attributes": {
            "POSITION": 2
          },
          "material": 2,
          "mode": 1
        },
        {
          "attributes": {
            "POSITION": 3
          },
          "material": 3,
          "mode": 1
        },
        {
          "attributes": {
            "POSITION": 4
          },
          "material": 4,
          "mode": 1
        }
      ]
    }
  ],
  "materials": [
    {
      "name": "primary",
      "extensions": {
        "KHR_materials_unlit": {}
      },
      "pbrMetallicRoughness": {
        "baseColorFactor": [
          0.961,
          0.961,
          0.961,
          1
        ],
        "metallicFactor": 0,
        "roughnessFactor": 1
      }
    },
    {
      "name": "vertex",
      "extensions": {
        "KHR_materials_unlit": {}
      },
      "pbrMetallicRoughness": {
        "baseColorFactor": [
          0.902,
          0.902,
          0.902,
          0.9
        ],
        "metallicFactor": 0,
        "roughnessFactor": 1
      }
    },
    {
      "name": "em",
      "extensions": {
        "KHR_materials_unlit": {}
      },
      "pbrMetallicRoughness": {
        "baseColorFactor": [
          0.471,
          0.824,
          1,
          1
        ],
        "metallicFactor": 0,
        "roughnessFactor": 1
      }
    },
    {
      "name": "hadron",
      "extensions": {
        "KHR_materials_unlit": {}
      },
      "pbrMetallicRoughness": {
        "baseColorFactor": [
          0.549,
          1,
          0.745,
          1
        ],
        "metallicFactor": 0,
        "roughnessFactor": 1
      }
    },
    {
      "name": "delta",
      "extensions": {
        "KHR_materials_unlit": {}
      },
      "pbrMetallicRoughness": {
        "baseColorFactor": [
          0.804,
          0.647,
          1,
          1
        ],
        "metallicFactor": 0,
        "roughnessFactor": 1
      }
    }
  ],
  "accessors": [
    {
      "bufferView": 0,
      "byteOffset": 0,
      "componentType": 5126,
      "count": 1492,
      "type": "VEC3",
      "min": [
        -1.021905541419983,
        -0.4819159209728241,
        0
      ],
      "max": [
        1.0002869367599487,
        0.4695929288864136,
        0
      ]
    },
    {
      "bufferView": 1,
      "byteOffset": 0,
      "componentType": 5126,
      "count": 332,
      "type": "VEC3",
      "min": [
        -0.013715757988393307,
        -0.015288546681404114,
        -0.07666554301977158
      ],
      "max": [
        0.021306727081537247,
        0.027099093422293663,
        0.11154917627573013
      ]
    },
    {
      "bufferView": 2,
      "byteOffset": 0,
      "componentType": 5126,
      "count": 740,
      "type": "VEC3",
      "min": [
        -0.20058192312717438,
        -0.0027958624996244907,
        -0.01956924796104431
      ],
      "max": [
        0.002019030973315239,
        0.10326306521892548,
        0.049755822867155075
      ]
    },
    {
      "bufferView": 3,
      "byteOffset": 0,
      "componentType": 5126,
      "count": 1662,
      "type": "VEC3",
      "min": [
        -0.2116265594959259,
        -0.013684800826013088,
        -0.48520877957344055
      ],
      "max": [
        0.25730568170547485,
        0.09299533814191818,
        0.6928161382675171
      ]
    },
    {
      "bufferView": 4,
      "byteOffset": 0,
      "componentType": 5126,
      "count": 724,
      "type": "VEC3",
      "min": [
        -0.10458196699619293,
        -0.17375127971172333,
        -0.1262160986661911
      ],
      "max": [
        0.12190625071525574,
        0.04347703978419304,
        0.5056027173995972
      ]
    }
  ],
  "bufferViews": [
    {
      "buffer": 0,
      "byteOffset": 0,
      "byteLength": 17904,
      "target": 34962
    },
    {
      "buffer": 0,
      "byteOffset": 17904,
      "byteLength": 3984,
      "target": 34962
    },
    {
      "buffer": 0,
      "byteOffset": 21888,
      "byteLength": 8880,
      "target": 34962
    },
    {
      "buffer": 0,
      "byteOffset": 30768,
      "byteLength": 19944,
      "target": 34962
    },
    {
      "buffer": 0,
      "byteOffset": 50712,
      "byteLength": 8688,
      "target": 34962
    }
  ],
  "buffers": [
    {
      "byteLength": 59400,
      "uri": "data:application/octet-stream;base64,"
    }
  ]
}