{
  "asset": {
    "version": "2.0",
    "generator": "TES-23 Cosmic Ray Renderer"
  },
  "extensionsUsed": [
    "KHR_materials_unlit"
  ],
  "extensionsRequired": [
    "KHR_materials_unlit"
  ],
  "scene": 0,
  "scenes": [
    {
      "nodes": [
        0
      ]
    }
  ],
  "nodes": [
    {
      "name": "CosmicRayEvent",
      "mesh": 0
    }
  ],
  "meshes": [
    {
      "name": "CosmicRayEvent",
      "primitives": [
        {
          "attributes": {
            "POSITION": 0
          },
          "material": 0,
          "mode": 1
        },
        {
          "attributes": {
            "POSITION": 1
          },
          "material": 1,
          "mode": 1
        },
        {
          "attributes": {
            "POSITION": 2
          },
          "material": 2,
          "mode": 1
        },
        {
          "attributes": {
            "POSITION": 3
          },
          "material": 3,
          "mode": 1
        },
        {
          "attributes": {
            "POSITION": 4
          },
          "material": 4,
          "mode": 1
        },
        {
          "attributes": {
            "POSITION": 5
          },
          "material": 5,
          "mode": 1
        }
      ]
    }
  ],
  "materials": [
    {
      "name": "primary",
      "extensions": {
        "KHR_materials_unlit": {}
      },
      "pbrMetallicRoughness": {
        "baseColorFactor": [
          0.961,
          0.961,
          0.961,
          1
        ],
        "metallicFactor": 0,
        "roughnessFactor": 1
      }
    },
    {
      "name": "vertex",
      "extensions": {
        "KHR_materials_unlit": {}
      },
      "pbrMetallicRoughness": {
        "baseColorFactor": [
          0.902,
          0.902,
          0.902,
          0.9
        ],
        "metallicFactor": 0,
        "roughnessFactor": 1
      }
    },
    {
      "name": "em",
      "extensions": {
        "KHR_materials_unlit": {}
      },
      "pbrMetallicRoughness": {
        "baseColorFactor": [
          0.471,
          0.824,
          1,
          1
        ],
        "metallicFactor": 0,
        "roughnessFactor": 1
      }
    },
    {
      "name": "hadron",
      "extensions": {
        "KHR_materials_unlit": {}
      },
      "pbrMetallicRoughness": {
        "baseColorFactor": [
          0.549,
          1,
          0.745,
          1
        ],
        "metallicFactor": 0,
        "roughnessFactor": 1
      }
    },
    {
      "name": "delta",
      "extensions": {
        "KHR_materials_unlit": {}
      },
      "pbrMetallicRoughness": {
        "baseColorFactor": [
          0.804,
          0.647,
          1,
          1
        ],
        "metallicFactor": 0,
        "roughnessFactor": 1
      }
    },
    {
      "name": "backscatter",
      "extensions": {
        "KHR_materials_unlit": {}
      },
      "pbrMetallicRoughness": {
        "baseColorFactor": [
          1,
          0.824,
          0.529,
          0.95
        ],
        "metallicFactor": 0,
        "roughnessFactor": 1
      }
    }
  ],
  "accessors": [
    {
      "bufferView": 0,
      "byteOffset": 0,
      "componentType": 5126,
      "count": 1362,
      "type": "VEC3",
      "min": [
        -0.9999122023582458,
        -0.13372278213500977,
        0
      ],
      "max": [
        1.0228599309921265,
        0.12961216270923615,
        0
      ]
    },
    {
      "bufferView": 1,
      "byteOffset": 0,
      "componentType": 5126,
      "count": 250,
      "type": "VEC3",
      "min": [
        -0.02500542625784874,
        -0.011068134568631649,
        -0.07006219774484634
      ],
      "max": [
        0.0136064188554883,
        0.008303958922624588,
        0.028071539476513863
      ]
    },
    {
      "bufferView": 2,
      "byteOffset": 0,
      "componentType": 5126,
      "count": 608,
      "type": "VEC3",
      "min": [
        -0.002011716365814209,
        -0.043408989906311035,
        -0.06085216999053955
      ],
      "max": [
        0.2303578406572342,
        0.0013281189603731036,
        0.06420332193374634
      ]
    },
    {
      "bufferView": 3,
      "byteOffset": 0,
      "componentType": 5126,
      "count": 1558,
      "type": "VEC3",
      "min": [
        -0.021337533369660378,
        -0.1727762520313263,
        -0.4623340964317322
      ],
      "max": [
        0.26572170853614807,
        0.01530932355672121,
        1.231941819190979
      ]
    },
    {
      "bufferView": 4,
      "byteOffset": 0,
      "componentType": 5126,
      "count": 750,
      "type": "VEC3",
      "min": [
        -0.052947741001844406,
        -0.2762134075164795,
        -0.445747047662735
      ],
      "max": [
        0.0954589992761612,
        0.008529315702617168,
        0.5720332264900208
      ]
    },
    {
      "bufferView": 5,
      "byteOffset": 0,
      "componentType": 5126,
      "count": 1178,
      "type": "VEC3",
      "min": [
        -0.061660170555114746,
        -0.1619834452867508,
        -0.382686585187912
      ],
      "max": [
        0.09266625344753265,
        0.27428382635116577,
        1.1461513042449951
      ]
    }
  ],
  "bufferViews": [
    {
      "buffer": 0,
      "byteOffset": 0,
      "byteLength": 16344,
      "target": 34962
    },
    {
      "buffer": 0,
      "byteOffset": 16344,
      "byteLength": 3000,
      "target": 34962
    },
    {
      "buffer": 0,
      "byteOffset": 19344,
      "byteLength": 7296,
      "target": 34962
    },
    {
      "buffer": 0,
      "byteOffset": 26640,
      "byteLength": 18696,
      "target": 34962
    },
    {
      "buffer": 0,
      "byteOffset": 45336,
      "byteLength": 9000,
      "target": 34962
    },
    {
      "buffer": 0,
      "byteOffset": 54336,
      "byteLength": 14136,
      "target": 34962
    }
  ],
  "buffers": [
    {
      "byteLength": 68472,
      "uri": "data:application/octet-stream;base64,"
    }
  ]
}