{
  "asset": {
    "version": "2.0",
    "generator": "TES-23 Cosmic Ray Renderer"
  },
  "extensionsUsed": [
    "KHR_materials_unlit"
  ],
  "extensionsRequired": [
    "KHR_materials_unlit"
  ],
  "scene": 0,
  "scenes": [
    {
      "nodes": [
        0
      ]
    }
  ],
  "nodes": [
    {
      "name": "CosmicRayEvent",
      "mesh": 0
    }
  ],
  "meshes": [
    {
      "name": "CosmicRayEvent",
      "primitives": [
        {
          "attributes": {
            "POSITION": 0
          },
          "material": 0,
          "mode": 1
        },
        {
          "attributes": {
            "POSITION": 1
          },
          "material": 1,
          "mode": 1
        },
        {
          "attributes": {
            "POSITION": 2
          },
          "material": 2,
          "mode": 1
        },
        {
          "attributes": {
            "POSITION": 3
          },
          "material": 3,
          "mode": 1
        },
        {
          "attributes": {
            "POSITION": 4
          },
          "material": 4,
          "mode": 1
        }
      ]
    }
  ],
  "materials": [
    {
      "name": "primary",
      "extensions": {
        "KHR_materials_unlit": {}
      },
      "pbrMetallicRoughness": {
        "baseColorFactor": [
          0.961,
          0.961,
          0.961,
          1
        ],
        "metallicFactor": 0,
        "roughnessFactor": 1
      }
    },
    {
      "name": "vertex",
      "extensions": {
        "KHR_materials_unlit": {}
      },
      "pbrMetallicRoughness": {
        "baseColorFactor": [
          0.902,
          0.902,
          0.902,
          0.9
        ],
        "metallicFactor": 0,
        "roughnessFactor": 1
      }
    },
    {
      "name": "em",
      "extensions": {
        "KHR_materials_unlit": {}
      },
      "pbrMetallicRoughness": {
        "baseColorFactor": [
          0.471,
          0.824,
          1,
          1
        ],
        "metallicFactor": 0,
        "roughnessFactor": 1
      }
    },
    {
      "name": "hadron",
      "extensions": {
        "KHR_materials_unlit": {}
      },
      "pbrMetallicRoughness": {
        "baseColorFactor": [
          0.549,
          1,
          0.745,
          1
        ],
        "metallicFactor": 0,
        "roughnessFactor": 1
      }
    },
    {
      "name": "delta",
      "extensions": {
        "KHR_materials_unlit": {}
      },
      "pbrMetallicRoughness": {
        "baseColorFactor": [
          0.804,
          0.647,
          1,
          1
        ],
        "metallicFactor": 0,
        "roughnessFactor": 1
      }
    }
  ],
  "accessors": [
    {
      "bufferView": 0,
      "byteOffset": 0,
      "componentType": 5126,
      "count": 1622,
      "type": "VEC3",
      "min": [
        -0.6848942637443542,
        -0.999932587146759,
        0
      ],
      "max": [
        0.6658778786659241,
        1.0214868783950806,
        0
      ]
    },
    {
      "bufferView": 1,
      "byteOffset": 0,
      "componentType": 5126,
      "count": 314,
      "type": "VEC3",
      "min": [
        -0.014653358608484268,
        -0.012318565510213375,
        -0.08443235605955124
      ],
      "max": [
        0.028921205550432205,
        0.018168702721595764,
        0.03350507467985153
      ]
    },
    {
      "bufferView": 2,
      "byteOffset": 0,
      "componentType": 5126,
      "count": 644,
      "type": "VEC3",
      "min": [
        -0.17290794849395752,
        -0.003362232819199562,
        -0.06009281054139137
      ],
      "max": [
        0.003085226519033313,
        0.24636803567409515,
        0.008432559669017792
      ]
    },
    {
      "bufferView": 3,
      "byteOffset": 0,
      "componentType": 5126,
      "count": 3324,
      "type": "VEC3",
      "min": [
        -0.2362794131040573,
        -0.07134301960468292,
        -0.41997259855270386
      ],
      "max": [
        0.04075241461396217,
        0.3041413426399231,
        0.48470425605773926
      ]
    },
    {
      "bufferView": 4,
      "byteOffset": 0,
      "componentType": 5126,
      "count": 920,
      "type": "VEC3",
      "min": [
        -0.21129512786865234,
        -0.07371435314416885,
        -0.4807876646518707
      ],
      "max": [
        0.04249327629804611,
        0.10447736084461212,
        0.2403491586446762
      ]
    }
  ],
  "bufferViews": [
    {
      "buffer": 0,
      "byteOffset": 0,
      "byteLength": 19464,
      "target": 34962
    },
    {
      "buffer": 0,
      "byteOffset": 19464,
      "byteLength": 3768,
      "target": 34962
    },
    {
      "buffer": 0,
      "byteOffset": 23232,
      "byteLength": 7728,
      "target": 34962
    },
    {
      "buffer": 0,
      "byteOffset": 30960,
      "byteLength": 39888,
      "target": 34962
    },
    {
      "buffer": 0,
      "byteOffset": 70848,
      "byteLength": 11040,
      "target": 34962
    }
  ],
  "buffers": [
    {
      "byteLength": 81888,
      "uri": "data:application/octet-stream;base64,"
    }
  ]
}