<?xml version="1.0" encoding="UTF-8"?>
<svg xmlns="http://www.w3.org/2000/svg" width="2000" height="2000" viewBox="0 0 2000 2000">
<g fill="none" stroke-linecap="round" stroke-linejoin="round">
  <path d="M 936.89 949.79 L 934.04 948.05 L 931.20 946.31 L 928.37 944.58 L 925.56 942.84 L 922.78 941.10 L 920.02 939.35 L 917.28 937.60 L 914.56 935.83 L 911.87 934.05 L 909.20 932.25 L 906.57 930.44 L 903.95 928.63 L 901.36 926.82 L 898.75 925.03 L 896.18 923.23 L 893.61 921.43 L 891.06 919.63 L 888.54 917.81 L 885.99 916.07 L 883.42 914.34 L 880.87 912.63 L 878.33 910.92 L 875.82 909.17 L 873.40 907.33 L 870.99 905.48 L 868.61 903.63 L 866.21 901.82 L 863.81 900.03 L 861.42 898.26 L 859.04 896.48 L 856.70 894.66 L 854.40 892.83 L 852.11 890.99 L 849.82 889.19 L 847.52 887.39 L 845.24 885.61 L 842.98 883.81 L 840.76 881.98 L 838.56 880.15 L 836.37 878.32 L 834.19 876.50 L 832.03 874.67 L 829.86 872.86 L 827.71 871.07 L 825.56 869.27 L 823.40 867.51 L 821.25 865.75 L 819.07 864.05 L 816.87 862.38 L 814.66 860.78 L 812.43 859.21 L 810.20 857.67 L 807.97 856.14 L 805.73 854.65 L 803.54 853.10 L 801.36 851.56 L 799.18 850.03 L 797.02 848.48 L 794.82 846.99 L 792.65 845.50 L 790.48 844.00" stroke="rgb(120,210,255)" stroke-opacity="0.855" stroke-width="1.64" />
  <path d="M 1001.99 1000.55 L 999.45 998.57 L 996.94 996.58 L 994.42 994.61 L 991.90 992.67 L 989.39 990.74 L 986.86 988.85 L 984.36 986.94 L 981.90 985.01 L 979.43 983.11 L 976.98 981.21 L 974.53 979.31 L 972.10 977.42 L 969.66 975.56 L 967.23 973.70 L 964.84 971.82 L 962.46 969.94 L 960.07 968.09 L 957.69 966.26 L 955.32 964.42 L 952.98 962.58 L 950.65 960.73 L 948.32 958.90 L 946.01 957.07 L 943.72 955.24 L 941.44 953.41 L 939.17 951.58 L 936.89 949.79 L 934.61 948.02 L 932.36 946.23 L 930.12 944.44" stroke="rgb(120,210,255)" stroke-opacity="0.855" stroke-width="1.64" />
  <path d="M 997.30 995.83 L 994.71 993.83 L 992.13 991.84 L 989.55 989.86 L 986.97 987.92 L 984.37 986.02 L 981.74 984.18 L 979.11 982.37 L 976.45 980.63 L 973.82 978.86 L 971.17 977.14 L 968.54 975.43 L 965.91 973.73 L 963.31 972.01 L 960.74 970.26 L 958.18 968.52 L 955.64 966.78 L 953.10 965.06 L 950.57 963.35 L 948.04 961.65 L 945.53 959.95 L 943.04 958.24 L 940.57 956.51 L 938.14 954.77 L 935.75 952.98 L 933.37 951.20 L 930.99 949.43 L 928.62 947.68 L 926.24 945.96 L 923.87 944.24 L 921.51 942.53 L 919.19 940.79 L 916.90 939.03 L 914.61 937.29 L 912.32 935.56 L 910.06 933.82 L 907.78 932.12 L 905.49 930.46 L 903.20 928.81 L 900.92 927.17 L 898.64 925.55 L 896.37 923.92 L 894.11 922.31 L 891.85 920.72 L 889.60 919.14 L 887.35 917.56 L 885.12 915.99 L 882.89 914.43 L 880.64 912.92 L 878.40 911.41 L 876.18 909.89 L 873.96 908.40 L 871.71 906.96 L 869.47 905.54 L 867.23 904.12 L 865.00 902.72 L 862.78 901.32 L 860.54 899.98 L 858.31 898.62 L 856.08 897.30 L 853.87 895.96 L 851.70 894.59 L 849.54 893.21 L 847.38 891.85 L 845.24 890.47" stroke="rgb(120,210,255)" stroke-opacity="0.854" stroke-width="1.64" />
  <path d="M 995.02 1000.88 L 992.38 998.95 L 989.74 997.04 L 987.11 995.15 L 984.53 993.22 L 981.95 991.28 L 979.39 989.36 L 976.85 987.43 L 974.32 985.51 L 971.79 983.61 L 969.27 981.72 L 966.76 979.83 L 964.27 977.94 L 961.79 976.06 L 959.34 974.15 L 956.87 972.29 L 954.44 970.40 L 952.01 968.53 L 949.59 966.68 L 947.16 964.84 L 944.76 963.00 L 942.42 961.11 L 940.12 959.19 L 937.82 957.28 L 935.53 955.38 L 933.25 953.48 L 930.99 951.59 L 928.73 949.72 L 926.47 947.86 L 924.23 946.00 L 922.03 944.12 L 919.85 942.23 L 917.65 940.39 L 915.45 938.56 L 913.25 936.74 L 911.06 934.94 L 908.87 933.16 L 906.71 931.34 L 904.56 929.53 L 902.42 927.73 L 900.24 926.00 L 898.06 924.28 L 895.89 922.57 L 893.73 920.86 L 891.58 919.16 L 889.40 917.53 L 887.23 915.89 L 885.05 914.28 L 882.88 912.70 L 880.71 911.13 L 878.55 909.56 L 876.40 908.00" stroke="rgb(120,210,255)" stroke-opacity="0.849" stroke-width="1.62" />
  <path d="M 1002.05 999.44 L 999.49 997.33 L 996.98 995.18 L 994.51 992.99 L 992.05 990.82 L 989.59 988.67 L 987.11 986.56 L 984.66 984.44 L 982.22 982.33 L 979.79 980.22 L 977.34 978.15 L 974.91 976.09 L 972.52 974.00 L 970.14 971.91 L 967.79 969.81 L 965.43 967.74 L 963.09 965.66 L 960.75 963.60 L 958.42 961.55" stroke="rgb(120,210,255)" stroke-opacity="0.846" stroke-width="1.61" />
  <path d="M 996.51 996.22 L 993.79 994.20 L 991.08 992.18 L 988.37 990.18 L 985.68 988.18 L 983.00 986.19 L 980.31 984.24 L 977.62 982.31 L 974.95 980.38 L 972.28 978.47 L 969.64 976.54 L 966.98 974.66 L 964.36 972.75 L 961.73 970.86 L 959.10 969.01 L 956.49 967.16 L 953.91 965.29 L 951.33 963.43 L 948.82 961.52 L 946.27 959.67 L 943.76 957.80 L 941.28 955.90 L 938.81 954.03 L 936.34 952.17 L 933.88 950.33 L 931.42 948.51" stroke="rgb(120,210,255)" stroke-opacity="0.845" stroke-width="1.61" />
  <path d="M 998.90 1001.11 L 996.14 999.01 L 993.41 996.91 L 990.69 994.80 L 987.99 992.69 L 985.31 990.59 L 982.62 988.51 L 979.96 986.42 L 977.31 984.34 L 974.67 982.27 L 972.03 980.22 L 969.39 978.19 L 966.76 976.17 L 964.10 974.21 L 961.49 972.21 L 958.87 970.24 L 956.24 968.31 L 953.64 966.36 L 951.01 964.48 L 948.39 962.60 L 945.76 960.75 L 943.13 958.92 L 940.53 957.09 L 937.91 955.30 L 935.32 953.49 L 932.76 951.65 L 930.22 949.82 L 927.68 948.01 L 925.13 946.24 L 922.58 944.48 L 920.06 942.70 L 917.56 940.91 L 915.07 939.14 L 912.59 937.36 L 910.12 935.60 L 907.67 933.83 L 905.21 932.09 L 902.75 930.37 L 900.31 928.65 L 897.92 926.89 L 895.53 925.14 L 893.16 923.38 L 890.82 921.59 L 888.50 919.80 L 886.19 918.02 L 883.89 916.25 L 881.62 914.46 L 879.35 912.68 L 877.10 910.90 L 874.86 909.12 L 872.62 907.37 L 870.37 905.64 L 868.14 903.91 L 865.91 902.19 L 863.70 900.47 L 861.50 898.75 L 859.32 897.03 L 857.15 895.31 L 854.99 893.60 L 852.83 891.90 L 850.67 890.21 L 848.52 888.54 L 846.36 886.90 L 844.21 885.26 L 842.07 883.63 L 839.96 881.97 L 837.86 880.33 L 835.76 878.69 L 833.68 877.05 L 831.60 875.42 L 829.53 873.81 L 827.45 872.21 L 825.38 870.63 L 823.29 869.08 L 821.22 867.53 L 819.16 865.99 L 817.10 864.45 L 815.04 862.95 L 812.97 861.46 L 810.91 859.99 L 808.87 858.49 L 806.85 857.00 L 804.81 855.55 L 802.78 854.10 L 800.74 852.67 L 798.72 851.24 L 796.69 849.84 L 794.65 848.48 L 792.62 847.12 L 790.60 845.75 L 788.58 844.41 L 786.57 843.07 L 784.57 841.73 L 782.59 840.39 L 780.61 839.05 L 778.65 837.70" stroke="rgb(120,210,255)" stroke-opacity="0.845" stroke-width="1.61" />
  <path d="M 951.25 956.52 L 948.63 954.61 L 946.06 952.66 L 943.56 950.67 L 941.12 948.63 L 938.67 946.65 L 936.20 944.71 L 933.72 942.80 L 931.25 940.90 L 928.79 939.01 L 926.36 937.09 L 923.96 935.15 L 921.57 933.22 L 919.17 931.33 L 916.79 929.42 L 914.41 927.55 L 912.02 925.72 L 909.66 923.86 L 907.32 922.01 L 905.03 920.12" stroke="rgb(120,210,255)" stroke-opacity="0.845" stroke-width="1.61" />
  <path d="M 962.46 969.94 L 960.13 967.40 L 957.82 964.87 L 955.49 962.38 L 953.17 959.89 L 950.85 957.42 L 948.54 954.96 L 946.23 952.51 L 943.92 950.09 L 941.68 947.62 L 939.44 945.16 L 937.18 942.74 L 934.89 940.37 L 932.63 937.99 L 930.37 935.64 L 928.09 933.33 L 925.82 931.01 L 923.55 928.73 L 921.27 926.47 L 919.02 924.21 L 916.77 921.96 L 914.54 919.71 L 912.31 917.47 L 910.10 915.24 L 907.90 912.99 L 905.70 910.77 L 903.53 908.55 L 901.36 906.33 L 899.19 904.13 L 897.04 901.93 L 894.92 899.72 L 892.80 897.52 L 890.72 895.30 L 888.62 893.12 L 886.55 890.92 L 884.48 888.74 L 882.42 886.56 L 880.37 884.40 L 878.30 882.26 L 876.24 880.14 L 874.18 878.02 L 872.13 875.92 L 870.10 873.82" stroke="rgb(120,210,255)" stroke-opacity="0.845" stroke-width="1.61" />
  <path d="M 997.14 1000.98 L 994.40 998.91 L 991.65 996.86 L 988.91 994.82 L 986.16 992.84 L 983.43 990.83 L 980.70 988.85 L 978.00 986.85 L 975.27 984.92 L 972.54 983.01 L 969.82 981.11 L 967.11 979.22 L 964.42 977.33 L 961.69 975.51 L 959.00 973.68 L 956.30 971.87 L 953.60 970.09 L 950.91 968.32 L 948.24 966.53 L 945.61 964.73 L 943.00 962.90 L 940.41 961.06 L 937.83 959.24 L 935.25 957.43 L 932.70 955.61 L 930.14 953.82 L 927.58 952.05 L 925.04 950.28 L 922.49 948.54 L 919.95 946.80 L 917.42 945.08 L 914.90 943.36 L 912.40 941.64 L 909.92 939.91 L 907.46 938.16 L 905.01 936.44 L 902.57 934.73 L 900.12 933.03 L 897.69 931.35 L 895.26 929.68 L 892.81 928.05 L 890.39 926.42 L 887.98 924.79 L 885.58 923.16 L 883.20 921.52 L 880.83 919.89 L 878.47 918.28 L 876.12 916.64 L 873.78 915.03 L 871.45 913.43 L 869.12 911.84 L 866.80 910.25 L 864.51 908.64 L 862.23 907.04 L 859.95 905.44 L 857.67 903.88 L 855.41 902.30 L 853.16 900.72 L 850.92 899.15 L 848.68 897.60 L 846.44 896.06" stroke="rgb(120,210,255)" stroke-opacity="0.844" stroke-width="1.60" />
  <path d="M 1002.24 1002.04 L 999.45 999.97 L 996.67 997.90 L 993.93 995.81 L 991.19 993.73 L 988.47 991.66 L 985.75 989.60 L 983.04 987.56 L 980.32 985.56 L 977.65 983.50 L 975.01 981.45 L 972.37 979.41 L 969.74 977.38 L 967.13 975.34 L 964.54 973.30 L 961.99 971.24 L 959.46 969.17 L 956.94 967.11 L 954.43 965.05 L 951.92 963.01 L 949.42 960.99 L 946.93 958.97 L 944.47 956.94 L 941.99 954.94 L 939.49 953.00 L 937.00 951.07 L 934.53 949.12 L 932.06 947.21" stroke="rgb(120,210,255)" stroke-opacity="0.844" stroke-width="1.60" />
  <path d="M 948.32 958.90 L 945.59 957.57 L 942.86 956.25 L 940.14 954.95 L 937.45 953.61 L 934.76 952.31 L 932.10 950.95 L 929.46 949.60 L 926.78 948.36" stroke="rgb(120,210,255)" stroke-opacity="0.463" stroke-width="1.60" />
  <path d="M 1000.97 997.33 L 998.18 995.29 L 995.41 993.25 L 992.65 991.22 L 989.89 989.20 L 987.17 987.17 L 984.45 985.14 L 981.75 983.12 L 979.06 981.11 L 976.38 979.11 L 973.71 977.11 L 971.05 975.12 L 968.40 973.14 L 965.75 971.19 L 963.11 969.24 L 960.47 967.32 L 957.84 965.41 L 955.21 963.51 L 952.60 961.62 L 949.99 959.74 L 947.40 957.86 L 944.84 955.96 L 942.27 954.09 L 939.73 952.21 L 937.19 950.35 L 934.66 948.49 L 932.15 946.63 L 929.63 944.79 L 927.12 942.98 L 924.60 941.19 L 922.09 939.42 L 919.59 937.65 L 917.09 935.90 L 914.63 934.11 L 912.14 932.38 L 909.66 930.68 L 907.19 928.97 L 904.73 927.27 L 902.29 925.57 L 899.84 923.88 L 897.41 922.21 L 895.00 920.52 L 892.62 918.81 L 890.24 917.11 L 887.86 915.44 L 885.48 913.79 L 883.11 912.16 L 880.71 910.57 L 878.32 909.00 L 875.94 907.43 L 873.57 905.86 L 871.22 904.30 L 868.87 902.74 L 866.53 901.20 L 864.19 899.67 L 861.86 898.15 L 859.53 896.65 L 857.21 895.16 L 854.87 893.72 L 852.53 892.30 L 850.18 890.91 L 847.86 889.50 L 845.56 888.08 L 843.27 886.65 L 841.01 885.21 L 838.75 883.78 L 836.48 882.38 L 834.22 881.00 L 831.97 879.61 L 829.72 878.26 L 827.47 876.91 L 825.23 875.56 L 823.01 874.21 L 820.78 872.90 L 818.56 871.60 L 816.35 870.29 L 814.15 869.00 L 811.97 867.68 L 809.81 866.35 L 807.68 864.98 L 805.57 863.61 L 803.46 862.25 L 801.35 860.93 L 799.24 859.61 L 797.14 858.30 L 795.04 857.00 L 792.94 855.72 L 790.85 854.45 L 788.78 853.18 L 786.70 851.91 L 784.65 850.64 L 782.60 849.37 L 780.56 848.11 L 778.52 846.86" stroke="rgb(120,210,255)" stroke-opacity="0.842" stroke-width="1.60" />
  <path d="M 1000.91 996.36 L 998.77 994.75 L 996.66 993.13 L 994.57 991.51 L 992.48 989.88 L 990.43 988.24 L 988.38 986.60 L 986.34 984.99 L 984.23 983.47 L 982.14 981.94 L 980.03 980.46 L 978.02 978.86 L 976.03 977.26 L 974.00 975.72 L 971.98 974.19 L 969.97 972.65 L 967.99 971.10 L 966.04 969.52 L 964.18 967.86 L 962.32 966.21 L 960.43 964.60 L 958.58 962.98 L 956.71 961.38 L 954.89 959.75 L 953.07 958.13 L 951.25 956.52 L 949.52 954.84 L 947.81 953.16 L 946.08 951.50 L 944.37 949.84 L 942.62 948.25 L 940.89 946.65 L 939.15 945.06 L 937.41 943.49 L 935.68 941.92 L 933.97 940.36 L 932.26 938.83 L 930.53 937.36 L 928.83 935.89 L 927.11 934.43 L 925.42 932.97 L 923.74 931.49 L 922.11 930.02 L 920.55 928.47 L 919.01 926.93 L 917.51 925.35 L 916.00 923.79 L 914.49 922.24 L 913.02 920.67 L 911.57 919.09" stroke="rgb(120,210,255)" stroke-opacity="0.451" stroke-width="1.53" />
  <path d="M 997.55 999.52 L 995.60 998.17 L 993.68 996.80 L 991.80 995.37 L 989.97 993.91 L 988.08 992.54 L 986.19 991.18 L 984.30 989.84 L 982.43 988.49 L 980.59 987.12 L 978.76 985.75 L 976.94 984.38 L 975.11 983.06 L 973.27 981.74 L 971.46 980.41 L 969.63 979.11 L 967.84 977.78 L 966.09 976.41 L 964.36 975.02 L 962.63 973.65 L 960.84 972.37 L 959.07 971.10 L 957.28 969.85 L 955.52 968.59 L 953.77 967.31 L 951.98 966.13 L 950.21 964.94 L 948.47 963.73 L 946.72 962.54 L 945.00 961.32 L 943.31 960.08 L 941.61 958.85 L 939.92 957.63 L 938.24 956.40 L 936.59 955.16 L 934.95 953.90 L 933.34 952.62 L 931.77 951.31 L 930.21 949.98 L 928.65 948.68 L 927.06 947.44 L 925.47 946.23 L 923.88 945.02 L 922.28 943.83 L 920.70 942.62 L 919.15 941.39" stroke="rgb(120,210,255)" stroke-opacity="0.438" stroke-width="1.46" />
  <path d="M 1000.88 997.74 L 998.12 995.73 L 995.37 993.72 L 992.63 991.72 L 989.88 989.77 L 987.13 987.84 L 984.38 985.92 L 981.64 984.03 L 978.95 982.08 L 976.24 980.19 L 973.53 978.31 L 970.86 976.42 L 968.19 974.53 L 965.54 972.64 L 962.91 970.76 L 960.28 968.88 L 957.67 967.01 L 955.06 965.14 L 952.49 963.25 L 949.94 961.36 L 947.40 959.48 L 944.85 957.61 L 942.34 955.73 L 939.83 953.86 L 937.34 951.99 L 934.87 950.12 L 932.41 948.24 L 929.95 946.39 L 927.48 944.58 L 925.02 942.77 L 922.57 940.97 L 920.12 939.19 L 917.72 937.37 L 915.35 935.52 L 912.98 933.70 L 910.62 931.89 L 908.27 930.07 L 905.94 928.26 L 903.62 926.45 L 901.33 924.62 L 899.05 922.81 L 896.80 920.97 L 894.61 919.08 L 892.43 917.20 L 890.26 915.32 L 888.12 913.43 L 885.99 911.54 L 883.86 909.67 L 881.73 907.82 L 879.61 905.97 L 877.51 904.13 L 875.41 902.30" stroke="rgb(255,210,135)" stroke-opacity="0.656" stroke-width="1.31" />
  <path d="M 966.55 976.31 L 965.43 974.55 L 964.30 972.82 L 963.14 971.10 L 961.96 969.39 L 960.76 967.72 L 959.58 966.04 L 958.45 964.33 L 957.28 962.67 L 956.15 961.01 L 955.16 959.25 L 954.20 957.50 L 953.15 955.77 L 952.08 954.06 L 950.94 952.41 L 949.65 950.86 L 948.37 949.32 L 947.11 947.77 L 945.86 946.23 L 944.64 944.67 L 943.42 943.13 L 942.20 941.60 L 940.88 940.14 L 939.61 938.66 L 938.32 937.20 L 937.05 935.75 L 935.79 934.28" stroke="rgb(140,255,190)" stroke-opacity="0.584" stroke-width="1.30" />
  <path d="M 947.11 947.77 L 946.06 945.90 L 944.95 944.06 L 943.86 942.24 L 942.80 940.43 L 941.71 938.66 L 940.51 936.95 L 939.25 935.30 L 938.04 933.61 L 936.82 931.92 L 935.60 930.25 L 934.40 928.58 L 933.17 926.94 L 931.92 925.31 L 930.51 923.83 L 929.12 922.35 L 927.75 920.85 L 926.36 919.40 L 924.93 917.99 L 923.50 916.61 L 922.07 915.23 L 920.66 913.86 L 919.22 912.51 L 917.70 911.28 L 916.21 910.03 L 914.77 908.73 L 913.37 907.41" stroke="rgb(140,255,190)" stroke-opacity="0.580" stroke-width="1.28" />
  <path d="M 1002.01 999.61 L 999.98 1000.47 L 997.91 1001.27 L 995.84 1002.07 L 993.76 1002.95 L 991.68 1003.83 L 989.61 1004.75 L 987.55 1005.64 L 985.50 1006.52 L 983.45 1007.42 L 981.45 1008.36 L 979.45 1009.31 L 977.43 1010.24 L 975.40 1011.13 L 973.37 1012.02 L 971.41 1012.92 L 969.43 1013.81 L 967.48 1014.73 L 965.51 1015.64 L 963.57 1016.53 L 961.63 1017.45 L 959.70 1018.38 L 957.80 1019.33 L 955.90 1020.27 L 954.00 1021.19 L 952.10 1022.13 L 950.23 1023.12 L 948.38 1024.14 L 946.55 1025.19 L 944.74 1026.27 L 942.99 1027.33 L 941.25 1028.39 L 939.43 1029.37 L 937.58 1030.37 L 935.71 1031.32 L 933.87 1032.25 L 932.01 1033.19 L 930.14 1034.12 L 928.31 1035.12 L 926.51 1036.15 L 924.73 1037.14 L 922.94 1038.11 L 921.18 1039.09 L 919.40 1040.11 L 917.61 1041.13 L 915.83 1042.15 L 914.08 1043.19 L 912.34 1044.25 L 910.65 1045.41 L 908.99 1046.56 L 907.37 1047.74 L 905.76 1048.92 L 904.18 1050.06 L 902.58 1051.18 L 900.98 1052.30 L 899.41 1053.39 L 897.85 1054.48 L 896.32 1055.59 L 894.79 1056.70 L 893.30 1057.78 L 891.81 1058.86 L 890.32 1059.99 L 888.84 1061.12 L 887.37 1062.23 L 885.91 1063.36 L 884.47 1064.52" stroke="rgb(255,210,135)" stroke-opacity="0.433" stroke-width="1.24" />
  <path d="M 960.34 1015.95 L 958.40 1015.40 L 956.42 1014.99 L 954.46 1014.58 L 952.53 1014.22 L 950.69 1013.79 L 948.85 1013.33 L 947.00 1012.89 L 945.14 1012.32 L 943.28 1011.84 L 941.40 1011.27 L 939.54 1010.71 L 937.68 1010.15 L 935.83 1009.61 L 934.04 1009.10 L 932.27 1008.59 L 930.50 1008.07 L 928.76 1007.56 L 927.00 1007.06 L 925.25 1006.54 L 923.51 1006.03 L 921.74 1005.49 L 919.95 1004.96 L 918.18 1004.44 L 916.41 1003.93 L 914.61 1003.43 L 912.81 1002.99 L 911.00 1002.54 L 909.21 1002.09 L 907.44 1001.67 L 905.67 1001.26 L 903.89 1000.77 L 902.11 1000.29 L 900.38 999.77 L 898.65 999.21 L 896.90 998.68 L 895.15 998.19 L 893.44 997.71 L 891.74 997.24 L 890.04 996.77 L 888.31 996.22 L 886.61 995.65 L 884.91 995.13 L 883.21 994.53 L 881.53 993.95 L 879.85 993.38 L 878.18 992.79 L 876.52 992.18 L 874.87 991.54 L 873.24 990.87 L 871.64 990.23 L 870.03 989.58 L 868.44 988.94 L 866.85 988.31 L 865.25 987.64 L 863.68 986.96 L 862.12 986.28 L 860.54 985.60 L 858.93 984.90 L 857.33 984.20 L 855.72 983.55 L 854.11 982.91 L 852.53 982.26" stroke="rgb(205,165,255)" stroke-opacity="0.719" stroke-width="1.24" />
  <path d="M 937.10 929.69 L 935.88 927.84 L 934.65 926.01 L 933.42 924.19 L 932.07 922.44 L 930.58 920.81 L 929.11 919.19 L 927.47 917.81 L 925.90 916.47 L 924.44 915.05 L 923.01 913.61 L 921.66 912.14 L 920.30 910.69 L 918.93 909.20 L 917.51 907.75 L 916.04 906.36 L 914.76 904.88 L 913.46 903.41 L 912.13 902.00 L 910.89 900.57 L 909.61 899.12 L 908.36 897.68 L 907.21 896.10 L 905.99 894.60 L 904.78 893.06 L 903.67 891.48 L 902.53 889.95 L 901.39 888.41 L 900.25 886.91 L 899.20 885.42 L 897.97 884.01 L 896.75 882.61 L 895.54 881.22 L 894.33 879.83 L 893.13 878.46 L 891.93 877.07 L 890.72 875.66 L 889.51 874.25 L 888.38 872.81 L 887.22 871.43 L 886.00 870.08 L 884.89 868.64 L 883.82 867.17 L 882.76 865.72 L 881.82 864.25 L 880.86 862.82 L 879.94 861.39 L 879.02 860.02 L 878.17 858.66 L 877.30 857.33 L 876.45 856.01 L 875.62 854.68 L 874.71 853.41" stroke="rgb(140,255,190)" stroke-opacity="0.566" stroke-width="1.23" />
  <path d="M 1001.46 998.29 L 1000.33 995.66 L 999.22 993.02 L 998.13 990.41 L 997.05 987.80 L 996.08 985.20 L 995.09 982.60 L 994.12 980.00 L 993.15 977.41 L 992.23 974.79 L 991.32 972.19 L 990.47 969.59 L 989.57 967.02 L 988.70 964.45 L 987.83 961.89 L 986.92 959.38 L 986.03 956.88 L 985.16 954.38 L 984.21 951.92 L 983.27 949.47 L 982.20 947.07 L 981.12 944.69 L 980.05 942.32 L 979.01 939.95 L 977.93 937.60 L 976.93 935.22 L 975.95 932.82 L 974.91 930.46 L 973.87 928.10 L 972.83 925.75 L 971.88 923.40 L 970.93 921.06 L 970.00 918.72 L 969.09 916.41 L 968.19 914.10 L 967.25 911.84 L 966.32 909.56 L 965.41 907.29 L 964.51 905.03 L 963.64 902.75 L 962.77 900.49 L 961.94 898.22 L 961.15 895.93 L 960.35 893.65 L 959.53 891.41 L 958.68 889.18 L 957.88 886.95 L 957.10 884.74 L 956.39 882.53 L 955.69 880.30 L 955.01 878.05 L 954.36 875.83 L 953.65 873.63 L 952.98 871.46 L 952.35 869.26 L 951.76 867.04 L 951.08 864.84 L 950.38 862.65 L 949.69 860.46 L 949.01 858.27 L 948.33 856.09 L 947.69 853.91 L 947.06 851.72 L 946.46 849.53 L 945.83 847.38 L 945.23 845.25 L 944.62 843.14 L 944.02 841.03 L 943.40 838.93 L 942.79 836.85 L 942.15 834.79 L 941.57 832.72" stroke="rgb(255,210,135)" stroke-opacity="0.430" stroke-width="1.23" />
  <path d="M 946.78 965.93 L 944.70 965.91 L 942.64 965.87 L 940.57 965.73 L 938.53 965.58 L 936.49 965.46 L 934.49 965.34 L 932.51 965.16 L 930.55 964.98 L 928.59 964.79 L 926.74 964.48 L 924.88 964.19 L 923.08 963.72 L 921.36 963.07 L 919.66 962.40 L 917.98 961.73 L 916.34 961.08 L 914.71 960.46 L 913.04 959.87 L 911.39 959.24 L 909.82 958.49 L 908.27 957.74 L 906.72 957.10 L 905.17 956.46 L 903.63 955.77 L 902.11 955.06 L 900.65 954.23 L 899.21 953.47 L 897.76 952.72 L 896.31 952.06" stroke="rgb(140,255,190)" stroke-opacity="0.564" stroke-width="1.23" />
  <path d="M 997.91 1001.34 L 997.82 1004.60 L 997.70 1007.85 L 997.61 1011.09 L 997.49 1014.30 L 997.33 1017.51 L 997.21 1020.71 L 997.07 1023.90 L 996.94 1027.08 L 996.82 1030.23 L 996.69 1033.37 L 996.57 1036.49 L 996.47 1039.62 L 996.36 1042.72 L 996.24 1045.81 L 996.11 1048.89 L 996.00 1051.95 L 995.79 1055.00 L 995.57 1058.04 L 995.32 1061.07 L 995.07 1064.08 L 994.79 1067.08 L 994.53 1070.07 L 994.28 1073.05 L 994.06 1076.02 L 993.85 1078.98 L 993.69 1081.93 L 993.52 1084.88 L 993.34 1087.81 L 993.13 1090.73 L 992.91 1093.64 L 992.71 1096.54 L 992.50 1099.42 L 992.35 1102.29 L 992.33 1105.16 L 992.31 1108.02 L 992.33 1110.86 L 992.35 1113.70 L 992.44 1116.52 L 992.51 1119.33 L 992.58 1122.13 L 992.64 1124.93 L 992.73 1127.70 L 992.78 1130.47 L 992.81 1133.23 L 992.81 1135.98 L 992.83 1138.72 L 992.85 1141.44 L 992.85 1144.16 L 992.85 1146.86 L 992.86 1149.56 L 992.83 1152.24 L 992.85 1154.91 L 992.90 1157.57 L 992.96 1160.22 L 993.02 1162.86 L 993.09 1165.49 L 993.15 1168.11 L 993.19 1170.71 L 993.24 1173.31 L 993.26 1175.89 L 993.34 1178.47 L 993.46 1181.03 L 993.60 1183.58 L 993.73 1186.12 L 993.87 1188.65 L 994.00 1191.17 L 994.14 1193.69 L 994.25 1196.19 L 994.37 1198.68 L 994.48 1201.16 L 994.60 1203.62" stroke="rgb(205,165,255)" stroke-opacity="0.713" stroke-width="1.22" />
  <path d="M 999.60 999.19 L 997.33 996.93 L 995.03 994.72 L 992.74 992.52 L 990.48 990.31 L 988.24 988.10 L 986.08 985.82 L 983.92 983.55 L 981.77 981.29 L 979.65 979.03 L 977.46 976.85 L 975.26 974.70 L 973.08 972.56 L 970.89 970.44 L 968.74 968.29 L 966.59 966.15 L 964.44 964.04 L 962.30 961.93 L 960.16 959.83 L 958.04 957.73 L 955.93 955.64 L 953.77 953.62 L 951.62 951.60 L 949.47 949.60 L 947.35 947.58 L 945.21 945.60 L 943.12 943.59 L 941.02 941.60 L 938.93 939.61 L 936.86 937.63 L 934.80 935.66 L 932.75 933.68 L 930.69 931.73 L 928.63 929.80 L 926.57 927.89 L 924.53 925.98 L 922.50 924.07 L 920.46 922.19 L 918.43 920.31 L 916.38 918.48 L 914.37 916.61 L 912.38 914.74 L 910.43 912.85 L 908.46 910.99 L 906.51 909.14 L 904.58 907.27 L 902.67 905.39 L 900.79 903.50 L 898.92 901.61 L 897.07 899.73 L 895.22 897.84" stroke="rgb(205,165,255)" stroke-opacity="0.711" stroke-width="1.22" />
  <path d="M 906.37 914.81 L 905.48 913.18 L 904.69 911.58 L 903.99 909.97 L 903.32 908.37 L 902.68 906.78 L 902.22 905.10 L 901.89 903.31 L 901.57 901.55 L 901.20 899.84 L 900.82 898.17 L 900.44 896.46 L 899.92 894.68 L 899.40 892.87 L 898.93 891.08 L 898.46 889.25 L 897.99 887.46 L 897.48 885.61 L 896.99 883.81 L 896.42 882.05 L 895.85 880.21 L 895.26 878.41 L 894.66 876.59 L 893.94 874.86 L 893.31 873.18 L 892.71 871.59 L 892.13 870.00 L 891.52 868.45 L 890.87 867.05 L 890.22 865.65 L 889.57 864.26 L 888.93 862.89 L 888.35 861.51 L 887.79 860.13 L 887.10 858.83 L 886.34 857.59 L 885.62 856.54" stroke="rgb(140,255,190)" stroke-opacity="0.561" stroke-width="1.22" />
  <path d="M 999.16 999.46 L 997.24 998.25 L 995.37 996.97 L 993.50 995.71 L 991.73 994.35 L 989.97 992.97 L 988.23 991.62 L 986.49 990.27 L 984.72 989.00 L 983.01 987.66 L 981.30 986.34 L 979.63 985.01 L 978.00 983.68" stroke="rgb(140,255,190)" stroke-opacity="0.561" stroke-width="1.22" />
  <path d="M 995.79 1055.00 L 994.52 1057.41 L 993.27 1059.75 L 992.03 1062.13 L 990.79 1064.49 L 989.57 1066.87 L 988.35 1069.25 L 987.14 1071.63 L 985.92 1074.00 L 984.69 1076.35 L 983.40 1078.67" stroke="rgb(205,165,255)" stroke-opacity="0.708" stroke-width="1.21" />
  <path d="M 1001.32 999.62 L 1001.12 1002.69 L 1000.92 1005.76 L 1000.71 1008.84 L 1000.47 1011.90 L 1000.22 1014.95 L 999.93 1017.99 L 999.62 1021.02 L 999.32 1024.04 L 998.98 1027.06 L 998.67 1030.06 L 998.34 1033.06 L 998.03 1036.04 L 997.74 1039.01 L 997.45 1041.97 L 997.18 1044.93 L 996.91 1047.87 L 996.63 1050.80 L 996.33 1053.73 L 996.01 1056.64 L 995.71 1059.54 L 995.32 1062.41 L 994.95 1065.23 L 994.61 1068.05 L 994.23 1070.83 L 993.83 1073.59 L 993.43 1076.33 L 993.05 1079.06 L 992.72 1081.81 L 992.43 1084.54 L 992.13 1087.27 L 991.86 1089.98 L 991.58 1092.70 L 991.31 1095.41 L 991.08 1098.13 L 990.84 1100.83 L 990.61 1103.51 L 990.36 1106.18 L 990.06 1108.83 L 989.74 1111.47 L 989.42 1114.11 L 989.06 1116.72 L 988.71 1119.31 L 988.33 1121.90 L 987.95 1124.48 L 987.54 1127.06 L 987.13 1129.62 L 986.73 1132.17 L 986.38 1134.74 L 986.04 1137.29 L 985.69 1139.84 L 985.36 1142.38 L 985.00 1144.90 L 984.70 1147.43 L 984.39 1149.93 L 984.07 1152.42 L 983.75 1154.89" stroke="rgb(205,165,255)" stroke-opacity="0.707" stroke-width="1.21" />
  <path d="M 1001.06 998.18 L 998.40 995.97 L 995.77 993.75 L 993.16 991.52 L 990.54 989.34 L 987.92 987.17 L 985.30 985.02 L 982.69 982.88 L 980.12 980.72 L 977.55 978.59 L 974.98 976.47 L 972.43 974.35 L 969.90 972.22 L 967.38 970.11 L 964.86 968.02 L 962.33 965.96 L 959.77 963.97 L 957.20 962.00 L 954.64 960.03 L 952.10 958.07 L 949.55 956.13 L 947.02 954.19 L 944.49 952.27 L 941.96 950.38 L 939.43 948.51 L 936.91 946.64 L 934.37 944.81 L 931.84 943.00 L 929.31 941.20 L 926.82 939.37 L 924.35 937.54 L 921.90 935.71 L 919.46 933.88 L 917.03 932.07 L 914.62 930.26 L 912.21 928.45 L 909.80 926.66 L 907.41 924.88 L 905.02 923.11 L 902.62 921.37 L 900.25 919.62 L 897.88 917.87 L 895.52 916.14" stroke="rgb(140,255,190)" stroke-opacity="0.741" stroke-width="1.20" />
  <path d="M 998.15 996.38 L 995.27 994.44 L 992.41 992.50 L 989.56 990.56 L 986.72 988.63 L 983.91 986.69 L 981.09 984.76 L 978.30 982.84 L 975.52 980.93 L 972.74 979.03 L 969.96 977.16 L 967.17 975.33 L 964.38 973.53 L 961.58 971.76 L 958.79 970.00 L 956.02 968.23 L 953.27 966.47 L 950.52 964.72 L 947.78 962.97 L 945.06 961.23 L 942.38 959.45 L 939.68 957.73 L 937.00 955.99 L 934.36 954.21 L 931.79 952.36 L 929.23 950.52 L 926.70 948.65 L 924.18 946.80 L 921.66 944.96 L 919.12 943.18 L 916.61 941.38 L 914.11 939.57 L 911.62 937.79 L 909.13 936.01 L 906.66 934.24 L 904.19 932.48 L 901.74 930.72 L 899.23 929.06 L 896.74 927.40 L 894.27 925.73 L 891.79 924.09 L 889.35 922.42 L 886.92 920.74 L 884.49 919.10 L 882.09 917.43 L 879.67 915.81 L 877.27 914.19 L 874.87 912.58 L 872.49 910.97 L 870.11 909.37 L 867.75 907.77 L 865.39 906.19 L 863.05 904.59 L 860.73 903.00 L 858.42 901.40 L 856.12 899.80 L 853.83 898.22 L 851.55 896.64 L 849.28 895.07 L 847.03 893.49 L 844.79 891.92 L 842.56 890.33 L 840.37 888.73 L 838.19 887.12 L 836.02 885.53 L 833.87 883.92 L 831.74 882.32 L 829.61 880.71 L 827.51 879.11 L 825.40 877.52 L 823.30 875.93 L 821.21 874.36 L 819.13 872.79 L 817.06 871.23 L 815.00 869.67 L 812.97 868.08 L 810.95 866.50 L 808.93 864.94 L 806.92 863.38 L 804.91 861.84 L 802.91 860.30 L 800.89 858.80 L 798.89 857.30 L 796.91 855.79 L 794.93 854.28 L 792.96 852.78 L 790.99 851.31" stroke="rgb(140,255,190)" stroke-opacity="0.740" stroke-width="1.20" />
  <path d="M 1002.42 1000.84 L 999.56 999.50 L 996.69 998.20 L 993.84 996.90 L 991.03 995.55 L 988.23 994.23 L 985.44 992.91 L 982.67 991.60 L 979.90 990.30 L 977.12 989.04 L 974.34 987.85 L 971.54 986.74 L 968.76 985.63 L 965.96 984.57 L 963.18 983.49 L 960.46 982.33 L 957.74 981.23 L 955.04 980.10 L 952.33 978.98 L 949.61 977.90 L 946.93 976.79 L 944.25 975.68 L 941.61 974.56 L 938.97 973.47 L 936.31 972.43 L 933.67 971.38 L 931.05 970.35 L 928.43 969.32 L 925.83 968.28 L 923.22 967.27 L 920.60 966.31 L 917.98 965.40 L 915.36 964.50 L 912.75 963.60 L 910.14 962.73 L 907.53 961.87 L 904.93 961.01 L 902.35 960.13 L 899.78 959.31 L 897.21 958.49 L 894.65 957.69 L 892.10 956.90 L 889.56 956.09 L 887.05 955.26 L 884.54 954.43 L 882.02 953.67 L 879.51 952.94 L 877.01 952.23 L 874.54 951.54 L 872.10 950.83 L 869.67 950.13 L 867.26 949.43 L 864.86 948.71 L 862.48 948.01 L 860.11 947.31 L 857.74 946.63 L 855.40 945.94 L 853.07 945.23 L 850.74 944.48 L 848.41 943.80 L 846.09 943.11 L 843.80 942.40 L 841.52 941.71 L 839.26 941.01 L 837.02 940.26 L 834.79 939.51 L 832.60 938.72 L 830.41 937.93 L 828.24 937.14 L 826.07 936.33 L 823.91 935.53 L 821.74 934.77 L 819.58 933.99 L 817.42 933.27 L 815.26 932.55 L 813.12 931.80 L 811.01 931.05 L 808.90 930.29 L 806.80 929.51 L 804.71 928.74 L 802.62 927.96 L 800.55 927.18 L 798.46 926.42 L 796.39 925.62 L 794.31 924.88 L 792.25 924.13 L 790.22 923.39 L 788.17 922.64 L 786.13 921.90 L 784.09 921.15" stroke="rgb(205,165,255)" stroke-opacity="0.702" stroke-width="1.19" />
  <path d="M 1193.79 1100.60 L 1196.74 1102.38 L 1199.70 1104.11 L 1202.68 1105.78 L 1205.63 1107.44 L 1208.58 1109.10 L 1211.51 1110.79 L 1214.41 1112.49 L 1217.31 1114.18 L 1220.20 1115.86 L 1223.10 1117.49 L 1225.99 1119.09 L 1228.88 1120.68 L 1231.72 1122.33 L 1234.54 1123.97 L 1237.34 1125.63 L 1240.14 1127.27 L 1242.94 1128.90 L 1245.72 1130.53 L 1248.50 1132.12 L 1251.28 1133.72 L 1254.03 1135.32 L 1256.77 1136.90 L 1259.51 1138.48 L 1262.23 1140.08 L 1264.94 1141.67 L 1267.65 1143.24 L 1270.35 1144.80 L 1273.04 1146.36 L 1275.71 1147.92 L 1278.38 1149.47 L 1281.03 1151.03 L 1283.65 1152.59 L 1286.26 1154.15 L 1288.86 1155.72 L 1291.41 1157.32" stroke="rgb(140,255,190)" stroke-opacity="0.737" stroke-width="1.19" />
  <path d="M 1003.07 996.94 L 1001.31 997.65 L 999.54 998.45 L 997.74 999.26 L 995.97 1000.08 L 994.23 1000.93 L 992.51 1001.75 L 990.85 1002.57 L 989.16 1003.34 L 987.51 1004.09 L 985.92 1004.82 L 984.35 1005.58 L 982.74 1006.32 L 981.15 1007.05 L 979.64 1007.71 L 978.14 1008.36 L 976.61 1009.03 L 975.11 1009.66 L 973.56 1010.32 L 972.03 1010.96 L 970.52 1011.57 L 969.04 1012.14 L 967.57 1012.75 L 966.11 1013.37 L 964.66 1014.04 L 963.22 1014.70 L 961.80 1015.36 L 960.34 1015.95 L 958.94 1016.49 L 957.54 1016.91 L 956.13 1017.28 L 954.77 1017.61 L 953.42 1017.95 L 952.11 1018.33 L 950.81 1018.70 L 949.55 1019.15 L 948.36 1019.64 L 947.17 1020.14 L 946.00 1020.63 L 944.82 1021.11 L 943.66 1021.58 L 942.50 1022.03" stroke="rgb(205,165,255)" stroke-opacity="0.489" stroke-width="1.19" />
  <path d="M 1001.00 998.49 L 999.19 997.07 L 997.40 995.64 L 995.63 994.20 L 993.86 992.77 L 992.06 991.39 L 990.28 990.01 L 988.49 988.65 L 986.70 987.31 L 984.94 985.95 L 983.19 984.60 L 981.47 983.21 L 979.75 981.86 L 978.05 980.48 L 976.34 979.12 L 974.67 977.73 L 973.01 976.35 L 971.36 974.97 L 969.71 973.60 L 968.11 972.18 L 966.52 970.78 L 964.94 969.36 L 963.42 967.89 L 961.95 966.39 L 960.52 964.86 L 959.07 963.38 L 957.59 961.95 L 956.13 960.50 L 954.61 959.12 L 953.11 957.74 L 951.60 956.38 L 950.09 955.03 L 948.57 953.71 L 947.09 952.34 L 945.58 951.02 L 944.07 949.70 L 942.60 948.35 L 941.15 947.00 L 939.68 945.67 L 938.19 944.38 L 936.70 943.09 L 935.22 941.81 L 933.79 940.49 L 932.36 939.18 L 930.99 937.81 L 929.61 936.46 L 928.23 935.12 L 926.88 933.77 L 925.51 932.44 L 924.24 931.03 L 922.99 929.61 L 921.79 928.16 L 920.54 926.76 L 919.29 925.36 L 918.02 924.01 L 916.71 922.69 L 915.43 921.36 L 914.16 920.03 L 912.92 918.69 L 911.77 917.27 L 910.61 915.87" stroke="rgb(140,255,190)" stroke-opacity="0.552" stroke-width="1.19" />
  <path d="M 998.86 1001.53 L 996.96 1000.18 L 995.06 998.86 L 993.15 997.57 L 991.21 996.32 L 989.29 995.09 L 987.35 993.90 L 985.36 992.81 L 983.40 991.70 L 981.42 990.63 L 979.45 989.56 L 977.51 988.46 L 975.62 987.28 L 973.69 986.18 L 971.79 985.07 L 969.90 983.94 L 967.98 982.90 L 966.06 981.88 L 964.16 980.83 L 962.28 979.76 L 960.36 978.77 L 958.44 977.81 L 956.55 976.82 L 954.69 975.80 L 952.78 974.89 L 950.85 974.03 L 948.91 973.20 L 947.02 972.29" stroke="rgb(140,255,190)" stroke-opacity="0.551" stroke-width="1.18" />
  <path d="M 1000.79 994.68 L 998.01 992.76 L 995.22 990.86 L 992.45 988.98 L 989.69 987.09 L 986.93 985.22 L 984.17 983.38 L 981.39 981.60 L 978.63 979.79 L 975.88 978.00 L 973.14 976.22 L 970.39 974.47 L 967.68 972.71 L 964.97 970.94 L 962.29 969.15 L 959.63 967.37 L 957.00 965.56 L 954.39 963.75 L 951.79 961.94 L 949.19 960.15 L 946.60 958.38 L 944.03 956.60 L 941.45 954.84" stroke="rgb(140,255,190)" stroke-opacity="0.734" stroke-width="1.18" />
  <path d="M 1000.33 999.94 L 998.32 1000.95 L 996.31 1001.95 L 994.33 1002.94 L 992.36 1003.92 L 990.51 1004.98 L 988.64 1005.99 L 986.78 1007.00 L 984.92 1008.00 L 983.11 1009.05 L 981.30 1010.10 L 979.45 1011.12 L 977.65 1012.15 L 975.75 1013.12 L 973.84 1014.05 L 971.96 1015.01 L 970.06 1015.92 L 968.19 1016.85 L 966.31 1017.69 L 964.43 1018.50 L 962.54 1019.31 L 960.65 1020.09 L 958.75 1020.84 L 956.86 1021.59 L 954.98 1022.36 L 953.14 1023.13 L 951.28 1023.82 L 949.42 1024.39 L 947.57 1024.98 L 945.70 1025.58 L 943.86 1026.21 L 942.01 1026.76 L 940.15 1027.23 L 938.29 1027.69 L 936.47 1028.16 L 934.64 1028.56" stroke="rgb(140,255,190)" stroke-opacity="0.550" stroke-width="1.18" />
  <path d="M 993.83 1073.59 L 993.99 1075.35 L 994.16 1077.17 L 994.34 1078.98 L 994.52 1080.74 L 994.54 1082.53 L 994.56 1084.34 L 994.57 1086.15 L 994.65 1087.99 L 994.69 1089.80 L 994.72 1091.63 L 994.73 1093.53 L 994.74 1095.42 L 994.75 1097.30 L 994.75 1099.16" stroke="rgb(205,165,255)" stroke-opacity="0.486" stroke-width="1.17" />
  <path d="M 998.39 999.84 L 996.55 999.83 L 994.72 999.82 L 992.91 999.83 L 991.12 999.80 L 989.35 999.75 L 987.63 999.71 L 985.90 999.69 L 984.12 999.71 L 982.31 999.75 L 980.50 999.78 L 978.73 999.80 L 976.94 999.88 L 975.16 999.95 L 973.42 1000.03 L 971.68 1000.13 L 969.95 1000.23 L 968.33 1000.31 L 966.72 1000.38 L 965.12 1000.41 L 963.53 1000.43 L 961.90 1000.41 L 960.33 1000.36 L 958.77 1000.34 L 957.20 1000.35 L 955.66 1000.24 L 954.12 1000.15 L 952.54 1000.02 L 950.94 999.83 L 949.42 999.68 L 947.88 999.48 L 946.36 999.26 L 944.87 999.07 L 943.37 998.83 L 941.86 998.59 L 940.35 998.37 L 938.83 998.12 L 937.31 997.87 L 935.83 997.61 L 934.35 997.41 L 932.90 997.25" stroke="rgb(255,210,135)" stroke-opacity="0.417" stroke-width="1.17" />
  <path d="M 953.99 965.47 L 950.98 964.20 L 947.98 962.93 L 944.99 961.67 L 942.00 960.44 L 939.06 959.16 L 936.11 957.92 L 933.18 956.70 L 930.25 955.47 L 927.33 954.25 L 924.42 953.03 L 921.53 951.79 L 918.67 950.50 L 915.79 949.29 L 912.92 948.07 L 910.09 946.82 L 907.25 945.63 L 904.41 944.46 L 901.60 943.28 L 898.80 942.09 L 896.03 940.87 L 893.24 939.70 L 890.46 938.55 L 887.69 937.42 L 884.93 936.29" stroke="rgb(140,255,190)" stroke-opacity="0.730" stroke-width="1.17" />
  <path d="M 999.09 1000.02 L 996.30 998.06 L 993.49 996.15 L 990.70 994.23 L 987.92 992.34 L 985.13 990.46 L 982.36 988.60 L 979.61 986.73 L 976.86 984.86 L 974.14 982.99 L 971.43 981.13 L 968.74 979.26 L 966.06 977.39 L 963.37 975.57 L 960.69 973.76 L 958.05 971.90 L 955.43 970.05 L 952.81 968.21 L 950.21 966.38 L 947.60 964.56 L 945.00 962.77 L 942.42 960.96 L 939.88 959.13 L 937.36 957.29 L 934.85 955.45 L 932.34 953.63 L 929.81 951.86 L 927.30 950.10 L 924.81 948.31 L 922.36 946.49 L 919.93 944.67 L 917.53 942.83 L 915.12 941.03 L 912.72 939.22 L 910.34 937.41 L 907.99 935.59 L 905.63 933.80 L 903.28 932.01 L 900.92 930.25 L 898.58 928.49 L 896.24 926.74 L 893.91 925.01 L 891.59 923.27 L 889.28 921.55 L 886.99 919.82 L 884.70 918.10 L 882.42 916.39 L 880.18 914.66 L 877.97 912.89 L 875.77 911.13 L 873.63 909.32 L 871.48 907.54 L 869.33 905.77 L 867.16 904.04 L 865.01 902.32 L 862.86 900.61 L 860.71 898.90 L 858.57 897.22 L 856.45 895.52 L 854.30 893.88 L 852.14 892.26 L 850.01 890.64 L 847.87 889.04 L 845.76 887.41 L 843.66 885.80 L 841.57 884.19 L 839.51 882.55 L 837.44 880.94 L 835.38 879.33 L 833.34 877.73 L 831.30 876.14 L 829.26 874.56 L 827.22 873.00 L 825.18 871.46 L 823.15 869.92 L 821.17 868.34 L 819.19 866.77" stroke="rgb(140,255,190)" stroke-opacity="0.728" stroke-width="1.16" />
  <path d="M 964.66 1014.04 L 965.06 1015.10 L 965.53 1016.18 L 965.98 1017.32 L 966.51 1018.48 L 967.00 1019.71 L 967.47 1020.89 L 967.98 1022.02 L 968.48 1023.14 L 968.82 1024.26 L 969.12 1025.39 L 969.46 1026.55 L 969.74 1027.77 L 970.03 1028.98 L 970.10 1030.25 L 970.18 1031.51 L 970.23 1032.75 L 970.26 1033.97 L 970.34 1035.16 L 970.40 1036.30 L 970.48 1037.37 L 970.57 1038.41 L 970.63 1039.47 L 970.63 1040.47 L 970.68 1041.46 L 970.71 1042.47 L 970.77 1043.54 L 970.80 1044.60 L 970.83 1045.68 L 970.86 1046.74 L 970.86 1047.80 L 970.79 1048.81 L 970.53 1049.81 L 970.32 1050.80 L 970.14 1051.76 L 969.97 1052.70 L 969.84 1053.67 L 969.71 1054.65 L 969.52 1055.61 L 969.35 1056.58 L 969.18 1057.54 L 968.93 1058.52 L 968.74 1059.49 L 968.56 1060.43 L 968.39 1061.35 L 968.11 1062.28 L 967.79 1063.17 L 967.42 1064.11 L 966.96 1065.01 L 966.50 1065.82" stroke="rgb(205,165,255)" stroke-opacity="0.483" stroke-width="1.16" />
  <path d="M 998.99 1001.35 L 997.74 1002.34 L 996.45 1003.26 L 995.20 1004.15 L 993.93 1005.04 L 992.74 1006.01 L 991.57 1006.93 L 990.45 1007.95 L 989.35 1009.04 L 988.24 1010.15 L 987.10 1011.29 L 985.94 1012.46 L 984.73 1013.55 L 983.59 1014.68 L 982.42 1015.88 L 981.25 1017.08 L 980.02 1018.15 L 978.77 1019.10 L 977.44 1020.01 L 976.11 1020.91 L 974.79 1021.79 L 973.46 1022.66 L 972.10 1023.51 L 970.76 1024.49 L 969.37 1025.44 L 967.99 1026.39 L 966.61 1027.32 L 965.18 1028.23 L 963.73 1029.14 L 962.32 1030.06 L 960.90 1030.92 L 959.48 1031.84 L 958.05 1032.75 L 956.65 1033.66 L 955.22 1034.61 L 953.85 1035.56 L 952.48 1036.50 L 951.16 1037.44 L 949.93 1038.47 L 948.71 1039.54 L 947.51 1040.56 L 946.29 1041.53 L 945.08 1042.53 L 943.87 1043.49 L 942.61 1044.33 L 941.32 1045.17 L 940.01 1046.01 L 938.71 1046.81 L 937.40 1047.57 L 936.10 1048.32 L 934.83 1049.08 L 933.57 1049.83 L 932.31 1050.56 L 931.03 1051.27 L 929.75 1051.98 L 928.57 1052.69 L 927.32 1053.29 L 926.11 1053.90 L 924.85 1054.48 L 923.60 1055.08 L 922.34 1055.69 L 921.14 1056.33" stroke="rgb(255,210,135)" stroke-opacity="0.414" stroke-width="1.16" />
  <path d="M 942.20 941.60 L 940.05 939.29 L 937.91 937.00 L 935.82 934.68 L 933.78 932.35 L 931.74 930.02 L 929.72 927.71 L 927.62 925.45 L 925.52 923.21 L 923.38 921.05 L 921.31 918.85 L 919.23 916.65 L 917.17 914.47 L 915.12 912.30 L 913.08 910.14 L 911.03 908.01 L 908.98 905.88 L 906.92 903.75 L 904.92 901.58 L 902.94 899.41 L 900.86 897.37 L 898.79 895.34 L 896.71 893.33 L 894.65 891.32 L 892.56 889.32 L 890.56 887.32 L 888.58 885.33 L 886.64 883.35 L 884.72 881.36 L 882.81 879.39 L 880.86 877.45 L 878.92 875.51 L 876.94 873.60 L 874.93 871.76 L 872.94 869.92 L 870.96 868.07 L 868.93 866.27 L 866.93 864.47 L 864.93 862.67" stroke="rgb(140,255,190)" stroke-opacity="0.725" stroke-width="1.16" />
  <path d="M 1001.56 999.72 L 998.94 997.66 L 996.33 995.62 L 993.70 993.62 L 991.09 991.61 L 988.44 989.68 L 985.77 987.81 L 983.12 985.94 L 980.50 984.04 L 977.92 982.09 L 975.35 980.14 L 972.77 978.23 L 970.18 976.35 L 967.57 974.52 L 964.95 972.73 L 962.32 970.96 L 959.73 969.19 L 957.15 967.40 L 954.54 965.70 L 951.93 964.00 L 949.31 962.34 L 946.70 960.69 L 944.07 959.09 L 941.45 957.50 L 938.88 955.86 L 936.32 954.22 L 933.77 952.60 L 931.22 950.98 L 928.68 949.38 L 926.16 947.76 L 923.67 946.13 L 921.20 944.49 L 918.73 942.87 L 916.28 941.23 L 913.86 939.58 L 911.46 937.91 L 909.05 936.27 L 906.65 934.65 L 904.26 933.03" stroke="rgb(140,255,190)" stroke-opacity="0.724" stroke-width="1.15" />
  <path d="M 922.98 912.33 L 920.11 911.16 L 917.25 909.99 L 914.39 908.83 L 911.52 907.68 L 908.67 906.54 L 905.83 905.40 L 903.03 904.22 L 900.22 903.13 L 897.40 902.14 L 894.59 901.15 L 891.78 900.14 L 889.00 899.13 L 886.23 898.09 L 883.47 897.02 L 880.74 895.95 L 878.04 894.85 L 875.36 893.78 L 872.70 892.70 L 870.04 891.60 L 867.39 890.51 L 864.74 889.43 L 862.12 888.33 L 859.49 887.25 L 856.89 886.14 L 854.27 885.04 L 851.67 883.90 L 849.06 882.80 L 846.48 881.67 L 843.91 880.57 L 841.35 879.47 L 838.81 878.37 L 836.27 877.28 L 833.78 876.15 L 831.31 875.01 L 828.87 873.83 L 826.42 872.71 L 823.99 871.58 L 821.58 870.46 L 819.17 869.37 L 816.74 868.31 L 814.31 867.24 L 811.89 866.17 L 809.50 865.10 L 807.09 864.08 L 804.72 863.06" stroke="rgb(140,255,190)" stroke-opacity="0.723" stroke-width="1.15" />
  <path d="M 997.67 1004.61 L 996.09 1002.76 L 994.52 1000.91 L 992.84 999.16 L 991.27 997.34 L 989.69 995.53 L 988.16 993.70 L 986.64 991.86 L 985.15 990.03 L 983.62 988.23 L 982.08 986.47 L 980.54 984.73 L 979.00 983.00 L 977.43 981.34 L 975.82 979.70 L 974.16 978.11 L 972.45 976.56 L 970.82 974.94 L 969.21 973.32 L 967.53 971.78 L 965.86 970.25 L 964.14 968.78 L 962.42 967.34 L 960.63 965.98 L 958.85 964.64 L 957.09 963.28 L 955.39 961.86 L 953.70 960.45 L 952.01 959.07 L 950.36 957.65 L 948.72 956.25 L 947.05 954.90" stroke="rgb(140,255,190)" stroke-opacity="0.542" stroke-width="1.15" />
  <path d="M 899.84 875.10 L 898.09 872.33 L 896.33 869.59 L 894.59 866.85 L 892.84 864.13 L 891.13 861.41 L 889.31 858.77 L 887.50 856.14 L 885.69 853.52 L 883.89 850.91 L 882.14 848.28 L 880.32 845.72 L 878.50 843.17 L 876.72 840.60 L 874.98 838.03 L 873.22 835.48 L 871.52 832.92 L 869.83 830.35 L 868.17 827.79 L 866.52 825.23 L 864.93 822.64 L 863.37 820.05 L 861.78 817.50 L 860.19 814.96 L 858.60 812.43 L 857.01 809.92 L 855.38 807.45 L 853.75 804.99 L 852.18 802.51 L 850.66 800.01 L 849.14 797.53 L 847.63 795.05 L 846.12 792.59 L 844.64 790.13 L 843.19 787.66 L 841.75 785.19" stroke="rgb(140,255,190)" stroke-opacity="0.722" stroke-width="1.15" />
  <path d="M 999.79 997.76 L 1002.45 999.64 L 1005.11 1001.52 L 1007.76 1003.36 L 1010.42 1005.19 L 1013.07 1006.99 L 1015.76 1008.71 L 1018.43 1010.44 L 1021.09 1012.18 L 1023.76 1013.87 L 1026.46 1015.51 L 1029.12 1017.15 L 1031.78 1018.78 L 1034.40 1020.46 L 1037.02 1022.13 L 1039.63 1023.79 L 1042.24 1025.41 L 1044.84 1027.05 L 1047.42 1028.68 L 1050.01 1030.29 L 1052.61 1031.89 L 1055.19 1033.46 L 1057.76 1035.06 L 1060.31 1036.65 L 1062.87 1038.20 L 1065.43 1039.74 L 1067.98 1041.26 L 1070.52 1042.78 L 1073.06 1044.28 L 1075.59 1045.78 L 1078.11 1047.25 L 1080.61 1048.73 L 1083.16 1050.09 L 1085.70 1051.47 L 1088.26 1052.78 L 1090.81 1054.08 L 1093.37 1055.36 L 1095.91 1056.62 L 1098.46 1057.86 L 1100.99 1059.10 L 1103.52 1060.32 L 1106.04 1061.54 L 1108.56 1062.75 L 1111.08 1063.92 L 1113.59 1065.09 L 1116.09 1066.26 L 1118.58 1067.42 L 1121.07 1068.57 L 1123.54 1069.70 L 1126.02 1070.81 L 1128.50 1071.88 L 1130.96 1072.96 L 1133.41 1074.03 L 1135.85 1075.11 L 1138.26 1076.20 L 1140.66 1077.31 L 1143.06 1078.39 L 1145.48 1079.41 L 1147.87 1080.47 L 1150.27 1081.51 L 1152.65 1082.54 L 1155.03 1083.56 L 1157.39 1084.59 L 1159.75 1085.61 L 1162.09 1086.63 L 1164.43 1087.64 L 1166.77 1088.61 L 1169.08 1089.60 L 1171.40 1090.55 L 1173.70 1091.54 L 1176.00 1092.51 L 1178.28 1093.48 L 1180.55 1094.47 L 1182.80 1095.45 L 1185.03 1096.47 L 1187.24 1097.50 L 1189.43 1098.53 L 1191.62 1099.56 L 1193.79 1100.60 L 1195.96 1101.62 L 1198.11 1102.61 L 1200.25 1103.61 L 1202.38 1104.62 L 1204.49 1105.63 L 1206.59 1106.64 L 1208.69 1107.63 L 1210.78 1108.59 L 1212.88 1109.55 L 1214.97 1110.49 L 1217.03 1111.45 L 1219.09 1112.41 L 1221.14 1113.34 L 1223.21 1114.24 L 1225.27 1115.17 L 1227.32 1116.08 L 1229.36 1117.00 L 1231.38 1117.94 L 1233.40 1118.85 L 1235.42 1119.75 L 1237.42 1120.65 L 1239.44 1121.50 L 1241.45 1122.34 L 1243.44 1123.17" stroke="rgb(140,255,190)" stroke-opacity="0.722" stroke-width="1.15" />
  <path d="M 977.43 981.34 L 976.41 978.63 L 975.45 975.97 L 974.51 973.29 L 973.73 970.58 L 972.99 967.89 L 972.25 965.21 L 971.54 962.55 L 970.78 959.92 L 970.02 957.31 L 969.29 954.66 L 968.61 952.01 L 968.00 949.39 L 967.21 946.86 L 966.46 944.33 L 965.69 941.81 L 964.89 939.27 L 964.18 936.72 L 963.46 934.19 L 962.67 931.67 L 961.89 929.15 L 961.09 926.66 L 960.31 924.17 L 959.58 921.69 L 958.85 919.21 L 958.03 916.73 L 957.24 914.27 L 956.35 911.82 L 955.44 909.39 L 954.50 906.99 L 953.54 904.59 L 952.58 902.22 L 951.60 899.87 L 950.54 897.58 L 949.48 895.31 L 948.43 893.04 L 947.38 890.79 L 946.32 888.52 L 945.28 886.29 L 944.19 884.09 L 943.14 881.89" stroke="rgb(140,255,190)" stroke-opacity="0.722" stroke-width="1.15" />
  <path d="M 865.01 902.32 L 862.28 900.91 L 859.53 899.55 L 856.78 898.19 L 854.07 896.78 L 851.38 895.37 L 848.70 893.96 L 846.04 892.53 L 843.40 891.09 L 840.85 889.53 L 838.31 887.96 L 835.78 886.40 L 833.29 884.80 L 830.80 883.23 L 828.32 881.66 L 825.88 880.10 L 823.47 878.53 L 821.03 877.03 L 818.55 875.55 L 816.07 874.10 L 813.60 872.65 L 811.18 871.14 L 808.77 869.64 L 806.40 868.14 L 804.01 866.71 L 801.67 865.21 L 799.35 863.75 L 797.03 862.30 L 794.73 860.84 L 792.53 859.35 L 790.28 857.91 L 788.01 856.49 L 785.79 855.08 L 783.58 853.67 L 781.37 852.27 L 779.18 850.89 L 777.01 849.52 L 774.86 848.15 L 772.71 846.79 L 770.58 845.42 L 768.43 844.08 L 766.22 842.81 L 764.02 841.55 L 761.87 840.24 L 759.76 838.92 L 757.67 837.59 L 755.56 836.27 L 753.47 834.88 L 751.39 833.47 L 749.30 832.11 L 747.22 830.74 L 745.16 829.35 L 743.13 827.95 L 741.12 826.54 L 739.10 825.14 L 737.08 823.78 L 735.06 822.42 L 733.04 821.06 L 731.06 819.64 L 729.08 818.25 L 727.09 816.87 L 725.10 815.48 L 723.13 814.10 L 721.17 812.73 L 719.23 811.35 L 717.28 810.00 L 715.34 808.66 L 713.41 807.32 L 711.43 806.05 L 709.49 804.76 L 707.54 803.49 L 705.60 802.22 L 703.68 800.95 L 701.74 799.72 L 699.81 798.46 L 697.89 797.21 L 695.98 795.96 L 694.06 794.73 L 692.13 793.56 L 690.21 792.43 L 688.31 791.29 L 686.42 790.16" stroke="rgb(140,255,190)" stroke-opacity="0.721" stroke-width="1.15" />
  <path d="M 933.07 958.42 L 930.59 956.44 L 928.11 954.49 L 925.61 952.56 L 923.16 950.62 L 920.70 948.69 L 918.25 946.75 L 915.80 944.82 L 913.37 942.90 L 910.97 940.97 L 908.57 939.09 L 906.17 937.24 L 903.77 935.38 L 901.39 933.54 L 899.05 931.66 L 896.66 929.83 L 894.28 928.01 L 891.93 926.17 L 889.60 924.34 L 887.28 922.52 L 885.00 920.68 L 882.77 918.80 L 880.54 916.94" stroke="rgb(140,255,190)" stroke-opacity="0.720" stroke-width="1.14" />
  <path d="M 891.93 926.17 L 889.39 924.30 L 886.77 922.56 L 884.15 920.84 L 881.54 919.15 L 878.85 917.60 L 876.15 916.08 L 873.46 914.59 L 870.76 913.12 L 868.08 911.67 L 865.39 910.25 L 862.70 908.87 L 860.01 907.50 L 857.34 906.14 L 854.67 904.78 L 852.03 903.42 L 849.41 902.01 L 846.81 900.64 L 844.21 899.30 L 841.60 898.02 L 839.00 896.74 L 836.40 895.49 L 833.82 894.23 L 831.27 892.95" stroke="rgb(140,255,190)" stroke-opacity="0.720" stroke-width="1.14" />
  <path d="M 1001.15 1001.28 L 1003.47 1002.93 L 1005.72 1004.67 L 1007.97 1006.38 L 1010.21 1008.10 L 1012.46 1009.76 L 1014.75 1011.37 L 1017.01 1012.99 L 1019.24 1014.65 L 1021.45 1016.30 L 1023.61 1018.00 L 1025.76 1019.70 L 1027.92 1021.36 L 1030.06 1023.05 L 1032.18 1024.72 L 1034.24 1026.47 L 1036.29 1028.20 L 1038.33 1029.93 L 1040.42 1031.58 L 1042.49 1033.24 L 1044.53 1034.92 L 1046.52 1036.63 L 1048.46 1038.39 L 1050.39 1040.15" stroke="rgb(205,165,255)" stroke-opacity="0.476" stroke-width="1.14" />
  <path d="M 952.01 959.07 L 949.90 957.28 L 947.86 955.41 L 945.89 953.46 L 943.94 951.53 L 941.99 949.58 L 940.01 947.63 L 938.00 945.73 L 935.97 943.85 L 933.99 942.01 L 932.05 940.17 L 930.15 938.31 L 928.24 936.47 L 926.36 934.63 L 924.45 932.78 L 922.53 930.97 L 920.66 929.18 L 918.78 927.43 L 916.95 925.66 L 915.17 923.89 L 913.39 922.12 L 911.63 920.28 L 909.86 918.47 L 908.10 916.66 L 906.37 914.81 L 904.65 912.98 L 902.95 911.18 L 901.27 909.37 L 899.61 907.55 L 897.98 905.72 L 896.39 903.87 L 894.80 902.03 L 893.26 900.08 L 891.72 898.15 L 890.21 896.18 L 888.70 894.20 L 887.18 892.26 L 885.69 890.33 L 884.18 888.44 L 882.72 886.56 L 881.26 884.69 L 879.83 882.84 L 878.42 881.00 L 877.05 879.18 L 875.78 877.39 L 874.52 875.62 L 873.17 873.87 L 871.79 872.16 L 870.43 870.46 L 869.08 868.76 L 867.76 867.05 L 866.52 865.31 L 865.29 863.58 L 864.02 861.87 L 862.76 860.17 L 861.51 858.46 L 860.30 856.72 L 859.09 855.01 L 857.88 853.29 L 856.67 851.59 L 855.47 849.92 L 854.28 848.27" stroke="rgb(140,255,190)" stroke-opacity="0.715" stroke-width="1.13" />
  <path d="M 1001.67 1002.29 L 999.14 1000.42 L 996.64 998.51 L 994.16 996.61 L 991.68 994.71 L 989.26 992.77 L 986.78 990.92 L 984.36 989.02 L 981.96 987.10 L 979.57 985.20 L 977.18 983.32 L 974.80 981.45 L 972.40 979.63" stroke="rgb(140,255,190)" stroke-opacity="0.714" stroke-width="1.13" />
  <path d="M 912.92 948.07 L 910.08 947.75 L 907.25 947.43 L 904.40 947.16 L 901.58 946.80 L 898.77 946.31 L 895.99 945.74 L 893.22 945.23 L 890.47 944.73 L 887.73 944.20 L 885.02 943.51 L 882.32 942.84 L 879.59 942.35 L 876.89 941.87 L 874.19 941.47 L 871.47 941.02 L 868.75 940.63 L 866.02 940.27 L 863.32 939.94 L 860.64 939.52 L 857.96 939.12 L 855.27 938.83 L 852.62 938.44 L 849.97 938.05 L 847.32 937.86 L 844.68 937.73 L 842.04 937.60 L 839.43 937.48" stroke="rgb(140,255,190)" stroke-opacity="0.534" stroke-width="1.12" />
  <path d="M 817.42 933.27 L 815.42 931.96 L 813.44 930.60 L 811.47 929.29 L 809.56 928.02 L 807.63 926.71 L 805.71 925.47 L 803.79 924.21 L 801.89 922.95 L 800.08 921.65 L 798.28 920.36 L 796.39 919.10 L 794.54 917.84 L 792.67 916.56 L 790.80 915.27 L 788.94 913.99 L 787.13 912.64 L 785.34 911.26 L 783.53 909.90 L 781.65 908.66 L 779.81 907.34 L 777.99 905.97 L 776.17 904.61 L 774.36 903.26 L 772.59 901.83 L 770.83 900.40 L 769.07 898.96 L 767.34 897.50 L 765.63 896.02 L 763.89 894.56 L 762.14 893.08 L 760.37 891.61 L 758.64 890.18 L 756.86 888.83 L 755.07 887.51 L 753.29 886.18 L 751.47 884.89 L 749.67 883.61 L 747.91 882.26 L 746.11 881.05 L 744.31 879.85 L 742.51 878.60 L 740.70 877.37 L 738.91 876.08 L 737.14 874.81 L 735.37 873.59" stroke="rgb(205,165,255)" stroke-opacity="0.472" stroke-width="1.12" />
  <path d="M 888.05 856.70 L 886.66 854.06 L 885.29 851.42 L 883.81 848.88 L 882.26 846.40 L 880.74 843.92 L 879.22 841.45 L 877.70 838.99 L 876.21 836.54 L 874.72 834.11 L 873.21 831.71 L 871.71 829.32 L 870.24 826.92 L 868.75 824.54 L 867.28 822.16 L 865.80 819.79 L 864.47 817.32 L 863.13 814.89 L 861.81 812.46 L 860.48 810.03 L 859.16 807.61 L 857.90 805.18 L 856.61 802.76 L 855.31 800.35 L 853.97 797.99 L 852.62 795.64 L 851.27 793.29 L 849.92 790.95 L 848.57 788.63 L 847.28 786.30 L 845.94 784.01 L 844.62 781.72 L 843.30 779.45 L 842.01 777.18 L 840.74 774.91 L 839.50 772.64 L 838.26 770.38 L 836.98 768.15 L 835.71 765.91 L 834.45 763.69 L 833.31 761.39 L 832.23 759.08 L 831.18 756.77 L 830.15 754.46" stroke="rgb(140,255,190)" stroke-opacity="0.533" stroke-width="1.12" />
  <path d="M 964.67 974.81 L 963.29 972.25 L 961.94 969.67 L 960.56 967.13 L 959.12 964.63 L 957.65 962.17 L 956.13 959.76 L 954.65 957.34 L 953.20 954.92 L 951.68 952.56 L 950.14 950.25 L 948.59 947.95 L 947.08 945.65 L 945.64 943.30 L 944.18 940.99 L 942.78 938.69 L 941.38 936.40 L 939.98 934.14 L 938.52 931.93 L 937.10 929.69 L 935.69 927.48 L 934.27 925.27 L 932.81 923.11 L 931.40 920.94 L 930.02 918.79 L 928.64 916.65 L 927.30 914.48 L 925.95 912.33 L 924.60 910.19" stroke="rgb(140,255,190)" stroke-opacity="0.532" stroke-width="1.12" />
  <path d="M 998.78 996.40 L 996.43 994.58 L 994.05 992.82 L 991.69 991.06 L 989.36 989.28 L 987.04 987.50 L 984.69 985.79 L 982.34 984.10 L 979.98 982.43 L 977.64 980.76 L 975.29 979.12 L 972.98 977.45 L 970.68 975.78" stroke="rgb(140,255,190)" stroke-opacity="0.531" stroke-width="1.11" />
  <path d="M 896.03 940.87 L 893.00 940.45 L 889.98 940.04 L 886.97 939.63 L 883.97 939.30 L 880.97 939.01 L 878.01 938.54 L 875.05 938.09 L 872.11 937.64 L 869.19 937.17 L 866.27 936.69 L 863.37 936.22 L 860.48 935.75 L 857.60 935.29 L 854.73 934.87 L 851.87 934.43 L 849.03 933.96 L 846.21 933.43 L 843.40 932.90 L 840.61 932.36 L 837.88 931.60 L 835.17 930.85 L 832.49 929.98 L 829.82 929.15 L 827.17 928.27 L 824.54 927.39 L 821.93 926.47 L 819.33 925.54 L 816.72 924.69 L 814.15 923.76 L 811.59 922.84 L 809.02 922.01 L 806.48 921.10 L 804.00 920.13 L 801.56 919.12 L 799.16 918.06 L 796.77 917.01 L 794.36 916.04 L 791.99 915.01 L 789.62 914.04 L 787.28 913.06 L 785.01 912.09 L 782.74 911.12 L 780.50 910.22 L 778.34 909.22 L 776.23 908.14 L 774.12 907.08 L 772.03 905.95 L 769.94 904.80 L 767.88 903.61 L 765.82 902.41 L 763.77 901.21 L 761.74 900.00 L 759.77 898.70 L 757.82 897.39 L 755.92 896.09 L 754.01 894.79 L 752.15 893.47 L 750.29 892.15 L 748.42 890.86 L 746.57 889.52 L 744.82 888.14 L 743.09 886.75 L 741.34 885.37 L 739.62 883.98 L 737.94 882.57 L 736.24 881.17 L 734.56 879.78 L 732.90 878.39 L 731.29 876.90 L 729.70 875.42 L 728.09 873.98" stroke="rgb(140,255,190)" stroke-opacity="0.531" stroke-width="1.11" />
  <path d="M 996.83 998.32 L 998.64 999.90 L 1000.44 1001.47 L 1002.34 1002.92 L 1004.22 1004.37 L 1006.08 1005.83 L 1007.97 1007.25 L 1009.84 1008.68 L 1011.73 1010.05 L 1013.63 1011.40 L 1015.48 1012.82 L 1017.27 1014.28 L 1019.05 1015.73 L 1020.79 1017.23 L 1022.53 1018.71 L 1024.28 1020.15 L 1025.89 1021.75 L 1027.55 1023.27 L 1029.22 1024.76 L 1030.89 1026.24 L 1032.54 1027.73 L 1034.12 1029.29 L 1035.71 1030.80 L 1037.24 1032.35 L 1038.73 1033.96 L 1040.28 1035.50 L 1041.85 1036.99 L 1043.38 1038.52 L 1044.90 1040.05 L 1046.44 1041.55 L 1047.98 1043.04 L 1049.46 1044.58 L 1050.93 1046.12 L 1052.39 1047.65 L 1053.85 1049.18" stroke="rgb(255,210,135)" stroke-opacity="0.404" stroke-width="1.11" />
  <path d="M 1002.18 998.88 L 1000.11 997.37 L 997.99 995.94 L 995.84 994.57 L 993.70 993.21 L 991.55 991.89 L 989.38 990.60 L 987.19 989.40 L 984.95 988.31 L 982.75 987.15 L 980.56 986.00 L 978.40 984.80 L 976.29 983.54 L 974.24 982.20 L 972.25 980.79 L 970.34 979.30 L 968.44 977.80 L 966.55 976.31 L 964.67 974.81 L 962.81 973.32 L 960.95 971.83 L 959.13 970.31 L 957.41 968.69 L 955.67 967.11 L 953.99 965.47 L 952.34 963.83 L 950.68 962.20" stroke="rgb(140,255,190)" stroke-opacity="0.530" stroke-width="1.11" />
  <path d="M 997.54 1000.56 L 999.17 1002.27 L 1000.78 1003.97 L 1002.40 1005.65 L 1004.02 1007.32 L 1005.71 1008.94 L 1007.38 1010.55 L 1008.97 1012.19 L 1010.58 1013.82 L 1012.18 1015.44 L 1013.70 1017.12 L 1015.22 1018.79 L 1016.75 1020.44 L 1018.30 1022.09 L 1019.73 1023.84 L 1021.18 1025.55 L 1022.68 1027.22 L 1024.25 1028.82 L 1025.85 1030.40 L 1027.47 1031.93 L 1029.11 1033.43 L 1030.74 1034.94 L 1032.35 1036.47 L 1033.93 1038.01 L 1035.51 1039.53 L 1037.09 1041.05 L 1038.66 1042.55 L 1040.26 1044.03 L 1041.90 1045.46 L 1043.51 1046.89 L 1045.15 1048.26 L 1046.91 1049.48 L 1048.65 1050.69 L 1050.43 1051.84 L 1052.24 1052.92 L 1054.06 1053.99 L 1055.89 1054.99 L 1057.72 1055.99 L 1059.55 1056.97" stroke="rgb(255,210,135)" stroke-opacity="0.403" stroke-width="1.11" />
  <path d="M 998.84 999.64 L 996.60 997.78 L 994.43 995.85 L 992.23 993.97 L 990.03 992.12 L 987.83 990.28 L 985.63 988.47 L 983.43 986.68 L 981.22 984.91 L 979.01 983.16 L 976.82 981.40 L 974.73 979.56 L 972.61 977.76 L 970.48 975.99 L 968.34 974.23 L 966.24 972.45 L 964.14 970.69 L 962.06 968.92 L 959.95 967.20 L 957.84 965.50 L 955.75 963.80 L 953.69 962.06 L 951.68 960.31" stroke="rgb(140,255,190)" stroke-opacity="0.530" stroke-width="1.11" />
  <path d="M 1000.90 999.68 L 998.35 998.27 L 995.83 996.85 L 993.44 995.23 L 991.05 993.62 L 988.67 992.02 L 986.31 990.42 L 984.00 988.78 L 981.69 987.17 L 979.38 985.57 L 977.04 984.05 L 974.70 982.55 L 972.37 981.06 L 970.01 979.62 L 967.66 978.20 L 965.30 976.79 L 962.96 975.39 L 960.62 974.02 L 958.31 972.63 L 956.00 971.27 L 953.68 969.92 L 951.38 968.58 L 949.07 967.25 L 946.78 965.93 L 944.50 964.63 L 942.18 963.39 L 939.89 962.14 L 937.60 960.89 L 935.33 959.65 L 933.07 958.42 L 930.82 957.21 L 928.59 956.01" stroke="rgb(140,255,190)" stroke-opacity="0.529" stroke-width="1.11" />
  <path d="M 885.00 920.68 L 883.17 918.37 L 881.33 916.11 L 879.50 913.86 L 877.68 911.63 L 875.87 909.40 L 874.05 907.18 L 872.25 904.98 L 870.49 902.76 L 868.76 900.52 L 867.03 898.30 L 865.31 896.09 L 863.61 893.86 L 861.93 891.64 L 860.28 889.42 L 858.60 887.23 L 856.94 885.05 L 855.31 882.87 L 853.67 880.70 L 852.06 878.53 L 850.50 876.32 L 848.98 874.11 L 847.43 871.94 L 845.87 869.78 L 844.23 867.72 L 842.55 865.69 L 840.97 863.64 L 839.32 861.61 L 837.70 859.60 L 836.09 857.59 L 834.49 855.57 L 832.91 853.55 L 831.36 851.51 L 829.86 849.45 L 828.38 847.40 L 826.81 845.40 L 825.24 843.42 L 823.73 841.42 L 822.32 839.37 L 821.02 837.27 L 819.71 835.18 L 818.37 833.12 L 817.08 831.08 L 815.79 829.04 L 814.55 826.98 L 813.27 824.95 L 812.01 822.91 L 810.81 820.83 L 809.58 818.78 L 808.47 816.68 L 807.35 814.58 L 806.31 812.45 L 805.25 810.36 L 804.17 808.28 L 803.05 806.22 L 801.95 804.18 L 800.82 802.14 L 799.77 800.07 L 798.68 798.04" stroke="rgb(140,255,190)" stroke-opacity="0.528" stroke-width="1.10" />
  <path d="M 917.98 965.40 L 915.35 965.38 L 912.73 965.36 L 910.14 965.25 L 907.57 964.93 L 905.05 964.53 L 902.53 964.17 L 900.05 963.79 L 897.57 963.41 L 895.12 962.96 L 892.64 962.56 L 890.18 962.05 L 887.70 961.62 L 885.22 961.30" stroke="rgb(205,165,255)" stroke-opacity="0.467" stroke-width="1.10" />
  <path d="M 961.80 1015.36 L 959.56 1015.74 L 957.33 1016.16 L 955.11 1016.53 L 952.90 1016.90 L 950.67 1017.30 L 948.49 1017.66 L 946.32 1018.00 L 944.09 1018.32 L 941.84 1018.59 L 939.60 1018.85 L 937.38 1019.16 L 935.17 1019.41 L 932.97 1019.63" stroke="rgb(205,165,255)" stroke-opacity="0.467" stroke-width="1.10" />
  <path d="M 953.70 960.45 L 952.70 957.99 L 951.79 955.46 L 950.89 952.95 L 950.03 950.42 L 949.18 947.90 L 948.33 945.39 L 947.49 942.92 L 946.67 940.46 L 945.84 938.03 L 945.03 935.61 L 944.23 933.17 L 943.46 930.74 L 942.69 928.31 L 941.85 925.92 L 941.14 923.48 L 940.46 921.05 L 939.78 918.62 L 939.11 916.20 L 938.45 913.79 L 937.82 911.39 L 937.17 909.03 L 936.47 906.70 L 935.79 904.39 L 935.19 902.05 L 934.60 899.73 L 934.12 897.40 L 933.66 895.09 L 933.20 892.79 L 932.82 890.46 L 932.39 888.19 L 932.03 885.95 L 931.66 883.68 L 931.24 881.42 L 930.77 879.20 L 930.28 876.99 L 929.74 874.77 L 929.16 872.57 L 928.54 870.41 L 927.99 868.21 L 927.39 866.04 L 926.86 863.86 L 926.30 861.72 L 925.75 859.60 L 925.19 857.50 L 924.69 855.38 L 924.19 853.26 L 923.72 851.16 L 923.25 849.07 L 922.79 846.93 L 922.31 844.82 L 921.81 842.71 L 921.33 840.61 L 920.80 838.56 L 920.28 836.51 L 919.72 834.50 L 919.13 832.51 L 918.47 830.55 L 917.79 828.61 L 917.21 826.67 L 916.62 824.75 L 915.98 822.82 L 915.32 820.93 L 914.66 819.04 L 914.01 817.17 L 913.22 815.32 L 912.48 813.45 L 911.74 811.62 L 910.99 809.81 L 910.35 807.97 L 909.63 806.14 L 908.89 804.33 L 908.19 802.52 L 907.47 800.76 L 906.75 799.01 L 906.04 797.25 L 905.34 795.54 L 904.63 793.83 L 903.92 792.15 L 903.21 790.47 L 902.51 788.82 L 901.82 787.17 L 901.09 785.50 L 900.36 783.85 L 899.67 782.18 L 898.95 780.54 L 898.24 778.90 L 897.55 777.30 L 896.86 775.70 L 896.18 774.10 L 895.54 772.51 L 894.96 770.90" stroke="rgb(140,255,190)" stroke-opacity="0.527" stroke-width="1.10" />
  <path d="M 902.62 921.37 L 901.27 918.89 L 899.88 916.44 L 898.50 914.00 L 897.11 911.62 L 895.73 909.23 L 894.39 906.90 L 893.12 904.55 L 891.90 902.18 L 890.79 899.79 L 889.75 897.39 L 888.74 895.05 L 887.78 892.70 L 886.82 890.35 L 885.85 888.04 L 884.89 885.74 L 883.91 883.50 L 882.95 881.27 L 882.01 879.06 L 881.06 876.89 L 880.15 874.70 L 879.21 872.55 L 878.26 870.40 L 877.28 868.32 L 876.35 866.24 L 875.44 864.16 L 874.56 862.07 L 873.72 859.95 L 872.87 857.80 L 871.96 855.69 L 870.96 853.63 L 869.99 851.57 L 869.01 849.56 L 868.04 847.56 L 867.08 845.52 L 866.13 843.51 L 865.14 841.50 L 864.08 839.47 L 863.02 837.46 L 861.91 835.50 L 860.74 833.59 L 859.64 831.64 L 858.58 829.64 L 857.54 827.63 L 856.49 825.66 L 855.53 823.62 L 854.61 821.61 L 853.70 819.58 L 852.79 817.57 L 851.96 815.54 L 851.13 813.48 L 850.27 811.42 L 849.41 809.36 L 848.57 807.28 L 847.73 805.23 L 846.82 803.19 L 845.92 801.16 L 845.01 799.11 L 844.16 797.05" stroke="rgb(140,255,190)" stroke-opacity="0.527" stroke-width="1.10" />
  <path d="M 998.27 1002.25 L 997.03 1001.40 L 995.81 1000.49 L 994.59 999.58 L 993.37 998.67 L 992.25 997.77 L 991.08 996.93 L 989.94 996.11 L 988.75 995.26 L 987.60 994.39 L 986.43 993.50 L 985.24 992.58 L 984.06 991.66 L 982.81 990.81 L 981.56 989.90 L 980.23 988.99 L 978.97 988.19 L 977.71 987.44 L 976.50 986.67 L 975.29 985.89 L 974.15 985.14 L 972.93 984.37 L 971.74 983.59 L 970.54 982.91 L 969.29 982.25 L 968.03 981.61 L 966.84 980.93 L 965.66 980.27 L 964.47 979.61 L 963.24 979.05 L 962.07 978.47 L 960.88 977.89 L 959.68 977.32" stroke="rgb(255,210,135)" stroke-opacity="0.400" stroke-width="1.10" />
  <path d="M 1001.41 999.73 L 999.25 997.84 L 997.10 995.95 L 994.97 994.05 L 992.83 992.19 L 990.72 990.32 L 988.61 988.48 L 986.59 986.57 L 984.57 984.67 L 982.55 982.78 L 980.55 980.89 L 978.56 979.02 L 976.59 977.11 L 974.56 975.29 L 972.55 973.46 L 970.57 971.61 L 968.60 969.76 L 966.64 967.94 L 964.68 966.12 L 962.78 964.27 L 960.89 962.42 L 959.07 960.51 L 957.25 958.61 L 955.44 956.72 L 953.73 954.76 L 952.01 952.81 L 950.32 950.84 L 948.71 948.83 L 947.14 946.80 L 945.60 944.76 L 944.11 942.70 L 942.63 940.64 L 941.18 938.57 L 939.79 936.47 L 938.38 934.39 L 936.98 932.32 L 935.54 930.28 L 934.11 928.26 L 932.69 926.24 L 931.28 924.23 L 929.86 922.26 L 928.46 920.27 L 927.09 918.27 L 925.72 916.28 L 924.33 914.32 L 922.98 912.33 L 921.65 910.36 L 920.30 908.40 L 919.02 906.40 L 917.77 904.39 L 916.52 902.40 L 915.28 900.41 L 914.03 898.44 L 912.80 896.47 L 911.59 894.51 L 910.41 892.54 L 909.22 890.58 L 908.07 888.61 L 906.92 886.64 L 905.76 884.69 L 904.59 882.74 L 903.40 880.81 L 902.21 878.90 L 901.03 876.99 L 899.84 875.10 L 898.66 873.21 L 897.50 871.32 L 896.34 869.44 L 895.14 867.60 L 893.91 865.78 L 892.66 864.00 L 891.48 862.17 L 890.33 860.34 L 889.18 858.53 L 888.05 856.70 L 886.88 854.91 L 885.70 853.14 L 884.57 851.35 L 883.40 849.58 L 882.24 847.83 L 881.18 846.02 L 880.12 844.21 L 879.06 842.43 L 877.98 840.66 L 876.91 838.90 L 875.84 837.14 L 874.81 835.37 L 873.78 833.61 L 872.76 831.86 L 871.73 830.12 L 870.73 828.37" stroke="rgb(140,255,190)" stroke-opacity="0.526" stroke-width="1.10" />
  <path d="M 959.95 967.20 L 958.08 965.06 L 956.24 962.91 L 954.43 960.78 L 952.63 958.65 L 950.88 956.49 L 949.12 954.35 L 947.37 952.22 L 945.65 950.05 L 943.90 947.92 L 942.15 945.81 L 940.42 943.69 L 938.60 941.68 L 936.72 939.72 L 934.86 937.77 L 933.01 935.88 L 931.18 934.00 L 929.31 932.14 L 927.45 930.27 L 925.55 928.40 L 923.64 926.54 L 921.72 924.71 L 919.80 922.89 L 917.94 921.02 L 916.17 919.08 L 914.38 917.18 L 912.60 915.28 L 910.83 913.41 L 908.99 911.62 L 907.15 909.83 L 905.33 908.06 L 903.55 906.25 L 901.71 904.54 L 899.86 902.86 L 898.09 901.15 L 896.32 899.45 L 894.62 897.68 L 892.93 895.91 L 891.23 894.17 L 889.59 892.37 L 887.95 890.57 L 886.31 888.78 L 884.66 887.01 L 883.06 885.21 L 881.48 883.40 L 879.91 881.59 L 878.22 879.89 L 876.57 878.20 L 874.93 876.51 L 873.33 874.77 L 871.74 873.01 L 870.23 871.19 L 868.69 869.40 L 867.09 867.68 L 865.52 865.96 L 863.95 864.26 L 862.40 862.53 L 860.81 860.85 L 859.22 859.19" stroke="rgb(140,255,190)" stroke-opacity="0.525" stroke-width="1.10" />
  <path d="M 999.39 1000.28 L 999.62 997.70 L 999.84 995.10 L 1000.07 992.52 L 1000.29 989.96 L 1000.50 987.42 L 1000.65 984.85 L 1000.80 982.27 L 1000.97 979.69 L 1001.13 977.10 L 1001.28 974.52 L 1001.43 971.93 L 1001.56 969.38 L 1001.63 966.82 L 1001.69 964.26 L 1001.72 961.72 L 1001.71 959.18 L 1001.79 956.64 L 1001.90 954.13 L 1002.02 951.59 L 1002.14 949.05 L 1002.33 946.52 L 1002.47 944.01 L 1002.64 941.49 L 1002.81 938.98" stroke="rgb(140,255,190)" stroke-opacity="0.525" stroke-width="1.09" />
  <path d="M 972.61 977.76 L 970.44 976.45 L 968.27 975.18 L 966.12 973.90 L 963.98 972.61 L 961.88 971.34 L 959.78 970.08 L 957.73 968.79 L 955.68 967.52 L 953.62 966.31 L 951.57 965.09 L 949.62 963.82 L 947.69 962.58 L 945.77 961.37 L 944.02 960.10 L 942.31 958.80 L 940.57 957.56 L 938.85 956.32 L 937.13 955.08 L 935.43 953.83 L 933.74 952.51 L 932.06 951.20 L 930.40 949.91 L 928.82 948.59 L 927.23 947.26 L 925.65 945.95 L 924.11 944.62 L 922.63 943.37 L 921.14 942.24 L 919.57 941.09 L 918.06 939.90 L 916.51 938.82 L 914.94 937.75 L 913.37 936.66 L 911.80 935.58 L 910.28 934.45 L 908.81 933.28 L 907.33 932.11 L 905.86 930.93 L 904.40 929.77 L 902.93 928.61 L 901.48 927.46 L 899.99 926.34 L 898.49 925.25 L 896.98 924.20 L 895.49 923.11 L 894.03 922.04 L 892.59 920.98 L 891.18 919.89 L 889.76 918.84 L 888.27 917.94" stroke="rgb(140,255,190)" stroke-opacity="0.525" stroke-width="1.09" />
  <path d="M 913.22 815.32 L 911.76 813.36 L 910.42 811.35 L 909.15 809.31 L 907.86 807.32 L 906.55 805.33 L 905.31 803.35 L 904.19 801.34 L 903.09 799.37 L 901.94 797.38 L 900.81 795.39 L 899.64 793.43 L 898.48 791.41 L 897.30 789.41 L 896.18 787.36 L 895.10 785.32 L 894.03 783.25 L 892.87 781.32 L 891.82 779.36" stroke="rgb(140,255,190)" stroke-opacity="0.524" stroke-width="1.09" />
  <path d="M 1999.93 1745.70 L 1997.54 1743.99 L 1994.83 1742.28 L 1993.01 1740.70 L 1990.17 1738.47 L 1988.17 1737.10 L 1984.70 1735.04 L 1982.92 1733.35 L 1980.83 1731.67 L 1978.59 1729.97 L 1975.86 1727.95 L 1973.54 1725.99 L 1970.68 1724.32 L 1969.10 1722.32 L 1966.06 1720.89 L 1963.78 1719.13 L 1961.67 1717.47 L 1959.33 1715.48 L 1956.69 1713.33 L 1954.15 1711.95 L 1951.76 1710.17 L 1949.48 1708.05 L 1946.76 1706.41 L 1944.54 1704.75 L 1942.44 1702.75 L 1940.13 1701.69 L 1937.54 1699.54 L 1935.08 1697.32 L 1932.64 1696.06 L 1930.53 1693.94 L 1927.95 1692.14 L 1925.46 1690.08 L 1923.27 1688.73 L 1920.72 1686.82 L 1918.19 1684.97 L 1916.04 1683.57 L 1913.53 1681.28 L 1910.86 1679.55 L 1908.65 1677.96 L 1906.26 1676.02 L 1903.62 1674.13 L 1901.28 1672.52 L 1899.02 1670.93 L 1896.50 1668.66 L 1894.50 1666.87 L 1891.80 1665.35 L 1888.89 1663.26 L 1886.78 1661.08 L 1884.94 1659.71 L 1882.00 1657.98 L 1879.47 1656.02 L 1877.74 1654.65 L 1874.65 1652.52 L 1872.25 1650.69 L 1870.30 1649.04 L 1867.70 1647.28 L 1865.55 1645.69 L 1863.09 1643.57 L 1860.28 1641.78 L 1857.93 1640.13 L 1855.37 1638.66 L 1853.65 1636.91 L 1850.68 1634.75 L 1848.92 1633.11 L 1846.34 1631.26 L 1843.50 1629.31 L 1841.06 1627.43 L 1838.88 1625.82 L 1836.29 1624.10 L 1833.92 1622.28 L 1831.86 1620.47 L 1829.16 1618.53 L 1826.68 1616.93 L 1824.32 1614.95 L 1822.18 1613.25 L 1819.33 1611.71 L 1817.23 1609.96 L 1814.72 1607.94 L 1812.33 1606.07 L 1809.91 1604.46 L 1807.45 1602.52 L 1805.02 1600.70 L 1803.20 1598.81 L 1800.35 1596.86 L 1798.15 1595.61 L 1795.82 1593.65 L 1793.18 1591.81 L 1790.81 1590.09 L 1788.45 1588.21 L 1786.02 1585.72 L 1783.71 1584.60 L 1781.23 1583.01 L 1778.68 1581.17 L 1776.18 1579.11 L 1773.96 1577.22 L 1771.61 1575.68 L 1768.89 1573.58 L 1766.73 1572.25 L 1764.49 1570.25 L 1761.90 1568.21 L 1759.81 1566.68 L 1757.17 1564.49 L 1754.51 1563.05 L 1752.14 1561.29 L 1750.14 1558.89 L 1747.90 1557.58 L 1745.34 1555.71 L 1742.52 1554.00 L 1740.50 1551.97 L 1737.69 1550.57 L 1735.75 1548.73 L 1733.26 1546.69 L 1730.70 1545.13 L 1728.50 1543.52 L 1726.02 1541.45 L 1723.79 1539.11 L 1720.87 1537.63 L 1718.72 1535.98 L 1716.17 1534.15 L 1713.80 1532.37 L 1711.62 1530.57 L 1709.03 1529.06 L 1706.42 1527.27 L 1704.44 1525.10 L 1701.43 1523.55 L 1699.48 1521.92 L 1696.96 1520.09 L 1694.50 1518.28 L 1692.05 1516.57 L 1689.97 1514.17 L 1687.60 1512.77 L 1685.00 1511.29 L 1682.77 1508.87 L 1680.12 1507.96 L 1677.62 1505.65 L 1675.35 1503.70 L 1672.73 1501.80 L 1670.50 1500.14 L 1668.20 1498.65 L 1665.49 1496.13 L 1663.53 1494.80 L 1661.22 1492.97 L 1658.39 1491.42 L 1656.14 1489.17 L 1653.60 1487.78 L 1651.06 1485.83 L 1648.46 1483.99 L 1646.47 1482.41 L 1643.95 1480.56 L 1641.61 1478.67 L 1639.21 1476.71 L 1637.13 1475.15 L 1634.62 1473.00 L 1632.01 1471.67 L 1630.08 1469.89 L 1626.87 1468.09 L 1624.73 1466.16 L 1622.09 1464.19 L 1620.29 1462.71 L 1617.73 1460.53 L 1615.35 1458.88 L 1612.91 1456.79 L 1610.52 1454.85 L 1608.13 1453.09 L 1605.65 1451.64 L 1603.17 1450.06 L 1601.02 1448.50 L 1598.14 1446.42 L 1595.92 1444.81 L 1593.79 1442.63 L 1591.38 1441.19 L 1588.39 1439.23 L 1586.34 1437.35 L 1583.81 1436.05 L 1581.56 1434.09 L 1579.41 1432.04 L 1577.00 1430.25 L 1574.33 1428.74 L 1572.01 1426.56 L 1569.80 1425.53 L 1567.19 1422.94 L 1564.85 1421.63 L 1562.63 1419.62 L 1559.82 1417.80 L 1557.56 1416.18 L 1555.21 1414.63 L 1552.46 1412.43 L 1550.38 1410.36 L 1548.13 1408.87 L 1545.67 1406.74 L 1543.47 1405.22 L 1540.82 1403.30 L 1538.28 1401.51 L 1536.18 1399.76 L 1533.41 1397.87 L 1531.02 1396.09 L 1528.54 1394.52 L 1526.26 1392.27 L 1523.69 1390.63 L 1521.41 1388.93 L 1518.79 1387.07 L 1516.35 1385.42 L 1514.25 1383.53 L 1511.40 1381.57 L 1509.36 1379.97 L 1507.31 1378.09 L 1504.73 1376.59 L 1502.46 1374.74 L 1499.97 1372.91 L 1497.77 1370.92 L 1495.05 1369.15 L 1492.61 1367.33 L 1490.33 1365.59 L 1488.14 1363.86 L 1485.43 1362.17 L 1483.15 1360.43 L 1480.39 1358.57 L 1478.03 1356.78 L 1475.80 1355.01 L 1473.37 1353.22 L 1470.84 1351.34 L 1468.44 1349.56 L 1465.93 1347.81 L 1463.72 1345.97 L 1461.68 1343.91 L 1458.73 1342.66 L 1456.43 1341.04 L 1454.04 1338.75 L 1451.65 1336.57 L 1449.48 1335.15 L 1447.02 1333.56 L 1444.08 1331.92 L 1441.56 1330.01 L 1440.34 1328.47 L 1437.50 1326.26 L 1435.12 1324.18 L 1432.51 1322.98 L 1430.25 1320.94 L 1427.81 1319.13 L 1425.58 1317.27 L 1423.04 1315.24 L 1420.15 1313.68 L 1417.83 1312.10 L 1415.77 1310.15 L 1413.28 1308.16 L 1411.00 1306.41 L 1408.45 1304.60 L 1406.61 1303.22 L 1403.56 1300.82 L 1401.17 1299.44 L 1399.10 1297.64 L 1396.45 1296.05 L 1394.05 1293.65 L 1391.38 1292.30 L 1389.15 1290.12 L 1386.85 1288.59 L 1384.42 1286.58 L 1381.61 1285.17 L 1380.05 1283.17 L 1377.20 1281.64 L 1374.88 1279.28 L 1372.22 1278.10 L 1369.84 1275.84 L 1367.66 1273.90 L 1364.93 1272.64 L 1362.60 1270.60 L 1360.37 1268.99 L 1358.17 1266.99 L 1355.44 1265.26 L 1353.03 1263.97 L 1350.34 1261.30 L 1348.05 1259.69 L 1345.94 1257.75 L 1343.54 1256.15 L 1341.09 1254.46 L 1338.75 1252.78 L 1336.37 1251.11 L 1334.08 1248.76 L 1331.20 1246.84 L 1329.24 1245.72 L 1326.76 1243.48 L 1324.33 1241.81 L 1322.08 1239.96 L 1319.28 1238.44 L 1317.42 1236.48 L 1315.06 1234.84 L 1312.19 1232.63 L 1309.75 1231.03 L 1307.62 1229.53 L 1305.20 1227.71 L 1302.72 1225.64 L 1300.11 1223.99 L 1297.69 1222.41 L 1295.73 1220.85 L 1292.87 1218.80 L 1290.35 1216.97 L 1288.27 1215.10 L 1285.72 1213.33 L 1283.21 1211.14 L 1280.90 1209.22 L 1278.32 1207.94 L 1276.03 1206.19 L 1273.89 1204.32 L 1271.32 1202.69 L 1268.84 1200.65 L 1266.77 1199.31 L 1264.10 1197.19 L 1261.69 1195.56 L 1259.24 1193.64 L 1256.98 1191.95 L 1254.26 1189.87 L 1251.95 1188.24 L 1249.85 1186.30 L 1246.79 1184.56 L 1244.99 1183.00 L 1242.58 1180.96 L 1240.04 1179.02 L 1237.82 1177.07 L 1235.20 1175.24 L 1233.23 1173.75 L 1230.55 1172.15 L 1228.14 1170.05 L 1225.77 1168.40 L 1223.26 1166.43 L 1221.01 1164.67 L 1218.44 1162.96 L 1216.04 1160.77 L 1213.42 1159.79 L 1211.20 1157.41 L 1209.02 1155.72 L 1206.53 1154.25 L 1204.04 1152.17 L 1201.82 1150.81 L 1199.51 1148.86 L 1196.90 1147.06 L 1194.36 1145.21 L 1192.39 1143.03 L 1189.83 1141.82 L 1187.33 1139.80 L 1184.56 1137.76 L 1182.15 1135.96 L 1179.98 1134.49 L 1177.37 1132.33 L 1175.28 1130.87 L 1173.12 1128.95 L 1170.77 1126.95 L 1167.75 1125.07 L 1165.92 1123.52 L 1163.11 1121.93 L 1160.77 1119.65 L 1158.76 1117.91 L 1155.60 1116.35 L 1153.67 1115.12 L 1151.46 1112.77 L 1148.54 1110.70 L 1146.19 1109.16 L 1143.88 1107.70 L 1141.56 1105.75 L 1138.96 1103.90 L 1136.49 1101.83 L 1133.75 1100.14 L 1132.13 1098.88 L 1129.47 1096.89 L 1127.08 1095.03 L 1125.13 1093.27 L 1122.36 1091.11 L 1119.90 1089.12 L 1117.67 1087.38 L 1114.98 1086.09 L 1112.73 1084.10 L 1110.54 1082.82 L 1107.50 1080.58 L 1105.60 1078.69 L 1103.12 1076.73 L 1101.17 1074.97 L 1098.39 1073.39 L 1095.95 1071.73 L 1093.67 1069.82 L 1091.02 1067.93 L 1088.78 1066.23 L 1086.22 1064.43 L 1084.03 1062.90 L 1081.26 1060.54 L 1079.16 1059.21 L 1076.38 1057.08 L 1074.28 1055.65 L 1071.57 1053.44 L 1069.35 1051.55 L 1066.67 1049.72 L 1064.62 1048.41 L 1061.85 1046.33 L 1059.70 1044.54 L 1057.39 1042.82 L 1054.85 1040.80 L 1052.64 1039.27 L 1050.64 1037.27 L 1047.87 1035.40 L 1045.06 1033.96 L 1042.99 1031.89 L 1040.64 1030.33 L 1037.48 1028.32 L 1035.44 1026.52 L 1033.01 1025.10 L 1030.97 1022.97 L 1028.80 1020.92 L 1025.83 1019.62 L 1023.35 1017.62 L 1021.56 1015.90 L 1019.00 1014.04 L 1016.33 1012.12 L 1014.20 1010.48 L 1011.96 1008.59 L 1009.10 1006.60 L 1007.11 1005.17 L 1004.20 1003.26 L 1002.21 1001.44 L 1000.00 1000.00 L 997.60 998.20 L 995.20 996.40 L 992.79 994.61 L 990.40 992.80 L 987.99 991.01 L 985.58 989.22 L 983.18 987.43 L 980.78 985.63 L 978.37 983.84 L 975.95 982.07 L 973.54 980.29 L 971.12 978.51 L 968.70 976.73 L 966.28 974.96 L 963.85 973.20 L 961.42 971.44 L 958.99 969.68 L 956.55 967.93 L 954.11 966.20 L 951.66 964.46 L 949.22 962.72 L 946.77 960.98 L 944.33 959.24 L 941.88 957.51 L 939.43 955.77 L 936.99 954.03 L 934.55 952.28 L 932.11 950.54 L 929.67 948.80 L 927.23 947.05 L 924.79 945.31 L 922.35 943.56 L 919.90 941.83 L 917.45 940.10 L 915.00 938.37 L 912.55 936.63 L 910.10 934.90 L 907.66 933.16 L 905.21 931.43 L 902.76 929.69 L 900.33 927.94 L 897.89 926.19 L 895.46 924.43 L 893.03 922.68 L 890.60 920.92 L 888.17 919.16 L 885.74 917.40 L 883.32 915.63 L 880.90 913.85 L 878.48 912.07 L 876.07 910.29 L 873.65 908.51 L 871.25 906.72 L 868.84 904.93 L 866.43 903.14 L 864.02 901.36 L 861.61 899.56 L 859.22 897.76 L 856.81 895.96 L 854.41 894.17 L 852.00 892.38 L 849.59 890.59 L 847.18 888.81 L 844.77 887.03 L 842.35 885.25 L 839.94 883.47 L 837.52 881.69 L 835.11 879.91 L 832.69 878.12 L 830.28 876.34 L 827.87 874.56 L 825.45 872.78 L 823.02 871.02 L 820.60 869.26 L 818.16 867.50 L 815.74 865.74 L 813.30 863.98 L 810.87 862.23 L 808.43 860.48 L 806.00 858.72 L 803.56 856.98 L 801.12 855.23 L 798.68 853.49 L 796.24 851.74 L 793.81 849.98 L 791.37 848.23 L 788.94 846.47 L 786.51 844.71 L 784.08 842.95 L 781.66 841.18 L 779.24 839.42 L 776.82 837.64 L 774.40 835.87 L 771.98 834.10 L 769.55 832.33 L 767.13 830.56 L 764.70 828.80 L 762.28 827.03 L 759.85 825.27 L 757.43 823.50 L 754.99 821.75 L 752.56 819.99 L 750.13 818.23 L 747.71 816.47 L 745.29 814.69 L 742.87 812.92 L 740.45 811.14 L 738.05 809.35 L 735.65 807.54 L 733.25 805.74 L 730.85 803.93 L 728.46 802.12 L 726.07 800.31 L 723.68 798.50 L 721.29 796.68 L 718.91 794.86 L 716.52 793.04 L 714.15 791.21 L 711.78 789.36 L 709.42 787.52 L 707.05 785.68 L 704.69 783.83 L 702.33 781.98 L 699.96 780.14 L 697.58 778.30 L 695.20 776.48 L 692.83 774.65 L 690.45 772.81 L 688.08 770.97 L 685.70 769.15 L 683.32 767.32 L 680.94 765.50 L 678.56 763.66 L 676.19 761.84 L 673.81 760.00 L 671.44 758.17 L 669.06 756.33 L 666.69 754.50 L 664.32 752.67 L 661.94 750.84 L 659.56 749.01 L 657.18 747.18 L 654.81 745.34 L 652.43 743.51 L 650.05 741.69 L 647.67 739.86 L 645.29 738.03 L 642.91 736.21 L 640.53 734.38 L 638.15 732.56 L 635.76 730.74 L 633.38 728.92 L 631.00 727.10 L 628.61 725.27 L 626.23 723.45 L 623.85 721.63 L 621.46 719.82 L 619.06 718.01 L 616.67 716.20 L 614.27 714.39 L 611.88 712.58 L 609.49 710.77 L 607.11 708.95 L 604.72 707.13 L 602.33 705.32 L 599.94 703.51 L 597.55 701.70 L 595.15 699.89 L 592.76 698.07 L 590.37 696.27 L 587.97 694.47 L 585.56 692.67 L 583.16 690.88 L 580.76 689.08 L 578.34 687.30 L 575.93 685.52 L 573.52 683.73 L 571.11 681.95 L 568.70 680.16 L 566.29 678.38 L 563.86 676.61 L 561.43 674.85 L 559.00 673.09 L 556.58 671.33 L 554.16 669.55 L 551.74 667.78 L 549.30 666.03 L 546.86 664.28 L 544.43 662.53 L 541.99 660.77 L 539.56 659.02 L 537.12 657.27 L 534.68 655.53 L 532.25 653.77 L 529.82 652.01 L 527.39 650.25 L 524.96 648.49 L 522.54 646.72 L 520.12 644.94 L 517.70 643.17 L 515.28 641.41 L 512.86 639.63 L 510.44 637.86 L 508.02 636.09 L 505.60 634.31 L 503.17 632.55 L 500.74 630.79 L 498.32 629.02 L 495.90 627.25 L 493.47 625.49 L 491.04 623.73 L 488.60 621.98 L 486.17 620.23 L 483.73 618.48 L 481.30 616.72 L 478.87 614.95 L 476.45 613.19 L 474.03 611.41 L 471.61 609.64 L 469.19 607.87 L 466.77 606.09 L 464.35 604.32 L 461.93 602.54 L 459.50 600.78 L 457.07 599.03 L 454.62 597.29 L 452.18 595.55 L 449.74 593.81 L 447.30 592.06 L 444.86 590.32 L 442.42 588.57 L 439.97 586.84 L 437.53 585.10 L 435.09 583.35 L 432.64 581.62 L 430.19 579.89 L 427.73 578.17 L 425.28 576.44 L 422.83 574.71 L 420.38 572.97 L 417.94 571.22 L 415.49 569.49 L 413.04 567.76 L 410.60 566.02 L 408.15 564.28 L 405.71 562.54 L 403.26 560.81 L 400.81 559.08 L 398.36 557.34 L 395.91 555.61 L 393.47 553.88 L 391.02 552.14 L 388.58 550.40 L 386.13 548.67 L 383.68 546.93 L 381.23 545.20 L 378.78 543.47 L 376.34 541.73 L 373.90 539.98 L 371.47 538.22 L 369.04 536.47 L 366.60 534.72 L 364.16 532.97 L 361.72 531.22 L 359.28 529.48 L 356.84 527.74 L 354.40 525.98 L 351.97 524.23 L 349.54 522.47 L 347.11 520.71 L 344.67 518.96 L 342.24 517.21 L 339.81 515.44 L 337.39 513.67 L 334.99 511.88 L 332.58 510.09 L 330.17 508.30 L 327.76 506.51 L 325.34 504.74 L 322.92 502.96 L 320.51 501.18 L 318.09 499.40 L 315.69 497.61 L 313.27 495.83 L 310.86 494.05 L 308.45 492.27 L 306.03 490.49 L 303.61 488.71 L 301.19 486.94 L 298.78 485.16 L 296.36 483.38 L 293.94 481.61 L 291.52 479.83 L 289.11 478.05 L 286.69 476.27 L 284.28 474.49 L 281.87 472.70 L 279.46 470.92 L 277.06 469.12 L 274.64 467.34 L 272.23 465.56 L 269.82 463.78 L 267.40 462.00 L 264.99 460.22 L 262.57 458.44 L 260.15 456.66 L 257.73 454.89 L 255.32 453.11 L 252.90 451.33 L 250.48 449.55 L 248.06 447.79 L 245.63 446.03 L 243.21 444.25 L 240.78 442.49 L 238.35 440.73 L 235.92 438.97 L 233.50 437.21 L 231.07 435.45 L 228.64 433.68 L 226.22 431.91 L 223.79 430.15 L 221.37 428.38 L 218.95 426.61 L 216.52 424.84 L 214.10 423.08 L 211.67 421.32 L 209.25 419.54 L 206.83 417.77 L 204.42 415.98 L 202.01 414.19 L 199.60 412.41 L 197.19 410.62 L 194.77 408.84 L 192.36 407.06 L 189.95 405.28 L 187.53 403.50 L 185.10 401.74 L 182.68 399.98 L 180.24 398.22 L 177.80 396.47 L 175.36 394.73 L 172.92 392.98 L 170.48 391.24 L 168.04 389.49 L 165.60 387.75 L 163.17 385.99 L 160.73 384.24 L 158.30 382.48 L 155.87 380.73 L 153.43 378.98 L 150.99 377.24 L 148.54 375.50 L 146.10 373.77 L 143.65 372.03 L 141.21 370.29 L 138.77 368.54 L 136.32 366.81 L 133.88 365.07 L 131.44 363.31 L 129.00 361.57 L 126.56 359.83 L 124.11 358.09 L 121.66 356.37 L 119.20 354.65 L 116.74 352.94 L 114.28 351.21 L 111.83 349.49 L 109.37 347.77 L 106.91 346.04 L 104.46 344.32 L 102.01 342.59 L 99.55 340.87 L 97.10 339.14 L 94.65 337.41 L 92.19 335.69 L 89.72 333.99 L 87.26 332.27 L 84.81 330.53 L 82.35 328.81 L 79.89 327.10 L 77.44 325.38 L 74.98 323.66 L 72.51 321.95 L 70.05 320.24 L 67.59 318.52 L 65.13 316.79 L 62.68 315.07 L 60.23 313.34 L 57.78 311.61 L 55.32 309.88 L 52.87 308.15 L 50.43 306.41 L 47.99 304.67 L 45.54 302.93 L 43.11 301.17 L 40.68 299.42 L 38.24 297.67 L 35.80 295.92 L 33.37 294.17 L 30.94 292.41 L 28.52 290.64 L 26.09 288.87 L 23.68 287.09 L 21.27 285.31 L 18.85 283.53 L 16.43 281.75 L 14.01 279.98 L 11.59 278.21 L 9.16 276.44 L 6.73 274.69 L 4.29 272.94 L 1.86 271.19 L -0.58 269.44 L -3.02 267.70 L -5.48 265.97 L -7.93 264.25 L -10.38 262.52 L -12.83 260.78 L -15.27 259.04 L -17.72 257.30 L -20.16 255.57" stroke="rgb(245,245,245)" stroke-opacity="0.696" stroke-width="1.08" />
  <path d="M 990.84 1100.83 L 991.71 1103.12 L 992.57 1105.40 L 993.42 1107.67 L 994.18 1109.98 L 994.85 1112.30 L 995.48 1114.62 L 996.04 1116.95 L 996.60 1119.29 L 997.27 1121.59 L 997.93 1123.89 L 998.53 1126.19 L 999.11 1128.49 L 999.68 1130.78 L 1000.19 1133.08 L 1000.72 1135.38 L 1001.21 1137.67 L 1001.54 1139.98 L 1001.78 1142.29 L 1002.12 1144.59 L 1002.31 1146.89 L 1002.58 1149.17 L 1002.85 1151.44 L 1003.16 1153.70 L 1003.42 1155.95 L 1003.68 1158.19 L 1003.91 1160.42 L 1004.13 1162.64 L 1004.35 1164.85 L 1004.50 1167.06 L 1004.75 1169.26 L 1005.09 1171.44 L 1005.34 1173.61 L 1005.57 1175.78 L 1005.79 1177.94 L 1006.11 1180.09 L 1006.43 1182.23 L 1006.78 1184.35 L 1007.12 1186.47 L 1007.42 1188.59 L 1007.77 1190.69 L 1008.12 1192.78 L 1008.48 1194.86 L 1008.99 1196.91 L 1009.49 1198.94 L 1009.98 1200.98 L 1010.48 1203.00 L 1011.01 1205.00 L 1011.52 1207.00 L 1012.02 1208.99 L 1012.61 1210.95 L 1013.25 1212.88 L 1013.91 1214.80 L 1014.56 1216.72 L 1015.11 1218.65" stroke="rgb(205,165,255)" stroke-opacity="0.460" stroke-width="1.08" />
  <path d="M 1002.08 996.98 L 999.91 995.91 L 997.71 994.95 L 995.51 994.00 L 993.33 993.01 L 991.17 992.04 L 988.99 991.10 L 986.87 990.08 L 984.78 989.00 L 982.70 987.92 L 980.66 986.79 L 978.59 985.76 L 976.52 984.72 L 974.46 983.69 L 972.38 982.75 L 970.28 981.87" stroke="rgb(205,165,255)" stroke-opacity="0.458" stroke-width="1.07" />
  <path d="M 999.00 1001.98 L 1000.14 1000.82 L 1001.28 999.66 L 1002.37 998.51 L 1003.42 997.31 L 1004.47 996.13 L 1005.42 994.97 L 1006.40 993.87 L 1007.37 992.78" stroke="rgb(205,165,255)" stroke-opacity="0.455" stroke-width="1.06" />
  <path d="M 1007.89 1001.54 L 1008.38 1000.55 L 1008.83 999.57 L 1009.28 998.59 L 1009.75 997.60 L 1010.30 996.57 L 1010.86 995.54 L 1011.52 994.49 L 1012.18 993.37 L 1012.83 992.24" stroke="rgb(230,230,230)" stroke-opacity="0.386" stroke-width="0.71" />
  <path d="M 997.38 1004.34 L 998.06 1004.37 L 998.90 1004.25 L 999.72 1004.15 L 1000.58 1004.20 L 1001.44 1004.29 L 1002.25 1004.29 L 1003.07 1004.37 L 1003.87 1004.52 L 1004.54 1004.76 L 1005.26 1004.84" stroke="rgb(230,230,230)" stroke-opacity="0.382" stroke-width="0.70" />
  <path d="M 1005.54 999.82 L 1005.98 1000.41 L 1006.59 1000.66 L 1007.16 1000.89 L 1007.80 1001.13 L 1008.45 1001.60 L 1009.18 1002.25 L 1009.74 1002.95 L 1010.29 1003.65 L 1010.88 1004.43 L 1011.20 1005.11 L 1011.49 1005.89 L 1011.79 1006.66 L 1012.06 1007.64 L 1012.45 1008.49 L 1012.75 1009.42" stroke="rgb(230,230,230)" stroke-opacity="0.381" stroke-width="0.70" />
  <path d="M 997.34 999.02 L 998.58 998.44 L 999.81 997.95 L 1001.03 997.57 L 1002.22 997.11 L 1003.41 996.60" stroke="rgb(230,230,230)" stroke-opacity="0.381" stroke-width="0.70" />
  <path d="M 997.62 999.13 L 996.22 998.97 L 994.89 998.96 L 993.56 998.95 L 992.29 998.95 L 990.96 999.23 L 989.60 999.53 L 988.28 999.95" stroke="rgb(230,230,230)" stroke-opacity="0.376" stroke-width="0.69" />
  <path d="M 1001.16 1002.41 L 1001.06 1002.73 L 1000.95 1003.06 L 1000.88 1003.47 L 1000.97 1003.86 L 1001.03 1004.28 L 1001.02 1004.81 L 1000.99 1005.39" stroke="rgb(230,230,230)" stroke-opacity="0.376" stroke-width="0.68" />
  <path d="M 1001.91 1009.44 L 1001.51 1010.59 L 1001.14 1011.72 L 1000.74 1012.82 L 1000.44 1013.95 L 1000.13 1015.07 L 999.82 1016.20 L 999.76 1017.41 L 999.71 1018.63 L 999.72 1019.84 L 999.93 1021.03 L 1000.15 1022.17 L 1000.49 1023.23 L 1000.48 1024.31 L 1000.55 1025.30" stroke="rgb(230,230,230)" stroke-opacity="0.373" stroke-width="0.68" />
  <path d="M 997.99 1001.65 L 999.30 1002.23 L 1000.62 1002.83" stroke="rgb(230,230,230)" stroke-opacity="0.369" stroke-width="0.67" />
  <path d="M 1001.79 1009.03 L 1002.00 1008.29 L 1001.87 1007.67 L 1001.75 1006.77 L 1001.71 1005.70 L 1001.59 1004.62 L 1001.48 1003.55 L 1001.50 1002.47 L 1001.46 1001.30 L 1001.42 1000.15" stroke="rgb(230,230,230)" stroke-opacity="0.368" stroke-width="0.66" />
  <path d="M 1001.88 1008.03 L 1000.97 1008.56 L 1000.07 1009.07 L 999.28 1009.51 L 998.60 1010.05 L 997.88 1010.61 L 997.26 1011.29 L 996.70 1012.03" stroke="rgb(230,230,230)" stroke-opacity="0.368" stroke-width="0.66" />
  <path d="M 995.65 1001.05 L 994.85 1002.21 L 994.09 1003.34 L 993.35 1004.47 L 992.60 1005.53 L 991.84 1006.59 L 991.18 1007.64 L 990.53 1008.73" stroke="rgb(230,230,230)" stroke-opacity="0.364" stroke-width="0.65" />
  <path d="M 999.51 1006.48 L 999.01 1005.15 L 998.46 1003.84 L 997.92 1002.52 L 997.36 1001.22 L 996.81 999.91 L 996.24 998.60 L 995.76 997.28 L 995.28 995.98 L 994.84 994.75 L 994.40 993.51 L 994.03 992.27 L 993.68 991.04 L 993.27 989.85 L 992.81 988.64 L 992.22 987.49 L 991.61 986.36" stroke="rgb(230,230,230)" stroke-opacity="0.362" stroke-width="0.64" />
  <path d="M 996.03 1001.37 L 996.91 1001.54 L 997.78 1001.72 L 998.63 1001.89" stroke="rgb(230,230,230)" stroke-opacity="0.362" stroke-width="0.64" />
  <path d="M 1000.37 1006.09 L 998.89 1006.28 L 997.51 1006.71 L 996.18 1007.30 L 994.85 1007.66 L 993.61 1008.25 L 992.36 1008.92 L 991.14 1009.60 L 990.03 1010.40 L 988.90 1011.19" stroke="rgb(230,230,230)" stroke-opacity="0.361" stroke-width="0.64" />
  <path d="M 988.46 999.16 L 988.42 997.73 L 988.52 996.30 L 988.49 994.83 L 988.40 993.39 L 988.23 991.93 L 988.05 990.50" stroke="rgb(230,230,230)" stroke-opacity="0.356" stroke-width="0.63" />
  <path d="M 993.88 1002.93 L 993.12 1004.18 L 992.39 1005.42 L 991.66 1006.65 L 990.93 1007.88 L 990.20 1009.10 L 989.50 1010.33 L 988.72 1011.48 L 987.96 1012.62 L 987.14 1013.73 L 986.41 1014.88 L 985.72 1016.04 L 985.02 1017.21 L 984.33 1018.37 L 983.63 1019.47 L 982.83 1020.49 L 982.04 1021.52" stroke="rgb(230,230,230)" stroke-opacity="0.355" stroke-width="0.63" />
  <path d="M 1003.72 995.50 L 1004.21 994.46 L 1004.71 993.45 L 1005.36 992.53 L 1005.90 991.71 L 1006.42 990.94 L 1007.02 990.29" stroke="rgb(230,230,230)" stroke-opacity="0.349" stroke-width="0.61" />
  <path d="M 1005.91 1001.45 L 1006.44 1000.34 L 1006.89 999.14 L 1007.17 997.83 L 1007.49 996.52 L 1007.93 995.21 L 1008.42 993.93 L 1008.90 992.65 L 1009.29 991.36 L 1009.86 990.17 L 1010.27 988.90 L 1010.70 987.62 L 1010.86 986.24 L 1011.17 984.91 L 1011.59 983.67 L 1012.08 982.46 L 1012.56 981.18 L 1012.98 979.92 L 1013.39 978.62 L 1013.91 977.40 L 1014.41 976.15 L 1014.84 974.94" stroke="rgb(230,230,230)" stroke-opacity="0.349" stroke-width="0.61" />
</g>
</svg>
