{
  "asset": {
    "version": "2.0",
    "generator": "TES-23 Cosmic Ray Renderer"
  },
  "extensionsUsed": [
    "KHR_materials_unlit"
  ],
  "extensionsRequired": [
    "KHR_materials_unlit"
  ],
  "scene": 0,
  "scenes": [
    {
      "nodes": [
        0
      ]
    }
  ],
  "nodes": [
    {
      "name": "CosmicRayEvent",
      "mesh": 0
    }
  ],
  "meshes": [
    {
      "name": "CosmicRayEvent",
      "primitives": [
        {
          "attributes": {
            "POSITION": 0
          },
          "material": 0,
          "mode": 1
        },
        {
          "attributes": {
            "POSITION": 1
          },
          "material": 1,
          "mode": 1
        },
        {
          "attributes": {
            "POSITION": 2
          },
          "material": 2,
          "mode": 1
        },
        {
          "attributes": {
            "POSITION": 3
          },
          "material": 3,
          "mode": 1
        },
        {
          "attributes": {
            "POSITION": 4
          },
          "material": 4,
          "mode": 1
        }
      ]
    }
  ],
  "materials": [
    {
      "name": "primary",
      "extensions": {
        "KHR_materials_unlit": {}
      },
      "pbrMetallicRoughness": {
        "baseColorFactor": [
          0.961,
          0.961,
          0.961,
          1
        ],
        "metallicFactor": 0,
        "roughnessFactor": 1
      }
    },
    {
      "name": "vertex",
      "extensions": {
        "KHR_materials_unlit": {}
      },
      "pbrMetallicRoughness": {
        "baseColorFactor": [
          0.902,
          0.902,
          0.902,
          0.9
        ],
        "metallicFactor": 0,
        "roughnessFactor": 1
      }
    },
    {
      "name": "em",
      "extensions": {
        "KHR_materials_unlit": {}
      },
      "pbrMetallicRoughness": {
        "baseColorFactor": [
          0.471,
          0.824,
          1,
          1
        ],
        "metallicFactor": 0,
        "roughnessFactor": 1
      }
    },
    {
      "name": "hadron",
      "extensions": {
        "KHR_materials_unlit": {}
      },
      "pbrMetallicRoughness": {
        "baseColorFactor": [
          0.549,
          1,
          0.745,
          1
        ],
        "metallicFactor": 0,
        "roughnessFactor": 1
      }
    },
    {
      "name": "delta",
      "extensions": {
        "KHR_materials_unlit": {}
      },
      "pbrMetallicRoughness": {
        "baseColorFactor": [
          0.804,
          0.647,
          1,
          1
        ],
        "metallicFactor": 0,
        "roughnessFactor": 1
      }
    }
  ],
  "accessors": [
    {
      "bufferView": 0,
      "byteOffset": 0,
      "componentType": 5126,
      "count": 1444,
      "type": "VEC3",
      "min": [
        -0.38511887192726135,
        -1.0003124475479126,
        0
      ],
      "max": [
        0.39006319642066956,
        1.0215510129928589,
        0
      ]
    },
    {
      "bufferView": 1,
      "byteOffset": 0,
      "componentType": 5126,
      "count": 280,
      "type": "VEC3",
      "min": [
        -0.014158184640109539,
        -0.010549739003181458,
        -0.049100395292043686
      ],
      "max": [
        0.010577434673905373,
        0.011813623830676079,
        0.07020080089569092
      ]
    },
    {
      "bufferView": 2,
      "byteOffset": 0,
      "componentType": 5126,
      "count": 1398,
      "type": "VEC3",
      "min": [
        -0.10769988596439362,
        -0.0026357697788625956,
        -0.10439132153987885
      ],
      "max": [
        0.0028770589269697666,
        0.2459922730922699,
        0.07488647103309631
      ]
    },
    {
      "bufferView": 3,
      "byteOffset": 0,
      "componentType": 5126,
      "count": 2246,
      "type": "VEC3",
      "min": [
        -0.1569928377866745,
        -0.00359934545122087,
        -0.43223807215690613
      ],
      "max": [
        0.004299339838325977,
        0.28583911061286926,
        0.2487991601228714
      ]
    },
    {
      "bufferView": 4,
      "byteOffset": 0,
      "componentType": 5126,
      "count": 986,
      "type": "VEC3",
      "min": [
        -0.1859874129295349,
        -0.042357828468084335,
        -0.468741774559021
      ],
      "max": [
        0.2186306267976761,
        0.21142202615737915,
        0.3462584614753723
      ]
    }
  ],
  "bufferViews": [
    {
      "buffer": 0,
      "byteOffset": 0,
      "byteLength": 17328,
      "target": 34962
    },
    {
      "buffer": 0,
      "byteOffset": 17328,
      "byteLength": 3360,
      "target": 34962
    },
    {
      "buffer": 0,
      "byteOffset": 20688,
      "byteLength": 16776,
      "target": 34962
    },
    {
      "buffer": 0,
      "byteOffset": 37464,
      "byteLength": 26952,
      "target": 34962
    },
    {
      "buffer": 0,
      "byteOffset": 64416,
      "byteLength": 11832,
      "target": 34962
    }
  ],
  "buffers": [
    {
      "byteLength": 76248,
      "uri": "data:application/octet-stream;base64,"
    }
  ]
}