<?xml version="1.0" encoding="UTF-8"?>
<svg xmlns="http://www.w3.org/2000/svg" width="2000" height="2000" viewBox="0 0 2000 2000">
<g fill="none" stroke-linecap="round" stroke-linejoin="round">
  <path d="M 949.05 998.58 L 945.77 998.23 L 942.51 997.88 L 939.26 997.55 L 936.01 997.33 L 932.77 997.14 L 929.54 996.94 L 926.33 996.74 L 923.13 996.57 L 919.94 996.40 L 916.77 996.24 L 913.61 996.00 L 910.46 995.85 L 907.32 995.69 L 904.20 995.53 L 901.08 995.37 L 897.98 995.22 L 894.89 995.15 L 891.82 995.06 L 888.75 995.00 L 885.70 994.99 L 882.66 994.96 L 879.63 994.94 L 876.61 994.87 L 873.60 994.79 L 870.61 994.64 L 867.63 994.55 L 864.67 994.47 L 861.71 994.42 L 858.77 994.35 L 855.83 994.28 L 852.91 994.21 L 850.00 994.08 L 847.10 993.99 L 844.22 993.96 L 841.34 993.86 L 838.48 993.73 L 835.63 993.59 L 832.79 993.40 L 829.97 993.21 L 827.16 993.00 L 824.36 992.78 L 821.57 992.55 L 818.80 992.33 L 816.03 992.10 L 813.28 991.89 L 810.54 991.71 L 807.80 991.49 L 805.08 991.26" stroke="rgb(120,210,255)" stroke-opacity="0.854" stroke-width="1.64" />
  <path d="M 999.52 1000.05 L 996.45 999.95 L 993.38 999.91 L 990.34 999.82 L 987.30 999.82 L 984.27 999.79 L 981.26 999.77 L 978.26 999.78 L 975.27 999.81 L 972.29 999.83 L 969.33 999.85 L 966.38 999.87 L 963.44 999.85 L 960.51 999.83 L 957.59 999.79 L 954.69 999.76 L 951.79 999.74 L 948.92 999.70 L 946.06 999.73 L 943.21 999.78 L 940.37 999.84 L 937.54 999.89 L 934.72 999.95 L 931.91 1000.07 L 929.11 1000.19 L 926.33 1000.35 L 923.56 1000.51 L 920.80 1000.70 L 918.05 1000.82 L 915.31 1000.96 L 912.59 1001.11 L 909.88 1001.27 L 907.18 1001.41 L 904.49 1001.54 L 901.81 1001.68 L 899.15 1001.87 L 896.51 1002.09 L 893.88 1002.30 L 891.26 1002.51 L 888.65 1002.70 L 886.05 1002.88 L 883.47 1003.04 L 880.90 1003.17 L 878.34 1003.21 L 875.79 1003.25" stroke="rgb(120,210,255)" stroke-opacity="0.469" stroke-width="1.63" />
  <path d="M 930.52 996.69 L 927.45 995.91 L 924.40 995.11 L 921.37 994.28 L 918.36 993.42 L 915.34 992.65 L 912.36 991.81 L 909.39 990.94 L 906.44 990.07 L 903.51 989.19 L 900.59 988.27 L 897.71 987.32 L 894.83 986.37 L 891.97 985.42 L 889.11 984.49 L 886.30 983.48 L 883.49 982.47 L 880.69 981.48 L 877.90 980.53 L 875.13 979.57 L 872.38 978.60 L 869.64 977.68 L 866.91 976.75 L 864.19 975.86 L 861.46 975.01 L 858.74 974.14 L 856.02 973.32 L 853.32 972.44 L 850.62 971.58 L 847.93 970.71 L 845.24 969.89 L 842.56 969.05 L 839.89 968.23 L 837.26 967.34 L 834.61 966.58 L 831.93 965.92 L 829.27 965.24 L 826.64 964.51 L 824.02 963.79 L 821.40 963.07 L 818.83 962.28 L 816.26 961.49 L 813.70 960.71 L 811.16 959.93 L 808.62 959.13 L 806.14 958.20 L 803.67 957.28 L 801.19 956.42 L 798.70 955.60 L 796.22 954.79 L 793.75 954.00 L 791.28 953.21 L 788.83 952.40 L 786.48 951.38 L 784.16 950.30 L 781.85 949.23 L 779.54 948.17 L 777.24 947.13 L 774.95 946.10 L 772.66 945.11 L 770.38 944.11 L 768.10 943.12 L 765.84 942.12 L 763.61 941.09 L 761.38 940.08 L 759.17 939.06 L 757.02 937.94 L 754.87 936.85 L 752.76 935.71" stroke="rgb(120,210,255)" stroke-opacity="0.852" stroke-width="1.63" />
  <path d="M 1000.39 998.72 L 996.91 999.04 L 993.45 999.38 L 990.00 999.72 L 986.57 1000.09 L 983.16 1000.50 L 979.76 1000.90 L 976.37 1001.32 L 973.00 1001.73 L 969.65 1002.17 L 966.31 1002.61 L 962.98 1003.05 L 959.67 1003.46 L 956.37 1003.89 L 953.08 1004.31 L 949.81 1004.71 L 946.54 1005.11 L 943.30 1005.53 L 940.07 1005.95 L 936.84 1006.33 L 933.63 1006.71 L 930.43 1007.11 L 927.25 1007.51 L 924.08 1007.89 L 920.91 1008.25 L 917.77 1008.61 L 914.63 1008.95 L 911.51 1009.28 L 908.39 1009.57 L 905.29 1009.85 L 902.20 1010.13 L 899.12 1010.43 L 896.05 1010.74 L 893.00 1011.03 L 889.95 1011.32 L 886.92 1011.60 L 883.90 1011.87 L 880.90 1012.15 L 877.90 1012.42 L 874.92 1012.67 L 871.95 1012.95 L 868.99 1013.21 L 866.04 1013.47 L 863.10 1013.73 L 860.18 1013.99 L 857.27 1014.22 L 854.37 1014.47 L 851.48 1014.72 L 848.60 1015.00 L 845.74 1015.31 L 842.89 1015.62 L 840.06 1015.93 L 837.23 1016.24 L 834.42 1016.56 L 831.62 1016.89 L 828.83 1017.19 L 826.04 1017.50 L 823.27 1017.80 L 820.52 1018.11 L 817.77 1018.41 L 815.04 1018.74 L 812.31 1019.06 L 809.60 1019.37 L 806.90 1019.70 L 804.22 1020.02 L 801.54 1020.30 L 798.87 1020.60 L 796.20 1020.89 L 793.56 1021.17 L 790.92 1021.47 L 788.29 1021.77 L 785.66 1022.05 L 783.05 1022.34 L 780.46 1022.63 L 777.87 1022.91 L 775.29 1023.19 L 772.72 1023.46 L 770.16 1023.71 L 767.61 1023.97 L 765.07 1024.24 L 762.54 1024.51 L 760.02 1024.77 L 757.51 1025.03 L 755.02 1025.29 L 752.53 1025.53 L 750.04 1025.76 L 747.57 1025.98 L 745.11 1026.21 L 742.66 1026.43 L 740.21 1026.63 L 737.77 1026.85 L 735.35 1027.08 L 732.94 1027.32 L 730.54 1027.55 L 728.14 1027.77 L 725.76 1027.98" stroke="rgb(120,210,255)" stroke-opacity="0.851" stroke-width="1.63" />
  <path d="M 1000.87 1001.45 L 997.56 1001.54 L 994.26 1001.63 L 990.98 1001.73 L 987.71 1001.79 L 984.45 1001.82 L 981.21 1001.83 L 977.98 1001.86 L 974.76 1001.85 L 971.55 1001.88 L 968.36 1001.92 L 965.18 1001.96 L 962.02 1002.04 L 958.86 1002.12 L 955.72 1002.21 L 952.59 1002.28 L 949.48 1002.39 L 946.37 1002.46 L 943.28 1002.53 L 940.20 1002.63 L 937.14 1002.72 L 934.08 1002.80 L 931.04 1002.90 L 928.01 1002.94 L 925.00 1003.00 L 921.99 1003.05 L 919.00 1003.05 L 916.01 1003.03 L 913.04 1003.02 L 910.08 1003.02 L 907.14 1003.08 L 904.21 1003.14 L 901.29 1003.27 L 898.39 1003.43 L 895.49 1003.58 L 892.61 1003.75 L 889.74 1003.90 L 886.88 1004.05 L 884.04 1004.19 L 881.20 1004.30 L 878.38 1004.44 L 875.57 1004.55 L 872.78 1004.69 L 870.00 1004.82 L 867.23 1004.99 L 864.46 1005.17 L 861.71 1005.35 L 858.97 1005.51 L 856.23 1005.67 L 853.51 1005.83 L 850.80 1006.07" stroke="rgb(120,210,255)" stroke-opacity="0.851" stroke-width="1.63" />
  <path d="M 1000.92 1000.25 L 997.75 1000.22 L 994.58 1000.22 L 991.43 1000.22 L 988.29 1000.21 L 985.16 1000.18 L 982.04 1000.16 L 978.95 1000.11 L 975.86 1000.00 L 972.79 999.91 L 969.72 999.79 L 966.67 999.67 L 963.64 999.63 L 960.61 999.61 L 957.59 999.60 L 954.59 999.62 L 951.60 999.66 L 948.62 999.69 L 945.65 999.70 L 942.69 999.62 L 939.74 999.54 L 936.81 999.52 L 933.88 999.51 L 930.97 999.46 L 928.06 999.42 L 925.17 999.41 L 922.30 999.37 L 919.43 999.34 L 916.57 999.36 L 913.73 999.37 L 910.89 999.38 L 908.07 999.45 L 905.27 999.51 L 902.47 999.58 L 899.68 999.67 L 896.91 999.76 L 894.15 999.87 L 891.40 1000.01 L 888.66 1000.15 L 885.93 1000.29 L 883.21 1000.40 L 880.50 1000.50 L 877.80 1000.57 L 875.11 1000.64 L 872.44 1000.74 L 869.77 1000.87" stroke="rgb(120,210,255)" stroke-opacity="0.850" stroke-width="1.62" />
  <path d="M 919.97 997.06 L 916.62 997.40 L 913.28 997.74 L 909.96 998.15 L 906.66 998.55 L 903.37 998.98 L 900.10 999.38 L 896.83 999.78 L 893.59 1000.25 L 890.37 1000.73 L 887.16 1001.21 L 883.96 1001.68 L 880.78 1002.19 L 877.62 1002.68 L 874.46 1003.16 L 871.32 1003.64 L 868.20 1004.19 L 865.09 1004.77 L 862.00 1005.33 L 858.91 1005.89 L 855.85 1006.46 L 852.81 1007.12 L 849.80 1007.81 L 846.79 1008.50 L 843.79 1009.17 L 840.79 1009.76 L 837.80 1010.32 L 834.83 1010.88 L 831.86 1011.43 L 828.89 1011.93 L 825.95 1012.42 L 823.01 1012.91 L 820.08 1013.37 L 817.16 1013.78 L 814.24 1014.21 L 811.35 1014.68 L 808.46 1015.07 L 805.57 1015.46 L 802.70 1015.83 L 799.84 1016.21 L 796.98 1016.59 L 794.15 1016.95 L 791.33 1017.33 L 788.52 1017.70 L 785.72 1018.09 L 782.95 1018.52 L 780.19 1019.02 L 777.46 1019.53 L 774.73 1020.06 L 772.02 1020.61 L 769.32 1021.17 L 766.63 1021.72 L 763.94 1022.24 L 761.26 1022.73 L 758.58 1023.17 L 755.90 1023.58 L 753.24 1024.01 L 750.60 1024.47 L 747.96 1024.90 L 745.33 1025.26 L 742.70 1025.60 L 740.08 1025.95 L 737.46 1026.22 L 734.86 1026.46 L 732.27 1026.69 L 729.69 1026.97 L 727.13 1027.27 L 724.58 1027.61 L 722.04 1027.95 L 719.51 1028.29 L 716.99 1028.61 L 714.47 1028.93 L 711.97 1029.27 L 709.48 1029.60 L 707.01 1029.95 L 704.54 1030.30 L 702.09 1030.64 L 699.65 1031.01 L 697.21 1031.35 L 694.79 1031.64 L 692.37 1031.95 L 689.97 1032.26" stroke="rgb(120,210,255)" stroke-opacity="0.848" stroke-width="1.62" />
  <path d="M 948.72 997.16 L 945.46 997.42 L 942.21 997.69 L 938.98 997.93 L 935.76 998.18 L 932.56 998.43 L 929.36 998.65 L 926.18 998.87 L 923.01 999.10 L 919.84 999.34 L 916.70 999.56 L 913.57 999.77 L 910.46 999.97 L 907.36 1000.20 L 904.26 1000.41 L 901.18 1000.64 L 898.10 1000.87 L 895.04 1001.13 L 891.99 1001.44 L 888.96 1001.80 L 885.93 1002.14 L 882.92 1002.52 L 879.93 1002.91 L 876.95 1003.30 L 873.97 1003.64 L 871.01 1004.00 L 868.05 1004.32 L 865.10 1004.59 L 862.16 1004.87 L 859.24 1005.17 L 856.33 1005.45 L 853.43 1005.76 L 850.55 1006.07 L 847.67 1006.37 L 844.81 1006.68 L 841.96 1007.02 L 839.13 1007.36 L 836.30 1007.70 L 833.49 1008.01 L 830.69 1008.31" stroke="rgb(120,210,255)" stroke-opacity="0.845" stroke-width="1.61" />
  <path d="M 997.95 1001.60 L 994.90 1001.49 L 991.86 1001.46 L 988.84 1001.43 L 985.82 1001.45 L 982.81 1001.42 L 979.82 1001.45 L 976.84 1001.56 L 973.88 1001.68 L 970.93 1001.78 L 967.98 1001.87 L 965.05 1001.94 L 962.13 1001.99 L 959.23 1001.94 L 956.34 1001.86 L 953.46 1001.73 L 950.59 1001.61 L 947.75 1001.38 L 944.91 1001.03 L 942.10 1000.66 L 939.31 1000.18 L 936.53 999.70 L 933.78 999.16 L 931.04 998.63 L 928.31 998.11 L 925.58 997.62 L 922.86 997.14 L 920.14 996.69 L 917.43 996.28 L 914.73 995.83 L 912.05 995.39 L 909.37 995.00 L 906.71 994.59 L 904.05 994.18 L 901.40 993.78 L 898.77 993.38 L 896.14 992.99 L 893.53 992.59 L 890.92 992.23 L 888.32 991.90 L 885.73 991.61 L 883.14 991.31 L 880.57 991.01 L 878.00 990.71 L 875.45 990.40 L 872.91 990.08 L 870.38 989.74 L 867.86 989.41 L 865.35 989.07 L 862.86 988.68 L 860.37 988.31 L 857.90 987.93 L 855.43 987.56 L 852.97 987.19 L 850.53 986.81 L 848.09 986.44 L 845.67 986.07 L 843.25 985.70 L 840.84 985.38 L 838.43 985.09 L 836.04 984.73 L 833.67 984.35 L 831.30 983.97 L 828.95 983.60" stroke="rgb(120,210,255)" stroke-opacity="0.465" stroke-width="1.61" />
  <path d="M 925.04 996.83 L 922.08 997.12 L 919.14 997.45 L 916.21 997.73 L 913.28 997.97 L 910.37 998.25 L 907.47 998.41 L 904.60 998.62 L 901.73 998.80 L 898.88 998.97 L 896.04 999.14 L 893.22 999.40 L 890.41 999.70 L 887.61 1000.03 L 884.81 1000.31 L 882.03 1000.61 L 879.25 1000.91 L 876.49 1001.27 L 873.74 1001.64 L 871.01 1002.04 L 868.28 1002.40" stroke="rgb(120,210,255)" stroke-opacity="0.464" stroke-width="1.61" />
  <path d="M 910.89 999.38 L 907.49 998.91 L 904.11 998.43 L 900.72 998.02 L 897.35 997.60 L 894.02 997.07 L 890.69 996.52 L 887.38 996.00 L 884.08 995.50 L 880.78 995.11 L 877.49 994.72 L 874.21 994.33 L 870.95 993.94 L 867.71 993.51 L 864.47 993.09 L 861.25 992.65 L 858.04 992.23 L 854.84 991.83 L 851.66 991.39 L 848.49 990.98 L 845.33 990.59 L 842.18 990.23 L 839.04 989.83 L 835.92 989.41 L 832.82 988.99 L 829.72 988.59 L 826.64 988.20 L 823.57 987.77 L 820.51 987.38 L 817.46 987.02 L 814.43 986.62 L 811.41 986.22 L 808.41 985.83 L 805.42 985.39 L 802.44 984.95 L 799.48 984.51 L 796.52 984.09 L 793.57 983.67 L 790.64 983.25 L 787.72 982.83 L 784.81 982.41 L 781.91 981.96 L 779.03 981.53 L 776.16 981.08 L 773.31 980.58 L 770.47 980.08 L 767.66 979.53 L 764.85 979.00 L 762.07 978.46 L 759.29 977.91 L 756.52 977.40 L 753.77 976.88 L 751.02 976.43 L 748.28 975.96 L 745.56 975.50 L 742.85 975.03 L 740.14 974.57 L 737.45 974.13 L 734.77 973.69 L 732.10 973.27 L 729.44 972.87 L 726.79 972.48 L 724.16 972.07 L 721.55 971.62 L 718.95 971.18 L 716.36 970.75 L 713.78 970.32 L 711.22 969.89 L 708.66 969.46 L 706.11 968.99 L 703.58 968.51 L 701.06 967.99 L 698.55 967.47 L 696.05 966.93 L 693.57 966.38 L 691.10 965.83 L 688.64 965.26 L 686.19 964.68 L 683.76 964.10 L 681.34 963.53 L 678.92 962.97 L 676.51 962.40" stroke="rgb(120,210,255)" stroke-opacity="0.844" stroke-width="1.60" />
  <path d="M 996.47 999.75 L 992.99 999.77 L 989.53 999.78 L 986.08 999.79 L 982.64 999.79 L 979.22 999.75 L 975.81 999.68 L 972.42 999.60 L 969.04 999.50 L 965.67 999.37 L 962.32 999.23 L 958.98 999.09 L 955.66 998.96 L 952.35 998.77 L 949.05 998.58 L 945.77 998.39 L 942.50 998.23 L 939.24 998.04 L 936.00 997.89 L 932.77 997.72 L 929.55 997.57 L 926.34 997.40 L 923.15 997.23 L 919.97 997.06 L 916.80 996.88 L 913.64 996.70 L 910.50 996.51 L 907.37 996.31 L 904.26 996.08" stroke="rgb(120,210,255)" stroke-opacity="0.843" stroke-width="1.60" />
  <path d="M 996.86 1002.24 L 993.59 1002.16 L 990.33 1002.07 L 987.08 1001.98 L 983.85 1001.93 L 980.62 1001.84 L 977.42 1001.72 L 974.22 1001.62 L 971.04 1001.52 L 967.88 1001.30 L 964.73 1001.09 L 961.59 1000.89 L 958.46 1000.67 L 955.35 1000.40 L 952.26 1000.12 L 949.17 999.83 L 946.10 999.54 L 943.05 999.21 L 940.01 998.87 L 936.99 998.49 L 933.98 998.09 L 930.98 997.68 L 928.00 997.27 L 925.04 996.83 L 922.09 996.36 L 919.15 995.89 L 916.20 995.57 L 913.27 995.25 L 910.35 994.93 L 907.44 994.59" stroke="rgb(120,210,255)" stroke-opacity="0.843" stroke-width="1.60" />
  <path d="M 927.53 996.62 L 924.33 995.78 L 921.14 994.94 L 917.98 994.06 L 914.81 993.23 L 911.69 992.32 L 908.55 991.46 L 905.44 990.58 L 902.32 989.78 L 899.21 989.00 L 896.13 988.17 L 893.04 987.41 L 889.97 986.62 L 886.92 985.81 L 883.88 984.99 L 880.85 984.19 L 877.86 983.34 L 874.87 982.47 L 871.90 981.61 L 868.94 980.76 L 865.98 979.95 L 863.01 979.22 L 860.04 978.56 L 857.06 977.97 L 854.10 977.37 L 851.14 976.83 L 848.20 976.28 L 845.26 975.77 L 842.33 975.25 L 839.42 974.71 L 836.52 974.16 L 833.64 973.60 L 830.77 973.04 L 827.91 972.48 L 825.06 971.93 L 822.23 971.35 L 819.42 970.74 L 816.63 970.07 L 813.84 969.47 L 811.06 968.88 L 808.29 968.28 L 805.54 967.68 L 802.80 967.08 L 800.08 966.41" stroke="rgb(120,210,255)" stroke-opacity="0.842" stroke-width="1.60" />
  <path d="M 1001.30 995.35 L 998.03 995.49 L 994.77 995.57 L 991.52 995.64 L 988.28 995.63 L 985.06 995.64 L 981.86 995.71 L 978.66 995.80 L 975.48 995.86 L 972.32 995.93 L 969.17 996.04 L 966.04 996.15 L 962.92 996.24 L 959.81 996.36 L 956.71 996.48 L 953.62 996.62 L 950.54 996.77 L 947.48 996.91 L 944.42 997.04 L 941.38 997.14 L 938.35 997.23 L 935.33 997.28 L 932.33 997.36 L 929.34 997.39 L 926.36 997.41 L 923.40 997.37 L 920.45 997.35 L 917.51 997.33 L 914.57 997.29 L 911.65 997.27 L 908.73 997.24 L 905.82 997.23 L 902.93 997.21 L 900.04 997.22 L 897.18 997.28 L 894.32 997.31 L 891.47 997.35 L 888.64 997.42" stroke="rgb(120,210,255)" stroke-opacity="0.841" stroke-width="1.60" />
  <path d="M 1000.69 1000.04 L 997.41 1000.08 L 994.14 1000.14 L 990.89 1000.23 L 987.65 1000.33 L 984.42 1000.41 L 981.21 1000.49 L 978.01 1000.54 L 974.82 1000.60 L 971.64 1000.67 L 968.48 1000.78 L 965.32 1000.87 L 962.18 1000.93 L 959.05 1000.96 L 955.94 1000.99 L 952.83 1001.02 L 949.74 1001.10 L 946.66 1001.07 L 943.60 1001.07 L 940.54 1001.08 L 937.50 1001.10 L 934.47 1001.11 L 931.45 1001.13 L 928.45 1001.18 L 925.46 1001.23 L 922.48 1001.28 L 919.51 1001.34 L 916.55 1001.35 L 913.60 1001.33 L 910.67 1001.30 L 907.75 1001.29 L 904.83 1001.30 L 901.94 1001.31 L 899.05 1001.28 L 896.18 1001.28 L 893.32 1001.24" stroke="rgb(120,210,255)" stroke-opacity="0.840" stroke-width="1.59" />
  <path d="M 999.45 1000.15 L 996.19 999.86 L 992.94 999.62 L 989.70 999.40 L 986.47 999.20 L 983.25 999.08 L 980.04 998.97 L 976.85 998.80 L 973.67 998.59 L 970.51 998.42 L 967.35 998.24 L 964.21 998.09 L 961.09 997.86 L 957.98 997.66 L 954.88 997.47 L 951.80 997.31 L 948.72 997.16 L 945.66 997.04 L 942.61 996.94 L 939.57 996.89 L 936.54 996.84 L 933.52 996.76 L 930.52 996.69 L 927.53 996.62 L 924.56 996.55 L 921.59 996.47 L 918.64 996.37 L 915.70 996.26 L 912.77 996.20 L 909.85 996.16 L 906.94 996.11 L 904.05 996.06" stroke="rgb(120,210,255)" stroke-opacity="0.840" stroke-width="1.59" />
  <path d="M 1001.62 998.92 L 998.82 998.76 L 996.02 998.65 L 993.24 998.57 L 990.46 998.47 L 987.70 998.35 L 984.95 998.22 L 982.22 998.06 L 979.50 997.81 L 976.79 997.60 L 974.10 997.31 L 971.43 996.93 L 968.77 996.57 L 966.12 996.20 L 963.49 995.80 L 960.86 995.43 L 958.24 995.07 L 955.62 994.77 L 953.01 994.47 L 950.41 994.30 L 947.81 994.08 L 945.22 993.94 L 942.65 993.76 L 940.08 993.59 L 937.53 993.39 L 934.98 993.24 L 932.45 993.09 L 929.92 992.92 L 927.41 992.77 L 924.90 992.64 L 922.40 992.51 L 919.92 992.39 L 917.45 992.11 L 914.99 991.86 L 912.54 991.65 L 910.10 991.44 L 907.66 991.29 L 905.24 991.10 L 902.83 990.86 L 900.43 990.62 L 898.04 990.38 L 895.66 990.15 L 893.29 989.88 L 890.93 989.58 L 888.59 989.28 L 886.25 989.01 L 883.92 988.75" stroke="rgb(120,210,255)" stroke-opacity="0.460" stroke-width="1.58" />
  <path d="M 1002.13 1003.01 L 999.46 1002.77 L 996.79 1002.53 L 994.13 1002.23 L 991.49 1001.92 L 988.86 1001.66 L 986.24 1001.40 L 983.62 1001.20 L 981.02 1001.01 L 978.43 1000.74 L 975.86 1000.49 L 973.30 1000.23 L 970.75 1000.01 L 968.21 999.78 L 965.67 999.67 L 963.14 999.55 L 960.62 999.39 L 958.11 999.32 L 955.59 999.28 L 953.09 999.25 L 950.59 999.24" stroke="rgb(120,210,255)" stroke-opacity="0.454" stroke-width="1.55" />
  <path d="M 896.91 999.76 L 894.19 999.55 L 891.48 999.38 L 888.79 999.22 L 886.10 999.12 L 883.41 999.13 L 880.74 999.17 L 878.08 999.18 L 875.44 999.18 L 872.80 999.11 L 870.17 999.08 L 867.56 999.07 L 864.95 999.07 L 862.35 999.02 L 859.77 998.97 L 857.20 998.93 L 854.63 998.84 L 852.08 998.75 L 849.53 998.66 L 847.00 998.69 L 844.48 998.75 L 841.96 998.82 L 839.46 998.88" stroke="rgb(120,210,255)" stroke-opacity="0.450" stroke-width="1.53" />
  <path d="M 880.50 1000.50 L 878.06 1000.83 L 875.65 1001.18 L 873.23 1001.51 L 870.83 1001.82 L 868.45 1002.25 L 866.08 1002.68 L 863.74 1003.17 L 861.40 1003.67 L 859.07 1004.12 L 856.74 1004.57 L 854.44 1005.04 L 852.13 1005.42 L 849.86 1005.92 L 847.60 1006.40 L 845.39 1007.04 L 843.18 1007.68 L 840.98 1008.34 L 838.78 1008.99 L 836.61 1009.71 L 834.46 1010.43 L 832.31 1011.14 L 830.20 1011.90 L 828.09 1012.66 L 826.06 1013.58 L 824.03 1014.47 L 822.03 1015.43 L 820.03 1016.37 L 818.00 1017.23 L 815.94 1017.98 L 813.91 1018.79 L 811.91 1019.63 L 809.85 1020.29 L 807.80 1020.97 L 805.82 1021.79 L 803.82 1022.51 L 801.77 1023.09 L 799.72 1023.61 L 797.65 1024.04 L 795.61 1024.55 L 793.59 1025.09 L 791.57 1025.56 L 789.59 1026.12 L 787.59 1026.66 L 785.60 1027.19 L 783.64 1027.81 L 781.66 1028.31 L 779.67 1028.77 L 777.69 1029.22 L 775.71 1029.68 L 773.75 1030.15 L 771.83 1030.74 L 769.92 1031.35 L 768.02 1031.95 L 766.12 1032.51 L 764.21 1033.01 L 762.34 1033.63 L 760.51 1034.34 L 758.69 1035.06 L 756.90 1035.82 L 755.11 1036.55 L 753.32 1037.27 L 751.57 1038.07" stroke="rgb(120,210,255)" stroke-opacity="0.445" stroke-width="1.50" />
  <path d="M 997.55 996.68 L 995.18 996.49 L 992.82 996.34 L 990.46 996.24 L 988.12 996.16 L 985.78 996.04 L 983.45 995.91" stroke="rgb(120,210,255)" stroke-opacity="0.439" stroke-width="1.47" />
  <path d="M 949.05 998.58 L 946.76 998.28 L 944.46 998.13 L 942.17 998.00 L 939.89 997.87 L 937.63 997.77 L 935.37 997.65 L 933.12 997.50 L 930.89 997.49 L 928.70 997.32 L 926.52 997.10 L 924.33 996.99 L 922.15 996.83 L 919.98 996.70 L 917.80 996.50 L 915.64 996.25 L 913.50 995.88 L 911.36 995.55 L 909.24 995.21 L 907.11 995.00 L 905.01 994.76 L 902.91 994.49 L 900.82 994.26 L 898.74 993.97 L 896.67 993.67 L 894.61 993.35 L 892.56 993.04 L 890.52 992.71 L 888.50 992.33 L 886.49 991.91 L 884.46 991.62 L 882.42 991.46 L 880.39 991.30 L 878.37 991.13 L 876.38 990.96 L 874.41 990.79 L 872.43 990.60 L 870.46 990.52 L 868.48 990.49 L 866.54 990.47 L 864.60 990.43 L 862.69 990.26 L 860.79 990.08 L 858.91 989.90 L 857.04 989.70 L 855.18 989.61 L 853.29 989.52 L 851.40 989.45 L 849.52 989.39 L 847.65 989.31" stroke="rgb(120,210,255)" stroke-opacity="0.438" stroke-width="1.46" />
  <path d="M 966.39 993.66 L 964.39 993.35 L 962.43 993.11 L 960.46 992.93 L 958.52 992.70 L 956.60 992.50 L 954.75 992.35 L 952.90 992.19 L 951.03 991.91 L 949.18 991.64 L 947.41 991.24 L 945.64 990.85 L 943.89 990.45 L 942.20 989.99 L 940.55 989.46 L 938.90 989.01 L 937.23 988.56 L 935.62 988.25 L 934.07 987.91 L 932.51 987.57 L 930.94 987.26 L 929.38 986.98 L 927.80 986.76 L 926.18 986.52 L 924.57 986.26 L 922.94 986.05 L 921.27 985.88 L 919.61 985.76 L 917.96 985.63 L 916.33 985.62 L 914.82 985.52 L 913.31 985.44 L 911.83 985.35 L 910.31 985.39 L 908.80 985.44 L 907.29 985.51 L 905.74 985.63 L 904.21 985.75 L 902.67 985.87 L 901.11 985.97 L 899.56 986.06 L 898.09 986.25" stroke="rgb(140,255,190)" stroke-opacity="0.579" stroke-width="1.28" />
  <path d="M 962.67 981.53 L 961.07 980.01 L 959.47 978.49 L 957.90 976.99 L 956.31 975.52 L 954.72 974.05 L 953.15 972.57 L 951.51 971.14 L 949.88 969.73 L 948.25 968.28 L 946.63 966.85 L 945.04 965.45 L 943.45 964.05 L 941.87 962.66 L 940.38 961.26 L 938.82 959.81 L 937.27 958.38 L 935.67 956.98 L 934.06 955.60 L 932.45 954.21 L 930.85 952.82 L 929.25 951.44 L 927.65 950.08 L 926.06 948.76 L 924.50 947.45 L 923.01 946.14 L 921.56 944.80 L 920.09 943.49 L 918.66 942.14 L 917.19 940.83 L 915.73 939.52 L 914.32 938.28 L 912.86 937.01 L 911.40 935.75 L 909.95 934.51 L 908.49 933.28 L 907.13 931.98 L 905.78 930.68 L 904.46 929.38 L 903.25 928.10 L 902.06 926.76 L 900.84 925.44 L 899.68 924.12 L 898.51 922.82 L 897.34 921.48 L 896.17 920.10 L 894.98 918.69 L 893.82 917.24 L 892.67 915.79 L 891.51 914.36 L 890.36 912.90 L 889.20 911.46 L 888.09 909.99 L 886.98 908.53 L 885.86 907.06 L 884.74 905.59 L 883.65 904.20 L 882.60 902.84 L 881.61 901.51 L 880.62 900.22 L 879.65 898.87 L 878.75 897.54 L 877.87 896.16 L 877.01 894.75 L 876.20 893.27 L 875.39 891.81 L 874.56 890.45 L 873.60 889.05 L 872.60 887.66 L 871.60 886.29 L 870.63 884.92 L 869.67 883.56 L 868.71 882.22 L 867.74 880.85 L 866.78 879.47 L 865.82 878.11 L 864.88 876.72 L 863.90 875.32 L 862.90 873.98 L 861.90 872.64 L 860.92 871.34 L 859.95 870.04 L 858.98 868.76 L 858.01 867.50 L 857.02 866.24 L 856.02 864.99 L 854.98 863.75 L 853.95 862.53 L 852.92 861.33 L 851.89 860.17 L 850.84 859.00 L 849.81 857.84 L 848.77 856.70 L 847.69 855.59 L 846.61 854.52 L 845.50 853.40 L 844.40 852.29 L 843.36 851.17 L 842.31 850.07 L 841.24 849.04 L 840.15 848.03 L 839.02 847.07 L 837.89 846.11 L 836.77 845.21 L 835.66 844.31 L 834.54 843.41 L 833.36 842.58 L 832.18 841.72 L 831.00 840.86 L 829.80 839.98 L 828.62 839.10 L 827.45 838.23 L 826.30 837.37 L 825.16 836.55 L 824.02 835.70 L 822.87 834.87 L 821.66 834.06 L 820.45 833.26 L 819.19 832.51 L 817.96 831.76 L 816.72 831.00 L 815.51 830.28 L 814.29 829.56 L 813.06 828.83 L 811.86 828.10 L 810.65 827.37 L 809.47 826.74 L 808.29 826.12 L 807.11 825.51" stroke="rgb(205,165,255)" stroke-opacity="0.709" stroke-width="1.21" />
  <path d="M 999.33 999.26 L 995.86 999.33 L 992.40 999.40 L 988.96 999.48 L 985.53 999.59 L 982.11 999.70 L 978.71 999.80 L 975.32 999.89 L 971.94 999.97 L 968.57 1000.04 L 965.22 1000.13 L 961.88 1000.23 L 958.55 1000.33 L 955.23 1000.46 L 951.92 1000.58 L 948.63 1000.67 L 945.35 1000.74 L 942.08 1000.80 L 938.83 1000.87 L 935.59 1000.93 L 932.36 1000.99 L 929.14 1001.03 L 925.94 1001.12 L 922.75 1001.19 L 919.57 1001.28 L 916.41 1001.37 L 913.26 1001.46 L 910.13 1001.55 L 907.00 1001.62 L 903.89 1001.70 L 900.79 1001.79 L 897.71 1001.90 L 894.64 1002.00 L 891.58 1002.11 L 888.53 1002.22 L 885.50 1002.32 L 882.48 1002.43 L 879.47 1002.50 L 876.47 1002.56 L 873.49 1002.62 L 870.52 1002.72 L 867.56 1002.80 L 864.62 1002.90 L 861.69 1003.01 L 858.77 1003.16 L 855.87 1003.35 L 852.99 1003.54 L 850.10 1003.72 L 847.23 1003.91 L 844.37 1004.09 L 841.51 1004.29 L 838.67 1004.50 L 835.84 1004.69 L 833.02 1004.85 L 830.21 1005.00 L 827.41 1005.12 L 824.62 1005.25 L 821.85 1005.39 L 819.08 1005.53 L 816.33 1005.69 L 813.59 1005.86 L 810.86 1006.02 L 808.14 1006.16 L 805.43 1006.31 L 802.73 1006.47 L 800.05 1006.63 L 797.37 1006.79 L 794.70 1006.95 L 792.05 1007.10 L 789.40 1007.25 L 786.77 1007.46 L 784.16 1007.70 L 781.55 1007.93 L 778.96 1008.20 L 776.38 1008.48 L 773.81 1008.76 L 771.25 1009.08 L 768.71 1009.39 L 766.18 1009.75 L 763.65 1010.10 L 761.14 1010.45 L 758.64 1010.80 L 756.15 1011.12 L 753.67 1011.46 L 751.20 1011.78 L 748.73 1012.09 L 746.28 1012.41 L 743.83 1012.72 L 741.40 1013.06 L 738.97 1013.40 L 736.56 1013.74 L 734.16 1014.08 L 731.76 1014.41 L 729.38 1014.80 L 727.02 1015.21 L 724.66 1015.62 L 722.31 1016.02 L 719.98 1016.41 L 717.65 1016.80 L 715.32 1017.18 L 713.01 1017.55 L 710.71 1017.93 L 708.42 1018.30 L 706.13 1018.68 L 703.86 1019.06 L 701.59 1019.42 L 699.34 1019.79 L 697.09 1020.16" stroke="rgb(140,255,190)" stroke-opacity="0.744" stroke-width="1.20" />
  <path d="M 999.15 997.96 L 995.70 997.85 L 992.27 997.75 L 988.86 997.63 L 985.45 997.50 L 982.07 997.41 L 978.69 997.31 L 975.33 997.21 L 971.98 997.12 L 968.64 997.03 L 965.32 996.94 L 962.01 996.84 L 958.72 996.77 L 955.43 996.71 L 952.16 996.63 L 948.91 996.54 L 945.66 996.47 L 942.43 996.42 L 939.21 996.39 L 936.01 996.37 L 932.82 996.33 L 929.64 996.24 L 926.48 996.05 L 923.33 995.86 L 920.19 995.69 L 917.07 995.54 L 913.95 995.42 L 910.85 995.30 L 907.76 995.13 L 904.69 994.95 L 901.62 994.76 L 898.57 994.59 L 895.54 994.41 L 892.51 994.26 L 889.50 994.12 L 886.49 993.98 L 883.50 993.87 L 880.52 993.78 L 877.55 993.72 L 874.60 993.62 L 871.66 993.48 L 868.73 993.36 L 865.81 993.21 L 862.90 993.08 L 860.01 992.93 L 857.12 992.79 L 854.25 992.67 L 851.39 992.53 L 848.55 992.40 L 845.71 992.29 L 842.88 992.19 L 840.07 992.04 L 837.27 991.90 L 834.48 991.74 L 831.70 991.58 L 828.94 991.41 L 826.19 991.24 L 823.44 991.07 L 820.71 990.92 L 817.99 990.78 L 815.29 990.66 L 812.59 990.53 L 809.90 990.40 L 807.22 990.26 L 804.56 990.11 L 801.91 990.00 L 799.27 989.89 L 796.64 989.75 L 794.02 989.60 L 791.41 989.46 L 788.81 989.28 L 786.22 989.12 L 783.64 988.97 L 781.07 988.82 L 778.51 988.67 L 775.96 988.51 L 773.43 988.35 L 770.90 988.18 L 768.38 988.01 L 765.86 987.90 L 763.36 987.78" stroke="rgb(140,255,190)" stroke-opacity="0.742" stroke-width="1.20" />
  <path d="M 931.64 999.35 L 928.65 1000.54 L 925.65 1001.71 L 922.67 1002.88 L 919.75 1004.12 L 916.85 1005.37 L 913.98 1006.64 L 911.13 1007.95 L 908.30 1009.31 L 905.47 1010.63 L 902.65 1011.95" stroke="rgb(140,255,190)" stroke-opacity="0.740" stroke-width="1.19" />
  <path d="M 895.59 989.91 L 892.42 989.72 L 889.25 989.53 L 886.10 989.34 L 882.97 989.13 L 879.87 988.96 L 876.78 988.79 L 873.71 988.61 L 870.65 988.45 L 867.60 988.29 L 864.58 988.09 L 861.60 987.85 L 858.62 987.62 L 855.64 987.33 L 852.67 987.08 L 849.70 986.81 L 846.78 986.47" stroke="rgb(140,255,190)" stroke-opacity="0.740" stroke-width="1.19" />
  <path d="M 1000.24 1001.43 L 1000.29 1004.34 L 1000.34 1007.25 L 1000.39 1010.14 L 1000.46 1013.04 L 1000.55 1015.93 L 1000.66 1018.84 L 1000.73 1021.75 L 1000.82 1024.63 L 1001.01 1027.50 L 1001.22 1030.35 L 1001.46 1033.18 L 1001.72 1036.01 L 1001.98 1038.82 L 1002.32 1041.62 L 1002.66 1044.41 L 1003.00 1047.19 L 1003.32 1049.94 L 1003.57 1052.70 L 1003.86 1055.45 L 1004.14 1058.19 L 1004.40 1060.95 L 1004.65 1063.70 L 1004.89 1066.45 L 1005.12 1069.17 L 1005.35 1071.89 L 1005.61 1074.59 L 1005.86 1077.28 L 1006.11 1079.93 L 1006.35 1082.59 L 1006.55 1085.23 L 1006.72 1087.83 L 1006.85 1090.42 L 1007.02 1093.00 L 1007.20 1095.56 L 1007.38 1098.12 L 1007.53 1100.67 L 1007.65 1103.21 L 1007.76 1105.75 L 1007.87 1108.28 L 1008.05 1110.81 L 1008.20 1113.33 L 1008.37 1115.83 L 1008.64 1118.34" stroke="rgb(205,165,255)" stroke-opacity="0.490" stroke-width="1.19" />
  <path d="M 922.63 1018.61 L 919.26 1018.48 L 915.90 1018.30 L 912.57 1018.01 L 909.24 1017.68 L 905.92 1017.32 L 902.60 1016.97 L 899.31 1016.60 L 896.01 1016.30 L 892.72 1015.97 L 889.45 1015.64 L 886.20 1015.29 L 882.95 1014.87 L 879.71 1014.49 L 876.49 1014.13 L 873.28 1013.75 L 870.11 1013.33 L 866.95 1012.92 L 863.79 1012.56 L 860.65 1012.19 L 857.52 1011.79 L 854.40 1011.39 L 851.30 1011.00 L 848.19 1010.65 L 845.09 1010.40 L 842.00 1010.11 L 838.93 1009.81 L 835.86 1009.55 L 832.80 1009.32 L 829.76 1009.11 L 826.74 1008.88 L 823.74 1008.58 L 820.77 1008.27 L 817.81 1007.97 L 814.85 1007.65 L 811.91 1007.33 L 808.97 1007.00 L 806.06 1006.65 L 803.16 1006.30 L 800.27 1005.96 L 797.39 1005.62 L 794.53 1005.28 L 791.67 1004.94 L 788.83 1004.59 L 786.00 1004.24 L 783.19 1003.89 L 780.39 1003.45 L 777.58 1003.08 L 774.79 1002.72 L 772.02 1002.34 L 769.25 1002.00 L 766.49 1001.66 L 763.74 1001.30 L 761.01 1000.96 L 758.29 1000.64 L 755.57 1000.35 L 752.86 1000.07 L 750.16 999.76 L 747.48 999.44 L 744.80 999.13 L 742.14 998.79 L 739.49 998.44 L 736.86 998.11 L 734.25 997.78 L 731.64 997.51 L 729.04 997.23 L 726.46 996.96 L 723.88 996.69 L 721.34 996.39 L 718.80 996.10 L 716.28 995.89 L 713.77 995.69 L 711.26 995.48 L 708.75 995.30 L 706.25 995.10 L 703.77 994.88 L 701.29 994.65 L 698.81 994.44 L 696.34 994.22 L 693.87 994.01 L 691.42 993.81 L 688.97 993.61 L 686.55 993.44 L 684.12 993.26 L 681.70 993.08 L 679.30 992.87 L 676.91 992.67 L 674.53 992.47 L 672.15 992.26 L 669.79 992.04 L 667.43 991.83 L 665.08 991.60 L 662.75 991.39 L 660.43 991.20 L 658.11 991.06 L 655.79 990.92 L 653.48 990.78 L 651.18 990.66 L 648.89 990.53 L 646.60 990.41 L 644.32 990.31 L 642.04 990.26 L 639.77 990.22 L 637.50 990.19 L 635.24 990.15" stroke="rgb(140,255,190)" stroke-opacity="0.737" stroke-width="1.19" />
  <path d="M 847.23 998.50 L 843.73 998.38 L 840.26 998.25 L 836.79 998.13 L 833.34 998.01 L 829.90 997.86 L 826.48 997.70 L 823.07 997.55 L 819.67 997.37 L 816.29 997.16 L 812.93 996.97 L 809.58 996.76 L 806.24 996.54 L 802.91 996.33 L 799.60 996.13 L 796.30 996.05 L 793.01 995.95 L 789.73 995.87 L 786.46 995.80 L 783.21 995.75 L 779.97 995.73 L 776.75 995.77 L 773.53 995.84 L 770.34 995.91 L 767.15 996.03 L 763.98 996.20 L 760.83 996.38 L 757.68 996.55 L 754.55 996.70 L 751.44 996.87 L 748.33 997.01 L 745.24 997.20 L 742.16 997.34 L 739.09 997.48 L 736.03 997.63 L 732.99 997.69 L 729.97 997.79 L 726.95 997.90 L 723.95 998.03 L 720.96 998.08 L 717.97 998.16 L 715.00 998.25 L 712.03 998.31 L 709.08 998.34 L 706.14 998.31 L 703.22 998.28 L 700.30 998.23 L 697.40 998.21 L 694.50 998.18 L 691.62 998.15 L 688.75 998.11 L 685.89 998.06 L 683.05 998.02 L 680.21 997.98 L 677.39 997.93 L 674.58 997.90 L 671.77 997.88 L 668.98 997.85 L 666.20 997.81 L 663.43 997.82 L 660.68 997.82 L 657.93 997.86 L 655.19 997.94 L 652.48 998.10 L 649.77 998.27 L 647.07 998.43" stroke="rgb(140,255,190)" stroke-opacity="0.734" stroke-width="1.18" />
  <path d="M 1000.52 1000.17 L 998.17 999.11 L 995.83 998.07 L 993.48 997.03 L 991.16 995.99 L 988.85 994.95 L 986.60 993.89 L 984.35 992.84 L 982.09 991.80 L 979.89 990.65 L 977.74 989.49 L 975.54 988.36 L 973.36 987.21 L 971.23 986.08 L 969.08 984.93 L 966.93 983.78 L 964.79 982.64 L 962.67 981.53 L 960.55 980.42 L 958.43 979.32 L 956.33 978.22 L 954.24 977.14 L 952.15 976.02 L 950.10 974.85 L 948.05 973.68 L 946.02 972.53 L 943.99 971.41 L 941.99 970.30 L 939.98 969.19 L 938.04 968.08 L 936.07 966.95 L 934.11 965.82" stroke="rgb(205,165,255)" stroke-opacity="0.487" stroke-width="1.18" />
  <path d="M 950.10 974.85 L 948.65 974.06 L 947.15 973.30 L 945.58 972.46 L 944.09 971.64 L 942.66 970.80 L 941.15 969.94 L 939.63 969.00 L 938.13 968.13 L 936.68 967.23 L 935.22 966.35 L 933.86 965.46 L 932.58 964.57 L 931.27 963.69 L 930.02 962.83 L 928.73 962.05 L 927.49 961.31 L 926.28 960.57 L 925.16 959.89 L 924.05 959.21 L 922.98 958.51 L 921.86 957.77 L 920.78 957.03 L 919.73 956.27 L 918.67 955.55 L 917.62 954.80 L 916.60 954.10 L 915.51 953.35 L 914.44 952.60 L 913.45 951.89 L 912.48 951.27 L 911.52 950.64 L 910.56 949.99 L 909.50 949.32 L 908.41 948.67 L 907.32 948.03 L 906.26 947.42" stroke="rgb(205,165,255)" stroke-opacity="0.487" stroke-width="1.17" />
  <path d="M 998.44 1000.50 L 996.18 1001.94 L 993.90 1003.33 L 991.64 1004.78 L 989.44 1006.28 L 987.25 1007.77 L 985.09 1009.27 L 982.96 1010.82 L 980.88 1012.40 L 978.82 1014.03 L 976.76 1015.65 L 974.72 1017.23 L 972.75 1018.85 L 970.75 1020.40 L 968.73 1021.91 L 966.72 1023.41 L 964.67 1024.94 L 962.63 1026.46 L 960.61 1027.97 L 958.60 1029.48 L 956.57 1030.99 L 954.55 1032.45 L 952.54 1033.92 L 950.53 1035.36 L 948.53 1036.83 L 946.54 1038.31 L 944.51 1039.71 L 942.50 1041.13 L 940.53 1042.56 L 938.60 1044.00" stroke="rgb(205,165,255)" stroke-opacity="0.486" stroke-width="1.17" />
  <path d="M 999.49 1002.18 L 997.64 1001.70 L 995.85 1001.23 L 994.04 1000.78 L 992.26 1000.21 L 990.49 999.70 L 988.68 999.19 L 986.76 998.64 L 984.92 998.10 L 983.09 997.53 L 981.23 996.94 L 979.37 996.36 L 977.53 995.79 L 975.78 995.16 L 974.05 994.55 L 972.33 993.95 L 970.61 993.32 L 968.90 992.70 L 967.16 992.07 L 965.43 991.49 L 963.66 990.89 L 961.90 990.30 L 960.20 989.66 L 958.51 989.02 L 956.83 988.39 L 955.07 987.80 L 953.28 987.23 L 951.52 986.68" stroke="rgb(205,165,255)" stroke-opacity="0.486" stroke-width="1.17" />
  <path d="M 1001.70 999.39 L 998.37 998.99 L 995.06 998.61 L 991.76 998.21 L 988.47 997.81 L 985.20 997.43 L 981.95 997.04 L 978.71 996.65 L 975.48 996.33 L 972.24 996.07 L 969.03 995.85 L 965.83 995.64 L 962.65 995.42 L 959.49 995.19 L 956.36 994.89 L 953.23 994.59 L 950.11 994.27 L 947.00 993.96 L 943.91 993.66 L 940.81 993.35 L 937.74 993.04 L 934.67 992.73 L 931.63 992.37 L 928.59 991.98 L 925.57 991.54 L 922.57 991.12 L 919.58 990.67 L 916.59 990.23 L 913.62 989.82 L 910.65 989.43 L 907.70 989.03 L 904.76 988.61 L 901.82 988.24 L 898.89 987.86 L 895.99 987.44 L 893.09 987.04 L 890.20 986.61 L 887.32 986.21 L 884.45 985.79 L 881.60 985.36 L 878.76 984.95 L 875.92 984.55 L 873.10 984.15 L 870.29 983.70 L 867.50 983.26 L 864.71 982.82 L 861.94 982.36 L 859.18 981.91 L 856.42 981.46 L 853.69 980.99 L 850.96 980.53 L 848.24 980.06 L 845.54 979.59 L 842.84 979.12 L 840.16 978.66" stroke="rgb(140,255,190)" stroke-opacity="0.729" stroke-width="1.17" />
  <path d="M 954.24 977.14 L 953.61 975.83 L 952.90 974.57 L 952.17 973.30 L 951.55 971.92 L 950.93 970.54 L 950.41 969.18 L 949.92 967.80 L 949.52 966.48 L 949.15 965.21 L 948.91 963.93 L 948.66 962.65 L 948.32 961.39 L 947.99 960.14 L 947.66 958.96 L 947.42 957.75 L 947.17 956.58 L 946.94 955.55" stroke="rgb(205,165,255)" stroke-opacity="0.485" stroke-width="1.17" />
  <path d="M 929.64 989.96 L 926.52 989.51 L 923.43 989.06 L 920.35 988.62 L 917.29 988.19 L 914.26 987.71 L 911.25 987.23 L 908.24 986.87 L 905.23 986.54 L 902.26 986.21 L 899.28 985.88 L 896.29 985.62 L 893.32 985.36 L 890.36 985.06 L 887.43 984.70 L 884.53 984.32 L 881.65 983.94 L 878.78 983.60 L 875.90 983.33 L 873.01 983.11 L 870.13 982.89 L 867.27 982.67 L 864.42 982.40 L 861.57 982.15 L 858.75 981.89 L 855.93 981.63 L 853.17 981.32 L 850.41 981.01 L 847.67 980.60 L 844.95 980.20 L 842.25 979.84 L 839.56 979.48 L 836.90 979.08 L 834.22 978.79 L 831.54 978.51 L 828.87 978.28 L 826.21 978.05 L 823.56 977.81 L 820.92 977.55 L 818.29 977.30 L 815.69 977.05 L 813.09 976.73 L 810.48 976.44 L 807.87 976.09 L 805.27 975.74 L 802.69 975.38 L 800.13 975.02 L 797.59 974.67 L 795.06 974.32 L 792.54 974.02 L 790.03 973.76 L 787.52 973.49 L 785.03 973.22 L 782.54 972.95 L 780.10 972.62 L 777.67 972.34 L 775.27 972.09 L 772.87 971.84 L 770.48 971.59 L 768.10 971.35 L 765.74 971.14 L 763.42 970.91 L 761.10 970.70 L 758.80 970.56 L 756.51 970.42 L 754.22 970.26 L 751.94 970.10 L 749.67 969.94 L 747.41 969.77 L 745.14 969.61 L 742.87 969.48 L 740.61 969.35" stroke="rgb(140,255,190)" stroke-opacity="0.729" stroke-width="1.17" />
  <path d="M 999.03 1000.05 L 995.74 999.73 L 992.47 999.41 L 989.20 999.10 L 985.95 998.79 L 982.71 998.48 L 979.48 998.31 L 976.26 998.10 L 973.05 997.88 L 969.86 997.74 L 966.67 997.62 L 963.50 997.55 L 960.34 997.44 L 957.19 997.31 L 954.06 997.18 L 950.94 997.05 L 947.83 996.92 L 944.73 996.77 L 941.66 996.60 L 938.59 996.44 L 935.54 996.29 L 932.50 996.14 L 929.47 995.97 L 926.46 995.81 L 923.45 995.73 L 920.45 995.63 L 917.47 995.56 L 914.49 995.52 L 911.53 995.46 L 908.58 995.44 L 905.64 995.41 L 902.71 995.38 L 899.79 995.34 L 896.89 995.30 L 894.00 995.26 L 891.12 995.21 L 888.25 995.11 L 885.40 995.01 L 882.55 994.92 L 879.72 994.84 L 876.91 994.76 L 874.10 994.69 L 871.30 994.66 L 868.52 994.63 L 865.75 994.65 L 862.99 994.68 L 860.24 994.75 L 857.51 994.79 L 854.78 994.89 L 852.07 995.00 L 849.36 995.07 L 846.66 995.13 L 843.97 995.21 L 841.29 995.27 L 838.62 995.33 L 835.96 995.42 L 833.31 995.53 L 830.68 995.66 L 828.05 995.78 L 825.43 995.88 L 822.83 996.04 L 820.24 996.18 L 817.65 996.29 L 815.07 996.35 L 812.51 996.39" stroke="rgb(140,255,190)" stroke-opacity="0.729" stroke-width="1.17" />
  <path d="M 999.89 1001.08 L 996.61 1000.79 L 993.34 1000.45 L 990.09 1000.10 L 986.86 999.74 L 983.64 999.39 L 980.43 999.05 L 977.23 998.72 L 974.03 998.46 L 970.85 998.20 L 967.69 997.95 L 964.53 997.68 L 961.40 997.39 L 958.27 997.11 L 955.16 996.82 L 952.06 996.53 L 948.97 996.24 L 945.89 995.94 L 942.83 995.62 L 939.79 995.26 L 936.76 994.90 L 933.74 994.53 L 930.74 994.16 L 927.74 993.81 L 924.76 993.45 L 921.79 993.12 L 918.82 992.78 L 915.88 992.44 L 912.94 992.11 L 910.02 991.72 L 907.11 991.36 L 904.21 990.97 L 901.33 990.59 L 898.45 990.26 L 895.59 989.91 L 892.73 989.59 L 889.88 989.29 L 887.05 989.00 L 884.23 988.68 L 881.41 988.38 L 878.61 988.05 L 875.83 987.71 L 873.06 987.38 L 870.29 987.05 L 867.54 986.72 L 864.80 986.42 L 862.06 986.13 L 859.34 985.87" stroke="rgb(140,255,190)" stroke-opacity="0.729" stroke-width="1.17" />
  <path d="M 893.17 1024.21 L 891.16 1025.52 L 889.11 1026.76 L 887.16 1028.14 L 885.21 1029.52 L 883.25 1030.82 L 881.27 1032.08 L 879.34 1033.41 L 877.37 1034.68 L 875.41 1035.93 L 873.51 1037.24 L 871.58 1038.46 L 869.64 1039.67 L 867.78 1040.98 L 865.91 1042.23 L 864.02 1043.43 L 862.14 1044.65 L 860.28 1045.81 L 858.48 1047.05 L 856.74 1048.36 L 855.02 1049.65 L 853.40 1051.03 L 851.72 1052.41 L 850.01 1053.74 L 848.28 1055.05 L 846.52 1056.33 L 844.72 1057.55 L 842.92 1058.77 L 841.14 1060.00 L 839.31 1061.16 L 837.51 1062.35 L 835.70 1063.51 L 833.91 1064.68 L 832.14 1065.86 L 830.38 1067.06 L 828.62 1068.23 L 826.86 1069.38 L 825.06 1070.45 L 823.26 1071.50 L 821.51 1072.61 L 819.77 1073.72 L 818.05 1074.85 L 816.31 1075.94 L 814.49 1076.86 L 812.72 1077.85 L 810.91 1078.76 L 809.10 1079.68 L 807.32 1080.63 L 805.48 1081.45 L 803.66 1082.29 L 801.84 1083.12 L 800.01 1083.91 L 798.20 1084.70 L 796.39 1085.48 L 794.62 1086.34 L 792.91 1087.28 L 791.20 1088.23 L 789.50 1089.16 L 787.82 1090.11 L 786.19 1091.14 L 784.62 1092.21 L 783.03 1093.27 L 781.43 1094.25 L 779.83 1095.23 L 778.26 1096.23 L 776.77 1097.38 L 775.29 1098.52 L 773.86 1099.72 L 772.41 1100.88" stroke="rgb(140,255,190)" stroke-opacity="0.542" stroke-width="1.15" />
  <path d="M 999.62 999.23 L 996.51 999.74 L 993.43 1000.32 L 990.36 1000.91 L 987.30 1001.44 L 984.26 1002.02 L 981.22 1002.57 L 978.20 1003.11 L 975.19 1003.66 L 972.20 1004.28 L 969.23 1004.88 L 966.26 1005.46 L 963.30 1006.04 L 960.36 1006.62 L 957.43 1007.22 L 954.53 1007.87 L 951.63 1008.49 L 948.76 1009.15 L 945.90 1009.80 L 943.05 1010.46 L 940.21 1011.12 L 937.38 1011.77 L 934.56 1012.43 L 931.76 1013.11 L 928.97 1013.78 L 926.21 1014.52 L 923.47 1015.28 L 920.73 1016.03 L 918.00 1016.74 L 915.27 1017.46 L 912.56 1018.14 L 909.85 1018.81 L 907.18 1019.55 L 904.51 1020.25 L 901.85 1020.96 L 899.18 1021.60 L 896.52 1022.23 L 893.88 1022.89 L 891.26 1023.56 L 888.65 1024.26 L 886.07 1025.00 L 883.48 1025.66" stroke="rgb(140,255,190)" stroke-opacity="0.720" stroke-width="1.14" />
  <path d="M 890.36 985.06 L 888.05 985.31 L 885.76 985.59 L 883.48 985.91 L 881.23 986.34 L 879.00 986.77 L 876.80 987.32 L 874.62 987.85 L 872.54 988.54 L 870.48 989.26 L 868.32 989.80 L 866.16 990.32 L 864.02 990.84 L 861.89 991.39 L 859.75 991.82 L 857.62 992.25 L 855.48 992.66 L 853.34 993.08 L 851.24 993.56 L 849.13 994.05 L 847.01 994.55 L 844.90 995.05 L 842.81 995.65 L 840.74 996.18" stroke="rgb(140,255,190)" stroke-opacity="0.540" stroke-width="1.14" />
  <path d="M 1002.51 996.07 L 999.27 996.01 L 996.04 995.99 L 992.83 996.04 L 989.62 996.06 L 986.43 996.11 L 983.25 996.13 L 980.08 996.10 L 976.92 996.08 L 973.77 996.10 L 970.64 996.12 L 967.52 996.17 L 964.42 996.19 L 961.33 996.17 L 958.24 996.15 L 955.18 996.11 L 952.12 996.06 L 949.07 996.00 L 946.03 995.91 L 943.00 995.85 L 939.99 995.77 L 936.98 995.71 L 933.99 995.66 L 931.01 995.53 L 928.04 995.44 L 925.07 995.36 L 922.13 995.29 L 919.19 995.17 L 916.27 995.03 L 913.36 994.89 L 910.45 994.77 L 907.57 994.64 L 904.69 994.48 L 901.83 994.34 L 898.97 994.18 L 896.13 994.02 L 893.30 993.89 L 890.48 993.76 L 887.67 993.69 L 884.87 993.58 L 882.08 993.48" stroke="rgb(140,255,190)" stroke-opacity="0.719" stroke-width="1.14" />
  <path d="M 938.56 991.27 L 935.67 990.83 L 932.80 990.39 L 929.94 989.92 L 927.09 989.47 L 924.25 989.00 L 921.43 988.54 L 918.62 988.08 L 915.82 987.57 L 913.04 987.04 L 910.28 986.48 L 907.53 985.97 L 904.79 985.46 L 902.05 984.95 L 899.33 984.48 L 896.66 984.02 L 894.00 983.55 L 891.37 983.08 L 888.72 982.59 L 886.10 982.06 L 883.47 981.54 L 880.83 981.14 L 878.20 980.76 L 875.57 980.32 L 872.96 979.83 L 870.39 979.34 L 867.83 978.84 L 865.24 978.41 L 862.67 978.03 L 860.11 977.64 L 857.55 977.25 L 855.02 976.84 L 852.50 976.43 L 850.00 975.89 L 847.55 975.37 L 845.07 974.87 L 842.55 974.44 L 840.02 973.96 L 837.49 973.51 L 834.96 973.07 L 832.46 972.58 L 829.98 972.07 L 827.50 971.57 L 825.05 971.05 L 822.62 970.54 L 820.24 969.99 L 817.86 969.46 L 815.51 968.86 L 813.15 968.21 L 810.81 967.48 L 808.47 966.73 L 806.12 966.04 L 803.76 965.38 L 801.41 964.74 L 799.08 964.02 L 796.75 963.32 L 794.46 962.56 L 792.18 961.78 L 789.93 960.97 L 787.69 960.20 L 785.46 959.43 L 783.23 958.65 L 781.01 957.87 L 778.81 957.07 L 776.57 956.41 L 774.35 955.76 L 772.15 955.09 L 769.96 954.38 L 767.79 953.69 L 765.62 953.00 L 763.45 952.32 L 761.30 951.63 L 759.12 951.00 L 756.94 950.42 L 754.78 949.84" stroke="rgb(140,255,190)" stroke-opacity="0.537" stroke-width="1.13" />
  <path d="M 878.08 995.32 L 875.58 995.73 L 873.10 996.12 L 870.61 996.40 L 868.12 996.65 L 865.65 996.96 L 863.20 997.27 L 860.75 997.57 L 858.31 997.84 L 855.88 998.16 L 853.46 998.39 L 851.05 998.63 L 848.64 998.80 L 846.25 998.93 L 843.86 999.10 L 841.49 999.30 L 839.15 999.47 L 836.81 999.57 L 834.49 999.65 L 832.19 999.90 L 829.89 1000.21 L 827.62 1000.54 L 825.34 1000.86" stroke="rgb(140,255,190)" stroke-opacity="0.536" stroke-width="1.13" />
  <path d="M 999.42 999.35 L 996.96 999.10 L 994.52 998.82 L 992.09 998.50 L 989.68 998.09 L 987.30 997.61 L 984.90 997.22 L 982.52 996.84 L 980.16 996.40 L 977.80 995.97 L 975.46 995.56 L 973.12 995.14 L 970.78 994.80 L 968.45 994.49 L 966.12 994.24 L 963.79 994.05 L 961.48 993.86 L 959.17 993.70 L 956.86 993.63 L 954.56 993.56" stroke="rgb(140,255,190)" stroke-opacity="0.536" stroke-width="1.13" />
  <path d="M 2000.12 1029.95 L 1996.69 1029.27 L 1993.62 1029.78 L 1990.65 1029.57 L 1987.90 1029.28 L 1985.09 1029.43 L 1981.83 1028.91 L 1978.85 1028.85 L 1976.21 1029.03 L 1973.07 1028.65 L 1970.28 1028.96 L 1966.88 1028.51 L 1964.01 1028.55 L 1960.82 1028.29 L 1957.62 1028.53 L 1955.28 1028.41 L 1951.93 1028.07 L 1948.97 1028.56 L 1946.02 1028.02 L 1942.97 1028.02 L 1939.84 1027.70 L 1936.86 1027.92 L 1934.16 1028.07 L 1930.89 1027.38 L 1928.39 1027.74 L 1925.08 1027.71 L 1922.06 1027.39 L 1918.93 1027.21 L 1915.95 1027.54 L 1912.95 1027.82 L 1910.01 1026.95 L 1907.09 1026.95 L 1904.06 1027.35 L 1901.09 1026.69 L 1898.22 1026.60 L 1895.14 1026.50 L 1892.06 1026.60 L 1889.06 1026.05 L 1886.23 1026.63 L 1883.20 1026.13 L 1880.03 1025.68 L 1877.36 1026.46 L 1874.20 1025.53 L 1871.24 1025.81 L 1867.84 1025.70 L 1865.25 1025.82 L 1861.72 1025.97 L 1858.94 1025.53 L 1855.77 1025.27 L 1853.46 1025.44 L 1850.08 1025.43 L 1846.87 1025.06 L 1843.90 1025.11 L 1841.42 1024.97 L 1838.29 1025.14 L 1834.81 1024.99 L 1831.87 1024.72 L 1829.42 1024.88 L 1826.29 1024.30 L 1822.96 1024.63 L 1819.71 1024.17 L 1816.92 1024.23 L 1814.30 1024.11 L 1811.30 1023.97 L 1807.89 1023.71 L 1805.18 1024.27 L 1801.93 1023.84 L 1799.45 1024.32 L 1796.12 1023.38 L 1793.12 1023.73 L 1790.01 1023.75 L 1786.92 1023.36 L 1784.46 1023.21 L 1781.06 1023.35 L 1778.13 1023.34 L 1774.84 1023.20 L 1772.21 1022.97 L 1769.18 1023.02 L 1765.95 1022.86 L 1763.05 1022.33 L 1759.99 1022.33 L 1757.11 1022.51 L 1754.14 1022.49 L 1751.19 1022.36 L 1748.11 1022.04 L 1745.08 1022.36 L 1742.03 1022.05 L 1738.90 1021.65 L 1736.45 1021.66 L 1733.58 1021.76 L 1730.08 1021.65 L 1726.98 1021.83 L 1724.34 1021.63 L 1721.11 1021.22 L 1718.29 1021.15 L 1715.13 1021.46 L 1712.47 1020.85 L 1709.42 1021.36 L 1706.13 1021.13 L 1703.29 1021.10 L 1699.95 1021.12 L 1697.36 1020.83 L 1694.06 1020.55 L 1691.12 1020.46 L 1688.34 1020.17 L 1685.02 1020.02 L 1681.84 1019.77 L 1678.91 1020.49 L 1676.19 1020.22 L 1673.04 1019.93 L 1670.40 1020.15 L 1667.07 1019.75 L 1664.11 1019.59 L 1661.30 1020.22 L 1657.83 1019.56 L 1655.43 1019.42 L 1652.47 1019.51 L 1649.14 1019.51 L 1646.09 1019.02 L 1642.87 1018.83 L 1640.15 1019.09 L 1637.28 1018.61 L 1634.34 1018.36 L 1631.20 1018.70 L 1627.89 1018.56 L 1625.53 1018.95 L 1621.98 1018.62 L 1619.06 1018.12 L 1616.07 1018.33 L 1613.28 1018.29 L 1610.14 1017.92 L 1607.40 1018.09 L 1604.12 1017.77 L 1601.06 1017.88 L 1598.18 1018.02 L 1595.49 1017.52 L 1592.38 1017.66 L 1589.16 1017.62 L 1585.90 1017.58 L 1582.85 1017.12 L 1580.23 1017.56 L 1577.03 1017.11 L 1573.87 1016.95 L 1571.01 1016.79 L 1568.31 1016.83 L 1565.10 1016.67 L 1562.58 1016.56 L 1559.15 1016.80 L 1556.37 1016.47 L 1553.20 1016.27 L 1550.39 1016.24 L 1547.16 1015.98 L 1544.01 1016.34 L 1541.32 1016.13 L 1538.30 1016.07 L 1535.01 1016.03 L 1532.41 1015.90 L 1529.37 1015.78 L 1525.97 1015.62 L 1523.11 1015.16 L 1520.01 1015.36 L 1517.34 1015.02 L 1514.32 1015.23 L 1511.72 1015.30 L 1508.02 1015.12 L 1505.05 1014.84 L 1502.05 1014.99 L 1499.14 1014.79 L 1496.54 1015.11 L 1493.35 1014.91 L 1490.68 1014.27 L 1487.10 1014.73 L 1484.25 1014.31 L 1481.06 1014.15 L 1478.11 1013.63 L 1475.19 1014.21 L 1472.49 1013.97 L 1469.21 1013.96 L 1466.28 1013.65 L 1462.93 1014.08 L 1460.32 1013.81 L 1457.17 1013.50 L 1454.11 1013.70 L 1451.53 1013.69 L 1448.27 1013.20 L 1445.31 1013.42 L 1442.12 1013.39 L 1439.33 1013.26 L 1436.25 1012.93 L 1432.94 1013.09 L 1430.60 1012.35 L 1427.61 1012.85 L 1423.98 1012.51 L 1421.38 1012.53 L 1418.26 1012.60 L 1415.17 1012.30 L 1412.35 1012.34 L 1409.41 1012.33 L 1406.33 1011.66 L 1403.22 1012.23 L 1400.33 1012.18 L 1397.47 1011.85 L 1394.13 1011.62 L 1391.66 1011.88 L 1388.13 1011.83 L 1385.11 1011.41 L 1382.03 1011.31 L 1379.44 1011.41 L 1376.32 1011.32 L 1373.36 1011.22 L 1369.78 1011.05 L 1367.28 1010.87 L 1364.45 1010.87 L 1361.31 1010.91 L 1358.32 1010.63 L 1355.46 1010.87 L 1352.36 1010.40 L 1348.95 1010.12 L 1346.08 1009.96 L 1343.36 1010.07 L 1340.30 1009.80 L 1337.00 1010.22 L 1334.30 1009.98 L 1331.01 1010.26 L 1328.25 1009.96 L 1325.40 1009.95 L 1322.29 1009.82 L 1319.22 1009.60 L 1316.35 1009.87 L 1313.70 1009.33 L 1310.26 1009.03 L 1307.23 1009.47 L 1304.27 1008.92 L 1301.47 1008.66 L 1298.33 1008.93 L 1294.86 1008.50 L 1292.51 1008.55 L 1289.07 1008.42 L 1286.91 1008.65 L 1283.37 1008.47 L 1280.55 1008.14 L 1277.29 1008.03 L 1274.03 1008.25 L 1271.54 1008.17 L 1268.39 1007.89 L 1265.05 1007.43 L 1262.34 1007.78 L 1258.84 1008.04 L 1256.23 1007.62 L 1253.01 1007.52 L 1250.39 1007.18 L 1247.12 1007.42 L 1244.32 1007.51 L 1241.15 1006.96 L 1238.36 1007.24 L 1235.16 1007.25 L 1232.53 1006.78 L 1229.39 1006.81 L 1226.54 1006.85 L 1223.23 1006.54 L 1220.21 1006.36 L 1217.44 1006.96 L 1214.59 1006.45 L 1211.47 1006.52 L 1207.98 1006.10 L 1205.45 1005.97 L 1202.49 1006.17 L 1199.39 1005.65 L 1196.08 1005.98 L 1193.16 1005.96 L 1190.32 1005.46 L 1187.07 1005.35 L 1184.54 1005.38 L 1181.31 1005.43 L 1178.06 1005.43 L 1175.47 1004.87 L 1172.51 1005.42 L 1169.27 1004.98 L 1166.19 1005.02 L 1163.17 1004.84 L 1160.34 1004.46 L 1157.38 1004.42 L 1154.47 1004.65 L 1151.30 1004.34 L 1148.00 1004.06 L 1145.48 1004.59 L 1142.52 1003.69 L 1139.29 1004.15 L 1136.73 1004.09 L 1133.49 1004.17 L 1130.23 1004.45 L 1127.76 1003.56 L 1124.40 1003.42 L 1121.00 1003.59 L 1118.33 1003.63 L 1115.44 1003.70 L 1112.36 1003.15 L 1109.20 1003.24 L 1106.10 1002.80 L 1103.46 1003.16 L 1100.44 1002.69 L 1097.57 1002.95 L 1094.47 1002.91 L 1091.21 1002.64 L 1088.16 1002.28 L 1085.08 1002.43 L 1082.52 1002.53 L 1079.26 1002.11 L 1076.45 1002.31 L 1073.49 1002.32 L 1069.98 1002.45 L 1067.47 1001.61 L 1064.12 1001.97 L 1061.23 1002.25 L 1058.21 1001.48 L 1055.09 1001.24 L 1052.64 1001.56 L 1049.76 1001.23 L 1046.70 1001.63 L 1043.51 1001.33 L 1040.16 1001.06 L 1037.55 1001.00 L 1034.26 1000.87 L 1031.25 1001.04 L 1028.52 1000.81 L 1025.48 1000.88 L 1022.44 1000.51 L 1019.32 1000.46 L 1016.32 1000.68 L 1013.46 1000.25 L 1010.48 1000.67 L 1007.23 1000.10 L 1004.30 1000.14 L 1001.38 1000.21 L 1000.00 1000.00 L 997.00 999.92 L 994.00 999.82 L 991.00 999.76 L 988.00 999.68 L 985.01 999.60 L 982.01 999.53 L 979.01 999.46 L 976.01 999.39 L 973.01 999.31 L 970.01 999.21 L 967.01 999.13 L 964.01 999.06 L 961.01 998.99 L 958.01 998.93 L 955.01 998.88 L 952.01 998.85 L 949.01 998.80 L 946.01 998.78 L 943.01 998.78 L 940.01 998.79 L 937.02 998.81 L 934.02 998.83 L 931.02 998.83 L 928.02 998.82 L 925.02 998.82 L 922.02 998.82 L 919.02 998.79 L 916.02 998.77 L 913.02 998.75 L 910.02 998.72 L 907.02 998.70 L 904.02 998.68 L 901.02 998.66 L 898.02 998.64 L 895.02 998.60 L 892.02 998.54 L 889.02 998.51 L 886.02 998.49 L 883.02 998.46 L 880.02 998.42 L 877.02 998.38 L 874.02 998.35 L 871.02 998.33 L 868.02 998.31 L 865.02 998.29 L 862.02 998.29 L 859.02 998.31 L 856.02 998.31 L 853.02 998.26 L 850.02 998.22 L 847.02 998.16 L 844.02 998.11 L 841.02 998.06 L 838.02 998.00 L 835.02 997.95 L 832.02 997.92 L 829.02 997.89 L 826.02 997.87 L 823.02 997.86 L 820.02 997.83 L 817.02 997.87 L 814.02 997.92 L 811.02 997.97 L 808.02 998.04 L 805.02 998.12 L 802.03 998.19 L 799.03 998.27 L 796.03 998.35 L 793.03 998.44 L 790.03 998.52 L 787.03 998.60 L 784.03 998.69 L 781.03 998.77 L 778.03 998.85 L 775.04 998.96 L 772.04 999.06 L 769.04 999.18 L 766.04 999.28 L 763.04 999.36 L 760.04 999.42 L 757.04 999.48 L 754.05 999.57 L 751.05 999.66 L 748.05 999.77 L 745.05 999.86 L 742.05 999.96 L 739.05 1000.07 L 736.05 1000.14 L 733.06 1000.20 L 730.06 1000.25 L 727.06 1000.30 L 724.06 1000.33 L 721.06 1000.34 L 718.06 1000.35 L 715.06 1000.36 L 712.06 1000.38 L 709.06 1000.43 L 706.06 1000.46 L 703.06 1000.48 L 700.06 1000.48 L 697.06 1000.49 L 694.06 1000.48 L 691.06 1000.48 L 688.06 1000.48 L 685.06 1000.46 L 682.06 1000.45 L 679.06 1000.43 L 676.06 1000.39 L 673.06 1000.37 L 670.06 1000.33 L 667.06 1000.29 L 664.06 1000.25 L 661.06 1000.20 L 658.06 1000.20 L 655.06 1000.20 L 652.06 1000.18 L 649.06 1000.17 L 646.06 1000.13 L 643.06 1000.06 L 640.06 1000.02 L 637.06 999.97 L 634.06 999.91 L 631.06 999.83 L 628.06 999.77 L 625.06 999.70 L 622.06 999.63 L 619.06 999.59 L 616.06 999.57 L 613.06 999.56 L 610.06 999.54 L 607.07 999.48 L 604.07 999.44 L 601.07 999.42 L 598.07 999.40 L 595.07 999.37 L 592.07 999.37 L 589.07 999.38 L 586.07 999.38 L 583.07 999.34 L 580.07 999.30 L 577.07 999.27 L 574.07 999.24 L 571.07 999.24 L 568.07 999.24 L 565.07 999.24 L 562.07 999.25 L 559.07 999.22 L 556.07 999.19 L 553.07 999.15 L 550.07 999.11 L 547.07 999.08 L 544.07 999.05 L 541.07 999.02 L 538.07 998.98 L 535.07 998.94 L 532.07 998.89 L 529.07 998.83 L 526.07 998.78 L 523.07 998.74 L 520.07 998.70 L 517.07 998.66 L 514.07 998.62 L 511.07 998.56 L 508.07 998.48 L 505.07 998.40 L 502.08 998.29 L 499.08 998.19 L 496.08 998.09 L 493.08 998.01 L 490.08 997.95 L 487.08 997.84 L 484.08 997.75 L 481.09 997.67 L 478.09 997.58 L 475.09 997.48 L 472.09 997.39 L 469.09 997.30 L 466.09 997.19 L 463.10 997.07 L 460.10 996.94 L 457.10 996.86 L 454.10 996.78 L 451.10 996.71 L 448.10 996.64 L 445.10 996.58 L 442.10 996.50 L 439.11 996.40 L 436.11 996.30 L 433.11 996.18 L 430.11 996.09 L 427.11 996.03 L 424.11 995.95 L 421.11 995.89 L 418.11 995.81 L 415.11 995.76 L 412.12 995.69 L 409.12 995.62 L 406.12 995.55 L 403.12 995.46 L 400.12 995.36 L 397.12 995.27 L 394.12 995.14 L 391.13 995.04 L 388.13 994.94 L 385.13 994.82 L 382.13 994.72 L 379.13 994.58 L 376.14 994.43 L 373.14 994.25 L 370.15 994.09 L 367.15 993.94 L 364.15 993.81 L 361.16 993.69 L 358.16 993.59 L 355.16 993.51 L 352.16 993.44 L 349.16 993.36 L 346.16 993.29 L 343.16 993.21 L 340.16 993.12 L 337.17 993.04 L 334.17 992.96 L 331.17 992.88 L 328.17 992.75 L 325.17 992.61 L 322.18 992.46 L 319.18 992.32 L 316.18 992.18 L 313.19 992.05 L 310.19 991.92 L 307.19 991.79 L 304.20 991.65 L 301.20 991.49 L 298.20 991.34 L 295.21 991.20 L 292.21 991.10 L 289.21 991.01 L 286.21 990.91 L 283.21 990.83 L 280.21 990.77 L 277.21 990.72 L 274.21 990.68 L 271.21 990.65 L 268.21 990.62 L 265.22 990.56 L 262.22 990.52 L 259.22 990.49 L 256.22 990.45 L 253.22 990.39 L 250.22 990.33 L 247.22 990.28 L 244.22 990.21 L 241.22 990.16 L 238.22 990.09 L 235.22 990.07 L 232.22 990.05 L 229.22 990.02 L 226.22 989.98 L 223.22 989.95 L 220.22 989.95 L 217.22 989.95 L 214.22 989.94 L 211.22 989.91 L 208.22 989.89 L 205.22 989.85 L 202.22 989.79 L 199.22 989.72 L 196.22 989.65 L 193.22 989.61 L 190.22 989.54 L 187.22 989.47 L 184.23 989.42 L 181.23 989.35 L 178.23 989.31 L 175.23 989.26 L 172.23 989.21 L 169.23 989.14 L 166.23 989.06 L 163.23 988.98 L 160.23 988.91 L 157.23 988.82 L 154.23 988.73 L 151.24 988.64 L 148.24 988.54 L 145.24 988.44 L 142.24 988.32 L 139.24 988.18 L 136.25 988.08 L 133.25 987.95 L 130.25 987.84 L 127.25 987.72 L 124.26 987.59 L 121.26 987.47 L 118.26 987.35 L 115.26 987.23 L 112.27 987.10 L 109.27 986.95 L 106.27 986.80 L 103.28 986.67 L 100.28 986.51 L 97.28 986.35 L 94.29 986.18 L 91.29 986.02 L 88.30 985.88 L 85.30 985.77 L 82.30 985.65 L 79.30 985.50 L 76.31 985.37 L 73.31 985.25 L 70.31 985.12 L 67.31 985.02 L 64.32 984.91 L 61.32 984.81 L 58.32 984.74 L 55.32 984.67 L 52.32 984.58 L 49.32 984.51 L 46.32 984.43 L 43.32 984.37 L 40.32 984.35 L 37.32 984.33 L 34.32 984.32 L 31.32 984.27 L 28.32 984.23 L 25.33 984.17 L 22.33 984.11 L 19.33 984.06 L 16.33 984.01 L 13.33 983.94 L 10.33 983.86 L 7.33 983.82 L 4.33 983.80 L 1.33 983.80 L -1.67 983.77 L -4.67 983.74 L -7.67 983.72 L -10.67 983.71 L -13.67 983.70 L -16.67 983.67 L -19.67 983.64 L -22.67 983.62" stroke="rgb(245,245,245)" stroke-opacity="0.713" stroke-width="1.13" />
  <path d="M 1001.48 998.43 L 998.61 998.81 L 995.74 999.19 L 992.88 999.53 L 990.03 999.86 L 987.16 1000.16 L 984.30 1000.46 L 981.45 1000.78 L 978.61 1001.05 L 975.80 1001.36 L 972.98 1001.72 L 970.18 1002.13 L 967.40 1002.55 L 964.63 1002.96 L 961.87 1003.40 L 959.12 1003.84 L 956.38 1004.28 L 953.68 1004.76 L 950.98 1005.24 L 948.30 1005.71 L 945.62 1006.15 L 942.96 1006.58 L 940.31 1007.01 L 937.65 1007.40 L 935.04 1007.82 L 932.40 1008.26 L 929.79 1008.74 L 927.18 1009.19 L 924.58 1009.61 L 922.01 1010.10 L 919.43 1010.57 L 916.86 1011.07 L 914.29 1011.57 L 911.72 1012.05 L 909.16 1012.52 L 906.62 1013.02 L 904.09 1013.55 L 901.57 1014.06 L 899.07 1014.58 L 896.59 1015.08 L 894.14 1015.51 L 891.69 1015.96 L 889.26 1016.44 L 886.84 1016.95 L 884.43 1017.41 L 882.04 1017.87 L 879.66 1018.35 L 877.28 1018.78 L 874.90 1019.24 L 872.54 1019.69 L 870.19 1020.17 L 867.86 1020.68 L 865.53 1021.20 L 863.23 1021.74 L 860.91 1022.27 L 858.61 1022.82 L 856.31 1023.35 L 854.03 1023.88 L 851.74 1024.39 L 849.44 1024.86 L 847.16 1025.35" stroke="rgb(140,255,190)" stroke-opacity="0.534" stroke-width="1.12" />
  <path d="M 1005.38 999.23 L 1002.86 998.84 L 1000.36 998.46 L 997.87 998.09 L 995.39 997.72 L 992.92 997.35 L 990.46 997.02 L 988.00 996.68 L 985.55 996.32 L 983.12 995.93 L 980.72 995.47 L 978.33 995.01 L 975.93 994.70 L 973.54 994.41 L 971.15 994.12 L 968.76 993.88 L 966.39 993.66 L 964.03 993.37 L 961.66 993.26 L 959.31 993.15 L 956.97 992.93 L 954.64 992.78 L 952.31 992.56 L 950.00 992.36 L 947.69 992.23 L 945.38 992.06 L 943.10 991.81 L 940.83 991.56 L 938.56 991.27 L 936.32 990.94 L 934.08 990.61 L 931.85 990.31 L 929.64 989.96 L 927.45 989.56 L 925.26 989.16 L 923.09 988.77" stroke="rgb(140,255,190)" stroke-opacity="0.533" stroke-width="1.12" />
  <path d="M 999.43 997.17 L 996.76 997.20 L 994.10 997.21 L 991.46 997.21 L 988.83 997.22 L 986.21 997.27 L 983.59 997.28 L 980.99 997.30 L 978.40 997.30 L 975.82 997.26 L 973.25 997.31 L 970.69 997.43 L 968.14 997.60 L 965.61 997.76 L 963.08 997.95 L 960.56 998.02 L 958.05 998.09 L 955.55 998.19 L 953.07 998.29 L 950.60 998.38 L 948.14 998.51" stroke="rgb(140,255,190)" stroke-opacity="0.530" stroke-width="1.11" />
  <path d="M 926.18 986.52 L 924.00 985.63 L 921.86 984.72 L 919.74 983.83 L 917.60 982.94 L 915.40 982.26 L 913.21 981.51 L 911.03 980.76 L 908.82 980.22 L 906.62 979.63 L 904.42 979.11 L 902.16 978.71 L 899.90 978.37 L 897.66 978.03 L 895.40 977.75 L 893.15 977.41 L 890.90 977.02 L 888.66 976.63 L 886.43 976.23 L 884.23 975.86 L 882.05 975.40 L 879.87 974.91 L 877.72 974.39 L 875.58 974.04 L 873.42 973.74 L 871.25 973.46 L 869.09 973.08 L 866.95 972.89 L 864.83 972.69 L 862.79 972.69 L 860.76 972.69 L 858.75 972.73 L 856.75 972.78 L 854.77 972.81 L 852.78 972.82" stroke="rgb(140,255,190)" stroke-opacity="0.530" stroke-width="1.11" />
  <path d="M 963.30 1006.04 L 960.70 1006.93 L 958.10 1007.85 L 955.51 1008.77 L 952.97 1009.65 L 950.44 1010.53 L 947.90 1011.36 L 945.36 1012.18 L 942.83 1012.97 L 940.31 1013.75 L 937.78 1014.50 L 935.28 1015.32 L 932.76 1016.09 L 930.23 1016.81 L 927.70 1017.47 L 925.18 1018.09 L 922.63 1018.61 L 920.10 1019.13 L 917.58 1019.66 L 915.08 1020.18 L 912.58 1020.66 L 910.09 1021.12 L 907.64 1021.57 L 905.20 1022.08 L 902.77 1022.51 L 900.35 1022.93 L 897.95 1023.38 L 895.56 1023.79 L 893.17 1024.21 L 890.79 1024.71 L 888.40 1025.23 L 886.02 1025.82 L 883.67 1026.53 L 881.31 1027.20 L 878.96 1027.84 L 876.62 1028.49 L 874.28 1029.08 L 871.96 1029.70 L 869.64 1030.36 L 867.32 1031.02 L 865.00 1031.58 L 862.67 1032.08 L 860.36 1032.64" stroke="rgb(140,255,190)" stroke-opacity="0.529" stroke-width="1.11" />
  <path d="M 1003.49 996.19 L 1000.95 995.41 L 998.41 994.67 L 995.89 993.93 L 993.36 993.25 L 990.84 992.54 L 988.34 991.83 L 985.84 991.14 L 983.36 990.43 L 980.89 989.71 L 978.45 988.95 L 976.02 988.22 L 973.58 987.53 L 971.17 986.81 L 968.76 986.09 L 966.35 985.37 L 963.99 984.55 L 961.67 983.70 L 959.36 982.83 L 957.07 981.93 L 954.79 981.01 L 952.50 980.17 L 950.22 979.33 L 947.96 978.47 L 945.69 977.67 L 943.44 976.83 L 941.20 976.00 L 938.95 975.23 L 936.73 974.46 L 934.51 973.70 L 932.29 972.95 L 930.10 972.18 L 927.93 971.38 L 925.76 970.60 L 923.61 969.81 L 921.47 968.95 L 919.37 968.05 L 917.27 967.14 L 915.16 966.29 L 913.05 965.45 L 910.93 964.63 L 908.82 963.83 L 906.70 963.07 L 904.57 962.38" stroke="rgb(205,165,255)" stroke-opacity="0.469" stroke-width="1.11" />
  <path d="M 1003.18 1000.33 L 1000.32 1000.80 L 997.46 1001.21 L 994.61 1001.56 L 991.76 1001.91 L 988.92 1002.25 L 986.10 1002.59 L 983.29 1002.99 L 980.50 1003.40 L 977.73 1003.82" stroke="rgb(140,255,190)" stroke-opacity="0.529" stroke-width="1.11" />
  <path d="M 1001.16 998.38 L 998.36 998.66 L 995.58 999.02 L 992.81 999.32 L 990.04 999.44 L 987.28 999.57 L 984.53 999.70 L 981.79 999.82 L 979.07 999.95 L 976.35 1000.07 L 973.63 1000.08 L 970.93 1000.12 L 968.24 1000.16 L 965.55 1000.12 L 962.88 1000.02 L 960.22 999.93 L 957.57 999.80 L 954.93 999.66 L 952.30 999.56 L 949.68 999.46 L 947.08 999.37 L 944.48 999.30 L 941.89 999.33 L 939.31 999.33 L 936.74 999.33 L 934.19 999.35 L 931.64 999.35 L 929.11 999.33 L 926.59 999.32 L 924.07 999.29 L 921.57 999.25 L 919.08 999.25 L 916.60 999.19 L 914.13 999.19 L 911.66 999.19 L 909.21 999.24 L 906.76 999.28 L 904.33 999.32 L 901.90 999.42 L 899.48 999.45 L 897.07 999.51 L 894.67 999.62 L 892.29 999.81 L 889.92 999.97 L 887.56 1000.17 L 885.20 1000.37 L 882.86 1000.56 L 880.52 1000.75 L 878.21 1001.03 L 875.91 1001.36 L 873.62 1001.72 L 871.35 1002.05 L 869.08 1002.37 L 866.83 1002.69 L 864.57 1002.93 L 862.32 1003.21 L 860.07 1003.46 L 857.83 1003.71 L 855.60 1003.95 L 853.39 1004.21 L 851.19 1004.51 L 849.01 1004.85 L 846.82 1005.07" stroke="rgb(140,255,190)" stroke-opacity="0.527" stroke-width="1.10" />
  <path d="M 949.68 999.46 L 946.95 999.07 L 944.22 998.71 L 941.51 998.35 L 938.80 997.97 L 936.11 997.61 L 933.42 997.25 L 930.74 996.94 L 928.07 996.63 L 925.40 996.31 L 922.75 995.98 L 920.11 995.65 L 917.51 995.22 L 914.92 994.79 L 912.34 994.35 L 909.76 993.94 L 907.18 993.60 L 904.61 993.29 L 902.07 993.02 L 899.53 992.69 L 897.02 992.37 L 894.55 991.90 L 892.08 991.45 L 889.61 991.02 L 887.15 990.55 L 884.68 990.20 L 882.22 989.88 L 879.75 989.60 L 877.30 989.25 L 874.86 988.91 L 872.42 988.64 L 869.98 988.44 L 867.56 988.19 L 865.14 987.93 L 862.74 987.67 L 860.34 987.44 L 857.95 987.26 L 855.56 987.06 L 853.17 986.92" stroke="rgb(140,255,190)" stroke-opacity="0.527" stroke-width="1.10" />
  <path d="M 915.88 992.44 L 913.31 992.74 L 910.76 993.10 L 908.20 993.35 L 905.64 993.53 L 903.08 993.67 L 900.53 993.80 L 897.98 993.93 L 895.44 994.05 L 892.92 994.18 L 890.41 994.38 L 887.93 994.56 L 885.44 994.75 L 882.98 994.94 L 880.53 995.13 L 878.08 995.32 L 875.64 995.48 L 873.21 995.63 L 870.80 995.75 L 868.40 995.94 L 866.00 996.19 L 863.61 996.38 L 861.23 996.56 L 858.86 996.75 L 856.50 997.00 L 854.16 997.31 L 851.85 997.75 L 849.54 998.11 L 847.23 998.50 L 844.93 998.89 L 842.65 999.34 L 840.38 999.79 L 838.12 1000.23 L 835.85 1000.64 L 833.59 1001.07 L 831.33 1001.47 L 829.10 1001.88" stroke="rgb(140,255,190)" stroke-opacity="0.527" stroke-width="1.10" />
  <path d="M 951.63 1008.49 L 949.11 1009.29 L 946.67 1010.10 L 944.19 1010.83 L 941.72 1011.52 L 939.30 1012.14 L 936.94 1012.62 L 934.59 1013.10 L 932.24 1013.58 L 929.85 1014.06 L 927.45 1014.57 L 925.09 1014.91 L 922.74 1015.25 L 920.43 1015.63 L 918.14 1016.01 L 915.86 1016.37 L 913.61 1016.69 L 911.37 1017.06 L 909.15 1017.45" stroke="rgb(140,255,190)" stroke-opacity="0.525" stroke-width="1.09" />
  <path d="M 888.65 1024.26 L 886.12 1024.56 L 883.60 1024.86 L 881.08 1025.10 L 878.54 1025.32 L 875.98 1025.54 L 873.46 1025.82 L 870.94 1026.03 L 868.41 1026.26 L 865.91 1026.45 L 863.45 1026.70 L 861.05 1026.94 L 858.66 1027.23 L 856.30 1027.53" stroke="rgb(140,255,190)" stroke-opacity="0.525" stroke-width="1.09" />
  <path d="M 1000.48 1001.02 L 998.16 1001.44 L 995.85 1001.85 L 993.54 1002.26 L 991.24 1002.64 L 988.93 1002.95 L 986.66 1003.28 L 984.41 1003.63 L 982.17 1003.98 L 979.89 1004.22 L 977.66 1004.54 L 975.43 1004.89 L 973.22 1005.21 L 971.02 1005.54 L 968.85 1005.95 L 966.68 1006.33 L 964.55 1006.69 L 962.38 1006.97 L 960.20 1007.30 L 958.02 1007.67 L 955.85 1008.01 L 953.69 1008.32 L 951.54 1008.64 L 949.43 1009.00 L 947.36 1009.41 L 945.29 1009.83 L 943.24 1010.27 L 941.20 1010.77 L 939.16 1011.28 L 937.15 1011.84 L 935.22 1012.46 L 933.30 1012.96 L 931.42 1013.47 L 929.51 1013.90 L 927.60 1014.32 L 925.72 1014.85 L 923.94 1015.53 L 922.17 1016.24 L 920.42 1016.97" stroke="rgb(205,165,255)" stroke-opacity="0.464" stroke-width="1.09" />
  <path d="M 896.59 1015.08 L 894.19 1016.45 L 891.79 1017.80 L 889.41 1019.15 L 887.04 1020.51 L 884.67 1021.86 L 882.29 1023.17 L 879.95 1024.53 L 877.64 1025.94 L 875.32 1027.30 L 873.01 1028.65 L 870.73 1030.03 L 868.46 1031.41 L 866.16 1032.71 L 863.94 1034.13 L 861.75 1035.57 L 859.58 1037.04 L 857.41 1038.49 L 855.22 1039.87 L 852.98 1041.17 L 850.73 1042.44 L 848.50 1043.71 L 846.26 1044.93 L 843.98 1046.07 L 841.69 1047.15 L 839.47 1048.34 L 837.35 1049.69 L 835.27 1051.09 L 833.17 1052.43 L 831.03 1053.70 L 828.94 1055.02 L 826.85 1056.33 L 824.74 1057.54 L 822.58 1058.66 L 820.44 1059.77 L 818.28 1060.83 L 816.11 1061.83 L 813.92 1062.80 L 811.74 1063.76 L 809.58 1064.75 L 807.41 1065.66 L 805.24 1066.55 L 803.08 1067.41 L 800.92 1068.22 L 798.78 1069.01 L 796.68 1069.84 L 794.54 1070.58 L 792.40 1071.32 L 790.27 1072.02 L 788.15 1072.68 L 786.04 1073.32 L 783.95 1073.93 L 781.85 1074.54 L 779.77 1075.14" stroke="rgb(140,255,190)" stroke-opacity="0.524" stroke-width="1.09" />
  <path d="M 998.38 996.92 L 996.89 998.11 L 995.45 999.27 L 994.03 1000.43 L 992.62 1001.55 L 991.22 1002.69 L 989.84 1003.84 L 988.47 1004.98 L 987.01 1006.12 L 985.58 1007.27 L 984.25 1008.43 L 982.87 1009.56 L 981.51 1010.75 L 980.07 1011.94 L 978.66 1013.09 L 977.30 1014.35 L 975.93 1015.61 L 974.57 1016.88 L 973.25 1018.13 L 971.94 1019.43 L 970.68 1020.75 L 969.44 1022.06 L 968.26 1023.34 L 967.09 1024.58 L 965.86 1025.77 L 964.63 1026.95 L 963.47 1028.20 L 962.36 1029.48 L 961.17 1030.80 L 960.01 1032.10 L 958.85 1033.48 L 957.72 1034.85" stroke="rgb(140,255,190)" stroke-opacity="0.523" stroke-width="1.09" />
  <path d="M 997.07 997.91 L 995.13 996.89 L 993.20 995.87 L 991.26 994.84 L 989.43 993.87 L 987.59 992.91 L 985.74 992.04 L 983.87 991.10 L 981.99 990.18 L 980.12 989.24 L 978.29 988.28 L 976.48 987.23 L 974.69 986.17 L 972.90 985.12" stroke="rgb(205,165,255)" stroke-opacity="0.461" stroke-width="1.08" />
  <path d="M 996.20 999.92 L 996.42 1001.28 L 996.47 1002.65 L 996.38 1003.97 L 996.17 1005.33 L 996.03 1006.69 L 995.96 1008.06 L 995.84 1009.46 L 995.95 1010.88" stroke="rgb(230,230,230)" stroke-opacity="0.382" stroke-width="0.70" />
  <path d="M 999.11 1000.88 L 998.76 999.91 L 998.38 999.06 L 997.97 998.26" stroke="rgb(230,230,230)" stroke-opacity="0.381" stroke-width="0.70" />
  <path d="M 999.08 1000.80 L 999.63 1000.38 L 1000.24 999.86 L 1000.77 999.27 L 1001.17 998.59" stroke="rgb(230,230,230)" stroke-opacity="0.378" stroke-width="0.69" />
  <path d="M 996.24 998.50 L 995.70 999.37 L 995.29 1000.32 L 994.78 1001.22 L 994.18 1002.02 L 993.60 1002.87 L 993.02 1003.72 L 992.44 1004.55 L 991.97 1005.38 L 991.30 1006.25 L 990.60 1006.99 L 989.90 1007.73 L 989.17 1008.40 L 988.41 1009.09 L 987.66 1009.76 L 986.87 1010.45 L 986.03 1010.99 L 985.11 1011.33 L 984.14 1011.61 L 983.14 1012.05" stroke="rgb(230,230,230)" stroke-opacity="0.378" stroke-width="0.69" />
  <path d="M 1003.63 1002.54 L 1002.19 1002.18 L 1000.81 1001.88 L 999.43 1001.58 L 998.07 1001.23 L 996.68 1000.86 L 995.31 1000.42" stroke="rgb(230,230,230)" stroke-opacity="0.377" stroke-width="0.69" />
  <path d="M 1005.65 1002.24 L 1004.78 1001.02 L 1004.04 999.72 L 1003.26 998.46 L 1002.56 997.16 L 1002.01 995.80 L 1001.39 994.49 L 1000.85 993.15 L 1000.31 991.82 L 999.62 990.59 L 998.90 989.39 L 998.18 988.28 L 997.52 987.20 L 996.75 986.14 L 996.05 985.03 L 995.34 983.93" stroke="rgb(230,230,230)" stroke-opacity="0.376" stroke-width="0.69" />
  <path d="M 997.31 999.31 L 996.59 998.15 L 995.85 997.02 L 995.18 995.92 L 994.49 994.80 L 993.84 993.70 L 993.17 992.59 L 992.56 991.46 L 991.96 990.34 L 991.37 989.19 L 990.76 988.07 L 990.09 987.02 L 989.46 985.93 L 988.84 984.88 L 988.15 983.87 L 987.48 982.85" stroke="rgb(230,230,230)" stroke-opacity="0.375" stroke-width="0.68" />
  <path d="M 1001.60 994.89 L 1000.13 994.79 L 998.64 994.70 L 997.16 994.61 L 995.70 994.55 L 994.26 994.48 L 992.83 994.41 L 991.42 994.33 L 990.02 994.24 L 988.61 994.32" stroke="rgb(230,230,230)" stroke-opacity="0.372" stroke-width="0.67" />
  <path d="M 1002.15 999.62 L 1002.11 998.31 L 1002.01 997.01 L 1001.91 995.71 L 1001.77 994.45 L 1001.72 993.22 L 1001.69 991.99" stroke="rgb(230,230,230)" stroke-opacity="0.370" stroke-width="0.67" />
  <path d="M 997.31 1002.80 L 998.03 1004.11 L 998.75 1005.41 L 999.43 1006.73 L 1000.27 1007.95 L 1001.09 1009.16 L 1001.89 1010.35 L 1002.79 1011.47 L 1003.57 1012.67 L 1004.35 1013.90 L 1005.05 1015.17 L 1005.66 1016.46" stroke="rgb(230,230,230)" stroke-opacity="0.369" stroke-width="0.66" />
  <path d="M 997.06 997.24 L 997.90 998.43 L 998.63 999.69 L 999.35 1000.94 L 1000.17 1002.11 L 1000.85 1003.35 L 1001.38 1004.70" stroke="rgb(230,230,230)" stroke-opacity="0.366" stroke-width="0.66" />
  <path d="M 995.84 997.92 L 997.29 998.32 L 998.73 998.70 L 1000.17 999.04 L 1001.61 999.41 L 1003.04 999.75 L 1004.47 1000.04 L 1005.91 1000.26 L 1007.34 1000.49 L 1008.78 1000.67 L 1010.20 1000.80 L 1011.59 1001.00 L 1012.99 1001.20 L 1014.38 1001.34" stroke="rgb(230,230,230)" stroke-opacity="0.362" stroke-width="0.65" />
  <path d="M 999.46 1001.20 L 1000.78 1000.82 L 1002.10 1000.45 L 1003.41 1000.09 L 1004.77 999.71 L 1006.13 999.41 L 1007.44 999.15 L 1008.66 998.86 L 1009.85 998.46" stroke="rgb(230,230,230)" stroke-opacity="0.358" stroke-width="0.63" />
  <path d="M 999.59 996.71 L 1000.15 998.09 L 1000.75 999.44 L 1001.38 1000.78 L 1002.02 1002.12 L 1002.65 1003.45 L 1003.36 1004.74" stroke="rgb(230,230,230)" stroke-opacity="0.357" stroke-width="0.63" />
  <path d="M 1002.52 1004.31 L 1003.49 1003.41 L 1004.43 1002.48 L 1005.38 1001.60 L 1006.33 1000.72 L 1007.03 999.69 L 1007.81 998.65 L 1008.50 997.52 L 1009.20 996.40 L 1009.90 995.30 L 1010.60 994.19 L 1011.47 993.21" stroke="rgb(230,230,230)" stroke-opacity="0.356" stroke-width="0.63" />
  <path d="M 1005.48 993.33 L 1005.73 992.34 L 1006.02 991.35 L 1006.37 990.36 L 1006.71 989.38 L 1007.02 988.48 L 1007.33 987.55 L 1007.56 986.58 L 1007.71 985.60 L 1008.01 984.60 L 1008.18 983.61 L 1008.36 982.66" stroke="rgb(230,230,230)" stroke-opacity="0.355" stroke-width="0.62" />
  <path d="M 1000.96 1003.77 L 1001.68 1005.07 L 1002.45 1006.35 L 1003.23 1007.61 L 1003.95 1008.87 L 1004.67 1010.11 L 1005.09 1011.44 L 1005.51 1012.76 L 1005.93 1014.08" stroke="rgb(230,230,230)" stroke-opacity="0.354" stroke-width="0.62" />
  <path d="M 1004.25 997.62 L 1003.11 997.94 L 1001.95 998.32 L 1000.67 998.62 L 999.40 998.92 L 998.20 999.37 L 997.03 999.75 L 995.92 1000.10 L 994.90 1000.52" stroke="rgb(230,230,230)" stroke-opacity="0.353" stroke-width="0.62" />
</g>
</svg>
