<?xml version="1.0" encoding="UTF-8"?>
<svg xmlns="http://www.w3.org/2000/svg" width="2000" height="2000" viewBox="0 0 2000 2000">
<g fill="none" stroke-linecap="round" stroke-linejoin="round">
  <path d="M 999.99 1002.13 L 1003.15 1003.13 L 1006.30 1004.10 L 1009.43 1005.13 L 1012.54 1006.15 L 1015.65 1007.11 L 1018.73 1008.14 L 1021.79 1009.20 L 1024.85 1010.21 L 1027.89 1011.23 L 1030.92 1012.23 L 1033.97 1013.15 L 1036.99 1014.11 L 1040.01 1015.03 L 1043.03 1015.93 L 1046.04 1016.80 L 1049.04 1017.63 L 1052.05 1018.41 L 1055.03 1019.24 L 1058.02 1019.99 L 1061.00 1020.74 L 1063.96 1021.52 L 1066.91 1022.27 L 1069.85 1023.02 L 1072.78 1023.74 L 1075.69 1024.53 L 1078.58 1025.30 L 1081.48 1026.02 L 1084.35 1026.78 L 1087.24 1027.46 L 1090.11 1028.14 L 1092.95 1028.86 L 1095.79 1029.57 L 1098.64 1030.18 L 1101.48 1030.79 L 1104.31 1031.36 L 1107.14 1031.92 L 1109.95 1032.51 L 1112.73 1033.14 L 1115.51 1033.76 L 1118.28 1034.37 L 1121.04 1034.93 L 1123.81 1035.45 L 1126.55 1036.01 L 1129.28 1036.59 L 1132.00 1037.14 L 1134.72 1037.62 L 1137.44 1038.10 L 1140.14 1038.60 L 1142.83 1039.07 L 1145.51 1039.56 L 1148.16 1040.11 L 1150.81 1040.63 L 1153.44 1041.18 L 1156.07 1041.72 L 1158.67 1042.30 L 1161.26 1042.89 L 1163.84 1043.51 L 1166.40 1044.15 L 1168.95 1044.75 L 1171.50 1045.36 L 1174.02 1046.01 L 1176.54 1046.62 L 1179.04 1047.26 L 1181.54 1047.90 L 1184.03 1048.50 L 1186.52 1049.07 L 1188.99 1049.68 L 1191.44 1050.29 L 1193.89 1050.93 L 1196.33 1051.53 L 1198.76 1052.11 L 1201.17 1052.74 L 1203.56 1053.41 L 1205.93 1054.11 L 1208.29 1054.81 L 1210.66 1055.46 L 1213.02 1056.08 L 1215.37 1056.71 L 1217.72 1057.32 L 1220.06 1057.91 L 1222.39 1058.50 L 1224.71 1059.10 L 1227.02 1059.68 L 1229.34 1060.21 L 1231.65 1060.73 L 1233.94 1061.25 L 1236.23 1061.79 L 1238.51 1062.32" stroke="rgb(120,210,255)" stroke-opacity="0.853" stroke-width="1.63" />
  <path d="M 999.41 1002.71 L 1002.52 1003.62 L 1005.63 1004.50 L 1008.73 1005.37 L 1011.83 1006.15 L 1014.93 1006.91 L 1018.03 1007.66 L 1021.11 1008.37 L 1024.20 1009.02 L 1027.26 1009.70 L 1030.33 1010.32 L 1033.40 1010.88 L 1036.45 1011.42 L 1039.50 1011.93 L 1042.54 1012.45 L 1045.56 1012.96 L 1048.58 1013.40 L 1051.60 1013.78 L 1054.61 1014.13 L 1057.61 1014.47 L 1060.59 1014.84 L 1063.56 1015.20 L 1066.52 1015.58 L 1069.47 1015.96 L 1072.41 1016.29 L 1075.33 1016.62 L 1078.25 1016.94 L 1081.15 1017.28 L 1084.04 1017.64 L 1086.92 1018.01 L 1089.78 1018.37 L 1092.64 1018.67 L 1095.49 1018.99 L 1098.32 1019.36 L 1101.14 1019.73 L 1103.94 1020.10 L 1106.73 1020.49 L 1109.51 1020.93 L 1112.27 1021.34 L 1115.02 1021.80 L 1117.76 1022.26 L 1120.49 1022.69 L 1123.20 1023.16 L 1125.90 1023.64" stroke="rgb(120,210,255)" stroke-opacity="0.850" stroke-width="1.62" />
  <path d="M 999.67 996.73 L 1003.02 997.73 L 1006.37 998.70 L 1009.70 999.65 L 1013.02 1000.62 L 1016.32 1001.56 L 1019.60 1002.55 L 1022.86 1003.55 L 1026.11 1004.55 L 1029.35 1005.54 L 1032.58 1006.50 L 1035.77 1007.56 L 1038.94 1008.60 L 1042.10 1009.66 L 1045.24 1010.73 L 1048.37 1011.80 L 1051.49 1012.84 L 1054.61 1013.86 L 1057.72 1014.85 L 1060.80 1015.88 L 1063.88 1016.90 L 1066.93 1017.95 L 1069.99 1018.93 L 1073.03 1019.90 L 1076.07 1020.88 L 1079.09 1021.85 L 1082.10 1022.84 L 1085.09 1023.80 L 1088.08 1024.76 L 1091.04 1025.75 L 1093.99 1026.75 L 1096.92 1027.75 L 1099.84 1028.74 L 1102.75 1029.74 L 1105.65 1030.74 L 1108.53 1031.73 L 1111.41 1032.71 L 1114.29 1033.63 L 1117.16 1034.53 L 1120.03 1035.41 L 1122.90 1036.25 L 1125.75 1037.12 L 1128.59 1037.97 L 1131.41 1038.86 L 1134.20 1039.79 L 1136.98 1040.71 L 1139.75 1041.64 L 1142.50 1042.55 L 1145.25 1043.47 L 1148.00 1044.35 L 1150.73 1045.22 L 1153.47 1046.05 L 1156.20 1046.86 L 1158.92 1047.68 L 1161.62 1048.50 L 1164.31 1049.33 L 1167.00 1050.13 L 1169.68 1050.93 L 1172.33 1051.75 L 1174.98 1052.55 L 1177.62 1053.37 L 1180.24 1054.18 L 1182.86 1054.97 L 1185.48 1055.74 L 1188.07 1056.56 L 1190.65 1057.35 L 1193.23 1058.13 L 1195.80 1058.90 L 1198.36 1059.67 L 1200.91 1060.43 L 1203.45 1061.19 L 1205.99 1061.91 L 1208.52 1062.64 L 1211.03 1063.39 L 1213.53 1064.12 L 1216.02 1064.86 L 1218.49 1065.62 L 1220.94 1066.43 L 1223.36 1067.27 L 1225.78 1068.12 L 1228.18 1068.95 L 1230.59 1069.75 L 1232.99 1070.55 L 1235.37 1071.36 L 1237.76 1072.11 L 1240.14 1072.86 L 1242.52 1073.58 L 1244.88 1074.31 L 1247.24 1075.03 L 1249.59 1075.76 L 1251.93 1076.46 L 1254.26 1077.18 L 1256.58 1077.88 L 1258.88 1078.64 L 1261.17 1079.38 L 1263.46 1080.10 L 1265.74 1080.80 L 1268.01 1081.52 L 1270.27 1082.24 L 1272.51 1082.96 L 1274.73 1083.73 L 1276.95 1084.49 L 1279.16 1085.21 L 1281.36 1085.96 L 1283.56 1086.70 L 1285.74 1087.43" stroke="rgb(120,210,255)" stroke-opacity="0.849" stroke-width="1.62" />
  <path d="M 998.23 999.29 L 1001.45 1000.19 L 1004.63 1001.18 L 1007.80 1002.16 L 1010.94 1003.20 L 1014.07 1004.23 L 1017.17 1005.27 L 1020.27 1006.30 L 1023.36 1007.34 L 1026.42 1008.40 L 1029.47 1009.46 L 1032.52 1010.45 L 1035.54 1011.51 L 1038.57 1012.51 L 1041.58 1013.52 L 1044.56 1014.58 L 1047.55 1015.58 L 1050.48 1016.69 L 1053.39 1017.83 L 1056.29 1018.97 L 1059.14 1020.17 L 1061.98 1021.40 L 1064.82 1022.56 L 1067.66 1023.72 L 1070.49 1024.86 L 1073.32 1025.97 L 1076.13 1027.10 L 1078.91 1028.24 L 1081.71 1029.35 L 1084.48 1030.46 L 1087.21 1031.65 L 1089.91 1032.88 L 1092.57 1034.16 L 1095.24 1035.41 L 1097.90 1036.64 L 1100.56 1037.83 L 1103.23 1038.99 L 1105.86 1040.20 L 1108.52 1041.30 L 1111.19 1042.36 L 1113.86 1043.40 L 1116.50 1044.48 L 1119.12 1045.55 L 1121.72 1046.66 L 1124.29 1047.82 L 1126.83 1049.02 L 1129.37 1050.17 L 1131.90 1051.33 L 1134.37 1052.58 L 1136.84 1053.82 L 1139.28 1055.09 L 1141.74 1056.28 L 1144.21 1057.43 L 1146.68 1058.57 L 1149.12 1059.73 L 1151.57 1060.85 L 1154.00 1061.98 L 1156.42 1063.12 L 1158.83 1064.26 L 1161.24 1065.36 L 1163.64 1066.46 L 1166.03 1067.57 L 1168.40 1068.68 L 1170.77 1069.77 L 1173.13 1070.85 L 1175.47 1071.96 L 1177.81 1073.04 L 1180.14 1074.12 L 1182.47 1075.18 L 1184.80 1076.20 L 1187.13 1077.20 L 1189.45 1078.20 L 1191.77 1079.18 L 1194.09 1080.14 L 1196.40 1081.09 L 1198.70 1082.02 L 1200.99 1082.98 L 1203.26 1083.94 L 1205.51 1084.91 L 1207.77 1085.87 L 1210.02 1086.79 L 1212.28 1087.68 L 1214.53 1088.57 L 1216.79 1089.40 L 1219.04 1090.23 L 1221.27 1091.10 L 1223.47 1091.99 L 1225.65 1092.93 L 1227.79 1093.91 L 1229.92 1094.91 L 1232.04 1095.91 L 1234.15 1096.90 L 1236.26 1097.87 L 1238.36 1098.84 L 1240.46 1099.80 L 1242.55 1100.75 L 1244.64 1101.66 L 1246.72 1102.58 L 1248.80 1103.49 L 1250.88 1104.37 L 1252.96 1105.24 L 1255.02 1106.11 L 1257.09 1106.95" stroke="rgb(120,210,255)" stroke-opacity="0.849" stroke-width="1.62" />
  <path d="M 1003.67 1000.66 L 1006.69 1001.42 L 1009.68 1002.27 L 1012.66 1003.12 L 1015.63 1003.92 L 1018.59 1004.76 L 1021.48 1005.75 L 1024.35 1006.78 L 1027.20 1007.82 L 1030.01 1008.92 L 1032.80 1010.04 L 1035.62 1011.06 L 1038.42 1012.10 L 1041.21 1013.12 L 1044.01 1014.08 L 1046.81 1015.01 L 1049.60 1015.94 L 1052.37 1016.87 L 1055.13 1017.82 L 1057.89 1018.72 L 1060.64 1019.60 L 1063.40 1020.41 L 1066.16 1021.20 L 1068.90 1022.00 L 1071.62 1022.85" stroke="rgb(120,210,255)" stroke-opacity="0.847" stroke-width="1.61" />
  <path d="M 1049.04 1017.63 L 1051.86 1019.14 L 1054.67 1020.63 L 1057.42 1022.21 L 1060.15 1023.79 L 1062.83 1025.44 L 1065.48 1027.10 L 1068.16 1028.70 L 1070.83 1030.31 L 1073.51 1031.85 L 1076.15 1033.44 L 1078.80 1034.99 L 1081.38 1036.62 L 1083.95 1038.26 L 1086.51 1039.89 L 1089.05 1041.53 L 1091.51 1043.26 L 1094.01 1044.92 L 1096.52 1046.54 L 1099.01 1048.15 L 1101.49 1049.78 L 1103.91 1051.46 L 1106.34 1053.11 L 1108.76 1054.76 L 1111.17 1056.39 L 1113.59 1058.00 L 1116.06 1059.51 L 1118.54 1060.97 L 1120.91 1062.58 L 1123.24 1064.24 L 1125.54 1065.90 L 1127.88 1067.51 L 1130.22 1069.08 L 1132.51 1070.71 L 1134.82 1072.29 L 1137.14 1073.85 L 1139.42 1075.43 L 1141.68 1077.03 L 1143.90 1078.66 L 1146.10 1080.30 L 1148.25 1081.98 L 1150.38 1083.68 L 1152.58 1085.26 L 1154.78 1086.83 L 1156.97 1088.39 L 1159.12 1089.99 L 1161.27 1091.58 L 1163.38 1093.19 L 1165.52 1094.75 L 1167.67 1096.28 L 1169.79 1097.82 L 1171.91 1099.35 L 1174.03 1100.87 L 1176.08 1102.46 L 1178.10 1104.08 L 1180.10 1105.69" stroke="rgb(120,210,255)" stroke-opacity="0.846" stroke-width="1.61" />
  <path d="M 996.91 1000.53 L 999.94 1001.43 L 1002.97 1002.28 L 1006.00 1003.08 L 1009.00 1003.94 L 1011.99 1004.82 L 1014.96 1005.69 L 1017.92 1006.56 L 1020.85 1007.47 L 1023.79 1008.34 L 1026.72 1009.19 L 1029.62 1010.06 L 1032.53 1010.90 L 1035.42 1011.74 L 1038.31 1012.55 L 1041.20 1013.29 L 1044.10 1013.96 L 1046.99 1014.65 L 1049.84 1015.40 L 1052.70 1016.08 L 1055.56 1016.73 L 1058.40 1017.39 L 1061.23 1018.02 L 1064.07 1018.60 L 1066.89 1019.19 L 1069.70 1019.76 L 1072.51 1020.30 L 1075.30 1020.87 L 1078.09 1021.40 L 1080.86 1021.92 L 1083.63 1022.43 L 1086.37 1022.99 L 1089.11 1023.55 L 1091.82 1024.18 L 1094.53 1024.74 L 1097.23 1025.30 L 1099.92 1025.83 L 1102.60 1026.38 L 1105.26 1026.97 L 1107.91 1027.55 L 1110.55 1028.14 L 1113.18 1028.71" stroke="rgb(120,210,255)" stroke-opacity="0.845" stroke-width="1.61" />
  <path d="M 1003.16 998.72 L 1006.21 999.55 L 1009.26 1000.35 L 1012.28 1001.22 L 1015.30 1002.03 L 1018.34 1002.72 L 1021.37 1003.38 L 1024.42 1003.88 L 1027.46 1004.30 L 1030.51 1004.68 L 1033.54 1004.97 L 1036.56 1005.34 L 1039.58 1005.64 L 1042.57 1005.99 L 1045.57 1006.22 L 1048.55 1006.44 L 1051.52 1006.65 L 1054.48 1006.90 L 1057.43 1007.06 L 1060.38 1007.18 L 1063.31 1007.18 L 1066.23 1007.15 L 1069.14 1007.17 L 1072.04 1007.15 L 1074.92 1007.15 L 1077.80 1007.15 L 1080.66 1007.14 L 1083.51 1007.18 L 1086.35 1007.15 L 1089.18 1007.16 L 1092.00 1007.15 L 1094.80 1007.06 L 1097.60 1006.99 L 1100.38 1006.98 L 1103.15 1006.94 L 1105.91 1006.88 L 1108.66 1006.87 L 1111.40 1006.85 L 1114.13 1006.82 L 1116.85 1006.74 L 1119.55 1006.59 L 1122.25 1006.50 L 1124.93 1006.44 L 1127.60 1006.35 L 1130.27 1006.26 L 1132.92 1006.16 L 1135.56 1006.13 L 1138.19 1006.06 L 1140.81 1006.04 L 1143.42 1006.01 L 1146.02 1006.05 L 1148.61 1006.10" stroke="rgb(120,210,255)" stroke-opacity="0.844" stroke-width="1.61" />
  <path d="M 998.97 995.93 L 1002.30 996.72 L 1005.61 997.56 L 1008.90 998.39 L 1012.19 999.21 L 1015.45 1000.07 L 1018.69 1000.94 L 1021.91 1001.84 L 1025.10 1002.79 L 1028.27 1003.79 L 1031.43 1004.76 L 1034.56 1005.76 L 1037.67 1006.81 L 1040.75 1007.89 L 1043.82 1008.94 L 1046.91 1009.94 L 1049.96 1010.99 L 1053.00 1012.03 L 1056.02 1013.07 L 1059.02 1014.16 L 1062.01 1015.23 L 1064.97 1016.34 L 1067.92 1017.44 L 1070.88 1018.47 L 1073.84 1019.47 L 1076.79 1020.46 L 1079.73 1021.44 L 1082.65 1022.43 L 1085.56 1023.42 L 1088.46 1024.41 L 1091.34 1025.41 L 1094.23 1026.35 L 1097.12 1027.26 L 1100.00 1028.13 L 1102.87 1029.01 L 1105.71 1029.93 L 1108.55 1030.83 L 1111.38 1031.73 L 1114.19 1032.64 L 1116.99 1033.54 L 1119.77 1034.46 L 1122.54 1035.38 L 1125.29 1036.31 L 1128.04 1037.21 L 1130.78 1038.10 L 1133.52 1038.99 L 1136.22 1039.93 L 1138.91 1040.87 L 1141.59 1041.80 L 1144.26 1042.72 L 1146.92 1043.65 L 1149.56 1044.58 L 1152.19 1045.53" stroke="rgb(120,210,255)" stroke-opacity="0.843" stroke-width="1.60" />
  <path d="M 1055.60 1019.57 L 1058.37 1020.72 L 1061.10 1021.91 L 1063.86 1023.02 L 1066.57 1024.21 L 1069.24 1025.46 L 1071.87 1026.75 L 1074.46 1028.11" stroke="rgb(120,210,255)" stroke-opacity="0.463" stroke-width="1.60" />
  <path d="M 1145.51 1039.56 L 1148.85 1040.07 L 1152.18 1040.56 L 1155.49 1041.09 L 1158.78 1041.62 L 1162.06 1042.18 L 1165.32 1042.78 L 1168.57 1043.32 L 1171.82 1043.79 L 1175.06 1044.25 L 1178.28 1044.77 L 1181.50 1045.22 L 1184.70 1045.67 L 1187.89 1046.09 L 1191.07 1046.54 L 1194.23 1046.99 L 1197.38 1047.45 L 1200.52 1047.88 L 1203.64 1048.37 L 1206.74 1048.87 L 1209.83 1049.42 L 1212.90 1049.92 L 1215.95 1050.52 L 1219.00 1051.04 L 1222.04 1051.58 L 1225.06 1052.10 L 1228.08 1052.55 L 1231.09 1053.02 L 1234.09 1053.51 L 1237.06 1054.03 L 1240.03 1054.51 L 1242.99 1054.97 L 1245.93 1055.51 L 1248.86 1056.01 L 1251.77 1056.52 L 1254.66 1057.11 L 1257.56 1057.61 L 1260.43 1058.14 L 1263.30 1058.67 L 1266.14 1059.24 L 1268.97 1059.84 L 1271.78 1060.46 L 1274.58 1061.08 L 1277.38 1061.63 L 1280.17 1062.17 L 1282.96 1062.70 L 1285.74 1063.15 L 1288.52 1063.59 L 1291.27 1064.10 L 1294.01 1064.61 L 1296.73 1065.15 L 1299.44 1065.73 L 1302.13 1066.34 L 1304.81 1066.91 L 1307.48 1067.47 L 1310.15 1068.02 L 1312.79 1068.62 L 1315.42 1069.23 L 1318.04 1069.84 L 1320.64 1070.48 L 1323.22 1071.17 L 1325.77 1071.93 L 1328.29 1072.71 L 1330.83 1073.42 L 1333.36 1074.14 L 1335.88 1074.81 L 1338.40 1075.50 L 1340.90 1076.18 L 1343.40 1076.83 L 1345.90 1077.42 L 1348.39 1078.02 L 1350.87 1078.65 L 1353.34 1079.26 L 1355.79 1079.87" stroke="rgb(120,210,255)" stroke-opacity="0.842" stroke-width="1.60" />
  <path d="M 998.77 1002.52 L 1001.88 1003.41 L 1004.96 1004.39 L 1008.00 1005.40 L 1011.05 1006.38 L 1014.10 1007.28 L 1017.14 1008.19 L 1020.17 1009.12 L 1023.17 1010.05 L 1026.15 1011.05 L 1029.10 1012.05 L 1032.06 1013.02 L 1035.03 1013.88 L 1038.00 1014.72 L 1040.97 1015.51 L 1043.94 1016.27 L 1046.88 1017.08 L 1049.79 1017.92 L 1052.70 1018.75 L 1055.60 1019.57 L 1058.48 1020.43 L 1061.35 1021.27 L 1064.21 1022.06 L 1067.07 1022.87 L 1069.92 1023.64 L 1072.75 1024.44" stroke="rgb(120,210,255)" stroke-opacity="0.841" stroke-width="1.60" />
  <path d="M 1233.94 1061.25 L 1237.20 1061.50 L 1240.44 1061.69 L 1243.67 1061.96 L 1246.89 1062.14 L 1250.09 1062.30 L 1253.29 1062.46 L 1256.47 1062.51 L 1259.65 1062.58 L 1262.81 1062.67 L 1265.95 1062.73 L 1269.09 1062.83 L 1272.21 1062.81 L 1275.32 1062.77 L 1278.41 1062.75 L 1281.50 1062.68 L 1284.57 1062.63 L 1287.63 1062.59 L 1290.68 1062.58 L 1293.72 1062.55 L 1296.74 1062.53 L 1299.75 1062.48 L 1302.75 1062.37 L 1305.73 1062.19 L 1308.70 1061.98 L 1311.65 1061.73 L 1314.59 1061.46 L 1317.52 1061.23 L 1320.45 1061.04 L 1323.36 1060.88 L 1326.26 1060.79 L 1329.15 1060.71 L 1332.03 1060.59 L 1334.90 1060.46 L 1337.75 1060.30 L 1340.60 1060.14 L 1343.43 1060.00 L 1346.25 1059.86 L 1349.06 1059.68 L 1351.86 1059.53 L 1354.64 1059.37 L 1357.41 1059.12 L 1360.17 1058.90 L 1362.92 1058.74 L 1365.67 1058.59 L 1368.40 1058.48 L 1371.12 1058.28 L 1373.82 1058.01 L 1376.51 1057.74 L 1379.19 1057.50 L 1381.85 1057.22 L 1384.51 1056.98 L 1387.16 1056.73 L 1389.80 1056.46 L 1392.42 1056.14 L 1395.02 1055.81 L 1397.63 1055.52 L 1400.22 1055.22 L 1402.78 1054.84 L 1405.35 1054.48 L 1407.89 1054.09 L 1410.42 1053.65 L 1412.94 1053.24 L 1415.45 1052.81 L 1417.95 1052.37 L 1420.43 1051.89 L 1422.89 1051.41 L 1425.35 1050.92 L 1427.80 1050.47 L 1430.24 1049.97 L 1432.66 1049.47 L 1435.07 1048.95 L 1437.49 1048.51 L 1439.90 1048.12 L 1442.30 1047.70 L 1444.69 1047.32 L 1447.07 1046.90 L 1449.45 1046.53" stroke="rgb(120,210,255)" stroke-opacity="0.840" stroke-width="1.59" />
  <path d="M 997.76 999.76 L 1000.87 1000.50 L 1003.94 1001.36 L 1006.98 1002.25 L 1010.02 1003.10 L 1013.06 1003.93 L 1016.06 1004.80 L 1019.04 1005.73 L 1022.02 1006.63 L 1024.99 1007.50 L 1027.96 1008.31 L 1030.93 1009.11" stroke="rgb(120,210,255)" stroke-opacity="0.840" stroke-width="1.59" />
  <path d="M 1038.00 1014.72 L 1040.95 1014.90 L 1043.90 1014.99 L 1046.82 1015.18 L 1049.74 1015.18 L 1052.65 1015.26 L 1055.54 1015.20 L 1058.43 1015.22 L 1061.30 1015.29 L 1064.16 1015.30 L 1067.01 1015.31 L 1069.85 1015.27 L 1072.68 1015.20 L 1075.50 1015.17 L 1078.30 1015.23 L 1081.10 1015.23 L 1083.87 1015.40 L 1086.64 1015.53 L 1089.40 1015.64 L 1092.15 1015.69 L 1094.89 1015.79 L 1097.61 1015.78 L 1100.33 1015.76" stroke="rgb(120,210,255)" stroke-opacity="0.462" stroke-width="1.59" />
  <path d="M 1000.12 1003.34 L 1002.99 1004.09 L 1005.83 1004.88 L 1008.65 1005.68 L 1011.46 1006.51 L 1014.28 1007.24 L 1017.06 1008.08 L 1019.82 1008.95 L 1022.59 1009.73 L 1025.35 1010.51 L 1028.08 1011.34 L 1030.78 1012.22 L 1033.48 1013.09 L 1036.19 1013.86 L 1038.91 1014.59 L 1041.57 1015.44 L 1044.26 1016.18 L 1046.96 1016.82 L 1049.64 1017.52 L 1052.30 1018.24 L 1054.95 1018.95 L 1057.61 1019.57 L 1060.27 1020.13 L 1062.92 1020.72 L 1065.55 1021.32 L 1068.17 1021.94 L 1070.78 1022.52 L 1073.35 1023.23 L 1075.89 1024.02 L 1078.41 1024.81 L 1080.93 1025.61 L 1083.44 1026.36 L 1085.97 1027.04 L 1088.48 1027.72 L 1090.98 1028.43 L 1093.43 1029.25 L 1095.87 1030.05 L 1098.32 1030.80 L 1100.77 1031.54 L 1103.20 1032.26 L 1105.62 1033.00 L 1108.03 1033.74 L 1110.45 1034.45 L 1112.88 1035.04 L 1115.30 1035.63 L 1117.71 1036.23" stroke="rgb(120,210,255)" stroke-opacity="0.461" stroke-width="1.59" />
  <path d="M 1002.30 1002.93 L 1004.98 1003.88 L 1007.66 1004.81 L 1010.31 1005.77 L 1012.96 1006.71 L 1015.63 1007.55 L 1018.32 1008.29 L 1020.99 1009.05 L 1023.62 1009.89 L 1026.27 1010.64 L 1028.90 1011.43 L 1031.51 1012.23 L 1034.12 1012.99 L 1036.74 1013.70 L 1039.36 1014.35 L 1041.99 1014.90 L 1044.61 1015.47 L 1047.21 1016.05 L 1049.80 1016.63 L 1052.38 1017.23 L 1054.92 1017.91 L 1057.47 1018.55 L 1060.02 1019.14 L 1062.56 1019.69 L 1065.10 1020.22 L 1067.63 1020.74 L 1070.16 1021.23 L 1072.68 1021.67 L 1075.19 1022.11 L 1077.70 1022.50 L 1080.20 1022.92 L 1082.70 1023.28 L 1085.18 1023.67 L 1087.66 1024.00 L 1090.11 1024.41 L 1092.56 1024.84 L 1094.99 1025.31 L 1097.41 1025.73 L 1099.81 1026.24 L 1102.20 1026.76 L 1104.57 1027.28 L 1106.94 1027.79 L 1109.32 1028.20 L 1111.69 1028.60 L 1114.05 1028.98 L 1116.42 1029.24 L 1118.78 1029.48 L 1121.14 1029.67 L 1123.49 1029.82 L 1125.82 1030.04 L 1128.15 1030.21 L 1130.48 1030.32 L 1132.79 1030.46 L 1135.10 1030.63 L 1137.39 1030.79 L 1139.67 1030.96" stroke="rgb(120,210,255)" stroke-opacity="0.459" stroke-width="1.58" />
  <path d="M 999.97 999.31 L 1002.03 999.97 L 1004.09 1000.60 L 1006.15 1001.22 L 1008.20 1001.81 L 1010.23 1002.45 L 1012.29 1002.99 L 1014.35 1003.43 L 1016.43 1003.75 L 1018.51 1004.00 L 1020.59 1004.16 L 1022.67 1004.25 L 1024.74 1004.38 L 1026.79 1004.55 L 1028.82 1004.89 L 1030.84 1005.21 L 1032.86 1005.51 L 1034.86 1005.80 L 1036.85 1006.19 L 1038.84 1006.51 L 1040.82 1006.78 L 1042.80 1007.08 L 1044.76 1007.39 L 1046.73 1007.59 L 1048.70 1007.71 L 1050.67 1007.78 L 1052.62 1007.90 L 1054.57 1007.99 L 1056.51 1008.05 L 1058.44 1008.11 L 1060.37 1008.12 L 1062.29 1008.18 L 1064.19 1008.33 L 1066.09 1008.53 L 1067.98 1008.68 L 1069.87 1008.72 L 1071.75 1008.76 L 1073.62 1008.86 L 1075.48 1008.87 L 1077.34 1008.93 L 1079.18 1009.16 L 1081.02 1009.26 L 1082.85 1009.38 L 1084.67 1009.51 L 1086.48 1009.72 L 1088.27 1010.00 L 1090.06 1010.26 L 1091.85 1010.48 L 1093.63 1010.73 L 1095.40 1010.90 L 1097.18 1011.04 L 1098.94 1011.14 L 1100.70 1011.29 L 1102.45 1011.50 L 1104.18 1011.72 L 1105.92 1011.88 L 1107.62 1012.21 L 1109.31 1012.57" stroke="rgb(140,255,190)" stroke-opacity="0.582" stroke-width="1.29" />
  <path d="M 1051.41 1005.75 L 1053.49 1005.21 L 1055.53 1004.57 L 1057.60 1004.03 L 1059.60 1003.33 L 1061.59 1002.60 L 1063.53 1001.77 L 1065.41 1000.85 L 1067.31 999.96 L 1069.11 998.93 L 1070.85 997.79 L 1072.67 996.81 L 1074.49 995.87 L 1076.38 995.07 L 1078.19 994.13 L 1079.95 993.10 L 1081.75 992.18 L 1083.51 991.19" stroke="rgb(140,255,190)" stroke-opacity="0.581" stroke-width="1.28" />
  <path d="M 1001.97 999.25 L 1004.11 999.67 L 1006.27 999.92 L 1008.41 1000.23 L 1010.55 1000.51 L 1012.69 1000.66 L 1014.83 1000.79 L 1016.96 1000.75 L 1019.07 1000.61 L 1021.18 1000.56 L 1023.28 1000.41 L 1025.38 1000.29 L 1027.46 1000.29 L 1029.54 1000.31 L 1031.61 1000.43 L 1033.65 1000.70 L 1035.70 1000.83 L 1037.75 1000.91 L 1039.78 1001.03 L 1041.81 1001.16 L 1043.82 1001.33 L 1045.81 1001.62 L 1047.81 1001.83 L 1049.80 1002.01 L 1051.78 1002.15 L 1053.75 1002.38 L 1055.72 1002.55 L 1057.67 1002.78" stroke="rgb(140,255,190)" stroke-opacity="0.577" stroke-width="1.27" />
  <path d="M 1085.92 1015.92 L 1087.75 1017.16 L 1089.57 1018.39 L 1091.32 1019.70 L 1092.94 1021.16 L 1094.47 1022.71 L 1095.88 1024.35 L 1097.28 1025.99 L 1098.57 1027.70 L 1099.87 1029.40 L 1101.15 1031.10 L 1102.46 1032.77 L 1103.78 1034.42 L 1104.93 1036.18 L 1106.01 1037.97 L 1107.15 1039.72 L 1108.29 1041.46 L 1109.45 1043.18 L 1110.64 1044.86 L 1111.83 1046.54 L 1112.88 1048.29 L 1114.03 1049.97 L 1115.25 1051.59 L 1116.45 1053.22 L 1117.61 1054.87 L 1118.56 1056.63 L 1119.43 1058.43 L 1120.29 1060.23 L 1121.00 1062.07 L 1121.69 1063.92 L 1122.45 1065.73 L 1123.38 1067.46 L 1124.30 1069.17 L 1125.09 1070.95 L 1125.93 1072.69 L 1126.72 1074.45 L 1127.46 1076.22 L 1128.14 1078.00 L 1128.89 1079.75 L 1129.67 1081.48 L 1130.46 1083.19 L 1131.22 1084.91 L 1132.19 1086.52 L 1133.22 1088.07 L 1134.23 1089.63 L 1135.30 1091.14 L 1136.36 1092.65 L 1137.45 1094.13 L 1138.54 1095.59 L 1139.47 1097.16 L 1140.33 1098.76 L 1141.30 1100.28 L 1142.27 1101.80 L 1143.28 1103.28 L 1144.32 1104.73 L 1145.20 1106.27 L 1146.13 1107.78" stroke="rgb(140,255,190)" stroke-opacity="0.574" stroke-width="1.26" />
  <path d="M 997.56 1002.39 L 1000.71 1001.00 L 1003.83 999.61 L 1006.97 998.28 L 1010.12 997.02 L 1013.27 995.80 L 1016.41 994.56 L 1019.52 993.32 L 1022.61 992.06 L 1025.68 990.77 L 1028.74 989.48 L 1031.77 988.19 L 1034.80 986.90 L 1037.81 985.63 L 1040.82 984.37 L 1043.81 983.09 L 1046.77 981.79 L 1049.73 980.52 L 1052.66 979.20 L 1055.57 977.87 L 1058.45 976.52 L 1061.32 975.19 L 1064.19 973.86 L 1067.04 972.53 L 1069.89 971.22 L 1072.69 969.84 L 1075.47 968.46 L 1078.24 967.07 L 1081.00 965.69 L 1083.75 964.33 L 1086.49 962.97 L 1089.21 961.60 L 1091.93 960.25 L 1094.64 958.92 L 1097.35 957.60 L 1100.04 956.29 L 1102.73 954.99" stroke="rgb(205,165,255)" stroke-opacity="0.721" stroke-width="1.24" />
  <path d="M 964.98 1015.37 L 962.27 1017.57 L 959.56 1019.74 L 956.86 1021.89 L 954.15 1024.03 L 951.47 1026.16 L 948.80 1028.30 L 946.10 1030.37 L 943.44 1032.47 L 940.84 1034.63 L 938.27 1036.80 L 935.72 1038.97 L 933.15 1041.10 L 930.60 1043.23 L 928.01 1045.29 L 925.42 1047.33 L 922.81 1049.32 L 920.19 1051.29 L 917.54 1053.18 L 914.89 1055.05 L 912.27 1056.94 L 909.66 1058.81 L 907.03 1060.66 L 904.46 1062.54 L 901.94 1064.48 L 899.43 1066.42 L 896.94 1068.35 L 894.47 1070.30 L 892.02 1072.24 L 889.54 1074.12 L 887.08 1076.02 L 884.64 1077.92 L 882.20 1079.80 L 879.79 1081.69 L 877.38 1083.57 L 874.97 1085.43 L 872.55 1087.26 L 870.13 1089.06 L 867.73 1090.87" stroke="rgb(205,165,255)" stroke-opacity="0.718" stroke-width="1.24" />
  <path d="M 917.47 1032.81 L 914.08 1032.77 L 910.70 1032.77 L 907.34 1032.74 L 903.99 1032.56 L 900.66 1032.40 L 897.34 1032.15 L 894.04 1031.98 L 890.75 1031.77 L 887.47 1031.64 L 884.20 1031.55 L 880.94 1031.50 L 877.70 1031.50 L 874.46 1031.41 L 871.25 1031.20 L 868.05 1031.04 L 864.86 1030.89 L 861.69 1030.67 L 858.53 1030.48 L 855.38 1030.23 L 852.25 1030.00 L 849.12 1029.79 L 846.01 1029.60 L 842.91 1029.40 L 839.83 1029.18 L 836.75 1029.05 L 833.69 1028.98 L 830.63 1028.92 L 827.59 1028.79 L 824.57 1028.61 L 821.55 1028.41 L 818.55 1028.21 L 815.56 1028.03 L 812.59 1027.79 L 809.63 1027.53 L 806.68 1027.30 L 803.74 1027.10 L 800.81 1026.91 L 797.89 1026.74 L 794.99 1026.54 L 792.09 1026.36 L 789.21 1026.20 L 786.33 1026.09 L 783.47 1025.98 L 780.62 1025.93 L 777.77 1025.94 L 774.94 1026.02 L 772.12 1026.08 L 769.32 1026.10 L 766.52 1026.15 L 763.73 1026.18 L 760.96 1026.21 L 758.19 1026.22 L 755.44 1026.21 L 752.70 1026.20 L 749.97 1026.24 L 747.25 1026.26 L 744.54 1026.28 L 741.84 1026.35 L 739.16 1026.45 L 736.48 1026.54" stroke="rgb(205,165,255)" stroke-opacity="0.718" stroke-width="1.24" />
  <path d="M 1001.23 998.21 L 1003.36 998.95 L 1005.47 999.74 L 1007.56 1000.55 L 1009.65 1001.35 L 1011.72 1002.16 L 1013.77 1003.00 L 1015.87 1003.68 L 1017.97 1004.32 L 1020.08 1004.88 L 1022.19 1005.44 L 1024.27 1006.06 L 1026.36 1006.63 L 1028.44 1007.20 L 1030.51 1007.76 L 1032.59 1008.23 L 1034.67 1008.71 L 1036.72 1009.24 L 1038.77 1009.75 L 1040.84 1010.11 L 1042.91 1010.42 L 1044.98 1010.66 L 1047.04 1010.98 L 1049.09 1011.20 L 1051.15 1011.31 L 1053.20 1011.27 L 1055.25 1011.19 L 1057.28 1011.11 L 1059.31 1010.99 L 1061.33 1010.94 L 1063.34 1010.83 L 1065.34 1010.77 L 1067.33 1010.63 L 1069.32 1010.64 L 1071.30 1010.69" stroke="rgb(140,255,190)" stroke-opacity="0.567" stroke-width="1.24" />
  <path d="M 1011.87 1051.23 L 1011.56 1054.52 L 1011.32 1057.81 L 1011.13 1061.08 L 1010.91 1064.34 L 1010.62 1067.58 L 1010.38 1070.81 L 1009.99 1074.01 L 1009.63 1077.20 L 1009.30 1080.39 L 1009.00 1083.56 L 1008.70 1086.72 L 1008.46 1089.87 L 1008.25 1093.02 L 1008.05 1096.15 L 1007.85 1099.27 L 1007.65 1102.37 L 1007.53 1105.47 L 1007.38 1108.55 L 1007.24 1111.62 L 1007.08 1114.68 L 1006.93 1117.73 L 1006.77 1120.76 L 1006.61 1123.79 L 1006.43 1126.79 L 1006.21 1129.79 L 1005.96 1132.77 L 1005.69 1135.73 L 1005.37 1138.68 L 1005.03 1141.62 L 1004.68 1144.54 L 1004.32 1147.45 L 1004.01 1150.35 L 1003.74 1153.24 L 1003.48 1156.13 L 1003.37 1159.01 L 1003.31 1161.88 L 1003.25 1164.74 L 1003.22 1167.59 L 1003.12 1170.43 L 1002.95 1173.25 L 1002.80 1176.06 L 1002.69 1178.86 L 1002.54 1181.65 L 1002.36 1184.43 L 1002.22 1187.19 L 1002.22 1189.95 L 1002.22 1192.70 L 1002.23 1195.44 L 1002.20 1198.16 L 1002.18 1200.88 L 1002.18 1203.58 L 1002.15 1206.28 L 1002.16 1208.96 L 1002.20 1211.63 L 1002.24 1214.29 L 1002.28 1216.95" stroke="rgb(205,165,255)" stroke-opacity="0.714" stroke-width="1.22" />
  <path d="M 1014.86 1065.42 L 1013.91 1068.54 L 1012.96 1071.63 L 1012.09 1074.74 L 1011.27 1077.85 L 1010.42 1080.94 L 1009.61 1084.02 L 1008.85 1087.10 L 1007.98 1090.15 L 1007.11 1093.17 L 1006.18 1096.17 L 1005.21 1099.14 L 1004.20 1102.08 L 1003.11 1104.99 L 1002.00 1107.87 L 1000.87 1110.73 L 999.69 1113.56 L 998.57 1116.40 L 997.42 1119.21 L 996.28 1122.01 L 995.10 1124.79 L 993.94 1127.56 L 992.70 1130.28 L 991.48 1132.99 L 990.23 1135.68 L 988.95 1138.35 L 987.67 1141.00 L 986.40 1143.64 L 985.21 1146.30 L 984.09 1148.99 L 982.90 1151.63 L 981.72 1154.26 L 980.56 1156.89 L 979.39 1159.50 L 978.22 1162.10 L 977.07 1164.70 L 975.89 1167.27 L 974.73 1169.83 L 973.51 1172.36 L 972.31 1174.88 L 971.08 1177.37 L 969.85 1179.86 L 968.59 1182.31 L 967.37 1184.78 L 966.07 1187.19 L 964.79 1189.59 L 963.48 1191.98 L 962.22 1194.37 L 960.88 1196.71 L 959.55 1199.04 L 958.24 1201.37 L 956.93 1203.68 L 955.60 1205.98 L 954.25 1208.25 L 952.94 1210.53 L 951.58 1212.77 L 950.16 1214.96 L 948.76 1217.15 L 947.31 1219.30 L 945.85 1221.42 L 944.42 1223.56 L 942.96 1225.65 L 941.46 1227.71 L 939.95 1229.75 L 938.42 1231.76 L 936.95 1233.81 L 935.42 1235.79" stroke="rgb(205,165,255)" stroke-opacity="0.713" stroke-width="1.22" />
  <path d="M 996.32 1003.47 L 993.87 1001.37 L 991.44 999.26 L 989.01 997.18 L 986.57 995.12 L 984.17 993.05 L 981.76 990.99 L 979.33 988.99 L 976.92 986.97 L 974.57 984.91 L 972.18 982.92 L 969.83 980.89 L 967.48 978.88 L 965.12 976.91 L 962.74 974.99 L 960.31 973.13 L 957.89 971.29 L 955.51 969.43 L 953.11 967.60 L 950.72 965.77 L 948.39 963.90 L 946.11 961.99 L 943.81 960.11 L 941.54 958.21" stroke="rgb(205,165,255)" stroke-opacity="0.710" stroke-width="1.21" />
  <path d="M 998.39 999.81 L 996.91 1002.69 L 995.45 1005.56 L 994.11 1008.48 L 992.82 1011.40 L 991.42 1014.27 L 989.99 1017.10 L 988.54 1019.90 L 987.10 1022.70 L 985.70 1025.50 L 984.24 1028.26 L 982.77 1031.00 L 981.35 1033.76 L 979.96 1036.51 L 978.58 1039.25 L 977.13 1041.95 L 975.67 1044.62 L 974.23 1047.29 L 972.83 1049.97 L 971.41 1052.63 L 969.96 1055.25 L 968.45 1057.83 L 966.94 1060.39 L 965.38 1062.91 L 963.89 1065.46 L 962.46 1068.03 L 960.97 1070.55 L 959.45 1073.03 L 957.89 1075.49 L 956.37 1077.95 L 954.85 1080.39 L 953.35 1082.84 L 951.86 1085.28 L 950.35 1087.69 L 948.79 1090.06 L 947.24 1092.42 L 945.67 1094.76 L 944.10 1097.07 L 942.52 1099.38 L 940.94 1101.66 L 939.37 1103.94 L 937.77 1106.18 L 936.14 1108.39 L 934.50 1110.58 L 932.85 1112.75 L 931.23 1114.93 L 929.60 1117.08 L 927.99 1119.24 L 926.34 1121.35 L 924.71 1123.46 L 923.07 1125.56 L 921.42 1127.63 L 919.80 1129.71 L 918.14 1131.75 L 916.50 1133.79 L 914.85 1135.81" stroke="rgb(205,165,255)" stroke-opacity="0.707" stroke-width="1.21" />
  <path d="M 1000.13 999.73 L 1003.51 1000.59 L 1006.86 1001.48 L 1010.20 1002.36 L 1013.52 1003.24 L 1016.82 1004.16 L 1020.09 1005.12 L 1023.37 1006.04 L 1026.62 1006.99 L 1029.84 1007.96 L 1033.05 1008.95 L 1036.25 1009.94 L 1039.41 1010.97 L 1042.58 1011.96 L 1045.73 1012.95 L 1048.88 1013.92 L 1052.02 1014.84 L 1055.16 1015.74 L 1058.28 1016.63 L 1061.37 1017.61 L 1064.44 1018.61 L 1067.48 1019.64 L 1070.50 1020.70 L 1073.50 1021.77 L 1076.45 1022.93 L 1079.41 1024.07 L 1082.35 1025.19 L 1085.27 1026.33 L 1088.18 1027.46 L 1091.07 1028.61 L 1093.93 1029.81 L 1096.79 1030.96 L 1099.63 1032.15 L 1102.46 1033.32 L 1105.28 1034.47 L 1108.08 1035.65" stroke="rgb(140,255,190)" stroke-opacity="0.742" stroke-width="1.20" />
  <path d="M 1000.16 1000.78 L 1002.13 1003.32 L 1004.15 1005.79 L 1006.16 1008.26 L 1008.22 1010.67 L 1010.36 1012.99 L 1012.43 1015.35 L 1014.48 1017.72 L 1016.46 1020.13 L 1018.46 1022.50 L 1020.48 1024.86 L 1022.52 1027.16 L 1024.52 1029.49 L 1026.51 1031.81 L 1028.50 1034.11 L 1030.47 1036.42 L 1032.38 1038.76 L 1034.34 1041.04 L 1036.27 1043.33 L 1038.24 1045.57 L 1040.22 1047.79 L 1042.27 1049.93 L 1044.29 1052.07 L 1046.31 1054.21 L 1048.31 1056.34 L 1050.26 1058.51 L 1052.17 1060.69 L 1054.06 1062.88 L 1055.91 1065.08 L 1057.73 1067.29 L 1059.54 1069.50 L 1061.32 1071.73" stroke="rgb(205,165,255)" stroke-opacity="0.704" stroke-width="1.20" />
  <path d="M 1014.17 1059.47 L 1015.90 1062.21 L 1017.69 1064.91 L 1019.53 1067.55 L 1021.39 1070.17 L 1023.35 1072.70 L 1025.31 1075.21 L 1027.19 1077.76 L 1029.11 1080.27 L 1030.95 1082.82 L 1032.83 1085.33 L 1034.63 1087.88 L 1036.44 1090.41 L 1038.23 1092.93 L 1039.95 1095.49 L 1041.64 1098.06 L 1043.34 1100.60 L 1044.99 1103.16 L 1046.69 1105.67 L 1048.37 1108.19 L 1050.03 1110.70 L 1051.74 1113.16 L 1053.46 1115.60 L 1055.15 1118.05 L 1056.73 1120.55 L 1058.36 1123.02 L 1059.96 1125.48 L 1061.50 1127.97 L 1062.99 1130.48 L 1064.49 1132.96 L 1066.04 1135.40 L 1067.64 1137.80 L 1069.21 1140.20 L 1070.78 1142.59 L 1072.32 1144.98 L 1073.85 1147.37 L 1075.45 1149.69 L 1077.09 1151.98 L 1078.74 1154.24" stroke="rgb(205,165,255)" stroke-opacity="0.704" stroke-width="1.20" />
  <path d="M 1044.63 1011.23 L 1047.76 1012.69 L 1050.88 1014.14 L 1054.00 1015.54 L 1057.11 1016.95 L 1060.17 1018.42 L 1063.22 1019.89 L 1066.27 1021.31 L 1069.33 1022.70 L 1072.32 1024.20 L 1075.34 1025.59 L 1078.35 1026.98 L 1081.36 1028.35 L 1084.37 1029.68 L 1087.34 1031.04 L 1090.29 1032.45 L 1093.22 1033.85 L 1096.13 1035.27 L 1099.00 1036.73 L 1101.86 1038.20 L 1104.70 1039.68 L 1107.54 1041.11 L 1110.36 1042.57 L 1113.15 1044.05 L 1115.92 1045.55 L 1118.68 1047.03 L 1121.43 1048.51 L 1124.17 1049.99 L 1126.88 1051.48 L 1129.58 1052.99 L 1132.26 1054.49 L 1134.95 1055.94 L 1137.63 1057.40 L 1140.28 1058.89 L 1142.91 1060.38 L 1145.56 1061.81 L 1148.19 1063.26 L 1150.82 1064.67 L 1153.43 1066.09 L 1156.03 1067.52 L 1158.66 1068.86 L 1161.29 1070.18" stroke="rgb(140,255,190)" stroke-opacity="0.741" stroke-width="1.20" />
  <path d="M 872.55 1087.26 L 871.45 1090.15 L 870.46 1093.06 L 869.61 1096.01 L 868.84 1098.96 L 868.11 1101.92 L 867.47 1104.88 L 866.81 1107.82 L 866.12 1110.75 L 865.47 1113.67 L 864.72 1116.55 L 864.09 1119.46 L 863.46 1122.35 L 862.75 1125.21 L 861.89 1128.01 L 861.03 1130.80 L 860.32 1133.63 L 859.68 1136.45 L 859.12 1139.29 L 858.54 1142.10 L 858.00 1144.92 L 857.52 1147.73 L 857.00 1150.52 L 856.56 1153.32 L 856.11 1156.10 L 855.65 1158.87 L 855.15 1161.62 L 854.68 1164.37 L 854.14 1167.09 L 853.71 1169.82 L 853.30 1172.54 L 852.87 1175.25 L 852.32 1177.92 L 851.83 1180.59 L 851.32 1183.25 L 850.92 1185.92 L 850.52 1188.58 L 850.08 1191.22 L 849.57 1193.83 L 849.05 1196.44 L 848.69 1199.05 L 848.28 1201.66 L 847.95 1204.26 L 847.58 1206.84 L 847.22 1209.42 L 846.96 1212.00 L 846.78 1214.57 L 846.63 1217.14 L 846.52 1219.70 L 846.43 1222.25 L 846.23 1224.78 L 845.97 1227.29 L 845.68 1229.80 L 845.39 1232.29 L 845.14 1234.78 L 844.95 1237.26 L 844.68 1239.72 L 844.33 1242.17 L 843.90 1244.59 L 843.42 1246.99 L 843.05 1249.40 L 842.65 1251.80 L 842.21 1254.18" stroke="rgb(205,165,255)" stroke-opacity="0.490" stroke-width="1.19" />
  <path d="M 1002.99 1000.99 L 1006.34 1001.64 L 1009.70 1002.22 L 1013.03 1002.84 L 1016.35 1003.48 L 1019.67 1004.01 L 1022.98 1004.57 L 1026.27 1005.13 L 1029.55 1005.68 L 1032.82 1006.20 L 1036.08 1006.70 L 1039.32 1007.21 L 1042.56 1007.70 L 1045.78 1008.15 L 1049.00 1008.59 L 1052.21 1009.00 L 1055.41 1009.37 L 1058.59 1009.74 L 1061.76 1010.12 L 1064.92 1010.52 L 1068.07 1010.86 L 1071.21 1011.20 L 1074.33 1011.56 L 1077.44 1011.94 L 1080.53 1012.33 L 1083.61 1012.71 L 1086.68 1013.12 L 1089.73 1013.57" stroke="rgb(140,255,190)" stroke-opacity="0.736" stroke-width="1.18" />
  <path d="M 1001.08 997.97 L 1004.33 998.91 L 1007.57 999.86 L 1010.78 1000.85 L 1013.96 1001.87 L 1017.15 1002.83 L 1020.34 1003.77 L 1023.52 1004.66 L 1026.66 1005.64 L 1029.81 1006.56 L 1032.94 1007.49 L 1036.05 1008.43 L 1039.15 1009.37 L 1042.25 1010.26 L 1045.36 1011.10 L 1048.46 1011.89 L 1051.56 1012.64 L 1054.64 1013.40 L 1057.71 1014.17 L 1060.77 1014.90 L 1063.82 1015.62 L 1066.87 1016.30 L 1069.91 1016.98 L 1072.92 1017.72 L 1075.91 1018.49 L 1078.88 1019.27 L 1081.85 1020.05 L 1084.79 1020.84 L 1087.73 1021.63 L 1090.65 1022.43 L 1093.55 1023.23 L 1096.45 1024.00 L 1099.34 1024.78 L 1102.22 1025.53 L 1105.09 1026.30 L 1107.94 1027.05 L 1110.78 1027.85 L 1113.60 1028.65 L 1116.40 1029.47 L 1119.19 1030.29 L 1121.96 1031.11 L 1124.74 1031.90 L 1127.48 1032.74 L 1130.22 1033.59 L 1132.93 1034.44 L 1135.66 1035.25 L 1138.35 1036.12 L 1141.02 1036.99 L 1143.69 1037.87 L 1146.35 1038.72 L 1148.99 1039.59 L 1151.61 1040.48 L 1154.23 1041.35 L 1156.85 1042.20 L 1159.44 1043.08 L 1162.04 1043.91 L 1164.61 1044.78 L 1167.16 1045.66 L 1169.72 1046.53 L 1172.25 1047.42 L 1174.78 1048.28 L 1177.30 1049.13 L 1179.83 1049.94 L 1182.33 1050.76 L 1184.85 1051.54 L 1187.34 1052.33 L 1189.83 1053.12 L 1192.30 1053.92 L 1194.77 1054.70" stroke="rgb(140,255,190)" stroke-opacity="0.734" stroke-width="1.18" />
  <path d="M 1002.10 1002.48 L 1005.55 1002.94 L 1008.99 1003.41 L 1012.42 1003.83 L 1015.83 1004.28 L 1019.24 1004.69 L 1022.63 1005.06 L 1026.01 1005.45 L 1029.38 1005.80 L 1032.74 1006.15 L 1036.07 1006.57 L 1039.40 1006.94 L 1042.71 1007.34 L 1046.00 1007.84 L 1049.26 1008.35 L 1052.51 1008.89 L 1055.75 1009.45 L 1058.97 1009.99 L 1062.18 1010.49 L 1065.38 1011.03 L 1068.57 1011.57 L 1071.74 1012.09 L 1074.90 1012.60 L 1078.05 1013.12 L 1081.19 1013.63 L 1084.31 1014.15 L 1087.43 1014.61 L 1090.53 1015.08 L 1093.61 1015.61 L 1096.68 1016.14 L 1099.74 1016.66 L 1102.79 1017.19 L 1105.82 1017.68 L 1108.84 1018.20 L 1111.86 1018.69 L 1114.86 1019.19 L 1117.85 1019.66 L 1120.82 1020.15 L 1123.80 1020.60" stroke="rgb(140,255,190)" stroke-opacity="0.734" stroke-width="1.18" />
  <path d="M 1132.38 1089.02 L 1135.63 1090.12 L 1138.86 1091.23 L 1142.07 1092.35 L 1145.29 1093.40 L 1148.50 1094.43 L 1151.68 1095.50 L 1154.85 1096.60 L 1157.97 1097.75 L 1161.07 1098.95 L 1164.16 1100.12 L 1167.23 1101.33 L 1170.29 1102.50 L 1173.34 1103.67 L 1176.41 1104.76 L 1179.46 1105.84 L 1182.49 1106.94 L 1185.52 1108.02 L 1188.53 1109.12 L 1191.48 1110.33 L 1194.41 1111.56 L 1197.33 1112.77 L 1200.26 1113.95 L 1203.20 1115.04 L 1206.15 1116.07 L 1209.07 1117.14 L 1212.00 1118.17 L 1214.93 1119.15 L 1217.85 1120.11 L 1220.78 1121.02 L 1223.71 1121.87 L 1226.64 1122.66 L 1229.56 1123.46 L 1232.47 1124.25 L 1235.36 1125.07 L 1238.23 1125.90" stroke="rgb(140,255,190)" stroke-opacity="0.731" stroke-width="1.17" />
  <path d="M 997.54 999.71 L 998.21 1002.71 L 998.82 1005.72 L 999.39 1008.72 L 1000.11 1011.67 L 1000.75 1014.63 L 1001.45 1017.56 L 1002.26 1020.45 L 1003.11 1023.32 L 1003.90 1026.19 L 1004.76 1029.03 L 1005.65 1031.85 L 1006.54 1034.66 L 1007.44 1037.45 L 1008.39 1040.20 L 1009.32 1042.96 L 1010.19 1045.72 L 1011.01 1048.49 L 1011.87 1051.23 L 1012.70 1053.97 L 1013.48 1056.71 L 1014.17 1059.47 L 1014.87 1062.21 L 1015.48 1064.95 L 1016.08 1067.70 L 1016.67 1070.43 L 1017.33 1073.13 L 1018.03 1075.81 L 1018.67 1078.50 L 1019.34 1081.16 L 1020.02 1083.82 L 1020.76 1086.44 L 1021.45 1089.07 L 1022.07 1091.70 L 1022.67 1094.33 L 1023.22 1096.96 L 1023.72 1099.58 L 1024.23 1102.20 L 1024.76 1104.80 L 1025.36 1107.37 L 1025.97 1109.93 L 1026.57 1112.48 L 1027.17 1115.02 L 1027.75 1117.55 L 1028.33 1120.07 L 1028.76 1122.62 L 1029.32 1125.12 L 1029.97 1127.60 L 1030.64 1130.06 L 1031.20 1132.53 L 1031.74 1135.00 L 1032.16 1137.48 L 1032.58 1139.96 L 1032.99 1142.42 L 1033.30 1144.89 L 1033.64 1147.34 L 1033.98 1149.78 L 1034.28 1152.22 L 1034.47 1154.66" stroke="rgb(205,165,255)" stroke-opacity="0.486" stroke-width="1.17" />
  <path d="M 1000.09 1001.14 L 1003.34 1002.19 L 1006.57 1003.26 L 1009.78 1004.33 L 1012.98 1005.40 L 1016.19 1006.40 L 1019.39 1007.37 L 1022.58 1008.33 L 1025.77 1009.28 L 1028.93 1010.25 L 1032.08 1011.21 L 1035.23 1012.14 L 1038.35 1013.10 L 1041.47 1014.03 L 1044.57 1014.96 L 1047.65 1015.94 L 1050.70 1016.95 L 1053.74 1017.95 L 1056.77 1018.95 L 1059.79 1019.94 L 1062.80 1020.90 L 1065.80 1021.88 L 1068.81 1022.76 L 1071.81 1023.66 L 1074.77 1024.60 L 1077.72 1025.57 L 1080.64 1026.57 L 1083.57 1027.51 L 1086.49 1028.44 L 1089.40 1029.38 L 1092.26 1030.39 L 1095.10 1031.44 L 1097.92 1032.52 L 1100.71 1033.64 L 1103.50 1034.71 L 1106.25 1035.84 L 1109.00 1036.98 L 1111.72 1038.12 L 1114.45 1039.22 L 1117.17 1040.31 L 1119.90 1041.36 L 1122.61 1042.41 L 1125.32 1043.45 L 1128.01 1044.48 L 1130.69 1045.51 L 1133.33 1046.63 L 1135.96 1047.72 L 1138.59 1048.81 L 1141.21 1049.86 L 1143.81 1050.94 L 1146.41 1052.01 L 1148.98 1053.10 L 1151.54 1054.19 L 1154.08 1055.30 L 1156.63 1056.36 L 1159.17 1057.43 L 1161.72 1058.42 L 1164.26 1059.42 L 1166.78 1060.42 L 1169.29 1061.43 L 1171.78 1062.46 L 1174.26 1063.49 L 1176.73 1064.53 L 1179.19 1065.53 L 1181.66 1066.52 L 1184.09 1067.56 L 1186.50 1068.59 L 1188.95 1069.54 L 1191.36 1070.53 L 1193.76 1071.54 L 1196.17 1072.50 L 1198.56 1073.46 L 1200.95 1074.40 L 1203.33 1075.33 L 1205.73 1076.20 L 1208.12 1077.06 L 1210.50 1077.90 L 1212.87 1078.75 L 1215.23 1079.60 L 1217.56 1080.51 L 1219.89 1081.38 L 1222.21 1082.24 L 1224.53 1083.09 L 1226.84 1083.92 L 1229.14 1084.77 L 1231.44 1085.58 L 1233.72 1086.42 L 1235.99 1087.24 L 1238.25 1088.08 L 1240.50 1088.92 L 1242.74 1089.74 L 1244.99 1090.51 L 1247.24 1091.27" stroke="rgb(140,255,190)" stroke-opacity="0.730" stroke-width="1.17" />
  <path d="M 1053.78 1015.62 L 1056.41 1017.80 L 1059.01 1019.98 L 1061.61 1022.15 L 1064.18 1024.34 L 1066.69 1026.57 L 1069.23 1028.75 L 1071.78 1030.90 L 1074.33 1033.02 L 1076.86 1035.14 L 1079.41 1037.23 L 1081.98 1039.26 L 1084.57 1041.26 L 1087.20 1043.17 L 1089.82 1045.08 L 1092.45 1046.94 L 1095.09 1048.77 L 1097.75 1050.55" stroke="rgb(140,255,190)" stroke-opacity="0.729" stroke-width="1.17" />
  <path d="M 1110.64 1013.45 L 1112.72 1012.37 L 1114.85 1011.42 L 1116.97 1010.48 L 1119.13 1009.66 L 1121.34 1009.04 L 1123.59 1008.56 L 1125.81 1008.04 L 1128.01 1007.46 L 1130.22 1006.96 L 1132.39 1006.32 L 1134.53 1005.65 L 1136.65 1004.94 L 1138.80 1004.34 L 1140.95 1003.78 L 1143.06 1003.12 L 1145.15 1002.42 L 1147.22 1001.68 L 1149.30 1001.02 L 1151.40 1000.43 L 1153.51 999.95 L 1155.64 999.57 L 1157.78 999.35 L 1159.91 999.12 L 1162.02 998.85 L 1164.15 998.78 L 1166.26 998.93 L 1168.36 999.03 L 1170.46 999.01 L 1172.55 998.90 L 1174.62 998.68 L 1176.69 998.52 L 1178.76 998.43 L 1180.81 998.33 L 1182.86 998.18 L 1184.88 997.88 L 1186.90 997.68 L 1188.92 997.51 L 1190.93 997.33 L 1192.91 996.99 L 1194.86 996.57 L 1196.79 996.05 L 1198.71 995.56 L 1200.65 995.15 L 1202.52 994.54 L 1204.37 993.89 L 1206.21 993.24 L 1207.99 992.43 L 1209.84 991.86 L 1211.67 991.27 L 1213.49 990.64 L 1215.28 989.95 L 1217.03 989.21" stroke="rgb(140,255,190)" stroke-opacity="0.547" stroke-width="1.17" />
  <path d="M 1003.58 1002.46 L 1006.79 1003.37 L 1009.99 1004.28 L 1013.17 1005.22 L 1016.34 1006.16 L 1019.52 1007.03 L 1022.67 1007.91 L 1025.83 1008.74 L 1028.98 1009.54 L 1032.09 1010.42 L 1035.21 1011.24 L 1038.32 1012.04 L 1041.43 1012.81 L 1044.52 1013.56 L 1047.62 1014.27 L 1050.70 1014.95 L 1053.78 1015.62 L 1056.84 1016.28 L 1059.89 1016.97 L 1062.92 1017.67 L 1065.93 1018.42 L 1068.91 1019.19 L 1071.88 1019.99 L 1074.82 1020.84 L 1077.75 1021.70 L 1080.66 1022.54 L 1083.56 1023.41 L 1086.44 1024.30 L 1089.29 1025.24 L 1092.14 1026.13 L 1094.96 1027.09 L 1097.76 1028.06 L 1100.54 1029.06 L 1103.31 1030.03" stroke="rgb(140,255,190)" stroke-opacity="0.728" stroke-width="1.16" />
  <path d="M 1002.24 1001.82 L 1005.36 1002.77 L 1008.47 1003.72 L 1011.56 1004.70 L 1014.63 1005.68 L 1017.71 1006.60 L 1020.79 1007.48 L 1023.87 1008.31 L 1026.97 1008.99 L 1030.05 1009.70 L 1033.15 1010.27 L 1036.25 1010.77 L 1039.34 1011.22 L 1042.42 1011.61 L 1045.51 1011.90 L 1048.59 1012.13 L 1051.66 1012.32 L 1054.72 1012.50 L 1057.76 1012.72 L 1060.79 1012.88 L 1063.81 1013.07 L 1066.82 1013.28 L 1069.81 1013.48 L 1072.80 1013.61" stroke="rgb(140,255,190)" stroke-opacity="0.728" stroke-width="1.16" />
  <path d="M 999.81 1001.55 L 1003.00 1002.54 L 1006.20 1003.44 L 1009.40 1004.29 L 1012.57 1005.17 L 1015.75 1006.00 L 1018.91 1006.86 L 1022.05 1007.70 L 1025.19 1008.55 L 1028.28 1009.49 L 1031.34 1010.49 L 1034.36 1011.57 L 1037.37 1012.63 L 1040.36 1013.71 L 1043.36 1014.74 L 1046.35 1015.75 L 1049.32 1016.77 L 1052.29 1017.77 L 1055.23 1018.79 L 1058.20 1019.72 L 1061.13 1020.70 L 1064.05 1021.67 L 1066.96 1022.64 L 1069.88 1023.56 L 1072.79 1024.45 L 1075.69 1025.34 L 1078.56 1026.25 L 1081.43 1027.17 L 1084.29 1028.06 L 1087.13 1028.96 L 1089.96 1029.87 L 1092.80 1030.71 L 1095.63 1031.52 L 1098.46 1032.29 L 1101.28 1033.08 L 1104.09 1033.85 L 1106.89 1034.60 L 1109.68 1035.36 L 1112.46 1036.11 L 1115.22 1036.88 L 1117.99 1037.57 L 1120.74 1038.27 L 1123.49 1038.95 L 1126.23 1039.63 L 1128.96 1040.29 L 1131.68 1040.95 L 1134.39 1041.61 L 1137.07 1042.30 L 1139.75 1042.98" stroke="rgb(140,255,190)" stroke-opacity="0.727" stroke-width="1.16" />
  <path d="M 1000.15 1002.67 L 1003.42 1003.24 L 1006.67 1003.86 L 1009.90 1004.53 L 1013.12 1005.14 L 1016.33 1005.73 L 1019.53 1006.34 L 1022.72 1006.90 L 1025.89 1007.51 L 1029.04 1008.17 L 1032.19 1008.78 L 1035.32 1009.35 L 1038.45 1009.94 L 1041.54 1010.61 L 1044.63 1011.23 L 1047.71 1011.84 L 1050.77 1012.47 L 1053.81 1013.15 L 1056.82 1013.90 L 1059.82 1014.64 L 1062.81 1015.36 L 1065.80 1016.05 L 1068.76 1016.79 L 1071.71 1017.53 L 1074.66 1018.22 L 1077.59 1018.91 L 1080.53 1019.53 L 1083.46 1020.16 L 1086.38 1020.77 L 1089.27 1021.41 L 1092.17 1021.99 L 1095.06 1022.56 L 1097.94 1023.10 L 1100.82 1023.60 L 1103.68 1024.16 L 1106.52 1024.70" stroke="rgb(140,255,190)" stroke-opacity="0.727" stroke-width="1.16" />
  <path d="M 1001.73 1001.99 L 1003.99 1002.80 L 1006.29 1003.47 L 1008.56 1004.19 L 1010.85 1004.84 L 1013.13 1005.47 L 1015.44 1005.94 L 1017.73 1006.45 L 1020.00 1007.00 L 1022.27 1007.53 L 1024.49 1008.18 L 1026.71 1008.83 L 1028.96 1009.32 L 1031.19 1009.82 L 1033.41 1010.35 L 1035.62 1010.87 L 1037.82 1011.43 L 1040.02 1011.90 L 1042.22 1012.35 L 1044.44 1012.65 L 1046.65 1012.88 L 1048.87 1012.97 L 1051.08 1013.10 L 1053.27 1013.26 L 1055.45 1013.51 L 1057.62 1013.76 L 1059.78 1014.03" stroke="rgb(140,255,190)" stroke-opacity="0.545" stroke-width="1.16" />
  <path d="M 1040.59 1021.34 L 1043.84 1020.59 L 1047.07 1019.77 L 1050.28 1018.94 L 1053.46 1018.05 L 1056.62 1017.16 L 1059.78 1016.29 L 1062.93 1015.43 L 1066.06 1014.57 L 1069.20 1013.78" stroke="rgb(140,255,190)" stroke-opacity="0.727" stroke-width="1.16" />
  <path d="M 1062.18 1010.49 L 1064.86 1012.50 L 1067.52 1014.52 L 1070.13 1016.57 L 1072.78 1018.56 L 1075.44 1020.50 L 1078.15 1022.35 L 1080.82 1024.24 L 1083.48 1026.11 L 1086.14 1027.97 L 1088.81 1029.79 L 1091.48 1031.59 L 1094.12 1033.41 L 1096.72 1035.24 L 1099.28 1037.14 L 1101.84 1038.99 L 1104.39 1040.85 L 1106.93 1042.69 L 1109.49 1044.50 L 1112.07 1046.24 L 1114.63 1048.00 L 1117.15 1049.78 L 1119.71 1051.49 L 1122.24 1053.23 L 1124.74 1054.99 L 1127.24 1056.71 L 1129.72 1058.45 L 1132.16 1060.23 L 1134.62 1061.96 L 1137.05 1063.71 L 1139.51 1065.38 L 1141.98 1067.04 L 1144.37 1068.77 L 1146.73 1070.54 L 1149.08 1072.30 L 1151.42 1074.05 L 1153.77 1075.76 L 1156.06 1077.53 L 1158.36 1079.28 L 1160.61 1081.07 L 1162.91 1082.78 L 1165.23 1084.44 L 1167.53 1086.11 L 1169.81 1087.79 L 1172.06 1089.48 L 1174.27 1091.21 L 1176.49 1092.91 L 1178.70 1094.61 L 1180.92 1096.27 L 1183.12 1097.95 L 1185.27 1099.65 L 1187.42 1101.36 L 1189.55 1103.07 L 1191.66 1104.78 L 1193.73 1106.53" stroke="rgb(140,255,190)" stroke-opacity="0.726" stroke-width="1.16" />
  <path d="M 1081.05 977.49 L 1084.06 978.68 L 1087.07 979.82 L 1090.08 980.93 L 1093.09 982.00 L 1096.04 983.20 L 1098.95 984.46 L 1101.85 985.69 L 1104.74 986.95 L 1107.57 988.28 L 1110.41 989.59 L 1113.23 990.90 L 1116.02 992.22 L 1118.81 993.53 L 1121.57 994.89 L 1124.33 996.20 L 1127.11 997.44 L 1129.91 998.63 L 1132.69 999.80 L 1135.44 1001.02 L 1138.12 1002.35 L 1140.75 1003.77 L 1143.34 1005.23 L 1145.84 1006.82 L 1148.31 1008.43 L 1150.89 1009.84 L 1153.43 1011.29 L 1155.92 1012.81 L 1158.40 1014.31 L 1160.98 1015.63 L 1163.55 1016.92 L 1166.12 1018.19 L 1168.70 1019.42 L 1171.27 1020.65 L 1173.83 1021.86 L 1176.36 1023.12 L 1178.87 1024.37 L 1181.33 1025.71 L 1183.81 1027.00 L 1186.32 1028.19 L 1188.84 1029.33 L 1191.31 1030.55" stroke="rgb(140,255,190)" stroke-opacity="0.726" stroke-width="1.16" />
  <path d="M 1109.81 978.08 L 1112.99 979.02 L 1116.14 980.02 L 1119.29 981.00 L 1122.44 981.90 L 1125.58 982.80 L 1128.73 983.62 L 1131.85 984.49 L 1134.93 985.45 L 1137.98 986.45 L 1141.01 987.50 L 1143.99 988.62 L 1146.97 989.74 L 1149.91 990.90 L 1152.85 992.01 L 1155.75 993.23 L 1158.67 994.32 L 1161.62 995.32 L 1164.55 996.35 L 1167.45 997.39 L 1170.38 998.34 L 1173.29 999.29 L 1176.21 1000.19 L 1179.10 1001.12 L 1181.97 1002.07 L 1184.84 1003.00 L 1187.65 1004.05 L 1190.49 1005.01 L 1193.29 1006.02 L 1196.09 1006.98 L 1198.86 1008.01 L 1201.63 1009.02 L 1204.39 1009.99 L 1207.15 1010.94 L 1209.88 1011.95 L 1212.59 1012.96 L 1215.27 1014.03 L 1217.95 1015.08 L 1220.60 1016.15 L 1223.27 1017.16 L 1225.91 1018.19 L 1228.53 1019.25 L 1231.14 1020.32 L 1233.75 1021.34 L 1236.36 1022.32" stroke="rgb(140,255,190)" stroke-opacity="0.725" stroke-width="1.16" />
  <path d="M 1128.87 1085.54 L 1130.33 1087.49 L 1131.81 1089.41 L 1133.31 1091.30 L 1134.80 1093.18 L 1136.31 1095.04 L 1137.81 1096.89 L 1139.30 1098.75 L 1140.80 1100.58 L 1142.31 1102.39 L 1143.81 1104.19 L 1145.25 1106.04 L 1146.66 1107.89 L 1148.10 1109.70 L 1149.33 1111.66 L 1150.59 1113.58 L 1151.91 1115.46 L 1153.30 1117.26 L 1154.75 1119.02 L 1156.22 1120.74 L 1157.74 1122.40 L 1159.30 1124.02 L 1160.94 1125.54 L 1162.49 1127.14 L 1164.11 1128.66 L 1165.83 1130.04 L 1167.54 1131.42 L 1169.31 1132.73 L 1171.02 1134.09 L 1172.84 1135.27 L 1174.67 1136.42 L 1176.45 1137.65 L 1178.26 1138.81 L 1180.05 1139.98 L 1181.84 1141.14 L 1183.59 1142.35 L 1185.27 1143.62 L 1186.96 1144.88 L 1188.68 1146.09 L 1190.48 1147.15 L 1192.30 1148.15 L 1194.14 1149.10 L 1196.00 1150.00 L 1197.84 1150.91 L 1199.76 1151.62 L 1201.68 1152.33 L 1203.59 1153.00 L 1205.49 1153.71 L 1207.34 1154.50 L 1209.23 1155.19 L 1211.13 1155.81 L 1213.04 1156.37 L 1214.94 1156.94 L 1216.83 1157.53" stroke="rgb(140,255,190)" stroke-opacity="0.543" stroke-width="1.16" />
  <path d="M 999.34 1000.23 L 1002.47 1000.90 L 1005.60 1001.54 L 1008.71 1002.20 L 1011.80 1002.88 L 1014.89 1003.50 L 1017.98 1004.08 L 1021.04 1004.72 L 1024.09 1005.39 L 1027.13 1006.00 L 1030.15 1006.63 L 1033.17 1007.23 L 1036.17 1007.86 L 1039.19 1008.34 L 1042.19 1008.81 L 1045.19 1009.23 L 1048.18 1009.64 L 1051.17 1009.99 L 1054.14 1010.29 L 1057.11 1010.62 L 1060.06 1010.88 L 1063.00 1011.21 L 1065.93 1011.54 L 1068.84 1011.92 L 1071.74 1012.27 L 1074.64 1012.54 L 1077.53 1012.73" stroke="rgb(140,255,190)" stroke-opacity="0.724" stroke-width="1.15" />
  <path d="M 995.48 1003.42 L 998.30 1001.77 L 1001.10 1000.11 L 1003.92 998.50 L 1006.71 996.88 L 1009.49 995.27 L 1012.27 993.67 L 1015.04 992.09 L 1017.78 990.48 L 1020.54 988.92 L 1023.26 987.33 L 1025.96 985.73 L 1028.68 984.18 L 1031.40 982.66 L 1034.15 981.23 L 1036.91 979.84 L 1039.64 978.42 L 1042.36 977.00 L 1045.04 975.54 L 1047.70 974.07 L 1050.34 972.57 L 1052.92 971.02 L 1055.49 969.47 L 1057.98 967.80 L 1060.46 966.15 L 1062.94 964.52 L 1065.39 962.86 L 1067.84 961.22 L 1070.26 959.56 L 1072.64 957.88 L 1075.02 956.20 L 1077.42 954.57 L 1079.83 952.98 L 1082.24 951.42 L 1084.62 949.82 L 1087.00 948.25 L 1089.39 946.71 L 1091.77 945.18 L 1094.14 943.66 L 1096.54 942.21 L 1098.93 940.75 L 1101.33 939.34 L 1103.72 937.93 L 1106.10 936.53 L 1108.46 935.12 L 1110.84 933.75 L 1113.23 932.44 L 1115.58 931.08 L 1117.97 929.80 L 1120.31 928.46 L 1122.65 927.15 L 1124.98 925.82 L 1127.28 924.49 L 1129.58 923.16 L 1131.82 921.76 L 1134.06 920.37 L 1136.26 918.96 L 1138.52 917.63 L 1140.78 916.36 L 1143.05 915.11 L 1145.36 913.95 L 1147.67 912.84 L 1149.98 911.72 L 1152.27 910.60 L 1154.54 909.47 L 1156.81 908.36 L 1159.09 907.28" stroke="rgb(140,255,190)" stroke-opacity="0.724" stroke-width="1.15" />
  <path d="M 1001.03 999.97 L 1004.14 1001.03 L 1007.24 1002.06 L 1010.36 1002.99 L 1013.46 1003.90 L 1016.57 1004.77 L 1019.68 1005.59 L 1022.77 1006.42 L 1025.85 1007.26 L 1028.91 1008.12" stroke="rgb(140,255,190)" stroke-opacity="0.722" stroke-width="1.15" />
  <path d="M 999.94 999.64 L 1003.05 1000.66 L 1006.15 1001.66 L 1009.26 1002.61 L 1012.34 1003.57 L 1015.42 1004.51 L 1018.49 1005.44 L 1021.55 1006.36" stroke="rgb(140,255,190)" stroke-opacity="0.722" stroke-width="1.15" />
  <path d="M 999.13 1001.33 L 996.38 1002.29 L 993.66 1003.29 L 990.96 1004.31 L 988.27 1005.32 L 985.61 1006.40 L 982.96 1007.44 L 980.35 1008.56 L 977.75 1009.70 L 975.16 1010.80 L 972.57 1011.89 L 970.00 1012.97 L 967.49 1014.18 L 964.98 1015.37 L 962.45 1016.48 L 959.93 1017.59 L 957.42 1018.68 L 954.89 1019.71 L 952.36 1020.69 L 949.83 1021.65 L 947.30 1022.60 L 944.77 1023.49 L 942.26 1024.42 L 939.75 1025.33 L 937.25 1026.21 L 934.73 1027.02 L 932.22 1027.82 L 929.72 1028.61 L 927.24 1029.43 L 924.80 1030.32 L 922.37 1031.21 L 919.92 1032.02 L 917.47 1032.81 L 915.03 1033.59 L 912.58 1034.29 L 910.11 1034.88" stroke="rgb(205,165,255)" stroke-opacity="0.480" stroke-width="1.15" />
  <path d="M 1029.95 1015.50 L 1033.17 1015.18 L 1036.38 1014.82 L 1039.58 1014.44 L 1042.77 1014.17 L 1045.95 1013.89 L 1049.11 1013.57 L 1052.27 1013.36 L 1055.41 1013.08 L 1058.54 1012.85 L 1061.66 1012.61 L 1064.77 1012.37 L 1067.86 1012.10 L 1070.93 1011.77 L 1073.98 1011.34 L 1077.02 1010.90 L 1080.03 1010.42 L 1083.03 1009.93 L 1086.02 1009.44 L 1089.02 1009.09 L 1092.00 1008.74 L 1094.98 1008.41 L 1097.94 1008.05 L 1100.89 1007.74 L 1103.83 1007.45 L 1106.76 1007.13 L 1109.68 1006.82 L 1112.59 1006.58 L 1115.49 1006.38 L 1118.38 1006.10 L 1121.25 1005.82 L 1124.11 1005.47 L 1126.95 1005.12 L 1129.79 1004.83 L 1132.62 1004.56 L 1135.43 1004.29 L 1138.23 1003.98 L 1141.02 1003.67 L 1143.80 1003.37 L 1146.55 1002.93 L 1149.29 1002.47 L 1152.01 1001.97 L 1154.72 1001.53 L 1157.43 1001.10" stroke="rgb(140,255,190)" stroke-opacity="0.722" stroke-width="1.15" />
  <path d="M 1158.32 989.17 L 1161.09 987.68 L 1163.78 986.09 L 1166.51 984.58 L 1169.16 982.97 L 1171.78 981.33 L 1174.47 979.83 L 1177.18 978.40 L 1179.93 977.06 L 1182.61 975.62 L 1185.23 974.11 L 1187.79 972.50 L 1190.33 970.89 L 1192.84 969.26 L 1195.32 967.61 L 1197.82 966.01 L 1200.38 964.52 L 1202.86 962.93 L 1205.30 961.30 L 1207.78 959.76" stroke="rgb(140,255,190)" stroke-opacity="0.721" stroke-width="1.15" />
  <path d="M 1047.70 974.07 L 1050.96 973.95 L 1054.21 973.85 L 1057.44 973.74 L 1060.66 973.67 L 1063.87 973.60 L 1067.06 973.48 L 1070.24 973.50 L 1073.41 973.46 L 1076.57 973.39 L 1079.72 973.43 L 1082.85 973.39 L 1085.97 973.48 L 1089.07 973.55 L 1092.17 973.65 L 1095.25 973.77 L 1098.31 973.94 L 1101.36 974.14 L 1104.41 974.30 L 1107.44 974.47 L 1110.45 974.70 L 1113.44 975.06 L 1116.41 975.39 L 1119.38 975.71 L 1122.33 976.09 L 1125.26 976.53 L 1128.17 977.03 L 1131.08 977.45 L 1133.97 977.88 L 1136.85 978.34 L 1139.72 978.76 L 1142.57 979.27 L 1145.40 979.77 L 1148.21 980.35 L 1151.01 980.92 L 1153.80 981.50 L 1156.58 982.04 L 1159.33 982.66 L 1162.07 983.28 L 1164.80 983.89 L 1167.56 984.33 L 1170.29 984.85 L 1173.00 985.38 L 1175.71 985.90 L 1178.40 986.44 L 1181.08 986.96 L 1183.76 987.47 L 1186.41 988.02 L 1189.05 988.61 L 1191.67 989.19" stroke="rgb(140,255,190)" stroke-opacity="0.719" stroke-width="1.14" />
  <path d="M 997.16 998.51 L 1000.29 999.37 L 1003.40 1000.28 L 1006.50 1001.16 L 1009.57 1002.08 L 1012.62 1003.04 L 1015.65 1004.02 L 1018.67 1004.97 L 1021.68 1005.94 L 1024.67 1006.90 L 1027.67 1007.82 L 1030.65 1008.74 L 1033.62 1009.65 L 1036.59 1010.51 L 1039.54 1011.42 L 1042.46 1012.35 L 1045.38 1013.28 L 1048.28 1014.21" stroke="rgb(140,255,190)" stroke-opacity="0.719" stroke-width="1.14" />
  <path d="M -0.08 722.79 L 3.26 723.89 L 5.68 724.59 L 8.90 725.26 L 11.44 726.41 L 14.48 727.15 L 16.96 728.21 L 20.19 728.78 L 22.99 729.37 L 26.42 730.04 L 29.20 731.22 L 31.97 731.94 L 35.00 732.40 L 37.77 733.56 L 40.57 733.87 L 43.19 734.84 L 46.30 735.50 L 49.17 736.79 L 52.13 737.21 L 54.83 738.12 L 57.90 738.81 L 60.66 739.89 L 63.30 740.73 L 66.51 741.60 L 69.48 742.48 L 72.41 742.90 L 75.05 743.53 L 77.89 744.68 L 80.92 745.95 L 83.89 746.27 L 86.68 747.14 L 89.62 748.17 L 92.08 748.38 L 95.47 749.36 L 98.17 750.40 L 101.09 751.16 L 103.99 752.00 L 107.03 752.62 L 110.05 753.57 L 112.63 754.11 L 115.75 754.69 L 118.47 755.93 L 121.76 756.63 L 124.41 757.18 L 127.09 758.36 L 130.05 759.15 L 133.04 759.83 L 136.01 760.62 L 138.62 762.13 L 141.77 762.30 L 144.48 763.07 L 147.44 763.96 L 150.44 764.70 L 152.98 765.84 L 156.52 765.88 L 159.22 766.85 L 161.68 767.92 L 164.88 768.96 L 167.66 769.70 L 170.61 770.48 L 173.12 770.90 L 176.53 771.52 L 179.42 772.80 L 182.02 773.96 L 185.10 774.33 L 187.60 774.98 L 191.06 775.94 L 193.96 776.82 L 196.68 777.23 L 199.48 778.22 L 202.38 779.01 L 205.07 779.99 L 208.39 780.68 L 211.30 781.42 L 213.61 781.90 L 216.67 782.92 L 219.59 783.97 L 222.32 785.37 L 225.58 785.85 L 228.09 786.40 L 231.16 787.00 L 233.91 788.13 L 237.28 788.89 L 240.17 789.53 L 243.06 790.51 L 245.64 790.93 L 248.57 792.32 L 251.38 792.98 L 254.21 793.25 L 257.57 794.33 L 260.53 795.12 L 262.99 796.22 L 265.78 796.74 L 269.41 797.23 L 272.16 798.47 L 274.84 799.13 L 277.36 800.05 L 280.61 801.04 L 283.66 801.55 L 286.56 802.34 L 288.76 802.81 L 292.07 803.68 L 295.06 804.77 L 297.34 805.45 L 301.20 806.45 L 303.12 807.02 L 306.47 807.93 L 309.39 808.99 L 312.06 809.50 L 315.17 810.74 L 317.85 811.05 L 321.11 812.15 L 323.98 813.28 L 326.85 813.48 L 329.77 814.70 L 332.49 815.35 L 335.36 815.98 L 338.87 816.74 L 341.00 817.58 L 344.11 818.25 L 347.03 819.51 L 349.87 820.50 L 352.71 820.61 L 355.42 821.60 L 358.17 822.00 L 360.89 822.97 L 364.09 823.74 L 367.48 824.72 L 369.94 825.69 L 373.53 826.33 L 376.16 827.09 L 378.98 828.21 L 381.54 828.66 L 384.75 829.79 L 387.59 830.19 L 390.37 831.41 L 392.77 831.77 L 395.69 832.68 L 398.87 833.52 L 401.62 834.14 L 405.10 834.98 L 407.62 836.02 L 410.10 836.83 L 413.47 837.70 L 416.50 838.68 L 418.93 839.22 L 422.38 840.15 L 425.23 840.90 L 427.84 841.53 L 430.81 842.06 L 433.64 843.38 L 436.50 844.27 L 439.19 844.85 L 442.65 845.07 L 445.27 846.41 L 447.75 847.04 L 450.82 848.04 L 453.73 848.66 L 457.21 849.37 L 459.99 850.26 L 462.77 851.09 L 465.96 851.92 L 468.64 852.62 L 470.74 853.37 L 474.41 854.27 L 476.73 855.53 L 479.93 855.96 L 483.12 856.66 L 485.69 857.45 L 488.40 858.62 L 491.20 859.19 L 494.30 860.25 L 497.28 860.56 L 500.31 862.15 L 503.12 862.60 L 505.99 863.71 L 509.07 863.98 L 511.49 864.77 L 513.95 865.72 L 517.37 866.35 L 520.34 867.66 L 523.31 868.10 L 526.40 868.39 L 529.02 870.05 L 532.25 869.95 L 535.33 871.52 L 537.54 871.92 L 540.77 872.80 L 543.69 873.48 L 545.98 874.46 L 549.07 874.83 L 551.83 875.91 L 554.99 876.75 L 558.15 877.47 L 560.97 878.52 L 564.16 878.80 L 566.66 879.96 L 569.72 880.53 L 572.02 881.80 L 575.27 882.32 L 578.66 883.08 L 581.01 884.12 L 584.14 884.62 L 587.04 885.45 L 589.60 886.36 L 592.86 886.89 L 595.54 888.08 L 598.47 888.85 L 601.18 889.47 L 604.11 890.98 L 606.99 891.38 L 610.03 891.98 L 612.71 892.94 L 615.85 893.52 L 618.93 894.56 L 621.49 895.41 L 624.70 895.94 L 627.06 896.88 L 630.07 897.79 L 633.16 898.36 L 636.38 899.46 L 638.94 900.37 L 641.97 900.71 L 644.15 901.79 L 647.64 902.45 L 650.29 902.90 L 653.25 903.91 L 656.27 904.97 L 659.35 905.51 L 662.31 906.53 L 665.46 907.17 L 668.06 908.08 L 671.11 908.95 L 673.68 909.44 L 676.43 910.73 L 679.32 911.19 L 682.20 911.96 L 685.26 912.81 L 688.47 913.72 L 691.25 914.47 L 693.87 914.98 L 697.02 916.05 L 699.40 916.88 L 702.63 917.53 L 705.17 918.50 L 708.31 919.14 L 711.23 920.05 L 714.19 920.85 L 716.86 921.71 L 720.09 922.74 L 722.40 923.48 L 725.82 924.28 L 728.72 924.75 L 731.59 925.67 L 734.39 926.43 L 737.10 927.19 L 740.25 927.90 L 742.78 928.70 L 745.51 929.83 L 748.57 930.34 L 752.00 931.17 L 754.48 931.98 L 757.78 932.80 L 760.23 933.74 L 763.70 934.49 L 766.15 935.02 L 768.82 936.15 L 772.24 937.32 L 774.76 937.27 L 777.65 938.35 L 780.63 939.32 L 783.74 940.39 L 786.43 940.94 L 789.65 941.94 L 792.36 942.61 L 795.02 943.30 L 797.97 943.91 L 801.34 944.65 L 803.82 945.53 L 806.83 946.81 L 809.31 947.20 L 812.39 947.95 L 815.53 948.57 L 818.43 949.75 L 821.18 950.16 L 823.89 951.12 L 827.04 951.82 L 829.45 952.55 L 832.68 953.83 L 835.49 954.21 L 838.22 955.10 L 841.30 956.44 L 844.40 956.69 L 847.31 957.87 L 849.82 958.59 L 852.80 959.21 L 855.83 959.66 L 858.79 960.56 L 861.19 961.61 L 864.50 962.38 L 867.57 963.22 L 870.30 963.82 L 873.00 965.23 L 875.95 966.00 L 879.12 966.30 L 882.02 967.01 L 884.59 967.98 L 887.86 968.99 L 890.37 969.48 L 893.23 970.47 L 896.29 971.13 L 899.39 972.39 L 902.18 972.48 L 904.67 973.47 L 907.58 974.79 L 910.50 975.24 L 913.78 976.41 L 916.78 977.06 L 919.52 977.61 L 922.46 978.53 L 924.90 979.32 L 927.94 979.87 L 930.97 981.05 L 933.34 981.55 L 936.66 982.49 L 939.50 983.23 L 942.16 984.28 L 945.74 984.93 L 948.35 986.19 L 950.94 986.43 L 954.38 987.74 L 956.88 988.12 L 959.90 989.13 L 962.90 989.52 L 966.30 990.97 L 968.80 991.12 L 971.63 992.11 L 974.25 992.92 L 977.74 993.34 L 980.31 994.63 L 983.15 995.34 L 985.69 996.24 L 988.58 997.19 L 991.58 997.37 L 994.37 998.96 L 997.21 999.59 L 1000.00 1000.00 L 1002.89 1000.79 L 1005.79 1001.58 L 1008.68 1002.36 L 1011.58 1003.15 L 1014.48 1003.92 L 1017.37 1004.70 L 1020.27 1005.49 L 1023.17 1006.26 L 1026.06 1007.05 L 1028.96 1007.83 L 1031.85 1008.62 L 1034.75 1009.40 L 1037.65 1010.18 L 1040.55 1010.95 L 1043.44 1011.73 L 1046.34 1012.52 L 1049.23 1013.30 L 1052.12 1014.11 L 1055.01 1014.91 L 1057.91 1015.71 L 1060.80 1016.51 L 1063.69 1017.32 L 1066.58 1018.13 L 1069.46 1018.94 L 1072.35 1019.74 L 1075.24 1020.55 L 1078.13 1021.36 L 1081.02 1022.16 L 1083.91 1022.96 L 1086.80 1023.77 L 1089.69 1024.59 L 1092.58 1025.40 L 1095.47 1026.21 L 1098.35 1027.02 L 1101.24 1027.83 L 1104.13 1028.64 L 1107.02 1029.44 L 1109.91 1030.24 L 1112.80 1031.05 L 1115.70 1031.85 L 1118.59 1032.64 L 1121.48 1033.44 L 1124.37 1034.24 L 1127.27 1035.03 L 1130.16 1035.83 L 1133.05 1036.64 L 1135.94 1037.43 L 1138.83 1038.23 L 1141.72 1039.03 L 1144.61 1039.83 L 1147.50 1040.64 L 1150.39 1041.45 L 1153.28 1042.26 L 1156.17 1043.07 L 1159.05 1043.89 L 1161.94 1044.70 L 1164.83 1045.52 L 1167.71 1046.34 L 1170.60 1047.16 L 1173.48 1047.98 L 1176.37 1048.80 L 1179.26 1049.61 L 1182.15 1050.41 L 1185.04 1051.21 L 1187.94 1052.00 L 1190.83 1052.79 L 1193.72 1053.58 L 1196.62 1054.38 L 1199.51 1055.17 L 1202.40 1055.96 L 1205.30 1056.76 L 1208.19 1057.54 L 1211.09 1058.34 L 1213.98 1059.13 L 1216.87 1059.92 L 1219.77 1060.70 L 1222.67 1061.48 L 1225.56 1062.26 L 1228.46 1063.05 L 1231.35 1063.84 L 1234.24 1064.65 L 1237.13 1065.46 L 1240.02 1066.27 L 1242.90 1067.08 L 1245.79 1067.90 L 1248.68 1068.72 L 1251.56 1069.54 L 1254.45 1070.36 L 1257.33 1071.18 L 1260.22 1072.02 L 1263.10 1072.85 L 1265.98 1073.68 L 1268.86 1074.51 L 1271.75 1075.34 L 1274.63 1076.16 L 1277.52 1076.96 L 1280.41 1077.77 L 1283.30 1078.58 L 1286.19 1079.39 L 1289.08 1080.20 L 1291.97 1081.00 L 1294.86 1081.81 L 1297.75 1082.60 L 1300.64 1083.40 L 1303.54 1084.19 L 1306.43 1084.99 L 1309.32 1085.78 L 1312.21 1086.58 L 1315.10 1087.38 L 1317.99 1088.19 L 1320.89 1088.98 L 1323.78 1089.78 L 1326.67 1090.58 L 1329.56 1091.38 L 1332.46 1092.17 L 1335.35 1092.98 L 1338.23 1093.78 L 1341.12 1094.60 L 1344.01 1095.40 L 1346.90 1096.21 L 1349.79 1097.01 L 1352.68 1097.81 L 1355.58 1098.61 L 1358.47 1099.40 L 1361.36 1100.21 L 1364.25 1101.02 L 1367.13 1101.84 L 1370.02 1102.67 L 1372.90 1103.49 L 1375.79 1104.31 L 1378.67 1105.14 L 1381.56 1105.96 L 1384.44 1106.78 L 1387.33 1107.61 L 1390.21 1108.43 L 1393.10 1109.25 L 1395.98 1110.07 L 1398.87 1110.88 L 1401.76 1111.70 L 1404.64 1112.52 L 1407.53 1113.34 L 1410.42 1114.15 L 1413.30 1114.97 L 1416.19 1115.80 L 1419.07 1116.63 L 1421.95 1117.47 L 1424.83 1118.31 L 1427.71 1119.14 L 1430.59 1119.97 L 1433.48 1120.79 L 1436.37 1121.61 L 1439.25 1122.43 L 1442.14 1123.25 L 1445.02 1124.07 L 1447.91 1124.88 L 1450.80 1125.70 L 1453.69 1126.51 L 1456.57 1127.32 L 1459.46 1128.15 L 1462.35 1128.96 L 1465.24 1129.76 L 1468.12 1130.59 L 1471.01 1131.40 L 1473.90 1132.21 L 1476.79 1133.01 L 1479.68 1133.80 L 1482.57 1134.60 L 1485.46 1135.41 L 1488.35 1136.21 L 1491.24 1137.02 L 1494.13 1137.83 L 1497.02 1138.64 L 1499.91 1139.46 L 1502.79 1140.28 L 1505.68 1141.10 L 1508.56 1141.92 L 1511.45 1142.75 L 1514.33 1143.58 L 1517.21 1144.40 L 1520.10 1145.23 L 1522.98 1146.05 L 1525.87 1146.88 L 1528.75 1147.71 L 1531.63 1148.55 L 1534.51 1149.39 L 1537.39 1150.23 L 1540.27 1151.07 L 1543.15 1151.92 L 1546.02 1152.78 L 1548.90 1153.64 L 1551.77 1154.49 L 1554.65 1155.34 L 1557.53 1156.18 L 1560.41 1157.02 L 1563.29 1157.85 L 1566.17 1158.69 L 1569.06 1159.51 L 1571.94 1160.34 L 1574.82 1161.18 L 1577.70 1162.03 L 1580.58 1162.86 L 1583.46 1163.70 L 1586.34 1164.55 L 1589.21 1165.40 L 1592.09 1166.26 L 1594.96 1167.11 L 1597.84 1167.96 L 1600.72 1168.81 L 1603.60 1169.65 L 1606.48 1170.50 L 1609.35 1171.35 L 1612.23 1172.21 L 1615.10 1173.07 L 1617.97 1173.93 L 1620.85 1174.80 L 1623.72 1175.67 L 1626.59 1176.55 L 1629.45 1177.43 L 1632.32 1178.32 L 1635.19 1179.20 L 1638.06 1180.07 L 1640.93 1180.94 L 1643.80 1181.80 L 1646.67 1182.67 L 1649.55 1183.53 L 1652.42 1184.39 L 1655.30 1185.25 L 1658.17 1186.11 L 1661.05 1186.96 L 1663.92 1187.81 L 1666.80 1188.66 L 1669.68 1189.51 L 1672.56 1190.35 L 1675.44 1191.20 L 1678.31 1192.05 L 1681.19 1192.89 L 1684.07 1193.73 L 1686.95 1194.58 L 1689.82 1195.44 L 1692.70 1196.30 L 1695.57 1197.17 L 1698.44 1198.04 L 1701.31 1198.91 L 1704.19 1199.77 L 1707.06 1200.62 L 1709.94 1201.47 L 1712.82 1202.32 L 1715.70 1203.16 L 1718.58 1203.99 L 1721.46 1204.83 L 1724.34 1205.67 L 1727.22 1206.51 L 1730.10 1207.35 L 1732.98 1208.18 L 1735.87 1209.01 L 1738.75 1209.84 L 1741.63 1210.66 L 1744.52 1211.49 L 1747.40 1212.32 L 1750.29 1213.14 L 1753.17 1213.96 L 1756.06 1214.78 L 1758.94 1215.60 L 1761.83 1216.42 L 1764.72 1217.23 L 1767.60 1218.05 L 1770.49 1218.87 L 1773.38 1219.68 L 1776.26 1220.51 L 1779.15 1221.33 L 1782.03 1222.16 L 1784.91 1222.99 L 1787.80 1223.82 L 1790.68 1224.65 L 1793.56 1225.48 L 1796.44 1226.32 L 1799.32 1227.16 L 1802.20 1228.00 L 1805.08 1228.84 L 1807.96 1229.67 L 1810.85 1230.50 L 1813.73 1231.33 L 1816.62 1232.15 L 1819.50 1232.96 L 1822.39 1233.78 L 1825.28 1234.59 L 1828.17 1235.40 L 1831.05 1236.21 L 1833.94 1237.02 L 1836.83 1237.84 L 1839.72 1238.64 L 1842.61 1239.45 L 1845.50 1240.25 L 1848.39 1241.05 L 1851.28 1241.86 L 1854.17 1242.68 L 1857.06 1243.49 L 1859.94 1244.30 L 1862.83 1245.11 L 1865.72 1245.93 L 1868.60 1246.75 L 1871.49 1247.58 L 1874.37 1248.42 L 1877.25 1249.24 L 1880.14 1250.06 L 1883.02 1250.88 L 1885.91 1251.70 L 1888.80 1252.51 L 1891.69 1253.32 L 1894.58 1254.12 L 1897.47 1254.94 L 1900.35 1255.75 L 1903.24 1256.56 L 1906.13 1257.37 L 1909.02 1258.17 L 1911.91 1258.97 L 1914.80 1259.78 L 1917.69 1260.59 L 1920.58 1261.40 L 1923.47 1262.20 L 1926.36 1263.01 L 1929.25 1263.82 L 1932.13 1264.64 L 1935.02 1265.44 L 1937.91 1266.25 L 1940.80 1267.06 L 1943.69 1267.86 L 1946.58 1268.66 L 1949.48 1269.45 L 1952.37 1270.24 L 1955.27 1271.03 L 1958.16 1271.81 L 1961.06 1272.59 L 1963.96 1273.37 L 1966.86 1274.14 L 1969.76 1274.90 L 1972.66 1275.68 L 1975.56 1276.44 L 1978.45 1277.22 L 1981.35 1277.99 L 1984.25 1278.77 L 1987.15 1279.53 L 1990.05 1280.29 L 1992.96 1281.05 L 1995.86 1281.80 L 1998.76 1282.56 L 2001.67 1283.32 L 2004.57 1284.07 L 2007.47 1284.83 L 2010.37 1285.59 L 2013.27 1286.36 L 2016.17 1287.14 L 2019.07 1287.91 L 2021.97 1288.68" stroke="rgb(245,245,245)" stroke-opacity="0.719" stroke-width="1.14" />
  <path d="M 998.87 1002.00 L 1001.99 1002.71 L 1005.12 1003.30 L 1008.22 1003.94 L 1011.32 1004.54 L 1014.41 1005.15 L 1017.49 1005.71 L 1020.56 1006.31 L 1023.63 1006.79 L 1026.67 1007.37 L 1029.71 1007.90 L 1032.75 1008.33 L 1035.78 1008.74 L 1038.79 1009.19 L 1041.80 1009.57 L 1044.81 1009.91 L 1047.79 1010.30 L 1050.76 1010.72 L 1053.71 1011.15 L 1056.66 1011.53 L 1059.61 1011.89 L 1062.55 1012.14 L 1065.47 1012.37 L 1068.39 1012.67 L 1071.29 1012.95 L 1074.18 1013.17 L 1077.06 1013.49 L 1079.93 1013.77 L 1082.78 1014.10 L 1085.60 1014.50 L 1088.41 1014.98 L 1091.22 1015.34 L 1094.03 1015.67 L 1096.83 1015.93 L 1099.61 1016.27 L 1102.38 1016.57 L 1105.14 1016.91 L 1107.88 1017.30 L 1110.61 1017.68 L 1113.33 1018.04 L 1116.02 1018.50 L 1118.70 1019.01 L 1121.38 1019.41 L 1124.05 1019.82 L 1126.72 1020.19 L 1129.37 1020.58 L 1132.01 1020.94 L 1134.65 1021.29 L 1137.27 1021.69 L 1139.87 1022.14 L 1142.47 1022.52" stroke="rgb(140,255,190)" stroke-opacity="0.715" stroke-width="1.13" />
  <path d="M 1001.54 999.02 L 1004.40 1000.11 L 1007.28 1001.12 L 1010.15 1002.11 L 1012.99 1003.15 L 1015.80 1004.24 L 1018.58 1005.37 L 1021.38 1006.42 L 1024.16 1007.50 L 1026.93 1008.55 L 1029.70 1009.58 L 1032.49 1010.50 L 1035.25 1011.49 L 1038.02 1012.42 L 1040.77 1013.35 L 1043.53 1014.23 L 1046.27 1015.13 L 1049.03 1015.93 L 1051.79 1016.67 L 1054.53 1017.45 L 1057.29 1018.13 L 1060.02 1018.86 L 1062.74 1019.60 L 1065.44 1020.33 L 1068.14 1021.06 L 1070.82 1021.80 L 1073.50 1022.50 L 1076.16 1023.25 L 1078.82 1023.92 L 1081.47 1024.62 L 1084.10 1025.33 L 1086.70 1026.11 L 1089.28 1026.94 L 1091.87 1027.69 L 1094.45 1028.42 L 1097.02 1029.15 L 1099.57 1029.89 L 1102.12 1030.61 L 1104.69 1031.24 L 1107.25 1031.86 L 1109.79 1032.46 L 1112.33 1033.09 L 1114.85 1033.70 L 1117.37 1034.29 L 1119.89 1034.85 L 1122.39 1035.43 L 1124.88 1036.02 L 1127.37 1036.56" stroke="rgb(140,255,190)" stroke-opacity="0.536" stroke-width="1.13" />
  <path d="M 1114.72 998.41 L 1117.15 998.61 L 1119.57 998.70 L 1121.99 998.72 L 1124.40 998.79 L 1126.79 998.98 L 1129.17 999.19 L 1131.54 999.38 L 1133.90 999.53 L 1136.25 999.76 L 1138.59 1000.04 L 1140.92 1000.19 L 1143.25 1000.30 L 1145.57 1000.41 L 1147.89 1000.52 L 1150.17 1000.81" stroke="rgb(140,255,190)" stroke-opacity="0.536" stroke-width="1.13" />
  <path d="M 1026.51 1031.81 L 1027.38 1034.33 L 1028.18 1036.87 L 1028.99 1039.39 L 1029.72 1041.92 L 1030.43 1044.45 L 1030.96 1047.01 L 1031.43 1049.58 L 1031.87 1052.13 L 1032.21 1054.70 L 1032.46 1057.26 L 1032.59 1059.82 L 1032.72 1062.37 L 1032.81 1064.91 L 1033.00 1067.44 L 1033.16 1069.96" stroke="rgb(205,165,255)" stroke-opacity="0.473" stroke-width="1.12" />
  <path d="M 1060.30 1022.36 L 1063.39 1022.35 L 1066.47 1022.37 L 1069.54 1022.28 L 1072.59 1022.22 L 1075.63 1022.18 L 1078.66 1022.19 L 1081.68 1022.07 L 1084.68 1021.90 L 1087.66 1021.67 L 1090.63 1021.37 L 1093.60 1021.20 L 1096.55 1021.01 L 1099.49 1020.80 L 1102.42 1020.65 L 1105.33 1020.46 L 1108.24 1020.24 L 1111.13 1020.12 L 1114.02 1020.04" stroke="rgb(140,255,190)" stroke-opacity="0.533" stroke-width="1.12" />
  <path d="M 1063.82 1015.62 L 1066.37 1015.42 L 1068.92 1015.34 L 1071.45 1015.15 L 1073.97 1014.96 L 1076.48 1014.76 L 1078.98 1014.64 L 1081.48 1014.66 L 1083.97 1014.55 L 1086.44 1014.43 L 1088.91 1014.41 L 1091.37 1014.38 L 1093.81 1014.33 L 1096.25 1014.38 L 1098.68 1014.32 L 1101.10 1014.24 L 1103.50 1014.05 L 1105.88 1013.82 L 1108.27 1013.63 L 1110.64 1013.45 L 1113.01 1013.31 L 1115.36 1013.14 L 1117.71 1013.00 L 1120.05 1012.90 L 1122.38 1012.86 L 1124.70 1012.76 L 1127.01 1012.68 L 1129.32 1012.64 L 1131.61 1012.77 L 1133.90 1012.81 L 1136.17 1012.85 L 1138.44 1012.93 L 1140.70 1013.06 L 1142.93 1013.34" stroke="rgb(140,255,190)" stroke-opacity="0.532" stroke-width="1.12" />
  <path d="M 1045.04 975.54 L 1048.11 975.40 L 1051.17 975.39 L 1054.22 975.48 L 1057.25 975.69 L 1060.27 975.90 L 1063.27 976.11 L 1066.27 976.35 L 1069.25 976.54 L 1072.21 976.83 L 1075.17 977.06 L 1078.11 977.32 L 1081.05 977.49 L 1083.97 977.66 L 1086.89 977.79 L 1089.79 977.83 L 1092.69 977.91 L 1095.57 977.94 L 1098.44 977.94 L 1101.30 978.00 L 1104.15 978.06 L 1106.98 978.09 L 1109.81 978.08 L 1112.62 978.00 L 1115.43 978.00 L 1118.22 977.95 L 1121.00 978.02 L 1123.76 978.21 L 1126.52 978.29 L 1129.27 978.31 L 1132.00 978.37 L 1134.73 978.48" stroke="rgb(140,255,190)" stroke-opacity="0.532" stroke-width="1.12" />
  <path d="M 1068.57 1011.57 L 1070.97 1013.27 L 1073.34 1015.01 L 1075.69 1016.75 L 1077.99 1018.54 L 1080.28 1020.33 L 1082.58 1022.07 L 1084.83 1023.87 L 1087.04 1025.69 L 1089.20 1027.56 L 1091.31 1029.47 L 1093.37 1031.41 L 1095.41 1033.36 L 1097.48 1035.26 L 1099.49 1037.21 L 1101.46 1039.18 L 1103.36 1041.21 L 1105.29 1043.18 L 1107.20 1045.17 L 1109.11 1047.14 L 1110.97 1049.14 L 1112.79 1051.16 L 1114.57 1053.21 L 1116.29 1055.29 L 1117.98 1057.38 L 1119.58 1059.53 L 1121.25 1061.61 L 1122.88 1063.70 L 1124.49 1065.81 L 1126.10 1067.89 L 1127.71 1069.96 L 1129.31 1072.03 L 1130.82 1074.15 L 1132.32 1076.27 L 1133.75 1078.42 L 1135.20 1080.55 L 1136.71 1082.62 L 1138.25 1084.65 L 1139.71 1086.73 L 1141.13 1088.83 L 1142.47 1090.97 L 1143.80 1093.10 L 1145.17 1095.19 L 1146.63 1097.21 L 1147.97 1099.30 L 1149.32 1101.36 L 1150.67 1103.43 L 1152.02 1105.47 L 1153.36 1107.51 L 1154.70 1109.54" stroke="rgb(140,255,190)" stroke-opacity="0.530" stroke-width="1.11" />
  <path d="M 1052.51 1008.89 L 1054.88 1010.54 L 1057.28 1012.11 L 1059.69 1013.66 L 1062.06 1015.24 L 1064.42 1016.80 L 1066.81 1018.31 L 1069.25 1019.71 L 1071.72 1021.04 L 1074.23 1022.26 L 1076.76 1023.42 L 1079.34 1024.41 L 1081.93 1025.37 L 1084.46 1026.44 L 1087.01 1027.44 L 1089.54 1028.45 L 1092.08 1029.39 L 1094.65 1030.25 L 1097.19 1031.13 L 1099.72 1032.02 L 1102.22 1032.96 L 1104.75 1033.79 L 1107.28 1034.59 L 1109.77 1035.46 L 1112.22 1036.41 L 1114.69 1037.27 L 1117.14 1038.17 L 1119.59 1039.04 L 1121.99 1040.01 L 1124.34 1041.06 L 1126.72 1042.03 L 1129.07 1043.02 L 1131.40 1044.05 L 1133.74 1045.04 L 1136.10 1045.93 L 1138.47 1046.76 L 1140.83 1047.60 L 1143.19 1048.43 L 1145.52 1049.30 L 1147.85 1050.14 L 1150.13 1051.05 L 1152.41 1051.97 L 1154.67 1052.92 L 1156.93 1053.83 L 1159.18 1054.72 L 1161.39 1055.69 L 1163.58 1056.70 L 1165.79 1057.63 L 1167.93 1058.70 L 1170.08 1059.72 L 1172.19 1060.79 L 1174.33 1061.78 L 1176.45 1062.79 L 1178.57 1063.78 L 1180.64 1064.84 L 1182.71 1065.90 L 1184.75 1067.00 L 1186.77 1068.10 L 1188.77 1069.22 L 1190.76 1070.34 L 1192.81 1071.32 L 1194.80 1072.41 L 1196.78 1073.51 L 1198.80 1074.49 L 1200.81 1075.47 L 1202.83 1076.43 L 1204.83 1077.39 L 1206.83 1078.35 L 1208.81 1079.31 L 1210.80 1080.22 L 1212.82 1081.06 L 1214.83 1081.90 L 1216.82 1082.76 L 1218.83 1083.55 L 1220.82 1084.37" stroke="rgb(140,255,190)" stroke-opacity="0.529" stroke-width="1.11" />
  <path d="M 999.79 999.65 L 1002.47 1000.40 L 1005.15 1001.14 L 1007.79 1001.98 L 1010.44 1002.73 L 1013.08 1003.46 L 1015.72 1004.19 L 1018.34 1004.90 L 1020.99 1005.50 L 1023.63 1006.08 L 1026.24 1006.72 L 1028.81 1007.47 L 1031.37 1008.22 L 1033.96 1008.82 L 1036.56 1009.31 L 1039.14 1009.88 L 1041.69 1010.51 L 1044.20 1011.23 L 1046.75 1011.79 L 1049.28 1012.35 L 1051.77 1013.04 L 1054.24 1013.76 L 1056.68 1014.56 L 1059.12 1015.31 L 1061.54 1016.09 L 1063.97 1016.80 L 1066.37 1017.57 L 1068.78 1018.30" stroke="rgb(140,255,190)" stroke-opacity="0.529" stroke-width="1.11" />
  <path d="M 1143.19 1048.43 L 1145.20 1050.44 L 1147.22 1052.44 L 1149.14 1054.52 L 1151.03 1056.60 L 1152.83 1058.76 L 1154.68 1060.85 L 1156.48 1062.97 L 1158.18 1065.16 L 1159.79 1067.40 L 1161.43 1069.61 L 1163.04 1071.83 L 1164.74 1073.96 L 1166.53 1076.00 L 1168.42 1077.94 L 1170.29 1079.87 L 1172.09 1081.87 L 1173.77 1083.95 L 1175.44 1086.02 L 1177.06 1088.12 L 1178.62 1090.25 L 1180.14 1092.40 L 1181.66 1094.54 L 1183.19 1096.65 L 1184.90 1098.61 L 1186.68 1100.49 L 1188.51 1102.31 L 1190.37 1104.07 L 1192.23 1105.83 L 1194.09 1107.58 L 1195.90 1109.35 L 1197.74 1111.09 L 1199.54 1112.84 L 1201.40 1114.53 L 1203.31 1116.14 L 1205.20 1117.75" stroke="rgb(140,255,190)" stroke-opacity="0.529" stroke-width="1.11" />
  <path d="M 999.87 1003.54 L 1002.72 1004.05 L 1005.56 1004.50 L 1008.39 1004.94 L 1011.22 1005.33 L 1014.02 1005.80 L 1016.83 1006.21 L 1019.61 1006.69 L 1022.38 1007.13 L 1025.17 1007.43 L 1027.94 1007.72 L 1030.70 1008.04 L 1033.44 1008.37 L 1036.16 1008.78 L 1038.88 1009.18 L 1041.57 1009.62 L 1044.26 1010.04 L 1046.93 1010.51 L 1049.60 1010.93 L 1052.26 1011.32 L 1054.90 1011.74 L 1057.54 1012.17 L 1060.16 1012.58 L 1062.77 1012.99 L 1065.36 1013.50 L 1067.96 1013.89 L 1070.55 1014.25 L 1073.13 1014.58 L 1075.71 1014.79 L 1078.29 1015.04 L 1080.84 1015.35 L 1083.39 1015.64 L 1085.92 1015.92 L 1088.44 1016.25 L 1090.95 1016.56 L 1093.45 1016.90 L 1095.95 1017.17 L 1098.44 1017.46 L 1100.92 1017.70 L 1103.40 1017.80 L 1105.86 1017.96 L 1108.32 1018.08 L 1110.77 1018.14 L 1113.21 1018.26 L 1115.64 1018.32 L 1118.07 1018.30" stroke="rgb(140,255,190)" stroke-opacity="0.529" stroke-width="1.11" />
  <path d="M 1002.03 999.90 L 1004.84 1000.75 L 1007.64 1001.61 L 1010.42 1002.50 L 1013.21 1003.32 L 1015.97 1004.21 L 1018.69 1005.15 L 1021.41 1006.10 L 1024.11 1007.02 L 1026.85 1007.83 L 1029.57 1008.64 L 1032.27 1009.46 L 1034.97 1010.26 L 1037.71 1010.89 L 1040.44 1011.44 L 1043.15 1012.08 L 1045.86 1012.65 L 1048.54 1013.31 L 1051.23 1013.86 L 1053.92 1014.42 L 1056.59 1014.96 L 1059.24 1015.52 L 1061.91 1015.96 L 1064.57 1016.40 L 1067.23 1016.79 L 1069.88 1017.15 L 1072.51 1017.55 L 1075.12 1017.99 L 1077.74 1018.33 L 1080.33 1018.80 L 1082.90 1019.31 L 1085.46 1019.81 L 1088.01 1020.31 L 1090.55 1020.82 L 1093.07 1021.33 L 1095.61 1021.73 L 1098.14 1022.08 L 1100.68 1022.33 L 1103.20 1022.59 L 1105.72 1022.79 L 1108.23 1022.95 L 1110.74 1023.05 L 1113.23 1023.12 L 1115.71 1023.24 L 1118.18 1023.43 L 1120.65 1023.51 L 1123.10 1023.44 L 1125.55 1023.37 L 1127.99 1023.33 L 1130.41 1023.29 L 1132.83 1023.22 L 1135.24 1023.12 L 1137.63 1023.05 L 1140.02 1022.92 L 1142.40 1022.84 L 1144.77 1022.85 L 1147.13 1022.81 L 1149.48 1022.75 L 1151.82 1022.69 L 1154.15 1022.64 L 1156.47 1022.56 L 1158.78 1022.42 L 1161.08 1022.30 L 1163.37 1022.13 L 1165.66 1022.04 L 1167.93 1021.98 L 1170.20 1021.97 L 1172.46 1022.01 L 1174.70 1022.13 L 1176.94 1022.24 L 1179.17 1022.28 L 1181.39 1022.41 L 1183.60 1022.55 L 1185.80 1022.69 L 1187.99 1022.77 L 1190.18 1022.79 L 1192.36 1022.85 L 1194.53 1022.90 L 1196.69 1022.93" stroke="rgb(140,255,190)" stroke-opacity="0.529" stroke-width="1.11" />
  <path d="M 1136.17 1012.85 L 1138.96 1012.10 L 1141.75 1011.42 L 1144.51 1010.67 L 1147.29 1010.02 L 1150.04 1009.33 L 1152.76 1008.56 L 1155.47 1007.80 L 1158.15 1006.95 L 1160.77 1006.00 L 1163.38 1005.02 L 1165.95 1003.98 L 1168.48 1002.89 L 1170.91 1001.61 L 1173.37 1000.40 L 1175.83 999.21 L 1178.23 997.95 L 1180.64 996.71 L 1183.04 995.49 L 1185.45 994.30 L 1187.85 993.14 L 1190.18 991.85 L 1192.52 990.61 L 1194.82 989.30 L 1197.10 987.99 L 1199.36 986.67 L 1201.62 985.36 L 1203.89 984.09 L 1206.18 982.89 L 1208.48 981.72 L 1210.66 980.37 L 1212.72 978.85 L 1214.69 977.23 L 1216.67 975.65 L 1218.62 974.04 L 1220.52 972.38 L 1222.36 970.69 L 1224.21 969.01 L 1226.09 967.38 L 1227.90 965.69 L 1229.69 963.98 L 1231.35 962.17 L 1233.04 960.41 L 1234.86 958.78 L 1236.68 957.18 L 1238.57 955.66 L 1240.46 954.17 L 1242.25 952.58 L 1243.99 950.94 L 1245.79 949.39 L 1247.58 947.82 L 1249.34 946.26 L 1251.02 944.61 L 1252.74 943.02 L 1254.41 941.39 L 1256.04 939.74 L 1257.66 938.08 L 1259.21 936.38 L 1260.78 934.70 L 1262.45 933.13 L 1264.09 931.56 L 1265.80 930.07 L 1267.45 928.53 L 1269.12 927.02 L 1270.73 925.46 L 1272.35 923.92 L 1274.02 922.46 L 1275.76 921.09 L 1277.43 919.65 L 1279.16 918.30 L 1280.86 916.91 L 1282.62 915.63 L 1284.35 914.32 L 1286.06 913.00 L 1287.85 911.80 L 1289.68 910.68 L 1291.48 909.53 L 1293.19 908.27 L 1294.92 907.04 L 1296.65 905.84 L 1298.37 904.63 L 1300.09 903.44 L 1301.80 902.25 L 1303.47 901.02 L 1305.09 899.72 L 1306.70 898.44 L 1308.24 897.08 L 1309.72 895.67 L 1311.18 894.26 L 1312.65 892.86 L 1314.10 891.46 L 1315.59 890.10 L 1317.02 888.70" stroke="rgb(140,255,190)" stroke-opacity="0.529" stroke-width="1.11" />
  <path d="M 1078.05 1032.58 L 1080.23 1034.30 L 1082.35 1036.06 L 1084.30 1038.00 L 1086.19 1039.98 L 1088.03 1041.99 L 1089.85 1044.01 L 1091.60 1046.08 L 1093.32 1048.15 L 1094.87 1050.34 L 1096.58 1052.39 L 1098.40 1054.34 L 1100.19 1056.30 L 1102.01 1058.21 L 1103.77 1060.17 L 1105.55 1062.09 L 1107.38 1063.95 L 1109.10 1065.90 L 1110.77 1067.88 L 1112.45 1069.83 L 1114.20 1071.72 L 1115.92 1073.61 L 1117.68 1075.46 L 1119.53 1077.19 L 1121.39 1078.90 L 1123.33 1080.51 L 1125.26 1082.10 L 1127.12 1083.77 L 1128.87 1085.54 L 1130.64 1087.28 L 1132.38 1089.02 L 1134.16 1090.72 L 1135.87 1092.47 L 1137.60 1094.19 L 1139.42 1095.79 L 1141.26 1097.36 L 1143.14 1098.88 L 1145.02 1100.36 L 1146.88 1101.86 L 1148.74 1103.35 L 1150.58 1104.84 L 1152.37 1106.38 L 1154.15 1107.92 L 1155.99 1109.37 L 1157.91 1110.70 L 1159.82 1112.02 L 1161.76 1113.27 L 1163.71 1114.50 L 1165.66 1115.72 L 1167.57 1116.97 L 1169.47 1118.23 L 1171.35 1119.50 L 1173.16 1120.85" stroke="rgb(140,255,190)" stroke-opacity="0.529" stroke-width="1.11" />
  <path d="M 1041.43 1012.81 L 1043.99 1012.64 L 1046.55 1012.50 L 1049.09 1012.32 L 1051.63 1012.30 L 1054.16 1012.19 L 1056.67 1012.04 L 1059.17 1011.84 L 1061.67 1011.80 L 1064.14 1012.06 L 1066.58 1012.52 L 1068.99 1013.07 L 1071.38 1013.64 L 1073.76 1014.23 L 1076.07 1015.01 L 1078.36 1015.82 L 1080.70 1016.41 L 1083.04 1017.00 L 1085.37 1017.59 L 1087.71 1018.06 L 1090.06 1018.49 L 1092.39 1018.91 L 1094.72 1019.29 L 1097.03 1019.76 L 1099.34 1020.10 L 1101.67 1020.32 L 1103.98 1020.54 L 1106.29 1020.71 L 1108.59 1020.90 L 1110.88 1021.13 L 1113.16 1021.27 L 1115.43 1021.38 L 1117.70 1021.42 L 1119.96 1021.48 L 1122.21 1021.58 L 1124.45 1021.66 L 1126.69 1021.66 L 1128.91 1021.54 L 1131.12 1021.34 L 1133.32 1021.17 L 1135.51 1021.07 L 1137.70 1021.02 L 1139.88 1020.97 L 1142.05 1021.03 L 1144.21 1021.06 L 1146.37 1021.08 L 1148.51 1021.15 L 1150.64 1021.32" stroke="rgb(140,255,190)" stroke-opacity="0.528" stroke-width="1.11" />
  <path d="M 1001.28 1001.72 L 1004.02 1002.48 L 1006.76 1003.22 L 1009.45 1004.09 L 1012.16 1004.84 L 1014.85 1005.60 L 1017.54 1006.36 L 1020.20 1007.15 L 1022.83 1008.03 L 1025.44 1008.92 L 1028.06 1009.74 L 1030.71 1010.41 L 1033.32 1011.18 L 1035.91 1012.00 L 1038.46 1012.91 L 1040.99 1013.81 L 1043.49 1014.77 L 1046.01 1015.66 L 1048.50 1016.59 L 1050.93 1017.65 L 1053.33 1018.75 L 1055.69 1019.91 L 1058.00 1021.13 L 1060.30 1022.36 L 1062.59 1023.59 L 1064.82 1024.89 L 1067.06 1026.17 L 1069.26 1027.48 L 1071.48 1028.76 L 1073.71 1029.99 L 1075.87 1031.30 L 1078.05 1032.58 L 1080.25 1033.79 L 1082.41 1035.07 L 1084.55 1036.35" stroke="rgb(140,255,190)" stroke-opacity="0.528" stroke-width="1.10" />
  <path d="M 1102.22 1032.96 L 1104.69 1033.59 L 1107.13 1034.31 L 1109.54 1035.08 L 1111.90 1035.98 L 1114.27 1036.77 L 1116.65 1037.56 L 1119.01 1038.35 L 1121.42 1038.92 L 1123.82 1039.51 L 1126.22 1040.05 L 1128.62 1040.56 L 1130.99 1041.11 L 1133.35 1041.70 L 1135.71 1042.23 L 1138.07 1042.75 L 1140.38 1043.40 L 1142.72 1043.91 L 1145.02 1044.51 L 1147.33 1045.07 L 1149.62 1045.63 L 1151.91 1046.20 L 1154.18 1046.78 L 1156.44 1047.36 L 1158.68 1047.97 L 1160.88 1048.69 L 1163.08 1049.40 L 1165.28 1050.05 L 1167.44 1050.82 L 1169.57 1051.63 L 1171.69 1052.43 L 1173.82 1053.21 L 1175.93 1053.99 L 1178.02 1054.81 L 1180.10 1055.63 L 1182.18 1056.42 L 1184.25 1057.21 L 1186.37 1057.83 L 1188.48 1058.45 L 1190.54 1059.17 L 1192.61 1059.87 L 1194.68 1060.53 L 1196.73 1061.21 L 1198.83 1061.72 L 1200.91 1062.24 L 1202.99 1062.74 L 1205.08 1063.14 L 1207.17 1063.49 L 1209.27 1063.72 L 1211.36 1063.97 L 1213.43 1064.32 L 1215.46 1064.79 L 1217.49 1065.25 L 1219.53 1065.61 L 1221.49 1066.24 L 1223.46 1066.80" stroke="rgb(140,255,190)" stroke-opacity="0.528" stroke-width="1.10" />
  <path d="M 1000.59 1004.95 L 1001.99 1002.71 L 1003.35 1000.47 L 1004.76 998.26 L 1006.19 996.09 L 1007.72 993.99 L 1009.22 991.88 L 1010.69 989.77 L 1012.07 987.61 L 1013.47 985.48 L 1014.98 983.43 L 1016.54 981.43 L 1018.16 979.50 L 1019.79 977.58 L 1021.40 975.66 L 1022.95 973.72 L 1024.42 971.71 L 1025.81 969.67 L 1027.12 967.58 L 1028.40 965.49 L 1029.70 963.42 L 1030.95 961.33 L 1032.13 959.22 L 1033.27 957.09 L 1034.36 954.95 L 1035.52 952.85 L 1036.73 950.79 L 1037.84 948.69 L 1038.99 946.63 L 1040.06 944.52 L 1041.11 942.43 L 1042.30 940.42 L 1043.51 938.42 L 1044.70 936.43 L 1045.82 934.41" stroke="rgb(205,165,255)" stroke-opacity="0.467" stroke-width="1.10" />
  <path d="M 1136.85 978.34 L 1139.58 977.17 L 1142.26 975.94 L 1144.88 974.58 L 1147.55 973.39 L 1150.22 972.21 L 1152.83 970.93 L 1155.51 969.82 L 1158.10 968.55 L 1160.69 967.31 L 1163.24 966.00 L 1165.74 964.63 L 1168.29 963.40 L 1170.84 962.16 L 1173.39 960.98 L 1175.96 959.84 L 1178.49 958.66 L 1181.02 957.50 L 1183.48 956.22 L 1185.93 954.95 L 1188.35 953.64 L 1190.78 952.38 L 1193.25 951.23 L 1195.70 950.05 L 1198.17 948.94 L 1200.67 947.94 L 1203.16 946.94 L 1205.63 945.92 L 1208.09 944.89 L 1210.56 943.94 L 1213.02 942.96 L 1215.48 942.03 L 1217.91 941.05 L 1220.26 939.92 L 1222.58 938.75 L 1224.92 937.63 L 1227.20 936.43 L 1229.46 935.21 L 1231.69 933.96 L 1233.82 932.56 L 1236.00 931.27 L 1238.16 929.94 L 1240.27 928.58 L 1242.39 927.24 L 1244.46 925.84 L 1246.54 924.47 L 1248.61 923.11 L 1250.52 921.55 L 1252.43 920.00 L 1254.35 918.49" stroke="rgb(140,255,190)" stroke-opacity="0.527" stroke-width="1.10" />
  <path d="M 1056.51 1008.05 L 1059.27 1007.61 L 1062.05 1007.33 L 1064.81 1007.09 L 1067.57 1006.85 L 1070.31 1006.55 L 1073.01 1006.07 L 1075.69 1005.56 L 1078.38 1005.15 L 1081.05 1004.66 L 1083.70 1004.15 L 1086.33 1003.61 L 1088.99 1003.26 L 1091.63 1002.89 L 1094.27 1002.58 L 1096.88 1002.14 L 1099.47 1001.68 L 1102.06 1001.24 L 1104.63 1000.74 L 1107.17 1000.19 L 1109.71 999.66 L 1112.22 999.03 L 1114.72 998.41 L 1117.20 997.78 L 1119.68 997.20 L 1122.16 996.64 L 1124.64 996.12 L 1127.12 995.64 L 1129.56 995.06 L 1132.01 994.54 L 1134.45 994.02 L 1136.86 993.43 L 1139.27 992.89 L 1141.65 992.27 L 1144.04 991.71 L 1146.44 991.25 L 1148.83 990.83 L 1151.22 990.40 L 1153.59 989.95 L 1155.96 989.54 L 1158.32 989.17 L 1160.67 988.77 L 1163.02 988.42 L 1165.36 988.08 L 1167.71 987.86 L 1170.03 987.52 L 1172.34 987.15 L 1174.65 986.88 L 1176.95 986.65 L 1179.21 986.18 L 1181.47 985.73 L 1183.70 985.20 L 1185.93 984.71 L 1188.16 984.28 L 1190.35 983.72 L 1192.55 983.23 L 1194.72 982.63 L 1196.86 981.99 L 1198.98 981.31 L 1201.08 980.61 L 1203.18 979.91 L 1205.27 979.23 L 1207.36 978.57 L 1209.46 977.98 L 1211.53 977.30 L 1213.59 976.64 L 1215.63 975.93 L 1217.66 975.22 L 1219.71 974.61" stroke="rgb(140,255,190)" stroke-opacity="0.526" stroke-width="1.10" />
  <path d="M 999.82 997.43 L 1002.50 997.87 L 1005.16 998.33 L 1007.80 998.87 L 1010.44 999.35 L 1013.07 999.79 L 1015.70 1000.22 L 1018.33 1000.55 L 1020.95 1000.85 L 1023.54 1001.28 L 1026.12 1001.75 L 1028.69 1002.16 L 1031.25 1002.58 L 1033.81 1002.98 L 1036.35 1003.43 L 1038.87 1003.87 L 1041.39 1004.30 L 1043.91 1004.69 L 1046.42 1005.05 L 1048.92 1005.37 L 1051.41 1005.75 L 1053.87 1006.24 L 1056.31 1006.73 L 1058.76 1007.17 L 1061.20 1007.57 L 1063.63 1007.96 L 1066.07 1008.30 L 1068.50 1008.54 L 1070.93 1008.71 L 1073.35 1008.83 L 1075.77 1008.98 L 1078.16 1009.17 L 1080.56 1009.27 L 1082.94 1009.42 L 1085.31 1009.62 L 1087.67 1009.78 L 1090.02 1009.98 L 1092.36 1010.19 L 1094.69 1010.48 L 1096.99 1010.80 L 1099.30 1011.09 L 1101.59 1011.42 L 1103.87 1011.73 L 1106.14 1012.05 L 1108.39 1012.43 L 1110.63 1012.83" stroke="rgb(140,255,190)" stroke-opacity="0.526" stroke-width="1.10" />
  <path d="M 1063.63 1007.96 L 1065.97 1009.38 L 1068.40 1010.62 L 1070.87 1011.72 L 1073.32 1012.86 L 1075.78 1013.96 L 1078.30 1014.86 L 1080.83 1015.71 L 1083.33 1016.62 L 1085.84 1017.46 L 1088.33 1018.31 L 1090.82 1019.16 L 1093.29 1020.01 L 1095.72 1020.95 L 1098.14 1021.88 L 1100.59 1022.71 L 1103.04 1023.50 L 1105.45 1024.37 L 1107.85 1025.24 L 1110.24 1026.11 L 1112.62 1026.99 L 1115.03 1027.73 L 1117.46 1028.36 L 1119.85 1029.10 L 1122.22 1029.86 L 1124.59 1030.62 L 1126.93 1031.41 L 1129.27 1032.18 L 1131.60 1032.97 L 1133.92 1033.73 L 1136.22 1034.51 L 1138.54 1035.20 L 1140.86 1035.90 L 1143.13 1036.69 L 1145.41 1037.41 L 1147.69 1038.10 L 1149.99 1038.71 L 1152.23 1039.47 L 1154.50 1040.11" stroke="rgb(140,255,190)" stroke-opacity="0.526" stroke-width="1.10" />
  <path d="M 1000.10 1002.35 L 1002.60 1002.96 L 1005.05 1003.73 L 1007.44 1004.63 L 1009.82 1005.56 L 1012.17 1006.51 L 1014.50 1007.48 L 1016.77 1008.57 L 1019.02 1009.68 L 1021.22 1010.86 L 1023.44 1011.97 L 1025.66 1013.08 L 1027.80 1014.30 L 1029.95 1015.50 L 1032.06 1016.74 L 1034.20 1017.91 L 1036.35 1019.03 L 1038.51 1020.13 L 1040.59 1021.34 L 1042.68 1022.51 L 1044.77 1023.67 L 1046.82 1024.89 L 1048.91 1026.01 L 1050.95 1027.18 L 1052.97 1028.39 L 1055.03 1029.51 L 1057.04 1030.70 L 1059.05 1031.86 L 1061.04 1033.04 L 1063.03 1034.21 L 1064.98 1035.40 L 1067.01 1036.47 L 1068.97 1037.61 L 1070.91 1038.80 L 1072.83 1039.98 L 1074.78 1041.11 L 1076.71 1042.25 L 1078.61 1043.42 L 1080.50 1044.59 L 1082.38 1045.77 L 1084.27 1046.89 L 1086.15 1048.04 L 1088.02 1049.16 L 1089.89 1050.28 L 1091.76 1051.39 L 1093.60 1052.52 L 1095.44 1053.64 L 1097.29 1054.73 L 1099.12 1055.83 L 1100.92 1056.96 L 1102.68 1058.13 L 1104.45 1059.30 L 1106.21 1060.43 L 1107.96 1061.58" stroke="rgb(140,255,190)" stroke-opacity="0.526" stroke-width="1.10" />
  <path d="M 996.78 998.83 L 998.85 1000.41 L 1000.84 1002.08 L 1002.81 1003.76 L 1004.74 1005.47 L 1006.60 1007.24 L 1008.42 1009.03 L 1010.23 1010.82 L 1012.03 1012.61 L 1013.82 1014.39 L 1015.59 1016.18 L 1017.30 1018.00 L 1019.07 1019.77 L 1020.82 1021.53 L 1022.57 1023.27 L 1024.32 1025.02 L 1026.04 1026.77 L 1027.67 1028.60 L 1029.28 1030.42 L 1030.95 1032.18 L 1032.56 1033.98 L 1034.24 1035.71 L 1035.87 1037.47 L 1037.50 1039.21 L 1039.10 1040.97 L 1040.70 1042.71 L 1042.26 1044.48 L 1043.87 1046.20 L 1045.42 1047.95 L 1046.96 1049.70 L 1048.56 1051.38 L 1050.14 1053.07 L 1051.69 1054.77 L 1053.27 1056.43 L 1054.93 1058.01 L 1056.49 1059.66 L 1058.01 1061.34 L 1059.59 1062.95 L 1061.18 1064.54 L 1062.72 1066.17 L 1064.22 1067.82 L 1065.69 1069.49 L 1067.12 1071.17 L 1068.62 1072.79 L 1070.15 1074.36 L 1071.65 1075.96 L 1073.13 1077.55 L 1074.69 1079.06 L 1076.32 1080.47 L 1077.94 1081.89 L 1079.53 1083.33 L 1081.02 1084.85 L 1082.50 1086.38 L 1083.95 1087.92 L 1085.34 1089.50 L 1086.80 1091.02 L 1088.18 1092.59 L 1089.47 1094.23 L 1090.71 1095.89 L 1091.95 1097.54 L 1093.15 1099.21 L 1094.26 1100.94 L 1095.42 1102.62 L 1096.51 1104.34 L 1097.59 1106.05 L 1098.68 1107.75 L 1099.73 1109.47" stroke="rgb(205,165,255)" stroke-opacity="0.463" stroke-width="1.09" />
  <path d="M 1091.87 1027.69 L 1093.99 1029.49 L 1096.12 1031.25 L 1098.29 1032.95 L 1100.42 1034.69 L 1102.50 1036.46 L 1104.49 1038.32 L 1106.41 1040.24 L 1108.31 1042.16 L 1110.28 1044.00 L 1112.22 1045.85 L 1114.11 1047.75 L 1115.96 1049.66 L 1117.66 1051.69 L 1119.30 1053.75 L 1120.90 1055.84 L 1122.58 1057.85 L 1124.19 1059.90 L 1125.82 1061.92 L 1127.46 1063.92 L 1129.07 1065.93 L 1130.69 1067.93 L 1132.26 1069.94 L 1133.85 1071.93 L 1135.33 1073.99 L 1136.94 1075.93 L 1138.63 1077.79 L 1140.35 1079.62 L 1142.07 1081.42 L 1143.83 1083.17 L 1145.58 1084.93 L 1147.29 1086.70 L 1149.15 1088.31 L 1150.96 1089.95 L 1152.74 1091.62 L 1154.51 1093.28 L 1156.27 1094.93 L 1157.95 1096.65 L 1159.59 1098.40 L 1161.29 1100.08 L 1163.02 1101.71 L 1164.72 1103.36" stroke="rgb(140,255,190)" stroke-opacity="0.523" stroke-width="1.09" />
  <path d="M 1000.01 1001.15 L 1000.82 1003.60 L 1001.68 1006.02 L 1002.51 1008.44 L 1003.36 1010.84 L 1004.17 1013.24 L 1004.85 1015.67 L 1005.51 1018.10 L 1006.08 1020.54 L 1006.56 1022.99 L 1006.98 1025.44 L 1007.31 1027.90 L 1007.65 1030.34 L 1008.08 1032.76 L 1008.55 1035.16 L 1008.91 1037.57 L 1009.32 1039.96 L 1009.77 1042.34 L 1010.30 1044.68 L 1010.87 1047.02 L 1011.34 1049.35 L 1011.92 1051.66 L 1012.49 1053.96 L 1013.03 1056.26 L 1013.54 1058.56 L 1014.01 1060.85 L 1014.43 1063.14 L 1014.86 1065.42 L 1015.14 1067.72 L 1015.38 1070.01 L 1015.62 1072.29 L 1015.89 1074.56 L 1016.12 1076.83 L 1016.41 1079.08 L 1016.76 1081.31 L 1017.13 1083.53 L 1017.49 1085.73" stroke="rgb(205,165,255)" stroke-opacity="0.462" stroke-width="1.08" />
  <path d="M 934.73 1027.02 L 932.80 1028.60 L 931.02 1030.34 L 929.33 1032.15 L 927.74 1034.04 L 926.19 1035.94 L 924.73 1037.91 L 923.27 1039.86 L 921.89 1041.85 L 920.48 1043.82 L 918.99 1045.71 L 917.43 1047.54 L 915.82 1049.30 L 914.31 1051.14 L 912.79 1052.96 L 911.19 1054.69 L 909.72 1056.53 L 908.21 1058.31 L 906.66 1060.06 L 905.19 1061.85 L 903.74 1063.66 L 902.31 1065.47 L 900.73 1067.14 L 899.09 1068.72 L 897.46 1070.31 L 895.81 1071.87 L 894.23 1073.49 L 892.72 1075.15 L 891.15 1076.75 L 889.54 1078.30 L 887.90 1079.80 L 886.15 1081.16 L 884.40 1082.50 L 882.65 1083.82 L 880.89 1085.12 L 879.16 1086.45 L 877.45 1087.78 L 875.66 1088.99 L 873.91 1090.24 L 872.19 1091.52 L 870.46 1092.77 L 868.76 1094.06 L 867.07 1095.34 L 865.30 1096.48 L 863.48 1097.54" stroke="rgb(205,165,255)" stroke-opacity="0.461" stroke-width="1.08" />
  <path d="M 1000.67 1004.71 L 1002.19 1002.94 L 1003.66 1001.14 L 1005.03 999.27 L 1006.39 997.41 L 1007.71 995.53 L 1008.99 993.63 L 1010.36 991.81 L 1011.80 990.06 L 1013.10 988.20 L 1014.38 986.35 L 1015.52 984.42 L 1016.62 982.48 L 1017.69 980.53 L 1018.69 978.55 L 1019.80 976.64 L 1020.89 974.73 L 1021.89 972.79 L 1022.91 970.86 L 1024.06 969.02 L 1025.13 967.14" stroke="rgb(205,165,255)" stroke-opacity="0.457" stroke-width="1.07" />
  <path d="M 1006.79 997.77 L 1005.96 1000.01 L 1005.22 1002.27 L 1004.54 1004.53 L 1004.01 1006.83 L 1003.46 1009.11 L 1002.90 1011.38 L 1002.32 1013.64 L 1001.67 1015.86 L 1000.87 1018.03 L 1000.11 1020.21 L 999.40 1022.38 L 998.68 1024.55 L 997.96 1026.71 L 997.26 1028.86 L 996.69 1031.05 L 996.07 1033.20 L 995.43 1035.35 L 994.70 1037.45 L 993.93 1039.54 L 993.12 1041.60 L 992.37 1043.66 L 991.59 1045.71 L 990.78 1047.74" stroke="rgb(205,165,255)" stroke-opacity="0.456" stroke-width="1.06" />
  <path d="M 1012.70 1053.97 L 1012.52 1056.37 L 1012.28 1058.76 L 1011.86 1061.11 L 1011.36 1063.43 L 1010.92 1065.76 L 1010.29 1068.03 L 1009.71 1070.31 L 1009.11 1072.57 L 1008.70 1074.87 L 1008.24 1077.14 L 1007.83 1079.42 L 1007.61 1081.71 L 1007.42 1084.00 L 1007.27 1086.28 L 1007.07 1088.55 L 1006.88 1090.80 L 1006.70 1093.05 L 1006.57 1095.30 L 1006.49 1097.54 L 1006.46 1099.77 L 1006.39 1101.99 L 1006.28 1104.20 L 1006.05 1106.39 L 1005.99 1108.59 L 1005.71 1110.75 L 1005.39 1112.91 L 1005.04 1115.05 L 1004.83 1117.20 L 1004.63 1119.34 L 1004.44 1121.48 L 1004.22 1123.60 L 1004.00 1125.71 L 1003.64 1127.80 L 1003.25 1129.87 L 1002.74 1131.91 L 1002.24 1133.94 L 1001.75 1135.97 L 1001.21 1137.97 L 1000.51 1139.91 L 999.82 1141.86 L 999.17 1143.80 L 998.51 1145.73 L 997.91 1147.68 L 997.27 1149.60 L 996.46 1151.45 L 995.63 1153.28 L 994.80 1155.10 L 994.05 1156.95 L 993.35 1158.81 L 992.58 1160.63 L 991.85 1162.46 L 991.08 1164.26 L 990.35 1166.08 L 989.69 1167.91" stroke="rgb(205,165,255)" stroke-opacity="0.456" stroke-width="1.06" />
  <path d="M 998.65 998.86 L 1001.01 999.18 L 1003.39 999.36 L 1005.75 999.50 L 1008.10 999.69 L 1010.44 999.89 L 1012.76 1000.16 L 1015.08 1000.46 L 1017.39 1000.63 L 1019.70 1000.71 L 1022.00 1000.77 L 1024.29 1000.90 L 1026.58 1000.97 L 1028.83 1001.24 L 1031.07 1001.62 L 1033.27 1002.10 L 1035.46 1002.62 L 1037.65 1003.11 L 1039.81 1003.63 L 1041.98 1004.10 L 1044.17 1004.45 L 1046.34 1004.81 L 1048.50 1005.20 L 1050.65 1005.62 L 1052.80 1005.95 L 1054.96 1006.15 L 1057.11 1006.36 L 1059.25 1006.57 L 1061.38 1006.76 L 1063.50 1007.01 L 1065.61 1007.25 L 1067.72 1007.43 L 1069.81 1007.69 L 1071.90 1007.90 L 1073.99 1008.01 L 1076.07 1008.02 L 1078.15 1007.99 L 1080.21 1007.97 L 1082.27 1008.02 L 1084.32 1008.02 L 1086.36 1008.06 L 1088.39 1008.11 L 1090.42 1008.19 L 1092.43 1008.34 L 1094.43 1008.53 L 1096.41 1008.80 L 1098.39 1009.09 L 1100.34 1009.44 L 1102.29 1009.79 L 1104.22 1010.13 L 1106.15 1010.49 L 1108.07 1010.89 L 1109.97 1011.29 L 1111.85 1011.75" stroke="rgb(205,165,255)" stroke-opacity="0.454" stroke-width="1.05" />
  <path d="M 930.60 1043.23 L 929.49 1045.28 L 928.18 1047.21 L 926.85 1049.10 L 925.55 1051.01 L 924.26 1052.92 L 922.94 1054.79 L 921.58 1056.61 L 920.30 1058.49 L 918.99 1060.33 L 917.62 1062.12 L 916.36 1063.98 L 915.20 1065.89 L 914.10 1067.82 L 912.91 1069.69 L 911.83 1071.62 L 910.75 1073.53 L 909.50 1075.33 L 908.20 1077.08 L 906.99 1078.89 L 905.79 1080.69 L 904.65 1082.52 L 903.49 1084.33 L 902.29 1086.10 L 901.11 1087.87 L 899.91 1089.62 L 898.56 1091.25 L 897.22 1092.87 L 895.92 1094.51 L 894.56 1096.10 L 893.16 1097.63 L 891.82 1099.21 L 890.45 1100.76 L 889.12 1102.32 L 887.88 1103.94 L 886.54 1105.48 L 885.34 1107.12 L 884.18 1108.77 L 883.06 1110.45 L 881.90 1112.08 L 880.56 1113.57 L 879.29 1115.10 L 878.05 1116.65 L 876.86 1118.22 L 875.63 1119.75 L 874.39 1121.27 L 873.34 1122.91 L 872.36 1124.58 L 871.43 1126.28 L 870.61 1128.03 L 869.82 1129.77 L 868.97 1131.49 L 868.17 1133.21 L 867.28 1134.89 L 866.36 1136.54 L 865.40 1138.16 L 864.49 1139.80 L 863.56 1141.41 L 862.63 1143.02 L 861.71 1144.63" stroke="rgb(205,165,255)" stroke-opacity="0.453" stroke-width="1.05" />
  <path d="M 998.63 1000.02 L 996.97 998.64 L 995.32 997.26 L 993.77 995.79 L 992.24 994.30 L 990.74 992.80 L 989.28 991.27 L 987.80 989.77 L 986.29 988.32 L 984.89 986.77 L 983.53 985.20 L 982.21 983.60 L 980.96 981.96 L 979.85 980.23 L 978.71 978.52 L 977.58 976.82 L 976.41 975.16 L 975.33 973.45 L 974.22 971.77 L 973.20 970.04 L 972.21 968.31 L 971.28 966.55 L 970.34 964.80 L 969.41 963.05 L 968.60 961.26 L 967.70 959.52 L 966.87 957.75 L 966.01 956.01 L 965.15 954.28 L 964.35 952.52 L 963.49 950.81 L 962.66 949.08 L 961.89 947.34 L 961.25 945.55 L 960.64 943.76 L 960.03 941.98 L 959.46 940.20 L 958.95 938.40 L 958.39 936.63" stroke="rgb(205,165,255)" stroke-opacity="0.445" stroke-width="1.02" />
  <path d="M 992.05 999.49 L 990.69 1000.11 L 989.30 1000.66 L 987.87 1001.08" stroke="rgb(230,230,230)" stroke-opacity="0.387" stroke-width="0.71" />
  <path d="M 1003.06 995.92 L 1004.22 994.97 L 1005.44 994.11 L 1006.58 993.16 L 1007.75 992.25 L 1009.03 991.50 L 1010.28 990.73 L 1011.45 989.86 L 1012.76 989.21" stroke="rgb(230,230,230)" stroke-opacity="0.382" stroke-width="0.70" />
  <path d="M 1000.87 995.14 L 1000.38 996.56 L 999.69 997.88 L 999.19 999.28 L 998.83 1000.72 L 998.37 1002.13 L 997.89 1003.51 L 997.57 1004.94 L 997.22 1006.36 L 997.29 1007.81" stroke="rgb(230,230,230)" stroke-opacity="0.380" stroke-width="0.70" />
  <path d="M 1003.04 1006.30 L 1003.52 1007.72 L 1003.99 1009.14 L 1004.67 1010.46 L 1005.35 1011.78 L 1006.11 1013.04 L 1006.92 1014.27 L 1007.76 1015.47" stroke="rgb(230,230,230)" stroke-opacity="0.380" stroke-width="0.69" />
  <path d="M 998.76 1002.29 L 999.91 1001.32 L 1001.02 1000.33 L 1002.12 999.32 L 1003.13 998.23 L 1004.04 997.07 L 1004.87 995.86 L 1005.78 994.71 L 1006.67 993.55 L 1007.63 992.47 L 1008.62 991.41 L 1009.51 990.28 L 1010.26 989.05 L 1010.97 987.81 L 1011.61 986.54 L 1012.27 985.28 L 1013.11 984.15 L 1013.98 983.04 L 1014.85 981.95" stroke="rgb(230,230,230)" stroke-opacity="0.377" stroke-width="0.69" />
  <path d="M 997.55 1002.62 L 996.32 1001.77 L 995.13 1000.87 L 993.89 1000.03" stroke="rgb(230,230,230)" stroke-opacity="0.375" stroke-width="0.68" />
  <path d="M 996.77 1001.36 L 995.45 1002.07 L 994.14 1002.80 L 992.86 1003.54 L 991.71 1004.48 L 990.51 1005.33 L 989.32 1006.21" stroke="rgb(230,230,230)" stroke-opacity="0.375" stroke-width="0.68" />
  <path d="M 991.85 996.72 L 990.38 997.04 L 988.95 997.45 L 987.52 997.89 L 986.16 998.48 L 984.79 999.02 L 983.44 999.60 L 982.11 1000.22 L 980.79 1000.84 L 979.45 1001.40 L 978.10 1001.91 L 976.76 1002.43 L 975.43 1002.98" stroke="rgb(230,230,230)" stroke-opacity="0.367" stroke-width="0.66" />
  <path d="M 1003.65 1005.74 L 1002.88 1007.03 L 1002.27 1008.39 L 1001.66 1009.75 L 1001.19 1011.15 L 1000.78 1012.57 L 1000.41 1013.99 L 1000.04 1015.41 L 999.74 1016.84 L 999.44 1018.26 L 999.15 1019.68 L 998.71 1021.05" stroke="rgb(230,230,230)" stroke-opacity="0.365" stroke-width="0.65" />
  <path d="M 1011.98 996.60 L 1012.34 995.14 L 1012.61 993.67 L 1013.04 992.24 L 1013.44 990.82 L 1013.95 989.43 L 1014.34 988.01 L 1014.81 986.63 L 1015.31 985.26" stroke="rgb(230,230,230)" stroke-opacity="0.364" stroke-width="0.65" />
  <path d="M 999.03 1000.09 L 998.13 998.89 L 997.28 997.67 L 996.49 996.40 L 995.63 995.19 L 994.78 993.99 L 994.10 992.69 L 993.35 991.43" stroke="rgb(230,230,230)" stroke-opacity="0.363" stroke-width="0.65" />
  <path d="M 1000.35 1000.91 L 998.96 1000.36 L 997.56 999.84 L 996.19 999.26 L 994.82 998.68 L 993.49 998.05 L 992.20 997.33 L 990.97 996.55 L 989.79 995.68 L 988.66 994.78 L 987.57 993.83 L 986.46 992.90 L 985.36 991.98 L 984.34 990.98" stroke="rgb(230,230,230)" stroke-opacity="0.362" stroke-width="0.64" />
  <path d="M 1000.69 993.95 L 1001.97 993.18 L 1003.26 992.42 L 1004.48 991.57 L 1005.73 990.76 L 1006.88 989.84 L 1008.08 989.00 L 1009.07 987.92 L 1009.95 986.76 L 1010.92 985.67 L 1011.87 984.58 L 1012.91 983.59 L 1013.79 982.45" stroke="rgb(230,230,230)" stroke-opacity="0.361" stroke-width="0.64" />
  <path d="M 1001.86 994.26 L 1001.11 995.55 L 1000.38 996.86 L 999.33 997.91" stroke="rgb(230,230,230)" stroke-opacity="0.359" stroke-width="0.64" />
  <path d="M 997.90 1006.54 L 997.03 1007.77 L 996.26 1009.05 L 995.40 1010.26 L 994.43 1011.38 L 993.50 1012.53 L 992.80 1013.82 L 992.09 1015.10 L 991.31 1016.33 L 990.42 1017.48 L 989.72 1018.75 L 988.90 1019.93" stroke="rgb(230,230,230)" stroke-opacity="0.358" stroke-width="0.63" />
  <path d="M 995.06 1000.62 L 996.31 999.78 L 997.52 998.91 L 998.74 998.05 L 999.87 997.10 L 1001.07 996.24 L 1002.34 995.50 L 1003.68 994.91 L 1005.12 994.66 L 1006.57 994.62 L 1007.98 994.29 L 1009.36 993.87 L 1010.73 993.44 L 1012.07 992.95 L 1013.46 992.64 L 1014.87 992.50" stroke="rgb(230,230,230)" stroke-opacity="0.357" stroke-width="0.63" />
  <path d="M 1003.08 1002.92 L 1003.93 1001.68 L 1004.63 1000.36 L 1005.32 999.04 L 1005.79 997.64" stroke="rgb(230,230,230)" stroke-opacity="0.354" stroke-width="0.62" />
  <path d="M 998.77 1001.38 L 999.94 1000.45 L 1000.97 999.36 L 1001.81 998.13 L 1002.60 996.87 L 1003.33 995.59 L 1004.11 994.35 L 1005.08 993.25 L 1005.89 992.04 L 1006.71 990.84 L 1007.60 989.70 L 1008.55 988.61" stroke="rgb(230,230,230)" stroke-opacity="0.351" stroke-width="0.61" />
</g>
</svg>
