{
  "asset": {
    "version": "2.0",
    "generator": "TES-23 Cosmic Ray Renderer"
  },
  "extensionsUsed": [
    "KHR_materials_unlit"
  ],
  "extensionsRequired": [
    "KHR_materials_unlit"
  ],
  "scene": 0,
  "scenes": [
    {
      "nodes": [
        0
      ]
    }
  ],
  "nodes": [
    {
      "name": "CosmicRayEvent",
      "mesh": 0
    }
  ],
  "meshes": [
    {
      "name": "CosmicRayEvent",
      "primitives": [
        {
          "attributes": {
            "POSITION": 0
          },
          "material": 0,
          "mode": 1
        },
        {
          "attributes": {
            "POSITION": 1
          },
          "material": 1,
          "mode": 1
        },
        {
          "attributes": {
            "POSITION": 2
          },
          "material": 2,
          "mode": 1
        },
        {
          "attributes": {
            "POSITION": 3
          },
          "material": 3,
          "mode": 1
        },
        {
          "attributes": {
            "POSITION": 4
          },
          "material": 4,
          "mode": 1
        },
        {
          "attributes": {
            "POSITION": 5
          },
          "material": 5,
          "mode": 1
        }
      ]
    }
  ],
  "materials": [
    {
      "name": "primary",
      "extensions": {
        "KHR_materials_unlit": {}
      },
      "pbrMetallicRoughness": {
        "baseColorFactor": [
          0.961,
          0.961,
          0.961,
          1
        ],
        "metallicFactor": 0,
        "roughnessFactor": 1
      }
    },
    {
      "name": "vertex",
      "extensions": {
        "KHR_materials_unlit": {}
      },
      "pbrMetallicRoughness": {
        "baseColorFactor": [
          0.902,
          0.902,
          0.902,
          0.9
        ],
        "metallicFactor": 0,
        "roughnessFactor": 1
      }
    },
    {
      "name": "em",
      "extensions": {
        "KHR_materials_unlit": {}
      },
      "pbrMetallicRoughness": {
        "baseColorFactor": [
          0.471,
          0.824,
          1,
          1
        ],
        "metallicFactor": 0,
        "roughnessFactor": 1
      }
    },
    {
      "name": "hadron",
      "extensions": {
        "KHR_materials_unlit": {}
      },
      "pbrMetallicRoughness": {
        "baseColorFactor": [
          0.549,
          1,
          0.745,
          1
        ],
        "metallicFactor": 0,
        "roughnessFactor": 1
      }
    },
    {
      "name": "delta",
      "extensions": {
        "KHR_materials_unlit": {}
      },
      "pbrMetallicRoughness": {
        "baseColorFactor": [
          0.804,
          0.647,
          1,
          1
        ],
        "metallicFactor": 0,
        "roughnessFactor": 1
      }
    },
    {
      "name": "backscatter",
      "extensions": {
        "KHR_materials_unlit": {}
      },
      "pbrMetallicRoughness": {
        "baseColorFactor": [
          1,
          0.824,
          0.529,
          0.95
        ],
        "metallicFactor": 0,
        "roughnessFactor": 1
      }
    }
  ],
  "accessors": [
    {
      "bufferView": 0,
      "byteOffset": 0,
      "componentType": 5126,
      "count": 1674,
      "type": "VEC3",
      "min": [
        -1.020162582397461,
        -0.7457035779953003,
        0
      ],
      "max": [
        0.9999287128448486,
        0.7444345355033875,
        0
      ]
    },
    {
      "bufferView": 1,
      "byteOffset": 0,
      "componentType": 5126,
      "count": 338,
      "type": "VEC3",
      "min": [
        -0.017962390556931496,
        -0.02529596909880638,
        -0.06186945363879204
      ],
      "max": [
        0.014841877855360508,
        0.0250625628978014,
        0.08869332075119019
      ]
    },
    {
      "bufferView": 2,
      "byteOffset": 0,
      "componentType": 5126,
      "count": 1374,
      "type": "VEC3",
      "min": [
        -0.2214791476726532,
        -0.002043463522568345,
        -0.04833438992500305
      ],
      "max": [
        0.0022354447282850742,
        0.16229702532291412,
        0.08643186837434769
      ]
    },
    {
      "bufferView": 3,
      "byteOffset": 0,
      "componentType": 5126,
      "count": 3646,
      "type": "VEC3",
      "min": [
        -0.3135768473148346,
        -0.15731948614120483,
        -0.36209237575531006
      ],
      "max": [
        0.2914126217365265,
        0.24553735554218292,
        0.47558900713920593
      ]
    },
    {
      "bufferView": 4,
      "byteOffset": 0,
      "componentType": 5126,
      "count": 1226,
      "type": "VEC3",
      "min": [
        -0.2646321654319763,
        -0.21865111589431763,
        -0.5392820835113525
      ],
      "max": [
        0.05038934201002121,
        0.12641479074954987,
        1.0517574548721313
      ]
    },
    {
      "bufferView": 5,
      "byteOffset": 0,
      "componentType": 5126,
      "count": 784,
      "type": "VEC3",
      "min": [
        -0.12459250539541245,
        -0.06451544910669327,
        -0.49858009815216064
      ],
      "max": [
        0.05954723060131073,
        0.16728098690509796,
        0.565902054309845
      ]
    }
  ],
  "bufferViews": [
    {
      "buffer": 0,
      "byteOffset": 0,
      "byteLength": 20088,
      "target": 34962
    },
    {
      "buffer": 0,
      "byteOffset": 20088,
      "byteLength": 4056,
      "target": 34962
    },
    {
      "buffer": 0,
      "byteOffset": 24144,
      "byteLength": 16488,
      "target": 34962
    },
    {
      "buffer": 0,
      "byteOffset": 40632,
      "byteLength": 43752,
      "target": 34962
    },
    {
      "buffer": 0,
      "byteOffset": 84384,
      "byteLength": 14712,
      "target": 34962
    },
    {
      "buffer": 0,
      "byteOffset": 99096,
      "byteLength": 9408,
      "target": 34962
    }
  ],
  "buffers": [
    {
      "byteLength": 108504,
      "uri": "data:application/octet-stream;base64,"
    }
  ]
}