<?xml version="1.0" encoding="UTF-8"?>
<svg xmlns="http://www.w3.org/2000/svg" width="2000" height="2000" viewBox="0 0 2000 2000">
<g fill="none" stroke-linecap="round" stroke-linejoin="round">
  <path d="M 1002.44 1002.87 L 999.10 1002.97 L 995.77 1003.07 L 992.46 1003.15 L 989.17 1003.25 L 985.88 1003.36 L 982.61 1003.47 L 979.35 1003.58 L 976.11 1003.68 L 972.87 1003.82 L 969.65 1003.96 L 966.45 1004.11 L 963.25 1004.26 L 960.07 1004.44 L 956.91 1004.62 L 953.75 1004.77 L 950.61 1004.92 L 947.48 1005.01 L 944.35 1005.09 L 941.25 1005.19 L 938.15 1005.30 L 935.07 1005.41 L 932.00 1005.51 L 928.94 1005.64 L 925.90 1005.70 L 922.87 1005.79 L 919.85 1005.88 L 916.84 1006.02 L 913.85 1006.12 L 910.87 1006.21 L 907.90 1006.33 L 904.94 1006.45 L 902.00 1006.59 L 899.06 1006.72 L 896.14 1006.86 L 893.23 1006.99" stroke="rgb(120,210,255)" stroke-opacity="0.772" stroke-width="1.31" />
  <path d="M 923.32 999.68 L 920.07 1000.75 L 916.82 1001.77 L 913.61 1002.85 L 910.39 1003.90 L 907.19 1004.96 L 904.00 1006.01 L 900.81 1006.99 L 897.61 1007.93 L 894.43 1008.86 L 891.25 1009.80 L 888.09 1010.72 L 884.95 1011.64 L 881.83 1012.63 L 878.74 1013.61 L 875.63 1014.56 L 872.52 1015.43 L 869.41 1016.27 L 866.31 1017.08 L 863.21 1017.88 L 860.14 1018.73 L 857.09 1019.56 L 854.04 1020.38 L 851.00 1021.21 L 847.99 1022.09 L 844.98 1022.91 L 841.99 1023.75 L 839.01 1024.60 L 836.05 1025.45 L 833.09 1026.27 L 830.12 1027.03 L 827.18 1027.82 L 824.25 1028.60 L 821.32 1029.37 L 818.43 1030.19 L 815.54 1030.99 L 812.66 1031.80 L 809.80 1032.61 L 806.95 1033.42 L 804.11 1034.24 L 801.29 1035.05 L 798.47 1035.83 L 795.65 1036.59 L 792.84 1037.30 L 790.03 1038.01 L 787.24 1038.72 L 784.46 1039.43 L 781.69 1040.13 L 778.94 1040.85 L 776.21 1041.60 L 773.48 1042.35 L 770.77 1043.08 L 768.07 1043.82 L 765.37 1044.53 L 762.70 1045.27 L 760.03 1046.02 L 757.39 1046.79" stroke="rgb(120,210,255)" stroke-opacity="0.766" stroke-width="1.30" />
  <path d="M 856.75 1010.98 L 853.30 1010.93 L 849.85 1010.77 L 846.42 1010.66 L 843.01 1010.49 L 839.62 1010.20 L 836.25 1009.89 L 832.89 1009.58 L 829.55 1009.26 L 826.22 1008.92 L 822.91 1008.53 L 819.62 1008.14 L 816.34 1007.76 L 813.07 1007.36 L 809.82 1006.96 L 806.59 1006.53 L 803.36 1006.17 L 800.15 1005.81 L 796.94 1005.52 L 793.74 1005.22 L 790.56 1004.96 L 787.38 1004.78 L 784.22 1004.57 L 781.07 1004.37 L 777.94 1004.13 L 774.82 1003.89 L 771.71 1003.66 L 768.62 1003.43" stroke="rgb(120,210,255)" stroke-opacity="0.765" stroke-width="1.30" />
  <path d="M 868.51 1007.66 L 865.20 1007.83 L 861.90 1007.92 L 858.62 1008.00 L 855.37 1008.06 L 852.13 1008.13 L 848.92 1008.15 L 845.72 1008.07 L 842.53 1007.97 L 839.38 1007.81 L 836.24 1007.65 L 833.11 1007.51 L 830.00 1007.39 L 826.91 1007.24 L 823.81 1007.11 L 820.72 1007.03 L 817.63 1006.94 L 814.54 1006.84 L 811.47 1006.78 L 808.41 1006.72 L 805.37 1006.66 L 802.35 1006.63" stroke="rgb(120,210,255)" stroke-opacity="0.762" stroke-width="1.29" />
  <path d="M 1001.53 999.55 L 998.36 999.22 L 995.20 998.94 L 992.04 998.73 L 988.89 998.54 L 985.75 998.31 L 982.62 998.05 L 979.51 997.87 L 976.41 997.63 L 973.31 997.41 L 970.23 997.19 L 967.15 997.01 L 964.09 996.81 L 961.04 996.67 L 958.00 996.49 L 954.97 996.34 L 951.95 996.27 L 948.94 996.18 L 945.95 996.11 L 942.97 996.08 L 940.00 996.06 L 937.04 996.03 L 934.08 995.96 L 931.14 995.88 L 928.21 995.78 L 925.30 995.68 L 922.39 995.59 L 919.50 995.45 L 916.62 995.25 L 913.76 995.09 L 910.90 994.85 L 908.06 994.70" stroke="rgb(120,210,255)" stroke-opacity="0.761" stroke-width="1.29" />
  <path d="M 1004.29 1000.89 L 1001.02 1000.87 L 997.76 1000.86 L 994.51 1000.85 L 991.27 1000.86 L 988.05 1000.84 L 984.84 1000.82 L 981.64 1000.81 L 978.46 1000.76 L 975.29 1000.71 L 972.13 1000.62 L 968.98 1000.55 L 965.85 1000.48 L 962.73 1000.46 L 959.62 1000.45 L 956.53 1000.39 L 953.45 1000.31 L 950.38 1000.22 L 947.32 1000.18 L 944.28 1000.16 L 941.24 1000.14 L 938.22 1000.10 L 935.21 1000.04 L 932.22 999.94 L 929.24 999.85 L 926.27 999.76 L 923.32 999.68 L 920.37 999.61 L 917.45 999.49 L 914.53 999.36 L 911.62 999.20 L 908.73 999.05 L 905.85 998.96 L 902.98 998.83 L 900.11 998.71 L 897.26 998.63 L 894.42 998.58 L 891.59 998.54 L 888.77 998.49 L 885.96 998.43 L 883.17 998.38 L 880.38 998.32 L 877.61 998.23 L 874.85 998.15 L 872.10 998.06 L 869.36 998.00 L 866.63 997.95 L 863.92 997.94 L 861.23 997.94 L 858.54 997.95 L 855.86 997.93 L 853.19 997.89 L 850.53 997.81 L 847.88 997.74 L 845.24 997.66 L 842.61 997.61 L 839.99 997.54 L 837.38 997.42 L 834.79 997.31 L 832.21 997.20 L 829.64 997.09 L 827.08 997.02 L 824.53 996.94" stroke="rgb(120,210,255)" stroke-opacity="0.761" stroke-width="1.29" />
  <path d="M 998.41 999.72 L 995.38 999.62 L 992.37 999.51 L 989.37 999.43 L 986.39 999.34 L 983.41 999.25 L 980.45 999.19 L 977.50 999.18 L 974.56 999.20 L 971.63 999.24 L 968.71 999.30 L 965.81 999.40 L 962.93 999.50 L 960.05 999.62 L 957.19 999.69 L 954.33 999.76 L 951.49 999.87 L 948.67 999.97 L 945.86 1000.09 L 943.05 1000.20 L 940.26 1000.24 L 937.48 1000.29 L 934.71 1000.34 L 931.95 1000.38 L 929.20 1000.43 L 926.46 1000.43 L 923.74 1000.46 L 921.02 1000.50 L 918.31 1000.56 L 915.61 1000.60 L 912.93 1000.62 L 910.26 1000.64 L 907.60 1000.64 L 904.95 1000.63 L 902.31 1000.62 L 899.68 1000.59 L 897.06 1000.54 L 894.46 1000.49" stroke="rgb(120,210,255)" stroke-opacity="0.567" stroke-width="1.27" />
  <path d="M 999.80 998.53 L 996.70 998.59 L 993.61 998.65 L 990.53 998.78 L 987.47 998.97 L 984.42 999.15 L 981.39 999.35 L 978.36 999.51 L 975.36 999.79 L 972.37 1000.07 L 969.39 1000.32 L 966.42 1000.59 L 963.46 1000.86 L 960.51 1001.05 L 957.57 1001.23 L 954.64 1001.35 L 951.73 1001.54 L 948.82 1001.71 L 945.93 1001.84 L 943.05 1002.01 L 940.17 1002.15 L 937.31 1002.31 L 934.46 1002.45 L 931.63 1002.59 L 928.80 1002.68 L 925.98 1002.75 L 923.17 1002.82 L 920.38 1002.91 L 917.60 1003.07 L 914.84 1003.24 L 912.08 1003.42 L 909.34 1003.59 L 906.61 1003.72 L 903.89 1003.91 L 901.18 1004.11 L 898.49 1004.30 L 895.80 1004.48 L 893.12 1004.65 L 890.45 1004.82 L 887.79 1004.98 L 885.14 1005.11 L 882.51 1005.26 L 879.88 1005.42 L 877.26 1005.52 L 874.65 1005.57 L 872.05 1005.61 L 869.46 1005.66 L 866.89 1005.72 L 864.32 1005.81 L 861.76 1005.95 L 859.22 1006.01 L 856.68 1006.08 L 854.15 1006.15 L 851.63 1006.18 L 849.12 1006.22 L 846.63 1006.24 L 844.14 1006.25 L 841.66 1006.27" stroke="rgb(120,210,255)" stroke-opacity="0.566" stroke-width="1.27" />
  <path d="M 1002.11 997.63 L 999.19 997.65 L 996.29 997.54 L 993.41 997.45 L 990.54 997.36 L 987.68 997.26 L 984.83 997.11 L 982.00 996.95 L 979.18 996.83 L 976.38 996.70 L 973.59 996.53 L 970.81 996.29 L 968.03 996.03 L 965.28 995.80 L 962.54 995.55 L 959.83 995.30 L 957.13 995.04 L 954.43 994.77 L 951.74 994.58 L 949.06 994.39 L 946.39 994.20 L 943.73 994.01 L 941.09 993.82 L 938.46 993.64 L 935.86 993.39 L 933.26 993.19 L 930.66 992.95 L 928.06 992.72 L 925.48 992.48 L 922.92 992.27 L 920.38 992.05 L 917.85 991.80 L 915.32 991.53 L 912.78 991.25 L 910.26 990.92 L 907.75 990.53 L 905.23 990.24 L 902.72 989.93 L 900.24 989.57 L 897.76 989.22 L 895.29 988.85 L 892.84 988.48 L 890.39 988.12 L 887.95 987.76 L 885.53 987.42 L 883.12 987.07" stroke="rgb(120,210,255)" stroke-opacity="0.562" stroke-width="1.25" />
  <path d="M 1001.21 999.24 L 998.48 999.27 L 995.76 999.33 L 993.05 999.39 L 990.36 999.50 L 987.69 999.68 L 985.03 999.86 L 982.38 999.94 L 979.74 1000.01 L 977.11 1000.07 L 974.49 1000.13 L 971.89 1000.19 L 969.28 1000.23 L 966.68 1000.26 L 964.10 1000.30 L 961.53 1000.37 L 958.98 1000.29 L 956.43 1000.24 L 953.90 1000.17 L 951.38 1000.07 L 948.86 999.96 L 946.35 999.86 L 943.86 999.79 L 941.38 999.76 L 938.92 999.71 L 936.46 999.69 L 934.00 999.67 L 931.55 999.66 L 929.12 999.79 L 926.73 999.92 L 924.33 999.98 L 921.96 1000.01 L 919.59 1000.04 L 917.23 1000.10 L 914.88 1000.16 L 912.54 1000.23 L 910.20 1000.28 L 907.89 1000.26 L 905.58 1000.07 L 903.30 999.94 L 901.03 999.83 L 898.82 999.72 L 896.62 999.59 L 894.43 999.47 L 892.24 999.34 L 890.04 999.19" stroke="rgb(120,210,255)" stroke-opacity="0.540" stroke-width="1.18" />
  <path d="M 902.98 998.83 L 900.40 999.25 L 897.87 999.82 L 895.34 1000.37 L 892.83 1000.95 L 890.35 1001.60 L 887.87 1002.26 L 885.43 1002.99 L 882.98 1003.65 L 880.54 1004.33 L 878.11 1005.00 L 875.71 1005.70 L 873.32 1006.40 L 870.91 1007.02 L 868.51 1007.66 L 866.13 1008.31 L 863.76 1008.97 L 861.41 1009.65 L 859.07 1010.30 L 856.75 1010.98 L 854.45 1011.69 L 852.18 1012.47 L 849.91 1013.25 L 847.66 1014.08 L 845.42 1014.88 L 843.18 1015.66 L 840.94 1016.43 L 838.68 1017.07 L 836.43 1017.74 L 834.18 1018.38 L 831.93 1018.96" stroke="rgb(120,210,255)" stroke-opacity="0.537" stroke-width="1.17" />
  <path d="M 999.78 997.87 L 997.19 997.97 L 994.61 998.01 L 992.04 998.05 L 989.49 998.06 L 986.94 998.03 L 984.40 998.00 L 981.87 997.81 L 979.36 997.58 L 976.87 997.35 L 974.38 997.10 L 971.90 996.89 L 969.43 996.71 L 966.97 996.54 L 964.51 996.45 L 962.06 996.37 L 959.63 996.24 L 957.20 996.15 L 954.78 996.07 L 952.37 996.01 L 949.97 995.95 L 947.58 995.77 L 945.21 995.63 L 942.84 995.50 L 940.49 995.31 L 938.14 995.11" stroke="rgb(120,210,255)" stroke-opacity="0.531" stroke-width="1.15" />
  <path d="M 999.44 1004.14 L 996.92 1004.13 L 994.40 1004.07 L 991.90 1004.02 L 989.41 1003.85 L 986.94 1003.61 L 984.48 1003.41 L 982.03 1003.13 L 979.60 1002.83 L 977.17 1002.55 L 974.75 1002.26 L 972.35 1001.99 L 969.95 1001.74 L 967.56 1001.49 L 965.19 1001.20 L 962.82 1000.89 L 960.48 1000.51 L 958.14 1000.14 L 955.82 999.72 L 953.51 999.30 L 951.21 998.91 L 948.91 998.52 L 946.62 998.16 L 944.34 997.81 L 942.07 997.45 L 939.81 997.07 L 937.55 996.76 L 935.29 996.46 L 933.06 996.11 L 930.83 995.77 L 928.61 995.44 L 926.39 995.11 L 924.19 994.78 L 921.98 994.54 L 919.78 994.33 L 917.59 994.12" stroke="rgb(120,210,255)" stroke-opacity="0.531" stroke-width="1.15" />
  <path d="M 1002.35 999.90 L 1000.01 999.80 L 997.66 999.84 L 995.33 999.91 L 993.00 999.96 L 990.69 1000.02 L 988.38 1000.09 L 986.09 1000.09 L 983.80 1000.13 L 981.52 1000.05 L 979.25 1000.03 L 977.01 999.98 L 974.77 999.93 L 972.54 999.90 L 970.33 999.90 L 968.13 999.93 L 965.95 999.95 L 963.80 999.87 L 961.64 999.78 L 959.49 999.70 L 957.34 999.62 L 955.19 999.52 L 953.06 999.41 L 950.94 999.28 L 948.82 999.18 L 946.71 999.07" stroke="rgb(120,210,255)" stroke-opacity="0.515" stroke-width="1.09" />
  <path d="M 2000.25 980.30 L 1997.02 980.54 L 1994.20 980.56 L 1990.66 980.87 L 1988.24 980.81 L 1985.00 980.71 L 1981.99 980.33 L 1978.40 980.38 L 1976.05 980.87 L 1972.93 980.92 L 1970.02 981.34 L 1967.01 981.16 L 1964.24 980.95 L 1960.89 981.13 L 1957.75 981.11 L 1954.75 981.20 L 1952.01 981.46 L 1949.28 981.58 L 1945.86 981.39 L 1942.54 981.46 L 1940.05 981.52 L 1937.12 981.38 L 1934.00 981.09 L 1931.04 981.68 L 1927.89 982.19 L 1924.74 982.18 L 1921.97 981.93 L 1918.67 981.96 L 1916.36 982.19 L 1913.30 982.23 L 1910.20 982.58 L 1906.84 982.20 L 1904.20 982.09 L 1901.31 982.20 L 1898.50 982.75 L 1894.88 982.20 L 1892.04 982.42 L 1888.99 982.14 L 1886.42 982.74 L 1883.04 982.74 L 1880.26 983.37 L 1877.08 982.68 L 1873.51 982.79 L 1871.02 983.17 L 1867.79 983.11 L 1864.90 983.19 L 1862.12 983.27 L 1859.11 983.08 L 1856.04 983.02 L 1852.98 983.33 L 1849.68 983.48 L 1846.80 983.51 L 1843.69 983.42 L 1840.93 983.48 L 1837.90 983.61 L 1834.75 983.67 L 1832.11 983.46 L 1829.26 983.60 L 1826.14 983.84 L 1822.96 984.56 L 1819.77 984.32 L 1817.13 984.07 L 1814.15 984.00 L 1811.18 984.05 L 1807.44 984.16 L 1805.07 984.11 L 1802.10 984.32 L 1799.22 984.18 L 1795.76 984.52 L 1793.22 984.54 L 1789.71 984.39 L 1787.17 984.98 L 1784.13 984.66 L 1781.23 984.77 L 1777.84 984.57 L 1775.11 984.86 L 1772.13 984.72 L 1769.12 985.09 L 1765.88 985.34 L 1763.48 984.87 L 1759.95 985.05 L 1756.96 985.53 L 1754.46 985.58 L 1750.85 985.35 L 1748.19 985.23 L 1745.30 985.38 L 1742.33 985.71 L 1739.21 985.75 L 1736.01 985.40 L 1733.11 985.54 L 1730.33 985.85 L 1727.05 986.26 L 1723.98 986.13 L 1721.13 985.88 L 1718.10 985.95 L 1715.26 986.03 L 1712.14 985.87 L 1709.29 986.12 L 1706.17 986.39 L 1703.57 986.14 L 1700.24 985.95 L 1697.29 986.40 L 1693.69 986.85 L 1690.84 986.70 L 1688.08 986.39 L 1684.52 986.78 L 1682.41 986.68 L 1679.09 986.36 L 1675.96 986.74 L 1673.23 986.52 L 1669.91 987.04 L 1667.39 986.92 L 1663.81 987.27 L 1661.10 987.18 L 1657.51 987.21 L 1655.17 987.50 L 1651.98 987.13 L 1649.22 987.15 L 1646.25 987.30 L 1642.75 987.38 L 1640.19 987.18 L 1636.90 987.68 L 1634.17 987.00 L 1631.07 987.47 L 1627.97 987.87 L 1624.90 988.03 L 1621.64 987.97 L 1618.62 987.75 L 1616.02 987.66 L 1612.91 988.12 L 1609.83 987.97 L 1607.15 988.35 L 1603.83 988.22 L 1601.42 988.17 L 1597.77 987.97 L 1595.26 987.82 L 1591.54 988.30 L 1589.44 988.54 L 1586.39 988.67 L 1583.01 988.49 L 1580.20 988.47 L 1577.04 988.91 L 1573.87 988.86 L 1570.89 988.74 L 1568.35 989.04 L 1564.95 988.61 L 1562.09 989.25 L 1559.03 988.84 L 1556.38 989.46 L 1553.33 989.18 L 1550.01 989.34 L 1546.93 989.05 L 1543.99 989.58 L 1540.92 989.44 L 1538.20 989.47 L 1535.50 989.36 L 1532.33 989.81 L 1529.71 989.62 L 1526.29 989.93 L 1523.18 989.79 L 1519.92 989.72 L 1516.79 990.26 L 1514.06 989.82 L 1511.53 989.67 L 1507.99 990.23 L 1505.27 990.33 L 1502.02 990.35 L 1499.43 989.84 L 1496.25 990.05 L 1493.34 990.39 L 1490.21 990.03 L 1487.40 990.45 L 1484.18 990.96 L 1481.16 990.51 L 1477.99 990.70 L 1474.57 990.57 L 1472.55 990.91 L 1469.09 991.25 L 1466.02 990.63 L 1462.78 990.93 L 1459.91 990.91 L 1456.90 990.87 L 1454.25 991.38 L 1451.30 990.76 L 1448.37 991.39 L 1445.47 991.62 L 1441.88 991.45 L 1438.91 991.38 L 1436.28 991.59 L 1433.03 991.74 L 1430.28 991.34 L 1426.73 991.68 L 1423.65 991.39 L 1421.08 991.89 L 1417.86 991.52 L 1415.67 991.78 L 1411.78 991.81 L 1408.71 991.57 L 1406.35 991.95 L 1403.22 992.30 L 1400.15 992.30 L 1397.17 992.12 L 1394.12 992.28 L 1391.04 992.57 L 1388.06 992.66 L 1385.02 992.37 L 1382.29 992.25 L 1378.99 992.38 L 1376.14 992.52 L 1373.28 992.16 L 1370.03 992.74 L 1366.96 992.84 L 1364.05 993.03 L 1361.15 993.25 L 1358.16 992.65 L 1355.20 992.92 L 1352.11 992.77 L 1349.05 992.96 L 1345.77 993.25 L 1343.25 993.57 L 1340.21 993.18 L 1337.15 993.84 L 1333.95 993.52 L 1331.11 993.60 L 1328.58 993.57 L 1325.29 993.65 L 1321.72 993.97 L 1319.30 993.94 L 1316.25 993.69 L 1313.23 994.31 L 1309.89 994.40 L 1307.44 994.16 L 1304.19 994.13 L 1301.38 994.37 L 1298.17 994.25 L 1295.43 994.17 L 1292.08 994.05 L 1289.03 994.22 L 1285.94 994.30 L 1283.29 994.00 L 1279.76 994.80 L 1276.73 994.12 L 1274.53 994.70 L 1271.31 994.55 L 1268.23 994.49 L 1265.15 995.27 L 1262.03 994.73 L 1259.08 994.80 L 1256.12 995.01 L 1253.57 995.38 L 1250.33 995.22 L 1247.21 995.04 L 1244.05 995.26 L 1241.17 995.12 L 1237.91 995.24 L 1235.00 995.37 L 1232.23 995.17 L 1229.26 995.62 L 1226.28 995.75 L 1223.25 995.35 L 1220.45 995.51 L 1217.12 995.74 L 1214.09 995.97 L 1211.08 996.02 L 1208.26 996.42 L 1204.90 996.09 L 1202.52 995.92 L 1199.17 996.46 L 1196.16 996.18 L 1192.98 996.08 L 1190.28 996.24 L 1187.14 996.54 L 1184.01 996.30 L 1180.78 996.35 L 1178.04 996.58 L 1174.78 996.83 L 1172.18 996.20 L 1169.05 997.06 L 1166.32 997.07 L 1163.42 996.92 L 1160.17 997.13 L 1156.88 996.83 L 1154.06 997.36 L 1150.75 996.93 L 1148.13 996.78 L 1145.00 997.10 L 1142.40 997.22 L 1139.26 997.30 L 1135.66 997.21 L 1133.65 997.47 L 1130.37 997.67 L 1126.97 997.76 L 1124.33 997.72 L 1121.18 997.65 L 1118.01 997.89 L 1115.33 997.63 L 1111.89 997.51 L 1108.97 997.64 L 1106.20 997.87 L 1102.87 997.87 L 1100.29 998.08 L 1096.93 997.98 L 1094.23 998.60 L 1091.26 998.11 L 1088.05 998.22 L 1085.04 998.26 L 1082.37 998.42 L 1079.64 998.32 L 1075.87 998.66 L 1073.04 998.67 L 1070.13 998.34 L 1066.91 998.38 L 1063.88 999.08 L 1061.25 998.89 L 1058.49 998.71 L 1055.36 998.78 L 1052.17 999.27 L 1049.35 998.70 L 1046.16 999.03 L 1043.49 998.96 L 1040.26 998.99 L 1036.62 999.39 L 1034.02 999.64 L 1030.96 999.09 L 1028.38 999.08 L 1025.28 999.60 L 1022.28 999.46 L 1019.21 999.65 L 1015.95 999.48 L 1013.51 999.57 L 1010.01 999.64 L 1006.96 999.94 L 1004.62 999.90 L 1001.23 999.59 L 1000.00 1000.00 L 997.00 1000.02 L 994.01 1000.20 L 991.01 1000.42 L 988.05 1000.90 L 985.07 1001.23 L 982.08 1001.41 L 979.08 1001.63 L 976.09 1001.84 L 973.09 1001.95 L 970.11 1002.25 L 967.13 1002.60 L 964.17 1003.12 L 961.26 1003.82 L 958.37 1004.65 L 955.50 1005.50 L 952.62 1006.37 L 949.85 1007.50 L 947.00 1008.43 L 944.15 1009.38 L 941.33 1010.41 L 938.44 1011.20 L 935.54 1011.98 L 932.70 1012.94 L 929.90 1014.01 L 927.09 1015.07 L 924.28 1016.13 L 921.42 1017.04 L 918.53 1017.82 L 915.65 1018.66 L 912.72 1019.32 L 909.79 1019.96 L 906.88 1020.70 L 904.02 1021.60 L 901.15 1022.46 L 898.23 1023.15 L 895.32 1023.90 L 892.44 1024.72 L 889.64 1025.81 L 886.78 1026.70 L 883.90 1027.56 L 881.08 1028.58 L 878.22 1029.49 L 875.34 1030.34 L 872.51 1031.31 L 869.61 1032.10 L 866.76 1033.03 L 863.86 1033.81 L 860.95 1034.52 L 858.08 1035.40 L 855.24 1036.36 L 852.31 1037.01 L 849.32 1037.26 L 846.36 1037.73 L 843.43 1038.39 L 840.56 1039.26 L 837.67 1040.07 L 834.70 1040.47 L 831.74 1040.96 L 828.80 1041.58 L 825.86 1042.16 L 822.87 1042.44 L 819.88 1042.61 L 816.88 1042.53 L 813.92 1042.02 L 810.99 1041.37 L 808.02 1040.99 L 805.07 1040.41 L 802.13 1039.86 L 799.17 1039.34 L 796.17 1039.28 L 793.19 1038.97 L 790.20 1038.69 L 787.22 1038.39 L 784.22 1038.26 L 781.22 1038.21 L 778.25 1037.81 L 775.28 1037.37 L 772.32 1036.85 L 769.39 1036.22 L 766.52 1035.33 L 763.56 1034.89 L 760.59 1034.44 L 757.61 1034.08 L 754.62 1033.89 L 751.63 1033.66 L 748.63 1033.52 L 745.63 1033.58 L 742.64 1033.36 L 739.65 1033.17 L 736.67 1032.77 L 733.72 1032.23 L 730.84 1031.40 L 727.93 1030.67 L 725.00 1030.01 L 722.09 1029.30 L 719.11 1028.91 L 716.11 1028.92 L 713.12 1029.14 L 710.12 1029.16 L 707.12 1029.23 L 704.13 1029.46 L 701.14 1029.18 L 698.16 1028.88 L 695.17 1028.65 L 692.22 1028.09 L 689.34 1027.23 L 686.44 1026.48 L 683.52 1025.80 L 680.60 1025.08 L 677.74 1024.21 L 674.82 1023.50 L 671.91 1022.76 L 669.01 1022.00 L 666.17 1021.04 L 663.40 1019.88 L 660.51 1019.09 L 657.58 1018.43 L 654.70 1017.61 L 651.78 1016.92 L 648.94 1015.93 L 646.12 1014.93 L 643.22 1014.15 L 640.35 1013.27 L 637.50 1012.34 L 634.57 1011.67 L 631.66 1010.95 L 628.77 1010.14 L 625.92 1009.22 L 622.99 1008.57 L 620.03 1008.05 L 617.06 1007.63 L 614.06 1007.66 L 611.07 1007.82 L 608.14 1008.48 L 605.16 1008.80 L 602.17 1009.04 L 599.18 1009.29 L 596.22 1009.81 L 593.26 1010.28 L 590.34 1010.96 L 587.41 1011.63 L 584.45 1012.10 L 581.53 1012.77 L 578.55 1013.12 L 575.55 1013.29 L 572.58 1013.66 L 569.61 1014.14 L 566.68 1014.78 L 563.77 1015.51 L 561.00 1016.66 L 558.19 1017.71 L 555.31 1018.55 L 552.42 1019.33 L 549.57 1020.28 L 546.70 1021.16 L 543.82 1022.00 L 540.98 1022.97 L 538.11 1023.85 L 535.18 1024.45 L 532.25 1025.10 L 529.28 1025.53 L 526.38 1026.31 L 523.48 1027.08 L 520.61 1027.93 L 517.74 1028.81 L 514.86 1029.67 L 512.10 1030.85 L 509.30 1031.92 L 506.67 1033.36 L 504.10 1034.91 L 501.37 1036.15 L 498.71 1037.54 L 495.96 1038.75 L 493.28 1040.09 L 490.77 1041.73 L 488.34 1043.49 L 485.76 1045.03 L 483.28 1046.71 L 480.81 1048.42 L 478.36 1050.15 L 475.88 1051.84 L 473.35 1053.45 L 470.69 1054.84 L 468.00 1056.17 L 465.29 1057.45 L 462.58 1058.72 L 459.93 1060.14 L 457.41 1061.77 L 454.89 1063.40 L 452.28 1064.87 L 449.55 1066.11 L 446.78 1067.26 L 443.90 1068.12 L 441.02 1068.96 L 438.14 1069.80 L 435.40 1071.02 L 432.73 1072.39 L 430.16 1073.93 L 427.53 1075.38 L 424.74 1076.47 L 422.04 1077.78 L 419.31 1079.02 L 416.63 1080.37 L 414.04 1081.88 L 411.51 1083.50 L 408.93 1085.03 L 406.45 1086.72 L 403.91 1088.32 L 401.20 1089.60 L 398.65 1091.19 L 396.05 1092.69 L 393.47 1094.21 L 390.81 1095.59 L 388.06 1096.80 L 385.22 1097.77 L 382.34 1098.62 L 379.59 1099.81 L 376.72 1100.69 L 373.89 1101.69 L 371.05 1102.64 L 368.15 1103.41 L 365.23 1104.11 L 362.32 1104.83 L 359.51 1105.87 L 356.76 1107.08 L 354.10 1108.46 L 351.54 1110.03 L 348.98 1111.59 L 346.38 1113.09 L 343.77 1114.56 L 341.04 1115.82 L 338.26 1116.93 L 335.42 1117.91 L 332.53 1118.72 L 329.69 1119.68 L 326.86 1120.69 L 324.08 1121.81 L 321.24 1122.77 L 318.33 1123.51 L 315.47 1124.43 L 312.62 1125.35 L 309.82 1126.43 L 307.02 1127.51 L 304.27 1128.72 L 301.51 1129.89 L 298.79 1131.15 L 295.99 1132.23 L 293.22 1133.38 L 290.51 1134.67 L 287.77 1135.88 L 284.97 1136.95 L 282.07 1137.74 L 279.16 1138.46 L 276.20 1138.94 L 273.26 1139.55 L 270.36 1140.33 L 267.53 1141.32 L 264.61 1141.99 L 261.76 1142.93 L 258.96 1144.01 L 256.08 1144.83 L 253.24 1145.82 L 250.30 1146.40 L 247.35 1146.95 L 244.41 1147.57 L 241.52 1148.38 L 238.62 1149.13 L 235.65 1149.51 L 232.70 1150.06 L 229.70 1150.29 L 226.73 1150.65 L 223.76 1151.12 L 220.77 1151.35 L 217.80 1151.73 L 214.80 1151.93 L 211.80 1152.02 L 208.83 1151.66 L 205.88 1151.06 L 202.97 1150.37 L 200.01 1149.87 L 197.08 1149.21 L 194.22 1148.30 L 191.40 1147.29 L 188.61 1146.19 L 185.97 1144.75 L 183.33 1143.34 L 180.60 1142.10 L 177.81 1140.99 L 175.05 1139.81 L 172.21 1138.84 L 169.45 1137.66 L 166.69 1136.48 L 163.85 1135.51 L 161.10 1134.33 L 158.31 1133.22 L 155.55 1132.04 L 152.78 1130.89 L 149.99 1129.79 L 147.20 1128.68 L 144.39 1127.64 L 141.56 1126.63 L 138.76 1125.56 L 136.06 1124.25 L 133.28 1123.12 L 130.50 1122.01 L 127.71 1120.89 L 124.93 1119.77 L 122.13 1118.71 L 119.22 1117.97 L 116.30 1117.25 L 113.38 1116.58 L 110.47 1115.85 L 107.60 1114.99 L 104.79 1113.94 L 102.08 1112.65 L 99.35 1111.39 L 96.61 1110.18 L 93.90 1108.90 L 91.23 1107.52 L 88.42 1106.48 L 85.71 1105.19 L 83.08 1103.75 L 80.58 1102.09 L 77.91 1100.73 L 75.25 1099.34 L 72.54 1098.05 L 69.71 1097.04 L 66.88 1096.04 L 64.12 1094.87 L 61.41 1093.60 L 58.74 1092.23 L 56.18 1090.66 L 53.74 1088.91 L 51.28 1087.20 L 48.87 1085.40 L 46.53 1083.54 L 44.17 1081.67 L 41.95 1079.67 L 39.66 1077.72 L 37.25 1075.94 L 34.79 1074.23 L 32.22 1072.68 L 29.50 1071.40 L 26.79 1070.12 L 24.18 1068.64 L 21.57 1067.16 L 18.83 1065.93 L 16.06 1064.78 L 13.22 1063.81 L 10.47 1062.62 L 7.63 1061.64 L 4.83 1060.57 L 2.03 1059.51 L -0.70 1058.26 L -3.44 1057.03 L -6.18 1055.81 L -8.90 1054.56 L -11.60 1053.24 L -14.30 1051.94 L -16.97 1050.56 L -19.62 1049.17 L -22.24 1047.70" stroke="rgb(245,245,245)" stroke-opacity="0.586" stroke-width="0.80" />
  <path d="M 995.26 998.41 L 994.07 999.05 L 992.91 999.67 L 991.76 1000.28 L 990.64 1000.83 L 989.50 1001.38 L 988.38 1001.90 L 987.16 1002.34 L 985.97 1002.95 L 984.76 1003.61 L 983.56 1004.31" stroke="rgb(230,230,230)" stroke-opacity="0.379" stroke-width="0.69" />
  <path d="M 997.93 993.01 L 998.55 992.17 L 999.15 991.35 L 999.63 990.58 L 1000.12 989.77 L 1000.60 988.97 L 1001.06 988.17" stroke="rgb(230,230,230)" stroke-opacity="0.378" stroke-width="0.69" />
  <path d="M 1001.97 998.15 L 1002.22 999.17 L 1002.50 1000.17 L 1002.66 1001.24 L 1002.78 1002.47" stroke="rgb(230,230,230)" stroke-opacity="0.375" stroke-width="0.68" />
  <path d="M 994.44 998.09 L 995.06 996.77 L 995.68 995.46 L 996.28 994.14 L 996.91 992.84 L 997.40 991.50 L 997.98 990.16 L 998.53 988.81 L 999.12 987.49 L 999.71 986.18" stroke="rgb(230,230,230)" stroke-opacity="0.374" stroke-width="0.68" />
  <path d="M 995.52 997.00 L 995.40 995.58 L 995.28 994.17 L 995.12 992.80 L 994.99 991.42 L 994.79 990.05 L 994.56 988.68 L 994.53 987.30 L 994.48 985.94 L 994.34 984.60 L 993.96 983.29 L 993.49 982.06" stroke="rgb(230,230,230)" stroke-opacity="0.370" stroke-width="0.67" />
  <path d="M 997.53 997.10 L 998.38 996.53 L 999.23 995.93 L 1000.11 995.35 L 1000.90 994.85" stroke="rgb(230,230,230)" stroke-opacity="0.369" stroke-width="0.66" />
  <path d="M 997.83 995.55 L 999.16 996.21 L 1000.51 996.84 L 1001.82 997.50 L 1003.10 998.23" stroke="rgb(230,230,230)" stroke-opacity="0.365" stroke-width="0.65" />
  <path d="M 1001.61 1002.62 L 1001.99 1004.05 L 1002.30 1005.50 L 1002.57 1006.94 L 1002.72 1008.41 L 1002.95 1009.85 L 1003.18 1011.29 L 1003.37 1012.73" stroke="rgb(230,230,230)" stroke-opacity="0.365" stroke-width="0.65" />
  <path d="M 1001.37 1002.49 L 1000.43 1002.77 L 999.53 1003.06 L 998.74 1003.40 L 997.98 1003.66 L 997.13 1003.98 L 996.30 1004.37" stroke="rgb(230,230,230)" stroke-opacity="0.364" stroke-width="0.65" />
  <path d="M 1007.42 1000.49 L 1008.14 999.41 L 1008.36 998.19 L 1008.29 996.93 L 1007.98 995.64 L 1007.76 994.47 L 1007.54 993.31 L 1007.40 992.13 L 1007.06 991.00 L 1006.68 989.92 L 1006.34 988.72 L 1005.89 987.52 L 1005.46 986.32 L 1005.06 985.13 L 1004.48 983.99 L 1003.93 983.04" stroke="rgb(230,230,230)" stroke-opacity="0.361" stroke-width="0.64" />
  <path d="M 1000.76 1001.13 L 1001.52 1001.87 L 1002.40 1002.50 L 1003.46 1002.99" stroke="rgb(230,230,230)" stroke-opacity="0.359" stroke-width="0.64" />
  <path d="M 993.42 1000.23 L 992.31 1000.28 L 991.08 1000.37 L 989.87 1000.43 L 988.68 1000.41 L 987.50 1000.40 L 986.39 1000.44 L 985.28 1000.35 L 984.24 1000.21 L 983.24 1000.04 L 982.23 999.87 L 981.31 999.54 L 980.42 999.19 L 979.50 998.86" stroke="rgb(230,230,230)" stroke-opacity="0.357" stroke-width="0.63" />
  <path d="M 999.34 997.75 L 1000.26 996.65 L 1001.29 995.64 L 1002.45 994.81" stroke="rgb(230,230,230)" stroke-opacity="0.357" stroke-width="0.63" />
  <path d="M 998.20 999.80 L 997.46 999.71 L 996.76 999.62 L 995.86 999.41 L 994.79 999.32 L 993.69 999.27 L 992.58 999.23 L 991.65 999.16 L 990.65 999.18 L 989.65 999.21" stroke="rgb(230,230,230)" stroke-opacity="0.356" stroke-width="0.63" />
  <path d="M 1010.02 1005.61 L 1011.51 1005.69 L 1012.94 1005.73 L 1014.27 1005.69 L 1015.66 1005.72 L 1016.95 1005.87 L 1018.23 1006.01" stroke="rgb(230,230,230)" stroke-opacity="0.354" stroke-width="0.62" />
  <path d="M 1002.42 997.54 L 1002.89 998.74 L 1003.27 999.91 L 1003.71 1001.07 L 1004.07 1002.26 L 1004.45 1003.46 L 1004.89 1004.64 L 1005.06 1005.74 L 1005.35 1006.86 L 1005.75 1007.98 L 1006.15 1009.12 L 1006.49 1010.24" stroke="rgb(230,230,230)" stroke-opacity="0.354" stroke-width="0.62" />
  <path d="M 994.98 993.72 L 995.64 993.33 L 996.30 992.94 L 996.97 992.53 L 997.78 992.19 L 998.59 991.87 L 999.42 991.58 L 1000.14 991.43 L 1000.87 991.29" stroke="rgb(230,230,230)" stroke-opacity="0.350" stroke-width="0.61" />
  <path d="M 999.84 999.56 L 998.52 999.42 L 997.18 999.46 L 995.93 999.43 L 994.70 999.32 L 993.44 999.23 L 992.18 999.13 L 991.17 998.92 L 990.16 998.50 L 989.23 998.02 L 988.30 997.50 L 987.40 996.91" stroke="rgb(230,230,230)" stroke-opacity="0.348" stroke-width="0.61" />
</g>
</svg>
