{
  "asset": {
    "version": "2.0",
    "generator": "TES-23 Cosmic Ray Renderer"
  },
  "extensionsUsed": [
    "KHR_materials_unlit"
  ],
  "extensionsRequired": [
    "KHR_materials_unlit"
  ],
  "scene": 0,
  "scenes": [
    {
      "nodes": [
        0
      ]
    }
  ],
  "nodes": [
    {
      "name": "CosmicRayEvent",
      "mesh": 0
    }
  ],
  "meshes": [
    {
      "name": "CosmicRayEvent",
      "primitives": [
        {
          "attributes": {
            "POSITION": 0
          },
          "material": 0,
          "mode": 1
        },
        {
          "attributes": {
            "POSITION": 1
          },
          "material": 1,
          "mode": 1
        },
        {
          "attributes": {
            "POSITION": 2
          },
          "material": 2,
          "mode": 1
        },
        {
          "attributes": {
            "POSITION": 3
          },
          "material": 3,
          "mode": 1
        },
        {
          "attributes": {
            "POSITION": 4
          },
          "material": 4,
          "mode": 1
        }
      ]
    }
  ],
  "materials": [
    {
      "name": "primary",
      "extensions": {
        "KHR_materials_unlit": {}
      },
      "pbrMetallicRoughness": {
        "baseColorFactor": [
          0.961,
          0.961,
          0.961,
          1
        ],
        "metallicFactor": 0,
        "roughnessFactor": 1
      }
    },
    {
      "name": "vertex",
      "extensions": {
        "KHR_materials_unlit": {}
      },
      "pbrMetallicRoughness": {
        "baseColorFactor": [
          0.902,
          0.902,
          0.902,
          0.9
        ],
        "metallicFactor": 0,
        "roughnessFactor": 1
      }
    },
    {
      "name": "em",
      "extensions": {
        "KHR_materials_unlit": {}
      },
      "pbrMetallicRoughness": {
        "baseColorFactor": [
          0.471,
          0.824,
          1,
          1
        ],
        "metallicFactor": 0,
        "roughnessFactor": 1
      }
    },
    {
      "name": "hadron",
      "extensions": {
        "KHR_materials_unlit": {}
      },
      "pbrMetallicRoughness": {
        "baseColorFactor": [
          0.549,
          1,
          0.745,
          1
        ],
        "metallicFactor": 0,
        "roughnessFactor": 1
      }
    },
    {
      "name": "delta",
      "extensions": {
        "KHR_materials_unlit": {}
      },
      "pbrMetallicRoughness": {
        "baseColorFactor": [
          0.804,
          0.647,
          1,
          1
        ],
        "metallicFactor": 0,
        "roughnessFactor": 1
      }
    }
  ],
  "accessors": [
    {
      "bufferView": 0,
      "byteOffset": 0,
      "componentType": 5126,
      "count": 1366,
      "type": "VEC3",
      "min": [
        -1.0209470987319946,
        -0.16955415904521942,
        0
      ],
      "max": [
        0.9998886585235596,
        0.16139036417007446,
        0
      ]
    },
    {
      "bufferView": 1,
      "byteOffset": 0,
      "componentType": 5126,
      "count": 274,
      "type": "VEC3",
      "min": [
        -0.012485500425100327,
        -0.015764331445097923,
        -0.04995989799499512
      ],
      "max": [
        0.015906425192952156,
        0.015715043991804123,
        0.0430167019367218
      ]
    },
    {
      "bufferView": 2,
      "byteOffset": 0,
      "componentType": 5126,
      "count": 1174,
      "type": "VEC3",
      "min": [
        -0.3315489590167999,
        -0.06306497752666473,
        -0.0857657939195633
      ],
      "max": [
        0.00403533736243844,
        0.003333518048748374,
        0.08274029195308685
      ]
    },
    {
      "bufferView": 3,
      "byteOffset": 0,
      "componentType": 5126,
      "count": 2982,
      "type": "VEC3",
      "min": [
        -0.29033830761909485,
        -0.10195071995258331,
        -0.6068407893180847
      ],
      "max": [
        0.032578304409980774,
        0.026725519448518753,
        0.5065919756889343
      ]
    },
    {
      "bufferView": 4,
      "byteOffset": 0,
      "componentType": 5126,
      "count": 880,
      "type": "VEC3",
      "min": [
        -0.17416130006313324,
        -0.04061591997742653,
        -0.1318632960319519
      ],
      "max": [
        0.026475008577108383,
        0.014609061181545258,
        0.515160083770752
      ]
    }
  ],
  "bufferViews": [
    {
      "buffer": 0,
      "byteOffset": 0,
      "byteLength": 16392,
      "target": 34962
    },
    {
      "buffer": 0,
      "byteOffset": 16392,
      "byteLength": 3288,
      "target": 34962
    },
    {
      "buffer": 0,
      "byteOffset": 19680,
      "byteLength": 14088,
      "target": 34962
    },
    {
      "buffer": 0,
      "byteOffset": 33768,
      "byteLength": 35784,
      "target": 34962
    },
    {
      "buffer": 0,
      "byteOffset": 69552,
      "byteLength": 10560,
      "target": 34962
    }
  ],
  "buffers": [
    {
      "byteLength": 80112,
      "uri": "data:application/octet-stream;base64,"
    }
  ]
}