<?xml version="1.0" encoding="UTF-8"?>
<svg xmlns="http://www.w3.org/2000/svg" width="2000" height="2000" viewBox="0 0 2000 2000">
<g fill="none" stroke-linecap="round" stroke-linejoin="round">
  <path d="M 766.65 2000.16 L 767.40 1996.78 L 767.56 1994.31 L 768.86 1991.35 L 769.27 1988.20 L 770.55 1985.20 L 770.79 1982.61 L 771.25 1979.59 L 772.32 1976.77 L 772.76 1973.81 L 773.06 1970.95 L 774.07 1968.25 L 774.79 1964.45 L 775.45 1961.70 L 775.75 1959.13 L 776.75 1956.53 L 777.41 1953.11 L 778.03 1950.60 L 778.40 1947.51 L 779.18 1944.45 L 780.03 1941.52 L 780.67 1938.63 L 781.45 1935.35 L 782.00 1933.04 L 782.76 1929.71 L 783.62 1927.06 L 784.06 1923.77 L 785.01 1921.15 L 785.73 1918.04 L 786.70 1915.36 L 786.96 1912.50 L 787.61 1909.75 L 788.14 1906.31 L 789.09 1903.69 L 789.74 1900.66 L 790.24 1897.75 L 791.14 1894.59 L 791.61 1892.18 L 792.63 1889.03 L 793.11 1886.22 L 793.69 1883.29 L 794.46 1880.01 L 795.14 1877.45 L 795.92 1874.31 L 796.07 1871.20 L 797.48 1868.69 L 798.03 1865.79 L 798.90 1862.48 L 799.50 1859.63 L 799.90 1856.96 L 800.87 1854.16 L 801.36 1850.95 L 801.95 1847.90 L 802.56 1845.49 L 803.47 1842.09 L 804.19 1838.91 L 805.23 1836.46 L 805.26 1833.47 L 806.35 1830.74 L 806.59 1827.87 L 807.20 1824.80 L 808.42 1821.77 L 808.65 1818.85 L 809.34 1815.55 L 810.21 1813.00 L 811.08 1810.19 L 811.25 1807.23 L 812.30 1804.14 L 812.83 1801.17 L 813.29 1798.65 L 814.36 1796.01 L 815.23 1792.36 L 815.20 1789.79 L 816.43 1786.95 L 817.03 1783.65 L 817.99 1780.74 L 818.71 1778.29 L 819.04 1775.06 L 819.93 1771.93 L 820.67 1769.40 L 821.38 1766.20 L 821.97 1763.67 L 822.39 1759.97 L 823.19 1757.53 L 824.12 1754.84 L 824.32 1752.11 L 825.34 1749.07 L 825.93 1745.78 L 826.32 1743.04 L 827.30 1739.94 L 828.03 1736.78 L 828.23 1733.99 L 829.39 1731.32 L 829.91 1727.96 L 830.42 1725.05 L 831.66 1722.38 L 832.07 1719.67 L 832.80 1716.40 L 832.88 1712.93 L 833.72 1710.87 L 834.95 1708.12 L 835.38 1704.96 L 835.96 1701.98 L 836.85 1698.86 L 837.31 1696.56 L 838.14 1693.69 L 838.55 1690.41 L 839.72 1687.52 L 840.52 1684.93 L 840.78 1681.70 L 841.27 1678.67 L 842.28 1676.03 L 842.92 1673.09 L 843.33 1670.14 L 844.00 1666.87 L 845.15 1663.96 L 845.70 1661.27 L 846.15 1657.90 L 847.13 1655.49 L 847.83 1652.09 L 848.22 1649.25 L 849.18 1646.35 L 849.70 1643.11 L 850.48 1640.65 L 851.27 1637.64 L 851.72 1634.51 L 852.48 1631.77 L 853.37 1628.64 L 854.22 1625.72 L 854.72 1622.72 L 855.51 1620.35 L 856.04 1617.24 L 856.36 1614.42 L 857.15 1611.20 L 858.04 1608.62 L 858.92 1605.07 L 859.31 1602.66 L 860.12 1599.51 L 860.94 1596.26 L 861.11 1594.11 L 861.96 1590.74 L 863.29 1588.08 L 863.70 1585.44 L 864.17 1582.56 L 865.03 1579.20 L 865.76 1576.39 L 865.90 1573.46 L 866.50 1570.77 L 867.16 1567.57 L 868.36 1564.78 L 868.49 1562.15 L 869.79 1558.93 L 870.17 1555.27 L 870.70 1552.76 L 871.44 1550.19 L 872.11 1547.37 L 872.99 1544.33 L 873.54 1541.30 L 874.58 1538.56 L 875.15 1535.33 L 875.24 1532.46 L 876.37 1529.79 L 877.11 1526.99 L 878.01 1523.86 L 878.14 1520.92 L 879.11 1517.72 L 879.86 1514.70 L 880.31 1512.21 L 881.05 1509.25 L 881.95 1506.65 L 882.45 1503.74 L 882.97 1500.63 L 883.59 1497.72 L 884.27 1494.51 L 885.27 1491.41 L 886.08 1488.65 L 886.35 1485.32 L 887.39 1483.10 L 887.66 1480.42 L 888.42 1477.20 L 889.14 1474.29 L 890.14 1470.95 L 890.67 1468.31 L 891.18 1465.17 L 892.18 1462.33 L 892.82 1459.20 L 893.26 1456.70 L 894.00 1453.80 L 894.49 1450.66 L 895.73 1447.84 L 896.37 1445.22 L 897.10 1441.79 L 897.60 1439.51 L 898.36 1436.32 L 898.58 1433.33 L 899.52 1430.76 L 900.22 1427.80 L 900.73 1424.79 L 901.58 1421.88 L 902.45 1418.58 L 902.88 1415.87 L 903.55 1412.80 L 903.97 1409.96 L 905.03 1406.81 L 905.73 1403.91 L 906.73 1401.38 L 907.08 1398.24 L 907.69 1395.06 L 908.51 1392.60 L 909.22 1389.15 L 909.54 1385.98 L 910.33 1383.89 L 911.21 1380.77 L 911.66 1378.05 L 912.63 1374.47 L 913.16 1372.04 L 913.52 1368.94 L 914.30 1366.05 L 915.04 1363.28 L 916.15 1360.18 L 916.62 1357.17 L 917.18 1353.79 L 918.18 1351.17 L 918.38 1348.72 L 919.21 1345.32 L 919.90 1342.81 L 920.28 1339.68 L 920.93 1336.74 L 922.07 1334.08 L 922.82 1330.95 L 923.55 1327.69 L 923.96 1325.11 L 924.79 1322.26 L 925.34 1319.19 L 926.22 1316.26 L 926.79 1313.48 L 927.92 1310.52 L 927.85 1307.41 L 928.91 1304.80 L 929.76 1301.72 L 930.42 1299.22 L 930.48 1295.99 L 931.83 1293.02 L 932.17 1289.96 L 933.07 1287.24 L 933.58 1284.24 L 934.48 1281.44 L 935.07 1278.57 L 935.54 1275.43 L 936.36 1272.81 L 936.81 1269.82 L 937.58 1266.43 L 938.25 1263.79 L 939.31 1261.38 L 939.73 1257.86 L 940.45 1255.37 L 941.26 1252.03 L 941.83 1248.91 L 942.57 1246.45 L 942.98 1243.42 L 943.85 1240.70 L 944.56 1237.41 L 945.41 1234.61 L 945.89 1231.65 L 946.38 1228.86 L 947.61 1225.89 L 948.07 1223.11 L 948.77 1220.14 L 949.41 1217.17 L 950.35 1214.12 L 950.76 1211.20 L 951.63 1208.36 L 951.85 1205.10 L 952.91 1202.41 L 953.28 1199.01 L 954.27 1196.49 L 955.01 1194.19 L 955.67 1190.77 L 955.86 1187.89 L 957.02 1184.99 L 957.45 1182.39 L 958.56 1179.05 L 959.14 1176.49 L 959.83 1173.09 L 960.85 1170.43 L 961.07 1167.29 L 961.43 1164.41 L 962.13 1161.63 L 962.80 1158.45 L 963.48 1155.83 L 964.33 1153.04 L 965.51 1149.96 L 965.72 1146.82 L 966.49 1143.63 L 966.86 1141.21 L 967.87 1138.21 L 968.11 1135.25 L 968.87 1132.51 L 969.85 1129.23 L 970.49 1126.30 L 970.93 1123.57 L 971.65 1120.73 L 972.60 1118.01 L 973.33 1114.87 L 973.75 1111.68 L 974.73 1108.97 L 975.31 1105.78 L 975.83 1103.03 L 976.59 1100.44 L 977.32 1097.43 L 978.12 1094.32 L 978.29 1091.64 L 978.97 1088.91 L 979.91 1085.45 L 980.96 1082.70 L 981.56 1079.72 L 982.42 1077.21 L 982.79 1074.27 L 983.44 1071.24 L 984.55 1068.02 L 984.80 1065.08 L 985.28 1062.07 L 985.85 1059.17 L 986.78 1056.71 L 987.27 1053.49 L 988.55 1050.30 L 989.30 1047.54 L 989.55 1044.82 L 990.18 1042.03 L 990.72 1038.74 L 991.33 1036.19 L 992.30 1033.04 L 993.41 1029.96 L 993.51 1027.07 L 994.45 1023.67 L 995.16 1021.00 L 996.06 1018.70 L 996.12 1015.51 L 997.22 1012.40 L 997.84 1009.95 L 998.75 1006.56 L 999.41 1003.89 L 999.48 1001.01 L 1000.00 1000.00 L 1000.68 997.08 L 1001.34 994.15 L 1002.01 991.23 L 1002.68 988.30 L 1003.35 985.38 L 1004.02 982.46 L 1004.70 979.53 L 1005.39 976.61 L 1006.08 973.69 L 1006.77 970.77 L 1007.45 967.85 L 1008.14 964.93 L 1008.83 962.01 L 1009.51 959.09 L 1010.19 956.17 L 1010.89 953.25 L 1011.59 950.33 L 1012.29 947.42 L 1012.99 944.50 L 1013.68 941.58 L 1014.37 938.66 L 1015.07 935.74 L 1015.76 932.83 L 1016.47 929.91 L 1017.16 926.99 L 1017.86 924.07 L 1018.56 921.15 L 1019.26 918.24 L 1019.97 915.32 L 1020.69 912.41 L 1021.40 909.50 L 1022.12 906.58 L 1022.83 903.67 L 1023.53 900.75 L 1024.24 897.84 L 1024.93 894.92 L 1025.64 892.00 L 1026.34 889.09 L 1027.04 886.17 L 1027.75 883.25 L 1028.46 880.34 L 1029.16 877.42 L 1029.85 874.50 L 1030.53 871.58 L 1031.20 868.66 L 1031.89 865.74 L 1032.57 862.81 L 1033.25 859.89 L 1033.93 856.97 L 1034.61 854.05 L 1035.31 851.13 L 1036.00 848.21 L 1036.68 845.29 L 1037.36 842.37 L 1038.04 839.45 L 1038.72 836.53 L 1039.40 833.60 L 1040.07 830.68 L 1040.74 827.75 L 1041.41 824.83 L 1042.07 821.90 L 1042.74 818.98 L 1043.42 816.06 L 1044.08 813.13 L 1044.76 810.21 L 1045.44 807.29 L 1046.11 804.36 L 1046.79 801.44 L 1047.46 798.52 L 1048.15 795.60 L 1048.84 792.68 L 1049.52 789.76 L 1050.22 786.84 L 1050.90 783.92 L 1051.59 781.00 L 1052.29 778.08 L 1052.96 775.16 L 1053.63 772.23 L 1054.30 769.31 L 1054.96 766.38 L 1055.62 763.45 L 1056.28 760.53 L 1056.94 757.60 L 1057.60 754.67 L 1058.26 751.75 L 1058.93 748.82 L 1059.59 745.90 L 1060.25 742.97 L 1060.90 740.04 L 1061.56 737.12 L 1062.21 734.19 L 1062.86 731.26 L 1063.51 728.33 L 1064.17 725.40 L 1064.84 722.48 L 1065.52 719.56 L 1066.21 716.64 L 1066.90 713.72 L 1067.60 710.80 L 1068.31 707.89 L 1069.03 704.97 L 1069.74 702.06 L 1070.46 699.15 L 1071.18 696.23 L 1071.93 693.33 L 1072.68 690.42 L 1073.43 687.52 L 1074.18 684.62 L 1074.92 681.71 L 1075.67 678.80 L 1076.42 675.90 L 1077.17 672.99 L 1077.90 670.08 L 1078.64 667.18 L 1079.38 664.27 L 1080.12 661.36 L 1080.86 658.45 L 1081.58 655.54 L 1082.30 652.63 L 1083.02 649.72 L 1083.74 646.81 L 1084.47 643.90 L 1085.20 640.99 L 1085.92 638.07 L 1086.64 635.16 L 1087.33 632.24 L 1088.04 629.33 L 1088.75 626.41 L 1089.47 623.50 L 1090.19 620.59 L 1090.91 617.67 L 1091.62 614.76 L 1092.35 611.85 L 1093.07 608.94 L 1093.78 606.02 L 1094.50 603.11 L 1095.22 600.20 L 1095.94 597.29 L 1096.67 594.38 L 1097.40 591.47 L 1098.12 588.55 L 1098.84 585.64 L 1099.57 582.73 L 1100.30 579.82 L 1101.03 576.91 L 1101.76 574.00 L 1102.50 571.09 L 1103.23 568.18 L 1103.94 565.27 L 1104.68 562.36 L 1105.40 559.45 L 1106.13 556.54 L 1106.86 553.63 L 1107.58 550.72 L 1108.30 547.81 L 1109.01 544.89 L 1109.73 541.98 L 1110.46 539.07 L 1111.18 536.16 L 1111.91 533.25 L 1112.64 530.34 L 1113.36 527.42 L 1114.07 524.51 L 1114.78 521.60 L 1115.50 518.68 L 1116.22 515.77 L 1116.94 512.86 L 1117.65 509.94 L 1118.37 507.03 L 1119.09 504.12 L 1119.80 501.21 L 1120.52 498.29 L 1121.23 495.38 L 1121.95 492.46 L 1122.64 489.55 L 1123.34 486.63 L 1124.05 483.71 L 1124.75 480.80 L 1125.45 477.88 L 1126.15 474.96 L 1126.87 472.05 L 1127.59 469.14 L 1128.31 466.22 L 1129.03 463.31 L 1129.77 460.41 L 1130.51 457.50 L 1131.23 454.59 L 1131.94 451.67 L 1132.65 448.76 L 1133.37 445.84 L 1134.09 442.93 L 1134.81 440.02 L 1135.53 437.11 L 1136.25 434.20 L 1136.98 431.28 L 1137.70 428.37 L 1138.42 425.46 L 1139.15 422.55 L 1139.89 419.64 L 1140.61 416.73 L 1141.34 413.82 L 1142.06 410.91 L 1142.77 407.99 L 1143.49 405.08 L 1144.23 402.17 L 1144.94 399.26 L 1145.66 396.35 L 1146.38 393.43 L 1147.07 390.52 L 1147.77 387.60 L 1148.46 384.68 L 1149.15 381.76 L 1149.84 378.84 L 1150.52 375.92 L 1151.20 372.99 L 1151.87 370.07 L 1152.55 367.15 L 1153.24 364.23 L 1153.91 361.31 L 1154.58 358.38 L 1155.25 355.46 L 1155.92 352.53 L 1156.60 349.61 L 1157.26 346.69 L 1157.94 343.76 L 1158.61 340.84 L 1159.28 337.91 L 1159.96 334.99 L 1160.64 332.07 L 1161.32 329.15 L 1162.00 326.23 L 1162.69 323.31 L 1163.39 320.39 L 1164.08 317.47 L 1164.78 314.55 L 1165.48 311.63 L 1166.17 308.72 L 1166.87 305.80 L 1167.56 302.88 L 1168.25 299.96 L 1168.92 297.04 L 1169.59 294.11 L 1170.27 291.19 L 1170.95 288.27 L 1171.64 285.35 L 1172.33 282.43 L 1173.04 279.51 L 1173.74 276.60 L 1174.44 273.68 L 1175.15 270.77 L 1175.87 267.85 L 1176.56 264.93 L 1177.27 262.02 L 1177.98 259.10 L 1178.70 256.19 L 1179.42 253.28 L 1180.14 250.37 L 1180.86 247.45 L 1181.58 244.54 L 1182.30 241.63 L 1183.03 238.72 L 1183.77 235.81 L 1184.51 232.90 L 1185.25 230.00 L 1185.98 227.09 L 1186.73 224.18 L 1187.47 221.27 L 1188.20 218.37 L 1188.93 215.46 L 1189.66 212.54 L 1190.39 209.63 L 1191.12 206.73 L 1191.83 203.81 L 1192.55 200.90 L 1193.25 197.98 L 1193.95 195.06 L 1194.64 192.14 L 1195.32 189.22 L 1196.02 186.31 L 1196.71 183.39 L 1197.40 180.47 L 1198.10 177.55 L 1198.80 174.63 L 1199.51 171.72 L 1200.20 168.80 L 1200.89 165.88 L 1201.57 162.96 L 1202.25 160.03 L 1202.94 157.11 L 1203.64 154.20 L 1204.34 151.28 L 1205.05 148.37 L 1205.76 145.45 L 1206.48 142.54 L 1207.20 139.63 L 1207.92 136.71 L 1208.63 133.80 L 1209.35 130.89 L 1210.07 127.97 L 1210.78 125.06 L 1211.50 122.15 L 1212.21 119.23 L 1212.92 116.32 L 1213.63 113.40 L 1214.34 110.49 L 1215.06 107.58 L 1215.78 104.66 L 1216.50 101.75 L 1217.21 98.84 L 1217.91 95.92 L 1218.62 93.00 L 1219.32 90.09 L 1220.01 87.17 L 1220.70 84.25 L 1221.37 81.32 L 1222.04 78.40 L 1222.71 75.48 L 1223.38 72.55 L 1224.04 69.62 L 1224.69 66.70 L 1225.35 63.77 L 1226.01 60.84 L 1226.67 57.92 L 1227.33 54.99 L 1227.98 52.06 L 1228.64 49.14 L 1229.30 46.21 L 1229.95 43.28 L 1230.60 40.35 L 1231.24 37.42 L 1231.87 34.49 L 1232.51 31.56 L 1233.14 28.62 L 1233.79 25.69 L 1234.44 22.77 L 1235.10 19.84 L 1235.77 16.91 L 1236.44 13.99 L 1237.11 11.07 L 1237.77 8.14 L 1238.43 5.21 L 1239.09 2.29 L 1239.76 -0.64 L 1240.43 -3.56 L 1241.10 -6.49 L 1241.78 -9.41 L 1242.45 -12.33 L 1243.12 -15.26 L 1243.79 -18.18 L 1244.47 -21.10" stroke="rgb(245,245,245)" stroke-opacity="0.948" stroke-width="1.79" />
  <path d="M 999.47 1000.55 L 1000.11 997.53 L 1000.74 994.51 L 1001.40 991.51 L 1002.09 988.53 L 1002.78 985.57 L 1003.45 982.61 L 1004.08 979.66 L 1004.69 976.71 L 1005.28 973.78 L 1005.95 970.87 L 1006.64 967.98 L 1007.34 965.10 L 1008.05 962.24 L 1008.76 959.39 L 1009.44 956.55 L 1010.09 953.71 L 1010.75 950.88 L 1011.40 948.07 L 1012.04 945.26 L 1012.68 942.47 L 1013.34 939.69 L 1013.90 936.90 L 1014.47 934.13 L 1014.98 931.35 L 1015.51 928.59 L 1016.04 925.84 L 1016.54 923.10 L 1017.03 920.37 L 1017.55 917.66 L 1018.08 914.96 L 1018.67 912.29 L 1019.27 909.63 L 1019.96 907.00 L 1020.61 904.38 L 1021.20 901.75 L 1021.75 899.13 L 1022.20 896.50 L 1022.64 893.89 L 1023.09 891.28 L 1023.56 888.69 L 1024.03 886.11 L 1024.51 883.54" stroke="rgb(120,210,255)" stroke-opacity="0.469" stroke-width="1.63" />
  <path d="M 999.78 1002.81 L 1000.42 999.40 L 1001.07 996.00 L 1001.74 992.62 L 1002.39 989.24 L 1003.05 985.89 L 1003.71 982.54 L 1004.33 979.21 L 1004.98 975.89 L 1005.62 972.58 L 1006.26 969.29 L 1006.90 966.01 L 1007.55 962.75 L 1008.18 959.50 L 1008.82 956.26" stroke="rgb(120,210,255)" stroke-opacity="0.852" stroke-width="1.63" />
  <path d="M 1001.48 1000.92 L 1002.03 997.89 L 1002.64 994.88 L 1003.31 991.90 L 1004.06 988.96 L 1004.83 986.03 L 1005.59 983.11 L 1006.35 980.20 L 1007.16 977.32 L 1008.00 974.46 L 1008.79 971.60 L 1009.55 968.74 L 1010.26 965.88 L 1010.98 963.05 L 1011.68 960.22 L 1012.37 957.39 L 1013.07 954.59 L 1013.76 951.79 L 1014.44 949.01 L 1015.08 946.22 L 1015.67 943.43 L 1016.25 940.66 L 1016.80 937.89 L 1017.35 935.13 L 1017.81 932.37 L 1018.28 929.62 L 1018.84 926.90 L 1019.36 924.18 L 1019.89 921.48 L 1020.50 918.81 L 1021.07 916.14 L 1021.65 913.49 L 1022.20 910.84 L 1022.76 908.20 L 1023.25 905.57 L 1023.74 902.94 L 1024.30 900.34 L 1024.88 897.75 L 1025.44 895.17 L 1026.07 892.61" stroke="rgb(120,210,255)" stroke-opacity="0.468" stroke-width="1.62" />
  <path d="M 997.21 999.05 L 997.91 995.92 L 998.62 992.80 L 999.35 989.70 L 1000.13 986.64 L 1000.93 983.59 L 1001.72 980.56 L 1002.48 977.53 L 1003.16 974.50 L 1003.81 971.47 L 1004.47 968.45 L 1005.15 965.45 L 1005.82 962.47 L 1006.48 959.49 L 1007.15 956.54 L 1007.81 953.59 L 1008.50 950.67 L 1009.22 947.75 L 1009.96 944.86 L 1010.69 941.97 L 1011.43 939.10 L 1012.16 936.24 L 1012.96 933.42 L 1013.79 930.61 L 1014.62 927.82 L 1015.44 925.03 L 1016.29 922.28 L 1017.15 919.54 L 1017.94 916.79 L 1018.77 914.06" stroke="rgb(120,210,255)" stroke-opacity="0.847" stroke-width="1.61" />
  <path d="M 999.09 1003.81 L 999.88 1000.56 L 1000.65 997.32 L 1001.42 994.09 L 1002.19 990.88 L 1002.99 987.69 L 1003.81 984.51 L 1004.62 981.35 L 1005.43 978.20 L 1006.23 975.06 L 1007.02 971.93 L 1007.80 968.82 L 1008.59 965.71 L 1009.38 962.63 L 1010.17 959.55 L 1010.96 956.49 L 1011.77 953.44 L 1012.59 950.42 L 1013.41 947.40 L 1014.24 944.40 L 1015.05 941.41 L 1015.85 938.43 L 1016.65 935.46 L 1017.45 932.50 L 1018.25 929.56 L 1019.00 926.61 L 1019.73 923.68 L 1020.54 920.78 L 1021.36 917.89 L 1022.17 915.01 L 1023.03 912.16 L 1023.86 909.31 L 1024.67 906.47 L 1025.49 903.64 L 1026.27 900.82 L 1027.04 898.00 L 1027.80 895.20 L 1028.54 892.40 L 1029.31 889.62 L 1030.12 886.87 L 1030.93 884.12 L 1031.75 881.39 L 1032.56 878.67 L 1033.38 875.97 L 1034.21 873.28 L 1034.97 870.58 L 1035.71 867.88 L 1036.48 865.21" stroke="rgb(120,210,255)" stroke-opacity="0.846" stroke-width="1.61" />
  <path d="M 1000.31 999.96 L 1000.97 996.91 L 1001.63 993.87 L 1002.35 990.86 L 1003.07 987.86 L 1003.71 984.86 L 1004.33 981.87 L 1004.93 978.88 L 1005.50 975.90 L 1006.06 972.93 L 1006.60 969.97 L 1007.13 967.02 L 1007.67 964.09 L 1008.21 961.17 L 1008.78 958.26 L 1009.46 955.40 L 1010.14 952.55 L 1010.82 949.71 L 1011.55 946.90 L 1012.38 944.13 L 1013.19 941.37 L 1013.99 938.62 L 1014.78 935.88 L 1015.60 933.16 L 1016.44 930.47 L 1017.29 927.80 L 1018.16 925.13 L 1019.15 922.55 L 1020.10 919.96 L 1020.99 917.37 L 1021.91 914.80 L 1022.82 912.22 L 1023.73 909.67 L 1024.60 907.11 L 1025.42 904.55 L 1026.24 902.01 L 1027.04 899.45 L 1027.80 896.89 L 1028.54 894.34 L 1029.32 891.81 L 1030.10 889.31 L 1030.87 886.81 L 1031.67 884.33 L 1032.48 881.87 L 1033.29 879.41 L 1034.09 876.96 L 1034.86 874.51 L 1035.67 872.08 L 1036.47 869.66 L 1037.30 867.27 L 1038.12 864.88 L 1038.95 862.50 L 1039.80 860.13 L 1040.64 857.77 L 1041.48 855.41 L 1042.35 853.08 L 1043.22 850.75 L 1044.12 848.45 L 1045.01 846.16 L 1045.90 843.89 L 1046.76 841.62 L 1047.60 839.35" stroke="rgb(120,210,255)" stroke-opacity="0.846" stroke-width="1.61" />
  <path d="M 999.90 1001.82 L 1000.57 998.97 L 1001.14 996.11 L 1001.75 993.27 L 1002.34 990.43 L 1002.91 987.61 L 1003.41 984.78 L 1003.91 981.97 L 1004.41 979.17 L 1004.92 976.38 L 1005.42 973.60 L 1005.92 970.84 L 1006.44 968.09 L 1007.03 965.36 L 1007.60 962.64 L 1008.17 959.93 L 1008.75 957.24 L 1009.30 954.55 L 1009.84 951.87 L 1010.40 949.20 L 1011.03 946.57 L 1011.64 943.93 L 1012.19 941.30 L 1012.77 938.68 L 1013.32 936.07 L 1013.90 933.47 L 1014.54 930.90 L 1015.24 928.36 L 1016.00 925.84 L 1016.70 923.32 L 1017.39 920.81 L 1018.08 918.31 L 1018.77 915.81 L 1019.42 913.32 L 1020.07 910.84 L 1020.64 908.35 L 1021.28 905.89 L 1021.91 903.43 L 1022.54 900.99 L 1023.19 898.56 L 1023.90 896.17 L 1024.60 893.78 L 1025.32 891.41 L 1026.05 889.05 L 1026.72 886.69 L 1027.38 884.34 L 1028.03 881.99 L 1028.68 879.65 L 1029.36 877.34 L 1030.05 875.04 L 1030.76 872.75 L 1031.49 870.48 L 1032.25 868.23 L 1033.04 865.99 L 1033.83 863.77 L 1034.56 861.55 L 1035.29 859.32 L 1035.91 857.08 L 1036.48 854.83 L 1037.05 852.59 L 1037.58 850.36 L 1038.12 848.13 L 1038.65 845.91 L 1039.19 843.70 L 1039.75 841.51 L 1040.29 839.31 L 1040.86 837.14 L 1041.40 834.97 L 1041.99 832.82 L 1042.57 830.68 L 1043.18 828.56 L 1043.78 826.45 L 1044.42 824.35" stroke="rgb(120,210,255)" stroke-opacity="0.459" stroke-width="1.58" />
  <path d="M 1001.13 1001.87 L 1001.83 999.22 L 1002.50 996.57 L 1003.11 993.92 L 1003.70 991.27 L 1004.30 988.64" stroke="rgb(120,210,255)" stroke-opacity="0.455" stroke-width="1.55" />
  <path d="M 987.42 1059.11 L 986.69 1060.66 L 985.99 1062.25 L 985.24 1063.82 L 984.53 1065.44 L 983.77 1066.94 L 983.00 1068.42 L 982.20 1069.90 L 981.41 1071.36 L 980.61 1072.74 L 979.81 1074.12 L 979.01 1075.51 L 978.23 1076.88 L 977.49 1078.19 L 976.71 1079.48 L 975.86 1080.78 L 975.00 1082.07 L 974.12 1083.45 L 973.24 1084.84 L 972.45 1086.21 L 971.69 1087.58 L 970.90 1088.93 L 970.24 1090.22 L 969.67 1091.57 L 969.07 1092.94 L 968.49 1094.32 L 967.90 1095.69 L 967.28 1097.10 L 966.68 1098.53" stroke="rgb(140,255,190)" stroke-opacity="0.588" stroke-width="1.31" />
  <path d="M 1016.82 938.60 L 1017.53 936.86 L 1018.22 935.11 L 1018.97 933.36 L 1019.64 931.59 L 1020.42 929.97 L 1021.20 928.37 L 1021.95 926.76 L 1022.65 925.15 L 1023.27 923.48 L 1023.86 921.83 L 1024.38 920.18 L 1025.00 918.51 L 1025.61 916.86 L 1026.25 915.24 L 1026.87 913.63 L 1027.53 912.03 L 1028.17 910.44 L 1028.87 908.83 L 1029.57 907.21 L 1030.32 905.65 L 1031.07 904.05 L 1031.81 902.41 L 1032.58 900.77 L 1033.34 899.14 L 1034.09 897.52 L 1034.86 895.97 L 1035.58 894.38 L 1036.18 892.75 L 1036.78 891.13 L 1037.38 889.52 L 1037.96 887.94 L 1038.55 886.36 L 1039.13 884.81" stroke="rgb(140,255,190)" stroke-opacity="0.584" stroke-width="1.29" />
  <path d="M 1003.85 999.46 L 1004.21 997.31 L 1004.50 995.17 L 1004.89 993.05 L 1005.18 990.93 L 1005.42 988.81 L 1005.66 986.70 L 1005.89 984.62 L 1006.19 982.55 L 1006.48 980.48 L 1006.75 978.42 L 1006.98 976.35 L 1007.20 974.29 L 1007.38 972.24 L 1007.64 970.22 L 1007.94 968.20 L 1008.18 966.18 L 1008.36 964.16 L 1008.47 962.14 L 1008.56 960.11 L 1008.64 958.09 L 1008.73 956.08 L 1008.82 954.08 L 1008.84 952.08 L 1008.91 950.09 L 1008.98 948.11 L 1009.07 946.13 L 1009.14 944.17 L 1009.15 942.21 L 1009.19 940.26 L 1009.27 938.32 L 1009.34 936.38" stroke="rgb(140,255,190)" stroke-opacity="0.577" stroke-width="1.27" />
  <path d="M 999.18 999.97 L 999.74 997.83 L 1000.31 995.70 L 1000.80 993.56 L 1001.37 991.45 L 1001.98 989.36 L 1002.55 987.27 L 1003.11 985.18 L 1003.69 983.11 L 1004.34 981.07 L 1004.98 979.04 L 1005.57 977.00 L 1006.13 974.97 L 1006.68 972.94 L 1007.20 970.90 L 1007.71 968.88 L 1008.21 966.86 L 1008.67 964.83 L 1009.06 962.81 L 1009.44 960.78 L 1009.80 958.76 L 1010.13 956.75" stroke="rgb(140,255,190)" stroke-opacity="0.575" stroke-width="1.26" />
  <path d="M 1004.09 1000.83 L 1003.50 1002.85 L 1002.95 1004.88 L 1002.40 1006.94 L 1001.85 1009.00 L 1001.27 1011.00 L 1000.72 1012.97 L 1000.19 1014.93 L 999.66 1016.88 L 999.11 1018.85 L 998.57 1020.81 L 998.01 1022.76 L 997.41 1024.72 L 996.82 1026.66 L 996.17 1028.59 L 995.52 1030.51 L 994.88 1032.41 L 994.21 1034.25 L 993.59 1036.05 L 992.97 1037.85 L 992.34 1039.66 L 991.67 1041.44 L 990.99 1043.20 L 990.37 1044.98 L 989.74 1046.75 L 989.12 1048.51 L 988.49 1050.27 L 987.83 1052.00 L 987.09 1053.75 L 986.32 1055.51 L 985.58 1057.32 L 984.87 1059.13 L 984.19 1060.96 L 983.50 1062.75 L 982.79 1064.50 L 982.06 1066.27 L 981.33 1068.03 L 980.63 1069.79 L 979.93 1071.55 L 979.27 1073.33 L 978.63 1075.15 L 977.96 1076.94 L 977.28 1078.73 L 976.63 1080.54 L 975.90 1082.30 L 975.17 1084.06 L 974.40 1085.75 L 973.70 1087.42 L 973.00 1089.08 L 972.22 1090.72 L 971.44 1092.36 L 970.69 1093.99 L 969.93 1095.66 L 969.18 1097.32 L 968.39 1098.96 L 967.62 1100.60 L 966.85 1102.23 L 966.09 1103.87 L 965.30 1105.45 L 964.54 1107.04 L 963.84 1108.58 L 963.18 1110.12 L 962.52 1111.65 L 961.87 1113.18 L 961.22 1114.72 L 960.55 1116.21 L 959.88 1117.70 L 959.22 1119.19 L 958.53 1120.64 L 957.86 1122.09" stroke="rgb(255,210,135)" stroke-opacity="0.640" stroke-width="1.26" />
  <path d="M 1001.85 1000.82 L 1004.78 1001.81 L 1007.69 1002.79 L 1010.59 1003.79 L 1013.47 1004.77 L 1016.34 1005.79 L 1019.18 1006.81 L 1022.01 1007.83 L 1024.82 1008.84 L 1027.63 1009.82 L 1030.43 1010.81 L 1033.21 1011.80 L 1035.99 1012.78 L 1038.76 1013.77 L 1041.52 1014.77" stroke="rgb(255,210,135)" stroke-opacity="0.638" stroke-width="1.26" />
  <path d="M 997.81 1001.65 L 994.80 1002.85 L 991.81 1004.05 L 988.80 1005.20 L 985.81 1006.33 L 982.86 1007.50 L 979.91 1008.59 L 976.99 1009.68 L 974.06 1010.70 L 971.14 1011.70 L 968.24 1012.69 L 965.33 1013.67 L 962.46 1014.67 L 959.62 1015.70 L 956.80 1016.74 L 953.98 1017.76 L 951.17 1018.78 L 948.39 1019.80 L 945.61 1020.79 L 942.85 1021.78 L 940.10 1022.77 L 937.36 1023.76 L 934.61 1024.72 L 931.88 1025.71 L 929.19 1026.70 L 926.50 1027.71 L 923.82 1028.72 L 921.15 1029.74 L 918.49 1030.76 L 915.84 1031.78 L 913.20 1032.81 L 910.59 1033.88 L 908.00 1034.97 L 905.43 1036.05 L 902.84 1037.07 L 900.26 1038.05" stroke="rgb(205,165,255)" stroke-opacity="0.721" stroke-width="1.25" />
  <path d="M 1000.04 1002.00 L 1002.16 1001.65 L 1004.25 1001.33 L 1006.39 1000.99 L 1008.56 1000.63 L 1010.71 1000.33 L 1012.84 1000.02 L 1014.96 999.76 L 1017.03 999.48 L 1019.09 999.20 L 1021.15 998.94 L 1023.21 998.75 L 1025.25 998.47 L 1027.30 998.20 L 1029.30 997.88 L 1031.33 997.52 L 1033.34 997.20 L 1035.28 996.98 L 1037.23 996.75 L 1039.17 996.52 L 1041.08 996.32 L 1042.98 996.11 L 1044.84 995.87 L 1046.74 995.62" stroke="rgb(255,210,135)" stroke-opacity="0.634" stroke-width="1.24" />
  <path d="M 997.93 1002.68 L 998.53 999.66 L 999.19 996.66 L 999.92 993.69 L 1000.66 990.74 L 1001.38 987.80 L 1002.08 984.86 L 1002.77 981.94 L 1003.44 979.02 L 1004.10 976.12 L 1004.75 973.22 L 1005.40 970.34" stroke="rgb(255,210,135)" stroke-opacity="0.433" stroke-width="1.24" />
  <path d="M 995.46 1002.14 L 995.72 998.97 L 995.99 995.82 L 996.32 992.70 L 996.65 989.58 L 996.94 986.48 L 997.22 983.38 L 997.50 980.29 L 997.76 977.22 L 998.01 974.15 L 998.26 971.09 L 998.50 968.04 L 998.75 965.01 L 998.98 961.99 L 999.26 958.97 L 999.52 955.97 L 999.72 952.97 L 999.92 949.98 L 1000.10 947.02 L 1000.34 944.08" stroke="rgb(205,165,255)" stroke-opacity="0.711" stroke-width="1.22" />
  <path d="M 1019.90 964.08 L 1021.47 962.51 L 1023.06 960.98 L 1024.67 959.48 L 1026.20 957.94 L 1027.78 956.48 L 1029.37 955.16 L 1031.00 953.91 L 1032.70 952.65 L 1034.26 951.24 L 1035.80 949.76 L 1037.34 948.30 L 1038.88 946.84 L 1040.48 945.46 L 1042.11 944.10 L 1043.69 942.70 L 1045.32 941.36 L 1046.95 940.05 L 1048.57 938.74 L 1050.17 937.44 L 1051.69 936.08 L 1053.15 934.66 L 1054.52 933.18 L 1055.94 931.76 L 1057.25 930.21 L 1058.54 928.67 L 1059.83 927.14 L 1061.12 925.62 L 1062.36 924.07 L 1063.63 922.51 L 1064.90 920.99 L 1066.09 919.42 L 1067.29 917.87 L 1068.39 916.30 L 1069.64 914.81 L 1070.90 913.34 L 1072.15 911.91 L 1073.35 910.41 L 1074.51 908.87 L 1075.69 907.37 L 1076.75 905.81 L 1077.81 904.26 L 1078.88 902.71 L 1079.96 901.17 L 1081.03 899.60 L 1082.10 898.05 L 1083.11 896.46 L 1084.06 894.83 L 1084.91 893.17 L 1085.73 891.51 L 1086.59 889.86 L 1087.43 888.22 L 1088.26 886.59 L 1089.07 884.97 L 1089.88 883.38 L 1090.64 881.77 L 1091.43 880.24 L 1092.16 878.69" stroke="rgb(140,255,190)" stroke-opacity="0.561" stroke-width="1.22" />
  <path d="M 1016.10 941.30 L 1017.48 938.14 L 1018.85 934.99 L 1020.21 931.84 L 1021.57 928.72 L 1022.94 925.61 L 1024.30 922.52 L 1025.65 919.43 L 1026.97 916.35 L 1028.26 913.27 L 1029.56 910.22 L 1030.85 907.18 L 1032.19 904.18 L 1033.53 901.19 L 1034.84 898.21 L 1036.13 895.23 L 1037.43 892.26 L 1038.69 889.30 L 1039.97 886.36 L 1041.26 883.44 L 1042.53 880.53" stroke="rgb(140,255,190)" stroke-opacity="0.743" stroke-width="1.20" />
  <path d="M 1002.91 1000.90 L 1004.11 997.64 L 1005.26 994.39 L 1006.38 991.14 L 1007.50 987.90 L 1008.62 984.67 L 1009.76 981.47 L 1010.87 978.27 L 1011.99 975.09 L 1013.11 971.93 L 1014.21 968.77 L 1015.30 965.62 L 1016.38 962.49 L 1017.50 959.38 L 1018.62 956.28 L 1019.73 953.20 L 1020.82 950.12 L 1021.88 947.05" stroke="rgb(140,255,190)" stroke-opacity="0.740" stroke-width="1.19" />
  <path d="M 1014.67 934.42 L 1014.71 931.08 L 1014.79 927.75 L 1014.82 924.45 L 1014.84 921.17 L 1014.86 917.90 L 1014.87 914.63 L 1014.89 911.37 L 1014.87 908.13 L 1014.85 904.90 L 1014.83 901.67 L 1014.82 898.44 L 1014.77 895.25 L 1014.76 892.06 L 1014.76 888.89 L 1014.77 885.73 L 1014.85 882.59 L 1014.87 879.46 L 1014.89 876.34 L 1014.91 873.24 L 1014.94 870.15 L 1014.98 867.08 L 1015.04 864.03 L 1015.09 861.00 L 1015.26 857.98 L 1015.47 854.97 L 1015.64 851.98 L 1015.79 849.03 L 1015.97 846.08 L 1016.12 843.15 L 1016.27 840.24 L 1016.43 837.34 L 1016.57 834.44 L 1016.74 831.56 L 1016.95 828.68 L 1017.18 825.82 L 1017.48 822.97 L 1017.77 820.14 L 1018.06 817.32 L 1018.28 814.51 L 1018.57 811.71 L 1018.85 808.91 L 1019.13 806.13 L 1019.42 803.36 L 1019.71 800.60 L 1020.00 797.85 L 1020.37 795.11 L 1020.76 792.39 L 1021.17 789.69 L 1021.57 786.99 L 1021.98 784.31 L 1022.40 781.66 L 1022.81 779.02 L 1023.22 776.39 L 1023.63 773.78 L 1024.04 771.18 L 1024.53 768.60 L 1025.00 766.03" stroke="rgb(140,255,190)" stroke-opacity="0.739" stroke-width="1.19" />
  <path d="M 999.29 1001.95 L 1000.04 998.61 L 1000.87 995.29 L 1001.65 991.98 L 1002.44 988.69 L 1003.26 985.42 L 1004.07 982.16 L 1004.89 978.91" stroke="rgb(140,255,190)" stroke-opacity="0.738" stroke-width="1.19" />
  <path d="M 1015.80 952.80 L 1016.79 950.70 L 1017.80 948.61 L 1018.87 946.54 L 1019.92 944.48 L 1020.98 942.42 L 1022.02 940.37 L 1023.14 938.38 L 1024.31 936.42 L 1025.41 934.43 L 1026.52 932.45 L 1027.71 930.54 L 1028.93 928.64 L 1030.16 926.78 L 1031.31 924.87 L 1032.45 922.96 L 1033.58 921.07 L 1034.85 919.27 L 1036.15 917.50 L 1037.41 915.70 L 1038.65 913.92 L 1039.94 912.17 L 1041.22 910.44 L 1042.60 908.79 L 1043.96 907.14 L 1045.32 905.49 L 1046.76 903.92 L 1048.16 902.33 L 1049.57 900.76" stroke="rgb(140,255,190)" stroke-opacity="0.553" stroke-width="1.19" />
  <path d="M 1157.96 737.07 L 1159.54 733.97 L 1161.12 730.88 L 1162.66 727.78 L 1164.24 724.73 L 1165.88 721.72 L 1167.50 718.72 L 1169.11 715.72 L 1170.71 712.74 L 1172.30 709.77 L 1173.85 706.80 L 1175.40 703.83 L 1176.94 700.88 L 1178.45 697.92 L 1180.00 695.00 L 1181.53 692.09 L 1182.99 689.15 L 1184.43 686.22 L 1185.89 683.31 L 1187.37 680.42 L 1188.81 677.53 L 1190.24 674.65 L 1191.68 671.79 L 1193.11 668.94 L 1194.48 666.07 L 1195.83 663.20 L 1197.15 660.34 L 1198.47 657.49 L 1199.79 654.65 L 1201.16 651.85 L 1202.54 649.07 L 1203.88 646.28 L 1205.20 643.50 L 1206.51 640.73 L 1207.80 637.96 L 1209.08 635.20 L 1210.34 632.45 L 1211.64 629.72 L 1212.97 627.03 L 1214.28 624.33 L 1215.70 621.71 L 1217.09 619.08 L 1218.45 616.46" stroke="rgb(140,255,190)" stroke-opacity="0.737" stroke-width="1.19" />
  <path d="M 1002.63 998.08 L 1002.10 995.16 L 1001.57 992.26 L 1001.03 989.36 L 1000.53 986.48 L 999.95 983.63 L 999.33 980.81 L 998.73 978.02 L 998.15 975.21 L 997.59 972.41 L 997.07 969.60 L 996.54 966.79 L 996.02 964.01 L 995.55 961.23 L 995.05 958.45 L 994.54 955.70 L 993.99 952.96 L 993.43 950.23 L 992.82 947.52" stroke="rgb(205,165,255)" stroke-opacity="0.700" stroke-width="1.19" />
  <path d="M 1000.07 1000.20 L 1000.86 997.99 L 1001.71 995.81 L 1002.56 993.64 L 1003.43 991.48 L 1004.20 989.31 L 1004.92 987.12 L 1005.55 984.92 L 1006.07 982.70 L 1006.55 980.47 L 1006.97 978.25 L 1007.48 976.05 L 1007.97 973.85 L 1008.61 971.71 L 1009.26 969.57 L 1009.95 967.47 L 1010.59 965.35 L 1011.22 963.24 L 1011.82 961.15 L 1012.41 959.07 L 1012.92 956.97 L 1013.42 954.88 L 1013.99 952.82 L 1014.63 950.78 L 1015.29 948.75 L 1015.97 946.73 L 1016.55 944.70 L 1017.13 942.67" stroke="rgb(140,255,190)" stroke-opacity="0.552" stroke-width="1.18" />
  <path d="M 1024.37 946.49 L 1026.43 944.15 L 1028.49 941.81 L 1030.52 939.48 L 1032.55 937.16 L 1034.58 934.86 L 1036.56 932.54 L 1038.55 930.26 L 1040.53 927.97 L 1042.50 925.69 L 1044.46 923.42 L 1046.41 921.14 L 1048.33 918.87 L 1050.24 916.61 L 1052.15 914.37 L 1054.05 912.13 L 1055.94 909.92" stroke="rgb(140,255,190)" stroke-opacity="0.736" stroke-width="1.18" />
  <path d="M 997.73 995.38 L 998.36 992.12 L 999.00 988.88 L 999.67 985.65 L 1000.34 982.44 L 1001.01 979.24 L 1001.73 976.05 L 1002.43 972.89 L 1003.11 969.73 L 1003.85 966.59 L 1004.58 963.47 L 1005.32 960.37 L 1006.05 957.28 L 1006.77 954.20 L 1007.50 951.13 L 1008.26 948.09 L 1009.03 945.07 L 1009.80 942.06 L 1010.55 939.06 L 1011.30 936.06 L 1012.03 933.07 L 1012.81 930.12 L 1013.58 927.17 L 1014.37 924.24 L 1015.17 921.34 L 1016.05 918.45 L 1016.91 915.57 L 1017.73 912.70 L 1018.53 909.83 L 1019.35 906.98 L 1020.22 904.16 L 1021.04 901.33 L 1021.84 898.52 L 1022.64 895.72 L 1023.42 892.94 L 1024.20 890.17 L 1024.93 887.39 L 1025.63 884.62 L 1026.33 881.85 L 1027.02 879.10 L 1027.70 876.36 L 1028.39 873.62 L 1029.07 870.90" stroke="rgb(140,255,190)" stroke-opacity="0.734" stroke-width="1.18" />
  <path d="M 1010.11 966.20 L 1011.00 962.89 L 1011.91 959.60 L 1012.85 956.34 L 1013.77 953.08 L 1014.70 949.84 L 1015.62 946.61 L 1016.50 943.38 L 1017.38 940.16 L 1018.26 936.96 L 1019.13 933.77 L 1019.99 930.60" stroke="rgb(140,255,190)" stroke-opacity="0.733" stroke-width="1.18" />
  <path d="M 1020.90 910.13 L 1022.54 907.14 L 1024.15 904.16 L 1025.75 901.18 L 1027.35 898.21 L 1028.94 895.26 L 1030.55 892.34 L 1032.16 889.43 L 1033.78 886.55 L 1035.38 883.67 L 1036.96 880.79 L 1038.53 877.92 L 1040.15 875.10 L 1041.78 872.30 L 1043.41 869.51 L 1045.03 866.74 L 1046.65 863.98 L 1048.22 861.20 L 1049.75 858.42 L 1051.28 855.65 L 1052.79 852.89 L 1054.37 850.18 L 1055.98 847.50 L 1057.59 844.84 L 1059.15 842.18 L 1060.71 839.53 L 1062.26 836.90 L 1063.82 834.27 L 1065.37 831.65 L 1066.93 829.07 L 1068.47 826.48 L 1070.03 823.93 L 1071.63 821.41 L 1073.23 818.90 L 1074.85 816.43 L 1076.45 813.96 L 1078.04 811.48 L 1079.60 809.00 L 1081.12 806.52 L 1082.63 804.06 L 1084.15 801.61 L 1085.66 799.17 L 1087.16 796.74 L 1088.64 794.31 L 1090.12 791.89 L 1091.67 789.53 L 1093.21 787.18 L 1094.74 784.85 L 1096.28 782.53 L 1097.81 780.21 L 1099.36 777.92 L 1100.91 775.64 L 1102.48 773.40 L 1104.06 771.18 L 1105.59 768.93 L 1107.13 766.71 L 1108.61 764.46 L 1110.07 762.22 L 1111.52 759.98 L 1113.03 757.80 L 1114.51 755.59 L 1115.97 753.41 L 1117.44 751.23 L 1118.92 749.08 L 1120.38 746.93 L 1121.83 744.77 L 1123.26 742.63 L 1124.69 740.47 L 1126.08 738.31 L 1127.45 736.16 L 1128.80 733.99 L 1130.17 731.85 L 1131.51 729.71 L 1132.82 727.57 L 1134.10 725.41 L 1135.38 723.27 L 1136.61 721.12 L 1137.84 718.98 L 1139.00 716.83 L 1140.16 714.69 L 1141.31 712.55 L 1142.42 710.41 L 1143.49 708.25 L 1144.57 706.09 L 1145.64 703.93 L 1146.66 701.76 L 1147.67 699.59 L 1148.70 697.43 L 1149.70 695.28 L 1150.69 693.12 L 1151.68 690.98 L 1152.66 688.85 L 1153.67 686.74 L 1154.66 684.63 L 1155.68 682.55 L 1156.74 680.49 L 1157.80 678.44 L 1158.86 676.41 L 1159.89 674.37 L 1160.89 672.34 L 1161.95 670.33 L 1163.02 668.34 L 1164.14 666.39 L 1165.24 664.44 L 1166.36 662.52 L 1167.46 660.59 L 1168.56 658.68 L 1169.67 656.79 L 1170.78 654.90 L 1171.84 652.99 L 1172.92 651.10 L 1174.00 649.22 L 1175.07 647.34 L 1176.12 645.47 L 1177.17 643.60 L 1178.21 641.74 L 1179.28 639.90 L 1180.32 638.05 L 1181.33 636.21 L 1182.34 634.38 L 1183.35 632.57 L 1184.33 630.75 L 1185.33 628.95 L 1186.35 627.17 L 1187.35 625.38 L 1188.36 623.60 L 1189.34 621.82 L 1190.29 620.03 L 1191.21 618.23 L 1192.15 616.44 L 1193.08 614.66 L 1193.97 612.87 L 1194.89 611.10 L 1195.81 609.35 L 1196.72 607.59 L 1197.61 605.84 L 1198.50 604.09 L 1199.37 602.35 L 1200.23 600.60 L 1201.07 598.85 L 1201.93 597.12 L 1202.78 595.40 L 1203.61 593.69" stroke="rgb(140,255,190)" stroke-opacity="0.732" stroke-width="1.17" />
  <path d="M 1064.32 876.66 L 1066.62 874.15 L 1068.89 871.63 L 1071.11 869.07 L 1073.35 866.53 L 1075.58 864.01 L 1077.78 861.47 L 1080.03 859.00 L 1082.27 856.53 L 1084.50 854.07 L 1086.71 851.62 L 1088.90 849.16 L 1091.09 846.72 L 1093.26 844.28 L 1095.48 841.92 L 1097.70 839.55 L 1099.81 837.12 L 1101.92 834.71 L 1104.03 832.31 L 1106.11 829.91 L 1108.19 827.51 L 1110.27 825.14 L 1112.35 822.78 L 1114.39 820.41 L 1116.42 818.05 L 1118.47 815.71 L 1120.56 813.42 L 1122.65 811.15 L 1124.74 808.89 L 1126.84 806.67 L 1128.95 804.46" stroke="rgb(140,255,190)" stroke-opacity="0.731" stroke-width="1.17" />
  <path d="M 999.61 1001.63 L 1000.50 998.43 L 1001.37 995.25 L 1002.24 992.07 L 1003.07 988.90 L 1003.91 985.74 L 1004.72 982.60 L 1005.55 979.46 L 1006.28 976.32 L 1007.01 973.19 L 1007.72 970.07 L 1008.43 966.97 L 1009.13 963.87 L 1009.82 960.79 L 1010.52 957.72 L 1011.19 954.65 L 1011.86 951.60 L 1012.52 948.56 L 1013.18 945.53 L 1013.84 942.52 L 1014.46 939.50 L 1015.07 936.50 L 1015.72 933.52 L 1016.37 930.56 L 1017.01 927.60 L 1017.66 924.66 L 1018.33 921.73 L 1019.00 918.82 L 1019.65 915.91 L 1020.31 913.02 L 1020.90 910.13 L 1021.46 907.24 L 1022.08 904.38 L 1022.68 901.52 L 1023.29 898.68 L 1023.89 895.85 L 1024.48 893.03 L 1025.07 890.22 L 1025.63 887.41 L 1026.20 884.62 L 1026.75 881.84 L 1027.28 879.07 L 1027.82 876.32 L 1028.36 873.58 L 1028.91 870.85 L 1029.47 868.13 L 1030.04 865.43 L 1030.60 862.73" stroke="rgb(140,255,190)" stroke-opacity="0.729" stroke-width="1.17" />
  <path d="M 998.76 997.62 L 998.92 994.27 L 999.08 990.94 L 999.28 987.62 L 999.38 984.32 L 999.52 981.04 L 999.58 977.76 L 999.62 974.51 L 999.71 971.27 L 999.79 968.05 L 999.88 964.85 L 999.96 961.65 L 1000.03 958.46 L 1000.13 955.28 L 1000.22 952.12 L 1000.32 948.97 L 1000.43 945.83 L 1000.53 942.71 L 1000.63 939.59 L 1000.71 936.48 L 1000.81 933.37 L 1000.89 930.28" stroke="rgb(140,255,190)" stroke-opacity="0.728" stroke-width="1.16" />
  <path d="M 1003.72 998.55 L 1004.33 995.38 L 1004.95 992.22 L 1005.49 989.07 L 1006.04 985.92 L 1006.53 982.78 L 1007.05 979.66 L 1007.58 976.55 L 1008.10 973.46 L 1008.58 970.39 L 1009.06 967.32 L 1009.53 964.26 L 1010.08 961.22 L 1010.65 958.21 L 1011.20 955.20 L 1011.74 952.21 L 1012.30 949.24 L 1012.79 946.26 L 1013.26 943.28 L 1013.72 940.32 L 1014.21 937.37 L 1014.67 934.42 L 1015.09 931.49 L 1015.52 928.56 L 1015.94 925.65 L 1016.32 922.74 L 1016.70 919.84 L 1017.13 916.96 L 1017.58 914.09 L 1018.03 911.23 L 1018.48 908.39 L 1018.98 905.57 L 1019.44 902.75 L 1019.86 899.93 L 1020.27 897.13 L 1020.70 894.34 L 1021.16 891.57 L 1021.60 888.80 L 1022.09 886.06 L 1022.61 883.33 L 1023.14 880.62 L 1023.65 877.92 L 1024.14 875.23 L 1024.65 872.54 L 1025.15 869.87 L 1025.65 867.21 L 1026.15 864.56 L 1026.69 861.93 L 1027.30 859.32" stroke="rgb(140,255,190)" stroke-opacity="0.725" stroke-width="1.16" />
  <path d="M 1021.72 929.88 L 1023.56 927.42 L 1025.44 924.98 L 1027.34 922.58 L 1029.24 920.20 L 1031.13 917.82 L 1033.01 915.45 L 1034.89 913.09 L 1036.78 910.74 L 1038.60 908.37 L 1040.41 906.01 L 1042.19 903.63 L 1043.98 901.26 L 1045.84 898.95 L 1047.67 896.62 L 1049.50 894.34 L 1051.34 892.07 L 1053.18 889.81 L 1054.96 887.55 L 1056.80 885.32 L 1058.64 883.11 L 1060.54 880.93 L 1062.43 878.79 L 1064.32 876.66 L 1066.20 874.55 L 1068.09 872.42 L 1069.93 870.26 L 1071.79 868.11 L 1073.66 865.99 L 1075.51 863.87 L 1077.34 861.75 L 1079.09 859.59 L 1080.83 857.42 L 1082.54 855.25 L 1084.26 853.09 L 1086.00 850.97 L 1087.71 848.83 L 1089.41 846.68 L 1091.07 844.52 L 1092.77 842.41 L 1094.47 840.31 L 1096.25 838.27 L 1098.01 836.23 L 1099.74 834.18 L 1101.45 832.12 L 1103.15 830.08 L 1104.82 828.02 L 1106.48 825.97 L 1108.12 823.92 L 1109.69 821.84 L 1111.24 819.76 L 1112.83 817.74 L 1114.35 815.68 L 1115.84 813.63 L 1117.28 811.55 L 1118.69 809.48 L 1120.09 807.43 L 1121.49 805.40 L 1122.90 803.39" stroke="rgb(140,255,190)" stroke-opacity="0.724" stroke-width="1.15" />
  <path d="M 1000.84 997.52 L 1002.85 999.54 L 1004.86 1001.54 L 1006.85 1003.54 L 1008.82 1005.54 L 1010.79 1007.52 L 1012.76 1009.48 L 1014.68 1011.47 L 1016.53 1013.55 L 1018.35 1015.63 L 1020.16 1017.71 L 1021.98 1019.77 L 1023.83 1021.79 L 1025.62 1023.84 L 1027.42 1025.82 L 1029.23 1027.74 L 1031.05 1029.61 L 1032.86 1031.48 L 1034.61 1033.38 L 1036.37 1035.28 L 1038.02 1037.24 L 1039.66 1039.16 L 1041.28 1041.05 L 1042.87 1042.93 L 1044.45 1044.81 L 1046.01 1046.72 L 1047.61 1048.57 L 1049.19 1050.43 L 1050.77 1052.28 L 1052.38 1054.06 L 1054.01 1055.79 L 1055.71 1057.46 L 1057.37 1059.15 L 1059.08 1060.81 L 1060.73 1062.53 L 1062.37 1064.24 L 1064.02 1065.90 L 1065.67 1067.58" stroke="rgb(205,165,255)" stroke-opacity="0.481" stroke-width="1.15" />
  <path d="M 1018.77 893.10 L 1018.32 889.85 L 1017.86 886.62 L 1017.41 883.40 L 1016.97 880.20 L 1016.56 877.00 L 1016.15 873.82 L 1015.72 870.65 L 1015.29 867.49 L 1014.87 864.34 L 1014.45 861.21 L 1014.06 858.09 L 1013.67 854.98 L 1013.21 851.89 L 1012.77 848.81 L 1012.35 845.74 L 1011.89 842.68 L 1011.45 839.64 L 1011.02 836.60 L 1010.59 833.57 L 1010.23 830.56 L 1009.81 827.55 L 1009.39 824.57 L 1008.96 821.59 L 1008.47 818.64 L 1007.91 815.72 L 1007.37 812.80 L 1006.83 809.90 L 1006.31 807.00 L 1005.74 804.13 L 1005.09 801.29 L 1004.46 798.46 L 1003.86 795.64 L 1003.29 792.83 L 1002.66 790.05 L 1002.05 787.27 L 1001.45 784.50 L 1000.93 781.74 L 1000.36 779.02 L 999.80 776.30 L 999.21 773.61 L 998.63 770.92 L 997.95 768.27 L 997.22 765.63 L 996.50 763.01" stroke="rgb(140,255,190)" stroke-opacity="0.723" stroke-width="1.15" />
  <path d="M 997.66 994.88 L 995.19 996.35 L 992.72 997.78 L 990.26 999.22 L 987.76 1000.55 L 985.27 1001.87 L 982.77 1003.13 L 980.30 1004.40 L 977.82 1005.59 L 975.35 1006.79 L 972.85 1007.95 L 970.37 1009.09 L 967.89 1010.24 L 965.40 1011.35 L 962.94 1012.48 L 960.47 1013.60 L 958.05 1014.77 L 955.64 1015.95 L 953.27 1017.15 L 950.91 1018.34 L 948.56 1019.49 L 946.22 1020.62 L 943.87 1021.77 L 941.58 1022.92 L 939.28 1024.04 L 936.99 1025.14 L 934.72 1026.24 L 932.44 1027.22 L 930.18 1028.26 L 927.94 1029.34 L 925.70 1030.36 L 923.49 1031.47 L 921.27 1032.55 L 919.08 1033.63 L 916.89 1034.72 L 914.68 1035.77 L 912.52 1036.86 L 910.35 1037.92 L 908.20 1038.99 L 906.04 1040.04 L 903.89 1041.05 L 901.76 1042.06 L 899.62 1043.03 L 897.49 1043.99" stroke="rgb(205,165,255)" stroke-opacity="0.480" stroke-width="1.15" />
  <path d="M 992.08 1033.46 L 991.49 1036.13 L 990.91 1038.80 L 990.41 1041.48 L 989.89 1044.13 L 989.37 1046.77 L 988.91 1049.42 L 988.48 1052.07 L 988.06 1054.69 L 987.66 1057.34 L 987.27 1059.99 L 986.82 1062.61 L 986.38 1065.23 L 985.94 1067.82 L 985.49 1070.45 L 985.02 1073.10 L 984.56 1075.73 L 984.14 1078.33 L 983.74 1080.94 L 983.31 1083.52 L 983.00 1086.04 L 982.68 1088.54 L 982.37 1091.02 L 982.04 1093.49 L 981.74 1095.93 L 981.38 1098.38 L 981.06 1100.84 L 980.73 1103.29 L 980.42 1105.73" stroke="rgb(140,255,190)" stroke-opacity="0.721" stroke-width="1.15" />
  <path d="M 1039.56 861.24 L 1041.84 858.93 L 1044.10 856.63 L 1046.31 854.28 L 1048.48 851.92 L 1050.65 849.56 L 1052.82 847.23 L 1055.02 844.94 L 1057.22 842.66 L 1059.44 840.43 L 1061.66 838.21 L 1063.87 836.00 L 1066.07 833.80 L 1068.26 831.60 L 1070.43 829.41 L 1072.61 827.24 L 1074.79 825.09 L 1076.97 822.96 L 1079.13 820.83 L 1081.34 818.77 L 1083.51 816.69 L 1085.66 814.60 L 1087.81 812.54 L 1089.94 810.49 L 1091.99 808.36 L 1093.99 806.21 L 1095.97 804.07 L 1097.90 801.89 L 1099.82 799.73 L 1101.73 797.56 L 1103.64 795.42 L 1105.56 793.30 L 1107.47 791.20 L 1109.41 789.14 L 1111.34 787.08 L 1113.21 784.99 L 1115.05 782.91 L 1116.84 780.81 L 1118.59 778.69 L 1120.36 776.61 L 1122.10 774.53 L 1123.86 772.47 L 1125.61 770.43 L 1127.39 768.44 L 1129.19 766.50 L 1130.97 764.55 L 1132.76 762.61 L 1134.54 760.68 L 1136.35 758.78 L 1138.16 756.87 L 1139.94 754.95 L 1141.73 753.09 L 1143.52 751.22 L 1145.30 749.35 L 1147.10 747.52 L 1148.92 745.74 L 1150.74 743.97 L 1152.55 742.23 L 1154.34 740.49 L 1156.13 738.76 L 1157.96 737.07 L 1159.76 735.38 L 1161.54 733.67 L 1163.32 731.97 L 1165.11 730.30 L 1166.92 728.66 L 1168.73 727.02 L 1170.53 725.39 L 1172.36 723.80 L 1174.15 722.19 L 1175.98 720.62" stroke="rgb(140,255,190)" stroke-opacity="0.720" stroke-width="1.14" />
  <path d="M 1049.19 1050.43 L 1050.03 1052.05 L 1050.88 1053.76 L 1051.75 1055.48 L 1052.59 1057.21 L 1053.45 1058.89 L 1054.29 1060.53 L 1055.14 1062.18 L 1055.97 1063.80 L 1056.87 1065.33 L 1057.75 1066.88 L 1058.61 1068.41 L 1059.41 1069.99 L 1060.08 1071.61 L 1060.66 1073.25 L 1061.28 1074.90 L 1061.89 1076.37 L 1062.52 1077.76 L 1063.15 1079.14 L 1063.77 1080.51 L 1064.40 1081.92 L 1065.01 1083.40 L 1065.52 1084.86 L 1066.03 1086.34 L 1066.63 1087.76 L 1067.26 1089.09 L 1067.83 1090.47 L 1068.38 1091.83 L 1068.93 1093.18 L 1069.48 1094.53 L 1070.07 1095.87 L 1070.67 1097.25 L 1071.21 1098.60 L 1071.79 1099.90 L 1072.31 1101.32 L 1072.84 1102.76 L 1073.27 1104.14 L 1073.73 1105.60 L 1074.16 1107.05 L 1074.53 1108.52 L 1074.92 1109.94 L 1075.37 1111.40 L 1075.69 1112.89 L 1076.03 1114.38 L 1076.36 1115.95 L 1076.70 1117.51 L 1077.11 1119.04 L 1077.55 1120.56 L 1078.00 1122.05 L 1078.45 1123.50 L 1078.96 1124.99 L 1079.46 1126.48 L 1079.96 1127.95 L 1080.46 1129.44 L 1080.96 1130.93 L 1081.46 1132.42 L 1081.95 1134.05 L 1082.42 1135.64 L 1082.88 1137.24 L 1083.32 1138.84" stroke="rgb(205,165,255)" stroke-opacity="0.478" stroke-width="1.14" />
  <path d="M 1001.75 998.25 L 1002.51 995.05 L 1003.27 991.86 L 1004.05 988.69 L 1004.83 985.54 L 1005.60 982.40 L 1006.36 979.26 L 1007.14 976.15 L 1007.92 973.05 L 1008.74 969.97 L 1009.61 966.92 L 1010.53 963.90 L 1011.40 960.87 L 1012.25 957.86 L 1013.14 954.86 L 1014.00 951.88 L 1014.94 948.93 L 1015.90 946.00 L 1016.87 943.08 L 1017.79 940.16 L 1018.70 937.26 L 1019.57 934.35 L 1020.40 931.44 L 1021.22 928.54 L 1022.04 925.66 L 1022.88 922.79 L 1023.72 919.94 L 1024.58 917.10 L 1025.42 914.28 L 1026.26 911.46 L 1027.10 908.65 L 1027.92 905.86 L 1028.79 903.09 L 1029.65 900.32" stroke="rgb(140,255,190)" stroke-opacity="0.719" stroke-width="1.14" />
  <path d="M 1019.79 884.97 L 1020.70 882.20 L 1021.65 879.46 L 1022.55 876.72 L 1023.45 874.00 L 1024.33 871.28 L 1025.19 868.56 L 1026.07 865.85 L 1027.04 863.19 L 1027.95 860.55 L 1028.90 857.93 L 1029.88 855.32 L 1030.90 852.74 L 1031.80 850.17 L 1032.69 847.59 L 1033.52 844.98 L 1034.33 842.36 L 1035.16 839.76 L 1035.99 837.17 L 1036.82 834.61 L 1037.63 832.06 L 1038.41 829.51 L 1039.16 826.97 L 1039.88 824.43 L 1040.62 821.89 L 1041.35 819.36 L 1042.13 816.82 L 1042.88 814.33 L 1043.62 811.84 L 1044.36 809.36 L 1045.10 806.89 L 1045.87 804.43 L 1046.59 801.97 L 1047.29 799.50 L 1048.13 797.08 L 1049.01 794.70 L 1049.82 792.32 L 1050.64 789.92 L 1051.45 787.55 L 1052.26 785.21 L 1053.12 782.92 L 1053.97 780.64 L 1054.81 778.37 L 1055.59 776.10 L 1056.35 773.82 L 1057.10 771.54 L 1057.85 769.27 L 1058.56 766.98 L 1059.30 764.71 L 1059.96 762.40 L 1060.64 760.14 L 1061.35 757.88 L 1062.06 755.60 L 1062.75 753.32 L 1063.44 751.05 L 1064.20 748.80" stroke="rgb(140,255,190)" stroke-opacity="0.719" stroke-width="1.14" />
  <path d="M 996.29 1000.45 L 997.02 997.35 L 997.76 994.27 L 998.44 991.18 L 999.14 988.12 L 999.86 985.07 L 1000.59 982.03 L 1001.30 979.00 L 1002.04 976.00 L 1002.80 973.01 L 1003.50 970.01 L 1004.17 967.03 L 1004.85 964.06 L 1005.53 961.10 L 1006.22 958.15 L 1006.92 955.23 L 1007.63 952.31 L 1008.33 949.41 L 1009.03 946.52 L 1009.71 943.63 L 1010.38 940.76 L 1011.03 937.89 L 1011.66 935.03 L 1012.25 932.18 L 1012.77 929.32 L 1013.33 926.48 L 1013.87 923.65 L 1014.34 920.82 L 1014.80 918.00 L 1015.27 915.19 L 1015.73 912.39 L 1016.19 909.61 L 1016.66 906.83 L 1017.11 904.07 L 1017.53 901.31 L 1017.95 898.56 L 1018.38 895.83 L 1018.77 893.10 L 1019.16 890.38 L 1019.51 887.68 L 1019.79 884.97 L 1020.05 882.27 L 1020.32 879.58 L 1020.60 876.91 L 1020.90 874.24 L 1021.20 871.59 L 1021.56 868.95 L 1022.00 866.34 L 1022.44 863.74" stroke="rgb(140,255,190)" stroke-opacity="0.717" stroke-width="1.14" />
  <path d="M 1004.09 998.20 L 1004.91 995.10 L 1005.65 991.98 L 1006.36 988.88 L 1007.14 985.81 L 1007.91 982.74 L 1008.68 979.68 L 1009.46 976.65 L 1010.25 973.62 L 1011.03 970.61 L 1011.81 967.61 L 1012.55 964.61 L 1013.35 961.63 L 1014.18 958.67 L 1014.98 955.73 L 1015.80 952.80 L 1016.60 949.87 L 1017.38 946.95 L 1018.13 944.04 L 1018.78 941.12 L 1019.41 938.21 L 1020.10 935.33 L 1020.81 932.46 L 1021.59 929.62 L 1022.35 926.79 L 1023.11 923.97 L 1023.88 921.16 L 1024.66 918.37 L 1025.41 915.58 L 1026.17 912.81 L 1026.87 910.03 L 1027.58 907.26 L 1028.27 904.50 L 1028.92 901.75 L 1029.56 899.00 L 1030.23 896.27 L 1030.86 893.54 L 1031.50 890.83 L 1032.13 888.13 L 1032.75 885.43 L 1033.39 882.76 L 1034.02 880.09 L 1034.71 877.44" stroke="rgb(140,255,190)" stroke-opacity="0.717" stroke-width="1.14" />
  <path d="M 1000.25 1002.35 L 1001.05 999.28 L 1001.85 996.22 L 1002.70 993.19 L 1003.56 990.18 L 1004.42 987.18 L 1005.27 984.19 L 1006.15 981.22 L 1007.07 978.27 L 1007.99 975.34 L 1008.90 972.42 L 1009.87 969.53 L 1010.83 966.65 L 1011.80 963.79 L 1012.65 960.90 L 1013.53 958.03 L 1014.41 955.18 L 1015.28 952.33 L 1016.11 949.48 L 1016.97 946.66 L 1017.78 943.83 L 1018.58 941.02 L 1019.38 938.22 L 1020.19 935.43 L 1020.96 932.65 L 1021.72 929.88 L 1022.48 927.12 L 1023.19 924.35 L 1023.94 921.62 L 1024.66 918.87 L 1025.34 916.14 L 1025.99 913.40 L 1026.66 910.68 L 1027.32 907.98 L 1027.99 905.29 L 1028.65 902.61 L 1029.37 899.96 L 1030.12 897.33 L 1030.86 894.70 L 1031.52 892.06 L 1032.14 889.42 L 1032.81 886.80 L 1033.48 884.19 L 1034.20 881.61 L 1034.90 879.04 L 1035.61 876.48 L 1036.29 873.91 L 1036.94 871.36 L 1037.60 868.81 L 1038.25 866.28 L 1038.91 863.76 L 1039.56 861.24 L 1040.20 858.74 L 1040.86 856.25 L 1041.54 853.78 L 1042.28 851.34 L 1042.98 848.89" stroke="rgb(140,255,190)" stroke-opacity="0.716" stroke-width="1.13" />
  <path d="M 1013.99 952.82 L 1015.56 950.97 L 1017.18 949.17 L 1018.78 947.37 L 1020.44 945.64 L 1022.17 943.99 L 1023.85 942.31 L 1025.55 940.65 L 1027.21 938.96 L 1028.87 937.27 L 1030.50 935.56 L 1032.18 933.92" stroke="rgb(140,255,190)" stroke-opacity="0.537" stroke-width="1.13" />
  <path d="M 1034.61 1033.38 L 1036.78 1033.82 L 1038.94 1034.26 L 1041.09 1034.71 L 1043.22 1035.15 L 1045.33 1035.59 L 1047.42 1036.12 L 1049.51 1036.66 L 1051.57 1037.15 L 1053.66 1037.64 L 1055.79 1038.15 L 1057.94 1038.65 L 1060.08 1039.15 L 1062.21 1039.64 L 1064.39 1040.13 L 1066.54 1040.62 L 1068.66 1041.12 L 1070.79 1041.57 L 1072.97 1041.98 L 1075.10 1042.64 L 1077.16 1043.41 L 1079.21 1044.27 L 1081.26 1045.15 L 1083.30 1046.02 L 1085.32 1046.87 L 1087.33 1047.70 L 1089.33 1048.59 L 1091.38 1049.40 L 1093.45 1050.21 L 1095.45 1051.02 L 1097.34 1051.89 L 1099.20 1052.74 L 1101.02 1053.60 L 1102.85 1054.41 L 1104.65 1055.26 L 1106.46 1056.10 L 1108.25 1056.97 L 1110.05 1057.82 L 1111.86 1058.68 L 1113.62 1059.60 L 1115.37 1060.49 L 1117.09 1061.38 L 1118.78 1062.20 L 1120.47 1063.02 L 1122.15 1063.87" stroke="rgb(205,165,255)" stroke-opacity="0.476" stroke-width="1.13" />
  <path d="M 1009.13 963.87 L 1011.31 961.75 L 1013.52 959.68 L 1015.72 957.61 L 1018.05 955.71 L 1020.36 953.81 L 1022.71 951.98 L 1025.05 950.15 L 1027.36 948.31 L 1029.63 946.43 L 1031.83 944.50 L 1034.06 942.61 L 1036.20 940.64 L 1038.33 938.67 L 1040.48 936.75 L 1042.67 934.89 L 1044.84 933.02 L 1046.97 931.13 L 1049.09 929.25 L 1051.15 927.31 L 1053.22 925.40 L 1055.27 923.49 L 1057.28 921.56 L 1059.35 919.71 L 1061.45 917.91 L 1063.56 916.13 L 1065.65 914.34 L 1067.75 912.60 L 1069.82 910.82 L 1071.88 909.06" stroke="rgb(140,255,190)" stroke-opacity="0.537" stroke-width="1.13" />
  <path d="M 1000.88 1000.90 L 1000.07 1003.21 L 999.25 1005.50 L 998.32 1007.77 L 997.42 1010.02 L 996.57 1012.26 L 995.71 1014.48" stroke="rgb(140,255,190)" stroke-opacity="0.536" stroke-width="1.13" />
  <path d="M 1108.12 823.92 L 1109.19 821.69 L 1110.25 819.47 L 1111.38 817.29 L 1112.48 815.11 L 1113.52 812.91 L 1114.53 810.71 L 1115.46 808.49 L 1116.40 806.28 L 1117.38 804.10 L 1118.33 801.90 L 1119.26 799.72 L 1120.17 797.54 L 1121.09 795.37 L 1122.06 793.24 L 1123.18 791.18 L 1124.29 789.13 L 1125.41 787.12 L 1126.47 785.08 L 1127.55 783.05 L 1128.66 781.06 L 1129.78 779.09 L 1130.97 777.18 L 1132.04 775.21 L 1133.07 773.23 L 1134.13 771.28 L 1135.20 769.34 L 1136.13 767.34 L 1136.79 765.25 L 1137.36 763.15 L 1137.84 761.03 L 1138.27 758.94 L 1138.69 756.87 L 1139.17 754.83 L 1139.58 752.79 L 1139.96 750.81 L 1140.35 748.84 L 1140.62 746.89 L 1140.86 744.99" stroke="rgb(140,255,190)" stroke-opacity="0.536" stroke-width="1.13" />
  <path d="M 997.17 999.05 L 997.63 996.61 L 998.10 994.18 L 998.67 991.78 L 999.21 989.39 L 999.72 987.00 L 1000.28 984.63 L 1000.80 982.26 L 1001.32 979.91 L 1001.95 977.59 L 1002.60 975.29 L 1003.27 973.01 L 1003.94 970.74 L 1004.59 968.47 L 1005.26 966.22 L 1005.92 963.98 L 1006.57 961.74 L 1007.24 959.51 L 1007.97 957.31 L 1008.71 955.13 L 1009.50 952.97 L 1010.44 950.89" stroke="rgb(140,255,190)" stroke-opacity="0.534" stroke-width="1.12" />
  <path d="M 997.78 999.64 L 998.58 997.26 L 999.37 994.89 L 1000.11 992.51 L 1000.84 990.15 L 1001.51 987.77 L 1002.06 985.37 L 1002.70 983.01 L 1003.30 980.65 L 1003.82 978.28 L 1004.36 975.92 L 1005.01 973.60 L 1005.67 971.29 L 1006.32 968.99 L 1006.96 966.70 L 1007.59 964.41 L 1008.23 962.14 L 1008.89 959.89 L 1009.53 957.64 L 1010.16 955.40 L 1010.78 953.17 L 1011.35 950.94 L 1011.88 948.71 L 1012.43 946.49 L 1013.15 944.33 L 1013.90 942.19 L 1014.64 940.06 L 1015.35 937.92 L 1015.98 935.78 L 1016.64 933.65 L 1017.30 931.52 L 1018.08 929.45 L 1018.87 927.39 L 1019.70 925.38 L 1020.52 923.37 L 1021.30 921.35 L 1022.12 919.35 L 1022.94 917.37 L 1023.76 915.40 L 1024.60 913.49 L 1025.42 911.56 L 1026.23 909.64 L 1027.02 907.75 L 1027.81 905.86 L 1028.59 903.98 L 1029.34 902.11 L 1030.10 900.24 L 1030.79 898.35 L 1031.40 896.46" stroke="rgb(140,255,190)" stroke-opacity="0.534" stroke-width="1.12" />
  <path d="M 1000.59 1003.53 L 1001.20 1000.57 L 1001.81 997.62 L 1002.49 994.69 L 1003.20 991.78 L 1003.93 988.88 L 1004.66 986.00 L 1005.45 983.14 L 1006.22 980.29 L 1007.01 977.45 L 1007.80 974.62 L 1008.59 971.80 L 1009.37 969.00 L 1010.11 966.20 L 1010.83 963.39 L 1011.52 960.60 L 1012.19 957.80 L 1012.88 955.04 L 1013.57 952.28 L 1014.22 949.52 L 1014.81 946.76 L 1015.41 944.02 L 1016.10 941.30 L 1016.82 938.60 L 1017.53 935.92 L 1018.25 933.24 L 1018.97 930.58 L 1019.71 927.92 L 1020.42 925.28 L 1021.15 922.65 L 1021.88 920.03 L 1022.59 917.42 L 1023.28 914.83" stroke="rgb(140,255,190)" stroke-opacity="0.534" stroke-width="1.12" />
  <path d="M 1038.38 925.80 L 1039.26 923.15 L 1040.14 920.57 L 1041.03 918.00 L 1042.04 915.42 L 1043.08 912.89 L 1044.09 910.35 L 1044.97 907.88 L 1045.83 905.40 L 1046.69 902.94 L 1047.49 900.49 L 1048.31 898.08 L 1049.10 895.69 L 1049.83 893.28 L 1050.43 890.88 L 1051.06 888.48 L 1051.59 886.06 L 1052.12 883.64 L 1052.58 881.20 L 1053.03 878.76 L 1053.47 876.37 L 1053.94 874.00 L 1054.42 871.64 L 1054.83 869.32" stroke="rgb(140,255,190)" stroke-opacity="0.532" stroke-width="1.12" />
  <path d="M 1046.76 903.92 L 1048.91 902.04 L 1051.10 900.19 L 1053.36 898.48 L 1055.53 896.67 L 1057.79 894.98 L 1060.01 893.27 L 1062.35 891.73 L 1064.68 890.20 L 1066.99 888.67 L 1069.26 887.09 L 1071.58 885.60 L 1073.92 884.17 L 1076.19 882.64 L 1078.46 881.11 L 1080.78 879.69 L 1083.01 878.14 L 1085.21 876.58 L 1087.38 874.99 L 1089.53 873.39 L 1091.66 871.77 L 1093.74 870.12 L 1095.88 868.56 L 1097.97 866.95 L 1100.05 865.36 L 1102.12 863.76" stroke="rgb(140,255,190)" stroke-opacity="0.531" stroke-width="1.11" />
  <path d="M 1000.23 998.53 L 998.42 999.82 L 996.59 1001.11 L 994.75 1002.39 L 992.94 1003.69 L 991.19 1005.04 L 989.43 1006.39" stroke="rgb(205,165,255)" stroke-opacity="0.470" stroke-width="1.11" />
  <path d="M 999.15 997.88 L 999.37 998.63 L 999.66 999.40 L 999.99 1000.27 L 1000.29 1001.17 L 1000.64 1002.02 L 1000.98 1002.87 L 1001.32 1003.69 L 1001.66 1004.62 L 1001.91 1005.55 L 1002.19 1006.38 L 1002.36 1007.14 L 1002.56 1007.89 L 1002.88 1008.64 L 1003.26 1009.42 L 1003.64 1010.20 L 1004.13 1010.95 L 1004.62 1011.71 L 1005.14 1012.45 L 1005.59 1013.20 L 1006.03 1013.97 L 1006.53 1014.70 L 1007.02 1015.41 L 1007.49 1016.10 L 1007.98 1016.79 L 1008.43 1017.43 L 1008.95 1018.19 L 1009.47 1018.92 L 1010.14 1019.64 L 1010.80 1020.34 L 1011.44 1021.02 L 1012.05 1021.71 L 1012.66 1022.40 L 1013.26 1023.07 L 1013.88 1023.83 L 1014.48 1024.58 L 1015.03 1025.28 L 1015.57 1025.91 L 1016.09 1026.53 L 1016.62 1027.17 L 1017.05 1027.81 L 1017.45 1028.48 L 1017.83 1029.22 L 1018.17 1029.98 L 1018.48 1030.80 L 1018.79 1031.61 L 1019.11 1032.48 L 1019.42 1033.37 L 1019.73 1034.25" stroke="rgb(205,165,255)" stroke-opacity="0.470" stroke-width="1.11" />
  <path d="M 1000.16 1000.67 L 1001.05 1000.86 L 1001.93 1001.24 L 1002.78 1001.58 L 1003.57 1001.97 L 1004.35 1002.33 L 1005.13 1002.69 L 1005.91 1003.07 L 1006.67 1003.46 L 1007.44 1003.88 L 1008.18 1004.31 L 1008.88 1004.79 L 1009.65 1005.28 L 1010.45 1005.77 L 1011.23 1006.30 L 1011.95 1006.83 L 1012.72 1007.35 L 1013.53 1007.82 L 1014.36 1008.29 L 1015.23 1008.65 L 1016.09 1009.01 L 1016.94 1009.35" stroke="rgb(205,165,255)" stroke-opacity="0.469" stroke-width="1.11" />
  <path d="M 1002.79 997.12 L 1003.82 994.31 L 1005.01 991.58 L 1006.20 988.86 L 1007.33 986.12 L 1008.40 983.37 L 1009.48 980.63 L 1010.55 977.90 L 1011.64 975.18 L 1012.75 972.49 L 1013.94 969.85 L 1015.12 967.21 L 1016.28 964.58 L 1017.44 961.96 L 1018.65 959.38 L 1019.79 956.77 L 1020.92 954.18 L 1022.07 951.60 L 1023.23 949.04 L 1024.37 946.49 L 1025.46 943.92 L 1026.57 941.38 L 1027.66 938.85 L 1028.73 936.31 L 1029.82 933.80 L 1030.92 931.31 L 1032.03 928.83 L 1033.11 926.36 L 1034.18 923.89 L 1035.21 921.41 L 1036.29 918.97 L 1037.36 916.54" stroke="rgb(140,255,190)" stroke-opacity="0.529" stroke-width="1.11" />
  <path d="M 1072.61 827.24 L 1075.12 826.02 L 1077.63 824.81 L 1080.16 823.63 L 1082.63 822.35 L 1085.10 821.14 L 1087.56 819.91 L 1090.03 818.67 L 1092.48 817.41 L 1094.93 816.14 L 1097.38 814.90 L 1099.84 813.73 L 1102.29 812.58 L 1104.77 811.52 L 1107.23 810.48 L 1109.64 809.34 L 1112.01 808.10 L 1114.37 806.85 L 1116.67 805.47 L 1118.92 804.05 L 1121.16 802.63 L 1123.39 801.24 L 1125.64 799.94 L 1127.83 798.61 L 1129.96 797.29 L 1132.11 795.99 L 1134.24 794.68 L 1136.37 793.37 L 1138.55 792.15 L 1140.77 790.99 L 1142.96 789.79 L 1145.10 788.53 L 1147.26 787.32 L 1149.41 786.12 L 1151.63 785.05 L 1153.79 783.96 L 1156.01 783.04 L 1158.25 782.27 L 1160.49 781.50 L 1162.74 780.80 L 1165.00 780.10 L 1167.31 779.46 L 1169.59 778.78 L 1171.84 778.07 L 1174.07 777.35 L 1176.31 776.74 L 1178.60 776.19 L 1180.87 775.65 L 1183.12 775.14" stroke="rgb(140,255,190)" stroke-opacity="0.529" stroke-width="1.11" />
  <path d="M 1033.11 926.36 L 1033.33 923.51 L 1033.53 920.68 L 1033.77 917.87 L 1033.94 915.07 L 1034.06 912.27 L 1034.14 909.50 L 1034.14 906.74 L 1034.09 904.01 L 1034.04 901.29" stroke="rgb(140,255,190)" stroke-opacity="0.529" stroke-width="1.11" />
  <path d="M 1029.89 936.90 L 1030.79 934.65 L 1031.71 932.42 L 1032.69 930.23 L 1033.54 928.03 L 1034.36 925.83 L 1035.20 923.61 L 1036.05 921.45 L 1036.86 919.26 L 1037.63 917.04 L 1038.38 914.83 L 1039.09 912.60 L 1039.85 910.38 L 1040.61 908.16 L 1041.37 905.96 L 1042.17 903.81 L 1042.95 901.66 L 1043.72 899.52" stroke="rgb(140,255,190)" stroke-opacity="0.529" stroke-width="1.11" />
  <path d="M 998.96 1001.17 L 998.41 1003.97 L 997.78 1006.74 L 997.20 1009.50 L 996.63 1012.24 L 996.08 1014.97 L 995.53 1017.68 L 995.00 1020.38 L 994.40 1023.02 L 993.75 1025.64 L 993.20 1028.25 L 992.61 1030.86 L 992.08 1033.46 L 991.54 1036.05 L 990.93 1038.62 L 990.32 1041.20 L 989.84 1043.78 L 989.41 1046.37 L 989.02 1048.96 L 988.63 1051.52 L 988.26 1054.07 L 987.84 1056.60 L 987.42 1059.11 L 986.97 1061.61 L 986.52 1064.10 L 986.12 1066.60 L 985.70 1069.08" stroke="rgb(140,255,190)" stroke-opacity="0.529" stroke-width="1.11" />
  <path d="M 997.48 997.11 L 999.32 995.29 L 1001.14 993.50 L 1002.96 991.71 L 1004.78 989.96 L 1006.64 988.26 L 1008.48 986.53 L 1010.31 984.81 L 1012.10 983.06 L 1013.86 981.31 L 1015.63 979.58 L 1017.39 977.87 L 1019.14 976.17 L 1020.88 974.47 L 1022.58 972.74 L 1024.14 970.87 L 1025.81 969.05 L 1027.45 967.24 L 1029.07 965.42 L 1030.71 963.63 L 1032.34 961.85 L 1033.96 960.07 L 1035.66 958.33 L 1037.35 956.60 L 1039.05 954.90 L 1040.78 953.26 L 1042.44 951.56 L 1044.11 949.86 L 1045.84 948.22 L 1047.52 946.54 L 1049.20 944.90 L 1050.87 943.27 L 1052.54 941.65 L 1054.20 940.03 L 1055.86 938.41 L 1057.52 936.80 L 1059.06 935.09 L 1060.51 933.31 L 1061.96 931.55 L 1063.37 929.76 L 1064.78 927.99 L 1066.17 926.23 L 1067.58 924.50 L 1068.99 922.78 L 1070.42 921.06 L 1071.83 919.35 L 1073.21 917.62 L 1074.57 915.89 L 1075.95 914.18 L 1077.29 912.45 L 1078.62 910.71 L 1079.96 908.98 L 1081.27 907.24 L 1082.57 905.49 L 1083.86 903.76 L 1085.15 902.03 L 1086.41 900.29 L 1087.71 898.59 L 1088.99 896.88 L 1090.28 895.20 L 1091.54 893.52 L 1092.77 891.83 L 1093.99 890.14 L 1095.30 888.51 L 1096.59 886.89 L 1098.00 885.35 L 1099.45 883.88 L 1100.90 882.40 L 1102.34 880.94 L 1103.82 879.53 L 1105.30 878.12 L 1106.76 876.71 L 1108.22 875.32 L 1109.68 873.95 L 1111.12 872.58 L 1112.54 871.19 L 1113.95 869.80 L 1115.39 868.45 L 1116.84 867.11 L 1118.29 865.78 L 1119.73 864.45 L 1121.14 863.08 L 1122.56 861.73 L 1123.96 860.37 L 1125.40 859.07 L 1126.85 857.78 L 1128.25 856.46 L 1129.64 855.13 L 1131.02 853.81 L 1132.44 852.55 L 1133.88 851.32 L 1135.29 850.06 L 1136.70 848.81 L 1138.10 847.57 L 1139.48 846.32 L 1140.90 845.13 L 1142.33 843.95 L 1143.76 842.79 L 1145.18 841.64 L 1146.61 840.49 L 1148.00 839.32 L 1149.40 838.17 L 1150.82 837.06 L 1152.26 835.98 L 1153.69 834.89 L 1155.08 833.78 L 1156.47 832.66 L 1157.88 831.59 L 1159.28 830.52 L 1160.66 829.45 L 1162.05 828.43 L 1163.37 827.32 L 1164.70 826.20 L 1166.04 825.11" stroke="rgb(205,165,255)" stroke-opacity="0.468" stroke-width="1.11" />
  <path d="M 1002.05 998.25 L 1002.71 995.66 L 1003.53 993.12 L 1004.34 990.59 L 1005.19 988.09 L 1006.03 985.60 L 1006.90 983.12 L 1007.77 980.66 L 1008.55 978.18 L 1009.37 975.72 L 1010.25 973.29 L 1011.14 970.88 L 1012.11 968.51 L 1013.08 966.16 L 1014.04 963.81 L 1015.17 961.54 L 1016.29 959.29 L 1017.42 957.05 L 1018.55 954.82 L 1019.70 952.61 L 1020.88 950.44 L 1022.10 948.29 L 1023.36 946.19 L 1024.58 944.08 L 1025.77 941.97 L 1026.96 939.87 L 1028.15 937.78 L 1029.33 935.68 L 1030.51 933.60 L 1031.73 931.54 L 1032.93 929.49 L 1034.17 927.47 L 1035.45 925.48 L 1036.71 923.49 L 1037.97 921.51 L 1039.22 919.54 L 1040.46 917.58 L 1041.74 915.65 L 1043.01 913.72 L 1044.27 911.80 L 1045.49 909.87" stroke="rgb(140,255,190)" stroke-opacity="0.529" stroke-width="1.11" />
  <path d="M 1002.07 999.75 L 1003.53 1001.58 L 1004.99 1003.39 L 1006.39 1005.23 L 1007.66 1007.15 L 1008.84 1009.10 L 1009.99 1011.06 L 1011.13 1013.01 L 1012.25 1014.94 L 1013.36 1016.80 L 1014.53 1018.66 L 1015.58 1020.58 L 1016.63 1022.50 L 1017.65 1024.39 L 1018.66 1026.27 L 1019.70 1028.13 L 1020.74 1030.00 L 1021.80 1031.85 L 1022.84 1033.70 L 1023.85 1035.56 L 1024.75 1037.47 L 1025.66 1039.37 L 1026.65 1041.21 L 1027.64 1043.04 L 1028.56 1044.85 L 1029.55 1046.60 L 1030.51 1048.27 L 1031.44 1049.95 L 1032.42 1051.62 L 1033.39 1053.24 L 1034.36 1054.85 L 1035.30 1056.50 L 1036.22 1058.14 L 1037.12 1059.79 L 1038.14 1061.41 L 1039.12 1062.96 L 1040.13 1064.50 L 1041.12 1066.01 L 1042.20 1067.54 L 1043.27 1068.94 L 1044.30 1070.37" stroke="rgb(255,210,135)" stroke-opacity="0.402" stroke-width="1.10" />
  <path d="M 1002.31 999.11 L 1003.02 996.19 L 1003.72 993.27 L 1004.42 990.38 L 1005.11 987.49 L 1005.83 984.63 L 1006.57 981.77 L 1007.36 978.95 L 1008.08 976.11 L 1008.87 973.30 L 1009.64 970.50 L 1010.40 967.71 L 1011.31 964.98 L 1012.22 962.26" stroke="rgb(140,255,190)" stroke-opacity="0.528" stroke-width="1.10" />
  <path d="M 1016.28 964.58 L 1017.77 962.30 L 1019.22 960.02 L 1020.71 957.77 L 1022.15 955.51 L 1023.54 953.22 L 1024.92 950.95 L 1026.26 948.66 L 1027.56 946.36 L 1028.72 944.00 L 1029.87 941.65 L 1031.01 939.31 L 1032.14 936.96 L 1033.33 934.67 L 1034.49 932.37 L 1035.73 930.12 L 1037.08 927.97 L 1038.38 925.80 L 1039.71 923.67 L 1041.10 921.59 L 1042.37 919.44 L 1043.67 917.32 L 1044.93 915.19 L 1046.23 913.09 L 1047.48 910.97 L 1048.66 908.82 L 1049.85 906.68 L 1051.02 904.56 L 1052.19 902.44 L 1053.37 900.33 L 1054.43 898.17 L 1055.49 896.02 L 1056.50 893.85 L 1057.51 891.70 L 1058.50 889.55 L 1059.43 887.39 L 1060.19 885.16 L 1060.96 882.96 L 1061.91 880.84 L 1062.85 878.72 L 1063.76 876.59 L 1064.63 874.47 L 1065.56 872.37 L 1066.49 870.28 L 1067.37 868.18 L 1068.42 866.16 L 1069.53 864.18" stroke="rgb(140,255,190)" stroke-opacity="0.527" stroke-width="1.10" />
  <path d="M 1012.30 949.24 L 1011.83 946.46 L 1011.36 943.69 L 1010.82 940.95 L 1010.22 938.23 L 1009.63 935.53 L 1009.06 932.83 L 1008.51 930.13 L 1007.95 927.45 L 1007.37 924.79 L 1006.79 922.14 L 1006.21 919.50 L 1005.60 916.88 L 1005.01 914.27 L 1004.42 911.68 L 1003.84 909.09 L 1003.30 906.50" stroke="rgb(140,255,190)" stroke-opacity="0.527" stroke-width="1.10" />
  <path d="M 1028.36 873.58 L 1028.18 870.92 L 1027.93 868.27 L 1027.70 865.64 L 1027.41 863.03 L 1027.08 860.42 L 1026.86 857.82 L 1026.64 855.23 L 1026.37 852.65 L 1026.13 850.08 L 1025.91 847.52 L 1025.70 844.97 L 1025.50 842.43 L 1025.30 839.90 L 1024.99 837.39 L 1024.70 834.89 L 1024.40 832.40 L 1024.10 829.92 L 1023.91 827.45 L 1023.73 824.98 L 1023.60 822.51 L 1023.32 820.07 L 1023.05 817.64 L 1022.70 815.22 L 1022.39 812.81 L 1022.07 810.40 L 1021.78 808.01 L 1021.48 805.63 L 1021.21 803.25 L 1021.04 800.87 L 1020.88 798.50 L 1020.72 796.14 L 1020.57 793.79 L 1020.44 791.45 L 1020.29 789.12 L 1020.16 786.81 L 1020.06 784.50" stroke="rgb(140,255,190)" stroke-opacity="0.525" stroke-width="1.10" />
  <path d="M 1003.72 996.94 L 1004.26 994.34 L 1004.82 991.76 L 1005.37 989.18 L 1005.92 986.62 L 1006.46 984.06 L 1007.01 981.52 L 1007.54 978.98 L 1008.05 976.45 L 1008.65 973.95 L 1009.24 971.46 L 1009.89 969.00 L 1010.57 966.55 L 1011.29 964.12 L 1011.92 961.68 L 1012.53 959.25 L 1013.13 956.82 L 1013.77 954.42 L 1014.45 952.04 L 1015.14 949.67 L 1015.85 947.31 L 1016.53 944.95 L 1017.23 942.62 L 1017.94 940.29 L 1018.63 937.97 L 1019.28 935.65 L 1020.06 933.38 L 1020.88 931.13 L 1021.59 928.86 L 1022.35 926.61 L 1023.05 924.35 L 1023.80 922.12 L 1024.54 919.90 L 1025.28 917.69 L 1026.03 915.49 L 1026.88 913.33 L 1027.77 911.20 L 1028.61 909.07" stroke="rgb(140,255,190)" stroke-opacity="0.525" stroke-width="1.09" />
  <path d="M 989.41 1046.37 L 989.82 1048.86 L 990.22 1051.29 L 990.58 1053.71 L 991.04 1056.17 L 991.50 1058.61 L 991.95 1061.02 L 992.44 1063.39 L 992.97 1065.75 L 993.50 1068.10 L 994.05 1070.44 L 994.70 1072.74 L 995.44 1075.01 L 996.25 1077.21 L 997.03 1079.42 L 997.79 1081.60 L 998.49 1083.78 L 999.18 1085.93 L 999.82 1088.08 L 1000.50 1090.21 L 1001.24 1092.34 L 1001.97 1094.48 L 1002.77 1096.56 L 1003.60 1098.62 L 1004.52 1100.66 L 1005.49 1102.67 L 1006.45 1104.67 L 1007.40 1106.68 L 1008.27 1108.74 L 1009.19 1110.76 L 1010.19 1112.77 L 1011.09 1114.81 L 1011.87 1116.87 L 1012.64 1118.93 L 1013.39 1120.96 L 1014.13 1122.96 L 1014.87 1124.96 L 1015.61 1126.94 L 1016.30 1128.93" stroke="rgb(140,255,190)" stroke-opacity="0.525" stroke-width="1.09" />
  <path d="M 1003.01 1002.08 L 1004.20 999.49 L 1005.37 996.90 L 1006.55 994.34 L 1007.66 991.74 L 1008.75 989.16 L 1009.90 986.62 L 1011.08 984.10 L 1012.25 981.59 L 1013.37 979.06 L 1014.54 976.57 L 1015.64 974.06 L 1016.72 971.56 L 1017.85 969.08 L 1018.88 966.58 L 1019.90 964.08 L 1020.94 961.60 L 1021.98 959.14 L 1023.00 956.68 L 1023.91 954.18 L 1024.79 951.69 L 1025.66 949.21 L 1026.49 946.72 L 1027.34 944.24 L 1028.20 941.79 L 1029.07 939.35 L 1029.89 936.90 L 1030.71 934.46 L 1031.50 932.03 L 1032.28 929.60 L 1033.06 927.18 L 1033.83 924.77 L 1034.61 922.38 L 1035.45 920.01 L 1036.32 917.67 L 1037.16 915.33 L 1038.05 913.01 L 1038.94 910.71 L 1039.86 908.42 L 1040.83 906.18 L 1041.83 903.95 L 1042.82 901.73 L 1043.83 899.53 L 1044.84 897.35 L 1045.85 895.17 L 1046.86 893.00 L 1047.84 890.83 L 1048.81 888.66 L 1049.82 886.53 L 1050.78 884.39 L 1051.76 882.26 L 1052.70 880.13 L 1053.64 878.01 L 1054.61 875.91 L 1055.52 873.80 L 1056.43 871.70 L 1057.34 869.61 L 1058.23 867.52 L 1059.13 865.45 L 1060.02 863.38 L 1060.81 861.28 L 1061.60 859.19 L 1062.43 857.12" stroke="rgb(140,255,190)" stroke-opacity="0.525" stroke-width="1.09" />
  <path d="M 1026.10 905.81 L 1025.28 903.10 L 1024.48 900.39 L 1023.68 897.68 L 1022.90 894.99 L 1022.12 892.30 L 1021.34 889.63 L 1020.51 886.98 L 1019.70 884.34 L 1018.96 881.68 L 1018.15 879.06 L 1017.28 876.47 L 1016.41 873.89 L 1015.54 871.32 L 1014.63 868.80 L 1013.77 866.28 L 1012.84 863.79 L 1011.94 861.31 L 1011.04 858.82 L 1010.16 856.33 L 1009.26 853.85 L 1008.33 851.40 L 1007.40 848.97 L 1006.49 846.56 L 1005.63 844.15 L 1004.87 841.71 L 1004.07 839.28 L 1003.25 836.86 L 1002.37 834.47 L 1001.64 832.04 L 1000.89 829.64 L 1000.02 827.27 L 999.16 824.92 L 998.30 822.57 L 997.52 820.19 L 996.74 817.82 L 995.90 815.47 L 995.05 813.15 L 994.22 810.82 L 993.43 808.49 L 992.68 806.16 L 992.05 803.80 L 991.44 801.45 L 990.84 799.11 L 990.27 796.77 L 989.70 794.44 L 989.15 792.11 L 988.61 789.79 L 987.99 787.51 L 987.44 785.21" stroke="rgb(140,255,190)" stroke-opacity="0.524" stroke-width="1.09" />
  <path d="M 1019.38 938.22 L 1019.64 935.58 L 1020.02 932.97 L 1020.36 930.38 L 1020.74 927.79 L 1021.29 925.29 L 1021.79 922.80 L 1022.41 920.35 L 1023.02 917.90 L 1023.69 915.50 L 1024.29 913.06 L 1024.87 910.62 L 1025.46 908.20 L 1026.10 905.81 L 1026.55 903.35 L 1026.98 900.90 L 1027.42 898.47 L 1027.86 896.04 L 1028.22 893.58 L 1028.51 891.11 L 1028.82 888.67 L 1029.13 886.23 L 1029.42 883.82 L 1029.64 881.40 L 1029.84 878.99 L 1030.25 876.64" stroke="rgb(140,255,190)" stroke-opacity="0.523" stroke-width="1.09" />
  <path d="M 1050.77 1052.28 L 1051.47 1054.45 L 1052.22 1056.59 L 1053.07 1058.66 L 1053.88 1060.73 L 1054.72 1062.78 L 1055.55 1064.82 L 1056.36 1066.87 L 1057.28 1068.88 L 1058.19 1070.91 L 1059.06 1072.92 L 1059.83 1074.93 L 1060.48 1076.98 L 1061.22 1079.01 L 1061.92 1081.05 L 1062.64 1083.09 L 1063.35 1085.12 L 1064.04 1087.12 L 1064.68 1089.17 L 1065.54 1091.15 L 1066.48 1093.13 L 1067.41 1095.10 L 1068.30 1097.13" stroke="rgb(205,165,255)" stroke-opacity="0.463" stroke-width="1.08" />
  <path d="M 1000.62 1001.95 L 999.59 999.71 L 998.56 997.48 L 997.59 995.25 L 996.64 993.01 L 995.68 990.79 L 994.80 988.54 L 993.89 986.32 L 992.93 984.11 L 991.99 981.90 L 990.99 979.73 L 989.99 977.58 L 989.01 975.41 L 988.04 973.25 L 987.03 971.09 L 986.07 968.92 L 985.10 966.76 L 984.11 964.61 L 983.15 962.44 L 982.19 960.27" stroke="rgb(205,165,255)" stroke-opacity="0.461" stroke-width="1.08" />
  <path d="M 1000.58 999.29 L 1000.47 1001.44 L 1000.43 1003.59 L 1000.37 1005.72 L 1000.35 1007.85 L 1000.32 1009.97 L 1000.33 1012.07 L 1000.36 1014.17 L 1000.41 1016.26 L 1000.44 1018.35 L 1000.49 1020.42 L 1000.43 1022.49 L 1000.37 1024.55 L 1000.29 1026.59 L 1000.28 1028.63 L 1000.26 1030.66 L 1000.28 1032.69 L 1000.26 1034.70 L 1000.22 1036.70 L 1000.17 1038.69 L 1000.07 1040.68 L 999.89 1042.65 L 999.70 1044.62 L 999.46 1046.58 L 999.25 1048.53 L 999.01 1050.47 L 998.78 1052.41 L 998.55 1054.33 L 998.42 1056.26 L 998.29 1058.18 L 998.16 1060.10 L 998.10 1062.00 L 998.17 1063.90 L 998.24 1065.80 L 998.26 1067.68 L 998.21 1069.56 L 998.16 1071.43 L 998.07 1073.29 L 998.10 1075.15 L 998.15 1077.00 L 998.14 1078.84 L 998.12 1080.68 L 998.05 1082.50 L 997.96 1084.32 L 997.82 1086.13" stroke="rgb(255,210,135)" stroke-opacity="0.395" stroke-width="1.08" />
  <path d="M 998.81 998.28 L 998.56 1000.61 L 998.46 1002.95 L 998.36 1005.27 L 998.31 1007.58 L 998.40 1009.88 L 998.49 1012.17 L 998.60 1014.44 L 998.65 1016.69 L 998.64 1018.93 L 998.63 1021.16 L 998.66 1023.38 L 998.61 1025.56 L 998.58 1027.74 L 998.54 1029.89 L 998.53 1032.04 L 998.51 1034.18 L 998.45 1036.33 L 998.45 1038.47 L 998.45 1040.61 L 998.41 1042.72 L 998.39 1044.85 L 998.27 1046.97 L 998.13 1049.08 L 998.03 1051.20 L 997.85 1053.30 L 997.68 1055.39 L 997.43 1057.47 L 997.13 1059.53 L 996.80 1061.58 L 996.44 1063.62 L 996.07 1065.65 L 995.76 1067.69 L 995.43 1069.73 L 995.09 1071.75 L 994.81 1073.77 L 994.53 1075.78 L 994.14 1077.77 L 993.78 1079.76 L 993.38 1081.74 L 992.98 1083.70 L 992.58 1085.66 L 992.17 1087.61 L 991.80 1089.56 L 991.46 1091.50 L 991.12 1093.44 L 990.79 1095.37 L 990.45 1097.29 L 990.00 1099.18 L 989.57 1101.06" stroke="rgb(205,165,255)" stroke-opacity="0.458" stroke-width="1.07" />
  <path d="M 1000.97 999.27 L 999.63 999.74 L 998.25 999.94 L 996.93 999.87 L 995.60 999.82 L 994.28 999.70 L 992.93 999.52 L 991.60 999.36 L 990.30 999.22" stroke="rgb(230,230,230)" stroke-opacity="0.382" stroke-width="0.70" />
  <path d="M 1000.82 995.61 L 999.98 995.36 L 999.06 995.10 L 998.34 994.86 L 997.59 994.63 L 996.86 994.39" stroke="rgb(230,230,230)" stroke-opacity="0.381" stroke-width="0.70" />
  <path d="M 999.14 1000.06 L 1000.03 1001.00 L 1000.92 1001.93 L 1001.81 1002.94 L 1002.72 1003.89 L 1003.61 1004.89 L 1004.49 1005.87" stroke="rgb(230,230,230)" stroke-opacity="0.381" stroke-width="0.70" />
  <path d="M 1006.01 1004.52 L 1004.76 1004.53 L 1003.44 1004.59 L 1002.14 1004.83 L 1000.86 1005.09 L 999.55 1005.54 L 998.28 1005.95 L 997.03 1006.58 L 995.96 1007.18" stroke="rgb(230,230,230)" stroke-opacity="0.376" stroke-width="0.69" />
  <path d="M 996.41 1007.69 L 995.32 1008.07 L 994.39 1008.40 L 993.45 1008.82 L 992.53 1009.28 L 991.63 1009.67" stroke="rgb(230,230,230)" stroke-opacity="0.371" stroke-width="0.67" />
  <path d="M 1000.09 1000.15 L 999.41 1001.36 L 998.76 1002.60 L 998.10 1003.82 L 997.63 1005.15 L 997.20 1006.49 L 996.86 1007.86" stroke="rgb(230,230,230)" stroke-opacity="0.369" stroke-width="0.67" />
  <path d="M 1005.50 999.73 L 1005.55 1000.41 L 1005.63 1001.03 L 1005.60 1001.85" stroke="rgb(230,230,230)" stroke-opacity="0.369" stroke-width="0.66" />
  <path d="M 1000.43 997.71 L 1000.63 998.51 L 1000.86 999.30 L 1000.99 1000.07 L 1001.13 1000.85" stroke="rgb(230,230,230)" stroke-opacity="0.363" stroke-width="0.65" />
  <path d="M 1000.51 1009.73 L 1000.43 1008.35 L 1000.40 1007.09 L 1000.42 1005.87 L 1000.73 1004.68 L 1001.16 1003.53 L 1001.62 1002.44 L 1002.09 1001.34 L 1002.56 1000.24 L 1003.14 999.16 L 1003.72 998.09 L 1004.17 996.94 L 1004.57 995.74 L 1005.01 994.55 L 1005.50 993.33 L 1005.99 992.16 L 1006.62 991.09" stroke="rgb(230,230,230)" stroke-opacity="0.361" stroke-width="0.64" />
  <path d="M 1001.79 997.19 L 1002.10 995.92 L 1002.40 994.63 L 1002.95 993.36 L 1003.42 992.12 L 1003.97 990.88 L 1004.41 989.61" stroke="rgb(230,230,230)" stroke-opacity="0.360" stroke-width="0.64" />
  <path d="M 998.93 1002.40 L 998.88 1002.00 L 998.76 1001.68 L 998.66 1001.43 L 998.60 1001.26 L 998.67 1000.99 L 998.74 1000.73 L 998.66 1000.33 L 998.59 999.95 L 998.53 999.57 L 998.43 999.31 L 998.34 999.11 L 998.24 998.85 L 998.07 998.57 L 997.90 998.31" stroke="rgb(230,230,230)" stroke-opacity="0.359" stroke-width="0.64" />
  <path d="M 995.27 997.54 L 995.63 998.05 L 995.80 998.53 L 995.83 998.81 L 995.84 999.08 L 995.85 999.35 L 995.88 999.62" stroke="rgb(230,230,230)" stroke-opacity="0.359" stroke-width="0.64" />
  <path d="M 998.93 996.02 L 998.17 995.21 L 997.40 994.41 L 996.67 993.62 L 995.95 992.79 L 995.10 992.07 L 994.24 991.46 L 993.28 990.88" stroke="rgb(230,230,230)" stroke-opacity="0.358" stroke-width="0.63" />
  <path d="M 998.09 995.06 L 998.47 996.09 L 998.78 997.13 L 999.06 998.17 L 999.32 999.23 L 999.54 1000.25 L 999.72 1001.18 L 999.93 1002.16 L 1000.13 1003.17 L 1000.34 1004.18" stroke="rgb(230,230,230)" stroke-opacity="0.358" stroke-width="0.63" />
  <path d="M 997.60 1003.25 L 997.65 1002.03 L 997.75 1000.79 L 997.81 999.51 L 997.80 998.20 L 997.76 996.89 L 997.72 995.60 L 997.61 994.36" stroke="rgb(230,230,230)" stroke-opacity="0.355" stroke-width="0.62" />
  <path d="M 1006.45 1001.22 L 1005.88 1001.54 L 1005.38 1001.87 L 1004.81 1002.20 L 1004.46 1002.26 L 1003.97 1002.46 L 1003.44 1002.55 L 1003.05 1002.78 L 1002.69 1003.11 L 1002.27 1003.44 L 1001.52 1003.50 L 1000.77 1003.48 L 1000.08 1003.47 L 999.35 1003.45 L 998.62 1003.53" stroke="rgb(230,230,230)" stroke-opacity="0.353" stroke-width="0.62" />
  <path d="M 993.64 1004.56 L 993.18 1003.23 L 992.74 1001.88" stroke="rgb(230,230,230)" stroke-opacity="0.351" stroke-width="0.61" />
  <path d="M 999.05 996.22 L 1000.52 996.51 L 1001.98 996.81 L 1003.44 997.08 L 1004.91 997.29 L 1006.36 997.49 L 1007.80 997.74 L 1009.23 997.93 L 1010.68 998.11 L 1012.11 998.31 L 1013.55 998.44" stroke="rgb(230,230,230)" stroke-opacity="0.350" stroke-width="0.61" />
</g>
</svg>
