{
  "asset": {
    "version": "2.0",
    "generator": "TES-23 Cosmic Ray Renderer"
  },
  "extensionsUsed": [
    "KHR_materials_unlit"
  ],
  "extensionsRequired": [
    "KHR_materials_unlit"
  ],
  "scene": 0,
  "scenes": [
    {
      "nodes": [
        0
      ]
    }
  ],
  "nodes": [
    {
      "name": "CosmicRayEvent",
      "mesh": 0
    }
  ],
  "meshes": [
    {
      "name": "CosmicRayEvent",
      "primitives": [
        {
          "attributes": {
            "POSITION": 0
          },
          "material": 0,
          "mode": 1
        },
        {
          "attributes": {
            "POSITION": 1
          },
          "material": 1,
          "mode": 1
        },
        {
          "attributes": {
            "POSITION": 2
          },
          "material": 2,
          "mode": 1
        },
        {
          "attributes": {
            "POSITION": 3
          },
          "material": 3,
          "mode": 1
        },
        {
          "attributes": {
            "POSITION": 4
          },
          "material": 4,
          "mode": 1
        }
      ]
    }
  ],
  "materials": [
    {
      "name": "primary",
      "extensions": {
        "KHR_materials_unlit": {}
      },
      "pbrMetallicRoughness": {
        "baseColorFactor": [
          0.961,
          0.961,
          0.961,
          1
        ],
        "metallicFactor": 0,
        "roughnessFactor": 1
      }
    },
    {
      "name": "vertex",
      "extensions": {
        "KHR_materials_unlit": {}
      },
      "pbrMetallicRoughness": {
        "baseColorFactor": [
          0.902,
          0.902,
          0.902,
          0.9
        ],
        "metallicFactor": 0,
        "roughnessFactor": 1
      }
    },
    {
      "name": "em",
      "extensions": {
        "KHR_materials_unlit": {}
      },
      "pbrMetallicRoughness": {
        "baseColorFactor": [
          0.471,
          0.824,
          1,
          1
        ],
        "metallicFactor": 0,
        "roughnessFactor": 1
      }
    },
    {
      "name": "hadron",
      "extensions": {
        "KHR_materials_unlit": {}
      },
      "pbrMetallicRoughness": {
        "baseColorFactor": [
          0.549,
          1,
          0.745,
          1
        ],
        "metallicFactor": 0,
        "roughnessFactor": 1
      }
    },
    {
      "name": "delta",
      "extensions": {
        "KHR_materials_unlit": {}
      },
      "pbrMetallicRoughness": {
        "baseColorFactor": [
          0.804,
          0.647,
          1,
          1
        ],
        "metallicFactor": 0,
        "roughnessFactor": 1
      }
    }
  ],
  "accessors": [
    {
      "bufferView": 0,
      "byteOffset": 0,
      "componentType": 5126,
      "count": 1350,
      "type": "VEC3",
      "min": [
        -1.022635579109192,
        -0.016181550920009613,
        0
      ],
      "max": [
        1.0000815391540527,
        0.03600360453128815,
        0
      ]
    },
    {
      "bufferView": 1,
      "byteOffset": 0,
      "componentType": 5126,
      "count": 292,
      "type": "VEC3",
      "min": [
        -0.013530409894883633,
        -0.016025619581341743,
        -0.10116980224847794
      ],
      "max": [
        0.02265806868672371,
        0.023767083883285522,
        0.05657467618584633
      ]
    },
    {
      "bufferView": 2,
      "byteOffset": 0,
      "componentType": 5126,
      "count": 574,
      "type": "VEC3",
      "min": [
        -0.23471510410308838,
        -0.012908641248941422,
        -0.08857907354831696
      ],
      "max": [
        0.001990722492337227,
        0.012470013462007046,
        0.032642610371112823
      ]
    },
    {
      "bufferView": 3,
      "byteOffset": 0,
      "componentType": 5126,
      "count": 3018,
      "type": "VEC3",
      "min": [
        -0.4212891459465027,
        -0.19808755815029144,
        -0.1726219803094864
      ],
      "max": [
        0.1908540278673172,
        0.04223669320344925,
        0.510404109954834
      ]
    },
    {
      "bufferView": 4,
      "byteOffset": 0,
      "componentType": 5126,
      "count": 640,
      "type": "VEC3",
      "min": [
        -0.1800626963376999,
        -0.0692920833826065,
        -0.7216925024986267
      ],
      "max": [
        0.006891138851642609,
        0.03529658913612366,
        0.2739511728286743
      ]
    }
  ],
  "bufferViews": [
    {
      "buffer": 0,
      "byteOffset": 0,
      "byteLength": 16200,
      "target": 34962
    },
    {
      "buffer": 0,
      "byteOffset": 16200,
      "byteLength": 3504,
      "target": 34962
    },
    {
      "buffer": 0,
      "byteOffset": 19704,
      "byteLength": 6888,
      "target": 34962
    },
    {
      "buffer": 0,
      "byteOffset": 26592,
      "byteLength": 36216,
      "target": 34962
    },
    {
      "buffer": 0,
      "byteOffset": 62808,
      "byteLength": 7680,
      "target": 34962
    }
  ],
  "buffers": [
    {
      "byteLength": 70488,
      "uri": "data:application/octet-stream;base64,"
    }
  ]
}