{
  "asset": {
    "version": "2.0",
    "generator": "TES-23 Cosmic Ray Renderer"
  },
  "extensionsUsed": [
    "KHR_materials_unlit"
  ],
  "extensionsRequired": [
    "KHR_materials_unlit"
  ],
  "scene": 0,
  "scenes": [
    {
      "nodes": [
        0
      ]
    }
  ],
  "nodes": [
    {
      "name": "CosmicRayEvent",
      "mesh": 0
    }
  ],
  "meshes": [
    {
      "name": "CosmicRayEvent",
      "primitives": [
        {
          "attributes": {
            "POSITION": 0
          },
          "material": 0,
          "mode": 1
        },
        {
          "attributes": {
            "POSITION": 1
          },
          "material": 1,
          "mode": 1
        },
        {
          "attributes": {
            "POSITION": 2
          },
          "material": 2,
          "mode": 1
        },
        {
          "attributes": {
            "POSITION": 3
          },
          "material": 3,
          "mode": 1
        },
        {
          "attributes": {
            "POSITION": 4
          },
          "material": 4,
          "mode": 1
        },
        {
          "attributes": {
            "POSITION": 5
          },
          "material": 5,
          "mode": 1
        }
      ]
    }
  ],
  "materials": [
    {
      "name": "primary",
      "extensions": {
        "KHR_materials_unlit": {}
      },
      "pbrMetallicRoughness": {
        "baseColorFactor": [
          0.961,
          0.961,
          0.961,
          1
        ],
        "metallicFactor": 0,
        "roughnessFactor": 1
      }
    },
    {
      "name": "vertex",
      "extensions": {
        "KHR_materials_unlit": {}
      },
      "pbrMetallicRoughness": {
        "baseColorFactor": [
          0.902,
          0.902,
          0.902,
          0.9
        ],
        "metallicFactor": 0,
        "roughnessFactor": 1
      }
    },
    {
      "name": "em",
      "extensions": {
        "KHR_materials_unlit": {}
      },
      "pbrMetallicRoughness": {
        "baseColorFactor": [
          0.471,
          0.824,
          1,
          1
        ],
        "metallicFactor": 0,
        "roughnessFactor": 1
      }
    },
    {
      "name": "hadron",
      "extensions": {
        "KHR_materials_unlit": {}
      },
      "pbrMetallicRoughness": {
        "baseColorFactor": [
          0.549,
          1,
          0.745,
          1
        ],
        "metallicFactor": 0,
        "roughnessFactor": 1
      }
    },
    {
      "name": "delta",
      "extensions": {
        "KHR_materials_unlit": {}
      },
      "pbrMetallicRoughness": {
        "baseColorFactor": [
          0.804,
          0.647,
          1,
          1
        ],
        "metallicFactor": 0,
        "roughnessFactor": 1
      }
    },
    {
      "name": "backscatter",
      "extensions": {
        "KHR_materials_unlit": {}
      },
      "pbrMetallicRoughness": {
        "baseColorFactor": [
          1,
          0.824,
          0.529,
          0.95
        ],
        "metallicFactor": 0,
        "roughnessFactor": 1
      }
    }
  ],
  "accessors": [
    {
      "bufferView": 0,
      "byteOffset": 0,
      "componentType": 5126,
      "count": 1648,
      "type": "VEC3",
      "min": [
        -0.7173576951026917,
        -1.0003093481063843,
        0
      ],
      "max": [
        0.7005980610847473,
        1.0209801197052002,
        0
      ]
    },
    {
      "bufferView": 1,
      "byteOffset": 0,
      "componentType": 5126,
      "count": 276,
      "type": "VEC3",
      "min": [
        -0.016208544373512268,
        -0.012877058237791061,
        -0.0737214982509613
      ],
      "max": [
        0.021390141919255257,
        0.022354628890752792,
        0.05682571604847908
      ]
    },
    {
      "bufferView": 2,
      "byteOffset": 0,
      "componentType": 5126,
      "count": 1540,
      "type": "VEC3",
      "min": [
        -0.1655333787202835,
        -0.003909253049641848,
        -0.1010977253317833
      ],
      "max": [
        0.0045388489961624146,
        0.25455722212791443,
        0.20585328340530396
      ]
    },
    {
      "bufferView": 3,
      "byteOffset": 0,
      "componentType": 5126,
      "count": 2916,
      "type": "VEC3",
      "min": [
        -0.1551094502210617,
        -0.0034236477222293615,
        -1.4111659526824951
      ],
      "max": [
        0.30393028259277344,
        0.33642491698265076,
        0.5479331016540527
      ]
    },
    {
      "bufferView": 4,
      "byteOffset": 0,
      "componentType": 5126,
      "count": 1056,
      "type": "VEC3",
      "min": [
        -0.10912416875362396,
        -0.10627177357673645,
        -0.615262508392334
      ],
      "max": [
        0.20116235315799713,
        0.10045687109231949,
        0.9142072796821594
      ]
    },
    {
      "bufferView": 5,
      "byteOffset": 0,
      "componentType": 5126,
      "count": 1046,
      "type": "VEC3",
      "min": [
        -0.21823497116565704,
        -0.0922357589006424,
        -0.3656325340270996
      ],
      "max": [
        0.06359026581048965,
        0.10756409913301468,
        0.6364297866821289
      ]
    }
  ],
  "bufferViews": [
    {
      "buffer": 0,
      "byteOffset": 0,
      "byteLength": 19776,
      "target": 34962
    },
    {
      "buffer": 0,
      "byteOffset": 19776,
      "byteLength": 3312,
      "target": 34962
    },
    {
      "buffer": 0,
      "byteOffset": 23088,
      "byteLength": 18480,
      "target": 34962
    },
    {
      "buffer": 0,
      "byteOffset": 41568,
      "byteLength": 34992,
      "target": 34962
    },
    {
      "buffer": 0,
      "byteOffset": 76560,
      "byteLength": 12672,
      "target": 34962
    },
    {
      "buffer": 0,
      "byteOffset": 89232,
      "byteLength": 12552,
      "target": 34962
    }
  ],
  "buffers": [
    {
      "byteLength": 101784,
      "uri": "data:application/octet-stream;base64,"
    }
  ]
}