{
  "asset": {
    "version": "2.0",
    "generator": "TES-23 Cosmic Ray Renderer"
  },
  "extensionsUsed": [
    "KHR_materials_unlit"
  ],
  "extensionsRequired": [
    "KHR_materials_unlit"
  ],
  "scene": 0,
  "scenes": [
    {
      "nodes": [
        0
      ]
    }
  ],
  "nodes": [
    {
      "name": "CosmicRayEvent",
      "mesh": 0
    }
  ],
  "meshes": [
    {
      "name": "CosmicRayEvent",
      "primitives": [
        {
          "attributes": {
            "POSITION": 0
          },
          "material": 0,
          "mode": 1
        },
        {
          "attributes": {
            "POSITION": 1
          },
          "material": 1,
          "mode": 1
        },
        {
          "attributes": {
            "POSITION": 2
          },
          "material": 2,
          "mode": 1
        },
        {
          "attributes": {
            "POSITION": 3
          },
          "material": 3,
          "mode": 1
        },
        {
          "attributes": {
            "POSITION": 4
          },
          "material": 4,
          "mode": 1
        }
      ]
    }
  ],
  "materials": [
    {
      "name": "primary",
      "extensions": {
        "KHR_materials_unlit": {}
      },
      "pbrMetallicRoughness": {
        "baseColorFactor": [
          0.961,
          0.961,
          0.961,
          1
        ],
        "metallicFactor": 0,
        "roughnessFactor": 1
      }
    },
    {
      "name": "vertex",
      "extensions": {
        "KHR_materials_unlit": {}
      },
      "pbrMetallicRoughness": {
        "baseColorFactor": [
          0.902,
          0.902,
          0.902,
          0.9
        ],
        "metallicFactor": 0,
        "roughnessFactor": 1
      }
    },
    {
      "name": "em",
      "extensions": {
        "KHR_materials_unlit": {}
      },
      "pbrMetallicRoughness": {
        "baseColorFactor": [
          0.471,
          0.824,
          1,
          1
        ],
        "metallicFactor": 0,
        "roughnessFactor": 1
      }
    },
    {
      "name": "hadron",
      "extensions": {
        "KHR_materials_unlit": {}
      },
      "pbrMetallicRoughness": {
        "baseColorFactor": [
          0.549,
          1,
          0.745,
          1
        ],
        "metallicFactor": 0,
        "roughnessFactor": 1
      }
    },
    {
      "name": "delta",
      "extensions": {
        "KHR_materials_unlit": {}
      },
      "pbrMetallicRoughness": {
        "baseColorFactor": [
          0.804,
          0.647,
          1,
          1
        ],
        "metallicFactor": 0,
        "roughnessFactor": 1
      }
    }
  ],
  "accessors": [
    {
      "bufferView": 0,
      "byteOffset": 0,
      "componentType": 5126,
      "count": 1808,
      "type": "VEC3",
      "min": [
        -0.8962075114250183,
        -0.9996690154075623,
        0
      ],
      "max": [
        0.9092586040496826,
        1.0209078788757324,
        0
      ]
    },
    {
      "bufferView": 1,
      "byteOffset": 0,
      "componentType": 5126,
      "count": 316,
      "type": "VEC3",
      "min": [
        -0.019701188430190086,
        -0.018110748380422592,
        -0.0599583238363266
      ],
      "max": [
        0.01082605216652155,
        0.01661316677927971,
        0.04420846328139305
      ]
    },
    {
      "bufferView": 2,
      "byteOffset": 0,
      "componentType": 5126,
      "count": 1282,
      "type": "VEC3",
      "min": [
        -0.2099156230688095,
        -0.0017707757651805878,
        -0.039347972720861435
      ],
      "max": [
        0.004144427832216024,
        0.2160712033510208,
        0.14358943700790405
      ]
    },
    {
      "bufferView": 3,
      "byteOffset": 0,
      "componentType": 5126,
      "count": 2022,
      "type": "VEC3",
      "min": [
        -0.2590687870979309,
        -0.004372475203126669,
        -0.18850374221801758
      ],
      "max": [
        0.0024117210414260626,
        0.2538597583770752,
        0.7220863103866577
      ]
    },
    {
      "bufferView": 4,
      "byteOffset": 0,
      "componentType": 5126,
      "count": 336,
      "type": "VEC3",
      "min": [
        -0.14396242797374725,
        -0.005892460234463215,
        -0.5130354762077332
      ],
      "max": [
        0.01154011394828558,
        0.06373685598373413,
        0.1848011016845703
      ]
    }
  ],
  "bufferViews": [
    {
      "buffer": 0,
      "byteOffset": 0,
      "byteLength": 21696,
      "target": 34962
    },
    {
      "buffer": 0,
      "byteOffset": 21696,
      "byteLength": 3792,
      "target": 34962
    },
    {
      "buffer": 0,
      "byteOffset": 25488,
      "byteLength": 15384,
      "target": 34962
    },
    {
      "buffer": 0,
      "byteOffset": 40872,
      "byteLength": 24264,
      "target": 34962
    },
    {
      "buffer": 0,
      "byteOffset": 65136,
      "byteLength": 4032,
      "target": 34962
    }
  ],
  "buffers": [
    {
      "byteLength": 69168,
      "uri": "data:application/octet-stream;base64,"
    }
  ]
}