<?xml version="1.0" encoding="UTF-8"?>
<svg xmlns="http://www.w3.org/2000/svg" width="2000" height="2000" viewBox="0 0 2000 2000">
<g fill="none" stroke-linecap="round" stroke-linejoin="round">
  <path d="M 1003.51 1000.66 L 1005.60 998.34 L 1007.72 996.05 L 1009.81 993.75 L 1011.87 991.45 L 1013.82 989.06 L 1015.77 986.69 L 1017.70 984.32 L 1019.64 981.98 L 1021.52 979.60 L 1023.37 977.21 L 1025.24 974.86 L 1027.07 972.49 L 1028.90 970.13 L 1030.77 967.82 L 1032.67 965.55 L 1034.54 963.27 L 1036.36 960.97 L 1038.16 958.67 L 1039.98 956.39 L 1041.84 954.17 L 1043.68 951.94 L 1045.55 949.75 L 1047.38 947.55 L 1049.26 945.39 L 1051.11 943.24 L 1052.94 941.07 L 1054.79 938.94 L 1056.61 936.81 L 1058.45 934.70 L 1060.26 932.58 L 1062.09 930.49 L 1063.85 928.36 L 1065.62 926.25 L 1067.39 924.16 L 1069.13 922.05 L 1070.94 920.02 L 1072.79 918.04 L 1074.65 916.09 L 1076.55 914.18 L 1078.40 912.24 L 1080.21 910.29 L 1082.06 908.38 L 1083.93 906.51 L 1085.83 904.69 L 1087.61 902.76 L 1089.38 900.83 L 1091.13 898.91 L 1092.87 896.99 L 1094.63 895.09 L 1096.33 893.16 L 1097.97 891.19 L 1099.61 889.24 L 1101.20 887.26 L 1102.84 885.33 L 1104.47 883.41 L 1105.99 881.41 L 1107.44 879.37 L 1108.82 877.30 L 1110.22 875.25 L 1111.62 873.21 L 1113.02 871.19 L 1114.41 869.17 L 1115.78 867.15 L 1117.10 865.10 L 1118.48 863.11 L 1119.87 861.15 L 1121.28 859.20 L 1122.63 857.22 L 1124.01 855.28 L 1125.34 853.31 L 1126.68 851.36 L 1128.03 849.44 L 1129.40 847.53 L 1130.75 845.62 L 1132.14 843.76 L 1133.48 841.86 L 1134.79 839.97 L 1136.10 838.07 L 1137.47 836.25 L 1138.82 834.40 L 1140.11 832.53 L 1141.42 830.69" stroke="rgb(120,210,255)" stroke-opacity="0.851" stroke-width="1.63" />
  <path d="M 1000.24 1002.40 L 1002.02 999.86 L 1003.87 997.40 L 1005.74 994.97 L 1007.59 992.54 L 1009.42 990.10 L 1011.27 987.70 L 1013.13 985.32 L 1014.97 982.94 L 1016.72 980.51 L 1018.49 978.11 L 1020.22 975.69 L 1021.94 973.28 L 1023.62 970.86 L 1025.29 968.45 L 1027.03 966.09 L 1028.78 963.76 L 1030.64 961.54 L 1032.55 959.37 L 1034.46 957.22 L 1036.28 955.00 L 1038.07 952.78 L 1039.86 950.57 L 1041.63 948.35 L 1043.36 946.13 L 1045.08 943.91 L 1046.84 941.74 L 1048.62 939.59 L 1050.37 937.43 L 1052.15 935.31 L 1053.95 933.23 L 1055.75 931.16 L 1057.56 929.12 L 1059.33 927.05" stroke="rgb(120,210,255)" stroke-opacity="0.467" stroke-width="1.62" />
  <path d="M 1000.76 999.47 L 1002.83 996.88 L 1004.92 994.33 L 1007.04 991.81 L 1009.12 989.28 L 1011.22 986.79 L 1013.33 984.31 L 1015.35 981.78 L 1017.38 979.28 L 1019.43 976.81 L 1021.48 974.36 L 1023.55 971.94 L 1025.58 969.51 L 1027.58 967.06 L 1029.57 964.62 L 1031.55 962.19 L 1033.52 959.77 L 1035.47 957.34 L 1037.48 955.00 L 1039.47 952.64 L 1041.44 950.28 L 1043.45 947.97 L 1045.46 945.68 L 1047.47 943.41 L 1049.50 941.17 L 1051.51 938.93 L 1053.49 936.68 L 1055.52 934.49 L 1057.50 932.27 L 1059.45 930.03 L 1061.37 927.79 L 1063.21 925.50 L 1064.97 923.17 L 1066.75 920.85 L 1068.51 918.54 L 1070.27 916.24 L 1072.06 913.99 L 1073.88 911.77" stroke="rgb(120,210,255)" stroke-opacity="0.846" stroke-width="1.61" />
  <path d="M 1000.18 1001.16 L 1002.58 998.62 L 1005.00 996.12 L 1007.44 993.65 L 1009.86 991.19 L 1012.26 988.73 L 1014.61 986.24 L 1016.96 983.77 L 1019.27 981.28 L 1021.56 978.79 L 1023.83 976.30 L 1026.11 973.83 L 1028.36 971.36 L 1030.65 968.94 L 1032.94 966.55 L 1035.24 964.18 L 1037.51 961.80 L 1039.74 959.40 L 1041.96 957.01 L 1044.17 954.62 L 1046.41 952.28 L 1048.64 949.95 L 1050.88 947.65 L 1053.16 945.41 L 1055.42 943.16 L 1057.67 940.92 L 1059.87 938.65 L 1062.08 936.41 L 1064.27 934.17 L 1066.47 931.95 L 1068.68 929.76 L 1070.89 927.59 L 1073.07 925.41 L 1075.26 923.26 L 1077.46 921.12 L 1079.63 918.98 L 1081.79 916.85 L 1083.96 914.75 L 1086.10 912.62 L 1088.21 910.48 L 1090.30 908.35 L 1092.33 906.18 L 1094.37 904.02 L 1096.39 901.87 L 1098.38 899.71 L 1100.36 897.55 L 1102.31 895.38 L 1104.24 893.21 L 1106.19 891.07 L 1108.12 888.93 L 1109.98 886.75 L 1111.86 884.59 L 1113.69 882.41 L 1115.50 880.23 L 1117.33 878.07 L 1119.16 875.94 L 1121.00 873.82 L 1122.85 871.73 L 1124.65 869.61 L 1126.44 867.50 L 1128.21 865.39 L 1130.00 863.30 L 1131.80 861.24" stroke="rgb(120,210,255)" stroke-opacity="0.846" stroke-width="1.61" />
  <path d="M 1000.08 998.75 L 1002.32 996.28 L 1004.58 993.85 L 1006.83 991.42 L 1009.04 988.97 L 1011.25 986.55 L 1013.43 984.12 L 1015.58 981.66 L 1017.74 979.25 L 1019.90 976.85 L 1021.97 974.38 L 1024.04 971.94 L 1026.13 969.53 L 1028.18 967.09 L 1030.20 964.66 L 1032.18 962.20 L 1034.12 959.73 L 1036.05 957.27 L 1038.04 954.88 L 1040.08 952.53 L 1042.07 950.17 L 1044.01 947.78 L 1045.93 945.39 L 1047.89 943.05 L 1049.91 940.78 L 1051.93 938.52 L 1053.91 936.24 L 1055.90 933.99 L 1057.90 931.76 L 1059.83 929.49 L 1061.79 927.26 L 1063.75 925.04 L 1065.73 922.86 L 1067.69 920.68 L 1069.63 918.50 L 1071.56 916.32 L 1073.43 914.10 L 1075.30 911.90 L 1077.12 909.67 L 1078.93 907.46 L 1080.74 905.25 L 1082.49 903.02 L 1084.20 900.76 L 1085.89 898.50 L 1087.53 896.23 L 1089.19 893.97 L 1090.83 891.72 L 1092.44 889.47 L 1094.05 887.22 L 1095.70 885.02 L 1097.38 882.86 L 1099.05 880.69 L 1100.67 878.51 L 1102.33 876.37 L 1104.05 874.29 L 1105.72 872.19 L 1107.40 870.11 L 1109.07 868.03 L 1110.69 865.93 L 1112.29 863.83 L 1113.92 861.76 L 1115.56 859.71 L 1117.25 857.72 L 1118.94 855.74 L 1120.64 853.79 L 1122.34 851.85 L 1124.03 849.90 L 1125.71 847.98 L 1127.40 846.07 L 1129.11 844.19 L 1130.82 842.32 L 1132.53 840.47 L 1134.27 838.66" stroke="rgb(120,210,255)" stroke-opacity="0.843" stroke-width="1.60" />
  <path d="M 1001.90 1003.98 L 1004.23 1001.48 L 1006.58 999.00 L 1008.95 996.57 L 1011.29 994.12 L 1013.63 991.70 L 1015.89 989.22 L 1018.17 986.78 L 1020.45 984.35 L 1022.73 981.94 L 1025.02 979.56 L 1027.26 977.16 L 1029.51 974.77 L 1031.76 972.41 L 1033.98 970.04 L 1036.24 967.72 L 1038.53 965.44 L 1040.85 963.23 L 1043.14 961.00 L 1045.40 958.75 L 1047.61 956.47 L 1049.83 954.23 L 1052.05 951.99 L 1054.26 949.77 L 1056.50 947.59 L 1058.71 945.40 L 1060.91 943.23 L 1063.08 941.03 L 1065.24 938.85 L 1067.39 936.67 L 1069.48 934.45 L 1071.55 932.23 L 1073.63 930.03 L 1075.67 927.82 L 1077.67 925.58 L 1079.65 923.34" stroke="rgb(120,210,255)" stroke-opacity="0.843" stroke-width="1.60" />
  <path d="M 1001.02 999.98 L 1003.31 997.60 L 1005.62 995.25 L 1007.93 992.91 L 1010.21 990.58 L 1012.48 988.25 L 1014.79 985.97 L 1017.04 983.65 L 1019.30 981.36 L 1021.53 979.07 L 1023.78 976.81 L 1025.96 974.49 L 1028.09 972.15 L 1030.14 969.76 L 1032.19 967.38 L 1034.25 965.03 L 1036.33 962.71 L 1038.45 960.44 L 1040.60 958.22 L 1042.69 955.97 L 1044.78 953.73 L 1046.87 951.51 L 1048.98 949.32 L 1051.04 947.09 L 1053.11 944.89 L 1055.14 942.69 L 1057.21 940.53 L 1059.26 938.36" stroke="rgb(120,210,255)" stroke-opacity="0.841" stroke-width="1.60" />
  <path d="M 998.03 999.25 L 999.97 996.63 L 1001.90 994.03 L 1003.84 991.45 L 1005.74 988.86 L 1007.62 986.26 L 1009.46 983.66 L 1011.27 981.05 L 1013.10 978.47 L 1014.89 975.88 L 1016.68 973.30 L 1018.44 970.71 L 1020.20 968.15 L 1022.00 965.62 L 1023.76 963.08 L 1025.46 960.52 L 1027.18 957.98 L 1028.89 955.45 L 1030.55 952.91 L 1032.24 950.40 L 1033.91 947.89 L 1035.64 945.44 L 1037.40 943.01 L 1039.17 940.61" stroke="rgb(120,210,255)" stroke-opacity="0.840" stroke-width="1.59" />
  <path d="M 1001.44 1002.44 L 998.31 1001.00 L 995.20 999.56 L 992.09 998.15 L 989.00 996.72 L 985.94 995.27 L 982.87 993.86 L 979.82 992.46 L 976.78 991.05 L 973.75 989.65 L 970.73 988.27 L 967.71 986.92 L 964.69 985.62 L 961.68 984.30 L 958.67 983.02 L 955.69 981.71 L 952.75 980.34 L 949.80 979.04 L 946.87 977.71 L 943.97 976.34 L 941.12 974.92 L 938.28 973.49 L 935.45 972.06 L 932.65 970.62 L 929.86 969.18 L 927.06 967.79 L 924.26 966.41 L 921.50 965.00 L 918.75 963.58 L 916.02 962.17 L 913.29 960.78 L 910.57 959.38" stroke="rgb(205,165,255)" stroke-opacity="0.718" stroke-width="1.24" />
  <path d="M 1002.29 996.28 L 1003.36 993.01 L 1004.45 989.77 L 1005.51 986.53 L 1006.54 983.30 L 1007.50 980.06 L 1008.48 976.84 L 1009.44 973.62 L 1010.28 970.39 L 1011.11 967.17 L 1011.92 963.96 L 1012.72 960.76 L 1013.50 957.56 L 1014.33 954.40 L 1015.14 951.24 L 1015.98 948.10 L 1016.81 944.97 L 1017.63 941.86 L 1018.46 938.76 L 1019.34 935.69 L 1020.21 932.63 L 1021.07 929.57 L 1021.95 926.54 L 1022.79 923.51 L 1023.71 920.52 L 1024.60 917.53 L 1025.47 914.54 L 1026.32 911.57 L 1027.17 908.60 L 1028.00 905.65 L 1028.82 902.70 L 1029.72 899.79 L 1030.59 896.89 L 1031.45 893.99 L 1032.26 891.09 L 1033.09 888.21 L 1033.91 885.34 L 1034.75 882.49 L 1035.61 879.66 L 1036.46 876.83 L 1037.32 874.02 L 1038.18 871.22 L 1038.99 868.43 L 1039.82 865.64" stroke="rgb(205,165,255)" stroke-opacity="0.712" stroke-width="1.22" />
  <path d="M 999.52 999.10 L 1002.87 998.37 L 1006.21 997.71 L 1009.54 997.04 L 1012.86 996.38 L 1016.17 995.74 L 1019.46 995.10 L 1022.73 994.39 L 1025.97 993.63 L 1029.21 992.90 L 1032.43 992.18 L 1035.64 991.46 L 1038.83 990.72 L 1042.02 990.01 L 1045.18 989.28 L 1048.33 988.54 L 1051.46 987.75 L 1054.57 986.94 L 1057.65 986.10 L 1060.73 985.28 L 1063.80 984.46 L 1066.85 983.63 L 1069.89 982.82 L 1072.92 982.04 L 1075.95 981.25 L 1078.95 980.44 L 1081.93 979.61 L 1084.90 978.77 L 1087.86 977.96 L 1090.81 977.12 L 1093.74 976.29 L 1096.67 975.48 L 1099.58 974.68 L 1102.49 973.87 L 1105.37 973.06" stroke="rgb(205,165,255)" stroke-opacity="0.711" stroke-width="1.22" />
  <path d="M 1090.45 911.83 L 1091.02 909.61 L 1091.51 907.38 L 1091.85 905.13 L 1092.19 902.89 L 1092.62 900.67 L 1093.11 898.48 L 1093.52 896.28 L 1093.98 894.10 L 1094.40 891.92 L 1094.95 889.77 L 1095.48 887.64 L 1096.03 885.51 L 1096.40 883.36 L 1096.73 881.20" stroke="rgb(140,255,190)" stroke-opacity="0.561" stroke-width="1.22" />
  <path d="M 999.89 1001.10 L 1001.15 998.22 L 1002.37 995.34 L 1003.58 992.46 L 1004.85 989.63 L 1006.13 986.81 L 1007.41 984.01 L 1008.75 981.25 L 1010.06 978.48 L 1011.38 975.74 L 1012.73 973.03 L 1014.08 970.32 L 1015.41 967.63 L 1016.64 964.89 L 1017.87 962.17 L 1019.09 959.47 L 1020.30 956.76 L 1021.53 954.08 L 1022.71 951.40 L 1023.91 948.73 L 1025.13 946.08 L 1026.34 943.45 L 1027.54 940.81 L 1028.83 938.24 L 1030.13 935.69 L 1031.44 933.15 L 1032.77 930.63 L 1034.08 928.12 L 1035.33 925.60 L 1036.67 923.13 L 1038.02 920.67 L 1039.34 918.22 L 1040.71 915.81 L 1042.05 913.38 L 1043.35 910.96 L 1044.61 908.52 L 1045.90 906.11 L 1047.18 903.71 L 1048.49 901.33 L 1049.82 898.99 L 1051.13 896.64 L 1052.41 894.29 L 1053.65 891.93 L 1054.88 889.57 L 1056.07 887.21 L 1057.29 884.87 L 1058.49 882.54 L 1059.66 880.20 L 1060.84 877.88 L 1061.99 875.55 L 1063.14 873.24 L 1064.29 870.94 L 1065.42 868.64 L 1066.49 866.32 L 1067.62 864.04 L 1068.81 861.81 L 1069.95 859.56 L 1071.07 857.31 L 1072.15 855.06 L 1073.22 852.81 L 1074.26 850.55 L 1075.33 848.33 L 1076.35 846.08 L 1077.31 843.83 L 1078.22 841.56" stroke="rgb(205,165,255)" stroke-opacity="0.705" stroke-width="1.20" />
  <path d="M 1054.61 946.98 L 1056.84 946.31 L 1059.07 945.67 L 1061.20 944.76 L 1063.22 943.65 L 1065.27 942.63 L 1067.42 941.86 L 1069.56 941.08 L 1071.71 940.39 L 1073.92 939.95 L 1076.13 939.51 L 1078.33 939.14 L 1080.53 938.73 L 1082.69 938.22 L 1084.88 937.92" stroke="rgb(140,255,190)" stroke-opacity="0.554" stroke-width="1.19" />
  <path d="M 1000.09 1000.55 L 1003.25 1000.30 L 1006.38 999.99 L 1009.51 999.73 L 1012.63 999.49 L 1015.72 999.20 L 1018.81 998.87 L 1021.88 998.55 L 1024.93 998.20 L 1027.98 997.84 L 1031.01 997.50 L 1034.03 997.19 L 1037.05 996.96 L 1040.05 996.72 L 1043.04 996.43 L 1046.02 996.18 L 1048.99 995.97 L 1051.96 995.83 L 1054.91 995.68 L 1057.85 995.61 L 1060.78 995.48 L 1063.69 995.31 L 1066.59 995.05 L 1069.47 994.79 L 1072.35 994.57 L 1075.21 994.33 L 1078.07 994.14 L 1080.91 993.94 L 1083.75 993.84 L 1086.57 993.70 L 1089.38 993.48 L 1092.17 993.23 L 1094.96 993.02 L 1097.73 992.83 L 1100.49 992.61 L 1103.25 992.42 L 1105.99 992.26 L 1108.73 992.15 L 1111.46 992.12 L 1114.17 992.15 L 1116.88 992.07 L 1119.57 991.97 L 1122.25 991.82 L 1124.91 991.65 L 1127.57 991.48 L 1130.22 991.30 L 1132.85 991.16 L 1135.48 990.98 L 1138.09 990.74 L 1140.68 990.42 L 1143.25 990.06 L 1145.82 989.75 L 1148.38 989.41 L 1150.92 989.09 L 1153.46 988.78 L 1155.99 988.48 L 1158.51 988.19 L 1161.02 987.90 L 1163.54 987.72 L 1166.04 987.54 L 1168.53 987.47 L 1171.02 987.45 L 1173.49 987.50 L 1175.96 987.54 L 1178.42 987.60 L 1180.87 987.61 L 1183.30 987.54 L 1185.73 987.48 L 1188.15 987.44 L 1190.55 987.39 L 1192.95 987.39 L 1195.34 987.28 L 1197.72 987.14 L 1200.08 986.99 L 1202.44 986.83 L 1204.78 986.70 L 1207.12 986.60 L 1209.46 986.54 L 1211.78 986.44 L 1214.08 986.27 L 1216.38 986.10 L 1218.67 985.89 L 1220.95 985.69 L 1223.21 985.43 L 1225.46 985.16 L 1227.70 984.88 L 1229.94 984.64 L 1232.16 984.37 L 1234.37 984.06 L 1236.57 983.70 L 1238.75 983.34 L 1240.92 982.97 L 1243.09 982.59 L 1245.25 982.23 L 1247.40 981.88 L 1249.54 981.55 L 1251.67 981.18 L 1253.79 980.81 L 1255.90 980.42 L 1258.00 980.04 L 1260.10 979.71 L 1262.19 979.34 L 1264.26 978.93 L 1266.31 978.48 L 1268.37 978.09 L 1270.41 977.68 L 1272.44 977.25 L 1274.47 976.83 L 1276.48 976.41 L 1278.50 976.03" stroke="rgb(205,165,255)" stroke-opacity="0.699" stroke-width="1.18" />
  <path d="M 1026.52 957.34 L 1029.33 955.36 L 1032.14 953.39 L 1034.90 951.38 L 1037.68 949.43 L 1040.49 947.54 L 1043.30 945.67 L 1046.12 943.84 L 1048.91 942.00 L 1051.71 940.18 L 1054.52 938.42 L 1057.29 936.62 L 1060.05 934.82 L 1062.82 933.07 L 1065.59 931.34 L 1068.35 929.62 L 1071.12 927.93 L 1073.88 926.26 L 1076.60 924.54 L 1079.31 922.84 L 1082.02 921.16 L 1084.75 919.53 L 1087.44 917.87 L 1090.11 916.19 L 1092.77 914.53 L 1095.43 912.89 L 1098.11 911.31 L 1100.79 909.74 L 1103.50 908.26 L 1106.20 906.79 L 1108.92 905.38 L 1111.66 904.03 L 1114.40 902.72 L 1117.12 901.40 L 1119.86 900.14 L 1122.59 898.88 L 1125.32 897.67 L 1128.07 896.51 L 1130.80 895.36 L 1133.53 894.22 L 1136.24 893.08 L 1138.95 891.96 L 1141.63 890.81 L 1144.32 889.70 L 1146.99 888.58 L 1149.65 887.46 L 1152.30 886.34 L 1154.93 885.23 L 1157.57 884.13" stroke="rgb(140,255,190)" stroke-opacity="0.736" stroke-width="1.18" />
  <path d="M 1019.15 969.75 L 1019.81 967.49 L 1020.47 965.24 L 1021.26 963.05 L 1022.10 960.88 L 1022.86 958.69 L 1023.61 956.51 L 1024.35 954.34 L 1025.07 952.17 L 1025.83 950.02 L 1026.55 947.87 L 1027.36 945.76 L 1028.22 943.68 L 1029.13 941.63 L 1030.01 939.58 L 1030.85 937.52 L 1031.75 935.50 L 1032.68 933.50 L 1033.74 931.57 L 1034.74 929.62 L 1035.65 927.64 L 1036.63 925.71" stroke="rgb(140,255,190)" stroke-opacity="0.550" stroke-width="1.18" />
  <path d="M 1105.63 896.64 L 1109.06 896.37 L 1112.48 896.21 L 1115.88 896.00 L 1119.26 895.72 L 1122.63 895.55 L 1126.00 895.40 L 1129.35 895.27 L 1132.68 895.08 L 1136.00 894.91 L 1139.31 894.77 L 1142.61 894.64 L 1145.90 894.55 L 1149.16 894.34 L 1152.42 894.12 L 1155.65 893.88 L 1158.88 893.64 L 1162.08 893.27 L 1165.26 892.88 L 1168.43 892.43 L 1171.57 891.95 L 1174.71 891.45 L 1177.83 890.97 L 1180.94 890.54 L 1184.04 890.06 L 1187.12 889.58 L 1190.20 889.15 L 1193.26 888.69 L 1196.30 888.23 L 1199.33 887.72 L 1202.33 887.12 L 1205.32 886.54 L 1208.31 886.02 L 1211.29 885.55 L 1214.26 885.06 L 1217.23 884.64 L 1220.19 884.25 L 1223.14 883.87 L 1226.08 883.52 L 1229.00 883.13 L 1231.92 882.77 L 1234.81 882.33 L 1237.69 881.89 L 1240.55 881.41 L 1243.40 880.92 L 1246.25 880.50 L 1249.09 880.10 L 1251.91 879.64 L 1254.72 879.19 L 1257.51 878.70 L 1260.28 878.14 L 1263.02 877.55 L 1265.76 876.97" stroke="rgb(140,255,190)" stroke-opacity="0.732" stroke-width="1.17" />
  <path d="M 1048.33 988.54 L 1050.87 986.70 L 1053.39 984.85 L 1056.01 983.18 L 1058.60 981.49 L 1061.17 979.79 L 1063.73 978.08 L 1066.35 976.50 L 1068.93 974.88 L 1071.52 973.31 L 1074.13 971.78 L 1076.75 970.29 L 1079.39 968.87 L 1082.06 967.54 L 1084.70 966.16 L 1087.31 964.75 L 1089.94 963.41 L 1092.59 962.15 L 1095.27 960.98 L 1097.92 959.75 L 1100.53 958.47 L 1103.09 957.13 L 1105.63 955.77 L 1108.19 954.48 L 1110.76 953.23 L 1113.31 951.96 L 1115.86 950.72 L 1118.44 949.57 L 1121.00 948.40 L 1123.52 947.19 L 1126.04 945.98 L 1128.54 944.77 L 1131.03 943.57 L 1133.52 942.38 L 1135.97 941.14 L 1138.45 940.00 L 1140.90 938.81 L 1143.34 937.62 L 1145.77 936.44 L 1148.19 935.27 L 1150.65 934.18 L 1153.13 933.21 L 1155.63 932.29 L 1158.13 931.41 L 1160.59 930.48 L 1163.04 929.53 L 1165.49 928.62 L 1167.91 927.65 L 1170.31 926.65 L 1172.71 925.70 L 1175.11 924.74 L 1177.54 923.94 L 1180.00 923.23 L 1182.46 922.61 L 1184.93 922.04 L 1187.40 921.51 L 1189.84 920.89" stroke="rgb(205,165,255)" stroke-opacity="0.695" stroke-width="1.17" />
  <path d="M 1027.62 955.39 L 1028.39 952.15 L 1029.19 948.92 L 1029.97 945.70 L 1030.74 942.50 L 1031.54 939.31 L 1032.35 936.14 L 1033.14 932.98 L 1033.94 929.84 L 1034.63 926.68 L 1035.26 923.52 L 1035.78 920.36 L 1036.30 917.21 L 1036.85 914.08 L 1037.41 910.96 L 1038.00 907.86 L 1038.62 904.78 L 1039.28 901.72 L 1039.95 898.67 L 1040.65 895.65 L 1041.36 892.64 L 1042.06 889.64 L 1042.63 886.63 L 1043.17 883.62 L 1043.75 880.63 L 1044.24 877.64 L 1044.70 874.66 L 1045.14 871.68 L 1045.56 868.72 L 1045.97 865.76 L 1046.42 862.82 L 1046.96 859.91 L 1047.50 857.02 L 1047.99 854.12 L 1048.55 851.25 L 1049.06 848.39 L 1049.55 845.53 L 1050.06 842.68 L 1050.54 839.85 L 1051.02 837.02 L 1051.54 834.21 L 1052.02 831.41 L 1052.47 828.62 L 1052.85 825.82 L 1053.25 823.04" stroke="rgb(140,255,190)" stroke-opacity="0.731" stroke-width="1.17" />
  <path d="M 1027.48 962.60 L 1030.53 961.16 L 1033.57 959.75 L 1036.55 958.22 L 1039.52 956.72 L 1042.47 955.21 L 1045.41 953.70 L 1048.30 952.14 L 1051.15 950.52 L 1053.99 948.91 L 1056.83 947.33 L 1059.66 945.76" stroke="rgb(140,255,190)" stroke-opacity="0.729" stroke-width="1.17" />
  <path d="M 999.18 1000.35 L 1001.56 997.98 L 1003.96 995.66 L 1006.38 993.37 L 1008.71 991.01 L 1011.08 988.71 L 1013.48 986.46 L 1015.86 984.21 L 1018.21 981.95 L 1020.56 979.70 L 1022.94 977.50 L 1025.28 975.28 L 1027.61 973.08 L 1029.92 970.86 L 1032.22 968.65 L 1034.46 966.40 L 1036.71 964.18 L 1038.98 962.01 L 1041.20 959.79 L 1043.40 957.58 L 1045.62 955.40 L 1047.86 953.26 L 1050.10 951.14 L 1052.38 949.08 L 1054.61 946.98 L 1056.83 944.89 L 1058.98 942.74 L 1061.10 940.58 L 1063.22 938.44 L 1065.36 936.35 L 1067.48 934.24 L 1069.59 932.14 L 1071.69 930.05 L 1073.80 927.98 L 1075.95 925.97 L 1078.05 923.94 L 1080.14 921.90 L 1082.21 919.86 L 1084.29 917.84 L 1086.31 915.79 L 1088.37 913.79 L 1090.45 911.83 L 1092.51 909.86 L 1094.52 907.86 L 1096.48 905.83 L 1098.44 903.81 L 1100.37 901.77 L 1102.33 899.79 L 1104.26 897.79 L 1106.19 895.80 L 1108.12 893.83 L 1109.99 891.82 L 1111.85 889.81 L 1113.73 887.84 L 1115.56 885.84 L 1117.42 883.87 L 1119.30 881.94 L 1121.12 879.98 L 1122.97 878.06 L 1124.84 876.16 L 1126.75 874.33 L 1128.68 872.52 L 1130.64 870.77 L 1132.58 869.02 L 1134.55 867.31 L 1136.54 865.64 L 1138.55 864.00 L 1140.53 862.36 L 1142.49 860.70 L 1144.38 858.99 L 1146.25 857.26 L 1148.11 855.53 L 1149.94 853.79 L 1151.79 852.09 L 1153.63 850.39" stroke="rgb(140,255,190)" stroke-opacity="0.727" stroke-width="1.16" />
  <path d="M 1003.11 999.66 L 1004.15 996.94 L 1005.27 994.27 L 1006.40 991.61 L 1007.49 988.95 L 1008.48 986.26 L 1009.39 983.56 L 1010.21 980.84 L 1011.00 978.12 L 1011.72 975.39 L 1012.39 972.67 L 1013.19 969.99 L 1013.92 967.30 L 1014.65 964.62 L 1015.29 961.94 L 1015.89 959.25 L 1016.49 956.57 L 1016.96 953.88 L 1017.47 951.22 L 1017.96 948.55 L 1018.35 945.88 L 1018.73 943.22 L 1019.19 940.59 L 1019.51 937.94 L 1019.87 935.31 L 1020.29 932.70 L 1020.68 930.10 L 1020.98 927.49" stroke="rgb(205,165,255)" stroke-opacity="0.483" stroke-width="1.16" />
  <path d="M 998.57 998.91 L 1000.50 996.16 L 1002.35 993.35 L 1004.24 990.59 L 1006.06 987.81 L 1007.84 985.01 L 1009.64 982.24 L 1011.44 979.48 L 1013.21 976.73 L 1014.98 973.99 L 1016.83 971.31 L 1018.65 968.64 L 1020.48 965.98 L 1022.31 963.34 L 1024.10 960.69 L 1025.86 958.04 L 1027.62 955.39 L 1029.33 952.74 L 1031.05 950.10 L 1032.78 947.49 L 1034.43 944.84 L 1036.06 942.19 L 1037.79 939.61 L 1039.52 937.06 L 1041.25 934.52 L 1042.97 931.99" stroke="rgb(140,255,190)" stroke-opacity="0.727" stroke-width="1.16" />
  <path d="M 1002.27 999.40 L 1004.75 997.16 L 1007.23 994.94 L 1009.62 992.65 L 1011.98 990.34 L 1014.34 988.05 L 1016.68 985.76 L 1019.00 983.47 L 1021.33 981.21 L 1023.58 978.89 L 1025.83 976.59 L 1028.08 974.30 L 1030.33 972.03 L 1032.54 969.74 L 1034.70 967.42 L 1036.88 965.13 L 1039.09 962.90 L 1041.28 960.65 L 1043.48 958.44 L 1045.69 956.26 L 1047.93 954.12 L 1050.18 952.02 L 1052.46 949.97 L 1054.69 947.87 L 1056.95 945.83 L 1059.20 943.80 L 1061.46 941.79 L 1063.70 939.78 L 1065.91 937.76 L 1068.16 935.79 L 1070.40 933.83 L 1072.58 931.83 L 1074.76 929.85 L 1076.98 927.92 L 1079.18 925.99 L 1081.34 924.04 L 1083.49 922.09 L 1085.62 920.13 L 1087.71 918.15 L 1089.77 916.16 L 1091.77 914.11 L 1093.73 912.06 L 1095.72 910.04 L 1097.70 908.03 L 1099.69 906.04 L 1101.67 904.06 L 1103.66 902.10 L 1105.66 900.18 L 1107.64 898.25 L 1109.63 896.34 L 1111.62 894.46 L 1113.62 892.59" stroke="rgb(140,255,190)" stroke-opacity="0.725" stroke-width="1.16" />
  <path d="M 1000.48 998.48 L 1002.97 996.38 L 1005.42 994.27 L 1007.89 992.19 L 1010.41 990.19 L 1012.94 988.23 L 1015.42 986.23 L 1017.92 984.26 L 1020.40 982.29 L 1022.86 980.33 L 1025.34 978.41 L 1027.84 976.54 L 1030.38 974.73 L 1032.86 972.88 L 1035.32 971.00 L 1037.76 969.13 L 1040.23 967.31 L 1042.68 965.49 L 1045.13 963.69 L 1047.65 962.02 L 1050.16 960.35 L 1052.66 958.68 L 1055.15 957.03 L 1057.66 955.43 L 1060.17 953.84 L 1062.62 952.19 L 1065.07 950.56 L 1067.55 948.99 L 1069.98 947.38 L 1072.35 945.69 L 1074.72 944.03 L 1077.07 942.36 L 1079.38 940.65 L 1081.61 938.85 L 1083.83 937.06 L 1086.05 935.29 L 1088.33 933.63 L 1090.62 931.97 L 1092.88 930.32 L 1095.16 928.70 L 1097.40 927.06 L 1099.65 925.43 L 1101.90 923.83 L 1104.18 922.29 L 1106.47 920.80 L 1108.77 919.34 L 1111.08 917.90 L 1113.36 916.45 L 1115.62 914.97 L 1117.87 913.51 L 1120.12 912.07 L 1122.40 910.68 L 1124.70 909.36 L 1127.02 908.10 L 1129.34 906.87 L 1131.63 905.60 L 1133.89 904.29 L 1136.14 902.99 L 1138.35 901.64 L 1140.57 900.32 L 1142.79 899.03 L 1145.00 897.75 L 1147.22 896.49 L 1149.47 895.33 L 1151.69 894.11 L 1153.89 892.89 L 1156.10 891.70 L 1158.27 890.47 L 1160.43 889.23 L 1162.57 887.99 L 1164.70 886.75 L 1166.83 885.51 L 1168.93 884.26 L 1171.05 883.04 L 1173.13 881.80 L 1175.24 880.62 L 1177.34 879.44 L 1179.43 878.26 L 1181.51 877.09 L 1183.58 875.90 L 1185.62 874.69 L 1187.66 873.51 L 1189.69 872.32 L 1191.72 871.15 L 1193.71 869.94 L 1195.71 868.75 L 1197.70 867.58 L 1199.68 866.39 L 1201.63 865.18 L 1203.56 863.95 L 1205.49 862.75 L 1207.43 861.57 L 1209.35 860.38 L 1211.26 859.18 L 1213.12 857.94 L 1214.95 856.66 L 1216.79 855.42 L 1218.60 854.14 L 1220.37 852.83 L 1222.14 851.53 L 1223.90 850.22 L 1225.68 848.97 L 1227.46 847.72 L 1229.24 846.50 L 1231.01 845.27 L 1232.76 844.03 L 1234.48 842.76 L 1236.18 841.48 L 1237.91 840.26 L 1239.62 839.02 L 1241.31 837.77 L 1243.00 836.53 L 1244.66 835.28" stroke="rgb(140,255,190)" stroke-opacity="0.725" stroke-width="1.16" />
  <path d="M 1002.66 998.26 L 1004.58 995.51 L 1006.48 992.76 L 1008.38 990.02 L 1010.33 987.34 L 1012.28 984.68 L 1014.26 982.05 L 1016.22 979.42 L 1018.17 976.81 L 1020.15 974.23 L 1022.14 971.68 L 1024.08 969.10 L 1025.99 966.52 L 1027.92 963.98 L 1029.89 961.47 L 1031.81 958.95 L 1033.71 956.42 L 1035.64 953.93 L 1037.56 951.46 L 1039.43 948.96 L 1041.28 946.46 L 1043.07 943.93 L 1044.87 941.42 L 1046.62 938.90 L 1048.33 936.36 L 1050.02 933.83 L 1051.71 931.30 L 1053.34 928.76 L 1054.98 926.23 L 1056.58 923.70 L 1058.22 921.20 L 1059.93 918.77 L 1061.63 916.34 L 1063.30 913.90 L 1064.92 911.45 L 1066.54 909.01 L 1068.19 906.61 L 1069.79 904.18 L 1071.34 901.74 L 1072.87 899.30 L 1074.40 896.87 L 1075.88 894.42 L 1077.31 891.96 L 1078.75 889.52 L 1080.17 887.08 L 1081.59 884.65 L 1083.01 882.23 L 1084.39 879.81 L 1085.76 877.39 L 1087.16 875.00 L 1088.56 872.63 L 1089.95 870.26 L 1091.35 867.91 L 1092.76 865.57 L 1094.13 863.24 L 1095.54 860.93 L 1096.94 858.63 L 1098.31 856.33 L 1099.72 854.06 L 1101.12 851.79 L 1102.51 849.54 L 1103.94 847.32 L 1105.36 845.11 L 1106.76 842.90 L 1108.18 840.71 L 1109.59 838.53 L 1110.97 836.35 L 1112.32 834.16 L 1113.63 831.95 L 1114.92 829.74 L 1116.20 827.55 L 1117.50 825.37 L 1118.80 823.20 L 1120.09 821.05 L 1121.38 818.90 L 1122.64 816.75 L 1123.91 814.61 L 1125.17 812.48 L 1126.43 810.36 L 1127.71 808.27 L 1128.98 806.18 L 1130.23 804.09 L 1131.47 802.01 L 1132.75 799.96 L 1134.06 797.94 L 1135.29 795.88 L 1136.53 793.85 L 1137.83 791.85 L 1139.12 789.87 L 1140.40 787.89 L 1141.68 785.92 L 1142.94 783.95 L 1144.26 782.03 L 1145.56 780.10 L 1146.79 778.15 L 1147.99 776.18 L 1149.21 774.24 L 1150.42 772.30 L 1151.65 770.39 L 1152.86 768.48 L 1154.10 766.59 L 1155.31 764.70 L 1156.52 762.81 L 1157.76 760.96 L 1159.00 759.12 L 1160.24 757.29 L 1161.52 755.49 L 1162.82 753.73 L 1164.09 751.95 L 1165.32 750.15 L 1166.55 748.36" stroke="rgb(140,255,190)" stroke-opacity="0.725" stroke-width="1.16" />
  <path d="M 998.47 1001.20 L 1000.55 998.62 L 1002.63 996.06 L 1004.71 993.52 L 1006.74 990.96 L 1008.67 988.33 L 1010.61 985.73 L 1012.57 983.16 L 1014.49 980.57 L 1016.40 977.99 L 1018.29 975.42 L 1020.18 972.86 L 1022.01 970.28 L 1023.83 967.70 L 1025.66 965.14 L 1027.48 962.60 L 1029.34 960.10 L 1031.18 957.59 L 1033.01 955.09 L 1034.82 952.60 L 1036.59 950.10 L 1038.39 947.63 L 1040.21 945.19 L 1042.07 942.80 L 1043.90 940.39 L 1045.68 937.96 L 1047.48 935.57 L 1049.33 933.23 L 1051.15 930.88 L 1052.96 928.54 L 1054.74 926.19 L 1056.52 923.86 L 1058.23 921.49 L 1059.97 919.15 L 1061.70 916.81 L 1063.42 914.50 L 1065.20 912.23 L 1066.99 909.99 L 1068.74 907.74 L 1070.46 905.48 L 1072.17 903.22 L 1073.89 900.99 L 1075.63 898.77 L 1077.34 896.56 L 1079.11 894.41 L 1080.83 892.23 L 1082.57 890.08 L 1084.33 887.96 L 1086.11 885.87 L 1087.92 883.83 L 1089.76 881.82 L 1091.62 879.85 L 1093.49 877.91 L 1095.35 875.97 L 1097.17 874.00 L 1099.01 872.07 L 1100.83 870.14 L 1102.61 868.18 L 1104.39 866.24 L 1106.18 864.32 L 1108.02 862.46 L 1109.89 860.65 L 1111.78 858.88 L 1113.68 857.13 L 1115.59 855.40" stroke="rgb(140,255,190)" stroke-opacity="0.721" stroke-width="1.15" />
  <path d="M 1115.74 943.15 L 1119.00 942.90 L 1122.26 942.70 L 1125.51 942.52 L 1128.74 942.31 L 1131.95 942.06 L 1135.15 941.82 L 1138.34 941.59 L 1141.52 941.44 L 1144.69 941.34 L 1147.85 941.27 L 1151.00 941.22 L 1154.13 941.19 L 1157.25 941.10 L 1160.36 941.01 L 1163.46 940.96 L 1166.54 940.98 L 1169.62 940.94 L 1172.68 940.87 L 1175.72 940.72 L 1178.75 940.60 L 1181.77 940.47 L 1184.78 940.26 L 1187.77 940.03 L 1190.75 939.89 L 1193.72 939.66 L 1196.67 939.35 L 1199.61 939.09 L 1202.54 938.86 L 1205.45 938.60 L 1208.37 938.43 L 1211.27 938.28 L 1214.16 938.17 L 1217.03 937.90 L 1219.88 937.62 L 1222.73 937.35 L 1225.56 937.04 L 1228.38 936.75 L 1231.19 936.45 L 1233.99 936.20 L 1236.78 935.94 L 1239.56 935.66 L 1242.32 935.34 L 1245.07 935.03 L 1247.80 934.67 L 1250.52 934.29 L 1253.22 933.88 L 1255.92 933.48 L 1258.60 933.04 L 1261.27 932.67 L 1263.93 932.21 L 1266.58 931.82 L 1269.22 931.40 L 1271.84 930.99 L 1274.47 930.61 L 1277.07 930.19 L 1279.65 929.68 L 1282.21 929.16 L 1284.76 928.61 L 1287.30 928.04 L 1289.81 927.43 L 1292.32 926.88 L 1294.83 926.33 L 1297.32 925.78 L 1299.80 925.20 L 1302.26 924.58 L 1304.70 923.94 L 1307.14 923.33 L 1309.56 922.69 L 1311.96 921.99 L 1314.36 921.34 L 1316.75 920.70 L 1319.14 920.10 L 1321.50 919.46 L 1323.88 918.87 L 1326.24 918.29 L 1328.62 917.79 L 1330.98 917.28 L 1333.32 916.75 L 1335.65 916.18 L 1337.98 915.64 L 1340.28 915.04 L 1342.57 914.43 L 1344.83 913.78 L 1347.08 913.10 L 1349.33 912.45 L 1351.54 911.72 L 1353.77 911.06" stroke="rgb(140,255,190)" stroke-opacity="0.721" stroke-width="1.15" />
  <path d="M 1061.92 936.06 L 1062.89 933.03 L 1063.93 930.03 L 1065.05 927.07 L 1066.08 924.10 L 1067.08 921.13 L 1068.07 918.17 L 1068.99 915.19 L 1069.92 912.24 L 1070.80 909.28 L 1071.59 906.31 L 1072.39 903.35 L 1073.08 900.38 L 1073.78 897.43 L 1074.58 894.51 L 1075.42 891.62 L 1076.33 888.76 L 1077.13 885.88 L 1077.88 883.00 L 1078.60 880.13 L 1079.38 877.28 L 1080.14 874.44 L 1080.84 871.59 L 1081.31 868.71 L 1081.85 865.86 L 1082.39 863.01 L 1082.90 860.18 L 1083.41 857.35 L 1083.94 854.54 L 1084.52 851.75 L 1085.06 848.97 L 1085.47 846.17 L 1085.81 843.38 L 1086.11 840.59 L 1086.32 837.81 L 1086.49 835.03 L 1086.66 832.27 L 1086.75 829.51 L 1086.67 826.76 L 1086.57 824.03 L 1086.49 821.31 L 1086.53 818.59 L 1086.56 815.89 L 1086.54 813.20 L 1086.47 810.51 L 1086.41 807.84 L 1086.45 805.18 L 1086.44 802.53 L 1086.41 799.89 L 1086.50 797.27 L 1086.56 794.65 L 1086.52 792.04 L 1086.36 789.45 L 1086.07 786.88 L 1085.80 784.32 L 1085.58 781.76 L 1085.41 779.21 L 1085.27 776.67 L 1085.09 774.14 L 1084.75 771.63 L 1084.41 769.14 L 1083.91 766.69 L 1083.42 764.24 L 1082.84 761.82 L 1082.28 759.41 L 1081.65 757.03 L 1081.06 754.64 L 1080.46 752.27 L 1079.85 749.92 L 1079.24 747.57 L 1078.54 745.26 L 1077.85 742.95 L 1077.19 740.64" stroke="rgb(140,255,190)" stroke-opacity="0.719" stroke-width="1.14" />
  <path d="M 997.53 1000.28 L 998.80 997.40 L 1000.04 994.52 L 1001.33 991.68 L 1002.57 988.83 L 1003.87 986.01 L 1005.20 983.23 L 1006.53 980.46 L 1007.77 977.67 L 1009.01 974.88 L 1010.20 972.09 L 1011.42 969.33 L 1012.62 966.57 L 1013.78 963.80 L 1014.86 961.02 L 1015.98 958.26 L 1017.17 955.55 L 1018.36 952.85 L 1019.59 950.18 L 1020.77 947.50 L 1021.93 944.83 L 1023.10 942.17 L 1024.29 939.54 L 1025.51 936.92 L 1026.74 934.33 L 1028.06 931.79 L 1029.35 929.26 L 1030.66 926.75 L 1031.99 924.25 L 1033.22 921.72 L 1034.40 919.19 L 1035.62 916.68 L 1036.80 914.16 L 1037.99 911.66 L 1039.18 909.18 L 1040.38 906.71 L 1041.58 904.25 L 1042.85 901.84 L 1044.08 899.43 L 1045.29 897.01 L 1046.52 894.62 L 1047.71 892.21" stroke="rgb(140,255,190)" stroke-opacity="0.717" stroke-width="1.14" />
  <path d="M 1000.83 1003.77 L 1003.11 1006.07 L 1005.38 1008.36 L 1007.62 1010.65 L 1009.92 1012.88 L 1012.17 1015.13 L 1014.43 1017.36 L 1016.69 1019.57 L 1018.93 1021.78 L 1021.18 1023.96 L 1023.40 1026.16 L 1025.55 1028.41 L 1027.72 1030.61 L 1029.87 1032.83 L 1032.00 1035.04 L 1034.16 1037.21 L 1036.24 1039.44 L 1038.33 1041.64 L 1040.46 1043.78 L 1042.54 1045.97 L 1044.63 1048.11 L 1046.68 1050.28 L 1048.78 1052.39 L 1050.88 1054.48 L 1052.98 1056.56 L 1055.05 1058.64" stroke="rgb(140,255,190)" stroke-opacity="0.716" stroke-width="1.13" />
  <path d="M 998.31 998.86 L 1000.24 996.50 L 1002.15 994.13 L 1003.98 991.72 L 1005.73 989.27 L 1007.54 986.87 L 1009.28 984.43 L 1011.01 982.01 L 1012.69 979.56 L 1014.35 977.11 L 1015.99 974.67 L 1017.56 972.20 L 1019.15 969.75 L 1020.69 967.27 L 1022.22 964.82 L 1023.66 962.32 L 1025.11 959.84 L 1026.52 957.34 L 1027.81 954.80 L 1029.05 952.25 L 1030.32 949.72 L 1031.57 947.19 L 1032.73 944.64" stroke="rgb(140,255,190)" stroke-opacity="0.537" stroke-width="1.13" />
  <path d="M 1003.19 1001.72 L 1005.29 1003.54 L 1007.28 1005.47 L 1009.15 1007.50 L 1011.00 1009.54 L 1012.92 1011.49 L 1014.88 1013.39 L 1016.86 1015.24 L 1018.84 1017.09 L 1020.84 1018.90 L 1022.86 1020.67 L 1024.91 1022.38 L 1026.89 1024.17 L 1028.83 1025.97 L 1030.77 1027.76 L 1032.72 1029.53 L 1034.68 1031.27 L 1036.65 1032.98 L 1038.72 1034.56 L 1040.83 1036.06 L 1042.98 1037.48 L 1045.16 1038.83 L 1047.30 1040.23 L 1049.42 1041.65 L 1051.56 1043.02 L 1053.71 1044.35" stroke="rgb(205,165,255)" stroke-opacity="0.474" stroke-width="1.13" />
  <path d="M 1026.76 972.98 L 1027.75 969.99 L 1028.68 967.00 L 1029.59 964.01 L 1030.40 961.01 L 1031.15 958.00 L 1031.90 955.01 L 1032.61 952.02 L 1033.39 949.06 L 1034.06 946.08 L 1034.69 943.11 L 1035.34 940.16 L 1036.01 937.22 L 1036.66 934.29 L 1037.36 931.38 L 1038.03 928.49 L 1038.83 925.63 L 1039.58 922.77 L 1040.41 919.95 L 1041.16 917.12 L 1041.92 914.30 L 1042.75 911.52 L 1043.56 908.74 L 1044.38 905.98 L 1045.12 903.20 L 1045.85 900.44 L 1046.57 897.68 L 1047.36 894.96 L 1048.06 892.22 L 1048.72 889.49 L 1049.32 886.75 L 1049.95 884.03 L 1050.59 881.32 L 1051.19 878.62 L 1051.75 875.92 L 1052.22 873.21 L 1052.71 870.52 L 1053.12 867.82 L 1053.54 865.14 L 1053.99 862.48 L 1054.40 859.82 L 1054.88 857.18 L 1055.23 854.53 L 1055.60 851.89 L 1056.01 849.28 L 1056.42 846.67 L 1056.87 844.08 L 1057.27 841.49 L 1057.66 838.91 L 1058.05 836.35 L 1058.43 833.79 L 1058.81 831.24 L 1059.18 828.70 L 1059.56 826.17 L 1059.90 823.65 L 1060.18 821.13 L 1060.52 818.62 L 1060.83 816.13 L 1061.23 813.66 L 1061.53 811.18 L 1061.89 808.72 L 1062.21 806.26 L 1062.49 803.81 L 1062.70 801.37 L 1062.83 798.93 L 1063.06 796.50 L 1063.36 794.09 L 1063.68 791.70 L 1064.00 789.31 L 1064.37 786.94 L 1064.73 784.58 L 1065.06 782.23 L 1065.37 779.88" stroke="rgb(140,255,190)" stroke-opacity="0.713" stroke-width="1.13" />
  <path d="M 1049.92 931.37 L 1052.77 930.10 L 1055.52 928.68 L 1058.19 927.12 L 1060.83 925.54 L 1063.43 923.92 L 1065.99 922.26 L 1068.53 920.59 L 1071.07 918.93 L 1073.57 917.26 L 1076.14 915.70 L 1078.69 914.14 L 1081.22 912.56 L 1083.71 910.95 L 1086.13 909.24 L 1088.55 907.57 L 1090.99 905.93 L 1093.47 904.40 L 1095.91 902.82 L 1098.31 901.19 L 1100.74 899.64 L 1103.17 898.10 L 1105.63 896.64 L 1108.08 895.17 L 1110.50 893.68 L 1112.88 892.16 L 1115.24 890.63 L 1117.62 889.14 L 1120.01 887.68 L 1122.45 886.36 L 1124.88 885.02 L 1127.31 883.69 L 1129.70 882.34 L 1132.08 880.98 L 1134.46 879.66 L 1136.81 878.29 L 1139.12 876.88 L 1141.35 875.36 L 1143.56 873.84 L 1145.77 872.32 L 1147.89 870.72 L 1150.05 869.18 L 1152.17 867.60 L 1154.32 866.08 L 1156.45 864.55 L 1158.55 863.01 L 1160.64 861.45 L 1162.74 859.93 L 1164.79 858.38 L 1166.87 856.86 L 1168.95 855.37" stroke="rgb(140,255,190)" stroke-opacity="0.713" stroke-width="1.13" />
  <path d="M 1045.56 868.72 L 1045.44 865.69 L 1045.43 862.67 L 1045.34 859.66 L 1045.24 856.67 L 1045.07 853.69 L 1045.08 850.72 L 1045.06 847.77 L 1045.04 844.82 L 1044.93 841.89 L 1044.71 838.97 L 1044.51 836.07 L 1044.33 833.17 L 1044.31 830.28 L 1044.22 827.41 L 1044.21 824.54 L 1044.25 821.69 L 1044.29 818.85 L 1044.24 816.02 L 1044.05 813.21 L 1043.85 810.41 L 1043.59 807.62 L 1043.23 804.86 L 1042.90 802.10 L 1042.58 799.36 L 1042.23 796.63 L 1041.92 793.90 L 1041.62 791.19 L 1041.38 788.48 L 1041.19 785.78 L 1041.11 783.08 L 1041.05 780.40 L 1040.93 777.72 L 1040.81 775.06 L 1040.57 772.42 L 1040.35 769.78 L 1040.01 767.17 L 1039.83 764.55 L 1039.72 761.94 L 1039.59 759.34 L 1039.57 756.75 L 1039.57 754.17 L 1039.65 751.60 L 1039.73 749.04 L 1039.73 746.49 L 1040.00 743.96 L 1040.17 741.44 L 1040.36 738.93 L 1040.51 736.42" stroke="rgb(140,255,190)" stroke-opacity="0.534" stroke-width="1.12" />
  <path d="M 1002.12 999.70 L 1004.15 997.32 L 1006.18 994.95 L 1008.18 992.58 L 1010.17 990.21 L 1012.08 987.79 L 1014.01 985.41 L 1016.03 983.12 L 1018.04 980.84 L 1019.97 978.51 L 1021.87 976.16 L 1023.76 973.82 L 1025.66 971.50 L 1027.55 969.20 L 1029.52 966.98 L 1031.47 964.75 L 1033.38 962.51 L 1035.33 960.32 L 1037.34 958.19 L 1039.37 956.11 L 1041.37 954.00 L 1043.35 951.90 L 1045.37 949.85 L 1047.36 947.79 L 1049.33 945.73 L 1051.34 943.72 L 1053.37 941.75 L 1055.41 939.79 L 1057.45 937.87 L 1059.50 935.97 L 1061.56 934.09 L 1063.60 932.21 L 1065.64 930.35 L 1067.69 928.51 L 1069.76 926.71 L 1071.82 924.92 L 1073.86 923.12 L 1075.89 921.33 L 1077.90 919.53 L 1079.90 917.73 L 1081.88 915.93 L 1083.85 914.14 L 1085.83 912.37 L 1087.80 910.61 L 1089.76 908.84 L 1091.74 907.12 L 1093.72 905.42 L 1095.69 903.72 L 1097.70 902.08 L 1099.67 900.41 L 1101.62 898.73 L 1103.58 897.08 L 1105.56 895.48 L 1107.47 893.80 L 1109.36 892.12 L 1111.25 890.45 L 1113.11 888.78 L 1114.98 887.11 L 1116.92 885.55 L 1118.82 883.96 L 1120.70 882.35 L 1122.54 880.72 L 1124.41 879.14 L 1126.27 877.55 L 1128.13 875.99 L 1129.96 874.41 L 1131.80 872.85 L 1133.65 871.31 L 1135.47 869.76 L 1137.30 868.23 L 1139.14 866.74 L 1140.95 865.22 L 1142.73 863.68 L 1144.48 862.12 L 1146.21 860.54 L 1147.90 858.95 L 1149.62 857.40 L 1151.36 855.88 L 1153.09 854.37 L 1154.79 852.84 L 1156.48 851.31 L 1158.18 849.80 L 1159.85 848.27 L 1161.55 846.80 L 1163.21 845.29 L 1164.89 843.82 L 1166.56 842.35 L 1168.25 840.91 L 1169.90 839.44 L 1171.52 837.96 L 1173.09 836.43 L 1174.64 834.89 L 1176.24 833.42 L 1177.85 831.97 L 1179.49 830.58 L 1181.14 829.21 L 1182.76 827.81 L 1184.36 826.40 L 1185.97 825.02 L 1187.59 823.67 L 1189.21 822.32 L 1190.82 820.98 L 1192.41 819.63 L 1194.01 818.30 L 1195.60 816.98" stroke="rgb(140,255,190)" stroke-opacity="0.711" stroke-width="1.12" />
  <path d="M 1030.32 949.72 L 1032.38 948.31 L 1034.43 946.91 L 1036.49 945.53 L 1038.49 944.08 L 1040.57 942.77 L 1042.61 941.42 L 1044.64 940.07 L 1046.63 938.67 L 1048.62 937.30" stroke="rgb(140,255,190)" stroke-opacity="0.533" stroke-width="1.12" />
  <path d="M 1146.99 888.58 L 1148.96 886.26 L 1151.01 884.04 L 1153.06 881.82 L 1155.17 879.69 L 1157.27 877.55 L 1159.38 875.44 L 1161.42 873.29 L 1163.59 871.28 L 1165.68 869.20 L 1167.77 867.15 L 1169.92 865.17 L 1172.08 863.21 L 1174.34 861.40 L 1176.63 859.64" stroke="rgb(140,255,190)" stroke-opacity="0.533" stroke-width="1.12" />
  <path d="M 999.78 1000.03 L 1001.69 998.26 L 1003.62 996.54 L 1005.49 994.77 L 1007.38 993.03 L 1009.21 991.25 L 1010.96 989.40 L 1012.81 987.67 L 1014.61 985.90 L 1016.42 984.15 L 1018.24 982.43 L 1020.02 980.68 L 1021.78 978.93 L 1023.59 977.24 L 1025.31 975.47 L 1027.04 973.73 L 1028.68 971.92 L 1030.29 970.09 L 1031.89 968.27 L 1033.51 966.47 L 1035.10 964.67 L 1036.72 962.90 L 1038.29 961.10 L 1039.78 959.25 L 1041.24 957.38 L 1042.75 955.57 L 1044.31 953.81 L 1045.86 952.06 L 1047.35 950.27 L 1048.82 948.48 L 1050.20 946.62 L 1051.64 944.82" stroke="rgb(140,255,190)" stroke-opacity="0.532" stroke-width="1.12" />
  <path d="M 1136.12 817.49 L 1136.71 814.96 L 1137.30 812.45 L 1137.81 809.93 L 1138.43 807.44 L 1139.04 804.96 L 1139.60 802.48 L 1140.16 800.01 L 1140.66 797.54 L 1141.35 795.12 L 1141.82 792.66 L 1142.25 790.21 L 1142.76 787.78 L 1143.34 785.38 L 1143.85 782.97 L 1144.34 780.57 L 1144.88 778.18 L 1145.39 775.80 L 1145.89 773.43 L 1146.35 771.06 L 1147.02 768.76 L 1147.58 766.43 L 1148.06 764.09 L 1148.72 761.81 L 1149.35 759.53 L 1150.02 757.27 L 1150.42 754.96 L 1150.87 752.66 L 1151.35 750.39 L 1151.74 748.10 L 1152.15 745.83 L 1152.51 743.56 L 1152.72 741.27 L 1153.11 739.03 L 1153.69 736.83 L 1154.14 734.61 L 1154.71 732.43 L 1155.30 730.26 L 1155.74 728.07 L 1156.20 725.89 L 1156.52 723.69 L 1156.72 721.49 L 1156.82 719.30 L 1156.92 717.10" stroke="rgb(140,255,190)" stroke-opacity="0.531" stroke-width="1.11" />
  <path d="M 1000.18 1004.83 L 1001.96 1002.47 L 1003.81 1000.19 L 1005.75 997.98 L 1007.63 995.74 L 1009.46 993.48 L 1011.17 991.15 L 1012.88 988.82 L 1014.61 986.52 L 1016.35 984.25 L 1018.08 981.98 L 1019.77 979.70 L 1021.49 977.45 L 1023.18 975.19 L 1024.89 972.96 L 1026.57 970.73 L 1028.25 968.51 L 1029.88 966.27 L 1031.51 964.04 L 1033.08 961.78 L 1034.60 959.50 L 1036.03 957.17 L 1037.43 954.84 L 1038.78 952.50 L 1040.12 950.15 L 1041.43 947.81 L 1042.68 945.44 L 1043.87 943.06 L 1045.02 940.67 L 1046.23 938.32 L 1047.47 935.99 L 1048.69 933.67 L 1049.92 931.37 L 1051.15 929.08 L 1052.35 926.79 L 1053.48 924.46 L 1054.62 922.16 L 1055.70 919.84 L 1056.65 917.47 L 1057.72 915.17 L 1058.76 912.86 L 1059.66 910.51 L 1060.51 908.15 L 1061.40 905.82 L 1062.32 903.50 L 1063.20 901.19 L 1064.04 898.86 L 1064.85 896.54 L 1065.72 894.25 L 1066.59 891.97 L 1067.45 889.70 L 1068.33 887.44 L 1069.18 885.19 L 1070.02 882.94 L 1070.85 880.70 L 1071.67 878.46 L 1072.42 876.21 L 1073.19 873.98 L 1073.93 871.74 L 1074.70 869.53 L 1075.45 867.32" stroke="rgb(140,255,190)" stroke-opacity="0.531" stroke-width="1.11" />
  <path d="M 1118.82 883.96 L 1119.68 881.51 L 1120.52 879.07 L 1121.36 876.64 L 1122.09 874.19 L 1122.68 871.71 L 1123.19 869.22 L 1123.78 866.76 L 1124.25 864.28 L 1124.77 861.83 L 1125.24 859.37 L 1125.77 856.94 L 1126.34 854.53 L 1126.88 852.12 L 1127.43 849.72 L 1128.12 847.37 L 1128.80 845.02 L 1129.47 842.69 L 1130.08 840.35 L 1130.80 838.05 L 1131.55 835.76 L 1132.29 833.49 L 1133.08 831.24 L 1133.76 828.97 L 1134.25 826.66 L 1134.81 824.37 L 1135.27 822.07 L 1135.67 819.77 L 1136.12 817.49 L 1136.62 815.23 L 1137.11 812.98 L 1137.55 810.72 L 1138.00 808.48 L 1138.38 806.23 L 1138.85 804.01 L 1139.41 801.82 L 1139.95 799.63 L 1140.64 797.50 L 1141.40 795.40 L 1142.14 793.30 L 1142.90 791.21 L 1143.55 789.10 L 1144.12 786.98 L 1144.53 784.83 L 1144.93 782.68 L 1145.21 780.53 L 1145.61 778.40 L 1146.03 776.29 L 1146.37 774.17 L 1146.74 772.07 L 1147.13 769.97 L 1147.38 767.87 L 1147.65 765.77 L 1147.88 763.68 L 1148.16 761.60 L 1148.41 759.53 L 1148.63 757.47 L 1148.92 755.41 L 1149.15 753.37 L 1149.43 751.33 L 1149.67 749.30 L 1149.93 747.28 L 1150.19 745.27 L 1150.35 743.25 L 1150.58 741.25 L 1150.69 739.25 L 1150.77 737.25 L 1150.92 735.27 L 1150.96 733.29 L 1151.20 731.33" stroke="rgb(140,255,190)" stroke-opacity="0.531" stroke-width="1.11" />
  <path d="M 1036.06 942.19 L 1036.47 939.23 L 1036.87 936.28 L 1037.23 933.33 L 1037.67 930.41 L 1038.08 927.50 L 1038.60 924.62 L 1039.05 921.74 L 1039.53 918.87 L 1039.98 916.01 L 1040.46 913.17 L 1041.03 910.36 L 1041.68 907.57 L 1042.46 904.83 L 1043.20 902.09 L 1043.87 899.35 L 1044.57 896.62 L 1045.31 893.92 L 1046.03 891.22 L 1046.74 888.53 L 1047.42 885.85" stroke="rgb(140,255,190)" stroke-opacity="0.530" stroke-width="1.11" />
  <path d="M 1031.59 933.43 L 1031.76 930.78 L 1031.91 928.15 L 1032.01 925.53 L 1031.80 922.92 L 1031.59 920.32 L 1031.37 917.73 L 1031.32 915.15 L 1031.38 912.58 L 1031.36 910.01 L 1031.22 907.46 L 1031.15 904.92 L 1031.19 902.38 L 1031.27 899.86 L 1031.24 897.35 L 1031.19 894.85 L 1031.30 892.36 L 1031.42 889.87 L 1031.43 887.40 L 1031.47 884.94 L 1031.47 882.48 L 1031.65 880.05 L 1031.81 877.62 L 1031.86 875.19 L 1031.94 872.78 L 1032.02 870.38 L 1032.10 867.98 L 1032.15 865.60 L 1032.27 863.22 L 1032.27 860.86 L 1032.18 858.50 L 1032.11 856.15 L 1032.06 853.82" stroke="rgb(140,255,190)" stroke-opacity="0.530" stroke-width="1.11" />
  <path d="M 1030.35 940.56 L 1029.88 937.65 L 1029.35 934.77 L 1028.91 931.89 L 1028.39 929.03 L 1027.80 926.19 L 1027.43 923.33 L 1027.16 920.47 L 1027.00 917.62 L 1026.88 914.77 L 1026.78 911.93 L 1026.64 909.11 L 1026.57 906.29 L 1026.54 903.49 L 1026.66 900.70 L 1026.72 897.92 L 1026.91 895.15 L 1027.04 892.40 L 1027.12 889.65 L 1027.17 886.91 L 1027.29 884.19 L 1027.34 881.47 L 1027.54 878.78 L 1027.73 876.09 L 1027.93 873.41 L 1028.06 870.75 L 1028.16 868.09 L 1028.21 865.43 L 1028.13 862.80 L 1028.11 860.17 L 1027.97 857.55 L 1027.76 854.95 L 1027.59 852.36 L 1027.32 849.78 L 1027.12 847.21 L 1026.95 844.65 L 1026.74 842.10 L 1026.58 839.56 L 1026.47 837.03 L 1026.39 834.50" stroke="rgb(140,255,190)" stroke-opacity="0.529" stroke-width="1.11" />
  <path d="M 1000.94 1001.41 L 1003.17 999.35 L 1005.38 997.30 L 1007.53 995.20 L 1009.76 993.20 L 1012.03 991.26 L 1014.26 989.30 L 1016.49 987.36 L 1018.70 985.41 L 1020.95 983.53 L 1023.19 981.64 L 1025.43 979.78 L 1027.67 977.94 L 1029.97 976.19 L 1032.21 974.38 L 1034.45 972.60 L 1036.71 970.86 L 1038.95 969.11 L 1041.19 967.37 L 1043.47 965.71 L 1045.73 964.05 L 1048.03 962.45 L 1050.33 960.88 L 1052.63 959.33" stroke="rgb(140,255,190)" stroke-opacity="0.528" stroke-width="1.10" />
  <path d="M 1038.95 969.11 L 1041.59 968.05 L 1044.17 966.91 L 1046.76 965.80 L 1049.32 964.65 L 1051.86 963.49 L 1054.42 962.41 L 1056.95 961.28 L 1059.49 960.20 L 1062.01 959.09 L 1064.45 957.85 L 1066.84 956.55 L 1069.13 955.09 L 1071.36 953.55 L 1073.60 952.06 L 1075.85 950.60 L 1078.15 949.23 L 1080.46 947.91 L 1082.75 946.57 L 1085.09 945.34 L 1087.47 944.22 L 1089.81 943.04 L 1092.08 941.76 L 1094.36 940.52 L 1096.68 939.35 L 1098.95 938.15 L 1101.20 936.91 L 1103.46 935.70 L 1105.67 934.43 L 1107.89 933.20 L 1110.05 931.91 L 1112.22 930.61 L 1114.36 929.32 L 1116.51 928.04 L 1118.61 926.72 L 1120.66 925.33 L 1122.73 923.99 L 1124.84 922.73 L 1126.94 921.47 L 1129.04 920.24 L 1131.17 919.07 L 1133.32 917.96 L 1135.49 916.92 L 1137.63 915.83" stroke="rgb(140,255,190)" stroke-opacity="0.528" stroke-width="1.10" />
  <path d="M 1001.69 1003.51 L 1003.37 1001.38 L 1004.99 999.23 L 1006.69 997.15 L 1008.50 995.17 L 1010.21 993.13 L 1011.91 991.08 L 1013.62 989.07 L 1015.26 987.01 L 1016.92 984.97 L 1018.49 982.89 L 1020.09 980.83 L 1021.74 978.83 L 1023.43 976.88 L 1025.11 974.94 L 1026.76 972.98 L 1028.45 971.07 L 1030.11 969.14 L 1031.70 967.18 L 1033.26 965.19 L 1034.84 963.24 L 1036.45 961.33 L 1038.01 959.39 L 1039.49 957.40 L 1040.93 955.39 L 1042.38 953.41 L 1043.84 951.44 L 1045.24 949.44 L 1046.72 947.51 L 1048.11 945.53 L 1049.50 943.55 L 1050.82 941.55 L 1052.18 939.58 L 1053.61 937.68 L 1055.06 935.80" stroke="rgb(140,255,190)" stroke-opacity="0.528" stroke-width="1.10" />
  <path d="M 1117.42 883.87 L 1119.92 882.58 L 1122.40 881.28 L 1124.82 879.89 L 1127.26 878.54 L 1129.62 877.10 L 1131.95 875.63 L 1134.31 874.21 L 1136.60 872.71" stroke="rgb(140,255,190)" stroke-opacity="0.528" stroke-width="1.10" />
  <path d="M 1078.72 904.65 L 1079.60 901.86 L 1080.48 899.08 L 1081.39 896.33 L 1082.26 893.58 L 1083.02 890.80 L 1083.81 888.05 L 1084.70 885.33 L 1085.50 882.61 L 1086.22 879.87 L 1086.99 877.15 L 1087.89 874.49 L 1088.80 871.85 L 1089.62 869.19 L 1090.46 866.54 L 1091.20 863.88 L 1091.81 861.20 L 1092.60 858.57 L 1093.43 855.97 L 1094.27 853.38 L 1095.11 850.81 L 1095.94 848.24" stroke="rgb(140,255,190)" stroke-opacity="0.528" stroke-width="1.10" />
  <path d="M 1023.59 977.24 L 1024.57 974.43 L 1025.64 971.67 L 1026.67 968.90 L 1027.67 966.13 L 1028.75 963.41 L 1029.82 960.70 L 1030.90 958.00 L 1032.03 955.34 L 1033.24 952.72 L 1034.45 950.12 L 1035.61 947.51 L 1036.70 944.88 L 1037.79 942.26 L 1038.95 939.68 L 1040.23 937.18 L 1041.60 934.74 L 1042.87 932.25 L 1044.16 929.79 L 1045.46 927.34 L 1046.76 924.91 L 1048.14 922.54 L 1049.50 920.16 L 1050.87 917.81 L 1052.25 915.47 L 1053.75 913.22 L 1055.24 910.98 L 1056.85 908.84 L 1058.47 906.71 L 1060.04 904.57 L 1061.54 902.38 L 1063.04 900.21 L 1064.56 898.07 L 1066.12 895.96 L 1067.69 893.89 L 1069.20 891.77 L 1070.72 889.68 L 1072.19 887.56 L 1073.60 885.42 L 1075.04 883.31 L 1076.50 881.23 L 1078.02 879.20 L 1079.53 877.18 L 1081.00 875.14 L 1082.49 873.12 L 1084.03 871.16 L 1085.67 869.29 L 1087.38 867.50 L 1089.02 865.66 L 1090.69 863.86 L 1092.30 862.02 L 1093.90 860.19 L 1095.45 858.32 L 1096.99 856.46 L 1098.52 854.60 L 1100.01 852.72 L 1101.53 850.88 L 1103.03 849.04 L 1104.53 847.20 L 1105.98 845.35 L 1107.44 843.50 L 1108.84 841.63 L 1110.23 839.76 L 1111.55 837.85 L 1112.80 835.91 L 1114.01 833.95 L 1115.36 832.09 L 1116.66 830.22 L 1117.95 828.34" stroke="rgb(140,255,190)" stroke-opacity="0.527" stroke-width="1.10" />
  <path d="M 1027.67 977.94 L 1028.25 975.43 L 1028.65 972.90 L 1028.90 970.36 L 1029.12 967.82 L 1029.32 965.30 L 1029.46 962.78 L 1029.44 960.26 L 1029.40 957.76 L 1029.46 955.27 L 1029.56 952.79 L 1029.53 950.31 L 1029.63 947.85 L 1029.85 945.41 L 1030.13 942.98 L 1030.35 940.56 L 1030.67 938.16 L 1031.15 935.79 L 1031.59 933.43 L 1032.01 931.07 L 1032.64 928.77 L 1033.34 926.49 L 1034.20 924.29 L 1034.91 922.04 L 1035.73 919.84 L 1036.62 917.68 L 1037.45 915.51 L 1038.21 913.32 L 1038.98 911.14" stroke="rgb(140,255,190)" stroke-opacity="0.527" stroke-width="1.10" />
  <path d="M 1058.22 921.20 L 1058.66 918.32 L 1059.17 915.47 L 1059.65 912.63 L 1060.08 909.79 L 1060.66 906.99 L 1061.18 904.19 L 1061.61 901.38 L 1062.02 898.59 L 1062.55 895.82 L 1063.21 893.10 L 1063.82 890.37 L 1064.41 887.66 L 1065.07 884.96 L 1065.64 882.27 L 1066.29 879.60 L 1066.81 876.91 L 1067.34 874.23 L 1067.85 871.57 L 1068.38 868.92 L 1068.80 866.26 L 1069.28 863.62 L 1069.66 860.97 L 1070.04 858.34 L 1070.33 855.70 L 1070.53 853.07 L 1070.76 850.45 L 1070.94 847.84 L 1071.15 845.24 L 1071.37 842.65 L 1071.58 840.07 L 1071.79 837.50 L 1072.01 834.94 L 1072.20 832.39 L 1072.46 829.86 L 1072.68 827.33 L 1072.95 824.82 L 1073.24 822.32 L 1073.44 819.82 L 1073.58 817.33 L 1073.72 814.85 L 1073.79 812.37 L 1073.94 809.91 L 1073.99 807.46 L 1074.03 805.01 L 1074.14 802.58 L 1074.17 800.15 L 1074.22 797.73 L 1074.29 795.33 L 1074.31 792.93 L 1074.28 790.54 L 1074.33 788.16 L 1074.38 785.79 L 1074.44 783.43 L 1074.65 781.09 L 1074.74 778.75 L 1074.95 776.43 L 1075.14 774.12 L 1075.39 771.82 L 1075.65 769.53" stroke="rgb(140,255,190)" stroke-opacity="0.527" stroke-width="1.10" />
  <path d="M 1095.91 902.82 L 1098.69 902.26 L 1101.47 901.76 L 1104.23 901.19 L 1107.02 900.89 L 1109.80 900.68 L 1112.57 900.39 L 1115.33 900.22 L 1118.09 900.15 L 1120.84 900.22 L 1123.57 900.33 L 1126.29 900.43 L 1129.00 900.65 L 1131.70 900.84 L 1134.38 901.07 L 1137.04 901.41 L 1139.70 901.66 L 1142.35 901.92 L 1144.98 902.21 L 1147.60 902.53 L 1150.21 902.85 L 1152.80 903.22 L 1155.36 903.74 L 1157.89 904.34 L 1160.44 904.77 L 1162.96 905.29 L 1165.49 905.74 L 1168.02 906.06 L 1170.56 906.28 L 1173.09 906.41 L 1175.61 906.56 L 1178.11 906.84 L 1180.59 907.20 L 1183.05 907.65 L 1185.48 908.14 L 1187.91 908.65 L 1190.31 909.19 L 1192.72 909.68 L 1195.11 910.21 L 1197.49 910.71 L 1199.87 911.17 L 1202.27 911.51 L 1204.63 911.94 L 1207.01 912.28 L 1209.37 912.64 L 1211.74 912.78 L 1214.10 912.97 L 1216.46 912.93 L 1218.81 912.93 L 1221.15 912.88 L 1223.48 912.86 L 1225.80 912.90 L 1228.11 912.97 L 1230.41 913.14 L 1232.70 913.35 L 1234.98 913.37" stroke="rgb(140,255,190)" stroke-opacity="0.526" stroke-width="1.10" />
  <path d="M 999.68 999.59 L 1001.26 997.19 L 1002.80 994.79 L 1004.36 992.41 L 1005.84 990.00 L 1007.37 987.62 L 1008.93 985.28 L 1010.51 982.97 L 1012.11 980.68 L 1013.72 978.42 L 1015.30 976.15 L 1016.91 973.92 L 1018.52 971.70 L 1020.20 969.54 L 1021.84 967.36 L 1023.48 965.21 L 1025.20 963.12 L 1026.88 961.02 L 1028.56 958.93 L 1030.20 956.82 L 1031.83 954.73 L 1033.43 952.62 L 1034.97 950.48 L 1036.49 948.34 L 1037.99 946.20 L 1039.57 944.13 L 1041.19 942.09 L 1042.71 940.01 L 1044.27 937.95 L 1045.84 935.93 L 1047.36 933.88 L 1048.88 931.84 L 1050.41 929.83 L 1051.93 927.81 L 1053.37 925.75 L 1054.82 923.71 L 1056.24 921.66 L 1057.66 919.63 L 1059.10 917.61 L 1060.47 915.57 L 1061.86 913.55 L 1063.27 911.55 L 1064.70 909.58 L 1066.15 907.64 L 1067.61 905.71 L 1069.03 903.78 L 1070.45 901.85 L 1071.95 899.99 L 1073.38 898.09 L 1074.85 896.24 L 1076.36 894.43 L 1077.81 892.58 L 1079.25 890.75 L 1080.69 888.91 L 1082.17 887.13 L 1083.65 885.36 L 1085.14 883.60 L 1086.60 881.84 L 1088.05 880.07 L 1089.47 878.29 L 1090.93 876.57 L 1092.37 874.83 L 1093.81 873.10 L 1095.27 871.41 L 1096.71 869.71 L 1098.16 868.03 L 1099.62 866.37 L 1101.10 864.74 L 1102.50 863.06" stroke="rgb(140,255,190)" stroke-opacity="0.525" stroke-width="1.09" />
  <path d="M 1043.47 965.71 L 1044.87 963.34 L 1046.39 961.06 L 1047.99 958.85 L 1049.58 956.63 L 1051.16 954.43 L 1052.57 952.13 L 1053.93 949.81 L 1055.21 947.46 L 1056.63 945.21 L 1058.04 942.95 L 1059.30 940.63 L 1060.61 938.34 L 1061.92 936.06 L 1063.07 933.72 L 1064.26 931.40 L 1065.43 929.09 L 1066.53 926.75 L 1067.68 924.45 L 1068.79 922.14 L 1069.99 919.89 L 1071.13 917.61 L 1072.35 915.40 L 1073.50 913.15 L 1074.71 910.95 L 1076.08 908.86 L 1077.44 906.77 L 1078.72 904.65 L 1079.97 902.51 L 1081.15 900.35" stroke="rgb(140,255,190)" stroke-opacity="0.525" stroke-width="1.09" />
  <path d="M 1001.70 1002.46 L 1003.39 1000.21 L 1005.14 998.03 L 1006.93 995.90 L 1008.72 993.78 L 1010.47 991.64 L 1012.18 989.48 L 1013.96 987.40 L 1015.62 985.23 L 1017.20 983.02 L 1018.77 980.81 L 1020.37 978.64 L 1022.01 976.52 L 1023.64 974.39 L 1025.23 972.25 L 1026.67 970.02 L 1028.04 967.76 L 1029.44 965.53 L 1030.82 963.30 L 1032.33 961.17 L 1033.91 959.10 L 1035.47 957.04 L 1037.04 954.98 L 1038.64 952.97 L 1040.24 950.97 L 1041.92 949.05" stroke="rgb(140,255,190)" stroke-opacity="0.525" stroke-width="1.09" />
  <path d="M 999.83 998.53 L 1001.43 996.48 L 1002.94 994.38 L 1004.34 992.21 L 1005.80 990.10 L 1007.22 987.98 L 1008.60 985.83 L 1009.89 983.65 L 1011.10 981.43 L 1012.31 979.22 L 1013.38 976.96 L 1014.51 974.73 L 1015.60 972.49 L 1016.76 970.30 L 1017.98 968.16 L 1019.19 966.02 L 1020.44 963.92 L 1021.70 961.83 L 1022.91 959.73 L 1024.08 957.61 L 1025.29 955.53 L 1026.43 953.42 L 1027.56 951.31 L 1028.65 949.20 L 1029.74 947.09 L 1030.76 944.96 L 1031.81 942.86 L 1032.82 940.75 L 1033.82 938.64 L 1034.80 936.53 L 1035.87 934.48 L 1036.97 932.46" stroke="rgb(140,255,190)" stroke-opacity="0.525" stroke-width="1.09" />
  <path d="M 997.87 999.50 L 999.37 1001.92 L 1000.79 1004.38 L 1002.06 1006.91 L 1003.34 1009.42 L 1004.59 1011.93 L 1005.76 1014.47 L 1006.91 1017.00 L 1008.01 1019.55 L 1009.07 1022.10 L 1010.15 1024.63 L 1011.21 1027.15 L 1012.29 1029.66 L 1013.34 1032.17 L 1014.30 1034.70 L 1015.22 1037.23 L 1016.23 1039.72 L 1017.28 1042.17 L 1018.25 1044.65 L 1019.24 1047.12 L 1020.18 1049.59 L 1021.17 1052.02 L 1022.16 1054.45 L 1023.29 1056.81 L 1024.42 1059.15 L 1025.55 1061.48 L 1026.73 1063.77 L 1027.84 1066.09 L 1028.93 1068.40 L 1030.00 1070.71 L 1031.03 1073.03 L 1032.09 1075.33 L 1033.11 1077.63 L 1034.06 1079.95 L 1034.93 1082.30 L 1035.80 1084.63 L 1036.64 1086.96" stroke="rgb(140,255,190)" stroke-opacity="0.525" stroke-width="1.09" />
  <path d="M 1044.24 877.64 L 1044.14 874.82 L 1044.19 872.01 L 1044.13 869.21 L 1043.98 866.42 L 1043.77 863.65 L 1043.61 860.89 L 1043.62 858.13 L 1043.63 855.39 L 1043.40 852.66 L 1043.22 849.95 L 1043.09 847.24 L 1042.95 844.54 L 1042.64 841.87 L 1042.17 839.23 L 1041.77 836.59 L 1041.36 833.97 L 1040.86 831.37 L 1040.41 828.77 L 1039.86 826.20 L 1039.36 823.63 L 1038.88 821.07 L 1038.37 818.53 L 1037.88 815.99 L 1037.31 813.48 L 1036.73 810.98 L 1036.21 808.48 L 1035.87 805.96 L 1035.74 803.43 L 1035.64 800.91 L 1035.48 798.40 L 1035.29 795.91 L 1035.05 793.43 L 1034.97 790.94 L 1034.98 788.47 L 1034.99 786.01 L 1035.05 783.56 L 1034.96 781.11 L 1034.93 778.68 L 1034.98 776.26 L 1034.89 773.84 L 1034.91 771.44 L 1034.89 769.04 L 1035.14 766.67 L 1035.41 764.31 L 1035.81 761.98 L 1036.10 759.64 L 1036.48 757.32 L 1036.86 755.02 L 1037.22 752.72 L 1037.52 750.42 L 1037.86 748.13 L 1038.14 745.85 L 1038.36 743.57 L 1038.68 741.31 L 1038.95 739.05 L 1039.17 736.79 L 1039.50 734.56 L 1039.75 732.33 L 1039.99 730.11 L 1040.26 727.90 L 1040.43 725.68 L 1040.72 723.49 L 1040.98 721.30" stroke="rgb(140,255,190)" stroke-opacity="0.524" stroke-width="1.09" />
  <path d="M 1041.24 957.38 L 1044.00 956.64 L 1046.76 955.91 L 1049.48 955.14 L 1052.24 954.51 L 1054.98 953.89 L 1057.74 953.37 L 1060.47 952.79 L 1063.19 952.21 L 1065.90 951.65 L 1068.63 951.24 L 1071.36 950.89 L 1074.05 950.39 L 1076.72 949.86 L 1079.39 949.36 L 1082.07 949.00 L 1084.74 948.67 L 1087.39 948.26 L 1090.03 947.85 L 1092.64 947.33 L 1095.26 946.91 L 1097.87 946.51 L 1100.46 946.05 L 1103.03 945.58 L 1105.59 945.07 L 1108.15 944.61 L 1110.68 944.08 L 1113.21 943.58 L 1115.74 943.15 L 1118.27 942.77 L 1120.78 942.35 L 1123.29 941.98 L 1125.77 941.54 L 1128.26 941.19 L 1130.74 940.80 L 1133.18 940.29 L 1135.61 939.77 L 1138.04 939.30 L 1140.44 938.73 L 1142.84 938.20 L 1145.23 937.68 L 1147.64 937.32 L 1150.04 936.95 L 1152.42 936.54 L 1154.81 936.23 L 1157.19 935.97 L 1159.56 935.66 L 1161.92 935.38 L 1164.27 935.07" stroke="rgb(140,255,190)" stroke-opacity="0.524" stroke-width="1.09" />
  <path d="M 999.63 1001.91 L 998.29 999.69 L 997.00 997.46 L 995.71 995.23 L 994.58 992.93 L 993.49 990.62 L 992.38 988.34 L 991.27 986.06 L 990.24 983.76 L 989.21 981.47 L 988.21 979.18 L 987.32 976.85 L 986.49 974.51 L 985.65 972.19 L 984.75 969.90 L 983.87 967.61 L 983.15 965.28 L 982.42 962.96 L 981.74 960.63 L 981.03 958.33 L 980.39 956.01 L 979.72 953.71 L 979.08 951.42 L 978.44 949.13 L 977.84 946.84 L 977.28 944.55 L 976.71 942.28 L 976.19 940.00 L 975.67 937.73 L 975.12 935.48 L 974.50 933.26" stroke="rgb(205,165,255)" stroke-opacity="0.464" stroke-width="1.09" />
  <path d="M 142.19 2000.00 L 144.32 1997.54 L 146.22 1995.33 L 148.17 1993.26 L 149.68 1990.65 L 151.81 1988.62 L 154.01 1986.02 L 155.79 1984.13 L 157.60 1981.82 L 160.16 1979.60 L 161.83 1977.58 L 163.72 1974.76 L 166.10 1972.52 L 168.04 1970.57 L 169.59 1967.83 L 171.35 1966.07 L 173.54 1963.39 L 175.73 1961.11 L 177.18 1958.79 L 178.91 1956.51 L 181.31 1954.34 L 182.90 1951.97 L 185.15 1950.08 L 187.26 1947.74 L 188.97 1945.64 L 191.30 1943.38 L 193.10 1940.99 L 194.84 1938.39 L 197.06 1936.25 L 198.33 1934.04 L 200.76 1931.38 L 202.84 1929.55 L 204.56 1927.10 L 206.63 1924.64 L 208.69 1922.66 L 210.84 1920.16 L 212.36 1918.19 L 214.88 1915.69 L 216.16 1913.49 L 218.06 1911.15 L 220.63 1908.65 L 222.12 1906.44 L 224.21 1904.05 L 226.36 1902.44 L 228.01 1899.30 L 230.36 1897.36 L 232.44 1895.11 L 234.39 1893.00 L 235.98 1890.44 L 237.79 1888.38 L 240.01 1886.41 L 241.87 1884.11 L 243.77 1881.48 L 245.60 1879.84 L 247.46 1876.93 L 249.75 1874.66 L 251.59 1872.35 L 253.47 1870.28 L 255.42 1868.22 L 257.25 1865.38 L 259.42 1863.01 L 261.76 1861.27 L 263.32 1858.71 L 265.70 1856.44 L 267.16 1854.05 L 268.81 1852.23 L 271.02 1850.14 L 273.25 1847.25 L 275.28 1844.75 L 276.98 1842.90 L 279.38 1840.87 L 280.81 1837.95 L 282.73 1835.82 L 284.72 1833.88 L 286.34 1831.23 L 288.51 1829.37 L 290.82 1826.87 L 292.38 1824.54 L 295.05 1822.05 L 296.29 1820.11 L 298.18 1817.65 L 300.53 1815.52 L 301.97 1813.37 L 304.05 1810.96 L 306.35 1808.96 L 308.12 1806.59 L 310.22 1803.83 L 312.43 1801.63 L 314.41 1799.23 L 315.87 1797.13 L 317.81 1794.76 L 319.94 1792.88 L 321.90 1790.80 L 323.41 1788.46 L 325.45 1786.01 L 327.67 1783.64 L 330.07 1781.32 L 331.36 1778.99 L 333.63 1777.17 L 335.30 1774.68 L 337.28 1772.56 L 339.61 1769.91 L 342.05 1767.82 L 343.21 1765.50 L 345.63 1763.19 L 347.05 1761.07 L 349.18 1758.39 L 351.29 1756.12 L 353.43 1753.82 L 355.18 1751.93 L 357.39 1749.64 L 359.29 1747.18 L 360.88 1745.26 L 362.91 1742.39 L 364.83 1740.43 L 366.89 1738.14 L 369.03 1735.71 L 371.03 1733.39 L 372.88 1731.24 L 374.97 1729.33 L 376.89 1726.98 L 378.02 1724.76 L 380.44 1722.21 L 382.67 1719.96 L 383.97 1717.65 L 386.53 1715.45 L 388.52 1712.92 L 390.05 1710.69 L 391.97 1708.96 L 394.24 1706.38 L 396.23 1704.27 L 397.95 1701.74 L 400.29 1699.44 L 402.12 1696.93 L 404.07 1694.67 L 405.85 1692.39 L 407.50 1690.03 L 409.88 1688.01 L 411.37 1685.75 L 413.50 1683.90 L 415.67 1681.44 L 417.54 1678.83 L 419.69 1676.42 L 421.07 1674.04 L 423.91 1672.12 L 425.48 1669.43 L 427.32 1667.13 L 429.62 1664.93 L 431.49 1663.16 L 432.91 1660.47 L 435.22 1658.26 L 436.95 1655.60 L 439.13 1653.69 L 441.41 1651.44 L 443.02 1649.14 L 444.65 1647.42 L 447.08 1644.54 L 448.75 1642.65 L 450.99 1640.15 L 452.32 1637.79 L 455.09 1635.98 L 456.81 1633.54 L 458.17 1631.03 L 460.63 1628.67 L 462.83 1626.77 L 464.29 1624.60 L 466.28 1621.80 L 468.70 1619.98 L 470.19 1617.57 L 472.09 1615.24 L 474.45 1612.68 L 476.33 1610.91 L 478.29 1608.18 L 480.10 1606.02 L 482.50 1603.62 L 483.85 1601.37 L 485.96 1599.06 L 487.82 1596.98 L 489.88 1594.98 L 491.97 1592.35 L 493.20 1590.02 L 495.98 1588.03 L 497.61 1585.50 L 499.85 1583.18 L 501.38 1580.97 L 503.95 1578.72 L 505.47 1576.40 L 507.40 1574.17 L 509.37 1572.03 L 511.46 1569.82 L 513.38 1567.63 L 515.07 1564.99 L 517.59 1562.82 L 519.37 1560.68 L 521.42 1558.31 L 523.21 1556.05 L 525.29 1553.90 L 527.04 1551.22 L 528.87 1549.17 L 531.17 1546.54 L 532.96 1544.34 L 534.57 1542.31 L 536.93 1540.03 L 539.13 1537.36 L 540.78 1535.90 L 542.50 1533.09 L 544.51 1530.75 L 546.40 1528.72 L 548.58 1525.77 L 550.15 1524.21 L 552.77 1521.70 L 554.18 1519.62 L 556.34 1517.40 L 558.10 1515.41 L 560.37 1512.32 L 561.84 1510.44 L 564.29 1508.17 L 566.30 1506.14 L 567.74 1503.42 L 569.82 1501.48 L 572.02 1499.04 L 574.03 1496.76 L 575.92 1494.63 L 577.66 1492.16 L 580.07 1489.53 L 581.74 1487.66 L 583.31 1485.29 L 585.69 1483.02 L 587.28 1481.06 L 589.65 1478.55 L 591.56 1475.97 L 593.28 1473.79 L 595.37 1471.24 L 597.98 1469.48 L 599.25 1467.28 L 601.13 1464.44 L 602.77 1463.10 L 605.27 1460.38 L 607.34 1458.05 L 609.17 1456.04 L 610.69 1453.63 L 612.84 1451.24 L 614.85 1448.75 L 616.78 1446.52 L 618.96 1444.13 L 620.49 1442.35 L 622.70 1440.20 L 624.62 1437.78 L 626.51 1435.43 L 628.52 1433.17 L 630.56 1430.73 L 632.02 1428.16 L 634.21 1426.08 L 636.80 1423.60 L 638.36 1421.86 L 640.26 1419.13 L 642.19 1416.95 L 644.24 1414.68 L 646.18 1412.23 L 648.14 1410.25 L 650.03 1408.06 L 651.68 1405.91 L 653.57 1403.55 L 656.17 1401.27 L 658.03 1398.66 L 659.59 1396.56 L 661.53 1394.22 L 664.00 1391.76 L 666.05 1389.99 L 667.81 1387.66 L 669.77 1385.02 L 671.59 1383.03 L 673.92 1380.89 L 675.22 1378.53 L 677.81 1376.53 L 679.79 1373.65 L 681.28 1371.97 L 683.65 1369.03 L 684.83 1366.79 L 687.19 1364.88 L 689.24 1361.95 L 690.75 1360.40 L 693.28 1358.06 L 694.99 1355.59 L 697.01 1353.36 L 698.90 1351.29 L 700.98 1348.68 L 702.73 1346.61 L 705.08 1343.49 L 706.69 1341.85 L 708.75 1339.49 L 710.43 1337.34 L 712.21 1335.30 L 714.56 1332.74 L 716.25 1330.58 L 718.68 1328.52 L 720.45 1326.34 L 722.37 1323.49 L 724.27 1321.99 L 726.41 1319.44 L 728.32 1316.96 L 729.97 1314.61 L 732.62 1312.51 L 734.33 1310.08 L 735.78 1307.61 L 737.73 1305.65 L 740.70 1303.44 L 742.06 1300.55 L 743.71 1298.58 L 746.00 1296.18 L 748.01 1294.29 L 749.49 1291.74 L 752.01 1289.66 L 753.57 1287.41 L 756.00 1285.15 L 757.42 1282.62 L 759.50 1280.55 L 761.23 1278.19 L 763.41 1275.55 L 765.21 1274.07 L 766.91 1271.37 L 769.18 1268.97 L 770.99 1266.55 L 773.01 1264.73 L 774.70 1262.34 L 776.64 1259.80 L 779.23 1257.47 L 781.22 1255.52 L 782.73 1252.92 L 785.02 1251.09 L 786.81 1248.44 L 788.97 1246.45 L 790.35 1244.39 L 792.68 1241.94 L 794.10 1239.86 L 796.51 1237.34 L 798.47 1234.78 L 800.49 1232.53 L 802.44 1229.87 L 804.27 1227.89 L 806.68 1226.06 L 808.42 1223.68 L 809.97 1221.25 L 812.34 1219.16 L 814.19 1216.69 L 815.85 1214.57 L 817.55 1212.20 L 819.93 1209.80 L 821.76 1207.35 L 823.82 1205.47 L 825.74 1202.80 L 827.76 1201.25 L 830.00 1198.29 L 831.89 1196.12 L 833.54 1194.00 L 835.46 1191.82 L 837.27 1189.49 L 839.81 1187.05 L 841.26 1184.91 L 843.09 1183.10 L 845.63 1180.59 L 847.41 1177.93 L 849.43 1176.03 L 851.19 1173.58 L 853.37 1170.87 L 855.41 1169.24 L 856.80 1166.49 L 859.30 1164.59 L 860.96 1161.98 L 862.75 1160.08 L 864.70 1157.29 L 867.66 1154.79 L 868.91 1153.09 L 870.79 1150.63 L 872.95 1148.30 L 874.53 1146.13 L 876.42 1143.73 L 878.57 1141.56 L 879.99 1139.31 L 882.44 1137.08 L 884.56 1134.49 L 885.93 1132.70 L 888.07 1130.52 L 890.35 1127.96 L 892.22 1125.89 L 894.12 1123.45 L 896.43 1120.82 L 898.05 1118.88 L 900.05 1116.19 L 902.00 1114.37 L 903.89 1112.20 L 905.80 1109.50 L 907.79 1107.47 L 909.40 1105.38 L 912.06 1103.45 L 913.64 1100.83 L 915.55 1098.39 L 917.47 1095.84 L 919.74 1094.04 L 921.36 1091.12 L 924.05 1089.11 L 925.55 1086.69 L 927.59 1084.39 L 929.50 1082.39 L 931.33 1080.06 L 933.07 1078.40 L 935.14 1075.42 L 936.90 1073.21 L 939.10 1070.90 L 941.14 1068.62 L 943.08 1066.36 L 945.18 1064.03 L 946.86 1061.45 L 949.00 1059.38 L 951.14 1057.52 L 952.73 1054.51 L 954.70 1052.91 L 956.94 1050.77 L 958.51 1048.30 L 960.84 1046.14 L 962.61 1043.75 L 965.18 1041.03 L 966.53 1039.64 L 968.66 1037.18 L 970.33 1034.17 L 972.22 1032.18 L 974.15 1029.82 L 976.43 1027.50 L 978.23 1025.41 L 979.98 1023.34 L 982.23 1020.49 L 984.34 1018.54 L 986.03 1016.35 L 987.92 1014.18 L 990.15 1012.10 L 992.37 1009.40 L 993.82 1007.40 L 995.96 1004.77 L 997.65 1002.90 L 999.74 1000.29 L 1000.00 1000.00 L 1001.96 997.73 L 1003.91 995.45 L 1005.86 993.17 L 1007.81 990.89 L 1009.78 988.62 L 1011.74 986.36 L 1013.71 984.09 L 1015.66 981.81 L 1017.60 979.53 L 1019.53 977.23 L 1021.44 974.92 L 1023.36 972.61 L 1025.27 970.30 L 1027.17 967.98 L 1029.09 965.67 L 1030.99 963.35 L 1032.90 961.03 L 1034.81 958.72 L 1036.71 956.40 L 1038.61 954.08 L 1040.51 951.76 L 1042.42 949.44 L 1044.31 947.11 L 1046.19 944.77 L 1048.06 942.43 L 1049.94 940.09 L 1051.80 937.74 L 1053.69 935.41 L 1055.57 933.07 L 1057.44 930.73 L 1059.32 928.38 L 1061.18 926.03 L 1063.05 923.69 L 1064.93 921.35 L 1066.80 919.00 L 1068.67 916.66 L 1070.55 914.32 L 1072.43 911.98 L 1074.32 909.65 L 1076.21 907.32 L 1078.10 904.99 L 1080.01 902.67 L 1081.92 900.37 L 1083.85 898.07 L 1085.77 895.76 L 1087.69 893.46 L 1089.61 891.16 L 1091.53 888.85 L 1093.45 886.54 L 1095.36 884.23 L 1097.27 881.92 L 1099.18 879.60 L 1101.08 877.28 L 1102.98 874.96 L 1104.90 872.65 L 1106.82 870.34 L 1108.75 868.05 L 1110.68 865.76 L 1112.62 863.47 L 1114.55 861.17 L 1116.48 858.88 L 1118.40 856.57 L 1120.31 854.25 L 1122.22 851.94 L 1124.13 849.62 L 1126.02 847.30 L 1127.93 844.98 L 1129.81 842.64 L 1131.69 840.31 L 1133.58 837.98 L 1135.48 835.66 L 1137.37 833.33 L 1139.26 831.00 L 1141.14 828.66 L 1143.01 826.31 L 1144.88 823.97 L 1146.74 821.62 L 1148.61 819.27 L 1150.49 816.93 L 1152.38 814.60 L 1154.28 812.28 L 1156.19 809.96 L 1158.11 807.66 L 1160.04 805.36 L 1161.97 803.07 L 1163.90 800.77 L 1165.82 798.46 L 1167.74 796.16 L 1169.66 793.85 L 1171.55 791.53 L 1173.46 789.21 L 1175.38 786.90 L 1177.30 784.60 L 1179.22 782.29 L 1181.15 780.00 L 1183.08 777.70 L 1185.02 775.41 L 1186.96 773.12 L 1188.91 770.85 L 1190.86 768.57 L 1192.80 766.27 L 1194.73 763.98 L 1196.66 761.68 L 1198.60 759.39 L 1200.54 757.11 L 1202.49 754.83 L 1204.44 752.55 L 1206.39 750.27 L 1208.34 747.99 L 1210.31 745.72 L 1212.26 743.45 L 1214.22 741.18 L 1216.18 738.90 L 1218.14 736.63 L 1220.09 734.35 L 1222.04 732.07 L 1223.98 729.79 L 1225.93 727.50 L 1227.87 725.22 L 1229.83 722.94 L 1231.78 720.67 L 1233.74 718.39 L 1235.71 716.13 L 1237.70 713.88 L 1239.70 711.65 L 1241.70 709.42 L 1243.71 707.19 L 1245.72 704.96 L 1247.74 702.74 L 1249.75 700.51 L 1251.75 698.28 L 1253.74 696.04 L 1255.74 693.79 L 1257.73 691.55 L 1259.70 689.29 L 1261.67 687.03 L 1263.63 684.76 L 1265.59 682.49 L 1267.54 680.20 L 1269.49 677.93 L 1271.45 675.65 L 1273.41 673.38 L 1275.38 671.13 L 1277.37 668.87 L 1279.36 666.63 L 1281.36 664.40 L 1283.37 662.17 L 1285.38 659.94 L 1287.39 657.71 L 1289.38 655.47 L 1291.37 653.23 L 1293.36 650.98 L 1295.35 648.74 L 1297.35 646.50 L 1299.34 644.25 L 1301.32 642.00 L 1303.32 639.76 L 1305.30 637.51 L 1307.28 635.25 L 1309.26 633.00 L 1311.24 630.75 L 1313.22 628.50 L 1315.21 626.25 L 1317.17 623.98 L 1319.15 621.72 L 1321.13 619.47 L 1323.11 617.22 L 1325.09 614.96 L 1327.06 612.70 L 1329.02 610.43 L 1330.98 608.16 L 1332.95 605.90 L 1334.92 603.63 L 1336.89 601.37 L 1338.85 599.10 L 1340.80 596.82 L 1342.75 594.54 L 1344.70 592.26 L 1346.67 589.99 L 1348.63 587.73 L 1350.60 585.46 L 1352.56 583.19 L 1354.53 580.93 L 1356.49 578.66 L 1358.45 576.39 L 1360.40 574.11 L 1362.33 571.81 L 1364.25 569.51 L 1366.16 567.20 L 1368.09 564.90 L 1370.01 562.59 L 1371.93 560.29 L 1373.84 557.97 L 1375.74 555.65 L 1377.65 553.33 L 1379.55 551.02 L 1381.46 548.70 L 1383.38 546.40 L 1385.30 544.09 L 1387.22 541.78 L 1389.13 539.48 L 1391.07 537.18 L 1392.99 534.88 L 1394.92 532.58 L 1396.85 530.29 L 1398.79 528.00 L 1400.71 525.70 L 1402.64 523.40 L 1404.56 521.09 L 1406.48 518.79 L 1408.40 516.48 L 1410.33 514.19 L 1412.29 511.91 L 1414.24 509.64 L 1416.21 507.37 L 1418.17 505.10 L 1420.14 502.84 L 1422.12 500.59 L 1424.10 498.33 L 1426.06 496.06 L 1428.01 493.78 L 1429.96 491.50 L 1431.92 489.23 L 1433.88 486.96 L 1435.83 484.68 L 1437.78 482.40 L 1439.72 480.11 L 1441.66 477.82 L 1443.60 475.53 L 1445.54 473.24 L 1447.50 470.97 L 1449.45 468.69 L 1451.41 466.42 L 1453.38 464.16 L 1455.35 461.90 L 1457.33 459.64 L 1459.31 457.39 L 1461.28 455.13 L 1463.25 452.86 L 1465.22 450.60 L 1467.19 448.34 L 1469.13 446.05 L 1471.09 443.78 L 1473.06 441.52 L 1475.03 439.26 L 1477.00 436.99 L 1478.98 434.74 L 1480.96 432.48 L 1482.92 430.22 L 1484.89 427.95 L 1486.85 425.68 L 1488.81 423.41 L 1490.77 421.14 L 1492.73 418.87 L 1494.69 416.59 L 1496.64 414.32 L 1498.61 412.05 L 1500.57 409.78 L 1502.54 407.52 L 1504.51 405.25 L 1506.47 402.98 L 1508.44 400.72 L 1510.44 398.48 L 1512.43 396.24 L 1514.41 393.98 L 1516.39 391.73 L 1518.37 389.48 L 1520.35 387.23 L 1522.35 384.99 L 1524.34 382.74 L 1526.33 380.50 L 1528.33 378.26 L 1530.32 376.02 L 1532.32 373.78 L 1534.32 371.55 L 1536.34 369.33 L 1538.36 367.11 L 1540.36 364.87 L 1542.37 362.64 L 1544.36 360.40 L 1546.38 358.18 L 1548.40 355.96 L 1550.43 353.76 L 1552.46 351.55 L 1554.50 349.35 L 1556.54 347.15 L 1558.60 344.96 L 1560.64 342.77 L 1562.70 340.58 L 1564.76 338.41 L 1566.83 336.23 L 1568.91 334.07 L 1570.98 331.90 L 1573.05 329.73 L 1575.15 327.58 L 1577.22 325.42 L 1579.29 323.24 L 1581.35 321.06 L 1583.39 318.86 L 1585.40 316.64 L 1587.42 314.41 L 1589.42 312.18 L 1591.44 309.96 L 1593.45 307.74 L 1595.47 305.52 L 1597.48 303.29 L 1599.50 301.08 L 1601.53 298.86 L 1603.55 296.65 L 1605.57 294.42 L 1607.55 292.18 L 1609.54 289.93 L 1611.51 287.67 L 1613.50 285.42 L 1615.50 283.19 L 1617.50 280.95 L 1619.49 278.71 L 1621.49 276.47 L 1623.49 274.24 L 1625.49 271.99 L 1627.49 269.76 L 1629.50 267.53 L 1631.49 265.29 L 1633.50 263.06 L 1635.49 260.82 L 1637.48 258.57 L 1639.48 256.33 L 1641.47 254.09 L 1643.46 251.85 L 1645.47 249.61 L 1647.47 247.38 L 1649.47 245.14 L 1651.49 242.93 L 1653.51 240.71 L 1655.54 238.50 L 1657.56 236.29 L 1659.57 234.06 L 1661.59 231.84 L 1663.58 229.59 L 1665.58 227.36 L 1667.58 225.12 L 1669.57 222.88 L 1671.55 220.62 L 1673.53 218.37 L 1675.50 216.11 L 1677.48 213.85 L 1679.48 211.62 L 1681.48 209.38 L 1683.47 207.13 L 1685.46 204.89 L 1687.46 202.65 L 1689.46 200.42 L 1691.45 198.17 L 1693.43 195.92 L 1695.41 193.67 L 1697.38 191.41 L 1699.34 189.13 L 1701.29 186.85 L 1703.24 184.57 L 1705.19 182.30 L 1707.14 180.01 L 1709.08 177.72 L 1711.01 175.42 L 1712.94 173.13 L 1714.87 170.84 L 1716.80 168.54 L 1718.74 166.25 L 1720.67 163.96 L 1722.62 161.67 L 1724.57 159.39 L 1726.50 157.10 L 1728.45 154.82 L 1730.39 152.53 L 1732.32 150.23 L 1734.24 147.93 L 1736.18 145.64 L 1738.13 143.36 L 1740.08 141.08 L 1742.02 138.79 L 1743.96 136.50 L 1745.90 134.21 L 1747.85 131.94 L 1749.80 129.65 L 1751.74 127.36 L 1753.67 125.07 L 1755.62 122.78 L 1757.56 120.50 L 1759.50 118.21 L 1761.46 115.94 L 1763.42 113.67 L 1765.40 111.41 L 1767.38 109.16 L 1769.36 106.91 L 1771.34 104.65 L 1773.31 102.39 L 1775.28 100.13 L 1777.25 97.86 L 1779.22 95.60 L 1781.21 93.35 L 1783.19 91.11 L 1785.18 88.86 L 1787.17 86.62 L 1789.17 84.38 L 1791.17 82.14 L 1793.18 79.92 L 1795.19 77.69 L 1797.18 75.44 L 1799.17 73.20 L 1801.15 70.95 L 1803.13 68.69 L 1805.11 66.43 L 1807.07 64.17 L 1809.03 61.90 L 1810.97 59.61 L 1812.91 57.32 L 1814.86 55.03 L 1816.78 52.73 L 1818.71 50.43 L 1820.64 48.14 L 1822.59 45.86 L 1824.56 43.60 L 1826.54 41.35 L 1828.52 39.09 L 1830.51 36.84 L 1832.51 34.61 L 1834.51 32.37 L 1836.52 30.15 L 1838.55 27.94 L 1840.57 25.72 L 1842.59 23.50 L 1844.62 21.29 L 1846.65 19.08 L 1848.67 16.87 L 1850.70 14.65 L 1852.73 12.45 L 1854.77 10.24 L 1856.81 8.04 L 1858.84 5.84 L 1860.89 3.65 L 1862.93 1.45 L 1864.95 -0.77 L 1866.97 -2.98 L 1868.99 -5.20 L 1871.00 -7.43 L 1873.01 -9.66 L 1874.99 -11.91 L 1876.98 -14.16 L 1878.97 -16.41 L 1880.94 -18.67 L 1882.90 -20.94" stroke="rgb(245,245,245)" stroke-opacity="0.698" stroke-width="1.09" />
  <path d="M 1004.61 1003.40 L 1003.57 1002.32 L 1002.46 1001.32 L 1001.35 1000.33 L 1000.19 999.42 L 998.96 998.60 L 997.74 997.77" stroke="rgb(230,230,230)" stroke-opacity="0.377" stroke-width="0.69" />
  <path d="M 1003.37 1004.97 L 1003.07 1003.50 L 1002.75 1002.04 L 1002.22 1000.65 L 1001.51 999.35 L 1000.69 998.13" stroke="rgb(230,230,230)" stroke-opacity="0.376" stroke-width="0.68" />
  <path d="M 1004.30 995.14 L 1003.58 996.46 L 1002.98 997.83 L 1002.59 999.26 L 1002.05 1000.65 L 1001.62 1002.05" stroke="rgb(230,230,230)" stroke-opacity="0.376" stroke-width="0.68" />
  <path d="M 999.29 997.54 L 1000.65 998.18 L 1002.05 998.69 L 1003.48 999.09 L 1004.88 999.59 L 1006.25 1000.13 L 1007.64 1000.62" stroke="rgb(230,230,230)" stroke-opacity="0.375" stroke-width="0.68" />
  <path d="M 1002.55 996.95 L 1001.46 997.98 L 1000.23 998.82 L 999.10 999.79 L 998.08 1000.87 L 997.01 1001.88 L 995.93 1002.88" stroke="rgb(230,230,230)" stroke-opacity="0.372" stroke-width="0.67" />
  <path d="M 1003.77 1004.92 L 1003.78 1006.42 L 1003.64 1007.91 L 1003.62 1009.40 L 1003.54 1010.88 L 1003.50 1012.35 L 1003.55 1013.82 L 1004.00 1015.22 L 1003.87 1016.67" stroke="rgb(230,230,230)" stroke-opacity="0.371" stroke-width="0.67" />
  <path d="M 1005.48 1001.81 L 1004.43 1002.88 L 1003.42 1003.98 L 1002.39 1005.05 L 1001.32 1006.08 L 1000.28 1007.13 L 999.12 1008.03 L 997.97 1008.94 L 996.79 1009.80 L 995.60 1010.62 L 994.46 1011.51 L 993.32 1012.40" stroke="rgb(230,230,230)" stroke-opacity="0.371" stroke-width="0.67" />
  <path d="M 1001.88 998.28 L 1003.38 998.33 L 1004.86 998.49 L 1006.34 998.63 L 1007.82 998.75 L 1009.29 998.71 L 1010.76 998.74 L 1012.22 998.88" stroke="rgb(230,230,230)" stroke-opacity="0.371" stroke-width="0.67" />
  <path d="M 991.57 995.66 L 990.12 996.04 L 988.68 996.42 L 987.24 996.81 L 985.83 997.27" stroke="rgb(230,230,230)" stroke-opacity="0.368" stroke-width="0.66" />
  <path d="M 997.04 1000.57 L 997.43 999.12 L 997.86 997.69 L 998.24 996.25 L 998.67 994.83 L 999.11 993.42 L 999.28 991.96 L 999.37 990.50 L 999.44 989.04 L 999.53 987.59 L 999.71 986.16 L 999.86 984.73" stroke="rgb(230,230,230)" stroke-opacity="0.367" stroke-width="0.66" />
  <path d="M 1002.41 998.94 L 1003.43 997.84 L 1004.63 996.96 L 1005.82 996.07 L 1007.00 995.17 L 1008.17 994.27 L 1009.37 993.42 L 1010.66 992.71 L 1011.92 991.99 L 1013.06 991.08 L 1014.13 990.12 L 1015.20 989.15 L 1016.37 988.32" stroke="rgb(230,230,230)" stroke-opacity="0.366" stroke-width="0.66" />
  <path d="M 1004.33 1005.31 L 1004.66 1003.84 L 1004.84 1002.36 L 1005.10 1000.90 L 1005.49 999.46 L 1005.92 998.05 L 1006.43 996.67 L 1006.99 995.32 L 1007.53 993.97 L 1008.05 992.61 L 1008.61 991.28 L 1009.10 989.92 L 1009.56 988.56" stroke="rgb(230,230,230)" stroke-opacity="0.362" stroke-width="0.64" />
  <path d="M 1001.47 1001.18 L 1002.78 1000.45 L 1004.13 999.81 L 1005.38 998.99 L 1006.76 998.45 L 1008.14 997.94 L 1009.51 997.41 L 1010.86 996.83" stroke="rgb(230,230,230)" stroke-opacity="0.360" stroke-width="0.64" />
  <path d="M 993.57 1004.61 L 992.62 1003.46 L 991.54 1002.42 L 990.37 1001.50 L 989.25 1000.53 L 988.23 999.46 L 987.09 998.53 L 986.03 997.52 L 984.94 996.56 L 983.86 995.58" stroke="rgb(230,230,230)" stroke-opacity="0.359" stroke-width="0.64" />
  <path d="M 1002.48 998.67 L 1002.81 997.21 L 1003.31 995.80 L 1003.92 994.44 L 1004.54 993.10 L 1005.16 991.76 L 1005.59 990.35 L 1005.94 988.93 L 1006.15 987.49" stroke="rgb(230,230,230)" stroke-opacity="0.358" stroke-width="0.63" />
  <path d="M 993.67 1002.90 L 992.30 1003.52 L 990.97 1004.20 L 989.63 1004.85 L 988.30 1005.50 L 986.98 1006.16" stroke="rgb(230,230,230)" stroke-opacity="0.353" stroke-width="0.62" />
  <path d="M 997.35 998.01 L 996.51 996.76 L 995.70 995.51 L 995.11 994.14 L 994.58 992.76 L 993.88 991.46 L 993.15 990.18 L 992.41 988.91 L 991.38 987.89" stroke="rgb(230,230,230)" stroke-opacity="0.350" stroke-width="0.61" />
  <path d="M 995.37 998.15 L 994.09 998.93 L 992.83 999.74 L 991.57 1000.53 L 990.35 1001.37 L 989.14 1002.22 L 988.01 1003.16 L 986.91 1004.12 L 985.85 1005.12 L 984.80 1006.13 L 983.75 1007.12 L 982.68 1008.09 L 981.70 1009.13" stroke="rgb(230,230,230)" stroke-opacity="0.350" stroke-width="0.61" />
</g>
</svg>
