{
  "asset": {
    "version": "2.0",
    "generator": "TES-23 Cosmic Ray Renderer"
  },
  "extensionsUsed": [
    "KHR_materials_unlit"
  ],
  "extensionsRequired": [
    "KHR_materials_unlit"
  ],
  "scene": 0,
  "scenes": [
    {
      "nodes": [
        0
      ]
    }
  ],
  "nodes": [
    {
      "name": "CosmicRayEvent",
      "mesh": 0
    }
  ],
  "meshes": [
    {
      "name": "CosmicRayEvent",
      "primitives": [
        {
          "attributes": {
            "POSITION": 0
          },
          "material": 0,
          "mode": 1
        },
        {
          "attributes": {
            "POSITION": 1
          },
          "material": 1,
          "mode": 1
        },
        {
          "attributes": {
            "POSITION": 2
          },
          "material": 2,
          "mode": 1
        },
        {
          "attributes": {
            "POSITION": 3
          },
          "material": 3,
          "mode": 1
        },
        {
          "attributes": {
            "POSITION": 4
          },
          "material": 4,
          "mode": 1
        }
      ]
    }
  ],
  "materials": [
    {
      "name": "primary",
      "extensions": {
        "KHR_materials_unlit": {}
      },
      "pbrMetallicRoughness": {
        "baseColorFactor": [
          0.961,
          0.961,
          0.961,
          1
        ],
        "metallicFactor": 0,
        "roughnessFactor": 1
      }
    },
    {
      "name": "vertex",
      "extensions": {
        "KHR_materials_unlit": {}
      },
      "pbrMetallicRoughness": {
        "baseColorFactor": [
          0.902,
          0.902,
          0.902,
          0.9
        ],
        "metallicFactor": 0,
        "roughnessFactor": 1
      }
    },
    {
      "name": "em",
      "extensions": {
        "KHR_materials_unlit": {}
      },
      "pbrMetallicRoughness": {
        "baseColorFactor": [
          0.471,
          0.824,
          1,
          1
        ],
        "metallicFactor": 0,
        "roughnessFactor": 1
      }
    },
    {
      "name": "hadron",
      "extensions": {
        "KHR_materials_unlit": {}
      },
      "pbrMetallicRoughness": {
        "baseColorFactor": [
          0.549,
          1,
          0.745,
          1
        ],
        "metallicFactor": 0,
        "roughnessFactor": 1
      }
    },
    {
      "name": "delta",
      "extensions": {
        "KHR_materials_unlit": {}
      },
      "pbrMetallicRoughness": {
        "baseColorFactor": [
          0.804,
          0.647,
          1,
          1
        ],
        "metallicFactor": 0,
        "roughnessFactor": 1
      }
    }
  ],
  "accessors": [
    {
      "bufferView": 0,
      "byteOffset": 0,
      "componentType": 5126,
      "count": 1452,
      "type": "VEC3",
      "min": [
        -1.0001076459884644,
        -0.4067062437534332,
        0
      ],
      "max": [
        1.0211384296417236,
        0.4022935926914215,
        0
      ]
    },
    {
      "bufferView": 1,
      "byteOffset": 0,
      "componentType": 5126,
      "count": 346,
      "type": "VEC3",
      "min": [
        -0.012917473912239075,
        -0.018657036125659943,
        -0.0917566791176796
      ],
      "max": [
        0.01676059514284134,
        0.017479460686445236,
        0.08247669041156769
      ]
    },
    {
      "bufferView": 2,
      "byteOffset": 0,
      "componentType": 5126,
      "count": 382,
      "type": "VEC3",
      "min": [
        -0.0020081419497728348,
        -0.0023306834045797586,
        -0.026056883856654167
      ],
      "max": [
        0.1606978476047516,
        0.06073082238435745,
        0.05352706462144852
      ]
    },
    {
      "bufferView": 3,
      "byteOffset": 0,
      "componentType": 5126,
      "count": 2556,
      "type": "VEC3",
      "min": [
        -0.005516213830560446,
        -0.01243946049362421,
        -0.10648482292890549
      ],
      "max": [
        0.3096047639846802,
        0.14898423850536346,
        0.3780665099620819
      ]
    },
    {
      "bufferView": 4,
      "byteOffset": 0,
      "componentType": 5126,
      "count": 640,
      "type": "VEC3",
      "min": [
        -0.028950218111276627,
        -0.07013601809740067,
        -0.2253022938966751
      ],
      "max": [
        0.18965983390808105,
        0.14466571807861328,
        0.585091233253479
      ]
    }
  ],
  "bufferViews": [
    {
      "buffer": 0,
      "byteOffset": 0,
      "byteLength": 17424,
      "target": 34962
    },
    {
      "buffer": 0,
      "byteOffset": 17424,
      "byteLength": 4152,
      "target": 34962
    },
    {
      "buffer": 0,
      "byteOffset": 21576,
      "byteLength": 4584,
      "target": 34962
    },
    {
      "buffer": 0,
      "byteOffset": 26160,
      "byteLength": 30672,
      "target": 34962
    },
    {
      "buffer": 0,
      "byteOffset": 56832,
      "byteLength": 7680,
      "target": 34962
    }
  ],
  "buffers": [
    {
      "byteLength": 64512,
      "uri": "data:application/octet-stream;base64,"
    }
  ]
}