{
  "asset": {
    "version": "2.0",
    "generator": "TES-23 Cosmic Ray Renderer"
  },
  "extensionsUsed": [
    "KHR_materials_unlit"
  ],
  "extensionsRequired": [
    "KHR_materials_unlit"
  ],
  "scene": 0,
  "scenes": [
    {
      "nodes": [
        0
      ]
    }
  ],
  "nodes": [
    {
      "name": "CosmicRayEvent",
      "mesh": 0
    }
  ],
  "meshes": [
    {
      "name": "CosmicRayEvent",
      "primitives": [
        {
          "attributes": {
            "POSITION": 0
          },
          "material": 0,
          "mode": 1
        },
        {
          "attributes": {
            "POSITION": 1
          },
          "material": 1,
          "mode": 1
        },
        {
          "attributes": {
            "POSITION": 2
          },
          "material": 2,
          "mode": 1
        },
        {
          "attributes": {
            "POSITION": 3
          },
          "material": 3,
          "mode": 1
        },
        {
          "attributes": {
            "POSITION": 4
          },
          "material": 4,
          "mode": 1
        }
      ]
    }
  ],
  "materials": [
    {
      "name": "primary",
      "extensions": {
        "KHR_materials_unlit": {}
      },
      "pbrMetallicRoughness": {
        "baseColorFactor": [
          0.961,
          0.961,
          0.961,
          1
        ],
        "metallicFactor": 0,
        "roughnessFactor": 1
      }
    },
    {
      "name": "vertex",
      "extensions": {
        "KHR_materials_unlit": {}
      },
      "pbrMetallicRoughness": {
        "baseColorFactor": [
          0.902,
          0.902,
          0.902,
          0.9
        ],
        "metallicFactor": 0,
        "roughnessFactor": 1
      }
    },
    {
      "name": "em",
      "extensions": {
        "KHR_materials_unlit": {}
      },
      "pbrMetallicRoughness": {
        "baseColorFactor": [
          0.471,
          0.824,
          1,
          1
        ],
        "metallicFactor": 0,
        "roughnessFactor": 1
      }
    },
    {
      "name": "hadron",
      "extensions": {
        "KHR_materials_unlit": {}
      },
      "pbrMetallicRoughness": {
        "baseColorFactor": [
          0.549,
          1,
          0.745,
          1
        ],
        "metallicFactor": 0,
        "roughnessFactor": 1
      }
    },
    {
      "name": "delta",
      "extensions": {
        "KHR_materials_unlit": {}
      },
      "pbrMetallicRoughness": {
        "baseColorFactor": [
          0.804,
          0.647,
          1,
          1
        ],
        "metallicFactor": 0,
        "roughnessFactor": 1
      }
    }
  ],
  "accessors": [
    {
      "bufferView": 0,
      "byteOffset": 0,
      "componentType": 5126,
      "count": 1350,
      "type": "VEC3",
      "min": [
        -1.0223388671875,
        -0.03637610375881195,
        0
      ],
      "max": [
        0.9994681477546692,
        0.032264046370983124,
        0
      ]
    },
    {
      "bufferView": 1,
      "byteOffset": 0,
      "componentType": 5126,
      "count": 274,
      "type": "VEC3",
      "min": [
        -0.014450494199991226,
        -0.01123830582946539,
        -0.055542316287755966
      ],
      "max": [
        0.015169034712016582,
        0.010697864927351475,
        0.07335364073514938
      ]
    },
    {
      "bufferView": 2,
      "byteOffset": 0,
      "componentType": 5126,
      "count": 858,
      "type": "VEC3",
      "min": [
        -0.20949886739253998,
        -0.004818348214030266,
        -0.13414864242076874
      ],
      "max": [
        0.003032218897715211,
        0.031552333384752274,
        0.09262577444314957
      ]
    },
    {
      "bufferView": 3,
      "byteOffset": 0,
      "componentType": 5126,
      "count": 2606,
      "type": "VEC3",
      "min": [
        -0.32162484526634216,
        -0.042697008699178696,
        -0.3307119607925415
      ],
      "max": [
        0.004200692288577557,
        0.11817029863595963,
        0.15360382199287415
      ]
    },
    {
      "bufferView": 4,
      "byteOffset": 0,
      "componentType": 5126,
      "count": 1114,
      "type": "VEC3",
      "min": [
        -0.2782036066055298,
        -0.10546784102916718,
        -0.26545166969299316
      ],
      "max": [
        0.09983120858669281,
        0.061297036707401276,
        0.4215554893016815
      ]
    }
  ],
  "bufferViews": [
    {
      "buffer": 0,
      "byteOffset": 0,
      "byteLength": 16200,
      "target": 34962
    },
    {
      "buffer": 0,
      "byteOffset": 16200,
      "byteLength": 3288,
      "target": 34962
    },
    {
      "buffer": 0,
      "byteOffset": 19488,
      "byteLength": 10296,
      "target": 34962
    },
    {
      "buffer": 0,
      "byteOffset": 29784,
      "byteLength": 31272,
      "target": 34962
    },
    {
      "buffer": 0,
      "byteOffset": 61056,
      "byteLength": 13368,
      "target": 34962
    }
  ],
  "buffers": [
    {
      "byteLength": 74424,
      "uri": "data:application/octet-stream;base64,"
    }
  ]
}