{
  "asset": {
    "version": "2.0",
    "generator": "TES-23 Cosmic Ray Renderer"
  },
  "extensionsUsed": [
    "KHR_materials_unlit"
  ],
  "extensionsRequired": [
    "KHR_materials_unlit"
  ],
  "scene": 0,
  "scenes": [
    {
      "nodes": [
        0
      ]
    }
  ],
  "nodes": [
    {
      "name": "CosmicRayEvent",
      "mesh": 0
    }
  ],
  "meshes": [
    {
      "name": "CosmicRayEvent",
      "primitives": [
        {
          "attributes": {
            "POSITION": 0
          },
          "material": 0,
          "mode": 1
        },
        {
          "attributes": {
            "POSITION": 1
          },
          "material": 1,
          "mode": 1
        },
        {
          "attributes": {
            "POSITION": 2
          },
          "material": 2,
          "mode": 1
        },
        {
          "attributes": {
            "POSITION": 3
          },
          "material": 3,
          "mode": 1
        },
        {
          "attributes": {
            "POSITION": 4
          },
          "material": 4,
          "mode": 1
        }
      ]
    }
  ],
  "materials": [
    {
      "name": "primary",
      "extensions": {
        "KHR_materials_unlit": {}
      },
      "pbrMetallicRoughness": {
        "baseColorFactor": [
          0.961,
          0.961,
          0.961,
          1
        ],
        "metallicFactor": 0,
        "roughnessFactor": 1
      }
    },
    {
      "name": "vertex",
      "extensions": {
        "KHR_materials_unlit": {}
      },
      "pbrMetallicRoughness": {
        "baseColorFactor": [
          0.902,
          0.902,
          0.902,
          0.9
        ],
        "metallicFactor": 0,
        "roughnessFactor": 1
      }
    },
    {
      "name": "em",
      "extensions": {
        "KHR_materials_unlit": {}
      },
      "pbrMetallicRoughness": {
        "baseColorFactor": [
          0.471,
          0.824,
          1,
          1
        ],
        "metallicFactor": 0,
        "roughnessFactor": 1
      }
    },
    {
      "name": "hadron",
      "extensions": {
        "KHR_materials_unlit": {}
      },
      "pbrMetallicRoughness": {
        "baseColorFactor": [
          0.549,
          1,
          0.745,
          1
        ],
        "metallicFactor": 0,
        "roughnessFactor": 1
      }
    },
    {
      "name": "delta",
      "extensions": {
        "KHR_materials_unlit": {}
      },
      "pbrMetallicRoughness": {
        "baseColorFactor": [
          0.804,
          0.647,
          1,
          1
        ],
        "metallicFactor": 0,
        "roughnessFactor": 1
      }
    }
  ],
  "accessors": [
    {
      "bufferView": 0,
      "byteOffset": 0,
      "componentType": 5126,
      "count": 1786,
      "type": "VEC3",
      "min": [
        -0.999959409236908,
        -0.8763126730918884,
        0
      ],
      "max": [
        1.0221443176269531,
        0.8769733905792236,
        0
      ]
    },
    {
      "bufferView": 1,
      "byteOffset": 0,
      "componentType": 5126,
      "count": 314,
      "type": "VEC3",
      "min": [
        -0.020452532917261124,
        -0.01805894635617733,
        -0.05819885432720184
      ],
      "max": [
        0.016095148399472237,
        0.01689840480685234,
        0.04809068888425827
      ]
    },
    {
      "bufferView": 2,
      "byteOffset": 0,
      "componentType": 5126,
      "count": 968,
      "type": "VEC3",
      "min": [
        -0.0017839494394138455,
        -0.001991566037759185,
        -0.22045506536960602
      ],
      "max": [
        0.1986178755760193,
        0.18242044746875763,
        0.1375286728143692
      ]
    },
    {
      "bufferView": 3,
      "byteOffset": 0,
      "componentType": 5126,
      "count": 2272,
      "type": "VEC3",
      "min": [
        -0.0027784041594713926,
        -0.0029820259660482407,
        -0.71616131067276
      ],
      "max": [
        0.20778700709342957,
        0.34685060381889343,
        0.7473741769790649
      ]
    },
    {
      "bufferView": 4,
      "byteOffset": 0,
      "componentType": 5126,
      "count": 528,
      "type": "VEC3",
      "min": [
        -0.03203505277633667,
        -0.14979195594787598,
        -0.5508636236190796
      ],
      "max": [
        0.11974480003118515,
        0.04270070418715477,
        0.45133867859840393
      ]
    }
  ],
  "bufferViews": [
    {
      "buffer": 0,
      "byteOffset": 0,
      "byteLength": 21432,
      "target": 34962
    },
    {
      "buffer": 0,
      "byteOffset": 21432,
      "byteLength": 3768,
      "target": 34962
    },
    {
      "buffer": 0,
      "byteOffset": 25200,
      "byteLength": 11616,
      "target": 34962
    },
    {
      "buffer": 0,
      "byteOffset": 36816,
      "byteLength": 27264,
      "target": 34962
    },
    {
      "buffer": 0,
      "byteOffset": 64080,
      "byteLength": 6336,
      "target": 34962
    }
  ],
  "buffers": [
    {
      "byteLength": 70416,
      "uri": "data:application/octet-stream;base64,"
    }
  ]
}