<?xml version="1.0" encoding="UTF-8"?>
<svg xmlns="http://www.w3.org/2000/svg" width="2000" height="2000" viewBox="0 0 2000 2000">
<g fill="none" stroke-linecap="round" stroke-linejoin="round">
  <path d="M 1999.92 1651.37 L 1997.70 1649.34 L 1995.27 1647.97 L 1992.60 1646.64 L 1990.05 1645.02 L 1987.59 1642.79 L 1985.08 1641.81 L 1982.44 1640.42 L 1979.57 1638.44 L 1977.59 1636.65 L 1975.07 1635.01 L 1972.35 1633.32 L 1969.43 1631.88 L 1967.31 1630.45 L 1964.81 1628.80 L 1962.40 1627.19 L 1959.92 1625.38 L 1956.99 1623.77 L 1954.85 1621.64 L 1952.36 1620.58 L 1950.00 1618.35 L 1947.26 1617.24 L 1944.85 1615.67 L 1942.24 1613.74 L 1939.39 1612.64 L 1937.10 1610.79 L 1934.58 1608.66 L 1932.19 1607.10 L 1929.58 1605.41 L 1927.31 1604.21 L 1924.37 1602.10 L 1922.24 1600.41 L 1919.87 1598.83 L 1917.28 1597.29 L 1914.37 1595.61 L 1912.02 1594.41 L 1909.38 1592.34 L 1907.10 1590.75 L 1904.50 1589.05 L 1901.66 1587.42 L 1899.54 1585.98 L 1896.72 1584.06 L 1894.32 1582.49 L 1891.71 1581.08 L 1889.42 1579.45 L 1886.60 1577.83 L 1884.23 1576.19 L 1881.91 1574.42 L 1879.63 1572.88 L 1876.63 1571.14 L 1874.10 1569.84 L 1871.80 1567.83 L 1869.64 1566.13 L 1866.60 1564.35 L 1864.44 1563.19 L 1861.84 1561.48 L 1859.38 1559.76 L 1856.80 1558.14 L 1853.99 1556.37 L 1851.86 1554.91 L 1849.24 1552.94 L 1846.72 1551.14 L 1844.33 1549.81 L 1841.74 1548.45 L 1839.35 1546.67 L 1836.62 1544.76 L 1833.86 1543.72 L 1831.40 1541.73 L 1829.07 1539.80 L 1826.26 1537.81 L 1824.55 1536.47 L 1821.44 1535.14 L 1819.39 1533.64 L 1816.58 1531.96 L 1813.98 1530.52 L 1811.28 1528.47 L 1808.86 1526.46 L 1806.21 1525.44 L 1804.19 1523.86 L 1801.32 1522.53 L 1799.04 1520.57 L 1796.18 1518.62 L 1793.96 1517.21 L 1790.98 1515.53 L 1788.66 1513.99 L 1786.48 1512.27 L 1783.90 1510.70 L 1781.18 1509.38 L 1778.38 1507.10 L 1776.29 1505.89 L 1773.79 1503.79 L 1771.12 1502.91 L 1768.63 1500.52 L 1766.15 1499.07 L 1763.59 1497.29 L 1761.39 1496.03 L 1758.83 1494.36 L 1756.30 1492.51 L 1753.60 1490.86 L 1751.03 1489.39 L 1748.81 1487.45 L 1746.47 1485.91 L 1743.91 1483.74 L 1741.22 1482.45 L 1738.51 1481.25 L 1736.04 1479.34 L 1733.41 1477.78 L 1731.15 1476.04 L 1728.86 1474.48 L 1726.03 1472.79 L 1723.43 1471.37 L 1720.98 1469.61 L 1718.47 1467.78 L 1715.97 1466.55 L 1713.25 1464.63 L 1710.80 1462.78 L 1708.30 1461.52 L 1705.58 1459.83 L 1703.37 1457.77 L 1701.01 1456.41 L 1698.27 1454.48 L 1695.67 1453.33 L 1693.60 1451.70 L 1690.97 1449.97 L 1688.41 1448.75 L 1685.64 1446.61 L 1683.31 1444.93 L 1680.78 1443.42 L 1678.16 1441.75 L 1675.74 1440.06 L 1673.51 1438.69 L 1670.49 1436.91 L 1667.80 1435.29 L 1665.76 1433.59 L 1663.45 1432.08 L 1660.60 1430.26 L 1658.32 1428.94 L 1655.66 1427.22 L 1653.11 1425.60 L 1650.83 1423.62 L 1648.22 1422.42 L 1645.39 1420.58 L 1642.82 1419.31 L 1640.92 1417.24 L 1638.03 1415.49 L 1635.81 1413.96 L 1632.86 1412.41 L 1629.79 1410.83 L 1628.07 1409.07 L 1625.31 1407.17 L 1623.06 1406.05 L 1620.42 1404.03 L 1618.17 1402.53 L 1615.67 1400.80 L 1612.97 1399.54 L 1610.59 1397.63 L 1607.97 1395.87 L 1605.30 1394.51 L 1602.89 1392.48 L 1600.35 1391.36 L 1597.93 1389.51 L 1594.95 1388.25 L 1592.63 1386.14 L 1590.02 1384.70 L 1587.39 1382.81 L 1585.31 1381.10 L 1582.76 1379.35 L 1580.01 1377.80 L 1577.62 1376.26 L 1574.88 1374.39 L 1572.94 1372.95 L 1569.94 1371.58 L 1567.45 1369.62 L 1565.00 1367.99 L 1562.63 1366.49 L 1559.77 1364.73 L 1557.36 1363.11 L 1554.93 1361.76 L 1552.06 1359.77 L 1550.22 1358.51 L 1547.66 1356.70 L 1544.71 1354.99 L 1542.35 1352.89 L 1539.81 1352.15 L 1537.29 1349.93 L 1535.08 1348.44 L 1532.37 1347.00 L 1529.95 1345.42 L 1527.55 1343.71 L 1524.87 1341.94 L 1522.35 1340.08 L 1519.78 1338.59 L 1517.52 1337.13 L 1515.02 1335.14 L 1511.77 1333.53 L 1509.74 1332.33 L 1506.93 1330.16 L 1505.09 1329.17 L 1502.46 1327.19 L 1500.02 1325.45 L 1496.94 1323.54 L 1494.65 1322.17 L 1492.20 1320.44 L 1489.60 1318.85 L 1487.11 1317.64 L 1484.85 1315.30 L 1482.27 1314.13 L 1479.54 1312.30 L 1477.44 1310.57 L 1474.82 1309.05 L 1472.10 1307.49 L 1469.85 1305.82 L 1467.39 1303.94 L 1464.73 1302.21 L 1461.99 1301.13 L 1459.54 1299.69 L 1456.77 1297.53 L 1454.79 1295.96 L 1452.01 1294.25 L 1449.19 1293.13 L 1446.80 1291.15 L 1444.34 1289.61 L 1441.99 1287.84 L 1439.16 1286.29 L 1436.63 1284.54 L 1434.64 1283.06 L 1431.86 1281.35 L 1429.29 1279.36 L 1426.52 1278.26 L 1424.06 1276.67 L 1421.52 1274.65 L 1419.12 1273.53 L 1416.66 1271.87 L 1414.42 1269.71 L 1411.43 1268.00 L 1409.19 1266.27 L 1406.97 1265.01 L 1404.56 1263.27 L 1401.67 1261.59 L 1399.65 1260.29 L 1396.84 1258.11 L 1394.30 1256.78 L 1391.88 1255.23 L 1389.27 1253.15 L 1386.60 1251.75 L 1383.99 1250.22 L 1381.70 1248.51 L 1379.51 1246.98 L 1376.66 1245.21 L 1373.68 1243.71 L 1371.50 1242.11 L 1368.96 1240.37 L 1366.94 1238.54 L 1363.96 1237.68 L 1361.34 1235.43 L 1358.66 1233.84 L 1356.90 1231.64 L 1354.23 1230.27 L 1351.31 1228.79 L 1348.93 1227.10 L 1347.01 1225.72 L 1343.83 1224.13 L 1341.57 1222.50 L 1338.80 1220.91 L 1336.54 1218.87 L 1333.70 1217.59 L 1331.42 1215.51 L 1328.83 1214.49 L 1326.11 1212.70 L 1323.87 1211.17 L 1321.85 1209.40 L 1318.94 1207.73 L 1316.40 1206.52 L 1314.18 1204.35 L 1311.63 1202.76 L 1308.74 1201.22 L 1306.09 1199.26 L 1303.54 1197.81 L 1301.18 1196.35 L 1298.38 1194.64 L 1296.42 1193.26 L 1293.53 1191.28 L 1291.21 1189.81 L 1288.31 1187.99 L 1286.17 1186.72 L 1283.66 1184.22 L 1281.27 1183.04 L 1278.78 1181.17 L 1276.14 1179.82 L 1273.52 1178.11 L 1271.14 1176.86 L 1268.68 1175.05 L 1265.74 1172.89 L 1263.65 1171.75 L 1260.90 1169.89 L 1258.63 1168.27 L 1255.78 1166.86 L 1253.71 1165.10 L 1250.71 1163.57 L 1248.47 1161.85 L 1245.96 1160.37 L 1243.14 1158.50 L 1240.63 1157.13 L 1238.25 1155.23 L 1235.94 1153.42 L 1233.62 1151.58 L 1230.91 1150.37 L 1228.16 1148.31 L 1226.13 1147.37 L 1223.43 1145.32 L 1220.92 1143.55 L 1218.08 1141.96 L 1215.24 1140.70 L 1213.39 1138.85 L 1210.55 1137.37 L 1207.92 1135.62 L 1206.14 1133.95 L 1203.16 1132.34 L 1200.86 1130.67 L 1198.36 1129.00 L 1195.49 1127.43 L 1192.99 1125.98 L 1190.60 1124.26 L 1188.44 1122.04 L 1185.24 1120.54 L 1182.70 1119.23 L 1180.64 1117.49 L 1178.20 1116.12 L 1175.81 1114.18 L 1172.72 1112.62 L 1170.12 1111.22 L 1168.09 1109.33 L 1165.14 1107.44 L 1162.43 1106.37 L 1160.48 1104.48 L 1158.18 1102.95 L 1155.11 1101.24 L 1153.01 1099.39 L 1150.38 1097.79 L 1148.12 1095.99 L 1145.11 1094.64 L 1142.90 1093.18 L 1140.05 1091.53 L 1137.95 1090.08 L 1135.18 1087.66 L 1132.71 1086.64 L 1130.54 1084.73 L 1127.07 1083.09 L 1125.26 1081.58 L 1122.55 1079.87 L 1120.47 1078.29 L 1117.63 1076.36 L 1114.71 1075.07 L 1112.74 1073.14 L 1110.04 1071.64 L 1107.74 1070.30 L 1105.12 1068.03 L 1102.49 1066.82 L 1100.20 1065.21 L 1097.64 1063.29 L 1095.12 1061.63 L 1092.16 1059.83 L 1089.96 1058.87 L 1087.71 1057.17 L 1085.40 1055.39 L 1082.34 1053.83 L 1080.03 1051.79 L 1077.58 1050.64 L 1075.17 1048.64 L 1072.44 1047.10 L 1069.79 1045.93 L 1067.48 1043.66 L 1064.84 1042.32 L 1062.57 1040.55 L 1059.81 1038.67 L 1057.35 1037.29 L 1054.43 1036.01 L 1052.53 1034.51 L 1049.51 1032.06 L 1047.53 1030.68 L 1044.92 1029.50 L 1042.09 1027.55 L 1039.72 1025.79 L 1037.36 1024.16 L 1034.62 1022.94 L 1032.33 1021.10 L 1029.40 1019.12 L 1027.37 1017.64 L 1024.62 1016.44 L 1021.78 1014.73 L 1019.64 1012.73 L 1017.31 1011.08 L 1014.40 1009.61 L 1012.14 1007.99 L 1009.28 1006.36 L 1007.01 1004.91 L 1004.12 1003.23 L 1002.11 1000.94 L 1000.00 1000.00 L 997.49 998.36 L 994.98 996.71 L 992.48 995.05 L 989.99 993.39 L 987.49 991.72 L 985.01 990.04 L 982.51 988.38 L 980.01 986.73 L 977.49 985.09 L 974.98 983.45 L 972.47 981.80 L 969.97 980.14 L 967.48 978.48 L 964.98 976.82 L 962.49 975.14 L 960.01 973.46 L 957.51 971.79 L 955.00 970.15 L 952.49 968.50 L 949.96 966.89 L 947.45 965.26 L 944.93 963.62 L 942.42 961.98 L 939.92 960.32 L 937.40 958.69 L 934.89 957.06 L 932.37 955.42 L 929.86 953.78 L 927.35 952.14 L 924.84 950.49 L 922.33 948.85 L 919.82 947.21 L 917.31 945.57 L 914.82 943.90 L 912.33 942.22 L 909.85 940.53 L 907.36 938.85 L 904.88 937.17 L 902.38 935.50 L 899.90 933.82 L 897.39 932.18 L 894.89 930.52 L 892.38 928.88 L 889.89 927.20 L 887.40 925.53 L 884.91 923.86 L 882.41 922.21 L 879.92 920.53 L 877.42 918.87 L 874.92 917.22 L 872.41 915.57 L 869.89 913.93 L 867.38 912.29 L 864.87 910.65 L 862.36 909.02 L 859.85 907.37 L 857.33 905.74 L 854.82 904.09 L 852.31 902.45 L 849.81 900.80 L 847.31 899.14 L 844.81 897.48 L 842.31 895.82 L 839.81 894.15 L 837.33 892.48 L 834.83 890.81 L 832.33 889.15 L 829.81 887.53 L 827.29 885.90 L 824.77 884.28 L 822.23 882.68 L 819.68 881.09 L 817.13 879.52 L 814.57 877.96 L 812.00 876.40 L 809.43 874.85 L 806.87 873.30 L 804.30 871.74 L 801.74 870.18 L 799.18 868.62 L 796.61 867.06 L 794.06 865.50 L 791.50 863.93 L 788.95 862.35 L 786.40 860.77 L 783.84 859.20 L 781.28 857.63 L 778.74 856.04 L 776.18 854.47 L 773.63 852.90 L 771.07 851.33 L 768.52 849.76 L 765.96 848.19 L 763.41 846.61 L 760.85 845.04 L 758.30 843.46 L 755.75 841.87 L 753.19 840.31 L 750.64 838.73 L 748.10 837.14 L 745.54 835.57 L 743.00 833.97 L 740.48 832.36 L 737.94 830.75 L 735.40 829.15 L 732.87 827.55 L 730.33 825.95 L 727.80 824.33 L 725.27 822.72 L 722.73 821.14 L 720.19 819.54 L 717.65 817.94 L 715.10 816.35 L 712.56 814.76 L 710.02 813.16 L 707.48 811.56 L 704.94 809.98 L 702.39 808.39 L 699.84 806.80 L 697.30 805.21 L 694.74 803.64 L 692.18 802.09 L 689.62 800.53 L 687.04 798.98 L 684.47 797.44 L 681.91 795.88 L 679.34 794.33 L 676.77 792.78 L 674.21 791.22 L 671.64 789.67 L 669.07 788.13 L 666.49 786.59 L 663.92 785.05 L 661.35 783.50 L 658.79 781.94 L 656.22 780.38 L 653.67 778.81 L 651.11 777.24 L 648.56 775.66 L 646.01 774.09 L 643.43 772.54 L 640.85 771.02 L 638.28 769.47 L 635.73 767.89 L 633.18 766.32 L 630.62 764.75 L 628.05 763.20 L 625.49 761.63 L 622.92 760.08 L 620.36 758.52 L 617.80 756.97 L 615.24 755.40 L 612.68 753.82 L 610.14 752.24 L 607.58 750.67 L 605.03 749.10 L 602.47 747.53 L 599.91 745.97 L 597.35 744.40 L 594.82 742.79 L 592.29 741.18 L 589.75 739.57 L 587.21 737.98 L 584.65 736.41 L 582.10 734.83 L 579.56 733.24 L 577.01 731.66 L 574.47 730.07 L 571.92 728.48 L 569.37 726.90 L 566.83 725.30 L 564.30 723.70 L 561.75 722.11 L 559.20 720.53 L 556.64 718.97 L 554.08 717.40 L 551.54 715.81 L 548.99 714.22 L 546.44 712.65 L 543.89 711.07 L 541.36 709.46 L 538.83 707.84 L 536.30 706.24 L 533.77 704.62 L 531.26 702.98 L 528.74 701.34 L 526.23 699.70 L 523.72 698.05 L 521.22 696.41 L 518.72 694.75 L 516.23 693.07 L 513.74 691.40 L 511.25 689.72 L 508.76 688.05 L 506.27 686.38 L 503.77 684.72 L 501.27 683.06 L 498.77 681.40 L 496.28 679.73 L 493.77 678.08 L 491.26 676.44 L 488.74 674.82 L 486.21 673.20 L 483.69 671.58 L 481.16 669.96 L 478.64 668.34 L 476.10 666.74 L 473.57 665.13 L 471.04 663.51 L 468.51 661.90 L 465.99 660.28 L 463.47 658.65 L 460.95 657.02 L 458.42 655.40 L 455.90 653.78 L 453.38 652.15 L 450.86 650.52 L 448.34 648.89 L 445.83 647.25 L 443.30 645.65 L 440.77 644.03 L 438.24 642.42 L 435.72 640.79 L 433.18 639.20 L 430.62 637.63 L 428.06 636.06 L 425.51 634.48 L 422.97 632.88 L 420.43 631.30 L 417.87 629.72 L 415.33 628.14 L 412.77 626.56 L 410.23 624.98 L 407.69 623.37 L 405.16 621.77 L 402.61 620.17 L 400.08 618.57 L 397.55 616.96 L 395.01 615.35 L 392.49 613.73 L 389.96 612.11 L 387.44 610.49 L 384.92 608.86 L 382.39 607.25 L 379.86 605.64 L 377.33 604.03 L 374.80 602.42 L 372.26 600.82 L 369.73 599.21 L 367.20 597.60 L 364.67 595.98 L 362.15 594.36 L 359.62 592.75 L 357.09 591.14 L 354.56 589.52 L 352.03 587.91 L 349.49 586.31 L 346.95 584.71 L 344.41 583.12 L 341.85 581.55 L 339.31 579.96 L 336.75 578.39 L 334.19 576.83 L 331.64 575.24 L 329.09 573.66 L 326.54 572.08 L 323.99 570.50 L 321.46 568.89 L 318.93 567.29 L 316.38 565.70 L 313.84 564.11 L 311.30 562.50 L 308.77 560.90 L 306.22 559.31 L 303.68 557.72 L 301.13 556.14 L 298.60 554.53 L 296.05 552.95 L 293.49 551.38 L 290.94 549.81 L 288.39 548.23 L 285.85 546.63 L 283.30 545.04 L 280.75 543.46 L 278.20 541.89 L 275.64 540.33 L 273.09 538.75 L 270.53 537.18 L 267.97 535.62 L 265.43 534.02 L 262.87 532.45 L 260.32 530.88 L 257.75 529.32 L 255.18 527.77 L 252.61 526.23 L 250.03 524.69 L 247.46 523.15 L 244.89 521.61 L 242.33 520.04 L 239.77 518.47 L 237.21 516.91 L 234.65 515.35 L 232.09 513.79 L 229.54 512.20 L 226.99 510.62 L 224.44 509.04 L 221.89 507.46 L 219.35 505.87 L 216.80 504.28 L 214.27 502.67 L 211.74 501.06 L 209.23 499.41 L 206.72 497.77 L 204.21 496.13 L 201.70 494.48 L 199.20 492.83 L 196.70 491.17 L 194.19 489.52 L 191.67 487.89 L 189.16 486.25 L 186.66 484.59 L 184.16 482.95 L 181.66 481.28 L 179.16 479.62 L 176.67 477.96 L 174.17 476.30 L 171.65 474.66 L 169.13 473.04 L 166.60 471.43 L 164.07 469.82 L 161.53 468.21 L 159.00 466.60 L 156.47 464.99 L 153.94 463.38 L 151.41 461.76 L 148.89 460.14 L 146.36 458.52 L 143.84 456.90 L 141.31 455.29 L 138.77 453.69 L 136.24 452.08 L 133.70 450.49 L 131.16 448.89 L 128.63 447.28 L 126.10 445.66 L 123.57 444.05 L 121.04 442.44 L 118.50 440.83 L 115.96 439.24 L 113.43 437.63 L 110.87 436.06 L 108.32 434.48 L 105.78 432.89 L 103.24 431.30 L 100.70 429.70 L 98.15 428.11 L 95.60 426.53 L 93.06 424.95 L 90.50 423.38 L 87.93 421.82 L 85.36 420.29 L 82.78 418.75 L 80.21 417.21 L 77.63 415.68 L 75.04 414.15 L 72.47 412.60 L 69.90 411.05 L 67.33 409.51 L 64.76 407.97 L 62.19 406.42 L 59.62 404.86 L 57.07 403.29 L 54.51 401.73 L 51.94 400.18 L 49.36 398.64 L 46.79 397.09 L 44.21 395.56 L 41.63 394.03 L 39.04 392.52 L 36.46 391.00 L 33.87 389.48 L 31.28 387.97 L 28.70 386.44 L 26.12 384.91 L 23.55 383.36 L 20.97 381.83 L 18.39 380.29 L 15.81 378.77 L 13.22 377.25 L 10.65 375.70 L 8.08 374.15 L 5.51 372.61 L 2.92 371.09 L 0.35 369.55 L -2.23 368.01 L -4.81 366.48 L -7.39 364.95 L -9.95 363.39 L -12.52 361.84 L -15.08 360.28 L -17.65 358.72 L -20.22 357.17" stroke="rgb(245,245,245)" stroke-opacity="0.980" stroke-width="2.01" />
  <path d="M 950.47 967.65 L 947.48 966.23 L 944.49 964.82 L 941.53 963.38 L 938.58 961.95 L 935.64 960.54 L 932.71 959.12 L 929.78 957.76 L 926.87 956.41 L 924.00 955.04 L 921.14 953.67 L 918.29 952.31 L 915.44 950.97 L 912.59 949.68 L 909.77 948.34 L 906.99 946.97 L 904.25 945.53" stroke="rgb(120,210,255)" stroke-opacity="0.854" stroke-width="1.64" />
  <path d="M 999.00 999.16 L 996.13 997.39 L 993.28 995.62 L 990.43 993.87 L 987.59 992.14 L 984.72 990.49 L 981.86 988.85 L 978.98 987.27 L 976.12 985.67 L 973.28 984.07 L 970.47 982.44 L 967.64 980.88 L 964.81 979.33 L 962.02 977.75 L 959.25 976.17 L 956.46 974.63 L 953.68 973.11 L 950.91 971.60 L 948.14 970.11 L 945.39 968.62 L 942.63 967.15 L 939.87 965.72 L 937.12 964.29 L 934.39 962.85 L 931.67 961.44 L 928.94 960.05 L 926.23 958.66 L 923.53 957.27 L 920.84 955.89 L 918.19 954.47 L 915.54 953.05 L 912.92 951.62 L 910.31 950.20 L 907.71 948.79 L 905.10 947.41 L 902.50 946.04 L 899.91 944.69 L 897.32 943.35 L 894.74 942.02 L 892.17 940.70 L 889.62 939.34 L 887.09 937.99 L 884.56 936.66 L 882.03 935.36 L 879.51 934.06 L 877.01 932.76 L 874.51 931.46 L 872.03 930.15 L 869.56 928.85 L 867.11 927.55" stroke="rgb(120,210,255)" stroke-opacity="0.853" stroke-width="1.63" />
  <path d="M 952.76 965.57 L 950.03 963.65 L 947.31 961.73 L 944.62 959.78 L 941.95 957.84 L 939.31 955.89 L 936.67 953.96 L 934.08 951.99 L 931.50 950.02 L 928.95 948.04 L 926.42 946.05 L 923.90 944.07 L 921.40 942.09 L 918.91 940.11 L 916.43 938.14 L 913.95 936.19 L 911.48 934.24 L 909.06 932.24 L 906.63 930.28 L 904.21 928.32 L 901.79 926.38 L 899.41 924.42 L 897.05 922.44 L 894.69 920.49 L 892.33 918.56 L 889.98 916.63 L 887.65 914.70 L 885.34 912.77 L 883.03 910.86 L 880.75 908.94 L 878.54 906.96 L 876.32 905.00 L 874.11 903.04 L 871.89 901.12" stroke="rgb(120,210,255)" stroke-opacity="0.852" stroke-width="1.63" />
  <path d="M 932.26 944.42 L 929.14 943.22 L 926.03 942.01 L 922.92 940.86 L 919.82 939.70 L 916.71 938.63 L 913.61 937.58 L 910.49 936.63 L 907.37 935.72 L 904.27 934.80 L 901.19 933.87 L 898.13 932.92 L 895.11 931.92 L 892.08 930.98 L 889.04 930.07 L 886.03 929.16" stroke="rgb(120,210,255)" stroke-opacity="0.848" stroke-width="1.62" />
  <path d="M 999.36 1001.90 L 996.76 1000.20 L 994.18 998.48 L 991.65 996.73 L 989.08 995.03 L 986.54 993.33 L 984.01 991.63 L 981.53 989.88 L 979.05 988.15 L 976.57 986.44 L 974.10 984.74 L 971.65 983.03 L 969.22 981.32 L 966.83 979.60 L 964.44 977.89 L 962.10 976.13 L 959.78 974.38 L 957.44 972.67 L 955.09 971.00 L 952.77 969.34 L 950.47 967.65 L 948.15 966.01 L 945.83 964.40 L 943.53 962.77 L 941.21 961.20 L 938.91 959.59 L 936.64 957.98 L 934.39 956.37 L 932.12 954.80 L 929.86 953.24 L 927.63 951.68 L 925.40 950.12 L 923.21 948.52 L 921.05 946.93 L 918.90 945.33 L 916.76 943.74 L 914.63 942.16 L 912.52 940.57 L 910.43 938.96 L 908.36 937.34 L 906.32 935.71 L 904.26 934.11 L 902.16 932.58" stroke="rgb(120,210,255)" stroke-opacity="0.847" stroke-width="1.61" />
  <path d="M 929.00 941.41 L 926.64 939.50 L 924.36 937.52 L 922.09 935.55 L 919.78 933.64 L 917.53 931.69 L 915.30 929.74 L 913.07 927.80 L 910.81 925.91 L 908.53 924.06 L 906.27 922.21 L 904.07 920.31 L 901.85 918.44 L 899.60 916.63 L 897.34 914.83 L 895.07 913.08 L 892.79 911.35 L 890.53 909.62 L 888.28 907.89 L 886.04 906.19 L 883.89 904.37 L 881.76 902.56 L 879.64 900.76 L 877.54 898.96 L 875.38 897.23 L 873.25 895.50 L 871.16 893.72 L 869.11 891.92 L 867.06 890.12 L 865.05 888.31" stroke="rgb(120,210,255)" stroke-opacity="0.465" stroke-width="1.61" />
  <path d="M 998.92 997.46 L 996.14 995.53 L 993.38 993.61 L 990.63 991.70 L 987.88 989.80 L 985.14 987.91 L 982.45 985.98 L 979.77 984.06 L 977.10 982.14 L 974.43 980.25 L 971.73 978.42 L 969.05 976.58 L 966.39 974.75 L 963.74 972.92 L 961.10 971.09 L 958.49 969.26 L 955.88 967.43 L 953.28 965.63 L 950.70 963.80 L 948.14 961.98 L 945.59 960.17 L 943.04 958.38 L 940.50 956.59 L 937.97 954.80 L 935.46 953.02 L 932.93 951.29 L 930.40 949.56 L 927.87 947.87 L 925.32 946.23 L 922.78 944.60 L 920.25 942.97 L 917.76 941.31 L 915.29 939.63 L 912.83 937.96 L 910.40 936.28 L 907.98 934.59 L 905.57 932.92 L 903.17 931.25 L 900.76 929.60" stroke="rgb(120,210,255)" stroke-opacity="0.842" stroke-width="1.60" />
  <path d="M 1002.42 1002.38 L 999.62 1000.56 L 996.83 998.78 L 994.03 997.02" stroke="rgb(120,210,255)" stroke-opacity="0.841" stroke-width="1.59" />
  <path d="M 998.20 1000.48 L 995.25 998.62 L 992.30 996.78 L 989.36 994.95 L 986.44 993.11 L 983.50 991.32 L 980.58 989.55 L 977.63 987.84 L 974.68 986.16 L 971.70 984.55 L 968.74 982.95 L 965.81 981.33 L 962.89 979.71 L 959.97 978.10 L 957.06 976.51 L 954.17 974.92 L 951.27 973.38 L 948.38 971.83 L 945.51 970.29 L 942.64 968.77 L 939.78 967.25 L 936.92 965.76 L 934.06 964.31 L 931.19 962.90 L 928.33 961.50 L 925.48 960.12 L 922.63 958.74 L 919.80 957.37 L 916.99 955.99 L 914.16 954.67 L 911.37 953.30 L 908.60 951.92 L 905.83 950.57 L 903.07 949.24 L 900.32 947.90 L 897.57 946.57 L 894.85 945.25 L 892.14 943.91 L 889.42 942.61 L 886.72 941.31 L 884.03 940.03 L 881.35 938.74 L 878.68 937.46 L 876.02 936.18 L 873.36 934.94 L 870.70 933.72 L 868.04 932.53 L 865.41 931.29 L 862.80 930.05 L 860.19 928.83 L 857.59 927.62 L 855.01 926.40 L 852.44 925.17 L 849.88 923.95 L 847.33 922.74 L 844.78 921.54" stroke="rgb(120,210,255)" stroke-opacity="0.840" stroke-width="1.59" />
  <path d="M 999.82 999.24 L 997.01 997.52" stroke="rgb(120,210,255)" stroke-opacity="0.840" stroke-width="1.59" />
  <path d="M 999.09 1003.82 L 996.90 1002.20 L 994.73 1000.57 L 992.61 998.91 L 990.48 997.27 L 988.36 995.64 L 986.26 994.01 L 984.18 992.36 L 982.07 990.77 L 980.00 989.14 L 977.94 987.52 L 975.88 985.92 L 973.86 984.28 L 971.88 982.63 L 969.87 981.03 L 967.89 979.42 L 965.97 977.74 L 964.11 976.02 L 962.33 974.21" stroke="rgb(120,210,255)" stroke-opacity="0.455" stroke-width="1.56" />
  <path d="M 1001.74 1003.07 L 999.48 1001.70 L 997.26 1000.29 L 995.06 998.85 L 992.91 997.36 L 990.79 995.86 L 988.64 994.41 L 986.52 992.96 L 984.42 991.49 L 982.38 989.96 L 980.35 988.45 L 978.32 986.97 L 976.31 985.48 L 974.37 983.94 L 972.50 982.37 L 970.63 980.83 L 968.75 979.35 L 966.88 977.89 L 965.07 976.38 L 963.25 974.90 L 961.46 973.38 L 959.71 971.83 L 957.95 970.29 L 956.20 968.74 L 954.46 967.18 L 952.76 965.57 L 951.09 963.99 L 949.52 962.35 L 947.96 960.69 L 946.41 959.01 L 944.86 957.35 L 943.32 955.70 L 941.76 954.05 L 940.21 952.40 L 938.63 950.77 L 937.02 949.18 L 935.42 947.59 L 933.83 946.01 L 932.26 944.42 L 930.64 942.90 L 929.00 941.41 L 927.33 939.96 L 925.66 938.53 L 923.97 937.12 L 922.29 935.70 L 920.62 934.30 L 918.89 932.95 L 917.18 931.59 L 915.39 930.37 L 913.63 929.11 L 911.88 927.86 L 910.15 926.60 L 908.41 925.37" stroke="rgb(120,210,255)" stroke-opacity="0.451" stroke-width="1.54" />
  <path d="M 976.88 960.52 L 978.02 957.95 L 979.14 955.39 L 980.24 952.82 L 981.36 950.28 L 982.45 947.77 L 983.56 945.30 L 984.69 942.84 L 985.81 940.38 L 986.93 937.93 L 988.04 935.48 L 989.13 933.04 L 990.23 930.60 L 991.29 928.15 L 992.34 925.70 L 993.41 923.25 L 994.47 920.82 L 995.53 918.40 L 996.56 915.97 L 997.58 913.55 L 998.55 911.14 L 999.53 908.74 L 1000.52 906.37 L 1001.49 903.99 L 1002.47 901.58 L 1003.48 899.19 L 1004.48 896.81 L 1005.49 894.45 L 1006.48 892.12 L 1007.46 889.85 L 1008.41 887.57 L 1009.37 885.29 L 1010.30 883.05 L 1011.23 880.81 L 1012.16 878.58 L 1013.07 876.37 L 1013.97 874.16 L 1014.90 871.96 L 1015.83 869.77 L 1016.76 867.62 L 1017.68 865.50 L 1018.62 863.39 L 1019.52 861.26 L 1020.34 859.14 L 1021.18 857.00 L 1021.98 854.90 L 1022.74 852.81 L 1023.49 850.73 L 1024.21 848.65 L 1024.93 846.58 L 1025.63 844.59 L 1026.31 842.61 L 1027.04 840.62 L 1027.75 838.63 L 1028.48 836.67 L 1029.20 834.71 L 1029.93 832.76 L 1030.65 830.81 L 1031.44 828.90 L 1032.17 826.98 L 1032.90 825.06 L 1033.61 823.19 L 1034.32 821.32 L 1035.01 819.46 L 1035.73 817.59 L 1036.42 815.73 L 1037.12 813.87 L 1037.76 812.00 L 1038.47 810.14 L 1039.19 808.31" stroke="rgb(205,165,255)" stroke-opacity="0.721" stroke-width="1.24" />
  <path d="M 998.02 1006.76 L 995.16 1005.18 L 992.30 1003.63 L 989.45 1002.08 L 986.62 1000.52 L 983.79 999.00 L 980.96 997.51 L 978.15 996.01 L 975.33 994.53 L 972.51 993.08 L 969.66 991.73 L 966.82 990.37 L 963.98 989.03 L 961.16 987.68 L 958.32 986.40 L 955.48 985.16 L 952.66 983.92 L 949.86 982.66 L 947.07 981.41 L 944.31 980.13 L 941.55 978.86 L 938.80 977.61 L 936.06 976.36 L 933.34 975.10 L 930.62 973.84 L 927.92 972.58 L 925.24 971.32 L 922.56 970.08 L 919.89 968.84 L 917.23 967.59 L 914.56 966.37 L 911.91 965.15 L 909.27 963.93 L 906.64 962.71" stroke="rgb(205,165,255)" stroke-opacity="0.712" stroke-width="1.22" />
  <path d="M 1000.54 998.04 L 997.38 997.24 L 994.25 996.37 L 991.13 995.53 L 988.00 994.79 L 984.88 994.04 L 981.76 993.38 L 978.66 992.67 L 975.58 991.92 L 972.52 991.14 L 969.47 990.38 L 966.43 989.64 L 963.40 988.90 L 960.41 988.08 L 957.42 987.26 L 954.44 986.47 L 951.48 985.66 L 948.53 984.85 L 945.59 984.05 L 942.65 983.27 L 939.76 982.40 L 936.87 981.57 L 933.98 980.78 L 931.09 980.01 L 928.21 979.29 L 925.33 978.62 L 922.47 977.90 L 919.62 977.21 L 916.78 976.51 L 913.94 975.83 L 911.12 975.18 L 908.30 974.52 L 905.51 973.81 L 902.73 973.10" stroke="rgb(205,165,255)" stroke-opacity="0.710" stroke-width="1.22" />
  <path d="M 999.91 1001.74 L 996.94 1000.51 L 993.98 999.29 L 991.03 998.06 L 988.09 996.86 L 985.16 995.67 L 982.22 994.53 L 979.30 993.37 L 976.40 992.21 L 973.51 991.05 L 970.62 989.98" stroke="rgb(205,165,255)" stroke-opacity="0.704" stroke-width="1.20" />
  <path d="M 998.76 1003.86 L 996.93 1002.50 L 995.09 1001.15 L 993.27 999.80 L 991.48 998.42 L 989.69 997.03 L 987.93 995.62 L 986.19 994.21 L 984.39 992.88 L 982.63 991.53 L 980.92 990.16 L 979.24 988.77 L 977.56 987.37 L 975.91 985.93 L 974.26 984.50 L 972.60 983.10 L 970.90 981.77 L 969.22 980.41 L 967.42 979.20 L 965.62 978.02 L 963.86 976.80 L 962.11 975.58 L 960.37 974.36 L 958.64 973.16 L 956.88 972.00 L 955.18 970.78 L 953.48 969.58 L 951.84 968.29 L 950.16 967.06 L 948.50 965.84 L 946.83 964.63 L 945.16 963.43 L 943.51 962.23 L 941.85 961.04 L 940.18 959.91" stroke="rgb(140,255,190)" stroke-opacity="0.556" stroke-width="1.20" />
  <path d="M 962.05 971.85 L 959.61 969.75 L 957.19 967.61 L 954.75 965.51 L 952.32 963.42 L 949.90 961.38 L 947.46 959.37 L 945.01 957.34 L 942.56 955.31 L 940.14 953.23 L 937.74 951.17 L 935.35 949.12 L 932.97 947.07 L 930.59 945.02 L 928.24 942.97 L 925.92 940.91 L 923.64 938.84 L 921.39 936.73 L 919.16 934.63 L 916.94 932.54 L 914.73 930.44 L 912.56 928.33 L 910.42 926.21 L 908.26 924.12 L 906.08 922.06 L 903.94 919.97 L 901.73 917.96 L 899.54 915.93 L 897.34 913.95 L 895.14 911.99 L 892.97 910.01 L 890.83 908.02 L 888.69 906.04 L 886.61 904.04 L 884.53 902.10 L 882.45 900.17 L 880.39 898.23 L 878.35 896.29 L 876.33 894.34 L 874.32 892.41 L 872.31 890.49 L 870.30 888.58 L 868.28 886.70 L 866.30 884.84 L 864.33 883.01 L 862.39 881.17" stroke="rgb(140,255,190)" stroke-opacity="0.741" stroke-width="1.20" />
  <path d="M 872.28 946.68 L 870.29 946.52 L 868.28 946.14 L 866.34 945.65 L 864.38 945.13 L 862.45 944.52 L 860.55 943.89 L 858.76 943.21 L 856.99 942.53 L 855.17 941.84 L 853.28 941.26 L 851.39 940.70 L 849.46 940.34 L 847.54 939.99 L 845.69 939.68 L 843.90 939.29 L 842.11 938.92 L 840.32 938.56 L 838.55 938.10 L 836.80 937.66 L 835.03 937.13 L 833.25 936.63 L 831.42 936.05 L 829.67 935.40 L 827.95 934.71 L 826.24 933.92 L 824.55 932.93 L 822.98 931.75 L 821.55 930.46 L 820.00 929.29 L 818.47 928.11" stroke="rgb(140,255,190)" stroke-opacity="0.555" stroke-width="1.20" />
  <path d="M 1002.05 1001.50 L 999.13 999.61 L 996.20 997.76 L 993.26 995.94 L 990.34 994.12 L 987.44 992.31 L 984.53 990.52 L 981.64 988.74 L 978.75 986.97 L 975.89 985.19 L 973.03 983.44 L 970.18 981.69 L 967.34 979.94 L 964.52 978.19 L 961.71 976.45 L 958.89 974.77 L 956.07 973.09 L 953.29 971.39 L 950.51 969.70 L 947.75 968.01 L 944.97 966.36 L 942.21 964.72 L 939.44 963.11 L 936.69 961.51 L 933.95 959.90 L 931.25 958.26 L 928.56 956.63 L 925.87 955.03" stroke="rgb(140,255,190)" stroke-opacity="0.739" stroke-width="1.19" />
  <path d="M 998.01 1001.55 L 995.13 999.67 L 992.27 997.79 L 989.42 995.92 L 986.58 994.07 L 983.74 992.21 L 980.92 990.37 L 978.10 988.53 L 975.30 986.70 L 972.50 984.88 L 969.71 983.08 L 966.93 981.28 L 964.14 979.53 L 961.37 977.76 L 958.62 976.01 L 955.85 974.30 L 953.09 972.58 L 950.30 970.93 L 947.52 969.30 L 944.75 967.66 L 942.00 966.02 L 939.26 964.38 L 936.53 962.75 L 933.82 961.12 L 931.14 959.46 L 928.46 957.82 L 925.79 956.18 L 923.14 954.55 L 920.51 952.92 L 917.87 951.33 L 915.23 949.75 L 912.60 948.19 L 909.98 946.64 L 907.36 945.11 L 904.74 943.59 L 902.15 942.06 L 899.57 940.54 L 896.99 939.03 L 894.42 937.53 L 891.86 936.04 L 889.31 934.55 L 886.79 933.05 L 884.25 931.59 L 881.71 930.16 L 879.17 928.74 L 876.65 927.32 L 874.15 925.88 L 871.68 924.42 L 869.23 922.96 L 866.78 921.52 L 864.35 920.05 L 861.93 918.61 L 859.52 917.16 L 857.12 915.71 L 854.75 914.25 L 852.41 912.74 L 850.10 911.21 L 847.81 909.68 L 845.52 908.17 L 843.26 906.64 L 841.02 905.09 L 838.78 903.56 L 836.55 902.04 L 834.29 900.58 L 832.04 899.12 L 829.81 897.66 L 827.62 896.15 L 825.42 894.68 L 823.23 893.23 L 821.04 891.78 L 818.85 890.34 L 816.67 888.92 L 814.50 887.50 L 812.34 886.08 L 810.18 884.67 L 808.02 883.30 L 805.86 881.94 L 803.72 880.57 L 801.59 879.20 L 799.47 877.83" stroke="rgb(140,255,190)" stroke-opacity="0.739" stroke-width="1.19" />
  <path d="M 1001.30 999.21 L 998.73 996.87 L 996.15 994.56 L 993.58 992.26 L 991.03 989.96 L 988.48 987.67 L 985.93 985.40 L 983.42 983.11 L 980.92 980.83 L 978.44 978.55 L 975.97 976.28 L 973.51 974.02 L 971.05 971.78 L 968.60 969.55 L 966.17 967.31 L 963.77 965.06 L 961.48 962.72 L 959.20 960.39 L 956.94 958.05 L 954.71 955.71 L 952.50 953.36 L 950.31 951.01 L 948.12 948.68 L 945.94 946.36 L 943.76 944.05 L 941.60 941.75 L 939.46 939.44 L 937.33 937.14 L 935.22 934.84 L 933.10 932.57 L 930.97 930.32 L 928.85 928.07 L 926.75 925.83 L 924.65 923.61 L 922.54 921.40 L 920.44 919.21 L 918.32 917.06 L 916.20 914.92 L 914.08 912.79 L 911.99 910.66 L 909.92 908.52 L 907.83 906.43 L 905.73 904.35 L 903.64 902.28 L 901.57 900.21 L 899.54 898.12 L 897.51 896.04 L 895.48 893.97 L 893.45 891.92 L 891.46 889.85 L 889.46 887.81 L 887.45 885.79 L 885.45 883.78 L 883.49 881.75 L 881.54 879.72 L 879.59 877.70 L 877.63 875.71 L 875.67 873.74 L 873.71 871.78 L 871.77 869.82 L 869.86 867.85 L 867.95 865.89 L 866.03 863.96 L 864.12 862.03 L 862.21 860.12" stroke="rgb(140,255,190)" stroke-opacity="0.737" stroke-width="1.19" />
  <path d="M 919.62 977.21 L 916.70 978.05 L 913.82 978.93 L 910.95 979.89 L 908.10 980.91 L 905.26 981.92 L 902.43 982.91 L 899.64 983.97 L 896.86 985.05 L 894.09 986.11 L 891.33 987.16 L 888.62 988.32 L 885.93 989.47 L 883.26 990.66 L 880.66 991.97 L 878.08 993.29 L 875.53 994.62 L 872.97 995.94 L 870.43 997.26 L 867.91 998.59 L 865.40 999.92 L 862.90 1001.24 L 860.41 1002.55 L 857.94 1003.88 L 855.46 1005.16 L 852.98 1006.42 L 850.50 1007.66 L 848.07 1008.96 L 845.63 1010.21 L 843.15 1011.34 L 840.67 1012.45 L 838.19 1013.54 L 835.70 1014.58 L 833.23 1015.63 L 830.77 1016.68 L 828.34 1017.75 L 825.91 1018.80 L 823.48 1019.80 L 821.05 1020.79 L 818.64 1021.73 L 816.23 1022.67 L 813.81 1023.59 L 811.39 1024.50 L 809.00 1025.40 L 806.59 1026.25 L 804.20 1027.14 L 801.82 1028.06 L 799.46 1028.97" stroke="rgb(205,165,255)" stroke-opacity="0.488" stroke-width="1.18" />
  <path d="M 812.34 886.08 L 808.98 885.41 L 805.63 884.75 L 802.29 884.10 L 798.97 883.51 L 795.64 882.92 L 792.34 882.35 L 789.04 881.80 L 785.75 881.26 L 782.48 880.70 L 779.23 880.11 L 776.00 879.48 L 772.80 878.82 L 769.60 878.18 L 766.41 877.53 L 763.23 876.88 L 760.06 876.28 L 756.90 875.68 L 753.76 875.08 L 750.62 874.55 L 747.48 874.08 L 744.36 873.58 L 741.26 873.10 L 738.16 872.57 L 735.08 872.02 L 732.02 871.45 L 728.97 870.86 L 725.92 870.28 L 722.90 869.70 L 719.89 869.10 L 716.89 868.53 L 713.91 867.99 L 710.93 867.45 L 707.98 866.86 L 705.04 866.29 L 702.08 865.82 L 699.15 865.35" stroke="rgb(140,255,190)" stroke-opacity="0.734" stroke-width="1.18" />
  <path d="M 941.65 962.16 L 938.51 961.08 L 935.38 960.02 L 932.26 958.95 L 929.15 957.89 L 926.04 956.89 L 922.95 955.89 L 919.87 954.91 L 916.79 953.94 L 913.72 952.97 L 910.66 952.04 L 907.63 951.07 L 904.60 950.16" stroke="rgb(140,255,190)" stroke-opacity="0.734" stroke-width="1.18" />
  <path d="M 885.84 959.67 L 882.93 958.11 L 880.04 956.55 L 877.16 954.99 L 874.28 953.43 L 871.42 951.84 L 868.57 950.26 L 865.74 948.66 L 862.92 947.07 L 860.14 945.46 L 857.34 943.90 L 854.55 942.33 L 851.77 940.77 L 849.00 939.23 L 846.22 937.69 L 843.45 936.17 L 840.69 934.66 L 837.96 933.15 L 835.23 931.65 L 832.51 930.16 L 829.79 928.67 L 827.10 927.18 L 824.42 925.70 L 821.75 924.25 L 819.09 922.84 L 816.44 921.43" stroke="rgb(140,255,190)" stroke-opacity="0.733" stroke-width="1.18" />
  <path d="M 1000.07 1003.14 L 997.15 1001.31 L 994.23 999.48 L 991.33 997.66 L 988.43 995.85 L 985.55 994.05 L 982.69 992.23 L 979.87 990.39 L 977.06 988.54 L 974.27 986.69 L 971.51 984.83 L 968.75 982.98 L 965.99 981.16 L 963.22 979.38 L 960.46 977.60 L 957.71 975.84 L 954.98 974.07 L 952.24 972.34 L 949.53 970.59 L 946.84 968.82 L 944.16 967.08 L 941.51 965.30 L 938.89 963.51 L 936.26 961.75 L 933.66 959.98 L 931.05 958.22 L 928.45 956.49 L 925.86 954.77 L 923.25 953.10 L 920.67 951.40 L 918.11 949.70 L 915.58 947.97" stroke="rgb(140,255,190)" stroke-opacity="0.731" stroke-width="1.17" />
  <path d="M 893.91 928.24 L 892.62 926.32 L 891.32 924.41 L 890.03 922.51 L 888.76 920.59 L 887.75 918.53 L 886.79 916.46 L 885.93 914.34 L 885.01 912.27 L 884.17 910.17 L 883.27 908.10 L 882.37 906.05 L 881.53 903.98 L 880.75 901.90 L 879.78 899.93 L 878.73 898.04 L 877.65 896.18 L 876.53 894.33 L 875.32 892.54 L 874.20 890.79 L 873.18 889.01 L 872.41 887.08 L 871.64 885.11 L 870.81 883.18 L 870.06 881.21 L 869.30 879.27 L 868.57 877.32 L 867.86 875.38 L 867.12 873.45 L 866.34 871.56 L 865.58 869.67 L 864.86 867.81 L 864.14 866.04 L 863.39 864.28 L 862.65 862.53 L 861.92 860.79 L 861.14 859.06 L 860.41 857.34 L 859.68 855.60 L 858.88 853.92 L 858.04 852.30 L 857.10 850.69 L 856.21 849.06 L 855.22 847.57 L 854.23 846.09 L 853.23 844.59 L 852.23 843.10" stroke="rgb(140,255,190)" stroke-opacity="0.547" stroke-width="1.17" />
  <path d="M 999.09 997.00 L 996.44 995.10 L 993.78 993.23 L 991.15 991.34 L 988.52 989.46 L 985.93 987.57 L 983.37 985.65 L 980.84 983.70 L 978.34 981.74 L 975.87 979.78 L 973.41 977.82 L 970.93 975.90 L 968.47 973.99 L 966.00 972.10 L 963.54 970.23 L 961.10 968.34 L 958.69 966.44 L 956.27 964.58 L 953.89 962.68 L 951.50 960.82 L 949.10 959.00 L 946.71 957.21 L 944.32 955.43 L 941.93 953.68 L 939.53 951.95" stroke="rgb(140,255,190)" stroke-opacity="0.728" stroke-width="1.16" />
  <path d="M 997.02 1000.63 L 994.24 998.80 L 991.50 996.94 L 988.79 995.05 L 986.09 993.18 L 983.39 991.32 L 980.71 989.46 L 978.03 987.63 L 975.33 985.83 L 972.64 984.06 L 969.98 982.26 L 967.35 980.44 L 964.74 978.62 L 962.14 976.80 L 959.55 974.99 L 956.93 973.24 L 954.35 971.47 L 951.80 969.66 L 949.24 967.90 L 946.69 966.14 L 944.14 964.40 L 941.57 962.71 L 939.02 961.01 L 936.49 959.32 L 933.95 957.65 L 931.43 955.98 L 928.93 954.30 L 926.45 952.62 L 924.01 950.89 L 921.58 949.17 L 919.16 947.46 L 916.79 945.70 L 914.45 943.92 L 912.12 942.14" stroke="rgb(140,255,190)" stroke-opacity="0.724" stroke-width="1.15" />
  <path d="M 936.78 953.64 L 934.00 952.08 L 931.23 950.50 L 928.50 948.88 L 925.76 947.30 L 923.02 945.71 L 920.29 944.13 L 917.58 942.55 L 914.88 940.97 L 912.18 939.40 L 909.49 937.87 L 906.85 936.28 L 904.23 934.68 L 901.63 933.07 L 899.04 931.45 L 896.47 929.85 L 893.91 928.24 L 891.36 926.65 L 888.83 925.06 L 886.32 923.46 L 883.85 921.78 L 881.42 920.07 L 879.02 918.32" stroke="rgb(140,255,190)" stroke-opacity="0.723" stroke-width="1.15" />
  <path d="M 1001.27 998.28 L 998.55 996.52 L 995.88 994.74 L 993.21 992.95 L 990.58 991.13 L 987.95 989.33 L 985.33 987.53 L 982.72 985.73 L 980.09 984.00 L 977.44 982.31 L 974.78 980.65 L 972.19 978.91 L 969.63 977.15 L 967.09 975.39 L 964.57 973.62 L 962.05 971.85 L 959.50 970.16 L 956.97 968.47 L 954.45 966.78 L 951.94 965.10 L 949.46 963.40 L 946.97 961.73 L 944.48 960.09 L 941.98 958.48 L 939.50 956.88 L 937.02 955.28" stroke="rgb(140,255,190)" stroke-opacity="0.723" stroke-width="1.15" />
  <path d="M 998.73 1001.32 L 996.33 999.15 L 993.95 996.98 L 991.58 994.83 L 989.23 992.66 L 986.92 990.48 L 984.58 988.34 L 982.28 986.19 L 979.98 984.04 L 977.64 981.96 L 975.36 979.84 L 973.08 977.74 L 970.84 975.61 L 968.62 973.48 L 966.36 971.42 L 964.12 969.34 L 961.91 967.27 L 959.70 965.22 L 957.50 963.19 L 955.27 961.21 L 953.07 959.25 L 950.90 957.25 L 948.76 955.25 L 946.62 953.29 L 944.51 951.33 L 942.45 949.35 L 940.40 947.37 L 938.34 945.42 L 936.28 943.49 L 934.20 941.59 L 932.13 939.70 L 930.06 937.82 L 928.00 935.95 L 925.95 934.08 L 923.91 932.21 L 921.87 930.38 L 919.86 928.53 L 917.82 926.72 L 915.78 924.94 L 913.73 923.18 L 911.69 921.42 L 909.64 919.70 L 907.65 917.97 L 905.67 916.25 L 903.67 914.58 L 901.66 912.92 L 899.66 911.26 L 897.70 909.55 L 895.73 907.84 L 893.82 906.10 L 891.91 904.38" stroke="rgb(140,255,190)" stroke-opacity="0.722" stroke-width="1.15" />
  <path d="M 904.23 934.68 L 901.47 933.02 L 898.72 931.38 L 895.93 929.81 L 893.16 928.27 L 890.37 926.76 L 887.59 925.27 L 884.83 923.76 L 882.10 922.23 L 879.35 920.77 L 876.60 919.32 L 873.86 917.90 L 871.13 916.47 L 868.42 915.02 L 865.73 913.60 L 863.04 912.17 L 860.36 910.76 L 857.74 909.26 L 855.13 907.78 L 852.56 906.23 L 850.01 904.69 L 847.45 903.19 L 844.90 901.69 L 842.38 900.16 L 839.82 898.72 L 837.27 897.28 L 834.74 895.85 L 832.19 894.47 L 829.65 893.09 L 827.12 891.72 L 824.65 890.27" stroke="rgb(140,255,190)" stroke-opacity="0.720" stroke-width="1.14" />
  <path d="M 955.27 961.21 L 952.67 959.57 L 950.07 957.97 L 947.45 956.37 L 944.84 954.79 L 942.26 953.19 L 939.73 951.60 L 937.19 950.06 L 934.67 948.58 L 932.16 947.09 L 929.64 945.64 L 927.13 944.19 L 924.71 942.63 L 922.30 941.08 L 919.90 939.54 L 917.49 937.99 L 915.11 936.39 L 912.72 934.83 L 910.34 933.25 L 907.97 931.67 L 905.66 930.02 L 903.35 928.40 L 901.01 926.86 L 898.65 925.36 L 896.28 923.88 L 893.95 922.38 L 891.63 920.91 L 889.30 919.47 L 886.96 918.07 L 884.65 916.64 L 882.37 915.26 L 880.11 913.88 L 877.83 912.50 L 875.56 911.19 L 873.30 909.84 L 871.03 908.49 L 868.79 907.12 L 866.55 905.76 L 864.32 904.42 L 862.06 903.13 L 859.78 901.86 L 857.51 900.60 L 855.27 899.30 L 853.06 897.99" stroke="rgb(140,255,190)" stroke-opacity="0.720" stroke-width="1.14" />
  <path d="M 1002.07 997.27 L 1000.62 994.99 L 999.18 992.72 L 997.77 990.46 L 996.43 988.17 L 995.07 985.89 L 993.73 983.62 L 992.39 981.36 L 991.05 979.07 L 989.77 976.73 L 988.53 974.40 L 987.29 972.08 L 986.08 969.73 L 984.88 967.39 L 983.67 965.03 L 982.48 962.68 L 981.34 960.33 L 980.21 957.98 L 979.07 955.64 L 977.90 953.34 L 976.72 951.05 L 975.52 948.78 L 974.38 946.50 L 973.22 944.23 L 972.07 941.98 L 970.96 939.71 L 969.85 937.46 L 968.74 935.25 L 967.62 933.04 L 966.50 930.84" stroke="rgb(205,165,255)" stroke-opacity="0.477" stroke-width="1.14" />
  <path d="M 1000.84 999.35 L 999.97 997.62 L 999.10 995.89 L 998.23 994.16 L 997.38 992.41 L 996.50 990.70 L 995.54 989.03 L 994.53 987.36 L 993.54 985.71 L 992.55 984.08 L 991.54 982.43 L 990.49 980.76 L 989.47 979.17 L 988.45 977.59 L 987.43 976.01 L 986.39 974.45 L 985.33 972.92 L 984.20 971.43 L 983.16 969.91 L 982.04 968.40 L 980.94 966.89 L 979.90 965.36 L 978.88 963.76 L 977.88 962.15 L 976.88 960.52 L 975.87 958.89 L 974.82 957.24 L 973.76 955.61 L 972.70 953.99 L 971.65 952.38 L 970.47 950.81 L 969.29 949.25 L 968.21 947.62 L 967.13 946.00 L 966.01 944.47 L 964.90 943.00 L 963.84 941.53 L 962.78 940.07 L 961.64 938.71 L 960.48 937.35 L 959.24 936.01" stroke="rgb(205,165,255)" stroke-opacity="0.477" stroke-width="1.14" />
  <path d="M 1004.45 993.98 L 1002.14 993.75 L 999.87 993.56 L 997.64 993.37 L 995.44 993.06 L 993.22 992.77 L 991.03 992.62 L 988.82 992.52 L 986.57 992.51 L 984.34 992.56 L 982.14 992.58 L 979.97 992.61 L 977.76 992.71 L 975.53 992.78 L 973.31 992.84 L 971.10 992.90 L 968.86 992.92 L 966.63 992.90 L 964.36 992.94 L 962.10 992.99 L 959.83 993.09 L 957.61 993.17 L 955.39 993.28 L 953.20 993.35 L 951.02 993.43 L 948.85 993.50 L 946.68 993.58 L 944.54 993.73 L 942.39 993.87 L 940.26 994.03 L 938.16 994.22 L 936.05 994.41 L 934.04 994.71 L 932.03 995.00 L 930.04 995.29 L 928.03 995.60" stroke="rgb(205,165,255)" stroke-opacity="0.477" stroke-width="1.14" />
  <path d="M 916.70 975.35 L 913.58 974.66 L 910.46 974.00 L 907.34 973.40 L 904.24 972.79 L 901.17 972.14 L 898.11 971.49 L 895.06 970.79 L 892.04 970.05 L 889.03 969.32 L 886.03 968.58 L 883.06 967.82 L 880.11 967.01 L 877.18 966.21 L 874.28 965.33 L 871.39 964.48 L 868.49 963.69 L 865.60 962.93 L 862.72 962.17 L 859.85 961.43 L 856.99 960.70 L 854.15 959.96 L 851.32 959.25 L 848.51 958.50 L 845.75 957.65 L 842.96 956.90 L 840.19 956.14 L 837.40 955.46 L 834.62 954.80 L 831.86 954.06 L 829.10 953.38 L 826.35 952.73 L 823.62 952.05 L 820.91 951.38 L 818.21 950.68 L 815.53 949.96 L 812.86 949.22 L 810.20 948.52 L 807.55 947.83 L 804.91 947.14 L 802.28 946.44 L 799.66 945.74 L 797.06 945.03 L 794.46 944.35 L 791.87 943.70 L 789.30 943.05 L 786.76 942.37 L 784.22 941.79 L 781.68 941.20 L 779.17 940.59 L 776.67 939.99" stroke="rgb(140,255,190)" stroke-opacity="0.718" stroke-width="1.14" />
  <path d="M 919.10 975.65 L 916.95 973.64 L 914.76 971.71 L 912.59 969.80 L 910.43 967.86 L 908.30 965.91 L 906.23 963.96 L 904.19 962.01 L 902.17 960.10 L 900.16 958.18 L 898.14 956.25 L 896.14 954.34 L 894.14 952.43 L 892.17 950.52 L 890.21 948.64 L 888.29 946.74 L 886.41 944.80 L 884.53 942.88 L 882.66 940.95 L 880.83 938.98 L 878.94 937.09 L 877.16 935.18 L 875.37 933.28 L 873.58 931.40 L 871.83 929.49 L 870.15 927.52 L 868.47 925.58 L 866.74 923.67 L 865.10 921.70 L 863.55 919.73 L 861.93 917.80" stroke="rgb(140,255,190)" stroke-opacity="0.538" stroke-width="1.14" />
  <path d="M 968.62 973.48 L 966.94 970.96 L 965.28 968.44 L 963.66 965.91 L 962.03 963.39 L 960.44 960.88 L 958.95 958.35 L 957.46 955.82 L 955.85 953.38 L 954.27 950.99 L 952.69 948.61 L 951.15 946.24 L 949.61 943.88 L 948.08 941.55 L 946.56 939.23 L 945.08 936.89 L 943.63 934.53 L 942.20 932.16 L 940.77 929.76 L 939.36 927.36 L 937.95 925.00 L 936.56 922.64 L 935.21 920.26 L 933.84 917.90 L 932.46 915.56 L 931.06 913.23 L 929.70 910.89 L 928.35 908.56 L 927.00 906.23 L 925.57 903.92 L 924.18 901.60 L 922.82 899.27 L 921.51 896.96 L 920.23 894.64 L 918.95 892.33 L 917.67 890.05 L 916.43 887.75 L 915.19 885.46 L 913.97 883.18 L 912.75 880.89 L 911.56 878.61 L 910.40 876.35 L 909.26 874.06 L 908.12 871.79 L 906.92 869.55 L 905.77 867.28 L 904.66 865.03 L 903.56 862.79 L 902.50 860.55 L 901.46 858.33 L 900.42 856.11 L 899.38 853.90" stroke="rgb(140,255,190)" stroke-opacity="0.717" stroke-width="1.14" />
  <path d="M 928.45 956.49 L 926.44 954.33 L 924.44 952.17 L 922.52 949.95 L 920.62 947.74 L 918.61 945.61 L 916.58 943.50 L 914.57 941.35 L 912.57 939.23 L 910.55 937.12 L 908.51 935.04 L 906.49 933.02 L 904.42 931.06 L 902.34 929.12 L 900.31 927.15 L 898.29 925.18 L 896.30 923.18 L 894.34 921.15 L 892.46 919.08" stroke="rgb(140,255,190)" stroke-opacity="0.716" stroke-width="1.13" />
  <path d="M 998.68 998.53 L 996.04 996.82 L 993.41 995.14 L 990.78 993.47 L 988.18 991.80 L 985.54 990.19 L 982.92 988.60 L 980.31 986.99 L 977.72 985.38 L 975.12 983.80 L 972.55 982.20 L 969.98 980.64 L 967.43 979.05 L 964.89 977.46 L 962.39 975.85 L 959.93 974.20 L 957.49 972.53 L 955.06 970.87 L 952.63 969.24 L 950.19 967.64 L 947.75 966.05 L 945.33 964.46 L 942.93 962.86 L 940.53 961.28 L 938.13 959.73 L 935.69 958.26 L 933.22 956.86 L 930.76 955.46 L 928.31 954.08 L 925.89 952.66 L 923.46 951.28 L 921.04 949.90 L 918.64 948.53 L 916.22 947.19 L 913.82 945.84 L 911.44 944.49 L 909.07 943.15 L 906.71 941.80 L 904.38 940.43 L 902.07 939.04 L 899.76 937.67 L 897.50 936.24 L 895.25 934.82 L 892.99 933.44 L 890.75 932.06 L 888.50 930.70 L 886.25 929.37 L 884.03 928.02 L 881.81 926.68 L 879.61 925.33 L 877.43 923.96 L 875.24 922.64 L 873.04 921.34 L 870.86 920.03" stroke="rgb(140,255,190)" stroke-opacity="0.715" stroke-width="1.13" />
  <path d="M 1001.69 994.71 L 999.07 993.04 L 996.46 991.37 L 993.87 989.70 L 991.31 988.02 L 988.79 986.28 L 986.28 984.55 L 983.79 982.82 L 981.31 981.08 L 978.89 979.30 L 976.50 977.49 L 974.12 975.69 L 971.81 973.81 L 969.53 971.92 L 967.29 970.00" stroke="rgb(140,255,190)" stroke-opacity="0.715" stroke-width="1.13" />
  <path d="M 1003.78 1002.50 L 1001.25 1000.88 L 998.78 999.21 L 996.24 997.67 L 993.68 996.18 L 991.15 994.68 L 988.66 993.16 L 986.18 991.65 L 983.75 990.06 L 981.33 988.46 L 978.92 986.88 L 976.54 985.28 L 974.16 983.70 L 971.80 982.11 L 969.46 980.50 L 967.09 978.93 L 964.75 977.35 L 962.41 975.79 L 960.09 974.24 L 957.76 972.71 L 955.45 971.15 L 953.18 969.56 L 950.89 968.01 L 948.57 966.55 L 946.25 965.08 L 943.94 963.65 L 941.65 962.16 L 939.39 960.68 L 937.14 959.18 L 934.91 957.68 L 932.68 956.19 L 930.40 954.79 L 928.11 953.41 L 925.81 952.07 L 923.54 950.70 L 921.29 949.32 L 919.03 947.97 L 916.79 946.62 L 914.56 945.29 L 912.34 943.96" stroke="rgb(140,255,190)" stroke-opacity="0.536" stroke-width="1.13" />
  <path d="M 1000.08 1002.44 L 997.38 1000.91 L 994.71 999.39 L 992.03 997.88 L 989.37 996.39 L 986.74 994.85 L 984.10 993.34 L 981.49 991.82 L 978.87 990.34 L 976.28 988.82 L 973.70 987.33 L 971.15 985.78 L 968.54 984.37 L 965.91 983.03 L 963.27 981.73 L 960.64 980.42 L 958.03 979.12 L 955.45 977.79 L 952.88 976.44 L 950.33 975.10" stroke="rgb(140,255,190)" stroke-opacity="0.536" stroke-width="1.13" />
  <path d="M 940.68 956.17 L 937.75 955.22 L 934.82 954.27 L 931.91 953.31 L 929.00 952.42 L 926.11 951.50 L 923.21 950.66 L 920.32 949.86 L 917.44 949.06 L 914.56 948.27 L 911.69 947.51 L 908.84 946.74 L 905.99 946.02 L 903.16 945.33 L 900.34 944.54 L 897.54 943.72 L 894.75 942.90 L 891.97 942.07" stroke="rgb(140,255,190)" stroke-opacity="0.535" stroke-width="1.13" />
  <path d="M 1001.30 997.08 L 998.84 995.18 L 996.39 993.28 L 993.96 991.37 L 991.54 989.47 L 989.13 987.58 L 986.72 985.70 L 984.30 983.85 L 981.87 982.05 L 979.47 980.23 L 977.08 978.41 L 974.71 976.58 L 972.37 974.74 L 970.02 972.92 L 967.65 971.16 L 965.26 969.43 L 962.84 967.78 L 960.39 966.20 L 957.94 964.62 L 955.54 963.00 L 953.16 961.37 L 950.79 959.75 L 948.40 958.16 L 946.03 956.58 L 943.66 955.01 L 941.31 953.45 L 938.96 951.89 L 936.61 950.36 L 934.28 948.82 L 931.93 947.33 L 929.59 945.84 L 927.25 944.37 L 924.97 942.84 L 922.69 941.32 L 920.44 939.78 L 918.19 938.26 L 915.95 936.73 L 913.72 935.23 L 911.50 933.72 L 909.28 932.23 L 907.05 930.77 L 904.84 929.30 L 902.67 927.80 L 900.49 926.33 L 898.29 924.90 L 896.10 923.48 L 893.87 922.14 L 891.64 920.83 L 889.42 919.53 L 887.20 918.24" stroke="rgb(140,255,190)" stroke-opacity="0.713" stroke-width="1.13" />
  <path d="M 916.79 946.62 L 914.27 945.09 L 911.77 943.55 L 909.28 942.04 L 906.80 940.56 L 904.36 939.09 L 901.89 937.70 L 899.45 936.33 L 897.00 934.91 L 894.57 933.47 L 892.12 932.05 L 889.61 930.66 L 887.14 929.29 L 884.67 927.92 L 882.21 926.51 L 879.80 925.05 L 877.40 923.63 L 875.02 922.17 L 872.67 920.69 L 870.42 919.07 L 868.16 917.50 L 865.88 915.98 L 863.64 914.45 L 861.41 912.90 L 859.16 911.39 L 856.92 909.89 L 854.71 908.41 L 852.49 906.98 L 850.28 905.56 L 848.07 904.16 L 845.89 902.74 L 843.73 901.33 L 841.58 899.94 L 839.45 898.55 L 837.32 897.16 L 835.24 895.76 L 833.13 894.38 L 831.03 893.01 L 828.98 891.57 L 826.93 890.19 L 824.93 888.76 L 822.87 887.39 L 820.81 886.04 L 818.75 884.69 L 816.70 883.35 L 814.61 882.04 L 812.51 880.73 L 810.39 879.45 L 808.27 878.19 L 806.17 876.93 L 804.07 875.68 L 801.99 874.49 L 799.94 873.22 L 797.95 871.90 L 795.98 870.52 L 794.04 869.12 L 792.10 867.73 L 790.23 866.29 L 788.37 864.88 L 786.52 863.44 L 784.66 861.98 L 782.86 860.48 L 781.10 858.94 L 779.37 857.36 L 777.69 855.78 L 776.03 854.17" stroke="rgb(140,255,190)" stroke-opacity="0.711" stroke-width="1.12" />
  <path d="M 952.24 972.34 L 949.33 972.16 L 946.43 971.97 L 943.54 971.81 L 940.66 971.70 L 937.79 971.60 L 934.93 971.56 L 932.07 971.55 L 929.23 971.52 L 926.40 971.47 L 923.59 971.42 L 920.78 971.38 L 917.99 971.27 L 915.20 971.19 L 912.43 971.04 L 909.67 970.86 L 906.92 970.74 L 904.18 970.62 L 901.45 970.57 L 898.74 970.54" stroke="rgb(140,255,190)" stroke-opacity="0.533" stroke-width="1.12" />
  <path d="M 866.74 923.67 L 864.85 921.89 L 862.97 920.10 L 861.07 918.37 L 859.26 916.60 L 857.46 914.84 L 855.67 913.06 L 853.88 911.29 L 852.16 909.43 L 850.42 907.58 L 848.72 905.69 L 847.01 903.82 L 845.27 902.02 L 843.53 900.22 L 841.76 898.43 L 839.99 896.63" stroke="rgb(140,255,190)" stroke-opacity="0.531" stroke-width="1.11" />
  <path d="M 973.00 981.40 L 970.85 980.40 L 968.70 979.34 L 966.63 978.19 L 964.57 977.07 L 962.51 976.01 L 960.43 974.96 L 958.35 973.90 L 956.25 972.91 L 954.17 971.93 L 952.10 970.96 L 950.00 970.08 L 947.91 969.24 L 945.85 968.35 L 943.76 967.64 L 941.61 966.98 L 939.50 966.27 L 937.40 965.57 L 935.30 964.91 L 933.27 964.28 L 931.34 963.50 L 929.40 962.77 L 927.48 962.07 L 925.53 961.31 L 923.58 960.56 L 921.63 959.75 L 919.67 958.93 L 917.71 958.10 L 915.75 957.23 L 913.81 956.41 L 911.87 955.58 L 909.95 954.76 L 908.05 954.01 L 906.16 953.30 L 904.26 952.66 L 902.38 952.05 L 900.45 951.55 L 898.55 951.06 L 896.66 950.62 L 894.78 950.17 L 892.90 949.73 L 891.02 949.30 L 889.12 948.94 L 887.21 948.55 L 885.32 948.15 L 883.43 947.77 L 881.56 947.39 L 879.71 947.11 L 877.84 946.85 L 875.99 946.60 L 874.11 946.45" stroke="rgb(140,255,190)" stroke-opacity="0.531" stroke-width="1.11" />
  <path d="M 1000.85 999.94 L 999.00 1001.20 L 997.12 1002.44 L 995.25 1003.67 L 993.43 1004.88 L 991.62 1006.08 L 989.81 1007.27 L 988.16 1008.57 L 986.51 1009.88 L 984.96 1011.27 L 983.45 1012.76 L 981.95 1014.24 L 980.52 1015.74 L 979.10 1017.20 L 977.66 1018.64 L 976.25 1020.04 L 974.87 1021.37 L 973.47 1022.68 L 972.07 1023.95 L 970.65 1025.22 L 969.31 1026.51 L 967.91 1027.88 L 966.65 1029.25 L 965.44 1030.59 L 964.17 1031.88 L 962.86 1033.08 L 961.59 1034.32 L 960.33 1035.57 L 959.02 1036.84 L 957.74 1038.11 L 956.49 1039.40 L 955.24 1040.67 L 954.10 1041.93 L 952.91 1043.09 L 951.61 1044.23 L 950.29 1045.34 L 948.97 1046.48 L 947.66 1047.56 L 946.32 1048.67 L 944.95 1049.74 L 943.53 1050.76 L 942.11 1051.72 L 940.70 1052.72 L 939.25 1053.65 L 937.91 1054.59 L 936.56 1055.53 L 935.24 1056.49 L 933.89 1057.35 L 932.53 1058.20 L 931.18 1059.05 L 929.84 1059.96 L 928.61 1060.91 L 927.42 1061.85 L 926.19 1062.83" stroke="rgb(205,165,255)" stroke-opacity="0.470" stroke-width="1.11" />
  <path d="M 1002.65 998.69 L 999.90 997.42 L 997.17 996.13 L 994.47 994.81 L 991.78 993.53 L 989.09 992.25 L 986.38 991.05 L 983.67 989.90 L 980.96 988.79" stroke="rgb(140,255,190)" stroke-opacity="0.530" stroke-width="1.11" />
  <path d="M 997.80 997.94 L 995.21 996.38 L 992.63 994.85 L 990.06 993.33 L 987.49 991.82 L 984.94 990.32 L 982.42 988.78 L 979.87 987.31 L 977.32 985.86 L 974.80 984.40 L 972.26 982.97 L 969.74 981.55 L 967.22 980.13 L 964.74 978.68 L 962.25 977.28 L 959.82 975.82 L 957.38 974.39 L 954.98 972.92 L 952.60 971.46 L 950.22 970.03 L 947.84 968.60 L 945.48 967.18 L 943.10 965.81 L 940.76 964.39 L 938.44 962.97 L 936.09 961.61 L 933.80 960.21 L 931.51 958.82 L 929.25 957.44 L 926.98 956.06 L 924.74 954.61 L 922.50 953.18 L 920.27 951.76 L 918.04 950.34 L 915.81 948.95 L 913.64 947.48 L 911.48 946.04 L 909.29 944.64 L 907.13 943.22 L 904.94 941.86 L 902.77 940.48 L 900.57 939.21 L 898.40 937.93 L 896.21 936.68 L 894.03 935.44 L 891.84 934.22 L 889.68 932.99 L 887.53 931.78 L 885.40 930.56 L 883.30 929.29 L 881.21 928.03 L 879.14 926.74 L 877.07 925.48 L 875.03 924.19 L 872.98 922.94 L 870.95 921.66 L 868.93 920.40 L 866.91 919.15 L 864.85 917.98 L 862.78 916.86 L 860.73 915.73 L 858.70 914.58 L 856.69 913.40 L 854.68 912.24 L 852.66 911.11" stroke="rgb(140,255,190)" stroke-opacity="0.530" stroke-width="1.11" />
  <path d="M 890.21 948.64 L 887.79 947.45 L 885.41 946.24 L 883.04 945.03 L 880.69 943.81 L 878.36 942.58 L 876.04 941.43 L 873.75 940.23 L 871.49 939.04 L 869.21 937.90 L 866.98 936.71 L 864.76 935.55 L 862.54 934.41 L 860.37 933.20 L 858.14 932.09 L 856.05 930.84 L 853.98 929.57 L 851.85 928.38 L 849.72 927.19 L 847.60 926.01 L 845.52 924.78 L 843.46 923.58 L 841.51 922.26 L 839.56 920.89 L 837.79 919.35 L 835.99 917.84 L 834.27 916.19" stroke="rgb(140,255,190)" stroke-opacity="0.529" stroke-width="1.11" />
  <path d="M 931.14 959.46 L 928.35 958.90 L 925.57 958.34 L 922.83 957.75 L 920.09 957.16 L 917.39 956.53 L 914.69 955.96 L 912.00 955.38 L 909.30 954.79 L 906.60 954.18 L 903.89 953.61 L 901.20 953.05 L 898.51 952.51 L 895.84 951.94 L 893.18 951.43 L 890.49 950.93 L 887.83 950.33 L 885.21 949.67 L 882.62 949.05 L 880.05 948.47 L 877.46 947.87 L 874.87 947.27 L 872.28 946.68 L 869.68 946.12 L 867.10 945.64 L 864.56 945.08 L 862.02 944.54 L 859.45 944.13 L 856.91 943.67 L 854.38 943.22 L 851.86 942.75 L 849.35 942.18 L 846.83 941.57 L 844.33 940.95 L 841.84 940.27 L 839.37 939.62 L 836.90 938.99 L 834.45 938.33 L 832.01 937.66 L 829.60 936.94 L 827.22 936.18 L 824.84 935.43" stroke="rgb(140,255,190)" stroke-opacity="0.529" stroke-width="1.11" />
  <path d="M 998.42 1002.69 L 996.45 1000.94 L 994.44 999.29 L 992.42 997.66 L 990.42 996.02 L 988.48 994.34 L 986.52 992.68 L 984.54 991.07 L 982.55 989.49 L 980.60 987.89 L 978.68 986.27 L 976.81 984.61 L 974.90 983.00 L 973.00 981.40 L 971.11 979.78 L 969.23 978.17 L 967.35 976.57 L 965.50 974.95 L 963.66 973.34 L 961.78 971.77 L 959.89 970.25 L 957.99 968.74 L 956.11 967.22 L 954.25 965.70 L 952.37 964.21 L 950.47 962.75 L 948.55 961.35 L 946.62 959.97 L 944.65 958.67 L 942.66 957.42 L 940.68 956.17 L 938.72 954.92 L 936.78 953.64 L 934.82 952.41 L 932.86 951.19 L 930.92 949.97 L 928.97 948.76 L 927.06 947.52 L 925.15 946.29 L 923.20 945.16" stroke="rgb(140,255,190)" stroke-opacity="0.527" stroke-width="1.10" />
  <path d="M 1000.23 1000.69 L 997.70 999.22 L 995.13 997.86 L 992.57 996.49 L 989.98 995.22 L 987.41 993.92 L 984.83 992.67 L 982.25 991.44 L 979.74 990.10 L 977.25 988.77 L 974.70 987.56 L 972.18 986.32 L 969.68 985.06 L 967.18 983.82 L 964.72 982.56" stroke="rgb(140,255,190)" stroke-opacity="0.527" stroke-width="1.10" />
  <path d="M 959.50 970.16 L 956.93 969.68 L 954.36 969.22 L 951.81 968.83 L 949.28 968.38 L 946.78 968.03 L 944.27 967.69 L 941.76 967.27 L 939.25 966.89 L 936.75 966.51 L 934.26 966.10 L 931.77 965.70 L 929.28 965.34 L 926.80 964.89 L 924.38 964.37 L 921.93 963.94 L 919.47 963.58 L 917.01 963.23 L 914.58 962.87 L 912.15 962.47 L 909.71 962.09 L 907.30 961.71 L 904.88 961.34 L 902.45 961.08 L 900.02 960.81 L 897.61 960.56 L 895.22 960.34 L 892.84 960.12 L 890.51 959.94 L 888.18 959.74 L 885.84 959.67 L 883.51 959.63 L 881.18 959.54 L 878.87 959.44 L 876.57 959.29 L 874.29 959.18 L 872.03 959.10 L 869.78 959.02 L 867.58 958.99 L 865.37 958.97 L 863.14 958.91 L 860.92 958.85 L 858.70 958.84 L 856.50 958.83 L 854.30 958.82 L 852.12 958.75 L 849.96 958.75 L 847.81 958.75 L 845.67 958.76 L 843.56 958.69 L 841.46 958.58 L 839.34 958.50 L 837.24 958.40 L 835.14 958.30 L 833.03 958.23 L 830.92 958.09" stroke="rgb(140,255,190)" stroke-opacity="0.525" stroke-width="1.09" />
  <path d="M 1003.47 1000.28 L 1001.75 1000.05 L 1000.05 999.82 L 998.43 999.53 L 996.85 999.30 L 995.26 999.06 L 993.67 998.82" stroke="rgb(205,165,255)" stroke-opacity="0.465" stroke-width="1.09" />
  <path d="M 846.83 941.57 L 844.25 941.31 L 841.67 941.16 L 839.13 940.98 L 836.61 940.83 L 834.10 940.67 L 831.59 940.51 L 829.11 940.33 L 826.65 940.19 L 824.20 940.04 L 821.74 939.90 L 819.26 939.91 L 816.79 939.92 L 814.34 939.80 L 811.90 939.68 L 809.47 939.55 L 807.04 939.47 L 804.60 939.43 L 802.16 939.34 L 799.74 939.25 L 797.32 939.23 L 794.91 939.22 L 792.52 939.22 L 790.14 939.23 L 787.76 939.18 L 785.40 939.24 L 783.04 939.13" stroke="rgb(140,255,190)" stroke-opacity="0.524" stroke-width="1.09" />
  <path d="M 865.37 958.97 L 862.71 959.24 L 860.04 959.57 L 857.37 959.89 L 854.71 960.22 L 852.10 960.63 L 849.51 961.11 L 846.92 961.62 L 844.35 962.13 L 841.75 962.67 L 839.17 963.20 L 836.59 963.77 L 833.99 964.27 L 831.40 964.77 L 828.83 965.26 L 826.26 965.81 L 823.72 966.39 L 821.18 966.96" stroke="rgb(140,255,190)" stroke-opacity="0.524" stroke-width="1.09" />
  <path d="M 999.89 998.81 L 997.72 997.18 L 995.55 995.55 L 993.41 993.92 L 991.29 992.27 L 989.11 990.72 L 986.96 989.15 L 984.80 987.58 L 982.63 986.07 L 980.49 984.53 L 978.35 982.99 L 976.17 981.54 L 974.02 980.08 L 971.85 978.66 L 969.66 977.28 L 967.51 975.86 L 965.39 974.42 L 963.25 973.02 L 961.20 971.51 L 959.15 970.02" stroke="rgb(140,255,190)" stroke-opacity="0.524" stroke-width="1.09" />
  <path d="M 1003.63 998.31 L 1001.06 997.29 L 998.50 996.33 L 995.91 995.41 L 993.36 994.50 L 990.80 993.63 L 988.27 992.74 L 985.73 991.89 L 983.18 991.13 L 980.63 990.39 L 978.08 989.65 L 975.55 988.92 L 973.02 988.19 L 970.49 987.57 L 967.99 986.94 L 965.50 986.26 L 963.02 985.55 L 960.54 984.90 L 958.03 984.32 L 955.53 983.77 L 953.05 983.22 L 950.60 982.57 L 948.14 981.96 L 945.70 981.35 L 943.26 980.77 L 940.83 980.20 L 938.40 979.61 L 935.98 978.99 L 933.57 978.38 L 931.17 977.78 L 928.77 977.19 L 926.37 976.65 L 923.95 976.24 L 921.52 975.94 L 919.10 975.65 L 916.70 975.35 L 914.31 975.01 L 911.93 974.70 L 909.57 974.35 L 907.23 973.95 L 904.90 973.54 L 902.59 973.16 L 900.27 972.82 L 897.96 972.52 L 895.68 972.12 L 893.41 971.73 L 891.15 971.33 L 888.89 970.98 L 886.62 970.68 L 884.37 970.39 L 882.12 970.10 L 879.89 969.77 L 877.66 969.46 L 875.44 969.11 L 873.23 968.78 L 871.02 968.45 L 868.82 968.14 L 866.64 967.81 L 864.47 967.45 L 862.32 967.09" stroke="rgb(140,255,190)" stroke-opacity="0.522" stroke-width="1.08" />
  <path d="M 1000.21 999.76 L 998.23 998.71 L 996.27 997.66 L 994.31 996.63 L 992.33 995.64 L 990.35 994.67 L 988.45 993.56 L 986.61 992.39 L 984.75 991.29 L 982.89 990.18 L 981.05 989.07 L 979.19 988.00 L 977.32 986.98 L 975.46 985.96 L 973.67 984.89 L 971.88 983.80 L 970.12 982.67 L 968.37 981.54 L 966.59 980.45 L 964.82 979.34 L 963.04 978.25 L 961.24 977.24 L 959.50 976.21 L 957.77 975.17 L 956.07 974.06 L 954.43 972.88 L 952.80 971.69 L 951.17 970.53 L 949.57 969.36 L 947.94 968.27 L 946.29 967.22 L 944.64 966.18 L 943.01 965.16 L 941.33 964.19 L 939.66 963.22 L 937.99 962.26 L 936.37 961.25 L 934.75 960.22 L 933.20 959.17 L 931.68 958.09 L 930.19 957.01 L 928.73 955.94 L 927.24 954.93 L 925.79 953.91 L 924.36 952.85 L 922.89 951.92 L 921.40 951.06 L 919.92 950.21 L 918.45 949.35 L 917.01 948.46 L 915.57 947.52 L 914.15 946.62 L 912.72 945.75 L 911.33 944.82 L 910.01 943.81" stroke="rgb(205,165,255)" stroke-opacity="0.451" stroke-width="1.04" />
  <path d="M 1002.86 1001.07 L 1000.72 1000.67 L 998.57 1000.22 L 996.43 999.76 L 994.31 999.21 L 992.20 998.69 L 990.13 998.18 L 988.09 997.63 L 986.06 997.03 L 984.04 996.43 L 982.00 995.87 L 979.95 995.32 L 977.91 994.81 L 975.87 994.27 L 973.87 993.72 L 971.87 993.17 L 969.88 992.62 L 967.91 992.06 L 965.94 991.54 L 963.96 991.04 L 962.03 990.47 L 960.10 989.91 L 958.18 989.36" stroke="rgb(205,165,255)" stroke-opacity="0.450" stroke-width="1.04" />
  <path d="M 1001.74 997.99 L 1002.66 997.42 L 1003.42 996.79 L 1004.11 996.18 L 1004.68 995.65 L 1005.27 995.00 L 1005.86 994.41 L 1006.41 993.86 L 1007.00 993.35 L 1007.61 992.85" stroke="rgb(230,230,230)" stroke-opacity="0.383" stroke-width="0.70" />
  <path d="M 997.14 996.56 L 996.45 997.74 L 995.69 998.88 L 994.95 1000.02 L 994.28 1001.09 L 993.64 1002.15 L 992.94 1003.22 L 992.21 1004.31 L 991.61 1005.33 L 990.96 1006.27 L 990.19 1007.08 L 989.30 1007.75" stroke="rgb(230,230,230)" stroke-opacity="0.381" stroke-width="0.70" />
  <path d="M 1003.12 1002.42 L 1003.26 1002.29 L 1003.34 1002.12 L 1003.37 1001.94 L 1003.49 1001.78 L 1003.67 1001.68 L 1003.76 1001.57 L 1003.94 1001.40 L 1004.12 1001.24" stroke="rgb(230,230,230)" stroke-opacity="0.379" stroke-width="0.69" />
  <path d="M 1000.31 1002.25 L 1000.58 1002.11 L 1000.78 1001.84 L 1001.07 1001.76 L 1001.31 1001.70" stroke="rgb(230,230,230)" stroke-opacity="0.377" stroke-width="0.69" />
  <path d="M 996.64 1005.54 L 997.53 1004.57 L 998.34 1003.59 L 999.03 1002.48 L 999.80 1001.50 L 1000.43 1000.45" stroke="rgb(230,230,230)" stroke-opacity="0.375" stroke-width="0.68" />
  <path d="M 1000.14 997.74 L 999.34 998.99 L 998.60 1000.28 L 997.94 1001.61 L 997.29 1002.93 L 996.69 1004.26 L 996.05 1005.58 L 995.40 1006.89 L 994.84 1008.22 L 994.38 1009.60 L 993.94 1010.96 L 993.44 1012.30" stroke="rgb(230,230,230)" stroke-opacity="0.372" stroke-width="0.67" />
  <path d="M 1002.86 998.46 L 1001.45 998.93 L 1000.13 999.54 L 998.83 1000.22 L 997.60 1001.03 L 996.39 1001.84 L 995.14 1002.61 L 993.97 1003.47 L 992.77 1004.29 L 991.47 1004.94 L 990.20 1005.61 L 988.99 1006.38 L 987.75 1007.05 L 986.52 1007.74" stroke="rgb(230,230,230)" stroke-opacity="0.369" stroke-width="0.67" />
  <path d="M 999.03 999.48 L 999.69 1000.27 L 1000.31 1001.02 L 1000.90 1001.73 L 1001.49 1002.42 L 1001.96 1003.00 L 1002.24 1003.50 L 1002.50 1004.02 L 1002.84 1004.55" stroke="rgb(230,230,230)" stroke-opacity="0.367" stroke-width="0.66" />
  <path d="M 999.97 1006.67 L 1001.35 1007.22 L 1002.73 1007.64 L 1004.12 1008.05 L 1005.53 1008.45 L 1006.93 1008.81 L 1008.31 1009.15 L 1009.64 1009.43 L 1010.98 1009.66" stroke="rgb(230,230,230)" stroke-opacity="0.365" stroke-width="0.65" />
  <path d="M 996.25 1009.41 L 996.60 1008.40 L 996.91 1007.26 L 997.18 1006.06 L 997.57 1004.88 L 997.86 1003.69 L 998.21 1002.54 L 998.64 1001.37" stroke="rgb(230,230,230)" stroke-opacity="0.359" stroke-width="0.64" />
  <path d="M 998.67 994.13 L 998.22 993.73 L 997.67 993.27 L 997.17 992.69 L 996.85 992.00 L 996.48 991.30" stroke="rgb(230,230,230)" stroke-opacity="0.355" stroke-width="0.62" />
  <path d="M 998.93 999.51 L 997.64 999.32 L 996.29 999.19 L 994.94 999.02 L 993.61 998.81 L 992.28 998.59" stroke="rgb(230,230,230)" stroke-opacity="0.355" stroke-width="0.62" />
  <path d="M 1006.20 1001.89 L 1006.54 1000.59 L 1006.79 999.26 L 1007.03 997.94 L 1007.24 996.63 L 1007.32 995.32 L 1007.32 994.03 L 1007.21 992.72 L 1007.18 991.40 L 1007.14 990.09 L 1007.07 988.78 L 1006.98 987.49" stroke="rgb(230,230,230)" stroke-opacity="0.354" stroke-width="0.62" />
  <path d="M 1005.71 1004.10 L 1007.13 1003.86 L 1008.55 1003.64 L 1010.00 1003.45 L 1011.44 1003.17 L 1012.89 1003.00 L 1014.35 1002.88 L 1015.79 1002.77 L 1017.24 1002.67 L 1018.69 1002.67 L 1020.13 1002.67 L 1021.57 1002.67 L 1023.00 1002.67 L 1024.43 1002.67 L 1025.85 1002.70 L 1027.26 1002.78" stroke="rgb(230,230,230)" stroke-opacity="0.354" stroke-width="0.62" />
  <path d="M 995.46 994.49 L 996.62 993.57 L 997.82 992.68 L 999.01 991.80 L 1000.20 990.93 L 1001.41 990.08 L 1002.56 989.16 L 1003.65 988.19 L 1004.76 987.25 L 1005.87 986.30 L 1006.97 985.37 L 1008.09 984.48" stroke="rgb(230,230,230)" stroke-opacity="0.353" stroke-width="0.62" />
  <path d="M 996.94 1001.80 L 996.87 1002.09 L 996.86 1002.42 L 996.99 1002.60 L 997.09 1002.88 L 997.07 1003.18 L 997.08 1003.47 L 996.95 1003.77 L 996.85 1004.08 L 996.71 1004.42 L 996.64 1004.78 L 996.58 1005.11" stroke="rgb(230,230,230)" stroke-opacity="0.352" stroke-width="0.62" />
  <path d="M 1000.67 1005.83 L 999.58 1005.88 L 998.43 1006.14 L 997.31 1006.69" stroke="rgb(230,230,230)" stroke-opacity="0.352" stroke-width="0.62" />
  <path d="M 1002.13 994.53 L 1003.27 995.48 L 1004.36 996.48 L 1005.44 997.46 L 1006.53 998.41" stroke="rgb(230,230,230)" stroke-opacity="0.350" stroke-width="0.61" />
</g>
</svg>
