{
  "asset": {
    "version": "2.0",
    "generator": "TES-23 Cosmic Ray Renderer"
  },
  "extensionsUsed": [
    "KHR_materials_unlit"
  ],
  "extensionsRequired": [
    "KHR_materials_unlit"
  ],
  "scene": 0,
  "scenes": [
    {
      "nodes": [
        0
      ]
    }
  ],
  "nodes": [
    {
      "name": "CosmicRayEvent",
      "mesh": 0
    }
  ],
  "meshes": [
    {
      "name": "CosmicRayEvent",
      "primitives": [
        {
          "attributes": {
            "POSITION": 0
          },
          "material": 0,
          "mode": 1
        },
        {
          "attributes": {
            "POSITION": 1
          },
          "material": 1,
          "mode": 1
        },
        {
          "attributes": {
            "POSITION": 2
          },
          "material": 2,
          "mode": 1
        }
      ]
    }
  ],
  "materials": [
    {
      "name": "primary",
      "extensions": {
        "KHR_materials_unlit": {}
      },
      "pbrMetallicRoughness": {
        "baseColorFactor": [
          0.961,
          0.961,
          0.961,
          1
        ],
        "metallicFactor": 0,
        "roughnessFactor": 1
      }
    },
    {
      "name": "vertex",
      "extensions": {
        "KHR_materials_unlit": {}
      },
      "pbrMetallicRoughness": {
        "baseColorFactor": [
          0.902,
          0.902,
          0.902,
          0.9
        ],
        "metallicFactor": 0,
        "roughnessFactor": 1
      }
    },
    {
      "name": "em",
      "extensions": {
        "KHR_materials_unlit": {}
      },
      "pbrMetallicRoughness": {
        "baseColorFactor": [
          0.471,
          0.824,
          1,
          1
        ],
        "metallicFactor": 0,
        "roughnessFactor": 1
      }
    }
  ],
  "accessors": [
    {
      "bufferView": 0,
      "byteOffset": 0,
      "componentType": 5126,
      "count": 1722,
      "type": "VEC3",
      "min": [
        -0.9999299049377441,
        -0.7515062689781189,
        0
      ],
      "max": [
        1.0206358432769775,
        0.8176624774932861,
        0
      ]
    },
    {
      "bufferView": 1,
      "byteOffset": 0,
      "componentType": 5126,
      "count": 318,
      "type": "VEC3",
      "min": [
        -0.01618769019842148,
        -0.008493081666529179,
        -0.04974275827407837
      ],
      "max": [
        0.017280498519539833,
        0.016190269961953163,
        0.08021023124456406
      ]
    },
    {
      "bufferView": 2,
      "byteOffset": 0,
      "componentType": 5126,
      "count": 1130,
      "type": "VEC3",
      "min": [
        -0.00470830500125885,
        -0.0031305807642638683,
        -0.07806037366390228
      ],
      "max": [
        0.2162356674671173,
        0.18731871247291565,
        0.047629401087760925
      ]
    }
  ],
  "bufferViews": [
    {
      "buffer": 0,
      "byteOffset": 0,
      "byteLength": 20664,
      "target": 34962
    },
    {
      "buffer": 0,
      "byteOffset": 20664,
      "byteLength": 3816,
      "target": 34962
    },
    {
      "buffer": 0,
      "byteOffset": 24480,
      "byteLength": 13560,
      "target": 34962
    }
  ],
  "buffers": [
    {
      "byteLength": 38040,
      "uri": "data:application/octet-stream;base64,"
    }
  ]
}