{
  "asset": {
    "version": "2.0",
    "generator": "TES-23 Cosmic Ray Renderer"
  },
  "extensionsUsed": [
    "KHR_materials_unlit"
  ],
  "extensionsRequired": [
    "KHR_materials_unlit"
  ],
  "scene": 0,
  "scenes": [
    {
      "nodes": [
        0
      ]
    }
  ],
  "nodes": [
    {
      "name": "CosmicRayEvent",
      "mesh": 0
    }
  ],
  "meshes": [
    {
      "name": "CosmicRayEvent",
      "primitives": [
        {
          "attributes": {
            "POSITION": 0
          },
          "material": 0,
          "mode": 1
        },
        {
          "attributes": {
            "POSITION": 1
          },
          "material": 1,
          "mode": 1
        },
        {
          "attributes": {
            "POSITION": 2
          },
          "material": 2,
          "mode": 1
        }
      ]
    }
  ],
  "materials": [
    {
      "name": "primary",
      "extensions": {
        "KHR_materials_unlit": {}
      },
      "pbrMetallicRoughness": {
        "baseColorFactor": [
          0.961,
          0.961,
          0.961,
          1
        ],
        "metallicFactor": 0,
        "roughnessFactor": 1
      }
    },
    {
      "name": "vertex",
      "extensions": {
        "KHR_materials_unlit": {}
      },
      "pbrMetallicRoughness": {
        "baseColorFactor": [
          0.902,
          0.902,
          0.902,
          0.9
        ],
        "metallicFactor": 0,
        "roughnessFactor": 1
      }
    },
    {
      "name": "em",
      "extensions": {
        "KHR_materials_unlit": {}
      },
      "pbrMetallicRoughness": {
        "baseColorFactor": [
          0.471,
          0.824,
          1,
          1
        ],
        "metallicFactor": 0,
        "roughnessFactor": 1
      }
    }
  ],
  "accessors": [
    {
      "bufferView": 0,
      "byteOffset": 0,
      "componentType": 5126,
      "count": 1372,
      "type": "VEC3",
      "min": [
        -0.18518435955047607,
        -1.0001506805419922,
        0
      ],
      "max": [
        0.18893130123615265,
        1.0211682319641113,
        0
      ]
    },
    {
      "bufferView": 1,
      "byteOffset": 0,
      "componentType": 5126,
      "count": 260,
      "type": "VEC3",
      "min": [
        -0.01610301434993744,
        -0.009940169751644135,
        -0.06711308658123016
      ],
      "max": [
        0.01596686989068985,
        0.014109601266682148,
        0.07947184890508652
      ]
    },
    {
      "bufferView": 2,
      "byteOffset": 0,
      "componentType": 5126,
      "count": 2936,
      "type": "VEC3",
      "min": [
        -0.11354056000709534,
        -0.0016314118402078748,
        -0.2720046937465668
      ],
      "max": [
        0.005209391936659813,
        0.38844767212867737,
        0.25381699204444885
      ]
    }
  ],
  "bufferViews": [
    {
      "buffer": 0,
      "byteOffset": 0,
      "byteLength": 16464,
      "target": 34962
    },
    {
      "buffer": 0,
      "byteOffset": 16464,
      "byteLength": 3120,
      "target": 34962
    },
    {
      "buffer": 0,
      "byteOffset": 19584,
      "byteLength": 35232,
      "target": 34962
    }
  ],
  "buffers": [
    {
      "byteLength": 54816,
      "uri": "data:application/octet-stream;base64,"
    }
  ]
}