<?xml version="1.0" encoding="UTF-8"?>
<svg xmlns="http://www.w3.org/2000/svg" width="2000" height="2000" viewBox="0 0 2000 2000">
<g fill="none" stroke-linecap="round" stroke-linejoin="round">
  <path d="M 999.31 998.09 L 1001.89 995.94 L 1004.46 993.80 L 1007.00 991.63 L 1009.55 989.49 L 1012.10 987.38 L 1014.68 985.35 L 1017.26 983.33 L 1019.83 981.32 L 1022.41 979.34 L 1025.00 977.38 L 1027.55 975.41 L 1030.07 973.42 L 1032.59 971.44 L 1035.10 969.48 L 1037.57 967.49 L 1040.02 965.48 L 1042.47 963.50 L 1044.91 961.53 L 1047.35 959.57 L 1049.79 957.62 L 1052.23 955.69 L 1054.66 953.77 L 1057.07 951.85 L 1059.47 949.92 L 1061.86 947.99 L 1064.23 946.06 L 1066.57 944.12 L 1068.93 942.21 L 1071.29 940.33 L 1073.65 938.46 L 1076.00 936.60 L 1078.31 934.71 L 1080.61 932.83 L 1082.92 930.98 L 1085.23 929.15 L 1087.53 927.33 L 1089.82 925.52 L 1092.09 923.70 L 1094.36 921.91 L 1096.62 920.11 L 1098.87 918.32 L 1101.10 916.53 L 1103.33 914.75 L 1105.54 912.98 L 1107.74 911.20 L 1109.93 909.42 L 1112.07 907.61 L 1114.18 905.78" stroke="rgb(120,210,255)" stroke-opacity="0.855" stroke-width="1.64" />
  <path d="M 1051.98 960.40 L 1054.37 958.35 L 1056.73 956.32 L 1059.07 954.30 L 1061.41 952.29 L 1063.72 950.26 L 1066.01 948.24 L 1068.30 946.23 L 1070.54 944.20 L 1072.73 942.13 L 1074.91 940.05 L 1077.17 938.07 L 1079.43 936.10 L 1081.66 934.11 L 1083.87 932.14 L 1086.03 930.12 L 1088.17 928.11 L 1090.29 926.08 L 1092.40 924.07 L 1094.51 922.07 L 1096.62 920.10 L 1098.70 918.11 L 1100.76 916.11 L 1102.80 914.11 L 1104.85 912.14 L 1106.89 910.17 L 1108.87 908.17 L 1110.80 906.11 L 1112.67 904.04 L 1114.53 901.96 L 1116.41 899.92 L 1118.27 897.87 L 1120.19 895.88 L 1122.03 893.82 L 1123.85 891.76 L 1125.71 889.74 L 1127.54 887.72 L 1129.36 885.69 L 1131.24 883.74 L 1133.09 881.77 L 1134.94 879.82 L 1136.76 877.85 L 1138.58 875.91 L 1140.42 874.00 L 1142.21 872.07 L 1144.01 870.16 L 1145.81 868.26 L 1147.66 866.43 L 1149.45 864.56 L 1151.25 862.72 L 1153.00 860.85 L 1154.76 858.99 L 1156.54 857.16 L 1158.31 855.34 L 1160.07 853.52 L 1161.82 851.72 L 1163.50 849.87 L 1165.17 848.01 L 1166.83 846.17 L 1168.46 844.32 L 1170.09 842.47 L 1171.71 840.63 L 1173.34 838.80 L 1174.93 836.96 L 1176.46 835.09 L 1178.02 833.25 L 1179.56 831.42 L 1181.10 829.60 L 1182.64 827.80 L 1184.18 826.04 L 1185.73 824.28 L 1187.29 822.58 L 1188.86 820.91 L 1190.46 819.27 L 1192.03 817.62 L 1193.61 816.00 L 1195.18 814.39 L 1196.77 812.79 L 1198.30 811.15 L 1199.85 809.53 L 1201.37 807.89 L 1202.94 806.30 L 1204.49 804.72 L 1206.04 803.14 L 1207.63 801.62 L 1209.18 800.09 L 1210.72 798.57 L 1212.27 797.06 L 1213.83 795.56 L 1215.40 794.09 L 1216.97 792.64 L 1218.54 791.19 L 1220.09 789.73 L 1221.62 788.28 L 1223.11 786.81 L 1224.57 785.32 L 1226.00 783.82 L 1227.45 782.36 L 1228.90 780.91 L 1230.32 779.47 L 1231.74 778.03 L 1233.10 776.54 L 1234.45 775.05 L 1235.78 773.55 L 1237.12 772.05 L 1238.52 770.60 L 1239.90 769.14 L 1241.27 767.67 L 1242.62 766.21 L 1243.97 764.73 L 1245.30 763.24 L 1246.64 761.77 L 1247.95 760.28 L 1249.26 758.80 L 1250.55 757.30 L 1251.85 755.82 L 1253.14 754.34 L 1254.44 752.88 L 1255.73 751.43 L 1257.02 749.98 L 1258.31 748.56 L 1259.62 747.14" stroke="rgb(120,210,255)" stroke-opacity="0.854" stroke-width="1.63" />
  <path d="M 1049.75 953.16 L 1051.99 950.73 L 1054.22 948.32 L 1056.43 945.89 L 1058.65 943.51 L 1060.91 941.18 L 1063.18 938.87 L 1065.45 936.59 L 1067.72 934.31 L 1069.98 932.05 L 1072.17 929.75 L 1074.35 927.44 L 1076.53 925.16 L 1078.68 922.87 L 1080.85 920.61 L 1083.03 918.38 L 1085.21 916.17 L 1087.39 913.97 L 1089.58 911.80 L 1091.78 909.66 L 1094.00 907.55 L 1096.21 905.46 L 1098.43 903.39 L 1100.64 901.33 L 1102.83 899.27 L 1105.01 897.21 L 1107.22 895.20 L 1109.45 893.24 L 1111.64 891.24 L 1113.82 889.25 L 1115.99 887.27" stroke="rgb(120,210,255)" stroke-opacity="0.853" stroke-width="1.63" />
  <path d="M 1001.44 1001.22 L 1003.90 999.34 L 1006.35 997.47 L 1008.79 995.61" stroke="rgb(120,210,255)" stroke-opacity="0.852" stroke-width="1.63" />
  <path d="M 1001.56 997.96 L 1004.03 996.02 L 1006.48 994.06 L 1008.91 992.11 L 1011.30 990.12 L 1013.66 988.11 L 1016.06 986.18 L 1018.46 984.27 L 1020.82 982.32 L 1023.18 980.40 L 1025.53 978.48 L 1027.85 976.55 L 1030.20 974.66 L 1032.54 972.80 L 1034.90 970.97 L 1037.24 969.14 L 1039.62 967.38 L 1042.02 965.67 L 1044.40 963.94 L 1046.72 962.16 L 1049.05 960.42 L 1051.38 958.69 L 1053.70 956.96" stroke="rgb(120,210,255)" stroke-opacity="0.852" stroke-width="1.63" />
  <path d="M 997.94 995.98 L 1000.44 994.00 L 1002.94 992.04 L 1005.42 990.08 L 1007.88 988.12 L 1010.34 986.17 L 1012.78 984.22 L 1015.20 982.27 L 1017.62 980.33 L 1020.03 978.41 L 1022.42 976.48 L 1024.78 974.54 L 1027.14 972.61 L 1029.49 970.70 L 1031.80 968.74 L 1034.08 966.77 L 1036.33 964.78 L 1038.60 962.84 L 1040.85 960.89 L 1043.10 958.96 L 1045.33 957.02 L 1047.54 955.08 L 1049.75 953.16 L 1051.95 951.24 L 1054.17 949.36 L 1056.36 947.46 L 1058.54 945.58 L 1060.71 943.70 L 1062.87 941.83 L 1065.03 939.96 L 1067.21 938.15 L 1069.40 936.37 L 1071.61 934.62" stroke="rgb(120,210,255)" stroke-opacity="0.850" stroke-width="1.62" />
  <path d="M 1000.56 999.61 L 1002.98 997.73 L 1005.41 995.87 L 1007.83 994.03 L 1010.24 992.19 L 1012.67 990.42 L 1015.09 988.63 L 1017.49 986.84 L 1019.88 985.06 L 1022.22 983.23 L 1024.54 981.40 L 1026.88 979.61 L 1029.17 977.78 L 1031.49 976.00 L 1033.79 974.22 L 1036.08 972.44 L 1038.37 970.68 L 1040.68 968.97 L 1042.97 967.25 L 1045.26 965.56 L 1047.52 963.85 L 1049.76 962.11 L 1051.98 960.40 L 1054.20 958.69 L 1056.42 957.01 L 1058.65 955.35 L 1060.87 953.69 L 1063.09 952.06 L 1065.31 950.45 L 1067.50 948.82" stroke="rgb(120,210,255)" stroke-opacity="0.468" stroke-width="1.62" />
  <path d="M 1067.21 938.15 L 1069.87 936.50 L 1072.51 934.82 L 1075.11 933.12 L 1077.68 931.39 L 1080.24 929.66 L 1082.80 927.96 L 1085.37 926.32 L 1087.92 924.67 L 1090.48 923.06 L 1093.07 921.53 L 1095.70 920.10 L 1098.29 918.62 L 1100.92 917.21 L 1103.54 915.81 L 1106.16 914.44 L 1108.72 913.00 L 1111.30 911.65 L 1113.91 910.38 L 1116.44 909.01 L 1118.96 907.64 L 1121.47 906.25 L 1124.02 904.95 L 1126.57 903.67 L 1129.12 902.41 L 1131.67 901.19 L 1134.20 899.91 L 1136.72 898.63 L 1139.23 897.36 L 1141.72 896.08 L 1144.23 894.85 L 1146.71 893.59 L 1149.19 892.35 L 1151.64 891.07 L 1154.09 889.83 L 1156.53 888.57 L 1158.97 887.32 L 1161.40 886.08 L 1163.82 884.85 L 1166.26 883.70 L 1168.71 882.58 L 1171.16 881.48 L 1173.61 880.41 L 1176.05 879.35 L 1178.47 878.27 L 1180.91 877.27 L 1183.39 876.39 L 1185.86 875.53 L 1188.33 874.66 L 1190.78 873.80 L 1193.24 872.98 L 1195.73 872.27 L 1198.20 871.55 L 1200.65 870.82 L 1203.09 870.09 L 1205.51 869.35 L 1207.92 868.62 L 1210.34 867.92 L 1212.75 867.23 L 1215.13 866.53 L 1217.50 865.82 L 1219.87 865.14 L 1222.22 864.43 L 1224.55 863.70 L 1226.88 862.98 L 1229.21 862.28 L 1231.48 861.53 L 1233.72 860.70 L 1235.95 859.88 L 1238.18 859.07 L 1240.40 858.26 L 1242.60 857.42 L 1244.79 856.59 L 1246.98 855.79 L 1249.16 854.99 L 1251.33 854.18 L 1253.47 853.35 L 1255.58 852.46 L 1257.67 851.57 L 1259.72 850.64 L 1261.76 849.74 L 1263.83 848.86 L 1265.92 848.04 L 1268.00 847.24 L 1270.07 846.40" stroke="rgb(120,210,255)" stroke-opacity="0.850" stroke-width="1.62" />
  <path d="M 1000.61 998.94 L 1003.26 996.90 L 1005.88 994.85 L 1008.49 992.79 L 1011.05 990.70 L 1013.60 988.62 L 1016.13 986.54 L 1018.64 984.45 L 1021.13 982.36 L 1023.63 980.30 L 1026.09 978.21 L 1028.51 976.10 L 1030.92 974.00 L 1033.34 971.92 L 1035.71 969.81 L 1038.08 967.72 L 1040.41 965.60 L 1042.74 963.51 L 1045.08 961.44 L 1047.41 959.37 L 1049.73 957.33 L 1052.03 955.26 L 1054.31 953.21 L 1056.59 951.16 L 1058.88 949.16 L 1061.15 947.16 L 1063.42 945.17 L 1065.69 943.19 L 1067.96 941.24 L 1070.24 939.33 L 1072.51 937.41 L 1074.79 935.52 L 1077.09 933.68 L 1079.37 931.83 L 1081.64 929.99 L 1083.92 928.18 L 1086.21 926.41 L 1088.49 924.62 L 1090.79 922.90 L 1093.08 921.17 L 1095.36 919.46 L 1097.67 917.80 L 1099.99 916.17 L 1102.28 914.53 L 1104.57 912.90 L 1106.85 911.27 L 1109.11 909.64 L 1111.40 908.06 L 1113.69 906.51 L 1115.97 904.96" stroke="rgb(120,210,255)" stroke-opacity="0.847" stroke-width="1.61" />
  <path d="M 1031.80 968.74 L 1034.30 966.63 L 1036.75 964.47 L 1039.19 962.32 L 1041.62 960.18 L 1044.04 958.04 L 1046.45 955.92 L 1048.82 953.77 L 1051.17 951.64 L 1053.46 949.44 L 1055.72 947.25 L 1057.98 945.07 L 1060.23 942.90 L 1062.49 940.77 L 1064.76 938.66 L 1067.02 936.55 L 1069.29 934.47 L 1071.50 932.35 L 1073.69 930.23 L 1075.91 928.14 L 1078.12 926.07 L 1080.30 923.97 L 1082.42 921.85 L 1084.52 919.73 L 1086.62 917.63 L 1088.72 915.55 L 1090.82 913.48 L 1092.88 911.39 L 1094.94 909.32 L 1096.99 907.25 L 1099.03 905.19 L 1101.04 903.12 L 1103.04 901.06 L 1105.03 899.00 L 1107.03 896.96 L 1108.99 894.92 L 1110.96 892.87 L 1112.90 890.83 L 1114.84 888.79 L 1116.74 886.73 L 1118.65 884.70 L 1120.59 882.71 L 1122.52 880.73 L 1124.43 878.74 L 1126.34 876.77 L 1128.29 874.85 L 1130.22 872.94 L 1132.15 871.04 L 1134.07 869.14 L 1136.03 867.31" stroke="rgb(120,210,255)" stroke-opacity="0.846" stroke-width="1.61" />
  <path d="M 1000.25 998.32 L 1002.63 996.32 L 1005.01 994.35 L 1007.40 992.40 L 1009.77 990.46 L 1012.12 988.51 L 1014.47 986.58 L 1016.81 984.65 L 1019.13 982.72 L 1021.47 980.84 L 1023.80 978.96 L 1026.15 977.12 L 1028.47 975.28 L 1030.81 973.46 L 1033.13 971.65 L 1035.44 969.85 L 1037.76 968.07 L 1040.02 966.23 L 1042.27 964.41 L 1044.45 962.51 L 1046.63 960.63 L 1048.76 958.72 L 1050.92 956.86 L 1053.06 954.99 L 1055.18 953.12 L 1057.28 951.24 L 1059.37 949.36 L 1061.48 947.53 L 1063.58 945.71 L 1065.69 943.91 L 1067.78 942.11 L 1069.90 940.36 L 1072.00 938.61 L 1074.10 936.87 L 1076.19 935.13 L 1078.27 933.39 L 1080.33 931.65 L 1082.33 929.86" stroke="rgb(120,210,255)" stroke-opacity="0.465" stroke-width="1.61" />
  <path d="M 1072.51 937.41 L 1075.32 935.48 L 1078.13 933.57 L 1080.94 931.67 L 1083.74 929.78 L 1086.52 927.91 L 1089.25 925.98 L 1091.97 924.05 L 1094.67 922.14 L 1097.36 920.21 L 1100.01 918.27 L 1102.69 916.38 L 1105.36 914.51 L 1108.00 912.61 L 1110.64 910.75 L 1113.29 908.91 L 1115.92 907.06 L 1118.55 905.25 L 1121.18 903.45 L 1123.80 901.67 L 1126.41 899.88 L 1128.99 898.08 L 1131.58 896.32 L 1134.17 894.56 L 1136.74 892.81 L 1139.32 891.10 L 1141.98 889.53 L 1144.62 887.95 L 1147.25 886.38 L 1149.86 884.81 L 1152.47 883.24 L 1155.08 881.71 L 1157.70 880.22 L 1160.32 878.75 L 1162.95 877.32 L 1165.52 875.81 L 1168.08 874.31 L 1170.62 872.82 L 1173.15 871.31 L 1175.72 869.89 L 1178.29 868.52 L 1180.85 867.14 L 1183.39 865.76 L 1185.97 864.46 L 1188.54 863.18 L 1191.09 861.89 L 1193.62 860.58 L 1196.15 859.28 L 1198.68 858.03 L 1201.19 856.75 L 1203.68 855.47 L 1206.16 854.19 L 1208.63 852.91 L 1211.10 851.66 L 1213.52 850.36 L 1215.94 849.06 L 1218.29 847.68 L 1220.64 846.30 L 1222.95 844.89 L 1225.25 843.48 L 1227.55 842.09 L 1229.86 840.73 L 1232.15 839.38 L 1234.44 838.03" stroke="rgb(120,210,255)" stroke-opacity="0.844" stroke-width="1.61" />
  <path d="M 999.41 999.92 L 1001.97 997.80 L 1004.54 995.73 L 1007.11 993.67 L 1009.67 991.62 L 1012.22 989.58 L 1014.76 987.55 L 1017.29 985.53 L 1019.78 983.47 L 1022.26 981.42 L 1024.68 979.33 L 1027.10 977.24 L 1029.50 975.16 L 1031.90 973.11 L 1034.31 971.08 L 1036.71 969.05 L 1039.10 967.04 L 1041.47 965.02 L 1043.82 963.00 L 1046.18 961.01 L 1048.52 959.02 L 1050.86 957.05" stroke="rgb(120,210,255)" stroke-opacity="0.842" stroke-width="1.60" />
  <path d="M 1001.55 998.65 L 1003.86 996.63 L 1006.16 994.62 L 1008.44 992.60 L 1010.67 990.57 L 1012.92 988.59 L 1015.16 986.61 L 1017.37 984.64 L 1019.60 982.68 L 1021.83 980.75 L 1024.06 978.82 L 1026.26 976.89 L 1028.48 974.97 L 1030.65 973.03 L 1032.81 971.09 L 1034.99 969.18 L 1037.15 967.25 L 1039.29 965.33 L 1041.44 963.43 L 1043.57 961.53 L 1045.70 959.65 L 1047.80 957.76 L 1049.88 955.85 L 1051.97 953.96 L 1054.05 952.09 L 1056.10 950.20 L 1058.15 948.32 L 1060.19 946.45 L 1062.27 944.65 L 1064.35 942.87 L 1066.43 941.12 L 1068.50 939.39 L 1070.60 937.72 L 1072.69 936.06 L 1074.77 934.43 L 1076.84 932.79 L 1078.88 931.13 L 1080.92 929.48 L 1082.95 927.83 L 1084.99 926.20 L 1087.02 924.57 L 1089.01 922.90 L 1091.00 921.26 L 1092.99 919.62 L 1094.98 918.00 L 1096.93 916.38 L 1098.88 914.77 L 1100.82 913.14 L 1102.71 911.49 L 1104.60 909.83 L 1106.50 908.20 L 1108.37 906.55 L 1110.26 904.93 L 1112.15 903.32" stroke="rgb(120,210,255)" stroke-opacity="0.463" stroke-width="1.60" />
  <path d="M 997.98 999.38 L 1000.25 997.45 L 1002.52 995.54 L 1004.78 993.64 L 1007.04 991.76 L 1009.33 989.92 L 1011.60 988.09 L 1013.89 986.30 L 1016.16 984.51 L 1018.41 982.71 L 1020.64 980.90" stroke="rgb(120,210,255)" stroke-opacity="0.461" stroke-width="1.59" />
  <path d="M 997.88 1000.41 L 1000.08 998.66 L 1002.30 996.95 L 1004.55 995.29 L 1006.79 993.63 L 1009.08 992.07 L 1011.34 990.50 L 1013.59 988.93 L 1015.80 987.32 L 1017.99 985.71 L 1020.19 984.14 L 1022.38 982.56 L 1024.59 981.03 L 1026.81 979.54 L 1029.02 978.07 L 1031.24 976.60 L 1033.44 975.15 L 1035.64 973.69 L 1037.76 972.16 L 1039.89 970.67 L 1042.00 969.17 L 1044.13 967.73 L 1046.25 966.31 L 1048.37 964.89 L 1050.46 963.46 L 1052.54 962.05 L 1054.63 960.67 L 1056.74 959.29 L 1058.83 957.93 L 1060.91 956.55 L 1063.00 955.19 L 1065.08 953.85 L 1067.18 952.53 L 1069.28 951.24 L 1071.32 949.88 L 1073.36 948.52 L 1075.37 947.15 L 1077.36 945.77 L 1079.35 944.40 L 1081.29 943.00 L 1083.20 941.55 L 1085.09 940.10 L 1086.98 938.67 L 1088.83 937.22 L 1090.72 935.81 L 1092.65 934.46 L 1094.54 933.09 L 1096.44 931.74 L 1098.35 930.40 L 1100.18 928.98 L 1102.05 927.60 L 1103.97 926.30 L 1105.86 925.00 L 1107.75 923.70 L 1109.63 922.40 L 1111.50 921.11 L 1113.36 919.83 L 1115.23 918.60 L 1117.10 917.38 L 1118.94 916.15 L 1120.79 914.94" stroke="rgb(120,210,255)" stroke-opacity="0.458" stroke-width="1.57" />
  <path d="M 1001.15 999.79 L 1003.41 998.25 L 1005.68 996.73 L 1007.92 995.19 L 1010.14 993.64 L 1012.42 992.19 L 1014.70 990.77 L 1016.91 989.26 L 1019.11 987.77 L 1021.30 986.26 L 1023.46 984.74 L 1025.63 983.25 L 1027.74 981.70 L 1029.85 980.15 L 1031.84 978.48 L 1033.83 976.82 L 1035.75 975.10 L 1037.65 973.36 L 1039.54 971.64 L 1041.39 969.88 L 1043.25 968.15 L 1045.08 966.40 L 1046.91 964.68 L 1048.74 962.97 L 1050.54 961.24 L 1052.32 959.51 L 1054.10 957.79 L 1055.88 956.07 L 1057.64 954.38 L 1059.44 952.73 L 1061.21 951.07 L 1063.02 949.46 L 1064.77 947.81 L 1066.51 946.16 L 1068.23 944.50 L 1069.92 942.83" stroke="rgb(120,210,255)" stroke-opacity="0.453" stroke-width="1.55" />
  <path d="M 1061.15 947.16 L 1062.83 945.27 L 1064.50 943.38 L 1066.10 941.45 L 1067.84 939.66 L 1069.51 937.81 L 1071.15 935.95 L 1072.80 934.10 L 1074.39 932.22 L 1075.99 930.35" stroke="rgb(120,210,255)" stroke-opacity="0.450" stroke-width="1.53" />
  <path d="M 1001.53 1000.37 L 1003.54 998.82 L 1005.53 997.29 L 1007.50 995.73 L 1009.45 994.17 L 1011.42 992.65 L 1013.39 991.15 L 1015.25 989.53 L 1017.10 987.92 L 1018.98 986.35 L 1020.85 984.79 L 1022.73 983.24 L 1024.60 981.71" stroke="rgb(120,210,255)" stroke-opacity="0.445" stroke-width="1.50" />
  <path d="M 1004.49 1001.04 L 1007.39 999.12 L 1010.29 997.21 L 1013.15 995.26 L 1015.99 993.32 L 1018.81 991.38 L 1021.64 989.47 L 1024.43 987.53 L 1027.20 985.58 L 1029.97 983.65 L 1032.74 981.75 L 1035.47 979.82 L 1038.20 977.90 L 1040.91 975.97 L 1043.64 974.10 L 1046.36 972.24 L 1049.09 970.41 L 1051.80 968.60 L 1054.50 966.77 L 1057.22 965.00 L 1059.93 963.24 L 1062.63 961.49 L 1065.31 959.74 L 1067.99 958.00 L 1070.66 956.27 L 1073.35 954.60 L 1076.01 952.91 L 1078.67 951.23 L 1081.32 949.58 L 1083.97 947.95 L 1086.60 946.30 L 1089.24 944.69 L 1091.87 943.08 L 1094.48 941.48 L 1097.08 939.87 L 1099.68 938.30 L 1102.27 936.73 L 1104.85 935.18 L 1107.43 933.63 L 1110.00 932.09 L 1112.58 930.60 L 1115.16 929.13 L 1117.75 927.70 L 1120.30 926.23 L 1122.86 924.79" stroke="rgb(205,165,255)" stroke-opacity="0.717" stroke-width="1.23" />
  <path d="M 998.85 1002.00 L 1001.90 1000.50 L 1004.95 999.02 L 1008.01 997.57 L 1011.03 996.06 L 1014.03 994.54 L 1017.01 993.02 L 1019.97 991.49 L 1022.90 989.91 L 1025.82 988.34 L 1028.73 986.77 L 1031.62 985.20 L 1034.50 983.63 L 1037.38 982.07 L 1040.24 980.53 L 1043.09 978.97 L 1045.94 977.44 L 1048.78 975.91 L 1051.63 974.43 L 1054.46 972.96 L 1057.30 971.51 L 1060.14 970.11 L 1062.97 968.72" stroke="rgb(205,165,255)" stroke-opacity="0.716" stroke-width="1.23" />
  <path d="M 1062.70 977.91 L 1065.68 976.76 L 1068.65 975.64 L 1071.60 974.52 L 1074.54 973.42 L 1077.47 972.30 L 1080.41 971.21 L 1083.35 970.15 L 1086.27 969.07 L 1089.16 967.95 L 1092.04 966.81 L 1094.92 965.68 L 1097.79 964.61 L 1100.66 963.56 L 1103.52 962.52 L 1106.37 961.45 L 1109.17 960.31 L 1111.96 959.17 L 1114.73 958.04 L 1117.50 956.90 L 1120.26 955.79 L 1123.02 954.70 L 1125.77 953.57 L 1128.49 952.46 L 1131.21 951.35 L 1133.91 950.23" stroke="rgb(205,165,255)" stroke-opacity="0.710" stroke-width="1.21" />
  <path d="M 997.90 1003.47 L 999.59 1002.29 L 1001.28 1001.16 L 1002.90 1000.01 L 1004.52 998.87 L 1006.13 997.76 L 1007.72 996.64 L 1009.36 995.63 L 1010.91 994.65 L 1012.46 993.73 L 1014.00 992.80 L 1015.53 991.83 L 1017.06 990.89 L 1018.59 989.97 L 1020.17 989.06 L 1021.73 988.13 L 1023.28 987.19 L 1024.83 986.25 L 1026.37 985.32 L 1027.86 984.35 L 1029.34 983.39 L 1030.84 982.43 L 1032.33 981.48 L 1033.82 980.51 L 1035.29 979.54 L 1036.74 978.59 L 1038.23 977.66 L 1039.70 976.75 L 1041.15 975.87 L 1042.59 974.99 L 1044.03 974.11" stroke="rgb(205,165,255)" stroke-opacity="0.710" stroke-width="1.21" />
  <path d="M 1039.50 985.04 L 1041.34 982.38 L 1043.17 979.72 L 1044.99 977.06 L 1046.82 974.43 L 1048.67 971.84 L 1050.48 969.22 L 1052.28 966.60 L 1054.07 964.00 L 1055.85 961.40 L 1057.60 958.80 L 1059.29 956.19 L 1060.99 953.58 L 1062.68 950.97 L 1064.38 948.40 L 1066.08 945.82 L 1067.81 943.29 L 1069.53 940.76 L 1071.24 938.25 L 1072.92 935.72 L 1074.58 933.20 L 1076.23 930.69 L 1077.84 928.16 L 1079.43 925.65 L 1081.00 923.14 L 1082.55 920.65 L 1084.15 918.19 L 1085.74 915.75 L 1087.31 913.30 L 1088.88 910.89 L 1090.42 908.48 L 1092.02 906.11 L 1093.67 903.81 L 1095.33 901.53 L 1096.97 899.25 L 1098.56 896.97 L 1100.11 894.66 L 1101.64 892.39 L 1103.18 890.12 L 1104.73 887.86 L 1106.28 885.60 L 1107.81 883.36 L 1109.31 881.10 L 1110.82 878.86 L 1112.30 876.62 L 1113.77 874.41 L 1115.23 872.21 L 1116.71 870.04 L 1118.16 867.87 L 1119.62 865.72 L 1121.08 863.61 L 1122.58 861.54 L 1124.06 859.52 L 1125.55 857.52 L 1127.03 855.59 L 1128.54 853.67 L 1130.06 851.77 L 1131.54 849.86 L 1132.98 847.90 L 1134.38 845.96 L 1135.79 844.03 L 1137.22 842.12 L 1138.62 840.21 L 1140.02 838.29" stroke="rgb(205,165,255)" stroke-opacity="0.709" stroke-width="1.21" />
  <path d="M 998.81 995.45 L 1000.72 994.14 L 1002.65 992.89 L 1004.62 991.70 L 1006.61 990.58 L 1008.58 989.43 L 1010.56 988.32 L 1012.52 987.21 L 1014.46 986.09 L 1016.40 984.98 L 1018.34 983.88 L 1020.30 982.85 L 1022.24 981.78 L 1024.17 980.70 L 1026.11 979.66 L 1028.04 978.62 L 1029.96 977.58 L 1031.88 976.55 L 1033.77 975.51 L 1035.67 974.47 L 1037.56 973.47 L 1039.45 972.47 L 1041.35 971.50 L 1043.30 970.66 L 1045.23 969.79 L 1047.15 968.94 L 1049.05 968.04 L 1050.94 967.15 L 1052.82 966.27 L 1054.67 965.33 L 1056.52 964.41 L 1058.36 963.49 L 1060.21 962.61 L 1062.04 961.72 L 1063.88 960.87 L 1065.72 960.02 L 1067.55 959.18 L 1069.37 958.33 L 1071.17 957.44 L 1072.94 956.54 L 1074.75 955.73 L 1076.55 954.92 L 1078.35 954.13 L 1080.15 953.35 L 1081.94 952.58 L 1083.75 951.87 L 1085.53 951.10 L 1087.31 950.37 L 1089.06 949.56 L 1090.79 948.77 L 1092.53 947.99 L 1094.26 947.23 L 1095.94 946.40 L 1097.65 945.66 L 1099.37 944.93" stroke="rgb(140,255,190)" stroke-opacity="0.556" stroke-width="1.20" />
  <path d="M 1001.45 1001.20 L 1003.54 1000.29 L 1005.60 999.32 L 1007.66 998.36 L 1009.69 997.38 L 1011.73 996.41 L 1013.74 995.44 L 1015.75 994.47 L 1017.72 993.43 L 1019.63 992.31 L 1021.51 991.16 L 1023.36 989.97 L 1025.14 988.71 L 1026.91 987.44 L 1028.73 986.26 L 1030.54 985.09 L 1032.37 983.95 L 1034.19 982.82 L 1036.01 981.69 L 1037.81 980.55 L 1039.56 979.37 L 1041.31 978.19 L 1042.99 976.94 L 1044.65 975.68 L 1046.39 974.52 L 1048.11 973.37 L 1049.79 972.17 L 1051.46 970.97 L 1053.12 969.78 L 1054.73 968.52 L 1056.39 967.34 L 1058.04 966.16 L 1059.77 965.12 L 1061.55 964.18 L 1063.32 963.25 L 1065.10 962.35 L 1066.86 961.42 L 1068.66 960.62 L 1070.48 959.85 L 1072.29 959.10 L 1074.10 958.35 L 1075.91 957.64 L 1077.70 956.90 L 1079.49 956.16 L 1081.27 955.42 L 1083.00 954.61 L 1084.73 953.81" stroke="rgb(140,255,190)" stroke-opacity="0.555" stroke-width="1.20" />
  <path d="M 1067.34 947.88 L 1070.44 946.72 L 1073.52 945.57 L 1076.59 944.41 L 1079.62 943.23 L 1082.62 942.05 L 1085.60 940.86 L 1088.53 939.59 L 1091.42 938.30 L 1094.30 937.01 L 1097.17 935.74 L 1100.03 934.48 L 1102.89 933.24 L 1105.72 931.99 L 1108.56 930.78 L 1111.38 929.57 L 1114.18 928.37 L 1116.99 927.21 L 1119.80 926.06 L 1122.60 924.92 L 1125.39 923.78 L 1128.18 922.67 L 1130.96 921.58 L 1133.73 920.47 L 1136.49 919.36 L 1139.22 918.24 L 1141.94 917.12 L 1144.64 916.00 L 1147.34 914.85 L 1150.04 913.72 L 1152.71 912.58 L 1155.38 911.46 L 1158.03 910.33 L 1160.68 909.22 L 1163.33 908.11 L 1165.98 907.05 L 1168.63 906.02 L 1171.30 905.02 L 1173.94 903.98 L 1176.58 902.99 L 1179.20 901.98 L 1181.80 900.99 L 1184.40 900.01 L 1186.99 899.03" stroke="rgb(140,255,190)" stroke-opacity="0.739" stroke-width="1.19" />
  <path d="M 997.37 1002.24 L 998.98 1000.67 L 1000.59 999.16 L 1002.20 997.64 L 1003.80 996.14 L 1005.39 994.65 L 1006.97 993.14 L 1008.51 991.58 L 1010.04 990.02 L 1011.57 988.47 L 1013.04 986.92 L 1014.57 985.43 L 1016.22 984.05 L 1017.80 982.61 L 1019.38 981.16 L 1020.99 979.76 L 1022.63 978.37 L 1024.28 977.00 L 1026.01 975.71 L 1027.78 974.49 L 1029.45 973.13 L 1031.10 971.75 L 1032.67 970.29 L 1034.23 968.84" stroke="rgb(140,255,190)" stroke-opacity="0.551" stroke-width="1.18" />
  <path d="M 999.99 1001.53 L 1002.13 1000.54 L 1004.25 999.55 L 1006.36 998.57 L 1008.47 997.59 L 1010.60 996.66 L 1012.73 995.78 L 1014.82 994.87 L 1016.91 993.98 L 1018.97 993.10 L 1021.02 992.22 L 1023.11 991.47 L 1025.19 990.71 L 1027.27 990.00 L 1029.32 989.21 L 1031.36 988.43 L 1033.38 987.63 L 1035.40 986.86 L 1037.40 986.09 L 1039.45 985.43 L 1041.52 984.85 L 1043.52 984.09 L 1045.54 983.41 L 1047.57 982.78 L 1049.58 982.20 L 1051.62 981.67 L 1053.66 981.14 L 1055.66 980.56 L 1057.65 980.02 L 1059.66 979.47 L 1061.64 978.91 L 1063.64 978.40 L 1065.65 977.92 L 1067.57 977.30 L 1069.50 976.71 L 1071.41 976.11 L 1073.31 975.45 L 1075.20 974.79 L 1077.11 974.17 L 1079.00 973.52 L 1080.91 972.93 L 1082.82 972.37 L 1084.71 971.76 L 1086.59 971.13 L 1088.46 970.49 L 1090.33 969.90 L 1092.21 969.32 L 1094.10 968.83 L 1095.98 968.30 L 1097.84 967.77 L 1099.69 967.20 L 1101.53 966.63 L 1103.39 966.16 L 1105.26 965.77" stroke="rgb(140,255,190)" stroke-opacity="0.548" stroke-width="1.17" />
  <path d="M 999.73 1000.99 L 1002.50 999.19 L 1005.25 997.39 L 1007.98 995.57 L 1010.69 993.76 L 1013.40 991.96 L 1016.07 990.14 L 1018.73 988.32 L 1021.39 986.52 L 1024.02 984.70 L 1026.64 982.88 L 1029.23 981.06 L 1031.79 979.20 L 1034.36 977.39 L 1036.91 975.57 L 1039.46 973.77 L 1042.00 971.98 L 1044.54 970.21 L 1047.07 968.45 L 1049.58 966.67 L 1052.10 964.93 L 1054.61 963.20 L 1057.11 961.48 L 1059.59 959.77 L 1062.07 958.05 L 1064.50 956.30 L 1066.91 954.53 L 1069.29 952.75 L 1071.68 951.00 L 1074.05 949.25 L 1076.42 947.51 L 1078.77 945.78" stroke="rgb(140,255,190)" stroke-opacity="0.729" stroke-width="1.17" />
  <path d="M 996.52 998.59 L 999.36 996.92 L 1002.19 995.26 L 1005.01 993.61 L 1007.82 991.96 L 1010.64 990.38 L 1013.46 988.84 L 1016.31 987.33 L 1019.14 985.82 L 1021.95 984.32 L 1024.76 982.80 L 1027.57 981.33 L 1030.36 979.87 L 1033.15 978.42 L 1035.92 976.97 L 1038.65 975.48 L 1041.38 974.01 L 1044.10 972.54 L 1046.81 971.09 L 1049.46 969.56 L 1052.11 968.04 L 1054.76 966.54 L 1057.41 965.06 L 1060.06 963.58 L 1062.70 962.12 L 1065.34 960.68 L 1067.97 959.25 L 1070.59 957.82 L 1073.19 956.40 L 1075.76 954.96 L 1078.32 953.53 L 1080.88 952.11 L 1083.42 950.70 L 1085.95 949.29 L 1088.48 947.89 L 1090.98 946.48 L 1093.47 945.06 L 1095.94 943.64 L 1098.41 942.24 L 1100.92 940.93 L 1103.41 939.61 L 1105.89 938.30 L 1108.36 936.99 L 1110.82 935.68 L 1113.27 934.38 L 1115.71 933.10 L 1118.16 931.84 L 1120.58 930.57 L 1122.99 929.31 L 1125.39 928.05" stroke="rgb(140,255,190)" stroke-opacity="0.728" stroke-width="1.16" />
  <path d="M 1030.69 966.38 L 1033.77 965.23 L 1036.82 964.06 L 1039.87 962.89 L 1042.90 961.73 L 1045.93 960.59 L 1048.95 959.48 L 1051.96 958.37 L 1054.96 957.29 L 1057.95 956.22 L 1060.92 955.13 L 1063.87 954.04 L 1066.81 952.96 L 1069.72 951.82 L 1072.62 950.71 L 1075.51 949.62 L 1078.41 948.58 L 1081.30 947.58 L 1084.19 946.58 L 1087.08 945.67 L 1089.96 944.78 L 1092.82 943.92 L 1095.64 943.05 L 1098.47 942.18 L 1101.32 941.35 L 1104.13 940.44 L 1106.93 939.53 L 1109.71 938.60 L 1112.44 937.61 L 1115.16 936.63 L 1117.87 935.60 L 1120.58 934.63 L 1123.28 933.64 L 1125.97 932.65 L 1128.65 931.69 L 1131.32 930.72 L 1134.00 929.78 L 1136.67 928.84 L 1139.33 927.89 L 1141.98 926.95 L 1144.61 926.02 L 1147.24 925.11" stroke="rgb(140,255,190)" stroke-opacity="0.728" stroke-width="1.16" />
  <path d="M 1064.50 956.30 L 1067.69 955.87 L 1070.85 955.51 L 1074.00 955.15 L 1077.14 954.80 L 1080.27 954.46 L 1083.38 954.12 L 1086.48 953.76 L 1089.57 953.33 L 1092.64 952.88 L 1095.69 952.41 L 1098.72 951.85 L 1101.76 951.34 L 1104.78 950.86 L 1107.79 950.41 L 1110.79 950.03 L 1113.78 949.70 L 1116.75 949.30 L 1119.70 948.88 L 1122.62 948.43 L 1125.53 947.96 L 1128.43 947.50 L 1131.31 947.05 L 1134.19 946.60 L 1137.05 946.15 L 1139.89 945.67 L 1142.72 945.23 L 1145.55 944.79 L 1148.37 944.32 L 1151.18 943.86 L 1153.97 943.41 L 1156.76 943.08 L 1159.53 942.74 L 1162.28 942.35 L 1165.03 941.99 L 1167.77 941.64 L 1170.50 941.25 L 1173.21 940.87 L 1175.92 940.51 L 1178.64 940.21 L 1181.35 939.91 L 1184.08 939.61 L 1186.79 939.32 L 1189.51 939.01 L 1192.21 938.71 L 1194.90 938.42 L 1197.58 938.13 L 1200.26 937.87 L 1202.94 937.59 L 1205.61 937.35 L 1208.27 937.10 L 1210.92 936.88 L 1213.56 936.67 L 1216.18 936.35 L 1218.81 936.11 L 1221.42 935.88 L 1224.02 935.65 L 1226.62 935.47 L 1229.21 935.30 L 1231.78 935.10" stroke="rgb(140,255,190)" stroke-opacity="0.726" stroke-width="1.16" />
  <path d="M 999.50 997.74 L 1002.13 995.75 L 1004.76 993.76 L 1007.38 991.81 L 1009.99 989.84 L 1012.57 987.87 L 1015.14 985.91 L 1017.70 983.96 L 1020.27 982.05 L 1022.83 980.14 L 1025.35 978.20 L 1027.85 976.26 L 1030.34 974.33 L 1032.80 972.41 L 1035.27 970.50 L 1037.75 968.62 L 1040.26 966.79 L 1042.77 965.01 L 1045.28 963.26 L 1047.76 961.49 L 1050.21 959.74 L 1052.67 958.02 L 1055.11 956.29 L 1057.54 954.56 L 1059.99 952.88 L 1062.43 951.19 L 1064.89 949.53 L 1067.34 947.88 L 1069.78 946.23 L 1072.21 944.58 L 1074.63 942.96 L 1077.04 941.34 L 1079.39 939.65 L 1081.72 937.97 L 1084.05 936.30 L 1086.36 934.63 L 1088.67 932.99 L 1090.97 931.35 L 1093.25 929.69" stroke="rgb(140,255,190)" stroke-opacity="0.725" stroke-width="1.16" />
  <path d="M 1048.75 981.75 L 1051.16 980.90 L 1053.55 979.99 L 1055.92 979.07 L 1058.32 978.23 L 1060.73 977.41 L 1063.22 976.58 L 1065.70 975.74 L 1068.15 974.96 L 1070.60 974.20 L 1073.08 973.50 L 1075.56 972.81 L 1078.03 972.09 L 1080.50 971.37 L 1082.90 970.64 L 1085.24 969.99 L 1087.57 969.34 L 1089.91 968.71 L 1092.29 968.09 L 1094.68 967.50 L 1097.14 967.01 L 1099.55 966.39" stroke="rgb(205,165,255)" stroke-opacity="0.481" stroke-width="1.15" />
  <path d="M 997.14 1000.21 L 999.34 997.76 L 1001.52 995.31 L 1003.68 992.87 L 1005.81 990.42 L 1007.94 987.98 L 1010.05 985.54 L 1012.13 983.09 L 1014.18 980.63 L 1016.21 978.17 L 1018.23 975.73 L 1020.29 973.32 L 1022.34 970.92 L 1024.42 968.57 L 1026.43 966.17 L 1028.43 963.78 L 1030.42 961.40 L 1032.40 959.02 L 1034.34 956.63 L 1036.31 954.28 L 1038.29 951.97 L 1040.23 949.64 L 1042.20 947.35 L 1044.18 945.09 L 1046.16 942.84 L 1048.16 940.63 L 1050.16 938.44 L 1052.16 936.25 L 1054.16 934.09 L 1056.18 931.96 L 1058.17 929.83 L 1060.17 927.70 L 1062.22 925.65 L 1064.26 923.61 L 1066.29 921.57 L 1068.29 919.52 L 1070.27 917.46 L 1072.23 915.40 L 1074.18 913.34 L 1076.13 911.31 L 1078.04 909.25 L 1079.94 907.21 L 1081.81 905.15 L 1083.68 903.10 L 1085.51 901.03 L 1087.30 898.95 L 1089.14 896.92 L 1090.98 894.89 L 1092.80 892.88 L 1094.59 890.85 L 1096.34 888.80 L 1098.09 886.77 L 1099.84 884.75 L 1101.60 882.75 L 1103.37 880.79 L 1105.09 878.79 L 1106.76 876.77 L 1108.42 874.75 L 1110.07 872.74 L 1111.73 870.75 L 1113.38 868.77 L 1115.03 866.79 L 1116.67 864.81 L 1118.31 862.85 L 1119.93 860.87 L 1121.54 858.91 L 1123.17 856.97 L 1124.77 855.03 L 1126.37 853.09 L 1127.93 851.13 L 1129.48 849.19 L 1131.02 847.24 L 1132.57 845.30" stroke="rgb(140,255,190)" stroke-opacity="0.723" stroke-width="1.15" />
  <path d="M 1049.46 969.56 L 1052.52 969.12 L 1055.57 968.68 L 1058.60 968.21 L 1061.60 967.76 L 1064.55 967.28 L 1067.50 966.84 L 1070.42 966.42 L 1073.33 966.10 L 1076.21 965.79 L 1079.09 965.45 L 1081.97 965.11 L 1084.87 964.74 L 1087.78 964.42 L 1090.68 964.11 L 1093.59 963.82 L 1096.49 963.52 L 1099.37 963.25 L 1102.23 962.91 L 1105.07 962.47 L 1107.93 962.09 L 1110.79 961.81 L 1113.62 961.55 L 1116.45 961.22 L 1119.26 960.89 L 1122.06 960.59 L 1124.87 960.33 L 1127.66 959.99 L 1130.44 959.66 L 1133.21 959.33 L 1135.97 959.04 L 1138.73 958.76 L 1141.49 958.52 L 1144.25 958.29 L 1147.00 958.07 L 1149.74 957.84 L 1152.47 957.60 L 1155.19 957.27 L 1157.90 956.94 L 1160.60 956.65 L 1163.29 956.37 L 1165.98 956.10 L 1168.66 955.82" stroke="rgb(140,255,190)" stroke-opacity="0.722" stroke-width="1.15" />
  <path d="M 1171.30 905.02 L 1174.45 904.91 L 1177.61 904.86 L 1180.76 904.78 L 1183.89 904.68 L 1187.01 904.56 L 1190.12 904.47 L 1193.23 904.42 L 1196.32 904.36 L 1199.40 904.32 L 1202.47 904.27 L 1205.53 904.21 L 1208.58 904.16 L 1211.61 904.10 L 1214.64 904.01 L 1217.65 903.97 L 1220.65 903.93 L 1223.64 903.89 L 1226.61 903.86 L 1229.58 903.85 L 1232.53 903.85 L 1235.47 903.84 L 1238.40 903.81 L 1241.32 903.78 L 1244.23 903.69 L 1247.12 903.66 L 1250.01 903.66 L 1252.88 903.68 L 1255.74 903.67 L 1258.58 903.66 L 1261.42 903.70 L 1264.24 903.76 L 1267.05 903.76 L 1269.84 903.85 L 1272.63 903.99 L 1275.40 904.13 L 1278.16 904.27 L 1280.90 904.43 L 1283.63 904.60 L 1286.34 904.81 L 1289.03 905.15 L 1291.70 905.53 L 1294.35 905.95 L 1296.98 906.41 L 1299.60 906.92 L 1302.17 907.49" stroke="rgb(140,255,190)" stroke-opacity="0.721" stroke-width="1.15" />
  <path d="M 1000.73 1003.13 L 999.86 1001.26 L 998.97 999.38 L 998.08 997.49 L 997.24 995.58 L 996.49 993.66 L 995.74 991.75 L 995.01 989.88 L 994.36 988.00 L 993.72 986.14 L 993.07 984.30 L 992.43 982.47 L 991.76 980.65 L 991.22 978.85 L 990.71 977.05 L 990.24 975.25 L 989.69 973.41 L 989.15 971.57 L 988.49 969.82 L 987.85 968.07 L 987.13 966.39 L 986.45 964.71 L 985.69 963.04 L 984.91 961.41 L 984.03 959.86 L 983.18 958.25 L 982.34 956.65 L 981.50 955.05 L 980.62 953.45 L 979.74 951.86 L 978.83 950.27 L 977.91 948.68" stroke="rgb(140,255,190)" stroke-opacity="0.538" stroke-width="1.14" />
  <path d="M 1105.48 917.77 L 1107.97 916.38 L 1110.44 915.00" stroke="rgb(140,255,190)" stroke-opacity="0.538" stroke-width="1.14" />
  <path d="M 997.67 999.75 L 999.47 998.04 L 1001.18 996.24 L 1002.88 994.45 L 1004.57 992.67 L 1006.28 990.92 L 1007.96 989.16 L 1009.67 987.43 L 1011.38 985.72 L 1013.24 984.18 L 1015.07 982.63 L 1016.89 981.08 L 1018.75 979.60 L 1020.60 978.12 L 1022.41 976.60 L 1024.24 975.13 L 1026.13 973.75 L 1028.04 972.40 L 1029.94 971.07 L 1031.87 969.78 L 1033.77 968.49 L 1035.66 967.19 L 1037.54 965.89 L 1039.41 964.60 L 1041.29 963.33 L 1043.19 962.11 L 1045.09 960.90 L 1046.97 959.67 L 1048.83 958.44 L 1050.69 957.23" stroke="rgb(140,255,190)" stroke-opacity="0.537" stroke-width="1.13" />
  <path d="M 1001.52 1002.05 L 1003.89 1000.74 L 1006.24 999.42 L 1008.61 998.14 L 1010.97 996.87 L 1013.32 995.59 L 1015.69 994.41 L 1018.07 993.28 L 1020.48 992.25 L 1022.89 991.25 L 1025.33 990.35 L 1027.73 989.44 L 1030.11 988.50 L 1032.46 987.59 L 1034.80 986.69 L 1037.15 985.83 L 1039.50 985.04 L 1041.81 984.19 L 1044.13 983.38 L 1046.44 982.55 L 1048.75 981.75 L 1051.07 981.03 L 1053.37 980.28 L 1055.68 979.58 L 1058.04 979.05 L 1060.39 978.51 L 1062.70 977.91 L 1065.00 977.29 L 1067.31 976.74 L 1069.62 976.17 L 1071.91 975.64 L 1074.19 975.08 L 1076.46 974.54 L 1078.71 973.98 L 1080.96 973.47 L 1083.19 972.96 L 1085.42 972.42 L 1087.63 971.97 L 1089.86 971.63" stroke="rgb(205,165,255)" stroke-opacity="0.475" stroke-width="1.13" />
  <path d="M 1049.79 972.17 L 1051.86 969.97 L 1053.88 967.75 L 1055.89 965.53 L 1057.86 963.32 L 1059.81 961.11 L 1061.77 958.95 L 1063.75 956.83 L 1065.69 954.69 L 1067.61 952.59 L 1069.48 950.52 L 1071.36 948.46 L 1073.21 946.39 L 1075.04 944.32 L 1076.91 942.32 L 1078.76 940.32 L 1080.62 938.36 L 1082.47 936.42 L 1084.33 934.50 L 1086.17 932.57 L 1087.98 930.64 L 1089.78 928.72 L 1091.58 926.81 L 1093.35 924.90 L 1095.19 923.03 L 1097.02 921.17 L 1098.87 919.33 L 1100.74 917.52 L 1102.69 915.81 L 1104.63 914.09 L 1106.61 912.40 L 1108.57 910.70 L 1110.52 909.01 L 1112.42 907.29 L 1114.27 905.54 L 1116.10 903.79 L 1118.02 902.12 L 1119.93 900.47 L 1121.84 898.82 L 1123.75 897.20 L 1125.64 895.58 L 1127.52 893.96 L 1129.40 892.36 L 1131.26 890.74 L 1133.10 889.08 L 1134.93 887.43 L 1136.75 885.78 L 1138.57 884.15 L 1140.41 882.55 L 1142.23 880.94 L 1144.03 879.33 L 1145.82 877.72 L 1147.57 876.06 L 1149.34 874.45 L 1151.10 872.88 L 1152.92 871.33" stroke="rgb(140,255,190)" stroke-opacity="0.535" stroke-width="1.13" />
  <path d="M 1000.81 1000.87 L 1002.97 998.85 L 1005.09 996.80 L 1007.25 994.82 L 1009.38 992.82 L 1011.51 990.84 L 1013.62 988.86 L 1015.74 986.91 L 1017.86 984.98 L 1019.97 983.05 L 1022.03 981.08 L 1024.12 979.14 L 1026.10 977.12 L 1028.08 975.10 L 1030.01 973.06 L 1032.03 971.12 L 1034.01 969.15 L 1035.98 967.20 L 1037.95 965.25 L 1039.92 963.31 L 1041.93 961.44 L 1043.92 959.55 L 1045.92 957.68" stroke="rgb(140,255,190)" stroke-opacity="0.535" stroke-width="1.13" />
  <path d="M -0.02 1790.47 L 2.27 1788.73 L 4.53 1786.60 L 6.95 1785.30 L 9.43 1783.09 L 11.67 1781.14 L 14.42 1779.93 L 16.39 1777.61 L 18.83 1775.80 L 21.23 1773.50 L 23.50 1771.56 L 25.64 1769.92 L 28.29 1768.46 L 30.36 1766.72 L 33.25 1764.79 L 34.80 1762.71 L 37.90 1760.77 L 40.38 1758.84 L 42.64 1757.06 L 44.88 1755.42 L 47.27 1753.78 L 48.87 1751.65 L 51.55 1749.33 L 53.94 1747.66 L 56.24 1745.78 L 58.76 1744.36 L 60.73 1742.33 L 63.59 1740.28 L 65.91 1738.64 L 68.24 1736.45 L 70.69 1735.44 L 72.74 1732.67 L 75.48 1731.18 L 77.59 1729.18 L 80.16 1727.61 L 82.28 1725.33 L 84.46 1723.95 L 86.95 1722.01 L 89.52 1720.12 L 91.42 1718.20 L 94.16 1715.96 L 96.27 1714.70 L 99.17 1712.56 L 101.86 1710.77 L 103.55 1708.90 L 105.80 1706.74 L 108.86 1704.80 L 110.75 1703.21 L 113.21 1701.31 L 114.93 1699.67 L 117.82 1697.64 L 119.94 1695.87 L 122.32 1693.40 L 124.91 1691.83 L 127.21 1690.24 L 129.47 1688.42 L 131.88 1686.33 L 133.92 1684.63 L 136.84 1682.54 L 138.94 1680.63 L 141.13 1679.16 L 143.66 1676.98 L 145.89 1675.04 L 147.92 1673.58 L 150.67 1671.67 L 153.27 1669.53 L 155.19 1667.63 L 157.62 1666.17 L 160.10 1663.84 L 162.40 1662.27 L 164.75 1660.06 L 166.81 1658.72 L 169.83 1656.20 L 171.74 1654.79 L 173.88 1653.04 L 176.43 1651.07 L 178.50 1649.29 L 181.22 1647.36 L 183.62 1645.68 L 185.72 1643.64 L 187.91 1641.75 L 190.46 1639.90 L 193.03 1638.20 L 195.42 1636.36 L 198.15 1634.44 L 200.44 1632.72 L 202.47 1630.65 L 205.17 1629.04 L 206.85 1627.04 L 209.45 1624.85 L 211.89 1623.43 L 213.97 1621.39 L 216.22 1619.21 L 218.69 1617.48 L 221.44 1615.46 L 223.47 1613.60 L 225.96 1612.09 L 228.18 1610.06 L 230.96 1608.21 L 233.06 1606.04 L 235.52 1604.47 L 237.94 1602.56 L 240.63 1600.99 L 242.23 1598.97 L 244.53 1596.94 L 247.09 1595.11 L 249.36 1593.47 L 252.24 1591.69 L 254.36 1589.78 L 256.65 1587.69 L 258.60 1586.16 L 261.51 1584.46 L 263.81 1582.17 L 265.91 1580.31 L 268.38 1578.42 L 270.65 1576.56 L 272.90 1575.32 L 275.29 1572.79 L 277.84 1571.22 L 280.07 1569.01 L 281.98 1567.13 L 284.93 1565.39 L 286.98 1563.89 L 289.41 1561.87 L 292.00 1560.22 L 293.82 1558.26 L 296.23 1556.39 L 298.67 1554.21 L 301.54 1552.12 L 303.51 1550.50 L 305.90 1548.86 L 308.05 1546.62 L 310.75 1544.64 L 313.03 1542.92 L 315.16 1541.32 L 317.89 1539.47 L 320.37 1537.29 L 322.44 1535.73 L 324.74 1534.01 L 327.27 1532.08 L 329.37 1530.52 L 332.18 1528.16 L 334.05 1526.69 L 336.50 1524.49 L 339.17 1522.88 L 341.26 1521.08 L 343.52 1518.94 L 345.80 1517.10 L 348.28 1515.42 L 350.75 1512.96 L 353.25 1511.83 L 355.39 1509.81 L 358.04 1507.75 L 360.38 1505.98 L 362.67 1504.17 L 364.82 1502.49 L 367.25 1500.30 L 369.44 1498.33 L 372.16 1496.57 L 374.16 1494.38 L 376.26 1492.63 L 378.81 1490.54 L 380.94 1489.20 L 383.56 1487.34 L 386.06 1485.44 L 388.53 1483.53 L 390.74 1481.63 L 393.12 1480.25 L 395.11 1477.99 L 398.03 1475.95 L 399.95 1474.12 L 402.41 1472.88 L 404.58 1470.89 L 407.04 1468.98 L 409.59 1467.00 L 411.72 1464.86 L 413.75 1463.30 L 416.65 1461.24 L 418.63 1459.18 L 421.14 1457.65 L 423.39 1455.86 L 425.81 1454.19 L 428.32 1451.59 L 431.01 1450.33 L 432.76 1448.24 L 435.02 1446.29 L 437.77 1444.24 L 440.04 1442.76 L 442.47 1440.58 L 444.68 1438.60 L 447.32 1437.16 L 449.92 1435.18 L 451.95 1433.65 L 454.29 1431.52 L 456.07 1429.49 L 458.84 1427.51 L 461.14 1426.21 L 463.95 1424.43 L 465.95 1422.05 L 468.22 1420.04 L 470.91 1418.50 L 472.79 1416.34 L 475.10 1414.90 L 477.93 1413.00 L 479.90 1410.80 L 482.22 1409.27 L 484.64 1407.23 L 487.39 1405.88 L 489.73 1403.45 L 492.31 1401.84 L 494.37 1400.10 L 496.68 1397.84 L 498.63 1396.07 L 501.36 1394.00 L 503.22 1392.69 L 505.90 1390.38 L 508.66 1388.40 L 510.44 1386.88 L 512.52 1384.76 L 515.55 1383.06 L 517.49 1381.31 L 520.22 1379.64 L 522.93 1377.54 L 524.56 1375.72 L 527.10 1373.82 L 529.46 1371.78 L 531.64 1370.22 L 534.31 1367.89 L 536.48 1366.36 L 538.91 1364.29 L 541.33 1362.97 L 543.77 1360.96 L 545.76 1359.15 L 548.11 1356.99 L 550.88 1355.57 L 553.29 1352.94 L 555.54 1351.45 L 557.80 1349.42 L 559.60 1347.84 L 562.06 1345.63 L 564.91 1343.95 L 567.14 1342.15 L 569.62 1340.33 L 571.69 1338.41 L 574.27 1336.32 L 576.42 1334.79 L 578.97 1333.28 L 581.53 1331.09 L 583.70 1328.83 L 586.02 1327.42 L 588.12 1325.74 L 590.87 1323.68 L 592.89 1321.39 L 595.32 1320.06 L 597.63 1317.97 L 600.31 1316.40 L 602.21 1314.65 L 604.79 1312.54 L 606.70 1310.32 L 609.35 1308.48 L 611.89 1306.85 L 613.99 1305.52 L 616.20 1303.16 L 618.86 1301.27 L 621.24 1299.23 L 623.76 1297.58 L 626.09 1296.08 L 628.16 1293.97 L 630.65 1292.10 L 632.99 1290.17 L 635.54 1287.67 L 637.59 1286.27 L 640.38 1284.54 L 642.52 1282.75 L 644.99 1281.25 L 647.00 1278.81 L 649.09 1277.06 L 651.70 1274.89 L 654.44 1273.62 L 656.70 1271.53 L 658.96 1269.44 L 661.41 1267.72 L 663.53 1265.60 L 665.57 1263.95 L 668.14 1262.05 L 670.06 1260.06 L 673.14 1258.57 L 675.07 1256.62 L 677.46 1254.39 L 680.76 1253.24 L 682.73 1251.26 L 684.69 1248.95 L 686.94 1247.43 L 689.66 1245.47 L 691.81 1243.30 L 694.17 1241.98 L 696.74 1239.65 L 699.14 1237.85 L 701.44 1236.23 L 703.85 1234.21 L 706.21 1232.08 L 708.08 1230.31 L 711.08 1229.02 L 713.74 1226.27 L 715.78 1224.59 L 717.58 1223.08 L 720.21 1221.33 L 722.44 1219.00 L 724.89 1217.41 L 727.42 1215.95 L 729.35 1213.77 L 731.86 1211.64 L 734.33 1210.33 L 736.55 1208.32 L 738.74 1206.10 L 741.81 1204.95 L 743.79 1202.69 L 745.71 1200.83 L 748.78 1199.30 L 750.58 1197.44 L 753.04 1195.29 L 755.17 1193.14 L 758.01 1191.29 L 760.39 1190.06 L 762.38 1187.98 L 764.88 1186.01 L 766.93 1184.05 L 769.84 1182.58 L 772.07 1180.55 L 774.12 1178.59 L 776.38 1176.21 L 778.47 1174.89 L 781.35 1172.97 L 783.17 1170.84 L 785.89 1169.24 L 788.46 1167.43 L 790.67 1165.51 L 792.62 1163.60 L 795.68 1162.01 L 797.67 1159.89 L 799.86 1157.73 L 802.52 1156.19 L 804.87 1154.46 L 807.28 1152.45 L 809.77 1150.64 L 811.73 1148.61 L 814.10 1146.80 L 816.32 1145.09 L 818.57 1142.95 L 820.98 1141.34 L 823.61 1139.26 L 826.39 1137.47 L 828.68 1135.51 L 830.49 1133.64 L 833.07 1132.19 L 835.38 1130.07 L 837.82 1128.35 L 839.64 1126.44 L 842.71 1124.60 L 844.86 1122.54 L 847.54 1121.06 L 849.41 1119.20 L 851.90 1117.41 L 853.92 1114.95 L 856.91 1113.29 L 858.78 1111.56 L 861.13 1109.60 L 863.53 1107.71 L 866.05 1105.63 L 868.48 1104.06 L 870.84 1102.02 L 873.37 1100.39 L 875.08 1098.19 L 877.89 1096.86 L 879.84 1094.58 L 882.34 1093.08 L 884.94 1091.31 L 887.38 1089.20 L 889.28 1087.63 L 891.71 1085.40 L 893.96 1083.24 L 896.99 1081.89 L 899.08 1080.03 L 901.32 1077.68 L 903.65 1076.08 L 906.40 1074.37 L 908.30 1072.45 L 910.80 1070.52 L 913.26 1068.22 L 915.34 1066.71 L 917.60 1065.10 L 919.84 1062.65 L 922.64 1060.83 L 924.78 1059.53 L 927.25 1057.47 L 929.48 1055.74 L 931.64 1053.66 L 934.23 1052.10 L 936.64 1049.77 L 939.35 1047.96 L 941.27 1046.39 L 943.82 1044.64 L 945.99 1042.29 L 948.19 1040.73 L 950.86 1038.95 L 952.95 1037.07 L 955.02 1035.60 L 957.17 1033.51 L 960.46 1031.45 L 962.79 1029.48 L 965.17 1027.68 L 967.06 1026.46 L 969.74 1024.46 L 971.55 1022.21 L 974.06 1020.45 L 976.60 1019.00 L 978.99 1016.52 L 981.37 1015.06 L 984.13 1012.79 L 986.23 1011.07 L 988.38 1008.94 L 990.66 1007.16 L 993.26 1005.53 L 995.75 1003.71 L 997.98 1001.41 L 1000.00 1000.00 L 1002.34 998.12 L 1004.70 996.26 L 1007.04 994.40 L 1009.40 992.54 L 1011.77 990.70 L 1014.14 988.86 L 1016.51 987.02 L 1018.88 985.18 L 1021.27 983.37 L 1023.64 981.53 L 1026.02 979.70 L 1028.39 977.86 L 1030.75 976.02 L 1033.10 974.15 L 1035.43 972.26 L 1037.76 970.37 L 1040.09 968.47 L 1042.42 966.59 L 1044.77 964.72 L 1047.11 962.85 L 1049.46 960.99 L 1051.82 959.13 L 1054.18 957.28 L 1056.53 955.41 L 1058.87 953.54 L 1061.21 951.66 L 1063.55 949.78 L 1065.88 947.89 L 1068.21 946.00 L 1070.55 944.13 L 1072.90 942.25 L 1075.24 940.38 L 1077.57 938.49 L 1079.90 936.61 L 1082.25 934.74 L 1084.61 932.89 L 1086.97 931.04 L 1089.33 929.18 L 1091.68 927.31 L 1093.99 925.41 L 1096.30 923.49 L 1098.62 921.59 L 1100.96 919.72 L 1103.32 917.85 L 1105.67 915.99 L 1108.02 914.12 L 1110.37 912.26 L 1112.71 910.39 L 1115.08 908.54 L 1117.44 906.69 L 1119.80 904.84 L 1122.15 902.98 L 1124.50 901.11 L 1126.85 899.25 L 1129.21 897.39 L 1131.56 895.53 L 1133.93 893.69 L 1136.32 891.88 L 1138.69 890.03 L 1141.04 888.18 L 1143.39 886.31 L 1145.76 884.46 L 1148.12 882.62 L 1150.48 880.76 L 1152.85 878.92 L 1155.21 877.07 L 1157.58 875.24 L 1159.94 873.38 L 1162.32 871.55 L 1164.70 869.73 L 1167.12 867.96 L 1169.53 866.18 L 1171.97 864.42 L 1174.40 862.67 L 1176.83 860.91 L 1179.25 859.13 L 1181.63 857.30 L 1184.01 855.47 L 1186.38 853.64 L 1188.74 851.78 L 1191.09 849.93 L 1193.45 848.08 L 1195.82 846.23 L 1198.21 844.42 L 1200.58 842.58 L 1202.97 840.76 L 1205.38 838.98 L 1207.81 837.22 L 1210.25 835.47 L 1212.69 833.73 L 1215.16 832.02 L 1217.62 830.31 L 1220.09 828.61 L 1222.55 826.89 L 1225.01 825.18 L 1227.49 823.49 L 1229.97 821.79 L 1232.44 820.09 L 1234.90 818.37 L 1237.37 816.67 L 1239.84 814.97 L 1242.31 813.27 L 1244.78 811.56 L 1247.24 809.85 L 1249.70 808.13 L 1252.17 806.43 L 1254.62 804.70 L 1257.07 802.96 L 1259.53 801.25 L 1261.98 799.52 L 1264.43 797.78 L 1266.86 796.02 L 1269.30 794.29 L 1271.76 792.57 L 1274.22 790.85 L 1276.67 789.12 L 1279.13 787.40 L 1281.59 785.68 L 1284.05 783.97 L 1286.51 782.24 L 1288.96 780.51 L 1291.39 778.75 L 1293.82 777.00 L 1296.26 775.25 L 1298.68 773.48 L 1301.11 771.72 L 1303.53 769.95 L 1305.96 768.19 L 1308.41 766.46 L 1310.87 764.74 L 1313.35 763.04 L 1315.81 761.34 L 1318.29 759.65 L 1320.78 757.97 L 1323.26 756.29 L 1325.76 754.63 L 1328.28 753.00 L 1330.80 751.36 L 1333.30 749.71 L 1335.82 748.08 L 1338.34 746.46 L 1340.88 744.85 L 1343.42 743.26 L 1345.93 741.62 L 1348.44 739.97 L 1350.94 738.33 L 1353.44 736.66 L 1355.92 734.97 L 1358.40 733.29 L 1360.89 731.61 L 1363.37 729.92 L 1365.85 728.24 L 1368.33 726.55 L 1370.81 724.85 L 1373.28 723.15 L 1375.74 721.43 L 1378.19 719.71 L 1380.65 717.99 L 1383.10 716.25 L 1385.56 714.54 L 1387.99 712.79 L 1390.42 711.02 L 1392.84 709.24 L 1395.25 707.46 L 1397.66 705.68 L 1400.10 703.93 L 1402.52 702.16 L 1404.95 700.39 L 1407.36 698.61 L 1409.75 696.80 L 1412.15 695.00 L 1414.54 693.19 L 1416.95 691.39 L 1419.35 689.60 L 1421.76 687.81 L 1424.17 686.03 L 1426.60 684.27 L 1429.00 682.47 L 1431.40 680.66 L 1433.80 678.86 L 1436.22 677.09 L 1438.63 675.31 L 1441.05 673.53 L 1443.47 671.76 L 1445.89 669.99 L 1448.32 668.23 L 1450.76 666.49 L 1453.20 664.73 L 1455.63 662.97 L 1458.04 661.20 L 1460.47 659.43 L 1462.88 657.64 L 1465.28 655.85 L 1467.70 654.07 L 1470.12 652.30 L 1472.54 650.52 L 1474.96 648.75 L 1477.38 646.98 L 1479.80 645.20 L 1482.22 643.44 L 1484.67 641.70 L 1487.12 639.97 L 1489.55 638.22 L 1491.98 636.46 L 1494.43 634.72 L 1496.87 632.98 L 1499.33 631.26 L 1501.79 629.54 L 1504.25 627.83 L 1506.73 626.14 L 1509.20 624.44 L 1511.67 622.73 L 1514.13 621.01 L 1516.58 619.29 L 1519.03 617.55 L 1521.48 615.82 L 1523.93 614.09 L 1526.36 612.33 L 1528.79 610.57 L 1531.22 608.81 L 1533.65 607.06 L 1536.07 605.29 L 1538.48 603.49 L 1540.88 601.69 L 1543.27 599.88 L 1545.65 598.05 L 1548.04 596.25 L 1550.43 594.43 L 1552.81 592.60 L 1555.17 590.75 L 1557.54 588.91 L 1559.91 587.07 L 1562.27 585.21 L 1564.63 583.36 L 1566.99 581.52 L 1569.36 579.67 L 1571.71 577.81 L 1574.08 575.97 L 1576.47 574.16 L 1578.86 572.35 L 1581.25 570.53 L 1583.62 568.70 L 1585.99 566.85 L 1588.34 564.99 L 1590.69 563.12 L 1593.03 561.24 L 1595.37 559.37 L 1597.71 557.49 L 1600.06 555.62 L 1602.40 553.74 L 1604.74 551.87 L 1607.08 550.00 L 1609.42 548.11 L 1611.76 546.23 L 1614.09 544.35 L 1616.44 542.48 L 1618.78 540.60 L 1621.12 538.73 L 1623.48 536.88 L 1625.85 535.04 L 1628.22 533.20 L 1630.59 531.35 L 1632.93 529.48 L 1635.27 527.61 L 1637.62 525.74 L 1639.97 523.87 L 1642.31 522.00 L 1644.65 520.12 L 1647.00 518.26 L 1649.35 516.39 L 1651.69 514.51 L 1654.03 512.64 L 1656.37 510.76 L 1658.72 508.89 L 1661.06 507.02 L 1663.40 505.14 L 1665.76 503.28 L 1668.08 501.39 L 1670.40 499.49 L 1672.71 497.57 L 1675.02 495.66 L 1677.33 493.75 L 1679.64 491.82 L 1681.93 489.89 L 1684.22 487.95 L 1686.52 486.02 L 1688.83 484.10 L 1691.16 482.22 L 1693.48 480.32 L 1695.84 478.46 L 1698.16 476.57 L 1700.48 474.67 L 1702.83 472.80 L 1705.16 470.91 L 1707.48 469.00 L 1709.81 467.11 L 1712.14 465.23 L 1714.47 463.34 L 1716.81 461.46 L 1719.15 459.59 L 1721.48 457.69 L 1723.79 455.77 L 1726.10 453.86 L 1728.42 451.96 L 1730.74 450.06 L 1733.07 448.17 L 1735.38 446.26 L 1737.71 444.37 L 1740.05 442.48 L 1742.37 440.59 L 1744.69 438.69 L 1747.01 436.79 L 1749.31 434.86 L 1751.62 432.94 L 1753.93 431.03 L 1756.23 429.11 L 1758.53 427.17 L 1760.84 425.26 L 1763.15 423.35 L 1765.46 421.43 L 1767.76 419.51 L 1770.06 417.58 L 1772.37 415.66 L 1774.67 413.74 L 1776.96 411.80 L 1779.25 409.86 L 1781.54 407.92 L 1783.80 405.96 L 1786.06 403.98 L 1788.35 402.04 L 1790.63 400.09 L 1792.90 398.13 L 1795.20 396.20 L 1797.50 394.28 L 1799.80 392.35 L 1802.09 390.42 L 1804.40 388.50 L 1806.72 386.59 L 1809.03 384.68 L 1811.34 382.77 L 1813.66 380.87 L 1815.97 378.96 L 1818.29 377.05 L 1820.60 375.13 L 1822.88 373.18 L 1825.16 371.24 L 1827.45 369.30 L 1829.73 367.35 L 1831.99 365.38 L 1834.28 363.44 L 1836.56 361.49 L 1838.85 359.56 L 1841.14 357.61 L 1843.45 355.70 L 1845.79 353.82 L 1848.13 351.94 L 1850.45 350.04 L 1852.79 348.17 L 1855.13 346.29 L 1857.48 344.42 L 1859.82 342.55 L 1862.16 340.67 L 1864.49 338.78 L 1866.83 336.90 L 1869.17 335.03 L 1871.50 333.13 L 1873.80 331.21 L 1876.12 329.31 L 1878.44 327.41 L 1880.75 325.49 L 1883.05 323.57 L 1885.35 321.64 L 1887.66 319.73 L 1889.98 317.82 L 1892.29 315.91 L 1894.63 314.03 L 1896.99 312.17 L 1899.33 310.30 L 1901.68 308.43 L 1904.04 306.58 L 1906.39 304.72 L 1908.74 302.85 L 1911.08 300.98 L 1913.42 299.10 L 1915.78 297.24 L 1918.13 295.38 L 1920.48 293.52 L 1922.84 291.66 L 1925.22 289.83 L 1927.59 287.99 L 1929.95 286.15 L 1932.29 284.27 L 1934.63 282.39 L 1936.96 280.50 L 1939.29 278.62 L 1941.63 276.74 L 1943.98 274.87 L 1946.31 272.98 L 1948.64 271.09 L 1950.98 269.21 L 1953.34 267.36 L 1955.71 265.52 L 1958.07 263.66 L 1960.43 261.81 L 1962.79 259.96 L 1965.15 258.11 L 1967.50 256.25 L 1969.85 254.38 L 1972.21 252.53 L 1974.60 250.71 L 1977.00 248.92 L 1979.41 247.13 L 1981.82 245.35 L 1984.23 243.56 L 1986.65 241.79 L 1989.08 240.03 L 1991.51 238.26 L 1993.94 236.51 L 1996.38 234.76 L 1998.81 233.01 L 2001.25 231.25 L 2003.67 229.48 L 2006.09 227.71 L 2008.51 225.94 L 2010.94 224.18 L 2013.36 222.41 L 2015.78 220.64 L 2018.21 218.88 L 2020.65 217.13" stroke="rgb(245,245,245)" stroke-opacity="0.712" stroke-width="1.12" />
  <path d="M 1031.10 971.75 L 1031.85 969.25 L 1032.60 966.86 L 1033.46 964.53 L 1034.35 962.20 L 1035.22 959.90 L 1036.12 957.60 L 1037.04 955.34 L 1037.86 953.07 L 1038.59 950.79 L 1039.34 948.49 L 1040.07 946.21 L 1040.79 943.94 L 1041.51 941.69 L 1042.22 939.46 L 1042.93 937.27 L 1043.68 935.10 L 1044.37 932.91 L 1045.04 930.74 L 1045.69 928.57 L 1046.40 926.38 L 1047.02 924.19 L 1047.63 922.06 L 1048.21 919.91 L 1048.82 917.73 L 1049.43 915.56 L 1050.06 913.43 L 1050.68 911.31 L 1051.29 909.19 L 1051.92 907.07 L 1052.55 904.93 L 1053.18 902.81 L 1053.81 900.70 L 1054.41 898.57 L 1055.00 896.45 L 1055.59 894.30 L 1056.18 892.16 L 1056.73 890.06 L 1057.42 888.01 L 1058.18 885.95 L 1058.94 883.91 L 1059.72 881.86 L 1060.49 879.82 L 1061.15 877.74 L 1061.91 875.69 L 1062.77 873.74 L 1063.59 871.88 L 1064.44 870.03 L 1065.15 868.14 L 1065.84 866.26 L 1066.54 864.38 L 1067.25 862.52 L 1067.90 860.67 L 1068.55 858.80" stroke="rgb(140,255,190)" stroke-opacity="0.532" stroke-width="1.12" />
  <path d="M 998.38 1001.11 L 1000.52 999.60 L 1002.59 998.02 L 1004.66 996.45 L 1006.76 994.95 L 1008.86 993.46 L 1010.98 992.02 L 1013.11 990.61 L 1015.24 989.21 L 1017.31 987.76 L 1019.35 986.28 L 1021.43 984.87 L 1023.43 983.40 L 1025.40 981.89 L 1027.45 980.49 L 1029.51 979.12 L 1031.56 977.76 L 1033.58 976.37 L 1035.58 974.98 L 1037.55 973.55 L 1039.51 972.11 L 1041.47 970.70 L 1043.38 969.25 L 1045.29 967.80 L 1047.16 966.32 L 1049.02 964.84 L 1050.84 963.35 L 1052.69 961.89 L 1054.49 960.39 L 1056.32 958.94 L 1058.14 957.49 L 1059.97 956.06 L 1061.74 954.58 L 1063.52 953.12 L 1065.31 951.68 L 1067.08 950.25 L 1068.82 948.78 L 1070.56 947.33 L 1072.29 945.88 L 1074.02 944.44 L 1075.72 942.99 L 1077.44 941.58 L 1079.18 940.19 L 1080.93 938.84 L 1082.68 937.51 L 1084.42 936.17 L 1086.15 934.83 L 1087.80 933.43 L 1089.46 932.04 L 1091.11 930.66 L 1092.74 929.28 L 1094.35 927.90 L 1095.94 926.51 L 1097.51 925.10 L 1099.10 923.73 L 1100.69 922.37 L 1102.27 921.02 L 1103.83 919.67 L 1105.39 918.33 L 1106.91 916.95 L 1108.42 915.57 L 1109.93 914.19 L 1111.47 912.87 L 1113.00 911.53 L 1114.52 910.20 L 1116.04 908.88 L 1117.57 907.57" stroke="rgb(205,165,255)" stroke-opacity="0.470" stroke-width="1.11" />
  <path d="M 1046.40 926.38 L 1047.09 924.04 L 1047.93 921.78 L 1048.75 919.51 L 1049.43 917.27 L 1049.96 914.95 L 1050.56 912.64 L 1051.12 910.32 L 1051.62 908.04 L 1052.23 905.79 L 1052.80 903.55 L 1053.37 901.33 L 1053.94 899.12 L 1054.37 896.84 L 1054.85 894.60 L 1055.49 892.41 L 1056.14 890.27 L 1056.88 888.17 L 1057.67 886.10 L 1058.39 884.00 L 1059.10 881.92 L 1059.86 879.84 L 1060.56 877.75 L 1061.20 875.69 L 1061.76 873.61 L 1062.29 871.56 L 1062.89 869.49 L 1063.49 867.45 L 1064.14 865.45 L 1064.93 863.49 L 1065.77 861.62 L 1066.73 859.78 L 1067.72 857.97 L 1068.70 856.11 L 1069.70 854.25 L 1070.72 852.42 L 1071.78 850.60 L 1072.87 848.78 L 1073.95 846.96 L 1075.07 845.23 L 1076.09 843.44 L 1077.19 841.73 L 1078.36 840.12 L 1079.53 838.52 L 1080.67 836.88 L 1081.79 835.24 L 1082.91 833.62 L 1083.98 831.99 L 1085.03 830.35 L 1086.11 828.71 L 1087.16 827.06 L 1088.29 825.48 L 1089.44 823.97 L 1090.53 822.49" stroke="rgb(140,255,190)" stroke-opacity="0.530" stroke-width="1.11" />
  <path d="M 1149.50 938.26 L 1152.38 937.57 L 1155.24 936.82 L 1158.09 936.06 L 1160.93 935.27 L 1163.76 934.50 L 1166.56 933.67 L 1169.37 932.88 L 1172.16 932.09 L 1174.95 931.29 L 1177.74 930.52 L 1180.51 929.76 L 1183.27 929.05 L 1186.01 928.31" stroke="rgb(140,255,190)" stroke-opacity="0.530" stroke-width="1.11" />
  <path d="M 1171.30 905.02 L 1173.91 904.48 L 1176.50 903.94 L 1179.10 903.41" stroke="rgb(140,255,190)" stroke-opacity="0.529" stroke-width="1.11" />
  <path d="M 1132.36 942.86 L 1134.62 941.30 L 1136.84 939.70 L 1139.02 938.07 L 1141.18 936.44 L 1143.28 934.75 L 1145.34 933.04 L 1147.36 931.29 L 1149.37 929.55 L 1151.36 927.80 L 1153.36 926.07 L 1155.33 924.33 L 1157.29 922.58 L 1159.10 920.69 L 1160.90 918.81 L 1162.67 916.92 L 1164.51 915.11 L 1166.36 913.32 L 1168.17 911.51 L 1169.92 909.65 L 1171.67 907.80 L 1173.40 905.95 L 1175.13 904.11 L 1176.84 902.29 L 1178.58 900.49 L 1180.25 898.63 L 1181.91 896.79 L 1183.59 894.97 L 1185.21 893.11 L 1186.82 891.26 L 1188.44 889.43 L 1189.96 887.52 L 1191.46 885.62 L 1192.83 883.63 L 1194.26 881.69 L 1195.64 879.74 L 1197.02 877.79 L 1198.40 875.86 L 1199.79 873.95" stroke="rgb(140,255,190)" stroke-opacity="0.528" stroke-width="1.10" />
  <path d="M 1000.45 998.79 L 1002.80 997.06 L 1005.13 995.33 L 1007.49 993.65 L 1009.84 991.99 L 1012.15 990.29 L 1014.45 988.60 L 1016.76 986.95 L 1019.07 985.31 L 1021.40 983.72 L 1023.72 982.14 L 1026.04 980.57 L 1028.31 978.97 L 1030.57 977.37 L 1032.84 975.81 L 1035.08 974.22 L 1037.27 972.58 L 1039.44 970.94 L 1041.63 969.32 L 1043.80 967.71 L 1045.97 966.11 L 1048.12 964.50 L 1050.27 962.92 L 1052.39 961.33 L 1054.51 959.75 L 1056.62 958.18 L 1058.73 956.64 L 1060.81 955.09 L 1062.88 953.52 L 1064.88 951.90" stroke="rgb(140,255,190)" stroke-opacity="0.528" stroke-width="1.10" />
  <path d="M 997.98 997.18 L 999.81 995.33 L 1001.62 993.48 L 1003.41 991.63 L 1005.23 989.80 L 1007.02 987.97 L 1008.79 986.14 L 1010.64 984.40 L 1012.52 982.72 L 1014.39 981.04 L 1016.25 979.37 L 1018.08 977.70 L 1019.85 976.00 L 1021.65 974.33 L 1023.43 972.67 L 1025.24 971.06 L 1027.06 969.50 L 1028.86 967.92 L 1030.69 966.38 L 1032.52 964.85 L 1034.36 963.38 L 1036.20 961.93 L 1037.96 960.40 L 1039.71 958.85 L 1041.43 957.29 L 1043.11 955.68 L 1044.87 954.17 L 1046.61 952.65 L 1048.35 951.15 L 1050.09 949.67 L 1051.86 948.22 L 1053.61 946.78 L 1055.38 945.37 L 1057.09 943.93 L 1058.89 942.60 L 1060.72 941.35 L 1062.58 940.14 L 1064.44 938.93 L 1066.31 937.77 L 1068.18 936.64 L 1070.04 935.51 L 1071.86 934.36 L 1073.68 933.23 L 1075.50 932.11 L 1077.31 930.99 L 1079.10 929.88 L 1080.88 928.75 L 1082.62 927.58 L 1084.36 926.45 L 1086.02 925.24" stroke="rgb(140,255,190)" stroke-opacity="0.527" stroke-width="1.10" />
  <path d="M 1044.10 972.54 L 1046.89 972.23 L 1049.67 971.92 L 1052.43 971.62 L 1055.19 971.34 L 1057.94 971.10 L 1060.68 970.87 L 1063.42 970.77 L 1066.13 970.82 L 1068.84 970.84 L 1071.53 970.85 L 1074.22 970.85 L 1076.89 970.80 L 1079.55 970.75 L 1082.19 970.70 L 1084.81 970.50 L 1087.41 970.28 L 1090.01 970.02 L 1092.61 969.81 L 1095.20 969.59 L 1097.79 969.42 L 1100.36 969.33 L 1102.91 969.23 L 1105.46 969.27 L 1108.00 969.13 L 1110.53 968.99 L 1113.05 968.87 L 1115.56 968.69 L 1118.06 968.51 L 1120.55 968.33 L 1123.03 968.09 L 1125.50 967.84 L 1127.96 967.59 L 1130.41 967.31 L 1132.84 967.01 L 1135.27 966.66 L 1137.69 966.41 L 1140.11 966.26 L 1142.51 966.02 L 1144.90 965.84 L 1147.29 965.68 L 1149.68 965.52 L 1152.05 965.36 L 1154.42 965.20 L 1156.77 965.04 L 1159.12 964.93 L 1161.47 964.84 L 1163.80 964.77 L 1166.12 964.69 L 1168.44 964.53 L 1170.74 964.38 L 1173.03 964.20 L 1175.31 964.03 L 1177.58 963.80 L 1179.84 963.55" stroke="rgb(140,255,190)" stroke-opacity="0.526" stroke-width="1.10" />
  <path d="M 1020.99 979.76 L 1023.05 977.66 L 1025.09 975.56 L 1027.09 973.44 L 1029.10 971.35 L 1031.08 969.24 L 1033.05 967.15 L 1035.00 965.05 L 1036.95 962.97 L 1038.89 960.89 L 1040.91 958.90 L 1042.92 956.92 L 1044.92 954.95 L 1046.85 952.92 L 1048.77 950.88 L 1050.70 948.87 L 1052.54 946.80 L 1054.39 944.75 L 1056.23 942.71 L 1058.02 940.63 L 1059.81 938.57 L 1061.61 936.53 L 1063.43 934.54 L 1065.19 932.50 L 1066.87 930.40 L 1068.54 928.32 L 1070.21 926.25 L 1071.88 924.20 L 1073.54 922.15 L 1075.21 920.13 L 1076.89 918.12 L 1078.61 916.17 L 1080.34 914.24 L 1082.09 912.35 L 1083.82 910.44 L 1085.57 908.56 L 1087.29 906.67 L 1088.93 904.72 L 1090.59 902.81 L 1092.24 900.89 L 1093.92 899.01 L 1095.60 897.15 L 1097.27 895.30 L 1098.96 893.47 L 1100.65 891.65 L 1102.34 889.86 L 1104.03 888.08 L 1105.71 886.31 L 1107.42 884.56" stroke="rgb(140,255,190)" stroke-opacity="0.525" stroke-width="1.10" />
  <path d="M 999.48 1000.59 L 1001.64 1001.91 L 1003.78 1003.25 L 1005.89 1004.54 L 1008.00 1005.83 L 1010.09 1007.13 L 1012.20 1008.40 L 1014.25 1009.69 L 1016.30 1010.97 L 1018.35 1012.27 L 1020.40 1013.53 L 1022.40 1014.92 L 1024.39 1016.28 L 1026.37 1017.63 L 1028.29 1019.02 L 1030.20 1020.39 L 1032.14 1021.72 L 1034.08 1023.01 L 1036.01 1024.30 L 1037.94 1025.59 L 1039.88 1026.82 L 1041.82 1028.02 L 1043.78 1029.20 L 1045.73 1030.36 L 1047.68 1031.53 L 1049.66 1032.66 L 1051.63 1033.78 L 1053.63 1034.86 L 1055.63 1035.94 L 1057.61 1037.02 L 1059.58 1038.09 L 1061.52 1039.17 L 1063.47 1040.23 L 1065.41 1041.31 L 1067.34 1042.36 L 1069.26 1043.41 L 1071.14 1044.49 L 1072.99 1045.61 L 1074.83 1046.70 L 1076.65 1047.79 L 1078.45 1048.90 L 1080.25 1050.01" stroke="rgb(140,255,190)" stroke-opacity="0.525" stroke-width="1.10" />
  <path d="M 1065.10 962.35 L 1067.88 961.68 L 1070.64 960.95 L 1073.39 960.25 L 1076.11 959.58 L 1078.82 958.91 L 1081.51 958.21 L 1084.19 957.53 L 1086.86 956.77 L 1089.51 956.02 L 1092.16 955.27 L 1094.78 954.49 L 1097.36 953.67 L 1099.95 952.88 L 1102.52 952.09 L 1105.07 951.28 L 1107.61 950.49 L 1110.13 949.70 L 1112.65 948.91 L 1115.17 948.16 L 1117.66 947.41 L 1120.13 946.63 L 1122.60 945.85 L 1125.04 945.07 L 1127.49 944.31 L 1129.92 943.56 L 1132.36 942.86 L 1134.79 942.16 L 1137.24 941.50 L 1139.70 940.86 L 1142.14 940.20 L 1144.59 939.54 L 1147.04 938.89 L 1149.50 938.26 L 1151.93 937.60 L 1154.36 936.97" stroke="rgb(140,255,190)" stroke-opacity="0.525" stroke-width="1.09" />
  <path d="M 1064.50 956.30 L 1066.19 954.37 L 1067.87 952.51 L 1069.53 950.61 L 1071.31 948.80 L 1073.15 946.99 L 1075.05 945.24 L 1076.94 943.48 L 1078.81 941.73 L 1080.80 940.05 L 1082.76 938.34 L 1084.71 936.61 L 1086.67 934.90 L 1088.61 933.21 L 1090.50 931.46 L 1092.39 929.72 L 1094.29 927.99 L 1096.18 926.26 L 1098.10 924.57 L 1100.02 922.91 L 1101.93 921.26 L 1103.72 919.52 L 1105.48 917.77 L 1107.16 915.96 L 1108.80 914.14" stroke="rgb(140,255,190)" stroke-opacity="0.523" stroke-width="1.09" />
  <path d="M 997.79 1001.19 L 995.96 1002.94 L 994.06 1004.60 L 992.17 1006.26 L 990.23 1007.91 L 988.33 1009.56 L 986.51 1011.34 L 984.75 1013.19 L 982.99 1015.01 L 981.23 1016.82 L 979.49 1018.62 L 977.79 1020.45 L 976.01 1022.23 L 974.26 1024.03 L 972.49 1025.80 L 970.72 1027.56 L 969.00 1029.30 L 967.28 1031.04 L 965.61 1032.77 L 963.93 1034.47 L 962.29 1036.18 L 960.66 1037.91 L 958.96 1039.56 L 957.27 1041.20 L 955.50 1042.77 L 953.76 1044.33 L 952.03 1045.89 L 950.29 1047.43" stroke="rgb(140,255,190)" stroke-opacity="0.523" stroke-width="1.09" />
  <path d="M 1001.72 999.62 L 1003.86 998.53 L 1005.98 997.44 L 1008.10 996.37 L 1010.22 995.31 L 1012.36 994.32 L 1014.52 993.40 L 1016.68 992.49 L 1018.82 991.58 L 1020.95 990.66 L 1023.10 989.82 L 1025.25 989.00 L 1027.40 988.22 L 1029.56 987.48 L 1031.69 986.75 L 1033.80 985.95 L 1035.88 985.13 L 1037.95 984.31 L 1040.05 983.56 L 1042.14 982.81 L 1044.23 982.08 L 1046.31 981.39 L 1048.40 980.71 L 1050.48 980.03 L 1052.55 979.36 L 1054.62 978.71 L 1056.67 978.06 L 1058.71 977.40 L 1060.72 976.66 L 1062.74 975.95 L 1064.76 975.27 L 1066.76 974.57 L 1068.74 973.84 L 1070.71 973.11 L 1072.65 972.36 L 1074.57 971.56 L 1076.43 970.65" stroke="rgb(205,165,255)" stroke-opacity="0.456" stroke-width="1.06" />
  <path d="M 996.63 1000.10 L 995.20 1000.36 L 993.77 1000.48 L 992.34 1000.71 L 990.93 1000.94 L 989.58 1001.37 L 988.24 1001.80 L 986.87 1002.21 L 985.49 1002.58 L 984.10 1002.98" stroke="rgb(230,230,230)" stroke-opacity="0.386" stroke-width="0.71" />
  <path d="M 999.88 994.67 L 999.51 993.97 L 999.20 993.17 L 999.34 992.46 L 999.26 991.59 L 999.27 990.61" stroke="rgb(230,230,230)" stroke-opacity="0.383" stroke-width="0.70" />
  <path d="M 996.61 999.50 L 995.12 999.43 L 993.70 998.95 L 992.28 998.54 L 990.91 998.39 L 989.46 998.44 L 988.00 998.45" stroke="rgb(230,230,230)" stroke-opacity="0.381" stroke-width="0.70" />
  <path d="M 1002.23 1003.58 L 1003.44 1003.51 L 1004.66 1003.24 L 1005.82 1002.83 L 1006.98 1002.42 L 1008.13 1001.99 L 1009.25 1001.57 L 1010.29 1001.13 L 1011.28 1000.69" stroke="rgb(230,230,230)" stroke-opacity="0.379" stroke-width="0.69" />
  <path d="M 996.51 1004.32 L 997.34 1003.07 L 998.15 1001.82 L 998.91 1000.54 L 999.55 999.21" stroke="rgb(230,230,230)" stroke-opacity="0.379" stroke-width="0.69" />
  <path d="M 992.52 995.98 L 991.56 995.00 L 990.55 994.01 L 989.55 993.02 L 988.60 991.96 L 987.64 990.91" stroke="rgb(230,230,230)" stroke-opacity="0.378" stroke-width="0.69" />
  <path d="M 995.10 1001.65 L 995.87 1002.34 L 996.65 1003.11 L 997.42 1003.87 L 998.15 1004.63 L 998.83 1005.38 L 999.51 1006.13 L 1000.32 1006.72" stroke="rgb(230,230,230)" stroke-opacity="0.378" stroke-width="0.69" />
  <path d="M 1000.69 1001.60 L 999.28 1001.95 L 997.85 1002.31 L 996.46 1002.71 L 995.09 1003.10 L 993.69 1003.37 L 992.40 1003.89 L 991.12 1004.42 L 989.88 1005.05 L 988.64 1005.70 L 987.39 1006.38 L 986.10 1006.90 L 984.90 1007.49 L 983.64 1008.05 L 982.44 1008.70 L 981.47 1009.67 L 980.56 1010.66 L 979.62 1011.65" stroke="rgb(230,230,230)" stroke-opacity="0.376" stroke-width="0.68" />
  <path d="M 995.07 998.66 L 993.82 997.91 L 992.63 997.07 L 991.47 996.22 L 990.33 995.32 L 989.21 994.43 L 988.14 993.48" stroke="rgb(230,230,230)" stroke-opacity="0.375" stroke-width="0.68" />
  <path d="M 997.50 1000.67 L 998.35 1001.22 L 999.19 1001.78" stroke="rgb(230,230,230)" stroke-opacity="0.365" stroke-width="0.65" />
  <path d="M 997.67 997.21 L 998.05 995.79 L 998.49 994.38 L 999.00 993.00 L 999.63 991.66 L 1000.29 990.34 L 1000.98 989.05 L 1001.68 987.78" stroke="rgb(230,230,230)" stroke-opacity="0.365" stroke-width="0.65" />
  <path d="M 995.27 995.15 L 994.01 995.83 L 992.75 996.50" stroke="rgb(230,230,230)" stroke-opacity="0.363" stroke-width="0.65" />
  <path d="M 1001.56 1001.59 L 1002.56 1002.57 L 1003.50 1003.65 L 1004.43 1004.76 L 1005.28 1005.88 L 1006.25 1006.86 L 1007.22 1007.84" stroke="rgb(230,230,230)" stroke-opacity="0.357" stroke-width="0.63" />
  <path d="M 999.25 994.94 L 997.95 995.63 L 996.71 996.34 L 995.43 996.96 L 994.14 997.59 L 992.86 998.23 L 991.67 999.03 L 990.53 999.81 L 989.32 1000.46 L 988.18 1001.23 L 987.07 1002.00 L 985.94 1002.73 L 984.89 1003.56 L 983.97 1004.42" stroke="rgb(230,230,230)" stroke-opacity="0.356" stroke-width="0.63" />
  <path d="M 1000.72 992.43 L 1001.77 991.80 L 1003.09 991.28 L 1004.37 990.63 L 1005.70 990.21 L 1006.99 989.78 L 1008.31 989.54" stroke="rgb(230,230,230)" stroke-opacity="0.351" stroke-width="0.61" />
  <path d="M 997.74 997.62 L 998.45 996.31 L 999.19 995.02 L 999.93 993.74 L 1000.68 992.47 L 1001.44 991.22 L 1002.21 989.98 L 1002.95 988.72 L 1003.68 987.46 L 1004.40 986.20 L 1005.13 984.95 L 1005.80 983.68 L 1006.43 982.40 L 1007.09 981.15 L 1007.77 979.92" stroke="rgb(230,230,230)" stroke-opacity="0.350" stroke-width="0.61" />
  <path d="M 997.17 998.76 L 997.83 997.42 L 998.42 996.05 L 998.97 994.67 L 999.54 993.31 L 1000.21 992.00 L 1000.73 990.63 L 1001.27 989.29 L 1001.94 988.00 L 1002.60 986.71 L 1003.30 985.46 L 1004.00 984.22 L 1004.71 982.98" stroke="rgb(230,230,230)" stroke-opacity="0.350" stroke-width="0.61" />
  <path d="M 995.78 1003.62 L 996.99 1004.10 L 998.20 1004.57 L 999.38 1005.07 L 1000.62 1005.58 L 1001.69 1006.37 L 1002.83 1006.98 L 1003.99 1007.52 L 1005.07 1008.21 L 1006.15 1008.91 L 1007.28 1009.49 L 1008.40 1010.06 L 1009.51 1010.65 L 1010.64 1011.31" stroke="rgb(230,230,230)" stroke-opacity="0.350" stroke-width="0.61" />
</g>
</svg>
