{
  "asset": {
    "version": "2.0",
    "generator": "TES-23 Cosmic Ray Renderer"
  },
  "extensionsUsed": [
    "KHR_materials_unlit"
  ],
  "extensionsRequired": [
    "KHR_materials_unlit"
  ],
  "scene": 0,
  "scenes": [
    {
      "nodes": [
        0
      ]
    }
  ],
  "nodes": [
    {
      "name": "CosmicRayEvent",
      "mesh": 0
    }
  ],
  "meshes": [
    {
      "name": "CosmicRayEvent",
      "primitives": [
        {
          "attributes": {
            "POSITION": 0
          },
          "material": 0,
          "mode": 1
        },
        {
          "attributes": {
            "POSITION": 1
          },
          "material": 1,
          "mode": 1
        },
        {
          "attributes": {
            "POSITION": 2
          },
          "material": 2,
          "mode": 1
        },
        {
          "attributes": {
            "POSITION": 3
          },
          "material": 3,
          "mode": 1
        },
        {
          "attributes": {
            "POSITION": 4
          },
          "material": 4,
          "mode": 1
        }
      ]
    }
  ],
  "materials": [
    {
      "name": "primary",
      "extensions": {
        "KHR_materials_unlit": {}
      },
      "pbrMetallicRoughness": {
        "baseColorFactor": [
          0.961,
          0.961,
          0.961,
          1
        ],
        "metallicFactor": 0,
        "roughnessFactor": 1
      }
    },
    {
      "name": "vertex",
      "extensions": {
        "KHR_materials_unlit": {}
      },
      "pbrMetallicRoughness": {
        "baseColorFactor": [
          0.902,
          0.902,
          0.902,
          0.9
        ],
        "metallicFactor": 0,
        "roughnessFactor": 1
      }
    },
    {
      "name": "em",
      "extensions": {
        "KHR_materials_unlit": {}
      },
      "pbrMetallicRoughness": {
        "baseColorFactor": [
          0.471,
          0.824,
          1,
          1
        ],
        "metallicFactor": 0,
        "roughnessFactor": 1
      }
    },
    {
      "name": "hadron",
      "extensions": {
        "KHR_materials_unlit": {}
      },
      "pbrMetallicRoughness": {
        "baseColorFactor": [
          0.549,
          1,
          0.745,
          1
        ],
        "metallicFactor": 0,
        "roughnessFactor": 1
      }
    },
    {
      "name": "delta",
      "extensions": {
        "KHR_materials_unlit": {}
      },
      "pbrMetallicRoughness": {
        "baseColorFactor": [
          0.804,
          0.647,
          1,
          1
        ],
        "metallicFactor": 0,
        "roughnessFactor": 1
      }
    }
  ],
  "accessors": [
    {
      "bufferView": 0,
      "byteOffset": 0,
      "componentType": 5126,
      "count": 1796,
      "type": "VEC3",
      "min": [
        -0.8774178624153137,
        -0.9995886087417603,
        0
      ],
      "max": [
        0.9005086421966553,
        1.0207505226135254,
        0
      ]
    },
    {
      "bufferView": 1,
      "byteOffset": 0,
      "componentType": 5126,
      "count": 272,
      "type": "VEC3",
      "min": [
        -0.015636352822184563,
        -0.014340867288410664,
        -0.04800476133823395
      ],
      "max": [
        0.007240378297865391,
        0.016765082255005836,
        0.05977451428771019
      ]
    },
    {
      "bufferView": 2,
      "byteOffset": 0,
      "componentType": 5126,
      "count": 1618,
      "type": "VEC3",
      "min": [
        -0.004433730151504278,
        -0.0022805703338235617,
        -0.10469505935907364
      ],
      "max": [
        0.2370530664920807,
        0.22257889807224274,
        0.19897545874118805
      ]
    },
    {
      "bufferView": 3,
      "byteOffset": 0,
      "componentType": 5126,
      "count": 1688,
      "type": "VEC3",
      "min": [
        -0.05180471017956734,
        -0.058439742773771286,
        -0.400068998336792
      ],
      "max": [
        0.20032483339309692,
        0.25959891080856323,
        0.4785946011543274
      ]
    },
    {
      "bufferView": 4,
      "byteOffset": 0,
      "componentType": 5126,
      "count": 360,
      "type": "VEC3",
      "min": [
        -0.025856049731373787,
        -0.10947500914335251,
        -0.2752164304256439
      ],
      "max": [
        0.11629755049943924,
        0.041915442794561386,
        0.8058028817176819
      ]
    }
  ],
  "bufferViews": [
    {
      "buffer": 0,
      "byteOffset": 0,
      "byteLength": 21552,
      "target": 34962
    },
    {
      "buffer": 0,
      "byteOffset": 21552,
      "byteLength": 3264,
      "target": 34962
    },
    {
      "buffer": 0,
      "byteOffset": 24816,
      "byteLength": 19416,
      "target": 34962
    },
    {
      "buffer": 0,
      "byteOffset": 44232,
      "byteLength": 20256,
      "target": 34962
    },
    {
      "buffer": 0,
      "byteOffset": 64488,
      "byteLength": 4320,
      "target": 34962
    }
  ],
  "buffers": [
    {
      "byteLength": 68808,
      "uri": "data:application/octet-stream;base64,"
    }
  ]
}