{
  "asset": {
    "version": "2.0",
    "generator": "TES-23 Cosmic Ray Renderer"
  },
  "extensionsUsed": [
    "KHR_materials_unlit"
  ],
  "extensionsRequired": [
    "KHR_materials_unlit"
  ],
  "scene": 0,
  "scenes": [
    {
      "nodes": [
        0
      ]
    }
  ],
  "nodes": [
    {
      "name": "CosmicRayEvent",
      "mesh": 0
    }
  ],
  "meshes": [
    {
      "name": "CosmicRayEvent",
      "primitives": [
        {
          "attributes": {
            "POSITION": 0
          },
          "material": 0,
          "mode": 1
        },
        {
          "attributes": {
            "POSITION": 1
          },
          "material": 1,
          "mode": 1
        },
        {
          "attributes": {
            "POSITION": 2
          },
          "material": 2,
          "mode": 1
        },
        {
          "attributes": {
            "POSITION": 3
          },
          "material": 3,
          "mode": 1
        },
        {
          "attributes": {
            "POSITION": 4
          },
          "material": 4,
          "mode": 1
        },
        {
          "attributes": {
            "POSITION": 5
          },
          "material": 5,
          "mode": 1
        }
      ]
    }
  ],
  "materials": [
    {
      "name": "primary",
      "extensions": {
        "KHR_materials_unlit": {}
      },
      "pbrMetallicRoughness": {
        "baseColorFactor": [
          0.961,
          0.961,
          0.961,
          1
        ],
        "metallicFactor": 0,
        "roughnessFactor": 1
      }
    },
    {
      "name": "vertex",
      "extensions": {
        "KHR_materials_unlit": {}
      },
      "pbrMetallicRoughness": {
        "baseColorFactor": [
          0.902,
          0.902,
          0.902,
          0.9
        ],
        "metallicFactor": 0,
        "roughnessFactor": 1
      }
    },
    {
      "name": "em",
      "extensions": {
        "KHR_materials_unlit": {}
      },
      "pbrMetallicRoughness": {
        "baseColorFactor": [
          0.471,
          0.824,
          1,
          1
        ],
        "metallicFactor": 0,
        "roughnessFactor": 1
      }
    },
    {
      "name": "hadron",
      "extensions": {
        "KHR_materials_unlit": {}
      },
      "pbrMetallicRoughness": {
        "baseColorFactor": [
          0.549,
          1,
          0.745,
          1
        ],
        "metallicFactor": 0,
        "roughnessFactor": 1
      }
    },
    {
      "name": "delta",
      "extensions": {
        "KHR_materials_unlit": {}
      },
      "pbrMetallicRoughness": {
        "baseColorFactor": [
          0.804,
          0.647,
          1,
          1
        ],
        "metallicFactor": 0,
        "roughnessFactor": 1
      }
    },
    {
      "name": "backscatter",
      "extensions": {
        "KHR_materials_unlit": {}
      },
      "pbrMetallicRoughness": {
        "baseColorFactor": [
          1,
          0.824,
          0.529,
          0.95
        ],
        "metallicFactor": 0,
        "roughnessFactor": 1
      }
    }
  ],
  "accessors": [
    {
      "bufferView": 0,
      "byteOffset": 0,
      "componentType": 5126,
      "count": 1432,
      "type": "VEC3",
      "min": [
        -0.9998259544372559,
        -0.3637923002243042,
        0
      ],
      "max": [
        1.020844578742981,
        0.3609870672225952,
        0
      ]
    },
    {
      "bufferView": 1,
      "byteOffset": 0,
      "componentType": 5126,
      "count": 348,
      "type": "VEC3",
      "min": [
        -0.009275621734559536,
        -0.019956178963184357,
        -0.052158743143081665
      ],
      "max": [
        0.021560801193118095,
        0.01719522848725319,
        0.06347417831420898
      ]
    },
    {
      "bufferView": 2,
      "byteOffset": 0,
      "componentType": 5126,
      "count": 1014,
      "type": "VEC3",
      "min": [
        -0.002505922457203269,
        -0.0031384029425680637,
        -0.1313706487417221
      ],
      "max": [
        0.20634149014949799,
        0.09888861328363419,
        0.07186809182167053
      ]
    },
    {
      "bufferView": 3,
      "byteOffset": 0,
      "componentType": 5126,
      "count": 2276,
      "type": "VEC3",
      "min": [
        -0.2080284208059311,
        -0.11021335422992706,
        -0.5698853135108948
      ],
      "max": [
        0.31940218806266785,
        0.07675622403621674,
        0.463523268699646
      ]
    },
    {
      "bufferView": 4,
      "byteOffset": 0,
      "componentType": 5126,
      "count": 682,
      "type": "VEC3",
      "min": [
        -0.020312512293457985,
        -0.2541104853153229,
        -0.14318522810935974
      ],
      "max": [
        0.262369841337204,
        0.11420537531375885,
        0.26086854934692383
      ]
    },
    {
      "bufferView": 5,
      "byteOffset": 0,
      "componentType": 5126,
      "count": 704,
      "type": "VEC3",
      "min": [
        -0.15131793916225433,
        -0.18262448906898499,
        -0.640348494052887
      ],
      "max": [
        0.08447638154029846,
        0.06001168116927147,
        0.38500672578811646
      ]
    }
  ],
  "bufferViews": [
    {
      "buffer": 0,
      "byteOffset": 0,
      "byteLength": 17184,
      "target": 34962
    },
    {
      "buffer": 0,
      "byteOffset": 17184,
      "byteLength": 4176,
      "target": 34962
    },
    {
      "buffer": 0,
      "byteOffset": 21360,
      "byteLength": 12168,
      "target": 34962
    },
    {
      "buffer": 0,
      "byteOffset": 33528,
      "byteLength": 27312,
      "target": 34962
    },
    {
      "buffer": 0,
      "byteOffset": 60840,
      "byteLength": 8184,
      "target": 34962
    },
    {
      "buffer": 0,
      "byteOffset": 69024,
      "byteLength": 8448,
      "target": 34962
    }
  ],
  "buffers": [
    {
      "byteLength": 77472,
      "uri": "data:application/octet-stream;base64,"
    }
  ]
}