{
  "asset": {
    "version": "2.0",
    "generator": "TES-23 Cosmic Ray Renderer"
  },
  "extensionsUsed": [
    "KHR_materials_unlit"
  ],
  "extensionsRequired": [
    "KHR_materials_unlit"
  ],
  "scene": 0,
  "scenes": [
    {
      "nodes": [
        0
      ]
    }
  ],
  "nodes": [
    {
      "name": "CosmicRayEvent",
      "mesh": 0
    }
  ],
  "meshes": [
    {
      "name": "CosmicRayEvent",
      "primitives": [
        {
          "attributes": {
            "POSITION": 0
          },
          "material": 0,
          "mode": 1
        },
        {
          "attributes": {
            "POSITION": 1
          },
          "material": 1,
          "mode": 1
        },
        {
          "attributes": {
            "POSITION": 2
          },
          "material": 2,
          "mode": 1
        },
        {
          "attributes": {
            "POSITION": 3
          },
          "material": 3,
          "mode": 1
        },
        {
          "attributes": {
            "POSITION": 4
          },
          "material": 4,
          "mode": 1
        }
      ]
    }
  ],
  "materials": [
    {
      "name": "primary",
      "extensions": {
        "KHR_materials_unlit": {}
      },
      "pbrMetallicRoughness": {
        "baseColorFactor": [
          0.961,
          0.961,
          0.961,
          1
        ],
        "metallicFactor": 0,
        "roughnessFactor": 1
      }
    },
    {
      "name": "vertex",
      "extensions": {
        "KHR_materials_unlit": {}
      },
      "pbrMetallicRoughness": {
        "baseColorFactor": [
          0.902,
          0.902,
          0.902,
          0.9
        ],
        "metallicFactor": 0,
        "roughnessFactor": 1
      }
    },
    {
      "name": "em",
      "extensions": {
        "KHR_materials_unlit": {}
      },
      "pbrMetallicRoughness": {
        "baseColorFactor": [
          0.471,
          0.824,
          1,
          1
        ],
        "metallicFactor": 0,
        "roughnessFactor": 1
      }
    },
    {
      "name": "hadron",
      "extensions": {
        "KHR_materials_unlit": {}
      },
      "pbrMetallicRoughness": {
        "baseColorFactor": [
          0.549,
          1,
          0.745,
          1
        ],
        "metallicFactor": 0,
        "roughnessFactor": 1
      }
    },
    {
      "name": "delta",
      "extensions": {
        "KHR_materials_unlit": {}
      },
      "pbrMetallicRoughness": {
        "baseColorFactor": [
          0.804,
          0.647,
          1,
          1
        ],
        "metallicFactor": 0,
        "roughnessFactor": 1
      }
    }
  ],
  "accessors": [
    {
      "bufferView": 0,
      "byteOffset": 0,
      "componentType": 5126,
      "count": 1368,
      "type": "VEC3",
      "min": [
        -0.17274294793605804,
        -0.9999018907546997,
        0
      ],
      "max": [
        0.1720244437456131,
        1.0204132795333862,
        0
      ]
    },
    {
      "bufferView": 1,
      "byteOffset": 0,
      "componentType": 5126,
      "count": 278,
      "type": "VEC3",
      "min": [
        -0.01178161334246397,
        -0.013575143180787563,
        -0.051421668380498886
      ],
      "max": [
        0.010637873783707619,
        0.013280182145535946,
        0.12273446470499039
      ]
    },
    {
      "bufferView": 2,
      "byteOffset": 0,
      "componentType": 5126,
      "count": 1150,
      "type": "VEC3",
      "min": [
        -0.0891532376408577,
        -0.0029938335064798594,
        -0.0666009709239006
      ],
      "max": [
        0.002530786907300353,
        0.33967337012290955,
        0.23128844797611237
      ]
    },
    {
      "bufferView": 3,
      "byteOffset": 0,
      "componentType": 5126,
      "count": 4502,
      "type": "VEC3",
      "min": [
        -0.15107667446136475,
        -0.16384561359882355,
        -0.5235730409622192
      ],
      "max": [
        0.06847458332777023,
        0.38729792833328247,
        0.9107693433761597
      ]
    },
    {
      "bufferView": 4,
      "byteOffset": 0,
      "componentType": 5126,
      "count": 960,
      "type": "VEC3",
      "min": [
        -0.05381234362721443,
        -0.0792388916015625,
        -0.2030714452266693
      ],
      "max": [
        0.09986669570207596,
        0.1852482110261917,
        1.131516695022583
      ]
    }
  ],
  "bufferViews": [
    {
      "buffer": 0,
      "byteOffset": 0,
      "byteLength": 16416,
      "target": 34962
    },
    {
      "buffer": 0,
      "byteOffset": 16416,
      "byteLength": 3336,
      "target": 34962
    },
    {
      "buffer": 0,
      "byteOffset": 19752,
      "byteLength": 13800,
      "target": 34962
    },
    {
      "buffer": 0,
      "byteOffset": 33552,
      "byteLength": 54024,
      "target": 34962
    },
    {
      "buffer": 0,
      "byteOffset": 87576,
      "byteLength": 11520,
      "target": 34962
    }
  ],
  "buffers": [
    {
      "byteLength": 99096,
      "uri": "data:application/octet-stream;base64,"
    }
  ]
}