{
  "asset": {
    "version": "2.0",
    "generator": "TES-23 Cosmic Ray Renderer"
  },
  "extensionsUsed": [
    "KHR_materials_unlit"
  ],
  "extensionsRequired": [
    "KHR_materials_unlit"
  ],
  "scene": 0,
  "scenes": [
    {
      "nodes": [
        0
      ]
    }
  ],
  "nodes": [
    {
      "name": "CosmicRayEvent",
      "mesh": 0
    }
  ],
  "meshes": [
    {
      "name": "CosmicRayEvent",
      "primitives": [
        {
          "attributes": {
            "POSITION": 0
          },
          "material": 0,
          "mode": 1
        },
        {
          "attributes": {
            "POSITION": 1
          },
          "material": 1,
          "mode": 1
        },
        {
          "attributes": {
            "POSITION": 2
          },
          "material": 2,
          "mode": 1
        },
        {
          "attributes": {
            "POSITION": 3
          },
          "material": 3,
          "mode": 1
        },
        {
          "attributes": {
            "POSITION": 4
          },
          "material": 4,
          "mode": 1
        }
      ]
    }
  ],
  "materials": [
    {
      "name": "primary",
      "extensions": {
        "KHR_materials_unlit": {}
      },
      "pbrMetallicRoughness": {
        "baseColorFactor": [
          0.961,
          0.961,
          0.961,
          1
        ],
        "metallicFactor": 0,
        "roughnessFactor": 1
      }
    },
    {
      "name": "vertex",
      "extensions": {
        "KHR_materials_unlit": {}
      },
      "pbrMetallicRoughness": {
        "baseColorFactor": [
          0.902,
          0.902,
          0.902,
          0.9
        ],
        "metallicFactor": 0,
        "roughnessFactor": 1
      }
    },
    {
      "name": "em",
      "extensions": {
        "KHR_materials_unlit": {}
      },
      "pbrMetallicRoughness": {
        "baseColorFactor": [
          0.471,
          0.824,
          1,
          1
        ],
        "metallicFactor": 0,
        "roughnessFactor": 1
      }
    },
    {
      "name": "hadron",
      "extensions": {
        "KHR_materials_unlit": {}
      },
      "pbrMetallicRoughness": {
        "baseColorFactor": [
          0.549,
          1,
          0.745,
          1
        ],
        "metallicFactor": 0,
        "roughnessFactor": 1
      }
    },
    {
      "name": "delta",
      "extensions": {
        "KHR_materials_unlit": {}
      },
      "pbrMetallicRoughness": {
        "baseColorFactor": [
          0.804,
          0.647,
          1,
          1
        ],
        "metallicFactor": 0,
        "roughnessFactor": 1
      }
    }
  ],
  "accessors": [
    {
      "bufferView": 0,
      "byteOffset": 0,
      "componentType": 5126,
      "count": 1474,
      "type": "VEC3",
      "min": [
        -0.9999532103538513,
        -0.44471991062164307,
        0
      ],
      "max": [
        1.022089958190918,
        0.4468967020511627,
        0
      ]
    },
    {
      "bufferView": 1,
      "byteOffset": 0,
      "componentType": 5126,
      "count": 298,
      "type": "VEC3",
      "min": [
        -0.015670422464609146,
        -0.015578452497720718,
        -0.07824623584747314
      ],
      "max": [
        0.014514818787574768,
        0.014511402696371078,
        0.0872613713145256
      ]
    },
    {
      "bufferView": 2,
      "byteOffset": 0,
      "componentType": 5126,
      "count": 990,
      "type": "VEC3",
      "min": [
        -0.00148625741712749,
        -0.002515978878363967,
        -0.13269789516925812
      ],
      "max": [
        0.2331136167049408,
        0.10153590887784958,
        0.05679655820131302
      ]
    },
    {
      "bufferView": 3,
      "byteOffset": 0,
      "componentType": 5126,
      "count": 2440,
      "type": "VEC3",
      "min": [
        -0.003240735037252307,
        -0.0034757941029965878,
        -0.49616941809654236
      ],
      "max": [
        0.31005480885505676,
        0.1734413355588913,
        0.24814102053642273
      ]
    },
    {
      "bufferView": 4,
      "byteOffset": 0,
      "componentType": 5126,
      "count": 402,
      "type": "VEC3",
      "min": [
        -0.029035160318017006,
        -0.026299672201275826,
        -0.42224863171577454
      ],
      "max": [
        0.12576444447040558,
        0.05772017315030098,
        0.34150663018226624
      ]
    }
  ],
  "bufferViews": [
    {
      "buffer": 0,
      "byteOffset": 0,
      "byteLength": 17688,
      "target": 34962
    },
    {
      "buffer": 0,
      "byteOffset": 17688,
      "byteLength": 3576,
      "target": 34962
    },
    {
      "buffer": 0,
      "byteOffset": 21264,
      "byteLength": 11880,
      "target": 34962
    },
    {
      "buffer": 0,
      "byteOffset": 33144,
      "byteLength": 29280,
      "target": 34962
    },
    {
      "buffer": 0,
      "byteOffset": 62424,
      "byteLength": 4824,
      "target": 34962
    }
  ],
  "buffers": [
    {
      "byteLength": 67248,
      "uri": "data:application/octet-stream;base64,"
    }
  ]
}