{
  "asset": {
    "version": "2.0",
    "generator": "TES-23 Cosmic Ray Renderer"
  },
  "extensionsUsed": [
    "KHR_materials_unlit"
  ],
  "extensionsRequired": [
    "KHR_materials_unlit"
  ],
  "scene": 0,
  "scenes": [
    {
      "nodes": [
        0
      ]
    }
  ],
  "nodes": [
    {
      "name": "CosmicRayEvent",
      "mesh": 0
    }
  ],
  "meshes": [
    {
      "name": "CosmicRayEvent",
      "primitives": [
        {
          "attributes": {
            "POSITION": 0
          },
          "material": 0,
          "mode": 1
        },
        {
          "attributes": {
            "POSITION": 1
          },
          "material": 1,
          "mode": 1
        },
        {
          "attributes": {
            "POSITION": 2
          },
          "material": 2,
          "mode": 1
        },
        {
          "attributes": {
            "POSITION": 3
          },
          "material": 3,
          "mode": 1
        }
      ]
    }
  ],
  "materials": [
    {
      "name": "primary",
      "extensions": {
        "KHR_materials_unlit": {}
      },
      "pbrMetallicRoughness": {
        "baseColorFactor": [
          0.961,
          0.961,
          0.961,
          1
        ],
        "metallicFactor": 0,
        "roughnessFactor": 1
      }
    },
    {
      "name": "vertex",
      "extensions": {
        "KHR_materials_unlit": {}
      },
      "pbrMetallicRoughness": {
        "baseColorFactor": [
          0.902,
          0.902,
          0.902,
          0.9
        ],
        "metallicFactor": 0,
        "roughnessFactor": 1
      }
    },
    {
      "name": "em",
      "extensions": {
        "KHR_materials_unlit": {}
      },
      "pbrMetallicRoughness": {
        "baseColorFactor": [
          0.471,
          0.824,
          1,
          1
        ],
        "metallicFactor": 0,
        "roughnessFactor": 1
      }
    },
    {
      "name": "backscatter",
      "extensions": {
        "KHR_materials_unlit": {}
      },
      "pbrMetallicRoughness": {
        "baseColorFactor": [
          1,
          0.824,
          0.529,
          0.95
        ],
        "metallicFactor": 0,
        "roughnessFactor": 1
      }
    }
  ],
  "accessors": [
    {
      "bufferView": 0,
      "byteOffset": 0,
      "componentType": 5126,
      "count": 1388,
      "type": "VEC3",
      "min": [
        -0.14773033559322357,
        -0.9999396800994873,
        0
      ],
      "max": [
        0.20877602696418762,
        1.0221240520477295,
        0
      ]
    },
    {
      "bufferView": 1,
      "byteOffset": 0,
      "componentType": 5126,
      "count": 286,
      "type": "VEC3",
      "min": [
        -0.010267486795783043,
        -0.009094728156924248,
        -0.10959364473819733
      ],
      "max": [
        0.014789016917347908,
        0.007351062260568142,
        0.06288865208625793
      ]
    },
    {
      "bufferView": 2,
      "byteOffset": 0,
      "componentType": 5126,
      "count": 2126,
      "type": "VEC3",
      "min": [
        -0.09726299345493317,
        -0.0029119739774614573,
        -0.7158014178276062
      ],
      "max": [
        0.012274833396077156,
        0.4785330593585968,
        0.41553983092308044
      ]
    },
    {
      "bufferView": 3,
      "byteOffset": 0,
      "componentType": 5126,
      "count": 1156,
      "type": "VEC3",
      "min": [
        -0.05209888145327568,
        -0.18354660272598267,
        -0.5550907254219055
      ],
      "max": [
        0.15957581996917725,
        0.17442366480827332,
        0.9801603555679321
      ]
    }
  ],
  "bufferViews": [
    {
      "buffer": 0,
      "byteOffset": 0,
      "byteLength": 16656,
      "target": 34962
    },
    {
      "buffer": 0,
      "byteOffset": 16656,
      "byteLength": 3432,
      "target": 34962
    },
    {
      "buffer": 0,
      "byteOffset": 20088,
      "byteLength": 25512,
      "target": 34962
    },
    {
      "buffer": 0,
      "byteOffset": 45600,
      "byteLength": 13872,
      "target": 34962
    }
  ],
  "buffers": [
    {
      "byteLength": 59472,
      "uri": "data:application/octet-stream;base64,"
    }
  ]
}