{
  "asset": {
    "version": "2.0",
    "generator": "TES-23 Cosmic Ray Renderer"
  },
  "extensionsUsed": [
    "KHR_materials_unlit"
  ],
  "extensionsRequired": [
    "KHR_materials_unlit"
  ],
  "scene": 0,
  "scenes": [
    {
      "nodes": [
        0
      ]
    }
  ],
  "nodes": [
    {
      "name": "CosmicRayEvent",
      "mesh": 0
    }
  ],
  "meshes": [
    {
      "name": "CosmicRayEvent",
      "primitives": [
        {
          "attributes": {
            "POSITION": 0
          },
          "material": 0,
          "mode": 1
        },
        {
          "attributes": {
            "POSITION": 1
          },
          "material": 1,
          "mode": 1
        },
        {
          "attributes": {
            "POSITION": 2
          },
          "material": 2,
          "mode": 1
        },
        {
          "attributes": {
            "POSITION": 3
          },
          "material": 3,
          "mode": 1
        },
        {
          "attributes": {
            "POSITION": 4
          },
          "material": 4,
          "mode": 1
        }
      ]
    }
  ],
  "materials": [
    {
      "name": "primary",
      "extensions": {
        "KHR_materials_unlit": {}
      },
      "pbrMetallicRoughness": {
        "baseColorFactor": [
          0.961,
          0.961,
          0.961,
          1
        ],
        "metallicFactor": 0,
        "roughnessFactor": 1
      }
    },
    {
      "name": "vertex",
      "extensions": {
        "KHR_materials_unlit": {}
      },
      "pbrMetallicRoughness": {
        "baseColorFactor": [
          0.902,
          0.902,
          0.902,
          0.9
        ],
        "metallicFactor": 0,
        "roughnessFactor": 1
      }
    },
    {
      "name": "em",
      "extensions": {
        "KHR_materials_unlit": {}
      },
      "pbrMetallicRoughness": {
        "baseColorFactor": [
          0.471,
          0.824,
          1,
          1
        ],
        "metallicFactor": 0,
        "roughnessFactor": 1
      }
    },
    {
      "name": "hadron",
      "extensions": {
        "KHR_materials_unlit": {}
      },
      "pbrMetallicRoughness": {
        "baseColorFactor": [
          0.549,
          1,
          0.745,
          1
        ],
        "metallicFactor": 0,
        "roughnessFactor": 1
      }
    },
    {
      "name": "delta",
      "extensions": {
        "KHR_materials_unlit": {}
      },
      "pbrMetallicRoughness": {
        "baseColorFactor": [
          0.804,
          0.647,
          1,
          1
        ],
        "metallicFactor": 0,
        "roughnessFactor": 1
      }
    }
  ],
  "accessors": [
    {
      "bufferView": 0,
      "byteOffset": 0,
      "componentType": 5126,
      "count": 1520,
      "type": "VEC3",
      "min": [
        -0.5251128077507019,
        -1.0001472234725952,
        0
      ],
      "max": [
        0.52232825756073,
        1.0219467878341675,
        0
      ]
    },
    {
      "bufferView": 1,
      "byteOffset": 0,
      "componentType": 5126,
      "count": 282,
      "type": "VEC3",
      "min": [
        -0.018459105864167213,
        -0.006727253086864948,
        -0.0750490203499794
      ],
      "max": [
        0.010419662110507488,
        0.01675659976899624,
        0.1140371784567833
      ]
    },
    {
      "bufferView": 2,
      "byteOffset": 0,
      "componentType": 5126,
      "count": 1844,
      "type": "VEC3",
      "min": [
        -0.2057448774576187,
        -0.0033165626227855682,
        -0.12560322880744934
      ],
      "max": [
        0.003733563469722867,
        0.29623275995254517,
        0.10831554979085922
      ]
    },
    {
      "bufferView": 3,
      "byteOffset": 0,
      "componentType": 5126,
      "count": 5398,
      "type": "VEC3",
      "min": [
        -0.2710133492946625,
        -0.24055853486061096,
        -0.21983996033668518
      ],
      "max": [
        0.002889326075091958,
        0.3842040002346039,
        0.6662009358406067
      ]
    },
    {
      "bufferView": 4,
      "byteOffset": 0,
      "componentType": 5126,
      "count": 1280,
      "type": "VEC3",
      "min": [
        -0.09371988475322723,
        -0.24772875010967255,
        -0.4796297550201416
      ],
      "max": [
        0.09721209853887558,
        0.2401045262813568,
        0.47717440128326416
      ]
    }
  ],
  "bufferViews": [
    {
      "buffer": 0,
      "byteOffset": 0,
      "byteLength": 18240,
      "target": 34962
    },
    {
      "buffer": 0,
      "byteOffset": 18240,
      "byteLength": 3384,
      "target": 34962
    },
    {
      "buffer": 0,
      "byteOffset": 21624,
      "byteLength": 22128,
      "target": 34962
    },
    {
      "buffer": 0,
      "byteOffset": 43752,
      "byteLength": 64776,
      "target": 34962
    },
    {
      "buffer": 0,
      "byteOffset": 108528,
      "byteLength": 15360,
      "target": 34962
    }
  ],
  "buffers": [
    {
      "byteLength": 123888,
      "uri": "data:application/octet-stream;base64,"
    }
  ]
}