{
  "asset": {
    "version": "2.0",
    "generator": "TES-23 Cosmic Ray Renderer"
  },
  "extensionsUsed": [
    "KHR_materials_unlit"
  ],
  "extensionsRequired": [
    "KHR_materials_unlit"
  ],
  "scene": 0,
  "scenes": [
    {
      "nodes": [
        0
      ]
    }
  ],
  "nodes": [
    {
      "name": "CosmicRayEvent",
      "mesh": 0
    }
  ],
  "meshes": [
    {
      "name": "CosmicRayEvent",
      "primitives": [
        {
          "attributes": {
            "POSITION": 0
          },
          "material": 0,
          "mode": 1
        },
        {
          "attributes": {
            "POSITION": 1
          },
          "material": 1,
          "mode": 1
        },
        {
          "attributes": {
            "POSITION": 2
          },
          "material": 2,
          "mode": 1
        },
        {
          "attributes": {
            "POSITION": 3
          },
          "material": 3,
          "mode": 1
        },
        {
          "attributes": {
            "POSITION": 4
          },
          "material": 4,
          "mode": 1
        }
      ]
    }
  ],
  "materials": [
    {
      "name": "primary",
      "extensions": {
        "KHR_materials_unlit": {}
      },
      "pbrMetallicRoughness": {
        "baseColorFactor": [
          0.961,
          0.961,
          0.961,
          1
        ],
        "metallicFactor": 0,
        "roughnessFactor": 1
      }
    },
    {
      "name": "vertex",
      "extensions": {
        "KHR_materials_unlit": {}
      },
      "pbrMetallicRoughness": {
        "baseColorFactor": [
          0.902,
          0.902,
          0.902,
          0.9
        ],
        "metallicFactor": 0,
        "roughnessFactor": 1
      }
    },
    {
      "name": "em",
      "extensions": {
        "KHR_materials_unlit": {}
      },
      "pbrMetallicRoughness": {
        "baseColorFactor": [
          0.471,
          0.824,
          1,
          1
        ],
        "metallicFactor": 0,
        "roughnessFactor": 1
      }
    },
    {
      "name": "hadron",
      "extensions": {
        "KHR_materials_unlit": {}
      },
      "pbrMetallicRoughness": {
        "baseColorFactor": [
          0.549,
          1,
          0.745,
          1
        ],
        "metallicFactor": 0,
        "roughnessFactor": 1
      }
    },
    {
      "name": "delta",
      "extensions": {
        "KHR_materials_unlit": {}
      },
      "pbrMetallicRoughness": {
        "baseColorFactor": [
          0.804,
          0.647,
          1,
          1
        ],
        "metallicFactor": 0,
        "roughnessFactor": 1
      }
    }
  ],
  "accessors": [
    {
      "bufferView": 0,
      "byteOffset": 0,
      "componentType": 5126,
      "count": 1352,
      "type": "VEC3",
      "min": [
        -0.06538976728916168,
        -1.0001633167266846,
        0
      ],
      "max": [
        0.04150080308318138,
        1.0213205814361572,
        0
      ]
    },
    {
      "bufferView": 1,
      "byteOffset": 0,
      "componentType": 5126,
      "count": 312,
      "type": "VEC3",
      "min": [
        -0.012847861275076866,
        -0.014970296062529087,
        -0.06557019054889679
      ],
      "max": [
        0.015897270292043686,
        0.009275087155401707,
        0.0815635621547699
      ]
    },
    {
      "bufferView": 2,
      "byteOffset": 0,
      "componentType": 5126,
      "count": 924,
      "type": "VEC3",
      "min": [
        -0.002517652465030551,
        -0.003680805442854762,
        -0.12170135229825974
      ],
      "max": [
        0.031843431293964386,
        0.2535178065299988,
        0.122248575091362
      ]
    },
    {
      "bufferView": 3,
      "byteOffset": 0,
      "componentType": 5126,
      "count": 3278,
      "type": "VEC3",
      "min": [
        -0.04374706372618675,
        -0.0025679771788418293,
        -0.4612985849380493
      ],
      "max": [
        0.22416415810585022,
        0.3438297510147095,
        0.38337716460227966
      ]
    },
    {
      "bufferView": 4,
      "byteOffset": 0,
      "componentType": 5126,
      "count": 1004,
      "type": "VEC3",
      "min": [
        -0.08574026077985764,
        -0.2206244021654129,
        -0.6360727548599243
      ],
      "max": [
        0.23586484789848328,
        0.2344057261943817,
        0.28947967290878296
      ]
    }
  ],
  "bufferViews": [
    {
      "buffer": 0,
      "byteOffset": 0,
      "byteLength": 16224,
      "target": 34962
    },
    {
      "buffer": 0,
      "byteOffset": 16224,
      "byteLength": 3744,
      "target": 34962
    },
    {
      "buffer": 0,
      "byteOffset": 19968,
      "byteLength": 11088,
      "target": 34962
    },
    {
      "buffer": 0,
      "byteOffset": 31056,
      "byteLength": 39336,
      "target": 34962
    },
    {
      "buffer": 0,
      "byteOffset": 70392,
      "byteLength": 12048,
      "target": 34962
    }
  ],
  "buffers": [
    {
      "byteLength": 82440,
      "uri": "data:application/octet-stream;base64,"
    }
  ]
}