{
  "asset": {
    "version": "2.0",
    "generator": "TES-23 Cosmic Ray Renderer"
  },
  "extensionsUsed": [
    "KHR_materials_unlit"
  ],
  "extensionsRequired": [
    "KHR_materials_unlit"
  ],
  "scene": 0,
  "scenes": [
    {
      "nodes": [
        0
      ]
    }
  ],
  "nodes": [
    {
      "name": "CosmicRayEvent",
      "mesh": 0
    }
  ],
  "meshes": [
    {
      "name": "CosmicRayEvent",
      "primitives": [
        {
          "attributes": {
            "POSITION": 0
          },
          "material": 0,
          "mode": 1
        },
        {
          "attributes": {
            "POSITION": 1
          },
          "material": 1,
          "mode": 1
        },
        {
          "attributes": {
            "POSITION": 2
          },
          "material": 2,
          "mode": 1
        },
        {
          "attributes": {
            "POSITION": 3
          },
          "material": 3,
          "mode": 1
        },
        {
          "attributes": {
            "POSITION": 4
          },
          "material": 4,
          "mode": 1
        }
      ]
    }
  ],
  "materials": [
    {
      "name": "primary",
      "extensions": {
        "KHR_materials_unlit": {}
      },
      "pbrMetallicRoughness": {
        "baseColorFactor": [
          0.961,
          0.961,
          0.961,
          1
        ],
        "metallicFactor": 0,
        "roughnessFactor": 1
      }
    },
    {
      "name": "vertex",
      "extensions": {
        "KHR_materials_unlit": {}
      },
      "pbrMetallicRoughness": {
        "baseColorFactor": [
          0.902,
          0.902,
          0.902,
          0.9
        ],
        "metallicFactor": 0,
        "roughnessFactor": 1
      }
    },
    {
      "name": "em",
      "extensions": {
        "KHR_materials_unlit": {}
      },
      "pbrMetallicRoughness": {
        "baseColorFactor": [
          0.471,
          0.824,
          1,
          1
        ],
        "metallicFactor": 0,
        "roughnessFactor": 1
      }
    },
    {
      "name": "hadron",
      "extensions": {
        "KHR_materials_unlit": {}
      },
      "pbrMetallicRoughness": {
        "baseColorFactor": [
          0.549,
          1,
          0.745,
          1
        ],
        "metallicFactor": 0,
        "roughnessFactor": 1
      }
    },
    {
      "name": "delta",
      "extensions": {
        "KHR_materials_unlit": {}
      },
      "pbrMetallicRoughness": {
        "baseColorFactor": [
          0.804,
          0.647,
          1,
          1
        ],
        "metallicFactor": 0,
        "roughnessFactor": 1
      }
    }
  ],
  "accessors": [
    {
      "bufferView": 0,
      "byteOffset": 0,
      "componentType": 5126,
      "count": 1350,
      "type": "VEC3",
      "min": [
        -0.03184238821268082,
        -0.9999512434005737,
        0
      ],
      "max": [
        0.03369954973459244,
        1.0224164724349976,
        0
      ]
    },
    {
      "bufferView": 1,
      "byteOffset": 0,
      "componentType": 5126,
      "count": 330,
      "type": "VEC3",
      "min": [
        -0.016869371756911278,
        -0.024730272591114044,
        -0.10415690392255783
      ],
      "max": [
        0.008129609748721123,
        0.015865396708250046,
        0.07489484548568726
      ]
    },
    {
      "bufferView": 2,
      "byteOffset": 0,
      "componentType": 5126,
      "count": 1048,
      "type": "VEC3",
      "min": [
        -0.03757902607321739,
        -0.002896723337471485,
        -0.09700626134872437
      ],
      "max": [
        0.0024875204544514418,
        0.20982016623020172,
        0.05508936941623688
      ]
    },
    {
      "bufferView": 3,
      "byteOffset": 0,
      "componentType": 5126,
      "count": 3768,
      "type": "VEC3",
      "min": [
        -0.10359835624694824,
        -0.004653590265661478,
        -0.3813878297805786
      ],
      "max": [
        0.13584759831428528,
        0.3565804362297058,
        1.1929959058761597
      ]
    },
    {
      "bufferView": 4,
      "byteOffset": 0,
      "componentType": 5126,
      "count": 1566,
      "type": "VEC3",
      "min": [
        -0.0876176506280899,
        -0.11490598320960999,
        -0.4825458526611328
      ],
      "max": [
        0.11411776393651962,
        0.22581331431865692,
        1.0136433839797974
      ]
    }
  ],
  "bufferViews": [
    {
      "buffer": 0,
      "byteOffset": 0,
      "byteLength": 16200,
      "target": 34962
    },
    {
      "buffer": 0,
      "byteOffset": 16200,
      "byteLength": 3960,
      "target": 34962
    },
    {
      "buffer": 0,
      "byteOffset": 20160,
      "byteLength": 12576,
      "target": 34962
    },
    {
      "buffer": 0,
      "byteOffset": 32736,
      "byteLength": 45216,
      "target": 34962
    },
    {
      "buffer": 0,
      "byteOffset": 77952,
      "byteLength": 18792,
      "target": 34962
    }
  ],
  "buffers": [
    {
      "byteLength": 96744,
      "uri": "data:application/octet-stream;base64,"
    }
  ]
}