{
  "asset": {
    "version": "2.0",
    "generator": "TES-23 Cosmic Ray Renderer"
  },
  "extensionsUsed": [
    "KHR_materials_unlit"
  ],
  "extensionsRequired": [
    "KHR_materials_unlit"
  ],
  "scene": 0,
  "scenes": [
    {
      "nodes": [
        0
      ]
    }
  ],
  "nodes": [
    {
      "name": "CosmicRayEvent",
      "mesh": 0
    }
  ],
  "meshes": [
    {
      "name": "CosmicRayEvent",
      "primitives": [
        {
          "attributes": {
            "POSITION": 0
          },
          "material": 0,
          "mode": 1
        },
        {
          "attributes": {
            "POSITION": 1
          },
          "material": 1,
          "mode": 1
        },
        {
          "attributes": {
            "POSITION": 2
          },
          "material": 2,
          "mode": 1
        },
        {
          "attributes": {
            "POSITION": 3
          },
          "material": 3,
          "mode": 1
        },
        {
          "attributes": {
            "POSITION": 4
          },
          "material": 4,
          "mode": 1
        },
        {
          "attributes": {
            "POSITION": 5
          },
          "material": 5,
          "mode": 1
        }
      ]
    }
  ],
  "materials": [
    {
      "name": "primary",
      "extensions": {
        "KHR_materials_unlit": {}
      },
      "pbrMetallicRoughness": {
        "baseColorFactor": [
          0.961,
          0.961,
          0.961,
          1
        ],
        "metallicFactor": 0,
        "roughnessFactor": 1
      }
    },
    {
      "name": "vertex",
      "extensions": {
        "KHR_materials_unlit": {}
      },
      "pbrMetallicRoughness": {
        "baseColorFactor": [
          0.902,
          0.902,
          0.902,
          0.9
        ],
        "metallicFactor": 0,
        "roughnessFactor": 1
      }
    },
    {
      "name": "em",
      "extensions": {
        "KHR_materials_unlit": {}
      },
      "pbrMetallicRoughness": {
        "baseColorFactor": [
          0.471,
          0.824,
          1,
          1
        ],
        "metallicFactor": 0,
        "roughnessFactor": 1
      }
    },
    {
      "name": "hadron",
      "extensions": {
        "KHR_materials_unlit": {}
      },
      "pbrMetallicRoughness": {
        "baseColorFactor": [
          0.549,
          1,
          0.745,
          1
        ],
        "metallicFactor": 0,
        "roughnessFactor": 1
      }
    },
    {
      "name": "delta",
      "extensions": {
        "KHR_materials_unlit": {}
      },
      "pbrMetallicRoughness": {
        "baseColorFactor": [
          0.804,
          0.647,
          1,
          1
        ],
        "metallicFactor": 0,
        "roughnessFactor": 1
      }
    },
    {
      "name": "backscatter",
      "extensions": {
        "KHR_materials_unlit": {}
      },
      "pbrMetallicRoughness": {
        "baseColorFactor": [
          1,
          0.824,
          0.529,
          0.95
        ],
        "metallicFactor": 0,
        "roughnessFactor": 1
      }
    }
  ],
  "accessors": [
    {
      "bufferView": 0,
      "byteOffset": 0,
      "componentType": 5126,
      "count": 1388,
      "type": "VEC3",
      "min": [
        -0.240519180893898,
        -1.0000301599502563,
        0
      ],
      "max": [
        0.25776147842407227,
        1.0205979347229004,
        0
      ]
    },
    {
      "bufferView": 1,
      "byteOffset": 0,
      "componentType": 5126,
      "count": 316,
      "type": "VEC3",
      "min": [
        -0.010336668230593204,
        -0.013482818379998207,
        -0.061211150139570236
      ],
      "max": [
        0.01918756403028965,
        0.009931521490216255,
        0.09285341203212738
      ]
    },
    {
      "bufferView": 2,
      "byteOffset": 0,
      "componentType": 5126,
      "count": 862,
      "type": "VEC3",
      "min": [
        -0.0011066932929679751,
        -0.003887349274009466,
        -0.09100864082574844
      ],
      "max": [
        0.03918712958693504,
        0.30348747968673706,
        0.1690235584974289
      ]
    },
    {
      "bufferView": 3,
      "byteOffset": 0,
      "componentType": 5126,
      "count": 2076,
      "type": "VEC3",
      "min": [
        -0.053000882267951965,
        -0.19441942870616913,
        -0.5231862664222717
      ],
      "max": [
        0.10316386073827744,
        0.3450978100299835,
        0.15634404122829437
      ]
    },
    {
      "bufferView": 4,
      "byteOffset": 0,
      "componentType": 5126,
      "count": 1298,
      "type": "VEC3",
      "min": [
        -0.17936472594738007,
        -0.1017015129327774,
        -0.447772353887558
      ],
      "max": [
        0.034798312932252884,
        0.32600530982017517,
        0.27654069662094116
      ]
    },
    {
      "bufferView": 5,
      "byteOffset": 0,
      "componentType": 5126,
      "count": 826,
      "type": "VEC3",
      "min": [
        -0.10923231393098831,
        -0.09031973779201508,
        -0.4629417955875397
      ],
      "max": [
        0.02742336317896843,
        0.1005694642663002,
        0.4490668773651123
      ]
    }
  ],
  "bufferViews": [
    {
      "buffer": 0,
      "byteOffset": 0,
      "byteLength": 16656,
      "target": 34962
    },
    {
      "buffer": 0,
      "byteOffset": 16656,
      "byteLength": 3792,
      "target": 34962
    },
    {
      "buffer": 0,
      "byteOffset": 20448,
      "byteLength": 10344,
      "target": 34962
    },
    {
      "buffer": 0,
      "byteOffset": 30792,
      "byteLength": 24912,
      "target": 34962
    },
    {
      "buffer": 0,
      "byteOffset": 55704,
      "byteLength": 15576,
      "target": 34962
    },
    {
      "buffer": 0,
      "byteOffset": 71280,
      "byteLength": 9912,
      "target": 34962
    }
  ],
  "buffers": [
    {
      "byteLength": 81192,
      "uri": "data:application/octet-stream;base64,"
    }
  ]
}