{
  "asset": {
    "version": "2.0",
    "generator": "TES-23 Cosmic Ray Renderer"
  },
  "extensionsUsed": [
    "KHR_materials_unlit"
  ],
  "extensionsRequired": [
    "KHR_materials_unlit"
  ],
  "scene": 0,
  "scenes": [
    {
      "nodes": [
        0
      ]
    }
  ],
  "nodes": [
    {
      "name": "CosmicRayEvent",
      "mesh": 0
    }
  ],
  "meshes": [
    {
      "name": "CosmicRayEvent",
      "primitives": [
        {
          "attributes": {
            "POSITION": 0
          },
          "material": 0,
          "mode": 1
        },
        {
          "attributes": {
            "POSITION": 1
          },
          "material": 1,
          "mode": 1
        },
        {
          "attributes": {
            "POSITION": 2
          },
          "material": 2,
          "mode": 1
        },
        {
          "attributes": {
            "POSITION": 3
          },
          "material": 3,
          "mode": 1
        },
        {
          "attributes": {
            "POSITION": 4
          },
          "material": 4,
          "mode": 1
        }
      ]
    }
  ],
  "materials": [
    {
      "name": "primary",
      "extensions": {
        "KHR_materials_unlit": {}
      },
      "pbrMetallicRoughness": {
        "baseColorFactor": [
          0.961,
          0.961,
          0.961,
          1
        ],
        "metallicFactor": 0,
        "roughnessFactor": 1
      }
    },
    {
      "name": "vertex",
      "extensions": {
        "KHR_materials_unlit": {}
      },
      "pbrMetallicRoughness": {
        "baseColorFactor": [
          0.902,
          0.902,
          0.902,
          0.9
        ],
        "metallicFactor": 0,
        "roughnessFactor": 1
      }
    },
    {
      "name": "em",
      "extensions": {
        "KHR_materials_unlit": {}
      },
      "pbrMetallicRoughness": {
        "baseColorFactor": [
          0.471,
          0.824,
          1,
          1
        ],
        "metallicFactor": 0,
        "roughnessFactor": 1
      }
    },
    {
      "name": "hadron",
      "extensions": {
        "KHR_materials_unlit": {}
      },
      "pbrMetallicRoughness": {
        "baseColorFactor": [
          0.549,
          1,
          0.745,
          1
        ],
        "metallicFactor": 0,
        "roughnessFactor": 1
      }
    },
    {
      "name": "delta",
      "extensions": {
        "KHR_materials_unlit": {}
      },
      "pbrMetallicRoughness": {
        "baseColorFactor": [
          0.804,
          0.647,
          1,
          1
        ],
        "metallicFactor": 0,
        "roughnessFactor": 1
      }
    }
  ],
  "accessors": [
    {
      "bufferView": 0,
      "byteOffset": 0,
      "componentType": 5126,
      "count": 1600,
      "type": "VEC3",
      "min": [
        -1.0202157497406006,
        -0.6513686180114746,
        0
      ],
      "max": [
        0.999920129776001,
        0.6428251266479492,
        0
      ]
    },
    {
      "bufferView": 1,
      "byteOffset": 0,
      "componentType": 5126,
      "count": 298,
      "type": "VEC3",
      "min": [
        -0.01348311360925436,
        -0.012301653623580933,
        -0.05861220881342888
      ],
      "max": [
        0.027257101610302925,
        0.015521341003477573,
        0.07897074520587921
      ]
    },
    {
      "bufferView": 2,
      "byteOffset": 0,
      "componentType": 5126,
      "count": 702,
      "type": "VEC3",
      "min": [
        -0.1552150994539261,
        -0.0038201010320335627,
        -0.07025641947984695
      ],
      "max": [
        0.0024177376180887222,
        0.11169402301311493,
        0.1290597915649414
      ]
    },
    {
      "bufferView": 3,
      "byteOffset": 0,
      "componentType": 5126,
      "count": 3026,
      "type": "VEC3",
      "min": [
        -0.30085283517837524,
        -0.0038572538178414106,
        -0.30547961592674255
      ],
      "max": [
        0.0037848923821002245,
        0.15690411627292633,
        0.3025239109992981
      ]
    },
    {
      "bufferView": 4,
      "byteOffset": 0,
      "componentType": 5126,
      "count": 862,
      "type": "VEC3",
      "min": [
        -0.2005404531955719,
        -0.06282518804073334,
        -0.3918795585632324
      ],
      "max": [
        0.03919408097863197,
        0.19168627262115479,
        0.8868667483329773
      ]
    }
  ],
  "bufferViews": [
    {
      "buffer": 0,
      "byteOffset": 0,
      "byteLength": 19200,
      "target": 34962
    },
    {
      "buffer": 0,
      "byteOffset": 19200,
      "byteLength": 3576,
      "target": 34962
    },
    {
      "buffer": 0,
      "byteOffset": 22776,
      "byteLength": 8424,
      "target": 34962
    },
    {
      "buffer": 0,
      "byteOffset": 31200,
      "byteLength": 36312,
      "target": 34962
    },
    {
      "buffer": 0,
      "byteOffset": 67512,
      "byteLength": 10344,
      "target": 34962
    }
  ],
  "buffers": [
    {
      "byteLength": 77856,
      "uri": "data:application/octet-stream;base64,"
    }
  ]
}