<?xml version="1.0" encoding="UTF-8"?>
<svg xmlns="http://www.w3.org/2000/svg" width="2000" height="2000" viewBox="0 0 2000 2000">
<g fill="none" stroke-linecap="round" stroke-linejoin="round">
  <path d="M 1278.39 2000.02 L 1278.02 1996.94 L 1277.12 1993.95 L 1276.43 1991.62 L 1275.48 1988.52 L 1274.42 1985.81 L 1273.94 1982.83 L 1273.28 1979.73 L 1272.22 1976.61 L 1271.12 1974.17 L 1270.73 1971.28 L 1269.58 1968.29 L 1269.28 1965.08 L 1267.83 1962.42 L 1267.23 1959.51 L 1266.70 1956.60 L 1266.04 1953.52 L 1265.02 1950.66 L 1264.16 1947.60 L 1263.06 1945.15 L 1262.17 1942.26 L 1261.79 1939.06 L 1260.99 1936.22 L 1259.70 1933.40 L 1259.22 1930.61 L 1258.42 1927.78 L 1257.72 1924.64 L 1257.16 1921.54 L 1256.17 1919.03 L 1255.23 1916.00 L 1254.59 1913.32 L 1253.90 1910.41 L 1252.73 1907.05 L 1252.07 1904.48 L 1251.42 1901.89 L 1250.74 1898.55 L 1249.58 1895.86 L 1248.91 1892.65 L 1248.11 1890.15 L 1247.39 1887.14 L 1246.63 1884.41 L 1245.49 1881.56 L 1245.29 1878.47 L 1243.94 1875.45 L 1243.45 1872.93 L 1242.44 1869.91 L 1241.80 1867.36 L 1240.98 1864.30 L 1239.95 1860.97 L 1238.90 1858.41 L 1238.60 1855.43 L 1237.37 1852.68 L 1236.84 1849.38 L 1235.87 1846.85 L 1235.13 1844.09 L 1234.34 1841.05 L 1233.48 1838.20 L 1232.37 1835.41 L 1231.97 1832.72 L 1231.01 1829.66 L 1230.05 1826.22 L 1229.62 1823.29 L 1229.04 1820.56 L 1227.47 1817.33 L 1226.77 1815.22 L 1225.97 1811.90 L 1225.40 1809.35 L 1224.84 1806.45 L 1223.68 1803.28 L 1223.10 1800.30 L 1222.19 1797.91 L 1221.22 1794.57 L 1220.79 1791.92 L 1219.59 1789.44 L 1219.20 1786.17 L 1217.98 1783.53 L 1217.39 1780.32 L 1216.86 1777.65 L 1216.37 1774.46 L 1214.90 1771.60 L 1214.13 1768.88 L 1213.68 1765.94 L 1212.60 1763.23 L 1212.03 1759.94 L 1211.16 1757.08 L 1210.17 1754.52 L 1209.61 1751.40 L 1208.56 1748.42 L 1207.84 1745.38 L 1207.20 1743.20 L 1205.81 1739.56 L 1205.38 1736.83 L 1204.14 1734.21 L 1203.76 1731.46 L 1203.19 1728.10 L 1202.28 1725.35 L 1201.21 1722.73 L 1200.62 1719.85 L 1199.45 1716.32 L 1198.96 1713.74 L 1197.89 1710.94 L 1197.00 1708.35 L 1196.15 1705.42 L 1195.81 1701.90 L 1194.49 1699.89 L 1193.87 1696.47 L 1193.34 1693.59 L 1192.61 1690.53 L 1191.54 1688.35 L 1190.85 1685.39 L 1190.08 1681.86 L 1189.36 1679.05 L 1188.73 1676.24 L 1188.02 1673.27 L 1186.65 1670.54 L 1186.12 1667.65 L 1185.25 1665.15 L 1184.39 1661.55 L 1183.76 1658.97 L 1182.81 1656.00 L 1182.18 1653.34 L 1181.25 1650.05 L 1180.42 1647.14 L 1179.46 1644.54 L 1179.03 1641.76 L 1178.08 1638.19 L 1177.31 1636.15 L 1176.60 1632.76 L 1175.43 1630.20 L 1175.07 1627.16 L 1173.55 1624.16 L 1173.02 1621.35 L 1172.51 1618.67 L 1171.32 1615.45 L 1170.85 1612.72 L 1169.78 1610.12 L 1168.92 1606.59 L 1168.58 1604.15 L 1167.09 1601.30 L 1166.98 1598.19 L 1165.82 1595.37 L 1165.28 1592.46 L 1163.94 1589.68 L 1163.59 1586.48 L 1162.80 1583.74 L 1161.43 1581.07 L 1161.22 1578.14 L 1159.86 1575.09 L 1159.69 1572.37 L 1158.89 1569.28 L 1157.78 1566.79 L 1157.04 1563.77 L 1156.11 1560.91 L 1155.66 1558.08 L 1154.41 1554.74 L 1153.68 1552.08 L 1153.41 1549.11 L 1152.56 1546.39 L 1151.52 1543.51 L 1150.81 1540.58 L 1149.81 1537.46 L 1148.85 1534.57 L 1148.42 1532.15 L 1147.40 1528.93 L 1146.91 1526.64 L 1145.54 1523.00 L 1145.15 1520.52 L 1144.06 1517.38 L 1143.28 1514.33 L 1142.58 1511.81 L 1141.87 1508.70 L 1141.15 1505.90 L 1140.53 1502.79 L 1139.16 1500.43 L 1138.67 1497.48 L 1137.81 1494.02 L 1136.62 1491.08 L 1136.12 1488.69 L 1135.43 1485.56 L 1134.39 1482.50 L 1133.46 1479.88 L 1133.23 1476.73 L 1131.96 1474.39 L 1131.09 1471.48 L 1130.14 1468.30 L 1129.67 1465.48 L 1129.04 1462.48 L 1128.13 1459.45 L 1127.70 1456.62 L 1126.32 1453.84 L 1125.89 1450.64 L 1124.90 1448.12 L 1123.55 1445.19 L 1122.97 1442.08 L 1122.40 1439.55 L 1121.61 1436.57 L 1120.94 1433.35 L 1120.21 1430.37 L 1118.88 1427.92 L 1118.35 1424.54 L 1117.74 1422.03 L 1117.02 1419.64 L 1115.78 1416.11 L 1115.33 1413.56 L 1114.30 1410.70 L 1113.23 1407.49 L 1112.66 1404.88 L 1112.25 1401.71 L 1110.56 1398.95 L 1110.45 1395.96 L 1109.73 1393.10 L 1108.09 1390.34 L 1108.25 1387.38 L 1107.22 1384.65 L 1106.71 1381.80 L 1105.49 1378.20 L 1104.51 1375.59 L 1103.96 1372.54 L 1103.14 1370.16 L 1102.19 1367.09 L 1101.61 1363.70 L 1100.52 1361.63 L 1099.76 1358.72 L 1099.03 1355.43 L 1098.40 1352.75 L 1097.65 1349.54 L 1096.63 1346.71 L 1095.72 1344.11 L 1094.97 1341.29 L 1094.40 1337.82 L 1093.53 1335.74 L 1092.72 1331.92 L 1092.35 1329.76 L 1091.27 1326.34 L 1090.41 1323.83 L 1089.30 1320.76 L 1088.67 1317.68 L 1087.54 1314.96 L 1086.89 1312.43 L 1086.57 1309.35 L 1085.21 1306.30 L 1084.61 1303.79 L 1083.63 1301.16 L 1082.90 1297.70 L 1081.93 1295.02 L 1081.24 1291.95 L 1080.58 1289.52 L 1079.78 1286.12 L 1078.64 1283.31 L 1078.49 1280.39 L 1077.36 1277.42 L 1076.09 1274.64 L 1076.03 1271.91 L 1074.99 1268.97 L 1074.05 1265.90 L 1073.55 1263.29 L 1072.69 1260.01 L 1071.36 1257.08 L 1070.98 1254.25 L 1070.41 1251.55 L 1069.52 1248.51 L 1068.41 1245.70 L 1067.64 1242.86 L 1066.64 1239.93 L 1066.12 1237.01 L 1065.40 1234.13 L 1064.19 1231.12 L 1064.19 1228.33 L 1062.79 1225.62 L 1061.79 1222.62 L 1060.90 1220.04 L 1060.81 1216.65 L 1059.71 1213.64 L 1058.62 1210.99 L 1058.08 1207.93 L 1057.24 1205.24 L 1056.62 1202.46 L 1055.79 1199.38 L 1054.50 1196.65 L 1054.04 1193.99 L 1053.04 1190.88 L 1052.54 1187.43 L 1051.45 1184.94 L 1051.09 1182.27 L 1049.44 1179.38 L 1049.03 1176.22 L 1048.68 1173.63 L 1046.78 1170.51 L 1046.37 1167.45 L 1046.18 1164.86 L 1045.12 1161.17 L 1044.43 1159.01 L 1043.71 1155.88 L 1042.83 1152.73 L 1041.69 1150.60 L 1041.06 1147.41 L 1040.58 1144.36 L 1039.31 1141.72 L 1039.05 1139.11 L 1037.60 1136.01 L 1037.33 1133.10 L 1036.58 1129.85 L 1035.69 1127.41 L 1034.30 1124.33 L 1033.74 1121.34 L 1032.92 1118.93 L 1032.43 1115.55 L 1031.21 1112.76 L 1030.56 1109.73 L 1029.72 1106.83 L 1029.09 1104.05 L 1028.23 1101.25 L 1027.40 1098.19 L 1026.58 1095.81 L 1025.61 1092.51 L 1024.82 1089.77 L 1024.07 1087.39 L 1023.17 1083.95 L 1022.63 1081.30 L 1021.53 1078.45 L 1021.37 1075.35 L 1020.36 1072.35 L 1019.42 1069.13 L 1018.48 1066.41 L 1017.56 1063.60 L 1016.73 1060.56 L 1016.37 1057.76 L 1015.49 1054.34 L 1014.02 1052.59 L 1013.90 1048.82 L 1012.84 1046.36 L 1012.53 1043.57 L 1010.93 1041.01 L 1009.85 1037.91 L 1009.17 1034.60 L 1009.17 1032.00 L 1008.13 1028.98 L 1007.00 1025.86 L 1006.26 1022.91 L 1005.62 1020.49 L 1004.73 1017.14 L 1003.59 1014.32 L 1003.43 1012.04 L 1002.35 1008.71 L 1001.28 1005.64 L 1000.65 1003.12 L 999.81 1000.02 L 1000.00 1000.00 L 999.21 997.11 L 998.42 994.21 L 997.62 991.32 L 996.81 988.43 L 996.01 985.54 L 995.21 982.65 L 994.41 979.76 L 993.61 976.87 L 992.81 973.98 L 992.02 971.08 L 991.22 968.19 L 990.43 965.30 L 989.63 962.40 L 988.86 959.51 L 988.08 956.61 L 987.30 953.71 L 986.53 950.81 L 985.75 947.91 L 984.99 945.01 L 984.22 942.11 L 983.46 939.21 L 982.70 936.31 L 981.93 933.41 L 981.16 930.51 L 980.38 927.61 L 979.61 924.71 L 978.84 921.81 L 978.06 918.92 L 977.30 916.02 L 976.53 913.11 L 975.77 910.21 L 975.01 907.31 L 974.24 904.41 L 973.47 901.51 L 972.70 898.61 L 971.93 895.71 L 971.17 892.81 L 970.39 889.91 L 969.62 887.01 L 968.84 884.12 L 968.07 881.22 L 967.29 878.32 L 966.53 875.42 L 965.76 872.52 L 964.98 869.62 L 964.21 866.72 L 963.44 863.82 L 962.66 860.93 L 961.88 858.03 L 961.10 855.13 L 960.32 852.24 L 959.55 849.34 L 958.78 846.44 L 957.99 843.54 L 957.21 840.65 L 956.43 837.75 L 955.64 834.86 L 954.84 831.96 L 954.05 829.07 L 953.26 826.18 L 952.46 823.28 L 951.66 820.39 L 950.86 817.50 L 950.06 814.61 L 949.27 811.72 L 948.48 808.82 L 947.68 805.93 L 946.88 803.04 L 946.07 800.15 L 945.26 797.26 L 944.44 794.38 L 943.64 791.48 L 942.84 788.59 L 942.03 785.71 L 941.22 782.82 L 940.40 779.93 L 939.59 777.04 L 938.79 774.15 L 937.99 771.26 L 937.19 768.37 L 936.39 765.48 L 935.61 762.58 L 934.83 759.68 L 934.05 756.79 L 933.27 753.89 L 932.48 751.00 L 931.69 748.10 L 930.91 745.20 L 930.14 742.30 L 929.37 739.41 L 928.59 736.51 L 927.81 733.61 L 927.04 730.71 L 926.27 727.81 L 925.49 724.91 L 924.72 722.02 L 923.94 719.12 L 923.17 716.22 L 922.39 713.32 L 921.61 710.43 L 920.82 707.53 L 920.03 704.64 L 919.24 701.74 L 918.45 698.85 L 917.67 695.95 L 916.90 693.05 L 916.13 690.15 L 915.36 687.26 L 914.58 684.36 L 913.81 681.46 L 913.03 678.56 L 912.26 675.66 L 911.48 672.76 L 910.70 669.87 L 909.92 666.97 L 909.13 664.08 L 908.34 661.18 L 907.56 658.29 L 906.78 655.39 L 906.00 652.49 L 905.22 649.60 L 904.43 646.70 L 903.64 643.81 L 902.85 640.91 L 902.07 638.02 L 901.28 635.12 L 900.50 632.23 L 899.72 629.33 L 898.93 626.43 L 898.15 623.54 L 897.36 620.64 L 896.56 617.75 L 895.75 614.86 L 894.95 611.97 L 894.15 609.08 L 893.35 606.19 L 892.55 603.30 L 891.75 600.41 L 890.95 597.52 L 890.15 594.62 L 889.34 591.73 L 888.54 588.85 L 887.73 585.96 L 886.91 583.07 L 886.09 580.19 L 885.27 577.30 L 884.45 574.41 L 883.63 571.53 L 882.81 568.64 L 881.99 565.76 L 881.18 562.87 L 880.36 559.98 L 879.54 557.09 L 878.73 554.21 L 877.92 551.32 L 877.10 548.43 L 876.27 545.55 L 875.44 542.67 L 874.62 539.78 L 873.80 536.90 L 872.98 534.01 L 872.17 531.12 L 871.36 528.23 L 870.53 525.35 L 869.71 522.46 L 868.89 519.58 L 868.08 516.69 L 867.27 513.80 L 866.45 510.92 L 865.63 508.03 L 864.82 505.14 L 864.01 502.25 L 863.21 499.36 L 862.40 496.47 L 861.60 493.58 L 860.80 490.69 L 860.00 487.80 L 859.20 484.91 L 858.40 482.02 L 857.60 479.12 L 856.79 476.23 L 855.99 473.35 L 855.17 470.46 L 854.37 467.57 L 853.58 464.67 L 852.80 461.78 L 852.01 458.88 L 851.24 455.98 L 850.46 453.09 L 849.69 450.19 L 848.92 447.29 L 848.16 444.38 L 847.39 441.49 L 846.62 438.58 L 845.86 435.68 L 845.09 432.78 L 844.31 429.89 L 843.54 426.99 L 842.77 424.09 L 841.99 421.19 L 841.20 418.30 L 840.41 415.40 L 839.63 412.50 L 838.85 409.61 L 838.05 406.72 L 837.27 403.82 L 836.48 400.93 L 835.68 398.04 L 834.87 395.15 L 834.07 392.26 L 833.26 389.37 L 832.45 386.48 L 831.63 383.59 L 830.81 380.71 L 830.00 377.82 L 829.19 374.93 L 828.37 372.04 L 827.55 369.16 L 826.74 366.27 L 825.92 363.38 L 825.10 360.50 L 824.29 357.61 L 823.48 354.72 L 822.67 351.83 L 821.86 348.94 L 821.05 346.06 L 820.25 343.16 L 819.44 340.27 L 818.63 337.39 L 817.82 334.50 L 817.00 331.61 L 816.17 328.73 L 815.35 325.84 L 814.52 322.96 L 813.71 320.07 L 812.89 317.19 L 812.08 314.30 L 811.28 311.41 L 810.47 308.52 L 809.67 305.63 L 808.87 302.73 L 808.07 299.84 L 807.26 296.95 L 806.45 294.07 L 805.64 291.18 L 804.83 288.29 L 804.02 285.40 L 803.22 282.51 L 802.41 279.62 L 801.61 276.73 L 800.81 273.84 L 800.01 270.95 L 799.21 268.06 L 798.41 265.16 L 797.59 262.28 L 796.79 259.39 L 795.99 256.50 L 795.18 253.61 L 794.38 250.72 L 793.57 247.83 L 792.75 244.94 L 791.93 242.06 L 791.11 239.17 L 790.28 236.29 L 789.45 233.40 L 788.61 230.52 L 787.78 227.64 L 786.95 224.76 L 786.12 221.87 L 785.28 218.99 L 784.43 216.12 L 783.60 213.24 L 782.76 210.36 L 781.92 207.47 L 781.07 204.60 L 780.23 201.72 L 779.37 198.84 L 778.51 195.97 L 777.65 193.10 L 776.79 190.22 L 775.93 187.35 L 775.07 184.47 L 774.20 181.60 L 773.34 178.73 L 772.46 175.86 L 771.59 172.99 L 770.72 170.12 L 769.85 167.25 L 768.98 164.38 L 768.12 161.50 L 767.25 158.63 L 766.40 155.75 L 765.54 152.88 L 764.69 150.00 L 763.84 147.12 L 762.99 144.25 L 762.14 141.37 L 761.29 138.49 L 760.46 135.61 L 759.62 132.73 L 758.79 129.85 L 757.96 126.97 L 757.13 124.08 L 756.30 121.20 L 755.46 118.32 L 754.63 115.44 L 753.79 112.56 L 752.95 109.68 L 752.12 106.80 L 751.28 103.91 L 750.44 101.03 L 749.60 98.15 L 748.75 95.28 L 747.90 92.40 L 747.05 89.52 L 746.20 86.65 L 745.35 83.77 L 744.50 80.89 L 743.65 78.01 L 742.81 75.13 L 741.96 72.26 L 741.10 69.38 L 740.25 66.51 L 739.40 63.63 L 738.55 60.75 L 737.70 57.88 L 736.85 55.00 L 736.00 52.12 L 735.16 49.24 L 734.33 46.36 L 733.49 43.48 L 732.66 40.60 L 731.83 37.71 L 731.00 34.83 L 730.16 31.95 L 729.32 29.07 L 728.48 26.19 L 727.62 23.31 L 726.77 20.44 L 725.93 17.56 L 725.09 14.68 L 724.25 11.80 L 723.41 8.92 L 722.56 6.04 L 721.73 3.16 L 720.89 0.28 L 720.05 -2.60 L 719.21 -5.48 L 718.37 -8.36 L 717.54 -11.24 L 716.70 -14.13 L 715.87 -17.01 L 715.04 -19.89 L 714.22 -22.78" stroke="rgb(245,245,245)" stroke-opacity="0.927" stroke-width="1.72" />
  <path d="M 997.33 999.14 L 996.35 995.97 L 995.36 992.82 L 994.38 989.68 L 993.41 986.54 L 992.44 983.43 L 991.46 980.33 L 990.49 977.24 L 989.51 974.17 L 988.49 971.12 L 987.51 968.08 L 986.55 965.04 L 985.59 962.01 L 984.56 959.03 L 983.52 956.05 L 982.50 953.09 L 981.50 950.13 L 980.52 947.18 L 979.57 944.23 L 978.64 941.30 L 977.68 938.38 L 976.70 935.48 L 975.72 932.59 L 974.75 929.72 L 973.79 926.85 L 972.78 924.01 L 971.77 921.19 L 970.79 918.37 L 969.77 915.57 L 968.75 912.79 L 967.70 910.02 L 966.69 907.26 L 965.66 904.52 L 964.63 901.79" stroke="rgb(120,210,255)" stroke-opacity="0.854" stroke-width="1.64" />
  <path d="M 966.51 865.53 L 966.03 862.48 L 965.54 859.44 L 965.05 856.41 L 964.61 853.39 L 964.20 850.38 L 963.79 847.39 L 963.30 844.41 L 962.85 841.44 L 962.40 838.48 L 961.94 835.54 L 961.46 832.63 L 960.95 829.73 L 960.43 826.85 L 959.91 823.96 L 959.36 821.09 L 958.79 818.24 L 958.27 815.38 L 957.65 812.56 L 957.11 809.74 L 956.59 806.92 L 956.08 804.11 L 955.57 801.30 L 955.07 798.50 L 954.46 795.73 L 953.86 792.97 L 953.26 790.23 L 952.65 787.50 L 952.00 784.78 L 951.42 782.07 L 950.84 779.36 L 950.30 776.66 L 949.73 773.99 L 949.23 771.30 L 948.77 768.63 L 948.22 765.99 L 947.66 763.36 L 947.07 760.74 L 946.48 758.15 L 945.90 755.56 L 945.32 752.98 L 944.76 750.40 L 944.17 747.85 L 943.56 745.31 L 942.93 742.79 L 942.44 740.26 L 941.96 737.74 L 941.54 735.21 L 941.09 732.70 L 940.60 730.22 L 940.11 727.74 L 939.64 725.25 L 939.16 722.78 L 938.70 720.31 L 938.21 717.86 L 937.74 715.41 L 937.23 712.98 L 936.68 710.57 L 936.09 708.17 L 935.56 705.78 L 935.06 703.39 L 934.54 701.01 L 934.06 698.64 L 933.59 696.28 L 933.21 693.91 L 932.85 691.55 L 932.48 689.20 L 932.16 686.86 L 931.85 684.52 L 931.46 682.20" stroke="rgb(120,210,255)" stroke-opacity="0.853" stroke-width="1.63" />
  <path d="M 978.59 919.02 L 978.03 915.92 L 977.47 912.83 L 976.94 909.74 L 976.46 906.68 L 975.90 903.63 L 975.34 900.59 L 974.79 897.56 L 974.22 894.55 L 973.66 891.55 L 973.12 888.55 L 972.62 885.56 L 972.19 882.56 L 971.78 879.58 L 971.23 876.63 L 970.65 873.68 L 970.03 870.77 L 969.46 867.84 L 968.86 864.93 L 968.26 862.03 L 967.74 859.13 L 967.24 856.24 L 966.74 853.38 L 966.32 850.52 L 965.92 847.66 L 965.55 844.81 L 965.19 841.97 L 964.83 839.13 L 964.46 836.31 L 964.10 833.49 L 963.73 830.69 L 963.35 827.90 L 962.94 825.13 L 962.54 822.37 L 962.14 819.62 L 961.74 816.88 L 961.31 814.16 L 960.86 811.45 L 960.45 808.76 L 960.00 806.08 L 959.61 803.40 L 959.24 800.73 L 958.86 798.08 L 958.42 795.45 L 957.98 792.83 L 957.53 790.22 L 957.08 787.63 L 956.63 785.04 L 956.22 782.46 L 955.83 779.89 L 955.52 777.32 L 955.23 774.76 L 954.90 772.22 L 954.55 769.69 L 954.16 767.18 L 953.84 764.66 L 953.53 762.14 L 953.22 759.63 L 952.88 757.14 L 952.55 754.66 L 952.18 752.20 L 951.71 749.77 L 951.25 747.35 L 950.76 744.93 L 950.25 742.53 L 949.75 740.15 L 949.10 737.80 L 948.41 735.47 L 947.72 733.15 L 947.03 730.86 L 946.35 728.56 L 945.71 726.28 L 945.08 724.00 L 944.41 721.76 L 943.72 719.54 L 943.06 717.32 L 942.30 715.12 L 941.54 712.94 L 940.79 710.77 L 940.06 708.60 L 939.30 706.43 L 938.54 704.28 L 937.76 702.13 L 936.98 699.99 L 936.20 697.86 L 935.43 695.74 L 934.64 693.63 L 933.87 691.52 L 933.12 689.42 L 932.37 687.32 L 931.62 685.23 L 930.88 683.16 L 930.12 681.11 L 929.40 679.06 L 928.66 677.03 L 927.90 675.01" stroke="rgb(120,210,255)" stroke-opacity="0.853" stroke-width="1.63" />
  <path d="M 1000.60 997.27 L 999.76 993.92 L 998.92 990.58 L 998.09 987.25 L 997.26 983.94 L 996.41 980.64 L 995.56 977.36 L 994.73 974.08 L 993.91 970.82 L 993.09 967.57 L 992.32 964.32 L 991.54 961.09 L 990.77 957.87 L 990.02 954.67 L 989.28 951.47 L 988.54 948.28 L 987.84 945.10 L 987.15 941.93 L 986.47 938.77 L 985.83 935.62 L 985.20 932.47 L 984.56 929.34 L 983.94 926.22 L 983.30 923.12 L 982.66 920.03 L 982.02 916.96 L 981.40 913.89 L 980.77 910.84 L 980.14 907.80 L 979.58 904.76 L 979.02 901.73 L 978.47 898.71 L 977.93 895.70 L 977.34 892.72 L 976.76 889.75 L 976.19 886.78 L 975.62 883.83 L 975.06 880.89 L 974.47 877.96 L 973.92 875.05 L 973.39 872.13 L 972.85 869.24 L 972.33 866.35 L 971.83 863.48 L 971.32 860.61 L 970.80 857.77 L 970.30 854.93 L 969.78 852.10 L 969.29 849.28 L 968.80 846.48 L 968.35 843.68 L 967.89 840.89 L 967.44 838.11 L 966.96 835.35 L 966.52 832.59 L 966.09 829.85 L 965.68 827.11 L 965.27 824.39 L 964.85 821.68 L 964.45 818.98 L 964.03 816.29 L 963.61 813.61 L 963.21 810.94 L 962.80 808.28 L 962.37 805.64 L 961.87 803.02 L 961.35 800.42 L 960.85 797.82 L 960.29 795.24 L 959.73 792.68 L 959.16 790.12 L 958.57 787.59 L 957.99 785.06 L 957.46 782.53 L 956.92 780.01 L 956.37 777.50 L 955.83 775.00 L 955.30 772.51 L 954.74 770.03 L 954.17 767.57 L 953.61 765.12 L 953.03 762.68 L 952.46 760.25 L 951.90 757.82 L 951.35 755.41 L 950.83 752.99 L 950.32 750.59 L 949.82 748.19 L 949.31 745.80 L 948.79 743.43 L 948.28 741.06 L 947.76 738.71 L 947.21 736.37 L 946.67 734.04 L 946.14 731.72 L 945.60 729.41 L 945.07 727.11 L 944.57 724.81 L 944.06 722.52" stroke="rgb(120,210,255)" stroke-opacity="0.852" stroke-width="1.63" />
  <path d="M 989.41 958.52 L 988.27 955.45 L 987.12 952.41 L 985.97 949.37 L 984.81 946.35 L 983.63 943.35 L 982.45 940.36 L 981.28 937.39 L 980.11 934.43 L 978.89 931.50 L 977.62 928.60 L 976.35 925.72 L 975.04 922.87 L 973.73 920.04 L 972.46 917.21 L 971.19 914.39 L 969.93 911.57 L 968.64 908.76 L 967.37 905.96 L 966.08 903.16 L 964.79 900.38 L 963.56 897.60 L 962.38 894.81 L 961.24 892.01 L 960.07 889.25" stroke="rgb(120,210,255)" stroke-opacity="0.852" stroke-width="1.63" />
  <path d="M 981.89 931.40 L 981.15 928.32 L 980.45 925.23 L 979.75 922.17 L 979.08 919.11 L 978.38 916.07 L 977.68 913.04 L 976.92 910.03 L 976.19 907.03 L 975.44 904.05 L 974.72 901.06 L 973.96 898.10 L 973.21 895.15 L 972.41 892.22 L 971.62 889.30 L 970.82 886.40 L 970.07 883.50 L 969.33 880.60 L 968.60 877.72 L 967.86 874.85 L 967.13 871.99 L 966.44 869.14 L 965.78 866.28 L 965.10 863.45 L 964.41 860.63 L 963.66 857.83 L 962.89 855.06 L 962.12 852.30 L 961.34 849.55 L 960.61 846.80 L 959.88 844.06 L 959.17 841.33 L 958.47 838.61 L 957.72 835.91 L 956.96 833.23 L 956.21 830.55 L 955.43 827.90 L 954.64 825.25" stroke="rgb(120,210,255)" stroke-opacity="0.850" stroke-width="1.62" />
  <path d="M 999.49 999.46 L 998.67 996.48 L 997.84 993.51 L 997.01 990.56 L 996.19 987.62 L 995.41 984.68 L 994.64 981.75 L 993.94 978.82 L 993.28 975.89 L 992.63 972.96 L 992.00 970.05 L 991.37 967.14 L 990.72 964.26 L 990.06 961.38 L 989.41 958.52 L 988.83 955.66 L 988.24 952.81 L 987.63 949.97 L 986.99 947.15 L 986.37 944.35 L 985.80 941.54 L 985.23 938.74 L 984.68 935.95 L 984.11 933.18" stroke="rgb(120,210,255)" stroke-opacity="0.466" stroke-width="1.62" />
  <path d="M 999.94 997.07 L 999.03 993.71 L 998.13 990.36 L 997.23 987.03 L 996.30 983.72 L 995.38 980.42 L 994.40 977.16 L 993.42 973.91 L 992.44 970.67 L 991.46 967.44 L 990.49 964.23 L 989.53 961.03 L 988.65 957.82 L 987.77 954.63 L 986.89 951.44 L 986.02 948.27 L 985.12 945.13 L 984.25 941.98 L 983.38 938.85 L 982.53 935.73 L 981.67 932.62 L 980.80 929.53 L 979.95 926.45 L 979.10 923.39 L 978.28 920.33 L 977.47 917.28 L 976.66 914.24" stroke="rgb(120,210,255)" stroke-opacity="0.848" stroke-width="1.62" />
  <path d="M 965.68 827.11 L 965.39 823.92 L 965.08 820.74 L 964.77 817.57 L 964.48 814.41 L 964.20 811.26 L 963.92 808.13 L 963.56 805.02 L 963.22 801.91 L 962.87 798.82 L 962.58 795.74 L 962.28 792.67 L 961.93 789.62 L 961.61 786.58 L 961.28 783.56 L 960.99 780.54 L 960.70 777.53 L 960.40 774.53 L 960.18 771.54 L 959.97 768.56 L 959.59 765.61 L 959.24 762.66 L 958.88 759.73 L 958.57 756.81 L 958.25 753.89 L 957.97 750.99 L 957.71 748.10 L 957.43 745.22 L 957.21 742.34 L 956.98 739.48 L 956.70 736.63 L 956.43 733.80 L 956.12 730.98 L 955.83 728.18 L 955.59 725.38 L 955.32 722.60 L 955.00 719.83 L 954.70 717.08 L 954.39 714.36 L 954.07 711.66 L 953.76 708.97 L 953.40 706.30 L 953.04 703.65 L 952.66 701.01 L 952.27 698.38 L 951.88 695.77 L 951.46 693.17 L 951.00 690.60 L 950.60 688.02 L 950.17 685.49 L 949.73 682.96 L 949.29 680.43 L 948.85 677.92 L 948.42 675.41 L 947.99 672.92 L 947.50 670.44 L 947.07 667.95 L 946.69 665.45 L 946.37 662.96 L 946.06 660.48 L 945.73 658.01 L 945.40 655.55 L 945.08 653.09 L 944.72 650.65 L 944.38 648.21 L 944.04 645.78 L 943.66 643.37 L 943.28 640.96 L 942.92 638.57 L 942.56 636.18 L 942.20 633.81 L 941.82 631.45 L 941.48 629.09" stroke="rgb(120,210,255)" stroke-opacity="0.847" stroke-width="1.61" />
  <path d="M 977.21 892.69 L 977.06 889.60 L 976.86 886.56 L 976.63 883.55 L 976.48 880.56 L 976.35 877.57 L 976.20 874.58 L 976.04 871.62 L 975.81 868.65 L 975.69 865.70 L 975.50 862.77 L 975.37 859.83 L 975.22 856.90 L 975.06 853.97 L 974.92 851.06 L 974.74 848.16 L 974.53 845.28" stroke="rgb(120,210,255)" stroke-opacity="0.846" stroke-width="1.61" />
  <path d="M 1000.27 997.42 L 999.36 994.17 L 998.43 990.94 L 997.50 987.72 L 996.56 984.51 L 995.63 981.33 L 994.73 978.14 L 993.86 974.96 L 993.06 971.78 L 992.23 968.61 L 991.37 965.47 L 990.52 962.34 L 989.69 959.22 L 988.95 956.09 L 988.19 952.97 L 987.47 949.86 L 986.74 946.76 L 986.01 943.68 L 985.25 940.62 L 984.49 937.57 L 983.73 934.53 L 982.96 931.51 L 982.19 928.50 L 981.44 925.50 L 980.69 922.52 L 979.93 919.55 L 979.19 916.58 L 978.49 913.62 L 977.81 910.67 L 977.10 907.73 L 976.38 904.82 L 975.70 901.91 L 975.03 899.00 L 974.38 896.11 L 973.72 893.23 L 973.08 890.36 L 972.44 887.50 L 971.79 884.65 L 971.16 881.81 L 970.48 879.00 L 969.84 876.18 L 969.21 873.38 L 968.56 870.59 L 967.90 867.82 L 967.24 865.06 L 966.63 862.30 L 966.03 859.54 L 965.47 856.80" stroke="rgb(120,210,255)" stroke-opacity="0.846" stroke-width="1.61" />
  <path d="M 986.11 942.17 L 985.36 939.10 L 984.62 936.03 L 983.88 932.98 L 983.17 929.94 L 982.43 926.91 L 981.70 923.90 L 981.03 920.87 L 980.40 917.87 L 979.77 914.87 L 979.13 911.91 L 978.48 908.95 L 977.87 906.01 L 977.25 903.10 L 976.62 900.19 L 976.06 897.27 L 975.45 894.36 L 974.87 891.46 L 974.29 888.58 L 973.66 885.71 L 973.02 882.86 L 972.45 880.03 L 971.85 877.22 L 971.23 874.45 L 970.60 871.67 L 969.97 868.91 L 969.35 866.15 L 968.76 863.40 L 968.20 860.65 L 967.64 857.92 L 967.04 855.22 L 966.39 852.53 L 965.69 849.86 L 965.01 847.19 L 964.29 844.54 L 963.57 841.90 L 962.86 839.27 L 962.19 836.66 L 961.50 834.06 L 960.86 831.49 L 960.31 828.88 L 959.76 826.29 L 959.21 823.72 L 958.69 821.15 L 958.11 818.61 L 957.53 816.09 L 956.86 813.58 L 956.14 811.10 L 955.45 808.62 L 954.73 806.16 L 954.00 803.70 L 953.27 801.26 L 952.54 798.81 L 951.88 796.36 L 951.22 793.94 L 950.53 791.54 L 949.84 789.15 L 949.03 786.81 L 948.20 784.48 L 947.38 782.16 L 946.53 779.86 L 945.68 777.56 L 944.87 775.23" stroke="rgb(120,210,255)" stroke-opacity="0.845" stroke-width="1.61" />
  <path d="M 1000.36 997.52 L 999.61 994.61 L 998.98 991.69 L 998.40 988.77 L 997.83 985.86 L 997.20 982.97 L 996.65 980.08 L 996.08 977.20 L 995.52 974.34 L 994.97 971.48 L 994.42 968.64 L 993.80 965.83 L 993.20 963.02 L 992.63 960.22 L 992.08 957.44 L 991.56 954.66 L 991.02 951.89 L 990.45 949.14 L 989.93 946.39 L 989.40 943.65 L 988.90 940.92 L 988.42 938.19 L 987.95 935.48 L 987.47 932.77 L 987.00 930.08 L 986.54 927.39 L 986.08 924.72 L 985.68 922.04 L 985.26 919.38 L 984.78 916.74 L 984.26 914.12 L 983.77 911.51 L 983.31 908.90 L 982.86 906.30 L 982.47 903.70 L 982.10 901.11 L 981.78 898.52 L 981.41 895.95 L 981.05 893.39 L 980.69 890.84 L 980.33 888.30 L 979.94 885.78 L 979.59 883.26 L 979.22 880.75" stroke="rgb(120,210,255)" stroke-opacity="0.464" stroke-width="1.60" />
  <path d="M 977.94 914.57 L 977.15 911.73 L 976.37 908.89 L 975.59 906.07 L 974.80 903.25 L 973.98 900.47 L 973.24 897.68 L 972.57 894.89 L 971.89 892.08 L 971.27 889.28 L 970.62 886.49 L 970.02 883.71 L 969.41 880.94 L 968.76 878.20 L 968.07 875.47 L 967.45 872.74 L 966.81 870.03 L 966.17 867.33 L 965.55 864.63 L 964.97 861.94 L 964.39 859.26 L 963.84 856.57 L 963.38 853.88 L 962.88 851.22 L 962.38 848.56 L 961.93 845.90 L 961.39 843.27 L 960.80 840.66 L 960.19 838.07 L 959.61 835.48 L 959.03 832.90 L 958.45 830.33 L 957.90 827.77" stroke="rgb(120,210,255)" stroke-opacity="0.464" stroke-width="1.60" />
  <path d="M 1002.00 1003.59 L 1001.12 1000.27 L 1000.26 996.96 L 999.38 993.66 L 998.51 990.38 L 997.65 987.10 L 996.77 983.85 L 995.90 980.61 L 995.02 977.38 L 994.15 974.17 L 993.24 970.98 L 992.31 967.81 L 991.36 964.66 L 990.41 961.52 L 989.46 958.40 L 988.60 955.26 L 987.75 952.14 L 986.89 949.03 L 986.04 945.93 L 985.23 942.84 L 984.42 939.76 L 983.59 936.69 L 982.77 933.64 L 981.97 930.59 L 981.16 927.56 L 980.36 924.54 L 979.59 921.53 L 978.87 918.51 L 978.16 915.51 L 977.44 912.52 L 976.73 909.54 L 976.04 906.57 L 975.39 903.61 L 974.69 900.66 L 973.99 897.73 L 973.30 894.81 L 972.60 891.91 L 971.89 889.02 L 971.19 886.14 L 970.51 883.27 L 969.85 880.41 L 969.21 877.55 L 968.55 874.71 L 967.94 871.88" stroke="rgb(120,210,255)" stroke-opacity="0.841" stroke-width="1.60" />
  <path d="M 1000.78 1000.21 L 999.90 996.88 L 999.02 993.57 L 998.14 990.27 L 997.28 986.99 L 996.43 983.71 L 995.60 980.44 L 994.79 977.18 L 994.00 973.93 L 993.21 970.69 L 992.41 967.47 L 991.63 964.26 L 990.85 961.06 L 990.07 957.87 L 989.27 954.71 L 988.47 951.55 L 987.68 948.41 L 986.89 945.29 L 986.11 942.17 L 985.36 939.06 L 984.60 935.96 L 983.81 932.89 L 983.03 929.82 L 982.27 926.77 L 981.50 923.73 L 980.73 920.70 L 979.95 917.69 L 979.20 914.69 L 978.45 911.70 L 977.69 908.72 L 976.95 905.75 L 976.20 902.79 L 975.44 899.85 L 974.68 896.93 L 973.91 894.01 L 973.11 891.12 L 972.35 888.23 L 971.59 885.36 L 970.86 882.49 L 970.15 879.63 L 969.44 876.78 L 968.73 873.95 L 968.01 871.13 L 967.25 868.32 L 966.51 865.53 L 965.77 862.75 L 965.02 859.98 L 964.28 857.23 L 963.52 854.49 L 962.77 851.76 L 962.03 849.05 L 961.28 846.35 L 960.55 843.65 L 959.82 840.97 L 959.09 838.30" stroke="rgb(120,210,255)" stroke-opacity="0.841" stroke-width="1.60" />
  <path d="M 1000.88 1000.62 L 1000.12 997.63 L 999.35 994.64 L 998.52 991.69 L 997.69 988.74 L 996.88 985.81 L 996.08 982.89 L 995.27 979.98 L 994.43 977.09 L 993.60 974.21 L 992.83 971.32 L 992.08 968.45 L 991.37 965.57 L 990.69 962.71 L 989.98 959.85 L 989.27 957.01 L 988.57 954.19 L 987.79 951.39 L 987.06 948.59 L 986.36 945.80 L 985.62 943.03 L 984.86 940.28" stroke="rgb(120,210,255)" stroke-opacity="0.462" stroke-width="1.59" />
  <path d="M 972.85 869.24 L 971.49 866.03 L 970.10 862.85 L 968.71 859.68 L 967.31 856.54 L 965.95 853.39 L 964.64 850.24 L 963.37 847.10 L 962.08 843.97 L 960.74 840.88 L 959.42 837.79 L 958.08 834.72 L 956.75 831.67 L 955.41 828.64 L 954.02 825.65 L 952.72 822.63 L 951.41 819.63 L 950.11 816.63 L 948.83 813.64 L 947.53 810.68 L 946.25 807.72 L 945.01 804.76 L 943.78 801.80 L 942.60 798.84 L 941.42 795.90 L 940.24 792.97 L 939.07 790.05 L 937.85 787.16 L 936.64 784.28 L 935.44 781.42 L 934.25 778.55 L 933.08 775.70 L 931.92 772.86 L 930.79 770.01 L 929.66 767.18 L 928.56 764.35 L 927.48 761.52 L 926.40 758.71 L 925.37 755.90 L 924.37 753.08 L 923.35 750.28 L 922.33 747.50 L 921.29 744.74 L 920.24 741.99 L 919.18 739.26 L 918.12 736.54 L 917.05 733.85 L 916.00 731.15 L 914.94 728.47 L 913.88 725.80 L 912.82 723.14 L 911.76 720.50 L 910.72 717.86 L 909.69 715.22 L 908.64 712.61 L 907.62 710.00 L 906.61 707.39 L 905.60 704.80 L 904.54 702.24 L 903.48 699.69 L 902.45 697.15" stroke="rgb(120,210,255)" stroke-opacity="0.839" stroke-width="1.59" />
  <path d="M 999.80 998.48 L 998.98 995.36 L 998.13 992.26 L 997.29 989.17 L 996.44 986.10 L 995.60 983.04 L 994.79 979.98 L 993.98 976.94 L 993.17 973.91 L 992.36 970.90 L 991.56 967.89 L 990.84 964.88 L 990.13 961.88 L 989.45 958.89 L 988.77 955.90 L 988.06 952.94 L 987.37 949.99 L 986.69 947.04 L 986.00 944.12 L 985.32 941.20 L 984.66 938.29 L 983.98 935.40 L 983.26 932.53 L 982.58 929.67 L 981.91 926.82 L 981.24 923.98 L 980.55 921.16 L 979.88 918.35 L 979.16 915.56 L 978.40 912.80 L 977.62 910.06 L 976.85 907.33 L 976.10 904.60 L 975.34 901.89 L 974.57 899.18 L 973.80 896.47 L 973.00 893.79 L 972.18 891.12 L 971.34 888.47 L 970.52 885.83 L 969.70 883.21 L 968.88 880.59 L 968.07 877.98 L 967.24 875.39 L 966.36 872.82 L 965.48 870.26 L 964.61 867.71 L 963.74 865.18 L 962.88 862.66 L 962.06 860.15 L 961.25 857.63 L 960.44 855.13 L 959.61 852.64 L 958.79 850.17 L 957.98 847.70 L 957.15 845.24 L 956.34 842.80 L 955.47 840.39 L 954.53 838.01 L 953.59 835.64 L 952.64 833.29 L 951.67 830.95 L 950.66 828.64 L 949.67 826.33 L 948.69 824.03 L 947.68 821.76 L 946.67 819.50 L 945.67 817.24 L 944.71 814.97 L 943.75 812.72 L 942.84 810.46 L 941.93 808.20 L 941.03 805.96 L 940.11 803.73 L 939.24 801.50 L 938.38 799.28 L 937.43 797.10 L 936.48 794.92 L 935.54 792.75 L 934.60 790.59 L 933.67 788.44 L 932.79 786.27 L 931.91 784.12" stroke="rgb(120,210,255)" stroke-opacity="0.839" stroke-width="1.59" />
  <path d="M 987.70 951.44 L 986.52 948.84 L 985.39 946.23 L 984.35 943.59 L 983.38 940.93 L 982.39 938.29 L 981.38 935.68 L 980.34 933.09 L 979.17 930.56 L 978.01 928.04 L 976.83 925.54 L 975.74 923.01 L 974.59 920.52 L 973.40 918.07 L 972.17 915.65 L 970.89 913.26 L 969.61 910.88 L 968.29 908.54 L 966.88 906.27 L 965.46 904.01 L 964.00 901.79 L 962.54 899.59 L 961.05 897.42 L 959.63 895.22 L 958.21 893.02 L 956.80 890.83 L 955.43 888.64 L 954.06 886.45 L 952.74 884.24 L 951.43 882.04 L 950.12 879.86 L 948.89 877.64 L 947.64 875.43" stroke="rgb(120,210,255)" stroke-opacity="0.456" stroke-width="1.56" />
  <path d="M 986.47 947.35 L 985.07 944.94 L 983.70 942.52 L 982.33 940.12 L 980.97 937.73 L 979.67 935.32 L 978.38 932.92 L 977.32 930.43 L 976.18 928.00 L 975.07 925.57 L 974.07 923.09 L 973.07 920.61 L 971.94 918.20 L 970.81 915.80 L 969.73 913.39 L 968.64 911.00 L 967.55 908.62 L 966.44 906.25 L 965.27 903.93 L 964.14 901.60 L 963.05 899.26 L 961.85 897.00 L 960.65 894.73 L 959.47 892.47 L 958.32 890.20 L 957.30 887.87 L 956.12 885.64" stroke="rgb(120,210,255)" stroke-opacity="0.456" stroke-width="1.56" />
  <path d="M 1000.31 1002.41 L 999.60 999.80 L 998.89 997.19 L 998.18 994.59 L 997.57 991.97 L 996.98 989.36 L 996.39 986.77 L 995.79 984.18 L 995.09 981.63 L 994.40 979.09 L 993.73 976.55 L 993.01 974.04 L 992.34 971.53 L 991.80 969.00 L 991.29 966.47 L 990.78 963.95 L 990.26 961.44 L 989.77 958.93 L 989.30 956.44 L 988.86 953.94 L 988.42 951.46 L 988.01 948.98 L 987.58 946.52 L 987.10 944.08 L 986.62 941.65 L 986.14 939.22 L 985.66 936.81 L 985.17 934.41 L 984.67 932.02 L 984.15 929.64 L 983.67 927.27 L 983.22 924.90 L 982.81 922.53 L 982.42 920.17 L 982.02 917.82 L 981.55 915.50 L 981.05 913.19 L 980.61 910.87 L 980.19 908.57 L 979.79 906.27 L 979.40 903.97 L 978.96 901.70 L 978.56 899.42 L 978.15 897.16 L 977.70 894.91 L 977.21 892.69 L 976.70 890.48 L 976.17 888.28 L 975.73 886.07 L 975.27 883.87 L 974.85 881.67 L 974.43 879.49 L 974.05 877.30 L 973.59 875.14 L 973.17 872.99 L 972.77 870.85 L 972.36 868.71 L 971.97 866.58 L 971.67 864.44 L 971.37 862.31" stroke="rgb(120,210,255)" stroke-opacity="0.453" stroke-width="1.54" />
  <path d="M 999.40 1001.07 L 998.71 998.57 L 998.06 996.07 L 997.47 993.56 L 996.72 991.11 L 995.99 988.67 L 995.27 986.23 L 994.51 983.82 L 993.76 981.41 L 992.99 979.02 L 992.23 976.64 L 991.47 974.26 L 990.73 971.90 L 990.01 969.53 L 989.27 967.19 L 988.54 964.85 L 987.81 962.51 L 987.12 960.18 L 986.45 957.85 L 985.83 955.52 L 985.25 953.19 L 984.77 950.85 L 984.30 948.51 L 983.82 946.19 L 983.36 943.88 L 982.92 941.57 L 982.47 939.27 L 981.97 936.99 L 981.51 934.71 L 981.04 932.45 L 980.55 930.19 L 980.13 927.93 L 979.66 925.69 L 979.24 923.47 L 978.92 921.24 L 978.59 919.02 L 978.25 916.79 L 977.94 914.57 L 977.57 912.37 L 977.19 910.17 L 976.72 908.01" stroke="rgb(120,210,255)" stroke-opacity="0.449" stroke-width="1.53" />
  <path d="M 1001.83 1001.69 L 1001.15 999.41 L 1000.40 997.17 L 999.71 994.91 L 999.11 992.64 L 998.38 990.42 L 997.76 988.17 L 997.14 985.94 L 996.60 983.70 L 996.01 981.48 L 995.37 979.28 L 994.75 977.08 L 994.14 974.90 L 993.57 972.70 L 992.99 970.53 L 992.41 968.36 L 991.83 966.20 L 991.24 964.06 L 990.65 961.93 L 990.06 959.81 L 989.48 957.70 L 988.89 955.59 L 988.31 953.51 L 987.70 951.44 L 987.12 949.38 L 986.47 947.35 L 985.84 945.34 L 985.22 943.33 L 984.71 941.30 L 984.19 939.28 L 983.68 937.26 L 983.11 935.29 L 982.49 933.35 L 981.89 931.40 L 981.29 929.47 L 980.71 927.54 L 980.06 925.65 L 979.42 923.76 L 978.78 921.89" stroke="rgb(120,210,255)" stroke-opacity="0.437" stroke-width="1.46" />
  <path d="M 983.68 962.23 L 982.31 959.23 L 980.93 956.24 L 979.57 953.26 L 978.18 950.30 L 976.81 947.34 L 975.48 944.38 L 974.11 941.45 L 972.75 938.53 L 971.41 935.60 L 970.11 932.68 L 968.89 929.74 L 967.67 926.82 L 966.47 923.89 L 965.20 921.00 L 963.94 918.10 L 962.75 915.18 L 961.62 912.28 L 960.49 909.39 L 959.35 906.52 L 958.22 903.67 L 957.09 900.82 L 955.99 897.98 L 954.92 895.15 L 953.76 892.36" stroke="rgb(205,165,255)" stroke-opacity="0.718" stroke-width="1.24" />
  <path d="M 1046.33 920.93 L 1046.89 919.12 L 1047.44 917.30 L 1048.02 915.47 L 1048.58 913.64 L 1049.15 911.84 L 1049.70 910.04 L 1050.23 908.26 L 1050.78 906.49 L 1051.35 904.71 L 1051.89 902.93 L 1052.37 901.16 L 1052.84 899.40 L 1053.29 897.67 L 1053.74 895.94 L 1054.18 894.24 L 1054.63 892.53 L 1055.08 890.81 L 1055.52 889.11 L 1055.97 887.41 L 1056.40 885.73 L 1056.86 884.05 L 1057.27 882.37 L 1057.67 880.70 L 1058.12 879.02 L 1058.56 877.33 L 1059.01 875.65 L 1059.42 874.04 L 1059.85 872.44 L 1060.24 870.86 L 1060.61 869.30 L 1060.92 867.75 L 1061.23 866.21 L 1061.52 864.65 L 1061.90 863.10 L 1062.29 861.54 L 1062.68 860.00 L 1063.09 858.41" stroke="rgb(205,165,255)" stroke-opacity="0.717" stroke-width="1.23" />
  <path d="M 987.83 946.67 L 988.16 944.48 L 988.38 942.27 L 988.61 940.08 L 988.83 937.89 L 989.13 935.72 L 989.45 933.56 L 989.89 931.43 L 990.26 929.30 L 990.59 927.17 L 990.94 925.06 L 991.29 922.95 L 991.59 920.84 L 991.91 918.74 L 992.26 916.65 L 992.63 914.57 L 992.97 912.50 L 993.33 910.43 L 993.70 908.38" stroke="rgb(140,255,190)" stroke-opacity="0.567" stroke-width="1.23" />
  <path d="M 999.18 999.91 L 1000.34 1003.03 L 1001.50 1006.12 L 1002.67 1009.20 L 1003.83 1012.28 L 1004.97 1015.35 L 1006.15 1018.38 L 1007.31 1021.41 L 1008.50 1024.41 L 1009.69 1027.39 L 1010.87 1030.37 L 1012.04 1033.33 L 1013.21 1036.29 L 1014.36 1039.22 L 1015.54 1042.13 L 1016.76 1045.03 L 1017.95 1047.91 L 1019.14 1050.79 L 1020.33 1053.65 L 1021.53 1056.50 L 1022.75 1059.33 L 1023.95 1062.16 L 1025.16 1064.98 L 1026.39 1067.77 L 1027.63 1070.54 L 1028.89 1073.30 L 1030.22 1076.03 L 1031.54 1078.75 L 1032.89 1081.44 L 1034.25 1084.11 L 1035.60 1086.78 L 1036.95 1089.43 L 1038.30 1092.08 L 1039.67 1094.70 L 1041.02 1097.33 L 1042.38 1099.93 L 1043.73 1102.53 L 1045.07 1105.11 L 1046.45 1107.66 L 1047.82 1110.20 L 1049.19 1112.73 L 1050.58 1115.25 L 1051.96 1117.76 L 1053.33 1120.27 L 1054.71 1122.76 L 1056.09 1125.25 L 1057.45 1127.73 L 1058.81 1130.19 L 1060.18 1132.63 L 1061.55 1135.07 L 1062.92 1137.49 L 1064.28 1139.90 L 1065.61 1142.29 L 1066.93 1144.69 L 1068.24 1147.07 L 1069.54 1149.46 L 1070.83 1151.84 L 1072.10 1154.21 L 1073.38 1156.58 L 1074.67 1158.92 L 1075.96 1161.25 L 1077.28 1163.54 L 1078.60 1165.82 L 1079.90 1168.08 L 1081.21 1170.34 L 1082.52 1172.58 L 1083.78 1174.83 L 1085.07 1177.07 L 1086.36 1179.27 L 1087.65 1181.49 L 1088.92 1183.69 L 1090.19 1185.89 L 1091.43 1188.09 L 1092.66 1190.28 L 1093.88 1192.47 L 1095.05 1194.67 L 1096.22 1196.86 L 1097.38 1199.05 L 1098.51 1201.25 L 1099.64 1203.44 L 1100.72 1205.64 L 1101.81 1207.83 L 1102.93 1209.99 L 1104.03 1212.16 L 1105.13 1214.31 L 1106.23 1216.45 L 1107.33 1218.59 L 1108.43 1220.71 L 1109.50 1222.84 L 1110.57 1224.95 L 1111.64 1227.06 L 1112.67 1229.17 L 1113.70 1231.27 L 1114.75 1233.35 L 1115.80 1235.42 L 1116.83 1237.48 L 1117.87 1239.53" stroke="rgb(205,165,255)" stroke-opacity="0.717" stroke-width="1.23" />
  <path d="M 1002.30 1001.85 L 999.94 999.51 L 997.60 997.17 L 995.28 994.81 L 992.96 992.47 L 990.67 990.11 L 988.42 987.74 L 986.16 985.38 L 983.93 983.03 L 981.70 980.69 L 979.48 978.36 L 977.27 976.03 L 975.07 973.72 L 972.88 971.40 L 970.74 969.06 L 968.60 966.74 L 966.46 964.45 L 964.33 962.15 L 962.22 959.86 L 960.12 957.57 L 957.98 955.34 L 955.86 953.11 L 953.74 950.90 L 951.62 948.69 L 949.52 946.49 L 947.42 944.29 L 945.30 942.15 L 943.24 939.98 L 941.21 937.79 L 939.17 935.61 L 937.13 933.45 L 935.07 931.31" stroke="rgb(205,165,255)" stroke-opacity="0.711" stroke-width="1.22" />
  <path d="M 965.10 916.09 L 962.32 914.26 L 959.54 912.44 L 956.80 910.59 L 954.08 908.73 L 951.37 906.87 L 948.64 905.07 L 945.93 903.24 L 943.24 901.43 L 940.55 899.62 L 937.87 897.82 L 935.21 896.02 L 932.54 894.25 L 929.87 892.51 L 927.21 890.78 L 924.53 889.09 L 921.84 887.45 L 919.12 885.89 L 916.42 884.31 L 913.74 882.74 L 911.09 881.15 L 908.44 879.56 L 905.80 878.00 L 903.16 876.43 L 900.54 874.88 L 897.94 873.32 L 895.35 871.76 L 892.77 870.21 L 890.20 868.67 L 887.64 867.13 L 885.09 865.59 L 882.55 864.05 L 880.04 862.48 L 877.59 860.86 L 875.13 859.27 L 872.66 857.73 L 870.18 856.21 L 867.72 854.68 L 865.22 853.23 L 862.74 851.80 L 860.25 850.38 L 857.77 848.98 L 855.30 847.59 L 852.82 846.24 L 850.35 844.87 L 847.89 843.51 L 845.44 842.16" stroke="rgb(205,165,255)" stroke-opacity="0.707" stroke-width="1.21" />
  <path d="M 1000.07 1002.86 L 999.15 999.50 L 998.21 996.15 L 997.22 992.84 L 996.27 989.52 L 995.31 986.23 L 994.31 982.96 L 993.33 979.70 L 992.35 976.45 L 991.38 973.21 L 990.41 969.99 L 989.42 966.78 L 988.45 963.59 L 987.45 960.42 L 986.43 957.27 L 985.41 954.13 L 984.38 951.01 L 983.36 947.91 L 982.33 944.82 L 981.28 941.74 L 980.25 938.68 L 979.25 935.62 L 978.23 932.58 L 977.19 929.56 L 976.14 926.56 L 975.10 923.57 L 974.09 920.58 L 973.04 917.62 L 971.96 914.68 L 970.90 911.75 L 969.86 908.83 L 968.82 905.91 L 967.77 903.02 L 966.73 900.13 L 965.69 897.26 L 964.66 894.39 L 963.64 891.54 L 962.61 888.70 L 961.60 885.87 L 960.60 883.04 L 959.59 880.24 L 958.58 877.44 L 957.56 874.67 L 956.56 871.90 L 955.56 869.14 L 954.58 866.39 L 953.59 863.65 L 952.62 860.92 L 951.65 858.20 L 950.68 855.49 L 949.71 852.79 L 948.79 850.09 L 947.87 847.40 L 946.94 844.72 L 946.00 842.06 L 945.03 839.43 L 944.07 836.80 L 943.12 834.18 L 942.19 831.56 L 941.27 828.95 L 940.34 826.36 L 939.42 823.78 L 938.51 821.20 L 937.64 818.62 L 936.78 816.05 L 935.93 813.49 L 935.07 810.94" stroke="rgb(140,255,190)" stroke-opacity="0.742" stroke-width="1.20" />
  <path d="M 981.21 932.86 L 980.23 930.01 L 979.24 927.18 L 978.31 924.34 L 977.48 921.48 L 976.65 918.64 L 975.76 915.84 L 974.90 913.05 L 974.06 910.30 L 973.16 907.56 L 972.26 904.85 L 971.36 902.13 L 970.45 899.44 L 969.56 896.75 L 968.62 894.11 L 967.69 891.47 L 966.75 888.85 L 965.82 886.24 L 964.85 883.63 L 963.91 881.02 L 962.99 878.43 L 962.11 875.83 L 961.23 873.25 L 960.50 870.65 L 959.77 868.06 L 958.96 865.51 L 958.18 863.02 L 957.42 860.54 L 956.68 858.07 L 955.92 855.62 L 955.14 853.19 L 954.34 850.73 L 953.54 848.29 L 952.71 845.87 L 951.89 843.45 L 950.99 841.08 L 950.05 838.73 L 949.22 836.39 L 948.39 834.07 L 947.61 831.73 L 946.87 829.42 L 946.17 827.10 L 945.46 824.80 L 944.79 822.49 L 944.20 820.17 L 943.62 817.85 L 943.09 815.54 L 942.59 813.21 L 942.10 810.90 L 941.52 808.59 L 940.95 806.29 L 940.36 804.00 L 939.78 801.70 L 939.18 799.45 L 938.58 797.21 L 938.00 794.99 L 937.39 792.79 L 936.81 790.59 L 936.21 788.42 L 935.64 786.20 L 935.08 784.00 L 934.46 781.81 L 933.90 779.61 L 933.38 777.41 L 932.90 775.22 L 932.46 773.02 L 932.03 770.82 L 931.61 768.63 L 931.19 766.46 L 930.79 764.28 L 930.39 762.11 L 930.05 759.95 L 929.66 757.77 L 929.26 755.61 L 928.91 753.44 L 928.52 751.27 L 928.07 749.10 L 927.62 746.94 L 927.10 744.80 L 926.64 742.65 L 926.17 740.50 L 925.66 738.37 L 925.17 736.25 L 924.69 734.14 L 924.17 732.05" stroke="rgb(205,165,255)" stroke-opacity="0.703" stroke-width="1.20" />
  <path d="M 981.31 1006.62 L 979.42 1007.51 L 977.48 1008.41 L 975.52 1009.32 L 973.60 1010.19 L 971.68 1011.05 L 969.74 1011.95 L 967.86 1012.88 L 965.94 1013.77 L 964.08 1014.70 L 962.20 1015.61 L 960.33 1016.52 L 958.47 1017.42 L 956.61 1018.35 L 954.75 1019.28 L 952.91 1020.25 L 951.05 1021.21 L 949.21 1022.19 L 947.39 1023.21 L 945.56 1024.25 L 943.75 1025.31 L 941.87 1026.39 L 939.99 1027.43 L 938.11 1028.49 L 936.23 1029.53 L 934.38 1030.57 L 932.55 1031.62 L 930.68 1032.66 L 928.80 1033.67 L 926.94 1034.71 L 925.06 1035.76 L 923.22 1036.83 L 921.37 1037.84 L 919.54 1038.86 L 917.74 1039.93 L 915.94 1040.97 L 914.16 1041.97 L 912.36 1042.94 L 910.55 1043.89 L 908.74 1044.83 L 906.93 1045.75 L 905.14 1046.61 L 903.37 1047.49 L 901.65 1048.40 L 899.88 1049.35 L 898.10 1050.31 L 896.34 1051.27 L 894.58 1052.21 L 892.83 1053.15 L 891.07 1054.10 L 889.30 1055.03 L 887.60 1055.99 L 885.88 1056.94 L 884.16 1057.86 L 882.44 1058.78 L 880.75 1059.68" stroke="rgb(140,255,190)" stroke-opacity="0.741" stroke-width="1.20" />
  <path d="M 997.37 998.04 L 998.19 994.95 L 999.01 991.87 L 999.78 988.80 L 1000.62 985.76 L 1001.56 982.76 L 1002.52 979.79 L 1003.50 976.85 L 1004.48 973.92 L 1005.48 971.00 L 1006.51 968.11 L 1007.55 965.24 L 1008.65 962.41 L 1009.74 959.58 L 1010.82 956.76 L 1011.88 953.95 L 1012.87 951.12 L 1013.85 948.31 L 1014.83 945.51 L 1015.81 942.72 L 1016.75 939.91 L 1017.70 937.13 L 1018.65 934.36 L 1019.59 931.60 L 1020.55 928.86 L 1021.45 926.11 L 1022.34 923.37 L 1023.22 920.63 L 1024.09 917.91 L 1024.97 915.19 L 1025.86 912.49 L 1026.69 909.78 L 1027.53 907.09 L 1028.28 904.38 L 1029.04 901.68 L 1029.77 898.99 L 1030.49 896.31 L 1031.20 893.63 L 1031.89 890.96 L 1032.59 888.31 L 1033.29 885.67 L 1034.01 883.05 L 1034.72 880.43 L 1035.35 877.81 L 1036.02 875.21 L 1036.69 872.62 L 1037.35 870.04 L 1037.99 867.46 L 1038.63 864.90 L 1039.26 862.35 L 1039.85 859.80 L 1040.44 857.26 L 1041.02 854.73" stroke="rgb(205,165,255)" stroke-opacity="0.702" stroke-width="1.19" />
  <path d="M 1020.55 928.86 L 1019.71 925.98 L 1018.94 923.14 L 1018.20 920.30 L 1017.56 917.44 L 1016.92 914.59 L 1016.28 911.74 L 1015.56 908.91 L 1014.85 906.08 L 1014.16 903.24 L 1013.47 900.42 L 1012.82 897.59 L 1012.03 894.80 L 1011.26 892.01 L 1010.51 889.23 L 1009.78 886.45 L 1009.06 883.68 L 1008.38 880.91 L 1007.71 878.15 L 1007.02 875.40 L 1006.32 872.66 L 1005.58 869.95 L 1004.82 867.25 L 1004.05 864.57 L 1003.27 861.90 L 1002.50 859.23 L 1001.74 856.57 L 1000.93 853.94 L 1000.02 851.35 L 999.09 848.77 L 998.16 846.21 L 997.25 843.65 L 996.36 841.10 L 995.45 838.57 L 994.54 836.05 L 993.57 833.57 L 992.65 831.07 L 991.69 828.58 L 990.70 826.11 L 989.73 823.65 L 988.73 821.21 L 987.77 818.76 L 986.84 816.32 L 985.90 813.89 L 984.96 811.47 L 983.94 809.09 L 982.85 806.74 L 981.76 804.40 L 980.70 802.07 L 979.68 799.72 L 978.65 797.39 L 977.63 795.06" stroke="rgb(205,165,255)" stroke-opacity="0.701" stroke-width="1.19" />
  <path d="M 962.00 874.32 L 960.23 871.66 L 958.46 869.01 L 956.74 866.38 L 955.04 863.75 L 953.38 861.12 L 951.73 858.51 L 950.09 855.91 L 948.44 853.32 L 946.81 850.76 L 945.24 848.16 L 943.64 845.60 L 942.01 843.08 L 940.40 840.55 L 938.73 838.03 L 937.09 835.53 L 935.47 833.04 L 933.91 830.54 L 932.34 828.03 L 930.77 825.55 L 929.20 823.09 L 927.64 820.67 L 926.08 818.26 L 924.53 815.85 L 923.02 813.41 L 921.50 810.99 L 919.98 808.57 L 918.45 806.18 L 916.92 803.82 L 915.41 801.46 L 913.91 799.09 L 912.39 796.72 L 910.88 794.35 L 909.40 792.00 L 907.91 789.67 L 906.40 787.35 L 904.88 785.06 L 903.38 782.76 L 901.92 780.47 L 900.45 778.20 L 898.96 775.93 L 897.47 773.68 L 895.95 771.44 L 894.44 769.21 L 892.95 766.98 L 891.51 764.78 L 890.05 762.60 L 888.61 760.43 L 887.20 758.27 L 885.80 756.12 L 884.41 753.99 L 883.03 751.88 L 881.65 749.77 L 880.31 747.64 L 878.96 745.49 L 877.63 743.32 L 876.33 741.14 L 875.04 738.98 L 873.74 736.82 L 872.45 734.67 L 871.18 732.53 L 869.94 730.39 L 868.72 728.25 L 867.50 726.14 L 866.27 724.07 L 865.04 721.99 L 863.81 719.92 L 862.59 717.86 L 861.36 715.82 L 860.14 713.78 L 858.94 711.73 L 857.73 709.69 L 856.51 707.66 L 855.37 705.61 L 854.22 703.58 L 853.11 701.54 L 852.00 699.51 L 850.90 697.49 L 849.81 695.48 L 848.73 693.51" stroke="rgb(140,255,190)" stroke-opacity="0.737" stroke-width="1.19" />
  <path d="M 1002.80 1001.42 L 1002.30 998.66 L 1001.82 995.91 L 1001.39 993.15 L 1000.90 990.36 L 1000.41 987.58 L 999.92 984.81 L 999.32 982.09 L 998.73 979.38 L 998.16 976.69 L 997.57 974.02 L 996.98 971.35 L 996.46 968.68 L 995.94 966.03 L 995.40 963.41 L 994.88 960.79 L 994.36 958.19 L 993.84 955.60 L 993.31 953.02 L 992.80 950.41 L 992.30 947.78 L 991.79 945.16 L 991.33 942.53 L 990.87 939.92 L 990.44 937.32 L 989.97 934.76 L 989.52 932.18 L 989.05 929.61 L 988.58 927.05 L 988.07 924.51 L 987.49 922.00 L 986.94 919.51 L 986.38 917.03 L 985.82 914.56 L 985.22 912.11 L 984.57 909.69 L 983.92 907.30 L 983.20 904.97 L 982.49 902.64 L 981.83 900.33 L 981.19 898.02 L 980.55 895.71 L 979.92 893.40 L 979.35 891.08 L 978.78 888.77 L 978.27 886.49 L 977.79 884.19 L 977.31 881.90 L 976.90 879.63 L 976.51 877.36 L 976.06 875.13 L 975.60 872.93 L 975.19 870.73 L 974.82 868.57 L 974.46 866.40 L 974.11 864.27 L 973.70 862.12 L 973.30 860.00 L 972.89 857.91 L 972.45 855.82 L 972.00 853.70 L 971.57 851.59 L 971.12 849.49 L 970.66 847.40 L 970.20 845.30 L 969.72 843.22 L 969.26 841.14 L 968.81 839.08 L 968.34 836.99 L 967.86 834.89 L 967.39 832.82 L 966.94 830.74 L 966.50 828.67 L 966.07 826.60 L 965.64 824.55 L 965.22 822.52 L 964.78 820.49" stroke="rgb(205,165,255)" stroke-opacity="0.700" stroke-width="1.19" />
  <path d="M 992.01 959.82 L 990.72 957.92 L 989.29 956.15 L 988.03 954.25 L 986.75 952.38 L 985.46 950.54 L 984.18 948.68 L 983.11 946.72 L 981.91 944.83 L 980.71 942.97 L 979.53 941.09 L 978.37 939.23 L 977.20 937.37 L 975.91 935.60 L 974.59 933.87 L 973.33 932.10 L 972.12 930.30 L 970.89 928.53 L 969.59 926.82 L 968.39 925.05 L 967.14 923.33 L 965.96 921.57 L 964.75 919.84 L 963.56 918.11 L 962.39 916.37 L 961.21 914.65 L 960.02 912.95 L 958.81 911.27 L 957.68 909.55 L 956.47 907.90 L 955.29 906.24 L 954.23 904.51 L 953.18 902.79 L 952.12 901.09 L 951.07 899.38 L 950.01 897.69 L 948.90 896.04 L 947.87 894.34 L 946.87 892.64 L 945.87 890.94 L 944.88 889.25 L 943.98 887.54 L 943.13 885.80 L 942.27 884.07 L 941.41 882.35 L 940.55 880.65 L 939.65 878.97 L 938.78 877.29 L 937.99 875.58 L 937.19 873.88 L 936.41 872.19 L 935.64 870.51 L 934.73 868.90 L 933.81 867.31 L 932.83 865.76 L 931.86 864.22 L 930.75 862.79" stroke="rgb(140,255,190)" stroke-opacity="0.553" stroke-width="1.19" />
  <path d="M 999.58 999.35 L 998.58 996.13 L 997.58 992.91 L 996.54 989.72 L 995.54 986.54 L 994.58 983.36 L 993.59 980.20 L 992.60 977.05 L 991.57 973.93 L 990.52 970.83 L 989.44 967.76 L 988.36 964.70 L 987.28 961.65 L 986.20 958.61 L 985.15 955.58 L 984.14 952.55 L 983.23 949.50 L 982.28 946.47 L 981.35 943.46 L 980.42 940.45 L 979.46 937.47 L 978.52 934.49 L 977.59 931.53 L 976.62 928.59 L 975.66 925.66 L 974.70 922.75 L 973.72 919.85 L 972.78 916.96 L 971.82 914.08 L 970.81 911.23 L 969.80 908.40 L 968.74 905.60 L 967.67 902.81 L 966.61 900.03 L 965.58 897.25 L 964.56 894.49 L 963.50 891.74 L 962.45 889.01 L 961.40 886.29 L 960.41 883.57 L 959.41 880.85 L 958.42 878.15 L 957.41 875.47 L 956.39 872.80 L 955.39 870.13 L 954.37 867.49 L 953.36 864.86 L 952.35 862.23" stroke="rgb(140,255,190)" stroke-opacity="0.735" stroke-width="1.18" />
  <path d="M 984.96 905.52 L 984.73 902.23 L 984.50 898.95 L 984.30 895.70 L 984.11 892.47 L 983.89 889.27 L 983.64 886.08 L 983.39 882.90 L 983.13 879.74 L 982.87 876.59 L 982.54 873.46 L 982.21 870.33 L 981.88 867.22 L 981.50 864.12 L 981.15 861.06 L 980.75 858.02 L 980.41 855.00 L 980.09 851.99 L 979.70 849.02 L 979.30 846.09 L 978.88 843.18 L 978.45 840.28 L 978.01 837.39 L 977.58 834.52 L 977.16 831.67" stroke="rgb(140,255,190)" stroke-opacity="0.733" stroke-width="1.18" />
  <path d="M 996.68 998.10 L 995.80 994.78 L 994.92 991.48 L 994.04 988.20 L 993.18 984.93 L 992.31 981.67 L 991.42 978.43 L 990.54 975.20 L 989.65 971.99 L 988.75 968.79 L 987.86 965.61 L 986.95 962.44 L 986.06 959.28 L 985.18 956.14 L 984.29 953.01 L 983.42 949.89 L 982.53 946.78 L 981.65 943.69 L 980.76 940.62 L 979.86 937.56 L 978.94 934.52 L 978.04 931.48 L 977.12 928.47" stroke="rgb(140,255,190)" stroke-opacity="0.733" stroke-width="1.18" />
  <path d="M 1000.78 1002.40 L 999.84 999.11 L 998.90 995.83 L 997.94 992.57 L 996.98 989.33 L 996.01 986.10 L 995.04 982.88 L 994.08 979.68 L 993.12 976.49 L 992.15 973.32 L 991.19 970.16 L 990.24 967.01 L 989.30 963.87 L 988.37 960.75 L 987.45 957.63 L 986.48 954.54 L 985.53 951.46 L 984.67 948.37 L 983.81 945.29 L 982.94 942.22 L 982.08 939.17 L 981.26 936.12 L 980.44 933.08 L 979.58 930.07 L 978.70 927.07 L 977.83 924.09 L 976.93 921.12 L 976.06 918.16 L 975.21 915.21 L 974.39 912.27 L 973.57 909.33 L 972.76 906.40 L 971.93 903.50 L 971.09 900.61 L 970.26 897.73 L 969.46 894.85 L 968.63 892.00 L 967.79 889.15 L 966.94 886.33 L 966.11 883.51" stroke="rgb(140,255,190)" stroke-opacity="0.733" stroke-width="1.18" />
  <path d="M 1004.19 996.98 L 1003.13 993.70 L 1002.07 990.43 L 1001.00 987.18 L 999.95 983.94 L 998.88 980.72 L 997.77 977.52 L 996.66 974.34 L 995.57 971.17 L 994.51 968.00 L 993.51 964.82 L 992.51 961.66 L 991.51 958.51 L 990.56 955.36 L 989.61 952.23 L 988.67 949.10 L 987.75 945.99 L 986.83 942.88 L 985.90 939.79 L 984.96 936.72 L 984.06 933.65" stroke="rgb(140,255,190)" stroke-opacity="0.733" stroke-width="1.18" />
  <path d="M 998.05 995.77 L 997.24 996.41 L 996.42 997.11 L 995.59 997.81 L 994.77 998.53 L 993.81 999.24 L 992.91 999.88 L 992.01 1000.52 L 991.12 1001.16 L 990.15 1001.72 L 989.18 1002.28 L 988.12 1002.86 L 987.07 1003.43 L 986.00 1004.00 L 984.95 1004.51 L 983.89 1005.01 L 982.93 1005.43 L 982.14 1005.98 L 981.31 1006.62 L 980.46 1007.16 L 979.68 1007.75 L 978.78 1008.24 L 977.83 1008.63 L 976.83 1008.93 L 975.83 1009.26 L 974.88 1009.53 L 973.91 1009.80 L 972.91 1010.11 L 971.94 1010.42 L 970.97 1010.69 L 969.99 1010.86 L 968.94 1011.01 L 967.89 1011.15 L 966.84 1011.28 L 965.81 1011.40 L 964.81 1011.48 L 963.82 1011.63 L 962.93 1011.85 L 962.03 1012.05 L 961.14 1012.26 L 960.21 1012.44 L 959.23 1012.52 L 958.27 1012.56 L 957.29 1012.57 L 956.29 1012.65 L 955.28 1012.74 L 954.24 1012.98 L 953.20 1013.22" stroke="rgb(140,255,190)" stroke-opacity="0.549" stroke-width="1.17" />
  <path d="M 1000.73 1001.87 L 1000.23 999.57 L 999.69 997.29 L 999.13 995.02 L 998.57 992.76 L 998.11 990.49 L 997.67 988.22 L 997.31 985.95 L 996.96 983.68 L 996.59 981.43 L 996.25 979.18 L 995.82 976.97 L 995.40 974.77 L 995.00 972.58 L 994.64 970.39 L 994.30 968.21 L 994.01 966.03 L 993.74 963.86 L 993.47 961.70 L 993.15 959.57 L 992.71 957.44 L 992.27 955.33 L 991.85 953.22 L 991.44 951.12 L 990.97 949.04" stroke="rgb(140,255,190)" stroke-opacity="0.548" stroke-width="1.17" />
  <path d="M 998.94 999.60 L 997.63 1002.20 L 996.27 1004.79 L 994.93 1007.37 L 993.62 1009.95 L 992.28 1012.49 L 990.92 1015.01 L 989.57 1017.55 L 988.25 1020.07 L 986.99 1022.63 L 985.77 1025.20 L 984.54 1027.74 L 983.27 1030.24 L 981.91 1032.69 L 980.60 1035.14 L 979.29 1037.60 L 978.01 1040.06 L 976.73 1042.51 L 975.47 1044.95 L 974.18 1047.37 L 972.90 1049.77 L 971.61 1052.15 L 970.30 1054.52 L 968.94 1056.83 L 967.56 1059.13 L 966.23 1061.42 L 964.90 1063.70 L 963.65 1066.02 L 962.40 1068.32 L 961.13 1070.60 L 959.76 1072.83 L 958.39 1075.06 L 957.02 1077.27 L 955.66 1079.48 L 954.34 1081.70 L 953.05 1083.92 L 951.77 1086.15 L 950.51 1088.37" stroke="rgb(205,165,255)" stroke-opacity="0.485" stroke-width="1.17" />
  <path d="M 973.90 887.82 L 972.41 884.94" stroke="rgb(140,255,190)" stroke-opacity="0.729" stroke-width="1.17" />
  <path d="M 1000.46 997.92 L 999.29 994.75 L 998.12 991.59 L 996.95 988.45 L 995.85 985.30 L 994.79 982.15 L 993.78 979.00 L 992.76 975.87 L 991.73 972.75 L 990.69 969.65 L 989.64 966.57 L 988.60 963.50 L 987.58 960.43 L 986.55 957.38 L 985.50 954.34 L 984.43 951.33 L 983.37 948.33 L 982.31 945.35 L 981.24 942.38 L 980.20 939.41 L 979.16 936.46 L 978.12 933.52 L 977.08 930.59 L 976.05 927.67 L 975.08 924.74 L 974.09 921.83" stroke="rgb(140,255,190)" stroke-opacity="0.729" stroke-width="1.17" />
  <path d="M 999.57 1000.18 L 998.51 997.09 L 997.45 994.02 L 996.39 990.98 L 995.32 987.95 L 994.33 984.91 L 993.37 981.88 L 992.37 978.88 L 991.30 975.91 L 990.21 972.96 L 989.14 970.02 L 988.07 967.10 L 987.00 964.18 L 986.01 961.25 L 985.11 958.31 L 984.18 955.39 L 983.33 952.45 L 982.49 949.52 L 981.64 946.60 L 980.81 943.68 L 980.01 940.77 L 979.20 937.88 L 978.41 934.98 L 977.69 932.09 L 976.93 929.23 L 976.17 926.38 L 975.43 923.53 L 974.77 920.68 L 974.08 917.83 L 973.44 914.99 L 972.79 912.16 L 972.12 909.35 L 971.44 906.55 L 970.68 903.80 L 969.89 901.06 L 969.09 898.34 L 968.30 895.63 L 967.50 892.93 L 966.68 890.25 L 965.90 887.57 L 965.12 884.90 L 964.32 882.24 L 963.52 879.60 L 962.76 876.96 L 962.00 874.32 L 961.20 871.71 L 960.41 869.11 L 959.60 866.53 L 958.80 863.96 L 958.02 861.40 L 957.26 858.84 L 956.50 856.29 L 955.78 853.73 L 955.09 851.19 L 954.42 848.65 L 953.78 846.12 L 953.16 843.59 L 952.56 841.07 L 952.00 838.55 L 951.43 836.04 L 950.87 833.53 L 950.32 831.04 L 949.74 828.57 L 949.16 826.10 L 948.61 823.65 L 948.06 821.20 L 947.45 818.78 L 946.86 816.35" stroke="rgb(140,255,190)" stroke-opacity="0.727" stroke-width="1.16" />
  <path d="M 1002.29 1003.90 L 1002.79 1001.38 L 1003.26 998.82 L 1003.74 996.32 L 1004.21 993.77 L 1004.68 991.23 L 1005.10 988.72 L 1005.60 986.23 L 1006.05 983.77 L 1006.43 981.30 L 1006.78 978.84 L 1007.14 976.33 L 1007.50 973.84 L 1007.90 971.36 L 1008.30 968.89 L 1008.77 966.45 L 1009.25 964.02 L 1009.72 961.59 L 1010.18 959.18 L 1010.62 956.77 L 1011.10 954.37 L 1011.61 952.02 L 1012.09 949.71 L 1012.56 947.41 L 1013.06 945.13 L 1013.58 942.85 L 1014.09 940.57 L 1014.59 938.29 L 1015.06 936.00 L 1015.56 933.70 L 1016.06 931.41 L 1016.54 929.13 L 1016.99 926.85 L 1017.36 924.57 L 1017.76 922.28 L 1018.15 919.99 L 1018.54 917.72 L 1018.93 915.47 L 1019.32 913.20 L 1019.72 910.99 L 1020.09 908.77 L 1020.45 906.57 L 1020.76 904.37 L 1021.01 902.20 L 1021.27 900.03 L 1021.56 897.86 L 1021.87 895.71 L 1022.18 893.57 L 1022.44 891.40 L 1022.70 889.21" stroke="rgb(205,165,255)" stroke-opacity="0.483" stroke-width="1.16" />
  <path d="M 996.36 995.75 L 995.70 992.43 L 995.11 989.12 L 994.51 985.82 L 993.97 982.53 L 993.43 979.25 L 992.89 975.98 L 992.35 972.73 L 991.82 969.48 L 991.36 966.24 L 990.90 963.02 L 990.45 959.80 L 989.93 956.61 L 989.45 953.42 L 989.00 950.24 L 988.56 947.08 L 988.14 943.92 L 987.72 940.78 L 987.31 937.65 L 986.90 934.53 L 986.47 931.43 L 986.04 928.34 L 985.62 925.27 L 985.18 922.21 L 984.75 919.15 L 984.32 916.12 L 983.88 913.09 L 983.44 910.09 L 983.00 907.09 L 982.54 904.10 L 982.13 901.12 L 981.69 898.16 L 981.25 895.21 L 980.77 892.27 L 980.30 889.35 L 979.84 886.44 L 979.40 883.53 L 978.96 880.64 L 978.53 877.77 L 978.07 874.90 L 977.56 872.06 L 977.06 869.22 L 976.51 866.40 L 976.00 863.59 L 975.47 860.80 L 974.95 858.01 L 974.41 855.24 L 973.84 852.49 L 973.29 849.75 L 972.73 847.02 L 972.18 844.30 L 971.64 841.58 L 971.09 838.89" stroke="rgb(140,255,190)" stroke-opacity="0.727" stroke-width="1.16" />
  <path d="M 1000.53 997.82 L 999.66 994.56 L 998.78 991.31 L 997.87 988.09 L 996.96 984.88 L 996.08 981.67 L 995.19 978.48 L 994.34 975.30 L 993.50 972.13 L 992.66 968.98 L 991.91 965.82 L 991.17 962.67 L 990.41 959.54 L 989.66 956.42 L 988.98 953.30 L 988.27 950.20 L 987.56 947.12 L 986.86 944.04 L 986.20 940.97 L 985.55 937.91 L 984.89 934.86 L 984.22 931.83 L 983.58 928.80 L 982.92 925.78 L 982.27 922.78 L 981.58 919.80 L 980.87 916.84 L 980.21 913.87 L 979.54 910.92 L 978.86 907.99 L 978.17 905.07 L 977.46 902.16 L 976.75 899.27 L 976.05 896.39 L 975.32 893.52 L 974.60 890.67 L 973.90 887.82 L 973.18 884.99 L 972.46 882.17 L 971.76 879.36 L 971.08 876.55 L 970.38 873.76 L 969.69 870.98 L 969.06 868.20 L 968.39 865.44 L 967.74 862.69 L 967.11 859.94 L 966.47 857.21 L 965.81 854.49 L 965.16 851.78 L 964.53 849.07 L 963.87 846.39 L 963.21 843.72 L 962.56 841.05 L 961.92 838.40 L 961.24 835.76 L 960.57 833.14 L 959.88 830.53" stroke="rgb(140,255,190)" stroke-opacity="0.726" stroke-width="1.16" />
  <path d="M 970.08 927.78 L 969.82 924.90 L 969.64 922.03 L 969.46 919.17 L 969.23 916.33 L 968.92 913.51 L 968.55 910.70 L 968.20 907.91 L 967.87 905.12 L 967.54 902.35 L 967.22 899.59 L 966.91 896.84 L 966.49 894.11 L 966.07 891.39 L 965.67 888.68 L 965.25 885.99 L 964.79 883.31 L 964.32 880.65 L 963.86 877.99 L 963.29 875.38 L 962.67 872.80 L 962.06 870.22 L 961.44 867.66 L 960.80 865.11 L 960.17 862.57 L 959.54 860.04 L 958.93 857.52 L 958.39 855.02 L 957.96 852.53 L 957.59 850.05 L 957.20 847.60 L 956.80 845.15 L 956.40 842.71 L 955.99 840.28 L 955.62 837.87 L 955.27 835.46 L 954.94 833.05 L 954.66 830.61 L 954.39 828.18" stroke="rgb(205,165,255)" stroke-opacity="0.481" stroke-width="1.15" />
  <path d="M 999.30 996.68 L 998.39 993.58 L 997.58 990.46 L 996.75 987.36 L 995.97 984.26 L 995.21 981.17 L 994.46 978.09 L 993.71 975.01 L 992.98 971.95 L 992.26 968.90 L 991.55 965.86 L 990.83 962.83 L 990.11 959.82 L 989.37 956.82 L 988.66 953.84 L 987.95 950.86 L 987.20 947.92 L 986.44 944.98 L 985.71 942.05 L 984.98 939.14 L 984.20 936.25 L 983.36 933.39 L 982.52 930.55 L 981.78 927.68 L 981.06 924.83 L 980.36 921.97 L 979.72 919.12 L 979.13 916.26 L 978.58 913.41 L 977.98 910.58 L 977.39 907.76 L 976.78 904.95 L 976.24 902.15 L 975.74 899.34 L 975.24 896.55 L 974.74 893.77 L 974.25 891.01 L 973.76 888.25 L 973.25 885.51 L 972.74 882.78 L 972.26 880.06 L 971.76 877.36 L 971.26 874.66 L 970.76 871.97 L 970.26 869.30 L 969.78 866.63 L 969.29 863.97 L 968.79 861.33 L 968.28 858.70 L 967.78 856.08" stroke="rgb(140,255,190)" stroke-opacity="0.723" stroke-width="1.15" />
  <path d="M 1002.69 1002.62 L 1002.71 1004.29 L 1002.72 1005.95 L 1002.70 1007.59 L 1002.79 1009.27 L 1002.91 1010.95 L 1003.06 1012.63 L 1003.21 1014.34 L 1003.36 1016.04 L 1003.47 1017.72 L 1003.62 1019.40 L 1003.85 1021.10 L 1004.07 1022.82 L 1004.29 1024.54 L 1004.56 1026.30 L 1004.74 1028.03 L 1004.97 1029.77 L 1005.19 1031.50 L 1005.39 1033.21 L 1005.59 1034.94 L 1005.81 1036.67 L 1005.93 1038.39 L 1006.04 1040.11 L 1006.13 1041.81 L 1006.28 1043.50 L 1006.38 1045.11 L 1006.52 1046.68 L 1006.65 1048.24 L 1006.77 1049.79 L 1006.97 1051.44 L 1007.18 1053.07 L 1007.40 1054.72" stroke="rgb(140,255,190)" stroke-opacity="0.723" stroke-width="1.15" />
  <path d="M 965.81 1011.40 L 965.93 1013.34 L 966.07 1015.25 L 966.20 1017.17 L 966.31 1019.06 L 966.44 1020.94 L 966.54 1022.80 L 966.60 1024.62 L 966.67 1026.44 L 966.72 1028.26 L 966.78 1030.03 L 966.90 1031.79 L 967.04 1033.52 L 967.13 1035.26 L 967.22 1037.03 L 967.37 1038.73 L 967.58 1040.40 L 967.77 1042.04 L 967.93 1043.69 L 968.09 1045.34 L 968.25 1046.97 L 968.46 1048.58 L 968.66 1050.25 L 968.88 1051.92 L 969.11 1053.57 L 969.33 1055.22 L 969.49 1056.88 L 969.66 1058.52 L 969.89 1060.11 L 970.14 1061.67 L 970.38 1063.19 L 970.63 1064.67 L 970.91 1066.16 L 971.20 1067.70 L 971.51 1069.28 L 971.89 1070.79 L 972.22 1072.35 L 972.52 1073.84 L 972.84 1075.33 L 973.11 1076.93 L 973.37 1078.55 L 973.60 1080.19 L 973.85 1081.81 L 974.07 1083.38 L 974.30 1084.95 L 974.54 1086.53 L 974.79 1088.12 L 975.07 1089.70 L 975.46 1091.29 L 975.87 1092.79" stroke="rgb(140,255,190)" stroke-opacity="0.722" stroke-width="1.15" />
  <path d="M 997.37 996.10 L 996.24 993.46 L 995.12 990.83 L 994.04 988.19 L 992.92 985.58 L 991.84 982.94 L 990.75 980.33 L 989.62 977.74 L 988.63 975.11 L 987.64 972.49 L 986.69 969.88 L 985.72 967.30 L 984.75 964.73 L 983.68 962.23 L 982.70 959.71 L 981.73 957.20 L 980.74 954.70 L 979.76 952.21 L 978.78 949.74 L 977.83 947.25 L 976.83 944.77 L 975.89 942.31 L 974.96 939.85 L 974.00 937.42 L 973.02 934.98 L 972.03 932.58 L 971.06 930.18 L 970.08 927.78 L 969.08 925.41 L 968.08 923.07 L 967.09 920.73 L 966.09 918.41 L 965.10 916.09 L 964.07 913.80 L 963.05 911.52 L 962.05 909.26 L 961.09 906.98 L 960.13 904.72 L 959.12 902.49 L 958.10 900.26 L 957.09 898.04" stroke="rgb(205,165,255)" stroke-opacity="0.480" stroke-width="1.15" />
  <path d="M 1001.37 998.78 L 1000.65 995.61 L 999.95 992.45 L 999.32 989.28 L 998.70 986.13 L 998.06 982.99 L 997.43 979.87 L 996.87 976.75 L 996.34 973.64 L 995.79 970.55 L 995.23 967.45 L 994.68 964.38 L 994.10 961.32 L 993.55 958.28 L 992.98 955.25 L 992.46 952.22 L 991.93 949.22 L 991.45 946.21 L 990.98 943.23 L 990.50 940.25 L 989.96 937.30 L 989.46 934.35 L 988.96 931.41 L 988.49 928.48 L 987.97 925.57 L 987.49 922.67 L 987.09 919.78 L 986.69 916.90 L 986.27 914.04 L 985.84 911.19 L 985.40 908.35 L 984.96 905.52 L 984.49 902.70 L 984.04 899.90 L 983.60 897.12 L 983.14 894.34 L 982.66 891.57 L 982.23 888.80 L 981.78 886.05 L 981.33 883.31" stroke="rgb(140,255,190)" stroke-opacity="0.722" stroke-width="1.15" />
  <path d="M 1000.90 1000.81 L 1000.18 998.49 L 999.47 996.17 L 998.72 993.87 L 997.95 991.60 L 997.13 989.35 L 996.28 987.13 L 995.44 984.93 L 994.49 982.81 L 993.63 980.68 L 992.71 978.57 L 991.77 976.48 L 990.84 974.39 L 989.91 972.32 L 988.98 970.24 L 988.07 968.17" stroke="rgb(140,255,190)" stroke-opacity="0.541" stroke-width="1.15" />
  <path d="M 1000.26 998.76 L 999.43 995.60 L 998.60 992.45 L 997.79 989.30 L 996.99 986.17 L 996.21 983.05 L 995.42 979.94 L 994.66 976.84 L 993.90 973.76 L 993.09 970.70 L 992.30 967.65 L 991.51 964.61 L 990.75 961.58 L 990.07 958.54 L 989.39 955.51 L 988.71 952.50 L 988.04 949.50 L 987.36 946.51 L 986.68 943.54 L 986.01 940.58 L 985.35 937.62 L 984.69 934.68 L 984.02 931.75 L 983.36 928.83 L 982.76 925.92 L 982.17 923.01 L 981.58 920.11 L 981.03 917.22 L 980.45 914.35 L 979.88 911.49 L 979.29 908.65 L 978.67 905.83 L 978.05 903.02 L 977.44 900.21 L 976.83 897.42 L 976.23 894.64 L 975.63 891.86 L 975.04 889.10 L 974.46 886.35 L 973.87 883.61 L 973.32 880.87 L 972.78 878.14 L 972.26 875.42 L 971.73 872.71 L 971.21 870.01 L 970.71 867.32" stroke="rgb(140,255,190)" stroke-opacity="0.721" stroke-width="1.15" />
  <path d="M 975.48 905.83 L 975.30 902.64 L 975.16 899.46 L 975.06 896.31 L 974.94 893.19 L 974.85 890.07 L 974.75 886.96 L 974.59 883.87 L 974.42 880.80 L 974.32 877.74 L 974.23 874.69 L 974.20 871.66 L 974.15 868.61 L 974.13 865.56 L 974.12 862.51 L 974.17 859.47 L 974.30 856.44 L 974.48 853.42 L 974.75 850.41 L 975.02 847.42 L 975.30 844.45 L 975.50 841.46 L 975.70 838.48 L 975.85 835.49 L 976.03 832.53 L 976.16 829.56 L 976.29 826.61 L 976.36 823.67 L 976.43 820.72 L 976.49 817.79 L 976.56 814.87 L 976.67 811.96 L 976.70 809.06 L 976.73 806.18 L 976.76 803.30 L 976.73 800.45 L 976.71 797.61 L 976.74 794.78 L 976.76 791.97 L 976.85 789.17 L 977.00 786.40 L 977.18 783.64 L 977.35 780.88 L 977.48 778.14 L 977.56 775.41 L 977.74 772.70 L 977.91 770.01 L 978.08 767.32 L 978.25 764.63" stroke="rgb(140,255,190)" stroke-opacity="0.720" stroke-width="1.14" />
  <path d="M 998.54 1002.21 L 997.51 999.12 L 996.48 996.05 L 995.46 992.98 L 994.45 989.93 L 993.44 986.89 L 992.44 983.87 L 991.44 980.85 L 990.43 977.86 L 989.40 974.88 L 988.43 971.91 L 987.44 968.96 L 986.48 966.00 L 985.53 963.06 L 984.60 960.13 L 983.69 957.21 L 982.80 954.29 L 981.91 951.39 L 981.07 948.49 L 980.24 945.61 L 979.45 942.72 L 978.69 939.84 L 977.91 936.97 L 977.14 934.11 L 976.38 931.26 L 975.59 928.44 L 974.88 925.61 L 974.15 922.79 L 973.46 919.98 L 972.73 917.19 L 971.99 914.41 L 971.20 911.65 L 970.39 908.91 L 969.60 906.17 L 968.85 903.43 L 968.11 900.70 L 967.38 897.98 L 966.69 895.25 L 966.00 892.53 L 965.28 889.84 L 964.61 887.15 L 963.95 884.46 L 963.28 881.80 L 962.62 879.15 L 961.96 876.51 L 961.29 873.89 L 960.62 871.27 L 959.96 868.67 L 959.31 866.07 L 958.65 863.49 L 958.02 860.92 L 957.39 858.36 L 956.76 855.80 L 956.14 853.26 L 955.50 850.73 L 954.87 848.20 L 954.25 845.68 L 953.64 843.18 L 953.01 840.69 L 952.30 838.23 L 951.61 835.78 L 950.90 833.35 L 950.21 830.92 L 949.52 828.49 L 948.82 826.09 L 948.14 823.68 L 947.44 821.29 L 946.77 818.90" stroke="rgb(140,255,190)" stroke-opacity="0.720" stroke-width="1.14" />
  <path d="M 1009.72 961.59 L 1008.29 959.56 L 1006.83 957.59 L 1005.38 955.64 L 1003.93 953.71 L 1002.64 951.71 L 1001.26 949.75 L 999.87 947.81 L 998.48 945.91 L 997.12 944.02 L 995.82 942.10 L 994.51 940.18 L 993.20 938.28 L 991.90 936.39 L 990.51 934.56" stroke="rgb(205,165,255)" stroke-opacity="0.478" stroke-width="1.14" />
  <path d="M 999.20 1000.56 L 998.38 997.55 L 997.58 994.55 L 996.75 991.57 L 995.91 988.60 L 995.04 985.66 L 994.26 982.70 L 993.47 979.76 L 992.69 976.83 L 991.87 973.92 L 991.02 971.03 L 990.14 968.16 L 989.27 965.31" stroke="rgb(140,255,190)" stroke-opacity="0.717" stroke-width="1.14" />
  <path d="M 978.86 907.99 L 978.80 904.97 L 978.72 901.96 L 978.64 898.97 L 978.54 896.00 L 978.41 893.04 L 978.28 890.08 L 978.11 887.15 L 977.92 884.23 L 977.72 881.31 L 977.49 878.40 L 977.26 875.52 L 977.03 872.64 L 976.86 869.77 L 976.64 866.92 L 976.43 864.08 L 976.23 861.24 L 976.01 858.41 L 975.79 855.60 L 975.59 852.80 L 975.37 850.01 L 975.15 847.22 L 974.86 844.45 L 974.62 841.67 L 974.43 838.90 L 974.24 836.15 L 974.05 833.41 L 973.90 830.68 L 973.77 827.96 L 973.71 825.24 L 973.62 822.53 L 973.53 819.82 L 973.43 817.12 L 973.33 814.44 L 973.22 811.77 L 973.11 809.11 L 972.98 806.46 L 972.86 803.81 L 972.74 801.17 L 972.61 798.54 L 972.45 795.92 L 972.28 793.32 L 972.15 790.72 L 972.06 788.13 L 971.99 785.55 L 972.03 782.99 L 972.08 780.44 L 972.14 777.89 L 972.21 775.35 L 972.26 772.82 L 972.32 770.29 L 972.35 767.78 L 972.26 765.27 L 972.18 762.78 L 972.04 760.30 L 971.89 757.84 L 971.84 755.39 L 971.78 752.96 L 971.69 750.52 L 971.57 748.10 L 971.43 745.68 L 971.32 743.26 L 971.22 740.86 L 971.08 738.46 L 970.96 736.07 L 970.83 733.69 L 970.65 731.32 L 970.45 728.97 L 970.23 726.63 L 970.02 724.29 L 969.79 721.97 L 969.56 719.66 L 969.39 717.35 L 969.13 715.07 L 968.87 712.79 L 968.65 710.52 L 968.41 708.27 L 968.16 706.03 L 967.91 703.79 L 967.67 701.56 L 967.47 699.33 L 967.26 697.12 L 967.04 694.91" stroke="rgb(140,255,190)" stroke-opacity="0.536" stroke-width="1.13" />
  <path d="M 999.39 1000.99 L 1000.22 998.48 L 1001.11 995.99 L 1002.06 993.55 L 1003.07 991.13 L 1004.02 988.69 L 1005.01 986.28 L 1005.95 983.86 L 1006.90 981.46 L 1007.82 979.05 L 1008.74 976.65 L 1009.65 974.27 L 1010.67 971.94 L 1011.75 969.66 L 1012.77 967.37 L 1013.80 965.11 L 1014.82 962.85 L 1015.97 960.70 L 1017.12 958.56 L 1018.26 956.43 L 1019.42 954.34 L 1020.56 952.27 L 1021.76 950.20 L 1022.95 948.14 L 1024.12 946.09 L 1025.28 944.04 L 1026.43 942.00 L 1027.60 939.98 L 1028.78 937.99 L 1029.96 936.02 L 1031.11 934.03 L 1032.28 932.06" stroke="rgb(205,165,255)" stroke-opacity="0.473" stroke-width="1.12" />
  <path d="M 1011.10 954.37 L 1012.46 953.19 L 1013.76 951.92 L 1015.02 950.59 L 1016.31 949.25 L 1017.55 947.89 L 1018.78 946.54 L 1020.04 945.16 L 1021.30 943.79 L 1022.59 942.46 L 1023.96 941.14 L 1025.32 939.89 L 1026.71 938.66 L 1028.04 937.39 L 1029.45 936.15 L 1030.85 934.86 L 1032.26 933.62 L 1033.70 932.35 L 1035.13 931.09 L 1036.57 929.84 L 1038.01 928.59 L 1039.38 927.35 L 1040.82 926.18 L 1042.24 924.93 L 1043.65 923.60 L 1044.94 922.23 L 1046.33 920.93 L 1047.62 919.59 L 1048.88 918.26 L 1050.11 916.91 L 1051.34 915.56 L 1052.53 914.20 L 1053.68 912.84 L 1054.79 911.43 L 1055.90 910.07" stroke="rgb(205,165,255)" stroke-opacity="0.473" stroke-width="1.12" />
  <path d="M 1001.97 999.61 L 1001.16 996.56 L 1000.35 993.53 L 999.57 990.51 L 998.82 987.49 L 998.08 984.48 L 997.31 981.49 L 996.55 978.51 L 995.81 975.54 L 995.04 972.59 L 994.29 969.64 L 993.48 966.73 L 992.65 963.83 L 991.82 960.95 L 990.99 958.07 L 990.19 955.21 L 989.40 952.35 L 988.61 949.50 L 987.83 946.67 L 987.04 943.84 L 986.27 941.03 L 985.48 938.23 L 984.70 935.44 L 983.94 932.66 L 983.17 929.90 L 982.34 927.18 L 981.49 924.47 L 980.65 921.76 L 979.82 919.07 L 978.94 916.40 L 978.06 913.75 L 977.22 911.09 L 976.35 908.45 L 975.48 905.83 L 974.66 903.20 L 973.83 900.59 L 973.02 897.98 L 972.21 895.39 L 971.42 892.81 L 970.57 890.25 L 969.73 887.71 L 968.85 885.19 L 967.96 882.68 L 967.11 880.17 L 966.27 877.66 L 965.44 875.16 L 964.60 872.68 L 963.76 870.21 L 962.92 867.75 L 962.11 865.30" stroke="rgb(140,255,190)" stroke-opacity="0.711" stroke-width="1.12" />
  <path d="M 956.56 871.90 L 956.05 869.78 L 955.56 867.74 L 955.08 865.72 L 954.63 863.73 L 954.16 861.76 L 953.63 859.82 L 953.10 857.90 L 952.58 855.97 L 952.06 854.01 L 951.57 852.17 L 951.03 850.38 L 950.40 848.52 L 949.63 846.70 L 948.80 844.92 L 948.04 843.14 L 947.26 841.37 L 946.63 839.59 L 946.00 837.81 L 945.47 836.02 L 944.93 834.24 L 944.41 832.48 L 943.77 830.85 L 943.13 829.23 L 942.43 827.61 L 941.63 826.06 L 940.81 824.43 L 939.99 822.79 L 939.20 821.16 L 938.40 819.54 L 937.55 817.94 L 936.74 816.34 L 935.91 814.75 L 935.12 813.17 L 934.32 811.60 L 933.54 810.05 L 932.88 808.51 L 932.28 807.04 L 931.74 805.51 L 931.24 804.03 L 930.71 802.63 L 930.26 801.24 L 929.73 799.89 L 929.36 798.61 L 928.96 797.34 L 928.48 796.11 L 928.05 794.82 L 927.62 793.52 L 927.20 792.21 L 926.85 790.85 L 926.60 789.58 L 926.39 788.28 L 926.16 786.98 L 925.91 785.67 L 925.71 784.40 L 925.70 783.07 L 925.69 781.74 L 925.60 780.44 L 925.36 779.14 L 925.09 777.88 L 924.83 776.62 L 924.55 775.36 L 924.26 774.12 L 923.97 772.89 L 923.66 771.66 L 923.30 770.43 L 922.91 769.25 L 922.38 768.12 L 921.86 767.03 L 921.34 765.92 L 920.65 764.92 L 919.96 763.95 L 919.28 762.96 L 918.60 761.95 L 917.94 760.94 L 917.27 759.94 L 916.59 758.96 L 915.90 758.01 L 915.20 757.00 L 914.53 755.98 L 913.84 754.93 L 913.12 753.93 L 912.49 752.91" stroke="rgb(140,255,190)" stroke-opacity="0.533" stroke-width="1.12" />
  <path d="M 993.61 996.95 L 992.81 994.03 L 992.17 991.09 L 991.50 988.17 L 990.87 985.25 L 990.24 982.34 L 989.63 979.44 L 989.02 976.55 L 988.30 973.70 L 987.62 970.85 L 986.93 968.01 L 986.32 965.17 L 985.72 962.34 L 985.13 959.52 L 984.61 956.70" stroke="rgb(140,255,190)" stroke-opacity="0.532" stroke-width="1.12" />
  <path d="M 925.09 777.88 L 924.57 774.95 L 923.95 772.04 L 923.40 769.11 L 922.93 766.19 L 922.48 763.31 L 922.07 760.45 L 921.68 757.60 L 921.37 754.77 L 921.08 751.94 L 920.77 749.14 L 920.40 746.40 L 920.10 743.66 L 919.84 740.94 L 919.58 738.21 L 919.31 735.50 L 919.03 732.82 L 918.67 730.14 L 918.36 727.46 L 917.99 724.82 L 917.61 722.14 L 917.23 719.50 L 916.69 716.93 L 916.16 714.35 L 915.64 711.80 L 915.09 709.27 L 914.56 706.72 L 914.10 704.20 L 913.71 701.72 L 913.31 699.23 L 912.90 696.76 L 912.48 694.30 L 911.86 691.85 L 911.27 689.36 L 910.71 686.90 L 910.23 684.39 L 909.93 681.89 L 909.72 679.41 L 909.52 676.97 L 909.37 674.54 L 909.29 672.11 L 909.23 669.63 L 909.22 667.15 L 909.19 664.66 L 909.01 662.21 L 908.72 659.78 L 908.49 657.36 L 908.27 654.95 L 908.04 652.55 L 907.71 650.16" stroke="rgb(140,255,190)" stroke-opacity="0.532" stroke-width="1.12" />
  <path d="M 885.88 1056.94 L 885.23 1057.63 L 884.59 1058.32 L 884.06 1059.06 L 883.52 1059.79 L 883.04 1060.50 L 882.53 1061.36 L 882.04 1062.21 L 881.71 1063.22 L 881.37 1064.21 L 881.01 1065.21 L 880.69 1066.32 L 880.39 1067.43 L 880.16 1068.58 L 879.94 1069.76" stroke="rgb(140,255,190)" stroke-opacity="0.532" stroke-width="1.12" />
  <path d="M 999.97 999.13 L 999.15 996.25 L 998.35 993.38 L 997.54 990.53 L 996.76 987.68 L 995.99 984.84 L 995.24 982.00 L 994.54 979.17 L 993.87 976.34 L 993.20 973.52 L 992.57 970.70 L 991.94 967.90 L 991.31 965.11 L 990.70 962.32 L 990.19 959.53 L 989.65 956.75 L 989.14 953.98 L 988.67 951.22 L 988.19 948.46 L 987.73 945.72 L 987.28 942.98 L 986.81 940.26 L 986.34 937.56 L 985.88 934.86 L 985.49 932.16 L 985.08 929.47 L 984.63 926.81" stroke="rgb(140,255,190)" stroke-opacity="0.531" stroke-width="1.11" />
  <path d="M 1010.18 959.18 L 1009.90 956.81 L 1009.63 954.46 L 1009.34 952.13 L 1009.06 949.82 L 1008.66 947.57 L 1008.26 945.37 L 1007.80 943.13 L 1007.46 940.95 L 1007.15 938.73 L 1006.87 936.52 L 1006.60 934.36 L 1006.34 932.19 L 1006.12 930.04 L 1006.00 928.01 L 1005.70 926.07 L 1005.39 924.16 L 1005.09 922.21 L 1004.79 920.23 L 1004.40 918.23 L 1003.93 916.27 L 1003.45 914.30 L 1002.97 912.33 L 1002.46 910.46 L 1001.96 908.58 L 1001.47 906.68 L 1001.02 904.75 L 1000.61 902.79 L 1000.08 900.88 L 999.58 898.90 L 999.04 896.92 L 998.56 894.94 L 998.16 892.93 L 997.66 890.96 L 997.17 888.96 L 996.67 886.97 L 996.15 885.02 L 995.60 883.07 L 995.09 881.13 L 994.40 879.27 L 993.77 877.39 L 993.15 875.53 L 992.53 873.66 L 991.87 871.83 L 991.22 870.01 L 990.60 868.20 L 989.98 866.37 L 989.32 864.56 L 988.69 862.72 L 988.05 860.90 L 987.42 859.10 L 986.77 857.30 L 986.22 855.48 L 985.68 853.67 L 985.08 851.92 L 984.45 850.21 L 983.79 848.49 L 983.13 846.78 L 982.53 845.06 L 981.90 843.36 L 981.31 841.64" stroke="rgb(205,165,255)" stroke-opacity="0.469" stroke-width="1.11" />
  <path d="M 1002.56 1000.85 L 1001.73 997.95 L 1000.89 995.07 L 1000.01 992.21 L 999.28 989.33 L 998.54 986.45 L 997.82 983.59 L 997.10 980.73 L 996.44 977.88 L 995.71 975.06 L 994.99 972.24 L 994.30 969.43 L 993.62 966.63 L 992.96 963.83 L 992.28 961.06 L 991.58 958.30 L 990.90 955.55 L 990.18 952.82" stroke="rgb(140,255,190)" stroke-opacity="0.530" stroke-width="1.11" />
  <path d="M 998.69 1004.82 L 998.08 1001.95 L 997.51 999.09 L 997.15 996.20 L 996.77 993.33 L 996.45 990.47 L 996.01 987.63 L 995.51 984.81 L 994.97 982.01 L 994.47 979.22 L 993.99 976.43 L 993.61 973.64 L 993.22 970.86 L 992.92 968.08 L 992.62 965.32 L 992.31 962.56 L 992.01 959.82 L 991.73 957.08 L 991.44 954.36 L 991.20 951.64 L 990.96 948.94 L 990.70 946.25 L 990.45 943.56 L 990.17 940.89 L 989.89 938.24 L 989.60 935.59 L 989.33 932.95 L 989.09 930.33 L 988.92 927.70 L 988.77 925.09 L 988.62 922.48 L 988.47 919.89 L 988.34 917.30 L 988.18 914.73 L 988.04 912.17 L 987.84 909.61 L 987.63 907.08 L 987.42 904.55 L 987.15 902.04 L 986.74 899.55 L 986.31 897.08 L 985.87 894.63 L 985.43 892.18 L 984.98 889.75 L 984.60 887.31 L 984.25 884.88 L 983.90 882.47 L 983.54 880.06 L 983.18 877.66 L 982.75 875.29 L 982.26 872.93 L 981.77 870.59 L 981.27 868.26 L 980.83 865.93" stroke="rgb(140,255,190)" stroke-opacity="0.529" stroke-width="1.11" />
  <path d="M 991.31 965.11 L 989.52 962.85 L 987.73 960.60 L 985.99 958.35 L 984.22 956.12 L 982.48 953.89 L 980.74 951.67 L 978.98 949.49 L 977.25 947.29 L 975.52 945.11 L 973.80 942.93 L 972.10 940.75 L 970.46 938.56 L 968.84 936.37 L 967.34 934.10 L 965.87 931.81 L 964.36 929.56 L 962.85 927.33 L 961.33 925.12 L 959.79 922.94 L 958.24 920.77 L 956.61 918.66 L 955.02 916.54 L 953.47 914.41 L 951.90 912.31 L 950.32 910.23 L 948.77 908.14 L 947.19 906.07 L 945.63 904.01 L 944.08 901.96 L 942.54 899.91 L 941.00 897.86 L 939.43 895.86 L 937.83 893.89 L 936.25 891.92 L 934.76 889.89 L 933.27 887.88 L 931.79 885.86 L 930.31 883.87 L 928.78 881.92 L 927.32 879.93 L 925.86 877.97 L 924.40 876.01 L 922.99 874.02 L 921.56 872.06" stroke="rgb(140,255,190)" stroke-opacity="0.529" stroke-width="1.11" />
  <path d="M 987.42 904.55 L 986.57 902.17 L 985.66 899.83 L 984.78 897.50 L 983.90 895.17 L 982.94 892.87 L 982.04 890.56 L 981.05 888.28 L 980.09 886.02 L 979.09 883.78 L 978.12 881.54 L 977.19 879.31 L 976.25 877.09" stroke="rgb(140,255,190)" stroke-opacity="0.528" stroke-width="1.10" />
  <path d="M 998.86 1000.83 L 998.27 998.27 L 997.71 995.72 L 997.23 993.17 L 996.76 990.62 L 996.32 988.08 L 995.81 985.56 L 995.31 983.06 L 994.81 980.56 L 994.27 978.07 L 993.79 975.59 L 993.30 973.11 L 992.76 970.65 L 992.33 968.19 L 992.04 965.71 L 991.74 963.24" stroke="rgb(140,255,190)" stroke-opacity="0.528" stroke-width="1.10" />
  <path d="M 1032.59 888.31 L 1033.98 886.09 L 1035.39 883.89 L 1036.74 881.69 L 1038.21 879.55 L 1039.66 877.40 L 1041.18 875.30 L 1042.72 873.27 L 1044.33 871.29 L 1045.92 869.30 L 1047.57 867.36 L 1049.18 865.42 L 1050.79 863.49 L 1052.43 861.59 L 1054.05 859.65" stroke="rgb(205,165,255)" stroke-opacity="0.466" stroke-width="1.10" />
  <path d="M 999.68 998.62 L 998.99 996.13 L 998.32 993.64 L 997.64 991.16 L 997.00 988.69 L 996.36 986.22 L 995.66 983.78 L 994.99 981.35 L 994.34 978.92 L 993.66 976.51 L 993.01 974.10 L 992.30 971.73 L 991.57 969.38 L 990.84 967.03 L 990.11 964.69 L 989.44 962.35 L 988.74 960.03 L 988.04 957.72 L 987.27 955.45 L 986.49 953.19 L 985.69 950.95 L 984.90 948.72 L 984.14 946.50 L 983.36 944.29 L 982.59 942.09 L 981.85 939.88 L 981.13 937.67 L 980.42 935.47 L 979.64 933.30 L 978.83 931.15 L 977.88 929.08 L 977.01 926.99 L 976.07 924.93 L 975.15 922.89" stroke="rgb(140,255,190)" stroke-opacity="0.526" stroke-width="1.10" />
  <path d="M 1004.28 1002.06 L 1003.39 999.50 L 1002.53 996.94 L 1001.74 994.37 L 1001.02 991.79 L 1000.39 989.20 L 999.65 986.64 L 998.93 984.11 L 998.25 981.58 L 997.57 979.05 L 996.89 976.53 L 996.14 974.04 L 995.41 971.56 L 994.68 969.09 L 994.01 966.62 L 993.35 964.15 L 992.68 961.70 L 992.05 959.25 L 991.43 956.81 L 990.82 954.38" stroke="rgb(140,255,190)" stroke-opacity="0.525" stroke-width="1.09" />
  <path d="M 945.47 836.02 L 944.82 834.24 L 944.28 832.46 L 943.73 830.69 L 943.19 828.98 L 942.66 827.27 L 942.12 825.58 L 941.72 823.91 L 941.37 822.34 L 941.04 820.76 L 940.73 819.20 L 940.47 817.63 L 940.17 816.06 L 939.85 814.50 L 939.53 812.88 L 939.18 811.29 L 938.82 809.68 L 938.55 808.02 L 938.29 806.38 L 938.20 804.71 L 938.12 803.04" stroke="rgb(140,255,190)" stroke-opacity="0.525" stroke-width="1.09" />
  <path d="M 1001.87 997.74 L 1001.84 995.72 L 1001.76 993.71 L 1001.59 991.66 L 1001.42 989.62 L 1001.28 987.58 L 1001.16 985.54 L 1001.03 983.49 L 1000.89 981.46 L 1000.71 979.42 L 1000.51 977.40 L 1000.41 975.40 L 1000.21 973.43 L 1000.03 971.50 L 999.83 969.61 L 999.63 967.73 L 999.37 965.85 L 999.09 963.98 L 998.73 962.16 L 998.31 960.31 L 997.90 958.48 L 997.55 956.58 L 997.24 954.73 L 996.92 952.90 L 996.54 951.06 L 996.17 949.34 L 995.80 947.63 L 995.41 945.95 L 995.03 944.32 L 994.56 942.69 L 994.03 941.06 L 993.55 939.45 L 993.13 937.82 L 992.78 936.17 L 992.41 934.57 L 992.08 933.07 L 991.73 931.55 L 991.38 930.03 L 991.02 928.52 L 990.59 927.05 L 990.14 925.59 L 989.74 924.10 L 989.33 922.63 L 988.94 921.15 L 988.62 919.66 L 988.37 918.13 L 988.13 916.61 L 987.90 915.08 L 987.64 913.56 L 987.36 912.06 L 987.01 910.58 L 986.61 909.13 L 986.26 907.70 L 985.93 906.28 L 985.60 904.87 L 985.26 903.46 L 984.95 902.06 L 984.69 900.60 L 984.48 899.17 L 984.32 897.77 L 984.16 896.39" stroke="rgb(205,165,255)" stroke-opacity="0.463" stroke-width="1.09" />
  <path d="M 952.64 1001.36 L 952.74 1001.65 L 952.97 1001.85 L 953.25 1002.09 L 953.51 1002.30 L 953.78 1002.53 L 954.05 1002.74 L 954.31 1002.94 L 954.56 1003.15 L 954.77 1003.31 L 954.95 1003.53 L 955.12 1003.78 L 955.13 1004.01 L 955.20 1004.42 L 955.16 1004.86 L 955.22 1005.20 L 955.28 1005.56 L 955.35 1005.98 L 955.42 1006.40 L 955.49 1006.84 L 955.65 1007.29 L 955.79 1007.81 L 955.95 1008.33 L 956.13 1008.77 L 956.28 1009.23 L 956.41 1009.61 L 956.52 1009.98 L 956.60 1010.36 L 956.78 1010.78 L 956.86 1011.20 L 956.99 1011.62 L 957.10 1012.03 L 957.21 1012.40 L 957.33 1012.78 L 957.44 1013.20 L 957.66 1013.62 L 957.85 1014.07 L 958.09 1014.54 L 958.37 1015.07 L 958.65 1015.60 L 958.97 1016.11 L 959.37 1016.65 L 959.76 1017.13 L 960.14 1017.58 L 960.53 1018.11 L 960.89 1018.63 L 961.25 1019.24 L 961.56 1019.84 L 961.93 1020.48 L 962.33 1021.07 L 962.74 1021.71 L 963.13 1022.34 L 963.51 1022.96 L 963.89 1023.58 L 964.15 1024.14 L 964.42 1024.66 L 964.70 1025.19 L 964.91 1025.71 L 965.09 1026.22" stroke="rgb(205,165,255)" stroke-opacity="0.459" stroke-width="1.07" />
  <path d="M 999.07 1001.89 L 998.41 999.62 L 997.59 997.42 L 996.77 995.21 L 996.07 992.96 L 995.34 990.75 L 994.60 988.53 L 993.85 986.33 L 993.17 984.12 L 992.46 981.92 L 991.78 979.72 L 991.09 977.54 L 990.46 975.34 L 989.82 973.16 L 989.19 970.99 L 988.63 968.82 L 988.16 966.62 L 987.74 964.42 L 987.31 962.23 L 986.93 960.03 L 986.56 957.84 L 986.14 955.68 L 985.76 953.53 L 985.32 951.40 L 984.91 949.27 L 984.46 947.18 L 984.00 945.10 L 983.59 943.03 L 983.16 940.97 L 982.74 938.90 L 982.31 936.84 L 981.76 934.85 L 981.21 932.86 L 980.67 930.89 L 980.20 928.90 L 979.77 926.91 L 979.31 924.96 L 978.85 923.04 L 978.39 921.13 L 977.92 919.24 L 977.40 917.33 L 976.90 915.41 L 976.44 913.50 L 975.98 911.59 L 975.57 909.68 L 975.09 907.78 L 974.73 905.86 L 974.26 903.97 L 973.83 902.08 L 973.36 900.21 L 972.86 898.33 L 972.33 896.46 L 971.83 894.57 L 971.30 892.71" stroke="rgb(205,165,255)" stroke-opacity="0.455" stroke-width="1.06" />
  <path d="M 1001.30 1000.63 L 999.39 999.71 L 997.55 998.75 L 995.68 997.78 L 993.75 996.87 L 991.83 995.94 L 989.95 994.97 L 988.07 994.01 L 986.17 993.15 L 984.29 992.35 L 982.41 991.55 L 980.46 990.87 L 978.51 990.19 L 976.55 989.50 L 974.60 988.82 L 972.74 988.02 L 970.91 987.20 L 969.03 986.44 L 967.16 985.69 L 965.27 985.00 L 963.40 984.31 L 961.52 983.63 L 959.64 982.93 L 957.81 982.16 L 955.99 981.43 L 954.17 980.68 L 952.36 979.94 L 950.62 979.03 L 948.89 978.13 L 947.17 977.22 L 945.45 976.32 L 943.74 975.42 L 942.04 974.55 L 940.37 973.65 L 938.84 972.61 L 937.34 971.55 L 935.84 970.53 L 934.36 969.46" stroke="rgb(205,165,255)" stroke-opacity="0.454" stroke-width="1.05" />
  <path d="M 978.39 921.13 L 977.41 919.20 L 976.38 917.31 L 975.15 915.57 L 973.87 913.88 L 972.47 912.31 L 971.04 910.77 L 969.58 909.26 L 968.11 907.78 L 966.66 906.28 L 965.31 904.70 L 964.01 903.08 L 962.68 901.51 L 961.35 899.94 L 959.95 898.45 L 958.71 896.82 L 957.60 895.11 L 956.49 893.42 L 955.37 891.73 L 954.24 890.07 L 953.14 888.40 L 952.05 886.73 L 950.99 885.06 L 949.93 883.40 L 948.96 881.68 L 947.99 879.97 L 947.01 878.27 L 946.03 876.59 L 945.05 874.92 L 944.13 873.22 L 943.21 871.53 L 942.25 869.88 L 941.30 868.23 L 940.32 866.60 L 939.34 864.98 L 938.37 863.36 L 937.50 861.70 L 936.56 860.08 L 935.60 858.48 L 934.66 856.88 L 933.70 855.30 L 932.80 853.69" stroke="rgb(205,165,255)" stroke-opacity="0.450" stroke-width="1.04" />
  <path d="M 1000.80 999.71 L 999.59 999.64 L 998.39 999.60 L 997.20 999.55 L 995.99 999.54 L 994.82 999.70 L 993.60 1000.00 L 992.36 1000.28 L 991.09 1000.54 L 989.74 1000.83 L 988.40 1001.09 L 987.07 1001.34 L 985.67 1001.59 L 984.29 1001.81 L 982.93 1001.95 L 981.56 1002.10 L 980.25 1002.32 L 978.94 1002.56 L 977.73 1002.71 L 976.52 1002.84 L 975.31 1002.91 L 974.13 1003.01 L 973.00 1003.10 L 971.89 1003.13 L 970.75 1003.13 L 969.63 1003.14 L 968.51 1003.10 L 967.45 1003.06 L 966.36 1003.08 L 965.24 1003.21 L 964.14 1003.22 L 963.03 1003.32 L 961.96 1003.35 L 960.91 1003.24 L 959.93 1003.11 L 959.00 1002.90 L 958.06 1002.69 L 957.15 1002.46 L 956.25 1002.26 L 955.36 1002.03 L 954.49 1001.85 L 953.58 1001.64 L 952.64 1001.36 L 951.71 1001.09 L 950.66 1000.85 L 949.59 1000.58 L 948.51 1000.25 L 947.46 999.96 L 946.40 999.68 L 945.30 999.43 L 944.19 999.23" stroke="rgb(205,165,255)" stroke-opacity="0.450" stroke-width="1.04" />
  <path d="M 1020.55 928.86 L 1020.11 926.90 L 1019.62 924.98 L 1019.12 922.99 L 1018.63 921.03 L 1018.23 919.05 L 1017.83 917.09 L 1017.47 915.07 L 1017.00 913.11 L 1016.55 911.14 L 1016.13 909.20 L 1015.74 907.28 L 1015.39 905.37 L 1015.24 903.46 L 1015.06 901.57 L 1014.85 899.69 L 1014.61 897.84 L 1014.09 895.99 L 1013.56 894.20 L 1012.91 892.51 L 1012.23 890.87 L 1011.54 889.22 L 1010.91 887.56 L 1010.25 885.96 L 1009.50 884.38 L 1008.89 882.71 L 1008.27 881.02 L 1007.65 879.35 L 1007.04 877.65 L 1006.44 875.97 L 1005.78 874.28 L 1005.06 872.69 L 1004.26 871.13 L 1003.53 869.55 L 1002.78 867.98" stroke="rgb(205,165,255)" stroke-opacity="0.450" stroke-width="1.04" />
  <path d="M 1003.61 1001.84 L 1002.40 1001.60 L 1001.19 1001.39" stroke="rgb(230,230,230)" stroke-opacity="0.386" stroke-width="0.71" />
  <path d="M 999.07 1001.26 L 997.92 1000.71 L 996.76 1000.21 L 995.63 999.77 L 994.56 999.27" stroke="rgb(230,230,230)" stroke-opacity="0.382" stroke-width="0.70" />
  <path d="M 996.03 1004.30 L 995.33 1004.22 L 994.91 1004.08 L 994.50 1003.94 L 994.10 1003.75 L 993.65 1003.33 L 993.24 1003.03 L 992.83 1002.74 L 992.40 1002.48 L 991.90 1002.27 L 991.40 1002.21 L 990.90 1002.17 L 990.36 1001.94 L 989.82 1001.81 L 989.20 1001.78 L 988.57 1001.74 L 988.08 1001.76 L 987.77 1001.93 L 987.39 1002.03 L 987.05 1002.15 L 986.70 1002.22 L 986.34 1002.31 L 985.99 1002.35 L 985.60 1002.39 L 985.19 1002.41" stroke="rgb(230,230,230)" stroke-opacity="0.381" stroke-width="0.70" />
  <path d="M 998.52 998.50 L 997.43 999.53 L 996.49 1000.66 L 995.67 1001.86 L 994.79 1003.02 L 993.99 1004.22 L 993.00 1005.30 L 992.02 1006.38 L 991.04 1007.46" stroke="rgb(230,230,230)" stroke-opacity="0.379" stroke-width="0.69" />
  <path d="M 998.58 994.47 L 999.36 993.37 L 1000.11 992.24 L 1000.85 991.10 L 1001.52 989.86 L 1002.20 988.64 L 1002.89 987.42 L 1003.52 986.17 L 1004.24 984.95 L 1004.95 983.73 L 1005.67 982.52 L 1006.28 981.25 L 1006.60 979.91 L 1007.08 978.58 L 1007.55 977.24 L 1008.12 975.95 L 1008.63 974.63 L 1009.18 973.34 L 1009.84 972.11" stroke="rgb(230,230,230)" stroke-opacity="0.379" stroke-width="0.69" />
  <path d="M 1004.36 1000.00 L 1003.15 999.43 L 1001.91 998.82 L 1000.68 998.23 L 999.46 997.66 L 998.25 997.04 L 997.05 996.35 L 995.86 995.61 L 994.66 994.89 L 993.49 994.17 L 992.34 993.45 L 991.15 992.78 L 989.99 992.18 L 988.88 991.58 L 987.85 990.93 L 986.84 990.30" stroke="rgb(230,230,230)" stroke-opacity="0.373" stroke-width="0.68" />
  <path d="M 995.10 1000.42 L 995.83 1000.63 L 996.56 1000.85 L 997.21 1001.12 L 997.89 1001.30 L 998.55 1001.50 L 999.24 1001.76 L 999.99 1001.95 L 1000.85 1002.21 L 1001.72 1002.46 L 1002.63 1002.69 L 1003.45 1003.11 L 1004.30 1003.50" stroke="rgb(230,230,230)" stroke-opacity="0.368" stroke-width="0.66" />
  <path d="M 999.01 993.72 L 998.11 992.54 L 997.15 991.43 L 996.19 990.32 L 995.23 989.27" stroke="rgb(230,230,230)" stroke-opacity="0.365" stroke-width="0.65" />
  <path d="M 994.32 1000.75 L 995.38 1000.43 L 996.54 1000.36 L 997.68 1000.38 L 998.84 1000.31 L 999.99 1000.21 L 1001.22 999.95 L 1002.47 999.71 L 1003.74 999.55" stroke="rgb(230,230,230)" stroke-opacity="0.365" stroke-width="0.65" />
  <path d="M 1001.80 996.02 L 1003.23 996.46 L 1004.67 996.83 L 1006.11 997.21 L 1007.49 997.68 L 1008.85 998.14 L 1010.23 998.52 L 1011.59 998.96 L 1012.92 999.35" stroke="rgb(230,230,230)" stroke-opacity="0.361" stroke-width="0.64" />
  <path d="M 1001.36 998.97 L 1001.44 1000.43 L 1001.52 1001.91 L 1001.72 1003.36 L 1001.86 1004.79 L 1001.85 1006.22 L 1001.84 1007.65 L 1001.60 1009.01 L 1001.19 1010.38 L 1000.96 1011.81 L 1000.75 1013.24 L 1000.61 1014.68 L 1000.47 1016.10 L 1000.28 1017.51 L 1000.38 1018.92 L 1000.43 1020.33" stroke="rgb(230,230,230)" stroke-opacity="0.357" stroke-width="0.63" />
  <path d="M 1002.17 1007.18 L 1001.98 1006.41 L 1001.79 1005.57 L 1001.68 1004.78 L 1001.64 1003.99 L 1001.64 1003.11 L 1001.57 1002.23 L 1001.62 1001.56" stroke="rgb(230,230,230)" stroke-opacity="0.357" stroke-width="0.63" />
  <path d="M 1000.79 996.93 L 1000.27 998.31 L 999.79 999.68 L 999.26 1001.04" stroke="rgb(230,230,230)" stroke-opacity="0.357" stroke-width="0.63" />
  <path d="M 1001.16 999.74 L 1001.16 998.37 L 1001.18 996.99" stroke="rgb(230,230,230)" stroke-opacity="0.355" stroke-width="0.63" />
  <path d="M 1002.97 996.64 L 1002.98 996.46 L 1003.00 996.29" stroke="rgb(230,230,230)" stroke-opacity="0.355" stroke-width="0.62" />
  <path d="M 995.26 997.21 L 994.52 997.58 L 993.76 997.96 L 993.07 998.34 L 992.44 998.80 L 991.85 999.28 L 991.36 999.86 L 990.88 1000.46 L 990.30 1000.98 L 989.76 1001.49 L 989.13 1002.10 L 988.48 1002.72 L 987.82 1003.34 L 987.17 1003.96 L 986.52 1004.57 L 985.87 1005.16 L 985.23 1005.75 L 984.52 1006.27 L 983.82 1006.80 L 983.11 1007.36" stroke="rgb(230,230,230)" stroke-opacity="0.354" stroke-width="0.62" />
  <path d="M 1001.28 996.32 L 1002.75 996.18 L 1004.17 995.98 L 1005.48 995.69 L 1006.79 995.36 L 1008.07 995.21 L 1009.38 994.84 L 1010.67 994.46 L 1011.90 994.02 L 1013.11 993.48 L 1014.41 993.20 L 1015.76 993.17 L 1017.11 993.17 L 1018.44 993.28 L 1019.82 993.44 L 1021.19 993.68 L 1022.53 993.85" stroke="rgb(230,230,230)" stroke-opacity="0.352" stroke-width="0.62" />
  <path d="M 1001.12 994.82 L 1001.57 995.23 L 1001.94 995.65 L 1002.33 995.89 L 1002.71 996.07" stroke="rgb(230,230,230)" stroke-opacity="0.351" stroke-width="0.61" />
</g>
</svg>
