<?xml version="1.0" encoding="UTF-8"?>
<svg xmlns="http://www.w3.org/2000/svg" width="2000" height="2000" viewBox="0 0 2000 2000">
<g fill="none" stroke-linecap="round" stroke-linejoin="round">
  <path d="M 999.52 999.33 L 996.59 997.84 L 993.67 996.37 L 990.77 994.90 L 987.85 993.49 L 984.93 992.09 L 982.04 990.67 L 979.14 989.31 L 976.25 987.95 L 973.33 986.68 L 970.42 985.43 L 967.51 984.23 L 964.60 983.05 L 961.69 981.89 L 958.81 980.68 L 955.93 979.54 L 953.05 978.41" stroke="rgb(120,210,255)" stroke-opacity="0.855" stroke-width="1.64" />
  <path d="M 1001.58 998.68 L 998.77 997.33 L 996.03 995.90 L 993.30 994.45 L 990.57 993.03 L 987.82 991.69 L 985.08 990.35 L 982.35 989.03 L 979.61 987.75 L 976.89 986.44 L 974.13 985.27 L 971.34 984.18 L 968.57 983.11 L 965.81 982.02 L 963.07 980.91 L 960.34 979.82 L 957.63 978.70 L 954.92 977.63 L 952.27 976.44 L 949.65 975.21 L 947.04 973.97 L 944.45 972.74 L 941.86 971.53 L 939.29 970.30 L 936.76 969.02 L 934.23 967.76 L 931.69 966.55 L 929.14 965.38 L 926.67 964.07 L 924.19 962.82 L 921.77 961.48 L 919.33 960.18 L 916.89 958.93 L 914.44 957.70 L 912.05 956.39 L 909.72 955.00 L 907.41 953.59 L 905.09 952.22" stroke="rgb(120,210,255)" stroke-opacity="0.854" stroke-width="1.64" />
  <path d="M 1000.67 1002.48 L 998.04 1000.64 L 995.45 998.78 L 992.92 996.86 L 990.41 994.92 L 987.91 993.00 L 985.38 991.14 L 982.86 989.29 L 980.35 987.45 L 977.83 985.64 L 975.27 983.91 L 972.76 982.13 L 970.28 980.33 L 967.81 978.53 L 965.41 976.66 L 963.06 974.75 L 960.71 972.86 L 958.35 970.99 L 956.04 969.09 L 953.73 967.21 L 951.43 965.33 L 949.15 963.46 L 946.88 961.57 L 944.64 959.68 L 942.38 957.83 L 940.16 955.95 L 937.97 954.05 L 935.76 952.19 L 933.56 950.34 L 931.36 948.50 L 929.11 946.75 L 926.87 945.01 L 924.61 943.31 L 922.32 941.66 L 920.08 939.97 L 917.88 938.25 L 915.70 936.52 L 913.51 934.82 L 911.31 933.14 L 909.12 931.47 L 906.96 929.80 L 904.81 928.11 L 902.67 926.43 L 900.53 924.77 L 898.43 923.09 L 896.30 921.45" stroke="rgb(120,210,255)" stroke-opacity="0.852" stroke-width="1.63" />
  <path d="M 996.33 1000.95 L 993.04 1000.00" stroke="rgb(120,210,255)" stroke-opacity="0.850" stroke-width="1.62" />
  <path d="M 798.99 932.12 L 796.08 931.57 L 793.20 930.92 L 790.32 930.36 L 787.47 929.72 L 784.63 929.07 L 781.80 928.42 L 778.99 927.73 L 776.17 927.20 L 773.36 926.59 L 770.57 926.01 L 767.78 925.47 L 764.98 925.04 L 762.19 924.63 L 759.43 924.06 L 756.69 923.53 L 753.95 922.99 L 751.24 922.40 L 748.56 921.73 L 745.87 921.10 L 743.20 920.48 L 740.55 919.81 L 737.92 919.13 L 735.31 918.40 L 732.78 917.46 L 730.28 916.45 L 727.80 915.45 L 725.35 914.39 L 722.94 913.28 L 720.52 912.20 L 718.09 911.19 L 715.65 910.23 L 713.20 909.31 L 710.73 908.50 L 708.28 907.64 L 705.85 906.77 L 703.42 905.91 L 700.98 905.13 L 698.54 904.40 L 696.10 903.69 L 693.67 902.97 L 691.22 902.35 L 688.80 901.69 L 686.40 900.99 L 684.02 900.26 L 681.63 899.57 L 679.25 898.92 L 676.85 898.37 L 674.45 897.86 L 672.08 897.29 L 669.71 896.71 L 667.37 896.12 L 665.02 895.53 L 662.69 894.95 L 660.36 894.42 L 658.04 893.85 L 655.72 893.35 L 653.41 892.86 L 651.10 892.37 L 648.83 891.81 L 646.56 891.22 L 644.33 890.58 L 642.12 889.86 L 639.89 889.27 L 637.68 888.63 L 635.45 888.11" stroke="rgb(120,210,255)" stroke-opacity="0.467" stroke-width="1.62" />
  <path d="M 864.11 955.84 L 861.38 954.58 L 858.64 953.36 L 855.92 952.12 L 853.19 950.93 L 850.48 949.72 L 847.78 948.53 L 845.08 947.37 L 842.42 946.14 L 839.77 944.91 L 837.18 943.58 L 834.60 942.27 L 832.08 940.87 L 829.57 939.48 L 827.00 938.23 L 824.46 936.94 L 821.89 935.73 L 819.39 934.42 L 816.90 933.10 L 814.41 931.82 L 811.89 930.61 L 809.38 929.42 L 806.89 928.21 L 804.42 926.98 L 802.00 925.67 L 799.59 924.38 L 797.17 923.13 L 794.69 922.01 L 792.21 920.94 L 789.74 919.86 L 787.26 918.84 L 784.79 917.83 L 782.37 916.71 L 779.96 915.61 L 777.55 914.54 L 775.18 913.40 L 772.85 912.20 L 770.54 910.99 L 768.24 909.78 L 765.91 908.67 L 763.62 907.48 L 761.40 906.19 L 759.19 904.91 L 756.99 903.62 L 754.77 902.40 L 752.61 901.09 L 750.43 899.83 L 748.26 898.57 L 746.14 897.27 L 743.99 896.02 L 741.86 894.75 L 739.83 893.36 L 737.81 891.95 L 735.87 890.47 L 734.04 888.86 L 732.20 887.28 L 730.34 885.73 L 728.37 884.35 L 726.37 883.03 L 724.33 881.78 L 722.27 880.59 L 720.26 879.34 L 718.25 878.11 L 716.28 876.83 L 714.37 875.47 L 712.48 874.10 L 710.59 872.76 L 708.66 871.48 L 706.79 870.14 L 704.90 868.84 L 703.06 867.48 L 701.20 866.16 L 699.28 864.97 L 697.35 863.79 L 695.42 862.65 L 693.47 861.53 L 691.52 860.45 L 689.60 859.33 L 687.70 858.20 L 685.80 857.09 L 683.90 855.99" stroke="rgb(120,210,255)" stroke-opacity="0.466" stroke-width="1.62" />
  <path d="M 998.28 1002.04 L 995.39 1000.51 L 992.54 998.95 L 989.73 997.33 L 986.95 995.71 L 984.19 994.05 L 981.44 992.42 L 978.69 990.81 L 975.95 989.20 L 973.23 987.59 L 970.55 985.94 L 967.84 984.36 L 965.12 982.82 L 962.39 981.33 L 959.67 979.84 L 956.99 978.31 L 954.34 976.75 L 951.70 975.20 L 949.08 973.65 L 946.46 972.10 L 943.86 970.56 L 941.28 969.00 L 938.76 967.36 L 936.25 965.75 L 933.72 964.17 L 931.21 962.60 L 928.67 961.10 L 926.11 959.63 L 923.58 958.17 L 921.04 956.72 L 918.53 955.26 L 916.03 953.80 L 913.56 952.31 L 911.11 950.80 L 908.65 949.35 L 906.19 947.91 L 903.71 946.53 L 901.25 945.15 L 898.79 943.77 L 896.36 942.37 L 893.94 940.99 L 891.53 939.60 L 889.14 938.19 L 886.75 936.82 L 884.32 935.54 L 881.91 934.23 L 879.51 932.93 L 877.15 931.61 L 874.77 930.32 L 872.41 929.02 L 870.06 927.73 L 867.73 926.42 L 865.41 925.12 L 863.09 923.83 L 860.80 922.52 L 858.51 921.22 L 856.26 919.89 L 854.02 918.54 L 851.78 917.22 L 849.57 915.89 L 847.39 914.50 L 845.25 913.09 L 843.10 911.70 L 841.01 910.25 L 838.94 908.78 L 836.86 907.35 L 834.84 905.85 L 832.85 904.32 L 830.85 902.83 L 828.86 901.34 L 826.87 899.87 L 824.87 898.42 L 822.85 897.03 L 820.81 895.67 L 818.81 894.29 L 816.80 892.93 L 814.77 891.61 L 812.77 890.28 L 810.76 888.97 L 808.77 887.65 L 806.75 886.39 L 804.74 885.14 L 802.73 883.89 L 800.72 882.69 L 798.70 881.49 L 796.68 880.34 L 794.65 879.19 L 792.62 878.09 L 790.59 877.01" stroke="rgb(120,210,255)" stroke-opacity="0.844" stroke-width="1.61" />
  <path d="M 997.30 999.64 L 994.03 998.49 L 990.77 997.32 L 987.51 996.21 L 984.25 995.17 L 981.01 994.09 L 977.76 993.10 L 974.52 992.10 L 971.30 991.11 L 968.08 990.13 L 964.87 989.19 L 961.68 988.24 L 958.50 987.29 L 955.33 986.34 L 952.20 985.33 L 949.07 984.33 L 945.96 983.35 L 942.87 982.33 L 939.80 981.29 L 936.75 980.23 L 933.71 979.18 L 930.69 978.11 L 927.70 977.02 L 924.70 975.98 L 921.70 974.95 L 918.72 973.95 L 915.73 972.97 L 912.77 971.98 L 909.81 971.02 L 906.86 970.07 L 903.93 969.08 L 901.01 968.12 L 898.11 967.14 L 895.22 966.14 L 892.35 965.14 L 889.49 964.16 L 886.64 963.17 L 883.80 962.20 L 880.95 961.28 L 878.11 960.40 L 875.28 959.50 L 872.47 958.60 L 869.66 957.69 L 866.88 956.77 L 864.11 955.84 L 861.37 954.88 L 858.62 953.96 L 855.90 953.01 L 853.18 952.08 L 850.49 951.10 L 847.81 950.12 L 845.14 949.18 L 842.48 948.21 L 839.84 947.22 L 837.24 946.18 L 834.62 945.19 L 832.02 944.22 L 829.42 943.24 L 826.84 942.27 L 824.29 941.25 L 821.72 940.28 L 819.17 939.32 L 816.62 938.38 L 814.08 937.46 L 811.54 936.55 L 809.03 935.61 L 806.51 934.70 L 804.01 933.80 L 801.50 932.93 L 798.99 932.12 L 796.49 931.28 L 793.99 930.50 L 791.49 929.78" stroke="rgb(120,210,255)" stroke-opacity="0.843" stroke-width="1.60" />
  <path d="M 995.68 1002.65 L 992.69 1001.23 L 989.70 999.85 L 986.69 998.54 L 983.72 997.18 L 980.77 995.81 L 977.82 994.47 L 974.87 993.15 L 971.94 991.81 L 969.01 990.52 L 966.11 989.18 L 963.20 987.91 L 960.32 986.59 L 957.46 985.27 L 954.63 983.92 L 951.82 982.55" stroke="rgb(120,210,255)" stroke-opacity="0.842" stroke-width="1.60" />
  <path d="M 1000.31 1003.21 L 997.29 1001.58 L 994.25 1000.03 L 991.20 998.51 L 988.15 997.03 L 985.13 995.53 L 982.13 994.01 L 979.14 992.51 L 976.17 990.98 L 973.23 989.44 L 970.32 987.87 L 967.40 986.33 L 964.49 984.81 L 961.59 983.32 L 958.69 981.83 L 955.80 980.36 L 952.95 978.84 L 950.10 977.35 L 947.26 975.87 L 944.45 974.36 L 941.65 972.85 L 938.84 971.39 L 936.05 969.94 L 933.24 968.52 L 930.45 967.11 L 927.68 965.69 L 924.94 964.22 L 922.19 962.83 L 919.45 961.43 L 916.70 960.07 L 913.98 958.67 L 911.27 957.29 L 908.58 955.91 L 905.88 954.56 L 903.19 953.21 L 900.53 951.84 L 897.89 950.46 L 895.24 949.12 L 892.62 947.76 L 890.01 946.39 L 887.40 945.06 L 884.78 943.76 L 882.17 942.47 L 879.58 941.18 L 877.00 939.88 L 874.45 938.55 L 871.91 937.23 L 869.36 935.94 L 866.83 934.65 L 864.32 933.34 L 861.82 932.05 L 859.30 930.81 L 856.79 929.58 L 854.28 928.37 L 851.80 927.13 L 849.33 925.90 L 846.86 924.69 L 844.40 923.47 L 841.95 922.28 L 839.50 921.09 L 837.08 919.88 L 834.67 918.67 L 832.26 917.49 L 829.83 916.38 L 827.39 915.29 L 824.97 914.21 L 822.55 913.16 L 820.14 912.10 L 817.75 911.01 L 815.36 909.96 L 812.98 908.91 L 810.62 907.84 L 808.26 906.79 L 805.91 905.75 L 803.58 904.70 L 801.24 903.68 L 798.88 902.74 L 796.55 901.76 L 794.23 900.77 L 791.93 899.77 L 789.65 898.76 L 787.36 897.78 L 785.07 896.83 L 782.79 895.89 L 780.51 894.96 L 778.24 894.05 L 775.98 893.13" stroke="rgb(120,210,255)" stroke-opacity="0.841" stroke-width="1.60" />
  <path d="M 999.54 1000.39 L 996.51 999.57 L 993.49 998.79 L 990.49 997.99 L 987.48 997.25 L 984.48 996.52 L 981.48 995.87 L 978.47 995.32 L 975.48 994.74 L 972.49 994.25 L 969.50 993.81 L 966.52 993.36 L 963.54 992.99 L 960.58 992.58 L 957.63 992.19 L 954.70 991.81 L 951.77 991.47 L 948.84 991.15 L 945.93 990.86 L 943.03 990.56 L 940.14 990.28 L 937.27 989.93 L 934.41 989.61 L 931.57 989.20 L 928.72 988.91 L 925.90 988.58 L 923.08 988.26 L 920.27 987.96 L 917.47 987.66 L 914.69 987.35 L 911.92 987.03 L 909.16 986.74 L 906.41 986.36 L 903.68 986.02 L 900.95 985.75 L 898.23 985.47 L 895.51 985.21" stroke="rgb(120,210,255)" stroke-opacity="0.840" stroke-width="1.59" />
  <path d="M 997.71 1002.62 L 994.93 1001.49 L 992.13 1000.42 L 989.35 999.36 L 986.56 998.35 L 983.74 997.45 L 980.96 996.47 L 978.21 995.46 L 975.44 994.52 L 972.66 993.66 L 969.86 992.90 L 967.09 992.10 L 964.34 991.24 L 961.61 990.37 L 958.95 989.34 L 956.33 988.25 L 953.75 987.09 L 951.15 985.99 L 948.55 984.93 L 945.99 983.81 L 943.47 982.62 L 940.97 981.43 L 938.49 980.21 L 936.01 979.01 L 933.55 977.81 L 931.07 976.66 L 928.62 975.48 L 926.17 974.34 L 923.71 973.22 L 921.29 972.06 L 918.87 970.91 L 916.45 969.80 L 914.04 968.69 L 911.63 967.62 L 909.23 966.53 L 906.88 965.36 L 904.53 964.23 L 902.17 963.12 L 899.87 961.92 L 897.58 960.73 L 895.33 959.50 L 893.04 958.35 L 890.73 957.28 L 888.43 956.20 L 886.15 955.10 L 883.89 954.00 L 881.65 952.85 L 879.42 951.74 L 877.24 950.53 L 875.03 949.40 L 872.85 948.24 L 870.68 947.08 L 868.53 945.92 L 866.39 944.74 L 864.27 943.54 L 862.13 942.42 L 859.98 941.33 L 857.81 940.30 L 855.61 939.35 L 853.47 938.31 L 851.35 937.26 L 849.24 936.19 L 847.15 935.10 L 845.08 934.01 L 843.01 932.93 L 840.96 931.83 L 838.92 930.73 L 836.89 929.63 L 834.85 928.57 L 832.86 927.45 L 830.89 926.30 L 828.93 925.16 L 827.00 923.97 L 825.11 922.75" stroke="rgb(120,210,255)" stroke-opacity="0.462" stroke-width="1.59" />
  <path d="M 1004.08 1001.72 L 1000.80 1000.65 L 997.54 999.53 L 994.31 998.41 L 991.10 997.24 L 987.89 996.13 L 984.68 995.06 L 981.51 993.92 L 978.34 992.79 L 975.20 991.65 L 972.09 990.46 L 968.98 989.31 L 965.86 988.23 L 962.76 987.12 L 959.68 985.99 L 956.62 984.85 L 953.57 983.72 L 950.54 982.58 L 947.53 981.43 L 944.52 980.29 L 941.52 979.18 L 938.52 978.12 L 935.54 977.01 L 932.58 975.91 L 929.64 974.78 L 926.70 973.67 L 923.78 972.56 L 920.90 971.39 L 918.03 970.23 L 915.16 969.10" stroke="rgb(120,210,255)" stroke-opacity="0.840" stroke-width="1.59" />
  <path d="M 1000.81 996.65 L 998.36 995.77 L 995.92 994.90 L 993.49 994.02 L 991.08 993.13 L 988.69 992.21 L 986.31 991.30 L 983.93 990.40 L 981.56 989.51 L 979.21 988.62 L 976.85 987.77 L 974.50 986.90 L 972.12 986.16 L 969.72 985.56 L 967.32 984.99 L 964.96 984.29 L 962.60 983.61 L 960.22 983.07 L 957.84 982.60 L 955.47 982.10 L 953.10 981.66 L 950.72 981.36 L 948.35 981.04 L 945.98 980.84 L 943.64 980.44 L 941.30 980.08 L 938.97 979.75 L 936.65 979.40 L 934.35 979.04 L 932.05 978.69 L 929.75 978.42 L 927.46 978.15 L 925.17 977.88 L 922.90 977.62 L 920.63 977.40 L 918.37 977.15 L 916.13 976.92 L 913.88 976.70 L 911.66 976.38 L 909.44 976.15 L 907.23 975.93 L 905.02 975.73 L 902.82 975.53 L 900.62 975.44 L 898.44 975.49 L 896.25 975.47 L 894.08 975.45 L 891.92 975.34 L 889.77 975.23 L 887.63 975.04 L 885.50 974.85 L 883.38 974.67 L 881.27 974.45 L 879.17 974.20 L 877.08 974.01 L 875.01 973.66 L 872.95 973.36 L 870.89 973.08 L 868.84 972.76" stroke="rgb(120,210,255)" stroke-opacity="0.445" stroke-width="1.50" />
  <path d="M 901.01 968.12 L 898.61 967.50 L 896.22 966.90 L 893.87 966.18 L 891.56 965.40 L 889.29 964.50 L 887.05 963.57 L 884.82 962.66 L 882.66 961.60 L 880.45 960.66 L 878.29 959.65 L 876.24 958.43 L 874.18 957.27 L 872.13 956.10 L 870.07 954.98 L 868.06 953.78 L 866.07 952.56 L 864.15 951.26 L 862.22 950.00 L 860.23 948.83 L 858.29 947.60 L 856.35 946.40 L 854.47 945.12 L 852.56 943.91 L 850.70 942.63 L 848.92 941.25 L 847.16 939.87 L 845.40 938.50 L 843.66 937.12 L 841.94 935.72 L 840.26 934.30 L 838.63 932.84 L 837.04 931.34 L 835.44 929.85 L 833.82 928.42 L 832.21 926.98 L 830.63 925.52" stroke="rgb(120,210,255)" stroke-opacity="0.442" stroke-width="1.49" />
  <path d="M 1002.87 1002.03 L 1000.93 1001.17 L 999.03 1000.22 L 997.17 999.22 L 995.32 998.22 L 993.49 997.19 L 991.69 996.15 L 989.89 995.11 L 988.13 994.01 L 986.45 992.81 L 984.70 991.74 L 982.96 990.66 L 981.23 989.59 L 979.44 988.64 L 977.65 987.70 L 975.88 986.73 L 974.13 985.75 L 972.45 984.68 L 970.75 983.64 L 969.08 982.57 L 967.39 981.56 L 965.67 980.60 L 964.02 979.56 L 962.40 978.48 L 960.82 977.35 L 959.27 976.19 L 957.68 975.10 L 956.11 973.99 L 954.51 972.95 L 952.90 971.94 L 951.43 970.74 L 950.01 969.50 L 948.51 968.35 L 946.94 967.35 L 945.38 966.32 L 943.82 965.31 L 942.27 964.29 L 940.84 963.13" stroke="rgb(140,255,190)" stroke-opacity="0.586" stroke-width="1.30" />
  <path d="M 1010.29 1067.46 L 1011.56 1069.28 L 1012.93 1071.02 L 1014.35 1072.71 L 1015.63 1074.49 L 1016.91 1076.26 L 1018.20 1078.02 L 1019.56 1079.71 L 1020.95 1081.37 L 1022.35 1083.00 L 1023.69 1084.67 L 1025.04 1086.33 L 1026.37 1087.99 L 1027.74 1089.60 L 1029.10 1091.22 L 1030.31 1092.93 L 1031.56 1094.61" stroke="rgb(140,255,190)" stroke-opacity="0.572" stroke-width="1.25" />
  <path d="M 999.77 1000.04 L 997.09 997.99 L 994.39 995.99 L 991.71 993.99 L 989.00 992.06 L 986.27 990.17 L 983.56 988.27 L 980.87 986.38 L 978.19 984.49 L 975.52 982.60 L 972.89 980.69 L 970.27 978.78 L 967.71 976.82 L 965.19 974.83 L 962.64 972.89 L 960.14 970.92 L 957.64 968.95 L 955.16 967.00 L 952.67 965.06 L 950.19 963.15 L 947.69 961.27 L 945.19 959.41 L 942.69 957.58 L 940.20 955.75 L 937.74 953.91 L 935.29 952.07 L 932.85 950.24 L 930.43 948.40 L 928.01 946.59 L 925.59 944.79 L 923.13 943.06 L 920.68 941.35 L 918.22 939.67 L 915.80 937.96 L 913.36 936.30 L 910.93 934.64 L 908.49 933.00 L 906.03 931.44 L 903.56 929.90 L 901.13 928.33 L 898.71 926.75 L 896.30 925.20 L 893.90 923.64 L 891.48 922.13 L 889.08 920.62 L 886.74 919.03 L 884.40 917.47 L 882.04 915.95 L 879.65 914.50 L 877.29 913.03 L 874.94 911.56 L 872.60 910.10 L 870.31 908.59 L 868.00 907.11 L 865.71 905.63 L 863.39 904.21 L 861.08 902.81 L 858.80 901.38 L 856.53 899.94 L 854.24 898.56 L 851.97 897.18 L 849.68 895.84 L 847.38 894.54 L 845.12 893.20 L 842.88 891.83 L 840.66 890.46 L 838.46 889.09 L 836.25 887.74 L 834.07 886.36 L 831.91 884.96 L 829.79 883.53 L 827.69 882.09 L 825.58 880.69 L 823.49 879.26 L 821.39 877.89 L 819.30 876.49 L 817.27 875.05 L 815.25 873.59 L 813.24 872.14 L 811.23 870.71 L 809.25 869.27 L 807.23 867.88 L 805.24 866.47 L 803.25 865.08 L 801.30 863.65 L 799.37 862.21 L 797.46 860.76 L 795.57 859.30 L 793.67 857.86" stroke="rgb(205,165,255)" stroke-opacity="0.717" stroke-width="1.23" />
  <path d="M 998.67 998.18 L 998.03 994.76 L 997.40 991.36 L 996.71 987.98 L 996.05 984.61 L 995.41 981.25 L 994.77 977.90 L 994.17 974.56 L 993.56 971.23 L 992.96 967.92 L 992.33 964.63 L 991.67 961.35 L 990.98 958.10 L 990.35 954.85 L 989.71 951.61 L 989.06 948.39 L 988.43 945.17 L 987.81 941.97 L 987.18 938.79 L 986.58 935.61 L 986.01 932.44 L 985.49 929.27 L 985.03 926.11 L 984.55 922.96 L 984.06 919.83 L 983.56 916.71 L 983.10 913.60 L 982.66 910.50 L 982.18 907.41 L 981.71 904.34 L 981.22 901.29 L 980.71 898.25 L 980.20 895.22 L 979.68 892.20 L 979.19 889.20 L 978.72 886.20 L 978.27 883.21 L 977.88 880.23 L 977.45 877.26 L 977.08 874.30 L 976.72 871.35 L 976.38 868.41 L 976.04 865.47 L 975.72 862.55 L 975.38 859.65 L 975.02 856.76 L 974.67 853.87 L 974.25 851.01 L 973.80 848.17 L 973.40 845.33 L 972.98 842.50 L 972.55 839.69 L 972.17 836.88 L 971.79 834.09 L 971.39 831.30 L 970.97 828.53 L 970.55 825.78 L 970.12 823.03 L 969.71 820.30 L 969.33 817.57 L 968.94 814.85 L 968.52 812.15 L 968.09 809.46 L 967.59 806.80 L 967.07 804.15 L 966.56 801.50 L 966.07 798.87 L 965.59 796.24 L 965.08 793.64 L 964.63 791.03 L 964.18 788.43 L 963.74 785.84 L 963.26 783.27 L 962.77 780.71 L 962.27 778.16 L 961.79 775.63 L 961.34 773.09 L 960.93 770.56 L 960.54 768.04 L 960.18 765.52 L 959.82 763.01 L 959.46 760.51 L 959.11 758.03 L 958.75 755.55 L 958.39 753.08 L 958.06 750.62 L 957.74 748.17 L 957.43 745.73 L 957.13 743.29 L 956.84 740.86 L 956.56 738.45 L 956.28 736.04 L 956.01 733.64 L 955.75 731.25 L 955.51 728.87" stroke="rgb(205,165,255)" stroke-opacity="0.713" stroke-width="1.22" />
  <path d="M 972.09 651.99 L 971.69 648.74 L 971.31 645.51 L 970.94 642.29 L 970.57 639.08 L 970.30 635.88 L 970.13 632.68 L 970.11 629.49 L 970.16 626.32 L 970.10 623.15 L 970.02 620.00 L 969.89 616.87 L 969.78 613.74 L 969.57 610.63 L 969.50 607.53 L 969.50 604.44 L 969.60 601.37 L 969.61 598.30 L 969.76 595.26" stroke="rgb(205,165,255)" stroke-opacity="0.709" stroke-width="1.21" />
  <path d="M 969.98 669.81 L 969.28 666.73 L 968.57 663.66 L 967.84 660.61 L 967.04 657.60 L 966.16 654.61 L 965.32 651.63 L 964.41 648.68 L 963.60 645.72 L 962.87 642.74 L 962.04 639.81 L 961.19 636.90 L 960.23 634.03 L 959.23 631.19 L 958.27 628.35 L 957.37 625.50 L 956.35 622.70 L 955.24 619.95 L 954.09 617.23 L 953.00 614.50 L 951.97 611.76 L 951.00 609.01 L 949.98 606.29 L 949.03 603.55 L 947.99 600.87 L 946.86 598.23 L 945.74 595.60 L 944.63 592.98 L 943.50 590.37 L 942.32 587.81 L 941.03 585.31 L 939.78 582.80 L 938.63 580.25 L 937.41 577.76 L 936.25 575.24 L 935.13 572.72 L 934.06 570.19 L 932.97 567.68 L 931.87 565.19 L 930.86 562.67 L 929.87 560.15 L 928.99 557.61 L 928.02 555.11 L 927.20 552.57 L 926.40 550.03 L 925.70 547.48 L 925.07 544.91 L 924.54 542.34" stroke="rgb(205,165,255)" stroke-opacity="0.708" stroke-width="1.21" />
  <path d="M 957.74 748.17 L 955.66 745.88 L 953.59 743.59 L 951.52 741.33 L 949.47 739.06 L 947.42 736.81 L 945.41 734.54 L 943.41 732.28 L 941.36 730.07 L 939.31 727.89 L 937.26 725.72 L 935.27 723.52 L 933.40 721.22 L 931.56 718.92 L 929.70 716.65 L 927.88 714.36 L 925.93 712.19 L 923.98 710.04 L 922.07 707.87 L 920.14 705.74 L 918.28 703.55 L 916.43 701.38 L 914.58 699.22 L 912.76 697.05 L 910.97 694.87 L 909.19 692.69 L 907.41 690.53 L 905.64 688.38 L 903.86 686.25 L 902.03 684.18 L 900.16 682.15 L 898.30 680.13 L 896.44 678.13 L 894.68 676.06 L 892.89 674.03 L 891.10 672.00 L 889.36 669.96 L 887.60 667.94 L 885.89 665.89 L 884.22 663.82 L 882.58 661.74 L 880.91 659.71 L 879.20 657.72 L 877.49 655.74 L 875.80 653.75 L 874.18 651.73 L 872.53 649.74 L 870.92 647.74 L 869.27 645.77 L 867.59 643.85 L 865.92 641.94 L 864.25 640.03 L 862.60 638.13 L 860.97 636.22 L 859.36 634.30 L 857.69 632.45 L 856.00 630.63 L 854.36 628.79 L 852.82 626.87 L 851.26 624.97 L 849.73 623.07 L 848.12 621.25 L 846.51 619.44" stroke="rgb(205,165,255)" stroke-opacity="0.492" stroke-width="1.20" />
  <path d="M 1000.47 1002.30 L 999.37 1005.36 L 998.40 1008.45 L 997.48 1011.54 L 996.57 1014.62 L 995.78 1017.72 L 995.00 1020.81 L 994.25 1023.89 L 993.46 1026.95 L 992.63 1029.99 L 991.78 1033.01 L 990.93 1036.01 L 990.06 1039.00 L 989.15 1041.96 L 988.18 1044.89 L 987.22 1047.81 L 986.28 1050.72 L 985.36 1053.63 L 984.57 1056.56 L 983.74 1059.47 L 982.90 1062.36 L 982.06 1065.25 L 981.23 1068.12 L 980.37 1070.96 L 979.55 1073.81 L 978.72 1076.65 L 977.89 1079.47" stroke="rgb(205,165,255)" stroke-opacity="0.701" stroke-width="1.19" />
  <path d="M 904.79 946.51 L 902.45 946.36 L 900.13 946.25 L 897.81 946.26 L 895.50 946.37 L 893.20 946.38 L 890.91 946.27 L 888.63 946.21 L 886.36 946.26 L 884.10 946.39 L 881.85 946.60 L 879.61 946.67 L 877.38 946.89 L 875.17 947.15 L 872.97 947.46 L 870.76 947.61 L 868.56 947.64 L 866.37 947.57 L 864.20 947.37 L 862.02 947.30 L 859.86 947.20 L 857.70 947.30 L 855.55 947.29 L 853.41 947.19 L 851.29 946.99 L 849.19 946.70 L 847.13 946.20 L 845.07 945.78 L 843.00 945.42 L 840.95 945.03 L 838.89 944.70 L 836.84 944.37 L 834.80 944.08 L 832.76 943.86 L 830.75 943.45 L 828.75 943.07 L 826.75 942.67 L 824.76 942.30 L 822.78 941.94 L 820.79 941.64 L 818.82 941.30 L 816.86 940.96 L 814.90 940.66 L 812.95 940.38" stroke="rgb(140,255,190)" stroke-opacity="0.554" stroke-width="1.19" />
  <path d="M 930.05 979.40 L 926.68 979.41 L 923.33 979.32 L 919.99 979.27 L 916.66 979.25 L 913.35 979.18 L 910.04 979.20 L 906.76 979.28 L 903.48 979.41 L 900.22 979.46 L 896.97 979.46 L 893.74 979.45 L 890.51 979.42 L 887.30 979.42 L 884.11 979.38 L 880.92 979.36 L 877.75 979.31 L 874.59 979.28 L 871.45 979.25 L 868.31 979.27 L 865.19 979.25 L 862.08 979.30 L 858.99 979.32 L 855.90 979.33 L 852.83 979.26 L 849.77 979.24 L 846.72 979.21 L 843.69 979.23 L 840.67 979.21 L 837.66 979.19 L 834.66 979.10 L 831.67 979.04 L 828.70 978.97 L 825.74 978.90 L 822.79 978.89 L 819.85 978.96 L 816.92 979.01 L 814.00 978.98 L 811.10 978.95 L 808.21 978.94 L 805.33 978.92 L 802.46 978.94 L 799.60 979.02 L 796.76 979.08 L 793.92 979.14 L 791.10 979.11 L 788.29 979.08 L 785.48 979.04 L 782.70 978.86 L 779.92 978.72 L 777.16 978.59 L 774.40 978.57 L 771.66 978.59 L 768.92 978.60 L 766.20 978.53 L 763.49 978.37 L 760.79 978.23 L 758.11 978.08 L 755.43 977.91 L 752.77 977.75 L 750.11 977.59 L 747.47 977.44 L 744.84 977.29 L 742.21 977.12 L 739.60 976.99 L 737.00 976.84 L 734.40 976.73 L 731.82 976.66" stroke="rgb(140,255,190)" stroke-opacity="0.737" stroke-width="1.19" />
  <path d="M 1001.85 1002.70 L 1005.18 1001.76 L 1008.49 1000.84 L 1011.78 999.88 L 1015.05 998.90 L 1018.28 997.85 L 1021.49 996.77 L 1024.69 995.71 L 1027.88 994.65 L 1031.07 993.66 L 1034.27 992.71 L 1037.45 991.78 L 1040.61 990.81 L 1043.76 989.84 L 1046.89 988.87 L 1050.01 987.90 L 1053.12 986.95 L 1056.24 986.08 L 1059.34 985.20 L 1062.43 984.30 L 1065.51 983.45 L 1068.60 982.64 L 1071.67 981.83 L 1074.71 980.98 L 1077.76 980.19 L 1080.80 979.41 L 1083.84 978.69 L 1086.87 977.98 L 1089.89 977.27 L 1092.90 976.57 L 1095.89 975.86 L 1098.87 975.15 L 1101.84 974.45 L 1104.82 973.87 L 1107.78 973.26 L 1110.75 972.71 L 1113.69 972.14 L 1116.64 971.65 L 1119.58 971.16 L 1122.51 970.67 L 1125.42 970.17 L 1128.31 969.66 L 1131.20 969.14 L 1134.07 968.62 L 1136.93 968.08 L 1139.77 967.51 L 1142.59 966.94 L 1145.42 966.41 L 1148.24 965.94 L 1151.05 965.47 L 1153.85 964.99 L 1156.64 964.54 L 1159.41 964.08 L 1162.18 963.62 L 1164.94 963.22 L 1167.70 962.83 L 1170.44 962.40" stroke="rgb(140,255,190)" stroke-opacity="0.734" stroke-width="1.18" />
  <path d="M 1002.31 1000.63 L 999.30 999.22 L 996.33 997.76 L 993.38 996.30 L 990.43 994.85 L 987.49 993.41 L 984.58 991.95 L 981.67 990.52 L 978.81 989.02 L 975.99 987.47 L 973.16 985.96 L 970.36 984.44 L 967.56 982.92 L 964.78 981.41 L 961.99 979.93 L 959.24 978.43 L 956.46 976.98 L 953.71 975.51 L 950.97 974.06 L 948.23 972.63 L 945.52 971.17 L 942.85 969.67 L 940.24 968.07 L 937.68 966.43 L 935.12 964.82 L 932.57 963.19 L 930.05 961.55 L 927.51 959.96 L 924.97 958.41 L 922.43 956.87 L 919.86 955.40 L 917.34 953.89 L 914.79 952.42 L 912.25 950.98 L 909.73 949.52 L 907.25 948.02 L 904.79 946.51 L 902.33 945.02 L 899.87 943.55 L 897.39 942.13 L 894.90 940.77 L 892.40 939.44 L 889.92 938.10 L 887.47 936.74 L 885.04 935.34 L 882.63 933.95 L 880.20 932.62 L 877.77 931.30 L 875.35 929.99 L 872.93 928.70 L 870.55 927.36 L 868.21 925.98 L 865.86 924.63" stroke="rgb(140,255,190)" stroke-opacity="0.732" stroke-width="1.17" />
  <path d="M 914.79 952.42 L 911.33 952.54 L 907.88 952.66 L 904.44 952.83 L 901.02 953.01 L 897.61 953.16 L 894.21 953.30 L 890.83 953.45 L 887.46 953.65 L 884.11 953.80 L 880.77 953.97 L 877.44 954.17 L 874.13 954.31 L 870.82 954.36 L 867.53 954.45 L 864.25 954.51 L 860.99 954.56 L 857.74 954.61 L 854.50 954.65 L 851.27 954.73" stroke="rgb(140,255,190)" stroke-opacity="0.732" stroke-width="1.17" />
  <path d="M 1009.14 1061.51 L 1010.44 1064.58 L 1011.76 1067.62 L 1013.11 1070.64 L 1014.44 1073.65 L 1015.77 1076.65" stroke="rgb(140,255,190)" stroke-opacity="0.731" stroke-width="1.17" />
  <path d="M 1098.87 975.15 L 1101.19 972.75 L 1103.53 970.40 L 1105.82 968.01 L 1108.12 965.66 L 1110.46 963.36 L 1112.77 961.04 L 1115.10 958.77 L 1117.45 956.54 L 1119.83 954.35 L 1122.19 952.17 L 1124.56 950.01 L 1126.88 947.82 L 1129.17 945.62 L 1131.45 943.43 L 1133.77 941.28 L 1136.07 939.15 L 1138.39 937.06 L 1140.73 935.00 L 1143.03 932.91 L 1145.32 930.84 L 1147.62 928.79 L 1149.98 926.84 L 1152.34 924.90 L 1154.66 922.93 L 1156.95 920.96 L 1159.25 919.01 L 1161.55 917.07 L 1163.86 915.17 L 1166.18 913.29 L 1168.48 911.42 L 1170.76 909.53 L 1173.06 907.70 L 1175.33 905.84 L 1177.48 903.86 L 1179.58 901.85 L 1181.72 899.89 L 1183.88 897.98 L 1186.03 896.07 L 1188.12 894.11 L 1190.15 892.11 L 1192.19 890.13 L 1194.18 888.12 L 1196.17 886.13 L 1198.19 884.18 L 1200.23 882.26 L 1202.25 880.34 L 1204.27 878.45 L 1206.31 876.59 L 1208.36 874.75 L 1210.44 872.96 L 1212.46 871.14" stroke="rgb(140,255,190)" stroke-opacity="0.730" stroke-width="1.17" />
  <path d="M 923.79 953.77 L 922.48 951.75 L 921.19 949.74 L 919.86 947.77 L 918.69 945.71 L 917.55 943.64 L 916.39 941.59 L 915.19 939.58 L 914.09 937.52 L 913.00 935.47 L 911.87 933.45 L 910.80 931.41 L 909.76 929.36 L 908.75 927.31 L 907.70 925.29 L 906.69 923.26 L 905.68 921.23 L 904.81 919.16 L 903.92 917.10 L 902.99 915.07 L 902.06 913.05 L 901.18 911.02 L 900.23 909.03 L 899.22 907.08 L 898.12 905.19 L 897.16 903.23 L 896.24 901.26 L 895.30 899.32 L 894.37 897.37 L 893.41 895.46 L 892.53 893.51 L 891.64 891.57 L 890.74 889.66 L 889.76 887.79" stroke="rgb(140,255,190)" stroke-opacity="0.546" stroke-width="1.16" />
  <path d="M 1000.26 998.80 L 1000.58 1002.07 L 1000.93 1005.33 L 1001.36 1008.56 L 1001.74 1011.79 L 1002.15 1015.00 L 1002.51 1018.21 L 1002.93 1021.39 L 1003.32 1024.57 L 1003.77 1027.72 L 1004.13 1030.88 L 1004.53 1034.01 L 1004.99 1037.13 L 1005.44 1040.23 L 1005.91 1043.32 L 1006.43 1046.38 L 1007.00 1049.43 L 1007.59 1052.46 L 1008.11 1055.49 L 1008.63 1058.50 L 1009.14 1061.51 L 1009.70 1064.49 L 1010.29 1067.46 L 1010.88 1070.42 L 1011.40 1073.37" stroke="rgb(140,255,190)" stroke-opacity="0.726" stroke-width="1.16" />
  <path d="M 910.64 979.77 L 907.37 979.65 L 904.11 979.56 L 900.86 979.42 L 897.63 979.33 L 894.41 979.20 L 891.20 979.15 L 888.00 979.14 L 884.82 979.18 L 881.65 979.24 L 878.49 979.23 L 875.34 979.20 L 872.21 979.09 L 869.09 979.00 L 865.98 978.91 L 862.89 978.80 L 859.81 978.74 L 856.74 978.80 L 853.68 978.84 L 850.63 978.90 L 847.60 978.94 L 844.58 978.84 L 841.57 978.75 L 838.57 978.65 L 835.59 978.54 L 832.61 978.42 L 829.65 978.31 L 826.70 978.19 L 823.77 978.05 L 820.85 977.92 L 817.94 977.75 L 815.04 977.58 L 812.15 977.38 L 809.28 977.17 L 806.42 976.91 L 803.57 976.67 L 800.75 976.35 L 797.92 976.08 L 795.12 975.74 L 792.33 975.44 L 789.55 975.06 L 786.78 974.76 L 784.02 974.42 L 781.28 974.04 L 778.54 973.73 L 775.81 973.47 L 773.08 973.22 L 770.37 972.97 L 767.67 972.71 L 764.99 972.39 L 762.31 972.11 L 759.65 971.85 L 756.99 971.61 L 754.35 971.30 L 751.72 970.99 L 749.10 970.67 L 746.49 970.40 L 743.88 970.18 L 741.28 969.96 L 738.69 969.84 L 736.11 969.79 L 733.53 969.66 L 730.98 969.46 L 728.43 969.27 L 725.90 969.05 L 723.37 968.81 L 720.86 968.58 L 718.36 968.37 L 715.86 968.15 L 713.38 967.89 L 710.91 967.68 L 708.44 967.46 L 705.99 967.20 L 703.56 966.87 L 701.14 966.57 L 698.73 966.21 L 696.35 965.77 L 693.96 965.41 L 691.58 965.04 L 689.22 964.66 L 686.85 964.34 L 684.48 964.15 L 682.12 963.99 L 679.77 963.81 L 677.43 963.62 L 675.10 963.46 L 672.77 963.37 L 670.46 963.22 L 668.15 963.03 L 665.86 962.81 L 663.58 962.63 L 661.31 962.40 L 659.04 962.19 L 656.79 961.98 L 654.54 961.79 L 652.30 961.66 L 650.06 961.54 L 647.84 961.41 L 645.62 961.24 L 643.42 961.03 L 641.23 960.84 L 639.04 960.64 L 636.87 960.46 L 634.69 960.39" stroke="rgb(140,255,190)" stroke-opacity="0.725" stroke-width="1.16" />
  <path d="M 1000.06 1002.76 L 996.92 1001.88 L 993.79 1001.02 L 990.66 1000.19 L 987.54 999.39 L 984.43 998.61 L 981.32 997.87 L 978.21 997.20 L 975.13 996.44 L 972.07 995.68 L 969.03 994.87 L 966.00 994.06 L 963.00 993.23 L 960.00 992.42 L 957.02 991.56 L 954.03 990.83 L 951.04 990.11 L 948.07 989.37 L 945.11 988.67 L 942.17 987.93 L 939.24 987.21 L 936.31 986.51 L 933.40 985.77 L 930.50 985.06 L 927.61 984.38 L 924.73 983.70 L 921.87 982.98 L 919.03 982.23 L 916.21 981.45 L 913.42 980.60 L 910.64 979.77 L 907.89 978.88 L 905.13 978.04 L 902.40 977.17 L 899.65 976.39 L 896.93 975.57 L 894.20 974.79 L 891.47 974.09 L 888.77 973.32 L 886.06 972.60 L 883.37 971.88 L 880.69 971.15 L 878.02 970.41 L 875.39 969.60 L 872.79 968.73 L 870.19 967.88 L 867.61 967.02 L 865.05 966.11 L 862.52 965.17 L 859.97 964.30 L 857.44 963.42 L 854.89 962.63 L 852.36 961.84 L 849.80 961.15 L 847.25 960.49 L 844.70 959.87 L 842.16 959.23 L 839.62 958.65 L 837.09 958.06 L 834.57 957.50 L 832.06 956.95 L 829.55 956.41 L 827.06 955.85 L 824.58 955.27 L 822.11 954.74 L 819.64 954.21 L 817.18 953.69 L 814.74 953.16 L 812.32 952.56 L 809.90 952.01 L 807.49 951.46 L 805.08 950.93 L 802.68 950.45" stroke="rgb(140,255,190)" stroke-opacity="0.724" stroke-width="1.15" />
  <path d="M 892.40 939.44 L 889.23 938.78 L 886.05 938.18 L 882.88 937.64 L 879.71 937.14 L 876.56 936.64 L 873.43 936.12 L 870.31 935.56 L 867.18 935.14 L 864.07 934.70 L 860.96 934.39 L 857.86 934.12 L 854.77 933.79 L 851.71 933.36 L 848.65 933.05 L 845.59 932.80 L 842.55 932.54 L 839.51 932.32 L 836.49 932.04 L 833.49 931.78 L 830.50 931.50 L 827.52 931.21 L 824.55 930.93 L 821.59 930.63 L 818.65 930.37 L 815.71 930.16 L 812.79 929.87 L 809.88 929.59 L 806.98 929.36 L 804.09 929.06 L 801.22 928.78 L 798.35 928.57 L 795.49 928.42 L 792.64 928.32 L 789.80 928.24 L 786.97 928.16 L 784.15 928.07 L 781.34 927.98 L 778.55 927.94 L 775.76 928.00 L 772.99 928.07 L 770.23 928.12 L 767.47 928.11 L 764.73 928.14 L 762.00 928.15 L 759.28 928.18 L 756.58 928.25 L 753.88 928.29 L 751.20 928.42 L 748.52 928.55 L 745.86 928.61 L 743.21 928.71 L 740.56 928.73 L 737.93 928.80 L 735.31 928.87 L 732.70 928.98 L 730.10 929.11 L 727.51 929.28 L 724.94 929.42 L 722.37 929.50 L 719.81 929.54 L 717.26 929.60 L 714.72 929.70" stroke="rgb(140,255,190)" stroke-opacity="0.723" stroke-width="1.15" />
  <path d="M 903.28 961.37 L 900.97 961.95 L 898.68 962.61 L 896.43 963.34 L 894.19 964.07 L 891.97 964.84 L 889.72 965.47 L 887.51 966.21 L 885.31 966.95 L 883.07 967.52 L 880.85 968.11 L 878.63 968.70 L 876.51 969.52 L 874.37 970.31 L 872.27 971.15 L 870.17 971.98 L 868.10 972.84 L 866.02 973.68 L 863.94 974.48 L 861.85 975.23 L 859.83 976.12 L 857.87 977.12 L 855.87 978.02 L 853.96 979.09 L 852.13 980.26 L 850.29 981.40 L 848.48 982.59 L 846.72 983.82 L 844.94 985.00" stroke="rgb(140,255,190)" stroke-opacity="0.542" stroke-width="1.15" />
  <path d="M 1000.74 997.58 L 997.54 996.78 L 994.36 995.96 L 991.21 995.08 L 988.09 994.15 L 984.98 993.23 L 981.90 992.25 L 978.82 991.29 L 975.76 990.35 L 972.68 989.52 L 969.62 988.63 L 966.59 987.71 L 963.57 986.78 L 960.56 985.88 L 957.59 984.90 L 954.64 983.90 L 951.70 982.90 L 948.76 981.92 L 945.85 980.93 L 942.93 979.96 L 940.05 978.95 L 937.21 977.85 L 934.39 976.73 L 931.59 975.62 L 928.80 974.49 L 926.01 973.39 L 923.23 972.32 L 920.48 971.20 L 917.76 970.04 L 915.02 968.94 L 912.28 967.88 L 909.55 966.85 L 906.84 965.78 L 904.12 964.75 L 901.42 963.75 L 898.74 962.68 L 896.08 961.61 L 893.44 960.54 L 890.82 959.44 L 888.21 958.34 L 885.64 957.18 L 883.06 956.06 L 880.50 954.94 L 877.95 953.80 L 875.41 952.69 L 872.91 951.50 L 870.45 950.28 L 867.95 949.13 L 865.47 948.00 L 862.96 946.94 L 860.46 945.89 L 858.01 944.77" stroke="rgb(140,255,190)" stroke-opacity="0.722" stroke-width="1.15" />
  <path d="M 944.63 990.23 L 941.53 990.83 L 938.44 991.44 L 935.35 991.99 L 932.29 992.59 L 929.24 993.21 L 926.20 993.80 L 923.19 994.49 L 920.19 995.19 L 917.23 995.94 L 914.27 996.68 L 911.31 997.38 L 908.38 998.13 L 905.45 998.84 L 902.53 999.55 L 899.63 1000.25 L 896.72 1000.87 L 893.83 1001.54 L 890.95 1002.20 L 888.08 1002.84 L 885.19 1003.35 L 882.32 1003.86 L 879.44 1004.27 L 876.57 1004.66 L 873.72 1005.06 L 870.86 1005.37 L 868.03 1005.76 L 865.21 1006.19 L 862.40 1006.56 L 859.60 1006.91 L 856.80 1007.23 L 854.01 1007.47 L 851.23 1007.76 L 848.47 1008.13 L 845.73 1008.50 L 843.00 1008.93 L 840.29 1009.38 L 837.58 1009.77 L 834.88 1010.10 L 832.19 1010.46 L 829.50 1010.78 L 826.82 1011.07 L 824.15 1011.30 L 821.48 1011.45 L 818.82 1011.55 L 816.18 1011.68 L 813.54 1011.84 L 810.92 1011.99 L 808.31 1012.23 L 805.71 1012.45 L 803.12 1012.59 L 800.53 1012.63 L 797.95 1012.73 L 795.39 1012.84 L 792.83 1012.93 L 790.29 1013.00 L 787.76 1013.13 L 785.23 1013.19 L 782.72 1013.31 L 780.21 1013.41 L 777.72 1013.59 L 775.26 1013.88 L 772.79 1014.13 L 770.34 1014.41 L 767.90 1014.63 L 765.47 1014.93 L 763.06 1015.28 L 760.64 1015.53 L 758.24 1015.83 L 755.86 1016.16 L 753.49 1016.54 L 751.13 1016.88 L 748.77 1017.18 L 746.43 1017.58 L 744.10 1017.93 L 741.77 1018.25 L 739.44 1018.51 L 737.12 1018.73 L 734.81 1018.90 L 732.50 1019.09 L 730.20 1019.24 L 727.92 1019.42" stroke="rgb(140,255,190)" stroke-opacity="0.721" stroke-width="1.15" />
  <path d="M 1004.75 997.30 L 1001.92 995.70 L 999.11 994.10 L 996.33 992.46 L 993.53 990.90 L 990.75 989.32 L 987.98 987.76 L 985.21 986.21 L 982.50 984.59 L 979.78 983.00 L 977.08 981.42 L 974.38 979.85 L 971.66 978.36 L 968.95 976.85 L 966.28 975.31 L 963.62 973.78 L 960.94 972.30 L 958.31 970.77 L 955.68 969.26 L 953.05 967.77 L 950.40 966.33 L 947.74 964.96 L 945.06 963.65 L 942.41 962.29 L 939.75 960.98 L 937.10 959.68 L 934.47 958.38 L 931.80 957.19 L 929.13 956.00 L 926.46 954.87 L 923.79 953.77 L 921.13 952.67 L 918.47 951.57 L 915.81 950.55 L 913.18 949.46 L 910.57 948.35 L 907.97 947.26 L 905.38 946.15 L 902.79 945.09 L 900.18 944.10 L 897.60 943.08 L 895.02 942.09 L 892.45 941.08 L 889.90 940.05 L 887.39 938.98 L 884.89 937.89 L 882.40 936.81 L 879.93 935.73 L 877.45 934.69 L 874.96 933.69 L 872.48 932.71 L 870.00 931.77 L 867.51 930.85 L 865.04 929.92 L 862.60 928.95" stroke="rgb(140,255,190)" stroke-opacity="0.720" stroke-width="1.14" />
  <path d="M 999.44 998.13 L 996.31 997.59 L 993.21 996.99 L 990.14 996.30 L 987.10 995.55 L 984.04 994.91 L 981.02 994.19 L 978.00 993.49 L 974.97 992.88 L 971.97 992.25 L 968.96 991.66 L 965.96 991.13 L 962.97 990.62 L 960.00 990.08 L 957.04 989.49 L 954.10 988.89 L 951.20 988.21 L 948.30 987.52 L 945.42 986.81 L 942.55 986.15 L 939.68 985.48 L 936.82 984.86 L 933.97 984.25 L 931.13 983.64 L 928.29 983.06 L 925.47 982.48 L 922.66 981.92" stroke="rgb(140,255,190)" stroke-opacity="0.719" stroke-width="1.14" />
  <path d="M 1000.22 1002.59 L 997.27 1001.62 L 994.31 1000.73 L 991.38 999.79 L 988.47 998.86 L 985.53 998.03 L 982.60 997.21 L 979.71 996.31 L 976.83 995.41 L 973.98 994.47 L 971.15 993.51 L 968.34 992.51 L 965.55 991.51 L 962.73 990.61 L 959.94 989.68 L 957.15 988.77 L 954.41 987.77 L 951.69 986.75 L 948.97 985.74 L 946.26 984.76 L 943.54 983.83 L 940.82 982.94 L 938.11 982.04 L 935.42 981.14 L 932.72 980.29 L 930.05 979.40 L 927.38 978.53 L 924.72 977.68 L 922.06 976.86 L 919.40 976.07 L 916.76 975.29 L 914.10 974.57 L 911.47 973.81 L 908.87 972.98 L 906.28 972.16 L 903.72 971.29 L 901.15 970.47 L 898.58 969.71 L 896.02 968.92 L 893.48 968.13 L 890.96 967.31 L 888.46 966.47 L 885.95 965.67 L 883.46 964.85 L 880.98 964.03 L 878.51 963.22 L 876.02 962.50 L 873.57 961.72 L 871.10 960.99 L 868.66 960.22 L 866.24 959.42 L 863.84 958.62 L 861.45 957.77 L 859.09 956.91 L 856.71 956.13 L 854.35 955.30 L 851.99 954.52 L 849.66 953.68 L 847.32 952.90 L 845.00 952.08 L 842.72 951.18 L 840.45 950.30 L 838.17 949.45 L 835.90 948.62 L 833.64 947.80 L 831.35 947.07" stroke="rgb(140,255,190)" stroke-opacity="0.539" stroke-width="1.14" />
  <path d="M 1000.36 999.06 L 997.62 998.60 L 994.88 998.15 L 992.14 997.80 L 989.41 997.47 L 986.68 997.24 L 983.96 997.03 L 981.25 996.82 L 978.55 996.61 L 975.87 996.37 L 973.19 996.11 L 970.55 995.71 L 967.91 995.31 L 965.29 994.94 L 962.67 994.59 L 960.05 994.28 L 957.46 993.87 L 954.88 993.49 L 952.29 993.21 L 949.71 992.98 L 947.15 992.71 L 944.60 992.37 L 942.07 991.96 L 939.55 991.59 L 937.04 991.20 L 934.55 990.76 L 932.06 990.39 L 929.58 990.04 L 927.09 989.77 L 924.62 989.50 L 922.16 989.20 L 919.72 988.82 L 917.31 988.33 L 914.91 987.86 L 912.51 987.40 L 910.15 986.83 L 907.80 986.26 L 905.45 985.72 L 903.10 985.22 L 900.77 984.68 L 898.43 984.23 L 896.11 983.76" stroke="rgb(205,165,255)" stroke-opacity="0.476" stroke-width="1.13" />
  <path d="M 999.37 1000.36 L 997.01 999.77 L 994.64 999.25 L 992.28 998.72 L 989.93 998.19 L 987.59 997.67 L 985.28 997.07 L 982.98 996.48 L 980.68 995.92 L 978.41 995.26 L 976.16 994.59 L 973.90 993.98 L 971.64 993.42 L 969.37 992.95 L 967.09 992.55 L 964.81 992.23 L 962.56 991.81 L 960.29 991.49 L 958.04 991.15 L 955.80 990.82 L 953.56 990.57 L 951.32 990.34 L 949.08 990.26 L 946.85 990.23 L 944.63 990.23 L 942.42 990.26 L 940.22 990.29 L 938.03 990.37 L 935.84 990.42 L 933.66 990.40 L 931.50 990.41 L 929.34 990.31 L 927.19 990.17 L 925.05 990.01 L 922.93 989.83 L 920.82 989.57 L 918.72 989.30 L 916.62 989.11 L 914.52 989.02 L 912.43 988.93 L 910.35 988.91 L 908.28 988.82 L 906.21 988.84 L 904.15 988.79 L 902.11 988.66 L 900.07 988.49" stroke="rgb(140,255,190)" stroke-opacity="0.536" stroke-width="1.13" />
  <path d="M 957.15 988.77 L 955.25 986.44 L 953.42 984.07 L 951.58 981.72 L 949.85 979.31 L 948.12 976.91 L 946.40 974.52 L 944.64 972.17 L 942.83 969.87 L 940.96 967.64 L 939.05 965.45 L 937.15 963.28 L 935.27 961.11 L 933.34 958.99 L 931.43 956.86 L 929.50 954.78 L 927.46 952.81 L 925.49 950.80 L 923.56 948.76 L 921.66 946.71 L 919.63 944.80 L 917.54 942.97 L 915.54 941.07 L 913.52 939.19" stroke="rgb(140,255,190)" stroke-opacity="0.535" stroke-width="1.13" />
  <path d="M 957.18 986.09 L 954.51 984.46 L 951.79 982.97 L 949.16 981.34 L 946.61 979.60 L 944.10 977.84 L 941.56 976.13 L 939.02 974.44 L 936.51 972.74 L 933.97 971.10 L 931.47 969.44 L 928.98 967.76 L 926.53 966.06 L 924.08 964.37 L 921.71 962.60 L 919.32 960.86 L 916.97 959.10 L 914.61 957.37 L 912.26 955.65 L 909.90 953.96 L 907.58 952.22 L 905.22 950.58 L 902.86 948.96 L 900.54 947.28 L 898.26 945.58 L 895.97 943.91 L 893.69 942.25 L 891.36 940.68 L 889.01 939.14 L 886.67 937.64 L 884.31 936.16 L 882.02 934.62 L 879.75 933.06 L 877.55 931.41 L 875.34 929.80 L 873.12 928.22 L 870.92 926.64 L 868.76 925.02 L 866.65 923.35 L 864.61 921.62 L 862.61 919.84 L 860.56 918.16 L 858.45 916.55 L 856.38 914.92 L 854.32 913.29 L 852.25 911.69 L 850.27 910.00 L 848.23 908.40 L 846.13 906.89 L 844.04 905.39 L 841.94 903.92 L 839.89 902.39 L 837.90 900.80 L 835.95 899.19 L 833.98 897.62 L 832.11 895.94 L 830.23 894.29 L 828.30 892.71 L 826.37 891.15 L 824.46 889.58 L 822.51 888.07 L 820.63 886.50 L 818.76 884.92 L 816.95 883.29 L 815.13 881.69 L 813.33 880.09 L 811.52 878.50 L 809.70 876.94 L 807.98 875.29 L 806.27 873.65 L 804.54 872.03 L 802.86 870.37 L 801.19 868.73 L 799.49 867.12 L 797.78 865.54 L 796.03 864.01 L 794.30 862.48 L 792.58 860.96 L 790.80 859.51 L 789.01 858.09 L 787.24 856.67" stroke="rgb(140,255,190)" stroke-opacity="0.713" stroke-width="1.13" />
  <path d="M 998.02 998.10 L 995.15 997.17 L 992.27 996.30 L 989.41 995.43 L 986.55 994.59 L 983.72 993.68 L 980.90 992.80 L 978.08 991.93 L 975.30 990.99 L 972.52 990.11 L 969.75 989.22 L 967.00 988.29 L 964.27 987.35 L 961.54 986.44 L 958.86 985.43 L 956.18 984.47 L 953.54 983.40 L 950.91 982.37 L 948.30 981.30 L 945.74 980.14 L 943.23 978.91 L 940.72 977.70" stroke="rgb(140,255,190)" stroke-opacity="0.533" stroke-width="1.12" />
  <path d="M 999.70 998.31 L 996.95 998.33 L 994.22 998.32 L 991.49 998.34 L 988.78 998.55 L 986.08 998.72 L 983.39 998.85 L 980.71 998.97 L 978.04 999.10 L 975.38 999.21 L 972.73 999.24 L 970.09 999.14 L 967.47 999.02 L 964.85 998.89 L 962.24 998.80 L 959.65 998.63 L 957.07 998.40 L 954.50 998.23 L 951.93 998.13 L 949.38 998.10 L 946.83 998.05 L 944.30 997.95 L 941.78 997.79 L 939.26 997.65 L 936.76 997.64 L 934.26 997.66 L 931.77 997.71 L 929.30 997.73 L 926.83 997.78 L 924.38 997.84 L 921.93 997.89 L 919.49 997.91 L 917.07 997.95 L 914.65 998.00 L 912.24 997.99 L 909.84 998.10 L 907.46 998.22 L 905.09 998.42 L 902.73 998.61 L 900.38 998.87 L 898.04 999.10 L 895.71 999.33 L 893.40 999.60 L 891.09 999.86 L 888.78 1000.06 L 886.49 1000.30 L 884.22 1000.63 L 881.94 1000.82 L 879.67 1000.97" stroke="rgb(205,165,255)" stroke-opacity="0.472" stroke-width="1.12" />
  <path d="M 1000.57 995.84 L 998.07 994.83 L 995.61 993.74 L 993.18 992.61 L 990.80 991.41 L 988.50 990.08 L 986.25 988.70 L 983.96 987.40 L 981.65 986.15 L 979.36 984.89 L 977.10 983.60 L 974.83 982.35 L 972.53 981.16 L 970.27 979.94 L 967.98 978.80 L 965.71 977.63 L 963.46 976.45 L 961.24 975.24 L 958.95 974.19 L 956.71 973.04 L 954.53 971.82 L 952.34 970.63 L 950.15 969.48 L 947.96 968.32 L 945.78 967.19 L 943.59 966.09 L 941.42 964.96 L 939.24 963.89 L 937.07 962.81 L 934.95 961.66 L 932.84 960.51 L 930.77 959.31 L 928.71 958.12 L 926.65 956.93 L 924.59 955.77 L 922.55 954.60 L 920.51 953.44 L 918.48 952.29 L 916.41 951.23 L 914.37 950.13 L 912.36 948.99 L 910.36 947.86 L 908.41 946.66 L 906.48 945.45 L 904.54 944.26 L 902.62 943.07 L 900.67 941.93 L 898.72 940.82 L 896.77 939.73 L 894.91 938.51 L 893.14 937.17 L 891.36 935.87 L 889.54 934.63 L 887.76 933.35 L 885.98 932.10 L 884.20 930.85 L 882.39 929.66 L 880.60 928.46 L 878.82 927.26 L 877.03 926.08 L 875.24 924.93 L 873.44 923.81 L 871.65 922.69 L 869.86 921.58 L 868.07 920.49 L 866.25 919.46 L 864.40 918.51" stroke="rgb(140,255,190)" stroke-opacity="0.530" stroke-width="1.11" />
  <path d="M 956.84 740.86 L 954.86 739.09 L 952.86 737.35 L 950.81 735.68 L 948.78 734.01 L 946.72 732.39 L 944.73 730.69 L 942.66 729.12 L 940.74 727.38 L 938.90 725.57 L 937.12 723.72 L 935.38 721.85 L 933.62 720.00 L 931.80 718.23 L 929.96 716.50 L 928.13 714.78 L 926.38 712.98 L 924.64 711.18 L 922.95 709.36 L 921.26 707.55 L 919.57 705.74 L 917.92 703.92 L 916.24 702.14 L 914.52 700.42 L 912.74 698.76 L 910.93 697.15 L 909.12 695.56 L 907.34 693.95 L 905.66 692.26 L 903.93 690.62 L 902.24 688.96 L 900.53 687.32 L 898.71 685.83 L 896.91 684.34 L 895.10 682.87 L 893.39 681.30 L 891.68 679.73 L 890.06 678.09 L 888.43 676.47 L 886.72 674.95" stroke="rgb(205,165,255)" stroke-opacity="0.468" stroke-width="1.11" />
  <path d="M 999.05 1000.35 L 996.38 1000.92 L 993.70 1001.39 L 991.04 1001.87 L 988.42 1002.50 L 985.84 1003.25 L 983.29 1004.05 L 980.76 1004.88 L 978.24 1005.71 L 975.72 1006.49 L 973.20 1007.26 L 970.69 1008.03 L 968.19 1008.78 L 965.72 1009.59 L 963.25 1010.37 L 960.77 1011.07 L 958.29 1011.72 L 955.82 1012.40 L 953.36 1013.08 L 950.93 1013.81 L 948.47 1014.39 L 946.03 1014.99 L 943.61 1015.67 L 941.21 1016.35 L 938.79 1016.92 L 936.42 1017.67 L 934.05 1018.34 L 931.69 1019.04 L 929.35 1019.76 L 927.04 1020.53 L 924.74 1021.31 L 922.45 1022.08 L 920.15 1022.82 L 917.84 1023.46 L 915.54 1024.09 L 913.23 1024.67 L 910.92 1025.22 L 908.64 1025.84 L 906.40 1026.56 L 904.18 1027.29 L 901.96 1028.01 L 899.76 1028.78 L 897.54 1029.43 L 895.34 1030.10 L 893.15 1030.79 L 890.96 1031.47 L 888.79 1032.16 L 886.61 1032.77 L 884.43 1033.38 L 882.28 1034.03 L 880.12 1034.63 L 877.97 1035.24 L 875.82 1035.79 L 873.66 1036.29 L 871.48 1036.67 L 869.33 1037.10 L 867.20 1037.60 L 865.08 1038.11 L 862.98 1038.66 L 860.91 1039.28 L 858.86 1039.93 L 856.80 1040.54 L 854.75 1041.16 L 852.72 1041.78 L 850.72 1042.48 L 848.73 1043.17 L 846.73 1043.82 L 844.75 1044.52 L 842.77 1045.18 L 840.80 1045.84 L 838.84 1046.51 L 836.92 1047.24 L 835.00 1047.96 L 833.13 1048.79 L 831.24 1049.55 L 829.35 1050.28 L 827.45 1050.97 L 825.56 1051.65 L 823.65 1052.27 L 821.78 1052.95" stroke="rgb(205,165,255)" stroke-opacity="0.468" stroke-width="1.11" />
  <path d="M 956.56 738.45 L 956.83 735.91 L 957.05 733.37 L 957.36 730.85 L 957.66 728.35 L 958.10 725.87 L 958.61 723.42 L 959.20 720.99 L 959.80 718.58 L 960.42 716.19 L 961.10 713.81 L 961.77 711.45 L 962.52 709.13 L 963.28 706.81 L 963.98 704.49 L 964.66 702.17 L 965.28 699.85 L 965.74 697.49 L 966.26 695.16 L 966.78 692.84 L 967.23 690.52 L 967.57 688.18 L 967.74 685.84 L 968.05 683.52 L 968.39 681.21 L 968.75 678.92 L 969.03 676.62 L 969.36 674.35 L 969.71 672.08 L 969.98 669.81 L 970.28 667.55 L 970.56 665.31 L 970.82 663.06 L 971.09 660.83 L 971.43 658.62 L 971.65 656.40 L 971.82 654.19 L 972.09 651.99 L 972.21 649.79 L 972.35 647.60 L 972.47 645.41 L 972.44 643.24 L 972.30 641.07 L 972.14 638.92" stroke="rgb(205,165,255)" stroke-opacity="0.467" stroke-width="1.10" />
  <path d="M 997.89 1002.22 L 995.91 1000.60 L 993.95 998.97 L 991.92 997.45 L 989.95 995.86 L 987.98 994.29 L 986.00 992.74 L 984.10 991.12 L 982.19 989.52 L 980.32 987.89 L 978.41 986.32 L 976.48 984.80 L 974.63 983.19 L 972.85 981.53 L 971.04 979.91 L 969.20 978.33 L 967.43 976.70 L 965.61 975.13 L 963.75 973.63 L 961.90 972.12 L 960.01 970.69 L 958.12 969.27 L 956.21 967.90 L 954.25 966.61 L 952.26 965.39 L 950.29 964.16 L 948.31 962.95 L 946.36 961.72 L 944.41 960.50 L 942.49 959.26 L 940.55 958.05 L 938.61 956.88 L 936.67 955.73 L 934.72 954.60 L 932.81 953.42 L 930.91 952.24 L 928.98 951.14 L 927.03 950.09 L 925.07 949.07" stroke="rgb(140,255,190)" stroke-opacity="0.527" stroke-width="1.10" />
  <path d="M 999.65 997.00 L 997.05 996.41 L 994.47 995.80 L 991.89 995.24 L 989.32 994.65 L 986.77 994.03 L 984.24 993.39 L 981.71 992.76 L 979.16 992.30 L 976.62 991.83 L 974.12 991.26 L 971.64 990.61 L 969.20 989.85 L 966.77 989.12 L 964.34 988.41 L 961.93 987.69 L 959.53 986.94 L 957.18 986.09 L 954.85 985.21 L 952.53 984.33 L 950.23 983.43 L 947.92 982.57 L 945.68 981.58 L 943.47 980.56 L 941.24 979.58 L 939.05 978.55 L 936.84 977.59 L 934.62 976.66 L 932.43 975.70 L 930.27 974.70 L 928.15 973.63 L 926.00 972.65 L 923.90 971.59 L 921.77 970.61 L 919.59 969.76 L 917.47 968.80 L 915.37 967.83 L 913.28 966.84 L 911.27 965.73 L 909.26 964.63 L 907.23 963.59 L 905.26 962.47 L 903.28 961.37 L 901.33 960.25 L 899.36 959.17 L 897.41 958.09 L 895.46 957.01 L 893.53 955.91 L 891.60 954.85 L 889.65 953.83 L 887.76 952.73" stroke="rgb(140,255,190)" stroke-opacity="0.525" stroke-width="1.10" />
  <path d="M 1001.28 1002.35 L 998.92 1000.79 L 996.55 999.27 L 994.17 997.77 L 991.80 996.30 L 989.37 994.93 L 986.99 993.51 L 984.59 992.14 L 982.22 990.74 L 979.90 989.27 L 977.66 987.72 L 975.43 986.16 L 973.22 984.59 L 971.03 983.01 L 968.94 981.32 L 966.90 979.60 L 964.84 977.91 L 962.77 976.24 L 960.75 974.54 L 958.79 972.78 L 956.88 970.99 L 954.97 969.20 L 953.14 967.35 L 951.33 965.49 L 949.54 963.63 L 947.89 961.66" stroke="rgb(140,255,190)" stroke-opacity="0.525" stroke-width="1.09" />
  <path d="M 645.62 961.24 L 642.98 961.74 L 640.34 962.23 L 637.69 962.56 L 635.04 962.83 L 632.40 963.06 L 629.77 963.29 L 627.16 963.61 L 624.55 963.85 L 621.95 964.11 L 619.36 964.30 L 616.78 964.52 L 614.22 964.77 L 611.65 964.88 L 609.09 964.89 L 606.55 964.79 L 604.01 964.68" stroke="rgb(140,255,190)" stroke-opacity="0.525" stroke-width="1.09" />
  <path d="M 2000.11 1443.02 L 1997.25 1442.17 L 1994.34 1440.69 L 1991.73 1439.53 L 1989.42 1438.66 L 1986.08 1436.70 L 1984.04 1435.86 L 1981.02 1434.23 L 1978.35 1433.54 L 1974.90 1432.40 L 1972.56 1430.82 L 1969.48 1429.82 L 1967.05 1428.54 L 1964.28 1427.54 L 1962.04 1425.95 L 1958.98 1424.95 L 1955.93 1423.63 L 1953.34 1422.63 L 1950.80 1421.38 L 1947.83 1420.10 L 1945.04 1418.96 L 1942.74 1417.61 L 1939.79 1415.85 L 1936.86 1415.42 L 1934.35 1414.14 L 1930.74 1412.80 L 1928.98 1411.74 L 1925.58 1410.27 L 1923.05 1409.15 L 1920.55 1408.02 L 1917.51 1407.05 L 1915.30 1405.52 L 1912.36 1404.30 L 1909.33 1402.95 L 1906.31 1401.93 L 1904.27 1400.51 L 1901.40 1399.55 L 1898.30 1398.83 L 1895.62 1397.05 L 1892.87 1396.10 L 1890.72 1394.32 L 1887.30 1393.33 L 1884.66 1391.94 L 1881.98 1391.25 L 1879.48 1389.54 L 1876.94 1388.62 L 1873.71 1386.91 L 1871.03 1385.85 L 1868.43 1385.47 L 1865.80 1383.28 L 1863.01 1382.17 L 1860.27 1380.86 L 1857.47 1380.08 L 1854.54 1378.68 L 1852.22 1377.59 L 1849.22 1376.36 L 1846.21 1375.42 L 1843.91 1374.01 L 1841.03 1372.74 L 1838.22 1371.38 L 1835.25 1370.06 L 1832.91 1369.10 L 1830.10 1368.04 L 1827.23 1366.64 L 1824.40 1365.17 L 1821.78 1364.02 L 1819.16 1363.27 L 1816.30 1362.05 L 1813.33 1360.77 L 1810.42 1359.74 L 1807.38 1357.94 L 1805.23 1357.32 L 1802.61 1355.86 L 1799.83 1354.03 L 1797.13 1353.29 L 1794.21 1352.13 L 1791.35 1350.43 L 1788.61 1349.70 L 1786.65 1348.45 L 1783.37 1347.36 L 1780.83 1345.98 L 1777.73 1344.91 L 1775.46 1343.34 L 1772.12 1342.30 L 1769.50 1340.86 L 1766.93 1339.68 L 1764.57 1338.31 L 1761.36 1337.29 L 1758.49 1336.12 L 1755.92 1334.63 L 1753.37 1333.59 L 1750.24 1332.43 L 1747.47 1331.93 L 1745.05 1330.49 L 1742.41 1328.84 L 1739.25 1328.23 L 1736.73 1326.47 L 1733.53 1325.36 L 1730.84 1324.11 L 1728.66 1322.98 L 1725.67 1321.47 L 1722.84 1320.69 L 1720.57 1318.95 L 1717.07 1317.86 L 1714.78 1316.54 L 1712.05 1315.18 L 1709.19 1314.30 L 1706.39 1312.84 L 1704.22 1311.77 L 1701.18 1310.50 L 1698.26 1309.23 L 1695.37 1308.05 L 1692.72 1306.95 L 1690.04 1305.55 L 1687.19 1305.03 L 1684.58 1303.13 L 1681.84 1301.94 L 1679.19 1301.18 L 1676.27 1300.01 L 1673.82 1298.00 L 1670.89 1297.11 L 1667.87 1295.97 L 1665.55 1294.98 L 1662.66 1293.84 L 1659.96 1292.67 L 1657.21 1291.62 L 1654.70 1290.29 L 1651.61 1289.32 L 1649.06 1287.81 L 1646.22 1286.11 L 1643.26 1284.90 L 1640.71 1284.12 L 1637.96 1282.80 L 1635.48 1281.70 L 1632.59 1280.70 L 1629.90 1279.30 L 1626.98 1277.69 L 1624.55 1276.70 L 1621.48 1275.43 L 1618.58 1273.84 L 1615.87 1272.77 L 1612.95 1271.89 L 1610.18 1270.73 L 1607.71 1269.21 L 1605.30 1267.80 L 1602.46 1267.17 L 1599.54 1265.64 L 1596.71 1264.90 L 1594.01 1263.38 L 1591.08 1262.24 L 1588.47 1260.92 L 1585.57 1259.97 L 1582.85 1258.51 L 1580.27 1257.46 L 1577.89 1256.05 L 1575.03 1255.08 L 1572.35 1253.50 L 1569.43 1252.28 L 1566.56 1251.14 L 1564.09 1250.24 L 1561.55 1248.84 L 1558.72 1247.89 L 1556.15 1246.75 L 1552.73 1245.02 L 1549.81 1243.77 L 1547.56 1242.85 L 1545.05 1241.60 L 1541.90 1240.35 L 1539.40 1238.61 L 1536.66 1238.33 L 1533.45 1236.52 L 1531.22 1234.86 L 1528.56 1234.18 L 1525.37 1232.80 L 1523.16 1231.73 L 1520.19 1231.30 L 1516.97 1229.58 L 1514.59 1228.19 L 1511.51 1226.68 L 1508.95 1225.52 L 1506.06 1224.82 L 1503.22 1223.14 L 1500.90 1222.04 L 1498.28 1221.00 L 1495.20 1219.56 L 1492.55 1218.60 L 1489.88 1217.18 L 1486.94 1216.20 L 1484.76 1214.59 L 1481.69 1213.57 L 1478.85 1212.53 L 1476.45 1210.99 L 1473.64 1209.87 L 1471.12 1208.54 L 1467.82 1207.27 L 1464.72 1206.27 L 1462.15 1205.05 L 1459.79 1203.69 L 1457.17 1202.62 L 1454.16 1201.15 L 1451.28 1200.15 L 1448.21 1199.15 L 1446.14 1197.89 L 1443.35 1196.27 L 1440.98 1194.58 L 1438.21 1194.05 L 1435.08 1192.81 L 1432.22 1191.57 L 1429.77 1190.26 L 1426.85 1189.18 L 1424.18 1187.75 L 1421.65 1186.84 L 1418.50 1185.80 L 1415.73 1184.40 L 1412.96 1183.30 L 1410.06 1181.76 L 1407.51 1180.66 L 1404.89 1179.27 L 1401.94 1177.87 L 1398.92 1177.02 L 1396.60 1175.70 L 1394.13 1174.74 L 1390.97 1172.98 L 1388.27 1171.66 L 1385.72 1171.23 L 1382.82 1169.69 L 1379.99 1168.42 L 1377.64 1167.18 L 1374.84 1165.99 L 1372.06 1164.90 L 1369.37 1163.64 L 1366.33 1162.59 L 1363.41 1161.23 L 1361.00 1160.12 L 1358.81 1158.53 L 1355.30 1157.36 L 1352.90 1156.28 L 1349.92 1154.67 L 1347.45 1153.73 L 1344.76 1152.73 L 1341.89 1151.46 L 1338.93 1150.40 L 1336.16 1149.06 L 1333.51 1147.85 L 1331.03 1146.78 L 1327.98 1145.42 L 1325.23 1144.44 L 1322.26 1143.22 L 1319.99 1142.21 L 1316.81 1141.06 L 1314.52 1139.32 L 1311.60 1137.95 L 1308.56 1136.51 L 1306.31 1135.45 L 1303.06 1134.37 L 1300.51 1133.88 L 1297.77 1132.33 L 1295.31 1130.97 L 1292.27 1129.70 L 1290.15 1128.05 L 1286.95 1127.09 L 1284.09 1125.54 L 1281.16 1124.56 L 1278.72 1123.45 L 1276.01 1122.23 L 1272.76 1120.94 L 1270.51 1120.11 L 1267.64 1118.49 L 1264.88 1117.95 L 1262.32 1116.00 L 1259.49 1115.29 L 1256.46 1114.42 L 1253.84 1112.39 L 1251.53 1111.21 L 1248.45 1110.44 L 1245.51 1108.96 L 1242.85 1108.02 L 1240.47 1106.44 L 1237.42 1105.37 L 1234.41 1104.23 L 1231.65 1102.80 L 1229.36 1101.78 L 1226.43 1100.54 L 1223.71 1099.06 L 1221.38 1098.31 L 1218.28 1096.92 L 1215.57 1095.31 L 1212.81 1094.61 L 1210.02 1092.94 L 1207.45 1091.88 L 1204.81 1090.53 L 1201.88 1089.30 L 1199.21 1088.20 L 1196.29 1087.10 L 1193.63 1085.65 L 1191.03 1084.64 L 1188.21 1083.32 L 1185.35 1081.86 L 1182.80 1080.92 L 1179.83 1079.96 L 1177.26 1078.64 L 1174.32 1077.38 L 1171.57 1075.89 L 1168.91 1074.77 L 1166.08 1073.57 L 1163.38 1072.65 L 1160.67 1071.02 L 1157.71 1069.90 L 1155.37 1068.65 L 1152.29 1067.71 L 1149.54 1066.07 L 1146.77 1065.36 L 1144.65 1064.09 L 1141.67 1063.14 L 1138.67 1061.69 L 1135.89 1060.22 L 1133.09 1059.13 L 1130.68 1057.90 L 1127.66 1056.82 L 1125.31 1055.31 L 1122.52 1054.45 L 1119.90 1052.97 L 1116.70 1051.68 L 1114.18 1050.37 L 1111.55 1049.45 L 1109.01 1048.06 L 1105.94 1046.98 L 1103.11 1045.70 L 1100.53 1044.25 L 1097.35 1043.45 L 1094.61 1041.83 L 1092.08 1040.50 L 1089.30 1039.50 L 1086.98 1038.67 L 1084.37 1037.10 L 1081.34 1035.60 L 1078.62 1034.80 L 1075.90 1033.41 L 1073.36 1032.38 L 1070.24 1031.12 L 1067.45 1029.75 L 1064.86 1028.69 L 1062.01 1027.17 L 1059.03 1026.28 L 1056.58 1024.74 L 1053.68 1023.96 L 1051.31 1022.66 L 1048.19 1021.87 L 1045.52 1020.11 L 1042.70 1018.92 L 1040.03 1017.59 L 1037.36 1016.39 L 1034.56 1015.47 L 1032.09 1014.16 L 1028.80 1013.00 L 1026.53 1011.81 L 1023.67 1010.32 L 1020.90 1009.36 L 1018.39 1008.04 L 1015.47 1006.80 L 1012.78 1005.15 L 1009.99 1004.47 L 1007.52 1003.00 L 1004.57 1002.39 L 1001.64 1000.91 L 1000.00 1000.00 L 997.26 998.79 L 994.52 997.55 L 991.79 996.31 L 989.06 995.07 L 986.32 993.84 L 983.60 992.59 L 980.87 991.34 L 978.15 990.08 L 975.43 988.81 L 972.71 987.53 L 970.00 986.25 L 967.30 984.95 L 964.59 983.66 L 961.90 982.33 L 959.21 980.99 L 956.52 979.67 L 953.83 978.35 L 951.13 977.04 L 948.43 975.74 L 945.73 974.42 L 943.03 973.12 L 940.32 971.82 L 937.63 970.50 L 934.93 969.20 L 932.23 967.88 L 929.54 966.55 L 926.85 965.22 L 924.15 963.92 L 921.44 962.64 L 918.72 961.36 L 916.02 960.06 L 913.30 958.79 L 910.57 957.54 L 907.85 956.28 L 905.13 955.02 L 902.40 953.77 L 899.68 952.52 L 896.95 951.26 L 894.22 950.02 L 891.50 948.77 L 888.77 947.51 L 886.05 946.25 L 883.33 944.99 L 880.60 943.73 L 877.88 942.48 L 875.15 941.23 L 872.43 939.97 L 869.70 938.71 L 866.97 937.48 L 864.23 936.26 L 861.49 935.03 L 858.75 933.81 L 856.02 932.57 L 853.27 931.38 L 850.51 930.19 L 847.76 929.00 L 845.00 927.81 L 842.26 926.60 L 839.51 925.39 L 836.76 924.20 L 834.02 922.97 L 831.28 921.74 L 828.54 920.53 L 825.79 919.33 L 823.05 918.12 L 820.30 916.92 L 817.55 915.71 L 814.82 914.46 L 812.10 913.21 L 809.36 911.99 L 806.63 910.74 L 803.91 909.47 L 801.18 908.22 L 798.46 906.97 L 795.72 905.74 L 792.97 904.54 L 790.22 903.34 L 787.48 902.13 L 784.73 900.92 L 781.99 899.70 L 779.27 898.44 L 776.55 897.17 L 773.83 895.91 L 771.11 894.64 L 768.37 893.41 L 765.65 892.16 L 762.92 890.92 L 760.18 889.69 L 757.44 888.46 L 754.71 887.21 L 751.99 885.96 L 749.26 884.72 L 746.52 883.48 L 743.79 882.25 L 741.05 881.02 L 738.32 879.78 L 735.60 878.53 L 732.88 877.25 L 730.16 875.98 L 727.44 874.72 L 724.71 873.47 L 721.98 872.23 L 719.26 870.96 L 716.54 869.69 L 713.82 868.43 L 711.09 867.18 L 708.37 865.91 L 705.66 864.65 L 702.93 863.39 L 700.22 862.11 L 697.51 860.83 L 694.81 859.52 L 692.10 858.22 L 689.40 856.92 L 686.69 855.63 L 683.99 854.33 L 681.28 853.04 L 678.56 851.78 L 675.83 850.53 L 673.11 849.26 L 670.40 847.98 L 667.69 846.69 L 664.97 845.42 L 662.26 844.14 L 659.54 842.87 L 656.82 841.60 L 654.11 840.31 L 651.41 839.02 L 648.69 837.74 L 645.98 836.46 L 643.27 835.18 L 640.55 833.91 L 637.83 832.64 L 635.10 831.40 L 632.37 830.15 L 629.65 828.89 L 626.92 827.64 L 624.19 826.39 L 621.46 825.15 L 618.72 823.92 L 615.99 822.69 L 613.26 821.45 L 610.52 820.22 L 607.78 819.01 L 605.04 817.78 L 602.30 816.55 L 599.57 815.32 L 596.83 814.10 L 594.08 812.89 L 591.32 811.71 L 588.57 810.53 L 585.82 809.32 L 583.07 808.12 L 580.31 806.95 L 577.56 805.76 L 574.79 804.58 L 572.03 803.41 L 569.29 802.20 L 566.54 801.00 L 563.80 799.77 L 561.06 798.56 L 558.30 797.37 L 555.55 796.18 L 552.81 794.96 L 550.07 793.75 L 547.32 792.53 L 544.56 791.35 L 541.81 790.16 L 539.05 788.98 L 536.30 787.80 L 533.54 786.62 L 530.78 785.45 L 528.01 784.28 L 525.24 783.14 L 522.46 782.01 L 519.68 780.87 L 516.91 779.72 L 514.14 778.57 L 511.37 777.42 L 508.60 776.26 L 505.84 775.10 L 503.07 773.94 L 500.30 772.78 L 497.55 771.59 L 494.79 770.41 L 492.03 769.24 L 489.27 768.06 L 486.50 766.91 L 483.74 765.74 L 480.98 764.55 L 478.23 763.36 L 475.47 762.18 L 472.72 760.99 L 469.97 759.79 L 467.21 758.60 L 464.46 757.42 L 461.70 756.24 L 458.94 755.06 L 456.20 753.84 L 453.47 752.59 L 450.76 751.31 L 448.04 750.05 L 445.33 748.76 L 442.62 747.47 L 439.90 746.21 L 437.19 744.92 L 434.48 743.63 L 431.78 742.33 L 429.07 741.04 L 426.35 739.77 L 423.63 738.50 L 420.91 737.23 L 418.18 735.99 L 415.46 734.72 L 412.74 733.47 L 410.00 732.24 L 407.27 730.99 L 404.54 729.75 L 401.81 728.52 L 399.07 727.29 L 396.34 726.05 L 393.61 724.80 L 390.89 723.54 L 388.18 722.26 L 385.46 720.98 L 382.75 719.69 L 380.04 718.42 L 377.32 717.14 L 374.61 715.85 L 371.90 714.57 L 369.20 713.25 L 366.51 711.93 L 363.82 710.60 L 361.13 709.28 L 358.44 707.95 L 355.75 706.63 L 353.05 705.32 L 350.35 704.00 L 347.67 702.65 L 345.00 701.29 L 342.33 699.93 L 339.66 698.55 L 336.99 697.18 L 334.33 695.81 L 331.66 694.42 L 329.00 693.05 L 326.34 691.65 L 323.68 690.28 L 320.99 688.94 L 318.31 687.60 L 315.61 686.28 L 312.91 684.97 L 310.20 683.68 L 307.50 682.39 L 304.80 681.08 L 302.10 679.77 L 299.41 678.44 L 296.71 677.12 L 294.02 675.79 L 291.33 674.47 L 288.64 673.15 L 285.95 671.82 L 283.27 670.47 L 280.60 669.10 L 277.91 667.77 L 275.23 666.43 L 272.53 665.12 L 269.82 663.83 L 267.11 662.54 L 264.39 661.28 L 261.65 660.05 L 258.91 658.84 L 256.17 657.60 L 253.45 656.35 L 250.72 655.11 L 247.98 653.87 L 245.25 652.65 L 242.49 651.46 L 239.72 650.30 L 236.95 649.15 L 234.18 648.00 L 231.42 646.84 L 228.65 645.68 L 225.89 644.51 L 223.13 643.33 L 220.37 642.16 L 217.61 640.98 L 214.85 639.81 L 212.08 638.65 L 209.30 637.52 L 206.52 636.40 L 203.73 635.30 L 200.94 634.19 L 198.16 633.06 L 195.39 631.91 L 192.61 630.78 L 189.84 629.63 L 187.07 628.47 L 184.31 627.30 L 181.56 626.11 L 178.81 624.89 L 176.08 623.66 L 173.35 622.42 L 170.61 621.19 L 167.87 619.98 L 165.13 618.75 L 162.39 617.53 L 159.65 616.31 L 156.90 615.10 L 154.17 613.87 L 151.43 612.65 L 148.69 611.42 L 145.95 610.19 L 143.21 608.97 L 140.47 607.76 L 137.74 606.52 L 135.01 605.26 L 132.29 604.01 L 129.56 602.77 L 126.81 601.56 L 124.05 600.38 L 121.29 599.21 L 118.52 598.05 L 115.75 596.90 L 112.97 595.77 L 110.21 594.61 L 107.44 593.45 L 104.68 592.26 L 101.92 591.10 L 99.15 589.95 L 96.39 588.77 L 93.63 587.59 L 90.87 586.42 L 88.09 585.28 L 85.32 584.14 L 82.55 582.98 L 79.78 581.82 L 77.00 580.69 L 74.23 579.55 L 71.46 578.41 L 68.69 577.25 L 65.92 576.11 L 63.13 574.98 L 60.36 573.85 L 57.58 572.72 L 54.80 571.58 L 52.02 570.46 L 49.24 569.34 L 46.44 568.24 L 43.66 567.12 L 40.88 565.99 L 38.11 564.84 L 35.35 563.67 L 32.60 562.47 L 29.84 561.28 L 27.08 560.12 L 24.31 558.98 L 21.53 557.83 L 18.75 556.71 L 15.96 555.61 L 13.17 554.50 L 10.39 553.38 L 7.59 552.30 L 4.80 551.19 L 2.02 550.08 L -0.77 548.96 L -3.55 547.83 L -6.33 546.71 L -9.11 545.58 L -11.87 544.42 L -14.64 543.25 L -17.41 542.10 L -20.18 540.97" stroke="rgb(245,245,245)" stroke-opacity="0.699" stroke-width="1.09" />
  <path d="M 955.80 990.82 L 953.50 989.37 L 951.15 988.02 L 948.74 986.81 L 946.34 985.58 L 943.94 984.39 L 941.57 983.17 L 939.21 981.95 L 936.86 980.74 L 934.60 979.38 L 932.37 977.99 L 930.13 976.64 L 927.90 975.30 L 925.74 973.86 L 923.54 972.51 L 921.34 971.16 L 919.18 969.79 L 916.99 968.48 L 914.73 967.30 L 912.51 966.10 L 910.30 964.87 L 908.10 963.65 L 905.93 962.42 L 903.78 961.16 L 901.59 959.99 L 899.44 958.77 L 897.33 957.49 L 895.26 956.18 L 893.22 954.84 L 891.17 953.53 L 889.13 952.22 L 887.06 950.98 L 885.07 949.63" stroke="rgb(140,255,190)" stroke-opacity="0.524" stroke-width="1.09" />
  <path d="M 1083.84 978.69 L 1086.56 979.36 L 1089.29 979.95 L 1092.00 980.53 L 1094.68 981.23 L 1097.33 981.98 L 1099.93 982.86 L 1102.48 983.83 L 1105.03 984.79 L 1107.57 985.72 L 1110.07 986.74 L 1112.57 987.75 L 1115.06 988.73 L 1117.53 989.74 L 1120.02 990.67 L 1122.49 991.62 L 1124.93 992.61 L 1127.39 993.53 L 1129.82 994.50 L 1132.22 995.51 L 1134.58 996.59 L 1136.95 997.60 L 1139.30 998.67 L 1141.67 999.64 L 1144.06 1000.54 L 1146.47 1001.34 L 1148.88 1002.11 L 1151.28 1002.90 L 1153.67 1003.67 L 1156.05 1004.44 L 1158.41 1005.25 L 1160.77 1005.99 L 1163.12 1006.76 L 1165.46 1007.54 L 1167.79 1008.30 L 1170.13 1009.01" stroke="rgb(140,255,190)" stroke-opacity="0.524" stroke-width="1.09" />
  <path d="M 998.21 1003.96 L 998.19 1006.53 L 998.08 1009.09 L 997.95 1011.64 L 997.80 1014.18 L 997.58 1016.71 L 997.33 1019.22 L 996.95 1021.71 L 996.59 1024.18 L 996.19 1026.64 L 995.89 1029.11 L 995.60 1031.57 L 995.35 1034.02 L 995.04 1036.45 L 994.91 1038.89 L 994.78 1041.32 L 994.66 1043.74 L 994.57 1046.16 L 994.47 1048.56 L 994.45 1050.95 L 994.46 1053.34 L 994.48 1055.72 L 994.37 1058.08 L 994.29 1060.44 L 994.36 1062.78 L 994.39 1065.12 L 994.36 1067.45 L 994.43 1069.77 L 994.52 1072.08 L 994.65 1074.38 L 994.76 1076.66 L 994.88 1078.94 L 995.00 1081.22 L 995.16 1083.47 L 995.18 1085.73 L 995.14 1087.98 L 995.13 1090.21 L 995.15 1092.44 L 995.20 1094.66 L 995.30 1096.87 L 995.43 1099.07 L 995.50 1101.26 L 995.49 1103.45 L 995.43 1105.62 L 995.31 1107.78 L 995.25 1109.94 L 995.16 1112.09 L 995.03 1114.23 L 995.06 1116.36 L 995.01 1118.48 L 994.94 1120.60 L 994.86 1122.70 L 994.79 1124.80 L 994.75 1126.89 L 994.72 1128.97" stroke="rgb(205,165,255)" stroke-opacity="0.462" stroke-width="1.08" />
  <path d="M 997.78 1004.88 L 996.79 1006.00 L 995.67 1006.99 L 994.55 1007.97 L 993.48 1009.00" stroke="rgb(230,230,230)" stroke-opacity="0.386" stroke-width="0.71" />
  <path d="M 1003.56 1003.98 L 1005.06 1004.01 L 1006.54 1003.79 L 1008.02 1003.76 L 1009.51 1003.74 L 1010.98 1003.76" stroke="rgb(230,230,230)" stroke-opacity="0.383" stroke-width="0.70" />
  <path d="M 998.93 996.66 L 998.63 995.19 L 998.31 993.73 L 998.10 992.26 L 998.00 990.78 L 997.90 989.31 L 997.75 987.85 L 997.67 986.38 L 997.62 984.93 L 997.39 983.49 L 997.11 982.07" stroke="rgb(230,230,230)" stroke-opacity="0.380" stroke-width="0.70" />
  <path d="M 1000.01 996.52 L 998.98 997.61 L 998.05 998.78 L 997.09 999.91 L 996.17 1001.08 L 995.25 1002.23 L 994.27 1003.32 L 993.30 1004.42 L 992.40 1005.57" stroke="rgb(230,230,230)" stroke-opacity="0.379" stroke-width="0.69" />
  <path d="M 1002.42 999.54 L 1001.52 998.35 L 1000.74 997.07 L 999.91 995.84 L 999.11 994.59 L 998.40 993.30 L 997.66 992.03 L 996.96 990.74 L 996.31 989.43 L 995.70 988.12 L 995.26 986.74" stroke="rgb(230,230,230)" stroke-opacity="0.376" stroke-width="0.68" />
  <path d="M 999.66 1001.69 L 998.18 1001.47 L 996.69 1001.31 L 995.21 1001.21 L 993.72 1001.20 L 992.25 1001.12 L 990.78 1001.02" stroke="rgb(230,230,230)" stroke-opacity="0.375" stroke-width="0.68" />
  <path d="M 999.28 1003.66 L 1000.14 1004.88 L 1001.10 1006.03 L 1002.06 1007.17 L 1002.98 1008.33" stroke="rgb(230,230,230)" stroke-opacity="0.375" stroke-width="0.68" />
  <path d="M 996.88 991.15 L 997.80 989.97 L 998.65 988.74 L 999.48 987.50 L 1000.37 986.32 L 1001.21 985.11 L 1001.91 983.81 L 1002.67 982.56" stroke="rgb(230,230,230)" stroke-opacity="0.373" stroke-width="0.67" />
  <path d="M 993.45 997.43 L 993.40 998.93 L 993.38 1000.43 L 993.20 1001.90" stroke="rgb(230,230,230)" stroke-opacity="0.368" stroke-width="0.66" />
  <path d="M 1005.51 998.31 L 1004.57 999.48 L 1003.76 1000.73 L 1002.99 1002.01 L 1002.29 1003.32 L 1001.70 1004.67 L 1001.07 1006.00 L 1000.44 1007.32 L 999.84 1008.65 L 999.13 1009.91 L 998.52 1011.23 L 997.93 1012.54 L 997.28 1013.82 L 996.61 1015.09" stroke="rgb(230,230,230)" stroke-opacity="0.364" stroke-width="0.65" />
  <path d="M 998.79 1002.19 L 999.77 1003.32 L 1000.71 1004.48 L 1001.73 1005.56 L 1002.76 1006.63 L 1003.75 1007.73 L 1004.80 1008.75 L 1005.87 1009.75" stroke="rgb(230,230,230)" stroke-opacity="0.363" stroke-width="0.65" />
  <path d="M 995.44 998.32 L 995.28 999.81 L 995.16 1001.30 L 995.10 1002.78 L 995.27 1004.26" stroke="rgb(230,230,230)" stroke-opacity="0.359" stroke-width="0.64" />
  <path d="M 997.03 998.53 L 997.29 997.06 L 997.75 995.63 L 998.11 994.19 L 998.47 992.75 L 998.90 991.34 L 999.43 989.97 L 999.86 988.57 L 1000.46 987.24 L 1000.89 985.85 L 1001.29 984.46 L 1001.72 983.09 L 1002.29 981.77" stroke="rgb(230,230,230)" stroke-opacity="0.358" stroke-width="0.63" />
  <path d="M 1004.39 1002.96 L 1005.80 1002.43 L 1007.24 1002.05 L 1008.70 1001.73 L 1010.12 1001.30 L 1011.55 1000.94 L 1012.94 1000.47" stroke="rgb(230,230,230)" stroke-opacity="0.357" stroke-width="0.63" />
  <path d="M 1000.52 997.40 L 999.50 996.31 L 998.57 995.14 L 997.50 994.11 L 996.33 993.19 L 995.06 992.44 L 993.68 991.93 L 992.25 991.61 L 990.96 990.93 L 989.66 990.29" stroke="rgb(230,230,230)" stroke-opacity="0.356" stroke-width="0.63" />
  <path d="M 998.54 1001.80 L 997.93 1000.43 L 997.27 999.08" stroke="rgb(230,230,230)" stroke-opacity="0.354" stroke-width="0.62" />
  <path d="M 1002.03 992.66 L 1001.81 994.14 L 1001.71 995.63 L 1001.60 997.12 L 1001.51 998.60 L 1001.49 1000.07 L 1001.46 1001.54 L 1001.41 1003.01 L 1001.26 1004.46 L 1000.96 1005.88 L 1000.67 1007.30 L 1000.31 1008.69 L 999.96 1010.08" stroke="rgb(230,230,230)" stroke-opacity="0.353" stroke-width="0.62" />
  <path d="M 995.27 1002.54 L 994.42 1003.77 L 993.79 1005.13 L 993.21 1006.50 L 992.67 1007.88 L 992.15 1009.26" stroke="rgb(230,230,230)" stroke-opacity="0.348" stroke-width="0.61" />
</g>
</svg>
