{
  "asset": {
    "version": "2.0",
    "generator": "TES-23 Cosmic Ray Renderer"
  },
  "extensionsUsed": [
    "KHR_materials_unlit"
  ],
  "extensionsRequired": [
    "KHR_materials_unlit"
  ],
  "scene": 0,
  "scenes": [
    {
      "nodes": [
        0
      ]
    }
  ],
  "nodes": [
    {
      "name": "CosmicRayEvent",
      "mesh": 0
    }
  ],
  "meshes": [
    {
      "name": "CosmicRayEvent",
      "primitives": [
        {
          "attributes": {
            "POSITION": 0
          },
          "material": 0,
          "mode": 1
        },
        {
          "attributes": {
            "POSITION": 1
          },
          "material": 1,
          "mode": 1
        },
        {
          "attributes": {
            "POSITION": 2
          },
          "material": 2,
          "mode": 1
        },
        {
          "attributes": {
            "POSITION": 3
          },
          "material": 3,
          "mode": 1
        },
        {
          "attributes": {
            "POSITION": 4
          },
          "material": 4,
          "mode": 1
        }
      ]
    }
  ],
  "materials": [
    {
      "name": "primary",
      "extensions": {
        "KHR_materials_unlit": {}
      },
      "pbrMetallicRoughness": {
        "baseColorFactor": [
          0.961,
          0.961,
          0.961,
          1
        ],
        "metallicFactor": 0,
        "roughnessFactor": 1
      }
    },
    {
      "name": "vertex",
      "extensions": {
        "KHR_materials_unlit": {}
      },
      "pbrMetallicRoughness": {
        "baseColorFactor": [
          0.902,
          0.902,
          0.902,
          0.9
        ],
        "metallicFactor": 0,
        "roughnessFactor": 1
      }
    },
    {
      "name": "em",
      "extensions": {
        "KHR_materials_unlit": {}
      },
      "pbrMetallicRoughness": {
        "baseColorFactor": [
          0.471,
          0.824,
          1,
          1
        ],
        "metallicFactor": 0,
        "roughnessFactor": 1
      }
    },
    {
      "name": "hadron",
      "extensions": {
        "KHR_materials_unlit": {}
      },
      "pbrMetallicRoughness": {
        "baseColorFactor": [
          0.549,
          1,
          0.745,
          1
        ],
        "metallicFactor": 0,
        "roughnessFactor": 1
      }
    },
    {
      "name": "delta",
      "extensions": {
        "KHR_materials_unlit": {}
      },
      "pbrMetallicRoughness": {
        "baseColorFactor": [
          0.804,
          0.647,
          1,
          1
        ],
        "metallicFactor": 0,
        "roughnessFactor": 1
      }
    }
  ],
  "accessors": [
    {
      "bufferView": 0,
      "byteOffset": 0,
      "componentType": 5126,
      "count": 1486,
      "type": "VEC3",
      "min": [
        -0.4636268615722656,
        -1.0001088380813599,
        0
      ],
      "max": [
        0.470164030790329,
        1.0212903022766113,
        0
      ]
    },
    {
      "bufferView": 1,
      "byteOffset": 0,
      "componentType": 5126,
      "count": 306,
      "type": "VEC3",
      "min": [
        -0.010465150699019432,
        -0.01609497144818306,
        -0.05018888786435127
      ],
      "max": [
        0.014194916002452374,
        0.027685804292559624,
        0.06794898957014084
      ]
    },
    {
      "bufferView": 2,
      "byteOffset": 0,
      "componentType": 5126,
      "count": 840,
      "type": "VEC3",
      "min": [
        -0.0878673791885376,
        -0.0049559311009943485,
        -0.05449136346578598
      ],
      "max": [
        0.0030543303582817316,
        0.20462289452552795,
        0.034849684685468674
      ]
    },
    {
      "bufferView": 3,
      "byteOffset": 0,
      "componentType": 5126,
      "count": 3082,
      "type": "VEC3",
      "min": [
        -0.30804502964019775,
        -0.005358501337468624,
        -0.8096429109573364
      ],
      "max": [
        0.02795606292784214,
        0.3527166545391083,
        0.4948246479034424
      ]
    },
    {
      "bufferView": 4,
      "byteOffset": 0,
      "componentType": 5126,
      "count": 732,
      "type": "VEC3",
      "min": [
        -0.031789105385541916,
        -0.13348791003227234,
        -0.2810361087322235
      ],
      "max": [
        0.19900821149349213,
        0.16826294362545013,
        1.0170468091964722
      ]
    }
  ],
  "bufferViews": [
    {
      "buffer": 0,
      "byteOffset": 0,
      "byteLength": 17832,
      "target": 34962
    },
    {
      "buffer": 0,
      "byteOffset": 17832,
      "byteLength": 3672,
      "target": 34962
    },
    {
      "buffer": 0,
      "byteOffset": 21504,
      "byteLength": 10080,
      "target": 34962
    },
    {
      "buffer": 0,
      "byteOffset": 31584,
      "byteLength": 36984,
      "target": 34962
    },
    {
      "buffer": 0,
      "byteOffset": 68568,
      "byteLength": 8784,
      "target": 34962
    }
  ],
  "buffers": [
    {
      "byteLength": 77352,
      "uri": "data:application/octet-stream;base64,"
    }
  ]
}