<?xml version="1.0" encoding="UTF-8"?>
<svg xmlns="http://www.w3.org/2000/svg" width="2000" height="2000" viewBox="0 0 2000 2000">
<g fill="none" stroke-linecap="round" stroke-linejoin="round">
  <path d="M 1001.36 1005.24 L 1004.39 1005.73 L 1007.41 1006.18 L 1010.41 1006.65 L 1013.41 1007.08 L 1016.40 1007.51 L 1019.37 1007.88 L 1022.32 1008.35 L 1025.26 1008.82 L 1028.18 1009.29 L 1031.10 1009.76 L 1034.01 1010.16 L 1036.92 1010.51 L 1039.82 1010.86 L 1042.70 1011.16 L 1045.58 1011.39 L 1048.45 1011.60 L 1051.31 1011.81 L 1054.16 1012.02 L 1056.99 1012.29 L 1059.81 1012.57 L 1062.63 1012.82 L 1065.43 1013.07 L 1068.22 1013.29 L 1071.01 1013.54 L 1073.78 1013.76 L 1076.54 1013.95 L 1079.30 1014.15 L 1082.04 1014.34 L 1084.77 1014.51 L 1087.48 1014.75 L 1090.19 1014.98 L 1092.88 1015.17 L 1095.56 1015.43 L 1098.23 1015.72 L 1100.87 1016.10 L 1103.51 1016.44 L 1106.12 1016.86 L 1108.73 1017.29" stroke="rgb(120,210,255)" stroke-opacity="0.470" stroke-width="1.64" />
  <path d="M 1002.85 1000.42 L 1006.14 1000.91 L 1009.42 1001.43 L 1012.68 1001.94 L 1015.92 1002.45 L 1019.15 1003.00 L 1022.36 1003.55 L 1025.57 1004.07 L 1028.76 1004.58 L 1031.94 1005.08 L 1035.12 1005.56 L 1038.27 1006.08 L 1041.41 1006.60 L 1044.53 1007.13 L 1047.64 1007.69 L 1050.73 1008.27 L 1053.80 1008.88 L 1056.86 1009.50 L 1059.91 1010.10 L 1062.94 1010.72 L 1065.96 1011.35 L 1068.97 1011.92 L 1071.98 1012.49 L 1074.99 1012.97 L 1077.98 1013.46 L 1080.96 1013.96 L 1083.92 1014.46 L 1086.89 1014.91 L 1089.84 1015.31 L 1092.79 1015.70 L 1095.73 1016.08 L 1098.64 1016.50 L 1101.55 1016.89 L 1104.45 1017.29 L 1107.33 1017.68 L 1110.21 1018.08 L 1113.07 1018.48 L 1115.92 1018.86 L 1118.76 1019.23 L 1121.59 1019.61 L 1124.41 1020.01 L 1127.22 1020.41 L 1130.01 1020.80 L 1132.79 1021.21 L 1135.56 1021.65 L 1138.31 1022.09 L 1141.05 1022.53 L 1143.78 1022.99 L 1146.49 1023.47 L 1149.19 1023.94 L 1151.88 1024.48 L 1154.55 1025.00 L 1157.20 1025.54 L 1159.84 1026.11 L 1162.48 1026.65 L 1165.10 1027.18 L 1167.72 1027.71 L 1170.33 1028.23 L 1172.92 1028.74 L 1175.52 1029.20 L 1178.10 1029.66" stroke="rgb(120,210,255)" stroke-opacity="0.854" stroke-width="1.64" />
  <path d="M 999.30 1000.47 L 1002.46 1001.16 L 1005.61 1001.85 L 1008.72 1002.62 L 1011.83 1003.36 L 1014.94 1004.06 L 1018.04 1004.75 L 1021.12 1005.42 L 1024.20 1006.09 L 1027.25 1006.75 L 1030.27 1007.45 L 1033.29 1008.15 L 1036.30 1008.85 L 1039.30 1009.53 L 1042.30 1010.12 L 1045.30 1010.70 L 1048.29 1011.25 L 1051.27 1011.79 L 1054.24 1012.29 L 1057.20 1012.85 L 1060.15 1013.39 L 1063.08 1013.91 L 1066.01 1014.44 L 1068.93 1014.95 L 1071.83 1015.47 L 1074.73 1015.94 L 1077.61 1016.43 L 1080.49 1016.94 L 1083.35 1017.45 L 1086.19 1018.02 L 1089.02 1018.55 L 1091.85 1019.09 L 1094.66 1019.60" stroke="rgb(120,210,255)" stroke-opacity="0.853" stroke-width="1.63" />
  <path d="M 1151.88 1024.48 L 1155.16 1024.62 L 1158.44 1024.75 L 1161.70 1024.94 L 1164.95 1025.10 L 1168.19 1025.27 L 1171.41 1025.53 L 1174.62 1025.79 L 1177.82 1026.08 L 1181.01 1026.36 L 1184.18 1026.65 L 1187.34 1026.94 L 1190.49 1027.22 L 1193.62 1027.50 L 1196.74 1027.76 L 1199.86 1027.95 L 1202.97 1028.16 L 1206.06 1028.34 L 1209.15 1028.51 L 1212.22 1028.68 L 1215.28 1028.82 L 1218.33 1028.89 L 1221.37 1028.98 L 1224.40 1029.08 L 1227.42 1029.18 L 1230.42 1029.24 L 1233.41 1029.26 L 1236.39 1029.22 L 1239.35 1029.05 L 1242.30 1028.86 L 1245.24 1028.68 L 1248.17 1028.51 L 1251.09 1028.36 L 1254.00 1028.19 L 1256.89 1028.04 L 1259.78 1027.95 L 1262.66 1027.86 L 1265.52 1027.75 L 1268.37 1027.67 L 1271.21 1027.59 L 1274.04 1027.51 L 1276.86 1027.40 L 1279.66 1027.28 L 1282.46 1027.17 L 1285.24 1027.03 L 1288.01 1026.89 L 1290.77 1026.78 L 1293.52 1026.66 L 1296.26 1026.55 L 1298.99 1026.45 L 1301.70 1026.33" stroke="rgb(120,210,255)" stroke-opacity="0.852" stroke-width="1.63" />
  <path d="M 1054.16 1012.02 L 1057.30 1012.85 L 1060.43 1013.72 L 1063.55 1014.53 L 1066.66 1015.34 L 1069.76 1016.13 L 1072.84 1016.93 L 1075.91 1017.71 L 1078.98 1018.47 L 1082.04 1019.22" stroke="rgb(120,210,255)" stroke-opacity="0.852" stroke-width="1.63" />
  <path d="M 1198.12 1013.66 L 1201.40 1014.55 L 1204.67 1015.43 L 1207.91 1016.37 L 1211.14 1017.31 L 1214.35 1018.25 L 1217.54 1019.23 L 1220.71 1020.22 L 1223.87 1021.21 L 1227.01 1022.19 L 1230.15 1023.16 L 1233.27 1024.12 L 1236.38 1025.08 L 1239.48 1026.05 L 1242.56 1027.01 L 1245.63 1027.96 L 1248.69 1028.92 L 1251.74 1029.85 L 1254.78 1030.78 L 1257.79 1031.76 L 1260.81 1032.66 L 1263.81 1033.57 L 1266.81 1034.46 L 1269.80 1035.35 L 1272.77 1036.23 L 1275.74 1037.09 L 1278.70 1037.96 L 1281.65 1038.80 L 1284.57 1039.70 L 1287.48 1040.59 L 1290.37 1041.49 L 1293.24 1042.41 L 1296.13 1043.25" stroke="rgb(120,210,255)" stroke-opacity="0.849" stroke-width="1.62" />
  <path d="M 1092.88 1015.17 L 1095.89 1015.94 L 1098.88 1016.69 L 1101.86 1017.42 L 1104.82 1018.21 L 1107.77 1019.00 L 1110.70 1019.78 L 1113.61 1020.65 L 1116.49 1021.55 L 1119.35 1022.46 L 1122.20 1023.39 L 1125.04 1024.29 L 1127.91 1025.06 L 1130.78 1025.77 L 1133.64 1026.48 L 1136.48 1027.22 L 1139.29 1027.98 L 1142.09 1028.76 L 1144.91 1029.41 L 1147.73 1030.03 L 1150.54 1030.64 L 1153.33 1031.25 L 1156.13 1031.82 L 1158.93 1032.32 L 1161.72 1032.81 L 1164.49 1033.29 L 1167.27 1033.73 L 1170.04 1034.11 L 1172.80 1034.43 L 1175.57 1034.66 L 1178.32 1034.89 L 1181.06 1035.14 L 1183.78 1035.44 L 1186.49 1035.75 L 1189.18 1036.05 L 1191.86 1036.40 L 1194.54 1036.68 L 1197.20 1036.98 L 1199.85 1037.31 L 1202.49 1037.63 L 1205.12 1037.96 L 1207.72 1038.30 L 1210.31 1038.67 L 1212.90 1038.98 L 1215.49 1039.23 L 1218.06 1039.49 L 1220.61 1039.85 L 1223.15 1040.28" stroke="rgb(120,210,255)" stroke-opacity="0.467" stroke-width="1.62" />
  <path d="M 999.90 999.38 L 1003.05 999.79 L 1006.17 1000.21 L 1009.29 1000.63 L 1012.39 1001.06 L 1015.47 1001.52 L 1018.55 1001.96 L 1021.60 1002.42 L 1024.64 1002.93 L 1027.65 1003.51 L 1030.65 1004.08 L 1033.64 1004.66 L 1036.61 1005.25 L 1039.57 1005.81 L 1042.53 1006.36 L 1045.49 1006.83 L 1048.44 1007.28 L 1051.38 1007.71 L 1054.31 1008.13 L 1057.22 1008.55 L 1060.12 1009.05 L 1063.00 1009.55 L 1065.87 1010.04 L 1068.72 1010.56 L 1071.57 1011.05 L 1074.39 1011.60 L 1077.21 1012.13 L 1080.02 1012.61 L 1082.82 1013.10 L 1085.61 1013.61 L 1088.37 1014.12 L 1091.13 1014.61 L 1093.88 1015.10 L 1096.62 1015.57 L 1099.36 1015.98 L 1102.09 1016.40 L 1104.81 1016.77 L 1107.52 1017.13 L 1110.22 1017.49 L 1112.91 1017.86 L 1115.59 1018.23 L 1118.26 1018.60 L 1120.92 1018.97 L 1123.56 1019.36 L 1126.19 1019.81" stroke="rgb(120,210,255)" stroke-opacity="0.849" stroke-width="1.62" />
  <path d="M 1002.72 1001.35 L 1006.07 1002.06 L 1009.39 1002.79 L 1012.71 1003.51 L 1016.01 1004.23 L 1019.30 1004.96 L 1022.57 1005.69 L 1025.83 1006.42 L 1029.08 1007.11 L 1032.32 1007.81 L 1035.54 1008.51 L 1038.74 1009.25 L 1041.93 1009.98 L 1045.11 1010.68 L 1048.28 1011.39 L 1051.44 1012.09 L 1054.58 1012.78 L 1057.72 1013.43 L 1060.85 1014.07 L 1063.96 1014.76 L 1067.03 1015.53 L 1070.09 1016.29 L 1073.14 1017.01 L 1076.18 1017.77 L 1079.20 1018.53 L 1082.22 1019.26 L 1085.23 1019.98 L 1088.23 1020.67 L 1091.22 1021.36 L 1094.20 1022.02 L 1097.19 1022.62 L 1100.17 1023.18 L 1103.14 1023.70 L 1106.11 1024.19 L 1109.06 1024.66 L 1112.01 1025.13 L 1114.95 1025.57 L 1117.87 1026.05 L 1120.78 1026.49 L 1123.68 1026.93 L 1126.58 1027.34 L 1129.46 1027.77 L 1132.33 1028.19 L 1135.18 1028.65 L 1138.03 1029.07 L 1140.86 1029.48 L 1143.69 1029.87 L 1146.50 1030.28 L 1149.31 1030.66 L 1152.09 1031.06 L 1154.87 1031.47 L 1157.64 1031.82 L 1160.40 1032.19 L 1163.15 1032.59 L 1165.87 1033.02 L 1168.59 1033.45 L 1171.30 1033.86 L 1173.99 1034.29 L 1176.67 1034.70 L 1179.35 1035.11 L 1182.01 1035.50 L 1184.67 1035.90" stroke="rgb(120,210,255)" stroke-opacity="0.849" stroke-width="1.62" />
  <path d="M 1000.69 1002.05 L 1003.59 1002.63 L 1006.49 1003.18 L 1009.37 1003.74 L 1012.24 1004.30 L 1015.11 1004.81 L 1017.98 1005.22 L 1020.85 1005.60 L 1023.70 1005.99 L 1026.53 1006.47 L 1029.34 1006.95 L 1032.15 1007.39 L 1034.96 1007.76 L 1037.76 1008.14 L 1040.54 1008.52" stroke="rgb(120,210,255)" stroke-opacity="0.466" stroke-width="1.62" />
  <path d="M 996.63 997.82 L 999.90 998.07 L 1003.17 998.32 L 1006.42 998.57 L 1009.66 998.78 L 1012.89 998.93 L 1016.11 999.08 L 1019.31 999.22 L 1022.51 999.34 L 1025.69 999.46 L 1028.85 999.65 L 1032.00 999.84 L 1035.14 1000.05 L 1038.27 1000.22 L 1041.39 1000.38 L 1044.49 1000.55 L 1047.58 1000.70 L 1050.66 1000.80 L 1053.72 1000.92 L 1056.77 1001.04 L 1059.81 1001.17 L 1062.84 1001.29 L 1065.85 1001.39 L 1068.85 1001.51 L 1071.84 1001.64 L 1074.82 1001.79 L 1077.78 1001.95 L 1080.74 1002.14 L 1083.68 1002.34 L 1086.60 1002.55 L 1089.50 1002.79 L 1092.39 1003.09 L 1095.26 1003.36 L 1098.13 1003.65 L 1100.97 1003.95 L 1103.80 1004.23 L 1106.63 1004.53 L 1109.45 1004.75 L 1112.25 1004.96 L 1115.03 1005.21 L 1117.80 1005.42 L 1120.57 1005.65 L 1123.32 1005.89 L 1126.07 1006.12 L 1128.81 1006.35 L 1131.54 1006.53 L 1134.27 1006.69 L 1136.98 1006.89 L 1139.67 1007.07 L 1142.36 1007.23 L 1145.03 1007.41 L 1147.69 1007.59 L 1150.33 1007.77 L 1152.95 1007.97 L 1155.57 1008.17 L 1158.19 1008.37 L 1160.79 1008.58 L 1163.38 1008.83 L 1165.95 1009.07 L 1168.51 1009.31 L 1171.06 1009.60 L 1173.57 1009.98 L 1176.08 1010.36 L 1178.58 1010.74 L 1181.07 1011.09 L 1183.55 1011.41 L 1186.00 1011.75 L 1188.45 1012.11 L 1190.88 1012.50 L 1193.30 1012.88 L 1195.71 1013.28 L 1198.12 1013.66 L 1200.52 1014.02 L 1202.92 1014.34 L 1205.31 1014.68 L 1207.70 1015.01 L 1210.08 1015.33 L 1212.45 1015.66 L 1214.80 1016.03 L 1217.14 1016.38 L 1219.49 1016.69 L 1221.80 1017.05 L 1224.10 1017.42 L 1226.40 1017.78 L 1228.68 1018.16 L 1230.95 1018.53 L 1233.21 1018.88 L 1235.46 1019.23 L 1237.70 1019.58 L 1239.93 1019.95" stroke="rgb(120,210,255)" stroke-opacity="0.848" stroke-width="1.62" />
  <path d="M 1000.64 998.29 L 1003.73 998.53 L 1006.82 998.77 L 1009.89 998.97 L 1012.95 999.22 L 1015.99 999.49 L 1019.03 999.72 L 1022.05 999.96 L 1025.06 1000.22 L 1028.06 1000.49 L 1031.04 1000.76" stroke="rgb(120,210,255)" stroke-opacity="0.465" stroke-width="1.61" />
  <path d="M 998.98 998.78 L 998.42 1001.41 L 997.84 1004.04 L 997.31 1006.66 L 996.79 1009.28 L 996.29 1011.86 L 995.80 1014.46 L 995.32 1017.05 L 994.85 1019.64 L 994.29 1022.21 L 993.78 1024.82 L 993.28 1027.41 L 992.76 1030.03 L 992.27 1032.64 L 991.77 1035.23 L 991.27 1037.81 L 990.79 1040.38 L 990.32 1042.94 L 989.83 1045.49 L 989.38 1048.02 L 988.93 1050.58 L 988.49 1053.11 L 988.11 1055.64 L 987.72 1058.15 L 987.34 1060.65 L 986.96 1063.14 L 986.56 1065.62 L 986.15 1068.10 L 985.76 1070.58 L 985.39 1073.05 L 985.03 1075.50 L 984.68 1077.95 L 984.39 1080.41 L 984.16 1082.87 L 983.92 1085.34 L 983.66 1087.79 L 983.43 1090.23 L 983.23 1092.66 L 983.06 1095.11 L 982.84 1097.56 L 982.63 1100.03 L 982.42 1102.48 L 982.25 1104.92 L 982.06 1107.36 L 981.84 1109.78 L 981.57 1112.19 L 981.35 1114.59 L 981.19 1116.98" stroke="rgb(120,210,255)" stroke-opacity="0.465" stroke-width="1.61" />
  <path d="M 1034.24 1006.06 L 1037.46 1007.08 L 1040.69 1008.03 L 1043.91 1008.98 L 1047.11 1009.93 L 1050.30 1010.88 L 1053.46 1011.86 L 1056.62 1012.79 L 1059.79 1013.68 L 1062.94 1014.57 L 1066.07 1015.46 L 1069.17 1016.43 L 1072.27 1017.33 L 1075.36 1018.22 L 1078.41 1019.18 L 1081.46 1020.14 L 1084.48 1021.11 L 1087.49 1022.07" stroke="rgb(120,210,255)" stroke-opacity="0.845" stroke-width="1.61" />
  <path d="M 1098.23 1015.72 L 1101.55 1016.06 L 1104.86 1016.42 L 1108.15 1016.77 L 1111.43 1017.09 L 1114.70 1017.38 L 1117.95 1017.71 L 1121.19 1018.04 L 1124.43 1018.34 L 1127.65 1018.69 L 1130.85 1019.06 L 1134.05 1019.40 L 1137.23 1019.74 L 1140.41 1020.09 L 1143.58 1020.38 L 1146.74 1020.60 L 1149.89 1020.80 L 1153.02 1021.01 L 1156.14 1021.22 L 1159.25 1021.42 L 1162.34 1021.63 L 1165.41 1021.82 L 1168.48 1022.05 L 1171.54 1022.30 L 1174.60 1022.55 L 1177.65 1022.76 L 1180.68 1022.99 L 1183.71 1023.24 L 1186.73 1023.39 L 1189.74 1023.50 L 1192.73 1023.63 L 1195.71 1023.75 L 1198.68 1023.91 L 1201.63 1024.09 L 1204.57 1024.29 L 1207.49 1024.50 L 1210.40 1024.66 L 1213.29 1024.86 L 1216.17 1025.03 L 1219.04 1025.22 L 1221.90 1025.41 L 1224.75 1025.65 L 1227.58 1025.90 L 1230.41 1026.16 L 1233.23 1026.41 L 1236.03 1026.71" stroke="rgb(120,210,255)" stroke-opacity="0.843" stroke-width="1.60" />
  <path d="M 1095.73 1016.08 L 1098.98 1017.30 L 1102.23 1018.51 L 1105.49 1019.64 L 1108.73 1020.79 L 1111.96 1021.94 L 1115.16 1023.09 L 1118.36 1024.24 L 1121.55 1025.36 L 1124.72 1026.48 L 1127.89 1027.60 L 1131.03 1028.74 L 1134.15 1029.88 L 1137.27 1031.01 L 1140.37 1032.14 L 1143.46 1033.26 L 1146.54 1034.39 L 1149.60 1035.52 L 1152.65 1036.64 L 1155.69 1037.74 L 1158.72 1038.84 L 1161.74 1039.93 L 1164.73 1041.05 L 1167.73 1042.12 L 1170.72 1043.19 L 1173.69 1044.26 L 1176.65 1045.32 L 1179.61 1046.36" stroke="rgb(120,210,255)" stroke-opacity="0.842" stroke-width="1.60" />
  <path d="M 1183.55 1011.41 L 1186.59 1011.45 L 1189.63 1011.57 L 1192.66 1011.70 L 1195.67 1011.93 L 1198.67 1012.16 L 1201.64 1012.45 L 1204.60 1012.74 L 1207.55 1013.01 L 1210.49 1013.28 L 1213.42 1013.55 L 1216.35 1013.75 L 1219.26 1013.98 L 1222.17 1014.17 L 1225.05 1014.44 L 1227.88 1014.66 L 1230.72 1014.83 L 1233.54 1015.00 L 1236.35 1015.15 L 1239.14 1015.29 L 1241.92 1015.45 L 1244.69 1015.65 L 1247.46 1015.82 L 1250.21 1016.01 L 1252.97 1016.13 L 1255.71 1016.21 L 1258.45 1016.24 L 1261.15 1016.26 L 1263.86 1016.29 L 1266.52 1016.39 L 1269.17 1016.46 L 1271.81 1016.53 L 1274.43 1016.62 L 1277.04 1016.71 L 1279.63 1016.81 L 1282.22 1016.88 L 1284.81 1016.90 L 1287.39 1016.90 L 1289.96 1016.91 L 1292.52 1016.84 L 1295.08 1016.80 L 1297.64 1016.83 L 1300.18 1016.91 L 1302.72 1017.02 L 1305.24 1017.14 L 1307.76 1017.29 L 1310.27 1017.42 L 1312.77 1017.55 L 1315.25 1017.69 L 1317.73 1017.85 L 1320.19 1017.99 L 1322.65 1018.09 L 1325.11 1018.16 L 1327.55 1018.22 L 1329.99 1018.28 L 1332.42 1018.35 L 1334.84 1018.46 L 1337.25 1018.59 L 1339.64 1018.71 L 1342.02 1018.94 L 1344.39 1019.18 L 1346.72 1019.47 L 1349.04 1019.77 L 1351.35 1020.09 L 1353.66 1020.37 L 1355.96 1020.66 L 1358.26 1020.92 L 1360.57 1021.17 L 1362.84 1021.40 L 1365.10 1021.64 L 1367.40 1021.86 L 1369.68 1022.11 L 1371.94 1022.36 L 1374.20 1022.62" stroke="rgb(120,210,255)" stroke-opacity="0.840" stroke-width="1.59" />
  <path d="M 1000.76 999.93 L 1003.63 1000.39 L 1006.48 1000.86 L 1009.32 1001.32 L 1012.15 1001.81 L 1014.96 1002.35 L 1017.76 1002.84 L 1020.54 1003.35 L 1023.31 1003.87 L 1026.06 1004.41 L 1028.80 1004.98 L 1031.52 1005.52 L 1034.24 1006.06 L 1036.95 1006.55 L 1039.67 1006.99 L 1042.38 1007.41 L 1045.08 1007.83 L 1047.76 1008.27 L 1050.41 1008.75 L 1053.06 1009.21 L 1055.68 1009.70 L 1058.29 1010.19 L 1060.88 1010.67 L 1063.46 1011.13 L 1066.04 1011.60 L 1068.62 1012.08 L 1071.19 1012.54 L 1073.75 1012.97 L 1076.31 1013.40 L 1078.86 1013.82 L 1081.40 1014.23 L 1083.93 1014.64 L 1086.46 1014.97 L 1088.98 1015.29 L 1091.49 1015.64 L 1094.00 1015.97 L 1096.49 1016.36 L 1098.97 1016.78 L 1101.45 1017.12 L 1103.92 1017.45 L 1106.37 1017.87 L 1108.81 1018.30 L 1111.22 1018.80 L 1113.61 1019.34 L 1116.00 1019.85 L 1118.37 1020.37 L 1120.72 1020.91 L 1123.06 1021.48 L 1125.39 1022.01 L 1127.70 1022.57 L 1130.01 1023.12 L 1132.31 1023.66 L 1134.60 1024.21 L 1136.85 1024.79 L 1139.10 1025.38 L 1141.35 1025.96 L 1143.59 1026.54 L 1145.83 1027.10 L 1148.06 1027.69 L 1150.27 1028.28 L 1152.50 1028.78 L 1154.71 1029.32 L 1156.90 1029.85" stroke="rgb(120,210,255)" stroke-opacity="0.462" stroke-width="1.59" />
  <path d="M 997.58 1000.28 L 1000.35 1000.72 L 1003.11 1001.16 L 1005.86 1001.56 L 1008.60 1001.95 L 1011.34 1002.19 L 1014.08 1002.42 L 1016.81 1002.62 L 1019.52 1002.86 L 1022.22 1003.13 L 1024.91 1003.36 L 1027.60 1003.58 L 1030.27 1003.82 L 1032.93 1004.06 L 1035.57 1004.35 L 1038.20 1004.66 L 1040.82 1004.98" stroke="rgb(120,210,255)" stroke-opacity="0.460" stroke-width="1.58" />
  <path d="M 1000.49 1000.22 L 1003.34 1000.50 L 1006.18 1000.75 L 1009.02 1000.97 L 1011.85 1001.22 L 1014.66 1001.42 L 1017.47 1001.61 L 1020.26 1001.81 L 1023.04 1002.07 L 1025.80 1002.33 L 1028.55 1002.57 L 1031.28 1002.89 L 1033.99 1003.19 L 1036.69 1003.49 L 1039.39 1003.78 L 1042.07 1004.03 L 1044.76 1004.26 L 1047.43 1004.49 L 1050.10 1004.73 L 1052.75 1004.94 L 1055.40 1005.15 L 1058.04 1005.34 L 1060.67 1005.48 L 1063.30 1005.64 L 1065.91 1005.75 L 1068.52 1005.82 L 1071.11 1005.85 L 1073.70 1005.84 L 1076.28 1005.84 L 1078.85 1005.84 L 1081.40 1005.91 L 1083.94 1006.05 L 1086.46 1006.22 L 1088.97 1006.41 L 1091.47 1006.58 L 1093.96 1006.72 L 1096.44 1006.93 L 1098.91 1007.16 L 1101.37 1007.40 L 1103.82 1007.63 L 1106.27 1007.87 L 1108.71 1008.11 L 1111.14 1008.31 L 1113.55 1008.52 L 1115.96 1008.72 L 1118.36 1008.94 L 1120.75 1009.14 L 1123.13 1009.36 L 1125.50 1009.58 L 1127.87 1009.77 L 1130.22 1009.93 L 1132.57 1010.10 L 1134.91 1010.21 L 1137.24 1010.33 L 1139.56 1010.34 L 1141.87 1010.35 L 1144.18 1010.40 L 1146.47 1010.37 L 1148.76 1010.34 L 1151.03 1010.27 L 1153.30 1010.19 L 1155.56 1010.12 L 1157.81 1010.05 L 1160.05 1009.93 L 1162.27 1009.73 L 1164.48 1009.53 L 1166.67 1009.28 L 1168.87 1009.06" stroke="rgb(120,210,255)" stroke-opacity="0.457" stroke-width="1.56" />
  <path d="M 1162.48 1026.65 L 1165.32 1026.71 L 1168.16 1026.72 L 1170.98 1026.76 L 1173.80 1026.82 L 1176.60 1026.75 L 1179.38 1026.67 L 1182.16 1026.60 L 1184.92 1026.54 L 1187.68 1026.53 L 1190.43 1026.53 L 1193.16 1026.51 L 1195.89 1026.51 L 1198.60 1026.49 L 1201.31 1026.59 L 1204.00 1026.72 L 1206.68 1026.82 L 1209.35 1026.80 L 1212.00 1026.92 L 1214.65 1027.02 L 1217.28 1026.99 L 1219.91 1027.00 L 1222.53 1027.02 L 1225.13 1027.07 L 1227.72 1027.11 L 1230.31 1027.13 L 1232.89 1027.14 L 1235.45 1027.15 L 1238.01 1027.21 L 1240.55 1027.29 L 1243.09 1027.23 L 1245.60 1027.14 L 1248.10 1027.07 L 1250.59 1026.96 L 1253.07 1026.81 L 1255.53 1026.65 L 1257.99 1026.45 L 1260.44 1026.24 L 1262.88 1026.00 L 1265.30 1025.71 L 1267.71 1025.41 L 1270.10 1025.06 L 1272.49 1024.69 L 1274.87 1024.36 L 1277.24 1024.03 L 1279.60 1023.70 L 1281.95 1023.35 L 1284.29 1023.01 L 1286.59 1022.53 L 1288.89 1022.03 L 1291.16 1021.52 L 1293.43 1021.01 L 1295.67 1020.41 L 1297.89 1019.77 L 1300.10 1019.09 L 1302.29 1018.42 L 1304.46 1017.71 L 1306.61 1016.98 L 1308.78 1016.31 L 1310.95 1015.68 L 1313.10 1015.04 L 1315.25 1014.40 L 1317.39 1013.76 L 1319.51 1013.11 L 1321.64 1012.52 L 1323.77 1011.91 L 1325.88 1011.32 L 1327.99 1010.73 L 1330.10 1010.18 L 1332.18 1009.58 L 1334.25 1008.96 L 1336.32 1008.38 L 1338.37 1007.74 L 1340.42 1007.12" stroke="rgb(120,210,255)" stroke-opacity="0.456" stroke-width="1.56" />
  <path d="M 998.45 1002.88 L 1001.09 1003.33 L 1003.72 1003.77 L 1006.33 1004.23 L 1008.94 1004.65 L 1011.55 1005.00 L 1014.16 1005.18 L 1016.76 1005.37 L 1019.36 1005.56 L 1021.94 1005.75 L 1024.52 1005.96 L 1027.08 1006.14 L 1029.64 1006.33 L 1032.18 1006.46 L 1034.72 1006.57 L 1037.24 1006.67 L 1039.75 1006.78 L 1042.25 1006.88 L 1044.74 1006.97 L 1047.22 1007.06 L 1049.70 1007.17 L 1052.16 1007.21 L 1054.61 1007.26 L 1057.05 1007.32 L 1059.49 1007.34 L 1061.91 1007.47 L 1064.33 1007.49 L 1066.74 1007.59 L 1069.14 1007.68 L 1071.53 1007.76 L 1073.91 1007.91 L 1076.28 1008.03" stroke="rgb(120,210,255)" stroke-opacity="0.455" stroke-width="1.56" />
  <path d="M 1002.97 999.10 L 1005.01 998.63 L 1007.05 998.15 L 1009.10 997.68 L 1011.10 997.16 L 1013.11 996.68 L 1015.11 996.20 L 1017.05 995.70 L 1018.98 995.21 L 1020.96 994.75 L 1022.93 994.31 L 1024.89 993.90 L 1026.84 993.49 L 1028.77 993.10 L 1030.69 992.73 L 1032.61 992.36 L 1034.52 991.99 L 1036.41 991.62 L 1038.29 991.28" stroke="rgb(205,165,255)" stroke-opacity="0.718" stroke-width="1.24" />
  <path d="M 1001.44 1002.20 L 1004.26 1001.87 L 1007.06 1001.52 L 1009.87 1001.16 L 1012.68 1000.79 L 1015.46 1000.37 L 1018.19 999.90 L 1020.91 999.44 L 1023.60 998.93 L 1026.27 998.43 L 1028.96 997.95 L 1031.65 997.47 L 1034.28 996.92 L 1036.91 996.38 L 1039.56 995.83 L 1042.16 995.28 L 1044.78 994.77 L 1047.41 994.32 L 1050.04 993.84 L 1052.65 993.37 L 1055.26 992.92 L 1057.86 992.46 L 1060.44 991.93 L 1063.01 991.44 L 1065.57 990.96 L 1068.12 990.47 L 1070.68 990.01 L 1073.24 989.52 L 1075.79 989.04 L 1078.34 988.58 L 1080.88 988.14 L 1083.44 987.69 L 1085.97 987.17 L 1088.50 986.65 L 1091.03 986.15 L 1093.56 985.65 L 1096.09 985.15 L 1098.60 984.65 L 1101.10 984.17 L 1103.61 983.67 L 1106.13 983.19 L 1108.64 982.71 L 1111.13 982.29 L 1113.62 981.87 L 1116.09 981.45 L 1118.54 981.03 L 1120.99 980.61 L 1123.41 980.21 L 1125.82 979.81 L 1128.23 979.40 L 1130.63 979.01 L 1133.00 978.59 L 1135.36 978.17 L 1137.70 977.73 L 1140.03 977.29 L 1142.35 976.81 L 1144.66 976.33 L 1146.96 975.86 L 1149.26 975.38 L 1151.52 974.97 L 1153.75 974.55 L 1155.97 974.13 L 1158.18 973.71 L 1160.38 973.30 L 1162.56 972.90 L 1164.73 972.47 L 1166.88 972.02" stroke="rgb(205,165,255)" stroke-opacity="0.711" stroke-width="1.22" />
  <path d="M 1002.67 1001.10 L 1004.86 1001.68 L 1007.04 1002.27 L 1009.20 1002.89 L 1011.37 1003.41 L 1013.54 1003.90 L 1015.69 1004.42 L 1017.83 1004.85 L 1019.96 1005.31 L 1022.08 1005.78 L 1024.21 1006.23 L 1026.31 1006.74 L 1028.43 1007.19 L 1030.54 1007.68 L 1032.66 1008.09 L 1034.77 1008.52 L 1036.88 1008.89 L 1038.99 1009.16 L 1041.05 1009.61 L 1043.12 1010.04 L 1045.15 1010.49 L 1047.18 1010.99 L 1049.18 1011.59 L 1051.19 1012.15 L 1053.19 1012.71 L 1055.15 1013.32 L 1057.10 1013.93 L 1059.06 1014.46 L 1061.03 1014.99 L 1062.99 1015.51 L 1064.94 1016.04 L 1066.87 1016.59 L 1068.77 1017.11 L 1070.68 1017.59 L 1072.57 1018.09 L 1074.43 1018.63 L 1076.30 1019.07 L 1078.16 1019.47 L 1080.03 1019.81 L 1081.92 1020.14 L 1083.78 1020.52 L 1085.65 1020.84 L 1087.51 1021.26 L 1089.34 1021.73 L 1091.17 1022.13" stroke="rgb(140,255,190)" stroke-opacity="0.556" stroke-width="1.20" />
  <path d="M 1042.90 1010.96 L 1045.79 1012.79 L 1048.66 1014.61 L 1051.55 1016.37 L 1054.43 1018.13 L 1057.33 1019.82 L 1060.20 1021.53 L 1063.10 1023.18 L 1065.98 1024.82 L 1068.85 1026.45 L 1071.73 1028.05 L 1074.58 1029.67 L 1077.42 1031.29 L 1080.27 1032.86 L 1083.11 1034.42 L 1085.93 1036.00 L 1088.71 1037.60 L 1091.47 1039.24 L 1094.15 1040.96 L 1096.84 1042.65 L 1099.52 1044.34 L 1102.22 1045.95 L 1104.91 1047.56 L 1107.58 1049.18 L 1110.22 1050.82 L 1112.83 1052.48 L 1115.43 1054.14 L 1118.03 1055.77 L 1120.60 1057.43 L 1123.16 1059.07 L 1125.72 1060.71 L 1128.28 1062.31 L 1130.85 1063.89 L 1133.40 1065.47 L 1135.97 1067.00 L 1138.52 1068.54 L 1141.06 1070.08 L 1143.60 1071.57 L 1146.17 1073.01 L 1148.69 1074.50 L 1151.21 1075.97 L 1153.71 1077.44 L 1156.19 1078.93 L 1158.67 1080.40 L 1161.18 1081.80 L 1163.67 1083.21 L 1166.16 1084.59 L 1168.65 1085.94 L 1171.12 1087.32 L 1173.58 1088.68 L 1176.03 1090.05 L 1178.48 1091.39 L 1180.91 1092.72 L 1183.31 1094.10 L 1185.70 1095.46 L 1188.08 1096.83 L 1190.45 1098.19" stroke="rgb(140,255,190)" stroke-opacity="0.740" stroke-width="1.19" />
  <path d="M 998.32 1001.69 L 1001.68 1002.08 L 1005.05 1002.45 L 1008.39 1002.82 L 1011.73 1003.18 L 1015.05 1003.55 L 1018.36 1003.91 L 1021.63 1004.29 L 1024.88 1004.69 L 1028.11 1005.15 L 1031.32 1005.61 L 1034.52 1006.06 L 1037.70 1006.46 L 1040.87 1006.86 L 1044.04 1007.26 L 1047.19 1007.68 L 1050.34 1008.11 L 1053.47 1008.54 L 1056.59 1008.97 L 1059.72 1009.36 L 1062.83 1009.74 L 1065.92 1010.11 L 1069.01 1010.47 L 1072.07 1010.84 L 1075.14 1011.20 L 1078.19 1011.56 L 1081.21 1011.89 L 1084.23 1012.24 L 1087.23 1012.55 L 1090.22 1012.85 L 1093.19 1013.15 L 1096.15 1013.42 L 1099.07 1013.75 L 1102.00 1014.08 L 1104.92 1014.40 L 1107.83 1014.73 L 1110.73 1015.06 L 1113.61 1015.44 L 1116.48 1015.81 L 1119.34 1016.16 L 1122.19 1016.51 L 1125.03 1016.86 L 1127.85 1017.21 L 1130.67 1017.59" stroke="rgb(140,255,190)" stroke-opacity="0.736" stroke-width="1.18" />
  <path d="M 1045.25 1007.00 L 1047.52 1006.59 L 1049.78 1006.16 L 1052.06 1005.89 L 1054.33 1005.62 L 1056.59 1005.49 L 1058.84 1005.32 L 1061.09 1005.17 L 1063.33 1005.20 L 1065.57 1005.22 L 1067.79 1005.35 L 1070.00 1005.49 L 1072.20 1005.66 L 1074.40 1005.89 L 1076.57 1006.09 L 1078.74 1006.30 L 1080.88 1006.57 L 1082.99 1006.83 L 1085.10 1007.12 L 1087.20 1007.39 L 1089.32 1007.62 L 1091.43 1007.87 L 1093.53 1008.18 L 1095.64 1008.33 L 1097.70 1008.60 L 1099.75 1008.86 L 1101.80 1009.13" stroke="rgb(140,255,190)" stroke-opacity="0.551" stroke-width="1.18" />
  <path d="M 1003.06 1002.03 L 1006.48 1002.35 L 1009.88 1002.70 L 1013.26 1003.04 L 1016.64 1003.36 L 1020.00 1003.69 L 1023.34 1004.04 L 1026.67 1004.39 L 1029.98 1004.73 L 1033.28 1005.11 L 1036.57 1005.45 L 1039.85 1005.80 L 1043.11 1006.16 L 1046.36 1006.52 L 1049.59 1006.86 L 1052.82 1007.17 L 1056.04 1007.48 L 1059.24 1007.78 L 1062.43 1008.09 L 1065.60 1008.40 L 1068.76 1008.74 L 1071.91 1009.10 L 1075.04 1009.46 L 1078.16 1009.81 L 1081.26 1010.18 L 1084.36 1010.55 L 1087.44 1010.92 L 1090.50 1011.31 L 1093.55 1011.72 L 1096.59 1012.15 L 1099.61 1012.57 L 1102.62 1013.01 L 1105.62 1013.44 L 1108.61 1013.85 L 1111.58 1014.28 L 1114.54 1014.72 L 1117.49 1015.14 L 1120.43 1015.58 L 1123.35 1016.01" stroke="rgb(140,255,190)" stroke-opacity="0.734" stroke-width="1.18" />
  <path d="M 1045.44 1004.24 L 1048.81 1003.73 L 1052.15 1003.21 L 1055.45 1002.66 L 1058.73 1002.06 L 1062.00 1001.47 L 1065.27 1000.92 L 1068.52 1000.34 L 1071.75 999.74 L 1074.97 999.14 L 1078.18 998.54 L 1081.37 997.93 L 1084.55 997.31 L 1087.73 996.71 L 1090.91 996.13 L 1094.07 995.56 L 1097.21 994.95 L 1100.34 994.37 L 1103.44 993.74 L 1106.53 993.18 L 1109.62 992.63 L 1112.70 992.12 L 1115.77 991.59 L 1118.82 991.07 L 1121.85 990.55 L 1124.87 990.04 L 1127.88 989.54 L 1130.88 989.05 L 1133.86 988.56 L 1136.83 988.11 L 1139.78 987.63 L 1142.73 987.17" stroke="rgb(140,255,190)" stroke-opacity="0.733" stroke-width="1.18" />
  <path d="M 1031.04 1007.41 L 1034.05 1009.14 L 1037.05 1010.85 L 1040.03 1012.58 L 1042.98 1014.32 L 1045.95 1016.01 L 1048.91 1017.67 L 1051.87 1019.33 L 1054.84 1020.93 L 1057.80 1022.51 L 1060.77 1024.06 L 1063.73 1025.59 L 1066.66 1027.15 L 1069.57 1028.72 L 1072.46 1030.30 L 1075.34 1031.86 L 1078.22 1033.41 L 1081.07 1034.97 L 1083.92 1036.53 L 1086.75 1038.06 L 1089.59 1039.58 L 1092.41 1041.10 L 1095.23 1042.59 L 1098.01 1044.12 L 1100.77 1045.66 L 1103.52 1047.20 L 1106.28 1048.69 L 1109.01 1050.22 L 1111.75 1051.70 L 1114.47 1053.19 L 1117.17 1054.68 L 1119.89 1056.12 L 1122.60 1057.54 L 1125.30 1058.96 L 1127.98 1060.38 L 1130.67 1061.75 L 1133.36 1063.11 L 1136.03 1064.48 L 1138.69 1065.82 L 1141.35 1067.15 L 1143.98 1068.48 L 1146.59 1069.85 L 1149.20 1071.19 L 1151.79 1072.53 L 1154.39 1073.85 L 1156.97 1075.16 L 1159.56 1076.43 L 1162.14 1077.68 L 1164.72 1078.92 L 1167.26 1080.17 L 1169.82 1081.38 L 1172.36 1082.59 L 1174.88 1083.81" stroke="rgb(140,255,190)" stroke-opacity="0.733" stroke-width="1.18" />
  <path d="M 998.29 999.98 L 1001.53 1000.54 L 1004.76 1001.09 L 1007.97 1001.66 L 1011.18 1002.14 L 1014.38 1002.62 L 1017.56 1003.12 L 1020.74 1003.59 L 1023.90 1004.06 L 1027.04 1004.54 L 1030.18 1004.98 L 1033.31 1005.44 L 1036.42 1005.90 L 1039.52 1006.36 L 1042.62 1006.75 L 1045.70 1007.11 L 1048.78 1007.46 L 1051.85 1007.76 L 1054.90 1008.06 L 1057.94 1008.37 L 1060.97 1008.67 L 1063.99 1008.98 L 1067.00 1009.31 L 1069.99 1009.62 L 1072.97 1009.92 L 1075.95 1010.20 L 1078.90 1010.50 L 1081.85 1010.82 L 1084.78 1011.15 L 1087.70 1011.42 L 1090.62 1011.67 L 1093.52 1011.95 L 1096.41 1012.23 L 1099.29 1012.51 L 1102.16 1012.79 L 1105.02 1013.04 L 1107.86 1013.30 L 1110.70 1013.57 L 1113.51 1013.87 L 1116.31 1014.23 L 1119.10 1014.55 L 1121.89 1014.86 L 1124.66 1015.16" stroke="rgb(140,255,190)" stroke-opacity="0.729" stroke-width="1.17" />
  <path d="M 997.24 1000.88 L 1000.39 1001.43 L 1003.54 1001.96 L 1006.69 1002.47 L 1009.84 1002.95 L 1012.97 1003.44 L 1016.10 1003.94 L 1019.21 1004.44 L 1022.31 1004.93 L 1025.40 1005.40 L 1028.47 1005.87 L 1031.52 1006.35 L 1034.56 1006.84 L 1037.60 1007.35 L 1040.62 1007.85 L 1043.62 1008.38 L 1046.61 1008.92 L 1049.57 1009.55 L 1052.52 1010.16 L 1055.45 1010.80 L 1058.37 1011.46 L 1061.27 1012.16 L 1064.15 1012.89 L 1067.03 1013.59 L 1069.91 1014.26 L 1072.76 1014.94 L 1075.60 1015.64 L 1078.44 1016.27 L 1081.27 1016.84 L 1084.09 1017.41 L 1086.89 1017.96 L 1089.68 1018.51 L 1092.45 1019.06 L 1095.22 1019.58 L 1097.97 1020.10 L 1100.71 1020.64 L 1103.44 1021.13 L 1106.16 1021.62 L 1108.86 1022.16 L 1111.56 1022.73 L 1114.23 1023.31 L 1116.89 1023.90 L 1119.55 1024.43 L 1122.20 1024.97 L 1124.84 1025.49 L 1127.47 1026.02 L 1130.09 1026.53 L 1132.70 1027.02 L 1135.29 1027.52 L 1137.89 1027.98 L 1140.49 1028.36 L 1143.08 1028.73 L 1145.66 1029.11 L 1148.22 1029.51 L 1150.78 1029.91 L 1153.32 1030.28 L 1155.86 1030.67 L 1158.39 1031.00 L 1160.91 1031.37 L 1163.42 1031.70 L 1165.90 1032.06 L 1168.38 1032.41 L 1170.84 1032.83 L 1173.29 1033.24 L 1175.73 1033.69 L 1178.14 1034.15 L 1180.54 1034.61 L 1182.94 1035.06 L 1185.33 1035.52 L 1187.70 1035.96 L 1190.08 1036.41 L 1192.44 1036.87 L 1194.79 1037.30 L 1197.13 1037.73 L 1199.47 1038.12 L 1201.80 1038.50 L 1204.12 1038.88 L 1206.43 1039.25 L 1208.72 1039.66 L 1211.00 1040.10 L 1213.28 1040.50 L 1215.55 1040.92 L 1217.82 1041.34 L 1220.07 1041.83 L 1222.31 1042.32 L 1224.55 1042.80 L 1226.78 1043.29 L 1228.99 1043.78 L 1231.21 1044.26 L 1233.41 1044.72" stroke="rgb(140,255,190)" stroke-opacity="0.727" stroke-width="1.16" />
  <path d="M 1065.80 1015.35 L 1068.54 1016.08 L 1071.26 1016.82 L 1073.96 1017.56 L 1076.71 1018.27 L 1079.46 1018.99 L 1082.18 1019.72 L 1084.92 1020.45 L 1087.64 1021.23 L 1090.32 1021.98 L 1092.98 1022.79 L 1095.64 1023.55 L 1098.26 1024.31 L 1100.87 1025.01 L 1103.54 1025.68 L 1106.19 1026.33 L 1108.83 1026.90 L 1111.45 1027.49 L 1114.04 1028.08 L 1116.62 1028.67 L 1119.18 1029.25 L 1121.76 1029.82 L 1124.34 1030.38 L 1126.89 1030.93 L 1129.44 1031.51 L 1131.96 1032.08 L 1134.47 1032.65 L 1136.98 1033.22 L 1139.50 1033.77 L 1142.03 1034.30 L 1144.59 1034.82 L 1147.13 1035.34 L 1149.67 1035.85 L 1152.20 1036.37 L 1154.71 1036.97 L 1157.23 1037.52 L 1159.75 1038.12 L 1162.28 1038.62 L 1164.80 1039.12 L 1167.34 1039.66 L 1169.90 1040.14 L 1172.48 1040.61 L 1175.05 1041.07 L 1177.61 1041.50 L 1180.16 1041.99" stroke="rgb(140,255,190)" stroke-opacity="0.727" stroke-width="1.16" />
  <path d="M 1063.55 1004.04 L 1066.01 1003.69 L 1068.41 1003.39 L 1070.76 1003.09 L 1073.11 1002.78 L 1075.50 1002.46 L 1077.85 1002.16 L 1080.21 1001.82 L 1082.56 1001.47 L 1084.90 1001.08 L 1087.20 1000.67 L 1089.49 1000.26 L 1091.78 999.84 L 1094.08 999.49 L 1096.34 999.10 L 1098.59 998.69 L 1100.83 998.31 L 1103.07 997.94 L 1105.27 997.51 L 1107.45 997.08 L 1109.62 996.65 L 1111.83 996.18 L 1114.04 995.72 L 1116.29 995.23 L 1118.56 994.77 L 1120.84 994.30 L 1123.10 993.78 L 1125.35 993.23 L 1127.60 992.67 L 1129.85 992.09 L 1132.09 991.50 L 1134.33 990.93 L 1136.56 990.36 L 1138.79 989.82 L 1141.01 989.27 L 1143.21 988.74" stroke="rgb(205,165,255)" stroke-opacity="0.482" stroke-width="1.16" />
  <path d="M 1001.91 999.33 L 1005.07 999.55 L 1008.23 999.68 L 1011.38 999.80 L 1014.50 999.95 L 1017.61 1000.06 L 1020.71 1000.19 L 1023.80 1000.20 L 1026.88 1000.21 L 1029.95 1000.22 L 1033.01 1000.23 L 1036.05 1000.21 L 1039.09 1000.18 L 1042.12 1000.16 L 1045.13 1000.13 L 1048.13 1000.08 L 1051.12 1000.05 L 1054.08 1000.01 L 1057.03 1000.00 L 1059.96 1000.00 L 1062.88 999.97 L 1065.79 1000.01 L 1068.69 1000.05 L 1071.58 1000.03 L 1074.46 1000.06 L 1077.33 1000.04 L 1080.18 1000.03 L 1083.02 1000.06 L 1085.85 1000.08 L 1088.66 1000.05 L 1091.47 1000.03 L 1094.26 1000.00 L 1097.04 999.97 L 1099.81 1000.02 L 1102.56 1000.07 L 1105.29 1000.17 L 1108.01 1000.25 L 1110.72 1000.40 L 1113.42 1000.54 L 1116.11 1000.66 L 1118.78 1000.74 L 1121.45 1000.82 L 1124.10 1000.90 L 1126.74 1000.97 L 1129.37 1001.02 L 1131.99 1001.07 L 1134.58 1001.12 L 1137.17 1001.15 L 1139.75 1001.18 L 1142.32 1001.14 L 1144.87 1001.11 L 1147.41 1001.05 L 1149.94 1000.98 L 1152.46 1000.94 L 1154.97 1000.93 L 1157.46 1000.82 L 1159.93 1000.74 L 1162.37 1000.64 L 1164.81 1000.54 L 1167.23 1000.46 L 1169.65 1000.37 L 1172.05 1000.21 L 1174.43 1000.08 L 1176.79 999.96 L 1179.14 999.85 L 1181.46 999.76 L 1183.78 999.71 L 1186.07 999.65 L 1188.36 999.59 L 1190.64 999.53 L 1192.91 999.48 L 1195.17 999.45 L 1197.43 999.45 L 1199.67 999.50 L 1201.89 999.58 L 1204.11 999.64 L 1206.34 999.64 L 1208.56 999.63 L 1210.78 999.63" stroke="rgb(140,255,190)" stroke-opacity="0.724" stroke-width="1.15" />
  <path d="M 1101.85 1019.45 L 1105.01 1019.99 L 1108.15 1020.49 L 1111.25 1021.11 L 1114.34 1021.71 L 1117.37 1022.42 L 1120.37 1023.14 L 1123.37 1023.87 L 1126.39 1024.51 L 1129.39 1025.16 L 1132.37 1025.82 L 1135.34 1026.43 L 1138.29 1027.08 L 1141.21 1027.73 L 1144.14 1028.35 L 1147.06 1029.03 L 1149.97 1029.71 L 1152.85 1030.46 L 1155.72 1031.19 L 1158.59 1031.90 L 1161.48 1032.55 L 1164.35 1033.24 L 1167.23 1033.91 L 1170.11 1034.55 L 1172.98 1035.18 L 1175.84 1035.84 L 1178.67 1036.45 L 1181.49 1037.04 L 1184.28 1037.70 L 1187.06 1038.35 L 1189.82 1039.00" stroke="rgb(140,255,190)" stroke-opacity="0.723" stroke-width="1.15" />
  <path d="M 995.81 996.47 L 998.68 997.05 L 1001.53 997.64 L 1004.37 998.24 L 1007.19 998.87 L 1009.99 999.51 L 1012.79 1000.12 L 1015.58 1000.74 L 1018.34 1001.41 L 1021.10 1002.06 L 1023.84 1002.70 L 1026.58 1003.34 L 1029.30 1004.01 L 1032.00 1004.68 L 1034.69 1005.38 L 1037.35 1006.11 L 1040.00 1006.87 L 1042.63 1007.64 L 1045.22 1008.50 L 1047.80 1009.33 L 1050.36 1010.19 L 1052.91 1011.03 L 1055.47 1011.88 L 1058.01 1012.71 L 1060.54 1013.53 L 1063.07 1014.35 L 1065.58 1015.20 L 1068.10 1015.94 L 1070.63 1016.67 L 1073.13 1017.42 L 1075.61 1018.20 L 1078.07 1019.03 L 1080.52 1019.83 L 1082.98 1020.58 L 1085.42 1021.36 L 1087.84 1022.17 L 1090.24 1022.99 L 1092.64 1023.79 L 1095.05 1024.53 L 1097.45 1025.29 L 1099.83 1026.04 L 1102.21 1026.76 L 1104.59 1027.45" stroke="rgb(205,165,255)" stroke-opacity="0.480" stroke-width="1.15" />
  <path d="M 1055.23 1001.57 L 1058.22 1002.64 L 1061.20 1003.71 L 1064.15 1004.81 L 1067.10 1005.90 L 1070.05 1006.91 L 1072.99 1007.93 L 1075.92 1008.91 L 1078.85 1009.88 L 1081.78 1010.81 L 1084.69 1011.76 L 1087.59 1012.70 L 1090.50 1013.55 L 1093.39 1014.42 L 1096.27 1015.29 L 1099.14 1016.16 L 1102.01 1017.01 L 1104.83 1017.95 L 1107.65 1018.88 L 1110.46 1019.77 L 1113.27 1020.63 L 1116.08 1021.46 L 1118.88 1022.29 L 1121.67 1023.06 L 1124.44 1023.90 L 1127.19 1024.73 L 1129.93 1025.56 L 1132.66 1026.38 L 1135.38 1027.20 L 1138.08 1028.06 L 1140.74 1028.96 L 1143.41 1029.82 L 1146.05 1030.71 L 1148.69 1031.55 L 1151.34 1032.36 L 1153.98 1033.16 L 1156.61 1033.91 L 1159.25 1034.65 L 1161.87 1035.38 L 1164.48 1036.11 L 1167.07 1036.81 L 1169.65 1037.51 L 1172.24 1038.16 L 1174.83 1038.80 L 1177.42 1039.43 L 1179.99 1040.09 L 1182.55 1040.74 L 1185.09 1041.40 L 1187.63 1042.07 L 1190.14 1042.77 L 1192.65 1043.47 L 1195.15 1044.16 L 1197.63 1044.86 L 1200.09 1045.59 L 1202.54 1046.34 L 1205.00 1047.04 L 1207.45 1047.70 L 1209.88 1048.37 L 1212.31 1049.03 L 1214.73 1049.67 L 1217.16 1050.26 L 1219.58 1050.83 L 1221.99 1051.39 L 1224.39 1051.96 L 1226.78 1052.53 L 1229.15 1053.14 L 1231.52 1053.73 L 1233.89 1054.30 L 1236.26 1054.82 L 1238.62 1055.34 L 1240.97 1055.81 L 1243.33 1056.26 L 1245.67 1056.72 L 1247.99 1057.18 L 1250.31 1057.64 L 1252.60 1058.13 L 1254.88 1058.61 L 1257.16 1059.09 L 1259.42 1059.56 L 1261.67 1060.07 L 1263.90 1060.57 L 1266.13 1061.06 L 1268.35 1061.56 L 1270.56 1062.07 L 1272.75 1062.61 L 1274.94 1063.10 L 1277.13 1063.52 L 1279.31 1063.95 L 1281.48 1064.38" stroke="rgb(140,255,190)" stroke-opacity="0.721" stroke-width="1.15" />
  <path d="M 1062.99 1015.51 L 1065.10 1016.69 L 1067.23 1017.79 L 1069.34 1018.85 L 1071.44 1019.90 L 1073.50 1021.03 L 1075.55 1022.21 L 1077.56 1023.42 L 1079.50 1024.73 L 1081.43 1026.04 L 1083.35 1027.35 L 1085.16 1028.77 L 1086.90 1030.30 L 1088.59 1031.88 L 1090.31 1033.41 L 1092.09 1034.86 L 1093.84 1036.33 L 1095.52 1037.86 L 1097.16 1039.44 L 1098.79 1041.00 L 1100.38 1042.59 L 1102.01 1044.13 L 1103.67 1045.63 L 1105.32 1047.12 L 1106.93 1048.64 L 1108.54 1050.16 L 1110.15 1051.67 L 1111.74 1053.17 L 1113.35 1054.65 L 1114.90 1056.16" stroke="rgb(140,255,190)" stroke-opacity="0.540" stroke-width="1.14" />
  <path d="M 999.33 1001.25 L 1002.44 1002.04 L 1005.54 1002.79 L 1008.63 1003.53 L 1011.72 1004.22 L 1014.80 1004.91 L 1017.87 1005.57 L 1020.92 1006.24 L 1023.97 1006.88 L 1027.01 1007.55 L 1030.02 1008.21 L 1033.03 1008.87 L 1036.02 1009.54 L 1039.01 1010.20 L 1041.99 1010.83 L 1044.95 1011.43 L 1047.92 1011.99 L 1050.88 1012.55 L 1053.81 1013.13 L 1056.74 1013.71 L 1059.65 1014.27 L 1062.55 1014.86 L 1065.44 1015.45 L 1068.31 1016.07 L 1071.17 1016.67 L 1074.04 1017.17 L 1076.89 1017.67 L 1079.74 1018.17 L 1082.57 1018.68 L 1085.39 1019.21 L 1088.20 1019.68 L 1091.00 1020.16 L 1093.80 1020.58 L 1096.59 1020.99 L 1099.37 1021.39 L 1102.14 1021.75 L 1104.91 1022.12 L 1107.65 1022.49 L 1110.39 1022.86 L 1113.12 1023.23 L 1115.84 1023.57 L 1118.55 1023.92 L 1121.24 1024.29 L 1123.93 1024.64 L 1126.60 1025.03 L 1129.26 1025.38 L 1131.90 1025.81 L 1134.54 1026.21 L 1137.17 1026.57 L 1139.80 1026.87 L 1142.41 1027.17 L 1145.02 1027.49 L 1147.61 1027.79 L 1150.20 1028.09 L 1152.77 1028.39 L 1155.33 1028.70 L 1157.88 1029.04 L 1160.42 1029.39 L 1162.95 1029.69 L 1165.47 1029.95 L 1167.99 1030.21 L 1170.49 1030.45 L 1172.99 1030.71 L 1175.47 1031.00 L 1177.95 1031.27 L 1180.41 1031.55 L 1182.87 1031.82 L 1185.31 1032.10 L 1187.75 1032.35 L 1190.18 1032.53 L 1192.61 1032.65 L 1195.03 1032.78 L 1197.44 1032.89 L 1199.83 1033.00 L 1202.22 1033.10 L 1204.60 1033.23" stroke="rgb(140,255,190)" stroke-opacity="0.719" stroke-width="1.14" />
  <path d="M 1103.88 1020.94 L 1106.16 1022.46 L 1108.45 1024.00 L 1110.71 1025.54 L 1112.96 1027.08 L 1115.16 1028.64 L 1117.37 1030.16 L 1119.53 1031.66 L 1121.67 1033.20 L 1123.82 1034.76 L 1125.97 1036.33 L 1128.06 1037.90 L 1130.15 1039.49 L 1132.23 1041.09 L 1134.26 1042.67 L 1136.28 1044.25 L 1138.34 1045.77 L 1140.39 1047.29 L 1142.43 1048.80 L 1144.49 1050.29 L 1146.54 1051.74 L 1148.63 1053.19" stroke="rgb(140,255,190)" stroke-opacity="0.719" stroke-width="1.14" />
  <path d="M 1074.53 1029.93 L 1077.38 1030.92 L 1080.23 1031.92 L 1083.12 1032.91 L 1086.00 1033.90 L 1088.91 1034.77 L 1091.73 1035.85 L 1094.55 1036.93 L 1097.33 1038.12 L 1100.10 1039.31 L 1102.86 1040.51 L 1105.61 1041.71 L 1108.32 1042.97 L 1111.02 1044.24 L 1113.66 1045.61 L 1116.30 1046.92 L 1118.92 1048.28 L 1121.53 1049.61 L 1124.15 1050.92 L 1126.76 1052.20 L 1129.38 1053.45 L 1131.93 1054.79 L 1134.47 1056.11 L 1137.00 1057.45 L 1139.53 1058.75 L 1142.05 1060.07 L 1144.56 1061.38 L 1147.00 1062.76 L 1149.45 1064.10 L 1151.89 1065.44 L 1154.33 1066.77 L 1156.77 1068.06 L 1159.20 1069.35 L 1161.63 1070.63 L 1164.05 1071.89 L 1166.44 1073.18 L 1168.85 1074.43 L 1171.25 1075.65 L 1173.63 1076.88 L 1176.05 1078.02 L 1178.50 1079.05 L 1180.91 1080.14 L 1183.31 1081.24 L 1185.65 1082.47 L 1188.00 1083.68 L 1190.26 1085.02 L 1192.50 1086.38 L 1194.71 1087.76 L 1196.89 1089.16 L 1199.08 1090.52 L 1201.26 1091.89 L 1203.48 1093.17 L 1205.69 1094.46 L 1207.87 1095.77 L 1210.04 1097.06 L 1212.21 1098.35 L 1214.37 1099.64 L 1216.52 1100.92 L 1218.65 1102.20" stroke="rgb(140,255,190)" stroke-opacity="0.719" stroke-width="1.14" />
  <path d="M 1002.43 999.44 L 1005.19 999.82 L 1007.95 1000.20 L 1010.70 1000.55 L 1013.45 1000.76 L 1016.19 1000.96 L 1018.92 1001.17 L 1021.64 1001.37 L 1024.34 1001.60 L 1027.03 1001.82 L 1029.71 1002.01 L 1032.39 1002.19 L 1035.05 1002.36 L 1037.69 1002.53 L 1040.33 1002.73 L 1042.94 1002.94 L 1045.55 1003.13 L 1048.14 1003.31 L 1050.73 1003.45 L 1053.32 1003.57 L 1055.89 1003.67 L 1058.45 1003.79 L 1061.01 1003.91 L 1063.55 1004.04 L 1066.07 1004.19 L 1068.58 1004.39 L 1071.06 1004.62 L 1073.54 1004.75 L 1076.01 1004.86 L 1078.47 1004.94 L 1080.92 1005.00 L 1083.37 1005.05 L 1085.81 1005.07 L 1088.24 1005.09 L 1090.63 1005.10 L 1093.02 1005.11 L 1095.40 1005.14 L 1097.78 1005.16 L 1100.13 1005.18 L 1102.47 1005.14 L 1104.80 1005.10 L 1107.11 1005.08 L 1109.41 1005.07 L 1111.70 1005.05 L 1113.97 1005.03 L 1116.22 1004.96 L 1118.47 1004.90 L 1120.69 1004.83 L 1122.91 1004.80 L 1125.10 1004.84 L 1127.26 1004.81 L 1129.40 1004.80 L 1131.56 1004.75 L 1133.70 1004.75" stroke="rgb(205,165,255)" stroke-opacity="0.475" stroke-width="1.13" />
  <path d="M 1098.01 1045.45 L 1099.94 1047.90 L 1101.91 1050.30 L 1103.89 1052.69 L 1105.78 1055.15 L 1107.68 1057.59 L 1109.59 1060.01 L 1111.47 1062.44 L 1113.36 1064.84 L 1115.25 1067.24 L 1117.13 1069.64 L 1119.00 1072.03 L 1120.85 1074.42 L 1122.71 1076.79 L 1124.50 1079.20 L 1126.26 1081.62 L 1127.96 1084.07 L 1129.59 1086.54 L 1131.21 1089.00 L 1132.78 1091.48 L 1134.27 1094.00 L 1135.76 1096.50 L 1137.27 1098.97 L 1138.78 1101.43 L 1140.29 1103.88 L 1141.83 1106.30 L 1143.24 1108.78 L 1144.71 1111.22 L 1146.19 1113.63 L 1147.67 1116.02 L 1149.17 1118.39 L 1150.64 1120.78 L 1152.17 1123.12 L 1153.72 1125.42 L 1155.28 1127.71 L 1156.83 1129.99 L 1158.39 1132.26 L 1159.92 1134.52 L 1161.47 1136.77 L 1163.02 1139.00 L 1164.68 1141.13 L 1166.20 1143.36 L 1167.72 1145.57 L 1169.17 1147.82 L 1170.58 1150.07 L 1171.99 1152.32 L 1173.33 1154.58 L 1174.59 1156.88 L 1175.88 1159.14 L 1177.18 1161.39 L 1178.45 1163.64 L 1179.76 1165.86 L 1181.13 1168.03 L 1182.49 1170.19 L 1183.85 1172.35 L 1185.21 1174.48 L 1186.65 1176.55 L 1188.11 1178.60 L 1189.56 1180.64 L 1191.03 1182.65 L 1192.51 1184.63 L 1194.01 1186.60 L 1195.52 1188.53 L 1197.00 1190.48 L 1198.49 1192.42" stroke="rgb(140,255,190)" stroke-opacity="0.715" stroke-width="1.13" />
  <path d="M 999.35 1001.02 L 1002.17 1001.73 L 1004.97 1002.44 L 1007.75 1003.14 L 1010.51 1003.83 L 1013.26 1004.51 L 1016.01 1005.17 L 1018.76 1005.83 L 1021.50 1006.47 L 1024.20 1007.14 L 1026.87 1007.82 L 1029.53 1008.50 L 1032.21 1009.08 L 1034.86 1009.67 L 1037.51 1010.18 L 1040.14 1010.71 L 1042.76 1011.23 L 1045.37 1011.74 L 1047.97 1012.18 L 1050.56 1012.64 L 1053.13 1013.10 L 1055.73 1013.53 L 1058.28 1014.01 L 1060.82 1014.45 L 1063.32 1014.89 L 1065.80 1015.35 L 1068.28 1015.81 L 1070.81 1016.24 L 1073.34 1016.66 L 1075.88 1017.04 L 1078.42 1017.41 L 1080.97 1017.74 L 1083.51 1018.12 L 1086.05 1018.52 L 1088.59 1018.95 L 1091.15 1019.27 L 1093.70 1019.62 L 1096.24 1019.99 L 1098.79 1020.31 L 1101.34 1020.62 L 1103.88 1020.94 L 1106.40 1021.29 L 1108.92 1021.48 L 1111.45 1021.63 L 1113.97 1021.81 L 1116.47 1022.00 L 1118.97 1022.20 L 1121.46 1022.38 L 1123.94 1022.55 L 1126.40 1022.70 L 1128.86 1022.83 L 1131.32 1022.95 L 1133.75 1023.12 L 1136.16 1023.33 L 1138.57 1023.53 L 1140.99 1023.80 L 1143.39 1024.02 L 1145.79 1024.27 L 1148.17 1024.57 L 1150.54 1024.86" stroke="rgb(140,255,190)" stroke-opacity="0.535" stroke-width="1.13" />
  <path d="M 996.20 1000.19 L 998.63 1001.52 L 1001.06 1002.81 L 1003.53 1004.02 L 1005.99 1005.22 L 1008.47 1006.37 L 1010.94 1007.49 L 1013.40 1008.62 L 1015.92 1009.60 L 1018.44 1010.53 L 1020.96 1011.43 L 1023.46 1012.34 L 1025.97 1013.17 L 1028.50 1013.95 L 1031.01 1014.69 L 1033.52 1015.43 L 1036.02 1016.16 L 1038.51 1016.90 L 1040.99 1017.62 L 1043.45 1018.34 L 1045.91 1019.07 L 1048.33 1019.87 L 1050.74 1020.69 L 1053.10 1021.59 L 1055.48 1022.43 L 1057.84 1023.29 L 1060.18 1024.16 L 1062.49 1025.07 L 1064.76 1026.03 L 1067.01 1027.00 L 1069.27 1027.90 L 1071.53 1028.80 L 1073.77 1029.69 L 1076.02 1030.57 L 1078.26 1031.40 L 1080.51 1032.22 L 1082.73 1033.07 L 1084.95 1033.90 L 1087.16 1034.70 L 1089.38 1035.49 L 1091.57 1036.28 L 1093.76 1037.09 L 1095.94 1037.90 L 1098.12 1038.69 L 1100.29 1039.46" stroke="rgb(205,165,255)" stroke-opacity="0.474" stroke-width="1.13" />
  <path d="M 999.56 999.72 L 1001.99 1000.12 L 1004.40 1000.52 L 1006.81 1000.91 L 1009.20 1001.29 L 1011.59 1001.68 L 1013.98 1001.96 L 1016.36 1002.24 L 1018.73 1002.50 L 1021.10 1002.73 L 1023.46 1002.89 L 1025.81 1003.06 L 1028.15 1003.27 L 1030.46 1003.61 L 1032.76 1004.04 L 1035.05 1004.37 L 1037.33 1004.76 L 1039.60 1005.16 L 1041.86 1005.56 L 1044.10 1005.99 L 1046.35 1006.38 L 1048.56 1006.87 L 1050.78 1007.28 L 1052.99 1007.65 L 1055.21 1007.96 L 1057.41 1008.30 L 1059.63 1008.45 L 1061.84 1008.60" stroke="rgb(140,255,190)" stroke-opacity="0.534" stroke-width="1.12" />
  <path d="M 1091.10 1025.04 L 1092.78 1026.89 L 1094.46 1028.74 L 1096.16 1030.55 L 1097.90 1032.31 L 1099.54 1034.16 L 1101.15 1036.00" stroke="rgb(140,255,190)" stroke-opacity="0.534" stroke-width="1.12" />
  <path d="M 1096.87 1029.31 L 1099.26 1030.19 L 1101.61 1030.98 L 1103.92 1031.80 L 1106.25 1032.63 L 1108.58 1033.53 L 1110.85 1034.51 L 1113.10 1035.44 L 1115.28 1036.38 L 1117.45 1037.33 L 1119.62 1038.30 L 1121.70 1039.32 L 1123.76 1040.34 L 1125.88 1041.31 L 1127.99 1042.28 L 1130.08 1043.27 L 1132.10 1044.32 L 1134.00 1045.41" stroke="rgb(140,255,190)" stroke-opacity="0.533" stroke-width="1.12" />
  <path d="M 998.98 998.27 L 996.39 997.73 L 993.80 997.14 L 991.22 996.50 L 988.64 995.92 L 986.08 995.30 L 983.55 994.62 L 981.05 993.84 L 978.55 993.13 L 976.05 992.43 L 973.55 991.77 L 971.09 991.11 L 968.63 990.47 L 966.18 989.82 L 963.71 989.17 L 961.27 988.49 L 958.86 987.73 L 956.46 987.00 L 954.05 986.26 L 951.62 985.60 L 949.21 984.91 L 946.79 984.29 L 944.39 983.63 L 941.99 982.98 L 939.61 982.37 L 937.24 981.78 L 934.87 981.20 L 932.52 980.63 L 930.16 980.10 L 927.82 979.53 L 925.49 978.97 L 923.19 978.34 L 920.90 977.67 L 918.61 976.99 L 916.34 976.31 L 914.07 975.64 L 911.82 974.96 L 909.58 974.29" stroke="rgb(205,165,255)" stroke-opacity="0.472" stroke-width="1.12" />
  <path d="M 1003.41 999.34 L 1006.41 999.51 L 1009.38 999.66 L 1012.34 999.84 L 1015.28 1000.05 L 1018.21 1000.21 L 1021.14 1000.34 L 1024.04 1000.48 L 1026.93 1000.63 L 1029.82 1000.77 L 1032.69 1000.90 L 1035.54 1001.01 L 1038.39 1001.08 L 1041.23 1001.15 L 1044.05 1001.28 L 1046.85 1001.42 L 1049.65 1001.51 L 1052.45 1001.57 L 1055.23 1001.57 L 1058.01 1001.63 L 1060.79 1001.66 L 1063.54 1001.67 L 1066.29 1001.71 L 1069.03 1001.74 L 1071.76 1001.78 L 1074.48 1001.82 L 1077.18 1001.85 L 1079.87 1001.76 L 1082.55 1001.68 L 1085.23 1001.64 L 1087.89 1001.66 L 1090.55 1001.67 L 1093.19 1001.78 L 1095.82 1001.86 L 1098.44 1001.94 L 1101.05 1001.97 L 1103.66 1002.00 L 1106.25 1002.08 L 1108.83 1002.11 L 1111.40 1002.12 L 1113.96 1002.14" stroke="rgb(140,255,190)" stroke-opacity="0.532" stroke-width="1.12" />
  <path d="M 1000.04 1000.45 L 1002.52 1000.78 L 1004.98 1001.14 L 1007.42 1001.58 L 1009.85 1002.01 L 1012.26 1002.46 L 1014.68 1002.86 L 1017.08 1003.30 L 1019.47 1003.70 L 1021.86 1004.10 L 1024.23 1004.51 L 1026.59 1004.86 L 1028.95 1005.17 L 1031.31 1005.46 L 1033.65 1005.76 L 1035.99 1006.04 L 1038.32 1006.32 L 1040.64 1006.55 L 1042.96 1006.78 L 1045.25 1007.00 L 1047.54 1007.17 L 1049.82 1007.36 L 1052.09 1007.58 L 1054.33 1007.85 L 1056.57 1008.13 L 1058.80 1008.31 L 1061.05 1008.47 L 1063.28 1008.72 L 1065.52 1008.90 L 1067.74 1009.09 L 1069.95 1009.34 L 1072.14 1009.64 L 1074.33 1009.91 L 1076.50 1010.16 L 1078.67 1010.43 L 1080.82 1010.76 L 1082.96 1011.08 L 1085.10 1011.32 L 1087.24 1011.58 L 1089.36 1011.84 L 1091.47 1012.08 L 1093.58 1012.26 L 1095.68 1012.43 L 1097.77 1012.60 L 1099.84 1012.78 L 1101.92 1012.95 L 1103.98 1013.17 L 1106.03 1013.39 L 1108.07 1013.63 L 1110.10 1013.87 L 1112.12 1014.22 L 1114.12 1014.58 L 1116.12 1014.94 L 1118.11 1015.24 L 1120.09 1015.52 L 1122.06 1015.82 L 1124.03 1016.11 L 1125.99 1016.43 L 1127.95 1016.74 L 1129.91 1017.03 L 1131.84 1017.41 L 1133.77 1017.78 L 1135.69 1018.15 L 1137.61 1018.42 L 1139.53 1018.72 L 1141.45 1018.95 L 1143.37 1019.11 L 1145.27 1019.27 L 1147.18 1019.43" stroke="rgb(140,255,190)" stroke-opacity="0.531" stroke-width="1.11" />
  <path d="M 998.26 999.44 L 1001.11 999.71 L 1003.95 999.88 L 1006.79 1000.07 L 1009.61 1000.37 L 1012.41 1000.68 L 1015.20 1000.94 L 1018.01 1001.18 L 1020.80 1001.42 L 1023.57 1001.66 L 1026.35 1001.95 L 1029.12 1002.25 L 1031.87 1002.58 L 1034.61 1002.92 L 1037.33 1003.26 L 1040.03 1003.60 L 1042.73 1003.96 L 1045.44 1004.24 L 1048.13 1004.51 L 1050.82 1004.79 L 1053.50 1005.02 L 1056.17 1005.25 L 1058.84 1005.48 L 1061.48 1005.73 L 1064.12 1006.01 L 1066.75 1006.29 L 1069.37 1006.57 L 1071.99 1006.83 L 1074.59 1007.09 L 1077.19 1007.32 L 1079.77 1007.54 L 1082.35 1007.78 L 1084.91 1008.04 L 1087.46 1008.32 L 1090.01 1008.59 L 1092.54 1008.85 L 1095.06 1009.08 L 1097.58 1009.30 L 1100.09 1009.54 L 1102.58 1009.79 L 1105.06 1010.02 L 1107.53 1010.26 L 1109.98 1010.58 L 1112.42 1010.89 L 1114.85 1011.20 L 1117.27 1011.50" stroke="rgb(140,255,190)" stroke-opacity="0.531" stroke-width="1.11" />
  <path d="M 1045.15 1010.49 L 1047.65 1012.12 L 1050.12 1013.77 L 1052.57 1015.45 L 1055.02 1017.12 L 1057.49 1018.77 L 1059.95 1020.38 L 1062.43 1021.96 L 1064.89 1023.54 L 1067.30 1025.16 L 1069.71 1026.78 L 1072.13 1028.35 L 1074.53 1029.93 L 1076.92 1031.50 L 1079.25 1033.14 L 1081.61 1034.73 L 1083.99 1036.27 L 1086.39 1037.75 L 1088.73 1039.30 L 1091.08 1040.84 L 1093.40 1042.38 L 1095.74 1043.88 L 1098.01 1045.45 L 1100.27 1047.03 L 1102.51 1048.61 L 1104.74 1050.19 L 1107.01 1051.69 L 1109.27 1053.20 L 1111.49 1054.73 L 1113.78 1056.14 L 1116.04 1057.58 L 1118.30 1059.00 L 1120.56 1060.40 L 1122.81 1061.78 L 1125.08 1063.12 L 1127.35 1064.44 L 1129.61 1065.75 L 1131.85 1067.08 L 1134.07 1068.42 L 1136.31 1069.72 L 1138.54 1071.00 L 1140.77 1072.26 L 1143.00 1073.50 L 1145.23 1074.73 L 1147.45 1075.95 L 1149.65 1077.17 L 1151.82 1078.45 L 1153.97 1079.73 L 1156.17 1080.89 L 1158.36 1082.05 L 1160.50 1083.26" stroke="rgb(140,255,190)" stroke-opacity="0.530" stroke-width="1.11" />
  <path d="M 1058.84 1005.48 L 1061.05 1006.90 L 1063.33 1008.23 L 1065.58 1009.53 L 1067.83 1010.77 L 1070.07 1012.01 L 1072.27 1013.30 L 1074.50 1014.55 L 1076.68 1015.83 L 1078.86 1017.10 L 1081.02 1018.37 L 1083.11 1019.68 L 1085.14 1021.01 L 1087.16 1022.34 L 1089.17 1023.67 L 1091.10 1025.04 L 1093.04 1026.47 L 1094.97 1027.90 L 1096.87 1029.31 L 1098.76 1030.68 L 1100.65 1032.06 L 1102.59 1033.33 L 1104.48 1034.66 L 1106.36 1036.00" stroke="rgb(140,255,190)" stroke-opacity="0.530" stroke-width="1.11" />
  <path d="M 1049.51 1013.07 L 1051.94 1013.91 L 1054.37 1014.77 L 1056.78 1015.63 L 1059.20 1016.44 L 1061.61 1017.26 L 1063.97 1018.16 L 1066.30 1019.11 L 1068.59 1020.13 L 1070.93 1021.03 L 1073.25 1021.95 L 1075.55 1022.87 L 1077.83 1023.85 L 1080.11 1024.80" stroke="rgb(140,255,190)" stroke-opacity="0.530" stroke-width="1.11" />
  <path d="M 999.09 998.53 L 1001.51 999.17 L 1003.94 999.76 L 1006.35 1000.38 L 1008.74 1001.01 L 1011.11 1001.64 L 1013.44 1002.37 L 1015.76 1003.05 L 1018.08 1003.73 L 1020.39 1004.40 L 1022.69 1005.08 L 1024.97 1005.78 L 1027.24 1006.47 L 1029.49 1007.16 L 1031.72 1007.81 L 1033.97 1008.43 L 1036.20 1009.11 L 1038.42 1009.79 L 1040.67 1010.38 L 1042.90 1010.96 L 1045.14 1011.55 L 1047.37 1012.08 L 1049.59 1012.62 L 1051.83 1013.09 L 1054.05 1013.55 L 1056.26 1014.02 L 1058.45 1014.56 L 1060.63 1015.08 L 1062.80 1015.61 L 1064.94 1016.15 L 1067.09 1016.63 L 1069.22 1017.11 L 1071.30 1017.59 L 1073.38 1018.06 L 1075.46 1018.46" stroke="rgb(140,255,190)" stroke-opacity="0.530" stroke-width="1.11" />
  <path d="M 1095.82 1001.86 L 1098.04 1003.24 L 1100.27 1004.58 L 1102.47 1005.88 L 1104.72 1007.18 L 1106.95 1008.48 L 1109.15 1009.79 L 1111.43 1011.03 L 1113.73 1012.20 L 1116.02 1013.37 L 1118.31 1014.53 L 1120.63 1015.60 L 1122.87 1016.81 L 1125.12 1017.95 L 1127.36 1019.12 L 1129.57 1020.29 L 1131.79 1021.44 L 1133.98 1022.60 L 1136.15 1023.71 L 1138.30 1024.82 L 1140.41 1025.99 L 1142.52 1027.14 L 1144.63 1028.28 L 1146.73 1029.40 L 1148.73 1030.65 L 1150.74 1031.79 L 1152.72 1033.02 L 1154.68 1034.26 L 1156.63 1035.51 L 1158.55 1036.74 L 1160.47 1037.96 L 1162.39 1039.16 L 1164.27 1040.37 L 1166.15 1041.59" stroke="rgb(140,255,190)" stroke-opacity="0.529" stroke-width="1.11" />
  <path d="M 1051.69 1017.99 L 1053.85 1017.56 L 1055.97 1017.04 L 1058.08 1016.48 L 1060.20 1015.96 L 1062.35 1015.44 L 1064.49 1014.93 L 1066.60 1014.41 L 1068.73 1013.90 L 1070.75 1013.46 L 1072.75 1013.05 L 1074.71 1012.60 L 1076.66 1012.21 L 1078.65 1011.83 L 1080.63 1011.41" stroke="rgb(205,165,255)" stroke-opacity="0.469" stroke-width="1.11" />
  <path d="M 1000.05 1001.47 L 1002.71 1001.91 L 1005.35 1002.37 L 1008.00 1002.75 L 1010.64 1003.12 L 1013.27 1003.41 L 1015.90 1003.70 L 1018.50 1004.05 L 1021.10 1004.38 L 1023.68 1004.75 L 1026.25 1005.12 L 1028.79 1005.61 L 1031.32 1006.11 L 1033.85 1006.54 L 1036.36 1007.01 L 1038.89 1007.38" stroke="rgb(140,255,190)" stroke-opacity="0.529" stroke-width="1.11" />
  <path d="M 997.57 999.77 L 996.65 1001.89 L 995.72 1004.00 L 994.78 1006.09 L 993.84 1008.18 L 992.92 1010.20 L 991.96 1012.22 L 990.98 1014.20 L 989.96 1016.15 L 988.88 1018.09 L 987.90 1020.14 L 986.97 1022.20 L 985.97 1024.20 L 984.94 1026.14 L 983.92 1028.08 L 982.91 1030.02 L 981.95 1031.99 L 980.98 1033.95 L 979.94 1035.90 L 978.85 1037.82 L 977.75 1039.70 L 976.57 1041.57 L 975.37 1043.39 L 974.20 1045.24 L 973.02 1047.06 L 971.85 1048.88 L 970.66 1050.66 L 969.47 1052.45" stroke="rgb(205,165,255)" stroke-opacity="0.467" stroke-width="1.10" />
  <path d="M 1035.05 1004.37 L 1037.42 1005.22 L 1039.78 1006.07 L 1042.13 1006.92 L 1044.46 1007.75 L 1046.78 1008.60 L 1049.15 1009.23 L 1051.49 1009.91 L 1053.85 1010.45 L 1056.19 1010.99 L 1058.53 1011.59 L 1060.85 1012.26 L 1063.16 1012.86 L 1065.47 1013.44 L 1067.75 1013.99 L 1070.04 1014.52 L 1072.30 1015.10 L 1074.58 1015.72 L 1076.86 1016.31 L 1079.14 1016.91 L 1081.40 1017.56 L 1083.68 1018.11 L 1085.95 1018.63 L 1088.22 1019.16 L 1090.47 1019.68 L 1092.76 1020.05 L 1095.02 1020.46 L 1097.28 1020.86 L 1099.54 1021.22 L 1101.79 1021.59" stroke="rgb(140,255,190)" stroke-opacity="0.527" stroke-width="1.10" />
  <path d="M 1099.84 1012.78 L 1102.37 1013.75 L 1104.90 1014.67 L 1107.40 1015.68 L 1109.86 1016.69 L 1112.34 1017.62 L 1114.80 1018.58 L 1117.30 1019.40 L 1119.79 1020.21 L 1122.26 1021.02 L 1124.73 1021.83 L 1127.20 1022.53 L 1129.66 1023.30 L 1132.12 1024.03 L 1134.56 1024.77 L 1136.99 1025.51" stroke="rgb(140,255,190)" stroke-opacity="0.526" stroke-width="1.10" />
  <path d="M 0.15 837.74 L 3.00 838.42 L 6.13 838.51 L 8.97 838.73 L 12.01 839.48 L 14.71 839.77 L 17.78 840.62 L 20.93 840.72 L 23.72 841.79 L 26.57 842.34 L 29.61 842.54 L 32.48 842.79 L 35.17 843.64 L 38.12 843.92 L 40.95 844.37 L 44.61 844.80 L 47.47 845.46 L 50.70 845.81 L 53.26 846.08 L 56.20 846.91 L 59.25 847.16 L 62.46 847.50 L 64.88 847.93 L 68.12 848.66 L 70.79 849.41 L 73.90 849.65 L 77.25 850.17 L 80.10 850.59 L 82.95 851.14 L 85.70 851.77 L 88.26 852.35 L 91.75 852.35 L 94.80 853.26 L 97.39 853.27 L 100.32 853.75 L 104.03 854.55 L 106.98 854.95 L 109.66 855.32 L 112.69 855.81 L 115.69 855.99 L 118.29 856.63 L 121.18 857.13 L 124.36 857.45 L 127.16 858.31 L 130.30 858.57 L 133.32 859.20 L 136.72 859.59 L 139.59 860.78 L 142.35 861.12 L 145.03 861.34 L 148.33 861.63 L 151.42 862.21 L 154.24 862.53 L 156.81 863.15 L 159.88 864.25 L 163.01 864.04 L 166.37 864.98 L 168.92 864.89 L 171.90 865.51 L 174.74 865.91 L 177.77 866.87 L 180.67 866.97 L 183.17 867.38 L 186.95 868.28 L 189.55 868.60 L 192.48 869.09 L 195.44 869.29 L 198.33 870.00 L 201.59 870.07 L 204.86 870.54 L 207.04 871.35 L 210.09 871.82 L 213.53 872.28 L 216.08 872.83 L 218.93 873.54 L 221.98 873.41 L 225.09 874.42 L 228.01 874.91 L 230.94 875.52 L 234.31 875.09 L 236.91 876.14 L 240.00 876.46 L 242.83 877.31 L 245.43 877.58 L 248.82 877.73 L 251.73 878.72 L 254.35 879.19 L 257.73 879.35 L 260.33 880.23 L 263.52 880.37 L 266.49 880.77 L 269.35 881.76 L 272.27 881.77 L 275.14 882.53 L 278.51 882.83 L 281.55 883.30 L 284.24 883.84 L 286.92 884.17 L 290.01 884.76 L 293.27 885.63 L 295.84 885.47 L 298.87 886.66 L 301.82 886.67 L 305.08 887.04 L 307.80 887.49 L 311.09 888.69 L 313.84 888.73 L 316.86 889.29 L 319.54 889.22 L 322.44 890.23 L 326.24 890.77 L 328.46 891.30 L 331.67 891.30 L 334.77 892.03 L 337.86 892.28 L 340.89 893.02 L 343.36 893.39 L 346.40 893.78 L 349.23 894.28 L 352.21 894.85 L 354.67 895.32 L 358.46 895.80 L 360.90 896.75 L 364.12 896.77 L 367.28 897.03 L 369.58 897.69 L 373.07 898.81 L 375.61 898.95 L 378.63 899.40 L 381.96 899.15 L 384.91 899.76 L 387.97 900.66 L 390.80 901.19 L 393.80 901.91 L 396.55 902.15 L 399.81 902.42 L 402.55 902.90 L 405.72 903.65 L 408.53 904.42 L 411.92 904.47 L 414.80 905.27 L 417.48 905.40 L 420.78 905.82 L 423.29 906.56 L 426.47 907.11 L 429.50 907.12 L 432.19 908.03 L 435.17 908.05 L 437.61 908.59 L 441.13 909.37 L 444.39 909.91 L 447.01 910.27 L 450.31 910.45 L 452.90 911.40 L 456.49 911.83 L 459.07 912.08 L 461.86 912.55 L 464.97 913.11 L 467.76 913.37 L 470.53 914.17 L 474.21 914.94 L 476.47 915.09 L 480.02 915.54 L 482.74 916.28 L 485.86 916.56 L 488.93 916.85 L 491.27 917.34 L 494.76 918.05 L 497.60 918.40 L 500.57 918.75 L 503.49 919.34 L 506.24 919.63 L 509.61 920.41 L 512.60 920.69 L 515.12 921.42 L 518.04 921.83 L 521.23 921.71 L 524.43 922.76 L 527.02 923.16 L 530.11 923.57 L 532.79 924.37 L 535.83 924.60 L 538.98 925.38 L 542.06 925.43 L 544.82 926.35 L 548.06 926.33 L 550.91 927.03 L 553.69 927.49 L 556.51 928.18 L 559.94 928.29 L 562.80 928.79 L 565.35 929.44 L 568.74 929.79 L 571.79 930.72 L 574.19 930.73 L 577.76 931.56 L 580.23 931.54 L 583.41 932.35 L 586.21 932.98 L 589.49 933.67 L 591.83 933.77 L 595.16 934.04 L 598.11 934.79 L 601.07 935.51 L 604.44 935.86 L 606.71 936.32 L 609.64 936.68 L 612.65 937.11 L 616.16 937.74 L 618.98 938.38 L 621.66 938.57 L 624.94 939.24 L 627.74 939.67 L 630.68 940.29 L 633.73 940.54 L 636.72 941.02 L 639.53 941.82 L 643.02 941.77 L 645.62 942.61 L 648.27 943.30 L 651.70 943.36 L 654.32 943.69 L 657.46 944.68 L 660.07 944.91 L 663.35 945.49 L 665.83 945.63 L 669.19 946.36 L 671.96 946.51 L 675.06 947.18 L 678.23 947.61 L 681.22 948.34 L 683.76 948.70 L 686.94 949.43 L 690.42 949.81 L 693.16 949.96 L 695.94 950.78 L 698.42 950.93 L 701.72 951.38 L 705.20 952.07 L 707.87 952.53 L 710.79 952.78 L 713.87 953.63 L 716.44 954.27 L 719.85 954.28 L 722.69 954.67 L 725.90 955.22 L 728.42 956.01 L 731.60 956.34 L 734.47 956.96 L 737.18 957.51 L 740.72 957.89 L 743.25 958.38 L 746.07 958.27 L 749.33 959.30 L 752.07 959.87 L 755.34 960.58 L 757.95 960.72 L 761.24 961.18 L 763.93 961.69 L 766.73 962.20 L 769.89 962.44 L 772.98 963.02 L 775.55 963.27 L 778.75 964.27 L 782.14 964.54 L 784.69 965.15 L 787.67 965.78 L 790.75 966.08 L 793.75 966.72 L 796.65 967.18 L 799.59 967.27 L 802.83 967.76 L 805.49 968.77 L 808.42 968.72 L 811.30 969.32 L 814.26 969.86 L 817.24 970.54 L 820.54 970.94 L 822.92 971.55 L 825.92 971.62 L 828.97 972.33 L 832.27 972.68 L 835.12 973.30 L 838.10 973.70 L 841.06 974.52 L 843.94 974.76 L 847.09 975.20 L 849.84 975.43 L 852.61 976.01 L 856.05 976.80 L 858.55 976.90 L 861.73 977.20 L 865.06 977.65 L 867.48 978.49 L 870.60 978.94 L 873.70 979.69 L 876.32 980.17 L 879.36 980.59 L 882.50 980.71 L 885.27 981.49 L 888.26 982.11 L 891.11 982.27 L 894.60 982.75 L 897.17 983.51 L 900.47 983.87 L 903.12 983.92 L 906.30 984.95 L 909.48 985.14 L 911.84 985.85 L 914.82 986.38 L 918.19 986.32 L 920.95 987.22 L 923.97 987.44 L 926.95 987.88 L 929.73 988.81 L 932.59 989.37 L 935.93 989.58 L 938.56 990.11 L 941.64 990.39 L 944.50 990.59 L 947.63 991.69 L 950.35 991.81 L 953.58 992.72 L 956.80 993.04 L 959.66 993.41 L 962.21 993.65 L 965.75 994.24 L 968.39 994.63 L 971.16 995.66 L 974.47 995.83 L 977.22 996.62 L 980.22 996.70 L 983.16 997.30 L 986.13 997.55 L 989.08 998.02 L 992.38 998.52 L 995.05 998.95 L 997.86 999.23 L 1000.00 1000.00 L 1002.96 1000.49 L 1005.92 1000.96 L 1008.88 1001.46 L 1011.84 1001.96 L 1014.80 1002.45 L 1017.76 1002.95 L 1020.71 1003.49 L 1023.66 1004.01 L 1026.62 1004.53 L 1029.58 1005.02 L 1032.54 1005.50 L 1035.50 1005.98 L 1038.46 1006.46 L 1041.42 1006.96 L 1044.38 1007.45 L 1047.33 1007.97 L 1050.29 1008.49 L 1053.24 1008.99 L 1056.20 1009.52 L 1059.15 1010.03 L 1062.11 1010.56 L 1065.06 1011.10 L 1068.00 1011.67 L 1070.95 1012.23 L 1073.90 1012.79 L 1076.85 1013.34 L 1079.80 1013.89 L 1082.75 1014.44 L 1085.70 1014.98 L 1088.65 1015.53 L 1091.60 1016.06 L 1094.55 1016.60 L 1097.50 1017.13 L 1100.45 1017.68 L 1103.40 1018.23 L 1106.35 1018.78 L 1109.30 1019.33 L 1112.25 1019.88 L 1115.20 1020.43 L 1118.15 1020.95 L 1121.10 1021.48 L 1124.06 1022.01 L 1127.01 1022.55 L 1129.96 1023.08 L 1132.91 1023.61 L 1135.87 1024.15 L 1138.82 1024.69 L 1141.77 1025.20 L 1144.73 1025.70 L 1147.69 1026.20 L 1150.65 1026.70 L 1153.61 1027.20 L 1156.57 1027.69 L 1159.52 1028.18 L 1162.48 1028.68 L 1165.44 1029.16 L 1168.40 1029.66 L 1171.35 1030.19 L 1174.31 1030.71 L 1177.26 1031.26 L 1180.21 1031.82 L 1183.15 1032.38 L 1186.10 1032.93 L 1189.06 1033.44 L 1192.01 1033.96 L 1194.96 1034.50 L 1197.91 1035.05 L 1200.86 1035.61 L 1203.81 1036.18 L 1206.75 1036.75 L 1209.70 1037.31 L 1212.65 1037.86 L 1215.60 1038.38 L 1218.55 1038.92 L 1221.51 1039.46 L 1224.46 1039.98 L 1227.41 1040.52 L 1230.36 1041.04 L 1233.32 1041.56 L 1236.28 1042.07 L 1239.23 1042.58 L 1242.19 1043.09 L 1245.15 1043.59 L 1248.10 1044.10 L 1251.06 1044.61 L 1254.02 1045.10 L 1256.98 1045.59 L 1259.94 1046.06 L 1262.90 1046.54 L 1265.87 1047.00 L 1268.83 1047.47 L 1271.80 1047.92 L 1274.76 1048.36 L 1277.73 1048.78 L 1280.70 1049.20 L 1283.67 1049.64 L 1286.64 1050.08 L 1289.61 1050.51 L 1292.58 1050.95 L 1295.54 1051.39 L 1298.52 1051.80 L 1301.48 1052.23 L 1304.45 1052.66 L 1307.42 1053.08 L 1310.39 1053.52 L 1313.36 1053.94 L 1316.33 1054.37 L 1319.30 1054.80 L 1322.27 1055.23 L 1325.24 1055.66 L 1328.21 1056.09 L 1331.18 1056.50 L 1334.15 1056.91 L 1337.12 1057.32 L 1340.10 1057.72 L 1343.07 1058.12 L 1346.04 1058.53 L 1349.01 1058.96 L 1351.98 1059.39 L 1354.95 1059.83 L 1357.91 1060.28 L 1360.88 1060.70 L 1363.85 1061.11 L 1366.83 1061.53 L 1369.80 1061.94 L 1372.77 1062.34 L 1375.75 1062.71 L 1378.73 1063.07 L 1381.71 1063.42 L 1384.68 1063.78 L 1387.66 1064.15 L 1390.64 1064.53 L 1393.61 1064.91 L 1396.59 1065.30 L 1399.56 1065.71 L 1402.53 1066.10 L 1405.51 1066.50 L 1408.48 1066.90 L 1411.45 1067.31 L 1414.43 1067.70 L 1417.40 1068.08 L 1420.38 1068.46 L 1423.35 1068.85 L 1426.33 1069.24 L 1429.30 1069.64 L 1432.27 1070.04 L 1435.24 1070.46 L 1438.21 1070.89 L 1441.18 1071.34 L 1444.14 1071.80 L 1447.11 1072.25 L 1450.08 1072.70 L 1453.04 1073.16 L 1456.00 1073.63 L 1458.97 1074.08 L 1461.94 1074.52 L 1464.91 1074.95 L 1467.88 1075.37 L 1470.85 1075.77 L 1473.82 1076.17 L 1476.80 1076.56 L 1479.77 1076.94 L 1482.75 1077.32 L 1485.72 1077.71 L 1488.70 1078.11 L 1491.67 1078.50 L 1494.64 1078.93 L 1497.61 1079.37 L 1500.57 1079.82 L 1503.54 1080.26 L 1506.51 1080.71 L 1509.47 1081.15 L 1512.44 1081.58 L 1515.41 1082.02 L 1518.38 1082.47 L 1521.35 1082.88 L 1524.32 1083.30 L 1527.29 1083.74 L 1530.26 1084.17 L 1533.22 1084.61 L 1536.19 1085.03 L 1539.16 1085.46 L 1542.14 1085.87 L 1545.11 1086.27 L 1548.08 1086.67 L 1551.06 1087.06 L 1554.03 1087.47 L 1557.00 1087.87 L 1559.97 1088.28 L 1562.94 1088.69 L 1565.92 1089.11 L 1568.89 1089.51 L 1571.86 1089.92 L 1574.83 1090.34 L 1577.80 1090.75 L 1580.78 1091.15 L 1583.75 1091.54 L 1586.73 1091.92 L 1589.70 1092.32 L 1592.67 1092.72 L 1595.65 1093.10 L 1598.63 1093.48 L 1601.60 1093.87 L 1604.58 1094.25 L 1607.55 1094.64 L 1610.53 1095.02 L 1613.50 1095.42 L 1616.47 1095.82 L 1619.44 1096.22 L 1622.42 1096.62 L 1625.39 1097.02 L 1628.36 1097.42 L 1631.34 1097.80 L 1634.32 1098.19 L 1637.29 1098.57 L 1640.26 1098.98 L 1643.23 1099.41 L 1646.20 1099.85 L 1649.16 1100.31 L 1652.13 1100.75 L 1655.10 1101.20 L 1658.06 1101.65 L 1661.03 1102.10 L 1663.99 1102.57 L 1666.95 1103.06 L 1669.91 1103.54 L 1672.88 1104.02 L 1675.84 1104.51 L 1678.80 1104.99 L 1681.76 1105.48 L 1684.71 1105.98 L 1687.67 1106.48 L 1690.63 1106.95 L 1693.60 1107.44 L 1696.56 1107.91 L 1699.52 1108.38 L 1702.48 1108.87 L 1705.44 1109.35 L 1708.40 1109.83 L 1711.37 1110.30 L 1714.33 1110.77 L 1717.29 1111.23 L 1720.26 1111.68 L 1723.22 1112.14 L 1726.19 1112.61 L 1729.15 1113.06 L 1732.12 1113.51 L 1735.09 1113.95 L 1738.05 1114.40 L 1741.02 1114.83 L 1743.99 1115.25 L 1746.96 1115.67 L 1749.93 1116.08 L 1752.91 1116.48 L 1755.88 1116.88 L 1758.86 1117.27 L 1761.83 1117.65 L 1764.80 1118.05 L 1767.78 1118.47 L 1770.75 1118.89 L 1773.72 1119.30 L 1776.69 1119.71 L 1779.66 1120.14 L 1782.63 1120.57 L 1785.60 1121.00 L 1788.57 1121.42 L 1791.54 1121.83 L 1794.51 1122.24 L 1797.48 1122.65 L 1800.46 1123.05 L 1803.43 1123.45 L 1806.40 1123.86 L 1809.38 1124.25 L 1812.35 1124.65 L 1815.32 1125.04 L 1818.30 1125.43 L 1821.27 1125.81 L 1824.25 1126.20 L 1827.22 1126.60 L 1830.20 1126.99 L 1833.17 1127.38 L 1836.15 1127.77 L 1839.12 1128.17 L 1842.09 1128.57 L 1845.06 1128.98 L 1848.04 1129.38 L 1851.01 1129.79 L 1853.98 1130.18 L 1856.96 1130.55 L 1859.94 1130.92 L 1862.91 1131.29 L 1865.89 1131.64 L 1868.87 1132.01 L 1871.85 1132.38 L 1874.82 1132.76 L 1877.80 1133.16 L 1880.77 1133.55 L 1883.74 1133.96 L 1886.72 1134.35 L 1889.69 1134.73 L 1892.67 1135.12 L 1895.65 1135.49 L 1898.62 1135.86 L 1901.60 1136.22 L 1904.58 1136.59 L 1907.55 1136.97 L 1910.53 1137.35 L 1913.50 1137.74 L 1916.48 1138.14 L 1919.45 1138.56 L 1922.42 1138.96 L 1925.40 1139.35 L 1928.37 1139.73 L 1931.34 1140.13 L 1934.32 1140.53 L 1937.29 1140.94 L 1940.26 1141.35 L 1943.23 1141.76 L 1946.21 1142.16 L 1949.18 1142.56 L 1952.15 1142.97 L 1955.12 1143.39 L 1958.09 1143.80 L 1961.06 1144.23 L 1964.03 1144.65 L 1967.00 1145.08 L 1969.97 1145.52 L 1972.94 1145.95 L 1975.91 1146.38 L 1978.88 1146.81 L 1981.85 1147.24 L 1984.81 1147.69 L 1987.78 1148.15 L 1990.74 1148.60 L 1993.71 1149.07 L 1996.66 1149.56 L 1999.63 1150.05 L 2002.59 1150.52 L 2005.55 1150.99 L 2008.51 1151.47 L 2011.48 1151.91 L 2014.45 1152.36 L 2017.41 1152.79 L 2020.38 1153.22" stroke="rgb(245,245,245)" stroke-opacity="0.701" stroke-width="1.10" />
  <path d="M 999.31 1002.22 L 1002.09 1002.99 L 1004.85 1003.84 L 1007.59 1004.69 L 1010.30 1005.60 L 1013.00 1006.50 L 1015.69 1007.41 L 1018.36 1008.33 L 1021.00 1009.36 L 1023.63 1010.37 L 1026.24 1011.36 L 1028.86 1012.33" stroke="rgb(140,255,190)" stroke-opacity="0.525" stroke-width="1.10" />
  <path d="M 1039.60 1005.16 L 1042.43 1005.67 L 1045.22 1006.28 L 1048.01 1006.87 L 1050.77 1007.56 L 1053.56 1008.12 L 1056.33 1008.67 L 1059.09 1009.22 L 1061.83 1009.85 L 1064.57 1010.43 L 1067.27 1011.14 L 1069.97 1011.85 L 1072.66 1012.57 L 1075.34 1013.29 L 1077.99 1014.03 L 1080.64 1014.76 L 1083.27 1015.50 L 1085.89 1016.26 L 1088.52 1016.94 L 1091.16 1017.57 L 1093.77 1018.22 L 1096.38 1018.88 L 1098.94 1019.61 L 1101.45 1020.49 L 1103.96 1021.39 L 1106.45 1022.30 L 1108.93 1023.21 L 1111.44 1024.06 L 1113.89 1024.97 L 1116.33 1025.87 L 1118.76 1026.76 L 1121.16 1027.66" stroke="rgb(140,255,190)" stroke-opacity="0.525" stroke-width="1.09" />
  <path d="M 1045.44 1004.24 L 1048.08 1005.04 L 1050.66 1005.99 L 1053.26 1006.87 L 1055.86 1007.73 L 1058.49 1008.42 L 1061.11 1009.10 L 1063.74 1009.71 L 1066.36 1010.31 L 1068.97 1010.89 L 1071.57 1011.47 L 1074.17 1012.07 L 1076.76 1012.70 L 1079.35 1013.28 L 1081.93 1013.86 L 1084.48 1014.48 L 1086.97 1015.27 L 1089.47 1016.01 L 1091.98 1016.70 L 1094.47 1017.34 L 1096.97 1017.99 L 1099.42 1018.70 L 1101.85 1019.45 L 1104.30 1020.09 L 1106.74 1020.72 L 1109.17 1021.36 L 1111.59 1021.99 L 1114.01 1022.54 L 1116.42 1023.07 L 1118.79 1023.57 L 1121.15 1024.05 L 1123.49 1024.53 L 1125.83 1024.99 L 1128.17 1025.42 L 1130.50 1025.86 L 1132.80 1026.25 L 1135.07 1026.65 L 1137.33 1027.06 L 1139.56 1027.49 L 1141.79 1027.92 L 1144.01 1028.41" stroke="rgb(140,255,190)" stroke-opacity="0.524" stroke-width="1.09" />
  <path d="M 1038.42 1009.79 L 1040.97 1010.76 L 1043.54 1011.66 L 1046.11 1012.51 L 1048.67 1013.35 L 1051.21 1014.26 L 1053.76 1015.11 L 1056.29 1015.98 L 1058.88 1016.70 L 1061.45 1017.38 L 1064.04 1017.99 L 1066.61 1018.60 L 1069.21 1019.09 L 1071.79 1019.55 L 1074.36 1020.07 L 1076.91 1020.56 L 1079.45 1021.02 L 1081.96 1021.58 L 1084.43 1022.20 L 1086.86 1022.83 L 1089.29 1023.44 L 1091.71 1024.04 L 1094.12 1024.66 L 1096.48 1025.26 L 1098.84 1025.82" stroke="rgb(140,255,190)" stroke-opacity="0.524" stroke-width="1.09" />
  <path d="M 1046.35 1006.38 L 1048.82 1006.73 L 1051.28 1007.06 L 1053.74 1007.37 L 1056.17 1007.73 L 1058.59 1008.09 L 1060.96 1008.48 L 1063.29 1008.86 L 1065.61 1009.30 L 1067.93 1009.72 L 1070.24 1010.15 L 1072.53 1010.51 L 1074.84 1010.98 L 1077.15 1011.43 L 1079.48 1011.91 L 1081.81 1012.40 L 1084.10 1012.97 L 1086.38 1013.62 L 1088.65 1014.21 L 1090.88 1014.87 L 1093.10 1015.50 L 1095.34 1016.11 L 1097.58 1016.69 L 1099.79 1017.32" stroke="rgb(140,255,190)" stroke-opacity="0.524" stroke-width="1.09" />
  <path d="M 998.65 998.24 L 1001.30 998.92 L 1003.94 999.56 L 1006.52 1000.27 L 1009.10 1000.97 L 1011.61 1001.60 L 1014.10 1002.24 L 1016.54 1002.99 L 1018.99 1003.71 L 1021.43 1004.43 L 1023.86 1005.14 L 1026.28 1005.88 L 1028.66 1006.66 L 1031.04 1007.41 L 1033.41 1008.14 L 1035.75 1008.84 L 1038.08 1009.53 L 1040.40 1010.24 L 1042.68 1010.99 L 1044.97 1011.69 L 1047.25 1012.37 L 1049.51 1013.07 L 1051.77 1013.75 L 1054.06 1014.43 L 1056.30 1015.13 L 1058.53 1015.77 L 1060.70 1016.31 L 1062.88 1016.86 L 1065.05 1017.40 L 1067.23 1017.95 L 1069.41 1018.47 L 1071.60 1018.97 L 1073.80 1019.46 L 1075.99 1019.93 L 1078.17 1020.42 L 1080.33 1020.90 L 1082.49 1021.40 L 1084.66 1021.91 L 1086.79 1022.40 L 1088.90 1022.88 L 1091.01 1023.38 L 1093.12 1023.86 L 1095.19 1024.37 L 1097.23 1024.98 L 1099.24 1025.63 L 1101.19 1026.32 L 1103.12 1026.97 L 1105.04 1027.62 L 1106.92 1028.27 L 1108.78 1028.97 L 1110.64 1029.60 L 1112.50 1030.22" stroke="rgb(140,255,190)" stroke-opacity="0.522" stroke-width="1.08" />
  <path d="M 1002.15 997.61 L 1003.81 998.27 L 1005.46 998.93 L 1007.05 999.60 L 1008.69 1000.21 L 1010.30 1000.82 L 1011.89 1001.45 L 1013.43 1002.09 L 1015.01 1002.76 L 1016.59 1003.44 L 1018.16 1004.14 L 1019.68 1004.83 L 1021.18 1005.51 L 1022.66 1006.17 L 1024.15 1006.80 L 1025.64 1007.44 L 1027.15 1008.13 L 1028.64 1008.80 L 1030.14 1009.53 L 1031.68 1010.18 L 1033.23 1010.81 L 1034.77 1011.41 L 1036.30 1011.97 L 1037.75 1012.53 L 1039.18 1013.07 L 1040.58 1013.58 L 1041.95 1014.01 L 1043.27 1014.44 L 1044.58 1014.90 L 1045.95 1015.34 L 1047.28 1015.78 L 1048.49 1016.23 L 1049.56 1016.77 L 1050.62 1017.39 L 1051.69 1017.99 L 1052.75 1018.59 L 1053.82 1019.19 L 1054.89 1019.82 L 1055.96 1020.45 L 1056.99 1021.01 L 1058.04 1021.53 L 1059.08 1022.04 L 1060.12 1022.56 L 1061.12 1023.11 L 1062.15 1023.65 L 1063.20 1024.23 L 1064.28 1024.95 L 1065.33 1025.68 L 1066.38 1026.41 L 1067.51 1027.15 L 1068.65 1027.88" stroke="rgb(205,165,255)" stroke-opacity="0.451" stroke-width="1.04" />
  <path d="M 1066.07 1004.19 L 1067.91 1005.18 L 1069.69 1006.16 L 1071.46 1007.15 L 1073.05 1008.18 L 1074.68 1009.14 L 1076.30 1010.10 L 1077.95 1010.99 L 1079.57 1011.99 L 1081.15 1013.11 L 1082.72 1014.21 L 1084.25 1015.22 L 1085.76 1016.22 L 1087.25 1017.23 L 1088.77 1018.13 L 1090.36 1019.03 L 1091.94 1019.91 L 1093.54 1020.72 L 1095.07 1021.60 L 1096.62 1022.49 L 1098.18 1023.24" stroke="rgb(205,165,255)" stroke-opacity="0.450" stroke-width="1.04" />
  <path d="M 999.75 996.99 L 999.25 998.03 L 998.75 999.07 L 998.23 1000.10 L 997.72 1001.14 L 997.08 1002.23 L 996.43 1003.30 L 995.81 1004.32 L 995.24 1005.40 L 994.70 1006.48 L 994.12 1007.55 L 993.53 1008.62" stroke="rgb(230,230,230)" stroke-opacity="0.385" stroke-width="0.71" />
  <path d="M 1005.54 1002.00 L 1006.76 1001.44 L 1007.99 1000.89 L 1009.19 1000.26 L 1010.43 999.60 L 1011.67 998.94 L 1012.95 998.29 L 1014.20 997.54 L 1015.40 996.72 L 1016.60 995.90 L 1017.84 995.17 L 1019.06 994.40 L 1020.27 993.64 L 1021.48 992.87 L 1022.74 992.27" stroke="rgb(230,230,230)" stroke-opacity="0.382" stroke-width="0.70" />
  <path d="M 1001.98 996.59 L 1002.77 997.72 L 1003.46 998.84 L 1004.14 999.97 L 1004.81 1001.05 L 1005.47 1002.14 L 1006.19 1003.35 L 1006.86 1004.56 L 1007.56 1005.71 L 1008.27 1006.82 L 1009.01 1007.94" stroke="rgb(230,230,230)" stroke-opacity="0.381" stroke-width="0.70" />
  <path d="M 997.87 998.51 L 998.00 997.26 L 998.03 996.01 L 998.19 994.73 L 998.46 993.49 L 998.73 992.26 L 998.91 991.02 L 999.26 989.70 L 999.68 988.42 L 1000.03 987.11" stroke="rgb(230,230,230)" stroke-opacity="0.377" stroke-width="0.69" />
  <path d="M 1004.08 1000.29 L 1003.84 1001.27 L 1003.51 1002.18 L 1002.84 1003.12 L 1002.17 1004.08" stroke="rgb(230,230,230)" stroke-opacity="0.375" stroke-width="0.68" />
  <path d="M 997.83 1001.33 L 997.37 1002.28 L 997.03 1003.36 L 996.78 1004.41 L 996.53 1005.47 L 996.30 1006.49 L 996.06 1007.59 L 995.76 1008.70 L 995.50 1009.80" stroke="rgb(230,230,230)" stroke-opacity="0.365" stroke-width="0.65" />
  <path d="M 1001.82 1002.92 L 1003.04 1003.26 L 1004.26 1003.59 L 1005.41 1003.88 L 1006.54 1004.16" stroke="rgb(230,230,230)" stroke-opacity="0.362" stroke-width="0.65" />
  <path d="M 992.83 1001.13 L 994.30 1000.85 L 995.75 1000.51 L 997.19 1000.18 L 998.59 999.73 L 999.95 999.26 L 1001.30 998.76 L 1002.66 998.28 L 1004.05 997.86" stroke="rgb(230,230,230)" stroke-opacity="0.361" stroke-width="0.64" />
  <path d="M 996.37 1004.65 L 996.59 1005.82 L 996.75 1006.95 L 996.87 1008.02 L 997.03 1009.10 L 997.20 1010.19 L 997.42 1011.27 L 997.57 1012.38 L 997.71 1013.40 L 997.88 1014.39 L 998.09 1015.25 L 998.33 1016.14 L 998.53 1017.05 L 998.65 1018.00 L 998.88 1018.92 L 999.13 1019.86" stroke="rgb(230,230,230)" stroke-opacity="0.361" stroke-width="0.64" />
  <path d="M 1005.76 1000.55 L 1005.17 1001.82 L 1004.59 1003.07 L 1003.99 1004.28 L 1003.30 1005.46 L 1002.57 1006.62" stroke="rgb(230,230,230)" stroke-opacity="0.359" stroke-width="0.64" />
  <path d="M 1007.48 998.78 L 1007.87 997.87 L 1008.62 996.83 L 1009.35 995.79 L 1010.03 994.85 L 1010.91 994.01 L 1011.76 992.95 L 1012.54 991.87 L 1013.12 990.65 L 1013.68 989.43 L 1014.22 988.21 L 1014.80 987.08 L 1015.24 985.83 L 1015.63 984.57" stroke="rgb(230,230,230)" stroke-opacity="0.357" stroke-width="0.63" />
  <path d="M 998.88 994.03 L 997.62 993.75 L 996.45 993.56 L 995.31 993.39 L 994.18 993.14 L 993.06 992.90 L 991.95 992.63" stroke="rgb(230,230,230)" stroke-opacity="0.357" stroke-width="0.63" />
  <path d="M 998.52 1002.37 L 998.19 1001.32 L 997.93 1000.21 L 997.67 999.10 L 997.41 998.03 L 997.23 996.93 L 997.10 995.82 L 996.91 994.75 L 996.73 993.56 L 996.67 992.44 L 996.80 991.35 L 996.93 990.26 L 997.15 989.22" stroke="rgb(230,230,230)" stroke-opacity="0.356" stroke-width="0.63" />
  <path d="M 1002.97 1001.77 L 1002.74 1000.41 L 1002.51 999.05 L 1002.30 997.70 L 1002.13 996.36 L 1002.04 995.02 L 1001.94 993.69 L 1001.91 992.40 L 1001.95 991.05" stroke="rgb(230,230,230)" stroke-opacity="0.355" stroke-width="0.63" />
  <path d="M 999.11 1002.37 L 1000.14 1003.13 L 1001.07 1003.92 L 1002.02 1004.71 L 1003.05 1005.39 L 1004.12 1006.05 L 1005.23 1006.65 L 1006.42 1007.24 L 1007.60 1007.83 L 1008.78 1008.39 L 1009.96 1009.04 L 1011.13 1009.67 L 1012.32 1010.32 L 1013.45 1011.03 L 1014.57 1011.74" stroke="rgb(230,230,230)" stroke-opacity="0.354" stroke-width="0.62" />
  <path d="M 1003.36 1004.51 L 1002.00 1004.90 L 1000.59 1005.30 L 999.20 1005.79 L 997.81 1006.28" stroke="rgb(230,230,230)" stroke-opacity="0.353" stroke-width="0.62" />
  <path d="M 997.81 992.12 L 998.72 993.23 L 999.69 994.24 L 1000.64 995.25 L 1001.52 996.27 L 1002.57 997.09 L 1003.63 997.75 L 1004.69 998.41 L 1005.75 999.07 L 1006.87 999.73" stroke="rgb(230,230,230)" stroke-opacity="0.352" stroke-width="0.62" />
  <path d="M 1002.44 1001.36 L 1001.93 999.97 L 1001.50 998.57 L 1000.99 997.21 L 1000.55 995.84 L 1000.01 994.48 L 999.50 993.12 L 998.89 991.80 L 998.23 990.54 L 997.50 989.33" stroke="rgb(230,230,230)" stroke-opacity="0.349" stroke-width="0.61" />
</g>
</svg>
