<?xml version="1.0" encoding="UTF-8"?>
<svg xmlns="http://www.w3.org/2000/svg" width="2000" height="2000" viewBox="0 0 2000 2000">
<g fill="none" stroke-linecap="round" stroke-linejoin="round">
  <path d="M 1001.08 997.13 L 997.85 997.89 L 994.64 998.72 L 991.46 999.57 L 988.30 1000.46 L 985.15 1001.32 L 981.99 1002.12 L 978.86 1002.94 L 975.74 1003.76 L 972.63 1004.58 L 969.54 1005.41 L 966.47 1006.25 L 963.40 1007.10 L 960.35 1007.94 L 957.32 1008.78 L 954.28 1009.59 L 951.26 1010.38 L 948.25 1011.17 L 945.25 1011.95 L 942.26 1012.71 L 939.28 1013.46 L 936.30 1014.20 L 933.35 1014.94 L 930.40 1015.67 L 927.47 1016.44 L 924.56 1017.22 L 921.65 1017.99 L 918.75 1018.70 L 915.86 1019.40 L 912.97 1020.08 L 910.09 1020.73 L 907.22 1021.39 L 904.37 1022.05 L 901.52 1022.70 L 898.68 1023.33 L 895.86 1024.00 L 893.06 1024.67 L 890.26 1025.32 L 887.47 1025.97 L 884.70 1026.61 L 881.92 1027.21 L 879.16 1027.82 L 876.40 1028.42 L 873.65 1028.97 L 870.91 1029.52 L 868.18 1030.10 L 865.46 1030.67 L 862.76 1031.24 L 860.08 1031.86 L 857.41 1032.48" stroke="rgb(120,210,255)" stroke-opacity="0.855" stroke-width="1.64" />
  <path d="M 1002.13 999.74 L 998.98 1000.37 L 995.84 1001.02 L 992.72 1001.66 L 989.62 1002.35 L 986.54 1003.05 L 983.47 1003.75 L 980.41 1004.44 L 977.37 1005.12 L 974.34 1005.84 L 971.33 1006.57 L 968.31 1007.22 L 965.32 1007.91 L 962.34 1008.62 L 959.38 1009.34 L 956.43 1010.06 L 953.49 1010.77 L 950.56 1011.49 L 947.65 1012.22 L 944.75 1012.93 L 941.86 1013.64 L 938.98 1014.36 L 936.13 1015.09 L 933.27 1015.80 L 930.44 1016.53 L 927.62 1017.27 L 924.83 1018.04 L 922.04 1018.79 L 919.25 1019.45 L 916.45 1020.05 L 913.66 1020.64 L 910.88 1021.22 L 908.11 1021.82 L 905.36 1022.44 L 902.62 1023.07 L 899.89 1023.67 L 897.17 1024.25 L 894.46 1024.86 L 891.77 1025.48 L 889.09 1026.13 L 886.42 1026.75 L 883.76 1027.39 L 881.14 1028.09 L 878.51 1028.77 L 875.92 1029.48" stroke="rgb(120,210,255)" stroke-opacity="0.853" stroke-width="1.63" />
  <path d="M 1000.10 996.49 L 996.86 996.96 L 993.62 997.40 L 990.40 997.83 L 987.18 998.23 L 983.98 998.62 L 980.79 999.00 L 977.61 999.31 L 974.44 999.64 L 971.28 999.90 L 968.14 1000.26 L 965.01 1000.65 L 961.90 1001.01 L 958.79 1001.29 L 955.69 1001.61 L 952.61 1001.92 L 949.54 1002.24 L 946.48 1002.55 L 943.44 1002.87 L 940.40 1003.15 L 937.38 1003.46 L 934.37 1003.77 L 931.37 1004.07 L 928.38 1004.37 L 925.41 1004.67" stroke="rgb(120,210,255)" stroke-opacity="0.852" stroke-width="1.63" />
  <path d="M 998.18 998.55 L 994.92 999.13 L 991.67 999.70 L 988.43 1000.25 L 985.21 1000.80 L 982.00 1001.35 L 978.79 1001.83 L 975.60 1002.32 L 972.42 1002.82 L 969.25 1003.34 L 966.10 1003.84 L 962.96 1004.33 L 959.83 1004.84 L 956.72 1005.35 L 953.62 1005.86 L 950.52 1006.35 L 947.45 1006.87 L 944.38 1007.35 L 941.32 1007.81 L 938.28 1008.30 L 935.25 1008.76 L 932.23 1009.22 L 929.22 1009.66" stroke="rgb(120,210,255)" stroke-opacity="0.851" stroke-width="1.63" />
  <path d="M 998.66 1000.56 L 995.72 1001.23 L 992.82 1001.94 L 989.93 1002.66 L 987.06 1003.37 L 984.20 1004.08 L 981.35 1004.79 L 978.54 1005.55 L 975.73 1006.33 L 972.94 1007.10 L 970.17 1007.87 L 967.38 1008.54 L 964.61 1009.24 L 961.86 1009.94 L 959.11 1010.63 L 956.37 1011.31 L 953.64 1011.99 L 950.93 1012.66 L 948.23 1013.37 L 945.56 1014.11 L 942.91 1014.90 L 940.30 1015.72 L 937.70 1016.54 L 935.08 1017.25 L 932.48 1017.94 L 929.89 1018.64 L 927.29 1019.34 L 924.68 1019.96 L 922.09 1020.62 L 919.51 1021.28 L 916.94 1021.94 L 914.41 1022.70 L 911.88 1023.46 L 909.36 1024.20 L 906.85 1024.93 L 904.35 1025.66 L 901.87 1026.33 L 899.39 1026.96 L 896.95 1027.63 L 894.52 1028.32 L 892.10 1029.05 L 889.71 1029.81 L 887.30 1030.52 L 884.91 1031.24 L 882.52 1031.95 L 880.14 1032.68 L 877.77 1033.41 L 875.41 1034.18 L 873.06 1034.93 L 870.72 1035.67 L 868.38 1036.40 L 866.06 1037.13 L 863.73 1037.82 L 861.42 1038.50 L 859.11 1039.17 L 856.82 1039.86 L 854.53 1040.55 L 852.25 1041.18 L 849.99 1041.81 L 847.73 1042.43 L 845.48 1043.09 L 843.25 1043.73" stroke="rgb(120,210,255)" stroke-opacity="0.468" stroke-width="1.62" />
  <path d="M 999.80 1000.93 L 996.41 1001.46 L 993.03 1001.98 L 989.66 1002.47 L 986.31 1002.97 L 982.96 1003.45 L 979.63 1003.92 L 976.31 1004.38 L 973.01 1004.89 L 969.73 1005.41 L 966.46 1005.93 L 963.21 1006.44 L 959.97 1006.99 L 956.75 1007.53 L 953.53 1008.03 L 950.33 1008.56 L 947.14 1009.09 L 943.97 1009.59 L 940.80 1010.08 L 937.65 1010.55 L 934.50 1011.01 L 931.37 1011.46 L 928.25 1011.90 L 925.14 1012.34 L 922.03 1012.70 L 918.94 1013.01 L 915.85 1013.32 L 912.78 1013.67 L 909.72 1014.03 L 906.68 1014.38 L 903.64 1014.71" stroke="rgb(120,210,255)" stroke-opacity="0.850" stroke-width="1.62" />
  <path d="M 997.13 997.21 L 994.08 997.84 L 991.04 998.41 L 988.00 998.97 L 984.98 999.55 L 981.97 1000.12 L 978.96 1000.67 L 975.97 1001.23 L 972.99 1001.76 L 970.02 1002.26 L 967.06 1002.76 L 964.11 1003.25 L 961.17 1003.75 L 958.25 1004.23 L 955.33 1004.74 L 952.44 1005.26 L 949.55 1005.78 L 946.68 1006.34 L 943.83 1006.91 L 940.99 1007.46 L 938.15 1008.02 L 935.33 1008.54 L 932.50 1008.97 L 929.68 1009.37" stroke="rgb(120,210,255)" stroke-opacity="0.845" stroke-width="1.61" />
  <path d="M 1004.53 998.78 L 1001.42 999.33 L 998.32 999.89 L 995.23 1000.46 L 992.16 1001.02 L 989.10 1001.59 L 986.04 1002.11 L 983.00 1002.63 L 979.98 1003.21 L 976.98 1003.80 L 973.99 1004.40 L 971.01 1005.00 L 968.04 1005.56 L 965.08 1006.10 L 962.13 1006.64 L 959.19 1007.14 L 956.27 1007.66 L 953.35 1008.18 L 950.45 1008.67 L 947.55 1009.15 L 944.66 1009.59 L 941.78 1010.03 L 938.91 1010.51 L 936.06 1010.98 L 933.22 1011.44 L 930.38 1011.86 L 927.56 1012.30 L 924.75 1012.73 L 921.95 1013.16 L 919.17 1013.63 L 916.40 1014.10 L 913.64 1014.57 L 910.88 1015.00 L 908.13 1015.44 L 905.39 1015.87 L 902.65 1016.21 L 899.93 1016.54 L 897.21 1016.87 L 894.51 1017.25 L 891.82 1017.63 L 889.15 1018.04 L 886.48 1018.43 L 883.83 1018.83 L 881.19 1019.27 L 878.56 1019.64 L 875.93 1019.99 L 873.31 1020.36 L 870.71 1020.71 L 868.13 1021.14 L 865.56 1021.59" stroke="rgb(120,210,255)" stroke-opacity="0.845" stroke-width="1.61" />
  <path d="M 999.18 1000.13 L 995.97 1000.88 L 992.77 1001.63 L 989.58 1002.36 L 986.40 1003.07 L 983.23 1003.78 L 980.07 1004.46 L 976.93 1005.15 L 973.79 1005.84 L 970.68 1006.53 L 967.57 1007.20 L 964.47 1007.85 L 961.37 1008.47 L 958.29 1009.10 L 955.21 1009.63 L 952.12 1010.11 L 949.05 1010.53 L 945.98 1010.95 L 942.93 1011.37 L 939.89 1011.78 L 936.86 1012.19 L 933.85 1012.63 L 930.85 1013.07 L 927.85 1013.47 L 924.87 1013.88 L 921.90 1014.28 L 918.94 1014.64 L 915.99 1015.01 L 913.06 1015.39 L 910.14 1015.78 L 907.22 1016.13" stroke="rgb(120,210,255)" stroke-opacity="0.845" stroke-width="1.61" />
  <path d="M 913.06 1015.39 L 909.80 1016.44 L 906.55 1017.48 L 903.32 1018.53 L 900.10 1019.56 L 896.90 1020.60 L 893.72 1021.68 L 890.55 1022.75 L 887.39 1023.79 L 884.24 1024.84 L 881.11 1025.89 L 877.99 1026.92 L 874.89 1027.98 L 871.78 1028.98 L 868.69 1029.97 L 865.59 1030.93 L 862.51 1031.88 L 859.44 1032.81 L 856.38 1033.77 L 853.33 1034.69 L 850.29 1035.61 L 847.28 1036.55 L 844.28 1037.50 L 841.27 1038.40 L 838.28 1039.28 L 835.29 1040.15 L 832.32 1041.04 L 829.34 1041.86 L 826.38 1042.67 L 823.42 1043.48 L 820.48 1044.27 L 817.54 1045.04 L 814.61 1045.79 L 811.69 1046.53 L 808.80 1047.32 L 805.91 1048.10 L 803.04 1048.87 L 800.17 1049.63 L 797.32 1050.38 L 794.47 1051.11 L 791.64 1051.85 L 788.82 1052.60 L 786.00 1053.28 L 783.20 1053.97 L 780.41 1054.67 L 777.63 1055.37 L 774.87 1056.08 L 772.11 1056.75 L 769.35 1057.41 L 766.61 1058.05 L 763.87 1058.69 L 761.15 1059.34 L 758.44 1060.00 L 755.76 1060.73 L 753.09 1061.46 L 750.45 1062.23 L 747.80 1062.96 L 745.16 1063.69 L 742.55 1064.47" stroke="rgb(120,210,255)" stroke-opacity="0.842" stroke-width="1.60" />
  <path d="M 1003.50 1000.10 L 1000.57 1000.68 L 997.65 1001.24 L 994.74 1001.77 L 991.83 1002.26 L 988.94 1002.75 L 986.06 1003.21 L 983.18 1003.60 L 980.31 1004.00 L 977.46 1004.36 L 974.62 1004.73 L 971.79 1004.99 L 968.97 1005.23 L 966.17 1005.56 L 963.37 1005.91 L 960.59 1006.23 L 957.83 1006.55 L 955.08 1006.93 L 952.36 1007.34 L 949.65 1007.75 L 946.96 1008.17 L 944.28 1008.59 L 941.61 1008.97 L 938.93 1009.30 L 936.26 1009.65 L 933.60 1010.02 L 930.95 1010.38 L 928.30 1010.74 L 925.68 1011.11 L 923.07 1011.47 L 920.47 1011.86 L 917.88 1012.22 L 915.29 1012.55 L 912.72 1012.89 L 910.17 1013.29 L 907.63 1013.69 L 905.10 1014.03 L 902.60 1014.38 L 900.12 1014.82 L 897.65 1015.30 L 895.18 1015.78" stroke="rgb(120,210,255)" stroke-opacity="0.461" stroke-width="1.58" />
  <path d="M 997.92 1002.30 L 995.11 1003.19 L 992.30 1004.07 L 989.51 1004.92 L 986.73 1005.80 L 983.98 1006.70 L 981.23 1007.60 L 978.50 1008.49 L 975.79 1009.41 L 973.09 1010.32 L 970.42 1011.29 L 967.76 1012.26 L 965.10 1013.21 L 962.46 1014.17 L 959.80 1015.04" stroke="rgb(120,210,255)" stroke-opacity="0.460" stroke-width="1.58" />
  <path d="M 999.48 1000.02 L 996.60 1000.57 L 993.73 1001.10 L 990.87 1001.63 L 988.05 1002.28 L 985.24 1002.95 L 982.43 1003.55 L 979.63 1004.14 L 976.84 1004.71 L 974.05 1005.23 L 971.28 1005.80 L 968.52 1006.39 L 965.78 1006.97 L 963.04 1007.54 L 960.30 1008.02 L 957.57 1008.51 L 954.85 1008.98 L 952.14 1009.44 L 949.44 1009.90 L 946.75 1010.35 L 944.07 1010.85 L 941.42 1011.37 L 938.77 1011.90 L 936.15 1012.45 L 933.51 1012.91 L 930.89 1013.35 L 928.27 1013.81 L 925.67 1014.29 L 923.09 1014.76 L 920.52 1015.28 L 917.96 1015.82 L 915.43 1016.40 L 912.92 1017.05 L 910.44 1017.76 L 907.97 1018.45 L 905.50 1019.12 L 903.04 1019.78 L 900.59 1020.43 L 898.16 1021.14 L 895.75 1021.84 L 893.33 1022.51 L 890.90 1023.11 L 888.48 1023.67 L 886.08 1024.26 L 883.68 1024.84 L 881.30 1025.45 L 878.93 1026.06 L 876.59 1026.75 L 874.26 1027.43 L 871.93 1028.11 L 869.62 1028.77 L 867.31 1029.42 L 865.01 1030.09 L 862.73 1030.77 L 860.45 1031.43 L 858.18 1032.07 L 855.92 1032.70 L 853.66 1033.32 L 851.41 1033.94 L 849.16 1034.53 L 846.94 1035.15 L 844.74 1035.84 L 842.53 1036.47 L 840.35 1037.16 L 838.18 1037.85 L 836.00 1038.48 L 833.83 1039.10 L 831.65 1039.65 L 829.48 1040.25 L 827.33 1040.84 L 825.19 1041.45 L 823.06 1042.02" stroke="rgb(120,210,255)" stroke-opacity="0.460" stroke-width="1.58" />
  <path d="M 1001.11 997.48 L 998.56 998.33 L 996.04 999.20 L 993.52 1000.07 L 991.01 1000.93 L 988.51 1001.80 L 986.02 1002.64 L 983.55 1003.51 L 981.10 1004.39 L 978.64 1005.25 L 976.18 1006.05 L 973.75 1006.92 L 971.33 1007.75 L 968.94 1008.66 L 966.55 1009.53 L 964.18 1010.41 L 961.79 1011.21 L 959.44 1012.06 L 957.11 1012.95 L 954.82 1013.92 L 952.52 1014.85 L 950.22 1015.73 L 947.91 1016.58 L 945.61 1017.42 L 943.29 1018.19 L 940.94 1018.86 L 938.60 1019.51 L 936.27 1020.18 L 933.95 1020.83 L 931.64 1021.51" stroke="rgb(120,210,255)" stroke-opacity="0.451" stroke-width="1.53" />
  <path d="M 732.21 1067.02 L 729.75 1069.34 L 727.28 1071.64 L 724.83 1073.94 L 722.39 1076.23 L 720.00 1078.52 L 717.63 1080.82 L 715.26 1083.09 L 712.94 1085.40 L 710.68 1087.72 L 708.49 1090.10 L 706.33 1092.47 L 704.17 1094.84 L 702.03 1097.19 L 699.91 1099.56 L 697.81 1101.91 L 695.72 1104.26 L 693.64 1106.58 L 691.58 1108.89 L 689.51 1111.19 L 687.42 1113.48 L 685.33 1115.73 L 683.24 1117.97 L 681.16 1120.23 L 679.09 1122.47 L 677.02 1124.70 L 674.97 1126.94 L 672.92 1129.16 L 670.89 1131.37 L 668.86 1133.58 L 666.84 1135.78 L 664.82 1137.97 L 662.77 1140.09 L 660.73 1142.19 L 658.65 1144.27 L 656.59 1146.34 L 654.50 1148.35 L 652.42 1150.36 L 650.35 1152.36 L 648.28 1154.35 L 646.21 1156.34 L 644.15 1158.28 L 642.10 1160.23 L 640.07 1162.18 L 638.06 1164.11 L 636.05 1166.05 L 634.05 1167.99 L 632.05 1169.91 L 630.08 1171.85 L 628.17 1173.84 L 626.25 1175.82 L 624.33 1177.80 L 622.45 1179.77 L 620.57 1181.73 L 618.69 1183.69 L 616.84 1185.67 L 614.99 1187.62 L 613.15 1189.58 L 611.33 1191.54 L 609.53 1193.51 L 607.78 1195.50" stroke="rgb(205,165,255)" stroke-opacity="0.721" stroke-width="1.24" />
  <path d="M 995.50 1002.17 L 992.28 1003.01 L 989.07 1003.82 L 985.88 1004.61 L 982.69 1005.41 L 979.51 1006.22 L 976.36 1007.03 L 973.22 1007.85 L 970.09 1008.71 L 966.98 1009.57 L 963.89 1010.41 L 960.80 1011.21 L 957.73 1011.99 L 954.68 1012.78 L 951.64 1013.58 L 948.62 1014.40 L 945.62 1015.20 L 942.63 1015.98 L 939.65 1016.77 L 936.69 1017.56 L 933.72 1018.27 L 930.75 1018.99 L 927.79 1019.68 L 924.84 1020.35 L 921.90 1021.01 L 918.97 1021.67 L 916.05 1022.34 L 913.15 1023.01 L 910.26 1023.70 L 907.38 1024.38 L 904.51 1025.08 L 901.64 1025.78 L 898.78 1026.44 L 895.92 1027.08 L 893.07 1027.72 L 890.23 1028.36 L 887.40 1028.99 L 884.57 1029.59 L 881.76 1030.19 L 878.96 1030.80 L 876.17 1031.41 L 873.40 1032.01 L 870.63 1032.61 L 867.89 1033.25 L 865.15 1033.88 L 862.44 1034.53 L 859.75 1035.19 L 857.07 1035.86 L 854.40 1036.54 L 851.73 1037.19 L 849.07 1037.85 L 846.41 1038.51 L 843.76 1039.16 L 841.12 1039.82 L 838.50 1040.49 L 835.88 1041.15 L 833.28 1041.82 L 830.68 1042.46 L 828.10 1043.12 L 825.52 1043.78 L 822.94 1044.43 L 820.38 1045.08 L 817.83 1045.72 L 815.28 1046.34 L 812.73 1046.95 L 810.18 1047.51 L 807.65 1048.07 L 805.13 1048.65 L 802.62 1049.20 L 800.10 1049.72 L 797.60 1050.24 L 795.12 1050.79 L 792.66 1051.39 L 790.21 1052.00 L 787.78 1052.65 L 785.37 1053.30 L 782.95 1053.94 L 780.55 1054.58 L 778.17 1055.22 L 775.79 1055.85 L 773.42 1056.50 L 771.06 1057.12 L 768.71 1057.73 L 766.36 1058.33 L 764.02 1058.94 L 761.70 1059.55 L 759.39 1060.19 L 757.09 1060.84 L 754.79 1061.44 L 752.50 1062.03 L 750.21 1062.62 L 747.93 1063.17 L 745.65 1063.70 L 743.38 1064.22 L 741.12 1064.75 L 738.88 1065.31 L 736.64 1065.87 L 734.42 1066.44 L 732.21 1067.02 L 730.01 1067.60 L 727.82 1068.17" stroke="rgb(205,165,255)" stroke-opacity="0.720" stroke-width="1.24" />
  <path d="M 854.40 1036.54 L 851.54 1038.33 L 848.70 1040.11 L 845.86 1041.90 L 843.04 1043.68 L 840.24 1045.45 L 837.44 1047.22 L 834.66 1048.98 L 831.89 1050.74 L 829.14 1052.49 L 826.40 1054.24 L 823.70 1056.01 L 820.99 1057.76 L 818.30 1059.49 L 815.62 1061.21 L 812.95 1062.94 L 810.27 1064.61 L 807.61 1066.31 L 804.96 1068.00 L 802.33 1069.68 L 799.71 1071.36 L 797.11 1073.06 L 794.54 1074.78 L 791.99 1076.53 L 789.49 1078.32 L 786.99 1080.10 L 784.51 1081.87 L 782.04 1083.63 L 779.57 1085.38" stroke="rgb(205,165,255)" stroke-opacity="0.717" stroke-width="1.23" />
  <path d="M 999.68 1003.10 L 1003.08 1002.49 L 1006.46 1001.91 L 1009.83 1001.29 L 1013.19 1000.68 L 1016.53 1000.05 L 1019.86 999.44 L 1023.18 998.83 L 1026.49 998.21 L 1029.78 997.60" stroke="rgb(205,165,255)" stroke-opacity="0.717" stroke-width="1.23" />
  <path d="M 992.51 905.26 L 992.73 902.09 L 992.93 898.93 L 993.13 895.78 L 993.33 892.63 L 993.45 889.52 L 993.56 886.42 L 993.71 883.33 L 993.85 880.27 L 993.99 877.21 L 994.13 874.18 L 994.27 871.16 L 994.44 868.16 L 994.61 865.19 L 994.73 862.21 L 994.89 859.23 L 995.03 856.27 L 995.18 853.33 L 995.34 850.40 L 995.49 847.49 L 995.67 844.58 L 995.88 841.69 L 996.06 838.83 L 996.29 835.97 L 996.52 833.12 L 996.69 830.29 L 996.86 827.47 L 997.04 824.66 L 997.17 821.90 L 997.30 819.16 L 997.43 816.42 L 997.56 813.70 L 997.64 810.97 L 997.79 808.25 L 997.95 805.57 L 998.09 802.87 L 998.26 800.18" stroke="rgb(205,165,255)" stroke-opacity="0.715" stroke-width="1.23" />
  <path d="M 998.04 1000.80 L 995.08 999.21 L 992.14 997.61 L 989.21 996.03 L 986.32 994.45 L 983.44 992.86 L 980.57 991.29 L 977.70 989.81 L 974.84 988.33 L 971.98 986.86 L 969.15 985.37 L 966.33 983.88 L 963.52 982.40 L 960.72 980.92 L 957.91 979.48 L 955.03 978.22 L 952.16 976.94 L 949.33 975.63 L 946.51 974.34 L 943.72 973.01 L 940.91 971.76 L 938.12 970.52 L 935.35 969.27 L 932.61 968.00 L 929.94 966.65 L 927.29 965.31 L 924.66 963.96 L 922.05 962.63 L 919.43 961.32 L 916.83 960.02 L 914.24 958.73 L 911.67 957.44 L 909.11 956.15 L 906.57 954.85 L 904.03 953.56 L 901.49 952.28 L 898.96 950.99 L 896.44 949.69 L 893.92 948.41 L 891.42 947.12 L 888.92 945.84 L 886.44 944.57 L 884.00 943.26 L 881.58 941.97 L 879.16 940.68 L 876.76 939.36 L 874.37 938.06 L 871.99 936.76 L 869.63 935.47 L 867.27 934.17 L 864.96 932.85 L 862.65 931.54 L 860.35 930.24 L 858.04 928.97 L 855.73 927.71 L 853.43 926.43 L 851.15 925.14 L 848.87 923.85 L 846.62 922.54" stroke="rgb(205,165,255)" stroke-opacity="0.714" stroke-width="1.23" />
  <path d="M 997.58 1000.31 L 994.39 1001.20 L 991.22 1002.08 L 988.06 1002.96 L 984.90 1003.78 L 981.75 1004.60 L 978.62 1005.42 L 975.49 1006.24 L 972.39 1007.06 L 969.29 1007.86 L 966.20 1008.65 L 963.12 1009.43 L 960.05 1010.20 L 956.99 1010.96 L 953.95 1011.72 L 950.91 1012.46 L 947.89 1013.20 L 944.90 1014.00" stroke="rgb(205,165,255)" stroke-opacity="0.709" stroke-width="1.21" />
  <path d="M 865.15 1033.88 L 862.33 1033.80 L 859.52 1033.70 L 856.72 1033.51 L 853.91 1033.34 L 851.12 1033.14 L 848.33 1032.94 L 845.55 1032.77 L 842.78 1032.61 L 840.03 1032.56 L 837.31 1032.49 L 834.60 1032.50 L 831.92 1032.53 L 829.25 1032.54 L 826.59 1032.53 L 823.91 1032.45 L 821.19 1032.34 L 818.48 1032.23 L 815.80 1032.12 L 813.14 1032.04 L 810.49 1031.94 L 807.84 1031.83 L 805.26 1031.76 L 802.70 1031.66 L 800.17 1031.54 L 797.67 1031.42 L 795.20 1031.31 L 792.74 1031.21 L 790.28 1031.11 L 787.84 1031.02 L 785.43 1030.85 L 783.05 1030.71 L 780.67 1030.54 L 778.27 1030.37 L 775.87 1030.22" stroke="rgb(205,165,255)" stroke-opacity="0.706" stroke-width="1.21" />
  <path d="M 844.54 1037.43 L 841.78 1039.45 L 839.03 1041.47 L 836.29 1043.48 L 833.56 1045.49 L 830.84 1047.49 L 828.14 1049.48 L 825.46 1051.47 L 822.82 1053.47 L 820.19 1055.45 L 817.53 1057.38 L 814.88 1059.31 L 812.24 1061.20 L 809.59 1063.06 L 806.95 1064.90" stroke="rgb(140,255,190)" stroke-opacity="0.742" stroke-width="1.20" />
  <path d="M 1001.66 1004.45 L 998.34 1005.11 L 995.04 1005.76 L 991.73 1006.37 L 988.44 1006.93 L 985.15 1007.46 L 981.88 1008.02 L 978.63 1008.62 L 975.40 1009.23 L 972.18 1009.83 L 968.97 1010.41 L 965.77 1011.02 L 962.59 1011.61 L 959.43 1012.26 L 956.28 1012.90 L 953.14 1013.53 L 950.03 1014.20 L 946.92 1014.81 L 943.82 1015.42 L 940.74 1016.05 L 937.67 1016.66 L 934.60 1017.27 L 931.55 1017.84 L 928.51 1018.41 L 925.48 1018.97 L 922.46 1019.52 L 919.45 1020.04 L 916.44 1020.52 L 913.46 1021.02 L 910.48 1021.52 L 907.52 1022.06 L 904.57 1022.54 L 901.63 1023.05 L 898.70 1023.56 L 895.80 1024.07 L 892.89 1024.56 L 890.01 1025.07 L 887.13 1025.54 L 884.24 1025.91 L 881.36 1026.25 L 878.50 1026.64 L 875.64 1027.03 L 872.81 1027.46 L 869.99 1027.88 L 867.18 1028.31 L 864.38 1028.78 L 861.61 1029.31 L 858.86 1029.83 L 856.12 1030.37 L 853.40 1030.91 L 850.68 1031.45 L 847.98 1032.00 L 845.29 1032.53 L 842.61 1033.05 L 839.93 1033.58 L 837.27 1034.07 L 834.61 1034.57 L 831.97 1035.05 L 829.34 1035.56 L 826.72 1036.06 L 824.10 1036.55 L 821.50 1037.07 L 818.91 1037.59 L 816.34 1038.13 L 813.77 1038.66 L 811.21 1039.17 L 808.66 1039.69 L 806.13 1040.21 L 803.60 1040.72 L 801.08 1041.23 L 798.57 1041.74 L 796.07 1042.23" stroke="rgb(140,255,190)" stroke-opacity="0.738" stroke-width="1.19" />
  <path d="M 949.08 1006.94 L 946.25 1008.47 L 943.41 1009.97 L 940.60 1011.47 L 937.79 1012.97" stroke="rgb(140,255,190)" stroke-opacity="0.735" stroke-width="1.18" />
  <path d="M 1001.54 998.78 L 999.26 999.05 L 996.98 999.36 L 994.71 999.58 L 992.45 999.79 L 990.20 1000.02 L 987.94 1000.12 L 985.69 1000.21 L 983.45 1000.39 L 981.22 1000.36 L 979.00 1000.20 L 976.78 1000.04 L 974.57 999.94 L 972.37 999.83 L 970.19 999.73 L 968.01 999.57 L 965.83 999.50 L 963.67 999.46 L 961.52 999.39 L 959.36 999.39 L 957.23 999.42 L 955.09 999.44 L 952.97 999.55 L 950.86 999.62 L 948.75 999.69 L 946.65 999.70 L 944.56 999.75 L 942.48 999.80 L 940.41 999.87 L 938.34 999.91 L 936.29 999.88 L 934.24 999.86 L 932.20 999.85 L 930.17 999.82 L 928.15 999.75 L 926.15 999.68 L 924.15 999.55 L 922.16 999.44 L 920.17 999.40 L 918.19 999.36 L 916.21 999.31 L 914.24 999.30 L 912.28 999.29 L 910.33 999.31 L 908.38 999.30 L 906.46 999.29 L 904.54 999.30 L 902.63 999.28 L 900.73 999.33 L 898.84 999.29" stroke="rgb(140,255,190)" stroke-opacity="0.550" stroke-width="1.18" />
  <path d="M 957.31 1007.17 L 954.13 1007.52 L 950.97 1007.88 L 947.85 1008.20 L 944.74 1008.56 L 941.63 1008.89 L 938.55 1009.25 L 935.49 1009.61 L 932.44 1009.97 L 929.39 1010.33 L 926.37 1010.70 L 923.35 1011.12 L 920.33 1011.55 L 917.33 1011.97 L 914.34 1012.42 L 911.38 1012.89 L 908.42 1013.29 L 905.47 1013.69 L 902.53 1014.11 L 899.63 1014.51 L 896.72 1014.94 L 893.82 1015.37 L 890.95 1015.91 L 888.08 1016.45 L 885.23 1017.07 L 882.40 1017.68 L 879.57 1018.29 L 876.77 1018.89 L 873.98 1019.49 L 871.20 1020.09 L 868.43 1020.70 L 865.68 1021.31 L 862.95 1021.92 L 860.23 1022.53 L 857.51 1023.12 L 854.80 1023.69 L 852.11 1024.27 L 849.42 1024.91 L 846.74 1025.55 L 844.06 1026.19 L 841.40 1026.87 L 838.76 1027.54 L 836.12 1028.21 L 833.50 1028.96 L 830.89 1029.76 L 828.29 1030.55 L 825.68 1031.34 L 823.10 1032.12 L 820.50 1032.88 L 817.95 1033.71 L 815.41 1034.54 L 812.87 1035.39 L 810.34 1036.22 L 807.81 1037.07 L 805.28 1037.91 L 802.77 1038.76 L 800.24 1039.60 L 797.73 1040.46 L 795.23 1041.31 L 792.75 1042.15 L 790.26 1042.95 L 787.77 1043.72 L 785.29 1044.50 L 782.82 1045.29 L 780.37 1046.12 L 777.93 1046.96 L 775.51 1047.80 L 773.10 1048.65 L 770.70 1049.53 L 768.30 1050.39 L 765.94 1051.28 L 763.57 1052.16" stroke="rgb(140,255,190)" stroke-opacity="0.734" stroke-width="1.18" />
  <path d="M 826.33 973.03 L 823.00 972.91 L 819.67 972.78 L 816.37 972.64 L 813.07 972.46 L 809.78 972.33 L 806.50 972.26 L 803.24 972.21 L 800.00 972.17 L 796.77 972.15 L 793.55 972.08 L 790.34 972.03 L 787.16 972.01 L 783.98 971.98 L 780.84 971.97 L 777.71 971.99 L 774.57 971.98 L 771.47 971.99" stroke="rgb(140,255,190)" stroke-opacity="0.733" stroke-width="1.18" />
  <path d="M 995.63 1007.08 L 994.71 1005.28 L 993.70 1003.49 L 992.70 1001.72 L 991.74 1000.01 L 990.80 998.32 L 989.86 996.62 L 988.90 994.92 L 987.98 993.25 L 987.08 991.64 L 986.14 989.99 L 985.25 988.35 L 984.34 986.71 L 983.47 985.10 L 982.59 983.49 L 981.71 981.89 L 980.88 980.26 L 980.08 978.66 L 979.35 977.09 L 978.61 975.59 L 977.85 974.11 L 977.14 972.66 L 976.44 971.21 L 975.74 969.81 L 975.12 968.33 L 974.53 966.86 L 973.92 965.37" stroke="rgb(205,165,255)" stroke-opacity="0.694" stroke-width="1.17" />
  <path d="M 842.66 1050.77 L 841.11 1052.28 L 839.58 1053.88 L 837.99 1055.41 L 836.44 1056.98 L 834.95 1058.59 L 833.41 1060.13 L 831.96 1061.75 L 830.45 1063.30 L 829.10 1064.98 L 827.62 1066.51 L 826.10 1068.00 L 824.58 1069.46 L 823.20 1071.06 L 821.97 1072.67 L 820.72 1074.21 L 819.58 1075.82 L 818.43 1077.47 L 817.26 1079.15 L 816.08 1080.82 L 814.93 1082.45 L 813.77 1083.96 L 812.58 1085.49 L 811.40 1087.01" stroke="rgb(140,255,190)" stroke-opacity="0.548" stroke-width="1.17" />
  <path d="M 988.55 920.85 L 989.42 919.29 L 990.47 917.71 L 991.51 916.10 L 992.41 914.50 L 993.32 912.89 L 994.27 911.33 L 995.20 909.82 L 996.15 908.30 L 997.15 906.82 L 998.11 905.33 L 999.13 903.88 L 1000.17 902.49 L 1001.31 901.10 L 1002.41 899.69 L 1003.58 898.32 L 1004.80 896.94 L 1006.16 895.55 L 1007.53 894.17 L 1008.84 892.76 L 1010.23 891.44 L 1011.58 890.06 L 1012.91 888.75 L 1014.23 887.44 L 1015.54 886.24 L 1016.86 885.08 L 1018.20 883.94 L 1019.54 882.90 L 1020.96 881.88 L 1022.45 880.87 L 1023.95 879.87 L 1025.38 878.99 L 1026.79 878.19 L 1028.19 877.42 L 1029.59 876.63 L 1031.00 875.76 L 1032.61 874.90 L 1034.22 874.07 L 1035.87 873.19 L 1037.53 872.31 L 1039.21 871.45 L 1040.94 870.66 L 1042.68 869.90 L 1044.40 869.20 L 1046.16 868.53 L 1047.88 867.85 L 1049.57 867.32 L 1051.30 866.84 L 1053.02 866.24 L 1054.79 865.68 L 1056.59 865.08 L 1058.39 864.46 L 1060.13 863.90 L 1061.85 863.34 L 1063.57 862.82 L 1065.28 862.29 L 1067.02 861.77 L 1068.76 861.25 L 1070.49 860.75 L 1072.17 860.31 L 1073.88 859.86 L 1075.56 859.41 L 1077.21 858.97 L 1078.83 858.45" stroke="rgb(205,165,255)" stroke-opacity="0.486" stroke-width="1.17" />
  <path d="M 977.78 975.90 L 978.29 973.81 L 978.77 971.69 L 979.17 969.59 L 979.55 967.52 L 979.90 965.49 L 980.28 963.46 L 980.56 961.39 L 980.85 959.29 L 981.13 957.16 L 981.59 955.06 L 982.07 952.96 L 982.52 950.85 L 982.96 948.74 L 983.39 946.61 L 983.79 944.47 L 984.23 942.40 L 984.61 940.37 L 985.01 938.33 L 985.43 936.32 L 985.85 934.31 L 986.28 932.32 L 986.69 930.33 L 987.04 928.37 L 987.37 926.48 L 987.75 924.61 L 988.15 922.72 L 988.55 920.85 L 988.98 919.04 L 989.41 917.23 L 989.83 915.45 L 990.23 913.67 L 990.64 911.93 L 991.14 910.22 L 991.57 908.55 L 992.06 906.87 L 992.51 905.26 L 993.00 903.66 L 993.48 902.07 L 993.92 900.51 L 994.22 898.85 L 994.60 897.18 L 995.00 895.52 L 995.41 893.87 L 995.82 892.28 L 996.23 890.70 L 996.60 889.11 L 996.97 887.56 L 997.32 886.01 L 997.68 884.48 L 998.04 882.95 L 998.44 881.48 L 998.86 879.97 L 999.28 878.47 L 999.66 876.98 L 1000.03 875.45 L 1000.40 873.98 L 1000.84 872.49 L 1001.28 871.01 L 1001.64 869.50 L 1001.95 868.03 L 1002.24 866.56 L 1002.54 865.15" stroke="rgb(205,165,255)" stroke-opacity="0.484" stroke-width="1.16" />
  <path d="M 998.02 1002.21 L 994.84 1002.88 L 991.67 1003.55 L 988.51 1004.22 L 985.37 1004.91 L 982.24 1005.59 L 979.12 1006.27 L 976.02 1006.95 L 972.93 1007.61 L 969.84 1008.23 L 966.76 1008.84 L 963.69 1009.42 L 960.63 1010.01 L 957.58 1010.55 L 954.53 1011.07 L 951.51 1011.65 L 948.50 1012.21 L 945.49 1012.76 L 942.52 1013.38 L 939.55 1013.97 L 936.59 1014.56 L 933.65 1015.15 L 930.71 1015.74 L 927.79 1016.31 L 924.88 1016.88 L 921.97 1017.41 L 919.08 1017.96 L 916.20 1018.50 L 913.32 1019.03 L 910.44 1019.43 L 907.57 1019.82 L 904.71 1020.21 L 901.87 1020.65 L 899.05 1021.12 L 896.24 1021.60 L 893.45 1022.12 L 890.67 1022.65 L 887.90 1023.17 L 885.15 1023.70 L 882.41 1024.24 L 879.67 1024.76 L 876.95 1025.29 L 874.25 1025.87 L 871.58 1026.51 L 868.92 1027.17 L 866.26 1027.77 L 863.60 1028.34 L 860.94 1028.84 L 858.30 1029.37 L 855.68 1029.93 L 853.08 1030.54 L 850.49 1031.17" stroke="rgb(140,255,190)" stroke-opacity="0.727" stroke-width="1.16" />
  <path d="M 946.31 1032.82 L 943.95 1033.86 L 941.60 1034.93 L 939.25 1035.96 L 936.89 1036.99 L 934.56 1038.00 L 932.21 1039.03 L 929.92 1040.09 L 927.54 1041.16 L 925.15 1042.15 L 922.74 1043.07 L 920.34 1043.98 L 917.93 1044.88 L 915.50 1045.78 L 913.05 1046.61 L 910.66 1047.37 L 908.26 1048.21 L 905.88 1049.12 L 903.48 1049.90 L 901.12 1050.83 L 898.77 1051.76 L 896.43 1052.71 L 894.11 1053.65 L 891.81 1054.59 L 889.52 1055.59 L 887.24 1056.45 L 885.08 1057.38 L 882.91 1058.37 L 880.75 1059.35 L 878.56 1060.22 L 876.29 1060.92 L 874.04 1061.64 L 871.80 1062.30 L 869.52 1062.88 L 867.24 1063.41 L 864.99 1063.91 L 862.75 1064.42 L 860.48 1064.88 L 858.19 1065.29 L 855.95 1065.74 L 853.72 1066.19 L 851.52 1066.61 L 849.35 1067.04 L 847.20 1067.53 L 845.07 1067.99 L 842.96 1068.54 L 840.87 1069.00 L 838.79 1069.43 L 836.68 1069.85 L 834.54 1070.22 L 832.37 1070.56 L 830.22 1070.83 L 828.10 1071.19 L 825.99 1071.56 L 823.89 1071.92" stroke="rgb(205,165,255)" stroke-opacity="0.483" stroke-width="1.16" />
  <path d="M 996.93 998.51 L 993.72 999.12 L 990.53 999.72 L 987.36 1000.35 L 984.19 1000.94 L 981.03 1001.52 L 977.89 1002.08 L 974.76 1002.64 L 971.64 1003.17 L 968.53 1003.62 L 965.43 1004.08 L 962.33 1004.50 L 959.24 1004.91 L 956.17 1005.28 L 953.09 1005.60 L 950.03 1005.93 L 946.98 1006.26 L 943.95 1006.59 L 940.92 1006.93 L 937.91 1007.24 L 934.91 1007.54 L 931.92 1007.83 L 928.94 1008.12 L 925.97 1008.42 L 923.01 1008.74 L 920.07 1009.09 L 917.14 1009.49 L 914.23 1009.89 L 911.33 1010.30 L 908.44 1010.71 L 905.57 1011.14 L 902.70 1011.55 L 899.85 1011.96 L 897.01 1012.37 L 894.18 1012.79 L 891.36 1013.25 L 888.56 1013.70 L 885.77 1014.13 L 882.98 1014.53 L 880.21 1014.94 L 877.44 1015.22 L 874.68 1015.56 L 871.94 1015.93 L 869.20 1016.30 L 866.50 1016.78 L 863.80 1017.27 L 861.12 1017.75 L 858.45 1018.26 L 855.80 1018.76 L 853.15 1019.27 L 850.51 1019.77 L 847.89 1020.28 L 845.28 1020.79 L 842.68 1021.30 L 840.09 1021.80 L 837.52 1022.34 L 834.96 1022.89 L 832.40 1023.44 L 829.86 1023.98 L 827.33 1024.48 L 824.80 1024.98 L 822.28 1025.47 L 819.76 1025.91 L 817.25 1026.33 L 814.74 1026.73 L 812.25 1027.15 L 809.77 1027.57 L 807.30 1027.99 L 804.84 1028.41 L 802.38 1028.79 L 799.94 1029.18 L 797.50 1029.60 L 795.09 1030.03 L 792.69 1030.50 L 790.30 1030.99 L 787.93 1031.51 L 785.56 1032.00 L 783.20 1032.47 L 780.85 1032.97" stroke="rgb(140,255,190)" stroke-opacity="0.723" stroke-width="1.15" />
  <path d="M 803.05 1017.34 L 799.99 1016.60 L 796.91 1015.95 L 793.83 1015.38 L 790.78 1014.76 L 787.74 1014.17 L 784.73 1013.52 L 781.72 1012.90 L 778.72 1012.30 L 775.73 1011.65 L 772.75 1011.02 L 769.78 1010.41 L 766.82 1009.82 L 763.89 1009.16 L 760.96 1008.54 L 758.04 1007.88 L 755.14 1007.19 L 752.27 1006.48 L 749.39 1005.78 L 746.54 1005.07 L 743.71 1004.30 L 740.88 1003.56 L 738.03 1002.94 L 735.20 1002.32 L 732.39 1001.67 L 729.59 1001.03" stroke="rgb(140,255,190)" stroke-opacity="0.722" stroke-width="1.15" />
  <path d="M 973.29 1010.39 L 971.59 1011.71 L 969.92 1013.04 L 968.27 1014.38 L 966.69 1015.71 L 965.11 1017.04 L 963.56 1018.32 L 961.96 1019.64 L 960.38 1020.95 L 958.79 1022.26 L 957.22 1023.56 L 955.66 1024.81 L 954.11 1026.14 L 952.55 1027.47 L 950.98 1028.80 L 949.41 1030.11 L 947.85 1031.47 L 946.31 1032.82 L 944.79 1034.14 L 943.26 1035.55 L 941.76 1036.93 L 940.28 1038.31 L 938.81 1039.67 L 937.38 1041.10 L 935.92 1042.48 L 934.40 1043.76 L 932.98 1045.15 L 931.53 1046.52" stroke="rgb(205,165,255)" stroke-opacity="0.480" stroke-width="1.15" />
  <path d="M 999.76 1001.86 L 997.35 1002.15 L 994.95 1002.45 L 992.56 1002.74 L 990.18 1003.02 L 987.81 1003.29 L 985.44 1003.44 L 983.07 1003.46 L 980.71 1003.49 L 978.36 1003.53 L 976.01 1003.56 L 973.68 1003.57 L 971.37 1003.57 L 969.06 1003.56 L 966.76 1003.59 L 964.47 1003.62 L 962.18 1003.61 L 959.91 1003.60 L 957.65 1003.59 L 955.40 1003.58 L 953.17 1003.57 L 950.94 1003.59 L 948.72 1003.56 L 946.51 1003.53 L 944.31 1003.56 L 942.12 1003.57 L 939.94 1003.62 L 937.76 1003.68 L 935.59 1003.76 L 933.42 1003.76 L 931.26 1003.76 L 929.12 1003.77 L 926.97 1003.75 L 924.84 1003.74 L 922.71 1003.73 L 920.60 1003.61 L 918.49 1003.47 L 916.40 1003.36 L 914.31 1003.24 L 912.23 1003.09 L 910.16 1002.89 L 908.10 1002.75 L 906.04 1002.66 L 903.99 1002.57 L 901.95 1002.49 L 899.92 1002.36" stroke="rgb(140,255,190)" stroke-opacity="0.541" stroke-width="1.15" />
  <path d="M 1002.22 1002.11 L 999.87 1002.76 L 997.52 1003.38 L 995.19 1004.00 L 992.86 1004.62 L 990.55 1005.24 L 988.24 1005.84 L 985.94 1006.50 L 983.66 1007.15 L 981.39 1007.85 L 979.14 1008.57 L 976.86 1009.16 L 974.57 1009.67 L 972.27 1010.05 L 969.97 1010.38 L 967.68 1010.68 L 965.39 1010.97 L 963.11 1011.27 L 960.83 1011.51 L 958.56 1011.74 L 956.30 1011.99 L 954.05 1012.12 L 951.80 1012.25 L 949.56 1012.39 L 947.32 1012.52 L 945.11 1012.71 L 942.91 1012.83 L 940.71 1012.88 L 938.53 1013.01 L 936.34 1013.14 L 934.17 1013.26 L 932.01 1013.45 L 929.87 1013.67 L 927.72 1013.86 L 925.59 1014.06 L 923.47 1014.32 L 921.37 1014.61 L 919.27 1014.77 L 917.17 1014.97 L 915.09 1015.14 L 913.03 1015.33 L 910.98 1015.50 L 908.94 1015.69 L 906.91 1015.91" stroke="rgb(140,255,190)" stroke-opacity="0.540" stroke-width="1.14" />
  <path d="M 996.64 998.84 L 993.60 999.60 L 990.57 1000.34 L 987.54 1001.07 L 984.53 1001.80 L 981.54 1002.52 L 978.55 1003.25 L 975.58 1003.97 L 972.62 1004.70 L 969.67 1005.44 L 966.74 1006.19 L 963.83 1006.96 L 960.93 1007.72 L 958.04 1008.47 L 955.14 1009.16 L 952.26 1009.84 L 949.38 1010.50 L 946.52 1011.17 L 943.67 1011.85 L 940.83 1012.47 L 937.99 1013.11 L 935.17 1013.75 L 932.36 1014.39 L 929.55 1014.98 L 926.75 1015.54 L 923.97 1016.08 L 921.19 1016.62 L 918.43 1017.17 L 915.68 1017.75 L 912.95 1018.39 L 910.24 1019.02 L 907.53 1019.64 L 904.82 1020.23 L 902.14 1020.85 L 899.46 1021.47 L 896.80 1022.09 L 894.14 1022.67 L 891.49 1023.27 L 888.86 1023.87 L 886.24 1024.48 L 883.62 1025.06 L 881.01 1025.62 L 878.40 1026.13 L 875.82 1026.69 L 873.26 1027.32 L 870.70 1027.91 L 868.15 1028.50 L 865.62 1029.10 L 863.12 1029.79 L 860.63 1030.46 L 858.17 1031.21 L 855.72 1031.97 L 853.27 1032.71 L 850.84 1033.44 L 848.41 1034.17 L 846.01 1034.92 L 843.61 1035.69 L 841.24 1036.46" stroke="rgb(140,255,190)" stroke-opacity="0.719" stroke-width="1.14" />
  <path d="M 877.68 1016.88 L 874.72 1018.12 L 871.77 1019.34 L 868.84 1020.59 L 865.90 1021.78 L 862.97 1022.95" stroke="rgb(140,255,190)" stroke-opacity="0.718" stroke-width="1.14" />
  <path d="M 1000.40 1001.21 L 998.05 1001.89 L 995.73 1002.64 L 993.44 1003.32 L 991.18 1003.95 L 988.92 1004.61 L 986.68 1005.27 L 984.45 1006.03 L 982.22 1006.78 L 979.97 1007.61 L 977.73 1008.44 L 975.49 1009.41 L 973.29 1010.39 L 971.10 1011.43 L 968.89 1012.43 L 966.72 1013.43 L 964.58 1014.46 L 962.45 1015.50 L 960.32 1016.55 L 958.23 1017.61 L 956.11 1018.65 L 953.97 1019.70 L 951.83 1020.69 L 949.69 1021.67 L 947.56 1022.59 L 945.42 1023.56 L 943.32 1024.54" stroke="rgb(205,165,255)" stroke-opacity="0.477" stroke-width="1.14" />
  <path d="M 888.43 1028.50 L 885.48 1028.12 L 882.54 1027.76 L 879.61 1027.37 L 876.69 1026.97 L 873.76 1026.62 L 870.86 1026.17 L 867.99 1025.57 L 865.11 1024.98 L 862.28 1024.31 L 859.44 1023.67 L 856.62 1023.10 L 853.80 1022.53 L 851.00 1021.96 L 848.21 1021.42 L 845.42 1020.83 L 842.63 1020.27 L 839.86 1019.70 L 837.10 1019.13 L 834.34 1018.62 L 831.59 1018.15 L 828.86 1017.73 L 826.13 1017.34 L 823.45 1016.84 L 820.76 1016.36 L 818.10 1015.82 L 815.45 1015.28 L 812.83 1014.68 L 810.22 1014.06 L 807.61 1013.52 L 805.01 1012.98 L 802.39 1012.50 L 799.78 1012.04 L 797.19 1011.58 L 794.61 1011.07 L 792.06 1010.52 L 789.52 1009.98 L 787.04 1009.36 L 784.58 1008.75 L 782.14 1008.22 L 779.74 1007.63 L 777.34 1006.97 L 774.95 1006.34 L 772.56 1005.71 L 770.16 1005.13 L 767.75 1004.58 L 765.34 1004.09 L 762.97 1003.58 L 760.62 1003.01 L 758.29 1002.39 L 755.98 1001.78 L 753.72 1001.14 L 751.49 1000.46 L 749.28 999.75 L 747.07 999.06 L 744.85 998.43 L 742.68 997.75 L 740.49 997.12 L 738.31 996.49 L 736.11 995.92 L 733.91 995.35" stroke="rgb(140,255,190)" stroke-opacity="0.538" stroke-width="1.14" />
  <path d="M 1002.43 1000.85 L 999.34 1001.39 L 996.27 1001.92 L 993.21 1002.46" stroke="rgb(140,255,190)" stroke-opacity="0.718" stroke-width="1.14" />
  <path d="M 996.72 999.16 L 993.66 999.69 L 990.61 1000.25 L 987.57 1000.77 L 984.55 1001.30 L 981.54 1001.84 L 978.54 1002.37 L 975.54 1002.82 L 972.55 1003.31 L 969.58 1003.80 L 966.62 1004.28 L 963.67 1004.71 L 960.72 1005.11 L 957.79 1005.55 L 954.87 1005.98 L 951.97 1006.46 L 949.08 1006.94 L 946.21 1007.43 L 943.34 1007.92 L 940.49 1008.40 L 937.65 1008.88 L 934.82 1009.34 L 931.99 1009.78 L 929.18 1010.20 L 926.37 1010.62 L 923.58 1011.01 L 920.80 1011.41 L 918.02 1011.79 L 915.26 1012.18 L 912.50 1012.56 L 909.76 1012.93 L 907.02 1013.27 L 904.30 1013.61 L 901.59 1013.93 L 898.88 1014.26 L 896.19 1014.58 L 893.51 1014.89 L 890.85 1015.25 L 888.19 1015.54 L 885.54 1015.85 L 882.91 1016.17 L 880.29 1016.53 L 877.68 1016.88 L 875.08 1017.26 L 872.51 1017.68 L 869.93 1018.02 L 867.36 1018.34 L 864.79 1018.58 L 862.23 1018.81 L 859.68 1019.03 L 857.13 1019.21 L 854.59 1019.39 L 852.06 1019.56 L 849.54 1019.70 L 847.03 1019.84 L 844.53 1019.97 L 842.04 1020.14 L 839.56 1020.32 L 837.10 1020.52 L 834.64 1020.70 L 832.19 1020.88 L 829.75 1021.05 L 827.33 1021.26 L 824.91 1021.50 L 822.51 1021.70 L 820.11 1021.92 L 817.73 1022.21 L 815.36 1022.49 L 813.02 1022.86 L 810.68 1023.22 L 808.35 1023.57 L 806.02 1023.91 L 803.71 1024.24 L 801.40 1024.59 L 799.11 1024.90 L 796.82 1025.22 L 794.54 1025.54 L 792.27 1025.87 L 790.01 1026.20 L 787.76 1026.54 L 785.51 1026.77 L 783.28 1027.02 L 781.04 1027.24 L 778.82 1027.52 L 776.61 1027.79 L 774.40 1028.07 L 772.21 1028.36 L 770.03 1028.67" stroke="rgb(140,255,190)" stroke-opacity="0.717" stroke-width="1.14" />
  <path d="M 942.48 999.80 L 939.64 1001.06 L 936.79 1002.25 L 933.94 1003.45 L 931.12 1004.62 L 928.28 1005.76 L 925.48 1006.93 L 922.68 1008.07 L 919.88 1009.21 L 917.12 1010.41 L 914.37 1011.64 L 911.65 1012.87 L 908.98 1014.18 L 906.33 1015.49 L 903.69 1016.80 L 901.10 1018.14 L 898.52 1019.48 L 895.98 1020.87 L 893.43 1022.27 L 890.91 1023.67 L 888.39 1025.09 L 885.90 1026.51 L 883.44 1027.95 L 880.99 1029.39 L 878.55 1030.82 L 876.13 1032.25 L 873.73 1033.71 L 871.32 1035.15 L 868.91 1036.60 L 866.52 1038.05 L 864.11 1039.46 L 861.70 1040.83 L 859.32 1042.21 L 856.96 1043.58 L 854.61 1044.94 L 852.26 1046.28 L 849.92 1047.62 L 847.59 1048.96 L 845.26 1050.27 L 842.94 1051.57 L 840.63 1052.84 L 838.33 1054.11 L 836.04 1055.37 L 833.75 1056.56 L 831.45 1057.75" stroke="rgb(140,255,190)" stroke-opacity="0.716" stroke-width="1.13" />
  <path d="M 997.35 998.89 L 994.19 999.54 L 991.05 1000.17 L 987.91 1000.79 L 984.79 1001.43 L 981.69 1002.05 L 978.59 1002.67 L 975.51 1003.28 L 972.44 1003.91 L 969.40 1004.61 L 966.36 1005.29 L 963.34 1005.93 L 960.32 1006.56 L 957.31 1007.17 L 954.31 1007.78 L 951.33 1008.39 L 948.36 1008.99 L 945.41 1009.66 L 942.48 1010.34 L 939.55 1010.99 L 936.66 1011.71 L 933.76 1012.36 L 930.87 1012.99 L 927.99 1013.63 L 925.12 1014.25 L 922.26 1014.86 L 919.41 1015.45 L 916.57 1016.01 L 913.74 1016.57 L 910.92 1017.10 L 908.12 1017.64 L 905.32 1018.20 L 902.54 1018.78 L 899.78 1019.35 L 897.02 1019.94 L 894.28 1020.53 L 891.55 1021.10 L 888.81 1021.63 L 886.09 1022.14 L 883.38 1022.65 L 880.68 1023.15 L 877.99 1023.65 L 875.31 1024.14 L 872.64 1024.63 L 869.97 1025.09 L 867.32 1025.51 L 864.67 1025.98 L 862.04 1026.43 L 859.41 1026.88 L 856.79 1027.31" stroke="rgb(140,255,190)" stroke-opacity="0.716" stroke-width="1.13" />
  <path d="M 1002.26 1000.11 L 999.96 1000.75 L 997.64 1001.29 L 995.34 1001.83 L 993.06 1002.41 L 990.79 1002.95 L 988.57 1003.65 L 986.35 1004.31 L 984.14 1004.97 L 981.94 1005.69 L 979.76 1006.41 L 977.60 1007.16 L 975.44 1007.89 L 973.29 1008.68 L 971.16 1009.42 L 969.03 1010.12 L 966.89 1010.79 L 964.76 1011.50 L 962.63 1012.21 L 960.50 1012.88 L 958.38 1013.56 L 956.25 1014.13 L 954.13 1014.67 L 952.01 1015.19 L 949.91 1015.64 L 947.82 1016.17 L 945.73 1016.63 L 943.65 1017.07 L 941.58 1017.52 L 939.50 1017.95 L 937.42 1018.32 L 935.35 1018.73 L 933.30 1019.06 L 931.27 1019.37 L 929.25 1019.66 L 927.23 1019.94 L 925.24 1020.30 L 923.27 1020.71" stroke="rgb(140,255,190)" stroke-opacity="0.537" stroke-width="1.13" />
  <path d="M 1001.04 999.21 L 998.03 1000.25 L 995.01 1001.23 L 992.00 1002.19 L 988.99 1003.12 L 986.02 1004.11 L 983.07 1005.14 L 980.13 1006.18 L 977.22 1007.25 L 974.30 1008.24 L 971.37 1009.24 L 968.45 1010.19 L 965.53 1011.10 L 962.62 1012.00 L 959.69 1012.82 L 956.76 1013.60 L 953.83 1014.34 L 950.92 1015.09 L 948.02 1015.84 L 945.14 1016.59 L 942.26 1017.34 L 939.40 1018.10 L 936.55 1018.85 L 933.71 1019.58 L 930.88 1020.32 L 928.06 1021.06 L 925.26 1021.81 L 922.46 1022.54 L 919.68 1023.27 L 916.91 1024.03 L 914.15 1024.77 L 911.40 1025.50 L 908.66 1026.23 L 905.95 1026.99 L 903.24 1027.73 L 900.54 1028.45 L 897.85 1029.19 L 895.17 1029.93 L 892.52 1030.68 L 889.87 1031.42 L 887.23 1032.16 L 884.61 1032.90 L 882.00 1033.66 L 879.41 1034.42 L 876.82 1035.17 L 874.22 1035.86 L 871.63 1036.51 L 869.06 1037.16" stroke="rgb(140,255,190)" stroke-opacity="0.715" stroke-width="1.13" />
  <path d="M 921.97 1017.41 L 918.94 1017.43 L 915.92 1017.44 L 912.91 1017.43 L 909.91 1017.42 L 906.94 1017.52 L 903.97 1017.58 L 901.02 1017.63 L 898.07 1017.70 L 895.13 1017.71 L 892.21 1017.75 L 889.30 1017.77 L 886.41 1017.71 L 883.55 1017.68 L 880.70 1017.66 L 877.85 1017.63 L 875.03 1017.63 L 872.22 1017.64 L 869.42 1017.64 L 866.64 1017.64 L 863.88 1017.64 L 861.12 1017.67 L 858.37 1017.70 L 855.61 1017.69 L 852.87 1017.69 L 850.13 1017.69 L 847.43 1017.71 L 844.72 1017.84 L 842.02 1018.00 L 839.32 1018.11 L 836.65 1018.09 L 833.99 1018.03 L 831.34 1017.93 L 828.71 1017.83 L 826.09 1017.76 L 823.50 1017.68 L 820.92 1017.61 L 818.36 1017.58 L 815.80 1017.50 L 813.23 1017.49 L 810.67 1017.41 L 808.12 1017.39 L 805.58 1017.37 L 803.05 1017.34 L 800.54 1017.31 L 798.04 1017.31 L 795.56 1017.34 L 793.09 1017.38 L 790.63 1017.44 L 788.19 1017.63 L 785.78 1017.85 L 783.38 1018.09 L 780.98 1018.30 L 778.59 1018.47 L 776.21 1018.76 L 773.83 1019.05 L 771.48 1019.42 L 769.13 1019.79" stroke="rgb(140,255,190)" stroke-opacity="0.536" stroke-width="1.13" />
  <path d="M 827.33 1024.48 L 824.83 1025.94 L 822.38 1027.37 L 819.92 1028.80 L 817.46 1030.23 L 815.02 1031.66 L 812.58 1033.06 L 810.18 1034.44 L 807.82 1035.80 L 805.48 1037.16 L 803.15 1038.50 L 800.77 1039.79 L 798.37 1040.97 L 796.00 1042.12 L 793.64 1043.20 L 791.25 1044.25 L 788.87 1045.27 L 786.52 1046.25 L 784.15 1047.18 L 781.75 1048.06 L 779.37 1048.94 L 776.99 1049.82 L 774.64 1050.71 L 772.29 1051.56 L 769.90 1052.38 L 767.53 1053.19 L 765.21 1054.06 L 762.88 1054.98 L 760.55 1055.89 L 758.24 1056.78 L 755.91 1057.62 L 753.59 1058.44 L 751.27 1059.27 L 748.93 1060.05 L 746.55 1060.77 L 744.20 1061.49 L 741.89 1062.25 L 739.58 1063.01 L 737.25 1063.74 L 734.95 1064.51 L 732.66 1065.29 L 730.43 1066.10 L 728.20 1066.89 L 725.97 1067.69" stroke="rgb(140,255,190)" stroke-opacity="0.714" stroke-width="1.13" />
  <path d="M 1000.60 999.22 L 997.78 999.99 L 994.98 1000.79 L 992.20 1001.59 L 989.45 1002.47 L 986.73 1003.43 L 984.04 1004.41 L 981.34 1005.32 L 978.65 1006.24 L 975.98 1007.17 L 973.32 1008.12 L 970.68 1009.06 L 968.05 1010.02 L 965.45 1011.01 L 962.85 1011.98 L 960.28 1012.97 L 957.72 1013.98 L 955.19 1015.01 L 952.68 1016.05 L 950.15 1017.02 L 947.62 1017.97 L 945.08 1018.88 L 942.55 1019.79 L 940.03 1020.71 L 937.55 1021.68 L 935.10 1022.71 L 932.68 1023.76 L 930.26 1024.79 L 927.85 1025.82 L 925.46 1026.87 L 923.10 1027.97 L 920.76 1029.08 L 918.46 1030.24 L 916.15 1031.37 L 913.87 1032.55 L 911.61 1033.72 L 909.37 1034.94 L 907.13 1036.12 L 904.90 1037.30 L 902.67 1038.45 L 900.43 1039.56 L 898.20 1040.67 L 895.98 1041.78 L 893.77 1042.89 L 891.59 1044.02 L 889.41 1045.14 L 887.21 1046.21 L 885.01 1047.24 L 882.82 1048.28 L 880.63 1049.28 L 878.44 1050.28 L 876.24 1051.22 L 874.04 1052.15 L 871.87 1053.11 L 869.73 1054.11 L 867.59 1055.12 L 865.48 1056.13 L 863.38 1057.14 L 861.26 1058.10 L 859.14 1059.04 L 857.05 1060.02 L 854.98 1061.01 L 852.93 1062.03 L 850.89 1063.04 L 848.85 1064.04 L 846.84 1065.07 L 844.84 1066.10 L 842.85 1067.12 L 840.85 1068.12 L 838.86 1069.11 L 836.90 1070.12 L 834.96 1071.16 L 833.05 1072.25 L 831.18 1073.36 L 829.29 1074.45" stroke="rgb(140,255,190)" stroke-opacity="0.532" stroke-width="1.12" />
  <path d="M 996.66 998.20 L 993.71 998.91 L 990.77 999.60 L 987.85 1000.39 L 984.94 1001.19 L 982.05 1001.98 L 979.17 1002.79 L 976.29 1003.53 L 973.42 1004.28 L 970.56 1005.03 L 967.72 1005.79 L 964.88 1006.53 L 962.07 1007.30 L 959.25 1008.03 L 956.45 1008.81 L 953.64 1009.47 L 950.83 1010.10 L 948.03 1010.72 L 945.23 1011.31 L 942.44 1011.90 L 939.67 1012.51 L 936.93 1013.17 L 934.20 1013.82 L 931.50 1014.54 L 928.81 1015.30 L 926.15 1016.11 L 923.50 1016.92 L 920.86 1017.72 L 918.24 1018.54 L 915.59 1019.27 L 912.98 1020.07 L 910.39 1020.90 L 907.82 1021.76 L 905.25 1022.58 L 902.69 1023.45 L 900.15 1024.31 L 897.62 1025.18 L 895.11 1026.06 L 892.60 1026.94 L 890.11 1027.82" stroke="rgb(140,255,190)" stroke-opacity="0.532" stroke-width="1.12" />
  <path d="M 998.03 1001.19 L 996.85 999.23 L 995.69 997.27 L 994.46 995.35 L 993.22 993.51 L 991.96 991.73 L 990.58 990.04 L 989.20 988.37 L 987.80 986.74 L 986.40 985.06 L 984.93 983.53 L 983.47 982.03 L 982.04 980.51 L 980.62 978.99 L 979.20 977.44 L 977.78 975.90 L 976.35 974.32 L 974.90 972.76 L 973.44 971.22 L 972.00 969.64 L 970.58 968.07 L 969.16 966.49 L 967.76 964.90 L 966.40 963.30 L 965.04 961.68 L 963.70 960.05 L 962.33 958.44 L 960.93 956.87 L 959.55 955.32 L 958.17 953.81 L 956.79 952.32 L 955.40 950.84 L 953.96 949.35 L 952.49 947.91 L 951.06 946.42 L 949.61 944.98 L 948.17 943.54 L 946.68 942.10 L 945.25 940.64 L 943.95 939.15 L 942.65 937.69 L 941.39 936.22 L 940.14 934.80 L 938.91 933.39 L 937.67 931.98 L 936.43 930.56 L 935.18 929.15 L 933.88 927.75 L 932.65 926.32 L 931.46 924.87 L 930.27 923.42 L 929.12 921.94 L 927.97 920.46 L 926.91 918.95 L 925.85 917.46 L 924.77 915.97 L 923.72 914.46" stroke="rgb(205,165,255)" stroke-opacity="0.471" stroke-width="1.12" />
  <path d="M 950.98 1028.80 L 950.62 1029.94 L 950.41 1031.00 L 950.23 1031.99 L 950.10 1032.91 L 949.98 1033.81 L 949.87 1034.77 L 949.67 1035.73 L 949.34 1036.70 L 949.10 1037.61 L 948.87 1038.52 L 948.63 1039.45" stroke="rgb(205,165,255)" stroke-opacity="0.470" stroke-width="1.11" />
  <path d="M 862.18 983.89 L 859.36 983.90 L 856.56 983.95 L 853.76 983.82 L 850.94 983.74 L 848.13 983.66 L 845.34 983.59 L 842.56 983.53 L 839.78 983.44 L 837.05 983.22" stroke="rgb(140,255,190)" stroke-opacity="0.530" stroke-width="1.11" />
  <path d="M 998.57 1001.23 L 995.81 1001.85 L 993.05 1002.44 L 990.31 1003.05 L 987.61 1003.72 L 984.92 1004.42 L 982.25 1005.12 L 979.58 1005.80 L 976.92 1006.45 L 974.27 1007.08 L 971.63 1007.68 L 968.99 1008.27 L 966.37 1008.84 L 963.76 1009.39 L 961.16 1009.92 L 958.56 1010.43 L 955.97 1010.94 L 953.39 1011.48 L 950.82 1012.10 L 948.29 1012.78 L 945.77 1013.46 L 943.25 1014.12 L 940.74 1014.77 L 938.25 1015.45 L 935.76 1016.09 L 933.28 1016.73 L 930.81 1017.39 L 928.35 1018.06 L 925.92 1018.74 L 923.49 1019.35 L 921.07 1019.92 L 918.68 1020.54 L 916.29 1021.12 L 913.93 1021.75 L 911.57 1022.36 L 909.20 1022.92 L 906.83 1023.47 L 904.46 1024.02 L 902.14 1024.62 L 899.81 1025.21 L 897.52 1025.82 L 895.22 1026.42 L 892.94 1027.08 L 890.68 1027.78 L 888.43 1028.50 L 886.22 1029.31 L 884.00 1030.06 L 881.81 1030.81 L 879.62 1031.55 L 877.39 1032.21 L 875.17 1032.84 L 872.96 1033.42 L 870.74 1033.89 L 868.53 1034.32 L 866.32 1034.77 L 864.12 1035.11 L 861.92 1035.44 L 859.72 1035.76 L 857.53 1036.02 L 855.34 1036.31 L 853.16 1036.53 L 850.99 1036.74 L 848.83 1036.98 L 846.68 1037.21 L 844.54 1037.43 L 842.41 1037.65 L 840.29 1037.88 L 838.19 1038.09 L 836.08 1038.33 L 833.98 1038.61 L 831.89 1038.88 L 829.80 1039.18 L 827.72 1039.49" stroke="rgb(140,255,190)" stroke-opacity="0.530" stroke-width="1.11" />
  <path d="M 938.34 999.91 L 935.71 1000.73 L 933.08 1001.48 L 930.52 1002.26 L 927.95 1003.03" stroke="rgb(140,255,190)" stroke-opacity="0.529" stroke-width="1.11" />
  <path d="M 2000.18 794.08 L 1997.27 794.96 L 1993.65 795.78 L 1991.02 796.28 L 1988.46 796.98 L 1985.28 797.37 L 1982.75 798.21 L 1979.35 798.47 L 1976.75 799.69 L 1973.66 800.05 L 1970.53 800.13 L 1967.93 801.06 L 1964.67 801.52 L 1961.46 802.37 L 1958.90 802.74 L 1955.67 803.88 L 1952.76 804.15 L 1950.28 804.31 L 1946.72 804.92 L 1944.31 805.85 L 1941.13 806.07 L 1938.43 807.42 L 1935.61 807.76 L 1932.46 808.14 L 1929.66 809.16 L 1926.11 809.75 L 1923.61 810.06 L 1920.50 810.61 L 1917.66 811.41 L 1914.86 812.04 L 1912.09 812.54 L 1908.74 813.40 L 1906.23 813.70 L 1902.94 814.23 L 1900.31 814.98 L 1897.34 815.85 L 1894.11 815.87 L 1891.48 816.70 L 1888.50 817.47 L 1885.64 817.82 L 1882.24 818.37 L 1879.74 819.67 L 1876.86 819.73 L 1873.65 820.71 L 1870.74 820.56 L 1867.90 821.87 L 1864.97 822.54 L 1862.08 822.83 L 1859.01 823.62 L 1855.77 823.85 L 1852.83 825.01 L 1850.17 825.32 L 1847.42 825.78 L 1844.49 826.21 L 1840.81 826.83 L 1838.08 827.64 L 1835.27 828.42 L 1832.37 828.60 L 1829.42 829.43 L 1826.89 830.02 L 1823.40 830.83 L 1820.41 831.30 L 1817.67 831.38 L 1814.57 832.80 L 1811.44 832.86 L 1808.73 833.18 L 1806.47 834.68 L 1803.14 834.81 L 1800.21 835.61 L 1797.43 836.06 L 1794.10 836.66 L 1791.16 837.57 L 1788.64 837.83 L 1785.73 838.46 L 1782.47 838.82 L 1779.50 839.48 L 1776.76 840.48 L 1773.81 840.96 L 1770.67 841.40 L 1767.81 842.10 L 1764.80 842.82 L 1761.91 843.47 L 1758.49 844.16 L 1756.05 844.76 L 1752.90 844.77 L 1750.26 845.89 L 1747.31 846.36 L 1744.63 847.09 L 1741.36 847.24 L 1738.56 848.54 L 1735.75 848.33 L 1732.70 849.43 L 1729.73 849.86 L 1726.67 850.08 L 1723.68 851.05 L 1720.89 851.78 L 1717.88 852.33 L 1714.62 853.02 L 1711.87 853.44 L 1708.86 854.52 L 1706.24 855.35 L 1703.28 855.48 L 1700.22 855.99 L 1697.30 856.33 L 1694.71 857.40 L 1691.38 857.75 L 1688.65 858.61 L 1685.51 858.86 L 1682.33 859.40 L 1679.99 860.33 L 1677.20 860.75 L 1673.91 861.25 L 1670.41 861.64 L 1668.36 862.50 L 1664.94 863.02 L 1661.78 864.26 L 1658.82 864.39 L 1656.33 865.24 L 1652.85 865.42 L 1650.47 866.56 L 1647.26 866.82 L 1644.51 867.62 L 1641.02 868.25 L 1638.54 868.79 L 1635.60 869.13 L 1632.44 870.17 L 1629.84 870.70 L 1626.62 871.31 L 1623.67 871.68 L 1620.71 872.43 L 1618.49 873.04 L 1614.98 873.27 L 1611.78 874.30 L 1609.06 874.45 L 1606.13 875.50 L 1603.59 875.80 L 1600.36 876.84 L 1597.68 877.06 L 1595.04 877.69 L 1591.53 878.19 L 1588.49 878.59 L 1585.68 879.44 L 1582.65 879.98 L 1578.96 880.74 L 1576.91 881.13 L 1573.86 882.15 L 1571.10 883.13 L 1567.92 883.05 L 1565.45 883.93 L 1562.00 884.12 L 1559.38 885.25 L 1556.67 885.57 L 1553.49 886.00 L 1550.37 886.60 L 1547.27 887.27 L 1544.44 888.39 L 1541.85 888.41 L 1538.38 889.18 L 1536.06 889.75 L 1532.86 890.11 L 1529.89 890.67 L 1526.89 891.53 L 1524.21 892.08 L 1521.00 892.91 L 1518.10 892.99 L 1514.97 894.24 L 1512.04 894.73 L 1509.45 895.53 L 1506.16 895.68 L 1503.22 896.76 L 1500.38 897.44 L 1497.77 897.68 L 1494.79 898.32 L 1491.97 899.09 L 1488.66 899.17 L 1485.68 899.95 L 1482.57 900.75 L 1479.94 901.36 L 1477.15 901.38 L 1474.10 902.43 L 1470.69 903.28 L 1468.22 903.54 L 1465.12 904.49 L 1462.22 904.59 L 1459.35 905.65 L 1456.21 906.21 L 1453.39 906.73 L 1450.46 907.31 L 1447.52 908.12 L 1444.93 908.87 L 1441.87 908.87 L 1438.99 909.97 L 1436.03 910.26 L 1433.04 910.76 L 1430.19 910.85 L 1426.84 912.31 L 1424.68 912.50 L 1421.08 913.30 L 1418.38 914.25 L 1415.18 914.46 L 1412.29 915.43 L 1408.89 916.60 L 1406.37 916.53 L 1403.26 916.94 L 1400.25 917.35 L 1397.64 918.38 L 1394.56 919.05 L 1391.86 919.52 L 1389.11 919.62 L 1386.20 920.83 L 1383.31 920.95 L 1380.32 921.69 L 1377.11 922.48 L 1374.07 923.47 L 1371.05 924.11 L 1368.10 924.03 L 1365.26 924.94 L 1362.46 925.74 L 1359.58 926.27 L 1356.60 926.77 L 1353.52 927.34 L 1350.17 928.03 L 1347.32 928.30 L 1344.84 928.95 L 1341.52 929.71 L 1338.69 930.10 L 1335.86 931.30 L 1332.74 931.09 L 1330.22 932.30 L 1327.07 932.95 L 1324.11 933.30 L 1321.11 933.84 L 1318.33 934.11 L 1315.47 935.20 L 1312.58 935.81 L 1309.52 936.62 L 1306.69 937.38 L 1303.38 937.21 L 1300.67 937.96 L 1297.57 938.52 L 1294.67 939.65 L 1292.19 940.07 L 1289.04 940.56 L 1285.55 941.33 L 1282.76 941.89 L 1279.76 942.60 L 1277.14 943.14 L 1274.10 943.53 L 1271.34 944.07 L 1268.37 944.36 L 1265.19 945.14 L 1262.39 945.81 L 1259.80 946.83 L 1256.47 947.36 L 1253.67 947.92 L 1251.29 948.74 L 1247.39 948.80 L 1244.95 950.10 L 1241.99 949.96 L 1238.86 950.51 L 1235.89 951.35 L 1233.24 952.18 L 1230.04 952.83 L 1227.02 953.18 L 1224.18 953.91 L 1221.13 954.41 L 1217.79 955.10 L 1215.39 955.46 L 1212.41 956.11 L 1209.39 956.88 L 1206.55 957.73 L 1203.52 958.29 L 1200.65 959.00 L 1197.55 959.42 L 1195.07 959.78 L 1191.93 960.38 L 1188.81 961.26 L 1186.05 961.54 L 1182.99 962.49 L 1180.76 962.83 L 1177.26 963.88 L 1174.19 963.82 L 1171.59 964.66 L 1168.49 965.66 L 1165.85 965.99 L 1163.06 966.56 L 1159.22 967.29 L 1156.24 967.56 L 1153.42 968.48 L 1150.92 969.00 L 1147.90 969.58 L 1144.39 970.41 L 1141.67 971.01 L 1139.25 971.65 L 1136.01 972.07 L 1133.08 973.08 L 1130.01 973.01 L 1127.07 974.22 L 1123.88 974.35 L 1121.53 974.99 L 1118.39 976.23 L 1115.82 976.08 L 1112.76 976.86 L 1109.93 977.33 L 1106.68 978.48 L 1103.47 978.75 L 1100.64 979.07 L 1097.39 980.11 L 1094.67 980.10 L 1092.26 981.09 L 1088.97 981.85 L 1086.29 982.01 L 1083.02 983.07 L 1080.41 983.55 L 1077.23 984.21 L 1074.06 984.90 L 1071.15 985.27 L 1068.42 986.12 L 1065.81 986.52 L 1062.52 987.51 L 1060.01 987.87 L 1056.60 988.68 L 1053.92 988.96 L 1051.01 989.39 L 1047.92 990.40 L 1044.68 990.49 L 1041.60 991.48 L 1039.13 991.69 L 1035.90 992.72 L 1033.36 993.45 L 1030.31 993.87 L 1027.20 994.51 L 1024.21 994.98 L 1021.55 995.73 L 1018.18 996.00 L 1015.55 996.95 L 1012.30 997.60 L 1009.47 998.18 L 1006.80 998.72 L 1004.16 999.48 L 1000.85 1000.07 L 1000.00 1000.00 L 997.06 1000.61 L 994.13 1001.22 L 991.19 1001.83 L 988.25 1002.44 L 985.31 1003.05 L 982.37 1003.65 L 979.43 1004.23 L 976.49 1004.81 L 973.54 1005.39 L 970.60 1005.97 L 967.66 1006.56 L 964.71 1007.13 L 961.77 1007.72 L 958.83 1008.30 L 955.88 1008.87 L 952.94 1009.46 L 950.00 1010.04 L 947.05 1010.62 L 944.11 1011.20 L 941.17 1011.78 L 938.23 1012.37 L 935.29 1012.97 L 932.35 1013.57 L 929.41 1014.17 L 926.47 1014.78 L 923.54 1015.40 L 920.60 1016.02 L 917.66 1016.63 L 914.73 1017.25 L 911.79 1017.86 L 908.85 1018.47 L 905.92 1019.08 L 902.98 1019.71 L 900.05 1020.32 L 897.11 1020.93 L 894.17 1021.54 L 891.23 1022.14 L 888.29 1022.74 L 885.35 1023.34 L 882.41 1023.95 L 879.48 1024.55 L 876.54 1025.17 L 873.61 1025.79 L 870.67 1026.41 L 867.73 1027.02 L 864.80 1027.63 L 861.86 1028.27 L 858.93 1028.89 L 855.99 1029.50 L 853.06 1030.11 L 850.12 1030.72 L 847.18 1031.34 L 844.25 1031.98 L 841.32 1032.61 L 838.38 1033.23 L 835.45 1033.86 L 832.52 1034.49 L 829.58 1035.11 L 826.65 1035.75 L 823.71 1036.36 L 820.78 1036.98 L 817.84 1037.59 L 814.90 1038.19 L 811.96 1038.80 L 809.02 1039.39 L 806.08 1039.99 L 803.15 1040.60 L 800.21 1041.20 L 797.27 1041.81 L 794.33 1042.42 L 791.39 1043.02 L 788.45 1043.63 L 785.51 1044.22 L 782.57 1044.81 L 779.63 1045.40 L 776.69 1045.99 L 773.75 1046.57 L 770.80 1047.15 L 767.86 1047.73 L 764.92 1048.31 L 761.97 1048.89 L 759.03 1049.47 L 756.08 1050.04 L 753.14 1050.62 L 750.20 1051.19 L 747.25 1051.77 L 744.31 1052.35 L 741.36 1052.92 L 738.42 1053.50 L 735.47 1054.07 L 732.53 1054.66 L 729.59 1055.24 L 726.65 1055.82 L 723.70 1056.41 L 720.76 1057.00 L 717.82 1057.59 L 714.88 1058.18 L 711.94 1058.78 L 709.00 1059.39 L 706.07 1060.01 L 703.13 1060.63 L 700.20 1061.24 L 697.26 1061.86 L 694.33 1062.48 L 691.39 1063.09 L 688.45 1063.71 L 685.51 1064.32 L 682.58 1064.92 L 679.64 1065.53 L 676.70 1066.14 L 673.76 1066.75 L 670.82 1067.35 L 667.88 1067.93 L 664.94 1068.52 L 662.00 1069.11 L 659.05 1069.69 L 656.11 1070.25 L 653.16 1070.83 L 650.22 1071.40 L 647.27 1071.96 L 644.32 1072.52 L 641.38 1073.07 L 638.43 1073.63 L 635.48 1074.18 L 632.53 1074.74 L 629.59 1075.32 L 626.64 1075.88 L 623.70 1076.45 L 620.75 1077.01 L 617.80 1077.57 L 614.86 1078.14 L 611.91 1078.70 L 608.96 1079.27 L 606.01 1079.82 L 603.07 1080.38 L 600.12 1080.95 L 597.17 1081.51 L 594.23 1082.07 L 591.28 1082.63 L 588.33 1083.20 L 585.39 1083.75 L 582.44 1084.31 L 579.49 1084.87 L 576.54 1085.44 L 573.60 1086.01 L 570.65 1086.58 L 567.71 1087.15 L 564.76 1087.72 L 561.82 1088.29 L 558.87 1088.87 L 555.93 1089.42 L 552.98 1089.97 L 550.03 1090.53 L 547.08 1091.09 L 544.13 1091.65 L 541.19 1092.20 L 538.24 1092.76 L 535.29 1093.30 L 532.34 1093.85 L 529.39 1094.39 L 526.44 1094.95 L 523.49 1095.50 L 520.54 1096.04 L 517.59 1096.59 L 514.64 1097.13 L 511.69 1097.67 L 508.74 1098.20 L 505.78 1098.73 L 502.83 1099.26 L 499.88 1099.80 L 496.93 1100.32 L 493.97 1100.85 L 491.02 1101.38 L 488.07 1101.91 L 485.12 1102.45 L 482.16 1102.97 L 479.21 1103.50 L 476.25 1104.03 L 473.31 1104.58 L 470.36 1105.12 L 467.40 1105.67 L 464.46 1106.21 L 461.51 1106.77 L 458.56 1107.32 L 455.61 1107.87 L 452.66 1108.42 L 449.71 1108.97 L 446.76 1109.52 L 443.81 1110.08 L 440.87 1110.64 L 437.92 1111.18 L 434.97 1111.74 L 432.02 1112.29 L 429.07 1112.84 L 426.12 1113.39 L 423.17 1113.95 L 420.23 1114.51 L 417.28 1115.06 L 414.33 1115.60 L 411.38 1116.16 L 408.43 1116.72 L 405.49 1117.29 L 402.54 1117.86 L 399.60 1118.43 L 396.65 1119.01 L 393.70 1119.56 L 390.76 1120.12 L 387.81 1120.67 L 384.86 1121.21 L 381.91 1121.77 L 378.96 1122.31 L 376.01 1122.86 L 373.06 1123.42 L 370.11 1123.98 L 367.17 1124.53 L 364.22 1125.08 L 361.27 1125.65 L 358.32 1126.20 L 355.38 1126.78 L 352.44 1127.36 L 349.49 1127.95 L 346.55 1128.55 L 343.61 1129.15 L 340.67 1129.74 L 337.73 1130.33 L 334.79 1130.91 L 331.84 1131.47 L 328.89 1132.02 L 325.94 1132.56 L 322.99 1133.09 L 320.03 1133.62 L 317.08 1134.13 L 314.12 1134.65 L 311.17 1135.17 L 308.21 1135.69 L 305.26 1136.20 L 302.30 1136.71 L 299.35 1137.23 L 296.39 1137.75 L 293.44 1138.28 L 290.49 1138.81 L 287.54 1139.35 L 284.58 1139.87 L 281.63 1140.39 L 278.67 1140.91 L 275.72 1141.44 L 272.77 1141.97 L 269.82 1142.51 L 266.86 1143.04 L 263.91 1143.58 L 260.96 1144.12 L 258.01 1144.65 L 255.06 1145.19 L 252.11 1145.73 L 249.15 1146.26 L 246.20 1146.79 L 243.25 1147.33 L 240.30 1147.88 L 237.35 1148.44 L 234.40 1148.99 L 231.46 1149.56 L 228.51 1150.13 L 225.57 1150.69 L 222.62 1151.24 L 219.67 1151.80 L 216.72 1152.36 L 213.78 1152.93 L 210.83 1153.49 L 207.88 1154.04 L 204.93 1154.60 L 201.99 1155.16 L 199.04 1155.71 L 196.09 1156.26 L 193.14 1156.84 L 190.20 1157.42 L 187.26 1158.00 L 184.31 1158.57 L 181.37 1159.16 L 178.43 1159.74 L 175.49 1160.34 L 172.55 1160.94 L 169.61 1161.56 L 166.68 1162.17 L 163.74 1162.78 L 160.80 1163.38 L 157.86 1163.99 L 154.93 1164.61 L 151.99 1165.22 L 149.05 1165.82 L 146.11 1166.42 L 143.17 1167.00 L 140.22 1167.58 L 137.28 1168.16 L 134.34 1168.74 L 131.39 1169.31 L 128.45 1169.89 L 125.51 1170.48 L 122.57 1171.09 L 119.63 1171.68 L 116.69 1172.29 L 113.75 1172.91 L 110.82 1173.52 L 107.88 1174.13 L 104.94 1174.75 L 102.01 1175.36 L 99.07 1175.95 L 96.13 1176.55 L 93.19 1177.15 L 90.25 1177.76 L 87.31 1178.37 L 84.38 1178.98 L 81.44 1179.60 L 78.50 1180.22 L 75.57 1180.84 L 72.63 1181.46 L 69.70 1182.08 L 66.76 1182.70 L 63.82 1183.30 L 60.88 1183.88 L 57.94 1184.46 L 55.00 1185.04 L 52.05 1185.62 L 49.11 1186.21 L 46.17 1186.79 L 43.22 1187.37 L 40.28 1187.94 L 37.33 1188.52 L 34.39 1189.09 L 31.44 1189.65 L 28.50 1190.22 L 25.55 1190.79 L 22.60 1191.35 L 19.66 1191.92 L 16.72 1192.50 L 13.77 1193.09 L 10.83 1193.67 L 7.89 1194.25 L 4.95 1194.84 L 2.00 1195.42 L -0.94 1196.00 L -3.88 1196.58 L -6.83 1197.16 L -9.77 1197.75 L -12.71 1198.33 L -15.66 1198.91 L -18.60 1199.47 L -21.55 1200.05" stroke="rgb(245,245,245)" stroke-opacity="0.704" stroke-width="1.10" />
  <path d="M 1002.12 998.48 L 999.59 998.78 L 997.07 999.05 L 994.57 999.32 L 992.07 999.54 L 989.58 999.75 L 987.11 1000.00 L 984.67 1000.36 L 982.24 1000.71 L 979.83 1001.14 L 977.43 1001.54 L 975.05 1001.93 L 972.67 1002.32" stroke="rgb(140,255,190)" stroke-opacity="0.527" stroke-width="1.10" />
  <path d="M 998.84 1001.25 L 996.32 1001.81 L 993.82 1002.38 L 991.34 1002.94 L 988.87 1003.53 L 986.41 1004.12 L 983.95 1004.65 L 981.51 1005.18 L 979.07 1005.74 L 976.64 1006.29 L 974.21 1006.83 L 971.80 1007.44 L 969.44 1008.09 L 967.12 1008.74 L 964.80 1009.39 L 962.49 1010.11" stroke="rgb(140,255,190)" stroke-opacity="0.527" stroke-width="1.10" />
  <path d="M 854.80 1023.69 L 852.38 1023.60 L 849.99 1023.51 L 847.59 1023.37 L 845.19 1023.27 L 842.81 1023.21 L 840.43 1023.21 L 838.00 1023.08 L 835.56 1022.90 L 833.11 1022.76 L 830.73 1022.48 L 828.36 1022.21 L 825.98 1021.90 L 823.61 1021.60 L 821.25 1021.23 L 818.93 1020.77 L 816.59 1020.42 L 814.28 1019.98 L 811.92 1019.54 L 809.53 1019.15 L 807.17 1018.78 L 804.80 1018.50 L 802.45 1018.23 L 800.11 1017.91 L 797.74 1017.61 L 795.43 1017.38 L 793.20 1017.12 L 791.01 1016.83 L 788.76 1016.61 L 786.51 1016.38 L 784.27 1016.15 L 782.07 1015.91 L 779.88 1015.69 L 777.66 1015.44 L 775.46 1015.20" stroke="rgb(140,255,190)" stroke-opacity="0.527" stroke-width="1.10" />
  <path d="M 902.63 999.28 L 900.10 998.46 L 897.58 997.61 L 895.01 996.88 L 892.46 996.14 L 889.91 995.42 L 887.42 994.60 L 885.00 993.64 L 882.59 992.67 L 880.22 991.68 L 877.86 990.69 L 875.53 989.73 L 873.24 988.74 L 870.96 987.77 L 868.69 986.79 L 866.50 985.82 L 864.32 984.89 L 862.18 983.89 L 859.99 982.98 L 857.79 982.09 L 855.58 981.27 L 853.38 980.44 L 851.18 979.65 L 848.92 978.96 L 846.65 978.29 L 844.37 977.70 L 842.10 977.14 L 839.84 976.56 L 837.57 975.98 L 835.30 975.42 L 833.06 974.82 L 830.82 974.19 L 828.59 973.57 L 826.33 973.03 L 824.08 972.51 L 821.84 971.95 L 819.64 971.33 L 817.44 970.70" stroke="rgb(140,255,190)" stroke-opacity="0.527" stroke-width="1.10" />
  <path d="M 896.24 1021.60 L 894.19 1022.63 L 892.11 1023.67 L 890.00 1024.76 L 887.95 1025.90 L 885.96 1027.12 L 883.97 1028.33 L 881.98 1029.55 L 879.99 1030.80 L 878.04 1032.00 L 876.11 1033.21 L 874.16 1034.37 L 872.18 1035.52 L 870.17 1036.59 L 868.17 1037.67 L 866.15 1038.76 L 864.14 1039.83 L 862.15 1040.89 L 860.22 1042.05 L 858.29 1043.15 L 856.45 1044.30 L 854.47 1045.23 L 852.47 1046.15 L 850.52 1047.04 L 848.54 1047.99 L 846.58 1048.93 L 844.61 1049.86 L 842.66 1050.77 L 840.72 1051.68 L 838.88 1052.69 L 837.03 1053.66 L 835.18 1054.57 L 833.34 1055.50 L 831.52 1056.43 L 829.72 1057.35 L 827.88 1058.22 L 826.10 1059.13 L 824.31 1060.00 L 822.52 1060.85 L 820.70 1061.65 L 818.87 1062.44 L 817.04 1063.24 L 815.18 1064.03 L 813.34 1064.84 L 811.52 1065.66 L 809.70 1066.45 L 807.89 1067.15" stroke="rgb(140,255,190)" stroke-opacity="0.526" stroke-width="1.10" />
  <path d="M 929.12 921.94 L 927.49 920.96 L 925.80 920.03 L 924.10 919.11 L 922.41 918.21 L 920.66 917.44 L 918.95 916.64 L 917.24 915.85 L 915.52 915.06 L 913.82 914.27 L 912.12 913.57 L 910.33 913.06 L 908.55 912.42 L 906.83 911.74 L 905.14 911.01 L 903.53 910.19 L 901.91 909.43 L 900.31 908.59 L 898.73 907.73 L 897.18 906.80 L 895.67 905.85 L 894.17 905.01 L 892.69 904.28 L 891.20 903.47 L 889.72 902.70 L 888.27 901.91 L 886.70 901.06 L 885.14 900.20 L 883.56 899.36 L 882.02 898.50 L 880.48 897.64 L 878.93 896.80 L 877.31 896.03 L 875.71 895.25 L 874.11 894.55 L 872.52 893.83 L 870.92 893.13 L 869.30 892.45 L 867.66 891.76 L 866.02 890.99 L 864.38 890.29 L 862.75 889.55 L 861.11 888.81 L 859.48 888.07 L 857.89 887.24 L 856.32 886.37 L 854.74 885.53 L 853.17 884.72 L 851.60 883.92 L 850.05 883.21 L 848.54 882.43 L 847.04 881.69 L 845.49 881.05" stroke="rgb(205,165,255)" stroke-opacity="0.462" stroke-width="1.08" />
  <path d="M 1004.87 994.07 L 1003.85 995.11 L 1002.73 996.02 L 1001.63 996.98 L 1000.55 997.93 L 999.47 998.89 L 998.37 999.80 L 997.37 1000.78 L 996.42 1001.89 L 995.51 1003.01 L 994.71 1004.15 L 993.90 1005.26 L 993.20 1006.46 L 992.32 1007.54 L 991.43 1008.59 L 990.55 1009.65 L 989.67 1010.68" stroke="rgb(230,230,230)" stroke-opacity="0.384" stroke-width="0.71" />
  <path d="M 1002.15 997.34 L 1003.32 997.85 L 1004.62 998.25 L 1005.92 998.65 L 1007.26 999.05 L 1008.58 999.50 L 1009.91 999.92" stroke="rgb(230,230,230)" stroke-opacity="0.381" stroke-width="0.70" />
  <path d="M 1000.83 995.16 L 1001.27 996.54 L 1001.68 997.92 L 1002.15 999.23 L 1002.65 1000.47 L 1003.16 1001.67 L 1003.66 1002.90 L 1004.13 1004.11 L 1004.60 1005.35 L 1005.10 1006.58 L 1005.54 1007.85 L 1006.03 1009.07 L 1006.58 1010.29 L 1007.01 1011.56 L 1007.38 1012.85" stroke="rgb(230,230,230)" stroke-opacity="0.381" stroke-width="0.70" />
  <path d="M 1002.53 1003.90 L 1003.11 1002.82 L 1003.65 1001.72 L 1004.18 1000.63 L 1004.80 999.53 L 1005.36 998.45 L 1005.90 997.36" stroke="rgb(230,230,230)" stroke-opacity="0.379" stroke-width="0.69" />
  <path d="M 1006.11 1001.46 L 1005.71 1002.90 L 1005.29 1004.33 L 1004.73 1005.71 L 1004.22 1007.10 L 1003.70 1008.48 L 1003.16 1009.84 L 1002.63 1011.21 L 1002.10 1012.57 L 1001.54 1013.91" stroke="rgb(230,230,230)" stroke-opacity="0.377" stroke-width="0.69" />
  <path d="M 1002.24 999.82 L 1003.39 1000.78 L 1004.65 1001.59 L 1005.87 1002.43 L 1007.12 1003.21" stroke="rgb(230,230,230)" stroke-opacity="0.375" stroke-width="0.68" />
  <path d="M 1002.30 996.77 L 1003.56 996.72 L 1004.73 996.70 L 1005.79 996.31 L 1006.91 996.05 L 1008.11 995.72 L 1009.29 995.31" stroke="rgb(230,230,230)" stroke-opacity="0.374" stroke-width="0.68" />
  <path d="M 999.63 1001.00 L 998.15 1001.23 L 996.69 1001.48 L 995.23 1001.67 L 993.77 1001.84 L 992.34 1002.09 L 990.91 1002.33 L 989.48 1002.60 L 988.12 1003.13 L 986.80 1003.73 L 985.48 1004.34 L 984.39 1005.27 L 983.30 1006.20 L 982.13 1007.01" stroke="rgb(230,230,230)" stroke-opacity="0.370" stroke-width="0.67" />
  <path d="M 1000.47 994.32 L 999.42 993.25 L 998.40 992.17 L 997.38 991.11 L 996.36 990.04 L 995.33 988.99 L 994.38 987.87 L 993.39 986.79 L 992.43 985.69" stroke="rgb(230,230,230)" stroke-opacity="0.370" stroke-width="0.67" />
  <path d="M 1006.44 1005.34 L 1007.91 1005.60 L 1009.36 1005.94 L 1010.82 1006.22 L 1012.27 1006.43 L 1013.72 1006.49 L 1015.15 1006.59 L 1016.57 1006.75 L 1017.97 1006.91" stroke="rgb(230,230,230)" stroke-opacity="0.364" stroke-width="0.65" />
  <path d="M 996.92 1000.16 L 997.03 998.68 L 997.16 997.21 L 997.38 995.76 L 997.77 994.33 L 998.10 992.91 L 998.43 991.49 L 998.61 990.04 L 998.64 988.59 L 998.54 987.17 L 998.41 985.75 L 998.28 984.31 L 997.89 982.94 L 997.49 981.58 L 997.12 980.23" stroke="rgb(230,230,230)" stroke-opacity="0.362" stroke-width="0.65" />
  <path d="M 1003.90 999.29 L 1004.10 1000.31 L 1004.30 1001.34 L 1004.58 1002.38 L 1004.80 1003.54 L 1004.90 1004.71 L 1004.93 1005.86 L 1004.90 1006.92 L 1004.84 1007.96 L 1004.76 1008.98 L 1004.74 1010.04 L 1004.63 1011.08 L 1004.43 1012.06" stroke="rgb(230,230,230)" stroke-opacity="0.362" stroke-width="0.64" />
  <path d="M 1001.81 995.94 L 1001.58 996.86 L 1001.36 997.78 L 1001.13 998.69 L 1000.82 999.59 L 1000.53 1000.44 L 1000.43 1001.44 L 1000.32 1002.46 L 1000.21 1003.47 L 1000.18 1004.56 L 999.94 1005.52 L 999.68 1006.56" stroke="rgb(230,230,230)" stroke-opacity="0.359" stroke-width="0.64" />
  <path d="M 1001.23 995.58 L 1001.22 995.78 L 1001.19 996.01 L 1001.19 996.23 L 1001.21 996.47 L 1001.26 996.66 L 1001.42 996.90 L 1001.60 997.16" stroke="rgb(230,230,230)" stroke-opacity="0.358" stroke-width="0.63" />
  <path d="M 1005.20 992.24 L 1006.31 992.06 L 1007.48 991.88 L 1008.68 991.76 L 1009.94 991.66 L 1011.29 991.71 L 1012.65 991.65 L 1013.99 991.62 L 1015.29 991.51 L 1016.59 991.51 L 1017.92 991.30 L 1019.26 991.03 L 1020.57 990.76 L 1021.94 990.55 L 1023.30 990.38 L 1024.69 990.22" stroke="rgb(230,230,230)" stroke-opacity="0.357" stroke-width="0.63" />
  <path d="M 998.46 1006.66 L 997.80 1006.61 L 997.14 1006.62 L 996.53 1006.59 L 995.94 1006.56 L 995.35 1006.53 L 994.77 1006.50 L 994.20 1006.47 L 993.62 1006.45 L 993.07 1006.50 L 992.59 1006.57 L 992.11 1006.65" stroke="rgb(230,230,230)" stroke-opacity="0.351" stroke-width="0.61" />
  <path d="M 996.01 995.97 L 996.27 997.13 L 996.76 998.17 L 997.24 999.17" stroke="rgb(230,230,230)" stroke-opacity="0.351" stroke-width="0.61" />
  <path d="M 1001.30 1000.36 L 1001.06 1000.20 L 1000.99 999.86 L 1000.89 999.52 L 1000.78 999.16 L 1000.77 998.75 L 1000.77 998.31 L 1000.77 997.87 L 1000.89 997.30 L 1000.86 996.77 L 1000.82 996.26 L 1000.79 995.75 L 1000.72 995.27 L 1000.52 994.67" stroke="rgb(230,230,230)" stroke-opacity="0.350" stroke-width="0.61" />
</g>
</svg>
