{
  "asset": {
    "version": "2.0",
    "generator": "TES-23 Cosmic Ray Renderer"
  },
  "extensionsUsed": [
    "KHR_materials_unlit"
  ],
  "extensionsRequired": [
    "KHR_materials_unlit"
  ],
  "scene": 0,
  "scenes": [
    {
      "nodes": [
        0
      ]
    }
  ],
  "nodes": [
    {
      "name": "CosmicRayEvent",
      "mesh": 0
    }
  ],
  "meshes": [
    {
      "name": "CosmicRayEvent",
      "primitives": [
        {
          "attributes": {
            "POSITION": 0
          },
          "material": 0,
          "mode": 1
        },
        {
          "attributes": {
            "POSITION": 1
          },
          "material": 1,
          "mode": 1
        },
        {
          "attributes": {
            "POSITION": 2
          },
          "material": 2,
          "mode": 1
        },
        {
          "attributes": {
            "POSITION": 3
          },
          "material": 3,
          "mode": 1
        },
        {
          "attributes": {
            "POSITION": 4
          },
          "material": 4,
          "mode": 1
        }
      ]
    }
  ],
  "materials": [
    {
      "name": "primary",
      "extensions": {
        "KHR_materials_unlit": {}
      },
      "pbrMetallicRoughness": {
        "baseColorFactor": [
          0.961,
          0.961,
          0.961,
          1
        ],
        "metallicFactor": 0,
        "roughnessFactor": 1
      }
    },
    {
      "name": "vertex",
      "extensions": {
        "KHR_materials_unlit": {}
      },
      "pbrMetallicRoughness": {
        "baseColorFactor": [
          0.902,
          0.902,
          0.902,
          0.9
        ],
        "metallicFactor": 0,
        "roughnessFactor": 1
      }
    },
    {
      "name": "em",
      "extensions": {
        "KHR_materials_unlit": {}
      },
      "pbrMetallicRoughness": {
        "baseColorFactor": [
          0.471,
          0.824,
          1,
          1
        ],
        "metallicFactor": 0,
        "roughnessFactor": 1
      }
    },
    {
      "name": "hadron",
      "extensions": {
        "KHR_materials_unlit": {}
      },
      "pbrMetallicRoughness": {
        "baseColorFactor": [
          0.549,
          1,
          0.745,
          1
        ],
        "metallicFactor": 0,
        "roughnessFactor": 1
      }
    },
    {
      "name": "delta",
      "extensions": {
        "KHR_materials_unlit": {}
      },
      "pbrMetallicRoughness": {
        "baseColorFactor": [
          0.804,
          0.647,
          1,
          1
        ],
        "metallicFactor": 0,
        "roughnessFactor": 1
      }
    }
  ],
  "accessors": [
    {
      "bufferView": 0,
      "byteOffset": 0,
      "componentType": 5126,
      "count": 1376,
      "type": "VEC3",
      "min": [
        -1.0215474367141724,
        -0.20004718005657196,
        0
      ],
      "max": [
        1.000180959701538,
        0.20591886341571808,
        0
      ]
    },
    {
      "bufferView": 1,
      "byteOffset": 0,
      "componentType": 5126,
      "count": 352,
      "type": "VEC3",
      "min": [
        -0.017873039469122887,
        -0.01390770636498928,
        -0.07427133619785309
      ],
      "max": [
        0.02469368278980255,
        0.01977422647178173,
        0.09023985266685486
      ]
    },
    {
      "bufferView": 2,
      "byteOffset": 0,
      "componentType": 5126,
      "count": 1088,
      "type": "VEC3",
      "min": [
        -0.2574450671672821,
        -0.06446580588817596,
        -0.13126279413700104
      ],
      "max": [
        0.004529267083853483,
        0.0035053135361522436,
        0.07608050853013992
      ]
    },
    {
      "bufferView": 3,
      "byteOffset": 0,
      "componentType": 5126,
      "count": 2644,
      "type": "VEC3",
      "min": [
        -0.2740260660648346,
        -0.08701135218143463,
        -0.2409750372171402
      ],
      "max": [
        0.002427510917186737,
        0.029300518333911896,
        0.4370148479938507
      ]
    },
    {
      "bufferView": 4,
      "byteOffset": 0,
      "componentType": 5126,
      "count": 1438,
      "type": "VEC3",
      "min": [
        -0.39222168922424316,
        -0.19550000131130219,
        -0.950326144695282
      ],
      "max": [
        0.07883139699697495,
        0.19981947541236877,
        0.5616073608398438
      ]
    }
  ],
  "bufferViews": [
    {
      "buffer": 0,
      "byteOffset": 0,
      "byteLength": 16512,
      "target": 34962
    },
    {
      "buffer": 0,
      "byteOffset": 16512,
      "byteLength": 4224,
      "target": 34962
    },
    {
      "buffer": 0,
      "byteOffset": 20736,
      "byteLength": 13056,
      "target": 34962
    },
    {
      "buffer": 0,
      "byteOffset": 33792,
      "byteLength": 31728,
      "target": 34962
    },
    {
      "buffer": 0,
      "byteOffset": 65520,
      "byteLength": 17256,
      "target": 34962
    }
  ],
  "buffers": [
    {
      "byteLength": 82776,
      "uri": "data:application/octet-stream;base64,"
    }
  ]
}