{
  "asset": {
    "version": "2.0",
    "generator": "TES-23 Cosmic Ray Renderer"
  },
  "extensionsUsed": [
    "KHR_materials_unlit"
  ],
  "extensionsRequired": [
    "KHR_materials_unlit"
  ],
  "scene": 0,
  "scenes": [
    {
      "nodes": [
        0
      ]
    }
  ],
  "nodes": [
    {
      "name": "CosmicRayEvent",
      "mesh": 0
    }
  ],
  "meshes": [
    {
      "name": "CosmicRayEvent",
      "primitives": [
        {
          "attributes": {
            "POSITION": 0
          },
          "material": 0,
          "mode": 1
        },
        {
          "attributes": {
            "POSITION": 1
          },
          "material": 1,
          "mode": 1
        },
        {
          "attributes": {
            "POSITION": 2
          },
          "material": 2,
          "mode": 1
        }
      ]
    }
  ],
  "materials": [
    {
      "name": "primary",
      "extensions": {
        "KHR_materials_unlit": {}
      },
      "pbrMetallicRoughness": {
        "baseColorFactor": [
          0.961,
          0.961,
          0.961,
          1
        ],
        "metallicFactor": 0,
        "roughnessFactor": 1
      }
    },
    {
      "name": "vertex",
      "extensions": {
        "KHR_materials_unlit": {}
      },
      "pbrMetallicRoughness": {
        "baseColorFactor": [
          0.902,
          0.902,
          0.902,
          0.9
        ],
        "metallicFactor": 0,
        "roughnessFactor": 1
      }
    },
    {
      "name": "em",
      "extensions": {
        "KHR_materials_unlit": {}
      },
      "pbrMetallicRoughness": {
        "baseColorFactor": [
          0.471,
          0.824,
          1,
          1
        ],
        "metallicFactor": 0,
        "roughnessFactor": 1
      }
    }
  ],
  "accessors": [
    {
      "bufferView": 0,
      "byteOffset": 0,
      "componentType": 5126,
      "count": 1392,
      "type": "VEC3",
      "min": [
        -0.26477232575416565,
        -1.0002648830413818,
        0
      ],
      "max": [
        0.08801037073135376,
        1.020790696144104,
        0
      ]
    },
    {
      "bufferView": 1,
      "byteOffset": 0,
      "componentType": 5126,
      "count": 278,
      "type": "VEC3",
      "min": [
        -0.013066626153886318,
        -0.01883370615541935,
        -0.06379123777151108
      ],
      "max": [
        0.012842541560530663,
        0.008128502406179905,
        0.09278374165296555
      ]
    },
    {
      "bufferView": 2,
      "byteOffset": 0,
      "componentType": 5126,
      "count": 1534,
      "type": "VEC3",
      "min": [
        -0.002523519331589341,
        -0.0028750088531523943,
        -0.15806499123573303
      ],
      "max": [
        0.07726997137069702,
        0.3002079427242279,
        0.1332162469625473
      ]
    }
  ],
  "bufferViews": [
    {
      "buffer": 0,
      "byteOffset": 0,
      "byteLength": 16704,
      "target": 34962
    },
    {
      "buffer": 0,
      "byteOffset": 16704,
      "byteLength": 3336,
      "target": 34962
    },
    {
      "buffer": 0,
      "byteOffset": 20040,
      "byteLength": 18408,
      "target": 34962
    }
  ],
  "buffers": [
    {
      "byteLength": 38448,
      "uri": "data:application/octet-stream;base64,"
    }
  ]
}