{
  "asset": {
    "version": "2.0",
    "generator": "TES-23 Cosmic Ray Renderer"
  },
  "extensionsUsed": [
    "KHR_materials_unlit"
  ],
  "extensionsRequired": [
    "KHR_materials_unlit"
  ],
  "scene": 0,
  "scenes": [
    {
      "nodes": [
        0
      ]
    }
  ],
  "nodes": [
    {
      "name": "CosmicRayEvent",
      "mesh": 0
    }
  ],
  "meshes": [
    {
      "name": "CosmicRayEvent",
      "primitives": [
        {
          "attributes": {
            "POSITION": 0
          },
          "material": 0,
          "mode": 1
        },
        {
          "attributes": {
            "POSITION": 1
          },
          "material": 1,
          "mode": 1
        },
        {
          "attributes": {
            "POSITION": 2
          },
          "material": 2,
          "mode": 1
        },
        {
          "attributes": {
            "POSITION": 3
          },
          "material": 3,
          "mode": 1
        },
        {
          "attributes": {
            "POSITION": 4
          },
          "material": 4,
          "mode": 1
        },
        {
          "attributes": {
            "POSITION": 5
          },
          "material": 5,
          "mode": 1
        }
      ]
    }
  ],
  "materials": [
    {
      "name": "primary",
      "extensions": {
        "KHR_materials_unlit": {}
      },
      "pbrMetallicRoughness": {
        "baseColorFactor": [
          0.961,
          0.961,
          0.961,
          1
        ],
        "metallicFactor": 0,
        "roughnessFactor": 1
      }
    },
    {
      "name": "vertex",
      "extensions": {
        "KHR_materials_unlit": {}
      },
      "pbrMetallicRoughness": {
        "baseColorFactor": [
          0.902,
          0.902,
          0.902,
          0.9
        ],
        "metallicFactor": 0,
        "roughnessFactor": 1
      }
    },
    {
      "name": "em",
      "extensions": {
        "KHR_materials_unlit": {}
      },
      "pbrMetallicRoughness": {
        "baseColorFactor": [
          0.471,
          0.824,
          1,
          1
        ],
        "metallicFactor": 0,
        "roughnessFactor": 1
      }
    },
    {
      "name": "hadron",
      "extensions": {
        "KHR_materials_unlit": {}
      },
      "pbrMetallicRoughness": {
        "baseColorFactor": [
          0.549,
          1,
          0.745,
          1
        ],
        "metallicFactor": 0,
        "roughnessFactor": 1
      }
    },
    {
      "name": "delta",
      "extensions": {
        "KHR_materials_unlit": {}
      },
      "pbrMetallicRoughness": {
        "baseColorFactor": [
          0.804,
          0.647,
          1,
          1
        ],
        "metallicFactor": 0,
        "roughnessFactor": 1
      }
    },
    {
      "name": "backscatter",
      "extensions": {
        "KHR_materials_unlit": {}
      },
      "pbrMetallicRoughness": {
        "baseColorFactor": [
          1,
          0.824,
          0.529,
          0.95
        ],
        "metallicFactor": 0,
        "roughnessFactor": 1
      }
    }
  ],
  "accessors": [
    {
      "bufferView": 0,
      "byteOffset": 0,
      "componentType": 5126,
      "count": 1378,
      "type": "VEC3",
      "min": [
        -1.0222702026367188,
        -0.21163779497146606,
        0
      ],
      "max": [
        0.999800980091095,
        0.2042088508605957,
        0
      ]
    },
    {
      "bufferView": 1,
      "byteOffset": 0,
      "componentType": 5126,
      "count": 302,
      "type": "VEC3",
      "min": [
        -0.016792096197605133,
        -0.010894712060689926,
        -0.07673972845077515
      ],
      "max": [
        0.013516335748136044,
        0.019732646644115448,
        0.07398062199354172
      ]
    },
    {
      "bufferView": 2,
      "byteOffset": 0,
      "componentType": 5126,
      "count": 900,
      "type": "VEC3",
      "min": [
        -0.18283182382583618,
        -0.054424453526735306,
        -0.053356364369392395
      ],
      "max": [
        0.002618269994854927,
        0.003160993568599224,
        0.05360511690378189
      ]
    },
    {
      "bufferView": 3,
      "byteOffset": 0,
      "componentType": 5126,
      "count": 5826,
      "type": "VEC3",
      "min": [
        -0.3338795304298401,
        -0.16780708730220795,
        -0.2524928152561188
      ],
      "max": [
        0.0031769464258104563,
        0.11064102500677109,
        0.5455819368362427
      ]
    },
    {
      "bufferView": 4,
      "byteOffset": 0,
      "componentType": 5126,
      "count": 1548,
      "type": "VEC3",
      "min": [
        -0.21860142052173615,
        -0.12859417498111725,
        -0.607734739780426
      ],
      "max": [
        0.17839130759239197,
        0.09115514904260635,
        0.3860928416252136
      ]
    },
    {
      "bufferView": 5,
      "byteOffset": 0,
      "componentType": 5126,
      "count": 560,
      "type": "VEC3",
      "min": [
        -0.16025786101818085,
        -0.024637676775455475,
        -0.2821083068847656
      ],
      "max": [
        0.07966063171625137,
        0.05797456204891205,
        0.3353818356990814
      ]
    }
  ],
  "bufferViews": [
    {
      "buffer": 0,
      "byteOffset": 0,
      "byteLength": 16536,
      "target": 34962
    },
    {
      "buffer": 0,
      "byteOffset": 16536,
      "byteLength": 3624,
      "target": 34962
    },
    {
      "buffer": 0,
      "byteOffset": 20160,
      "byteLength": 10800,
      "target": 34962
    },
    {
      "buffer": 0,
      "byteOffset": 30960,
      "byteLength": 69912,
      "target": 34962
    },
    {
      "buffer": 0,
      "byteOffset": 100872,
      "byteLength": 18576,
      "target": 34962
    },
    {
      "buffer": 0,
      "byteOffset": 119448,
      "byteLength": 6720,
      "target": 34962
    }
  ],
  "buffers": [
    {
      "byteLength": 126168,
      "uri": "data:application/octet-stream;base64,"
    }
  ]
}