{
  "asset": {
    "version": "2.0",
    "generator": "TES-23 Cosmic Ray Renderer"
  },
  "extensionsUsed": [
    "KHR_materials_unlit"
  ],
  "extensionsRequired": [
    "KHR_materials_unlit"
  ],
  "scene": 0,
  "scenes": [
    {
      "nodes": [
        0
      ]
    }
  ],
  "nodes": [
    {
      "name": "CosmicRayEvent",
      "mesh": 0
    }
  ],
  "meshes": [
    {
      "name": "CosmicRayEvent",
      "primitives": [
        {
          "attributes": {
            "POSITION": 0
          },
          "material": 0,
          "mode": 1
        },
        {
          "attributes": {
            "POSITION": 1
          },
          "material": 1,
          "mode": 1
        },
        {
          "attributes": {
            "POSITION": 2
          },
          "material": 2,
          "mode": 1
        },
        {
          "attributes": {
            "POSITION": 3
          },
          "material": 3,
          "mode": 1
        },
        {
          "attributes": {
            "POSITION": 4
          },
          "material": 4,
          "mode": 1
        }
      ]
    }
  ],
  "materials": [
    {
      "name": "primary",
      "extensions": {
        "KHR_materials_unlit": {}
      },
      "pbrMetallicRoughness": {
        "baseColorFactor": [
          0.961,
          0.961,
          0.961,
          1
        ],
        "metallicFactor": 0,
        "roughnessFactor": 1
      }
    },
    {
      "name": "vertex",
      "extensions": {
        "KHR_materials_unlit": {}
      },
      "pbrMetallicRoughness": {
        "baseColorFactor": [
          0.902,
          0.902,
          0.902,
          0.9
        ],
        "metallicFactor": 0,
        "roughnessFactor": 1
      }
    },
    {
      "name": "em",
      "extensions": {
        "KHR_materials_unlit": {}
      },
      "pbrMetallicRoughness": {
        "baseColorFactor": [
          0.471,
          0.824,
          1,
          1
        ],
        "metallicFactor": 0,
        "roughnessFactor": 1
      }
    },
    {
      "name": "hadron",
      "extensions": {
        "KHR_materials_unlit": {}
      },
      "pbrMetallicRoughness": {
        "baseColorFactor": [
          0.549,
          1,
          0.745,
          1
        ],
        "metallicFactor": 0,
        "roughnessFactor": 1
      }
    },
    {
      "name": "delta",
      "extensions": {
        "KHR_materials_unlit": {}
      },
      "pbrMetallicRoughness": {
        "baseColorFactor": [
          0.804,
          0.647,
          1,
          1
        ],
        "metallicFactor": 0,
        "roughnessFactor": 1
      }
    }
  ],
  "accessors": [
    {
      "bufferView": 0,
      "byteOffset": 0,
      "componentType": 5126,
      "count": 1406,
      "type": "VEC3",
      "min": [
        -0.2932257056236267,
        -1.0000452995300293,
        0
      ],
      "max": [
        0.3038173317909241,
        1.0203074216842651,
        0
      ]
    },
    {
      "bufferView": 1,
      "byteOffset": 0,
      "componentType": 5126,
      "count": 264,
      "type": "VEC3",
      "min": [
        -0.014102023094892502,
        -0.020398221909999847,
        -0.033189836889505386
      ],
      "max": [
        0.01178806833922863,
        0.013433144427835941,
        0.05799266695976257
      ]
    },
    {
      "bufferView": 2,
      "byteOffset": 0,
      "componentType": 5126,
      "count": 1156,
      "type": "VEC3",
      "min": [
        -0.005099515896290541,
        -0.0030347779393196106,
        -0.04914083704352379
      ],
      "max": [
        0.04513096436858177,
        0.18435712158679962,
        0.10626689344644547
      ]
    },
    {
      "bufferView": 3,
      "byteOffset": 0,
      "componentType": 5126,
      "count": 2520,
      "type": "VEC3",
      "min": [
        -0.0030111593659967184,
        -0.002547181909903884,
        -0.3837853670120239
      ],
      "max": [
        0.17624303698539734,
        0.32982224225997925,
        0.36708343029022217
      ]
    },
    {
      "bufferView": 4,
      "byteOffset": 0,
      "componentType": 5126,
      "count": 862,
      "type": "VEC3",
      "min": [
        -0.0020292229019105434,
        -0.054971423000097275,
        -1.1061304807662964
      ],
      "max": [
        0.28300800919532776,
        0.16715764999389648,
        0.24695107340812683
      ]
    }
  ],
  "bufferViews": [
    {
      "buffer": 0,
      "byteOffset": 0,
      "byteLength": 16872,
      "target": 34962
    },
    {
      "buffer": 0,
      "byteOffset": 16872,
      "byteLength": 3168,
      "target": 34962
    },
    {
      "buffer": 0,
      "byteOffset": 20040,
      "byteLength": 13872,
      "target": 34962
    },
    {
      "buffer": 0,
      "byteOffset": 33912,
      "byteLength": 30240,
      "target": 34962
    },
    {
      "buffer": 0,
      "byteOffset": 64152,
      "byteLength": 10344,
      "target": 34962
    }
  ],
  "buffers": [
    {
      "byteLength": 74496,
      "uri": "data:application/octet-stream;base64,"
    }
  ]
}