{
  "asset": {
    "version": "2.0",
    "generator": "TES-23 Cosmic Ray Renderer"
  },
  "extensionsUsed": [
    "KHR_materials_unlit"
  ],
  "extensionsRequired": [
    "KHR_materials_unlit"
  ],
  "scene": 0,
  "scenes": [
    {
      "nodes": [
        0
      ]
    }
  ],
  "nodes": [
    {
      "name": "CosmicRayEvent",
      "mesh": 0
    }
  ],
  "meshes": [
    {
      "name": "CosmicRayEvent",
      "primitives": [
        {
          "attributes": {
            "POSITION": 0
          },
          "material": 0,
          "mode": 1
        },
        {
          "attributes": {
            "POSITION": 1
          },
          "material": 1,
          "mode": 1
        },
        {
          "attributes": {
            "POSITION": 2
          },
          "material": 2,
          "mode": 1
        },
        {
          "attributes": {
            "POSITION": 3
          },
          "material": 3,
          "mode": 1
        },
        {
          "attributes": {
            "POSITION": 4
          },
          "material": 4,
          "mode": 1
        }
      ]
    }
  ],
  "materials": [
    {
      "name": "primary",
      "extensions": {
        "KHR_materials_unlit": {}
      },
      "pbrMetallicRoughness": {
        "baseColorFactor": [
          0.961,
          0.961,
          0.961,
          1
        ],
        "metallicFactor": 0,
        "roughnessFactor": 1
      }
    },
    {
      "name": "vertex",
      "extensions": {
        "KHR_materials_unlit": {}
      },
      "pbrMetallicRoughness": {
        "baseColorFactor": [
          0.902,
          0.902,
          0.902,
          0.9
        ],
        "metallicFactor": 0,
        "roughnessFactor": 1
      }
    },
    {
      "name": "em",
      "extensions": {
        "KHR_materials_unlit": {}
      },
      "pbrMetallicRoughness": {
        "baseColorFactor": [
          0.471,
          0.824,
          1,
          1
        ],
        "metallicFactor": 0,
        "roughnessFactor": 1
      }
    },
    {
      "name": "hadron",
      "extensions": {
        "KHR_materials_unlit": {}
      },
      "pbrMetallicRoughness": {
        "baseColorFactor": [
          0.549,
          1,
          0.745,
          1
        ],
        "metallicFactor": 0,
        "roughnessFactor": 1
      }
    },
    {
      "name": "delta",
      "extensions": {
        "KHR_materials_unlit": {}
      },
      "pbrMetallicRoughness": {
        "baseColorFactor": [
          0.804,
          0.647,
          1,
          1
        ],
        "metallicFactor": 0,
        "roughnessFactor": 1
      }
    }
  ],
  "accessors": [
    {
      "bufferView": 0,
      "byteOffset": 0,
      "componentType": 5126,
      "count": 1368,
      "type": "VEC3",
      "min": [
        -1.0001132488250732,
        -0.17179696261882782,
        0
      ],
      "max": [
        1.0205755233764648,
        0.16871234774589539,
        0
      ]
    },
    {
      "bufferView": 1,
      "byteOffset": 0,
      "componentType": 5126,
      "count": 288,
      "type": "VEC3",
      "min": [
        -0.012840359471738338,
        -0.02013373002409935,
        -0.04430883005261421
      ],
      "max": [
        0.01095745712518692,
        0.01086900569498539,
        0.07892564684152603
      ]
    },
    {
      "bufferView": 2,
      "byteOffset": 0,
      "componentType": 5126,
      "count": 750,
      "type": "VEC3",
      "min": [
        -0.002697958145290613,
        -0.028903987258672714,
        -0.12625692784786224
      ],
      "max": [
        0.25675255060195923,
        0.003588718129321933,
        0.02383626252412796
      ]
    },
    {
      "bufferView": 3,
      "byteOffset": 0,
      "componentType": 5126,
      "count": 2230,
      "type": "VEC3",
      "min": [
        -0.003618318820372224,
        -0.11375826597213745,
        -0.20394574105739594
      ],
      "max": [
        0.33418792486190796,
        0.011455018073320389,
        0.7647392749786377
      ]
    },
    {
      "bufferView": 4,
      "byteOffset": 0,
      "componentType": 5126,
      "count": 900,
      "type": "VEC3",
      "min": [
        -0.1350298970937729,
        -0.08303291350603104,
        -0.5830878019332886
      ],
      "max": [
        0.1722865104675293,
        0.16820061206817627,
        1.3297176361083984
      ]
    }
  ],
  "bufferViews": [
    {
      "buffer": 0,
      "byteOffset": 0,
      "byteLength": 16416,
      "target": 34962
    },
    {
      "buffer": 0,
      "byteOffset": 16416,
      "byteLength": 3456,
      "target": 34962
    },
    {
      "buffer": 0,
      "byteOffset": 19872,
      "byteLength": 9000,
      "target": 34962
    },
    {
      "buffer": 0,
      "byteOffset": 28872,
      "byteLength": 26760,
      "target": 34962
    },
    {
      "buffer": 0,
      "byteOffset": 55632,
      "byteLength": 10800,
      "target": 34962
    }
  ],
  "buffers": [
    {
      "byteLength": 66432,
      "uri": "data:application/octet-stream;base64,"
    }
  ]
}