<?xml version="1.0" encoding="UTF-8"?>
<svg xmlns="http://www.w3.org/2000/svg" width="2000" height="2000" viewBox="0 0 2000 2000">
<g fill="none" stroke-linecap="round" stroke-linejoin="round">
  <path d="M 996.95 996.11 L 994.33 994.10 L 991.69 992.13 L 989.10 990.14 L 986.52 988.14 L 983.91 986.20 L 981.31 984.27 L 978.74 982.33 L 976.23 980.33 L 973.70 978.38 L 971.16 976.45 L 968.66 974.51 L 966.14 972.59 L 963.67 970.64 L 961.18 968.74 L 958.76 966.77 L 956.39 964.76 L 954.05 962.74 L 951.69 960.74 L 949.34 958.76 L 947.02 956.78 L 944.73 954.77 L 942.45 952.76 L 940.19 950.75 L 937.93 948.77 L 935.64 946.82 L 933.38 944.87 L 931.13 942.92 L 928.89 940.99 L 926.68 939.04 L 924.47 937.09 L 922.28 935.15 L 920.08 933.24 L 917.88 931.34 L 915.72 929.42 L 913.56 927.52 L 911.43 925.58 L 909.30 923.69 L 907.19 921.77 L 905.15 919.80 L 903.17 917.79 L 901.20 915.78 L 899.21 913.81 L 897.19 911.89 L 895.19 909.95 L 893.24 907.99 L 891.28 906.06 L 889.30 904.15 L 887.33 902.26 L 885.30 900.43 L 883.25 898.66 L 881.21 896.89 L 879.16 895.14 L 877.14 893.38 L 875.11 891.64 L 873.13 889.88 L 871.19 888.07" stroke="rgb(120,210,255)" stroke-opacity="0.773" stroke-width="1.32" />
  <path d="M 1001.03 997.93 L 998.35 996.11 L 995.65 994.34 L 992.95 992.60 L 990.23 990.91 L 987.56 989.17 L 984.90 987.43 L 982.21 985.76 L 979.57 984.05 L 976.93 982.34 L 974.33 980.60 L 971.75 978.87 L 969.15 977.17 L 966.58 975.46 L 964.04 973.73 L 961.49 972.02 L 958.96 970.32 L 956.44 968.63 L 953.93 966.92 L 951.46 965.20 L 948.97 963.52 L 946.52 961.80 L 944.04 960.15 L 941.61 958.44 L 939.22 956.71 L 936.83 954.99 L 934.43 953.30 L 932.02 951.66 L 929.62 950.02 L 927.23 948.38 L 924.86 946.74 L 922.50 945.09 L 920.17 943.44 L 917.84 941.79 L 915.53 940.14 L 913.27 938.44 L 911.05 936.71" stroke="rgb(120,210,255)" stroke-opacity="0.772" stroke-width="1.31" />
  <path d="M 889.30 904.15 L 886.25 902.89 L 883.24 901.54 L 880.24 900.22 L 877.23 898.97 L 874.24 897.69 L 871.24 896.46 L 868.26 895.21 L 865.35 893.86 L 862.48 892.43 L 859.59 891.10 L 856.69 889.79" stroke="rgb(120,210,255)" stroke-opacity="0.771" stroke-width="1.31" />
  <path d="M 999.98 1000.09 L 997.38 998.17 L 994.83 996.21 L 992.23 994.33 L 989.65 992.44 L 987.10 990.54 L 984.54 988.67 L 982.04 986.74 L 979.53 984.84 L 977.03 982.96 L 974.52 981.11 L 971.95 979.36 L 969.36 977.66 L 966.82 975.92 L 964.30 974.17 L 961.83 972.37 L 959.35 970.60 L 956.87 968.84 L 954.37 967.16 L 951.81 965.58 L 949.29 963.95 L 946.77 962.34 L 944.30 960.70 L 941.84 959.05 L 939.42 957.37 L 936.98 955.72 L 934.57 954.07 L 932.15 952.44 L 929.75 950.81 L 927.37 949.16 L 925.02 947.50 L 922.64 945.91 L 920.26 944.32 L 917.91 942.72 L 915.59 941.09 L 913.31 939.43 L 911.07 937.74 L 908.87 936.00 L 906.72 934.23 L 904.58 932.45 L 902.47 930.67 L 900.41 928.84 L 898.33 927.05 L 896.26 925.27" stroke="rgb(120,210,255)" stroke-opacity="0.771" stroke-width="1.31" />
  <path d="M 999.90 999.06 L 997.04 997.12 L 994.19 995.19 L 991.35 993.28 L 988.51 991.38 L 985.68 989.49 L 982.82 987.68 L 979.98 985.85 L 977.17 984.00 L 974.40 982.14 L 971.65 980.25 L 968.88 978.41 L 966.10 976.63 L 963.35 974.82 L 960.62 972.99 L 957.89 971.20 L 955.13 969.48 L 952.35 967.81 L 949.57 966.17 L 946.77 964.58 L 944.00 962.98 L 941.23 961.39 L 938.49 959.78 L 935.79 958.14 L 933.11 956.48 L 930.44 954.83 L 927.80 953.16 L 925.12 951.56 L 922.47 949.96 L 919.86 948.30 L 917.24 946.70 L 914.63 945.08 L 912.02 943.50 L 909.39 941.97 L 906.78 940.44 L 904.18 938.92 L 901.59 937.40 L 899.00 935.90 L 896.43 934.38 L 893.88 932.87 L 891.33 931.37 L 888.80 929.87 L 886.28 928.37 L 883.78 926.86 L 881.27 925.40 L 878.77 923.92 L 876.27 922.48 L 873.81 921.00 L 871.38 919.48 L 868.95 917.99 L 866.53 916.51 L 864.10 915.05 L 861.70 913.58 L 859.32 912.10 L 856.96 910.60 L 854.59 909.14 L 852.24 907.68 L 849.88 906.24 L 847.53 904.81 L 845.20 903.37 L 842.88 901.94 L 840.59 900.47 L 838.30 899.03 L 836.04 897.56 L 833.81 896.06 L 831.59 894.57 L 829.38 893.09 L 827.19 891.59 L 825.02 890.08 L 822.86 888.59 L 820.72 887.07 L 818.59 885.56 L 816.47 884.05 L 814.36 882.55 L 812.25 881.07 L 810.17 879.56 L 808.09 878.07" stroke="rgb(120,210,255)" stroke-opacity="0.771" stroke-width="1.31" />
  <path d="M 998.41 994.92 L 995.61 993.08 L 992.83 991.26 L 990.01 989.51 L 987.20 987.77 L 984.38 986.08" stroke="rgb(120,210,255)" stroke-opacity="0.771" stroke-width="1.31" />
  <path d="M 999.53 1001.29 L 996.86 999.38 L 994.20 997.48 L 991.59 995.53 L 988.98 993.62 L 986.36 991.73 L 983.74 989.85 L 981.14 987.98 L 978.54 986.13 L 975.92 984.34 L 973.33 982.51" stroke="rgb(120,210,255)" stroke-opacity="0.770" stroke-width="1.31" />
  <path d="M 906.53 938.88 L 903.23 938.21 L 899.97 937.46 L 896.71 936.71 L 893.50 935.87 L 890.30 935.02 L 887.12 934.14 L 883.94 933.30 L 880.80 932.40 L 877.66 931.52 L 874.53 930.64 L 871.43 929.75 L 868.34 928.82 L 865.28 927.88 L 862.23 926.94 L 859.21 925.92 L 856.20 924.93 L 853.20 923.97 L 850.20 923.01 L 847.22 922.04 L 844.23 921.16 L 841.26 920.25 L 838.29 919.40 L 835.33 918.55 L 832.39 917.67 L 829.46 916.80 L 826.53 915.96 L 823.62 915.11 L 820.70 914.33 L 817.81 913.52 L 814.93 912.69 L 812.06 911.87 L 809.20 911.05 L 806.35 910.25 L 803.51 909.45 L 800.69 908.64 L 797.89 907.82 L 795.10 906.98" stroke="rgb(120,210,255)" stroke-opacity="0.760" stroke-width="1.28" />
  <path d="M 996.50 999.60 L 993.94 997.81 L 991.38 996.04 L 988.83 994.27 L 986.31 992.50 L 983.78 990.75 L 981.28 988.99 L 978.74 987.30 L 976.27 985.54 L 973.79 983.80 L 971.29 982.12 L 968.80 980.44 L 966.27 978.86 L 963.73 977.30 L 961.20 975.76 L 958.69 974.20 L 956.20 972.63 L 953.72 971.08 L 951.19 969.62 L 948.66 968.20 L 946.08 966.89 L 943.50 965.61 L 940.95 964.29 L 938.36 963.06 L 935.78 961.87 L 933.21 960.66 L 930.64 959.48 L 928.08 958.31 L 925.58 957.05 L 923.09 955.78 L 920.57 954.61 L 918.09 953.38 L 915.61 952.16 L 913.14 950.97 L 910.70 949.73 L 908.28 948.48 L 905.84 947.28 L 903.41 946.11 L 900.98 944.95 L 898.53 943.84 L 896.12 942.69 L 893.75 941.49 L 891.38 940.30 L 889.02 939.12 L 886.68 937.93" stroke="rgb(120,210,255)" stroke-opacity="0.759" stroke-width="1.28" />
  <path d="M 1002.01 999.72 L 999.39 998.15 L 996.78 996.58 L 994.15 995.05 L 991.52 993.57 L 988.88 992.11 L 986.25 990.68 L 983.63 989.24 L 981.09 987.70 L 978.59 986.11 L 976.14 984.47 L 973.69 982.84 L 971.26 981.21 L 968.84 979.59 L 966.44 977.96 L 964.06 976.31 L 961.69 974.67 L 959.27 973.13 L 956.86 971.59 L 954.43 970.12 L 952.08 968.54 L 949.74 966.95 L 947.39 965.40 L 945.05 963.87 L 942.70 962.37 L 940.37 960.86 L 937.98 959.46 L 935.58 958.11 L 933.22 956.70 L 930.93 955.21 L 928.64 953.73 L 926.34 952.30 L 924.09 950.80 L 921.84 949.33 L 919.64 947.80 L 917.49 946.21 L 915.30 944.71 L 913.12 943.20 L 910.92 941.75 L 908.72 940.31 L 906.53 938.88 L 904.34 937.48 L 902.16 936.06 L 900.03 934.60 L 897.90 933.15 L 895.77 931.73 L 893.60 930.37 L 891.42 929.07 L 889.26 927.74 L 887.08 926.48 L 884.87 925.27" stroke="rgb(120,210,255)" stroke-opacity="0.564" stroke-width="1.26" />
  <path d="M 921.84 949.33 L 919.91 947.30 L 918.06 945.22 L 916.26 943.11 L 914.40 941.07 L 912.68 938.91 L 911.13 936.65 L 909.54 934.43 L 907.93 932.24 L 906.38 930.02 L 904.79 927.84 L 903.17 925.70 L 901.66 923.49 L 900.15 921.29 L 898.57 919.16 L 897.02 917.01 L 895.35 914.97 L 893.62 913.00 L 891.89 911.05 L 890.12 909.14 L 888.40 907.21 L 886.59 905.36 L 884.79 903.52 L 883.04 901.66 L 881.22 899.86 L 879.33 898.18 L 877.48 896.44 L 875.58 894.79 L 873.68 893.14 L 871.76 891.54 L 869.84 889.96 L 867.92 888.39 L 866.00 886.84 L 864.13 885.24 L 862.26 883.65 L 860.34 882.15 L 858.48 880.58 L 856.59 879.07 L 854.65 877.63 L 852.69 876.26 L 850.75 874.85 L 848.88 873.37 L 847.04 871.87 L 845.21 870.38 L 843.41 868.86 L 841.54 867.44 L 839.72 865.99 L 837.93 864.50 L 836.14 863.03 L 834.33 861.60 L 832.53 860.17 L 830.69 858.81 L 828.90 857.40 L 827.20 855.89 L 825.43 854.48 L 823.72 853.02 L 822.01 851.57 L 820.29 850.14 L 818.49 848.83 L 816.66 847.58" stroke="rgb(120,210,255)" stroke-opacity="0.551" stroke-width="1.22" />
  <path d="M 996.37 998.52 L 993.87 997.14 L 991.45 995.65 L 988.99 994.24 L 986.52 992.86 L 984.08 991.47 L 981.67 990.03 L 979.36 988.48 L 977.10 986.86 L 974.82 985.29 L 972.61 983.64 L 970.49 981.90 L 968.37 980.17 L 966.21 978.51 L 964.08 976.83 L 961.96 975.15 L 959.83 973.51 L 957.75 971.83 L 955.75 970.06 L 953.75 968.30 L 951.85 966.46 L 949.91 964.68 L 948.02 962.85 L 946.21 960.96 L 944.37 959.11 L 942.55 957.26 L 940.70 955.46 L 938.77 953.76 L 936.79 952.12 L 934.82 950.50 L 932.83 948.91 L 930.84 947.34 L 928.87 945.76 L 926.93 944.17 L 925.00 942.57 L 923.05 941.02 L 921.17 939.40 L 919.33 937.75 L 917.48 936.12 L 915.63 934.50 L 913.78 932.90 L 911.92 931.34 L 910.00 929.86 L 908.10 928.37 L 906.20 926.89 L 904.29 925.44 L 902.38 924.01 L 900.45 922.62 L 898.55 921.21 L 896.68 919.78 L 894.85 918.31 L 893.08 916.78 L 891.34 915.23 L 889.61 913.68 L 887.90 912.14 L 886.14 910.65" stroke="rgb(120,210,255)" stroke-opacity="0.548" stroke-width="1.21" />
  <path d="M 913.12 943.20 L 911.26 941.38 L 909.39 939.57 L 907.55 937.75 L 905.61 936.06 L 903.71 934.33 L 901.67 932.78 L 899.61 931.29 L 897.61 929.72 L 895.72 928.06 L 893.82 926.40 L 891.97 924.71 L 890.22 922.93 L 888.51 921.12 L 886.83 919.30 L 885.23 917.43 L 883.73 915.48 L 882.22 913.56 L 880.70 911.65 L 879.22 909.73 L 877.74 907.82 L 876.36 905.85 L 875.02 903.86 L 873.79 901.81 L 872.61 899.74 L 871.41 897.70 L 870.14 895.71 L 868.79 893.79 L 867.41 891.90 L 866.16 889.93 L 864.94 887.95 L 863.77 885.95 L 862.70 883.91 L 861.61 881.90" stroke="rgb(120,210,255)" stroke-opacity="0.537" stroke-width="1.17" />
  <path d="M 1004.78 999.06 L 1002.92 997.83 L 1001.07 996.62 L 999.16 995.51 L 997.24 994.44 L 995.27 993.49 L 993.34 992.48 L 991.36 991.59 L 989.38 990.71 L 987.42 989.82 L 985.43 989.01 L 983.47 988.17 L 981.46 987.46 L 979.47 986.74 L 977.47 986.06 L 975.46 985.44 L 973.44 984.89 L 971.48 984.17 L 969.54 983.41 L 967.72 982.44" stroke="rgb(120,210,255)" stroke-opacity="0.509" stroke-width="1.07" />
  <path d="M 1999.66 1688.15 L 1997.09 1686.64 L 1995.07 1685.02 L 1992.67 1682.90 L 1989.62 1681.52 L 1987.66 1679.61 L 1985.16 1678.08 L 1982.43 1675.82 L 1980.38 1674.33 L 1977.24 1673.14 L 1975.09 1671.40 L 1973.00 1669.74 L 1970.12 1667.78 L 1967.39 1666.37 L 1965.35 1664.27 L 1963.01 1663.05 L 1960.59 1661.06 L 1958.28 1659.44 L 1955.40 1657.89 L 1952.97 1656.01 L 1950.45 1654.18 L 1948.11 1653.05 L 1945.55 1650.25 L 1942.99 1649.00 L 1940.78 1647.08 L 1938.09 1645.49 L 1935.47 1644.30 L 1933.47 1642.37 L 1930.54 1640.81 L 1928.54 1639.01 L 1926.01 1637.25 L 1923.38 1635.43 L 1920.62 1633.73 L 1918.73 1632.25 L 1915.53 1630.15 L 1913.63 1629.11 L 1910.51 1626.95 L 1908.62 1625.06 L 1906.11 1623.52 L 1903.42 1622.01 L 1901.72 1620.14 L 1898.55 1618.49 L 1896.25 1616.98 L 1893.78 1615.11 L 1891.46 1613.45 L 1889.02 1612.06 L 1886.40 1609.84 L 1884.01 1608.47 L 1881.01 1606.58 L 1879.28 1605.09 L 1876.73 1603.16 L 1874.45 1601.54 L 1871.79 1599.66 L 1868.84 1598.19 L 1866.56 1596.18 L 1864.15 1594.82 L 1861.44 1593.33 L 1859.41 1591.08 L 1856.74 1589.12 L 1853.95 1588.18 L 1851.83 1586.62 L 1849.43 1584.53 L 1846.88 1582.56 L 1844.21 1580.89 L 1841.69 1579.29 L 1839.46 1577.78 L 1837.01 1575.69 L 1834.58 1574.67 L 1831.71 1572.54 L 1829.11 1571.17 L 1827.07 1569.03 L 1824.71 1567.79 L 1822.05 1565.73 L 1819.91 1564.25 L 1816.85 1562.70 L 1815.08 1560.76 L 1812.28 1559.37 L 1809.70 1557.75 L 1807.75 1555.82 L 1804.75 1553.70 L 1802.27 1552.18 L 1800.07 1550.46 L 1797.56 1548.78 L 1794.83 1547.13 L 1792.27 1545.64 L 1789.64 1543.68 L 1787.49 1541.87 L 1785.14 1540.21 L 1782.46 1538.74 L 1780.33 1537.23 L 1777.25 1535.41 L 1775.01 1533.35 L 1772.51 1532.06 L 1770.14 1529.99 L 1767.77 1528.26 L 1765.36 1526.72 L 1762.57 1524.89 L 1760.31 1523.02 L 1757.84 1522.01 L 1755.36 1519.76 L 1752.87 1518.19 L 1750.61 1516.61 L 1747.98 1514.98 L 1745.35 1512.83 L 1743.20 1511.33 L 1740.40 1509.80 L 1737.75 1508.22 L 1735.39 1506.09 L 1733.35 1504.64 L 1730.88 1503.11 L 1728.18 1501.11 L 1725.58 1499.54 L 1723.11 1497.85 L 1720.96 1496.01 L 1718.45 1494.53 L 1715.72 1492.90 L 1713.27 1491.06 L 1710.76 1489.18 L 1708.40 1487.70 L 1705.66 1485.74 L 1703.76 1484.34 L 1701.12 1482.73 L 1698.52 1480.51 L 1696.04 1478.80 L 1693.92 1477.10 L 1691.35 1475.56 L 1688.65 1473.91 L 1686.36 1472.61 L 1683.81 1470.26 L 1681.17 1468.77 L 1678.84 1466.96 L 1676.28 1465.25 L 1674.25 1463.84 L 1670.86 1462.30 L 1669.13 1460.25 L 1666.33 1459.00 L 1663.79 1457.04 L 1661.12 1455.54 L 1658.79 1453.27 L 1656.55 1451.96 L 1653.70 1450.22 L 1651.59 1448.36 L 1649.14 1446.60 L 1646.63 1445.08 L 1644.35 1443.12 L 1641.14 1441.71 L 1638.99 1439.65 L 1636.59 1438.29 L 1634.28 1436.31 L 1632.02 1434.89 L 1628.91 1433.46 L 1626.74 1431.27 L 1624.87 1429.73 L 1621.84 1428.08 L 1619.06 1426.28 L 1616.89 1424.75 L 1614.29 1423.14 L 1611.81 1421.12 L 1609.51 1419.61 L 1607.12 1417.80 L 1604.45 1416.24 L 1601.73 1414.43 L 1599.59 1412.61 L 1597.12 1411.00 L 1594.47 1409.68 L 1592.18 1407.91 L 1589.78 1405.75 L 1587.11 1404.04 L 1584.34 1401.82 L 1582.48 1400.84 L 1580.18 1398.72 L 1577.48 1397.60 L 1574.97 1395.47 L 1572.42 1394.42 L 1570.42 1392.27 L 1567.47 1390.64 L 1564.83 1388.98 L 1562.74 1386.80 L 1560.07 1385.43 L 1557.97 1383.50 L 1554.81 1381.89 L 1552.94 1380.34 L 1550.12 1378.81 L 1547.80 1377.37 L 1545.15 1375.40 L 1542.79 1373.75 L 1540.78 1372.18 L 1537.89 1370.33 L 1535.46 1368.37 L 1533.21 1366.67 L 1530.24 1365.30 L 1527.85 1363.36 L 1525.22 1361.95 L 1523.02 1360.31 L 1520.73 1358.69 L 1517.85 1356.80 L 1516.12 1354.77 L 1513.39 1353.05 L 1510.49 1351.58 L 1507.93 1349.61 L 1505.82 1348.52 L 1503.58 1346.54 L 1501.10 1344.51 L 1498.32 1342.95 L 1495.80 1341.37 L 1493.36 1339.56 L 1490.87 1337.62 L 1488.81 1336.24 L 1486.19 1334.68 L 1483.51 1332.75 L 1481.08 1330.99 L 1478.57 1329.10 L 1476.04 1327.75 L 1473.24 1325.83 L 1471.13 1324.33 L 1468.68 1322.55 L 1466.59 1321.18 L 1463.71 1319.49 L 1461.31 1317.47 L 1458.93 1315.93 L 1456.08 1314.17 L 1454.00 1312.50 L 1451.24 1310.79 L 1448.72 1309.26 L 1446.31 1307.39 L 1444.35 1305.33 L 1441.96 1303.88 L 1439.07 1301.93 L 1436.62 1300.42 L 1434.41 1298.75 L 1431.77 1296.88 L 1428.93 1295.56 L 1426.65 1293.73 L 1424.43 1291.85 L 1421.95 1290.07 L 1419.35 1288.39 L 1416.91 1287.29 L 1414.01 1285.60 L 1412.12 1283.31 L 1409.31 1281.91 L 1407.02 1280.55 L 1404.11 1278.27 L 1401.46 1276.82 L 1399.82 1275.10 L 1397.00 1273.03 L 1394.92 1271.59 L 1392.18 1269.91 L 1389.52 1268.15 L 1387.13 1266.46 L 1384.46 1264.88 L 1382.18 1263.01 L 1379.48 1261.45 L 1377.45 1259.81 L 1374.26 1257.99 L 1372.24 1256.10 L 1370.01 1254.77 L 1367.31 1252.70 L 1365.10 1251.10 L 1362.34 1249.25 L 1359.86 1247.38 L 1357.41 1246.06 L 1354.95 1244.12 L 1352.55 1242.51 L 1349.90 1240.74 L 1348.13 1239.43 L 1345.43 1237.65 L 1343.16 1236.21 L 1340.10 1233.97 L 1337.28 1232.37 L 1334.95 1230.58 L 1332.29 1229.35 L 1330.30 1226.88 L 1327.94 1225.47 L 1325.14 1223.57 L 1322.83 1222.45 L 1320.14 1220.62 L 1318.05 1218.70 L 1315.60 1216.72 L 1313.18 1215.58 L 1310.76 1213.70 L 1308.33 1212.11 L 1305.54 1210.04 L 1303.15 1208.42 L 1300.60 1207.16 L 1298.61 1205.17 L 1295.48 1203.19 L 1293.21 1201.77 L 1290.94 1199.84 L 1288.50 1198.68 L 1285.69 1197.05 L 1283.59 1194.53 L 1280.47 1193.65 L 1278.53 1191.79 L 1275.98 1189.74 L 1273.75 1187.77 L 1270.62 1186.68 L 1268.17 1184.93 L 1266.26 1183.25 L 1263.75 1181.78 L 1261.33 1179.63 L 1258.62 1177.78 L 1256.21 1176.11 L 1253.63 1174.19 L 1251.54 1172.85 L 1248.72 1171.39 L 1246.49 1169.81 L 1244.22 1167.80 L 1241.24 1166.34 L 1239.01 1164.45 L 1236.22 1162.78 L 1233.79 1161.19 L 1231.45 1159.31 L 1229.28 1157.47 L 1226.70 1155.97 L 1223.93 1154.37 L 1221.32 1152.73 L 1219.14 1150.65 L 1216.71 1149.19 L 1214.15 1147.39 L 1211.28 1145.48 L 1209.11 1143.76 L 1206.96 1142.15 L 1204.00 1140.46 L 1201.56 1138.63 L 1199.42 1137.39 L 1196.48 1135.32 L 1194.51 1133.81 L 1191.87 1132.09 L 1189.38 1130.22 L 1186.72 1128.63 L 1184.45 1127.06 L 1182.07 1125.45 L 1179.58 1123.68 L 1176.91 1122.14 L 1174.72 1120.28 L 1172.19 1118.32 L 1169.73 1116.87 L 1167.59 1115.13 L 1164.98 1113.48 L 1162.26 1111.72 L 1159.32 1109.56 L 1157.41 1108.65 L 1154.78 1106.77 L 1152.72 1104.65 L 1149.84 1102.94 L 1147.58 1101.42 L 1145.01 1099.52 L 1142.93 1098.00 L 1139.99 1096.48 L 1137.52 1094.56 L 1135.13 1093.05 L 1132.73 1091.05 L 1129.82 1089.71 L 1127.32 1088.20 L 1124.93 1086.16 L 1122.52 1084.64 L 1120.42 1082.93 L 1117.99 1081.51 L 1115.10 1079.27 L 1112.75 1077.91 L 1110.59 1075.90 L 1107.59 1074.50 L 1105.27 1071.94 L 1103.44 1070.86 L 1100.36 1069.07 L 1098.46 1067.44 L 1095.30 1065.89 L 1093.06 1063.94 L 1090.64 1062.09 L 1088.28 1060.56 L 1085.53 1058.92 L 1083.13 1057.15 L 1080.64 1055.70 L 1078.32 1053.77 L 1075.67 1052.06 L 1073.51 1050.49 L 1070.78 1048.78 L 1068.67 1046.85 L 1065.82 1045.62 L 1063.28 1043.81 L 1060.99 1042.33 L 1058.48 1040.24 L 1056.07 1038.43 L 1053.11 1037.09 L 1051.47 1034.94 L 1048.53 1033.38 L 1046.04 1031.31 L 1043.61 1029.94 L 1041.19 1028.02 L 1038.71 1026.91 L 1036.16 1024.95 L 1033.73 1023.02 L 1031.29 1021.52 L 1028.82 1019.79 L 1026.13 1017.84 L 1023.60 1016.55 L 1021.42 1014.93 L 1018.81 1012.69 L 1016.20 1011.49 L 1014.00 1009.65 L 1011.53 1007.98 L 1008.76 1005.95 L 1006.82 1004.75 L 1004.26 1003.02 L 1001.47 1001.17 L 1000.00 1000.00 L 997.55 998.27 L 995.11 996.52 L 992.69 994.74 L 990.30 992.94 L 987.86 991.20 L 985.39 989.48 L 982.98 987.71 L 980.55 985.94 L 978.10 984.21 L 975.68 982.44 L 973.25 980.69 L 970.80 978.95 L 968.36 977.20 L 965.92 975.45 L 963.45 973.76 L 960.96 972.09 L 958.49 970.38 L 956.04 968.64 L 953.58 966.94 L 951.09 965.25 L 948.66 963.49 L 946.21 961.76 L 943.77 960.02 L 941.32 958.29 L 938.90 956.51 L 936.46 954.77 L 934.03 953.01 L 931.60 951.25 L 929.22 949.43 L 926.84 947.60 L 924.43 945.81 L 922.01 944.04 L 919.62 942.23 L 917.23 940.41 L 914.79 938.66 L 912.38 936.88 L 909.90 935.19 L 907.44 933.48 L 904.98 931.75 L 902.52 930.05 L 900.10 928.26 L 897.63 926.57 L 895.18 924.84 L 892.72 923.12 L 890.27 921.38 L 887.83 919.64 L 885.35 917.96 L 882.86 916.27 L 880.37 914.60 L 877.86 912.97 L 875.36 911.31 L 872.90 909.59 L 870.42 907.90 L 867.96 906.18 L 865.48 904.50 L 862.97 902.85 L 860.46 901.21 L 857.95 899.57 L 855.44 897.93 L 852.93 896.27 L 850.45 894.59 L 848.00 892.86 L 845.52 891.18 L 843.06 889.46 L 840.61 887.72 L 838.15 886.00 L 835.70 884.28 L 833.22 882.59 L 830.75 880.89 L 828.24 879.24 L 825.75 877.57 L 823.32 875.80 L 820.89 874.06 L 818.48 872.27 L 816.06 870.49 L 813.61 868.76 L 811.18 867.00 L 808.78 865.20 L 806.33 863.47 L 803.86 861.76 L 801.40 860.04 L 798.95 858.32 L 796.44 856.68 L 793.92 855.05 L 791.41 853.41 L 788.87 851.80 L 786.33 850.21 L 783.78 848.64 L 781.22 847.06 L 778.67 845.49 L 776.10 843.93 L 773.51 842.42 L 770.92 840.91 L 768.35 839.37 L 765.81 837.77 L 763.26 836.19 L 760.69 834.64 L 758.10 833.12 L 755.54 831.57 L 752.95 830.04 L 750.33 828.58 L 747.66 827.21 L 745.00 825.83 L 742.35 824.42 L 739.72 822.99 L 737.08 821.56 L 734.43 820.15 L 731.79 818.73 L 729.14 817.31 L 726.51 815.88 L 723.89 814.42 L 721.28 812.93 L 718.65 811.50 L 716.02 810.05 L 713.42 808.56 L 710.81 807.07 L 708.19 805.60 L 705.58 804.14 L 702.95 802.69 L 700.37 801.16 L 697.82 799.58 L 695.29 797.96 L 692.72 796.41 L 690.17 794.83 L 687.61 793.27 L 685.04 791.73 L 682.47 790.18 L 679.98 788.50 L 677.53 786.77 L 675.08 785.04 L 672.69 783.23 L 670.29 781.43 L 667.91 779.60 L 665.49 777.83 L 663.07 776.06 L 660.62 774.33 L 658.12 772.67 L 655.61 771.02 L 653.10 769.38 L 650.59 767.74 L 648.06 766.12 L 645.56 764.47 L 643.04 762.84 L 640.52 761.21 L 637.97 759.63 L 635.47 757.98 L 632.96 756.33 L 630.44 754.69 L 627.95 753.03 L 625.46 751.35 L 622.99 749.65 L 620.50 747.97 L 618.04 746.27 L 615.59 744.52 L 613.16 742.76 L 610.71 741.04 L 608.27 739.30 L 605.80 737.59 L 603.35 735.86 L 600.87 734.17 L 598.38 732.50 L 595.85 730.88 L 593.31 729.28 L 590.76 727.70 L 588.24 726.07 L 585.76 724.40 L 583.27 722.72 L 580.83 720.98 L 578.39 719.22 L 575.97 717.46 L 573.57 715.66 L 571.16 713.87 L 568.76 712.06 L 566.30 710.35 L 563.82 708.66 L 561.33 706.98 L 558.86 705.29 L 556.40 703.57 L 553.90 701.91 L 551.40 700.25 L 548.89 698.61 L 546.42 696.91 L 544.01 695.12 L 541.62 693.31 L 539.18 691.56 L 536.77 689.77 L 534.37 687.98 L 532.01 686.12 L 529.62 684.31 L 527.20 682.53 L 524.77 680.78 L 522.33 679.04 L 519.87 677.32 L 517.38 675.65 L 514.89 673.97 L 512.44 672.24 L 510.01 670.48 L 507.54 668.77 L 505.06 667.08 L 502.59 665.39 L 500.15 663.64 L 497.75 661.84 L 495.38 660.00 L 493.02 658.15 L 490.61 656.36 L 488.23 654.53 L 485.89 652.66 L 483.50 650.84 L 481.13 649.00 L 478.75 647.18 L 476.31 645.43 L 473.84 643.73 L 471.36 642.04 L 468.85 640.39 L 466.36 638.72 L 463.86 637.07 L 461.31 635.49 L 458.74 633.95 L 456.14 632.45 L 453.52 630.98 L 450.88 629.55 L 448.26 628.10 L 445.63 626.66 L 442.97 625.26 L 440.30 623.89 L 437.69 622.42 L 435.09 620.91 L 432.51 619.38 L 429.94 617.84 L 427.39 616.26 L 424.85 614.66 L 422.31 613.07 L 419.77 611.47 L 417.25 609.84 L 414.75 608.18 L 412.29 606.47 L 409.84 604.74 L 407.39 603.00 L 404.96 601.24 L 402.60 599.40 L 400.24 597.54 L 397.91 595.65 L 395.58 593.76 L 393.23 591.90 L 390.90 590.01 L 388.58 588.11 L 386.29 586.17 L 384.00 584.23 L 381.73 582.27 L 379.46 580.31 L 377.15 578.39 L 374.86 576.45 L 372.53 574.56 L 370.21 572.67 L 367.86 570.79 L 365.52 568.92 L 363.11 567.14 L 360.72 565.33 L 358.33 563.51 L 355.96 561.67 L 353.67 559.73 L 351.36 557.82 L 349.07 555.88 L 346.80 553.92 L 344.55 551.93 L 342.30 549.95 L 340.04 547.97 L 337.77 546.01 L 335.52 544.03 L 333.30 542.02 L 331.13 539.94 L 329.01 537.82 L 326.93 535.66 L 324.79 533.55 L 322.61 531.49 L 320.40 529.47 L 318.19 527.43 L 315.99 525.40 L 313.83 523.32 L 311.66 521.25 L 309.48 519.18 L 307.28 517.14 L 305.13 515.05 L 302.99 512.95 L 300.78 510.92 L 298.55 508.92 L 296.26 506.97 L 293.95 505.06 L 291.58 503.23 L 289.19 501.41 L 286.83 499.56 L 284.47 497.70 L 282.09 495.88 L 279.67 494.11 L 277.30 492.26 L 274.96 490.38 L 272.59 488.55 L 270.20 486.73 L 267.83 484.90 L 265.42 483.11 L 263.03 481.30 L 260.67 479.45 L 258.30 477.61 L 255.89 475.82 L 253.46 474.06 L 251.05 472.27 L 248.64 470.48 L 246.22 468.72 L 243.79 466.95 L 241.32 465.25 L 238.87 463.52 L 236.44 461.76 L 233.97 460.06 L 231.47 458.39 L 228.97 456.75 L 226.47 455.09 L 223.97 453.43 L 221.46 451.79 L 218.93 450.18 L 216.43 448.51 L 213.90 446.90 L 211.39 445.25 L 208.90 443.59 L 206.34 442.02 L 203.79 440.44 L 201.23 438.87 L 198.67 437.30 L 196.13 435.72 L 193.55 434.18 L 191.03 432.55 L 188.53 430.90 L 186.02 429.24 L 183.49 427.65 L 180.94 426.05 L 178.42 424.43 L 175.92 422.78 L 173.43 421.10 L 170.92 419.46 L 168.40 417.83 L 165.89 416.18 L 163.39 414.53 L 160.86 412.92 L 158.30 411.35 L 155.76 409.75 L 153.20 408.18 L 150.66 406.60 L 148.14 404.97 L 145.62 403.34 L 143.08 401.74 L 140.58 400.09 L 138.08 398.42 L 135.54 396.83 L 133.01 395.21 L 130.46 393.63 L 127.91 392.06 L 125.38 390.45 L 122.84 388.85 L 120.31 387.24 L 117.77 385.64 L 115.23 384.04 L 112.71 382.42 L 110.24 380.72 L 107.77 379.01 L 105.29 377.32 L 102.82 375.61 L 100.34 373.93 L 97.86 372.24 L 95.36 370.58 L 92.85 368.94 L 90.31 367.35 L 87.73 365.82 L 85.14 364.30 L 82.57 362.76 L 80.00 361.21 L 77.41 359.70 L 74.83 358.16 L 72.29 356.57 L 69.72 355.02 L 67.12 353.51 L 64.53 352.01 L 61.95 350.48 L 59.36 348.96 L 56.77 347.45 L 54.18 345.94 L 51.62 344.37 L 49.05 342.82 L 46.48 341.28 L 43.92 339.70 L 41.41 338.06 L 38.86 336.48 L 36.29 334.93 L 33.73 333.37 L 31.17 331.82 L 28.58 330.29 L 25.97 328.82 L 23.35 327.37 L 20.75 325.86 L 18.17 324.32 L 15.64 322.72 L 13.09 321.13 L 10.50 319.63 L 7.87 318.17 L 5.23 316.76 L 2.59 315.32 L -0.00 313.82 L -2.56 312.25 L -5.12 310.69 L -7.66 309.09 L -10.23 307.54 L -12.80 305.99 L -15.36 304.43 L -17.92 302.87 L -20.47 301.28" stroke="rgb(245,245,245)" stroke-opacity="0.585" stroke-width="0.80" />
  <path d="M 994.17 1006.85 L 994.88 1005.53 L 995.49 1004.17 L 996.21 1002.86 L 996.84 1001.52 L 997.29 1000.11 L 997.90 998.78 L 998.52 997.45 L 999.11 996.12 L 999.69 994.79 L 1000.21 993.43 L 1000.80 992.12" stroke="rgb(230,230,230)" stroke-opacity="0.384" stroke-width="0.71" />
  <path d="M 1006.09 1007.41 L 1005.35 1008.71 L 1004.60 1010.01 L 1003.94 1011.34 L 1003.25 1012.65 L 1002.56 1013.96 L 1001.89 1015.27 L 1001.22 1016.57" stroke="rgb(230,230,230)" stroke-opacity="0.383" stroke-width="0.70" />
  <path d="M 1003.25 997.62 L 1002.30 998.79 L 1001.15 999.75 L 999.87 1000.50 L 998.71 1001.42 L 997.39 1002.08 L 996.00 1002.58" stroke="rgb(230,230,230)" stroke-opacity="0.379" stroke-width="0.69" />
  <path d="M 1002.66 997.27 L 1002.53 998.77 L 1002.40 1000.26 L 1002.11 1001.72 L 1001.77 1003.16 L 1001.56 1004.62 L 1001.34 1006.07 L 1001.13 1007.52 L 1000.96 1008.97 L 1000.80 1010.42 L 1000.64 1011.85 L 1000.52 1013.29 L 1000.41 1014.72 L 1000.28 1016.15 L 1000.20 1017.57 L 1000.13 1018.98" stroke="rgb(230,230,230)" stroke-opacity="0.379" stroke-width="0.69" />
  <path d="M 999.15 1000.84 L 997.65 1000.92 L 996.18 1001.18 L 994.70 1001.36 L 993.23 1001.49 L 991.75 1001.47 L 990.30 1001.26 L 988.91 1000.80 L 987.62 1000.12" stroke="rgb(230,230,230)" stroke-opacity="0.377" stroke-width="0.69" />
  <path d="M 996.73 999.96 L 996.81 1001.46 L 997.00 1002.94 L 997.15 1004.42 L 997.29 1005.89 L 997.37 1007.37 L 997.57 1008.82" stroke="rgb(230,230,230)" stroke-opacity="0.370" stroke-width="0.67" />
  <path d="M 1001.68 1000.59 L 1001.77 999.10 L 1001.85 997.60 L 1001.85 996.12 L 1001.75 994.64 L 1001.56 993.17 L 1001.21 991.74" stroke="rgb(230,230,230)" stroke-opacity="0.368" stroke-width="0.66" />
  <path d="M 995.14 1006.12 L 994.00 1005.15 L 992.76 1004.31 L 991.43 1003.64 L 990.06 1003.07 L 988.65 1002.63 L 987.26 1002.17 L 985.88 1001.67 L 984.48 1001.25 L 983.08 1000.87" stroke="rgb(230,230,230)" stroke-opacity="0.368" stroke-width="0.66" />
  <path d="M 1003.61 995.44 L 1002.36 994.61 L 1001.02 993.94 L 999.65 993.38 L 998.37 992.62 L 997.05 991.96 L 995.92 991.02 L 994.76 990.12" stroke="rgb(230,230,230)" stroke-opacity="0.368" stroke-width="0.66" />
  <path d="M 996.91 1003.00 L 995.47 1002.57 L 994.04 1002.16 L 992.60 1001.78 L 991.21 1001.26 L 989.85 1000.67 L 988.51 1000.09" stroke="rgb(230,230,230)" stroke-opacity="0.365" stroke-width="0.65" />
  <path d="M 1003.01 1001.62 L 1004.05 1002.69 L 1004.94 1003.90 L 1005.95 1004.99 L 1007.05 1005.98 L 1008.07 1007.05 L 1008.93 1008.24 L 1009.65 1009.52 L 1010.39 1010.77 L 1011.08 1012.05 L 1011.86 1013.27 L 1012.78 1014.38 L 1013.70 1015.48" stroke="rgb(230,230,230)" stroke-opacity="0.365" stroke-width="0.65" />
  <path d="M 1001.96 999.41 L 1002.73 998.12 L 1003.46 996.82 L 1004.18 995.51 L 1004.84 994.19 L 1005.54 992.89 L 1006.31 991.64" stroke="rgb(230,230,230)" stroke-opacity="0.363" stroke-width="0.65" />
  <path d="M 1001.98 999.08 L 1001.58 997.64 L 1001.37 996.16 L 1001.02 994.71 L 1001.02 993.23 L 1000.73 991.78 L 1000.51 990.33 L 1000.14 988.91 L 999.56 987.57 L 999.10 986.19" stroke="rgb(230,230,230)" stroke-opacity="0.363" stroke-width="0.65" />
  <path d="M 996.08 1000.51 L 995.63 999.08 L 995.05 997.70 L 994.52 996.31 L 993.88 994.97 L 993.40 993.58 L 992.83 992.22 L 992.36 990.84 L 991.96 989.43 L 991.59 988.03 L 991.14 986.65" stroke="rgb(230,230,230)" stroke-opacity="0.357" stroke-width="0.63" />
  <path d="M 999.55 999.18 L 1000.61 1000.24 L 1001.61 1001.35" stroke="rgb(230,230,230)" stroke-opacity="0.356" stroke-width="0.63" />
  <path d="M 1002.09 995.51 L 1002.07 994.01 L 1001.86 992.53 L 1001.71 991.05 L 1001.63 989.57 L 1001.49 988.10 L 1001.24 986.66 L 1000.91 985.23 L 1000.80 983.77 L 1000.66 982.33 L 1000.64 980.88" stroke="rgb(230,230,230)" stroke-opacity="0.353" stroke-width="0.62" />
  <path d="M 996.54 994.99 L 997.89 994.32 L 999.33 993.92 L 1000.75 993.49 L 1002.13 992.95" stroke="rgb(230,230,230)" stroke-opacity="0.352" stroke-width="0.62" />
  <path d="M 998.92 994.90 L 997.50 994.43 L 996.04 994.10 L 994.56 993.93 L 993.10 993.65 L 991.64 993.45 L 990.18 993.26 L 988.74 992.99 L 987.30 992.77 L 985.87 992.51 L 984.46 992.20 L 983.06 991.86 L 981.70 991.40 L 980.41 990.79 L 979.03 990.41" stroke="rgb(230,230,230)" stroke-opacity="0.351" stroke-width="0.61" />
</g>
</svg>
