{
  "asset": {
    "version": "2.0",
    "generator": "TES-23 Cosmic Ray Renderer"
  },
  "extensionsUsed": [
    "KHR_materials_unlit"
  ],
  "extensionsRequired": [
    "KHR_materials_unlit"
  ],
  "scene": 0,
  "scenes": [
    {
      "nodes": [
        0
      ]
    }
  ],
  "nodes": [
    {
      "name": "CosmicRayEvent",
      "mesh": 0
    }
  ],
  "meshes": [
    {
      "name": "CosmicRayEvent",
      "primitives": [
        {
          "attributes": {
            "POSITION": 0
          },
          "material": 0,
          "mode": 1
        },
        {
          "attributes": {
            "POSITION": 1
          },
          "material": 1,
          "mode": 1
        },
        {
          "attributes": {
            "POSITION": 2
          },
          "material": 2,
          "mode": 1
        },
        {
          "attributes": {
            "POSITION": 3
          },
          "material": 3,
          "mode": 1
        },
        {
          "attributes": {
            "POSITION": 4
          },
          "material": 4,
          "mode": 1
        }
      ]
    }
  ],
  "materials": [
    {
      "name": "primary",
      "extensions": {
        "KHR_materials_unlit": {}
      },
      "pbrMetallicRoughness": {
        "baseColorFactor": [
          0.961,
          0.961,
          0.961,
          1
        ],
        "metallicFactor": 0,
        "roughnessFactor": 1
      }
    },
    {
      "name": "vertex",
      "extensions": {
        "KHR_materials_unlit": {}
      },
      "pbrMetallicRoughness": {
        "baseColorFactor": [
          0.902,
          0.902,
          0.902,
          0.9
        ],
        "metallicFactor": 0,
        "roughnessFactor": 1
      }
    },
    {
      "name": "em",
      "extensions": {
        "KHR_materials_unlit": {}
      },
      "pbrMetallicRoughness": {
        "baseColorFactor": [
          0.471,
          0.824,
          1,
          1
        ],
        "metallicFactor": 0,
        "roughnessFactor": 1
      }
    },
    {
      "name": "hadron",
      "extensions": {
        "KHR_materials_unlit": {}
      },
      "pbrMetallicRoughness": {
        "baseColorFactor": [
          0.549,
          1,
          0.745,
          1
        ],
        "metallicFactor": 0,
        "roughnessFactor": 1
      }
    },
    {
      "name": "delta",
      "extensions": {
        "KHR_materials_unlit": {}
      },
      "pbrMetallicRoughness": {
        "baseColorFactor": [
          0.804,
          0.647,
          1,
          1
        ],
        "metallicFactor": 0,
        "roughnessFactor": 1
      }
    }
  ],
  "accessors": [
    {
      "bufferView": 0,
      "byteOffset": 0,
      "componentType": 5126,
      "count": 1698,
      "type": "VEC3",
      "min": [
        -0.7641111612319946,
        -1.0001882314682007,
        0
      ],
      "max": [
        0.7837650179862976,
        1.0206763744354248,
        0
      ]
    },
    {
      "bufferView": 1,
      "byteOffset": 0,
      "componentType": 5126,
      "count": 294,
      "type": "VEC3",
      "min": [
        -0.021139569580554962,
        -0.018864547833800316,
        -0.05234024301171303
      ],
      "max": [
        0.009301737882196903,
        0.017928216606378555,
        0.04739418625831604
      ]
    },
    {
      "bufferView": 2,
      "byteOffset": 0,
      "componentType": 5126,
      "count": 1236,
      "type": "VEC3",
      "min": [
        -0.002614992205053568,
        -0.003152902703732252,
        -0.23889203369617462
      ],
      "max": [
        0.20518387854099274,
        0.28208744525909424,
        0.07278798520565033
      ]
    },
    {
      "bufferView": 3,
      "byteOffset": 0,
      "componentType": 5126,
      "count": 2860,
      "type": "VEC3",
      "min": [
        -0.004828221630305052,
        -0.004329591523855925,
        -0.17698220908641815
      ],
      "max": [
        0.2566779553890228,
        0.27143996953964233,
        0.4865614175796509
      ]
    },
    {
      "bufferView": 4,
      "byteOffset": 0,
      "componentType": 5126,
      "count": 784,
      "type": "VEC3",
      "min": [
        -0.00188212760258466,
        -0.00046521940384991467,
        -0.18052485585212708
      ],
      "max": [
        0.12370615452528,
        0.2097603976726532,
        0.29364535212516785
      ]
    }
  ],
  "bufferViews": [
    {
      "buffer": 0,
      "byteOffset": 0,
      "byteLength": 20376,
      "target": 34962
    },
    {
      "buffer": 0,
      "byteOffset": 20376,
      "byteLength": 3528,
      "target": 34962
    },
    {
      "buffer": 0,
      "byteOffset": 23904,
      "byteLength": 14832,
      "target": 34962
    },
    {
      "buffer": 0,
      "byteOffset": 38736,
      "byteLength": 34320,
      "target": 34962
    },
    {
      "buffer": 0,
      "byteOffset": 73056,
      "byteLength": 9408,
      "target": 34962
    }
  ],
  "buffers": [
    {
      "byteLength": 82464,
      "uri": "data:application/octet-stream;base64,"
    }
  ]
}