<?xml version="1.0" encoding="UTF-8"?>
<svg xmlns="http://www.w3.org/2000/svg" width="2000" height="2000" viewBox="0 0 2000 2000">
<g fill="none" stroke-linecap="round" stroke-linejoin="round">
  <path d="M 1004.25 1001.26 L 1001.07 999.95 L 997.88 998.66 L 994.74 997.32 L 991.58 996.06 L 988.43 994.80 L 985.29 993.56 L 982.18 992.28 L 979.09 990.99 L 976.00 989.73 L 972.92 988.48 L 969.87 987.21 L 966.83 985.93 L 963.80 984.68 L 960.77 983.43 L 957.77 982.16 L 954.77 980.93 L 951.78 979.70 L 948.81 978.47 L 945.85 977.25 L 942.89 976.06 L 939.93 974.88 L 937.01 973.67 L 934.10 972.45 L 931.22 971.19 L 928.33 970.00 L 925.45 968.80 L 922.59 967.60 L 919.73 966.43 L 916.89 965.23 L 914.07 964.03 L 911.26 962.83 L 908.45 961.66 L 905.66 960.49 L 902.88 959.30 L 900.11 958.14 L 897.36 956.95 L 894.64 955.73 L 891.91 954.56 L 889.21 953.35 L 886.51 952.18 L 883.81 951.02 L 881.14 949.84 L 878.48 948.65 L 875.86 947.41 L 873.24 946.19 L 870.64 944.97 L 868.04 943.76 L 865.46 942.54 L 862.90 941.31 L 860.35 940.09 L 857.81 938.87 L 855.30 937.60 L 852.81 936.33 L 850.30 935.11 L 847.83 933.86 L 845.36 932.62 L 842.91 931.36 L 840.45 930.15" stroke="rgb(120,210,255)" stroke-opacity="0.855" stroke-width="1.64" />
  <path d="M 1002.56 999.93 L 999.67 998.83 L 996.82 997.69 L 993.96 996.56 L 991.13 995.42 L 988.31 994.27 L 985.51 993.12 L 982.72 991.97 L 979.93 990.83 L 977.16 989.70 L 974.45 988.47 L 971.71 987.30 L 969.01 986.11 L 966.33 984.87 L 963.66 983.66 L 960.99 982.47 L 958.29 981.37 L 955.62 980.24 L 952.98 979.07 L 950.37 977.87 L 947.73 976.74 L 945.11 975.62 L 942.53 974.43 L 939.96 973.23 L 937.40 972.06 L 934.82 970.95 L 932.26 969.83" stroke="rgb(120,210,255)" stroke-opacity="0.470" stroke-width="1.64" />
  <path d="M 1999.60 1375.96 L 1997.24 1374.92 L 1994.41 1374.12 L 1991.75 1372.85 L 1988.76 1371.89 L 1985.93 1370.63 L 1983.38 1369.99 L 1980.54 1369.03 L 1977.38 1367.63 L 1974.80 1367.04 L 1971.85 1365.96 L 1968.68 1364.15 L 1966.78 1363.51 L 1963.39 1362.53 L 1961.08 1361.33 L 1957.54 1360.02 L 1954.83 1359.19 L 1952.36 1357.90 L 1949.09 1357.17 L 1946.45 1356.61 L 1943.93 1355.36 L 1940.63 1353.63 L 1938.17 1353.13 L 1935.61 1352.06 L 1932.43 1350.67 L 1929.97 1349.49 L 1927.40 1348.25 L 1924.20 1348.05 L 1921.47 1346.67 L 1918.85 1345.32 L 1915.92 1344.11 L 1912.83 1343.27 L 1910.54 1342.35 L 1907.46 1341.42 L 1904.42 1340.19 L 1901.51 1339.26 L 1899.02 1338.55 L 1896.41 1336.92 L 1893.07 1335.95 L 1890.17 1335.06 L 1887.59 1333.87 L 1885.06 1332.40 L 1882.15 1331.88 L 1878.95 1330.62 L 1876.46 1329.26 L 1873.69 1328.30 L 1870.82 1327.29 L 1868.28 1326.60 L 1865.25 1325.20 L 1862.62 1324.23 L 1859.81 1323.32 L 1856.55 1321.94 L 1853.98 1321.52 L 1851.01 1319.94 L 1848.04 1318.99 L 1845.69 1318.59 L 1842.39 1317.12 L 1840.37 1316.13 L 1837.25 1315.08 L 1834.64 1314.14 L 1831.42 1312.74 L 1828.88 1311.33 L 1826.07 1310.55 L 1822.94 1309.71 L 1820.28 1308.67 L 1817.07 1307.81 L 1814.77 1306.79 L 1811.94 1305.30 L 1809.46 1304.32 L 1806.34 1303.23 L 1803.73 1302.30 L 1800.81 1300.97 L 1798.07 1300.26 L 1794.88 1299.18 L 1792.06 1298.00 L 1789.34 1296.76 L 1786.75 1295.49 L 1784.01 1294.96 L 1781.08 1293.53 L 1778.08 1292.61 L 1775.26 1291.37 L 1772.65 1290.21 L 1769.52 1289.67 L 1766.88 1288.48 L 1764.00 1287.33 L 1761.68 1286.45 L 1758.71 1285.25 L 1755.34 1284.36 L 1753.48 1282.95 L 1749.86 1282.03 L 1747.01 1280.92 L 1744.91 1280.32 L 1741.56 1278.97 L 1739.23 1278.20 L 1736.03 1277.35 L 1733.53 1275.88 L 1730.66 1274.73 L 1727.78 1273.63 L 1724.54 1272.56 L 1722.44 1271.60 L 1719.78 1270.47 L 1715.99 1269.67 L 1713.98 1268.58 L 1710.83 1267.28 L 1707.80 1266.11 L 1705.30 1265.09 L 1702.29 1263.99 L 1699.14 1263.16 L 1696.97 1261.76 L 1694.32 1260.84 L 1691.08 1259.97 L 1688.48 1258.51 L 1685.52 1258.18 L 1682.56 1256.82 L 1679.81 1255.20 L 1676.92 1254.68 L 1674.07 1253.52 L 1671.29 1252.48 L 1668.73 1251.52 L 1665.48 1250.20 L 1662.97 1249.34 L 1660.16 1248.68 L 1657.79 1247.38 L 1654.69 1246.34 L 1652.08 1244.77 L 1648.73 1243.93 L 1646.47 1242.99 L 1643.26 1242.02 L 1640.80 1240.96 L 1637.75 1239.59 L 1635.11 1238.84 L 1632.41 1237.62 L 1629.32 1236.57 L 1626.37 1235.89 L 1623.85 1234.76 L 1621.00 1233.47 L 1618.30 1232.39 L 1615.59 1231.46 L 1612.54 1230.39 L 1609.67 1229.29 L 1607.08 1228.06 L 1604.15 1226.98 L 1601.16 1226.03 L 1598.11 1225.42 L 1595.25 1224.21 L 1592.82 1222.54 L 1589.77 1221.71 L 1587.55 1220.98 L 1584.24 1219.80 L 1581.97 1218.77 L 1578.93 1217.73 L 1575.82 1216.90 L 1573.06 1216.20 L 1570.05 1214.67 L 1567.49 1213.54 L 1564.97 1212.26 L 1562.10 1211.96 L 1558.60 1210.55 L 1556.15 1209.21 L 1553.52 1208.02 L 1550.52 1206.83 L 1547.80 1205.86 L 1544.98 1205.22 L 1542.40 1203.95 L 1539.30 1202.83 L 1536.02 1201.37 L 1533.82 1200.56 L 1531.14 1199.93 L 1527.78 1198.68 L 1525.48 1197.48 L 1522.59 1196.84 L 1519.81 1195.62 L 1516.78 1194.33 L 1514.34 1193.27 L 1511.44 1192.67 L 1508.96 1191.29 L 1505.40 1190.22 L 1503.32 1189.14 L 1500.06 1188.18 L 1497.38 1187.40 L 1494.57 1186.15 L 1491.79 1184.99 L 1489.09 1184.01 L 1486.06 1183.20 L 1483.50 1181.78 L 1480.42 1180.64 L 1477.75 1179.64 L 1475.25 1178.63 L 1472.04 1177.62 L 1469.41 1176.94 L 1466.24 1174.73 L 1463.75 1174.27 L 1461.07 1173.07 L 1458.13 1172.27 L 1455.41 1171.10 L 1452.66 1170.20 L 1449.68 1168.86 L 1447.12 1167.79 L 1443.78 1166.81 L 1441.74 1165.68 L 1438.15 1164.98 L 1435.60 1164.25 L 1432.81 1162.98 L 1429.73 1161.72 L 1427.24 1160.82 L 1424.16 1159.84 L 1421.42 1158.26 L 1418.82 1157.74 L 1415.92 1156.70 L 1412.69 1155.64 L 1410.53 1154.30 L 1407.56 1153.05 L 1404.90 1152.07 L 1401.77 1151.14 L 1398.99 1150.28 L 1395.91 1148.69 L 1393.65 1148.10 L 1390.20 1147.22 L 1388.06 1145.62 L 1385.00 1144.78 L 1382.34 1143.77 L 1379.50 1142.63 L 1376.85 1141.90 L 1374.14 1140.41 L 1371.16 1139.62 L 1368.29 1138.37 L 1365.60 1137.15 L 1362.64 1136.30 L 1359.62 1135.12 L 1356.36 1134.17 L 1354.06 1133.48 L 1351.71 1132.20 L 1348.19 1130.92 L 1345.40 1129.85 L 1342.80 1128.53 L 1340.02 1127.88 L 1337.19 1126.63 L 1334.36 1126.20 L 1331.63 1124.51 L 1328.81 1123.78 L 1326.51 1122.63 L 1323.06 1121.93 L 1320.79 1120.22 L 1317.88 1119.85 L 1315.02 1118.55 L 1312.20 1117.40 L 1309.31 1116.25 L 1306.21 1115.13 L 1303.62 1113.98 L 1300.71 1113.43 L 1297.74 1112.43 L 1295.26 1111.24 L 1292.72 1109.89 L 1289.42 1108.97 L 1286.73 1107.89 L 1284.04 1106.78 L 1281.39 1105.42 L 1278.31 1104.74 L 1275.27 1103.82 L 1272.92 1102.45 L 1269.50 1101.38 L 1266.79 1100.41 L 1264.47 1099.46 L 1261.04 1098.40 L 1258.70 1096.94 L 1255.73 1096.56 L 1253.01 1095.19 L 1250.39 1094.35 L 1247.16 1093.05 L 1244.75 1092.09 L 1241.57 1091.05 L 1238.74 1089.67 L 1236.58 1088.90 L 1233.67 1087.91 L 1230.92 1086.48 L 1227.53 1085.28 L 1224.65 1084.53 L 1222.16 1083.42 L 1219.00 1082.46 L 1216.52 1081.64 L 1213.29 1080.06 L 1210.87 1079.87 L 1207.90 1078.32 L 1205.32 1077.34 L 1202.68 1076.16 L 1199.46 1075.66 L 1196.61 1073.88 L 1193.99 1072.94 L 1191.51 1071.86 L 1188.44 1070.94 L 1185.74 1069.74 L 1183.57 1068.51 L 1179.82 1068.02 L 1177.11 1066.42 L 1174.60 1065.74 L 1171.58 1064.96 L 1169.02 1063.10 L 1165.93 1062.61 L 1162.94 1061.28 L 1160.64 1059.89 L 1157.99 1059.28 L 1154.70 1057.89 L 1152.41 1057.28 L 1149.22 1056.15 L 1146.16 1055.00 L 1143.79 1054.15 L 1140.74 1053.13 L 1138.18 1051.68 L 1135.04 1050.53 L 1131.82 1049.77 L 1129.68 1048.99 L 1126.83 1047.66 L 1123.92 1046.98 L 1121.43 1045.77 L 1118.11 1044.42 L 1115.62 1043.12 L 1112.59 1042.49 L 1109.95 1041.25 L 1106.75 1039.90 L 1104.22 1038.87 L 1101.43 1038.36 L 1098.71 1036.99 L 1095.53 1036.02 L 1092.75 1034.79 L 1090.09 1033.89 L 1087.73 1032.75 L 1084.53 1031.84 L 1082.01 1030.87 L 1079.21 1029.48 L 1076.06 1028.73 L 1073.41 1027.86 L 1070.80 1026.41 L 1067.98 1025.25 L 1064.91 1024.36 L 1062.33 1023.40 L 1059.19 1022.16 L 1056.35 1020.76 L 1053.57 1019.98 L 1050.63 1019.38 L 1047.79 1018.17 L 1045.54 1016.88 L 1042.53 1015.93 L 1039.72 1014.83 L 1037.07 1013.84 L 1034.30 1012.69 L 1031.19 1011.54 L 1028.44 1010.71 L 1025.36 1009.19 L 1023.22 1007.79 L 1019.56 1007.54 L 1016.80 1006.59 L 1014.32 1005.71 L 1011.68 1004.21 L 1008.65 1003.69 L 1005.93 1002.56 L 1003.45 1000.91 L 1000.12 999.94 L 1000.00 1000.00 L 997.19 998.94 L 994.39 997.88 L 991.58 996.82 L 988.77 995.76 L 985.96 994.71 L 983.16 993.66 L 980.34 992.61 L 977.53 991.56 L 974.72 990.51 L 971.91 989.47 L 969.09 988.44 L 966.28 987.40 L 963.46 986.36 L 960.64 985.33 L 957.83 984.30 L 955.01 983.28 L 952.19 982.26 L 949.36 981.24 L 946.54 980.22 L 943.72 979.21 L 940.90 978.18 L 938.08 977.15 L 935.26 976.13 L 932.44 975.11 L 929.61 974.10 L 926.79 973.08 L 923.97 972.06 L 921.15 971.04 L 918.33 970.02 L 915.51 969.00 L 912.68 967.99 L 909.86 966.98 L 907.04 965.96 L 904.22 964.94 L 901.40 963.92 L 898.57 962.90 L 895.75 961.88 L 892.93 960.86 L 890.11 959.83 L 887.29 958.81 L 884.48 957.77 L 881.66 956.74 L 878.85 955.69 L 876.03 954.66 L 873.22 953.63 L 870.40 952.60 L 867.58 951.57 L 864.76 950.54 L 861.95 949.50 L 859.13 948.47 L 856.31 947.44 L 853.49 946.43 L 850.67 945.41 L 847.85 944.38 L 845.03 943.36 L 842.21 942.34 L 839.38 941.32 L 836.56 940.31 L 833.74 939.29 L 830.92 938.26 L 828.10 937.23 L 825.29 936.20 L 822.47 935.17 L 819.65 934.14 L 816.84 933.10 L 814.02 932.06 L 811.21 931.02 L 808.40 929.97 L 805.58 928.93 L 802.77 927.89 L 799.96 926.85 L 797.14 925.82 L 794.32 924.79 L 791.51 923.76 L 788.69 922.72 L 785.87 921.69 L 783.06 920.66 L 780.24 919.63 L 777.42 918.60 L 774.60 917.57 L 771.79 916.53 L 768.97 915.50 L 766.16 914.44 L 763.35 913.39 L 760.54 912.34 L 757.74 911.27 L 754.94 910.21 L 752.13 909.13 L 749.33 908.06 L 746.53 906.99 L 743.73 905.91 L 740.93 904.84 L 738.13 903.76 L 735.32 902.70 L 732.52 901.63 L 729.72 900.56 L 726.92 899.49 L 724.11 898.42 L 721.30 897.36 L 718.49 896.31 L 715.68 895.27 L 712.87 894.22 L 710.06 893.17 L 707.25 892.12 L 704.44 891.06 L 701.63 890.01 L 698.82 888.96 L 696.01 887.92 L 693.20 886.87 L 690.39 885.83 L 687.57 884.78 L 684.76 883.73 L 681.95 882.68 L 679.15 881.62 L 676.34 880.57 L 673.53 879.52 L 670.72 878.46 L 667.91 877.41 L 665.10 876.37 L 662.29 875.32 L 659.47 874.28 L 656.66 873.23 L 653.85 872.18 L 651.04 871.13 L 648.23 870.09 L 645.42 869.03 L 642.61 867.97 L 639.80 866.93 L 636.99 865.89 L 634.17 864.85 L 631.36 863.80 L 628.55 862.76 L 625.73 861.72 L 622.92 860.69 L 620.10 859.66 L 617.28 858.63 L 614.46 857.60 L 611.64 856.58 L 608.82 855.56 L 606.00 854.54 L 603.18 853.52 L 600.36 852.50 L 597.53 851.49 L 594.71 850.48 L 591.89 849.46 L 589.06 848.45 L 586.24 847.44 L 583.41 846.44 L 580.58 845.44 L 577.75 844.44 L 574.92 843.44 L 572.09 842.44 L 569.26 841.45 L 566.43 840.47 L 563.60 839.48 L 560.76 838.49 L 557.93 837.51 L 555.09 836.53 L 552.26 835.55 L 549.43 834.56 L 546.59 833.57 L 543.76 832.57 L 540.93 831.58 L 538.11 830.58 L 535.27 829.59 L 532.44 828.59 L 529.61 827.60 L 526.78 826.61 L 523.95 825.62 L 521.11 824.64 L 518.28 823.65 L 515.45 822.66 L 512.62 821.67 L 509.78 820.69 L 506.95 819.71 L 504.12 818.71 L 501.28 817.73 L 498.45 816.75 L 495.61 815.77 L 492.77 814.80 L 489.93 813.83 L 487.09 812.86 L 484.25 811.90 L 481.42 810.92 L 478.58 809.94 L 475.74 808.97 L 472.91 808.00 L 470.07 807.03 L 467.23 806.06 L 464.39 805.09 L 461.54 804.14 L 458.70 803.18 L 455.86 802.22 L 453.01 801.26 L 450.17 800.30 L 447.33 799.34 L 444.49 798.38 L 441.65 797.41 L 438.81 796.44 L 435.97 795.47 L 433.14 794.49 L 430.30 793.50 L 427.47 792.51 L 424.64 791.52 L 421.81 790.53 L 418.98 789.53 L 416.15 788.54 L 413.31 787.56 L 410.48 786.58 L 407.65 785.59 L 404.81 784.60 L 401.98 783.62 L 399.14 782.64 L 396.31 781.65 L 393.48 780.66 L 390.65 779.66 L 387.82 778.66 L 385.00 777.65 L 382.17 776.65 L 379.34 775.64 L 376.52 774.64 L 373.69 773.62 L 370.87 772.61 L 368.04 771.60 L 365.22 770.60 L 362.39 769.58 L 359.57 768.57 L 356.75 767.54 L 353.93 766.52 L 351.11 765.50 L 348.29 764.46 L 345.48 763.42 L 342.67 762.38 L 339.85 761.34 L 337.04 760.31 L 334.22 759.27 L 331.41 758.22 L 328.60 757.17 L 325.79 756.13 L 322.98 755.08 L 320.17 754.03 L 317.36 752.97 L 314.55 751.92 L 311.74 750.87 L 308.94 749.81 L 306.13 748.74 L 303.32 747.68 L 300.52 746.62 L 297.71 745.57 L 294.89 744.53 L 292.08 743.49 L 289.27 742.45 L 286.45 741.42 L 283.63 740.38 L 280.82 739.34 L 278.01 738.30 L 275.19 737.26 L 272.38 736.21 L 269.57 735.16 L 266.76 734.11 L 263.95 733.07 L 261.13 732.04 L 258.31 731.01 L 255.50 729.98 L 252.68 728.94 L 249.87 727.89 L 247.06 726.83 L 244.26 725.77 L 241.45 724.71 L 238.65 723.65 L 235.84 722.58 L 233.04 721.52 L 230.23 720.45 L 227.43 719.39 L 224.62 718.33 L 221.82 717.26 L 219.01 716.20 L 216.21 715.13 L 213.40 714.07 L 210.60 713.01 L 207.79 711.94 L 204.99 710.87 L 202.18 709.81 L 199.38 708.75 L 196.57 707.69 L 193.76 706.63 L 190.96 705.57 L 188.15 704.51 L 185.34 703.45 L 182.54 702.39 L 179.73 701.32 L 176.93 700.25 L 174.13 699.19 L 171.32 698.13 L 168.51 697.07 L 165.71 696.00 L 162.91 694.93 L 160.10 693.87 L 157.30 692.80 L 154.50 691.73 L 151.69 690.66 L 148.88 689.61 L 146.07 688.56 L 143.26 687.51 L 140.45 686.47 L 137.63 685.43 L 134.82 684.39 L 132.01 683.35 L 129.19 682.32 L 126.37 681.29 L 123.56 680.25 L 120.74 679.22 L 117.93 678.18 L 115.11 677.14 L 112.30 676.10 L 109.48 675.08 L 106.66 674.05 L 103.84 673.01 L 101.03 671.98 L 98.21 670.94 L 95.40 669.89 L 92.59 668.84 L 89.78 667.80 L 86.96 666.76 L 84.15 665.72 L 81.34 664.67 L 78.52 663.63 L 75.71 662.60 L 72.89 661.57 L 70.08 660.53 L 67.26 659.49 L 64.45 658.45 L 61.63 657.43 L 58.81 656.41 L 55.99 655.38 L 53.17 654.36 L 50.35 653.33 L 47.53 652.31 L 44.71 651.29 L 41.88 650.28 L 39.06 649.28 L 36.23 648.27 L 33.40 647.27 L 30.58 646.26 L 27.75 645.25 L 24.93 644.24 L 22.10 643.23 L 19.27 642.23 L 16.45 641.22 L 13.63 640.19 L 10.81 639.17 L 7.99 638.15 L 5.17 637.13 L 2.34 636.12 L -0.48 635.11 L -3.31 634.09 L -6.13 633.08 L -8.95 632.07 L -11.78 631.05 L -14.59 630.02 L -17.41 629.00 L -20.24 627.98" stroke="rgb(245,245,245)" stroke-opacity="0.899" stroke-width="1.63" />
  <path d="M 996.45 1000.29 L 993.36 999.14 L 990.29 998.01 L 987.24 996.82 L 984.22 995.62 L 981.20 994.46 L 978.16 993.37 L 975.15 992.25 L 972.14 991.17 L 969.14 990.09 L 966.15 989.00 L 963.20 987.88 L 960.26 986.75 L 957.34 985.58 L 954.46 984.39 L 951.59 983.18 L 948.73 981.98 L 945.88 980.79 L 943.05 979.58 L 940.23 978.40 L 937.41 977.23 L 934.64 975.99 L 931.86 974.78 L 929.09 973.59 L 926.30 972.49 L 923.49 971.47 L 920.69 970.47 L 917.89 969.47 L 915.11 968.47 L 912.34 967.49 L 909.57 966.53 L 906.78 965.66 L 904.03 964.72 L 901.29 963.78 L 898.57 962.83 L 895.88 961.83 L 893.20 960.83 L 890.51 959.89 L 887.82 958.96 L 885.14 958.07 L 882.50 957.11 L 879.86 956.15 L 877.23 955.22" stroke="rgb(120,210,255)" stroke-opacity="0.852" stroke-width="1.63" />
  <path d="M 1002.13 997.16 L 998.86 995.90 L 995.60 994.69 L 992.34 993.48 L 989.12 992.22 L 985.94 990.91 L 982.76 989.63 L 979.58 988.38 L 976.43 987.09 L 973.32 985.75 L 970.21 984.43 L 967.12 983.11 L 964.06 981.74 L 961.01 980.39 L 957.97 979.06 L 954.95 977.70 L 951.99 976.26 L 949.06 974.78 L 946.15 973.30 L 943.27 971.77 L 940.41 970.25 L 937.56 968.72 L 934.71 967.24 L 931.85 965.78 L 929.00 964.35 L 926.17 962.90 L 923.36 961.45 L 920.58 959.97 L 917.80 958.50 L 915.02 957.06 L 912.27 955.59" stroke="rgb(120,210,255)" stroke-opacity="0.852" stroke-width="1.63" />
  <path d="M 1000.86 997.19 L 997.64 996.02 L 994.45 994.82 L 991.27 993.61 L 988.11 992.40 L 984.97 991.16 L 981.84 989.95 L 978.71 988.77 L 975.60 987.55 L 972.55 986.24 L 969.53 984.91 L 966.53 983.56 L 963.54 982.20 L 960.56 980.88 L 957.61 979.49 L 954.68 978.12 L 951.75 976.76 L 948.83 975.41 L 945.90 974.13 L 942.96 972.89 L 940.02 971.69 L 937.09 970.49 L 934.18 969.30 L 931.26 968.15 L 928.37 966.96 L 925.48 965.80 L 922.63 964.58 L 919.79 963.38 L 916.97 962.13 L 914.16 960.92 L 911.37 959.70 L 908.60 958.44 L 905.89 957.09 L 903.19 955.75 L 900.49 954.43 L 897.78 953.18 L 895.07 951.94 L 892.36 950.73 L 889.66 949.53 L 886.97 948.33 L 884.28 947.18 L 881.57 946.08 L 878.90 944.93 L 876.26 943.75 L 873.62 942.59" stroke="rgb(120,210,255)" stroke-opacity="0.849" stroke-width="1.62" />
  <path d="M 998.27 997.68 L 995.18 996.48 L 992.10 995.33 L 988.99 994.26 L 985.89 993.22 L 982.81 992.17 L 979.74 991.12 L 976.72 989.99 L 973.71 988.86 L 970.69 987.77 L 967.69 986.70 L 964.68 985.67 L 961.68 984.65 L 958.69 983.66 L 955.73 982.61 L 952.78 981.57 L 949.85 980.50 L 946.93 979.45 L 944.04 978.36 L 941.15 977.30 L 938.27 976.26 L 935.41 975.18 L 932.57 974.09 L 929.73 973.03 L 926.90 971.99 L 924.08 970.97 L 921.24 970.00 L 918.40 969.09 L 915.59 968.15 L 912.79 967.18 L 909.99 966.28 L 907.19 965.42 L 904.40 964.53 L 901.61 963.71 L 898.81 962.96 L 896.01 962.27 L 893.22 961.58 L 890.43 960.92 L 887.65 960.29 L 884.87 959.68 L 882.11 959.04 L 879.35 958.50 L 876.60 957.93 L 873.86 957.37 L 871.14 956.77" stroke="rgb(120,210,255)" stroke-opacity="0.844" stroke-width="1.60" />
  <path d="M 999.75 998.22 L 996.51 997.17 L 993.27 996.13 L 990.03 995.13 L 986.80 994.14 L 983.59 993.16 L 980.39 992.18 L 977.19 991.23 L 974.00 990.31 L 970.83 989.36 L 967.70 988.33 L 964.59 987.28 L 961.48 986.27 L 958.40 985.23 L 955.33 984.19 L 952.28 983.14 L 949.22 982.14 L 946.19 981.11 L 943.15 980.11 L 940.15 979.08 L 937.13 978.12 L 934.14 977.14 L 931.16 976.14 L 928.20 975.13 L 925.28 974.04 L 922.37 972.98 L 919.46 971.93 L 916.57 970.89 L 913.70 969.81 L 910.84 968.73 L 908.01 967.61 L 905.19 966.52 L 902.39 965.41 L 899.61 964.26 L 896.85 963.09 L 894.13 961.88 L 891.40 960.71 L 888.68 959.56 L 885.96 958.42 L 883.27 957.26 L 880.58 956.12 L 877.92 954.95 L 875.26 953.80 L 872.60 952.66 L 869.94 951.57 L 867.31 950.46 L 864.69 949.32 L 862.10 948.16 L 859.53 946.98 L 856.98 945.78 L 854.45 944.55 L 851.94 943.33 L 849.41 942.17 L 846.89 941.01 L 844.39 939.84 L 841.90 938.66 L 839.43 937.48 L 836.98 936.28 L 834.53 935.11" stroke="rgb(120,210,255)" stroke-opacity="0.843" stroke-width="1.60" />
  <path d="M 999.34 1002.15 L 996.14 1000.95 L 992.95 999.76 L 989.78 998.57 L 986.61 997.39 L 983.43 996.31 L 980.25 995.27 L 977.07 994.28 L 973.89 993.30 L 970.74 992.30 L 967.60 991.29 L 964.50 990.23 L 961.42 989.14 L 958.35 988.04 L 955.30 986.96 L 952.24 985.91 L 949.20 984.85 L 946.18 983.81 L 943.16 982.76 L 940.17 981.70 L 937.16 980.70 L 934.19 979.67 L 931.23 978.60 L 928.32 977.47 L 925.42 976.33 L 922.51 975.23 L 919.61 974.18 L 916.73 973.11 L 913.86 972.00 L 911.03 970.87 L 908.22 969.71 L 905.45 968.49 L 902.69 967.26 L 899.96 966.02 L 897.22 964.82 L 894.49 963.60 L 891.78 962.40 L 889.06 961.24 L 886.37 960.05 L 883.69 958.84 L 881.03 957.65 L 878.38 956.45 L 875.75 955.23 L 873.11 954.05 L 870.47 952.92 L 867.83 951.80 L 865.18 950.75 L 862.56 949.65 L 859.95 948.57 L 857.35 947.49 L 854.75 946.42 L 852.17 945.34 L 849.60 944.28 L 847.06 943.16 L 844.53 942.05 L 842.00 940.98 L 839.49 939.88 L 837.02 938.71 L 834.56 937.56 L 832.11 936.41 L 829.67 935.25 L 827.25 934.10 L 824.83 932.95 L 822.42 931.82 L 820.03 930.66 L 817.65 929.52 L 815.28 928.37 L 812.92 927.23 L 810.59 926.06 L 808.26 924.89 L 805.94 923.74 L 803.64 922.58 L 801.34 921.42 L 799.04 920.29 L 796.76 919.17 L 794.47 918.06 L 792.19 916.98 L 789.89 915.95 L 787.60 914.92" stroke="rgb(120,210,255)" stroke-opacity="0.841" stroke-width="1.60" />
  <path d="M 1002.12 999.61 L 999.18 998.37 L 996.23 997.13 L 993.33 995.85 L 990.41 994.63 L 987.54 993.34 L 984.65 992.12 L 981.77 990.91 L 978.91 989.68 L 976.05 988.49 L 973.22 987.26 L 970.38 986.07 L 967.53 984.96 L 964.72 983.76 L 961.94 982.54 L 959.18 981.29 L 956.43 980.06 L 953.68 978.85 L 950.97 977.59 L 948.25 976.37 L 945.58 975.10 L 942.95 973.74 L 940.34 972.39 L 937.75 971.02 L 935.19 969.62 L 932.62 968.25 L 930.16 966.73 L 927.70 965.23 L 925.27 963.69 L 922.86 962.15 L 920.43 960.66 L 917.99 959.22 L 915.51 957.85 L 913.05 956.48 L 910.61 955.10 L 908.14 953.80 L 905.65 952.57 L 903.15 951.36 L 900.66 950.17 L 898.15 949.05 L 895.64 947.96 L 893.13 946.90 L 890.66 945.78 L 888.22 944.60 L 885.79 943.45 L 883.34 942.35 L 880.91 941.24 L 878.49 940.12 L 876.07 939.05 L 873.66 937.96 L 871.27 936.86 L 868.90 935.76 L 866.54 934.64 L 864.19 933.53 L 861.86 932.41 L 859.53 931.30" stroke="rgb(120,210,255)" stroke-opacity="0.840" stroke-width="1.59" />
  <path d="M 1000.23 995.52 L 997.52 994.46 L 994.83 993.38 L 992.17 992.26 L 989.54 991.11 L 986.93 989.95 L 984.34 988.76 L 981.74 987.63 L 979.15 986.50 L 976.58 985.34 L 974.04 984.14 L 971.55 982.89 L 969.01 981.75 L 966.51 980.56 L 963.94 979.56 L 961.36 978.62 L 958.78 977.69 L 956.22 976.76 L 953.71 975.73 L 951.21 974.68 L 948.76 973.57 L 946.36 972.37 L 944.00 971.11 L 941.63 969.90 L 939.28 968.68 L 936.95 967.44 L 934.61 966.24 L 932.27 965.06 L 929.94 963.89" stroke="rgb(120,210,255)" stroke-opacity="0.461" stroke-width="1.59" />
  <path d="M 1000.12 1000.31 L 997.65 999.48 L 995.19 998.64 L 992.75 997.75 L 990.37 996.75 L 988.01 995.74 L 985.63 994.82 L 983.23 993.95 L 980.87 993.01 L 978.52 992.08 L 976.15 991.24 L 973.79 990.39 L 971.47 989.46 L 969.18 988.47 L 966.96 987.37 L 964.72 986.33 L 962.50 985.28 L 960.32 984.16" stroke="rgb(120,210,255)" stroke-opacity="0.449" stroke-width="1.52" />
  <path d="M 995.89 1001.74 L 992.54 1002.04 L 989.20 1002.38 L 985.88 1002.72 L 982.57 1003.04 L 979.28 1003.40 L 976.00 1003.76 L 972.73 1004.09 L 969.47 1004.38 L 966.22 1004.64 L 962.98 1004.91 L 959.76 1005.16 L 956.55 1005.39 L 953.35 1005.67 L 950.17 1005.97 L 947.00 1006.25 L 943.84 1006.53 L 940.69 1006.76 L 937.55 1006.98 L 934.43 1007.18 L 931.32 1007.40 L 928.23 1007.72 L 925.15 1008.03 L 922.08 1008.30 L 919.01 1008.51 L 915.96 1008.67 L 912.92 1008.85 L 909.89 1009.05 L 906.88 1009.26 L 903.88 1009.51 L 900.89 1009.75 L 897.92 1010.05 L 894.96 1010.31 L 892.01 1010.52 L 889.07 1010.77 L 886.14 1011.04 L 883.24 1011.36 L 880.34 1011.68 L 877.45 1011.98 L 874.57 1012.23 L 871.70 1012.48 L 868.85 1012.72 L 866.00 1012.93 L 863.16 1013.11 L 860.33 1013.27 L 857.51 1013.41 L 854.70 1013.53 L 851.91 1013.69 L 849.13 1013.87 L 846.35 1014.04" stroke="rgb(205,165,255)" stroke-opacity="0.718" stroke-width="1.24" />
  <path d="M 903.35 943.63 L 902.51 941.54 L 901.60 939.49 L 900.89 937.38 L 900.09 935.30 L 899.40 933.20 L 898.64 931.13 L 897.91 929.06 L 897.15 927.00 L 896.35 924.97 L 895.57 922.95 L 894.76 920.94 L 894.13 918.89 L 893.55 916.82 L 893.06 914.74 L 892.47 912.70" stroke="rgb(140,255,190)" stroke-opacity="0.564" stroke-width="1.23" />
  <path d="M 997.16 999.56 L 994.04 998.02 L 990.91 996.55 L 987.78 995.10 L 984.65 993.69 L 981.53 992.29 L 978.42 990.89 L 975.36 989.42 L 972.30 988.00 L 969.26 986.55 L 966.20 985.18 L 963.13 983.86 L 960.07 982.55 L 957.02 981.28 L 953.98 979.99 L 950.95 978.70 L 947.91 977.49 L 944.88 976.29 L 941.85 975.13" stroke="rgb(205,165,255)" stroke-opacity="0.713" stroke-width="1.22" />
  <path d="M 999.11 1001.90 L 997.89 1004.99 L 996.67 1008.07 L 995.41 1011.12 L 994.00 1014.08 L 992.56 1017.02 L 991.12 1019.94 L 989.68 1022.85 L 988.25 1025.75 L 986.84 1028.64 L 985.37 1031.49 L 983.86 1034.30 L 982.28 1037.06 L 980.68 1039.80 L 979.11 1042.53 L 977.57 1045.27 L 976.04 1048.00 L 974.45 1050.68 L 972.85 1053.35 L 971.32 1056.03 L 969.77 1058.69 L 968.19 1061.32 L 966.65 1063.96 L 965.09 1066.57 L 963.54 1069.18 L 961.99 1071.77 L 960.47 1074.36 L 958.99 1076.97 L 957.49 1079.55 L 956.04 1082.14" stroke="rgb(205,165,255)" stroke-opacity="0.712" stroke-width="1.22" />
  <path d="M 999.04 1004.17 L 1000.61 1001.14 L 1002.21 998.15 L 1003.82 995.18 L 1005.44 992.23 L 1007.06 989.30 L 1008.66 986.36 L 1010.27 983.45 L 1011.82 980.53 L 1013.36 977.61 L 1014.89 974.70 L 1016.40 971.80 L 1017.84 968.87 L 1019.25 965.95 L 1020.65 963.03 L 1022.03 960.12 L 1023.50 957.27 L 1024.94 954.42 L 1026.37 951.58 L 1027.78 948.74 L 1029.16 945.90 L 1030.51 943.06 L 1031.85 940.23 L 1033.20 937.41 L 1034.56 934.62 L 1035.86 931.81 L 1037.17 929.02 L 1038.53 926.27 L 1039.84 923.51 L 1041.12 920.75 L 1042.35 917.97 L 1043.59 915.22 L 1044.77 912.45 L 1045.93 909.69" stroke="rgb(205,165,255)" stroke-opacity="0.711" stroke-width="1.22" />
  <path d="M 859.01 887.13 L 857.88 885.17 L 856.69 883.26 L 855.54 881.33 L 854.32 879.45 L 853.10 877.59 L 851.95 875.69 L 850.80 873.81 L 849.68 871.91 L 848.64 869.98 L 847.65 868.04 L 846.51 866.19 L 845.38 864.34 L 844.10 862.60 L 842.97 860.77 L 841.88 858.93 L 840.74 857.13 L 839.53 855.39 L 838.21 853.73 L 836.97 852.04 L 835.62 850.43 L 834.24 848.86 L 833.00 847.19 L 831.69 845.58 L 830.45 843.93 L 829.20 842.30 L 827.89 840.73 L 826.62 839.13 L 825.37 837.53 L 824.10 835.95" stroke="rgb(140,255,190)" stroke-opacity="0.562" stroke-width="1.22" />
  <path d="M 1075.88 938.34 L 1078.56 936.25 L 1081.25 934.20 L 1083.83 932.02 L 1086.38 929.83 L 1088.94 927.67 L 1091.51 925.55 L 1094.14 923.52 L 1096.75 921.49 L 1099.42 919.56 L 1102.08 917.63 L 1104.69 915.66 L 1107.27 913.68 L 1109.90 911.79 L 1112.54 909.93 L 1115.18 908.08 L 1117.80 906.25 L 1120.42 904.42 L 1123.05 902.64 L 1125.68 900.88 L 1128.30 899.12 L 1130.92 897.39 L 1133.54 895.68 L 1136.13 893.96 L 1138.71 892.23 L 1141.21 890.41" stroke="rgb(205,165,255)" stroke-opacity="0.710" stroke-width="1.22" />
  <path d="M 1040.08 975.94 L 1043.19 975.26 L 1046.30 974.63 L 1049.39 974.00 L 1052.44 973.22 L 1055.50 972.53 L 1058.55 971.89 L 1061.59 971.24 L 1064.64 970.71 L 1067.67 970.14 L 1070.70 969.65 L 1073.73 969.19 L 1076.74 968.73 L 1079.74 968.26 L 1082.74 967.90 L 1085.74 967.63 L 1088.73 967.40 L 1091.70 967.14 L 1094.66 966.90 L 1097.61 966.55 L 1100.54 966.26 L 1103.47 966.05 L 1106.39 965.81 L 1109.30 965.59 L 1112.19 965.34 L 1115.07 965.07 L 1117.94 964.81 L 1120.80 964.61 L 1123.65 964.39 L 1126.49 964.17 L 1129.31 963.97 L 1132.13 963.78 L 1134.94 963.66 L 1137.74 963.55 L 1140.53 963.49 L 1143.30 963.44 L 1146.07 963.33 L 1148.82 963.21" stroke="rgb(205,165,255)" stroke-opacity="0.709" stroke-width="1.21" />
  <path d="M 939.57 1027.05 L 936.34 1027.23 L 933.12 1027.35 L 929.92 1027.51 L 926.72 1027.67 L 923.54 1027.81 L 920.37 1027.94 L 917.21 1028.04 L 914.07 1027.97 L 910.95 1027.68 L 907.84 1027.40 L 904.74 1027.08 L 901.67 1026.70 L 898.61 1026.31 L 895.56 1025.94 L 892.51 1025.65 L 889.48 1025.39 L 886.46 1025.10 L 883.45 1024.73 L 880.47 1024.33 L 877.50 1023.93 L 874.55 1023.47 L 871.60 1023.05 L 868.66 1022.66 L 865.74 1022.27 L 862.82 1021.91 L 859.92 1021.53 L 857.02 1021.23 L 854.13 1020.93 L 851.24 1020.71 L 848.37 1020.46 L 845.52 1020.18 L 842.68 1019.87 L 839.85 1019.53 L 837.03 1019.25 L 834.22 1018.97 L 831.42 1018.67 L 828.63 1018.38 L 825.85 1018.18 L 823.08 1017.97 L 820.32 1017.80 L 817.57 1017.61 L 814.82 1017.44 L 812.09 1017.39 L 809.37 1017.35 L 806.65 1017.29 L 803.95 1017.18 L 801.26 1017.10 L 798.58 1017.02 L 795.91 1016.96 L 793.26 1016.92 L 790.61 1016.80 L 787.97 1016.72 L 785.35 1016.67 L 782.73 1016.60 L 780.12 1016.55 L 777.53 1016.36 L 774.96 1016.17 L 772.38 1016.08 L 769.82 1015.97 L 767.27 1015.77 L 764.73 1015.60 L 762.21 1015.38 L 759.70 1015.13 L 757.20 1014.79 L 754.73 1014.43 L 752.26 1014.07 L 749.80 1013.69 L 747.35 1013.35 L 744.91 1013.06 L 742.47 1012.79" stroke="rgb(205,165,255)" stroke-opacity="0.705" stroke-width="1.20" />
  <path d="M 998.12 1005.51 L 994.93 1005.27 L 991.76 1005.04 L 988.61 1004.76 L 985.46 1004.51 L 982.33 1004.24 L 979.21 1004.03 L 976.11 1003.74 L 973.01 1003.48 L 969.93 1003.24 L 966.86 1003.05 L 963.79 1002.87 L 960.74 1002.74 L 957.70 1002.59 L 954.67 1002.48 L 951.66 1002.37 L 948.65 1002.26 L 945.66 1002.20 L 942.68 1002.16 L 939.71 1002.07 L 936.75 1001.95 L 933.81 1001.87 L 930.87 1001.76 L 927.95 1001.68 L 925.04 1001.68 L 922.14 1001.71 L 919.25 1001.72 L 916.37 1001.74 L 913.51 1001.75 L 910.66 1001.89 L 907.82 1002.08 L 905.00 1002.21 L 902.18 1002.35 L 899.38 1002.60 L 896.60 1002.89 L 893.83 1003.22 L 891.08 1003.58 L 888.35 1003.98 L 885.64 1004.48 L 882.94 1004.98 L 880.27 1005.53 L 877.60 1006.07 L 874.94 1006.58 L 872.31 1007.16 L 869.67 1007.69 L 867.06 1008.25 L 864.45 1008.81" stroke="rgb(205,165,255)" stroke-opacity="0.704" stroke-width="1.20" />
  <path d="M 1002.04 996.83 L 1004.83 995.32 L 1007.61 993.78 L 1010.38 992.28 L 1013.14 990.78 L 1015.87 989.23 L 1018.59 987.71 L 1021.31 986.21 L 1024.02 984.73 L 1026.77 983.32 L 1029.47 981.86 L 1032.14 980.37 L 1034.79 978.88 L 1037.45 977.42 L 1040.08 975.94 L 1042.70 974.46 L 1045.31 972.99 L 1047.93 971.56 L 1050.54 970.14 L 1053.14 968.73 L 1055.68 967.23 L 1058.20 965.71 L 1060.70 964.21" stroke="rgb(205,165,255)" stroke-opacity="0.702" stroke-width="1.19" />
  <path d="M 1000.32 1002.22 L 1003.42 1002.52 L 1006.50 1002.90 L 1009.55 1003.34 L 1012.59 1003.81" stroke="rgb(205,165,255)" stroke-opacity="0.700" stroke-width="1.19" />
  <path d="M 999.23 1002.42 L 997.05 1001.70 L 994.88 1000.98 L 992.74 1000.19 L 990.59 999.47 L 988.43 998.81 L 986.24 998.27 L 984.06 997.76 L 981.87 997.28 L 979.68 996.94 L 977.50 996.54 L 975.33 996.14 L 973.17 995.73 L 971.01 995.38 L 968.89 994.86 L 966.78 994.34" stroke="rgb(140,255,190)" stroke-opacity="0.552" stroke-width="1.19" />
  <path d="M 937.90 982.62 L 934.42 982.59 L 930.96 982.65 L 927.51 982.79 L 924.07 982.97 L 920.66 983.29 L 917.26 983.56 L 913.87 983.83 L 910.51 984.14 L 907.15 984.49 L 903.81 984.84 L 900.49 985.18 L 897.17 985.47 L 893.87 985.78 L 890.59 986.14 L 887.32 986.53 L 884.07 986.96 L 880.83 987.32 L 877.59 987.67 L 874.38 988.05 L 871.17 988.42 L 867.98 988.77 L 864.80 989.13 L 861.63 989.46 L 858.48 989.81 L 855.35 990.23 L 852.22 990.61 L 849.11 991.00 L 846.01 991.37 L 842.91 991.67 L 839.83 991.98 L 836.77 992.37 L 833.71 992.73 L 830.68 993.11 L 827.66 993.52 L 824.65 993.92 L 821.65 994.34 L 818.66 994.72 L 815.67 995.00 L 812.71 995.34 L 809.75 995.67 L 806.80 996.02 L 803.87 996.40 L 800.95 996.72 L 798.04 997.08" stroke="rgb(140,255,190)" stroke-opacity="0.736" stroke-width="1.18" />
  <path d="M 1000.86 998.72 L 998.00 1000.15 L 995.14 1001.56 L 992.35 1003.07 L 989.52 1004.48 L 986.69 1005.87 L 983.88 1007.27 L 981.05 1008.59 L 978.23 1009.91 L 975.42 1011.21 L 972.61 1012.48 L 969.80 1013.73 L 966.98 1014.95 L 964.19 1016.18 L 961.43 1017.44 L 958.68 1018.71 L 955.94 1019.97 L 953.22 1021.23 L 950.48 1022.44 L 947.75 1023.62 L 945.02 1024.79 L 942.30 1025.94 L 939.57 1027.05 L 936.86 1028.16 L 934.14 1029.22 L 931.41 1030.22 L 928.71 1031.27 L 926.04 1032.35 L 923.37 1033.40 L 920.71 1034.47 L 918.04 1035.46 L 915.39 1036.47 L 912.79 1037.58 L 910.23 1038.75 L 907.69 1039.94 L 905.14 1041.09 L 902.63 1042.28 L 900.13 1043.48 L 897.63 1044.66 L 895.12 1045.77 L 892.62 1046.87 L 890.11 1047.94 L 887.63 1049.05 L 885.11 1050.05 L 882.60 1051.01 L 880.07 1051.92 L 877.56 1052.83 L 875.04 1053.69 L 872.53 1054.53 L 870.04 1055.41 L 867.57 1056.34 L 865.14 1057.30 L 862.75 1058.34 L 860.38 1059.42 L 858.01 1060.45 L 855.63 1061.46 L 853.27 1062.47 L 850.95 1063.54 L 848.58 1064.48 L 846.23 1065.44 L 843.90 1066.41 L 841.58 1067.38 L 839.27 1068.35 L 836.96 1069.31 L 834.67 1070.28 L 832.39 1071.23 L 830.11 1072.19 L 827.81 1073.05 L 825.53 1073.93 L 823.25 1074.78 L 820.98 1075.67" stroke="rgb(205,165,255)" stroke-opacity="0.699" stroke-width="1.18" />
  <path d="M 839.80 943.13 L 836.95 941.30 L 834.15 939.40 L 831.34 937.54 L 828.53 935.71 L 825.72 933.91 L 822.96 932.06 L 820.23 930.19 L 817.53 928.29 L 814.83 926.42 L 812.07 924.65 L 809.34 922.87 L 806.65 921.05 L 803.95 919.27 L 801.25 917.52 L 798.51 915.85 L 795.78 914.19 L 793.03 912.58 L 790.33 910.92 L 787.65 909.25 L 785.00 907.56 L 782.36 905.88 L 779.69 904.27 L 777.03 902.66 L 774.37 901.08 L 771.71 899.52 L 769.06 897.98 L 766.40 896.47 L 763.72 895.03 L 761.08 893.54 L 758.46 892.03 L 755.88 890.48 L 753.29 888.97 L 750.71 887.47 L 748.16 885.95 L 745.63 884.42 L 743.08 882.93 L 740.55 881.44 L 738.00 880.01 L 735.43 878.63 L 732.88 877.24 L 730.36 875.84 L 727.79 874.53 L 725.23 873.24 L 722.68 871.95 L 720.19 870.58 L 717.66 869.30 L 715.12 868.07 L 712.58 866.87 L 710.04 865.69 L 707.52 864.51 L 704.97 863.40 L 702.42 862.32 L 699.87 861.28 L 697.34 860.23 L 694.82 859.17 L 692.33 858.06 L 689.85 856.99 L 687.33 856.00" stroke="rgb(140,255,190)" stroke-opacity="0.736" stroke-width="1.18" />
  <path d="M 958.01 980.67 L 956.44 978.93 L 954.75 977.32 L 953.07 975.71 L 951.41 974.08 L 949.78 972.45 L 948.10 970.88 L 946.34 969.42 L 944.57 967.97 L 942.88 966.46 L 941.15 965.00 L 939.45 963.52 L 937.71 962.10 L 935.98 960.68 L 934.29 959.23 L 932.55 957.86 L 930.90 956.39 L 929.24 954.94 L 927.56 953.54 L 925.85 952.17 L 924.17 950.80 L 922.47 949.46 L 920.74 948.16 L 918.96 946.97 L 917.14 945.84 L 915.32 944.74 L 913.51 943.62 L 911.84 942.33 L 910.13 941.10 L 908.39 939.92 L 906.68 938.73 L 904.99 937.52 L 903.35 936.26 L 901.72 934.98 L 900.08 933.74 L 898.55 932.39 L 897.01 931.05" stroke="rgb(140,255,190)" stroke-opacity="0.552" stroke-width="1.18" />
  <path d="M 951.39 976.17 L 948.65 974.06 L 945.90 971.98 L 943.15 969.93 L 940.35 967.96 L 937.60 965.96 L 934.90 963.90 L 932.21 961.86 L 929.49 959.88 L 926.78 957.92 L 924.07 955.97 L 921.38 954.02 L 918.66 952.13 L 915.93 950.28 L 913.20 948.46 L 910.49 946.63 L 907.78 944.83 L 905.03 943.10 L 902.30 941.37 L 899.55 939.69 L 896.82 938.01 L 894.10 936.35 L 891.34 934.75 L 888.60 933.17 L 885.89 931.55 L 883.19 929.95 L 880.51 928.33 L 877.86 926.70 L 875.22 925.06 L 872.58 923.45 L 869.96 921.83 L 867.35 920.21 L 864.75 918.61 L 862.13 917.06 L 859.48 915.59 L 856.85 914.11 L 854.27 912.57 L 851.72 911.00 L 849.17 909.44 L 846.62 907.93 L 844.05 906.47 L 841.47 905.03 L 838.87 903.68 L 836.26 902.36 L 833.64 901.09 L 831.04 899.81 L 828.47 898.48 L 825.92 897.15 L 823.38 895.83 L 820.85 894.50 L 818.34 893.17 L 815.83 891.85 L 813.33 890.55 L 810.84 889.26 L 808.36 887.96 L 805.87 886.72 L 803.38 885.48 L 800.90 884.26 L 798.46 882.99 L 796.04 881.70 L 793.64 880.40 L 791.22 879.16 L 788.83 877.87 L 786.46 876.58 L 784.10 875.30 L 781.74 874.03 L 779.38 872.81 L 777.02 871.59 L 774.66 870.38 L 772.33 869.16 L 770.00 867.96 L 767.68 866.75 L 765.38 865.54 L 763.09 864.32 L 760.80 863.12 L 758.53 861.92" stroke="rgb(140,255,190)" stroke-opacity="0.735" stroke-width="1.18" />
  <path d="M 911.73 987.82 L 908.87 985.83 L 906.02 983.85 L 903.23 981.82 L 900.47 979.75 L 897.76 977.65 L 895.02 975.62 L 892.25 973.64 L 889.48 971.68 L 886.72 969.75 L 883.95 967.85 L 881.19 965.95 L 878.43 964.08 L 875.72 962.16 L 873.02 960.25 L 870.31 958.38 L 867.59 956.54 L 864.84 954.78 L 862.08 953.05 L 859.36 951.28 L 856.66 949.51 L 853.95 947.78 L 851.28 946.01 L 848.64 944.22 L 846.05 942.38 L 843.45 940.57 L 840.85 938.80 L 838.26 937.01 L 835.73 935.18 L 833.19 933.37 L 830.68 931.56 L 828.19 929.73 L 825.68 927.95 L 823.16 926.19 L 820.66 924.45 L 818.16 922.71 L 815.67 920.99 L 813.20 919.27 L 810.69 917.61 L 808.16 916.01 L 805.64 914.42 L 803.13 912.84 L 800.59 911.33 L 798.06 909.82 L 795.54 908.32 L 793.02 906.85 L 790.54 905.32 L 788.08 903.79 L 785.64 902.24" stroke="rgb(140,255,190)" stroke-opacity="0.734" stroke-width="1.18" />
  <path d="M 998.22 999.67 L 995.03 998.23 L 991.84 996.82 L 988.67 995.42 L 985.54 993.97 L 982.43 992.49 L 979.32 991.06 L 976.23 989.59 L 973.16 988.13 L 970.12 986.64 L 967.05 985.24 L 964.00 983.85 L 960.96 982.44 L 957.93 981.05 L 954.94 979.61 L 951.97 978.15 L 949.01 976.73 L 946.04 975.33 L 943.09 973.93 L 940.13 972.57 L 937.19 971.22" stroke="rgb(140,255,190)" stroke-opacity="0.734" stroke-width="1.18" />
  <path d="M 996.31 998.98 L 999.18 996.99 L 1002.01 994.97 L 1004.84 992.97 L 1007.67 991.00 L 1010.50 989.05 L 1013.31 987.09 L 1016.14 985.19 L 1018.95 983.30 L 1021.78 981.43 L 1024.61 979.61 L 1027.42 977.79 L 1030.24 975.98 L 1033.07 974.24 L 1035.89 972.50 L 1038.70 970.76 L 1041.52 969.07 L 1044.35 967.42 L 1047.17 965.78 L 1049.98 964.15 L 1052.78 962.53 L 1055.57 960.92 L 1058.37 959.35 L 1061.17 957.80 L 1063.96 956.27 L 1066.76 954.79 L 1069.54 953.29 L 1072.32 951.81 L 1075.06 950.29 L 1077.78 948.75 L 1080.48 947.22" stroke="rgb(140,255,190)" stroke-opacity="0.734" stroke-width="1.18" />
  <path d="M 864.14 908.79 L 862.35 905.87 L 860.51 903.02 L 858.73 900.13 L 856.97 897.26 L 855.23 894.39 L 853.53 891.50 L 851.77 888.67 L 850.01 885.86 L 848.33 883.01 L 846.64 880.18 L 844.99 877.34 L 843.38 874.51 L 841.84 871.64 L 840.36 868.75 L 838.85 865.90 L 837.29 863.09 L 835.71 860.31 L 834.18 857.51 L 832.69 854.70 L 831.19 851.92 L 829.78 849.10 L 828.35 846.30 L 826.96 843.50 L 825.62 840.69 L 824.28 837.89 L 822.97 835.10 L 821.55 832.37 L 820.13 829.65 L 818.65 826.98 L 817.24 824.29" stroke="rgb(140,255,190)" stroke-opacity="0.733" stroke-width="1.18" />
  <path d="M 998.34 1000.12 L 999.69 1002.96 L 1001.02 1005.81 L 1002.36 1008.63 L 1003.73 1011.43 L 1005.14 1014.19 L 1006.55 1016.94 L 1007.94 1019.69 L 1009.27 1022.45 L 1010.57 1025.21 L 1011.84 1027.97 L 1013.00 1030.77 L 1014.10 1033.58 L 1015.19 1036.38 L 1016.29 1039.16 L 1017.45 1041.90 L 1018.66 1044.61 L 1019.86 1047.32 L 1021.04 1050.01" stroke="rgb(205,165,255)" stroke-opacity="0.695" stroke-width="1.17" />
  <path d="M 1000.18 1000.20 L 997.03 999.07 L 993.91 997.90 L 990.82 996.69 L 987.73 995.51 L 984.69 994.24 L 981.67 992.97 L 978.66 991.71 L 975.65 990.46 L 972.67 989.20 L 969.74 987.83 L 966.82 986.49 L 963.92 985.14 L 961.03 983.78 L 958.15 982.44 L 955.29 981.10 L 952.43 979.77 L 949.59 978.43 L 946.79 977.05 L 943.98 975.70 L 941.20 974.33 L 938.44 972.93 L 935.69 971.56 L 932.95 970.18 L 930.23 968.80 L 927.52 967.42" stroke="rgb(140,255,190)" stroke-opacity="0.732" stroke-width="1.17" />
  <path d="M 998.05 999.24 L 994.81 998.25 L 991.58 997.29 L 988.37 996.32 L 985.17 995.36 L 981.99 994.39 L 978.82 993.40 L 975.68 992.38 L 972.55 991.36 L 969.45 990.31 L 966.35 989.29 L 963.26 988.29 L 960.17 987.33 L 957.07 986.42 L 954.01 985.47 L 950.94 984.57 L 947.89 983.65 L 944.85 982.73 L 941.82 981.84 L 938.80 980.95 L 935.77 980.16 L 932.74 979.39 L 929.74 978.59 L 926.75 977.79 L 923.76 977.01 L 920.80 976.21 L 917.82 975.50 L 914.86 974.78 L 911.90 974.09 L 908.95 973.44 L 906.01 972.79 L 903.08 972.14 L 900.15 971.53 L 897.25 970.90 L 894.36 970.24 L 891.47 969.63 L 888.61 968.96 L 885.76 968.28 L 882.93 967.59" stroke="rgb(140,255,190)" stroke-opacity="0.732" stroke-width="1.17" />
  <path d="M 899.38 1002.60 L 896.70 1003.87 L 894.05 1005.15 L 891.43 1006.48 L 888.74 1007.63 L 886.02 1008.69 L 883.34 1009.79 L 880.59 1010.70 L 877.89 1011.71 L 875.20 1012.69 L 872.48 1013.57 L 869.80 1014.54 L 867.14 1015.50 L 864.47 1016.43 L 861.83 1017.37 L 859.17 1018.27 L 856.50 1019.06 L 853.84 1019.85 L 851.21 1020.74 L 848.57 1021.53 L 845.97 1022.39 L 843.43 1023.40 L 840.89 1024.38 L 838.35 1025.34 L 835.81 1026.24 L 833.29 1027.19 L 830.77 1028.10 L 828.25 1028.98 L 825.73 1029.82 L 823.20 1030.62 L 820.71 1031.49 L 818.22 1032.30 L 815.75 1033.17 L 813.29 1034.03 L 810.83 1034.87 L 808.38 1035.69 L 805.91 1036.39 L 803.45 1037.12" stroke="rgb(205,165,255)" stroke-opacity="0.485" stroke-width="1.17" />
  <path d="M 998.83 1000.57 L 995.80 999.09 L 992.78 997.61 L 989.80 996.10 L 986.85 994.55 L 983.92 992.99 L 981.01 991.42 L 978.10 989.88 L 975.16 988.44 L 972.22 987.01 L 969.27 985.63 L 966.36 984.21 L 963.47 982.77 L 960.59 981.34 L 957.72 979.93 L 954.85 978.54 L 952.00 977.13 L 949.15 975.76 L 946.33 974.36 L 943.52 972.97 L 940.72 971.57 L 937.94 970.18 L 935.14 968.84 L 932.36 967.49 L 929.62 966.11 L 926.88 964.73 L 924.16 963.35 L 921.46 961.96 L 918.72 960.67 L 915.98 959.42 L 913.25 958.16 L 910.53 956.91 L 907.85 955.62 L 905.18 954.33 L 902.51 953.07 L 899.90 951.70 L 897.30 950.35 L 894.69 949.05 L 892.10 947.73 L 889.53 946.38 L 886.99 945.03 L 884.46 943.66 L 881.95 942.29 L 879.48 940.87 L 877.00 939.49 L 874.56 938.05 L 872.14 936.61 L 869.75 935.14 L 867.37 933.69" stroke="rgb(140,255,190)" stroke-opacity="0.729" stroke-width="1.17" />
  <path d="M 999.29 999.38 L 996.24 997.97 L 993.22 996.55 L 990.19 995.15 L 987.20 993.71 L 984.27 992.17" stroke="rgb(140,255,190)" stroke-opacity="0.728" stroke-width="1.16" />
  <path d="M 1000.25 1001.69 L 997.86 999.80" stroke="rgb(205,165,255)" stroke-opacity="0.482" stroke-width="1.16" />
  <path d="M 930.22 989.42 L 926.97 989.68 L 923.73 989.90 L 920.50 990.10 L 917.28 990.26 L 914.07 990.46 L 910.88 990.63 L 907.70 990.83 L 904.54 991.10 L 901.39 991.38 L 898.25 991.58 L 895.12 991.76 L 892.00 991.83 L 888.90 991.95 L 885.80 992.12 L 882.72 992.27 L 879.65 992.43 L 876.60 992.63 L 873.57 992.93 L 870.55 993.26 L 867.54 993.53 L 864.54 993.81 L 861.56 994.12 L 858.59 994.42 L 855.62 994.69 L 852.67 994.95 L 849.73 995.24 L 846.81 995.56 L 843.91 995.96 L 841.03 996.43 L 838.18 996.97 L 835.33 997.45 L 832.48 997.87 L 829.64 998.31 L 826.82 998.76 L 824.00 999.16 L 821.19 999.54 L 818.40 999.96 L 815.62 1000.43 L 812.86 1000.92 L 810.13 1001.46 L 807.39 1001.95 L 804.66 1002.43 L 801.95 1002.92 L 799.27 1003.52 L 796.61 1004.13 L 793.95 1004.74 L 791.29 1005.26 L 788.63 1005.73 L 785.97 1006.18 L 783.32 1006.59 L 780.69 1007.04 L 778.08 1007.54 L 775.48 1008.05 L 772.89 1008.54 L 770.30 1009.00 L 767.72 1009.45 L 765.16 1009.93 L 762.62 1010.45 L 760.08 1010.94 L 757.56 1011.48 L 755.04 1011.94 L 752.54 1012.49 L 750.05 1013.01" stroke="rgb(140,255,190)" stroke-opacity="0.725" stroke-width="1.16" />
  <path d="M 962.18 973.06 L 960.11 970.64 L 958.09 968.19 L 956.04 965.79 L 954.03 963.37 L 952.08 960.91" stroke="rgb(140,255,190)" stroke-opacity="0.725" stroke-width="1.16" />
  <path d="M 999.22 999.08 L 996.29 997.77 L 993.37 996.47 L 990.49 995.14 L 987.63 993.78 L 984.78 992.41 L 981.93 991.09 L 979.08 989.81 L 976.27 988.45 L 973.45 987.15 L 970.62 985.93 L 967.76 984.77 L 964.89 983.69 L 962.02 982.64 L 959.16 981.60 L 956.31 980.58 L 953.50 979.47 L 950.71 978.36 L 947.93 977.24 L 945.15 976.17 L 942.32 975.25 L 939.50 974.35 L 936.70 973.45 L 933.88 972.62 L 931.07 971.81 L 928.27 971.01 L 925.51 970.14 L 922.73 969.34 L 919.95 968.60 L 917.20 967.80 L 914.47 966.98 L 911.78 966.06 L 909.12 965.09 L 906.48 964.08" stroke="rgb(140,255,190)" stroke-opacity="0.724" stroke-width="1.15" />
  <path d="M 999.65 998.88 L 996.73 997.48 L 993.81 996.11 L 990.92 994.72 L 988.01 993.38 L 985.11 992.05 L 982.24 990.70 L 979.38 989.35 L 976.52 988.02 L 973.68 986.68 L 970.86 985.34 L 968.01 984.09 L 965.18 982.82 L 962.37 981.54 L 959.56 980.30 L 956.77 979.03 L 953.98 977.80 L 951.21 976.55 L 948.49 975.22 L 945.81 973.83 L 943.17 972.41 L 940.54 970.99 L 937.91 969.59 L 935.29 968.20 L 932.73 966.73 L 930.14 965.33 L 927.53 963.99 L 924.91 962.70" stroke="rgb(140,255,190)" stroke-opacity="0.724" stroke-width="1.15" />
  <path d="M 999.60 996.98 L 996.80 997.56 L 993.98 998.02 L 991.16 998.40 L 988.35 998.73 L 985.55 999.09 L 982.76 999.40 L 979.98 999.71 L 977.21 1000.01 L 974.46 1000.38 L 971.72 1000.75 L 969.00 1001.15 L 966.28 1001.49 L 963.57 1001.81 L 960.86 1002.11 L 958.18 1002.50 L 955.52 1002.96 L 952.87 1003.40 L 950.24 1003.89 L 947.61 1004.30 L 944.99 1004.79 L 942.39 1005.23 L 939.78 1005.60 L 937.17 1005.89 L 934.57 1006.17 L 931.99 1006.48 L 929.42 1006.86 L 926.88 1007.32 L 924.37 1007.85 L 921.86 1008.35 L 919.35 1008.84 L 916.87 1009.39 L 914.40 1009.96 L 911.95 1010.53 L 909.49 1011.03 L 907.05 1011.56 L 904.61 1012.08 L 902.19 1012.60 L 899.78 1013.17" stroke="rgb(205,165,255)" stroke-opacity="0.481" stroke-width="1.15" />
  <path d="M 949.61 986.17 L 946.86 984.40 L 944.11 982.66 L 941.43 980.84 L 938.77 979.02 L 936.09 977.25 L 933.49 975.39 L 930.88 973.55 L 928.39 971.59 L 925.91 969.62 L 923.42 967.69 L 920.94 965.77" stroke="rgb(140,255,190)" stroke-opacity="0.723" stroke-width="1.15" />
  <path d="M 928.70 969.54 L 925.53 969.76 L 922.38 970.07 L 919.24 970.38 L 916.10 970.63 L 912.99 970.97 L 909.90 971.39 L 906.83 971.87 L 903.79 972.40 L 900.74 972.82 L 897.68 973.15 L 894.64 973.45 L 891.62 973.83 L 888.62 974.23 L 885.62 974.61 L 882.64 974.98 L 879.66 975.29 L 876.69 975.64 L 873.74 975.92 L 870.80 976.27 L 867.87 976.64 L 864.96 976.98 L 862.06 977.35 L 859.17 977.76 L 856.29 978.11 L 853.43 978.48 L 850.58 978.92 L 847.75 979.39 L 844.95 979.89 L 842.14 980.39 L 839.37 980.96 L 836.61 981.53 L 833.85 982.08 L 831.10 982.59 L 828.36 983.07 L 825.63 983.59 L 822.93 984.20 L 820.25 984.84 L 817.57 985.39 L 814.90 985.97 L 812.24 986.56 L 809.60 987.18 L 806.97 987.78 L 804.35 988.36 L 801.72 988.89 L 799.11 989.41 L 796.49 989.84 L 793.88 990.31 L 791.31 990.88" stroke="rgb(140,255,190)" stroke-opacity="0.723" stroke-width="1.15" />
  <path d="M 1053.14 968.73 L 1054.71 966.18 L 1056.32 963.66 L 1057.93 961.17 L 1059.63 958.75 L 1061.37 956.37 L 1063.13 954.03 L 1064.84 951.65 L 1066.59 949.33 L 1068.37 947.04 L 1070.22 944.82 L 1072.09 942.63 L 1073.98 940.48 L 1075.88 938.34 L 1077.78 936.23 L 1079.66 934.12 L 1081.53 932.00 L 1083.35 929.87 L 1085.13 927.71 L 1086.84 925.51 L 1088.49 923.28 L 1090.21 921.12 L 1091.94 918.97 L 1093.66 916.84 L 1095.33 914.68 L 1096.96 912.50 L 1098.71 910.43 L 1100.37 908.30 L 1102.04 906.20 L 1103.65 904.06 L 1105.28 901.95 L 1106.92 899.86 L 1108.45 897.71 L 1109.97 895.56 L 1111.47 893.40 L 1113.03 891.30 L 1114.55 889.19 L 1116.17 887.17 L 1117.72 885.11 L 1119.24 883.03 L 1120.78 880.99 L 1122.29 878.93" stroke="rgb(205,165,255)" stroke-opacity="0.480" stroke-width="1.15" />
  <path d="M 1046.28 1051.29 L 1049.20 1051.71 L 1052.09 1052.18 L 1055.00 1052.54 L 1057.89 1052.87 L 1060.78 1053.19 L 1063.66 1053.43 L 1066.52 1053.71 L 1069.38 1053.94 L 1072.22 1054.25 L 1075.04 1054.59 L 1077.87 1054.82 L 1080.68 1054.98 L 1083.49 1055.04 L 1086.29 1055.08 L 1089.08 1055.19 L 1091.85 1055.27 L 1094.62 1055.35 L 1097.37 1055.32 L 1100.11 1055.23 L 1102.85 1055.15 L 1105.57 1055.09 L 1108.28 1055.03 L 1110.98 1055.07 L 1113.66 1055.30 L 1116.31 1055.62 L 1118.97 1055.82 L 1121.62 1056.04 L 1124.25 1056.38 L 1126.86 1056.70 L 1129.48 1056.92 L 1132.08 1057.15 L 1134.67 1057.49 L 1137.25 1057.76 L 1139.81 1058.09 L 1142.37 1058.33" stroke="rgb(205,165,255)" stroke-opacity="0.480" stroke-width="1.15" />
  <path d="M 953.59 977.24 L 951.25 974.88 L 948.99 972.47 L 946.72 970.08 L 944.42 967.74 L 942.11 965.43 L 939.84 963.10 L 937.60 960.76 L 935.44 958.36 L 933.38 955.88 L 931.27 953.48 L 929.17 951.08 L 927.04 948.72 L 924.95 946.34 L 922.88 943.97 L 920.84 941.58 L 918.72 939.28 L 916.61 936.99 L 914.46 934.76 L 912.31 932.54 L 910.16 930.33 L 908.01 928.15 L 905.84 926.01 L 903.70 923.85 L 901.56 921.70 L 899.45 919.55 L 897.34 917.42 L 895.28 915.24 L 893.27 913.04 L 891.26 910.85 L 889.27 908.67 L 887.28 906.50 L 885.33 904.31 L 883.38 902.13" stroke="rgb(140,255,190)" stroke-opacity="0.722" stroke-width="1.15" />
  <path d="M 999.52 1002.45 L 997.32 1001.51 L 995.19 1000.45 L 993.04 999.45 L 990.81 998.68 L 988.58 997.94 L 986.35 997.22 L 984.19 996.36 L 982.02 995.51 L 979.93 994.52 L 977.85 993.53 L 975.84 992.43 L 973.80 991.39 L 971.74 990.43 L 969.68 989.47 L 967.62 988.55 L 965.50 987.79 L 963.34 987.20 L 961.18 986.66 L 959.03 986.09 L 956.90 985.49 L 954.77 984.91 L 952.67 984.28 L 950.62 983.50 L 948.55 982.84 L 946.47 982.20 L 944.40 981.60 L 942.33 981.01 L 940.31 980.29 L 938.28 979.61 L 936.29 978.87 L 934.29 978.16 L 932.30 977.46 L 930.34 976.71 L 928.41 975.90 L 926.45 975.19 L 924.52 974.42 L 922.58 973.70 L 920.64 973.01 L 918.71 972.32 L 916.82 971.55 L 914.99 970.66 L 913.15 969.80 L 911.33 968.93" stroke="rgb(140,255,190)" stroke-opacity="0.540" stroke-width="1.14" />
  <path d="M 999.50 999.34 L 997.32 998.33 L 995.15 997.31 L 992.96 996.36 L 990.80 995.37 L 988.58 994.55 L 986.35 993.79 L 984.13 993.01 L 981.94 992.21 L 979.75 991.41 L 977.59 990.55 L 975.45 989.69 L 973.35 988.74 L 971.26 987.81" stroke="rgb(140,255,190)" stroke-opacity="0.540" stroke-width="1.14" />
  <path d="M 995.36 999.48 L 992.25 998.46 L 989.13 997.55 L 986.02 996.65 L 982.91 995.78 L 979.81 994.93 L 976.72 994.08 L 973.62 993.31 L 970.55 992.51 L 967.50 991.66 L 964.48 990.78 L 961.47 989.88 L 958.49 988.93 L 955.52 987.99 L 952.56 987.09 L 949.61 986.17 L 946.65 985.31 L 943.73 984.39 L 940.81 983.51 L 937.90 982.62 L 935.02 981.69 L 932.18 980.68 L 929.36 979.64 L 926.56 978.60 L 923.76 977.57 L 920.95 976.63 L 918.15 975.67" stroke="rgb(140,255,190)" stroke-opacity="0.720" stroke-width="1.14" />
  <path d="M 998.55 1000.97 L 997.33 998.11 L 996.12 995.25 L 994.86 992.43 L 993.66 989.59 L 992.47 986.77 L 991.33 983.93 L 990.17 981.12 L 988.89 978.38 L 987.65 975.62 L 986.42 972.88 L 985.17 970.16 L 983.99 967.42 L 982.93 964.65 L 981.90 961.88 L 980.90 959.11 L 979.95 956.33 L 979.03 953.56 L 978.12 950.79 L 977.17 948.05 L 976.23 945.33 L 975.24 942.63 L 974.29 939.92 L 973.37 937.22 L 972.42 934.55 L 971.43 931.89 L 970.48 929.24 L 969.54 926.59 L 968.61 923.96 L 967.68 921.33 L 966.69 918.74 L 965.70 916.16 L 964.70 913.60 L 963.65 911.07 L 962.56 908.57" stroke="rgb(140,255,190)" stroke-opacity="0.719" stroke-width="1.14" />
  <path d="M 874.56 938.05 L 871.56 937.32 L 868.57 936.58 L 865.58 935.85 L 862.61 935.16 L 859.65 934.41 L 856.72 933.66 L 853.81 932.84 L 850.90 932.09 L 847.99 931.37 L 845.11 930.57 L 842.22 929.88 L 839.33 929.24 L 836.47 928.54 L 833.61 927.86 L 830.76 927.19 L 827.94 926.45 L 825.12 925.78 L 822.31 925.12 L 819.51 924.43 L 816.72 923.79 L 813.95 923.10 L 811.20 922.37 L 808.44 921.74 L 805.67 921.19 L 802.93 920.59 L 800.21 919.89 L 797.50 919.26 L 794.79 918.64 L 792.11 917.97 L 789.44 917.27 L 786.79 916.57 L 784.13 915.94 L 781.49 915.29" stroke="rgb(140,255,190)" stroke-opacity="0.539" stroke-width="1.14" />
  <path d="M 1108.45 897.71 L 1108.97 894.88 L 1109.52 892.08 L 1110.15 889.30 L 1110.69 886.51 L 1111.33 883.76 L 1111.86 880.99 L 1112.50 878.26 L 1113.22 875.56 L 1113.86 872.86 L 1114.28 870.12 L 1114.78 867.41 L 1115.29 864.71 L 1115.89 862.03 L 1116.41 859.36 L 1116.85 856.68 L 1117.36 854.02 L 1118.03 851.41 L 1118.56 848.78 L 1119.15 846.18 L 1119.66 843.57 L 1120.18 840.97 L 1120.56 838.35 L 1120.89 835.74 L 1121.30 833.16 L 1121.73 830.58 L 1122.22 828.03 L 1122.84 825.52 L 1123.36 823.00 L 1123.99 820.51 L 1124.68 818.05 L 1125.53 815.64 L 1126.42 813.27 L 1127.30 810.90 L 1128.17 808.54 L 1129.04 806.19 L 1129.72 803.79 L 1130.40 801.40 L 1131.26 799.08 L 1132.13 796.77 L 1132.97 794.46 L 1133.67 792.11 L 1134.36 789.78 L 1134.99 787.43 L 1135.67 785.11 L 1136.31 782.79 L 1136.92 780.47 L 1137.59 778.18 L 1138.24 775.89 L 1138.93 773.62 L 1139.56 771.35 L 1140.10 769.06 L 1140.78 766.82 L 1141.47 764.59 L 1142.11 762.36 L 1142.78 760.15 L 1143.41 757.93 L 1144.11 755.75 L 1144.86 753.59 L 1145.63 751.44 L 1146.45 749.33 L 1147.31 747.24 L 1148.14 745.15 L 1148.97 743.07 L 1149.85 741.02 L 1150.66 738.95 L 1151.47 736.89 L 1152.29 734.85 L 1153.11 732.81" stroke="rgb(205,165,255)" stroke-opacity="0.477" stroke-width="1.14" />
  <path d="M 1058.37 959.35 L 1060.51 956.97 L 1062.56 954.53 L 1064.53 952.04 L 1066.51 949.57 L 1068.50 947.14 L 1070.40 944.64 L 1072.33 942.18 L 1074.27 939.74 L 1076.22 937.34 L 1078.25 935.01 L 1080.26 932.69 L 1082.23 930.34 L 1084.21 928.02 L 1086.10 925.65 L 1088.02 923.30 L 1089.90 920.95 L 1091.78 918.61 L 1093.60 916.24 L 1095.41 913.88 L 1097.21 911.52 L 1099.00 909.17 L 1100.75 906.80 L 1102.47 904.43 L 1104.21 902.09 L 1106.06 899.85 L 1107.96 897.66 L 1109.83 895.46 L 1111.70 893.29 L 1113.55 891.10 L 1115.45 888.98 L 1117.35 886.87 L 1119.32 884.84 L 1121.30 882.85 L 1123.23 880.81 L 1125.12 878.75 L 1126.96 876.67 L 1128.84 874.64 L 1130.76 872.65 L 1132.65 870.65 L 1134.50 868.64 L 1136.36 866.65 L 1138.24 864.68 L 1140.09 862.71 L 1141.93 860.75 L 1143.78 858.80 L 1145.64 856.89 L 1147.47 854.96 L 1149.31 853.05 L 1151.19 851.19 L 1152.96 849.25 L 1154.76 847.34 L 1156.54 845.43 L 1158.30 843.53 L 1160.05 841.62 L 1161.78 839.71 L 1163.44 837.75 L 1165.11 835.82 L 1166.78 833.89 L 1168.44 831.97 L 1170.09 830.06 L 1171.75 828.17 L 1173.37 826.25 L 1174.96 824.33 L 1176.56 822.43 L 1178.11 820.50 L 1179.57 818.51 L 1181.13 816.61 L 1182.64 814.69 L 1184.18 812.80 L 1185.63 810.85 L 1187.05 808.90 L 1188.49 806.96 L 1189.96 805.07 L 1191.45 803.21 L 1192.97 801.37 L 1194.42 799.50" stroke="rgb(140,255,190)" stroke-opacity="0.718" stroke-width="1.14" />
  <path d="M 954.01 985.47 L 950.78 985.79 L 947.56 986.03 L 944.35 986.25 L 941.15 986.41 L 937.96 986.61 L 934.78 986.72 L 931.62 986.76 L 928.46 986.78 L 925.32 986.85 L 922.20 986.79 L 919.08 986.73 L 915.98 986.77 L 912.89 986.81 L 909.81 986.90 L 906.74 987.02 L 903.70 987.22 L 900.66 987.38 L 897.63 987.51" stroke="rgb(140,255,190)" stroke-opacity="0.717" stroke-width="1.14" />
  <path d="M 926.75 977.79 L 923.66 978.46 L 920.61 979.21 L 917.56 979.93 L 914.53 980.67 L 911.51 981.39 L 908.48 982.03 L 905.47 982.68 L 902.46 983.28 L 899.46 983.85 L 896.46 984.39 L 893.48 984.97 L 890.53 985.58 L 887.56 986.10 L 884.61 986.62 L 881.70 987.29 L 878.82 988.00 L 875.95 988.73 L 873.12 989.56 L 870.30 990.38 L 867.48 991.16 L 864.67 991.93 L 861.88 992.72 L 859.09 993.47 L 856.30 994.21 L 853.55 995.01 L 850.82 995.85 L 848.14 996.80 L 845.47 997.74 L 842.83 998.74 L 840.20 999.74 L 837.62 1000.80 L 835.02 1001.82 L 832.40 1002.75 L 829.81 1003.70 L 827.22 1004.63 L 824.63 1005.56 L 822.05 1006.45 L 819.50 1007.41 L 816.96 1008.34 L 814.47 1009.38" stroke="rgb(140,255,190)" stroke-opacity="0.716" stroke-width="1.13" />
  <path d="M 1000.67 1000.77 L 998.34 999.97 L 996.06 999.11 L 993.75 998.34 L 991.47 997.50 L 989.23 996.60 L 987.04 995.62 L 984.92 994.50 L 982.84 993.34 L 980.74 992.21 L 978.69 991.03 L 976.63 989.89 L 974.60 988.72 L 972.55 987.59 L 970.55 986.39 L 968.62 985.11 L 966.69 983.83 L 964.79 982.55 L 962.94 981.18 L 961.09 979.85 L 959.22 978.55 L 957.32 977.32 L 955.40 976.14 L 953.51 974.94 L 951.61 973.74 L 949.76 972.51 L 947.84 971.40 L 945.89 970.35 L 943.96 969.30 L 942.08 968.16 L 940.21 967.04 L 938.30 966.00" stroke="rgb(140,255,190)" stroke-opacity="0.537" stroke-width="1.13" />
  <path d="M 949.91 988.57 L 947.51 986.49 L 945.17 984.36 L 942.85 982.23 L 940.57 980.07 L 938.28 977.94 L 936.01 975.81 L 933.77 973.67 L 931.59 971.47 L 929.46 969.25 L 927.40 966.99 L 925.37 964.71 L 923.38 962.40 L 921.37 960.14 L 919.47 957.80 L 917.57 955.47 L 915.63 953.20 L 913.68 950.95 L 911.68 948.76 L 909.66 946.59 L 907.73 944.37 L 905.84 942.13 L 903.86 939.98 L 901.85 937.88 L 899.94 935.70 L 898.08 933.49 L 896.23 931.29 L 894.39 929.10 L 892.53 926.94 L 890.66 924.81 L 888.80 922.67 L 887.00 920.51 L 885.21 918.35 L 883.39 916.23 L 881.64 914.06 L 879.94 911.87 L 878.26 909.68 L 876.53 907.54 L 874.80 905.42 L 873.06 903.32 L 871.33 901.22 L 869.59 899.15 L 867.87 897.08 L 866.07 895.08 L 864.28 893.10 L 862.55 891.08 L 860.77 889.11 L 859.01 887.13 L 857.26 885.17 L 855.52 883.21 L 853.76 881.28 L 852.04 879.33 L 850.34 877.38 L 848.64 875.43 L 846.97 873.49" stroke="rgb(140,255,190)" stroke-opacity="0.716" stroke-width="1.13" />
  <path d="M 999.17 1000.08 L 996.30 998.85 L 993.42 997.67 L 990.54 996.53 L 987.66 995.42 L 984.78 994.32 L 981.94 993.17 L 979.08 992.11 L 976.22 991.08 L 973.37 990.07 L 970.52 989.09 L 967.68 988.11 L 964.91 986.98 L 962.14 985.88 L 959.36 984.84 L 956.61 983.77 L 953.86 982.70 L 951.12 981.66 L 948.39 980.64 L 945.69 979.56 L 943.03 978.41 L 940.34 977.36 L 937.66 976.34 L 935.00 975.28 L 932.35 974.23 L 929.73 973.14 L 927.11 972.08 L 924.51 970.99 L 921.93 969.89 L 919.38 968.75 L 916.83 967.62 L 914.30 966.49 L 911.78 965.38 L 909.22 964.37 L 906.65 963.42 L 904.08 962.52 L 901.51 961.64 L 898.94 960.78 L 896.37 959.98 L 893.77 959.29 L 891.19 958.59 L 888.60 957.96 L 886.02 957.36 L 883.45 956.76 L 880.90 956.12 L 878.37 955.42 L 875.86 954.72" stroke="rgb(140,255,190)" stroke-opacity="0.715" stroke-width="1.13" />
  <path d="M 942.51 964.51 L 940.44 963.05 L 938.45 961.48 L 936.47 959.92 L 934.41 958.49 L 932.32 957.12 L 930.31 955.66 L 928.33 954.17 L 926.34 952.71 L 924.29 951.34 L 922.21 950.06 L 920.06 948.91 L 917.88 947.83 L 915.71 946.76 L 913.57 945.65 L 911.45 944.53 L 909.31 943.47 L 907.13 942.50 L 904.99 941.47 L 902.92 940.35 L 900.82 939.29 L 898.71 938.27 L 896.58 937.30 L 894.46 936.36 L 892.31 935.49 L 890.17 934.63 L 888.11 933.62 L 886.06 932.60 L 884.10 931.43 L 882.18 930.23 L 880.22 929.10 L 878.23 928.05 L 876.23 927.03 L 874.26 925.98 L 872.30 924.94 L 870.27 924.05 L 868.22 923.22 L 866.21 922.33 L 864.19 921.49" stroke="rgb(140,255,190)" stroke-opacity="0.536" stroke-width="1.13" />
  <path d="M 937.90 982.62 L 935.54 980.62 L 933.13 978.68 L 930.76 976.73 L 928.44 974.74 L 926.11 972.77 L 923.79 970.81 L 921.49 968.85 L 919.18 966.92 L 916.87 965.00 L 914.63 963.03 L 912.40 961.05 L 910.27 958.99 L 908.14 956.95 L 906.00 954.93 L 903.79 953.02 L 901.51 951.19 L 899.19 949.45 L 896.82 947.78 L 894.46 946.13 L 892.11 944.48 L 889.74 942.88 L 887.41 941.25 L 885.09 939.61 L 882.78 937.98 L 880.59 936.23 L 878.39 934.49 L 876.20 932.76 L 873.94 931.13 L 871.70 929.51 L 869.57 927.76 L 867.42 926.05 L 865.29 924.34 L 863.16 922.63 L 861.06 920.91 L 859.01 919.16 L 856.95 917.42 L 854.89 915.70 L 852.80 914.04 L 850.78 912.31 L 848.72 910.65 L 846.72 908.93 L 844.78 907.16 L 842.79 905.45 L 840.81 903.76 L 838.80 902.11" stroke="rgb(140,255,190)" stroke-opacity="0.535" stroke-width="1.13" />
  <path d="M 1004.10 1001.41 L 1001.14 1000.25 L 998.18 999.14 L 995.24 998.02 L 992.31 996.89 L 989.41 995.74" stroke="rgb(140,255,190)" stroke-opacity="0.714" stroke-width="1.13" />
  <path d="M 898.08 933.36 L 895.33 931.80 L 892.62 930.21 L 889.89 928.68 L 887.21 927.08 L 884.51 925.54 L 881.84 923.99 L 879.13 922.51 L 876.47 920.99 L 873.87 919.38 L 871.30 917.75 L 868.79 916.05 L 866.34 914.29 L 863.87 912.56 L 861.49 910.74 L 859.10 908.97 L 856.74 907.16 L 854.39 905.35 L 852.05 903.56 L 849.68 901.82 L 847.32 900.10 L 845.01 898.33 L 842.76 896.49 L 840.53 894.66 L 838.31 892.82 L 836.11 890.99 L 833.90 889.17 L 831.68 887.40 L 829.50 885.59 L 827.29 883.83 L 825.07 882.12 L 822.90 880.35 L 820.73 878.60 L 818.60 876.82 L 816.53 874.98 L 814.48 873.15 L 812.47 871.28 L 810.50 869.39 L 808.42 867.63 L 806.38 865.84 L 804.30 864.13 L 802.23 862.41 L 800.17 860.70 L 798.17 858.93 L 796.26 857.09 L 794.36 855.25 L 792.41 853.48 L 790.52 851.65 L 788.60 849.88 L 786.70 848.10 L 784.92 846.21" stroke="rgb(140,255,190)" stroke-opacity="0.713" stroke-width="1.13" />
  <path d="M 998.60 999.49 L 995.66 998.66 L 992.73 997.84 L 989.79 997.10 L 986.85 996.38 L 983.94 995.61 L 981.06 994.79" stroke="rgb(140,255,190)" stroke-opacity="0.535" stroke-width="1.13" />
  <path d="M 1002.49 1001.79 L 1004.42 1003.64 L 1006.24 1005.58 L 1008.00 1007.57 L 1009.74 1009.56 L 1011.46 1011.55 L 1013.14 1013.56 L 1014.85 1015.54 L 1016.47 1017.57 L 1018.10 1019.58 L 1019.71 1021.60 L 1021.38 1023.54 L 1023.13 1025.41 L 1024.86 1027.28 L 1026.66 1029.07 L 1028.42 1030.88 L 1030.11 1032.75 L 1031.79 1034.61 L 1033.52 1036.41 L 1035.28 1038.17 L 1036.99 1039.96 L 1038.63 1041.81 L 1040.21 1043.69 L 1041.77 1045.57 L 1043.38 1047.40 L 1044.86 1049.33 L 1046.28 1051.29 L 1047.62 1053.29 L 1048.83 1055.36 L 1049.99 1057.45 L 1051.23 1059.49 L 1052.54 1061.46 L 1053.83 1063.44 L 1055.11 1065.41 L 1056.40 1067.36 L 1057.69 1069.31 L 1058.92 1071.28" stroke="rgb(205,165,255)" stroke-opacity="0.473" stroke-width="1.12" />
  <path d="M 932.73 966.73 L 929.59 966.75 L 926.47 966.81 L 923.36 966.88 L 920.27 966.89 L 917.18 966.95 L 914.11 966.97 L 911.05 966.96 L 908.01 966.94 L 904.97 966.82 L 901.95 966.69 L 898.94 966.62 L 895.94 966.54 L 892.96 966.44 L 889.99 966.37 L 887.02 966.30 L 884.07 966.30 L 881.13 966.19 L 878.21 966.01 L 875.30 965.88 L 872.40 965.65 L 869.52 965.42 L 866.65 965.15 L 863.78 965.08 L 860.93 965.08 L 858.08 965.15 L 855.25 965.19 L 852.42 965.20 L 849.61 965.16 L 846.81 965.11 L 844.02 965.08 L 841.24 965.02 L 838.47 964.97 L 835.72 964.89 L 832.97 964.82 L 830.24 964.76 L 827.52 964.63 L 824.81 964.44 L 822.12 964.16 L 819.44 963.95 L 816.77 963.69 L 814.12 963.42 L 811.47 963.16 L 808.83 962.93 L 806.20 962.72 L 803.59 962.46 L 800.99 962.12 L 798.41 961.76 L 795.84 961.41 L 793.29 961.00 L 790.74 960.61 L 788.23 960.09 L 785.74 959.54 L 783.27 958.93 L 780.81 958.32 L 778.35 957.72 L 775.90 957.19 L 773.44 956.70 L 771.00 956.18 L 768.58 955.64 L 766.17 955.06 L 763.77 954.50 L 761.41 953.83 L 759.06 953.16 L 756.70 952.55 L 754.34 952.00 L 751.99 951.45 L 749.65 950.88 L 747.33 950.30 L 744.99 949.82 L 742.68 949.26 L 740.41 948.60 L 738.14 947.96 L 735.87 947.34 L 733.65 946.63 L 731.44 945.89 L 729.25 945.11 L 727.06 944.38 L 724.87 943.66 L 722.68 942.98 L 720.49 942.35 L 718.30 941.72 L 716.12 941.10 L 713.95 940.51 L 711.77 939.95 L 709.59 939.43 L 707.42 938.93" stroke="rgb(140,255,190)" stroke-opacity="0.712" stroke-width="1.12" />
  <path d="M 911.73 987.82 L 910.01 985.96 L 908.30 984.10 L 906.51 982.33 L 904.69 980.61 L 902.92 978.85 L 901.07 977.19 L 899.39 975.37 L 897.63 973.64" stroke="rgb(140,255,190)" stroke-opacity="0.534" stroke-width="1.12" />
  <path d="M 932.63 986.52 L 929.57 986.46 L 926.51 986.34 L 923.47 986.27 L 920.44 986.21 L 917.42 986.22 L 914.42 986.10 L 911.43 986.05 L 908.44 986.09 L 905.48 985.86 L 902.52 985.75 L 899.58 985.58 L 896.65 985.46 L 893.73 985.35 L 890.82 985.28 L 887.92 985.25 L 885.03 985.21 L 882.15 985.17 L 879.29 984.98 L 876.46 984.65 L 873.63 984.35 L 870.82 984.05 L 868.01 983.80 L 865.21 983.62 L 862.41 983.51 L 859.63 983.36 L 856.87 983.08 L 854.12 982.77" stroke="rgb(140,255,190)" stroke-opacity="0.533" stroke-width="1.12" />
  <path d="M 1000.22 998.63 L 997.40 997.64 L 994.61 996.58 L 991.77 995.69 L 988.97 994.75 L 986.16 993.84 L 983.40 992.86 L 980.63 991.92 L 977.86 991.01 L 975.10 990.10 L 972.33 989.29 L 969.56 988.50 L 966.79 987.78 L 964.02 987.07" stroke="rgb(140,255,190)" stroke-opacity="0.533" stroke-width="1.12" />
  <path d="M 959.03 986.09 L 956.91 983.91 L 954.79 981.76 L 952.69 979.61 L 950.66 977.41 L 948.68 975.17 L 946.60 973.05 L 944.52 970.93 L 942.47 968.81 L 940.49 966.64 L 938.58 964.43 L 936.61 962.28 L 934.73 960.07 L 932.84 957.88 L 930.95 955.71" stroke="rgb(140,255,190)" stroke-opacity="0.532" stroke-width="1.12" />
  <path d="M 872.30 924.94 L 870.84 922.22 L 869.45 919.47 L 868.15 916.69 L 866.95 913.88 L 865.84 911.05 L 864.71 908.24 L 863.70 905.40 L 862.73 902.55 L 861.69 899.75 L 860.43 897.04 L 859.27 894.31 L 858.11 891.59 L 857.00 888.86 L 855.86 886.16 L 854.75 883.45 L 853.66 880.75 L 852.50 878.10 L 851.27 875.48 L 849.92 872.95 L 848.62 870.40 L 847.26 867.89 L 845.89 865.40 L 844.47 862.95 L 843.06 860.51 L 841.71 858.05 L 840.46 855.54 L 839.01 853.17 L 837.48 850.85 L 835.96 848.55 L 834.49 846.22 L 833.00 843.91 L 831.42 841.69 L 829.89 839.44 L 828.37 837.20 L 826.91 834.93 L 825.47 832.67 L 824.04 830.41 L 822.67 828.12 L 821.32 825.84 L 819.97 823.56 L 818.65 821.28 L 817.32 819.02 L 815.97 816.79 L 814.64 814.55 L 813.26 812.36 L 811.89 810.17 L 810.53 807.99 L 809.27 805.76 L 808.03 803.53 L 806.75 801.33 L 805.47 799.15 L 804.27 796.94" stroke="rgb(140,255,190)" stroke-opacity="0.531" stroke-width="1.11" />
  <path d="M 856.18 967.14 L 853.72 966.54 L 851.32 965.78 L 848.88 965.18 L 846.41 964.79 L 843.94 964.46 L 841.49 964.13 L 839.07 963.62 L 836.63 963.29 L 834.19 963.25 L 831.75 963.20 L 829.32 963.32" stroke="rgb(140,255,190)" stroke-opacity="0.531" stroke-width="1.11" />
  <path d="M 940.31 980.29 L 938.24 978.33 L 936.19 976.38 L 934.12 974.48 L 932.04 972.59 L 929.91 970.77 L 927.96 968.78 L 925.94 966.89 L 923.93 964.99 L 921.93 963.10 L 920.09 961.07 L 918.15 959.14 L 916.23 957.22 L 914.28 955.34 L 912.37 953.43 L 910.49 951.51 L 908.68 949.54 L 906.89 947.57 L 905.08 945.63 L 903.35 943.63 L 901.65 941.62 L 899.87 939.70 L 898.10 937.77 L 896.36 935.84 L 894.65 933.89 L 892.99 931.92 L 891.27 930.00 L 889.51 928.15 L 887.72 926.32 L 885.89 924.57 L 884.01 922.87" stroke="rgb(140,255,190)" stroke-opacity="0.531" stroke-width="1.11" />
  <path d="M 845.31 894.85 L 844.26 892.00 L 843.17 889.17 L 842.09 886.35 L 841.06 883.53 L 840.15 880.67 L 839.38 877.79 L 838.48 874.96 L 837.60 872.14 L 836.69 869.34 L 835.91 866.51 L 835.31 863.65 L 834.78 860.78 L 834.24 857.94 L 833.75 855.09 L 833.30 852.25 L 832.78 849.43 L 832.40 846.60 L 831.95 843.80 L 831.30 841.04 L 830.61 838.31 L 829.95 835.58 L 829.19 832.89 L 828.51 830.18 L 827.85 827.49 L 827.24 824.79" stroke="rgb(140,255,190)" stroke-opacity="0.531" stroke-width="1.11" />
  <path d="M 947.03 974.01 L 944.82 971.89 L 942.66 969.73 L 940.46 967.62 L 938.25 965.55 L 936.00 963.53 L 933.80 961.49 L 931.55 959.51 L 929.31 957.54 L 927.08 955.58 L 924.82 953.67 L 922.54 951.80 L 920.35 949.84 L 918.16 947.90 L 915.96 946.00 L 913.76 944.10 L 911.43 942.41 L 909.12 940.69 L 906.77 939.04 L 904.42 937.43 L 902.10 935.78 L 899.76 934.19 L 897.39 932.66 L 895.07 931.07 L 892.74 929.53 L 890.37 928.06 L 888.02 926.59 L 885.68 925.11 L 883.42 923.54 L 881.16 921.99 L 878.95 920.39 L 876.77 918.76 L 874.63 917.09 L 872.57 915.36 L 870.48 913.67 L 868.37 912.02 L 866.25 910.40 L 864.14 908.79 L 862.04 907.18 L 859.90 905.64 L 857.82 904.03 L 855.78 902.41 L 853.71 900.82 L 851.61 899.31 L 849.53 897.78 L 847.44 896.28 L 845.31 894.85 L 843.19 893.43 L 841.06 892.04 L 838.92 890.70 L 836.82 889.31 L 834.66 888.03 L 832.54 886.70 L 830.43 885.38 L 828.29 884.11 L 826.18 882.83 L 824.06 881.58 L 821.92 880.38 L 819.77 879.23 L 817.64 878.07 L 815.53 876.87 L 813.40 875.74 L 811.28 874.61 L 809.20 873.43 L 807.12 872.26 L 805.04 871.13 L 802.92 870.07 L 800.76 869.13 L 798.58 868.28 L 796.41 867.41 L 794.26 866.52 L 792.10 865.68 L 789.92 864.93 L 787.73 864.23 L 785.54 863.55 L 783.36 862.89 L 781.18 862.25 L 779.01 861.62 L 776.86 860.94 L 774.73 860.21 L 772.61 859.52 L 770.49 858.84 L 768.38 858.15" stroke="rgb(140,255,190)" stroke-opacity="0.530" stroke-width="1.11" />
  <path d="M 998.16 1002.37 L 995.44 1001.35 L 992.68 1000.49 L 989.94 999.58 L 987.25 998.56 L 984.58 997.55 L 981.91 996.55 L 979.27 995.52 L 976.66 994.43 L 974.09 993.28 L 971.45 992.33 L 968.80 991.45 L 966.18 990.49 L 963.58 989.56 L 960.96 988.67 L 958.35 987.80 L 955.73 987.02 L 953.09 986.35 L 950.47 985.64 L 947.88 984.85 L 945.30 984.06 L 942.73 983.30 L 940.15 982.61 L 937.55 982.03 L 934.95 981.50 L 932.36 981.00 L 929.76 980.59 L 927.17 980.20 L 924.59 979.83 L 922.01 979.52 L 919.44 979.22 L 916.87 978.98" stroke="rgb(140,255,190)" stroke-opacity="0.530" stroke-width="1.11" />
  <path d="M 856.18 967.14 L 853.30 966.49 L 850.45 965.79 L 847.61 965.06 L 844.77 964.42 L 841.92 963.86 L 839.08 963.31 L 836.25 962.80 L 833.43 962.25 L 830.62 961.76 L 827.82 961.24 L 825.02 960.81 L 822.23 960.43 L 819.43 960.09 L 816.65 959.76 L 813.90 959.32 L 811.16 958.89 L 808.42 958.46 L 805.69 958.10 L 802.98 957.70 L 800.28 957.25 L 797.60 956.80 L 794.94 956.28 L 792.27 955.83 L 789.61 955.45 L 786.97 955.02 L 784.33 954.60 L 781.71 954.17 L 779.11 953.68 L 776.52 953.19 L 773.92 952.79 L 771.33 952.45 L 768.75 952.05 L 766.20 951.60 L 763.65 951.16" stroke="rgb(140,255,190)" stroke-opacity="0.530" stroke-width="1.11" />
  <path d="M 924.51 970.99 L 921.57 971.40 L 918.65 971.85 L 915.73 972.22 L 912.82 972.58 L 909.93 972.96 L 907.03 973.21 L 904.14 973.40 L 901.26 973.59 L 898.39 973.69 L 895.53 973.83 L 892.68 973.92 L 889.85 974.09 L 887.02 974.24 L 884.21 974.22 L 881.41 974.10 L 878.62 973.93 L 875.84 973.69 L 873.08 973.57 L 870.32 973.49 L 867.57 973.36 L 864.83 973.28 L 862.11 973.28 L 859.39 973.37 L 856.69 973.54 L 854.00 973.75 L 851.33 973.97 L 848.67 974.21 L 846.03 974.58 L 843.42 975.06 L 840.83 975.55 L 838.23 975.96 L 835.63 976.33 L 833.05 976.67 L 830.46 976.95 L 827.88 977.19 L 825.32 977.47 L 822.76 977.73" stroke="rgb(140,255,190)" stroke-opacity="0.529" stroke-width="1.11" />
  <path d="M 1005.63 1002.11 L 1002.75 1001.28 L 999.89 1000.44 L 997.03 999.64 L 994.17 998.89 L 991.32 998.18 L 988.48 997.43 L 985.66 996.65 L 982.83 995.97 L 980.00 995.33 L 977.19 994.68 L 974.39 994.02 L 971.59 993.44 L 968.79 992.90 L 965.99 992.41 L 963.19 991.98 L 960.40 991.61 L 957.61 991.27 L 954.83 990.96 L 952.06 990.68 L 949.30 990.37 L 946.55 990.10 L 943.81 989.92 L 941.07 989.78 L 938.34 989.63 L 935.63 989.53 L 932.92 989.46 L 930.22 989.42 L 927.54 989.34 L 924.86 989.28 L 922.20 989.12 L 919.56 988.87 L 916.94 988.54 L 914.33 988.16 L 911.73 987.82 L 909.15 987.43 L 906.56 987.13 L 903.98 986.96 L 901.41 986.74 L 898.84 986.61 L 896.28 986.47 L 893.74 986.29 L 891.21 986.10 L 888.68 985.90 L 886.18 985.62 L 883.69 985.30 L 881.21 985.03 L 878.72 984.87 L 876.25 984.76 L 873.78 984.64 L 871.32 984.51 L 868.88 984.39 L 866.44 984.36 L 864.01 984.34" stroke="rgb(140,255,190)" stroke-opacity="0.529" stroke-width="1.11" />
  <path d="M 1003.74 999.34 L 1000.85 998.57 L 997.95 997.90 L 995.05 997.27 L 992.20 996.52 L 989.35 995.79 L 986.53 994.99 L 983.73 994.16 L 980.99 993.18 L 978.30 992.10 L 975.65 990.98 L 972.98 989.90 L 970.29 988.92 L 967.61 987.96 L 964.95 986.98 L 962.31 985.96 L 959.71 984.89 L 957.10 983.85 L 954.50 982.84 L 951.92 981.79 L 949.31 980.87 L 946.69 980.01 L 944.06 979.19 L 941.46 978.34 L 938.86 977.53 L 936.26 976.73 L 933.66 976.00 L 931.07 975.26 L 928.48 974.55 L 925.93 973.74 L 923.37 973.01 L 920.84 972.23 L 918.30 971.49 L 915.76 970.80 L 913.22 970.15 L 910.71 969.46 L 908.20 968.78 L 905.70 968.11 L 903.24 967.35 L 900.75 966.71 L 898.28 966.06 L 895.82 965.40 L 893.36 964.79 L 890.90 964.20 L 888.47 963.54 L 886.07 962.82 L 883.67 962.11 L 881.29 961.40 L 878.94 960.62 L 876.64 959.73 L 874.37 958.79 L 872.16 957.73 L 869.94 956.73 L 867.73 955.74 L 865.48 954.83 L 863.24 953.96 L 860.99 953.14 L 858.76 952.28 L 856.53 951.44 L 854.35 950.50 L 852.18 949.59 L 850.04 948.61 L 847.97 947.51 L 845.91 946.42 L 843.88 945.30 L 841.84 944.19 L 839.80 943.13 L 837.76 942.08 L 835.70 941.09 L 833.65 940.10 L 831.58 939.16 L 829.51 938.26" stroke="rgb(140,255,190)" stroke-opacity="0.529" stroke-width="1.11" />
  <path d="M 997.13 998.22 L 994.65 997.31 L 992.18 996.40 L 989.73 995.50 L 987.34 994.43 L 985.01 993.29 L 982.70 992.12 L 980.40 990.96 L 978.11 989.81 L 975.85 988.62 L 973.59 987.45 L 971.34 986.28 L 969.09 985.13 L 966.86 983.96 L 964.64 982.80 L 962.45 981.61 L 960.25 980.44 L 958.05 979.33 L 955.81 978.28 L 953.59 977.24 L 951.39 976.17 L 949.22 975.07 L 947.03 974.01 L 944.82 973.03 L 942.65 972.00 L 940.52 970.90 L 938.45 969.71 L 936.41 968.48 L 934.45 967.16 L 932.54 965.77 L 930.63 964.41" stroke="rgb(140,255,190)" stroke-opacity="0.529" stroke-width="1.11" />
  <path d="M 1002.46 1003.34 L 1000.11 1002.39 L 997.88 1001.22 L 995.68 1000.02 L 993.52 998.76 L 991.32 997.59 L 989.15 996.40 L 987.03 995.13 L 984.97 993.78 L 983.01 992.32 L 981.08 990.82 L 979.23 989.25 L 977.33 987.74 L 975.42 986.28 L 973.57 984.74 L 971.69 983.27 L 969.79 981.83 L 967.84 980.48 L 965.94 979.08 L 964.05 977.67 L 962.17 976.28 L 960.26 974.92 L 958.31 973.67 L 956.33 972.47 L 954.35 971.28 L 952.42 970.03 L 950.47 968.83 L 948.53 967.63 L 946.55 966.53 L 944.53 965.52 L 942.51 964.51 L 940.51 963.51 L 938.47 962.58 L 936.50 961.56 L 934.52 960.56 L 932.53 959.60 L 930.58 958.59 L 928.61 957.63 L 926.66 956.66 L 924.68 955.76 L 922.69 954.92 L 920.71 954.06 L 918.79 953.10 L 916.90 952.09 L 915.02 951.10 L 913.18 950.04 L 911.39 948.92 L 909.63 947.77 L 907.90 946.59 L 906.16 945.44 L 904.45 944.26 L 902.71 943.14 L 900.96 942.04 L 899.20 940.98 L 897.46 939.90 L 895.70 938.88 L 893.95 937.86 L 892.17 936.90 L 890.42 935.91 L 888.67 934.93 L 886.93 933.95 L 885.23 932.92 L 883.49 931.98 L 881.68 931.18 L 879.90 930.36 L 878.16 929.46 L 876.46 928.51 L 874.79 927.50 L 873.14 926.50 L 871.53 925.44 L 869.96 924.34 L 868.37 923.27 L 866.80 922.20 L 865.21 921.17 L 863.57 920.24" stroke="rgb(140,255,190)" stroke-opacity="0.529" stroke-width="1.11" />
  <path d="M 998.92 998.62 L 996.12 997.69 L 993.35 996.72 L 990.58 995.78 L 987.83 994.80 L 985.11 993.79 L 982.42 992.75 L 979.76 991.65 L 977.10 990.56 L 974.46 989.49 L 971.81 988.45 L 969.21 987.32 L 966.62 986.20 L 964.04 985.08 L 961.47 983.98 L 958.90 982.91 L 956.34 981.83 L 953.79 980.76 L 951.24 979.71 L 948.76 978.55 L 946.28 977.39 L 943.80 976.26" stroke="rgb(140,255,190)" stroke-opacity="0.529" stroke-width="1.11" />
  <path d="M 838.26 937.01 L 836.54 934.75 L 834.78 932.53 L 833.11 930.25 L 831.49 927.95 L 829.88 925.66 L 828.41 923.29 L 826.99 920.90 L 825.66 918.47 L 824.33 916.06 L 822.98 913.67 L 821.75 911.22 L 820.46 908.83 L 819.16 906.45 L 817.89 904.06 L 816.57 901.72 L 815.29 899.36 L 813.93 897.06 L 812.42 894.88 L 810.94 892.68 L 809.39 890.55 L 807.96 888.35 L 806.53 886.16 L 804.98 884.06 L 803.44 881.97 L 802.00 879.82 L 800.45 877.76 L 798.94 875.69 L 797.47 873.61 L 795.93 871.58 L 794.39 869.57 L 792.85 867.57 L 791.48 865.46 L 790.18 863.32 L 788.85 861.21 L 787.46 859.15 L 786.14 857.06 L 784.95 854.90 L 783.84 852.72 L 782.87 850.47 L 781.94 848.22 L 781.00 845.99 L 780.08 843.75 L 779.31 841.48 L 778.50 839.22 L 777.80 836.94 L 777.01 834.70 L 776.16 832.49 L 775.27 830.31 L 774.36 828.14 L 773.49 825.97 L 772.59 823.82 L 771.69 821.68 L 770.79 819.56" stroke="rgb(140,255,190)" stroke-opacity="0.529" stroke-width="1.11" />
  <path d="M 881.29 961.40 L 878.95 959.83 L 876.73 958.11 L 874.43 956.52 L 872.07 955.03 L 869.68 953.61 L 867.28 952.25 L 864.89 950.87 L 862.50 949.54 L 860.06 948.31 L 857.68 946.99 L 855.36 945.59 L 853.08 944.15 L 850.73 942.83 L 848.40 941.52 L 846.13 940.12 L 843.88 938.71 L 841.61 937.35 L 839.32 936.06 L 836.98 934.87 L 834.61 933.76 L 832.25 932.67 L 829.87 931.64" stroke="rgb(140,255,190)" stroke-opacity="0.529" stroke-width="1.11" />
  <path d="M 1002.62 999.80 L 999.99 998.60 L 997.36 997.43 L 994.73 996.29 L 992.06 995.27 L 989.38 994.30 L 986.69 993.40 L 983.98 992.62 L 981.29 991.80 L 978.61 991.00 L 975.98 990.05 L 973.39 989.05 L 970.80 988.09 L 968.21 987.14 L 965.62 986.24 L 963.01 985.41 L 960.41 984.60 L 957.80 983.85 L 955.21 983.09 L 952.63 982.34 L 950.04 981.63 L 947.48 980.88 L 944.92 980.15 L 942.37 979.44 L 939.81 978.82 L 937.24 978.26 L 934.69 977.70 L 932.13 977.19 L 929.59 976.68 L 927.06 976.12 L 924.54 975.60 L 922.02 975.16 L 919.48 974.89 L 916.95 974.62 L 914.42 974.42" stroke="rgb(140,255,190)" stroke-opacity="0.528" stroke-width="1.10" />
  <path d="M 965.34 984.26 L 962.48 984.34 L 959.62 984.43 L 956.78 984.61 L 953.97 984.93 L 951.16 985.27 L 948.39 985.70 L 945.63 986.20 L 942.88 986.64 L 940.16 987.22 L 937.47 987.87 L 934.79 988.51 L 932.13 989.18 L 929.46 989.77 L 926.80 990.35 L 924.15 990.93 L 921.51 991.50 L 918.86 991.97 L 916.21 992.36 L 913.57 992.72 L 910.93 993.01 L 908.31 993.40 L 905.70 993.80 L 903.12 994.26 L 900.54 994.70" stroke="rgb(140,255,190)" stroke-opacity="0.527" stroke-width="1.10" />
  <path d="M 1000.22 998.63 L 997.73 997.80 L 995.26 996.97 L 992.80 996.13 L 990.36 995.28 L 987.92 994.43 L 985.52 993.53 L 983.12 992.64 L 980.72 991.81 L 978.30 991.03 L 975.90 990.25 L 973.49 989.54 L 971.07 988.86 L 968.68 988.14 L 966.31 987.41 L 963.93 986.71 L 961.56 986.05 L 959.20 985.37 L 956.86 984.63 L 954.52 983.95 L 952.18 983.33 L 949.84 982.73 L 947.51 982.10 L 945.17 981.58 L 942.82 981.18 L 940.46 980.84 L 938.13 980.42 L 935.80 980.04 L 933.48 979.64 L 931.18 979.21 L 928.89 978.82 L 926.60 978.41" stroke="rgb(140,255,190)" stroke-opacity="0.527" stroke-width="1.10" />
  <path d="M 1001.31 998.54 L 998.74 997.63 L 996.18 996.74 L 993.57 996.01 L 991.00 995.22 L 988.40 994.54 L 985.82 993.86 L 983.20 993.41 L 980.57 993.03 L 977.97 992.58 L 975.36 992.25 L 972.77 991.92 L 970.19 991.53 L 967.61 991.19 L 965.05 990.85 L 962.50 990.44 L 959.97 990.01 L 957.45 989.60 L 954.93 989.21 L 952.42 988.90 L 949.91 988.57 L 947.41 988.25 L 944.93 987.94 L 942.46 987.59 L 940.00 987.24 L 937.54 986.97 L 935.08 986.74 L 932.63 986.52 L 930.20 986.31 L 927.77 986.07 L 925.35 985.89 L 922.94 985.72 L 920.54 985.63 L 918.14 985.52 L 915.77 985.23 L 913.42 984.86 L 911.07 984.55 L 908.75 984.11 L 906.43 983.75 L 904.11 983.43" stroke="rgb(140,255,190)" stroke-opacity="0.527" stroke-width="1.10" />
  <path d="M 968.21 987.14 L 965.63 987.27 L 963.06 987.31 L 960.50 987.50 L 957.96 987.63 L 955.44 987.99" stroke="rgb(140,255,190)" stroke-opacity="0.526" stroke-width="1.10" />
  <path d="M 1001.78 999.34 L 999.09 998.28 L 996.43 997.16 L 993.79 996.05 L 991.19 994.86 L 988.55 993.81 L 985.93 992.73 L 983.30 991.70 L 980.70 990.64 L 978.11 989.57 L 975.51 988.56 L 972.89 987.62 L 970.32 986.61 L 967.81 985.46 L 965.34 984.26 L 962.90 983.04 L 960.47 981.80 L 958.01 980.67 L 955.51 979.65 L 953.01 978.65 L 950.52 977.67 L 948.06 976.63 L 945.62 975.58 L 943.18 974.55 L 940.79 973.43 L 938.43 972.28 L 936.08 971.13 L 933.72 970.03 L 931.40 968.87" stroke="rgb(140,255,190)" stroke-opacity="0.526" stroke-width="1.10" />
  <path d="M 935.80 980.04 L 933.81 978.17 L 931.77 976.36 L 929.73 974.57 L 927.79 972.69 L 925.92 970.75 L 924.17 968.72 L 922.48 966.65 L 920.81 964.58 L 919.13 962.53 L 917.52 960.44 L 915.91 958.37 L 914.35 956.26 L 912.81 954.16 L 911.26 952.07 L 909.70 950.02 L 908.17 947.94 L 906.65 945.87 L 905.23 943.75 L 903.81 941.64 L 902.46 939.49 L 901.07 937.39 L 899.62 935.33 L 898.08 933.36 L 896.50 931.43 L 894.96 929.48 L 893.40 927.55 L 891.83 925.65 L 890.17 923.85 L 888.49 922.07 L 886.76 920.36 L 884.97 918.72 L 883.15 917.13 L 881.32 915.57 L 879.51 913.99 L 877.81 912.32 L 876.17 910.60 L 874.57 908.85 L 872.88 907.21 L 871.14 905.64" stroke="rgb(140,255,190)" stroke-opacity="0.526" stroke-width="1.10" />
  <path d="M 957.72 979.93 L 954.79 980.12 L 951.87 980.33 L 948.96 980.53 L 946.08 980.83 L 943.21 981.15 L 940.34 981.39 L 937.48 981.54 L 934.62 981.62 L 931.78 981.73 L 928.96 981.87 L 926.14 982.02 L 923.34 982.25 L 920.55 982.49 L 917.78 982.79 L 915.02 983.08 L 912.27 983.35 L 909.53 983.65 L 906.80 983.88 L 904.07 983.98 L 901.35 984.00 L 898.64 984.04 L 895.94 984.11 L 893.26 984.25 L 890.58 984.34 L 887.92 984.53 L 885.28 984.82 L 882.65 985.07 L 880.03 985.41 L 877.43 985.76 L 874.84 986.05" stroke="rgb(140,255,190)" stroke-opacity="0.525" stroke-width="1.10" />
  <path d="M 934.95 981.50 L 932.95 979.41 L 930.92 977.36 L 928.86 975.35 L 926.72 973.45 L 924.64 971.51 L 922.62 969.51 L 920.59 967.53 L 918.68 965.47 L 916.73 963.45 L 914.89 961.35 L 912.97 959.33 L 911.00 957.39 L 908.98 955.50 L 906.98 953.61 L 904.97 951.76 L 902.89 949.99 L 900.76 948.30 L 898.63 946.63 L 896.51 944.96 L 894.45 943.24 L 892.39 941.54 L 890.31 939.87 L 888.22 938.25" stroke="rgb(140,255,190)" stroke-opacity="0.525" stroke-width="1.09" />
  <path d="M 999.82 998.46 L 998.94 1000.96 L 997.98 1003.41 L 997.04 1005.86 L 996.13 1008.31 L 995.12 1010.71 L 994.11 1013.10 L 993.18 1015.51 L 992.28 1017.92 L 991.51 1020.36 L 990.85 1022.83 L 990.16 1025.27 L 989.53 1027.73 L 989.02 1030.20 L 988.53 1032.66 L 988.05 1035.11 L 987.61 1037.57 L 987.19 1040.01 L 986.79 1042.45 L 986.44 1044.89 L 986.21 1047.33 L 986.06 1049.76 L 985.85 1052.19 L 985.64 1054.60 L 985.43 1057.00 L 985.26 1059.40 L 985.09 1061.79 L 985.03 1064.17 L 984.92 1066.54 L 984.85 1068.91 L 984.76 1071.26 L 984.65 1073.60 L 984.58 1075.94 L 984.64 1078.26 L 984.66 1080.58 L 984.64 1082.89 L 984.58 1085.19 L 984.46 1087.48 L 984.33 1089.75 L 984.18 1092.02 L 984.05 1094.28 L 983.94 1096.53 L 983.82 1098.77 L 983.69 1101.00 L 983.53 1103.22 L 983.40 1105.44 L 983.33 1107.65 L 983.17 1109.84 L 982.97 1112.02 L 982.74 1114.19 L 982.49 1116.35 L 982.16 1118.49 L 981.84 1120.62 L 981.52 1122.75 L 981.20 1124.86 L 980.85 1126.97 L 980.44 1129.05 L 980.03 1131.12 L 979.63 1133.19 L 979.22 1135.24 L 978.82 1137.29" stroke="rgb(205,165,255)" stroke-opacity="0.465" stroke-width="1.09" />
  <path d="M 921.37 960.14 L 918.95 958.59 L 916.56 957.03 L 914.20 955.44 L 911.76 953.99 L 909.40 952.44 L 907.03 950.91 L 904.69 949.37 L 902.36 947.83 L 900.04 946.29 L 897.71 944.80 L 895.32 943.43 L 892.96 942.01 L 890.59 940.64 L 888.25 939.25 L 885.89 937.90 L 883.54 936.56 L 881.20 935.23 L 878.85 933.93 L 876.52 932.63 L 874.21 931.31 L 871.97 929.89 L 869.74 928.49" stroke="rgb(140,255,190)" stroke-opacity="0.525" stroke-width="1.09" />
  <path d="M 924.52 974.42 L 921.74 974.32 L 918.97 974.18 L 916.26 973.71 L 913.53 973.36 L 910.83 972.93 L 908.14 972.48 L 905.46 972.04 L 902.78 971.69 L 900.10 971.42 L 897.43 971.10 L 894.79 970.73 L 892.15 970.40 L 889.50 970.24 L 886.86 970.11 L 884.23 970.06 L 881.62 969.97 L 879.01 969.82 L 876.42 969.65 L 873.85 969.32 L 871.31 968.90 L 868.77 968.50 L 866.25 968.10 L 863.72 967.80 L 861.20 967.55 L 858.69 967.23 L 856.18 967.14 L 853.67 967.01 L 851.18 966.90 L 848.70 966.75 L 846.23 966.55 L 843.77 966.35" stroke="rgb(140,255,190)" stroke-opacity="0.525" stroke-width="1.09" />
  <path d="M 1003.82 997.38 L 1001.24 996.34 L 998.68 995.28 L 996.12 994.24 L 993.59 993.18 L 991.11 992.01 L 988.69 990.76 L 986.31 989.45 L 984.01 988.03 L 981.78 986.51 L 979.56 985.01 L 977.34 983.51 L 975.12 982.05 L 972.91 980.58 L 970.72 979.10 L 968.56 977.60 L 966.41 976.10 L 964.31 974.56 L 962.18 973.06 L 960.04 971.61 L 957.94 970.11 L 955.84 968.64 L 953.76 967.15 L 951.73 965.61 L 949.67 964.13 L 947.60 962.69 L 945.50 961.29 L 943.38 959.96 L 941.29 958.59 L 939.22 957.21 L 937.23 955.73 L 935.28 954.23" stroke="rgb(140,255,190)" stroke-opacity="0.524" stroke-width="1.09" />
  <path d="M 1000.25 998.48 L 997.66 997.63 L 995.09 996.76 L 992.52 995.92 L 989.97 995.04 L 987.48 994.05 L 985.02 992.99 L 982.57 991.97 L 980.11 990.97 L 977.68 989.94 L 975.28 988.86 L 972.88 987.82 L 970.49 986.77 L 968.14 985.66 L 965.80 984.56 L 963.46 983.47 L 961.14 982.36 L 958.79 981.36 L 956.42 980.43 L 954.06 979.49 L 951.71 978.58 L 949.35 977.71 L 947.01 976.80 L 944.69 975.87 L 942.38 974.96 L 940.05 974.12 L 937.74 973.25 L 935.45 972.37 L 933.18 971.44 L 930.94 970.48 L 928.70 969.54 L 926.47 968.61 L 924.24 967.71 L 922.00 966.86 L 919.76 966.02 L 917.58 965.07 L 915.43 964.07 L 913.32 963.01 L 911.23 961.95 L 909.16 960.85 L 907.05 959.85 L 904.95 958.86 L 902.85 957.90 L 900.77 956.90 L 898.73 955.86 L 896.67 954.85 L 894.63 953.85 L 892.62 952.79 L 890.64 951.70 L 888.65 950.67 L 886.66 949.63 L 884.67 948.61 L 882.69 947.61 L 880.71 946.62 L 878.71 945.70 L 876.67 944.89 L 874.64 944.07" stroke="rgb(140,255,190)" stroke-opacity="0.524" stroke-width="1.09" />
  <path d="M 916.23 957.22 L 914.99 954.87 L 913.69 952.56 L 912.30 950.32 L 910.77 948.19 L 909.31 946.01 L 907.89 943.83 L 906.45 941.67 L 905.17 939.42 L 903.99 937.13 L 902.71 934.91 L 901.52 932.65 L 900.35 930.39 L 899.27 928.10 L 897.98 925.93 L 896.58 923.84 L 895.14 921.79 L 893.71 919.74 L 892.35 917.67 L 891.03 915.58 L 889.78 913.46 L 888.43 911.40 L 887.15 909.32 L 885.79 907.30 L 884.39 905.32 L 882.97 903.37 L 881.62 901.38 L 880.27 899.39 L 878.95 897.41 L 877.66 895.41 L 876.38 893.42 L 875.14 891.42 L 873.84 889.46 L 872.58 887.49 L 871.27 885.56 L 869.84 883.74 L 868.37 881.95 L 866.85 880.22 L 865.46 878.41 L 864.13 876.55 L 862.87 874.66 L 861.68 872.73 L 860.45 870.83 L 859.16 869.00 L 857.84 867.19 L 856.41 865.47 L 855.04 863.73 L 853.62 862.04" stroke="rgb(140,255,190)" stroke-opacity="0.523" stroke-width="1.09" />
  <path d="M 922.88 943.97 L 920.39 942.69 L 917.91 941.42 L 915.45 940.15 L 912.98 938.91 L 910.51 937.69 L 908.01 936.56 L 905.55 935.38 L 903.06 934.29 L 900.57 933.21 L 898.14 932.06 L 895.63 931.08 L 893.16 930.05 L 890.70 929.03 L 888.22 928.07 L 885.81 927.00 L 883.45 925.82 L 881.12 924.62 L 878.78 923.45 L 876.46 922.27 L 874.18 921.05 L 871.93 919.78 L 869.68 918.54 L 867.47 917.25 L 865.35 915.83 L 863.24 914.41 L 861.14 913.00 L 859.01 911.65 L 857.00 910.15 L 855.02 908.63 L 853.04 907.12 L 851.09 905.58 L 849.10 904.12 L 847.14 902.63 L 845.16 901.19 L 843.15 899.81 L 841.17 898.39 L 839.25 896.93 L 837.39 895.39 L 835.52 893.89 L 833.65 892.39 L 831.82 890.86 L 830.01 889.34 L 828.14 887.88 L 826.31 886.41 L 824.38 885.08 L 822.46 883.75 L 820.59 882.37 L 818.68 881.06 L 816.73 879.81 L 814.83 878.53" stroke="rgb(140,255,190)" stroke-opacity="0.522" stroke-width="1.09" />
  <path d="M 945.69 979.56 L 942.97 979.75 L 940.26 980.02 L 937.56 980.17 L 934.87 980.38 L 932.19 980.52 L 929.52 980.55 L 926.86 980.55 L 924.21 980.54 L 921.57 980.56 L 918.93 980.58 L 916.31 980.60 L 913.71 980.55 L 911.11 980.55 L 908.52 980.61 L 905.94 980.68 L 903.38 980.90 L 900.83 981.12 L 898.29 981.30 L 895.76 981.40 L 893.23 981.49 L 890.71 981.56 L 888.21 981.63 L 885.71 981.74 L 883.23 981.89 L 880.76 982.08 L 878.30 982.30 L 875.85 982.41 L 873.40 982.42 L 870.96 982.36 L 868.54 982.24 L 866.13 981.98" stroke="rgb(140,255,190)" stroke-opacity="0.522" stroke-width="1.08" />
  <path d="M 1000.26 1003.22 L 997.87 1004.02 L 995.50 1004.83 L 993.11 1005.58 L 990.73 1006.33 L 988.40 1007.18 L 986.08 1008.02 L 983.76 1008.85 L 981.43 1009.62 L 979.13 1010.44 L 976.85 1011.29 L 974.58 1012.12 L 972.34 1013.03 L 970.07 1013.82 L 967.82 1014.63 L 965.60 1015.51 L 963.39 1016.36 L 961.21 1017.28 L 959.04 1018.20 L 956.94 1019.24 L 954.84 1020.27 L 952.78 1021.35 L 950.80 1022.55 L 948.84 1023.79 L 946.84 1024.92 L 944.89 1026.12 L 942.90 1027.22 L 940.93 1028.36 L 939.02 1029.57 L 937.11 1030.77 L 935.21 1031.96 L 933.27 1033.08 L 931.41 1034.30 L 929.48 1035.40 L 927.59 1036.54 L 925.68 1037.63 L 923.72 1038.62 L 921.76 1039.57 L 919.77 1040.45 L 917.83 1041.41 L 915.89 1042.36 L 913.98 1043.34" stroke="rgb(205,165,255)" stroke-opacity="0.459" stroke-width="1.07" />
  <path d="M 1045.31 972.99 L 1046.85 971.35 L 1048.48 969.81 L 1050.16 968.34 L 1051.82 966.86 L 1053.53 965.45 L 1055.32 964.16 L 1057.06 962.82 L 1058.82 961.52 L 1060.54 960.17 L 1062.23 958.81 L 1063.87 957.40 L 1065.59 956.10 L 1067.34 954.87 L 1069.07 953.61 L 1070.91 952.54 L 1072.76 951.50 L 1074.58 950.44 L 1076.30 949.23 L 1077.96 947.95 L 1079.59 946.65 L 1081.24 945.38 L 1082.86 944.10 L 1084.49 942.84 L 1086.15 941.62 L 1087.84 940.47 L 1089.45 939.22 L 1090.97 937.89 L 1092.50 936.56 L 1094.10 935.34 L 1095.59 934.01 L 1097.10 932.69 L 1098.61 931.40 L 1100.14 930.14 L 1101.66 928.89 L 1103.13 927.59 L 1104.59 926.28 L 1105.99 924.93 L 1107.28 923.48 L 1108.47 921.96 L 1109.60 920.39 L 1110.72 918.84 L 1111.69 917.20 L 1112.56 915.50 L 1113.40 913.81 L 1114.11 912.06 L 1114.92 910.36 L 1115.87 908.75 L 1116.77 907.12 L 1117.73 905.52 L 1118.76 903.99 L 1119.79 902.46" stroke="rgb(205,165,255)" stroke-opacity="0.451" stroke-width="1.04" />
  <path d="M 1031.79 1034.61 L 1033.94 1035.13 L 1036.10 1035.58 L 1038.26 1035.96 L 1040.41 1036.38 L 1042.53 1036.88 L 1044.65 1037.31 L 1046.77 1037.75 L 1048.90 1038.05 L 1051.01 1038.42 L 1053.12 1038.72 L 1055.22 1039.03 L 1057.29 1039.49 L 1059.34 1039.98 L 1061.41 1040.35 L 1063.48 1040.66 L 1065.54 1040.94 L 1067.61 1041.14 L 1069.65 1041.47 L 1071.69 1041.75 L 1073.68 1042.22 L 1075.65 1042.77 L 1077.61 1043.32 L 1079.57 1043.83 L 1081.54 1044.27 L 1083.53 1044.53 L 1085.49 1044.92 L 1087.44 1045.37 L 1089.39 1045.75 L 1091.31 1046.19 L 1093.24 1046.61 L 1095.16 1047.02 L 1097.05 1047.50 L 1098.92 1048.05 L 1100.77 1048.62 L 1102.62 1049.16 L 1104.49 1049.64 L 1106.34 1050.11 L 1108.21 1050.51 L 1110.03 1051.04 L 1111.86 1051.54 L 1113.66 1052.08 L 1115.45 1052.67 L 1117.26 1053.12 L 1119.05 1053.65 L 1120.83 1054.15 L 1122.62 1054.61 L 1124.43 1054.95 L 1126.25 1055.20 L 1128.05 1055.50 L 1129.86 1055.68 L 1131.66 1055.87 L 1133.45 1056.08 L 1135.23 1056.26 L 1137.00 1056.56 L 1138.75 1056.86 L 1140.50 1057.19 L 1142.20 1057.67 L 1143.83 1058.32" stroke="rgb(205,165,255)" stroke-opacity="0.447" stroke-width="1.03" />
  <path d="M 998.68 1000.82 L 997.29 1001.38 L 995.87 1001.85 L 994.51 1002.45 L 993.16 1003.07 L 991.84 1003.73 L 990.61 1004.53 L 989.38 1005.33 L 988.11 1006.05 L 986.90 1006.85 L 985.84 1007.83 L 984.69 1008.70" stroke="rgb(230,230,230)" stroke-opacity="0.385" stroke-width="0.71" />
  <path d="M 1005.64 1001.73 L 1004.16 1001.45 L 1002.71 1001.11 L 1001.23 1000.97 L 999.76 1000.78 L 998.30 1000.54 L 996.87 1000.20 L 995.47 999.78" stroke="rgb(230,230,230)" stroke-opacity="0.379" stroke-width="0.69" />
  <path d="M 1007.72 1001.33 L 1006.27 1000.92 L 1004.85 1000.47 L 1003.41 1000.08 L 1002.01 999.59 L 1000.69 998.94 L 999.36 998.32 L 997.98 997.82 L 996.60 997.35 L 995.22 996.89 L 993.80 996.61 L 992.41 996.25 L 991.01 995.94 L 989.68 995.40 L 988.41 994.77" stroke="rgb(230,230,230)" stroke-opacity="0.376" stroke-width="0.68" />
  <path d="M 1001.82 1005.30 L 1003.09 1004.51 L 1004.30 1003.63 L 1005.58 1002.86 L 1006.89 1002.18 L 1008.23 1001.56 L 1009.55 1000.91 L 1010.87 1000.29 L 1012.18 999.64 L 1013.44 998.90 L 1014.72 998.24 L 1016.02 997.62 L 1017.28 996.93 L 1018.50 996.18 L 1019.75 995.50" stroke="rgb(230,230,230)" stroke-opacity="0.374" stroke-width="0.68" />
  <path d="M 994.85 996.80 L 995.84 997.92 L 996.87 999.01 L 997.72 1000.23 L 998.51 1001.49 L 999.31 1002.73 L 999.99 1004.03 L 1000.72 1005.30 L 1001.41 1006.58" stroke="rgb(230,230,230)" stroke-opacity="0.371" stroke-width="0.67" />
  <path d="M 999.87 1001.75 L 1000.81 1000.58 L 1001.70 999.37 L 1002.49 998.12 L 1003.31 996.88 L 1004.18 995.69 L 1005.19 994.62 L 1006.03 993.42 L 1006.79 992.17 L 1007.37 990.84 L 1008.02 989.55 L 1008.61 988.23 L 1009.18 986.92 L 1009.65 985.57 L 1010.10 984.21 L 1010.52 982.86" stroke="rgb(230,230,230)" stroke-opacity="0.370" stroke-width="0.67" />
  <path d="M 996.40 1005.92 L 994.92 1006.20 L 993.44 1006.37 L 991.97 1006.59 L 990.49 1006.60 L 989.03 1006.82 L 987.57 1006.99 L 986.10 1007.00 L 984.66 1007.24 L 983.27 1007.66 L 981.93 1008.19 L 980.61 1008.79" stroke="rgb(230,230,230)" stroke-opacity="0.369" stroke-width="0.66" />
  <path d="M 1003.87 999.63 L 1003.25 998.26 L 1002.45 997.00 L 1001.83 995.65 L 1001.29 994.27 L 1000.71 992.91 L 1000.19 991.53 L 999.77 990.13 L 999.52 988.69 L 999.19 987.28 L 998.92 985.86 L 998.63 984.45 L 998.51 983.02 L 998.38 981.59 L 998.38 980.17 L 998.45 978.75 L 998.42 977.34" stroke="rgb(230,230,230)" stroke-opacity="0.368" stroke-width="0.66" />
  <path d="M 1001.07 1001.97 L 1002.28 1001.08 L 1003.38 1000.07 L 1004.45 999.03 L 1005.54 998.03 L 1006.64 997.04 L 1007.78 996.12 L 1008.87 995.14" stroke="rgb(230,230,230)" stroke-opacity="0.363" stroke-width="0.65" />
  <path d="M 1001.34 999.34 L 1000.48 1000.56 L 999.67 1001.82 L 999.03 1003.16 L 998.36 1004.49 L 997.32 1005.53 L 996.24 1006.52" stroke="rgb(230,230,230)" stroke-opacity="0.361" stroke-width="0.64" />
  <path d="M 1003.60 998.18 L 1003.72 996.69 L 1003.82 995.20 L 1003.97 993.71 L 1004.18 992.25 L 1004.28 990.78 L 1004.51 989.32 L 1004.77 987.88 L 1005.02 986.44 L 1005.34 985.03 L 1005.59 983.60 L 1005.78 982.18 L 1005.99 980.76 L 1006.25 979.35 L 1006.39 977.93 L 1006.65 976.54 L 1006.99 975.17" stroke="rgb(230,230,230)" stroke-opacity="0.359" stroke-width="0.64" />
  <path d="M 1001.22 1003.48 L 1002.69 1003.76 L 1004.18 1003.92 L 1005.65 1004.09 L 1007.13 1004.20 L 1008.61 1004.18 L 1010.07 1004.07 L 1011.54 1004.00 L 1012.99 1003.87 L 1014.43 1003.71" stroke="rgb(230,230,230)" stroke-opacity="0.354" stroke-width="0.62" />
  <path d="M 999.82 994.70 L 1001.19 995.30 L 1002.62 995.73 L 1004.11 995.83 L 1005.58 995.94 L 1007.03 996.26 L 1008.39 996.81 L 1009.68 997.51 L 1011.02 998.08" stroke="rgb(230,230,230)" stroke-opacity="0.353" stroke-width="0.62" />
  <path d="M 998.16 996.77 L 999.65 996.94 L 1001.13 997.17 L 1002.59 997.46 L 1004.04 997.78 L 1005.49 998.05 L 1006.94 998.29 L 1008.39 998.50 L 1009.83 998.69 L 1011.28 998.85 L 1012.72 998.89 L 1014.16 999.01 L 1015.59 999.13 L 1017.00 999.35" stroke="rgb(230,230,230)" stroke-opacity="0.353" stroke-width="0.62" />
  <path d="M 996.91 1002.66 L 995.99 1001.47 L 995.14 1000.24" stroke="rgb(230,230,230)" stroke-opacity="0.353" stroke-width="0.62" />
  <path d="M 1002.69 1003.65 L 1001.42 1002.84 L 1000.31 1001.85 L 999.07 1001.02 L 997.89 1000.13 L 996.70 999.25 L 995.46 998.45 L 994.25 997.63 L 993.12 996.71 L 991.98 995.81 L 990.81 994.97 L 989.72 994.02 L 988.58 993.14 L 987.36 992.40 L 986.20 991.58" stroke="rgb(230,230,230)" stroke-opacity="0.352" stroke-width="0.62" />
  <path d="M 999.46 993.32 L 1000.77 994.04 L 1002.08 994.77 L 1003.36 995.52 L 1004.69 996.17 L 1005.95 996.95 L 1007.15 997.80 L 1008.32 998.68 L 1009.44 999.61 L 1010.56 1000.54 L 1011.69 1001.44 L 1012.78 1002.39 L 1013.88 1003.31" stroke="rgb(230,230,230)" stroke-opacity="0.352" stroke-width="0.62" />
  <path d="M 1003.34 992.66 L 1004.82 992.95 L 1006.26 993.33 L 1007.68 993.78 L 1009.06 994.33 L 1010.45 994.83 L 1011.84 995.31" stroke="rgb(230,230,230)" stroke-opacity="0.351" stroke-width="0.61" />
</g>
</svg>
