{
  "asset": {
    "version": "2.0",
    "generator": "TES-23 Cosmic Ray Renderer"
  },
  "extensionsUsed": [
    "KHR_materials_unlit"
  ],
  "extensionsRequired": [
    "KHR_materials_unlit"
  ],
  "scene": 0,
  "scenes": [
    {
      "nodes": [
        0
      ]
    }
  ],
  "nodes": [
    {
      "name": "CosmicRayEvent",
      "mesh": 0
    }
  ],
  "meshes": [
    {
      "name": "CosmicRayEvent",
      "primitives": [
        {
          "attributes": {
            "POSITION": 0
          },
          "material": 0,
          "mode": 1
        },
        {
          "attributes": {
            "POSITION": 1
          },
          "material": 1,
          "mode": 1
        },
        {
          "attributes": {
            "POSITION": 2
          },
          "material": 2,
          "mode": 1
        },
        {
          "attributes": {
            "POSITION": 3
          },
          "material": 3,
          "mode": 1
        },
        {
          "attributes": {
            "POSITION": 4
          },
          "material": 4,
          "mode": 1
        }
      ]
    }
  ],
  "materials": [
    {
      "name": "primary",
      "extensions": {
        "KHR_materials_unlit": {}
      },
      "pbrMetallicRoughness": {
        "baseColorFactor": [
          0.961,
          0.961,
          0.961,
          1
        ],
        "metallicFactor": 0,
        "roughnessFactor": 1
      }
    },
    {
      "name": "vertex",
      "extensions": {
        "KHR_materials_unlit": {}
      },
      "pbrMetallicRoughness": {
        "baseColorFactor": [
          0.902,
          0.902,
          0.902,
          0.9
        ],
        "metallicFactor": 0,
        "roughnessFactor": 1
      }
    },
    {
      "name": "em",
      "extensions": {
        "KHR_materials_unlit": {}
      },
      "pbrMetallicRoughness": {
        "baseColorFactor": [
          0.471,
          0.824,
          1,
          1
        ],
        "metallicFactor": 0,
        "roughnessFactor": 1
      }
    },
    {
      "name": "hadron",
      "extensions": {
        "KHR_materials_unlit": {}
      },
      "pbrMetallicRoughness": {
        "baseColorFactor": [
          0.549,
          1,
          0.745,
          1
        ],
        "metallicFactor": 0,
        "roughnessFactor": 1
      }
    },
    {
      "name": "delta",
      "extensions": {
        "KHR_materials_unlit": {}
      },
      "pbrMetallicRoughness": {
        "baseColorFactor": [
          0.804,
          0.647,
          1,
          1
        ],
        "metallicFactor": 0,
        "roughnessFactor": 1
      }
    }
  ],
  "accessors": [
    {
      "bufferView": 0,
      "byteOffset": 0,
      "componentType": 5126,
      "count": 1350,
      "type": "VEC3",
      "min": [
        -1.021821141242981,
        -0.04451986402273178,
        0
      ],
      "max": [
        1.0001808404922485,
        0.05728616192936897,
        0
      ]
    },
    {
      "bufferView": 1,
      "byteOffset": 0,
      "componentType": 5126,
      "count": 380,
      "type": "VEC3",
      "min": [
        -0.01789536327123642,
        -0.026885129511356354,
        -0.05366033688187599
      ],
      "max": [
        0.016202645376324654,
        0.013247685506939888,
        0.151467427611351
      ]
    },
    {
      "bufferView": 2,
      "byteOffset": 0,
      "componentType": 5126,
      "count": 1064,
      "type": "VEC3",
      "min": [
        -0.24448800086975098,
        -0.0361102819442749,
        -0.134271502494812
      ],
      "max": [
        0.0018562545301392674,
        0.019251307472586632,
        0.1410377323627472
      ]
    },
    {
      "bufferView": 3,
      "byteOffset": 0,
      "componentType": 5126,
      "count": 1842,
      "type": "VEC3",
      "min": [
        -0.3380138576030731,
        -0.052348025143146515,
        -0.9429663419723511
      ],
      "max": [
        0.07210666686296463,
        0.07039494812488556,
        0.29472699761390686
      ]
    },
    {
      "bufferView": 4,
      "byteOffset": 0,
      "componentType": 5126,
      "count": 924,
      "type": "VEC3",
      "min": [
        -0.13213050365447998,
        -0.12181393802165985,
        -1.019996166229248
      ],
      "max": [
        0.0017975149676203728,
        0.01946980133652687,
        0.43292859196662903
      ]
    }
  ],
  "bufferViews": [
    {
      "buffer": 0,
      "byteOffset": 0,
      "byteLength": 16200,
      "target": 34962
    },
    {
      "buffer": 0,
      "byteOffset": 16200,
      "byteLength": 4560,
      "target": 34962
    },
    {
      "buffer": 0,
      "byteOffset": 20760,
      "byteLength": 12768,
      "target": 34962
    },
    {
      "buffer": 0,
      "byteOffset": 33528,
      "byteLength": 22104,
      "target": 34962
    },
    {
      "buffer": 0,
      "byteOffset": 55632,
      "byteLength": 11088,
      "target": 34962
    }
  ],
  "buffers": [
    {
      "byteLength": 66720,
      "uri": "data:application/octet-stream;base64,"
    }
  ]
}