{
  "asset": {
    "version": "2.0",
    "generator": "TES-23 Cosmic Ray Renderer"
  },
  "extensionsUsed": [
    "KHR_materials_unlit"
  ],
  "extensionsRequired": [
    "KHR_materials_unlit"
  ],
  "scene": 0,
  "scenes": [
    {
      "nodes": [
        0
      ]
    }
  ],
  "nodes": [
    {
      "name": "CosmicRayEvent",
      "mesh": 0
    }
  ],
  "meshes": [
    {
      "name": "CosmicRayEvent",
      "primitives": [
        {
          "attributes": {
            "POSITION": 0
          },
          "material": 0,
          "mode": 1
        },
        {
          "attributes": {
            "POSITION": 1
          },
          "material": 1,
          "mode": 1
        },
        {
          "attributes": {
            "POSITION": 2
          },
          "material": 2,
          "mode": 1
        },
        {
          "attributes": {
            "POSITION": 3
          },
          "material": 3,
          "mode": 1
        },
        {
          "attributes": {
            "POSITION": 4
          },
          "material": 4,
          "mode": 1
        }
      ]
    }
  ],
  "materials": [
    {
      "name": "primary",
      "extensions": {
        "KHR_materials_unlit": {}
      },
      "pbrMetallicRoughness": {
        "baseColorFactor": [
          0.961,
          0.961,
          0.961,
          1
        ],
        "metallicFactor": 0,
        "roughnessFactor": 1
      }
    },
    {
      "name": "vertex",
      "extensions": {
        "KHR_materials_unlit": {}
      },
      "pbrMetallicRoughness": {
        "baseColorFactor": [
          0.902,
          0.902,
          0.902,
          0.9
        ],
        "metallicFactor": 0,
        "roughnessFactor": 1
      }
    },
    {
      "name": "em",
      "extensions": {
        "KHR_materials_unlit": {}
      },
      "pbrMetallicRoughness": {
        "baseColorFactor": [
          0.471,
          0.824,
          1,
          1
        ],
        "metallicFactor": 0,
        "roughnessFactor": 1
      }
    },
    {
      "name": "hadron",
      "extensions": {
        "KHR_materials_unlit": {}
      },
      "pbrMetallicRoughness": {
        "baseColorFactor": [
          0.549,
          1,
          0.745,
          1
        ],
        "metallicFactor": 0,
        "roughnessFactor": 1
      }
    },
    {
      "name": "delta",
      "extensions": {
        "KHR_materials_unlit": {}
      },
      "pbrMetallicRoughness": {
        "baseColorFactor": [
          0.804,
          0.647,
          1,
          1
        ],
        "metallicFactor": 0,
        "roughnessFactor": 1
      }
    }
  ],
  "accessors": [
    {
      "bufferView": 0,
      "byteOffset": 0,
      "componentType": 5126,
      "count": 1350,
      "type": "VEC3",
      "min": [
        -0.05513031780719757,
        -1.0000280141830444,
        0
      ],
      "max": [
        0.05048825219273567,
        1.0215331315994263,
        0
      ]
    },
    {
      "bufferView": 1,
      "byteOffset": 0,
      "componentType": 5126,
      "count": 294,
      "type": "VEC3",
      "min": [
        -0.024204667657613754,
        -0.014062454923987389,
        -0.0560162290930748
      ],
      "max": [
        0.013878598809242249,
        0.022175464779138565,
        0.10533833503723145
      ]
    },
    {
      "bufferView": 2,
      "byteOffset": 0,
      "componentType": 5126,
      "count": 636,
      "type": "VEC3",
      "min": [
        -0.0019417975563555956,
        -0.002791480626910925,
        -0.06293763965368271
      ],
      "max": [
        0.02762235887348652,
        0.1476738303899765,
        0.06798999756574631
      ]
    },
    {
      "bufferView": 3,
      "byteOffset": 0,
      "componentType": 5126,
      "count": 2286,
      "type": "VEC3",
      "min": [
        -0.130812868475914,
        -0.002671315800398588,
        -0.43588417768478394
      ],
      "max": [
        0.1462443619966507,
        0.26521366834640503,
        0.25151827931404114
      ]
    },
    {
      "bufferView": 4,
      "byteOffset": 0,
      "componentType": 5126,
      "count": 636,
      "type": "VEC3",
      "min": [
        -0.09721259027719498,
        -0.07111460715532303,
        -0.29867929220199585
      ],
      "max": [
        0.06410201638936996,
        0.1370791643857956,
        0.3107001483440399
      ]
    }
  ],
  "bufferViews": [
    {
      "buffer": 0,
      "byteOffset": 0,
      "byteLength": 16200,
      "target": 34962
    },
    {
      "buffer": 0,
      "byteOffset": 16200,
      "byteLength": 3528,
      "target": 34962
    },
    {
      "buffer": 0,
      "byteOffset": 19728,
      "byteLength": 7632,
      "target": 34962
    },
    {
      "buffer": 0,
      "byteOffset": 27360,
      "byteLength": 27432,
      "target": 34962
    },
    {
      "buffer": 0,
      "byteOffset": 54792,
      "byteLength": 7632,
      "target": 34962
    }
  ],
  "buffers": [
    {
      "byteLength": 62424,
      "uri": "data:application/octet-stream;base64,"
    }
  ]
}