{
  "asset": {
    "version": "2.0",
    "generator": "TES-23 Cosmic Ray Renderer"
  },
  "extensionsUsed": [
    "KHR_materials_unlit"
  ],
  "extensionsRequired": [
    "KHR_materials_unlit"
  ],
  "scene": 0,
  "scenes": [
    {
      "nodes": [
        0
      ]
    }
  ],
  "nodes": [
    {
      "name": "CosmicRayEvent",
      "mesh": 0
    }
  ],
  "meshes": [
    {
      "name": "CosmicRayEvent",
      "primitives": [
        {
          "attributes": {
            "POSITION": 0
          },
          "material": 0,
          "mode": 1
        },
        {
          "attributes": {
            "POSITION": 1
          },
          "material": 1,
          "mode": 1
        },
        {
          "attributes": {
            "POSITION": 2
          },
          "material": 2,
          "mode": 1
        },
        {
          "attributes": {
            "POSITION": 3
          },
          "material": 3,
          "mode": 1
        },
        {
          "attributes": {
            "POSITION": 4
          },
          "material": 4,
          "mode": 1
        }
      ]
    }
  ],
  "materials": [
    {
      "name": "primary",
      "extensions": {
        "KHR_materials_unlit": {}
      },
      "pbrMetallicRoughness": {
        "baseColorFactor": [
          0.961,
          0.961,
          0.961,
          1
        ],
        "metallicFactor": 0,
        "roughnessFactor": 1
      }
    },
    {
      "name": "vertex",
      "extensions": {
        "KHR_materials_unlit": {}
      },
      "pbrMetallicRoughness": {
        "baseColorFactor": [
          0.902,
          0.902,
          0.902,
          0.9
        ],
        "metallicFactor": 0,
        "roughnessFactor": 1
      }
    },
    {
      "name": "em",
      "extensions": {
        "KHR_materials_unlit": {}
      },
      "pbrMetallicRoughness": {
        "baseColorFactor": [
          0.471,
          0.824,
          1,
          1
        ],
        "metallicFactor": 0,
        "roughnessFactor": 1
      }
    },
    {
      "name": "hadron",
      "extensions": {
        "KHR_materials_unlit": {}
      },
      "pbrMetallicRoughness": {
        "baseColorFactor": [
          0.549,
          1,
          0.745,
          1
        ],
        "metallicFactor": 0,
        "roughnessFactor": 1
      }
    },
    {
      "name": "delta",
      "extensions": {
        "KHR_materials_unlit": {}
      },
      "pbrMetallicRoughness": {
        "baseColorFactor": [
          0.804,
          0.647,
          1,
          1
        ],
        "metallicFactor": 0,
        "roughnessFactor": 1
      }
    }
  ],
  "accessors": [
    {
      "bufferView": 0,
      "byteOffset": 0,
      "componentType": 5126,
      "count": 1858,
      "type": "VEC3",
      "min": [
        -0.9997289776802063,
        -0.9535536170005798,
        0
      ],
      "max": [
        1.0208086967468262,
        0.9637756943702698,
        0
      ]
    },
    {
      "bufferView": 1,
      "byteOffset": 0,
      "componentType": 5126,
      "count": 322,
      "type": "VEC3",
      "min": [
        -0.013433946296572685,
        -0.013707584701478481,
        -0.052203405648469925
      ],
      "max": [
        0.024279333651065826,
        0.016144756227731705,
        0.057951975613832474
      ]
    },
    {
      "bufferView": 2,
      "byteOffset": 0,
      "componentType": 5126,
      "count": 560,
      "type": "VEC3",
      "min": [
        -0.001923804054968059,
        -0.002379902871325612,
        -0.055170800536870956
      ],
      "max": [
        0.14319342374801636,
        0.17488038539886475,
        0.12903451919555664
      ]
    },
    {
      "bufferView": 3,
      "byteOffset": 0,
      "componentType": 5126,
      "count": 2220,
      "type": "VEC3",
      "min": [
        -0.15549685060977936,
        -0.0031254023779183626,
        -0.2988492548465729
      ],
      "max": [
        0.24806614220142365,
        0.23131239414215088,
        0.7061002850532532
      ]
    },
    {
      "bufferView": 4,
      "byteOffset": 0,
      "componentType": 5126,
      "count": 394,
      "type": "VEC3",
      "min": [
        -0.11152991652488708,
        -0.07037302851676941,
        -0.3425881862640381
      ],
      "max": [
        0.1447547972202301,
        0.07362779974937439,
        0.3394070565700531
      ]
    }
  ],
  "bufferViews": [
    {
      "buffer": 0,
      "byteOffset": 0,
      "byteLength": 22296,
      "target": 34962
    },
    {
      "buffer": 0,
      "byteOffset": 22296,
      "byteLength": 3864,
      "target": 34962
    },
    {
      "buffer": 0,
      "byteOffset": 26160,
      "byteLength": 6720,
      "target": 34962
    },
    {
      "buffer": 0,
      "byteOffset": 32880,
      "byteLength": 26640,
      "target": 34962
    },
    {
      "buffer": 0,
      "byteOffset": 59520,
      "byteLength": 4728,
      "target": 34962
    }
  ],
  "buffers": [
    {
      "byteLength": 64248,
      "uri": "data:application/octet-stream;base64,"
    }
  ]
}