{
  "asset": {
    "version": "2.0",
    "generator": "TES-23 Cosmic Ray Renderer"
  },
  "extensionsUsed": [
    "KHR_materials_unlit"
  ],
  "extensionsRequired": [
    "KHR_materials_unlit"
  ],
  "scene": 0,
  "scenes": [
    {
      "nodes": [
        0
      ]
    }
  ],
  "nodes": [
    {
      "name": "CosmicRayEvent",
      "mesh": 0
    }
  ],
  "meshes": [
    {
      "name": "CosmicRayEvent",
      "primitives": [
        {
          "attributes": {
            "POSITION": 0
          },
          "material": 0,
          "mode": 1
        },
        {
          "attributes": {
            "POSITION": 1
          },
          "material": 1,
          "mode": 1
        },
        {
          "attributes": {
            "POSITION": 2
          },
          "material": 2,
          "mode": 1
        },
        {
          "attributes": {
            "POSITION": 3
          },
          "material": 3,
          "mode": 1
        },
        {
          "attributes": {
            "POSITION": 4
          },
          "material": 4,
          "mode": 1
        }
      ]
    }
  ],
  "materials": [
    {
      "name": "primary",
      "extensions": {
        "KHR_materials_unlit": {}
      },
      "pbrMetallicRoughness": {
        "baseColorFactor": [
          0.961,
          0.961,
          0.961,
          1
        ],
        "metallicFactor": 0,
        "roughnessFactor": 1
      }
    },
    {
      "name": "vertex",
      "extensions": {
        "KHR_materials_unlit": {}
      },
      "pbrMetallicRoughness": {
        "baseColorFactor": [
          0.902,
          0.902,
          0.902,
          0.9
        ],
        "metallicFactor": 0,
        "roughnessFactor": 1
      }
    },
    {
      "name": "em",
      "extensions": {
        "KHR_materials_unlit": {}
      },
      "pbrMetallicRoughness": {
        "baseColorFactor": [
          0.471,
          0.824,
          1,
          1
        ],
        "metallicFactor": 0,
        "roughnessFactor": 1
      }
    },
    {
      "name": "hadron",
      "extensions": {
        "KHR_materials_unlit": {}
      },
      "pbrMetallicRoughness": {
        "baseColorFactor": [
          0.549,
          1,
          0.745,
          1
        ],
        "metallicFactor": 0,
        "roughnessFactor": 1
      }
    },
    {
      "name": "delta",
      "extensions": {
        "KHR_materials_unlit": {}
      },
      "pbrMetallicRoughness": {
        "baseColorFactor": [
          0.804,
          0.647,
          1,
          1
        ],
        "metallicFactor": 0,
        "roughnessFactor": 1
      }
    }
  ],
  "accessors": [
    {
      "bufferView": 0,
      "byteOffset": 0,
      "componentType": 5126,
      "count": 1680,
      "type": "VEC3",
      "min": [
        -0.7507110238075256,
        -1.0000529289245605,
        0
      ],
      "max": [
        0.7525330781936646,
        1.020839810371399,
        0
      ]
    },
    {
      "bufferView": 1,
      "byteOffset": 0,
      "componentType": 5126,
      "count": 370,
      "type": "VEC3",
      "min": [
        -0.022579269483685493,
        -0.018867356702685356,
        -0.07460267841815948
      ],
      "max": [
        0.005560565739870071,
        0.00938586425036192,
        0.07840568572282791
      ]
    },
    {
      "bufferView": 2,
      "byteOffset": 0,
      "componentType": 5126,
      "count": 718,
      "type": "VEC3",
      "min": [
        -0.0008926672744564712,
        -0.0033450552728027105,
        -0.08589957654476166
      ],
      "max": [
        0.21036472916603088,
        0.21790146827697754,
        0.20578856766223907
      ]
    },
    {
      "bufferView": 3,
      "byteOffset": 0,
      "componentType": 5126,
      "count": 2612,
      "type": "VEC3",
      "min": [
        -0.1048666387796402,
        -0.06166188791394234,
        -0.5623441338539124
      ],
      "max": [
        0.23282061517238617,
        0.2413851022720337,
        0.32783108949661255
      ]
    },
    {
      "bufferView": 4,
      "byteOffset": 0,
      "componentType": 5126,
      "count": 754,
      "type": "VEC3",
      "min": [
        -0.07262696325778961,
        -0.23037633299827576,
        -0.19947005808353424
      ],
      "max": [
        0.15457302331924438,
        0.10859308391809464,
        0.4155084788799286
      ]
    }
  ],
  "bufferViews": [
    {
      "buffer": 0,
      "byteOffset": 0,
      "byteLength": 20160,
      "target": 34962
    },
    {
      "buffer": 0,
      "byteOffset": 20160,
      "byteLength": 4440,
      "target": 34962
    },
    {
      "buffer": 0,
      "byteOffset": 24600,
      "byteLength": 8616,
      "target": 34962
    },
    {
      "buffer": 0,
      "byteOffset": 33216,
      "byteLength": 31344,
      "target": 34962
    },
    {
      "buffer": 0,
      "byteOffset": 64560,
      "byteLength": 9048,
      "target": 34962
    }
  ],
  "buffers": [
    {
      "byteLength": 73608,
      "uri": "data:application/octet-stream;base64,"
    }
  ]
}