{
  "asset": {
    "version": "2.0",
    "generator": "TES-23 Cosmic Ray Renderer"
  },
  "extensionsUsed": [
    "KHR_materials_unlit"
  ],
  "extensionsRequired": [
    "KHR_materials_unlit"
  ],
  "scene": 0,
  "scenes": [
    {
      "nodes": [
        0
      ]
    }
  ],
  "nodes": [
    {
      "name": "CosmicRayEvent",
      "mesh": 0
    }
  ],
  "meshes": [
    {
      "name": "CosmicRayEvent",
      "primitives": [
        {
          "attributes": {
            "POSITION": 0
          },
          "material": 0,
          "mode": 1
        },
        {
          "attributes": {
            "POSITION": 1
          },
          "material": 1,
          "mode": 1
        },
        {
          "attributes": {
            "POSITION": 2
          },
          "material": 2,
          "mode": 1
        },
        {
          "attributes": {
            "POSITION": 3
          },
          "material": 3,
          "mode": 1
        },
        {
          "attributes": {
            "POSITION": 4
          },
          "material": 4,
          "mode": 1
        }
      ]
    }
  ],
  "materials": [
    {
      "name": "primary",
      "extensions": {
        "KHR_materials_unlit": {}
      },
      "pbrMetallicRoughness": {
        "baseColorFactor": [
          0.961,
          0.961,
          0.961,
          1
        ],
        "metallicFactor": 0,
        "roughnessFactor": 1
      }
    },
    {
      "name": "vertex",
      "extensions": {
        "KHR_materials_unlit": {}
      },
      "pbrMetallicRoughness": {
        "baseColorFactor": [
          0.902,
          0.902,
          0.902,
          0.9
        ],
        "metallicFactor": 0,
        "roughnessFactor": 1
      }
    },
    {
      "name": "em",
      "extensions": {
        "KHR_materials_unlit": {}
      },
      "pbrMetallicRoughness": {
        "baseColorFactor": [
          0.471,
          0.824,
          1,
          1
        ],
        "metallicFactor": 0,
        "roughnessFactor": 1
      }
    },
    {
      "name": "hadron",
      "extensions": {
        "KHR_materials_unlit": {}
      },
      "pbrMetallicRoughness": {
        "baseColorFactor": [
          0.549,
          1,
          0.745,
          1
        ],
        "metallicFactor": 0,
        "roughnessFactor": 1
      }
    },
    {
      "name": "delta",
      "extensions": {
        "KHR_materials_unlit": {}
      },
      "pbrMetallicRoughness": {
        "baseColorFactor": [
          0.804,
          0.647,
          1,
          1
        ],
        "metallicFactor": 0,
        "roughnessFactor": 1
      }
    }
  ],
  "accessors": [
    {
      "bufferView": 0,
      "byteOffset": 0,
      "componentType": 5126,
      "count": 1354,
      "type": "VEC3",
      "min": [
        -0.9999399781227112,
        -0.0996103286743164,
        0
      ],
      "max": [
        1.0229675769805908,
        0.07737857103347778,
        0
      ]
    },
    {
      "bufferView": 1,
      "byteOffset": 0,
      "componentType": 5126,
      "count": 322,
      "type": "VEC3",
      "min": [
        -0.014736587181687355,
        -0.010660708881914616,
        -0.09908710420131683
      ],
      "max": [
        0.018021469935774803,
        0.009427018463611603,
        0.067420594394207
      ]
    },
    {
      "bufferView": 2,
      "byteOffset": 0,
      "componentType": 5126,
      "count": 1578,
      "type": "VEC3",
      "min": [
        -0.004181027412414551,
        -0.004059717059135437,
        -0.1937938630580902
      ],
      "max": [
        0.29642897844314575,
        0.029263637959957123,
        0.16589775681495667
      ]
    },
    {
      "bufferView": 3,
      "byteOffset": 0,
      "componentType": 5126,
      "count": 1750,
      "type": "VEC3",
      "min": [
        -0.040223389863967896,
        -0.12361246347427368,
        -0.1720295250415802
      ],
      "max": [
        0.28229936957359314,
        0.06348709017038345,
        1.0843420028686523
      ]
    },
    {
      "bufferView": 4,
      "byteOffset": 0,
      "componentType": 5126,
      "count": 544,
      "type": "VEC3",
      "min": [
        -0.14530956745147705,
        -0.12162920832633972,
        -0.3751247227191925
      ],
      "max": [
        0.028241414576768875,
        0.17206066846847534,
        0.2500341832637787
      ]
    }
  ],
  "bufferViews": [
    {
      "buffer": 0,
      "byteOffset": 0,
      "byteLength": 16248,
      "target": 34962
    },
    {
      "buffer": 0,
      "byteOffset": 16248,
      "byteLength": 3864,
      "target": 34962
    },
    {
      "buffer": 0,
      "byteOffset": 20112,
      "byteLength": 18936,
      "target": 34962
    },
    {
      "buffer": 0,
      "byteOffset": 39048,
      "byteLength": 21000,
      "target": 34962
    },
    {
      "buffer": 0,
      "byteOffset": 60048,
      "byteLength": 6528,
      "target": 34962
    }
  ],
  "buffers": [
    {
      "byteLength": 66576,
      "uri": "data:application/octet-stream;base64,"
    }
  ]
}