<?xml version="1.0" encoding="UTF-8"?>
<svg xmlns="http://www.w3.org/2000/svg" width="2000" height="2000" viewBox="0 0 2000 2000">
<g fill="none" stroke-linecap="round" stroke-linejoin="round">
  <path d="M 0.01 1422.21 L 2.62 1420.65 L 5.53 1419.87 L 8.32 1418.24 L 10.78 1417.18 L 13.81 1416.27 L 16.61 1415.53 L 19.28 1413.84 L 22.27 1412.83 L 25.39 1411.53 L 27.64 1410.44 L 30.62 1409.62 L 33.10 1408.08 L 35.85 1406.75 L 38.56 1405.84 L 41.45 1404.36 L 44.22 1403.34 L 47.04 1401.88 L 49.47 1401.29 L 52.21 1400.08 L 55.28 1398.63 L 58.12 1397.69 L 60.90 1396.69 L 63.50 1395.23 L 66.33 1394.20 L 69.46 1393.43 L 72.28 1392.11 L 74.82 1390.36 L 77.49 1389.27 L 80.01 1388.00 L 83.06 1387.39 L 85.73 1385.54 L 88.03 1384.74 L 91.13 1383.53 L 94.00 1382.07 L 96.85 1381.44 L 99.61 1379.86 L 102.46 1378.66 L 105.10 1378.08 L 107.56 1376.79 L 110.64 1375.33 L 113.83 1374.46 L 116.02 1373.29 L 118.99 1372.15 L 121.61 1370.88 L 124.40 1369.47 L 127.34 1368.43 L 129.91 1367.36 L 132.66 1366.30 L 135.70 1364.89 L 138.23 1363.51 L 140.95 1362.26 L 143.74 1361.28 L 146.23 1360.29 L 149.09 1359.16 L 152.08 1358.14 L 155.11 1356.66 L 157.67 1355.84 L 160.08 1354.58 L 163.18 1353.27 L 165.61 1352.06 L 168.69 1350.62 L 171.59 1349.59 L 174.23 1348.56 L 176.86 1347.43 L 179.92 1345.90 L 182.50 1345.24 L 185.32 1343.89 L 188.06 1343.01 L 190.56 1341.77 L 193.57 1340.42 L 196.42 1339.34 L 199.03 1337.74 L 201.49 1336.93 L 204.45 1336.03 L 207.02 1334.37 L 210.10 1333.40 L 213.04 1332.54 L 215.51 1331.21 L 218.26 1329.47 L 221.02 1328.81 L 224.12 1327.50 L 226.48 1326.52 L 229.32 1324.80 L 232.02 1324.06 L 234.94 1322.91 L 237.39 1321.88 L 240.51 1320.80 L 243.06 1318.93 L 246.10 1318.42 L 248.97 1317.03 L 251.18 1316.18 L 254.14 1314.60 L 256.93 1313.61 L 259.93 1312.21 L 262.65 1311.48 L 265.32 1310.46 L 268.27 1308.72 L 270.77 1307.51 L 273.70 1306.72 L 276.34 1305.38 L 279.28 1304.13 L 282.26 1302.85 L 284.80 1302.05 L 287.89 1300.75 L 289.98 1299.99 L 293.00 1298.27 L 295.58 1296.99 L 298.42 1296.36 L 301.24 1294.85 L 304.34 1293.52 L 306.66 1292.57 L 309.47 1291.01 L 312.61 1290.05 L 315.01 1288.96 L 317.57 1288.08 L 320.61 1286.33 L 323.91 1286.06 L 326.42 1284.18 L 328.62 1283.19 L 331.54 1282.22 L 334.58 1280.57 L 337.04 1279.84 L 339.94 1278.49 L 342.58 1277.66 L 345.49 1276.24 L 348.00 1275.25 L 350.79 1273.97 L 354.01 1272.78 L 356.39 1271.66 L 359.43 1270.25 L 362.11 1269.31 L 365.00 1268.15 L 367.88 1266.95 L 370.46 1265.86 L 373.05 1264.11 L 375.96 1263.07 L 378.79 1262.35 L 381.31 1261.07 L 383.76 1260.02 L 386.88 1259.20 L 389.60 1257.45 L 392.79 1256.36 L 395.39 1255.18 L 397.97 1254.11 L 400.75 1252.64 L 403.78 1252.06 L 406.11 1250.70 L 408.61 1249.47 L 411.58 1248.03 L 414.25 1246.89 L 416.99 1245.82 L 419.85 1244.89 L 422.61 1243.57 L 425.40 1242.38 L 428.48 1241.12 L 431.04 1239.75 L 434.00 1238.71 L 436.58 1237.26 L 439.46 1236.71 L 442.53 1235.63 L 444.77 1234.46 L 448.14 1233.07 L 450.59 1231.54 L 453.42 1230.95 L 456.04 1229.44 L 458.77 1228.53 L 461.09 1226.91 L 464.23 1226.07 L 466.83 1224.83 L 469.99 1223.43 L 472.21 1222.48 L 475.38 1221.59 L 477.95 1220.00 L 481.35 1219.33 L 483.86 1217.91 L 486.57 1216.84 L 489.42 1215.77 L 492.08 1214.00 L 494.91 1213.37 L 497.58 1211.90 L 500.27 1210.99 L 502.98 1209.68 L 505.87 1208.44 L 508.45 1207.29 L 511.06 1206.40 L 514.38 1205.09 L 516.91 1203.87 L 519.63 1203.18 L 522.37 1201.41 L 525.27 1200.49 L 527.86 1199.36 L 531.05 1198.44 L 533.32 1197.10 L 536.05 1195.79 L 539.35 1194.65 L 541.87 1193.34 L 544.34 1192.24 L 547.16 1190.98 L 549.74 1190.27 L 552.97 1189.02 L 555.59 1187.61 L 558.38 1186.69 L 560.75 1185.39 L 563.97 1184.18 L 566.68 1183.24 L 569.12 1181.90 L 572.25 1180.75 L 575.19 1179.44 L 577.63 1178.23 L 580.52 1177.19 L 583.03 1175.79 L 585.70 1174.80 L 588.79 1173.42 L 591.60 1172.48 L 594.09 1171.11 L 597.06 1170.32 L 600.09 1168.69 L 602.34 1167.32 L 605.34 1166.83 L 608.19 1165.79 L 610.75 1164.37 L 613.70 1163.16 L 616.24 1161.94 L 618.86 1161.10 L 621.71 1159.59 L 623.92 1158.77 L 627.23 1157.29 L 630.06 1156.29 L 632.66 1154.94 L 635.12 1153.92 L 638.59 1152.51 L 641.25 1151.40 L 644.07 1150.52 L 646.53 1149.02 L 649.60 1147.96 L 652.22 1146.54 L 655.38 1145.61 L 657.87 1144.09 L 660.39 1143.10 L 663.28 1142.04 L 666.08 1141.37 L 668.45 1140.14 L 671.87 1138.28 L 674.65 1137.40 L 676.94 1136.55 L 679.58 1135.06 L 682.77 1134.16 L 685.38 1132.55 L 688.14 1131.85 L 691.46 1130.36 L 693.76 1129.48 L 696.34 1128.44 L 699.41 1126.72 L 702.06 1126.00 L 704.70 1124.29 L 707.74 1123.73 L 710.40 1121.92 L 712.97 1120.93 L 715.45 1119.98 L 718.90 1118.20 L 721.13 1117.61 L 724.65 1116.40 L 726.87 1115.63 L 729.69 1114.08 L 732.21 1112.96 L 735.14 1111.75 L 738.26 1110.42 L 740.99 1109.51 L 743.23 1107.98 L 746.22 1107.31 L 748.96 1106.11 L 751.94 1104.29 L 754.33 1103.34 L 757.06 1102.81 L 760.19 1101.43 L 763.11 1100.10 L 765.60 1098.77 L 768.31 1097.71 L 770.97 1096.78 L 773.89 1095.15 L 776.50 1094.59 L 779.47 1093.60 L 781.93 1092.09 L 785.01 1090.88 L 787.77 1089.66 L 790.38 1088.26 L 793.40 1087.25 L 796.45 1086.42 L 798.72 1085.04 L 801.60 1083.91 L 803.94 1082.17 L 807.10 1081.69 L 809.83 1080.68 L 812.69 1078.78 L 815.37 1078.08 L 818.32 1076.79 L 821.07 1075.24 L 823.24 1074.33 L 826.74 1073.68 L 828.91 1072.23 L 832.15 1070.62 L 834.85 1069.99 L 837.26 1068.82 L 840.47 1067.36 L 842.83 1066.59 L 845.88 1065.25 L 848.53 1063.88 L 851.77 1062.53 L 853.91 1061.44 L 856.69 1060.68 L 859.37 1058.99 L 862.11 1057.97 L 865.02 1057.18 L 868.27 1055.86 L 870.56 1054.33 L 873.22 1053.86 L 876.18 1052.58 L 878.98 1050.94 L 881.70 1049.87 L 884.32 1048.99 L 887.12 1047.76 L 890.27 1046.73 L 892.87 1044.82 L 895.59 1044.15 L 898.43 1042.88 L 901.29 1041.98 L 903.84 1040.52 L 906.76 1039.08 L 908.79 1038.27 L 912.04 1037.41 L 915.12 1036.09 L 917.47 1034.53 L 920.18 1033.91 L 923.55 1032.55 L 926.05 1031.06 L 929.01 1030.08 L 931.42 1028.99 L 934.28 1027.90 L 937.27 1026.33 L 939.98 1025.20 L 942.55 1024.27 L 945.05 1023.38 L 947.66 1021.86 L 950.66 1020.85 L 953.77 1019.71 L 956.20 1018.62 L 958.58 1017.24 L 961.56 1016.11 L 964.51 1014.79 L 967.58 1013.52 L 969.80 1012.78 L 972.73 1011.40 L 975.47 1009.98 L 978.04 1009.10 L 980.98 1008.00 L 984.14 1006.66 L 987.01 1005.66 L 989.43 1004.35 L 992.01 1003.37 L 995.05 1001.83 L 997.81 1001.01 L 1000.00 1000.00 L 1002.76 998.83 L 1005.53 997.66 L 1008.29 996.49 L 1011.05 995.33 L 1013.82 994.16 L 1016.58 993.00 L 1019.35 991.83 L 1022.12 990.68 L 1024.88 989.51 L 1027.64 988.33 L 1030.39 987.15 L 1033.15 985.96 L 1035.90 984.77 L 1038.65 983.57 L 1041.41 982.38 L 1044.16 981.18 L 1046.90 979.98 L 1049.65 978.78 L 1052.40 977.57 L 1055.15 976.36 L 1057.90 975.16 L 1060.64 973.96 L 1063.40 972.76 L 1066.15 971.58 L 1068.91 970.41 L 1071.67 969.23 L 1074.43 968.05 L 1077.19 966.87 L 1079.95 965.68 L 1082.70 964.50 L 1085.45 963.31 L 1088.21 962.12 L 1090.97 960.94 L 1093.73 959.78 L 1096.50 958.62 L 1099.26 957.45 L 1102.03 956.28 L 1104.79 955.12 L 1107.56 953.95 L 1110.32 952.80 L 1113.09 951.64 L 1115.87 950.50 L 1118.64 949.35 L 1121.41 948.21 L 1124.18 947.06 L 1126.96 945.91 L 1129.73 944.77 L 1132.51 943.63 L 1135.29 942.50 L 1138.06 941.37 L 1140.84 940.24 L 1143.62 939.11 L 1146.40 937.98 L 1149.18 936.86 L 1151.96 935.74 L 1154.74 934.61 L 1157.52 933.48 L 1160.30 932.35 L 1163.08 931.23 L 1165.86 930.09 L 1168.64 928.97 L 1171.42 927.84 L 1174.20 926.71 L 1176.98 925.57 L 1179.74 924.41 L 1182.51 923.26 L 1185.28 922.10 L 1188.05 920.95 L 1190.81 919.77 L 1193.58 918.61 L 1196.35 917.46 L 1199.12 916.31 L 1201.89 915.15 L 1204.66 914.00 L 1207.43 912.85 L 1210.20 911.70 L 1212.97 910.54 L 1215.74 909.40 L 1218.51 908.24 L 1221.27 907.08 L 1224.03 905.90 L 1226.78 904.71 L 1229.54 903.51 L 1232.28 902.31 L 1235.04 901.12 L 1237.80 899.94 L 1240.56 898.77 L 1243.32 897.60 L 1246.09 896.43 L 1248.84 895.26 L 1251.60 894.08 L 1254.36 892.89 L 1257.11 891.70 L 1259.86 890.50 L 1262.61 889.30 L 1265.35 888.08 L 1268.09 886.86 L 1270.83 885.63 L 1273.57 884.41 L 1276.30 883.18 L 1279.04 881.94 L 1281.77 880.70 L 1284.50 879.46 L 1287.24 878.24 L 1289.99 877.03 L 1292.73 875.81 L 1295.47 874.59 L 1298.21 873.36 L 1300.94 872.14 L 1303.69 870.93 L 1306.44 869.72 L 1309.18 868.51 L 1311.92 867.29 L 1314.66 866.07 L 1317.40 864.84 L 1320.14 863.62 L 1322.87 862.38 L 1325.60 861.14 L 1328.34 859.90 L 1331.07 858.67 L 1333.82 857.46 L 1336.56 856.25 L 1339.31 855.04 L 1342.05 853.83 L 1344.80 852.62 L 1347.55 851.42 L 1350.30 850.22 L 1353.04 849.02 L 1355.79 847.81 L 1358.54 846.60 L 1361.28 845.39 L 1364.03 844.19 L 1366.78 842.99 L 1369.53 841.80 L 1372.29 840.61 L 1375.05 839.43 L 1377.81 838.26 L 1380.57 837.09 L 1383.34 835.92 L 1386.10 834.77 L 1388.88 833.62 L 1391.64 832.46 L 1394.41 831.29 L 1397.16 830.11 L 1399.92 828.94 L 1402.68 827.76 L 1405.44 826.57 L 1408.20 825.40 L 1410.95 824.21 L 1413.71 823.02 L 1416.46 821.83 L 1419.22 820.65 L 1421.98 819.47 L 1424.74 818.30 L 1427.50 817.13 L 1430.26 815.94 L 1433.01 814.75 L 1435.76 813.56 L 1438.52 812.37 L 1441.27 811.17 L 1444.01 809.96 L 1446.76 808.75 L 1449.51 807.55 L 1452.26 806.36 L 1455.01 805.16 L 1457.77 803.98 L 1460.52 802.78 L 1463.27 801.57 L 1466.02 800.38 L 1468.77 799.19 L 1471.53 798.00 L 1474.28 796.82 L 1477.03 795.62 L 1479.78 794.42 L 1482.54 793.24 L 1485.30 792.06 L 1488.06 790.89 L 1490.82 789.71 L 1493.57 788.52 L 1496.33 787.33 L 1499.08 786.13 L 1501.82 784.93 L 1504.57 783.73 L 1507.32 782.52 L 1510.07 781.31 L 1512.81 780.10 L 1515.55 778.87 L 1518.29 777.65 L 1521.03 776.42 L 1523.77 775.20 L 1526.51 773.98 L 1529.24 772.75 L 1531.98 771.52 L 1534.72 770.30 L 1537.46 769.08 L 1540.20 767.86 L 1542.95 766.66 L 1545.70 765.45 L 1548.44 764.25 L 1551.19 763.04 L 1553.94 761.84 L 1556.69 760.63 L 1559.43 759.42 L 1562.18 758.22 L 1564.93 757.02 L 1567.68 755.82 L 1570.43 754.62 L 1573.18 753.43 L 1575.93 752.23 L 1578.68 751.03 L 1581.43 749.83 L 1584.18 748.64 L 1586.94 747.45 L 1589.69 746.26 L 1592.45 745.08 L 1595.21 743.90 L 1597.97 742.72 L 1600.72 741.54 L 1603.48 740.36 L 1606.24 739.17 L 1609.00 737.99 L 1611.75 736.80 L 1614.51 735.62 L 1617.26 734.43 L 1620.01 733.22 L 1622.76 732.03 L 1625.52 730.85 L 1628.28 729.67 L 1631.04 728.51 L 1633.81 727.34 L 1636.57 726.18 L 1639.33 725.00 L 1642.10 723.83 L 1644.86 722.66 L 1647.62 721.49 L 1650.38 720.31 L 1653.13 719.12 L 1655.88 717.93 L 1658.63 716.73 L 1661.39 715.54 L 1664.15 714.37 L 1666.90 713.17 L 1669.66 711.99 L 1672.41 710.81 L 1675.17 709.62 L 1677.93 708.44 L 1680.68 707.25 L 1683.44 706.07 L 1686.20 704.90 L 1688.96 703.73 L 1691.73 702.58 L 1694.50 701.42 L 1697.27 700.26 L 1700.04 699.11 L 1702.80 697.94 L 1705.57 696.78 L 1708.34 695.62 L 1711.10 694.46 L 1713.86 693.28 L 1716.62 692.10 L 1719.37 690.91 L 1722.12 689.71 L 1724.88 688.52 L 1727.63 687.33 L 1730.38 686.13 L 1733.12 684.91 L 1735.86 683.69 L 1738.61 682.48 L 1741.35 681.26 L 1744.09 680.04 L 1746.83 678.83 L 1749.58 677.62 L 1752.32 676.40 L 1755.06 675.18 L 1757.80 673.96 L 1760.54 672.74 L 1763.28 671.52 L 1766.02 670.30 L 1768.76 669.08 L 1771.51 667.86 L 1774.25 666.65 L 1776.99 665.43 L 1779.74 664.22 L 1782.48 663.01 L 1785.22 661.79 L 1787.97 660.58 L 1790.71 659.38 L 1793.46 658.18 L 1796.21 656.97 L 1798.96 655.76 L 1801.70 654.56 L 1804.45 653.36 L 1807.20 652.15 L 1809.94 650.94 L 1812.68 649.72 L 1815.43 648.50 L 1818.17 647.28 L 1820.91 646.06 L 1823.65 644.84 L 1826.39 643.62 L 1829.13 642.40 L 1831.87 641.17 L 1834.61 639.95 L 1837.33 638.70 L 1840.07 637.46 L 1842.80 636.22 L 1845.53 634.97 L 1848.25 633.72 L 1850.98 632.48 L 1853.71 631.23 L 1856.45 630.00 L 1859.18 628.76 L 1861.92 627.53 L 1864.66 626.31 L 1867.39 625.08 L 1870.13 623.85 L 1872.87 622.64 L 1875.61 621.42 L 1878.36 620.21 L 1881.10 619.00 L 1883.84 617.78 L 1886.59 616.56 L 1889.33 615.35 L 1892.08 614.15 L 1894.83 612.95 L 1897.59 611.77 L 1900.34 610.57 L 1903.09 609.39 L 1905.86 608.21 L 1908.62 607.05 L 1911.38 605.87 L 1914.14 604.69 L 1916.89 603.51 L 1919.65 602.31 L 1922.39 601.10 L 1925.14 599.89 L 1927.88 598.67 L 1930.62 597.46 L 1933.37 596.26 L 1936.12 595.06 L 1938.87 593.87 L 1941.63 592.69 L 1944.39 591.52 L 1947.16 590.35 L 1949.92 589.18 L 1952.68 588.01 L 1955.45 586.84 L 1958.21 585.67 L 1960.98 584.52 L 1963.75 583.36 L 1966.52 582.22 L 1969.30 581.09 L 1972.07 579.95 L 1974.85 578.82 L 1977.63 577.68 L 1980.41 576.56 L 1983.20 575.45 L 1985.98 574.33 L 1988.77 573.21 L 1991.55 572.10 L 1994.33 570.98 L 1997.11 569.85 L 1999.89 568.71 L 2002.66 567.57 L 2005.44 566.44 L 2008.22 565.30 L 2010.99 564.16 L 2013.76 563.01 L 2016.53 561.85 L 2019.31 560.71 L 2022.08 559.57" stroke="rgb(245,245,245)" stroke-opacity="0.957" stroke-width="1.82" />
  <path d="M 999.95 1000.93 L 1003.11 999.59 L 1006.27 998.29 L 1009.40 996.97 L 1012.52 995.65 L 1015.63 994.34 L 1018.73 993.03 L 1021.82 991.76 L 1024.90 990.47 L 1027.99 989.25 L 1031.07 988.05 L 1034.13 986.84 L 1037.17 985.62 L 1040.20 984.39 L 1043.21 983.16 L 1046.21 981.93 L 1049.20 980.71 L 1052.19 979.51 L 1055.16 978.33 L 1058.11 977.11 L 1061.05 975.91 L 1063.98 974.72 L 1066.88 973.50 L 1069.78 972.30 L 1072.67 971.11 L 1075.56 969.94 L 1078.43 968.77 L 1081.28 967.59 L 1084.12 966.40 L 1086.95 965.23 L 1089.76 964.04 L 1092.58 962.89 L 1095.35 961.69 L 1098.12 960.49 L 1100.89 959.33 L 1103.66 958.19 L 1106.42 957.07" stroke="rgb(120,210,255)" stroke-opacity="0.854" stroke-width="1.64" />
  <path d="M 999.47 1001.84 L 1002.57 1000.61 L 1005.64 999.34 L 1008.69 998.08 L 1011.73 996.80 L 1014.77 995.56 L 1017.79 994.33 L 1020.81 993.10 L 1023.81 991.88 L 1026.80 990.66 L 1029.77 989.43 L 1032.73 988.22 L 1035.68 986.99 L 1038.62 985.78" stroke="rgb(120,210,255)" stroke-opacity="0.854" stroke-width="1.63" />
  <path d="M 1050.12 972.92 L 1053.13 971.16 L 1056.13 969.40 L 1059.12 967.67 L 1062.12 965.97 L 1065.10 964.27 L 1068.04 962.53 L 1070.97 960.81 L 1073.88 959.08 L 1076.79 957.37 L 1079.69 955.68 L 1082.57 953.98 L 1085.44 952.28 L 1088.29 950.59 L 1091.13 948.90 L 1093.98 947.24 L 1096.80 945.56 L 1099.61 943.90 L 1102.42 942.25 L 1105.22 940.61 L 1107.98 938.95 L 1110.77 937.34 L 1113.56 935.77 L 1116.34 934.21 L 1119.11 932.66 L 1121.87 931.12 L 1124.63 929.60 L 1127.38 928.09 L 1130.10 926.55 L 1132.80 925.01 L 1135.49 923.47 L 1138.17 921.95 L 1140.86 920.45 L 1143.56 919.00 L 1146.24 917.54 L 1148.90 916.07 L 1151.55 914.61 L 1154.18 913.12 L 1156.81 911.67 L 1159.43 910.22 L 1162.02 908.75 L 1164.62 907.31 L 1167.18 905.85 L 1169.74 904.39 L 1172.27 902.92 L 1174.80 901.47 L 1177.32 900.01 L 1179.79 898.51 L 1182.26 897.04 L 1184.70 895.55 L 1187.12 894.03 L 1189.55 892.55 L 1191.96 891.07 L 1194.37 889.59 L 1196.77 888.13" stroke="rgb(120,210,255)" stroke-opacity="0.851" stroke-width="1.63" />
  <path d="M 1089.74 957.78 L 1092.54 956.78 L 1095.33 955.78 L 1098.13 954.84 L 1100.91 953.88 L 1103.68 952.91 L 1106.42 951.92 L 1109.15 950.91 L 1111.86 949.84 L 1114.51 948.68 L 1117.16 947.51 L 1119.79 946.33 L 1122.40 945.16 L 1125.01 943.98 L 1127.59 942.77 L 1130.16 941.56 L 1132.73 940.37 L 1135.27 939.16 L 1137.78 937.93 L 1140.24 936.62 L 1142.72 935.38 L 1145.17 934.12 L 1147.62 932.86 L 1150.06 931.61 L 1152.49 930.37 L 1154.90 929.10 L 1157.27 927.79 L 1159.61 926.44" stroke="rgb(120,210,255)" stroke-opacity="0.467" stroke-width="1.62" />
  <path d="M 999.67 1001.54 L 1002.49 1000.30 L 1005.31 999.07 L 1008.08 997.79 L 1010.85 996.52 L 1013.62 995.29 L 1016.37 994.03 L 1019.10 992.77 L 1021.82 991.52 L 1024.51 990.24 L 1027.19 988.95 L 1029.83 987.63 L 1032.50 986.37 L 1035.15 985.10 L 1037.79 983.84 L 1040.38 982.52 L 1042.98 981.23 L 1045.58 979.96 L 1048.16 978.68 L 1050.73 977.41 L 1053.29 976.13 L 1055.85 974.90 L 1058.38 973.62 L 1060.86 972.29 L 1063.34 970.96 L 1065.81 969.63 L 1068.26 968.30 L 1070.70 966.98 L 1073.14 965.68 L 1075.56 964.37 L 1077.97 963.06 L 1080.40 961.81 L 1082.82 960.56 L 1085.22 959.30 L 1087.63 958.08 L 1090.03 956.86 L 1092.40 955.62 L 1094.78 954.41 L 1097.14 953.20 L 1099.51 952.03 L 1101.87 950.86 L 1104.22 949.69 L 1106.56 948.53 L 1108.90 947.37 L 1111.22 946.22 L 1113.51 945.03 L 1115.80 943.84 L 1118.08 942.68 L 1120.40 941.60 L 1122.69 940.51 L 1124.99 939.44 L 1127.26 938.35 L 1129.53 937.27 L 1131.78 936.18 L 1134.02 935.07 L 1136.21 933.91 L 1138.40 932.77 L 1140.60 931.66 L 1142.80 930.56 L 1145.01 929.52 L 1147.21 928.48 L 1149.40 927.46 L 1151.59 926.45 L 1153.75 925.40 L 1155.88 924.31 L 1158.03 923.28 L 1160.16 922.24 L 1162.29 921.22 L 1164.43 920.24 L 1166.56 919.25 L 1168.67 918.25 L 1170.78 917.27 L 1172.89 916.31 L 1174.99 915.34" stroke="rgb(120,210,255)" stroke-opacity="0.466" stroke-width="1.61" />
  <path d="M 997.80 1001.77 L 1000.48 1000.60 L 1003.16 999.48 L 1005.84 998.39 L 1008.51 997.31 L 1011.17 996.25 L 1013.83 995.19 L 1016.50 994.21 L 1019.16 993.23 L 1021.83 992.31 L 1024.50 991.41 L 1027.14 990.46 L 1029.76 989.52 L 1032.38 988.58 L 1034.98 987.61" stroke="rgb(120,210,255)" stroke-opacity="0.465" stroke-width="1.61" />
  <path d="M 999.33 998.41 L 1002.34 997.31 L 1005.36 996.25 L 1008.35 995.17 L 1011.30 994.01 L 1014.24 992.85 L 1017.16 991.69 L 1020.08 990.54 L 1022.96 989.34 L 1025.81 988.10 L 1028.61 986.78 L 1031.41 985.48 L 1034.19 984.20 L 1036.97 982.90 L 1039.72 981.60 L 1042.47 980.31 L 1045.22 979.07 L 1047.97 977.85 L 1050.71 976.62 L 1053.42 975.38 L 1056.10 974.09 L 1058.76 972.79 L 1061.41 971.49 L 1064.05 970.20 L 1066.66 968.87 L 1069.28 967.59 L 1071.87 966.28 L 1074.45 964.98 L 1077.02 963.68 L 1079.58 962.38 L 1082.12 961.08 L 1084.60 959.68 L 1087.07 958.29 L 1089.53 956.91 L 1091.99 955.56 L 1094.44 954.21 L 1096.89 952.89 L 1099.33 951.57 L 1101.77 950.26 L 1104.18 948.92 L 1106.55 947.55 L 1108.93 946.21 L 1111.30 944.87 L 1113.66 943.53 L 1116.00 942.17 L 1118.32 940.82 L 1120.64 939.47 L 1122.96 938.15 L 1125.27 936.85 L 1127.57 935.53 L 1129.89 934.28 L 1132.21 933.06 L 1134.52 931.83 L 1136.80 930.56 L 1139.05 929.27 L 1141.29 927.99 L 1143.50 926.69 L 1145.73 925.44 L 1147.96 924.23 L 1150.18 923.00 L 1152.40 921.82 L 1154.60 920.63 L 1156.79 919.44 L 1158.97 918.22 L 1161.14 917.01 L 1163.31 915.83 L 1165.48 914.66 L 1167.63 913.48 L 1169.76 912.29 L 1171.88 911.10 L 1174.00 909.93 L 1176.10 908.74 L 1178.21 907.62 L 1180.30 906.47 L 1182.39 905.35 L 1184.47 904.23 L 1186.55 903.13 L 1188.63 902.05 L 1190.68 900.95 L 1192.74 899.88 L 1194.79 898.81 L 1196.83 897.75 L 1198.85 896.65 L 1200.87 895.57 L 1202.89 894.50 L 1204.90 893.44 L 1206.90 892.39 L 1208.89 891.34 L 1210.87 890.30 L 1212.84 889.26 L 1214.81 888.24 L 1216.77 887.24 L 1218.69 886.19 L 1220.62 885.15 L 1222.55 884.13 L 1224.46 883.12 L 1226.37 882.10 L 1228.25 881.05 L 1230.12 880.00 L 1231.96 878.93 L 1233.80 877.87 L 1235.62 876.80 L 1237.45 875.75 L 1239.26 874.68 L 1241.09 873.66 L 1242.94 872.67 L 1244.76 871.66 L 1246.58 870.69 L 1248.40 869.71 L 1250.21 868.74 L 1252.00 867.77 L 1253.78 866.79 L 1255.55 865.82 L 1257.30 864.80 L 1259.03 863.77 L 1260.75 862.74 L 1262.47 861.72 L 1264.19 860.74 L 1265.89 859.73 L 1267.60 858.75 L 1269.31 857.78 L 1271.01 856.81 L 1272.71 855.86 L 1274.40 854.91 L 1276.09 853.97 L 1277.77 853.04 L 1279.45 852.12 L 1281.13 851.19 L 1282.79 850.27 L 1284.45 849.35 L 1286.11 848.44 L 1287.78 847.55 L 1289.44 846.67 L 1291.10 845.80 L 1292.72 844.90 L 1294.37 844.06 L 1296.01 843.21 L 1297.64 842.38 L 1299.25 841.50 L 1300.83 840.60 L 1302.41 839.71 L 1303.98 838.80 L 1305.50 837.86 L 1307.03 836.94 L 1308.54 836.00 L 1310.06 835.10 L 1311.55 834.19 L 1313.04 833.27 L 1314.51 832.35 L 1315.98 831.44 L 1317.45 830.53 L 1318.91 829.62 L 1320.38 828.73 L 1321.83 827.84" stroke="rgb(120,210,255)" stroke-opacity="0.845" stroke-width="1.61" />
  <path d="M 1002.52 998.93 L 1005.67 997.54 L 1008.80 996.15 L 1011.92 994.75 L 1015.02 993.37 L 1018.13 992.01 L 1021.21 990.65 L 1024.29 989.30 L 1027.36 987.96 L 1030.41 986.63 L 1033.46 985.31 L 1036.49 983.99 L 1039.51 982.67 L 1042.51 981.35 L 1045.49 980.00 L 1048.44 978.63 L 1051.38 977.27 L 1054.33 975.96 L 1057.27 974.65 L 1060.21 973.38 L 1063.13 972.11 L 1066.04 970.83 L 1068.93 969.53 L 1071.81 968.25 L 1074.67 966.98 L 1077.54 965.74 L 1080.40 964.50 L 1083.24 963.25 L 1086.06 961.98 L 1088.86 960.72 L 1091.65 959.45 L 1094.42 958.17 L 1097.17 956.87 L 1099.91 955.58 L 1102.64 954.30 L 1105.36 953.02 L 1108.07 951.76 L 1110.77 950.50 L 1113.46 949.25 L 1116.14 948.00 L 1118.81 946.76 L 1121.46 945.51 L 1124.10 944.27 L 1126.75 943.07 L 1129.39 941.88 L 1132.04 940.74 L 1134.68 939.61 L 1137.32 938.50 L 1139.94 937.39 L 1142.53 936.24 L 1145.10 935.07 L 1147.67 933.92 L 1150.23 932.77 L 1152.76 931.60 L 1155.28 930.42 L 1157.78 929.24 L 1160.27 928.07 L 1162.74 926.88 L 1165.22 925.71 L 1167.68 924.56 L 1170.15 923.42 L 1172.60 922.28 L 1175.06 921.19 L 1177.51 920.09 L 1179.95 919.01 L 1182.38 917.93 L 1184.79 916.83 L 1187.20 915.75 L 1189.61 914.69 L 1192.01 913.65 L 1194.39 912.59 L 1196.77 911.54 L 1199.14 910.51 L 1201.51 909.49 L 1203.86 908.46 L 1206.21 907.45 L 1208.55 906.43 L 1210.88 905.43 L 1213.20 904.42 L 1215.49 903.38 L 1217.77 902.34 L 1220.03 901.28 L 1222.29 900.23 L 1224.53 899.18 L 1226.77 898.14 L 1229.00 897.11 L 1231.22 896.08 L 1233.44 895.06 L 1235.64 894.04" stroke="rgb(120,210,255)" stroke-opacity="0.843" stroke-width="1.60" />
  <path d="M 999.23 996.11 L 1001.97 994.99 L 1004.70 993.87 L 1007.41 992.72 L 1010.10 991.56 L 1012.79 990.42 L 1015.45 989.27 L 1018.10 988.11 L 1020.71 986.89 L 1023.30 985.64 L 1025.88 984.42 L 1028.43 983.18 L 1030.98 981.93 L 1033.51 980.69 L 1036.05 979.49 L 1038.58 978.28 L 1041.10 977.09 L 1043.63 975.93 L 1046.17 974.82 L 1048.71 973.76 L 1051.23 972.65 L 1053.72 971.51 L 1056.17 970.31 L 1058.60 969.12 L 1061.00 967.88 L 1063.41 966.67 L 1065.78 965.43 L 1068.15 964.21 L 1070.50 962.97 L 1072.85 961.74 L 1075.25 960.62 L 1077.64 959.53 L 1080.03 958.47 L 1082.41 957.39 L 1084.77 956.32 L 1087.11 955.21" stroke="rgb(120,210,255)" stroke-opacity="0.463" stroke-width="1.60" />
  <path d="M 999.68 1004.04 L 1002.66 1002.78 L 1005.63 1001.52 L 1008.57 1000.24 L 1011.48 998.90 L 1014.34 997.51 L 1017.18 996.09 L 1019.98 994.62 L 1022.81 993.24 L 1025.63 991.86 L 1028.39 990.42 L 1031.16 989.00 L 1033.90 987.56 L 1036.62 986.10 L 1039.33 984.65 L 1042.06 983.27 L 1044.78 981.89 L 1047.49 980.53 L 1050.20 979.18 L 1052.89 977.82 L 1055.55 976.44 L 1058.22 975.10 L 1060.88 973.77 L 1063.55 972.47 L 1066.22 971.22 L 1068.90 970.01 L 1071.57 968.83 L 1074.21 967.59 L 1076.83 966.34 L 1079.43 965.09 L 1082.02 963.84 L 1084.61 962.61 L 1087.20 961.40 L 1089.77 960.19 L 1092.30 958.91 L 1094.83 957.64 L 1097.33 956.37 L 1099.82 955.08 L 1102.29 953.79 L 1104.76 952.54 L 1107.19 951.23 L 1109.63 949.96 L 1112.07 948.72 L 1114.49 947.46 L 1116.90 946.19 L 1119.31 944.94 L 1121.69 943.68 L 1124.02 942.35 L 1126.34 941.01 L 1128.66 939.69 L 1130.98 938.37 L 1133.26 937.03 L 1135.53 935.69 L 1137.78 934.34 L 1140.02 932.97 L 1142.25 931.63 L 1144.49 930.31 L 1146.72 929.00 L 1148.94 927.70 L 1151.17 926.42 L 1153.38 925.14 L 1155.59 923.87 L 1157.79 922.62 L 1160.01 921.41 L 1162.24 920.25 L 1164.45 919.06 L 1166.64 917.89 L 1168.84 916.73 L 1171.03 915.57 L 1173.23 914.45 L 1175.40 913.32 L 1177.57 912.19 L 1179.72 911.05 L 1181.86 909.90 L 1183.98 908.74 L 1186.09 907.58 L 1188.18 906.42 L 1190.27 905.26 L 1192.35 904.12 L 1194.43 902.98 L 1196.48 901.83 L 1198.53 900.68 L 1200.57 899.53 L 1202.60 898.40 L 1204.62 897.27 L 1206.63 896.13 L 1208.62 894.99 L 1210.60 893.85 L 1212.57 892.70 L 1214.53 891.57 L 1216.49 890.44 L 1218.42 889.30" stroke="rgb(120,210,255)" stroke-opacity="0.842" stroke-width="1.60" />
  <path d="M 1087.50 958.63 L 1090.39 956.82 L 1093.28 955.03 L 1096.17 953.26 L 1099.05 951.49 L 1101.85 949.63 L 1104.64 947.79 L 1107.41 945.93 L 1110.17 944.09 L 1112.92 942.25 L 1115.66 940.43 L 1118.39 938.60 L 1121.13 936.83 L 1123.87 935.06 L 1126.60 933.31 L 1129.36 931.64 L 1132.10 929.96 L 1134.82 928.27 L 1137.53 926.58 L 1140.22 924.91 L 1142.89 923.20 L 1145.55 921.51 L 1148.17 919.78 L 1150.78 918.06 L 1153.38 916.35 L 1155.96 914.64 L 1158.54 912.94 L 1161.10 911.23" stroke="rgb(120,210,255)" stroke-opacity="0.841" stroke-width="1.60" />
  <path d="M 1002.89 1000.35 L 1005.96 999.10 L 1009.03 997.86 L 1012.09 996.65 L 1015.14 995.46 L 1018.19 994.27 L 1021.24 993.16 L 1024.29 992.05 L 1027.33 990.97 L 1030.35 989.87 L 1033.38 988.82 L 1036.39 987.78 L 1039.37 986.70 L 1042.35 985.62 L 1045.31 984.54 L 1048.26 983.46 L 1051.19 982.38" stroke="rgb(120,210,255)" stroke-opacity="0.840" stroke-width="1.59" />
  <path d="M 999.90 999.99 L 1002.77 998.71 L 1005.60 997.38 L 1008.43 996.10 L 1011.23 994.75 L 1014.00 993.40 L 1016.77 992.05 L 1019.54 990.76 L 1022.29 989.43 L 1025.06 988.18" stroke="rgb(120,210,255)" stroke-opacity="0.840" stroke-width="1.59" />
  <path d="M 995.48 996.66 L 998.10 995.58 L 1000.69 994.49 L 1003.27 993.40 L 1005.84 992.31 L 1008.41 991.25 L 1010.96 990.18 L 1013.51 989.12 L 1016.04 988.06 L 1018.55 986.98 L 1021.05 985.89 L 1023.53 984.80 L 1026.00 983.69 L 1028.44 982.57 L 1030.87 981.43 L 1033.26 980.25 L 1035.66 979.09 L 1038.02 977.89 L 1040.43 976.81 L 1042.86 975.83 L 1045.29 974.85 L 1047.71 973.89 L 1050.12 972.92 L 1052.55 972.04 L 1054.96 971.13 L 1057.37 970.25 L 1059.76 969.36 L 1062.12 968.40 L 1064.48 967.49 L 1066.84 966.60 L 1069.18 965.70 L 1071.51 964.79 L 1073.83 963.90 L 1076.14 963.00 L 1078.43 962.09 L 1080.72 961.24 L 1082.98 960.36 L 1085.25 959.50 L 1087.50 958.63 L 1089.74 957.78 L 1092.00 957.00 L 1094.27 956.24 L 1096.52 955.47 L 1098.73 954.65" stroke="rgb(120,210,255)" stroke-opacity="0.454" stroke-width="1.55" />
  <path d="M 1127.59 958.45 L 1129.73 958.47 L 1131.85 958.49 L 1133.95 958.47 L 1136.03 958.41 L 1138.08 958.40 L 1140.12 958.27 L 1142.09 958.22 L 1144.12 958.19 L 1146.11 958.16 L 1148.02 957.95 L 1149.89 957.81 L 1151.75 957.66 L 1153.69 957.51 L 1155.62 957.32 L 1157.57 957.12 L 1159.55 957.03 L 1161.50 956.86 L 1163.40 956.81 L 1165.23 956.86 L 1167.13 956.89 L 1169.02 956.98 L 1170.87 957.10" stroke="rgb(140,255,190)" stroke-opacity="0.569" stroke-width="1.24" />
  <path d="M 994.61 1053.41 L 995.42 1056.73 L 996.22 1060.03 L 997.02 1063.32 L 997.81 1066.59 L 998.60 1069.85 L 999.39 1073.09 L 1000.17 1076.33 L 1000.95 1079.55 L 1001.69 1082.78 L 1002.44 1085.99 L 1003.17 1089.19 L 1003.90 1092.38 L 1004.68 1095.54 L 1005.44 1098.69 L 1006.21 1101.83 L 1006.98 1104.95 L 1007.74 1108.06 L 1008.49 1111.16 L 1009.20 1114.27 L 1009.90 1117.37 L 1010.59 1120.45 L 1011.31 1123.52 L 1011.99 1126.58 L 1012.66 1129.63 L 1013.31 1132.67 L 1013.95 1135.71 L 1014.54 1138.73 L 1015.18 1141.74 L 1015.80 1144.73 L 1016.42 1147.71 L 1017.04 1150.68" stroke="rgb(205,165,255)" stroke-opacity="0.718" stroke-width="1.24" />
  <path d="M 1051.46 1012.70 L 1053.48 1014.10 L 1055.51 1015.50 L 1057.55 1016.89 L 1059.58 1018.24 L 1061.56 1019.62 L 1063.54 1020.95 L 1065.48 1022.28 L 1067.47 1023.63 L 1069.48 1024.94 L 1071.48 1026.20 L 1073.48 1027.43 L 1075.50 1028.64 L 1077.54 1029.86 L 1079.58 1030.98 L 1081.64 1032.10 L 1083.68 1033.21 L 1085.72 1034.31 L 1087.71 1035.40 L 1089.69 1036.47 L 1091.62 1037.56 L 1093.54 1038.66 L 1095.43 1039.79 L 1097.31 1040.92 L 1099.22 1041.96 L 1101.13 1042.99 L 1103.10 1044.03 L 1105.00 1045.02 L 1106.90 1046.01 L 1108.70 1047.04 L 1110.49 1048.04 L 1112.29 1048.99 L 1114.09 1049.94 L 1115.88 1050.89 L 1117.64 1051.86 L 1119.39 1052.82 L 1121.19 1053.72 L 1122.97 1054.61 L 1124.79 1055.51 L 1126.60 1056.42 L 1128.40 1057.31 L 1130.22 1058.20 L 1132.03 1059.07 L 1133.84 1059.95 L 1135.66 1060.84 L 1137.46 1061.76 L 1139.29 1062.66 L 1141.04 1063.52 L 1142.79 1064.37 L 1144.58 1065.21 L 1146.34 1066.04" stroke="rgb(205,165,255)" stroke-opacity="0.715" stroke-width="1.23" />
  <path d="M 1042.75 1010.16 L 1045.26 1010.14 L 1047.83 1010.12 L 1050.37 1010.11 L 1052.90 1010.10 L 1055.44 1010.12 L 1057.97 1010.01 L 1060.50 1009.90 L 1063.00 1009.76 L 1065.53 1009.64 L 1068.04 1009.50 L 1070.52 1009.36 L 1072.99 1009.23 L 1075.44 1009.07 L 1077.93 1008.84 L 1080.41 1008.61 L 1082.89 1008.40 L 1085.38 1008.15 L 1087.88 1007.86 L 1090.36 1007.55 L 1092.87 1007.27 L 1095.30 1007.10 L 1097.72 1006.93 L 1100.13 1006.79 L 1102.46 1006.57 L 1104.76 1006.30 L 1107.04 1006.01 L 1109.28 1005.74 L 1111.50 1005.48 L 1113.73 1005.22 L 1115.93 1004.95 L 1118.11 1004.77 L 1120.27 1004.63 L 1122.41 1004.48 L 1124.54 1004.36 L 1126.66 1004.23 L 1128.78 1004.12 L 1130.81 1004.06 L 1132.81 1003.97 L 1134.82 1003.86 L 1136.84 1003.77 L 1138.88 1003.68 L 1140.90 1003.60 L 1142.88 1003.52 L 1144.83 1003.37 L 1146.79 1003.24 L 1148.76 1003.05 L 1150.72 1002.88" stroke="rgb(205,165,255)" stroke-opacity="0.709" stroke-width="1.21" />
  <path d="M 1001.74 998.32 L 1004.93 997.02 L 1008.11 995.71 L 1011.28 994.41 L 1014.43 993.11 L 1017.56 991.81 L 1020.70 990.55 L 1023.81 989.28 L 1026.92 988.05 L 1030.02 986.85 L 1033.12 985.66 L 1036.20 984.49 L 1039.26 983.31 L 1042.32 982.15 L 1045.36 980.99 L 1048.37 979.80 L 1051.37 978.61 L 1054.34 977.39 L 1057.30 976.17 L 1060.25 974.96 L 1063.19 973.76 L 1066.11 972.55 L 1069.02 971.36 L 1071.93 970.18" stroke="rgb(140,255,190)" stroke-opacity="0.740" stroke-width="1.19" />
  <path d="M 1117.42 928.14 L 1119.90 925.82 L 1122.41 923.57 L 1124.92 921.32 L 1127.40 919.06 L 1129.85 916.79 L 1132.32 914.58 L 1134.76 912.34 L 1137.21 910.14 L 1139.64 907.93 L 1142.04 905.72 L 1144.41 903.49 L 1146.78 901.28 L 1149.17 899.09 L 1151.55 896.93 L 1153.85 894.69 L 1156.15 892.47 L 1158.47 890.29 L 1160.78 888.11 L 1163.06 885.93 L 1165.33 883.75 L 1167.59 881.60 L 1169.84 879.44 L 1172.02 877.23 L 1174.17 875.01 L 1176.31 872.81 L 1178.43 870.59 L 1180.55 868.39 L 1182.65 866.18 L 1184.74 863.99 L 1186.86 861.84 L 1188.95 859.68 L 1191.08 857.57 L 1193.21 855.48 L 1195.30 853.37 L 1197.38 851.27 L 1199.43 849.16 L 1201.47 847.06 L 1203.49 844.96 L 1205.51 842.87 L 1207.54 840.81 L 1209.57 838.76 L 1211.60 836.73 L 1213.60 834.68 L 1215.59 832.64 L 1217.58 830.64 L 1219.56 828.64" stroke="rgb(140,255,190)" stroke-opacity="0.739" stroke-width="1.19" />
  <path d="M 1003.00 999.77 L 1006.17 998.41 L 1009.30 997.00 L 1012.42 995.60 L 1015.52 994.20 L 1018.60 992.76 L 1021.67 991.36 L 1024.72 989.96 L 1027.78 988.61 L 1030.83 987.29 L 1033.86 985.95 L 1036.87 984.59 L 1039.87 983.27 L 1042.86 981.95 L 1045.83 980.63 L 1048.82 979.38 L 1051.78 978.09 L 1054.73 976.82 L 1057.65 975.51 L 1060.55 974.20 L 1063.43 972.88 L 1066.30 971.56 L 1069.14 970.20 L 1071.97 968.86 L 1074.81 967.56 L 1077.65 966.27 L 1080.46 964.96 L 1083.27 963.67 L 1086.07 962.40 L 1088.85 961.12 L 1091.62 959.83 L 1094.39 958.59" stroke="rgb(140,255,190)" stroke-opacity="0.739" stroke-width="1.19" />
  <path d="M 1002.18 996.24 L 1005.37 995.07 L 1008.52 993.85 L 1011.68 992.67 L 1014.85 991.58 L 1018.01 990.50 L 1021.15 989.42 L 1024.29 988.36 L 1027.42 987.33 L 1030.54 986.34 L 1033.65 985.32 L 1036.74 984.33 L 1039.82 983.32 L 1042.89 982.32 L 1045.94 981.31 L 1048.98 980.30 L 1052.01 979.30 L 1055.03 978.28 L 1058.02 977.26 L 1061.01 976.22 L 1063.99 975.24 L 1066.96 974.21 L 1069.91 973.18 L 1072.84 972.15 L 1075.76 971.11 L 1078.67 970.08 L 1081.56 969.04 L 1084.45 968.02 L 1087.33 967.03 L 1090.21 966.08 L 1093.10 965.18 L 1095.98 964.29 L 1098.85 963.42 L 1101.71 962.54 L 1104.56 961.67 L 1107.39 960.79 L 1110.21 959.94 L 1113.03 959.08 L 1115.83 958.22 L 1118.62 957.37 L 1121.41 956.51 L 1124.17 955.65 L 1126.94 954.83 L 1129.69 954.00 L 1132.42 953.16 L 1135.15 952.32 L 1137.86 951.48 L 1140.55 950.62 L 1143.22 949.71 L 1145.88 948.82 L 1148.52 947.91 L 1151.15 947.00 L 1153.77 946.11 L 1156.39 945.22 L 1158.99 944.33 L 1161.58 943.46 L 1164.17 942.59 L 1166.75 941.74" stroke="rgb(140,255,190)" stroke-opacity="0.739" stroke-width="1.19" />
  <path d="M 998.60 1001.52 L 1001.70 1000.06 L 1004.81 998.64 L 1007.90 997.20 L 1010.98 995.78 L 1014.05 994.37 L 1017.11 992.97 L 1020.17 991.61 L 1023.22 990.23 L 1026.22 988.79 L 1029.20 987.35 L 1032.17 985.91 L 1035.13 984.47 L 1038.07 983.03 L 1041.01 981.62 L 1043.92 980.16 L 1046.79 978.69 L 1049.65 977.21 L 1052.49 975.70 L 1055.30 974.20 L 1058.13 972.73 L 1060.93 971.25 L 1063.72 969.79 L 1066.52 968.35 L 1069.28 966.87 L 1072.03 965.41 L 1074.78 963.97 L 1077.52 962.55 L 1080.24 961.10 L 1082.95 959.66 L 1085.64 958.22 L 1088.33 956.79 L 1091.01 955.37 L 1093.66 953.93 L 1096.30 952.49 L 1098.94 951.07 L 1101.57 949.66 L 1104.18 948.24 L 1106.79 946.84 L 1109.39 945.45 L 1111.98 944.05 L 1114.55 942.65 L 1117.11 941.26 L 1119.65 939.86 L 1122.18 938.47 L 1124.71 937.08 L 1127.22 935.69 L 1129.72 934.32 L 1132.22 932.98 L 1134.72 931.63 L 1137.19 930.27 L 1139.65 928.92 L 1142.12 927.59 L 1144.57 926.27 L 1147.02 924.97 L 1149.46 923.66 L 1151.89 922.36 L 1154.32 921.07 L 1156.73 919.79 L 1159.14 918.51" stroke="rgb(140,255,190)" stroke-opacity="0.737" stroke-width="1.19" />
  <path d="M 1080.46 964.96 L 1083.20 963.02 L 1085.93 961.10 L 1088.65 959.20 L 1091.36 957.29 L 1094.05 955.38 L 1096.74 953.49 L 1099.41 951.60 L 1102.08 949.74 L 1104.72 947.87 L 1107.33 945.98 L 1109.93 944.08 L 1112.52 942.18 L 1115.10 940.30 L 1117.69 938.46 L 1120.27 936.65 L 1122.83 934.86 L 1125.38 933.07 L 1127.90 931.25 L 1130.39 929.41 L 1132.91 927.62 L 1135.43 925.83 L 1137.95 924.06 L 1140.45 922.30 L 1142.95 920.55 L 1145.42 918.77 L 1147.91 917.03 L 1150.38 915.28 L 1152.85 913.56 L 1155.32 911.84 L 1157.78 910.15 L 1160.24 908.48 L 1162.68 906.80 L 1165.10 905.12 L 1167.47 903.40 L 1169.83 901.69 L 1172.18 899.98 L 1174.54 898.30 L 1176.90 896.63 L 1179.24 894.97 L 1181.58 893.31 L 1183.91 891.67 L 1186.19 889.98 L 1188.49 888.33 L 1190.80 886.72 L 1193.12 885.13 L 1195.44 883.54 L 1197.74 881.96 L 1200.04 880.41 L 1202.31 878.84 L 1204.56 877.26 L 1206.80 875.69 L 1209.03 874.12 L 1211.27 872.59 L 1213.47 871.01 L 1215.67 869.43 L 1217.87 867.87 L 1220.05 866.33 L 1222.23 864.79 L 1224.40 863.28 L 1226.56 861.77 L 1228.69 860.24 L 1230.85 858.77 L 1232.96 857.26" stroke="rgb(140,255,190)" stroke-opacity="0.737" stroke-width="1.19" />
  <path d="M 1141.44 941.58 L 1143.66 940.99 L 1145.86 940.40 L 1148.01 939.67 L 1150.15 938.93 L 1152.32 938.37 L 1154.48 937.83 L 1156.64 937.30 L 1158.78 936.77 L 1160.87 936.16 L 1162.94 935.54 L 1165.04 934.97 L 1167.14 934.39 L 1169.22 933.91 L 1171.29 933.46 L 1173.36 933.03 L 1175.41 932.61 L 1177.46 932.28 L 1179.50 931.95 L 1181.54 931.54 L 1183.58 931.13 L 1185.62 930.70 L 1187.63 930.37 L 1189.63 930.07 L 1191.65 929.76 L 1193.65 929.36 L 1195.64 928.93 L 1197.61 928.50 L 1199.59 928.08 L 1201.53 927.63 L 1203.46 927.16 L 1205.37 926.68 L 1207.28 926.22 L 1209.19 925.77 L 1210.97 925.28 L 1212.78 924.93 L 1214.56 924.50" stroke="rgb(140,255,190)" stroke-opacity="0.552" stroke-width="1.18" />
  <path d="M 1056.76 986.97 L 1059.61 986.04 L 1062.42 985.07 L 1065.22 984.11 L 1068.01 983.15 L 1070.82 982.22 L 1073.62 981.29 L 1076.42 980.41 L 1079.18 979.49 L 1081.92 978.57 L 1084.71 977.69 L 1087.45 976.81 L 1090.18 975.94 L 1092.90 975.06 L 1095.61 974.15 L 1098.35 973.24 L 1101.09 972.34 L 1103.78 971.38 L 1106.46 970.41 L 1109.12 969.45 L 1111.77 968.47 L 1114.41 967.49 L 1117.05 966.51 L 1119.68 965.54 L 1122.29 964.56 L 1124.88 963.63 L 1127.45 962.70 L 1130.01 961.77 L 1132.57 960.86 L 1135.13 959.99 L 1137.71 959.10 L 1140.27 958.23 L 1142.86 957.42 L 1145.43 956.61 L 1147.98 955.74 L 1150.53 954.87 L 1153.07 954.00 L 1155.59 953.14 L 1158.11 952.29 L 1160.62 951.44 L 1163.10 950.59 L 1165.57 949.69 L 1167.99 948.78 L 1170.41 947.85 L 1172.82 946.93 L 1175.22 946.03 L 1177.59 945.12 L 1179.95 944.18 L 1182.29 943.25 L 1184.63 942.32 L 1186.91 941.37 L 1189.23 940.44" stroke="rgb(140,255,190)" stroke-opacity="0.735" stroke-width="1.18" />
  <path d="M 998.87 999.25 L 1001.93 997.83 L 1004.98 996.41 L 1008.04 995.05 L 1011.09 993.68 L 1014.12 992.32 L 1017.15 991.00 L 1020.18 989.70 L 1023.18 988.37 L 1026.17 987.05 L 1029.17 985.77 L 1032.15 984.50 L 1035.13 983.25 L 1038.10 982.02 L 1041.05 980.78 L 1044.00 979.55 L 1046.93 978.33 L 1049.84 977.10 L 1052.75 975.86 L 1055.64 974.64 L 1058.51 973.42 L 1061.38 972.21 L 1064.25 971.05 L 1067.10 969.86 L 1069.94 968.68 L 1072.77 967.52 L 1075.60 966.37 L 1078.42 965.23 L 1081.24 964.12 L 1084.04 963.00 L 1086.84 961.91 L 1089.62 960.81 L 1092.41 959.73 L 1095.16 958.63 L 1097.91 957.51" stroke="rgb(140,255,190)" stroke-opacity="0.734" stroke-width="1.18" />
  <path d="M 999.20 1000.37 L 1000.32 1001.95 L 1001.46 1003.55 L 1002.56 1005.16 L 1003.63 1006.78 L 1004.72 1008.41 L 1005.83 1010.00 L 1006.97 1011.59 L 1008.08 1013.18 L 1009.10 1014.77 L 1010.09 1016.36 L 1011.07 1017.95 L 1012.06 1019.56 L 1013.09 1021.14 L 1014.08 1022.79 L 1015.05 1024.41 L 1016.00 1026.03 L 1016.96 1027.60 L 1017.97 1029.17 L 1018.97 1030.75 L 1019.95 1032.38 L 1020.85 1033.97 L 1021.73 1035.49 L 1022.54 1037.07 L 1023.38 1038.64 L 1024.22 1040.20 L 1025.00 1041.72 L 1025.77 1043.27 L 1026.54 1044.80 L 1027.25 1046.35 L 1027.99 1047.91 L 1028.73 1049.45 L 1029.46 1051.04 L 1030.15 1052.59 L 1030.86 1054.14 L 1031.58 1055.65 L 1032.30 1057.10 L 1033.03 1058.56 L 1033.76 1060.02 L 1034.48 1061.48 L 1035.19 1062.94 L 1035.92 1064.35 L 1036.63 1065.76 L 1037.34 1067.17 L 1038.03 1068.56 L 1038.77 1070.02 L 1039.57 1071.44 L 1040.36 1072.89 L 1041.13 1074.35 L 1041.90 1075.81 L 1042.62 1077.30 L 1043.33 1078.75 L 1043.99 1080.21 L 1044.67 1081.67 L 1045.31 1083.13 L 1045.94 1084.58 L 1046.57 1086.04 L 1047.21 1087.51 L 1047.96 1088.98 L 1048.71 1090.43 L 1049.38 1091.88 L 1050.15 1093.32 L 1050.93 1094.75 L 1051.64 1096.22 L 1052.35 1097.69 L 1053.09 1099.12 L 1053.82 1100.53 L 1054.55 1101.99" stroke="rgb(205,165,255)" stroke-opacity="0.487" stroke-width="1.18" />
  <path d="M 1000.57 997.73 L 1003.50 996.24 L 1006.45 994.85 L 1009.39 993.45 L 1012.30 992.02 L 1015.16 990.52 L 1017.96 988.96 L 1020.72 987.38 L 1023.47 985.80 L 1026.21 984.22 L 1028.97 982.72 L 1031.73 981.23 L 1034.48 979.76 L 1037.22 978.29 L 1039.99 976.90" stroke="rgb(140,255,190)" stroke-opacity="0.731" stroke-width="1.17" />
  <path d="M 1099.19 957.16 L 1101.64 955.56 L 1104.08 953.99 L 1106.50 952.39 L 1108.91 950.77 L 1111.30 949.03 L 1113.67 947.29 L 1116.10 945.67 L 1118.54 944.09 L 1120.93 942.47 L 1123.26 940.81 L 1125.57 939.14 L 1127.92 937.52 L 1130.29 935.97 L 1132.68 934.47 L 1135.06 932.99 L 1137.46 931.55 L 1139.90 930.16 L 1142.29 928.77 L 1144.72 927.42 L 1147.18 926.05 L 1149.64 924.71 L 1152.11 923.38 L 1154.65 922.12 L 1157.18 920.87 L 1159.71 919.64 L 1162.18 918.34 L 1164.67 917.01 L 1167.16 915.63 L 1169.63 914.25 L 1172.05 912.81 L 1174.47 911.39 L 1176.89 909.99 L 1179.31 908.60 L 1181.79 907.36 L 1184.24 906.05 L 1186.66 904.71 L 1189.01 903.29 L 1191.35 901.88 L 1193.71 900.54 L 1196.04 899.18 L 1198.35 897.78 L 1200.67 896.43 L 1202.98 895.06 L 1205.26 893.65 L 1207.52 892.20 L 1209.79 890.76 L 1212.03 889.29 L 1214.34 887.95" stroke="rgb(140,255,190)" stroke-opacity="0.729" stroke-width="1.17" />
  <path d="M 997.33 1001.40 L 1000.46 1000.08 L 1003.58 998.79 L 1006.69 997.51 L 1009.79 996.22 L 1012.89 994.97 L 1015.98 993.75 L 1019.05 992.50 L 1022.10 991.24 L 1025.14 990.00 L 1028.14 988.70 L 1031.13 987.41 L 1034.10 986.08 L 1037.05 984.77 L 1039.99 983.46 L 1042.91 982.13 L 1045.81 980.80 L 1048.71 979.49 L 1051.63 978.26 L 1054.54 977.02 L 1057.43 975.79 L 1060.30 974.54 L 1063.17 973.31 L 1066.03 972.09 L 1068.87 970.88 L 1071.71 969.67 L 1074.54 968.48 L 1077.36 967.31 L 1080.16 966.10 L 1082.94 964.90 L 1085.70 963.67" stroke="rgb(140,255,190)" stroke-opacity="0.728" stroke-width="1.17" />
  <path d="M 1000.87 998.38 L 1003.81 996.73 L 1006.75 995.08 L 1009.67 993.46 L 1012.60 991.84 L 1015.50 990.24 L 1018.39 988.62 L 1021.30 987.06 L 1024.18 985.49 L 1027.07 983.94 L 1029.94 982.42 L 1032.81 980.90 L 1035.69 979.43 L 1038.56 977.98 L 1041.41 976.50 L 1044.22 974.98 L 1047.03 973.50 L 1049.86 972.05 L 1052.67 970.62 L 1055.47 969.19 L 1058.24 967.75 L 1061.01 966.32 L 1063.78 964.90 L 1066.52 963.47 L 1069.26 962.07 L 1071.99 960.67 L 1074.69 959.25 L 1077.35 957.76 L 1079.98 956.26 L 1082.59 954.76 L 1085.21 953.30 L 1087.80 951.82 L 1090.39 950.35 L 1092.97 948.88 L 1095.56 947.46 L 1098.14 946.03 L 1100.70 944.61 L 1103.24 943.17 L 1105.77 941.74 L 1108.29 940.32 L 1110.80 938.89 L 1113.30 937.49 L 1115.80 936.10 L 1118.29 934.73 L 1120.77 933.35 L 1123.24 931.98 L 1125.70 930.62 L 1128.14 929.27 L 1130.57 927.92 L 1132.99 926.57 L 1135.37 925.18 L 1137.74 923.77 L 1140.11 922.39 L 1142.47 921.02 L 1144.84 919.68 L 1147.20 918.35 L 1149.57 917.05 L 1151.94 915.79 L 1154.32 914.56 L 1156.68 913.31 L 1159.03 912.08 L 1161.36 910.83 L 1163.68 909.59 L 1166.00 908.35 L 1168.30 907.11 L 1170.59 905.88 L 1172.87 904.66 L 1175.15 903.45 L 1177.42 902.24 L 1179.67 901.03 L 1181.90 899.80 L 1184.12 898.58 L 1186.34 897.37 L 1188.54 896.17" stroke="rgb(140,255,190)" stroke-opacity="0.728" stroke-width="1.16" />
  <path d="M 998.23 998.88 L 1001.23 997.66 L 1004.21 996.40 L 1007.17 995.15 L 1010.11 993.88 L 1013.05 992.63 L 1016.00 991.44 L 1018.94 990.28 L 1021.88 989.13 L 1024.79 987.94 L 1027.68 986.76 L 1030.56 985.56 L 1033.47 984.51 L 1036.36 983.40 L 1039.26 982.39" stroke="rgb(140,255,190)" stroke-opacity="0.727" stroke-width="1.16" />
  <path d="M 998.91 999.66 L 1002.14 998.76 L 1005.36 997.85 L 1008.56 996.95 L 1011.75 996.05 L 1014.92 995.12 L 1018.08 994.19 L 1021.23 993.29 L 1024.38 992.43 L 1027.50 991.53 L 1030.61 990.64 L 1033.72 989.79 L 1036.81 988.94 L 1039.87 988.03 L 1042.94 987.17 L 1045.99 986.32 L 1049.02 985.42 L 1052.02 984.49 L 1055.03 983.62 L 1058.04 982.79 L 1061.03 981.95 L 1064.01 981.10 L 1066.98 980.27 L 1069.94 979.47 L 1072.92 978.75 L 1075.88 978.04 L 1078.83 977.29 L 1081.74 976.48 L 1084.64 975.68 L 1087.52 974.86 L 1090.40 974.07 L 1093.28 973.30 L 1096.15 972.55 L 1099.00 971.80 L 1101.85 971.05 L 1104.69 970.34 L 1107.53 969.67 L 1110.35 969.00 L 1113.17 968.32 L 1115.96 967.63 L 1118.75 966.93 L 1121.52 966.24 L 1124.27 965.52 L 1127.02 964.82 L 1129.75 964.12 L 1132.48 963.44 L 1135.19 962.74 L 1137.89 962.04 L 1140.57 961.29 L 1143.24 960.57 L 1145.90 959.87 L 1148.56 959.16 L 1151.20 958.46 L 1153.83 957.76 L 1156.46 957.07 L 1159.07 956.37 L 1161.69 955.74 L 1164.29 955.11 L 1166.88 954.46 L 1169.46 953.81 L 1172.05 953.22 L 1174.62 952.65 L 1177.19 952.07 L 1179.73 951.45 L 1182.26 950.82 L 1184.77 950.18 L 1187.28 949.55 L 1189.77 948.91 L 1192.26 948.26 L 1194.73 947.64 L 1197.20 947.01 L 1199.66 946.41 L 1202.10 945.79 L 1204.54 945.17 L 1206.97 944.58 L 1209.39 943.99 L 1211.81 943.41 L 1214.21 942.82 L 1216.61 942.26 L 1219.00 941.71 L 1221.39 941.20 L 1223.78 940.70 L 1226.15 940.19 L 1228.50 939.63 L 1230.84 939.08 L 1233.17 938.52 L 1235.49 937.94 L 1237.80 937.36 L 1240.10 936.79 L 1242.38 936.22 L 1244.66 935.62 L 1246.92 935.04" stroke="rgb(140,255,190)" stroke-opacity="0.726" stroke-width="1.16" />
  <path d="M 1001.79 997.55 L 1004.87 996.23 L 1007.94 994.90 L 1010.98 993.55 L 1014.00 992.20 L 1017.02 990.86 L 1020.00 989.48 L 1022.98 988.12 L 1025.94 986.75 L 1028.92 985.47 L 1031.89 984.21 L 1034.85 982.95 L 1037.79 981.67 L 1040.71 980.39 L 1043.60 979.08 L 1046.47 977.74 L 1049.31 976.39 L 1052.13 975.00 L 1054.91 973.58 L 1057.67 972.15 L 1060.43 970.73 L 1063.18 969.32 L 1065.93 967.92 L 1068.66 966.53 L 1071.38 965.14 L 1074.06 963.71 L 1076.74 962.30 L 1079.40 960.86 L 1082.04 959.43 L 1084.64 957.95 L 1087.22 956.45 L 1089.80 954.97 L 1092.36 953.49 L 1094.91 952.00 L 1097.46 950.54 L 1100.02 949.13 L 1102.57 947.72 L 1105.13 946.34 L 1107.65 944.93 L 1110.16 943.52 L 1112.66 942.11 L 1115.19 940.78 L 1117.74 939.51 L 1120.28 938.26 L 1122.82 937.02 L 1125.34 935.79 L 1127.86 934.56 L 1130.37 933.35 L 1132.86 932.11 L 1135.35 930.90 L 1137.81 929.66 L 1140.26 928.42 L 1142.72 927.22 L 1145.18 926.07 L 1147.64 924.92 L 1150.08 923.77 L 1152.52 922.63 L 1154.94 921.50 L 1157.34 920.33 L 1159.73 919.17 L 1162.10 918.00 L 1164.45 916.80 L 1166.79 915.60 L 1169.13 914.43 L 1171.45 913.26 L 1173.76 912.08 L 1176.08 910.96 L 1178.40 909.84 L 1180.71 908.73 L 1183.01 907.64 L 1185.31 906.55 L 1187.61 905.49 L 1189.89 904.43 L 1192.16 903.37 L 1194.43 902.33 L 1196.68 901.27 L 1198.92 900.21 L 1201.13 899.12 L 1203.34 898.04 L 1205.56 897.00 L 1207.76 895.96 L 1209.96 894.93 L 1212.16 893.91 L 1214.34 892.90 L 1216.51 891.89 L 1218.68 890.88 L 1220.83 889.88 L 1222.98 888.89 L 1225.13 887.93 L 1227.26 886.97 L 1229.37 885.98 L 1231.47 884.98 L 1233.57 884.00 L 1235.66 883.02 L 1237.74 882.05 L 1239.81 881.08 L 1241.87 880.12 L 1243.92 879.18 L 1245.97 878.23 L 1248.02 877.31 L 1250.07 876.40 L 1252.11 875.51 L 1254.14 874.63 L 1256.17 873.75 L 1258.19 872.89" stroke="rgb(140,255,190)" stroke-opacity="0.725" stroke-width="1.16" />
  <path d="M 998.98 996.62 L 1001.91 995.20 L 1004.83 993.80 L 1007.75 992.40 L 1010.66 991.03 L 1013.56 989.68 L 1016.49 988.41 L 1019.39 987.12 L 1022.29 985.87 L 1025.20 984.65 L 1028.08 983.38 L 1030.94 982.13 L 1033.79 980.89 L 1036.64 979.69 L 1039.46 978.43 L 1042.27 977.17 L 1045.03 975.86" stroke="rgb(140,255,190)" stroke-opacity="0.723" stroke-width="1.15" />
  <path d="M 1061.08 972.11 L 1063.16 971.25 L 1065.25 970.42 L 1067.34 969.63 L 1069.45 968.92 L 1071.51 968.13 L 1073.58 967.34 L 1075.68 966.61 L 1077.77 965.88 L 1079.86 965.14 L 1081.90 964.39 L 1083.85 963.54 L 1085.76 962.60 L 1087.66 961.66 L 1089.55 960.69 L 1091.43 959.74" stroke="rgb(140,255,190)" stroke-opacity="0.541" stroke-width="1.15" />
  <path d="M 1000.67 1002.43 L 1002.78 1001.31 L 1004.81 1000.07 L 1006.80 998.78 L 1008.78 997.48 L 1010.74 996.18 L 1012.75 994.98 L 1014.77 993.80 L 1016.78 992.63 L 1018.76 991.42 L 1020.72 990.21 L 1022.68 989.01 L 1024.68 987.90 L 1026.67 986.79 L 1028.67 985.72 L 1030.69 984.69 L 1032.67 983.64 L 1034.60 982.55 L 1036.49 981.40 L 1038.38 980.25 L 1040.27 979.12 L 1042.20 978.10 L 1044.15 977.10 L 1046.10 976.09 L 1048.02 975.08 L 1049.92 974.04 L 1051.86 973.10 L 1053.79 972.15 L 1055.72 971.21 L 1057.65 970.31 L 1059.57 969.40 L 1061.46 968.45 L 1063.32 967.48 L 1065.16 966.47 L 1067.01 965.48 L 1068.86 964.52 L 1070.71 963.57 L 1072.56 962.66 L 1074.40 961.73 L 1076.23 960.81 L 1078.08 959.95 L 1079.96 959.19 L 1081.82 958.40 L 1083.66 957.59 L 1085.48 956.75 L 1087.30 955.92 L 1089.13 955.14 L 1090.97 954.40 L 1092.81 953.67 L 1094.65 952.96 L 1096.50 952.29 L 1098.33 951.59 L 1100.13 950.85 L 1101.95 950.16 L 1103.76 949.47 L 1105.56 948.81 L 1107.36 948.13 L 1109.14 947.44 L 1110.95 946.83 L 1112.73 946.20 L 1114.53 945.61 L 1116.32 945.03 L 1118.12 944.54 L 1119.92 944.03 L 1121.72 943.56 L 1123.51 943.11 L 1125.28 942.64 L 1127.05 942.17 L 1128.83 941.76 L 1130.59 941.29 L 1132.34 940.82" stroke="rgb(140,255,190)" stroke-opacity="0.540" stroke-width="1.14" />
  <path d="M 1043.00 981.99 L 1044.64 980.25 L 1046.24 978.50 L 1047.83 976.76 L 1049.41 975.02 L 1050.99 973.29 L 1052.56 971.57 L 1054.10 969.84 L 1055.61 968.09 L 1057.10 966.35 L 1058.58 964.62 L 1060.05 962.88 L 1061.55 961.14 L 1063.15 959.52 L 1064.72 957.89 L 1066.33 956.31 L 1067.93 954.74 L 1069.54 953.17 L 1071.16 951.64 L 1072.80 950.11 L 1074.43 948.59 L 1076.02 947.04 L 1077.60 945.49 L 1079.14 943.92 L 1080.67 942.35 L 1082.19 940.79 L 1083.70 939.22 L 1085.28 937.74 L 1086.85 936.25 L 1088.41 934.77 L 1089.95 933.27 L 1091.47 931.78 L 1092.96 930.29 L 1094.36 928.71 L 1095.62 927.04 L 1096.94 925.41 L 1098.34 923.87 L 1099.73 922.33 L 1101.10 920.79 L 1102.47 919.26 L 1103.85 917.74 L 1105.25 916.24 L 1106.64 914.76" stroke="rgb(140,255,190)" stroke-opacity="0.539" stroke-width="1.14" />
  <path d="M 1233.17 938.52 L 1235.74 936.58 L 1238.22 934.56 L 1240.67 932.54 L 1243.11 930.52 L 1245.55 928.53 L 1247.98 926.54 L 1250.40 924.56 L 1252.80 922.58 L 1255.23 920.65 L 1257.62 918.69 L 1260.00 916.74 L 1262.38 914.81 L 1264.75 912.90 L 1267.07 910.94 L 1269.43 909.03 L 1271.69 907.03 L 1273.96 905.05 L 1276.29 903.15 L 1278.63 901.28 L 1281.01 899.48 L 1283.38 897.69 L 1285.72 895.92 L 1288.08 894.17 L 1290.46 892.49 L 1292.86 890.86 L 1295.22 889.20 L 1297.60 887.55 L 1299.97 885.93 L 1302.34 884.33 L 1304.69 882.73 L 1307.04 881.13 L 1309.42 879.61 L 1311.80 878.10 L 1314.20 876.63 L 1316.58 875.14 L 1318.95 873.67 L 1321.24 872.10 L 1323.52 870.54 L 1325.79 868.98 L 1328.02 867.39 L 1330.25 865.79 L 1332.42 864.14 L 1334.65 862.57 L 1336.85 860.99 L 1338.98 859.35 L 1341.10 857.71 L 1343.24 856.13 L 1345.34 854.51 L 1347.43 852.90 L 1349.49 851.29 L 1351.54 849.67 L 1353.56 848.03 L 1355.59 846.41 L 1357.67 844.87 L 1359.71 843.30 L 1361.76 841.74" stroke="rgb(140,255,190)" stroke-opacity="0.718" stroke-width="1.14" />
  <path d="M 1045.19 981.06 L 1047.53 980.75 L 1049.87 980.43 L 1052.23 980.17 L 1054.60 979.88 L 1056.96 979.56 L 1059.31 979.25 L 1061.64 978.97 L 1063.95 978.61 L 1066.23 978.18 L 1068.49 977.74 L 1070.71 977.22 L 1072.91 976.65 L 1075.10 976.08 L 1077.29 975.51 L 1079.43 974.96 L 1081.55 974.46 L 1083.67 973.93 L 1085.78 973.40 L 1087.85 972.81 L 1089.92 972.14 L 1092.02 971.51 L 1094.12 970.89 L 1096.20 970.22 L 1098.28 969.59 L 1100.36 968.90 L 1102.43 968.19 L 1104.51 967.51 L 1106.55 966.78 L 1108.58 966.05 L 1110.60 965.34 L 1112.60 964.64 L 1114.60 963.95 L 1116.58 963.24 L 1118.61 962.68 L 1120.59 962.06 L 1122.56 961.40 L 1124.52 960.73 L 1126.47 960.08 L 1128.44 959.43 L 1130.42 958.84 L 1132.45 958.41 L 1134.48 957.96 L 1136.48 957.54 L 1138.47 957.08 L 1140.46 956.67 L 1142.43 956.23 L 1144.41 955.83 L 1146.35 955.38 L 1148.30 954.98 L 1150.23 954.54 L 1152.15 954.18 L 1154.06 953.83 L 1155.96 953.50 L 1157.86 953.17 L 1159.75 952.83 L 1161.63 952.49 L 1163.50 952.17 L 1165.40 951.95 L 1167.27 951.71 L 1169.12 951.49 L 1170.93 951.36 L 1172.77 951.20 L 1174.57 951.04 L 1176.33 950.80 L 1178.00 950.48 L 1179.71 950.19 L 1181.38 949.76 L 1183.00 949.21 L 1184.59 948.71 L 1186.20 948.19 L 1187.83 947.68 L 1189.43 947.12 L 1191.00 946.50 L 1192.55 945.89 L 1194.09 945.26 L 1195.62 944.71 L 1197.16 944.27 L 1198.71 943.78 L 1200.27 943.31 L 1201.81 942.83 L 1203.34 942.39 L 1204.86 941.92 L 1206.37 941.48 L 1207.86 941.05 L 1209.36 940.62 L 1210.84 940.17" stroke="rgb(140,255,190)" stroke-opacity="0.537" stroke-width="1.13" />
  <path d="M 1001.87 1001.66 L 1004.34 1001.00 L 1006.80 1000.36 L 1009.24 999.68 L 1011.67 999.00 L 1014.11 998.39 L 1016.53 997.79 L 1018.96 997.24 L 1021.40 996.71 L 1023.81 996.12 L 1026.21 995.51 L 1028.61 994.88 L 1030.98 994.32 L 1033.35 993.76 L 1035.71 993.25 L 1038.05 992.70 L 1040.44 992.24 L 1042.79 991.83 L 1045.16 991.46 L 1047.52 991.08 L 1049.86 990.71 L 1052.21 990.33 L 1054.56 989.99 L 1056.92 989.74 L 1059.31 989.61 L 1061.67 989.49 L 1064.04 989.33 L 1066.38 989.24 L 1068.71 989.16 L 1071.04 989.08 L 1073.35 988.88 L 1075.66 988.62 L 1078.01 988.32 L 1080.34 988.04 L 1082.66 987.82 L 1084.95 987.59 L 1087.22 987.36 L 1089.49 987.12 L 1091.73 986.86 L 1093.99 986.58 L 1096.21 986.20 L 1098.42 985.86 L 1100.63 985.56 L 1102.83 985.28 L 1105.01 985.00 L 1107.18 984.74" stroke="rgb(205,165,255)" stroke-opacity="0.476" stroke-width="1.13" />
  <path d="M 1045.83 980.63 L 1048.31 980.39 L 1050.76 980.19 L 1053.20 980.01 L 1055.59 979.88 L 1057.97 979.74 L 1060.35 979.61 L 1062.76 979.48 L 1065.16 979.34 L 1067.56 979.20 L 1069.93 979.03 L 1072.31 978.90 L 1074.69 978.72 L 1077.06 978.55 L 1079.42 978.31 L 1081.77 978.21 L 1084.12 978.11" stroke="rgb(140,255,190)" stroke-opacity="0.536" stroke-width="1.13" />
  <path d="M 1105.79 959.43 L 1108.05 958.01 L 1110.30 956.58 L 1112.43 955.06 L 1114.43 953.42 L 1116.45 951.85 L 1118.43 950.26 L 1120.47 948.74 L 1122.49 947.25 L 1124.56 945.79 L 1126.63 944.38 L 1128.69 942.99 L 1130.71 941.66 L 1132.72 940.37 L 1134.70 939.13 L 1136.72 937.89 L 1138.71 936.70 L 1140.71 935.48 L 1142.56 934.21 L 1144.38 932.91 L 1146.18 931.67 L 1148.01 930.49 L 1149.83 929.32 L 1151.67 928.16 L 1153.53 926.98 L 1155.39 925.80 L 1157.28 924.66 L 1159.27 923.54 L 1161.22 922.41 L 1163.12 921.24 L 1165.08 920.05 L 1167.01 918.92 L 1168.84 917.60 L 1170.70 916.32 L 1172.46 915.03 L 1174.21 913.76 L 1175.95 912.50 L 1177.64 911.19 L 1179.34 909.84 L 1180.96 908.45 L 1182.57 907.06 L 1184.24 905.84 L 1185.90 904.57 L 1187.56 903.30 L 1189.20 901.96 L 1190.83 900.63 L 1192.40 899.25 L 1193.98 897.91 L 1195.56 896.58 L 1197.17 895.28 L 1198.75 894.00 L 1200.32 892.73 L 1201.89 891.42 L 1203.44 890.14 L 1204.95 888.76 L 1206.45 887.42 L 1207.88 886.03 L 1209.32 884.64 L 1210.69 883.19 L 1212.07 881.73 L 1213.46 880.21 L 1214.85 878.70" stroke="rgb(140,255,190)" stroke-opacity="0.715" stroke-width="1.13" />
  <path d="M 994.92 1051.55 L 994.95 1053.57 L 995.11 1055.62 L 995.29 1057.65 L 995.45 1059.64 L 995.63 1061.65 L 995.84 1063.64 L 996.04 1065.62 L 996.26 1067.58 L 996.48 1069.61 L 996.71 1071.64 L 996.94 1073.70 L 997.14 1075.75 L 997.37 1077.77 L 997.67 1079.81 L 997.99 1081.85 L 998.30 1083.89 L 998.68 1085.87 L 999.03 1087.81 L 999.40 1089.75 L 999.75 1091.70 L 1000.09 1093.65 L 1000.42 1095.62 L 1000.79 1097.56 L 1001.20 1099.51 L 1001.61 1101.48 L 1001.99 1103.52 L 1002.41 1105.62 L 1002.69 1107.77 L 1003.00 1109.93 L 1003.32 1112.15 L 1003.52 1114.35 L 1003.69 1116.50 L 1003.87 1118.66 L 1004.02 1120.74 L 1004.18 1122.83 L 1004.34 1124.92 L 1004.52 1126.99 L 1004.69 1129.05 L 1004.80 1131.13 L 1004.92 1133.18 L 1005.04 1135.22 L 1005.14 1137.26 L 1005.18 1139.27 L 1005.28 1141.27 L 1005.36 1143.27 L 1005.46 1145.25 L 1005.55 1147.17 L 1005.55 1149.12 L 1005.57 1151.07 L 1005.56 1152.99 L 1005.56 1154.90 L 1005.54 1156.81 L 1005.54 1158.70 L 1005.52 1160.59 L 1005.50 1162.47 L 1005.54 1164.35 L 1005.43 1166.18 L 1005.28 1168.05 L 1005.10 1169.87 L 1004.93 1171.70 L 1004.76 1173.52 L 1004.60 1175.31 L 1004.38 1177.07 L 1004.16 1178.81 L 1003.92 1180.55 L 1003.77 1182.30 L 1003.68 1184.01 L 1003.60 1185.75 L 1003.49 1187.48 L 1003.37 1189.20 L 1003.25 1190.94 L 1003.12 1192.67 L 1002.99 1194.40 L 1002.83 1196.11 L 1002.77 1197.78 L 1002.69 1199.45 L 1002.59 1201.12 L 1002.53 1202.72 L 1002.47 1204.29 L 1002.41 1205.84 L 1002.33 1207.36 L 1002.21 1208.89 L 1002.19 1210.44 L 1002.21 1212.01 L 1002.30 1213.55" stroke="rgb(205,165,255)" stroke-opacity="0.474" stroke-width="1.13" />
  <path d="M 1003.71 998.43 L 1006.55 997.19 L 1009.36 995.94 L 1012.19 994.74 L 1014.99 993.51 L 1017.80 992.32 L 1020.56 991.09 L 1023.30 989.83 L 1026.04 988.59 L 1028.74 987.30 L 1031.44 986.03 L 1034.12 984.76 L 1036.80 983.52 L 1039.47 982.28 L 1042.14 981.05 L 1044.77 979.79 L 1047.41 978.57 L 1050.04 977.35 L 1052.66 976.14 L 1055.26 974.91 L 1057.85 973.70 L 1060.44 972.52 L 1063.03 971.36 L 1065.57 970.13 L 1068.10 968.91 L 1070.61 967.69 L 1073.12 966.47 L 1075.63 965.29 L 1078.12 964.09 L 1080.61 962.90 L 1083.09 961.70 L 1085.56 960.49 L 1088.02 959.31 L 1090.49 958.15" stroke="rgb(140,255,190)" stroke-opacity="0.534" stroke-width="1.12" />
  <path d="M 1043.00 981.99 L 1045.40 982.16 L 1047.79 982.37 L 1050.18 982.53 L 1052.56 982.71 L 1054.93 982.84 L 1057.32 982.79 L 1059.69 982.72 L 1062.04 982.69 L 1064.38 982.62 L 1066.71 982.55 L 1069.02 982.40 L 1071.32 982.29 L 1073.61 982.23 L 1075.87 982.11 L 1078.15 981.94 L 1080.42 981.78 L 1082.69 981.59 L 1084.93 981.50 L 1087.16 981.41 L 1089.38 981.31 L 1091.60 981.15 L 1093.81 980.94 L 1096.00 980.73 L 1098.19 980.53 L 1100.37 980.33 L 1102.55 980.10 L 1104.73 979.92 L 1106.90 979.72 L 1109.07 979.54 L 1111.22 979.39 L 1113.36 979.20 L 1115.48 978.83 L 1117.59 978.55 L 1119.72 978.30 L 1121.85 978.18 L 1123.98 978.23 L 1126.10 978.27 L 1128.21 978.27 L 1130.31 978.29 L 1132.39 978.40 L 1134.47 978.55" stroke="rgb(140,255,190)" stroke-opacity="0.533" stroke-width="1.12" />
  <path d="M 1004.14 998.04 L 1006.53 997.12 L 1008.89 996.17 L 1011.26 995.26 L 1013.60 994.32 L 1015.95 993.40 L 1018.27 992.46 L 1020.57 991.50 L 1022.86 990.53 L 1025.14 989.56 L 1027.40 988.59 L 1029.65 987.61 L 1031.88 986.63 L 1034.14 985.72 L 1036.37 984.79 L 1038.59 983.86 L 1040.80 982.92 L 1043.00 981.99 L 1045.19 981.06 L 1047.36 980.10 L 1049.52 979.14 L 1051.71 978.27 L 1053.88 977.37 L 1056.05 976.51 L 1058.22 975.66 L 1060.38 974.79 L 1062.53 973.96 L 1064.67 973.11 L 1066.78 972.23 L 1068.88 971.33 L 1070.99 970.48 L 1073.08 969.62 L 1075.16 968.77 L 1077.28 968.01 L 1079.37 967.21 L 1081.47 966.47 L 1083.55 965.73 L 1085.60 964.91 L 1087.63 964.06 L 1089.63 963.18 L 1091.61 962.29 L 1093.58 961.36 L 1095.54 960.45" stroke="rgb(140,255,190)" stroke-opacity="0.533" stroke-width="1.12" />
  <path d="M 1066.98 980.27 L 1069.36 978.29 L 1071.73 976.31 L 1074.08 974.35 L 1076.48 972.44" stroke="rgb(140,255,190)" stroke-opacity="0.711" stroke-width="1.12" />
  <path d="M 1184.12 898.58 L 1185.87 896.17 L 1187.71 893.83 L 1189.58 891.53 L 1191.41 889.21 L 1193.23 886.89 L 1194.97 884.54 L 1196.70 882.19 L 1198.48 879.90 L 1200.28 877.63 L 1202.08 875.38 L 1203.87 873.14 L 1205.62 870.89 L 1207.39 868.65 L 1209.12 866.41 L 1210.82 864.15 L 1212.58 861.95 L 1214.35 859.78 L 1216.12 857.62 L 1217.87 855.45 L 1219.59 853.28 L 1221.31 851.12 L 1222.97 848.93 L 1224.62 846.75 L 1226.31 844.60 L 1228.00 842.48 L 1229.64 840.33 L 1231.32 838.23 L 1232.98 836.13 L 1234.60 834.03 L 1236.23 831.95 L 1237.85 829.87 L 1239.44 827.78 L 1241.06 825.73 L 1242.67 823.69 L 1244.35 821.70 L 1246.05 819.75 L 1247.85 817.90 L 1249.72 816.16 L 1251.62 814.46 L 1253.48 812.73 L 1255.33 811.01 L 1257.20 809.32 L 1259.09 807.66 L 1260.94 805.97 L 1262.77 804.26 L 1264.62 802.59 L 1266.41 800.88 L 1268.19 799.17 L 1269.93 797.42 L 1271.69 795.71 L 1273.49 794.06 L 1275.22 792.34 L 1276.98 790.67 L 1278.71 788.98 L 1280.43 787.30 L 1282.17 785.64 L 1283.91 784.00" stroke="rgb(140,255,190)" stroke-opacity="0.533" stroke-width="1.12" />
  <path d="M 1065.98 970.37 L 1068.20 969.33 L 1070.38 968.29 L 1072.59 967.26 L 1074.77 966.21 L 1076.98 965.27 L 1079.20 964.39 L 1081.42 963.57 L 1083.65 962.70 L 1085.87 961.83 L 1088.07 960.94 L 1090.30 960.14 L 1092.53 959.34 L 1094.75 958.57 L 1096.96 957.81 L 1099.19 957.16 L 1101.35 956.52 L 1103.45 955.76 L 1105.53 955.02 L 1107.58 954.23 L 1109.66 953.52 L 1111.70 952.72 L 1113.71 951.87 L 1115.69 950.93 L 1117.65 949.96 L 1119.59 948.97 L 1121.53 947.99 L 1123.48 947.02 L 1125.41 946.01 L 1127.36 945.02 L 1129.30 944.03 L 1131.23 943.05 L 1133.17 942.12 L 1135.04 941.05 L 1136.91 939.98 L 1138.81 939.01 L 1140.74 938.10 L 1142.63 937.19" stroke="rgb(140,255,190)" stroke-opacity="0.533" stroke-width="1.12" />
  <path d="M 998.23 999.68 L 1000.51 998.68 L 1002.75 997.64 L 1004.99 996.60 L 1007.20 995.55 L 1009.38 994.44 L 1011.55 993.33 L 1013.65 992.13 L 1015.75 990.95 L 1017.78 989.68 L 1019.79 988.40 L 1021.77 987.11 L 1023.75 985.84 L 1025.73 984.58 L 1027.71 983.35 L 1029.67 982.12 L 1031.64 980.94 L 1033.57 979.73 L 1035.51 978.53 L 1037.41 977.32 L 1039.27 976.09 L 1041.15 974.87 L 1043.04 973.68 L 1044.93 972.49 L 1046.80 971.31 L 1048.68 970.16 L 1050.56 969.01 L 1052.44 967.85 L 1054.30 966.67 L 1056.15 965.50 L 1058.00 964.35 L 1059.81 963.18 L 1061.60 962.00 L 1063.38 960.82 L 1065.21 959.72 L 1067.02 958.59 L 1068.84 957.50 L 1070.70 956.48 L 1072.54 955.42 L 1074.37 954.37 L 1076.18 953.27 L 1077.97 952.17 L 1079.76 951.08 L 1081.52 949.98 L 1083.32 948.95 L 1085.08 947.86 L 1086.84 946.80 L 1088.58 945.72 L 1090.29 944.60 L 1092.02 943.51 L 1093.79 942.50 L 1095.56 941.51 L 1097.32 940.54 L 1099.08 939.56 L 1100.81 938.53 L 1102.52 937.51 L 1104.26 936.54 L 1105.96 935.52 L 1107.63 934.47 L 1109.30 933.44 L 1110.95 932.40 L 1112.57 931.33 L 1114.19 930.27 L 1115.80 929.19 L 1117.42 928.14 L 1119.03 927.09 L 1120.62 926.04 L 1122.22 924.99 L 1123.84 924.01 L 1125.44 922.99 L 1127.02 921.97 L 1128.60 920.96 L 1130.19 919.99 L 1131.78 919.02 L 1133.32 917.98 L 1134.82 916.91" stroke="rgb(140,255,190)" stroke-opacity="0.533" stroke-width="1.12" />
  <path d="M 1002.84 1000.83 L 1005.59 999.87 L 1008.37 999.04 L 1011.12 998.14 L 1013.83 997.18 L 1016.55 996.27 L 1019.26 995.36 L 1021.96 994.49 L 1024.67 993.64 L 1027.36 992.80 L 1030.03 991.91 L 1032.66 990.96 L 1035.27 989.97 L 1037.87 989.00 L 1040.45 988.01 L 1043.03 987.04 L 1045.59 986.08 L 1048.16 985.14 L 1050.74 984.29 L 1053.35 983.55 L 1055.94 982.80 L 1058.53 982.11 L 1061.11 981.41 L 1063.68 980.72 L 1066.24 980.02 L 1068.78 979.31 L 1071.34 978.69 L 1073.88 978.04 L 1076.40 977.42 L 1078.90 976.72 L 1081.38 976.02 L 1083.85 975.32 L 1086.31 974.60 L 1088.74 973.85 L 1091.15 973.10 L 1093.56 972.35 L 1095.96 971.60 L 1098.34 970.85 L 1100.71 970.07 L 1103.07 969.27 L 1105.43 968.51 L 1107.77 967.73 L 1110.11 966.98 L 1112.44 966.21 L 1114.77 965.49 L 1117.10 964.79 L 1119.42 964.10 L 1121.72 963.41 L 1123.99 962.64 L 1126.26 961.89 L 1128.49 961.09 L 1130.69 960.21 L 1132.89 959.35 L 1135.06 958.48 L 1137.23 957.58 L 1139.37 956.67" stroke="rgb(140,255,190)" stroke-opacity="0.532" stroke-width="1.12" />
  <path d="M 1055.47 969.19 L 1058.45 968.88 L 1061.40 968.48 L 1064.33 968.05 L 1067.23 967.66 L 1070.10 967.26 L 1072.95 966.82 L 1075.79 966.44 L 1078.61 966.07 L 1081.43 965.68 L 1084.23 965.26 L 1087.02 964.86 L 1089.81 964.45 L 1092.61 964.03 L 1095.37 963.60 L 1098.14 963.21 L 1100.89 962.81 L 1103.62 962.41 L 1106.30 961.99 L 1108.99 961.47 L 1111.67 960.97 L 1114.33 960.47 L 1117.00 960.05 L 1119.67 959.65 L 1122.32 959.27 L 1124.96 958.87 L 1127.59 958.45 L 1130.20 958.03 L 1132.80 957.58" stroke="rgb(140,255,190)" stroke-opacity="0.532" stroke-width="1.12" />
  <path d="M 999.29 998.83 L 1002.08 997.54 L 1004.91 996.38 L 1007.74 995.22 L 1010.55 994.07 L 1013.38 992.94 L 1016.19 991.83 L 1019.00 990.75 L 1021.80 989.69 L 1024.58 988.62 L 1027.35 987.57 L 1030.12 986.52 L 1032.87 985.48 L 1035.64 984.50 L 1038.39 983.53 L 1041.14 982.57 L 1043.89 981.67 L 1046.64 980.77 L 1049.38 979.88 L 1052.10 979.01 L 1054.82 978.14 L 1057.52 977.28 L 1060.23 976.46 L 1062.95 975.70 L 1065.65 974.94 L 1068.35 974.18 L 1071.03 973.43 L 1073.69 972.66 L 1076.34 971.86 L 1078.98 971.08 L 1081.62 970.31 L 1084.23 969.50 L 1086.85 968.70 L 1089.45 967.91 L 1092.05 967.14 L 1094.66 966.42 L 1097.27 965.73 L 1099.87 965.06 L 1102.46 964.39 L 1105.05 963.76 L 1107.64 963.15 L 1110.21 962.55 L 1112.78 961.94 L 1115.34 961.35" stroke="rgb(140,255,190)" stroke-opacity="0.531" stroke-width="1.11" />
  <path d="M 1004.46 1001.68 L 1007.04 1000.08 L 1009.58 998.45 L 1012.11 996.82 L 1014.69 995.31 L 1017.28 993.82 L 1019.86 992.34 L 1022.41 990.85 L 1024.94 989.35 L 1027.49 987.88 L 1030.07 986.51 L 1032.64 985.14 L 1035.20 983.77 L 1037.80 982.51 L 1040.43 981.33 L 1043.05 980.18 L 1045.66 979.02 L 1048.25 977.85 L 1050.83 976.67 L 1053.39 975.50 L 1055.93 974.30 L 1058.46 973.10 L 1060.97 971.90 L 1063.49 970.74 L 1066.00 969.60 L 1068.51 968.47 L 1071.01 967.36 L 1073.50 966.25 L 1075.99 965.15 L 1078.46 964.06 L 1080.92 962.96 L 1083.38 961.87 L 1085.82 960.77 L 1088.24 959.66 L 1090.66 958.56 L 1093.10 957.53 L 1095.52 956.50 L 1097.94 955.49 L 1100.37 954.51 L 1102.78 953.54" stroke="rgb(140,255,190)" stroke-opacity="0.531" stroke-width="1.11" />
  <path d="M 1055.26 974.91 L 1057.41 972.86 L 1059.56 970.82 L 1061.70 968.79 L 1063.95 966.92 L 1066.18 965.03 L 1068.41 963.16" stroke="rgb(140,255,190)" stroke-opacity="0.531" stroke-width="1.11" />
  <path d="M 1111.67 960.97 L 1114.04 960.62 L 1116.41 960.33 L 1118.77 960.12 L 1121.14 959.89 L 1123.51 959.59 L 1125.89 959.32 L 1128.26 959.06 L 1130.59 958.88 L 1132.88 958.69" stroke="rgb(140,255,190)" stroke-opacity="0.531" stroke-width="1.11" />
  <path d="M 1121.05 927.56 L 1123.09 925.80 L 1125.14 924.04 L 1127.32 922.35 L 1129.45 920.59 L 1131.67 918.99 L 1133.87 917.38 L 1136.11 915.86 L 1138.35 914.33 L 1140.63 912.87 L 1142.90 911.41 L 1145.20 910.01 L 1147.52 908.65 L 1149.87 907.32 L 1152.20 906.00 L 1154.52 904.68 L 1156.83 903.35 L 1159.14 902.03 L 1161.45 900.75 L 1163.77 899.49 L 1166.10 898.28 L 1168.42 897.07 L 1170.69 895.79 L 1172.95 894.52 L 1175.20 893.26 L 1177.48 892.06 L 1179.77 890.90 L 1182.05 889.74 L 1184.29 888.55 L 1186.49 887.29 L 1188.67 886.03 L 1190.85 884.79 L 1193.03 883.56" stroke="rgb(140,255,190)" stroke-opacity="0.530" stroke-width="1.11" />
  <path d="M 998.82 1001.43 L 1001.63 1000.25 L 1004.42 999.09 L 1007.23 997.99 L 1010.05 996.97 L 1012.85 995.93 L 1015.64 994.88 L 1018.43 993.87 L 1021.20 992.85 L 1024.01 991.97 L 1026.81 991.11 L 1029.61 990.29 L 1032.39 989.44 L 1035.17 988.62 L 1037.94 987.84 L 1040.68 986.96 L 1043.39 986.06 L 1046.10 985.17 L 1048.81 984.34 L 1051.51 983.51 L 1054.19 982.67" stroke="rgb(140,255,190)" stroke-opacity="0.529" stroke-width="1.11" />
  <path d="M 1110.35 969.00 L 1112.50 967.33 L 1114.57 965.56 L 1116.61 963.76 L 1118.72 962.08 L 1120.81 960.39 L 1122.85 958.64 L 1124.85 956.87 L 1126.86 955.10 L 1128.84 953.34 L 1130.85 951.55 L 1132.78 949.73 L 1134.69 947.88" stroke="rgb(140,255,190)" stroke-opacity="0.529" stroke-width="1.11" />
  <path d="M 1066.90 984.94 L 1069.06 983.64 L 1071.21 982.34 L 1073.34 981.05 L 1075.53 979.83 L 1077.70 978.62 L 1079.89 977.41 L 1081.96 976.05 L 1084.04 974.70 L 1086.12 973.37 L 1088.17 972.01 L 1090.22 970.68 L 1092.27 969.35 L 1094.31 968.03 L 1096.29 966.64 L 1098.26 965.24 L 1100.22 963.87 L 1102.12 962.42 L 1103.96 960.92 L 1105.79 959.43 L 1107.64 957.98 L 1109.48 956.53 L 1111.26 955.02 L 1113.03 953.51 L 1114.74 951.94 L 1116.43 950.37 L 1118.11 948.79 L 1119.77 947.20 L 1121.40 945.59 L 1122.89 943.87" stroke="rgb(140,255,190)" stroke-opacity="0.528" stroke-width="1.10" />
  <path d="M 1100.81 938.53 L 1103.44 938.36 L 1106.06 938.16 L 1108.66 937.91 L 1111.25 937.63 L 1113.81 937.24 L 1116.35 936.82 L 1118.89 936.43 L 1121.41 936.04 L 1123.91 935.59 L 1126.36 935.02 L 1128.81 934.46 L 1131.23 933.84 L 1133.66 933.30 L 1136.08 932.78 L 1138.49 932.28 L 1140.89 931.76 L 1143.27 931.40 L 1145.65 931.06 L 1148.01 930.79 L 1150.38 930.65 L 1152.76 930.48 L 1155.14 930.28 L 1157.51 930.08 L 1159.87 929.77 L 1162.23 929.47 L 1164.57 929.17 L 1166.92 928.89 L 1169.25 928.63 L 1171.60 928.45 L 1173.94 928.20 L 1176.27 927.95 L 1178.58 927.66 L 1180.88 927.35 L 1183.17 927.02 L 1185.45 926.71 L 1187.72 926.42 L 1190.00 926.24 L 1192.27 926.07 L 1194.53 925.88 L 1196.78 925.70" stroke="rgb(140,255,190)" stroke-opacity="0.528" stroke-width="1.10" />
  <path d="M 1088.24 959.66 L 1090.65 958.93 L 1092.95 958.11 L 1095.27 957.32 L 1097.60 956.53 L 1099.94 955.72 L 1102.29 954.79 L 1104.58 953.79 L 1106.95 952.97 L 1109.31 952.10 L 1111.66 951.24 L 1114.04 950.38 L 1116.43 949.58 L 1118.82 948.87 L 1121.22 948.18 L 1123.58 947.45 L 1125.93 946.69" stroke="rgb(140,255,190)" stroke-opacity="0.528" stroke-width="1.10" />
  <path d="M 1000.56 997.75 L 1003.15 996.52 L 1005.72 995.28 L 1008.27 994.04 L 1010.81 992.79 L 1013.37 991.63 L 1015.91 990.42 L 1018.48 989.30 L 1021.03 988.19 L 1023.59 987.09 L 1026.10 985.93 L 1028.60 984.78 L 1031.13 983.71 L 1033.65 982.64 L 1036.16 981.59 L 1038.67 980.55 L 1041.18 979.53 L 1043.67 978.51 L 1046.15 977.50 L 1048.65 976.56 L 1051.15 975.64 L 1053.62 974.68 L 1056.11 973.81 L 1058.60 972.96 L 1061.08 972.11 L 1063.54 971.25 L 1065.98 970.37 L 1068.44 969.56 L 1070.89 968.77 L 1073.33 967.96" stroke="rgb(140,255,190)" stroke-opacity="0.527" stroke-width="1.10" />
  <path d="M 1083.09 961.70 L 1085.04 959.87 L 1086.97 958.05 L 1088.91 956.27 L 1090.88 954.60 L 1092.87 952.94 L 1094.89 951.34 L 1096.89 949.72 L 1098.82 948.02 L 1100.75 946.32 L 1102.58 944.53 L 1104.42 942.77 L 1106.23 941.00 L 1108.12 939.29 L 1109.99 937.61 L 1111.85 935.91 L 1113.71 934.23 L 1115.55 932.55 L 1117.42 930.91 L 1119.22 929.22 L 1121.05 927.56 L 1122.84 925.88 L 1124.59 924.16 L 1126.37 922.51 L 1128.18 920.90 L 1130.02 919.33 L 1131.93 917.90 L 1133.81 916.45 L 1135.65 915.00 L 1137.54 913.62 L 1139.42 912.24 L 1141.29 910.87 L 1143.19 909.54 L 1145.06 908.18 L 1146.92 906.82 L 1148.78 905.47 L 1150.64 904.11 L 1152.47 902.75 L 1154.29 901.40" stroke="rgb(140,255,190)" stroke-opacity="0.524" stroke-width="1.09" />
  <path d="M 1085.56 960.49 L 1087.33 958.45 L 1089.00 956.35 L 1090.65 954.25 L 1092.32 952.18 L 1093.98 950.13 L 1095.68 948.11 L 1097.47 946.19 L 1099.25 944.28 L 1101.03 942.36 L 1102.80 940.45 L 1104.56 938.55 L 1106.30 936.64 L 1108.02 934.74 L 1109.69 932.79 L 1111.33 930.83 L 1112.97 928.89 L 1114.59 926.95 L 1116.23 925.02 L 1117.87 923.13" stroke="rgb(140,255,190)" stroke-opacity="0.524" stroke-width="1.09" />
  <path d="M 1068.51 968.47 L 1071.24 967.77 L 1073.95 967.06 L 1076.61 966.21 L 1079.27 965.37 L 1081.89 964.41 L 1084.44 963.37 L 1086.96 962.23 L 1089.46 961.09 L 1091.95 959.95 L 1094.48 958.91 L 1097.01 957.87 L 1099.52 956.82 L 1102.02 955.78 L 1104.52 954.75 L 1107.00 953.72 L 1109.50 952.76 L 1112.04 951.95 L 1114.54 951.05 L 1117.03 950.15 L 1119.49 949.22 L 1121.95 948.30 L 1124.42 947.43 L 1126.87 946.56 L 1129.32 945.70 L 1131.76 944.86 L 1134.20 944.03 L 1136.62 943.19 L 1139.03 942.39 L 1141.44 941.58 L 1143.84 940.77 L 1146.24 940.01 L 1148.64 939.28 L 1151.02 938.51 L 1153.40 937.77 L 1155.77 937.02 L 1158.11 936.25 L 1160.45 935.45 L 1162.77 934.69 L 1165.09 933.90 L 1167.39 933.14 L 1169.66 932.29 L 1171.87 931.33 L 1174.06 930.36 L 1176.27 929.44 L 1178.48 928.55 L 1180.69 927.66" stroke="rgb(140,255,190)" stroke-opacity="0.524" stroke-width="1.09" />
  <path d="M 998.54 1001.96 L 1000.98 1002.47 L 1003.41 1002.97 L 1005.83 1003.46 L 1008.25 1003.87 L 1010.66 1004.19 L 1013.03 1004.57 L 1015.40 1004.93 L 1017.76 1005.31 L 1020.13 1005.63 L 1022.46 1005.99 L 1024.77 1006.29 L 1027.06 1006.58 L 1029.35 1006.86 L 1031.62 1007.25 L 1033.90 1007.70 L 1036.14 1008.28 L 1038.34 1008.91 L 1040.54 1009.56 L 1042.75 1010.16 L 1044.94 1010.79 L 1047.13 1011.42 L 1049.30 1012.06 L 1051.46 1012.70 L 1053.59 1013.43 L 1055.72 1014.10 L 1057.84 1014.78" stroke="rgb(205,165,255)" stroke-opacity="0.463" stroke-width="1.09" />
  <path d="M 1001.72 1001.77 L 1004.43 1000.93 L 1007.17 1000.24 L 1009.88 999.51 L 1012.59 998.77 L 1015.25 997.94 L 1017.90 997.11 L 1020.55 996.31 L 1023.17 995.50 L 1025.79 994.72 L 1028.40 993.95 L 1030.97 993.12 L 1033.56 992.33 L 1036.15 991.62 L 1038.76 991.01 L 1041.35 990.40 L 1043.94 989.80 L 1046.53 989.23 L 1049.11 988.68 L 1051.68 988.13 L 1054.23 987.57 L 1056.76 986.97 L 1059.31 986.47 L 1061.85 986.00 L 1064.39 985.52 L 1066.90 984.94 L 1069.40 984.35 L 1071.87 983.73 L 1074.34 983.11 L 1076.80 982.49 L 1079.25 981.88 L 1081.68 981.24 L 1084.10 980.62 L 1086.51 979.95 L 1088.91 979.32 L 1091.29 978.66 L 1093.66 978.01 L 1095.98 977.21 L 1098.28 976.41 L 1100.56 975.57" stroke="rgb(140,255,190)" stroke-opacity="0.523" stroke-width="1.09" />
  <path d="M 1105.49 1015.03 L 1107.54 1015.61 L 1109.63 1016.07 L 1111.69 1016.45 L 1113.77 1016.73 L 1115.92 1017.10 L 1118.07 1017.34 L 1120.22 1017.60 L 1122.39 1017.70 L 1124.55 1017.78 L 1126.73 1017.77 L 1128.94 1017.91 L 1131.15 1018.08 L 1133.37 1018.27 L 1135.59 1018.44 L 1137.76 1018.52 L 1139.96 1018.68" stroke="rgb(205,165,255)" stroke-opacity="0.462" stroke-width="1.08" />
  <path d="M 999.66 1001.72 L 999.80 1003.96 L 999.86 1006.11 L 999.90 1008.23 L 999.94 1010.31 L 999.88 1012.35 L 999.79 1014.39 L 999.64 1016.44 L 999.36 1018.45 L 999.03 1020.44 L 998.80 1022.45 L 998.58 1024.46 L 998.36 1026.48 L 998.16 1028.50 L 997.93 1030.50 L 997.70 1032.44 L 997.48 1034.35 L 997.26 1036.27 L 997.02 1038.18 L 996.76 1040.08 L 996.51 1041.97 L 996.25 1043.86 L 996.01 1045.80 L 995.63 1047.73 L 995.27 1049.65 L 994.92 1051.55 L 994.61 1053.41 L 994.21 1055.23 L 993.80 1057.05 L 993.38 1058.84 L 992.94 1060.63 L 992.57 1062.43 L 992.15 1064.22" stroke="rgb(205,165,255)" stroke-opacity="0.461" stroke-width="1.08" />
  <path d="M 1003.38 995.27 L 1005.39 994.00 L 1007.38 992.74 L 1009.38 991.50 L 1011.38 990.31 L 1013.37 989.11 L 1015.30 987.82 L 1017.17 986.51 L 1019.05 985.21 L 1020.93 983.95" stroke="rgb(205,165,255)" stroke-opacity="0.461" stroke-width="1.08" />
  <path d="M 1040.54 1009.56 L 1042.79 1009.78 L 1045.05 1009.95 L 1047.29 1010.12 L 1049.54 1010.38 L 1051.81 1010.62 L 1054.07 1010.86 L 1056.32 1011.10 L 1058.56 1011.28 L 1060.79 1011.52 L 1063.04 1011.72 L 1065.25 1011.93 L 1067.42 1012.17 L 1069.58 1012.27 L 1071.74 1012.38 L 1073.87 1012.55 L 1076.00 1012.71 L 1078.10 1012.89 L 1080.18 1013.10 L 1082.25 1013.29 L 1084.30 1013.48 L 1086.34 1013.69 L 1088.33 1013.76 L 1090.29 1013.89 L 1092.22 1014.12 L 1094.15 1014.33 L 1096.08 1014.56 L 1097.99 1014.69 L 1099.92 1014.77 L 1101.82 1014.83 L 1103.71 1014.92 L 1105.49 1015.03 L 1107.25 1015.02 L 1109.01 1015.01 L 1110.76 1015.00 L 1112.55 1015.02 L 1114.38 1015.04 L 1116.23 1015.10 L 1118.05 1015.22 L 1119.84 1015.28 L 1121.61 1015.40 L 1123.38 1015.51 L 1125.15 1015.70 L 1126.97 1015.86 L 1128.77 1016.03" stroke="rgb(205,165,255)" stroke-opacity="0.458" stroke-width="1.07" />
  <path d="M 997.44 998.01 L 996.08 997.63 L 994.78 997.14 L 993.48 996.65 L 992.15 996.19 L 990.86 995.60 L 989.60 995.04 L 988.34 994.48 L 987.13 993.95 L 985.94 993.41 L 984.77 992.87 L 983.71 992.26 L 982.66 991.64 L 981.63 991.06 L 980.59 990.47 L 979.56 989.89 L 978.51 989.39 L 977.45 988.90 L 976.38 988.44 L 975.33 987.94 L 974.25 987.45 L 973.19 987.02 L 972.17 986.63 L 971.13 986.18 L 970.18 985.80 L 969.28 985.43 L 968.44 984.97 L 967.60 984.50 L 966.75 984.07 L 965.92 983.65 L 965.13 983.25 L 964.25 982.93 L 963.36 982.61 L 962.58 982.29 L 961.84 981.89 L 961.16 981.43 L 960.62 980.93 L 960.15 980.41 L 959.75 980.00 L 959.36 979.60 L 958.92 979.22 L 958.47 978.86 L 958.03 978.51 L 957.55 978.17 L 957.12 977.75 L 956.71 977.34 L 956.29 976.93 L 955.81 976.50 L 955.34 976.08 L 954.87 975.67 L 954.34 975.24 L 953.85 974.80 L 953.41 974.42 L 952.96 974.03 L 952.52 973.66" stroke="rgb(205,165,255)" stroke-opacity="0.457" stroke-width="1.07" />
  <path d="M 997.81 1002.34 L 999.28 1001.13 L 1000.77 999.93 L 1002.22 998.78 L 1003.67 997.66 L 1005.09 996.52 L 1006.49 995.41 L 1007.92 994.43 L 1009.36 993.51 L 1010.82 992.56 L 1012.26 991.60 L 1013.70 990.67 L 1015.15 989.72 L 1016.61 988.74 L 1018.05 987.76" stroke="rgb(205,165,255)" stroke-opacity="0.457" stroke-width="1.07" />
  <path d="M 1001.71 1000.58 L 999.58 1001.48 L 997.48 1002.44 L 995.40 1003.41 L 993.33 1004.39 L 991.27 1005.39 L 989.27 1006.46 L 987.21 1007.42 L 985.21 1008.43 L 983.23 1009.47 L 981.26 1010.49 L 979.30 1011.50 L 977.35 1012.54 L 975.40 1013.55" stroke="rgb(205,165,255)" stroke-opacity="0.453" stroke-width="1.05" />
  <path d="M 1000.31 999.06 L 1001.62 998.34 L 1002.91 997.60 L 1004.21 996.89 L 1005.57 996.20 L 1006.91 995.48 L 1008.24 994.69 L 1009.59 993.88 L 1010.92 993.09 L 1012.27 992.32 L 1013.63 991.58 L 1015.00 990.96 L 1016.34 990.29 L 1017.63 989.53 L 1018.96 988.78 L 1020.29 988.04 L 1021.59 987.24 L 1022.81 986.41 L 1024.07 985.52 L 1025.33 984.74 L 1026.57 983.96 L 1027.79 983.21 L 1029.03 982.44 L 1030.25 981.79 L 1031.47 981.10 L 1032.70 980.46 L 1033.94 979.83 L 1035.28 979.28 L 1036.61 978.73 L 1037.95 978.19 L 1039.27 977.74 L 1040.60 977.28 L 1041.94 976.85 L 1043.27 976.45 L 1044.57 976.05 L 1045.95 975.71 L 1047.29 975.38 L 1048.62 975.05 L 1049.94 974.71 L 1051.25 974.37 L 1052.56 974.04 L 1053.87 973.71 L 1055.16 973.39 L 1056.40 973.00 L 1057.60 972.59 L 1058.81 972.19 L 1059.96 971.78 L 1061.21 971.46 L 1062.44 971.13 L 1063.66 970.80 L 1064.89 970.44 L 1066.12 970.14 L 1067.33 969.83 L 1068.42 969.56" stroke="rgb(205,165,255)" stroke-opacity="0.451" stroke-width="1.04" />
  <path d="M 1001.74 1001.99 L 1001.89 1000.65 L 1002.02 999.36 L 1002.16 998.07 L 1002.36 996.81 L 1002.43 995.55 L 1002.50 994.29 L 1002.48 993.09 L 1002.44 991.92 L 1002.37 990.72 L 1002.39 989.55 L 1002.41 988.46 L 1002.48 987.42 L 1002.59 986.35 L 1002.70 985.30 L 1002.77 984.24 L 1002.87 983.11 L 1002.84 982.06 L 1002.81 981.03 L 1002.76 979.96 L 1002.70 978.90 L 1002.53 977.75 L 1002.28 976.52 L 1002.02 975.26 L 1001.77 973.93 L 1001.55 972.55 L 1001.31 971.17 L 1001.13 969.75 L 1000.96 968.32 L 1000.81 966.85 L 1000.81 965.40 L 1000.80 964.04 L 1000.75 962.70 L 1000.69 961.38 L 1000.67 960.05 L 1000.65 958.70 L 1000.62 957.37 L 1000.46 956.09 L 1000.29 954.81 L 1000.06 953.60 L 999.78 952.36 L 999.48 951.12 L 999.22 949.87 L 998.97 948.62" stroke="rgb(205,165,255)" stroke-opacity="0.449" stroke-width="1.03" />
  <path d="M 997.70 1032.44 L 997.54 1033.55 L 997.43 1034.62 L 997.37 1035.64 L 997.46 1036.60 L 997.52 1037.55 L 997.57 1038.49 L 997.61 1039.37 L 997.53 1040.32 L 997.42 1041.30 L 997.44 1042.30 L 997.47 1043.31 L 997.56 1044.31 L 997.47 1045.28 L 997.32 1046.27 L 997.05 1047.28 L 996.77 1048.28 L 996.52 1049.28 L 996.20 1050.19 L 995.76 1051.03 L 995.39 1051.99 L 995.11 1052.90 L 994.86 1053.67 L 994.61 1054.45 L 994.33 1055.22 L 994.04 1055.97 L 993.92 1056.57 L 993.58 1057.22 L 993.20 1057.93 L 992.92 1058.65 L 992.66 1059.27 L 992.47 1059.87 L 992.21 1060.40 L 991.93 1060.95 L 991.67 1061.46 L 991.41 1061.97 L 991.16 1062.48 L 990.93 1062.91 L 990.71 1063.43 L 990.55 1063.92" stroke="rgb(205,165,255)" stroke-opacity="0.444" stroke-width="1.02" />
  <path d="M 999.49 1003.59 L 998.39 1004.57 L 997.20 1005.41 L 996.04 1006.32 L 994.94 1007.27 L 993.83 1008.23 L 992.70 1009.15 L 991.68 1010.18 L 990.67 1011.20 L 989.72 1012.25 L 988.79 1013.33 L 987.88 1014.41 L 987.00 1015.52 L 986.13 1016.62" stroke="rgb(230,230,230)" stroke-opacity="0.387" stroke-width="0.72" />
  <path d="M 1003.39 999.66 L 1003.54 998.42 L 1003.73 997.19 L 1003.76 995.89 L 1003.96 994.57 L 1004.06 993.28 L 1004.49 991.99 L 1004.97 990.70" stroke="rgb(230,230,230)" stroke-opacity="0.385" stroke-width="0.71" />
  <path d="M 999.81 997.26 L 1000.47 996.32 L 1001.17 995.37 L 1001.85 994.43 L 1002.57 993.65 L 1003.25 992.91 L 1004.05 992.25 L 1004.84 991.62 L 1005.58 990.96 L 1006.36 990.24 L 1007.16 989.46 L 1007.90 988.55 L 1008.64 987.64 L 1009.45 986.82" stroke="rgb(230,230,230)" stroke-opacity="0.383" stroke-width="0.71" />
  <path d="M 1007.55 991.16 L 1007.64 991.09 L 1007.80 991.03 L 1007.95 990.96 L 1008.14 990.87" stroke="rgb(230,230,230)" stroke-opacity="0.383" stroke-width="0.71" />
  <path d="M 997.10 1003.24 L 995.79 1002.59 L 994.47 1001.96 L 993.23 1001.26 L 992.01 1000.55 L 990.83 999.88 L 989.74 999.18 L 988.64 998.46 L 987.53 997.76 L 986.59 996.94 L 985.67 996.22 L 984.75 995.58 L 983.76 995.11 L 982.78 994.59" stroke="rgb(230,230,230)" stroke-opacity="0.381" stroke-width="0.70" />
  <path d="M 1001.46 998.36 L 1002.02 999.22 L 1002.54 1000.09 L 1003.05 1001.12 L 1003.67 1002.06 L 1004.23 1003.05 L 1004.81 1004.03 L 1005.59 1004.91" stroke="rgb(230,230,230)" stroke-opacity="0.381" stroke-width="0.70" />
  <path d="M 1000.75 1008.72 L 1001.71 1008.89 L 1002.63 1009.14 L 1003.57 1009.38 L 1004.51 1009.63 L 1005.44 1009.85 L 1006.37 1009.97 L 1007.31 1010.17" stroke="rgb(230,230,230)" stroke-opacity="0.379" stroke-width="0.69" />
  <path d="M 1001.90 998.54 L 1002.94 999.48 L 1003.99 1000.32 L 1005.05 1001.30 L 1006.23 1002.13 L 1007.50 1002.81 L 1008.76 1003.50 L 1009.99 1004.16 L 1011.22 1004.83 L 1012.45 1005.50 L 1013.59 1006.21 L 1014.69 1006.98 L 1015.82 1007.73" stroke="rgb(230,230,230)" stroke-opacity="0.376" stroke-width="0.68" />
  <path d="M 1000.30 998.78 L 1001.78 998.79 L 1003.26 998.81 L 1004.74 998.82 L 1006.17 998.68 L 1007.60 998.55 L 1009.02 998.55 L 1010.43 998.56 L 1011.80 998.55 L 1013.16 998.54 L 1014.50 998.53 L 1015.85 998.51 L 1017.20 998.49 L 1018.52 998.36 L 1019.85 998.16 L 1021.19 998.09 L 1022.54 998.12 L 1023.89 998.19 L 1025.23 998.26" stroke="rgb(230,230,230)" stroke-opacity="0.373" stroke-width="0.68" />
  <path d="M 997.06 1001.37 L 997.73 1000.52 L 998.39 999.69 L 999.05 998.86" stroke="rgb(230,230,230)" stroke-opacity="0.371" stroke-width="0.67" />
  <path d="M 996.54 998.39 L 997.49 999.38 L 998.35 1000.35 L 999.17 1001.23 L 999.88 1002.11 L 1000.50 1003.02 L 1001.04 1004.00 L 1001.58 1005.06 L 1002.30 1006.15 L 1003.31 1007.13" stroke="rgb(230,230,230)" stroke-opacity="0.367" stroke-width="0.66" />
  <path d="M 1005.81 993.77 L 1005.46 992.97 L 1005.15 992.13 L 1004.90 991.24 L 1004.61 990.38 L 1004.25 989.60 L 1003.86 988.85 L 1003.38 988.14 L 1002.91 987.41 L 1002.45 986.83 L 1001.92 986.16 L 1001.36 985.48 L 1000.76 984.81" stroke="rgb(230,230,230)" stroke-opacity="0.366" stroke-width="0.66" />
  <path d="M 1005.38 1004.19 L 1004.79 1003.04 L 1004.35 1001.96 L 1003.76 1000.92 L 1003.20 999.85 L 1002.71 998.74 L 1002.19 997.65 L 1001.53 996.61" stroke="rgb(230,230,230)" stroke-opacity="0.359" stroke-width="0.64" />
  <path d="M 999.81 997.78 L 999.80 996.39 L 999.75 995.02 L 999.60 993.61 L 999.46 992.22 L 999.20 990.83 L 998.94 989.43 L 998.66 988.06 L 998.40 986.68" stroke="rgb(230,230,230)" stroke-opacity="0.358" stroke-width="0.63" />
  <path d="M 998.67 1002.62 L 999.25 1002.40 L 999.84 1002.15 L 1000.40 1001.90 L 1001.04 1001.58 L 1001.77 1001.29 L 1002.50 1001.05 L 1003.23 1000.90 L 1004.00 1000.71" stroke="rgb(230,230,230)" stroke-opacity="0.357" stroke-width="0.63" />
  <path d="M 994.44 995.35 L 995.20 994.17 L 995.96 992.99 L 996.76 991.88 L 997.28 990.73 L 997.65 989.51 L 998.06 988.25" stroke="rgb(230,230,230)" stroke-opacity="0.355" stroke-width="0.62" />
  <path d="M 996.59 1005.85 L 997.43 1005.01 L 998.26 1004.17 L 999.09 1003.23 L 999.88 1002.27 L 1000.63 1001.28 L 1001.29 1000.21 L 1001.94 999.14" stroke="rgb(230,230,230)" stroke-opacity="0.350" stroke-width="0.61" />
  <path d="M 997.83 1000.93 L 999.12 1000.31 L 1000.40 999.70 L 1001.77 999.27 L 1003.16 998.79 L 1004.36 998.09 L 1005.55 997.39 L 1006.82 996.84" stroke="rgb(230,230,230)" stroke-opacity="0.349" stroke-width="0.61" />
</g>
</svg>
