<?xml version="1.0" encoding="UTF-8"?>
<svg xmlns="http://www.w3.org/2000/svg" width="2000" height="2000" viewBox="0 0 2000 2000">
<g fill="none" stroke-linecap="round" stroke-linejoin="round">
  <path d="M 999.70 998.95 L 1002.73 998.10 L 1005.74 997.26 L 1008.73 996.39 L 1011.73 995.58 L 1014.71 994.76 L 1017.69 993.96 L 1020.65 993.16 L 1023.60 992.37 L 1026.54 991.59 L 1029.48 990.82 L 1032.40 990.09 L 1035.31 989.34 L 1038.22 988.63 L 1041.11 987.92 L 1043.99 987.19 L 1046.85 986.47 L 1049.71 985.79 L 1052.56 985.13 L 1055.40 984.46 L 1058.24 983.80 L 1061.06 983.14 L 1063.87 982.51 L 1066.67 981.83 L 1069.45 981.16 L 1072.22 980.47 L 1074.99 979.84 L 1077.74 979.18 L 1080.48 978.51 L 1083.22 977.86 L 1085.93 977.16 L 1088.62 976.43 L 1091.29 975.66 L 1093.95 974.89 L 1096.59 974.10 L 1099.22 973.32 L 1101.84 972.55 L 1104.45 971.78 L 1107.07 971.06 L 1109.67 970.33 L 1112.26 969.59 L 1114.84 968.87 L 1117.41 968.15 L 1119.98 967.46 L 1122.54 966.78 L 1125.09 966.12" stroke="rgb(120,210,255)" stroke-opacity="0.853" stroke-width="1.63" />
  <path d="M 1077.18 973.28 L 1080.23 972.35 L 1083.29 971.47 L 1086.34 970.58 L 1089.38 969.69 L 1092.43 968.85 L 1095.47 968.04 L 1098.51 967.24 L 1101.52 966.44 L 1104.56 965.76 L 1107.59 965.10 L 1110.60 964.44 L 1113.61 963.79 L 1116.61 963.15 L 1119.59 962.53 L 1122.58 961.94 L 1125.54 961.35 L 1128.51 960.82 L 1131.45 960.34 L 1134.40 959.89 L 1137.32 959.45 L 1140.24 959.04 L 1143.15 958.65 L 1146.07 958.36 L 1148.97 958.11 L 1151.86 957.85 L 1154.74 957.57 L 1157.62 957.28 L 1160.47 956.98 L 1163.32 956.67 L 1166.16 956.40 L 1169.00 956.16 L 1171.83 955.89 L 1174.63 955.61 L 1177.45 955.41 L 1180.24 955.17 L 1183.03 954.94 L 1185.80 954.75 L 1188.56 954.54 L 1191.31 954.33 L 1194.05 954.11" stroke="rgb(120,210,255)" stroke-opacity="0.851" stroke-width="1.63" />
  <path d="M 999.08 1001.81 L 1002.40 1000.88 L 1005.71 999.98 L 1009.02 999.10 L 1012.30 998.19 L 1015.57 997.27 L 1018.82 996.35 L 1022.07 995.47 L 1025.30 994.56 L 1028.52 993.68 L 1031.73 992.80 L 1034.92 991.91 L 1038.10 991.02 L 1041.27 990.13 L 1044.42 989.25 L 1047.56 988.38 L 1050.69 987.50 L 1053.82 986.69 L 1056.94 985.88 L 1060.05 985.11 L 1063.15 984.32 L 1066.23 983.55 L 1069.31 982.79 L 1072.37 982.01 L 1075.43 981.25 L 1078.47 980.50 L 1081.50 979.75 L 1084.53 979.05 L 1087.54 978.35 L 1090.56 977.70 L 1093.56 977.05 L 1096.55 976.42 L 1099.53 975.79 L 1102.50 975.18 L 1105.46 974.57 L 1108.41 973.96" stroke="rgb(120,210,255)" stroke-opacity="0.851" stroke-width="1.63" />
  <path d="M 1001.29 1001.18 L 1004.19 1000.27 L 1007.08 999.34 L 1009.97 998.44 L 1012.84 997.52 L 1015.70 996.62 L 1018.53 995.67 L 1021.34 994.67 L 1024.10 993.60 L 1026.86 992.56 L 1029.59 991.45 L 1032.31 990.36 L 1035.01 989.28 L 1037.71 988.20 L 1040.40 987.13 L 1043.08 986.09 L 1045.76 985.05 L 1048.43 984.03 L 1051.09 983.02 L 1053.74 982.02 L 1056.38 981.02 L 1059.03 980.06 L 1061.66 979.10 L 1064.28 978.14 L 1066.89 977.18 L 1069.49 976.23 L 1072.07 975.26 L 1074.63 974.26 L 1077.18 973.28 L 1079.73 972.32 L 1082.26 971.36 L 1084.79 970.43 L 1087.32 969.50 L 1089.83 968.57 L 1092.33 967.62 L 1094.82 966.69 L 1097.30 965.76 L 1099.76 964.80 L 1102.19 963.81" stroke="rgb(120,210,255)" stroke-opacity="0.467" stroke-width="1.62" />
  <path d="M 998.40 1004.15 L 1001.48 1003.32 L 1004.55 1002.49 L 1007.60 1001.66 L 1010.64 1000.82 L 1013.68 1000.06 L 1016.72 999.32 L 1019.73 998.54 L 1022.72 997.72 L 1025.69 996.90 L 1028.65 996.05 L 1031.60 995.25 L 1034.54 994.44 L 1037.46 993.60 L 1040.35 992.71 L 1043.23 991.84 L 1046.07 990.92 L 1048.91 990.00 L 1051.74 989.09 L 1054.56 988.18 L 1057.38 987.29 L 1060.16 986.34 L 1062.96 985.48 L 1065.74 984.59 L 1068.51 983.71 L 1071.26 982.81 L 1074.00 981.93 L 1076.73 981.05 L 1079.45 980.17" stroke="rgb(120,210,255)" stroke-opacity="0.844" stroke-width="1.60" />
  <path d="M 1000.31 999.06 L 1003.75 998.37 L 1007.16 997.67 L 1010.56 996.95 L 1013.94 996.22 L 1017.30 995.49 L 1020.64 994.72 L 1023.97 993.94 L 1027.28 993.17 L 1030.58 992.40 L 1033.86 991.58 L 1037.12 990.77 L 1040.36 989.93 L 1043.59 989.09 L 1046.82 988.30 L 1050.04 987.53 L 1053.24 986.74 L 1056.42 985.96 L 1059.60 985.18 L 1062.77 984.42 L 1065.92 983.67 L 1069.07 982.95 L 1072.20 982.21 L 1075.33 981.50 L 1078.44 980.80 L 1081.54 980.10 L 1084.62 979.39 L 1087.70 978.70 L 1090.76 978.02 L 1093.82 977.35 L 1096.87 976.70 L 1099.90 976.06 L 1102.93 975.44 L 1105.95 974.83 L 1108.95 974.21 L 1111.94 973.57 L 1114.91 972.91 L 1117.86 972.24 L 1120.80 971.57 L 1123.73 970.89 L 1126.65 970.21 L 1129.55 969.55 L 1132.45 968.88 L 1135.33 968.22 L 1138.21 967.60 L 1141.08 966.99 L 1143.94 966.38 L 1146.78 965.78 L 1149.62 965.20 L 1152.45 964.61 L 1155.27 964.07 L 1158.09 963.55 L 1160.90 963.03 L 1163.69 962.49 L 1166.47 961.97 L 1169.24 961.47 L 1172.01 961.00 L 1174.77 960.54 L 1177.51 960.08 L 1180.24 959.61 L 1182.96 959.15 L 1185.68 958.72 L 1188.39 958.29 L 1191.09 957.88 L 1193.77 957.46 L 1196.44 956.99 L 1199.09 956.52 L 1201.74 956.07 L 1204.38 955.62 L 1206.99 955.12 L 1209.60 954.63 L 1212.21 954.18 L 1214.81 953.77 L 1217.40 953.37 L 1219.98 952.96 L 1222.55 952.56 L 1225.11 952.21 L 1227.67 951.89 L 1230.23 951.59 L 1232.77 951.28" stroke="rgb(120,210,255)" stroke-opacity="0.843" stroke-width="1.60" />
  <path d="M 1005.42 1003.11 L 1008.65 1001.94 L 1011.87 1000.80 L 1015.10 999.68 L 1018.31 998.57 L 1021.51 997.46 L 1024.69 996.36 L 1027.87 995.29 L 1031.06 994.27 L 1034.23 993.26 L 1037.39 992.24 L 1040.53 991.22 L 1043.65 990.20 L 1046.77 989.20 L 1049.88 988.22 L 1052.98 987.22 L 1056.06 986.22 L 1059.12 985.23 L 1062.19 984.27 L 1065.24 983.30 L 1068.28 982.35 L 1071.30 981.39 L 1074.32 980.45 L 1077.32 979.50 L 1080.31 978.56 L 1083.30 977.65 L 1086.28 976.75 L 1089.24 975.85 L 1092.21 974.99 L 1095.16 974.14 L 1098.09 973.28 L 1101.03 972.45 L 1103.95 971.60 L 1106.85 970.76 L 1109.74 969.92 L 1112.64 969.14 L 1115.52 968.34 L 1118.38 967.52 L 1121.25 966.75 L 1124.10 965.98 L 1126.93 965.20 L 1129.76 964.44 L 1132.60 963.76 L 1135.42 963.08 L 1138.23 962.39 L 1141.03 961.71 L 1143.83 961.07 L 1146.62 960.44 L 1149.39 959.77 L 1152.15 959.11 L 1154.90 958.46 L 1157.65 957.86 L 1160.38 957.26 L 1163.10 956.60 L 1165.80 955.96 L 1168.49 955.31 L 1171.17 954.66 L 1173.84 954.01 L 1176.49 953.35 L 1179.13 952.69 L 1181.76 952.03" stroke="rgb(120,210,255)" stroke-opacity="0.839" stroke-width="1.59" />
  <path d="M 1002.39 998.62 L 1004.54 997.86 L 1006.71 997.18 L 1008.85 996.46 L 1011.02 995.91 L 1013.17 995.31 L 1015.31 994.70 L 1017.37 994.01 L 1019.42 993.32 L 1021.46 992.63 L 1023.54 991.99 L 1025.61 991.38 L 1027.67 990.79 L 1029.72 990.08 L 1031.73 989.32 L 1033.76 988.61 L 1035.80 987.93 L 1037.83 987.27 L 1039.87 986.68 L 1041.90 986.07 L 1043.92 985.46 L 1045.93 984.87 L 1047.87 984.12 L 1049.81 983.38 L 1051.74 982.64 L 1053.66 981.91 L 1055.56 981.17 L 1057.45 980.41 L 1059.35 979.67 L 1061.24 978.92 L 1063.09 978.11 L 1064.93 977.32 L 1066.77 976.52 L 1068.63 975.83 L 1070.50 975.14 L 1072.34 974.41 L 1074.16 973.65 L 1075.99 972.92 L 1077.84 972.26 L 1079.68 971.59 L 1081.52 970.93 L 1083.31 970.20 L 1085.06 969.38 L 1086.83 968.63 L 1088.57 967.83 L 1090.29 966.98 L 1092.00 966.14 L 1093.70 965.31 L 1095.43 964.56 L 1097.16 963.82 L 1098.88 963.09 L 1100.58 962.34 L 1102.27 961.60 L 1103.92 960.81 L 1105.54 959.95 L 1107.14 959.04 L 1108.72 958.12 L 1110.28 957.19" stroke="rgb(140,255,190)" stroke-opacity="0.561" stroke-width="1.21" />
  <path d="M 999.38 998.97 L 1000.35 1002.11 L 1001.32 1005.24 L 1002.27 1008.36 L 1003.22 1011.46 L 1004.15 1014.56 L 1005.06 1017.65 L 1005.95 1020.73 L 1006.83 1023.81 L 1007.77 1026.85 L 1008.71 1029.88 L 1009.67 1032.88 L 1010.63 1035.88 L 1011.61 1038.86 L 1012.59 1041.82 L 1013.57 1044.77 L 1014.51 1047.72 L 1015.46 1050.65 L 1016.42 1053.57 L 1017.32 1056.50 L 1018.16 1059.42 L 1018.95 1062.35 L 1019.76 1065.26 L 1020.57 1068.16 L 1021.40 1071.04 L 1022.27 1073.90 L 1023.11 1076.75 L 1023.96 1079.59" stroke="rgb(205,165,255)" stroke-opacity="0.709" stroke-width="1.21" />
  <path d="M 1089.85 987.01 L 1092.78 985.48 L 1095.73 983.98 L 1098.67 982.49 L 1101.60 981.01 L 1104.51 979.55 L 1107.42 978.15 L 1110.32 976.76 L 1113.23 975.41 L 1116.12 974.08 L 1119.00 972.80 L 1121.86 971.51 L 1124.70 970.20 L 1127.51 968.91 L 1130.31 967.59 L 1133.11 966.26 L 1135.89 964.94 L 1138.65 963.64 L 1141.41 962.38 L 1144.18 961.14 L 1146.93 959.89 L 1149.65 958.60 L 1152.37 957.33 L 1155.06 956.03 L 1157.75 954.75 L 1160.45 953.48 L 1163.14 952.22 L 1165.84 950.99 L 1168.53 949.77 L 1171.22 948.55 L 1173.89 947.33 L 1176.56 946.10 L 1179.23 944.91 L 1181.88 943.68 L 1184.54 942.49 L 1187.16 941.26" stroke="rgb(140,255,190)" stroke-opacity="0.740" stroke-width="1.20" />
  <path d="M 1066.61 983.39 L 1069.44 981.84 L 1072.25 980.26 L 1075.02 978.63 L 1077.78 977.01 L 1080.52 975.42 L 1083.24 973.81 L 1085.95 972.19 L 1088.64 970.57 L 1091.32 968.96 L 1093.98 967.36 L 1096.62 965.68 L 1099.24 963.99 L 1101.81 962.26 L 1104.40 960.64 L 1106.97 959.06 L 1109.56 957.46 L 1112.14 955.87 L 1114.71 954.29 L 1117.26 952.72 L 1119.81 951.17 L 1122.34 949.64 L 1124.85 948.13 L 1127.34 946.65 L 1129.81 945.20 L 1132.31 943.85 L 1134.78 942.52 L 1137.24 941.18 L 1139.68 939.83 L 1142.08 938.47 L 1144.47 937.11 L 1146.87 935.82 L 1149.26 934.55 L 1151.65 933.28 L 1154.01 932.04 L 1156.37 930.79 L 1158.70 929.54 L 1161.01 928.27 L 1163.32 927.01 L 1165.62 925.74 L 1167.87 924.47 L 1170.10 923.23 L 1172.31 921.98 L 1174.50 920.74 L 1176.69 919.48 L 1178.90 918.26 L 1181.10 917.05 L 1183.33 915.86 L 1185.55 914.67 L 1187.76 913.48 L 1189.97 912.26 L 1192.16 911.05 L 1194.36 909.85 L 1196.55 908.66 L 1198.68 907.43 L 1200.75 906.13 L 1202.81 904.85 L 1204.87 903.58 L 1206.92 902.32 L 1208.95 901.10 L 1210.99 899.90 L 1213.03 898.70 L 1215.00 897.46 L 1216.98 896.22 L 1218.92 895.00 L 1220.85 893.79 L 1222.77 892.59 L 1224.69 891.38 L 1226.56 890.14 L 1228.43 888.90 L 1230.27 887.65 L 1232.10 886.40 L 1233.94 885.14 L 1235.77 883.88 L 1237.60 882.64 L 1239.43 881.41 L 1241.27 880.20 L 1243.11 878.99 L 1244.94 877.80 L 1246.77 876.58 L 1248.60 875.37 L 1250.46 874.22 L 1252.32 873.08 L 1254.20 871.97 L 1256.05 870.84 L 1257.89 869.70 L 1259.73 868.58 L 1261.56 867.45 L 1263.37 866.32 L 1265.16 865.20 L 1266.97 864.09 L 1268.78 863.02 L 1270.58 861.97 L 1272.37 860.93 L 1274.16 859.88 L 1275.94 858.83 L 1277.71 857.81 L 1279.46 856.79 L 1281.21 855.76 L 1282.97 854.75 L 1284.70 853.71 L 1286.43 852.68 L 1288.14 851.60 L 1289.85 850.53 L 1291.55 849.46 L 1293.27 848.43" stroke="rgb(140,255,190)" stroke-opacity="0.740" stroke-width="1.19" />
  <path d="M 999.34 998.42 L 996.79 1000.01 L 994.25 1001.61 L 991.75 1003.25 L 989.25 1004.87 L 986.73 1006.47 L 984.22 1008.06 L 981.73 1009.66 L 979.24 1011.24 L 976.73 1012.76 L 974.19 1014.22 L 971.68 1015.72 L 969.18 1017.22 L 966.69 1018.70 L 964.21 1020.19 L 961.75 1021.68 L 959.30 1023.20 L 956.87 1024.71 L 954.45 1026.22 L 952.03 1027.72 L 949.65 1029.25 L 947.28 1030.79 L 944.94 1032.35 L 942.65 1033.95 L 940.35 1035.52 L 938.05 1037.07 L 935.77 1038.62 L 933.50 1040.16 L 931.22 1041.67 L 928.95 1043.17 L 926.70 1044.69 L 924.44 1046.16 L 922.19 1047.62 L 919.95 1049.09 L 917.70 1050.54 L 915.50 1052.04 L 913.32 1053.56 L 911.16 1055.09 L 909.04 1056.64 L 906.90 1058.15 L 904.74 1059.64 L 902.60 1061.12 L 900.43 1062.55 L 898.27 1063.96 L 896.11 1065.37 L 894.00 1066.82 L 891.89 1068.24 L 889.76 1069.64 L 887.65 1071.03 L 885.54 1072.42" stroke="rgb(205,165,255)" stroke-opacity="0.487" stroke-width="1.18" />
  <path d="M 1145.66 995.07 L 1148.72 994.72 L 1151.79 994.52 L 1154.86 994.37 L 1157.91 994.16 L 1160.95 993.95 L 1163.98 993.71 L 1166.99 993.48 L 1169.98 993.25 L 1172.96 993.17 L 1175.93 993.09 L 1178.88 993.02 L 1181.84 992.95 L 1184.80 992.87 L 1187.78 992.75 L 1190.74 992.63 L 1193.70 992.59 L 1196.63 992.57 L 1199.59 992.45 L 1202.53 992.32 L 1205.46 992.20 L 1208.39 992.14 L 1211.30 992.08 L 1214.22 992.08 L 1217.12 992.09 L 1219.99 992.06 L 1222.85 992.04 L 1225.71 991.97 L 1228.55 991.91 L 1231.42 991.87 L 1234.29 991.83 L 1237.17 991.84 L 1240.04 991.89 L 1242.89 991.91 L 1245.74 991.94 L 1248.60 992.01 L 1251.45 992.06 L 1254.30 992.16 L 1257.14 992.23 L 1259.97 992.29 L 1262.78 992.34" stroke="rgb(140,255,190)" stroke-opacity="0.732" stroke-width="1.17" />
  <path d="M 1000.01 1005.89 L 1002.84 1004.12 L 1005.65 1002.36 L 1008.43 1000.55 L 1011.21 998.76 L 1013.97 996.97 L 1016.69 995.13 L 1019.36 993.25 L 1022.03 991.40 L 1024.69 989.54 L 1027.34 987.73 L 1029.98 985.92 L 1032.60 984.11 L 1035.19 982.29 L 1037.81 980.51 L 1040.42 978.75 L 1043.05 977.03 L 1045.67 975.31 L 1048.27 973.60 L 1050.88 971.90 L 1053.47 970.21 L 1056.04 968.53 L 1058.61 966.85 L 1061.18 965.21 L 1063.73 963.57 L 1066.29 961.96 L 1068.82 960.33 L 1071.33 958.69 L 1073.84 957.08 L 1076.34 955.47" stroke="rgb(140,255,190)" stroke-opacity="0.729" stroke-width="1.17" />
  <path d="M 1001.42 1001.18 L 1004.50 1000.26 L 1007.57 999.36 L 1010.62 998.45 L 1013.67 997.55 L 1016.70 996.63 L 1019.71 995.72 L 1022.71 994.80 L 1025.70 993.88 L 1028.68 992.98 L 1031.64 992.06 L 1034.59 991.12 L 1037.52 990.18 L 1040.43 989.24 L 1043.32 988.26 L 1046.21 987.33 L 1049.09 986.39 L 1051.96 985.47 L 1054.81 984.56 L 1057.65 983.62 L 1060.49 982.73 L 1063.32 981.85 L 1066.13 980.97 L 1068.94 980.10 L 1071.73 979.21 L 1074.52 978.35 L 1077.29 977.49 L 1080.07 976.70 L 1082.83 975.88 L 1085.56 975.04 L 1088.29 974.26 L 1091.02 973.51 L 1093.73 972.76 L 1096.43 972.02 L 1099.13 971.29 L 1101.82 970.57 L 1104.48 969.83 L 1107.15 969.13 L 1109.81 968.44 L 1112.45 967.74 L 1115.10 967.09 L 1117.75 966.50 L 1120.39 965.94 L 1123.03 965.44 L 1125.67 964.90 L 1128.30 964.38 L 1130.92 963.85 L 1133.52 963.28 L 1136.12 962.75 L 1138.71 962.23 L 1141.29 961.68 L 1143.86 961.14 L 1146.42 960.60 L 1148.98 960.12 L 1151.52 959.65 L 1154.07 959.20 L 1156.60 958.83 L 1159.13 958.44 L 1161.66 958.11 L 1164.17 957.78 L 1166.68 957.44 L 1169.17 957.13 L 1171.66 956.79 L 1174.12 956.39 L 1176.58 956.04 L 1179.05 955.73 L 1181.49 955.35 L 1183.92 954.95 L 1186.34 954.57 L 1188.76 954.21 L 1191.18 953.87 L 1193.57 953.48 L 1195.96 953.15 L 1198.33 952.79 L 1200.69 952.42 L 1203.04 952.05 L 1205.38 951.67 L 1207.71 951.27 L 1210.01 950.83 L 1212.31 950.41 L 1214.59 949.95 L 1216.86 949.50 L 1219.12 949.05 L 1221.37 948.61 L 1223.60 948.16 L 1225.83 947.72 L 1228.07 947.33 L 1230.30 946.91 L 1232.51 946.48 L 1234.72 946.06 L 1236.92 945.64 L 1239.12 945.25 L 1241.30 944.86 L 1243.46 944.44 L 1245.61 944.00 L 1247.76 943.57 L 1249.90 943.16 L 1252.02 942.74 L 1254.15 942.32 L 1256.25 941.87 L 1258.34 941.43 L 1260.42 940.99 L 1262.48 940.54 L 1264.54 940.09 L 1266.59 939.62 L 1268.61 939.14 L 1270.64 938.71" stroke="rgb(140,255,190)" stroke-opacity="0.726" stroke-width="1.16" />
  <path d="M 1049.69 987.47 L 1052.70 986.82 L 1055.69 986.17 L 1058.62 985.50 L 1061.58 984.88 L 1064.54 984.27 L 1067.45 983.64 L 1070.35 983.01 L 1073.27 982.36 L 1076.18 981.74 L 1079.08 981.12 L 1081.97 980.50 L 1084.87 979.91 L 1087.75 979.36 L 1090.63 978.83 L 1093.49 978.30 L 1096.37 977.76 L 1099.25 977.21" stroke="rgb(140,255,190)" stroke-opacity="0.726" stroke-width="1.16" />
  <path d="M 999.62 1000.28 L 1002.56 999.13 L 1005.49 997.98 L 1008.42 996.84 L 1011.33 995.69 L 1014.22 994.50 L 1017.07 993.23 L 1019.91 991.99 L 1022.74 990.75 L 1025.58 989.55 L 1028.41 988.40 L 1031.23 987.24 L 1034.05 986.11 L 1036.89 985.07 L 1039.73 984.04 L 1042.54 982.99 L 1045.35 981.97 L 1048.15 980.97 L 1050.95 979.97 L 1053.74 978.99 L 1056.52 978.01 L 1059.28 977.02" stroke="rgb(140,255,190)" stroke-opacity="0.725" stroke-width="1.16" />
  <path d="M 997.03 999.34 L 1000.17 998.49 L 1003.30 997.68 L 1006.42 996.85 L 1009.52 996.00 L 1012.60 995.17 L 1015.67 994.32 L 1018.73 993.50 L 1021.80 992.73 L 1024.84 991.94 L 1027.87 991.15 L 1030.88 990.34 L 1033.88 989.56 L 1036.87 988.82 L 1039.85 988.06 L 1042.83 987.32 L 1045.78 986.57 L 1048.70 985.77 L 1051.57 984.99 L 1054.46 984.25 L 1057.32 983.43 L 1060.17 982.57 L 1062.99 981.68 L 1065.81 980.83 L 1068.57 979.92 L 1071.33 979.00 L 1074.07 978.08 L 1076.83 977.24 L 1079.55 976.35 L 1082.26 975.46 L 1084.96 974.53 L 1087.63 973.58 L 1090.31 972.62 L 1092.98 971.63 L 1095.64 970.65 L 1098.31 969.74 L 1100.97 968.83 L 1103.62 967.92 L 1106.28 967.06 L 1108.95 966.26 L 1111.61 965.48 L 1114.23 964.61 L 1116.85 963.77 L 1119.45 962.93 L 1122.05 962.12" stroke="rgb(140,255,190)" stroke-opacity="0.724" stroke-width="1.15" />
  <path d="M 998.54 999.92 L 1001.77 999.03 L 1005.00 998.18 L 1008.21 997.34 L 1011.41 996.51 L 1014.60 995.67 L 1017.77 994.84 L 1020.93 994.00 L 1024.07 993.15 L 1027.20 992.30 L 1030.31 991.45 L 1033.41 990.61 L 1036.51 989.79 L 1039.60 989.00 L 1042.67 988.20 L 1045.75 987.46 L 1048.81 986.74 L 1051.88 986.05 L 1054.93 985.41 L 1057.99 984.81 L 1061.03 984.20 L 1064.06 983.60 L 1067.08 983.00 L 1070.09 982.42 L 1073.07 981.79 L 1076.05 981.18 L 1079.01 980.56 L 1081.96 979.95" stroke="rgb(140,255,190)" stroke-opacity="0.724" stroke-width="1.15" />
  <path d="M 1165.84 950.99 L 1167.96 950.39 L 1170.03 949.66 L 1172.12 948.86 L 1174.20 948.03 L 1176.27 947.19 L 1178.29 946.27 L 1180.32 945.33 L 1182.34 944.38 L 1184.30 943.31 L 1186.22 942.16 L 1188.18 941.08 L 1190.19 940.07 L 1192.15 938.97 L 1194.02 937.75 L 1195.88 936.53 L 1197.70 935.37 L 1199.52 934.21 L 1201.32 933.06 L 1203.08 931.79 L 1204.78 930.46 L 1206.42 929.11 L 1208.04 927.76 L 1209.68 926.45 L 1211.34 925.19 L 1213.03 923.99 L 1214.70 922.81" stroke="rgb(140,255,190)" stroke-opacity="0.543" stroke-width="1.15" />
  <path d="M 999.08 1000.50 L 1002.10 999.21 L 1005.10 997.90 L 1008.09 996.61 L 1011.07 995.32 L 1014.05 994.07 L 1017.02 992.83 L 1019.98 991.60 L 1022.91 990.32 L 1025.80 988.99 L 1028.67 987.65 L 1031.53 986.33 L 1034.40 985.04 L 1037.26 983.76 L 1040.11 982.49 L 1042.94 981.23 L 1045.77 979.98 L 1048.57 978.72 L 1051.36 977.45 L 1054.12 976.15 L 1056.90 974.92 L 1059.68 973.72 L 1062.44 972.52 L 1065.20 971.33 L 1067.93 970.12 L 1070.65 968.90 L 1073.35 967.67 L 1076.03 966.44 L 1078.66 965.15 L 1081.29 963.88 L 1083.91 962.59 L 1086.52 961.32 L 1089.10 960.00 L 1091.67 958.70 L 1094.26 957.46 L 1096.84 956.24 L 1099.44 955.07 L 1102.03 953.90 L 1104.62 952.75 L 1107.18 951.58 L 1109.72 950.38 L 1112.24 949.19 L 1114.76 948.01 L 1117.28 946.85 L 1119.77 945.65 L 1122.23 944.43 L 1124.70 943.25 L 1127.17 942.09 L 1129.63 940.94 L 1132.10 939.84 L 1134.57 938.76 L 1137.04 937.70 L 1139.49 936.64 L 1141.94 935.59 L 1144.37 934.53 L 1146.78 933.47 L 1149.19 932.42" stroke="rgb(140,255,190)" stroke-opacity="0.723" stroke-width="1.15" />
  <path d="M 1002.07 999.20 L 1005.24 998.22 L 1008.39 997.24 L 1011.55 996.30 L 1014.68 995.35 L 1017.82 994.43 L 1020.93 993.49 L 1024.03 992.57 L 1027.16 991.75 L 1030.27 990.97 L 1033.36 990.14 L 1036.45 989.33 L 1039.52 988.53 L 1042.58 987.74 L 1045.64 986.99 L 1048.68 986.23 L 1051.70 985.44 L 1054.71 984.67 L 1057.71 983.89 L 1060.69 983.07 L 1063.66 982.27 L 1066.61 981.48 L 1069.56 980.72 L 1072.51 979.98 L 1075.44 979.25 L 1078.36 978.51 L 1081.28 977.82 L 1084.19 977.14 L 1087.07 976.45 L 1089.95 975.76 L 1092.82 975.11 L 1095.68 974.49 L 1098.54 973.88 L 1101.39 973.28 L 1104.21 972.67 L 1107.03 972.08 L 1109.84 971.49 L 1112.64 970.93 L 1115.44 970.36 L 1118.22 969.83 L 1121.01 969.36 L 1123.79 968.89 L 1126.56 968.46 L 1129.32 968.03 L 1132.06 967.58 L 1134.80 967.13 L 1137.50 966.63 L 1140.20 966.12 L 1142.89 965.60 L 1145.55 965.03 L 1148.21 964.46 L 1150.86 963.90 L 1153.49 963.33 L 1156.10 962.73 L 1158.70 962.12 L 1161.28 961.51 L 1163.86 960.91 L 1166.43 960.32 L 1169.00 959.75 L 1171.55 959.18 L 1174.10 958.62 L 1176.65 958.07" stroke="rgb(140,255,190)" stroke-opacity="0.722" stroke-width="1.15" />
  <path d="M 999.87 1005.41 L 1002.99 1004.51 L 1006.12 1003.74 L 1009.24 1002.95 L 1012.37 1002.26 L 1015.49 1001.59 L 1018.60 1000.93 L 1021.70 1000.28 L 1024.78 999.63 L 1027.86 999.00 L 1030.93 998.41 L 1033.99 997.83 L 1037.05 997.28 L 1040.09 996.75 L 1043.12 996.20 L 1046.14 995.65 L 1049.14 995.12 L 1052.14 994.58 L 1055.11 994.00 L 1058.07 993.40 L 1061.02 992.81 L 1063.96 992.24 L 1066.89 991.68 L 1069.80 991.09 L 1072.69 990.48 L 1075.58 989.88 L 1078.45 989.29 L 1081.31 988.69 L 1084.17 988.11 L 1087.01 987.56 L 1089.85 987.01 L 1092.67 986.43 L 1095.48 985.88 L 1098.27 985.31 L 1101.06 984.78 L 1103.84 984.25 L 1106.60 983.65 L 1109.34 983.08 L 1112.08 982.50 L 1114.81 981.98 L 1117.53 981.44" stroke="rgb(140,255,190)" stroke-opacity="0.722" stroke-width="1.15" />
  <path d="M 1157.75 954.75 L 1159.92 952.48 L 1162.10 950.21 L 1164.24 947.94 L 1166.49 945.81 L 1168.75 943.69 L 1170.98 941.56 L 1173.24 939.47 L 1175.48 937.38 L 1177.65 935.24 L 1179.73 933.01 L 1181.79 930.81 L 1183.82 928.57 L 1185.82 926.32 L 1187.81 924.09 L 1189.82 921.89 L 1191.81 919.70 L 1193.81 917.52 L 1195.79 915.34 L 1197.79 913.22 L 1199.74 911.05 L 1201.72 908.93 L 1203.74 906.86 L 1205.71 904.75 L 1207.67 902.64 L 1209.62 900.52 L 1211.57 898.45 L 1213.49 896.37 L 1215.45 894.36 L 1217.36 892.35" stroke="rgb(140,255,190)" stroke-opacity="0.721" stroke-width="1.15" />
  <path d="M 1084.17 988.11 L 1086.53 986.10 L 1088.88 984.08 L 1091.23 982.07 L 1093.62 980.14 L 1096.03 978.25 L 1098.41 976.35 L 1100.74 974.40 L 1103.07 972.48 L 1105.36 970.53 L 1107.64 968.59 L 1109.92 966.66 L 1112.17 964.71 L 1114.42 962.77 L 1116.68 960.87 L 1118.92 958.99 L 1121.18 957.14 L 1123.42 955.29 L 1125.64 953.43 L 1127.83 951.58 L 1130.03 949.75 L 1132.25 947.97 L 1134.48 946.23 L 1136.70 944.49 L 1138.89 942.72 L 1141.05 940.93 L 1143.21 939.18 L 1145.35 937.42 L 1147.50 935.69 L 1149.67 934.01 L 1151.79 932.27 L 1153.91 930.55 L 1156.02 928.82 L 1158.10 927.06 L 1160.18 925.32 L 1162.26 923.57 L 1164.34 921.87 L 1166.41 920.17 L 1168.48 918.50 L 1170.52 916.83 L 1172.60 915.21 L 1174.62 913.55 L 1176.63 911.89 L 1178.62 910.23 L 1180.62 908.62 L 1182.62 907.00 L 1184.63 905.44 L 1186.63 903.92 L 1188.61 902.40 L 1190.59 900.88 L 1192.52 899.31 L 1194.45 897.75 L 1196.36 896.18 L 1198.25 894.60 L 1200.15 893.05 L 1202.05 891.49 L 1203.95 889.96" stroke="rgb(140,255,190)" stroke-opacity="0.720" stroke-width="1.14" />
  <path d="M 1118.22 969.83 L 1121.10 969.98 L 1123.96 970.12 L 1126.78 970.41 L 1129.58 970.72 L 1132.41 970.98 L 1135.19 971.18 L 1137.95 971.35 L 1140.68 971.54 L 1143.41 971.74 L 1146.16 971.96 L 1148.90 972.21 L 1151.61 972.46 L 1154.31 972.60 L 1157.01 972.77 L 1159.72 972.89 L 1162.43 973.02 L 1165.11 973.14 L 1167.78 973.30 L 1170.45 973.52 L 1173.12 973.68 L 1175.79 973.86 L 1178.44 974.05 L 1181.11 974.33 L 1183.76 974.58 L 1186.41 974.84 L 1189.05 975.10 L 1191.71 975.41 L 1194.35 975.71 L 1196.98 975.99 L 1199.59 976.27 L 1202.18 976.65 L 1204.75 977.04 L 1207.32 977.37 L 1209.91 977.63 L 1212.47 977.89 L 1215.02 978.05 L 1217.57 978.23 L 1220.11 978.40 L 1222.62 978.63 L 1225.14 978.94 L 1227.64 979.20 L 1230.14 979.48" stroke="rgb(140,255,190)" stroke-opacity="0.717" stroke-width="1.14" />
  <path d="M 1001.84 1000.48 L 1004.74 999.57 L 1007.61 998.65 L 1010.48 997.74 L 1013.33 996.81 L 1016.14 995.81 L 1018.93 994.80 L 1021.69 993.75 L 1024.44 992.72 L 1027.18 991.70 L 1029.92 990.71 L 1032.64 989.74 L 1035.34 988.73 L 1038.03 987.74 L 1040.74 986.82 L 1043.44 985.91 L 1046.14 985.03 L 1048.83 984.15 L 1051.53 983.31 L 1054.22 982.51 L 1056.91 981.70 L 1059.57 980.85 L 1062.23 980.06 L 1064.89 979.26 L 1067.53 978.47 L 1070.13 977.59 L 1072.69 976.61 L 1075.24 975.64 L 1077.76 974.61 L 1080.28 973.64 L 1082.80 972.68 L 1085.28 971.65 L 1087.74 970.60 L 1090.19 969.55 L 1092.62 968.51 L 1095.03 967.45 L 1097.43 966.38 L 1099.82 965.32 L 1102.20 964.26 L 1104.57 963.21 L 1106.94 962.17 L 1109.31 961.15 L 1111.67 960.15 L 1114.03 959.17 L 1116.39 958.20 L 1118.73 957.23 L 1121.06 956.25 L 1123.38 955.27 L 1125.69 954.29 L 1127.99 953.34 L 1130.28 952.37 L 1132.53 951.34 L 1134.77 950.30 L 1136.99 949.26 L 1139.19 948.19 L 1141.38 947.13 L 1143.57 946.09 L 1145.76 945.06 L 1147.94 944.04 L 1150.11 943.03 L 1152.26 941.99 L 1154.40 940.94 L 1156.53 939.92 L 1158.66 938.93 L 1160.79 937.95 L 1162.91 936.97 L 1165.03 936.02 L 1167.13 935.08 L 1169.22 934.11 L 1171.30 933.15 L 1173.38 932.20 L 1175.42 931.22 L 1177.48 930.26 L 1179.52 929.31 L 1181.56 928.38 L 1183.62 927.49 L 1185.67 926.60 L 1187.71 925.70 L 1189.72 924.76 L 1191.71 923.79 L 1193.69 922.84 L 1195.67 921.89 L 1197.62 920.93 L 1199.57 919.97 L 1201.51 919.02" stroke="rgb(140,255,190)" stroke-opacity="0.536" stroke-width="1.13" />
  <path d="M 1158.66 938.93 L 1160.98 937.52 L 1163.30 936.12 L 1165.64 934.72 L 1167.92 933.27 L 1170.17 931.76 L 1172.35 930.25 L 1174.63 928.83 L 1176.89 927.40 L 1179.15 925.97 L 1181.37 924.46 L 1183.62 923.02 L 1185.86 921.54 L 1188.08 920.06 L 1190.30 918.68 L 1192.53 917.30 L 1194.74 915.89 L 1196.96 914.55 L 1199.19 913.25" stroke="rgb(140,255,190)" stroke-opacity="0.536" stroke-width="1.13" />
  <path d="M 996.83 999.13 L 999.19 997.65 L 1001.57 996.25 L 1003.94 994.84 L 1006.28 993.42 L 1008.59 991.95 L 1010.92 990.54 L 1013.23 989.13 L 1015.51 987.68 L 1017.73 986.18 L 1019.95 984.70 L 1022.16 983.21 L 1024.37 981.75 L 1026.54 980.25 L 1028.68 978.73 L 1030.76 977.15 L 1032.80 975.53 L 1034.86 973.94 L 1036.92 972.37 L 1038.97 970.80 L 1041.06 969.29 L 1043.15 967.82 L 1045.25 966.36 L 1047.34 964.91 L 1049.42 963.48 L 1051.50 962.04 L 1053.56 960.61 L 1055.61 959.18 L 1057.67 957.76 L 1059.71 956.35 L 1061.78 955.00 L 1063.85 953.67 L 1065.94 952.39 L 1068.00 951.07 L 1070.04 949.76 L 1072.05 948.42" stroke="rgb(205,165,255)" stroke-opacity="0.473" stroke-width="1.12" />
  <path d="M 1031.59 979.20 L 1034.12 979.06 L 1036.65 978.94 L 1039.19 978.75 L 1041.71 978.67 L 1044.22 978.60 L 1046.73 978.46 L 1049.21 978.22 L 1051.65 977.93 L 1054.09 977.62" stroke="rgb(140,255,190)" stroke-opacity="0.532" stroke-width="1.12" />
  <path d="M 1086.83 968.63 L 1088.92 966.75 L 1091.04 964.89 L 1093.13 963.06 L 1095.22 961.21 L 1097.26 959.32 L 1099.28 957.43 L 1101.30 955.54 L 1103.34 953.68 L 1105.33 951.87 L 1107.28 950.02 L 1109.22 948.18 L 1111.17 946.36 L 1113.09 944.53 L 1115.03 942.77 L 1117.05 941.09 L 1119.10 939.44 L 1121.17 937.87 L 1123.24 936.31 L 1125.33 934.79 L 1127.39 933.23 L 1129.46 931.70 L 1131.51 930.17 L 1133.55 928.64" stroke="rgb(140,255,190)" stroke-opacity="0.531" stroke-width="1.11" />
  <path d="M 1060.69 983.07 L 1063.62 983.52 L 1066.52 983.93 L 1069.42 984.30 L 1072.30 984.65 L 1075.16 985.02 L 1078.01 985.42 L 1080.84 985.82 L 1083.66 986.22 L 1086.48 986.59 L 1089.29 986.95 L 1092.07 987.29 L 1094.84 987.65 L 1097.59 988.01 L 1100.27 988.32 L 1102.92 988.72 L 1105.56 989.13 L 1108.16 989.51 L 1110.74 989.88 L 1113.32 990.25 L 1115.94 990.64 L 1118.51 991.00 L 1121.07 991.43 L 1123.59 991.81 L 1126.09 992.14 L 1128.56 992.53 L 1131.01 992.92 L 1133.45 993.35 L 1135.88 993.71 L 1138.34 994.07 L 1140.79 994.44 L 1143.23 994.80 L 1145.66 995.07 L 1148.07 995.32 L 1150.47 995.58 L 1152.85 995.83 L 1155.22 996.08 L 1157.58 996.34 L 1159.98 996.59 L 1162.37 996.87 L 1164.76 997.15" stroke="rgb(140,255,190)" stroke-opacity="0.531" stroke-width="1.11" />
  <path d="M 1000.38 998.71 L 1002.69 997.24 L 1004.97 995.79 L 1007.26 994.35 L 1009.57 992.98 L 1011.85 991.58 L 1014.14 990.19 L 1016.43 988.83 L 1018.65 987.43 L 1020.86 986.03 L 1023.04 984.63 L 1025.23 983.27 L 1027.36 981.88 L 1029.48 980.50 L 1031.59 979.20 L 1033.69 977.92 L 1035.81 976.70 L 1037.91 975.46 L 1039.97 974.23 L 1042.00 973.09 L 1044.02 971.95 L 1046.04 970.82 L 1048.02 969.69 L 1049.99 968.58 L 1052.00 967.46 L 1054.03 966.39 L 1056.05 965.32 L 1058.05 964.24" stroke="rgb(140,255,190)" stroke-opacity="0.531" stroke-width="1.11" />
  <path d="M 1001.60 1002.41 L 1003.91 1001.39 L 1006.22 1000.38 L 1008.50 999.36 L 1010.76 998.34 L 1012.98 997.27 L 1015.15 996.18 L 1017.16 994.91 L 1019.17 993.68 L 1021.16 992.47 L 1023.17 991.31 L 1025.21 990.16 L 1027.27 989.07 L 1029.33 987.97 L 1031.37 986.88 L 1033.40 985.80 L 1035.37 984.68 L 1037.39 983.63 L 1039.41 982.57 L 1041.44 981.56 L 1043.52 980.62 L 1045.62 979.66 L 1047.70 978.76 L 1049.77 977.87 L 1051.78 976.93 L 1053.75 975.99 L 1055.70 975.07 L 1057.64 974.10 L 1059.55 973.09 L 1061.43 972.08 L 1063.31 971.08 L 1065.25 970.16 L 1067.12 969.26 L 1068.98 968.37" stroke="rgb(205,165,255)" stroke-opacity="0.469" stroke-width="1.11" />
  <path d="M -0.30 1305.84 L 2.89 1304.61 L 5.79 1304.65 L 8.55 1303.44 L 11.39 1302.45 L 14.13 1301.52 L 16.93 1300.64 L 19.91 1299.97 L 23.14 1298.92 L 26.16 1298.50 L 28.55 1297.50 L 31.48 1296.54 L 34.49 1295.61 L 37.23 1295.12 L 40.46 1293.39 L 43.20 1293.28 L 45.48 1292.08 L 48.71 1291.58 L 51.59 1290.41 L 54.97 1289.45 L 57.51 1288.88 L 60.10 1287.84 L 62.91 1286.86 L 66.06 1286.17 L 69.15 1285.45 L 72.09 1284.38 L 74.17 1283.73 L 77.33 1282.84 L 80.57 1281.67 L 83.15 1281.06 L 85.80 1279.93 L 89.20 1278.94 L 91.71 1278.20 L 94.56 1277.12 L 97.19 1275.95 L 100.56 1275.55 L 103.28 1274.51 L 106.17 1273.23 L 108.96 1272.83 L 112.04 1271.97 L 114.64 1270.76 L 117.59 1270.44 L 120.34 1269.42 L 122.92 1268.68 L 126.13 1267.41 L 129.27 1266.99 L 132.03 1265.99 L 134.83 1264.31 L 138.06 1264.21 L 140.64 1263.61 L 143.23 1262.30 L 146.30 1261.47 L 149.04 1260.27 L 151.69 1259.73 L 154.96 1258.85 L 157.60 1257.66 L 160.22 1257.18 L 163.54 1255.75 L 166.39 1255.58 L 169.12 1254.18 L 171.95 1253.11 L 175.14 1252.52 L 178.26 1251.44 L 180.92 1250.88 L 184.17 1249.99 L 186.93 1249.53 L 189.42 1248.15 L 192.07 1247.40 L 195.14 1246.65 L 197.79 1245.58 L 201.09 1244.79 L 203.84 1243.40 L 206.99 1242.97 L 209.76 1242.08 L 212.17 1241.11 L 215.03 1240.15 L 218.24 1239.39 L 220.85 1238.15 L 223.56 1237.95 L 226.73 1237.31 L 229.62 1235.64 L 232.53 1234.84 L 235.24 1234.20 L 238.03 1233.34 L 241.08 1232.36 L 244.29 1231.48 L 247.02 1230.70 L 249.69 1229.61 L 252.32 1229.15 L 255.68 1227.72 L 258.01 1227.09 L 260.68 1226.45 L 264.13 1225.64 L 266.75 1224.67 L 269.52 1223.23 L 272.40 1222.88 L 275.75 1221.41 L 278.35 1221.39 L 281.46 1219.88 L 284.20 1218.95 L 286.65 1218.20 L 289.47 1217.72 L 292.44 1216.80 L 295.45 1215.74 L 298.47 1214.79 L 301.14 1213.73 L 304.02 1212.81 L 306.84 1212.52 L 309.52 1211.28 L 312.89 1210.05 L 315.67 1209.28 L 318.55 1208.61 L 321.17 1207.94 L 323.85 1207.13 L 326.94 1206.24 L 330.15 1205.28 L 332.84 1204.31 L 335.52 1203.67 L 338.57 1202.47 L 341.05 1201.52 L 344.41 1200.66 L 347.12 1199.94 L 349.81 1198.98 L 352.57 1197.93 L 355.53 1197.34 L 358.93 1196.41 L 361.38 1195.55 L 364.46 1194.66 L 366.89 1194.19 L 370.24 1193.22 L 373.18 1192.25 L 375.81 1191.32 L 378.68 1190.30 L 381.23 1189.34 L 384.23 1188.49 L 387.55 1187.58 L 389.96 1186.55 L 393.10 1185.75 L 396.13 1185.04 L 398.84 1184.01 L 401.40 1183.13 L 404.62 1182.36 L 407.21 1181.79 L 410.29 1180.50 L 413.57 1179.74 L 416.22 1178.54 L 418.64 1177.96 L 421.60 1177.10 L 424.70 1176.46 L 427.60 1175.65 L 430.29 1174.78 L 433.33 1173.49 L 436.03 1172.27 L 439.05 1171.73 L 442.01 1170.75 L 444.55 1170.00 L 447.57 1169.17 L 450.46 1168.52 L 453.00 1167.74 L 456.33 1166.36 L 459.22 1165.77 L 461.80 1164.84 L 464.83 1164.28 L 467.42 1162.81 L 470.08 1161.95 L 473.65 1161.07 L 476.08 1160.70 L 479.20 1160.01 L 481.99 1158.62 L 484.94 1157.91 L 487.75 1156.79 L 490.39 1156.07 L 493.35 1155.08 L 496.04 1154.19 L 499.54 1153.24 L 502.40 1152.22 L 504.85 1151.41 L 507.74 1150.98 L 510.63 1149.90 L 513.66 1149.01 L 516.45 1148.40 L 519.43 1147.13 L 521.47 1146.00 L 524.99 1145.28 L 527.78 1144.89 L 530.66 1144.31 L 533.89 1143.00 L 536.30 1142.27 L 539.22 1141.01 L 542.42 1139.90 L 545.41 1139.38 L 547.91 1138.40 L 550.50 1137.78 L 553.57 1136.52 L 556.20 1135.94 L 559.12 1134.78 L 561.96 1134.12 L 565.14 1133.16 L 567.51 1132.02 L 570.91 1131.17 L 573.49 1130.05 L 576.76 1129.43 L 579.61 1128.82 L 582.42 1127.96 L 584.70 1127.39 L 588.41 1126.46 L 591.55 1125.21 L 593.73 1124.64 L 596.77 1123.69 L 599.62 1122.45 L 602.52 1121.65 L 605.21 1120.85 L 607.97 1119.98 L 610.73 1119.20 L 613.63 1118.26 L 616.40 1117.39 L 619.49 1116.39 L 622.32 1115.82 L 625.56 1114.48 L 628.39 1113.83 L 631.19 1112.83 L 633.89 1112.22 L 636.58 1110.91 L 639.86 1110.19 L 642.58 1109.50 L 645.22 1108.60 L 648.64 1107.61 L 650.95 1106.79 L 653.80 1105.76 L 656.99 1104.89 L 659.52 1104.02 L 662.43 1103.60 L 666.02 1102.06 L 668.23 1101.59 L 671.05 1100.91 L 674.08 1099.62 L 677.10 1098.69 L 679.72 1098.31 L 682.84 1096.83 L 685.36 1096.74 L 688.75 1095.43 L 691.59 1094.89 L 694.30 1093.47 L 696.91 1092.92 L 699.94 1091.37 L 702.70 1091.27 L 706.26 1089.83 L 708.31 1089.11 L 711.41 1088.22 L 714.65 1087.29 L 717.15 1086.85 L 719.95 1085.42 L 722.96 1084.52 L 725.56 1083.71 L 728.37 1083.02 L 731.48 1082.23 L 734.70 1081.01 L 737.49 1080.71 L 739.84 1079.59 L 742.97 1079.11 L 745.98 1077.42 L 749.02 1077.06 L 751.64 1076.16 L 754.46 1075.15 L 757.28 1074.17 L 760.20 1073.07 L 763.18 1071.90 L 765.57 1071.70 L 768.93 1070.81 L 770.99 1070.29 L 774.73 1068.69 L 777.19 1068.23 L 780.30 1067.67 L 783.29 1066.27 L 786.26 1065.91 L 789.05 1064.62 L 791.80 1064.12 L 794.38 1062.92 L 797.17 1061.78 L 800.47 1061.31 L 802.76 1060.04 L 806.03 1059.18 L 809.49 1058.46 L 811.80 1057.59 L 814.77 1056.62 L 817.34 1055.95 L 820.36 1055.17 L 823.19 1054.10 L 826.93 1052.95 L 829.47 1052.28 L 831.76 1051.47 L 834.94 1050.64 L 837.75 1049.55 L 840.66 1049.23 L 843.70 1047.94 L 846.13 1046.97 L 849.07 1046.26 L 852.21 1045.17 L 855.24 1044.37 L 857.33 1043.36 L 860.75 1042.49 L 863.55 1042.29 L 866.03 1040.73 L 868.99 1039.64 L 872.24 1038.98 L 874.95 1038.42 L 877.76 1037.14 L 880.74 1036.23 L 883.28 1035.92 L 886.35 1034.74 L 889.51 1033.84 L 891.72 1033.30 L 894.78 1031.98 L 897.81 1031.22 L 900.61 1030.02 L 903.33 1029.58 L 906.56 1028.72 L 909.59 1027.80 L 912.32 1026.72 L 915.17 1026.58 L 918.09 1024.95 L 921.29 1023.94 L 923.43 1023.77 L 926.39 1022.70 L 929.48 1021.96 L 932.39 1020.58 L 935.28 1019.90 L 937.48 1019.00 L 941.19 1018.26 L 943.59 1017.19 L 946.86 1016.36 L 949.29 1015.30 L 952.71 1015.12 L 955.57 1013.88 L 958.01 1013.35 L 961.22 1011.96 L 963.85 1011.11 L 966.92 1010.41 L 969.69 1009.39 L 972.15 1008.31 L 975.34 1007.53 L 978.01 1006.63 L 981.24 1006.15 L 984.06 1005.17 L 986.52 1003.82 L 989.44 1003.35 L 992.79 1002.62 L 995.36 1001.45 L 998.24 1000.86 L 1000.00 1000.00 L 1002.87 999.11 L 1005.73 998.23 L 1008.60 997.34 L 1011.47 996.47 L 1014.33 995.58 L 1017.20 994.70 L 1020.08 993.84 L 1022.95 992.98 L 1025.83 992.12 L 1028.70 991.26 L 1031.57 990.40 L 1034.44 989.53 L 1037.32 988.68 L 1040.20 987.83 L 1043.07 986.96 L 1045.94 986.08 L 1048.81 985.21 L 1051.68 984.35 L 1054.55 983.48 L 1057.43 982.62 L 1060.30 981.75 L 1063.17 980.89 L 1066.04 980.02 L 1068.92 979.15 L 1071.79 978.30 L 1074.67 977.45 L 1077.55 976.60 L 1080.42 975.73 L 1083.29 974.85 L 1086.15 973.97 L 1089.01 973.06 L 1091.87 972.15 L 1094.72 971.23 L 1097.58 970.31 L 1100.44 969.40 L 1103.29 968.48 L 1106.15 967.55 L 1109.01 966.65 L 1111.87 965.76 L 1114.74 964.87 L 1117.61 963.98 L 1120.48 963.12 L 1123.35 962.26 L 1126.24 961.43 L 1129.11 960.59 L 1131.99 959.73 L 1134.87 958.88 L 1137.75 958.04 L 1140.62 957.19 L 1143.50 956.33 L 1146.37 955.48 L 1149.25 954.62 L 1152.13 953.78 L 1155.00 952.91 L 1157.88 952.05 L 1160.75 951.21 L 1163.63 950.35 L 1166.50 949.49 L 1169.37 948.63 L 1172.24 947.75 L 1175.10 946.84 L 1177.97 945.95 L 1180.83 945.06 L 1183.70 944.16 L 1186.56 943.28 L 1189.43 942.38 L 1192.29 941.50 L 1195.16 940.62 L 1198.03 939.74 L 1200.90 938.86 L 1203.77 937.99 L 1206.64 937.11 L 1209.50 936.22 L 1212.37 935.34 L 1215.24 934.46 L 1218.11 933.59 L 1220.97 932.70 L 1223.84 931.81 L 1226.70 930.91 L 1229.56 930.01 L 1232.42 929.09 L 1235.27 928.17 L 1238.13 927.26 L 1240.99 926.35 L 1243.85 925.44 L 1246.71 924.54 L 1249.58 923.66 L 1252.45 922.79 L 1255.32 921.92 L 1258.19 921.06 L 1261.07 920.19 L 1263.93 919.31 L 1266.80 918.43 L 1269.67 917.56 L 1272.54 916.68 L 1275.41 915.80 L 1278.27 914.91 L 1281.14 914.01 L 1284.00 913.13 L 1286.88 912.27 L 1289.75 911.41 L 1292.63 910.56 L 1295.50 909.70 L 1298.38 908.86 L 1301.27 908.03 L 1304.15 907.19 L 1307.03 906.37 L 1309.92 905.55 L 1312.80 904.72 L 1315.68 903.88 L 1318.56 903.03 L 1321.44 902.20 L 1324.32 901.37 L 1327.21 900.54 L 1330.09 899.71 L 1332.97 898.88 L 1335.85 898.04 L 1338.73 897.19 L 1341.61 896.35 L 1344.49 895.52 L 1347.37 894.69 L 1350.26 893.86 L 1353.14 893.03 L 1356.02 892.20 L 1358.91 891.37 L 1361.79 890.55 L 1364.67 889.70 L 1367.54 888.84 L 1370.42 887.99 L 1373.30 887.15 L 1376.19 886.33 L 1379.06 885.49 L 1381.94 884.64 L 1384.82 883.80 L 1387.70 882.96 L 1390.58 882.11 L 1393.46 881.28 L 1396.35 880.46 L 1399.23 879.63 L 1402.12 878.80 L 1405.00 877.99 L 1407.89 877.17 L 1410.78 876.35 L 1413.66 875.54 L 1416.55 874.73 L 1419.44 873.93 L 1422.33 873.12 L 1425.22 872.32 L 1428.11 871.52 L 1431.00 870.69 L 1433.89 869.89 L 1436.78 869.10 L 1439.67 868.30 L 1442.56 867.50 L 1445.46 866.70 L 1448.35 865.92 L 1451.25 865.12 L 1454.14 864.35 L 1457.04 863.57 L 1459.94 862.79 L 1462.84 862.02 L 1465.74 861.26 L 1468.64 860.49 L 1471.54 859.72 L 1474.44 858.94 L 1477.34 858.17 L 1480.24 857.40 L 1483.13 856.62 L 1486.03 855.85 L 1488.93 855.09 L 1491.83 854.31 L 1494.73 853.54 L 1497.62 852.75 L 1500.52 851.95 L 1503.40 851.13 L 1506.29 850.32 L 1509.18 849.52 L 1512.07 848.72 L 1514.96 847.91 L 1517.85 847.08 L 1520.73 846.25 L 1523.61 845.42 L 1526.49 844.58 L 1529.37 843.74 L 1532.25 842.90 L 1535.13 842.05 L 1538.00 841.19 L 1540.88 840.33 L 1543.74 839.43 L 1546.60 838.55 L 1549.46 837.64 L 1552.32 836.73 L 1555.18 835.82 L 1558.03 834.89 L 1560.88 833.95 L 1563.73 833.02 L 1566.58 832.09 L 1569.43 831.14 L 1572.28 830.19 L 1575.13 829.25 L 1577.97 828.29 L 1580.81 827.32 L 1583.64 826.34 L 1586.48 825.37 L 1589.32 824.41 L 1592.16 823.44 L 1595.01 822.48 L 1597.85 821.53 L 1600.70 820.58 L 1603.54 819.62 L 1606.38 818.65 L 1609.22 817.68 L 1612.06 816.72 L 1614.90 815.75 L 1617.74 814.80 L 1620.58 813.84 L 1623.43 812.88 L 1626.28 811.94 L 1629.12 810.99 L 1631.97 810.05 L 1634.82 809.12 L 1637.68 808.19 L 1640.53 807.26 L 1643.38 806.33 L 1646.23 805.40 L 1649.09 804.48 L 1651.94 803.56 L 1654.80 802.64 L 1657.66 801.74 L 1660.52 800.83 L 1663.38 799.91 L 1666.23 799.00 L 1669.09 798.07 L 1671.94 797.14 L 1674.79 796.21 L 1677.64 795.28 L 1680.49 794.34 L 1683.34 793.41 L 1686.19 792.46 L 1689.04 791.53 L 1691.89 790.60 L 1694.75 789.67 L 1697.60 788.75 L 1700.45 787.82 L 1703.30 786.89 L 1706.16 785.97 L 1709.01 785.04 L 1711.86 784.10 L 1714.71 783.17 L 1717.57 782.26 L 1720.43 781.33 L 1723.28 780.40 L 1726.13 779.48 L 1728.99 778.56 L 1731.84 777.62 L 1734.69 776.69 L 1737.55 775.78 L 1740.40 774.85 L 1743.25 773.92 L 1746.10 772.99 L 1748.96 772.07 L 1751.81 771.15 L 1754.67 770.23 L 1757.53 769.32 L 1760.38 768.39 L 1763.23 767.45 L 1766.09 766.53 L 1768.95 765.64 L 1771.82 764.76 L 1774.68 763.87 L 1777.55 762.98 L 1780.41 762.07 L 1783.27 761.16 L 1786.12 760.25 L 1788.99 759.35 L 1791.85 758.46 L 1794.72 757.58 L 1797.58 756.69 L 1800.45 755.82 L 1803.33 754.95 L 1806.20 754.08 L 1809.07 753.22 L 1811.95 752.36 L 1814.82 751.49 L 1817.69 750.64 L 1820.57 749.78 L 1823.45 748.94 L 1826.33 748.09 L 1829.21 747.25 L 1832.09 746.42 L 1834.97 745.57 L 1837.85 744.74 L 1840.73 743.91 L 1843.61 743.08 L 1846.50 742.25 L 1849.38 741.42 L 1852.27 740.61 L 1855.15 739.79 L 1858.04 738.99 L 1860.93 738.17 L 1863.82 737.36 L 1866.71 736.56 L 1869.60 735.74 L 1872.48 734.92 L 1875.37 734.10 L 1878.26 733.31 L 1881.16 732.52 L 1884.06 731.76 L 1886.95 730.96 L 1889.84 730.15 L 1892.73 729.34 L 1895.62 728.53 L 1898.51 727.73 L 1901.40 726.93 L 1904.29 726.12 L 1907.17 725.29 L 1910.05 724.45 L 1912.93 723.62 L 1915.81 722.78 L 1918.69 721.92 L 1921.56 721.06 L 1924.44 720.23 L 1927.32 719.38 L 1930.20 718.54 L 1933.08 717.68 L 1935.96 716.84 L 1938.83 715.99 L 1941.71 715.15 L 1944.59 714.30 L 1947.47 713.46 L 1950.35 712.62 L 1953.24 711.80 L 1956.12 710.98 L 1959.01 710.16 L 1961.89 709.33 L 1964.77 708.48 L 1967.65 707.64 L 1970.53 706.81 L 1973.41 705.98 L 1976.30 705.16 L 1979.19 704.34 L 1982.07 703.52 L 1984.95 702.68 L 1987.83 701.83 L 1990.71 700.99 L 1993.59 700.15 L 1996.47 699.32 L 1999.35 698.49 L 2002.24 697.67 L 2005.13 696.85 L 2008.01 696.04 L 2010.90 695.24 L 2013.79 694.43 L 2016.68 693.60 L 2019.56 692.79 L 2022.45 691.98" stroke="rgb(245,245,245)" stroke-opacity="0.705" stroke-width="1.11" />
  <path d="M 1002.00 998.07 L 1004.65 997.25 L 1007.31 996.45 L 1009.95 995.66 L 1012.59 994.87 L 1015.22 994.11 L 1017.85 993.35 L 1020.46 992.61 L 1023.08 991.93 L 1025.72 991.35 L 1028.32 990.71 L 1030.90 990.03 L 1033.48 989.36 L 1036.05 988.71 L 1038.62 988.14 L 1041.19 987.59 L 1043.75 987.03 L 1046.29 986.49 L 1048.83 985.91 L 1051.35 985.34 L 1053.87 984.77 L 1056.37 984.21 L 1058.87 983.66 L 1061.36 983.12 L 1063.84 982.58 L 1066.31 982.14 L 1068.78 981.75 L 1071.23 981.33 L 1073.67 980.95 L 1076.11 980.56 L 1078.52 980.17 L 1080.93 979.76 L 1083.34 979.38 L 1085.74 979.00 L 1088.13 978.57 L 1090.51 978.15 L 1092.88 977.71 L 1095.24 977.25 L 1097.59 976.83 L 1099.95 976.44 L 1102.29 976.02 L 1104.63 975.57 L 1106.95 975.13 L 1109.26 974.69 L 1111.54 974.10" stroke="rgb(140,255,190)" stroke-opacity="0.529" stroke-width="1.11" />
  <path d="M 1049.64 976.85 L 1052.36 976.55 L 1055.06 976.21 L 1057.75 975.88 L 1060.40 975.62 L 1063.07 975.33 L 1065.76 975.04 L 1068.47 974.69 L 1071.18 974.34 L 1073.87 973.98 L 1076.54 973.66 L 1079.22 973.42 L 1081.93 973.24 L 1084.62 973.08 L 1087.30 972.97 L 1089.97 972.83 L 1092.64 972.70 L 1095.30 972.55 L 1097.93 972.43 L 1100.55 972.30 L 1103.16 972.13 L 1105.75 971.94 L 1108.32 971.77 L 1110.86 971.55 L 1113.39 971.35 L 1115.90 971.05 L 1118.39 970.72 L 1120.90 970.41 L 1123.39 970.06 L 1125.88 969.70 L 1128.38 969.42 L 1130.86 969.20 L 1133.34 968.95 L 1135.81 968.72 L 1138.31 968.48 L 1140.81 968.25 L 1143.30 967.96 L 1145.78 967.67 L 1148.26 967.38 L 1150.72 967.13 L 1153.18 966.85 L 1155.63 966.53 L 1158.06 966.23 L 1160.48 965.91" stroke="rgb(140,255,190)" stroke-opacity="0.528" stroke-width="1.11" />
  <path d="M 997.19 1000.46 L 999.79 999.29 L 1002.39 998.13 L 1005.01 997.06 L 1007.62 995.98 L 1010.19 994.87 L 1012.75 993.74 L 1015.30 992.64 L 1017.86 991.56 L 1020.41 990.50 L 1022.94 989.43 L 1025.43 988.31 L 1027.91 987.18 L 1030.38 986.07 L 1032.85 984.97 L 1035.30 983.87 L 1037.71 982.70 L 1040.10 981.48 L 1042.47 980.27 L 1044.87 979.13 L 1047.26 978.00 L 1049.64 976.85 L 1052.01 975.71 L 1054.37 974.57 L 1056.75 973.51 L 1059.12 972.46 L 1061.51 971.48 L 1063.89 970.51 L 1066.27 969.59 L 1068.69 968.76 L 1071.10 967.95 L 1073.49 967.10 L 1075.86 966.26 L 1078.23 965.41 L 1080.59 964.57 L 1082.95 963.79 L 1085.30 963.00 L 1087.67 962.29 L 1090.04 961.62" stroke="rgb(140,255,190)" stroke-opacity="0.528" stroke-width="1.10" />
  <path d="M 998.99 999.96 L 1001.53 999.22 L 1004.04 998.50 L 1006.56 997.80 L 1009.05 997.08 L 1011.53 996.37 L 1014.00 995.66 L 1016.46 994.98 L 1018.89 994.18 L 1021.32 993.43 L 1023.75 992.74 L 1026.16 992.04 L 1028.56 991.32 L 1030.91 990.52 L 1033.26 989.73 L 1035.61 988.95 L 1037.94 988.16 L 1040.26 987.38 L 1042.55 986.58 L 1044.85 985.89 L 1047.15 985.21 L 1049.43 984.47 L 1051.69 983.76 L 1053.96 983.16 L 1056.21 982.56 L 1058.46 982.00 L 1060.73 981.52 L 1062.99 981.03 L 1065.23 980.55 L 1067.47 980.08 L 1069.70 979.58" stroke="rgb(140,255,190)" stroke-opacity="0.528" stroke-width="1.10" />
  <path d="M 1002.94 1001.61 L 1005.44 1001.20 L 1007.92 1000.81 L 1010.40 1000.47 L 1012.85 1000.03 L 1015.26 999.72 L 1017.59 999.37 L 1019.92 999.12 L 1022.22 998.86 L 1024.52 998.62 L 1026.77 998.30 L 1029.08 998.05 L 1031.37 997.81 L 1033.65 997.54 L 1035.95 997.36 L 1038.21 997.12 L 1040.48 996.83 L 1042.74 996.54 L 1045.00 996.28 L 1047.22 995.95 L 1049.43 995.67 L 1051.63 995.39 L 1053.78 995.06 L 1055.98 994.78 L 1058.16 994.51 L 1060.33 994.26 L 1062.49 994.03 L 1064.64 993.81 L 1066.79 993.54 L 1068.93 993.31 L 1071.04 993.05 L 1073.19 992.77 L 1075.35 992.52 L 1077.53 992.36 L 1079.70 992.18 L 1081.87 992.01 L 1084.02 991.82 L 1086.13 991.54" stroke="rgb(205,165,255)" stroke-opacity="0.467" stroke-width="1.10" />
  <path d="M 999.57 997.30 L 1001.89 998.29 L 1004.21 999.26 L 1006.52 1000.31 L 1008.80 1001.35 L 1011.07 1002.38 L 1013.31 1003.45 L 1015.54 1004.53 L 1017.80 1005.51 L 1020.12 1006.34 L 1022.47 1007.07 L 1024.81 1007.83 L 1027.15 1008.55 L 1029.48 1009.30 L 1031.76 1010.10 L 1034.04 1010.91 L 1036.32 1011.65 L 1038.59 1012.40 L 1040.84 1013.19 L 1043.04 1014.00 L 1045.24 1014.82 L 1047.42 1015.70 L 1049.62 1016.58 L 1051.79 1017.50 L 1053.94 1018.43 L 1056.06 1019.40 L 1058.19 1020.32 L 1060.33 1021.19 L 1062.44 1022.05 L 1064.53 1022.87 L 1066.61 1023.73 L 1068.68 1024.60 L 1070.75 1025.47 L 1072.76 1026.43 L 1074.76 1027.39 L 1076.71 1028.39 L 1078.70 1029.33 L 1080.71 1030.27 L 1082.68 1031.23 L 1084.65 1032.25" stroke="rgb(205,165,255)" stroke-opacity="0.466" stroke-width="1.10" />
  <path d="M 998.95 1004.59 L 1001.61 1003.89 L 1004.24 1003.14 L 1006.86 1002.41 L 1009.46 1001.61 L 1012.03 1000.78 L 1014.60 1000.00 L 1017.17 999.25 L 1019.73 998.53 L 1022.28 997.77 L 1024.80 997.02 L 1027.33 996.29 L 1029.88 995.63 L 1032.42 995.03 L 1034.93 994.37 L 1037.43 993.73 L 1039.91 993.05 L 1042.37 992.35 L 1044.82 991.66 L 1047.28 990.98 L 1049.72 990.32 L 1052.15 989.62 L 1054.58 988.94 L 1057.02 988.36 L 1059.45 987.78 L 1061.87 987.20 L 1064.28 986.63 L 1066.68 986.07 L 1069.08 985.51 L 1071.47 985.04 L 1073.85 984.57 L 1076.22 984.08 L 1078.60 983.70 L 1080.97 983.36 L 1083.33 982.95 L 1085.68 982.58 L 1088.02 982.19 L 1090.37 981.91 L 1092.70 981.60 L 1095.02 981.34 L 1097.34 981.12 L 1099.65 980.91 L 1101.94 980.63 L 1104.22 980.36 L 1106.51 980.14 L 1108.80 979.98 L 1111.08 979.82 L 1113.35 979.66 L 1115.60 979.42 L 1117.81 979.04 L 1120.01 978.67 L 1122.19 978.32 L 1124.37 977.97 L 1126.53 977.60 L 1128.67 977.20 L 1130.81 976.80 L 1132.93 976.40 L 1135.04 975.99 L 1137.15 975.64 L 1139.26 975.31" stroke="rgb(140,255,190)" stroke-opacity="0.526" stroke-width="1.10" />
  <path d="M 1044.02 971.95 L 1045.39 970.86 L 1046.71 969.70 L 1047.99 968.47 L 1049.23 967.22 L 1050.45 966.04 L 1051.66 964.87 L 1052.87 963.71 L 1054.12 962.59 L 1055.40 961.47 L 1056.70 960.33 L 1057.99 959.22 L 1059.27 958.11 L 1060.56 957.01 L 1061.96 956.00 L 1063.33 954.98 L 1064.65 954.01 L 1065.93 952.99 L 1067.19 951.97 L 1068.45 950.94 L 1069.62 949.87 L 1070.81 948.84 L 1072.01 947.83 L 1073.20 946.79 L 1074.45 945.81 L 1075.67 944.74 L 1076.89 943.67 L 1078.08 942.57 L 1079.14 941.49 L 1080.13 940.48 L 1081.12 939.46 L 1082.13 938.47 L 1083.09 937.52 L 1084.08 936.52 L 1085.05 935.58 L 1086.08 934.66 L 1087.09 933.76 L 1088.09 932.91 L 1089.10 932.08 L 1090.19 931.21 L 1091.32 930.38 L 1092.42 929.49 L 1093.55 928.54 L 1094.62 927.56 L 1095.81 926.57 L 1096.93 925.56 L 1097.95 924.45 L 1098.91 923.33 L 1099.90 922.18 L 1100.90 921.05 L 1101.89 919.92 L 1102.89 918.77 L 1103.89 917.61 L 1104.85 916.41 L 1105.81 915.23 L 1106.75 914.05 L 1107.72 912.86 L 1108.85 911.69 L 1109.99 910.53" stroke="rgb(140,255,190)" stroke-opacity="0.525" stroke-width="1.09" />
  <path d="M 1063.73 963.57 L 1066.03 962.04 L 1068.36 960.58 L 1070.69 959.11 L 1073.05 957.78 L 1075.43 956.47 L 1077.83 955.16 L 1080.23 953.84 L 1082.65 952.55 L 1085.04 951.29 L 1087.41 949.98 L 1089.76 948.68 L 1092.12 947.39 L 1094.47 946.13 L 1096.80 944.84 L 1099.12 943.51 L 1101.43 942.20 L 1103.76 940.92 L 1106.11 939.73 L 1108.46 938.51 L 1110.76 937.25 L 1112.96 935.87 L 1115.19 934.50 L 1117.45 933.21 L 1119.67 931.89 L 1121.89 930.57 L 1124.13 929.30 L 1126.34 928.00 L 1128.54 926.69 L 1130.70 925.35 L 1132.84 923.99 L 1135.01 922.69 L 1137.20 921.45 L 1139.37 920.21 L 1141.57 919.03 L 1143.74 917.83 L 1145.91 916.63 L 1148.08 915.46 L 1150.25 914.32 L 1152.43 913.20 L 1154.64 912.17 L 1156.88 911.22 L 1159.11 910.28 L 1161.32 909.31 L 1163.51 908.30 L 1165.70 907.32 L 1167.87 906.32 L 1170.04 905.34 L 1172.20 904.37 L 1174.35 903.40 L 1176.53 902.51 L 1178.69 901.61 L 1180.85 900.75 L 1183.01 899.90 L 1185.14 899.03 L 1187.28 898.19 L 1189.41 897.37 L 1191.54 896.54 L 1193.65 895.72 L 1195.76 894.89 L 1197.88 894.15" stroke="rgb(140,255,190)" stroke-opacity="0.523" stroke-width="1.09" />
  <path d="M 1004.19 998.94 L 1006.82 998.34 L 1009.45 997.76 L 1012.07 997.19 L 1014.67 996.60 L 1017.25 995.95 L 1019.83 995.38 L 1022.39 994.81 L 1024.95 994.23 L 1027.50 993.65 L 1030.03 993.05 L 1032.52 992.38 L 1034.99 991.64 L 1037.46 990.93 L 1039.92 990.24 L 1042.37 989.52 L 1044.81 988.82 L 1047.25 988.14 L 1049.69 987.47 L 1052.11 986.77 L 1054.52 986.09 L 1056.95 985.52 L 1059.38 984.96 L 1061.80 984.44 L 1064.21 983.92 L 1066.61 983.39 L 1069.01 982.91 L 1071.41 982.49 L 1073.79 982.10 L 1076.16 981.72 L 1078.53 981.34 L 1080.89 980.95 L 1083.25 980.57 L 1085.61 980.32" stroke="rgb(140,255,190)" stroke-opacity="0.523" stroke-width="1.09" />
  <path d="M 1121.07 991.43 L 1123.77 991.46 L 1126.46 991.43 L 1129.14 991.37 L 1131.80 991.34 L 1134.46 991.29 L 1137.11 991.22 L 1139.74 991.17 L 1142.36 991.14 L 1144.94 991.11 L 1147.51 991.35 L 1150.06 991.65 L 1152.60 992.00 L 1155.12 992.48 L 1157.63 992.89 L 1160.11 993.44 L 1162.58 993.95 L 1165.06 994.40 L 1167.49 994.97 L 1169.91 995.53 L 1172.31 996.12 L 1174.69 996.66 L 1177.07 997.21 L 1179.43 997.67 L 1181.76 998.17 L 1184.07 998.70 L 1186.34 999.18 L 1188.65 999.58 L 1190.97 999.95" stroke="rgb(140,255,190)" stroke-opacity="0.523" stroke-width="1.09" />
  <path d="M 999.57 1000.74 L 1000.58 1002.20 L 1001.62 1003.69 L 1002.62 1005.28 L 1003.58 1006.81 L 1004.58 1008.26 L 1005.58 1009.70 L 1006.58 1011.09 L 1007.57 1012.46 L 1008.64 1013.70 L 1009.70 1014.95 L 1010.80 1016.19 L 1011.86 1017.43 L 1012.98 1018.68 L 1014.20 1019.96 L 1015.41 1021.22 L 1016.59 1022.41 L 1017.84 1023.67 L 1019.00 1024.93 L 1020.22 1026.25 L 1021.43 1027.55 L 1022.65 1028.80 L 1023.87 1030.03 L 1025.14 1031.26 L 1026.49 1032.47 L 1027.80 1033.67 L 1029.08 1034.89 L 1030.33 1036.13 L 1031.59 1037.42 L 1032.92 1038.65 L 1034.24 1039.88 L 1035.48 1041.16 L 1036.70 1042.50 L 1038.03 1043.74 L 1039.34 1044.97 L 1040.62 1046.20 L 1041.92 1047.39 L 1043.16 1048.60 L 1044.41 1049.81 L 1045.61 1050.99 L 1046.79 1052.17 L 1047.98 1053.34 L 1049.13 1054.53 L 1050.28 1055.70 L 1051.45 1056.91 L 1052.61 1058.11 L 1053.77 1059.33 L 1054.92 1060.55 L 1056.09 1061.77 L 1057.24 1062.97 L 1058.37 1064.19 L 1059.49 1065.40 L 1060.59 1066.62 L 1061.67 1067.84 L 1062.80 1069.07 L 1063.92 1070.29 L 1065.03 1071.49 L 1066.12 1072.70 L 1067.19 1073.92 L 1068.25 1075.15 L 1069.32 1076.44 L 1070.35 1077.77 L 1071.37 1079.10 L 1072.31 1080.50 L 1073.18 1081.91" stroke="rgb(205,165,255)" stroke-opacity="0.462" stroke-width="1.08" />
  <path d="M 1002.52 999.90 L 1001.63 1000.56 L 1000.67 1001.21 L 999.69 1001.92 L 998.68 1002.71 L 997.65 1003.52 L 996.67 1004.23 L 995.65 1004.90" stroke="rgb(230,230,230)" stroke-opacity="0.387" stroke-width="0.71" />
  <path d="M 999.20 1002.48 L 1000.04 1003.58 L 1001.10 1004.50 L 1002.15 1005.41 L 1003.09 1006.42 L 1003.95 1007.43" stroke="rgb(230,230,230)" stroke-opacity="0.384" stroke-width="0.71" />
  <path d="M 1001.01 996.20 L 1000.52 995.60 L 999.94 995.03 L 999.50 994.26 L 999.26 993.35 L 998.90 992.42 L 998.54 991.55" stroke="rgb(230,230,230)" stroke-opacity="0.384" stroke-width="0.71" />
  <path d="M 997.30 995.05 L 998.14 994.96 L 999.17 994.92 L 1000.15 994.91 L 1001.11 994.87 L 1002.08 994.82 L 1002.89 994.44 L 1003.69 994.04 L 1004.46 993.58 L 1005.23 993.17 L 1006.01 992.76" stroke="rgb(230,230,230)" stroke-opacity="0.382" stroke-width="0.70" />
  <path d="M 1001.88 1001.56 L 1001.63 1000.36 L 1001.36 999.14 L 1001.08 997.92 L 1000.77 996.72 L 1000.42 995.62 L 1000.11 994.48 L 999.89 993.37 L 999.64 992.27 L 999.34 991.18 L 999.05 990.07 L 998.70 988.95 L 998.35 987.84 L 997.96 986.76 L 997.57 985.68 L 997.17 984.61 L 996.80 983.52 L 996.54 982.41" stroke="rgb(230,230,230)" stroke-opacity="0.380" stroke-width="0.69" />
  <path d="M 1000.16 998.88 L 999.19 998.05 L 998.39 997.10 L 997.82 995.88 L 997.25 994.67 L 996.60 993.52 L 995.95 992.34 L 995.62 990.98 L 995.32 989.62 L 995.11 988.30 L 994.88 987.00" stroke="rgb(230,230,230)" stroke-opacity="0.375" stroke-width="0.68" />
  <path d="M 991.28 998.03 L 991.67 996.70 L 992.01 995.42 L 992.27 994.09 L 992.60 992.78 L 992.85 991.42 L 993.18 990.12 L 993.69 989.11" stroke="rgb(230,230,230)" stroke-opacity="0.374" stroke-width="0.68" />
  <path d="M 992.63 997.92 L 993.05 998.75 L 993.45 999.55 L 993.87 1000.36 L 994.31 1001.04" stroke="rgb(230,230,230)" stroke-opacity="0.369" stroke-width="0.66" />
  <path d="M 1002.00 999.86 L 1000.60 999.69 L 999.20 999.37 L 997.78 999.01 L 996.38 998.66 L 994.98 998.22 L 993.69 997.55 L 992.42 996.97 L 991.42 996.09 L 990.50 995.11 L 989.59 994.14 L 988.79 993.10 L 988.11 992.29" stroke="rgb(230,230,230)" stroke-opacity="0.362" stroke-width="0.64" />
  <path d="M 994.54 992.89 L 994.59 991.42 L 994.76 989.94 L 994.91 988.47 L 994.93 987.00 L 994.95 985.53 L 994.91 984.08 L 994.84 982.62 L 994.67 981.18 L 994.65 979.74" stroke="rgb(230,230,230)" stroke-opacity="0.362" stroke-width="0.64" />
  <path d="M 997.29 998.47 L 996.08 999.10 L 994.88 999.68 L 993.69 1000.24 L 992.47 1000.78 L 991.18 1001.21" stroke="rgb(230,230,230)" stroke-opacity="0.360" stroke-width="0.64" />
  <path d="M 1007.21 996.05 L 1006.11 997.05 L 1005.30 998.24" stroke="rgb(230,230,230)" stroke-opacity="0.360" stroke-width="0.64" />
  <path d="M 1002.86 1002.99 L 1004.29 1002.53 L 1005.71 1002.06 L 1007.11 1001.55 L 1008.50 1001.07 L 1009.91 1000.69 L 1011.30 1000.21 L 1012.64 999.65" stroke="rgb(230,230,230)" stroke-opacity="0.357" stroke-width="0.63" />
  <path d="M 1003.90 997.90 L 1005.21 998.07 L 1006.51 998.23 L 1007.76 998.45 L 1009.00 998.70 L 1010.24 999.03 L 1011.48 999.34 L 1012.64 999.76 L 1013.78 1000.20 L 1015.07 1000.37 L 1016.35 1000.62 L 1017.61 1000.95" stroke="rgb(230,230,230)" stroke-opacity="0.357" stroke-width="0.63" />
  <path d="M 1002.12 997.49 L 1000.68 997.18 L 999.22 996.89" stroke="rgb(230,230,230)" stroke-opacity="0.355" stroke-width="0.62" />
  <path d="M 998.58 996.80 L 999.07 997.32 L 999.60 997.89 L 1000.13 998.48 L 1000.82 999.10 L 1001.46 999.77 L 1002.08 1000.42 L 1002.79 1000.97 L 1003.50 1001.45 L 1004.21 1001.92 L 1004.93 1002.39 L 1005.66 1002.85 L 1006.39 1003.32 L 1007.17 1003.84 L 1007.85 1004.44 L 1008.49 1005.05 L 1009.06 1005.65" stroke="rgb(230,230,230)" stroke-opacity="0.353" stroke-width="0.62" />
  <path d="M 993.78 997.27 L 995.17 997.22 L 996.52 997.09 L 997.81 996.83 L 999.06 996.57 L 1000.31 996.25" stroke="rgb(230,230,230)" stroke-opacity="0.352" stroke-width="0.62" />
  <path d="M 988.62 996.35 L 989.65 995.95 L 990.64 995.52 L 991.57 995.13 L 992.50 994.75 L 993.47 994.37 L 994.53 994.00 L 995.55 993.54 L 996.60 993.09 L 997.61 992.61" stroke="rgb(230,230,230)" stroke-opacity="0.349" stroke-width="0.61" />
</g>
</svg>
