{
  "asset": {
    "version": "2.0",
    "generator": "TES-23 Cosmic Ray Renderer"
  },
  "extensionsUsed": [
    "KHR_materials_unlit"
  ],
  "extensionsRequired": [
    "KHR_materials_unlit"
  ],
  "scene": 0,
  "scenes": [
    {
      "nodes": [
        0
      ]
    }
  ],
  "nodes": [
    {
      "name": "CosmicRayEvent",
      "mesh": 0
    }
  ],
  "meshes": [
    {
      "name": "CosmicRayEvent",
      "primitives": [
        {
          "attributes": {
            "POSITION": 0
          },
          "material": 0,
          "mode": 1
        },
        {
          "attributes": {
            "POSITION": 1
          },
          "material": 1,
          "mode": 1
        },
        {
          "attributes": {
            "POSITION": 2
          },
          "material": 2,
          "mode": 1
        },
        {
          "attributes": {
            "POSITION": 3
          },
          "material": 3,
          "mode": 1
        },
        {
          "attributes": {
            "POSITION": 4
          },
          "material": 4,
          "mode": 1
        }
      ]
    }
  ],
  "materials": [
    {
      "name": "primary",
      "extensions": {
        "KHR_materials_unlit": {}
      },
      "pbrMetallicRoughness": {
        "baseColorFactor": [
          0.961,
          0.961,
          0.961,
          1
        ],
        "metallicFactor": 0,
        "roughnessFactor": 1
      }
    },
    {
      "name": "vertex",
      "extensions": {
        "KHR_materials_unlit": {}
      },
      "pbrMetallicRoughness": {
        "baseColorFactor": [
          0.902,
          0.902,
          0.902,
          0.9
        ],
        "metallicFactor": 0,
        "roughnessFactor": 1
      }
    },
    {
      "name": "em",
      "extensions": {
        "KHR_materials_unlit": {}
      },
      "pbrMetallicRoughness": {
        "baseColorFactor": [
          0.471,
          0.824,
          1,
          1
        ],
        "metallicFactor": 0,
        "roughnessFactor": 1
      }
    },
    {
      "name": "hadron",
      "extensions": {
        "KHR_materials_unlit": {}
      },
      "pbrMetallicRoughness": {
        "baseColorFactor": [
          0.549,
          1,
          0.745,
          1
        ],
        "metallicFactor": 0,
        "roughnessFactor": 1
      }
    },
    {
      "name": "delta",
      "extensions": {
        "KHR_materials_unlit": {}
      },
      "pbrMetallicRoughness": {
        "baseColorFactor": [
          0.804,
          0.647,
          1,
          1
        ],
        "metallicFactor": 0,
        "roughnessFactor": 1
      }
    }
  ],
  "accessors": [
    {
      "bufferView": 0,
      "byteOffset": 0,
      "componentType": 5126,
      "count": 1466,
      "type": "VEC3",
      "min": [
        -0.9999919533729553,
        -0.4222142994403839,
        0
      ],
      "max": [
        1.022079586982727,
        0.44043058156967163,
        0
      ]
    },
    {
      "bufferView": 1,
      "byteOffset": 0,
      "componentType": 5126,
      "count": 322,
      "type": "VEC3",
      "min": [
        -0.017223244532942772,
        -0.016616249457001686,
        -0.07095925509929657
      ],
      "max": [
        0.02522841840982437,
        0.015189887024462223,
        0.06261605769395828
      ]
    },
    {
      "bufferView": 2,
      "byteOffset": 0,
      "componentType": 5126,
      "count": 1358,
      "type": "VEC3",
      "min": [
        -0.004515294451266527,
        -0.004041032399982214,
        -0.16886326670646667
      ],
      "max": [
        0.32182765007019043,
        0.17215918004512787,
        0.04253161698579788
      ]
    },
    {
      "bufferView": 3,
      "byteOffset": 0,
      "componentType": 5126,
      "count": 3894,
      "type": "VEC3",
      "min": [
        -0.0026677241548895836,
        -0.002430765423923731,
        -0.3881749212741852
      ],
      "max": [
        0.3617600202560425,
        0.21600057184696198,
        0.5259336829185486
      ]
    },
    {
      "bufferView": 4,
      "byteOffset": 0,
      "componentType": 5126,
      "count": 1336,
      "type": "VEC3",
      "min": [
        -0.04748490825295448,
        -0.2135515958070755,
        -0.7549598217010498
      ],
      "max": [
        0.15072117745876312,
        0.051377229392528534,
        0.6928237676620483
      ]
    }
  ],
  "bufferViews": [
    {
      "buffer": 0,
      "byteOffset": 0,
      "byteLength": 17592,
      "target": 34962
    },
    {
      "buffer": 0,
      "byteOffset": 17592,
      "byteLength": 3864,
      "target": 34962
    },
    {
      "buffer": 0,
      "byteOffset": 21456,
      "byteLength": 16296,
      "target": 34962
    },
    {
      "buffer": 0,
      "byteOffset": 37752,
      "byteLength": 46728,
      "target": 34962
    },
    {
      "buffer": 0,
      "byteOffset": 84480,
      "byteLength": 16032,
      "target": 34962
    }
  ],
  "buffers": [
    {
      "byteLength": 100512,
      "uri": "data:application/octet-stream;base64,"
    }
  ]
}