{
  "asset": {
    "version": "2.0",
    "generator": "TES-23 Cosmic Ray Renderer"
  },
  "extensionsUsed": [
    "KHR_materials_unlit"
  ],
  "extensionsRequired": [
    "KHR_materials_unlit"
  ],
  "scene": 0,
  "scenes": [
    {
      "nodes": [
        0
      ]
    }
  ],
  "nodes": [
    {
      "name": "CosmicRayEvent",
      "mesh": 0
    }
  ],
  "meshes": [
    {
      "name": "CosmicRayEvent",
      "primitives": [
        {
          "attributes": {
            "POSITION": 0
          },
          "material": 0,
          "mode": 1
        },
        {
          "attributes": {
            "POSITION": 1
          },
          "material": 1,
          "mode": 1
        },
        {
          "attributes": {
            "POSITION": 2
          },
          "material": 2,
          "mode": 1
        }
      ]
    }
  ],
  "materials": [
    {
      "name": "primary",
      "extensions": {
        "KHR_materials_unlit": {}
      },
      "pbrMetallicRoughness": {
        "baseColorFactor": [
          0.961,
          0.961,
          0.961,
          1
        ],
        "metallicFactor": 0,
        "roughnessFactor": 1
      }
    },
    {
      "name": "vertex",
      "extensions": {
        "KHR_materials_unlit": {}
      },
      "pbrMetallicRoughness": {
        "baseColorFactor": [
          0.902,
          0.902,
          0.902,
          0.9
        ],
        "metallicFactor": 0,
        "roughnessFactor": 1
      }
    },
    {
      "name": "em",
      "extensions": {
        "KHR_materials_unlit": {}
      },
      "pbrMetallicRoughness": {
        "baseColorFactor": [
          0.471,
          0.824,
          1,
          1
        ],
        "metallicFactor": 0,
        "roughnessFactor": 1
      }
    }
  ],
  "accessors": [
    {
      "bufferView": 0,
      "byteOffset": 0,
      "componentType": 5126,
      "count": 1450,
      "type": "VEC3",
      "min": [
        -1.020224690437317,
        -0.34343966841697693,
        0
      ],
      "max": [
        0.9999393820762634,
        0.3818944990634918,
        0
      ]
    },
    {
      "bufferView": 1,
      "byteOffset": 0,
      "componentType": 5126,
      "count": 286,
      "type": "VEC3",
      "min": [
        -0.02105151116847992,
        -0.015814244747161865,
        -0.05126212537288666
      ],
      "max": [
        0.011725375428795815,
        0.012037818320095539,
        0.0947609692811966
      ]
    },
    {
      "bufferView": 2,
      "byteOffset": 0,
      "componentType": 5126,
      "count": 804,
      "type": "VEC3",
      "min": [
        -0.20407795906066895,
        -0.003351433202624321,
        -0.063731350004673
      ],
      "max": [
        0.0038324303459376097,
        0.13651269674301147,
        0.1612376868724823
      ]
    }
  ],
  "bufferViews": [
    {
      "buffer": 0,
      "byteOffset": 0,
      "byteLength": 17400,
      "target": 34962
    },
    {
      "buffer": 0,
      "byteOffset": 17400,
      "byteLength": 3432,
      "target": 34962
    },
    {
      "buffer": 0,
      "byteOffset": 20832,
      "byteLength": 9648,
      "target": 34962
    }
  ],
  "buffers": [
    {
      "byteLength": 30480,
      "uri": "data:application/octet-stream;base64,"
    }
  ]
}