{
  "asset": {
    "version": "2.0",
    "generator": "TES-23 Cosmic Ray Renderer"
  },
  "extensionsUsed": [
    "KHR_materials_unlit"
  ],
  "extensionsRequired": [
    "KHR_materials_unlit"
  ],
  "scene": 0,
  "scenes": [
    {
      "nodes": [
        0
      ]
    }
  ],
  "nodes": [
    {
      "name": "CosmicRayEvent",
      "mesh": 0
    }
  ],
  "meshes": [
    {
      "name": "CosmicRayEvent",
      "primitives": [
        {
          "attributes": {
            "POSITION": 0
          },
          "material": 0,
          "mode": 1
        },
        {
          "attributes": {
            "POSITION": 1
          },
          "material": 1,
          "mode": 1
        },
        {
          "attributes": {
            "POSITION": 2
          },
          "material": 2,
          "mode": 1
        },
        {
          "attributes": {
            "POSITION": 3
          },
          "material": 3,
          "mode": 1
        },
        {
          "attributes": {
            "POSITION": 4
          },
          "material": 4,
          "mode": 1
        }
      ]
    }
  ],
  "materials": [
    {
      "name": "primary",
      "extensions": {
        "KHR_materials_unlit": {}
      },
      "pbrMetallicRoughness": {
        "baseColorFactor": [
          0.961,
          0.961,
          0.961,
          1
        ],
        "metallicFactor": 0,
        "roughnessFactor": 1
      }
    },
    {
      "name": "vertex",
      "extensions": {
        "KHR_materials_unlit": {}
      },
      "pbrMetallicRoughness": {
        "baseColorFactor": [
          0.902,
          0.902,
          0.902,
          0.9
        ],
        "metallicFactor": 0,
        "roughnessFactor": 1
      }
    },
    {
      "name": "em",
      "extensions": {
        "KHR_materials_unlit": {}
      },
      "pbrMetallicRoughness": {
        "baseColorFactor": [
          0.471,
          0.824,
          1,
          1
        ],
        "metallicFactor": 0,
        "roughnessFactor": 1
      }
    },
    {
      "name": "hadron",
      "extensions": {
        "KHR_materials_unlit": {}
      },
      "pbrMetallicRoughness": {
        "baseColorFactor": [
          0.549,
          1,
          0.745,
          1
        ],
        "metallicFactor": 0,
        "roughnessFactor": 1
      }
    },
    {
      "name": "delta",
      "extensions": {
        "KHR_materials_unlit": {}
      },
      "pbrMetallicRoughness": {
        "baseColorFactor": [
          0.804,
          0.647,
          1,
          1
        ],
        "metallicFactor": 0,
        "roughnessFactor": 1
      }
    }
  ],
  "accessors": [
    {
      "bufferView": 0,
      "byteOffset": 0,
      "componentType": 5126,
      "count": 1416,
      "type": "VEC3",
      "min": [
        -0.300354927778244,
        -0.9998009204864502,
        0
      ],
      "max": [
        0.3358122408390045,
        1.0225754976272583,
        0
      ]
    },
    {
      "bufferView": 1,
      "byteOffset": 0,
      "componentType": 5126,
      "count": 282,
      "type": "VEC3",
      "min": [
        -0.017741873860359192,
        -0.011638102121651173,
        -0.057760365307331085
      ],
      "max": [
        0.012634758837521076,
        0.020263202488422394,
        0.02697134204208851
      ]
    },
    {
      "bufferView": 2,
      "byteOffset": 0,
      "componentType": 5126,
      "count": 1086,
      "type": "VEC3",
      "min": [
        -0.004581798333674669,
        -0.006353260949254036,
        -0.16811099648475647
      ],
      "max": [
        0.08137846738100052,
        0.2582113742828369,
        0.12695464491844177
      ]
    },
    {
      "bufferView": 3,
      "byteOffset": 0,
      "componentType": 5126,
      "count": 3096,
      "type": "VEC3",
      "min": [
        -0.03822937607765198,
        -0.0028085773810744286,
        -0.7545623779296875
      ],
      "max": [
        0.13236749172210693,
        0.35122135281562805,
        0.9378008842468262
      ]
    },
    {
      "bufferView": 4,
      "byteOffset": 0,
      "componentType": 5126,
      "count": 650,
      "type": "VEC3",
      "min": [
        -0.239627406001091,
        -0.009641171433031559,
        -0.2382740080356598
      ],
      "max": [
        0.09054695069789886,
        0.1964477151632309,
        0.28429803252220154
      ]
    }
  ],
  "bufferViews": [
    {
      "buffer": 0,
      "byteOffset": 0,
      "byteLength": 16992,
      "target": 34962
    },
    {
      "buffer": 0,
      "byteOffset": 16992,
      "byteLength": 3384,
      "target": 34962
    },
    {
      "buffer": 0,
      "byteOffset": 20376,
      "byteLength": 13032,
      "target": 34962
    },
    {
      "buffer": 0,
      "byteOffset": 33408,
      "byteLength": 37152,
      "target": 34962
    },
    {
      "buffer": 0,
      "byteOffset": 70560,
      "byteLength": 7800,
      "target": 34962
    }
  ],
  "buffers": [
    {
      "byteLength": 78360,
      "uri": "data:application/octet-stream;base64,"
    }
  ]
}