{
  "asset": {
    "version": "2.0",
    "generator": "TES-23 Cosmic Ray Renderer"
  },
  "extensionsUsed": [
    "KHR_materials_unlit"
  ],
  "extensionsRequired": [
    "KHR_materials_unlit"
  ],
  "scene": 0,
  "scenes": [
    {
      "nodes": [
        0
      ]
    }
  ],
  "nodes": [
    {
      "name": "CosmicRayEvent",
      "mesh": 0
    }
  ],
  "meshes": [
    {
      "name": "CosmicRayEvent",
      "primitives": [
        {
          "attributes": {
            "POSITION": 0
          },
          "material": 0,
          "mode": 1
        },
        {
          "attributes": {
            "POSITION": 1
          },
          "material": 1,
          "mode": 1
        },
        {
          "attributes": {
            "POSITION": 2
          },
          "material": 2,
          "mode": 1
        }
      ]
    }
  ],
  "materials": [
    {
      "name": "primary",
      "extensions": {
        "KHR_materials_unlit": {}
      },
      "pbrMetallicRoughness": {
        "baseColorFactor": [
          0.961,
          0.961,
          0.961,
          1
        ],
        "metallicFactor": 0,
        "roughnessFactor": 1
      }
    },
    {
      "name": "vertex",
      "extensions": {
        "KHR_materials_unlit": {}
      },
      "pbrMetallicRoughness": {
        "baseColorFactor": [
          0.902,
          0.902,
          0.902,
          0.9
        ],
        "metallicFactor": 0,
        "roughnessFactor": 1
      }
    },
    {
      "name": "em",
      "extensions": {
        "KHR_materials_unlit": {}
      },
      "pbrMetallicRoughness": {
        "baseColorFactor": [
          0.471,
          0.824,
          1,
          1
        ],
        "metallicFactor": 0,
        "roughnessFactor": 1
      }
    }
  ],
  "accessors": [
    {
      "bufferView": 0,
      "byteOffset": 0,
      "componentType": 5126,
      "count": 1450,
      "type": "VEC3",
      "min": [
        -0.24666498601436615,
        -0.9999802708625793,
        0
      ],
      "max": [
        0.3972926139831543,
        1.0216747522354126,
        0
      ]
    },
    {
      "bufferView": 1,
      "byteOffset": 0,
      "componentType": 5126,
      "count": 342,
      "type": "VEC3",
      "min": [
        -0.01734660379588604,
        -0.012196498923003674,
        -0.06843894720077515
      ],
      "max": [
        0.011766617186367512,
        0.02059754729270935,
        0.08885128796100616
      ]
    },
    {
      "bufferView": 2,
      "byteOffset": 0,
      "componentType": 5126,
      "count": 2462,
      "type": "VEC3",
      "min": [
        -0.004502530209720135,
        -0.004270703997462988,
        -0.1886979043483734
      ],
      "max": [
        0.19548137485980988,
        0.40867799520492554,
        0.14536847174167633
      ]
    }
  ],
  "bufferViews": [
    {
      "buffer": 0,
      "byteOffset": 0,
      "byteLength": 17400,
      "target": 34962
    },
    {
      "buffer": 0,
      "byteOffset": 17400,
      "byteLength": 4104,
      "target": 34962
    },
    {
      "buffer": 0,
      "byteOffset": 21504,
      "byteLength": 29544,
      "target": 34962
    }
  ],
  "buffers": [
    {
      "byteLength": 51048,
      "uri": "data:application/octet-stream;base64,"
    }
  ]
}