{
  "asset": {
    "version": "2.0",
    "generator": "TES-23 Cosmic Ray Renderer"
  },
  "extensionsUsed": [
    "KHR_materials_unlit"
  ],
  "extensionsRequired": [
    "KHR_materials_unlit"
  ],
  "scene": 0,
  "scenes": [
    {
      "nodes": [
        0
      ]
    }
  ],
  "nodes": [
    {
      "name": "CosmicRayEvent",
      "mesh": 0
    }
  ],
  "meshes": [
    {
      "name": "CosmicRayEvent",
      "primitives": [
        {
          "attributes": {
            "POSITION": 0
          },
          "material": 0,
          "mode": 1
        },
        {
          "attributes": {
            "POSITION": 1
          },
          "material": 1,
          "mode": 1
        },
        {
          "attributes": {
            "POSITION": 2
          },
          "material": 2,
          "mode": 1
        },
        {
          "attributes": {
            "POSITION": 3
          },
          "material": 3,
          "mode": 1
        },
        {
          "attributes": {
            "POSITION": 4
          },
          "material": 4,
          "mode": 1
        }
      ]
    }
  ],
  "materials": [
    {
      "name": "primary",
      "extensions": {
        "KHR_materials_unlit": {}
      },
      "pbrMetallicRoughness": {
        "baseColorFactor": [
          0.961,
          0.961,
          0.961,
          1
        ],
        "metallicFactor": 0,
        "roughnessFactor": 1
      }
    },
    {
      "name": "vertex",
      "extensions": {
        "KHR_materials_unlit": {}
      },
      "pbrMetallicRoughness": {
        "baseColorFactor": [
          0.902,
          0.902,
          0.902,
          0.9
        ],
        "metallicFactor": 0,
        "roughnessFactor": 1
      }
    },
    {
      "name": "em",
      "extensions": {
        "KHR_materials_unlit": {}
      },
      "pbrMetallicRoughness": {
        "baseColorFactor": [
          0.471,
          0.824,
          1,
          1
        ],
        "metallicFactor": 0,
        "roughnessFactor": 1
      }
    },
    {
      "name": "hadron",
      "extensions": {
        "KHR_materials_unlit": {}
      },
      "pbrMetallicRoughness": {
        "baseColorFactor": [
          0.549,
          1,
          0.745,
          1
        ],
        "metallicFactor": 0,
        "roughnessFactor": 1
      }
    },
    {
      "name": "delta",
      "extensions": {
        "KHR_materials_unlit": {}
      },
      "pbrMetallicRoughness": {
        "baseColorFactor": [
          0.804,
          0.647,
          1,
          1
        ],
        "metallicFactor": 0,
        "roughnessFactor": 1
      }
    }
  ],
  "accessors": [
    {
      "bufferView": 0,
      "byteOffset": 0,
      "componentType": 5126,
      "count": 1384,
      "type": "VEC3",
      "min": [
        -1.0211840867996216,
        -0.22970014810562134,
        0
      ],
      "max": [
        0.9997818470001221,
        0.23089048266410828,
        0
      ]
    },
    {
      "bufferView": 1,
      "byteOffset": 0,
      "componentType": 5126,
      "count": 750,
      "type": "VEC3",
      "min": [
        -0.018887436017394066,
        -0.016040431335568428,
        -0.08095873147249222
      ],
      "max": [
        0.02549898624420166,
        0.015210128389298916,
        0.07264214009046555
      ]
    },
    {
      "bufferView": 2,
      "byteOffset": 0,
      "componentType": 5126,
      "count": 1062,
      "type": "VEC3",
      "min": [
        -0.2481296956539154,
        -0.003262048354372382,
        -0.06577771157026291
      ],
      "max": [
        0.004312433768063784,
        0.0516279935836792,
        0.05790261924266815
      ]
    },
    {
      "bufferView": 3,
      "byteOffset": 0,
      "componentType": 5126,
      "count": 5894,
      "type": "VEC3",
      "min": [
        -0.2711995244026184,
        -0.009293504990637302,
        -0.349711149930954
      ],
      "max": [
        0.0033560837619006634,
        0.2129148542881012,
        0.5914658904075623
      ]
    },
    {
      "bufferView": 4,
      "byteOffset": 0,
      "componentType": 5126,
      "count": 1504,
      "type": "VEC3",
      "min": [
        -0.1427634209394455,
        -0.09697137027978897,
        -0.2418804168701172
      ],
      "max": [
        0.115790955722332,
        0.10598950833082199,
        0.7275699377059937
      ]
    }
  ],
  "bufferViews": [
    {
      "buffer": 0,
      "byteOffset": 0,
      "byteLength": 16608,
      "target": 34962
    },
    {
      "buffer": 0,
      "byteOffset": 16608,
      "byteLength": 9000,
      "target": 34962
    },
    {
      "buffer": 0,
      "byteOffset": 25608,
      "byteLength": 12744,
      "target": 34962
    },
    {
      "buffer": 0,
      "byteOffset": 38352,
      "byteLength": 70728,
      "target": 34962
    },
    {
      "buffer": 0,
      "byteOffset": 109080,
      "byteLength": 18048,
      "target": 34962
    }
  ],
  "buffers": [
    {
      "byteLength": 127128,
      "uri": "data:application/octet-stream;base64,"
    }
  ]
}