{
  "asset": {
    "version": "2.0",
    "generator": "TES-23 Cosmic Ray Renderer"
  },
  "extensionsUsed": [
    "KHR_materials_unlit"
  ],
  "extensionsRequired": [
    "KHR_materials_unlit"
  ],
  "scene": 0,
  "scenes": [
    {
      "nodes": [
        0
      ]
    }
  ],
  "nodes": [
    {
      "name": "CosmicRayEvent",
      "mesh": 0
    }
  ],
  "meshes": [
    {
      "name": "CosmicRayEvent",
      "primitives": [
        {
          "attributes": {
            "POSITION": 0
          },
          "material": 0,
          "mode": 1
        },
        {
          "attributes": {
            "POSITION": 1
          },
          "material": 1,
          "mode": 1
        },
        {
          "attributes": {
            "POSITION": 2
          },
          "material": 2,
          "mode": 1
        },
        {
          "attributes": {
            "POSITION": 3
          },
          "material": 3,
          "mode": 1
        },
        {
          "attributes": {
            "POSITION": 4
          },
          "material": 4,
          "mode": 1
        }
      ]
    }
  ],
  "materials": [
    {
      "name": "primary",
      "extensions": {
        "KHR_materials_unlit": {}
      },
      "pbrMetallicRoughness": {
        "baseColorFactor": [
          0.961,
          0.961,
          0.961,
          1
        ],
        "metallicFactor": 0,
        "roughnessFactor": 1
      }
    },
    {
      "name": "vertex",
      "extensions": {
        "KHR_materials_unlit": {}
      },
      "pbrMetallicRoughness": {
        "baseColorFactor": [
          0.902,
          0.902,
          0.902,
          0.9
        ],
        "metallicFactor": 0,
        "roughnessFactor": 1
      }
    },
    {
      "name": "em",
      "extensions": {
        "KHR_materials_unlit": {}
      },
      "pbrMetallicRoughness": {
        "baseColorFactor": [
          0.471,
          0.824,
          1,
          1
        ],
        "metallicFactor": 0,
        "roughnessFactor": 1
      }
    },
    {
      "name": "hadron",
      "extensions": {
        "KHR_materials_unlit": {}
      },
      "pbrMetallicRoughness": {
        "baseColorFactor": [
          0.549,
          1,
          0.745,
          1
        ],
        "metallicFactor": 0,
        "roughnessFactor": 1
      }
    },
    {
      "name": "delta",
      "extensions": {
        "KHR_materials_unlit": {}
      },
      "pbrMetallicRoughness": {
        "baseColorFactor": [
          0.804,
          0.647,
          1,
          1
        ],
        "metallicFactor": 0,
        "roughnessFactor": 1
      }
    }
  ],
  "accessors": [
    {
      "bufferView": 0,
      "byteOffset": 0,
      "componentType": 5126,
      "count": 1350,
      "type": "VEC3",
      "min": [
        -0.015201269648969173,
        -0.9999778866767883,
        0
      ],
      "max": [
        0.013233182020485401,
        1.0227131843566895,
        0
      ]
    },
    {
      "bufferView": 1,
      "byteOffset": 0,
      "componentType": 5126,
      "count": 266,
      "type": "VEC3",
      "min": [
        -0.013076536357402802,
        -0.014958247542381287,
        -0.04632015526294708
      ],
      "max": [
        0.013927822932600975,
        0.014735107310116291,
        0.058215267956256866
      ]
    },
    {
      "bufferView": 2,
      "byteOffset": 0,
      "componentType": 5126,
      "count": 1010,
      "type": "VEC3",
      "min": [
        -0.029554693028330803,
        -0.001540963421575725,
        -0.015377399511635303
      ],
      "max": [
        0.035097386687994,
        0.27333977818489075,
        0.08430518954992294
      ]
    },
    {
      "bufferView": 3,
      "byteOffset": 0,
      "componentType": 5126,
      "count": 1974,
      "type": "VEC3",
      "min": [
        -0.1558237373828888,
        -0.0026347709354013205,
        -0.26146119832992554
      ],
      "max": [
        0.03382842242717743,
        0.3935214877128601,
        0.1753249168395996
      ]
    },
    {
      "bufferView": 4,
      "byteOffset": 0,
      "componentType": 5126,
      "count": 638,
      "type": "VEC3",
      "min": [
        -0.10864069312810898,
        -0.07954515516757965,
        -0.1758657693862915
      ],
      "max": [
        0.10107876360416412,
        0.13784454762935638,
        0.35306516289711
      ]
    }
  ],
  "bufferViews": [
    {
      "buffer": 0,
      "byteOffset": 0,
      "byteLength": 16200,
      "target": 34962
    },
    {
      "buffer": 0,
      "byteOffset": 16200,
      "byteLength": 3192,
      "target": 34962
    },
    {
      "buffer": 0,
      "byteOffset": 19392,
      "byteLength": 12120,
      "target": 34962
    },
    {
      "buffer": 0,
      "byteOffset": 31512,
      "byteLength": 23688,
      "target": 34962
    },
    {
      "buffer": 0,
      "byteOffset": 55200,
      "byteLength": 7656,
      "target": 34962
    }
  ],
  "buffers": [
    {
      "byteLength": 62856,
      "uri": "data:application/octet-stream;base64,"
    }
  ]
}