{
  "asset": {
    "version": "2.0",
    "generator": "TES-23 Cosmic Ray Renderer"
  },
  "extensionsUsed": [
    "KHR_materials_unlit"
  ],
  "extensionsRequired": [
    "KHR_materials_unlit"
  ],
  "scene": 0,
  "scenes": [
    {
      "nodes": [
        0
      ]
    }
  ],
  "nodes": [
    {
      "name": "CosmicRayEvent",
      "mesh": 0
    }
  ],
  "meshes": [
    {
      "name": "CosmicRayEvent",
      "primitives": [
        {
          "attributes": {
            "POSITION": 0
          },
          "material": 0,
          "mode": 1
        },
        {
          "attributes": {
            "POSITION": 1
          },
          "material": 1,
          "mode": 1
        },
        {
          "attributes": {
            "POSITION": 2
          },
          "material": 2,
          "mode": 1
        },
        {
          "attributes": {
            "POSITION": 3
          },
          "material": 3,
          "mode": 1
        },
        {
          "attributes": {
            "POSITION": 4
          },
          "material": 4,
          "mode": 1
        },
        {
          "attributes": {
            "POSITION": 5
          },
          "material": 5,
          "mode": 1
        }
      ]
    }
  ],
  "materials": [
    {
      "name": "primary",
      "extensions": {
        "KHR_materials_unlit": {}
      },
      "pbrMetallicRoughness": {
        "baseColorFactor": [
          0.961,
          0.961,
          0.961,
          1
        ],
        "metallicFactor": 0,
        "roughnessFactor": 1
      }
    },
    {
      "name": "vertex",
      "extensions": {
        "KHR_materials_unlit": {}
      },
      "pbrMetallicRoughness": {
        "baseColorFactor": [
          0.902,
          0.902,
          0.902,
          0.9
        ],
        "metallicFactor": 0,
        "roughnessFactor": 1
      }
    },
    {
      "name": "em",
      "extensions": {
        "KHR_materials_unlit": {}
      },
      "pbrMetallicRoughness": {
        "baseColorFactor": [
          0.471,
          0.824,
          1,
          1
        ],
        "metallicFactor": 0,
        "roughnessFactor": 1
      }
    },
    {
      "name": "hadron",
      "extensions": {
        "KHR_materials_unlit": {}
      },
      "pbrMetallicRoughness": {
        "baseColorFactor": [
          0.549,
          1,
          0.745,
          1
        ],
        "metallicFactor": 0,
        "roughnessFactor": 1
      }
    },
    {
      "name": "delta",
      "extensions": {
        "KHR_materials_unlit": {}
      },
      "pbrMetallicRoughness": {
        "baseColorFactor": [
          0.804,
          0.647,
          1,
          1
        ],
        "metallicFactor": 0,
        "roughnessFactor": 1
      }
    },
    {
      "name": "backscatter",
      "extensions": {
        "KHR_materials_unlit": {}
      },
      "pbrMetallicRoughness": {
        "baseColorFactor": [
          1,
          0.824,
          0.529,
          0.95
        ],
        "metallicFactor": 0,
        "roughnessFactor": 1
      }
    }
  ],
  "accessors": [
    {
      "bufferView": 0,
      "byteOffset": 0,
      "componentType": 5126,
      "count": 1722,
      "type": "VEC3",
      "min": [
        -0.7994253635406494,
        -1.0005165338516235,
        0
      ],
      "max": [
        0.8080778121948242,
        1.0206025838851929,
        0
      ]
    },
    {
      "bufferView": 1,
      "byteOffset": 0,
      "componentType": 5126,
      "count": 322,
      "type": "VEC3",
      "min": [
        -0.013128778897225857,
        -0.024145642295479774,
        -0.05817580223083496
      ],
      "max": [
        0.012401487678289413,
        0.01870090328156948,
        0.05731147527694702
      ]
    },
    {
      "bufferView": 2,
      "byteOffset": 0,
      "componentType": 5126,
      "count": 1156,
      "type": "VEC3",
      "min": [
        -0.0023556144442409277,
        -0.0032501392997801304,
        -0.04645509272813797
      ],
      "max": [
        0.1700279414653778,
        0.20776094496250153,
        0.04823782667517662
      ]
    },
    {
      "bufferView": 3,
      "byteOffset": 0,
      "componentType": 5126,
      "count": 3286,
      "type": "VEC3",
      "min": [
        -0.2556789815425873,
        -0.24409644305706024,
        -1.1153934001922607
      ],
      "max": [
        0.1962660253047943,
        0.25580039620399475,
        0.41596391797065735
      ]
    },
    {
      "bufferView": 4,
      "byteOffset": 0,
      "componentType": 5126,
      "count": 1404,
      "type": "VEC3",
      "min": [
        -0.21984446048736572,
        -0.06888744235038757,
        -0.7170307636260986
      ],
      "max": [
        0.23938433825969696,
        0.1859508603811264,
        0.6852701306343079
      ]
    },
    {
      "bufferView": 5,
      "byteOffset": 0,
      "componentType": 5126,
      "count": 514,
      "type": "VEC3",
      "min": [
        -0.06567725539207458,
        -0.11101025342941284,
        -0.2393060028553009
      ],
      "max": [
        0.06174704059958458,
        0.12197402864694595,
        0.21305568516254425
      ]
    }
  ],
  "bufferViews": [
    {
      "buffer": 0,
      "byteOffset": 0,
      "byteLength": 20664,
      "target": 34962
    },
    {
      "buffer": 0,
      "byteOffset": 20664,
      "byteLength": 3864,
      "target": 34962
    },
    {
      "buffer": 0,
      "byteOffset": 24528,
      "byteLength": 13872,
      "target": 34962
    },
    {
      "buffer": 0,
      "byteOffset": 38400,
      "byteLength": 39432,
      "target": 34962
    },
    {
      "buffer": 0,
      "byteOffset": 77832,
      "byteLength": 16848,
      "target": 34962
    },
    {
      "buffer": 0,
      "byteOffset": 94680,
      "byteLength": 6168,
      "target": 34962
    }
  ],
  "buffers": [
    {
      "byteLength": 100848,
      "uri": "data:application/octet-stream;base64,"
    }
  ]
}