<?xml version="1.0" encoding="UTF-8"?>
<svg xmlns="http://www.w3.org/2000/svg" width="2000" height="2000" viewBox="0 0 2000 2000">
<g fill="none" stroke-linecap="round" stroke-linejoin="round">
  <path d="M 997.37 998.58 L 995.79 995.58 L 994.19 992.61 L 992.59 989.64 L 991.01 986.69 L 989.35 983.79 L 987.69 980.91" stroke="rgb(120,210,255)" stroke-opacity="0.851" stroke-width="1.63" />
  <path d="M 1001.67 1004.34 L 1000.26 1001.72 L 998.82 999.12 L 997.41 996.52 L 996.02 993.93 L 994.59 991.36 L 993.17 988.81 L 991.76 986.26 L 990.47 983.67 L 989.18 981.09 L 987.86 978.54 L 986.50 976.01 L 985.15 973.50 L 983.81 971.00 L 982.53 968.48 L 981.25 965.97" stroke="rgb(120,210,255)" stroke-opacity="0.467" stroke-width="1.62" />
  <path d="M 1002.60 1002.23 L 1000.55 999.48 L 998.50 996.75 L 996.45 994.03 L 994.38 991.35 L 992.34 988.66 L 990.32 985.97 L 988.32 983.29 L 986.32 980.61 L 984.32 977.96 L 982.32 975.32 L 980.35 972.69 L 978.34 970.09 L 976.34 967.50 L 974.35 964.92 L 972.36 962.36 L 970.38 959.81 L 968.42 957.25 L 966.45 954.73 L 964.49 952.21 L 962.54 949.70" stroke="rgb(120,210,255)" stroke-opacity="0.843" stroke-width="1.60" />
  <path d="M 996.60 997.82 L 995.22 995.32 L 993.83 992.84 L 992.40 990.39 L 991.04 987.92 L 989.69 985.44 L 988.33 983.00 L 987.02 980.53 L 985.76 978.05 L 984.54 975.57 L 983.37 973.08 L 982.26 970.57 L 981.17 968.06 L 980.09 965.56 L 979.01 963.07 L 977.93 960.59 L 976.82 958.15 L 975.70 955.72 L 974.53 953.32 L 973.31 950.97 L 972.09 948.63 L 970.95 946.25 L 969.85 943.88 L 968.75 941.50 L 967.62 939.15 L 966.46 936.83 L 965.30 934.51 L 964.11 932.23 L 962.90 929.97 L 961.71 927.71 L 960.53 925.46 L 959.31 923.24 L 958.09 921.03 L 956.94 918.79 L 955.78 916.57 L 954.57 914.39 L 953.34 912.23" stroke="rgb(120,210,255)" stroke-opacity="0.463" stroke-width="1.60" />
  <path d="M 1001.34 1002.22 L 999.77 999.31 L 998.16 996.44 L 996.57 993.57 L 994.99 990.72 L 993.44 987.87 L 991.94 985.00 L 990.48 982.13 L 989.11 979.23 L 987.67 976.37 L 986.23 973.53 L 984.78 970.70 L 983.35 967.88 L 981.92 965.07 L 980.47 962.29 L 978.99 959.54 L 977.52 956.81 L 976.04 954.09 L 974.57 951.38 L 973.09 948.69 L 971.60 946.01 L 970.12 943.35 L 968.64 940.70 L 967.15 938.07 L 965.67 935.45 L 964.21 932.83 L 962.75 930.22 L 961.27 927.64 L 959.74 925.10 L 958.24 922.55 L 956.75 920.02 L 955.28 917.49 L 953.83 914.96 L 952.34 912.46 L 950.87 909.96 L 949.38 907.50 L 947.91 905.03 L 946.45 902.57 L 944.95 900.14 L 943.43 897.75 L 941.91 895.36 L 940.40 892.98 L 938.92 890.60 L 937.44 888.23 L 935.96 885.87 L 934.48 883.53 L 933.00 881.19" stroke="rgb(120,210,255)" stroke-opacity="0.841" stroke-width="1.60" />
  <path d="M 1000.36 1002.43 L 998.82 1000.10 L 997.21 997.83 L 995.59 995.59 L 993.96 993.36 L 992.36 991.13 L 990.78 988.90 L 989.21 986.67 L 987.65 984.45 L 986.10 982.24 L 984.55 980.04 L 983.05 977.82 L 981.57 975.60 L 980.10 973.38 L 978.58 971.21 L 977.01 969.09 L 975.45 966.97 L 973.96 964.82 L 972.45 962.70 L 970.95 960.58 L 969.49 958.44 L 968.03 956.32 L 966.48 954.28 L 964.87 952.29 L 963.35 950.25 L 961.79 948.25 L 960.31 946.21" stroke="rgb(120,210,255)" stroke-opacity="0.455" stroke-width="1.56" />
  <path d="M 1002.64 998.74 L 1000.65 996.23 L 998.72 993.69 L 996.78 991.17 L 994.83 988.66 L 992.89 986.17 L 990.96 983.68 L 989.05 981.19 L 987.20 978.67 L 985.37 976.16 L 983.52 973.68 L 981.72 971.19 L 979.93 968.70 L 978.14 966.24 L 976.38 963.76 L 974.62 961.29 L 972.87 958.84 L 971.17 956.37 L 969.45 953.93 L 967.79 951.49 L 966.14 949.06 L 964.53 946.62 L 962.93 944.19 L 961.33 941.76 L 959.76 939.33 L 958.18 936.94 L 956.61 934.55 L 955.03 932.18 L 953.46 929.82 L 951.90 927.46 L 950.32 925.12 L 948.74 922.79 L 947.10 920.50 L 945.48 918.23 L 943.91 915.93 L 942.33 913.66 L 940.72 911.39 L 939.10 909.14 L 937.51 906.88 L 935.95 904.60 L 934.39 902.33 L 932.85 900.05 L 931.32 897.79 L 929.76 895.56 L 928.24 893.32 L 926.72 891.09 L 925.22 888.87 L 923.76 886.64 L 922.29 884.42" stroke="rgb(255,210,135)" stroke-opacity="0.649" stroke-width="1.29" />
  <path d="M 1000.33 1000.67 L 997.91 1000.19 L 995.49 999.71 L 993.11 999.28 L 990.79 998.82 L 988.48 998.35 L 986.18 997.82 L 983.90 997.30 L 981.66 996.82 L 979.37 996.28 L 977.05 995.74 L 974.74 995.19 L 972.42 994.69 L 970.12 994.18 L 967.83 993.70 L 965.58 993.19 L 963.31 992.59 L 961.06 992.00 L 958.81 991.41 L 956.58 990.85 L 954.35 990.32 L 952.10 989.85 L 949.84 989.38 L 947.58 988.92 L 945.34 988.47 L 943.08 988.05 L 940.85 987.63 L 938.60 987.25 L 936.37 986.89 L 934.15 986.52 L 931.94 986.15 L 929.69 985.77 L 927.44 985.42 L 925.21 985.00 L 922.96 984.62 L 920.73 984.24 L 918.51 983.90 L 916.29 983.56 L 914.06 983.20 L 911.83 982.86 L 909.61 982.51 L 907.38 982.14 L 905.15 981.75 L 902.93 981.38 L 900.72 981.01 L 898.52 980.66 L 896.30 980.27 L 894.07 979.90 L 891.85 979.44 L 889.63 978.98 L 887.40 978.50" stroke="rgb(255,210,135)" stroke-opacity="0.648" stroke-width="1.29" />
  <path d="M 997.97 1001.05 L 997.26 998.03 L 996.61 995.02 L 995.95 992.04 L 995.31 989.08 L 994.67 986.13 L 994.00 983.20 L 993.32 980.28 L 992.71 977.37 L 992.10 974.47 L 991.49 971.57 L 990.86 968.70 L 990.27 965.81 L 989.72 962.93 L 989.20 960.06 L 988.69 957.19 L 988.18 954.36 L 987.65 951.55 L 987.11 948.77 L 986.59 946.00 L 986.08 943.24 L 985.54 940.48 L 984.99 937.72 L 984.47 934.95 L 983.94 932.18 L 983.40 929.44 L 982.84 926.71 L 982.24 924.01 L 981.62 921.31 L 981.00 918.60 L 980.40 915.90 L 979.80 913.21 L 979.18 910.53 L 978.56 907.84 L 977.97 905.14 L 977.40 902.45 L 976.83 899.78 L 976.25 897.11 L 975.68 894.46 L 975.11 891.82 L 974.58 889.17 L 974.04 886.54 L 973.49 883.92 L 972.97 881.31 L 972.42 878.72 L 971.83 876.15 L 971.24 873.60 L 970.67 871.06 L 970.06 868.54 L 969.49 866.03 L 968.88 863.55 L 968.28 861.09 L 967.68 858.63 L 967.09 856.18 L 966.52 853.75 L 966.00 851.30 L 965.46 848.85 L 964.99 846.41 L 964.47 843.99 L 963.95 841.60 L 963.42 839.19 L 962.87 836.78 L 962.33 834.38 L 961.74 831.98 L 961.17 829.59 L 960.62 827.19 L 960.07 824.81 L 959.53 822.45 L 959.04 820.07 L 958.55 817.70 L 958.05 815.34" stroke="rgb(205,165,255)" stroke-opacity="0.719" stroke-width="1.24" />
  <path d="M 1002.47 999.73 L 1004.87 1000.49 L 1007.26 1001.24 L 1009.64 1001.99 L 1011.99 1002.67 L 1014.36 1003.31 L 1016.69 1004.02 L 1019.02 1004.73 L 1021.42 1005.39 L 1023.83 1005.93 L 1026.21 1006.48 L 1028.59 1007.01 L 1030.97 1007.55 L 1033.29 1008.13 L 1035.59 1008.78 L 1037.88 1009.43 L 1040.16 1010.10 L 1042.44 1010.75 L 1044.76 1011.40 L 1047.10 1011.99 L 1049.45 1012.58 L 1051.82 1013.08 L 1054.17 1013.64 L 1056.51 1014.23 L 1058.85 1014.76 L 1061.18 1015.28 L 1063.46 1015.83 L 1065.72 1016.40 L 1067.97 1016.97 L 1070.22 1017.53 L 1072.45 1018.04 L 1074.67 1018.56 L 1076.89 1019.03 L 1079.11 1019.48 L 1081.32 1019.92 L 1083.53 1020.44 L 1085.74 1020.96 L 1087.95 1021.48 L 1090.14 1021.99" stroke="rgb(255,210,135)" stroke-opacity="0.431" stroke-width="1.23" />
  <path d="M 1000.84 999.13 L 1003.27 998.88 L 1005.71 998.57 L 1008.13 998.26 L 1010.58 997.94 L 1013.00 997.63 L 1015.43 997.33 L 1017.84 997.04 L 1020.22 996.75 L 1022.59 996.46 L 1024.94 996.10 L 1027.26 995.74 L 1029.53 995.42 L 1031.80 995.09" stroke="rgb(255,210,135)" stroke-opacity="0.430" stroke-width="1.23" />
  <path d="M 998.81 1001.23 L 1000.84 1003.42 L 1002.89 1005.60 L 1004.99 1007.69 L 1007.09 1009.77 L 1009.17 1011.84 L 1011.24 1013.91 L 1013.29 1015.99 L 1015.35 1018.04 L 1017.40 1020.07 L 1019.44 1022.13 L 1021.44 1024.21 L 1023.46 1026.25 L 1025.48 1028.27 L 1027.48 1030.31 L 1029.49 1032.32 L 1031.45 1034.36 L 1033.40 1036.40 L 1035.34 1038.42 L 1037.28 1040.43 L 1039.18 1042.48 L 1041.08 1044.51 L 1042.97 1046.53 L 1044.85 1048.55 L 1046.71 1050.57" stroke="rgb(255,210,135)" stroke-opacity="0.428" stroke-width="1.22" />
  <path d="M 998.02 998.11 L 1000.09 1000.10 L 1002.15 1002.09 L 1004.17 1004.09 L 1006.20 1006.08 L 1008.29 1007.98 L 1010.39 1009.84 L 1012.40 1011.79 L 1014.45 1013.68 L 1016.41 1015.64 L 1018.31 1017.65 L 1020.19 1019.66 L 1022.07 1021.67" stroke="rgb(255,210,135)" stroke-opacity="0.427" stroke-width="1.22" />
  <path d="M 981.63 963.89 L 980.36 960.94 L 979.10 958.01 L 977.85 955.08 L 976.62 952.19 L 975.42 949.30 L 974.21 946.42 L 972.99 943.54 L 971.72 940.70 L 970.44 937.87 L 969.15 935.06 L 967.85 932.27 L 966.56 929.49 L 965.26 926.73 L 963.86 924.06 L 962.44 921.40 L 961.04 918.76 L 959.63 916.12 L 958.26 913.49 L 956.90 910.86 L 955.54 908.23 L 954.20 905.61 L 952.86 902.99 L 951.57 900.35 L 950.28 897.73 L 948.98 895.12 L 947.71 892.50 L 946.49 889.87 L 945.23 887.29 L 943.99 884.72 L 942.74 882.16 L 941.54 879.59 L 940.39 877.01 L 939.23 874.44 L 938.07 871.88 L 936.86 869.34 L 935.68 866.80 L 934.49 864.27 L 933.31 861.74 L 932.15 859.20 L 930.92 856.69" stroke="rgb(140,255,190)" stroke-opacity="0.745" stroke-width="1.21" />
  <path d="M 950.17 927.37 L 948.65 925.73 L 947.21 924.04 L 945.78 922.36 L 944.33 920.72 L 942.89 919.09 L 941.45 917.44 L 939.95 915.86 L 938.51 914.28 L 937.10 912.69 L 935.68 911.12 L 934.19 909.64 L 932.70 908.16 L 931.22 906.68 L 929.74 905.20 L 928.28 903.79 L 926.83 902.36 L 925.41 900.90 L 923.99 899.46 L 922.46 898.14 L 920.94 896.86" stroke="rgb(140,255,190)" stroke-opacity="0.557" stroke-width="1.20" />
  <path d="M 997.90 1000.15 L 999.30 1002.48 L 1000.68 1004.79 L 1002.05 1007.11 L 1003.43 1009.42 L 1004.85 1011.69 L 1006.27 1013.95 L 1007.74 1016.15 L 1009.21 1018.34 L 1010.69 1020.52 L 1012.14 1022.70 L 1013.61 1024.85 L 1015.13 1026.93 L 1016.65 1029.00 L 1018.16 1031.08 L 1019.59 1033.20 L 1021.04 1035.30 L 1022.49 1037.41" stroke="rgb(255,210,135)" stroke-opacity="0.423" stroke-width="1.19" />
  <path d="M 995.79 998.04 L 993.76 995.33 L 991.71 992.65 L 989.70 989.97 L 987.70 987.31 L 985.71 984.65 L 983.73 982.01 L 981.75 979.37 L 979.82 976.72 L 977.94 974.05 L 976.06 971.39 L 974.17 968.76 L 972.29 966.13 L 970.45 963.49 L 968.62 960.85 L 966.79 958.24 L 964.97 955.64 L 963.16 953.05 L 961.37 950.46 L 959.58 947.89 L 957.80 945.33 L 956.03 942.78 L 954.27 940.23 L 952.51 937.70 L 950.74 935.19 L 949.00 932.68 L 947.27 930.18 L 945.57 927.66 L 943.88 925.15 L 942.19 922.66 L 940.49 920.19 L 938.80 917.72 L 937.12 915.26 L 935.46 912.80 L 933.78 910.36 L 932.10 907.94 L 930.42 905.54 L 928.76 903.14 L 927.08 900.76 L 925.45 898.37 L 923.83 895.98 L 922.22 893.60 L 920.62 891.22 L 919.03 888.86 L 917.45 886.50 L 915.88 884.14 L 914.32 881.80 L 912.76 879.48 L 911.17 877.19 L 909.60 874.91 L 908.01 872.65 L 906.44 870.39 L 904.89 868.12 L 903.35 865.86 L 901.83 863.60" stroke="rgb(140,255,190)" stroke-opacity="0.738" stroke-width="1.19" />
  <path d="M 981.94 831.73 L 981.74 828.37 L 981.59 825.03 L 981.41 821.69 L 981.21 818.36 L 981.04 815.06 L 980.91 811.75 L 980.78 808.46 L 980.77 805.18 L 980.78 801.90 L 980.72 798.65 L 980.65 795.41 L 980.54 792.18 L 980.43 788.95 L 980.25 785.74 L 979.96 782.56 L 979.66 779.38 L 979.38 776.22 L 979.17 773.06 L 978.97 769.92 L 978.80 766.79 L 978.57 763.69 L 978.25 760.60 L 977.99 757.52 L 977.74 754.46 L 977.46 751.41 L 977.17 748.38 L 976.92 745.36 L 976.71 742.33 L 976.52 739.33 L 976.40 736.33 L 976.28 733.33 L 976.15 730.35 L 976.04 727.39 L 975.91 724.44 L 975.78 721.51 L 975.71 718.59 L 975.59 715.67 L 975.47 712.76" stroke="rgb(140,255,190)" stroke-opacity="0.737" stroke-width="1.19" />
  <path d="M 1003.35 998.34 L 1002.87 999.38 L 1002.38 1000.43 L 1001.90 1001.46 L 1001.48 1002.53 L 1001.06 1003.62 L 1000.64 1004.73 L 1000.24 1005.84 L 999.85 1006.95 L 999.47 1008.06 L 999.08 1009.16 L 998.71 1010.30 L 998.29 1011.52 L 997.90 1012.73 L 997.50 1014.00 L 997.08 1015.28 L 996.65 1016.56 L 996.25 1017.86 L 995.76 1019.21 L 995.24 1020.52 L 994.72 1021.82 L 994.22 1023.13 L 993.59 1024.39 L 992.97 1025.64 L 992.33 1026.86 L 991.72 1028.14 L 991.15 1029.42 L 990.57 1030.70 L 990.02 1032.00 L 989.49 1033.28 L 988.94 1034.52 L 988.40 1035.77 L 987.87 1037.00 L 987.33 1038.24 L 986.77 1039.56 L 986.22 1040.87 L 985.66 1042.17 L 985.05 1043.45 L 984.45 1044.72 L 983.90 1046.07 L 983.34 1047.37 L 982.84 1048.64 L 982.36 1049.85 L 981.92 1051.06" stroke="rgb(205,165,255)" stroke-opacity="0.699" stroke-width="1.19" />
  <path d="M 978.61 969.64 L 976.54 966.99 L 974.51 964.35 L 972.48 961.71 L 970.46 959.08 L 968.45 956.47 L 966.47 953.83 L 964.51 951.20 L 962.57 948.56 L 960.68 945.90 L 958.81 943.25 L 956.96 940.60 L 955.11 938.02 L 953.26 935.46 L 951.40 932.91 L 949.58 930.35 L 947.80 927.79 L 946.01 925.23 L 944.21 922.68 L 942.43 920.13 L 940.68 917.57 L 938.92 915.02 L 937.13 912.50 L 935.34 909.99 L 933.60 907.46 L 931.87 904.93 L 930.12 902.42 L 928.37 899.94 L 926.63 897.46 L 924.92 895.01 L 923.22 892.55 L 921.51 890.10 L 919.86 887.64 L 918.27 885.15 L 916.70 882.66 L 915.12 880.19 L 913.53 877.74 L 911.97 875.30 L 910.41 872.87 L 908.85 870.46 L 907.30 868.06 L 905.75 865.66 L 904.21 863.28 L 902.68 860.89 L 901.18 858.53 L 899.63 856.21 L 898.09 853.90" stroke="rgb(140,255,190)" stroke-opacity="0.736" stroke-width="1.18" />
  <path d="M 956.90 910.86 L 955.20 908.83 L 953.51 906.76 L 951.82 904.70 L 950.18 902.64 L 948.51 900.60 L 946.83 898.57 L 945.15 896.55 L 943.48 894.53 L 941.86 892.59 L 940.22 890.67 L 938.56 888.79 L 936.96 886.84 L 935.35 884.93 L 933.69 883.03 L 932.04 881.16 L 930.28 879.26 L 928.52 877.33 L 926.78 875.39 L 924.99 873.43 L 923.23 871.47 L 921.49 869.51 L 919.77 867.58 L 918.01 865.74 L 916.29 863.88 L 914.61 861.99 L 912.99 860.05 L 911.37 858.12 L 909.74 856.16 L 908.09 854.25 L 906.38 852.34 L 904.65 850.46 L 902.92 848.58 L 901.18 846.71 L 899.44 844.86 L 897.67 843.06 L 895.82 841.31 L 893.99 839.61 L 892.17 837.91 L 890.30 836.29 L 888.42 834.68 L 886.54 833.09 L 884.67 831.50 L 882.77 829.97 L 880.90 828.46 L 878.99 826.96 L 877.09 825.48 L 875.20 824.06 L 873.31 822.65 L 871.46 821.21 L 869.62 819.77 L 867.78 818.34 L 865.92 816.89 L 864.10 815.46 L 862.29 814.05 L 860.48 812.65 L 858.61 811.29 L 856.76 809.93 L 854.96 808.57 L 853.16 807.18 L 851.37 805.84 L 849.57 804.48 L 847.80 803.11 L 846.06 801.71 L 844.30 800.32" stroke="rgb(140,255,190)" stroke-opacity="0.735" stroke-width="1.18" />
  <path d="M 971.67 931.79 L 971.98 928.37 L 972.27 924.96 L 972.56 921.56 L 972.82 918.16 L 973.07 914.78 L 973.30 911.41 L 973.60 908.06 L 973.95 904.73 L 974.31 901.41 L 974.66 898.11 L 975.02 894.82 L 975.38 891.54 L 975.69 888.28 L 975.96 885.02 L 976.24 881.78 L 976.49 878.55 L 976.74 875.33 L 976.95 872.12 L 977.16 868.92 L 977.41 865.74 L 977.70 862.56 L 978.06 859.41 L 978.44 856.28 L 978.84 853.16 L 979.23 850.06 L 979.67 846.97 L 980.13 843.90 L 980.56 840.84 L 980.99 837.78 L 981.45 834.75 L 981.94 831.73 L 982.48 828.74 L 983.02 825.76 L 983.55 822.78 L 984.20 819.84 L 984.84 816.91 L 985.46 813.98 L 986.17 811.09 L 986.86 808.21 L 987.51 805.33 L 988.15 802.46 L 988.76 799.60 L 989.36 796.75 L 989.92 793.90 L 990.48 791.07 L 991.04 788.24 L 991.57 785.43 L 992.10 782.62 L 992.65 779.83 L 993.19 777.05 L 993.72 774.27 L 994.24 771.51" stroke="rgb(140,255,190)" stroke-opacity="0.732" stroke-width="1.18" />
  <path d="M 999.39 998.05 L 1002.24 998.39 L 1005.08 998.72 L 1007.89 999.07 L 1010.67 999.48 L 1013.44 999.94 L 1016.20 1000.36 L 1018.92 1000.88 L 1021.64 1001.39 L 1024.34 1001.90" stroke="rgb(205,165,255)" stroke-opacity="0.486" stroke-width="1.17" />
  <path d="M 998.61 997.43 L 995.63 997.76 L 992.66 998.07 L 989.71 998.36 L 986.77 998.62 L 983.83 998.81 L 980.91 998.98 L 978.01 999.26 L 975.13 999.56 L 972.26 999.85 L 969.43 1000.15 L 966.61 1000.51 L 963.82 1000.89 L 961.03 1001.29 L 958.26 1001.74 L 955.49 1002.21 L 952.74 1002.69 L 950.00 1003.15 L 947.26 1003.61 L 944.55 1004.19 L 941.85 1004.77 L 939.15 1005.32 L 936.48 1005.90 L 933.82 1006.48 L 931.16 1007.02 L 928.51 1007.54 L 925.86 1008.08 L 923.24 1008.61 L 920.63 1009.16 L 918.02 1009.71 L 915.40 1010.16 L 912.80 1010.65 L 910.22 1011.18 L 907.65 1011.75 L 905.11 1012.37 L 902.57 1012.98 L 900.05 1013.55 L 897.55 1014.13 L 895.05 1014.66 L 892.56 1015.18 L 890.07 1015.72 L 887.60 1016.25 L 885.13 1016.80 L 882.70 1017.41 L 880.27 1017.98" stroke="rgb(205,165,255)" stroke-opacity="0.486" stroke-width="1.17" />
  <path d="M 985.92 972.52 L 983.60 970.31 L 981.24 968.16 L 978.89 966.07 L 976.59 963.96 L 974.36 961.82 L 972.12 959.70 L 969.96 957.52 L 967.79 955.37 L 965.62 953.27 L 963.48 951.17 L 961.37 949.05 L 959.28 946.93 L 957.20 944.82 L 955.13 942.71 L 953.02 940.62 L 950.93 938.53 L 948.81 936.52 L 946.70 934.51 L 944.63 932.49 L 942.56 930.47 L 940.53 928.47 L 938.50 926.48 L 936.45 924.50 L 934.42 922.52 L 932.34 920.63 L 930.26 918.76 L 928.20 916.90 L 926.15 915.06 L 924.10 913.24 L 922.04 911.49 L 920.00 909.72 L 917.94 908.02 L 915.88 906.34 L 913.82 904.65 L 911.76 902.97 L 909.69 901.35 L 907.65 899.74 L 905.65 898.15 L 903.67 896.55 L 901.67 894.98 L 899.71 893.39 L 897.75 891.80 L 895.79 890.23 L 893.85 888.63 L 891.93 887.09 L 889.98 885.60 L 888.02 884.12" stroke="rgb(140,255,190)" stroke-opacity="0.731" stroke-width="1.17" />
  <path d="M 998.82 1000.35 L 997.62 997.38 L 996.47 994.40 L 995.32 991.43 L 994.17 988.48 L 993.02 985.53 L 991.92 982.59 L 990.78 979.68 L 989.67 976.78 L 988.56 973.89 L 987.52 970.98 L 986.50 968.08 L 985.48 965.19 L 984.41 962.32 L 983.35 959.46 L 982.29 956.62 L 981.21 953.78 L 980.06 950.98 L 978.89 948.19 L 977.71 945.41 L 976.53 942.64 L 975.33 939.90 L 974.10 937.19 L 972.88 934.49 L 971.67 931.79 L 970.47 929.10 L 969.27 926.41 L 968.07 923.73 L 966.85 921.09 L 965.67 918.42 L 964.46 915.78 L 963.24 913.17 L 962.04 910.56 L 960.85 907.95 L 959.73 905.32 L 958.58 902.70 L 957.46 900.09 L 956.34 897.49 L 955.20 894.90 L 954.07 892.33 L 952.97 889.75 L 951.86 887.18 L 950.76 884.62 L 949.67 882.06 L 948.56 879.53 L 947.49 877.01 L 946.42 874.50 L 945.33 871.99 L 944.24 869.49 L 943.19 866.99 L 942.11 864.52 L 941.03 862.04 L 939.99 859.57 L 938.98 857.10 L 937.98 854.63 L 936.95 852.18 L 935.92 849.74 L 934.84 847.34" stroke="rgb(140,255,190)" stroke-opacity="0.731" stroke-width="1.17" />
  <path d="M 956.21 941.37 L 953.28 940.26 L 950.37 939.18 L 947.46 938.11 L 944.59 937.03 L 941.74 935.96 L 938.85 934.96 L 935.97 933.97 L 933.07 933.03 L 930.17 932.17 L 927.25 931.36 L 924.37 930.49 L 921.50 929.68 L 918.63 928.88 L 915.84 928.04 L 913.06 927.16 L 910.30 926.32 L 907.54 925.49 L 904.81 924.62 L 902.09 923.74 L 899.38 922.88 L 896.68 922.03 L 893.99 921.19 L 891.32 920.35 L 888.67 919.54 L 886.03 918.74 L 883.40 917.94 L 880.77 917.15 L 878.17 916.36 L 875.56 915.57 L 872.97 914.85 L 870.40 914.11 L 867.85 913.37 L 865.31 912.64 L 862.77 911.95 L 860.23 911.27 L 857.69 910.65 L 855.17 910.00 L 852.66 909.35 L 850.16 908.71 L 847.70 908.10 L 845.23 907.47 L 842.77 906.85 L 840.31 906.15 L 837.87 905.46 L 835.45 904.74 L 833.02 904.02 L 830.62 903.32 L 828.21 902.68 L 825.81 902.05 L 823.40 901.38 L 821.01 900.73 L 818.65 900.09 L 816.27 899.48 L 813.89 898.88 L 811.55 898.23 L 809.21 897.60 L 806.87 897.01 L 804.54 896.44 L 802.22 895.87 L 799.91 895.30 L 797.60 894.76 L 795.28 894.23 L 792.97 893.69 L 790.67 893.16 L 788.39 892.66 L 786.14 892.22 L 783.86 891.79 L 781.60 891.34 L 779.35 890.90 L 777.12 890.52 L 774.88 890.15 L 772.63 889.79 L 770.39 889.42 L 768.15 889.03 L 765.89 888.64 L 763.62 888.23 L 761.37 887.83 L 759.11 887.43 L 756.89 887.05 L 754.68 886.67 L 752.48 886.29 L 750.30 885.91 L 748.13 885.54 L 745.96 885.16 L 743.81 884.77 L 741.65 884.37 L 739.50 883.98 L 737.33 883.60 L 735.17 883.22 L 733.01 882.83 L 730.88 882.44 L 728.78 882.02 L 726.68 881.60 L 724.60 881.22 L 722.53 880.83 L 720.46 880.47 L 718.41 880.09" stroke="rgb(140,255,190)" stroke-opacity="0.731" stroke-width="1.17" />
  <path d="M 1000.50 999.25 L 998.52 996.79 L 996.53 994.36 L 994.56 991.91 L 992.60 989.49 L 990.67 987.04 L 988.75 984.60 L 986.84 982.17 L 984.99 979.72 L 983.17 977.25 L 981.33 974.79 L 979.49 972.34 L 977.67 969.89 L 975.85 967.44 L 974.04 965.00 L 972.22 962.58 L 970.42 960.18 L 968.63 957.77 L 966.84 955.37 L 965.06 952.98 L 963.30 950.62 L 961.52 948.27 L 959.77 945.95 L 957.98 943.65 L 956.21 941.37 L 954.45 939.13 L 952.68 936.88 L 950.92 934.65 L 949.17 932.45 L 947.40 930.27 L 945.67 928.07 L 943.96 925.87 L 942.24 923.69 L 940.53 921.51 L 938.83 919.33 L 937.19 917.12" stroke="rgb(140,255,190)" stroke-opacity="0.730" stroke-width="1.17" />
  <path d="M 912.76 879.48 L 911.23 876.72 L 909.67 873.97 L 908.15 871.22 L 906.60 868.52 L 905.00 865.86 L 903.35 863.22 L 901.72 860.59 L 900.12 857.93 L 898.49 855.30 L 896.87 852.68 L 895.36 850.02 L 893.83 847.38 L 892.29 844.76 L 890.77 842.16 L 889.25 839.57 L 887.74 836.98 L 886.23 834.41 L 884.72 831.83 L 883.26 829.25 L 881.80 826.67 L 880.33 824.12 L 878.89 821.57 L 877.46 819.02 L 875.98 816.53 L 874.52 814.02 L 873.06 811.52 L 871.62 809.02 L 870.18 806.54 L 868.73 804.08 L 867.27 801.63 L 865.79 799.22 L 864.27 796.85 L 862.76 794.51 L 861.24 792.18 L 859.69 789.89 L 858.11 787.63 L 856.54 785.37 L 854.97 783.11 L 853.41 780.87 L 851.86 778.64 L 850.31 776.40 L 848.73 774.17 L 847.14 771.97 L 845.56 769.80 L 843.98 767.64 L 842.44 765.46 L 840.90 763.27" stroke="rgb(140,255,190)" stroke-opacity="0.730" stroke-width="1.17" />
  <path d="M 975.24 961.56 L 973.30 959.05 L 971.36 956.57 L 969.42 954.10 L 967.53 951.61 L 965.67 949.12 L 963.81 946.63 L 961.92 944.18 L 960.03 941.74 L 958.16 939.31 L 956.26 936.90 L 954.40 934.47 L 952.55 932.03 L 950.68 929.59 L 948.80 927.17 L 947.00 924.70 L 945.22 922.26 L 943.46 919.83 L 941.70 917.41 L 939.94 915.02 L 938.20 912.62 L 936.49 910.24 L 934.81 907.85 L 933.15 905.43 L 931.47 903.06 L 929.78 900.69 L 928.12 898.32 L 926.48 895.97 L 924.86 893.62 L 923.20 891.30 L 921.61 888.96 L 919.94 886.69 L 918.27 884.43 L 916.61 882.18 L 914.98 879.92 L 913.38 877.65 L 911.78 875.38" stroke="rgb(140,255,190)" stroke-opacity="0.730" stroke-width="1.17" />
  <path d="M 950.76 884.62 L 948.29 882.63 L 945.83 880.66 L 943.35 878.70 L 940.88 876.75 L 938.44 874.83 L 936.01 872.87 L 933.59 870.86 L 931.19 868.88 L 928.79 866.92 L 926.38 864.97 L 923.98 863.01 L 921.59 861.06 L 919.17 859.14 L 916.77 857.23 L 914.37 855.32 L 911.99 853.41 L 909.63 851.49" stroke="rgb(140,255,190)" stroke-opacity="0.728" stroke-width="1.16" />
  <path d="M 966.39 949.63 L 964.56 947.01 L 962.71 944.42 L 960.74 941.88 L 958.79 939.32 L 956.85 936.78 L 954.94 934.21 L 953.00 931.65 L 951.11 929.06 L 949.27 926.43 L 947.42 923.84 L 945.62 921.22 L 943.78 918.65 L 941.95 916.08 L 940.10 913.55 L 938.24 911.04 L 936.45 908.50 L 934.75 905.91 L 933.03 903.34 L 931.26 900.83 L 929.47 898.34 L 927.70 895.85 L 925.93 893.39 L 924.19 890.92 L 922.44 888.48 L 920.69 886.06 L 918.96 883.64 L 917.24 881.23 L 915.48 878.85 L 913.69 876.50 L 911.88 874.18 L 910.08 871.88 L 908.30 869.58 L 906.54 867.29 L 904.78 865.01 L 902.98 862.74 L 901.18 860.49 L 899.43 858.23 L 897.69 855.98 L 895.96 853.73 L 894.22 851.50 L 892.49 849.28 L 890.74 847.08 L 889.02 844.87 L 887.30 842.68 L 885.58 840.50 L 883.93 838.27 L 882.33 836.03 L 880.73 833.79 L 879.16 831.54 L 877.59 829.31 L 876.04 827.08 L 874.50 824.87 L 872.91 822.69 L 871.34 820.52 L 869.78 818.35 L 868.23 816.19 L 866.70 814.04 L 865.13 811.91 L 863.58 809.78 L 862.09 807.63 L 860.60 805.49 L 859.14 803.34 L 857.67 801.20 L 856.23 799.06 L 854.81 796.90 L 853.41 794.75 L 852.02 792.60 L 850.62 790.47 L 849.17 788.39 L 847.73 786.32 L 846.30 784.24 L 844.90 782.16 L 843.51 780.09 L 842.14 778.04 L 840.72 776.04 L 839.25 774.07 L 837.78 772.11 L 836.27 770.18 L 834.81 768.24 L 833.33 766.33 L 831.86 764.42 L 830.39 762.52 L 828.93 760.63 L 827.48 758.75 L 826.07 756.85 L 824.66 754.96" stroke="rgb(140,255,190)" stroke-opacity="0.728" stroke-width="1.16" />
  <path d="M 997.19 1001.26 L 995.62 998.46 L 994.06 995.65 L 992.46 992.89 L 990.87 990.14 L 989.29 987.39 L 987.72 984.65 L 986.19 981.92 L 984.67 979.18 L 983.11 976.48 L 981.55 973.79 L 979.99 971.12 L 978.44 968.46 L 976.89 965.80 L 975.35 963.16 L 973.78 960.55 L 972.21 957.96 L 970.65 955.38 L 969.12 952.78 L 967.61 950.19 L 966.14 947.60 L 964.68 945.01 L 963.23 942.43 L 961.82 939.84 L 960.43 937.25 L 959.05 934.67 L 957.67 932.10 L 956.33 929.52 L 955.04 926.93 L 953.73 924.37 L 952.50 921.78 L 951.35 919.18 L 950.17 916.60 L 948.97 914.05 L 947.77 911.51" stroke="rgb(140,255,190)" stroke-opacity="0.726" stroke-width="1.16" />
  <path d="M 954.23 933.54 L 953.51 930.36 L 952.81 927.18 L 952.10 924.03 L 951.39 920.89 L 950.67 917.77 L 950.02 914.65 L 949.35 911.55 L 948.71 908.46 L 948.12 905.39 L 947.58 902.31 L 947.05 899.24 L 946.59 896.18 L 946.13 893.12 L 945.65 890.09 L 945.20 887.06 L 944.77 884.04 L 944.38 881.02 L 943.99 878.01 L 943.64 875.00 L 943.28 872.01 L 942.91 869.02 L 942.56 866.04 L 942.23 863.07 L 941.96 860.11 L 941.69 857.17 L 941.41 854.26 L 941.11 851.35 L 940.87 848.45 L 940.62 845.57 L 940.32 842.70 L 940.03 839.85 L 939.72 837.02 L 939.51 834.17 L 939.37 831.33 L 939.27 828.49 L 939.19 825.67 L 939.18 822.85 L 939.20 820.04 L 939.23 817.25 L 939.36 814.47 L 939.52 811.71 L 939.76 808.98 L 940.06 806.26 L 940.33 803.54 L 940.62 800.84 L 940.94 798.15 L 941.21 795.49 L 941.58 792.83 L 941.94 790.18 L 942.25 787.54 L 942.57 784.91 L 942.87 782.28 L 943.19 779.67 L 943.46 777.07 L 943.75 774.49 L 944.03 771.93 L 944.33 769.37 L 944.62 766.83 L 944.89 764.29 L 945.22 761.77 L 945.53 759.26" stroke="rgb(140,255,190)" stroke-opacity="0.723" stroke-width="1.15" />
  <path d="M 1001.64 998.92 L 1001.02 998.30 L 1000.44 997.63 L 999.80 996.96 L 999.20 996.28 L 998.60 995.59 L 997.98 994.91 L 997.32 994.12 L 996.65 993.31 L 995.96 992.50 L 995.34 991.67 L 994.68 990.87 L 994.07 990.06 L 993.45 989.23 L 992.85 988.38 L 992.19 987.51 L 991.52 986.63 L 990.85 985.73 L 990.16 984.80 L 989.55 983.90 L 988.89 983.02 L 988.24 982.14 L 987.61 981.26 L 986.96 980.34 L 986.36 979.28 L 985.72 978.16 L 985.08 977.04 L 984.37 975.82 L 983.59 974.58 L 982.90 973.25 L 982.10 971.95 L 981.40 970.63" stroke="rgb(205,165,255)" stroke-opacity="0.480" stroke-width="1.15" />
  <path d="M 1002.04 998.64 L 1000.73 996.43 L 999.44 994.21 L 998.21 991.98 L 996.98 989.74 L 995.79 987.51 L 994.59 985.29 L 993.31 983.12 L 992.07 980.95 L 990.80 978.80 L 989.52 976.68 L 988.25 974.55" stroke="rgb(255,210,135)" stroke-opacity="0.410" stroke-width="1.14" />
  <path d="M 1593.21 1999.97 L 1591.41 1997.19 L 1589.61 1994.51 L 1588.32 1992.32 L 1586.67 1989.69 L 1585.25 1986.85 L 1583.93 1984.70 L 1582.47 1981.99 L 1580.70 1979.13 L 1578.86 1976.76 L 1577.78 1974.45 L 1576.19 1971.61 L 1574.71 1968.95 L 1572.83 1966.41 L 1571.36 1963.66 L 1569.67 1961.34 L 1568.83 1958.90 L 1566.83 1956.21 L 1565.32 1953.50 L 1563.63 1951.39 L 1562.40 1948.39 L 1560.98 1945.50 L 1559.38 1943.24 L 1557.68 1940.78 L 1556.24 1938.16 L 1554.60 1934.98 L 1553.10 1933.19 L 1551.65 1930.14 L 1550.28 1927.56 L 1548.66 1925.04 L 1547.26 1922.28 L 1545.10 1920.10 L 1543.79 1917.14 L 1542.85 1914.90 L 1540.61 1912.51 L 1539.67 1909.82 L 1538.04 1907.20 L 1536.66 1904.51 L 1534.60 1902.12 L 1533.34 1899.53 L 1531.75 1896.61 L 1530.16 1894.21 L 1528.74 1891.75 L 1527.24 1888.92 L 1525.51 1886.37 L 1523.80 1883.77 L 1522.33 1881.22 L 1521.28 1878.35 L 1519.68 1876.13 L 1518.04 1873.36 L 1516.33 1870.82 L 1514.94 1868.73 L 1513.44 1866.15 L 1511.96 1863.11 L 1510.23 1860.66 L 1509.04 1858.00 L 1507.30 1855.81 L 1505.85 1852.96 L 1504.33 1850.02 L 1502.72 1847.51 L 1501.00 1845.28 L 1500.12 1842.43 L 1498.00 1839.64 L 1496.40 1837.48 L 1494.91 1834.83 L 1493.40 1831.90 L 1492.08 1829.74 L 1490.10 1827.11 L 1489.12 1824.86 L 1487.07 1821.97 L 1485.80 1819.58 L 1484.23 1816.81 L 1483.25 1814.05 L 1481.31 1811.88 L 1479.49 1808.98 L 1478.05 1806.43 L 1476.57 1803.43 L 1475.58 1801.15 L 1473.86 1798.81 L 1472.24 1796.16 L 1470.59 1793.47 L 1468.90 1790.91 L 1467.28 1788.47 L 1465.65 1786.31 L 1464.44 1783.28 L 1462.81 1780.70 L 1461.01 1778.37 L 1459.82 1775.71 L 1458.18 1773.36 L 1456.85 1770.75 L 1455.51 1768.06 L 1453.78 1765.36 L 1451.99 1762.47 L 1450.52 1759.98 L 1449.28 1757.56 L 1447.47 1754.84 L 1445.80 1752.13 L 1444.61 1749.78 L 1443.09 1747.06 L 1441.49 1744.42 L 1439.76 1742.21 L 1438.28 1739.62 L 1436.68 1736.67 L 1435.28 1734.24 L 1433.56 1731.86 L 1432.48 1729.26 L 1430.62 1726.29 L 1428.86 1723.92 L 1427.80 1721.42 L 1426.03 1718.72 L 1424.57 1715.99 L 1423.14 1713.24 L 1421.81 1710.81 L 1419.97 1708.19 L 1418.77 1706.04 L 1417.27 1703.08 L 1415.16 1700.86 L 1413.72 1698.21 L 1412.39 1695.41 L 1410.88 1692.85 L 1409.56 1690.53 L 1407.99 1688.14 L 1406.11 1685.19 L 1404.69 1682.49 L 1403.39 1680.19 L 1401.83 1677.36 L 1400.08 1674.82 L 1398.69 1672.28 L 1397.18 1670.23 L 1395.49 1666.86 L 1393.82 1664.78 L 1392.26 1662.20 L 1390.83 1659.59 L 1389.79 1656.88 L 1387.72 1654.18 L 1386.85 1651.37 L 1384.85 1648.67 L 1383.29 1646.59 L 1381.67 1643.70 L 1380.30 1640.85 L 1379.29 1638.75 L 1377.04 1636.09 L 1376.23 1633.30 L 1374.21 1631.11 L 1372.57 1628.37 L 1371.11 1626.10 L 1369.81 1623.14 L 1368.11 1620.92 L 1366.28 1618.22 L 1364.81 1615.63 L 1363.04 1613.02 L 1361.57 1610.33 L 1360.20 1607.78 L 1358.68 1604.86 L 1357.37 1602.36 L 1355.63 1600.24 L 1354.34 1596.97 L 1352.94 1594.85 L 1351.23 1592.27 L 1349.18 1589.94 L 1348.07 1587.15 L 1347.01 1585.03 L 1345.12 1581.97 L 1343.52 1579.30 L 1341.59 1576.84 L 1340.66 1574.16 L 1338.75 1571.90 L 1337.26 1569.05 L 1335.44 1566.94 L 1334.44 1563.91 L 1332.93 1561.19 L 1331.52 1559.30 L 1329.77 1556.39 L 1328.56 1553.47 L 1326.88 1550.90 L 1325.02 1548.31 L 1323.86 1546.31 L 1322.37 1543.57 L 1320.18 1540.71 L 1319.35 1537.82 L 1317.73 1535.84 L 1316.06 1533.37 L 1314.44 1530.25 L 1313.01 1527.56 L 1311.55 1525.10 L 1310.17 1522.32 L 1308.56 1519.78 L 1306.50 1517.69 L 1305.19 1515.42 L 1304.02 1512.42 L 1301.81 1509.77 L 1300.78 1507.24 L 1299.42 1504.46 L 1297.75 1502.14 L 1296.04 1499.62 L 1294.62 1496.55 L 1293.08 1494.28 L 1291.64 1491.92 L 1290.09 1488.91 L 1288.46 1486.53 L 1287.19 1483.86 L 1285.84 1481.63 L 1283.81 1479.03 L 1282.64 1476.07 L 1280.46 1473.77 L 1279.14 1471.13 L 1277.39 1468.47 L 1275.99 1465.86 L 1274.95 1462.95 L 1273.16 1460.61 L 1271.30 1457.93 L 1269.97 1455.49 L 1268.82 1452.95 L 1266.79 1450.44 L 1265.22 1447.62 L 1264.04 1445.27 L 1262.34 1442.64 L 1261.22 1439.90 L 1259.71 1437.38 L 1257.92 1434.77 L 1256.20 1432.47 L 1254.32 1429.41 L 1253.51 1426.87 L 1251.54 1424.67 L 1250.20 1422.01 L 1248.74 1419.80 L 1247.33 1416.77 L 1245.73 1414.14 L 1244.36 1410.98 L 1242.33 1408.91 L 1240.82 1406.51 L 1239.45 1404.12 L 1237.94 1401.19 L 1236.06 1398.73 L 1234.84 1396.08 L 1233.55 1393.51 L 1231.88 1391.04 L 1230.14 1388.44 L 1228.64 1385.54 L 1227.25 1382.98 L 1225.61 1380.78 L 1224.27 1378.07 L 1222.52 1375.55 L 1221.26 1373.31 L 1220.43 1370.64 L 1217.66 1368.23 L 1216.26 1365.00 L 1214.97 1362.30 L 1213.63 1360.10 L 1211.76 1357.51 L 1210.36 1355.01 L 1208.72 1352.36 L 1207.11 1349.44 L 1205.94 1347.48 L 1204.56 1344.69 L 1202.73 1341.94 L 1201.10 1339.40 L 1199.29 1336.85 L 1198.27 1333.95 L 1196.71 1331.52 L 1195.18 1328.63 L 1193.48 1326.62 L 1192.42 1323.61 L 1190.42 1321.31 L 1188.84 1318.92 L 1187.46 1316.52 L 1185.83 1313.71 L 1184.21 1311.28 L 1183.00 1308.51 L 1181.40 1305.59 L 1179.93 1303.35 L 1178.25 1300.72 L 1177.02 1298.41 L 1175.06 1295.96 L 1173.36 1292.94 L 1172.26 1290.27 L 1170.69 1287.91 L 1168.97 1285.20 L 1167.88 1282.64 L 1166.16 1279.67 L 1164.40 1277.25 L 1162.95 1274.55 L 1161.28 1272.23 L 1160.31 1269.86 L 1158.59 1267.25 L 1156.50 1264.51 L 1154.96 1262.58 L 1154.43 1259.48 L 1152.70 1256.71 L 1150.66 1254.48 L 1148.96 1251.46 L 1147.60 1248.82 L 1146.29 1247.05 L 1144.58 1243.96 L 1142.95 1241.41 L 1141.78 1238.93 L 1140.05 1236.07 L 1138.28 1233.47 L 1137.15 1231.01 L 1135.29 1228.32 L 1133.75 1225.90 L 1132.59 1223.31 L 1130.73 1220.79 L 1129.15 1218.05 L 1127.90 1215.93 L 1125.82 1212.89 L 1125.03 1210.17 L 1123.24 1208.02 L 1121.37 1205.28 L 1120.02 1202.73 L 1118.36 1200.27 L 1116.62 1197.66 L 1115.77 1194.97 L 1114.04 1192.09 L 1112.52 1189.91 L 1110.77 1187.19 L 1109.39 1184.78 L 1107.86 1182.10 L 1106.72 1179.50 L 1105.07 1176.92 L 1103.00 1174.30 L 1101.87 1171.57 L 1100.20 1168.80 L 1098.92 1166.56 L 1097.41 1163.80 L 1095.52 1161.25 L 1093.90 1158.42 L 1092.39 1156.50 L 1091.30 1153.20 L 1089.38 1150.97 L 1088.59 1148.44 L 1086.03 1146.41 L 1085.17 1143.06 L 1083.42 1140.86 L 1081.89 1138.50 L 1080.65 1135.27 L 1078.89 1132.51 L 1076.78 1130.37 L 1075.88 1127.91 L 1074.24 1125.08 L 1072.65 1122.42 L 1070.93 1119.92 L 1069.35 1117.73 L 1068.29 1115.24 L 1066.34 1112.57 L 1065.20 1110.35 L 1063.30 1107.31 L 1061.96 1105.00 L 1060.46 1101.80 L 1059.07 1099.69 L 1057.34 1096.79 L 1055.60 1094.29 L 1054.41 1091.51 L 1052.88 1089.10 L 1051.38 1086.54 L 1049.73 1083.69 L 1048.24 1081.31 L 1046.59 1078.50 L 1045.22 1075.92 L 1043.72 1072.93 L 1042.09 1070.47 L 1040.33 1068.38 L 1039.27 1065.13 L 1037.48 1063.31 L 1036.12 1060.06 L 1034.34 1058.54 L 1032.56 1055.48 L 1031.31 1053.00 L 1029.97 1050.18 L 1027.80 1047.46 L 1026.76 1045.12 L 1025.27 1042.64 L 1023.73 1040.34 L 1022.29 1037.21 L 1020.94 1034.79 L 1019.57 1032.35 L 1018.18 1029.58 L 1015.82 1027.17 L 1014.53 1024.83 L 1013.20 1022.69 L 1011.74 1019.26 L 1009.70 1016.49 L 1008.30 1014.27 L 1006.95 1011.89 L 1005.35 1009.09 L 1004.00 1007.01 L 1002.16 1003.82 L 1000.81 1001.36 L 1000.00 1000.00 L 998.47 997.42 L 996.94 994.84 L 995.41 992.26 L 993.90 989.67 L 992.40 987.07 L 990.90 984.47 L 989.41 981.86 L 987.95 979.24 L 986.50 976.62 L 985.05 973.99 L 983.60 971.37 L 982.16 968.74 L 980.69 966.12 L 979.22 963.50 L 977.73 960.90 L 976.24 958.30 L 974.75 955.69 L 973.25 953.09 L 971.75 950.49 L 970.28 947.88 L 968.81 945.26 L 967.33 942.66 L 965.83 940.06 L 964.31 937.47 L 962.81 934.88 L 961.30 932.28 L 959.80 929.68 L 958.29 927.09 L 956.79 924.49 L 955.30 921.89 L 953.81 919.28 L 952.32 916.68 L 950.81 914.09 L 949.30 911.50 L 947.79 908.90 L 946.28 906.31 L 944.76 903.73 L 943.23 901.15 L 941.68 898.58 L 940.13 896.01 L 938.59 893.43 L 937.06 890.85 L 935.52 888.28 L 933.99 885.70 L 932.45 883.12 L 930.94 880.53 L 929.42 877.94 L 927.92 875.35 L 926.43 872.74 L 924.95 870.13 L 923.51 867.50 L 922.06 864.88 L 920.61 862.25 L 919.14 859.64 L 917.65 857.03 L 916.16 854.43 L 914.67 851.82 L 913.17 849.22 L 911.65 846.64 L 910.13 844.05 L 908.63 841.45 L 907.13 838.85 L 905.65 836.25 L 904.17 833.64 L 902.68 831.03 L 901.20 828.42 L 899.74 825.80 L 898.29 823.18 L 896.82 820.56 L 895.36 817.94 L 893.93 815.30 L 892.47 812.68 L 891.02 810.06 L 889.56 807.43 L 888.09 804.82 L 886.61 802.21 L 885.10 799.62 L 883.58 797.03 L 882.06 794.44 L 880.54 791.86 L 879.02 789.27 L 877.50 786.69 L 875.96 784.11 L 874.44 781.52 L 872.91 778.95 L 871.38 776.36 L 869.86 773.78 L 868.35 771.18 L 866.83 768.60 L 865.30 766.02 L 863.76 763.44 L 862.26 760.85 L 860.77 758.24 L 859.30 755.63 L 857.83 753.01 L 856.36 750.40 L 854.88 747.79 L 853.39 745.19 L 851.91 742.57 L 850.43 739.97 L 848.94 737.36 L 847.50 734.73 L 846.08 732.08 L 844.69 729.43 L 843.28 726.78 L 841.86 724.14 L 840.45 721.49 L 839.03 718.85 L 837.59 716.21 L 836.16 713.58 L 834.71 710.95 L 833.27 708.32 L 831.82 705.69 L 830.37 703.06 L 828.94 700.43 L 827.53 697.78 L 826.11 695.14 L 824.69 692.49 L 823.26 689.86 L 821.82 687.22 L 820.37 684.60 L 818.90 681.99 L 817.40 679.38 L 815.87 676.80 L 814.35 674.22 L 812.82 671.64 L 811.29 669.06 L 809.76 666.48 L 808.21 663.91 L 806.66 661.34 L 805.10 658.78 L 803.55 656.21 L 802.00 653.64 L 800.48 651.06 L 798.95 648.47 L 797.41 645.90 L 795.89 643.31 L 794.36 640.73 L 792.84 638.15 L 791.31 635.57 L 789.80 632.98 L 788.28 630.39 L 786.77 627.80 L 785.24 625.21 L 783.72 622.63 L 782.19 620.05 L 780.68 617.46 L 779.16 614.87 L 777.67 612.26 L 776.17 609.67 L 774.66 607.07 L 773.14 604.49 L 771.63 601.90 L 770.12 599.30 L 768.63 596.70 L 767.16 594.09 L 765.69 591.47 L 764.20 588.86 L 762.71 586.26 L 761.20 583.67 L 759.68 581.08 L 758.16 578.49 L 756.62 575.92 L 755.06 573.36 L 753.50 570.80 L 751.96 568.22 L 750.42 565.65 L 748.91 563.05 L 747.40 560.46 L 745.88 557.87 L 744.37 555.29 L 742.85 552.70 L 741.35 550.10 L 739.82 547.52 L 738.28 544.94 L 736.75 542.36 L 735.23 539.78 L 733.72 537.19 L 732.21 534.60 L 730.67 532.02 L 729.11 529.45 L 727.55 526.89 L 726.01 524.32 L 724.48 521.74 L 722.96 519.15 L 721.45 516.56 L 719.95 513.96 L 718.44 511.37 L 716.92 508.79 L 715.41 506.19 L 713.90 503.60 L 712.40 501.00 L 710.89 498.41 L 709.35 495.83 L 707.83 493.25 L 706.28 490.68 L 704.72 488.12 L 703.17 485.55 L 701.63 482.98 L 700.07 480.41 L 698.51 477.85 L 696.95 475.29 L 695.38 472.73 L 693.82 470.17 L 692.27 467.60 L 690.72 465.03 L 689.18 462.46 L 687.63 459.89 L 686.07 457.32 L 684.52 454.75 L 682.95 452.20 L 681.39 449.64 L 679.83 447.07 L 678.25 444.52 L 676.67 441.97 L 675.08 439.43 L 673.48 436.89 L 671.90 434.34 L 670.31 431.79 L 668.74 429.24 L 667.18 426.68 L 665.62 424.11 L 664.08 421.54 L 662.52 418.98 L 660.98 416.40 L 659.45 413.83 L 657.91 411.25 L 656.39 408.66 L 654.86 406.08 L 653.34 403.50 L 651.80 400.92 L 650.25 398.35 L 648.73 395.77 L 647.20 393.19 L 645.65 390.62 L 644.09 388.06 L 642.52 385.50 L 640.94 382.95 L 639.38 380.38 L 637.83 377.82 L 636.28 375.25 L 634.73 372.68 L 633.18 370.11 L 631.64 367.54 L 630.08 364.97 L 628.53 362.41 L 626.96 359.85 L 625.42 357.27 L 623.88 354.70 L 622.34 352.12 L 620.80 349.55 L 619.24 346.99 L 617.70 344.42 L 616.15 341.84 L 614.60 339.28 L 613.03 336.72 L 611.46 334.17 L 609.90 331.60 L 608.36 329.03 L 606.85 326.44 L 605.34 323.84 L 603.83 321.25 L 602.32 318.66 L 600.80 316.07 L 599.27 313.49 L 597.74 310.91 L 596.21 308.33 L 594.69 305.75 L 593.16 303.16 L 591.64 300.58 L 590.10 298.00 L 588.56 295.43 L 587.01 292.86 L 585.47 290.29 L 583.95 287.70 L 582.44 285.11 L 580.95 282.50 L 579.44 279.91 L 577.91 277.33 L 576.37 274.76 L 574.80 272.20 L 573.23 269.64 L 571.66 267.08 L 570.12 264.51 L 568.59 261.93 L 567.05 259.36 L 565.50 256.79 L 563.97 254.21 L 562.45 251.62 L 560.93 249.03 L 559.41 246.45 L 557.90 243.86 L 556.37 241.27 L 554.85 238.69 L 553.32 236.11 L 551.81 233.52 L 550.27 230.94 L 548.71 228.38 L 547.15 225.81 L 545.62 223.23 L 544.12 220.64 L 542.61 218.04 L 541.13 215.44 L 539.62 212.84 L 538.12 210.24 L 536.60 207.66 L 535.09 205.07 L 533.55 202.49 L 532.00 199.92 L 530.45 197.35 L 528.88 194.80 L 527.29 192.25 L 525.71 189.70 L 524.13 187.16 L 522.55 184.60 L 520.96 182.06 L 519.37 179.52 L 517.81 176.95 L 516.24 174.39 L 514.69 171.83 L 513.13 169.27 L 511.57 166.70 L 510.02 164.13 L 508.47 161.57 L 506.90 159.01 L 505.34 156.44 L 503.79 153.88 L 502.23 151.32 L 500.70 148.73 L 499.20 146.14 L 497.68 143.55 L 496.14 140.98 L 494.59 138.41 L 493.05 135.83 L 491.51 133.26 L 489.96 130.69 L 488.41 128.12 L 486.83 125.57 L 485.25 123.02 L 483.67 120.47 L 482.11 117.91 L 480.56 115.34 L 479.01 112.77 L 477.43 110.22 L 475.84 107.67 L 474.24 105.14 L 472.62 102.61 L 470.98 100.10 L 469.35 97.58 L 467.72 95.07 L 466.09 92.55 L 464.44 90.04 L 462.79 87.53 L 461.14 85.03 L 459.48 82.53 L 457.84 80.02 L 456.23 77.49 L 454.62 74.95 L 453.02 72.42 L 451.40 69.90 L 449.79 67.36 L 448.20 64.82 L 446.62 62.27 L 445.05 59.71 L 443.50 57.14 L 441.93 54.59 L 440.37 52.02 L 438.82 49.45 L 437.27 46.88 L 435.71 44.32 L 434.14 41.77 L 432.54 39.23 L 430.92 36.70 L 429.33 34.16 L 427.74 31.62 L 426.17 29.06 L 424.60 26.51 L 423.02 23.96 L 421.42 21.42 L 419.84 18.86 L 418.28 16.31 L 416.71 13.75 L 415.13 11.20 L 413.55 8.65 L 411.97 6.10 L 410.42 3.53 L 408.85 0.97 L 407.28 -1.58 L 405.73 -4.15 L 404.19 -6.73 L 402.66 -9.31 L 401.13 -11.89 L 399.59 -14.46 L 398.02 -17.02 L 396.46 -19.58 L 394.90 -22.15" stroke="rgb(245,245,245)" stroke-opacity="0.714" stroke-width="1.13" />
  <path d="M 972.21 957.96 L 969.56 956.59 L 966.91 955.25 L 964.31 953.84 L 961.71 952.46 L 959.17 951.00 L 956.62 949.56 L 954.11 948.07 L 951.63 946.57 L 949.16 945.08 L 946.70 943.59 L 944.28 942.06 L 941.96 940.41 L 939.60 938.83 L 937.29 937.21 L 934.98 935.59 L 932.65 934.02 L 930.36 932.42 L 928.12 930.79 L 925.85 929.19 L 923.59 927.61 L 921.34 926.04 L 919.10 924.47 L 916.87 922.90 L 914.64 921.34 L 912.47 919.70 L 910.32 918.06 L 908.19 916.41 L 906.09 914.74 L 904.04 913.03 L 902.03 911.27 L 900.04 909.52 L 898.06 907.77" stroke="rgb(140,255,190)" stroke-opacity="0.534" stroke-width="1.12" />
  <path d="M 978.34 957.56 L 976.27 955.60 L 974.21 953.66 L 972.14 951.73 L 970.11 949.76 L 968.06 947.81 L 965.96 945.95 L 963.87 944.07 L 961.73 942.31 L 959.56 940.56 L 957.43 938.82 L 955.34 937.01 L 953.27 935.22 L 951.21 933.44 L 949.12 931.66 L 947.11 929.85 L 945.08 928.07 L 943.07 926.33 L 941.07 924.60 L 939.11 922.86 L 937.15 921.13 L 935.16 919.41 L 933.17 917.70 L 931.17 916.05 L 929.17 914.42 L 927.16 912.79 L 925.16 911.13 L 923.11 909.55 L 921.07 907.97 L 919.00 906.50 L 916.93 905.04 L 914.79 903.68" stroke="rgb(140,255,190)" stroke-opacity="0.533" stroke-width="1.12" />
  <path d="M 983.55 822.78 L 983.85 820.18 L 984.29 817.63 L 984.71 815.08 L 985.07 812.53 L 985.45 809.99 L 985.83 807.46 L 986.15 804.93 L 986.48 802.42 L 986.81 799.89 L 987.14 797.38 L 987.48 794.89 L 987.82 792.41 L 988.20 789.93 L 988.52 787.45 L 988.83 784.98 L 989.22 782.55 L 989.65 780.14 L 990.10 777.68" stroke="rgb(140,255,190)" stroke-opacity="0.532" stroke-width="1.12" />
  <path d="M 998.08 998.58 L 996.63 996.61 L 995.19 994.66 L 993.76 992.67 L 992.33 990.69 L 990.99 988.69 L 989.66 986.70 L 988.29 984.72 L 987.00 982.72 L 985.67 980.74 L 984.36 978.73 L 983.03 976.75 L 981.75 974.75 L 980.49 972.73 L 979.33 970.68 L 978.19 968.64 L 977.01 966.60 L 975.76 964.63 L 974.47 962.73 L 973.21 960.83 L 971.90 958.98 L 970.60 957.14 L 969.25 955.34 L 968.03 953.43 L 966.80 951.52 L 965.56 949.61 L 964.33 947.71 L 963.15 945.79 L 961.96 943.89 L 960.79 941.99 L 959.62 940.11 L 958.46 938.23 L 957.30 936.34 L 956.12 934.45 L 954.93 932.56 L 953.72 930.70 L 952.50 928.86 L 951.34 927.00 L 950.19 925.12 L 949.04 923.26 L 947.86 921.43 L 946.68 919.61 L 945.55 917.78 L 944.40 916.00 L 943.27 914.19 L 942.11 912.42 L 940.93 910.65 L 939.71 908.92 L 938.56 907.15 L 937.42 905.39" stroke="rgb(140,255,190)" stroke-opacity="0.530" stroke-width="1.11" />
  <path d="M 999.06 997.97 L 999.96 999.12 L 1000.85 1000.14 L 1001.74 1001.20 L 1002.59 1002.27 L 1003.44 1003.29 L 1004.31 1004.35 L 1005.17 1005.43 L 1006.01 1006.51 L 1006.84 1007.59 L 1007.65 1008.64 L 1008.46 1009.68 L 1009.27 1010.71 L 1010.10 1011.61 L 1010.90 1012.50 L 1011.73 1013.34 L 1012.56 1014.16 L 1013.49 1014.90 L 1014.33 1015.64 L 1015.14 1016.42 L 1015.95 1017.18 L 1016.75 1017.94 L 1017.47 1018.75 L 1018.18 1019.55 L 1018.89 1020.33 L 1019.53 1021.18 L 1020.12 1022.06 L 1020.70 1022.93 L 1021.19 1023.75 L 1021.68 1024.66 L 1022.17 1025.61 L 1022.63 1026.58 L 1023.10 1027.51 L 1023.49 1028.39 L 1023.92 1029.22 L 1024.35 1030.05 L 1024.81 1030.86 L 1025.27 1031.66 L 1025.76 1032.45 L 1026.32 1033.16 L 1027.00 1033.80 L 1027.74 1034.44 L 1028.47 1035.09 L 1029.19 1035.72 L 1029.94 1036.35 L 1030.68 1036.99 L 1031.46 1037.62 L 1032.27 1038.24 L 1033.13 1038.87 L 1034.01 1039.54 L 1034.89 1040.22" stroke="rgb(255,210,135)" stroke-opacity="0.403" stroke-width="1.11" />
  <path d="M 1001.02 1001.09 L 999.70 998.91 L 998.40 996.72 L 997.17 994.51 L 995.96 992.30 L 994.75 990.10 L 993.61 987.88 L 992.48 985.67 L 991.36 983.47 L 990.23 981.29 L 989.12 979.10 L 988.04 976.91 L 986.97 974.71 L 985.92 972.52 L 984.85 970.34 L 983.80 968.17 L 982.72 966.02 L 981.63 963.89 L 980.52 961.77 L 979.40 959.67 L 978.34 957.56 L 977.29 955.45 L 976.28 953.33 L 975.30 951.20 L 974.30 949.10" stroke="rgb(140,255,190)" stroke-opacity="0.530" stroke-width="1.11" />
  <path d="M 999.99 1001.46 L 997.75 1000.88 L 995.56 1000.25 L 993.39 999.63 L 991.21 999.01 L 989.04 998.36 L 986.94 997.58 L 984.84 996.78 L 982.77 995.91 L 980.71 995.08 L 978.64 994.22 L 976.55 993.38 L 974.48 992.55 L 972.41 991.72 L 970.33 990.94 L 968.26 990.17 L 966.20 989.47 L 964.13 988.78 L 962.06 988.23 L 959.96 987.67 L 957.87 987.11 L 955.81 986.58 L 953.72 986.12 L 951.63 985.58 L 949.58 985.05 L 947.53 984.51 L 945.49 983.96 L 943.46 983.45 L 941.43 983.02 L 939.40 982.56 L 937.37 982.18 L 935.36 981.89 L 933.34 981.57 L 931.34 981.33 L 929.33 981.05 L 927.33 980.80 L 925.35 980.57 L 923.34 980.40 L 921.35 980.25 L 919.40 980.09 L 917.47 979.89 L 915.59 979.65 L 913.74 979.45 L 911.94 979.21 L 910.15 978.93 L 908.36 978.62 L 906.63 978.27" stroke="rgb(140,255,190)" stroke-opacity="0.530" stroke-width="1.11" />
  <path d="M 956.33 929.52 L 955.26 927.45 L 954.17 925.42 L 953.11 923.40 L 952.05 921.39 L 951.02 919.34 L 950.10 917.30 L 949.20 915.24 L 948.31 913.12 L 947.42 911.00 L 946.54 908.89 L 945.69 906.81 L 944.85 904.74 L 944.06 902.61 L 943.29 900.48 L 942.51 898.35 L 941.74 896.24 L 940.96 894.14 L 940.26 892.04 L 939.57 889.96 L 938.87 887.88 L 938.01 885.85 L 937.16 883.80 L 936.32 881.75 L 935.49 879.69 L 934.78 877.61 L 934.06 875.52 L 933.36 873.43 L 932.70 871.33 L 932.05 869.20 L 931.35 867.14 L 930.74 865.03 L 929.94 862.99 L 929.14 860.97 L 928.32 858.99 L 927.40 857.03 L 926.59 855.08 L 925.79 853.20 L 924.99 851.33 L 924.20 849.46 L 923.44 847.59 L 922.71 845.75 L 922.12 843.80 L 921.62 841.83 L 921.13 839.87 L 920.72 837.90 L 920.24 835.95 L 919.65 834.03 L 918.95 832.11 L 918.25 830.21 L 917.56 828.32 L 916.91 826.44 L 916.31 824.53 L 915.77 822.61 L 915.18 820.68" stroke="rgb(140,255,190)" stroke-opacity="0.530" stroke-width="1.11" />
  <path d="M 956.12 934.45 L 954.72 933.07 L 953.43 931.68 L 952.12 930.23 L 950.69 928.87 L 949.27 927.50 L 947.84 926.15 L 946.44 924.79 L 945.07 923.49 L 943.77 922.27 L 942.50 921.03 L 941.23 919.86 L 940.15 918.65 L 939.11 917.45 L 938.12 916.20 L 937.14 914.94 L 936.20 913.73 L 935.32 912.51 L 934.41 911.20 L 933.47 909.96 L 932.52 908.77 L 931.59 907.60 L 930.67 906.42 L 929.67 905.12 L 928.73 903.76 L 927.82 902.44 L 926.94 901.12 L 926.04 899.80 L 925.16 898.48 L 924.32 897.14 L 923.40 895.86 L 922.47 894.58 L 921.61 893.25" stroke="rgb(140,255,190)" stroke-opacity="0.529" stroke-width="1.11" />
  <path d="M 1001.11 997.27 L 1000.27 994.77 L 999.43 992.28 L 998.56 989.81 L 997.66 987.36 L 996.78 984.91 L 996.04 982.43 L 995.33 979.96 L 994.63 977.49 L 993.97 975.02 L 993.29 972.56 L 992.65 970.11 L 992.01 967.67 L 991.41 965.23 L 990.75 962.81 L 990.16 960.39 L 989.56 957.99 L 988.97 955.59 L 988.37 953.20 L 987.78 950.83 L 987.18 948.46 L 986.54 946.12 L 985.91 943.78 L 985.32 941.44 L 984.68 939.12 L 984.07 936.80 L 983.46 934.49 L 982.84 932.20 L 982.22 929.93 L 981.61 927.66 L 981.03 925.39 L 980.46 923.13 L 979.91 920.88 L 979.36 918.63 L 978.75 916.41 L 978.18 914.18 L 977.66 911.94 L 977.17 909.71 L 976.65 907.50 L 976.17 905.28 L 975.67 903.08 L 975.15 900.90 L 974.63 898.72 L 974.12 896.55 L 973.60 894.39 L 973.10 892.24 L 972.60 890.10 L 972.17 887.95 L 971.73 885.81 L 971.23 883.70 L 970.64 881.63 L 970.14 879.54 L 969.57 877.47 L 968.97 875.42 L 968.37 873.37 L 967.77 871.33 L 967.17 869.29 L 966.58 867.27 L 965.99 865.25 L 965.41 863.24 L 964.83 861.24 L 964.27 859.24 L 963.68 857.26 L 963.09 855.28 L 962.50 853.32 L 961.86 851.38 L 961.28 849.45 L 960.73 847.51 L 960.15 845.60 L 959.60 843.68 L 958.98 841.79 L 958.40 839.90 L 957.82 838.01 L 957.25 836.14 L 956.65 834.28 L 956.03 832.43 L 955.47 830.57 L 954.91 828.72" stroke="rgb(140,255,190)" stroke-opacity="0.528" stroke-width="1.10" />
  <path d="M 994.51 998.57 L 993.91 996.11 L 993.31 993.66 L 992.73 991.23 L 992.16 988.79 L 991.54 986.36 L 990.98 983.91 L 990.46 981.45 L 990.00 978.96 L 989.45 976.48 L 988.89 974.01 L 988.32 971.56 L 987.76 969.11 L 987.15 966.71 L 986.54 964.32 L 985.93 961.94 L 985.40 959.55 L 984.81 957.16 L 984.19 954.81 L 983.60 952.47 L 982.98 950.11 L 982.37 947.75 L 981.80 945.37 L 981.24 942.99" stroke="rgb(140,255,190)" stroke-opacity="0.527" stroke-width="1.10" />
  <path d="M 985.48 965.19 L 984.73 962.35 L 983.99 959.52 L 983.28 956.70 L 982.50 953.91 L 981.66 951.14 L 980.81 948.40 L 979.92 945.68 L 978.94 943.00 L 977.97 940.33 L 977.14 937.62 L 976.29 934.93 L 975.42 932.26 L 974.62 929.58 L 973.83 926.91 L 973.00 924.26" stroke="rgb(140,255,190)" stroke-opacity="0.527" stroke-width="1.10" />
  <path d="M 998.98 1003.11 L 997.43 1001.10 L 995.90 999.08 L 994.33 997.11 L 992.75 995.15 L 991.26 993.14 L 989.77 991.14 L 988.26 989.17 L 986.76 987.20 L 985.15 985.32 L 983.49 983.52 L 981.83 981.79 L 980.16 980.07 L 978.48 978.37 L 976.75 976.70 L 975.04 975.05 L 973.34 973.40 L 971.64 971.78" stroke="rgb(140,255,190)" stroke-opacity="0.527" stroke-width="1.10" />
  <path d="M 979.57 967.76 L 977.30 966.28 L 975.05 964.79 L 972.81 963.31 L 970.64 961.76 L 968.46 960.27 L 966.28 958.78 L 964.14 957.25 L 961.98 955.74 L 959.88 954.16 L 957.82 952.54 L 955.78 950.92 L 953.75 949.29 L 951.73 947.65 L 949.73 946.03 L 947.70 944.44 L 945.68 942.86 L 943.67 941.28" stroke="rgb(140,255,190)" stroke-opacity="0.525" stroke-width="1.09" />
  <path d="M 959.60 843.68 L 958.15 841.52 L 956.63 839.44 L 955.13 837.38 L 953.66 835.34 L 952.20 833.30 L 950.72 831.27 L 949.30 829.19 L 947.88 827.12 L 946.52 825.05 L 945.17 822.96 L 943.85 820.84 L 942.52 818.74 L 941.23 816.61 L 939.95 814.46 L 938.59 812.39 L 937.25 810.29 L 935.98 808.22 L 934.78 806.07 L 933.64 803.86 L 932.50 801.70 L 931.35 799.57 L 930.24 797.44 L 929.16 795.30 L 928.10 793.21 L 927.08 791.12 L 926.06 789.06 L 924.98 787.03 L 923.94 785.04 L 922.90 783.05 L 921.87 781.08 L 920.90 779.07 L 919.88 777.10 L 918.91 775.13 L 917.94 773.18 L 916.98 771.23 L 916.11 769.24 L 915.26 767.26 L 914.48 765.22 L 913.71 763.24 L 912.94 761.27 L 912.17 759.31 L 911.42 757.37 L 910.68 755.40 L 909.93 753.44 L 909.16 751.50 L 908.43 749.55 L 907.71 747.58 L 906.97 745.63 L 906.28 743.61 L 905.56 741.60 L 904.89 739.61 L 904.22 737.62 L 903.63 735.64 L 903.11 733.66 L 902.63 731.66 L 902.11 729.67 L 901.63 727.69 L 901.19 725.71 L 900.72 723.77 L 900.24 721.83 L 899.72 719.91 L 899.25 717.97 L 898.76 716.05 L 898.22 714.14 L 897.60 712.24 L 897.05 710.34 L 896.42 708.47 L 895.80 706.62 L 895.20 704.76 L 894.59 702.90 L 893.84 701.10" stroke="rgb(140,255,190)" stroke-opacity="0.525" stroke-width="1.09" />
  <path d="M 999.81 995.28 L 998.35 992.93 L 996.85 990.61 L 995.33 988.32 L 993.80 986.03 L 992.29 983.76 L 990.73 981.53 L 989.17 979.30 L 987.63 977.09 L 986.13 974.86 L 984.57 972.67 L 983.05 970.48 L 981.49 968.33 L 979.95 966.18 L 978.36 964.07 L 976.86 961.91 L 975.37 959.76 L 973.88 957.62 L 972.40 955.49 L 970.92 953.37 L 969.43 951.27 L 967.94 949.19 L 966.48 947.08 L 965.05 944.98" stroke="rgb(140,255,190)" stroke-opacity="0.524" stroke-width="1.09" />
  <path d="M 1000.89 1000.63 L 999.29 998.33 L 997.69 996.05 L 996.11 993.76 L 994.55 991.49 L 992.99 989.21 L 991.41 986.97 L 989.79 984.77 L 988.20 982.56 L 986.60 980.38 L 985.01 978.20 L 983.40 976.04 L 981.79 973.91 L 980.18 971.78 L 978.61 969.64 L 977.06 967.50 L 975.58 965.32 L 974.11 963.15 L 972.63 960.99 L 971.21 958.81 L 969.79 956.64 L 968.43 954.44 L 966.96 952.33 L 965.49 950.23 L 964.04 948.13 L 962.58 946.05 L 961.20 943.93 L 959.79 941.83 L 958.42 939.73 L 957.04 937.65 L 955.63 935.59 L 954.23 933.54 L 952.85 931.49 L 951.52 929.42 L 950.17 927.37 L 948.83 925.33 L 947.50 923.29" stroke="rgb(140,255,190)" stroke-opacity="0.523" stroke-width="1.09" />
  <path d="M 1001.24 1003.56 L 999.88 1001.24 L 998.55 998.91 L 997.18 996.62 L 995.87 994.31 L 994.49 992.06 L 993.09 989.82 L 991.69 987.59 L 990.30 985.36 L 989.09 983.04 L 987.79 980.79 L 986.50 978.54 L 985.15 976.33 L 983.80 974.14 L 982.45 971.96 L 981.03 969.84 L 979.57 967.76 L 978.14 965.67 L 976.67 963.62 L 975.24 961.56 L 973.83 959.49 L 972.39 957.46 L 970.92 955.46 L 969.42 953.50 L 967.90 951.56 L 966.39 949.63 L 964.89 947.70 L 963.38 945.79 L 961.84 943.92 L 960.31 942.05" stroke="rgb(140,255,190)" stroke-opacity="0.523" stroke-width="1.09" />
  <path d="M 942.24 923.69 L 940.79 921.85 L 939.41 919.96 L 938.18 918.03 L 936.97 916.13 L 935.79 914.24 L 934.56 912.41 L 933.32 910.58 L 932.10 908.76 L 930.90 906.95 L 929.67 905.12 L 928.42 903.31 L 927.10 901.57 L 925.78 899.84 L 924.44 898.17 L 923.13 896.45 L 921.81 894.79 L 920.49 893.14 L 919.18 891.50 L 917.91 889.85 L 916.62 888.23 L 915.33 886.59 L 914.08 885.00" stroke="rgb(140,255,190)" stroke-opacity="0.523" stroke-width="1.09" />
  <path d="M 1000.60 998.63 L 1002.35 998.96 L 1004.11 999.28 L 1005.82 999.56 L 1007.53 999.83 L 1009.25 1000.13 L 1010.99 1000.36 L 1012.66 1000.56 L 1014.33 1000.78 L 1016.01 1000.99 L 1017.69 1001.23 L 1019.45 1001.53 L 1021.22 1001.86 L 1022.93 1002.26 L 1024.61 1002.65 L 1026.28 1003.03 L 1027.90 1003.37 L 1029.46 1003.68 L 1031.02 1003.92 L 1032.57 1004.15 L 1034.12 1004.39 L 1035.64 1004.68 L 1037.15 1005.01 L 1038.63 1005.39 L 1040.11 1005.73 L 1041.63 1006.05 L 1043.14 1006.42 L 1044.71 1006.91 L 1046.30 1007.40 L 1047.88 1007.85 L 1049.44 1008.32 L 1051.02 1008.79 L 1052.60 1009.28 L 1054.17 1009.78 L 1055.74 1010.27 L 1057.30 1010.76 L 1058.82 1011.34 L 1060.33 1011.90 L 1061.86 1012.43 L 1063.37 1012.94 L 1064.92 1013.44 L 1066.43 1013.95 L 1067.98 1014.45 L 1069.51 1014.96 L 1071.04 1015.44 L 1072.54 1015.95 L 1074.01 1016.48 L 1075.45 1017.04 L 1076.88 1017.57 L 1078.30 1018.15 L 1079.70 1018.79 L 1081.07 1019.38 L 1082.45 1019.95 L 1083.79 1020.48 L 1085.10 1020.92 L 1086.42 1021.23 L 1087.81 1021.55 L 1089.21 1021.86 L 1090.58 1022.06 L 1091.91 1022.31 L 1093.24 1022.54 L 1094.55 1022.75 L 1095.89 1022.99 L 1097.20 1023.20 L 1098.50 1023.44 L 1099.81 1023.70 L 1101.08 1023.97 L 1102.31 1024.19 L 1103.48 1024.33 L 1104.63 1024.45 L 1105.75 1024.55 L 1106.87 1024.66 L 1108.02 1024.80 L 1109.20 1024.88 L 1110.34 1024.96 L 1111.44 1024.97 L 1112.56 1024.97 L 1113.69 1025.00 L 1114.81 1025.05 L 1115.93 1025.10 L 1117.04 1025.16 L 1118.13 1025.17 L 1119.20 1025.22 L 1120.23 1025.27 L 1121.24 1025.31 L 1122.27 1025.33 L 1123.30 1025.34" stroke="rgb(140,255,190)" stroke-opacity="0.523" stroke-width="1.09" />
  <path d="M 997.93 1002.98 L 996.57 1001.17 L 995.22 999.34 L 993.89 997.53 L 992.69 995.65 L 991.55 993.77 L 990.40 991.91 L 989.33 989.99" stroke="rgb(205,165,255)" stroke-opacity="0.453" stroke-width="1.05" />
  <path d="M 997.46 1001.73 L 996.74 1000.98 L 996.02 1000.24 L 995.30 999.51 L 994.64 998.81 L 993.97 998.07 L 993.28 997.37 L 992.59 996.67 L 991.87 996.01 L 991.24 995.25 L 990.71 994.47 L 990.16 993.55 L 989.61 992.63 L 989.11 991.72 L 988.74 990.75 L 988.39 989.79 L 988.10 988.81 L 987.80 987.82" stroke="rgb(230,230,230)" stroke-opacity="0.387" stroke-width="0.72" />
  <path d="M 997.34 994.54 L 996.13 995.34 L 995.03 996.31 L 993.97 997.31 L 992.85 998.24 L 991.66 999.04 L 990.49 999.85 L 989.25 1000.42 L 987.99 1000.99 L 986.70 1001.54 L 985.41 1001.95 L 984.15 1002.37 L 982.98 1003.01 L 981.79 1003.61 L 980.62 1004.25" stroke="rgb(230,230,230)" stroke-opacity="0.383" stroke-width="0.71" />
  <path d="M 999.54 1000.56 L 998.66 1001.75 L 997.72 1002.90 L 996.82 1004.06 L 995.83 1005.13 L 994.86 1006.22 L 993.92 1007.33" stroke="rgb(230,230,230)" stroke-opacity="0.378" stroke-width="0.69" />
  <path d="M 1008.59 1000.03 L 1008.21 999.31 L 1007.88 998.60 L 1007.56 997.95 L 1007.31 997.24 L 1007.11 996.50 L 1006.95 995.83 L 1006.86 995.25 L 1006.82 994.76" stroke="rgb(230,230,230)" stroke-opacity="0.377" stroke-width="0.69" />
  <path d="M 995.22 996.37 L 995.16 997.03 L 995.03 997.70 L 994.88 998.36 L 994.73 999.05 L 994.55 999.66 L 994.46 1000.19 L 994.35 1000.74 L 994.31 1001.27 L 994.06 1001.89 L 993.68 1002.27 L 993.25 1002.84 L 992.83 1003.52" stroke="rgb(230,230,230)" stroke-opacity="0.373" stroke-width="0.68" />
  <path d="M 1000.41 999.70 L 1001.51 998.96 L 1002.47 998.17 L 1003.46 997.42 L 1004.46 996.67 L 1005.39 996.06 L 1006.43 995.54 L 1007.36 994.83 L 1008.30 994.14 L 1009.19 993.46 L 1010.09 992.79 L 1011.00 992.14 L 1011.92 991.42 L 1012.82 990.67 L 1013.67 989.93 L 1014.75 989.24 L 1015.85 988.59" stroke="rgb(230,230,230)" stroke-opacity="0.373" stroke-width="0.68" />
  <path d="M 999.06 1000.91 L 998.53 1002.22 L 997.90 1003.54 L 997.33 1004.83 L 996.96 1006.19 L 996.61 1007.54 L 996.18 1008.87 L 995.76 1010.19 L 995.33 1011.53 L 994.83 1012.75 L 994.29 1013.92 L 993.74 1015.10 L 993.18 1016.26 L 992.65 1017.46 L 992.14 1018.64 L 991.63 1019.83 L 991.44 1021.13 L 991.11 1022.41 L 990.69 1023.62" stroke="rgb(230,230,230)" stroke-opacity="0.372" stroke-width="0.67" />
  <path d="M 1008.97 1003.90 L 1010.30 1003.22 L 1011.67 1002.64 L 1013.02 1002.04 L 1014.37 1001.43 L 1015.74 1000.92 L 1017.09 1000.37" stroke="rgb(230,230,230)" stroke-opacity="0.367" stroke-width="0.66" />
  <path d="M 999.51 1002.14 L 1000.45 1002.20 L 1001.56 1002.59 L 1002.66 1002.97 L 1003.86 1003.17 L 1005.09 1003.38 L 1006.34 1003.51 L 1007.59 1003.64 L 1008.79 1003.76" stroke="rgb(230,230,230)" stroke-opacity="0.362" stroke-width="0.65" />
  <path d="M 998.18 996.40 L 998.34 997.88 L 998.47 999.35 L 998.36 1000.79 L 998.30 1002.25 L 998.14 1003.71 L 998.03 1005.17" stroke="rgb(230,230,230)" stroke-opacity="0.361" stroke-width="0.64" />
  <path d="M 995.38 1001.78 L 994.19 1001.27 L 993.04 1000.76 L 991.91 1000.26 L 990.80 999.75 L 989.63 999.32 L 988.47 998.93 L 987.30 998.58 L 986.15 998.21 L 984.93 997.90 L 983.70 997.62 L 982.58 997.27 L 981.54 996.82" stroke="rgb(230,230,230)" stroke-opacity="0.360" stroke-width="0.64" />
  <path d="M 1007.28 1005.44 L 1007.68 1004.34 L 1008.03 1003.25 L 1008.27 1002.10 L 1008.34 1000.99 L 1008.47 999.88 L 1008.59 998.81 L 1008.76 997.72 L 1009.03 996.67 L 1009.38 995.70 L 1009.67 994.74 L 1010.08 993.81" stroke="rgb(230,230,230)" stroke-opacity="0.360" stroke-width="0.64" />
  <path d="M 1001.15 1002.88 L 1000.04 1002.07 L 998.80 1001.31 L 997.47 1000.80 L 996.18 1000.21 L 994.91 999.72 L 993.57 999.33 L 992.34 998.73" stroke="rgb(230,230,230)" stroke-opacity="0.360" stroke-width="0.64" />
  <path d="M 996.76 1001.29 L 996.98 1002.68 L 997.23 1004.08 L 997.58 1005.48 L 998.10 1006.78" stroke="rgb(230,230,230)" stroke-opacity="0.355" stroke-width="0.63" />
  <path d="M 994.78 1005.01 L 995.89 1004.01 L 997.03 1003.05 L 998.16 1002.08 L 999.29 1001.11 L 1000.42 1000.17 L 1001.57 999.26 L 1002.72 998.36 L 1003.76 997.35 L 1004.79 996.33 L 1005.85 995.34" stroke="rgb(230,230,230)" stroke-opacity="0.354" stroke-width="0.62" />
  <path d="M 1002.21 1001.87 L 1001.41 1002.15 L 1000.60 1002.49 L 999.80 1002.83 L 998.84 1003.23 L 997.84 1003.47 L 996.90 1003.72 L 995.95 1003.94 L 994.99 1004.15 L 994.08 1004.29 L 993.18 1004.43 L 992.32 1004.55" stroke="rgb(230,230,230)" stroke-opacity="0.354" stroke-width="0.62" />
  <path d="M 999.81 999.04 L 999.43 1000.40 L 999.30 1001.83 L 999.25 1003.22 L 999.15 1004.57 L 998.76 1005.94 L 998.67 1007.36 L 998.57 1008.77 L 998.50 1010.18 L 998.47 1011.62 L 998.47 1012.97 L 998.62 1014.36" stroke="rgb(230,230,230)" stroke-opacity="0.353" stroke-width="0.62" />
  <path d="M 1000.40 1001.38 L 1000.95 1002.70 L 1001.50 1004.02 L 1002.21 1005.21 L 1002.89 1006.39 L 1003.56 1007.57 L 1004.16 1008.77 L 1004.70 1009.91 L 1005.26 1011.04 L 1005.66 1012.19 L 1006.06 1013.42" stroke="rgb(230,230,230)" stroke-opacity="0.353" stroke-width="0.62" />
</g>
</svg>
