{
  "asset": {
    "version": "2.0",
    "generator": "TES-23 Cosmic Ray Renderer"
  },
  "extensionsUsed": [
    "KHR_materials_unlit"
  ],
  "extensionsRequired": [
    "KHR_materials_unlit"
  ],
  "scene": 0,
  "scenes": [
    {
      "nodes": [
        0
      ]
    }
  ],
  "nodes": [
    {
      "name": "CosmicRayEvent",
      "mesh": 0
    }
  ],
  "meshes": [
    {
      "name": "CosmicRayEvent",
      "primitives": [
        {
          "attributes": {
            "POSITION": 0
          },
          "material": 0,
          "mode": 1
        },
        {
          "attributes": {
            "POSITION": 1
          },
          "material": 1,
          "mode": 1
        },
        {
          "attributes": {
            "POSITION": 2
          },
          "material": 2,
          "mode": 1
        },
        {
          "attributes": {
            "POSITION": 3
          },
          "material": 3,
          "mode": 1
        },
        {
          "attributes": {
            "POSITION": 4
          },
          "material": 4,
          "mode": 1
        }
      ]
    }
  ],
  "materials": [
    {
      "name": "primary",
      "extensions": {
        "KHR_materials_unlit": {}
      },
      "pbrMetallicRoughness": {
        "baseColorFactor": [
          0.961,
          0.961,
          0.961,
          1
        ],
        "metallicFactor": 0,
        "roughnessFactor": 1
      }
    },
    {
      "name": "vertex",
      "extensions": {
        "KHR_materials_unlit": {}
      },
      "pbrMetallicRoughness": {
        "baseColorFactor": [
          0.902,
          0.902,
          0.902,
          0.9
        ],
        "metallicFactor": 0,
        "roughnessFactor": 1
      }
    },
    {
      "name": "em",
      "extensions": {
        "KHR_materials_unlit": {}
      },
      "pbrMetallicRoughness": {
        "baseColorFactor": [
          0.471,
          0.824,
          1,
          1
        ],
        "metallicFactor": 0,
        "roughnessFactor": 1
      }
    },
    {
      "name": "hadron",
      "extensions": {
        "KHR_materials_unlit": {}
      },
      "pbrMetallicRoughness": {
        "baseColorFactor": [
          0.549,
          1,
          0.745,
          1
        ],
        "metallicFactor": 0,
        "roughnessFactor": 1
      }
    },
    {
      "name": "delta",
      "extensions": {
        "KHR_materials_unlit": {}
      },
      "pbrMetallicRoughness": {
        "baseColorFactor": [
          0.804,
          0.647,
          1,
          1
        ],
        "metallicFactor": 0,
        "roughnessFactor": 1
      }
    }
  ],
  "accessors": [
    {
      "bufferView": 0,
      "byteOffset": 0,
      "componentType": 5126,
      "count": 1350,
      "type": "VEC3",
      "min": [
        -1.0207710266113281,
        -0.059079721570014954,
        0
      ],
      "max": [
        0.9998146891593933,
        0.06048678606748581,
        0
      ]
    },
    {
      "bufferView": 1,
      "byteOffset": 0,
      "componentType": 5126,
      "count": 312,
      "type": "VEC3",
      "min": [
        -0.014644086360931396,
        -0.017962653189897537,
        -0.05143437907099724
      ],
      "max": [
        0.016910646110773087,
        0.023637479171156883,
        0.09419340640306473
      ]
    },
    {
      "bufferView": 2,
      "byteOffset": 0,
      "componentType": 5126,
      "count": 1390,
      "type": "VEC3",
      "min": [
        -0.2862922251224518,
        -0.028285929933190346,
        -0.15904904901981354
      ],
      "max": [
        0.005368697457015514,
        0.0598478801548481,
        0.06779065728187561
      ]
    },
    {
      "bufferView": 3,
      "byteOffset": 0,
      "componentType": 5126,
      "count": 1702,
      "type": "VEC3",
      "min": [
        -0.2839749753475189,
        -0.06811180710792542,
        -0.22242537140846252
      ],
      "max": [
        0.24373681843280792,
        0.06049219146370888,
        0.40619024634361267
      ]
    },
    {
      "bufferView": 4,
      "byteOffset": 0,
      "componentType": 5126,
      "count": 640,
      "type": "VEC3",
      "min": [
        -0.18182876706123352,
        -0.12910449504852295,
        -0.1381889432668686
      ],
      "max": [
        0.15573187172412872,
        0.11495907604694366,
        0.8407790660858154
      ]
    }
  ],
  "bufferViews": [
    {
      "buffer": 0,
      "byteOffset": 0,
      "byteLength": 16200,
      "target": 34962
    },
    {
      "buffer": 0,
      "byteOffset": 16200,
      "byteLength": 3744,
      "target": 34962
    },
    {
      "buffer": 0,
      "byteOffset": 19944,
      "byteLength": 16680,
      "target": 34962
    },
    {
      "buffer": 0,
      "byteOffset": 36624,
      "byteLength": 20424,
      "target": 34962
    },
    {
      "buffer": 0,
      "byteOffset": 57048,
      "byteLength": 7680,
      "target": 34962
    }
  ],
  "buffers": [
    {
      "byteLength": 64728,
      "uri": "data:application/octet-stream;base64,"
    }
  ]
}