{
  "asset": {
    "version": "2.0",
    "generator": "TES-23 Cosmic Ray Renderer"
  },
  "extensionsUsed": [
    "KHR_materials_unlit"
  ],
  "extensionsRequired": [
    "KHR_materials_unlit"
  ],
  "scene": 0,
  "scenes": [
    {
      "nodes": [
        0
      ]
    }
  ],
  "nodes": [
    {
      "name": "CosmicRayEvent",
      "mesh": 0
    }
  ],
  "meshes": [
    {
      "name": "CosmicRayEvent",
      "primitives": [
        {
          "attributes": {
            "POSITION": 0
          },
          "material": 0,
          "mode": 1
        },
        {
          "attributes": {
            "POSITION": 1
          },
          "material": 1,
          "mode": 1
        },
        {
          "attributes": {
            "POSITION": 2
          },
          "material": 2,
          "mode": 1
        },
        {
          "attributes": {
            "POSITION": 3
          },
          "material": 3,
          "mode": 1
        },
        {
          "attributes": {
            "POSITION": 4
          },
          "material": 4,
          "mode": 1
        }
      ]
    }
  ],
  "materials": [
    {
      "name": "primary",
      "extensions": {
        "KHR_materials_unlit": {}
      },
      "pbrMetallicRoughness": {
        "baseColorFactor": [
          0.961,
          0.961,
          0.961,
          1
        ],
        "metallicFactor": 0,
        "roughnessFactor": 1
      }
    },
    {
      "name": "vertex",
      "extensions": {
        "KHR_materials_unlit": {}
      },
      "pbrMetallicRoughness": {
        "baseColorFactor": [
          0.902,
          0.902,
          0.902,
          0.9
        ],
        "metallicFactor": 0,
        "roughnessFactor": 1
      }
    },
    {
      "name": "em",
      "extensions": {
        "KHR_materials_unlit": {}
      },
      "pbrMetallicRoughness": {
        "baseColorFactor": [
          0.471,
          0.824,
          1,
          1
        ],
        "metallicFactor": 0,
        "roughnessFactor": 1
      }
    },
    {
      "name": "hadron",
      "extensions": {
        "KHR_materials_unlit": {}
      },
      "pbrMetallicRoughness": {
        "baseColorFactor": [
          0.549,
          1,
          0.745,
          1
        ],
        "metallicFactor": 0,
        "roughnessFactor": 1
      }
    },
    {
      "name": "delta",
      "extensions": {
        "KHR_materials_unlit": {}
      },
      "pbrMetallicRoughness": {
        "baseColorFactor": [
          0.804,
          0.647,
          1,
          1
        ],
        "metallicFactor": 0,
        "roughnessFactor": 1
      }
    }
  ],
  "accessors": [
    {
      "bufferView": 0,
      "byteOffset": 0,
      "componentType": 5126,
      "count": 1364,
      "type": "VEC3",
      "min": [
        -0.9999496936798096,
        -0.1594938486814499,
        0
      ],
      "max": [
        1.020182728767395,
        0.15443308651447296,
        0
      ]
    },
    {
      "bufferView": 1,
      "byteOffset": 0,
      "componentType": 5126,
      "count": 328,
      "type": "VEC3",
      "min": [
        -0.014660941436886787,
        -0.017986072227358818,
        -0.13032560050487518
      ],
      "max": [
        0.010491902008652687,
        0.016888486221432686,
        0.07065899670124054
      ]
    },
    {
      "bufferView": 2,
      "byteOffset": 0,
      "componentType": 5126,
      "count": 1582,
      "type": "VEC3",
      "min": [
        -0.0021040132269263268,
        -0.0039177583530545235,
        -0.07192075997591019
      ],
      "max": [
        0.32003137469291687,
        0.0512530580163002,
        0.11784566938877106
      ]
    },
    {
      "bufferView": 3,
      "byteOffset": 0,
      "componentType": 5126,
      "count": 2680,
      "type": "VEC3",
      "min": [
        -0.0022882267367094755,
        -0.01334443036466837,
        -0.49892371892929077
      ],
      "max": [
        0.3840636909008026,
        0.10385127365589142,
        0.440105140209198
      ]
    },
    {
      "bufferView": 4,
      "byteOffset": 0,
      "componentType": 5126,
      "count": 938,
      "type": "VEC3",
      "min": [
        -0.11426303535699844,
        -0.06101742386817932,
        -0.2813200056552887
      ],
      "max": [
        0.16987082362174988,
        0.16382776200771332,
        0.7020358443260193
      ]
    }
  ],
  "bufferViews": [
    {
      "buffer": 0,
      "byteOffset": 0,
      "byteLength": 16368,
      "target": 34962
    },
    {
      "buffer": 0,
      "byteOffset": 16368,
      "byteLength": 3936,
      "target": 34962
    },
    {
      "buffer": 0,
      "byteOffset": 20304,
      "byteLength": 18984,
      "target": 34962
    },
    {
      "buffer": 0,
      "byteOffset": 39288,
      "byteLength": 32160,
      "target": 34962
    },
    {
      "buffer": 0,
      "byteOffset": 71448,
      "byteLength": 11256,
      "target": 34962
    }
  ],
  "buffers": [
    {
      "byteLength": 82704,
      "uri": "data:application/octet-stream;base64,"
    }
  ]
}