{
  "asset": {
    "version": "2.0",
    "generator": "TES-23 Cosmic Ray Renderer"
  },
  "extensionsUsed": [
    "KHR_materials_unlit"
  ],
  "extensionsRequired": [
    "KHR_materials_unlit"
  ],
  "scene": 0,
  "scenes": [
    {
      "nodes": [
        0
      ]
    }
  ],
  "nodes": [
    {
      "name": "CosmicRayEvent",
      "mesh": 0
    }
  ],
  "meshes": [
    {
      "name": "CosmicRayEvent",
      "primitives": [
        {
          "attributes": {
            "POSITION": 0
          },
          "material": 0,
          "mode": 1
        },
        {
          "attributes": {
            "POSITION": 1
          },
          "material": 1,
          "mode": 1
        },
        {
          "attributes": {
            "POSITION": 2
          },
          "material": 2,
          "mode": 1
        },
        {
          "attributes": {
            "POSITION": 3
          },
          "material": 3,
          "mode": 1
        },
        {
          "attributes": {
            "POSITION": 4
          },
          "material": 4,
          "mode": 1
        }
      ]
    }
  ],
  "materials": [
    {
      "name": "primary",
      "extensions": {
        "KHR_materials_unlit": {}
      },
      "pbrMetallicRoughness": {
        "baseColorFactor": [
          0.961,
          0.961,
          0.961,
          1
        ],
        "metallicFactor": 0,
        "roughnessFactor": 1
      }
    },
    {
      "name": "vertex",
      "extensions": {
        "KHR_materials_unlit": {}
      },
      "pbrMetallicRoughness": {
        "baseColorFactor": [
          0.902,
          0.902,
          0.902,
          0.9
        ],
        "metallicFactor": 0,
        "roughnessFactor": 1
      }
    },
    {
      "name": "em",
      "extensions": {
        "KHR_materials_unlit": {}
      },
      "pbrMetallicRoughness": {
        "baseColorFactor": [
          0.471,
          0.824,
          1,
          1
        ],
        "metallicFactor": 0,
        "roughnessFactor": 1
      }
    },
    {
      "name": "hadron",
      "extensions": {
        "KHR_materials_unlit": {}
      },
      "pbrMetallicRoughness": {
        "baseColorFactor": [
          0.549,
          1,
          0.745,
          1
        ],
        "metallicFactor": 0,
        "roughnessFactor": 1
      }
    },
    {
      "name": "delta",
      "extensions": {
        "KHR_materials_unlit": {}
      },
      "pbrMetallicRoughness": {
        "baseColorFactor": [
          0.804,
          0.647,
          1,
          1
        ],
        "metallicFactor": 0,
        "roughnessFactor": 1
      }
    }
  ],
  "accessors": [
    {
      "bufferView": 0,
      "byteOffset": 0,
      "componentType": 5126,
      "count": 1350,
      "type": "VEC3",
      "min": [
        -0.039842136204242706,
        -1.0000170469284058,
        0
      ],
      "max": [
        0.058337096124887466,
        1.021018624305725,
        0
      ]
    },
    {
      "bufferView": 1,
      "byteOffset": 0,
      "componentType": 5126,
      "count": 308,
      "type": "VEC3",
      "min": [
        -0.02002272754907608,
        -0.014990483410656452,
        -0.11496902257204056
      ],
      "max": [
        0.009937124326825142,
        0.006877128500491381,
        0.08448553085327148
      ]
    },
    {
      "bufferView": 2,
      "byteOffset": 0,
      "componentType": 5126,
      "count": 978,
      "type": "VEC3",
      "min": [
        -0.01440529152750969,
        -0.002033357508480549,
        -0.12597844004631042
      ],
      "max": [
        0.04336179792881012,
        0.3288204073905945,
        0.05441785603761673
      ]
    },
    {
      "bufferView": 3,
      "byteOffset": 0,
      "componentType": 5126,
      "count": 3958,
      "type": "VEC3",
      "min": [
        -0.06650010496377945,
        -0.051966916769742966,
        -0.8193215727806091
      ],
      "max": [
        0.16503703594207764,
        0.4100264310836792,
        0.6360422968864441
      ]
    },
    {
      "bufferView": 4,
      "byteOffset": 0,
      "componentType": 5126,
      "count": 1026,
      "type": "VEC3",
      "min": [
        -0.09939946979284286,
        -0.2022087126970291,
        -0.43456435203552246
      ],
      "max": [
        0.12588512897491455,
        0.2909267842769623,
        1.1297556161880493
      ]
    }
  ],
  "bufferViews": [
    {
      "buffer": 0,
      "byteOffset": 0,
      "byteLength": 16200,
      "target": 34962
    },
    {
      "buffer": 0,
      "byteOffset": 16200,
      "byteLength": 3696,
      "target": 34962
    },
    {
      "buffer": 0,
      "byteOffset": 19896,
      "byteLength": 11736,
      "target": 34962
    },
    {
      "buffer": 0,
      "byteOffset": 31632,
      "byteLength": 47496,
      "target": 34962
    },
    {
      "buffer": 0,
      "byteOffset": 79128,
      "byteLength": 12312,
      "target": 34962
    }
  ],
  "buffers": [
    {
      "byteLength": 91440,
      "uri": "data:application/octet-stream;base64,"
    }
  ]
}