{
  "asset": {
    "version": "2.0",
    "generator": "TES-23 Cosmic Ray Renderer"
  },
  "extensionsUsed": [
    "KHR_materials_unlit"
  ],
  "extensionsRequired": [
    "KHR_materials_unlit"
  ],
  "scene": 0,
  "scenes": [
    {
      "nodes": [
        0
      ]
    }
  ],
  "nodes": [
    {
      "name": "CosmicRayEvent",
      "mesh": 0
    }
  ],
  "meshes": [
    {
      "name": "CosmicRayEvent",
      "primitives": [
        {
          "attributes": {
            "POSITION": 0
          },
          "material": 0,
          "mode": 1
        },
        {
          "attributes": {
            "POSITION": 1
          },
          "material": 1,
          "mode": 1
        },
        {
          "attributes": {
            "POSITION": 2
          },
          "material": 2,
          "mode": 1
        },
        {
          "attributes": {
            "POSITION": 3
          },
          "material": 3,
          "mode": 1
        },
        {
          "attributes": {
            "POSITION": 4
          },
          "material": 4,
          "mode": 1
        },
        {
          "attributes": {
            "POSITION": 5
          },
          "material": 5,
          "mode": 1
        }
      ]
    }
  ],
  "materials": [
    {
      "name": "primary",
      "extensions": {
        "KHR_materials_unlit": {}
      },
      "pbrMetallicRoughness": {
        "baseColorFactor": [
          0.961,
          0.961,
          0.961,
          1
        ],
        "metallicFactor": 0,
        "roughnessFactor": 1
      }
    },
    {
      "name": "vertex",
      "extensions": {
        "KHR_materials_unlit": {}
      },
      "pbrMetallicRoughness": {
        "baseColorFactor": [
          0.902,
          0.902,
          0.902,
          0.9
        ],
        "metallicFactor": 0,
        "roughnessFactor": 1
      }
    },
    {
      "name": "em",
      "extensions": {
        "KHR_materials_unlit": {}
      },
      "pbrMetallicRoughness": {
        "baseColorFactor": [
          0.471,
          0.824,
          1,
          1
        ],
        "metallicFactor": 0,
        "roughnessFactor": 1
      }
    },
    {
      "name": "hadron",
      "extensions": {
        "KHR_materials_unlit": {}
      },
      "pbrMetallicRoughness": {
        "baseColorFactor": [
          0.549,
          1,
          0.745,
          1
        ],
        "metallicFactor": 0,
        "roughnessFactor": 1
      }
    },
    {
      "name": "delta",
      "extensions": {
        "KHR_materials_unlit": {}
      },
      "pbrMetallicRoughness": {
        "baseColorFactor": [
          0.804,
          0.647,
          1,
          1
        ],
        "metallicFactor": 0,
        "roughnessFactor": 1
      }
    },
    {
      "name": "backscatter",
      "extensions": {
        "KHR_materials_unlit": {}
      },
      "pbrMetallicRoughness": {
        "baseColorFactor": [
          1,
          0.824,
          0.529,
          0.95
        ],
        "metallicFactor": 0,
        "roughnessFactor": 1
      }
    }
  ],
  "accessors": [
    {
      "bufferView": 0,
      "byteOffset": 0,
      "componentType": 5126,
      "count": 1426,
      "type": "VEC3",
      "min": [
        -1.021413803100586,
        -0.35074591636657715,
        0
      ],
      "max": [
        0.9998160004615784,
        0.34409764409065247,
        0
      ]
    },
    {
      "bufferView": 1,
      "byteOffset": 0,
      "componentType": 5126,
      "count": 330,
      "type": "VEC3",
      "min": [
        -0.018540851771831512,
        -0.016309048980474472,
        -0.06120909005403519
      ],
      "max": [
        0.012081000953912735,
        0.015594344586133957,
        0.05057533085346222
      ]
    },
    {
      "bufferView": 2,
      "byteOffset": 0,
      "componentType": 5126,
      "count": 826,
      "type": "VEC3",
      "min": [
        -0.27315831184387207,
        -0.04823672026395798,
        -0.051388755440711975
      ],
      "max": [
        0.0024292434100061655,
        0.0029397287871688604,
        0.01564921997487545
      ]
    },
    {
      "bufferView": 3,
      "byteOffset": 0,
      "componentType": 5126,
      "count": 4706,
      "type": "VEC3",
      "min": [
        -0.29897043108940125,
        -0.176888108253479,
        -0.37604570388793945
      ],
      "max": [
        0.008863038383424282,
        0.024280933663249016,
        0.45679718255996704
      ]
    },
    {
      "bufferView": 4,
      "byteOffset": 0,
      "componentType": 5126,
      "count": 1074,
      "type": "VEC3",
      "min": [
        -0.14761096239089966,
        -0.07558098435401917,
        -0.43585261702537537
      ],
      "max": [
        0.11241776496171951,
        0.17493928968906403,
        0.7044662237167358
      ]
    },
    {
      "bufferView": 5,
      "byteOffset": 0,
      "componentType": 5126,
      "count": 436,
      "type": "VEC3",
      "min": [
        -0.04515647515654564,
        -0.07307590544223785,
        -0.0024992136750370264
      ],
      "max": [
        0.0911022499203682,
        0.06658992916345596,
        0.625477135181427
      ]
    }
  ],
  "bufferViews": [
    {
      "buffer": 0,
      "byteOffset": 0,
      "byteLength": 17112,
      "target": 34962
    },
    {
      "buffer": 0,
      "byteOffset": 17112,
      "byteLength": 3960,
      "target": 34962
    },
    {
      "buffer": 0,
      "byteOffset": 21072,
      "byteLength": 9912,
      "target": 34962
    },
    {
      "buffer": 0,
      "byteOffset": 30984,
      "byteLength": 56472,
      "target": 34962
    },
    {
      "buffer": 0,
      "byteOffset": 87456,
      "byteLength": 12888,
      "target": 34962
    },
    {
      "buffer": 0,
      "byteOffset": 100344,
      "byteLength": 5232,
      "target": 34962
    }
  ],
  "buffers": [
    {
      "byteLength": 105576,
      "uri": "data:application/octet-stream;base64,"
    }
  ]
}