{
  "asset": {
    "version": "2.0",
    "generator": "TES-23 Cosmic Ray Renderer"
  },
  "extensionsUsed": [
    "KHR_materials_unlit"
  ],
  "extensionsRequired": [
    "KHR_materials_unlit"
  ],
  "scene": 0,
  "scenes": [
    {
      "nodes": [
        0
      ]
    }
  ],
  "nodes": [
    {
      "name": "CosmicRayEvent",
      "mesh": 0
    }
  ],
  "meshes": [
    {
      "name": "CosmicRayEvent",
      "primitives": [
        {
          "attributes": {
            "POSITION": 0
          },
          "material": 0,
          "mode": 1
        },
        {
          "attributes": {
            "POSITION": 1
          },
          "material": 1,
          "mode": 1
        },
        {
          "attributes": {
            "POSITION": 2
          },
          "material": 2,
          "mode": 1
        },
        {
          "attributes": {
            "POSITION": 3
          },
          "material": 3,
          "mode": 1
        },
        {
          "attributes": {
            "POSITION": 4
          },
          "material": 4,
          "mode": 1
        }
      ]
    }
  ],
  "materials": [
    {
      "name": "primary",
      "extensions": {
        "KHR_materials_unlit": {}
      },
      "pbrMetallicRoughness": {
        "baseColorFactor": [
          0.961,
          0.961,
          0.961,
          1
        ],
        "metallicFactor": 0,
        "roughnessFactor": 1
      }
    },
    {
      "name": "vertex",
      "extensions": {
        "KHR_materials_unlit": {}
      },
      "pbrMetallicRoughness": {
        "baseColorFactor": [
          0.902,
          0.902,
          0.902,
          0.9
        ],
        "metallicFactor": 0,
        "roughnessFactor": 1
      }
    },
    {
      "name": "em",
      "extensions": {
        "KHR_materials_unlit": {}
      },
      "pbrMetallicRoughness": {
        "baseColorFactor": [
          0.471,
          0.824,
          1,
          1
        ],
        "metallicFactor": 0,
        "roughnessFactor": 1
      }
    },
    {
      "name": "hadron",
      "extensions": {
        "KHR_materials_unlit": {}
      },
      "pbrMetallicRoughness": {
        "baseColorFactor": [
          0.549,
          1,
          0.745,
          1
        ],
        "metallicFactor": 0,
        "roughnessFactor": 1
      }
    },
    {
      "name": "delta",
      "extensions": {
        "KHR_materials_unlit": {}
      },
      "pbrMetallicRoughness": {
        "baseColorFactor": [
          0.804,
          0.647,
          1,
          1
        ],
        "metallicFactor": 0,
        "roughnessFactor": 1
      }
    }
  ],
  "accessors": [
    {
      "bufferView": 0,
      "byteOffset": 0,
      "componentType": 5126,
      "count": 1792,
      "type": "VEC3",
      "min": [
        -1.0003035068511963,
        -0.8831222653388977,
        0
      ],
      "max": [
        1.0214264392852783,
        0.8863322734832764,
        0
      ]
    },
    {
      "bufferView": 1,
      "byteOffset": 0,
      "componentType": 5126,
      "count": 286,
      "type": "VEC3",
      "min": [
        -0.010510705411434174,
        -0.013989312574267387,
        -0.08303414285182953
      ],
      "max": [
        0.011033352464437485,
        0.00983601063489914,
        0.04712643846869469
      ]
    },
    {
      "bufferView": 2,
      "byteOffset": 0,
      "componentType": 5126,
      "count": 362,
      "type": "VEC3",
      "min": [
        -0.004521847236901522,
        -0.0030465666204690933,
        -0.06578214466571808
      ],
      "max": [
        0.11275443434715271,
        0.10530006140470505,
        0.03412565588951111
      ]
    },
    {
      "bufferView": 3,
      "byteOffset": 0,
      "componentType": 5126,
      "count": 2856,
      "type": "VEC3",
      "min": [
        -0.01840669848024845,
        -0.008905332535505295,
        -1.0014379024505615
      ],
      "max": [
        0.26880598068237305,
        0.23797115683555603,
        0.6273325085639954
      ]
    },
    {
      "bufferView": 4,
      "byteOffset": 0,
      "componentType": 5126,
      "count": 300,
      "type": "VEC3",
      "min": [
        -0.05681541562080383,
        -0.054723531007766724,
        -0.13552308082580566
      ],
      "max": [
        0.06793077290058136,
        0.0631263330578804,
        0.2210145741701126
      ]
    }
  ],
  "bufferViews": [
    {
      "buffer": 0,
      "byteOffset": 0,
      "byteLength": 21504,
      "target": 34962
    },
    {
      "buffer": 0,
      "byteOffset": 21504,
      "byteLength": 3432,
      "target": 34962
    },
    {
      "buffer": 0,
      "byteOffset": 24936,
      "byteLength": 4344,
      "target": 34962
    },
    {
      "buffer": 0,
      "byteOffset": 29280,
      "byteLength": 34272,
      "target": 34962
    },
    {
      "buffer": 0,
      "byteOffset": 63552,
      "byteLength": 3600,
      "target": 34962
    }
  ],
  "buffers": [
    {
      "byteLength": 67152,
      "uri": "data:application/octet-stream;base64,"
    }
  ]
}