<?xml version="1.0" encoding="UTF-8"?>
<svg xmlns="http://www.w3.org/2000/svg" width="2000" height="2000" viewBox="0 0 2000 2000">
<g fill="none" stroke-linecap="round" stroke-linejoin="round">
  <path d="M 1290.81 2000.13 L 1289.70 1997.15 L 1288.93 1994.32 L 1288.62 1991.20 L 1287.37 1988.58 L 1286.85 1985.66 L 1285.62 1982.68 L 1285.05 1980.12 L 1284.23 1976.97 L 1283.32 1973.78 L 1282.27 1970.91 L 1281.51 1968.17 L 1280.53 1965.35 L 1280.27 1962.47 L 1278.62 1959.64 L 1278.37 1956.92 L 1277.20 1953.91 L 1276.41 1950.96 L 1275.94 1948.37 L 1274.73 1945.28 L 1273.83 1942.65 L 1273.28 1939.58 L 1272.22 1936.86 L 1271.76 1933.56 L 1270.74 1930.97 L 1269.76 1927.72 L 1268.91 1924.92 L 1268.33 1921.94 L 1267.04 1919.19 L 1266.57 1916.62 L 1265.79 1913.61 L 1264.85 1910.21 L 1263.71 1907.78 L 1263.22 1904.92 L 1262.20 1901.99 L 1261.31 1899.00 L 1260.37 1895.97 L 1259.59 1893.39 L 1258.55 1890.56 L 1258.54 1887.70 L 1257.37 1884.74 L 1256.46 1881.79 L 1255.53 1879.07 L 1254.44 1876.06 L 1253.99 1873.05 L 1253.05 1870.65 L 1252.47 1867.61 L 1251.61 1864.45 L 1250.45 1861.70 L 1249.80 1858.65 L 1248.67 1855.58 L 1247.76 1853.34 L 1247.27 1850.40 L 1246.21 1847.77 L 1245.65 1844.11 L 1244.89 1841.33 L 1243.67 1838.67 L 1242.95 1835.71 L 1242.02 1832.78 L 1241.38 1830.08 L 1240.17 1827.07 L 1239.65 1824.77 L 1238.63 1821.08 L 1238.27 1818.28 L 1237.28 1815.05 L 1236.11 1812.96 L 1235.72 1809.84 L 1234.89 1807.09 L 1233.81 1803.93 L 1232.98 1801.31 L 1231.96 1798.24 L 1231.54 1795.68 L 1230.34 1792.56 L 1229.70 1790.03 L 1228.79 1786.80 L 1227.90 1783.69 L 1227.14 1780.91 L 1226.38 1777.97 L 1225.24 1775.34 L 1224.40 1772.41 L 1223.56 1769.38 L 1223.05 1766.45 L 1221.68 1763.94 L 1220.77 1760.46 L 1220.59 1758.36 L 1219.64 1754.81 L 1218.34 1752.18 L 1217.69 1749.35 L 1216.93 1746.59 L 1216.48 1743.40 L 1215.40 1740.15 L 1214.74 1738.06 L 1213.74 1734.78 L 1213.04 1731.87 L 1211.90 1729.30 L 1211.24 1726.01 L 1210.47 1723.24 L 1209.57 1720.44 L 1208.69 1717.63 L 1207.82 1715.06 L 1206.88 1711.92 L 1206.15 1709.05 L 1205.25 1706.56 L 1204.46 1703.28 L 1203.31 1700.49 L 1202.75 1697.72 L 1202.32 1694.50 L 1201.08 1691.52 L 1200.12 1688.11 L 1199.52 1686.33 L 1198.53 1683.44 L 1197.72 1680.01 L 1196.57 1677.42 L 1196.17 1674.64 L 1195.02 1671.26 L 1194.87 1668.76 L 1193.69 1666.07 L 1192.64 1662.98 L 1191.85 1659.91 L 1190.72 1657.49 L 1190.28 1654.39 L 1189.38 1651.30 L 1189.13 1648.50 L 1187.70 1645.15 L 1186.52 1643.13 L 1185.94 1639.94 L 1185.47 1637.17 L 1184.25 1633.82 L 1183.51 1631.09 L 1182.86 1628.73 L 1181.97 1625.78 L 1181.54 1622.86 L 1179.78 1619.72 L 1179.36 1617.08 L 1178.63 1613.78 L 1177.65 1610.95 L 1176.76 1608.47 L 1176.15 1605.36 L 1174.98 1602.57 L 1174.00 1599.36 L 1173.58 1596.58 L 1172.37 1593.99 L 1172.10 1590.99 L 1170.82 1588.19 L 1170.27 1585.43 L 1169.31 1582.43 L 1168.33 1579.55 L 1167.68 1576.40 L 1166.73 1573.83 L 1165.74 1571.00 L 1165.18 1567.79 L 1164.06 1565.34 L 1163.53 1562.34 L 1162.44 1559.31 L 1161.87 1556.19 L 1161.10 1553.55 L 1160.30 1550.90 L 1159.20 1547.58 L 1158.36 1544.69 L 1157.77 1542.02 L 1157.06 1538.68 L 1156.14 1536.40 L 1155.11 1533.61 L 1154.16 1530.59 L 1153.12 1527.66 L 1152.69 1524.67 L 1151.44 1521.79 L 1150.70 1518.93 L 1150.14 1516.01 L 1149.35 1513.15 L 1148.46 1510.43 L 1147.69 1507.26 L 1146.67 1504.33 L 1145.96 1501.44 L 1144.88 1499.16 L 1143.69 1496.16 L 1143.37 1492.83 L 1142.40 1489.95 L 1141.74 1487.02 L 1140.79 1484.47 L 1139.93 1481.08 L 1138.98 1478.65 L 1138.08 1475.26 L 1137.64 1473.13 L 1136.75 1469.79 L 1135.97 1466.87 L 1135.02 1464.45 L 1134.21 1461.14 L 1133.07 1458.51 L 1132.88 1455.40 L 1131.77 1452.44 L 1130.27 1449.50 L 1130.05 1446.96 L 1128.81 1443.66 L 1128.07 1441.19 L 1127.53 1438.40 L 1126.71 1435.48 L 1125.93 1432.41 L 1125.04 1429.59 L 1124.05 1426.39 L 1122.89 1423.94 L 1122.34 1421.44 L 1121.53 1418.35 L 1120.22 1415.40 L 1119.89 1412.27 L 1118.97 1409.41 L 1118.14 1406.36 L 1117.51 1403.57 L 1116.65 1400.89 L 1115.51 1398.13 L 1115.26 1394.72 L 1114.36 1392.05 L 1113.42 1389.37 L 1112.56 1386.53 L 1111.32 1383.21 L 1110.99 1380.73 L 1109.79 1377.94 L 1108.98 1374.90 L 1108.34 1372.15 L 1107.56 1369.63 L 1106.45 1366.46 L 1105.61 1363.21 L 1104.51 1360.72 L 1103.56 1357.74 L 1103.34 1354.83 L 1102.05 1352.11 L 1101.31 1348.85 L 1100.75 1345.74 L 1099.65 1343.58 L 1099.16 1340.74 L 1098.18 1337.76 L 1097.42 1334.46 L 1096.46 1331.93 L 1095.70 1329.13 L 1094.79 1326.08 L 1093.88 1322.76 L 1093.17 1320.33 L 1092.26 1317.11 L 1091.15 1314.25 L 1090.34 1311.66 L 1090.00 1308.50 L 1088.91 1305.61 L 1088.02 1303.03 L 1086.87 1299.95 L 1086.44 1297.31 L 1085.63 1294.17 L 1084.67 1291.45 L 1083.80 1288.58 L 1083.18 1285.64 L 1082.18 1282.69 L 1081.60 1279.77 L 1080.48 1276.94 L 1079.35 1273.85 L 1078.64 1271.05 L 1078.08 1267.91 L 1077.11 1265.05 L 1076.29 1262.66 L 1075.79 1259.74 L 1074.95 1256.58 L 1074.03 1254.13 L 1073.03 1251.18 L 1072.22 1248.23 L 1071.43 1245.55 L 1070.50 1242.22 L 1069.59 1239.21 L 1068.85 1236.81 L 1067.57 1234.12 L 1067.19 1230.81 L 1066.42 1228.18 L 1065.54 1225.20 L 1064.85 1222.14 L 1063.74 1219.48 L 1062.95 1216.14 L 1062.38 1213.77 L 1061.17 1211.16 L 1060.32 1207.95 L 1059.79 1204.76 L 1058.70 1201.87 L 1058.24 1199.36 L 1056.79 1196.44 L 1056.36 1193.10 L 1055.63 1190.30 L 1054.73 1187.82 L 1053.65 1184.66 L 1053.03 1181.58 L 1052.07 1178.99 L 1051.17 1176.36 L 1050.45 1173.44 L 1049.55 1170.52 L 1048.83 1167.04 L 1047.62 1164.64 L 1047.05 1161.60 L 1046.11 1159.17 L 1045.63 1155.93 L 1044.65 1153.00 L 1043.53 1150.16 L 1043.06 1147.30 L 1042.41 1144.86 L 1041.21 1141.54 L 1040.34 1138.53 L 1039.55 1135.49 L 1038.51 1132.75 L 1037.79 1129.66 L 1036.75 1127.41 L 1036.36 1123.90 L 1035.68 1121.34 L 1035.03 1118.31 L 1033.91 1115.47 L 1032.39 1112.45 L 1032.09 1109.92 L 1030.91 1107.16 L 1030.29 1104.45 L 1029.16 1101.39 L 1028.64 1098.38 L 1027.46 1095.17 L 1026.97 1092.41 L 1025.87 1089.91 L 1025.40 1086.68 L 1024.66 1084.15 L 1023.79 1081.38 L 1022.37 1078.46 L 1021.63 1074.90 L 1020.96 1072.58 L 1020.27 1069.51 L 1019.19 1066.95 L 1019.08 1063.70 L 1018.02 1060.90 L 1016.57 1058.16 L 1015.89 1054.63 L 1015.49 1052.17 L 1014.37 1049.24 L 1013.76 1046.60 L 1012.51 1043.68 L 1011.97 1040.89 L 1011.19 1037.80 L 1010.20 1035.17 L 1009.79 1032.17 L 1009.14 1029.28 L 1007.60 1026.03 L 1007.09 1023.58 L 1005.98 1020.67 L 1004.74 1017.80 L 1004.42 1015.09 L 1003.83 1011.88 L 1002.68 1008.67 L 1001.90 1005.87 L 1001.11 1003.18 L 1000.11 1000.32 L 1000.00 1000.00 L 999.15 997.12 L 998.31 994.24 L 997.46 991.37 L 996.60 988.49 L 995.75 985.61 L 994.92 982.73 L 994.07 979.86 L 993.21 976.98 L 992.34 974.11 L 991.48 971.23 L 990.63 968.36 L 989.77 965.49 L 988.90 962.61 L 988.03 959.74 L 987.15 956.87 L 986.28 954.00 L 985.42 951.13 L 984.56 948.25 L 983.71 945.38 L 982.86 942.50 L 982.00 939.63 L 981.16 936.75 L 980.32 933.87 L 979.49 930.98 L 978.65 928.10 L 977.82 925.22 L 976.99 922.34 L 976.15 919.46 L 975.32 916.58 L 974.49 913.69 L 973.66 910.81 L 972.83 907.92 L 972.02 905.04 L 971.20 902.15 L 970.38 899.27 L 969.55 896.38 L 968.75 893.49 L 967.93 890.61 L 967.13 887.72 L 966.33 884.82 L 965.52 881.94 L 964.71 879.05 L 963.89 876.16 L 963.09 873.27 L 962.29 870.38 L 961.49 867.49 L 960.67 864.60 L 959.86 861.71 L 959.05 858.82 L 958.24 855.93 L 957.44 853.04 L 956.65 850.15 L 955.87 847.25 L 955.09 844.35 L 954.31 841.46 L 953.51 838.57 L 952.71 835.68 L 951.92 832.78 L 951.13 829.89 L 950.35 826.99 L 949.57 824.10 L 948.77 821.20 L 947.97 818.31 L 947.19 815.42 L 946.42 812.51 L 945.64 809.62 L 944.86 806.72 L 944.08 803.82 L 943.29 800.93 L 942.49 798.04 L 941.67 795.15 L 940.84 792.27 L 940.02 789.38 L 939.21 786.50 L 938.40 783.61 L 937.59 780.72 L 936.77 777.83 L 935.92 774.96 L 935.08 772.08 L 934.22 769.20 L 933.37 766.33 L 932.51 763.45 L 931.66 760.57 L 930.82 757.70 L 929.97 754.82 L 929.13 751.94 L 928.27 749.06 L 927.43 746.18 L 926.58 743.31 L 925.73 740.43 L 924.88 737.55 L 924.02 734.68 L 923.15 731.81 L 922.29 728.93 L 921.43 726.06 L 920.58 723.18 L 919.72 720.31 L 918.85 717.43 L 917.98 714.56 L 917.13 711.69 L 916.27 708.81 L 915.40 705.94 L 914.53 703.07 L 913.68 700.20 L 912.81 697.32 L 911.94 694.45 L 911.05 691.59 L 910.16 688.72 L 909.28 685.86 L 908.41 682.98 L 907.56 680.11 L 906.71 677.23 L 905.85 674.35 L 904.99 671.48 L 904.14 668.60 L 903.32 665.72 L 902.50 662.83 L 901.67 659.95 L 900.86 657.06 L 900.04 654.18 L 899.22 651.29 L 898.40 648.40 L 897.57 645.52 L 896.77 642.63 L 895.96 639.74 L 895.14 636.85 L 894.32 633.97 L 893.49 631.09 L 892.67 628.20 L 891.85 625.32 L 891.04 622.43 L 890.23 619.54 L 889.40 616.65 L 888.57 613.77 L 887.73 610.89 L 886.88 608.01 L 886.02 605.14 L 885.15 602.27 L 884.27 599.40 L 883.39 596.53 L 882.52 593.66 L 881.65 590.79 L 880.78 587.92 L 879.90 585.05 L 879.03 582.18 L 878.14 579.32 L 877.24 576.46 L 876.33 573.60 L 875.43 570.73 L 874.54 567.87 L 873.64 565.01 L 872.76 562.14 L 871.88 559.27 L 871.01 556.40 L 870.15 553.53 L 869.28 550.65 L 868.41 547.78 L 867.54 544.91 L 866.64 542.05 L 865.75 539.19 L 864.86 536.32 L 863.97 533.46 L 863.08 530.59 L 862.20 527.72 L 861.32 524.86 L 860.43 521.99 L 859.55 519.12 L 858.67 516.25 L 857.80 513.38 L 856.91 510.52 L 856.02 507.65 L 855.14 504.78 L 854.27 501.91 L 853.39 499.05 L 852.50 496.18 L 851.61 493.32 L 850.73 490.45 L 849.86 487.58 L 848.98 484.71 L 848.10 481.84 L 847.22 478.97 L 846.33 476.11 L 845.45 473.24 L 844.58 470.37 L 843.72 467.50 L 842.83 464.63 L 841.94 461.76 L 841.05 458.90 L 840.16 456.04 L 839.26 453.17 L 838.38 450.31 L 837.50 447.44 L 836.65 444.56 L 835.79 441.69 L 834.92 438.82 L 834.06 435.94 L 833.19 433.07 L 832.31 430.20 L 831.46 427.33 L 830.60 424.45 L 829.74 421.57 L 828.89 418.70 L 828.05 415.82 L 827.21 412.94 L 826.38 410.06 L 825.55 407.17 L 824.73 404.29 L 823.89 401.41 L 823.06 398.52 L 822.21 395.65 L 821.36 392.77 L 820.50 389.90 L 819.63 387.03 L 818.75 384.16 L 817.87 381.29 L 816.99 378.42 L 816.12 375.55 L 815.24 372.68 L 814.35 369.82 L 813.48 366.95 L 812.60 364.08 L 811.70 361.22 L 810.81 358.35 L 809.92 355.49 L 809.02 352.62 L 808.12 349.76 L 807.24 346.90 L 806.35 344.03 L 805.46 341.16 L 804.58 338.30 L 803.69 335.43 L 802.80 332.57 L 801.90 329.70 L 801.01 326.84 L 800.11 323.98 L 799.21 321.12 L 798.28 318.26 L 797.36 315.41 L 796.44 312.55 L 795.52 309.70 L 794.60 306.84 L 793.68 303.99 L 792.77 301.13 L 791.85 298.27 L 790.95 295.41 L 790.04 292.55 L 789.14 289.69 L 788.23 286.83 L 787.32 283.97 L 786.42 281.11 L 785.52 278.25 L 784.62 275.39 L 783.74 272.52 L 782.85 269.65 L 781.97 266.79 L 781.09 263.92 L 780.20 261.05 L 779.34 258.18 L 778.46 255.31 L 777.58 252.44 L 776.68 249.58 L 775.79 246.72 L 774.89 243.85 L 773.98 240.99 L 773.07 238.14 L 772.16 235.28 L 771.25 232.42 L 770.34 229.56 L 769.43 226.70 L 768.54 223.84 L 767.65 220.97 L 766.75 218.11 L 765.85 215.25 L 764.96 212.38 L 764.09 209.51 L 763.22 206.64 L 762.36 203.77 L 761.50 200.89 L 760.65 198.02 L 759.80 195.14 L 758.94 192.27 L 758.10 189.39 L 757.26 186.51 L 756.43 183.62 L 755.60 180.74 L 754.78 177.85 L 753.96 174.97 L 753.16 172.08 L 752.35 169.19 L 751.54 166.30 L 750.73 163.41 L 749.91 160.53 L 749.10 157.64 L 748.30 154.75 L 747.47 151.86 L 746.64 148.98 L 745.82 146.10 L 744.99 143.21 L 744.17 140.33 L 743.34 137.44 L 742.49 134.57 L 741.64 131.69 L 740.79 128.81 L 739.93 125.94 L 739.08 123.06 L 738.22 120.18 L 737.37 117.31 L 736.51 114.43 L 735.66 111.56 L 734.82 108.68 L 733.98 105.80 L 733.14 102.92 L 732.30 100.04 L 731.46 97.16 L 730.62 94.28 L 729.79 91.40 L 728.96 88.51 L 728.13 85.63 L 727.30 82.75 L 726.47 79.86 L 725.64 76.98 L 724.82 74.10 L 723.99 71.21 L 723.17 68.33 L 722.34 65.44 L 721.51 62.56 L 720.68 59.68 L 719.86 56.79 L 719.03 53.91 L 718.20 51.02 L 717.38 48.14 L 716.55 45.26 L 715.72 42.37 L 714.89 39.49 L 714.05 36.61 L 713.20 33.73 L 712.37 30.85 L 711.55 27.97 L 710.72 25.08 L 709.91 22.19 L 709.11 19.30 L 708.31 16.41 L 707.52 13.52 L 706.74 10.62 L 705.96 7.72 L 705.17 4.83 L 704.40 1.93 L 703.62 -0.97 L 702.84 -3.86 L 702.10 -6.77 L 701.34 -9.67 L 700.58 -12.58 L 699.81 -15.48 L 699.06 -18.38 L 698.31 -21.28" stroke="rgb(245,245,245)" stroke-opacity="0.958" stroke-width="1.83" />
  <path d="M 1001.15 999.49 L 1000.12 996.36 L 999.00 993.28 L 997.91 990.21 L 996.85 987.13 L 995.75 984.09 L 994.69 981.04 L 993.63 978.01 L 992.57 974.99 L 991.51 971.99 L 990.48 968.98 L 989.47 965.99 L 988.40 963.03 L 987.35 960.08 L 986.21 957.17 L 985.09 954.27 L 983.98 951.37 L 982.86 948.50 L 981.74 945.63 L 980.67 942.77 L 979.63 939.90 L 978.59 937.05 L 977.54 934.21 L 976.48 931.39 L 975.43 928.58 L 974.44 925.76 L 973.39 922.97 L 972.37 920.19 L 971.45 917.39 L 970.50 914.60 L 969.59 911.82 L 968.70 909.04 L 967.89 906.25 L 967.14 903.45 L 966.38 900.68 L 965.65 897.90 L 964.90 895.14 L 964.19 892.38 L 963.47 889.64 L 962.71 886.92 L 961.88 884.23 L 961.06 881.55 L 960.26 878.87 L 959.46 876.21 L 958.72 873.54 L 958.01 870.88 L 957.32 868.22 L 956.61 865.57 L 955.84 862.96 L 955.05 860.36 L 954.24 857.78 L 953.45 855.21 L 952.74 852.62 L 952.02 850.05 L 951.36 847.47 L 950.69 844.91 L 950.01 842.36 L 949.30 839.83 L 948.68 837.28 L 948.03 834.76 L 947.40 832.24 L 946.78 829.73 L 946.11 827.24 L 945.49 824.75 L 944.82 822.28 L 944.22 819.81 L 943.55 817.36 L 942.92 814.92 L 942.23 812.50 L 941.56 810.08 L 940.85 807.69 L 940.19 805.30 L 939.49 802.92 L 938.79 800.56 L 938.15 798.19 L 937.55 795.82 L 936.97 793.45 L 936.40 791.09 L 935.86 788.74 L 935.39 786.38 L 934.92 784.03" stroke="rgb(120,210,255)" stroke-opacity="0.855" stroke-width="1.64" />
  <path d="M 999.99 1000.92 L 998.95 997.58 L 997.88 994.27 L 996.84 990.97 L 995.82 987.67 L 994.83 984.37 L 993.88 981.08 L 992.92 977.81 L 991.95 974.55 L 991.00 971.30 L 990.03 968.08 L 989.05 964.87 L 988.12 961.66 L 987.23 958.44 L 986.45 955.22 L 985.69 952.01 L 984.91 948.81 L 984.08 945.64 L 983.26 942.48 L 982.44 939.33" stroke="rgb(120,210,255)" stroke-opacity="0.855" stroke-width="1.64" />
  <path d="M 1001.28 1000.86 L 1000.16 997.88 L 999.05 994.91 L 997.91 991.96 L 996.76 989.03 L 995.57 986.13 L 994.37 983.25 L 993.12 980.40 L 991.78 977.60 L 990.46 974.81" stroke="rgb(120,210,255)" stroke-opacity="0.854" stroke-width="1.63" />
  <path d="M 998.54 1000.99 L 997.86 997.82 L 997.16 994.65 L 996.45 991.51 L 995.74 988.37 L 994.94 985.28 L 994.15 982.19 L 993.46 979.09 L 992.83 975.99 L 992.25 972.90 L 991.71 969.81 L 991.22 966.72 L 990.71 963.65 L 990.27 960.59 L 989.93 957.52 L 989.59 954.47 L 989.27 951.42 L 988.97 948.39 L 988.62 945.37 L 988.37 942.35 L 988.09 939.35 L 987.81 936.37 L 987.50 933.39 L 987.24 930.43 L 986.97 927.48 L 986.71 924.53 L 986.46 921.60 L 986.20 918.69 L 985.90 915.78 L 985.65 912.89 L 985.39 910.00 L 985.12 907.13 L 984.81 904.28" stroke="rgb(120,210,255)" stroke-opacity="0.852" stroke-width="1.63" />
  <path d="M 1002.34 1000.39 L 1001.43 997.32 L 1000.39 994.30 L 999.34 991.30 L 998.28 988.32 L 997.20 985.35 L 996.14 982.40 L 995.04 979.47 L 993.97 976.55 L 992.96 973.61 L 991.93 970.70 L 990.91 967.79 L 989.88 964.91 L 988.95 962.00 L 988.01 959.11 L 987.08 956.22 L 986.16 953.35 L 985.24 950.49 L 984.32 947.64 L 983.35 944.82 L 982.40 942.01 L 981.39 939.23 L 980.41 936.45 L 979.46 933.68 L 978.53 930.91 L 977.61 928.15 L 976.70 925.40 L 975.75 922.67 L 974.79 919.96 L 973.88 917.24 L 972.97 914.54 L 972.02 911.86 L 971.07 909.20 L 970.09 906.56 L 969.12 903.92 L 968.14 901.30 L 967.15 898.70 L 966.14 896.12 L 965.17 893.53 L 964.25 890.94 L 963.30 888.37 L 962.32 885.82 L 961.32 883.29 L 960.30 880.79 L 959.29 878.29 L 958.18 875.84 L 957.08 873.40 L 955.99 870.97 L 954.83 868.58 L 953.68 866.20 L 952.53 863.83 L 951.34 861.50 L 950.16 859.17 L 949.00 856.84 L 947.78 854.55 L 946.50 852.31 L 945.19 850.10 L 943.94 847.87" stroke="rgb(120,210,255)" stroke-opacity="0.849" stroke-width="1.62" />
  <path d="M 1002.10 998.98 L 1001.34 996.12 L 1000.57 993.26 L 999.84 990.41 L 999.12 987.57 L 998.48 984.72 L 997.69 981.92 L 996.98 979.11 L 996.23 976.33 L 995.50 973.55 L 994.82 970.77 L 994.13 968.00 L 993.45 965.25 L 992.76 962.50 L 992.09 959.77 L 991.35 957.06 L 990.56 954.38 L 989.74 951.73 L 988.89 949.09 L 987.96 946.49 L 986.98 943.92 L 986.06 941.34 L 985.12 938.78 L 984.20 936.22 L 983.33 933.66 L 982.37 931.14 L 981.44 928.63 L 980.41 926.15 L 979.47 923.67 L 978.49 921.20" stroke="rgb(120,210,255)" stroke-opacity="0.466" stroke-width="1.62" />
  <path d="M 1000.76 999.12 L 999.82 995.79 L 998.88 992.47 L 997.98 989.16 L 997.06 985.87 L 996.10 982.60 L 995.08 979.37 L 994.06 976.15 L 993.06 972.93 L 992.12 969.72 L 991.17 966.52 L 990.18 963.35 L 989.23 960.17 L 988.24 957.03 L 987.27 953.89 L 986.30 950.77 L 985.34 947.65 L 984.39 944.55 L 983.48 941.45 L 982.57 938.36 L 981.64 935.30 L 980.74 932.23 L 979.87 929.17 L 979.02 926.12 L 978.18 923.08 L 977.31 920.06 L 976.41 917.06 L 975.48 914.09 L 974.52 911.14 L 973.56 908.19 L 972.57 905.28 L 971.59 902.37 L 970.60 899.48 L 969.61 896.60 L 968.63 893.73" stroke="rgb(120,210,255)" stroke-opacity="0.840" stroke-width="1.59" />
  <path d="M 998.54 1001.58 L 997.91 999.45 L 997.27 997.32 L 996.61 995.20 L 995.85 993.14 L 995.06 991.09 L 994.40 989.00 L 993.77 986.92 L 993.09 984.86 L 992.43 982.80 L 991.74 980.76 L 991.08 978.72 L 990.52 976.67 L 989.86 974.65 L 989.12 972.66 L 988.40 970.68 L 987.77 968.68 L 987.16 966.67 L 986.44 964.72 L 985.68 962.79 L 985.03 960.83 L 984.32 958.89 L 983.58 956.98 L 982.83 955.08 L 982.08 953.19 L 981.28 951.33 L 980.51 949.46 L 979.80 947.58 L 979.02 945.74 L 978.20 943.92 L 977.49 942.07 L 976.68 940.26" stroke="rgb(140,255,190)" stroke-opacity="0.571" stroke-width="1.25" />
  <path d="M 976.75 948.10 L 974.04 946.00 L 971.30 943.96 L 968.53 941.98 L 965.75 940.04 L 962.99 938.09 L 960.27 936.11 L 957.52 934.21 L 954.68 932.45 L 951.90 930.63 L 949.10 928.87 L 946.32 927.09 L 943.55 925.33 L 940.83 923.52" stroke="rgb(205,165,255)" stroke-opacity="0.720" stroke-width="1.24" />
  <path d="M 1000.65 999.50 L 997.25 999.33 L 993.87 999.20 L 990.50 999.03 L 987.14 998.88 L 983.80 998.79 L 980.47 998.76 L 977.15 998.79 L 973.84 998.82 L 970.55 998.86 L 967.27 998.85 L 964.00 998.78 L 960.75 998.66 L 957.51 998.56 L 954.29 998.42 L 951.08 998.29 L 947.88 998.08 L 944.70 997.93 L 941.52 997.82 L 938.36 997.69 L 935.21 997.59 L 932.08 997.48 L 928.95 997.39" stroke="rgb(205,165,255)" stroke-opacity="0.715" stroke-width="1.23" />
  <path d="M 1001.25 1000.82 L 998.65 998.65 L 996.06 996.50 L 993.52 994.30 L 990.97 992.14 L 988.45 989.97 L 985.92 987.83 L 983.40 985.69 L 980.88 983.57 L 978.36 981.49 L 975.88 979.36 L 973.48 977.17 L 971.09 974.99 L 968.68 972.84 L 966.23 970.77 L 963.75 968.75 L 961.28 966.74" stroke="rgb(205,165,255)" stroke-opacity="0.715" stroke-width="1.23" />
  <path d="M 999.49 1000.56 L 999.06 998.34 L 998.64 996.13 L 998.27 993.92 L 997.76 991.75 L 997.28 989.58 L 996.59 987.47 L 995.84 985.40 L 995.01 983.36 L 994.43 981.25 L 993.87 979.15 L 993.27 977.06 L 992.65 974.99" stroke="rgb(140,255,190)" stroke-opacity="0.560" stroke-width="1.21" />
  <path d="M 1001.66 1000.69 L 998.41 1000.21 L 995.18 999.77 L 991.94 999.38 L 988.72 999.02 L 985.50 998.71 L 982.30 998.41 L 979.11 998.13 L 975.93 997.87 L 972.76 997.67 L 969.59 997.50 L 966.44 997.39 L 963.30 997.25 L 960.18 997.11 L 957.07 996.90 L 953.97 996.74 L 950.88 996.60 L 947.81 996.43 L 944.75 996.28 L 941.70 996.08 L 938.66 995.92 L 935.64 995.70 L 932.63 995.56 L 929.63 995.41 L 926.64 995.22 L 923.67 995.01 L 920.71 994.77 L 917.76 994.48 L 914.83 994.22 L 911.90 994.06 L 908.98 993.96 L 906.07 993.87 L 903.17 993.86 L 900.28 993.85 L 897.41 993.86 L 894.54 993.83 L 891.69 993.86 L 888.85 993.90 L 886.02 993.91 L 883.20 993.97 L 880.40 993.98 L 877.60 993.97 L 874.82 993.89 L 872.04 993.81 L 869.28 993.72 L 866.53 993.59 L 863.80 993.47 L 861.07 993.40 L 858.35 993.31 L 855.64 993.25 L 852.95 993.15 L 850.27 992.98 L 847.60 992.82 L 844.93 992.69 L 842.29 992.52 L 839.65 992.32 L 837.02 992.17 L 834.40 992.02 L 831.79 991.90 L 829.20 991.74 L 826.61 991.54 L 824.04 991.31 L 821.49 991.04 L 818.94 990.76 L 816.41 990.48 L 813.89 990.18" stroke="rgb(205,165,255)" stroke-opacity="0.707" stroke-width="1.21" />
  <path d="M 960.75 998.66 L 958.12 996.59 L 955.48 994.56 L 952.81 992.57 L 950.16 990.59 L 947.55 988.59 L 944.92 986.62 L 942.28 984.69 L 939.67 982.75 L 937.05 980.83 L 934.45 978.91 L 931.89 976.97 L 929.39 974.96 L 926.90 972.97 L 924.39 971.01 L 921.90 969.06 L 919.41 967.13 L 916.89 965.25" stroke="rgb(205,165,255)" stroke-opacity="0.706" stroke-width="1.21" />
  <path d="M 860.26 739.39 L 859.70 737.15 L 859.10 734.92 L 858.44 732.73 L 857.85 730.52 L 857.27 728.32 L 856.41 726.22 L 855.73 724.07 L 854.96 721.95 L 854.16 719.86 L 853.42 717.76 L 852.81 715.62 L 852.42 713.44 L 851.93 711.29 L 851.46 709.15 L 850.89 707.04 L 850.34 704.93 L 849.89 702.81 L 849.66 700.66 L 849.63 698.51 L 849.75 696.36 L 849.85 694.23 L 849.91 692.11 L 850.12 690.00 L 850.28 687.90 L 850.58 685.82 L 850.98 683.76 L 851.41 681.72 L 852.01 679.73 L 852.73 677.80 L 853.47 675.88 L 854.27 673.99 L 855.29 672.22 L 856.11 670.36 L 857.01 668.54 L 857.99 666.78 L 858.93 665.00 L 859.68 663.14" stroke="rgb(140,255,190)" stroke-opacity="0.558" stroke-width="1.20" />
  <path d="M 1000.85 998.62 L 999.58 995.39 L 998.30 992.17 L 997.03 988.96 L 995.73 985.78 L 994.38 982.63 L 993.03 979.50 L 991.70 976.37 L 990.39 973.25 L 989.14 970.13 L 987.83 967.04 L 986.54 963.96 L 985.27 960.88 L 984.02 957.81 L 982.82 954.73 L 981.61 951.67 L 980.38 948.64 L 979.08 945.65 L 977.82 942.65 L 976.55 939.68 L 975.31 936.70 L 974.07 933.74 L 972.85 930.78 L 971.59 927.85 L 970.35 924.94 L 969.12 922.03 L 967.92 919.12 L 966.76 916.20 L 965.60 913.31 L 964.41 910.43 L 963.21 907.58 L 961.98 904.75 L 960.72 901.95 L 959.49 899.15 L 958.28 896.35 L 957.12 893.54 L 955.96 890.75 L 954.78 887.98 L 953.57 885.24 L 952.36 882.51 L 951.19 879.77 L 950.00 877.06 L 948.80 874.36 L 947.62 871.67 L 946.40 869.01 L 945.21 866.34 L 943.99 863.71 L 942.78 861.08 L 941.53 858.49 L 940.32 855.89 L 939.09 853.30 L 937.89 850.72 L 936.65 848.17 L 935.44 845.62 L 934.21 843.09 L 932.98 840.58 L 931.78 838.05 L 930.56 835.56 L 929.36 833.06 L 928.18 830.57 L 927.02 828.08 L 925.85 825.61 L 924.71 823.13 L 923.60 820.66 L 922.46 818.21 L 921.32 815.77 L 920.18 813.35 L 919.06 810.92 L 917.96 808.50 L 916.85 806.09 L 915.73 803.71 L 914.62 801.33 L 913.52 798.95 L 912.45 796.58 L 911.38 794.21 L 910.31 791.86 L 909.28 789.50 L 908.24 787.15 L 907.19 784.82 L 906.13 782.51 L 905.06 780.21 L 903.98 777.93 L 902.91 775.65 L 901.88 773.37 L 900.80 771.12 L 899.72 768.88 L 898.65 766.65 L 897.60 764.42 L 896.58 762.19 L 895.59 759.96 L 894.59 757.74 L 893.56 755.54 L 892.53 753.36 L 891.49 751.19 L 890.45 749.03 L 889.41 746.88 L 888.37 744.75 L 887.38 742.59 L 886.41 740.45 L 885.46 738.30 L 884.52 736.16 L 883.59 734.02 L 882.67 731.89 L 881.75 729.77 L 880.85 727.65 L 879.94 725.54 L 879.06 723.44 L 878.15 721.35 L 877.28 719.26 L 876.41 717.18" stroke="rgb(140,255,190)" stroke-opacity="0.739" stroke-width="1.19" />
  <path d="M 982.18 947.75 L 980.54 944.71 L 978.89 941.69 L 977.19 938.71 L 975.53 935.73 L 973.87 932.76 L 972.28 929.78 L 970.65 926.83 L 969.07 923.86 L 967.49 920.91 L 965.88 918.00 L 964.27 915.09 L 962.61 912.24 L 960.98 909.38 L 959.33 906.54 L 957.74 903.69 L 956.15 900.86 L 954.55 898.04 L 952.93 895.25 L 951.25 892.51 L 949.60 889.76 L 947.95 887.03 L 946.28 884.34 L 944.59 881.66 L 942.97 878.96 L 941.34 876.28 L 939.73 873.60" stroke="rgb(140,255,190)" stroke-opacity="0.739" stroke-width="1.19" />
  <path d="M 971.31 935.02 L 969.08 932.74 L 966.86 930.49 L 964.55 928.34 L 962.23 926.21 L 959.93 924.09 L 957.66 921.95 L 955.40 919.82 L 953.17 917.68 L 950.92 915.57 L 948.75 913.40 L 946.57 911.26 L 944.44 909.08 L 942.42 906.82 L 940.36 904.62 L 938.29 902.43 L 936.23 900.25 L 934.22 898.05 L 932.23 895.84 L 930.18 893.70 L 928.17 891.55 L 926.29 889.30 L 924.43 887.04 L 922.64 884.74 L 920.84 882.47 L 919.17 880.10 L 917.55 877.73 L 915.86 875.41 L 914.07 873.19 L 912.32 870.95 L 910.58 868.71 L 908.91 866.44 L 907.23 864.18 L 905.62 861.90 L 903.94 859.67 L 902.18 857.53 L 900.39 855.42 L 898.59 853.34 L 896.77 851.28 L 894.92 849.27 L 893.04 847.30 L 891.24 845.27 L 889.44 843.26 L 887.73 841.19 L 886.15 839.03 L 884.62 836.84 L 883.10 834.66" stroke="rgb(205,165,255)" stroke-opacity="0.700" stroke-width="1.19" />
  <path d="M 982.18 947.75 L 982.31 945.39 L 982.33 943.04 L 982.37 940.70 L 982.30 938.37 L 982.25 936.05 L 982.17 933.73 L 982.22 931.43 L 982.41 929.14 L 982.52 926.86 L 982.61 924.58 L 982.85 922.33 L 983.05 920.08 L 983.15 917.83 L 983.27 915.60 L 983.51 913.38 L 983.78 911.17" stroke="rgb(140,255,190)" stroke-opacity="0.552" stroke-width="1.18" />
  <path d="M 1001.51 1002.34 L 1000.33 999.48 L 999.14 996.63 L 997.90 993.82 L 996.69 991.01 L 995.41 988.24 L 994.11 985.50 L 992.81 982.77 L 991.49 980.07 L 990.18 977.37 L 988.92 974.66 L 987.71 971.95 L 986.48 969.25 L 985.23 966.58 L 983.97 963.92 L 982.68 961.30 L 981.50 958.63 L 980.28 955.99 L 979.10 953.35 L 977.92 950.72 L 976.75 948.10 L 975.65 945.47 L 974.59 942.83 L 973.47 940.22 L 972.37 937.62 L 971.31 935.02 L 970.20 932.44 L 969.17 929.85 L 968.13 927.27 L 967.07 924.72" stroke="rgb(205,165,255)" stroke-opacity="0.488" stroke-width="1.18" />
  <path d="M 1002.33 1000.41 L 1001.33 997.22 L 1000.35 994.03 L 999.37 990.85 L 998.38 987.69 L 997.40 984.55 L 996.44 981.41 L 995.54 978.27 L 994.64 975.14 L 993.75 972.02 L 992.90 968.90 L 992.08 965.79 L 991.31 962.68 L 990.60 959.57 L 989.97 956.45 L 989.30 953.36 L 988.64 950.27 L 987.98 947.20 L 987.35 944.14 L 986.71 941.09 L 986.09 938.05 L 985.49 935.01 L 984.92 931.99" stroke="rgb(140,255,190)" stroke-opacity="0.734" stroke-width="1.18" />
  <path d="M 985.81 913.57 L 986.11 910.12 L 986.46 906.70 L 986.80 903.29 L 987.24 899.91 L 987.61 896.53 L 987.97 893.16 L 988.33 889.81 L 988.69 886.47 L 989.10 883.15 L 989.46 879.84 L 989.87 876.54 L 990.26 873.26 L 990.59 869.99 L 990.90 866.72 L 991.14 863.46 L 991.42 860.22 L 991.73 857.00 L 991.98 853.78 L 992.27 850.58 L 992.64 847.40 L 993.01 844.23 L 993.39 841.08 L 993.76 837.94 L 994.22 834.82 L 994.68 831.72 L 995.15 828.63 L 995.61 825.55 L 996.06 822.49 L 996.49 819.43 L 996.89 816.38 L 997.26 813.34 L 997.56 810.30" stroke="rgb(140,255,190)" stroke-opacity="0.733" stroke-width="1.18" />
  <path d="M 999.95 997.51 L 999.41 995.22 L 998.80 992.95 L 998.22 990.68 L 997.55 988.45 L 996.90 986.23 L 996.44 983.96 L 995.88 981.73 L 995.23 979.53 L 994.54 977.36 L 993.83 975.20 L 993.12 973.05 L 992.45 970.89 L 991.80 968.74 L 991.12 966.61 L 990.42 964.50 L 989.73 962.39 L 989.04 960.29 L 988.31 958.21 L 987.61 956.13 L 986.95 954.05 L 986.44 951.93 L 985.95 949.82 L 985.41 947.73 L 984.96 945.63 L 984.54 943.53 L 984.13 941.44 L 983.76 939.35 L 983.53 937.24 L 983.25 935.16 L 982.95 933.08 L 982.69 931.01 L 982.43 928.94 L 982.37 926.87 L 982.44 924.80 L 982.44 922.75 L 982.43 920.70 L 982.38 918.66 L 982.36 916.63 L 982.20 914.61 L 982.03 912.60 L 981.83 910.60 L 981.53 908.62 L 981.19 906.66 L 980.84 904.71 L 980.43 902.78 L 980.07 900.84 L 979.73 898.91 L 979.43 896.98 L 978.94 895.10 L 978.52 893.21 L 978.14 891.32 L 977.67 889.46 L 977.13 887.62 L 976.55 885.80 L 975.91 884.02 L 975.29 882.23 L 974.74 880.43 L 974.31 878.60 L 974.00 876.76 L 973.69 874.92 L 973.36 873.10 L 973.04 871.28 L 972.75 869.47" stroke="rgb(140,255,190)" stroke-opacity="0.548" stroke-width="1.17" />
  <path d="M 990.46 884.89 L 991.79 881.89 L 993.14 878.92 L 994.42 875.93 L 995.49 872.88 L 996.50 869.81 L 997.51 866.77 L 998.45 863.71 L 999.31 860.64 L 1000.03 857.55 L 1000.71 854.46 L 1001.48 851.41 L 1002.18 848.35 L 1002.87 845.30 L 1003.55 842.27 L 1004.18 839.24 L 1004.85 836.22 L 1005.49 833.22 L 1006.18 830.23 L 1006.93 827.28 L 1007.57 824.31 L 1008.20 821.35 L 1008.82 818.40 L 1009.53 815.49 L 1010.08 812.55 L 1010.68 809.63 L 1011.21 806.72 L 1011.78 803.82 L 1012.28 800.92 L 1012.70 798.02 L 1013.04 795.12 L 1013.39 792.24 L 1013.85 789.38 L 1014.41 786.55 L 1015.03 783.75 L 1015.61 780.95 L 1016.25 778.17 L 1016.94 775.42 L 1017.67 772.69 L 1018.38 769.97 L 1019.02 767.24 L 1019.64 764.52 L 1020.25 761.80 L 1020.77 759.08 L 1021.25 756.37 L 1021.75 753.66 L 1022.31 750.98 L 1022.86 748.32 L 1023.40 745.65 L 1023.96 743.01 L 1024.59 740.39 L 1025.18 737.78 L 1025.81 735.18 L 1026.49 732.61 L 1027.18 730.05 L 1027.97 727.53 L 1028.78 725.03 L 1029.61 722.55 L 1030.48 720.09 L 1031.31 717.62 L 1032.05 715.15 L 1032.79 712.68 L 1033.56 710.23 L 1034.34 707.79 L 1035.04 705.35 L 1035.85 702.94 L 1036.58 700.52 L 1037.34 698.13 L 1038.06 695.73 L 1038.74 693.33 L 1039.43 690.94 L 1040.17 688.58 L 1040.86 686.21 L 1041.52 683.84 L 1042.16 681.48" stroke="rgb(140,255,190)" stroke-opacity="0.729" stroke-width="1.17" />
  <path d="M 1003.00 1004.88 L 1003.84 1001.72 L 1004.69 998.57 L 1005.50 995.42 L 1006.32 992.29 L 1007.16 989.18 L 1008.01 986.09 L 1008.88 983.01 L 1009.70 979.93 L 1010.54 976.88 L 1011.36 973.82 L 1012.13 970.78 L 1012.97 967.76 L 1013.86 964.77 L 1014.74 961.78 L 1015.54 958.79 L 1016.31 955.81 L 1017.03 952.82 L 1017.72 949.84 L 1018.46 946.89" stroke="rgb(140,255,190)" stroke-opacity="0.727" stroke-width="1.16" />
  <path d="M 996.78 999.57 L 995.68 996.42 L 994.59 993.28 L 993.54 990.14 L 992.47 987.02 L 991.33 983.94 L 990.22 980.86 L 989.04 977.82 L 987.87 974.79 L 986.67 971.79 L 985.57 968.76 L 984.35 965.79 L 983.17 962.83 L 982.01 959.87 L 980.84 956.92 L 979.67 953.99 L 978.49 951.07 L 977.33 948.16 L 976.19 945.26 L 975.07 942.36 L 973.87 939.51 L 972.63 936.69 L 971.37 933.89 L 970.15 931.09 L 968.90 928.32 L 967.66 925.55 L 966.47 922.77 L 965.25 920.02 L 964.03 917.28 L 962.88 914.53 L 961.80 911.76 L 960.70 909.01 L 959.67 906.25" stroke="rgb(140,255,190)" stroke-opacity="0.727" stroke-width="1.16" />
  <path d="M 1001.40 999.67 L 1000.36 996.52 L 999.29 993.39 L 998.23 990.27 L 997.14 987.18 L 996.05 984.10 L 995.02 981.01 L 994.04 977.93 L 993.10 974.84 L 992.15 971.77 L 991.11 968.74 L 990.03 965.74 L 988.93 962.76 L 987.84 959.79 L 986.75 956.83 L 985.68 953.88 L 984.64 950.94 L 983.58 948.01 L 982.51 945.10 L 981.34 942.24 L 980.24 939.37 L 979.17 936.50 L 978.03 933.67 L 976.87 930.86 L 975.73 928.05 L 974.59 925.26 L 973.45 922.49 L 972.34 919.71 L 971.34 916.90 L 970.31 914.12 L 969.28 911.35 L 968.20 908.61 L 967.09 905.89 L 966.07 903.16 L 964.99 900.46 L 963.92 897.77 L 962.86 895.09 L 961.72 892.45 L 960.58 889.82 L 959.47 887.20 L 958.38 884.58 L 957.31 881.96 L 956.23 879.36 L 955.17 876.76 L 954.11 874.17" stroke="rgb(140,255,190)" stroke-opacity="0.725" stroke-width="1.16" />
  <path d="M 998.71 998.94 L 997.69 995.81 L 996.65 992.70 L 995.59 989.62 L 994.60 986.52 L 993.61 983.44 L 992.64 980.37 L 991.76 977.28 L 990.86 974.21 L 989.95 971.15 L 989.00 968.13 L 988.03 965.12 L 987.08 962.12 L 986.12 959.13 L 985.10 956.18 L 984.14 953.22 L 983.11 950.30 L 982.02 947.42 L 981.00 944.52" stroke="rgb(140,255,190)" stroke-opacity="0.725" stroke-width="1.16" />
  <path d="M 1002.17 1002.47 L 1001.39 999.20 L 1000.60 995.95 L 999.76 992.73 L 998.93 989.52 L 998.17 986.30 L 997.40 983.10 L 996.66 979.91 L 995.95 976.72 L 995.19 973.56 L 994.39 970.42 L 993.61 967.29 L 992.85 964.17 L 992.05 961.07 L 991.22 957.99 L 990.42 954.92 L 989.61 951.87 L 988.80 948.82 L 988.00 945.79 L 987.24 942.76 L 986.40 939.76 L 985.56 936.78 L 984.67 933.83 L 983.80 930.88 L 982.89 927.95 L 982.05 925.02 L 981.24 922.10 L 980.45 919.18 L 979.62 916.28 L 978.85 913.38 L 978.12 910.48 L 977.36 907.60 L 976.61 904.73 L 975.91 901.86 L 975.22 899.00 L 974.47 896.17 L 973.75 893.34 L 973.05 890.52 L 972.31 887.72 L 971.52 884.95 L 970.73 882.19 L 969.97 879.43 L 969.21 876.69 L 968.40 873.97 L 967.63 871.25 L 966.86 868.54 L 966.12 865.84 L 965.43 863.13 L 964.70 860.45 L 963.97 857.77 L 963.20 855.12 L 962.45 852.48 L 961.66 849.86 L 960.84 847.26 L 960.04 844.67 L 959.19 842.10 L 958.29 839.56 L 957.36 837.05 L 956.47 834.52 L 955.62 832.00 L 954.76 829.50 L 953.95 826.98 L 953.17 824.47 L 952.45 821.95 L 951.69 819.46" stroke="rgb(140,255,190)" stroke-opacity="0.725" stroke-width="1.16" />
  <path d="M 979.73 898.91 L 977.52 896.45 L 975.36 893.96 L 973.25 891.45 L 971.15 888.95 L 969.04 886.47 L 966.96 883.99 L 964.95 881.46 L 962.97 878.93 L 961.05 876.37 L 959.13 873.82 L 957.24 871.27 L 955.37 868.71 L 953.54 866.15 L 951.72 863.59 L 949.94 861.03 L 948.19 858.45 L 946.45 855.88 L 944.72 853.32 L 943.01 850.76 L 941.27 848.24 L 939.56 845.71 L 937.86 843.19 L 936.21 840.66 L 934.55 838.14 L 932.97 835.59 L 931.47 833.00 L 929.91 830.46 L 928.31 827.96 L 926.78 825.44 L 925.25 822.92 L 923.74 820.40 L 922.24 817.90 L 920.75 815.40 L 919.21 812.95 L 917.63 810.53 L 916.06 808.13 L 914.44 805.77 L 912.83 803.42 L 911.18 801.11 L 909.55 798.80 L 907.95 796.47 L 906.36 794.17 L 904.78 791.86 L 903.15 789.61 L 901.52 787.37 L 899.83 785.18 L 898.13 783.02 L 896.40 780.90 L 894.72 778.75 L 893.01 776.63 L 891.33 774.51 L 889.60 772.44 L 887.85 770.41 L 886.07 768.41 L 884.31 766.42 L 882.56 764.43 L 880.79 762.46 L 879.03 760.51 L 877.24 758.60 L 875.52 756.63 L 873.84 754.65 L 872.17 752.67 L 870.50 750.71 L 868.83 748.75 L 867.14 746.83 L 865.43 744.94 L 863.69 743.09 L 861.98 741.23 L 860.26 739.39 L 858.60 737.52 L 856.96 735.63 L 855.36 733.73 L 853.77 731.83 L 852.21 729.91 L 850.61 728.05 L 849.00 726.20 L 847.41 724.36 L 845.81 722.53 L 844.29 720.65 L 842.74 718.80 L 841.16 717.00 L 839.58 715.21 L 838.05 713.39 L 836.50 711.59 L 834.97 709.79 L 833.47 707.98 L 831.98 706.17 L 830.46 704.40 L 828.95 702.64 L 827.41 700.91 L 825.86 699.20 L 824.33 697.49" stroke="rgb(140,255,190)" stroke-opacity="0.724" stroke-width="1.15" />
  <path d="M 993.77 829.64 L 995.23 826.67 L 996.67 823.72 L 998.17 820.80 L 999.64 817.89 L 1001.09 814.98 L 1002.50 812.07 L 1003.83 809.13 L 1005.09 806.17 L 1006.27 803.20 L 1007.45 800.24 L 1008.60 797.28 L 1009.66 794.31 L 1010.73 791.35 L 1011.74 788.38 L 1012.80 785.44" stroke="rgb(140,255,190)" stroke-opacity="0.723" stroke-width="1.15" />
  <path d="M 989.16 930.31 L 989.47 927.92 L 989.74 925.53 L 990.18 923.18 L 990.65 920.84 L 991.09 918.50 L 991.47 916.17 L 991.87 913.85 L 992.32 911.55 L 992.92 909.29 L 993.46 907.02 L 994.04 904.78 L 994.63 902.55 L 995.15 900.31 L 995.73 898.09 L 996.31 895.89 L 997.04 893.73 L 997.73 891.58 L 998.43 889.44 L 999.07 887.28 L 999.80 885.17 L 1000.54 883.07 L 1001.24 880.97 L 1002.08 878.92 L 1002.98 876.91 L 1003.88 874.92 L 1004.65 872.88 L 1005.39 870.83 L 1006.15 868.80 L 1006.73 866.73 L 1007.24 864.64 L 1007.68 862.55 L 1008.16 860.47 L 1008.70 858.42 L 1009.29 856.39 L 1009.87 854.36 L 1010.44 852.35 L 1010.98 850.33 L 1011.48 848.31 L 1012.15 846.35 L 1012.74 844.37 L 1013.37 842.41 L 1013.98 840.46 L 1014.56 838.51 L 1015.22 836.58 L 1015.84 834.66 L 1016.38 832.72 L 1016.98 830.80 L 1017.47 828.87 L 1017.88 826.92" stroke="rgb(140,255,190)" stroke-opacity="0.542" stroke-width="1.15" />
  <path d="M 999.60 1002.25 L 1001.29 1004.71 L 1002.95 1007.19 L 1004.57 1009.68 L 1006.18 1012.15 L 1007.79 1014.62 L 1009.36 1017.10 L 1010.91 1019.57 L 1012.48 1022.01 L 1014.03 1024.46 L 1015.68 1026.83 L 1017.23 1029.25 L 1018.83 1031.62 L 1020.49 1033.94 L 1022.19 1036.21 L 1023.92 1038.45 L 1025.62 1040.69 L 1027.31 1042.93 L 1029.00 1045.16 L 1030.77 1047.31 L 1032.53 1049.45 L 1034.22 1051.63 L 1035.92 1053.79 L 1037.56 1055.98 L 1039.21 1058.16 L 1040.84 1060.33 L 1042.47 1062.49 L 1044.13 1064.62 L 1045.79 1066.72 L 1047.50 1068.78 L 1049.20 1070.83 L 1050.84 1072.91 L 1052.46 1075.00 L 1054.05 1077.09 L 1055.68 1079.15 L 1057.30 1081.20 L 1058.85 1083.28 L 1060.44 1085.33 L 1061.86 1087.47 L 1063.33 1089.59 L 1064.74 1091.72 L 1066.19 1093.81 L 1067.66 1095.88 L 1069.09 1097.97 L 1070.55 1100.01" stroke="rgb(205,165,255)" stroke-opacity="0.480" stroke-width="1.15" />
  <path d="M 1002.27 998.48 L 1001.59 995.39 L 1000.91 992.33 L 1000.23 989.28 L 999.60 986.23 L 998.92 983.20 L 998.31 980.17 L 997.71 977.15 L 997.16 974.13 L 996.62 971.13 L 996.14 968.12 L 995.63 965.14 L 995.14 962.16 L 994.60 959.20 L 994.03 956.26 L 993.46 953.34 L 992.85 950.43 L 992.29 947.53 L 991.79 944.62 L 991.25 941.74 L 990.74 938.86 L 990.20 936.00 L 989.69 933.15 L 989.16 930.31 L 988.72 927.47 L 988.21 924.65 L 987.69 921.85 L 987.11 919.06 L 986.47 916.31 L 985.81 913.57 L 985.23 910.82 L 984.63 908.09 L 984.00 905.38" stroke="rgb(140,255,190)" stroke-opacity="0.722" stroke-width="1.15" />
  <path d="M 976.19 945.26 L 976.71 942.07 L 977.25 938.89 L 977.81 935.73 L 978.32 932.57 L 978.89 929.44 L 979.51 926.32 L 980.14 923.23 L 980.76 920.14 L 981.34 917.06 L 981.89 913.99 L 982.34 910.91 L 982.83 907.85 L 983.32 904.81 L 983.83 901.78 L 984.21 898.74 L 984.60 895.72 L 984.94 892.70 L 985.26 889.70 L 985.58 886.70 L 985.97 883.73 L 986.22 880.75 L 986.48 877.79 L 986.73 874.83 L 986.95 871.89 L 987.14 868.95 L 987.38 866.04 L 987.64 863.13 L 987.94 860.24 L 988.17 857.36 L 988.46 854.49 L 988.72 851.63 L 988.92 848.78 L 989.06 845.94 L 989.10 843.10 L 989.13 840.28 L 989.15 837.46 L 989.16 834.66 L 989.21 831.87 L 989.26 829.09 L 989.27 826.32 L 989.23 823.57 L 989.19 820.82 L 989.16 818.09 L 989.12 815.36 L 988.98 812.65 L 988.82 809.95 L 988.59 807.27 L 988.35 804.60 L 988.09 801.94 L 987.87 799.29 L 987.69 796.65 L 987.46 794.02 L 987.21 791.40 L 987.03 788.79 L 986.86 786.19 L 986.64 783.61 L 986.43 781.03 L 986.23 778.46 L 985.95 775.91 L 985.60 773.38 L 985.32 770.85 L 985.00 768.33 L 984.68 765.83 L 984.28 763.35 L 983.84 760.88 L 983.43 758.42 L 983.16 755.95 L 982.99 753.48 L 982.77 751.03 L 982.62 748.58 L 982.43 746.14 L 982.25 743.71 L 982.05 741.29 L 981.84 738.89 L 981.61 736.49 L 981.42 734.10 L 981.21 731.73 L 981.04 729.35 L 980.91 726.99 L 980.81 724.63" stroke="rgb(140,255,190)" stroke-opacity="0.718" stroke-width="1.14" />
  <path d="M 1001.40 1000.07 L 1000.77 996.95 L 1000.17 993.84 L 999.66 990.72 L 999.13 987.62 L 998.65 984.52 L 998.22 981.43 L 997.86 978.35 L 997.57 975.26 L 997.29 972.19 L 996.99 969.14 L 996.69 966.09 L 996.29 963.07 L 995.84 960.07 L 995.34 957.09 L 994.93 954.11 L 994.43 951.15 L 993.98 948.20 L 993.49 945.27 L 993.10 942.33 L 992.79 939.40 L 992.50 936.47 L 992.18 933.56 L 991.80 930.67 L 991.51 927.78 L 991.21 924.91 L 990.92 922.04 L 990.64 919.19 L 990.30 916.35 L 989.95 913.53 L 989.52 910.72 L 989.05 907.94 L 988.52 905.18 L 988.00 902.43 L 987.49 899.68 L 987.09 896.94 L 986.63 894.21 L 986.18 891.49 L 985.74 888.78 L 985.28 886.08 L 984.82 883.40 L 984.30 880.74 L 983.82 878.08 L 983.32 875.44 L 982.82 872.80 L 982.28 870.19 L 981.74 867.59 L 981.26 864.98 L 980.79 862.39 L 980.33 859.80 L 979.86 857.23 L 979.40 854.66 L 979.04 852.09 L 978.74 849.53 L 978.50 846.96 L 978.29 844.41 L 978.09 841.86 L 977.94 839.32 L 977.74 836.80 L 977.52 834.28 L 977.33 831.78 L 977.18 829.28 L 976.94 826.79 L 976.76 824.32 L 976.57 821.85 L 976.39 819.40 L 976.19 816.95 L 976.02 814.51 L 975.87 812.08 L 975.72 809.66 L 975.59 807.25 L 975.54 804.85 L 975.50 802.45 L 975.38 800.07 L 975.26 797.70 L 975.16 795.33 L 975.03 792.98 L 974.85 790.64" stroke="rgb(140,255,190)" stroke-opacity="0.718" stroke-width="1.14" />
  <path d="M 1000.38 996.97 L 997.92 995.68 L 995.46 994.41 L 993.02 993.13 L 990.59 991.86 L 988.22 990.49 L 985.79 989.26 L 983.45 987.89 L 981.10 986.55 L 978.86 985.08 L 976.67 983.53 L 974.46 982.03 L 972.28 980.52 L 970.09 979.02 L 967.89 977.57 L 965.72 976.10 L 963.59 974.58 L 961.44 973.11 L 959.33 971.60 L 957.24 970.07 L 955.20 968.51 L 953.13 967.00 L 951.13 965.40" stroke="rgb(205,165,255)" stroke-opacity="0.477" stroke-width="1.14" />
  <path d="M 982.08 953.19 L 982.40 950.06 L 982.69 946.94 L 983.06 943.84 L 983.38 940.75 L 983.74 937.67 L 984.10 934.61 L 984.53 931.57 L 985.05 928.55 L 985.56 925.55 L 986.00 922.55 L 986.48 919.56 L 987.06 916.61 L 987.73 913.69 L 988.37 910.77 L 988.97 907.86 L 989.66 904.97 L 990.26 902.09 L 990.88 899.21 L 991.50 896.35 L 992.07 893.49 L 992.70 890.66 L 993.35 887.84 L 994.12 885.06 L 994.80 882.27 L 995.42 879.48 L 996.10 876.72 L 996.74 873.96 L 997.43 871.22 L 998.18 868.51 L 998.91 865.81 L 999.77 863.15 L 1000.57 860.49 L 1001.35 857.83 L 1002.13 855.19 L 1002.92 852.56 L 1003.58 849.91 L 1004.22 847.26" stroke="rgb(140,255,190)" stroke-opacity="0.717" stroke-width="1.14" />
  <path d="M 1000.88 999.58 L 998.78 997.74 L 996.76 995.82 L 994.73 993.94" stroke="rgb(205,165,255)" stroke-opacity="0.474" stroke-width="1.13" />
  <path d="M 879.94 725.54 L 880.28 722.50 L 880.67 719.48 L 881.16 716.49 L 881.62 713.50 L 882.07 710.52 L 882.60 707.57 L 883.26 704.66 L 884.02 701.78 L 884.71 698.90 L 885.38 696.03 L 886.08 693.17 L 886.87 690.35 L 887.62 687.53 L 888.32 684.72 L 888.88 681.88 L 889.39 679.04 L 889.91 676.22 L 890.40 673.41 L 890.76 670.58 L 891.12 667.77 L 891.37 664.96" stroke="rgb(140,255,190)" stroke-opacity="0.535" stroke-width="1.13" />
  <path d="M 998.94 1002.51 L 997.56 999.68 L 996.26 996.82 L 994.94 993.98 L 993.67 991.14 L 992.40 988.31 L 991.21 985.46 L 990.04 982.61 L 988.83 979.79 L 987.61 976.99 L 986.41 974.20 L 985.16 971.44 L 984.01 968.65 L 982.84 965.88 L 981.71 963.11 L 980.58 960.35 L 979.39 957.63 L 978.29 954.89 L 977.16 952.17 L 976.04 949.46 L 974.89 946.77 L 973.73 944.10 L 972.59 941.44 L 971.49 938.77 L 970.42 936.10 L 969.39 933.43 L 968.37 930.77 L 967.34 928.12 L 966.38 925.46 L 965.44 922.80 L 964.48 920.16 L 963.60 917.51 L 962.66 914.88 L 961.74 912.27 L 960.82 909.67 L 959.96 907.05 L 959.12 904.44 L 958.21 901.87 L 957.31 899.30 L 956.38 896.76 L 955.43 894.24 L 954.45 891.74 L 953.46 889.25 L 952.43 886.79 L 951.38 884.36 L 950.36 881.92 L 949.38 879.48 L 948.34 877.07 L 947.29 874.68 L 946.25 872.29 L 945.10 869.97 L 943.93 867.67 L 942.72 865.40 L 941.50 863.15 L 940.25 860.93 L 939.08 858.68 L 937.88 856.45 L 936.64 854.26 L 935.44 852.06 L 934.25 849.86 L 933.06 847.67 L 931.86 845.51" stroke="rgb(140,255,190)" stroke-opacity="0.713" stroke-width="1.13" />
  <path d="M 979.23 943.97 L 979.47 940.99 L 979.79 938.04 L 980.14 935.10 L 980.54 932.18 L 980.87 929.26 L 981.36 926.37 L 981.88 923.51 L 982.52 920.68 L 983.14 917.85 L 983.75 915.04 L 984.44 912.26 L 985.18 909.50 L 985.97 906.77 L 986.68 904.02 L 987.28 901.27 L 987.93 898.53 L 988.57 895.81 L 989.15 893.08 L 989.66 890.35 L 990.11 887.62 L 990.46 884.89 L 990.77 882.16 L 991.06 879.45 L 991.31 876.74 L 991.42 874.03 L 991.58 871.33 L 991.67 868.64 L 991.77 865.97 L 991.83 863.30 L 991.93 860.65 L 992.02 858.00 L 992.20 855.37 L 992.49 852.76 L 992.69 850.15 L 992.87 847.56 L 992.99 844.96 L 993.15 842.39 L 993.32 839.82 L 993.46 837.26 L 993.55 834.71 L 993.69 832.17 L 993.77 829.64 L 993.83 827.12 L 993.98 824.61" stroke="rgb(140,255,190)" stroke-opacity="0.535" stroke-width="1.13" />
  <path d="M 1000.10 1000.45 L 999.33 997.57 L 998.54 994.70 L 997.85 991.83 L 997.26 988.94 L 996.73 986.05 L 996.20 983.18 L 995.65 980.32 L 995.01 977.49 L 994.37 974.68 L 993.73 971.87 L 993.16 969.06 L 992.56 966.27 L 991.97 963.49" stroke="rgb(140,255,190)" stroke-opacity="0.534" stroke-width="1.12" />
  <path d="M 980.28 932.23 L 980.73 929.74 L 981.18 927.27 L 981.63 924.81 L 982.09 922.35 L 982.54 919.91 L 982.98 917.47 L 983.50 915.06 L 984.02 912.66" stroke="rgb(140,255,190)" stroke-opacity="0.533" stroke-width="1.12" />
  <path d="M 991.31 962.68 L 989.48 960.88 L 987.64 959.11 L 985.75 957.42 L 983.93 955.66 L 982.05 953.98 L 980.27 952.20 L 978.44 950.50 L 976.56 948.87 L 974.73 947.19 L 972.88 945.55 L 971.05 943.91 L 969.24 942.25 L 967.44 940.60 L 965.68 938.92 L 963.90 937.28 L 962.02 935.76 L 960.11 934.30 L 958.23 932.83 L 956.38 931.33 L 954.57 929.79 L 952.66 928.39 L 950.74 927.02 L 948.74 925.80 L 946.75 924.58 L 944.74 923.41 L 942.80 922.14 L 940.89 920.84 L 938.97 919.57 L 936.97 918.47 L 934.93 917.43" stroke="rgb(140,255,190)" stroke-opacity="0.531" stroke-width="1.11" />
  <path d="M 1000.32 1000.21 L 999.90 997.53 L 999.56 994.85 L 999.26 992.17 L 999.09 989.50 L 998.91 986.83 L 998.75 984.18 L 998.58 981.54 L 998.48 978.90 L 998.35 976.28 L 998.25 973.66 L 998.25 971.06 L 998.28 968.46 L 998.36 965.88 L 998.52 963.31 L 998.78 960.76 L 998.99 958.21 L 999.26 955.68 L 999.62 953.17 L 999.98 950.67" stroke="rgb(140,255,190)" stroke-opacity="0.530" stroke-width="1.11" />
  <path d="M 982.38 918.66 L 982.53 915.84 L 982.53 913.03 L 982.47 910.23 L 982.41 907.44 L 982.40 904.67 L 982.44 901.90 L 982.63 899.15 L 982.73 896.41 L 983.02 893.69 L 983.31 890.99 L 983.58 888.29 L 983.81 885.60 L 984.06 882.92 L 984.20 880.25 L 984.30 877.58 L 984.27 874.92 L 984.24 872.28 L 984.20 869.64 L 984.14 867.02 L 984.01 864.41 L 983.88 861.80 L 983.72 859.22 L 983.65 856.63 L 983.64 854.06 L 983.74 851.50 L 983.97 848.96 L 984.07 846.42 L 984.27 843.89 L 984.44 841.38 L 984.53 838.86 L 984.82 836.38 L 985.11 833.90 L 985.37 831.44 L 985.66 828.98 L 985.96 826.54 L 986.24 824.10 L 986.44 821.66 L 986.62 819.24 L 986.78 816.82 L 986.88 814.41 L 986.89 812.01" stroke="rgb(140,255,190)" stroke-opacity="0.530" stroke-width="1.11" />
  <path d="M 999.64 997.07 L 998.60 994.43 L 997.48 991.84 L 996.37 989.25 L 995.28 986.67 L 994.18 984.11 L 993.11 981.54 L 992.11 978.96 L 991.09 976.40" stroke="rgb(140,255,190)" stroke-opacity="0.530" stroke-width="1.11" />
  <path d="M 1002.46 1000.97 L 1002.93 998.34 L 1003.48 995.74 L 1004.00 993.15 L 1004.56 990.57 L 1005.28 988.04 L 1005.97 985.52 L 1006.53 982.97 L 1007.06 980.43 L 1007.71 977.93 L 1008.34 975.43 L 1008.90 972.93 L 1009.31 970.41 L 1009.67 967.89 L 1010.01 965.38 L 1010.36 962.88 L 1010.68 960.38 L 1010.90 957.89 L 1011.22 955.42 L 1011.50 952.95 L 1011.82 950.49 L 1012.10 948.05 L 1012.40 945.61 L 1012.69 943.18 L 1012.98 940.77 L 1013.21 938.35 L 1013.41 935.94 L 1013.58 933.55 L 1013.76 931.16 L 1013.98 928.78 L 1014.17 926.41 L 1014.24 924.04 L 1014.17 921.69 L 1014.10 919.34 L 1014.10 917.00 L 1014.14 914.67 L 1014.25 912.35 L 1014.29 910.04 L 1014.45 907.75 L 1014.69 905.47" stroke="rgb(205,165,255)" stroke-opacity="0.469" stroke-width="1.11" />
  <path d="M 1000.17 996.35 L 999.13 993.77 L 998.17 991.17 L 997.30 988.56 L 996.54 985.92 L 995.76 983.30 L 994.98 980.69 L 994.24 978.08 L 993.45 975.50 L 992.74 972.90 L 992.02 970.32 L 991.29 967.76 L 990.63 965.18 L 990.02 962.60 L 989.43 960.03 L 988.73 957.50 L 988.14 954.95 L 987.44 952.44 L 986.89 949.91 L 986.22 947.41 L 985.50 944.94 L 984.69 942.51 L 983.86 940.09 L 983.03 937.69 L 982.15 935.31 L 981.28 932.94 L 980.39 930.59 L 979.52 928.25 L 978.62 925.92 L 977.72 923.61 L 976.83 921.30 L 975.91 919.01 L 974.99 916.74 L 974.01 914.50 L 973.05 912.26 L 972.17 910.01 L 971.31 907.75 L 970.58 905.46 L 969.88 903.17 L 969.25 900.87 L 968.69 898.56 L 968.07 896.27 L 967.44 894.00 L 966.82 891.74" stroke="rgb(140,255,190)" stroke-opacity="0.529" stroke-width="1.11" />
  <path d="M 955.37 868.71 L 952.91 867.24 L 950.46 865.76 L 948.00 864.33 L 945.46 863.07 L 942.89 861.90 L 940.33 860.73 L 937.76 859.61 L 935.17 858.58 L 932.57 857.59 L 930.00 856.56 L 927.44 855.54 L 924.91 854.47 L 922.41 853.35 L 919.93 852.23 L 917.48 851.05 L 915.06 849.85 L 912.61 848.73 L 910.13 847.72 L 907.65 846.72 L 905.24 845.60 L 902.79 844.59 L 900.31 843.70 L 897.80 842.91 L 895.36 841.96 L 892.90 841.09 L 890.52 840.06 L 888.20 838.91 L 885.89 837.77 L 883.59 836.64 L 881.28 835.55 L 878.95 834.51 L 876.59 833.59 L 874.19 832.79 L 871.80 832.04 L 869.40 831.31 L 867.01 830.59 L 864.63 829.89 L 862.27 829.14 L 859.94 828.32 L 857.63 827.51 L 855.31 826.73 L 853.02 825.89" stroke="rgb(140,255,190)" stroke-opacity="0.529" stroke-width="1.11" />
  <path d="M 1000.45 1000.03 L 999.62 997.27 L 998.80 994.52 L 997.97 991.78 L 997.08 989.07 L 996.18 986.38 L 995.29 983.69 L 994.44 981.01 L 993.52 978.36 L 992.65 975.70 L 991.77 973.06 L 990.78 970.47 L 989.81 967.89 L 988.87 965.30 L 987.84 962.77 L 986.86 960.22 L 986.02 957.64 L 985.13 955.08 L 984.26 952.53 L 983.34 950.01 L 982.43 947.50 L 981.51 945.00 L 980.63 942.50 L 979.76 940.00 L 978.96 937.50 L 978.22 934.98 L 977.55 932.46 L 977.02 929.91 L 976.38 927.40 L 975.83 924.89" stroke="rgb(140,255,190)" stroke-opacity="0.529" stroke-width="1.11" />
  <path d="M 973.43 926.55 L 971.58 924.27 L 969.76 921.99 L 967.99 919.68 L 966.18 917.41 L 964.37 915.16 L 962.54 912.94 L 960.72 910.73 L 958.90 908.53 L 957.05 906.37 L 955.15 904.28 L 953.19 902.26 L 951.22 900.26 L 949.25 898.27 L 947.28 896.30 L 945.31 894.35 L 943.35 892.40 L 941.37 890.49 L 939.40 888.58 L 937.42 886.70 L 935.42 884.86 L 933.44 883.02 L 931.50 881.14 L 929.61 879.23 L 927.75 877.30 L 925.86 875.42 L 924.02 873.51 L 922.09 871.70 L 920.16 869.92 L 918.34 868.03 L 916.48 866.19 L 914.58 864.42 L 912.72 862.60 L 910.97 860.71 L 909.27 858.79 L 907.55 856.88 L 905.89 854.95 L 904.25 853.01" stroke="rgb(140,255,190)" stroke-opacity="0.528" stroke-width="1.10" />
  <path d="M 961.80 911.76 L 959.66 909.81 L 957.49 907.92 L 955.43 905.92 L 953.42 903.89 L 951.37 901.91 L 949.27 900.00 L 947.36 897.92 L 945.47 895.84 L 943.63 893.73 L 941.77 891.65 L 940.04 889.47 L 938.45 887.21 L 936.85 884.96 L 935.20 882.76 L 933.50 880.62 L 931.72 878.56 L 929.94 876.50 L 928.14 874.49 L 926.34 872.49 L 924.54 870.50 L 922.76 868.51 L 921.05 866.48 L 919.29 864.49 L 917.60 862.47 L 915.94 860.43 L 914.27 858.41 L 912.60 856.42 L 910.98 854.39 L 909.35 852.38 L 907.73 850.37 L 906.11 848.38 L 904.41 846.48 L 902.71 844.59 L 901.07 842.65 L 899.40 840.76 L 897.84 838.79 L 896.32 836.80 L 894.77 834.84 L 893.30 832.84 L 891.77 830.89 L 890.21 828.98 L 888.68 827.06 L 887.18 825.13 L 885.66 823.23 L 884.17 821.32 L 882.61 819.47 L 881.05 817.64 L 879.41 815.89 L 877.72 814.21" stroke="rgb(140,255,190)" stroke-opacity="0.528" stroke-width="1.10" />
  <path d="M 998.63 1002.40 L 997.97 999.67 L 997.23 996.97 L 996.61 994.26 L 996.15 991.53 L 995.63 988.81 L 995.12 986.11 L 994.67 983.41 L 994.22 980.72 L 993.84 978.03 L 993.38 975.36 L 993.01 972.69 L 992.64 970.03 L 992.31 967.38 L 991.89 964.75 L 991.52 962.12 L 991.20 959.50 L 990.83 956.89 L 990.39 954.31 L 989.98 951.73 L 989.50 949.18 L 989.02 946.63" stroke="rgb(140,255,190)" stroke-opacity="0.527" stroke-width="1.10" />
  <path d="M 998.65 1001.97 L 997.70 999.23 L 996.76 996.50 L 995.81 993.79 L 994.87 991.08 L 993.91 988.39 L 993.03 985.69 L 992.22 982.98 L 991.30 980.31 L 990.40 977.65 L 989.50 975.01 L 988.62 972.36 L 987.83 969.71 L 987.00 967.07 L 986.21 964.43 L 985.30 961.85 L 984.40 959.27 L 983.48 956.71 L 982.62 954.14 L 981.76 951.59 L 980.86 949.06 L 980.07 946.50 L 979.23 943.97 L 978.41 941.44 L 977.60 938.93 L 976.73 936.44 L 975.89 933.96 L 974.99 931.50 L 974.20 929.02 L 973.43 926.55 L 972.59 924.11 L 971.68 921.70 L 970.85 919.28 L 969.98 916.89" stroke="rgb(140,255,190)" stroke-opacity="0.527" stroke-width="1.10" />
  <path d="M 972.85 930.78 L 972.92 927.82 L 973.04 924.88 L 973.22 921.94 L 973.45 919.03 L 973.76 916.13 L 974.10 913.25 L 974.35 910.37 L 974.68 907.51 L 974.85 904.64 L 975.04 901.80 L 975.18 898.95 L 975.26 896.12 L 975.24 893.30 L 975.21 890.49 L 975.08 887.69 L 975.03 884.91 L 975.00 882.13 L 974.92 879.36 L 974.74 876.61 L 974.51 873.88 L 974.27 871.16 L 973.97 868.45 L 973.60 865.77 L 973.28 863.09 L 972.89 860.42 L 972.58 857.76 L 972.34 855.11 L 972.05 852.47 L 971.69 849.84 L 971.38 847.23 L 971.11 844.61 L 970.80 842.02 L 970.51 839.43 L 970.09 836.87 L 969.67 834.32 L 969.21 831.79 L 968.78 829.26 L 968.37 826.74 L 967.94 824.23 L 967.66 821.72 L 967.42 819.21 L 967.19 816.71 L 966.91 814.22 L 966.55 811.75 L 966.14 809.30 L 965.65 806.88 L 965.20 804.46 L 964.74 802.05 L 964.32 799.65 L 964.04 797.23 L 963.79 794.82 L 963.51 792.42 L 963.28 790.03 L 963.04 787.64 L 962.84 785.27 L 962.62 782.90 L 962.46 780.54 L 962.27 778.19 L 962.04 775.86" stroke="rgb(140,255,190)" stroke-opacity="0.527" stroke-width="1.10" />
  <path d="M 941.52 997.82 L 939.20 998.84 L 936.90 999.89 L 934.59 1000.90 L 932.22 1001.73 L 929.85 1002.50 L 927.48 1003.26 L 925.09 1003.93 L 922.70 1004.56 L 920.35 1005.27 L 917.98 1005.90 L 915.62 1006.52 L 913.24 1007.02 L 910.88 1007.52 L 908.55 1008.14 L 906.20 1008.66 L 903.88 1009.21 L 901.56 1009.75 L 899.25 1010.28 L 896.96 1010.88 L 894.69 1011.49 L 892.43 1012.13 L 890.19 1012.79 L 888.03 1013.64 L 885.79 1014.22 L 883.57 1014.86 L 881.42 1015.65 L 879.23 1016.34" stroke="rgb(205,165,255)" stroke-opacity="0.466" stroke-width="1.10" />
  <path d="M 978.22 934.98 L 976.70 932.66 L 975.08 930.42 L 973.36 928.27 L 971.59 926.18 L 969.86 924.07 L 968.18 921.92 L 966.64 919.69 L 965.07 917.50 L 963.47 915.34 L 961.93 913.15 L 960.39 910.98 L 958.95 908.75 L 957.54 906.50 L 956.16 904.26 L 954.85 901.99 L 953.65 899.67 L 952.52 897.32 L 951.23 895.07 L 950.03 892.79 L 948.83 890.51 L 947.85 888.15 L 946.90 885.78 L 945.84 883.47 L 944.73 881.20 L 943.63 878.93 L 942.44 876.72 L 941.16 874.57 L 939.92 872.41 L 938.89 870.15 L 937.76 867.96" stroke="rgb(140,255,190)" stroke-opacity="0.527" stroke-width="1.10" />
  <path d="M 994.09 1001.33 L 993.41 998.56 L 992.79 995.79 L 992.09 993.05 L 991.55 990.28 L 991.05 987.52 L 990.53 984.77 L 989.90 982.06 L 989.26 979.36 L 988.60 976.68 L 987.88 974.03 L 987.21 971.37 L 986.49 968.74 L 985.79 966.11 L 985.11 963.49 L 984.61 960.84 L 984.16 958.20 L 983.67 955.57 L 983.17 952.95 L 982.65 950.35 L 982.18 947.75 L 981.84 945.14 L 981.51 942.54 L 981.17 939.95 L 980.82 937.37 L 980.49 934.80 L 980.28 932.23 L 980.18 929.66 L 980.10 927.10 L 980.12 924.56 L 980.18 922.02 L 980.20 919.49 L 980.26 916.97 L 980.30 914.46 L 980.35 911.96 L 980.44 909.48 L 980.50 907.00 L 980.58 904.53 L 980.54 902.07 L 980.57 899.62 L 980.57 897.19 L 980.62 894.76 L 980.60 892.34 L 980.61 889.93 L 980.76 887.53 L 981.00 885.15 L 981.22 882.78" stroke="rgb(140,255,190)" stroke-opacity="0.526" stroke-width="1.10" />
  <path d="M 981.83 907.87 L 981.71 905.16 L 981.64 902.45 L 981.62 899.76 L 981.56 897.08 L 981.60 894.42 L 981.63 891.76 L 981.74 889.11 L 981.96 886.48 L 982.32 883.88 L 982.63 881.28 L 982.84 878.69 L 983.07 876.10 L 983.38 873.54 L 983.75 870.99 L 984.07 868.44 L 984.43 865.91 L 984.93 863.42 L 985.51 860.95 L 986.16 858.51 L 986.75 856.07 L 987.27 853.62 L 987.92 851.22 L 988.56 848.81 L 989.07 846.39 L 989.50 843.97 L 989.91 841.55 L 990.30 839.14 L 990.59 836.72 L 990.75 834.30 L 990.97 831.90 L 991.10 829.49 L 991.31 827.11 L 991.36 824.72 L 991.36 822.35" stroke="rgb(140,255,190)" stroke-opacity="0.526" stroke-width="1.10" />
  <path d="M 1000.85 1001.83 L 1000.15 999.20 L 999.43 996.60 L 998.78 993.98 L 998.17 991.36 L 997.57 988.76 L 996.97 986.16 L 996.35 983.58 L 995.83 980.99 L 995.21 978.43 L 994.64 975.88 L 994.14 973.31 L 993.58 970.77 L 993.00 968.25 L 992.56 965.71 L 992.15 963.17 L 991.69 960.65 L 991.22 958.15 L 990.77 955.65 L 990.29 953.17 L 989.85 950.69 L 989.50 948.20 L 989.25 945.72 L 988.91 943.25 L 988.56 940.80 L 988.21 938.35 L 987.88 935.92 L 987.54 933.49 L 987.20 931.08 L 986.88 928.67 L 986.48 926.28 L 986.02 923.92 L 985.55 921.57 L 984.99 919.24 L 984.42 916.93 L 983.80 914.64 L 983.14 912.37 L 982.53 910.10 L 981.83 907.87 L 981.15 905.63 L 980.39 903.44 L 979.62 901.25 L 978.81 899.09 L 978.01 896.94" stroke="rgb(140,255,190)" stroke-opacity="0.525" stroke-width="1.09" />
  <path d="M 964.74 802.05 L 965.83 799.68 L 966.89 797.31 L 967.92 794.93 L 968.94 792.56 L 970.26 790.36 L 971.63 788.21 L 972.88 785.98 L 974.08 783.75 L 975.32 781.55 L 976.65 779.41 L 977.85 777.21 L 979.10 775.05 L 980.40 772.93 L 981.53 770.73 L 982.83 768.63 L 984.08 766.52 L 985.40 764.46 L 986.64 762.36 L 987.87 760.27 L 989.09 758.18 L 990.28 756.09 L 991.62 754.10 L 993.01 752.16 L 994.21 750.10 L 995.26 747.98 L 996.33 745.87 L 997.41 743.79 L 998.28 741.61 L 999.28 739.51 L 1000.28 737.41 L 1001.21 735.29 L 1002.11 733.17 L 1003.05 731.08 L 1003.90 728.96 L 1004.79 726.86 L 1005.64 724.76 L 1006.44 722.65 L 1007.32 720.58 L 1008.27 718.55 L 1009.14 716.49 L 1009.94 714.42 L 1010.79 712.38 L 1011.56 710.31 L 1012.39 708.28 L 1013.13 706.22 L 1013.77 704.14 L 1014.32 702.04 L 1014.75 699.93 L 1015.08 697.80 L 1015.23 695.66 L 1015.35 693.53 L 1015.47 691.41 L 1015.58 689.29 L 1015.78 687.19" stroke="rgb(140,255,190)" stroke-opacity="0.524" stroke-width="1.09" />
  <path d="M 938.36 997.69 L 936.16 998.74 L 933.96 999.78 L 931.79 1000.88 L 929.71 1002.09 L 927.66 1003.36 L 925.66 1004.67 L 923.64 1005.94 L 921.55 1007.07 L 919.46 1008.18 L 917.45 1009.40 L 915.42 1010.58 L 913.45 1011.84 L 911.39 1012.94 L 909.28 1013.89 L 907.13 1014.74 L 904.95 1015.49 L 902.80 1016.28 L 900.63 1016.98 L 898.41 1017.47 L 896.20 1017.97 L 894.00 1018.48 L 891.81 1018.94 L 889.63 1019.46 L 887.47 1019.99 L 885.30 1020.46" stroke="rgb(205,165,255)" stroke-opacity="0.461" stroke-width="1.08" />
  <path d="M 1001.32 996.32 L 1000.75 998.73 L 1000.20 1001.14 L 999.77 1003.56 L 999.25 1005.95 L 998.80 1008.34 L 998.32 1010.72 L 997.86 1013.10 L 997.57 1015.49 L 997.16 1017.85 L 996.63 1020.18 L 996.02 1022.48 L 995.33 1024.75 L 994.63 1027.00 L 993.96 1029.26 L 993.21 1031.48 L 992.39 1033.66 L 991.55 1035.82 L 990.83 1038.02 L 990.05 1040.19 L 989.18 1042.32" stroke="rgb(205,165,255)" stroke-opacity="0.460" stroke-width="1.08" />
  <path d="M 972.37 937.62 L 970.58 936.39 L 968.75 935.22 L 966.87 934.15 L 965.00 933.10 L 963.16 932.00 L 961.37 930.83 L 959.63 929.61 L 957.99 928.28" stroke="rgb(205,165,255)" stroke-opacity="0.450" stroke-width="1.04" />
  <path d="M 998.68 999.66 L 996.77 998.68 L 994.85 997.73 L 992.95 996.76 L 991.03 995.86 L 989.15 994.87 L 987.22 994.03 L 985.26 993.27 L 983.29 992.58 L 981.37 991.76 L 979.48 990.91 L 977.64 989.96 L 975.79 989.08 L 973.96 988.15 L 972.15 987.20 L 970.34 986.28 L 968.56 985.31 L 966.78 984.35 L 965.03 983.37 L 963.25 982.47 L 961.53 981.46 L 959.84 980.41 L 958.22 979.28 L 956.59 978.17 L 955.01 977.02 L 953.40 975.91 L 951.73 974.90 L 950.01 974.02 L 948.32 973.09 L 946.63 972.17 L 944.90 971.36 L 943.18 970.53 L 941.50 969.65 L 939.85 968.72 L 938.26 967.70 L 936.72 966.64" stroke="rgb(205,165,255)" stroke-opacity="0.447" stroke-width="1.03" />
  <path d="M 993.39 1003.75 L 994.24 1004.99 L 994.94 1006.31 L 995.98 1007.37 L 996.85 1008.57 L 997.78 1009.72 L 998.59 1010.94 L 999.47 1012.12" stroke="rgb(230,230,230)" stroke-opacity="0.385" stroke-width="0.71" />
  <path d="M 996.86 1005.07 L 996.42 1006.50 L 996.28 1007.99 L 996.09 1009.46 L 995.95 1010.94 L 995.72 1012.40 L 995.40 1013.83" stroke="rgb(230,230,230)" stroke-opacity="0.380" stroke-width="0.69" />
  <path d="M 997.75 997.96 L 998.92 998.90 L 1000.09 999.83 L 1001.44 1000.45 L 1002.84 1000.95 L 1004.27 1001.29 L 1005.74 1001.25 L 1007.15 1000.85" stroke="rgb(230,230,230)" stroke-opacity="0.378" stroke-width="0.69" />
  <path d="M 1000.84 996.49 L 999.75 997.52 L 998.95 998.78 L 998.14 1000.03 L 997.34 1001.28 L 996.36 1002.38 L 995.39 1003.49 L 994.45 1004.61 L 993.57 1005.77 L 992.69 1006.92" stroke="rgb(230,230,230)" stroke-opacity="0.378" stroke-width="0.69" />
  <path d="M 992.13 998.27 L 992.07 996.77 L 991.90 995.29 L 991.95 993.80 L 992.23 992.35 L 992.55 990.91 L 993.18 989.58 L 993.83 988.26 L 994.58 987.02 L 995.25 985.72" stroke="rgb(230,230,230)" stroke-opacity="0.376" stroke-width="0.68" />
  <path d="M 1002.94 997.58 L 1002.96 999.08 L 1002.92 1000.57 L 1002.82 1002.06 L 1002.46 1003.50 L 1002.30 1004.96 L 1002.40 1006.43 L 1002.57 1007.88 L 1002.67 1009.34" stroke="rgb(230,230,230)" stroke-opacity="0.370" stroke-width="0.67" />
  <path d="M 1004.91 998.58 L 1005.10 997.09 L 1005.20 995.60 L 1005.14 994.11 L 1004.92 992.65 L 1004.72 991.18 L 1004.35 989.76 L 1004.32 988.30 L 1003.98 986.88 L 1003.75 985.44 L 1003.35 984.05 L 1002.90 982.69 L 1002.26 981.40 L 1001.56 980.15 L 1000.69 979.03" stroke="rgb(230,230,230)" stroke-opacity="0.368" stroke-width="0.66" />
  <path d="M 999.45 1003.99 L 999.72 1002.51 L 999.89 1001.03 L 1000.00 999.54 L 1000.11 998.06 L 1000.19 996.59 L 1000.23 995.12 L 1000.30 993.66 L 1000.43 992.20" stroke="rgb(230,230,230)" stroke-opacity="0.367" stroke-width="0.66" />
  <path d="M 1003.06 1000.29 L 1001.58 1000.05 L 1000.10 999.84" stroke="rgb(230,230,230)" stroke-opacity="0.367" stroke-width="0.66" />
  <path d="M 999.76 999.06 L 998.33 999.52 L 996.89 999.88 L 995.51 1000.45 L 994.20 1001.14 L 992.93 1001.90 L 991.65 1002.63 L 990.44 1003.45 L 989.28 1004.33 L 988.31 1005.42 L 987.43 1006.56 L 986.52 1007.68 L 985.59 1008.77" stroke="rgb(230,230,230)" stroke-opacity="0.366" stroke-width="0.66" />
  <path d="M 1007.32 1000.26 L 1006.90 1001.70 L 1006.39 1003.11 L 1005.84 1004.49 L 1005.24 1005.85 L 1004.54 1007.15 L 1003.78 1008.41 L 1003.02 1009.65 L 1002.20 1010.86 L 1001.40 1012.07 L 1000.73 1013.35 L 1000.14 1014.67" stroke="rgb(230,230,230)" stroke-opacity="0.366" stroke-width="0.65" />
  <path d="M 1001.48 1004.26 L 1001.77 1002.79 L 1002.15 1001.35 L 1002.64 999.94 L 1003.21 998.57 L 1003.71 997.19 L 1004.20 995.80 L 1004.82 994.47 L 1005.67 993.29" stroke="rgb(230,230,230)" stroke-opacity="0.362" stroke-width="0.64" />
  <path d="M 995.63 1002.31 L 996.33 1003.64 L 996.92 1005.01 L 997.46 1006.40 L 997.95 1007.79 L 998.49 1009.17 L 999.04 1010.53 L 999.48 1011.93 L 1000.01 1013.29 L 1000.49 1014.66" stroke="rgb(230,230,230)" stroke-opacity="0.359" stroke-width="0.64" />
  <path d="M 999.29 993.41 L 1000.79 993.38 L 1002.29 993.36 L 1003.78 993.39 L 1005.24 993.65 L 1006.62 994.15 L 1008.01 994.63 L 1009.38 995.17 L 1010.70 995.79 L 1012.01 996.41 L 1013.25 997.15 L 1014.47 997.93 L 1015.71 998.64 L 1016.90 999.44" stroke="rgb(230,230,230)" stroke-opacity="0.356" stroke-width="0.63" />
  <path d="M 1005.04 1004.39 L 1003.91 1005.37 L 1002.69 1006.24 L 1001.58 1007.23" stroke="rgb(230,230,230)" stroke-opacity="0.353" stroke-width="0.62" />
  <path d="M 998.60 1001.51 L 997.29 1002.24 L 995.89 1002.75 L 994.61 1003.52 L 993.43 1004.42 L 992.06 1004.97 L 990.63 1005.31 L 989.24 1005.76 L 987.82 1006.08 L 986.44 1006.56 L 985.06 1006.99" stroke="rgb(230,230,230)" stroke-opacity="0.352" stroke-width="0.62" />
  <path d="M 1002.10 993.82 L 1001.88 995.30 L 1001.55 996.76 L 1001.18 998.20 L 1000.53 999.53 L 1000.00 1000.91 L 999.49 1002.29 L 998.94 1003.64 L 998.51 1005.04 L 998.09 1006.43" stroke="rgb(230,230,230)" stroke-opacity="0.350" stroke-width="0.61" />
  <path d="M 1000.53 1001.01 L 1000.77 1002.49 L 1000.97 1003.97 L 1001.08 1005.46 L 1001.10 1006.94 L 1001.23 1008.41 L 1001.37 1009.87 L 1001.55 1011.33 L 1001.61 1012.78 L 1001.73 1014.23 L 1001.94 1015.66 L 1002.25 1017.07 L 1002.51 1018.48" stroke="rgb(230,230,230)" stroke-opacity="0.349" stroke-width="0.61" />
</g>
</svg>
