{
  "asset": {
    "version": "2.0",
    "generator": "TES-23 Cosmic Ray Renderer"
  },
  "extensionsUsed": [
    "KHR_materials_unlit"
  ],
  "extensionsRequired": [
    "KHR_materials_unlit"
  ],
  "scene": 0,
  "scenes": [
    {
      "nodes": [
        0
      ]
    }
  ],
  "nodes": [
    {
      "name": "CosmicRayEvent",
      "mesh": 0
    }
  ],
  "meshes": [
    {
      "name": "CosmicRayEvent",
      "primitives": [
        {
          "attributes": {
            "POSITION": 0
          },
          "material": 0,
          "mode": 1
        },
        {
          "attributes": {
            "POSITION": 1
          },
          "material": 1,
          "mode": 1
        },
        {
          "attributes": {
            "POSITION": 2
          },
          "material": 2,
          "mode": 1
        },
        {
          "attributes": {
            "POSITION": 3
          },
          "material": 3,
          "mode": 1
        },
        {
          "attributes": {
            "POSITION": 4
          },
          "material": 4,
          "mode": 1
        }
      ]
    }
  ],
  "materials": [
    {
      "name": "primary",
      "extensions": {
        "KHR_materials_unlit": {}
      },
      "pbrMetallicRoughness": {
        "baseColorFactor": [
          0.961,
          0.961,
          0.961,
          1
        ],
        "metallicFactor": 0,
        "roughnessFactor": 1
      }
    },
    {
      "name": "vertex",
      "extensions": {
        "KHR_materials_unlit": {}
      },
      "pbrMetallicRoughness": {
        "baseColorFactor": [
          0.902,
          0.902,
          0.902,
          0.9
        ],
        "metallicFactor": 0,
        "roughnessFactor": 1
      }
    },
    {
      "name": "em",
      "extensions": {
        "KHR_materials_unlit": {}
      },
      "pbrMetallicRoughness": {
        "baseColorFactor": [
          0.471,
          0.824,
          1,
          1
        ],
        "metallicFactor": 0,
        "roughnessFactor": 1
      }
    },
    {
      "name": "hadron",
      "extensions": {
        "KHR_materials_unlit": {}
      },
      "pbrMetallicRoughness": {
        "baseColorFactor": [
          0.549,
          1,
          0.745,
          1
        ],
        "metallicFactor": 0,
        "roughnessFactor": 1
      }
    },
    {
      "name": "delta",
      "extensions": {
        "KHR_materials_unlit": {}
      },
      "pbrMetallicRoughness": {
        "baseColorFactor": [
          0.804,
          0.647,
          1,
          1
        ],
        "metallicFactor": 0,
        "roughnessFactor": 1
      }
    }
  ],
  "accessors": [
    {
      "bufferView": 0,
      "byteOffset": 0,
      "componentType": 5126,
      "count": 1350,
      "type": "VEC3",
      "min": [
        -1.0226703882217407,
        -0.029949543997645378,
        0
      ],
      "max": [
        1.0001165866851807,
        0.01638234779238701,
        0
      ]
    },
    {
      "bufferView": 1,
      "byteOffset": 0,
      "componentType": 5126,
      "count": 334,
      "type": "VEC3",
      "min": [
        -0.016864867880940437,
        -0.016458172351121902,
        -0.058899618685245514
      ],
      "max": [
        0.01438075676560402,
        0.017341528087854385,
        0.09719859063625336
      ]
    },
    {
      "bufferView": 2,
      "byteOffset": 0,
      "componentType": 5126,
      "count": 2084,
      "type": "VEC3",
      "min": [
        -0.323487788438797,
        -0.03807207942008972,
        -0.07700105011463165
      ],
      "max": [
        0.0021349454764276743,
        0.06429320573806763,
        0.07565328478813171
      ]
    },
    {
      "bufferView": 3,
      "byteOffset": 0,
      "componentType": 5126,
      "count": 2794,
      "type": "VEC3",
      "min": [
        -0.3647577166557312,
        -0.10087881237268448,
        -0.2616207003593445
      ],
      "max": [
        0.005375255364924669,
        0.05016211420297623,
        0.35819244384765625
      ]
    },
    {
      "bufferView": 4,
      "byteOffset": 0,
      "componentType": 5126,
      "count": 810,
      "type": "VEC3",
      "min": [
        -0.19288593530654907,
        -0.11834118515253067,
        -0.18458375334739685
      ],
      "max": [
        0.00863839965313673,
        0.1744903177022934,
        1.3100703954696655
      ]
    }
  ],
  "bufferViews": [
    {
      "buffer": 0,
      "byteOffset": 0,
      "byteLength": 16200,
      "target": 34962
    },
    {
      "buffer": 0,
      "byteOffset": 16200,
      "byteLength": 4008,
      "target": 34962
    },
    {
      "buffer": 0,
      "byteOffset": 20208,
      "byteLength": 25008,
      "target": 34962
    },
    {
      "buffer": 0,
      "byteOffset": 45216,
      "byteLength": 33528,
      "target": 34962
    },
    {
      "buffer": 0,
      "byteOffset": 78744,
      "byteLength": 9720,
      "target": 34962
    }
  ],
  "buffers": [
    {
      "byteLength": 88464,
      "uri": "data:application/octet-stream;base64,"
    }
  ]
}