<?xml version="1.0" encoding="UTF-8"?>
<svg xmlns="http://www.w3.org/2000/svg" width="2000" height="2000" viewBox="0 0 2000 2000">
<g fill="none" stroke-linecap="round" stroke-linejoin="round">
  <path d="M 1616.27 1999.63 L 1614.80 1997.46 L 1613.06 1994.93 L 1611.98 1992.26 L 1609.82 1989.93 L 1608.57 1987.19 L 1606.93 1984.90 L 1605.38 1982.33 L 1603.34 1979.88 L 1602.50 1977.08 L 1601.07 1974.78 L 1598.79 1972.02 L 1597.64 1969.37 L 1595.80 1967.14 L 1594.75 1964.31 L 1592.85 1961.98 L 1591.49 1959.19 L 1589.72 1956.71 L 1587.99 1954.04 L 1587.07 1951.44 L 1585.18 1948.91 L 1583.24 1945.95 L 1581.40 1943.64 L 1580.31 1941.30 L 1579.03 1938.94 L 1577.18 1936.41 L 1575.63 1933.59 L 1574.49 1931.18 L 1572.75 1928.55 L 1570.69 1925.71 L 1569.61 1923.75 L 1567.56 1921.00 L 1566.12 1918.73 L 1564.45 1915.33 L 1562.72 1912.77 L 1561.24 1910.73 L 1559.89 1908.30 L 1558.65 1905.37 L 1556.60 1903.02 L 1555.33 1900.38 L 1553.13 1898.36 L 1551.95 1895.29 L 1550.46 1892.40 L 1548.66 1889.76 L 1547.03 1887.54 L 1545.65 1884.94 L 1544.00 1882.54 L 1542.49 1880.21 L 1540.79 1877.19 L 1539.31 1874.68 L 1537.87 1872.12 L 1536.25 1870.03 L 1534.50 1867.38 L 1533.18 1864.66 L 1531.17 1862.03 L 1529.74 1859.41 L 1528.39 1857.28 L 1526.87 1854.53 L 1525.20 1851.87 L 1523.69 1849.45 L 1522.07 1846.87 L 1520.75 1844.40 L 1518.97 1841.67 L 1517.17 1838.70 L 1516.27 1836.49 L 1513.91 1833.93 L 1512.43 1831.45 L 1511.11 1829.05 L 1509.55 1826.42 L 1507.71 1823.92 L 1506.51 1821.50 L 1504.84 1818.91 L 1503.24 1816.24 L 1501.56 1813.71 L 1499.88 1811.05 L 1498.17 1808.46 L 1496.54 1806.00 L 1495.51 1803.58 L 1493.56 1800.68 L 1492.10 1797.84 L 1490.82 1795.95 L 1488.99 1792.82 L 1487.18 1790.45 L 1485.89 1787.97 L 1484.09 1784.82 L 1482.43 1783.10 L 1481.59 1780.10 L 1479.41 1777.76 L 1477.74 1775.61 L 1476.46 1772.87 L 1474.90 1770.15 L 1473.07 1767.55 L 1471.41 1764.89 L 1469.88 1762.97 L 1468.57 1759.74 L 1466.96 1757.29 L 1465.16 1754.87 L 1463.47 1752.06 L 1462.28 1749.71 L 1460.41 1746.97 L 1459.26 1744.77 L 1457.30 1742.31 L 1455.71 1739.89 L 1454.46 1737.10 L 1452.46 1734.49 L 1451.37 1731.85 L 1450.02 1729.12 L 1448.20 1726.91 L 1446.42 1724.32 L 1444.91 1721.52 L 1443.20 1718.80 L 1441.52 1716.79 L 1440.27 1713.90 L 1438.56 1711.42 L 1437.02 1709.09 L 1435.58 1706.35 L 1434.06 1703.98 L 1432.47 1701.36 L 1430.46 1698.65 L 1429.09 1695.70 L 1427.32 1693.29 L 1426.13 1690.91 L 1424.41 1688.14 L 1422.98 1686.00 L 1421.76 1683.60 L 1419.88 1680.62 L 1418.14 1678.15 L 1416.40 1675.83 L 1415.35 1673.57 L 1413.54 1670.62 L 1411.60 1668.46 L 1410.51 1665.06 L 1408.27 1662.88 L 1407.33 1660.48 L 1405.56 1657.60 L 1404.00 1655.10 L 1402.20 1652.48 L 1400.72 1650.50 L 1399.20 1647.70 L 1397.75 1645.25 L 1396.30 1642.67 L 1394.34 1639.95 L 1393.36 1637.68 L 1391.15 1635.07 L 1389.87 1632.18 L 1388.24 1629.68 L 1386.54 1627.23 L 1384.73 1624.83 L 1383.07 1621.90 L 1381.84 1619.83 L 1380.26 1617.17 L 1378.81 1614.36 L 1377.05 1612.31 L 1375.66 1608.76 L 1373.86 1606.40 L 1372.13 1604.07 L 1370.82 1601.51 L 1368.99 1598.87 L 1367.88 1596.51 L 1366.37 1593.76 L 1364.51 1591.68 L 1363.16 1588.73 L 1361.26 1586.09 L 1359.76 1583.47 L 1358.27 1581.41 L 1356.44 1578.63 L 1355.02 1575.68 L 1353.40 1573.37 L 1352.23 1571.15 L 1350.48 1568.73 L 1349.02 1565.57 L 1346.85 1563.21 L 1345.72 1561.01 L 1344.32 1558.27 L 1342.80 1555.59 L 1340.79 1552.70 L 1339.07 1550.05 L 1337.79 1548.17 L 1336.68 1545.24 L 1334.58 1543.08 L 1332.84 1540.13 L 1331.84 1538.03 L 1329.78 1534.97 L 1328.44 1532.52 L 1326.67 1530.17 L 1325.36 1527.45 L 1323.63 1525.07 L 1322.25 1522.64 L 1320.70 1519.92 L 1318.82 1517.04 L 1317.33 1514.98 L 1315.63 1512.27 L 1313.97 1510.08 L 1312.73 1507.02 L 1311.39 1504.20 L 1309.39 1502.03 L 1307.61 1499.30 L 1306.45 1496.63 L 1304.51 1494.31 L 1302.78 1491.72 L 1301.46 1489.51 L 1299.77 1486.79 L 1298.68 1484.48 L 1296.94 1481.92 L 1295.06 1479.08 L 1293.74 1476.65 L 1292.28 1473.88 L 1290.69 1471.09 L 1289.05 1468.99 L 1287.54 1466.40 L 1285.99 1464.12 L 1283.67 1460.97 L 1282.89 1458.41 L 1280.75 1456.13 L 1279.40 1453.35 L 1278.35 1451.18 L 1276.55 1448.22 L 1274.44 1445.82 L 1273.17 1443.20 L 1271.68 1441.00 L 1269.60 1438.38 L 1269.00 1435.79 L 1266.57 1433.15 L 1264.94 1430.48 L 1263.58 1428.13 L 1262.53 1425.46 L 1260.48 1422.83 L 1259.13 1420.49 L 1257.91 1418.06 L 1255.73 1415.39 L 1253.99 1412.90 L 1252.96 1410.19 L 1251.36 1407.27 L 1249.71 1404.88 L 1248.09 1402.24 L 1246.68 1399.83 L 1244.68 1397.51 L 1243.45 1394.77 L 1241.64 1392.52 L 1240.01 1389.65 L 1238.90 1387.33 L 1236.92 1384.27 L 1235.34 1381.85 L 1233.94 1379.49 L 1231.92 1376.92 L 1230.74 1374.28 L 1229.24 1371.60 L 1227.75 1369.22 L 1226.33 1366.43 L 1224.81 1363.94 L 1222.39 1361.49 L 1221.27 1358.89 L 1219.84 1356.42 L 1217.99 1353.98 L 1216.74 1350.89 L 1215.43 1348.66 L 1213.39 1346.09 L 1212.09 1343.86 L 1210.44 1340.92 L 1208.75 1338.44 L 1207.21 1336.05 L 1205.56 1333.49 L 1203.83 1330.95 L 1202.47 1328.43 L 1201.03 1326.08 L 1199.28 1323.15 L 1197.64 1320.79 L 1196.45 1318.11 L 1194.59 1315.54 L 1192.81 1312.83 L 1191.22 1310.22 L 1189.66 1307.66 L 1188.79 1304.93 L 1186.57 1302.80 L 1185.58 1300.39 L 1183.66 1297.73 L 1181.71 1295.28 L 1180.36 1292.73 L 1178.86 1290.04 L 1177.37 1287.82 L 1175.48 1284.91 L 1174.12 1282.44 L 1172.46 1279.48 L 1171.12 1277.02 L 1169.15 1274.45 L 1167.75 1272.33 L 1165.93 1269.81 L 1164.49 1266.93 L 1162.88 1264.60 L 1161.82 1261.95 L 1159.78 1259.30 L 1158.63 1257.12 L 1156.94 1254.04 L 1155.38 1251.49 L 1153.28 1249.14 L 1152.32 1246.39 L 1150.39 1244.04 L 1148.98 1241.70 L 1146.94 1238.83 L 1145.67 1236.71 L 1144.17 1234.00 L 1142.60 1231.17 L 1140.56 1228.87 L 1139.73 1226.11 L 1138.04 1223.63 L 1136.12 1221.37 L 1134.41 1218.73 L 1133.28 1215.76 L 1131.04 1213.28 L 1129.76 1211.00 L 1128.08 1208.45 L 1126.98 1205.80 L 1125.30 1203.77 L 1123.91 1201.05 L 1122.10 1198.40 L 1120.60 1195.73 L 1118.88 1193.16 L 1117.26 1190.54 L 1116.12 1187.64 L 1114.07 1185.49 L 1112.38 1182.82 L 1111.45 1180.08 L 1109.73 1177.67 L 1107.91 1175.08 L 1106.44 1172.65 L 1105.37 1169.87 L 1103.41 1167.53 L 1101.87 1164.78 L 1100.14 1162.43 L 1098.47 1159.60 L 1097.05 1157.34 L 1095.49 1155.03 L 1093.80 1151.62 L 1092.22 1149.37 L 1090.42 1146.82 L 1089.19 1144.69 L 1087.80 1141.93 L 1085.78 1139.37 L 1084.18 1136.78 L 1082.51 1134.59 L 1081.36 1131.65 L 1079.70 1129.45 L 1078.10 1126.77 L 1076.77 1124.02 L 1075.10 1121.40 L 1073.24 1118.86 L 1072.14 1116.72 L 1070.47 1113.63 L 1068.54 1111.56 L 1067.47 1108.83 L 1065.71 1106.42 L 1063.47 1103.57 L 1062.57 1101.03 L 1060.76 1098.69 L 1059.01 1095.99 L 1057.90 1093.10 L 1055.84 1090.81 L 1054.58 1088.29 L 1052.75 1085.66 L 1051.63 1083.47 L 1049.56 1080.80 L 1048.30 1078.35 L 1047.28 1075.39 L 1045.13 1073.33 L 1043.64 1070.14 L 1041.53 1067.83 L 1039.99 1065.36 L 1038.45 1062.63 L 1037.20 1060.23 L 1035.57 1057.66 L 1034.26 1055.32 L 1032.79 1052.19 L 1030.90 1050.01 L 1029.35 1047.75 L 1027.34 1044.89 L 1025.78 1042.80 L 1024.30 1039.88 L 1022.67 1037.34 L 1021.48 1034.93 L 1019.55 1032.20 L 1018.12 1029.64 L 1016.77 1027.00 L 1015.30 1024.19 L 1013.27 1021.74 L 1011.84 1019.39 L 1010.39 1016.87 L 1008.85 1014.34 L 1007.29 1011.80 L 1005.40 1009.23 L 1004.30 1006.70 L 1002.48 1004.03 L 1001.10 1001.51 L 1000.00 1000.00 L 998.41 997.46 L 996.83 994.91 L 995.25 992.36 L 993.68 989.80 L 992.12 987.24 L 990.57 984.67 L 989.02 982.10 L 987.47 979.53 L 985.91 976.97 L 984.35 974.41 L 982.78 971.85 L 981.22 969.29 L 979.66 966.73 L 978.09 964.17 L 976.54 961.60 L 974.98 959.04 L 973.44 956.46 L 971.89 953.89 L 970.35 951.32 L 968.80 948.75 L 967.27 946.17 L 965.74 943.59 L 964.21 941.01 L 962.69 938.42 L 961.16 935.84 L 959.64 933.26 L 958.11 930.68 L 956.57 928.10 L 955.03 925.53 L 953.49 922.95 L 951.96 920.37 L 950.43 917.79 L 948.89 915.22 L 947.33 912.66 L 945.78 910.09 L 944.23 907.51 L 942.70 904.94 L 941.15 902.37 L 939.59 899.80 L 938.04 897.24 L 936.48 894.67 L 934.92 892.11 L 933.36 889.55 L 931.79 886.99 L 930.23 884.43 L 928.67 881.87 L 927.11 879.30 L 925.56 876.74 L 924.02 874.16 L 922.48 871.59 L 920.93 869.02 L 919.39 866.45 L 917.84 863.88 L 916.30 861.30 L 914.76 858.72 L 913.22 856.15 L 911.68 853.58 L 910.13 851.01 L 908.58 848.44 L 907.02 845.88 L 905.47 843.31 L 903.92 840.74 L 902.36 838.18 L 900.80 835.61 L 899.26 833.04 L 897.69 830.49 L 896.13 827.92 L 894.59 825.35 L 893.03 822.78 L 891.48 820.21 L 889.92 817.65 L 888.38 815.08 L 886.83 812.51 L 885.30 809.93 L 883.75 807.36 L 882.23 804.77 L 880.70 802.19 L 879.16 799.62 L 877.62 797.05 L 876.10 794.46 L 874.57 791.88 L 873.05 789.29 L 871.53 786.71 L 869.98 784.14 L 868.43 781.57 L 866.87 779.00 L 865.32 776.44 L 863.77 773.87 L 862.23 771.30 L 860.68 768.72 L 859.14 766.15 L 857.58 763.59 L 856.02 761.03 L 854.46 758.46 L 852.88 755.92 L 851.30 753.36 L 849.73 750.81 L 848.17 748.25 L 846.59 745.69 L 845.01 743.14 L 843.44 740.59 L 841.86 738.04 L 840.28 735.49 L 838.69 732.94 L 837.10 730.40 L 835.50 727.86 L 833.90 725.32 L 832.31 722.78 L 830.73 720.23 L 829.15 717.68 L 827.57 715.13 L 825.98 712.59 L 824.38 710.05 L 822.77 707.51 L 821.17 704.98 L 819.57 702.44 L 817.97 699.91 L 816.37 697.37 L 814.77 694.82 L 813.19 692.28 L 811.61 689.73 L 810.04 687.17 L 808.48 684.61 L 806.91 682.05 L 805.33 679.50 L 803.75 676.95 L 802.17 674.40 L 800.59 671.85 L 799.02 669.30 L 797.45 666.74 L 795.87 664.19 L 794.29 661.64 L 792.72 659.08 L 791.15 656.53 L 789.59 653.96 L 788.03 651.40 L 786.47 648.84 L 784.91 646.28 L 783.35 643.71 L 781.80 641.15 L 780.24 638.58 L 778.71 636.00 L 777.17 633.43 L 775.63 630.85 L 774.08 628.28 L 772.54 625.71 L 770.98 623.14 L 769.43 620.58 L 767.87 618.01 L 766.32 615.44 L 764.78 612.87 L 763.24 610.30 L 761.70 607.72 L 760.17 605.14 L 758.63 602.57 L 757.09 600.00 L 755.54 597.42 L 753.99 594.85 L 752.44 592.28 L 750.87 589.73 L 749.29 587.18 L 747.71 584.63 L 746.14 582.07 L 744.58 579.51 L 743.01 576.96 L 741.43 574.40 L 739.86 571.85 L 738.27 569.30 L 736.69 566.75 L 735.10 564.21 L 733.52 561.66 L 731.94 559.11 L 730.36 556.56 L 728.78 554.01 L 727.20 551.46 L 725.61 548.91 L 724.02 546.37 L 722.43 543.83 L 720.82 541.30 L 719.19 538.78 L 717.55 536.27 L 715.92 533.75 L 714.27 531.24 L 712.62 528.73 L 710.98 526.23 L 709.34 523.71 L 707.70 521.20 L 706.05 518.69 L 704.41 516.18 L 702.76 513.68 L 701.12 511.17 L 699.48 508.65 L 697.83 506.14 L 696.21 503.62 L 694.60 501.09 L 693.00 498.55 L 691.40 496.01 L 689.80 493.48 L 688.20 490.94 L 686.58 488.41 L 684.95 485.90 L 683.30 483.39 L 681.67 480.87 L 680.04 478.36 L 678.39 475.85 L 676.74 473.34 L 675.10 470.83 L 673.46 468.32 L 671.82 465.80 L 670.20 463.28 L 668.58 460.76 L 666.95 458.24 L 665.34 455.71 L 663.72 453.18 L 662.11 450.65 L 660.49 448.12 L 658.89 445.59 L 657.29 443.05 L 655.69 440.51 L 654.09 437.97 L 652.50 435.43 L 650.91 432.89 L 649.32 430.34 L 647.73 427.80 L 646.15 425.25 L 644.57 422.70 L 642.98 420.15 L 641.42 417.59 L 639.84 415.04 L 638.27 412.49 L 636.71 409.92 L 635.15 407.36 L 633.58 404.81 L 631.99 402.26 L 630.40 399.71 L 628.82 397.17 L 627.25 394.61 L 625.68 392.05 L 624.12 389.49 L 622.55 386.93 L 620.98 384.38 L 619.41 381.82 L 617.84 379.27 L 616.28 376.70 L 614.72 374.14 L 613.16 371.58 L 611.60 369.01 L 610.05 366.44 L 608.49 363.88 L 606.92 361.32 L 605.37 358.76 L 603.81 356.19 L 602.27 353.62 L 600.74 351.04 L 599.22 348.45 L 597.70 345.87 L 596.16 343.29 L 594.63 340.71 L 593.11 338.12 L 591.59 335.54 L 590.07 332.95 L 588.55 330.37 L 587.03 327.78 L 585.50 325.20 L 583.98 322.62 L 582.44 320.04 L 580.92 317.45 L 579.40 314.87 L 577.88 312.28 L 576.36 309.70 L 574.84 307.10 L 573.32 304.52 L 571.81 301.93 L 570.30 299.34 L 568.76 296.76 L 567.22 294.19 L 565.67 291.62 L 564.13 289.04 L 562.59 286.47 L 561.04 283.90 L 559.49 281.33 L 557.95 278.76 L 556.40 276.19 L 554.86 273.62 L 553.31 271.04 L 551.76 268.47 L 550.21 265.91 L 548.65 263.35 L 547.08 260.79 L 545.51 258.23 L 543.95 255.67 L 542.40 253.10 L 540.85 250.54 L 539.30 247.97 L 537.74 245.40 L 536.18 242.84 L 534.62 240.27 L 533.06 237.72 L 531.48 235.17 L 529.90 232.62 L 528.30 230.08 L 526.70 227.54 L 525.11 225.00 L 523.51 222.46 L 521.93 219.91 L 520.34 217.36 L 518.72 214.84 L 517.12 212.30 L 515.49 209.78 L 513.87 207.26 L 512.25 204.73 L 510.63 202.21 L 509.00 199.69 L 507.39 197.16 L 505.78 194.63 L 504.17 192.09 L 502.58 189.55 L 500.99 187.01 L 499.40 184.46 L 497.82 181.91 L 496.22 179.38 L 494.63 176.83 L 493.05 174.28 L 491.47 171.73 L 489.89 169.18 L 488.30 166.63 L 486.73 164.08 L 485.14 161.53 L 483.56 158.98 L 481.97 156.44 L 480.38 153.90 L 478.78 151.36 L 477.17 148.83 L 475.56 146.30 L 473.95 143.76 L 472.34 141.23 L 470.72 138.71 L 469.10 136.18 L 467.48 133.66 L 465.87 131.13 L 464.25 128.60 L 462.63 126.08 L 461.02 123.55 L 459.41 121.02 L 457.81 118.48 L 456.23 115.93 L 454.63 113.39 L 453.05 110.84 L 451.47 108.29 L 449.87 105.75 L 448.29 103.20 L 446.71 100.65 L 445.12 98.11 L 443.54 95.56 L 441.94 93.02 L 440.33 90.48 L 438.73 87.95 L 437.12 85.42 L 435.51 82.89 L 433.90 80.35 L 432.31 77.81 L 430.72 75.26 L 429.13 72.72 L 427.54 70.18 L 425.93 67.65 L 424.32 65.12 L 422.70 62.59 L 421.10 60.06 L 419.49 57.52 L 417.87 55.00 L 416.24 52.48 L 414.62 49.95 L 413.00 47.43 L 411.39 44.89 L 409.80 42.35 L 408.20 39.81 L 406.60 37.27 L 404.99 34.74 L 403.38 32.22 L 401.74 29.70 L 400.12 27.18 L 398.49 24.66 L 396.86 22.14 L 395.25 19.61 L 393.64 17.08 L 392.01 14.56 L 390.38 12.04 L 388.75 9.52 L 387.13 6.99 L 385.51 4.47 L 383.88 1.95 L 382.26 -0.57 L 380.63 -3.09 L 379.00 -5.61 L 377.37 -8.13 L 375.74 -10.65 L 374.14 -13.18 L 372.53 -15.72 L 370.94 -18.26 L 369.34 -20.80" stroke="rgb(245,245,245)" stroke-opacity="0.980" stroke-width="1.93" />
  <path d="M 973.88 962.94 L 972.17 960.22 L 970.51 957.48 L 968.91 954.72 L 967.34 951.96 L 965.74 949.23 L 964.15 946.52 L 962.62 943.78 L 961.11 941.04 L 959.59 938.32 L 958.05 935.63 L 956.64 932.89 L 955.27 930.13 L 953.82 927.44 L 952.35 924.76 L 950.89 922.10 L 949.46 919.43 L 948.01 916.79 L 946.67 914.10 L 945.36 911.41 L 944.04 908.74 L 942.78 906.06 L 941.61 903.35 L 940.52 900.61 L 939.38 897.91 L 938.18 895.25 L 937.01 892.59" stroke="rgb(120,210,255)" stroke-opacity="0.855" stroke-width="1.64" />
  <path d="M 1000.06 1001.25 L 998.23 998.54 L 996.47 995.80 L 994.74 993.05 L 993.02 990.31 L 991.30 987.59 L 989.55 984.91 L 987.79 982.24 L 986.05 979.58 L 984.29 976.94 L 982.58 974.29 L 980.80 971.70 L 979.02 969.12 L 977.23 966.56 L 975.47 964.00 L 973.76 961.43 L 972.03 958.88 L 970.32 956.33 L 968.59 953.81 L 966.92 951.27 L 965.27 948.72 L 963.65 946.17 L 962.04 943.63 L 960.41 941.12 L 958.82 938.59 L 957.26 936.06 L 955.72 933.54" stroke="rgb(120,210,255)" stroke-opacity="0.850" stroke-width="1.62" />
  <path d="M 996.23 1003.17 L 994.75 1000.39 L 993.30 997.60 L 991.81 994.84 L 990.37 992.08 L 988.93 989.33 L 987.43 986.62 L 985.92 983.93 L 984.47 981.23 L 982.97 978.57 L 981.41 975.95 L 979.88 973.34 L 978.40 970.71 L 976.91 968.09 L 975.42 965.50 L 973.88 962.94 L 972.38 960.37 L 970.89 957.82 L 969.44 955.25 L 967.95 952.72 L 966.49 950.19 L 965.03 947.67 L 963.61 945.14 L 962.19 942.62 L 960.77 940.12" stroke="rgb(120,210,255)" stroke-opacity="0.850" stroke-width="1.62" />
  <path d="M 967.95 952.72 L 966.67 949.63 L 965.40 946.55 L 964.12 943.50 L 962.73 940.50 L 961.34 937.52 L 959.97 934.54 L 958.62 931.57 L 957.37 928.57 L 955.99 925.64 L 954.57 922.75 L 953.12 919.88 L 951.69 917.02 L 950.23 914.19 L 948.87 911.32 L 947.54 908.46 L 946.26 905.58 L 945.01 902.71 L 943.75 899.85 L 942.56 896.97 L 941.40 894.10 L 940.25 891.24 L 939.16 888.37 L 937.96 885.55 L 936.77 882.74 L 935.68 879.91 L 934.52 877.12 L 933.39 874.32 L 932.29 871.53 L 931.26 868.73 L 930.23 865.94 L 929.20 863.16 L 928.12 860.41 L 927.06 857.67 L 926.01 854.93 L 924.94 852.22 L 923.89 849.51 L 922.70 846.87 L 921.55 844.23 L 920.33 841.63 L 919.21 839.00 L 918.02 836.42 L 916.77 833.87 L 915.52 831.33 L 914.30 828.80 L 913.06 826.29 L 911.83 823.78 L 910.67 821.26 L 909.49 818.75 L 908.25 816.29 L 906.98 813.85 L 905.72 811.42 L 904.43 809.02 L 903.15 806.63 L 901.86 804.25 L 900.52 801.92 L 899.18 799.60 L 897.89 797.26 L 896.58 794.94" stroke="rgb(120,210,255)" stroke-opacity="0.849" stroke-width="1.62" />
  <path d="M 999.72 997.40 L 998.11 994.52 L 996.59 991.62 L 995.03 988.74 L 993.43 985.91 L 991.79 983.12 L 990.19 980.31 L 988.67 977.48 L 987.18 974.65 L 985.73 971.80 L 984.28 968.98 L 982.80 966.18 L 981.39 963.36 L 979.97 960.56 L 978.57 957.77 L 977.19 954.98 L 975.70 952.26 L 974.20 949.55 L 972.73 946.85 L 971.22 944.18 L 969.68 941.55 L 968.14 938.93 L 966.61 936.31 L 965.19 933.65 L 963.75 931.02 L 962.34 928.38 L 960.93 925.76 L 959.50 923.16 L 958.03 920.59 L 956.59 918.02 L 955.10 915.50 L 953.55 913.02 L 952.02 910.55 L 950.49 908.09 L 948.99 905.63 L 947.43 903.21 L 945.90 900.79 L 944.41 898.36 L 942.94 895.93 L 941.51 893.49" stroke="rgb(120,210,255)" stroke-opacity="0.847" stroke-width="1.62" />
  <path d="M 1000.75 1001.88 L 998.98 998.99 L 997.20 996.12 L 995.41 993.27 L 993.62 990.43 L 991.82 987.62 L 990.03 984.82 L 988.23 982.04 L 986.41 979.30 L 984.60 976.55 L 982.79 973.83 L 980.93 971.16 L 979.07 968.50 L 977.19 965.87 L 975.34 963.23 L 973.53 960.59 L 971.77 957.92 L 970.01 955.27 L 968.25 952.64 L 966.52 950.00 L 964.81 947.36 L 963.13 944.72 L 961.48 942.08 L 959.82 939.45 L 958.18 936.83 L 956.53 934.23 L 954.92 931.62 L 953.31 929.02 L 951.70 926.44 L 950.09 923.87 L 948.42 921.36 L 946.76 918.85 L 945.16 916.32 L 943.62 913.76 L 942.08 911.22 L 940.52 908.71 L 938.97 906.20 L 937.42 903.71 L 935.83 901.25 L 934.24 898.81 L 932.65 896.39 L 931.09 893.95 L 929.53 891.54 L 928.00 889.12 L 926.47 886.71 L 924.96 884.30 L 923.45 881.90 L 921.93 879.52 L 920.44 877.14 L 918.93 874.79 L 917.40 872.46 L 915.91 870.12 L 914.47 867.76 L 913.03 865.41 L 911.64 863.05 L 910.25 860.70 L 908.91 858.33 L 907.63 855.94 L 906.33 853.58 L 905.08 851.20 L 903.83 848.83 L 902.60 846.47 L 901.42 844.09 L 900.27 841.70 L 899.15 839.32 L 898.00 836.96 L 896.84 834.62 L 895.70 832.28 L 894.53 829.97 L 893.32 827.68 L 892.13 825.41 L 890.95 823.13 L 889.78 820.86 L 888.64 818.60 L 887.49 816.34 L 886.32 814.11 L 885.18 811.87 L 884.08 809.63 L 882.99 807.39 L 881.95 805.13 L 880.93 802.88 L 879.91 800.64 L 878.94 798.39 L 878.01 796.14 L 877.07 793.89 L 876.15 791.65 L 875.21 789.43 L 874.24 787.23 L 873.26 785.05 L 872.30 782.87 L 871.35 780.69 L 870.38 778.54 L 869.46 776.37 L 868.53 774.21 L 867.64 772.06 L 866.70 769.93 L 865.76 767.81 L 864.80 765.71 L 863.86 763.61" stroke="rgb(120,210,255)" stroke-opacity="0.843" stroke-width="1.60" />
  <path d="M 1001.97 1000.32 L 1000.34 997.29 L 998.70 994.28 L 997.14 991.25" stroke="rgb(120,210,255)" stroke-opacity="0.842" stroke-width="1.60" />
  <path d="M 1002.23 994.52 L 1000.64 991.84 L 999.06 989.18 L 997.41 986.57 L 995.80 983.95 L 994.15 981.37 L 992.56 978.76 L 990.95 976.19 L 989.31 973.65 L 987.63 971.14 L 985.93 968.67 L 984.24 966.21 L 982.51 963.78 L 980.84 961.33 L 979.22 958.87 L 977.57 956.42 L 975.97 953.97 L 974.36 951.54 L 972.82 949.07 L 971.34 946.58 L 969.90 944.09 L 968.43 941.62 L 966.94 939.17 L 965.49 936.72 L 964.01 934.30 L 962.50 931.91 L 960.97 929.55 L 959.42 927.21 L 957.85 924.90 L 956.28 922.61 L 954.68 920.34 L 953.13 918.06 L 951.58 915.80 L 950.01 913.55 L 948.49 911.29 L 947.03 909.00 L 945.62 906.69 L 944.21 904.39 L 942.77 902.13 L 941.34 899.87 L 939.93 897.62 L 938.60 895.32 L 937.33 893.01 L 936.06 890.71" stroke="rgb(120,210,255)" stroke-opacity="0.841" stroke-width="1.60" />
  <path d="M 978.32 967.52 L 976.03 964.88 L 973.76 962.24 L 971.52 959.58 L 969.31 956.93 L 967.09 954.29 L 964.89 951.66 L 962.70 949.04 L 960.54 946.41 L 958.43 943.76 L 956.36 941.10 L 954.38 938.39 L 952.37 935.71 L 950.37 933.04 L 948.34 930.41 L 946.34 927.77 L 944.32 925.18 L 942.31 922.58 L 940.32 919.99 L 938.36 917.40 L 936.36 914.84 L 934.35 912.31 L 932.35 909.79 L 930.37 907.28 L 928.37 904.79 L 926.35 902.34 L 924.34 899.89 L 922.32 897.47 L 920.30 895.07 L 918.30 892.67 L 916.24 890.33 L 914.20 887.99 L 912.16 885.68 L 910.11 883.37 L 908.04 881.12 L 906.02 878.83 L 904.00 876.56 L 902.00 874.29 L 900.00 872.03 L 898.00 869.78 L 896.05 867.52 L 894.04 865.32 L 892.02 863.14 L 890.03 860.96 L 888.09 858.74 L 886.17 856.52 L 884.25 854.32 L 882.28 852.18 L 880.30 850.06 L 878.34 847.94 L 876.36 845.87 L 874.31 843.86 L 872.22 841.92 L 870.18 839.95 L 868.13 838.00 L 866.08 836.07 L 864.01 834.17 L 861.98 832.25 L 859.93 830.37 L 857.88 828.50 L 855.85 826.62 L 853.82 824.77" stroke="rgb(120,210,255)" stroke-opacity="0.840" stroke-width="1.59" />
  <path d="M 950.38 893.18 L 948.24 890.90 L 946.03 888.72 L 943.81 886.55 L 941.57 884.43 L 939.24 882.43 L 936.91 880.44 L 934.58 878.48 L 932.16 876.64 L 929.67 874.92 L 927.23 873.16 L 924.78 871.42 L 922.28 869.78 L 919.78 868.16 L 917.27 866.59 L 914.78 865.01 L 912.29 863.44 L 909.79 861.92 L 907.31 860.37 L 904.80 858.91 L 902.31 857.44 L 899.81 855.99 L 897.32 854.57 L 894.82 853.19 L 892.29 851.87 L 889.77 850.56 L 887.23 849.33 L 884.72 848.06 L 882.21 846.81 L 879.72 845.54 L 877.20 844.38 L 874.65 843.28 L 872.13 842.17 L 869.63 841.02 L 867.19 839.79 L 864.73 838.61 L 862.32 837.36 L 859.91 836.13 L 857.55 834.85 L 855.14 833.65 L 852.71 832.54 L 850.29 831.45 L 847.84 830.44 L 845.40 829.44 L 842.98 828.39 L 840.61 827.29 L 838.27 826.14 L 835.95 824.98 L 833.60 823.89 L 831.29 822.75 L 829.00 821.58 L 826.69 820.48 L 824.42 819.33 L 822.16 818.19 L 819.91 817.04 L 817.69 815.85 L 815.53 814.59 L 813.41 813.27 L 811.33 811.91 L 809.25 810.58 L 807.17 809.25 L 805.07 807.97 L 803.01 806.65 L 800.95 805.35 L 798.87 804.11 L 796.80 802.85 L 794.80 801.52 L 792.81 800.18 L 790.85 798.82 L 788.90 797.46 L 786.97 796.08 L 785.08 794.67 L 783.19 793.27 L 781.30 791.88 L 779.42 790.51 L 777.62 789.05 L 775.80 787.62 L 774.05 786.12 L 772.31 784.62" stroke="rgb(120,210,255)" stroke-opacity="0.839" stroke-width="1.59" />
  <path d="M 965.03 947.67 L 963.96 944.93 L 962.97 942.18 L 961.98 939.44 L 960.93 936.73 L 959.92 934.03 L 958.88 931.35 L 957.86 928.66 L 956.90 925.98 L 955.91 923.31 L 954.94 920.65 L 953.95 918.00 L 952.98 915.37 L 951.95 912.76 L 950.90 910.18 L 949.79 907.64 L 948.83 905.05 L 947.98 902.43 L 947.28 899.77 L 946.65 897.11 L 946.02 894.47 L 945.43 891.82 L 944.88 889.18 L 944.30 886.55 L 943.60 883.97 L 942.95 881.38 L 942.27 878.81 L 941.62 876.25 L 941.00 873.69 L 940.51 871.11" stroke="rgb(120,210,255)" stroke-opacity="0.459" stroke-width="1.58" />
  <path d="M 996.87 1002.64 L 995.46 1000.31 L 994.09 997.96 L 992.76 995.61 L 991.43 993.27 L 990.16 990.91 L 988.95 988.53 L 987.78 986.14 L 986.59 983.78 L 985.36 981.44 L 984.10 979.14 L 982.76 976.88 L 981.56 974.57 L 980.46 972.22 L 979.35 969.88 L 978.32 967.52 L 977.30 965.17 L 976.32 962.81 L 975.37 960.45 L 974.47 958.08 L 973.57 955.72 L 972.69 953.36 L 971.79 951.03 L 970.96 948.68 L 970.19 946.31 L 969.43 943.96 L 968.71 941.60 L 967.93 939.27 L 967.23 936.93 L 966.48 934.61 L 965.67 932.33 L 964.89 930.04 L 963.97 927.82 L 963.12 925.58 L 962.31 923.33 L 961.47 921.11 L 960.62 918.90 L 959.80 916.69 L 958.94 914.50 L 958.09 912.32 L 957.25 910.15 L 956.44 907.97 L 955.57 905.83 L 954.68 903.71 L 953.76 901.61 L 952.87 899.50 L 952.05 897.38 L 951.24 895.27 L 950.38 893.18 L 949.50 891.11 L 948.62 889.05 L 947.73 887.01 L 946.86 884.97 L 945.99 882.93 L 945.28 880.84 L 944.69 878.73" stroke="rgb(120,210,255)" stroke-opacity="0.457" stroke-width="1.56" />
  <path d="M 1048.48 985.34 L 1050.73 982.66 L 1052.98 980.00" stroke="rgb(205,165,255)" stroke-opacity="0.726" stroke-width="1.26" />
  <path d="M 998.60 1000.99 L 999.26 997.68 L 999.94 994.39 L 1000.65 991.11 L 1001.45 987.87 L 1002.22 984.64 L 1002.98 981.42 L 1003.73 978.21 L 1004.54 975.03 L 1005.31 971.85 L 1006.20 968.72 L 1007.14 965.62 L 1008.04 962.51 L 1008.97 959.43 L 1009.84 956.35 L 1010.73 953.28 L 1011.66 950.24 L 1012.58 947.21 L 1013.49 944.19 L 1014.34 941.17 L 1015.23 938.17 L 1016.10 935.18 L 1016.97 932.20 L 1017.82 929.23 L 1018.64 926.26 L 1019.39 923.29 L 1020.11 920.32 L 1020.86 917.37 L 1021.65 914.44 L 1022.40 911.52 L 1023.13 908.60 L 1023.78 905.68 L 1024.41 902.77 L 1025.05 899.87 L 1025.69 896.98 L 1026.36 894.11 L 1026.98 891.24 L 1027.66 888.40 L 1028.40 885.58 L 1029.10 882.77 L 1029.80 879.97 L 1030.53 877.19 L 1031.27 874.42 L 1031.93 871.65 L 1032.62 868.89 L 1033.35 866.15 L 1034.13 863.44 L 1034.95 860.76 L 1035.75 858.08 L 1036.58 855.42 L 1037.45 852.78 L 1038.35 850.17 L 1039.28 847.58 L 1040.24 845.02 L 1041.18 842.45 L 1042.14 839.91 L 1043.10 837.37 L 1044.01 834.83 L 1044.89 832.30 L 1045.77 829.77 L 1046.64 827.25 L 1047.52 824.75 L 1048.41 822.26 L 1049.31 819.78 L 1050.13 817.29 L 1050.93 814.80 L 1051.70 812.32 L 1052.54 809.87 L 1053.34 807.41 L 1054.16 804.98 L 1054.99 802.56 L 1055.84 800.15 L 1056.67 797.75 L 1057.55 795.38 L 1058.39 793.00 L 1059.28 790.65 L 1060.16 788.31 L 1061.06 785.99" stroke="rgb(205,165,255)" stroke-opacity="0.720" stroke-width="1.24" />
  <path d="M 999.38 1000.17 L 998.40 998.20 L 997.43 996.24 L 996.53 994.25 L 995.63 992.27 L 994.81 990.27 L 993.87 988.33 L 992.93 986.40 L 992.06 984.45 L 991.30 982.46 L 990.54 980.48 L 989.75 978.51 L 988.88 976.60 L 988.02 974.69 L 987.20 972.77 L 986.38 970.86 L 985.57 968.95 L 984.77 967.05 L 983.88 965.20 L 982.98 963.36 L 982.08 961.54 L 981.28 959.67 L 980.51 957.80 L 979.79 955.92 L 979.14 954.02 L 978.53 952.12 L 977.96 950.22 L 977.38 948.32 L 976.74 946.45 L 975.94 944.66 L 975.11 942.88 L 974.42 941.06 L 973.78 939.23 L 973.13 937.40 L 972.40 935.62 L 971.63 933.86 L 970.92 932.09 L 970.31 930.29 L 969.64 928.51 L 969.05 926.72 L 968.57 924.90 L 968.06 923.10 L 967.61 921.29 L 967.26 919.46 L 967.03 917.63 L 966.82 915.79 L 966.80 913.96 L 966.74 912.13 L 966.72 910.31 L 966.59 908.50 L 966.37 906.71 L 966.19 904.92 L 965.99 903.13 L 965.87 901.35 L 965.69 899.58 L 965.48 897.83 L 965.24 896.08" stroke="rgb(140,255,190)" stroke-opacity="0.569" stroke-width="1.24" />
  <path d="M 997.68 999.45 L 995.83 996.49 L 993.99 993.54 L 992.17 990.59 L 990.40 987.62 L 988.66 984.66 L 986.96 981.69 L 985.28 978.73 L 983.59 975.78 L 981.95 972.82 L 980.37 969.84 L 978.79 966.89 L 977.26 963.92 L 975.73 960.96 L 974.21 958.01 L 972.70 955.07 L 971.24 952.13 L 969.81 949.18 L 968.36 946.26 L 966.88 943.37 L 965.39 940.49 L 963.96 937.60 L 962.54 934.73 L 961.09 931.88 L 959.63 929.04 L 958.18 926.23 L 956.76 923.40 L 955.31 920.61 L 953.86 917.83 L 952.45 915.05 L 951.10 912.24 L 949.78 909.44 L 948.48 906.65 L 947.16 903.87 L 945.86 901.10 L 944.56 898.35 L 943.24 895.61 L 941.94 892.88 L 940.64 890.17 L 939.33 887.47 L 937.99 884.80 L 936.72 882.11 L 935.51 879.40 L 934.29 876.72 L 933.06 874.04 L 931.87 871.37 L 930.66 868.72 L 929.44 866.08 L 928.27 863.44 L 927.07 860.82 L 925.86 858.22" stroke="rgb(140,255,190)" stroke-opacity="0.745" stroke-width="1.21" />
  <path d="M 998.40 1002.37 L 996.60 999.68 L 994.84 996.98 L 993.07 994.30 L 991.26 991.66 L 989.54 988.98 L 987.86 986.29 L 986.21 983.59 L 984.59 980.89 L 982.98 978.20 L 981.43 975.49 L 979.95 972.75 L 978.37 970.09 L 976.73 967.47 L 975.14 964.84 L 973.59 962.20 L 972.05 959.57 L 970.49 956.96 L 968.89 954.40 L 967.35 951.81 L 965.82 949.23 L 964.30 946.66 L 962.77 944.11 L 961.22 941.58 L 959.61 939.10 L 958.07 936.59 L 956.60 934.06 L 955.16 931.52 L 953.73 929.00 L 952.31 926.48 L 950.94 923.94 L 949.59 921.41 L 948.30 918.86 L 946.98 916.33 L 945.64 913.83 L 944.33 911.33 L 942.99 908.85 L 941.64 906.39 L 940.37 903.91 L 939.12 901.43 L 937.88 898.95 L 936.61 896.50 L 935.40 894.04 L 934.24 891.56 L 933.02 889.12 L 931.84 886.68 L 930.64 884.25 L 929.40 881.86 L 928.19 879.47 L 926.90 877.13 L 925.59 874.81 L 924.33 872.48 L 923.09 870.15 L 921.90 867.81 L 920.75 865.46 L 919.62 863.11 L 918.46 860.78 L 917.28 858.48 L 916.05 856.22 L 914.78 853.99 L 913.54 851.75 L 912.32 849.52 L 911.09 847.30 L 909.85 845.10 L 908.67 842.88 L 907.46 840.68 L 906.24 838.51" stroke="rgb(205,165,255)" stroke-opacity="0.707" stroke-width="1.21" />
  <path d="M 970.31 930.29 L 970.12 928.01 L 969.95 925.74 L 969.80 923.48 L 969.78 921.22 L 969.56 918.98 L 969.23 916.76 L 968.88 914.56 L 968.62 912.35 L 968.30 910.16 L 967.92 907.99 L 967.69 905.81 L 967.55 903.62 L 967.36 901.45 L 967.14 899.30 L 966.91 897.15 L 966.62 895.01 L 966.29 892.90 L 965.97 890.79 L 965.61 888.69 L 965.20 886.61 L 964.72 884.56 L 964.24 882.51 L 963.91 880.44 L 963.79 878.36 L 963.79 876.29 L 963.91 874.22 L 963.98 872.17 L 963.91 870.11 L 963.89 868.07 L 963.96 866.04 L 963.99 864.01 L 964.14 862.00 L 964.26 859.99 L 964.43 858.00 L 964.68 856.02 L 964.94 854.05 L 965.36 852.11 L 965.60 850.16 L 965.83 848.21 L 966.07 846.27 L 966.23 844.33 L 966.54 842.41 L 966.83 840.50 L 967.21 838.62 L 967.77 836.79 L 968.30 834.95 L 968.81 833.12 L 969.20 831.27 L 969.66 829.44 L 970.07 827.61" stroke="rgb(140,255,190)" stroke-opacity="0.558" stroke-width="1.20" />
  <path d="M 932.37 941.83 L 930.08 939.21 L 927.79 936.61 L 925.54 934.00 L 923.35 931.35 L 921.21 928.68 L 919.06 926.04 L 916.92 923.41 L 914.71 920.85 L 912.49 918.31 L 910.35 915.73 L 908.22 913.17 L 906.07 910.62 L 903.90 908.12 L 901.71 905.65 L 899.53 903.20 L 897.33 900.77 L 895.14 898.35 L 892.94 895.97 L 890.74 893.59 L 888.51 891.27 L 886.31 888.94 L 884.11 886.62 L 881.94 884.28 L 879.76 881.98 L 877.58 879.70 L 875.47 877.37 L 873.32 875.09 L 871.23 872.77 L 869.08 870.53" stroke="rgb(140,255,190)" stroke-opacity="0.739" stroke-width="1.19" />
  <path d="M 961.16 930.43 L 958.15 928.88 L 955.17 927.31 L 952.20 925.77 L 949.25 924.20 L 946.32 922.62 L 943.40 921.06 L 940.47 919.55 L 937.57 918.00 L 934.66 916.49 L 931.76 915.01 L 928.87 913.52 L 925.98 912.08 L 923.11 910.62 L 920.23 909.20 L 917.36 907.79 L 914.50 906.40 L 911.63 905.05 L 908.77 903.71 L 905.94 902.35 L 903.09 901.06 L 900.28 899.70 L 897.47 898.37 L 894.70 897.00 L 891.93 895.64 L 889.17 894.29 L 886.44 892.93 L 883.70 891.59 L 880.96 890.28 L 878.22 889.03 L 875.48 887.78 L 872.74 886.57 L 870.00 885.37 L 867.30 884.14 L 864.60 882.91 L 861.88 881.77 L 859.17 880.65 L 856.48 879.49 L 853.81 878.32 L 851.16 877.15 L 848.48 876.07 L 845.83 874.94 L 843.22 873.76 L 840.64 872.52 L 838.10 871.26 L 835.54 870.03 L 833.04 868.73 L 830.53 867.46 L 828.06 866.14 L 825.61 864.82 L 823.19 863.45 L 820.77 862.11 L 818.32 860.85 L 815.89 859.57 L 813.49 858.26 L 811.12 856.93 L 808.74 855.63 L 806.37 854.33 L 804.01 853.05 L 801.66 851.76 L 799.30 850.52 L 796.91 849.35 L 794.54 848.18 L 792.17 847.04 L 789.77 845.95 L 787.41 844.83" stroke="rgb(140,255,190)" stroke-opacity="0.737" stroke-width="1.19" />
  <path d="M 952.59 943.62 L 951.02 940.57 L 949.49 937.53 L 947.97 934.49 L 946.43 931.47 L 944.85 928.49 L 943.22 925.56 L 941.58 922.65 L 939.91 919.76 L 938.21 916.91 L 936.59 914.03 L 935.02 911.14 L 933.43 908.28 L 931.76 905.47 L 930.13 902.66 L 928.56 899.83 L 926.94 897.04 L 925.45 894.19 L 924.00 891.33 L 922.52 888.51 L 921.09 885.68 L 919.65 882.87 L 918.22 880.06 L 916.78 877.28 L 915.36 874.49 L 913.94 871.72 L 912.49 868.98" stroke="rgb(140,255,190)" stroke-opacity="0.737" stroke-width="1.19" />
  <path d="M 1113.08 970.43 L 1115.23 968.31 L 1117.35 966.18 L 1119.44 964.04 L 1121.42 961.81 L 1123.30 959.52 L 1125.27 957.32 L 1127.22 955.11 L 1129.21 952.95 L 1131.15 950.77 L 1133.06 948.58 L 1134.85 946.30 L 1136.59 943.99 L 1138.33 941.71 L 1139.96 939.35 L 1141.75 937.13 L 1143.54 934.93 L 1145.32 932.72 L 1147.09 930.54 L 1148.87 928.36 L 1150.73 926.28 L 1152.55 924.17 L 1154.31 922.03 L 1156.01 919.85 L 1157.82 917.78 L 1159.66 915.75 L 1161.52 913.75 L 1163.35 911.75 L 1165.20 909.77 L 1167.03 907.79 L 1168.88 905.84 L 1170.61 903.80 L 1172.31 901.75 L 1173.91 899.64 L 1175.68 897.67 L 1177.41 895.69 L 1179.16 893.74 L 1180.87 891.76 L 1182.64 889.86 L 1184.38 887.94" stroke="rgb(205,165,255)" stroke-opacity="0.489" stroke-width="1.18" />
  <path d="M 948.62 909.63 L 946.24 907.22 L 943.85 904.83 L 941.46 902.47 L 939.13 900.06 L 936.76 897.71 L 934.44 895.34 L 932.12 892.98 L 929.84 890.60 L 927.58 888.22 L 925.35 885.83 L 923.17 883.42 L 921.00 881.00 L 918.87 878.57 L 916.80 876.12 L 914.71 873.69 L 912.68 871.22 L 910.70 868.74 L 908.73 866.26 L 906.83 863.74 L 905.02 861.18 L 903.16 858.66 L 901.35 856.13 L 899.50 853.63 L 897.69 851.13 L 895.90 848.63 L 894.13 846.12 L 892.38 843.62 L 890.70 841.09 L 889.01 838.57 L 887.26 836.11 L 885.61 833.60 L 884.03 831.06 L 882.50 828.50 L 880.95 825.97 L 879.39 823.46 L 877.88 820.93 L 876.32 818.44 L 874.77 815.97 L 873.23 813.50 L 871.68 811.05 L 870.13 808.62 L 868.59 806.19 L 867.11 803.73 L 865.63 801.29 L 864.16 798.86 L 862.74 796.42 L 861.28 794.01 L 859.88 791.57 L 858.50 789.14 L 857.12 786.72 L 855.77 784.30 L 854.40 781.90 L 853.05 779.51 L 851.62 777.17 L 850.25 774.81" stroke="rgb(140,255,190)" stroke-opacity="0.736" stroke-width="1.18" />
  <path d="M 977.39 950.46 L 974.77 948.37 L 972.16 946.27 L 969.57 944.16 L 967.00 942.06 L 964.39 940.02 L 961.78 938.02 L 959.25 935.93 L 956.71 933.87 L 954.23 931.76 L 951.77 929.65 L 949.32 927.55 L 946.92 925.40 L 944.53 923.27 L 942.17 921.12" stroke="rgb(140,255,190)" stroke-opacity="0.735" stroke-width="1.18" />
  <path d="M 974.28 964.50 L 971.17 962.91 L 968.08 961.31 L 965.00 959.72 L 961.94 958.11 L 958.93 956.46 L 955.92 954.82 L 952.93 953.18 L 949.99 951.48 L 947.06 949.80 L 944.13 948.12 L 941.21 946.47 L 938.28 944.86 L 935.34 943.30 L 932.37 941.83 L 929.38 940.42 L 926.40 939.03 L 923.41 937.68 L 920.42 936.37 L 917.45 935.06 L 914.48 933.76 L 911.54 932.44 L 908.60 931.14 L 905.68 929.85 L 902.74 928.61 L 899.82 927.38 L 896.90 926.16 L 894.00 924.94 L 891.11 923.72 L 888.24 922.49 L 885.40 921.21 L 882.60 919.90 L 879.79 918.63 L 877.00 917.33 L 874.26 915.97 L 871.52 914.64 L 868.76 913.37 L 866.01 912.10 L 863.26 910.89 L 860.49 909.72 L 857.77 908.49 L 855.04 907.29 L 852.32 906.12 L 849.65 904.86 L 847.00 903.59 L 844.36 902.33 L 841.71 901.10 L 839.08 899.87 L 836.43 898.70 L 833.81 897.50 L 831.20 896.31 L 828.57 895.18 L 825.96 894.05 L 823.34 892.96 L 820.74 891.85 L 818.14 890.77 L 815.56 889.67 L 813.00 888.57 L 810.45 887.46 L 807.92 886.35 L 805.39 885.23 L 802.87 884.15 L 800.38 883.01" stroke="rgb(140,255,190)" stroke-opacity="0.734" stroke-width="1.18" />
  <path d="M 929.10 875.66 L 928.41 872.35 L 927.73 869.05 L 927.03 865.77 L 926.27 862.52 L 925.54 859.27 L 924.85 856.03 L 924.19 852.80 L 923.62 849.56 L 923.08 846.33 L 922.55 843.11 L 922.03 839.90 L 921.53 836.71 L 921.00 833.53 L 920.53 830.35 L 920.10 827.18 L 919.70 824.02 L 919.25 820.89 L 918.76 817.76 L 918.34 814.65 L 917.92 811.54 L 917.44 808.46 L 916.96 805.38 L 916.45 802.33 L 915.90 799.30 L 915.34 796.27 L 914.73 793.28 L 914.07 790.30" stroke="rgb(140,255,190)" stroke-opacity="0.733" stroke-width="1.18" />
  <path d="M 1001.91 1001.76 L 1000.58 998.66 L 999.31 995.55 L 998.07 992.44 L 996.82 989.35 L 995.57 986.28 L 994.35 983.21 L 993.14 980.15 L 991.91 977.11 L 990.70 974.07 L 989.53 971.04 L 988.47 967.97 L 987.40 964.93 L 986.30 961.91 L 985.19 958.91 L 984.09 955.92 L 983.05 952.92 L 982.02 949.93 L 980.96 946.96 L 979.88 944.01 L 978.81 941.08 L 977.69 938.17 L 976.57 935.28 L 975.44 932.40 L 974.25 929.57 L 973.06 926.75 L 971.88 923.94" stroke="rgb(140,255,190)" stroke-opacity="0.732" stroke-width="1.17" />
  <path d="M 1001.88 998.69 L 999.99 995.88 L 998.16 993.06 L 996.40 990.20 L 994.62 987.38 L 992.84 984.56 L 991.11 981.74 L 989.42 978.90 L 987.77 976.06 L 986.14 973.22 L 984.53 970.38 L 982.94 967.55 L 981.35 964.73 L 979.79 961.91 L 978.27 959.08 L 976.81 956.24 L 975.30 953.44 L 973.81 950.64 L 972.29 947.87 L 970.76 945.12" stroke="rgb(140,255,190)" stroke-opacity="0.731" stroke-width="1.17" />
  <path d="M 998.33 1004.33 L 996.88 1001.75 L 995.45 999.18 L 993.98 996.64 L 992.60 994.06 L 991.29 991.46 L 990.10 988.81 L 988.92 986.18 L 987.75 983.56 L 986.69 980.89 L 985.61 978.25 L 984.43 975.67 L 983.22 973.11 L 982.01 970.56 L 980.88 967.99 L 979.80 965.41 L 978.69 962.85 L 977.63 960.29 L 976.54 957.75 L 975.52 955.20 L 974.46 952.67 L 973.44 950.13 L 972.46 947.60 L 971.44 945.09 L 970.38 942.61 L 969.34 940.13 L 968.40 937.63 L 967.51 935.11 L 966.60 932.62 L 965.75 930.12 L 965.03 927.58 L 964.25 925.08 L 963.48 922.58 L 962.64 920.12 L 961.74 917.69 L 960.90 915.25 L 959.97 912.85 L 959.11 910.44 L 958.26 908.04 L 957.46 905.63 L 956.65 903.23" stroke="rgb(205,165,255)" stroke-opacity="0.485" stroke-width="1.17" />
  <path d="M 949.59 939.75 L 948.89 937.51 L 948.15 935.29 L 947.48 933.05 L 946.95 930.79 L 946.46 928.53 L 945.89 926.30 L 945.34 924.07 L 944.73 921.87 L 944.09 919.68 L 943.71 917.45 L 943.47 915.20 L 943.43 912.96 L 943.45 910.72 L 943.32 908.49 L 943.21 906.27 L 943.19 904.06 L 943.34 901.86 L 943.50 899.67 L 943.69 897.49 L 943.83 895.31 L 943.92 893.15 L 944.08 890.99 L 944.24 888.85 L 944.30 886.70 L 944.37 884.57 L 944.56 882.45 L 944.88 880.36 L 945.20 878.27 L 945.46 876.19 L 945.68 874.11 L 945.91 872.04 L 946.30 870.00 L 946.64 867.96 L 947.05 865.94 L 947.41 863.92 L 947.83 861.92 L 948.34 859.95 L 948.94 858.02 L 949.62 856.12 L 950.20 854.19 L 950.84 852.30 L 951.43 850.39 L 951.98 848.48 L 952.41 846.55 L 952.70 844.60 L 953.10 842.68 L 953.52 840.77 L 953.89 838.86 L 954.24 836.95 L 954.52 835.04 L 954.78 833.14 L 955.02 831.23 L 955.24 829.34" stroke="rgb(140,255,190)" stroke-opacity="0.547" stroke-width="1.17" />
  <path d="M 880.75 979.53 L 877.56 978.71 L 874.40 977.87 L 871.28 976.90 L 868.18 975.92 L 865.12 974.86 L 862.09 973.77 L 859.06 972.69 L 856.09 971.51 L 853.16 970.26 L 850.23 969.04 L 847.34 967.77 L 844.43 966.56 L 841.54 965.34 L 838.64 964.20 L 835.73 963.08 L 832.82 962.03 L 829.92 960.99 L 827.04 959.91 L 824.17 958.83 L 821.33 957.74 L 818.49 956.67 L 815.62 955.72 L 812.79 954.69 L 809.97 953.65 L 807.16 952.65" stroke="rgb(140,255,190)" stroke-opacity="0.728" stroke-width="1.16" />
  <path d="M 944.08 890.99 L 942.60 888.04 L 941.12 885.11 L 939.67 882.17 L 938.22 879.24 L 936.82 876.31 L 935.38 873.41 L 933.87 870.57 L 932.38 867.72 L 930.85 864.91 L 929.26 862.15 L 927.57 859.47 L 925.78 856.87 L 924.00 854.27 L 922.27 851.66 L 920.58 849.04 L 918.91 846.41 L 917.32 843.76 L 915.67 841.15 L 914.15 838.48 L 912.54 835.88 L 910.94 833.28 L 909.50 830.61 L 908.00 827.99 L 906.52 825.37 L 905.05 822.75 L 903.57 820.15 L 902.16 817.54 L 900.78 814.91 L 899.42 812.29 L 898.07 809.68 L 896.75 807.07 L 895.41 804.48 L 894.11 801.88 L 892.74 799.33 L 891.23 796.88 L 889.62 794.50 L 888.03 792.13 L 886.37 789.82 L 884.71 787.52 L 882.97 785.30 L 881.21 783.10 L 879.45 780.92 L 877.71 778.74 L 876.00 776.55 L 874.28 774.38 L 872.57 772.22 L 870.85 770.08 L 869.12 767.96 L 867.42 765.83 L 865.67 763.76 L 863.94 761.69 L 862.15 759.67 L 860.47 757.58 L 858.92 755.41 L 857.39 753.23 L 855.89 751.05 L 854.39 748.88 L 852.87 746.74 L 851.44 744.55 L 850.03 742.35 L 848.66 740.15 L 847.36 737.92 L 846.14 735.65 L 844.92 733.39 L 843.71 731.14 L 842.48 728.91 L 841.24 726.70 L 839.94 724.54 L 838.53 722.46 L 837.10 720.40 L 835.65 718.37 L 834.17 716.38" stroke="rgb(140,255,190)" stroke-opacity="0.727" stroke-width="1.16" />
  <path d="M 1000.32 1001.09 L 998.57 998.34 L 996.77 995.63 L 995.00 992.93 L 993.20 990.27 L 991.36 987.64 L 989.55 985.01 L 987.87 982.31 L 986.19 979.62 L 984.53 976.94 L 982.84 974.29 L 981.11 971.68 L 979.36 969.10 L 977.68 966.49 L 975.99 963.90 L 974.36 961.29 L 972.69 958.71" stroke="rgb(140,255,190)" stroke-opacity="0.726" stroke-width="1.16" />
  <path d="M 1001.45 1001.29 L 999.86 998.47 L 998.35 995.62 L 996.82 992.79 L 995.33 989.96 L 993.85 987.14 L 992.38 984.32 L 990.88 981.54 L 989.38 978.77 L 987.94 975.98 L 986.50 973.21 L 985.07 970.45 L 983.64 967.70 L 982.28 964.93 L 980.98 962.14 L 979.69 959.37 L 978.44 956.58" stroke="rgb(140,255,190)" stroke-opacity="0.726" stroke-width="1.16" />
  <path d="M 1001.31 999.81 L 999.63 997.00 L 997.90 994.24 L 996.19 991.49 L 994.50 988.74 L 992.76 986.03 L 991.00 983.36 L 989.21 980.72 L 987.38 978.13 L 985.50 975.58 L 983.61 973.06 L 981.70 970.57 L 979.79 968.09 L 977.92 965.60 L 976.08 963.11 L 974.27 960.61 L 972.48 958.11 L 970.68 955.63 L 968.91 953.14 L 967.17 950.64 L 965.40 948.19 L 963.68 945.71 L 961.95 943.26 L 960.16 940.86 L 958.39 938.47 L 956.65 936.06 L 954.89 933.68 L 953.09 931.36 L 951.24 929.08 L 949.42 926.80 L 947.60 924.53 L 945.81 922.25 L 944.03 919.98 L 942.25 917.72 L 940.47 915.49 L 938.67 913.27 L 936.85 911.09 L 935.04 908.92 L 933.24 906.75 L 931.46 904.59 L 929.75 902.38 L 928.02 900.19 L 926.33 898.00 L 924.57 895.87 L 922.85 893.73 L 921.14 891.59 L 919.43 889.46 L 917.70 887.37 L 915.99 885.27 L 914.29 883.18 L 912.58 881.11 L 910.87 879.05 L 909.18 876.99 L 907.50 874.94 L 905.83 872.89 L 904.12 870.89 L 902.42 868.90 L 900.76 866.89 L 899.09 864.89 L 897.44 862.89 L 895.78 860.92 L 894.17 858.92" stroke="rgb(140,255,190)" stroke-opacity="0.726" stroke-width="1.16" />
  <path d="M 982.37 970.69 L 979.69 968.95 L 977.07 967.14 L 974.41 965.41 L 971.78 963.66 L 969.20 961.87 L 966.65 960.04 L 964.07 958.29 L 961.47 956.60 L 958.88 954.90 L 956.35 953.13 L 953.82 951.39 L 951.28 949.70 L 948.74 948.01 L 946.22 946.31" stroke="rgb(140,255,190)" stroke-opacity="0.725" stroke-width="1.16" />
  <path d="M 1000.81 999.69 L 998.01 1000.63 L 995.23 1001.60 L 992.45 1002.54 L 989.69 1003.51 L 986.95 1004.50 L 984.23 1005.51 L 981.50 1006.44 L 978.75 1007.28 L 976.00 1008.08 L 973.26 1008.87 L 970.56 1009.77 L 967.87 1010.67" stroke="rgb(205,165,255)" stroke-opacity="0.481" stroke-width="1.15" />
  <path d="M 999.84 999.27 L 998.27 996.43 L 996.66 993.63 L 995.09 990.82 L 993.58 988.00 L 992.11 985.16 L 990.66 982.33 L 989.21 979.52 L 987.82 976.69 L 986.49 973.84 L 985.09 971.04 L 983.63 968.29 L 982.16 965.55 L 980.64 962.87 L 979.10 960.20 L 977.59 957.53 L 976.01 954.92 L 974.41 952.33 L 972.85 949.73 L 971.34 947.12 L 969.81 944.53 L 968.28 941.96 L 966.75 939.40 L 965.21 936.86 L 963.62 934.36 L 962.06 931.87 L 960.45 929.41 L 958.87 926.95 L 957.31 924.50 L 955.81 922.02 L 954.36 919.52 L 952.91 917.03 L 951.45 914.57 L 950.01 912.10 L 948.62 909.63 L 947.19 907.18 L 945.79 904.74 L 944.43 902.28 L 943.03 899.86 L 941.66 897.44 L 940.31 895.01 L 938.97 892.60 L 937.63 890.19 L 936.33 887.78 L 934.99 885.40 L 933.57 883.08 L 932.12 880.80 L 930.62 878.55" stroke="rgb(140,255,190)" stroke-opacity="0.724" stroke-width="1.15" />
  <path d="M 932.03 881.44 L 930.96 878.44 L 929.83 875.48 L 928.81 872.49 L 927.70 869.55 L 926.66 866.59 L 925.69 863.63 L 924.77 860.66 L 923.80 857.72 L 922.82 854.79 L 921.82 851.89 L 920.81 849.00 L 919.75 846.15 L 918.74 843.29 L 917.76 840.43 L 916.71 837.61 L 915.61 834.82 L 914.47 832.06 L 913.40 829.29 L 912.34 826.52 L 911.35 823.74 L 910.46 820.94 L 909.52 818.17 L 908.59 815.41 L 907.64 812.66" stroke="rgb(140,255,190)" stroke-opacity="0.724" stroke-width="1.15" />
  <path d="M 985.24 969.73 L 984.82 966.40 L 984.44 963.09 L 983.97 959.80 L 983.53 956.52 L 983.15 953.24 L 982.75 949.98 L 982.23 946.75 L 981.69 943.54 L 981.18 940.34 L 980.72 937.14 L 980.20 933.96 L 979.73 930.79 L 979.37 927.62 L 979.05 924.46 L 978.79 921.30 L 978.49 918.16 L 978.15 915.04 L 977.79 911.93 L 977.49 908.82 L 977.16 905.74 L 976.93 902.65 L 976.68 899.58 L 976.36 896.53 L 976.15 893.48 L 975.96 890.45 L 975.74 887.43 L 975.56 884.41 L 975.48 881.41 L 975.38 878.41 L 975.27 875.43 L 975.18 872.46 L 975.05 869.51 L 974.97 866.56 L 974.81 863.63 L 974.59 860.72 L 974.29 857.82 L 973.98 854.94 L 973.65 852.07 L 973.36 849.21 L 973.06 846.36" stroke="rgb(140,255,190)" stroke-opacity="0.724" stroke-width="1.15" />
  <path d="M 1000.07 999.97 L 998.64 996.97 L 997.20 994.00 L 995.70 991.06 L 994.20 988.14 L 992.75 985.21 L 991.22 982.33 L 989.74 979.44 L 988.28 976.56 L 986.81 973.70 L 985.34 970.85 L 983.90 968.00 L 982.44 965.17 L 981.03 962.34 L 979.64 959.51 L 978.24 956.69 L 976.92 953.86 L 975.57 951.05 L 974.20 948.26 L 972.81 945.50 L 971.43 942.75 L 970.00 940.04 L 968.68 937.28 L 967.32 934.56 L 965.94 931.86 L 964.63 929.14 L 963.32 926.43 L 961.98 923.76 L 960.60 921.11 L 959.22 918.48 L 957.82 915.87 L 956.40 913.29 L 954.97 910.73 L 953.46 908.23 L 951.88 905.79 L 950.28 903.36 L 948.66 900.97 L 947.05 898.59 L 945.43 896.22 L 943.85 893.85 L 942.31 891.46 L 940.77 889.08 L 939.23 886.72 L 937.71 884.36 L 936.17 882.02 L 934.69 879.67 L 933.21 877.32 L 931.77 874.96 L 930.30 872.63 L 928.86 870.30 L 927.45 867.96 L 925.99 865.67 L 924.46 863.43 L 922.90 861.23" stroke="rgb(140,255,190)" stroke-opacity="0.723" stroke-width="1.15" />
  <path d="M 1002.15 998.58 L 1004.07 1001.16 L 1006.04 1003.69 L 1007.97 1006.22 L 1009.89 1008.76 L 1011.86 1011.23 L 1013.69 1013.80 L 1015.49 1016.37 L 1017.30 1018.92 L 1019.09 1021.46 L 1020.87 1024.00 L 1022.56 1026.58 L 1024.21 1029.18 L 1025.91 1031.73 L 1027.62 1034.25 L 1029.32 1036.78 L 1031.02 1039.28 L 1032.72 1041.77 L 1034.40 1044.26 L 1036.10 1046.72 L 1037.83 1049.14 L 1039.56 1051.55 L 1041.29 1053.95 L 1043.04 1056.32 L 1044.83 1058.64 L 1046.59 1060.97 L 1048.36 1063.28 L 1050.16 1065.54 L 1051.97 1067.79 L 1053.70 1070.08 L 1055.42 1072.37 L 1057.17 1074.62 L 1058.89 1076.88 L 1060.57 1079.16 L 1062.23 1081.43 L 1063.89 1083.69 L 1065.61 1085.89 L 1067.36 1088.05 L 1069.13 1090.18 L 1070.85 1092.35 L 1072.52 1094.53 L 1074.26 1096.65 L 1075.99 1098.75 L 1077.72 1100.85 L 1079.46 1102.92 L 1081.23 1104.95 L 1082.99 1106.97 L 1084.82 1108.93 L 1086.67 1110.84 L 1088.51 1112.75 L 1090.36 1114.63 L 1092.22 1116.50 L 1094.10 1118.32 L 1096.01 1120.10 L 1097.96 1121.81 L 1099.93 1123.49 L 1101.90 1125.16 L 1103.89 1126.79 L 1105.83 1128.45 L 1107.76 1130.12 L 1109.66 1131.80 L 1111.56 1133.47 L 1113.44 1135.14 L 1115.30 1136.81 L 1117.13 1138.51 L 1118.95 1140.21 L 1120.76 1141.91 L 1122.52 1143.63 L 1124.30 1145.33 L 1126.03 1147.05" stroke="rgb(140,255,190)" stroke-opacity="0.722" stroke-width="1.15" />
  <path d="M 1000.90 1003.29 L 999.63 1000.41 L 998.37 997.52 L 997.11 994.66 L 995.89 991.79 L 994.67 988.93 L 993.40 986.11 L 992.04 983.34 L 990.64 980.61 L 989.31 977.86 L 987.93 975.15 L 986.56 972.44 L 985.24 969.73 L 983.99 966.99 L 982.81 964.24 L 981.66 961.48 L 980.50 958.75 L 979.40 956.00 L 978.38 953.23 L 977.39 950.46 L 976.39 947.72 L 975.47 944.95 L 974.44 942.24 L 973.36 939.56 L 972.39 936.85 L 971.34 934.18 L 970.21 931.56 L 969.09 928.95 L 967.93 926.36 L 966.83 923.76 L 965.76 921.17 L 964.68 918.58 L 963.56 916.03 L 962.50 913.46 L 961.53 910.87" stroke="rgb(140,255,190)" stroke-opacity="0.721" stroke-width="1.15" />
  <path d="M 947.59 1000.51 L 944.70 999.17 L 941.80 997.89 L 938.85 996.74 L 935.88 995.70 L 932.91 994.69 L 929.94 993.72 L 926.95 992.87 L 923.98 992.01 L 921.03 991.09 L 918.09 990.21 L 915.16 989.31 L 912.23 988.48 L 909.33 987.60 L 906.42 986.78 L 903.52 985.93 L 900.65 985.08 L 897.80 984.18 L 894.95 983.32 L 892.09 982.56 L 889.25 981.75 L 886.42 980.95 L 883.58 980.23 L 880.75 979.53 L 877.95 978.74 L 875.16 978.01 L 872.39 977.20 L 869.59 976.56 L 866.81 975.87 L 864.05 975.21 L 861.32 974.42 L 858.62 973.60 L 855.94 972.75 L 853.23 972.03 L 850.54 971.28 L 847.85 970.56 L 845.18 969.85 L 842.51 969.15 L 839.86 968.46 L 837.22 967.73 L 834.62 966.90 L 832.04 966.08 L 829.49 965.17 L 826.93 964.33 L 824.38 963.50 L 821.86 962.64 L 819.34 961.76 L 816.83 960.92 L 814.32 960.13 L 811.81 959.33 L 809.31 958.58" stroke="rgb(140,255,190)" stroke-opacity="0.721" stroke-width="1.15" />
  <path d="M 979.14 954.02 L 976.92 951.66 L 974.74 949.29 L 972.54 946.95 L 970.38 944.59 L 968.21 942.26 L 966.05 939.94 L 963.86 937.66 L 961.70 935.37 L 959.63 933.01 L 957.49 930.74 L 955.33 928.50 L 953.19 926.26 L 951.12 923.98 L 949.10 921.66 L 947.10 919.34 L 945.05 917.09 L 943.06 914.80 L 941.04 912.54 L 939.00 910.33 L 936.97 908.12 L 934.91 905.96 L 932.93 903.73 L 930.98 901.50 L 929.07 899.25 L 927.17 897.01 L 925.30 894.76 L 923.46 892.49 L 921.67 890.20 L 919.86 887.94 L 918.03 885.72 L 916.15 883.55 L 914.30 881.37 L 912.51 879.16 L 910.68 876.99 L 908.90 874.80 L 907.02 872.70 L 905.10 870.66 L 903.21 868.61 L 901.35 866.55 L 899.44 864.54 L 897.55 862.53 L 895.70 860.51 L 893.93 858.42 L 892.20 856.31 L 890.47 854.22 L 888.82 852.08 L 887.18 849.94 L 885.60 847.78 L 884.10 845.57 L 882.65 843.34" stroke="rgb(140,255,190)" stroke-opacity="0.720" stroke-width="1.14" />
  <path d="M 1000.44 1002.83 L 998.04 1001.36 L 995.63 999.91 L 993.23 998.49 L 990.80 997.12 L 988.36 995.79 L 985.98 994.39 L 983.61 992.99 L 981.27 991.56 L 978.96 990.10 L 976.70 988.59 L 974.44 987.10 L 972.19 985.60 L 969.91 984.18 L 967.63 982.78 L 965.32 981.45 L 963.07 980.04 L 960.78 978.73 L 958.48 977.44 L 956.20 976.14 L 953.97 974.78 L 951.77 973.39 L 949.52 972.10 L 947.30 970.79 L 945.09 969.47 L 942.86 968.20 L 940.65 966.92 L 938.42 965.71 L 936.19 964.52 L 933.95 963.36 L 931.71 962.23 L 929.52 961.03 L 927.32 959.86 L 925.18 958.60 L 923.06 957.33 L 920.97 956.04 L 918.87 954.76 L 916.78 953.51 L 914.74 952.18" stroke="rgb(205,165,255)" stroke-opacity="0.477" stroke-width="1.14" />
  <path d="M 973.36 939.56 L 972.80 936.43 L 972.22 933.32 L 971.61 930.23 L 971.00 927.15 L 970.47 924.07 L 969.92 921.01 L 969.50 917.93 L 969.17 914.86 L 968.79 911.81 L 968.35 908.78 L 967.87 905.76 L 967.36 902.77 L 966.91 899.77 L 966.50 896.79 L 966.11 893.81 L 965.75 890.84 L 965.37 887.88 L 964.99 884.94" stroke="rgb(140,255,190)" stroke-opacity="0.718" stroke-width="1.14" />
  <path d="M 905.68 929.85 L 903.21 929.63 L 900.75 929.35 L 898.31 929.07 L 895.87 928.82 L 893.45 928.52 L 891.06 928.09 L 888.66 927.72 L 886.29 927.32 L 883.91 926.94 L 881.56 926.52 L 879.21 926.11 L 876.86 925.76 L 874.54 925.35 L 872.20 925.08 L 869.88 924.74 L 867.57 924.40 L 865.26 924.09 L 862.98 923.71 L 860.70 923.33 L 858.44 922.90 L 856.20 922.43 L 853.99 921.88 L 851.82 921.22 L 849.67 920.52 L 847.49 919.94 L 845.30 919.47 L 843.10 919.06 L 840.94 918.52 L 838.81 917.92 L 836.70 917.25 L 834.60 916.63 L 832.48 916.06 L 830.38 915.48 L 828.32 914.78 L 826.24 914.19 L 824.20 913.48 L 822.20 912.71 L 820.23 911.87 L 818.32 910.94 L 816.32 910.21" stroke="rgb(140,255,190)" stroke-opacity="0.537" stroke-width="1.14" />
  <path d="M 1000.61 999.06 L 998.88 996.54 L 997.13 994.05 L 995.40 991.57 L 993.74 989.05 L 992.13 986.51 L 990.40 984.07 L 988.66 981.65 L 986.97 979.21 L 985.27 976.78 L 983.57 974.38 L 981.84 972.01 L 980.17 969.61 L 978.52 967.22 L 976.85 964.85 L 975.26 962.44 L 973.65 960.06 L 972.06 957.67 L 970.51 955.28 L 968.96 952.90 L 967.46 950.50 L 965.93 948.13 L 964.34 945.82 L 962.70 943.56 L 961.06 941.31 L 959.36 939.11 L 957.71 936.90 L 956.15 934.63 L 954.61 932.37 L 953.14 930.07 L 951.71 927.75 L 950.23 925.48 L 948.75 923.23 L 947.27 920.99 L 945.74 918.80 L 944.23 916.60 L 942.77 914.38 L 941.28 912.20 L 939.82 910.01 L 938.41 907.80 L 936.93 905.65 L 935.49 903.48 L 934.12 901.28 L 932.71 899.12 L 931.29 896.98 L 929.88 894.84 L 928.48 892.71 L 927.06 890.61 L 925.59 888.54 L 924.14 886.49 L 922.64 884.48 L 921.18 882.45 L 919.77 880.40 L 918.46 878.29 L 917.16 876.19 L 915.87 874.10 L 914.57 872.02 L 913.30 869.94 L 912.04 867.86 L 910.84 865.76 L 909.62 863.68 L 908.42 861.60 L 907.16 859.57 L 905.81 857.60 L 904.50 855.63 L 903.19 853.66 L 901.90 851.69 L 900.65 849.71 L 899.45 847.71 L 898.30 845.69 L 897.13 843.69 L 895.99 841.68 L 894.83 839.70 L 893.64 837.75 L 892.44 835.81 L 891.28 833.86 L 890.16 831.90 L 889.07 829.93 L 887.91 828.01 L 886.77 826.09 L 885.66 824.16 L 884.59 822.22 L 883.49 820.30 L 882.41 818.39 L 881.39 816.45 L 880.30 814.56" stroke="rgb(140,255,190)" stroke-opacity="0.537" stroke-width="1.13" />
  <path d="M 924.14 886.49 L 921.43 885.09 L 918.73 883.70 L 916.08 882.25 L 913.40 880.88 L 910.76 879.45 L 908.09 878.13 L 905.40 876.86 L 902.69 875.67 L 899.95 874.56 L 897.25 873.39 L 894.56 872.26 L 891.84 871.21 L 889.12 870.18 L 886.38 869.26 L 883.65 868.33 L 880.96 867.35 L 878.29 866.34 L 875.62 865.34 L 872.97 864.33 L 870.30 863.42 L 867.63 862.54 L 864.98 861.64 L 862.32 860.80 L 859.65 860.03 L 856.96 859.37 L 854.28 858.72 L 851.61 858.11 L 848.98 857.35 L 846.39 856.50 L 843.81 855.66 L 841.25 854.81 L 838.73 853.86 L 836.26 852.82 L 833.81 851.77 L 831.41 850.63" stroke="rgb(140,255,190)" stroke-opacity="0.536" stroke-width="1.13" />
  <path d="M 894.13 846.12 L 892.83 843.20 L 891.59 840.26 L 890.53 837.27 L 889.46 834.29 L 888.41 831.33 L 887.32 828.39 L 886.19 825.48 L 885.05 822.58 L 883.91 819.70 L 882.87 816.79 L 881.83 813.90 L 880.80 811.02 L 879.80 808.14" stroke="rgb(140,255,190)" stroke-opacity="0.714" stroke-width="1.13" />
  <path d="M 998.23 1004.88 L 997.49 1002.19 L 996.74 999.52 L 996.09 996.84 L 995.48 994.16 L 994.88 991.49 L 994.23 988.84 L 993.50 986.22 L 992.79 983.61 L 992.06 981.02 L 991.32 978.44 L 990.64 975.85 L 989.91 973.29 L 989.19 970.74 L 988.52 968.18 L 987.82 965.65 L 987.05 963.14 L 986.19 960.68 L 985.45 958.19 L 984.70 955.71 L 983.98 953.23 L 983.22 950.78 L 982.31 948.39 L 981.39 946.01 L 980.47 943.65 L 979.69 941.24 L 979.02 938.82 L 978.35 936.40 L 977.66 934.00" stroke="rgb(205,165,255)" stroke-opacity="0.473" stroke-width="1.12" />
  <path d="M 969.16 958.24 L 966.76 956.51 L 964.38 954.75 L 962.00 953.02 L 959.64 951.28 L 957.28 949.55 L 954.99 947.76 L 952.69 946.00 L 950.43 944.20 L 948.21 942.38 L 945.86 940.74 L 943.55 939.07 L 941.27 937.39 L 938.92 935.80 L 936.56 934.27 L 934.23 932.70 L 931.99 931.03 L 929.76 929.37 L 927.54 927.70 L 925.27 926.13 L 922.99 924.60 L 920.74 923.03 L 918.44 921.57 L 916.22 920.00 L 913.97 918.49 L 911.68 917.07 L 909.37 915.71 L 907.01 914.45 L 904.69 913.15 L 902.36 911.87 L 900.06 910.56 L 897.73 909.34 L 895.37 908.20 L 893.01 907.08 L 890.65 906.01 L 888.24 905.04 L 885.84 904.10 L 883.48 903.08 L 881.09 902.16 L 878.70 901.28 L 876.34 900.35 L 874.04 899.30 L 871.74 898.27 L 869.49 897.18 L 867.22 896.12 L 865.02 894.96 L 862.79 893.88 L 860.59 892.77 L 858.40 891.65" stroke="rgb(140,255,190)" stroke-opacity="0.533" stroke-width="1.12" />
  <path d="M 999.14 1001.97 L 998.82 999.34 L 998.52 996.71 L 998.21 994.10 L 997.94 991.50 L 997.67 988.90 L 997.32 986.32 L 996.98 983.76 L 996.67 981.20 L 996.31 978.65 L 995.97 976.12 L 995.56 973.60 L 995.27 971.08 L 994.89 968.58 L 994.49 966.10 L 994.10 963.62 L 993.76 961.15 L 993.48 958.67 L 993.17 956.22 L 992.91 953.76 L 992.62 951.32 L 992.36 948.89 L 992.05 946.47 L 991.80 944.05 L 991.62 941.64 L 991.39 939.24" stroke="rgb(205,165,255)" stroke-opacity="0.471" stroke-width="1.12" />
  <path d="M 1001.58 1001.44 L 999.75 999.00 L 997.92 996.57 L 996.15 994.11 L 994.40 991.66 L 992.71 989.18 L 991.05 986.69 L 989.38 984.23 L 987.77 981.74 L 986.12 979.28 L 984.40 976.89 L 982.61 974.58 L 980.84 972.25 L 979.06 969.95 L 977.27 967.68 L 975.47 965.42 L 973.67 963.18 L 971.81 961.01 L 969.91 958.88 L 968.05 956.73 L 966.22 954.58 L 964.38 952.45 L 962.52 950.35 L 960.78 948.16 L 958.98 946.04 L 957.16 943.95 L 955.30 941.92 L 953.43 939.90 L 951.63 937.83 L 949.85 935.77 L 948.01 933.77 L 946.19 931.77 L 944.34 929.81 L 942.47 927.88 L 940.58 926.00 L 938.60 924.22 L 936.58 922.50 L 934.63 920.71 L 932.68 918.95 L 930.72 917.21 L 928.78 915.47 L 926.86 913.72 L 924.91 912.02 L 922.96 910.33 L 921.06 908.60 L 919.18 906.86 L 917.32 905.12 L 915.55 903.30 L 913.73 901.56 L 911.92 899.81 L 910.10 898.08 L 908.33 896.32 L 906.56 894.57 L 904.81 892.81 L 903.05 891.09 L 901.31 889.35 L 899.56 887.65 L 897.80 885.96 L 895.98 884.35 L 894.14 882.78 L 892.26 881.27 L 890.41 879.74 L 888.62 878.16 L 886.85 876.57 L 885.08 875.00 L 883.33 873.41 L 881.65 871.77 L 879.94 870.16 L 878.22 868.59 L 876.45 867.09 L 874.70 865.57 L 872.92 864.11 L 871.11 862.70 L 869.29 861.31 L 867.46 859.96 L 865.65 858.59 L 863.85 857.22 L 862.12 855.79 L 860.36 854.40 L 858.63 852.99 L 856.87 851.63 L 855.11 850.29 L 853.35 848.96 L 851.61 847.62 L 849.87 846.29 L 848.19 844.91 L 846.55 843.48 L 844.92 842.07 L 843.38 840.57 L 841.91 839.01" stroke="rgb(140,255,190)" stroke-opacity="0.531" stroke-width="1.11" />
  <path d="M 949.85 935.77 L 947.61 934.32 L 945.38 932.89 L 943.20 931.40 L 941.05 929.88 L 938.90 928.38 L 936.77 926.87 L 934.62 925.41 L 932.48 923.95 L 930.34 922.51 L 928.23 921.04 L 926.05 919.71 L 923.98 918.22 L 921.96 916.67 L 919.99 915.10 L 918.06 913.47 L 916.17 911.82 L 914.31 910.16 L 912.38 908.58 L 910.42 907.06 L 908.44 905.59 L 906.48 904.11 L 904.58 902.56 L 902.69 901.02 L 900.79 899.50 L 898.97 897.92 L 897.20 896.28 L 895.52 894.57 L 893.88 892.83 L 892.18 891.16 L 890.43 889.55 L 888.67 887.98 L 886.97 886.35 L 885.36 884.65 L 883.81 882.91 L 882.27 881.17 L 880.73 879.44 L 879.21 877.70 L 877.72 875.95 L 876.27 874.19 L 874.77 872.47 L 873.37 870.69 L 871.95 868.93 L 870.46 867.24 L 868.95 865.59 L 867.44 863.94 L 865.95 862.28 L 864.55 860.57 L 863.14 858.87 L 861.75 857.17 L 860.35 855.49 L 858.91 853.85 L 857.57 852.14 L 856.17 850.49" stroke="rgb(140,255,190)" stroke-opacity="0.531" stroke-width="1.11" />
  <path d="M 974.85 957.29 L 972.43 955.51 L 970.03 953.73 L 967.66 951.94 L 965.27 950.18 L 962.94 948.37 L 960.64 946.53 L 958.31 944.76 L 956.07 942.89 L 953.85 941.01 L 951.55 939.26 L 949.25 937.52 L 946.94 935.82 L 944.63 934.13 L 942.32 932.47 L 940.03 930.79 L 937.70 929.20 L 935.38 927.61 L 933.02 926.09 L 930.75 924.47 L 928.41 922.97 L 926.05 921.52 L 923.61 920.24 L 921.11 919.09 L 918.67 917.86 L 916.21 916.68 L 913.78 915.47 L 911.36 914.27 L 908.90 913.16 L 906.48 912.00 L 904.08 910.84 L 901.69 909.67 L 899.31 908.51" stroke="rgb(140,255,190)" stroke-opacity="0.531" stroke-width="1.11" />
  <path d="M 968.36 946.26 L 967.35 943.36 L 966.26 940.51 L 965.23 937.64 L 964.22 934.79 L 963.29 931.91 L 962.31 929.07 L 961.36 926.23 L 960.39 923.41 L 959.45 920.59 L 958.54 917.77 L 957.64 914.97 L 956.67 912.19 L 955.75 909.42 L 954.70 906.70 L 953.62 904.01 L 952.49 901.35 L 951.32 898.72 L 950.22 896.08 L 949.12 893.44 L 947.99 890.84 L 946.80 888.27 L 945.61 885.71 L 944.40 883.17 L 943.17 880.66 L 942.06 878.11 L 940.96 875.56 L 939.88 873.01 L 938.76 870.50" stroke="rgb(140,255,190)" stroke-opacity="0.530" stroke-width="1.11" />
  <path d="M 914.47 832.06 L 912.99 829.44 L 911.55 826.82 L 910.11 824.21 L 908.72 821.59 L 907.19 819.06 L 905.77 816.48 L 904.36 813.91 L 902.98 811.33 L 901.53 808.81 L 900.12 806.28 L 898.70 803.77 L 897.27 801.28 L 895.94 798.74 L 894.51 796.27 L 893.07 793.82 L 891.72 791.34 L 890.33 788.89 L 889.06 786.39 L 887.77 783.90 L 886.41 781.48 L 885.09 779.04 L 883.90 776.55 L 882.71 774.06 L 881.53 771.59 L 880.31 769.15 L 879.05 766.75 L 877.84 764.33 L 876.71 761.88 L 875.65 759.41 L 874.72 756.90 L 873.69 754.45 L 872.75 751.96 L 871.85 749.48 L 871.10 746.96 L 870.32 744.46 L 869.63 741.94 L 868.82 739.46 L 868.03 737.00" stroke="rgb(140,255,190)" stroke-opacity="0.530" stroke-width="1.11" />
  <path d="M 999.51 999.25 L 997.69 997.20 L 995.86 995.17 L 994.05 993.13 L 992.33 991.03 L 990.60 988.96 L 988.91 986.87 L 987.20 984.80 L 985.44 982.80 L 983.69 980.80 L 981.89 978.86 L 980.06 976.96 L 978.21 975.10 L 976.39 973.22 L 974.63 971.30 L 972.92 969.35 L 971.24 967.38 L 969.57 965.42 L 967.92 963.46 L 966.27 961.51 L 964.64 959.56 L 963.07 957.57 L 961.58 955.54 L 960.05 953.54 L 958.48 951.59 L 956.99 949.59 L 955.58 947.55 L 954.10 945.57 L 952.59 943.62 L 951.08 941.68 L 949.59 939.75 L 948.04 937.88 L 946.47 936.03 L 944.88 934.21 L 943.25 932.44" stroke="rgb(140,255,190)" stroke-opacity="0.528" stroke-width="1.10" />
  <path d="M 984.77 967.05 L 984.22 964.44 L 983.70 961.84 L 983.07 959.27 L 982.52 956.69 L 981.92 954.13 L 981.45 951.56 L 980.88 949.02 L 980.35 946.48 L 979.83 943.95 L 979.38 941.42 L 978.89 938.90 L 978.50 936.38 L 978.10 933.87 L 977.71 931.37 L 977.30 928.88 L 977.02 926.38 L 976.66 923.91 L 976.32 921.44 L 975.92 918.99 L 975.57 916.54 L 975.28 914.10 L 975.04 911.66 L 974.82 909.22 L 974.45 906.82 L 974.06 904.43 L 973.59 902.06" stroke="rgb(140,255,190)" stroke-opacity="0.527" stroke-width="1.10" />
  <path d="M 997.83 997.42 L 995.09 997.54 L 992.36 997.70 L 989.64 997.81 L 986.93 997.97 L 984.23 998.14 L 981.54 998.30 L 978.87 998.55 L 976.21 998.83 L 973.57 999.13 L 970.92 999.30 L 968.29 999.51 L 965.67 999.70 L 963.06 999.94 L 960.46 1000.08 L 957.87 1000.18 L 955.28 1000.23 L 952.71 1000.37 L 950.14 1000.48 L 947.59 1000.51 L 945.04 1000.59 L 942.51 1000.68 L 939.98 1000.77 L 937.47 1000.89 L 934.97 1000.99 L 932.48 1001.13 L 930.00 1001.25 L 927.52 1001.30 L 925.06 1001.29 L 922.60 1001.20 L 920.16 1001.07" stroke="rgb(140,255,190)" stroke-opacity="0.527" stroke-width="1.10" />
  <path d="M 996.20 1002.64 L 994.17 1000.71 L 992.22 998.73 L 990.20 996.83 L 988.05 995.08 L 985.92 993.34 L 983.77 991.63 L 981.63 989.94 L 979.46 988.30 L 977.33 986.63 L 975.18 984.99 L 973.10 983.29 L 971.09 981.52 L 969.08 979.77 L 967.14 977.96 L 965.20 976.15 L 963.30 974.34 L 961.44 972.49 L 959.64 970.59 L 957.91 968.65 L 956.19 966.71" stroke="rgb(140,255,190)" stroke-opacity="0.527" stroke-width="1.10" />
  <path d="M 999.70 998.94 L 998.58 996.48 L 997.40 994.07 L 996.17 991.69 L 994.93 989.33 L 993.73 986.96 L 992.53 984.60 L 991.34 982.24 L 990.14 979.91 L 988.89 977.61 L 987.60 975.35 L 986.35 973.08 L 985.07 970.84 L 983.68 968.67 L 982.17 966.60 L 980.67 964.53 L 979.16 962.49 L 977.52 960.56 L 975.91 958.62 L 974.41 956.61 L 972.91 954.60 L 971.41 952.61 L 969.86 950.68 L 968.31 948.75 L 966.74 946.86 L 965.10 945.03 L 963.52 943.17 L 961.93 941.33 L 960.37 939.48 L 958.86 937.60 L 957.30 935.77 L 955.73 933.96 L 954.20 932.13 L 952.80 930.22 L 951.35 928.34 L 949.91 926.48 L 948.50 924.61 L 947.03 922.79 L 945.60 920.95" stroke="rgb(140,255,190)" stroke-opacity="0.526" stroke-width="1.10" />
  <path d="M 951.08 941.68 L 949.77 939.07 L 948.49 936.44 L 947.09 933.90 L 945.65 931.39 L 944.14 928.94 L 942.50 926.59 L 940.83 924.26 L 939.07 922.02 L 937.34 919.78 L 935.53 917.62 L 933.84 915.36" stroke="rgb(140,255,190)" stroke-opacity="0.525" stroke-width="1.10" />
  <path d="M 950.14 1000.48 L 947.63 999.89 L 945.13 999.26 L 942.67 998.53 L 940.29 997.62 L 937.92 996.70 L 935.62 995.65 L 933.31 994.62 L 930.99 993.66 L 928.70 992.64 L 926.45 991.57 L 924.15 990.65 L 921.87 989.69 L 919.63 988.66 L 917.41 987.61 L 915.26 986.47 L 913.11 985.32 L 910.97 984.18 L 908.79 983.14 L 906.66 982.04 L 904.52 980.96 L 902.37 979.93 L 900.24 978.88 L 898.10 977.87 L 896.01 976.78 L 893.98 975.59 L 891.93 974.47 L 889.89 973.37 L 887.84 972.27 L 885.80 971.20 L 883.77 970.10 L 881.76 969.01 L 879.77 967.89 L 877.73 966.89 L 875.66 965.96 L 873.67 964.92 L 871.66 963.91 L 869.64 962.95 L 867.57 962.11 L 865.54 961.22 L 863.48 960.42 L 861.46 959.54 L 859.47 958.64 L 857.51 957.67 L 855.53 956.78 L 853.57 955.85 L 851.61 954.95 L 849.62 954.13 L 847.69 953.21 L 845.80 952.23 L 843.84 951.41 L 841.91 950.54 L 839.95 949.77 L 837.98 949.05 L 836.04 948.28 L 834.14 947.42 L 832.28 946.50" stroke="rgb(140,255,190)" stroke-opacity="0.525" stroke-width="1.09" />
  <path d="M 999.17 999.91 L 997.69 997.64 L 996.24 995.36 L 994.93 993.01 L 993.57 990.70 L 992.15 988.44 L 990.79 986.15 L 989.40 983.90 L 988.11 981.60 L 986.79 979.32 L 985.42 977.09 L 984.13 974.83 L 982.83 972.58 L 981.62 970.29 L 980.47 967.99 L 979.30 965.70 L 978.13 963.44 L 976.94 961.19 L 975.77 958.94 L 974.58 956.71 L 973.45 954.46 L 972.30 952.24 L 971.16 950.02 L 970.05 947.79 L 969.00 945.56 L 967.93 943.34 L 966.85 941.13 L 965.72 938.96 L 964.63 936.78 L 963.50 934.64 L 962.39 932.49 L 961.16 930.43 L 959.86 928.41 L 958.57 926.40 L 957.30 924.39 L 956.02 922.40 L 954.66 920.48 L 953.29 918.57 L 951.91 916.68 L 950.55 914.79 L 949.15 912.93 L 947.82 911.05 L 946.53 909.13 L 945.28 907.22 L 944.13 905.24 L 943.03 903.25 L 941.95 901.26 L 940.87 899.28 L 939.85 897.27 L 938.82 895.29 L 937.80 893.30 L 936.83 891.31 L 935.88 889.31 L 934.92 887.33 L 933.96 885.35 L 932.98 883.40 L 932.03 881.44 L 931.10 879.48 L 930.16 877.54 L 929.10 875.66 L 928.04 873.80 L 927.00 871.94" stroke="rgb(140,255,190)" stroke-opacity="0.525" stroke-width="1.09" />
  <path d="M 1001.26 1000.22 L 999.58 997.88 L 997.89 995.56 L 996.20 993.25 L 994.54 990.93 L 992.83 988.67 L 991.13 986.41 L 989.43 984.16 L 987.70 981.96 L 986.02 979.73 L 984.40 977.47 L 982.78 975.22 L 981.09 973.04 L 979.44 970.84 L 977.74 968.70 L 975.99 966.61 L 974.28 964.50 L 972.56 962.41 L 970.89 960.30 L 969.16 958.24 L 967.47 956.18 L 965.84 954.07 L 964.28 951.93 L 962.78 949.76 L 961.28 947.60 L 959.81 945.43 L 958.32 943.29 L 956.90 941.11 L 955.51 938.93 L 954.15 936.74 L 952.75 934.59" stroke="rgb(140,255,190)" stroke-opacity="0.524" stroke-width="1.09" />
  <path d="M 999.27 1000.64 L 998.19 998.33 L 997.07 996.05 L 995.94 993.79 L 994.77 991.56 L 993.59 989.35 L 992.38 987.17 L 991.17 984.99 L 990.03 982.80 L 988.94 980.58 L 987.88 978.37 L 986.83 976.15 L 985.80 973.95 L 984.74 971.76 L 983.63 969.61 L 982.53 967.47 L 981.47 965.32 L 980.35 963.21 L 979.20 961.13 L 978.01 959.08 L 976.83 957.03 L 975.69 954.98 L 974.55 952.93 L 973.53 950.83 L 972.51 948.75 L 971.49 946.67 L 970.47 944.60 L 969.51 942.52 L 968.54 940.45 L 967.59 938.38 L 966.54 936.37 L 965.37 934.44 L 964.18 932.53 L 963.01 930.62 L 961.69 928.82 L 960.31 927.07 L 958.92 925.36" stroke="rgb(205,165,255)" stroke-opacity="0.463" stroke-width="1.09" />
  <path d="M 1001.51 1003.19 L 998.83 1004.21 L 996.16 1005.23 L 993.49 1006.22 L 990.85 1007.26 L 988.18 1008.17 L 985.52 1009.10 L 982.83 1009.89 L 980.16 1010.70 L 977.49 1011.47 L 974.82 1012.23 L 972.18 1013.01 L 969.53 1013.75 L 966.91 1014.52 L 964.26 1015.16 L 961.61 1015.75 L 958.94 1016.19 L 956.26 1016.48 L 953.60 1016.82 L 950.95 1017.16 L 948.32 1017.50 L 945.68 1017.77 L 943.06 1018.08 L 940.44 1018.32 L 937.83 1018.49 L 935.22 1018.63 L 932.64 1018.86 L 930.06 1019.10 L 927.50 1019.34 L 924.94 1019.55 L 922.39 1019.75 L 919.86 1019.97 L 917.33 1020.15" stroke="rgb(140,255,190)" stroke-opacity="0.523" stroke-width="1.09" />
  <path d="M 1001.28 1002.87 L 999.83 1000.54 L 998.39 998.23 L 996.95 995.92 L 995.46 993.67 L 993.97 991.43 L 992.63 989.10 L 991.27 986.80 L 989.93 984.51 L 988.62 982.20 L 987.32 979.90 L 986.05 977.60 L 984.84 975.28 L 983.62 972.97 L 982.37 970.69 L 981.17 968.40 L 979.89 966.17 L 978.62 963.93 L 977.35 961.72 L 976.08 959.51 L 974.85 957.29 L 973.60 955.10 L 972.27 952.96 L 970.92 950.85" stroke="rgb(140,255,190)" stroke-opacity="0.523" stroke-width="1.09" />
  <path d="M 1001.04 1001.81 L 1003.20 1001.06 L 1005.31 1000.22 L 1007.40 999.32 L 1009.48 998.46 L 1011.52 997.52 L 1013.54 996.55 L 1015.60 995.70 L 1017.71 995.02 L 1019.83 994.36 L 1021.93 993.71 L 1024.01 993.01 L 1026.08 992.32 L 1028.17 991.71 L 1030.23 991.04 L 1032.28 990.35 L 1034.29 989.59 L 1036.33 988.93 L 1038.36 988.25 L 1040.40 987.68 L 1042.46 987.17 L 1044.46 986.53 L 1046.48 985.93 L 1048.48 985.34 L 1050.48 984.76 L 1052.45 984.12 L 1054.42 983.49 L 1056.42 983.00 L 1058.42 982.54 L 1060.42 982.15 L 1062.39 981.65 L 1064.36 981.16 L 1066.31 980.66 L 1068.25 980.12 L 1070.20 979.67 L 1072.14 979.23 L 1074.08 978.81 L 1076.01 978.37 L 1077.94 978.00 L 1079.86 977.59 L 1081.74 977.05 L 1083.64 976.63 L 1085.55 976.29 L 1087.44 975.92 L 1089.30 975.43 L 1091.17 975.03 L 1093.05 974.66 L 1094.90 974.25 L 1096.75 973.86 L 1098.60 973.52 L 1100.45 973.21 L 1102.29 972.84 L 1104.10 972.44 L 1105.90 971.97 L 1107.70 971.56 L 1109.50 971.18 L 1111.29 970.81 L 1113.08 970.43 L 1114.84 969.99 L 1116.61 969.58" stroke="rgb(205,165,255)" stroke-opacity="0.455" stroke-width="1.06" />
  <path d="M 1111.29 970.81 L 1112.81 969.05 L 1114.38 967.35 L 1115.88 965.60 L 1117.37 963.86 L 1118.86 962.12 L 1120.49 960.53 L 1122.15 958.99 L 1123.83 957.49 L 1125.48 955.95 L 1127.22 954.54 L 1129.00 953.19 L 1130.80 951.89 L 1132.72 950.80 L 1134.58 949.60 L 1136.45 948.46 L 1138.24 947.21 L 1139.97 945.88 L 1141.66 944.52 L 1143.30 943.12 L 1144.90 941.67 L 1146.52 940.27 L 1148.03 938.75 L 1149.56 937.28 L 1151.10 935.83 L 1152.63 934.38 L 1154.15 932.92 L 1155.61 931.42 L 1157.17 930.04 L 1158.79 928.74 L 1160.24 927.26 L 1161.70 925.81 L 1163.17 924.38 L 1164.64 922.96 L 1166.15 921.60 L 1167.66 920.25 L 1169.23 918.98 L 1170.78 917.70 L 1172.34 916.44 L 1173.95 915.27 L 1175.61 914.17 L 1177.15 912.93 L 1178.64 911.64 L 1180.20 910.45 L 1181.71 909.21 L 1183.20 907.96 L 1184.80 906.86 L 1186.42 905.81 L 1187.92 904.60 L 1189.33 903.31 L 1190.74 902.02" stroke="rgb(205,165,255)" stroke-opacity="0.451" stroke-width="1.04" />
  <path d="M 1000.06 995.15 L 999.15 996.35 L 998.20 997.51 L 997.22 998.62 L 996.20 999.70 L 995.29 1000.86 L 994.38 1002.02 L 993.41 1003.11 L 992.30 1004.05 L 991.32 1005.13 L 990.39 1006.23 L 989.30 1007.18 L 988.19 1008.08 L 986.86 1008.61" stroke="rgb(230,230,230)" stroke-opacity="0.388" stroke-width="0.72" />
  <path d="M 1003.11 998.59 L 1004.37 999.40 L 1005.64 1000.18 L 1006.86 1001.04 L 1008.11 1001.84 L 1009.32 1002.69 L 1010.47 1003.60 L 1011.59 1004.54 L 1012.62 1005.58 L 1013.68 1006.57 L 1014.65 1007.64 L 1015.46 1008.84 L 1016.16 1010.09" stroke="rgb(230,230,230)" stroke-opacity="0.382" stroke-width="0.70" />
  <path d="M 1002.12 1004.57 L 1001.53 1005.95 L 1001.01 1007.35 L 1000.50 1008.75 L 1000.20 1010.20 L 1000.06 1011.67 L 1000.00 1013.14 L 999.84 1014.60 L 999.73 1016.05 L 999.71 1017.50 L 999.76 1018.95 L 999.93 1020.38 L 1000.22 1021.78 L 1000.35 1023.21 L 1000.55 1024.62" stroke="rgb(230,230,230)" stroke-opacity="0.377" stroke-width="0.69" />
  <path d="M 1000.28 1006.07 L 1001.65 1005.47 L 1003.01 1004.85 L 1004.39 1004.30 L 1005.80 1003.83 L 1007.22 1003.42 L 1008.60 1002.93 L 1009.90 1002.24 L 1010.94 1001.22 L 1011.81 1000.06" stroke="rgb(230,230,230)" stroke-opacity="0.370" stroke-width="0.67" />
  <path d="M 992.45 996.04 L 992.87 994.60 L 993.27 993.16 L 993.73 991.75 L 994.18 990.33 L 994.76 988.98 L 995.39 987.65 L 996.22 986.44" stroke="rgb(230,230,230)" stroke-opacity="0.366" stroke-width="0.65" />
  <path d="M 998.27 1000.71 L 996.77 1000.69 L 995.27 1000.67 L 993.80 1000.48 L 992.34 1000.19" stroke="rgb(230,230,230)" stroke-opacity="0.365" stroke-width="0.65" />
  <path d="M 996.71 998.83 L 996.85 997.34 L 997.09 995.86 L 997.37 994.40 L 997.76 992.97 L 998.19 991.56 L 998.63 990.16 L 999.18 988.80" stroke="rgb(230,230,230)" stroke-opacity="0.363" stroke-width="0.65" />
  <path d="M 999.92 997.34 L 998.76 996.39 L 997.65 995.39 L 996.46 994.51 L 995.28 993.61 L 994.16 992.64 L 993.10 991.63 L 992.02 990.64 L 990.81 989.83 L 989.58 989.05" stroke="rgb(230,230,230)" stroke-opacity="0.361" stroke-width="0.64" />
  <path d="M 998.98 1001.61 L 997.58 1002.16 L 996.20 1002.72 L 994.83 1003.31 L 993.43 1003.78 L 992.00 1004.17 L 990.58 1004.53 L 989.14 1004.83" stroke="rgb(230,230,230)" stroke-opacity="0.361" stroke-width="0.64" />
  <path d="M 1001.58 995.97 L 1000.69 994.76 L 999.96 993.45" stroke="rgb(230,230,230)" stroke-opacity="0.359" stroke-width="0.64" />
  <path d="M 1003.35 1001.93 L 1004.51 1000.98 L 1005.62 999.98 L 1006.72 998.97 L 1007.70 997.87 L 1008.51 996.63 L 1009.50 995.55" stroke="rgb(230,230,230)" stroke-opacity="0.357" stroke-width="0.63" />
  <path d="M 995.83 998.44 L 997.32 998.25 L 998.80 998.13 L 1000.28 997.98 L 1001.66 997.44 L 1002.95 996.71 L 1004.29 996.12" stroke="rgb(230,230,230)" stroke-opacity="0.356" stroke-width="0.63" />
  <path d="M 995.05 1001.33 L 993.64 1001.86 L 992.26 1002.43 L 990.90 1003.02 L 989.53 1003.59 L 988.22 1004.27 L 986.88 1004.87 L 985.55 1005.48 L 984.18 1005.98 L 982.86 1006.59 L 981.56 1007.23" stroke="rgb(230,230,230)" stroke-opacity="0.355" stroke-width="0.63" />
  <path d="M 1001.97 1005.79 L 1001.92 1004.29 L 1002.11 1002.81 L 1002.34 1001.34 L 1002.68 999.90 L 1003.00 998.46 L 1003.33 997.03" stroke="rgb(230,230,230)" stroke-opacity="0.354" stroke-width="0.62" />
  <path d="M 992.63 1001.53 L 993.06 1002.97 L 993.45 1004.41 L 993.82 1005.85 L 994.25 1007.27 L 994.68 1008.68 L 995.18 1010.07 L 995.68 1011.44 L 996.23 1012.79 L 996.79 1014.13 L 997.41 1015.44 L 998.11 1016.70 L 998.85 1017.93 L 999.48 1019.21" stroke="rgb(230,230,230)" stroke-opacity="0.352" stroke-width="0.62" />
  <path d="M 1001.70 1003.59 L 1001.77 1002.09 L 1001.84 1000.60 L 1002.01 999.12 L 1002.17 997.64 L 1002.34 996.18 L 1002.38 994.71 L 1002.44 993.25 L 1002.62 991.80 L 1002.76 990.35 L 1003.14 988.96 L 1003.60 987.59" stroke="rgb(230,230,230)" stroke-opacity="0.351" stroke-width="0.61" />
  <path d="M 997.01 1003.96 L 998.51 1004.05 L 999.95 1004.45 L 1001.33 1005.02 L 1002.68 1005.62 L 1004.11 1005.98 L 1005.50 1006.46 L 1006.95 1006.70 L 1008.40 1006.53 L 1009.82 1006.27 L 1011.24 1005.97 L 1012.68 1005.89" stroke="rgb(230,230,230)" stroke-opacity="0.351" stroke-width="0.61" />
  <path d="M 1001.05 997.69 L 1000.41 996.33 L 999.62 995.06 L 998.89 993.76 L 998.14 992.49 L 997.39 991.21 L 996.70 989.91 L 996.25 988.52 L 995.95 987.09 L 995.45 985.73 L 995.20 984.31" stroke="rgb(230,230,230)" stroke-opacity="0.349" stroke-width="0.61" />
</g>
</svg>
