{
  "asset": {
    "version": "2.0",
    "generator": "TES-23 Cosmic Ray Renderer"
  },
  "extensionsUsed": [
    "KHR_materials_unlit"
  ],
  "extensionsRequired": [
    "KHR_materials_unlit"
  ],
  "scene": 0,
  "scenes": [
    {
      "nodes": [
        0
      ]
    }
  ],
  "nodes": [
    {
      "name": "CosmicRayEvent",
      "mesh": 0
    }
  ],
  "meshes": [
    {
      "name": "CosmicRayEvent",
      "primitives": [
        {
          "attributes": {
            "POSITION": 0
          },
          "material": 0,
          "mode": 1
        },
        {
          "attributes": {
            "POSITION": 1
          },
          "material": 1,
          "mode": 1
        },
        {
          "attributes": {
            "POSITION": 2
          },
          "material": 2,
          "mode": 1
        },
        {
          "attributes": {
            "POSITION": 3
          },
          "material": 3,
          "mode": 1
        },
        {
          "attributes": {
            "POSITION": 4
          },
          "material": 4,
          "mode": 1
        }
      ]
    }
  ],
  "materials": [
    {
      "name": "primary",
      "extensions": {
        "KHR_materials_unlit": {}
      },
      "pbrMetallicRoughness": {
        "baseColorFactor": [
          0.961,
          0.961,
          0.961,
          1
        ],
        "metallicFactor": 0,
        "roughnessFactor": 1
      }
    },
    {
      "name": "vertex",
      "extensions": {
        "KHR_materials_unlit": {}
      },
      "pbrMetallicRoughness": {
        "baseColorFactor": [
          0.902,
          0.902,
          0.902,
          0.9
        ],
        "metallicFactor": 0,
        "roughnessFactor": 1
      }
    },
    {
      "name": "em",
      "extensions": {
        "KHR_materials_unlit": {}
      },
      "pbrMetallicRoughness": {
        "baseColorFactor": [
          0.471,
          0.824,
          1,
          1
        ],
        "metallicFactor": 0,
        "roughnessFactor": 1
      }
    },
    {
      "name": "hadron",
      "extensions": {
        "KHR_materials_unlit": {}
      },
      "pbrMetallicRoughness": {
        "baseColorFactor": [
          0.549,
          1,
          0.745,
          1
        ],
        "metallicFactor": 0,
        "roughnessFactor": 1
      }
    },
    {
      "name": "delta",
      "extensions": {
        "KHR_materials_unlit": {}
      },
      "pbrMetallicRoughness": {
        "baseColorFactor": [
          0.804,
          0.647,
          1,
          1
        ],
        "metallicFactor": 0,
        "roughnessFactor": 1
      }
    }
  ],
  "accessors": [
    {
      "bufferView": 0,
      "byteOffset": 0,
      "componentType": 5126,
      "count": 1362,
      "type": "VEC3",
      "min": [
        -1.000009536743164,
        -0.12885473668575287,
        0
      ],
      "max": [
        1.0222349166870117,
        0.14080491662025452,
        0
      ]
    },
    {
      "bufferView": 1,
      "byteOffset": 0,
      "componentType": 5126,
      "count": 360,
      "type": "VEC3",
      "min": [
        -0.019028304144740105,
        -0.013334954157471657,
        -0.0840107798576355
      ],
      "max": [
        0.020490579307079315,
        0.02040489949285984,
        0.10038318485021591
      ]
    },
    {
      "bufferView": 2,
      "byteOffset": 0,
      "componentType": 5126,
      "count": 1804,
      "type": "VEC3",
      "min": [
        -0.004489986225962639,
        -0.003367234254255891,
        -0.1127825528383255
      ],
      "max": [
        0.26384177803993225,
        0.038233984261751175,
        0.21164913475513458
      ]
    },
    {
      "bufferView": 3,
      "byteOffset": 0,
      "componentType": 5126,
      "count": 2884,
      "type": "VEC3",
      "min": [
        -0.0037263280246406794,
        -0.006773167289793491,
        -0.1730700433254242
      ],
      "max": [
        0.415121853351593,
        0.1389266401529312,
        0.28289881348609924
      ]
    },
    {
      "bufferView": 4,
      "byteOffset": 0,
      "componentType": 5126,
      "count": 930,
      "type": "VEC3",
      "min": [
        -0.06086893752217293,
        -0.22685740888118744,
        -0.724376916885376
      ],
      "max": [
        0.21084436774253845,
        0.09266715496778488,
        0.349235862493515
      ]
    }
  ],
  "bufferViews": [
    {
      "buffer": 0,
      "byteOffset": 0,
      "byteLength": 16344,
      "target": 34962
    },
    {
      "buffer": 0,
      "byteOffset": 16344,
      "byteLength": 4320,
      "target": 34962
    },
    {
      "buffer": 0,
      "byteOffset": 20664,
      "byteLength": 21648,
      "target": 34962
    },
    {
      "buffer": 0,
      "byteOffset": 42312,
      "byteLength": 34608,
      "target": 34962
    },
    {
      "buffer": 0,
      "byteOffset": 76920,
      "byteLength": 11160,
      "target": 34962
    }
  ],
  "buffers": [
    {
      "byteLength": 88080,
      "uri": "data:application/octet-stream;base64,"
    }
  ]
}