{
  "asset": {
    "version": "2.0",
    "generator": "TES-23 Cosmic Ray Renderer"
  },
  "extensionsUsed": [
    "KHR_materials_unlit"
  ],
  "extensionsRequired": [
    "KHR_materials_unlit"
  ],
  "scene": 0,
  "scenes": [
    {
      "nodes": [
        0
      ]
    }
  ],
  "nodes": [
    {
      "name": "CosmicRayEvent",
      "mesh": 0
    }
  ],
  "meshes": [
    {
      "name": "CosmicRayEvent",
      "primitives": [
        {
          "attributes": {
            "POSITION": 0
          },
          "material": 0,
          "mode": 1
        },
        {
          "attributes": {
            "POSITION": 1
          },
          "material": 1,
          "mode": 1
        },
        {
          "attributes": {
            "POSITION": 2
          },
          "material": 2,
          "mode": 1
        },
        {
          "attributes": {
            "POSITION": 3
          },
          "material": 3,
          "mode": 1
        },
        {
          "attributes": {
            "POSITION": 4
          },
          "material": 4,
          "mode": 1
        }
      ]
    }
  ],
  "materials": [
    {
      "name": "primary",
      "extensions": {
        "KHR_materials_unlit": {}
      },
      "pbrMetallicRoughness": {
        "baseColorFactor": [
          0.961,
          0.961,
          0.961,
          1
        ],
        "metallicFactor": 0,
        "roughnessFactor": 1
      }
    },
    {
      "name": "vertex",
      "extensions": {
        "KHR_materials_unlit": {}
      },
      "pbrMetallicRoughness": {
        "baseColorFactor": [
          0.902,
          0.902,
          0.902,
          0.9
        ],
        "metallicFactor": 0,
        "roughnessFactor": 1
      }
    },
    {
      "name": "em",
      "extensions": {
        "KHR_materials_unlit": {}
      },
      "pbrMetallicRoughness": {
        "baseColorFactor": [
          0.471,
          0.824,
          1,
          1
        ],
        "metallicFactor": 0,
        "roughnessFactor": 1
      }
    },
    {
      "name": "hadron",
      "extensions": {
        "KHR_materials_unlit": {}
      },
      "pbrMetallicRoughness": {
        "baseColorFactor": [
          0.549,
          1,
          0.745,
          1
        ],
        "metallicFactor": 0,
        "roughnessFactor": 1
      }
    },
    {
      "name": "delta",
      "extensions": {
        "KHR_materials_unlit": {}
      },
      "pbrMetallicRoughness": {
        "baseColorFactor": [
          0.804,
          0.647,
          1,
          1
        ],
        "metallicFactor": 0,
        "roughnessFactor": 1
      }
    }
  ],
  "accessors": [
    {
      "bufferView": 0,
      "byteOffset": 0,
      "componentType": 5126,
      "count": 1428,
      "type": "VEC3",
      "min": [
        -0.9997910857200623,
        -0.3464513123035431,
        0
      ],
      "max": [
        1.0222690105438232,
        0.3570421636104584,
        0
      ]
    },
    {
      "bufferView": 1,
      "byteOffset": 0,
      "componentType": 5126,
      "count": 274,
      "type": "VEC3",
      "min": [
        -0.018994230777025223,
        -0.01968449167907238,
        -0.05714289844036102
      ],
      "max": [
        0.00901317223906517,
        0.013423130847513676,
        0.07513769716024399
      ]
    },
    {
      "bufferView": 2,
      "byteOffset": 0,
      "componentType": 5126,
      "count": 716,
      "type": "VEC3",
      "min": [
        -0.003515145741403103,
        -0.0022501330822706223,
        -0.027043571695685387
      ],
      "max": [
        0.23714518547058105,
        0.12560026347637177,
        0.27884986996650696
      ]
    },
    {
      "bufferView": 3,
      "byteOffset": 0,
      "componentType": 5126,
      "count": 3600,
      "type": "VEC3",
      "min": [
        -0.016175078228116035,
        -0.05334245041012764,
        -0.7757581472396851
      ],
      "max": [
        0.3955295979976654,
        0.3208138942718506,
        1.1440482139587402
      ]
    },
    {
      "bufferView": 4,
      "byteOffset": 0,
      "componentType": 5126,
      "count": 1240,
      "type": "VEC3",
      "min": [
        -0.04205870255827904,
        -0.020364927127957344,
        -0.21845129132270813
      ],
      "max": [
        0.3272566497325897,
        0.18951883912086487,
        0.42655089497566223
      ]
    }
  ],
  "bufferViews": [
    {
      "buffer": 0,
      "byteOffset": 0,
      "byteLength": 17136,
      "target": 34962
    },
    {
      "buffer": 0,
      "byteOffset": 17136,
      "byteLength": 3288,
      "target": 34962
    },
    {
      "buffer": 0,
      "byteOffset": 20424,
      "byteLength": 8592,
      "target": 34962
    },
    {
      "buffer": 0,
      "byteOffset": 29016,
      "byteLength": 43200,
      "target": 34962
    },
    {
      "buffer": 0,
      "byteOffset": 72216,
      "byteLength": 14880,
      "target": 34962
    }
  ],
  "buffers": [
    {
      "byteLength": 87096,
      "uri": "data:application/octet-stream;base64,"
    }
  ]
}