{
  "asset": {
    "version": "2.0",
    "generator": "TES-23 Cosmic Ray Renderer"
  },
  "extensionsUsed": [
    "KHR_materials_unlit"
  ],
  "extensionsRequired": [
    "KHR_materials_unlit"
  ],
  "scene": 0,
  "scenes": [
    {
      "nodes": [
        0
      ]
    }
  ],
  "nodes": [
    {
      "name": "CosmicRayEvent",
      "mesh": 0
    }
  ],
  "meshes": [
    {
      "name": "CosmicRayEvent",
      "primitives": [
        {
          "attributes": {
            "POSITION": 0
          },
          "material": 0,
          "mode": 1
        },
        {
          "attributes": {
            "POSITION": 1
          },
          "material": 1,
          "mode": 1
        },
        {
          "attributes": {
            "POSITION": 2
          },
          "material": 2,
          "mode": 1
        },
        {
          "attributes": {
            "POSITION": 3
          },
          "material": 3,
          "mode": 1
        },
        {
          "attributes": {
            "POSITION": 4
          },
          "material": 4,
          "mode": 1
        }
      ]
    }
  ],
  "materials": [
    {
      "name": "primary",
      "extensions": {
        "KHR_materials_unlit": {}
      },
      "pbrMetallicRoughness": {
        "baseColorFactor": [
          0.961,
          0.961,
          0.961,
          1
        ],
        "metallicFactor": 0,
        "roughnessFactor": 1
      }
    },
    {
      "name": "vertex",
      "extensions": {
        "KHR_materials_unlit": {}
      },
      "pbrMetallicRoughness": {
        "baseColorFactor": [
          0.902,
          0.902,
          0.902,
          0.9
        ],
        "metallicFactor": 0,
        "roughnessFactor": 1
      }
    },
    {
      "name": "em",
      "extensions": {
        "KHR_materials_unlit": {}
      },
      "pbrMetallicRoughness": {
        "baseColorFactor": [
          0.471,
          0.824,
          1,
          1
        ],
        "metallicFactor": 0,
        "roughnessFactor": 1
      }
    },
    {
      "name": "hadron",
      "extensions": {
        "KHR_materials_unlit": {}
      },
      "pbrMetallicRoughness": {
        "baseColorFactor": [
          0.549,
          1,
          0.745,
          1
        ],
        "metallicFactor": 0,
        "roughnessFactor": 1
      }
    },
    {
      "name": "delta",
      "extensions": {
        "KHR_materials_unlit": {}
      },
      "pbrMetallicRoughness": {
        "baseColorFactor": [
          0.804,
          0.647,
          1,
          1
        ],
        "metallicFactor": 0,
        "roughnessFactor": 1
      }
    }
  ],
  "accessors": [
    {
      "bufferView": 0,
      "byteOffset": 0,
      "componentType": 5126,
      "count": 1350,
      "type": "VEC3",
      "min": [
        -0.038525164127349854,
        -1.0002787113189697,
        0
      ],
      "max": [
        0.036334358155727386,
        1.0222452878952026,
        0
      ]
    },
    {
      "bufferView": 1,
      "byteOffset": 0,
      "componentType": 5126,
      "count": 326,
      "type": "VEC3",
      "min": [
        -0.021364806219935417,
        -0.01138609554618597,
        -0.09822854399681091
      ],
      "max": [
        0.018325230106711388,
        0.012071728706359863,
        0.02491621859371662
      ]
    },
    {
      "bufferView": 2,
      "byteOffset": 0,
      "componentType": 5126,
      "count": 714,
      "type": "VEC3",
      "min": [
        -0.01263051200658083,
        -0.0039422884583473206,
        -0.02756614238023758
      ],
      "max": [
        0.003352622501552105,
        0.26084885001182556,
        0.07147027552127838
      ]
    },
    {
      "bufferView": 3,
      "byteOffset": 0,
      "componentType": 5126,
      "count": 5084,
      "type": "VEC3",
      "min": [
        -0.09834469854831696,
        -0.17592737078666687,
        -0.5437646508216858
      ],
      "max": [
        0.30165383219718933,
        0.36211133003234863,
        0.7614724040031433
      ]
    },
    {
      "bufferView": 4,
      "byteOffset": 0,
      "componentType": 5126,
      "count": 924,
      "type": "VEC3",
      "min": [
        -0.11704279482364655,
        -0.003965555690228939,
        -0.9828177690505981
      ],
      "max": [
        0.02927238494157791,
        0.2555873990058899,
        0.14592178165912628
      ]
    }
  ],
  "bufferViews": [
    {
      "buffer": 0,
      "byteOffset": 0,
      "byteLength": 16200,
      "target": 34962
    },
    {
      "buffer": 0,
      "byteOffset": 16200,
      "byteLength": 3912,
      "target": 34962
    },
    {
      "buffer": 0,
      "byteOffset": 20112,
      "byteLength": 8568,
      "target": 34962
    },
    {
      "buffer": 0,
      "byteOffset": 28680,
      "byteLength": 61008,
      "target": 34962
    },
    {
      "buffer": 0,
      "byteOffset": 89688,
      "byteLength": 11088,
      "target": 34962
    }
  ],
  "buffers": [
    {
      "byteLength": 100776,
      "uri": "data:application/octet-stream;base64,"
    }
  ]
}