{
  "asset": {
    "version": "2.0",
    "generator": "TES-23 Cosmic Ray Renderer"
  },
  "extensionsUsed": [
    "KHR_materials_unlit"
  ],
  "extensionsRequired": [
    "KHR_materials_unlit"
  ],
  "scene": 0,
  "scenes": [
    {
      "nodes": [
        0
      ]
    }
  ],
  "nodes": [
    {
      "name": "CosmicRayEvent",
      "mesh": 0
    }
  ],
  "meshes": [
    {
      "name": "CosmicRayEvent",
      "primitives": [
        {
          "attributes": {
            "POSITION": 0
          },
          "material": 0,
          "mode": 1
        },
        {
          "attributes": {
            "POSITION": 1
          },
          "material": 1,
          "mode": 1
        },
        {
          "attributes": {
            "POSITION": 2
          },
          "material": 2,
          "mode": 1
        },
        {
          "attributes": {
            "POSITION": 3
          },
          "material": 3,
          "mode": 1
        },
        {
          "attributes": {
            "POSITION": 4
          },
          "material": 4,
          "mode": 1
        },
        {
          "attributes": {
            "POSITION": 5
          },
          "material": 5,
          "mode": 1
        }
      ]
    }
  ],
  "materials": [
    {
      "name": "primary",
      "extensions": {
        "KHR_materials_unlit": {}
      },
      "pbrMetallicRoughness": {
        "baseColorFactor": [
          0.961,
          0.961,
          0.961,
          1
        ],
        "metallicFactor": 0,
        "roughnessFactor": 1
      }
    },
    {
      "name": "vertex",
      "extensions": {
        "KHR_materials_unlit": {}
      },
      "pbrMetallicRoughness": {
        "baseColorFactor": [
          0.902,
          0.902,
          0.902,
          0.9
        ],
        "metallicFactor": 0,
        "roughnessFactor": 1
      }
    },
    {
      "name": "em",
      "extensions": {
        "KHR_materials_unlit": {}
      },
      "pbrMetallicRoughness": {
        "baseColorFactor": [
          0.471,
          0.824,
          1,
          1
        ],
        "metallicFactor": 0,
        "roughnessFactor": 1
      }
    },
    {
      "name": "hadron",
      "extensions": {
        "KHR_materials_unlit": {}
      },
      "pbrMetallicRoughness": {
        "baseColorFactor": [
          0.549,
          1,
          0.745,
          1
        ],
        "metallicFactor": 0,
        "roughnessFactor": 1
      }
    },
    {
      "name": "delta",
      "extensions": {
        "KHR_materials_unlit": {}
      },
      "pbrMetallicRoughness": {
        "baseColorFactor": [
          0.804,
          0.647,
          1,
          1
        ],
        "metallicFactor": 0,
        "roughnessFactor": 1
      }
    },
    {
      "name": "backscatter",
      "extensions": {
        "KHR_materials_unlit": {}
      },
      "pbrMetallicRoughness": {
        "baseColorFactor": [
          1,
          0.824,
          0.529,
          0.95
        ],
        "metallicFactor": 0,
        "roughnessFactor": 1
      }
    }
  ],
  "accessors": [
    {
      "bufferView": 0,
      "byteOffset": 0,
      "componentType": 5126,
      "count": 1350,
      "type": "VEC3",
      "min": [
        -1.000214695930481,
        -0.030584439635276794,
        0
      ],
      "max": [
        1.0224759578704834,
        0.02811264805495739,
        0
      ]
    },
    {
      "bufferView": 1,
      "byteOffset": 0,
      "componentType": 5126,
      "count": 306,
      "type": "VEC3",
      "min": [
        -0.02108890376985073,
        -0.018589375540614128,
        -0.03106718696653843
      ],
      "max": [
        0.021549727767705917,
        0.011271357536315918,
        0.08691542595624924
      ]
    },
    {
      "bufferView": 2,
      "byteOffset": 0,
      "componentType": 5126,
      "count": 844,
      "type": "VEC3",
      "min": [
        -0.002597660757601261,
        -0.019931403920054436,
        -0.03137044608592987
      ],
      "max": [
        0.20776022970676422,
        0.020181627944111824,
        0.19858992099761963
      ]
    },
    {
      "bufferView": 3,
      "byteOffset": 0,
      "componentType": 5126,
      "count": 4022,
      "type": "VEC3",
      "min": [
        -0.002561366418376565,
        -0.1534242480993271,
        -0.7637042999267578
      ],
      "max": [
        0.44474107027053833,
        0.06634897738695145,
        0.34643685817718506
      ]
    },
    {
      "bufferView": 4,
      "byteOffset": 0,
      "componentType": 5126,
      "count": 970,
      "type": "VEC3",
      "min": [
        -0.019363263621926308,
        -0.06181149557232857,
        -0.5340293645858765
      ],
      "max": [
        0.22821781039237976,
        0.06411004811525345,
        1.0461227893829346
      ]
    },
    {
      "bufferView": 5,
      "byteOffset": 0,
      "componentType": 5126,
      "count": 1324,
      "type": "VEC3",
      "min": [
        -0.1316470056772232,
        -0.07086125016212463,
        -0.8510538935661316
      ],
      "max": [
        0.12459618598222733,
        0.08101949095726013,
        1.9017326831817627
      ]
    }
  ],
  "bufferViews": [
    {
      "buffer": 0,
      "byteOffset": 0,
      "byteLength": 16200,
      "target": 34962
    },
    {
      "buffer": 0,
      "byteOffset": 16200,
      "byteLength": 3672,
      "target": 34962
    },
    {
      "buffer": 0,
      "byteOffset": 19872,
      "byteLength": 10128,
      "target": 34962
    },
    {
      "buffer": 0,
      "byteOffset": 30000,
      "byteLength": 48264,
      "target": 34962
    },
    {
      "buffer": 0,
      "byteOffset": 78264,
      "byteLength": 11640,
      "target": 34962
    },
    {
      "buffer": 0,
      "byteOffset": 89904,
      "byteLength": 15888,
      "target": 34962
    }
  ],
  "buffers": [
    {
      "byteLength": 105792,
      "uri": "data:application/octet-stream;base64,"
    }
  ]
}