<?xml version="1.0" encoding="UTF-8"?>
<svg xmlns="http://www.w3.org/2000/svg" width="2000" height="2000" viewBox="0 0 2000 2000">
<g fill="none" stroke-linecap="round" stroke-linejoin="round">
  <path d="M 1077.02 1014.21 L 1080.07 1014.50 L 1083.11 1014.80 L 1086.13 1015.18 L 1089.14 1015.58 L 1092.13 1015.93 L 1095.09 1016.48 L 1098.04 1016.97 L 1100.97 1017.53 L 1103.90 1018.03 L 1106.81 1018.56 L 1109.71 1019.04 L 1112.60 1019.56 L 1115.49 1020.03 L 1118.37 1020.42 L 1121.23 1020.92 L 1124.09 1021.33 L 1126.92 1021.82 L 1129.74 1022.34 L 1132.55 1022.81 L 1135.35 1023.30 L 1138.13 1023.82 L 1140.91 1024.32 L 1143.68 1024.78 L 1146.42 1025.32 L 1149.16 1025.84 L 1151.88 1026.35 L 1154.61 1026.82 L 1157.32 1027.30 L 1160.00 1027.87 L 1162.68 1028.38 L 1165.35 1028.89 L 1168.01 1029.40 L 1170.66 1029.90 L 1173.31 1030.33 L 1175.92 1030.91 L 1178.54 1031.45 L 1181.14 1031.94 L 1183.75 1032.41 L 1186.34 1032.88 L 1188.90 1033.42 L 1191.46 1033.98 L 1194.01 1034.49 L 1196.56 1034.92 L 1199.10 1035.39 L 1201.63 1035.84 L 1204.15 1036.29 L 1206.67 1036.71 L 1209.19 1037.04 L 1211.69 1037.40 L 1214.18 1037.82" stroke="rgb(120,210,255)" stroke-opacity="0.470" stroke-width="1.64" />
  <path d="M 996.50 1000.90 L 999.62 1001.16 L 1002.74 1001.37 L 1005.84 1001.59 L 1008.94 1001.78 L 1012.02 1001.97 L 1015.09 1002.14 L 1018.14 1002.36 L 1021.19 1002.49 L 1024.23 1002.59 L 1027.25 1002.66 L 1030.27 1002.72 L 1033.27 1002.78 L 1036.26 1002.82 L 1039.23 1002.93 L 1042.20 1002.97 L 1045.15 1002.94 L 1048.09 1002.90 L 1051.02 1002.85 L 1053.94 1002.77 L 1056.85 1002.67 L 1059.74 1002.58 L 1062.62 1002.45 L 1065.49 1002.25 L 1068.34 1002.10" stroke="rgb(120,210,255)" stroke-opacity="0.851" stroke-width="1.63" />
  <path d="M 1001.25 998.64 L 1004.26 998.87 L 1007.26 999.09 L 1010.25 999.23 L 1013.23 999.44 L 1016.18 999.76 L 1019.13 1000.03 L 1022.07 1000.22 L 1025.00 1000.45 L 1027.91 1000.69 L 1030.81 1000.97 L 1033.70 1001.25 L 1036.58 1001.51 L 1039.43 1001.88 L 1042.28 1002.23 L 1045.10 1002.69 L 1047.89 1003.23 L 1050.68 1003.69 L 1053.47 1004.13 L 1056.23 1004.62 L 1058.99 1005.13 L 1061.73 1005.65 L 1064.46 1006.11 L 1067.19 1006.59 L 1069.91 1006.99 L 1072.61 1007.50 L 1075.30 1007.95 L 1077.99 1008.38 L 1080.66 1008.81 L 1083.33 1009.26 L 1085.98 1009.71 L 1088.63 1010.06 L 1091.27 1010.47 L 1093.90 1010.79 L 1096.52 1011.18 L 1099.13 1011.53 L 1101.73 1011.91 L 1104.31 1012.32 L 1106.89 1012.68 L 1109.45 1013.11 L 1112.00 1013.52 L 1114.54 1013.90" stroke="rgb(120,210,255)" stroke-opacity="0.468" stroke-width="1.63" />
  <path d="M 998.79 997.73 L 1002.12 998.20 L 1005.44 998.71 L 1008.73 999.26 L 1012.01 999.86 L 1015.27 1000.45 L 1018.51 1001.10 L 1021.74 1001.70 L 1024.95 1002.33 L 1028.16 1002.95 L 1031.35 1003.54 L 1034.53 1004.14 L 1037.71 1004.69 L 1040.88 1005.20 L 1044.04 1005.70 L 1047.18 1006.21 L 1050.31 1006.71 L 1053.42 1007.24 L 1056.52 1007.83 L 1059.59 1008.43 L 1062.65 1009.03 L 1065.71 1009.62 L 1068.74 1010.24 L 1071.77 1010.84 L 1074.78 1011.46 L 1077.76 1012.12 L 1080.74 1012.78 L 1083.71 1013.41 L 1086.67 1014.03 L 1089.61 1014.65 L 1092.54 1015.31 L 1095.45 1015.96 L 1098.35 1016.62 L 1101.23 1017.32 L 1104.10 1018.04 L 1106.94 1018.78 L 1109.76 1019.56 L 1112.56 1020.36 L 1115.36 1021.15 L 1118.14 1021.94 L 1120.92 1022.72 L 1123.67 1023.52 L 1126.41 1024.35 L 1129.13 1025.18 L 1131.84 1026.01 L 1134.53 1026.86 L 1137.22 1027.69 L 1139.88 1028.56 L 1142.52 1029.47 L 1145.14 1030.39 L 1147.75 1031.32 L 1150.35 1032.24 L 1152.93 1033.18 L 1155.50 1034.12 L 1158.06 1035.05 L 1160.62 1035.92 L 1163.17 1036.83 L 1165.72 1037.70 L 1168.26 1038.56 L 1170.77 1039.44 L 1173.29 1040.29 L 1175.79 1041.18 L 1178.30 1042.00 L 1180.79 1042.83 L 1183.26 1043.70 L 1185.71 1044.59" stroke="rgb(120,210,255)" stroke-opacity="0.851" stroke-width="1.62" />
  <path d="M 1038.40 1000.18 L 1041.38 999.80 L 1044.37 999.53 L 1047.34 999.27 L 1050.31 999.00 L 1053.26 998.76 L 1056.20 998.57 L 1059.14 998.49 L 1062.07 998.52 L 1064.98 998.48 L 1067.89 998.55 L 1070.78 998.57 L 1073.66 998.67 L 1076.53 998.68 L 1079.38 998.65 L 1082.23 998.68 L 1085.06 998.74 L 1087.88 998.81 L 1090.70 998.89 L 1093.50 998.85 L 1096.29 998.84 L 1099.06 998.76 L 1101.83 998.62 L 1104.58 998.51 L 1107.32 998.35 L 1110.05 998.18 L 1112.77 998.11 L 1115.48 998.01 L 1118.18 997.98 L 1120.87 997.92 L 1123.55 997.83 L 1126.22 997.86 L 1128.88 997.88 L 1131.53 997.83 L 1134.16 997.75" stroke="rgb(120,210,255)" stroke-opacity="0.467" stroke-width="1.62" />
  <path d="M 999.20 994.86 L 1002.27 995.04 L 1005.34 995.16 L 1008.38 995.34 L 1011.41 995.65 L 1014.42 995.98 L 1017.43 996.25 L 1020.42 996.51 L 1023.41 996.75" stroke="rgb(120,210,255)" stroke-opacity="0.466" stroke-width="1.62" />
  <path d="M 1000.03 998.84 L 1003.05 999.02 L 1006.06 999.13 L 1009.06 999.29 L 1012.04 999.45 L 1015.02 999.56 L 1017.97 999.77 L 1020.93 999.91 L 1023.87 1000.01 L 1026.80 1000.06 L 1029.71 1000.14 L 1032.62 1000.20 L 1035.51 1000.20 L 1038.40 1000.18 L 1041.27 1000.11 L 1044.13 1000.03 L 1046.98 1000.02 L 1049.82 999.96 L 1052.64 999.83 L 1055.45 999.69 L 1058.25 999.50 L 1061.04 999.33 L 1063.81 999.15 L 1066.57 998.92 L 1069.33 998.80 L 1072.08 998.68 L 1074.81 998.55 L 1077.53 998.47 L 1080.25 998.50 L 1082.95 998.57 L 1085.64 998.70 L 1088.32 998.83 L 1090.99 998.96 L 1093.65 999.16 L 1096.29 999.32 L 1098.93 999.47 L 1101.56 999.57 L 1104.17 999.68 L 1106.78 999.80 L 1109.38 999.91 L 1111.96 999.99 L 1114.54 1000.15 L 1117.10 1000.30 L 1119.65 1000.50 L 1122.19 1000.63 L 1124.72 1000.85 L 1127.23 1001.14 L 1129.73 1001.42 L 1132.22 1001.70" stroke="rgb(120,210,255)" stroke-opacity="0.466" stroke-width="1.61" />
  <path d="M 1000.46 998.65 L 1003.81 999.31 L 1007.14 999.97 L 1010.46 1000.57 L 1013.77 1001.21 L 1017.06 1001.85 L 1020.34 1002.50 L 1023.59 1003.19 L 1026.83 1003.90 L 1030.06 1004.54 L 1033.28 1005.23 L 1036.48 1005.89 L 1039.67 1006.58 L 1042.84 1007.28 L 1046.00 1007.96 L 1049.15 1008.65 L 1052.27 1009.41 L 1055.39 1010.10 L 1058.51 1010.74 L 1061.63 1011.31 L 1064.73 1011.89 L 1067.82 1012.48 L 1070.90 1013.05 L 1073.97 1013.64 L 1077.02 1014.21 L 1080.06 1014.78 L 1083.09 1015.39" stroke="rgb(120,210,255)" stroke-opacity="0.843" stroke-width="1.60" />
  <path d="M 999.06 1001.28 L 1002.16 1001.87 L 1005.24 1002.54 L 1008.31 1003.15 L 1011.38 1003.69 L 1014.43 1004.26 L 1017.48 1004.79 L 1020.54 1005.22 L 1023.58 1005.62 L 1026.61 1006.04 L 1029.63 1006.39 L 1032.64 1006.76 L 1035.63 1007.19 L 1038.62 1007.60 L 1041.58 1008.01 L 1044.55 1008.38 L 1047.48 1008.85" stroke="rgb(120,210,255)" stroke-opacity="0.843" stroke-width="1.60" />
  <path d="M 1000.35 999.60 L 1003.62 1000.14 L 1006.88 1000.66 L 1010.11 1001.24 L 1013.34 1001.79 L 1016.55 1002.36 L 1019.76 1002.86 L 1022.96 1003.35 L 1026.15 1003.81 L 1029.33 1004.23" stroke="rgb(120,210,255)" stroke-opacity="0.842" stroke-width="1.60" />
  <path d="M 1000.12 997.25 L 1003.50 997.54 L 1006.88 997.84 L 1010.23 998.16 L 1013.58 998.49 L 1016.89 998.91 L 1020.20 999.29 L 1023.50 999.66 L 1026.78 1000.07 L 1030.05 1000.50 L 1033.31 1000.81 L 1036.56 1001.15 L 1039.80 1001.47 L 1043.02 1001.74 L 1046.24 1002.04 L 1049.43 1002.37 L 1052.62 1002.67 L 1055.80 1002.94 L 1058.96 1003.18 L 1062.12 1003.41 L 1065.26 1003.60 L 1068.39 1003.79 L 1071.51 1003.96 L 1074.62 1004.21 L 1077.71 1004.44 L 1080.79 1004.64 L 1083.86 1004.82 L 1086.92 1005.01 L 1089.96 1005.22 L 1092.99 1005.39 L 1096.02 1005.51 L 1099.03 1005.63 L 1102.03 1005.73 L 1105.02 1005.86 L 1107.99 1005.97 L 1110.96 1006.07 L 1113.91 1006.21 L 1116.85 1006.32 L 1119.78 1006.42 L 1122.70 1006.50 L 1125.60 1006.58 L 1128.50 1006.58 L 1131.38 1006.60 L 1134.26 1006.61 L 1137.12 1006.61 L 1139.97 1006.61 L 1142.81 1006.62 L 1145.63 1006.63 L 1148.45 1006.66 L 1151.25 1006.70 L 1154.04 1006.79 L 1156.82 1006.85 L 1159.59 1006.96 L 1162.35 1007.04 L 1165.09 1007.22 L 1167.82 1007.43 L 1170.54 1007.70 L 1173.24 1007.96 L 1175.93 1008.25 L 1178.62 1008.46 L 1181.29 1008.64 L 1183.97 1008.74 L 1186.63 1008.83 L 1189.27 1008.96 L 1191.91 1009.14 L 1194.53 1009.31 L 1197.15 1009.52" stroke="rgb(120,210,255)" stroke-opacity="0.841" stroke-width="1.60" />
  <path d="M 999.97 1002.60 L 1002.89 1002.97 L 1005.78 1003.42 L 1008.66 1003.85 L 1011.53 1004.29 L 1014.39 1004.74 L 1017.22 1005.26 L 1020.03 1005.85 L 1022.82 1006.46 L 1025.59 1007.10 L 1028.35 1007.76 L 1031.11 1008.33 L 1033.89 1008.79 L 1036.65 1009.22 L 1039.41 1009.65 L 1042.14 1010.18 L 1044.81 1010.88 L 1047.49 1011.55 L 1050.13 1012.28 L 1052.73 1013.13 L 1055.34 1013.91 L 1057.97 1014.58 L 1060.56 1015.33 L 1063.16 1016.02 L 1065.74 1016.73 L 1068.32 1017.41 L 1070.90 1018.09 L 1073.47 1018.72 L 1076.03 1019.33 L 1078.59 1019.92 L 1081.16 1020.44 L 1083.70 1021.01 L 1086.21 1021.65 L 1088.72 1022.26 L 1091.22 1022.88 L 1093.71 1023.51 L 1096.19 1024.11 L 1098.67 1024.69 L 1101.11 1025.37 L 1103.55 1026.01 L 1106.00 1026.57 L 1108.43 1027.15" stroke="rgb(120,210,255)" stroke-opacity="0.462" stroke-width="1.59" />
  <path d="M 1000.34 999.13 L 1003.23 999.44 L 1006.11 999.75 L 1008.97 1000.09 L 1011.83 1000.38 L 1014.67 1000.71 L 1017.49 1001.07 L 1020.31 1001.45 L 1023.12 1001.75 L 1025.91 1002.14 L 1028.68 1002.54 L 1031.44 1002.93 L 1034.20 1003.32 L 1036.94 1003.69 L 1039.67 1004.10 L 1042.38 1004.57 L 1045.09 1004.96 L 1047.79 1005.35 L 1050.46 1005.84 L 1053.11 1006.34 L 1055.78 1006.73 L 1058.41 1007.25 L 1061.03 1007.76 L 1063.65 1008.22 L 1066.26 1008.70 L 1068.87 1009.09 L 1071.47 1009.51 L 1074.06 1009.89 L 1076.63 1010.31 L 1079.20 1010.70 L 1081.76 1011.08 L 1084.31 1011.46 L 1086.84 1011.89 L 1089.36 1012.36 L 1091.87 1012.76 L 1094.37 1013.19 L 1096.87 1013.57 L 1099.34 1014.01 L 1101.82 1014.40 L 1104.27 1014.86 L 1106.71 1015.35 L 1109.13 1015.88 L 1111.54 1016.41 L 1113.95 1016.88 L 1116.35 1017.36" stroke="rgb(120,210,255)" stroke-opacity="0.459" stroke-width="1.58" />
  <path d="M 1045.15 1002.94 L 1047.96 1003.75 L 1050.77 1004.50 L 1053.57 1005.25 L 1056.35 1006.02 L 1059.12 1006.79 L 1061.91 1007.45 L 1064.69 1008.08 L 1067.46 1008.75 L 1070.19 1009.47 L 1072.92 1010.19 L 1075.65 1010.82 L 1078.38 1011.44 L 1081.08 1012.13 L 1083.77 1012.81 L 1086.45 1013.45 L 1089.14 1014.04 L 1091.79 1014.75 L 1094.44 1015.41 L 1097.08 1016.06 L 1099.71 1016.69 L 1102.31 1017.39 L 1104.91 1018.07 L 1107.48 1018.84 L 1109.98 1019.74 L 1112.48 1020.63 L 1114.94 1021.61 L 1117.36 1022.64 L 1119.77 1023.67 L 1122.20 1024.63" stroke="rgb(120,210,255)" stroke-opacity="0.457" stroke-width="1.57" />
  <path d="M 1000.59 1003.62 L 1003.29 1004.28 L 1005.95 1005.03 L 1008.61 1005.78 L 1011.27 1006.44 L 1013.92 1007.12 L 1016.58 1007.70 L 1019.22 1008.31 L 1021.87 1008.87 L 1024.49 1009.48 L 1027.09 1010.12 L 1029.66 1010.87 L 1032.19 1011.66 L 1034.70 1012.52 L 1037.18 1013.42 L 1039.68 1014.23 L 1042.13 1015.14 L 1044.59 1016.01 L 1047.04 1016.85 L 1049.47 1017.74 L 1051.89 1018.61 L 1054.31 1019.47 L 1056.73 1020.28 L 1059.15 1021.08 L 1061.56 1021.86 L 1063.95 1022.67 L 1066.34 1023.45 L 1068.73 1024.19 L 1071.10 1024.99 L 1073.44 1025.79 L 1075.78 1026.60 L 1078.14 1027.32 L 1080.49 1028.04 L 1082.83 1028.74 L 1085.17 1029.41 L 1087.50 1030.07 L 1089.85 1030.64" stroke="rgb(120,210,255)" stroke-opacity="0.453" stroke-width="1.54" />
  <path d="M 1070.90 1013.05 L 1073.07 1013.87 L 1075.24 1014.67 L 1077.39 1015.48 L 1079.55 1016.25 L 1081.70 1017.00 L 1083.82 1017.84 L 1085.92 1018.66 L 1088.01 1019.51 L 1090.09 1020.35 L 1092.14 1021.24 L 1094.14 1022.24" stroke="rgb(120,210,255)" stroke-opacity="0.433" stroke-width="1.44" />
  <path d="M 998.77 996.91 L 1001.67 998.50 L 1004.54 1000.12 L 1007.37 1001.78 L 1010.22 1003.37 L 1013.09 1004.90 L 1015.92 1006.48 L 1018.75 1008.02 L 1021.58 1009.55 L 1024.38 1011.10 L 1027.17 1012.66 L 1029.93 1014.22 L 1032.74 1015.68 L 1035.50 1017.19 L 1038.26 1018.70 L 1041.02 1020.17 L 1043.78 1021.59 L 1046.53 1023.03 L 1049.27 1024.45 L 1051.99 1025.90 L 1054.73 1027.25 L 1057.50 1028.54 L 1060.24 1029.86 L 1063.00 1031.08 L 1065.76 1032.32 L 1068.47 1033.60 L 1071.20 1034.83 L 1073.91 1036.07 L 1076.61 1037.30 L 1079.30 1038.51 L 1081.97 1039.75 L 1084.65 1040.94 L 1087.31 1042.14 L 1089.97 1043.32 L 1092.62 1044.49 L 1095.25 1045.68 L 1097.84 1046.92 L 1100.42 1048.16 L 1102.98 1049.41 L 1105.54 1050.64 L 1108.09 1051.85 L 1110.66 1053.00 L 1113.24 1054.12 L 1115.83 1055.15 L 1118.42 1056.17 L 1121.00 1057.17 L 1123.58 1058.17 L 1126.15 1059.14 L 1128.71 1060.11 L 1131.27 1061.07 L 1133.81 1062.02 L 1136.36 1062.93 L 1138.90 1063.82 L 1141.42 1064.74 L 1143.92 1065.68 L 1146.42 1066.60 L 1148.91 1067.51 L 1151.40 1068.40 L 1153.88 1069.27 L 1156.38 1070.07 L 1158.87 1070.85 L 1161.35 1071.62 L 1163.81 1072.44 L 1166.27 1073.22 L 1168.70 1074.03" stroke="rgb(205,165,255)" stroke-opacity="0.716" stroke-width="1.23" />
  <path d="M 1002.00 997.23 L 1002.29 993.94 L 1002.62 990.67 L 1002.90 987.41 L 1003.17 984.15 L 1003.51 980.92 L 1003.91 977.71 L 1004.31 974.51 L 1004.71 971.33 L 1005.16 968.16 L 1005.70 965.02 L 1006.27 961.90 L 1006.84 958.79 L 1007.34 955.68 L 1007.85 952.59 L 1008.36 949.51 L 1008.88 946.44 L 1009.40 943.39 L 1009.92 940.35 L 1010.37 937.31 L 1010.80 934.28 L 1011.26 931.27 L 1011.67 928.26 L 1012.11 925.27 L 1012.56 922.29 L 1013.03 919.33 L 1013.47 916.37 L 1013.89 913.43 L 1014.36 910.50 L 1014.80 907.58 L 1015.17 904.67 L 1015.53 901.76 L 1015.96 898.87 L 1016.36 896.00 L 1016.73 893.13 L 1017.17 890.28 L 1017.66 887.45 L 1018.10 884.63" stroke="rgb(205,165,255)" stroke-opacity="0.710" stroke-width="1.22" />
  <path d="M 1000.00 1001.08 L 1002.20 1001.76 L 1004.37 1002.49 L 1006.52 1003.22 L 1008.65 1004.01" stroke="rgb(140,255,190)" stroke-opacity="0.558" stroke-width="1.20" />
  <path d="M 1078.89 1013.66 L 1082.15 1012.49 L 1085.42 1011.40 L 1088.69 1010.36 L 1091.96 1009.36 L 1095.23 1008.39 L 1098.47 1007.39 L 1101.71 1006.45 L 1104.95 1005.52 L 1108.18 1004.63 L 1111.40 1003.74 L 1114.60 1002.82 L 1117.76 1001.83 L 1120.91 1000.87 L 1124.07 999.95 L 1127.19 998.99 L 1130.29 997.97 L 1133.38 996.96 L 1136.44 995.92 L 1139.50 994.90 L 1142.53 993.85 L 1145.55 992.83 L 1148.58 991.83 L 1151.57 990.78 L 1154.54 989.74 L 1157.51 988.69 L 1160.47 987.68 L 1163.45 986.74 L 1166.41 985.80 L 1169.37 984.89 L 1172.30 983.94 L 1175.22 983.01 L 1178.16 982.17 L 1181.10 981.37 L 1184.03 980.58 L 1186.91 979.68 L 1189.80 978.84 L 1192.68 977.99 L 1195.55 977.18 L 1198.41 976.38 L 1201.27 975.61 L 1204.12 974.87 L 1206.96 974.11 L 1209.79 973.37 L 1212.59 972.56 L 1215.37 971.71 L 1218.12 970.84 L 1220.88 970.03 L 1223.64 969.25 L 1226.40 968.51 L 1229.16 967.81" stroke="rgb(140,255,190)" stroke-opacity="0.739" stroke-width="1.19" />
  <path d="M 1049.05 997.80 L 1052.00 996.17 L 1054.96 994.56 L 1057.86 992.89 L 1060.76 991.26 L 1063.67 989.65 L 1066.55 988.03 L 1069.43 986.42 L 1072.28 984.80 L 1075.15 983.24 L 1077.97 981.62 L 1080.76 979.96 L 1083.53 978.31 L 1086.28 976.63 L 1089.02 974.97 L 1091.76 973.34 L 1094.46 971.66 L 1097.13 969.96 L 1099.69 968.12 L 1102.24 966.30 L 1104.81 964.51 L 1107.38 962.76 L 1109.94 961.00 L 1112.52 959.30 L 1115.12 957.66 L 1117.73 956.05 L 1120.33 954.45 L 1122.90 952.82 L 1125.40 951.12 L 1127.88 949.40 L 1130.33 947.67 L 1132.79 945.95 L 1135.26 944.28 L 1137.76 942.68 L 1140.26 941.11 L 1142.75 939.53 L 1145.21 937.95 L 1147.68 936.39" stroke="rgb(140,255,190)" stroke-opacity="0.737" stroke-width="1.19" />
  <path d="M 1002.74 999.72 L 1006.14 999.65 L 1009.52 999.56 L 1012.89 999.45 L 1016.25 999.32 L 1019.59 999.21 L 1022.91 999.05 L 1026.22 998.84 L 1029.52 998.63 L 1032.81 998.47 L 1036.08 998.34 L 1039.34 998.18 L 1042.59 998.08 L 1045.83 997.93 L 1049.05 997.80 L 1052.26 997.63 L 1055.46 997.53 L 1058.64 997.39 L 1061.81 997.28 L 1064.97 997.16 L 1068.12 997.03 L 1071.26 996.98 L 1074.38 996.90 L 1077.49 996.89 L 1080.59 996.93 L 1083.67 997.01 L 1086.75 997.06 L 1089.81 997.16 L 1092.86 997.22 L 1095.89 997.25 L 1098.92 997.31 L 1101.93 997.29 L 1104.93 997.29 L 1107.92 997.30 L 1110.90 997.30 L 1113.86 997.32 L 1116.82 997.30 L 1119.76 997.29 L 1122.69 997.37 L 1125.60 997.48 L 1128.51 997.57 L 1131.40 997.60 L 1134.28 997.67 L 1137.16 997.74 L 1140.02 997.73 L 1142.86 997.70 L 1145.70 997.68 L 1148.53 997.70 L 1151.34 997.71 L 1154.14 997.69 L 1156.94 997.68 L 1159.72 997.75 L 1162.49 997.83 L 1165.24 997.90 L 1167.99 997.99 L 1170.72 998.13 L 1173.44 998.28 L 1176.16 998.43 L 1178.86 998.57 L 1181.54 998.74 L 1184.22 998.92 L 1186.88 999.16 L 1189.53 999.44 L 1192.16 999.73 L 1194.79 1000.01 L 1197.40 1000.30 L 1200.00 1000.56 L 1202.60 1000.86 L 1205.18 1001.15 L 1207.75 1001.41 L 1210.32 1001.63 L 1212.88 1001.84 L 1215.42 1002.08" stroke="rgb(140,255,190)" stroke-opacity="0.735" stroke-width="1.18" />
  <path d="M 999.98 1000.97 L 1000.11 997.96 L 1000.17 994.95 L 1000.15 991.96 L 1000.23 988.98 L 1000.30 986.01 L 1000.44 983.06 L 1000.69 980.12" stroke="rgb(205,165,255)" stroke-opacity="0.488" stroke-width="1.18" />
  <path d="M 1000.31 998.02 L 1003.57 997.69 L 1006.81 997.35 L 1010.05 997.13 L 1013.28 996.95 L 1016.50 996.83 L 1019.70 996.71 L 1022.90 996.67 L 1026.08 996.62 L 1029.25 996.53 L 1032.40 996.38 L 1035.54 996.29 L 1038.68 996.20 L 1041.79 996.08 L 1044.90 995.97 L 1047.99 995.93 L 1051.07 995.86 L 1054.14 995.85 L 1057.20 995.87 L 1060.25 995.89" stroke="rgb(140,255,190)" stroke-opacity="0.729" stroke-width="1.17" />
  <path d="M 1000.84 994.34 L 1004.00 995.00 L 1007.16 995.63 L 1010.30 996.26 L 1013.41 996.96 L 1016.53 997.58 L 1019.64 998.19 L 1022.73 998.81 L 1025.80 999.49 L 1028.85 1000.15 L 1031.90 1000.78 L 1034.93 1001.46 L 1037.93 1002.22 L 1040.91 1002.99 L 1043.87 1003.80 L 1046.81 1004.61 L 1049.75 1005.38 L 1052.69 1006.13 L 1055.63 1006.82 L 1058.54 1007.54 L 1061.45 1008.25 L 1064.34 1008.99 L 1067.22 1009.71 L 1070.09 1010.43 L 1072.94 1011.18 L 1075.78 1011.90 L 1078.62 1012.61 L 1081.43 1013.33 L 1084.25 1014.02 L 1087.05 1014.74 L 1089.83 1015.48 L 1092.59 1016.21 L 1095.36 1016.91 L 1098.08 1017.72 L 1100.82 1018.45 L 1103.56 1019.12 L 1106.29 1019.74 L 1109.02 1020.36 L 1111.74 1020.96 L 1114.46 1021.51 L 1117.16 1022.08 L 1119.85 1022.66 L 1122.54 1023.21 L 1125.21 1023.74 L 1127.87 1024.30 L 1130.52 1024.88 L 1133.16 1025.41 L 1135.81 1025.89 L 1138.44 1026.34 L 1141.06 1026.85 L 1143.65 1027.42 L 1146.24 1027.95 L 1148.82 1028.50 L 1151.38 1029.04 L 1153.94 1029.59 L 1156.49 1030.09 L 1159.03 1030.59 L 1161.57 1031.08 L 1164.09 1031.55 L 1166.61 1031.99 L 1169.12 1032.47 L 1171.62 1032.91 L 1174.11 1033.36 L 1176.59 1033.78 L 1179.07 1034.19 L 1181.53 1034.64 L 1183.98 1035.08 L 1186.42 1035.49 L 1188.85 1035.94 L 1191.27 1036.40 L 1193.66 1036.90 L 1196.06 1037.37 L 1198.45 1037.82 L 1200.83 1038.24 L 1203.21 1038.64 L 1205.59 1038.97 L 1207.95 1039.33 L 1210.30 1039.72 L 1212.65 1040.06 L 1214.99 1040.40 L 1217.31 1040.75 L 1219.63 1041.11 L 1221.93 1041.49 L 1224.22 1041.93 L 1226.49 1042.38 L 1228.74 1042.88 L 1230.98 1043.39 L 1233.22 1043.85 L 1235.45 1044.31 L 1237.67 1044.81 L 1239.88 1045.28 L 1242.09 1045.72 L 1244.28 1046.21 L 1246.45 1046.71" stroke="rgb(140,255,190)" stroke-opacity="0.727" stroke-width="1.16" />
  <path d="M 1002.20 1003.72 L 1004.58 1003.82 L 1006.95 1004.02 L 1009.32 1004.14 L 1011.67 1004.31 L 1014.01 1004.54 L 1016.33 1004.81 L 1018.64 1005.08 L 1020.93 1005.50 L 1023.19 1005.98 L 1025.44 1006.45 L 1027.70 1006.87 L 1029.95 1007.25 L 1032.17 1007.75 L 1034.37 1008.28 L 1036.57 1008.78 L 1038.77 1009.26 L 1040.95 1009.74 L 1043.16 1010.07 L 1045.35 1010.42 L 1047.52 1010.85 L 1049.70 1011.19 L 1051.86 1011.53 L 1053.98 1012.10 L 1056.07 1012.68 L 1058.17 1013.22 L 1060.25 1013.80 L 1062.32 1014.38 L 1064.40 1014.90 L 1066.47 1015.41 L 1068.52 1015.98 L 1070.59 1016.44" stroke="rgb(140,255,190)" stroke-opacity="0.543" stroke-width="1.15" />
  <path d="M 1001.07 1000.22 L 1003.48 1000.42 L 1005.89 1000.62 L 1008.29 1000.76 L 1010.68 1000.86 L 1013.07 1000.97 L 1015.44 1001.10 L 1017.81 1001.14 L 1020.16 1001.32 L 1022.50 1001.44 L 1024.84 1001.56 L 1027.16 1001.70 L 1029.48 1001.84 L 1031.78 1002.04 L 1034.07 1002.25 L 1036.34 1002.55 L 1038.61 1002.79 L 1040.88 1003.03 L 1043.14 1003.14 L 1045.39 1003.21 L 1047.64 1003.28 L 1049.87 1003.20 L 1052.10 1003.16 L 1054.32 1003.10 L 1056.53 1003.19 L 1058.73 1003.31 L 1060.92 1003.39 L 1063.10 1003.35 L 1065.28 1003.34 L 1067.45 1003.31 L 1069.61 1003.27 L 1071.75 1003.23 L 1073.89 1003.16 L 1076.02 1003.03 L 1078.14 1002.86 L 1080.24 1002.60 L 1082.33 1002.33 L 1084.42 1002.12 L 1086.50 1001.93 L 1088.57 1001.68 L 1090.62 1001.43 L 1092.67 1001.18 L 1094.73 1001.06 L 1096.77 1000.98 L 1098.81 1000.79 L 1100.83 1000.60 L 1102.85 1000.51 L 1104.85 1000.21 L 1106.84 999.98 L 1108.84 999.86 L 1110.83 999.75 L 1112.81 999.71 L 1114.79 999.64 L 1116.75 999.49" stroke="rgb(140,255,190)" stroke-opacity="0.543" stroke-width="1.15" />
  <path d="M 998.09 998.00 L 1001.20 998.73 L 1004.32 999.37 L 1007.44 999.98 L 1010.53 1000.63 L 1013.61 1001.26 L 1016.69 1001.85 L 1019.76 1002.41 L 1022.82 1002.93 L 1025.87 1003.50 L 1028.90 1004.04 L 1031.92 1004.64 L 1034.90 1005.30 L 1037.88 1005.96 L 1040.85 1006.57 L 1043.81 1007.18 L 1046.76 1007.77 L 1049.71 1008.31 L 1052.66 1008.79 L 1055.61 1009.21 L 1058.54 1009.61 L 1061.46 1010.02 L 1064.38 1010.36 L 1067.29 1010.69 L 1070.18 1011.06 L 1073.07 1011.41 L 1075.93 1011.82 L 1078.78 1012.23 L 1081.62 1012.63 L 1084.45 1013.02 L 1087.27 1013.43 L 1090.07 1013.86 L 1092.85 1014.36 L 1095.63 1014.82 L 1098.39 1015.29 L 1101.14 1015.76 L 1103.88 1016.20 L 1106.61 1016.65 L 1109.33 1017.14 L 1112.05 1017.50 L 1114.75 1017.90 L 1117.43 1018.39 L 1120.11 1018.85 L 1122.76 1019.36 L 1125.42 1019.77 L 1128.07 1020.20 L 1130.70 1020.62 L 1133.33 1021.03" stroke="rgb(140,255,190)" stroke-opacity="0.721" stroke-width="1.15" />
  <path d="M 1044.39 1000.61 L 1047.30 999.25 L 1050.15 997.81 L 1052.98 996.35 L 1055.82 994.93 L 1058.66 993.54 L 1061.47 992.14 L 1064.26 990.70 L 1066.99 989.20 L 1069.73 987.72 L 1072.44 986.22 L 1075.09 984.64 L 1077.78 983.16 L 1080.45 981.67 L 1083.12 980.19 L 1085.76 978.70 L 1088.37 977.18 L 1090.99 975.69 L 1093.62 974.25 L 1096.22 972.78 L 1098.82 971.35 L 1101.48 970.04 L 1104.11 968.70 L 1106.70 967.30 L 1109.28 965.92 L 1111.89 964.62 L 1114.47 963.29 L 1117.00 961.89 L 1119.50 960.46 L 1122.00 959.05 L 1124.54 957.74 L 1127.03 956.35 L 1129.51 954.98 L 1131.94 953.55 L 1134.39 952.16 L 1136.85 950.83 L 1139.28 949.46 L 1141.74 948.17 L 1144.19 946.87 L 1146.60 945.55 L 1148.95 944.11 L 1151.31 942.75 L 1153.63 941.31 L 1155.95 939.91 L 1158.28 938.54 L 1160.63 937.22 L 1162.98 935.94 L 1165.31 934.64 L 1167.62 933.32 L 1169.87 931.92 L 1172.09 930.49 L 1174.31 929.10 L 1176.56 927.75 L 1178.78 926.39 L 1181.02 925.08 L 1183.28 923.83 L 1185.52 922.55 L 1187.76 921.30 L 1189.97 920.02 L 1192.19 918.78 L 1194.42 917.59 L 1196.64 916.37 L 1198.83 915.15 L 1200.99 913.88 L 1203.13 912.59 L 1205.20 911.23 L 1207.28 909.88 L 1209.27 908.44 L 1211.30 907.05 L 1213.30 905.64 L 1215.30 904.26" stroke="rgb(140,255,190)" stroke-opacity="0.720" stroke-width="1.14" />
  <path d="M 997.54 997.78 L 999.97 997.80 L 1002.38 997.87 L 1004.78 997.92 L 1007.18 997.79 L 1009.55 997.55 L 1011.91 997.28 L 1014.24 996.90 L 1016.57 996.53 L 1018.90 996.24 L 1021.23 996.00 L 1023.55 995.79 L 1025.86 995.58 L 1028.14 995.25 L 1030.41 994.85 L 1032.68 994.53 L 1034.94 994.25 L 1037.19 993.94 L 1039.44 993.65 L 1041.67 993.32 L 1043.90 993.03 L 1046.10 992.63 L 1048.30 992.26 L 1050.47 991.80 L 1052.65 991.47 L 1054.83 991.11 L 1056.98 990.73 L 1059.14 990.38 L 1061.27 989.96 L 1063.40 989.53 L 1065.52 989.12" stroke="rgb(140,255,190)" stroke-opacity="0.539" stroke-width="1.14" />
  <path d="M 998.68 998.94 L 1001.81 998.89 L 1004.94 998.89 L 1008.05 998.94 L 1011.15 999.03 L 1014.23 999.07 L 1017.31 999.12 L 1020.37 999.21 L 1023.42 999.38 L 1026.45 999.54 L 1029.47 999.72 L 1032.48 999.90 L 1035.48 1000.04 L 1038.46 1000.22 L 1041.43 1000.37 L 1044.39 1000.61 L 1047.34 1000.80 L 1050.27 1001.04 L 1053.19 1001.32 L 1056.09 1001.60 L 1058.98 1001.93 L 1061.86 1002.23 L 1064.72 1002.58 L 1067.56 1002.99 L 1070.39 1003.43 L 1073.20 1003.93 L 1076.00 1004.38 L 1078.79 1004.82 L 1081.56 1005.35 L 1084.32 1005.83 L 1087.08 1006.24 L 1089.83 1006.70 L 1092.55 1007.20 L 1095.25 1007.77 L 1097.93 1008.38 L 1100.60 1008.96 L 1103.24 1009.64 L 1105.86 1010.37" stroke="rgb(140,255,190)" stroke-opacity="0.718" stroke-width="1.14" />
  <path d="M 1065.37 1009.76 L 1068.55 1009.16 L 1071.71 1008.54 L 1074.86 1007.89 L 1078.01 1007.33 L 1081.13 1006.69 L 1084.25 1006.09 L 1087.37 1005.61 L 1090.50 1005.25 L 1093.62 1004.89 L 1096.72 1004.54 L 1099.83 1004.36" stroke="rgb(140,255,190)" stroke-opacity="0.717" stroke-width="1.14" />
  <path d="M 1036.38 1018.26 L 1039.42 1018.65 L 1042.46 1019.05 L 1045.47 1019.51 L 1048.48 1019.90 L 1051.49 1020.18 L 1054.49 1020.48 L 1057.47 1020.82 L 1060.43 1021.24 L 1063.38 1021.62 L 1066.33 1021.92 L 1069.26 1022.26 L 1072.18 1022.64 L 1075.06 1023.17 L 1077.92 1023.75 L 1080.75 1024.38 L 1083.60 1024.87 L 1086.46 1025.24 L 1089.31 1025.54 L 1092.15 1025.88 L 1094.99 1026.17 L 1097.81 1026.41 L 1100.63 1026.64 L 1103.43 1026.87 L 1106.23 1027.07 L 1109.01 1027.29 L 1111.78 1027.44 L 1114.55 1027.62 L 1117.29 1027.85 L 1120.02 1028.16 L 1122.74 1028.46 L 1125.46 1028.66 L 1128.17 1028.82 L 1130.86 1029.02 L 1133.55 1029.11 L 1136.24 1029.16 L 1138.91 1029.17 L 1141.57 1029.21 L 1144.21 1029.20 L 1146.85 1029.24 L 1149.48 1029.27 L 1152.10 1029.22 L 1154.70 1029.18 L 1157.30 1029.08 L 1159.88 1028.96 L 1162.45 1028.76 L 1165.00 1028.47 L 1167.54 1028.22 L 1170.07 1027.91 L 1172.59 1027.63 L 1175.10 1027.35 L 1177.60 1027.08 L 1180.08 1026.78 L 1182.57 1026.53 L 1185.04 1026.30 L 1187.50 1026.07 L 1189.96 1025.83 L 1192.40 1025.61 L 1194.84 1025.44 L 1197.27 1025.29 L 1199.69 1025.09" stroke="rgb(140,255,190)" stroke-opacity="0.537" stroke-width="1.13" />
  <path d="M 1053.19 1001.32 L 1055.34 999.97 L 1057.41 998.52 L 1059.42 997.00 L 1061.45 995.53 L 1063.50 994.10 L 1065.53 992.66 L 1067.51 991.16 L 1069.46 989.65 L 1071.45 988.21 L 1073.42 986.76 L 1075.39 985.32 L 1077.35 983.89 L 1079.19 982.31 L 1080.98 980.69 L 1082.69 979.01 L 1084.33 977.27 L 1085.96 975.54 L 1087.58 973.81 L 1089.21 972.10 L 1090.92 970.48 L 1092.58 968.83" stroke="rgb(140,255,190)" stroke-opacity="0.535" stroke-width="1.13" />
  <path d="M 1074.38 996.90 L 1077.18 998.17 L 1080.01 999.34 L 1082.86 1000.43 L 1085.72 1001.46 L 1088.53 1002.57 L 1091.32 1003.71 L 1094.13 1004.79 L 1096.94 1005.81 L 1099.74 1006.81" stroke="rgb(140,255,190)" stroke-opacity="0.533" stroke-width="1.12" />
  <path d="M 999.30 997.56 L 1002.13 998.58 L 1004.95 999.56 L 1007.72 1000.68 L 1010.47 1001.80 L 1013.22 1002.89 L 1015.97 1003.94 L 1018.70 1005.01 L 1021.40 1006.13 L 1024.11 1007.18 L 1026.81 1008.25 L 1029.44 1009.42 L 1032.05 1010.63 L 1034.63 1011.87 L 1037.22 1013.06 L 1039.81 1014.23 L 1042.38 1015.42 L 1044.98 1016.51 L 1047.59 1017.54 L 1050.15 1018.67 L 1052.68 1019.83 L 1055.20 1020.98 L 1057.70 1022.17" stroke="rgb(140,255,190)" stroke-opacity="0.532" stroke-width="1.12" />
  <path d="M 998.68 1000.26 L 1001.21 1000.36 L 1003.72 1000.42 L 1006.22 1000.47 L 1008.72 1000.59 L 1011.20 1000.52 L 1013.67 1000.43 L 1016.13 1000.25 L 1018.58 1000.02" stroke="rgb(140,255,190)" stroke-opacity="0.532" stroke-width="1.12" />
  <path d="M 1187.50 1026.07 L 1190.30 1027.37 L 1193.17 1028.45 L 1196.02 1029.56 L 1198.86 1030.65 L 1201.71 1031.69 L 1204.57 1032.66 L 1207.39 1033.70 L 1210.21 1034.73" stroke="rgb(140,255,190)" stroke-opacity="0.532" stroke-width="1.12" />
  <path d="M 1003.60 1000.90 L 1006.18 1001.36 L 1008.74 1001.85 L 1011.31 1002.28 L 1013.86 1002.74 L 1016.39 1003.25 L 1018.90 1003.76 L 1021.42 1004.21 L 1023.95 1004.51 L 1026.48 1004.76 L 1029.00 1004.95 L 1031.51 1005.11 L 1034.01 1005.33 L 1036.49 1005.59 L 1038.97 1005.79 L 1041.45 1005.94 L 1043.90 1006.24 L 1046.34 1006.49 L 1048.77 1006.81 L 1051.19 1007.13 L 1053.59 1007.46 L 1055.98 1007.84 L 1058.34 1008.35 L 1060.69 1008.80 L 1063.03 1009.28 L 1065.37 1009.76 L 1067.68 1010.28 L 1069.96 1010.88 L 1072.20 1011.60 L 1074.47 1012.20 L 1076.69 1012.90 L 1078.89 1013.66 L 1081.09 1014.38 L 1083.29 1015.07 L 1085.51 1015.64" stroke="rgb(140,255,190)" stroke-opacity="0.531" stroke-width="1.12" />
  <path d="M 1001.38 998.99 L 1004.11 998.53 L 1006.84 998.25 L 1009.57 997.99 L 1012.29 997.70 L 1015.00 997.46 L 1017.69 997.19 L 1020.37 996.83 L 1023.03 996.45 L 1025.67 996.06 L 1028.30 995.59 L 1030.92 995.18 L 1033.54 994.80 L 1036.15 994.45 L 1038.75 994.17 L 1041.36 993.93 L 1043.95 993.77 L 1046.54 993.61" stroke="rgb(205,165,255)" stroke-opacity="0.470" stroke-width="1.11" />
  <path d="M 1002.06 999.40 L 1004.37 1000.77 L 1006.70 1002.08 L 1009.03 1003.37 L 1011.39 1004.59 L 1013.73 1005.81 L 1016.07 1007.01 L 1018.38 1008.26 L 1020.67 1009.51 L 1022.94 1010.78 L 1025.22 1012.00 L 1027.51 1013.20 L 1029.78 1014.40 L 1032.01 1015.66 L 1034.21 1016.94 L 1036.38 1018.26 L 1038.54 1019.58 L 1040.71 1020.85 L 1042.87 1022.12 L 1045.00 1023.43 L 1047.10 1024.77 L 1049.19 1026.10 L 1051.20 1027.53 L 1053.20 1028.96" stroke="rgb(140,255,190)" stroke-opacity="0.530" stroke-width="1.11" />
  <path d="M 1127.88 949.40 L 1129.74 947.06 L 1131.56 944.71 L 1133.35 942.35 L 1135.11 939.99 L 1136.81 937.59 L 1138.45 935.16 L 1140.01 932.70 L 1141.61 930.28 L 1143.23 927.88 L 1144.83 925.49 L 1146.46 923.13 L 1147.92 920.67 L 1149.35 918.21 L 1150.79 915.77 L 1152.24 913.35 L 1153.66 910.92 L 1155.05 908.49 L 1156.39 906.04" stroke="rgb(140,255,190)" stroke-opacity="0.529" stroke-width="1.11" />
  <path d="M 1106.23 1027.07 L 1109.13 1026.44 L 1112.04 1025.91 L 1114.95 1025.46 L 1117.85 1024.97 L 1120.73 1024.49 L 1123.62 1024.15 L 1126.51 1023.95 L 1129.39 1023.72 L 1132.27 1023.62 L 1135.13 1023.59 L 1137.99 1023.52 L 1140.83 1023.51 L 1143.66 1023.47 L 1146.48 1023.39 L 1149.29 1023.26 L 1152.08 1023.22 L 1154.87 1023.31 L 1157.64 1023.42 L 1160.40 1023.55 L 1163.15 1023.55 L 1165.90 1023.56 L 1168.63 1023.49 L 1171.34 1023.35 L 1174.05 1023.21 L 1176.74 1023.10 L 1179.43 1023.00 L 1182.11 1023.04 L 1184.77 1022.99 L 1187.43 1022.93 L 1190.07 1022.92 L 1192.71 1022.97 L 1195.33 1023.04 L 1197.94 1023.19 L 1200.54 1023.27 L 1203.13 1023.29 L 1205.71 1023.34 L 1208.28 1023.42 L 1210.84 1023.51 L 1213.39 1023.62 L 1215.93 1023.78 L 1218.46 1023.86 L 1220.98 1023.91 L 1223.48 1024.06 L 1225.98 1024.18 L 1228.47 1024.31 L 1230.95 1024.41 L 1233.41 1024.59 L 1235.87 1024.74 L 1238.31 1024.91 L 1240.74 1025.16 L 1243.16 1025.36 L 1245.58 1025.58 L 1247.98 1025.81 L 1250.37 1025.95 L 1252.76 1026.12 L 1255.14 1026.19 L 1257.52 1026.17 L 1259.88 1026.23 L 1262.23 1026.43 L 1264.57 1026.58 L 1266.90 1026.68 L 1269.22 1026.77 L 1271.54 1026.74 L 1273.84 1026.59 L 1276.13 1026.34 L 1278.39 1026.00 L 1280.63 1025.57 L 1282.86 1025.14 L 1285.08 1024.68 L 1287.29 1024.24 L 1289.50 1023.85 L 1291.71 1023.52 L 1293.92 1023.29 L 1296.12 1022.97 L 1298.30 1022.64 L 1300.48 1022.35 L 1302.66 1022.15 L 1304.84 1021.97 L 1307.01 1021.87 L 1309.17 1021.74 L 1311.32 1021.75 L 1313.47 1021.79 L 1315.61 1021.79 L 1317.74 1021.81 L 1319.86 1021.74 L 1321.97 1021.67 L 1324.08 1021.63 L 1326.17 1021.62 L 1328.26 1021.59 L 1330.34 1021.54" stroke="rgb(140,255,190)" stroke-opacity="0.528" stroke-width="1.10" />
  <path d="M 1001.95 1000.59 L 1004.55 1000.12 L 1007.12 999.55 L 1009.69 999.00 L 1012.23 998.44 L 1014.79 997.95 L 1017.34 997.50 L 1019.90 997.18 L 1022.44 996.81 L 1024.96 996.38 L 1027.49 996.03 L 1029.99 995.64 L 1032.47 995.15 L 1034.95 994.69 L 1037.39 994.13 L 1039.83 993.60 L 1042.28 993.13 L 1044.70 992.61 L 1047.11 992.08" stroke="rgb(205,165,255)" stroke-opacity="0.467" stroke-width="1.10" />
  <path d="M 1056.07 1012.68 L 1058.67 1011.95 L 1061.25 1011.21 L 1063.81 1010.41 L 1066.34 1009.58 L 1068.89 1008.85 L 1071.44 1008.16 L 1074.00 1007.53 L 1076.53 1006.84 L 1079.03 1006.07 L 1081.49 1005.22 L 1083.94 1004.39 L 1086.40 1003.59 L 1088.82 1002.73 L 1091.25 1001.93 L 1093.71 1001.24 L 1096.16 1000.59 L 1098.59 999.87 L 1101.03 999.26 L 1103.48 998.71 L 1105.91 998.12 L 1108.33 997.56 L 1110.74 996.95 L 1113.10 996.24" stroke="rgb(140,255,190)" stroke-opacity="0.527" stroke-width="1.10" />
  <path d="M 0.10 879.93 L 2.89 880.48 L 6.29 881.10 L 8.97 880.93 L 11.99 881.28 L 14.89 882.03 L 17.78 882.26 L 20.83 882.30 L 23.87 883.22 L 26.77 883.09 L 29.75 883.88 L 33.04 883.90 L 35.55 884.09 L 38.32 884.67 L 41.92 885.08 L 44.97 885.58 L 47.73 885.88 L 50.87 886.14 L 53.37 886.28 L 56.32 886.83 L 59.95 887.30 L 62.83 887.20 L 65.17 887.78 L 68.55 888.37 L 71.52 888.50 L 74.44 888.97 L 77.54 889.27 L 80.43 889.46 L 83.12 889.71 L 86.38 890.69 L 89.74 890.79 L 92.28 891.24 L 95.13 891.55 L 98.09 891.51 L 101.39 891.84 L 103.90 892.33 L 107.15 892.84 L 110.36 893.50 L 113.31 893.78 L 116.27 894.12 L 119.34 894.50 L 122.37 894.45 L 125.00 894.88 L 128.13 895.36 L 131.30 896.09 L 133.67 895.75 L 136.77 896.45 L 140.00 896.83 L 142.59 897.49 L 146.07 897.49 L 148.99 897.67 L 152.09 898.51 L 154.93 898.53 L 157.92 898.78 L 160.60 899.00 L 163.79 899.94 L 167.04 899.91 L 169.81 900.13 L 173.00 900.52 L 175.56 901.35 L 178.67 901.72 L 181.73 901.50 L 184.94 902.17 L 187.73 902.85 L 190.45 902.96 L 193.64 903.17 L 196.45 903.47 L 199.89 904.07 L 202.35 904.59 L 205.74 905.07 L 208.78 905.43 L 211.66 905.60 L 214.53 906.02 L 217.52 906.27 L 220.57 906.54 L 223.36 906.88 L 226.41 907.03 L 229.14 907.65 L 232.42 907.87 L 235.26 908.41 L 238.63 909.27 L 241.37 908.82 L 244.26 909.29 L 247.49 909.53 L 250.19 910.13 L 252.93 910.17 L 256.18 910.64 L 259.20 911.10 L 262.08 911.33 L 265.43 911.56 L 268.34 912.13 L 270.89 912.90 L 274.01 912.94 L 277.50 913.66 L 279.84 913.54 L 282.98 914.15 L 285.70 914.10 L 288.64 915.02 L 291.74 915.10 L 294.84 915.30 L 297.97 915.47 L 300.76 916.08 L 303.58 916.61 L 306.85 916.88 L 309.42 917.55 L 312.75 917.33 L 315.70 918.02 L 318.95 918.62 L 321.61 918.94 L 324.96 918.86 L 327.73 919.26 L 330.68 919.75 L 334.08 919.66 L 336.68 920.54 L 339.38 920.55 L 342.23 920.92 L 345.58 921.40 L 348.68 921.72 L 351.69 922.16 L 354.45 922.81 L 357.43 922.83 L 360.72 923.21 L 363.37 923.48 L 365.93 924.15 L 369.36 924.35 L 372.74 924.65 L 375.33 925.12 L 378.39 925.43 L 381.30 925.88 L 384.39 926.22 L 387.26 926.67 L 390.28 927.02 L 393.37 927.16 L 396.31 927.69 L 398.94 928.20 L 402.43 928.22 L 405.05 928.83 L 408.09 928.71 L 411.35 929.24 L 413.88 929.75 L 416.98 930.09 L 420.04 930.40 L 422.94 930.70 L 425.96 931.23 L 428.72 931.67 L 432.04 931.84 L 435.30 932.22 L 437.74 932.53 L 440.77 932.98 L 443.75 933.07 L 447.01 933.29 L 450.03 933.84 L 452.77 934.11 L 455.52 934.56 L 458.93 935.55 L 461.83 935.72 L 464.66 935.70 L 467.78 936.08 L 470.36 936.51 L 473.90 936.91 L 476.20 936.71 L 479.76 937.56 L 482.52 938.05 L 485.25 938.32 L 488.06 938.27 L 491.62 938.91 L 494.65 939.79 L 497.61 939.94 L 500.24 940.11 L 503.42 940.99 L 506.32 940.45 L 509.32 941.22 L 512.56 941.37 L 515.25 941.75 L 518.54 941.62 L 521.11 942.53 L 524.09 943.03 L 527.17 943.86 L 530.22 943.63 L 533.25 943.86 L 536.19 944.25 L 539.46 944.59 L 542.03 944.77 L 545.21 945.38 L 547.87 945.63 L 550.86 946.44 L 553.90 946.58 L 557.14 947.01 L 559.79 946.92 L 562.85 948.10 L 566.00 947.75 L 569.22 948.21 L 571.75 948.93 L 575.10 948.73 L 577.93 948.86 L 581.04 949.55 L 583.92 949.81 L 586.43 950.62 L 589.65 950.88 L 592.83 951.09 L 595.35 951.36 L 598.71 951.67 L 601.50 952.36 L 604.42 952.56 L 607.29 953.16 L 610.62 953.35 L 613.80 953.71 L 616.89 954.01 L 619.37 954.06 L 622.43 954.26 L 625.23 955.49 L 628.50 955.46 L 631.39 955.74 L 634.95 956.56 L 637.84 956.48 L 640.62 956.69 L 643.08 957.35 L 646.45 957.04 L 649.29 958.27 L 651.94 958.10 L 655.44 958.71 L 658.54 959.09 L 661.30 959.37 L 664.18 959.52 L 667.37 960.17 L 670.25 960.71 L 673.47 961.20 L 676.40 961.54 L 679.17 961.48 L 681.92 962.08 L 685.18 961.91 L 687.94 962.39 L 691.39 963.00 L 693.75 963.05 L 697.04 963.76 L 699.80 964.34 L 702.95 964.68 L 705.73 964.44 L 709.04 965.25 L 711.88 965.35 L 714.39 966.00 L 717.54 966.14 L 720.89 966.58 L 723.58 966.87 L 727.05 967.00 L 729.78 967.27 L 732.34 968.04 L 735.54 967.96 L 738.70 968.56 L 741.79 969.06 L 744.86 969.57 L 747.43 969.63 L 750.39 970.10 L 753.79 970.48 L 756.78 970.86 L 759.54 971.28 L 762.52 971.43 L 765.39 971.78 L 768.67 972.15 L 771.55 972.64 L 774.79 973.06 L 777.81 973.09 L 780.36 973.41 L 783.34 973.97 L 786.17 974.52 L 789.30 974.77 L 792.36 975.09 L 795.02 975.35 L 798.19 975.69 L 801.07 975.62 L 804.52 976.54 L 807.36 976.80 L 810.07 977.45 L 813.16 977.55 L 816.01 977.96 L 819.22 978.39 L 821.78 978.74 L 825.22 978.99 L 827.95 979.28 L 830.93 979.43 L 834.38 980.07 L 837.01 980.17 L 840.27 981.06 L 843.03 981.08 L 846.07 981.49 L 849.04 982.02 L 851.90 982.38 L 854.59 982.47 L 857.75 983.03 L 860.87 983.14 L 863.46 983.82 L 866.79 984.15 L 869.62 984.19 L 872.88 984.57 L 875.78 985.01 L 878.67 985.40 L 881.36 985.65 L 884.43 986.27 L 887.68 986.63 L 890.55 986.79 L 893.52 987.12 L 896.74 987.77 L 899.74 988.17 L 902.76 988.32 L 905.65 988.41 L 908.46 989.03 L 911.43 989.37 L 914.61 989.45 L 917.74 990.14 L 920.23 990.05 L 923.35 990.98 L 926.38 991.35 L 929.07 991.63 L 932.42 992.33 L 935.64 992.25 L 938.15 992.84 L 941.36 992.78 L 944.12 993.24 L 946.99 993.51 L 950.65 993.92 L 953.37 994.22 L 956.00 994.97 L 958.93 995.22 L 961.97 995.27 L 964.98 995.47 L 968.20 996.47 L 971.62 996.28 L 974.69 996.74 L 976.93 996.69 L 979.85 997.64 L 982.90 997.90 L 985.91 998.09 L 988.77 998.78 L 991.92 999.11 L 994.83 999.19 L 998.07 999.98 L 1000.00 1000.00 L 1002.98 1000.37 L 1005.95 1000.75 L 1008.93 1001.15 L 1011.90 1001.57 L 1014.87 1002.00 L 1017.84 1002.43 L 1020.81 1002.84 L 1023.78 1003.24 L 1026.75 1003.64 L 1029.73 1004.04 L 1032.70 1004.46 L 1035.67 1004.86 L 1038.65 1005.23 L 1041.63 1005.57 L 1044.61 1005.91 L 1047.59 1006.22 L 1050.58 1006.53 L 1053.56 1006.82 L 1056.55 1007.13 L 1059.53 1007.41 L 1062.52 1007.72 L 1065.50 1008.03 L 1068.49 1008.30 L 1071.48 1008.56 L 1074.47 1008.83 L 1077.45 1009.13 L 1080.44 1009.41 L 1083.42 1009.70 L 1086.41 1009.98 L 1089.40 1010.27 L 1092.39 1010.52 L 1095.37 1010.78 L 1098.36 1011.04 L 1101.35 1011.30 L 1104.34 1011.53 L 1107.33 1011.78 L 1110.32 1012.01 L 1113.32 1012.24 L 1116.31 1012.47 L 1119.30 1012.69 L 1122.29 1012.93 L 1125.28 1013.17 L 1128.27 1013.41 L 1131.26 1013.66 L 1134.25 1013.90 L 1137.24 1014.14 L 1140.23 1014.38 L 1143.22 1014.64 L 1146.21 1014.90 L 1149.20 1015.15 L 1152.19 1015.40 L 1155.17 1015.70 L 1158.15 1016.02 L 1161.14 1016.36 L 1164.11 1016.71 L 1167.10 1017.03 L 1170.08 1017.35 L 1173.06 1017.68 L 1176.05 1017.99 L 1179.03 1018.31 L 1182.01 1018.62 L 1185.00 1018.91 L 1187.99 1019.19 L 1190.97 1019.48 L 1193.96 1019.77 L 1196.94 1020.07 L 1199.93 1020.38 L 1202.91 1020.71 L 1205.89 1021.01 L 1208.88 1021.30 L 1211.86 1021.61 L 1214.85 1021.90 L 1217.84 1022.18 L 1220.82 1022.50 L 1223.80 1022.82 L 1226.79 1023.13 L 1229.77 1023.46 L 1232.75 1023.78 L 1235.73 1024.10 L 1238.72 1024.40 L 1241.70 1024.69 L 1244.69 1024.98 L 1247.68 1025.27 L 1250.66 1025.59 L 1253.64 1025.92 L 1256.62 1026.25 L 1259.60 1026.59 L 1262.59 1026.92 L 1265.57 1027.22 L 1268.55 1027.54 L 1271.54 1027.83 L 1274.53 1028.12 L 1277.51 1028.38 L 1280.50 1028.65 L 1283.49 1028.88 L 1286.48 1029.12 L 1289.47 1029.37 L 1292.46 1029.62 L 1295.45 1029.91 L 1298.43 1030.19 L 1301.42 1030.46 L 1304.41 1030.72 L 1307.40 1030.97 L 1310.39 1031.24 L 1313.37 1031.53 L 1316.36 1031.82 L 1319.35 1032.11 L 1322.33 1032.45 L 1325.31 1032.76 L 1328.30 1033.05 L 1331.28 1033.35 L 1334.27 1033.65 L 1337.25 1033.96 L 1340.24 1034.27 L 1343.22 1034.57 L 1346.21 1034.85 L 1349.19 1035.12 L 1352.18 1035.40 L 1355.17 1035.68 L 1358.16 1035.95 L 1361.14 1036.23 L 1364.13 1036.54 L 1367.11 1036.86 L 1370.09 1037.22 L 1373.07 1037.58 L 1376.04 1037.95 L 1379.02 1038.33 L 1382.00 1038.69 L 1384.98 1039.05 L 1387.95 1039.44 L 1390.92 1039.86 L 1393.89 1040.31 L 1396.85 1040.76 L 1399.82 1041.19 L 1402.79 1041.63 L 1405.76 1042.05 L 1408.73 1042.49 L 1411.69 1042.94 L 1414.65 1043.43 L 1417.62 1043.88 L 1420.58 1044.35 L 1423.54 1044.84 L 1426.50 1045.35 L 1429.45 1045.87 L 1432.41 1046.40 L 1435.36 1046.95 L 1438.31 1047.45 L 1441.27 1047.97 L 1444.23 1048.46 L 1447.18 1048.98 L 1450.13 1049.53 L 1453.09 1050.06 L 1456.04 1050.59 L 1458.99 1051.12 L 1461.94 1051.65 L 1464.90 1052.17 L 1467.85 1052.70 L 1470.80 1053.25 L 1473.75 1053.81 L 1476.70 1054.34 L 1479.65 1054.88 L 1482.61 1055.38 L 1485.57 1055.89 L 1488.52 1056.39 L 1491.48 1056.91 L 1494.43 1057.44 L 1497.38 1057.98 L 1500.34 1058.49 L 1503.29 1059.00 L 1506.25 1059.52 L 1509.21 1060.02 L 1512.16 1060.54 L 1515.12 1061.04 L 1518.08 1061.55 L 1521.03 1062.05 L 1523.99 1062.53 L 1526.96 1063.02 L 1529.92 1063.48 L 1532.88 1063.94 L 1535.85 1064.39 L 1538.82 1064.83 L 1541.79 1065.27 L 1544.76 1065.69 L 1547.72 1066.14 L 1550.69 1066.58 L 1553.66 1067.02 L 1556.62 1067.49 L 1559.59 1067.94 L 1562.55 1068.39 L 1565.52 1068.86 L 1568.48 1069.32 L 1571.44 1069.78 L 1574.41 1070.24 L 1577.37 1070.70 L 1580.34 1071.15 L 1583.31 1071.59 L 1586.27 1072.03 L 1589.24 1072.46 L 1592.21 1072.90 L 1595.18 1073.33 L 1598.15 1073.76 L 1601.11 1074.22 L 1604.08 1074.66 L 1607.05 1075.12 L 1610.01 1075.57 L 1612.98 1076.00 L 1615.94 1076.47 L 1618.91 1076.95 L 1621.87 1077.41 L 1624.83 1077.91 L 1627.79 1078.38 L 1630.76 1078.83 L 1633.73 1079.26 L 1636.70 1079.67 L 1639.67 1080.08 L 1642.64 1080.49 L 1645.61 1080.89 L 1648.59 1081.28 L 1651.56 1081.67 L 1654.54 1082.08 L 1657.51 1082.48 L 1660.48 1082.88 L 1663.46 1083.27 L 1666.43 1083.66 L 1669.40 1084.06 L 1672.38 1084.47 L 1675.35 1084.89 L 1678.32 1085.32 L 1681.28 1085.76 L 1684.25 1086.17 L 1687.22 1086.60 L 1690.20 1087.00 L 1693.17 1087.37 L 1696.15 1087.72 L 1699.13 1088.07 L 1702.11 1088.44 L 1705.09 1088.81 L 1708.07 1089.17 L 1711.05 1089.51 L 1714.03 1089.86 L 1717.00 1090.22 L 1719.98 1090.59 L 1722.96 1090.94 L 1725.94 1091.29 L 1728.92 1091.61 L 1731.90 1091.94 L 1734.89 1092.28 L 1737.86 1092.63 L 1740.85 1092.97 L 1743.83 1093.30 L 1746.81 1093.65 L 1749.79 1094.01 L 1752.76 1094.39 L 1755.73 1094.80 L 1758.71 1095.21 L 1761.68 1095.63 L 1764.64 1096.07 L 1767.61 1096.53 L 1770.57 1096.98 L 1773.54 1097.42 L 1776.51 1097.88 L 1779.47 1098.36 L 1782.43 1098.84 L 1785.39 1099.30 L 1788.36 1099.74 L 1791.33 1100.19 L 1794.29 1100.63 L 1797.26 1101.08 L 1800.23 1101.53 L 1803.19 1101.98 L 1806.16 1102.41 L 1809.13 1102.81 L 1812.10 1103.23 L 1815.08 1103.62 L 1818.05 1104.01 L 1821.03 1104.42 L 1824.00 1104.84 L 1826.97 1105.25 L 1829.94 1105.68 L 1832.91 1106.11 L 1835.87 1106.56 L 1838.84 1106.98 L 1841.81 1107.41 L 1844.78 1107.85 L 1847.74 1108.31 L 1850.71 1108.76 L 1853.68 1109.21 L 1856.64 1109.66 L 1859.61 1110.10 L 1862.58 1110.54 L 1865.55 1110.96 L 1868.52 1111.33 L 1871.50 1111.74 L 1874.47 1112.15 L 1877.44 1112.53 L 1880.42 1112.90 L 1883.40 1113.28 L 1886.37 1113.67 L 1889.35 1114.06 L 1892.32 1114.46 L 1895.29 1114.87 L 1898.26 1115.27 L 1901.24 1115.64 L 1904.22 1116.03 L 1907.19 1116.42 L 1910.16 1116.83 L 1913.13 1117.24 L 1916.11 1117.63 L 1919.08 1118.04 L 1922.06 1118.43 L 1925.03 1118.84 L 1928.00 1119.25 L 1930.97 1119.68 L 1933.94 1120.10 L 1936.91 1120.50 L 1939.88 1120.91 L 1942.85 1121.35 L 1945.82 1121.80 L 1948.79 1122.24 L 1951.76 1122.66 L 1954.73 1123.08 L 1957.70 1123.49 L 1960.67 1123.91 L 1963.64 1124.34 L 1966.61 1124.77 L 1969.58 1125.19 L 1972.54 1125.63 L 1975.51 1126.05 L 1978.48 1126.48 L 1981.45 1126.91 L 1984.42 1127.32 L 1987.40 1127.72 L 1990.37 1128.14 L 1993.34 1128.56 L 1996.31 1128.98 L 1999.28 1129.40 L 2002.25 1129.81 L 2005.23 1130.20 L 2008.20 1130.61 L 2011.17 1130.99 L 2014.15 1131.39 L 2017.12 1131.79 L 2020.09 1132.21" stroke="rgb(245,245,245)" stroke-opacity="0.702" stroke-width="1.10" />
  <path d="M 1000.01 999.48 L 1002.92 999.76 L 1005.83 1000.00 L 1008.73 1000.21 L 1011.62 1000.42 L 1014.49 1000.59 L 1017.37 1000.62 L 1020.22 1000.67 L 1023.07 1000.69 L 1025.91 1000.71 L 1028.74 1000.68 L 1031.55 1000.70 L 1034.35 1000.73 L 1037.14 1000.79 L 1039.92 1000.89 L 1042.69 1000.95 L 1045.45 1001.02 L 1048.19 1001.12 L 1050.93 1001.15 L 1053.66 1001.17 L 1056.37 1001.22 L 1059.07 1001.33 L 1061.76 1001.41 L 1064.44 1001.39 L 1067.12 1001.40 L 1069.78 1001.39 L 1072.43 1001.39 L 1075.07 1001.35 L 1077.69 1001.28 L 1080.31 1001.31 L 1082.92 1001.37 L 1085.52 1001.39 L 1088.10 1001.40 L 1090.67 1001.57 L 1093.24 1001.70 L 1095.79 1001.89 L 1098.32 1002.13 L 1100.85 1002.32 L 1103.37 1002.40 L 1105.89 1002.49 L 1108.39 1002.48 L 1110.89 1002.46 L 1113.37 1002.38 L 1115.84 1002.25 L 1118.30 1002.02 L 1120.75 1001.81 L 1123.19 1001.66 L 1125.62 1001.48 L 1128.03 1001.20 L 1130.44 1001.00 L 1132.83 1000.80 L 1135.23 1000.72" stroke="rgb(140,255,190)" stroke-opacity="0.526" stroke-width="1.10" />
  <path d="M 1002.57 995.99 L 1005.16 996.30 L 1007.75 996.55 L 1010.33 996.71 L 1012.90 996.81 L 1015.47 996.94 L 1018.02 997.03 L 1020.56 996.96 L 1023.10 997.00 L 1025.62 997.21 L 1028.12 997.47 L 1030.60 997.83 L 1033.05 998.28 L 1035.50 998.74 L 1037.94 999.12 L 1040.39 999.43 L 1042.83 999.73 L 1045.26 999.97 L 1047.69 1000.12 L 1050.11 1000.35 L 1052.51 1000.61 L 1054.90 1000.92 L 1057.28 1001.20 L 1059.65 1001.45 L 1062.01 1001.77 L 1064.35 1002.14 L 1066.69 1002.43 L 1069.03 1002.64 L 1071.37 1002.72 L 1073.70 1002.76 L 1076.02 1002.76 L 1078.34 1002.76 L 1080.64 1002.84 L 1082.93 1002.84 L 1085.22 1002.77" stroke="rgb(140,255,190)" stroke-opacity="0.526" stroke-width="1.10" />
  <path d="M 1056.09 1001.60 L 1058.71 1002.22 L 1061.31 1002.84 L 1063.89 1003.52 L 1066.42 1004.33 L 1068.93 1005.16 L 1071.47 1005.88 L 1074.02 1006.48 L 1076.55 1007.13 L 1079.10 1007.67 L 1081.66 1008.11 L 1084.20 1008.55 L 1086.71 1009.12 L 1089.18 1009.79 L 1091.68 1010.34 L 1094.15 1010.94 L 1096.60 1011.56 L 1099.02 1012.27 L 1101.43 1012.97 L 1103.87 1013.54 L 1106.31 1014.01 L 1108.75 1014.45 L 1111.16 1015.00 L 1113.58 1015.47 L 1115.98 1015.98 L 1118.38 1016.38 L 1120.79 1016.78 L 1123.18 1017.14 L 1125.53 1017.67 L 1127.85 1018.32 L 1130.16 1018.95 L 1132.46 1019.54 L 1134.77 1020.12 L 1137.07 1020.66 L 1139.34 1021.30 L 1141.59 1021.95 L 1143.85 1022.56 L 1146.10 1023.14 L 1148.34 1023.71 L 1150.55 1024.39 L 1152.74 1025.11 L 1154.93 1025.77 L 1157.09 1026.49 L 1159.23 1027.25 L 1161.37 1027.99 L 1163.52 1028.66 L 1165.60 1029.51 L 1167.70 1030.28 L 1169.81 1030.98 L 1171.94 1031.63 L 1174.00 1032.40 L 1176.05 1033.21" stroke="rgb(140,255,190)" stroke-opacity="0.526" stroke-width="1.10" />
  <path d="M 1162.49 997.83 L 1164.80 996.36 L 1167.09 994.87 L 1169.32 993.30 L 1171.49 991.68 L 1173.63 990.03 L 1175.75 988.38 L 1177.90 986.78 L 1180.05 985.20 L 1182.25 983.70 L 1184.46 982.25" stroke="rgb(140,255,190)" stroke-opacity="0.524" stroke-width="1.09" />
  <path d="M 999.36 998.75 L 1000.49 996.67 L 1001.69 994.64 L 1002.90 992.62 L 1003.95 990.53 L 1005.05 988.47 L 1006.18 986.44 L 1007.26 984.40 L 1008.21 982.30 L 1009.16 980.21 L 1010.05 978.11 L 1010.96 976.02 L 1011.86 973.94 L 1012.66 971.82 L 1013.40 969.70" stroke="rgb(205,165,255)" stroke-opacity="0.454" stroke-width="1.05" />
  <path d="M 1001.38 1002.80 L 1000.78 1001.43 L 1000.25 1000.03 L 999.67 998.66 L 999.10 997.30 L 998.38 996.01 L 997.67 994.72 L 997.01 993.41 L 996.42 992.08 L 995.82 990.75 L 995.24 989.43 L 994.63 988.12 L 993.97 986.85 L 993.32 985.57 L 992.78 984.26" stroke="rgb(230,230,230)" stroke-opacity="0.386" stroke-width="0.71" />
  <path d="M 998.78 997.69 L 997.40 997.11 L 996.02 996.54 L 994.61 996.06 L 993.21 995.56 L 991.77 995.26 L 990.32 995.03 L 988.89 994.71 L 987.53 994.16" stroke="rgb(230,230,230)" stroke-opacity="0.381" stroke-width="0.70" />
  <path d="M 997.82 999.74 L 996.74 998.71 L 995.62 997.71 L 994.56 996.67 L 993.38 995.77 L 992.11 995.02 L 990.98 994.09 L 989.82 993.18 L 988.61 992.37 L 987.35 991.66 L 986.01 991.10 L 984.63 990.70 L 983.25 990.31" stroke="rgb(230,230,230)" stroke-opacity="0.377" stroke-width="0.69" />
  <path d="M 999.69 999.20 L 999.55 1000.70 L 999.37 1002.18 L 998.99 1003.62 L 998.80 1005.09 L 998.64 1006.56 L 998.51 1008.02 L 998.27 1009.46 L 998.10 1010.91 L 997.85 1012.34" stroke="rgb(230,230,230)" stroke-opacity="0.374" stroke-width="0.68" />
  <path d="M 1003.28 997.51 L 1003.40 996.02 L 1003.65 994.54 L 1003.60 993.06 L 1003.36 991.59 L 1003.27 990.12 L 1003.25 988.65 L 1003.32 987.19 L 1003.33 985.73 L 1003.45 984.28 L 1003.65 982.85 L 1003.92 981.43 L 1004.14 980.01 L 1004.54 978.64 L 1005.09 977.33" stroke="rgb(230,230,230)" stroke-opacity="0.374" stroke-width="0.68" />
  <path d="M 1007.89 1000.75 L 1008.04 1002.24 L 1008.12 1003.73 L 1008.44 1005.18 L 1008.78 1006.63 L 1009.13 1008.06 L 1009.33 1009.52 L 1009.42 1010.98" stroke="rgb(230,230,230)" stroke-opacity="0.374" stroke-width="0.68" />
  <path d="M 1003.71 1000.27 L 1002.22 1000.34 L 1000.72 1000.32 L 999.24 1000.24 L 997.75 1000.23 L 996.29 1000.03 L 994.87 999.66 L 993.44 999.36 L 992.00 999.13 L 990.56 998.91 L 989.12 998.79 L 987.68 998.69 L 986.25 998.66 L 984.82 998.59 L 983.40 998.45 L 981.99 998.27 L 980.58 998.23" stroke="rgb(230,230,230)" stroke-opacity="0.372" stroke-width="0.67" />
  <path d="M 1005.06 997.01 L 1006.42 997.65 L 1007.82 998.15 L 1009.05 999.01 L 1010.32 999.76 L 1011.57 1000.54 L 1012.84 1001.29 L 1014.05 1002.11 L 1015.23 1002.97" stroke="rgb(230,230,230)" stroke-opacity="0.371" stroke-width="0.67" />
  <path d="M 999.51 996.85 L 998.98 998.25 L 998.48 999.66 L 997.85 1001.01 L 997.18 1002.33 L 996.52 1003.65 L 995.84 1004.95 L 995.30 1006.31 L 994.59 1007.59 L 993.81 1008.81 L 993.01 1010.02 L 992.17 1011.19 L 991.40 1012.40 L 990.64 1013.61 L 989.79 1014.75" stroke="rgb(230,230,230)" stroke-opacity="0.367" stroke-width="0.66" />
  <path d="M 1001.61 997.87 L 1002.03 996.44 L 1002.48 995.01 L 1002.79 993.55 L 1003.23 992.14 L 1003.82 990.78 L 1004.45 989.46 L 1005.08 988.14 L 1005.86 986.90 L 1006.49 985.59 L 1006.98 984.23 L 1007.38 982.85 L 1007.91 981.51" stroke="rgb(230,230,230)" stroke-opacity="0.367" stroke-width="0.66" />
  <path d="M 1001.60 1001.21 L 1001.48 1002.70 L 1001.44 1004.20 L 1001.44 1005.69 L 1001.48 1007.17 L 1001.45 1008.64 L 1001.52 1010.11 L 1001.64 1011.57 L 1001.81 1013.02" stroke="rgb(230,230,230)" stroke-opacity="0.365" stroke-width="0.65" />
  <path d="M 996.98 1001.96 L 997.22 1000.48 L 997.54 999.03 L 998.13 997.66 L 998.79 996.33 L 999.20 994.92 L 999.63 993.51 L 999.97 992.09 L 1000.35 990.68" stroke="rgb(230,230,230)" stroke-opacity="0.362" stroke-width="0.64" />
  <path d="M 998.71 998.87 L 999.18 1000.30 L 999.53 1001.75 L 999.82 1003.21 L 1000.10 1004.66 L 1000.33 1006.12 L 1000.40 1007.59 L 1000.43 1009.05 L 1000.56 1010.51 L 1000.55 1011.96 L 1000.57 1013.41 L 1000.49 1014.84 L 1000.35 1016.27" stroke="rgb(230,230,230)" stroke-opacity="0.361" stroke-width="0.64" />
  <path d="M 1002.66 1000.11 L 1001.59 999.05 L 1000.65 997.89 L 999.86 996.63 L 999.21 995.30 L 998.74 993.90 L 998.27 992.51 L 997.64 991.19 L 996.94 989.90 L 996.02 988.78 L 994.95 987.80 L 993.65 987.18 L 992.38 986.52" stroke="rgb(230,230,230)" stroke-opacity="0.360" stroke-width="0.64" />
  <path d="M 1000.71 996.65 L 1001.29 995.27 L 1001.72 993.84 L 1002.11 992.40 L 1002.36 990.94 L 1002.71 989.51 L 1003.10 988.09 L 1003.47 986.68 L 1003.90 985.28 L 1004.20 983.86 L 1004.50 982.44 L 1004.66 981.01 L 1004.91 979.60" stroke="rgb(230,230,230)" stroke-opacity="0.357" stroke-width="0.63" />
  <path d="M 996.29 1006.81 L 995.38 1005.62 L 994.54 1004.38 L 993.61 1003.22 L 992.72 1002.03 L 991.78 1000.89" stroke="rgb(230,230,230)" stroke-opacity="0.353" stroke-width="0.62" />
  <path d="M 1001.86 997.55 L 1003.10 998.39 L 1004.36 999.20 L 1005.60 1000.02" stroke="rgb(230,230,230)" stroke-opacity="0.351" stroke-width="0.61" />
  <path d="M 997.87 996.84 L 996.38 997.00 L 994.91 997.28 L 993.47 997.67 L 992.01 997.91 L 990.57 998.23 L 989.16 998.64" stroke="rgb(230,230,230)" stroke-opacity="0.350" stroke-width="0.61" />
</g>
</svg>
