{
  "asset": {
    "version": "2.0",
    "generator": "TES-23 Cosmic Ray Renderer"
  },
  "extensionsUsed": [
    "KHR_materials_unlit"
  ],
  "extensionsRequired": [
    "KHR_materials_unlit"
  ],
  "scene": 0,
  "scenes": [
    {
      "nodes": [
        0
      ]
    }
  ],
  "nodes": [
    {
      "name": "CosmicRayEvent",
      "mesh": 0
    }
  ],
  "meshes": [
    {
      "name": "CosmicRayEvent",
      "primitives": [
        {
          "attributes": {
            "POSITION": 0
          },
          "material": 0,
          "mode": 1
        },
        {
          "attributes": {
            "POSITION": 1
          },
          "material": 1,
          "mode": 1
        },
        {
          "attributes": {
            "POSITION": 2
          },
          "material": 2,
          "mode": 1
        },
        {
          "attributes": {
            "POSITION": 3
          },
          "material": 3,
          "mode": 1
        },
        {
          "attributes": {
            "POSITION": 4
          },
          "material": 4,
          "mode": 1
        }
      ]
    }
  ],
  "materials": [
    {
      "name": "primary",
      "extensions": {
        "KHR_materials_unlit": {}
      },
      "pbrMetallicRoughness": {
        "baseColorFactor": [
          0.961,
          0.961,
          0.961,
          1
        ],
        "metallicFactor": 0,
        "roughnessFactor": 1
      }
    },
    {
      "name": "vertex",
      "extensions": {
        "KHR_materials_unlit": {}
      },
      "pbrMetallicRoughness": {
        "baseColorFactor": [
          0.902,
          0.902,
          0.902,
          0.9
        ],
        "metallicFactor": 0,
        "roughnessFactor": 1
      }
    },
    {
      "name": "em",
      "extensions": {
        "KHR_materials_unlit": {}
      },
      "pbrMetallicRoughness": {
        "baseColorFactor": [
          0.471,
          0.824,
          1,
          1
        ],
        "metallicFactor": 0,
        "roughnessFactor": 1
      }
    },
    {
      "name": "hadron",
      "extensions": {
        "KHR_materials_unlit": {}
      },
      "pbrMetallicRoughness": {
        "baseColorFactor": [
          0.549,
          1,
          0.745,
          1
        ],
        "metallicFactor": 0,
        "roughnessFactor": 1
      }
    },
    {
      "name": "delta",
      "extensions": {
        "KHR_materials_unlit": {}
      },
      "pbrMetallicRoughness": {
        "baseColorFactor": [
          0.804,
          0.647,
          1,
          1
        ],
        "metallicFactor": 0,
        "roughnessFactor": 1
      }
    }
  ],
  "accessors": [
    {
      "bufferView": 0,
      "byteOffset": 0,
      "componentType": 5126,
      "count": 1350,
      "type": "VEC3",
      "min": [
        -0.9998496770858765,
        -0.04915888234972954,
        0
      ],
      "max": [
        1.0216319561004639,
        0.023972162976861,
        0
      ]
    },
    {
      "bufferView": 1,
      "byteOffset": 0,
      "componentType": 5126,
      "count": 332,
      "type": "VEC3",
      "min": [
        -0.010806448757648468,
        -0.025563223287463188,
        -0.08793206512928009
      ],
      "max": [
        0.01820845529437065,
        0.014503185637295246,
        0.10827342420816422
      ]
    },
    {
      "bufferView": 2,
      "byteOffset": 0,
      "componentType": 5126,
      "count": 1560,
      "type": "VEC3",
      "min": [
        -0.0017434642650187016,
        -0.02694111131131649,
        -0.147639200091362
      ],
      "max": [
        0.34828662872314453,
        0.01621652953326702,
        0.04104303941130638
      ]
    },
    {
      "bufferView": 3,
      "byteOffset": 0,
      "componentType": 5126,
      "count": 1784,
      "type": "VEC3",
      "min": [
        -0.07893756777048111,
        -0.05238039791584015,
        -0.5636864304542542
      ],
      "max": [
        0.24193894863128662,
        0.07977233082056046,
        0.16664312779903412
      ]
    },
    {
      "bufferView": 4,
      "byteOffset": 0,
      "componentType": 5126,
      "count": 430,
      "type": "VEC3",
      "min": [
        -0.17206859588623047,
        -0.019839856773614883,
        -0.636854887008667
      ],
      "max": [
        0.12473222613334656,
        0.07398072630167007,
        0.006590717006474733
      ]
    }
  ],
  "bufferViews": [
    {
      "buffer": 0,
      "byteOffset": 0,
      "byteLength": 16200,
      "target": 34962
    },
    {
      "buffer": 0,
      "byteOffset": 16200,
      "byteLength": 3984,
      "target": 34962
    },
    {
      "buffer": 0,
      "byteOffset": 20184,
      "byteLength": 18720,
      "target": 34962
    },
    {
      "buffer": 0,
      "byteOffset": 38904,
      "byteLength": 21408,
      "target": 34962
    },
    {
      "buffer": 0,
      "byteOffset": 60312,
      "byteLength": 5160,
      "target": 34962
    }
  ],
  "buffers": [
    {
      "byteLength": 65472,
      "uri": "data:application/octet-stream;base64,"
    }
  ]
}