{
  "asset": {
    "version": "2.0",
    "generator": "TES-23 Cosmic Ray Renderer"
  },
  "extensionsUsed": [
    "KHR_materials_unlit"
  ],
  "extensionsRequired": [
    "KHR_materials_unlit"
  ],
  "scene": 0,
  "scenes": [
    {
      "nodes": [
        0
      ]
    }
  ],
  "nodes": [
    {
      "name": "CosmicRayEvent",
      "mesh": 0
    }
  ],
  "meshes": [
    {
      "name": "CosmicRayEvent",
      "primitives": [
        {
          "attributes": {
            "POSITION": 0
          },
          "material": 0,
          "mode": 1
        },
        {
          "attributes": {
            "POSITION": 1
          },
          "material": 1,
          "mode": 1
        },
        {
          "attributes": {
            "POSITION": 2
          },
          "material": 2,
          "mode": 1
        },
        {
          "attributes": {
            "POSITION": 3
          },
          "material": 3,
          "mode": 1
        },
        {
          "attributes": {
            "POSITION": 4
          },
          "material": 4,
          "mode": 1
        },
        {
          "attributes": {
            "POSITION": 5
          },
          "material": 5,
          "mode": 1
        }
      ]
    }
  ],
  "materials": [
    {
      "name": "primary",
      "extensions": {
        "KHR_materials_unlit": {}
      },
      "pbrMetallicRoughness": {
        "baseColorFactor": [
          0.961,
          0.961,
          0.961,
          1
        ],
        "metallicFactor": 0,
        "roughnessFactor": 1
      }
    },
    {
      "name": "vertex",
      "extensions": {
        "KHR_materials_unlit": {}
      },
      "pbrMetallicRoughness": {
        "baseColorFactor": [
          0.902,
          0.902,
          0.902,
          0.9
        ],
        "metallicFactor": 0,
        "roughnessFactor": 1
      }
    },
    {
      "name": "em",
      "extensions": {
        "KHR_materials_unlit": {}
      },
      "pbrMetallicRoughness": {
        "baseColorFactor": [
          0.471,
          0.824,
          1,
          1
        ],
        "metallicFactor": 0,
        "roughnessFactor": 1
      }
    },
    {
      "name": "hadron",
      "extensions": {
        "KHR_materials_unlit": {}
      },
      "pbrMetallicRoughness": {
        "baseColorFactor": [
          0.549,
          1,
          0.745,
          1
        ],
        "metallicFactor": 0,
        "roughnessFactor": 1
      }
    },
    {
      "name": "delta",
      "extensions": {
        "KHR_materials_unlit": {}
      },
      "pbrMetallicRoughness": {
        "baseColorFactor": [
          0.804,
          0.647,
          1,
          1
        ],
        "metallicFactor": 0,
        "roughnessFactor": 1
      }
    },
    {
      "name": "backscatter",
      "extensions": {
        "KHR_materials_unlit": {}
      },
      "pbrMetallicRoughness": {
        "baseColorFactor": [
          1,
          0.824,
          0.529,
          0.95
        ],
        "metallicFactor": 0,
        "roughnessFactor": 1
      }
    }
  ],
  "accessors": [
    {
      "bufferView": 0,
      "byteOffset": 0,
      "componentType": 5126,
      "count": 1384,
      "type": "VEC3",
      "min": [
        -0.9999026656150818,
        -0.2312624156475067,
        0
      ],
      "max": [
        1.0209777355194092,
        0.23073245584964752,
        0
      ]
    },
    {
      "bufferView": 1,
      "byteOffset": 0,
      "componentType": 5126,
      "count": 332,
      "type": "VEC3",
      "min": [
        -0.011981326155364513,
        -0.020858386531472206,
        -0.09763285517692566
      ],
      "max": [
        0.009971948340535164,
        0.01887015998363495,
        0.032156478613615036
      ]
    },
    {
      "bufferView": 2,
      "byteOffset": 0,
      "componentType": 5126,
      "count": 1944,
      "type": "VEC3",
      "min": [
        -0.0011208206415176392,
        -0.08071689307689667,
        -0.11447674036026001
      ],
      "max": [
        0.3143098056316376,
        0.0043056136928498745,
        0.15033669769763947
      ]
    },
    {
      "bufferView": 3,
      "byteOffset": 0,
      "componentType": 5126,
      "count": 2354,
      "type": "VEC3",
      "min": [
        -0.0022342235315591097,
        -0.06646395474672318,
        -0.31643959879875183
      ],
      "max": [
        0.2924050986766815,
        0.037555620074272156,
        0.39658448100090027
      ]
    },
    {
      "bufferView": 4,
      "byteOffset": 0,
      "componentType": 5126,
      "count": 742,
      "type": "VEC3",
      "min": [
        -0.0015242591034621,
        -0.045199353247880936,
        -0.7552825212478638
      ],
      "max": [
        0.11127162724733353,
        0.11404045671224594,
        0.38149431347846985
      ]
    },
    {
      "bufferView": 5,
      "byteOffset": 0,
      "componentType": 5126,
      "count": 1408,
      "type": "VEC3",
      "min": [
        -0.24005499482154846,
        -0.16868524253368378,
        -0.5419549345970154
      ],
      "max": [
        0.17703217267990112,
        0.07367710024118423,
        1.7549808025360107
      ]
    }
  ],
  "bufferViews": [
    {
      "buffer": 0,
      "byteOffset": 0,
      "byteLength": 16608,
      "target": 34962
    },
    {
      "buffer": 0,
      "byteOffset": 16608,
      "byteLength": 3984,
      "target": 34962
    },
    {
      "buffer": 0,
      "byteOffset": 20592,
      "byteLength": 23328,
      "target": 34962
    },
    {
      "buffer": 0,
      "byteOffset": 43920,
      "byteLength": 28248,
      "target": 34962
    },
    {
      "buffer": 0,
      "byteOffset": 72168,
      "byteLength": 8904,
      "target": 34962
    },
    {
      "buffer": 0,
      "byteOffset": 81072,
      "byteLength": 16896,
      "target": 34962
    }
  ],
  "buffers": [
    {
      "byteLength": 97968,
      "uri": "data:application/octet-stream;base64,"
    }
  ]
}