{
  "asset": {
    "version": "2.0",
    "generator": "TES-23 Cosmic Ray Renderer"
  },
  "extensionsUsed": [
    "KHR_materials_unlit"
  ],
  "extensionsRequired": [
    "KHR_materials_unlit"
  ],
  "scene": 0,
  "scenes": [
    {
      "nodes": [
        0
      ]
    }
  ],
  "nodes": [
    {
      "name": "CosmicRayEvent",
      "mesh": 0
    }
  ],
  "meshes": [
    {
      "name": "CosmicRayEvent",
      "primitives": [
        {
          "attributes": {
            "POSITION": 0
          },
          "material": 0,
          "mode": 1
        },
        {
          "attributes": {
            "POSITION": 1
          },
          "material": 1,
          "mode": 1
        },
        {
          "attributes": {
            "POSITION": 2
          },
          "material": 2,
          "mode": 1
        },
        {
          "attributes": {
            "POSITION": 3
          },
          "material": 3,
          "mode": 1
        },
        {
          "attributes": {
            "POSITION": 4
          },
          "material": 4,
          "mode": 1
        },
        {
          "attributes": {
            "POSITION": 5
          },
          "material": 5,
          "mode": 1
        }
      ]
    }
  ],
  "materials": [
    {
      "name": "primary",
      "extensions": {
        "KHR_materials_unlit": {}
      },
      "pbrMetallicRoughness": {
        "baseColorFactor": [
          0.961,
          0.961,
          0.961,
          1
        ],
        "metallicFactor": 0,
        "roughnessFactor": 1
      }
    },
    {
      "name": "vertex",
      "extensions": {
        "KHR_materials_unlit": {}
      },
      "pbrMetallicRoughness": {
        "baseColorFactor": [
          0.902,
          0.902,
          0.902,
          0.9
        ],
        "metallicFactor": 0,
        "roughnessFactor": 1
      }
    },
    {
      "name": "em",
      "extensions": {
        "KHR_materials_unlit": {}
      },
      "pbrMetallicRoughness": {
        "baseColorFactor": [
          0.471,
          0.824,
          1,
          1
        ],
        "metallicFactor": 0,
        "roughnessFactor": 1
      }
    },
    {
      "name": "hadron",
      "extensions": {
        "KHR_materials_unlit": {}
      },
      "pbrMetallicRoughness": {
        "baseColorFactor": [
          0.549,
          1,
          0.745,
          1
        ],
        "metallicFactor": 0,
        "roughnessFactor": 1
      }
    },
    {
      "name": "delta",
      "extensions": {
        "KHR_materials_unlit": {}
      },
      "pbrMetallicRoughness": {
        "baseColorFactor": [
          0.804,
          0.647,
          1,
          1
        ],
        "metallicFactor": 0,
        "roughnessFactor": 1
      }
    },
    {
      "name": "backscatter",
      "extensions": {
        "KHR_materials_unlit": {}
      },
      "pbrMetallicRoughness": {
        "baseColorFactor": [
          1,
          0.824,
          0.529,
          0.95
        ],
        "metallicFactor": 0,
        "roughnessFactor": 1
      }
    }
  ],
  "accessors": [
    {
      "bufferView": 0,
      "byteOffset": 0,
      "componentType": 5126,
      "count": 1860,
      "type": "VEC3",
      "min": [
        -0.9812268614768982,
        -0.999793291091919,
        0
      ],
      "max": [
        0.9408060908317566,
        1.0202538967132568,
        0
      ]
    },
    {
      "bufferView": 1,
      "byteOffset": 0,
      "componentType": 5126,
      "count": 348,
      "type": "VEC3",
      "min": [
        -0.021217158064246178,
        -0.014607425779104233,
        -0.07946567237377167
      ],
      "max": [
        0.013665447942912579,
        0.01406354084610939,
        0.05943160504102707
      ]
    },
    {
      "bufferView": 2,
      "byteOffset": 0,
      "componentType": 5126,
      "count": 1100,
      "type": "VEC3",
      "min": [
        -0.190028116106987,
        -0.004431655630469322,
        -0.22364385426044464
      ],
      "max": [
        0.004084402695298195,
        0.21703794598579407,
        0.05476977676153183
      ]
    },
    {
      "bufferView": 3,
      "byteOffset": 0,
      "componentType": 5126,
      "count": 2900,
      "type": "VEC3",
      "min": [
        -0.3123410940170288,
        -0.0027028664480894804,
        -0.44974008202552795
      ],
      "max": [
        0.003042466240003705,
        0.2510489523410797,
        0.5887504816055298
      ]
    },
    {
      "bufferView": 4,
      "byteOffset": 0,
      "componentType": 5126,
      "count": 284,
      "type": "VEC3",
      "min": [
        -0.0612197183072567,
        -0.051488347351551056,
        -0.23198996484279633
      ],
      "max": [
        0.0023725770879536867,
        0.18018540740013123,
        0.2425808310508728
      ]
    },
    {
      "bufferView": 5,
      "byteOffset": 0,
      "componentType": 5126,
      "count": 1014,
      "type": "VEC3",
      "min": [
        -0.18418917059898376,
        -0.16747483611106873,
        -0.9927384257316589
      ],
      "max": [
        0.09669630974531174,
        0.054704658687114716,
        0.2637079358100891
      ]
    }
  ],
  "bufferViews": [
    {
      "buffer": 0,
      "byteOffset": 0,
      "byteLength": 22320,
      "target": 34962
    },
    {
      "buffer": 0,
      "byteOffset": 22320,
      "byteLength": 4176,
      "target": 34962
    },
    {
      "buffer": 0,
      "byteOffset": 26496,
      "byteLength": 13200,
      "target": 34962
    },
    {
      "buffer": 0,
      "byteOffset": 39696,
      "byteLength": 34800,
      "target": 34962
    },
    {
      "buffer": 0,
      "byteOffset": 74496,
      "byteLength": 3408,
      "target": 34962
    },
    {
      "buffer": 0,
      "byteOffset": 77904,
      "byteLength": 12168,
      "target": 34962
    }
  ],
  "buffers": [
    {
      "byteLength": 90072,
      "uri": "data:application/octet-stream;base64,"
    }
  ]
}