{
  "asset": {
    "version": "2.0",
    "generator": "TES-23 Cosmic Ray Renderer"
  },
  "extensionsUsed": [
    "KHR_materials_unlit"
  ],
  "extensionsRequired": [
    "KHR_materials_unlit"
  ],
  "scene": 0,
  "scenes": [
    {
      "nodes": [
        0
      ]
    }
  ],
  "nodes": [
    {
      "name": "CosmicRayEvent",
      "mesh": 0
    }
  ],
  "meshes": [
    {
      "name": "CosmicRayEvent",
      "primitives": [
        {
          "attributes": {
            "POSITION": 0
          },
          "material": 0,
          "mode": 1
        },
        {
          "attributes": {
            "POSITION": 1
          },
          "material": 1,
          "mode": 1
        },
        {
          "attributes": {
            "POSITION": 2
          },
          "material": 2,
          "mode": 1
        },
        {
          "attributes": {
            "POSITION": 3
          },
          "material": 3,
          "mode": 1
        },
        {
          "attributes": {
            "POSITION": 4
          },
          "material": 4,
          "mode": 1
        }
      ]
    }
  ],
  "materials": [
    {
      "name": "primary",
      "extensions": {
        "KHR_materials_unlit": {}
      },
      "pbrMetallicRoughness": {
        "baseColorFactor": [
          0.961,
          0.961,
          0.961,
          1
        ],
        "metallicFactor": 0,
        "roughnessFactor": 1
      }
    },
    {
      "name": "vertex",
      "extensions": {
        "KHR_materials_unlit": {}
      },
      "pbrMetallicRoughness": {
        "baseColorFactor": [
          0.902,
          0.902,
          0.902,
          0.9
        ],
        "metallicFactor": 0,
        "roughnessFactor": 1
      }
    },
    {
      "name": "em",
      "extensions": {
        "KHR_materials_unlit": {}
      },
      "pbrMetallicRoughness": {
        "baseColorFactor": [
          0.471,
          0.824,
          1,
          1
        ],
        "metallicFactor": 0,
        "roughnessFactor": 1
      }
    },
    {
      "name": "hadron",
      "extensions": {
        "KHR_materials_unlit": {}
      },
      "pbrMetallicRoughness": {
        "baseColorFactor": [
          0.549,
          1,
          0.745,
          1
        ],
        "metallicFactor": 0,
        "roughnessFactor": 1
      }
    },
    {
      "name": "delta",
      "extensions": {
        "KHR_materials_unlit": {}
      },
      "pbrMetallicRoughness": {
        "baseColorFactor": [
          0.804,
          0.647,
          1,
          1
        ],
        "metallicFactor": 0,
        "roughnessFactor": 1
      }
    }
  ],
  "accessors": [
    {
      "bufferView": 0,
      "byteOffset": 0,
      "componentType": 5126,
      "count": 1450,
      "type": "VEC3",
      "min": [
        -0.9998763203620911,
        -0.392281711101532,
        0
      ],
      "max": [
        1.0217629671096802,
        0.4011276364326477,
        0
      ]
    },
    {
      "bufferView": 1,
      "byteOffset": 0,
      "componentType": 5126,
      "count": 316,
      "type": "VEC3",
      "min": [
        -0.012637387961149216,
        -0.019945869222283363,
        -0.06391420215368271
      ],
      "max": [
        0.022700166329741478,
        0.004918332677334547,
        0.0886990875005722
      ]
    },
    {
      "bufferView": 2,
      "byteOffset": 0,
      "componentType": 5126,
      "count": 1026,
      "type": "VEC3",
      "min": [
        -0.004118314944207668,
        -0.10048267245292664,
        -0.025495478883385658
      ],
      "max": [
        0.25330817699432373,
        0.003408795455470681,
        0.04832257330417633
      ]
    },
    {
      "bufferView": 3,
      "byteOffset": 0,
      "componentType": 5126,
      "count": 2042,
      "type": "VEC3",
      "min": [
        -0.24691201746463776,
        -0.10434401780366898,
        -0.6104930639266968
      ],
      "max": [
        0.2724050283432007,
        0.03270287439227104,
        0.4452471435070038
      ]
    },
    {
      "bufferView": 4,
      "byteOffset": 0,
      "componentType": 5126,
      "count": 1058,
      "type": "VEC3",
      "min": [
        -0.0008787176921032369,
        -0.19893337786197662,
        -0.33778539299964905
      ],
      "max": [
        0.2769956886768341,
        0.04078659415245056,
        0.27917152643203735
      ]
    }
  ],
  "bufferViews": [
    {
      "buffer": 0,
      "byteOffset": 0,
      "byteLength": 17400,
      "target": 34962
    },
    {
      "buffer": 0,
      "byteOffset": 17400,
      "byteLength": 3792,
      "target": 34962
    },
    {
      "buffer": 0,
      "byteOffset": 21192,
      "byteLength": 12312,
      "target": 34962
    },
    {
      "buffer": 0,
      "byteOffset": 33504,
      "byteLength": 24504,
      "target": 34962
    },
    {
      "buffer": 0,
      "byteOffset": 58008,
      "byteLength": 12696,
      "target": 34962
    }
  ],
  "buffers": [
    {
      "byteLength": 70704,
      "uri": "data:application/octet-stream;base64,"
    }
  ]
}