<?xml version="1.0" encoding="UTF-8"?>
<svg xmlns="http://www.w3.org/2000/svg" width="2000" height="2000" viewBox="0 0 2000 2000">
<g fill="none" stroke-linecap="round" stroke-linejoin="round">
  <path d="M 1001.34 918.12 L 1001.58 914.94 L 1001.82 911.77 L 1002.07 908.62 L 1002.30 905.47 L 1002.52 902.34 L 1002.80 899.23 L 1003.09 896.13 L 1003.47 893.05 L 1003.85 889.98 L 1004.21 886.93 L 1004.57 883.88 L 1004.90 880.84 L 1005.19 877.82 L 1005.47 874.80 L 1005.71 871.80 L 1005.96 868.80 L 1006.17 865.82 L 1006.39 862.86 L 1006.59 859.90 L 1006.79 856.95 L 1007.00 854.02 L 1007.32 851.10 L 1007.69 848.21 L 1008.09 845.33 L 1008.47 842.46 L 1008.85 839.60 L 1009.28 836.75 L 1009.75 833.93 L 1010.19 831.11 L 1010.62 828.31 L 1011.06 825.52 L 1011.51 822.74 L 1011.95 819.97 L 1012.44 817.22 L 1012.96 814.49 L 1013.49 811.77 L 1013.99 809.06 L 1014.55 806.37 L 1015.15 803.71 L 1015.69 801.05 L 1016.15 798.38 L 1016.66 795.73 L 1017.20 793.09 L 1017.78 790.47 L 1018.36 787.86 L 1018.90 785.25 L 1019.45 782.65 L 1019.98 780.06 L 1020.46 777.47 L 1020.97 774.90 L 1021.54 772.34 L 1022.12 769.81 L 1022.70 767.28 L 1023.33 764.78 L 1023.97 762.29 L 1024.64 759.81 L 1025.30 757.35 L 1025.94 754.89 L 1026.60 752.45 L 1027.28 750.02 L 1028.04 747.63 L 1028.86 745.26 L 1029.66 742.91 L 1030.49 740.57 L 1031.29 738.23 L 1032.02 735.89 L 1032.76 733.56 L 1033.57 731.26 L 1034.34 728.95 L 1035.10 726.66" stroke="rgb(120,210,255)" stroke-opacity="0.853" stroke-width="1.63" />
  <path d="M 1004.01 997.58 L 1004.06 994.46 L 1004.01 991.37 L 1003.92 988.29 L 1003.87 985.22 L 1003.77 982.15 L 1003.63 979.10 L 1003.51 976.07 L 1003.43 973.05 L 1003.36 970.04 L 1003.31 967.05 L 1003.27 964.07 L 1003.22 961.11 L 1003.14 958.16 L 1003.00 955.23 L 1002.90 952.31 L 1002.80 949.39 L 1002.67 946.49 L 1002.56 943.59 L 1002.45 940.72 L 1002.35 937.85 L 1002.23 934.99 L 1002.10 932.16 L 1001.95 929.34 L 1001.78 926.51 L 1001.64 923.70 L 1001.49 920.91 L 1001.34 918.12 L 1001.09 915.35 L 1000.84 912.58 L 1000.57 909.83 L 1000.31 907.08 L 1000.06 904.34 L 999.78 901.63 L 999.52 898.92 L 999.28 896.22 L 999.00 893.53 L 998.74 890.85 L 998.54 888.18 L 998.33 885.52 L 998.12 882.87 L 997.93 880.22 L 997.80 877.58 L 997.69 874.95 L 997.59 872.33 L 997.48 869.73 L 997.37 867.14 L 997.21 864.56 L 997.06 862.00 L 996.90 859.44 L 996.71 856.89 L 996.53 854.35 L 996.34 851.83" stroke="rgb(120,210,255)" stroke-opacity="0.851" stroke-width="1.63" />
  <path d="M 979.64 832.76 L 979.18 829.74 L 978.78 826.73 L 978.38 823.72 L 978.14 820.71 L 977.88 817.72 L 977.58 814.74 L 977.35 811.76 L 977.10 808.80 L 976.81 805.86 L 976.45 802.94 L 976.17 800.01 L 975.91 797.11 L 975.69 794.20 L 975.49 791.31 L 975.29 788.43 L 975.02 785.57 L 974.80 782.71 L 974.55 779.87 L 974.32 777.05 L 974.10 774.23 L 973.73 771.46 L 973.37 768.69 L 972.99 765.94 L 972.61 763.20 L 972.22 760.48 L 971.79 757.77 L 971.39 755.08 L 970.92 752.41 L 970.45 749.75" stroke="rgb(120,210,255)" stroke-opacity="0.467" stroke-width="1.62" />
  <path d="M 1001.06 1000.80 L 1001.02 997.45 L 1000.94 994.12 L 1000.86 990.80 L 1000.78 987.49 L 1000.79 984.19 L 1000.72 980.91 L 1000.68 977.64 L 1000.64 974.38 L 1000.59 971.14 L 1000.57 967.91 L 1000.50 964.69 L 1000.47 961.48 L 1000.45 958.29 L 1000.43 955.11 L 1000.36 951.95 L 1000.29 948.79 L 1000.21 945.65 L 1000.07 942.53 L 999.88 939.42 L 999.75 936.31 L 999.63 933.22 L 999.53 930.15 L 999.42 927.08 L 999.28 924.03 L 999.09 920.99 L 998.93 917.97 L 998.78 914.95 L 998.64 911.95 L 998.52 908.96 L 998.45 905.98 L 998.35 903.01 L 998.25 900.05 L 998.11 897.11 L 998.02 894.18 L 997.91 891.26 L 997.80 888.35 L 997.68 885.45 L 997.56 882.56 L 997.42 879.69 L 997.34 876.83 L 997.26 873.98 L 997.18 871.14 L 997.17 868.31 L 997.09 865.49 L 996.98 862.68 L 996.86 859.89 L 996.69 857.11 L 996.49 854.34 L 996.28 851.59 L 996.08 848.84 L 995.93 846.11 L 995.75 843.38 L 995.59 840.67 L 995.40 837.96 L 995.20 835.28 L 994.99 832.60 L 994.80 829.93 L 994.57 827.27 L 994.37 824.63 L 994.13 822.00 L 993.88 819.38 L 993.65 816.77 L 993.44 814.18 L 993.25 811.59 L 993.05 809.02 L 992.87 806.45 L 992.63 803.90 L 992.37 801.37 L 992.10 798.85 L 991.82 796.33 L 991.52 793.83 L 991.23 791.33 L 990.95 788.85 L 990.65 786.38 L 990.39 783.91 L 990.11 781.45 L 989.82 779.01 L 989.54 776.57 L 989.33 774.14 L 989.12 771.72 L 988.94 769.30 L 988.75 766.89 L 988.55 764.50 L 988.34 762.11 L 988.16 759.73" stroke="rgb(120,210,255)" stroke-opacity="0.849" stroke-width="1.62" />
  <path d="M 1003.13 996.15 L 1003.20 992.67 L 1003.29 989.20 L 1003.37 985.75 L 1003.46 982.32 L 1003.55 978.89 L 1003.60 975.48 L 1003.66 972.09 L 1003.71 968.70 L 1003.76 965.33" stroke="rgb(120,210,255)" stroke-opacity="0.847" stroke-width="1.62" />
  <path d="M 998.92 999.50 L 998.85 996.21 L 998.77 992.94 L 998.69 989.67 L 998.61 986.43 L 998.53 983.19 L 998.48 979.97 L 998.42 976.76 L 998.34 973.56 L 998.26 970.38 L 998.18 967.21 L 998.10 964.05 L 997.99 960.91 L 997.86 957.77 L 997.71 954.66 L 997.54 951.55 L 997.37 948.46 L 997.20 945.38 L 997.02 942.31 L 996.78 939.26 L 996.58 936.22 L 996.37 933.20 L 996.15 930.18 L 995.92 927.18 L 995.75 924.20 L 995.61 921.21 L 995.49 918.25 L 995.36 915.29 L 995.26 912.34 L 995.16 909.41 L 995.09 906.48 L 995.08 903.57 L 995.05 900.67 L 995.04 897.77" stroke="rgb(120,210,255)" stroke-opacity="0.844" stroke-width="1.60" />
  <path d="M 1003.77 1000.80 L 1003.64 997.63 L 1003.50 994.47 L 1003.41 991.33 L 1003.29 988.19 L 1003.09 985.08 L 1002.88 981.98 L 1002.65 978.89 L 1002.45 975.81 L 1002.24 972.75 L 1002.02 969.69 L 1001.78 966.66 L 1001.54 963.63 L 1001.34 960.62 L 1001.17 957.61 L 1001.00 954.61 L 1000.80 951.64 L 1000.60 948.67 L 1000.38 945.71 L 1000.14 942.77 L 999.90 939.84 L 999.70 936.92 L 999.47 934.01 L 999.25 931.11" stroke="rgb(120,210,255)" stroke-opacity="0.843" stroke-width="1.60" />
  <path d="M 999.11 1000.75 L 998.86 997.37 L 998.62 994.00 L 998.37 990.65 L 998.11 987.31 L 997.87 983.99 L 997.63 980.67 L 997.39 977.38 L 997.15 974.09 L 996.90 970.82 L 996.67 967.56 L 996.46 964.31 L 996.28 961.07" stroke="rgb(120,210,255)" stroke-opacity="0.842" stroke-width="1.60" />
  <path d="M 1001.39 999.54 L 1001.30 996.08 L 1001.29 992.62 L 1001.35 989.18 L 1001.34 985.76 L 1001.34 982.35 L 1001.33 978.95 L 1001.32 975.56 L 1001.31 972.19 L 1001.26 968.84 L 1001.20 965.49 L 1001.15 962.16 L 1001.11 958.85 L 1001.06 955.54 L 1001.02 952.25 L 1001.04 948.97 L 1001.11 945.71 L 1001.17 942.46 L 1001.21 939.22 L 1001.28 935.99 L 1001.32 932.78 L 1001.37 929.58 L 1001.42 926.39 L 1001.45 923.22 L 1001.48 920.06 L 1001.48 916.91 L 1001.48 913.77 L 1001.47 910.65 L 1001.45 907.54 L 1001.44 904.44 L 1001.43 901.35 L 1001.43 898.28 L 1001.40 895.22 L 1001.34 892.17 L 1001.25 889.13 L 1001.18 886.11 L 1001.12 883.10 L 1001.05 880.10 L 1001.00 877.11 L 1000.93 874.13" stroke="rgb(120,210,255)" stroke-opacity="0.841" stroke-width="1.60" />
  <path d="M 990.75 909.25 L 990.11 906.43 L 989.47 903.62 L 988.96 900.79" stroke="rgb(120,210,255)" stroke-opacity="0.462" stroke-width="1.59" />
  <path d="M 1001.22 1001.37 L 1001.18 998.59 L 1001.09 995.83 L 1000.98 993.07 L 1000.97 990.33 L 1000.81 987.60 L 1000.70 984.88 L 1000.47 982.17 L 1000.22 979.48 L 999.94 976.80 L 999.83 974.12 L 999.72 971.45 L 999.53 968.79 L 999.33 966.15 L 999.11 963.52 L 998.89 960.90 L 998.65 958.29 L 998.37 955.70 L 998.03 953.13 L 997.69 950.56 L 997.37 948.01 L 997.07 945.46 L 996.78 942.92 L 996.52 940.39 L 996.20 937.88 L 995.89 935.37 L 995.58 932.87 L 995.23 930.39 L 994.93 927.91 L 994.67 925.44 L 994.42 922.97 L 994.06 920.54 L 993.69 918.11 L 993.27 915.70 L 992.83 913.31 L 992.45 910.91 L 992.10 908.52 L 991.76 906.14 L 991.39 903.77 L 991.01 901.41 L 990.61 899.07 L 990.21 896.73 L 989.75 894.41 L 989.27 892.11 L 988.81 889.82 L 988.37 887.53 L 987.97 885.25" stroke="rgb(120,210,255)" stroke-opacity="0.454" stroke-width="1.55" />
  <path d="M 997.85 1001.54 L 997.85 998.80 L 997.92 996.07 L 998.02 993.36 L 998.08 990.65 L 998.11 987.95 L 998.16 985.27 L 998.18 982.60 L 998.27 979.94 L 998.36 977.29 L 998.38 974.64 L 998.36 972.01 L 998.34 969.39 L 998.28 966.78 L 998.25 964.18" stroke="rgb(120,210,255)" stroke-opacity="0.452" stroke-width="1.54" />
  <path d="M 998.50 999.30 L 998.44 996.80 L 998.38 994.31 L 998.33 991.83 L 998.29 989.36 L 998.21 986.90 L 998.09 984.45 L 997.99 982.01 L 997.89 979.58 L 997.83 977.16 L 997.73 974.74 L 997.65 972.34 L 997.56 969.95 L 997.39 967.57 L 997.24 965.20 L 997.07 962.84 L 996.89 960.49 L 996.71 958.16 L 996.49 955.83 L 996.17 953.52 L 995.85 951.23 L 995.57 948.94 L 995.30 946.66 L 994.91 944.41 L 994.64 942.15 L 994.36 939.90 L 994.07 937.65 L 993.80 935.41 L 993.51 933.19 L 993.23 930.98 L 992.98 928.77 L 992.70 926.57 L 992.45 924.37 L 992.15 922.19 L 991.90 920.02 L 991.66 917.85 L 991.45 915.68 L 991.23 913.53 L 991.01 911.38 L 990.75 909.25 L 990.50 907.13 L 990.25 905.02 L 990.06 902.91 L 989.81 900.81 L 989.56 898.73 L 989.31 896.65 L 989.01 894.58 L 988.69 892.53 L 988.34 890.49 L 988.06 888.45 L 987.76 886.41 L 987.44 884.39 L 987.05 882.39 L 986.72 880.39 L 986.39 878.39 L 986.10 876.40 L 985.82 874.41 L 985.48 872.44 L 985.17 870.48 L 984.88 868.52 L 984.61 866.57 L 984.36 864.63 L 984.07 862.69 L 983.83 860.76 L 983.61 858.83 L 983.32 856.92 L 982.99 855.02 L 982.62 853.14 L 982.26 851.27 L 981.92 849.40 L 981.58 847.53 L 981.23 845.67 L 980.89 843.82 L 980.60 841.97 L 980.37 840.12 L 980.12 838.27 L 979.92 836.43 L 979.73 834.60 L 979.64 832.76 L 979.52 830.94 L 979.38 829.12 L 979.23 827.31 L 979.20 825.51 L 979.11 823.71 L 979.05 821.92 L 978.92 820.14 L 978.76 818.36 L 978.59 816.60 L 978.48 814.84 L 978.37 813.08 L 978.28 811.34" stroke="rgb(120,210,255)" stroke-opacity="0.448" stroke-width="1.52" />
  <path d="M 999.49 996.68 L 1000.09 994.43 L 1000.69 992.19 L 1001.31 989.90 L 1001.91 987.62 L 1002.63 985.42 L 1003.36 983.23 L 1004.08 980.97 L 1004.75 978.71 L 1005.42 976.48 L 1006.09 974.27" stroke="rgb(205,165,255)" stroke-opacity="0.712" stroke-width="1.22" />
  <path d="M 1004.19 1000.85 L 1002.42 998.24 L 1000.64 995.65 L 998.82 993.10 L 996.98 990.58 L 995.15 988.08 L 993.32 985.58 L 991.44 983.14 L 989.60 980.69 L 987.74 978.26 L 985.89 975.84 L 984.07 973.42 L 982.22 971.04 L 980.37 968.67 L 978.47 966.36 L 976.60 964.06 L 974.73 961.76 L 972.87 959.48 L 970.95 957.25 L 969.02 955.07 L 967.14 952.86 L 965.25 950.66 L 963.41 948.44 L 961.61 946.20 L 959.82 943.97 L 958.02 941.75 L 956.21 939.57 L 954.43 937.38 L 952.66 935.20 L 950.88 933.03 L 949.10 930.87 L 947.28 928.74 L 945.48 926.61 L 943.69 924.50 L 941.89 922.40 L 940.00 920.40 L 938.13 918.40 L 936.28 916.40 L 934.46 914.39 L 932.64 912.39 L 930.83 910.39 L 929.07 908.36 L 927.27 906.38 L 925.45 904.44 L 923.63 902.51 L 921.80 900.61 L 919.99 898.70 L 918.17 896.82 L 916.41 894.89 L 914.63 893.01 L 912.88 891.12 L 911.15 889.23 L 909.42 887.35 L 907.71 885.46 L 906.04 883.55 L 904.37 881.65 L 902.70 879.76 L 901.03 877.89 L 899.38 876.00 L 897.76 874.11 L 896.14 872.23 L 894.54 870.34 L 892.94 868.46 L 891.36 866.58" stroke="rgb(205,165,255)" stroke-opacity="0.709" stroke-width="1.21" />
  <path d="M 1003.21 994.80 L 1003.05 992.56 L 1002.94 990.33 L 1002.83 988.11 L 1002.71 985.90 L 1002.56 983.70 L 1002.43 981.51 L 1002.28 979.33 L 1002.04 977.17 L 1001.79 975.02 L 1001.52 972.88 L 1001.22 970.75 L 1000.91 968.66 L 1000.58 966.57 L 1000.29 964.49 L 999.99 962.42 L 999.79 960.35 L 999.62 958.29 L 999.45 956.23" stroke="rgb(140,255,190)" stroke-opacity="0.560" stroke-width="1.21" />
  <path d="M 998.13 998.70 L 996.23 996.15 L 994.34 993.62 L 992.46 991.09 L 990.54 988.62 L 988.60 986.16 L 986.67 983.71 L 984.74 981.27 L 982.82 978.85 L 980.92 976.41 L 979.05 973.98 L 977.18 971.56 L 975.24 969.21 L 973.31 966.87 L 971.38 964.55 L 969.47 962.23 L 967.52 959.96 L 965.55 957.71 L 963.60 955.46 L 961.70 953.19 L 959.81 950.94 L 957.94 948.67 L 956.17 946.35 L 954.45 944.00 L 952.74 941.67 L 951.04 939.33 L 949.33 937.01 L 947.64 934.70 L 945.95 932.39 L 944.23 930.13 L 942.52 927.88 L 940.77 925.66 L 939.05 923.43 L 937.37 921.19 L 935.65 919.00 L 933.96 916.80 L 932.30 914.59 L 930.64 912.40 L 929.01 910.19 L 927.36 908.00 L 925.73 905.83" stroke="rgb(205,165,255)" stroke-opacity="0.704" stroke-width="1.20" />
  <path d="M 998.26 1000.41 L 997.23 1003.14 L 996.22 1005.87 L 995.21 1008.61 L 994.27 1011.38 L 993.25 1014.10 L 992.25 1016.82 L 991.36 1019.55 L 990.47 1022.28 L 989.59 1025.00 L 988.75 1027.72 L 987.96 1030.44 L 987.22 1033.17 L 986.50 1035.90 L 985.76 1038.62 L 984.95 1041.31 L 984.21 1043.99 L 983.47 1046.66 L 982.74 1049.33 L 981.96 1051.95 L 981.19 1054.57 L 980.39 1057.14 L 979.58 1059.70 L 978.75 1062.23 L 977.94 1064.74 L 977.19 1067.25 L 976.41 1069.74 L 975.63 1072.22 L 974.87 1074.69 L 974.11 1077.12 L 973.34 1079.55" stroke="rgb(205,165,255)" stroke-opacity="0.699" stroke-width="1.19" />
  <path d="M 1003.54 998.99 L 1003.55 995.57 L 1003.56 992.16 L 1003.56 988.76 L 1003.52 985.38 L 1003.49 982.01 L 1003.46 978.65 L 1003.43 975.32 L 1003.39 972.00" stroke="rgb(140,255,190)" stroke-opacity="0.734" stroke-width="1.18" />
  <path d="M 1000.83 998.17 L 1000.04 1000.65 L 999.15 1003.06 L 998.28 1005.48 L 997.41 1007.90 L 996.54 1010.31 L 995.70 1012.72 L 994.94 1015.14 L 994.16 1017.55 L 993.39 1019.97 L 992.57 1022.40 L 991.75 1024.81 L 990.93 1027.21 L 990.10 1029.61 L 989.31 1031.99 L 988.53 1034.37 L 987.72 1036.70 L 986.90 1038.96 L 986.03 1041.22 L 985.15 1043.47 L 984.27 1045.73 L 983.37 1047.99 L 982.57 1050.29 L 981.70 1052.57 L 980.86 1054.81 L 980.03 1057.03 L 979.21 1059.25" stroke="rgb(205,165,255)" stroke-opacity="0.488" stroke-width="1.18" />
  <path d="M 999.27 996.23 L 1001.00 994.17 L 1002.73 992.17 L 1004.55 990.28 L 1006.33 988.34 L 1008.11 986.40 L 1009.87 984.47 L 1011.61 982.55 L 1013.30 980.60 L 1015.01 978.67 L 1016.68 976.70 L 1018.34 974.75 L 1019.97 972.78 L 1021.55 970.76 L 1023.12 968.77 L 1024.69 966.78 L 1026.28 964.79 L 1027.88 962.84 L 1029.46 960.84 L 1031.07 958.88 L 1032.68 956.90 L 1034.26 954.90 L 1035.79 952.90 L 1037.27 950.85 L 1038.76 948.81 L 1040.25 946.76 L 1041.73 944.73 L 1043.24 942.71 L 1044.73 940.68 L 1046.19 938.65 L 1047.67 936.64 L 1049.12 934.66 L 1050.57 932.70 L 1052.03 930.75 L 1053.58 928.86 L 1055.11 926.94 L 1056.63 925.02 L 1058.14 923.14 L 1059.64 921.25 L 1061.07 919.32 L 1062.48 917.40 L 1063.89 915.48 L 1065.23 913.54 L 1066.52 911.59 L 1067.81 909.62 L 1069.15 907.67 L 1070.48 905.72 L 1071.80 903.79 L 1073.14 901.87 L 1074.47 899.95 L 1075.78 898.04 L 1077.09 896.12 L 1078.43 894.23 L 1079.72 892.31 L 1080.95 890.40 L 1082.17 888.49 L 1083.43 886.61 L 1084.70 884.75 L 1085.97 882.91 L 1087.25 881.09 L 1088.50 879.26 L 1089.76 877.46 L 1090.99 875.67 L 1092.26 873.94 L 1093.54 872.21 L 1094.79 870.48 L 1096.01 868.76 L 1097.25 867.07 L 1098.55 865.44 L 1099.81 863.79 L 1101.08 862.16" stroke="rgb(205,165,255)" stroke-opacity="0.487" stroke-width="1.18" />
  <path d="M 997.10 1001.57 L 997.01 998.18 L 996.92 994.81 L 996.85 991.44 L 996.82 988.09 L 996.79 984.75 L 996.76 981.43 L 996.71 978.12 L 996.66 974.82 L 996.64 971.54 L 996.61 968.27 L 996.61 965.02 L 996.60 961.78 L 996.54 958.55 L 996.47 955.34 L 996.39 952.14 L 996.31 948.95 L 996.24 945.78 L 996.17 942.62 L 996.12 939.47 L 996.09 936.34 L 996.04 933.22 L 995.97 930.11 L 995.91 927.01 L 995.84 923.93 L 995.76 920.86 L 995.68 917.80 L 995.60 914.76 L 995.50 911.73 L 995.40 908.71 L 995.26 905.71 L 995.14 902.72 L 995.01 899.73 L 994.90 896.76 L 994.80 893.81 L 994.68 890.86 L 994.57 887.93 L 994.49 885.01 L 994.42 882.10 L 994.41 879.20 L 994.40 876.31 L 994.43 873.43 L 994.50 870.57 L 994.61 867.71 L 994.73 864.87 L 994.86 862.04 L 994.98 859.22 L 995.07 856.41 L 995.14 853.61 L 995.21 850.82 L 995.28 848.05 L 995.35 845.28 L 995.44 842.52 L 995.51 839.78 L 995.57 837.05 L 995.65 834.32 L 995.74 831.61 L 995.83 828.91 L 995.87 826.21 L 995.88 823.53 L 995.89 820.85 L 995.87 818.19 L 995.84 815.54 L 995.80 812.89 L 995.76 810.26 L 995.74 807.64 L 995.69 805.03 L 995.66 802.43 L 995.62 799.84 L 995.57 797.26 L 995.49 794.69 L 995.41 792.13" stroke="rgb(140,255,190)" stroke-opacity="0.729" stroke-width="1.17" />
  <path d="M 999.83 1001.46 L 999.65 998.26 L 999.49 995.07 L 999.33 991.89 L 999.25 988.72 L 999.18 985.57 L 999.09 982.43 L 998.99 979.30 L 998.88 976.18 L 998.78 973.08 L 998.66 969.99 L 998.60 966.91 L 998.55 963.84 L 998.53 960.79 L 998.49 957.75" stroke="rgb(140,255,190)" stroke-opacity="0.725" stroke-width="1.16" />
  <path d="M 972.55 859.33 L 972.03 856.30 L 971.49 853.28 L 970.95 850.27 L 970.42 847.26 L 969.92 844.27 L 969.41 841.30 L 968.93 838.37 L 968.46 835.44" stroke="rgb(140,255,190)" stroke-opacity="0.725" stroke-width="1.16" />
  <path d="M 997.33 1000.08 L 996.27 997.40 L 995.19 994.76 L 994.10 992.12 L 993.02 989.50 L 991.92 986.89 L 990.82 984.30 L 989.74 981.71 L 988.77 979.09 L 987.81 976.48 L 986.85 973.88 L 985.86 971.30 L 984.85 968.74 L 983.85 966.19 L 982.75 963.70 L 981.64 961.21 L 980.58 958.73 L 979.50 956.26 L 978.41 953.81 L 977.29 951.38 L 976.18 948.96 L 975.04 946.57 L 973.91 944.18 L 972.79 941.81 L 971.71 939.42 L 970.62 937.05 L 969.55 934.68 L 968.55 932.30 L 967.50 929.95 L 966.40 927.64 L 965.30 925.34 L 964.26 923.03 L 963.28 920.72 L 962.30 918.41 L 961.33 916.11 L 960.29 913.84 L 959.23 911.61 L 958.20 909.37 L 957.24 907.12 L 956.26 904.88 L 955.32 902.63 L 954.41 900.38 L 953.50 898.14 L 952.62 895.89 L 951.78 893.65 L 950.95 891.41 L 950.10 889.20 L 949.25 886.98 L 948.39 884.78 L 947.56 882.59 L 946.70 880.41" stroke="rgb(205,165,255)" stroke-opacity="0.481" stroke-width="1.15" />
  <path d="M 1002.73 803.43 L 1003.28 800.21 L 1003.78 797.01 L 1004.31 793.82 L 1004.86 790.65 L 1005.31 787.49 L 1005.71 784.33 L 1006.11 781.19 L 1006.51 778.05 L 1006.93 774.93 L 1007.37 771.83 L 1007.80 768.74 L 1008.23 765.65 L 1008.64 762.58 L 1009.00 759.53 L 1009.40 756.48 L 1009.88 753.47 L 1010.38 750.48 L 1010.88 747.50 L 1011.41 744.52 L 1011.93 741.56 L 1012.45 738.62 L 1012.97 735.68 L 1013.50 732.76 L 1014.04 729.86 L 1014.59 726.97 L 1015.12 724.12 L 1015.64 721.29 L 1016.17 718.46 L 1016.72 715.66 L 1017.25 712.84 L 1017.79 710.04 L 1018.32 707.25 L 1018.82 704.47 L 1019.32 701.71 L 1019.83 698.96 L 1020.27 696.22 L 1020.69 693.47 L 1021.12 690.73 L 1021.54 688.00 L 1021.96 685.27 L 1022.43 682.57 L 1022.87 679.88 L 1023.32 677.20 L 1023.76 674.54 L 1024.19 671.88 L 1024.60 669.22 L 1024.96 666.57 L 1025.34 663.92 L 1025.74 661.29 L 1026.13 658.66 L 1026.51 656.04 L 1026.83 653.44 L 1027.11 650.84 L 1027.43 648.27 L 1027.79 645.73 L 1028.14 643.21 L 1028.47 640.68 L 1028.83 638.18 L 1029.12 635.67 L 1029.47 633.18 L 1029.88 630.70 L 1030.29 628.22 L 1030.71 625.75 L 1031.15 623.30 L 1031.57 620.87 L 1031.96 618.45 L 1032.35 616.05 L 1032.74 613.65 L 1033.13 611.26 L 1033.48 608.86 L 1033.83 606.48" stroke="rgb(140,255,190)" stroke-opacity="0.724" stroke-width="1.15" />
  <path d="M 994.99 954.87 L 994.09 951.80 L 993.20 948.75 L 992.31 945.70 L 991.47 942.65 L 990.62 939.62 L 989.79 936.59 L 989.02 933.57 L 988.25 930.55 L 987.54 927.54 L 986.82 924.54 L 986.16 921.54 L 985.47 918.55 L 984.79 915.58 L 984.10 912.62 L 983.39 909.69 L 982.64 906.77 L 981.96 903.86 L 981.27 900.95 L 980.57 898.06 L 979.86 895.18 L 979.21 892.30 L 978.55 889.42 L 977.99 886.54 L 977.40 883.68 L 976.75 880.84 L 976.17 878.00 L 975.57 875.17 L 974.91 872.37 L 974.29 869.57 L 973.71 866.78 L 973.14 863.99 L 972.57 861.22 L 971.95 858.46 L 971.36 855.72 L 970.80 852.98 L 970.20 850.25 L 969.69 847.52 L 969.19 844.81 L 968.62 842.11 L 968.02 839.44 L 967.47 836.78 L 966.97 834.12 L 966.52 831.46 L 966.06 828.81 L 965.58 826.19 L 965.16 823.56" stroke="rgb(140,255,190)" stroke-opacity="0.724" stroke-width="1.15" />
  <path d="M 995.54 960.26 L 996.03 957.24 L 996.51 954.24 L 997.00 951.25 L 997.49 948.27 L 998.05 945.30 L 998.58 942.34 L 999.13 939.40 L 999.72 936.48 L 1000.31 933.57 L 1000.95 930.69" stroke="rgb(140,255,190)" stroke-opacity="0.723" stroke-width="1.15" />
  <path d="M 997.00 999.24 L 996.95 996.00 L 996.91 992.76 L 996.86 989.54 L 996.84 986.33 L 996.83 983.14 L 996.76 979.95 L 996.70 976.78 L 996.61 973.63 L 996.53 970.48 L 996.41 967.35 L 996.30 964.24 L 996.19 961.13 L 996.07 958.04 L 995.96 954.96 L 995.86 951.89 L 995.78 948.83 L 995.71 945.78 L 995.61 942.75 L 995.50 939.73 L 995.42 936.72 L 995.35 933.73 L 995.30 930.74 L 995.31 927.77 L 995.33 924.81 L 995.34 921.86 L 995.37 918.92 L 995.44 915.99 L 995.55 913.08 L 995.68 910.18 L 995.79 907.29 L 995.89 904.42 L 995.99 901.55 L 996.11 898.70 L 996.26 895.86 L 996.42 893.03 L 996.60 890.21 L 996.75 887.40 L 996.89 884.61 L 997.03 881.82 L 997.19 879.05 L 997.35 876.29 L 997.52 873.55 L 997.71 870.81 L 997.92 868.09 L 998.11 865.38 L 998.36 862.68 L 998.60 860.00 L 998.84 857.33 L 999.08 854.66 L 999.30 852.00 L 999.51 849.36 L 999.73 846.72 L 999.94 844.09 L 1000.16 841.47 L 1000.37 838.87 L 1000.58 836.27 L 1000.79 833.68 L 1000.99 831.11 L 1001.19 828.55 L 1001.40 825.99 L 1001.60 823.45 L 1001.79 820.91 L 1001.93 818.38 L 1002.07 815.87 L 1002.18 813.36 L 1002.31 810.86 L 1002.45 808.38 L 1002.59 805.90 L 1002.73 803.43 L 1002.89 800.98 L 1003.06 798.53 L 1003.21 796.09 L 1003.35 793.67 L 1003.52 791.25" stroke="rgb(140,255,190)" stroke-opacity="0.720" stroke-width="1.14" />
  <path d="M 995.15 927.56 L 995.34 925.25 L 995.46 922.95 L 995.62 920.67 L 995.63 918.40 L 995.64 916.15 L 995.81 913.90 L 995.95 911.62 L 996.05 909.32 L 996.19 907.01 L 996.32 904.72 L 996.45 902.43 L 996.53 900.16 L 996.61 897.91 L 996.68 895.68 L 996.59 893.40 L 996.52 891.13 L 996.34 888.88 L 996.13 886.64 L 996.15 884.40 L 996.11 882.17 L 996.12 879.97" stroke="rgb(140,255,190)" stroke-opacity="0.539" stroke-width="1.14" />
  <path d="M 998.91 959.78 L 998.49 956.86 L 998.08 953.96 L 997.68 951.07 L 997.27 948.15 L 996.90 945.24 L 996.43 942.37 L 996.00 939.49 L 995.62 936.64 L 995.24 933.79 L 994.84 930.96 L 994.50 928.13 L 994.16 925.31 L 993.79 922.51 L 993.33 919.71 L 992.83 916.93 L 992.41 914.14 L 992.01 911.35 L 991.61 908.57 L 991.23 905.80 L 990.84 903.04 L 990.53 900.26 L 990.19 897.49 L 989.96 894.73 L 989.74 891.98 L 989.55 889.23 L 989.38 886.50 L 989.34 883.77 L 989.29 881.06 L 989.18 878.34 L 989.06 875.67 L 988.92 873.02 L 988.79 870.38 L 988.81 867.76 L 988.83 865.15 L 988.86 862.55 L 988.87 859.94 L 988.89 857.35 L 988.84 854.78 L 988.81 852.20 L 988.80 849.64 L 988.79 847.09 L 988.84 844.54 L 988.87 842.00 L 988.94 839.48" stroke="rgb(140,255,190)" stroke-opacity="0.718" stroke-width="1.14" />
  <path d="M 1005.25 937.39 L 1005.56 934.65 L 1005.88 931.91 L 1006.17 929.16 L 1006.34 926.44 L 1006.53 923.73 L 1006.65 921.00 L 1006.86 918.29 L 1007.13 915.56 L 1007.41 912.85 L 1007.63 910.13 L 1007.86 907.42 L 1008.08 904.71 L 1008.31 902.01 L 1008.65 899.33 L 1008.99 896.66 L 1009.34 894.01 L 1009.70 891.36" stroke="rgb(140,255,190)" stroke-opacity="0.537" stroke-width="1.13" />
  <path d="M 999.31 1001.00 L 999.03 997.95 L 998.76 994.92 L 998.38 991.91 L 998.03 988.90 L 997.66 985.92 L 997.28 982.95 L 997.01 979.96 L 996.73 977.00 L 996.36 974.06 L 995.98 971.12 L 995.59 968.20 L 995.22 965.29 L 994.86 962.39 L 994.50 959.50 L 994.08 956.64 L 993.65 953.78 L 993.25 950.93 L 992.84 948.09 L 992.43 945.27 L 992.04 942.45 L 991.65 939.65 L 991.25 936.86 L 990.86 934.07 L 990.47 931.30 L 990.14 928.52 L 989.74 925.77 L 989.39 923.02 L 988.93 920.30 L 988.53 917.58 L 988.22 914.86 L 987.89 912.16 L 987.57 909.46" stroke="rgb(140,255,190)" stroke-opacity="0.535" stroke-width="1.13" />
  <path d="M 960.43 884.12 L 958.78 881.58 L 957.13 879.05 L 955.32 876.63 L 953.46 874.25 L 951.56 871.96 L 949.69 869.65 L 947.85 867.33 L 946.00 865.02 L 944.06 862.83 L 942.12 860.65 L 940.21 858.47 L 938.29 856.31 L 936.55 854.03 L 934.81 851.76 L 933.14 849.43 L 931.47 847.12 L 929.81 844.82 L 928.16 842.52 L 926.43 840.30 L 924.71 838.10 L 923.00 835.89 L 921.32 833.68 L 919.64 831.48 L 917.98 829.29 L 916.33 827.09 L 914.70 824.88 L 913.09 822.68 L 911.44 820.52 L 909.85 818.31 L 908.20 816.16 L 906.57 814.01 L 904.95 811.86 L 903.34 809.71 L 901.74 807.58 L 900.06 805.53 L 898.45 803.42 L 896.81 801.36 L 895.26 799.25 L 893.69 797.17 L 892.13 795.08 L 890.57 793.00 L 889.02 790.93 L 887.36 788.96 L 885.71 787.00 L 884.05 785.05 L 882.41 783.09 L 880.73 781.18 L 879.00 779.33 L 877.15 777.61 L 875.39 775.84 L 873.69 774.02 L 872.07 772.13 L 870.51 770.20 L 869.02 768.23 L 867.54 766.26 L 866.07 764.29 L 864.59 762.35 L 863.12 760.40 L 861.65 758.46 L 860.21 756.51 L 858.76 754.58 L 857.35 752.63 L 855.94 750.69 L 854.55 748.75 L 853.12 746.86 L 851.65 745.00 L 850.17 743.16 L 848.68 741.35 L 847.16 739.57 L 845.66 737.78 L 844.18 736.00" stroke="rgb(140,255,190)" stroke-opacity="0.535" stroke-width="1.13" />
  <path d="M 999.08 999.49 L 999.02 996.42 L 998.97 993.37 L 998.95 990.32 L 998.98 987.29 L 999.00 984.27" stroke="rgb(140,255,190)" stroke-opacity="0.531" stroke-width="1.11" />
  <path d="M 996.58 999.27 L 996.60 996.62 L 996.65 993.98 L 996.82 991.36 L 997.01 988.76 L 997.21 986.17 L 997.45 983.59 L 997.72 981.04 L 997.98 978.49 L 998.17 975.95 L 998.36 973.44 L 998.51 970.94 L 998.67 968.46 L 998.81 965.99 L 999.01 963.53 L 999.25 961.08 L 999.48 958.68 L 999.77 956.27 L 1000.05 953.88 L 1000.34 951.53 L 1000.66 949.18 L 1000.94 946.82 L 1001.29 944.48 L 1001.63 942.13 L 1002.01 939.81 L 1002.44 937.51 L 1002.90 935.22 L 1003.30 932.92 L 1003.82 930.69 L 1004.33 928.44 L 1004.81 926.18 L 1005.19 923.91 L 1005.56 921.65 L 1005.92 919.39 L 1006.32 917.15 L 1006.72 914.92 L 1007.16 912.73 L 1007.57 910.56 L 1007.94 908.38 L 1008.31 906.20 L 1008.73 904.03 L 1009.09 901.87 L 1009.43 899.71 L 1009.77 897.57 L 1010.12 895.45 L 1010.43 893.34 L 1010.70 891.22 L 1010.97 889.14 L 1011.21 887.05 L 1011.44 884.96 L 1011.65 882.88 L 1011.87 880.80 L 1012.09 878.72 L 1012.26 876.66 L 1012.34 874.60 L 1012.42 872.54" stroke="rgb(140,255,190)" stroke-opacity="0.531" stroke-width="1.11" />
  <path d="M 999.11 997.27 L 998.83 994.22 L 998.55 991.18 L 998.28 988.15 L 998.02 985.13 L 997.76 982.13 L 997.48 979.14 L 997.28 976.16 L 997.09 973.19 L 996.94 970.22 L 996.75 967.27 L 996.66 964.34 L 996.60 961.42 L 996.54 958.52 L 996.46 955.62 L 996.39 952.74 L 996.21 949.89 L 996.03 947.06 L 995.87 944.24 L 995.72 941.43 L 995.59 938.63 L 995.49 935.85 L 995.40 933.07 L 995.27 930.31 L 995.15 927.56 L 995.07 924.82 L 994.96 922.09 L 994.83 919.37 L 994.69 916.65 L 994.60 913.95 L 994.54 911.26 L 994.46 908.58 L 994.36 905.92" stroke="rgb(140,255,190)" stroke-opacity="0.530" stroke-width="1.11" />
  <path d="M 999.70 1002.15 L 999.57 999.27 L 999.41 996.39 L 999.22 993.54 L 999.03 990.69 L 998.73 987.86 L 998.46 985.04 L 998.15 982.24 L 997.85 979.45 L 997.60 976.66 L 997.25 973.90 L 996.88 971.15 L 996.53 968.41 L 996.21 965.68 L 995.88 962.97 L 995.54 960.26 L 995.27 957.56 L 994.99 954.87 L 994.78 952.19 L 994.57 949.52 L 994.36 946.85 L 994.21 944.19 L 994.03 941.55 L 993.86 938.91 L 993.65 936.29 L 993.49 933.68 L 993.33 931.07" stroke="rgb(140,255,190)" stroke-opacity="0.530" stroke-width="1.11" />
  <path d="M 999.62 1000.97 L 999.56 997.95 L 999.51 994.94 L 999.48 991.95 L 999.46 988.96 L 999.43 985.99 L 999.33 983.03 L 999.20 980.09 L 999.06 977.15 L 998.94 974.23 L 998.88 971.32 L 998.85 968.41 L 998.86 965.52 L 998.87 962.64 L 998.91 959.78 L 998.95 956.92 L 999.01 954.08 L 998.97 951.25 L 998.94 948.43 L 998.95 945.62 L 999.00 942.82 L 999.06 940.03 L 999.10 937.26 L 999.17 934.49 L 999.23 931.75" stroke="rgb(140,255,190)" stroke-opacity="0.530" stroke-width="1.11" />
  <path d="M 994.78 952.19 L 995.41 949.29 L 996.08 946.41 L 996.79 943.55 L 997.55 940.72 L 998.27 937.90 L 998.99 935.09 L 999.77 932.30 L 1000.55 929.53 L 1001.20 926.74 L 1001.76 923.95 L 1002.27 921.16 L 1002.76 918.38 L 1003.26 915.61 L 1003.73 912.84 L 1004.15 910.07 L 1004.58 907.32 L 1005.01 904.58 L 1005.45 901.85 L 1005.93 899.13 L 1006.33 896.42 L 1006.84 893.74 L 1007.32 891.07 L 1007.93 888.43 L 1008.51 885.80 L 1009.05 883.18 L 1009.65 880.57 L 1010.31 877.98 L 1010.95 875.40 L 1011.57 872.82 L 1012.09 870.23 L 1012.70 867.67 L 1013.32 865.13 L 1013.93 862.59 L 1014.52 860.06 L 1015.12 857.54 L 1015.72 855.03 L 1016.35 852.54 L 1016.99 850.06 L 1017.64 847.60 L 1018.19 845.12 L 1018.74 842.65 L 1019.32 840.20 L 1019.93 837.77 L 1020.51 835.35 L 1021.09 832.93 L 1021.66 830.52 L 1022.24 828.13 L 1022.89 825.76 L 1023.46 823.38 L 1023.96 820.99 L 1024.51 818.63 L 1025.04 816.27 L 1025.58 813.92 L 1026.08 811.57 L 1026.59 809.24 L 1027.14 806.92 L 1027.77 804.64 L 1028.40 802.36 L 1029.02 800.09 L 1029.66 797.84 L 1030.25 795.58 L 1030.74 793.31" stroke="rgb(140,255,190)" stroke-opacity="0.530" stroke-width="1.11" />
  <path d="M 990.14 928.52 L 989.06 925.98 L 987.96 923.48 L 986.84 920.99 L 985.73 918.52 L 984.60 916.08 L 983.49 913.64 L 982.40 911.17 L 981.32 908.71 L 980.27 906.25" stroke="rgb(140,255,190)" stroke-opacity="0.530" stroke-width="1.11" />
  <path d="M 1002.55 997.12 L 1002.53 994.25 L 1002.47 991.40 L 1002.40 988.55 L 1002.34 985.72 L 1002.31 982.90 L 1002.27 980.09 L 1002.26 977.29 L 1002.24 974.50 L 1002.24 971.73 L 1002.27 968.96 L 1002.32 966.21 L 1002.37 963.47 L 1002.45 960.74 L 1002.47 958.02 L 1002.49 955.30 L 1002.50 952.61 L 1002.49 949.92 L 1002.54 947.24 L 1002.55 944.58 L 1002.49 941.92 L 1002.42 939.28 L 1002.35 936.64 L 1002.26 934.02 L 1002.20 931.41 L 1002.16 928.82 L 1002.15 926.23 L 1002.09 923.65" stroke="rgb(140,255,190)" stroke-opacity="0.529" stroke-width="1.11" />
  <path d="M 1002.15 997.93 L 1001.86 995.43 L 1001.51 992.92 L 1001.12 990.43 L 1000.75 987.92 L 1000.42 985.44 L 1000.09 982.97 L 999.81 980.52 L 999.53 978.08 L 999.21 975.66" stroke="rgb(140,255,190)" stroke-opacity="0.529" stroke-width="1.11" />
  <path d="M 1000.82 1002.63 L 1000.87 999.66 L 1000.95 996.70 L 1001.03 993.76 L 1001.11 990.82 L 1001.20 987.90 L 1001.20 985.00 L 1001.21 982.11 L 1001.24 979.23 L 1001.12 976.36 L 1001.01 973.51 L 1000.90 970.67 L 1000.85 967.85 L 1000.78 965.04 L 1000.71 962.24 L 1000.52 959.45 L 1000.33 956.68 L 1000.18 953.92 L 999.95 951.17 L 999.74 948.44 L 999.56 945.71 L 999.37 943.01 L 999.14 940.32 L 998.90 937.64 L 998.66 934.98 L 998.40 932.33 L 998.18 929.68 L 997.94 927.05 L 997.73 924.43 L 997.60 921.84 L 997.46 919.25 L 997.25 916.68 L 997.04 914.13 L 996.83 911.58 L 996.63 909.05 L 996.40 906.53 L 996.20 904.01 L 995.95 901.51 L 995.69 899.03 L 995.37 896.59 L 995.04 894.15 L 994.69 891.73 L 994.44 889.30 L 994.19 886.87 L 993.95 884.47 L 993.71 882.09 L 993.47 879.73 L 993.24 877.38 L 993.04 875.04 L 992.82 872.71 L 992.65 870.37 L 992.50 868.06 L 992.38 865.76 L 992.29 863.46 L 992.23 861.16 L 992.19 858.87 L 992.18 856.60 L 992.18 854.33 L 992.17 852.08 L 992.20 849.83 L 992.17 847.58 L 992.16 845.34 L 992.16 843.11 L 992.11 840.90 L 992.06 838.70 L 992.00 836.50 L 991.98 834.32 L 991.95 832.15 L 991.94 829.99 L 991.95 827.84 L 991.96 825.67 L 991.95 823.51 L 991.96 821.35 L 991.95 819.19 L 991.95 817.05 L 991.94 814.91 L 991.96 812.77 L 991.97 810.62 L 991.95 808.50" stroke="rgb(140,255,190)" stroke-opacity="0.529" stroke-width="1.11" />
  <path d="M 989.74 925.77 L 988.10 923.34 L 986.44 920.95 L 984.72 918.61 L 983.00 916.28 L 981.28 913.97 L 979.53 911.68 L 977.91 909.31 L 976.33 906.93 L 974.75 904.58 L 973.14 902.24 L 971.54 899.93 L 969.93 897.64 L 968.33 895.36 L 966.68 893.13 L 965.07 890.89 L 963.53 888.61 L 961.98 886.36 L 960.43 884.12 L 958.84 881.92 L 957.26 879.73 L 955.70 877.53 L 954.14 875.35 L 952.59 873.18 L 951.04 871.02 L 949.49 868.87" stroke="rgb(140,255,190)" stroke-opacity="0.529" stroke-width="1.11" />
  <path d="M 990.86 934.07 L 989.78 931.54 L 988.72 929.03 L 987.51 926.61 L 986.25 924.22 L 985.05 921.83 L 983.81 919.46 L 982.59 917.11 L 981.35 914.78 L 980.06 912.45" stroke="rgb(140,255,190)" stroke-opacity="0.528" stroke-width="1.10" />
  <path d="M 999.39 1000.18 L 998.70 997.37 L 997.91 994.59 L 997.13 991.82 L 996.26 989.10 L 995.40 986.38 L 994.55 983.67 L 993.68 980.98 L 992.79 978.30 L 991.90 975.64 L 990.99 973.00 L 990.12 970.35 L 989.25 967.73 L 988.34 965.12 L 987.48 962.52 L 986.69 959.92 L 985.94 957.33 L 985.22 954.74 L 984.49 952.18 L 983.72 949.63 L 982.93 947.08 L 982.21 944.53 L 981.50 941.99 L 980.75 939.46 L 980.10 936.92 L 979.42 934.40 L 978.80 931.88 L 978.19 929.38 L 977.55 926.89 L 976.95 924.41 L 976.36 921.92 L 975.71 919.46 L 975.06 917.01 L 974.39 914.58 L 973.74 912.16 L 973.17 909.73" stroke="rgb(140,255,190)" stroke-opacity="0.528" stroke-width="1.10" />
  <path d="M 999.00 942.82 L 998.21 940.26 L 997.57 937.67 L 996.94 935.08 L 996.30 932.50 L 995.64 929.94 L 994.99 927.39 L 994.29 924.87 L 993.62 922.34 L 992.92 919.84 L 992.18 917.36 L 991.45 914.89 L 990.86 912.40 L 990.26 909.93 L 989.54 907.50 L 988.77 905.09 L 988.01 902.69 L 987.26 900.31 L 986.49 897.94 L 985.72 895.58 L 984.94 893.24 L 984.19 890.89 L 983.39 888.56 L 982.55 886.27 L 981.72 883.97 L 980.93 881.67 L 980.14 879.37 L 979.22 877.14 L 978.37 874.88 L 977.58 872.61 L 976.74 870.38 L 975.84 868.17 L 974.98 865.96 L 974.16 863.75 L 973.34 861.54 L 972.55 859.33 L 971.71 857.16 L 970.97 854.96 L 970.32 852.73 L 969.74 850.50 L 969.15 848.28" stroke="rgb(140,255,190)" stroke-opacity="0.526" stroke-width="1.10" />
  <path d="M 998.37 1001.14 L 997.94 998.31 L 997.47 995.51 L 996.98 992.73 L 996.51 989.95 L 996.03 987.20 L 995.56 984.45 L 995.11 981.70 L 994.70 978.98 L 994.27 976.28 L 993.87 973.57 L 993.38 970.89 L 992.93 968.22 L 992.47 965.56 L 992.01 962.91 L 991.59 960.27 L 991.00 957.65 L 990.40 955.04 L 989.75 952.45 L 989.15 949.85 L 988.55 947.26 L 988.00 944.67" stroke="rgb(140,255,190)" stroke-opacity="0.525" stroke-width="1.09" />
  <path d="M 999.35 1003.25 L 998.71 1000.88 L 998.25 998.48 L 997.78 996.09 L 997.36 993.69 L 996.97 991.29 L 996.57 988.93 L 996.11 986.59 L 995.60 984.27 L 995.08 981.96 L 994.59 979.66 L 994.12 977.38 L 993.73 975.09 L 993.33 972.81 L 992.97 970.53 L 992.73 968.23 L 992.49 965.95 L 992.20 963.69 L 991.90 961.44 L 991.61 959.20 L 991.33 956.96 L 991.05 954.74 L 990.76 952.54 L 990.45 950.37 L 990.15 948.20 L 989.72 946.05 L 989.33 943.87 L 988.99 941.71 L 988.65 939.56 L 988.31 937.41 L 987.97 935.26" stroke="rgb(205,165,255)" stroke-opacity="0.465" stroke-width="1.09" />
  <path d="M 1012.86 1999.98 L 1013.23 1996.98 L 1012.72 1993.72 L 1013.04 1990.68 L 1012.69 1988.36 L 1012.65 1984.74 L 1012.56 1981.91 L 1012.60 1978.80 L 1012.79 1975.56 L 1012.76 1972.87 L 1012.57 1969.89 L 1012.76 1967.41 L 1012.73 1964.08 L 1012.06 1961.07 L 1012.38 1957.86 L 1012.48 1955.33 L 1012.45 1952.11 L 1012.21 1948.47 L 1012.21 1946.14 L 1012.20 1943.28 L 1012.22 1940.10 L 1012.08 1937.13 L 1012.18 1933.93 L 1011.70 1931.08 L 1012.12 1928.28 L 1012.15 1925.56 L 1012.26 1921.91 L 1012.03 1918.86 L 1012.11 1916.12 L 1012.12 1912.74 L 1011.92 1909.77 L 1012.03 1906.88 L 1012.33 1903.74 L 1011.91 1900.48 L 1012.08 1898.43 L 1011.66 1894.86 L 1011.66 1892.01 L 1011.67 1889.12 L 1011.10 1885.94 L 1011.52 1883.11 L 1011.40 1880.20 L 1011.78 1877.18 L 1011.50 1874.09 L 1011.46 1870.85 L 1011.35 1868.04 L 1011.28 1864.50 L 1010.94 1862.25 L 1010.98 1859.58 L 1010.72 1856.14 L 1011.36 1853.14 L 1011.08 1849.90 L 1011.14 1846.91 L 1010.81 1844.28 L 1011.35 1841.11 L 1010.83 1838.05 L 1010.72 1835.47 L 1010.74 1831.87 L 1010.94 1829.09 L 1010.80 1825.65 L 1010.58 1823.42 L 1010.57 1819.96 L 1010.78 1816.96 L 1010.98 1813.61 L 1010.66 1811.30 L 1010.76 1808.21 L 1010.38 1804.86 L 1010.28 1801.92 L 1010.43 1798.97 L 1010.26 1796.18 L 1010.49 1792.95 L 1010.40 1790.29 L 1010.37 1787.39 L 1009.75 1783.77 L 1010.26 1780.74 L 1010.11 1778.38 L 1010.11 1774.93 L 1010.07 1772.73 L 1010.00 1769.32 L 1009.98 1765.87 L 1010.07 1762.73 L 1009.86 1760.34 L 1009.77 1756.67 L 1009.94 1753.93 L 1009.67 1751.01 L 1009.35 1747.86 L 1009.33 1745.07 L 1009.74 1742.50 L 1009.76 1739.06 L 1009.68 1736.17 L 1009.90 1732.83 L 1009.53 1729.88 L 1008.91 1727.17 L 1009.59 1724.12 L 1009.63 1720.78 L 1009.50 1718.00 L 1009.38 1715.19 L 1009.22 1711.84 L 1009.50 1709.09 L 1009.74 1706.03 L 1009.33 1703.20 L 1008.98 1699.87 L 1009.19 1696.36 L 1009.00 1694.27 L 1008.50 1690.92 L 1008.71 1687.99 L 1008.86 1685.20 L 1008.92 1681.86 L 1008.60 1679.34 L 1008.74 1676.05 L 1009.14 1672.86 L 1008.39 1670.01 L 1008.56 1667.41 L 1009.09 1664.00 L 1008.38 1661.18 L 1008.63 1658.01 L 1008.78 1655.25 L 1008.53 1651.78 L 1008.52 1648.83 L 1008.20 1645.97 L 1008.41 1643.19 L 1008.16 1639.67 L 1008.12 1636.82 L 1008.21 1633.72 L 1008.17 1631.04 L 1008.14 1628.12 L 1008.31 1625.07 L 1007.69 1621.80 L 1007.84 1618.69 L 1008.14 1615.92 L 1008.19 1612.93 L 1007.52 1609.99 L 1007.58 1606.78 L 1007.84 1603.83 L 1008.01 1601.21 L 1007.54 1598.02 L 1007.67 1594.95 L 1007.94 1591.66 L 1007.65 1589.19 L 1007.88 1585.78 L 1007.91 1583.33 L 1007.65 1579.91 L 1007.29 1576.91 L 1007.18 1574.03 L 1007.55 1570.54 L 1007.22 1568.52 L 1007.28 1564.74 L 1007.41 1562.36 L 1007.57 1558.98 L 1007.50 1555.88 L 1007.18 1552.97 L 1007.32 1550.18 L 1006.93 1547.00 L 1007.43 1543.82 L 1007.11 1540.66 L 1006.87 1538.39 L 1006.96 1534.91 L 1006.53 1531.86 L 1006.80 1529.04 L 1006.51 1525.79 L 1006.78 1523.35 L 1006.65 1520.00 L 1006.77 1517.12 L 1006.60 1514.16 L 1006.67 1511.31 L 1006.28 1508.01 L 1006.63 1505.22 L 1006.64 1501.64 L 1006.42 1498.85 L 1006.53 1495.78 L 1006.28 1492.90 L 1006.21 1490.32 L 1006.44 1487.28 L 1006.09 1484.04 L 1006.28 1481.38 L 1006.10 1477.97 L 1005.81 1474.99 L 1006.41 1472.26 L 1006.25 1468.92 L 1006.09 1466.18 L 1006.17 1463.26 L 1006.04 1460.32 L 1005.91 1456.85 L 1005.87 1454.14 L 1006.13 1451.01 L 1005.67 1448.01 L 1006.11 1445.61 L 1005.38 1442.56 L 1005.95 1439.22 L 1005.40 1436.18 L 1005.81 1433.17 L 1005.47 1430.44 L 1005.52 1426.71 L 1006.05 1423.98 L 1005.43 1421.20 L 1005.45 1417.86 L 1005.46 1414.92 L 1005.20 1412.11 L 1005.35 1408.93 L 1005.72 1406.04 L 1005.60 1403.19 L 1005.09 1400.31 L 1004.79 1397.62 L 1005.26 1394.13 L 1005.33 1391.11 L 1005.00 1387.78 L 1004.98 1384.90 L 1004.96 1381.96 L 1004.75 1378.95 L 1004.57 1375.74 L 1004.82 1373.01 L 1004.75 1369.76 L 1004.91 1367.21 L 1004.61 1363.97 L 1004.56 1360.89 L 1004.64 1358.40 L 1004.25 1355.07 L 1004.77 1351.85 L 1004.23 1349.53 L 1004.45 1345.76 L 1004.12 1342.88 L 1004.68 1340.23 L 1004.53 1337.05 L 1004.41 1334.39 L 1003.85 1330.91 L 1004.38 1328.01 L 1004.25 1325.15 L 1004.37 1321.99 L 1004.27 1319.11 L 1003.83 1316.13 L 1003.52 1313.14 L 1004.26 1309.93 L 1004.00 1307.34 L 1004.17 1304.10 L 1003.72 1300.86 L 1003.66 1298.22 L 1003.75 1295.34 L 1003.86 1292.20 L 1003.85 1289.14 L 1003.81 1285.82 L 1003.47 1282.88 L 1003.70 1280.17 L 1003.46 1276.93 L 1003.36 1274.47 L 1003.84 1271.15 L 1003.49 1268.01 L 1003.75 1264.88 L 1003.44 1262.11 L 1003.31 1258.48 L 1002.99 1255.83 L 1003.63 1253.37 L 1003.42 1250.27 L 1003.26 1246.86 L 1003.35 1243.98 L 1003.18 1240.72 L 1003.45 1237.82 L 1002.84 1235.31 L 1003.11 1231.83 L 1003.00 1229.86 L 1002.99 1226.37 L 1002.79 1223.03 L 1002.90 1220.47 L 1002.96 1217.07 L 1002.70 1213.87 L 1002.33 1211.18 L 1002.62 1207.85 L 1002.81 1204.83 L 1002.82 1201.81 L 1002.74 1199.08 L 1002.45 1196.44 L 1002.47 1193.03 L 1001.96 1189.88 L 1002.42 1186.75 L 1002.51 1184.02 L 1002.92 1181.16 L 1002.10 1178.11 L 1002.67 1174.77 L 1002.19 1172.43 L 1001.83 1168.75 L 1002.22 1165.67 L 1002.63 1163.28 L 1002.15 1160.01 L 1002.08 1156.97 L 1001.31 1153.89 L 1001.78 1150.89 L 1001.71 1148.10 L 1001.83 1145.22 L 1001.85 1142.47 L 1001.59 1139.27 L 1001.76 1135.95 L 1001.50 1133.03 L 1001.72 1130.13 L 1001.38 1126.83 L 1001.50 1124.64 L 1001.84 1121.27 L 1001.54 1117.79 L 1001.52 1115.03 L 1001.55 1111.89 L 1001.50 1109.14 L 1001.36 1106.19 L 1001.17 1103.08 L 1001.23 1100.04 L 1001.37 1097.11 L 1001.17 1094.20 L 1001.25 1090.80 L 1001.05 1088.03 L 1001.64 1085.22 L 1001.12 1082.19 L 1000.97 1078.82 L 1000.98 1075.91 L 1001.02 1072.86 L 1001.02 1070.11 L 1001.23 1067.13 L 1001.03 1064.21 L 1000.71 1061.23 L 1000.91 1057.80 L 1000.64 1055.25 L 1000.36 1052.06 L 1000.03 1048.99 L 1000.17 1045.90 L 1000.00 1043.19 L 1000.35 1039.81 L 1000.53 1036.51 L 1000.57 1034.12 L 1000.34 1031.07 L 1000.46 1028.25 L 1000.29 1025.14 L 1000.41 1022.06 L 1000.20 1018.81 L 1000.35 1015.79 L 1000.24 1012.75 L 1000.11 1009.91 L 1000.34 1007.47 L 999.86 1003.91 L 999.87 1001.13 L 1000.00 1000.00 L 999.97 997.00 L 999.96 994.00 L 999.96 991.00 L 999.96 988.00 L 999.96 985.00 L 999.96 982.00 L 999.96 979.00 L 999.94 976.00 L 999.92 973.00 L 999.91 970.00 L 999.92 967.00 L 999.91 964.00 L 999.89 961.00 L 999.88 958.00 L 999.86 955.00 L 999.85 952.00 L 999.84 949.00 L 999.83 946.00 L 999.84 943.00 L 999.85 940.00 L 999.85 937.00 L 999.86 934.00 L 999.90 931.00 L 999.97 928.00 L 1000.03 925.00 L 1000.06 922.00 L 1000.08 919.00 L 1000.11 916.00 L 1000.15 913.00 L 1000.15 910.00 L 1000.16 907.00 L 1000.19 904.00 L 1000.20 901.00 L 1000.19 898.00 L 1000.19 895.00 L 1000.20 892.00 L 1000.21 889.00 L 1000.22 886.00 L 1000.21 883.00 L 1000.19 880.00 L 1000.17 877.00 L 1000.15 874.00 L 1000.13 871.00 L 1000.10 868.00 L 1000.09 865.00 L 1000.09 862.00 L 1000.09 859.00 L 1000.09 856.00 L 1000.08 853.00 L 1000.08 850.00 L 1000.08 847.00 L 1000.07 844.00 L 1000.05 841.00 L 1000.06 838.00 L 1000.06 835.00 L 1000.07 832.00 L 1000.08 829.00 L 1000.10 826.00 L 1000.12 823.00 L 1000.14 820.00 L 1000.15 817.00 L 1000.15 814.00 L 1000.14 811.00 L 1000.15 808.00 L 1000.14 805.00 L 1000.13 802.00 L 1000.09 799.00 L 1000.05 796.00 L 1000.00 793.00 L 999.96 790.00 L 999.92 787.01 L 999.87 784.01 L 999.82 781.01 L 999.77 778.01 L 999.72 775.01 L 999.69 772.01 L 999.66 769.01 L 999.63 766.01 L 999.61 763.01 L 999.60 760.01 L 999.58 757.01 L 999.58 754.01 L 999.56 751.01 L 999.52 748.01 L 999.49 745.01 L 999.46 742.01 L 999.43 739.01 L 999.38 736.01 L 999.31 733.01 L 999.23 730.01 L 999.15 727.01 L 999.07 724.01 L 998.97 721.01 L 998.85 718.02 L 998.74 715.02 L 998.63 712.02 L 998.52 709.02 L 998.40 706.03 L 998.28 703.03 L 998.16 700.03 L 998.04 697.03 L 997.93 694.03 L 997.83 691.04 L 997.74 688.04 L 997.65 685.04 L 997.53 682.04 L 997.42 679.04 L 997.29 676.05 L 997.15 673.05 L 996.99 670.05 L 996.85 667.06 L 996.71 664.06 L 996.54 661.06 L 996.39 658.07 L 996.23 655.07 L 996.07 652.08 L 995.88 649.08 L 995.69 646.09 L 995.50 643.09 L 995.32 640.10 L 995.14 637.11 L 994.97 634.11 L 994.78 631.12 L 994.61 628.12 L 994.43 625.13 L 994.26 622.13 L 994.09 619.14 L 993.92 616.14 L 993.77 613.15 L 993.62 610.15 L 993.46 607.15 L 993.32 604.16 L 993.17 601.16 L 993.02 598.16 L 992.89 595.17 L 992.77 592.17 L 992.64 589.17 L 992.51 586.17 L 992.39 583.18 L 992.28 580.18 L 992.16 577.18 L 992.04 574.18 L 991.92 571.19 L 991.82 568.19 L 991.70 565.19 L 991.59 562.19 L 991.46 559.20 L 991.33 556.20 L 991.21 553.20 L 991.08 550.20 L 990.96 547.21 L 990.83 544.21 L 990.73 541.21 L 990.63 538.21 L 990.52 535.21 L 990.41 532.22 L 990.28 529.22 L 990.16 526.22 L 990.04 523.22 L 989.92 520.23 L 989.81 517.23 L 989.72 514.23 L 989.62 511.23 L 989.52 508.23 L 989.43 505.23 L 989.34 502.24 L 989.25 499.24 L 989.13 496.24 L 989.02 493.24 L 988.91 490.24 L 988.80 487.25 L 988.69 484.25 L 988.60 481.25 L 988.52 478.25 L 988.44 475.25 L 988.36 472.25 L 988.29 469.25 L 988.22 466.25 L 988.19 463.25 L 988.16 460.25 L 988.12 457.25 L 988.09 454.25 L 988.06 451.25 L 988.00 448.25 L 987.94 445.26 L 987.87 442.26 L 987.80 439.26 L 987.75 436.26 L 987.69 433.26 L 987.63 430.26 L 987.56 427.26 L 987.49 424.26 L 987.41 421.26 L 987.32 418.26 L 987.24 415.26 L 987.15 412.26 L 987.07 409.27 L 987.00 406.27 L 986.92 403.27 L 986.85 400.27 L 986.80 397.27 L 986.75 394.27 L 986.69 391.27 L 986.63 388.27 L 986.58 385.27 L 986.55 382.27 L 986.51 379.27 L 986.48 376.27 L 986.45 373.27 L 986.45 370.27 L 986.44 367.27 L 986.45 364.27 L 986.45 361.27 L 986.45 358.27 L 986.44 355.27 L 986.44 352.27 L 986.44 349.27 L 986.43 346.27 L 986.43 343.27 L 986.43 340.27 L 986.44 337.27 L 986.45 334.27 L 986.45 331.27 L 986.44 328.27 L 986.44 325.27 L 986.45 322.27 L 986.45 319.27 L 986.47 316.27 L 986.49 313.27 L 986.51 310.27 L 986.54 307.27 L 986.56 304.27 L 986.59 301.27 L 986.60 298.27 L 986.61 295.27 L 986.59 292.27 L 986.58 289.27 L 986.57 286.27 L 986.57 283.27 L 986.56 280.27 L 986.57 277.27 L 986.58 274.27 L 986.59 271.27 L 986.61 268.27 L 986.62 265.27 L 986.63 262.27 L 986.64 259.27 L 986.64 256.27 L 986.64 253.27 L 986.62 250.27 L 986.60 247.27 L 986.58 244.27 L 986.56 241.27 L 986.54 238.27 L 986.50 235.27 L 986.47 232.27 L 986.44 229.27 L 986.41 226.27 L 986.36 223.27 L 986.31 220.27 L 986.26 217.28 L 986.21 214.28 L 986.18 211.28 L 986.15 208.28 L 986.12 205.28 L 986.08 202.28 L 986.07 199.28 L 986.05 196.28 L 986.02 193.28 L 985.99 190.28 L 985.97 187.28 L 985.94 184.28 L 985.91 181.28 L 985.89 178.28 L 985.88 175.28 L 985.87 172.28 L 985.87 169.28 L 985.88 166.28 L 985.89 163.28 L 985.87 160.28 L 985.86 157.28 L 985.83 154.28 L 985.81 151.28 L 985.80 148.28 L 985.78 145.28 L 985.77 142.28 L 985.77 139.28 L 985.77 136.28 L 985.76 133.28 L 985.75 130.28 L 985.73 127.28 L 985.71 124.28 L 985.71 121.28 L 985.70 118.28 L 985.69 115.28 L 985.70 112.28 L 985.71 109.28 L 985.71 106.28 L 985.68 103.28 L 985.66 100.28 L 985.66 97.28 L 985.66 94.28 L 985.64 91.28 L 985.62 88.28 L 985.59 85.28 L 985.56 82.28 L 985.54 79.28 L 985.52 76.28 L 985.50 73.28 L 985.50 70.28 L 985.47 67.28 L 985.43 64.28 L 985.39 61.28 L 985.35 58.28 L 985.33 55.28 L 985.33 52.28 L 985.35 49.28 L 985.37 46.28 L 985.40 43.28 L 985.44 40.28 L 985.46 37.28 L 985.47 34.28 L 985.48 31.28 L 985.46 28.28 L 985.46 25.28 L 985.44 22.28 L 985.44 19.28 L 985.43 16.28 L 985.42 13.28 L 985.40 10.28 L 985.39 7.28 L 985.36 4.28 L 985.33 1.28 L 985.29 -1.72 L 985.26 -4.72 L 985.20 -7.72 L 985.14 -10.72 L 985.06 -13.72 L 984.97 -16.72 L 984.89 -19.71 L 984.80 -22.71" stroke="rgb(245,245,245)" stroke-opacity="0.699" stroke-width="1.09" />
  <path d="M 1001.92 999.64 L 1002.16 996.80 L 1002.40 993.99 L 1002.63 991.18 L 1002.90 988.39 L 1003.18 985.61 L 1003.43 982.83 L 1003.62 980.08 L 1003.76 977.33 L 1003.82 974.59 L 1003.91 971.87 L 1003.99 969.15 L 1004.03 966.44 L 1004.06 963.75 L 1004.15 961.06 L 1004.25 958.39 L 1004.34 955.73 L 1004.47 953.08 L 1004.59 950.44 L 1004.71 947.81 L 1004.85 945.19 L 1004.98 942.58 L 1005.12 939.98 L 1005.25 937.39 L 1005.43 934.81 L 1005.63 932.25" stroke="rgb(140,255,190)" stroke-opacity="0.523" stroke-width="1.09" />
  <path d="M 1001.26 1005.68 L 1002.47 1006.54 L 1003.54 1007.55 L 1004.60 1008.56" stroke="rgb(230,230,230)" stroke-opacity="0.383" stroke-width="0.71" />
  <path d="M 999.71 1001.23 L 1000.62 1002.30 L 1001.57 1003.31 L 1002.50 1004.32 L 1003.40 1005.37 L 1004.35 1006.35 L 1005.29 1007.26 L 1006.24 1008.21 L 1007.23 1009.08 L 1008.21 1009.88 L 1009.17 1010.67 L 1010.10 1011.49 L 1011.08 1012.26" stroke="rgb(230,230,230)" stroke-opacity="0.381" stroke-width="0.70" />
  <path d="M 1001.20 1000.67 L 1002.64 1001.08 L 1004.10 1001.43 L 1005.55 1001.76 L 1007.00 1002.07 L 1008.40 1002.53 L 1009.81 1002.95 L 1011.20 1003.37 L 1012.56 1003.81 L 1013.93 1004.23" stroke="rgb(230,230,230)" stroke-opacity="0.380" stroke-width="0.70" />
  <path d="M 998.88 1005.51 L 999.43 1006.14 L 999.96 1006.81 L 1000.48 1007.49 L 1001.00 1008.17" stroke="rgb(230,230,230)" stroke-opacity="0.380" stroke-width="0.70" />
  <path d="M 998.03 999.20 L 996.94 998.44 L 995.84 997.72 L 994.80 996.91" stroke="rgb(230,230,230)" stroke-opacity="0.380" stroke-width="0.70" />
  <path d="M 995.08 1000.82 L 996.18 1000.28 L 997.29 999.71" stroke="rgb(230,230,230)" stroke-opacity="0.379" stroke-width="0.69" />
  <path d="M 995.16 1002.36 L 996.57 1002.29 L 997.99 1002.32 L 999.41 1002.36 L 1000.87 1002.20 L 1002.32 1002.05 L 1003.77 1001.89 L 1005.23 1001.74 L 1006.67 1001.57 L 1008.12 1001.44 L 1009.55 1001.28 L 1010.99 1001.31" stroke="rgb(230,230,230)" stroke-opacity="0.379" stroke-width="0.69" />
  <path d="M 999.26 1004.84 L 998.88 1006.25 L 998.48 1007.68 L 998.00 1009.08 L 997.48 1010.44 L 996.94 1011.81 L 996.44 1013.18 L 996.11 1014.60" stroke="rgb(230,230,230)" stroke-opacity="0.378" stroke-width="0.69" />
  <path d="M 1002.80 1002.78 L 1003.05 1003.32 L 1003.23 1003.94 L 1003.37 1004.68 L 1003.64 1005.73 L 1003.81 1006.70 L 1003.69 1007.65 L 1003.51 1008.54 L 1003.39 1009.40" stroke="rgb(230,230,230)" stroke-opacity="0.375" stroke-width="0.68" />
  <path d="M 1000.18 1002.89 L 1000.61 1001.63 L 1001.04 1000.38 L 1001.33 999.28 L 1001.44 998.23 L 1001.46 997.14 L 1001.67 996.18 L 1001.90 995.51 L 1002.06 994.82 L 1002.20 994.05 L 1002.32 993.29 L 1002.41 992.45" stroke="rgb(230,230,230)" stroke-opacity="0.375" stroke-width="0.68" />
  <path d="M 1002.36 994.11 L 1001.85 993.61 L 1001.48 992.79 L 1001.10 991.95 L 1000.73 991.07 L 1000.51 990.29 L 1000.30 989.54" stroke="rgb(230,230,230)" stroke-opacity="0.374" stroke-width="0.68" />
  <path d="M 1003.83 1001.20 L 1002.58 1001.97 L 1001.30 1002.71 L 1000.03 1003.45 L 998.89 1004.37 L 997.83 1005.38 L 996.65 1006.25 L 995.50 1007.15 L 994.36 1008.05 L 993.23 1008.96 L 992.19 1009.96" stroke="rgb(230,230,230)" stroke-opacity="0.372" stroke-width="0.67" />
  <path d="M 1003.72 1001.91 L 1003.62 1001.10 L 1003.50 1000.33 L 1003.39 999.64 L 1003.28 998.95 L 1003.33 998.25 L 1003.45 997.35 L 1003.81 996.57 L 1003.94 995.93" stroke="rgb(230,230,230)" stroke-opacity="0.370" stroke-width="0.67" />
  <path d="M 999.01 1004.00 L 998.69 1002.60 L 998.45 1001.23 L 998.32 999.82 L 997.93 998.40" stroke="rgb(230,230,230)" stroke-opacity="0.364" stroke-width="0.65" />
  <path d="M 1000.87 999.57 L 1000.35 998.29 L 999.92 997.07 L 999.54 995.84 L 999.27 994.56 L 998.99 993.34 L 998.71 992.09 L 998.44 990.86 L 998.21 989.62 L 997.90 988.48 L 997.54 987.37 L 997.19 986.28 L 996.78 985.26" stroke="rgb(230,230,230)" stroke-opacity="0.363" stroke-width="0.65" />
  <path d="M 1001.59 1001.41 L 1000.25 1001.37 L 998.90 1001.36 L 997.54 1001.24 L 996.18 1001.12 L 994.81 1001.04 L 993.48 1000.77 L 992.17 1000.55 L 990.85 1000.33 L 989.55 1000.10 L 988.23 999.87 L 986.92 999.61" stroke="rgb(230,230,230)" stroke-opacity="0.357" stroke-width="0.63" />
  <path d="M 999.96 997.78 L 998.96 998.52 L 997.87 999.17 L 996.81 999.86 L 995.89 1000.64 L 995.01 1001.55 L 994.17 1002.48 L 993.43 1003.52" stroke="rgb(230,230,230)" stroke-opacity="0.356" stroke-width="0.63" />
  <path d="M 1004.14 1008.14 L 1004.80 1009.49 L 1005.46 1010.82 L 1005.99 1012.21 L 1006.54 1013.58 L 1007.06 1014.96" stroke="rgb(230,230,230)" stroke-opacity="0.353" stroke-width="0.62" />
</g>
</svg>
