<?xml version="1.0" encoding="UTF-8"?>
<svg xmlns="http://www.w3.org/2000/svg" width="2000" height="2000" viewBox="0 0 2000 2000">
<g fill="none" stroke-linecap="round" stroke-linejoin="round">
  <path d="M 997.18 1002.22 L 997.27 998.99 L 997.40 995.77 L 997.44 992.56 L 997.46 989.36 L 997.50 986.18 L 997.58 983.01 L 997.68 979.85 L 997.81 976.71 L 997.92 973.58 L 998.04 970.46 L 998.27 967.36 L 998.50 964.27 L 998.72 961.20 L 998.99 958.14 L 999.22 955.09 L 999.49 952.05 L 999.78 949.03 L 1000.04 946.02 L 1000.34 943.03 L 1000.58 940.04 L 1000.82 937.06 L 1001.01 934.10 L 1001.22 931.14 L 1001.39 928.20 L 1001.52 925.26 L 1001.60 922.33 L 1001.67 919.42 L 1001.74 916.52 L 1001.91 913.63 L 1002.10 910.76 L 1002.19 907.89 L 1002.28 905.03 L 1002.40 902.19 L 1002.45 899.36 L 1002.50 896.53 L 1002.62 893.73 L 1002.74 890.93 L 1002.87 888.14 L 1002.99 885.37 L 1003.11 882.60 L 1003.20 879.85 L 1003.16 877.10 L 1003.17 874.37 L 1003.19 871.65 L 1003.19 868.93 L 1003.22 866.23 L 1003.29 863.54 L 1003.34 860.86 L 1003.39 858.20 L 1003.39 855.54 L 1003.35 852.89 L 1003.29 850.25 L 1003.27 847.63 L 1003.22 845.01 L 1003.19 842.41 L 1003.18 839.81 L 1003.21 837.23 L 1003.22 834.65 L 1003.29 832.09 L 1003.37 829.54 L 1003.49 827.00 L 1003.57 824.46 L 1003.68 821.94 L 1003.71 819.43 L 1003.77 816.93 L 1003.89 814.44 L 1004.01 811.96 L 1004.12 809.49 L 1004.27 807.03 L 1004.40 804.58 L 1004.51 802.14 L 1004.58 799.70 L 1004.65 797.28 L 1004.77 794.87 L 1004.87 792.47 L 1004.95 790.07 L 1005.01 787.69 L 1004.99 785.31 L 1004.97 782.94 L 1004.94 780.59 L 1004.91 778.24 L 1004.90 775.90 L 1004.92 773.57 L 1004.96 771.25 L 1005.09 768.95 L 1005.19 766.65 L 1005.24 764.36 L 1005.32 762.08 L 1005.52 759.81 L 1005.67 757.55 L 1005.88 755.31 L 1006.10 753.07 L 1006.33 750.84 L 1006.59 748.63" stroke="rgb(120,210,255)" stroke-opacity="0.855" stroke-width="1.64" />
  <path d="M 1011.66 912.94 L 1012.49 909.71 L 1013.42 906.52 L 1014.34 903.35 L 1015.25 900.18 L 1016.12 897.02 L 1017.00 893.87 L 1017.95 890.76 L 1018.93 887.66 L 1019.90 884.59 L 1020.81 881.50 L 1021.62 878.40 L 1022.44 875.32 L 1023.23 872.24 L 1024.11 869.20 L 1025.05 866.19 L 1026.00 863.20 L 1026.94 860.21 L 1027.91 857.25 L 1028.88 854.31 L 1029.81 851.36 L 1030.74 848.43 L 1031.56 845.47 L 1032.37 842.53 L 1033.20 839.60 L 1034.06 836.70 L 1034.91 833.80 L 1035.76 830.92 L 1036.56 828.04 L 1037.36 825.17 L 1038.19 822.32 L 1038.96 819.46 L 1039.71 816.62 L 1040.45 813.78 L 1041.13 810.94 L 1041.85 808.12 L 1042.71 805.35 L 1043.48 802.57 L 1044.28 799.81 L 1045.15 797.08 L 1046.04 794.37 L 1046.89 791.66 L 1047.76 788.97 L 1048.65 786.29 L 1049.62 783.66 L 1050.63 781.05 L 1051.66 778.47 L 1052.63 775.87 L 1053.63 773.29 L 1054.60 770.72 L 1055.51 768.14 L 1056.37 765.55 L 1057.30 762.99 L 1058.30 760.48 L 1059.32 757.98 L 1060.37 755.51 L 1061.48 753.07 L 1062.57 750.64 L 1063.63 748.21 L 1064.66 745.78 L 1065.66 743.34 L 1066.63 740.91 L 1067.56 738.47 L 1068.49 736.04 L 1069.37 733.60 L 1070.23 731.17 L 1071.08 728.74 L 1071.83 726.30 L 1072.58 723.86 L 1073.25 721.41 L 1073.98 718.99 L 1074.72 716.58 L 1075.51 714.20 L 1076.39 711.87 L 1077.33 709.56 L 1078.30 707.28 L 1079.26 705.00 L 1080.20 702.73 L 1081.16 700.48 L 1082.14 698.25 L 1083.16 696.04 L 1084.15 693.83 L 1085.20 691.66 L 1086.18 689.47 L 1087.22 687.32 L 1088.22 685.16 L 1089.21 683.00 L 1090.18 680.85 L 1091.13 678.70 L 1092.09 676.56 L 1093.02 674.42 L 1093.95 672.29 L 1094.90 670.18 L 1095.74 668.03 L 1096.60 665.90 L 1097.42 663.76 L 1098.28 661.65 L 1099.19 659.57 L 1100.10 657.51 L 1101.02 655.45 L 1101.95 653.41 L 1102.88 651.38 L 1103.82 649.36 L 1104.76 647.36 L 1105.66 645.34 L 1106.51 643.31 L 1107.36 641.30 L 1108.15 639.27 L 1108.92 637.24 L 1109.73 635.23 L 1110.56 633.24 L 1111.39 631.26 L 1112.16 629.27 L 1112.92 627.28 L 1113.70 625.31 L 1114.43 623.33 L 1115.15 621.35 L 1115.82 619.37 L 1116.41 617.37" stroke="rgb(120,210,255)" stroke-opacity="0.852" stroke-width="1.63" />
  <path d="M 1012.31 909.91 L 1012.16 906.44 L 1012.02 902.98 L 1011.93 899.53 L 1012.01 896.10 L 1012.09 892.68 L 1012.21 889.27 L 1012.31 885.88 L 1012.40 882.50 L 1012.39 879.13 L 1012.39 875.78 L 1012.38 872.44 L 1012.42 869.12 L 1012.48 865.81 L 1012.60 862.51 L 1012.73 859.22 L 1012.78 855.95 L 1012.87 852.69 L 1012.96 849.45 L 1013.01 846.21 L 1013.04 842.99 L 1013.08 839.78 L 1013.10 836.59 L 1013.13 833.41 L 1013.17 830.24 L 1013.15 827.08 L 1013.13 823.94 L 1013.15 820.80 L 1013.15 817.68 L 1013.09 814.58 L 1013.01 811.48 L 1012.94 808.40 L 1012.86 805.33 L 1012.77 802.28 L 1012.64 799.24 L 1012.55 796.20 L 1012.43 793.19 L 1012.29 790.18 L 1012.11 787.19 L 1011.89 784.21 L 1011.71 781.24 L 1011.56 778.29 L 1011.39 775.34 L 1011.25 772.41 L 1011.11 769.49 L 1011.01 766.57 L 1010.91 763.67 L 1010.90 760.78 L 1010.87 757.90 L 1010.90 755.04 L 1010.96 752.18 L 1011.00 749.34 L 1011.18 746.51 L 1011.35 743.69 L 1011.47 740.88 L 1011.59 738.09 L 1011.72 735.30 L 1011.87 732.53 L 1012.01 729.77 L 1012.09 727.01 L 1012.16 724.27 L 1012.24 721.54 L 1012.32 718.82 L 1012.39 716.11 L 1012.47 713.41 L 1012.58 710.72 L 1012.68 708.04 L 1012.77 705.38" stroke="rgb(120,210,255)" stroke-opacity="0.852" stroke-width="1.63" />
  <path d="M 997.23 998.29 L 997.59 994.98 L 997.96 991.68 L 998.31 988.39 L 998.69 985.12 L 999.06 981.86 L 999.42 978.61 L 999.80 975.38 L 1000.17 972.16 L 1000.57 968.96 L 1000.99 965.77 L 1001.40 962.60 L 1001.78 959.43 L 1002.20 956.28 L 1002.53 953.13 L 1002.86 950.00 L 1003.20 946.88 L 1003.53 943.77 L 1003.89 940.68 L 1004.21 937.59 L 1004.52 934.52 L 1004.84 931.46 L 1005.16 928.41 L 1005.46 925.38 L 1005.83 922.36 L 1006.17 919.35 L 1006.58 916.36 L 1006.99 913.39 L 1007.40 910.43 L 1007.84 907.48 L 1008.27 904.54 L 1008.73 901.62 L 1009.18 898.72 L 1009.61 895.81 L 1010.01 892.92 L 1010.50 890.06 L 1011.01 887.20 L 1011.54 884.37 L 1012.03 881.54 L 1012.46 878.71 L 1012.84 875.88 L 1013.20 873.06 L 1013.52 870.26 L 1013.88 867.46 L 1014.25 864.68 L 1014.57 861.91 L 1014.93 859.14 L 1015.31 856.40 L 1015.71 853.67 L 1016.10 850.95 L 1016.51 848.24 L 1016.90 845.54 L 1017.38 842.86 L 1017.91 840.21 L 1018.41 837.56 L 1018.91 834.92 L 1019.39 832.29 L 1019.85 829.67" stroke="rgb(120,210,255)" stroke-opacity="0.849" stroke-width="1.62" />
  <path d="M 1001.09 998.94 L 1001.56 995.50 L 1002.02 992.08 L 1002.47 988.66 L 1002.87 985.26 L 1003.23 981.87 L 1003.59 978.49 L 1003.96 975.12 L 1004.28 971.77 L 1004.57 968.42 L 1004.90 965.09 L 1005.16 961.77" stroke="rgb(120,210,255)" stroke-opacity="0.849" stroke-width="1.62" />
  <path d="M 1000.48 998.23 L 1000.46 995.10 L 1000.48 991.98 L 1000.48 988.88 L 1000.60 985.79 L 1000.65 982.71 L 1000.65 979.64 L 1000.68 976.58 L 1000.67 973.54 L 1000.67 970.51 L 1000.71 967.49 L 1000.81 964.49 L 1000.95 961.50 L 1001.16 958.52 L 1001.46 955.57 L 1001.74 952.62 L 1002.00 949.68 L 1002.26 946.76 L 1002.52 943.85 L 1002.77 940.95 L 1003.07 938.06 L 1003.35 935.19 L 1003.68 932.33 L 1004.08 929.50 L 1004.48 926.67 L 1004.82 923.85 L 1005.21 921.04 L 1005.70 918.27 L 1006.24 915.51 L 1006.79 912.77 L 1007.27 910.02 L 1007.79 907.30 L 1008.37 904.59 L 1008.99 901.91 L 1009.71 899.27 L 1010.48 896.65 L 1011.27 894.04 L 1012.08 891.46 L 1012.92 888.89 L 1013.73 886.33 L 1014.46 883.76 L 1015.10 881.17 L 1015.64 878.57 L 1016.13 875.97" stroke="rgb(120,210,255)" stroke-opacity="0.849" stroke-width="1.62" />
  <path d="M 999.92 997.84 L 999.95 994.49 L 1000.02 991.15 L 1000.04 987.83 L 1000.10 984.52 L 1000.13 981.23 L 1000.13 977.95 L 1000.16 974.68 L 1000.19 971.42 L 1000.23 968.18 L 1000.23 964.95 L 1000.23 961.73 L 1000.30 958.53 L 1000.35 955.34 L 1000.39 952.16 L 1000.47 948.99 L 1000.52 945.84 L 1000.57 942.70 L 1000.57 939.57 L 1000.59 936.45 L 1000.60 933.35 L 1000.63 930.26 L 1000.63 927.18 L 1000.63 924.12 L 1000.70 921.06 L 1000.76 918.02 L 1000.82 914.99 L 1000.91 911.98 L 1000.98 908.97 L 1001.02 905.98 L 1001.00 903.00 L 1001.00 900.03 L 1001.05 897.07 L 1001.14 894.13 L 1001.20 891.19 L 1001.24 888.27 L 1001.30 885.36 L 1001.37 882.46 L 1001.49 879.58 L 1001.59 876.71 L 1001.78 873.85 L 1001.92 871.00 L 1002.07 868.16 L 1002.25 865.34 L 1002.39 862.52 L 1002.46 859.72 L 1002.54 856.92 L 1002.61 854.14 L 1002.74 851.37 L 1002.86 848.61 L 1002.98 845.86" stroke="rgb(120,210,255)" stroke-opacity="0.848" stroke-width="1.62" />
  <path d="M 999.48 997.22 L 1000.02 993.82 L 1000.55 990.43 L 1001.03 987.05 L 1001.48 983.68 L 1002.01 980.33 L 1002.50 976.99 L 1002.91 973.66 L 1003.33 970.34 L 1003.72 967.03 L 1004.12 963.73 L 1004.56 960.45 L 1005.00 957.19 L 1005.42 953.93 L 1005.86 950.69 L 1006.29 947.47 L 1006.69 944.25 L 1007.12 941.05 L 1007.57 937.87 L 1007.97 934.69 L 1008.37 931.52 L 1008.81 928.38 L 1009.31 925.25 L 1009.83 922.14 L 1010.40 919.06 L 1011.04 915.99 L 1011.66 912.94 L 1012.31 909.91 L 1012.94 906.89 L 1013.55 903.87 L 1014.13 900.86 L 1014.65 897.85 L 1015.15 894.85 L 1015.66 891.87 L 1016.10 888.88 L 1016.56 885.91" stroke="rgb(120,210,255)" stroke-opacity="0.846" stroke-width="1.61" />
  <path d="M 999.19 999.51 L 999.16 996.25 L 999.15 993.00 L 999.04 989.77 L 998.93 986.55 L 998.70 983.34 L 998.47 980.16 L 998.33 976.98 L 998.08 973.82 L 997.85 970.67 L 997.61 967.53 L 997.32 964.41 L 997.10 961.30 L 996.88 958.20 L 996.60 955.11 L 996.29 952.05 L 996.02 948.99 L 995.74 945.94 L 995.37 942.92 L 994.96 939.91 L 994.59 936.91 L 994.24 933.92 L 993.92 930.94 L 993.66 927.97 L 993.38 925.01 L 993.10 922.06 L 992.85 919.12 L 992.58 916.19 L 992.36 913.27 L 992.07 910.37 L 991.76 907.49 L 991.46 904.61 L 991.22 901.74 L 991.09 898.87 L 990.93 896.02 L 990.71 893.19" stroke="rgb(120,210,255)" stroke-opacity="0.845" stroke-width="1.61" />
  <path d="M 998.24 999.55 L 996.88 1002.58 L 995.53 1005.59 L 994.22 1008.61 L 992.96 1011.64 L 991.69 1014.64 L 990.38 1017.62 L 989.13 1020.61 L 987.88 1023.58 L 986.68 1026.56 L 985.47 1029.52 L 984.27 1032.47 L 983.06 1035.41 L 981.86 1038.33 L 980.69 1041.26 L 979.48 1044.15 L 978.28 1047.03 L 977.10 1049.91 L 975.91 1052.77 L 974.78 1055.64 L 973.63 1058.50 L 972.52 1061.35 L 971.49 1064.22 L 970.46 1067.07 L 969.38 1069.90 L 968.31 1072.72 L 967.23 1075.52 L 966.22 1078.33 L 965.21 1081.13 L 964.22 1083.92 L 963.24 1086.71 L 962.24 1089.48 L 961.18 1092.21 L 960.14 1094.93 L 959.09 1097.64 L 957.99 1100.32 L 956.88 1102.98 L 955.76 1105.63" stroke="rgb(120,210,255)" stroke-opacity="0.842" stroke-width="1.60" />
  <path d="M 1003.23 999.87 L 1003.62 996.52 L 1003.98 993.17 L 1004.32 989.84 L 1004.71 986.52 L 1005.11 983.22 L 1005.49 979.93 L 1005.90 976.66 L 1006.33 973.41 L 1006.76 970.16 L 1007.23 966.94 L 1007.62 963.72 L 1008.02 960.51 L 1008.46 957.32 L 1008.85 954.14 L 1009.31 950.98 L 1009.76 947.83 L 1010.21 944.69 L 1010.64 941.57 L 1011.02 938.45 L 1011.37 935.34 L 1011.73 932.24 L 1012.11 929.16 L 1012.46 926.09 L 1012.79 923.02 L 1013.10 919.97 L 1013.41 916.93 L 1013.73 913.90" stroke="rgb(120,210,255)" stroke-opacity="0.842" stroke-width="1.60" />
  <path d="M 1006.29 947.47 L 1007.27 944.90 L 1008.13 942.29 L 1009.02 939.71 L 1009.87 937.12 L 1010.69 934.54 L 1011.51 931.97 L 1012.35 929.41 L 1013.31 926.92 L 1014.21 924.40 L 1015.06 921.89 L 1016.00 919.42 L 1016.89 916.94 L 1017.84 914.49 L 1018.82 912.07 L 1019.76 909.64 L 1020.89 907.30 L 1021.98 904.96 L 1023.02 902.61 L 1024.02 900.25 L 1025.01 897.90 L 1025.97 895.54 L 1026.94 893.20 L 1027.88 890.87 L 1028.73 888.50 L 1029.56 886.14 L 1030.33 883.77 L 1031.20 881.45 L 1032.04 879.12 L 1032.82 876.79 L 1033.63 874.48 L 1034.54 872.21" stroke="rgb(120,210,255)" stroke-opacity="0.456" stroke-width="1.56" />
  <path d="M 998.19 1000.81 L 998.61 997.98 L 999.11 995.16 L 999.52 992.35 L 999.93 989.54 L 1000.40 986.76 L 1000.80 983.98 L 1001.27 981.21 L 1001.66 978.45 L 1002.19 975.72 L 1002.76 973.02 L 1003.48 970.36 L 1004.24 967.72 L 1004.93 965.08 L 1005.53 962.42 L 1006.10 959.77 L 1006.58 957.11 L 1007.04 954.46 L 1007.52 951.82 L 1008.00 949.20" stroke="rgb(120,210,255)" stroke-opacity="0.455" stroke-width="1.55" />
  <path d="M 999.56 1000.21 L 999.71 997.40 L 999.89 994.60 L 1000.23 991.83 L 1000.52 989.06 L 1000.64 986.29 L 1000.59 983.53 L 1000.47 980.79 L 1000.33 978.05 L 1000.09 975.34 L 999.94 972.63 L 999.82 969.92 L 999.79 967.23 L 999.69 964.55 L 999.60 961.88 L 999.49 959.22 L 999.39 956.57 L 999.30 953.93 L 999.20 951.30 L 999.13 948.68 L 999.08 946.07 L 998.97 943.48 L 998.96 940.89 L 998.90 938.31 L 998.80 935.74 L 998.68 933.19 L 998.61 930.64 L 998.57 928.11 L 998.43 925.58 L 998.33 923.07 L 998.27 920.56 L 998.19 918.07 L 998.11 915.58 L 998.03 913.11 L 997.93 910.64 L 997.85 908.19 L 997.82 905.74 L 997.74 903.30 L 997.72 900.88 L 997.73 898.46 L 997.76 896.05 L 997.86 893.65 L 997.83 891.26 L 997.75 888.89 L 997.58 886.52 L 997.47 884.16" stroke="rgb(120,210,255)" stroke-opacity="0.454" stroke-width="1.55" />
  <path d="M 999.90 999.08 L 1000.33 996.59 L 1000.62 994.09 L 1000.98 991.61 L 1001.23 989.13 L 1001.44 986.66 L 1001.67 984.20 L 1002.02 981.76 L 1002.44 979.34 L 1002.82 976.93 L 1003.19 974.52 L 1003.65 972.14 L 1003.95 969.75 L 1004.23 967.36 L 1004.44 964.97 L 1004.68 962.60 L 1005.01 960.25 L 1005.31 957.90 L 1005.66 955.57 L 1006.01 953.24 L 1006.31 950.93 L 1006.61 948.62 L 1006.82 946.31 L 1006.98 944.00 L 1007.22 941.71 L 1007.65 939.46 L 1007.99 937.21 L 1008.24 934.95 L 1008.55 932.70 L 1008.88 930.47 L 1009.13 928.24 L 1009.35 926.01 L 1009.54 923.79" stroke="rgb(120,210,255)" stroke-opacity="0.443" stroke-width="1.49" />
  <path d="M 1050.77 941.72 L 1051.70 938.51 L 1052.57 935.29 L 1053.47 932.09 L 1054.35 928.91 L 1055.17 925.72 L 1056.07 922.56 L 1056.93 919.41 L 1057.85 916.29 L 1058.86 913.21 L 1059.86 910.14 L 1060.74 907.04 L 1061.60 903.96 L 1062.49 900.89 L 1063.36 897.84 L 1064.22 894.79 L 1065.04 891.75 L 1065.92 888.74 L 1066.82 885.74 L 1067.73 882.76 L 1068.62 879.79 L 1069.46 876.82 L 1070.33 873.87 L 1071.09 870.90 L 1071.86 867.95 L 1072.55 864.98 L 1073.29 862.05 L 1074.00 859.12 L 1074.66 856.19 L 1075.35 853.28 L 1075.86 850.34 L 1076.28 847.40 L 1076.71 844.48 L 1077.12 841.56 L 1077.52 838.65 L 1077.94 835.77 L 1078.45 832.90 L 1079.03 830.06 L 1079.63 827.24 L 1080.23 824.43 L 1080.85 821.63 L 1081.48 818.85 L 1082.09 816.08 L 1082.62 813.30 L 1083.16 810.53 L 1083.72 807.79 L 1084.29 805.05 L 1084.89 802.33 L 1085.46 799.62 L 1086.05 796.92 L 1086.65 794.24 L 1087.25 791.56 L 1087.87 788.91 L 1088.52 786.27 L 1089.11 783.63 L 1089.67 780.99 L 1090.23 778.36 L 1090.87 775.77 L 1091.49 773.18 L 1092.11 770.60 L 1092.63 768.01 L 1093.11 765.42 L 1093.59 762.84 L 1094.09 760.28 L 1094.54 757.72 L 1095.00 755.17 L 1095.47 752.63 L 1095.95 750.11 L 1096.43 747.60 L 1096.96 745.10 L 1097.45 742.61 L 1097.90 740.12 L 1098.34 737.64 L 1098.79 735.18 L 1099.30 732.73 L 1099.78 730.29 L 1100.24 727.85 L 1100.70 725.43 L 1101.17 723.02 L 1101.70 720.63 L 1102.21 718.24 L 1102.75 715.87 L 1103.34 713.53 L 1103.99 711.21 L 1104.67 708.91 L 1105.32 706.60 L 1106.01 704.33 L 1106.70 702.06 L 1107.39 699.80 L 1108.07 697.55 L 1108.76 695.31 L 1109.50 693.10 L 1110.22 690.88 L 1110.94 688.68 L 1111.67 686.50 L 1112.44 684.34 L 1113.25 682.19 L 1114.05 680.06 L 1114.87 677.94 L 1115.69 675.84 L 1116.49 673.74 L 1117.30 671.65 L 1118.15 669.58 L 1119.04 667.54 L 1119.96 665.53 L 1120.86 663.52 L 1121.77 661.52 L 1122.62 659.50 L 1123.45 657.48 L 1124.27 655.47 L 1125.07 653.46 L 1125.86 651.46 L 1126.71 649.49 L 1127.54 647.52 L 1128.31 645.54 L 1129.11 643.57 L 1129.92 641.62 L 1130.69 639.67 L 1131.45 637.71 L 1132.22 635.78" stroke="rgb(205,165,255)" stroke-opacity="0.712" stroke-width="1.22" />
  <path d="M 996.74 1000.01 L 999.26 997.80 L 1001.80 995.64 L 1004.37 993.54 L 1006.91 991.42 L 1009.42 989.29 L 1011.98 987.23 L 1014.51 985.17 L 1017.02 983.10 L 1019.57 981.10 L 1022.10 979.09 L 1024.59 977.05 L 1027.04 974.99 L 1029.51 972.98 L 1031.94 970.93 L 1034.36 968.89 L 1036.75 966.84 L 1039.14 964.81 L 1041.51 962.77 L 1043.88 960.74 L 1046.24 958.73 L 1048.54 956.67 L 1050.83 954.62 L 1053.14 952.60 L 1055.39 950.54 L 1057.67 948.52 L 1059.94 946.53 L 1062.20 944.53 L 1064.49 942.58 L 1066.78 940.66 L 1069.07 938.75 L 1071.38 936.89 L 1073.72 935.08 L 1076.03 933.26 L 1078.38 931.51 L 1080.77 929.83 L 1083.17 928.18 L 1085.59 926.59 L 1088.00 925.00 L 1090.37 923.38 L 1092.72 921.74 L 1095.02 920.06 L 1097.33 918.41 L 1099.65 916.78 L 1101.97 915.18 L 1104.26 913.57 L 1106.55 911.97 L 1108.82 910.35 L 1111.09 908.76 L 1113.34 907.17 L 1115.61 905.61 L 1117.88 904.08 L 1120.16 902.58 L 1122.45 901.11 L 1124.73 899.66 L 1126.96 898.15 L 1129.19 896.65 L 1131.42 895.18 L 1133.67 893.75 L 1135.90 892.31 L 1138.11 890.86" stroke="rgb(205,165,255)" stroke-opacity="0.711" stroke-width="1.22" />
  <path d="M 1029.93 968.77 L 1033.09 967.59 L 1036.23 966.42 L 1039.37 965.25 L 1042.48 964.07 L 1045.60 962.92 L 1048.70 961.78 L 1051.77 960.58 L 1054.84 959.45 L 1057.88 958.25 L 1060.90 957.04 L 1063.93 955.89 L 1066.93 954.71 L 1069.92 953.52 L 1072.92 952.40 L 1075.92 951.32 L 1078.91 950.26 L 1081.86 949.12 L 1084.77 947.91 L 1087.68 946.74 L 1090.59 945.59 L 1093.48 944.46 L 1096.34 943.26 L 1099.17 942.01 L 1101.97 940.75" stroke="rgb(205,165,255)" stroke-opacity="0.711" stroke-width="1.22" />
  <path d="M 1002.36 1002.85 L 1002.22 1000.54 L 1002.07 998.24 L 1001.90 995.96 L 1001.64 993.69 L 1001.31 991.44 L 1001.01 989.19 L 1000.72 986.95 L 1000.50 984.72 L 1000.40 982.48 L 1000.16 980.26 L 999.88 978.06 L 999.52 975.88 L 999.15 973.71 L 998.73 971.55 L 998.24 969.42 L 997.83 967.29 L 997.27 965.19 L 996.73 963.10 L 996.16 961.03" stroke="rgb(140,255,190)" stroke-opacity="0.558" stroke-width="1.20" />
  <path d="M 990.03 948.01 L 990.62 944.62 L 991.15 941.24 L 991.63 937.86 L 992.10 934.49 L 992.54 931.14 L 993.05 927.81 L 993.53 924.48 L 994.01 921.17 L 994.53 917.88 L 995.14 914.62 L 995.73 911.37 L 996.33 908.14 L 996.98 904.93 L 997.63 901.72 L 998.25 898.53 L 998.85 895.35 L 999.41 892.18 L 999.98 889.01 L 1000.53 885.86 L 1001.04 882.71 L 1001.52 879.58" stroke="rgb(140,255,190)" stroke-opacity="0.739" stroke-width="1.19" />
  <path d="M 995.01 999.00 L 991.61 998.60 L 988.21 998.28 L 984.83 997.97 L 981.46 997.71 L 978.10 997.44 L 974.75 997.22 L 971.41 996.98 L 968.09 996.76 L 964.78 996.58 L 961.48 996.43 L 958.19 996.24 L 954.92 996.09 L 951.66 995.95 L 948.41 995.85 L 945.17 995.70 L 941.95 995.52 L 938.75 995.28 L 935.56 995.00 L 932.38 994.72 L 929.22 994.46 L 926.07 994.26 L 922.92 994.11 L 919.79 993.99 L 916.66 993.94 L 913.55 993.93 L 910.45 993.93 L 907.37 993.89 L 904.30 993.84 L 901.23 993.81 L 898.19 993.74 L 895.15 993.69 L 892.12 993.68 L 889.11 993.73 L 886.11 993.75 L 883.12 993.78 L 880.14 993.75 L 877.18 993.72 L 874.23 993.66 L 871.29 993.58 L 868.36 993.57 L 865.44 993.58 L 862.53 993.60 L 859.64 993.59 L 856.76 993.54 L 853.88 993.53 L 851.02 993.54 L 848.18 993.59 L 845.34 993.69 L 842.52 993.75 L 839.70 993.83 L 836.90 993.91 L 834.11 994.00 L 831.33 994.12 L 828.56 994.19 L 825.81 994.28 L 823.06 994.43 L 820.33 994.55 L 817.61 994.68 L 814.89 994.75 L 812.19 994.81" stroke="rgb(140,255,190)" stroke-opacity="0.737" stroke-width="1.19" />
  <path d="M 1027.85 948.21 L 1030.68 946.24 L 1033.50 944.26 L 1036.29 942.28 L 1039.07 940.30 L 1041.88 938.38 L 1044.69 936.50 L 1047.49 934.62 L 1050.27 932.73 L 1053.04 930.86 L 1055.81 929.00 L 1058.56 927.15 L 1061.30 925.31 L 1064.04 923.48 L 1066.76 921.65 L 1069.49 919.87 L 1072.23 918.11 L 1074.95 916.36 L 1077.68 914.63 L 1080.40 912.92 L 1083.13 911.26 L 1085.84 909.58 L 1088.54 907.91 L 1091.23 906.25 L 1093.87 904.53 L 1096.50 902.82 L 1099.09 901.08 L 1101.70 899.39 L 1104.29 897.68 L 1106.90 896.03 L 1109.49 894.38 L 1112.06 892.70 L 1114.55 890.95 L 1117.04 889.21 L 1119.53 887.49 L 1122.00 885.76 L 1124.43 884.00 L 1126.84 882.23 L 1129.25 880.48 L 1131.65 878.74 L 1134.06 877.03 L 1136.45 875.32 L 1138.83 873.60 L 1141.18 871.87 L 1143.47 870.09 L 1145.78 868.34 L 1148.06 866.58 L 1150.36 864.86 L 1152.65 863.14 L 1154.93 861.43 L 1157.16 859.68 L 1159.39 857.95 L 1161.62 856.22 L 1163.84 854.52 L 1165.99 852.73 L 1168.12 850.95 L 1170.23 849.15 L 1172.27 847.30 L 1174.30 845.43 L 1176.33 843.60 L 1178.36 841.78 L 1180.39 839.98 L 1182.42 838.19 L 1184.41 836.37 L 1186.41 834.59 L 1188.37 832.77 L 1190.28 830.92 L 1192.18 829.07 L 1194.08 827.24 L 1195.96 825.40 L 1197.84 823.58 L 1199.72 821.77 L 1201.58 819.95 L 1203.40 818.12 L 1205.22 816.29 L 1207.06 814.50 L 1208.89 812.71 L 1210.72 810.94 L 1212.55 809.18 L 1214.40 807.47 L 1216.23 805.74 L 1218.07 804.04" stroke="rgb(140,255,190)" stroke-opacity="0.734" stroke-width="1.18" />
  <path d="M 1022.62 935.36 L 1025.16 933.17 L 1027.71 931.03 L 1030.30 928.95 L 1032.85 926.85 L 1035.40 924.76 L 1037.97 922.73 L 1040.52 920.68 L 1043.03 918.61 L 1045.49 916.50" stroke="rgb(140,255,190)" stroke-opacity="0.732" stroke-width="1.17" />
  <path d="M 999.68 1000.23 L 996.93 998.94 L 994.23 997.60 L 991.55 996.24 L 988.85 994.93 L 986.17 993.63 L 983.49 992.35 L 980.76 991.20 L 978.03 990.09 L 975.29 989.05 L 972.52 988.10 L 969.76 987.19 L 966.99 986.34 L 964.26 985.36 L 961.57 984.36 L 958.87 983.39 L 956.20 982.38" stroke="rgb(205,165,255)" stroke-opacity="0.485" stroke-width="1.17" />
  <path d="M 1055.77 933.74 L 1058.68 933.36 L 1061.58 933.00 L 1064.47 932.77 L 1067.36 932.50 L 1070.24 932.30 L 1073.11 932.25 L 1075.97 932.30 L 1078.82 932.37 L 1081.66 932.34 L 1084.48 932.14 L 1087.29 931.90 L 1090.08 931.63 L 1092.86 931.35 L 1095.62 931.01 L 1098.38 930.71 L 1101.11 930.35 L 1103.86 930.13 L 1106.59 930.04 L 1109.32 929.95 L 1112.03 929.82 L 1114.73 929.62 L 1117.41 929.32 L 1120.07 928.95 L 1122.71 928.55 L 1125.36 928.23 L 1128.00 927.99 L 1130.64 927.85 L 1133.26 927.68 L 1135.87 927.47 L 1138.47 927.23 L 1141.06 927.02 L 1143.65 926.84 L 1146.22 926.76 L 1148.79 926.69 L 1151.35 926.54 L 1153.89 926.45 L 1156.42 926.28 L 1158.94 926.07 L 1161.45 925.80 L 1163.94 925.51 L 1166.41 925.15" stroke="rgb(205,165,255)" stroke-opacity="0.484" stroke-width="1.17" />
  <path d="M 978.42 704.35 L 976.67 701.56 L 974.91 698.80 L 973.13 696.06 L 971.46 693.27 L 969.84 690.46 L 968.23 687.67 L 966.57 684.92 L 964.88 682.20 L 963.17 679.51 L 961.43 676.86 L 959.74 674.19 L 958.02 671.55 L 956.27 668.95 L 954.49 666.38 L 952.84 663.74" stroke="rgb(140,255,190)" stroke-opacity="0.728" stroke-width="1.16" />
  <path d="M 995.12 1003.50 L 995.70 1001.12 L 996.21 998.74 L 996.63 996.35 L 997.02 993.97 L 997.35 991.58 L 997.62 989.20 L 997.87 986.83 L 998.02 984.45 L 998.32 982.10 L 998.54 979.76" stroke="rgb(140,255,190)" stroke-opacity="0.542" stroke-width="1.15" />
  <path d="M 1014.69 820.43 L 1013.61 817.48 L 1012.61 814.52 L 1011.62 811.57 L 1010.62 808.62 L 1009.59 805.71 L 1008.55 802.81 L 1007.50 799.93 L 1006.54 797.03 L 1005.53 794.16 L 1004.67 791.26 L 1003.82 788.36 L 1002.95 785.48 L 1001.96 782.66 L 1001.00 779.83 L 1000.02 777.03 L 999.14 774.21 L 998.25 771.40 L 997.40 768.59 L 996.52 765.80 L 995.67 763.02 L 994.82 760.25 L 993.92 757.50 L 993.06 754.76 L 992.18 752.03 L 991.37 749.30 L 990.51 746.59 L 989.64 743.89 L 988.73 741.22 L 987.80 738.58 L 987.00 735.90 L 986.17 733.24 L 985.50 730.55 L 984.82 727.87 L 984.16 725.20 L 983.42 722.56 L 982.66 719.93 L 981.96 717.31 L 981.22 714.70 L 980.50 712.10 L 979.77 709.51 L 979.11 706.92 L 978.42 704.35 L 977.64 701.81 L 976.88 699.28 L 976.09 696.77 L 975.28 694.27 L 974.49 691.78 L 973.71 689.30" stroke="rgb(140,255,190)" stroke-opacity="0.720" stroke-width="1.14" />
  <path d="M 1001.93 998.28 L 1002.56 995.22 L 1003.17 992.18 L 1003.88 989.17 L 1004.64 986.18 L 1005.35 983.19 L 1005.96 980.20 L 1006.59 977.22 L 1007.18 974.24" stroke="rgb(140,255,190)" stroke-opacity="0.720" stroke-width="1.14" />
  <path d="M 981.56 914.36 L 979.89 911.74 L 978.32 909.07 L 976.66 906.47 L 974.95 903.92 L 973.30 901.35 L 971.67 898.78 L 970.04 896.22 L 968.42 893.66 L 966.81 891.12 L 965.27 888.55 L 963.82 885.94 L 962.30 883.39 L 960.81 880.83 L 959.26 878.32 L 957.80 875.77 L 956.36 873.22 L 954.92 870.69 L 953.48 868.17 L 951.96 865.71 L 950.44 863.26 L 948.77 860.93 L 947.09 858.62 L 945.38 856.35 L 943.69 854.07 L 942.14 851.71" stroke="rgb(140,255,190)" stroke-opacity="0.538" stroke-width="1.14" />
  <path d="M 988.73 741.22 L 988.26 738.17 L 987.92 735.11 L 987.57 732.07 L 987.31 729.03 L 987.04 726.00 L 986.70 722.99 L 986.30 720.00 L 985.97 717.02 L 985.65 714.04 L 985.34 711.08 L 984.96 708.14 L 984.56 705.21 L 984.10 702.30 L 983.68 699.40 L 983.06 696.54 L 982.31 693.73 L 981.57 690.93 L 980.78 688.15 L 980.10 685.36 L 979.48 682.57 L 978.91 679.77 L 978.34 676.99 L 977.67 674.24 L 977.02 671.50 L 976.37 668.77 L 975.85 666.03 L 975.30 663.30 L 974.72 660.59 L 974.06 657.90 L 973.37 655.24 L 972.68 652.59 L 971.81 650.00 L 970.89 647.45" stroke="rgb(140,255,190)" stroke-opacity="0.538" stroke-width="1.14" />
  <path d="M 1003.04 999.46 L 1002.61 996.32 L 1002.13 993.20 L 1001.64 990.09 L 1001.13 987.00 L 1000.52 983.94 L 999.88 980.90 L 999.18 977.89 L 998.52 974.88 L 997.85 971.88 L 997.23 968.89 L 996.55 965.92 L 995.77 962.98 L 994.94 960.08 L 994.13 957.18 L 993.29 954.30 L 992.50 951.42 L 991.67 948.57 L 990.83 945.73 L 990.00 942.90 L 989.14 940.09 L 988.31 937.28 L 987.47 934.49 L 986.70 931.69 L 985.92 928.91 L 985.03 926.17 L 984.12 923.45 L 983.30 920.71 L 982.43 918.00 L 981.53 915.32" stroke="rgb(140,255,190)" stroke-opacity="0.716" stroke-width="1.13" />
  <path d="M 1034.94 935.83 L 1037.48 933.97 L 1039.96 932.04 L 1042.43 930.13 L 1044.88 928.20 L 1047.30 926.26 L 1049.70 924.31 L 1052.06 922.34 L 1054.39 920.34 L 1056.70 918.35 L 1059.03 916.40 L 1061.33 914.43 L 1063.56 912.39 L 1065.78 910.37 L 1067.96 908.32 L 1070.11 906.26 L 1072.24 904.19 L 1074.42 902.19 L 1076.55 900.16 L 1078.77 898.24 L 1081.03 896.40 L 1083.27 894.54 L 1085.55 892.75 L 1087.79 890.93 L 1090.01 889.10 L 1092.14 887.19 L 1094.22 885.24 L 1096.29 883.29 L 1098.31 881.31 L 1100.38 879.40 L 1102.44 877.50 L 1104.43 875.53 L 1106.42 873.59 L 1108.38 871.62 L 1110.39 869.73 L 1112.41 867.86 L 1114.44 866.02 L 1116.42 864.14 L 1118.38 862.27 L 1120.35 860.41 L 1122.27 858.51 L 1124.14 856.59 L 1125.93 854.60 L 1127.63 852.55 L 1129.21 850.42 L 1130.71 848.24 L 1132.28 846.13 L 1133.79 843.99 L 1135.35 841.89 L 1136.91 839.81 L 1138.42 837.71 L 1140.01 835.67 L 1141.60 833.66 L 1143.21 831.66 L 1144.80 829.67 L 1146.40 827.70 L 1148.01 825.75 L 1149.48 823.71 L 1150.93 821.67 L 1152.45 819.68 L 1153.94 817.69 L 1155.41 815.69 L 1156.91 813.73 L 1158.42 811.79 L 1159.89 809.83 L 1161.38 807.90 L 1162.90 806.01 L 1164.50 804.19 L 1166.14 802.42 L 1167.78 800.67 L 1169.51 799.02 L 1171.24 797.39 L 1172.92 795.71 L 1174.58 794.03" stroke="rgb(140,255,190)" stroke-opacity="0.714" stroke-width="1.13" />
  <path d="M 1163.84 854.52 L 1166.78 853.54 L 1169.71 852.56 L 1172.66 851.67 L 1175.59 850.79 L 1178.53 849.97 L 1181.40 848.99 L 1184.30 848.11 L 1187.20 847.30 L 1190.10 846.52 L 1193.01 845.81 L 1195.89 845.08 L 1198.77 844.35 L 1201.66 843.73 L 1204.56 843.21 L 1207.45 842.74 L 1210.32 842.23 L 1213.19 841.76 L 1216.04 841.25 L 1218.88 840.73 L 1221.71 840.26 L 1224.52 839.70 L 1227.32 839.20 L 1230.12 838.70 L 1232.90 838.19 L 1235.68 837.78 L 1238.45 837.31 L 1241.22 836.92 L 1243.97 836.52 L 1246.72 836.19 L 1249.45 835.81 L 1252.18 835.50 L 1254.89 835.10 L 1257.57 834.56 L 1260.25 834.15 L 1262.94 833.89 L 1265.63 833.69 L 1268.31 833.50" stroke="rgb(140,255,190)" stroke-opacity="0.534" stroke-width="1.12" />
  <path d="M 997.90 1000.59 L 998.34 997.62 L 998.80 994.67 L 999.22 991.72 L 999.65 988.79 L 1000.03 985.86 L 1000.42 982.95 L 1000.91 980.06 L 1001.29 977.17 L 1001.70 974.29 L 1002.16 971.44 L 1002.65 968.60 L 1003.12 965.77 L 1003.51 962.93 L 1003.86 960.11 L 1004.25 957.30 L 1004.68 954.51 L 1005.07 951.72 L 1005.47 948.95 L 1005.88 946.19 L 1006.30 943.44 L 1006.65 940.69 L 1006.95 937.95 L 1007.30 935.23 L 1007.65 932.51 L 1007.97 929.81 L 1008.25 927.11 L 1008.63 924.43 L 1008.99 921.77 L 1009.39 919.11 L 1009.70 916.46 L 1009.96 913.81 L 1010.28 911.18 L 1010.45 908.55 L 1010.67 905.93 L 1010.88 903.32 L 1011.15 900.73 L 1011.38 898.14 L 1011.64 895.57 L 1011.91 893.01 L 1012.09 890.45 L 1012.30 887.90 L 1012.49 885.36 L 1012.64 882.83 L 1012.80 880.31 L 1012.98 877.81 L 1013.15 875.31 L 1013.22 872.81 L 1013.27 870.33 L 1013.28 867.85 L 1013.27 865.39 L 1013.29 862.93 L 1013.22 860.49 L 1013.19 858.06 L 1013.15 855.63 L 1013.15 853.21 L 1013.12 850.81 L 1013.18 848.41 L 1013.30 846.03 L 1013.42 843.65 L 1013.50 841.29 L 1013.55 838.93 L 1013.65 836.58 L 1013.80 834.25 L 1013.95 831.92 L 1014.18 829.61 L 1014.35 827.31 L 1014.47 825.01 L 1014.58 822.72 L 1014.69 820.43 L 1014.82 818.16 L 1014.88 815.90 L 1014.91 813.64 L 1014.91 811.39 L 1014.91 809.16 L 1014.93 806.93 L 1014.99 804.71 L 1015.07 802.50 L 1015.20 800.30 L 1015.34 798.11 L 1015.57 795.93 L 1015.82 793.77 L 1016.10 791.62 L 1016.33 789.47 L 1016.60 787.34 L 1016.87 785.21 L 1017.17 783.10 L 1017.49 781.00 L 1017.83 778.91" stroke="rgb(140,255,190)" stroke-opacity="0.534" stroke-width="1.12" />
  <path d="M 999.62 1004.41 L 1001.42 1002.41 L 1003.17 1000.38 L 1004.82 998.28 L 1006.51 996.23 L 1008.09 994.09 L 1009.62 991.95 L 1011.14 989.80 L 1012.74 987.72 L 1014.34 985.67 L 1016.01 983.68 L 1017.66 981.68 L 1019.40 979.78 L 1021.20 977.95 L 1023.05 976.19 L 1024.86 974.40 L 1026.62 972.57 L 1028.26 970.65 L 1029.93 968.77 L 1031.53 966.84 L 1033.16 964.95 L 1034.78 963.07 L 1036.34 961.15 L 1037.90 959.23 L 1039.44 957.32 L 1041.00 955.43 L 1042.51 953.52 L 1044.01 951.61 L 1045.43 949.66 L 1046.87 947.73 L 1048.14 945.70 L 1049.51 943.74 L 1050.77 941.72 L 1052.08 939.75 L 1053.33 937.75 L 1054.52 935.72 L 1055.77 933.74 L 1057.03 931.78 L 1058.28 929.83 L 1059.51 927.87" stroke="rgb(205,165,255)" stroke-opacity="0.472" stroke-width="1.12" />
  <path d="M 892.69 1999.61 L 892.77 1997.33 L 892.89 1994.28 L 893.36 1991.03 L 893.92 1987.92 L 894.11 1984.34 L 894.58 1981.77 L 895.13 1979.52 L 895.34 1976.10 L 895.55 1973.43 L 895.85 1970.44 L 896.26 1966.85 L 896.60 1964.29 L 896.92 1960.91 L 896.83 1958.50 L 897.63 1955.07 L 897.74 1952.56 L 898.12 1949.06 L 898.40 1946.50 L 898.73 1943.30 L 898.86 1940.58 L 899.16 1937.46 L 899.55 1934.59 L 899.84 1930.96 L 900.22 1928.42 L 900.50 1925.46 L 901.16 1922.18 L 901.35 1919.58 L 902.15 1916.68 L 901.83 1913.45 L 902.22 1910.66 L 902.70 1907.35 L 903.40 1904.63 L 903.16 1901.77 L 903.69 1898.56 L 903.99 1895.33 L 904.68 1892.62 L 904.73 1889.62 L 905.29 1886.91 L 905.56 1883.75 L 905.13 1881.12 L 906.10 1877.86 L 905.83 1874.79 L 906.24 1871.54 L 906.70 1868.63 L 906.75 1865.23 L 907.01 1862.85 L 907.51 1859.95 L 908.16 1856.99 L 908.63 1854.24 L 908.70 1850.82 L 909.20 1847.55 L 909.23 1844.60 L 909.98 1842.37 L 909.99 1838.90 L 910.26 1835.83 L 910.63 1832.99 L 911.29 1829.98 L 911.22 1826.77 L 912.03 1824.18 L 911.63 1820.91 L 912.04 1818.20 L 912.35 1814.88 L 912.64 1812.35 L 913.36 1809.46 L 913.77 1805.85 L 913.81 1803.05 L 914.24 1800.19 L 914.28 1797.06 L 914.94 1794.46 L 915.06 1791.26 L 915.62 1788.26 L 915.65 1784.99 L 915.94 1782.38 L 916.34 1779.23 L 916.97 1776.30 L 916.98 1773.36 L 917.04 1770.25 L 917.64 1767.36 L 917.84 1764.36 L 918.26 1761.26 L 918.70 1758.67 L 918.74 1755.67 L 919.11 1752.40 L 919.86 1749.49 L 920.06 1746.69 L 920.35 1743.66 L 920.25 1740.24 L 920.50 1737.63 L 921.48 1734.01 L 921.38 1731.29 L 921.69 1728.58 L 922.20 1725.46 L 922.52 1722.60 L 922.70 1719.70 L 923.13 1716.48 L 923.47 1713.50 L 923.74 1710.62 L 923.85 1707.48 L 924.32 1704.70 L 924.93 1701.77 L 924.52 1699.06 L 925.24 1695.34 L 925.91 1692.73 L 926.15 1689.82 L 926.39 1687.21 L 926.55 1683.63 L 927.13 1680.84 L 927.37 1677.84 L 927.54 1674.86 L 927.42 1671.62 L 928.23 1668.57 L 928.27 1666.18 L 928.92 1662.93 L 929.19 1659.69 L 929.26 1656.65 L 929.85 1654.16 L 930.24 1650.77 L 930.17 1647.97 L 930.88 1644.83 L 930.70 1642.27 L 931.71 1638.71 L 931.74 1636.29 L 932.12 1633.08 L 932.79 1630.07 L 932.20 1627.30 L 932.74 1623.71 L 932.86 1621.26 L 933.93 1618.01 L 933.91 1615.28 L 934.71 1612.28 L 934.62 1609.00 L 934.92 1606.41 L 935.02 1603.50 L 935.46 1600.21 L 936.19 1597.41 L 936.43 1594.45 L 936.74 1591.57 L 936.92 1588.43 L 937.76 1585.08 L 937.39 1582.26 L 937.60 1579.58 L 938.30 1576.56 L 938.26 1573.40 L 938.45 1570.18 L 939.21 1567.54 L 939.47 1564.60 L 940.19 1561.33 L 939.92 1558.39 L 940.45 1555.44 L 940.61 1552.36 L 940.98 1549.32 L 941.26 1546.97 L 941.84 1543.66 L 942.41 1540.44 L 942.27 1537.72 L 942.81 1534.39 L 942.77 1531.65 L 943.80 1528.84 L 943.89 1525.66 L 943.94 1522.69 L 944.14 1519.83 L 944.47 1516.82 L 945.33 1513.55 L 945.59 1510.51 L 945.45 1508.11 L 945.40 1504.78 L 946.23 1501.94 L 946.88 1498.61 L 946.93 1495.98 L 947.10 1493.02 L 947.28 1489.89 L 948.20 1487.24 L 948.22 1484.04 L 948.47 1481.17 L 948.65 1478.14 L 949.07 1475.16 L 949.28 1471.69 L 949.61 1468.91 L 950.21 1466.13 L 950.03 1462.73 L 950.52 1460.01 L 950.82 1456.98 L 951.54 1454.21 L 951.44 1450.74 L 951.72 1448.66 L 951.98 1445.13 L 951.75 1442.43 L 952.59 1439.04 L 953.63 1435.99 L 953.64 1433.02 L 953.45 1430.54 L 953.74 1427.40 L 954.92 1424.13 L 954.63 1421.54 L 955.08 1418.49 L 955.35 1414.87 L 956.05 1412.74 L 955.94 1409.11 L 956.65 1406.15 L 956.42 1403.12 L 956.90 1400.44 L 957.49 1397.47 L 957.13 1394.67 L 957.92 1391.70 L 958.05 1388.68 L 958.49 1385.44 L 959.33 1382.36 L 959.24 1379.54 L 959.87 1376.27 L 959.75 1373.70 L 960.29 1370.35 L 960.55 1367.87 L 960.30 1364.87 L 961.46 1361.90 L 961.32 1358.61 L 961.62 1355.45 L 962.68 1352.54 L 962.63 1349.64 L 962.97 1346.58 L 963.21 1344.00 L 963.42 1340.30 L 963.51 1337.84 L 964.02 1334.94 L 964.39 1331.70 L 964.46 1328.80 L 964.72 1325.88 L 965.40 1323.18 L 965.83 1320.41 L 965.83 1316.85 L 966.63 1313.93 L 966.71 1310.84 L 966.97 1307.99 L 967.59 1304.96 L 967.88 1302.43 L 968.19 1298.78 L 968.04 1296.21 L 968.51 1293.10 L 968.70 1290.05 L 969.35 1287.10 L 969.69 1284.30 L 969.70 1281.03 L 969.89 1278.00 L 970.37 1274.94 L 971.05 1272.09 L 970.72 1269.13 L 971.49 1265.76 L 971.83 1263.00 L 972.11 1259.91 L 972.42 1257.42 L 972.52 1254.48 L 973.10 1251.37 L 973.12 1248.44 L 973.67 1244.96 L 974.32 1242.20 L 974.55 1239.00 L 974.87 1236.31 L 974.62 1233.50 L 975.41 1230.66 L 975.15 1227.41 L 975.67 1224.59 L 976.20 1221.46 L 976.50 1218.51 L 976.93 1215.34 L 977.21 1212.40 L 977.33 1209.56 L 977.48 1206.61 L 977.93 1203.34 L 978.57 1200.93 L 978.69 1197.59 L 978.74 1194.62 L 979.37 1191.95 L 979.67 1188.34 L 980.08 1185.84 L 980.21 1182.64 L 980.90 1179.56 L 980.99 1176.33 L 981.31 1173.74 L 981.72 1170.72 L 982.48 1168.06 L 982.23 1164.30 L 982.75 1161.80 L 982.80 1159.11 L 983.08 1155.72 L 984.01 1152.69 L 984.00 1149.72 L 984.05 1147.02 L 984.37 1143.96 L 984.89 1141.01 L 985.14 1138.50 L 985.38 1135.18 L 985.41 1131.72 L 986.32 1129.02 L 986.46 1126.55 L 986.86 1122.92 L 987.21 1119.91 L 987.41 1116.76 L 987.55 1113.72 L 988.30 1111.33 L 988.33 1108.21 L 988.91 1104.81 L 989.42 1102.31 L 989.40 1099.16 L 989.58 1096.38 L 990.09 1093.07 L 990.32 1090.68 L 990.30 1087.16 L 990.86 1084.10 L 991.16 1081.22 L 991.51 1077.77 L 991.94 1075.37 L 992.19 1072.24 L 992.56 1069.17 L 992.71 1066.25 L 993.00 1063.17 L 993.33 1060.31 L 993.95 1057.46 L 994.44 1054.58 L 994.74 1050.64 L 994.72 1048.72 L 995.22 1045.64 L 995.56 1042.76 L 995.85 1039.61 L 996.48 1036.66 L 996.31 1033.31 L 996.91 1030.61 L 997.19 1027.47 L 997.86 1024.80 L 997.85 1022.18 L 997.72 1018.68 L 998.23 1015.95 L 998.64 1013.07 L 998.91 1009.83 L 999.45 1007.00 L 999.61 1003.46 L 999.80 1000.54 L 1000.00 1000.00 L 1000.31 997.02 L 1000.67 994.04 L 1001.02 991.06 L 1001.38 988.08 L 1001.76 985.10 L 1002.14 982.13 L 1002.53 979.15 L 1002.95 976.18 L 1003.33 973.21 L 1003.72 970.23 L 1004.10 967.26 L 1004.51 964.28 L 1004.84 961.30 L 1005.18 958.32 L 1005.49 955.34 L 1005.75 952.35 L 1006.01 949.36 L 1006.29 946.37 L 1006.57 943.39 L 1006.93 940.41 L 1007.30 937.43 L 1007.71 934.46 L 1008.12 931.49 L 1008.55 928.52 L 1009.01 925.55 L 1009.53 922.60 L 1010.02 919.64 L 1010.46 916.67 L 1010.90 913.71 L 1011.33 910.74 L 1011.78 907.77 L 1012.18 904.80 L 1012.60 901.83 L 1013.03 898.86 L 1013.42 895.88 L 1013.78 892.90 L 1014.15 889.93 L 1014.46 886.94 L 1014.82 883.97 L 1015.15 880.98 L 1015.52 878.01 L 1015.90 875.03 L 1016.25 872.05 L 1016.56 869.07 L 1016.92 866.09 L 1017.29 863.11 L 1017.66 860.13 L 1018.04 857.16 L 1018.41 854.18 L 1018.79 851.21 L 1019.16 848.23 L 1019.59 845.26 L 1020.05 842.29 L 1020.52 839.33 L 1020.98 836.37 L 1021.44 833.40 L 1021.89 830.44 L 1022.32 827.47 L 1022.78 824.50 L 1023.22 821.54 L 1023.69 818.57 L 1024.18 815.61 L 1024.65 812.65 L 1025.13 809.69 L 1025.63 806.73 L 1026.14 803.77 L 1026.62 800.81 L 1027.09 797.85 L 1027.47 794.87 L 1027.86 791.90 L 1028.27 788.93 L 1028.69 785.96 L 1029.10 782.99 L 1029.52 780.01 L 1029.91 777.04 L 1030.32 774.07 L 1030.72 771.10 L 1031.13 768.12 L 1031.54 765.15 L 1031.99 762.18 L 1032.47 759.22 L 1032.94 756.26 L 1033.40 753.30 L 1033.87 750.33 L 1034.33 747.37 L 1034.81 744.41 L 1035.35 741.46 L 1035.90 738.51 L 1036.45 735.56 L 1037.03 732.62 L 1037.61 729.67 L 1038.15 726.72 L 1038.63 723.76 L 1039.08 720.79 L 1039.55 717.83 L 1040.02 714.87 L 1040.47 711.90 L 1040.89 708.93 L 1041.29 705.96 L 1041.70 702.99 L 1042.10 700.01 L 1042.52 697.04 L 1042.96 694.07 L 1043.40 691.11 L 1043.80 688.13 L 1044.22 685.16 L 1044.69 682.20 L 1045.13 679.23 L 1045.55 676.26 L 1045.95 673.29 L 1046.35 670.32 L 1046.71 667.34 L 1047.09 664.36 L 1047.45 661.38 L 1047.86 658.41 L 1048.27 655.44 L 1048.77 652.48 L 1049.21 649.51 L 1049.67 646.55 L 1050.14 643.59 L 1050.59 640.62 L 1051.05 637.66 L 1051.53 634.70 L 1052.02 631.73 L 1052.47 628.77 L 1052.91 625.80 L 1053.34 622.83 L 1053.76 619.86 L 1054.17 616.89 L 1054.52 613.91 L 1054.88 610.93 L 1055.22 607.95 L 1055.59 604.97 L 1055.96 602.00 L 1056.37 599.03 L 1056.75 596.05 L 1057.14 593.08 L 1057.48 590.09 L 1057.82 587.11 L 1058.13 584.13 L 1058.46 581.15 L 1058.78 578.17 L 1059.08 575.18 L 1059.42 572.20 L 1059.78 569.22 L 1060.13 566.24 L 1060.46 563.26 L 1060.78 560.28 L 1061.08 557.29 L 1061.35 554.30 L 1061.62 551.32 L 1061.88 548.33 L 1062.11 545.34 L 1062.34 542.35 L 1062.57 539.35 L 1062.74 536.36 L 1062.92 533.36 L 1063.08 530.37 L 1063.21 527.37 L 1063.33 524.37 L 1063.50 521.38 L 1063.73 518.39 L 1063.96 515.40 L 1064.20 512.41 L 1064.44 509.42 L 1064.70 506.43 L 1064.97 503.44 L 1065.26 500.45 L 1065.53 497.47 L 1065.83 494.48 L 1066.17 491.50 L 1066.46 488.51 L 1066.73 485.53 L 1066.96 482.53 L 1067.18 479.54 L 1067.38 476.55 L 1067.53 473.55 L 1067.69 470.56 L 1067.81 467.56 L 1067.96 464.56 L 1068.11 461.57 L 1068.29 458.57 L 1068.48 455.58 L 1068.68 452.59 L 1068.89 449.59 L 1069.15 446.60 L 1069.41 443.62 L 1069.67 440.63 L 1069.91 437.64 L 1070.15 434.65 L 1070.42 431.66 L 1070.72 428.67 L 1071.07 425.69 L 1071.47 422.72 L 1071.93 419.76 L 1072.33 416.78 L 1072.76 413.81 L 1073.21 410.85 L 1073.68 407.88 L 1074.18 404.93 L 1074.66 401.97 L 1075.12 399.00 L 1075.55 396.03 L 1076.01 393.07 L 1076.47 390.10 L 1076.90 387.13 L 1077.35 384.17 L 1077.81 381.20 L 1078.28 378.24 L 1078.77 375.28 L 1079.25 372.32 L 1079.72 369.36 L 1080.22 366.40 L 1080.71 363.44 L 1081.16 360.47 L 1081.57 357.50 L 1081.93 354.52 L 1082.25 351.54 L 1082.57 348.56 L 1082.89 345.57 L 1083.15 342.58 L 1083.43 339.60 L 1083.66 336.61 L 1083.88 333.61 L 1084.11 330.62 L 1084.37 327.63 L 1084.64 324.65 L 1084.89 321.66 L 1085.15 318.67 L 1085.37 315.68 L 1085.62 312.69 L 1085.87 309.70 L 1086.08 306.70 L 1086.29 303.71 L 1086.49 300.72 L 1086.66 297.72 L 1086.82 294.73 L 1086.97 291.73 L 1087.12 288.74 L 1087.22 285.74 L 1087.31 282.74 L 1087.40 279.74 L 1087.50 276.74 L 1087.67 273.75 L 1087.86 270.75 L 1088.04 267.76 L 1088.25 264.77 L 1088.47 261.77 L 1088.66 258.78 L 1088.87 255.79 L 1089.08 252.79 L 1089.28 249.80 L 1089.46 246.81 L 1089.65 243.81 L 1089.85 240.82 L 1090.07 237.83 L 1090.30 234.84 L 1090.55 231.85 L 1090.77 228.85 L 1091.01 225.86 L 1091.27 222.87 L 1091.54 219.89 L 1091.77 216.90 L 1091.97 213.90 L 1092.18 210.91 L 1092.36 207.92 L 1092.55 204.92 L 1092.79 201.93 L 1093.04 198.94 L 1093.35 195.96 L 1093.69 192.98 L 1094.02 190.00 L 1094.35 187.01 L 1094.68 184.03 L 1095.00 181.05 L 1095.31 178.06 L 1095.63 175.08 L 1095.98 172.10 L 1096.30 169.12 L 1096.70 166.15 L 1097.03 163.16 L 1097.38 160.18 L 1097.78 157.21 L 1098.16 154.24 L 1098.55 151.26 L 1098.95 148.29 L 1099.32 145.31 L 1099.73 142.34 L 1100.16 139.37 L 1100.61 136.40 L 1101.13 133.45 L 1101.65 130.49 L 1102.19 127.54 L 1102.71 124.59 L 1103.21 121.63 L 1103.74 118.68 L 1104.27 115.72 L 1104.85 112.78 L 1105.44 109.84 L 1106.07 106.91 L 1106.74 103.98 L 1107.37 101.05 L 1108.04 98.13 L 1108.72 95.20 L 1109.41 92.28 L 1110.10 89.36 L 1110.77 86.44 L 1111.41 83.51 L 1112.08 80.59 L 1112.74 77.66 L 1113.43 74.74 L 1114.07 71.81 L 1114.71 68.88 L 1115.32 65.94 L 1115.94 63.00 L 1116.56 60.07 L 1117.21 57.14 L 1117.87 54.22 L 1118.56 51.29 L 1119.23 48.37 L 1119.92 45.45 L 1120.60 42.53 L 1121.26 39.60 L 1121.95 36.68 L 1122.61 33.76 L 1123.28 30.83 L 1123.96 27.91 L 1124.61 24.98 L 1125.24 22.05 L 1125.85 19.11 L 1126.46 16.17 L 1127.05 13.23 L 1127.66 10.29 L 1128.25 7.35 L 1128.83 4.41 L 1129.40 1.46 L 1129.97 -1.48 L 1130.51 -4.43 L 1131.03 -7.39 L 1131.52 -10.35 L 1131.99 -13.31 L 1132.49 -16.27 L 1133.00 -19.22 L 1133.46 -22.19" stroke="rgb(245,245,245)" stroke-opacity="0.711" stroke-width="1.12" />
  <path d="M 1022.20 952.31 L 1022.41 949.36 L 1022.62 946.42 L 1022.84 943.50 L 1022.98 940.58 L 1023.16 937.67 L 1023.36 934.78 L 1023.63 931.91 L 1023.87 929.04 L 1024.10 926.19 L 1024.21 923.34 L 1024.29 920.50 L 1024.38 917.67 L 1024.60 914.86 L 1024.74 912.06 L 1024.97 909.27 L 1025.30 906.50 L 1025.66 903.75 L 1025.99 901.01 L 1026.35 898.28 L 1026.73 895.57 L 1027.08 892.86 L 1027.59 890.19 L 1028.18 887.55 L 1028.67 884.90 L 1029.27 882.28 L 1029.93 879.69 L 1030.60 877.11 L 1031.27 874.54 L 1032.02 872.00 L 1032.79 869.49 L 1033.52 866.97 L 1034.26 864.46 L 1035.00 861.97 L 1035.80 859.51 L 1036.70 857.09 L 1037.65 854.70 L 1038.59 852.32 L 1039.44 849.92 L 1040.30 847.52" stroke="rgb(140,255,190)" stroke-opacity="0.533" stroke-width="1.12" />
  <path d="M 995.21 1000.08 L 996.18 997.24 L 997.15 994.42 L 998.19 991.64 L 999.21 988.87 L 1000.11 986.06 L 1001.02 983.28 L 1001.98 980.51 L 1003.04 977.80" stroke="rgb(140,255,190)" stroke-opacity="0.532" stroke-width="1.12" />
  <path d="M 1000.90 1002.23 L 1001.65 999.86 L 1002.46 997.52 L 1003.21 995.17 L 1003.86 992.80 L 1004.60 990.47 L 1005.34 988.15 L 1006.04 985.83 L 1006.71 983.50 L 1007.32 981.18 L 1007.95 978.86 L 1008.57 976.55 L 1009.24 974.27 L 1009.96 972.01 L 1010.67 969.76 L 1011.40 967.53 L 1012.01 965.27 L 1012.68 963.04 L 1013.36 960.81 L 1014.06 958.61 L 1014.66 956.39 L 1015.16 954.15 L 1015.74 951.93 L 1016.50 949.79 L 1017.32 947.68 L 1018.18 945.59 L 1018.97 943.48 L 1019.84 941.42 L 1020.74 939.37 L 1021.68 937.36 L 1022.62 935.36 L 1023.59 933.38 L 1024.57 931.41 L 1025.55 929.46 L 1026.61 927.55 L 1027.79 925.73 L 1028.87 923.86 L 1029.81 921.93 L 1030.74 919.99 L 1031.64 918.06 L 1032.49 916.11 L 1033.32 914.16 L 1034.12 912.21 L 1034.93 910.27 L 1035.80 908.37 L 1036.76 906.52 L 1037.69 904.66 L 1038.55 902.78 L 1039.36 900.89 L 1040.10 898.97 L 1040.84 897.07 L 1041.60 895.18 L 1042.24 893.26 L 1042.88 891.35" stroke="rgb(140,255,190)" stroke-opacity="0.531" stroke-width="1.12" />
  <path d="M 999.37 1000.72 L 999.11 997.81 L 998.96 994.91 L 998.76 992.02 L 998.57 989.15 L 998.48 986.28 L 998.43 983.42 L 998.47 980.57 L 998.59 977.74 L 998.69 974.92 L 998.81 972.11 L 998.97 969.31 L 999.11 966.52" stroke="rgb(140,255,190)" stroke-opacity="0.530" stroke-width="1.11" />
  <path d="M 999.69 999.52 L 999.31 996.92 L 998.93 994.34 L 998.72 991.75 L 998.43 989.18 L 998.05 986.62 L 997.70 984.08 L 997.47 981.53 L 997.32 978.99 L 997.16 976.46 L 996.95 973.94 L 996.66 971.44 L 996.41 968.94 L 996.23 966.45 L 996.00 963.97 L 995.78 961.51 L 995.64 959.04 L 995.51 956.59 L 995.35 954.15 L 995.30 951.71 L 995.19 949.28 L 995.14 946.86 L 995.16 944.45 L 995.23 942.06 L 995.29 939.67 L 995.34 937.29 L 995.40 934.92 L 995.44 932.56 L 995.52 930.21 L 995.64 927.87 L 995.74 925.54 L 995.78 923.21 L 995.78 920.90 L 995.76 918.59 L 995.71 916.30" stroke="rgb(140,255,190)" stroke-opacity="0.530" stroke-width="1.11" />
  <path d="M 1014.91 809.16 L 1016.29 806.55 L 1017.57 803.91 L 1018.94 801.32 L 1020.32 798.75 L 1021.75 796.23 L 1023.17 793.71 L 1024.59 791.20 L 1025.98 788.69 L 1027.29 786.15 L 1028.47 783.57 L 1029.68 781.00 L 1031.02 778.52 L 1032.41 776.08 L 1033.77 773.63 L 1035.03 771.14 L 1036.31 768.67 L 1037.56 766.21 L 1038.73 763.71 L 1039.83 761.20 L 1040.87 758.67 L 1042.07 756.22 L 1043.30 753.81 L 1044.54 751.41 L 1045.74 749.00 L 1047.04 746.66 L 1048.25 744.28 L 1049.51 741.94 L 1050.87 739.67 L 1052.26 737.43 L 1053.76 735.27 L 1055.19 733.08 L 1056.58 730.88 L 1057.89 728.64 L 1059.21 726.41 L 1060.50 724.19 L 1061.75 721.95 L 1062.84 719.64 L 1063.97 717.36 L 1065.11 715.10 L 1066.25 712.85 L 1067.39 710.61 L 1068.56 708.40 L 1069.80 706.23 L 1071.02 704.07 L 1072.23 701.91 L 1073.39 699.74 L 1074.53 697.57 L 1075.70 695.43 L 1076.87 693.29 L 1078.04 691.17 L 1079.20 689.05 L 1080.34 686.93 L 1081.48 684.83 L 1082.62 682.73" stroke="rgb(140,255,190)" stroke-opacity="0.529" stroke-width="1.11" />
  <path d="M 1019.36 961.61 L 1019.24 959.04 L 1019.22 956.48 L 1019.24 953.93 L 1019.32 951.39 L 1019.46 948.87 L 1019.67 946.36 L 1019.88 943.86 L 1019.86 941.36 L 1019.85 938.87 L 1019.73 936.39 L 1019.80 933.92 L 1019.94 931.47 L 1020.02 929.02 L 1020.23 926.59 L 1020.41 924.16 L 1020.34 921.75 L 1020.29 919.34 L 1020.34 916.93 L 1020.50 914.55 L 1020.75 912.18 L 1020.86 909.81 L 1020.92 907.45 L 1020.93 905.09 L 1021.09 902.75 L 1021.28 900.43 L 1021.60 898.12 L 1021.92 895.83 L 1022.18 893.54 L 1022.31 891.24 L 1022.41 888.96 L 1022.57 886.68 L 1022.67 884.42 L 1022.79 882.16 L 1023.05 879.92 L 1023.40 877.71 L 1023.71 875.49 L 1023.94 873.28 L 1024.02 871.07 L 1024.07 868.86 L 1024.13 866.66 L 1024.07 864.47" stroke="rgb(140,255,190)" stroke-opacity="0.528" stroke-width="1.10" />
  <path d="M 1000.44 996.83 L 1001.66 994.44 L 1002.78 992.02 L 1003.96 989.64 L 1005.08 987.24 L 1006.20 984.85 L 1007.33 982.48 L 1008.40 980.09 L 1009.48 977.72 L 1010.46 975.32 L 1011.42 972.92 L 1012.40 970.54 L 1013.35 968.16 L 1014.32 965.80 L 1015.26 963.43 L 1016.10 961.04 L 1016.90 958.65 L 1017.71 956.27 L 1018.53 953.91 L 1019.42 951.58 L 1020.33 949.27 L 1021.21 946.96 L 1022.13 944.67 L 1023.05 942.40 L 1023.95 940.12 L 1024.87 937.87 L 1025.76 935.62 L 1026.54 933.33 L 1027.31 931.05 L 1028.06 928.78 L 1028.80 926.51 L 1029.51 924.24 L 1030.30 922.01 L 1031.05 919.78 L 1031.80 917.55 L 1032.50 915.32" stroke="rgb(205,165,255)" stroke-opacity="0.467" stroke-width="1.10" />
  <path d="M 1000.66 998.00 L 999.89 995.16 L 999.12 992.34 L 998.46 989.50 L 997.89 986.65 L 997.30 983.82 L 996.83 980.98 L 996.45 978.13 L 996.07 975.30 L 995.59 972.49 L 995.04 969.71 L 994.42 966.96 L 993.81 964.21 L 993.22 961.47 L 992.62 958.75 L 991.99 956.04 L 991.32 953.36 L 990.63 950.69 L 990.03 948.01 L 989.40 945.35 L 988.78 942.70 L 988.11 940.07 L 987.47 937.44 L 986.87 934.82 L 986.20 932.23 L 985.48 929.65 L 984.80 927.08 L 984.14 924.52 L 983.49 921.96 L 982.91 919.40 L 982.22 916.88 L 981.56 914.36 L 980.99 911.82 L 980.49 909.29 L 979.95 906.77" stroke="rgb(140,255,190)" stroke-opacity="0.527" stroke-width="1.10" />
  <path d="M 1001.14 996.66 L 1002.26 994.29 L 1003.44 991.95 L 1004.65 989.65 L 1005.85 987.36 L 1007.15 985.13 L 1008.48 982.92 L 1009.75 980.70 L 1011.03 978.49 L 1012.24 976.26 L 1013.40 974.01 L 1014.60 971.80 L 1015.80 969.59 L 1016.98 967.39 L 1018.09 965.16 L 1019.35 963.03 L 1020.59 960.89 L 1021.80 958.75 L 1022.99 956.61 L 1024.20 954.49 L 1025.45 952.40 L 1026.68 950.32 L 1027.85 948.21 L 1029.06 946.13 L 1030.27 944.08 L 1031.50 942.03 L 1032.65 939.96 L 1033.82 937.90 L 1034.94 935.83 L 1036.02 933.75 L 1037.13 931.70" stroke="rgb(140,255,190)" stroke-opacity="0.527" stroke-width="1.10" />
  <path d="M 1028.87 923.86 L 1030.41 921.43 L 1031.90 918.99 L 1033.45 916.59 L 1035.07 914.26 L 1036.56 911.86 L 1038.14 909.52 L 1039.72 907.20 L 1041.18 904.81 L 1042.70 902.48 L 1044.30 900.22 L 1045.78 897.88 L 1047.27 895.57 L 1048.89 893.36 L 1050.51 891.16 L 1052.15 888.99 L 1053.77 886.82 L 1055.34 884.63 L 1056.93 882.47 L 1058.56 880.35 L 1060.19 878.24 L 1061.81 876.13 L 1063.49 874.09 L 1065.28 872.17 L 1066.96 870.15 L 1068.66 868.17 L 1070.27 866.13 L 1071.89 864.10 L 1073.47 862.06 L 1075.02 860.01 L 1076.60 858.00 L 1078.21 856.02 L 1079.79 854.03 L 1081.38 852.07 L 1083.01 850.15 L 1084.68 848.27 L 1086.35 846.41 L 1087.98 844.53 L 1089.58 842.64 L 1091.26 840.83 L 1092.99 839.08 L 1094.62 837.25 L 1096.24 835.43 L 1097.93 833.68 L 1099.48 831.83 L 1101.06 830.00 L 1102.62 828.18 L 1104.16 826.35 L 1105.74 824.57 L 1107.30 822.78 L 1108.87 821.01 L 1110.47 819.28 L 1112.00 817.51 L 1113.47 815.70 L 1114.89 813.86 L 1116.37 812.07 L 1117.78 810.25 L 1119.15 808.41 L 1120.52 806.57 L 1121.99 804.83" stroke="rgb(140,255,190)" stroke-opacity="0.526" stroke-width="1.10" />
  <path d="M 1000.34 1003.17 L 1001.58 1000.85 L 1002.77 998.51 L 1003.99 996.21 L 1005.08 993.85 L 1006.20 991.52 L 1007.41 989.24 L 1008.59 986.96 L 1009.83 984.72 L 1010.95 982.44 L 1012.04 980.14 L 1013.03 977.82 L 1014.05 975.52 L 1014.95 973.18 L 1015.92 970.88 L 1016.82 968.56 L 1017.70 966.25 L 1018.57 963.94 L 1019.36 961.61 L 1020.15 959.30 L 1020.92 956.98 L 1021.59 954.65 L 1022.20 952.31 L 1022.68 949.95 L 1023.07 947.58 L 1023.39 945.22 L 1023.72 942.86 L 1024.07 940.52 L 1024.39 938.18 L 1024.70 935.85" stroke="rgb(140,255,190)" stroke-opacity="0.526" stroke-width="1.10" />
  <path d="M 1019.35 963.03 L 1021.12 960.96 L 1022.89 958.91 L 1024.56 956.79 L 1026.28 954.73 L 1027.99 952.67 L 1029.53 950.49 L 1031.09 948.35 L 1032.67 946.23 L 1034.35 944.20 L 1036.08 942.23 L 1037.74 940.21 L 1039.42 938.22 L 1041.18 936.32 L 1042.84 934.34 L 1044.52 932.40 L 1046.28 930.54 L 1048.11 928.77" stroke="rgb(140,255,190)" stroke-opacity="0.524" stroke-width="1.09" />
  <path d="M 1008.99 921.77 L 1008.09 919.24 L 1007.17 916.73 L 1006.27 914.23 L 1005.38 911.73 L 1004.52 909.24 L 1003.68 906.74 L 1002.81 904.28 L 1001.84 901.86 L 1000.80 899.48 L 999.66 897.15 L 998.68 894.77 L 997.69 892.40 L 996.66 890.06 L 995.58 887.75 L 994.60 885.42 L 993.66 883.07 L 992.72 880.74 L 991.84 878.39 L 991.08 876.01 L 990.31 873.65 L 989.63 871.27 L 988.99 868.89 L 988.23 866.55 L 987.51 864.21 L 986.82 861.88 L 986.13 859.55 L 985.49 857.22 L 984.83 854.91 L 984.18 852.60 L 983.63 850.27 L 982.95 848.00 L 982.50 845.67 L 981.97 843.37 L 981.47 841.07 L 981.16 838.75 L 980.88 836.44 L 980.65 834.13 L 980.40 831.83 L 980.09 829.55 L 979.76 827.28 L 979.48 825.01" stroke="rgb(140,255,190)" stroke-opacity="0.523" stroke-width="1.09" />
  <path d="M 998.64 1002.22 L 998.64 999.39 L 998.59 996.58 L 998.53 993.77 L 998.43 990.98 L 998.37 988.20 L 998.28 985.43 L 998.18 982.67 L 998.06 979.93 L 998.05 977.19 L 998.09 974.46 L 997.99 971.75 L 997.94 969.04 L 997.93 966.35 L 997.90 963.66 L 997.83 960.99 L 997.73 958.33 L 997.60 955.68 L 997.43 953.05 L 997.20 950.43 L 997.03 947.81 L 996.91 945.21 L 996.80 942.61 L 996.74 940.02 L 996.67 937.44 L 996.51 934.88 L 996.33 932.33 L 996.26 929.78 L 996.13 927.25 L 995.95 924.73 L 995.73 922.22 L 995.55 919.72 L 995.30 917.24 L 994.99 914.77 L 994.78 912.30 L 994.57 909.84 L 994.42 907.39 L 994.20 904.95 L 993.95 902.53 L 993.73 900.11 L 993.53 897.70 L 993.32 895.30 L 993.17 892.91 L 993.08 890.52 L 993.08 888.14 L 993.09 885.77 L 993.01 883.41" stroke="rgb(140,255,190)" stroke-opacity="0.523" stroke-width="1.09" />
  <path d="M 1001.95 1002.29 L 1003.08 1000.31 L 1004.25 998.35 L 1005.31 996.35 L 1006.36 994.35 L 1007.38 992.34 L 1008.49 990.40 L 1009.58 988.45 L 1010.69 986.53 L 1011.98 984.73 L 1013.29 982.95 L 1014.62 981.21 L 1015.90 979.44 L 1017.13 977.64 L 1018.53 975.98 L 1019.85 974.27 L 1021.19 972.58 L 1022.42 970.83 L 1023.71 969.13 L 1025.07 967.49 L 1026.45 965.89 L 1027.85 964.30 L 1029.16 962.67 L 1030.54 961.09 L 1031.92 959.53 L 1033.18 957.87 L 1034.37 956.19 L 1035.59 954.53 L 1036.83 952.89 L 1038.10 951.29 L 1039.40 949.73 L 1040.67 948.14 L 1041.97 946.60 L 1043.29 945.09 L 1044.75 943.71 L 1046.16 942.31 L 1047.56 940.90 L 1049.00 939.54 L 1050.40 938.15" stroke="rgb(205,165,255)" stroke-opacity="0.455" stroke-width="1.06" />
  <path d="M 1004.89 1000.11 L 1005.20 1002.36 L 1005.42 1004.62 L 1005.60 1006.87 L 1005.80 1009.11 L 1006.12 1011.32 L 1006.34 1013.54 L 1006.62 1015.74" stroke="rgb(205,165,255)" stroke-opacity="0.452" stroke-width="1.05" />
  <path d="M 997.96 1000.11 L 999.76 998.81 L 1001.55 997.52 L 1003.29 996.17 L 1004.98 994.77 L 1006.67 993.39 L 1008.41 992.08 L 1010.19 990.85" stroke="rgb(205,165,255)" stroke-opacity="0.448" stroke-width="1.03" />
  <path d="M 1002.13 994.68 L 1001.09 993.60 L 999.82 992.81 L 998.48 992.17 L 997.10 991.63 L 995.65 991.36 L 994.20 991.11 L 992.73 991.08 L 991.29 990.88 L 989.84 990.72 L 988.40 990.82 L 986.96 990.76 L 985.54 990.96 L 984.11 990.83" stroke="rgb(230,230,230)" stroke-opacity="0.383" stroke-width="0.71" />
  <path d="M 1002.15 1000.26 L 1001.24 1001.46 L 1000.08 1002.39 L 998.84 1003.21 L 997.59 1004.01 L 996.23 1004.58 L 994.92 1005.25 L 993.64 1005.96 L 992.26 1006.45 L 990.88 1006.89" stroke="rgb(230,230,230)" stroke-opacity="0.383" stroke-width="0.70" />
  <path d="M 996.02 1005.01 L 995.87 1006.51 L 995.77 1008.00 L 995.70 1009.48 L 995.68 1010.96 L 995.73 1012.44" stroke="rgb(230,230,230)" stroke-opacity="0.383" stroke-width="0.70" />
  <path d="M 1000.49 1002.88 L 1001.05 1001.49 L 1002.00 1000.33 L 1002.84 999.11 L 1003.62 997.84 L 1004.45 996.63 L 1005.38 995.49 L 1006.33 994.37 L 1007.23 993.22 L 1007.87 991.92" stroke="rgb(230,230,230)" stroke-opacity="0.379" stroke-width="0.69" />
  <path d="M 993.13 1007.29 L 992.57 1008.68 L 991.95 1010.04 L 991.49 1011.45 L 991.06 1012.87 L 990.62 1014.28 L 990.23 1015.70" stroke="rgb(230,230,230)" stroke-opacity="0.378" stroke-width="0.69" />
  <path d="M 1000.06 997.65 L 1000.44 999.10 L 1001.03 1000.48 L 1001.54 1001.87 L 1002.08 1003.25 L 1002.52 1004.66 L 1002.99 1006.06 L 1003.44 1007.45 L 1003.95 1008.82" stroke="rgb(230,230,230)" stroke-opacity="0.374" stroke-width="0.68" />
  <path d="M 1008.34 998.30 L 1007.92 996.86 L 1007.50 995.42 L 1007.07 994.00 L 1006.50 992.63 L 1005.95 991.26 L 1005.36 989.91 L 1004.71 988.60" stroke="rgb(230,230,230)" stroke-opacity="0.374" stroke-width="0.68" />
  <path d="M 994.33 1004.22 L 992.87 1003.91 L 991.43 1003.51 L 989.99 1003.11 L 988.65 1002.49 L 987.24 1002.06 L 985.88 1001.49 L 984.54 1000.90 L 983.21 1000.30" stroke="rgb(230,230,230)" stroke-opacity="0.373" stroke-width="0.67" />
  <path d="M 999.90 997.43 L 1001.25 996.78 L 1002.57 996.10 L 1003.94 995.50 L 1005.29 994.89 L 1006.60 994.22 L 1007.97 993.67" stroke="rgb(230,230,230)" stroke-opacity="0.371" stroke-width="0.67" />
  <path d="M 1004.01 1000.59 L 1004.05 999.09 L 1004.51 997.67 L 1005.05 996.29 L 1005.97 995.12 L 1006.84 993.93 L 1007.62 992.68 L 1008.39 991.44 L 1009.16 990.20" stroke="rgb(230,230,230)" stroke-opacity="0.370" stroke-width="0.67" />
  <path d="M 997.49 995.03 L 997.56 996.53 L 997.43 998.01 L 997.35 999.50 L 997.34 1000.98 L 997.21 1002.45 L 997.01 1003.91" stroke="rgb(230,230,230)" stroke-opacity="0.370" stroke-width="0.67" />
  <path d="M 1001.96 996.28 L 1003.45 996.45 L 1004.83 997.03 L 1006.17 997.69 L 1007.46 998.42 L 1008.76 999.12 L 1009.98 999.94 L 1011.17 1000.79" stroke="rgb(230,230,230)" stroke-opacity="0.364" stroke-width="0.65" />
  <path d="M 993.92 1004.50 L 995.27 1005.14 L 996.60 1005.83 L 997.91 1006.54 L 999.18 1007.29 L 1000.48 1008.01 L 1001.61 1008.94 L 1002.78 1009.82 L 1003.92 1010.74 L 1005.08 1011.61 L 1006.27 1012.43 L 1007.48 1013.21 L 1008.71 1013.95 L 1009.83 1014.84 L 1010.88 1015.81 L 1012.01 1016.66" stroke="rgb(230,230,230)" stroke-opacity="0.364" stroke-width="0.65" />
  <path d="M 1000.64 1000.67 L 1002.09 1000.29 L 1003.58 1000.18 L 1005.07 1000.18 L 1006.53 999.93 L 1008.00 1000.08 L 1009.44 1000.38 L 1010.90 1000.40 L 1012.32 1000.08 L 1013.71 999.64" stroke="rgb(230,230,230)" stroke-opacity="0.359" stroke-width="0.64" />
  <path d="M 1001.26 1004.95 L 1000.47 1006.23 L 999.83 1007.58 L 999.24 1008.94 L 998.73 1010.34 L 998.24 1011.73 L 997.93 1013.17 L 997.58 1014.59 L 997.35 1016.03 L 997.11 1017.46 L 996.90 1018.89 L 996.79 1020.33 L 996.61 1021.75 L 996.50 1023.18" stroke="rgb(230,230,230)" stroke-opacity="0.359" stroke-width="0.64" />
  <path d="M 998.05 1004.31 L 996.77 1003.53 L 995.56 1002.65 L 994.26 1001.93 L 992.89 1001.36 L 991.54 1000.76" stroke="rgb(230,230,230)" stroke-opacity="0.359" stroke-width="0.64" />
  <path d="M 1004.44 999.94 L 1004.92 998.52 L 1005.31 997.08 L 1005.82 995.68 L 1005.99 994.21 L 1006.30 992.76 L 1006.74 991.36 L 1007.12 989.95 L 1007.54 988.55 L 1007.98 987.17 L 1008.37 985.77 L 1008.80 984.40 L 1009.10 983.00 L 1009.30 981.58" stroke="rgb(230,230,230)" stroke-opacity="0.353" stroke-width="0.62" />
  <path d="M 997.04 1002.04 L 998.23 1002.95 L 999.43 1003.84 L 1000.67 1004.67 L 1001.97 1005.38 L 1003.36 1005.87 L 1004.71 1006.45" stroke="rgb(230,230,230)" stroke-opacity="0.352" stroke-width="0.62" />
</g>
</svg>
