<?xml version="1.0" encoding="UTF-8"?>
<svg xmlns="http://www.w3.org/2000/svg" width="2000" height="2000" viewBox="0 0 2000 2000">
<g fill="none" stroke-linecap="round" stroke-linejoin="round">
  <path d="M 999.20 998.27 L 1002.29 997.15 L 1005.39 996.11 L 1008.47 995.04 L 1011.54 993.98 L 1014.56 992.80 L 1017.56 991.62 L 1020.55 990.46 L 1023.53 989.30 L 1026.48 988.10 L 1029.42 986.90 L 1032.34 985.70 L 1035.22 984.44 L 1038.10 983.22 L 1040.97 982.01 L 1043.83 980.80 L 1046.64 979.52 L 1049.44 978.27 L 1052.23 977.03 L 1055.01 975.80 L 1057.79 974.60 L 1060.55 973.39 L 1063.31 972.25" stroke="rgb(120,210,255)" stroke-opacity="0.853" stroke-width="1.63" />
  <path d="M 1000.29 1002.61 L 1003.64 1001.66 L 1006.97 1000.71 L 1010.30 999.77 L 1013.61 998.83 L 1016.91 997.92 L 1020.19 997.01 L 1023.47 996.14 L 1026.74 995.26 L 1029.99 994.38 L 1033.21 993.44 L 1036.42 992.51 L 1039.62 991.58 L 1042.79 990.64 L 1045.97 989.75 L 1049.14 988.86 L 1052.28 987.95 L 1055.42 987.07 L 1058.55 986.19 L 1061.66 985.30 L 1064.76 984.42 L 1067.85 983.55 L 1070.93 982.72" stroke="rgb(120,210,255)" stroke-opacity="0.851" stroke-width="1.63" />
  <path d="M 996.40 997.25 L 999.63 996.20 L 1002.84 995.18 L 1006.04 994.14 L 1009.22 993.11 L 1012.38 992.08 L 1015.56 991.09 L 1018.73 990.12 L 1021.88 989.17 L 1025.03 988.22 L 1028.16 987.28 L 1031.28 986.33 L 1034.37 985.37 L 1037.45 984.41 L 1040.52 983.45 L 1043.56 982.50 L 1046.59 981.52 L 1049.62 980.61 L 1052.64 979.70 L 1055.64 978.78 L 1058.64 977.91 L 1061.64 977.08 L 1064.63 976.28 L 1067.61 975.50 L 1070.58 974.71 L 1073.53 973.94 L 1076.46 973.15 L 1079.37 972.32 L 1082.26 971.43 L 1085.13 970.52 L 1088.00 969.62 L 1090.84 968.70 L 1093.68 967.80 L 1096.49 966.88 L 1099.29 965.96 L 1102.08 965.05 L 1104.87 964.16 L 1107.65 963.27 L 1110.41 962.38 L 1113.17 961.53 L 1115.92 960.67 L 1118.65 959.81 L 1121.37 958.95 L 1124.06 958.05 L 1126.72 957.07 L 1129.36 956.08 L 1131.97 955.05 L 1134.57 954.01 L 1137.16 952.98 L 1139.74 951.95 L 1142.32 950.93 L 1144.89 949.93 L 1147.44 948.92 L 1149.98 947.93 L 1152.50 946.93 L 1155.02 945.94 L 1157.51 944.92 L 1159.99 943.90" stroke="rgb(120,210,255)" stroke-opacity="0.847" stroke-width="1.61" />
  <path d="M 998.42 1001.93 L 1001.31 1000.73 L 1004.19 999.53 L 1007.06 998.33 L 1009.92 997.15 L 1012.78 996.00 L 1015.62 994.84 L 1018.46 993.70 L 1021.27 992.55 L 1024.09 991.43 L 1026.89 990.31 L 1029.67 989.17 L 1032.42 987.99 L 1035.16 986.82 L 1037.90 985.65 L 1040.61 984.48 L 1043.31 983.27 L 1045.99 982.06 L 1048.66 980.86 L 1051.33 979.69" stroke="rgb(120,210,255)" stroke-opacity="0.844" stroke-width="1.60" />
  <path d="M 999.72 997.47 L 1002.78 996.27 L 1005.84 995.09 L 1008.88 993.92 L 1011.89 992.72 L 1014.90 991.53 L 1017.89 990.32 L 1020.87 989.15 L 1023.84 987.98 L 1026.78 986.78 L 1029.72 985.61 L 1032.64 984.41 L 1035.55 983.22" stroke="rgb(120,210,255)" stroke-opacity="0.844" stroke-width="1.60" />
  <path d="M 999.24 1001.04 L 1002.46 999.92 L 1005.67 998.82 L 1008.87 997.74 L 1012.05 996.63 L 1015.20 995.49 L 1018.33 994.31 L 1021.45 993.16 L 1024.55 992.00 L 1027.64 990.84 L 1030.72 989.67 L 1033.78 988.53 L 1036.82 987.35 L 1039.84 986.16 L 1042.85 985.00 L 1045.85 983.83 L 1048.84 982.65 L 1051.81 981.49 L 1054.77 980.32 L 1057.72 979.17 L 1060.66 978.03 L 1063.58 976.85 L 1066.46 975.62 L 1069.33 974.40 L 1072.17 973.14 L 1075.00 971.90 L 1077.82 970.66 L 1080.63 969.43 L 1083.43 968.22 L 1086.23 967.00 L 1089.01 965.80 L 1091.78 964.60 L 1094.54 963.41 L 1097.30 962.24 L 1100.06 961.10 L 1102.80 959.95 L 1105.53 958.82 L 1108.26 957.70 L 1110.98 956.58 L 1113.68 955.48 L 1116.38 954.38 L 1119.05 953.28 L 1121.70 952.15 L 1124.34 951.03 L 1126.96 949.89 L 1129.58 948.80 L 1132.19 947.71 L 1134.79 946.64 L 1137.37 945.52 L 1139.93 944.42 L 1142.49 943.32 L 1145.04 942.22 L 1147.57 941.13 L 1150.11 940.08 L 1152.65 939.04 L 1155.17 938.00" stroke="rgb(120,210,255)" stroke-opacity="0.841" stroke-width="1.59" />
  <path d="M 1000.38 1001.13 L 1003.07 1000.21 L 1005.76 999.33 L 1008.44 998.46 L 1011.06 997.49 L 1013.73 996.64 L 1016.40 995.84 L 1019.07 995.07 L 1021.72 994.28 L 1024.35 993.48 L 1026.98 992.69 L 1029.60 991.93 L 1032.21 991.16 L 1034.81 990.41 L 1037.40 989.65 L 1039.98 988.90 L 1042.55 988.14 L 1045.11 987.38 L 1047.65 986.63 L 1050.20 985.89 L 1052.74 985.21 L 1055.27 984.50 L 1057.79 983.81 L 1060.29 983.10 L 1062.79 982.38 L 1065.26 981.65 L 1067.74 980.97 L 1070.21 980.28 L 1072.67 979.62 L 1075.12 978.95 L 1077.56 978.28 L 1080.01 977.67 L 1082.44 977.06 L 1084.88 976.50 L 1087.30 975.91 L 1089.71 975.34 L 1092.12 974.81 L 1094.53 974.28 L 1096.94 973.82 L 1099.32 973.30 L 1101.70 972.79 L 1104.07 972.28 L 1106.43 971.79" stroke="rgb(120,210,255)" stroke-opacity="0.457" stroke-width="1.57" />
  <path d="M 1000.43 1001.44 L 1002.58 1000.69 L 1004.73 999.94 L 1006.84 999.15 L 1008.96 998.42 L 1011.08 997.70 L 1013.16 996.90 L 1015.20 996.02 L 1017.23 995.14 L 1019.26 994.27 L 1021.34 993.57 L 1023.42 992.89 L 1025.50 992.25 L 1027.57 991.64 L 1029.63 990.98 L 1031.67 990.31 L 1033.68 989.57 L 1035.67 988.82 L 1037.66 988.09 L 1039.62 987.31 L 1041.58 986.54 L 1043.52 985.74 L 1045.45 984.96 L 1047.35 984.12 L 1049.24 983.29 L 1051.16 982.58 L 1053.09 981.91 L 1055.00 981.22 L 1056.91 980.55 L 1058.87 980.05 L 1060.83 979.55 L 1062.79 979.06 L 1064.74 978.59 L 1066.71 978.20 L 1068.65 977.72 L 1070.57 977.22 L 1072.49 976.72 L 1074.41 976.27 L 1076.31 975.80 L 1078.21 975.32 L 1080.10 974.84 L 1081.99 974.38 L 1083.88 973.97 L 1085.76 973.57 L 1087.65 973.23 L 1089.53 972.90 L 1091.40 972.57 L 1093.27 972.26" stroke="rgb(120,210,255)" stroke-opacity="0.436" stroke-width="1.45" />
  <path d="M 1002.11 1000.23 L 999.10 1001.64 L 996.10 1003.04 L 993.13 1004.45 L 990.19 1005.87 L 987.28 1007.30 L 984.37 1008.73 L 981.48 1010.18 L 978.60 1011.63 L 975.74 1013.07 L 972.89 1014.51 L 970.04 1015.95 L 967.21 1017.37 L 964.38 1018.78 L 961.58 1020.20 L 958.79 1021.63 L 956.01 1023.05 L 953.25 1024.48 L 950.48 1025.89 L 947.76 1027.35 L 945.07 1028.86 L 942.41 1030.40 L 939.74 1031.90 L 937.06 1033.36 L 934.42 1034.88 L 931.78 1036.39 L 929.15 1037.88 L 926.52 1039.35 L 923.90 1040.82 L 921.30 1042.29 L 918.72 1043.76 L 916.15 1045.25 L 913.63 1046.77 L 911.11 1048.30 L 908.61 1049.83 L 906.14 1051.38 L 903.68 1052.93 L 901.23 1054.48 L 898.78 1056.01 L 896.32 1057.49 L 893.87 1058.97 L 891.40 1060.41 L 888.95 1061.84 L 886.49 1063.24 L 884.06 1064.67 L 881.63 1066.07 L 879.27 1067.56 L 876.88 1069.00 L 874.51 1070.43 L 872.19 1071.93 L 869.87 1073.42 L 867.58 1074.93 L 865.28 1076.40 L 862.99 1077.86 L 860.70 1079.31 L 858.42 1080.75 L 856.15 1082.18 L 853.88 1083.59 L 851.60 1084.98 L 849.34 1086.36 L 847.10 1087.78 L 844.87 1089.17 L 842.63 1090.54 L 840.39 1091.87 L 838.14 1093.18 L 835.91 1094.50 L 833.68 1095.80 L 831.44 1097.05 L 829.19 1098.29 L 826.96 1099.52 L 824.74 1100.74 L 822.52 1101.95 L 820.31 1103.16 L 818.11 1104.36" stroke="rgb(205,165,255)" stroke-opacity="0.709" stroke-width="1.21" />
  <path d="M 1027.45 996.59 L 1029.76 995.21 L 1032.05 993.81 L 1034.40 992.44 L 1036.75 991.09 L 1039.09 989.75 L 1041.37 988.43 L 1043.70 987.17 L 1046.01 985.90 L 1048.32 984.63 L 1050.59 983.34 L 1052.84 982.04 L 1055.08 980.75 L 1057.31 979.41 L 1059.54 978.09 L 1061.83 976.84 L 1064.10 975.61 L 1066.33 974.34 L 1068.54 973.06 L 1070.75 971.80 L 1072.93 970.53 L 1075.10 969.24 L 1077.26 967.97 L 1079.42 966.69 L 1081.59 965.41 L 1083.76 964.15 L 1085.94 962.89 L 1088.11 961.68 L 1090.32 960.44 L 1092.52 959.17 L 1094.71 957.92 L 1096.90 956.69 L 1099.08 955.45 L 1101.23 954.22 L 1103.35 952.99 L 1105.45 951.80 L 1107.53 950.63 L 1109.62 949.46 L 1111.70 948.30 L 1113.77 947.12 L 1115.83 945.94 L 1117.89 944.78 L 1119.94 943.64 L 1121.99 942.52 L 1124.02 941.44 L 1126.04 940.33 L 1128.04 939.18 L 1130.09 938.08 L 1132.11 936.94 L 1134.13 935.80 L 1136.10 934.62 L 1138.06 933.41 L 1139.97 932.20 L 1141.87 931.00 L 1143.75 929.82 L 1145.60 928.64 L 1147.44 927.46 L 1149.31 926.31 L 1151.18 925.16" stroke="rgb(140,255,190)" stroke-opacity="0.739" stroke-width="1.19" />
  <path d="M 996.34 997.46 L 998.58 995.90 L 1000.82 994.34 L 1003.03 992.78 L 1005.21 991.22 L 1007.35 989.60 L 1009.56 988.02 L 1011.74 986.47 L 1013.83 984.90 L 1015.92 983.35 L 1017.98 981.79 L 1020.03 980.23 L 1022.07 978.68 L 1024.10 977.13 L 1026.15 975.62 L 1028.14 974.11 L 1030.12 972.62 L 1032.10 971.13 L 1034.07 969.65 L 1036.02 968.18 L 1037.94 966.75 L 1039.84 965.35 L 1041.75 964.00 L 1043.62 962.67 L 1045.49 961.37 L 1047.35 960.07 L 1049.21 958.67 L 1051.07 957.25 L 1052.93 955.84 L 1054.78 954.44 L 1056.59 953.01 L 1058.40 951.60 L 1060.20 950.19 L 1061.97 948.76 L 1063.72 947.32 L 1065.43 945.87 L 1067.14 944.46 L 1068.78 942.98 L 1070.42 941.52 L 1072.06 940.07 L 1073.74 938.65 L 1075.40 937.21 L 1077.04 935.78 L 1078.67 934.37 L 1080.30 932.96 L 1081.94 931.54 L 1083.60 930.11 L 1085.26 928.70 L 1086.92 927.28 L 1088.61 925.86 L 1090.27 924.44 L 1091.91 922.99 L 1093.53 921.53 L 1095.16 920.09 L 1096.76 918.64 L 1098.37 917.23 L 1099.95 915.80 L 1101.42 914.35 L 1102.90 912.90 L 1104.37 911.45 L 1105.84 909.99 L 1107.32 908.57 L 1108.79 907.20 L 1110.29 905.87 L 1111.80 904.58 L 1113.30 903.26 L 1114.83 902.00 L 1116.36 900.75 L 1117.89 899.49 L 1119.45 898.26 L 1121.02 897.05 L 1122.53 895.83 L 1124.08 894.65 L 1125.58 893.46 L 1127.08 892.28 L 1128.59 891.15 L 1130.09 890.05 L 1131.63 888.97" stroke="rgb(205,165,255)" stroke-opacity="0.697" stroke-width="1.18" />
  <path d="M 1001.76 1002.92 L 1003.97 1002.14 L 1006.17 1001.38 L 1008.35 1000.61 L 1010.52 999.85 L 1012.70 999.12 L 1014.84 998.33 L 1016.99 997.57 L 1019.12 996.81 L 1021.25 996.05 L 1023.38 995.35 L 1025.47 994.56 L 1027.57 993.79 L 1029.66 993.03 L 1031.73 992.26 L 1033.82 991.55 L 1035.92 990.95 L 1038.02 990.34 L 1040.10 989.72" stroke="rgb(140,255,190)" stroke-opacity="0.551" stroke-width="1.18" />
  <path d="M 1005.37 1001.41 L 1008.49 1000.16 L 1011.62 998.95 L 1014.71 997.68 L 1017.80 996.46 L 1020.87 995.24 L 1023.95 994.06 L 1027.01 992.86 L 1030.05 991.67 L 1033.09 990.49 L 1036.12 989.33 L 1039.15 988.21 L 1042.18 987.11 L 1045.21 986.04 L 1048.22 984.97 L 1051.23 983.92 L 1054.22 982.85 L 1057.21 981.84 L 1060.20 980.85 L 1063.18 979.87 L 1066.14 978.89 L 1069.09 977.91 L 1072.02 976.93 L 1074.94 975.93 L 1077.85 974.94 L 1080.74 973.95 L 1083.62 972.96 L 1086.49 971.97 L 1089.35 970.98 L 1092.19 969.99 L 1095.02 969.01 L 1097.84 968.04 L 1100.66 967.08 L 1103.45 966.11 L 1106.24 965.14 L 1109.02 964.20 L 1111.78 963.22 L 1114.52 962.25 L 1117.26 961.28 L 1120.01 960.38 L 1122.73 959.43 L 1125.44 958.49 L 1128.14 957.56 L 1130.82 956.62 L 1133.51 955.74 L 1136.19 954.86 L 1138.87 954.02 L 1141.52 953.12 L 1144.16 952.23 L 1146.78 951.34 L 1149.40 950.44 L 1152.00 949.55 L 1154.60 948.68 L 1157.20 947.84 L 1159.79 947.00 L 1162.37 946.16 L 1164.93 945.31 L 1167.49 944.48 L 1170.03 943.64 L 1172.56 942.78 L 1175.07 941.90 L 1177.56 941.00" stroke="rgb(140,255,190)" stroke-opacity="0.734" stroke-width="1.18" />
  <path d="M 1003.02 999.36 L 1006.26 998.27 L 1009.49 997.18 L 1012.70 996.10 L 1015.91 995.02 L 1019.10 993.94 L 1022.26 992.83 L 1025.42 991.74 L 1028.56 990.66 L 1031.69 989.58 L 1034.81 988.51 L 1037.92 987.46 L 1041.02 986.40 L 1044.12 985.40 L 1047.20 984.38 L 1050.28 983.40 L 1053.35 982.41 L 1056.41 981.43 L 1059.45 980.45 L 1062.47 979.44 L 1065.47 978.42 L 1068.47 977.42 L 1071.45 976.43 L 1074.42 975.44 L 1077.39 974.48 L 1080.35 973.53 L 1083.30 972.60 L 1086.25 971.68 L 1089.18 970.77 L 1092.10 969.86 L 1095.00 968.95 L 1097.89 968.02 L 1100.77 967.10 L 1103.63 966.17 L 1106.48 965.25 L 1109.32 964.34 L 1112.16 963.43 L 1114.98 962.54 L 1117.79 961.65 L 1120.59 960.76 L 1123.38 959.87 L 1126.15 958.98 L 1128.91 958.07 L 1131.65 957.16 L 1134.38 956.23 L 1137.12 955.38 L 1139.85 954.54 L 1142.56 953.71 L 1145.27 952.87 L 1147.96 952.02 L 1150.64 951.19 L 1153.31 950.33 L 1155.96 949.47 L 1158.61 948.62 L 1161.23 947.74 L 1163.84 946.86 L 1166.46 946.04 L 1169.05 945.17 L 1171.63 944.31 L 1174.19 943.44 L 1176.75 942.57 L 1179.29 941.71 L 1181.82 940.84 L 1184.34 939.99 L 1186.86 939.16 L 1189.36 938.30 L 1191.85 937.46" stroke="rgb(140,255,190)" stroke-opacity="0.732" stroke-width="1.17" />
  <path d="M 1001.73 1001.11 L 1004.88 999.94 L 1008.01 998.76 L 1011.12 997.58 L 1014.22 996.40 L 1017.34 995.29 L 1020.44 994.18 L 1023.53 993.08 L 1026.61 992.00 L 1029.68 990.94 L 1032.74 989.87 L 1035.79 988.81 L 1038.83 987.78 L 1041.86 986.75 L 1044.87 985.70 L 1047.88 984.69 L 1050.87 983.68 L 1053.86 982.68 L 1056.81 981.63 L 1059.77 980.64 L 1062.72 979.64 L 1065.65 978.63 L 1068.59 977.68 L 1071.51 976.73 L 1074.42 975.78 L 1077.32 974.84 L 1080.20 973.90 L 1083.07 972.94 L 1085.92 971.97 L 1088.76 971.01 L 1091.59 970.05 L 1094.41 969.10 L 1097.24 968.21" stroke="rgb(140,255,190)" stroke-opacity="0.731" stroke-width="1.17" />
  <path d="M 1044.94 973.92 L 1048.17 973.27 L 1051.37 972.59 L 1054.56 971.91 L 1057.73 971.23 L 1060.89 970.54 L 1064.04 969.84 L 1067.17 969.16 L 1070.30 968.50 L 1073.43 967.90 L 1076.54 967.27 L 1079.65 966.71 L 1082.75 966.17 L 1085.83 965.61 L 1088.90 965.08 L 1091.96 964.55 L 1095.01 964.04 L 1098.05 963.53 L 1101.08 963.03 L 1104.10 962.52 L 1107.10 962.03 L 1110.10 961.54 L 1113.09 961.11 L 1116.05 960.60 L 1118.99 960.08 L 1121.93 959.57 L 1124.85 959.01 L 1127.75 958.44 L 1130.65 957.89 L 1133.53 957.34 L 1136.41 956.83 L 1139.28 956.35 L 1142.15 955.89 L 1145.00 955.46 L 1147.84 955.01 L 1150.67 954.57 L 1153.49 954.16 L 1156.30 953.70 L 1159.09 953.23 L 1161.87 952.79 L 1164.64 952.31 L 1167.39 951.82 L 1170.12 951.29 L 1172.85 950.79 L 1175.56 950.27 L 1178.25 949.70 L 1180.93 949.12 L 1183.60 948.56 L 1186.26 948.00 L 1188.92 947.49 L 1191.57 946.97 L 1194.20 946.49 L 1196.83 946.04 L 1199.46 945.63 L 1202.07 945.24 L 1204.68 944.88 L 1207.27 944.53 L 1209.86 944.18" stroke="rgb(140,255,190)" stroke-opacity="0.730" stroke-width="1.17" />
  <path d="M 1068.59 960.37 L 1071.83 959.47 L 1075.07 958.57 L 1078.30 957.70 L 1081.52 956.84 L 1084.74 956.00 L 1087.94 955.17 L 1091.13 954.37 L 1094.30 953.52 L 1097.45 952.66 L 1100.59 951.83 L 1103.72 951.00 L 1106.84 950.19 L 1109.95 949.39 L 1113.05 948.59 L 1116.14 947.80 L 1119.21 947.01 L 1122.28 946.27 L 1125.36 945.61 L 1128.42 944.95" stroke="rgb(140,255,190)" stroke-opacity="0.728" stroke-width="1.16" />
  <path d="M 1000.92 999.74 L 1003.80 998.14 L 1006.65 996.53 L 1009.49 994.93 L 1012.31 993.32 L 1015.12 991.71 L 1017.89 990.07 L 1020.64 988.43 L 1023.39 986.79 L 1026.12 985.15 L 1028.85 983.55 L 1031.57 981.95 L 1034.28 980.35 L 1036.98 978.76 L 1039.65 977.16 L 1042.30 975.53 L 1044.94 973.92 L 1047.57 972.31 L 1050.22 970.77 L 1052.89 969.26 L 1055.55 967.79 L 1058.18 966.29 L 1060.81 964.82 L 1063.41 963.33 L 1066.01 961.85 L 1068.59 960.37 L 1071.15 958.90 L 1073.71 957.44 L 1076.26 955.97" stroke="rgb(140,255,190)" stroke-opacity="0.726" stroke-width="1.16" />
  <path d="M 1080.54 919.18 L 1081.35 916.35 L 1082.14 913.54 L 1082.88 910.71 L 1083.49 907.90 L 1084.00 905.11 L 1084.52 902.34 L 1085.11 899.64 L 1085.73 896.94 L 1086.35 894.26 L 1086.98 891.59 L 1087.59 888.93 L 1088.15 886.27" stroke="rgb(140,255,190)" stroke-opacity="0.724" stroke-width="1.15" />
  <path d="M 1000.16 1001.31 L 1003.12 1000.21 L 1006.06 999.13 L 1009.00 998.08 L 1011.93 997.01 L 1014.84 995.95 L 1017.74 994.88 L 1020.64 993.86 L 1023.53 992.87 L 1026.42 991.88 L 1029.31 990.93 L 1032.18 990.00 L 1035.05 989.07 L 1037.91 988.14 L 1040.75 987.23 L 1043.59 986.33 L 1046.44 985.48 L 1049.26 984.63 L 1052.08 983.78 L 1054.88 982.91 L 1057.68 982.09 L 1060.46 981.25 L 1063.23 980.39 L 1066.00 979.60 L 1068.76 978.80 L 1071.51 978.00 L 1074.25 977.24 L 1076.99 976.52 L 1079.72 975.81 L 1082.44 975.07 L 1085.14 974.35 L 1087.84 973.63 L 1090.52 972.90 L 1093.21 972.24 L 1095.88 971.57 L 1098.54 970.88 L 1101.19 970.22" stroke="rgb(140,255,190)" stroke-opacity="0.722" stroke-width="1.15" />
  <path d="M 1000.60 997.52 L 1003.67 996.43 L 1006.72 995.34 L 1009.77 994.26 L 1012.80 993.19 L 1015.82 992.12 L 1018.84 991.09 L 1021.85 990.08 L 1024.85 989.07 L 1027.84 988.07 L 1030.82 987.06 L 1033.77 986.04 L 1036.73 985.07 L 1039.66 984.06 L 1042.58 983.05 L 1045.49 982.04 L 1048.38 981.02" stroke="rgb(140,255,190)" stroke-opacity="0.720" stroke-width="1.14" />
  <path d="M 1000.61 1001.05 L 1001.75 999.62 L 1002.87 998.19 L 1004.01 996.74 L 1005.19 995.31 L 1006.33 993.88 L 1007.44 992.42 L 1008.54 990.97 L 1009.63 989.53 L 1010.68 988.11 L 1011.83 986.78 L 1012.94 985.45 L 1013.98 984.11 L 1015.07 982.73 L 1016.20 981.38 L 1017.32 980.10 L 1018.43 978.84 L 1019.55 977.60 L 1020.65 976.35 L 1021.73 975.11 L 1022.75 973.82 L 1023.79 972.62 L 1024.80 971.33 L 1025.90 970.06 L 1027.01 968.75 L 1028.00 967.47 L 1028.97 966.18 L 1029.93 964.95 L 1030.92 963.79 L 1031.92 962.67 L 1032.91 961.54 L 1033.92 960.45 L 1034.94 959.37 L 1035.96 958.25 L 1036.98 957.13 L 1038.09 956.05 L 1039.19 954.97 L 1040.31 953.88 L 1041.43 952.82 L 1042.64 951.71 L 1043.85 950.63 L 1045.15 949.57 L 1046.46 948.50 L 1047.76 947.44 L 1048.97 946.28 L 1050.18 945.13 L 1051.35 943.94 L 1052.52 942.77 L 1053.68 941.61" stroke="rgb(205,165,255)" stroke-opacity="0.477" stroke-width="1.14" />
  <path d="M 1002.77 1001.20 L 1004.36 998.91 L 1006.00 996.69 L 1007.64 994.47 L 1009.31 992.26 L 1010.96 990.06 L 1012.64 987.90 L 1014.31 985.75 L 1015.93 983.55 L 1017.54 981.37 L 1019.14 979.19 L 1020.75 977.03 L 1022.38 974.89 L 1024.04 972.81 L 1025.73 970.75 L 1027.41 968.71 L 1029.09 966.68 L 1030.75 964.63 L 1032.39 962.58 L 1034.03 960.54 L 1035.63 958.48 L 1037.15 956.37 L 1038.68 954.29 L 1040.26 952.25 L 1041.84 950.22 L 1043.39 948.19 L 1044.92 946.15 L 1046.39 944.07 L 1047.86 942.01 L 1049.32 939.96 L 1050.77 937.92 L 1052.19 935.87 L 1053.63 933.85 L 1054.99 931.78 L 1056.33 929.71 L 1057.62 927.62 L 1058.88 925.53 L 1060.15 923.44 L 1061.36 921.34 L 1062.58 919.25 L 1063.86 917.21 L 1065.10 915.16 L 1066.29 913.09 L 1067.44 911.00" stroke="rgb(205,165,255)" stroke-opacity="0.477" stroke-width="1.14" />
  <path d="M 999.43 1001.02 L 1001.79 1000.65 L 1004.14 1000.34 L 1006.51 999.99 L 1008.86 999.63 L 1011.21 999.23 L 1013.54 998.85 L 1015.88 998.42 L 1018.21 998.03 L 1020.53 997.64 L 1022.83 997.29 L 1025.15 996.96 L 1027.45 996.59 L 1029.70 996.12 L 1031.96 995.66 L 1034.21 995.22 L 1036.46 994.80 L 1038.68 994.33 L 1040.89 993.87 L 1043.07 993.36 L 1045.24 992.83 L 1047.37 992.30 L 1049.50 991.77 L 1051.60 991.22 L 1053.65 990.59 L 1055.69 989.92 L 1057.69 989.20 L 1059.66 988.48" stroke="rgb(140,255,190)" stroke-opacity="0.538" stroke-width="1.14" />
  <path d="M 1090.52 972.90 L 1093.61 972.88 L 1096.68 972.78 L 1099.74 972.65 L 1102.77 972.46 L 1105.79 972.27 L 1108.79 972.09 L 1111.79 971.86 L 1114.79 971.62 L 1117.78 971.43 L 1120.75 971.26 L 1123.71 971.09" stroke="rgb(140,255,190)" stroke-opacity="0.712" stroke-width="1.12" />
  <path d="M 997.96 1003.67 L 1000.26 1002.78 L 1002.56 1001.95 L 1004.86 1001.14 L 1007.15 1000.33 L 1009.43 999.54 L 1011.75 998.84 L 1014.03 998.11 L 1016.34 997.47 L 1018.61 996.73 L 1020.85 995.91 L 1023.11 995.17 L 1025.36 994.44 L 1027.60 993.72 L 1029.86 993.08 L 1032.11 992.48 L 1034.35 991.84 L 1036.58 991.21 L 1038.79 990.57 L 1041.00 989.93 L 1043.19 989.27 L 1045.38 988.61 L 1047.56 987.96 L 1049.72 987.30 L 1051.88 986.66 L 1054.03 986.02 L 1056.18 985.39 L 1058.32 984.77 L 1060.45 984.17 L 1062.60 983.64 L 1064.73 983.10 L 1066.85 982.57 L 1068.98 982.07 L 1071.10 981.59 L 1073.21 981.11 L 1075.32 980.66 L 1077.43 980.31 L 1079.54 979.98 L 1081.63 979.63 L 1083.73 979.35 L 1085.82 979.09 L 1087.91 978.86 L 1089.99 978.64 L 1092.07 978.42 L 1094.13 978.19 L 1096.19 978.03 L 1098.22 977.86 L 1100.25 977.70 L 1102.28 977.52 L 1104.30 977.43 L 1106.31 977.31 L 1108.32 977.18 L 1110.33 977.01 L 1112.32 976.79 L 1114.30 976.57" stroke="rgb(140,255,190)" stroke-opacity="0.533" stroke-width="1.12" />
  <path d="M -0.13 1345.59 L 2.81 1344.57 L 5.60 1343.62 L 8.31 1342.80 L 11.30 1341.33 L 14.21 1341.04 L 16.80 1339.75 L 19.92 1339.02 L 22.51 1337.70 L 25.45 1336.54 L 28.57 1335.55 L 31.52 1334.76 L 34.03 1334.06 L 36.94 1332.70 L 39.78 1332.03 L 42.27 1331.08 L 45.00 1329.63 L 47.87 1329.11 L 51.49 1328.10 L 53.88 1326.76 L 56.93 1326.44 L 59.67 1325.22 L 62.34 1324.07 L 65.45 1323.02 L 67.90 1322.14 L 71.09 1320.88 L 73.93 1320.00 L 76.56 1319.27 L 79.21 1318.02 L 82.72 1317.33 L 85.06 1316.30 L 87.90 1315.26 L 90.96 1314.32 L 93.70 1313.09 L 96.50 1312.49 L 99.49 1311.27 L 102.03 1310.13 L 104.68 1309.45 L 107.95 1308.16 L 110.84 1307.25 L 113.32 1306.50 L 116.46 1305.73 L 119.04 1304.57 L 121.91 1303.54 L 124.68 1302.76 L 127.68 1301.57 L 130.03 1300.65 L 133.38 1299.20 L 136.55 1298.26 L 139.05 1297.89 L 141.70 1296.78 L 144.83 1295.90 L 147.72 1294.78 L 150.62 1293.89 L 153.12 1292.93 L 155.72 1291.78 L 158.78 1290.43 L 161.69 1289.98 L 164.30 1288.37 L 167.12 1288.19 L 169.96 1286.59 L 173.35 1285.69 L 175.96 1285.06 L 178.64 1283.77 L 181.04 1283.28 L 184.14 1281.96 L 187.04 1281.02 L 190.11 1279.87 L 192.70 1278.98 L 195.42 1277.96 L 198.66 1276.80 L 200.96 1275.98 L 204.18 1275.03 L 206.89 1274.45 L 209.69 1273.05 L 212.64 1272.09 L 215.50 1271.29 L 218.12 1270.28 L 221.28 1268.94 L 224.02 1268.22 L 226.58 1267.21 L 229.28 1266.08 L 232.67 1264.99 L 235.08 1264.39 L 238.08 1263.26 L 241.01 1262.37 L 243.91 1261.17 L 246.44 1260.38 L 249.41 1259.41 L 252.39 1258.52 L 255.26 1257.56 L 258.43 1256.28 L 260.78 1255.23 L 263.55 1254.55 L 266.15 1253.83 L 269.34 1252.55 L 271.76 1251.57 L 275.04 1250.26 L 277.77 1249.42 L 280.52 1248.60 L 283.56 1247.97 L 286.23 1247.23 L 289.15 1245.65 L 291.78 1244.81 L 294.43 1244.03 L 297.43 1243.09 L 300.38 1241.63 L 303.69 1240.62 L 305.87 1239.25 L 309.10 1239.11 L 312.05 1238.25 L 314.88 1237.41 L 317.23 1235.67 L 320.58 1235.00 L 323.17 1233.93 L 326.29 1233.02 L 328.69 1232.15 L 331.71 1231.27 L 334.23 1230.22 L 337.67 1229.05 L 340.00 1228.35 L 343.03 1227.11 L 345.90 1225.76 L 348.62 1225.09 L 351.63 1224.04 L 354.76 1223.41 L 357.20 1222.36 L 360.21 1221.31 L 363.27 1220.16 L 365.43 1219.60 L 368.42 1218.18 L 371.29 1217.26 L 374.40 1216.13 L 376.96 1215.15 L 379.80 1214.33 L 382.94 1213.32 L 385.85 1212.06 L 388.12 1211.19 L 391.36 1210.78 L 393.99 1209.85 L 397.03 1208.56 L 399.83 1207.66 L 403.00 1206.18 L 405.55 1205.38 L 408.76 1204.42 L 410.88 1203.72 L 414.18 1202.51 L 416.76 1201.70 L 419.36 1200.56 L 422.12 1199.54 L 425.62 1198.94 L 428.44 1197.87 L 431.17 1196.22 L 433.58 1195.67 L 436.55 1194.71 L 439.80 1193.41 L 442.66 1192.77 L 445.36 1191.74 L 447.77 1190.49 L 450.84 1189.90 L 453.67 1189.16 L 456.26 1187.91 L 459.45 1187.22 L 462.48 1186.38 L 464.91 1185.18 L 467.87 1183.69 L 470.55 1182.71 L 473.40 1181.97 L 475.82 1181.09 L 479.11 1179.99 L 482.51 1179.19 L 484.86 1178.29 L 487.98 1176.81 L 490.47 1176.58 L 493.42 1174.96 L 496.27 1173.76 L 498.71 1173.13 L 502.13 1171.75 L 504.91 1171.26 L 507.73 1170.09 L 510.16 1168.95 L 512.86 1168.65 L 515.70 1167.47 L 518.74 1166.31 L 521.81 1165.38 L 524.63 1164.03 L 527.20 1162.94 L 530.24 1162.28 L 533.08 1161.62 L 535.89 1160.50 L 538.81 1159.28 L 541.23 1158.51 L 544.26 1157.49 L 547.33 1156.29 L 550.06 1155.42 L 552.75 1154.21 L 555.81 1153.62 L 558.50 1152.58 L 561.26 1151.66 L 564.60 1150.79 L 566.83 1149.33 L 569.74 1148.71 L 572.51 1147.52 L 575.48 1146.88 L 578.35 1145.53 L 581.36 1144.49 L 584.03 1143.94 L 587.29 1142.51 L 589.85 1141.65 L 592.27 1140.69 L 595.43 1139.51 L 598.07 1139.04 L 600.95 1137.97 L 604.46 1136.99 L 606.51 1135.91 L 609.60 1135.04 L 612.12 1133.93 L 615.17 1133.06 L 618.17 1132.18 L 620.55 1131.42 L 624.05 1130.40 L 626.85 1129.13 L 629.35 1127.88 L 632.26 1127.04 L 635.15 1126.45 L 637.87 1125.35 L 640.75 1124.25 L 643.68 1123.31 L 646.57 1122.35 L 649.35 1121.29 L 652.29 1120.33 L 655.22 1119.42 L 657.93 1118.48 L 660.82 1117.26 L 663.45 1116.42 L 666.28 1115.14 L 668.96 1114.43 L 671.85 1113.50 L 674.90 1112.67 L 677.58 1111.12 L 680.68 1110.70 L 683.08 1109.26 L 686.34 1108.15 L 688.85 1107.66 L 692.24 1106.63 L 694.78 1105.61 L 697.68 1104.13 L 700.57 1103.71 L 703.30 1103.00 L 705.82 1101.40 L 708.80 1100.75 L 711.71 1100.07 L 714.56 1098.98 L 717.23 1097.93 L 720.25 1097.21 L 723.00 1095.64 L 725.96 1094.65 L 728.72 1094.16 L 731.56 1092.61 L 734.00 1092.19 L 737.50 1090.55 L 740.29 1090.04 L 743.09 1088.99 L 745.45 1088.19 L 748.40 1087.13 L 751.44 1085.69 L 754.22 1084.66 L 757.01 1083.76 L 759.98 1083.17 L 762.32 1081.84 L 765.48 1080.58 L 768.42 1080.20 L 771.26 1079.38 L 773.80 1077.97 L 776.79 1076.56 L 779.53 1076.10 L 782.26 1075.19 L 785.49 1074.19 L 788.43 1072.83 L 790.98 1072.38 L 793.92 1071.06 L 796.62 1069.89 L 799.60 1069.59 L 802.61 1068.39 L 804.78 1067.10 L 808.73 1066.55 L 810.76 1065.18 L 813.38 1064.85 L 816.64 1063.78 L 819.16 1062.36 L 822.17 1061.47 L 825.22 1060.35 L 827.89 1059.44 L 830.89 1058.35 L 833.92 1057.31 L 836.62 1056.60 L 839.37 1055.57 L 842.17 1054.75 L 845.16 1053.56 L 847.84 1052.83 L 850.80 1051.21 L 853.53 1050.67 L 856.54 1049.64 L 858.90 1048.78 L 862.00 1047.66 L 864.79 1046.74 L 867.52 1045.85 L 870.67 1044.74 L 873.55 1043.79 L 876.03 1042.49 L 878.64 1041.61 L 881.84 1040.82 L 884.49 1039.90 L 887.59 1038.94 L 890.44 1037.48 L 893.52 1037.18 L 895.88 1036.03 L 899.10 1035.05 L 901.39 1033.47 L 904.24 1033.16 L 907.32 1031.82 L 910.51 1030.89 L 913.21 1029.59 L 915.84 1029.29 L 918.92 1028.10 L 921.24 1027.25 L 923.89 1025.86 L 927.14 1025.12 L 930.12 1024.22 L 932.97 1023.15 L 935.68 1021.76 L 938.46 1021.25 L 941.46 1020.08 L 944.05 1019.08 L 947.18 1018.45 L 950.15 1017.34 L 952.42 1016.28 L 955.61 1015.49 L 958.81 1014.33 L 961.49 1013.57 L 964.31 1012.04 L 966.96 1011.23 L 969.90 1010.11 L 972.32 1009.43 L 975.36 1008.58 L 978.49 1007.42 L 981.28 1006.29 L 984.30 1005.63 L 986.56 1004.69 L 989.31 1003.25 L 992.46 1003.10 L 995.11 1001.50 L 998.00 1000.72 L 1000.00 1000.00 L 1002.82 998.99 L 1005.65 997.99 L 1008.49 997.01 L 1011.33 996.03 L 1014.15 995.03 L 1016.98 994.03 L 1019.81 993.04 L 1022.65 992.06 L 1025.48 991.06 L 1028.31 990.07 L 1031.14 989.09 L 1033.98 988.10 L 1036.81 987.12 L 1039.65 986.14 L 1042.48 985.17 L 1045.31 984.17 L 1048.14 983.17 L 1050.96 982.15 L 1053.80 981.16 L 1056.63 980.17 L 1059.45 979.14 L 1062.27 978.14 L 1065.10 977.13 L 1067.93 976.13 L 1070.75 975.12 L 1073.58 974.13 L 1076.41 973.12 L 1079.23 972.10 L 1082.06 971.11 L 1084.89 970.12 L 1087.72 969.11 L 1090.55 968.12 L 1093.39 967.15 L 1096.24 966.21 L 1099.08 965.25 L 1101.93 964.30 L 1104.77 963.34 L 1107.62 962.40 L 1110.46 961.45 L 1113.31 960.50 L 1116.17 959.59 L 1119.02 958.67 L 1121.88 957.76 L 1124.74 956.83 L 1127.59 955.90 L 1130.44 954.99 L 1133.30 954.07 L 1136.15 953.14 L 1139.00 952.20 L 1141.86 951.29 L 1144.71 950.37 L 1147.57 949.45 L 1150.42 948.51 L 1153.27 947.58 L 1156.12 946.65 L 1158.99 945.75 L 1161.85 944.87 L 1164.73 944.00 L 1167.60 943.13 L 1170.47 942.25 L 1173.34 941.40 L 1176.21 940.51 L 1179.06 939.59 L 1181.92 938.69 L 1184.79 937.82 L 1187.66 936.93 L 1190.52 936.03 L 1193.38 935.12 L 1196.24 934.20 L 1199.08 933.26 L 1201.93 932.30 L 1204.76 931.32 L 1207.58 930.30 L 1210.39 929.24 L 1213.19 928.16 L 1215.99 927.09 L 1218.79 926.01 L 1221.59 924.93 L 1224.39 923.85 L 1227.18 922.76 L 1229.98 921.68 L 1232.77 920.58 L 1235.56 919.47 L 1238.35 918.36 L 1241.13 917.24 L 1243.91 916.11 L 1246.69 914.97 L 1249.46 913.84 L 1252.25 912.74 L 1255.05 911.65 L 1257.85 910.57 L 1260.65 909.51 L 1263.45 908.42 L 1266.24 907.31 L 1269.02 906.19 L 1271.79 905.05 L 1274.58 903.93 L 1277.35 902.79 L 1280.13 901.66 L 1282.92 900.55 L 1285.71 899.46 L 1288.51 898.36 L 1291.30 897.28 L 1294.09 896.17 L 1296.88 895.07 L 1299.68 893.99 L 1302.49 892.93 L 1305.31 891.91 L 1308.14 890.91 L 1310.96 889.91 L 1313.79 888.90 L 1316.62 887.91 L 1319.45 886.90 L 1322.28 885.90 L 1325.11 884.91 L 1327.94 883.93 L 1330.77 882.93 L 1333.60 881.94 L 1336.44 880.98 L 1339.29 880.03 L 1342.12 879.03 L 1344.95 878.04 L 1347.78 877.04 L 1350.61 876.04 L 1353.45 875.08 L 1356.29 874.12 L 1359.12 873.12 L 1361.96 872.14 L 1364.78 871.12 L 1367.61 870.13 L 1370.43 869.11 L 1373.25 868.09 L 1376.08 867.07 L 1378.90 866.07 L 1381.74 865.09 L 1384.57 864.10 L 1387.41 863.14 L 1390.26 862.19 L 1393.10 861.23 L 1395.95 860.28 L 1398.78 859.30 L 1401.61 858.31 L 1404.45 857.33 L 1407.29 856.36 L 1410.13 855.39 L 1412.97 854.42 L 1415.81 853.47 L 1418.66 852.54 L 1421.51 851.61 L 1424.38 850.71 L 1427.23 849.80 L 1430.09 848.89 L 1432.95 847.97 L 1435.80 847.04 L 1438.66 846.13 L 1441.52 845.21 L 1444.38 844.31 L 1447.23 843.39 L 1450.09 842.48 L 1452.95 841.57 L 1455.81 840.67 L 1458.68 839.78 L 1461.55 838.91 L 1464.42 838.05 L 1467.30 837.21 L 1470.18 836.36 L 1473.05 835.50 L 1475.92 834.61 L 1478.79 833.74 L 1481.66 832.86 L 1484.52 831.96 L 1487.38 831.04 L 1490.23 830.12 L 1493.09 829.21 L 1495.95 828.30 L 1498.80 827.36 L 1501.65 826.43 L 1504.50 825.50 L 1507.35 824.57 L 1510.21 823.66 L 1513.05 822.70 L 1515.90 821.75 L 1518.74 820.79 L 1521.59 819.85 L 1524.44 818.90 L 1527.28 817.94 L 1530.12 816.98 L 1532.96 816.01 L 1535.79 815.02 L 1538.63 814.05 L 1541.48 813.10 L 1544.33 812.17 L 1547.18 811.25 L 1550.04 810.34 L 1552.91 809.45 L 1555.79 808.61 L 1558.67 807.77 L 1561.54 806.90 L 1564.41 806.04 L 1567.28 805.16 L 1570.15 804.29 L 1573.02 803.41 L 1575.88 802.52 L 1578.75 801.62 L 1581.61 800.72 L 1584.47 799.83 L 1587.34 798.94 L 1590.21 798.08 L 1593.09 797.22 L 1595.95 796.34 L 1598.82 795.46 L 1601.69 794.57 L 1604.56 793.69 L 1607.42 792.81 L 1610.29 791.92 L 1613.15 791.01 L 1616.01 790.10 L 1618.86 789.18 L 1621.72 788.26 L 1624.57 787.34 L 1627.43 786.42 L 1630.27 785.46 L 1633.11 784.48 L 1635.94 783.51 L 1638.78 782.54 L 1641.62 781.57 L 1644.46 780.60 L 1647.31 779.65 L 1650.15 778.70 L 1653.00 777.75 L 1655.84 776.79 L 1658.69 775.84 L 1661.53 774.90 L 1664.38 773.96 L 1667.23 773.02 L 1670.08 772.08 L 1672.93 771.14 L 1675.78 770.19 L 1678.62 769.24 L 1681.46 768.28 L 1684.31 767.33 L 1687.15 766.37 L 1690.00 765.42 L 1692.84 764.45 L 1695.68 763.49 L 1698.52 762.52 L 1701.35 761.53 L 1704.18 760.54 L 1707.01 759.53 L 1709.83 758.51 L 1712.63 757.45 L 1715.44 756.40 L 1718.26 755.36 L 1721.08 754.35 L 1723.90 753.33 L 1726.72 752.30 L 1729.55 751.30 L 1732.39 750.32 L 1735.23 749.36 L 1738.06 748.37 L 1740.89 747.38 L 1743.72 746.39 L 1746.56 745.41 L 1749.39 744.42 L 1752.21 743.40 L 1755.03 742.37 L 1757.86 741.36 L 1760.69 740.38 L 1763.52 739.40 L 1766.34 738.37 L 1769.17 737.37 L 1772.02 736.42 L 1774.86 735.45 L 1777.69 734.47 L 1780.53 733.51 L 1783.38 732.55 L 1786.21 731.57 L 1789.05 730.60 L 1791.90 729.66 L 1794.75 728.72 L 1797.59 727.77 L 1800.44 726.81 L 1803.28 725.87 L 1806.14 724.94 L 1808.98 723.98 L 1811.83 723.05 L 1814.68 722.12 L 1817.55 721.23 L 1820.42 720.35 L 1823.28 719.45 L 1826.14 718.55 L 1829.00 717.64 L 1831.87 716.76 L 1834.73 715.87 L 1837.60 714.97 L 1840.45 714.06 L 1843.31 713.14 L 1846.16 712.20 L 1849.00 711.24 L 1851.85 710.31 L 1854.70 709.36 L 1857.55 708.43 L 1860.40 707.49 L 1863.24 706.53 L 1866.07 705.54 L 1868.90 704.54 L 1871.72 703.51 L 1874.54 702.50 L 1877.36 701.46 L 1880.18 700.46 L 1883.01 699.45 L 1885.84 698.45 L 1888.67 697.45 L 1891.49 696.43 L 1894.31 695.40 L 1897.12 694.37 L 1899.94 693.34 L 1902.77 692.34 L 1905.60 691.34 L 1908.42 690.33 L 1911.25 689.31 L 1914.07 688.31 L 1916.90 687.31 L 1919.73 686.30 L 1922.55 685.29 L 1925.37 684.27 L 1928.20 683.26 L 1931.03 682.27 L 1933.86 681.28 L 1936.70 680.32 L 1939.55 679.37 L 1942.40 678.43 L 1945.24 677.46 L 1948.07 676.49 L 1950.91 675.50 L 1953.75 674.55 L 1956.60 673.62 L 1959.46 672.68 L 1962.31 671.77 L 1965.18 670.87 L 1968.04 669.97 L 1970.89 669.04 L 1973.74 668.12 L 1976.61 667.23 L 1979.48 666.37 L 1982.36 665.50 L 1985.23 664.65 L 1988.12 663.82 L 1990.99 662.98 L 1993.87 662.11 L 1996.74 661.24 L 1999.60 660.36 L 2002.47 659.48 L 2005.34 658.61 L 2008.22 657.75 L 2011.09 656.90 L 2013.98 656.06 L 2016.87 655.26 L 2019.76 654.47 L 2022.66 653.69" stroke="rgb(245,245,245)" stroke-opacity="0.710" stroke-width="1.12" />
  <path d="M 999.32 999.66 L 1002.08 998.64 L 1004.83 997.62 L 1007.57 996.62 L 1010.31 995.64 L 1013.03 994.65 L 1015.73 993.65 L 1018.43 992.65 L 1021.15 991.79 L 1023.86 990.91 L 1026.57 990.08 L 1029.26 989.23 L 1031.97 988.48 L 1034.68 987.77 L 1037.37 987.02 L 1040.06 986.32 L 1042.74 985.62 L 1045.42 984.99 L 1048.10 984.37 L 1050.76 983.74 L 1053.42 983.14 L 1056.06 982.49 L 1058.67 981.81 L 1061.27 981.11 L 1063.86 980.39 L 1066.42 979.65 L 1068.98 978.90 L 1071.52 978.15 L 1074.06 977.43 L 1076.59 976.71 L 1079.09 975.94 L 1081.60 975.20 L 1084.11 974.53 L 1086.61 973.87 L 1089.10 973.23 L 1091.59 972.58 L 1094.06 971.93 L 1096.51 971.25 L 1098.97 970.60 L 1101.41 969.95 L 1103.84 969.29 L 1106.25 968.63 L 1108.66 967.95 L 1111.04 967.24 L 1113.39 966.47 L 1115.73 965.71 L 1118.06 964.92 L 1120.37 964.13 L 1122.70 963.43 L 1125.01 962.68 L 1127.33 961.99 L 1129.64 961.32 L 1131.93 960.63 L 1134.24 960.01 L 1136.56 959.46" stroke="rgb(140,255,190)" stroke-opacity="0.532" stroke-width="1.12" />
  <path d="M 1001.70 1001.52 L 1004.25 999.91 L 1006.79 998.31 L 1009.30 996.68 L 1011.79 995.06 L 1014.28 993.46 L 1016.68 991.75 L 1019.06 990.03 L 1021.42 988.32 L 1023.78 986.61 L 1026.14 984.92 L 1028.50 983.23 L 1030.86 981.58 L 1033.19 979.90 L 1035.48 978.20 L 1037.78 976.51 L 1040.08 974.84 L 1042.42 973.25 L 1044.74 971.65 L 1047.01 969.99 L 1049.26 968.34 L 1051.54 966.73 L 1053.82 965.16 L 1056.08 963.58 L 1058.36 962.03 L 1060.65 960.53 L 1062.92 959.02 L 1065.16 957.47 L 1067.40 955.96 L 1069.66 954.48 L 1071.92 953.03 L 1074.18 951.59 L 1076.43 950.17 L 1078.68 948.76 L 1080.94 947.39 L 1083.19 946.02 L 1085.44 944.68 L 1087.69 943.35 L 1089.86 941.92 L 1092.04 940.50 L 1094.20 939.10 L 1096.35 937.69 L 1098.50 936.31 L 1100.65 934.94 L 1102.79 933.57 L 1104.90 932.18 L 1106.96 930.74 L 1109.01 929.29 L 1111.06 927.88 L 1113.15 926.52 L 1115.22 925.15 L 1117.30 923.82 L 1119.37 922.51 L 1121.43 921.18 L 1123.48 919.87 L 1125.52 918.54 L 1127.49 917.15 L 1129.49 915.81" stroke="rgb(140,255,190)" stroke-opacity="0.531" stroke-width="1.12" />
  <path d="M 1002.62 1003.06 L 1005.53 1002.92 L 1008.45 1002.76 L 1011.34 1002.57 L 1014.23 1002.39 L 1017.12 1002.23 L 1019.99 1001.99 L 1022.85 1001.78 L 1025.69 1001.58 L 1028.53 1001.37 L 1031.36 1001.21 L 1034.18 1001.04 L 1037.00 1000.84 L 1039.80 1000.64 L 1042.59 1000.45 L 1045.37 1000.33 L 1048.15 1000.27 L 1050.91 1000.16 L 1053.66 1000.06 L 1056.40 999.92 L 1059.12 999.80 L 1061.84 999.70 L 1064.54 999.61 L 1067.23 999.54 L 1069.91 999.49" stroke="rgb(140,255,190)" stroke-opacity="0.531" stroke-width="1.12" />
  <path d="M 1102.28 977.52 L 1104.87 976.37 L 1107.54 975.40 L 1110.13 974.32 L 1112.77 973.26 L 1115.42 972.26 L 1118.06 971.23 L 1120.74 970.31 L 1123.40 969.40 L 1126.07 968.54 L 1128.73 967.68 L 1131.40 966.84 L 1134.06 966.07 L 1136.72 965.24 L 1139.36 964.43 L 1141.99 963.62 L 1144.62 962.78 L 1147.24 961.94 L 1149.84 961.11 L 1152.45 960.35 L 1155.03 959.62 L 1157.59 958.83 L 1160.14 958.01 L 1162.69 957.21 L 1165.24 956.40 L 1167.78 955.63 L 1170.31 954.87 L 1172.78 954.07 L 1175.23 953.34 L 1177.69 952.62 L 1180.13 951.92 L 1182.55 951.24 L 1184.94 950.50 L 1187.29 949.77 L 1189.67 949.19 L 1191.98 948.43 L 1194.28 947.67 L 1196.51 946.83 L 1198.77 946.03 L 1201.02 945.23 L 1203.23 944.37 L 1205.46 943.53 L 1207.68 942.70 L 1209.90 941.82" stroke="rgb(140,255,190)" stroke-opacity="0.531" stroke-width="1.11" />
  <path d="M 995.07 1000.87 L 997.80 1000.26 L 1000.52 999.62 L 1003.22 998.98 L 1005.88 998.21 L 1008.53 997.44 L 1011.16 996.68 L 1013.77 995.89 L 1016.35 995.03 L 1018.91 994.14 L 1021.43 993.22 L 1023.94 992.29 L 1026.44 991.39 L 1028.94 990.52 L 1031.41 989.58 L 1033.88 988.65 L 1036.26 987.58 L 1038.66 986.59 L 1041.08 985.63 L 1043.53 984.76 L 1045.98 983.93 L 1048.41 983.06" stroke="rgb(140,255,190)" stroke-opacity="0.530" stroke-width="1.11" />
  <path d="M 1077.39 974.48 L 1079.25 972.58 L 1081.18 970.75 L 1083.11 968.95 L 1085.07 967.19 L 1087.03 965.46 L 1088.96 963.69" stroke="rgb(140,255,190)" stroke-opacity="0.529" stroke-width="1.11" />
  <path d="M 1045.24 992.83 L 1047.55 993.01 L 1049.85 993.18 L 1052.09 993.45 L 1054.35 993.72 L 1056.59 994.01 L 1058.85 994.31 L 1061.11 994.49 L 1063.41 994.74 L 1065.71 994.91 L 1068.03 994.94 L 1070.34 994.98 L 1072.64 995.02 L 1074.93 995.00 L 1077.22 994.95 L 1079.50 994.89 L 1081.81 994.83 L 1084.12 994.74 L 1086.46 994.73 L 1088.76 994.78 L 1091.05 994.85 L 1093.33 994.93 L 1095.65 995.11 L 1097.95 995.26 L 1100.24 995.44 L 1102.54 995.64 L 1104.87 995.81 L 1107.20 996.03 L 1109.51 996.33 L 1111.78 996.58 L 1114.06 996.82 L 1116.32 997.10 L 1118.56 997.47 L 1120.78 997.67 L 1123.00 997.86 L 1125.22 997.95 L 1127.43 998.02 L 1129.63 998.11 L 1131.85 998.30 L 1134.01 998.50 L 1136.18 998.69 L 1138.34 998.88 L 1140.48 999.07 L 1142.61 999.33" stroke="rgb(140,255,190)" stroke-opacity="0.528" stroke-width="1.11" />
  <path d="M 1030.86 981.58 L 1032.56 979.36 L 1034.25 977.15 L 1035.90 974.90 L 1037.62 972.70 L 1039.36 970.53 L 1041.14 968.42 L 1042.91 966.32 L 1044.68 964.24 L 1046.57 962.32 L 1048.42 960.34 L 1050.29 958.40 L 1052.07 956.39 L 1053.84 954.40 L 1055.61 952.42 L 1057.37 950.45 L 1059.12 948.49 L 1060.86 946.53 L 1062.55 944.51 L 1064.16 942.41 L 1065.76 940.31 L 1067.37 938.24 L 1069.00 936.19 L 1070.62 934.15 L 1072.24 932.12 L 1073.71 929.99 L 1075.09 927.81 L 1076.44 925.62 L 1077.87 923.50 L 1079.26 921.37 L 1080.54 919.18 L 1081.85 917.01 L 1083.13 914.84" stroke="rgb(140,255,190)" stroke-opacity="0.525" stroke-width="1.09" />
  <path d="M 1000.64 1000.17 L 1003.16 999.28 L 1005.66 998.32 L 1008.15 997.38 L 1010.66 996.53 L 1013.15 995.68 L 1015.65 994.86 L 1018.14 994.04 L 1020.62 993.24 L 1023.10 992.42 L 1025.59 991.70 L 1028.05 990.92 L 1030.54 990.27 L 1033.02 989.62 L 1035.49 988.98 L 1037.94 988.29 L 1040.40 987.69 L 1042.87 987.14 L 1045.32 986.61 L 1047.77 986.07 L 1050.17 985.40 L 1052.56 984.75 L 1054.96 984.19 L 1057.34 983.59 L 1059.72 983.08 L 1062.10 982.57 L 1064.46 982.04 L 1066.82 981.59 L 1069.18 981.16 L 1071.52 980.73 L 1073.85 980.32 L 1076.18 979.95 L 1078.48 979.65 L 1080.76 979.40 L 1083.04 979.21 L 1085.32 979.03 L 1087.57 978.87 L 1089.81 978.71 L 1092.04 978.58 L 1094.26 978.40 L 1096.47 978.19 L 1098.67 977.95 L 1100.86 977.71 L 1103.05 977.51 L 1105.22 977.28 L 1107.39 977.05" stroke="rgb(140,255,190)" stroke-opacity="0.525" stroke-width="1.09" />
  <path d="M 1063.41 963.33 L 1065.35 961.41 L 1067.33 959.57 L 1069.32 957.75 L 1071.31 955.95 L 1073.35 954.23 L 1075.36 952.49 L 1077.31 950.75 L 1079.31 949.07 L 1081.31 947.37 L 1083.22 945.63 L 1085.13 943.89 L 1086.99 942.15 L 1088.82 940.41 L 1090.61 938.66 L 1092.49 937.01 L 1094.45 935.46 L 1096.37 933.85 L 1098.19 932.15 L 1099.95 930.45 L 1101.63 928.67 L 1103.30 926.95 L 1105.01 925.25 L 1106.71 923.54 L 1108.41 921.81 L 1110.10 920.12 L 1111.81 918.47 L 1113.55 916.82 L 1115.25 915.17 L 1116.93 913.52 L 1118.59 911.86 L 1120.22 910.18 L 1121.87 908.58 L 1123.59 907.09 L 1125.34 905.65 L 1127.10 904.25 L 1128.86 902.86 L 1130.61 901.47 L 1132.37 900.04 L 1134.14 898.59" stroke="rgb(140,255,190)" stroke-opacity="0.525" stroke-width="1.09" />
  <path d="M 998.32 998.07 L 999.80 997.23 L 1001.25 996.33 L 1002.76 995.46 L 1004.31 994.64 L 1005.83 993.80 L 1007.35 992.97 L 1008.87 992.15 L 1010.41 991.31 L 1011.96 990.49 L 1013.52 989.67 L 1015.09 988.79 L 1016.67 987.93 L 1018.25 987.09 L 1019.76 986.38 L 1021.34 985.74 L 1022.94 985.11 L 1024.58 984.56 L 1026.20 983.98 L 1027.84 983.42 L 1029.44 982.81 L 1031.05 982.23 L 1032.64 981.60 L 1034.24 980.97 L 1035.80 980.38 L 1037.35 979.81 L 1038.89 979.23 L 1040.40 978.67 L 1041.90 978.12 L 1043.39 977.57 L 1044.96 977.12 L 1046.52 976.70 L 1048.03 976.30 L 1049.53 975.93 L 1051.05 975.54 L 1052.58 975.09 L 1054.09 974.64 L 1055.58 974.20 L 1057.06 973.77 L 1058.56 973.40 L 1060.09 973.11 L 1061.63 972.84 L 1063.20 972.53 L 1064.80 972.25 L 1066.39 971.97 L 1067.97 971.70 L 1069.55 971.43" stroke="rgb(205,165,255)" stroke-opacity="0.458" stroke-width="1.07" />
  <path d="M 997.80 999.70 L 1000.06 999.71 L 1002.34 999.74 L 1004.60 999.72 L 1006.86 999.76 L 1009.08 999.78 L 1011.30 999.75" stroke="rgb(205,165,255)" stroke-opacity="0.452" stroke-width="1.05" />
  <path d="M 1091.91 922.99 L 1092.40 922.35 L 1092.94 921.80 L 1093.47 921.26 L 1094.01 920.75 L 1094.44 920.11 L 1094.85 919.62 L 1095.23 919.12 L 1095.59 918.64 L 1095.90 918.16 L 1096.31 917.67 L 1096.52 917.18 L 1096.76 916.70 L 1096.91 916.22 L 1097.11 915.69 L 1097.30 915.16 L 1097.50 914.64 L 1097.81 914.23 L 1098.14 913.80 L 1098.53 913.30 L 1098.92 912.60 L 1099.31 911.91 L 1099.70 911.19 L 1100.23 910.53 L 1100.70 909.82 L 1101.15 909.11 L 1101.60 908.41 L 1102.05 907.72 L 1102.49 907.03 L 1102.93 906.33 L 1103.38 905.71 L 1103.84 905.01 L 1104.29 904.29 L 1104.73 903.57 L 1105.17 902.81" stroke="rgb(205,165,255)" stroke-opacity="0.448" stroke-width="1.03" />
  <path d="M 998.74 1002.47 L 999.01 1003.91 L 999.34 1005.33 L 999.68 1006.76 L 1000.03 1008.17 L 1000.34 1009.59 L 1000.45 1011.03 L 1000.55 1012.45 L 1000.65 1013.88 L 1000.75 1015.29 L 1000.87 1016.70 L 1001.00 1018.10 L 1001.08 1019.49 L 1001.14 1020.88 L 1001.20 1022.24 L 1001.25 1023.60" stroke="rgb(230,230,230)" stroke-opacity="0.386" stroke-width="0.71" />
  <path d="M 1003.30 1004.83 L 1002.31 1005.90 L 1001.22 1006.88 L 1000.17 1007.90 L 999.12 1008.93 L 998.07 1009.95 L 997.01 1010.95" stroke="rgb(230,230,230)" stroke-opacity="0.385" stroke-width="0.71" />
  <path d="M 1004.60 1006.44 L 1003.51 1006.57 L 1002.55 1006.77 L 1001.58 1006.84 L 1000.61 1006.93 L 999.65 1007.10" stroke="rgb(230,230,230)" stroke-opacity="0.384" stroke-width="0.71" />
  <path d="M 1001.21 996.89 L 1002.01 998.11 L 1002.78 999.32 L 1003.50 1000.56 L 1004.25 1001.75 L 1004.94 1003.00 L 1005.58 1004.26 L 1006.23 1005.54 L 1006.84 1006.82" stroke="rgb(230,230,230)" stroke-opacity="0.377" stroke-width="0.69" />
  <path d="M 999.08 999.28 L 999.50 999.18 L 999.91 999.07 L 1000.27 999.00 L 1000.60 999.01 L 1001.04 999.01 L 1001.48 999.08 L 1001.94 999.14 L 1002.42 999.13 L 1002.86 999.08" stroke="rgb(230,230,230)" stroke-opacity="0.377" stroke-width="0.69" />
  <path d="M 1001.63 1001.42 L 1000.43 1001.11 L 999.22 1000.79 L 998.03 1000.40 L 996.92 999.84 L 995.78 999.35 L 994.62 998.87 L 993.48 998.44 L 992.36 997.91 L 991.19 997.51" stroke="rgb(230,230,230)" stroke-opacity="0.376" stroke-width="0.68" />
  <path d="M 1001.57 995.89 L 1001.46 997.26 L 1001.38 998.61 L 1001.46 999.88 L 1001.59 1000.92 L 1001.70 1001.88 L 1001.84 1002.82 L 1001.97 1003.78 L 1002.16 1004.77 L 1002.32 1005.76 L 1002.43 1006.76 L 1002.58 1007.78 L 1002.67 1008.83 L 1002.74 1009.93 L 1002.90 1010.97 L 1003.08 1012.00" stroke="rgb(230,230,230)" stroke-opacity="0.375" stroke-width="0.68" />
  <path d="M 1000.52 999.21 L 999.03 999.16 L 997.55 999.10 L 996.07 999.04 L 994.60 999.06 L 993.13 999.04 L 991.68 999.04 L 990.23 999.13 L 988.78 999.24 L 987.35 999.38 L 985.92 999.52 L 984.49 999.65 L 983.06 999.76 L 981.64 999.89 L 980.22 1000.00 L 978.81 1000.13 L 977.40 1000.19 L 976.01 1000.00" stroke="rgb(230,230,230)" stroke-opacity="0.373" stroke-width="0.67" />
  <path d="M 992.87 998.08 L 991.39 998.00 L 989.93 997.99 L 988.47 997.86 L 987.03 997.62 L 985.60 997.34 L 984.18 997.06" stroke="rgb(230,230,230)" stroke-opacity="0.370" stroke-width="0.67" />
  <path d="M 1007.30 1000.45 L 1006.87 1001.33 L 1006.43 1002.21 L 1006.00 1003.16 L 1005.57 1004.10 L 1004.91 1004.96 L 1004.25 1005.82 L 1003.58 1006.67 L 1002.86 1007.48 L 1002.17 1008.35 L 1001.44 1009.22 L 1000.70 1010.12 L 999.96 1011.00 L 999.16 1011.87" stroke="rgb(230,230,230)" stroke-opacity="0.370" stroke-width="0.67" />
  <path d="M 1004.31 995.87 L 1004.53 996.27 L 1004.83 996.68 L 1005.17 997.06 L 1005.52 997.44 L 1005.83 997.84 L 1006.22 998.18 L 1006.54 998.60 L 1006.96 999.09 L 1007.09 999.67 L 1007.11 1000.71" stroke="rgb(230,230,230)" stroke-opacity="0.367" stroke-width="0.66" />
  <path d="M 996.59 999.28 L 995.42 999.32 L 994.35 999.37 L 993.26 999.48 L 992.22 999.48 L 991.16 999.55 L 990.15 999.60 L 989.19 999.65 L 988.23 999.69" stroke="rgb(230,230,230)" stroke-opacity="0.366" stroke-width="0.66" />
  <path d="M 1003.65 995.86 L 1002.38 996.04 L 1001.17 996.20 L 999.96 996.36 L 998.76 996.39 L 997.53 996.44 L 996.28 996.52 L 995.07 996.61 L 993.87 996.69 L 992.71 996.69" stroke="rgb(230,230,230)" stroke-opacity="0.359" stroke-width="0.64" />
  <path d="M 1003.70 994.75 L 1003.88 995.33 L 1004.10 996.01 L 1004.12 996.66 L 1004.31 997.23 L 1004.45 997.89 L 1004.79 998.20 L 1005.33 998.57 L 1006.12 998.89 L 1006.73 999.31" stroke="rgb(230,230,230)" stroke-opacity="0.358" stroke-width="0.63" />
  <path d="M 1001.48 998.27 L 1001.61 999.65 L 1001.75 1001.03 L 1001.88 1002.41 L 1002.00 1003.81 L 1002.37 1005.19 L 1002.73 1006.57" stroke="rgb(230,230,230)" stroke-opacity="0.358" stroke-width="0.63" />
  <path d="M 1002.65 1006.52 L 1003.47 1006.14 L 1004.22 1005.62 L 1004.85 1005.00 L 1005.50 1004.36 L 1006.06 1003.69 L 1006.69 1002.98 L 1007.30 1002.29 L 1007.85 1001.68" stroke="rgb(230,230,230)" stroke-opacity="0.356" stroke-width="0.63" />
  <path d="M 996.03 1003.02 L 996.46 1001.77 L 996.84 1000.52 L 997.22 999.26 L 997.59 997.99 L 997.86 996.74 L 998.19 995.47 L 998.46 994.18 L 998.76 992.90 L 999.18 991.62 L 999.63 990.37 L 1000.05 989.09 L 1000.55 987.83 L 1001.04 986.57 L 1001.54 985.31 L 1002.02 984.07" stroke="rgb(230,230,230)" stroke-opacity="0.355" stroke-width="0.63" />
  <path d="M 998.79 996.55 L 1000.05 996.44 L 1001.24 996.53 L 1002.45 996.64 L 1003.64 996.80 L 1004.81 996.95 L 1005.97 997.08" stroke="rgb(230,230,230)" stroke-opacity="0.352" stroke-width="0.62" />
</g>
</svg>
