{
  "asset": {
    "version": "2.0",
    "generator": "TES-23 Cosmic Ray Renderer"
  },
  "extensionsUsed": [
    "KHR_materials_unlit"
  ],
  "extensionsRequired": [
    "KHR_materials_unlit"
  ],
  "scene": 0,
  "scenes": [
    {
      "nodes": [
        0
      ]
    }
  ],
  "nodes": [
    {
      "name": "CosmicRayEvent",
      "mesh": 0
    }
  ],
  "meshes": [
    {
      "name": "CosmicRayEvent",
      "primitives": [
        {
          "attributes": {
            "POSITION": 0
          },
          "material": 0,
          "mode": 1
        },
        {
          "attributes": {
            "POSITION": 1
          },
          "material": 1,
          "mode": 1
        },
        {
          "attributes": {
            "POSITION": 2
          },
          "material": 2,
          "mode": 1
        },
        {
          "attributes": {
            "POSITION": 3
          },
          "material": 3,
          "mode": 1
        },
        {
          "attributes": {
            "POSITION": 4
          },
          "material": 4,
          "mode": 1
        }
      ]
    }
  ],
  "materials": [
    {
      "name": "primary",
      "extensions": {
        "KHR_materials_unlit": {}
      },
      "pbrMetallicRoughness": {
        "baseColorFactor": [
          0.961,
          0.961,
          0.961,
          1
        ],
        "metallicFactor": 0,
        "roughnessFactor": 1
      }
    },
    {
      "name": "vertex",
      "extensions": {
        "KHR_materials_unlit": {}
      },
      "pbrMetallicRoughness": {
        "baseColorFactor": [
          0.902,
          0.902,
          0.902,
          0.9
        ],
        "metallicFactor": 0,
        "roughnessFactor": 1
      }
    },
    {
      "name": "em",
      "extensions": {
        "KHR_materials_unlit": {}
      },
      "pbrMetallicRoughness": {
        "baseColorFactor": [
          0.471,
          0.824,
          1,
          1
        ],
        "metallicFactor": 0,
        "roughnessFactor": 1
      }
    },
    {
      "name": "hadron",
      "extensions": {
        "KHR_materials_unlit": {}
      },
      "pbrMetallicRoughness": {
        "baseColorFactor": [
          0.549,
          1,
          0.745,
          1
        ],
        "metallicFactor": 0,
        "roughnessFactor": 1
      }
    },
    {
      "name": "delta",
      "extensions": {
        "KHR_materials_unlit": {}
      },
      "pbrMetallicRoughness": {
        "baseColorFactor": [
          0.804,
          0.647,
          1,
          1
        ],
        "metallicFactor": 0,
        "roughnessFactor": 1
      }
    }
  ],
  "accessors": [
    {
      "bufferView": 0,
      "byteOffset": 0,
      "componentType": 5126,
      "count": 1430,
      "type": "VEC3",
      "min": [
        -0.3636784255504608,
        -0.9999111294746399,
        0
      ],
      "max": [
        0.3507477343082428,
        1.0209165811538696,
        0
      ]
    },
    {
      "bufferView": 1,
      "byteOffset": 0,
      "componentType": 5126,
      "count": 342,
      "type": "VEC3",
      "min": [
        -0.011249608360230923,
        -0.017582207918167114,
        -0.05933339148759842
      ],
      "max": [
        0.012215596623718739,
        0.020685438066720963,
        0.11621885001659393
      ]
    },
    {
      "bufferView": 2,
      "byteOffset": 0,
      "componentType": 5126,
      "count": 1128,
      "type": "VEC3",
      "min": [
        -0.0029721655882894993,
        -0.0024421685375273228,
        -0.07534051686525345
      ],
      "max": [
        0.08877123147249222,
        0.21214953064918518,
        0.13434267044067383
      ]
    },
    {
      "bufferView": 3,
      "byteOffset": 0,
      "componentType": 5126,
      "count": 2046,
      "type": "VEC3",
      "min": [
        -0.1442757248878479,
        -0.0038558845408260822,
        -0.5377629995346069
      ],
      "max": [
        0.17430263757705688,
        0.30134814977645874,
        0.05798862501978874
      ]
    },
    {
      "bufferView": 4,
      "byteOffset": 0,
      "componentType": 5126,
      "count": 644,
      "type": "VEC3",
      "min": [
        -0.10302819311618805,
        -0.2008366882801056,
        -0.614771842956543
      ],
      "max": [
        0.09939272701740265,
        0.13970057666301727,
        0.4082668423652649
      ]
    }
  ],
  "bufferViews": [
    {
      "buffer": 0,
      "byteOffset": 0,
      "byteLength": 17160,
      "target": 34962
    },
    {
      "buffer": 0,
      "byteOffset": 17160,
      "byteLength": 4104,
      "target": 34962
    },
    {
      "buffer": 0,
      "byteOffset": 21264,
      "byteLength": 13536,
      "target": 34962
    },
    {
      "buffer": 0,
      "byteOffset": 34800,
      "byteLength": 24552,
      "target": 34962
    },
    {
      "buffer": 0,
      "byteOffset": 59352,
      "byteLength": 7728,
      "target": 34962
    }
  ],
  "buffers": [
    {
      "byteLength": 67080,
      "uri": "data:application/octet-stream;base64,"
    }
  ]
}