{
  "asset": {
    "version": "2.0",
    "generator": "TES-23 Cosmic Ray Renderer"
  },
  "extensionsUsed": [
    "KHR_materials_unlit"
  ],
  "extensionsRequired": [
    "KHR_materials_unlit"
  ],
  "scene": 0,
  "scenes": [
    {
      "nodes": [
        0
      ]
    }
  ],
  "nodes": [
    {
      "name": "CosmicRayEvent",
      "mesh": 0
    }
  ],
  "meshes": [
    {
      "name": "CosmicRayEvent",
      "primitives": [
        {
          "attributes": {
            "POSITION": 0
          },
          "material": 0,
          "mode": 1
        },
        {
          "attributes": {
            "POSITION": 1
          },
          "material": 1,
          "mode": 1
        },
        {
          "attributes": {
            "POSITION": 2
          },
          "material": 2,
          "mode": 1
        }
      ]
    }
  ],
  "materials": [
    {
      "name": "primary",
      "extensions": {
        "KHR_materials_unlit": {}
      },
      "pbrMetallicRoughness": {
        "baseColorFactor": [
          0.961,
          0.961,
          0.961,
          1
        ],
        "metallicFactor": 0,
        "roughnessFactor": 1
      }
    },
    {
      "name": "vertex",
      "extensions": {
        "KHR_materials_unlit": {}
      },
      "pbrMetallicRoughness": {
        "baseColorFactor": [
          0.902,
          0.902,
          0.902,
          0.9
        ],
        "metallicFactor": 0,
        "roughnessFactor": 1
      }
    },
    {
      "name": "em",
      "extensions": {
        "KHR_materials_unlit": {}
      },
      "pbrMetallicRoughness": {
        "baseColorFactor": [
          0.471,
          0.824,
          1,
          1
        ],
        "metallicFactor": 0,
        "roughnessFactor": 1
      }
    }
  ],
  "accessors": [
    {
      "bufferView": 0,
      "byteOffset": 0,
      "componentType": 5126,
      "count": 1664,
      "type": "VEC3",
      "min": [
        -0.999902069568634,
        -0.5758611559867859,
        0
      ],
      "max": [
        1.021528720855713,
        0.7791708111763,
        0
      ]
    },
    {
      "bufferView": 1,
      "byteOffset": 0,
      "componentType": 5126,
      "count": 304,
      "type": "VEC3",
      "min": [
        -0.02441749908030033,
        -0.018570559099316597,
        -0.06187000870704651
      ],
      "max": [
        0.009224483743309975,
        0.026761796325445175,
        0.09586728364229202
      ]
    },
    {
      "bufferView": 2,
      "byteOffset": 0,
      "componentType": 5126,
      "count": 2618,
      "type": "VEC3",
      "min": [
        -0.0029676815029233694,
        -0.003646733472123742,
        -0.3699342906475067
      ],
      "max": [
        0.46937495470046997,
        0.28332096338272095,
        0.785678505897522
      ]
    }
  ],
  "bufferViews": [
    {
      "buffer": 0,
      "byteOffset": 0,
      "byteLength": 19968,
      "target": 34962
    },
    {
      "buffer": 0,
      "byteOffset": 19968,
      "byteLength": 3648,
      "target": 34962
    },
    {
      "buffer": 0,
      "byteOffset": 23616,
      "byteLength": 31416,
      "target": 34962
    }
  ],
  "buffers": [
    {
      "byteLength": 55032,
      "uri": "data:application/octet-stream;base64,"
    }
  ]
}