{
  "asset": {
    "version": "2.0",
    "generator": "TES-23 Cosmic Ray Renderer"
  },
  "extensionsUsed": [
    "KHR_materials_unlit"
  ],
  "extensionsRequired": [
    "KHR_materials_unlit"
  ],
  "scene": 0,
  "scenes": [
    {
      "nodes": [
        0
      ]
    }
  ],
  "nodes": [
    {
      "name": "CosmicRayEvent",
      "mesh": 0
    }
  ],
  "meshes": [
    {
      "name": "CosmicRayEvent",
      "primitives": [
        {
          "attributes": {
            "POSITION": 0
          },
          "material": 0,
          "mode": 1
        },
        {
          "attributes": {
            "POSITION": 1
          },
          "material": 1,
          "mode": 1
        },
        {
          "attributes": {
            "POSITION": 2
          },
          "material": 2,
          "mode": 1
        },
        {
          "attributes": {
            "POSITION": 3
          },
          "material": 3,
          "mode": 1
        },
        {
          "attributes": {
            "POSITION": 4
          },
          "material": 4,
          "mode": 1
        },
        {
          "attributes": {
            "POSITION": 5
          },
          "material": 5,
          "mode": 1
        }
      ]
    }
  ],
  "materials": [
    {
      "name": "primary",
      "extensions": {
        "KHR_materials_unlit": {}
      },
      "pbrMetallicRoughness": {
        "baseColorFactor": [
          0.961,
          0.961,
          0.961,
          1
        ],
        "metallicFactor": 0,
        "roughnessFactor": 1
      }
    },
    {
      "name": "vertex",
      "extensions": {
        "KHR_materials_unlit": {}
      },
      "pbrMetallicRoughness": {
        "baseColorFactor": [
          0.902,
          0.902,
          0.902,
          0.9
        ],
        "metallicFactor": 0,
        "roughnessFactor": 1
      }
    },
    {
      "name": "em",
      "extensions": {
        "KHR_materials_unlit": {}
      },
      "pbrMetallicRoughness": {
        "baseColorFactor": [
          0.471,
          0.824,
          1,
          1
        ],
        "metallicFactor": 0,
        "roughnessFactor": 1
      }
    },
    {
      "name": "hadron",
      "extensions": {
        "KHR_materials_unlit": {}
      },
      "pbrMetallicRoughness": {
        "baseColorFactor": [
          0.549,
          1,
          0.745,
          1
        ],
        "metallicFactor": 0,
        "roughnessFactor": 1
      }
    },
    {
      "name": "delta",
      "extensions": {
        "KHR_materials_unlit": {}
      },
      "pbrMetallicRoughness": {
        "baseColorFactor": [
          0.804,
          0.647,
          1,
          1
        ],
        "metallicFactor": 0,
        "roughnessFactor": 1
      }
    },
    {
      "name": "backscatter",
      "extensions": {
        "KHR_materials_unlit": {}
      },
      "pbrMetallicRoughness": {
        "baseColorFactor": [
          1,
          0.824,
          0.529,
          0.95
        ],
        "metallicFactor": 0,
        "roughnessFactor": 1
      }
    }
  ],
  "accessors": [
    {
      "bufferView": 0,
      "byteOffset": 0,
      "componentType": 5126,
      "count": 1408,
      "type": "VEC3",
      "min": [
        -1.0002341270446777,
        -0.30326876044273376,
        0
      ],
      "max": [
        1.020357608795166,
        0.3043976426124573,
        0
      ]
    },
    {
      "bufferView": 1,
      "byteOffset": 0,
      "componentType": 5126,
      "count": 322,
      "type": "VEC3",
      "min": [
        -0.011926614679396152,
        -0.013223917223513126,
        -0.07284744083881378
      ],
      "max": [
        0.019366184249520302,
        0.02021810971200466,
        0.08590351045131683
      ]
    },
    {
      "bufferView": 2,
      "byteOffset": 0,
      "componentType": 5126,
      "count": 1154,
      "type": "VEC3",
      "min": [
        -0.004490537103265524,
        -0.002172533655539155,
        -0.22677017748355865
      ],
      "max": [
        0.2127559781074524,
        0.08690305054187775,
        0.06839717924594879
      ]
    },
    {
      "bufferView": 3,
      "byteOffset": 0,
      "componentType": 5126,
      "count": 2076,
      "type": "VEC3",
      "min": [
        -0.26300716400146484,
        -0.12676331400871277,
        -0.23100543022155762
      ],
      "max": [
        0.23213063180446625,
        0.11225666850805283,
        0.5099748373031616
      ]
    },
    {
      "bufferView": 4,
      "byteOffset": 0,
      "componentType": 5126,
      "count": 484,
      "type": "VEC3",
      "min": [
        -0.08212796598672867,
        -0.02723592333495617,
        -0.24002140760421753
      ],
      "max": [
        0.11271703988313675,
        0.07563308626413345,
        0.12257933616638184
      ]
    },
    {
      "bufferView": 5,
      "byteOffset": 0,
      "componentType": 5126,
      "count": 920,
      "type": "VEC3",
      "min": [
        -0.14162355661392212,
        -0.03593011945486069,
        -0.46426090598106384
      ],
      "max": [
        0.16324454545974731,
        0.1097821518778801,
        0.8119609951972961
      ]
    }
  ],
  "bufferViews": [
    {
      "buffer": 0,
      "byteOffset": 0,
      "byteLength": 16896,
      "target": 34962
    },
    {
      "buffer": 0,
      "byteOffset": 16896,
      "byteLength": 3864,
      "target": 34962
    },
    {
      "buffer": 0,
      "byteOffset": 20760,
      "byteLength": 13848,
      "target": 34962
    },
    {
      "buffer": 0,
      "byteOffset": 34608,
      "byteLength": 24912,
      "target": 34962
    },
    {
      "buffer": 0,
      "byteOffset": 59520,
      "byteLength": 5808,
      "target": 34962
    },
    {
      "buffer": 0,
      "byteOffset": 65328,
      "byteLength": 11040,
      "target": 34962
    }
  ],
  "buffers": [
    {
      "byteLength": 76368,
      "uri": "data:application/octet-stream;base64,"
    }
  ]
}