{
  "asset": {
    "version": "2.0",
    "generator": "TES-23 Cosmic Ray Renderer"
  },
  "extensionsUsed": [
    "KHR_materials_unlit"
  ],
  "extensionsRequired": [
    "KHR_materials_unlit"
  ],
  "scene": 0,
  "scenes": [
    {
      "nodes": [
        0
      ]
    }
  ],
  "nodes": [
    {
      "name": "CosmicRayEvent",
      "mesh": 0
    }
  ],
  "meshes": [
    {
      "name": "CosmicRayEvent",
      "primitives": [
        {
          "attributes": {
            "POSITION": 0
          },
          "material": 0,
          "mode": 1
        },
        {
          "attributes": {
            "POSITION": 1
          },
          "material": 1,
          "mode": 1
        },
        {
          "attributes": {
            "POSITION": 2
          },
          "material": 2,
          "mode": 1
        },
        {
          "attributes": {
            "POSITION": 3
          },
          "material": 3,
          "mode": 1
        },
        {
          "attributes": {
            "POSITION": 4
          },
          "material": 4,
          "mode": 1
        }
      ]
    }
  ],
  "materials": [
    {
      "name": "primary",
      "extensions": {
        "KHR_materials_unlit": {}
      },
      "pbrMetallicRoughness": {
        "baseColorFactor": [
          0.961,
          0.961,
          0.961,
          1
        ],
        "metallicFactor": 0,
        "roughnessFactor": 1
      }
    },
    {
      "name": "vertex",
      "extensions": {
        "KHR_materials_unlit": {}
      },
      "pbrMetallicRoughness": {
        "baseColorFactor": [
          0.902,
          0.902,
          0.902,
          0.9
        ],
        "metallicFactor": 0,
        "roughnessFactor": 1
      }
    },
    {
      "name": "em",
      "extensions": {
        "KHR_materials_unlit": {}
      },
      "pbrMetallicRoughness": {
        "baseColorFactor": [
          0.471,
          0.824,
          1,
          1
        ],
        "metallicFactor": 0,
        "roughnessFactor": 1
      }
    },
    {
      "name": "hadron",
      "extensions": {
        "KHR_materials_unlit": {}
      },
      "pbrMetallicRoughness": {
        "baseColorFactor": [
          0.549,
          1,
          0.745,
          1
        ],
        "metallicFactor": 0,
        "roughnessFactor": 1
      }
    },
    {
      "name": "delta",
      "extensions": {
        "KHR_materials_unlit": {}
      },
      "pbrMetallicRoughness": {
        "baseColorFactor": [
          0.804,
          0.647,
          1,
          1
        ],
        "metallicFactor": 0,
        "roughnessFactor": 1
      }
    }
  ],
  "accessors": [
    {
      "bufferView": 0,
      "byteOffset": 0,
      "componentType": 5126,
      "count": 1804,
      "type": "VEC3",
      "min": [
        -1.0219968557357788,
        -0.8911880850791931,
        0
      ],
      "max": [
        0.9999913573265076,
        0.904761016368866,
        0
      ]
    },
    {
      "bufferView": 1,
      "byteOffset": 0,
      "componentType": 5126,
      "count": 336,
      "type": "VEC3",
      "min": [
        -0.019062837585806847,
        -0.012448244728147984,
        -0.0643836259841919
      ],
      "max": [
        0.030072296038269997,
        0.018764261156320572,
        0.054765745997428894
      ]
    },
    {
      "bufferView": 2,
      "byteOffset": 0,
      "componentType": 5126,
      "count": 1302,
      "type": "VEC3",
      "min": [
        -0.2409394085407257,
        -0.0027300743386149406,
        -0.1157626137137413
      ],
      "max": [
        0.00224739545956254,
        0.22091612219810486,
        0.09233832359313965
      ]
    },
    {
      "bufferView": 3,
      "byteOffset": 0,
      "componentType": 5126,
      "count": 2208,
      "type": "VEC3",
      "min": [
        -0.250670462846756,
        -0.0049548461101949215,
        -0.23216329514980316
      ],
      "max": [
        0.01232115738093853,
        0.16568322479724884,
        0.39776960015296936
      ]
    },
    {
      "bufferView": 4,
      "byteOffset": 0,
      "componentType": 5126,
      "count": 774,
      "type": "VEC3",
      "min": [
        -0.11092854291200638,
        -0.004170927219092846,
        -0.5465989708900452
      ],
      "max": [
        0.04087059199810028,
        0.13521966338157654,
        0.8256593346595764
      ]
    }
  ],
  "bufferViews": [
    {
      "buffer": 0,
      "byteOffset": 0,
      "byteLength": 21648,
      "target": 34962
    },
    {
      "buffer": 0,
      "byteOffset": 21648,
      "byteLength": 4032,
      "target": 34962
    },
    {
      "buffer": 0,
      "byteOffset": 25680,
      "byteLength": 15624,
      "target": 34962
    },
    {
      "buffer": 0,
      "byteOffset": 41304,
      "byteLength": 26496,
      "target": 34962
    },
    {
      "buffer": 0,
      "byteOffset": 67800,
      "byteLength": 9288,
      "target": 34962
    }
  ],
  "buffers": [
    {
      "byteLength": 77088,
      "uri": "data:application/octet-stream;base64,"
    }
  ]
}