{
  "asset": {
    "version": "2.0",
    "generator": "TES-23 Cosmic Ray Renderer"
  },
  "extensionsUsed": [
    "KHR_materials_unlit"
  ],
  "extensionsRequired": [
    "KHR_materials_unlit"
  ],
  "scene": 0,
  "scenes": [
    {
      "nodes": [
        0
      ]
    }
  ],
  "nodes": [
    {
      "name": "CosmicRayEvent",
      "mesh": 0
    }
  ],
  "meshes": [
    {
      "name": "CosmicRayEvent",
      "primitives": [
        {
          "attributes": {
            "POSITION": 0
          },
          "material": 0,
          "mode": 1
        },
        {
          "attributes": {
            "POSITION": 1
          },
          "material": 1,
          "mode": 1
        },
        {
          "attributes": {
            "POSITION": 2
          },
          "material": 2,
          "mode": 1
        },
        {
          "attributes": {
            "POSITION": 3
          },
          "material": 3,
          "mode": 1
        },
        {
          "attributes": {
            "POSITION": 4
          },
          "material": 4,
          "mode": 1
        }
      ]
    }
  ],
  "materials": [
    {
      "name": "primary",
      "extensions": {
        "KHR_materials_unlit": {}
      },
      "pbrMetallicRoughness": {
        "baseColorFactor": [
          0.961,
          0.961,
          0.961,
          1
        ],
        "metallicFactor": 0,
        "roughnessFactor": 1
      }
    },
    {
      "name": "vertex",
      "extensions": {
        "KHR_materials_unlit": {}
      },
      "pbrMetallicRoughness": {
        "baseColorFactor": [
          0.902,
          0.902,
          0.902,
          0.9
        ],
        "metallicFactor": 0,
        "roughnessFactor": 1
      }
    },
    {
      "name": "em",
      "extensions": {
        "KHR_materials_unlit": {}
      },
      "pbrMetallicRoughness": {
        "baseColorFactor": [
          0.471,
          0.824,
          1,
          1
        ],
        "metallicFactor": 0,
        "roughnessFactor": 1
      }
    },
    {
      "name": "hadron",
      "extensions": {
        "KHR_materials_unlit": {}
      },
      "pbrMetallicRoughness": {
        "baseColorFactor": [
          0.549,
          1,
          0.745,
          1
        ],
        "metallicFactor": 0,
        "roughnessFactor": 1
      }
    },
    {
      "name": "delta",
      "extensions": {
        "KHR_materials_unlit": {}
      },
      "pbrMetallicRoughness": {
        "baseColorFactor": [
          0.804,
          0.647,
          1,
          1
        ],
        "metallicFactor": 0,
        "roughnessFactor": 1
      }
    }
  ],
  "accessors": [
    {
      "bufferView": 0,
      "byteOffset": 0,
      "componentType": 5126,
      "count": 1350,
      "type": "VEC3",
      "min": [
        -1.022731900215149,
        -0.0034696224611252546,
        0
      ],
      "max": [
        1.0002204179763794,
        0.007240425795316696,
        0
      ]
    },
    {
      "bufferView": 1,
      "byteOffset": 0,
      "componentType": 5126,
      "count": 348,
      "type": "VEC3",
      "min": [
        -0.014890453778207302,
        -0.019205942749977112,
        -0.10291539132595062
      ],
      "max": [
        0.01673187129199505,
        0.011561194434762001,
        0.08284367620944977
      ]
    },
    {
      "bufferView": 2,
      "byteOffset": 0,
      "componentType": 5126,
      "count": 578,
      "type": "VEC3",
      "min": [
        -0.30211687088012695,
        -0.010819030925631523,
        -0.007142809219658375
      ],
      "max": [
        0.0016080825589597225,
        0.006440209690481424,
        0.10809572041034698
      ]
    },
    {
      "bufferView": 3,
      "byteOffset": 0,
      "componentType": 5126,
      "count": 3868,
      "type": "VEC3",
      "min": [
        -0.31287825107574463,
        -0.05461755022406578,
        -0.6383718252182007
      ],
      "max": [
        0.256559282541275,
        0.06383661180734634,
        0.5479535460472107
      ]
    },
    {
      "bufferView": 4,
      "byteOffset": 0,
      "componentType": 5126,
      "count": 1570,
      "type": "VEC3",
      "min": [
        -0.315575510263443,
        -0.18492013216018677,
        -0.44682082533836365
      ],
      "max": [
        0.2077295333147049,
        0.06708160787820816,
        0.7634259462356567
      ]
    }
  ],
  "bufferViews": [
    {
      "buffer": 0,
      "byteOffset": 0,
      "byteLength": 16200,
      "target": 34962
    },
    {
      "buffer": 0,
      "byteOffset": 16200,
      "byteLength": 4176,
      "target": 34962
    },
    {
      "buffer": 0,
      "byteOffset": 20376,
      "byteLength": 6936,
      "target": 34962
    },
    {
      "buffer": 0,
      "byteOffset": 27312,
      "byteLength": 46416,
      "target": 34962
    },
    {
      "buffer": 0,
      "byteOffset": 73728,
      "byteLength": 18840,
      "target": 34962
    }
  ],
  "buffers": [
    {
      "byteLength": 92568,
      "uri": "data:application/octet-stream;base64,"
    }
  ]
}