<?xml version="1.0" encoding="UTF-8"?>
<svg xmlns="http://www.w3.org/2000/svg" width="2000" height="2000" viewBox="0 0 2000 2000">
<g fill="none" stroke-linecap="round" stroke-linejoin="round">
  <path d="M 1001.95 1002.28 L 1000.41 999.45 L 998.88 996.64 L 997.40 993.81 L 995.93 991.00 L 994.46 988.20 L 992.99 985.42 L 991.51 982.66 L 990.11 979.88 L 988.70 977.11 L 987.26 974.38 L 985.80 971.66 L 984.37 968.95 L 982.95 966.24 L 981.53 963.55 L 980.10 960.88 L 978.70 958.21 L 977.32 955.54 L 976.02 952.84 L 974.74 950.15 L 973.47 947.47 L 972.20 944.80 L 970.93 942.14 L 969.67 939.49 L 968.47 936.83 L 967.29 934.18 L 966.02 931.57 L 964.75 928.98 L 963.50 926.39 L 962.24 923.81 L 960.98 921.24 L 959.76 918.66 L 958.53 916.10 L 957.34 913.54 L 956.12 911.00 L 954.93 908.45 L 953.78 905.91 L 952.59 903.38 L 951.42 900.87 L 950.25 898.37 L 949.13 895.85 L 948.03 893.34 L 946.95 890.83 L 945.86 888.34 L 944.82 885.84 L 943.74 883.37 L 942.62 880.93 L 941.50 878.51 L 940.40 876.09" stroke="rgb(120,210,255)" stroke-opacity="0.851" stroke-width="1.62" />
  <path d="M 998.15 1004.96 L 996.95 1002.06 L 995.82 999.14 L 994.70 996.24 L 993.60 993.34 L 992.49 990.46 L 991.40 987.58 L 990.36 984.70 L 989.33 981.83 L 988.30 978.97 L 987.29 976.12 L 986.26 973.28 L 985.27 970.45 L 984.31 967.61 L 983.39 964.78 L 982.47 961.96 L 981.59 959.14 L 980.71 956.33 L 979.82 953.53 L 978.98 950.74 L 978.14 947.95 L 977.32 945.18 L 976.49 942.41 L 975.71 939.65 L 974.96 936.89 L 974.21 934.15 L 973.46 931.42 L 972.71 928.70 L 971.89 926.00 L 971.04 923.33 L 970.23 920.67 L 969.43 918.01 L 968.63 915.38" stroke="rgb(120,210,255)" stroke-opacity="0.850" stroke-width="1.62" />
  <path d="M 1003.05 999.36 L 1002.11 996.23 L 1001.19 993.11 L 1000.26 990.00 L 999.34 986.90 L 998.44 983.82 L 997.58 980.73 L 996.68 977.68 L 995.78 974.63 L 994.85 971.61 L 993.91 968.60 L 993.02 965.59 L 992.13 962.60 L 991.21 959.63 L 990.31 956.67 L 989.45 953.70 L 988.61 950.75 L 987.75 947.81 L 986.91 944.88 L 986.09 941.96 L 985.26 939.05 L 984.38 936.18 L 983.48 933.32 L 982.56 930.49 L 981.70 927.64 L 980.85 924.81 L 980.06 921.97 L 979.26 919.14 L 978.49 916.32 L 977.71 913.52 L 976.92 910.72 L 976.17 907.93 L 975.39 905.15 L 974.62 902.39 L 973.82 899.64 L 973.06 896.90 L 972.28 894.18 L 971.51 891.46 L 970.77 888.75 L 970.06 886.04 L 969.36 883.34 L 968.66 880.65 L 967.93 877.98 L 967.21 875.32 L 966.48 872.67 L 965.75 870.03 L 965.03 867.40 L 964.32 864.77 L 963.64 862.16 L 962.96 859.55 L 962.28 856.95 L 961.56 854.37 L 960.84 851.81 L 960.13 849.25 L 959.42 846.71" stroke="rgb(120,210,255)" stroke-opacity="0.848" stroke-width="1.62" />
  <path d="M 998.43 998.06 L 996.99 994.94 L 995.56 991.83 L 994.14 988.72 L 992.72 985.64 L 991.29 982.57 L 989.87 979.51 L 988.46 976.47 L 987.07 973.42 L 985.69 970.39 L 984.29 967.38 L 982.95 964.36 L 981.61 961.36 L 980.35 958.34 L 979.06 955.34 L 977.76 952.36 L 976.48 949.38 L 975.19 946.43 L 973.91 943.48 L 972.64 940.55 L 971.37 937.62 L 970.10 934.71 L 968.90 931.79 L 967.73 928.87 L 966.57 925.96 L 965.44 923.04 L 964.31 920.15 L 963.14 917.29 L 961.98 914.43 L 960.83 911.59 L 959.69 908.76 L 958.56 905.94 L 957.39 903.15 L 956.26 900.35 L 955.09 897.59 L 953.92 894.85 L 952.77 892.10 L 951.64 889.36 L 950.49 886.63 L 949.33 883.92 L 948.16 881.23 L 946.99 878.55 L 945.81 875.89 L 944.62 873.24 L 943.40 870.62 L 942.19 868.01 L 941.00 865.40 L 939.81 862.80 L 938.67 860.19 L 937.53 857.60 L 936.42 855.00 L 935.33 852.41 L 934.24 849.84 L 933.16 847.26 L 932.12 844.69 L 931.07 842.13 L 930.03 839.59 L 928.98 837.05 L 927.95 834.53 L 926.91 832.01 L 925.87 829.51 L 924.84 827.02 L 923.82 824.53 L 922.81 822.05 L 921.80 819.59 L 920.79 817.14 L 919.80 814.69 L 918.81 812.25 L 917.85 809.81 L 916.90 807.37 L 915.95 804.95 L 914.98 802.55 L 914.01 800.16 L 913.06 797.76 L 912.13 795.38" stroke="rgb(120,210,255)" stroke-opacity="0.839" stroke-width="1.59" />
  <path d="M 997.82 997.24 L 996.43 994.18 L 995.05 991.13 L 993.68 988.08 L 992.33 985.04 L 990.99 982.02 L 989.65 979.01 L 988.33 976.00 L 987.00 973.01 L 985.68 970.04 L 984.35 967.07 L 983.02 964.13 L 981.71 961.19 L 980.41 958.26 L 979.14 955.33 L 977.89 952.41 L 976.66 949.49 L 975.36 946.62 L 974.07 943.76 L 972.84 940.88 L 971.67 937.99 L 970.56 935.09 L 969.46 932.20 L 968.37 929.33 L 967.26 926.47 L 966.20 923.60 L 965.13 920.75 L 964.10 917.91 L 963.02 915.09 L 962.02 912.25 L 961.02 909.43 L 960.00 906.63 L 959.02 903.83 L 958.06 901.03 L 957.15 898.23 L 956.22 895.45 L 955.25 892.70 L 954.28 889.95 L 953.28 887.23 L 952.27 884.53 L 951.28 881.83 L 950.31 879.14" stroke="rgb(120,210,255)" stroke-opacity="0.839" stroke-width="1.59" />
  <path d="M 1000.90 999.21 L 999.63 996.61 L 998.45 993.97 L 997.26 991.35 L 996.11 988.73 L 994.95 986.12 L 993.75 983.55 L 992.58 980.97 L 991.50 978.36 L 990.52 975.73 L 989.51 973.12 L 988.54 970.51 L 987.52 967.93 L 986.54 965.35 L 985.55 962.78 L 984.56 960.23 L 983.53 957.70 L 982.50 955.18 L 981.47 952.68 L 980.44 950.19 L 979.40 947.71 L 978.36 945.24 L 977.34 942.78 L 976.32 940.33 L 975.31 937.89 L 974.31 935.45 L 973.34 933.01 L 972.25 930.64 L 971.17 928.28 L 970.10 925.92 L 969.03 923.57 L 967.82 921.30 L 966.60 919.05 L 965.44 916.78 L 964.29 914.52 L 963.10 912.29 L 961.89 910.10 L 960.71 907.91 L 959.53 905.71 L 958.38 903.52 L 957.33 901.29 L 956.23 899.10 L 955.21 896.88 L 954.11 894.70 L 953.02 892.52 L 951.92 890.36 L 950.84 888.21 L 949.75 886.06 L 948.66 883.93 L 947.69 881.75 L 946.72 879.58 L 945.76 877.41 L 944.80 875.26 L 943.75 873.16 L 942.69 871.08 L 941.64 869.00 L 940.58 866.93 L 939.51 864.89 L 938.43 862.86 L 937.35 860.84 L 936.26 858.84" stroke="rgb(120,210,255)" stroke-opacity="0.460" stroke-width="1.58" />
  <path d="M 1000.77 1003.10 L 999.72 1000.41 L 998.70 997.74 L 997.80 995.02 L 996.96 992.31 L 996.04 989.63 L 995.08 986.97 L 994.13 984.33 L 993.20 981.69 L 992.27 979.07 L 991.31 976.46 L 990.37 973.86 L 989.41 971.28 L 988.46 968.70 L 987.49 966.15 L 986.49 963.62 L 985.51 961.09 L 984.56 958.57 L 983.65 956.03 L 982.73 953.52 L 981.85 951.00 L 981.03 948.47 L 980.14 945.98 L 979.19 943.52 L 978.26 941.07 L 977.32 938.63 L 976.36 936.21 L 975.34 933.83 L 974.33 931.46 L 973.39 929.07" stroke="rgb(120,210,255)" stroke-opacity="0.457" stroke-width="1.57" />
  <path d="M 1000.03 1000.11 L 998.84 997.68 L 997.64 995.27 L 996.45 992.86 L 995.26 990.46 L 994.02 988.11 L 992.79 985.75 L 991.61 983.38 L 990.48 981.00 L 989.32 978.64 L 988.16 976.29 L 987.01 973.95 L 985.84 971.64 L 984.68 969.33 L 983.57 967.01 L 982.45 964.70 L 981.33 962.41 L 980.22 960.12 L 979.17 957.82 L 978.19 955.51 L 977.04 953.28 L 975.90 951.05 L 974.87 948.79 L 973.84 946.54 L 972.80 944.30 L 971.81 942.05 L 970.80 939.82 L 969.80 937.59 L 968.72 935.41 L 967.58 933.28 L 966.45 931.14 L 965.32 929.02 L 964.14 926.95 L 962.97 924.88 L 961.72 922.87" stroke="rgb(120,210,255)" stroke-opacity="0.454" stroke-width="1.55" />
  <path d="M 999.91 1000.88 L 998.69 998.34 L 997.52 995.80 L 996.37 993.27 L 995.07 990.84 L 993.74 988.45 L 992.35 986.14 L 990.96 983.82 L 989.56 981.53 L 988.24 979.23 L 986.91 976.95 L 985.60 974.68 L 984.27 972.41 L 982.92 970.17 L 981.57 967.96 L 980.22 965.74 L 978.91 963.50 L 977.60 961.25" stroke="rgb(120,210,255)" stroke-opacity="0.454" stroke-width="1.55" />
  <path d="M 998.90 996.08 L 997.56 993.84 L 996.21 991.61 L 994.84 989.41 L 993.49 987.21 L 992.15 985.01 L 990.80 982.84 L 989.36 980.74 L 987.90 978.67 L 986.50 976.59 L 985.08 974.53 L 983.58 972.53 L 982.08 970.55 L 980.60 968.56 L 979.18 966.53 L 977.76 964.51 L 976.37 962.48 L 974.99 960.46 L 973.60 958.45 L 972.15 956.50 L 970.75 954.53 L 969.47 952.51 L 968.27 950.44 L 967.14 948.35 L 965.96 946.29 L 964.75 944.26 L 963.61 942.22 L 962.54 940.14 L 961.47 938.07 L 960.36 936.03 L 959.30 933.97 L 958.24 931.92" stroke="rgb(120,210,255)" stroke-opacity="0.447" stroke-width="1.51" />
  <path d="M 1003.30 996.26 L 1006.56 995.39 L 1009.81 994.54 L 1013.05 993.69 L 1016.26 992.83 L 1019.47 992.04 L 1022.69 991.30 L 1025.87 990.49 L 1029.04 989.66 L 1032.18 988.80 L 1035.31 987.93 L 1038.42 987.04 L 1041.51 986.13 L 1044.61 985.28 L 1047.69 984.44 L 1050.78 983.66 L 1053.85 982.88 L 1056.89 982.06 L 1059.92 981.23 L 1062.94 980.40 L 1065.94 979.55 L 1068.93 978.74 L 1071.92 977.96 L 1074.88 977.16 L 1077.85 976.42 L 1080.82 975.69 L 1083.76 974.96 L 1086.69 974.23 L 1089.60 973.51 L 1092.50 972.80 L 1095.40 972.09 L 1098.28 971.40 L 1101.14 970.69 L 1103.99 969.99 L 1106.83 969.31 L 1109.66 968.60 L 1112.48 967.89 L 1115.27 967.11 L 1118.04 966.28 L 1120.80 965.46 L 1123.53 964.58 L 1126.26 963.73 L 1128.99 962.88 L 1131.70 962.04 L 1134.40 961.18 L 1137.09 960.33 L 1139.76 959.47 L 1142.42 958.61 L 1145.06 957.71 L 1147.69 956.82 L 1150.32 955.98 L 1152.95 955.16 L 1155.57 954.34 L 1158.18 953.53 L 1160.78 952.73 L 1163.37 951.95 L 1165.95 951.16 L 1168.53 950.39 L 1171.09 949.60 L 1173.65 948.82 L 1176.22 948.10 L 1178.78 947.40 L 1181.32 946.68 L 1183.86 945.97" stroke="rgb(205,165,255)" stroke-opacity="0.716" stroke-width="1.23" />
  <path d="M 785.14 768.53 L 783.11 765.71 L 781.11 762.89 L 779.05 760.12 L 777.05 757.34 L 775.00 754.60 L 772.98 751.87 L 770.95 749.15 L 768.94 746.44 L 766.96 743.72 L 765.02 740.99 L 763.08 738.28 L 761.15 735.58 L 759.26 732.87 L 757.39 730.16 L 755.51 727.46 L 753.64 724.78 L 751.83 722.08 L 750.00 719.39 L 748.18 716.72 L 746.38 714.05 L 744.59 711.40 L 742.81 708.75 L 741.02 706.12 L 739.21 703.52 L 737.38 700.95 L 735.59 698.37 L 733.72 695.86 L 731.83 693.38 L 729.96 690.90 L 728.10 688.43 L 726.23 685.98 L 724.36 683.55 L 722.47 681.14 L 720.56 678.78 L 718.61 676.47 L 716.64 674.18 L 714.68 671.90 L 712.72 669.64 L 710.81 667.36 L 708.88 665.10 L 706.96 662.86 L 705.05 660.62 L 703.18 658.37 L 701.29 656.13 L 699.41 653.92 L 697.56 651.70 L 695.71 649.48 L 693.86 647.28" stroke="rgb(140,255,190)" stroke-opacity="0.744" stroke-width="1.20" />
  <path d="M 1012.30 1082.02 L 1011.47 1083.28 L 1010.68 1084.61 L 1009.94 1085.91 L 1009.21 1087.23 L 1008.42 1088.58 L 1007.58 1089.91 L 1006.75 1091.25 L 1005.92 1092.56 L 1005.12 1093.88 L 1004.32 1095.19 L 1003.51 1096.48 L 1002.72 1097.83 L 1001.93 1099.16 L 1001.21 1100.59 L 1000.45 1101.96 L 999.69 1103.23 L 998.98 1104.56 L 998.15 1105.92 L 997.30 1107.26 L 996.44 1108.58 L 995.57 1109.85 L 994.78 1111.11 L 994.00 1112.37 L 993.20 1113.65 L 992.40 1114.91 L 991.60 1116.17 L 990.82 1117.42 L 990.06 1118.64 L 989.27 1119.85 L 988.40 1121.01 L 987.53 1122.17 L 986.71 1123.26 L 985.89 1124.40 L 985.11 1125.52 L 984.32 1126.66 L 983.61 1127.85 L 982.94 1129.03 L 982.24 1130.20 L 981.52 1131.31 L 980.79 1132.42 L 980.04 1133.49" stroke="rgb(205,165,255)" stroke-opacity="0.492" stroke-width="1.20" />
  <path d="M 997.03 1000.46 L 994.95 997.74 L 992.88 995.03 L 990.83 992.33 L 988.78 989.64 L 986.71 986.97 L 984.66 984.32 L 982.59 981.68 L 980.52 979.05 L 978.46 976.44 L 976.41 973.86 L 974.36 971.28 L 972.36 968.67 L 970.36 966.08 L 968.35 963.52 L 966.36 960.97 L 964.36 958.43 L 962.38 955.90 L 960.41 953.38 L 958.45 950.87 L 956.49 948.38 L 954.53 945.89 L 952.57 943.42 L 950.58 940.98 L 948.62 938.54 L 946.66 936.11 L 944.74 933.66 L 942.81 931.24 L 940.87 928.84 L 938.88 926.50 L 936.87 924.20 L 934.87 921.90 L 932.88 919.62 L 930.91 917.34 L 928.94 915.07 L 926.97 912.81 L 925.00 910.56 L 923.07 908.32 L 921.17 906.07 L 919.29 903.82 L 917.44 901.55 L 915.63 899.27 L 913.82 897.01 L 912.05 894.72 L 910.28 892.43 L 908.49 890.20 L 906.71 887.97 L 904.94 885.76 L 903.20 883.53 L 901.47 881.32 L 899.77 879.10 L 898.06 876.90 L 896.37 874.72 L 894.68 872.55 L 892.96 870.41 L 891.24 868.28 L 889.50 866.17 L 887.76 864.09 L 886.03 862.01 L 884.29 859.95 L 882.55 857.90 L 880.81 855.86 L 879.11 853.81 L 877.41 851.77 L 875.72 849.74 L 874.04 847.71 L 872.35 845.70 L 870.69 843.69 L 869.03 841.68 L 867.38 839.67 L 865.76 837.67 L 864.16 835.66 L 862.52 833.69 L 860.90 831.73 L 859.26 829.80 L 857.60 827.89 L 855.95 825.99 L 854.32 824.09 L 852.69 822.20 L 851.07 820.31 L 849.40 818.49 L 847.74 816.68 L 846.07 814.89 L 844.40 813.12 L 842.75 811.34 L 841.09 809.60 L 839.40 807.90 L 837.73 806.20 L 836.06 804.51 L 834.42 802.83 L 832.78 801.14" stroke="rgb(140,255,190)" stroke-opacity="0.739" stroke-width="1.19" />
  <path d="M 998.69 999.81 L 998.08 996.94 L 997.50 994.08 L 996.93 991.22 L 996.30 988.40 L 995.67 985.60 L 995.01 982.81 L 994.37 980.03 L 993.75 977.27 L 993.12 974.55 L 992.54 971.83 L 992.00 969.10 L 991.46 966.38 L 990.90 963.67 L 990.30 960.99 L 989.75 958.31 L 989.20 955.64 L 988.62 952.99 L 988.08 950.35 L 987.54 947.68 L 986.96 945.03 L 986.42 942.41 L 985.93 939.81 L 985.46 937.21 L 984.99 934.63 L 984.57 932.06 L 984.16 929.50 L 983.73 926.95 L 983.27 924.41 L 982.80 921.87 L 982.29 919.36 L 981.79 916.86 L 981.29 914.38 L 980.79 911.90 L 980.33 909.42 L 979.91 906.93 L 979.48 904.46 L 979.05 902.00 L 978.65 899.55 L 978.27 897.10 L 977.88 894.65 L 977.59 892.24 L 977.28 889.86 L 977.03 887.46 L 976.79 885.08 L 976.56 882.71 L 976.36 880.36 L 976.14 878.01 L 975.82 875.68 L 975.51 873.37 L 975.19 871.06 L 974.83 868.78 L 974.46 866.51 L 974.07 864.26 L 973.69 862.02 L 973.30 859.78 L 972.93 857.54 L 972.54 855.31 L 972.14 853.12 L 971.73 850.96 L 971.33 848.83 L 971.00 846.65 L 970.62 844.49 L 970.24 842.33 L 969.87 840.19 L 969.46 838.08 L 969.05 835.97 L 968.66 833.86 L 968.21 831.74" stroke="rgb(205,165,255)" stroke-opacity="0.489" stroke-width="1.19" />
  <path d="M 892.96 870.41 L 890.64 868.25 L 888.32 866.12 L 885.97 864.01 L 883.65 861.88 L 881.30 859.78 L 878.98 857.66 L 876.70 855.52 L 874.41 853.40 L 872.12 851.33 L 869.84 849.27 L 867.53 847.23 L 865.26 845.16 L 862.99 843.10 L 860.74 841.05 L 858.49 839.00 L 856.28 836.92 L 854.08 834.89 L 851.89 832.92 L 849.72 830.94 L 847.58 828.94 L 845.46 826.95 L 843.35 825.00 L 841.25 823.06 L 839.19 821.08 L 837.13 819.14 L 835.11 817.19 L 833.11 815.25 L 831.12 813.34 L 829.15 811.43 L 827.16 809.51 L 825.17 807.60 L 823.18 805.71 L 821.19 803.81 L 819.23 801.91 L 817.26 800.02 L 815.35 798.11 L 813.46 796.19 L 811.61 794.27 L 809.74 792.37 L 807.87 790.50 L 805.98 788.62 L 804.10 786.76 L 802.19 784.93 L 800.27 783.13 L 798.35 781.34 L 796.44 779.57 L 794.53 777.76 L 792.63 775.91 L 790.73 774.07 L 788.86 772.21 L 787.00 770.36 L 785.14 768.53 L 783.29 766.70 L 781.46 764.87 L 779.58 763.09" stroke="rgb(140,255,190)" stroke-opacity="0.734" stroke-width="1.18" />
  <path d="M 894.68 872.55 L 892.46 870.20 L 890.28 867.84 L 888.11 865.50 L 885.92 863.18 L 883.75 860.84 L 881.60 858.49 L 879.42 856.16 L 877.20 853.85 L 875.00 851.55 L 872.74 849.31 L 870.51 847.04 L 868.33 844.75 L 866.15 842.46 L 863.99 840.18 L 861.83 837.90 L 859.65 835.66 L 857.49 833.43 L 855.31 831.22 L 853.13 829.03 L 850.95 826.85 L 848.79 824.65 L 846.66 822.47 L 844.55 820.27 L 842.45 818.07 L 840.39 815.86 L 838.34 813.66 L 836.28 811.47 L 834.23 809.31 L 832.19 807.16 L 830.14 805.04 L 828.10 802.94 L 826.09 800.82 L 824.12 798.69 L 822.15 796.60 L 820.20 794.50 L 818.28 792.39 L 816.36 790.30 L 814.44 788.22 L 812.54 786.13 L 810.65 784.06 L 808.77 782.01 L 806.90 779.96 L 805.04 777.92 L 803.19 775.88 L 801.34 773.86 L 799.48 771.86 L 797.63 769.87 L 795.79 767.88 L 793.95 765.90 L 792.14 763.91 L 790.28 761.96 L 788.45 759.99 L 786.63 758.03 L 784.80 756.10 L 782.97 754.19 L 781.15 752.29 L 779.31 750.39 L 777.49 748.50 L 775.67 746.63 L 773.85 744.77 L 772.05 742.89 L 770.32 740.99 L 768.59 739.10 L 766.86 737.21 L 765.13 735.35 L 763.38 733.50 L 761.63 731.67 L 759.89 729.84 L 758.17 728.01 L 756.45 726.18 L 754.74 724.36 L 753.04 722.55 L 751.34 720.74 L 749.60 718.99 L 747.88 717.24 L 746.16 715.50 L 744.49 713.72 L 742.85 711.92 L 741.21 710.13 L 739.54 708.40 L 737.86 706.69 L 736.19 704.99 L 734.51 703.31 L 732.84 701.63 L 731.18 699.95 L 729.57 698.25 L 727.98 696.55 L 726.40 694.85 L 724.85 693.13 L 723.28 691.43 L 721.73 689.72 L 720.21 688.01 L 718.69 686.32 L 717.17 684.63 L 715.68 682.91 L 714.21 681.20 L 712.74 679.49 L 711.29 677.78 L 709.85 676.06 L 708.43 674.35 L 707.02 672.63 L 705.62 670.92 L 704.23 669.21 L 702.84 667.52 L 701.48 665.84 L 700.13 664.14 L 698.78 662.46 L 697.39 660.83 L 696.02 659.20 L 694.66 657.58 L 693.31 655.96 L 691.95 654.36" stroke="rgb(140,255,190)" stroke-opacity="0.734" stroke-width="1.18" />
  <path d="M 967.58 936.43 L 965.55 933.93 L 963.49 931.44 L 961.45 928.99 L 959.41 926.57 L 957.40 924.20 L 955.41 921.83 L 953.38 919.47 L 951.40 917.09 L 949.41 914.72 L 947.44 912.34 L 945.47 909.98 L 943.51 907.62 L 941.54 905.27 L 939.59 902.94 L 937.63 900.63 L 935.70 898.33 L 933.75 896.06 L 931.80 893.82 L 929.90 891.58 L 927.95 889.36 L 926.04 887.11 L 924.13 884.88 L 922.23 882.67 L 920.35 880.46 L 918.47 878.24 L 916.60 876.03 L 914.72 873.83 L 912.84 871.67 L 910.96 869.51 L 909.10 867.36 L 907.25 865.24 L 905.35 863.16 L 903.46 861.09 L 901.58 859.03 L 899.71 856.98 L 897.86 854.93 L 896.02 852.90 L 894.17 850.88 L 892.35 848.88 L 890.51 846.89 L 888.72 844.89 L 886.93 842.91 L 885.12 840.95 L 883.32 838.99 L 881.52 837.04 L 879.76 835.03 L 878.02 833.03 L 876.28 831.06 L 874.59 829.08 L 872.91 827.09 L 871.20 825.15 L 869.49 823.21 L 867.76 821.26 L 866.01 819.33 L 864.28 817.41 L 862.62 815.43 L 860.97 813.41 L 859.33 811.40 L 857.70 809.39 L 856.07 807.40 L 854.44 805.43 L 852.81 803.46 L 851.17 801.50 L 849.54 799.57 L 847.92 797.61 L 846.32 795.65 L 844.75 793.68 L 843.19 791.72 L 841.64 789.76 L 840.07 787.84 L 838.48 785.95 L 836.89 784.09 L 835.26 782.26 L 833.64 780.44 L 832.02 778.63 L 830.39 776.86 L 828.77 775.10 L 827.14 773.35 L 825.50 771.62 L 823.87 769.89 L 822.21 768.21 L 820.54 766.55 L 818.89 764.90 L 817.23 763.24 L 815.62 761.57 L 814.00 759.91 L 812.37 758.26 L 810.77 756.62 L 809.16 754.97 L 807.58 753.32 L 806.04 751.64 L 804.51 749.96 L 802.98 748.29 L 801.44 746.65 L 799.91 745.02 L 798.35 743.41 L 796.78 741.81 L 795.17 740.25 L 793.55 738.70" stroke="rgb(140,255,190)" stroke-opacity="0.733" stroke-width="1.18" />
  <path d="M 899.77 879.10 L 897.54 876.78 L 895.30 874.49 L 893.13 872.14 L 890.98 869.81 L 888.81 867.51 L 886.68 865.19 L 884.56 862.89 L 882.42 860.63 L 880.29 858.39 L 878.16 856.16 L 875.93 854.05 L 873.73 851.93 L 871.58 849.77 L 869.44 847.61 L 867.30 845.46 L 865.17 843.33 L 863.12 841.16 L 861.05 839.01 L 859.03 836.83 L 857.04 834.62 L 855.06 832.43 L 853.09 830.25 L 851.12 828.06 L 849.16 825.88 L 847.23 823.70 L 845.30 821.53 L 843.37 819.38 L 841.44 817.24 L 839.49 815.12 L 837.53 813.03 L 835.56 810.95 L 833.63 808.85 L 831.75 806.73" stroke="rgb(140,255,190)" stroke-opacity="0.730" stroke-width="1.17" />
  <path d="M 1003.34 998.89 L 1003.49 1001.02 L 1003.63 1003.12 L 1003.79 1005.24 L 1003.96 1007.30 L 1004.07 1009.29 L 1004.21 1011.23 L 1004.29 1013.18 L 1004.38 1015.17 L 1004.50 1017.09 L 1004.60 1019.00 L 1004.70 1020.90 L 1004.83 1022.76 L 1004.96 1024.60 L 1005.12 1026.42 L 1005.27 1028.23 L 1005.39 1030.05 L 1005.56 1031.83 L 1005.78 1033.61 L 1006.02 1035.38 L 1006.27 1037.12 L 1006.46 1038.87 L 1006.69 1040.58 L 1006.93 1042.32 L 1007.13 1044.07 L 1007.36 1045.87 L 1007.58 1047.65 L 1007.77 1049.44 L 1008.03 1051.18 L 1008.30 1052.92 L 1008.56 1054.65 L 1008.73 1056.27 L 1008.90 1057.90 L 1009.10 1059.52 L 1009.30 1061.12 L 1009.48 1062.76 L 1009.67 1064.39 L 1009.84 1066.01 L 1010.00 1067.63 L 1010.18 1069.24 L 1010.44 1070.83 L 1010.70 1072.43 L 1010.96 1074.04 L 1011.23 1075.64 L 1011.48 1077.23 L 1011.76 1078.84 L 1012.05 1080.43 L 1012.30 1082.02 L 1012.62 1083.59 L 1012.95 1085.15 L 1013.27 1086.69" stroke="rgb(205,165,255)" stroke-opacity="0.484" stroke-width="1.17" />
  <path d="M 1000.47 999.58 L 999.05 996.52 L 997.60 993.49 L 996.14 990.47 L 994.66 987.48 L 993.19 984.50 L 991.72 981.53 L 990.24 978.59 L 988.78 975.64 L 987.31 972.72 L 985.83 969.82 L 984.34 966.94 L 982.87 964.07 L 981.39 961.21 L 979.93 958.36 L 978.40 955.56 L 976.89 952.76 L 975.34 950.00 L 973.78 947.26 L 972.23 944.53 L 970.68 941.82 L 969.13 939.12 L 967.58 936.43 L 965.99 933.78 L 964.47 931.11 L 962.97 928.44 L 961.48 925.77 L 959.96 923.13 L 958.46 920.50 L 956.95 917.89 L 955.46 915.29 L 953.98 912.70 L 952.50 910.11 L 951.06 907.53 L 949.68 904.92 L 948.33 902.31 L 947.01 899.71 L 945.72 897.10 L 944.42 894.50 L 943.13 891.92 L 941.90 889.32 L 940.69 886.72" stroke="rgb(140,255,190)" stroke-opacity="0.727" stroke-width="1.16" />
  <path d="M 998.63 997.48 L 998.93 995.15 L 999.20 992.82 L 999.50 990.49 L 999.81 988.17 L 1000.11 985.84 L 1000.37 983.56 L 1000.66 981.31 L 1000.94 979.08 L 1001.22 976.80 L 1001.58 974.53 L 1001.93 972.26 L 1002.32 970.07 L 1002.75 967.93 L 1003.18 965.79 L 1003.63 963.67 L 1004.06 961.54 L 1004.55 959.46 L 1005.04 957.43 L 1005.53 955.39 L 1006.02 953.35 L 1006.52 951.32 L 1007.00 949.29 L 1007.56 947.28 L 1008.11 945.27 L 1008.62 943.22 L 1009.16 941.16 L 1009.66 939.09 L 1010.10 937.04 L 1010.54 934.99 L 1011.06 932.95 L 1011.59 930.91 L 1012.12 928.88 L 1012.64 926.85 L 1013.19 924.83 L 1013.76 922.81 L 1014.28 920.76 L 1014.79 918.72 L 1015.31 916.69 L 1015.81 914.68 L 1016.30 912.67 L 1016.78 910.66 L 1017.27 908.66 L 1017.68 906.66 L 1018.11 904.66 L 1018.49 902.67 L 1018.82 900.68 L 1019.18 898.70 L 1019.53 896.71 L 1019.88 894.69 L 1020.18 892.65 L 1020.47 890.61 L 1020.72 888.57 L 1020.96 886.56 L 1021.20 884.58 L 1021.43 882.61 L 1021.68 880.65 L 1021.91 878.70 L 1022.13 876.76 L 1022.35 874.83 L 1022.59 872.91 L 1022.77 870.98 L 1022.98 869.02 L 1023.21 867.13 L 1023.44 865.24 L 1023.67 863.36 L 1023.89 861.47 L 1024.09 859.56 L 1024.29 857.70 L 1024.49 855.85 L 1024.66 854.00 L 1024.83 852.14 L 1025.06 850.32 L 1025.29 848.52 L 1025.49 846.73 L 1025.69 844.94 L 1025.87 843.18 L 1026.05 841.41 L 1026.21 839.67 L 1026.34 837.92 L 1026.52 836.19 L 1026.72 834.48 L 1026.86 832.80 L 1027.00 831.13 L 1027.15 829.47 L 1027.29 827.81 L 1027.41 826.14 L 1027.53 824.48 L 1027.64 822.83 L 1027.77 821.19 L 1027.85 819.57 L 1027.96 817.96" stroke="rgb(140,255,190)" stroke-opacity="0.724" stroke-width="1.16" />
  <path d="M 1001.22 995.21 L 1000.07 992.22 L 998.95 989.23 L 997.90 986.23 L 996.76 983.28 L 995.62 980.34 L 994.49 977.41 L 993.36 974.48 L 992.26 971.57 L 991.11 968.69 L 989.97 965.81 L 988.87 962.94 L 987.80 960.06 L 986.71 957.21 L 985.65 954.35 L 984.60 951.51 L 983.56 948.68 L 982.52 945.86 L 981.46 943.05 L 980.38 940.28 L 979.30 937.51 L 978.24 934.75 L 977.19 931.99 L 976.18 929.24 L 975.16 926.50 L 974.18 923.76 L 973.24 921.02 L 972.30 918.29 L 971.38 915.56" stroke="rgb(140,255,190)" stroke-opacity="0.721" stroke-width="1.15" />
  <path d="M 1001.35 997.34 L 999.55 994.83 L 997.79 992.28 L 996.02 989.76 L 994.27 987.25 L 992.50 984.77 L 990.73 982.29 L 988.98 979.82 L 987.20 977.37 L 985.43 974.93 L 983.64 972.52 L 981.86 970.13 L 980.13 967.70 L 978.40 965.29 L 976.68 962.88 L 975.02 960.45 L 973.34 958.06 L 971.73 955.63 L 970.15 953.20 L 968.60 950.75 L 967.06 948.31 L 965.48 945.89 L 963.92 943.46 L 962.30 941.08 L 960.61 938.76 L 958.95 936.44 L 957.31 934.13 L 955.62 931.85" stroke="rgb(140,255,190)" stroke-opacity="0.720" stroke-width="1.14" />
  <path d="M 997.00 1000.96 L 996.12 998.68 L 995.40 996.35 L 994.67 994.03 L 993.88 991.74 L 993.14 989.44 L 992.47 987.13 L 991.81 984.83 L 991.15 982.54 L 990.34 980.31 L 989.55 978.10 L 988.71 975.92 L 987.93 973.73 L 987.31 971.49 L 986.71 969.26 L 986.07 967.05 L 985.43 964.85 L 984.78 962.66 L 984.04 960.50 L 983.30 958.35 L 982.57 956.20 L 981.86 954.05 L 981.16 951.91 L 980.50 949.78 L 979.83 947.66 L 979.16 945.55 L 978.48 943.44 L 977.89 941.31 L 977.29 939.18 L 976.66 937.06 L 976.02 934.96 L 975.29 932.89 L 974.56 930.83 L 973.83 928.78 L 973.09 926.75 L 972.36 924.72 L 971.64 922.69 L 970.94 920.67 L 970.18 918.68 L 969.50 916.67 L 968.80 914.67 L 968.10 912.69 L 967.41 910.70 L 966.80 908.70 L 966.24 906.70 L 965.65 904.71 L 965.05 902.73 L 964.42 900.78 L 963.71 898.86 L 963.05 896.93 L 962.27 895.05 L 961.46 893.20" stroke="rgb(140,255,190)" stroke-opacity="0.540" stroke-width="1.14" />
  <path d="M 960.65 891.90 L 959.16 889.33 L 957.69 886.76 L 956.29 884.17 L 954.93 881.56 L 953.59 878.96 L 952.26 876.36 L 950.94 873.78 L 949.60 871.21 L 948.27 868.66 L 946.97 866.13 L 945.70 863.59 L 944.52 861.02 L 943.28 858.49 L 942.05 855.96 L 940.95 853.38 L 939.86 850.80 L 938.80 848.26 L 937.75 845.75 L 936.74 843.15 L 935.74 840.60 L 934.80 838.04 L 933.89 835.48 L 932.97 832.93 L 932.16 830.35 L 931.38 827.75 L 930.65 825.15 L 929.92 822.54 L 929.18 819.95 L 928.47 817.37 L 927.72 814.84 L 927.01 812.35 L 926.25 809.87 L 925.52 807.38 L 924.70 804.89 L 923.88 802.42 L 923.08 799.95 L 922.28 797.48 L 921.47 795.04 L 920.65 792.64 L 919.79 790.24 L 918.97 787.84 L 918.15 785.44 L 917.34 783.04 L 916.52 780.67 L 915.71 778.34 L 915.04 775.96 L 914.37 773.61 L 913.75 771.27 L 913.04 768.96 L 912.30 766.69 L 911.63 764.41 L 910.95 762.14 L 910.29 759.88 L 909.68 757.61 L 909.05 755.35 L 908.58 753.09 L 908.15 750.85 L 907.73 748.59 L 907.32 746.31 L 906.87 744.04 L 906.42 741.78 L 905.98 739.51 L 905.54 737.26 L 905.11 735.01" stroke="rgb(140,255,190)" stroke-opacity="0.718" stroke-width="1.14" />
  <path d="M 997.38 999.00 L 995.85 996.30 L 994.27 993.64 L 992.73 990.97 L 991.23 988.30 L 989.72 985.63 L 988.22 982.98 L 986.77 980.32 L 985.32 977.67 L 983.88 975.03 L 982.45 972.39 L 981.03 969.76 L 979.62 967.15 L 978.19 964.56 L 976.75 961.98 L 975.32 959.42 L 973.89 956.86 L 972.45 954.33 L 971.02 951.80 L 969.64 949.26 L 968.29 946.72 L 966.96 944.18 L 965.60 941.66 L 964.25 939.16 L 962.93 936.65 L 961.65 934.14 L 960.38 931.63 L 959.04 929.18 L 957.69 926.74 L 956.33 924.32 L 954.99 921.90 L 953.63 919.51 L 952.29 917.13 L 950.99 914.73 L 949.72 912.33 L 948.46 909.93 L 947.19 907.55" stroke="rgb(140,255,190)" stroke-opacity="0.538" stroke-width="1.14" />
  <path d="M 981.86 954.05 L 980.85 951.29 L 979.86 948.53 L 978.90 945.76 L 977.91 943.03 L 976.95 940.31 L 975.99 937.63 L 975.01 935.00 L 974.06 932.40 L 973.07 929.78 L 972.17 927.18 L 971.27 924.60 L 970.44 922.00 L 969.58 919.44 L 968.76 916.91 L 967.97 914.37 L 967.09 911.83 L 966.22 909.31 L 965.38 906.79 L 964.56 904.28 L 963.82 901.74 L 963.16 899.18 L 962.48 896.63 L 961.80 894.11 L 961.13 891.60 L 960.46 889.11 L 959.79 886.64 L 959.12 884.17 L 958.39 881.75 L 957.64 879.35 L 956.93 876.92 L 956.24 874.54 L 955.57 872.19 L 954.94 869.83 L 954.41 867.47 L 953.86 865.11 L 953.26 862.75 L 952.67 860.40 L 952.10 858.06 L 951.56 855.74 L 951.06 853.46 L 950.55 851.17 L 950.04 848.90 L 949.63 846.62 L 949.21 844.36 L 948.76 842.11 L 948.37 839.85 L 948.01 837.57 L 947.66 835.32 L 947.24 833.08 L 946.82 830.83 L 946.40 828.58 L 945.94 826.33 L 945.45 824.09 L 945.01 821.82 L 944.54 819.59 L 944.06 817.35" stroke="rgb(140,255,190)" stroke-opacity="0.718" stroke-width="1.14" />
  <path d="M 991.06 970.74 L 991.12 970.10 L 991.17 969.46 L 991.21 968.86 L 991.36 968.30 L 991.51 967.73 L 991.80 967.11 L 992.11 966.49 L 992.43 965.84" stroke="rgb(205,165,255)" stroke-opacity="0.476" stroke-width="1.13" />
  <path d="M 981.46 943.05 L 980.88 940.15 L 980.32 937.29 L 979.83 934.43 L 979.31 931.56 L 978.74 928.72 L 978.14 925.86 L 977.53 923.02 L 977.00 920.17 L 976.45 917.35 L 975.94 914.53 L 975.46 911.73 L 975.00 908.94 L 974.53 906.15 L 974.03 903.37 L 973.58 900.58 L 973.15 897.79 L 972.70 895.01 L 972.26 892.24 L 971.82 889.49 L 971.37 886.75 L 970.95 884.03 L 970.57 881.33 L 970.22 878.64 L 969.91 875.91 L 969.54 873.19 L 969.17 870.48 L 968.79 867.79 L 968.42 865.11 L 968.03 862.44 L 967.58 859.77 L 967.10 857.12 L 966.62 854.48 L 966.18 851.87 L 965.74 849.26 L 965.37 846.66 L 965.03 844.04 L 964.67 841.44 L 964.31 838.88 L 963.92 836.34" stroke="rgb(140,255,190)" stroke-opacity="0.716" stroke-width="1.13" />
  <path d="M 1001.07 998.42 L 999.86 996.24 L 998.60 994.09 L 997.43 991.90 L 996.26 989.73 L 995.05 987.58 L 993.89 985.43 L 992.72 983.29 L 991.56 981.15 L 990.45 979.00 L 989.36 976.85 L 988.28 974.71 L 987.13 972.61 L 986.02 970.50 L 984.93 968.40 L 983.85 966.31 L 982.73 964.23 L 981.62 962.17 L 980.54 960.10 L 979.41 958.07 L 978.32 956.03 L 977.27 953.99 L 976.18 951.98 L 975.11 949.96 L 974.09 947.93 L 973.08 945.91 L 972.10 943.90 L 971.12 941.89 L 970.08 939.92 L 969.04 937.96 L 968.05 935.97 L 967.06 933.99 L 966.23 931.96 L 965.44 929.93 L 964.66 927.89 L 963.89 925.87 L 963.08 923.88 L 962.23 921.92" stroke="rgb(140,255,190)" stroke-opacity="0.536" stroke-width="1.13" />
  <path d="M 1000.61 999.16 L 999.17 996.52 L 997.72 993.90 L 996.27 991.30 L 994.80 988.73 L 993.41 986.13 L 991.95 983.57 L 990.50 981.03 L 989.16 978.43 L 987.89 975.81 L 986.64 973.20 L 985.40 970.60 L 984.16 968.01 L 983.01 965.39 L 981.89 962.77 L 980.77 960.15 L 979.65 957.55 L 978.49 954.98 L 977.35 952.42 L 976.21 949.86 L 975.08 947.31 L 973.95 944.78 L 972.78 942.28 L 971.62 939.78 L 970.48 937.30 L 969.37 934.81 L 968.28 932.32 L 967.20 929.84 L 966.09 927.39 L 964.98 924.95 L 963.75 922.58 L 962.57 920.19 L 961.35 917.83 L 960.14 915.49 L 958.92 913.16 L 957.68 910.86 L 956.46 908.56 L 955.31 906.22 L 954.17 903.90 L 953.09 901.55 L 952.00 899.22 L 950.92 896.90 L 949.79 894.61 L 948.69 892.31 L 947.59 890.03 L 946.51 887.75 L 945.34 885.53 L 944.18 883.32 L 943.02 881.11 L 941.86 878.92 L 940.72 876.72 L 939.59 874.54 L 938.36 872.41 L 937.13 870.30 L 935.86 868.22 L 934.59 866.15 L 933.37 864.07 L 932.25 861.94 L 931.16 859.80 L 929.99 857.72 L 928.82 855.65 L 927.65 853.59 L 926.40 851.59 L 925.10 849.63 L 923.80 847.69 L 922.48 845.77 L 921.09 843.91 L 919.73 842.04 L 918.38 840.17 L 917.04 838.31 L 915.69 836.46 L 914.33 834.64 L 912.97 832.83 L 911.62 831.02 L 910.26 829.23" stroke="rgb(140,255,190)" stroke-opacity="0.536" stroke-width="1.13" />
  <path d="M 949.68 904.92 L 947.87 902.59 L 946.06 900.26 L 944.27 897.94 L 942.45 895.66 L 940.61 893.41 L 938.79 891.16 L 936.99 888.96 L 935.18 886.78 L 933.43 884.64 L 931.69 882.52 L 929.95 880.41 L 928.22 878.31 L 926.49 876.27 L 924.78 874.23 L 923.10 872.17 L 921.41 870.13 L 919.80 868.10 L 918.20 866.08 L 916.56 864.08 L 914.86 862.16 L 913.22 860.19 L 911.62 858.24 L 910.03 856.30 L 908.42 854.37 L 906.82 852.46 L 905.19 850.56 L 903.57 848.68 L 901.96 846.81 L 900.36 844.94 L 898.76 843.09 L 897.11 841.29 L 895.49 839.51" stroke="rgb(140,255,190)" stroke-opacity="0.535" stroke-width="1.13" />
  <path d="M 999.48 997.68 L 998.25 994.99 L 997.03 992.31 L 995.81 989.64 L 994.60 986.99 L 993.35 984.38 L 992.14 981.78 L 990.93 979.18 L 989.67 976.66 L 988.37 974.17 L 987.07 971.70 L 985.78 969.23 L 984.47 966.79 L 983.18 964.35 L 981.78 962.00 L 980.40 959.65 L 979.06 957.27 L 977.80 954.89 L 976.55 952.53 L 975.40 950.12 L 974.26 947.72 L 973.10 945.35 L 971.97 942.98 L 970.84 940.63 L 969.77 938.29 L 968.69 935.95 L 967.62 933.63 L 966.50 931.32 L 965.44 929.00 L 964.34 926.71 L 963.23 924.44 L 962.13 922.18 L 961.06 919.93 L 960.08 917.63 L 959.09 915.36 L 958.12 913.11 L 957.14 910.87 L 956.19 908.62 L 955.26 906.39 L 954.34 904.16 L 953.46 901.91 L 952.59 899.68" stroke="rgb(140,255,190)" stroke-opacity="0.535" stroke-width="1.13" />
  <path d="M 962.57 920.19 L 962.06 917.47 L 961.55 914.77 L 961.05 912.08 L 960.55 909.41 L 960.01 906.76 L 959.49 904.12 L 958.98 901.53 L 958.44 898.95 L 957.92 896.40 L 957.38 893.86 L 956.81 891.32 L 956.23 888.81 L 955.63 886.31" stroke="rgb(140,255,190)" stroke-opacity="0.535" stroke-width="1.13" />
  <path d="M 1002.03 1000.91 L 1000.80 998.15 L 999.65 995.37 L 998.47 992.62 L 997.30 989.88 L 996.13 987.14 L 994.97 984.42 L 993.81 981.71 L 992.65 979.01 L 991.50 976.32 L 990.24 973.69 L 989.03 971.05 L 987.84 968.42 L 986.55 965.84 L 985.29 963.27 L 984.03 960.70 L 982.78 958.16 L 981.44 955.67 L 980.19 953.15 L 978.89 950.67 L 977.60 948.20" stroke="rgb(140,255,190)" stroke-opacity="0.534" stroke-width="1.12" />
  <path d="M 981.62 962.17 L 980.33 960.25 L 979.09 958.40 L 977.85 956.52 L 976.65 954.63 L 975.41 952.76 L 974.08 950.98 L 972.65 949.23 L 971.14 947.52 L 969.63 945.82 L 968.08 944.10 L 966.58 942.36 L 965.15 940.61 L 963.71 938.90 L 962.32 937.14 L 961.07 935.27 L 959.79 933.46 L 958.48 931.66 L 957.21 929.81 L 955.95 927.98 L 954.69 926.15 L 953.42 924.34 L 952.15 922.54 L 950.89 920.72 L 949.65 918.89 L 948.41 917.07 L 947.17 915.27 L 945.97 913.48 L 944.79 911.69 L 943.59 909.89 L 942.35 908.10 L 941.03 906.34 L 939.72 904.58 L 938.41 902.85 L 937.15 901.10 L 935.86 899.41 L 934.39 897.87 L 932.92 896.33 L 931.46 894.80 L 929.96 893.29 L 928.47 891.78 L 927.00 890.28 L 925.58 888.74 L 924.22 887.14" stroke="rgb(140,255,190)" stroke-opacity="0.534" stroke-width="1.12" />
  <path d="M 999.34 1001.56 L 998.91 999.59 L 998.47 997.69 L 998.05 995.71 L 997.60 993.72 L 997.18 991.83 L 996.77 989.94 L 996.38 988.05 L 995.90 986.22 L 995.39 984.41 L 994.87 982.62 L 994.37 980.85 L 993.88 979.10 L 993.35 977.39 L 992.85 975.68 L 992.37 974.03 L 991.72 972.39 L 991.06 970.74 L 990.39 969.12 L 989.75 967.46 L 989.11 965.81 L 988.70 964.13 L 988.37 962.43 L 988.08 960.72 L 987.82 958.99" stroke="rgb(205,165,255)" stroke-opacity="0.473" stroke-width="1.12" />
  <path d="M 975.16 926.50 L 973.21 924.87 L 971.23 923.30 L 969.23 921.76 L 967.20 920.27 L 965.18 918.78 L 963.17 917.30 L 961.10 915.90 L 959.05 914.52 L 957.05 913.07 L 955.04 911.65 L 953.00 910.29 L 950.90 908.99 L 948.85 907.65 L 946.75 906.38 L 944.65 905.13 L 942.55 903.90 L 940.51 902.64 L 938.44 901.44 L 936.36 900.26 L 934.24 899.23 L 932.17 898.13 L 930.09 897.10 L 928.02 896.06 L 925.99 894.97 L 923.95 893.93 L 921.90 892.92 L 919.84 891.91 L 917.79 890.89 L 915.74 889.86 L 913.70 888.84 L 911.67 887.83 L 909.73 886.67 L 907.82 885.49 L 905.92 884.28 L 903.99 883.12 L 902.05 881.99 L 900.07 880.96 L 898.09 879.95 L 896.09 878.99 L 894.09 878.04 L 892.11 877.07 L 890.14 876.11" stroke="rgb(140,255,190)" stroke-opacity="0.531" stroke-width="1.11" />
  <path d="M 1470.16 2000.11 L 1469.02 1997.22 L 1467.28 1994.67 L 1466.05 1991.91 L 1464.89 1988.73 L 1463.79 1986.19 L 1462.74 1983.39 L 1460.72 1981.27 L 1459.63 1978.56 L 1458.69 1975.87 L 1457.28 1973.05 L 1455.95 1970.40 L 1455.08 1967.30 L 1453.40 1964.67 L 1452.46 1962.16 L 1450.91 1959.35 L 1449.33 1956.74 L 1448.31 1953.74 L 1447.43 1951.17 L 1445.84 1948.00 L 1444.61 1945.80 L 1443.18 1943.04 L 1442.12 1940.02 L 1441.11 1937.88 L 1439.33 1935.11 L 1438.52 1932.18 L 1436.80 1929.08 L 1435.67 1926.55 L 1434.57 1923.98 L 1432.96 1921.33 L 1432.03 1918.45 L 1430.79 1915.57 L 1429.13 1913.18 L 1428.09 1910.66 L 1426.92 1907.46 L 1425.54 1904.79 L 1424.09 1902.21 L 1422.73 1899.69 L 1421.70 1897.29 L 1420.36 1893.98 L 1419.36 1891.27 L 1417.43 1888.77 L 1416.52 1885.96 L 1415.42 1883.04 L 1413.90 1880.31 L 1412.78 1878.28 L 1411.73 1874.89 L 1410.14 1872.25 L 1408.56 1869.77 L 1407.53 1867.27 L 1406.03 1864.15 L 1405.02 1861.10 L 1403.50 1858.96 L 1402.46 1855.75 L 1400.90 1853.35 L 1399.80 1850.19 L 1398.59 1847.88 L 1397.01 1845.33 L 1396.21 1842.70 L 1394.55 1839.75 L 1393.48 1837.32 L 1392.68 1833.94 L 1390.94 1831.26 L 1389.75 1828.83 L 1388.64 1826.59 L 1387.16 1823.70 L 1386.06 1820.74 L 1384.67 1817.87 L 1382.80 1815.11 L 1382.15 1812.56 L 1380.85 1809.98 L 1379.28 1807.40 L 1378.29 1804.76 L 1376.77 1801.90 L 1375.77 1799.20 L 1374.21 1796.72 L 1373.19 1793.87 L 1371.77 1790.99 L 1370.78 1788.63 L 1368.99 1785.43 L 1367.97 1782.63 L 1366.65 1779.76 L 1365.39 1777.37 L 1364.23 1774.76 L 1363.08 1772.28 L 1361.66 1769.26 L 1360.34 1766.39 L 1358.90 1763.64 L 1357.76 1760.84 L 1356.44 1758.47 L 1355.31 1755.71 L 1353.78 1752.89 L 1353.00 1750.20 L 1351.37 1747.55 L 1350.68 1744.69 L 1348.93 1742.47 L 1347.65 1739.11 L 1346.47 1736.55 L 1344.83 1733.96 L 1343.65 1731.70 L 1342.68 1728.62 L 1341.05 1726.18 L 1340.23 1723.23 L 1338.61 1720.14 L 1337.52 1718.01 L 1335.91 1715.28 L 1335.01 1712.34 L 1333.65 1709.56 L 1331.76 1706.89 L 1331.38 1704.37 L 1329.73 1701.42 L 1328.57 1698.82 L 1327.30 1695.80 L 1326.09 1692.95 L 1324.34 1690.48 L 1323.42 1687.90 L 1322.38 1685.35 L 1320.43 1682.51 L 1319.47 1679.56 L 1318.63 1676.64 L 1316.86 1674.00 L 1315.44 1671.70 L 1314.04 1668.90 L 1313.48 1666.00 L 1311.54 1663.06 L 1310.51 1660.57 L 1309.41 1657.92 L 1308.16 1655.50 L 1306.80 1652.30 L 1305.36 1650.07 L 1303.97 1646.89 L 1303.01 1644.65 L 1301.91 1641.39 L 1300.21 1639.02 L 1299.09 1636.34 L 1297.92 1633.36 L 1296.62 1630.86 L 1295.00 1627.99 L 1293.80 1625.47 L 1292.60 1622.51 L 1291.20 1619.65 L 1290.31 1616.94 L 1288.87 1614.50 L 1287.40 1611.69 L 1286.26 1608.87 L 1285.17 1606.57 L 1283.99 1603.22 L 1282.44 1600.79 L 1281.27 1597.97 L 1279.84 1595.26 L 1278.48 1592.55 L 1277.58 1590.30 L 1276.01 1587.27 L 1274.62 1584.65 L 1273.44 1582.18 L 1272.11 1579.10 L 1270.81 1576.37 L 1269.55 1573.85 L 1268.61 1571.28 L 1267.13 1568.26 L 1265.80 1565.67 L 1264.23 1563.20 L 1263.74 1559.92 L 1262.21 1557.36 L 1260.56 1554.56 L 1259.80 1551.86 L 1258.42 1549.33 L 1256.69 1546.68 L 1255.84 1544.31 L 1254.37 1540.82 L 1253.39 1538.04 L 1251.87 1535.60 L 1250.55 1533.27 L 1248.98 1530.32 L 1247.91 1527.40 L 1246.56 1525.29 L 1245.54 1522.02 L 1244.17 1519.54 L 1242.91 1516.75 L 1241.21 1514.36 L 1240.56 1511.02 L 1239.05 1508.18 L 1237.62 1505.79 L 1236.50 1503.43 L 1235.20 1500.42 L 1234.05 1497.54 L 1232.51 1494.95 L 1231.69 1492.58 L 1230.14 1489.54 L 1228.84 1487.11 L 1227.39 1484.21 L 1226.75 1481.48 L 1225.15 1478.61 L 1223.69 1475.91 L 1222.39 1473.05 L 1220.81 1470.82 L 1220.17 1467.73 L 1218.35 1465.41 L 1217.53 1462.13 L 1216.23 1459.77 L 1214.73 1457.32 L 1213.76 1454.22 L 1212.11 1451.41 L 1210.87 1448.71 L 1209.36 1446.09 L 1208.93 1443.08 L 1207.01 1440.43 L 1205.69 1438.37 L 1204.56 1435.55 L 1203.25 1432.18 L 1201.99 1429.85 L 1200.80 1427.22 L 1199.49 1424.41 L 1198.19 1421.84 L 1197.13 1418.93 L 1196.19 1416.24 L 1194.42 1413.19 L 1193.01 1410.67 L 1192.10 1407.82 L 1190.39 1405.53 L 1189.17 1402.51 L 1188.00 1399.80 L 1186.93 1397.26 L 1185.47 1394.46 L 1183.86 1391.75 L 1182.85 1389.13 L 1181.54 1386.18 L 1180.28 1384.32 L 1178.77 1380.89 L 1177.96 1378.44 L 1176.46 1375.76 L 1175.25 1372.73 L 1174.37 1370.07 L 1173.05 1367.58 L 1171.67 1364.66 L 1170.21 1361.79 L 1168.81 1359.34 L 1167.84 1356.09 L 1166.61 1353.51 L 1165.21 1351.33 L 1163.64 1348.05 L 1162.26 1345.74 L 1161.36 1342.86 L 1159.96 1340.43 L 1158.46 1337.89 L 1157.49 1334.54 L 1156.13 1332.36 L 1154.61 1329.38 L 1153.64 1326.94 L 1152.52 1323.95 L 1150.99 1321.55 L 1149.40 1318.55 L 1148.57 1315.69 L 1147.36 1312.86 L 1145.93 1310.32 L 1144.54 1307.32 L 1143.31 1305.12 L 1142.37 1302.43 L 1140.85 1299.75 L 1139.50 1296.70 L 1138.42 1294.18 L 1137.22 1291.23 L 1135.36 1288.51 L 1134.57 1285.70 L 1133.08 1283.20 L 1131.91 1280.73 L 1131.07 1277.78 L 1129.29 1275.04 L 1127.99 1272.51 L 1127.13 1269.81 L 1125.34 1267.25 L 1124.24 1264.08 L 1122.84 1261.38 L 1121.71 1258.91 L 1120.44 1256.23 L 1119.58 1253.24 L 1117.83 1250.46 L 1116.27 1247.83 L 1115.46 1245.27 L 1114.01 1243.00 L 1112.76 1239.64 L 1111.51 1237.22 L 1110.16 1234.67 L 1108.78 1231.33 L 1107.70 1228.78 L 1105.86 1225.86 L 1105.13 1223.44 L 1103.43 1220.69 L 1102.62 1218.07 L 1101.17 1215.50 L 1099.96 1212.41 L 1098.83 1209.92 L 1097.47 1207.27 L 1096.03 1204.57 L 1094.71 1201.85 L 1093.95 1199.47 L 1092.38 1196.71 L 1091.04 1193.37 L 1089.58 1191.22 L 1088.42 1188.14 L 1087.14 1184.86 L 1085.43 1182.71 L 1084.52 1180.27 L 1083.52 1177.31 L 1081.99 1174.54 L 1080.92 1171.92 L 1079.42 1169.48 L 1078.48 1166.74 L 1077.26 1163.74 L 1075.84 1161.20 L 1074.47 1158.06 L 1073.09 1155.75 L 1072.15 1152.98 L 1070.50 1150.32 L 1069.52 1147.46 L 1068.18 1144.66 L 1066.72 1142.23 L 1065.61 1139.21 L 1063.89 1136.69 L 1063.13 1133.87 L 1061.59 1131.21 L 1060.34 1128.67 L 1059.02 1125.42 L 1058.12 1122.77 L 1056.40 1120.46 L 1055.08 1117.54 L 1053.70 1114.93 L 1052.92 1112.30 L 1051.13 1109.42 L 1049.79 1106.77 L 1049.06 1103.82 L 1047.60 1101.24 L 1045.99 1098.59 L 1044.88 1095.66 L 1044.33 1093.47 L 1042.67 1090.65 L 1041.23 1087.85 L 1039.81 1084.77 L 1038.57 1082.39 L 1037.68 1079.83 L 1036.30 1076.61 L 1034.88 1073.90 L 1033.43 1071.37 L 1032.18 1068.92 L 1031.01 1066.15 L 1030.07 1063.43 L 1028.72 1060.66 L 1027.40 1058.04 L 1025.81 1055.39 L 1024.79 1052.39 L 1023.71 1049.47 L 1021.69 1047.27 L 1020.61 1044.28 L 1019.49 1041.68 L 1018.32 1038.80 L 1017.02 1036.35 L 1015.50 1033.31 L 1014.32 1030.97 L 1013.12 1027.94 L 1011.39 1025.18 L 1010.81 1022.88 L 1009.11 1020.01 L 1008.29 1016.93 L 1006.91 1014.97 L 1005.40 1012.01 L 1004.36 1008.72 L 1003.08 1006.35 L 1001.78 1003.50 L 1000.51 1000.73 L 1000.00 1000.00 L 998.74 997.28 L 997.50 994.54 L 996.28 991.81 L 995.04 989.07 L 993.79 986.35 L 992.54 983.62 L 991.28 980.90 L 990.02 978.18 L 988.75 975.45 L 987.48 972.74 L 986.23 970.01 L 984.99 967.28 L 983.77 964.54 L 982.55 961.80 L 981.33 959.06 L 980.11 956.31 L 978.89 953.57 L 977.66 950.84 L 976.43 948.10 L 975.19 945.37 L 973.95 942.64 L 972.69 939.92 L 971.43 937.19 L 970.16 934.48 L 968.89 931.76 L 967.61 929.04 L 966.35 926.32 L 965.09 923.60 L 963.80 920.89 L 962.49 918.19 L 961.17 915.50 L 959.86 912.80 L 958.55 910.10 L 957.27 907.39 L 955.97 904.68 L 954.67 901.98 L 953.34 899.29 L 952.00 896.61 L 950.68 893.91 L 949.37 891.21 L 948.09 888.50 L 946.81 885.79 L 945.55 883.06 L 944.26 880.36 L 942.95 877.66 L 941.65 874.96 L 940.34 872.26 L 939.06 869.54 L 937.80 866.82 L 936.53 864.10 L 935.25 861.39 L 933.96 858.68 L 932.66 855.98 L 931.35 853.28 L 930.03 850.58 L 928.72 847.89 L 927.40 845.19 L 926.10 842.49 L 924.79 839.79 L 923.47 837.09 L 922.18 834.38 L 920.89 831.67 L 919.61 828.96 L 918.32 826.25 L 917.04 823.54 L 915.78 820.82 L 914.53 818.09 L 913.27 815.37 L 912.01 812.65 L 910.72 809.94 L 909.43 807.23 L 908.12 804.53 L 906.81 801.83 L 905.50 799.13 L 904.19 796.43 L 902.87 793.74 L 901.53 791.06 L 900.16 788.39 L 898.83 785.70 L 897.50 783.01 L 896.14 780.33 L 894.78 777.66 L 893.47 774.96 L 892.17 772.26 L 890.86 769.56 L 889.56 766.86 L 888.26 764.15 L 886.95 761.45 L 885.63 758.76 L 884.30 756.07 L 882.97 753.38 L 881.65 750.69 L 880.32 748.00 L 878.99 745.31 L 877.71 742.60 L 876.40 739.90 L 875.08 737.20 L 873.77 734.50 L 872.45 731.81 L 871.14 729.11 L 869.82 726.42 L 868.52 723.71 L 867.22 721.01 L 865.93 718.30 L 864.65 715.59 L 863.39 712.86 L 862.17 710.13 L 860.94 707.39 L 859.71 704.65 L 858.45 701.93 L 857.18 699.21 L 855.89 696.50 L 854.63 693.78 L 853.39 691.05 L 852.17 688.31 L 850.95 685.57 L 849.72 682.83 L 848.51 680.09 L 847.31 677.34 L 846.10 674.59 L 844.92 671.83 L 843.75 669.07 L 842.59 666.31 L 841.44 663.53 L 840.29 660.76 L 839.13 658.00 L 837.94 655.24 L 836.79 652.47 L 835.62 649.71 L 834.47 646.94 L 833.30 644.18 L 832.14 641.41 L 830.99 638.64 L 829.83 635.87 L 828.67 633.10 L 827.52 630.33 L 826.37 627.56 L 825.23 624.79 L 824.07 622.02 L 822.93 619.25 L 821.78 616.48 L 820.59 613.72 L 819.41 610.96 L 818.24 608.20 L 817.06 605.44 L 815.89 602.68 L 814.72 599.92 L 813.55 597.15 L 812.39 594.39 L 811.24 591.62 L 810.07 588.86 L 808.91 586.09 L 807.75 583.32 L 806.59 580.55 L 805.47 577.77 L 804.36 574.99 L 803.26 572.19 L 802.15 569.41 L 801.03 566.62 L 799.92 563.84 L 798.79 561.06 L 797.69 558.26 L 796.58 555.48 L 795.46 552.70 L 794.35 549.91 L 793.25 547.12 L 792.15 544.33 L 791.06 541.53 L 789.96 538.74 L 788.88 535.94 L 787.80 533.14 L 786.67 530.36 L 785.52 527.59 L 784.38 524.82 L 783.22 522.05 L 782.05 519.29 L 780.88 516.53 L 779.70 513.77 L 778.52 511.01 L 777.32 508.26 L 776.12 505.51 L 774.93 502.76 L 773.72 500.01 L 772.54 497.25 L 771.38 494.49 L 770.22 491.72 L 769.07 488.95 L 767.90 486.19 L 766.74 483.42 L 765.59 480.65 L 764.43 477.88 L 763.30 475.10 L 762.18 472.32 L 761.05 469.54 L 759.90 466.77 L 758.77 463.99 L 757.65 461.21 L 756.54 458.42 L 755.44 455.63 L 754.35 452.84 L 753.24 450.05 L 752.14 447.26 L 751.05 444.46 L 749.93 441.68 L 748.83 438.89 L 747.71 436.11 L 746.58 433.33 L 745.45 430.55 L 744.33 427.77 L 743.18 424.99 L 742.03 422.22 L 740.87 419.46 L 739.72 416.69 L 738.56 413.92 L 737.40 411.15 L 736.22 408.40 L 735.04 405.64 L 733.85 402.88 L 732.66 400.13 L 731.46 397.38 L 730.28 394.62 L 729.08 391.87 L 727.87 389.12 L 726.65 386.38 L 725.43 383.64 L 724.25 380.88 L 723.08 378.12 L 721.91 375.36 L 720.74 372.60 L 719.55 369.84 L 718.39 367.08 L 717.24 364.31 L 716.07 361.55 L 714.89 358.79 L 713.68 356.04 L 712.47 353.30 L 711.25 350.56 L 710.03 347.81 L 708.83 345.06 L 707.65 342.31 L 706.45 339.56 L 705.25 336.81 L 704.05 334.06 L 702.85 331.31 L 701.66 328.55 L 700.48 325.80 L 699.29 323.04 L 698.11 320.28 L 696.94 317.52 L 695.77 314.76 L 694.57 312.01 L 693.40 309.25 L 692.23 306.49 L 691.06 303.72 L 689.89 300.96 L 688.70 298.20 L 687.52 295.45 L 686.31 292.70 L 685.12 289.95 L 683.93 287.19 L 682.74 284.44 L 681.56 281.68 L 680.35 278.94 L 679.17 276.18 L 677.99 273.42 L 676.81 270.67 L 675.62 267.91 L 674.42 265.16 L 673.20 262.42 L 672.00 259.67 L 670.78 256.93 L 669.55 254.19 L 668.32 251.46 L 667.08 248.72 L 665.84 245.99 L 664.61 243.26 L 663.39 240.52 L 662.15 237.78 L 660.89 235.06 L 659.64 232.34 L 658.37 229.62 L 657.08 226.91 L 655.79 224.20 L 654.48 221.50 L 653.16 218.80 L 651.85 216.11 L 650.53 213.42 L 649.19 210.73 L 647.87 208.04 L 646.55 205.34 L 645.25 202.64 L 643.96 199.93 L 642.63 197.24 L 641.30 194.55 L 639.98 191.86 L 638.65 189.17 L 637.33 186.47 L 636.00 183.78 L 634.69 181.09 L 633.37 178.39 L 632.06 175.69 L 630.74 173.00 L 629.41 170.31 L 628.08 167.62 L 626.75 164.93 L 625.43 162.24 L 624.10 159.55 L 622.78 156.85 L 621.46 154.16 L 620.17 151.45 L 618.87 148.75 L 617.59 146.04 L 616.30 143.33 L 614.98 140.63 L 613.65 137.94 L 612.35 135.24 L 611.05 132.54 L 609.73 129.84 L 608.39 127.16 L 607.06 124.47 L 605.73 121.78 L 604.42 119.08 L 603.09 116.39 L 601.75 113.71 L 600.42 111.02 L 599.10 108.33 L 597.75 105.64 L 596.41 102.96 L 595.06 100.28 L 593.70 97.61 L 592.37 94.92 L 591.04 92.23 L 589.70 89.55 L 588.38 86.85 L 587.06 84.16 L 585.75 81.46 L 584.44 78.76 L 583.16 76.05 L 581.86 73.34 L 580.58 70.63 L 579.31 67.91 L 578.03 65.20 L 576.75 62.49 L 575.45 59.78 L 574.16 57.07 L 572.87 54.37 L 571.59 51.65 L 570.32 48.94 L 569.02 46.23 L 567.73 43.52 L 566.44 40.81 L 565.14 38.11 L 563.85 35.40 L 562.54 32.70 L 561.24 30.00 L 559.94 27.30 L 558.65 24.59 L 557.36 21.88 L 556.06 19.17 L 554.76 16.47 L 553.44 13.78 L 552.13 11.08 L 550.84 8.37 L 549.52 5.67 L 548.22 2.97 L 546.92 0.27 L 545.61 -2.43 L 544.31 -5.14 L 542.99 -7.83 L 541.67 -10.52 L 540.35 -13.21 L 539.01 -15.90 L 537.69 -18.59 L 536.37 -21.29" stroke="rgb(245,245,245)" stroke-opacity="0.708" stroke-width="1.11" />
  <path d="M 999.90 1005.36 L 998.53 1002.71 L 997.18 1000.06 L 995.83 997.43 L 994.46 994.82 L 993.09 992.23 L 991.75 989.62 L 990.40 987.04 L 989.12 984.44 L 987.83 981.84 L 986.59 979.24 L 985.35 976.66 L 984.10 974.09 L 982.85 971.53" stroke="rgb(140,255,190)" stroke-opacity="0.531" stroke-width="1.11" />
  <path d="M 963.75 922.58 L 963.58 920.24 L 963.37 917.83 L 963.15 915.43 L 962.88 913.04 L 962.53 910.66 L 962.17 908.30 L 961.89 905.94 L 961.73 903.56 L 961.52 901.22 L 961.32 898.88 L 961.13 896.55 L 960.89 894.22 L 960.65 891.90 L 960.41 889.63 L 960.32 887.40 L 960.07 885.14 L 959.83 882.89 L 959.68 880.64 L 959.63 878.39 L 959.83 876.21 L 960.17 874.03 L 960.49 871.86 L 960.77 869.69 L 961.07 867.50 L 961.32 865.30 L 961.55 863.09 L 961.83 860.91 L 962.05 858.75 L 962.36 856.59 L 962.68 854.48 L 962.89 852.39 L 963.18 850.35 L 963.47 848.30 L 963.81 846.27 L 964.16 844.26 L 964.40 842.29 L 964.49 840.28 L 964.58 838.26 L 964.69 836.25 L 964.79 834.24 L 964.94 832.25 L 965.04 830.27 L 965.20 828.32 L 965.45 826.38 L 965.70 824.44 L 965.98 822.52 L 966.26 820.65 L 966.61 818.77" stroke="rgb(140,255,190)" stroke-opacity="0.530" stroke-width="1.11" />
  <path d="M 1002.52 1001.84 L 1001.46 999.46 L 1000.33 997.12 L 999.21 994.78 L 998.02 992.49 L 996.84 990.21 L 995.67 987.93 L 994.45 985.69 L 993.24 983.45 L 992.00 981.24 L 990.75 979.04 L 989.56 976.82" stroke="rgb(140,255,190)" stroke-opacity="0.529" stroke-width="1.11" />
  <path d="M 802.98 748.29 L 800.93 746.74 L 798.89 745.20 L 796.84 743.63 L 794.71 742.20 L 792.59 740.82 L 790.47 739.47 L 788.33 738.10 L 786.08 736.89 L 783.83 735.63 L 781.64 734.42 L 779.45 733.22 L 777.27 732.02 L 775.07 730.96 L 772.89 729.87 L 770.72 728.71 L 768.57 727.57 L 766.44 726.43 L 764.36 725.26 L 762.32 724.06 L 760.24 722.95 L 758.15 721.86 L 756.07 720.73 L 753.99 719.57 L 751.91 718.52 L 749.88 717.46 L 747.87 716.34 L 745.85 715.24 L 743.82 714.17 L 741.82 713.11 L 739.83 712.07 L 737.84 711.01 L 735.86 709.96 L 733.92 708.87 L 731.98 707.83 L 730.04 706.79" stroke="rgb(140,255,190)" stroke-opacity="0.529" stroke-width="1.11" />
  <path d="M 978.40 965.29 L 978.15 962.81 L 977.89 960.35 L 977.64 957.93 L 977.39 955.50 L 977.11 953.04 L 976.84 950.61 L 976.57 948.20 L 976.41 945.76 L 976.19 943.35 L 975.89 940.95 L 975.51 938.53 L 975.07 936.12 L 974.64 933.72 L 974.21 931.32 L 973.80 928.95 L 973.47 926.56 L 973.13 924.17 L 972.79 921.80 L 972.36 919.46 L 971.88 917.15 L 971.48 914.83 L 971.08 912.49 L 970.75 910.15 L 970.41 907.85 L 970.13 905.57 L 969.85 903.30 L 969.66 901.06 L 969.49 898.85 L 969.34 896.65 L 969.20 894.46 L 969.05 892.28 L 968.88 890.12 L 968.70 887.98 L 968.48 885.84 L 968.27 883.71 L 968.06 881.61 L 967.91 879.54 L 967.75 877.51 L 967.60 875.49 L 967.46 873.46 L 967.27 871.39 L 967.20 869.29" stroke="rgb(140,255,190)" stroke-opacity="0.527" stroke-width="1.10" />
  <path d="M 967.46 873.46 L 967.55 871.38 L 967.64 869.30 L 967.77 867.20 L 967.91 865.07 L 967.92 862.94 L 967.99 861.00 L 968.08 859.07 L 968.16 857.15 L 968.14 855.14 L 968.12 853.12 L 968.11 851.13 L 968.11 849.19 L 968.10 847.27 L 968.12 845.40 L 968.14 843.54 L 968.18 841.66 L 968.21 839.79 L 968.28 838.04 L 968.31 836.34 L 968.25 834.85 L 968.12 833.37 L 968.00 831.90 L 967.85 830.35 L 967.64 828.84 L 967.41 827.31 L 967.27 825.77 L 967.12 824.25 L 966.93 822.79 L 966.78 821.34 L 966.45 819.88 L 966.11 818.43 L 965.64 817.08 L 965.15 815.76 L 964.60 814.48 L 963.95 813.28 L 963.30 812.08 L 962.66 810.83 L 962.04 809.57 L 961.39 808.30 L 960.73 807.01 L 960.14 805.75 L 959.55 804.50 L 958.90 803.28 L 958.20 802.14 L 957.50 800.98 L 956.85 799.81 L 956.30 798.68 L 955.78 797.59 L 955.26 796.48" stroke="rgb(140,255,190)" stroke-opacity="0.527" stroke-width="1.10" />
  <path d="M 999.77 998.71 L 998.64 996.35 L 997.51 994.02 L 996.40 991.69 L 995.41 989.34 L 994.44 986.99 L 993.43 984.64 L 992.58 982.27 L 991.81 979.85 L 991.07 977.43 L 990.30 975.02 L 989.56 972.65 L 988.84 970.29 L 988.17 967.92 L 987.48 965.55 L 986.80 963.15 L 986.06 960.81" stroke="rgb(140,255,190)" stroke-opacity="0.526" stroke-width="1.10" />
  <path d="M 947.17 915.27 L 945.28 913.22 L 943.32 911.22 L 941.35 909.25 L 939.49 907.22 L 937.71 905.15 L 935.95 903.08 L 934.17 901.06 L 932.40 899.02 L 930.59 897.04 L 928.76 895.10 L 926.81 893.28 L 924.89 891.44 L 923.01 889.56 L 921.12 887.69 L 919.19 885.91 L 917.29 884.09 L 915.42 882.29 L 913.56 880.47 L 911.72 878.66 L 909.80 876.93 L 907.92 875.15 L 906.07 873.35 L 904.29 871.51 L 902.52 869.67 L 900.74 867.85 L 899.10 865.96 L 897.50 864.06 L 895.91 862.17 L 894.42 860.25 L 892.94 858.27 L 891.49 856.26 L 890.04 854.25 L 888.59 852.27 L 887.08 850.36 L 885.55 848.45 L 884.09 846.50 L 882.65 844.54 L 881.22 842.57 L 879.80 840.61 L 878.39 838.66" stroke="rgb(140,255,190)" stroke-opacity="0.526" stroke-width="1.10" />
  <path d="M 968.60 950.75 L 966.26 949.00 L 963.96 947.22 L 961.70 945.42 L 959.44 943.63 L 957.20 941.83 L 954.95 940.06 L 952.71 938.31 L 950.49 936.55 L 948.25 934.85 L 946.02 933.16 L 943.77 931.50 L 941.55 929.82 L 939.29 928.21 L 937.08 926.55 L 934.89 924.89 L 932.72 923.24 L 930.57 921.54 L 928.44 919.85 L 926.36 918.10 L 924.28 916.37 L 922.20 914.67 L 920.12 912.98 L 918.01 911.37 L 915.94 909.72 L 913.89 908.05 L 911.93 906.31 L 910.01 904.52 L 908.10 902.74 L 906.20 900.97 L 904.37 899.13 L 902.55 897.28 L 900.70 895.50 L 898.85 893.71 L 897.00 891.96 L 895.17 890.19 L 893.34 888.45 L 891.56 886.65 L 889.75 884.91 L 887.93 883.19 L 886.11 881.49 L 884.29 879.79 L 882.45 878.13 L 880.55 876.55" stroke="rgb(140,255,190)" stroke-opacity="0.525" stroke-width="1.09" />
  <path d="M 977.19 931.99 L 976.78 929.41 L 976.36 926.84 L 975.94 924.28 L 975.57 921.72 L 975.20 919.18 L 974.96 916.62 L 974.77 914.06 L 974.45 911.53 L 974.17 909.01 L 973.81 906.51 L 973.40 904.03 L 972.99 901.57 L 972.63 899.11 L 972.20 896.69 L 971.78 894.27 L 971.66 891.82 L 971.50 889.37 L 971.48 886.94 L 971.48 884.50 L 971.47 882.08 L 971.39 879.66 L 971.40 877.25 L 971.40 874.85 L 971.26 872.46 L 971.13 870.08 L 970.94 867.71 L 970.77 865.36 L 970.62 863.02 L 970.44 860.68 L 970.28 858.35 L 970.16 856.04 L 969.99 853.73 L 969.83 851.43 L 969.79 849.14 L 969.77 846.85 L 969.70 844.57 L 969.67 842.31 L 969.73 840.06 L 969.80 837.81 L 969.86 835.57 L 969.83 833.35 L 969.80 831.14 L 969.76 828.93 L 969.74 826.74 L 969.69 824.55 L 969.68 822.38 L 969.71 820.21 L 969.71 818.05 L 969.67 815.89" stroke="rgb(140,255,190)" stroke-opacity="0.524" stroke-width="1.09" />
  <path d="M 960.61 938.76 L 959.21 936.97 L 957.95 935.13 L 956.65 933.32 L 955.31 931.52 L 954.00 929.70 L 952.78 927.88 L 951.55 926.07 L 950.28 924.31 L 949.01 922.56 L 947.74 920.83 L 946.47 919.10 L 945.20 917.45 L 944.02 915.77 L 942.82 914.10 L 941.55 912.46 L 940.29 910.77 L 939.06 909.04 L 937.90 907.26 L 936.73 905.51 L 935.65 903.81 L 934.59 902.12 L 933.62 900.30 L 932.74 898.53" stroke="rgb(140,255,190)" stroke-opacity="0.524" stroke-width="1.09" />
  <path d="M 999.93 999.70 L 1000.82 1001.74 L 1001.73 1003.77 L 1002.60 1005.81 L 1003.46 1007.85 L 1004.21 1009.91 L 1004.98 1011.95 L 1005.72 1013.99 L 1006.54 1016.00 L 1007.22 1018.05 L 1007.87 1020.09 L 1008.61 1022.09 L 1009.34 1024.08 L 1010.07 1026.07 L 1010.76 1028.06 L 1011.49 1030.03 L 1012.21 1031.99 L 1012.95 1033.94 L 1013.67 1035.88 L 1014.37 1037.82 L 1014.99 1039.78 L 1015.56 1041.75 L 1016.23 1043.67 L 1016.83 1045.60 L 1017.45 1047.52 L 1018.09 1049.42 L 1018.90 1051.26 L 1019.70 1053.09 L 1020.50 1054.91 L 1021.24 1056.75 L 1022.02 1058.56 L 1022.77 1060.36" stroke="rgb(205,165,255)" stroke-opacity="0.454" stroke-width="1.05" />
  <path d="M 999.19 999.00 L 999.15 997.04 L 999.05 995.06 L 999.01 993.07 L 999.04 991.08 L 999.11 989.02 L 999.11 986.98 L 999.08 984.96 L 999.05 982.94 L 998.98 980.91 L 998.92 978.92 L 998.93 976.93 L 998.80 974.92 L 998.68 972.91 L 998.57 970.92 L 998.46 968.89 L 998.33 966.85 L 998.17 964.81 L 998.00 962.77 L 997.80 960.74 L 997.53 958.73 L 997.25 956.70 L 997.05 954.68 L 996.85 952.67 L 996.66 950.66 L 996.43 948.68 L 996.18 946.71 L 995.94 944.77 L 995.68 942.83 L 995.50 940.89 L 995.31 938.96 L 995.10 937.02 L 994.99 935.07 L 994.88 933.13 L 994.71 931.20" stroke="rgb(205,165,255)" stroke-opacity="0.452" stroke-width="1.05" />
  <path d="M 1134.40 961.18 L 1136.13 959.99 L 1137.83 958.76 L 1139.51 957.51 L 1141.26 956.39 L 1143.01 955.27 L 1144.76 954.17 L 1146.47 953.02 L 1148.15 951.85 L 1149.83 950.68 L 1151.50 949.52 L 1153.19 948.39 L 1154.89 947.31 L 1156.55 946.18 L 1158.20 945.04 L 1159.89 943.98 L 1161.58 942.93 L 1163.14 941.72 L 1164.65 940.47 L 1166.10 939.14 L 1167.49 937.78 L 1168.88 936.41 L 1170.23 935.02 L 1171.56 933.62 L 1172.92 932.26 L 1174.25 930.88 L 1175.56 929.49 L 1176.82 928.07 L 1178.06 926.64 L 1179.29 925.21 L 1180.52 923.78 L 1181.69 922.33 L 1182.86 920.89 L 1184.05 919.46 L 1185.17 918.00 L 1186.27 916.52 L 1187.34 915.03 L 1188.43 913.57 L 1189.51 912.12 L 1190.66 910.72 L 1191.78 909.31 L 1192.89 907.91 L 1193.99 906.51 L 1195.06 905.09 L 1195.97 903.59 L 1196.96 902.13 L 1197.95 900.68 L 1199.01 899.28" stroke="rgb(205,165,255)" stroke-opacity="0.448" stroke-width="1.03" />
  <path d="M 996.96 1001.77 L 997.29 1003.23 L 997.61 1004.68 L 997.91 1006.13 L 998.22 1007.58 L 998.52 1009.02 L 998.81 1010.46 L 999.11 1011.89 L 999.44 1013.30 L 1000.04 1014.62 L 1000.59 1015.96" stroke="rgb(230,230,230)" stroke-opacity="0.386" stroke-width="0.71" />
  <path d="M 1000.34 994.90 L 1000.47 993.45 L 1000.61 992.01 L 1000.72 990.55 L 1001.11 989.17 L 1001.41 987.77 L 1001.71 986.38 L 1002.08 985.02 L 1002.54 983.69 L 1002.96 982.35 L 1003.36 981.03 L 1003.80 979.76 L 1004.24 978.50 L 1004.65 977.24 L 1005.10 975.98 L 1005.52 974.75 L 1005.92 973.54 L 1006.15 972.31" stroke="rgb(230,230,230)" stroke-opacity="0.385" stroke-width="0.71" />
  <path d="M 999.57 995.16 L 999.72 996.33 L 999.76 997.63 L 999.94 998.90 L 1000.10 1000.17 L 1000.25 1001.39 L 1000.41 1002.59 L 1000.56 1003.79 L 1000.50 1004.97" stroke="rgb(230,230,230)" stroke-opacity="0.385" stroke-width="0.71" />
  <path d="M 1002.90 997.82 L 1003.10 999.31 L 1003.30 1000.79 L 1003.39 1002.27 L 1003.48 1003.75 L 1003.48 1005.21 L 1003.38 1006.67 L 1003.20 1008.12 L 1002.86 1009.53 L 1002.58 1010.95" stroke="rgb(230,230,230)" stroke-opacity="0.381" stroke-width="0.70" />
  <path d="M 1001.61 997.01 L 1002.33 997.81 L 1003.09 998.59 L 1003.64 999.49 L 1004.20 1000.38 L 1004.67 1001.31 L 1005.04 1002.21" stroke="rgb(230,230,230)" stroke-opacity="0.380" stroke-width="0.70" />
  <path d="M 999.25 998.47 L 999.93 997.22 L 1000.56 995.91 L 1001.45 994.73 L 1002.42 993.65" stroke="rgb(230,230,230)" stroke-opacity="0.377" stroke-width="0.69" />
  <path d="M 1003.55 994.59 L 1004.67 995.58 L 1005.73 996.58 L 1006.79 997.59 L 1007.84 998.59 L 1008.82 999.59 L 1009.85 1000.56 L 1010.65 1001.70 L 1011.48 1002.83 L 1012.36 1003.93 L 1013.25 1005.01 L 1014.19 1006.02" stroke="rgb(230,230,230)" stroke-opacity="0.376" stroke-width="0.68" />
  <path d="M 1003.17 1001.69 L 1003.82 1002.27 L 1004.53 1002.74 L 1005.26 1003.16 L 1006.12 1003.56 L 1006.92 1003.94 L 1007.63 1004.37 L 1008.31 1004.67 L 1008.83 1005.05 L 1009.37 1005.38 L 1009.89 1005.85 L 1010.42 1006.37" stroke="rgb(230,230,230)" stroke-opacity="0.373" stroke-width="0.68" />
  <path d="M 1001.14 1005.37 L 1000.77 1004.65 L 1000.32 1003.98 L 999.71 1003.12 L 999.13 1002.22 L 998.26 1001.38 L 997.40 1000.57 L 996.59 999.74 L 995.75 998.88 L 994.98 998.05" stroke="rgb(230,230,230)" stroke-opacity="0.373" stroke-width="0.67" />
  <path d="M 1002.84 995.04 L 1002.17 996.37 L 1001.47 997.69 L 1000.78 999.01 L 1000.21 1000.37 L 999.67 1001.74 L 999.13 1003.11 L 998.59 1004.47 L 998.06 1005.83 L 997.32 1007.07 L 996.60 1008.32 L 995.89 1009.57 L 995.20 1010.82 L 994.36 1011.96" stroke="rgb(230,230,230)" stroke-opacity="0.364" stroke-width="0.65" />
  <path d="M 996.01 1001.47 L 995.98 1002.20 L 995.87 1002.95 L 995.79 1003.72" stroke="rgb(230,230,230)" stroke-opacity="0.363" stroke-width="0.65" />
  <path d="M 998.57 1001.95 L 999.13 1001.59 L 999.68 1001.30 L 1000.37 1001.10 L 1001.07 1000.76 L 1001.76 1000.40" stroke="rgb(230,230,230)" stroke-opacity="0.361" stroke-width="0.64" />
  <path d="M 994.97 997.98 L 995.87 996.88 L 996.83 995.78 L 997.79 994.67 L 998.74 993.62 L 999.70 992.58 L 1000.63 991.54 L 1001.58 990.48" stroke="rgb(230,230,230)" stroke-opacity="0.359" stroke-width="0.64" />
  <path d="M 1005.76 998.12 L 1004.33 998.56 L 1002.92 999.07 L 1001.76 999.98 L 1000.63 1000.93 L 999.44 1001.79 L 998.23 1002.63 L 997.05 1003.49 L 995.91 1004.40 L 994.87 1005.41" stroke="rgb(230,230,230)" stroke-opacity="0.356" stroke-width="0.63" />
  <path d="M 993.77 997.69 L 993.30 998.43 L 992.85 999.15 L 992.54 999.81 L 992.24 1000.46 L 991.92 1001.10 L 991.66 1001.75 L 991.39 1002.38" stroke="rgb(230,230,230)" stroke-opacity="0.356" stroke-width="0.63" />
  <path d="M 1003.20 996.33 L 1003.51 996.00 L 1003.92 995.67 L 1004.32 995.44 L 1004.64 995.32 L 1004.84 995.28 L 1005.05 995.11 L 1005.26 995.01" stroke="rgb(230,230,230)" stroke-opacity="0.354" stroke-width="0.62" />
  <path d="M 996.15 1002.58 L 996.93 1001.88 L 997.68 1001.19 L 998.45 1000.50 L 999.11 999.52 L 999.90 998.56 L 1000.64 997.63 L 1001.37 996.72" stroke="rgb(230,230,230)" stroke-opacity="0.350" stroke-width="0.61" />
  <path d="M 998.53 1004.56 L 997.55 1005.70 L 996.46 1006.71 L 995.37 1007.72 L 994.48 1008.90 L 993.65 1010.11 L 992.83 1011.32 L 991.95 1012.48 L 991.15 1013.70 L 990.35 1014.91 L 989.53 1016.09" stroke="rgb(230,230,230)" stroke-opacity="0.350" stroke-width="0.61" />
</g>
</svg>
