{
  "asset": {
    "version": "2.0",
    "generator": "TES-23 Cosmic Ray Renderer"
  },
  "extensionsUsed": [
    "KHR_materials_unlit"
  ],
  "extensionsRequired": [
    "KHR_materials_unlit"
  ],
  "scene": 0,
  "scenes": [
    {
      "nodes": [
        0
      ]
    }
  ],
  "nodes": [
    {
      "name": "CosmicRayEvent",
      "mesh": 0
    }
  ],
  "meshes": [
    {
      "name": "CosmicRayEvent",
      "primitives": [
        {
          "attributes": {
            "POSITION": 0
          },
          "material": 0,
          "mode": 1
        },
        {
          "attributes": {
            "POSITION": 1
          },
          "material": 1,
          "mode": 1
        },
        {
          "attributes": {
            "POSITION": 2
          },
          "material": 2,
          "mode": 1
        },
        {
          "attributes": {
            "POSITION": 3
          },
          "material": 3,
          "mode": 1
        },
        {
          "attributes": {
            "POSITION": 4
          },
          "material": 4,
          "mode": 1
        },
        {
          "attributes": {
            "POSITION": 5
          },
          "material": 5,
          "mode": 1
        }
      ]
    }
  ],
  "materials": [
    {
      "name": "primary",
      "extensions": {
        "KHR_materials_unlit": {}
      },
      "pbrMetallicRoughness": {
        "baseColorFactor": [
          0.961,
          0.961,
          0.961,
          1
        ],
        "metallicFactor": 0,
        "roughnessFactor": 1
      }
    },
    {
      "name": "vertex",
      "extensions": {
        "KHR_materials_unlit": {}
      },
      "pbrMetallicRoughness": {
        "baseColorFactor": [
          0.902,
          0.902,
          0.902,
          0.9
        ],
        "metallicFactor": 0,
        "roughnessFactor": 1
      }
    },
    {
      "name": "em",
      "extensions": {
        "KHR_materials_unlit": {}
      },
      "pbrMetallicRoughness": {
        "baseColorFactor": [
          0.471,
          0.824,
          1,
          1
        ],
        "metallicFactor": 0,
        "roughnessFactor": 1
      }
    },
    {
      "name": "hadron",
      "extensions": {
        "KHR_materials_unlit": {}
      },
      "pbrMetallicRoughness": {
        "baseColorFactor": [
          0.549,
          1,
          0.745,
          1
        ],
        "metallicFactor": 0,
        "roughnessFactor": 1
      }
    },
    {
      "name": "delta",
      "extensions": {
        "KHR_materials_unlit": {}
      },
      "pbrMetallicRoughness": {
        "baseColorFactor": [
          0.804,
          0.647,
          1,
          1
        ],
        "metallicFactor": 0,
        "roughnessFactor": 1
      }
    },
    {
      "name": "backscatter",
      "extensions": {
        "KHR_materials_unlit": {}
      },
      "pbrMetallicRoughness": {
        "baseColorFactor": [
          1,
          0.824,
          0.529,
          0.95
        ],
        "metallicFactor": 0,
        "roughnessFactor": 1
      }
    }
  ],
  "accessors": [
    {
      "bufferView": 0,
      "byteOffset": 0,
      "componentType": 5126,
      "count": 1804,
      "type": "VEC3",
      "min": [
        -1.020237684249878,
        -0.8909758925437927,
        0
      ],
      "max": [
        1.000224232673645,
        0.9063768982887268,
        0
      ]
    },
    {
      "bufferView": 1,
      "byteOffset": 0,
      "componentType": 5126,
      "count": 334,
      "type": "VEC3",
      "min": [
        -0.017218442633748055,
        -0.0167552400380373,
        -0.06902901828289032
      ],
      "max": [
        0.01597915031015873,
        0.009706338867545128,
        0.07437422126531601
      ]
    },
    {
      "bufferView": 2,
      "byteOffset": 0,
      "componentType": 5126,
      "count": 1380,
      "type": "VEC3",
      "min": [
        -0.20033051073551178,
        -0.0033354568295180798,
        -0.06881387531757355
      ],
      "max": [
        0.005084363278001547,
        0.1788942664861679,
        0.19090121984481812
      ]
    },
    {
      "bufferView": 3,
      "byteOffset": 0,
      "componentType": 5126,
      "count": 4074,
      "type": "VEC3",
      "min": [
        -0.3062293827533722,
        -0.004624791443347931,
        -0.853619396686554
      ],
      "max": [
        0.07489028573036194,
        0.2972269356250763,
        0.4565203785896301
      ]
    },
    {
      "bufferView": 4,
      "byteOffset": 0,
      "componentType": 5126,
      "count": 628,
      "type": "VEC3",
      "min": [
        -0.1801619678735733,
        -0.027861611917614937,
        -0.4978160560131073
      ],
      "max": [
        0.011419545859098434,
        0.040595900267362595,
        0.6959273815155029
      ]
    },
    {
      "bufferView": 5,
      "byteOffset": 0,
      "componentType": 5126,
      "count": 752,
      "type": "VEC3",
      "min": [
        -0.07850094139575958,
        -0.10917670279741287,
        -0.4083667993545532
      ],
      "max": [
        0.1324441134929657,
        0.034122034907341,
        0.21525155007839203
      ]
    }
  ],
  "bufferViews": [
    {
      "buffer": 0,
      "byteOffset": 0,
      "byteLength": 21648,
      "target": 34962
    },
    {
      "buffer": 0,
      "byteOffset": 21648,
      "byteLength": 4008,
      "target": 34962
    },
    {
      "buffer": 0,
      "byteOffset": 25656,
      "byteLength": 16560,
      "target": 34962
    },
    {
      "buffer": 0,
      "byteOffset": 42216,
      "byteLength": 48888,
      "target": 34962
    },
    {
      "buffer": 0,
      "byteOffset": 91104,
      "byteLength": 7536,
      "target": 34962
    },
    {
      "buffer": 0,
      "byteOffset": 98640,
      "byteLength": 9024,
      "target": 34962
    }
  ],
  "buffers": [
    {
      "byteLength": 107664,
      "uri": "data:application/octet-stream;base64,"
    }
  ]
}