{
  "asset": {
    "version": "2.0",
    "generator": "TES-23 Cosmic Ray Renderer"
  },
  "extensionsUsed": [
    "KHR_materials_unlit"
  ],
  "extensionsRequired": [
    "KHR_materials_unlit"
  ],
  "scene": 0,
  "scenes": [
    {
      "nodes": [
        0
      ]
    }
  ],
  "nodes": [
    {
      "name": "CosmicRayEvent",
      "mesh": 0
    }
  ],
  "meshes": [
    {
      "name": "CosmicRayEvent",
      "primitives": [
        {
          "attributes": {
            "POSITION": 0
          },
          "material": 0,
          "mode": 1
        },
        {
          "attributes": {
            "POSITION": 1
          },
          "material": 1,
          "mode": 1
        },
        {
          "attributes": {
            "POSITION": 2
          },
          "material": 2,
          "mode": 1
        },
        {
          "attributes": {
            "POSITION": 3
          },
          "material": 3,
          "mode": 1
        },
        {
          "attributes": {
            "POSITION": 4
          },
          "material": 4,
          "mode": 1
        }
      ]
    }
  ],
  "materials": [
    {
      "name": "primary",
      "extensions": {
        "KHR_materials_unlit": {}
      },
      "pbrMetallicRoughness": {
        "baseColorFactor": [
          0.961,
          0.961,
          0.961,
          1
        ],
        "metallicFactor": 0,
        "roughnessFactor": 1
      }
    },
    {
      "name": "vertex",
      "extensions": {
        "KHR_materials_unlit": {}
      },
      "pbrMetallicRoughness": {
        "baseColorFactor": [
          0.902,
          0.902,
          0.902,
          0.9
        ],
        "metallicFactor": 0,
        "roughnessFactor": 1
      }
    },
    {
      "name": "em",
      "extensions": {
        "KHR_materials_unlit": {}
      },
      "pbrMetallicRoughness": {
        "baseColorFactor": [
          0.471,
          0.824,
          1,
          1
        ],
        "metallicFactor": 0,
        "roughnessFactor": 1
      }
    },
    {
      "name": "hadron",
      "extensions": {
        "KHR_materials_unlit": {}
      },
      "pbrMetallicRoughness": {
        "baseColorFactor": [
          0.549,
          1,
          0.745,
          1
        ],
        "metallicFactor": 0,
        "roughnessFactor": 1
      }
    },
    {
      "name": "delta",
      "extensions": {
        "KHR_materials_unlit": {}
      },
      "pbrMetallicRoughness": {
        "baseColorFactor": [
          0.804,
          0.647,
          1,
          1
        ],
        "metallicFactor": 0,
        "roughnessFactor": 1
      }
    }
  ],
  "accessors": [
    {
      "bufferView": 0,
      "byteOffset": 0,
      "componentType": 5126,
      "count": 1356,
      "type": "VEC3",
      "min": [
        -1.0002177953720093,
        -0.106845423579216,
        0
      ],
      "max": [
        1.0203883647918701,
        0.1067158654332161,
        0
      ]
    },
    {
      "bufferView": 1,
      "byteOffset": 0,
      "componentType": 5126,
      "count": 802,
      "type": "VEC3",
      "min": [
        -0.017592517659068108,
        -0.025107529014348984,
        -0.09752447158098221
      ],
      "max": [
        0.01318948995321989,
        0.02334439568221569,
        0.07135680317878723
      ]
    },
    {
      "bufferView": 2,
      "byteOffset": 0,
      "componentType": 5126,
      "count": 1312,
      "type": "VEC3",
      "min": [
        -0.003475119825452566,
        -0.0035598252434283495,
        -0.2323523759841919
      ],
      "max": [
        0.319729745388031,
        0.06678829342126846,
        0.05443001165986061
      ]
    },
    {
      "bufferView": 3,
      "byteOffset": 0,
      "componentType": 5126,
      "count": 10364,
      "type": "VEC3",
      "min": [
        -0.004613244906067848,
        -0.07812508195638657,
        -0.6625611186027527
      ],
      "max": [
        0.46078750491142273,
        0.2566916346549988,
        0.8540979027748108
      ]
    },
    {
      "bufferView": 4,
      "byteOffset": 0,
      "componentType": 5126,
      "count": 2798,
      "type": "VEC3",
      "min": [
        -0.09631643444299698,
        -0.1665993332862854,
        -0.5674599409103394
      ],
      "max": [
        0.24095620214939117,
        0.11035766452550888,
        0.724806547164917
      ]
    }
  ],
  "bufferViews": [
    {
      "buffer": 0,
      "byteOffset": 0,
      "byteLength": 16272,
      "target": 34962
    },
    {
      "buffer": 0,
      "byteOffset": 16272,
      "byteLength": 9624,
      "target": 34962
    },
    {
      "buffer": 0,
      "byteOffset": 25896,
      "byteLength": 15744,
      "target": 34962
    },
    {
      "buffer": 0,
      "byteOffset": 41640,
      "byteLength": 124368,
      "target": 34962
    },
    {
      "buffer": 0,
      "byteOffset": 166008,
      "byteLength": 33576,
      "target": 34962
    }
  ],
  "buffers": [
    {
      "byteLength": 199584,
      "uri": "data:application/octet-stream;base64,"
    }
  ]
}