<?xml version="1.0" encoding="UTF-8"?>
<svg xmlns="http://www.w3.org/2000/svg" width="2000" height="2000" viewBox="0 0 2000 2000">
<g fill="none" stroke-linecap="round" stroke-linejoin="round">
  <path d="M 1000.63 999.64 L 1003.98 998.93 L 1007.33 998.22 L 1010.65 997.51 L 1013.97 996.81 L 1017.27 996.09 L 1020.56 995.39 L 1023.84 994.72 L 1027.11 994.06 L 1030.37 993.42 L 1033.62 992.80 L 1036.86 992.20 L 1040.10 991.65 L 1043.31 991.05 L 1046.51 990.43 L 1049.69 989.81 L 1052.86 989.17 L 1056.01 988.50 L 1059.14 987.84 L 1062.26 987.14 L 1065.35 986.41 L 1068.43 985.67 L 1071.50 984.95 L 1074.56 984.23 L 1077.60 983.52 L 1080.64 982.83 L 1083.66 982.12 L 1086.67 981.42 L 1089.66 980.71 L 1092.64 980.00 L 1095.60 979.27 L 1098.54 978.49 L 1101.47 977.71 L 1104.38 976.94 L 1107.28 976.16 L 1110.17 975.38 L 1113.05 974.62 L 1115.92 973.87 L 1118.78 973.13 L 1121.63 972.41 L 1124.48 971.70 L 1127.30 970.97 L 1130.12 970.25 L 1132.93 969.57 L 1135.73 968.87 L 1138.53 968.19 L 1141.32 967.53 L 1144.09 966.87 L 1146.86 966.22 L 1149.61 965.55 L 1152.35 964.89 L 1155.08 964.24 L 1157.81 963.62 L 1160.52 963.00 L 1163.23 962.39 L 1165.92 961.77" stroke="rgb(120,210,255)" stroke-opacity="0.855" stroke-width="1.64" />
  <path d="M 996.49 1000.12 L 999.76 999.81 L 1003.01 999.50 L 1006.26 999.19 L 1009.49 998.86 L 1012.69 998.46 L 1015.89 998.09 L 1019.08 997.77 L 1022.26 997.46 L 1025.43 997.14 L 1028.58 996.82 L 1031.71 996.51 L 1034.84 996.21 L 1037.95 995.88 L 1041.04 995.56 L 1044.12 995.20 L 1047.19 994.83 L 1050.24 994.46 L 1053.26 993.98 L 1056.28 993.53 L 1059.29 993.10 L 1062.28 992.63 L 1065.26 992.17 L 1068.22 991.73 L 1071.18 991.27 L 1074.11 990.79 L 1077.03 990.29 L 1079.94 989.83 L 1082.84 989.40 L 1085.73 988.97" stroke="rgb(120,210,255)" stroke-opacity="0.854" stroke-width="1.64" />
  <path d="M 997.14 1001.39 L 1000.48 1001.00 L 1003.81 1000.60 L 1007.13 1000.24 L 1010.43 999.83 L 1013.72 999.43 L 1017.00 999.04 L 1020.26 998.66 L 1023.51 998.26 L 1026.75 997.84 L 1029.97 997.43 L 1033.18 997.05 L 1036.38 996.70 L 1039.58 996.36 L 1042.75 995.96 L 1045.91 995.58 L 1049.05 995.21 L 1052.19 994.88 L 1055.32 994.53 L 1058.42 994.17 L 1061.52 993.81 L 1064.61 993.52 L 1067.68 993.22" stroke="rgb(120,210,255)" stroke-opacity="0.853" stroke-width="1.63" />
  <path d="M 1000.11 997.76 L 1003.38 997.12 L 1006.64 996.48 L 1009.88 995.83 L 1013.12 995.20 L 1016.34 994.58 L 1019.55 993.98 L 1022.75 993.38 L 1025.94 992.79 L 1029.11 992.21 L 1032.28 991.64 L 1035.43 991.08 L 1038.57 990.50 L 1041.68 989.87 L 1044.78 989.25 L 1047.87 988.62 L 1050.96 988.05 L 1054.03 987.44 L 1057.08 986.83 L 1060.12 986.21 L 1063.15 985.63 L 1066.17 985.04 L 1069.19 984.51 L 1072.20 984.02 L 1075.21 983.57 L 1078.20 983.08 L 1081.17 982.58 L 1084.14 982.08 L 1087.10 981.68 L 1090.06 981.31 L 1093.00 980.96 L 1095.94 980.62 L 1098.87 980.31 L 1101.78 980.00 L 1104.68 979.65 L 1107.57 979.30 L 1110.45 978.96 L 1113.31 978.61 L 1116.17 978.32 L 1119.01 977.96 L 1121.84 977.60 L 1124.66 977.26 L 1127.48 977.02 L 1130.28 976.75 L 1133.07 976.48 L 1135.85 976.19" stroke="rgb(120,210,255)" stroke-opacity="0.853" stroke-width="1.63" />
  <path d="M 1068.37 987.26 L 1071.83 987.08 L 1075.27 986.94 L 1078.70 986.79 L 1082.12 986.63 L 1085.52 986.43 L 1088.91 986.22 L 1092.29 986.01 L 1095.65 985.77 L 1098.99 985.45 L 1102.33 985.17 L 1105.65 984.88 L 1108.95 984.60 L 1112.24 984.35 L 1115.52 984.11 L 1118.78 983.91 L 1122.04 983.68 L 1125.28 983.46 L 1128.50 983.21 L 1131.71 983.00 L 1134.91 982.73 L 1138.09 982.41 L 1141.24 982.05 L 1144.39 981.71 L 1147.53 981.34 L 1150.66 981.01 L 1153.78 980.64 L 1156.88 980.27 L 1159.97 979.89 L 1163.05 979.50" stroke="rgb(120,210,255)" stroke-opacity="0.852" stroke-width="1.63" />
  <path d="M 1000.95 999.15 L 1004.27 998.67 L 1007.58 998.19 L 1010.87 997.69 L 1014.16 997.29 L 1017.43 996.86 L 1020.69 996.45 L 1023.93 996.03 L 1027.16 995.70 L 1030.39 995.37 L 1033.59 995.04 L 1036.78 994.67 L 1039.96 994.36 L 1043.12 994.04 L 1046.27 993.77 L 1049.41 993.50 L 1052.53 993.23 L 1055.65 992.96 L 1058.75 992.67 L 1061.85 992.38 L 1064.93 992.01 L 1067.99 991.63 L 1071.05 991.31 L 1074.09 990.99 L 1077.14 990.74 L 1080.17 990.52 L 1083.19 990.30 L 1086.19 990.07 L 1089.19 989.87 L 1092.17 989.62 L 1095.15 989.38 L 1098.11 989.19 L 1101.06 988.99 L 1104.01 988.83 L 1106.95 988.67" stroke="rgb(120,210,255)" stroke-opacity="0.852" stroke-width="1.63" />
  <path d="M 1064.30 991.71 L 1067.58 991.39 L 1070.84 991.10 L 1074.08 990.76 L 1077.30 990.38 L 1080.50 990.00 L 1083.70 989.70 L 1086.88 989.37 L 1090.05 989.05 L 1093.21 988.74 L 1096.37 988.45 L 1099.51 988.18 L 1102.63 987.91 L 1105.74 987.60 L 1108.84 987.29 L 1111.91 986.96 L 1114.97 986.63 L 1118.01 986.29 L 1121.03 985.96 L 1124.04 985.63 L 1127.04 985.28 L 1130.01 984.82 L 1132.98 984.37 L 1135.93 983.93 L 1138.87 983.48 L 1141.78 983.04 L 1144.66 982.57 L 1147.53 982.11 L 1150.38 981.67 L 1153.22 981.33 L 1156.06 980.95 L 1158.91 980.64 L 1161.71 980.29 L 1164.50 979.94 L 1167.25 979.52 L 1169.99 979.20 L 1172.73 978.89 L 1175.45 978.53 L 1178.15 978.14 L 1180.85 977.83 L 1183.56 977.48 L 1186.26 977.11 L 1188.96 976.77 L 1191.65 976.42 L 1194.32 976.03 L 1196.98 975.66 L 1199.63 975.31 L 1202.24 974.90 L 1204.86 974.51 L 1207.46 974.12 L 1210.06 973.77 L 1212.65 973.46 L 1215.23 973.17 L 1217.79 972.88 L 1220.33 972.60 L 1222.86 972.28 L 1225.37 971.97 L 1227.88 971.66 L 1230.39 971.27 L 1232.88 970.90 L 1235.35 970.53 L 1237.78 970.18 L 1240.19 969.80 L 1242.59 969.43 L 1244.98 969.06 L 1247.36 968.70 L 1249.75 968.40 L 1252.13 968.03 L 1254.50 967.66 L 1256.85 967.29 L 1259.19 966.91 L 1261.52 966.56 L 1263.84 966.21" stroke="rgb(120,210,255)" stroke-opacity="0.851" stroke-width="1.63" />
  <path d="M 998.13 1001.56 L 1001.42 1001.09 L 1004.69 1000.59 L 1007.95 1000.10 L 1011.19 999.60 L 1014.40 999.01 L 1017.60 998.45 L 1020.79 997.90 L 1023.97 997.35 L 1027.13 996.81 L 1030.30 996.36 L 1033.46 995.93 L 1036.61 995.54 L 1039.74 995.14 L 1042.86 994.72 L 1045.96 994.25 L 1049.05 993.83 L 1052.12 993.36 L 1055.18 992.95 L 1058.23 992.54 L 1061.27 992.13 L 1064.30 991.71 L 1067.33 991.33 L 1070.33 990.89 L 1073.32 990.43 L 1076.30 990.01 L 1079.27 989.61 L 1082.23 989.14 L 1085.17 988.72 L 1088.11 988.31 L 1091.03 987.85 L 1093.94 987.40 L 1096.83 986.91" stroke="rgb(120,210,255)" stroke-opacity="0.850" stroke-width="1.62" />
  <path d="M 1082.11 991.99 L 1085.38 992.03 L 1088.64 992.03 L 1091.88 991.98 L 1095.12 991.92 L 1098.33 991.83 L 1101.54 991.79 L 1104.73 991.77 L 1107.91 991.71 L 1111.08 991.66 L 1114.23 991.56 L 1117.36 991.46 L 1120.47 991.31 L 1123.59 991.16 L 1126.69 991.07 L 1129.78 991.00 L 1132.85 990.88 L 1135.91 990.79 L 1138.96 990.64 L 1141.99 990.44" stroke="rgb(120,210,255)" stroke-opacity="0.846" stroke-width="1.61" />
  <path d="M 1000.56 1003.37 L 1003.53 1002.98 L 1006.50 1002.61 L 1009.46 1002.25 L 1012.40 1001.89 L 1015.34 1001.54 L 1018.25 1001.14 L 1021.16 1000.72 L 1024.04 1000.29 L 1026.93 999.94 L 1029.80 999.60 L 1032.66 999.25 L 1035.52 998.90 L 1038.35 998.50 L 1041.17 998.08 L 1043.97 997.64 L 1046.76 997.21 L 1049.55 996.78 L 1052.32 996.35 L 1055.07 995.89 L 1057.83 995.55 L 1060.57 995.21 L 1063.30 994.83 L 1066.02 994.41 L 1068.73 994.03 L 1071.43 993.63 L 1074.11 993.21 L 1076.79 992.79 L 1079.45 992.38 L 1082.11 991.99 L 1084.75 991.61 L 1087.39 991.21 L 1090.01 990.84 L 1092.63 990.46 L 1095.24 990.11 L 1097.83 989.73 L 1100.41 989.33 L 1102.96 988.84 L 1105.51 988.41 L 1108.06 987.99 L 1110.59 987.58 L 1113.11 987.17 L 1115.63 986.78 L 1118.12 986.32 L 1120.60 985.88 L 1123.06 985.37 L 1125.50 984.83 L 1127.93 984.30 L 1130.37 983.79 L 1132.80 983.34 L 1135.23 982.90 L 1137.66 982.51 L 1140.07 982.10 L 1142.47 981.70 L 1144.86 981.30 L 1147.25 980.96 L 1149.63 980.63 L 1152.00 980.30 L 1154.34 979.89 L 1156.67 979.44 L 1158.98 979.00 L 1161.29 978.57 L 1163.59 978.19 L 1165.89 977.80 L 1168.17 977.31 L 1170.44 976.83 L 1172.69 976.36 L 1174.94 975.90 L 1177.18 975.46" stroke="rgb(120,210,255)" stroke-opacity="0.465" stroke-width="1.61" />
  <path d="M 1063.82 990.57 L 1066.81 989.81 L 1069.80 989.10 L 1072.77 988.34 L 1075.72 987.58 L 1078.68 986.91 L 1081.64 986.25 L 1084.55 985.55 L 1087.46 984.86 L 1090.33 984.08 L 1093.20 983.33 L 1096.07 982.64 L 1098.93 981.97 L 1101.77 981.24 L 1104.60 980.51 L 1107.42 979.79 L 1110.24 979.06" stroke="rgb(120,210,255)" stroke-opacity="0.464" stroke-width="1.60" />
  <path d="M 1063.85 988.02 L 1067.25 988.19 L 1070.64 988.36 L 1074.02 988.51 L 1077.38 988.61 L 1080.73 988.69 L 1084.07 988.79 L 1087.39 988.84 L 1090.70 988.89 L 1094.00 988.93 L 1097.28 988.92 L 1100.54 988.91 L 1103.80 988.90 L 1107.04 988.88 L 1110.26 988.85 L 1113.48 988.84 L 1116.68 988.82 L 1119.87 988.84 L 1123.04 988.89 L 1126.20 988.96 L 1129.35 989.05 L 1132.49 989.13 L 1135.61 989.21 L 1138.71 989.33 L 1141.81 989.42 L 1144.89 989.51 L 1147.96 989.55 L 1151.03 989.55 L 1154.08 989.54 L 1157.11 989.46 L 1160.13 989.44 L 1163.13 989.42 L 1166.12 989.39 L 1169.10 989.32 L 1172.08 989.28 L 1175.04 989.29 L 1177.99 989.30 L 1180.92 989.27 L 1183.84 989.23 L 1186.76 989.21 L 1189.67 989.22 L 1192.57 989.23 L 1195.45 989.24 L 1198.32 989.31 L 1201.18 989.40 L 1204.02 989.47 L 1206.86 989.56 L 1209.67 989.62 L 1212.48 989.68 L 1215.28 989.76 L 1218.06 989.83 L 1220.82 989.94 L 1223.57 990.03 L 1226.30 990.12 L 1229.03 990.19 L 1231.74 990.24 L 1234.43 990.28 L 1237.11 990.35 L 1239.78 990.36 L 1242.44 990.41 L 1245.08 990.47 L 1247.72 990.60 L 1250.34 990.75 L 1252.96 990.89 L 1255.56 991.02 L 1258.16 991.14 L 1260.75 991.26 L 1263.32 991.36" stroke="rgb(120,210,255)" stroke-opacity="0.843" stroke-width="1.60" />
  <path d="M 1001.72 1000.84 L 1005.17 1000.32 L 1008.59 999.76 L 1012.01 999.20 L 1015.41 998.69 L 1018.80 998.17 L 1022.18 997.66 L 1025.54 997.12 L 1028.89 996.61 L 1032.22 996.08 L 1035.54 995.54 L 1038.85 995.06 L 1042.14 994.56 L 1045.43 994.11 L 1048.71 993.65 L 1051.97 993.21 L 1055.22 992.75 L 1058.46 992.29 L 1061.68 991.85 L 1064.90 991.42 L 1068.10 991.01 L 1071.29 990.59 L 1074.46 990.16 L 1077.62 989.73 L 1080.77 989.30 L 1083.91 988.88" stroke="rgb(120,210,255)" stroke-opacity="0.842" stroke-width="1.60" />
  <path d="M 1041.76 994.27 L 1044.93 994.18 L 1048.08 994.06 L 1051.22 993.95 L 1054.35 993.83 L 1057.46 993.60 L 1060.56 993.44 L 1063.65 993.28 L 1066.72 993.14 L 1069.79 993.03 L 1072.84 992.91 L 1075.88 992.71 L 1078.91 992.62 L 1081.92 992.55 L 1084.93 992.49 L 1087.92 992.28 L 1090.89 992.01 L 1093.85 991.74 L 1096.80 991.56 L 1099.73 991.32 L 1102.66 991.09 L 1105.57 990.87 L 1108.48 990.73 L 1111.38 990.58 L 1114.26 990.42 L 1117.14 990.29 L 1120.00 990.16 L 1122.85 990.02 L 1125.69 989.86 L 1128.52 989.79 L 1131.34 989.74 L 1134.14 989.69 L 1136.93 989.63 L 1139.71 989.58 L 1142.49 989.51 L 1145.25 989.45 L 1147.99 989.39 L 1150.72 989.29 L 1153.44 989.15 L 1156.15 988.97 L 1158.85 988.79 L 1161.54 988.62 L 1164.22 988.42 L 1166.89 988.18 L 1169.54 987.99 L 1172.19 987.72 L 1174.82 987.46 L 1177.44 987.23 L 1180.05 986.96 L 1182.65 986.69 L 1185.24 986.42 L 1187.82 986.17 L 1190.39 985.90 L 1192.95 985.61 L 1195.49 985.32 L 1198.03 985.02 L 1200.55 984.69 L 1203.05 984.33 L 1205.54 983.92 L 1208.01 983.50 L 1210.48 983.15 L 1212.94 982.79 L 1215.38 982.36 L 1217.80 981.94 L 1220.23 981.59 L 1222.64 981.25 L 1225.04 980.92 L 1227.44 980.63 L 1229.84 980.37 L 1232.23 980.09 L 1234.61 979.79 L 1236.97 979.48 L 1239.31 979.14 L 1241.64 978.83 L 1243.98 978.61 L 1246.30 978.39 L 1248.62 978.17 L 1250.94 977.94 L 1253.24 977.73" stroke="rgb(120,210,255)" stroke-opacity="0.841" stroke-width="1.60" />
  <path d="M 1038.13 996.31 L 1041.63 996.39 L 1045.11 996.43 L 1048.57 996.44 L 1052.02 996.48 L 1055.46 996.55 L 1058.88 996.58 L 1062.29 996.59 L 1065.69 996.56 L 1069.08 996.57 L 1072.45 996.60 L 1075.80 996.68 L 1079.14 996.85 L 1082.46 997.04 L 1085.77 997.30 L 1089.06 997.59 L 1092.34 997.81 L 1095.62 998.02 L 1098.87 998.18 L 1102.12 998.34 L 1105.36 998.49 L 1108.58 998.64 L 1111.79 998.78 L 1114.98 998.94 L 1118.16 999.11 L 1121.33 999.25 L 1124.49 999.39 L 1127.64 999.53 L 1130.77 999.63 L 1133.89 999.74 L 1137.00 999.86 L 1140.09 999.98 L 1143.18 1000.08 L 1146.25 1000.19 L 1149.31 1000.28 L 1152.36 1000.35 L 1155.39 1000.39 L 1158.42 1000.42 L 1161.43 1000.40 L 1164.43 1000.37 L 1167.42 1000.34 L 1170.40 1000.32 L 1173.36 1000.23 L 1176.31 1000.22 L 1179.25 1000.19 L 1182.18 1000.16 L 1185.10 1000.13 L 1188.00 1000.09 L 1190.90 1000.06 L 1193.78 1000.01 L 1196.65 999.95 L 1199.51 999.93 L 1202.36 999.92 L 1205.19 999.91 L 1208.01 999.90 L 1210.83 999.89 L 1213.63 999.88 L 1216.42 999.88 L 1219.20 999.90 L 1221.97 999.92 L 1224.72 999.99 L 1227.47 1000.07 L 1230.20 1000.13 L 1232.93 1000.14 L 1235.64 1000.12 L 1238.35 1000.10 L 1241.04 1000.09 L 1243.72 1000.09 L 1246.39 1000.03 L 1249.04 999.96" stroke="rgb(120,210,255)" stroke-opacity="0.840" stroke-width="1.59" />
  <path d="M 997.12 999.53 L 1000.47 999.07 L 1003.81 998.61 L 1007.14 998.16 L 1010.45 997.69 L 1013.75 997.24 L 1017.03 996.78 L 1020.31 996.34 L 1023.57 995.89 L 1026.82 995.47 L 1030.05 995.06 L 1033.28 994.64 L 1036.49 994.23 L 1039.69 993.87 L 1042.88 993.51 L 1046.07 993.18 L 1049.23 992.83 L 1052.39 992.48 L 1055.52 992.10 L 1058.65 991.76 L 1061.77 991.41 L 1064.88 991.08 L 1067.97 990.73 L 1071.04 990.36 L 1074.11 990.03 L 1077.17 989.71 L 1080.21 989.40 L 1083.25 989.09 L 1086.27 988.79 L 1089.28 988.50 L 1092.28 988.21 L 1095.26 987.93 L 1098.24 987.64 L 1101.20 987.36 L 1104.15 987.12 L 1107.09 986.88 L 1110.02 986.69 L 1112.93 986.48 L 1115.84 986.28 L 1118.74 986.10 L 1121.62 985.91 L 1124.50 985.75 L 1127.36 985.59" stroke="rgb(120,210,255)" stroke-opacity="0.840" stroke-width="1.59" />
  <path d="M 998.35 997.06 L 1001.62 996.55 L 1004.88 996.03 L 1008.13 995.58 L 1011.36 995.13 L 1014.59 994.68 L 1017.79 994.19 L 1020.98 993.67 L 1024.14 993.12 L 1027.30 992.54 L 1030.43 991.94 L 1033.55 991.34 L 1036.66 990.75 L 1039.76 990.16 L 1042.83 989.54 L 1045.90 988.91 L 1048.95 988.28 L 1051.99 987.68 L 1055.01 987.05 L 1058.03 986.44 L 1061.04 985.87 L 1064.04 985.34 L 1067.04 984.82 L 1070.02 984.31 L 1072.99 983.78 L 1075.95 983.26 L 1078.90 982.76 L 1081.84 982.27 L 1084.77 981.79 L 1087.69 981.32 L 1090.59 980.79 L 1093.47 980.26 L 1096.35 979.73 L 1099.21 979.20 L 1102.06 978.69 L 1104.91 978.19 L 1107.74 977.67 L 1110.55 977.15 L 1113.34 976.57 L 1116.13 976.00 L 1118.90 975.45 L 1121.68 975.00 L 1124.46 974.59 L 1127.22 974.17 L 1129.97 973.75 L 1132.72 973.36 L 1135.45 972.98 L 1138.18 972.64 L 1140.90 972.29" stroke="rgb(120,210,255)" stroke-opacity="0.839" stroke-width="1.59" />
  <path d="M 995.51 1000.44 L 998.91 1000.06 L 1002.29 999.66 L 1005.66 999.25 L 1009.02 998.85 L 1012.36 998.44 L 1015.69 998.02 L 1018.99 997.55 L 1022.28 997.03 L 1025.55 996.56 L 1028.82 996.09 L 1032.07 995.63 L 1035.32 995.18 L 1038.55 994.74 L 1041.76 994.27 L 1044.95 993.77 L 1048.14 993.27 L 1051.30 992.76 L 1054.45 992.23 L 1057.59 991.69 L 1060.71 991.12 L 1063.82 990.57 L 1066.91 990.03 L 1070.00 989.50 L 1073.07 988.96" stroke="rgb(120,210,255)" stroke-opacity="0.839" stroke-width="1.59" />
  <path d="M 1052.12 993.36 L 1054.80 992.84 L 1057.48 992.36 L 1060.13 991.80 L 1062.77 991.23 L 1065.41 990.70 L 1068.02 990.10 L 1070.61 989.48 L 1073.20 988.86 L 1075.81 988.31 L 1078.41 987.73 L 1080.99 987.14 L 1083.56 986.57 L 1086.09 985.87 L 1088.62 985.25 L 1091.11 984.50 L 1093.54 983.63 L 1095.95 982.79 L 1098.40 982.05 L 1100.79 981.19 L 1103.16 980.33 L 1105.52 979.45 L 1107.88 978.60 L 1110.19 977.64 L 1112.50 976.70 L 1114.84 975.85 L 1117.16 974.94 L 1119.46 974.03 L 1121.75 973.11 L 1124.04 972.18" stroke="rgb(120,210,255)" stroke-opacity="0.455" stroke-width="1.55" />
  <path d="M 996.58 998.94 L 999.13 998.69 L 1001.67 998.43 L 1004.19 998.04 L 1006.70 997.67 L 1009.20 997.30 L 1011.70 996.95 L 1014.19 996.65 L 1016.67 996.34 L 1019.14 996.02 L 1021.59 995.68 L 1024.03 995.27 L 1026.47 994.93 L 1028.88 994.53 L 1031.30 994.18 L 1033.70 993.78 L 1036.09 993.42 L 1038.46 992.97 L 1040.82 992.52 L 1043.15 991.99 L 1045.47 991.45 L 1047.78 990.90 L 1050.09 990.43 L 1052.39 989.96 L 1054.68 989.48 L 1056.98 989.08 L 1059.27 988.66 L 1061.56 988.32 L 1063.85 988.02 L 1066.11 987.64 L 1068.37 987.26 L 1070.62 986.86 L 1072.86 986.48 L 1075.08 986.06 L 1077.30 985.69 L 1079.51 985.35 L 1081.71 984.94 L 1083.91 984.59 L 1086.10 984.24 L 1088.28 983.92 L 1090.45 983.60 L 1092.62 983.31 L 1094.79 983.02 L 1096.94 982.76 L 1099.09 982.50 L 1101.23 982.26 L 1103.36 982.06 L 1105.49 981.90 L 1107.61 981.72 L 1109.71 981.47 L 1111.80 981.25 L 1113.89 981.03 L 1115.97 980.78 L 1118.01 980.35 L 1120.05 979.92" stroke="rgb(120,210,255)" stroke-opacity="0.445" stroke-width="1.50" />
  <path d="M 1000.27 999.95 L 1002.71 999.69 L 1005.14 999.45 L 1007.57 999.26 L 1009.99 999.07 L 1012.39 998.89 L 1014.79 998.68 L 1017.17 998.46 L 1019.55 998.28 L 1021.90 997.95 L 1024.24 997.62 L 1026.57 997.28 L 1028.89 996.91 L 1031.21 996.64 L 1033.52 996.47 L 1035.83 996.39 L 1038.13 996.31 L 1040.43 996.20 L 1042.71 996.08 L 1044.99 995.93 L 1047.25 995.71 L 1049.50 995.52 L 1051.74 995.32 L 1053.97 995.11 L 1056.20 994.92 L 1058.42 994.72 L 1060.63 994.50 L 1062.83 994.29 L 1065.01 994.05 L 1067.19 993.94 L 1069.37 993.85 L 1071.54 993.74 L 1073.69 993.61 L 1075.85 993.54 L 1077.99 993.49 L 1080.13 993.43 L 1082.26 993.43 L 1084.38 993.46 L 1086.49 993.49 L 1088.60 993.58 L 1090.69 993.67 L 1092.78 993.75 L 1094.85 993.90 L 1096.91 994.03 L 1098.97 994.05 L 1101.01 994.09" stroke="rgb(120,210,255)" stroke-opacity="0.444" stroke-width="1.50" />
  <path d="M 998.82 998.23 L 1001.01 997.85 L 1003.19 997.51 L 1005.38 997.24 L 1007.57 997.00 L 1009.73 996.67 L 1011.90 996.44 L 1014.05 996.20 L 1016.20 995.96 L 1018.33 995.77" stroke="rgb(140,255,190)" stroke-opacity="0.572" stroke-width="1.25" />
  <path d="M 999.99 1001.24 L 1002.19 1000.84 L 1004.37 1000.43 L 1006.52 999.92 L 1008.65 999.38 L 1010.78 998.87 L 1012.85 998.16 L 1014.90 997.45 L 1016.95 996.75 L 1018.96 996.04 L 1020.94 995.28 L 1022.85 994.41 L 1024.75 993.55 L 1026.63 992.65 L 1028.47 991.67 L 1030.31 990.72 L 1032.15 989.77 L 1033.92 988.78 L 1035.70 987.79 L 1037.46 986.77 L 1039.23 985.78 L 1041.04 984.88 L 1042.84 984.00 L 1044.65 983.12 L 1046.45 982.25 L 1048.21 981.30 L 1049.98 980.38 L 1051.75 979.48 L 1053.50 978.57 L 1055.31 977.78 L 1057.13 977.05 L 1058.93 976.30 L 1060.73 975.60 L 1062.48 974.83 L 1064.27 974.12 L 1066.05 973.41 L 1067.82 972.70 L 1069.60 972.05 L 1071.36 971.40 L 1073.11 970.73 L 1074.87 970.14 L 1076.60 969.53 L 1078.30 968.94 L 1079.97 968.31 L 1081.66 967.70 L 1083.35 967.09 L 1085.00 966.39 L 1086.62 965.68 L 1088.28 965.01 L 1089.95 964.41 L 1091.69 963.97 L 1093.43 963.53 L 1095.18 963.23 L 1096.93 962.87 L 1098.67 962.52 L 1100.41 962.17 L 1102.13 961.79 L 1103.80 961.29 L 1105.47 960.77 L 1107.14 960.28 L 1108.80 959.81 L 1110.45 959.37 L 1112.09 958.98 L 1113.73 958.59 L 1115.37 958.24 L 1117.00 957.89" stroke="rgb(140,255,190)" stroke-opacity="0.569" stroke-width="1.24" />
  <path d="M 1074.16 1027.91 L 1076.21 1030.65 L 1078.28 1033.35 L 1080.34 1036.05 L 1082.38 1038.74 L 1084.42 1041.41 L 1086.44 1044.10 L 1088.44 1046.78 L 1090.43 1049.47 L 1092.41 1052.15 L 1094.39 1054.82 L 1096.29 1057.53 L 1098.19 1060.21 L 1100.09 1062.88 L 1101.96 1065.56 L 1103.78 1068.24 L 1105.60 1070.91 L 1107.42 1073.57 L 1109.26 1076.21 L 1111.10 1078.84 L 1112.94 1081.45 L 1114.77 1084.05 L 1116.59 1086.65 L 1118.40 1089.23 L 1120.21 1091.81 L 1122.01 1094.38 L 1123.75 1096.97 L 1125.47 1099.58 L 1127.19 1102.16 L 1128.91 1104.73 L 1130.61 1107.30 L 1132.31 1109.85 L 1133.98 1112.40 L 1135.67 1114.92 L 1137.36 1117.42 L 1139.04 1119.91 L 1140.72 1122.39 L 1142.39 1124.88 L 1144.05 1127.34 L 1145.68 1129.82 L 1147.31 1132.29 L 1148.89 1134.77 L 1150.47 1137.25 L 1152.01 1139.74 L 1153.54 1142.20 L 1155.11 1144.65 L 1156.62 1147.11 L 1158.10 1149.58 L 1159.63 1152.01 L 1161.19 1154.41 L 1162.74 1156.79 L 1164.31 1159.16 L 1165.86 1161.52 L 1167.42 1163.86 L 1168.98 1166.19 L 1170.52 1168.51 L 1172.06 1170.81 L 1173.61 1173.10 L 1175.13 1175.40 L 1176.65 1177.68 L 1178.15 1179.97 L 1179.65 1182.25 L 1181.17 1184.49 L 1182.68 1186.73 L 1184.19 1188.96 L 1185.70 1191.16 L 1187.19 1193.37 L 1188.67 1195.57 L 1190.14 1197.77 L 1191.59 1199.95 L 1193.03 1202.13 L 1194.47 1204.30 L 1195.92 1206.45 L 1197.38 1208.57 L 1198.89 1210.64 L 1200.39 1212.70 L 1201.88 1214.77 L 1203.35 1216.83 L 1204.85 1218.85 L 1206.37 1220.86 L 1207.87 1222.86 L 1209.37 1224.86 L 1210.84 1226.86" stroke="rgb(205,165,255)" stroke-opacity="0.714" stroke-width="1.23" />
  <path d="M 996.48 999.20 L 995.88 998.55 L 995.27 997.90 L 994.63 997.24 L 993.99 996.68 L 993.34 996.13 L 992.70 995.56 L 991.99 994.94 L 991.31 994.28 L 990.62 993.63 L 989.92 992.97 L 989.25 992.27 L 988.57 991.58 L 987.91 990.88 L 987.24 990.18 L 986.62 989.49 L 986.00 988.80 L 985.39 988.12 L 984.78 987.47 L 984.17 986.84 L 983.55 986.21 L 982.91 985.60 L 982.26 984.99 L 981.67 984.38 L 981.04 983.74 L 980.39 983.12 L 979.74 982.50 L 979.05 981.89 L 978.36 981.29 L 977.70 980.70 L 977.03 980.11 L 976.36 979.52 L 975.64 978.94 L 974.90 978.36 L 974.08 977.82 L 973.25 977.27 L 972.42 976.74 L 971.59 976.22 L 970.75 975.69 L 969.85 975.19 L 968.99 974.69 L 968.12 974.22 L 967.23 973.75 L 966.35 973.24 L 965.47 972.72 L 964.57 972.23 L 963.66 971.75 L 962.76 971.26 L 961.84 970.80 L 960.89 970.36 L 959.94 969.91" stroke="rgb(205,165,255)" stroke-opacity="0.714" stroke-width="1.23" />
  <path d="M 1000.55 997.15 L 999.34 999.94 L 998.13 1002.71 L 996.95 1005.49 L 995.81 1008.26 L 994.66 1011.04 L 993.52 1013.80 L 992.41 1016.57" stroke="rgb(205,165,255)" stroke-opacity="0.703" stroke-width="1.20" />
  <path d="M 1061.48 996.96 L 1064.59 997.06 L 1067.71 997.16 L 1070.82 997.25 L 1073.93 997.34 L 1077.02 997.41 L 1080.11 997.43 L 1083.17 997.51 L 1086.21 997.57 L 1089.26 997.64 L 1092.29 997.62 L 1095.30 997.59 L 1098.31 997.58 L 1101.32 997.57 L 1104.32 997.56 L 1107.31 997.50 L 1110.29 997.43 L 1113.27 997.40 L 1116.23 997.37 L 1119.17 997.35 L 1122.10 997.33 L 1125.04 997.33 L 1128.00 997.32 L 1130.94 997.29 L 1133.87 997.24 L 1136.77 997.21 L 1139.66 997.14" stroke="rgb(140,255,190)" stroke-opacity="0.740" stroke-width="1.20" />
  <path d="M 999.72 1001.59 L 1003.13 1000.83 L 1006.52 1000.07 L 1009.91 999.31 L 1013.28 998.58 L 1016.64 997.83 L 1019.97 997.04 L 1023.29 996.24 L 1026.59 995.45 L 1029.88 994.63 L 1033.14 993.80 L 1036.40 993.01 L 1039.65 992.21 L 1042.89 991.44 L 1046.12 990.69 L 1049.34 989.94 L 1052.54 989.17 L 1055.73 988.41 L 1058.91 987.66 L 1062.07 986.89 L 1065.21 986.11 L 1068.34 985.32 L 1071.45 984.53 L 1074.55 983.74 L 1077.64 982.95 L 1080.71 982.14 L 1083.76 981.36 L 1086.82 980.59 L 1089.85 979.83 L 1092.88 979.07 L 1095.90 978.32 L 1098.90 977.57 L 1101.90 976.83 L 1104.89 976.12 L 1107.87 975.41 L 1110.84 974.71 L 1113.80 974.03 L 1116.75 973.36 L 1119.69 972.72 L 1122.62 972.09" stroke="rgb(140,255,190)" stroke-opacity="0.739" stroke-width="1.19" />
  <path d="M 1001.41 1003.18 L 1004.86 1002.84 L 1008.30 1002.49 L 1011.72 1002.10 L 1015.12 1001.71 L 1018.52 1001.33 L 1021.90 1000.96 L 1025.27 1000.57 L 1028.62 1000.16 L 1031.96 999.79 L 1035.29 999.41 L 1038.60 999.02 L 1041.90 998.66 L 1045.19 998.34 L 1048.47 998.06 L 1051.74 997.77 L 1055.00 997.49 L 1058.24 997.20 L 1061.48 996.96 L 1064.71 996.74 L 1067.92 996.48 L 1071.12 996.22 L 1074.30 995.91 L 1077.46 995.56 L 1080.62 995.21 L 1083.75 994.85 L 1086.88 994.49 L 1089.99 994.12 L 1093.09 993.78 L 1096.18 993.46" stroke="rgb(140,255,190)" stroke-opacity="0.738" stroke-width="1.19" />
  <path d="M 1001.77 968.45 L 1003.70 966.45 L 1005.61 964.44 L 1007.60 962.54 L 1009.58 960.66 L 1011.55 958.78 L 1013.51 956.87 L 1015.47 954.97 L 1017.49 953.11 L 1019.53 951.27 L 1021.54 949.46 L 1023.57 947.61 L 1025.60 945.77 L 1027.62 943.93 L 1029.62 942.16 L 1031.62 940.41 L 1033.59 938.66 L 1035.53 936.90 L 1037.44 935.13 L 1039.33 933.28 L 1041.25 931.51 L 1043.17 929.79 L 1045.09 928.09 L 1047.01 926.40 L 1048.92 924.71 L 1050.84 923.06 L 1052.77 921.40 L 1054.69 919.76 L 1056.59 918.13 L 1058.48 916.50 L 1060.42 914.93 L 1062.34 913.38 L 1064.26 911.85 L 1066.14 910.33 L 1068.02 908.83 L 1069.89 907.33" stroke="rgb(205,165,255)" stroke-opacity="0.490" stroke-width="1.19" />
  <path d="M 1134.86 998.56 L 1136.93 998.01 L 1138.94 997.39 L 1140.90 996.74 L 1142.88 996.07 L 1144.90 995.39 L 1146.90 994.67 L 1148.86 993.82 L 1150.80 992.95 L 1152.65 992.01 L 1154.42 991.05 L 1156.20 990.09 L 1157.97 989.11 L 1159.75 988.14 L 1161.52 987.26 L 1163.28 986.37 L 1165.02 985.50 L 1166.77 984.66 L 1168.51 983.84 L 1170.21 982.95 L 1171.91 982.08 L 1173.61 981.22 L 1175.31 980.37" stroke="rgb(140,255,190)" stroke-opacity="0.551" stroke-width="1.18" />
  <path d="M 997.79 1001.21 L 996.46 999.79 L 995.14 998.34 L 993.83 996.87 L 992.46 995.42 L 991.13 993.99 L 989.85 992.55 L 988.56 991.12 L 987.30 989.75 L 986.05 988.37 L 984.79 987.01 L 983.55 985.63 L 982.36 984.25 L 981.19 982.91 L 980.03 981.58 L 978.91 980.25 L 977.81 978.86 L 976.74 977.44 L 975.70 976.01 L 974.60 974.58 L 973.52 973.18 L 972.36 971.78 L 971.18 970.37 L 970.00 968.96 L 968.84 967.57 L 967.67 966.21 L 966.50 964.86 L 965.33 963.50 L 964.17 962.14 L 963.01 960.80 L 961.80 959.43 L 960.64 958.06 L 959.48 956.72 L 958.36 955.35 L 957.26 954.04 L 956.22 952.68 L 955.13 951.33 L 954.05 950.02 L 952.93 948.66 L 951.82 947.29 L 950.69 945.97 L 949.54 944.68 L 948.40 943.41 L 947.31 942.16 L 946.22 940.93" stroke="rgb(205,165,255)" stroke-opacity="0.697" stroke-width="1.18" />
  <path d="M 1001.34 999.97 L 1004.42 999.61 L 1007.48 999.23 L 1010.53 998.87 L 1013.57 998.50 L 1016.59 998.08 L 1019.59 997.61 L 1022.58 997.16 L 1025.57 996.76 L 1028.54 996.34 L 1031.49 995.92 L 1034.44 995.50 L 1037.38 995.11 L 1040.29 994.66 L 1043.18 994.14 L 1046.06 993.62 L 1048.92 993.05 L 1051.76 992.46 L 1054.58 991.84 L 1057.40 991.24 L 1060.21 990.64 L 1063.00 990.05 L 1065.79 989.45 L 1068.57 988.89 L 1071.34 988.36 L 1074.10 987.81 L 1076.84 987.22 L 1079.56 986.66 L 1082.27 986.04 L 1084.96 985.44 L 1087.64 984.83 L 1090.31 984.23 L 1092.97 983.61 L 1095.61 982.99 L 1098.25 982.36 L 1100.87 981.73 L 1103.47 981.08 L 1106.05 980.41 L 1108.63 979.75 L 1111.21 979.14 L 1113.78 978.54 L 1116.34 978.00 L 1118.90 977.47 L 1121.45 976.92 L 1123.99 976.38 L 1126.52 975.85 L 1129.04 975.32 L 1131.55 974.78 L 1134.05 974.24 L 1136.53 973.68 L 1139.00 973.13" stroke="rgb(205,165,255)" stroke-opacity="0.487" stroke-width="1.18" />
  <path d="M 1003.15 997.99 L 1006.50 997.50 L 1009.83 997.01 L 1013.15 996.52 L 1016.46 996.05 L 1019.75 995.55 L 1023.04 995.11 L 1026.31 994.64 L 1029.57 994.17 L 1032.81 993.69 L 1036.03 993.21 L 1039.25 992.74 L 1042.45 992.28 L 1045.64 991.85 L 1048.82 991.45 L 1051.98 991.06 L 1055.14 990.66 L 1058.28 990.25 L 1061.41 989.88 L 1064.52 989.49 L 1067.63 989.09 L 1070.71 988.68 L 1073.80 988.32 L 1076.86 987.92 L 1079.91 987.54 L 1082.94 987.16 L 1085.96 986.74 L 1088.97 986.33 L 1091.96 985.91 L 1094.94 985.49 L 1097.92 985.10 L 1100.88 984.72 L 1103.83 984.33 L 1106.77 983.94 L 1109.69 983.51 L 1112.61 983.14 L 1115.52 982.76 L 1118.41 982.40 L 1121.29 982.06 L 1124.16 981.73 L 1127.02 981.39 L 1129.86 981.05 L 1132.70 980.74 L 1135.53 980.44 L 1138.34 980.11 L 1141.14 979.81 L 1143.93 979.51 L 1146.72 979.15 L 1149.50 978.79 L 1152.26 978.45 L 1155.02 978.16 L 1157.77 977.89 L 1160.51 977.61 L 1163.23 977.38 L 1165.94 977.13 L 1168.65 976.88 L 1171.34 976.65 L 1174.01 976.43 L 1176.68 976.18 L 1179.34 975.95 L 1181.99 975.73 L 1184.64 975.51 L 1187.27 975.33 L 1189.90 975.14 L 1192.51 974.95 L 1195.12 974.77 L 1197.72 974.58 L 1200.31 974.37 L 1202.88 974.17 L 1205.43 973.97 L 1207.98 973.78 L 1210.51 973.57 L 1213.03 973.31 L 1215.53 973.09 L 1218.02 972.87 L 1220.51 972.64 L 1222.98 972.43 L 1225.44 972.22 L 1227.89 972.02 L 1230.33 971.80 L 1232.76 971.56 L 1235.18 971.32 L 1237.59 971.09 L 1239.99 970.86 L 1242.39 970.66 L 1244.78 970.45" stroke="rgb(140,255,190)" stroke-opacity="0.730" stroke-width="1.17" />
  <path d="M 1086.82 980.59 L 1090.03 979.97 L 1093.23 979.34 L 1096.42 978.73 L 1099.59 978.14 L 1102.76 977.55 L 1105.91 976.94 L 1109.05 976.34 L 1112.16 975.74 L 1115.26 975.16 L 1118.34 974.61 L 1121.39 973.99 L 1124.44 973.38 L 1127.46 972.77 L 1130.49 972.15 L 1133.50 971.54 L 1136.51 971.00 L 1139.53 970.48 L 1142.53 969.95 L 1145.53 969.40 L 1148.51 968.84 L 1151.48 968.32 L 1154.46 967.82 L 1157.43 967.37 L 1160.38 966.91 L 1163.33 966.53 L 1166.27 966.11 L 1169.20 965.73 L 1172.12 965.36 L 1175.05 965.07 L 1177.96 964.78 L 1180.87 964.44 L 1183.79 964.12 L 1186.70 963.76 L 1189.60 963.42 L 1192.48 963.06 L 1195.33 962.71 L 1198.18 962.39 L 1201.02 962.04 L 1203.85 961.67 L 1206.66 961.26 L 1209.45 960.87 L 1212.24 960.48 L 1215.01 960.10 L 1217.77 959.71 L 1220.51 959.28 L 1223.24 958.84 L 1225.96 958.41 L 1228.66 957.97 L 1231.36 957.57" stroke="rgb(140,255,190)" stroke-opacity="0.728" stroke-width="1.16" />
  <path d="M 1001.32 993.94 L 1003.61 995.20 L 1005.90 996.47 L 1008.24 997.67 L 1010.62 998.85 L 1013.04 999.94 L 1015.43 1001.04 L 1017.78 1002.13 L 1020.09 1003.16 L 1022.36 1004.19 L 1024.62 1005.21 L 1026.87 1006.23 L 1029.15 1007.22 L 1031.43 1008.23 L 1033.70 1009.29 L 1035.94 1010.37 L 1038.18 1011.46 L 1040.39 1012.58 L 1042.62 1013.69 L 1044.83 1014.80 L 1047.08 1015.83 L 1049.31 1016.90 L 1051.60 1017.93 L 1053.88 1018.97 L 1056.14 1020.03 L 1058.39 1021.09 L 1060.65 1022.07 L 1062.91 1023.06 L 1065.18 1023.99 L 1067.45 1024.96 L 1069.71 1025.96 L 1071.96 1026.93 L 1074.16 1027.91 L 1076.38 1028.87 L 1078.58 1029.94 L 1080.77 1030.98 L 1082.98 1031.90 L 1085.15 1032.82 L 1087.31 1033.72 L 1089.48 1034.62 L 1091.59 1035.58 L 1093.70 1036.49 L 1095.81 1037.41 L 1097.89 1038.38 L 1099.96 1039.37 L 1102.03 1040.34 L 1104.07 1041.34 L 1106.08 1042.35 L 1108.09 1043.34 L 1110.13 1044.33 L 1112.17 1045.29 L 1114.22 1046.24 L 1116.25 1047.28 L 1118.27 1048.33 L 1120.29 1049.40 L 1122.29 1050.50 L 1124.27 1051.59 L 1126.28 1052.65 L 1128.26 1053.75 L 1130.22 1054.89 L 1132.15 1056.04 L 1134.07 1057.20 L 1135.96 1058.41 L 1137.84 1059.62 L 1139.68 1060.86 L 1141.50 1062.10 L 1143.31 1063.33 L 1145.09 1064.58" stroke="rgb(205,165,255)" stroke-opacity="0.483" stroke-width="1.16" />
  <path d="M 997.02 1002.70 L 999.38 1002.11 L 1001.72 1001.48 L 1004.05 1000.84 L 1006.37 1000.22 L 1008.71 999.67 L 1011.01 999.05 L 1013.29 998.41 L 1015.57 997.78 L 1017.85 997.20 L 1020.11 996.57 L 1022.38 996.00 L 1024.64 995.42 L 1026.87 994.79 L 1029.08 994.13 L 1031.29 993.47 L 1033.47 992.77 L 1035.67 992.18 L 1037.87 991.60 L 1040.04 990.99 L 1042.21 990.39 L 1044.37 989.80 L 1046.51 989.14 L 1048.63 988.49 L 1050.71 987.73 L 1052.78 986.98 L 1054.84 986.23 L 1056.89 985.47 L 1058.94 984.71 L 1060.98 983.96 L 1062.98 983.13 L 1064.98 982.33 L 1067.03 981.72 L 1069.07 981.09 L 1071.09 980.40 L 1073.08 979.67 L 1075.06 978.95 L 1077.03 978.19 L 1078.98 977.44 L 1080.90 976.62 L 1082.82 975.81 L 1084.72 975.00 L 1086.64 974.23 L 1088.55 973.47 L 1090.47 972.76 L 1092.39 972.05 L 1094.30 971.35 L 1096.20 970.66 L 1098.11 970.03 L 1100.04 969.44 L 1101.95 968.86 L 1103.85 968.25 L 1105.73 967.62 L 1107.61 967.00 L 1109.50 966.43 L 1111.37 965.86 L 1113.24 965.30 L 1115.11 964.73 L 1116.96 964.17" stroke="rgb(140,255,190)" stroke-opacity="0.543" stroke-width="1.16" />
  <path d="M 1002.01 1000.82 L 1004.98 1000.49 L 1007.94 1000.18 L 1010.89 999.87 L 1013.80 999.37 L 1016.73 999.03 L 1019.64 998.68 L 1022.54 998.32 L 1025.42 997.95 L 1028.30 997.59 L 1031.16 997.21 L 1034.01 996.82 L 1036.83 996.34 L 1039.65 995.89 L 1042.46 995.50 L 1045.25 995.05 L 1048.03 994.62 L 1050.80 994.18 L 1053.58 993.84 L 1056.35 993.55 L 1059.10 993.28 L 1061.86 993.09 L 1064.60 992.91 L 1067.34 992.73 L 1070.06 992.54 L 1072.77 992.29 L 1075.46 992.03 L 1078.14 991.77 L 1080.82 991.57 L 1083.49 991.41 L 1086.16 991.40 L 1088.81 991.42 L 1091.45 991.44 L 1094.08 991.47 L 1096.71 991.52 L 1099.32 991.50 L 1101.92 991.45 L 1104.51 991.41 L 1107.09 991.38 L 1109.66 991.36 L 1112.21 991.29 L 1114.76 991.18 L 1117.30 991.07 L 1119.82 990.95 L 1122.34 990.83 L 1124.84 990.70 L 1127.34 990.61 L 1129.83 990.55" stroke="rgb(205,165,255)" stroke-opacity="0.481" stroke-width="1.15" />
  <path d="M 1000.17 997.30 L 1003.33 996.73 L 1006.49 996.21 L 1009.64 995.69 L 1012.77 995.19 L 1015.89 994.68 L 1019.01 994.20 L 1022.11 993.73 L 1025.20 993.28 L 1028.27 992.83 L 1031.34 992.46 L 1034.39 992.02 L 1037.43 991.56 L 1040.45 991.05 L 1043.45 990.48 L 1046.43 989.94 L 1049.40 989.38 L 1052.36 988.85 L 1055.31 988.32 L 1058.25 987.81 L 1061.17 987.30 L 1064.08 986.80 L 1066.99 986.35 L 1069.89 985.95 L 1072.80 985.58 L 1075.70 985.25 L 1078.59 984.93 L 1081.46 984.61 L 1084.32 984.26 L 1087.17 983.93 L 1090.01 983.57 L 1092.84 983.24 L 1095.65 982.93 L 1098.45 982.62 L 1101.24 982.31 L 1104.02 981.99 L 1106.78 981.67 L 1109.54 981.34 L 1112.28 981.00 L 1115.02 980.69 L 1117.75 980.39 L 1120.47 980.08 L 1123.18 979.84 L 1125.88 979.57 L 1128.58 979.32 L 1131.26 979.07 L 1133.93 978.82 L 1136.60 978.60 L 1139.26 978.38 L 1141.90 978.16 L 1144.54 977.96 L 1147.15 977.67 L 1149.76 977.35 L 1152.35 977.03 L 1154.93 976.71 L 1157.50 976.42 L 1160.06 976.13 L 1162.62 975.84 L 1165.16 975.54 L 1167.69 975.23 L 1170.21 974.93 L 1172.72 974.65 L 1175.23 974.37 L 1177.72 974.09 L 1180.20 973.78 L 1182.66 973.43 L 1185.12 973.06 L 1187.56 972.69 L 1189.99 972.32 L 1192.42 972.02 L 1194.84 971.72 L 1197.26 971.45 L 1199.66 971.17 L 1202.06 970.88 L 1204.45 970.63 L 1206.83 970.41 L 1209.20 970.14 L 1211.55 969.85 L 1213.90 969.59 L 1216.24 969.35 L 1218.58 969.11 L 1220.90 968.89 L 1223.22 968.68 L 1225.53 968.51" stroke="rgb(140,255,190)" stroke-opacity="0.721" stroke-width="1.15" />
  <path d="M 1059.50 991.00 L 1062.08 989.06 L 1064.62 987.10 L 1067.16 985.17 L 1069.71 983.27 L 1072.25 981.38 L 1074.75 979.45 L 1077.29 977.60 L 1079.78 975.70 L 1082.25 973.82 L 1084.73 971.96 L 1087.22 970.12 L 1089.71 968.32 L 1092.18 966.51 L 1094.65 964.71 L 1097.10 962.92 L 1099.53 961.11 L 1101.91 959.27 L 1104.25 957.40 L 1106.57 955.52 L 1108.86 953.63 L 1111.14 951.75 L 1113.48 949.97 L 1115.83 948.21 L 1118.17 946.46 L 1120.49 944.71 L 1122.79 942.95 L 1125.10 941.21 L 1127.39 939.48 L 1129.66 937.73 L 1131.93 935.98 L 1134.19 934.25 L 1136.47 932.57 L 1138.78 930.95 L 1141.06 929.31 L 1143.30 927.63 L 1145.53 925.96 L 1147.76 924.31 L 1149.97 922.65 L 1152.19 921.02 L 1154.41 919.40 L 1156.61 917.75 L 1158.76 916.08 L 1160.91 914.41 L 1163.01 912.69 L 1165.09 910.98 L 1167.17 909.27 L 1169.22 907.56 L 1171.26 905.85 L 1173.27 904.13 L 1175.27 902.41 L 1177.26 900.70 L 1179.21 898.96 L 1181.17 897.24" stroke="rgb(140,255,190)" stroke-opacity="0.720" stroke-width="1.14" />
  <path d="M 997.85 1001.96 L 1000.25 1001.75 L 1002.63 1001.54 L 1005.01 1001.34 L 1007.37 1001.11 L 1009.73 1000.89 L 1012.08 1000.76 L 1014.42 1000.61 L 1016.75 1000.57 L 1019.07 1000.44 L 1021.38 1000.30 L 1023.68 1000.29" stroke="rgb(140,255,190)" stroke-opacity="0.539" stroke-width="1.14" />
  <path d="M 1002.87 1001.68 L 1006.02 1001.03 L 1009.15 1000.40 L 1012.27 999.78 L 1015.40 999.26 L 1018.52 998.77 L 1021.62 998.27 L 1024.69 997.68 L 1027.74 997.09 L 1030.77 996.50 L 1033.78 995.89 L 1036.78 995.25 L 1039.75 994.60 L 1042.68 993.85 L 1045.60 993.12 L 1048.50 992.40 L 1051.40 991.71 L 1054.29 991.03 L 1057.18 990.39 L 1060.05 989.73 L 1062.91 989.06 L 1065.74 988.38 L 1068.57 987.70 L 1071.37 987.02 L 1074.16 986.34 L 1076.94 985.66 L 1079.69 984.95 L 1082.40 984.14 L 1085.10 983.34 L 1087.79 982.54 L 1090.49 981.82 L 1093.16 981.06 L 1095.82 980.29 L 1098.47 979.53 L 1101.14 978.89 L 1103.79 978.26 L 1106.44 977.64 L 1109.07 977.01 L 1111.70 976.42 L 1114.30 975.80 L 1116.89 975.19 L 1119.48 974.59 L 1122.06 974.00 L 1124.63 973.38 L 1127.19 972.80 L 1129.72 972.20 L 1132.24 971.59 L 1134.75 970.99 L 1137.26 970.40 L 1139.75 969.82 L 1142.24 969.17 L 1144.71 968.54 L 1147.18 967.94 L 1149.65 967.35 L 1152.11 966.76 L 1154.53 966.10 L 1156.96 965.45 L 1159.37 964.80 L 1161.75 964.15 L 1164.12 963.48 L 1166.48 962.81 L 1168.83 962.16 L 1171.18 961.53 L 1173.51 960.91 L 1175.85 960.30 L 1178.17 959.70 L 1180.47 959.07 L 1182.78 958.46 L 1185.07 957.85 L 1187.35 957.23 L 1189.63 956.62 L 1191.89 956.00 L 1194.12 955.37 L 1196.34 954.74 L 1198.53 954.09 L 1200.72 953.43 L 1202.90 952.74 L 1205.06 952.06 L 1207.24 951.40 L 1209.37 950.62 L 1211.49 949.84 L 1213.59 949.06 L 1215.68 948.27 L 1217.76 947.50 L 1219.83 946.74 L 1221.88 945.97 L 1223.92 945.20 L 1225.96 944.45 L 1228.01 943.75 L 1230.08 943.12 L 1232.14 942.52 L 1234.22 941.97" stroke="rgb(140,255,190)" stroke-opacity="0.717" stroke-width="1.14" />
  <path d="M 1208.78 991.74 L 1211.18 992.19 L 1213.56 992.66 L 1215.93 993.12 L 1218.27 993.66 L 1220.60 994.18 L 1222.91 994.77 L 1225.21 995.36 L 1227.47 995.97 L 1229.72 996.52 L 1231.99 997.06 L 1234.24 997.69 L 1236.49 998.34 L 1238.71 998.98 L 1240.96 999.48 L 1243.19 999.96 L 1245.38 1000.55 L 1247.55 1001.13 L 1249.74 1001.58 L 1251.91 1002.01 L 1254.09 1002.51 L 1256.29 1002.92 L 1258.46 1003.30 L 1260.64 1003.66 L 1262.81 1004.02 L 1264.97 1004.39 L 1267.09 1004.83 L 1269.19 1005.31 L 1271.31 1005.73 L 1273.39 1006.28 L 1275.46 1006.77" stroke="rgb(140,255,190)" stroke-opacity="0.537" stroke-width="1.13" />
  <path d="M 996.50 1001.84 L 999.70 1001.40 L 1002.89 1000.99 L 1006.06 1000.54 L 1009.23 1000.18 L 1012.39 999.81 L 1015.53 999.42" stroke="rgb(140,255,190)" stroke-opacity="0.716" stroke-width="1.13" />
  <path d="M 999.16 999.19 L 1001.57 998.91 L 1003.97 998.66 L 1006.36 998.36 L 1008.73 998.08 L 1011.10 997.91 L 1013.46 997.74 L 1015.81 997.58 L 1018.14 997.43 L 1020.47 997.28 L 1022.79 997.11 L 1025.10 996.97 L 1027.40 996.86 L 1029.69 996.79 L 1031.97 996.77 L 1034.24 996.77 L 1036.51 996.75 L 1038.77 996.70 L 1041.01 996.56 L 1043.23 996.39 L 1045.43 996.17 L 1047.61 995.83" stroke="rgb(140,255,190)" stroke-opacity="0.536" stroke-width="1.13" />
  <path d="M 998.14 997.91 L 998.49 995.86 L 998.82 993.82 L 999.14 991.78 L 999.39 989.73 L 999.62 987.83 L 999.94 985.98 L 1000.26 984.14 L 1000.68 982.27 L 1001.02 980.42 L 1001.20 978.47 L 1001.37 976.48 L 1001.53 974.47 L 1001.59 972.43 L 1001.68 970.44 L 1001.77 968.45 L 1001.85 966.48 L 1001.98 964.48 L 1002.12 962.47 L 1002.22 960.49 L 1002.26 958.54 L 1002.29 956.58 L 1002.42 954.67 L 1002.66 952.84 L 1002.91 951.01 L 1003.15 949.19 L 1003.43 947.31 L 1003.72 945.44 L 1003.99 943.58 L 1004.16 941.67 L 1004.37 939.74 L 1004.43 937.82 L 1004.54 935.93 L 1004.60 934.04 L 1004.64 932.15 L 1004.68 930.30 L 1004.70 928.59 L 1004.77 926.83 L 1004.82 925.03" stroke="rgb(205,165,255)" stroke-opacity="0.474" stroke-width="1.13" />
  <path d="M 1226.21 934.56 L 1228.02 932.43 L 1229.76 930.25 L 1231.42 928.00 L 1233.10 925.75 L 1234.75 923.50 L 1236.37 921.25 L 1238.04 919.04 L 1239.70 916.82 L 1241.42 914.67 L 1243.26 912.58 L 1245.12 910.51 L 1246.96 908.46 L 1248.78 906.43 L 1250.62 904.40 L 1252.44 902.35 L 1254.25 900.31 L 1256.10 898.32 L 1257.94 896.33 L 1259.90 894.46 L 1261.83 892.56 L 1263.73 890.65 L 1265.63 888.73 L 1267.58 886.90 L 1269.50 885.06 L 1271.41 883.23 L 1273.26 881.35 L 1275.10 879.47 L 1276.92 877.58 L 1278.71 875.67 L 1280.50 873.78 L 1282.30 871.91 L 1284.08 870.05 L 1285.85 868.19 L 1287.67 866.38 L 1289.50 864.60 L 1291.33 862.83 L 1293.15 861.07" stroke="rgb(140,255,190)" stroke-opacity="0.535" stroke-width="1.13" />
  <path d="M 1024.64 995.42 L 1027.46 994.06 L 1030.26 992.67 L 1033.04 991.28 L 1035.80 989.87 L 1038.56 988.46 L 1041.29 987.05 L 1044.00 985.64 L 1046.71 984.25 L 1049.39 982.84 L 1052.02 981.37 L 1054.62 979.89 L 1057.18 978.37 L 1059.74 976.88 L 1062.29 975.36 L 1064.88 973.92 L 1067.48 972.52 L 1070.04 971.10 L 1072.58 969.65 L 1075.13 968.27" stroke="rgb(140,255,190)" stroke-opacity="0.713" stroke-width="1.13" />
  <path d="M 1128.60 992.04 L 1131.23 990.70 L 1133.86 989.36 L 1136.49 988.06 L 1139.06 986.72 L 1141.62 985.36 L 1144.20 984.05 L 1146.76 982.77 L 1149.29 981.42 L 1151.80 980.06 L 1154.28 978.69 L 1156.74 977.29 L 1159.18 975.90 L 1161.62 974.51 L 1164.07 973.12 L 1166.49 971.69 L 1168.86 970.21 L 1171.22 968.74 L 1173.57 967.26 L 1175.88 965.76 L 1178.17 964.23 L 1180.43 962.73 L 1182.68 961.24 L 1184.97 959.83 L 1187.23 958.41 L 1189.47 956.98 L 1191.72 955.60 L 1193.93 954.20 L 1196.11 952.77 L 1198.27 951.35 L 1200.42 949.93 L 1202.56 948.53 L 1204.71 947.20 L 1206.85 945.89 L 1208.96 944.54 L 1211.07 943.21 L 1213.20 941.89 L 1215.37 940.65 L 1217.54 939.39 L 1219.70 938.15 L 1221.88 936.95 L 1224.05 935.74 L 1226.21 934.56 L 1228.36 933.34 L 1230.55 932.20 L 1232.72 931.04 L 1234.88 929.88 L 1237.01 928.71 L 1239.11 927.55 L 1241.21 926.38 L 1243.30 925.21 L 1245.40 924.06" stroke="rgb(140,255,190)" stroke-opacity="0.534" stroke-width="1.13" />
  <path d="M 1001.55 1003.83 L 1004.63 1003.57 L 1007.68 1003.25 L 1010.73 1003.01 L 1013.77 1002.78 L 1016.81 1002.52 L 1019.83 1002.21 L 1022.83 1001.93 L 1025.83 1001.59 L 1028.81 1001.30 L 1031.78 1000.98 L 1034.74 1000.69 L 1037.68 1000.38 L 1040.62 1000.09 L 1043.54 999.76 L 1046.45 999.40 L 1049.34 999.06 L 1052.23 998.76 L 1055.11 998.49 L 1057.97 998.20 L 1060.83 997.91 L 1063.67 997.63 L 1066.50 997.35 L 1069.32 997.08 L 1072.14 996.81 L 1074.94 996.55 L 1077.73 996.30 L 1080.50 996.03 L 1083.26 995.73 L 1086.02 995.47 L 1088.76 995.26 L 1091.49 995.01 L 1094.21 994.80 L 1096.92 994.59 L 1099.62 994.42 L 1102.31 994.28 L 1104.99 994.07 L 1107.66 993.89 L 1110.32 993.72 L 1112.97 993.55 L 1115.60 993.38 L 1118.23 993.20 L 1120.84 992.96 L 1123.44 992.65 L 1126.03 992.36 L 1128.60 992.04 L 1131.16 991.66 L 1133.70 991.27 L 1136.23 990.88 L 1138.75 990.46 L 1141.25 989.99 L 1143.74 989.52 L 1146.22 989.06 L 1148.68 988.54 L 1151.12 988.02 L 1153.56 987.50 L 1155.99 986.99 L 1158.41 986.52 L 1160.82 985.98 L 1163.20 985.41 L 1165.58 984.85 L 1167.94 984.28 L 1170.29 983.70 L 1172.63 983.13 L 1174.97 982.62 L 1177.29 982.08 L 1179.61 981.55 L 1181.91 980.99 L 1184.21 980.43 L 1186.49 979.86 L 1188.76 979.31 L 1191.03 978.78 L 1193.29 978.25 L 1195.55 977.76 L 1197.80 977.29 L 1200.05 976.82 L 1202.28 976.34 L 1204.49 975.78 L 1206.69 975.22 L 1208.88 974.65 L 1211.07 974.12 L 1213.25 973.59 L 1215.41 973.02 L 1217.57 972.48 L 1219.71 971.92" stroke="rgb(140,255,190)" stroke-opacity="0.534" stroke-width="1.12" />
  <path d="M 1083.76 981.36 L 1086.64 981.37 L 1089.50 981.36 L 1092.34 981.28 L 1095.15 981.17 L 1097.92 981.07 L 1100.65 980.95 L 1103.32 980.82 L 1105.99 980.70 L 1108.68 980.54 L 1111.35 980.36 L 1114.01 980.15 L 1116.63 980.07 L 1119.24 980.00 L 1121.83 979.91 L 1124.41 979.85 L 1127.00 979.78 L 1129.54 979.70 L 1132.04 979.61 L 1134.53 979.51 L 1137.01 979.38 L 1139.50 979.39 L 1141.97 979.41 L 1144.38 979.53 L 1146.78 979.66 L 1149.16 979.78 L 1151.53 979.92 L 1153.89 980.07" stroke="rgb(140,255,190)" stroke-opacity="0.534" stroke-width="1.12" />
  <path d="M 1002.10 999.84 L 1005.13 999.43 L 1008.13 998.95 L 1011.12 998.45 L 1014.10 997.95 L 1017.08 997.53 L 1020.04 997.07 L 1022.99 996.63 L 1025.93 996.20 L 1028.86 995.77 L 1031.77 995.33 L 1034.65 994.79 L 1037.54 994.32 L 1040.41 993.84 L 1043.25 993.32 L 1046.08 992.76 L 1048.85 992.08 L 1051.61 991.36 L 1054.36 990.64 L 1057.12 990.01 L 1059.87 989.39 L 1062.62 988.80 L 1065.37 988.26 L 1068.11 987.73 L 1070.83 987.19 L 1073.55 986.67 L 1076.25 986.12 L 1078.94 985.59 L 1081.61 985.10 L 1084.28 984.63 L 1086.93 984.21 L 1089.57 983.70 L 1092.20 983.23 L 1094.83 982.79 L 1097.45 982.37 L 1100.07 982.04 L 1102.67 981.67 L 1105.26 981.31 L 1107.85 981.05 L 1110.44 980.78 L 1113.01 980.53 L 1115.56 980.23 L 1118.11 979.97 L 1120.64 979.65 L 1123.17 979.32 L 1125.69 979.00 L 1128.19 978.60 L 1130.69 978.24 L 1133.18 977.89 L 1135.66 977.50" stroke="rgb(140,255,190)" stroke-opacity="0.532" stroke-width="1.12" />
  <path d="M 1239.11 927.55 L 1241.95 926.73 L 1244.80 926.02 L 1247.61 925.30 L 1250.42 924.58 L 1253.21 923.88 L 1255.99 923.20 L 1258.79 922.64 L 1261.60 922.08 L 1264.41 921.51 L 1267.19 920.93 L 1269.97 920.42 L 1272.74 919.90 L 1275.49 919.31 L 1278.23 918.71 L 1280.96 918.10 L 1283.68 917.47 L 1286.38 916.86 L 1289.08 916.25 L 1291.74 915.54 L 1294.40 914.84 L 1297.01 914.02 L 1299.62 913.22 L 1302.18 912.32 L 1304.71 911.39 L 1307.25 910.59 L 1309.74 909.67 L 1312.21 908.74 L 1314.67 907.80 L 1317.11 906.85 L 1319.54 905.89 L 1321.99 904.96 L 1324.42 904.04 L 1326.86 903.14 L 1329.28 902.24 L 1331.70 901.33 L 1334.11 900.42 L 1336.50 899.49 L 1338.88 898.57 L 1341.26 897.66 L 1343.64 896.80 L 1345.99 895.87 L 1348.31 894.91 L 1350.61 893.95 L 1352.90 893.01 L 1355.19 892.07 L 1357.49 891.21 L 1359.80 890.36 L 1362.09 889.52 L 1364.36 888.63 L 1366.62 887.74 L 1368.86 886.85 L 1371.09 885.98 L 1373.34 885.13 L 1375.61 884.37 L 1377.87 883.59 L 1380.13 882.86 L 1382.38 882.11 L 1384.62 881.36 L 1386.84 880.59 L 1389.05 879.83 L 1391.22 878.99 L 1393.40 878.18 L 1395.59 877.42 L 1397.77 876.67 L 1399.95 875.92 L 1402.14 875.28 L 1404.32 874.62 L 1406.50 873.96 L 1408.67 873.32 L 1410.83 872.69 L 1412.98 872.06 L 1415.12 871.41" stroke="rgb(140,255,190)" stroke-opacity="0.531" stroke-width="1.11" />
  <path d="M 1190.11 992.25 L 1192.83 991.27 L 1195.53 990.24 L 1198.22 989.22 L 1200.97 988.37 L 1203.70 987.48 L 1206.44 986.61 L 1209.16 985.79 L 1211.87 984.97 L 1214.58 984.11 L 1217.30 983.34 L 1220.00 982.58 L 1222.70 981.82 L 1225.38 981.05 L 1228.05 980.25 L 1230.72 979.46 L 1233.37 978.67 L 1236.01 977.88 L 1238.64 977.09 L 1241.28 976.38 L 1243.91 975.67 L 1246.55 975.06 L 1249.19 974.47 L 1251.83 973.91 L 1254.45 973.28 L 1257.09 972.79 L 1259.73 972.32 L 1262.35 971.85 L 1264.97 971.40 L 1267.58 970.97 L 1270.19 970.58 L 1272.79 970.22 L 1275.39 969.89 L 1277.96 969.48 L 1280.51 969.05 L 1283.06 968.69 L 1285.61 968.33 L 1288.15 968.08 L 1290.68 967.78 L 1293.19 967.40 L 1295.68 967.03 L 1298.18 966.82" stroke="rgb(140,255,190)" stroke-opacity="0.531" stroke-width="1.11" />
  <path d="M 1151.12 988.02 L 1153.82 986.65 L 1156.51 985.27 L 1159.20 983.94 L 1161.91 982.72 L 1164.61 981.51 L 1167.26 980.18 L 1169.88 978.86 L 1172.54 977.65 L 1175.19 976.42 L 1177.84 975.21 L 1180.48 974.01 L 1183.11 972.83 L 1185.73 971.66 L 1188.35 970.53 L 1190.93 969.38 L 1193.53 968.28 L 1196.11 967.20 L 1198.67 966.09 L 1201.24 965.03 L 1203.83 964.03 L 1206.40 963.02 L 1208.96 962.05 L 1211.51 961.07 L 1214.05 960.08 L 1216.59 959.10 L 1219.12 958.12 L 1221.62 957.07 L 1224.12 956.07 L 1226.62 955.10 L 1229.15 954.23 L 1231.70 953.41 L 1234.25 952.59 L 1236.79 951.86 L 1239.35 951.14 L 1241.93 950.52 L 1244.49 949.90 L 1247.01 949.16 L 1249.52 948.40 L 1252.02 947.65 L 1254.48 946.83 L 1256.93 945.99 L 1259.36 945.16 L 1261.79 944.34 L 1264.21 943.52 L 1266.64 942.77 L 1269.05 942.01 L 1271.45 941.23 L 1273.84 940.48 L 1276.20 939.71 L 1278.56 938.96 L 1280.92 938.24 L 1283.27 937.52 L 1285.59 936.80 L 1287.90 936.03 L 1290.21 935.31" stroke="rgb(140,255,190)" stroke-opacity="0.531" stroke-width="1.11" />
  <path d="M 1090.47 972.76 L 1092.70 971.81 L 1094.80 970.68 L 1096.94 969.59 L 1099.08 968.49 L 1101.21 967.40 L 1103.33 966.26 L 1105.45 965.04 L 1107.57 963.87 L 1109.70 962.77 L 1111.81 961.66 L 1113.91 960.56 L 1116.02 959.47" stroke="rgb(140,255,190)" stroke-opacity="0.530" stroke-width="1.11" />
  <path d="M 1000.24 999.28 L 1003.03 998.72 L 1005.81 998.16 L 1008.58 997.59 L 1011.34 997.04 L 1014.10 996.51 L 1016.85 995.98 L 1019.57 995.39 L 1022.29 994.79 L 1024.99 994.22 L 1027.71 993.80 L 1030.42 993.37 L 1033.12 992.98 L 1035.82 992.61 L 1038.50 992.26 L 1041.18 991.91 L 1043.85 991.57 L 1046.51 991.28 L 1049.16 990.95 L 1051.79 990.59 L 1054.41 990.20 L 1057.02 989.84 L 1059.62 989.47 L 1062.20 989.05 L 1064.76 988.61 L 1067.33 988.25 L 1069.89 987.89 L 1072.42 987.43 L 1074.94 986.97 L 1077.46 986.52 L 1079.96 986.06 L 1082.45 985.60 L 1084.93 985.17 L 1087.41 984.75 L 1089.88 984.38 L 1092.34 984.01 L 1094.80 983.66 L 1097.25 983.36 L 1099.69 983.06" stroke="rgb(140,255,190)" stroke-opacity="0.528" stroke-width="1.10" />
  <path d="M 1003.79 1000.38 L 1006.50 1000.02 L 1009.17 999.54 L 1011.82 998.97 L 1014.45 998.38 L 1017.07 997.74 L 1019.69 997.18 L 1022.28 996.58 L 1024.87 995.97 L 1027.45 995.46 L 1029.99 994.85 L 1032.52 994.24 L 1035.01 993.60 L 1037.50 992.96 L 1039.98 992.32 L 1042.45 991.73 L 1044.91 991.14 L 1047.38 990.59 L 1049.84 990.02 L 1052.30 989.53 L 1054.75 989.05 L 1057.20 988.64 L 1059.66 988.24 L 1062.11 987.83 L 1064.57 987.51 L 1067.04 987.30 L 1069.50 987.15 L 1071.97 987.13 L 1074.43 987.06" stroke="rgb(140,255,190)" stroke-opacity="0.527" stroke-width="1.10" />
  <path d="M 1000.65 998.56 L 1003.37 998.53 L 1006.07 998.53 L 1008.77 998.49 L 1011.45 998.41 L 1014.13 998.40 L 1016.79 998.38 L 1019.45 998.34 L 1022.09 998.31 L 1024.72 998.22 L 1027.35 998.14 L 1029.96 998.08 L 1032.56 997.98 L 1035.15 997.95 L 1037.73 997.98 L 1040.31 997.98 L 1042.87 997.98 L 1045.42 997.97 L 1047.96 998.08 L 1050.50 998.17 L 1053.02 998.28 L 1055.52 998.43 L 1058.02 998.60 L 1060.50 998.79 L 1062.98 998.96 L 1065.45 999.15 L 1067.90 999.35 L 1070.35 999.55 L 1072.79 999.69 L 1075.22 999.73 L 1077.64 999.72 L 1080.06 999.71 L 1082.46 999.76 L 1084.85 999.85 L 1087.23 999.99 L 1089.60 1000.14 L 1091.96 1000.35 L 1094.31 1000.51 L 1096.66 1000.64 L 1098.99 1000.73" stroke="rgb(140,255,190)" stroke-opacity="0.525" stroke-width="1.09" />
  <path d="M 999.15 998.00 L 1001.79 997.74 L 1004.43 997.46 L 1007.07 997.19 L 1009.71 996.92 L 1012.34 996.64 L 1014.97 996.45 L 1017.58 996.24 L 1020.18 995.98 L 1022.77 995.85 L 1025.34 995.68 L 1027.89 995.53 L 1030.44 995.36 L 1032.98 995.20 L 1035.51 995.01 L 1038.03 994.81 L 1040.53 994.59 L 1043.01 994.37 L 1045.48 994.17 L 1047.94 993.96 L 1050.39 993.74 L 1052.83 993.48 L 1055.28 993.30 L 1057.71 993.18 L 1060.13 993.04 L 1062.53 992.85 L 1064.90 992.58 L 1067.30 992.43 L 1069.67 992.31 L 1072.05 992.29 L 1074.43 992.31 L 1076.80 992.25 L 1079.17 992.24 L 1081.52 992.30 L 1083.85 992.48 L 1086.17 992.69 L 1088.48 992.91 L 1090.79 993.13 L 1093.07 993.42 L 1095.34 993.70 L 1097.60 993.98 L 1099.85 994.26 L 1102.10 994.57 L 1104.33 994.87 L 1106.56 995.18 L 1108.78 995.41 L 1110.99 995.67 L 1113.20 995.93 L 1115.40 996.18 L 1117.59 996.42 L 1119.78 996.67 L 1121.95 996.92 L 1124.12 997.17 L 1126.29 997.41 L 1128.44 997.67 L 1130.59 997.94 L 1132.73 998.24 L 1134.86 998.56 L 1136.96 998.95 L 1139.06 999.31" stroke="rgb(140,255,190)" stroke-opacity="0.525" stroke-width="1.09" />
  <path d="M 1000.56 999.24 L 1003.26 998.97 L 1005.95 998.68 L 1008.63 998.43 L 1011.28 998.09 L 1013.93 997.76 L 1016.56 997.44 L 1019.19 997.07 L 1021.81 996.76 L 1024.41 996.41 L 1027.00 996.03 L 1029.57 995.58 L 1032.13 995.17 L 1034.67 994.72 L 1037.19 994.22 L 1039.71 993.74 L 1042.21 993.26 L 1044.71 992.86 L 1047.21 992.57 L 1049.70 992.24 L 1052.18 991.91 L 1054.63 991.57 L 1057.07 991.29 L 1059.50 991.00 L 1061.92 990.70 L 1064.31 990.41 L 1066.69 990.21 L 1069.05 989.90 L 1071.41 989.58 L 1073.75 989.16 L 1076.08 988.67 L 1078.41 988.18 L 1080.72 987.66" stroke="rgb(140,255,190)" stroke-opacity="0.525" stroke-width="1.09" />
  <path d="M 1134.86 998.56 L 1137.51 998.35 L 1140.16 998.21 L 1142.78 997.98 L 1145.40 997.75 L 1148.01 997.45 L 1150.60 997.15 L 1153.18 996.82 L 1155.74 996.48 L 1158.28 996.07 L 1160.81 995.66 L 1163.35 995.34 L 1165.86 994.98 L 1168.33 994.64 L 1170.77 994.29 L 1173.20 993.94 L 1175.65 993.64 L 1178.10 993.33 L 1180.54 993.06 L 1182.92 992.71 L 1185.33 992.49 L 1187.75 992.34 L 1190.11 992.25 L 1192.48 992.16 L 1194.84 992.12 L 1197.17 992.10 L 1199.50 992.01 L 1201.82 991.92 L 1204.13 991.83 L 1206.46 991.80 L 1208.78 991.74 L 1211.09 991.67 L 1213.39 991.60 L 1215.70 991.49 L 1218.01 991.41 L 1220.32 991.32 L 1222.58 991.18 L 1224.83 991.00 L 1227.05 990.74" stroke="rgb(140,255,190)" stroke-opacity="0.525" stroke-width="1.09" />
  <path d="M -0.01 1128.85 L 3.06 1128.30 L 6.34 1128.28 L 8.60 1127.84 L 11.67 1127.05 L 14.58 1126.74 L 18.05 1126.70 L 20.47 1126.22 L 23.76 1125.70 L 26.70 1125.59 L 29.39 1125.07 L 32.55 1124.40 L 36.00 1124.33 L 38.51 1123.55 L 41.48 1123.42 L 45.20 1123.27 L 47.73 1122.52 L 50.59 1122.59 L 53.49 1122.10 L 56.38 1121.66 L 59.83 1121.48 L 62.66 1121.14 L 65.58 1120.38 L 68.62 1120.00 L 71.12 1119.62 L 74.34 1118.94 L 77.44 1118.55 L 80.58 1118.47 L 83.13 1118.27 L 85.98 1117.69 L 89.36 1117.48 L 92.28 1117.06 L 95.38 1116.72 L 98.28 1116.17 L 101.09 1115.66 L 104.16 1115.35 L 106.97 1114.76 L 110.27 1114.24 L 113.35 1113.83 L 115.82 1113.77 L 119.35 1113.09 L 121.97 1112.87 L 125.16 1112.59 L 127.58 1112.34 L 130.89 1111.90 L 133.87 1111.68 L 136.80 1110.66 L 139.96 1110.82 L 142.89 1110.22 L 145.62 1109.52 L 148.73 1109.68 L 151.79 1109.70 L 154.80 1108.98 L 157.47 1108.52 L 160.42 1108.00 L 163.81 1107.69 L 166.25 1107.51 L 169.97 1106.77 L 172.48 1106.42 L 175.38 1106.11 L 178.90 1105.76 L 181.18 1105.49 L 183.94 1105.10 L 187.58 1104.87 L 190.33 1103.94 L 193.24 1103.57 L 196.60 1103.52 L 199.21 1103.23 L 202.24 1102.72 L 205.13 1102.19 L 208.10 1102.32 L 210.93 1101.40 L 214.25 1100.93 L 217.51 1100.84 L 220.40 1099.97 L 223.63 1100.12 L 226.01 1099.90 L 229.29 1099.56 L 231.99 1099.31 L 235.07 1098.53 L 237.90 1097.81 L 240.66 1097.92 L 243.71 1097.38 L 246.73 1097.08 L 249.84 1096.50 L 253.15 1096.23 L 255.82 1095.98 L 258.79 1095.80 L 262.15 1094.64 L 264.40 1095.00 L 268.04 1094.31 L 271.28 1093.93 L 273.58 1093.37 L 276.90 1093.28 L 279.62 1092.59 L 282.87 1092.34 L 285.86 1092.17 L 288.58 1091.47 L 291.54 1091.31 L 295.02 1090.60 L 297.52 1090.29 L 300.54 1089.79 L 303.50 1089.66 L 306.53 1089.07 L 308.99 1088.79 L 312.25 1088.58 L 315.15 1088.56 L 318.14 1087.82 L 321.34 1087.38 L 324.53 1087.31 L 327.14 1086.80 L 330.21 1086.49 L 333.26 1085.94 L 336.79 1085.33 L 338.81 1085.03 L 342.07 1084.97 L 344.81 1084.09 L 348.07 1083.89 L 350.69 1083.78 L 353.95 1083.42 L 356.88 1082.76 L 360.03 1082.82 L 362.93 1081.67 L 366.04 1081.68 L 369.00 1081.14 L 371.80 1080.93 L 374.58 1080.50 L 378.21 1079.99 L 380.94 1079.68 L 383.72 1078.95 L 386.65 1078.94 L 389.54 1078.57 L 392.69 1078.09 L 396.10 1078.15 L 398.88 1077.33 L 401.51 1077.14 L 404.67 1076.80 L 407.65 1076.41 L 410.90 1075.82 L 413.52 1075.38 L 416.39 1075.43 L 419.31 1075.14 L 422.44 1073.99 L 425.53 1073.86 L 428.62 1073.44 L 431.80 1073.18 L 434.67 1072.66 L 437.32 1072.58 L 440.26 1072.44 L 442.82 1071.83 L 445.99 1071.50 L 449.18 1070.91 L 452.44 1070.56 L 454.94 1070.08 L 458.35 1069.49 L 461.05 1069.03 L 463.63 1068.98 L 467.06 1068.43 L 469.94 1068.42 L 473.51 1067.82 L 475.61 1067.88 L 478.98 1067.40 L 482.04 1066.98 L 484.76 1066.44 L 488.11 1065.74 L 490.97 1065.39 L 494.21 1065.03 L 497.14 1065.24 L 499.71 1064.38 L 502.54 1063.98 L 505.90 1063.94 L 508.87 1062.80 L 511.75 1063.05 L 514.68 1062.48 L 517.89 1062.18 L 520.55 1062.19 L 523.33 1061.66 L 527.02 1060.92 L 529.59 1060.65 L 532.53 1060.31 L 535.50 1059.36 L 538.29 1059.09 L 541.61 1059.07 L 544.91 1058.57 L 547.32 1058.44 L 550.41 1058.14 L 553.13 1057.72 L 556.23 1057.07 L 559.34 1056.76 L 562.79 1056.90 L 565.57 1056.05 L 568.42 1055.78 L 571.10 1055.34 L 574.23 1054.76 L 577.32 1054.76 L 579.91 1054.11 L 583.07 1053.81 L 586.56 1053.29 L 589.26 1053.17 L 591.93 1052.31 L 594.75 1052.23 L 598.05 1051.57 L 601.07 1051.41 L 604.08 1051.45 L 606.86 1050.60 L 610.14 1050.02 L 612.78 1049.80 L 616.11 1049.57 L 618.73 1049.22 L 621.76 1049.26 L 624.67 1047.97 L 627.95 1047.66 L 630.88 1047.40 L 633.94 1046.67 L 636.57 1047.07 L 639.74 1046.17 L 642.68 1045.78 L 645.67 1045.49 L 648.18 1045.29 L 651.55 1044.81 L 654.55 1044.48 L 657.73 1043.96 L 660.92 1043.79 L 663.45 1043.17 L 666.48 1043.28 L 669.59 1042.41 L 672.49 1042.00 L 675.34 1042.01 L 678.02 1041.48 L 681.28 1041.22 L 684.15 1040.58 L 687.24 1040.37 L 690.05 1039.56 L 693.39 1039.68 L 696.50 1039.16 L 699.21 1038.83 L 702.13 1038.32 L 705.36 1037.70 L 708.24 1037.27 L 711.18 1037.04 L 713.95 1036.56 L 717.16 1036.43 L 719.92 1035.75 L 722.92 1035.62 L 726.12 1035.50 L 728.96 1035.04 L 731.73 1034.84 L 734.83 1034.10 L 737.53 1034.05 L 740.84 1033.72 L 743.48 1033.06 L 746.95 1032.52 L 749.75 1032.03 L 752.86 1031.64 L 755.79 1031.74 L 758.91 1030.94 L 761.57 1030.96 L 764.54 1030.45 L 767.80 1030.02 L 770.44 1029.65 L 773.54 1028.88 L 776.51 1028.83 L 779.64 1028.28 L 782.97 1028.33 L 785.84 1027.77 L 788.18 1027.36 L 791.20 1027.27 L 794.88 1026.72 L 797.61 1026.07 L 800.07 1026.00 L 803.34 1025.61 L 805.83 1024.94 L 809.23 1024.86 L 812.13 1024.15 L 815.30 1023.91 L 818.25 1023.63 L 821.22 1022.91 L 824.07 1022.34 L 827.14 1022.23 L 829.98 1021.98 L 833.11 1021.56 L 836.25 1021.21 L 839.04 1020.73 L 841.69 1020.05 L 844.84 1019.88 L 848.30 1019.52 L 850.64 1018.81 L 853.99 1018.87 L 857.08 1018.87 L 859.90 1017.73 L 862.44 1017.68 L 865.49 1017.39 L 868.80 1016.45 L 871.44 1016.23 L 875.09 1016.47 L 877.45 1015.99 L 880.55 1015.38 L 883.45 1015.05 L 886.29 1014.80 L 889.53 1014.24 L 892.58 1013.34 L 895.82 1013.72 L 898.63 1013.22 L 901.71 1012.69 L 904.45 1012.34 L 907.54 1011.78 L 910.65 1011.29 L 913.40 1010.88 L 916.52 1010.77 L 919.65 1010.37 L 922.46 1010.17 L 925.27 1009.43 L 927.98 1009.29 L 931.16 1008.95 L 934.12 1008.28 L 937.25 1008.07 L 940.35 1007.87 L 942.95 1007.46 L 946.11 1006.78 L 948.90 1006.26 L 952.05 1005.88 L 955.21 1005.85 L 958.24 1005.13 L 960.66 1004.86 L 963.81 1005.08 L 967.33 1004.20 L 970.10 1003.89 L 973.09 1003.39 L 975.97 1003.26 L 979.28 1002.68 L 981.52 1002.25 L 985.16 1001.82 L 988.31 1001.79 L 990.97 1001.37 L 993.88 1001.00 L 996.56 1000.37 L 999.65 1000.03 L 1000.00 1000.00 L 1002.98 999.62 L 1005.95 999.24 L 1008.93 998.87 L 1011.91 998.50 L 1014.88 998.11 L 1017.86 997.73 L 1020.83 997.35 L 1023.81 996.98 L 1026.79 996.62 L 1029.76 996.24 L 1032.74 995.86 L 1035.72 995.50 L 1038.70 995.14 L 1041.67 994.78 L 1044.65 994.40 L 1047.63 994.05 L 1050.61 993.69 L 1053.59 993.35 L 1056.57 993.01 L 1059.55 992.67 L 1062.53 992.33 L 1065.51 992.00 L 1068.49 991.66 L 1071.47 991.30 L 1074.45 990.94 L 1077.43 990.59 L 1080.41 990.23 L 1083.39 989.87 L 1086.36 989.51 L 1089.34 989.15 L 1092.32 988.78 L 1095.30 988.41 L 1098.27 988.04 L 1101.25 987.68 L 1104.23 987.30 L 1107.20 986.92 L 1110.18 986.54 L 1113.16 986.16 L 1116.13 985.78 L 1119.11 985.40 L 1122.08 985.02 L 1125.06 984.65 L 1128.04 984.28 L 1131.02 983.92 L 1133.99 983.57 L 1136.97 983.21 L 1139.95 982.85 L 1142.93 982.51 L 1145.91 982.15 L 1148.89 981.80 L 1151.87 981.46 L 1154.85 981.11 L 1157.83 980.77 L 1160.81 980.41 L 1163.79 980.05 L 1166.77 979.70 L 1169.75 979.34 L 1172.72 978.97 L 1175.70 978.62 L 1178.68 978.26 L 1181.66 977.90 L 1184.64 977.52 L 1187.61 977.14 L 1190.59 976.75 L 1193.56 976.35 L 1196.53 975.96 L 1199.51 975.58 L 1202.48 975.19 L 1205.46 974.82 L 1208.44 974.44 L 1211.41 974.07 L 1214.39 973.70 L 1217.37 973.34 L 1220.35 972.97 L 1223.32 972.60 L 1226.30 972.22 L 1229.27 971.83 L 1232.25 971.45 L 1235.23 971.07 L 1238.20 970.69 L 1241.18 970.33 L 1244.16 969.97 L 1247.13 969.60 L 1250.11 969.24 L 1253.09 968.88 L 1256.07 968.53 L 1259.05 968.18 L 1262.03 967.82 L 1265.01 967.46 L 1267.98 967.09 L 1270.96 966.73 L 1273.94 966.37 L 1276.92 966.02 L 1279.90 965.67 L 1282.88 965.32 L 1285.86 964.97 L 1288.84 964.61 L 1291.82 964.26 L 1294.79 963.90 L 1297.77 963.53 L 1300.75 963.16 L 1303.73 962.79 L 1306.70 962.42 L 1309.68 962.05 L 1312.66 961.67 L 1315.63 961.30 L 1318.61 960.92 L 1321.59 960.57 L 1324.57 960.21 L 1327.54 959.85 L 1330.52 959.48 L 1333.50 959.10 L 1336.47 958.72 L 1339.45 958.31 L 1342.42 957.90 L 1345.39 957.48 L 1348.36 957.07 L 1351.33 956.64 L 1354.30 956.22 L 1357.27 955.79 L 1360.24 955.36 L 1363.21 954.93 L 1366.18 954.50 L 1369.14 954.07 L 1372.11 953.64 L 1375.08 953.21 L 1378.05 952.78 L 1381.02 952.36 L 1383.99 951.94 L 1386.96 951.51 L 1389.93 951.08 L 1392.90 950.64 L 1395.87 950.22 L 1398.84 949.79 L 1401.81 949.36 L 1404.77 948.92 L 1407.74 948.49 L 1410.71 948.06 L 1413.68 947.62 L 1416.65 947.20 L 1419.62 946.77 L 1422.59 946.35 L 1425.56 945.94 L 1428.53 945.53 L 1431.51 945.13 L 1434.48 944.73 L 1437.45 944.32 L 1440.42 943.91 L 1443.40 943.51 L 1446.37 943.08 L 1449.34 942.68 L 1452.31 942.26 L 1455.28 941.85 L 1458.25 941.43 L 1461.22 941.01 L 1464.19 940.58 L 1467.16 940.15 L 1470.13 939.71 L 1473.10 939.27 L 1476.06 938.84 L 1479.03 938.40 L 1482.00 937.96 L 1484.97 937.52 L 1487.93 937.07 L 1490.90 936.60 L 1493.86 936.13 L 1496.82 935.64 L 1499.78 935.16 L 1502.74 934.68 L 1505.70 934.19 L 1508.67 933.73 L 1511.63 933.29 L 1514.60 932.85 L 1517.57 932.41 L 1520.54 931.98 L 1523.51 931.56 L 1526.48 931.14 L 1529.45 930.72 L 1532.42 930.30 L 1535.39 929.88 L 1538.36 929.45 L 1541.33 929.02 L 1544.30 928.58 L 1547.26 928.15 L 1550.23 927.72 L 1553.21 927.31 L 1556.18 926.91 L 1559.15 926.52 L 1562.13 926.12 L 1565.10 925.73 L 1568.08 925.35 L 1571.05 924.97 L 1574.03 924.59 L 1577.00 924.21 L 1579.98 923.84 L 1582.96 923.46 L 1585.93 923.09 L 1588.91 922.71 L 1591.89 922.34 L 1594.86 921.97 L 1597.84 921.60 L 1600.82 921.23 L 1603.80 920.85 L 1606.77 920.48 L 1609.75 920.08 L 1612.72 919.70 L 1615.70 919.31 L 1618.67 918.92 L 1621.64 918.53 L 1624.62 918.13 L 1627.59 917.72 L 1630.56 917.33 L 1633.54 916.93 L 1636.51 916.55 L 1639.49 916.16 L 1642.46 915.77 L 1645.44 915.38 L 1648.41 914.98 L 1651.38 914.58 L 1654.36 914.20 L 1657.33 913.80 L 1660.30 913.39 L 1663.28 912.98 L 1666.25 912.58 L 1669.22 912.20 L 1672.20 911.81 L 1675.17 911.42 L 1678.15 911.01 L 1681.12 910.61 L 1684.09 910.23 L 1687.07 909.84 L 1690.05 909.47 L 1693.02 909.10 L 1696.00 908.74 L 1698.98 908.37 L 1701.96 907.99 L 1704.93 907.61 L 1707.91 907.23 L 1710.88 906.85 L 1713.86 906.45 L 1716.83 906.05 L 1719.80 905.64 L 1722.77 905.23 L 1725.75 904.84 L 1728.72 904.43 L 1731.69 904.03 L 1734.66 903.62 L 1737.64 903.21 L 1740.61 902.81 L 1743.58 902.43 L 1746.56 902.04 L 1749.53 901.65 L 1752.51 901.26 L 1755.48 900.87 L 1758.46 900.48 L 1761.43 900.08 L 1764.40 899.67 L 1767.37 899.25 L 1770.34 898.82 L 1773.31 898.40 L 1776.28 897.97 L 1779.25 897.55 L 1782.22 897.11 L 1785.19 896.69 L 1788.16 896.26 L 1791.13 895.84 L 1794.10 895.42 L 1797.07 894.98 L 1800.04 894.54 L 1803.01 894.12 L 1805.97 893.68 L 1808.94 893.25 L 1811.91 892.82 L 1814.88 892.36 L 1817.84 891.91 L 1820.81 891.46 L 1823.77 890.99 L 1826.73 890.52 L 1829.70 890.05 L 1832.66 889.60 L 1835.63 889.14 L 1838.59 888.69 L 1841.56 888.23 L 1844.52 887.78 L 1847.49 887.33 L 1850.45 886.85 L 1853.42 886.39 L 1856.38 885.93 L 1859.34 885.46 L 1862.31 885.00 L 1865.27 884.54 L 1868.24 884.07 L 1871.20 883.61 L 1874.16 883.15 L 1877.13 882.68 L 1880.09 882.21 L 1883.05 881.74 L 1886.01 881.25 L 1888.97 880.75 L 1891.93 880.25 L 1894.89 879.76 L 1897.85 879.27 L 1900.81 878.78 L 1903.77 878.29 L 1906.73 877.80 L 1909.69 877.30 L 1912.64 876.80 L 1915.60 876.30 L 1918.56 875.79 L 1921.52 875.29 L 1924.47 874.78 L 1927.43 874.26 L 1930.38 873.75 L 1933.34 873.23 L 1936.29 872.72 L 1939.25 872.22 L 1942.21 871.72 L 1945.17 871.23 L 1948.13 870.74 L 1951.09 870.23 L 1954.05 869.73 L 1957.00 869.24 L 1959.97 868.76 L 1962.93 868.29 L 1965.89 867.83 L 1968.86 867.36 L 1971.82 866.89 L 1974.78 866.43 L 1977.75 865.97 L 1980.71 865.52 L 1983.68 865.07 L 1986.65 864.63 L 1989.61 864.17 L 1992.58 863.73 L 1995.55 863.27 L 1998.51 862.83 L 2001.48 862.39 L 2004.45 861.95 L 2007.41 861.51 L 2010.38 861.05 L 2013.34 860.59 L 2016.31 860.13 L 2019.27 859.66 L 2022.23 859.20" stroke="rgb(245,245,245)" stroke-opacity="0.699" stroke-width="1.09" />
  <path d="M 997.70 997.64 L 1000.31 997.46 L 1002.92 997.27 L 1005.52 997.16 L 1008.11 997.11 L 1010.67 997.00 L 1013.24 996.96 L 1015.79 996.93 L 1018.33 996.87 L 1020.86 996.80 L 1023.38 996.69 L 1025.89 996.57 L 1028.39 996.44 L 1030.89 996.33 L 1033.37 996.20 L 1035.85 996.04 L 1038.31 995.89 L 1040.76 995.77 L 1043.20 995.61 L 1045.62 995.46 L 1048.05 995.40 L 1050.46 995.24 L 1052.86 995.07 L 1055.26 995.05" stroke="rgb(140,255,190)" stroke-opacity="0.524" stroke-width="1.09" />
  <path d="M 996.27 1000.56 L 999.06 1000.19 L 1001.85 999.92 L 1004.62 999.65 L 1007.39 999.37 L 1010.14 999.07 L 1012.87 998.77 L 1015.60 998.44 L 1018.31 998.10 L 1021.01 997.79 L 1023.70 997.49 L 1026.38 997.18 L 1029.03 996.80 L 1031.68 996.43 L 1034.31 996.04 L 1036.94 995.66 L 1039.56 995.24 L 1042.17 994.86 L 1044.76 994.42 L 1047.33 993.98 L 1049.90 993.55 L 1052.46 993.12" stroke="rgb(140,255,190)" stroke-opacity="0.524" stroke-width="1.09" />
  <path d="M 1045.19 998.34 L 1047.36 996.89 L 1049.52 995.45 L 1051.69 994.05 L 1053.82 992.57 L 1055.95 991.10 L 1058.05 989.61 L 1060.17 988.14 L 1062.18 986.56 L 1064.18 984.99 L 1066.19 983.42 L 1068.18 981.84 L 1070.24 980.40 L 1072.30 978.97 L 1074.36 977.60 L 1076.41 976.24 L 1078.42 974.89 L 1080.42 973.51 L 1082.45 972.23 L 1084.45 970.97 L 1086.42 969.70 L 1088.34 968.37 L 1090.26 967.04" stroke="rgb(140,255,190)" stroke-opacity="0.523" stroke-width="1.09" />
  <path d="M 1064.71 996.74 L 1067.05 995.98 L 1069.38 995.23 L 1071.69 994.50 L 1073.99 993.77 L 1076.31 993.04 L 1078.62 992.19 L 1080.92 991.33 L 1083.21 990.47 L 1085.50 989.59 L 1087.76 988.71 L 1090.00 987.82 L 1092.20 986.76 L 1094.38 985.71 L 1096.55 984.65 L 1098.71 983.58 L 1100.82 982.50 L 1102.89 981.36 L 1104.95 980.25" stroke="rgb(140,255,190)" stroke-opacity="0.523" stroke-width="1.09" />
  <path d="M 1002.49 1002.74 L 1000.18 1003.48 L 997.89 1004.22 L 995.60 1004.96 L 993.33 1005.72 L 991.09 1006.53 L 988.84 1007.29 L 986.60 1008.09 L 984.38 1008.89 L 982.18 1009.72 L 979.96 1010.46 L 977.73 1011.15 L 975.51 1011.84 L 973.29 1012.51 L 971.09 1013.18 L 968.90 1013.87 L 966.71 1014.53 L 964.53 1015.19 L 962.36 1015.84 L 960.20 1016.50 L 958.07 1017.21 L 955.94 1017.93 L 953.84 1018.69 L 951.72 1019.34 L 949.61 1019.99 L 947.49 1020.61 L 945.39 1021.27 L 943.29 1021.88 L 941.20 1022.51 L 939.13 1023.15" stroke="rgb(205,165,255)" stroke-opacity="0.462" stroke-width="1.08" />
  <path d="M 996.72 996.96 L 998.60 997.09 L 1000.48 997.27 L 1002.31 997.36 L 1004.12 997.52 L 1005.83 997.79 L 1007.54 998.07 L 1009.18 998.35 L 1010.80 998.69 L 1012.45 999.02 L 1014.10 999.34 L 1015.74 999.62 L 1017.33 999.81 L 1018.97 999.98 L 1020.57 1000.14 L 1022.14 1000.28 L 1023.64 1000.31" stroke="rgb(205,165,255)" stroke-opacity="0.444" stroke-width="1.02" />
  <path d="M 999.72 998.27 L 1000.33 999.39 L 1000.93 1000.43 L 1001.54 1001.59 L 1002.19 1002.73 L 1002.91 1003.80" stroke="rgb(230,230,230)" stroke-opacity="0.382" stroke-width="0.70" />
  <path d="M 994.79 995.69 L 994.66 996.86 L 994.55 998.00 L 994.40 999.15 L 994.29 1000.31 L 994.11 1001.50 L 994.04 1002.66 L 994.02 1003.80 L 994.02 1004.96 L 993.97 1006.11 L 993.91 1007.27 L 993.90 1008.42 L 993.80 1009.50" stroke="rgb(230,230,230)" stroke-opacity="0.381" stroke-width="0.70" />
  <path d="M 998.73 1000.26 L 999.96 999.69 L 1001.15 999.24 L 1002.31 998.69 L 1003.45 998.01 L 1004.56 997.31 L 1005.66 996.56 L 1006.70 995.77 L 1007.73 994.99 L 1008.73 994.25 L 1009.83 993.61 L 1010.94 993.03 L 1011.97 992.36 L 1012.96 991.79" stroke="rgb(230,230,230)" stroke-opacity="0.377" stroke-width="0.69" />
  <path d="M 995.09 999.75 L 995.19 999.03 L 995.31 998.32 L 995.52 997.64 L 995.73 996.96 L 995.80 996.35 L 995.89 995.77 L 995.98 995.21 L 996.06 994.64 L 996.14 994.10" stroke="rgb(230,230,230)" stroke-opacity="0.375" stroke-width="0.68" />
  <path d="M 997.96 999.18 L 997.48 999.89 L 997.00 1000.62 L 996.48 1001.39 L 995.97 1002.15 L 995.46 1002.90 L 994.95 1003.66 L 994.40 1004.26 L 993.89 1004.84 L 993.37 1005.42 L 992.84 1005.99 L 992.42 1006.61 L 991.95 1007.22 L 991.40 1007.80 L 990.87 1008.38" stroke="rgb(230,230,230)" stroke-opacity="0.372" stroke-width="0.67" />
  <path d="M 1003.70 996.66 L 1004.12 998.09 L 1004.60 999.48 L 1005.00 1000.90 L 1005.39 1002.31 L 1005.67 1003.76 L 1006.01 1005.19 L 1006.47 1006.57 L 1006.86 1007.96 L 1007.29 1009.33 L 1007.81 1010.67 L 1008.33 1012.00 L 1008.85 1013.33" stroke="rgb(230,230,230)" stroke-opacity="0.370" stroke-width="0.67" />
  <path d="M 1001.77 1000.88 L 1002.88 1000.39 L 1003.94 999.90 L 1005.04 999.35 L 1006.19 998.85 L 1007.34 998.36 L 1008.47 997.77 L 1009.65 997.23 L 1010.81 996.67 L 1011.92 996.11 L 1013.01 995.59" stroke="rgb(230,230,230)" stroke-opacity="0.368" stroke-width="0.66" />
  <path d="M 996.87 1001.64 L 996.74 1000.17 L 996.62 998.71 L 996.50 997.27 L 996.33 995.84 L 996.30 994.37 L 996.20 992.91 L 996.17 991.46 L 996.14 990.01 L 996.10 988.56 L 996.05 987.12" stroke="rgb(230,230,230)" stroke-opacity="0.367" stroke-width="0.66" />
  <path d="M 994.05 1003.21 L 993.96 1003.14 L 993.88 1003.08 L 993.72 1003.05 L 993.53 1002.97 L 993.35 1002.86 L 993.16 1002.76 L 992.98 1002.72 L 992.74 1002.67" stroke="rgb(230,230,230)" stroke-opacity="0.364" stroke-width="0.65" />
  <path d="M 997.49 995.30 L 998.81 994.90 L 1000.13 994.53 L 1001.49 994.19 L 1002.87 993.86" stroke="rgb(230,230,230)" stroke-opacity="0.362" stroke-width="0.64" />
  <path d="M 997.94 992.63 L 997.69 991.30 L 997.55 990.01 L 997.43 988.72 L 997.28 987.43 L 997.17 986.14 L 997.08 984.84 L 996.97 983.54 L 996.70 982.23 L 996.45 980.93 L 996.16 979.60" stroke="rgb(230,230,230)" stroke-opacity="0.361" stroke-width="0.64" />
  <path d="M 1003.64 1001.70 L 1002.57 1001.90 L 1001.53 1002.12 L 1000.61 1002.38 L 999.66 1002.56 L 998.75 1002.58 L 997.80 1002.62 L 996.86 1002.43" stroke="rgb(230,230,230)" stroke-opacity="0.360" stroke-width="0.64" />
  <path d="M 1006.39 1002.53 L 1007.32 1002.68 L 1007.98 1003.03 L 1008.68 1003.40 L 1009.23 1003.88 L 1009.87 1004.50 L 1010.27 1005.21" stroke="rgb(230,230,230)" stroke-opacity="0.359" stroke-width="0.64" />
  <path d="M 1000.53 999.50 L 999.35 1000.35 L 998.29 1001.28 L 997.11 1002.07 L 995.93 1002.84 L 994.76 1003.62 L 993.54 1004.39 L 992.30 1005.08 L 991.07 1005.76 L 989.84 1006.45 L 988.61 1007.13 L 987.33 1007.77 L 986.04 1008.39 L 984.73 1008.92 L 983.47 1009.56 L 982.23 1010.20 L 980.97 1010.85" stroke="rgb(230,230,230)" stroke-opacity="0.357" stroke-width="0.63" />
  <path d="M 1004.42 998.70 L 1003.76 999.64 L 1003.12 1000.67 L 1002.64 1001.67 L 1002.18 1002.67 L 1001.66 1003.64 L 1001.14 1004.63" stroke="rgb(230,230,230)" stroke-opacity="0.356" stroke-width="0.63" />
  <path d="M 1004.77 1002.30 L 1006.13 1001.82 L 1007.42 1001.12 L 1008.71 1000.44 L 1009.95 999.69 L 1011.15 998.88 L 1012.35 998.06 L 1013.53 997.25 L 1014.69 996.40 L 1015.87 995.55 L 1016.97 994.64 L 1018.13 993.84 L 1019.30 993.05 L 1020.49 992.29" stroke="rgb(230,230,230)" stroke-opacity="0.353" stroke-width="0.62" />
  <path d="M 999.14 1001.40 L 999.09 1002.74 L 999.02 1004.04 L 998.91 1005.39 L 998.78 1006.75 L 999.11 1008.01 L 999.64 1009.11 L 1000.29 1010.09 L 1001.13 1011.11" stroke="rgb(230,230,230)" stroke-opacity="0.350" stroke-width="0.61" />
  <path d="M 999.54 994.55 L 999.76 995.61 L 999.94 996.56 L 999.94 997.58 L 999.90 998.58 L 1000.01 999.51 L 1000.21 1000.49 L 1000.49 1001.40 L 1000.82 1002.19 L 1001.21 1002.69 L 1001.73 1002.98 L 1002.22 1003.33 L 1003.06 1003.85 L 1003.83 1004.27 L 1004.36 1004.52 L 1004.89 1004.78 L 1005.38 1005.21 L 1005.87 1005.62" stroke="rgb(230,230,230)" stroke-opacity="0.349" stroke-width="0.61" />
</g>
</svg>
