{
  "asset": {
    "version": "2.0",
    "generator": "TES-23 Cosmic Ray Renderer"
  },
  "extensionsUsed": [
    "KHR_materials_unlit"
  ],
  "extensionsRequired": [
    "KHR_materials_unlit"
  ],
  "scene": 0,
  "scenes": [
    {
      "nodes": [
        0
      ]
    }
  ],
  "nodes": [
    {
      "name": "CosmicRayEvent",
      "mesh": 0
    }
  ],
  "meshes": [
    {
      "name": "CosmicRayEvent",
      "primitives": [
        {
          "attributes": {
            "POSITION": 0
          },
          "material": 0,
          "mode": 1
        },
        {
          "attributes": {
            "POSITION": 1
          },
          "material": 1,
          "mode": 1
        },
        {
          "attributes": {
            "POSITION": 2
          },
          "material": 2,
          "mode": 1
        }
      ]
    }
  ],
  "materials": [
    {
      "name": "primary",
      "extensions": {
        "KHR_materials_unlit": {}
      },
      "pbrMetallicRoughness": {
        "baseColorFactor": [
          0.961,
          0.961,
          0.961,
          1
        ],
        "metallicFactor": 0,
        "roughnessFactor": 1
      }
    },
    {
      "name": "vertex",
      "extensions": {
        "KHR_materials_unlit": {}
      },
      "pbrMetallicRoughness": {
        "baseColorFactor": [
          0.902,
          0.902,
          0.902,
          0.9
        ],
        "metallicFactor": 0,
        "roughnessFactor": 1
      }
    },
    {
      "name": "em",
      "extensions": {
        "KHR_materials_unlit": {}
      },
      "pbrMetallicRoughness": {
        "baseColorFactor": [
          0.471,
          0.824,
          1,
          1
        ],
        "metallicFactor": 0,
        "roughnessFactor": 1
      }
    }
  ],
  "accessors": [
    {
      "bufferView": 0,
      "byteOffset": 0,
      "componentType": 5126,
      "count": 1354,
      "type": "VEC3",
      "min": [
        -0.08607661724090576,
        -0.9999526739120483,
        0
      ],
      "max": [
        0.08547383546829224,
        1.0223506689071655,
        0
      ]
    },
    {
      "bufferView": 1,
      "byteOffset": 0,
      "componentType": 5126,
      "count": 326,
      "type": "VEC3",
      "min": [
        -0.011242338456213474,
        -0.017026791349053383,
        -0.06946516036987305
      ],
      "max": [
        0.014580341055989265,
        0.01744287833571434,
        0.09635978937149048
      ]
    },
    {
      "bufferView": 2,
      "byteOffset": 0,
      "componentType": 5126,
      "count": 1666,
      "type": "VEC3",
      "min": [
        -0.07359474897384644,
        -0.0045099337585270405,
        -0.227219820022583
      ],
      "max": [
        0.0842670127749443,
        0.3110508620738983,
        0.19703398644924164
      ]
    }
  ],
  "bufferViews": [
    {
      "buffer": 0,
      "byteOffset": 0,
      "byteLength": 16248,
      "target": 34962
    },
    {
      "buffer": 0,
      "byteOffset": 16248,
      "byteLength": 3912,
      "target": 34962
    },
    {
      "buffer": 0,
      "byteOffset": 20160,
      "byteLength": 19992,
      "target": 34962
    }
  ],
  "buffers": [
    {
      "byteLength": 40152,
      "uri": "data:application/octet-stream;base64,"
    }
  ]
}