{
  "asset": {
    "version": "2.0",
    "generator": "TES-23 Cosmic Ray Renderer"
  },
  "extensionsUsed": [
    "KHR_materials_unlit"
  ],
  "extensionsRequired": [
    "KHR_materials_unlit"
  ],
  "scene": 0,
  "scenes": [
    {
      "nodes": [
        0
      ]
    }
  ],
  "nodes": [
    {
      "name": "CosmicRayEvent",
      "mesh": 0
    }
  ],
  "meshes": [
    {
      "name": "CosmicRayEvent",
      "primitives": [
        {
          "attributes": {
            "POSITION": 0
          },
          "material": 0,
          "mode": 1
        },
        {
          "attributes": {
            "POSITION": 1
          },
          "material": 1,
          "mode": 1
        },
        {
          "attributes": {
            "POSITION": 2
          },
          "material": 2,
          "mode": 1
        },
        {
          "attributes": {
            "POSITION": 3
          },
          "material": 3,
          "mode": 1
        }
      ]
    }
  ],
  "materials": [
    {
      "name": "primary",
      "extensions": {
        "KHR_materials_unlit": {}
      },
      "pbrMetallicRoughness": {
        "baseColorFactor": [
          0.961,
          0.961,
          0.961,
          1
        ],
        "metallicFactor": 0,
        "roughnessFactor": 1
      }
    },
    {
      "name": "vertex",
      "extensions": {
        "KHR_materials_unlit": {}
      },
      "pbrMetallicRoughness": {
        "baseColorFactor": [
          0.902,
          0.902,
          0.902,
          0.9
        ],
        "metallicFactor": 0,
        "roughnessFactor": 1
      }
    },
    {
      "name": "em",
      "extensions": {
        "KHR_materials_unlit": {}
      },
      "pbrMetallicRoughness": {
        "baseColorFactor": [
          0.471,
          0.824,
          1,
          1
        ],
        "metallicFactor": 0,
        "roughnessFactor": 1
      }
    },
    {
      "name": "backscatter",
      "extensions": {
        "KHR_materials_unlit": {}
      },
      "pbrMetallicRoughness": {
        "baseColorFactor": [
          1,
          0.824,
          0.529,
          0.95
        ],
        "metallicFactor": 0,
        "roughnessFactor": 1
      }
    }
  ],
  "accessors": [
    {
      "bufferView": 0,
      "byteOffset": 0,
      "componentType": 5126,
      "count": 1588,
      "type": "VEC3",
      "min": [
        -0.9999525547027588,
        -0.5745638012886047,
        0
      ],
      "max": [
        1.0221874713897705,
        0.6671707630157471,
        0
      ]
    },
    {
      "bufferView": 1,
      "byteOffset": 0,
      "componentType": 5126,
      "count": 300,
      "type": "VEC3",
      "min": [
        -0.011497078463435173,
        -0.01565592736005783,
        -0.09040354937314987
      ],
      "max": [
        0.010228455066680908,
        0.012292205356061459,
        0.08038735389709473
      ]
    },
    {
      "bufferView": 2,
      "byteOffset": 0,
      "componentType": 5126,
      "count": 2074,
      "type": "VEC3",
      "min": [
        -0.0033821510151028633,
        -0.0043023196049034595,
        -0.2977353036403656
      ],
      "max": [
        0.33228886127471924,
        0.1441875398159027,
        0.30874451994895935
      ]
    },
    {
      "bufferView": 3,
      "byteOffset": 0,
      "componentType": 5126,
      "count": 1214,
      "type": "VEC3",
      "min": [
        -0.24715344607830048,
        -0.2328067272901535,
        -0.7428954839706421
      ],
      "max": [
        0.10923320055007935,
        0.12663379311561584,
        0.49436694383621216
      ]
    }
  ],
  "bufferViews": [
    {
      "buffer": 0,
      "byteOffset": 0,
      "byteLength": 19056,
      "target": 34962
    },
    {
      "buffer": 0,
      "byteOffset": 19056,
      "byteLength": 3600,
      "target": 34962
    },
    {
      "buffer": 0,
      "byteOffset": 22656,
      "byteLength": 24888,
      "target": 34962
    },
    {
      "buffer": 0,
      "byteOffset": 47544,
      "byteLength": 14568,
      "target": 34962
    }
  ],
  "buffers": [
    {
      "byteLength": 62112,
      "uri": "data:application/octet-stream;base64,"
    }
  ]
}