{
  "asset": {
    "version": "2.0",
    "generator": "TES-23 Cosmic Ray Renderer"
  },
  "extensionsUsed": [
    "KHR_materials_unlit"
  ],
  "extensionsRequired": [
    "KHR_materials_unlit"
  ],
  "scene": 0,
  "scenes": [
    {
      "nodes": [
        0
      ]
    }
  ],
  "nodes": [
    {
      "name": "CosmicRayEvent",
      "mesh": 0
    }
  ],
  "meshes": [
    {
      "name": "CosmicRayEvent",
      "primitives": [
        {
          "attributes": {
            "POSITION": 0
          },
          "material": 0,
          "mode": 1
        },
        {
          "attributes": {
            "POSITION": 1
          },
          "material": 1,
          "mode": 1
        },
        {
          "attributes": {
            "POSITION": 2
          },
          "material": 2,
          "mode": 1
        },
        {
          "attributes": {
            "POSITION": 3
          },
          "material": 3,
          "mode": 1
        },
        {
          "attributes": {
            "POSITION": 4
          },
          "material": 4,
          "mode": 1
        }
      ]
    }
  ],
  "materials": [
    {
      "name": "primary",
      "extensions": {
        "KHR_materials_unlit": {}
      },
      "pbrMetallicRoughness": {
        "baseColorFactor": [
          0.961,
          0.961,
          0.961,
          1
        ],
        "metallicFactor": 0,
        "roughnessFactor": 1
      }
    },
    {
      "name": "vertex",
      "extensions": {
        "KHR_materials_unlit": {}
      },
      "pbrMetallicRoughness": {
        "baseColorFactor": [
          0.902,
          0.902,
          0.902,
          0.9
        ],
        "metallicFactor": 0,
        "roughnessFactor": 1
      }
    },
    {
      "name": "em",
      "extensions": {
        "KHR_materials_unlit": {}
      },
      "pbrMetallicRoughness": {
        "baseColorFactor": [
          0.471,
          0.824,
          1,
          1
        ],
        "metallicFactor": 0,
        "roughnessFactor": 1
      }
    },
    {
      "name": "hadron",
      "extensions": {
        "KHR_materials_unlit": {}
      },
      "pbrMetallicRoughness": {
        "baseColorFactor": [
          0.549,
          1,
          0.745,
          1
        ],
        "metallicFactor": 0,
        "roughnessFactor": 1
      }
    },
    {
      "name": "delta",
      "extensions": {
        "KHR_materials_unlit": {}
      },
      "pbrMetallicRoughness": {
        "baseColorFactor": [
          0.804,
          0.647,
          1,
          1
        ],
        "metallicFactor": 0,
        "roughnessFactor": 1
      }
    }
  ],
  "accessors": [
    {
      "bufferView": 0,
      "byteOffset": 0,
      "componentType": 5126,
      "count": 1714,
      "type": "VEC3",
      "min": [
        -1.0208768844604492,
        -0.7773188352584839,
        0
      ],
      "max": [
        1.000143051147461,
        0.8079957962036133,
        0
      ]
    },
    {
      "bufferView": 1,
      "byteOffset": 0,
      "componentType": 5126,
      "count": 284,
      "type": "VEC3",
      "min": [
        -0.018551142886281013,
        -0.01608467288315296,
        -0.04453815147280693
      ],
      "max": [
        0.015221359208226204,
        0.02118023671209812,
        0.053500790148973465
      ]
    },
    {
      "bufferView": 2,
      "byteOffset": 0,
      "componentType": 5126,
      "count": 1060,
      "type": "VEC3",
      "min": [
        -0.13461637496948242,
        -0.0034224477130919695,
        -0.06874861568212509
      ],
      "max": [
        0.004662822466343641,
        0.10103666037321091,
        0.026022449135780334
      ]
    },
    {
      "bufferView": 3,
      "byteOffset": 0,
      "componentType": 5126,
      "count": 2360,
      "type": "VEC3",
      "min": [
        -0.25039345026016235,
        -0.0027456791140139103,
        -0.3615318238735199
      ],
      "max": [
        0.005717165302485228,
        0.22543300688266754,
        0.3541474938392639
      ]
    },
    {
      "bufferView": 4,
      "byteOffset": 0,
      "componentType": 5126,
      "count": 294,
      "type": "VEC3",
      "min": [
        -0.07064653933048248,
        -0.01354915276169777,
        -0.15931394696235657
      ],
      "max": [
        0.00572971673682332,
        0.034800849854946136,
        0.21415436267852783
      ]
    }
  ],
  "bufferViews": [
    {
      "buffer": 0,
      "byteOffset": 0,
      "byteLength": 20568,
      "target": 34962
    },
    {
      "buffer": 0,
      "byteOffset": 20568,
      "byteLength": 3408,
      "target": 34962
    },
    {
      "buffer": 0,
      "byteOffset": 23976,
      "byteLength": 12720,
      "target": 34962
    },
    {
      "buffer": 0,
      "byteOffset": 36696,
      "byteLength": 28320,
      "target": 34962
    },
    {
      "buffer": 0,
      "byteOffset": 65016,
      "byteLength": 3528,
      "target": 34962
    }
  ],
  "buffers": [
    {
      "byteLength": 68544,
      "uri": "data:application/octet-stream;base64,"
    }
  ]
}