{
  "asset": {
    "version": "2.0",
    "generator": "TES-23 Cosmic Ray Renderer"
  },
  "extensionsUsed": [
    "KHR_materials_unlit"
  ],
  "extensionsRequired": [
    "KHR_materials_unlit"
  ],
  "scene": 0,
  "scenes": [
    {
      "nodes": [
        0
      ]
    }
  ],
  "nodes": [
    {
      "name": "CosmicRayEvent",
      "mesh": 0
    }
  ],
  "meshes": [
    {
      "name": "CosmicRayEvent",
      "primitives": [
        {
          "attributes": {
            "POSITION": 0
          },
          "material": 0,
          "mode": 1
        },
        {
          "attributes": {
            "POSITION": 1
          },
          "material": 1,
          "mode": 1
        },
        {
          "attributes": {
            "POSITION": 2
          },
          "material": 2,
          "mode": 1
        },
        {
          "attributes": {
            "POSITION": 3
          },
          "material": 3,
          "mode": 1
        },
        {
          "attributes": {
            "POSITION": 4
          },
          "material": 4,
          "mode": 1
        }
      ]
    }
  ],
  "materials": [
    {
      "name": "primary",
      "extensions": {
        "KHR_materials_unlit": {}
      },
      "pbrMetallicRoughness": {
        "baseColorFactor": [
          0.961,
          0.961,
          0.961,
          1
        ],
        "metallicFactor": 0,
        "roughnessFactor": 1
      }
    },
    {
      "name": "vertex",
      "extensions": {
        "KHR_materials_unlit": {}
      },
      "pbrMetallicRoughness": {
        "baseColorFactor": [
          0.902,
          0.902,
          0.902,
          0.9
        ],
        "metallicFactor": 0,
        "roughnessFactor": 1
      }
    },
    {
      "name": "em",
      "extensions": {
        "KHR_materials_unlit": {}
      },
      "pbrMetallicRoughness": {
        "baseColorFactor": [
          0.471,
          0.824,
          1,
          1
        ],
        "metallicFactor": 0,
        "roughnessFactor": 1
      }
    },
    {
      "name": "hadron",
      "extensions": {
        "KHR_materials_unlit": {}
      },
      "pbrMetallicRoughness": {
        "baseColorFactor": [
          0.549,
          1,
          0.745,
          1
        ],
        "metallicFactor": 0,
        "roughnessFactor": 1
      }
    },
    {
      "name": "delta",
      "extensions": {
        "KHR_materials_unlit": {}
      },
      "pbrMetallicRoughness": {
        "baseColorFactor": [
          0.804,
          0.647,
          1,
          1
        ],
        "metallicFactor": 0,
        "roughnessFactor": 1
      }
    }
  ],
  "accessors": [
    {
      "bufferView": 0,
      "byteOffset": 0,
      "componentType": 5126,
      "count": 1692,
      "type": "VEC3",
      "min": [
        -0.7696760892868042,
        -0.9995988607406616,
        0
      ],
      "max": [
        0.7660811543464661,
        1.020136833190918,
        0
      ]
    },
    {
      "bufferView": 1,
      "byteOffset": 0,
      "componentType": 5126,
      "count": 330,
      "type": "VEC3",
      "min": [
        -0.024716323241591454,
        -0.015805916860699654,
        -0.09963871538639069
      ],
      "max": [
        0.009783579036593437,
        0.015151897445321083,
        0.06757549196481705
      ]
    },
    {
      "bufferView": 2,
      "byteOffset": 0,
      "componentType": 5126,
      "count": 780,
      "type": "VEC3",
      "min": [
        -0.207133486866951,
        -0.0024988073855638504,
        -0.12355437874794006
      ],
      "max": [
        0.0007561871316283941,
        0.2402660846710205,
        0.03781190142035484
      ]
    },
    {
      "bufferView": 3,
      "byteOffset": 0,
      "componentType": 5126,
      "count": 2654,
      "type": "VEC3",
      "min": [
        -0.22552651166915894,
        -0.08375699818134308,
        -0.623620331287384
      ],
      "max": [
        0.01709842123091221,
        0.31969404220581055,
        0.3819110095500946
      ]
    },
    {
      "bufferView": 4,
      "byteOffset": 0,
      "componentType": 5126,
      "count": 1000,
      "type": "VEC3",
      "min": [
        -0.08032537996768951,
        -0.10214255005121231,
        -0.8729252219200134
      ],
      "max": [
        0.0656166523694992,
        0.12600094079971313,
        1.5750213861465454
      ]
    }
  ],
  "bufferViews": [
    {
      "buffer": 0,
      "byteOffset": 0,
      "byteLength": 20304,
      "target": 34962
    },
    {
      "buffer": 0,
      "byteOffset": 20304,
      "byteLength": 3960,
      "target": 34962
    },
    {
      "buffer": 0,
      "byteOffset": 24264,
      "byteLength": 9360,
      "target": 34962
    },
    {
      "buffer": 0,
      "byteOffset": 33624,
      "byteLength": 31848,
      "target": 34962
    },
    {
      "buffer": 0,
      "byteOffset": 65472,
      "byteLength": 12000,
      "target": 34962
    }
  ],
  "buffers": [
    {
      "byteLength": 77472,
      "uri": "data:application/octet-stream;base64,"
    }
  ]
}