<?xml version="1.0" encoding="UTF-8"?>
<svg xmlns="http://www.w3.org/2000/svg" width="2000" height="2000" viewBox="0 0 2000 2000">
<g fill="none" stroke-linecap="round" stroke-linejoin="round">
  <path d="M 1999.37 1059.46 L 1996.85 1059.46 L 1994.08 1059.14 L 1991.09 1059.10 L 1987.93 1058.36 L 1984.88 1058.50 L 1982.33 1058.24 L 1978.97 1058.18 L 1975.77 1057.83 L 1973.37 1058.03 L 1969.88 1057.70 L 1967.29 1057.48 L 1964.13 1057.28 L 1961.01 1057.54 L 1958.09 1057.16 L 1955.24 1056.82 L 1952.16 1057.02 L 1948.90 1056.67 L 1946.31 1056.29 L 1943.12 1056.35 L 1939.99 1056.02 L 1937.02 1056.09 L 1934.29 1055.69 L 1930.88 1055.65 L 1928.33 1055.43 L 1925.21 1055.38 L 1922.22 1054.76 L 1918.87 1054.86 L 1915.98 1054.80 L 1913.09 1054.06 L 1910.19 1054.17 L 1907.01 1054.01 L 1904.04 1054.05 L 1901.59 1053.66 L 1898.03 1053.17 L 1895.03 1053.22 L 1892.27 1053.11 L 1889.25 1053.09 L 1886.47 1052.65 L 1882.82 1052.20 L 1879.93 1052.70 L 1877.68 1052.16 L 1874.15 1051.73 L 1871.01 1051.83 L 1867.98 1052.04 L 1865.31 1051.41 L 1862.00 1051.07 L 1858.96 1051.29 L 1856.02 1050.76 L 1853.41 1050.71 L 1849.85 1050.25 L 1847.23 1050.26 L 1844.57 1050.34 L 1840.65 1049.95 L 1838.19 1049.43 L 1835.44 1049.24 L 1832.61 1049.34 L 1829.40 1049.20 L 1826.27 1049.00 L 1823.30 1049.28 L 1819.95 1048.56 L 1816.96 1048.58 L 1814.48 1048.17 L 1811.08 1048.22 L 1808.46 1047.96 L 1805.13 1047.64 L 1802.25 1047.74 L 1799.40 1047.45 L 1796.33 1047.31 L 1793.53 1047.70 L 1790.01 1047.16 L 1787.54 1046.81 L 1784.54 1046.97 L 1781.30 1046.24 L 1778.41 1046.59 L 1775.43 1046.22 L 1772.81 1046.16 L 1769.34 1045.88 L 1766.57 1045.66 L 1763.57 1045.92 L 1760.39 1045.24 L 1757.28 1044.98 L 1754.48 1044.81 L 1751.49 1044.52 L 1748.49 1044.75 L 1745.59 1044.40 L 1742.80 1044.41 L 1739.47 1044.00 L 1736.66 1043.68 L 1733.65 1044.17 L 1730.33 1043.14 L 1727.34 1043.09 L 1724.49 1043.01 L 1721.54 1043.46 L 1718.44 1042.21 L 1715.63 1042.68 L 1712.81 1042.41 L 1709.49 1042.84 L 1706.45 1042.25 L 1703.63 1041.60 L 1700.59 1041.64 L 1697.56 1041.47 L 1694.56 1041.59 L 1691.56 1041.22 L 1688.52 1041.06 L 1685.31 1041.16 L 1682.72 1040.64 L 1679.69 1040.31 L 1676.55 1040.28 L 1673.34 1039.92 L 1670.43 1039.81 L 1667.79 1039.79 L 1664.88 1039.70 L 1661.53 1039.34 L 1658.76 1039.15 L 1655.50 1039.02 L 1652.92 1038.67 L 1649.83 1038.70 L 1646.77 1038.54 L 1643.38 1038.41 L 1640.87 1038.67 L 1638.22 1038.18 L 1634.12 1038.10 L 1631.46 1037.67 L 1628.65 1037.18 L 1625.61 1037.45 L 1622.09 1036.97 L 1619.92 1037.07 L 1616.28 1036.73 L 1613.51 1036.85 L 1611.02 1036.46 L 1607.63 1036.01 L 1604.88 1035.93 L 1601.91 1036.10 L 1598.60 1035.74 L 1595.82 1035.45 L 1592.77 1034.97 L 1589.66 1035.26 L 1586.60 1034.61 L 1583.65 1034.92 L 1580.61 1034.72 L 1577.74 1034.65 L 1574.76 1034.48 L 1571.61 1034.25 L 1568.66 1034.10 L 1565.88 1033.32 L 1562.75 1033.39 L 1559.91 1033.25 L 1556.70 1032.95 L 1553.64 1032.94 L 1550.66 1033.01 L 1547.71 1032.68 L 1544.68 1032.86 L 1542.04 1032.06 L 1538.41 1032.14 L 1535.41 1031.86 L 1532.71 1031.69 L 1529.93 1031.31 L 1526.83 1031.38 L 1523.32 1031.31 L 1521.10 1031.08 L 1517.74 1030.87 L 1514.52 1030.99 L 1511.44 1030.65 L 1509.23 1030.31 L 1505.76 1029.94 L 1502.90 1029.76 L 1500.08 1029.71 L 1496.61 1029.50 L 1493.58 1029.25 L 1490.91 1028.97 L 1487.99 1029.16 L 1484.98 1028.76 L 1481.71 1028.84 L 1478.86 1028.36 L 1476.10 1028.69 L 1472.87 1028.51 L 1470.04 1027.69 L 1466.81 1027.67 L 1463.53 1027.78 L 1460.82 1027.50 L 1457.64 1027.15 L 1455.07 1027.07 L 1451.41 1026.79 L 1448.90 1026.61 L 1445.69 1026.81 L 1443.33 1026.16 L 1439.89 1025.94 L 1436.68 1026.22 L 1434.32 1026.23 L 1430.97 1025.35 L 1428.13 1025.35 L 1424.99 1025.62 L 1421.82 1025.28 L 1419.16 1024.74 L 1415.85 1024.51 L 1412.82 1024.58 L 1409.82 1024.83 L 1406.80 1024.52 L 1404.14 1024.17 L 1400.84 1023.67 L 1398.10 1024.32 L 1394.71 1023.60 L 1392.20 1023.35 L 1389.22 1022.79 L 1386.08 1022.80 L 1382.83 1022.99 L 1380.79 1022.80 L 1377.28 1022.55 L 1374.16 1022.15 L 1371.22 1022.25 L 1368.05 1021.63 L 1365.52 1021.79 L 1362.44 1021.58 L 1359.09 1021.26 L 1356.30 1020.83 L 1353.29 1021.26 L 1350.06 1020.97 L 1347.18 1020.31 L 1344.07 1020.22 L 1341.27 1020.41 L 1338.10 1020.15 L 1335.03 1019.97 L 1332.03 1019.44 L 1329.11 1019.81 L 1326.25 1019.26 L 1323.60 1019.19 L 1320.26 1019.33 L 1316.96 1019.23 L 1314.24 1018.43 L 1311.20 1018.47 L 1308.50 1018.25 L 1305.02 1018.11 L 1302.20 1018.15 L 1299.30 1017.47 L 1296.23 1017.32 L 1292.70 1017.57 L 1290.24 1016.99 L 1286.79 1017.11 L 1284.43 1016.88 L 1281.46 1016.82 L 1278.23 1016.23 L 1275.39 1016.62 L 1272.52 1016.36 L 1269.55 1015.96 L 1266.18 1015.51 L 1263.33 1015.99 L 1260.45 1015.47 L 1257.16 1015.64 L 1254.22 1015.25 L 1251.54 1015.36 L 1248.11 1014.23 L 1244.88 1014.93 L 1242.00 1014.45 L 1239.26 1014.02 L 1236.63 1014.19 L 1232.98 1013.97 L 1230.36 1013.66 L 1227.35 1013.65 L 1224.70 1013.45 L 1221.10 1013.15 L 1218.68 1012.86 L 1215.59 1013.21 L 1212.72 1012.47 L 1209.60 1012.50 L 1206.35 1011.99 L 1203.33 1012.04 L 1200.25 1012.01 L 1197.77 1011.44 L 1194.69 1011.52 L 1190.96 1011.57 L 1188.29 1010.86 L 1185.34 1010.73 L 1182.59 1010.77 L 1179.49 1010.46 L 1176.02 1010.16 L 1173.42 1010.00 L 1170.55 1010.37 L 1167.55 1010.04 L 1164.26 1009.81 L 1161.63 1009.35 L 1158.04 1009.25 L 1155.37 1009.29 L 1152.66 1009.36 L 1149.36 1009.08 L 1146.37 1008.61 L 1143.68 1008.50 L 1140.54 1008.04 L 1137.46 1008.17 L 1134.32 1008.31 L 1131.40 1007.97 L 1128.34 1008.07 L 1125.44 1007.52 L 1122.52 1007.67 L 1119.89 1006.92 L 1116.44 1007.41 L 1113.63 1006.49 L 1110.58 1006.66 L 1107.87 1006.58 L 1103.98 1005.86 L 1101.47 1006.57 L 1098.60 1006.28 L 1095.50 1005.88 L 1092.66 1005.35 L 1089.46 1005.03 L 1086.25 1005.14 L 1083.82 1004.97 L 1080.71 1005.03 L 1077.53 1004.76 L 1074.58 1004.84 L 1072.10 1004.07 L 1068.39 1003.62 L 1065.84 1003.57 L 1062.42 1003.91 L 1059.80 1003.21 L 1056.49 1003.27 L 1053.86 1003.09 L 1050.83 1003.14 L 1047.98 1002.78 L 1044.64 1002.94 L 1041.52 1002.70 L 1038.21 1002.31 L 1035.53 1001.99 L 1032.75 1002.31 L 1029.95 1001.91 L 1026.71 1001.59 L 1024.07 1001.68 L 1020.89 1001.28 L 1017.86 1001.27 L 1014.65 1001.09 L 1011.71 1000.50 L 1008.62 1000.86 L 1005.60 1000.61 L 1003.00 999.76 L 1000.00 1000.00 L 997.00 999.83 L 994.01 999.64 L 991.02 999.43 L 988.02 999.23 L 985.03 999.04 L 982.04 998.87 L 979.04 998.70 L 976.05 998.53 L 973.05 998.36 L 970.06 998.17 L 967.06 997.96 L 964.07 997.77 L 961.08 997.58 L 958.08 997.41 L 955.09 997.22 L 952.09 997.04 L 949.10 996.86 L 946.10 996.69 L 943.11 996.53 L 940.11 996.37 L 937.12 996.20 L 934.12 996.03 L 931.13 995.85 L 928.13 995.70 L 925.13 995.52 L 922.14 995.35 L 919.15 995.16 L 916.15 994.98 L 913.16 994.77 L 910.17 994.57 L 907.17 994.35 L 904.18 994.12 L 901.19 993.88 L 898.20 993.64 L 895.21 993.42 L 892.22 993.21 L 889.22 993.00 L 886.23 992.76 L 883.24 992.54 L 880.25 992.32 L 877.26 992.12 L 874.27 991.89 L 871.27 991.67 L 868.28 991.46 L 865.29 991.25 L 862.30 991.05 L 859.30 990.83 L 856.31 990.61 L 853.32 990.39 L 850.33 990.17 L 847.34 989.95 L 844.34 989.73 L 841.35 989.49 L 838.36 989.25 L 835.37 989.01 L 832.38 988.77 L 829.39 988.54 L 826.40 988.31 L 823.41 988.10 L 820.41 987.91 L 817.42 987.72 L 814.42 987.54 L 811.43 987.38 L 808.43 987.22 L 805.44 987.07 L 802.44 986.92 L 799.44 986.77 L 796.45 986.61 L 793.45 986.48 L 790.45 986.33 L 787.46 986.16 L 784.46 985.98 L 781.47 985.82 L 778.47 985.67 L 775.48 985.50 L 772.48 985.33 L 769.49 985.16 L 766.49 984.98 L 763.50 984.80 L 760.50 984.62 L 757.51 984.45 L 754.51 984.29 L 751.52 984.13 L 748.52 983.98 L 745.52 983.86 L 742.53 983.75 L 739.53 983.66 L 736.53 983.56 L 733.53 983.49 L 730.53 983.37 L 727.53 983.26 L 724.54 983.14 L 721.54 983.00 L 718.54 982.87 L 715.54 982.76 L 712.55 982.62 L 709.55 982.47 L 706.55 982.32 L 703.56 982.16 L 700.56 981.99 L 697.57 981.84 L 694.57 981.69 L 691.57 981.56 L 688.58 981.41 L 685.58 981.26 L 682.59 981.10 L 679.59 980.97 L 676.59 980.84 L 673.59 980.72 L 670.60 980.61 L 667.60 980.48 L 664.60 980.35 L 661.60 980.23 L 658.61 980.10 L 655.61 980.00 L 652.61 979.91 L 649.61 979.81 L 646.61 979.71 L 643.61 979.61 L 640.62 979.52 L 637.62 979.41 L 634.62 979.31 L 631.62 979.19 L 628.63 979.05 L 625.63 978.90 L 622.63 978.77 L 619.64 978.63 L 616.64 978.49 L 613.64 978.37 L 610.64 978.24 L 607.65 978.11 L 604.65 977.96 L 601.65 977.81 L 598.66 977.65 L 595.66 977.52 L 592.66 977.40 L 589.67 977.29 L 586.67 977.16 L 583.67 977.03 L 580.67 976.89 L 577.68 976.75 L 574.68 976.60 L 571.69 976.44 L 568.69 976.29 L 565.69 976.17 L 562.70 976.01 L 559.70 975.85 L 556.70 975.69 L 553.71 975.53 L 550.71 975.36 L 547.72 975.18 L 544.72 975.01 L 541.73 974.87 L 538.73 974.75 L 535.73 974.61 L 532.74 974.47 L 529.74 974.30 L 526.74 974.16 L 523.75 974.00 L 520.75 973.87 L 517.75 973.73 L 514.76 973.56 L 511.76 973.40 L 508.77 973.25 L 505.77 973.09 L 502.78 972.93 L 499.78 972.78 L 496.78 972.62 L 493.79 972.47 L 490.79 972.31 L 487.80 972.16 L 484.80 972.01 L 481.81 971.83 L 478.81 971.66 L 475.82 971.46 L 472.82 971.28 L 469.83 971.09 L 466.83 970.91 L 463.84 970.72 L 460.85 970.52 L 457.85 970.31 L 454.86 970.12 L 451.86 969.94 L 448.87 969.77 L 445.87 969.60 L 442.88 969.44 L 439.88 969.28 L 436.88 969.17 L 433.89 969.06 L 430.89 968.96 L 427.89 968.85 L 424.89 968.74 L 421.89 968.65 L 418.90 968.56 L 415.90 968.44 L 412.90 968.32 L 409.90 968.20 L 406.90 968.11 L 403.91 968.02 L 400.91 967.92 L 397.91 967.83 L 394.91 967.72 L 391.91 967.60 L 388.91 967.51 L 385.92 967.40 L 382.92 967.26 L 379.92 967.11 L 376.93 966.97 L 373.93 966.82 L 370.93 966.66 L 367.94 966.49 L 364.94 966.33 L 361.95 966.17 L 358.95 966.02 L 355.96 965.86 L 352.96 965.70 L 349.97 965.52 L 346.97 965.35 L 343.98 965.16 L 340.98 964.97 L 337.99 964.76 L 335.00 964.56 L 332.00 964.36 L 329.01 964.17 L 326.02 963.93 L 323.03 963.69 L 320.04 963.44 L 317.05 963.19 L 314.06 962.95 L 311.07 962.71 L 308.07 962.51 L 305.08 962.31 L 302.09 962.12 L 299.09 961.93 L 296.10 961.72 L 293.11 961.51 L 290.11 961.33 L 287.12 961.12 L 284.13 960.91 L 281.14 960.69 L 278.14 960.47 L 275.15 960.25 L 272.16 960.02 L 269.17 959.78 L 266.18 959.54 L 263.19 959.28 L 260.21 958.99 L 257.22 958.70 L 254.23 958.43 L 251.24 958.16 L 248.26 957.89 L 245.27 957.61 L 242.28 957.33 L 239.30 957.03 L 236.31 956.73 L 233.33 956.45 L 230.34 956.15 L 227.36 955.84 L 224.37 955.53 L 221.39 955.19 L 218.41 954.84 L 215.43 954.49 L 212.46 954.12 L 209.48 953.77 L 206.50 953.42 L 203.52 953.08 L 200.54 952.73 L 197.56 952.39 L 194.57 952.06 L 191.59 951.72 L 188.62 951.36 L 185.64 950.99 L 182.66 950.60 L 179.69 950.22 L 176.71 949.85 L 173.73 949.49 L 170.75 949.18 L 167.76 948.88 L 164.78 948.56 L 161.80 948.25 L 158.82 947.89 L 155.84 947.54 L 152.86 947.21 L 149.87 946.89 L 146.89 946.56 L 143.91 946.24 L 140.93 945.93 L 137.94 945.62 L 134.96 945.33 L 131.97 945.02 L 128.99 944.70 L 126.00 944.39 L 123.02 944.11 L 120.03 943.85 L 117.04 943.59 L 114.05 943.33 L 111.06 943.10 L 108.07 942.88 L 105.08 942.67 L 102.08 942.46 L 99.09 942.24 L 96.10 942.04 L 93.10 941.84 L 90.11 941.63 L 87.12 941.42 L 84.13 941.22 L 81.13 941.02 L 78.14 940.83 L 75.15 940.63 L 72.15 940.42 L 69.16 940.18 L 66.17 939.94 L 63.18 939.73 L 60.19 939.51 L 57.20 939.30 L 54.20 939.09 L 51.21 938.91 L 48.21 938.72 L 45.22 938.57 L 42.22 938.41 L 39.23 938.22 L 36.23 938.04 L 33.24 937.89 L 30.24 937.76 L 27.24 937.63 L 24.25 937.50 L 21.25 937.39 L 18.25 937.29 L 15.25 937.22 L 12.25 937.14 L 9.25 937.09 L 6.25 937.04 L 3.25 936.99 L 0.25 936.93 L -2.75 936.88 L -5.75 936.83 L -8.75 936.78 L -11.75 936.74 L -14.75 936.72 L -17.75 936.70 L -20.75 936.67" stroke="rgb(245,245,245)" stroke-opacity="0.980" stroke-width="1.98" />
  <path d="M 1001.71 998.26 L 998.56 997.88 L 995.42 997.51 L 992.29 997.12 L 989.17 996.81 L 986.05 996.52 L 982.95 996.27 L 979.86 996.03 L 976.79 995.65 L 973.73 995.28 L 970.70 994.84 L 967.68 994.39 L 964.67 994.01 L 961.68 993.63 L 958.69 993.24 L 955.72 992.91 L 952.77 992.56 L 949.82 992.22 L 946.89 991.87 L 943.98 991.55" stroke="rgb(120,210,255)" stroke-opacity="0.851" stroke-width="1.62" />
  <path d="M 1001.32 999.89 L 997.85 999.80 L 994.40 999.71 L 990.96 999.64 L 987.53 999.57 L 984.11 999.50 L 980.71 999.42 L 977.32 999.34 L 973.95 999.26 L 970.59 999.21 L 967.24 999.19 L 963.91 999.19 L 960.59 999.18 L 957.28 999.16 L 953.98 999.16 L 950.70 999.17 L 947.43 999.21 L 944.18 999.25 L 940.93 999.30 L 937.70 999.31 L 934.49 999.35 L 931.28 999.37 L 928.09 999.39 L 924.91 999.41 L 921.75 999.47 L 918.59 999.53 L 915.45 999.60 L 912.33 999.67 L 909.21 999.72 L 906.11 999.78" stroke="rgb(120,210,255)" stroke-opacity="0.849" stroke-width="1.62" />
  <path d="M 1000.45 998.95 L 997.04 998.71 L 993.65 998.52 L 990.28 998.28 L 986.92 998.07 L 983.57 997.89 L 980.24 997.75 L 976.92 997.57 L 973.61 997.41 L 970.32 997.25 L 967.04 997.08 L 963.78 996.89 L 960.52 996.75 L 957.29 996.60 L 954.06 996.44 L 950.85 996.28 L 947.65 996.09 L 944.47 995.90 L 941.29 995.77 L 938.13 995.69 L 934.98 995.64 L 931.84 995.58 L 928.72 995.53 L 925.60 995.48 L 922.50 995.47 L 919.41 995.50 L 916.33 995.56 L 913.26 995.62 L 910.21 995.73 L 907.16 995.82 L 904.13 995.89 L 901.11 995.96 L 898.10 996.03 L 895.11 996.10 L 892.12 996.17 L 889.15 996.21 L 886.19 996.27 L 883.24 996.32 L 880.30 996.36 L 877.38 996.39 L 874.46 996.44 L 871.56 996.44 L 868.68 996.34 L 865.81 996.27 L 862.94 996.23 L 860.09 996.18 L 857.25 996.10 L 854.42 996.02 L 851.61 995.93 L 848.80 995.82 L 846.02 995.67" stroke="rgb(120,210,255)" stroke-opacity="0.848" stroke-width="1.62" />
  <path d="M 921.19 999.92 L 917.86 999.94 L 914.53 999.93 L 911.22 999.90 L 907.92 999.80 L 904.64 999.71 L 901.37 999.62 L 898.12 999.54 L 894.88 999.44 L 891.65 999.31 L 888.43 999.16 L 885.22 999.00 L 882.03 998.83 L 878.85 998.69 L 875.68 998.55 L 872.52 998.42 L 869.37 998.27 L 866.23 998.13 L 863.11 998.00 L 860.00 997.84 L 856.91 997.76 L 853.82 997.66 L 850.75 997.55 L 847.69 997.44 L 844.64 997.35 L 841.61 997.27 L 838.58 997.20 L 835.57 997.14 L 832.57 997.10 L 829.59 997.00 L 826.62 996.86 L 823.67 996.73 L 820.74 996.59 L 817.82 996.44 L 814.91 996.30 L 812.01 996.24 L 809.13 996.21 L 806.27 996.21 L 803.42 996.23 L 800.57 996.28 L 797.73 996.35 L 794.91 996.42 L 792.09 996.43" stroke="rgb(120,210,255)" stroke-opacity="0.847" stroke-width="1.61" />
  <path d="M 947.65 996.09 L 944.77 995.48 L 941.90 994.92 L 939.03 994.39 L 936.18 993.87 L 933.34 993.34 L 930.53 992.68 L 927.74 992.06 L 924.95 991.44 L 922.19 990.81 L 919.43 990.24 L 916.68 989.66 L 913.94 989.08 L 911.23 988.54 L 908.51 988.04 L 905.80 987.58 L 903.09 987.21 L 900.39 986.77 L 897.71 986.32 L 895.03 985.87 L 892.37 985.47 L 889.74 984.97 L 887.15 984.43 L 884.55 983.96 L 881.96 983.57 L 879.36 983.27 L 876.77 983.07 L 874.16 982.86" stroke="rgb(120,210,255)" stroke-opacity="0.465" stroke-width="1.61" />
  <path d="M 997.15 999.93 L 993.80 999.57 L 990.45 999.25 L 987.12 998.96 L 983.80 998.67 L 980.49 998.36 L 977.20 998.06 L 973.91 997.77 L 970.64 997.49 L 967.39 997.21 L 964.14 996.92 L 960.91 996.63 L 957.70 996.31 L 954.50 996.00 L 951.30 995.72 L 948.13 995.44 L 944.96 995.20 L 941.80 994.96 L 938.66 994.69 L 935.54 994.36 L 932.42 994.07 L 929.33 993.69 L 926.25 993.31 L 923.18 992.95 L 920.13 992.59 L 917.08 992.26 L 914.04 991.98 L 911.02 991.69 L 908.00 991.44 L 904.99 991.18 L 902.01 990.83 L 899.03 990.49 L 896.07 990.16 L 893.12 989.81 L 890.18 989.49 L 887.26 989.13 L 884.34 988.82" stroke="rgb(120,210,255)" stroke-opacity="0.846" stroke-width="1.61" />
  <path d="M 1002.82 1002.11 L 999.87 1001.79 L 996.93 1001.51 L 993.99 1001.21 L 991.08 1000.96 L 988.16 1000.76 L 985.26 1000.57 L 982.36 1000.43 L 979.49 1000.34 L 976.62 1000.25 L 973.76 1000.18 L 970.92 1000.08 L 968.09 1000.03 L 965.28 999.94 L 962.48 1000.00 L 959.71 1000.11 L 956.96 1000.12 L 954.21 1000.16 L 951.48 1000.31 L 948.76 1000.46 L 946.04 1000.62 L 943.33 1000.68 L 940.63 1000.74 L 937.94 1000.81 L 935.27 1000.87 L 932.60 1000.93 L 929.94 1000.87 L 927.29 1000.80 L 924.65 1000.72 L 922.03 1000.62 L 919.42 1000.50 L 916.82 1000.38 L 914.24 1000.25 L 911.67 1000.12 L 909.10 999.89 L 906.58 999.52 L 904.05 999.16 L 901.54 998.79 L 899.04 998.37" stroke="rgb(120,210,255)" stroke-opacity="0.465" stroke-width="1.61" />
  <path d="M 1004.47 1002.15 L 1001.05 1001.94 L 997.65 1001.74 L 994.25 1001.56 L 990.87 1001.34 L 987.51 1001.12 L 984.16 1000.91 L 980.82 1000.70 L 977.50 1000.51 L 974.19 1000.28 L 970.89 1000.01 L 967.61 999.73 L 964.35 999.44 L 961.10 999.14 L 957.86 998.85 L 954.63 998.63" stroke="rgb(120,210,255)" stroke-opacity="0.845" stroke-width="1.61" />
  <path d="M 1002.70 998.96 L 999.26 998.87 L 995.84 998.78 L 992.43 998.67 L 989.03 998.55 L 985.65 998.36 L 982.29 998.15 L 978.95 997.94 L 975.62 997.75 L 972.31 997.46 L 969.02 997.18 L 965.74 996.90 L 962.48 996.63 L 959.23 996.34 L 956.00 996.09 L 952.78 995.85 L 949.57 995.67 L 946.37 995.49 L 943.19 995.27 L 940.02 995.08 L 936.86 994.90 L 933.71 994.70 L 930.58 994.49 L 927.46 994.30 L 924.36 994.10 L 921.26 993.90 L 918.17 993.73 L 915.10 993.56 L 912.03 993.39 L 908.98 993.22 L 905.94 993.03 L 902.91 992.82 L 899.90 992.60 L 896.90 992.40 L 893.91 992.20 L 890.92 992.02 L 887.96 991.83 L 885.00 991.66 L 882.05 991.51 L 879.12 991.31 L 876.20 991.08 L 873.29 990.85 L 870.39 990.62 L 867.50 990.40 L 864.62 990.18 L 861.75 990.01 L 858.89 989.78 L 856.04 989.57 L 853.21 989.32 L 850.38 989.08 L 847.58 988.79 L 844.78 988.51 L 841.99 988.23 L 839.22 987.96 L 836.45 987.69 L 833.70 987.42 L 830.96 987.13 L 828.23 986.84 L 825.51 986.54 L 822.80 986.22 L 820.11 985.89 L 817.43 985.55 L 814.77 985.19 L 812.11 984.82 L 809.47 984.45 L 806.83 984.14 L 804.19 983.87 L 801.57 983.58 L 798.96 983.30 L 796.36 983.04 L 793.77 982.78 L 791.19 982.50 L 788.62 982.22 L 786.06 981.95 L 783.51 981.71 L 780.98 981.46 L 778.45 981.20 L 775.94 980.93 L 773.44 980.66 L 770.95 980.41 L 768.47 980.17 L 766.00 979.93 L 763.54 979.69 L 761.09 979.46 L 758.66 979.22 L 756.23 978.97 L 753.81 978.73 L 751.40 978.50 L 749.00 978.27 L 746.60 978.04 L 744.22 977.79 L 741.85 977.57 L 739.48 977.34 L 737.12 977.12 L 734.77 976.90 L 732.44 976.65 L 730.11 976.38 L 727.79 976.10 L 725.49 975.77 L 723.19 975.43 L 720.91 975.12 L 718.63 974.78 L 716.37 974.42 L 714.12 974.08 L 711.87 973.74" stroke="rgb(120,210,255)" stroke-opacity="0.845" stroke-width="1.61" />
  <path d="M 998.64 1001.53 L 995.65 1001.38 L 992.68 1001.19 L 989.73 1000.99 L 986.79 1000.77 L 983.86 1000.58 L 980.95 1000.40 L 978.06 1000.17 L 975.18 999.93 L 972.30 999.79 L 969.42 999.66 L 966.56 999.49 L 963.70 999.34 L 960.86 999.17 L 958.03 999.02 L 955.21 998.90 L 952.40 998.83 L 949.59 998.84 L 946.80 998.88 L 944.02 998.83 L 941.25 998.78 L 938.50 998.72 L 935.75 998.66 L 933.01 998.63 L 930.29 998.60 L 927.57 998.60 L 924.87 998.68 L 922.18 998.74 L 919.50 998.81 L 916.83 998.88 L 914.17 998.98 L 911.52 999.05 L 908.88 999.08 L 906.25 999.15 L 903.64 999.20 L 901.03 999.18 L 898.43 999.15 L 895.84 999.12 L 893.27 999.02 L 890.70 998.93 L 888.15 998.83 L 885.60 998.74 L 883.06 998.66 L 880.54 998.57 L 878.03 998.45 L 875.53 998.36 L 873.04 998.26 L 870.56 998.16 L 868.08 998.09 L 865.62 998.00 L 863.18 997.91 L 860.74 997.80 L 858.32 997.72 L 855.91 997.62" stroke="rgb(120,210,255)" stroke-opacity="0.464" stroke-width="1.61" />
  <path d="M 868.68 996.34 L 865.61 995.95 L 862.55 995.55 L 859.50 995.17 L 856.45 994.95 L 853.41 994.76 L 850.38 994.57 L 847.36 994.42 L 844.36 994.36 L 841.37 994.43 L 838.40 994.58" stroke="rgb(120,210,255)" stroke-opacity="0.463" stroke-width="1.60" />
  <path d="M 1000.81 1002.08 L 997.44 1001.95 L 994.09 1001.86" stroke="rgb(120,210,255)" stroke-opacity="0.842" stroke-width="1.60" />
  <path d="M 1002.15 995.35 L 998.75 995.19 L 995.37 995.06 L 992.00 994.90 L 988.64 994.73 L 985.30 994.57 L 981.97 994.39 L 978.66 994.23 L 975.35 994.07 L 972.06 993.89 L 968.79 993.72 L 965.52 993.54 L 962.28 993.31 L 959.04 993.13 L 955.81 992.96 L 952.60 992.77 L 949.40 992.60 L 946.22 992.44 L 943.04 992.31 L 939.88 992.18 L 936.73 992.03 L 933.59 991.87 L 930.47 991.65 L 927.37 991.45 L 924.27 991.24 L 921.19 991.04 L 918.12 990.84 L 915.06 990.64 L 912.01 990.52 L 908.97 990.41 L 905.94 990.31 L 902.93 990.27 L 899.92 990.22 L 896.93 990.17 L 893.95 990.04 L 890.99 989.86 L 888.04 989.70 L 885.10 989.55 L 882.17 989.42" stroke="rgb(120,210,255)" stroke-opacity="0.840" stroke-width="1.59" />
  <path d="M 1001.26 1004.25 L 998.59 1004.06 L 995.93 1003.93 L 993.28 1003.82 L 990.64 1003.68 L 988.01 1003.67 L 985.39 1003.54 L 982.78 1003.38 L 980.19 1003.20 L 977.60 1003.03 L 975.03 1002.83 L 972.47 1002.67 L 969.92 1002.38 L 967.40 1002.03 L 964.87 1001.80 L 962.34 1001.66 L 959.83 1001.53 L 957.33 1001.34 L 954.84 1001.18 L 952.35 1001.02 L 949.88 1000.86 L 947.42 1000.81 L 944.97 1000.74 L 942.53 1000.69 L 940.12 1000.69 L 937.71 1000.70 L 935.32 1000.72 L 932.93 1000.62 L 930.56 1000.53 L 928.21 1000.36 L 925.85 1000.21 L 923.51 1000.07 L 921.19 999.92 L 918.87 999.77 L 916.57 999.67 L 914.29 999.55 L 912.03 999.47 L 909.78 999.39 L 907.51 999.34 L 905.26 999.26 L 903.02 999.07 L 900.78 998.90 L 898.54 998.69 L 896.30 998.47 L 894.08 998.23 L 891.87 998.00 L 889.66 997.91 L 887.45 997.82 L 885.26 997.78" stroke="rgb(120,210,255)" stroke-opacity="0.456" stroke-width="1.56" />
  <path d="M 995.69 997.30 L 992.89 997.16 L 990.11 997.13 L 987.34 997.08 L 984.57 997.00" stroke="rgb(120,210,255)" stroke-opacity="0.454" stroke-width="1.55" />
  <path d="M 962.37 994.95 L 960.60 993.78 L 958.85 992.63 L 957.07 991.54 L 955.34 990.42 L 953.68 989.26 L 952.02 988.12 L 950.37 986.98 L 948.73 985.80 L 947.23 984.47 L 945.64 983.21 L 944.14 981.90 L 942.69 980.56 L 941.28 979.25 L 939.92 977.89 L 938.57 976.54 L 937.28 975.15" stroke="rgb(140,255,190)" stroke-opacity="0.567" stroke-width="1.23" />
  <path d="M 998.79 1000.13 L 996.04 1000.76 L 993.30 1001.38 L 990.60 1002.00 L 987.91 1002.63 L 985.26 1003.24 L 982.62 1003.85 L 979.99 1004.42 L 977.40 1004.97 L 974.83 1005.51 L 972.26 1006.01 L 969.70 1006.50 L 967.15 1007.01 L 964.61 1007.51 L 962.09 1008.01 L 959.57 1008.51 L 957.10 1008.99 L 954.64 1009.49 L 952.19 1009.94 L 949.75 1010.39 L 947.31 1010.81 L 944.86 1011.23 L 942.41 1011.68 L 939.97 1012.15 L 937.54 1012.61 L 935.10 1013.07 L 932.67 1013.57 L 930.26 1014.06 L 927.85 1014.54 L 925.43 1015.02 L 923.02 1015.50 L 920.62 1016.00 L 918.21 1016.53 L 915.85 1017.08 L 913.52 1017.58 L 911.21 1018.06 L 908.92 1018.57 L 906.64 1019.09 L 904.36 1019.57 L 902.11 1020.05 L 899.85 1020.54 L 897.59 1021.05 L 895.33 1021.55 L 893.05 1022.02 L 890.77 1022.50 L 888.49 1022.98 L 886.19 1023.42 L 883.88 1023.90" stroke="rgb(205,165,255)" stroke-opacity="0.716" stroke-width="1.23" />
  <path d="M 971.07 995.89 L 969.14 994.76 L 967.23 993.60 L 965.32 992.48 L 963.42 991.37 L 961.51 990.25 L 959.69 989.03 L 957.87 987.82 L 956.08 986.60 L 954.30 985.35 L 952.57 984.07 L 950.85 982.79 L 949.15 981.54 L 947.49 980.24 L 945.83 978.94 L 944.19 977.66 L 942.55 976.38 L 940.89 975.16 L 939.24 973.94 L 937.69 972.65" stroke="rgb(140,255,190)" stroke-opacity="0.558" stroke-width="1.21" />
  <path d="M 1000.83 1002.44 L 998.55 1002.25 L 996.28 1002.10 L 994.02 1002.04 L 991.77 1001.97 L 989.53 1001.91 L 987.30 1001.97 L 985.09 1002.04 L 982.89 1002.08 L 980.70 1002.13 L 978.52 1002.24 L 976.36 1002.51 L 974.20 1002.78 L 972.05 1003.06 L 969.92 1003.39 L 967.79 1003.72 L 965.69 1004.15 L 963.59 1004.56" stroke="rgb(140,255,190)" stroke-opacity="0.554" stroke-width="1.19" />
  <path d="M 996.99 1002.81 L 993.94 1002.13 L 990.90 1001.46 L 987.88 1000.80 L 984.87 1000.14 L 981.86 999.49 L 978.88 998.83 L 975.89 998.20 L 972.92 997.62 L 969.95 997.04 L 966.99 996.47 L 964.05 995.93 L 961.11 995.41 L 958.17 994.92 L 955.25 994.42 L 952.36 993.85 L 949.47 993.29 L 946.60 992.72 L 943.77 992.04 L 940.94 991.38" stroke="rgb(205,165,255)" stroke-opacity="0.700" stroke-width="1.19" />
  <path d="M 842.21 988.01 L 840.29 986.78 L 838.39 985.55 L 836.43 984.44 L 834.42 983.47 L 832.43 982.53 L 830.45 981.60 L 828.46 980.75 L 826.49 979.95 L 824.53 979.15 L 822.51 978.38 L 820.50 977.68 L 818.52 976.90 L 816.57 976.08 L 814.64 975.21 L 812.69 974.39 L 810.77 973.53 L 808.80 972.71 L 806.83 971.91 L 804.88 971.17 L 802.97 970.46 L 801.08 969.79 L 799.16 969.14 L 797.27 968.47 L 795.39 967.80 L 793.47 967.18 L 791.56 966.53 L 789.65 965.88 L 787.75 965.22 L 785.86 964.57 L 783.97 963.91 L 782.09 963.24 L 780.23 962.57 L 778.40 961.82 L 776.57 961.12 L 774.73 960.47 L 772.89 959.83 L 771.10 959.25 L 769.31 958.67 L 767.50 958.13 L 765.71 957.50 L 763.92 956.90 L 762.13 956.27 L 760.32 955.72" stroke="rgb(140,255,190)" stroke-opacity="0.553" stroke-width="1.19" />
  <path d="M 734.41 998.54 L 731.15 999.20 L 727.89 999.93 L 724.65 1000.67 L 721.41 1001.37 L 718.20 1002.05 L 715.01 1002.68 L 711.83 1003.33 L 708.66 1003.93 L 705.49 1004.47 L 702.33 1005.02 L 699.20 1005.54 L 696.09 1006.06 L 692.98 1006.56 L 689.89 1007.02 L 686.81 1007.47 L 683.75 1007.88 L 680.69 1008.26 L 677.65 1008.61 L 674.63 1008.96 L 671.63 1009.33 L 668.63 1009.68 L 665.66 1010.02 L 662.69 1010.41 L 659.75 1010.80 L 656.82 1011.20 L 653.92 1011.57 L 651.04 1011.97 L 648.17 1012.38 L 645.30 1012.73 L 642.43 1013.06 L 639.56 1013.40 L 636.71 1013.73 L 633.86 1014.07 L 631.03 1014.40 L 628.20 1014.75 L 625.40 1015.07 L 622.62 1015.39 L 619.84 1015.70 L 617.08 1015.98 L 614.32 1016.21 L 611.60 1016.39 L 608.89 1016.55 L 606.15 1016.75 L 603.43 1016.96 L 600.71 1017.19 L 598.00 1017.42 L 595.30 1017.64 L 592.60 1017.86 L 589.92 1018.04 L 587.24 1018.20 L 584.58 1018.36 L 581.94 1018.54 L 579.32 1018.72 L 576.70 1018.84 L 574.09 1018.96 L 571.48 1019.07 L 568.89 1019.18 L 566.31 1019.27 L 563.73 1019.37 L 561.16 1019.47 L 558.61 1019.57" stroke="rgb(140,255,190)" stroke-opacity="0.736" stroke-width="1.18" />
  <path d="M 812.83 1009.06 L 810.26 1010.50 L 807.72 1011.94 L 805.18 1013.37 L 802.66 1014.75 L 800.12 1016.14 L 797.59 1017.51 L 795.09 1018.87 L 792.55 1020.17 L 790.04 1021.44 L 787.55 1022.68 L 785.07 1023.91 L 782.63 1025.16 L 780.25 1026.42 L 777.87 1027.68 L 775.51 1028.95 L 773.14 1030.24 L 770.76 1031.49 L 768.36 1032.71 L 765.95 1033.92 L 763.52 1035.15 L 761.11 1036.39 L 758.70 1037.61 L 756.27 1038.80 L 753.79 1039.98 L 751.33 1041.18 L 748.88 1042.38 L 746.44 1043.58 L 743.98 1044.84 L 741.53 1046.05 L 739.06 1047.27 L 736.58 1048.52 L 734.11 1049.78 L 731.66 1050.96 L 729.23 1052.14 L 726.81 1053.30 L 724.36 1054.45 L 721.92 1055.58 L 719.48 1056.67 L 717.03 1057.75 L 714.58 1058.82 L 712.16 1059.90 L 709.72 1060.97 L 707.29 1062.04 L 704.88 1063.10 L 702.47 1064.15 L 700.06 1065.17 L 697.67 1066.18 L 695.28 1067.19 L 692.91 1068.20 L 690.51 1069.18 L 688.12 1070.16 L 685.77 1071.16 L 683.38 1072.10 L 681.04 1073.02 L 678.68 1073.96 L 676.33 1074.91 L 674.01 1075.90 L 671.70 1076.89 L 669.40 1077.89 L 667.11 1078.90 L 664.83 1079.89" stroke="rgb(140,255,190)" stroke-opacity="0.736" stroke-width="1.18" />
  <path d="M 926.95 987.12 L 924.55 987.03 L 922.09 986.99 L 919.61 986.91 L 917.14 986.86 L 914.71 986.87 L 912.31 986.88 L 909.91 986.83 L 907.51 986.76 L 905.08 986.66 L 902.66 986.52 L 900.29 986.36 L 897.91 986.22 L 895.50 986.03 L 893.07 985.78 L 890.63 985.54 L 888.21 985.29 L 885.85 985.07 L 883.50 984.86 L 881.16 984.54 L 878.84 984.22 L 876.52 983.94 L 874.23 983.62" stroke="rgb(205,165,255)" stroke-opacity="0.698" stroke-width="1.18" />
  <path d="M 960.96 997.25 L 958.29 996.49 L 955.68 995.71 L 953.14 994.96 L 950.66 994.21 L 948.23 993.43 L 945.81 992.68 L 943.44 991.92 L 941.11 991.11 L 938.78 990.37 L 936.46 989.62 L 934.12 988.91 L 931.75 988.25 L 929.37 987.68 L 926.95 987.12 L 924.57 986.61 L 922.18 986.13 L 919.82 985.67 L 917.44 985.13 L 915.08 984.53 L 912.74 983.99 L 910.39 983.49 L 908.06 982.97 L 905.74 982.44" stroke="rgb(205,165,255)" stroke-opacity="0.697" stroke-width="1.18" />
  <path d="M 999.45 1000.52 L 996.04 1000.06 L 992.63 999.61 L 989.24 999.16 L 985.86 998.71 L 982.50 998.26 L 979.16 997.79 L 975.82 997.32 L 972.50 996.85 L 969.20 996.39 L 965.90 995.94 L 962.62 995.46 L 959.36 994.98 L 956.10 994.56 L 952.86 994.13 L 949.63 993.70 L 946.41 993.25 L 943.21 992.80 L 940.03 992.32 L 936.86 991.85 L 933.71 991.33 L 930.57 990.84 L 927.45 990.35 L 924.33 989.87 L 921.22 989.44 L 918.13 989.01 L 915.05 988.50 L 911.99 987.99 L 908.95 987.47 L 905.92 986.95 L 902.90 986.43 L 899.89 985.91 L 896.90 985.41 L 893.92 984.91 L 890.94 984.45 L 887.97 984.01 L 885.02 983.57 L 882.07 983.17 L 879.14 982.74 L 876.22 982.32 L 873.31 981.91 L 870.42 981.50 L 867.53 981.09 L 864.66 980.67 L 861.79 980.26 L 858.94 979.86 L 856.09 979.47 L 853.26 979.08 L 850.43 978.71 L 847.62 978.34 L 844.81 977.97 L 842.02 977.61 L 839.24 977.25 L 836.48 976.89 L 833.72 976.54 L 830.96 976.20 L 828.23 975.87 L 825.50 975.54 L 822.78 975.20 L 820.08 974.85 L 817.38 974.49 L 814.70 974.14 L 812.03 973.80 L 809.37 973.49" stroke="rgb(140,255,190)" stroke-opacity="0.734" stroke-width="1.18" />
  <path d="M 1002.14 1002.89 L 998.76 1002.34 L 995.39 1001.79 L 992.05 1001.26 L 988.71 1000.72 L 985.39 1000.19 L 982.08 999.66 L 978.77 999.17 L 975.48 998.66 L 972.21 998.14 L 968.94 997.66 L 965.68 997.16 L 962.45 996.63 L 959.23 996.10 L 956.02 995.57 L 952.83 995.01" stroke="rgb(140,255,190)" stroke-opacity="0.734" stroke-width="1.18" />
  <path d="M 996.90 998.45 L 993.42 998.16 L 989.96 997.89 L 986.51 997.58 L 983.08 997.26 L 979.66 996.94 L 976.26 996.61 L 972.87 996.28 L 969.50 995.91 L 966.15 995.58 L 962.81 995.24 L 959.48 994.90 L 956.16 994.58 L 952.86 994.28 L 949.57 993.98 L 946.29 993.69 L 943.02 993.39 L 939.77 993.09 L 936.53 992.79 L 933.31 992.49 L 930.10 992.20 L 926.90 991.92 L 923.71 991.64 L 920.54 991.39 L 917.37 991.16 L 914.22 990.90 L 911.08 990.65 L 907.95 990.41 L 904.84 990.14 L 901.75 989.88 L 898.66 989.64 L 895.59 989.43 L 892.52 989.23 L 889.47 989.02 L 886.43 988.83 L 883.40 988.65 L 880.38 988.49 L 877.38 988.40 L 874.38 988.32 L 871.39 988.27 L 868.42 988.22 L 865.46 988.19 L 862.52 988.16 L 859.58 988.16 L 856.66 988.16 L 853.74 988.17 L 850.84 988.14 L 847.95 988.12 L 845.07 988.07 L 842.21 988.01 L 839.35 987.96 L 836.51 987.91 L 833.69 987.84 L 830.87 987.75 L 828.06 987.68 L 825.26 987.63" stroke="rgb(140,255,190)" stroke-opacity="0.734" stroke-width="1.18" />
  <path d="M 771.10 959.25 L 769.33 957.71 L 767.49 956.29 L 765.71 954.80 L 763.99 953.27 L 762.33 951.70 L 760.65 950.19 L 759.01 948.66 L 757.32 947.18 L 755.64 945.70 L 754.11 944.06 L 752.62 942.39 L 751.14 940.71 L 749.67 939.03 L 748.30 937.28" stroke="rgb(140,255,190)" stroke-opacity="0.549" stroke-width="1.17" />
  <path d="M 1002.48 1000.42 L 1000.18 1000.02 L 997.89 999.71 L 995.60 999.42 L 993.33 999.04 L 991.07 998.69 L 988.81 998.39 L 986.56 997.99 L 984.33 997.58 L 982.10 997.19 L 979.89 996.83 L 977.70 996.49 L 975.48 996.30 L 973.27 996.04 L 971.07 995.89 L 968.87 995.72 L 966.69 995.50 L 964.52 995.27 L 962.37 994.95 L 960.24 994.59 L 958.12 994.25 L 956.05 993.85 L 953.99 993.45 L 951.94 993.05 L 949.92 992.68 L 947.90 992.26" stroke="rgb(140,255,190)" stroke-opacity="0.549" stroke-width="1.17" />
  <path d="M 1001.71 1001.00 L 999.36 1000.89 L 997.02 1000.76 L 994.69 1000.65 L 992.36 1000.55 L 990.05 1000.44 L 987.75 1000.32 L 985.46 1000.25 L 983.17 1000.16 L 980.89 1000.17 L 978.62 1000.16 L 976.36 1000.18 L 974.11 1000.20 L 971.86 1000.22 L 969.63 1000.30 L 967.41 1000.38 L 965.19 1000.39 L 962.98 1000.37 L 960.78 1000.33 L 958.60 1000.33" stroke="rgb(140,255,190)" stroke-opacity="0.549" stroke-width="1.17" />
  <path d="M 839.57 1022.22 L 836.84 1022.76 L 834.13 1023.32 L 831.47 1023.80 L 828.84 1024.32 L 826.23 1024.90 L 823.61 1025.53 L 821.05 1026.15 L 818.50 1026.76 L 815.95 1027.37 L 813.42 1028.01 L 810.92 1028.66 L 808.43 1029.27 L 805.94 1029.87 L 803.44 1030.44 L 800.92 1030.99 L 798.43 1031.56 L 795.94 1032.13 L 793.46 1032.69 L 791.00 1033.27 L 788.54 1033.93 L 786.10 1034.57 L 783.67 1035.21 L 781.25 1035.98 L 778.86 1036.80 L 776.49 1037.62 L 774.14 1038.37 L 771.80 1039.12 L 769.48 1039.84 L 767.16 1040.53 L 764.84 1041.21 L 762.54 1041.84 L 760.26 1042.48 L 757.97 1043.11 L 755.70 1043.82 L 753.47 1044.60 L 751.27 1045.43 L 749.09 1046.25 L 746.90 1047.07 L 744.72 1047.88 L 742.59 1048.68 L 740.49 1049.48 L 738.38 1050.26 L 736.27 1050.95 L 734.13 1051.64 L 732.01 1052.35 L 729.89 1053.04 L 727.81 1053.83 L 725.69 1054.55 L 723.57 1055.23 L 721.47 1055.86 L 719.39 1056.54 L 717.36 1057.27 L 715.35 1057.96 L 713.38 1058.75 L 711.42 1059.57 L 709.48 1060.39 L 707.53 1061.21 L 705.58 1062.02 L 703.64 1062.84 L 701.69 1063.70 L 699.78 1064.59 L 697.87 1065.48 L 695.94 1066.38 L 694.00 1067.25 L 692.04 1068.09 L 690.08 1068.91 L 688.11 1069.78 L 686.17 1070.65 L 684.24 1071.51 L 682.36 1072.36 L 680.49 1073.21 L 678.68 1074.05 L 676.87 1074.85 L 675.08 1075.67 L 673.30 1076.49 L 671.54 1077.28 L 669.78 1078.08" stroke="rgb(140,255,190)" stroke-opacity="0.730" stroke-width="1.17" />
  <path d="M 964.47 999.01 L 961.43 998.54 L 958.38 998.06 L 955.28 997.66 L 952.19 997.24 L 949.12 996.82 L 946.06 996.40 L 943.03 995.94 L 940.01 995.49 L 937.01 994.99 L 934.05 994.47 L 931.08 994.01 L 928.12 993.56 L 925.18 993.05 L 922.22 992.67 L 919.26 992.36 L 916.32 992.08 L 913.38 991.80 L 910.46 991.47 L 907.54 991.07 L 904.63 990.65 L 901.73 990.24 L 898.86 989.78 L 896.00 989.34 L 893.18 988.88 L 890.38 988.42 L 887.58 988.01 L 884.80 987.60 L 882.02 987.18 L 879.24 986.73 L 876.50 986.25 L 873.75 985.80 L 870.98 985.35 L 868.22 984.92 L 865.49 984.46 L 862.76 983.99 L 860.04 983.52 L 857.34 983.06 L 854.65 982.59 L 851.97 982.12 L 849.29 981.69 L 846.62 981.26 L 843.97 980.75 L 841.34 980.22 L 838.71 979.71 L 836.12 979.22 L 833.53 978.72 L 830.96 978.25 L 828.39 977.82 L 825.82 977.39 L 823.27 976.96 L 820.73 976.53 L 818.22 976.12 L 815.69 975.70 L 813.15 975.32" stroke="rgb(140,255,190)" stroke-opacity="0.729" stroke-width="1.17" />
  <path d="M 997.76 998.18 L 994.86 997.93 L 991.96 997.75 L 989.08 997.64 L 986.20 997.64 L 983.34 997.68 L 980.49 997.65 L 977.67 997.63 L 974.86 997.58 L 972.06 997.58 L 969.27 997.48 L 966.49 997.36 L 963.72 997.30 L 960.96 997.25 L 958.21 997.20 L 955.48 997.17 L 952.77 997.22 L 950.07 997.27 L 947.37 997.26 L 944.69 997.26 L 942.01 997.18 L 939.34 997.09 L 936.69 996.97 L 934.05 996.85 L 931.43 996.69 L 928.84 996.49 L 926.26 996.27" stroke="rgb(205,165,255)" stroke-opacity="0.484" stroke-width="1.17" />
  <path d="M 563.73 1019.37 L 560.52 1020.40 L 557.33 1021.43 L 554.15 1022.48 L 550.98 1023.52 L 547.81 1024.48 L 544.64 1025.43 L 541.48 1026.38 L 538.34 1027.32 L 535.22 1028.28 L 532.08 1029.15 L 528.95 1029.97 L 525.81 1030.77 L 522.70 1031.58 L 519.62 1032.45 L 516.55 1033.30 L 513.48 1034.15 L 510.43 1034.97 L 507.39 1035.82 L 504.37 1036.67 L 501.36 1037.50 L 498.36 1038.33 L 495.39 1039.23 L 492.43 1040.10 L 489.48 1040.96 L 486.57 1041.93 L 483.69 1042.91 L 480.84 1043.97 L 478.01 1045.04 L 475.18 1046.08 L 472.35 1047.08 L 469.51 1048.03 L 466.71 1049.03 L 463.93 1050.07 L 461.17 1051.13 L 458.43 1052.19 L 455.69 1053.26 L 452.98 1054.34 L 450.27 1055.40 L 447.58 1056.46 L 444.91 1057.55 L 442.25 1058.61 L 439.58 1059.62 L 436.91 1060.58 L 434.25 1061.56 L 431.65 1062.65 L 429.06 1063.73 L 426.47 1064.78 L 423.89 1065.85 L 421.40 1067.05 L 418.92 1068.26 L 416.46 1069.47 L 413.99 1070.66 L 411.53 1071.84 L 409.08 1073.00 L 406.65 1074.18 L 404.22 1075.35 L 401.82 1076.55 L 399.43 1077.77 L 397.06 1078.98 L 394.69 1080.20 L 392.34 1081.41 L 389.97 1082.57 L 387.64 1083.78 L 385.35 1085.06 L 383.10 1086.37 L 380.82 1087.62 L 378.58 1088.92 L 376.35 1090.21 L 374.14 1091.50 L 371.94 1092.80 L 369.74 1094.08 L 367.56 1095.36 L 365.39 1096.64 L 363.21 1097.89 L 361.07 1099.17 L 358.95 1100.49 L 356.84 1101.78 L 354.74 1103.08 L 352.64 1104.34 L 350.56 1105.63 L 348.50 1106.91 L 346.44 1108.19 L 344.39 1109.46 L 342.33 1110.70 L 340.27 1111.92 L 338.22 1113.15 L 336.19 1114.39 L 334.18 1115.65 L 332.18 1116.89 L 330.18 1118.14 L 328.20 1119.38 L 326.24 1120.64 L 324.29 1121.91 L 322.35 1123.18 L 320.42 1124.44 L 318.51 1125.73 L 316.61 1127.00 L 314.72 1128.29 L 312.85 1129.58 L 310.95 1130.82 L 309.12 1132.15 L 307.30 1133.47 L 305.47 1134.76 L 303.66 1136.06 L 301.84 1137.33 L 300.05 1138.63 L 298.26 1139.92 L 296.48 1141.20 L 294.74 1142.51 L 292.98 1143.80 L 291.25 1145.10 L 289.53 1146.41 L 287.82 1147.72 L 286.10 1149.00 L 284.38 1150.27 L 282.67 1151.53 L 281.00 1152.83 L 279.34 1154.13 L 277.68 1155.41 L 276.01 1156.68 L 274.34 1157.94 L 272.69 1159.19 L 271.06 1160.47 L 269.46 1161.76 L 267.85 1163.03 L 266.24 1164.30 L 264.66 1165.58 L 263.07 1166.84 L 261.55 1168.17" stroke="rgb(140,255,190)" stroke-opacity="0.727" stroke-width="1.16" />
  <path d="M 904.63 990.65 L 901.90 990.29 L 899.15 989.88 L 896.41 989.43 L 893.67 988.98 L 890.96 988.50" stroke="rgb(140,255,190)" stroke-opacity="0.726" stroke-width="1.16" />
  <path d="M 998.90 998.92 L 996.44 998.09 L 993.93 997.42 L 991.43 996.76 L 988.94 996.10 L 986.44 995.45 L 983.96 994.81 L 981.48 994.17 L 978.96 993.60 L 976.43 993.02 L 973.93 992.47 L 971.43 991.91 L 968.88 991.43 L 966.34 990.95 L 963.80 990.48 L 961.25 990.04 L 958.71 989.61 L 956.20 989.18 L 953.71 988.77 L 951.24 988.28 L 948.74 987.85 L 946.23 987.47 L 943.72 987.02 L 941.25 986.59 L 938.75 986.20 L 936.23 985.82 L 933.73 985.46 L 931.24 985.19 L 928.76 984.92 L 926.27 984.64 L 923.81 984.39 L 921.36 984.12 L 918.91 983.90 L 916.51 983.66 L 914.12 983.41 L 911.74 983.18 L 909.36 982.98 L 907.00 982.79" stroke="rgb(205,165,255)" stroke-opacity="0.483" stroke-width="1.16" />
  <path d="M 999.35 1002.33 L 996.07 1002.32 L 992.80 1002.28 L 989.54 1002.22 L 986.30 1002.18 L 983.07 1002.14 L 979.85 1002.09 L 976.65 1002.06 L 973.46 1002.00 L 970.28 1001.92 L 967.11 1001.86 L 963.96 1001.79 L 960.81 1001.74 L 957.67 1001.63 L 954.55 1001.52 L 951.44 1001.36 L 948.35 1001.20 L 945.27 1001.01 L 942.20 1000.77 L 939.15 1000.53 L 936.11 1000.28 L 933.08 1000.03 L 930.07 999.74 L 927.07 999.44 L 924.08 999.14 L 921.11 998.85 L 918.14 998.58 L 915.19 998.30 L 912.25 998.07 L 909.31 997.83 L 906.39 997.62 L 903.48 997.43 L 900.57 997.27 L 897.68 997.09 L 894.80 996.93 L 891.94 996.77 L 889.08 996.62 L 886.24 996.40 L 883.40 996.22 L 880.58 996.05 L 877.77 995.88 L 874.97 995.77 L 872.17 995.66 L 869.40 995.52 L 866.63 995.36 L 863.88 995.16 L 861.14 994.98 L 858.41 994.75 L 855.69 994.54 L 852.98 994.33 L 850.29 994.13 L 847.60 993.95 L 844.93 993.77 L 842.26 993.59 L 839.61 993.42 L 836.96 993.28 L 834.32 993.18 L 831.70 993.03 L 829.09 992.89 L 826.49 992.72 L 823.90 992.62 L 821.32 992.53 L 818.75 992.39 L 816.19 992.25 L 813.64 992.13 L 811.10 992.02 L 808.56 991.95 L 806.04 991.87 L 803.53 991.77 L 801.03 991.65 L 798.53 991.54 L 796.05 991.45 L 793.58 991.36 L 791.11 991.26 L 788.66 991.15 L 786.22 991.05 L 783.79 990.96 L 781.36 990.85 L 778.95 990.72 L 776.54 990.58 L 774.15 990.48 L 771.76 990.38 L 769.39 990.28 L 767.02 990.20 L 764.66 990.13" stroke="rgb(140,255,190)" stroke-opacity="0.725" stroke-width="1.16" />
  <path d="M 998.52 997.80 L 995.37 997.58 L 992.23 997.37 L 989.10 997.17 L 985.99 996.96 L 982.90 996.75 L 979.81 996.53 L 976.74 996.32 L 973.69 996.11 L 970.66 995.93 L 967.65 995.80 L 964.65 995.67 L 961.67 995.55 L 958.70 995.42 L 955.75 995.30 L 952.80 995.21 L 949.85 995.12 L 946.89 995.07 L 943.96 995.00 L 941.01 994.90 L 938.07 994.81 L 935.14 994.72 L 932.23 994.61 L 929.33 994.55 L 926.45 994.49 L 923.58 994.41 L 920.73 994.29 L 917.87 994.17 L 915.02 994.05 L 912.17 993.91 L 909.34 993.80 L 906.51 993.69 L 903.69 993.58 L 900.89 993.47 L 898.10 993.35 L 895.32 993.19 L 892.56 993.06 L 889.81 992.99 L 887.06 992.93 L 884.33 992.89 L 881.61 992.79 L 878.90 992.76 L 876.20 992.68 L 873.50 992.64 L 870.81 992.59 L 868.14 992.57 L 865.47 992.58 L 862.82 992.61 L 860.18 992.69 L 857.55 992.84 L 854.93 992.99 L 852.32 993.14 L 849.73 993.29 L 847.15 993.43 L 844.58 993.58 L 842.03 993.76 L 839.48 993.96 L 836.95 994.11 L 834.43 994.27 L 831.92 994.40 L 829.41 994.48 L 826.91 994.53 L 824.42 994.60 L 821.93 994.66 L 819.46 994.75 L 817.00 994.93 L 814.55 995.12 L 812.11 995.33 L 809.68 995.49 L 807.25 995.64 L 804.84 995.78 L 802.43 995.92 L 800.04 996.07 L 797.66 996.22 L 795.29 996.34 L 792.93 996.47 L 790.57 996.55 L 788.23 996.63 L 785.89 996.67 L 783.56 996.75 L 781.24 996.83 L 778.93 996.92 L 776.62 997.01 L 774.33 997.10 L 772.04 997.19 L 769.75 997.23 L 767.47 997.28 L 765.20 997.33 L 762.93 997.41 L 760.68 997.47 L 758.44 997.54 L 756.20 997.64 L 753.98 997.72 L 751.76 997.82 L 749.56 997.95 L 747.37 998.03 L 745.19 998.11 L 743.02 998.22 L 740.85 998.30 L 738.70 998.37 L 736.55 998.44 L 734.41 998.54 L 732.27 998.63 L 730.15 998.65 L 728.04 998.63 L 725.94 998.58 L 723.84 998.53 L 721.76 998.47 L 719.67 998.44 L 717.61 998.41 L 715.55 998.39 L 713.52 998.37 L 711.50 998.36 L 709.49 998.36 L 707.49 998.35 L 705.51 998.34" stroke="rgb(140,255,190)" stroke-opacity="0.725" stroke-width="1.16" />
  <path d="M 880.38 988.49 L 878.13 988.28 L 875.91 987.99 L 873.68 987.83 L 871.46 987.65 L 869.24 987.49 L 866.99 987.41 L 864.75 987.27 L 862.52 987.14 L 860.30 987.00 L 858.09 986.87 L 855.92 986.64 L 853.73 986.45 L 851.56 986.26 L 849.39 986.07 L 847.22 985.94 L 845.07 985.68 L 842.95 985.34 L 840.82 984.90 L 838.71 984.35 L 836.60 983.74 L 834.57 983.05 L 832.56 982.35 L 830.57 981.63 L 828.63 980.85 L 826.66 980.14 L 824.73 979.28 L 822.89 978.30 L 821.05 977.30 L 819.19 976.38" stroke="rgb(140,255,190)" stroke-opacity="0.544" stroke-width="1.16" />
  <path d="M 997.37 1002.11 L 994.93 1002.17 L 992.51 1002.22 L 990.09 1002.36 L 987.68 1002.44 L 985.29 1002.56 L 982.90 1002.68 L 980.52 1002.82 L 978.15 1002.94 L 975.80 1002.99 L 973.46 1003.12 L 971.13 1003.30" stroke="rgb(140,255,190)" stroke-opacity="0.543" stroke-width="1.15" />
  <path d="M 1001.13 1001.10 L 997.83 1001.01 L 994.54 1001.02 L 991.26 1001.01 L 988.00 1001.00 L 984.75 1001.09 L 981.52 1001.19 L 978.29 1001.28 L 975.08 1001.37 L 971.89 1001.48 L 968.70 1001.58 L 965.53 1001.67 L 962.38 1001.79 L 959.23 1001.89 L 956.10 1001.98 L 952.98 1002.06 L 949.87 1002.21 L 946.78 1002.36 L 943.70 1002.51 L 940.64 1002.72 L 937.59 1002.86 L 934.54 1002.99 L 931.51 1003.11 L 928.49 1003.27 L 925.49 1003.48 L 922.50 1003.63 L 919.52 1003.78 L 916.55 1003.94 L 913.59 1004.05 L 910.64 1004.17 L 907.71 1004.33 L 904.79 1004.45 L 901.88 1004.57 L 898.97 1004.69 L 896.08 1004.76 L 893.21 1004.84 L 890.34 1004.91 L 887.48 1005.00 L 884.64 1005.07 L 881.80 1005.15 L 878.98 1005.22 L 876.17 1005.30 L 873.37 1005.38 L 870.58 1005.45" stroke="rgb(140,255,190)" stroke-opacity="0.722" stroke-width="1.15" />
  <path d="M 791.11 991.26 L 787.95 990.40 L 784.78 989.64 L 781.61 988.88 L 778.49 988.08 L 775.37 987.29 L 772.26 986.52 L 769.17 985.79 L 766.08 985.08 L 763.00 984.38 L 759.94 983.69 L 756.89 983.06 L 753.84 982.53 L 750.80 982.03 L 747.78 981.50 L 744.76 980.99 L 741.76 980.47 L 738.77 979.96 L 735.79 979.48 L 732.83 979.00 L 729.89 978.51 L 726.95 978.01 L 724.03 977.50 L 721.13 976.94 L 718.22 976.38 L 715.33 975.82 L 712.46 975.23" stroke="rgb(140,255,190)" stroke-opacity="0.722" stroke-width="1.15" />
  <path d="M 781.24 996.83 L 778.93 996.14 L 776.65 995.41 L 774.35 994.68 L 772.08 993.92 L 769.80 993.23 L 767.52 992.56 L 765.25 991.88 L 762.97 991.29 L 760.70 990.68 L 758.43 990.08 L 756.17 989.49 L 753.95 988.86 L 751.76 988.15 L 749.56 987.46 L 747.36 986.78 L 745.18 986.10 L 742.95 985.62 L 740.72 985.13 L 738.51 984.65 L 736.33 984.06 L 734.16 983.47 L 732.01 982.86 L 729.88 982.21 L 727.76 981.57 L 725.64 980.95 L 723.51 980.45 L 721.39 979.95 L 719.32 979.36 L 717.28 978.69 L 715.24 978.03 L 713.20 977.37 L 711.15 976.79 L 709.13 976.16 L 707.12 975.51" stroke="rgb(140,255,190)" stroke-opacity="0.541" stroke-width="1.15" />
  <path d="M 563.73 1019.37 L 561.39 1019.96 L 559.09 1020.64 L 556.79 1021.29 L 554.51 1021.95 L 552.24 1022.62 L 550.00 1023.29 L 547.80 1024.02 L 545.53 1024.64 L 543.28 1025.24 L 541.02 1025.81 L 538.76 1026.34 L 536.50 1026.88 L 534.25 1027.41 L 531.99 1027.92 L 529.75 1028.44" stroke="rgb(140,255,190)" stroke-opacity="0.540" stroke-width="1.15" />
  <path d="M 887.48 1005.00 L 884.66 1005.11 L 881.84 1005.29 L 879.04 1005.47 L 876.25 1005.63 L 873.47 1005.81 L 870.73 1005.99 L 868.02 1006.17 L 865.27 1006.39 L 862.53 1006.61 L 859.82 1006.81 L 857.13 1007.01 L 854.44 1007.08 L 851.77 1007.16 L 849.09 1007.22 L 846.41 1007.29 L 843.78 1007.33 L 841.17 1007.38 L 838.53 1007.48 L 835.90 1007.55 L 833.30 1007.59 L 830.75 1007.67 L 828.20 1007.84 L 825.64 1008.05 L 823.08 1008.24 L 820.50 1008.47 L 817.93 1008.68 L 815.36 1008.86 L 812.83 1009.06 L 810.29 1009.25 L 807.75 1009.42 L 805.26 1009.53 L 802.77 1009.64 L 800.29 1009.78 L 797.84 1009.93 L 795.37 1010.06 L 792.91 1010.18 L 790.44 1010.30 L 787.97 1010.39 L 785.50 1010.41 L 783.04 1010.39 L 780.55 1010.31 L 778.07 1010.18 L 775.61 1010.13 L 773.16 1010.02" stroke="rgb(140,255,190)" stroke-opacity="0.714" stroke-width="1.13" />
  <path d="M 944.69 997.26 L 942.15 998.38 L 939.63 999.50 L 937.08 1000.52 L 934.55 1001.56 L 932.02 1002.56 L 929.50 1003.55 L 927.00 1004.55 L 924.53 1005.62 L 922.09 1006.72 L 919.65 1007.82 L 917.22 1008.86 L 914.73 1009.79 L 912.25 1010.70 L 909.79 1011.63 L 907.35 1012.59 L 904.92 1013.54 L 902.54 1014.57 L 900.14 1015.55 L 897.72 1016.44 L 895.30 1017.30 L 892.87 1018.10 L 890.43 1018.83 L 888.00 1019.46 L 885.55 1020.05 L 883.14 1020.71 L 880.71 1021.25 L 878.29 1021.82 L 875.89 1022.38 L 873.47 1022.94 L 871.08 1023.51 L 868.69 1024.05 L 866.31 1024.53 L 863.93 1024.90 L 861.54 1025.21 L 859.16 1025.51 L 856.79 1025.80 L 854.44 1026.09 L 852.09 1026.38 L 849.74 1026.65 L 847.41 1026.93 L 845.08 1027.20 L 842.80 1027.56 L 840.54 1027.92 L 838.30 1028.31 L 836.09 1028.78 L 833.90 1029.30 L 831.72 1029.80 L 829.54 1030.31 L 827.36 1030.77 L 825.14 1031.06 L 822.95 1031.46 L 820.78 1031.86 L 818.65 1032.25 L 816.51 1032.62 L 814.39 1032.99 L 812.28 1033.36 L 810.18 1033.73 L 808.10 1034.10 L 806.02 1034.51 L 803.97 1034.87 L 801.93 1035.26 L 799.89 1035.61 L 797.88 1035.97 L 795.84 1036.25 L 793.81 1036.47 L 791.78 1036.71 L 789.77 1036.82" stroke="rgb(205,165,255)" stroke-opacity="0.474" stroke-width="1.13" />
  <path d="M 997.42 1000.63 L 994.30 1000.43 L 991.19 1000.21 L 988.09 1000.05 L 985.00 999.92 L 981.93 999.81 L 978.87 999.68 L 975.82 999.56 L 972.78 999.47 L 969.76 999.39 L 966.74 999.30 L 963.74 999.19 L 960.76 998.99 L 957.78 998.78 L 954.82 998.58 L 951.87 998.38 L 948.93 998.14 L 946.01 997.93 L 943.09 997.72 L 940.19 997.53 L 937.30 997.31 L 934.41 997.09 L 931.54 996.93 L 928.68 996.77 L 925.83 996.59 L 922.99 996.36 L 920.16 996.17 L 917.35 995.97 L 914.55 995.77 L 911.76 995.55 L 908.98 995.27 L 906.22 995.00 L 903.47 994.73 L 900.72 994.51 L 897.99 994.24 L 895.27 993.95 L 892.56 993.67 L 889.87 993.39 L 887.18 993.10 L 884.51 992.80" stroke="rgb(140,255,190)" stroke-opacity="0.713" stroke-width="1.13" />
  <path d="M 1000.68 1001.08 L 999.93 1003.52 L 999.17 1005.92 L 998.44 1008.31 L 997.73 1010.70 L 996.93 1013.00 L 996.10 1015.29 L 995.18 1017.59 L 994.28 1019.86 L 993.39 1022.13 L 992.49 1024.40 L 991.63 1026.68 L 990.79 1028.96 L 989.98 1031.26 L 989.18 1033.53 L 988.33 1035.79 L 987.50 1038.05 L 986.71 1040.32 L 985.90 1042.57 L 985.12 1044.80 L 984.32 1047.03 L 983.52 1049.24 L 982.75 1051.44 L 981.94 1053.59 L 981.05 1055.68 L 980.13 1057.77 L 979.28 1059.87 L 978.45 1061.98 L 977.68 1064.14 L 976.90 1066.29 L 976.11 1068.43 L 975.40 1070.58 L 974.57 1072.70 L 973.73 1074.79 L 972.92 1076.90 L 972.07 1078.96 L 971.27 1081.00 L 970.49 1083.04 L 969.69 1085.06 L 968.85 1087.06" stroke="rgb(205,165,255)" stroke-opacity="0.473" stroke-width="1.12" />
  <path d="M 999.75 1004.18 L 997.32 1003.91 L 994.92 1003.57 L 992.53 1003.18 L 990.14 1002.82 L 987.75 1002.52 L 985.37 1002.21 L 983.00 1001.91 L 980.64 1001.59 L 978.29 1001.36 L 975.94 1001.14 L 973.61 1000.77 L 971.31 1000.36 L 969.02 999.90 L 966.74 999.46 L 964.47 999.01 L 962.22 998.52 L 959.98 998.06 L 957.75 997.55 L 955.53 997.04 L 953.33 996.51 L 951.20 995.78 L 949.09 995.02 L 946.95 994.35 L 944.83 993.70 L 942.70 993.12 L 940.60 992.47 L 938.51 991.87 L 936.43 991.29 L 934.32 990.76 L 932.24 990.22" stroke="rgb(140,255,190)" stroke-opacity="0.534" stroke-width="1.12" />
  <path d="M 963.63 1002.57 L 960.91 1003.64 L 958.18 1004.65 L 955.47 1005.69 L 952.78 1006.80 L 950.10 1007.88 L 947.44 1008.99 L 944.80 1010.03 L 942.17 1011.06 L 939.52 1012.11 L 936.89 1013.15" stroke="rgb(140,255,190)" stroke-opacity="0.533" stroke-width="1.12" />
  <path d="M 998.65 1002.61 L 995.58 1002.50 L 992.53 1002.36 L 989.50 1002.14 L 986.47 1001.95 L 983.45 1001.79 L 980.45 1001.63 L 977.46 1001.44 L 974.48 1001.19 L 971.51 1000.99 L 968.55 1000.81 L 965.60 1000.63 L 962.66 1000.46 L 959.74 1000.25 L 956.83 1000.08 L 953.93 999.89 L 951.03 999.76 L 948.16 999.62 L 945.29 999.50 L 942.43 999.37 L 939.59 999.22 L 936.76 999.11 L 933.94 998.98 L 931.13 998.85 L 928.33 998.76 L 925.55 998.71 L 922.78 998.70 L 920.02 998.69 L 917.27 998.71 L 914.54 998.72 L 911.81 998.72 L 909.10 998.72 L 906.39 998.73 L 903.71 998.79" stroke="rgb(140,255,190)" stroke-opacity="0.533" stroke-width="1.12" />
  <path d="M 1001.05 998.76 L 998.09 998.98 L 995.16 999.29 L 992.23 999.56 L 989.32 999.87 L 986.42 1000.21 L 983.52 1000.52 L 980.64 1000.81 L 977.77 1001.12 L 974.91 1001.38 L 972.07 1001.70 L 969.24 1001.99 L 966.43 1002.29 L 963.63 1002.57 L 960.84 1002.83 L 958.07 1003.09 L 955.31 1003.32 L 952.55 1003.53 L 949.81 1003.73 L 947.07 1003.92 L 944.35 1004.15 L 941.64 1004.36 L 938.95 1004.54 L 936.27 1004.71 L 933.60 1004.83 L 930.94 1005.01 L 928.28 1005.12 L 925.63 1005.30 L 923.00 1005.48 L 920.37 1005.53 L 917.75 1005.60 L 915.15 1005.68 L 912.55 1005.75 L 909.96 1005.84 L 907.38 1005.99 L 904.81 1006.18 L 902.25 1006.40 L 899.71 1006.65 L 897.17 1006.93 L 894.65 1007.21 L 892.13 1007.47 L 889.63 1007.75 L 887.13 1007.99 L 884.64 1008.28 L 882.16 1008.56 L 879.69 1008.85 L 877.24 1009.16 L 874.79 1009.49 L 872.36 1009.83 L 869.94 1010.17 L 867.53 1010.57 L 865.14 1010.95 L 862.75 1011.31 L 860.37 1011.64 L 857.99 1011.96 L 855.62 1012.25 L 853.26 1012.49 L 850.90 1012.68" stroke="rgb(140,255,190)" stroke-opacity="0.533" stroke-width="1.12" />
  <path d="M 996.03 999.90 L 992.97 999.63 L 989.93 999.36 L 986.89 999.08 L 983.88 998.75 L 980.88 998.35 L 977.90 997.94 L 974.93 997.56 L 971.96 997.19 L 969.01 996.82 L 966.07 996.45 L 963.14 996.10 L 960.23 995.72 L 957.32 995.37 L 954.43 995.02 L 951.54 994.69 L 948.67 994.37 L 945.81 994.02 L 942.95 993.71 L 940.11 993.40 L 937.28 993.09 L 934.47 992.77 L 931.66 992.48 L 928.87 992.15 L 926.09 991.85 L 923.32 991.49" stroke="rgb(140,255,190)" stroke-opacity="0.532" stroke-width="1.12" />
  <path d="M 783.79 990.96 L 780.95 989.66 L 778.13 988.37 L 775.32 987.10 L 772.53 985.81 L 769.75 984.52 L 767.00 983.20 L 764.25 981.90 L 761.52 980.60 L 758.82 979.27 L 756.12 977.95 L 753.42 976.66 L 750.74 975.36 L 748.07 974.07 L 745.41 972.78 L 742.76 971.50 L 740.15 970.17 L 737.57 968.80 L 734.99 967.44 L 732.42 966.10 L 729.88 964.74 L 727.33 963.42 L 724.79 962.09 L 722.27 960.77 L 719.77 959.42 L 717.28 958.08 L 714.79 956.76 L 712.31 955.44 L 709.86 954.10 L 707.42 952.75 L 704.98 951.45 L 702.51 950.20" stroke="rgb(140,255,190)" stroke-opacity="0.709" stroke-width="1.12" />
  <path d="M 1000.15 999.49 L 997.64 999.28 L 995.16 998.99 L 992.68 998.70 L 990.22 998.43 L 987.77 998.10 L 985.34 997.77 L 982.92 997.51 L 980.50 997.23 L 978.08 996.96 L 975.68 996.70 L 973.31 996.39 L 970.96 996.07 L 968.64 995.69 L 966.32 995.30 L 964.00 994.95 L 961.71 994.52 L 959.43 994.09 L 957.15 993.65 L 954.88 993.19 L 952.61 992.73 L 950.35 992.27 L 948.09 991.85 L 945.81 991.52 L 943.56 991.20 L 941.32 990.89 L 939.10 990.57 L 936.87 990.36 L 934.65 990.15 L 932.43 990.02 L 930.22 989.94 L 928.02 989.90 L 925.83 989.85 L 923.64 989.70 L 921.46 989.53 L 919.29 989.36 L 917.12 989.22 L 914.96 989.07" stroke="rgb(140,255,190)" stroke-opacity="0.531" stroke-width="1.11" />
  <path d="M 1001.80 1002.29 L 999.80 1000.89 L 997.77 999.56 L 995.71 998.38 L 993.78 997.15 L 991.92 995.77 L 989.99 994.51 L 988.07 993.24 L 986.23 991.93 L 984.37 990.64 L 982.58 989.36 L 980.79 988.09 L 978.98 986.80 L 977.18 985.50 L 975.37 984.23 L 973.62 982.92 L 971.95 981.53 L 970.25 980.13 L 968.57 978.76 L 966.92 977.30 L 965.17 975.97 L 963.43 974.59 L 961.63 973.26 L 959.89 971.88 L 958.10 970.44 L 956.34 969.01 L 954.58 967.62 L 952.85 966.20 L 951.15 964.77 L 949.43 963.35 L 947.59 962.08 L 945.79 960.76 L 944.02 959.41 L 942.26 958.06 L 940.52 956.71 L 938.79 955.37" stroke="rgb(205,165,255)" stroke-opacity="0.470" stroke-width="1.11" />
  <path d="M 906.51 993.69 L 904.24 994.72 L 901.94 995.69 L 899.63 996.65 L 897.32 997.58 L 895.03 998.49 L 892.76 999.40 L 890.44 1000.26 L 888.12 1001.11 L 885.84 1002.05 L 883.57 1002.98 L 881.28 1003.91 L 879.08 1004.79 L 876.88 1005.67 L 874.72 1006.54 L 872.55 1007.38 L 870.40 1008.23 L 868.26 1009.08 L 866.13 1009.94 L 864.01 1010.79 L 861.89 1011.64 L 859.81 1012.53 L 857.73 1013.43 L 855.69 1014.34 L 853.62 1015.26 L 851.58 1016.23 L 849.58 1017.28 L 847.55 1018.28 L 845.53 1019.28 L 843.52 1020.27 L 841.54 1021.25 L 839.57 1022.22 L 837.60 1023.22 L 835.61 1024.20 L 833.67 1025.25 L 831.71 1026.30 L 829.73 1027.31 L 827.80 1028.35 L 825.89 1029.44 L 824.00 1030.57 L 822.09 1031.65 L 820.23 1032.76 L 818.35 1033.92 L 816.53 1035.00" stroke="rgb(140,255,190)" stroke-opacity="0.530" stroke-width="1.11" />
  <path d="M 930.10 992.20 L 927.56 993.05 L 925.05 993.93 L 922.55 994.82 L 920.09 995.78 L 917.63 996.70 L 915.18 997.63 L 912.74 998.55 L 910.28 999.44 L 907.83 1000.31 L 905.37 1001.16 L 902.90 1001.91 L 900.44 1002.69 L 898.01 1003.46 L 895.58 1004.22 L 893.14 1004.89 L 890.70 1005.50 L 888.27 1006.13 L 885.88 1006.82 L 883.49 1007.44 L 881.10 1008.00 L 878.73 1008.56 L 876.39 1009.11 L 874.04 1009.62 L 871.70 1010.16 L 869.36 1010.60 L 867.04 1011.04 L 864.75 1011.59 L 862.51 1012.17 L 860.25 1012.76 L 857.95 1013.25 L 855.68 1013.75 L 853.42 1014.25 L 851.18 1014.78 L 848.94 1015.34 L 846.70 1015.96 L 844.49 1016.62 L 842.29 1017.23 L 840.09 1017.85 L 837.89 1018.46 L 835.68 1019.03 L 833.46 1019.55 L 831.25 1020.08 L 829.05 1020.59 L 826.83 1021.06 L 824.64 1021.57 L 822.45 1022.07 L 820.26 1022.55 L 818.10 1023.10 L 815.96 1023.66 L 813.84 1024.27 L 811.74 1024.89" stroke="rgb(140,255,190)" stroke-opacity="0.530" stroke-width="1.11" />
  <path d="M 999.11 996.75 L 996.41 996.72 L 993.71 996.66 L 991.03 996.61 L 988.36 996.57 L 985.70 996.55 L 983.06 996.52 L 980.43 996.31 L 977.81 996.10 L 975.21 995.97 L 972.62 995.81 L 970.05 995.62 L 967.48 995.46 L 964.93 995.29 L 962.39 995.13 L 959.87 994.96 L 957.37 994.78 L 954.89 994.48 L 952.43 994.13 L 950.02 993.78 L 947.61 993.41 L 945.19 993.02 L 942.79 992.57 L 940.40 992.12" stroke="rgb(140,255,190)" stroke-opacity="0.529" stroke-width="1.11" />
  <path d="M 996.54 1002.25 L 993.73 1001.85 L 990.94 1001.44 L 988.17 1001.00 L 985.41 1000.59 L 982.66 1000.13 L 979.92 999.73 L 977.19 999.29 L 974.47 998.89 L 971.75 998.53 L 969.04 998.21 L 966.35 997.85 L 963.66 997.49 L 960.99 997.14 L 958.34 996.81 L 955.69 996.47 L 953.05 996.14 L 950.42 995.81 L 947.81 995.48 L 945.21 995.14 L 942.61 994.84 L 940.02 994.65 L 937.43 994.54 L 934.84 994.43 L 932.26 994.29 L 929.70 994.11 L 927.14 993.95 L 924.60 993.79 L 922.07 993.52 L 919.56 993.24 L 917.07 992.87 L 914.59 992.48 L 912.14 992.07 L 909.69 991.68 L 907.24 991.40 L 904.80 991.11 L 902.39 990.77 L 900.01 990.35 L 897.63 990.02 L 895.28 989.64 L 892.91 989.29 L 890.57 988.83 L 888.23 988.42 L 885.91 987.97 L 883.59 987.53 L 881.27 987.13 L 878.97 986.73" stroke="rgb(140,255,190)" stroke-opacity="0.528" stroke-width="1.11" />
  <path d="M 769.31 958.67 L 766.54 958.07 L 763.77 957.49 L 761.02 956.92 L 758.28 956.33 L 755.56 955.71 L 752.85 955.10 L 750.14 954.51 L 747.46 953.86 L 744.80 953.21 L 742.14 952.57 L 739.48 951.97 L 736.85 951.32 L 734.27 950.56 L 731.70 949.80 L 729.17 948.95 L 726.64 948.15" stroke="rgb(140,255,190)" stroke-opacity="0.528" stroke-width="1.10" />
  <path d="M 1002.51 997.03 L 999.55 996.95 L 996.60 996.87 L 993.67 996.76 L 990.74 996.72 L 987.83 996.69 L 984.93 996.69 L 982.04 996.71 L 979.16 996.82 L 976.29 996.93 L 973.44 997.04 L 970.60 997.12 L 967.77 997.21 L 964.95 997.21 L 962.14 997.20 L 959.34 997.27 L 956.55 997.38 L 953.78 997.48 L 951.02 997.59 L 948.27 997.71 L 945.53 997.91 L 942.82 998.14 L 940.11 998.36 L 937.43 998.63 L 934.77 998.92 L 932.12 999.22 L 929.48 999.50 L 926.86 999.81 L 924.25 1000.12 L 921.64 1000.44 L 919.04 1000.78 L 916.45 1000.98 L 913.87 1001.22 L 911.31 1001.44" stroke="rgb(140,255,190)" stroke-opacity="0.527" stroke-width="1.10" />
  <path d="M 879.08 1004.79 L 876.88 1006.26 L 874.72 1007.75 L 872.56 1009.25 L 870.40 1010.73 L 868.21 1012.16 L 866.02 1013.57 L 863.81 1014.94 L 861.60 1016.28 L 859.30 1017.46 L 857.03 1018.64 L 854.81 1019.89 L 852.60 1021.15 L 850.41 1022.40 L 848.20 1023.62 L 846.00 1024.80 L 843.77 1025.91 L 841.54 1027.00 L 839.35 1028.12 L 837.18 1029.25 L 835.03 1030.41 L 832.92 1031.64 L 830.79 1032.81 L 828.67 1034.01 L 826.59 1035.20 L 824.51 1036.39 L 822.51 1037.70 L 820.55 1039.07 L 818.62 1040.45 L 816.66 1041.78 L 814.74 1043.16 L 812.84 1044.54 L 810.88 1045.82 L 809.02 1047.20 L 807.14 1048.53 L 805.25 1049.83 L 803.35 1051.11 L 801.48 1052.39 L 799.57 1053.62 L 797.70 1054.88 L 795.83 1056.13 L 793.96 1057.36" stroke="rgb(140,255,190)" stroke-opacity="0.525" stroke-width="1.10" />
  <path d="M 964.47 999.01 L 961.77 999.72 L 959.07 1000.42 L 956.35 1000.99 L 953.64 1001.58 L 950.94 1002.24 L 948.26 1002.87 L 945.59 1003.47 L 942.92 1004.07 L 940.27 1004.70 L 937.62 1005.24 L 934.97 1005.79 L 932.34 1006.31 L 929.69 1006.74 L 927.06 1007.17 L 924.45 1007.62 L 921.85 1008.08 L 919.27 1008.59 L 916.68 1009.06" stroke="rgb(140,255,190)" stroke-opacity="0.525" stroke-width="1.10" />
  <path d="M 1002.36 1001.57 L 999.65 1001.42 L 996.95 1001.30 L 994.27 1001.18 L 991.59 1001.01 L 988.93 1000.89 L 986.27 1000.83 L 983.63 1000.78 L 980.99 1000.74 L 978.37 1000.76 L 975.76 1000.73 L 973.16 1000.65 L 970.57 1000.56 L 967.99 1000.54 L 965.41 1000.58 L 962.85 1000.63 L 960.30 1000.71 L 957.77 1000.88 L 955.24 1001.03 L 952.72 1001.15 L 950.21 1001.21 L 947.71 1001.34 L 945.22 1001.45 L 942.74 1001.56 L 940.27 1001.66 L 937.81 1001.76 L 935.36 1001.85 L 932.92 1001.79 L 930.49 1001.74 L 928.06 1001.77 L 925.65 1001.82 L 923.25 1001.88 L 920.85 1001.95 L 918.47 1002.02 L 916.10 1002.17 L 913.74 1002.33 L 911.39 1002.49 L 909.05 1002.64 L 906.71 1002.81 L 904.41 1003.11 L 902.11 1003.38 L 899.82 1003.66 L 897.53 1003.93 L 895.27 1004.26 L 893.02 1004.62 L 890.79 1005.03 L 888.57 1005.44 L 886.37 1005.85 L 884.18 1006.32 L 882.01 1006.81 L 879.86 1007.28 L 877.72 1007.74 L 875.59 1008.23 L 873.47 1008.71 L 871.36 1009.21 L 869.27 1009.72 L 867.17 1010.23 L 865.09 1010.74" stroke="rgb(140,255,190)" stroke-opacity="0.525" stroke-width="1.09" />
  <path d="M 906.39 997.62 L 903.88 997.89 L 901.39 998.15 L 898.93 998.44 L 896.47 998.71 L 893.97 998.96 L 891.48 999.23 L 889.01 999.56 L 886.53 999.94 L 884.04 1000.25 L 881.61 1000.59 L 879.19 1000.93 L 876.77 1001.26 L 874.35 1001.56 L 871.94 1001.86 L 869.54 1002.16 L 867.15 1002.48 L 864.76 1002.93 L 862.39 1003.30 L 860.01 1003.65" stroke="rgb(140,255,190)" stroke-opacity="0.524" stroke-width="1.09" />
  <path d="M 953.33 996.51 L 950.85 996.67 L 948.40 996.84 L 945.96 997.04 L 943.57 997.19 L 941.20 997.33 L 938.83 997.48 L 936.45 997.56 L 934.04 997.58 L 931.67 997.54 L 929.30 997.50 L 926.92 997.48 L 924.55 997.47 L 922.18 997.35 L 919.80 997.29 L 917.42 997.29 L 915.04 997.22 L 912.68 997.15 L 910.33 997.10 L 908.00 997.01 L 905.70 996.93 L 903.41 996.85 L 901.13 996.77 L 898.87 996.74 L 896.63 996.77 L 894.39 996.81 L 892.18 996.88 L 890.01 996.99 L 887.87 997.08 L 885.75 997.20 L 883.69 997.32 L 881.65 997.49 L 879.62 997.66 L 877.63 997.81 L 875.63 998.04 L 873.69 998.32 L 871.76 998.56" stroke="rgb(140,255,190)" stroke-opacity="0.524" stroke-width="1.09" />
  <path d="M 846.41 1007.29 L 844.05 1007.15 L 841.69 1006.91 L 839.34 1006.67 L 837.00 1006.45 L 834.62 1006.41 L 832.23 1006.28 L 829.80 1006.17 L 827.35 1006.02 L 824.92 1005.87 L 822.49 1005.75 L 820.08 1005.64 L 817.63 1005.51 L 815.17 1005.45 L 812.74 1005.28 L 810.35 1005.19 L 807.98 1005.09 L 805.60 1004.99 L 803.25 1005.03 L 800.94 1005.21 L 798.62 1005.40 L 796.31 1005.59 L 793.98 1005.78 L 791.68 1005.92 L 789.40 1006.04 L 787.09 1006.01 L 784.79 1005.96 L 782.46 1005.93 L 780.08 1005.90 L 777.75 1005.87 L 775.45 1005.65 L 773.12 1005.37 L 770.81 1005.06 L 768.51 1004.68 L 766.23 1004.28 L 763.94 1003.95 L 761.67 1003.66 L 759.41 1003.49 L 757.10 1003.36 L 754.80 1003.18 L 752.51 1002.99 L 750.23 1002.79 L 748.00 1002.54 L 745.82 1002.20 L 743.65 1001.86 L 741.51 1001.52 L 739.44 1001.05 L 737.34 1000.49 L 735.20 999.98 L 733.12 999.42 L 731.08 998.85 L 729.04 998.28 L 727.03 997.73 L 725.07 997.09 L 723.12 996.41 L 721.18 995.71 L 719.22 995.08 L 717.24 994.48 L 715.26 993.85 L 713.31 993.25 L 711.35 992.65 L 709.41 992.03 L 707.48 991.38 L 705.57 990.78 L 703.67 990.18 L 701.76 989.56 L 699.86 988.94 L 697.98 988.30 L 696.11 987.70 L 694.25 987.09 L 692.42 986.52 L 690.58 985.94 L 688.74 985.38 L 686.91 984.81 L 685.09 984.20 L 683.26 983.69 L 681.44 983.18 L 679.61 982.68 L 677.82 982.16 L 676.05 981.59 L 674.30 981.00" stroke="rgb(140,255,190)" stroke-opacity="0.523" stroke-width="1.09" />
  <path d="M 1001.95 996.56 L 999.87 997.50 L 997.75 998.39 L 995.62 999.23 L 993.50 1000.04 L 991.40 1000.86 L 989.31 1001.68 L 987.21 1002.54 L 985.13 1003.40 L 983.05 1004.24 L 980.97 1005.08 L 978.94 1005.87 L 976.92 1006.67 L 974.88 1007.42 L 972.83 1008.10 L 970.79 1008.78 L 968.78 1009.47 L 966.79 1010.12 L 964.80 1010.77 L 962.82 1011.42 L 960.85 1012.07 L 958.83 1012.62 L 956.81 1013.15 L 954.75 1013.61 L 952.70 1014.07 L 950.65 1014.51 L 948.61 1014.94 L 946.58 1015.38 L 944.55 1015.84 L 942.54 1016.31 L 940.53 1016.84 L 938.52 1017.32 L 936.52 1017.79 L 934.51 1018.23 L 932.49 1018.70 L 930.50 1019.15 L 928.51 1019.60 L 926.52 1020.02" stroke="rgb(205,165,255)" stroke-opacity="0.463" stroke-width="1.09" />
  <path d="M 922.18 986.13 L 919.78 985.87 L 917.39 985.61 L 914.97 985.32 L 912.55 985.05 L 910.15 984.84 L 907.78 984.64 L 905.41 984.49 L 903.03 984.26 L 900.66 984.00 L 898.28 983.77 L 895.92 983.51 L 893.56 983.33 L 891.23 982.93 L 888.91 982.51 L 886.61 982.05 L 884.34 981.64 L 882.10 981.31 L 879.89 980.91 L 877.70 980.55 L 875.53 980.20 L 873.37 979.79 L 871.21 979.39 L 869.02 979.27" stroke="rgb(205,165,255)" stroke-opacity="0.460" stroke-width="1.08" />
  <path d="M 998.89 1000.79 L 996.80 1000.50 L 994.71 1000.19 L 992.62 999.89 L 990.53 999.58 L 988.44 999.32 L 986.37 999.06 L 984.33 998.82 L 982.30 998.57 L 980.28 998.34 L 978.26 998.16 L 976.24 998.01" stroke="rgb(205,165,255)" stroke-opacity="0.459" stroke-width="1.07" />
  <path d="M 1001.30 1001.53 L 999.34 1002.49 L 997.42 1003.44 L 995.48 1004.36 L 993.61 1005.37 L 991.72 1006.34 L 989.92 1007.35 L 988.03 1008.25 L 986.14 1009.16 L 984.24 1010.06 L 982.33 1010.95 L 980.43 1011.82 L 978.53 1012.59 L 976.58 1013.40 L 974.65 1014.20 L 972.73 1015.01" stroke="rgb(205,165,255)" stroke-opacity="0.457" stroke-width="1.06" />
  <path d="M 944.69 997.26 L 942.56 998.14 L 940.44 999.02 L 938.34 999.93 L 936.25 1000.84 L 934.18 1001.77 L 932.09 1002.65 L 930.02 1003.53 L 927.97 1004.41 L 925.92 1005.27 L 923.86 1006.10 L 921.82 1006.96 L 919.80 1007.77 L 917.77 1008.50 L 915.74 1009.29 L 913.76 1010.13 L 911.76 1010.88" stroke="rgb(205,165,255)" stroke-opacity="0.452" stroke-width="1.05" />
  <path d="M 997.17 1002.28 L 996.58 1001.04 L 995.90 999.82 L 995.14 998.61 L 994.40 997.37 L 993.60 996.28 L 992.97 995.05" stroke="rgb(230,230,230)" stroke-opacity="0.384" stroke-width="0.71" />
  <path d="M 994.66 1000.23 L 994.06 998.97 L 993.44 997.74 L 992.83 996.52 L 992.21 995.31 L 991.68 994.09 L 991.23 992.87 L 990.74 991.71 L 990.24 990.49" stroke="rgb(230,230,230)" stroke-opacity="0.384" stroke-width="0.71" />
  <path d="M 997.55 1006.33 L 997.14 1004.89 L 996.62 1003.49 L 996.08 1002.11 L 995.48 1000.75 L 994.89 999.40 L 994.19 998.11 L 993.49 996.83 L 992.84 995.53" stroke="rgb(230,230,230)" stroke-opacity="0.384" stroke-width="0.71" />
  <path d="M 995.51 1003.53 L 994.78 1002.52 L 994.04 1001.51 L 993.46 1000.39 L 992.79 999.31 L 992.13 998.24 L 991.53 997.16 L 990.93 996.08 L 990.36 995.00 L 989.78 993.91 L 989.23 992.81 L 988.75 991.68 L 988.29 990.57 L 987.82 989.49 L 987.23 988.34 L 986.67 987.22 L 986.05 986.11 L 985.45 985.03 L 984.79 984.01" stroke="rgb(230,230,230)" stroke-opacity="0.382" stroke-width="0.70" />
  <path d="M 996.46 1001.09 L 996.66 999.95 L 996.75 998.80 L 996.78 997.65 L 997.02 996.53 L 997.27 995.42 L 997.52 994.36 L 997.77 993.29 L 998.04 992.22 L 998.28 991.27 L 998.47 990.43 L 998.50 989.73 L 998.43 988.94 L 998.31 988.03" stroke="rgb(230,230,230)" stroke-opacity="0.376" stroke-width="0.68" />
  <path d="M 999.70 998.86 L 1001.13 998.97 L 1002.56 998.83 L 1003.99 998.44 L 1005.43 998.09 L 1006.86 997.72 L 1008.22 997.16 L 1009.57 996.61 L 1010.91 996.05 L 1012.11 995.24 L 1013.31 994.44" stroke="rgb(230,230,230)" stroke-opacity="0.374" stroke-width="0.68" />
  <path d="M 1002.64 1002.24 L 1001.64 1002.82 L 1000.61 1003.40 L 999.55 1003.95 L 998.51 1004.62 L 997.68 1005.35 L 996.82 1006.03 L 996.08 1006.69 L 995.34 1007.37 L 994.58 1008.04 L 993.87 1008.74 L 993.19 1009.45 L 992.53 1010.15 L 991.87 1010.94 L 991.22 1011.71 L 990.66 1012.44 L 990.16 1013.20 L 989.66 1013.93 L 989.19 1014.74" stroke="rgb(230,230,230)" stroke-opacity="0.372" stroke-width="0.67" />
  <path d="M 998.65 999.55 L 997.82 1000.21 L 996.82 1000.77 L 995.77 1001.35 L 994.74 1001.96 L 993.70 1002.81 L 992.67 1003.70 L 991.68 1004.58 L 990.69 1005.47 L 989.75 1006.34 L 988.81 1007.20 L 987.75 1008.03" stroke="rgb(230,230,230)" stroke-opacity="0.368" stroke-width="0.66" />
  <path d="M 1000.46 1000.48 L 1000.40 999.06 L 1000.35 997.64 L 1000.07 996.37 L 999.78 995.09 L 999.42 993.75 L 999.12 992.42 L 998.83 991.10 L 998.37 989.75 L 997.97 988.45 L 997.60 987.17" stroke="rgb(230,230,230)" stroke-opacity="0.367" stroke-width="0.66" />
  <path d="M 1000.86 997.36 L 1001.51 997.52 L 1001.77 997.68 L 1002.00 998.02 L 1002.13 998.31 L 1002.40 998.77 L 1002.64 999.30 L 1002.90 999.86 L 1003.02 1000.50 L 1003.03 1001.08 L 1003.05 1001.78 L 1003.07 1002.49 L 1003.29 1003.20 L 1003.42 1003.90 L 1003.55 1004.61 L 1003.62 1005.52 L 1003.69 1006.45" stroke="rgb(230,230,230)" stroke-opacity="0.365" stroke-width="0.65" />
  <path d="M 1001.88 1000.90 L 1002.36 1000.47 L 1002.84 1000.03 L 1003.29 999.77 L 1003.72 999.76 L 1004.34 999.84 L 1005.02 999.90 L 1005.85 1000.13 L 1006.67 1000.35 L 1007.35 1000.44 L 1008.00 1000.54 L 1008.73 1000.73" stroke="rgb(230,230,230)" stroke-opacity="0.365" stroke-width="0.65" />
  <path d="M 999.18 1005.20 L 999.79 1004.77 L 1000.37 1004.36 L 1000.94 1003.93 L 1001.39 1003.59 L 1001.72 1003.24 L 1002.00 1002.87 L 1002.16 1002.47 L 1002.31 1002.04 L 1002.45 1001.62 L 1002.66 1001.17 L 1002.89 1000.67 L 1003.17 1000.15" stroke="rgb(230,230,230)" stroke-opacity="0.364" stroke-width="0.65" />
  <path d="M 998.47 1000.35 L 997.54 1000.55 L 996.59 1000.73 L 995.63 1001.00 L 994.76 1001.36 L 993.85 1001.70 L 993.00 1002.06 L 992.22 1002.40 L 991.36 1002.66 L 990.49 1002.95 L 989.62 1003.28 L 988.78 1003.61 L 987.95 1003.83 L 987.04 1004.06" stroke="rgb(230,230,230)" stroke-opacity="0.361" stroke-width="0.64" />
  <path d="M 1001.66 993.37 L 1001.69 992.08 L 1001.75 990.88 L 1001.85 989.65 L 1001.83 988.39 L 1001.86 987.10 L 1001.78 985.89 L 1001.67 984.67 L 1001.58 983.59 L 1001.47 982.47" stroke="rgb(230,230,230)" stroke-opacity="0.360" stroke-width="0.64" />
  <path d="M 1000.44 995.52 L 1000.69 996.40 L 1000.89 997.25 L 1001.12 998.06 L 1001.35 998.90 L 1001.59 999.67 L 1001.82 1000.46 L 1001.97 1001.15 L 1002.18 1001.93 L 1002.42 1002.70 L 1002.71 1003.39" stroke="rgb(230,230,230)" stroke-opacity="0.358" stroke-width="0.63" />
  <path d="M 1000.46 995.62 L 999.80 995.84 L 999.13 996.01 L 998.61 996.14 L 998.10 996.26 L 997.48 996.26 L 996.77 996.30 L 996.05 996.39 L 995.40 996.51 L 994.87 996.59 L 994.36 996.59" stroke="rgb(230,230,230)" stroke-opacity="0.357" stroke-width="0.63" />
  <path d="M 993.04 1005.01 L 994.23 1004.44 L 995.47 1003.91 L 996.69 1003.42 L 997.89 1002.91 L 999.05 1002.53" stroke="rgb(230,230,230)" stroke-opacity="0.356" stroke-width="0.63" />
  <path d="M 1000.68 1000.15 L 1001.63 999.09 L 1002.48 998.03 L 1003.18 996.83 L 1003.78 995.56 L 1004.55 994.33 L 1005.37 993.14 L 1006.20 991.97 L 1007.06 990.83 L 1007.97 989.75 L 1009.01 988.82 L 1010.14 988.04 L 1011.34 987.33 L 1012.53 986.56 L 1013.56 985.58" stroke="rgb(230,230,230)" stroke-opacity="0.356" stroke-width="0.63" />
</g>
</svg>
