{
  "asset": {
    "version": "2.0",
    "generator": "TES-23 Cosmic Ray Renderer"
  },
  "extensionsUsed": [
    "KHR_materials_unlit"
  ],
  "extensionsRequired": [
    "KHR_materials_unlit"
  ],
  "scene": 0,
  "scenes": [
    {
      "nodes": [
        0
      ]
    }
  ],
  "nodes": [
    {
      "name": "CosmicRayEvent",
      "mesh": 0
    }
  ],
  "meshes": [
    {
      "name": "CosmicRayEvent",
      "primitives": [
        {
          "attributes": {
            "POSITION": 0
          },
          "material": 0,
          "mode": 1
        },
        {
          "attributes": {
            "POSITION": 1
          },
          "material": 1,
          "mode": 1
        },
        {
          "attributes": {
            "POSITION": 2
          },
          "material": 2,
          "mode": 1
        },
        {
          "attributes": {
            "POSITION": 3
          },
          "material": 3,
          "mode": 1
        },
        {
          "attributes": {
            "POSITION": 4
          },
          "material": 4,
          "mode": 1
        }
      ]
    }
  ],
  "materials": [
    {
      "name": "primary",
      "extensions": {
        "KHR_materials_unlit": {}
      },
      "pbrMetallicRoughness": {
        "baseColorFactor": [
          0.961,
          0.961,
          0.961,
          1
        ],
        "metallicFactor": 0,
        "roughnessFactor": 1
      }
    },
    {
      "name": "vertex",
      "extensions": {
        "KHR_materials_unlit": {}
      },
      "pbrMetallicRoughness": {
        "baseColorFactor": [
          0.902,
          0.902,
          0.902,
          0.9
        ],
        "metallicFactor": 0,
        "roughnessFactor": 1
      }
    },
    {
      "name": "em",
      "extensions": {
        "KHR_materials_unlit": {}
      },
      "pbrMetallicRoughness": {
        "baseColorFactor": [
          0.471,
          0.824,
          1,
          1
        ],
        "metallicFactor": 0,
        "roughnessFactor": 1
      }
    },
    {
      "name": "hadron",
      "extensions": {
        "KHR_materials_unlit": {}
      },
      "pbrMetallicRoughness": {
        "baseColorFactor": [
          0.549,
          1,
          0.745,
          1
        ],
        "metallicFactor": 0,
        "roughnessFactor": 1
      }
    },
    {
      "name": "delta",
      "extensions": {
        "KHR_materials_unlit": {}
      },
      "pbrMetallicRoughness": {
        "baseColorFactor": [
          0.804,
          0.647,
          1,
          1
        ],
        "metallicFactor": 0,
        "roughnessFactor": 1
      }
    }
  ],
  "accessors": [
    {
      "bufferView": 0,
      "byteOffset": 0,
      "componentType": 5126,
      "count": 1660,
      "type": "VEC3",
      "min": [
        -1.000206470489502,
        -0.7004132270812988,
        0
      ],
      "max": [
        1.0206615924835205,
        0.7466807961463928,
        0
      ]
    },
    {
      "bufferView": 1,
      "byteOffset": 0,
      "componentType": 5126,
      "count": 324,
      "type": "VEC3",
      "min": [
        -0.01670314557850361,
        -0.014804423786699772,
        -0.06537694483995438
      ],
      "max": [
        0.01622382178902626,
        0.013050316832959652,
        0.06482786685228348
      ]
    },
    {
      "bufferView": 2,
      "byteOffset": 0,
      "componentType": 5126,
      "count": 1496,
      "type": "VEC3",
      "min": [
        -0.0031373887322843075,
        -0.0047464496456086636,
        -0.029866117984056473
      ],
      "max": [
        0.23631832003593445,
        0.17763923108577728,
        0.19670891761779785
      ]
    },
    {
      "bufferView": 3,
      "byteOffset": 0,
      "componentType": 5126,
      "count": 1888,
      "type": "VEC3",
      "min": [
        -0.02706572413444519,
        -0.0036859996616840363,
        -0.3449553847312927
      ],
      "max": [
        0.26012805104255676,
        0.1890925168991089,
        0.7099647521972656
      ]
    },
    {
      "bufferView": 4,
      "byteOffset": 0,
      "componentType": 5126,
      "count": 248,
      "type": "VEC3",
      "min": [
        -0.004144911654293537,
        -0.0007908023544587195,
        -0.24687518179416656
      ],
      "max": [
        0.03512388840317726,
        0.06689687073230743,
        0.11366685479879379
      ]
    }
  ],
  "bufferViews": [
    {
      "buffer": 0,
      "byteOffset": 0,
      "byteLength": 19920,
      "target": 34962
    },
    {
      "buffer": 0,
      "byteOffset": 19920,
      "byteLength": 3888,
      "target": 34962
    },
    {
      "buffer": 0,
      "byteOffset": 23808,
      "byteLength": 17952,
      "target": 34962
    },
    {
      "buffer": 0,
      "byteOffset": 41760,
      "byteLength": 22656,
      "target": 34962
    },
    {
      "buffer": 0,
      "byteOffset": 64416,
      "byteLength": 2976,
      "target": 34962
    }
  ],
  "buffers": [
    {
      "byteLength": 67392,
      "uri": "data:application/octet-stream;base64,"
    }
  ]
}