{
  "asset": {
    "version": "2.0",
    "generator": "TES-23 Cosmic Ray Renderer"
  },
  "extensionsUsed": [
    "KHR_materials_unlit"
  ],
  "extensionsRequired": [
    "KHR_materials_unlit"
  ],
  "scene": 0,
  "scenes": [
    {
      "nodes": [
        0
      ]
    }
  ],
  "nodes": [
    {
      "name": "CosmicRayEvent",
      "mesh": 0
    }
  ],
  "meshes": [
    {
      "name": "CosmicRayEvent",
      "primitives": [
        {
          "attributes": {
            "POSITION": 0
          },
          "material": 0,
          "mode": 1
        },
        {
          "attributes": {
            "POSITION": 1
          },
          "material": 1,
          "mode": 1
        },
        {
          "attributes": {
            "POSITION": 2
          },
          "material": 2,
          "mode": 1
        },
        {
          "attributes": {
            "POSITION": 3
          },
          "material": 3,
          "mode": 1
        },
        {
          "attributes": {
            "POSITION": 4
          },
          "material": 4,
          "mode": 1
        },
        {
          "attributes": {
            "POSITION": 5
          },
          "material": 5,
          "mode": 1
        }
      ]
    }
  ],
  "materials": [
    {
      "name": "primary",
      "extensions": {
        "KHR_materials_unlit": {}
      },
      "pbrMetallicRoughness": {
        "baseColorFactor": [
          0.961,
          0.961,
          0.961,
          1
        ],
        "metallicFactor": 0,
        "roughnessFactor": 1
      }
    },
    {
      "name": "vertex",
      "extensions": {
        "KHR_materials_unlit": {}
      },
      "pbrMetallicRoughness": {
        "baseColorFactor": [
          0.902,
          0.902,
          0.902,
          0.9
        ],
        "metallicFactor": 0,
        "roughnessFactor": 1
      }
    },
    {
      "name": "em",
      "extensions": {
        "KHR_materials_unlit": {}
      },
      "pbrMetallicRoughness": {
        "baseColorFactor": [
          0.471,
          0.824,
          1,
          1
        ],
        "metallicFactor": 0,
        "roughnessFactor": 1
      }
    },
    {
      "name": "hadron",
      "extensions": {
        "KHR_materials_unlit": {}
      },
      "pbrMetallicRoughness": {
        "baseColorFactor": [
          0.549,
          1,
          0.745,
          1
        ],
        "metallicFactor": 0,
        "roughnessFactor": 1
      }
    },
    {
      "name": "delta",
      "extensions": {
        "KHR_materials_unlit": {}
      },
      "pbrMetallicRoughness": {
        "baseColorFactor": [
          0.804,
          0.647,
          1,
          1
        ],
        "metallicFactor": 0,
        "roughnessFactor": 1
      }
    },
    {
      "name": "backscatter",
      "extensions": {
        "KHR_materials_unlit": {}
      },
      "pbrMetallicRoughness": {
        "baseColorFactor": [
          1,
          0.824,
          0.529,
          0.95
        ],
        "metallicFactor": 0,
        "roughnessFactor": 1
      }
    }
  ],
  "accessors": [
    {
      "bufferView": 0,
      "byteOffset": 0,
      "componentType": 5126,
      "count": 1548,
      "type": "VEC3",
      "min": [
        -0.5812531113624573,
        -0.9999712109565735,
        0
      ],
      "max": [
        0.5564787983894348,
        1.0218616724014282,
        0
      ]
    },
    {
      "bufferView": 1,
      "byteOffset": 0,
      "componentType": 5126,
      "count": 286,
      "type": "VEC3",
      "min": [
        -0.01125479768961668,
        -0.007181120105087757,
        -0.07058684527873993
      ],
      "max": [
        0.011715400964021683,
        0.010885341092944145,
        0.10067851841449738
      ]
    },
    {
      "bufferView": 2,
      "byteOffset": 0,
      "componentType": 5126,
      "count": 1098,
      "type": "VEC3",
      "min": [
        -0.12838751077651978,
        -0.003397239837795496,
        -0.13386647403240204
      ],
      "max": [
        0.002777890535071492,
        0.21671411395072937,
        0.08615624159574509
      ]
    },
    {
      "bufferView": 3,
      "byteOffset": 0,
      "componentType": 5126,
      "count": 1696,
      "type": "VEC3",
      "min": [
        -0.1623762547969818,
        -0.002556285820901394,
        -0.6631816029548645
      ],
      "max": [
        0.10977966338396072,
        0.22176241874694824,
        0.10672503709793091
      ]
    },
    {
      "bufferView": 4,
      "byteOffset": 0,
      "componentType": 5126,
      "count": 582,
      "type": "VEC3",
      "min": [
        -0.0651824027299881,
        -0.16850681602954865,
        -0.37916380167007446
      ],
      "max": [
        0.10251710563898087,
        0.10516699403524399,
        0.12286913394927979
      ]
    },
    {
      "bufferView": 5,
      "byteOffset": 0,
      "componentType": 5126,
      "count": 670,
      "type": "VEC3",
      "min": [
        -0.21410271525382996,
        -0.1490028351545334,
        -0.4941597580909729
      ],
      "max": [
        0.08341968804597855,
        0.06020136550068855,
        0.7298219203948975
      ]
    }
  ],
  "bufferViews": [
    {
      "buffer": 0,
      "byteOffset": 0,
      "byteLength": 18576,
      "target": 34962
    },
    {
      "buffer": 0,
      "byteOffset": 18576,
      "byteLength": 3432,
      "target": 34962
    },
    {
      "buffer": 0,
      "byteOffset": 22008,
      "byteLength": 13176,
      "target": 34962
    },
    {
      "buffer": 0,
      "byteOffset": 35184,
      "byteLength": 20352,
      "target": 34962
    },
    {
      "buffer": 0,
      "byteOffset": 55536,
      "byteLength": 6984,
      "target": 34962
    },
    {
      "buffer": 0,
      "byteOffset": 62520,
      "byteLength": 8040,
      "target": 34962
    }
  ],
  "buffers": [
    {
      "byteLength": 70560,
      "uri": "data:application/octet-stream;base64,"
    }
  ]
}