{
  "asset": {
    "version": "2.0",
    "generator": "TES-23 Cosmic Ray Renderer"
  },
  "extensionsUsed": [
    "KHR_materials_unlit"
  ],
  "extensionsRequired": [
    "KHR_materials_unlit"
  ],
  "scene": 0,
  "scenes": [
    {
      "nodes": [
        0
      ]
    }
  ],
  "nodes": [
    {
      "name": "CosmicRayEvent",
      "mesh": 0
    }
  ],
  "meshes": [
    {
      "name": "CosmicRayEvent",
      "primitives": [
        {
          "attributes": {
            "POSITION": 0
          },
          "material": 0,
          "mode": 1
        },
        {
          "attributes": {
            "POSITION": 1
          },
          "material": 1,
          "mode": 1
        },
        {
          "attributes": {
            "POSITION": 2
          },
          "material": 2,
          "mode": 1
        },
        {
          "attributes": {
            "POSITION": 3
          },
          "material": 3,
          "mode": 1
        },
        {
          "attributes": {
            "POSITION": 4
          },
          "material": 4,
          "mode": 1
        },
        {
          "attributes": {
            "POSITION": 5
          },
          "material": 5,
          "mode": 1
        }
      ]
    }
  ],
  "materials": [
    {
      "name": "primary",
      "extensions": {
        "KHR_materials_unlit": {}
      },
      "pbrMetallicRoughness": {
        "baseColorFactor": [
          0.961,
          0.961,
          0.961,
          1
        ],
        "metallicFactor": 0,
        "roughnessFactor": 1
      }
    },
    {
      "name": "vertex",
      "extensions": {
        "KHR_materials_unlit": {}
      },
      "pbrMetallicRoughness": {
        "baseColorFactor": [
          0.902,
          0.902,
          0.902,
          0.9
        ],
        "metallicFactor": 0,
        "roughnessFactor": 1
      }
    },
    {
      "name": "em",
      "extensions": {
        "KHR_materials_unlit": {}
      },
      "pbrMetallicRoughness": {
        "baseColorFactor": [
          0.471,
          0.824,
          1,
          1
        ],
        "metallicFactor": 0,
        "roughnessFactor": 1
      }
    },
    {
      "name": "hadron",
      "extensions": {
        "KHR_materials_unlit": {}
      },
      "pbrMetallicRoughness": {
        "baseColorFactor": [
          0.549,
          1,
          0.745,
          1
        ],
        "metallicFactor": 0,
        "roughnessFactor": 1
      }
    },
    {
      "name": "delta",
      "extensions": {
        "KHR_materials_unlit": {}
      },
      "pbrMetallicRoughness": {
        "baseColorFactor": [
          0.804,
          0.647,
          1,
          1
        ],
        "metallicFactor": 0,
        "roughnessFactor": 1
      }
    },
    {
      "name": "backscatter",
      "extensions": {
        "KHR_materials_unlit": {}
      },
      "pbrMetallicRoughness": {
        "baseColorFactor": [
          1,
          0.824,
          0.529,
          0.95
        ],
        "metallicFactor": 0,
        "roughnessFactor": 1
      }
    }
  ],
  "accessors": [
    {
      "bufferView": 0,
      "byteOffset": 0,
      "componentType": 5126,
      "count": 1350,
      "type": "VEC3",
      "min": [
        -0.05988599732518196,
        -0.9999998211860657,
        0
      ],
      "max": [
        0.054246626794338226,
        1.0213910341262817,
        0
      ]
    },
    {
      "bufferView": 1,
      "byteOffset": 0,
      "componentType": 5126,
      "count": 306,
      "type": "VEC3",
      "min": [
        -0.015150283463299274,
        -0.013806907460093498,
        -0.0621400848031044
      ],
      "max": [
        0.015003340318799019,
        0.010804950259625912,
        0.08061975985765457
      ]
    },
    {
      "bufferView": 2,
      "byteOffset": 0,
      "componentType": 5126,
      "count": 1186,
      "type": "VEC3",
      "min": [
        -0.00395100237801671,
        -0.004866464529186487,
        -0.041127316653728485
      ],
      "max": [
        0.03961283341050148,
        0.22533465921878815,
        0.1775280088186264
      ]
    },
    {
      "bufferView": 3,
      "byteOffset": 0,
      "componentType": 5126,
      "count": 2058,
      "type": "VEC3",
      "min": [
        -0.02483419142663479,
        -0.064979687333107,
        -0.585247278213501
      ],
      "max": [
        0.1148577407002449,
        0.30038517713546753,
        0.6459644436836243
      ]
    },
    {
      "bufferView": 4,
      "byteOffset": 0,
      "componentType": 5126,
      "count": 950,
      "type": "VEC3",
      "min": [
        -0.04346223548054695,
        -0.16662122309207916,
        -0.18525293469429016
      ],
      "max": [
        0.02178543619811535,
        0.2879790961742401,
        0.47505444288253784
      ]
    },
    {
      "bufferView": 5,
      "byteOffset": 0,
      "componentType": 5126,
      "count": 1700,
      "type": "VEC3",
      "min": [
        -0.08231993764638901,
        -0.15497943758964539,
        -0.8341558575630188
      ],
      "max": [
        0.1601472645998001,
        0.1699584573507309,
        0.4362773001194
      ]
    }
  ],
  "bufferViews": [
    {
      "buffer": 0,
      "byteOffset": 0,
      "byteLength": 16200,
      "target": 34962
    },
    {
      "buffer": 0,
      "byteOffset": 16200,
      "byteLength": 3672,
      "target": 34962
    },
    {
      "buffer": 0,
      "byteOffset": 19872,
      "byteLength": 14232,
      "target": 34962
    },
    {
      "buffer": 0,
      "byteOffset": 34104,
      "byteLength": 24696,
      "target": 34962
    },
    {
      "buffer": 0,
      "byteOffset": 58800,
      "byteLength": 11400,
      "target": 34962
    },
    {
      "buffer": 0,
      "byteOffset": 70200,
      "byteLength": 20400,
      "target": 34962
    }
  ],
  "buffers": [
    {
      "byteLength": 90600,
      "uri": "data:application/octet-stream;base64,"
    }
  ]
}