{
  "asset": {
    "version": "2.0",
    "generator": "TES-23 Cosmic Ray Renderer"
  },
  "extensionsUsed": [
    "KHR_materials_unlit"
  ],
  "extensionsRequired": [
    "KHR_materials_unlit"
  ],
  "scene": 0,
  "scenes": [
    {
      "nodes": [
        0
      ]
    }
  ],
  "nodes": [
    {
      "name": "CosmicRayEvent",
      "mesh": 0
    }
  ],
  "meshes": [
    {
      "name": "CosmicRayEvent",
      "primitives": [
        {
          "attributes": {
            "POSITION": 0
          },
          "material": 0,
          "mode": 1
        },
        {
          "attributes": {
            "POSITION": 1
          },
          "material": 1,
          "mode": 1
        },
        {
          "attributes": {
            "POSITION": 2
          },
          "material": 2,
          "mode": 1
        },
        {
          "attributes": {
            "POSITION": 3
          },
          "material": 3,
          "mode": 1
        },
        {
          "attributes": {
            "POSITION": 4
          },
          "material": 4,
          "mode": 1
        }
      ]
    }
  ],
  "materials": [
    {
      "name": "primary",
      "extensions": {
        "KHR_materials_unlit": {}
      },
      "pbrMetallicRoughness": {
        "baseColorFactor": [
          0.961,
          0.961,
          0.961,
          1
        ],
        "metallicFactor": 0,
        "roughnessFactor": 1
      }
    },
    {
      "name": "vertex",
      "extensions": {
        "KHR_materials_unlit": {}
      },
      "pbrMetallicRoughness": {
        "baseColorFactor": [
          0.902,
          0.902,
          0.902,
          0.9
        ],
        "metallicFactor": 0,
        "roughnessFactor": 1
      }
    },
    {
      "name": "em",
      "extensions": {
        "KHR_materials_unlit": {}
      },
      "pbrMetallicRoughness": {
        "baseColorFactor": [
          0.471,
          0.824,
          1,
          1
        ],
        "metallicFactor": 0,
        "roughnessFactor": 1
      }
    },
    {
      "name": "hadron",
      "extensions": {
        "KHR_materials_unlit": {}
      },
      "pbrMetallicRoughness": {
        "baseColorFactor": [
          0.549,
          1,
          0.745,
          1
        ],
        "metallicFactor": 0,
        "roughnessFactor": 1
      }
    },
    {
      "name": "delta",
      "extensions": {
        "KHR_materials_unlit": {}
      },
      "pbrMetallicRoughness": {
        "baseColorFactor": [
          0.804,
          0.647,
          1,
          1
        ],
        "metallicFactor": 0,
        "roughnessFactor": 1
      }
    }
  ],
  "accessors": [
    {
      "bufferView": 0,
      "byteOffset": 0,
      "componentType": 5126,
      "count": 1356,
      "type": "VEC3",
      "min": [
        -0.08342144638299942,
        -1.000121831893921,
        0
      ],
      "max": [
        0.10717371851205826,
        1.0223571062088013,
        0
      ]
    },
    {
      "bufferView": 1,
      "byteOffset": 0,
      "componentType": 5126,
      "count": 338,
      "type": "VEC3",
      "min": [
        -0.019050801172852516,
        -0.005061551462858915,
        -0.05954926088452339
      ],
      "max": [
        0.011398199945688248,
        0.021025152876973152,
        0.09505487978458405
      ]
    },
    {
      "bufferView": 2,
      "byteOffset": 0,
      "componentType": 5126,
      "count": 1016,
      "type": "VEC3",
      "min": [
        -0.04159421846270561,
        -0.003988051321357489,
        -0.06864058971405029
      ],
      "max": [
        0.003880741074681282,
        0.26701265573501587,
        0.14925682544708252
      ]
    },
    {
      "bufferView": 3,
      "byteOffset": 0,
      "componentType": 5126,
      "count": 3588,
      "type": "VEC3",
      "min": [
        -0.15442802011966705,
        -0.0025895838625729084,
        -0.6719197034835815
      ],
      "max": [
        0.03538942709565163,
        0.41377002000808716,
        0.5114137530326843
      ]
    },
    {
      "bufferView": 4,
      "byteOffset": 0,
      "componentType": 5126,
      "count": 1010,
      "type": "VEC3",
      "min": [
        -0.057903990149497986,
        -0.10233578830957413,
        -0.7759029865264893
      ],
      "max": [
        0.20319996774196625,
        0.1740700751543045,
        0.8144832253456116
      ]
    }
  ],
  "bufferViews": [
    {
      "buffer": 0,
      "byteOffset": 0,
      "byteLength": 16272,
      "target": 34962
    },
    {
      "buffer": 0,
      "byteOffset": 16272,
      "byteLength": 4056,
      "target": 34962
    },
    {
      "buffer": 0,
      "byteOffset": 20328,
      "byteLength": 12192,
      "target": 34962
    },
    {
      "buffer": 0,
      "byteOffset": 32520,
      "byteLength": 43056,
      "target": 34962
    },
    {
      "buffer": 0,
      "byteOffset": 75576,
      "byteLength": 12120,
      "target": 34962
    }
  ],
  "buffers": [
    {
      "byteLength": 87696,
      "uri": "data:application/octet-stream;base64,"
    }
  ]
}