{
  "asset": {
    "version": "2.0",
    "generator": "TES-23 Cosmic Ray Renderer"
  },
  "extensionsUsed": [
    "KHR_materials_unlit"
  ],
  "extensionsRequired": [
    "KHR_materials_unlit"
  ],
  "scene": 0,
  "scenes": [
    {
      "nodes": [
        0
      ]
    }
  ],
  "nodes": [
    {
      "name": "CosmicRayEvent",
      "mesh": 0
    }
  ],
  "meshes": [
    {
      "name": "CosmicRayEvent",
      "primitives": [
        {
          "attributes": {
            "POSITION": 0
          },
          "material": 0,
          "mode": 1
        },
        {
          "attributes": {
            "POSITION": 1
          },
          "material": 1,
          "mode": 1
        },
        {
          "attributes": {
            "POSITION": 2
          },
          "material": 2,
          "mode": 1
        },
        {
          "attributes": {
            "POSITION": 3
          },
          "material": 3,
          "mode": 1
        },
        {
          "attributes": {
            "POSITION": 4
          },
          "material": 4,
          "mode": 1
        },
        {
          "attributes": {
            "POSITION": 5
          },
          "material": 5,
          "mode": 1
        }
      ]
    }
  ],
  "materials": [
    {
      "name": "primary",
      "extensions": {
        "KHR_materials_unlit": {}
      },
      "pbrMetallicRoughness": {
        "baseColorFactor": [
          0.961,
          0.961,
          0.961,
          1
        ],
        "metallicFactor": 0,
        "roughnessFactor": 1
      }
    },
    {
      "name": "vertex",
      "extensions": {
        "KHR_materials_unlit": {}
      },
      "pbrMetallicRoughness": {
        "baseColorFactor": [
          0.902,
          0.902,
          0.902,
          0.9
        ],
        "metallicFactor": 0,
        "roughnessFactor": 1
      }
    },
    {
      "name": "em",
      "extensions": {
        "KHR_materials_unlit": {}
      },
      "pbrMetallicRoughness": {
        "baseColorFactor": [
          0.471,
          0.824,
          1,
          1
        ],
        "metallicFactor": 0,
        "roughnessFactor": 1
      }
    },
    {
      "name": "hadron",
      "extensions": {
        "KHR_materials_unlit": {}
      },
      "pbrMetallicRoughness": {
        "baseColorFactor": [
          0.549,
          1,
          0.745,
          1
        ],
        "metallicFactor": 0,
        "roughnessFactor": 1
      }
    },
    {
      "name": "delta",
      "extensions": {
        "KHR_materials_unlit": {}
      },
      "pbrMetallicRoughness": {
        "baseColorFactor": [
          0.804,
          0.647,
          1,
          1
        ],
        "metallicFactor": 0,
        "roughnessFactor": 1
      }
    },
    {
      "name": "backscatter",
      "extensions": {
        "KHR_materials_unlit": {}
      },
      "pbrMetallicRoughness": {
        "baseColorFactor": [
          1,
          0.824,
          0.529,
          0.95
        ],
        "metallicFactor": 0,
        "roughnessFactor": 1
      }
    }
  ],
  "accessors": [
    {
      "bufferView": 0,
      "byteOffset": 0,
      "componentType": 5126,
      "count": 1430,
      "type": "VEC3",
      "min": [
        -1.0215622186660767,
        -0.35866472125053406,
        0
      ],
      "max": [
        0.9996513724327087,
        0.3511052131652832,
        0
      ]
    },
    {
      "bufferView": 1,
      "byteOffset": 0,
      "componentType": 5126,
      "count": 370,
      "type": "VEC3",
      "min": [
        -0.01687261275947094,
        -0.017796454951167107,
        -0.1304786205291748
      ],
      "max": [
        0.019968632608652115,
        0.01447016466408968,
        0.09205221384763718
      ]
    },
    {
      "bufferView": 2,
      "byteOffset": 0,
      "componentType": 5126,
      "count": 408,
      "type": "VEC3",
      "min": [
        -0.2016967386007309,
        -0.06968115270137787,
        -0.08128853887319565
      ],
      "max": [
        0.0005160801811143756,
        0.0015691113658249378,
        0.02138681523501873
      ]
    },
    {
      "bufferView": 3,
      "byteOffset": 0,
      "componentType": 5126,
      "count": 1992,
      "type": "VEC3",
      "min": [
        -0.23433566093444824,
        -0.19858157634735107,
        -0.2140384167432785
      ],
      "max": [
        0.12246837466955185,
        0.1301535964012146,
        0.4579317569732666
      ]
    },
    {
      "bufferView": 4,
      "byteOffset": 0,
      "componentType": 5126,
      "count": 738,
      "type": "VEC3",
      "min": [
        -0.2216678261756897,
        -0.07315672934055328,
        -0.1161775216460228
      ],
      "max": [
        0.045858319848775864,
        0.12297534197568893,
        0.5842618346214294
      ]
    },
    {
      "bufferView": 5,
      "byteOffset": 0,
      "componentType": 5126,
      "count": 398,
      "type": "VEC3",
      "min": [
        -0.10587476938962936,
        -0.05063445866107941,
        -0.3986606001853943
      ],
      "max": [
        0.07301285117864609,
        0.09335927665233612,
        0.2724609076976776
      ]
    }
  ],
  "bufferViews": [
    {
      "buffer": 0,
      "byteOffset": 0,
      "byteLength": 17160,
      "target": 34962
    },
    {
      "buffer": 0,
      "byteOffset": 17160,
      "byteLength": 4440,
      "target": 34962
    },
    {
      "buffer": 0,
      "byteOffset": 21600,
      "byteLength": 4896,
      "target": 34962
    },
    {
      "buffer": 0,
      "byteOffset": 26496,
      "byteLength": 23904,
      "target": 34962
    },
    {
      "buffer": 0,
      "byteOffset": 50400,
      "byteLength": 8856,
      "target": 34962
    },
    {
      "buffer": 0,
      "byteOffset": 59256,
      "byteLength": 4776,
      "target": 34962
    }
  ],
  "buffers": [
    {
      "byteLength": 64032,
      "uri": "data:application/octet-stream;base64,"
    }
  ]
}