<?xml version="1.0" encoding="UTF-8"?>
<svg xmlns="http://www.w3.org/2000/svg" width="2000" height="2000" viewBox="0 0 2000 2000">
<g fill="none" stroke-linecap="round" stroke-linejoin="round">
  <path d="M 1001.91 999.53 L 1002.81 996.53 L 1003.73 993.54 L 1004.62 990.56 L 1005.50 987.59 L 1006.42 984.64 L 1007.30 981.69 L 1008.25 978.78 L 1009.28 975.91 L 1010.38 973.08 L 1011.50 970.27 L 1012.63 967.47 L 1013.79 964.71 L 1015.01 961.98 L 1016.17 959.24 L 1017.32 956.50 L 1018.60 953.84 L 1019.83 951.16 L 1021.04 948.50 L 1022.28 945.86 L 1023.51 943.22 L 1024.81 940.64 L 1026.11 938.06 L 1027.42 935.50 L 1028.76 932.98 L 1030.08 930.45 L 1031.42 927.95 L 1032.76 925.46 L 1034.07 922.97 L 1035.38 920.49 L 1036.74 918.05 L 1038.04 915.59 L 1039.41 913.18 L 1040.81 910.81 L 1042.24 908.46 L 1043.75 906.17 L 1045.18 903.86 L 1046.53 901.50 L 1047.87 899.15 L 1049.25 896.84 L 1050.68 894.57 L 1052.09 892.29 L 1053.47 890.02 L 1054.90 887.79 L 1056.33 885.57 L 1057.74 883.35 L 1059.14 881.13 L 1060.52 878.92 L 1061.87 876.70 L 1063.21 874.49 L 1064.52 872.27 L 1065.89 870.09 L 1067.22 867.91 L 1068.51 865.71 L 1069.72 863.49 L 1070.91 861.26 L 1072.07 859.02 L 1073.22 856.80 L 1074.30 854.55 L 1075.48 852.36 L 1076.66 850.18 L 1077.83 848.01 L 1079.04 845.87 L 1080.26 843.75 L 1081.52 841.66 L 1082.79 839.60 L 1084.06 837.53 L 1085.28 835.46 L 1086.57 833.44 L 1087.81 831.40 L 1089.00 829.34 L 1090.16 827.27 L 1091.29 825.20 L 1092.48 823.17 L 1093.66 821.15 L 1094.84 819.14 L 1096.05 817.15 L 1097.22 815.16 L 1098.36 813.16 L 1099.47 811.15 L 1100.56 809.14 L 1101.69 807.17 L 1102.80 805.19" stroke="rgb(120,210,255)" stroke-opacity="0.855" stroke-width="1.64" />
  <path d="M 998.91 1000.74 L 999.32 997.70 L 999.70 994.67 L 1000.12 991.66 L 1000.40 988.65 L 1000.73 985.65 L 1001.08 982.67 L 1001.42 979.70 L 1001.76 976.74 L 1002.13 973.79 L 1002.61 970.87 L 1003.07 967.97 L 1003.51 965.07 L 1004.02 962.19 L 1004.52 959.33 L 1005.09 956.49 L 1005.63 953.65 L 1006.03 950.80 L 1006.33 947.96 L 1006.54 945.11 L 1006.73 942.28 L 1006.82 939.45 L 1006.89 936.64 L 1007.00 933.83 L 1007.11 931.04 L 1007.25 928.26 L 1007.38 925.49 L 1007.65 922.75 L 1007.84 920.00 L 1008.04 917.27 L 1008.17 914.55 L 1008.29 911.83 L 1008.43 909.13 L 1008.52 906.43 L 1008.60 903.75 L 1008.67 901.08 L 1008.74 898.41 L 1008.86 895.76 L 1008.92 893.12 L 1008.99 890.49 L 1009.06 887.87 L 1009.11 885.26 L 1009.19 882.66 L 1009.33 880.08 L 1009.42 877.50 L 1009.46 874.93 L 1009.53 872.37 L 1009.69 869.83 L 1009.77 867.29 L 1009.87 864.77 L 1009.97 862.25 L 1010.07 859.74 L 1010.09 857.25 L 1010.26 854.76 L 1010.48 852.30 L 1010.74 849.84 L 1011.01 847.40 L 1011.28 844.97 L 1011.52 842.54 L 1011.74 840.12 L 1011.95 837.71 L 1012.14 835.31 L 1012.27 832.91 L 1012.45 830.53 L 1012.55 828.15 L 1012.71 825.79 L 1012.91 823.43 L 1013.09 821.09 L 1013.22 818.75 L 1013.42 816.42 L 1013.66 814.11 L 1013.86 811.81 L 1014.15 809.52 L 1014.38 807.23 L 1014.67 804.96" stroke="rgb(120,210,255)" stroke-opacity="0.468" stroke-width="1.63" />
  <path d="M 999.16 996.05 L 999.78 992.64 L 1000.43 989.25 L 1001.11 985.87 L 1001.79 982.51 L 1002.49 979.17 L 1003.20 975.85 L 1003.93 972.54 L 1004.72 969.26 L 1005.51 966.00 L 1006.34 962.76 L 1007.14 959.52 L 1007.90 956.29 L 1008.59 953.06 L 1009.27 949.84 L 1009.93 946.63 L 1010.54 943.42 L 1011.10 940.21 L 1011.63 937.02 L 1012.16 933.83 L 1012.69 930.66 L 1013.22 927.51 L 1013.73 924.36 L 1014.22 921.22 L 1014.72 918.10 L 1015.21 914.99 L 1015.65 911.88 L 1016.11 908.79 L 1016.56 905.71 L 1016.99 902.64 L 1017.40 899.58 L 1017.79 896.53 L 1018.19 893.49 L 1018.58 890.46 L 1018.89 887.44 L 1019.28 884.44 L 1019.70 881.45 L 1020.17 878.49 L 1020.60 875.53 L 1021.00 872.58 L 1021.46 869.65 L 1021.90 866.73 L 1022.41 863.83 L 1022.87 860.93 L 1023.27 858.04 L 1023.59 855.15 L 1023.92 852.27 L 1024.23 849.40 L 1024.53 846.55 L 1024.81 843.70 L 1025.00 840.86 L 1025.19 838.02 L 1025.41 835.20 L 1025.68 832.40 L 1025.90 829.61 L 1026.04 826.82 L 1026.20 824.04 L 1026.37 821.27 L 1026.52 818.52 L 1026.66 815.77 L 1026.80 813.04 L 1026.92 810.31 L 1027.04 807.60 L 1027.17 804.90 L 1027.25 802.20 L 1027.35 799.52 L 1027.44 796.85 L 1027.53 794.19 L 1027.61 791.54 L 1027.67 788.90 L 1027.73 786.27 L 1027.75 783.65 L 1027.81 781.04 L 1027.88 778.44 L 1027.94 775.85 L 1028.00 773.28 L 1028.09 770.71 L 1028.22 768.15 L 1028.29 765.61 L 1028.37 763.07 L 1028.45 760.55 L 1028.55 758.03 L 1028.71 755.53 L 1028.87 753.04" stroke="rgb(120,210,255)" stroke-opacity="0.850" stroke-width="1.62" />
  <path d="M 1001.42 997.49 L 1002.33 994.31 L 1003.14 991.11 L 1003.95 987.92 L 1004.73 984.74 L 1005.59 981.59 L 1006.52 978.48 L 1007.40 975.36 L 1008.25 972.25 L 1009.11 969.16 L 1009.97 966.08 L 1010.85 963.02 L 1011.76 959.98 L 1012.70 956.96 L 1013.61 953.95 L 1014.53 950.96 L 1015.45 947.97 L 1016.34 944.99 L 1017.28 942.04 L 1018.24 939.11 L 1019.16 936.18 L 1020.12 933.27 L 1021.09 930.38 L 1022.03 927.50 L 1022.90 924.60 L 1023.72 921.71 L 1024.54 918.82 L 1025.35 915.94 L 1026.11 913.07 L 1026.84 910.20 L 1027.61 907.35 L 1028.39 904.51 L 1029.16 901.69 L 1029.97 898.89 L 1030.83 896.11 L 1031.78 893.38 L 1032.74 890.67 L 1033.71 887.96 L 1034.67 885.27 L 1035.67 882.61 L 1036.70 879.96 L 1037.72 877.33 L 1038.75 874.71 L 1039.72 872.09 L 1040.70 869.47 L 1041.72 866.88 L 1042.75 864.32 L 1043.77 861.76 L 1044.75 859.19" stroke="rgb(120,210,255)" stroke-opacity="0.848" stroke-width="1.62" />
  <path d="M 999.25 998.10 L 999.88 994.97 L 1000.59 991.86 L 1001.31 988.77 L 1002.01 985.69 L 1002.69 982.62 L 1003.44 979.58 L 1004.17 976.54 L 1004.96 973.53 L 1005.73 970.53 L 1006.43 967.53 L 1007.22 964.56 L 1008.05 961.61 L 1008.80 958.66 L 1009.54 955.72 L 1010.26 952.78 L 1010.96 949.85 L 1011.66 946.93 L 1012.35 944.03 L 1013.05 941.14 L 1013.78 938.26 L 1014.47 935.39 L 1015.11 932.53 L 1015.79 929.68 L 1016.39 926.82 L 1016.93 923.97 L 1017.53 921.14 L 1018.14 918.32 L 1018.79 915.53 L 1019.34 912.72 L 1019.93 909.94" stroke="rgb(120,210,255)" stroke-opacity="0.848" stroke-width="1.62" />
  <path d="M 997.60 996.18 L 998.50 992.97 L 999.37 989.76 L 1000.24 986.57 L 1001.10 983.40 L 1001.91 980.22 L 1002.75 977.06 L 1003.56 973.91 L 1004.34 970.76 L 1005.16 967.64 L 1005.88 964.51 L 1006.56 961.38 L 1007.26 958.27 L 1007.91 955.16 L 1008.56 952.07 L 1009.17 948.98 L 1009.81 945.90 L 1010.46 942.85 L 1011.13 939.81 L 1011.80 936.78 L 1012.49 933.77 L 1013.14 930.76 L 1013.82 927.77 L 1014.38 924.78 L 1014.96 921.79 L 1015.50 918.81 L 1016.08 915.85 L 1016.69 912.92 L 1017.32 909.99 L 1017.96 907.08 L 1018.55 904.17" stroke="rgb(120,210,255)" stroke-opacity="0.847" stroke-width="1.62" />
  <path d="M 1009.33 880.08 L 1009.45 876.71 L 1009.60 873.36 L 1009.75 870.02 L 1009.89 866.70 L 1010.03 863.39 L 1010.18 860.09 L 1010.38 856.81 L 1010.52 853.54 L 1010.63 850.28 L 1010.78 847.03 L 1010.94 843.80 L 1011.13 840.58 L 1011.24 837.37 L 1011.41 834.18 L 1011.55 831.00 L 1011.66 827.83 L 1011.77 824.68 L 1011.84 821.53 L 1011.96 818.40 L 1012.04 815.28 L 1012.18 812.17 L 1012.30 809.08 L 1012.42 806.00 L 1012.61 802.93 L 1012.81 799.88 L 1012.96 796.84 L 1013.02 793.80 L 1013.09 790.78 L 1013.19 787.77 L 1013.24 784.78 L 1013.28 781.79 L 1013.33 778.82 L 1013.33 775.85 L 1013.25 772.90 L 1013.15 769.97 L 1012.97 767.04 L 1012.81 764.13 L 1012.64 761.23 L 1012.44 758.35 L 1012.22 755.48 L 1012.04 752.61 L 1011.96 749.76 L 1011.86 746.91 L 1011.81 744.08 L 1011.73 741.26 L 1011.69 738.45 L 1011.61 735.65 L 1011.51 732.86 L 1011.39 730.08 L 1011.29 727.32 L 1011.17 724.56 L 1011.11 721.82 L 1011.11 719.08 L 1011.12 716.36 L 1011.13 713.65 L 1011.17 710.95 L 1011.25 708.26 L 1011.33 705.58 L 1011.44 702.91 L 1011.52 700.25 L 1011.65 697.61 L 1011.79 694.97 L 1011.91 692.35 L 1012.03 689.74 L 1012.18 687.14 L 1012.32 684.54 L 1012.50 681.96 L 1012.67 679.40 L 1012.85 676.84 L 1013.06 674.29 L 1013.28 671.76 L 1013.44 669.23 L 1013.53 666.71 L 1013.58 664.19 L 1013.61 661.69 L 1013.66 659.20 L 1013.78 656.72 L 1013.88 654.25 L 1013.96 651.78 L 1014.05 649.33 L 1014.10 646.89 L 1014.15 644.45 L 1014.23 642.03 L 1014.33 639.62 L 1014.42 637.21 L 1014.48 634.82 L 1014.59 632.44 L 1014.67 630.06 L 1014.76 627.70 L 1014.88 625.34 L 1014.98 623.00 L 1015.04 620.66 L 1015.11 618.33 L 1015.15 616.01 L 1015.25 613.70 L 1015.31 611.40 L 1015.31 609.11 L 1015.34 606.83 L 1015.35 604.55 L 1015.33 602.29 L 1015.29 600.03 L 1015.22 597.79 L 1015.15 595.55 L 1015.04 593.32 L 1014.96 591.11 L 1014.91 588.89 L 1014.82 586.69 L 1014.74 584.50 L 1014.58 582.32 L 1014.42 580.15 L 1014.27 577.99" stroke="rgb(120,210,255)" stroke-opacity="0.845" stroke-width="1.61" />
  <path d="M 1000.76 1000.57 L 1001.43 997.53 L 1002.12 994.50 L 1002.78 991.48 L 1003.45 988.47 L 1004.08 985.47 L 1004.70 982.48 L 1005.31 979.49 L 1005.98 976.54 L 1006.70 973.61 L 1007.43 970.69 L 1008.02 967.75 L 1008.68 964.84 L 1009.36 961.95 L 1010.06 959.07 L 1010.68 956.19 L 1011.27 953.31 L 1011.86 950.45 L 1012.57 947.63 L 1013.33 944.83 L 1014.03 942.02 L 1014.73 939.23 L 1015.43 936.45 L 1016.14 933.69 L 1016.84 930.93 L 1017.57 928.19 L 1018.27 925.46 L 1018.84 922.71 L 1019.46 919.98 L 1020.12 917.28 L 1020.77 914.58 L 1021.45 911.90 L 1022.07 909.21 L 1022.63 906.53 L 1023.09 903.84 L 1023.63 901.17 L 1024.25 898.53 L 1024.91 895.91 L 1025.63 893.32 L 1026.32 890.74 L 1027.01 888.16 L 1027.62 885.58 L 1028.19 882.99 L 1028.79 880.43 L 1029.37 877.87 L 1029.92 875.31 L 1030.58 872.79 L 1031.25 870.29 L 1031.90 867.79 L 1032.55 865.30 L 1033.26 862.84 L 1033.87 860.36 L 1034.42 857.88 L 1034.98 855.41 L 1035.50 852.94 L 1036.04 850.49 L 1036.54 848.04 L 1037.13 845.62 L 1037.82 843.24 L 1038.53 840.87 L 1039.17 838.49 L 1039.83 836.13 L 1040.53 833.79 L 1041.25 831.47 L 1042.02 829.17 L 1042.81 826.89 L 1043.62 824.63 L 1044.38 822.36 L 1045.03 820.07 L 1045.71 817.79 L 1046.37 815.52 L 1046.98 813.25 L 1047.67 811.01 L 1048.37 808.78 L 1049.06 806.55 L 1049.69 804.32 L 1050.28 802.09 L 1050.86 799.87 L 1051.43 797.65 L 1051.96 795.43 L 1052.44 793.21 L 1052.94 791.00 L 1053.46 788.81 L 1053.95 786.62 L 1054.43 784.44 L 1054.89 782.26 L 1055.39 780.10 L 1055.89 777.95 L 1056.32 775.79 L 1056.65 773.62 L 1056.93 771.46 L 1057.17 769.30 L 1057.39 767.14 L 1057.50 764.99" stroke="rgb(120,210,255)" stroke-opacity="0.845" stroke-width="1.61" />
  <path d="M 999.41 999.22 L 1000.10 996.07 L 1000.77 992.92 L 1001.46 989.79 L 1002.11 986.67 L 1002.78 983.56 L 1003.47 980.47 L 1004.19 977.40 L 1004.96 974.36 L 1005.68 971.31 L 1006.40 968.28 L 1007.17 965.28 L 1007.96 962.29 L 1008.63 959.28 L 1009.38 956.31 L 1010.07 953.34 L 1010.76 950.37 L 1011.45 947.43 L 1012.22 944.51 L 1012.92 941.59 L 1013.58 938.67 L 1014.31 935.78 L 1014.99 932.89 L 1015.70 930.02 L 1016.43 927.16 L 1017.11 924.31 L 1017.76 921.46 L 1018.42 918.63 L 1019.16 915.82 L 1019.89 913.03 L 1020.64 910.25 L 1021.33 907.47 L 1021.97 904.69 L 1022.63 901.93 L 1023.22 899.16 L 1023.88 896.42 L 1024.60 893.71 L 1025.22 890.99" stroke="rgb(120,210,255)" stroke-opacity="0.843" stroke-width="1.60" />
  <path d="M 1002.18 999.42 L 1002.86 996.26 L 1003.61 993.14 L 1004.40 990.04 L 1005.17 986.95 L 1005.94 983.87 L 1006.75 980.81 L 1007.56 977.77 L 1008.26 974.71 L 1008.93 971.66 L 1009.62 968.62 L 1010.34 965.61 L 1011.05 962.61 L 1011.81 959.63 L 1012.53 956.65 L 1013.27 953.69 L 1014.00 950.75 L 1014.80 947.83 L 1015.57 944.91 L 1016.30 942.00 L 1017.09 939.12 L 1017.93 936.26 L 1018.70 933.40 L 1019.52 930.56 L 1020.33 927.73 L 1021.14 924.92 L 1021.89 922.10 L 1022.60 919.28 L 1023.29 916.47 L 1023.97 913.67 L 1024.63 910.87 L 1025.28 908.09 L 1025.94 905.32 L 1026.66 902.57 L 1027.28 899.81 L 1027.93 897.08 L 1028.60 894.35 L 1029.26 891.64 L 1029.94 888.94 L 1030.56 886.24 L 1031.15 883.55 L 1031.78 880.87 L 1032.43 878.21 L 1033.05 875.56 L 1033.65 872.91 L 1034.21 870.27 L 1034.79 867.64" stroke="rgb(120,210,255)" stroke-opacity="0.843" stroke-width="1.60" />
  <path d="M 1001.10 994.90 L 1001.74 991.51 L 1002.39 988.14 L 1002.95 984.76 L 1003.53 981.41 L 1004.07 978.06 L 1004.60 974.72 L 1005.10 971.39 L 1005.52 968.06 L 1005.94 964.75 L 1006.39 961.45 L 1006.87 958.18 L 1007.39 954.92 L 1007.94 951.68 L 1008.45 948.45 L 1008.94 945.22 L 1009.45 942.02 L 1009.90 938.81 L 1010.37 935.63 L 1010.81 932.45" stroke="rgb(120,210,255)" stroke-opacity="0.842" stroke-width="1.60" />
  <path d="M 1001.30 999.89 L 1002.32 996.83 L 1003.43 993.82 L 1004.53 990.82 L 1005.56 987.81 L 1006.57 984.81 L 1007.58 981.82 L 1008.54 978.82 L 1009.39 975.81 L 1010.33 972.83 L 1011.34 969.90 L 1012.39 966.98 L 1013.41 964.07 L 1014.34 961.15 L 1015.26 958.23 L 1016.12 955.32 L 1016.95 952.40 L 1017.77 949.49 L 1018.66 946.61 L 1019.55 943.75 L 1020.50 940.92 L 1021.41 938.09 L 1022.30 935.27 L 1023.21 932.46 L 1024.09 929.66 L 1025.00 926.88 L 1025.93 924.12 L 1026.81 921.36 L 1027.70 918.60" stroke="rgb(120,210,255)" stroke-opacity="0.842" stroke-width="1.60" />
  <path d="M 1001.20 1001.21 L 1002.07 997.82 L 1002.95 994.45 L 1003.79 991.08 L 1004.67 987.74 L 1005.49 984.39 L 1006.31 981.06 L 1007.06 977.73 L 1007.85 974.42 L 1008.61 971.12 L 1009.33 967.82 L 1010.07 964.54 L 1010.80 961.27 L 1011.49 958.01 L 1012.14 954.75 L 1012.78 951.50 L 1013.44 948.28 L 1014.06 945.05 L 1014.73 941.85 L 1015.37 938.66 L 1016.01 935.48 L 1016.58 932.30 L 1017.12 929.13 L 1017.65 925.97 L 1018.17 922.82" stroke="rgb(120,210,255)" stroke-opacity="0.839" stroke-width="1.59" />
  <path d="M 999.97 1001.41 L 998.69 1004.63 L 997.49 1007.86 L 996.27 1011.07 L 995.02 1014.26 L 993.85 1017.45 L 992.71 1020.65 L 991.57 1023.83 L 990.40 1026.98 L 989.25 1030.13 L 988.11 1033.27 L 986.98 1036.40 L 985.86 1039.51 L 984.69 1042.60 L 983.51 1045.66 L 982.33 1048.72 L 981.20 1051.77 L 980.07 1054.81 L 978.95 1057.85 L 977.80 1060.85 L 976.68 1063.86 L 975.56 1066.85 L 974.44 1069.83 L 973.29 1072.78 L 972.13 1075.72 L 970.95 1078.63 L 969.79 1081.54 L 968.65 1084.44" stroke="rgb(205,165,255)" stroke-opacity="0.722" stroke-width="1.25" />
  <path d="M 1004.39 922.43 L 1005.03 920.26 L 1005.58 918.08 L 1006.11 915.90 L 1006.55 913.71 L 1006.79 911.50 L 1007.08 909.30 L 1007.49 907.13 L 1007.94 904.98 L 1008.46 902.85 L 1008.86 900.71 L 1009.15 898.55 L 1009.37 896.40 L 1009.53 894.25 L 1009.59 892.11 L 1009.55 889.97 L 1009.49 887.84 L 1009.23 885.74 L 1008.95 883.64 L 1008.60 881.57 L 1008.23 879.50 L 1007.84 877.46 L 1007.20 875.48 L 1006.58 873.50 L 1006.05 871.51 L 1005.44 869.55" stroke="rgb(140,255,190)" stroke-opacity="0.560" stroke-width="1.21" />
  <path d="M 999.38 999.08 L 999.02 995.89 L 998.66 992.72 L 998.32 989.55 L 997.98 986.40 L 997.59 983.27 L 997.26 980.14 L 996.98 977.03 L 996.68 973.92 L 996.42 970.83 L 996.22 967.74 L 996.01 964.66 L 995.81 961.60 L 995.68 958.55 L 995.47 955.51 L 995.30 952.48 L 995.23 949.46 L 995.15 946.46 L 995.02 943.46 L 994.91 940.48 L 994.74 937.51 L 994.60 934.56 L 994.38 931.62 L 994.20 928.69 L 994.02 925.77 L 993.95 922.85 L 993.94 919.95 L 993.98 917.06 L 994.02 914.19 L 994.12 911.32 L 994.22 908.47 L 994.35 905.63 L 994.50 902.80 L 994.64 899.98 L 994.83 897.18 L 994.94 894.38 L 995.07 891.59 L 995.23 888.82 L 995.45 886.07 L 995.65 883.32" stroke="rgb(205,165,255)" stroke-opacity="0.709" stroke-width="1.21" />
  <path d="M 1083.39 769.06 L 1085.24 767.73 L 1087.14 766.49 L 1089.05 765.27 L 1090.96 764.08 L 1092.86 762.88 L 1094.62 761.51 L 1096.36 760.12 L 1098.06 758.69 L 1099.77 757.29 L 1101.33 755.74 L 1102.89 754.21 L 1104.33 752.57 L 1105.85 751.01 L 1107.44 749.54 L 1109.07 748.13 L 1110.73 746.76 L 1112.47 745.53 L 1114.11 744.16 L 1115.71 742.77 L 1117.36 741.45 L 1119.05 740.20 L 1120.68 738.89 L 1122.35 737.63 L 1123.92 736.27 L 1125.44 734.86 L 1126.90 733.40 L 1128.21 731.82 L 1129.50 730.23 L 1130.86 728.72 L 1132.27 727.25 L 1133.67 725.80 L 1135.15 724.43 L 1136.63 723.08 L 1138.08 721.70 L 1139.53 720.34 L 1141.04 719.05 L 1142.60 717.84 L 1144.24 716.76 L 1145.93 715.77 L 1147.54 714.67 L 1149.11 713.53 L 1150.69 712.41 L 1152.25 711.27 L 1153.84 710.20 L 1155.51 709.27 L 1157.14 708.29 L 1158.79 707.35 L 1160.51 706.58 L 1162.16 705.68 L 1163.76 704.69 L 1165.32 703.68 L 1166.94 702.75 L 1168.59 701.92 L 1170.23 701.09 L 1171.79 700.11 L 1173.44 699.32 L 1175.13 698.63" stroke="rgb(140,255,190)" stroke-opacity="0.560" stroke-width="1.21" />
  <path d="M 1002.15 998.87 L 1002.97 995.84 L 1003.84 992.83 L 1004.78 989.86 L 1005.77 986.92 L 1006.65 983.96 L 1007.55 981.01 L 1008.41 978.07 L 1009.27 975.14 L 1010.17 972.24 L 1011.03 969.33 L 1011.86 966.43 L 1012.69 963.54 L 1013.51 960.66 L 1014.30 957.79 L 1015.08 954.92 L 1015.84 952.07 L 1016.58 949.21 L 1017.32 946.38 L 1018.08 943.55 L 1018.89 940.76 L 1019.65 937.96 L 1020.36 935.16 L 1021.04 932.37 L 1021.72 929.59 L 1022.39 926.81 L 1022.98 924.03 L 1023.59 921.27 L 1024.16 918.51 L 1024.78 915.77 L 1025.35 913.04 L 1025.89 910.30 L 1026.42 907.58 L 1026.94 904.87 L 1027.43 902.16 L 1028.01 899.48 L 1028.52 896.80 L 1029.07 894.14 L 1029.54 891.47 L 1030.03 888.82 L 1030.57 886.19 L 1031.11 883.57 L 1031.56 880.94 L 1032.09 878.34 L 1032.61 875.75 L 1033.13 873.17 L 1033.67 870.60 L 1034.26 868.06 L 1034.78 865.51 L 1035.27 862.96 L 1035.79 860.44 L 1036.29 857.92 L 1036.77 855.40 L 1037.29 852.90 L 1037.75 850.41 L 1038.12 847.90 L 1038.54 845.42 L 1038.95 842.94 L 1039.37 840.48 L 1039.86 838.04 L 1040.32 835.60 L 1040.79 833.18 L 1041.21 830.76 L 1041.64 828.34 L 1042.08 825.95 L 1042.57 823.56 L 1043.10 821.20 L 1043.68 818.86 L 1044.29 816.54 L 1044.96 814.24 L 1045.65 811.97 L 1046.28 809.68 L 1046.94 807.41 L 1047.61 805.15 L 1048.27 802.90 L 1048.95 800.67 L 1049.60 798.44 L 1050.26 796.22" stroke="rgb(205,165,255)" stroke-opacity="0.704" stroke-width="1.20" />
  <path d="M 1002.98 1003.55 L 1001.64 1006.73 L 1000.24 1009.89 L 998.85 1013.02 L 997.46 1016.14 L 996.12 1019.27 L 994.76 1022.38 L 993.34 1025.44 L 991.96 1028.51 L 990.58 1031.56 L 989.13 1034.56 L 987.67 1037.55 L 986.19 1040.51 L 984.70 1043.45" stroke="rgb(140,255,190)" stroke-opacity="0.740" stroke-width="1.19" />
  <path d="M 996.39 1001.23 L 997.47 997.94 L 998.57 994.68 L 999.68 991.43 L 1000.77 988.20 L 1001.85 984.97 L 1002.92 981.76 L 1004.00 978.56 L 1005.08 975.38 L 1006.16 972.21 L 1007.15 969.02 L 1008.16 965.86 L 1009.14 962.70 L 1010.18 959.58 L 1011.21 956.46 L 1012.24 953.36 L 1013.32 950.29 L 1014.34 947.21 L 1015.35 944.14 L 1016.36 941.09 L 1017.39 938.06 L 1018.43 935.04 L 1019.46 932.03 L 1020.40 929.01 L 1021.37 926.01 L 1022.33 923.02 L 1023.31 920.05 L 1024.32 917.10 L 1025.30 914.16 L 1026.25 911.22 L 1027.16 908.28 L 1028.06 905.35 L 1028.96 902.43 L 1029.87 899.53 L 1030.81 896.65 L 1031.73 893.78 L 1032.63 890.91 L 1033.58 888.08 L 1034.51 885.25 L 1035.45 882.43 L 1036.38 879.62 L 1037.26 876.81 L 1038.13 874.01 L 1038.99 871.22 L 1039.83 868.43 L 1040.68 865.67 L 1041.50 862.90 L 1042.33 860.14 L 1043.18 857.41 L 1044.00 854.68 L 1044.79 851.95 L 1045.64 849.25 L 1046.50 846.57 L 1047.38 843.90 L 1048.21 841.24 L 1049.04 838.58 L 1049.86 835.93 L 1050.67 833.29 L 1051.47 830.66 L 1052.23 828.02 L 1053.00 825.40 L 1053.78 822.80 L 1054.57 820.21 L 1055.33 817.63 L 1056.08 815.05 L 1056.84 812.48 L 1057.59 809.93 L 1058.28 807.37 L 1058.95 804.81 L 1059.60 802.26 L 1060.26 799.72 L 1060.90 797.19 L 1061.52 794.66 L 1062.17 792.16 L 1062.82 789.66 L 1063.45 787.17 L 1064.06 784.68 L 1064.66 782.21 L 1065.31 779.75 L 1065.96 777.31 L 1066.61 774.87 L 1067.28 772.46" stroke="rgb(140,255,190)" stroke-opacity="0.739" stroke-width="1.19" />
  <path d="M 1060.26 799.72 L 1061.75 797.93 L 1063.23 796.13 L 1064.59 794.26 L 1065.97 792.41 L 1067.27 790.51 L 1068.67 788.70 L 1070.09 786.92 L 1071.37 785.04 L 1072.62 783.16 L 1073.89 781.30 L 1075.18 779.46 L 1076.41 777.60 L 1077.67 775.76 L 1079.03 774.01 L 1080.42 772.29 L 1081.89 770.66 L 1083.39 769.06 L 1084.94 767.53 L 1086.56 766.08 L 1088.26 764.75 L 1090.00 763.47 L 1091.71 762.16 L 1093.40 760.86 L 1095.08 759.55 L 1096.76 758.25 L 1098.43 756.96 L 1100.09 755.67 L 1101.86 754.55 L 1103.68 753.52 L 1105.51 752.54 L 1107.37 751.62 L 1109.23 750.74 L 1111.13 749.96" stroke="rgb(140,255,190)" stroke-opacity="0.554" stroke-width="1.19" />
  <path d="M 998.93 998.42 L 1000.84 1000.97 L 1002.79 1003.48 L 1004.78 1005.94 L 1006.81 1008.35 L 1008.73 1010.83 L 1010.64 1013.31 L 1012.56 1015.76 L 1014.51 1018.17 L 1016.44 1020.58 L 1018.42 1022.93 L 1020.32 1025.33 L 1022.24 1027.71 L 1024.09 1030.12 L 1025.87 1032.57 L 1027.62 1035.02 L 1029.40 1037.44 L 1031.19 1039.84 L 1032.97 1042.23 L 1034.73 1044.62 L 1036.50 1046.99 L 1038.23 1049.37 L 1039.94 1051.74 L 1041.71 1054.07 L 1043.45 1056.40 L 1045.16 1058.73 L 1046.86 1061.07 L 1048.51 1063.42 L 1050.12 1065.79 L 1051.76 1068.12 L 1053.35 1070.47 L 1054.99 1072.77 L 1056.60 1075.09 L 1058.12 1077.44 L 1059.67 1079.77 L 1061.29 1082.03 L 1062.87 1084.31 L 1064.48 1086.55 L 1066.05 1088.81 L 1067.59 1091.08 L 1069.15 1093.31 L 1070.79 1095.47 L 1072.41 1097.65 L 1073.97 1099.84 L 1075.47 1102.07 L 1076.97 1104.28 L 1078.50 1106.46 L 1080.03 1108.63 L 1081.54 1110.80 L 1082.99 1112.99 L 1084.43 1115.18 L 1085.85 1117.37" stroke="rgb(205,165,255)" stroke-opacity="0.701" stroke-width="1.19" />
  <path d="M 1093.40 760.86 L 1096.27 759.05 L 1099.07 757.15 L 1101.82 755.22 L 1104.56 753.29 L 1107.28 751.35 L 1109.98 749.41 L 1112.67 747.48 L 1115.42 745.65 L 1118.08 743.73 L 1120.76 741.84 L 1123.39 739.92 L 1125.94 737.92 L 1128.47 735.90 L 1131.01 733.92 L 1133.50 731.89 L 1135.97 729.87 L 1138.46 727.89 L 1140.95 725.93 L 1143.43 723.98 L 1145.91 722.04 L 1148.32 720.04 L 1150.80 718.15 L 1153.32 716.33 L 1155.86 714.56 L 1158.39 712.81 L 1160.87 711.00 L 1163.34 709.20 L 1165.84 707.46 L 1168.33 705.72 L 1170.74 703.91 L 1173.16 702.12 L 1175.57 700.34 L 1177.95 698.54 L 1180.33 696.76 L 1182.75 695.05 L 1185.16 693.35 L 1187.54 691.64" stroke="rgb(140,255,190)" stroke-opacity="0.738" stroke-width="1.19" />
  <path d="M 993.72 884.11 L 993.73 881.76 L 993.81 879.41 L 994.00 877.09 L 994.06 874.76 L 993.98 872.45 L 993.96 870.14 L 993.78 867.85 L 993.46 865.59 L 993.30 863.31 L 993.20 861.04 L 993.17 858.78 L 993.28 856.53 L 993.59 854.31 L 993.89 852.10 L 994.33 849.92 L 994.80 847.75" stroke="rgb(140,255,190)" stroke-opacity="0.553" stroke-width="1.19" />
  <path d="M 1002.61 926.41 L 1003.37 924.22 L 1004.15 922.05 L 1004.79 919.84 L 1005.46 917.65 L 1006.02 915.44 L 1006.63 913.26 L 1007.27 911.09 L 1007.83 908.91 L 1008.42 906.74 L 1008.99 904.58 L 1009.47 902.41 L 1010.08 900.28 L 1010.78 898.18 L 1011.53 896.11 L 1012.11 894.00 L 1012.71 891.90 L 1013.39 889.84 L 1014.14 887.81 L 1014.84 885.77 L 1015.56 883.75 L 1016.28 881.74 L 1017.11 879.78 L 1017.95 877.83 L 1018.70 875.85 L 1019.61 873.95 L 1020.61 872.11 L 1021.61 870.28 L 1022.59 868.44 L 1023.62 866.65 L 1024.69 864.89 L 1025.81 863.16 L 1026.93 861.45 L 1028.08 859.77 L 1029.38 858.21 L 1030.79 856.76 L 1032.11 855.23 L 1033.43 853.72 L 1034.72 852.20 L 1036.11 850.78" stroke="rgb(140,255,190)" stroke-opacity="0.549" stroke-width="1.17" />
  <path d="M 1002.89 940.21 L 1001.36 937.16 L 999.79 934.14 L 998.20 931.15 L 996.57 928.19 L 994.95 925.24 L 993.29 922.33 L 991.63 919.44 L 990.07 916.51 L 988.50 913.59 L 986.86 910.73 L 985.21 907.89 L 983.57 905.06 L 981.94 902.24 L 980.34 899.42 L 978.78 896.60 L 977.21 893.79 L 975.69 890.96 L 974.19 888.15 L 972.80 885.29 L 971.45 882.42 L 970.12 879.57 L 968.84 876.70 L 967.62 873.82 L 966.41 870.94 L 965.25 868.06 L 964.10 865.19 L 962.98 862.33 L 961.84 859.48 L 960.73 856.64 L 959.61 853.81 L 958.53 850.98 L 957.46 848.15 L 956.41 845.34 L 955.39 842.52 L 954.37 839.72 L 953.36 836.93 L 952.30 834.17 L 951.28 831.40 L 950.30 828.64 L 949.35 825.87 L 948.32 823.15 L 947.36 820.42 L 946.36 817.71 L 945.31 815.03 L 944.27 812.36 L 943.23 809.70 L 942.17 807.07 L 941.10 804.44 L 940.04 801.83 L 938.96 799.24 L 937.80 796.70 L 936.62 794.17 L 935.47 791.65 L 934.36 789.12 L 933.30 786.58 L 932.22 784.06 L 931.15 781.55 L 930.05 779.06 L 929.00 776.56 L 927.98 774.07 L 926.98 771.58 L 925.94 769.11 L 924.88 766.67 L 923.73 764.27 L 922.62 761.87 L 921.51 759.48 L 920.43 757.09 L 919.35 754.71" stroke="rgb(140,255,190)" stroke-opacity="0.729" stroke-width="1.17" />
  <path d="M 1003.85 928.31 L 1002.93 925.05 L 1002.07 921.78 L 1001.21 918.54 L 1000.33 915.31 L 999.43 912.10 L 998.55 908.90 L 997.70 905.70 L 996.74 902.55 L 995.82 899.40 L 994.91 896.26 L 994.00 893.13 L 993.12 890.01 L 992.19 886.92 L 991.24 883.85 L 990.14 880.84 L 989.06 877.84 L 987.97 874.86 L 986.82 871.91 L 985.70 868.96 L 984.59 866.03 L 983.47 863.10 L 982.30 860.22 L 981.16 857.34 L 979.95 854.49 L 978.83 851.62 L 977.69 848.78 L 976.58 845.94 L 975.49 843.10 L 974.44 840.26 L 973.36 837.44 L 972.24 834.66 L 971.10 831.89 L 969.89 829.17 L 968.74 826.43 L 967.52 823.74 L 966.36 821.03 L 965.20 818.34 L 963.97 815.69 L 962.76 813.04 L 961.55 810.41 L 960.28 807.82 L 959.06 805.21 L 957.82 802.63 L 956.58 800.07 L 955.37 797.50" stroke="rgb(140,255,190)" stroke-opacity="0.727" stroke-width="1.16" />
  <path d="M 997.73 997.67 L 998.47 994.52 L 999.23 991.39 L 999.99 988.27 L 1000.69 985.15 L 1001.38 982.04 L 1001.96 978.93 L 1002.50 975.81 L 1002.98 972.70 L 1003.46 969.61 L 1003.84 966.51 L 1004.20 963.42 L 1004.63 960.36 L 1005.12 957.31 L 1005.59 954.28 L 1006.07 951.26 L 1006.58 948.25 L 1007.09 945.26 L 1007.57 942.28 L 1008.02 939.30 L 1008.45 936.33 L 1009.00 933.40 L 1009.44 930.46 L 1009.92 927.53 L 1010.39 924.62 L 1010.92 921.73 L 1011.44 918.85 L 1011.94 915.98 L 1012.45 913.12 L 1012.96 910.27 L 1013.43 907.43 L 1013.90 904.60 L 1014.39 901.79 L 1014.84 898.98 L 1015.24 896.17 L 1015.76 893.39 L 1016.27 890.63 L 1016.78 887.88 L 1017.28 885.13 L 1017.88 882.42 L 1018.39 879.70 L 1018.89 876.99 L 1019.35 874.28 L 1019.75 871.58 L 1020.11 868.88 L 1020.46 866.19 L 1020.86 863.52 L 1021.20 860.85 L 1021.50 858.19 L 1021.74 855.53 L 1021.98 852.88 L 1022.13 850.24 L 1022.21 847.60 L 1022.27 844.97 L 1022.28 842.36 L 1022.31 839.75 L 1022.31 837.16 L 1022.28 834.57 L 1022.25 832.00 L 1022.23 829.43 L 1022.29 826.88 L 1022.46 824.34 L 1022.65 821.81 L 1022.81 819.30 L 1022.98 816.79 L 1023.18 814.29 L 1023.37 811.81 L 1023.57 809.33 L 1023.80 806.87 L 1024.03 804.42 L 1024.20 801.97 L 1024.38 799.53 L 1024.55 797.10 L 1024.63 794.68 L 1024.70 792.27 L 1024.74 789.86 L 1024.76 787.47 L 1024.79 785.08 L 1024.87 782.71 L 1024.93 780.34 L 1025.02 777.98 L 1025.08 775.64 L 1025.15 773.30 L 1025.20 770.97 L 1025.24 768.65 L 1025.34 766.34 L 1025.37 764.04 L 1025.38 761.75 L 1025.38 759.47 L 1025.34 757.19 L 1025.29 754.93 L 1025.23 752.67 L 1025.13 750.43 L 1025.00 748.20 L 1024.85 745.97 L 1024.69 743.76 L 1024.54 741.55 L 1024.44 739.35" stroke="rgb(140,255,190)" stroke-opacity="0.727" stroke-width="1.16" />
  <path d="M 998.62 1000.30 L 997.01 997.75 L 995.37 995.22 L 993.76 992.70 L 992.18 990.16 L 990.57 987.66 L 989.02 985.14 L 987.39 982.69 L 985.70 980.28 L 984.03 977.88 L 982.40 975.47 L 980.81 973.03 L 979.26 970.60 L 977.74 968.15 L 976.19 965.74 L 974.60 963.37 L 973.03 960.99 L 971.47 958.63 L 969.94 956.26 L 968.46 953.87 L 966.98 951.49 L 965.57 949.09 L 964.25 946.65 L 962.90 944.23 L 961.61 941.80 L 960.37 939.35 L 959.11 936.92 L 957.82 934.53 L 956.55 932.13 L 955.29 929.74 L 954.00 927.39 L 952.69 925.04 L 951.37 922.73 L 950.06 920.42 L 948.76 918.11 L 947.45 915.82 L 946.10 913.57 L 944.74 911.34 L 943.47 909.07 L 942.20 906.80 L 940.94 904.54 L 939.68 902.31" stroke="rgb(205,165,255)" stroke-opacity="0.481" stroke-width="1.16" />
  <path d="M 1019.59 948.95 L 1019.59 945.73 L 1019.62 942.52 L 1019.64 939.32 L 1019.59 936.14 L 1019.48 932.97 L 1019.31 929.82 L 1019.12 926.68 L 1019.00 923.55 L 1018.83 920.44 L 1018.77 917.33 L 1018.59 914.24 L 1018.39 911.16 L 1018.13 908.10 L 1017.86 905.06 L 1017.68 902.02 L 1017.41 899.00 L 1017.13 895.99 L 1016.87 892.99 L 1016.64 890.00 L 1016.30 887.03 L 1016.01 884.08 L 1015.65 881.14 L 1015.27 878.21 L 1014.79 875.31 L 1014.21 872.45 L 1013.68 869.58 L 1013.16 866.72 L 1012.67 863.87" stroke="rgb(140,255,190)" stroke-opacity="0.724" stroke-width="1.15" />
  <path d="M 1000.00 999.56 L 1000.14 996.32 L 1000.23 993.09 L 1000.42 989.88 L 1000.55 986.68 L 1000.65 983.49 L 1000.78 980.32 L 1000.92 977.16 L 1001.03 974.01 L 1001.17 970.87 L 1001.41 967.75 L 1001.68 964.65 L 1001.98 961.56 L 1002.21 958.48 L 1002.33 955.41 L 1002.45 952.34 L 1002.56 949.29 L 1002.68 946.25 L 1002.79 943.23 L 1002.89 940.21 L 1003.02 937.21 L 1003.25 934.23 L 1003.55 931.26 L 1003.85 928.31 L 1004.14 925.37 L 1004.39 922.43 L 1004.65 919.51 L 1004.92 916.60 L 1005.16 913.70 L 1005.36 910.81 L 1005.49 907.93 L 1005.64 905.06 L 1005.74 902.20 L 1005.87 899.35 L 1005.97 896.51 L 1006.03 893.68" stroke="rgb(140,255,190)" stroke-opacity="0.723" stroke-width="1.15" />
  <path d="M 999.90 998.87 L 1000.37 995.62 L 1000.87 992.39 L 1001.32 989.16 L 1001.72 985.94 L 1002.09 982.73 L 1002.52 979.54 L 1002.94 976.36 L 1003.47 973.21 L 1003.99 970.08 L 1004.51 966.95 L 1005.05 963.84 L 1005.54 960.74 L 1005.95 957.64 L 1006.29 954.54 L 1006.63 951.46 L 1006.94 948.38 L 1007.33 945.33 L 1007.74 942.29" stroke="rgb(140,255,190)" stroke-opacity="0.721" stroke-width="1.15" />
  <path d="M 1001.17 1000.06 L 1001.38 996.86 L 1001.64 993.68 L 1001.99 990.52 L 1002.37 987.37 L 1002.83 984.25 L 1003.29 981.14 L 1003.70 978.04 L 1004.11 974.95 L 1004.47 971.87 L 1004.81 968.79 L 1005.15 965.73 L 1005.48 962.68 L 1005.83 959.65 L 1006.20 956.63 L 1006.53 953.62 L 1006.80 950.61 L 1007.06 947.61 L 1007.36 944.64 L 1007.66 941.67 L 1007.86 938.70 L 1007.98 935.75 L 1008.01 932.80 L 1007.99 929.87" stroke="rgb(140,255,190)" stroke-opacity="0.721" stroke-width="1.15" />
  <path d="M 998.79 1000.95 L 999.89 998.34 L 1001.00 995.75 L 1002.16 993.20 L 1003.24 990.62 L 1004.32 988.05 L 1005.31 985.46 L 1006.29 982.88 L 1007.19 980.28 L 1008.08 977.69 L 1008.96 975.11 L 1009.93 972.57 L 1010.90 970.04 L 1011.88 967.53 L 1012.88 965.04 L 1013.84 962.54 L 1014.78 960.05" stroke="rgb(205,165,255)" stroke-opacity="0.479" stroke-width="1.15" />
  <path d="M 953.42 1006.57 L 951.01 1006.05 L 948.60 1005.58 L 946.20 1005.11 L 943.82 1004.63 L 941.47 1004.05 L 939.13 1003.46 L 936.77 1002.98 L 934.42 1002.54 L 932.05 1002.28 L 929.68 1002.05 L 927.33 1001.76 L 924.99 1001.48 L 922.67 1001.13 L 920.37 1000.75 L 918.09 1000.25 L 915.80 999.92 L 913.50 999.71 L 911.23 999.33 L 908.95 999.06 L 906.68 998.83" stroke="rgb(140,255,190)" stroke-opacity="0.539" stroke-width="1.14" />
  <path d="M 998.71 998.77 L 997.13 1001.43 L 995.58 1004.09 L 994.02 1006.73 L 992.37 1009.31 L 990.71 1011.86 L 989.04 1014.39 L 987.37 1016.91 L 985.73 1019.43 L 984.17 1021.99 L 982.61 1024.54 L 981.07 1027.08 L 979.53 1029.61 L 977.95 1032.09 L 976.40 1034.59 L 974.78 1037.03 L 973.12 1039.42 L 971.47 1041.81 L 969.79 1044.15 L 968.07 1046.47 L 966.28 1048.70 L 964.53 1050.96 L 962.85 1053.26 L 961.10 1055.49 L 959.37 1057.72 L 957.67 1059.95 L 955.92 1062.13 L 954.19 1064.32 L 952.50 1066.52 L 950.84 1068.74 L 949.25 1070.99 L 947.65 1073.22 L 946.08 1075.45" stroke="rgb(140,255,190)" stroke-opacity="0.538" stroke-width="1.14" />
  <path d="M 1002.37 996.97 L 1003.40 994.00 L 1004.42 991.03 L 1005.39 988.07 L 1006.31 985.10 L 1007.18 982.13 L 1008.01 979.16 L 1008.91 976.22 L 1009.83 973.30 L 1010.70 970.39 L 1011.58 967.48 L 1012.42 964.58 L 1013.27 961.69 L 1014.07 958.80 L 1015.00 955.96 L 1015.92 953.14 L 1016.83 950.32 L 1017.64 947.48 L 1018.50 944.67" stroke="rgb(140,255,190)" stroke-opacity="0.715" stroke-width="1.13" />
  <path d="M 1020.40 929.01 L 1022.30 926.58 L 1024.20 924.17 L 1026.14 921.80 L 1028.10 919.46 L 1030.03 917.12 L 1032.00 914.82 L 1034.02 912.60 L 1036.07 910.41 L 1038.19 908.30 L 1040.31 906.21 L 1042.40 904.11 L 1044.46 901.99 L 1046.52 899.90 L 1048.61 897.85 L 1050.74 895.85 L 1052.88 893.89 L 1054.95 891.87 L 1057.01 889.85 L 1059.09 887.87 L 1061.18 885.92 L 1063.28 884.01 L 1065.42 882.14 L 1067.64 880.39 L 1069.81 878.61 L 1071.93 876.78 L 1074.04 874.95 L 1076.20 873.19 L 1078.32 871.42 L 1080.43 869.63 L 1082.55 867.89 L 1084.70 866.20 L 1086.89 864.58 L 1089.08 862.98 L 1091.20 861.30 L 1093.36 859.69 L 1095.51 858.10 L 1097.60 856.43 L 1099.63 854.71 L 1101.70 853.06 L 1103.75 851.40 L 1105.83 849.80 L 1107.90 848.19 L 1109.97 846.61 L 1112.00 844.99" stroke="rgb(140,255,190)" stroke-opacity="0.536" stroke-width="1.13" />
  <path d="M 998.48 1003.27 L 999.22 1000.24 L 999.95 997.22 L 1000.66 994.20 L 1001.31 991.19 L 1001.97 988.19 L 1002.60 985.20 L 1003.27 982.22 L 1003.95 979.27 L 1004.65 976.33 L 1005.30 973.39 L 1006.02 970.48 L 1006.79 967.59 L 1007.52 964.71 L 1008.32 961.86 L 1009.12 959.02 L 1009.97 956.20 L 1010.81 953.40 L 1011.65 950.61 L 1012.48 947.83 L 1013.31 945.06 L 1014.09 942.28 L 1014.79 939.50 L 1015.52 936.74 L 1016.33 934.01 L 1017.19 931.31 L 1018.04 928.62 L 1018.78 925.91 L 1019.64 923.24 L 1020.55 920.60 L 1021.45 917.97 L 1022.38 915.37 L 1023.31 912.77 L 1024.22 910.18 L 1025.14 907.61 L 1026.08 905.05 L 1026.95 902.49 L 1027.78 899.91 L 1028.62 897.36 L 1029.52 894.83 L 1030.47 892.34 L 1031.44 889.86 L 1032.38 887.39 L 1033.32 884.93 L 1034.31 882.49 L 1035.35 880.09 L 1036.37 877.69 L 1037.47 875.34 L 1038.53 872.98 L 1039.62 870.65 L 1040.68 868.32 L 1041.78 866.01 L 1042.91 863.73" stroke="rgb(140,255,190)" stroke-opacity="0.714" stroke-width="1.13" />
  <path d="M 1003.67 999.19 L 1002.90 1002.03 L 1002.12 1004.86 L 1001.39 1007.69 L 1000.72 1010.52 L 1000.03 1013.33 L 999.30 1016.12 L 998.56 1018.90 L 997.68 1021.63 L 996.86 1024.36 L 996.05 1027.08 L 995.23 1029.78 L 994.35 1032.46 L 993.49 1035.13 L 992.61 1037.78 L 991.71 1040.42 L 990.82 1043.04 L 989.89 1045.64 L 988.99 1048.24 L 988.16 1050.85 L 987.33 1053.45 L 986.51 1056.04 L 985.75 1058.64 L 985.01 1061.23 L 984.35 1063.83 L 983.74 1066.44 L 983.16 1069.04 L 982.58 1071.63 L 981.91 1074.18 L 981.18 1076.71 L 980.47 1079.23" stroke="rgb(140,255,190)" stroke-opacity="0.533" stroke-width="1.12" />
  <path d="M 1000.07 999.21 L 1000.17 996.16 L 1000.27 993.11 L 1000.37 990.08 L 1000.36 987.06 L 1000.45 984.06 L 1000.60 981.07 L 1000.79 978.09 L 1000.96 975.12 L 1001.10 972.16 L 1001.18 969.22 L 1001.31 966.28 L 1001.47 963.36 L 1001.56 960.45 L 1001.64 957.55 L 1001.77 954.67 L 1001.94 951.79 L 1002.08 948.93 L 1002.15 946.08 L 1002.17 943.23 L 1002.25 940.40 L 1002.37 937.58 L 1002.41 934.77 L 1002.47 931.98 L 1002.55 929.19 L 1002.61 926.41 L 1002.72 923.65 L 1002.75 920.90 L 1002.76 918.15 L 1002.80 915.42 L 1002.93 912.70 L 1003.00 910.00 L 1003.07 907.30 L 1003.14 904.61 L 1003.18 901.93 L 1003.20 899.26 L 1003.19 896.61 L 1003.26 893.96 L 1003.43 891.33 L 1003.50 888.71 L 1003.52 886.10 L 1003.46 883.49 L 1003.40 880.90 L 1003.30 878.32 L 1003.24 875.75 L 1003.28 873.19 L 1003.31 870.63 L 1003.33 868.09 L 1003.39 865.56 L 1003.52 863.04 L 1003.64 860.53 L 1003.76 858.04" stroke="rgb(140,255,190)" stroke-opacity="0.533" stroke-width="1.12" />
  <path d="M 1001.14 1000.64 L 1002.12 998.34 L 1003.12 996.07 L 1004.24 993.85 L 1005.22 991.59 L 1006.14 989.31 L 1007.02 987.03 L 1007.93 984.77 L 1008.71 982.47 L 1009.39 980.15 L 1010.13 977.86 L 1010.86 975.57 L 1011.65 973.32 L 1012.47 971.08 L 1013.26 968.85 L 1013.96 966.59 L 1014.57 964.32 L 1015.17 962.06 L 1015.79 959.81 L 1016.37 957.56 L 1017.05 955.35 L 1017.83 953.18 L 1018.69 951.05 L 1019.59 948.95 L 1020.51 946.87 L 1021.42 944.79 L 1022.28 942.70 L 1023.20 940.65 L 1024.06 938.58 L 1024.90 936.51 L 1025.66 934.42 L 1026.40 932.33 L 1027.19 930.27 L 1028.11 928.28 L 1029.03 926.30 L 1029.98 924.33 L 1030.99 922.41 L 1031.91 920.46 L 1032.82 918.51 L 1033.74 916.57" stroke="rgb(140,255,190)" stroke-opacity="0.532" stroke-width="1.12" />
  <path d="M 1009.97 956.20 L 1009.75 953.19 L 1009.48 950.19 L 1009.36 947.19 L 1009.28 944.21 L 1009.14 941.23 L 1009.04 938.27 L 1008.90 935.32 L 1008.72 932.39 L 1008.69 929.46 L 1008.69 926.54 L 1008.78 923.64 L 1008.75 920.75 L 1008.70 917.87 L 1008.59 915.00 L 1008.43 912.14 L 1008.23 909.30 L 1008.02 906.47 L 1007.85 903.66 L 1007.74 900.84 L 1007.63 898.04 L 1007.46 895.26 L 1007.27 892.49 L 1007.00 889.73 L 1006.76 886.98 L 1006.53 884.25 L 1006.32 881.52 L 1006.14 878.80 L 1006.02 876.09 L 1005.95 873.39 L 1005.94 870.70 L 1005.96 868.02 L 1006.03 865.35 L 1006.03 862.69 L 1006.08 860.04 L 1006.17 857.40 L 1006.20 854.77 L 1006.23 852.16 L 1006.23 849.55 L 1006.18 846.95" stroke="rgb(140,255,190)" stroke-opacity="0.532" stroke-width="1.12" />
  <path d="M 1003.20 899.26 L 1002.09 896.38 L 1001.07 893.48 L 1000.02 890.60 L 999.02 887.71 L 998.00 884.85 L 997.06 881.97 L 996.19 879.09 L 995.37 876.20 L 994.56 873.32 L 993.82 870.43 L 992.95 867.59 L 992.03 864.78 L 991.12 861.98 L 990.26 859.18 L 989.43 856.38 L 988.61 853.59 L 987.78 850.81 L 986.94 848.05 L 986.16 845.28 L 985.32 842.55 L 984.58 839.80 L 983.77 837.07 L 982.94 834.37 L 981.99 831.72 L 980.99 829.09 L 979.91 826.52 L 978.83 823.95 L 977.83 821.37 L 976.89 818.77 L 975.94 816.19 L 975.02 813.61 L 974.12 811.03 L 973.25 808.46 L 972.51 805.86 L 971.74 803.27 L 970.99 800.69 L 970.18 798.15 L 969.30 795.63 L 968.46 793.12 L 967.58 790.62 L 966.73 788.13 L 965.77 785.69 L 964.83 783.26 L 963.95 780.81 L 963.08 778.37 L 962.20 775.95 L 961.45 773.49 L 960.71 771.04 L 959.95 768.61 L 959.17 766.19 L 958.41 763.78 L 957.67 761.38 L 956.97 758.97 L 956.27 756.57 L 955.57 754.18 L 954.89 751.80 L 954.18 749.44 L 953.47 747.08 L 952.71 744.75 L 951.89 742.46 L 951.11 740.15 L 950.38 737.85 L 949.71 735.54 L 948.97 733.25 L 948.23 730.98 L 947.51 728.71 L 946.76 726.46 L 946.01 724.22 L 945.28 721.99 L 944.53 719.76 L 943.77 717.56 L 943.04 715.35 L 942.38 713.13 L 941.69 710.93 L 941.00 708.74 L 940.41 706.53 L 939.81 704.34 L 939.18 702.16 L 938.46 700.02 L 937.87 697.84 L 937.24 695.69" stroke="rgb(140,255,190)" stroke-opacity="0.531" stroke-width="1.11" />
  <path d="M 1002.61 926.41 L 1001.94 923.87 L 1001.18 921.37 L 1000.51 918.85 L 999.82 916.34 L 999.22 913.82 L 998.67 911.31 L 998.23 908.78 L 997.75 906.27 L 997.29 903.76 L 997.11 901.23 L 996.78 898.73 L 996.42 896.24 L 995.95 893.78 L 995.37 891.35 L 994.88 888.91 L 994.33 886.50 L 993.72 884.11 L 993.24 881.70 L 992.80 879.29 L 992.45 876.88 L 992.29 874.46 L 992.04 872.06 L 991.65 869.68 L 991.24 867.32 L 990.89 864.96 L 990.39 862.63 L 989.96 860.30 L 989.49 857.99 L 988.93 855.71 L 988.29 853.46 L 987.56 851.24 L 986.82 849.04 L 985.94 846.90 L 984.99 844.80 L 984.01 842.73 L 982.99 840.68" stroke="rgb(140,255,190)" stroke-opacity="0.531" stroke-width="1.11" />
  <path d="M 1000.72 998.63 L 997.83 999.06 L 994.96 999.45 L 992.12 1000.02 L 989.31 1000.62 L 986.50 1001.18 L 983.69 1001.71 L 980.91 1002.30 L 978.12 1002.83 L 975.33 1003.25 L 972.55 1003.62 L 969.79 1004.07 L 967.04 1004.55 L 964.29 1004.92 L 961.56 1005.39 L 958.84 1005.80 L 956.13 1006.22 L 953.42 1006.57 L 950.72 1006.92 L 948.04 1007.35 L 945.37 1007.75 L 942.71 1008.12 L 940.05 1008.46 L 937.40 1008.74 L 934.76 1009.04 L 932.13 1009.33 L 929.52 1009.69 L 926.92 1010.09 L 924.35 1010.57 L 921.78 1011.00 L 919.22 1011.42 L 916.68 1011.86 L 914.14 1012.31 L 911.63 1012.80 L 909.13 1013.34 L 906.63 1013.80 L 904.15 1014.29 L 901.68 1014.82 L 899.22 1015.30 L 896.74 1015.68 L 894.28 1016.08 L 891.83 1016.45 L 889.39 1016.82 L 886.96 1017.25 L 884.55 1017.69 L 882.16 1018.19 L 879.77 1018.64 L 877.39 1019.09 L 875.02 1019.59 L 872.66 1020.03 L 870.31 1020.46 L 867.95 1020.83 L 865.61 1021.21" stroke="rgb(140,255,190)" stroke-opacity="0.531" stroke-width="1.11" />
  <path d="M 999.00 999.57 L 1000.06 997.21 L 1001.02 994.83 L 1002.05 992.47 L 1002.98 990.10" stroke="rgb(140,255,190)" stroke-opacity="0.530" stroke-width="1.11" />
  <path d="M 999.69 998.94 L 999.69 995.92 L 999.60 992.92 L 999.47 989.93 L 999.38 986.94 L 999.23 983.98 L 999.20 981.02 L 999.05 978.07" stroke="rgb(140,255,190)" stroke-opacity="0.530" stroke-width="1.11" />
  <path d="M 1001.37 996.95 L 1002.33 994.50 L 1003.29 992.06 L 1004.16 989.60 L 1004.92 987.11 L 1005.77 984.67" stroke="rgb(140,255,190)" stroke-opacity="0.529" stroke-width="1.11" />
  <path d="M 739.14 2000.02 L 740.02 1997.25 L 740.70 1994.49 L 741.58 1991.47 L 742.43 1988.36 L 743.53 1985.25 L 743.98 1982.75 L 744.89 1979.80 L 745.46 1976.71 L 745.87 1973.81 L 747.09 1971.17 L 747.76 1967.81 L 748.43 1965.54 L 749.44 1962.12 L 749.98 1959.52 L 750.82 1956.53 L 752.02 1953.80 L 752.41 1950.58 L 752.82 1947.81 L 753.77 1945.11 L 754.87 1941.89 L 755.09 1938.82 L 755.81 1936.00 L 757.14 1933.02 L 757.87 1930.46 L 758.15 1927.19 L 759.24 1924.31 L 760.34 1921.59 L 761.02 1918.52 L 761.45 1915.58 L 762.44 1912.99 L 762.90 1910.21 L 763.14 1907.35 L 764.61 1904.53 L 765.33 1901.52 L 765.55 1898.53 L 766.85 1895.64 L 767.55 1892.42 L 768.11 1889.84 L 768.93 1886.79 L 769.75 1883.61 L 770.40 1880.67 L 771.52 1878.03 L 771.92 1875.05 L 772.78 1872.51 L 773.86 1869.03 L 774.22 1866.39 L 775.15 1863.48 L 775.80 1860.57 L 776.37 1857.77 L 776.99 1854.69 L 778.08 1852.10 L 778.83 1848.80 L 779.31 1846.24 L 780.35 1843.32 L 781.00 1840.14 L 782.03 1837.27 L 782.64 1834.43 L 783.33 1831.54 L 783.87 1828.50 L 784.68 1825.80 L 785.85 1822.78 L 786.59 1819.92 L 786.64 1816.99 L 787.79 1814.16 L 788.44 1811.16 L 789.52 1808.28 L 790.31 1805.47 L 790.99 1802.73 L 792.05 1799.69 L 792.41 1797.01 L 793.00 1793.67 L 794.28 1791.07 L 794.88 1788.04 L 795.58 1785.63 L 796.39 1781.95 L 796.82 1779.26 L 797.74 1776.79 L 798.66 1773.24 L 799.50 1770.32 L 800.29 1767.85 L 800.70 1764.80 L 801.39 1762.28 L 802.47 1758.96 L 803.07 1756.11 L 803.75 1753.36 L 804.77 1750.21 L 805.47 1747.39 L 806.09 1744.59 L 806.95 1742.04 L 807.26 1739.04 L 808.35 1735.78 L 809.42 1732.60 L 809.69 1730.19 L 810.28 1726.95 L 811.07 1724.33 L 811.97 1721.77 L 812.87 1718.21 L 813.33 1715.39 L 814.38 1712.47 L 815.31 1709.47 L 815.88 1706.69 L 816.85 1703.54 L 817.61 1700.83 L 817.96 1697.75 L 818.78 1695.13 L 819.53 1692.16 L 819.77 1689.11 L 821.14 1686.69 L 821.64 1683.79 L 823.02 1680.57 L 822.87 1677.72 L 823.89 1675.27 L 825.16 1671.73 L 825.69 1669.31 L 826.69 1666.27 L 827.22 1662.96 L 827.61 1660.47 L 828.73 1657.72 L 829.69 1654.58 L 829.76 1651.77 L 831.01 1648.71 L 831.92 1646.23 L 832.43 1642.73 L 833.49 1640.06 L 833.94 1637.21 L 834.60 1634.28 L 835.83 1631.42 L 836.22 1628.39 L 837.02 1625.39 L 837.92 1622.53 L 838.50 1619.88 L 839.43 1617.12 L 840.40 1614.30 L 840.61 1610.69 L 841.85 1608.60 L 842.57 1605.35 L 842.93 1602.36 L 843.73 1599.53 L 844.78 1596.58 L 845.57 1593.85 L 846.06 1590.87 L 846.65 1587.90 L 847.69 1584.89 L 848.44 1582.06 L 849.29 1579.02 L 850.07 1576.10 L 850.76 1573.29 L 851.19 1570.57 L 852.34 1567.42 L 852.89 1564.59 L 854.12 1561.54 L 854.75 1558.55 L 855.75 1555.68 L 856.34 1553.17 L 856.31 1549.61 L 857.57 1546.95 L 858.19 1544.22 L 859.14 1541.10 L 859.89 1538.32 L 860.79 1535.67 L 861.41 1533.08 L 862.28 1529.96 L 862.63 1526.89 L 863.70 1524.12 L 864.51 1521.04 L 865.21 1518.38 L 865.73 1515.20 L 866.56 1512.65 L 867.21 1509.22 L 867.80 1506.71 L 869.16 1503.49 L 869.39 1501.16 L 870.28 1497.68 L 871.17 1494.59 L 871.71 1491.91 L 872.28 1489.05 L 873.16 1486.02 L 874.30 1482.71 L 874.74 1480.27 L 875.69 1477.18 L 876.74 1474.18 L 877.28 1471.85 L 877.86 1468.85 L 878.66 1465.92 L 879.15 1462.81 L 880.30 1459.80 L 881.23 1456.85 L 881.36 1453.91 L 882.65 1451.46 L 882.91 1448.18 L 883.91 1445.55 L 884.92 1442.57 L 885.48 1439.67 L 886.09 1436.95 L 886.98 1434.17 L 887.68 1430.90 L 888.73 1428.20 L 889.46 1424.94 L 889.63 1422.13 L 890.53 1419.57 L 891.58 1416.37 L 892.03 1413.58 L 892.68 1410.86 L 894.16 1407.52 L 894.86 1405.25 L 895.06 1401.69 L 896.60 1399.16 L 896.78 1396.26 L 897.50 1393.22 L 898.34 1390.10 L 899.15 1387.50 L 899.92 1384.59 L 900.88 1381.65 L 901.62 1378.84 L 902.24 1375.91 L 903.10 1372.89 L 903.54 1370.37 L 904.48 1367.11 L 904.99 1364.19 L 905.62 1361.00 L 906.84 1358.24 L 907.22 1355.43 L 908.44 1352.45 L 908.57 1349.70 L 909.62 1346.92 L 909.84 1343.71 L 911.41 1341.08 L 912.32 1338.06 L 912.65 1335.41 L 913.71 1332.09 L 914.15 1329.31 L 914.99 1326.40 L 915.87 1323.16 L 916.54 1320.42 L 917.23 1317.58 L 917.80 1314.91 L 918.55 1311.91 L 919.08 1309.44 L 920.25 1306.00 L 920.75 1303.24 L 921.86 1300.43 L 922.94 1297.73 L 923.19 1294.67 L 923.96 1291.24 L 924.42 1288.55 L 925.59 1285.79 L 926.30 1283.00 L 926.99 1280.55 L 927.38 1277.14 L 928.73 1274.19 L 929.41 1271.46 L 930.07 1268.93 L 930.69 1266.03 L 931.46 1262.11 L 932.49 1259.51 L 932.96 1256.41 L 933.90 1253.99 L 934.78 1250.83 L 935.36 1247.91 L 936.09 1244.82 L 936.96 1242.10 L 937.64 1239.25 L 938.49 1236.59 L 939.03 1233.87 L 939.79 1230.93 L 940.49 1227.58 L 941.32 1225.09 L 942.16 1222.08 L 943.21 1218.73 L 943.34 1216.19 L 944.57 1213.12 L 945.33 1210.09 L 946.13 1207.37 L 946.71 1204.46 L 947.46 1201.81 L 948.38 1198.83 L 949.01 1196.04 L 949.57 1192.87 L 950.72 1190.07 L 951.48 1187.26 L 952.48 1184.30 L 953.07 1181.14 L 953.35 1178.51 L 954.22 1175.80 L 955.21 1172.49 L 956.13 1169.27 L 956.13 1166.65 L 957.28 1164.06 L 957.91 1160.85 L 958.83 1158.37 L 959.70 1155.49 L 960.43 1152.50 L 960.89 1149.41 L 961.52 1146.43 L 962.44 1143.42 L 963.08 1140.34 L 964.10 1137.51 L 965.34 1134.95 L 965.45 1131.92 L 966.34 1129.21 L 966.94 1126.11 L 967.89 1123.11 L 968.23 1120.27 L 969.51 1117.76 L 969.96 1114.70 L 970.77 1111.94 L 971.35 1109.04 L 972.62 1105.99 L 973.43 1103.35 L 974.12 1100.06 L 975.03 1097.25 L 975.60 1094.57 L 975.87 1091.37 L 976.83 1088.46 L 977.22 1085.29 L 978.32 1082.28 L 979.42 1079.87 L 979.85 1076.91 L 980.75 1073.83 L 981.32 1071.07 L 982.56 1068.29 L 983.09 1065.40 L 983.75 1062.54 L 984.07 1059.62 L 985.36 1056.27 L 986.13 1053.37 L 986.59 1050.63 L 987.58 1047.73 L 988.12 1044.73 L 989.19 1041.65 L 990.06 1039.22 L 990.13 1036.16 L 990.88 1033.23 L 992.10 1030.25 L 992.89 1027.18 L 993.67 1024.98 L 994.62 1021.65 L 995.35 1019.03 L 995.97 1015.63 L 996.93 1012.97 L 997.19 1010.00 L 998.07 1007.78 L 998.90 1004.52 L 999.95 1001.21 L 1000.00 1000.00 L 1000.77 997.10 L 1001.57 994.21 L 1002.39 991.32 L 1003.20 988.44 L 1004.01 985.54 L 1004.80 982.65 L 1005.59 979.76 L 1006.38 976.86 L 1007.17 973.97 L 1007.96 971.07 L 1008.74 968.18 L 1009.49 965.27 L 1010.27 962.38 L 1011.05 959.48 L 1011.84 956.59 L 1012.62 953.69 L 1013.39 950.79 L 1014.19 947.90 L 1014.95 945.00 L 1015.71 942.09 L 1016.48 939.20 L 1017.25 936.29 L 1018.00 933.39 L 1018.77 930.49 L 1019.51 927.58 L 1020.25 924.68 L 1021.01 921.77 L 1021.75 918.87 L 1022.50 915.96 L 1023.24 913.06 L 1023.99 910.15 L 1024.74 907.24 L 1025.47 904.34 L 1026.21 901.43 L 1026.95 898.52 L 1027.69 895.61 L 1028.42 892.70 L 1029.17 889.80 L 1029.94 886.90 L 1030.71 884.00 L 1031.46 881.09 L 1032.20 878.19 L 1032.93 875.28 L 1033.65 872.37 L 1034.37 869.45 L 1035.10 866.54 L 1035.80 863.63 L 1036.53 860.72 L 1037.26 857.81 L 1038.00 854.90 L 1038.72 851.99 L 1039.44 849.08 L 1040.17 846.16 L 1040.87 843.25 L 1041.57 840.33 L 1042.30 837.42 L 1043.03 834.51 L 1043.78 831.61 L 1044.54 828.70 L 1045.31 825.81 L 1046.09 822.91 L 1046.89 820.02 L 1047.69 817.12 L 1048.47 814.23 L 1049.24 811.33 L 1050.02 808.43 L 1050.81 805.54 L 1051.60 802.64 L 1052.37 799.75 L 1053.14 796.85 L 1053.89 793.94 L 1054.64 791.04 L 1055.40 788.13 L 1056.16 785.23 L 1056.92 782.33 L 1057.68 779.43 L 1058.46 776.53 L 1059.23 773.63 L 1060.01 770.73 L 1060.78 767.83 L 1061.57 764.94 L 1062.36 762.04 L 1063.14 759.15 L 1063.93 756.25 L 1064.70 753.35 L 1065.45 750.45 L 1066.21 747.55 L 1066.98 744.65 L 1067.75 741.75 L 1068.54 738.85 L 1069.33 735.96 L 1070.11 733.06 L 1070.89 730.17 L 1071.68 727.27 L 1072.47 724.38 L 1073.23 721.48 L 1073.99 718.57 L 1074.73 715.67 L 1075.49 712.76 L 1076.25 709.86 L 1076.99 706.96 L 1077.72 704.05 L 1078.47 701.14 L 1079.22 698.24 L 1079.95 695.33 L 1080.67 692.42 L 1081.40 689.50 L 1082.13 686.59 L 1082.88 683.69 L 1083.63 680.79 L 1084.40 677.89 L 1085.16 674.98 L 1085.93 672.09 L 1086.69 669.18 L 1087.48 666.29 L 1088.25 663.39 L 1089.00 660.48 L 1089.76 657.58 L 1090.52 654.68 L 1091.30 651.78 L 1092.09 648.89 L 1092.88 645.99 L 1093.66 643.10 L 1094.44 640.20 L 1095.23 637.31 L 1096.00 634.41 L 1096.77 631.51 L 1097.57 628.62 L 1098.37 625.72 L 1099.16 622.83 L 1099.93 619.93 L 1100.70 617.03 L 1101.47 614.13 L 1102.24 611.23 L 1103.00 608.33 L 1103.74 605.42 L 1104.52 602.53 L 1105.28 599.62 L 1106.03 596.72 L 1106.77 593.81 L 1107.51 590.90 L 1108.24 588.00 L 1108.96 585.08 L 1109.66 582.17 L 1110.37 579.25 L 1111.03 576.33 L 1111.71 573.40 L 1112.39 570.48 L 1113.06 567.56 L 1113.70 564.63 L 1114.35 561.70 L 1115.02 558.77 L 1115.74 555.86 L 1116.45 552.95 L 1117.16 550.03 L 1117.88 547.12 L 1118.59 544.20 L 1119.30 541.29 L 1120.01 538.37 L 1120.73 535.46 L 1121.46 532.55 L 1122.18 529.64 L 1122.90 526.73 L 1123.62 523.81 L 1124.36 520.91 L 1125.10 518.00 L 1125.83 515.09 L 1126.56 512.18 L 1127.29 509.27 L 1128.04 506.37 L 1128.76 503.45 L 1129.46 500.54 L 1130.14 497.61 L 1130.83 494.70 L 1131.51 491.77 L 1132.17 488.85 L 1132.83 485.92 L 1133.50 482.99 L 1134.14 480.07 L 1134.78 477.13 L 1135.43 474.21 L 1136.09 471.28 L 1136.73 468.35 L 1137.36 465.42 L 1138.01 462.49 L 1138.66 459.56 L 1139.33 456.63 L 1139.98 453.70 L 1140.66 450.78 L 1141.35 447.86 L 1142.06 444.95 L 1142.77 442.03 L 1143.52 439.13 L 1144.25 436.22 L 1144.99 433.31 L 1145.74 430.41 L 1146.50 427.50 L 1147.23 424.60 L 1147.97 421.69 L 1148.69 418.77 L 1149.39 415.86 L 1150.09 412.94 L 1150.79 410.02 L 1151.51 407.11 L 1152.21 404.19 L 1152.91 401.28 L 1153.62 398.36 L 1154.33 395.45 L 1155.03 392.53 L 1155.76 389.62 L 1156.52 386.72 L 1157.29 383.82 L 1158.04 380.91 L 1158.77 378.00 L 1159.50 375.09 L 1160.20 372.18 L 1160.92 369.26 L 1161.64 366.35 L 1162.35 363.44 L 1163.08 360.53 L 1163.80 357.62 L 1164.51 354.70 L 1165.23 351.79 L 1165.95 348.88 L 1166.64 345.96 L 1167.32 343.03 L 1168.01 340.12 L 1168.72 337.20 L 1169.43 334.29 L 1170.16 331.37 L 1170.87 328.46 L 1171.57 325.54 L 1172.28 322.63 L 1173.01 319.72 L 1173.74 316.81 L 1174.46 313.90 L 1175.17 310.98 L 1175.88 308.07 L 1176.59 305.15 L 1177.30 302.24 L 1178.02 299.32 L 1178.72 296.41 L 1179.42 293.49 L 1180.12 290.57 L 1180.80 287.65 L 1181.50 284.73 L 1182.19 281.82 L 1182.88 278.90 L 1183.58 275.98 L 1184.26 273.06 L 1184.97 270.14 L 1185.68 267.23 L 1186.41 264.32 L 1187.12 261.40 L 1187.83 258.49 L 1188.55 255.57 L 1189.27 252.66 L 1190.00 249.75 L 1190.75 246.85 L 1191.50 243.94 L 1192.23 241.03 L 1192.92 238.11 L 1193.59 235.19 L 1194.28 232.27 L 1194.99 229.36 L 1195.72 226.45 L 1196.46 223.54 L 1197.18 220.63 L 1197.91 217.72 L 1198.64 214.81 L 1199.42 211.91 L 1200.20 209.01 L 1200.99 206.12 L 1201.77 203.22 L 1202.55 200.32 L 1203.33 197.43 L 1204.11 194.53 L 1204.89 191.63 L 1205.69 188.74 L 1206.48 185.85 L 1207.26 182.95 L 1208.07 180.06 L 1208.88 177.17 L 1209.72 174.30 L 1210.54 171.41 L 1211.34 168.52 L 1212.14 165.63 L 1212.93 162.73 L 1213.76 159.85 L 1214.59 156.97 L 1215.42 154.08 L 1216.27 151.21 L 1217.13 148.33 L 1217.97 145.45 L 1218.83 142.58 L 1219.72 139.71 L 1220.61 136.85 L 1221.49 133.98 L 1222.38 131.11 L 1223.24 128.24 L 1224.12 125.37 L 1224.99 122.50 L 1225.85 119.63 L 1226.73 116.76 L 1227.65 113.90 L 1228.55 111.04 L 1229.45 108.18 L 1230.36 105.32 L 1231.26 102.46 L 1232.14 99.59 L 1233.04 96.73 L 1233.94 93.87 L 1234.83 91.00 L 1235.70 88.13 L 1236.57 85.26 L 1237.43 82.39 L 1238.29 79.51 L 1239.16 76.64 L 1240.03 73.77 L 1240.90 70.90 L 1241.76 68.03 L 1242.62 65.15 L 1243.48 62.28 L 1244.39 59.42 L 1245.29 56.56 L 1246.21 53.70 L 1247.15 50.85 L 1248.09 48.00 L 1249.04 45.16 L 1249.99 42.31 L 1250.95 39.47 L 1251.89 36.62 L 1252.85 33.78 L 1253.80 30.93 L 1254.74 28.09 L 1255.70 25.24 L 1256.67 22.41 L 1257.64 19.57 L 1258.60 16.72 L 1259.57 13.89 L 1260.55 11.05 L 1261.53 8.21 L 1262.49 5.37 L 1263.44 2.52 L 1264.41 -0.31 L 1265.39 -3.15 L 1266.36 -5.99 L 1267.33 -8.83 L 1268.29 -11.67 L 1269.25 -14.51 L 1270.22 -17.35 L 1271.20 -20.18" stroke="rgb(245,245,245)" stroke-opacity="0.703" stroke-width="1.10" />
  <path d="M 1000.18 1002.62 L 1001.69 1000.43 L 1003.29 998.32 L 1004.96 996.28 L 1006.61 994.24 L 1008.30 992.24 L 1009.94 990.22 L 1011.55 988.18 L 1013.07 986.09 L 1014.59 984.02 L 1016.09 981.94 L 1017.53 979.83 L 1019.01 977.76 L 1020.50 975.71 L 1021.99 973.68 L 1023.43 971.62 L 1024.94 969.62 L 1026.43 967.63 L 1027.93 965.65 L 1029.40 963.67 L 1030.90 961.71 L 1032.36 959.74 L 1033.85 957.80 L 1035.28 955.84 L 1036.76 953.92 L 1038.29 952.05 L 1039.79 950.17 L 1041.26 948.28 L 1042.70 946.38 L 1044.11 944.47 L 1045.54 942.58 L 1047.00 940.73 L 1048.52 938.95 L 1049.92 937.08 L 1051.28 935.18 L 1052.61 933.28 L 1053.93 931.39 L 1055.29 929.53 L 1056.58 927.64 L 1057.85 925.74 L 1059.14 923.88 L 1060.44 922.02 L 1061.77 920.20 L 1063.13 918.41 L 1064.56 916.69 L 1065.92 914.93 L 1067.27 913.17 L 1068.54 911.36 L 1069.76 909.53 L 1070.97 907.70 L 1072.17 905.88 L 1073.44 904.11 L 1074.79 902.42 L 1076.07 900.68 L 1077.32 898.94 L 1078.59 897.21 L 1079.83 895.48 L 1081.04 893.73 L 1082.25 892.00 L 1083.40 890.23 L 1084.58 888.50 L 1085.75 886.77 L 1086.91 885.04 L 1088.05 883.31 L 1089.19 881.59" stroke="rgb(205,165,255)" stroke-opacity="0.467" stroke-width="1.10" />
  <path d="M 1025.30 914.16 L 1027.26 912.09 L 1029.25 910.08 L 1031.15 907.98 L 1033.02 905.88 L 1034.94 903.84 L 1036.78 901.74 L 1038.64 899.67 L 1040.47 897.59 L 1042.34 895.57 L 1044.22 893.57 L 1046.09 891.56 L 1047.93 889.55 L 1049.73 887.52 L 1051.61 885.58 L 1053.58 883.74 L 1055.53 881.90 L 1057.50 880.10 L 1059.47 878.31 L 1061.39 876.49 L 1063.25 874.62 L 1065.18 872.83 L 1067.21 871.17 L 1069.19 869.47 L 1071.14 867.76 L 1073.11 866.08 L 1075.01 864.34 L 1076.80 862.51 L 1078.70 860.79 L 1080.58 859.08 L 1082.53 857.45 L 1084.48 855.85 L 1086.40 854.22 L 1088.35 852.66 L 1090.17 850.94 L 1091.95 849.22 L 1093.82 847.59 L 1095.71 846.01 L 1097.58 844.42 L 1099.47 842.86 L 1101.34 841.30 L 1103.20 839.74 L 1105.08 838.23 L 1106.94 836.70 L 1108.80 835.19 L 1110.67 833.70 L 1112.57 832.27 L 1114.42 830.80 L 1116.17 829.21 L 1117.84 827.56 L 1119.47 825.88 L 1120.96 824.09 L 1122.39 822.26" stroke="rgb(140,255,190)" stroke-opacity="0.525" stroke-width="1.09" />
  <path d="M 999.70 1000.84 L 1000.21 998.21 L 1000.75 995.59 L 1001.34 992.99 L 1001.90 990.40 L 1002.55 987.84 L 1003.25 985.31 L 1004.06 982.81 L 1004.86 980.33 L 1005.57 977.83 L 1006.50 975.42 L 1007.44 973.02 L 1008.33 970.61 L 1009.20 968.20 L 1009.99 965.78 L 1010.70 963.34 L 1011.40 960.92 L 1012.10 958.50 L 1012.70 956.06 L 1013.15 953.61 L 1013.59 951.16 L 1013.94 948.71 L 1014.31 946.27 L 1014.64 943.83 L 1014.99 941.41 L 1015.32 939.00" stroke="rgb(140,255,190)" stroke-opacity="0.525" stroke-width="1.09" />
  <path d="M 884.55 1017.69 L 881.93 1017.24 L 879.33 1016.77 L 876.77 1016.13 L 874.21 1015.54 L 871.65 1015.02 L 869.11 1014.43 L 866.54 1014.07 L 864.01 1013.57 L 861.48 1013.11 L 858.96 1012.62 L 856.45 1012.16 L 853.94 1011.73 L 851.45 1011.31 L 848.96 1010.89 L 846.48 1010.46 L 844.03 1009.99 L 841.60 1009.44 L 839.18 1008.90" stroke="rgb(140,255,190)" stroke-opacity="0.524" stroke-width="1.09" />
  <path d="M 995.55 1002.89 L 995.24 1000.52 L 995.04 998.15 L 994.76 995.79 L 994.54 993.44 L 994.42 991.09 L 994.39 988.75 L 994.28 986.42 L 994.11 984.10 L 993.94 981.79 L 993.84 979.49 L 993.83 977.19 L 993.97 974.91 L 994.10 972.63 L 994.27 970.37 L 994.46 968.12 L 994.71 965.88 L 995.04 963.67 L 995.29 961.45 L 995.42 959.23 L 995.49 957.01 L 995.69 954.82 L 996.00 952.64 L 996.36 950.48 L 996.64 948.32 L 996.85 946.16 L 997.02 944.00 L 997.11 941.85 L 997.01 939.71 L 996.79 937.58 L 996.48 935.48 L 996.30 933.37 L 996.12 931.26 L 995.94 929.17 L 995.74 927.09 L 995.53 925.01 L 995.42 922.94 L 995.31 920.87 L 995.24 918.81 L 995.16 916.76 L 995.14 914.71 L 995.22 912.68 L 995.15 910.65 L 995.03 908.64 L 994.93 906.63 L 994.80 904.63 L 994.58 902.64 L 994.31 900.67 L 994.10 898.71 L 993.83 896.75 L 993.47 894.82 L 993.01 892.92 L 992.57 891.02" stroke="rgb(205,165,255)" stroke-opacity="0.456" stroke-width="1.06" />
  <path d="M 998.81 1004.63 L 999.52 1005.94 L 1000.34 1007.19 L 1001.15 1008.44 L 1001.84 1009.76 L 1002.73 1010.93 L 1003.59 1012.12 L 1004.37 1013.36 L 1005.13 1014.61 L 1005.83 1015.88" stroke="rgb(230,230,230)" stroke-opacity="0.386" stroke-width="0.71" />
  <path d="M 997.86 999.03 L 997.40 997.61 L 996.98 996.17 L 996.57 994.75 L 996.25 993.30 L 995.82 991.89 L 995.57 990.44 L 995.25 989.01 L 994.98 987.57 L 994.58 986.18 L 994.26 984.77 L 994.03 983.34 L 993.77 981.93 L 993.56 980.52" stroke="rgb(230,230,230)" stroke-opacity="0.385" stroke-width="0.71" />
  <path d="M 996.43 998.01 L 996.72 996.54 L 996.97 995.07 L 996.97 993.58 L 996.76 992.11 L 996.55 990.65 L 996.60 989.18 L 996.32 987.74 L 996.01 986.32 L 995.61 984.92 L 995.14 983.55 L 994.97 982.12 L 994.91 980.69" stroke="rgb(230,230,230)" stroke-opacity="0.380" stroke-width="0.70" />
  <path d="M 998.54 1005.52 L 999.42 1006.73 L 1000.33 1007.91 L 1001.06 1009.21 L 1001.71 1010.54 L 1002.50 1011.79 L 1003.22 1013.07 L 1003.96 1014.34 L 1004.72 1015.58 L 1005.47 1016.83 L 1006.15 1018.10" stroke="rgb(230,230,230)" stroke-opacity="0.379" stroke-width="0.69" />
  <path d="M 997.95 998.88 L 997.30 997.53 L 996.78 996.13 L 996.14 994.79 L 995.76 993.36 L 995.67 991.88 L 995.18 990.50 L 994.50 989.20 L 993.90 987.87 L 993.36 986.52 L 992.73 985.22 L 992.00 983.98 L 991.19 982.79 L 990.56 981.51 L 990.01 980.20 L 989.76 978.80 L 989.41 977.43 L 989.00 976.08 L 988.62 974.74 L 988.13 973.43" stroke="rgb(230,230,230)" stroke-opacity="0.378" stroke-width="0.69" />
  <path d="M 998.37 1001.39 L 996.88 1001.56 L 995.40 1001.73 L 993.94 1002.03 L 992.48 1002.32 L 991.02 1002.49 L 989.55 1002.55 L 988.09 1002.67 L 986.65 1002.90 L 985.20 1003.00 L 983.76 1003.09" stroke="rgb(230,230,230)" stroke-opacity="0.377" stroke-width="0.69" />
  <path d="M 996.35 994.71 L 995.14 995.59 L 993.73 996.08 L 992.30 996.49 L 990.85 996.79 L 989.37 996.84 L 988.02 997.41" stroke="rgb(230,230,230)" stroke-opacity="0.376" stroke-width="0.68" />
  <path d="M 997.93 996.12 L 997.02 997.32 L 996.17 998.54 L 995.25 999.71 L 994.27 1000.83 L 993.38 1002.00" stroke="rgb(230,230,230)" stroke-opacity="0.370" stroke-width="0.67" />
  <path d="M 992.88 1000.07 L 991.88 1001.20 L 990.91 1002.33 L 990.01 1003.51 L 989.12 1004.70 L 988.30 1005.93 L 987.70 1007.27 L 987.03 1008.57" stroke="rgb(230,230,230)" stroke-opacity="0.369" stroke-width="0.67" />
  <path d="M 998.53 991.55 L 999.75 992.42 L 1000.94 993.32 L 1002.14 994.20 L 1003.40 995.00 L 1004.61 995.84 L 1005.92 996.50 L 1007.18 997.25 L 1008.16 998.33 L 1009.12 999.42 L 1010.09 1000.49" stroke="rgb(230,230,230)" stroke-opacity="0.368" stroke-width="0.66" />
  <path d="M 1000.04 1008.82 L 999.03 1007.72 L 998.04 1006.60 L 996.97 1005.57 L 995.79 1004.67 L 994.55 1003.88 L 993.38 1002.98" stroke="rgb(230,230,230)" stroke-opacity="0.363" stroke-width="0.65" />
  <path d="M 999.35 997.02 L 998.99 998.47 L 998.60 999.92 L 998.14 1001.33 L 997.59 1002.71 L 997.06 1004.09 L 996.55 1005.46 L 995.99 1006.82" stroke="rgb(230,230,230)" stroke-opacity="0.360" stroke-width="0.64" />
  <path d="M 997.99 1005.88 L 999.07 1004.83 L 1000.19 1003.85 L 1001.26 1002.81 L 1002.31 1001.77 L 1003.32 1000.69 L 1004.40 999.69 L 1005.37 998.59" stroke="rgb(230,230,230)" stroke-opacity="0.358" stroke-width="0.63" />
  <path d="M 1006.72 996.79 L 1007.98 995.97 L 1009.23 995.16 L 1010.37 994.19 L 1011.57 993.33 L 1012.54 992.21 L 1013.37 991.00 L 1014.25 989.83 L 1014.96 988.55 L 1015.50 987.21 L 1015.99 985.84 L 1016.46 984.48" stroke="rgb(230,230,230)" stroke-opacity="0.358" stroke-width="0.63" />
  <path d="M 999.41 1000.18 L 1000.85 999.75 L 1002.28 999.33 L 1003.70 998.89 L 1005.17 998.67 L 1006.63 998.52 L 1008.09 998.34 L 1009.56 998.31 L 1011.01 998.38 L 1012.47 998.44 L 1013.91 998.47" stroke="rgb(230,230,230)" stroke-opacity="0.355" stroke-width="0.62" />
  <path d="M 998.94 1002.01 L 997.92 1003.11 L 996.98 1004.27 L 995.89 1005.28 L 995.02 1006.48 L 994.15 1007.68 L 993.31 1008.88 L 992.27 1009.91 L 991.06 1010.73" stroke="rgb(230,230,230)" stroke-opacity="0.354" stroke-width="0.62" />
  <path d="M 1002.97 993.80 L 1004.06 992.77 L 1005.15 991.75 L 1006.13 990.63 L 1007.16 989.56 L 1008.09 988.42 L 1008.87 987.17 L 1009.66 985.93 L 1010.42 984.69 L 1010.99 983.36" stroke="rgb(230,230,230)" stroke-opacity="0.352" stroke-width="0.62" />
  <path d="M 992.48 1000.75 L 993.94 1001.08 L 995.42 1001.33 L 996.90 1001.46 L 998.38 1001.55 L 999.85 1001.53" stroke="rgb(230,230,230)" stroke-opacity="0.352" stroke-width="0.62" />
</g>
</svg>
