{
  "asset": {
    "version": "2.0",
    "generator": "TES-23 Cosmic Ray Renderer"
  },
  "extensionsUsed": [
    "KHR_materials_unlit"
  ],
  "extensionsRequired": [
    "KHR_materials_unlit"
  ],
  "scene": 0,
  "scenes": [
    {
      "nodes": [
        0
      ]
    }
  ],
  "nodes": [
    {
      "name": "CosmicRayEvent",
      "mesh": 0
    }
  ],
  "meshes": [
    {
      "name": "CosmicRayEvent",
      "primitives": [
        {
          "attributes": {
            "POSITION": 0
          },
          "material": 0,
          "mode": 1
        },
        {
          "attributes": {
            "POSITION": 1
          },
          "material": 1,
          "mode": 1
        },
        {
          "attributes": {
            "POSITION": 2
          },
          "material": 2,
          "mode": 1
        },
        {
          "attributes": {
            "POSITION": 3
          },
          "material": 3,
          "mode": 1
        },
        {
          "attributes": {
            "POSITION": 4
          },
          "material": 4,
          "mode": 1
        }
      ]
    }
  ],
  "materials": [
    {
      "name": "primary",
      "extensions": {
        "KHR_materials_unlit": {}
      },
      "pbrMetallicRoughness": {
        "baseColorFactor": [
          0.961,
          0.961,
          0.961,
          1
        ],
        "metallicFactor": 0,
        "roughnessFactor": 1
      }
    },
    {
      "name": "vertex",
      "extensions": {
        "KHR_materials_unlit": {}
      },
      "pbrMetallicRoughness": {
        "baseColorFactor": [
          0.902,
          0.902,
          0.902,
          0.9
        ],
        "metallicFactor": 0,
        "roughnessFactor": 1
      }
    },
    {
      "name": "em",
      "extensions": {
        "KHR_materials_unlit": {}
      },
      "pbrMetallicRoughness": {
        "baseColorFactor": [
          0.471,
          0.824,
          1,
          1
        ],
        "metallicFactor": 0,
        "roughnessFactor": 1
      }
    },
    {
      "name": "hadron",
      "extensions": {
        "KHR_materials_unlit": {}
      },
      "pbrMetallicRoughness": {
        "baseColorFactor": [
          0.549,
          1,
          0.745,
          1
        ],
        "metallicFactor": 0,
        "roughnessFactor": 1
      }
    },
    {
      "name": "delta",
      "extensions": {
        "KHR_materials_unlit": {}
      },
      "pbrMetallicRoughness": {
        "baseColorFactor": [
          0.804,
          0.647,
          1,
          1
        ],
        "metallicFactor": 0,
        "roughnessFactor": 1
      }
    }
  ],
  "accessors": [
    {
      "bufferView": 0,
      "byteOffset": 0,
      "componentType": 5126,
      "count": 1384,
      "type": "VEC3",
      "min": [
        -0.22622931003570557,
        -1.0001109838485718,
        0
      ],
      "max": [
        0.24283771216869354,
        1.0214217901229858,
        0
      ]
    },
    {
      "bufferView": 1,
      "byteOffset": 0,
      "componentType": 5126,
      "count": 276,
      "type": "VEC3",
      "min": [
        -0.024558164179325104,
        -0.009409982711076736,
        -0.056754983961582184
      ],
      "max": [
        0.012995673343539238,
        0.014429681934416294,
        0.09846365451812744
      ]
    },
    {
      "bufferView": 2,
      "byteOffset": 0,
      "componentType": 5126,
      "count": 776,
      "type": "VEC3",
      "min": [
        -0.005559396464377642,
        -0.004456326365470886,
        -0.10940533131361008
      ],
      "max": [
        0.06847583502531052,
        0.3382898271083832,
        0.03716474026441574
      ]
    },
    {
      "bufferView": 3,
      "byteOffset": 0,
      "componentType": 5126,
      "count": 4644,
      "type": "VEC3",
      "min": [
        -0.017030594870448112,
        -0.003038392635062337,
        -0.5316308736801147
      ],
      "max": [
        0.1716163158416748,
        0.3851623833179474,
        0.4534299075603485
      ]
    },
    {
      "bufferView": 4,
      "byteOffset": 0,
      "componentType": 5126,
      "count": 860,
      "type": "VEC3",
      "min": [
        -0.0474834069609642,
        -0.18334810435771942,
        -0.3695075511932373
      ],
      "max": [
        0.12591318786144257,
        0.1938488930463791,
        0.46841007471084595
      ]
    }
  ],
  "bufferViews": [
    {
      "buffer": 0,
      "byteOffset": 0,
      "byteLength": 16608,
      "target": 34962
    },
    {
      "buffer": 0,
      "byteOffset": 16608,
      "byteLength": 3312,
      "target": 34962
    },
    {
      "buffer": 0,
      "byteOffset": 19920,
      "byteLength": 9312,
      "target": 34962
    },
    {
      "buffer": 0,
      "byteOffset": 29232,
      "byteLength": 55728,
      "target": 34962
    },
    {
      "buffer": 0,
      "byteOffset": 84960,
      "byteLength": 10320,
      "target": 34962
    }
  ],
  "buffers": [
    {
      "byteLength": 95280,
      "uri": "data:application/octet-stream;base64,"
    }
  ]
}