<?xml version="1.0" encoding="UTF-8"?>
<svg xmlns="http://www.w3.org/2000/svg" width="2000" height="2000" viewBox="0 0 2000 2000">
<g fill="none" stroke-linecap="round" stroke-linejoin="round">
  <path d="M 998.32 996.58 L 995.72 994.30 L 993.11 992.05 L 990.48 989.83 L 987.86 987.64 L 985.28 985.42 L 982.72 983.19 L 980.13 981.02 L 977.53 978.89 L 974.95 976.75 L 972.41 974.58 L 969.89 972.41 L 967.37 970.26 L 964.91 968.06 L 962.48 965.86 L 960.04 963.68 L 957.60 961.52 L 955.17 959.37 L 952.74 957.23 L 950.34 955.08 L 947.97 952.92 L 945.64 950.75 L 943.29 948.60 L 940.95 946.46 L 938.68 944.27 L 936.41 942.09 L 934.16 939.92 L 931.89 937.78 L 929.62 935.66 L 927.36 933.55 L 925.10 931.46 L 922.82 929.40 L 920.53 927.37 L 918.25 925.36 L 915.95 923.39 L 913.67 921.40 L 911.38 919.46 L 909.10 917.51 L 906.80 915.60" stroke="rgb(120,210,255)" stroke-opacity="0.854" stroke-width="1.64" />
  <path d="M 1001.97 1003.50 L 999.29 1001.81 L 996.58 1000.18 L 993.90 998.52 L 991.27 996.83 L 988.62 995.16 L 985.99 993.50 L 983.32 991.93 L 980.67 990.34 L 978.06 988.73 L 975.48 987.07 L 972.95 985.37 L 970.43 983.68 L 967.93 981.97 L 965.45 980.26 L 962.93 978.64 L 960.45 976.97 L 958.00 975.27 L 955.58 973.57 L 953.15 971.88 L 950.73 970.22 L 948.27 968.63 L 945.80 967.07 L 943.33 965.53 L 940.88 963.99 L 938.44 962.45 L 936.04 960.88 L 933.59 959.40 L 931.15 957.93 L 928.72 956.47 L 926.33 954.97 L 923.91 953.52 L 921.53 952.05 L 919.16 950.57 L 916.81 949.08 L 914.47 947.60 L 912.13 946.15 L 909.80 944.69 L 907.44 943.30 L 905.05 941.99 L 902.68 940.66 L 900.33 939.33 L 897.99 937.99 L 895.66 936.66 L 893.35 935.32 L 891.05 933.99 L 888.78 932.62 L 886.50 931.28 L 884.27 929.90 L 882.02 928.55 L 879.82 927.15 L 877.63 925.75 L 875.43 924.39 L 873.22 923.08 L 871.00 921.79 L 868.79 920.50 L 866.60 919.20 L 864.40 917.94 L 862.23 916.65 L 860.07 915.35 L 857.94 914.04 L 855.82 912.71 L 853.71 911.41 L 851.59 910.12 L 849.46 908.88 L 847.33 907.66 L 845.22 906.43 L 843.10 905.23 L 841.01 903.99 L 838.94 902.74 L 836.90 901.47 L 834.87 900.18 L 832.84 898.93" stroke="rgb(120,210,255)" stroke-opacity="0.852" stroke-width="1.63" />
  <path d="M 1001.30 1001.47 L 998.60 999.30 L 995.88 997.18 L 993.17 995.07 L 990.45 992.99 L 987.77 990.90 L 985.07 988.84 L 982.39 986.78 L 979.72 984.73 L 977.08 982.67 L 974.43 980.63 L 971.79 978.61 L 969.18 976.57 L 966.55 974.58 L 963.94 972.58 L 961.35 970.58 L 958.78 968.58 L 956.19 966.62 L 953.61 964.67 L 951.05 962.71 L 948.51 960.76 L 945.96 958.82 L 943.45 956.88 L 940.93 954.95 L 938.45 952.99 L 936.02 951.00 L 933.60 949.02 L 931.19 947.03 L 928.78 945.07 L 926.38 943.12 L 923.94 941.23 L 921.53 939.33 L 919.15 937.41 L 916.79 935.49 L 914.42 933.60 L 912.07 931.70 L 909.73 929.80 L 907.42 927.90 L 905.10 926.03 L 902.78 924.17 L 900.47 922.31 L 898.18 920.46 L 895.92 918.58 L 893.70 916.67 L 891.51 914.75 L 889.33 912.84 L 887.17 910.92 L 884.98 909.04" stroke="rgb(120,210,255)" stroke-opacity="0.851" stroke-width="1.63" />
  <path d="M 1000.71 1002.54 L 997.83 1000.55 L 994.97 998.57 L 992.12 996.59 L 989.27 994.65 L 986.45 992.68 L 983.63 990.74 L 980.84 988.77 L 978.08 986.81 L 975.30 984.87 L 972.54 982.93 L 969.76 981.06 L 966.99 979.18 L 964.23 977.32 L 961.45 975.52 L 958.69 973.70 L 955.97 971.85 L 953.27 969.99 L 950.56 968.18 L 947.87 966.36 L 945.23 964.47 L 942.65 962.55 L 940.05 960.65 L 937.47 958.77 L 934.90 956.88 L 932.34 955.01 L 929.78 953.15 L 927.26 951.27 L 924.75 949.39 L 922.29 947.46 L 919.82 945.58 L 917.39 943.66 L 914.97 941.74 L 912.59 939.80 L 910.23 937.84 L 907.86 935.93 L 905.48 934.04 L 903.13 932.14 L 900.81 930.22 L 898.47 928.34 L 896.14 926.47 L 893.82 924.60 L 891.52 922.73 L 889.24 920.86 L 886.95 919.01 L 884.68 917.16 L 882.43 915.31 L 880.21 913.43 L 877.98 911.59 L 875.77 909.73 L 873.56 907.90 L 871.36 906.08 L 869.17 904.26 L 867.01 902.42 L 864.85 900.60 L 862.68 898.81 L 860.50 897.05 L 858.33 895.29 L 856.17 893.54 L 854.02 891.79 L 851.89 890.04 L 849.76 888.31 L 847.64 886.58 L 845.52 884.87 L 843.42 883.15 L 841.29 881.48 L 839.18 879.80 L 837.10 878.12 L 835.04 876.42 L 832.99 874.72 L 830.91 873.08 L 828.84 871.44 L 826.81 869.78 L 824.76 868.14 L 822.74 866.49 L 820.73 864.85 L 818.72 863.22 L 816.72 861.60 L 814.69 860.04 L 812.64 858.51" stroke="rgb(120,210,255)" stroke-opacity="0.849" stroke-width="1.62" />
  <path d="M 1000.27 1000.51 L 997.45 998.44 L 994.62 996.40 L 991.78 994.42 L 988.99 992.38 L 986.24 990.31 L 983.52 988.23 L 980.82 986.13 L 978.15 984.03 L 975.49 981.94 L 972.81 979.90 L 970.14 977.85 L 967.44 975.88 L 964.74 973.92 L 962.08 971.94 L 959.43 969.96 L 956.81 967.97 L 954.19 966.00 L 951.60 964.00 L 949.03 962.00 L 946.48 960.01 L 943.97 957.98 L 941.48 955.95 L 939.01 953.91 L 936.58 951.85 L 934.13 949.82 L 931.69 947.81 L 929.21 945.87 L 926.76 943.90 L 924.31 941.97 L 921.83 940.09 L 919.38 938.19 L 916.92 936.32 L 914.46 934.48 L 912.01 932.64 L 909.54 930.84 L 907.07 929.07 L 904.61 927.31 L 902.14 925.58 L 899.69 923.84 L 897.24 922.12 L 894.81 920.40 L 892.40 918.67 L 889.97 917.00 L 887.55 915.32 L 885.12 913.68 L 882.67 912.09 L 880.23 910.51 L 877.78 908.97 L 875.34 907.43 L 872.93 905.86 L 870.52 904.31 L 868.12 902.78 L 865.75 901.22 L 863.40 899.65 L 861.07 898.07" stroke="rgb(120,210,255)" stroke-opacity="0.848" stroke-width="1.62" />
  <path d="M 851.89 890.04 L 848.98 888.58 L 846.11 887.08 L 843.25 885.58 L 840.48 883.96 L 837.69 882.38 L 834.91 880.81 L 832.15 879.24 L 829.43 877.62 L 826.69 876.07 L 823.97 874.51 L 821.21 873.03 L 818.45 871.60 L 815.72 870.12 L 813.05 868.57 L 810.39 867.03 L 807.74 865.49 L 805.09 863.98 L 802.43 862.52 L 799.79 861.02 L 797.19 859.49 L 794.53 858.10 L 791.83 856.82 L 789.13 855.56 L 786.50 854.18 L 783.88 852.81 L 781.30 851.39 L 778.69 850.06 L 776.10 848.71 L 773.49 847.44 L 770.86 846.21 L 768.29 844.91 L 765.75 843.56 L 763.22 842.23 L 760.65 840.99 L 758.08 839.77 L 755.53 838.55 L 753.02 837.28 L 750.51 836.03 L 747.96 834.89 L 745.42 833.75 L 742.84 832.73" stroke="rgb(120,210,255)" stroke-opacity="0.848" stroke-width="1.62" />
  <path d="M 1001.76 999.60 L 998.99 998.19 L 996.27 996.72 L 993.56 995.25 L 990.85 993.80 L 988.12 992.43 L 985.40 991.05 L 982.69 989.71 L 979.94 988.46 L 977.22 987.16 L 974.51 985.89 L 971.80 984.64 L 969.07 983.45 L 966.35 982.29 L 963.62 981.18 L 960.92 980.03 L 958.21 978.91 L 955.49 977.87 L 952.76 976.89 L 950.04 975.91 L 947.35 974.89 L 944.64 973.95 L 941.95 973.00 L 939.24 972.14 L 936.55 971.23 L 933.88 970.34 L 931.21 969.45 L 928.56 968.57 L 925.91 967.69 L 923.31 966.73 L 920.71 965.77 L 918.14 964.77 L 915.58 963.79 L 913.02 962.84 L 910.48 961.85 L 907.98 960.81 L 905.50 959.75 L 903.03 958.69 L 900.55 957.68 L 898.07 956.68 L 895.62 955.65 L 893.16 954.68 L 890.71 953.70 L 888.26 952.76 L 885.80 951.89 L 883.34 951.03 L 880.87 950.22 L 878.42 949.43 L 875.96 948.68 L 873.50 947.95 L 871.06 947.19 L 868.64 946.42 L 866.19 945.78 L 863.74 945.18 L 861.30 944.57 L 858.86 944.05 L 856.41 943.59 L 853.97 943.13" stroke="rgb(120,210,255)" stroke-opacity="0.466" stroke-width="1.61" />
  <path d="M 816.72 861.60 L 814.45 859.03 L 812.20 856.46 L 809.92 853.93 L 807.60 851.46 L 805.31 848.98 L 802.95 846.58 L 800.64 844.16 L 798.32 841.76 L 796.00 839.38 L 793.69 837.02 L 791.43 834.62 L 789.15 832.26 L 786.86 829.92 L 784.59 827.59 L 782.38 825.22 L 780.15 822.88 L 777.92 820.56 L 775.73 818.22 L 773.54 815.89 L 771.37 813.57 L 769.16 811.31 L 766.97 809.03 L 764.77 806.79 L 762.64 804.50 L 760.49 802.25 L 758.34 800.01 L 756.17 797.80 L 754.02 795.60 L 751.85 793.44 L 749.65 791.32 L 747.43 789.24 L 745.21 787.18 L 742.99 785.14 L 740.81 783.07 L 738.66 780.98 L 736.46 778.97 L 734.27 776.97 L 732.07 774.99 L 729.90 773.00 L 727.70 771.06 L 725.51 769.12 L 723.30 767.22 L 721.10 765.33 L 718.89 763.48 L 716.68 761.64 L 714.52 759.76 L 712.43 757.82 L 710.37 755.86" stroke="rgb(120,210,255)" stroke-opacity="0.846" stroke-width="1.61" />
  <path d="M 1004.81 1001.18 L 1002.33 999.63 L 999.88 998.04 L 997.45 996.44 L 995.02 994.85 L 992.63 993.25 L 990.22 991.68 L 987.86 990.06 L 985.54 988.41 L 983.22 986.76 L 980.88 985.18 L 978.56 983.59 L 976.31 981.92 L 974.12 980.17 L 971.97 978.41 L 969.81 976.68 L 967.59 975.03 L 965.37 973.41 L 963.14 971.82 L 961.00 970.13 L 958.84 968.48 L 956.69 966.84 L 954.54 965.21 L 952.38 963.62 L 950.28 961.97 L 948.19 960.32 L 946.14 958.63 L 944.15 956.90 L 942.21 955.12 L 940.28 953.35 L 938.38 951.55 L 936.52 949.74 L 934.63 947.97 L 932.80 946.15 L 930.97 944.35 L 929.08 942.63 L 927.23 940.88 L 925.38 939.14 L 923.52 937.43 L 921.62 935.78 L 919.76 934.09" stroke="rgb(120,210,255)" stroke-opacity="0.465" stroke-width="1.61" />
  <path d="M 1001.67 999.44 L 998.39 999.90 L 995.11 1000.30 L 991.84 1000.72 L 988.58 1001.06 L 985.34 1001.42 L 982.10 1001.74 L 978.87 1002.02 L 975.66 1002.27 L 972.45 1002.53 L 969.26 1002.77 L 966.09 1003.07 L 962.92 1003.33 L 959.77 1003.63 L 956.64 1003.89 L 953.51 1004.17 L 950.40 1004.46 L 947.31 1004.79" stroke="rgb(120,210,255)" stroke-opacity="0.844" stroke-width="1.61" />
  <path d="M 998.46 999.18 L 995.44 997.45 L 992.42 995.76 L 989.42 994.07 L 986.42 992.39 L 983.46 990.68 L 980.49 989.00 L 977.55 987.32 L 974.60 985.66 L 971.68 983.99 L 968.72 982.41 L 965.77 980.85 L 962.84 979.27 L 959.91 977.72 L 956.98 976.22 L 954.06 974.71 L 951.12 973.26 L 948.22 971.77 L 945.36 970.24 L 942.53 968.68 L 939.70 967.13 L 936.88 965.61 L 934.05 964.11 L 931.24 962.64 L 928.45 961.13 L 925.67 959.63 L 922.87 958.19 L 920.10 956.73 L 917.35 955.25 L 914.62 953.77 L 911.91 952.27 L 909.21 950.79 L 906.49 949.36 L 903.78 947.95 L 901.06 946.59 L 898.35 945.23 L 895.64 943.90 L 892.93 942.58 L 890.25 941.24 L 887.57 939.93 L 884.90 938.62 L 882.22 937.36 L 879.52 936.16 L 876.84 934.96 L 874.18 933.76 L 871.53 932.54 L 868.90 931.31 L 866.26 930.13 L 863.64 928.95 L 861.02 927.76 L 858.43 926.57 L 855.84 925.40 L 853.26 924.23 L 850.67 923.11 L 848.10 921.96 L 845.56 920.79 L 843.05 919.57 L 840.54 918.39 L 838.04 917.21 L 835.54 916.04 L 833.06 914.88 L 830.58 913.72 L 828.12 912.55 L 825.66 911.41 L 823.22 910.25 L 820.77 909.15 L 818.32 908.06 L 815.87 907.00 L 813.42 905.97 L 810.97 904.99 L 808.52 904.01 L 806.09 903.01 L 803.65 902.06 L 801.23 901.10 L 798.80 900.20 L 796.37 899.31 L 793.96 898.42 L 791.55 897.55 L 789.13 896.72 L 786.74 895.86 L 784.35 895.03 L 781.98 894.16 L 779.62 893.29 L 777.29 892.37 L 774.97 891.47 L 772.66 890.58 L 770.35 889.68 L 768.05 888.80 L 765.75 887.95 L 763.47 887.09 L 761.18 886.26 L 758.89 885.47 L 756.61 884.68 L 754.34 883.89 L 752.08 883.10 L 749.82 882.32 L 747.57 881.57" stroke="rgb(120,210,255)" stroke-opacity="0.844" stroke-width="1.61" />
  <path d="M 998.94 996.99 L 996.53 995.20 L 994.08 993.49 L 991.60 991.84 L 989.14 990.20 L 986.75 988.46 L 984.32 986.81 L 981.90 985.17 L 979.57 983.42 L 977.25 981.66 L 974.94 979.92 L 972.62 978.21 L 970.33 976.49 L 968.04 974.78 L 965.74 973.10 L 963.44 971.45 L 961.10 969.87 L 958.70 968.40 L 956.28 966.98 L 953.89 965.55 L 951.47 964.18 L 949.08 962.79 L 946.66 961.47 L 944.24 960.17 L 941.83 958.87 L 939.43 957.60 L 937.06 956.27 L 934.70 954.95 L 932.33 953.68 L 929.98 952.39 L 927.68 951.04 L 925.45 949.59 L 923.27 948.09" stroke="rgb(120,210,255)" stroke-opacity="0.464" stroke-width="1.60" />
  <path d="M 905.48 934.04 L 903.33 931.83 L 901.21 929.62 L 898.97 927.53 L 896.78 925.42 L 894.54 923.37 L 892.29 921.36 L 890.13 919.27 L 887.89 917.28 L 885.61 915.35 L 883.30 913.47 L 881.11 911.48 L 878.87 909.57 L 876.67 907.62 L 874.46 905.70 L 872.26 903.78 L 870.10 901.86 L 867.98 899.89 L 865.87 897.93 L 863.77 895.97 L 861.70 894.01 L 859.69 892.00 L 857.75 889.93 L 855.88 887.82 L 854.07 885.67" stroke="rgb(120,210,255)" stroke-opacity="0.464" stroke-width="1.60" />
  <path d="M 960.04 963.68 L 957.04 962.03 L 954.04 960.42 L 951.06 958.79 L 948.08 957.20 L 945.09 955.64 L 942.11 954.11 L 939.12 952.62 L 936.16 951.10 L 933.22 949.58 L 930.27 948.10 L 927.35 946.58 L 924.44 945.10 L 921.56 943.56 L 918.76 941.92 L 916.00 940.24 L 913.23 938.58 L 910.46 936.96 L 907.68 935.38 L 904.95 933.75 L 902.28 932.04 L 899.63 930.32 L 896.95 928.67 L 894.30 927.01 L 891.67 925.33 L 889.06 923.64 L 886.45 921.97 L 883.83 920.35 L 881.22 918.73 L 878.63 917.12 L 876.03 915.52 L 873.44 913.94 L 870.88 912.34 L 868.30 910.80 L 865.75 909.22 L 863.21 907.65 L 860.68 906.08 L 858.17 904.51 L 855.68 902.92" stroke="rgb(120,210,255)" stroke-opacity="0.843" stroke-width="1.60" />
  <path d="M 999.59 1001.98 L 997.19 1000.33 L 994.80 998.70 L 992.43 997.04 L 990.05 995.43" stroke="rgb(120,210,255)" stroke-opacity="0.462" stroke-width="1.59" />
  <path d="M 1003.90 1001.66 L 1001.11 1000.23 L 998.30 998.87 L 995.54 997.43 L 992.79 996.01 L 990.05 994.59 L 987.31 993.20 L 984.58 991.83 L 981.81 990.55 L 979.01 989.37 L 976.17 988.33 L 973.31 987.37 L 970.47 986.41 L 967.64 985.47 L 964.81 984.55 L 961.98 983.65 L 959.20 982.67 L 956.45 981.63 L 953.70 980.61 L 950.98 979.55 L 948.26 978.55 L 945.56 977.49 L 942.91 976.36 L 940.31 975.15 L 937.71 973.95 L 935.12 972.78 L 932.51 971.67 L 929.89 970.61 L 927.28 969.55 L 924.70 968.46 L 922.16 967.31 L 919.62 966.18 L 917.12 964.98 L 914.65 963.77 L 912.21 962.50 L 909.78 961.24 L 907.34 960.03 L 904.92 958.79 L 902.57 957.47 L 900.23 956.12 L 897.92 954.77 L 895.64 953.38" stroke="rgb(120,210,255)" stroke-opacity="0.840" stroke-width="1.59" />
  <path d="M 945.56 977.49 L 943.14 976.90 L 940.72 976.32 L 938.35 975.62 L 935.94 975.07 L 933.53 974.59 L 931.14 974.10 L 928.75 973.62 L 926.37 973.13 L 923.99 972.69 L 921.64 972.20 L 919.29 971.72 L 916.95 971.22 L 914.62 970.76 L 912.29 970.30" stroke="rgb(120,210,255)" stroke-opacity="0.446" stroke-width="1.51" />
  <path d="M 1001.65 1001.56 L 1000.07 998.55 L 998.55 995.52 L 997.01 992.51 L 995.48 989.51 L 993.97 986.53 L 992.41 983.58 L 990.88 980.63 L 989.34 977.70 L 987.81 974.78 L 986.27 971.87 L 984.72 968.99 L 983.16 966.14 L 981.66 963.26 L 980.21 960.37 L 978.76 957.50 L 977.28 954.66 L 975.80 951.83 L 974.33 949.01 L 972.88 946.19 L 971.48 943.36 L 970.10 940.54 L 968.75 937.72 L 967.34 934.94 L 965.90 932.19 L 964.48 929.44 L 963.03 926.72 L 961.62 924.00 L 960.25 921.27 L 958.90 918.54 L 957.55 915.83 L 956.21 913.12 L 954.86 910.44 L 953.55 907.74 L 952.34 905.02 L 951.07 902.33 L 949.81 899.65 L 948.56 896.98 L 947.35 894.31 L 946.13 891.66 L 944.85 889.04 L 943.54 886.45 L 942.26 883.86 L 940.97 881.29 L 939.64 878.75 L 938.36 876.20 L 937.08 873.66 L 935.82 871.13 L 934.56 868.61 L 933.31 866.09 L 932.03 863.60 L 930.79 861.11 L 929.57 858.62 L 928.37 856.13 L 927.23 853.62 L 926.09 851.13 L 924.95 848.65 L 923.88 846.14 L 922.86 843.64 L 921.85 841.13 L 920.86 838.63 L 919.85 836.16 L 918.87 833.68 L 917.96 831.18 L 917.01 828.71 L 916.12 826.24 L 915.31 823.74 L 914.52 821.25 L 913.78 818.76 L 913.13 816.25 L 912.44 813.76 L 911.75 811.28 L 911.05 808.82 L 910.37 806.36 L 909.77 803.89 L 909.12 801.44 L 908.47 799.01 L 907.84 796.58 L 907.23 794.15 L 906.62 791.74 L 906.02 789.33" stroke="rgb(205,165,255)" stroke-opacity="0.721" stroke-width="1.24" />
  <path d="M 967.88 972.69 L 965.72 971.99 L 963.59 971.20 L 961.44 970.54 L 959.25 970.01 L 957.10 969.39 L 954.96 968.76 L 952.82 968.18 L 950.70 967.56 L 948.58 966.94 L 946.44 966.46 L 944.39 965.71 L 942.33 965.02 L 940.27 964.34 L 938.29 963.48 L 936.30 962.65 L 934.35 961.77 L 932.38 960.96 L 930.43 960.10 L 928.59 959.07 L 926.79 957.96 L 924.99 956.89 L 923.17 955.86 L 921.30 954.93 L 919.52 953.87 L 917.74 952.83 L 916.03 951.68 L 914.32 950.55 L 912.61 949.43 L 910.95 948.27 L 909.31 947.08 L 907.73 945.83 L 906.20 944.53 L 904.62 943.29 L 903.02 942.11 L 901.39 940.98 L 899.73 939.91 L 898.10 938.80 L 896.57 937.57 L 895.07 936.32 L 893.54 935.12 L 891.98 933.97 L 890.52 932.70" stroke="rgb(140,255,190)" stroke-opacity="0.565" stroke-width="1.23" />
  <path d="M 999.06 996.50 L 995.60 996.76 L 992.15 997.06 L 988.72 997.29 L 985.29 997.49 L 981.88 997.71 L 978.48 997.93 L 975.09 998.07 L 971.72 998.20" stroke="rgb(205,165,255)" stroke-opacity="0.713" stroke-width="1.22" />
  <path d="M 999.15 1000.02 L 996.99 997.32 L 994.83 994.64 L 992.68 991.97 L 990.55 989.31 L 988.44 986.64 L 986.32 984.00 L 984.23 981.36 L 982.13 978.73 L 980.06 976.10 L 977.97 973.50 L 975.84 970.96 L 973.71 968.43 L 971.58 965.93 L 969.48 963.40 L 967.37 960.91 L 965.27 958.43 L 963.19 955.94 L 961.09 953.49 L 959.01 951.04 L 956.94 948.60 L 954.85 946.19 L 952.76 943.80 L 950.68 941.42 L 948.62 939.03 L 946.60 936.63 L 944.61 934.22 L 942.66 931.79 L 940.71 929.38 L 938.74 927.00 L 936.75 924.66 L 934.82 922.28 L 932.89 919.92 L 930.95 917.58 L 928.96 915.29 L 926.97 913.03 L 925.01 910.76 L 923.09 908.46 L 921.16 906.19 L 919.23 903.94 L 917.30 901.71 L 915.36 899.49 L 913.44 897.28 L 911.48 895.11 L 909.51 892.98" stroke="rgb(140,255,190)" stroke-opacity="0.741" stroke-width="1.20" />
  <path d="M 978.39 931.43 L 976.05 929.36 L 973.81 927.20 L 971.59 925.02 L 969.44 922.81 L 967.34 920.56 L 965.32 918.26 L 963.23 916.03 L 961.16 913.80 L 959.16 911.53 L 957.12 909.31 L 955.15 907.05 L 953.11 904.86 L 951.04 902.72 L 948.96 900.60 L 946.95 898.43 L 944.89 896.33 L 942.85 894.22 L 940.92 892.03 L 938.90 889.94 L 936.87 887.87 L 934.78 885.88 L 932.62 883.98 L 930.43 882.14 L 928.27 880.28 L 926.17 878.37 L 924.14 876.40 L 922.10 874.46 L 920.03 872.57 L 917.93 870.73 L 915.81 868.92 L 913.70 867.12 L 911.52 865.43 L 909.38 863.70 L 907.31 861.91 L 905.19 860.19 L 903.06 858.50 L 900.95 856.82 L 898.80 855.19 L 896.64 853.59 L 894.48 852.01 L 892.28 850.51 L 890.09 849.02 L 887.91 847.53 L 885.74 846.04 L 883.59 844.54 L 881.45 843.04 L 879.36 841.50 L 877.25 840.00 L 875.17 838.48 L 873.10 836.95 L 871.05 835.42 L 869.05 833.85 L 867.12 832.19 L 865.18 830.57 L 863.25 828.96 L 861.38 827.28 L 859.49 825.65 L 857.65 823.98 L 855.90 822.23 L 854.15 820.48 L 852.39 818.77 L 850.60 817.10 L 848.81 815.44 L 847.02 813.81 L 845.19 812.22 L 843.41 810.60 L 841.60 809.02 L 839.79 807.46 L 838.01 805.89 L 836.26 804.28 L 834.56 802.65 L 832.92 800.96 L 831.29 799.28" stroke="rgb(205,165,255)" stroke-opacity="0.702" stroke-width="1.19" />
  <path d="M 1002.41 1000.40 L 999.96 1002.41 L 997.48 1004.37 L 995.04 1006.36 L 992.60 1008.32 L 990.14 1010.24 L 987.72 1012.19 L 985.33 1014.15 L 983.00 1016.17 L 980.68 1018.18 L 978.43 1020.25 L 976.14 1022.27 L 973.83 1024.24 L 971.52 1026.18 L 969.21 1028.11 L 966.94 1030.07 L 964.69 1032.03 L 962.42 1033.94 L 960.13 1035.83 L 957.92 1037.78 L 955.69 1039.70 L 953.50 1041.64 L 951.28 1043.53 L 949.06 1045.39 L 946.83 1047.24 L 944.65 1049.11 L 942.45 1050.95 L 940.25 1052.78 L 938.00 1054.52 L 935.74 1056.24 L 933.52 1057.98 L 931.33 1059.74 L 929.15 1061.50 L 926.94 1063.19 L 924.75 1064.91 L 922.55 1066.58 L 920.39 1068.30 L 918.24 1070.00 L 916.10 1071.71 L 913.96 1073.39 L 911.86 1075.10 L 909.82 1076.87 L 907.85 1078.70 L 905.86 1080.50 L 903.90 1082.31 L 901.90 1084.06 L 899.89 1085.78" stroke="rgb(205,165,255)" stroke-opacity="0.700" stroke-width="1.19" />
  <path d="M 999.49 1000.08 L 996.60 998.32 L 993.74 996.53 L 990.91 994.72 L 988.13 992.86 L 985.39 990.97 L 982.68 989.05 L 979.99 987.14 L 977.33 985.21 L 974.65 983.31 L 971.98 981.44 L 969.35 979.53 L 966.70 977.67 L 964.10 975.76 L 961.50 973.86 L 958.91 971.99 L 956.35 970.09 L 953.79 968.22 L 951.25 966.33 L 948.68 964.51 L 946.12 962.70 L 943.59 960.87 L 941.07 959.04 L 938.54 957.25 L 936.02 955.47 L 933.55 953.65 L 931.07 951.84 L 928.60 950.06 L 926.08 948.37 L 923.61 946.62 L 921.15 944.88 L 918.67 943.19 L 916.20 941.50 L 913.76 939.80 L 911.30 938.14 L 908.84 936.51 L 906.39 934.88 L 903.96 933.25 L 901.50 931.67 L 899.06 930.10 L 896.62 928.54 L 894.17 927.01 L 891.69 925.57 L 889.22 924.13 L 886.75 922.71 L 884.29 921.30 L 881.84 919.89 L 879.41 918.46 L 876.99 917.06 L 874.55 915.70 L 872.11 914.36 L 869.69 913.01 L 867.29 911.65 L 864.90 910.30 L 862.53 908.93 L 860.17 907.57 L 857.84 906.18 L 855.53 904.77 L 853.23 903.36 L 850.97 901.93 L 848.71 900.51 L 846.47 899.07 L 844.24 897.62 L 842.03 896.18 L 839.84 894.73 L 837.65 893.29 L 835.45 891.89 L 833.26 890.50 L 831.09 889.09 L 828.94 887.68 L 826.77 886.30 L 824.61 884.93" stroke="rgb(140,255,190)" stroke-opacity="0.737" stroke-width="1.19" />
  <path d="M 999.03 1002.47 L 996.42 1000.36 L 993.77 998.31 L 991.13 996.27 L 988.49 994.26 L 985.89 992.21 L 983.28 990.20 L 980.66 988.23 L 978.05 986.26 L 975.45 984.31 L 972.86 982.36 L 970.31 980.37 L 967.76 978.41 L 965.29 976.38 L 962.80 974.38 L 960.30 972.42" stroke="rgb(140,255,190)" stroke-opacity="0.732" stroke-width="1.17" />
  <path d="M 1001.09 997.76 L 998.09 996.16 L 995.11 994.54 L 992.13 992.94 L 989.16 991.35 L 986.24 989.71 L 983.32 988.10 L 980.40 986.50 L 977.49 984.93 L 974.60 983.34 L 971.73 981.74 L 968.88 980.13 L 966.06 978.51 L 963.25 976.87 L 960.53 975.12 L 957.82 973.38 L 955.10 971.68 L 952.40 969.98 L 949.69 968.30 L 946.96 966.70 L 944.22 965.13 L 941.50 963.57 L 938.77 962.03 L 936.04 960.52 L 933.33 959.00 L 930.61 957.52 L 927.89 956.08 L 925.17 954.65 L 922.45 953.27 L 919.73 951.90 L 917.03 950.53 L 914.33 949.17 L 911.61 947.88 L 908.92 946.57 L 906.22 945.29 L 903.54 944.01 L 900.86 942.74 L 898.18 941.52 L 895.51 940.31 L 892.85 939.09 L 890.21 937.85 L 887.60 936.58" stroke="rgb(140,255,190)" stroke-opacity="0.732" stroke-width="1.17" />
  <path d="M 998.01 1001.02 L 995.70 998.72 L 993.41 996.42 L 991.09 994.17 L 988.78 991.92 L 986.45 989.72 L 984.07 987.59 L 981.66 985.51 L 979.28 983.42 L 976.93 981.31 L 974.64 979.15 L 972.37 977.01 L 970.10 974.86 L 967.88 972.69 L 965.70 970.50 L 963.55 968.29 L 961.39 966.10 L 959.25 963.92 L 957.06 961.81 L 954.85 959.73 L 952.69 957.62 L 950.55 955.51 L 948.37 953.45 L 946.24 951.36 L 944.10 949.30 L 941.91 947.30 L 939.75 945.30 L 937.63 943.27 L 935.60 941.17 L 933.55 939.10 L 931.52 937.02 L 929.52 934.93 L 927.56 932.82 L 925.54 930.79 L 923.58 928.72 L 921.60 926.67 L 919.64 924.63 L 917.68 922.60" stroke="rgb(140,255,190)" stroke-opacity="0.729" stroke-width="1.17" />
  <path d="M 980.25 936.18 L 980.18 933.22 L 980.10 930.27 L 980.03 927.34 L 979.85 924.42 L 979.68 921.51 L 979.55 918.61 L 979.46 915.72 L 979.31 912.84 L 979.03 909.99 L 978.73 907.15 L 978.29 904.34 L 977.89 901.53 L 977.43 898.75 L 976.93 895.98 L 976.48 893.22 L 976.15 890.45 L 975.83 887.69 L 975.54 884.94 L 975.34 882.19 L 975.25 879.45 L 975.13 876.71 L 975.00 874.00 L 974.82 871.29 L 974.69 868.59 L 974.54 865.91 L 974.40 863.23 L 974.28 860.57 L 974.14 857.91 L 974.11 855.26 L 974.02 852.63 L 973.99 850.00 L 973.89 847.39 L 973.66 844.80 L 973.39 842.21 L 973.26 839.63 L 973.15 837.06 L 973.10 834.50 L 973.04 831.95 L 972.99 829.40 L 972.89 826.87 L 972.96 824.35 L 973.08 821.84 L 973.09 819.34 L 973.09 816.85 L 973.13 814.36 L 973.25 811.89 L 973.31 809.43 L 973.30 806.98 L 973.36 804.54 L 973.42 802.10 L 973.60 799.69 L 973.77 797.28 L 974.04 794.89 L 974.28 792.51 L 974.63 790.15" stroke="rgb(205,165,255)" stroke-opacity="0.482" stroke-width="1.16" />
  <path d="M 998.77 997.62 L 998.07 1000.50 L 997.44 1003.38 L 996.90 1006.27 L 996.37 1009.15 L 995.83 1012.01 L 995.34 1014.87 L 994.83 1017.71 L 994.29 1020.54 L 993.77 1023.36 L 993.34 1026.19 L 992.97 1029.01 L 992.66 1031.82 L 992.27 1034.62 L 991.85 1037.40 L 991.38 1040.16 L 990.94 1042.91 L 990.54 1045.66 L 990.18 1048.40 L 989.74 1051.12 L 989.39 1053.84 L 988.99 1056.54 L 988.62 1059.24 L 988.21 1061.92 L 987.87 1064.60 L 987.49 1067.26 L 987.18 1069.92 L 986.80 1072.56 L 986.44 1075.19 L 986.00 1077.80 L 985.52 1080.40 L 984.99 1082.97 L 984.51 1085.54 L 984.07 1088.10 L 983.61 1090.66 L 983.15 1093.20 L 982.73 1095.74 L 982.26 1098.26 L 981.75 1100.76" stroke="rgb(205,165,255)" stroke-opacity="0.479" stroke-width="1.15" />
  <path d="M 999.86 997.42 L 997.06 995.75 L 994.26 994.13 L 991.49 992.47 L 988.68 990.90 L 985.92 989.27 L 983.19 987.64 L 980.50 985.94 L 977.85 984.22 L 975.24 982.46 L 972.66 980.66 L 970.11 978.85 L 967.57 977.06 L 965.06 975.23" stroke="rgb(140,255,190)" stroke-opacity="0.721" stroke-width="1.15" />
  <path d="M 1000.82 1003.18 L 999.95 1000.47 L 999.06 997.79 L 998.09 995.14 L 997.06 992.53 L 995.99 989.95 L 994.92 987.38 L 993.96 984.78 L 992.95 982.21 L 991.92 979.66 L 990.95 977.10 L 989.94 974.57 L 989.08 971.99 L 988.28 969.41 L 987.61 966.79 L 987.00 964.18 L 986.40 961.57 L 985.85 958.97 L 985.32 956.37 L 984.82 953.78 L 984.32 951.19 L 983.73 948.64 L 983.19 946.08 L 982.59 943.56 L 981.91 941.06 L 981.12 938.60 L 980.25 936.18 L 979.34 933.79 L 978.39 931.43 L 977.41 929.09 L 976.48 926.74 L 975.49 924.42 L 974.58 922.09 L 973.61 919.79 L 972.64 917.49 L 971.68 915.21 L 970.70 912.94 L 969.76 910.67 L 968.81 908.42 L 967.87 906.17 L 966.89 903.94 L 965.87 901.75" stroke="rgb(205,165,255)" stroke-opacity="0.479" stroke-width="1.15" />
  <path d="M 986.80 1072.56 L 987.73 1075.32 L 988.60 1078.09 L 989.54 1080.83 L 990.51 1083.54 L 991.38 1086.28 L 992.24 1089.00 L 993.11 1091.71 L 993.90 1094.44 L 994.64 1097.16 L 995.33 1099.89 L 996.10 1102.58 L 996.87 1105.26 L 997.72 1107.91 L 998.50 1110.57 L 999.21 1113.23 L 999.92 1115.88 L 1000.65 1118.52 L 1001.36 1121.15 L 1001.98 1123.79 L 1002.61 1126.42" stroke="rgb(205,165,255)" stroke-opacity="0.478" stroke-width="1.14" />
  <path d="M 997.80 1000.41 L 994.59 1000.38 L 991.40 1000.30 L 988.22 1000.23 L 985.06 1000.11 L 981.91 999.98 L 978.78 999.75 L 975.66 999.47 L 972.56 999.20 L 969.46 999.03 L 966.37 998.90 L 963.30 998.74 L 960.23 998.67 L 957.18 998.60 L 954.14 998.53 L 951.11 998.47 L 948.09 998.49 L 945.09 998.51 L 942.09 998.50 L 939.11 998.47 L 936.14 998.38 L 933.19 998.35 L 930.24 998.33 L 927.31 998.37 L 924.38 998.39 L 921.47 998.35 L 918.58 998.41 L 915.69 998.53 L 912.82 998.64 L 909.96 998.73 L 907.11 998.91 L 904.27 999.07 L 901.45 999.24 L 898.63 999.38 L 895.83 999.49 L 893.03 999.62 L 890.25 999.65 L 887.47 999.66 L 884.71 999.61 L 881.96 999.57 L 879.22 999.52 L 876.49 999.49 L 873.77 999.49 L 871.07 999.43 L 868.37 999.35 L 865.68 999.25 L 863.01 999.12 L 860.35 999.02 L 857.70 998.92 L 855.06 998.79 L 852.43 998.69 L 849.81 998.55 L 847.20 998.45 L 844.60 998.42 L 842.00 998.43 L 839.42 998.44 L 836.85 998.46 L 834.29 998.52 L 831.74 998.51 L 829.21 998.47 L 826.68 998.48 L 824.16 998.46 L 821.65 998.47 L 819.15 998.47 L 816.66 998.54 L 814.18 998.63 L 811.71 998.72 L 809.25 998.77 L 806.81 998.80 L 804.37 998.88 L 801.94 998.96 L 799.52 999.08 L 797.11 999.17 L 794.71 999.27 L 792.32 999.32 L 789.94 999.40 L 787.57 999.54 L 785.22 999.75 L 782.87 999.96 L 780.54 1000.19 L 778.22 1000.47 L 775.92 1000.78 L 773.63 1001.12 L 771.34 1001.42 L 769.07 1001.73 L 766.80 1002.08" stroke="rgb(140,255,190)" stroke-opacity="0.720" stroke-width="1.14" />
  <path d="M 969.53 1049.05 L 966.94 1050.73 L 964.45 1052.52 L 961.95 1054.27 L 959.46 1056.03 L 957.08 1057.91 L 954.71 1059.78" stroke="rgb(140,255,190)" stroke-opacity="0.538" stroke-width="1.14" />
  <path d="M 998.92 1000.21 L 996.04 998.78 L 993.18 997.34 L 990.37 995.85 L 987.53 994.41 L 984.72 992.97 L 981.90 991.57 L 979.12 990.12 L 976.32 988.72 L 973.55 987.32 L 970.77 985.94 L 968.01 984.56 L 965.28 983.14 L 962.57 981.72 L 959.88 980.28 L 957.22 978.81 L 954.54 977.40 L 951.92 975.93 L 949.32 974.42 L 946.74 972.92 L 944.17 971.40 L 941.60 969.93 L 939.02 968.49 L 936.43 967.10 L 933.83 965.74 L 931.28 964.32 L 928.76 962.87 L 926.25 961.44 L 923.75 959.99 L 921.26 958.56 L 918.80 957.11 L 916.36 955.64 L 913.96 954.11 L 911.62 952.54" stroke="rgb(140,255,190)" stroke-opacity="0.716" stroke-width="1.13" />
  <path d="M 969.53 1049.05 L 969.44 1051.50 L 969.37 1053.93 L 969.03 1056.34 L 968.62 1058.72 L 968.11 1061.08 L 967.56 1063.42 L 967.05 1065.75 L 966.71 1068.11 L 966.38 1070.46 L 965.92 1072.78 L 965.28 1075.04 L 964.49 1077.25" stroke="rgb(140,255,190)" stroke-opacity="0.536" stroke-width="1.13" />
  <path d="M 996.39 1001.40 L 993.97 1000.68 L 991.55 999.97 L 989.13 999.31 L 986.73 998.60 L 984.36 997.87 L 981.98 997.15 L 979.62 996.43 L 977.28 995.69 L 974.93 994.99 L 972.61 994.24 L 970.25 993.68 L 967.89 993.15 L 965.55 992.56 L 963.21 992.02 L 960.88 991.48 L 958.56 990.95 L 956.24 990.46 L 953.93 990.00 L 951.63 989.51 L 949.34 989.01 L 947.07 988.44" stroke="rgb(140,255,190)" stroke-opacity="0.536" stroke-width="1.13" />
  <path d="M 999.21 999.13 L 997.71 1001.75 L 996.32 1004.41 L 994.90 1007.05 L 993.43 1009.64 L 991.93 1012.20 L 990.40 1014.73 L 988.83 1017.22 L 987.30 1019.72 L 985.84 1022.25 L 984.30 1024.72 L 982.73 1027.16 L 981.24 1029.63 L 979.77 1032.10 L 978.33 1034.57 L 976.89 1037.03 L 975.42 1039.46 L 973.91 1041.86 L 972.45 1044.27 L 970.97 1046.65 L 969.53 1049.05 L 968.08 1051.43 L 966.77 1053.87 L 965.40 1056.27 L 964.10 1058.69 L 962.75 1061.08 L 961.41 1063.45 L 960.15 1065.86 L 958.84 1068.23 L 957.58 1070.62 L 956.31 1072.98 L 955.02 1075.33 L 953.76 1077.67 L 952.49 1080.00 L 951.14 1082.28 L 949.76 1084.51 L 948.40 1086.76 L 947.06 1089.00 L 945.82 1091.29 L 944.69 1093.61 L 943.62 1095.96 L 942.53 1098.29" stroke="rgb(140,255,190)" stroke-opacity="0.533" stroke-width="1.12" />
  <path d="M 999.30 996.53 L 996.54 995.25 L 993.79 993.98 L 991.00 992.82 L 988.25 991.59 L 985.52 990.38 L 982.77 989.21 L 980.02 988.07 L 977.28 986.96 L 974.56 985.84 L 971.82 984.77 L 969.10 983.68 L 966.38 982.64 L 963.65 981.68 L 960.96 980.61 L 958.31 979.50 L 955.67 978.36 L 953.06 977.22 L 950.50 975.99 L 947.93 974.78 L 945.37 973.59 L 942.80 972.46 L 940.26 971.29 L 937.74 970.10 L 935.24 968.89 L 932.75 967.68 L 930.30 966.43 L 927.85 965.20 L 925.41 963.97 L 923.02 962.67 L 920.64 961.36 L 918.25 960.11 L 915.89 958.83 L 913.53 957.56 L 911.17 956.32 L 908.80 955.13 L 906.45 953.90 L 904.11 952.70 L 901.82 951.42 L 899.51 950.19 L 897.22 948.95 L 894.96 947.68 L 892.66 946.51 L 890.37 945.34 L 888.06 944.22 L 885.76 943.12 L 883.52 941.91 L 881.26 940.77 L 878.99 939.67 L 876.71 938.61 L 874.47 937.50 L 872.20 936.48 L 869.93 935.48 L 867.66 934.50 L 865.36 933.62 L 863.07 932.76 L 860.79 931.88 L 858.52 931.00 L 856.26 930.13 L 854.00 929.29 L 851.76 928.42 L 849.55 927.49 L 847.40 926.47 L 845.23 925.49 L 843.10 924.46 L 841.02 923.37" stroke="rgb(140,255,190)" stroke-opacity="0.531" stroke-width="1.11" />
  <path d="M 1999.73 1582.05 L 1997.25 1579.99 L 1994.87 1579.02 L 1992.42 1577.11 L 1989.73 1575.72 L 1987.02 1574.37 L 1984.56 1572.64 L 1981.84 1571.18 L 1979.25 1569.58 L 1976.72 1568.28 L 1974.22 1566.67 L 1971.28 1564.86 L 1969.06 1563.45 L 1966.15 1562.12 L 1963.63 1560.82 L 1961.02 1558.63 L 1958.26 1557.84 L 1956.01 1555.75 L 1953.55 1554.41 L 1950.99 1552.86 L 1948.28 1551.28 L 1945.80 1550.40 L 1943.14 1548.44 L 1940.74 1547.03 L 1937.87 1545.33 L 1935.29 1543.82 L 1932.65 1542.24 L 1930.12 1540.61 L 1927.43 1539.19 L 1924.77 1537.64 L 1922.53 1536.26 L 1919.65 1534.81 L 1917.01 1533.85 L 1914.44 1532.14 L 1911.28 1530.29 L 1909.16 1528.65 L 1906.43 1527.42 L 1904.14 1526.23 L 1901.36 1524.38 L 1898.82 1523.24 L 1896.43 1521.26 L 1893.78 1519.70 L 1891.23 1518.62 L 1888.52 1516.53 L 1886.06 1515.17 L 1883.20 1513.75 L 1880.83 1512.89 L 1878.13 1511.24 L 1875.38 1509.12 L 1873.06 1507.78 L 1870.28 1506.31 L 1867.72 1504.95 L 1865.32 1502.75 L 1862.13 1501.86 L 1859.61 1500.12 L 1857.29 1498.59 L 1854.82 1497.18 L 1851.94 1496.14 L 1849.53 1494.43 L 1846.90 1492.62 L 1843.79 1491.29 L 1841.56 1489.89 L 1839.45 1488.11 L 1836.51 1486.90 L 1834.15 1485.06 L 1831.37 1483.39 L 1829.18 1481.97 L 1826.32 1481.04 L 1823.74 1478.98 L 1821.10 1477.86 L 1818.51 1476.13 L 1815.79 1474.86 L 1813.39 1473.03 L 1810.70 1471.42 L 1808.27 1470.09 L 1805.62 1468.66 L 1802.94 1467.17 L 1799.96 1465.73 L 1797.79 1464.05 L 1794.98 1461.96 L 1792.66 1461.12 L 1789.81 1458.96 L 1787.60 1457.72 L 1784.68 1456.56 L 1781.83 1454.89 L 1779.65 1453.58 L 1776.87 1451.95 L 1773.91 1450.32 L 1772.12 1449.44 L 1769.42 1447.69 L 1766.45 1446.18 L 1763.98 1444.36 L 1761.36 1442.74 L 1758.65 1441.47 L 1756.29 1439.79 L 1753.51 1437.98 L 1750.87 1436.89 L 1748.65 1435.97 L 1745.78 1433.78 L 1743.08 1432.14 L 1740.69 1430.77 L 1738.32 1429.19 L 1735.38 1427.83 L 1732.56 1426.03 L 1730.34 1424.67 L 1727.91 1423.33 L 1725.00 1422.03 L 1722.67 1420.37 L 1719.95 1418.56 L 1717.47 1417.53 L 1714.66 1415.94 L 1712.58 1414.30 L 1709.68 1412.70 L 1706.88 1411.64 L 1704.21 1410.10 L 1701.71 1408.12 L 1699.35 1407.06 L 1696.49 1405.22 L 1693.61 1403.36 L 1691.53 1401.77 L 1688.74 1400.84 L 1686.25 1399.04 L 1683.52 1397.64 L 1681.03 1395.72 L 1678.29 1394.82 L 1675.86 1393.14 L 1673.07 1391.42 L 1670.81 1390.43 L 1668.48 1388.68 L 1665.42 1387.13 L 1662.91 1385.77 L 1660.32 1383.80 L 1657.47 1382.38 L 1655.06 1381.03 L 1652.90 1379.69 L 1649.77 1377.96 L 1646.99 1376.84 L 1644.85 1375.00 L 1641.95 1373.42 L 1639.72 1372.00 L 1637.09 1370.48 L 1634.21 1368.93 L 1631.90 1367.46 L 1629.99 1365.53 L 1626.72 1364.26 L 1623.96 1363.36 L 1621.41 1361.05 L 1619.03 1359.66 L 1616.20 1358.87 L 1613.80 1357.10 L 1611.29 1355.26 L 1608.35 1353.90 L 1605.71 1352.55 L 1603.15 1350.94 L 1600.89 1349.32 L 1597.81 1347.79 L 1595.31 1346.65 L 1593.28 1345.18 L 1590.61 1343.46 L 1587.63 1342.54 L 1585.09 1340.24 L 1582.69 1338.58 L 1579.91 1337.54 L 1577.46 1336.00 L 1575.14 1334.46 L 1572.08 1332.84 L 1569.79 1331.24 L 1567.03 1329.90 L 1564.66 1328.55 L 1561.72 1326.95 L 1558.88 1325.53 L 1556.48 1323.72 L 1553.98 1322.22 L 1551.55 1320.59 L 1548.91 1319.05 L 1546.39 1317.99 L 1543.65 1316.25 L 1541.12 1314.64 L 1538.35 1312.96 L 1535.59 1311.75 L 1533.15 1310.21 L 1530.67 1308.59 L 1527.91 1307.19 L 1525.65 1305.32 L 1522.60 1304.05 L 1520.35 1302.82 L 1517.81 1301.11 L 1515.26 1299.72 L 1512.75 1297.88 L 1509.92 1296.78 L 1507.60 1295.03 L 1504.63 1293.33 L 1502.24 1292.04 L 1499.61 1290.42 L 1497.01 1289.29 L 1494.24 1287.87 L 1491.98 1286.15 L 1489.10 1284.42 L 1486.28 1282.80 L 1483.86 1281.51 L 1481.42 1279.98 L 1479.27 1278.67 L 1476.23 1277.24 L 1473.75 1275.42 L 1470.94 1273.83 L 1468.54 1272.47 L 1466.17 1270.81 L 1463.15 1269.48 L 1460.77 1267.94 L 1458.48 1266.15 L 1455.35 1265.00 L 1453.07 1263.48 L 1449.74 1261.75 L 1447.71 1259.97 L 1445.13 1258.71 L 1442.63 1257.45 L 1439.99 1255.91 L 1436.93 1254.60 L 1434.59 1252.97 L 1432.17 1251.11 L 1429.40 1249.67 L 1426.80 1247.91 L 1424.32 1247.02 L 1421.57 1245.09 L 1419.18 1243.52 L 1416.60 1242.31 L 1414.12 1240.98 L 1411.59 1239.49 L 1408.71 1237.63 L 1405.80 1236.73 L 1403.70 1235.13 L 1401.09 1233.24 L 1398.52 1231.15 L 1395.79 1229.98 L 1393.34 1228.41 L 1390.82 1226.94 L 1387.93 1225.97 L 1385.42 1224.38 L 1382.82 1222.48 L 1379.96 1221.35 L 1377.84 1219.66 L 1374.88 1218.07 L 1372.30 1216.63 L 1370.12 1215.22 L 1367.46 1213.61 L 1364.77 1211.95 L 1362.10 1210.45 L 1359.24 1208.93 L 1356.93 1207.73 L 1354.26 1206.12 L 1351.52 1204.45 L 1349.14 1203.57 L 1346.49 1201.71 L 1343.96 1200.33 L 1341.05 1198.48 L 1338.85 1197.12 L 1335.94 1195.61 L 1333.71 1194.42 L 1330.93 1192.65 L 1328.38 1190.99 L 1325.89 1189.49 L 1323.03 1188.14 L 1321.00 1186.25 L 1318.13 1184.74 L 1315.05 1183.53 L 1313.07 1181.63 L 1310.02 1180.38 L 1307.65 1178.90 L 1305.12 1177.29 L 1302.50 1176.20 L 1300.09 1174.36 L 1297.38 1173.25 L 1294.56 1171.24 L 1292.02 1170.26 L 1289.95 1168.03 L 1287.04 1166.90 L 1283.93 1165.41 L 1281.85 1164.04 L 1279.12 1162.47 L 1276.48 1160.59 L 1273.92 1159.02 L 1271.24 1157.64 L 1268.75 1156.35 L 1266.59 1155.56 L 1263.58 1153.27 L 1261.25 1151.73 L 1258.41 1150.09 L 1255.62 1148.78 L 1252.80 1147.46 L 1250.63 1145.75 L 1247.53 1144.69 L 1245.25 1142.95 L 1242.74 1140.60 L 1240.35 1139.23 L 1237.46 1138.36 L 1235.45 1137.25 L 1232.50 1135.38 L 1229.20 1133.87 L 1227.20 1131.86 L 1224.62 1130.47 L 1222.15 1129.10 L 1219.54 1127.62 L 1216.57 1125.96 L 1214.33 1124.54 L 1212.01 1123.27 L 1208.89 1121.79 L 1206.51 1120.08 L 1203.82 1118.54 L 1201.57 1116.90 L 1198.81 1115.78 L 1195.97 1113.79 L 1193.51 1112.49 L 1190.54 1111.35 L 1188.00 1109.53 L 1185.80 1107.94 L 1183.50 1106.58 L 1180.71 1105.02 L 1178.17 1103.65 L 1175.63 1102.32 L 1172.81 1100.58 L 1170.27 1098.57 L 1167.46 1097.50 L 1164.80 1095.91 L 1162.39 1094.44 L 1159.57 1092.89 L 1157.08 1091.65 L 1154.83 1090.25 L 1152.07 1088.49 L 1149.73 1087.10 L 1147.23 1085.53 L 1144.41 1083.67 L 1141.26 1082.69 L 1138.73 1081.13 L 1136.39 1079.20 L 1133.95 1078.14 L 1131.22 1076.13 L 1128.72 1074.53 L 1125.93 1073.88 L 1123.60 1071.81 L 1120.75 1070.55 L 1118.37 1068.69 L 1115.84 1066.91 L 1113.25 1065.37 L 1110.76 1064.60 L 1108.10 1062.76 L 1105.56 1061.23 L 1103.49 1059.62 L 1099.90 1058.24 L 1097.61 1056.75 L 1094.71 1055.60 L 1092.41 1054.05 L 1089.51 1052.14 L 1087.19 1051.01 L 1084.53 1049.49 L 1082.28 1047.60 L 1079.43 1045.98 L 1076.81 1044.56 L 1074.17 1043.03 L 1071.88 1041.46 L 1068.99 1040.16 L 1066.99 1038.44 L 1063.90 1037.10 L 1061.36 1035.89 L 1058.84 1033.78 L 1056.50 1032.56 L 1053.24 1031.08 L 1051.02 1029.83 L 1048.03 1028.00 L 1045.97 1026.37 L 1042.91 1025.08 L 1040.34 1023.54 L 1038.17 1022.14 L 1035.47 1020.76 L 1033.14 1019.18 L 1030.21 1017.32 L 1027.68 1015.68 L 1025.11 1014.67 L 1022.34 1012.89 L 1019.73 1011.85 L 1016.79 1010.32 L 1014.75 1008.72 L 1011.75 1006.87 L 1009.67 1005.89 L 1007.14 1003.94 L 1004.32 1002.80 L 1001.31 1000.82 L 1000.00 1000.00 L 997.39 998.51 L 994.80 997.01 L 992.20 995.51 L 989.59 994.03 L 986.96 992.58 L 984.34 991.13 L 981.71 989.69 L 979.07 988.26 L 976.44 986.82 L 973.80 985.39 L 971.17 983.95 L 968.55 982.48 L 965.94 981.01 L 963.35 979.50 L 960.76 977.98 L 958.17 976.46 L 955.59 974.92 L 953.01 973.40 L 950.41 971.91 L 947.80 970.42 L 945.20 968.93 L 942.59 967.45 L 939.98 965.97 L 937.39 964.45 L 934.80 962.95 L 932.20 961.44 L 929.60 959.95 L 927.01 958.44 L 924.41 956.94 L 921.79 955.47 L 919.19 953.98 L 916.62 952.44 L 914.04 950.91 L 911.46 949.37 L 908.87 947.86 L 906.27 946.36 L 903.67 944.87 L 901.07 943.36 L 898.47 941.87 L 895.88 940.36 L 893.30 938.83 L 890.73 937.29 L 888.14 935.76 L 885.57 934.21 L 883.01 932.65 L 880.45 931.09 L 877.91 929.49 L 875.35 927.92 L 872.79 926.37 L 870.22 924.82 L 867.63 923.30 L 865.03 921.80 L 862.45 920.27 L 859.90 918.69 L 857.34 917.13 L 854.79 915.55 L 852.25 913.96 L 849.69 912.38 L 847.14 910.81 L 844.58 909.24 L 842.03 907.66 L 839.48 906.09 L 836.92 904.52 L 834.35 902.96 L 831.79 901.41 L 829.21 899.87 L 826.65 898.31 L 824.11 896.71 L 821.59 895.09 L 819.06 893.48 L 816.54 891.86 L 814.02 890.23 L 811.50 888.59 L 808.98 886.97 L 806.46 885.34 L 803.93 883.72 L 801.39 882.13 L 798.82 880.58 L 796.24 879.04 L 793.67 877.51 L 791.08 875.99 L 788.50 874.46 L 785.93 872.90 L 783.38 871.34 L 780.82 869.77 L 778.26 868.20 L 775.71 866.63 L 773.14 865.08 L 770.57 863.52 L 768.00 861.98 L 765.42 860.45 L 762.85 858.91 L 760.27 857.36 L 757.72 855.79 L 755.14 854.26 L 752.54 852.75 L 749.96 851.24 L 747.37 849.72 L 744.78 848.20 L 742.21 846.65 L 739.66 845.08 L 737.09 843.52 L 734.51 842.00 L 731.93 840.47 L 729.33 838.96 L 726.75 837.44 L 724.15 835.94 L 721.57 834.41 L 719.00 832.87 L 716.43 831.32 L 713.86 829.76 L 711.30 828.21 L 708.73 826.65 L 706.17 825.09 L 703.62 823.51 L 701.06 821.95 L 698.50 820.38 L 695.95 818.81 L 693.40 817.23 L 690.85 815.63 L 688.31 814.04 L 685.75 812.47 L 683.21 810.89 L 680.65 809.33 L 678.09 807.75 L 675.55 806.16 L 673.02 804.55 L 670.47 802.97 L 667.90 801.42 L 665.33 799.87 L 662.77 798.31 L 660.21 796.74 L 657.67 795.15 L 655.11 793.58 L 652.56 792.00 L 650.03 790.40 L 647.50 788.78 L 644.97 787.16 L 642.45 785.54 L 639.92 783.93 L 637.37 782.35 L 634.83 780.76 L 632.27 779.19 L 629.71 777.62 L 627.16 776.03 L 624.60 774.47 L 622.04 772.91 L 619.48 771.35 L 616.91 769.80 L 614.33 768.26 L 611.77 766.71 L 609.20 765.15 L 606.64 763.59 L 604.08 762.03 L 601.52 760.47 L 598.94 758.93 L 596.37 757.39 L 593.81 755.82 L 591.24 754.27 L 588.66 752.74 L 586.07 751.24 L 583.47 749.73 L 580.88 748.23 L 578.27 746.75 L 575.66 745.26 L 573.05 743.78 L 570.45 742.28 L 567.87 740.76 L 565.29 739.23 L 562.70 737.70 L 560.12 736.18 L 557.54 734.65 L 554.96 733.12 L 552.39 731.56 L 549.82 730.01 L 547.25 728.47 L 544.68 726.93 L 542.10 725.39 L 539.51 723.88 L 536.93 722.35 L 534.37 720.79 L 531.81 719.22 L 529.23 717.68 L 526.65 716.16 L 524.07 714.63 L 521.48 713.11 L 518.89 711.60 L 516.29 710.10 L 513.71 708.58 L 511.10 707.09 L 508.49 705.62 L 505.86 704.17 L 503.23 702.73 L 500.60 701.29 L 497.97 699.85 L 495.33 698.41 L 492.72 696.94 L 490.10 695.47 L 487.48 694.01 L 484.88 692.53 L 482.27 691.04 L 479.67 689.54 L 477.08 688.03 L 474.49 686.52 L 471.90 685.01 L 469.29 683.51 L 466.69 682.02 L 464.11 680.49 L 461.52 678.98 L 458.93 677.47 L 456.35 675.94 L 453.78 674.38 L 451.23 672.81 L 448.67 671.24 L 446.12 669.66 L 443.55 668.12 L 440.98 666.57 L 438.41 665.03 L 435.86 663.45 L 433.30 661.88 L 430.76 660.28 L 428.22 658.69 L 425.69 657.08 L 423.16 655.47 L 420.62 653.87 L 418.07 652.28 L 415.54 650.67 L 413.01 649.06 L 410.48 647.45 L 407.95 645.84 L 405.43 644.21 L 402.91 642.58 L 400.38 640.96 L 397.85 639.35 L 395.32 637.74 L 392.79 636.13 L 390.27 634.51 L 387.74 632.89 L 385.23 631.24 L 382.71 629.61 L 380.20 627.98 L 377.67 626.36 L 375.15 624.73 L 372.63 623.10 L 370.12 621.46 L 367.60 619.84 L 365.08 618.21 L 362.56 616.58 L 360.04 614.95 L 357.51 613.34 L 354.96 611.76 L 352.39 610.21 L 349.83 608.66 L 347.24 607.13 L 344.67 605.59 L 342.09 604.06 L 339.51 602.53 L 336.93 600.99 L 334.35 599.46 L 331.78 597.92 L 329.23 596.33 L 326.67 594.76 L 324.12 593.20 L 321.57 591.61 L 319.02 590.03 L 316.46 588.47 L 313.90 586.90 L 311.36 585.31 L 308.81 583.72 L 306.26 582.15 L 303.70 580.58 L 301.13 579.03 L 298.58 577.46 L 296.01 575.90 L 293.44 574.36 L 290.86 572.83 L 288.27 571.31 L 285.69 569.78 L 283.11 568.24 L 280.52 566.73 L 277.94 565.21 L 275.35 563.70 L 272.75 562.19 L 270.15 560.70 L 267.56 559.18 L 264.98 557.65 L 262.41 556.11 L 259.83 554.58 L 257.25 553.05 L 254.69 551.48 L 252.12 549.93 L 249.55 548.38 L 246.98 546.83 L 244.42 545.28 L 241.85 543.72 L 239.28 542.18 L 236.71 540.63 L 234.12 539.11 L 231.52 537.61 L 228.94 536.10 L 226.34 534.59 L 223.75 533.07 L 221.16 531.56 L 218.57 530.06 L 215.97 528.56 L 213.38 527.04 L 210.78 525.54 L 208.19 524.04 L 205.59 522.54 L 202.99 521.04 L 200.40 519.52 L 197.81 518.01 L 195.23 516.48 L 192.65 514.95 L 190.06 513.44 L 187.48 511.91 L 184.89 510.38 L 182.30 508.88 L 179.70 507.38 L 177.10 505.88 L 174.50 504.39 L 171.89 502.91 L 169.28 501.43 L 166.68 499.94 L 164.05 498.48 L 161.44 497.01 L 158.82 495.54 L 156.21 494.07 L 153.59 492.60 L 150.97 491.15 L 148.35 489.68 L 145.74 488.20 L 143.14 486.71 L 140.53 485.22 L 137.92 483.75 L 135.30 482.28 L 132.67 480.84 L 130.06 479.37 L 127.46 477.87 L 124.87 476.36 L 122.28 474.85 L 119.68 473.34 L 117.08 471.84 L 114.48 470.34 L 111.87 468.87 L 109.26 467.39 L 106.64 465.93 L 104.01 464.49 L 101.38 463.04 L 98.75 461.61 L 96.11 460.18 L 93.47 458.74 L 90.85 457.29 L 88.24 455.82 L 85.61 454.37 L 82.98 452.91 L 80.37 451.45 L 77.75 449.98 L 75.13 448.52 L 72.53 447.02 L 69.94 445.52 L 67.36 443.99 L 64.78 442.45 L 62.21 440.90 L 59.65 439.34 L 57.08 437.79 L 54.49 436.27 L 51.90 434.77 L 49.30 433.27 L 46.70 431.77 L 44.10 430.27 L 41.52 428.75 L 38.92 427.25 L 36.31 425.77 L 33.70 424.29 L 31.11 422.77 L 28.53 421.24 L 25.95 419.71 L 23.36 418.19 L 20.78 416.67 L 18.20 415.14 L 15.63 413.59 L 13.04 412.08 L 10.46 410.55 L 7.87 409.03 L 5.27 407.53 L 2.69 406.00 L 0.12 404.45 L -2.42 402.86 L -4.96 401.25 L -7.48 399.63 L -10.04 398.06 L -12.61 396.51 L -15.17 394.96 L -17.73 393.39 L -20.30 391.85" stroke="rgb(245,245,245)" stroke-opacity="0.707" stroke-width="1.11" />
  <path d="M 1001.41 999.77 L 999.29 997.92 L 997.16 996.10 L 995.00 994.32 L 992.85 992.55 L 990.71 990.79 L 988.58 989.04 L 986.44 987.31 L 984.42 985.46 L 982.40 983.62 L 980.40 981.79 L 978.45 979.91 L 976.56 977.99 L 974.71 976.05 L 972.83 974.15 L 971.04 972.17 L 969.34 970.13 L 967.67 968.09 L 965.99 966.07 L 964.29 964.06 L 962.62 962.06 L 961.11 959.94 L 959.56 957.87 L 957.98 955.83 L 956.43 953.78 L 954.89 951.74 L 953.39 949.68 L 951.93 947.61 L 950.46 945.55" stroke="rgb(140,255,190)" stroke-opacity="0.529" stroke-width="1.11" />
  <path d="M 1002.38 1000.84 L 999.91 999.20 L 997.41 997.61 L 994.92 996.05 L 992.46 994.45 L 990.01 992.86 L 987.53 991.34 L 985.08 989.80 L 982.64 988.25 L 980.24 986.67 L 977.81 985.16 L 975.40 983.64 L 973.01 982.11 L 970.64 980.56 L 968.27 979.05" stroke="rgb(140,255,190)" stroke-opacity="0.529" stroke-width="1.11" />
  <path d="M 998.47 998.95 L 997.06 996.76 L 995.56 994.65 L 994.12 992.50 L 992.73 990.34 L 991.35 988.18 L 989.90 986.08 L 988.45 983.99 L 986.96 981.94 L 985.52 979.88 L 984.12 977.79 L 982.73 975.71 L 981.31 973.66 L 979.95 971.58 L 978.62 969.50 L 977.30 967.42 L 976.09 965.29 L 974.89 963.17 L 973.66 961.07 L 972.42 958.98 L 971.10 956.96 L 969.77 954.96 L 968.47 952.95 L 967.34 950.85 L 966.14 948.80 L 965.01 946.73 L 963.90 944.65 L 962.86 942.55 L 961.82 940.46 L 960.70 938.41 L 959.57 936.39 L 958.44 934.37 L 957.35 932.35 L 956.25 930.34 L 955.14 928.35 L 954.01 926.38 L 952.94 924.38 L 951.98 922.34 L 950.97 920.34 L 949.94 918.35 L 948.87 916.40 L 947.77 914.47 L 946.73 912.52 L 945.71 910.58 L 944.74 908.61 L 943.83 906.62 L 942.83 904.69 L 941.79 902.79" stroke="rgb(140,255,190)" stroke-opacity="0.528" stroke-width="1.10" />
  <path d="M 996.70 997.47 L 994.10 996.39 L 991.54 995.23 L 988.96 994.17 L 986.36 993.15 L 983.79 992.13 L 981.18 991.20 L 978.61 990.23 L 976.04 989.27 L 973.50 988.29 L 970.96 987.32 L 968.46 986.26 L 965.97 985.23 L 963.46 984.28 L 961.01 983.21 L 958.54 982.21 L 956.11 981.15 L 953.70 980.06" stroke="rgb(140,255,190)" stroke-opacity="0.526" stroke-width="1.10" />
  <path d="M 938.77 962.03 L 935.92 961.86 L 933.08 961.71 L 930.26 961.52 L 927.45 961.31 L 924.64 961.18 L 921.86 960.92 L 919.08 960.69 L 916.31 960.65 L 913.55 960.48 L 910.81 960.30 L 908.07 960.20 L 905.34 960.21 L 902.62 960.27 L 899.91 960.27 L 897.22 960.39 L 894.53 960.49 L 891.86 960.50 L 889.19 960.60 L 886.54 960.70 L 883.90 960.64" stroke="rgb(140,255,190)" stroke-opacity="0.523" stroke-width="1.09" />
  <path d="M 1001.18 1000.29 L 1001.79 1002.54 L 1002.45 1004.77 L 1003.12 1006.98 L 1003.79 1009.19 L 1004.50 1011.38 L 1005.37 1013.49 L 1006.30 1015.57 L 1007.32 1017.60 L 1008.34 1019.62 L 1009.50 1021.55 L 1010.69 1023.45 L 1011.93 1025.31 L 1013.20 1027.13 L 1014.35 1029.03 L 1015.47 1030.93 L 1016.51 1032.86 L 1017.50 1034.82 L 1018.45 1036.78 L 1019.43 1038.72 L 1020.35 1040.67 L 1021.29 1042.62 L 1022.05 1044.62 L 1022.80 1046.62 L 1023.50 1048.64 L 1024.30 1050.60 L 1025.14 1052.54 L 1026.01 1054.45 L 1026.88 1056.36 L 1027.75 1058.25 L 1028.63 1060.14 L 1029.52 1062.00 L 1030.50 1063.82 L 1031.41 1065.66 L 1032.36 1067.47 L 1033.17 1069.34 L 1034.04 1071.17 L 1034.79 1073.05 L 1035.62 1074.88 L 1036.48 1076.69 L 1037.26 1078.53 L 1038.04 1080.36 L 1038.79 1082.19" stroke="rgb(205,165,255)" stroke-opacity="0.456" stroke-width="1.06" />
  <path d="M 988.99 1056.54 L 989.69 1058.67 L 990.47 1060.77 L 991.33 1062.82 L 992.09 1064.91 L 993.05 1066.90 L 993.96 1068.90 L 995.11 1070.76 L 996.23 1072.64 L 997.31 1074.53 L 998.37 1076.41 L 999.43 1078.29" stroke="rgb(205,165,255)" stroke-opacity="0.451" stroke-width="1.04" />
  <path d="M 984.99 1082.97 L 984.88 1085.17 L 984.70 1087.36 L 984.61 1089.54 L 984.48 1091.71 L 984.40 1093.88 L 984.42 1096.04 L 984.52 1098.19 L 984.40 1100.33 L 984.40 1102.46 L 984.53 1104.58 L 984.61 1106.70 L 984.62 1108.81 L 984.71 1110.91 L 984.84 1113.00 L 984.91 1115.08 L 984.92 1117.15 L 984.90 1119.22 L 984.97 1121.28 L 984.96 1123.33 L 984.96 1125.37 L 984.87 1127.40 L 984.77 1129.42 L 984.65 1131.44 L 984.71 1133.45 L 984.77 1135.45 L 984.85 1137.44 L 984.78 1139.42 L 984.78 1141.40 L 984.59 1143.36 L 984.46 1145.32 L 984.32 1147.27 L 984.19 1149.21 L 984.06 1151.15 L 983.98 1153.07 L 983.93 1155.00 L 983.80 1156.91 L 983.63 1158.81 L 983.47 1160.70 L 983.33 1162.59 L 983.11 1164.46 L 982.89 1166.32 L 982.76 1168.19 L 982.57 1170.04 L 982.44 1171.89 L 982.32 1173.74 L 982.26 1175.58 L 982.24 1177.41 L 982.10 1179.23 L 981.97 1181.04 L 981.90 1182.85 L 981.81 1184.65 L 981.78 1186.45 L 981.90 1188.23 L 981.96 1190.01 L 981.98 1191.79 L 982.07 1193.55 L 982.20 1195.31 L 982.30 1197.06 L 982.46 1198.80 L 982.65 1200.53" stroke="rgb(205,165,255)" stroke-opacity="0.447" stroke-width="1.03" />
  <path d="M 1004.00 1001.20 L 1003.70 1002.68 L 1003.33 1004.12 L 1002.94 1005.56 L 1002.54 1006.98 L 1002.22 1008.42 L 1001.86 1009.85 L 1001.34 1011.22" stroke="rgb(230,230,230)" stroke-opacity="0.386" stroke-width="0.71" />
  <path d="M 1003.50 997.73 L 1002.57 998.91 L 1001.71 1000.13 L 1000.93 1001.40 L 999.96 1002.52 L 999.13 1003.74 L 998.28 1004.94 L 997.37 1006.09" stroke="rgb(230,230,230)" stroke-opacity="0.385" stroke-width="0.71" />
  <path d="M 1007.13 1004.56 L 1006.59 1003.16 L 1005.95 1001.81 L 1005.35 1000.45 L 1004.76 999.09" stroke="rgb(230,230,230)" stroke-opacity="0.381" stroke-width="0.70" />
  <path d="M 1003.12 998.56 L 1004.04 997.38 L 1005.05 996.28 L 1005.88 995.04 L 1006.66 993.78 L 1007.36 992.48 L 1007.77 991.07" stroke="rgb(230,230,230)" stroke-opacity="0.380" stroke-width="0.70" />
  <path d="M 1001.43 994.62 L 1000.50 993.44 L 999.66 992.20 L 998.83 990.97 L 998.03 989.72 L 997.28 988.45 L 996.49 987.21 L 995.65 986.01 L 994.77 984.85 L 994.01 983.61 L 993.29 982.36 L 992.70 981.04 L 992.16 979.71 L 991.77 978.34 L 991.50 976.94 L 991.22 975.55 L 990.90 974.17 L 990.50 972.83 L 989.89 971.56 L 989.31 970.29" stroke="rgb(230,230,230)" stroke-opacity="0.371" stroke-width="0.67" />
  <path d="M 1001.70 1004.00 L 1001.42 1005.47 L 1001.14 1006.94 L 1001.15 1008.43 L 1000.78 1009.86 L 1000.74 1011.34 L 1001.05 1012.77" stroke="rgb(230,230,230)" stroke-opacity="0.370" stroke-width="0.67" />
  <path d="M 997.36 1001.22 L 998.50 1000.25 L 999.58 999.22 L 1000.64 998.18 L 1001.65 997.09 L 1002.73 996.08 L 1003.76 995.03 L 1004.78 993.99 L 1005.81 992.95" stroke="rgb(230,230,230)" stroke-opacity="0.366" stroke-width="0.66" />
  <path d="M 996.64 998.45 L 995.38 997.65 L 994.21 996.72 L 992.96 995.90 L 991.57 995.41 L 990.12 995.12" stroke="rgb(230,230,230)" stroke-opacity="0.365" stroke-width="0.65" />
  <path d="M 996.76 999.88 L 997.27 1001.30 L 997.66 1002.74 L 998.35 1004.06 L 998.96 1005.41 L 999.28 1006.85" stroke="rgb(230,230,230)" stroke-opacity="0.364" stroke-width="0.65" />
  <path d="M 996.41 1001.72 L 995.97 1000.28 L 995.41 998.90 L 994.80 997.54 L 994.13 996.22 L 993.47 994.90 L 992.66 993.67 L 991.86 992.44 L 991.12 991.19 L 990.51 989.87 L 990.01 988.51 L 989.57 987.14" stroke="rgb(230,230,230)" stroke-opacity="0.363" stroke-width="0.65" />
  <path d="M 995.77 1005.73 L 994.91 1006.96 L 994.09 1008.21 L 993.10 1009.32 L 992.10 1010.41 L 991.06 1011.46 L 990.09 1012.57 L 989.18 1013.71 L 988.35 1014.91 L 987.41 1016.02 L 986.37 1017.02 L 985.25 1017.94" stroke="rgb(230,230,230)" stroke-opacity="0.363" stroke-width="0.65" />
  <path d="M 998.43 1003.96 L 999.75 1003.24 L 1001.01 1002.44 L 1002.23 1001.59 L 1003.47 1000.77 L 1004.77 1000.08 L 1006.11 999.48" stroke="rgb(230,230,230)" stroke-opacity="0.357" stroke-width="0.63" />
  <path d="M 992.93 1002.05 L 992.63 1000.58 L 992.00 999.23 L 991.52 997.82 L 991.20 996.37 L 990.95 994.92 L 990.76 993.46 L 990.60 992.00 L 990.73 990.55 L 990.75 989.10" stroke="rgb(230,230,230)" stroke-opacity="0.355" stroke-width="0.62" />
  <path d="M 997.98 1002.51 L 999.06 1003.55 L 1000.16 1004.56 L 1001.29 1005.53 L 1002.35 1006.56 L 1003.51 1007.47 L 1004.63 1008.43 L 1005.81 1009.30 L 1007.00 1010.14 L 1008.17 1011.01 L 1009.29 1011.92 L 1010.38 1012.87 L 1011.49 1013.78 L 1012.61 1014.66 L 1013.72 1015.55 L 1014.89 1016.36 L 1016.05 1017.16 L 1017.26 1017.89" stroke="rgb(230,230,230)" stroke-opacity="0.355" stroke-width="0.62" />
  <path d="M 999.68 993.62 L 998.83 994.85 L 997.93 996.05 L 997.23 997.36 L 996.54 998.67 L 995.92 1000.01 L 995.25 1001.32 L 994.55 1002.60 L 993.86 1003.89 L 993.06 1005.10 L 992.05 1006.13" stroke="rgb(230,230,230)" stroke-opacity="0.354" stroke-width="0.62" />
  <path d="M 1002.81 992.75 L 1001.32 992.87 L 999.84 993.07 L 998.41 993.50 L 997.00 993.97 L 995.61 994.45 L 994.23 994.95" stroke="rgb(230,230,230)" stroke-opacity="0.351" stroke-width="0.61" />
  <path d="M 1001.16 1004.41 L 1001.62 1002.98 L 1002.17 1001.59 L 1002.67 1000.19 L 1003.15 998.79 L 1003.44 997.34 L 1003.61 995.88" stroke="rgb(230,230,230)" stroke-opacity="0.351" stroke-width="0.61" />
  <path d="M 1006.47 1002.94 L 1007.75 1003.72 L 1009.00 1004.54 L 1010.30 1005.27 L 1011.63 1005.92 L 1012.93 1006.63 L 1014.19 1007.37 L 1015.45 1008.12" stroke="rgb(230,230,230)" stroke-opacity="0.349" stroke-width="0.61" />
</g>
</svg>
