<?xml version="1.0" encoding="UTF-8"?>
<svg xmlns="http://www.w3.org/2000/svg" width="2000" height="2000" viewBox="0 0 2000 2000">
<g fill="none" stroke-linecap="round" stroke-linejoin="round">
  <path d="M 998.65 999.32 L 999.41 996.16 L 1000.16 993.01 L 1000.84 989.86 L 1001.50 986.71 L 1002.16 983.58 L 1002.82 980.46 L 1003.48 977.36 L 1004.18 974.28 L 1004.90 971.21 L 1005.63 968.16 L 1006.38 965.13 L 1007.19 962.13" stroke="rgb(120,210,255)" stroke-opacity="0.855" stroke-width="1.64" />
  <path d="M 1011.70 885.18 L 1012.35 882.03 L 1013.00 878.88 L 1013.76 875.77 L 1014.50 872.67 L 1015.22 869.58 L 1015.94 866.49 L 1016.68 863.43 L 1017.33 860.36 L 1017.98 857.29 L 1018.65 854.25 L 1019.33 851.22 L 1019.99 848.19 L 1020.62 845.17 L 1021.23 842.17 L 1021.88 839.18 L 1022.42 836.18 L 1022.93 833.19 L 1023.42 830.21 L 1023.89 827.23 L 1024.37 824.27 L 1024.76 821.31 L 1025.09 818.35 L 1025.39 815.40 L 1025.70 812.47 L 1025.98 809.54 L 1026.27 806.62 L 1026.56 803.72 L 1026.86 800.83 L 1027.14 797.95 L 1027.41 795.08 L 1027.69 792.22 L 1027.96 789.38 L 1028.25 786.55 L 1028.56 783.73 L 1028.83 780.92 L 1029.13 778.12 L 1029.46 775.34 L 1029.83 772.57 L 1030.17 769.81 L 1030.52 767.07 L 1030.86 764.33 L 1031.21 761.60 L 1031.55 758.89 L 1031.89 756.19 L 1032.19 753.49 L 1032.56 750.81 L 1032.86 748.14 L 1033.19 745.47 L 1033.52 742.82 L 1033.95 740.20 L 1034.39 737.59 L 1034.75 734.98 L 1035.18 732.38 L 1035.61 729.80 L 1036.02 727.23 L 1036.41 724.66 L 1036.81 722.10 L 1037.18 719.55 L 1037.56 717.01 L 1038.00 714.50 L 1038.42 711.99 L 1038.81 709.48 L 1039.18 706.99 L 1039.63 704.51 L 1040.03 702.04 L 1040.46 699.58 L 1040.90 697.13 L 1041.35 694.70 L 1041.83 692.28 L 1042.26 689.87 L 1042.66 687.46 L 1043.07 685.06 L 1043.49 682.68 L 1043.91 680.30 L 1044.28 677.93 L 1044.64 675.58 L 1044.99 673.24 L 1045.34 670.91 L 1045.72 668.58 L 1046.11 666.27 L 1046.50 663.98 L 1046.95 661.71" stroke="rgb(120,210,255)" stroke-opacity="0.854" stroke-width="1.63" />
  <path d="M 994.44 995.20 L 995.19 991.82 L 995.94 988.44 L 996.63 985.07 L 997.29 981.70 L 997.93 978.35 L 998.56 975.01 L 999.19 971.68 L 999.81 968.36 L 1000.41 965.06 L 1001.00 961.76 L 1001.60 958.48 L 1002.17 955.21 L 1002.73 951.95 L 1003.27 948.70 L 1003.75 945.45 L 1004.21 942.21 L 1004.62 938.99 L 1005.00 935.77 L 1005.38 932.56 L 1005.78 929.37 L 1006.17 926.19 L 1006.55 923.02 L 1006.94 919.87 L 1007.34 916.73 L 1007.76 913.60 L 1008.15 910.49 L 1008.54 907.38 L 1008.89 904.29 L 1009.22 901.20 L 1009.54 898.13 L 1009.85 895.06 L 1010.15 892.01 L 1010.45 888.97 L 1010.80 885.95 L 1011.14 882.94 L 1011.51 879.95 L 1011.90 876.97 L 1012.29 874.00 L 1012.67 871.05 L 1013.11 868.11 L 1013.57 865.19 L 1014.00 862.27 L 1014.41 859.37 L 1014.82 856.48 L 1015.23 853.60 L 1015.60 850.72 L 1015.96 847.86 L 1016.33 845.00 L 1016.70 842.16 L 1017.07 839.33 L 1017.44 836.52 L 1017.80 833.71 L 1018.19 830.92 L 1018.56 828.13 L 1018.98 825.37 L 1019.32 822.61 L 1019.64 819.85" stroke="rgb(120,210,255)" stroke-opacity="0.851" stroke-width="1.63" />
  <path d="M 1004.22 952.65 L 1005.22 949.43 L 1006.23 946.22 L 1007.21 943.02 L 1008.19 939.83 L 1009.17 936.65 L 1010.18 933.50 L 1011.19 930.36 L 1012.19 927.23 L 1013.17 924.12 L 1014.14 921.01 L 1015.11 917.92 L 1016.09 914.84 L 1017.06 911.78 L 1018.03 908.72 L 1019.03 905.69 L 1019.99 902.66 L 1020.98 899.66 L 1021.97 896.67 L 1022.94 893.69 L 1023.94 890.74 L 1024.97 887.82 L 1025.95 884.89 L 1026.92 881.96 L 1027.88 879.05 L 1028.81 876.15 L 1029.74 873.25 L 1030.68 870.37 L 1031.66 867.52 L 1032.63 864.68 L 1033.59 861.84 L 1034.52 859.01 L 1035.44 856.19 L 1036.37 853.39 L 1037.23 850.58 L 1038.07 847.77 L 1038.98 845.01 L 1039.89 842.27 L 1040.79 839.52 L 1041.68 836.79 L 1042.58 834.06 L 1043.47 831.35 L 1044.35 828.64 L 1045.23 825.95 L 1046.11 823.27 L 1046.96 820.59 L 1047.81 817.92 L 1048.68 815.27 L 1049.53 812.62 L 1050.42 810.00 L 1051.25 807.36 L 1052.07 804.74 L 1052.87 802.11 L 1053.68 799.51 L 1054.48 796.91 L 1055.28 794.32 L 1056.02 791.72 L 1056.79 789.15 L 1057.52 786.57 L 1058.24 784.01 L 1058.95 781.45 L 1059.66 778.90 L 1060.36 776.36 L 1061.06 773.83 L 1061.72 771.30 L 1062.40 768.79 L 1063.08 766.28 L 1063.77 763.79 L 1064.44 761.30 L 1065.12 758.83 L 1065.80 756.36 L 1066.47 753.90 L 1067.15 751.45 L 1067.83 749.02 L 1068.48 746.58" stroke="rgb(120,210,255)" stroke-opacity="0.843" stroke-width="1.60" />
  <path d="M 997.95 998.73 L 998.67 995.44 L 999.37 992.16 L 1000.06 988.89 L 1000.69 985.62 L 1001.33 982.37 L 1002.00 979.14 L 1002.73 975.93 L 1003.44 972.74 L 1004.09 969.54 L 1004.73 966.35 L 1005.36 963.18 L 1005.98 960.02 L 1006.58 956.87 L 1007.21 953.73 L 1007.85 950.61 L 1008.48 947.51 L 1009.17 944.42 L 1009.84 941.35 L 1010.48 938.28 L 1011.09 935.22 L 1011.70 932.18 L 1012.27 929.13 L 1012.76 926.09 L 1013.24 923.06 L 1013.70 920.03 L 1014.29 917.04 L 1014.87 914.06 L 1015.42 911.10 L 1016.00 908.14 L 1016.54 905.20 L 1017.08 902.26 L 1017.62 899.34 L 1018.18 896.43 L 1018.76 893.54 L 1019.33 890.66 L 1019.90 887.79 L 1020.47 884.94 L 1021.04 882.09 L 1021.62 879.26 L 1022.22 876.44 L 1022.83 873.64 L 1023.44 870.85 L 1024.09 868.08 L 1024.79 865.33 L 1025.52 862.60 L 1026.24 859.89 L 1026.99 857.19 L 1027.77 854.51 L 1028.54 851.84 L 1029.30 849.18" stroke="rgb(120,210,255)" stroke-opacity="0.842" stroke-width="1.60" />
  <path d="M 997.13 995.90 L 997.67 993.12 L 998.22 990.37 L 998.68 987.60 L 999.15 984.85 L 999.58 982.11 L 1000.06 979.38 L 1000.47 976.66 L 1000.84 973.95 L 1001.22 971.25 L 1001.65 968.56 L 1002.11 965.88 L 1002.59 963.22 L 1003.08 960.57 L 1003.52 957.93 L 1003.86 955.28 L 1004.22 952.65 L 1004.60 950.03 L 1004.95 947.41 L 1005.31 944.81 L 1005.62 942.21 L 1005.91 939.62 L 1006.18 937.04 L 1006.48 934.47 L 1006.78 931.91 L 1007.07 929.36 L 1007.38 926.83 L 1007.74 924.31 L 1008.05 921.80 L 1008.33 919.29 L 1008.60 916.79 L 1008.85 914.30 L 1009.09 911.82 L 1009.26 909.34 L 1009.48 906.87 L 1009.71 904.42 L 1009.93 901.98 L 1010.10 899.54 L 1010.27 897.11 L 1010.52 894.70 L 1010.81 892.31 L 1011.11 889.93 L 1011.40 887.55 L 1011.70 885.18 L 1012.07 882.84 L 1012.43 880.50 L 1012.73 878.16 L 1013.01 875.84 L 1013.22 873.52 L 1013.40 871.20 L 1013.51 868.88 L 1013.63 866.58 L 1013.77 864.28" stroke="rgb(120,210,255)" stroke-opacity="0.455" stroke-width="1.56" />
  <path d="M 999.89 1004.46 L 1000.52 1001.85 L 1001.14 999.26 L 1001.82 996.69 L 1002.44 994.11 L 1003.11 991.56 L 1003.87 989.05 L 1004.72 986.57 L 1005.57 984.12 L 1006.41 981.67 L 1007.32 979.25 L 1008.24 976.85 L 1009.16 974.45 L 1010.03 972.06 L 1010.98 969.70 L 1011.86 967.32 L 1012.77 964.99 L 1013.64 962.64 L 1014.52 960.31 L 1015.39 957.99 L 1016.19 955.64 L 1016.99 953.31 L 1017.76 950.98 L 1018.64 948.71 L 1019.56 946.46 L 1020.46 944.21 L 1021.32 941.95 L 1022.08 939.67 L 1022.85 937.40 L 1023.61 935.14 L 1024.27 932.87 L 1024.94 930.61 L 1025.61 928.37 L 1026.28 926.13 L 1026.86 923.87 L 1027.31 921.59 L 1027.75 919.31 L 1028.09 917.03 L 1028.50 914.77" stroke="rgb(120,210,255)" stroke-opacity="0.455" stroke-width="1.55" />
  <path d="M 998.97 1002.89 L 999.59 1000.24 L 1000.18 997.58 L 1000.81 994.96 L 1001.44 992.34 L 1002.08 989.74 L 1002.77 987.15 L 1003.50 984.59 L 1004.27 982.06 L 1005.03 979.53 L 1005.82 977.02 L 1006.60 974.52 L 1007.32 972.01 L 1008.01 969.50 L 1008.71 967.01 L 1009.44 964.53 L 1010.15 962.07 L 1010.88 959.61 L 1011.61 957.17 L 1012.33 954.74 L 1013.04 952.31 L 1013.74 949.89 L 1014.43 947.48 L 1015.12 945.08" stroke="rgb(120,210,255)" stroke-opacity="0.451" stroke-width="1.53" />
  <path d="M 1035.47 890.66 L 1035.51 888.72 L 1035.57 886.80 L 1035.66 884.85 L 1035.72 882.89 L 1035.78 880.92 L 1035.89 878.97 L 1035.85 877.01 L 1035.81 875.04 L 1035.73 873.12 L 1035.58 871.20 L 1035.37 869.26 L 1035.24 867.33 L 1035.15 865.43 L 1035.06 863.54 L 1034.97 861.67 L 1034.92 859.88 L 1034.81 858.14 L 1034.75 856.39 L 1034.70 854.65 L 1034.65 852.91 L 1034.44 851.22 L 1034.17 849.56 L 1033.86 847.91 L 1033.52 846.25 L 1033.16 844.60 L 1032.94 842.92 L 1032.72 841.23 L 1032.53 839.54 L 1032.40 837.83 L 1032.18 836.06 L 1032.02 834.30 L 1031.98 832.58 L 1031.95 830.83 L 1031.93 829.10 L 1031.77 827.37 L 1031.52 825.64 L 1031.37 823.92" stroke="rgb(140,255,190)" stroke-opacity="0.589" stroke-width="1.31" />
  <path d="M 998.30 999.13 L 1000.94 1001.06 L 1003.57 1002.99 L 1006.19 1004.88 L 1008.81 1006.76 L 1011.44 1008.62 L 1014.04 1010.50 L 1016.63 1012.37 L 1019.21 1014.23 L 1021.79 1016.07 L 1024.36 1017.90 L 1026.92 1019.73 L 1029.46 1021.57 L 1031.99 1023.41 L 1034.55 1025.22 L 1037.11 1027.02 L 1039.64 1028.82 L 1042.15 1030.63 L 1044.65 1032.43 L 1047.14 1034.23 L 1049.61 1036.04 L 1052.07 1037.83" stroke="rgb(205,165,255)" stroke-opacity="0.723" stroke-width="1.25" />
  <path d="M 999.02 1000.07 L 1000.03 1003.33 L 1001.01 1006.58 L 1001.97 1009.83 L 1002.92 1013.07 L 1003.89 1016.29 L 1004.85 1019.50 L 1005.82 1022.69 L 1006.77 1025.88 L 1007.68 1029.06 L 1008.58 1032.23 L 1009.48 1035.39 L 1010.43 1038.51 L 1011.38 1041.62 L 1012.29 1044.73 L 1013.22 1047.82 L 1014.14 1050.90 L 1015.01 1053.98 L 1015.87 1057.05 L 1016.71 1060.10 L 1017.55 1063.14 L 1018.40 1066.17 L 1019.25 1069.18 L 1020.09 1072.18 L 1020.92 1075.17 L 1021.73 1078.15 L 1022.57 1081.11 L 1023.43 1084.06 L 1024.28 1086.99 L 1025.12 1089.91 L 1025.98 1092.81 L 1026.84 1095.71 L 1027.68 1098.59 L 1028.46 1101.48 L 1029.21 1104.36 L 1029.96 1107.24 L 1030.72 1110.09 L 1031.46 1112.94 L 1032.18 1115.79 L 1032.90 1118.63 L 1033.62 1121.46 L 1034.34 1124.27 L 1035.05 1127.07 L 1035.75 1129.86 L 1036.49 1132.64 L 1037.18 1135.41 L 1037.87 1138.16 L 1038.56 1140.91 L 1039.25 1143.64 L 1039.94 1146.36 L 1040.66 1149.06 L 1041.34 1151.76 L 1042.03 1154.44 L 1042.71 1157.12 L 1043.40 1159.77 L 1044.05 1162.43 L 1044.69 1165.08 L 1045.31 1167.71 L 1045.91 1170.34 L 1046.47 1172.96 L 1047.07 1175.57 L 1047.67 1178.17 L 1048.21 1180.76 L 1048.75 1183.35" stroke="rgb(205,165,255)" stroke-opacity="0.720" stroke-width="1.24" />
  <path d="M 999.52 1000.75 L 1000.24 997.41 L 1000.89 994.06 L 1001.51 990.73 L 1002.11 987.41 L 1002.71 984.10 L 1003.26 980.80 L 1003.81 977.51 L 1004.32 974.24 L 1004.79 970.97 L 1005.26 967.71 L 1005.79 964.48 L 1006.31 961.25 L 1006.83 958.04 L 1007.37 954.84 L 1007.92 951.66 L 1008.45 948.48 L 1008.98 945.32 L 1009.50 942.17 L 1010.02 939.03 L 1010.53 935.91 L 1010.95 932.79 L 1011.37 929.68 L 1011.77 926.58 L 1012.18 923.49 L 1012.61 920.43 L 1013.02 917.37 L 1013.41 914.32 L 1013.80 911.28 L 1014.18 908.26 L 1014.53 905.25 L 1014.86 902.25 L 1015.19 899.26" stroke="rgb(205,165,255)" stroke-opacity="0.715" stroke-width="1.23" />
  <path d="M 998.77 999.82 L 999.79 996.78 L 1000.79 993.74 L 1001.83 990.73 L 1002.87 987.73 L 1003.90 984.74 L 1004.92 981.78 L 1005.92 978.82 L 1006.94 975.87 L 1007.98 972.95 L 1009.01 970.05 L 1009.99 967.14 L 1010.97 964.24 L 1011.97 961.37 L 1012.96 958.50 L 1013.90 955.64 L 1014.81 952.80 L 1015.76 949.98 L 1016.73 947.19 L 1017.64 944.38 L 1018.59 941.59 L 1019.61 938.83 L 1020.63 936.08 L 1021.64 933.34 L 1022.68 930.62 L 1023.73 927.92 L 1024.78 925.21 L 1025.82 922.51 L 1026.91 919.84 L 1028.03 917.19 L 1029.14 914.54 L 1030.24 911.91 L 1031.37 909.29 L 1032.49 906.68 L 1033.61 904.08 L 1034.74 901.50 L 1035.86 898.93 L 1036.96 896.36 L 1038.06 893.80 L 1039.17 891.26 L 1040.23 888.72 L 1041.34 886.20 L 1042.39 883.66 L 1043.47 881.15 L 1044.55 878.64 L 1045.65 876.17 L 1046.76 873.70 L 1047.87 871.25 L 1048.98 868.82 L 1050.09 866.39 L 1051.20 863.97 L 1052.34 861.58 L 1053.39 859.15 L 1054.47 856.75 L 1055.56 854.36 L 1056.65 851.98 L 1057.78 849.63 L 1058.90 847.29 L 1059.99 844.94 L 1061.05 842.59 L 1062.11 840.26 L 1063.20 837.96 L 1064.31 835.68 L 1065.42 833.41 L 1066.53 831.15 L 1067.64 828.90 L 1068.76 826.67 L 1069.91 824.45" stroke="rgb(205,165,255)" stroke-opacity="0.708" stroke-width="1.21" />
  <path d="M 1000.27 998.16 L 1001.21 994.87 L 1002.11 991.59 L 1002.99 988.32 L 1003.84 985.06 L 1004.68 981.82 L 1005.52 978.59 L 1006.38 975.39 L 1007.28 972.21 L 1008.16 969.04 L 1009.01 965.87 L 1009.86 962.71 L 1010.74 959.57 L 1011.56 956.42 L 1012.36 953.28 L 1013.13 950.14 L 1013.89 947.02 L 1014.63 943.90 L 1015.38 940.79 L 1016.12 937.69 L 1016.90 934.62 L 1017.68 931.55 L 1018.45 928.50 L 1019.25 925.48 L 1020.04 922.46 L 1020.86 919.46 L 1021.68 916.48 L 1022.54 913.51 L 1023.37 910.55 L 1024.20 907.60 L 1025.01 904.66 L 1025.85 901.74 L 1026.70 898.83 L 1027.51 895.93" stroke="rgb(140,255,190)" stroke-opacity="0.743" stroke-width="1.20" />
  <path d="M 1125.38 805.24 L 1128.40 803.70 L 1131.39 802.17 L 1134.37 800.64 L 1137.34 799.11 L 1140.28 797.54 L 1143.20 795.98 L 1146.11 794.44 L 1149.00 792.92 L 1151.88 791.40 L 1154.74 789.90 L 1157.57 788.40 L 1160.37 786.91 L 1163.20 785.46 L 1166.03 784.06 L 1168.84 782.66 L 1171.62 781.24" stroke="rgb(140,255,190)" stroke-opacity="0.742" stroke-width="1.20" />
  <path d="M 998.49 994.77 L 999.09 991.39 L 999.69 988.03 L 1000.29 984.68 L 1000.88 981.34 L 1001.48 978.01 L 1002.09 974.71 L 1002.73 971.42 L 1003.38 968.15 L 1004.03 964.89 L 1004.66 961.64 L 1005.30 958.41 L 1005.94 955.19 L 1006.60 951.99 L 1007.26 948.80 L 1007.87 945.62 L 1008.46 942.44 L 1009.08 939.29 L 1009.69 936.15 L 1010.26 933.02 L 1010.79 929.89 L 1011.31 926.77 L 1011.82 923.67 L 1012.32 920.58 L 1012.80 917.50 L 1013.29 914.44 L 1013.75 911.38 L 1014.22 908.34 L 1014.67 905.31 L 1015.14 902.31 L 1015.61 899.31 L 1016.07 896.33 L 1016.50 893.36 L 1016.92 890.40 L 1017.33 887.46 L 1017.69 884.52 L 1018.02 881.60 L 1018.36 878.68 L 1018.67 875.77 L 1018.94 872.86 L 1019.23 869.96 L 1019.51 867.07 L 1019.80 864.19 L 1020.06 861.33 L 1020.31 858.47 L 1020.53 855.62 L 1020.77 852.79 L 1021.01 849.97 L 1021.26 847.16 L 1021.56 844.36 L 1021.85 841.57 L 1022.08 838.79 L 1022.30 836.02 L 1022.59 833.27 L 1022.87 830.53 L 1023.14 827.80 L 1023.44 825.08 L 1023.73 822.37 L 1024.05 819.68 L 1024.35 817.00 L 1024.65 814.33 L 1024.95 811.67 L 1025.27 809.02" stroke="rgb(140,255,190)" stroke-opacity="0.738" stroke-width="1.19" />
  <path d="M 1001.46 957.77 L 1002.67 954.54 L 1003.90 951.34 L 1005.06 948.13 L 1006.22 944.95 L 1007.39 941.77 L 1008.58 938.62 L 1009.78 935.49 L 1010.92 932.35 L 1012.06 929.22 L 1013.20 926.10 L 1014.32 923.00 L 1015.46 919.91 L 1016.63 916.84 L 1017.81 913.79 L 1018.97 910.75 L 1020.20 907.75 L 1021.39 904.75 L 1022.61 901.77 L 1023.83 898.81 L 1025.04 895.86 L 1026.22 892.91 L 1027.40 889.97 L 1028.58 887.05 L 1029.73 884.13 L 1030.89 881.23 L 1032.04 878.33 L 1033.18 875.45 L 1034.28 872.57 L 1035.39 869.71 L 1036.54 866.87 L 1037.70 864.06 L 1038.85 861.25 L 1039.94 858.44 L 1041.03 855.63 L 1042.19 852.86 L 1043.30 850.09 L 1044.42 847.33 L 1045.54 844.58 L 1046.66 841.85 L 1047.79 839.13 L 1048.88 836.41 L 1049.99 833.71 L 1051.09 831.03 L 1052.19 828.35 L 1053.30 825.69 L 1054.39 823.04 L 1055.49 820.40 L 1056.58 817.78 L 1057.70 815.17 L 1058.77 812.55 L 1059.84 809.95 L 1060.92 807.36 L 1062.05 804.81 L 1063.18 802.27 L 1064.29 799.73 L 1065.36 797.19 L 1066.43 794.66 L 1067.52 792.15 L 1068.60 789.64 L 1069.66 787.14 L 1070.74 784.66" stroke="rgb(140,255,190)" stroke-opacity="0.737" stroke-width="1.19" />
  <path d="M 1022.82 926.37 L 1022.71 922.97 L 1022.60 919.59 L 1022.52 916.22 L 1022.50 912.86 L 1022.44 909.52 L 1022.38 906.19 L 1022.33 902.88 L 1022.30 899.58 L 1022.25 896.29 L 1022.24 893.01 L 1022.23 889.75 L 1022.19 886.50 L 1022.15 883.26 L 1022.08 880.03 L 1022.02 876.82 L 1021.96 873.62 L 1021.93 870.43 L 1021.89 867.26 L 1021.86 864.09 L 1021.81 860.95 L 1021.83 857.81 L 1021.79 854.68 L 1021.72 851.57 L 1021.65 848.47 L 1021.54 845.38 L 1021.43 842.31 L 1021.30 839.25 L 1021.18 836.20" stroke="rgb(140,255,190)" stroke-opacity="0.737" stroke-width="1.19" />
  <path d="M 998.53 1000.99 L 999.20 997.60 L 999.87 994.23 L 1000.55 990.87 L 1001.19 987.52 L 1001.79 984.17 L 1002.38 980.84 L 1002.96 977.52 L 1003.55 974.21 L 1004.14 970.92 L 1004.70 967.64 L 1005.26 964.36 L 1005.84 961.11 L 1006.39 957.86 L 1006.90 954.62 L 1007.41 951.40 L 1007.90 948.18 L 1008.40 944.98 L 1008.87 941.79 L 1009.35 938.62 L 1009.83 935.45 L 1010.36 932.31 L 1010.87 929.18 L 1011.39 926.06 L 1011.88 922.95 L 1012.36 919.86 L 1012.86 916.78 L 1013.35 913.71 L 1013.82 910.65 L 1014.29 907.61 L 1014.78 904.58 L 1015.26 901.56 L 1015.70 898.55 L 1016.11 895.54 L 1016.53 892.54 L 1016.91 889.56 L 1017.28 886.59 L 1017.58 883.62 L 1017.87 880.66 L 1018.14 877.72 L 1018.42 874.78 L 1018.66 871.86 L 1018.88 868.95 L 1019.11 866.04 L 1019.31 863.15 L 1019.50 860.26 L 1019.69 857.39 L 1019.87 854.53 L 1020.03 851.67 L 1020.17 848.83 L 1020.32 846.01 L 1020.50 843.19 L 1020.68 840.38 L 1020.88 837.59 L 1021.07 834.81 L 1021.28 832.04 L 1021.47 829.28 L 1021.68 826.53 L 1021.89 823.80 L 1022.10 821.08 L 1022.31 818.37 L 1022.53 815.68 L 1022.79 813.00 L 1023.04 810.33 L 1023.28 807.67 L 1023.52 805.03 L 1023.70 802.39 L 1023.87 799.76 L 1024.05 797.15 L 1024.20 794.55 L 1024.35 791.95" stroke="rgb(140,255,190)" stroke-opacity="0.735" stroke-width="1.18" />
  <path d="M 1028.36 895.05 L 1028.21 891.71 L 1028.07 888.38 L 1027.93 885.07 L 1027.78 881.77 L 1027.62 878.47 L 1027.47 875.19 L 1027.33 871.92 L 1027.19 868.65 L 1027.10 865.41 L 1026.94 862.17 L 1026.76 858.95 L 1026.59 855.75 L 1026.47 852.55 L 1026.28 849.37 L 1026.09 846.20 L 1025.89 843.05 L 1025.68 839.91 L 1025.48 836.78 L 1025.32 833.68 L 1025.21 830.60 L 1025.08 827.52 L 1024.97 824.46 L 1024.83 821.41 L 1024.68 818.38 L 1024.50 815.33 L 1024.34 812.30 L 1024.13 809.26 L 1023.95 806.25 L 1023.74 803.25 L 1023.57 800.27 L 1023.40 797.31 L 1023.20 794.36 L 1022.99 791.42 L 1022.71 788.50 L 1022.44 785.60 L 1022.19 782.70 L 1021.96 779.81 L 1021.70 776.94 L 1021.45 774.08 L 1021.19 771.23 L 1020.95 768.39 L 1020.75 765.56 L 1020.56 762.74 L 1020.41 759.92 L 1020.24 757.11 L 1020.07 754.32 L 1019.87 751.55 L 1019.68 748.79 L 1019.47 746.06 L 1019.23 743.34 L 1018.99 740.63 L 1018.76 737.94 L 1018.55 735.25 L 1018.29 732.57 L 1018.00 729.89 L 1017.74 727.23 L 1017.48 724.58 L 1017.24 721.96 L 1016.98 719.35 L 1016.77 716.74 L 1016.59 714.14 L 1016.41 711.54 L 1016.25 708.95 L 1016.07 706.38 L 1015.88 703.83 L 1015.68 701.28 L 1015.52 698.73 L 1015.36 696.20 L 1015.22 693.66 L 1015.07 691.12 L 1014.92 688.59 L 1014.77 686.07 L 1014.61 683.56 L 1014.47 681.07 L 1014.32 678.58 L 1014.16 676.11 L 1014.05 673.64 L 1013.90 671.18 L 1013.71 668.75 L 1013.54 666.31 L 1013.37 663.89 L 1013.20 661.48 L 1013.06 659.08" stroke="rgb(140,255,190)" stroke-opacity="0.735" stroke-width="1.18" />
  <path d="M 1006.75 952.46 L 1008.64 949.89 L 1010.54 947.32 L 1012.43 944.76 L 1014.23 942.18 L 1016.05 939.63 L 1017.87 937.09 L 1019.72 934.58 L 1021.56 932.09 L 1023.34 929.57 L 1025.11 927.07 L 1026.90 924.61 L 1028.69 922.15 L 1030.47 919.71 L 1032.23 917.27 L 1034.03 914.86 L 1035.82 912.48 L 1037.59 910.10 L 1039.33 907.75 L 1041.06 905.40 L 1042.76 903.02 L 1044.53 900.70 L 1046.29 898.36 L 1048.03 896.04 L 1049.74 893.70 L 1051.44 891.38 L 1053.13 889.06 L 1054.79 886.75 L 1056.45 884.44 L 1058.07 882.13 L 1059.71 879.86 L 1061.32 877.62 L 1062.95 875.37 L 1064.60 873.14 L 1066.20 870.86 L 1067.85 868.65 L 1069.51 866.44 L 1071.16 864.23 L 1072.80 862.07 L 1074.45 859.92 L 1076.04 857.78 L 1077.66 855.66 L 1079.27 853.55 L 1080.88 851.45 L 1082.48 849.33 L 1084.06 847.21 L 1085.62 845.15 L 1087.26 843.16 L 1088.89 841.19 L 1090.54 839.25 L 1092.19 837.31 L 1093.84 835.35 L 1095.47 833.40 L 1097.10 831.46 L 1098.74 829.55 L 1100.40 827.66 L 1102.06 825.79 L 1103.75 823.95 L 1105.43 822.08 L 1107.09 820.21 L 1108.73 818.34 L 1110.37 816.48 L 1112.00 814.62 L 1113.65 812.78 L 1115.28 810.95 L 1116.94 809.13 L 1118.58 807.30 L 1120.17 805.44 L 1121.77 803.58 L 1123.39 801.76 L 1125.05 799.96 L 1126.71 798.19 L 1128.35 796.41 L 1130.01 794.66 L 1131.66 792.93 L 1133.30 791.21 L 1134.95 789.50 L 1136.59 787.80 L 1138.27 786.17 L 1139.94 784.56 L 1141.61 782.96 L 1143.28 781.36 L 1144.93 779.77" stroke="rgb(140,255,190)" stroke-opacity="0.734" stroke-width="1.18" />
  <path d="M 997.63 997.29 L 998.77 994.21 L 999.90 991.15 L 1001.04 988.10 L 1002.16 985.06 L 1003.32 982.03 L 1004.46 979.02 L 1005.64 976.04 L 1006.85 973.07 L 1008.04 970.12 L 1009.24 967.19 L 1010.41 964.27 L 1011.58 961.35 L 1012.74 958.46 L 1013.86 955.55 L 1014.99 952.65 L 1016.13 949.77 L 1017.28 946.90 L 1018.43 944.05 L 1019.59 941.20" stroke="rgb(140,255,190)" stroke-opacity="0.732" stroke-width="1.17" />
  <path d="M 1032.06 850.76 L 1033.34 847.66 L 1034.61 844.58 L 1035.88 841.50 L 1037.13 838.43 L 1038.36 835.37 L 1039.57 832.32 L 1040.80 829.30 L 1042.07 826.31 L 1043.35 823.34 L 1044.61 820.36 L 1045.85 817.39 L 1047.07 814.42 L 1048.32 811.49 L 1049.63 808.58 L 1050.92 805.69 L 1052.21 802.80 L 1053.52 799.93 L 1054.81 797.06 L 1056.15 794.23 L 1057.48 791.41 L 1058.80 788.61 L 1060.11 785.81 L 1061.45 783.05 L 1062.77 780.29 L 1064.08 777.54 L 1065.37 774.79 L 1066.65 772.05 L 1067.90 769.32 L 1069.19 766.62 L 1070.48 763.93 L 1071.78 761.27 L 1073.10 758.63 L 1074.47 756.03 L 1075.82 753.42 L 1077.15 750.82 L 1078.42 748.21 L 1079.70 745.62" stroke="rgb(140,255,190)" stroke-opacity="0.731" stroke-width="1.17" />
  <path d="M 998.91 998.37 L 1000.06 995.27 L 1001.24 992.19 L 1002.41 989.12 L 1003.57 986.06 L 1004.77 983.03 L 1006.00 980.03 L 1007.23 977.03 L 1008.48 974.07 L 1009.79 971.14 L 1011.17 968.25 L 1012.54 965.37 L 1013.93 962.53 L 1015.29 959.68 L 1016.67 956.85 L 1018.03 954.03 L 1019.39 951.22 L 1020.69 948.40 L 1021.95 945.58 L 1023.19 942.76 L 1024.43 939.95 L 1025.68 937.16 L 1026.93 934.38 L 1028.16 931.61 L 1029.40 928.85 L 1030.70 926.14 L 1032.01 923.44 L 1033.31 920.76 L 1034.58 918.07 L 1035.86 915.40 L 1037.12 912.73 L 1038.39 910.08 L 1039.68 907.45 L 1040.97 904.83 L 1042.23 902.22" stroke="rgb(140,255,190)" stroke-opacity="0.731" stroke-width="1.17" />
  <path d="M 996.11 997.54 L 996.56 994.15 L 997.03 990.78 L 997.48 987.41 L 997.93 984.07 L 998.37 980.73 L 998.81 977.41 L 999.25 974.10 L 999.68 970.80 L 1000.09 967.52 L 1000.52 964.25 L 1000.96 961.00 L 1001.46 957.77 L 1001.96 954.55 L 1002.44 951.34 L 1002.92 948.14 L 1003.42 944.96 L 1003.88 941.79 L 1004.33 938.63 L 1004.79 935.48 L 1005.27 932.35 L 1005.75 929.23 L 1006.20 926.12 L 1006.66 923.03 L 1007.11 919.94 L 1007.58 916.87 L 1008.05 913.82 L 1008.51 910.77 L 1009.00 907.74 L 1009.48 904.73 L 1009.95 901.72 L 1010.43 898.72 L 1010.90 895.74 L 1011.37 892.77 L 1011.84 889.81 L 1012.29 886.86 L 1012.73 883.92 L 1013.19 881.00 L 1013.60 878.08 L 1013.99 875.17 L 1014.39 872.27 L 1014.77 869.38 L 1015.14 866.50 L 1015.51 863.64 L 1015.87 860.78 L 1016.25 857.94 L 1016.64 855.11 L 1017.01 852.29 L 1017.36 849.48 L 1017.68 846.68 L 1018.05 843.89 L 1018.39 841.11 L 1018.75 838.35 L 1019.13 835.60 L 1019.51 832.86 L 1019.89 830.13 L 1020.27 827.41 L 1020.65 824.71 L 1021.05 822.02 L 1021.46 819.34 L 1021.86 816.67 L 1022.27 814.02 L 1022.68 811.37 L 1023.05 808.74 L 1023.41 806.10 L 1023.74 803.48 L 1024.09 800.87 L 1024.47 798.27 L 1024.80 795.68 L 1025.08 793.09 L 1025.32 790.50" stroke="rgb(140,255,190)" stroke-opacity="0.731" stroke-width="1.17" />
  <path d="M 1006.08 915.09 L 1006.83 912.25 L 1007.59 909.42 L 1008.36 906.63 L 1009.08 903.80 L 1009.73 900.93 L 1010.35 898.10 L 1010.96 895.28 L 1011.61 892.48 L 1012.28 889.70 L 1013.00 886.97 L 1013.71 884.35 L 1014.40 881.71 L 1015.08 879.09 L 1015.68 876.40 L 1016.24 873.74 L 1016.80 871.09 L 1017.35 868.46 L 1017.89 865.80 L 1018.40 863.16 L 1018.89 860.50 L 1019.36 857.89 L 1019.86 855.32 L 1020.40 852.77 L 1020.91 850.24 L 1021.46 847.69 L 1022.00 845.17 L 1022.51 842.65 L 1023.01 840.12 L 1023.54 837.60 L 1024.06 835.09 L 1024.50 832.58 L 1024.93 830.07 L 1025.27 827.56 L 1025.59 825.05 L 1025.88 822.53 L 1026.20 820.00 L 1026.51 817.50 L 1026.81 815.04 L 1027.01 812.57 L 1027.22 810.13 L 1027.46 807.73 L 1027.69 805.34 L 1027.96 802.97 L 1028.23 800.61 L 1028.49 798.25 L 1028.74 795.89 L 1028.99 793.54 L 1029.22 791.19 L 1029.42 788.88 L 1029.63 786.58 L 1029.82 784.29 L 1029.97 782.03 L 1030.10 779.78 L 1030.17 777.53 L 1030.26 775.29 L 1030.37 773.08 L 1030.48 770.90 L 1030.59 768.72 L 1030.77 766.56 L 1031.00 764.41 L 1031.18 762.24" stroke="rgb(140,255,190)" stroke-opacity="0.730" stroke-width="1.17" />
  <path d="M 1024.46 887.62 L 1024.98 884.71 L 1025.50 881.82 L 1026.06 878.92 L 1026.58 876.06 L 1027.06 873.13 L 1027.55 870.24 L 1028.05 867.37 L 1028.70 864.57 L 1029.37 861.77 L 1030.03 859.02 L 1030.68 856.25 L 1031.37 853.50 L 1032.06 850.76 L 1032.74 848.05 L 1033.43 845.34 L 1034.12 842.64 L 1034.83 840.01 L 1035.53 837.39 L 1036.18 834.76 L 1036.73 832.19 L 1037.22 829.61 L 1037.70 827.06 L 1038.16 824.54 L 1038.61 822.05 L 1039.06 819.58 L 1039.48 817.12 L 1039.95 814.67 L 1040.42 812.23 L 1040.89 809.80 L 1041.33 807.40 L 1041.84 805.07 L 1042.32 802.76 L 1042.87 800.45 L 1043.46 798.15 L 1044.09 795.92 L 1044.72 793.69 L 1045.38 791.49 L 1046.02 789.30 L 1046.68 787.13 L 1047.34 784.96" stroke="rgb(140,255,190)" stroke-opacity="0.729" stroke-width="1.17" />
  <path d="M 999.84 999.85 L 1000.47 996.51 L 1001.11 993.19 L 1001.77 989.89 L 1002.44 986.60 L 1003.15 983.34 L 1003.83 980.09 L 1004.51 976.85 L 1005.19 973.62 L 1005.85 970.40 L 1006.51 967.20 L 1007.16 964.02 L 1007.82 960.84 L 1008.46 957.68 L 1009.11 954.53 L 1009.71 951.39 L 1010.33 948.26 L 1010.92 945.14 L 1011.52 942.03 L 1012.12 938.94 L 1012.73 935.86 L 1013.37 932.79 L 1013.97 929.74 L 1014.54 926.69 L 1015.11 923.66 L 1015.68 920.63 L 1016.26 917.63 L 1016.83 914.63 L 1017.41 911.65 L 1018.04 908.69 L 1018.66 905.74 L 1019.28 902.79 L 1019.86 899.86 L 1020.49 896.94 L 1021.07 894.02 L 1021.67 891.12 L 1022.26 888.23 L 1022.86 885.35 L 1023.43 882.48 L 1023.98 879.62 L 1024.56 876.78 L 1025.14 873.95" stroke="rgb(140,255,190)" stroke-opacity="0.728" stroke-width="1.16" />
  <path d="M 1016.96 917.77 L 1018.14 915.15 L 1019.36 912.57 L 1020.59 910.01 L 1021.77 907.47 L 1022.93 904.94 L 1024.05 902.38 L 1025.18 899.84 L 1026.10 897.21 L 1026.98 894.57 L 1027.84 891.96 L 1028.71 889.38 L 1029.64 886.83 L 1030.59 884.33 L 1031.53 881.84 L 1032.49 879.35 L 1033.46 876.91 L 1034.44 874.45 L 1035.41 872.00 L 1036.36 869.55 L 1037.19 867.10 L 1037.98 864.66 L 1038.80 862.26 L 1039.63 859.86 L 1040.42 857.52 L 1041.22 855.18 L 1042.01 852.84 L 1042.82 850.51 L 1043.59 848.16 L 1044.37 845.82 L 1045.14 843.52 L 1045.82 841.16 L 1046.51 838.82 L 1047.14 836.48 L 1047.81 834.12 L 1048.46 831.78 L 1049.12 829.43 L 1049.78 827.12 L 1050.42 824.81 L 1051.08 822.54 L 1051.75 820.27 L 1052.39 818.05 L 1053.01 815.84 L 1053.63 813.61 L 1054.31 811.45 L 1054.97 809.28 L 1055.62 807.11 L 1056.27 804.95 L 1056.88 802.83 L 1057.44 800.70 L 1057.99 798.57 L 1058.49 796.47 L 1058.99 794.37 L 1059.46 792.27 L 1059.92 790.14 L 1060.38 788.03 L 1060.87 785.93 L 1061.40 783.82" stroke="rgb(140,255,190)" stroke-opacity="0.724" stroke-width="1.16" />
  <path d="M 1040.14 872.66 L 1040.76 870.41 L 1041.23 868.15 L 1041.85 865.96 L 1042.44 863.75 L 1042.91 861.52 L 1043.49 859.33 L 1044.16 857.17 L 1044.81 855.01 L 1045.57 852.93 L 1046.35 850.88 L 1047.06 848.81 L 1047.79 846.79 L 1048.48 844.76 L 1049.10 842.72 L 1049.91 840.74 L 1050.62 838.76 L 1051.32 836.79 L 1052.04 834.82 L 1052.88 832.88 L 1053.55 830.87 L 1054.18 828.84 L 1054.90 826.85 L 1055.67 824.87 L 1056.59 822.97 L 1057.58 821.09 L 1058.50 819.18 L 1059.46 817.30 L 1060.47 815.50 L 1061.43 813.67 L 1062.38 811.84 L 1063.34 810.01 L 1064.21 808.17 L 1065.14 806.38 L 1066.05 804.57 L 1066.84 802.77 L 1067.68 801.01 L 1068.63 799.33 L 1069.50 797.63 L 1070.40 795.98" stroke="rgb(140,255,190)" stroke-opacity="0.543" stroke-width="1.15" />
  <path d="M 1039.37 875.42 L 1039.73 872.36 L 1040.01 869.30 L 1040.31 866.24 L 1040.62 863.18 L 1040.94 860.11 L 1041.35 857.12 L 1041.75 854.14 L 1042.14 851.17 L 1042.53 848.22 L 1042.91 845.28 L 1043.27 842.33 L 1043.59 839.39 L 1043.97 836.42 L 1044.34 833.47 L 1044.69 830.54 L 1045.01 827.60 L 1045.35 824.67 L 1045.77 821.79 L 1046.22 818.96 L 1046.70 816.12 L 1047.17 813.31 L 1047.55 810.52 L 1047.97 807.72 L 1048.37 804.94 L 1048.76 802.16 L 1049.18 799.39 L 1049.71 796.63 L 1050.21 793.89 L 1050.71 791.10 L 1051.26 788.31 L 1051.78 785.54 L 1052.38 782.81 L 1053.00 780.08 L 1053.59 777.40 L 1054.14 774.74 L 1054.70 772.08 L 1055.20 769.44 L 1055.68 766.80 L 1056.21 764.18 L 1056.79 761.57 L 1057.38 758.99 L 1057.90 756.39 L 1058.43 753.83 L 1058.93 751.26 L 1059.42 748.71 L 1059.88 746.17 L 1060.27 743.60 L 1060.67 741.04" stroke="rgb(140,255,190)" stroke-opacity="0.724" stroke-width="1.15" />
  <path d="M 998.78 996.66 L 999.61 993.51 L 1000.43 990.38 L 1001.26 987.26 L 1002.05 984.15 L 1002.83 981.05 L 1003.61 977.96 L 1004.35 974.89 L 1005.09 971.82 L 1005.77 968.75 L 1006.47 965.70 L 1007.11 962.65 L 1007.76 959.62 L 1008.38 956.60 L 1009.06 953.60 L 1009.77 950.62 L 1010.47 947.65 L 1011.11 944.68 L 1011.76 941.72 L 1012.45 938.78 L 1013.12 935.85 L 1013.78 932.93 L 1014.44 930.01" stroke="rgb(140,255,190)" stroke-opacity="0.723" stroke-width="1.15" />
  <path d="M 1046.76 873.70 L 1047.71 871.02 L 1048.60 868.35 L 1049.38 865.65 L 1050.07 862.96 L 1050.73 860.27 L 1051.37 857.58 L 1052.03 854.90 L 1052.70 852.25 L 1053.42 849.62 L 1054.16 847.01 L 1055.06 844.48 L 1055.97 841.98 L 1056.86 839.48 L 1057.78 837.00 L 1058.60 834.50 L 1059.39 832.04 L 1060.13 829.56 L 1060.96 827.14 L 1061.80 824.73 L 1062.72 822.36 L 1063.62 820.00 L 1064.51 817.64 L 1065.45 815.31 L 1066.38 812.99 L 1067.35 810.69 L 1068.43 808.42 L 1069.48 806.15" stroke="rgb(205,165,255)" stroke-opacity="0.480" stroke-width="1.15" />
  <path d="M 1035.23 887.17 L 1036.92 884.44 L 1038.60 881.72 L 1040.28 879.02 L 1041.97 876.33 L 1043.68 873.68 L 1045.40 871.04 L 1047.13 868.43 L 1048.80 865.79 L 1050.46 863.16 L 1052.11 860.54 L 1053.74 857.92 L 1055.38 855.32 L 1057.00 852.72 L 1058.66 850.17 L 1060.30 847.61 L 1062.03 845.14 L 1063.79 842.70 L 1065.54 840.26 L 1067.29 837.84 L 1069.04 835.43 L 1070.77 833.03 L 1072.50 830.64 L 1074.17 828.22 L 1075.80 825.79 L 1077.41 823.36 L 1079.00 820.93 L 1080.56 818.49 L 1082.11 816.06 L 1083.64 813.64 L 1085.17 811.22 L 1086.67 808.80 L 1088.17 806.40 L 1089.67 804.01 L 1091.16 801.62 L 1092.61 799.23 L 1094.06 796.84 L 1095.48 794.46 L 1096.90 792.09 L 1098.23 789.67 L 1099.52 787.25 L 1100.74 784.80 L 1101.96 782.36 L 1103.16 779.93 L 1104.34 777.49 L 1105.47 775.06 L 1106.59 772.62 L 1107.73 770.21 L 1108.87 767.80 L 1109.96 765.39 L 1111.07 762.99 L 1112.10 760.58 L 1113.14 758.18 L 1114.16 755.78" stroke="rgb(140,255,190)" stroke-opacity="0.722" stroke-width="1.15" />
  <path d="M 1025.01 904.66 L 1025.91 901.63 L 1026.87 898.65 L 1027.80 895.68 L 1028.74 892.72 L 1029.70 889.78 L 1030.63 886.86 L 1031.51 883.93 L 1032.34 880.97 L 1033.17 878.02 L 1034.08 875.12 L 1034.96 872.22 L 1035.83 869.32 L 1036.71 866.43 L 1037.59 863.55 L 1038.48 860.69 L 1039.39 857.83 L 1040.30 854.99 L 1041.19 852.17 L 1042.02 849.33 L 1042.89 846.52 L 1043.75 843.72 L 1044.62 840.95 L 1045.48 838.19 L 1046.35 835.44 L 1047.23 832.69 L 1048.03 829.93 L 1048.89 827.19 L 1049.75 824.46 L 1050.61 821.74 L 1051.49 819.04 L 1052.33 816.33 L 1053.19 813.65 L 1054.02 810.97 L 1054.86 808.31 L 1055.75 805.68 L 1056.64 803.06 L 1057.52 800.46 L 1058.39 797.86 L 1059.21 795.25 L 1060.03 792.65 L 1060.80 790.04 L 1061.60 787.46 L 1062.41 784.88 L 1063.23 782.32 L 1064.03 779.76 L 1064.82 777.21 L 1065.60 774.67 L 1066.34 772.13 L 1067.11 769.61 L 1067.94 767.12 L 1068.74 764.63 L 1069.55 762.15 L 1070.42 759.70 L 1071.29 757.27 L 1072.21 754.87 L 1073.09 752.46 L 1073.98 750.08 L 1074.90 747.71 L 1075.82 745.35 L 1076.76 743.02" stroke="rgb(140,255,190)" stroke-opacity="0.718" stroke-width="1.14" />
  <path d="M 1014.14 927.50 L 1014.83 925.37 L 1015.52 923.25 L 1016.21 921.15 L 1016.83 919.06 L 1017.50 916.98 L 1018.12 914.88 L 1018.73 912.77 L 1019.31 910.67 L 1019.83 908.59 L 1020.17 906.47 L 1020.53 904.31 L 1020.98 902.16 L 1021.43 900.02 L 1021.82 897.86 L 1022.17 895.70 L 1022.51 893.55 L 1022.85 891.39 L 1023.12 889.26 L 1023.39 887.13 L 1023.66 885.01 L 1024.00 882.90 L 1024.31 880.80 L 1024.64 878.72 L 1024.96 876.63 L 1025.27 874.54 L 1025.61 872.51 L 1026.13 870.53 L 1026.58 868.55 L 1027.01 866.58 L 1027.43 864.60 L 1027.98 862.69 L 1028.55 860.78 L 1029.09 858.84 L 1029.62 856.92 L 1030.17 855.01" stroke="rgb(140,255,190)" stroke-opacity="0.538" stroke-width="1.14" />
  <path d="M 996.07 998.47 L 996.76 995.38 L 997.54 992.33 L 998.31 989.28 L 999.11 986.26 L 999.94 983.26 L 1000.73 980.26 L 1001.54 977.28 L 1002.40 974.33 L 1003.26 971.38 L 1004.08 968.44 L 1004.88 965.51 L 1005.61 962.58 L 1006.42 959.67 L 1007.21 956.78 L 1008.02 953.90 L 1008.84 951.03 L 1009.64 948.17 L 1010.44 945.33 L 1011.24 942.49 L 1012.05 939.67 L 1012.83 936.86 L 1013.64 934.06 L 1014.44 931.28 L 1015.24 928.51 L 1016.04 925.74 L 1016.83 922.99 L 1017.55 920.23 L 1018.18 917.46 L 1018.85 914.71 L 1019.47 911.96 L 1020.10 909.23 L 1020.73 906.51 L 1021.30 903.78 L 1021.83 901.06 L 1022.40 898.36 L 1022.92 895.66 L 1023.44 892.97 L 1023.96 890.29 L 1024.46 887.62 L 1024.96 884.96 L 1025.52 882.33 L 1026.03 879.70 L 1026.55 877.08 L 1027.06 874.47 L 1027.55 871.86 L 1028.04 869.26 L 1028.53 866.68 L 1029.02 864.11 L 1029.52 861.54 L 1030.01 858.99 L 1030.55 856.46 L 1031.07 853.93 L 1031.55 851.40 L 1032.04 848.89 L 1032.55 846.40 L 1033.08 843.91 L 1033.59 841.44 L 1034.08 838.97 L 1034.63 836.52 L 1035.18 834.08 L 1035.68 831.65 L 1036.17 829.22 L 1036.67 826.80 L 1037.14 824.39 L 1037.60 821.99 L 1038.01 819.59 L 1038.44 817.20 L 1038.90 814.83 L 1039.38 812.47 L 1039.87 810.13 L 1040.37 807.79 L 1040.85 805.46" stroke="rgb(140,255,190)" stroke-opacity="0.716" stroke-width="1.13" />
  <path d="M 998.86 1003.04 L 999.56 1000.09 L 1000.24 997.14 L 1000.94 994.22 L 1001.63 991.30 L 1002.33 988.40 L 1002.99 985.50 L 1003.66 982.61 L 1004.34 979.75 L 1005.06 976.90 L 1005.82 974.08 L 1006.59 971.27 L 1007.35 968.48 L 1008.11 965.69 L 1008.89 962.92 L 1009.70 960.17 L 1010.55 957.46 L 1011.36 954.74 L 1012.17 952.03 L 1012.95 949.32 L 1013.78 946.64 L 1014.60 943.97 L 1015.50 941.34 L 1016.35 938.71 L 1017.12 936.05 L 1017.85 933.41 L 1018.58 930.77 L 1019.33 928.16 L 1020.14 925.58 L 1020.93 923.00 L 1021.64 920.41 L 1022.38 917.84 L 1023.07 915.28 L 1023.79 912.73 L 1024.50 910.18 L 1025.16 907.64 L 1025.83 905.10 L 1026.51 902.58 L 1027.10 900.05 L 1027.75 897.55 L 1028.36 895.05 L 1028.94 892.53 L 1029.51 890.04 L 1030.08 887.55 L 1030.60 885.05 L 1031.13 882.56 L 1031.65 880.08 L 1032.16 877.61 L 1032.67 875.15 L 1033.21 872.71 L 1033.74 870.28 L 1034.27 867.86 L 1034.80 865.44 L 1035.32 863.04 L 1035.84 860.64" stroke="rgb(140,255,190)" stroke-opacity="0.536" stroke-width="1.13" />
  <path d="M 1026.13 870.53 L 1027.04 867.55 L 1027.90 864.55 L 1028.76 861.57 L 1029.55 858.58 L 1030.36 855.61 L 1031.17 852.64 L 1031.90 849.67 L 1032.61 846.70 L 1033.24 843.73 L 1033.89 840.77 L 1034.54 837.82 L 1035.24 834.90 L 1035.96 831.99 L 1036.67 829.09 L 1037.40 826.21 L 1038.02 823.31 L 1038.74 820.47 L 1039.46 817.63 L 1040.14 814.81 L 1040.88 812.01 L 1041.61 809.23 L 1042.38 806.46 L 1043.09 803.69 L 1043.69 800.90" stroke="rgb(140,255,190)" stroke-opacity="0.714" stroke-width="1.13" />
  <path d="M 1008.02 953.90 L 1007.81 950.85 L 1007.59 947.82 L 1007.43 944.81 L 1007.23 941.80 L 1007.03 938.81 L 1006.89 935.80 L 1006.72 932.81 L 1006.54 929.84 L 1006.35 926.87 L 1006.17 923.91 L 1006.11 920.96 L 1006.04 918.01 L 1006.08 915.09 L 1006.11 912.18 L 1006.13 909.29 L 1006.16 906.40 L 1006.18 903.52 L 1006.24 900.66 L 1006.29 897.80 L 1006.30 894.95 L 1006.27 892.12 L 1006.25 889.29 L 1006.29 886.47 L 1006.33 883.66 L 1006.36 880.86 L 1006.39 878.07 L 1006.41 875.29" stroke="rgb(140,255,190)" stroke-opacity="0.534" stroke-width="1.12" />
  <path d="M 1059.84 809.95 L 1059.99 806.92 L 1060.14 803.90 L 1060.34 800.89 L 1060.55 797.87 L 1060.77 794.87 L 1061.06 791.87 L 1061.35 788.88 L 1061.64 785.90 L 1061.92 782.94 L 1062.18 779.98 L 1062.59 777.04 L 1062.99 774.11 L 1063.41 771.21 L 1063.90 768.34 L 1064.33 765.48 L 1064.62 762.61 L 1064.92 759.75 L 1065.21 756.89 L 1065.51 754.06 L 1065.91 751.27 L 1066.37 748.50 L 1066.91 745.76 L 1067.42 743.04 L 1067.92 740.31 L 1068.37 737.59 L 1068.81 734.89 L 1069.24 732.19 L 1069.66 729.49 L 1070.11 726.83 L 1070.55 724.21 L 1070.99 721.60 L 1071.48 719.03 L 1071.93 716.45 L 1072.36 713.88 L 1072.81 711.31 L 1073.28 708.74 L 1073.77 706.19 L 1074.23 703.65 L 1074.76 701.13 L 1075.25 698.61 L 1075.71 696.10 L 1076.20 693.60 L 1076.68 691.11 L 1077.17 688.63 L 1077.67 686.16 L 1078.15 683.69 L 1078.67 681.22 L 1079.17 678.76" stroke="rgb(140,255,190)" stroke-opacity="0.712" stroke-width="1.12" />
  <path d="M 1002.33 999.46 L 1002.88 996.95 L 1003.41 994.44 L 1003.94 991.95 L 1004.41 989.45 L 1004.86 986.96 L 1005.32 984.48 L 1005.77 982.02 L 1006.24 979.56 L 1006.77 977.13 L 1007.31 974.71 L 1007.81 972.29 L 1008.26 969.87 L 1008.82 967.49 L 1009.38 965.12 L 1009.97 962.77 L 1010.58 960.42 L 1011.21 958.10" stroke="rgb(140,255,190)" stroke-opacity="0.534" stroke-width="1.12" />
  <path d="M 1016.07 706.38 L 1015.03 703.78 L 1013.99 701.18 L 1012.95 698.59 L 1011.98 696.01 L 1011.03 693.45 L 1010.09 690.87 L 1009.15 688.31 L 1008.30 685.73 L 1007.49 683.14 L 1006.55 680.66 L 1005.58 678.23 L 1004.59 675.75 L 1003.59 673.29 L 1002.65 670.87 L 1001.70 668.50 L 1000.80 666.07 L 999.93 663.62 L 999.09 661.15 L 998.23 658.70 L 997.36 656.27 L 996.53 653.85 L 995.77 651.45 L 995.03 649.04 L 994.26 646.67 L 993.48 644.31 L 992.69 641.95 L 991.88 639.61 L 991.08 637.27 L 990.28 634.98 L 989.48 632.70 L 988.68 630.42 L 987.88 628.16 L 987.08 625.90 L 986.28 623.68 L 985.52 621.44 L 984.65 619.26 L 983.79 617.06 L 982.97 614.84" stroke="rgb(140,255,190)" stroke-opacity="0.711" stroke-width="1.12" />
  <path d="M 1001.91 999.16 L 1002.51 996.67 L 1003.26 994.22 L 1003.99 991.78 L 1004.75 989.37 L 1005.45 986.95 L 1006.17 984.55 L 1006.95 982.19 L 1007.72 979.85 L 1008.49 977.52 L 1009.25 975.19 L 1010.00 972.87 L 1010.77 970.57 L 1011.56 968.29 L 1012.27 966.00 L 1012.98 963.71 L 1013.66 961.40 L 1014.31 959.08 L 1014.95 956.77 L 1015.63 954.48 L 1016.35 952.21 L 1017.08 949.97 L 1017.80 947.74 L 1018.47 945.50 L 1019.17 943.28 L 1019.84 941.07 L 1020.52 938.86 L 1021.16 936.66 L 1021.80 934.46 L 1022.39 932.26 L 1022.98 930.08 L 1023.51 927.92 L 1024.10 925.77 L 1024.69 923.62 L 1025.27 921.47 L 1025.95 919.36 L 1026.69 917.28 L 1027.42 915.20 L 1028.15 913.13 L 1028.85 911.07 L 1029.54 909.01 L 1030.23 906.95 L 1030.92 904.91 L 1031.63 902.88 L 1032.33 900.86 L 1033.03 898.84 L 1033.66 896.79 L 1034.28 894.74 L 1034.90 892.71 L 1035.47 890.66 L 1036.02 888.61 L 1036.59 886.58 L 1037.16 884.56 L 1037.74 882.56 L 1038.39 880.58 L 1038.99 878.59 L 1039.59 876.61 L 1040.21 874.65 L 1040.84 872.69 L 1041.41 870.73 L 1041.98 868.77 L 1042.54 866.83 L 1043.07 864.89 L 1043.60 862.95 L 1044.13 861.02 L 1044.64 859.09 L 1045.19 857.20 L 1045.74 855.30 L 1046.34 853.45 L 1046.99 851.62 L 1047.62 849.78 L 1048.27 847.95 L 1048.95 846.15 L 1049.68 844.39 L 1050.41 842.65 L 1051.21 840.95 L 1051.93 839.23 L 1052.64 837.51 L 1053.29 835.79 L 1053.96 834.07 L 1054.60 832.37 L 1055.26 830.65" stroke="rgb(140,255,190)" stroke-opacity="0.532" stroke-width="1.12" />
  <path d="M 1028.78 912.58 L 1029.69 909.67 L 1030.46 906.73 L 1031.20 903.79 L 1032.00 900.89 L 1032.90 898.03 L 1033.77 895.15 L 1034.69 892.32 L 1035.52 889.47 L 1036.27 886.62 L 1037.05 883.79 L 1037.81 880.97 L 1038.59 878.19 L 1039.37 875.42 L 1040.14 872.66 L 1040.94 869.95 L 1041.76 867.24 L 1042.59 864.52 L 1043.36 861.80 L 1044.13 859.09 L 1044.88 856.39 L 1045.63 853.69 L 1046.35 851.00 L 1047.05 848.32 L 1047.76 845.64 L 1048.49 842.96 L 1049.24 840.30 L 1049.97 837.64 L 1050.68 834.97 L 1051.38 832.32 L 1052.07 829.68" stroke="rgb(140,255,190)" stroke-opacity="0.531" stroke-width="1.12" />
  <path d="M 1042.77 859.99 L 1043.59 857.48 L 1044.23 854.94 L 1044.88 852.41 L 1045.49 849.88 L 1046.13 847.37 L 1046.72 844.85 L 1047.34 842.35 L 1047.88 839.84 L 1048.42 837.35 L 1048.97 834.86" stroke="rgb(140,255,190)" stroke-opacity="0.531" stroke-width="1.11" />
  <path d="M 1031.13 882.56 L 1032.34 880.31 L 1033.57 878.08 L 1034.79 875.85 L 1036.02 873.63 L 1037.25 871.43 L 1038.48 869.23 L 1039.74 867.04 L 1040.99 864.86 L 1042.24 862.69 L 1043.59 860.60 L 1044.93 858.51 L 1046.17 856.38 L 1047.47 854.32 L 1048.82 852.28 L 1050.19 850.25 L 1051.54 848.23 L 1052.86 846.22 L 1054.18 844.22 L 1055.49 842.21 L 1056.79 840.20 L 1058.10 838.20 L 1059.48 836.28 L 1060.96 834.47 L 1062.49 832.69 L 1064.00 830.94 L 1065.51 829.20 L 1066.97 827.42 L 1068.35 825.62 L 1069.74 823.84 L 1071.26 822.14 L 1072.77 820.43 L 1074.26 818.73 L 1075.77 817.09 L 1077.25 815.42 L 1078.78 813.82" stroke="rgb(140,255,190)" stroke-opacity="0.531" stroke-width="1.11" />
  <path d="M 997.54 1002.67 L 995.73 1001.03 L 993.92 999.40 L 992.12 997.72 L 990.34 996.04 L 988.51 994.39 L 986.82 992.62 L 985.14 990.87 L 983.47 989.13 L 981.80 987.40 L 980.17 985.63 L 978.54 983.87 L 976.87 982.16 L 975.25 980.44 L 973.65 978.72 L 971.99 977.01 L 970.34 975.28 L 968.74 973.50 L 967.07 971.84 L 965.42 970.20 L 963.78 968.56 L 962.12 966.95 L 960.48 965.33 L 958.85 963.72 L 957.27 962.11 L 955.66 960.51 L 954.06 958.91 L 952.52 957.24" stroke="rgb(205,165,255)" stroke-opacity="0.470" stroke-width="1.11" />
  <path d="M 1063.69 878.60 L 1064.63 876.59 L 1065.61 874.68 L 1066.73 872.78 L 1067.93 870.92 L 1069.24 869.13 L 1070.54 867.36 L 1071.82 865.65 L 1073.12 863.96 L 1074.45 862.26 L 1075.79 860.61 L 1077.14 858.93 L 1078.46 857.25 L 1079.76 855.55 L 1081.06 853.87 L 1082.35 852.19 L 1083.64 850.52 L 1084.84 848.79 L 1086.03 847.06 L 1087.25 845.27 L 1088.37 843.41 L 1089.46 841.55 L 1090.52 839.66 L 1091.60 837.82 L 1092.70 836.01 L 1093.81 834.19 L 1094.96 832.39 L 1096.14 830.55 L 1097.34 828.75 L 1098.64 826.98 L 1099.98 825.24 L 1101.38 823.47 L 1102.78 821.73 L 1104.10 819.99 L 1105.47 818.28 L 1106.81 816.58 L 1108.15 814.84 L 1109.45 813.08 L 1110.75 811.33 L 1112.15 809.59 L 1113.53 807.86 L 1114.88 806.09 L 1116.36 804.43 L 1117.83 802.80 L 1119.26 801.09 L 1120.69 799.38 L 1122.12 797.75 L 1123.59 796.13 L 1125.05 794.50 L 1126.51 792.82 L 1127.95 791.15 L 1129.49 789.58 L 1131.05 788.04 L 1132.60 786.52 L 1134.11 784.98 L 1135.61 783.44" stroke="rgb(140,255,190)" stroke-opacity="0.531" stroke-width="1.11" />
  <path d="M 1011.76 941.72 L 1011.44 938.94 L 1010.97 936.21 L 1010.50 933.50 L 1010.02 930.81 L 1009.53 928.14 L 1009.04 925.49 L 1008.39 922.87 L 1007.84 920.24 L 1007.29 917.62 L 1006.79 915.02 L 1006.26 912.44 L 1005.89 909.91 L 1005.52 907.39 L 1005.16 904.87 L 1004.79 902.34 L 1004.42 899.81 L 1004.07 897.29 L 1003.77 894.75 L 1003.48 892.21 L 1003.19 889.69 L 1002.87 887.25 L 1002.55 884.82 L 1002.25 882.41 L 1001.96 880.00 L 1001.73 877.59 L 1001.47 875.16 L 1001.30 872.75 L 1001.19 870.35 L 1001.06 867.96 L 1000.95 865.59 L 1000.77 863.21 L 1000.56 860.89" stroke="rgb(140,255,190)" stroke-opacity="0.530" stroke-width="1.11" />
  <path d="M 1002.80 996.02 L 1003.37 993.53 L 1003.86 991.04 L 1004.33 988.55 L 1004.78 986.07 L 1005.17 983.59 L 1005.59 981.12 L 1006.04 978.67 L 1006.55 976.24 L 1007.20 973.85" stroke="rgb(140,255,190)" stroke-opacity="0.530" stroke-width="1.11" />
  <path d="M 1024.97 824.46 L 1025.74 821.84 L 1026.47 819.25 L 1027.09 816.62 L 1027.79 814.08 L 1028.48 811.55 L 1029.14 809.02 L 1029.84 806.51 L 1030.45 804.01 L 1031.04 801.52 L 1031.56 799.00 L 1032.09 796.50 L 1032.68 794.04 L 1033.28 791.59 L 1033.84 789.13 L 1034.44 786.70 L 1034.96 784.26 L 1035.49 781.83 L 1036.02 779.40 L 1036.54 776.93 L 1037.18 774.54 L 1037.91 772.21 L 1038.64 769.93 L 1039.31 767.61 L 1039.99 765.30 L 1040.67 763.01 L 1041.33 760.73 L 1042.05 758.48 L 1042.69 756.22 L 1043.41 753.98 L 1044.13 751.78 L 1044.85 749.58 L 1045.59 747.37 L 1046.39 745.13 L 1047.27 742.93 L 1048.19 740.77 L 1049.13 738.65 L 1050.16 736.62 L 1051.18 734.58 L 1052.28 732.55 L 1053.38 730.52 L 1054.51 728.53 L 1055.72 726.63" stroke="rgb(140,255,190)" stroke-opacity="0.529" stroke-width="1.11" />
  <path d="M 997.33 998.21 L 997.95 995.43 L 998.47 992.65 L 998.94 989.88 L 999.44 987.12 L 999.93 984.37 L 1000.40 981.62 L 1000.92 978.90 L 1001.45 976.18 L 1001.98 973.48 L 1002.53 970.80 L 1003.06 968.12 L 1003.63 965.47 L 1004.24 962.84 L 1004.86 960.23 L 1005.49 957.63 L 1006.12 955.04 L 1006.75 952.46 L 1007.49 949.92 L 1008.27 947.40 L 1009.03 944.88 L 1009.79 942.37 L 1010.55 939.88 L 1011.34 937.40 L 1012.07 934.92 L 1012.79 932.45 L 1013.47 929.97 L 1014.14 927.50 L 1014.81 925.05 L 1015.54 922.61 L 1016.23 920.18 L 1016.96 917.77 L 1017.67 915.37 L 1018.41 912.98 L 1019.12 910.59 L 1019.91 908.24 L 1020.64 905.88 L 1021.36 903.53 L 1022.05 901.18 L 1022.72 898.84 L 1023.40 896.50 L 1024.08 894.18 L 1024.78 891.87 L 1025.46 889.57 L 1026.10 887.26" stroke="rgb(140,255,190)" stroke-opacity="0.529" stroke-width="1.11" />
  <path d="M 773.77 2000.11 L 774.01 1996.91 L 774.69 1993.91 L 775.08 1991.26 L 776.04 1988.21 L 776.75 1985.21 L 777.31 1982.41 L 778.19 1979.38 L 778.63 1976.84 L 779.38 1973.72 L 779.73 1970.96 L 780.47 1967.78 L 781.31 1965.05 L 782.42 1961.57 L 782.56 1958.98 L 783.57 1956.04 L 783.82 1953.35 L 784.88 1949.92 L 785.62 1946.99 L 786.07 1944.27 L 787.08 1941.55 L 787.11 1938.57 L 787.64 1935.62 L 788.58 1933.04 L 789.62 1929.96 L 790.24 1926.84 L 790.61 1924.39 L 791.41 1920.76 L 792.43 1918.29 L 792.37 1915.05 L 793.22 1912.05 L 794.09 1909.58 L 794.45 1906.16 L 795.43 1903.09 L 795.94 1900.42 L 796.65 1897.73 L 797.56 1894.52 L 797.90 1891.80 L 798.42 1889.46 L 799.34 1885.66 L 799.77 1882.99 L 800.21 1879.82 L 801.52 1877.01 L 801.71 1874.00 L 802.61 1871.30 L 802.97 1868.16 L 803.78 1865.32 L 804.72 1863.11 L 805.50 1859.35 L 805.78 1856.29 L 806.50 1853.76 L 807.83 1850.95 L 808.04 1848.24 L 808.75 1845.30 L 809.37 1841.56 L 809.93 1839.10 L 810.39 1836.17 L 811.74 1833.06 L 812.09 1830.40 L 812.59 1827.38 L 813.22 1823.91 L 813.90 1821.19 L 814.19 1818.43 L 815.07 1815.65 L 816.03 1812.69 L 816.26 1810.02 L 817.05 1806.96 L 817.78 1804.09 L 818.20 1801.04 L 819.45 1798.23 L 819.84 1795.13 L 820.54 1792.09 L 821.43 1789.31 L 821.70 1786.38 L 822.40 1783.64 L 823.15 1780.62 L 823.42 1777.85 L 824.81 1774.61 L 825.40 1771.73 L 825.96 1769.09 L 826.44 1765.79 L 827.11 1763.02 L 828.00 1760.06 L 828.67 1757.51 L 828.94 1754.13 L 830.02 1750.96 L 830.78 1748.91 L 831.45 1745.49 L 831.77 1742.71 L 832.21 1739.79 L 832.65 1736.56 L 833.53 1734.18 L 834.37 1730.97 L 834.60 1727.72 L 836.16 1725.26 L 836.61 1722.19 L 837.12 1719.11 L 837.79 1716.02 L 838.27 1713.05 L 839.27 1710.54 L 839.97 1707.29 L 840.32 1704.92 L 841.07 1701.40 L 841.46 1698.50 L 842.31 1695.35 L 843.28 1692.71 L 843.84 1689.80 L 844.27 1686.46 L 845.14 1684.32 L 845.55 1681.07 L 846.63 1678.21 L 846.95 1675.21 L 847.53 1672.30 L 848.13 1668.84 L 848.98 1666.42 L 849.73 1663.71 L 850.39 1660.68 L 850.81 1657.50 L 851.78 1654.76 L 852.27 1651.41 L 853.35 1648.90 L 853.08 1645.94 L 854.41 1642.73 L 854.84 1640.12 L 855.23 1637.27 L 856.15 1634.23 L 856.58 1630.96 L 857.54 1628.66 L 858.07 1625.33 L 859.09 1622.26 L 859.69 1620.11 L 860.37 1616.74 L 860.82 1614.32 L 861.59 1610.93 L 862.73 1607.79 L 863.04 1605.07 L 863.67 1601.99 L 864.61 1599.50 L 865.21 1596.25 L 865.52 1593.20 L 866.81 1590.19 L 866.59 1587.21 L 867.66 1584.46 L 868.12 1581.74 L 869.18 1578.37 L 869.68 1575.68 L 870.10 1572.63 L 870.59 1569.74 L 871.46 1566.95 L 872.29 1563.83 L 873.51 1561.08 L 873.70 1558.70 L 874.39 1555.64 L 874.95 1552.20 L 875.56 1549.32 L 875.92 1546.63 L 876.74 1543.34 L 877.77 1540.65 L 878.25 1537.69 L 878.98 1534.82 L 879.50 1531.72 L 879.92 1528.48 L 880.74 1525.97 L 881.96 1523.73 L 881.81 1519.91 L 882.77 1517.13 L 883.59 1514.37 L 884.27 1511.37 L 884.69 1508.28 L 885.51 1505.24 L 886.19 1502.36 L 886.69 1499.93 L 887.53 1497.21 L 887.85 1494.10 L 888.57 1491.28 L 889.72 1487.96 L 889.80 1484.91 L 890.76 1482.41 L 891.31 1478.93 L 892.01 1476.24 L 892.50 1473.69 L 893.85 1470.00 L 893.91 1467.48 L 894.27 1464.36 L 895.34 1461.49 L 895.84 1458.65 L 896.77 1456.05 L 897.38 1452.86 L 897.84 1450.15 L 898.69 1447.12 L 899.53 1444.20 L 900.22 1440.79 L 901.00 1438.33 L 901.45 1435.41 L 902.03 1432.53 L 902.72 1429.39 L 903.66 1426.69 L 904.08 1423.36 L 904.71 1420.80 L 905.04 1417.45 L 905.86 1414.57 L 906.76 1411.74 L 907.48 1408.64 L 907.72 1406.14 L 908.57 1403.09 L 909.55 1400.28 L 910.08 1397.42 L 910.77 1394.70 L 911.46 1391.29 L 911.99 1388.20 L 912.70 1385.61 L 913.50 1382.48 L 914.02 1380.00 L 914.75 1377.09 L 915.33 1373.93 L 916.16 1371.18 L 916.49 1367.86 L 917.28 1364.81 L 917.85 1361.93 L 918.70 1359.28 L 919.45 1355.92 L 920.00 1353.70 L 920.67 1350.50 L 921.33 1347.30 L 922.47 1344.35 L 922.53 1341.59 L 923.18 1339.12 L 923.95 1336.01 L 924.70 1333.18 L 925.35 1329.95 L 925.75 1327.24 L 926.56 1324.32 L 927.11 1321.29 L 928.05 1318.37 L 928.85 1315.72 L 929.22 1312.59 L 929.88 1309.64 L 930.99 1306.81 L 930.96 1303.59 L 932.00 1300.85 L 932.68 1297.26 L 933.31 1295.09 L 933.65 1292.34 L 934.72 1289.02 L 934.76 1286.21 L 935.77 1283.05 L 936.78 1280.34 L 937.22 1277.38 L 937.45 1274.31 L 938.61 1271.80 L 938.87 1268.54 L 939.91 1265.77 L 940.44 1262.44 L 941.01 1259.37 L 941.85 1257.03 L 942.60 1253.78 L 943.49 1251.36 L 943.96 1248.30 L 944.23 1244.98 L 945.02 1242.32 L 945.81 1239.38 L 945.95 1236.56 L 947.08 1233.34 L 948.04 1230.32 L 948.78 1227.87 L 949.27 1224.83 L 950.00 1221.92 L 950.51 1219.16 L 950.70 1215.74 L 951.77 1213.02 L 952.21 1209.87 L 952.99 1207.12 L 953.43 1204.22 L 954.35 1201.63 L 955.01 1198.68 L 955.49 1195.38 L 956.56 1192.20 L 957.40 1189.76 L 957.51 1186.30 L 958.24 1183.38 L 958.97 1181.30 L 959.65 1177.73 L 960.74 1174.90 L 961.45 1171.93 L 961.69 1169.25 L 962.77 1165.97 L 963.13 1163.13 L 963.84 1159.90 L 964.58 1157.51 L 964.94 1154.43 L 965.76 1151.68 L 966.33 1148.97 L 967.10 1146.11 L 967.99 1142.51 L 968.55 1139.98 L 968.91 1136.81 L 969.54 1133.65 L 970.58 1131.30 L 970.69 1128.37 L 971.55 1124.86 L 972.06 1122.63 L 972.94 1119.61 L 973.72 1116.77 L 974.10 1113.58 L 974.95 1110.56 L 975.71 1107.35 L 976.19 1104.71 L 977.29 1102.29 L 977.65 1098.88 L 978.32 1096.15 L 979.12 1092.82 L 980.09 1090.27 L 980.60 1087.31 L 980.83 1084.07 L 981.56 1081.25 L 982.32 1078.52 L 983.14 1075.33 L 983.77 1072.53 L 984.58 1069.92 L 984.61 1066.94 L 985.53 1063.06 L 986.37 1060.67 L 986.57 1057.47 L 987.38 1054.89 L 988.07 1052.11 L 989.02 1049.17 L 989.79 1046.36 L 990.00 1043.42 L 991.16 1040.28 L 991.46 1037.73 L 992.31 1034.54 L 992.56 1031.29 L 993.57 1028.71 L 994.03 1025.87 L 994.80 1022.68 L 995.56 1019.88 L 996.17 1016.93 L 997.14 1013.97 L 997.66 1011.36 L 997.99 1007.52 L 998.92 1004.80 L 999.32 1002.20 L 1000.00 1000.00 L 1000.66 997.07 L 1001.33 994.15 L 1002.01 991.23 L 1002.68 988.30 L 1003.36 985.38 L 1004.02 982.45 L 1004.68 979.53 L 1005.35 976.60 L 1006.04 973.68 L 1006.72 970.76 L 1007.41 967.84 L 1008.10 964.92 L 1008.79 962.00 L 1009.50 959.09 L 1010.22 956.18 L 1010.96 953.27 L 1011.69 950.36 L 1012.42 947.45 L 1013.13 944.54 L 1013.84 941.62 L 1014.55 938.70 L 1015.25 935.79 L 1015.94 932.87 L 1016.62 929.95 L 1017.31 927.03 L 1018.00 924.11 L 1018.70 921.19 L 1019.41 918.28 L 1020.13 915.36 L 1020.84 912.45 L 1021.55 909.53 L 1022.27 906.62 L 1022.99 903.71 L 1023.70 900.80 L 1024.41 897.88 L 1025.12 894.96 L 1025.83 892.05 L 1026.54 889.14 L 1027.27 886.23 L 1027.99 883.31 L 1028.70 880.40 L 1029.41 877.48 L 1030.13 874.57 L 1030.86 871.66 L 1031.58 868.75 L 1032.29 865.84 L 1033.00 862.92 L 1033.72 860.01 L 1034.42 857.09 L 1035.14 854.18 L 1035.87 851.27 L 1036.61 848.36 L 1037.34 845.45 L 1038.08 842.54 L 1038.84 839.64 L 1039.58 836.73 L 1040.32 833.83 L 1041.06 830.92 L 1041.80 828.01 L 1042.54 825.11 L 1043.28 822.20 L 1044.03 819.29 L 1044.77 816.38 L 1045.50 813.48 L 1046.24 810.57 L 1046.96 807.65 L 1047.67 804.74 L 1048.37 801.82 L 1049.06 798.90 L 1049.74 795.98 L 1050.43 793.06 L 1051.12 790.14 L 1051.80 787.22 L 1052.48 784.30 L 1053.15 781.38 L 1053.83 778.45 L 1054.52 775.53 L 1055.22 772.62 L 1055.91 769.70 L 1056.60 766.78 L 1057.30 763.86 L 1057.99 760.94 L 1058.68 758.02 L 1059.38 755.10 L 1060.09 752.19 L 1060.78 749.27 L 1061.48 746.35 L 1062.15 743.43 L 1062.82 740.50 L 1063.49 737.58 L 1064.17 734.66 L 1064.85 731.74 L 1065.52 728.81 L 1066.19 725.89 L 1066.86 722.96 L 1067.53 720.04 L 1068.19 717.11 L 1068.86 714.19 L 1069.53 711.26 L 1070.18 708.33 L 1070.83 705.41 L 1071.47 702.48 L 1072.12 699.55 L 1072.78 696.62 L 1073.43 693.69 L 1074.09 690.76 L 1074.74 687.84 L 1075.37 684.90 L 1076.02 681.97 L 1076.66 679.04 L 1077.30 676.11 L 1077.95 673.18 L 1078.60 670.25 L 1079.25 667.33 L 1079.88 664.39 L 1080.50 661.46 L 1081.13 658.53 L 1081.76 655.59 L 1082.38 652.66 L 1083.01 649.72 L 1083.64 646.79 L 1084.26 643.86 L 1084.88 640.92 L 1085.50 637.99 L 1086.13 635.05 L 1086.76 632.12 L 1087.40 629.19 L 1088.04 626.26 L 1088.67 623.32 L 1089.30 620.39 L 1089.93 617.46 L 1090.56 614.52 L 1091.17 611.59 L 1091.78 608.65 L 1092.39 605.71 L 1092.99 602.77 L 1093.59 599.83 L 1094.18 596.89 L 1094.77 593.95 L 1095.37 591.01 L 1095.97 588.07 L 1096.59 585.14 L 1097.19 582.20 L 1097.81 579.26 L 1098.42 576.32 L 1099.04 573.39 L 1099.66 570.45 L 1100.28 567.52 L 1100.91 564.58 L 1101.54 561.65 L 1102.17 558.72 L 1102.81 555.79 L 1103.44 552.86 L 1104.08 549.92 L 1104.70 546.99 L 1105.34 544.06 L 1105.98 541.13 L 1106.62 538.20 L 1107.26 535.27 L 1107.91 532.34 L 1108.56 529.41 L 1109.21 526.48 L 1109.86 523.55 L 1110.52 520.62 L 1111.18 517.70 L 1111.83 514.77 L 1112.50 511.84 L 1113.18 508.92 L 1113.86 506.00 L 1114.52 503.07 L 1115.17 500.15 L 1115.83 497.22 L 1116.49 494.29 L 1117.16 491.37 L 1117.83 488.44 L 1118.51 485.52 L 1119.19 482.60 L 1119.88 479.68 L 1120.58 476.76 L 1121.27 473.84 L 1121.97 470.93 L 1122.66 468.01 L 1123.36 465.09 L 1124.06 462.17 L 1124.75 459.25 L 1125.44 456.33 L 1126.13 453.41 L 1126.82 450.49 L 1127.51 447.57 L 1128.20 444.65 L 1128.88 441.73 L 1129.57 438.81 L 1130.24 435.89 L 1130.93 432.97 L 1131.61 430.05 L 1132.30 427.13 L 1133.00 424.21 L 1133.69 421.29 L 1134.38 418.37 L 1135.09 415.46 L 1135.80 412.54 L 1136.48 409.62 L 1137.17 406.70 L 1137.87 403.78 L 1138.55 400.86 L 1139.22 397.94 L 1139.90 395.01 L 1140.58 392.09 L 1141.25 389.17 L 1141.93 386.25 L 1142.62 383.33 L 1143.30 380.41 L 1143.98 377.48 L 1144.63 374.56 L 1145.29 371.63 L 1145.95 368.70 L 1146.59 365.77 L 1147.25 362.84 L 1147.90 359.92 L 1148.55 356.99 L 1149.21 354.06 L 1149.88 351.14 L 1150.55 348.21 L 1151.24 345.29 L 1151.95 342.38 L 1152.65 339.46 L 1153.35 336.54 L 1154.06 333.63 L 1154.77 330.71 L 1155.49 327.80 L 1156.21 324.89 L 1156.95 321.98 L 1157.67 319.07 L 1158.39 316.16 L 1159.13 313.25 L 1159.85 310.34 L 1160.57 307.43 L 1161.30 304.52 L 1162.05 301.61 L 1162.80 298.71 L 1163.56 295.80 L 1164.32 292.90 L 1165.05 289.99 L 1165.79 287.08 L 1166.52 284.17 L 1167.24 281.26 L 1167.95 278.35 L 1168.68 275.44 L 1169.41 272.53 L 1170.13 269.62 L 1170.85 266.70 L 1171.57 263.79 L 1172.28 260.88 L 1172.99 257.96 L 1173.70 255.05 L 1174.40 252.13 L 1175.10 249.21 L 1175.80 246.30 L 1176.51 243.38 L 1177.21 240.46 L 1177.91 237.55 L 1178.60 234.63 L 1179.30 231.71 L 1179.99 228.79 L 1180.69 225.87 L 1181.40 222.96 L 1182.12 220.05 L 1182.83 217.13 L 1183.54 214.22 L 1184.24 211.30 L 1184.94 208.38 L 1185.62 205.46 L 1186.30 202.54 L 1186.98 199.62 L 1187.66 196.69 L 1188.34 193.77 L 1189.03 190.85 L 1189.72 187.93 L 1190.40 185.01 L 1191.08 182.09 L 1191.76 179.17 L 1192.45 176.25 L 1193.12 173.32 L 1193.79 170.40 L 1194.46 167.47 L 1195.12 164.55 L 1195.79 161.62 L 1196.47 158.70 L 1197.15 155.78 L 1197.85 152.86 L 1198.56 149.95 L 1199.28 147.04 L 1200.01 144.13 L 1200.76 141.22 L 1201.50 138.31 L 1202.24 135.41 L 1202.98 132.50 L 1203.72 129.59 L 1204.48 126.69 L 1205.23 123.79 L 1205.98 120.88 L 1206.74 117.98 L 1207.50 115.08 L 1208.25 112.17 L 1209.00 109.27 L 1209.75 106.36 L 1210.49 103.45 L 1211.23 100.55 L 1211.96 97.64 L 1212.71 94.73 L 1213.45 91.83 L 1214.21 88.92 L 1214.96 86.02 L 1215.72 83.12 L 1216.48 80.21 L 1217.23 77.31 L 1217.98 74.41 L 1218.73 71.50 L 1219.48 68.59 L 1220.23 65.69 L 1220.98 62.79 L 1221.73 59.88 L 1222.48 56.98 L 1223.23 54.07 L 1223.98 51.17 L 1224.73 48.26 L 1225.47 45.35 L 1226.20 42.45 L 1226.95 39.54 L 1227.68 36.63 L 1228.41 33.72 L 1229.14 30.81 L 1229.88 27.90 L 1230.61 25.00 L 1231.35 22.09 L 1232.09 19.18 L 1232.84 16.27 L 1233.60 13.37 L 1234.37 10.47 L 1235.15 7.58 L 1235.94 4.68 L 1236.72 1.78 L 1237.50 -1.11 L 1238.28 -4.01 L 1239.06 -6.90 L 1239.83 -9.81 L 1240.59 -12.71 L 1241.35 -15.61 L 1242.09 -18.52 L 1242.84 -21.42" stroke="rgb(245,245,245)" stroke-opacity="0.705" stroke-width="1.11" />
  <path d="M 999.72 998.75 L 1000.23 995.78 L 1000.76 992.83 L 1001.30 989.89 L 1001.81 986.96 L 1002.33 984.04 L 1002.87 981.15 L 1003.40 978.25 L 1003.95 975.38 L 1004.48 972.51 L 1005.01 969.65 L 1005.52 966.80 L 1006.02 963.97 L 1006.52 961.14 L 1007.05 958.33 L 1007.59 955.54" stroke="rgb(140,255,190)" stroke-opacity="0.528" stroke-width="1.10" />
  <path d="M 1001.59 997.85 L 1002.40 995.16 L 1003.21 992.48 L 1004.02 989.82 L 1004.83 987.16 L 1005.64 984.51 L 1006.45 981.88 L 1007.27 979.26 L 1008.13 976.66 L 1008.90 974.05 L 1009.68 971.45 L 1010.53 968.88 L 1011.37 966.33 L 1012.19 963.77 L 1013.02 961.23 L 1013.92 958.73 L 1014.79 956.23 L 1015.67 953.75 L 1016.55 951.27 L 1017.43 948.81 L 1018.34 946.36 L 1019.11 943.88 L 1019.87 941.41 L 1020.65 938.95 L 1021.42 936.51 L 1022.19 934.07 L 1022.94 931.64 L 1023.67 929.22 L 1024.39 926.80 L 1025.15 924.41 L 1025.91 922.03 L 1026.70 919.67 L 1027.41 917.30 L 1028.09 914.94 L 1028.78 912.58 L 1029.46 910.23 L 1030.21 907.91 L 1030.91 905.58 L 1031.61 903.26 L 1032.15 900.91 L 1032.66 898.59 L 1033.17 896.27 L 1033.67 893.97 L 1034.19 891.69 L 1034.68 889.42 L 1035.23 887.17 L 1035.78 884.94 L 1036.20 882.68 L 1036.72 880.44 L 1037.24 878.21" stroke="rgb(140,255,190)" stroke-opacity="0.528" stroke-width="1.10" />
  <path d="M 1000.60 997.60 L 1001.27 995.05 L 1001.93 992.51 L 1002.62 989.98 L 1003.36 987.46 L 1004.19 984.99 L 1005.13 982.57 L 1006.08 980.17 L 1007.02 977.77 L 1007.85 975.36 L 1008.71 972.95 L 1009.57 970.58 L 1010.34 968.19 L 1010.98 965.76 L 1011.59 963.34 L 1012.18 960.91 L 1012.76 958.50 L 1013.34 956.10 L 1013.97 953.73 L 1014.66 951.38 L 1015.41 949.06 L 1016.18 946.75 L 1016.96 944.44 L 1017.71 942.15 L 1018.47 939.87 L 1019.30 937.63 L 1020.09 935.38 L 1020.77 933.11 L 1021.44 930.85 L 1022.10 928.59 L 1022.82 926.37 L 1023.58 924.17 L 1024.33 921.99 L 1025.06 919.79 L 1025.79 917.60 L 1026.53 915.42 L 1027.26 913.24 L 1028.00 911.08 L 1028.66 908.91 L 1029.32 906.74 L 1029.96 904.59 L 1030.62 902.46 L 1031.26 900.32 L 1031.90 898.20 L 1032.60 896.09 L 1033.33 894.01 L 1034.07 891.93 L 1034.81 889.86 L 1035.59 887.83 L 1036.42 885.82 L 1037.24 883.82 L 1038.00 881.81 L 1038.74 879.81 L 1039.50 877.82 L 1040.16 875.82 L 1040.84 873.84 L 1041.47 871.85 L 1042.13 869.88 L 1042.81 867.91 L 1043.48 865.94 L 1044.12 863.98 L 1044.76 862.02 L 1045.39 860.06" stroke="rgb(140,255,190)" stroke-opacity="0.528" stroke-width="1.10" />
  <path d="M 1007.76 959.62 L 1007.79 957.05 L 1007.80 954.49 L 1007.83 951.94 L 1007.84 949.38 L 1007.78 946.84 L 1007.79 944.31 L 1007.81 941.79 L 1007.83 939.28 L 1007.73 936.78 L 1007.62 934.28 L 1007.45 931.81 L 1007.30 929.34 L 1007.15 926.88 L 1007.08 924.43 L 1007.06 922.00 L 1007.02 919.57 L 1006.97 917.15 L 1006.88 914.75 L 1006.83 912.36" stroke="rgb(140,255,190)" stroke-opacity="0.528" stroke-width="1.10" />
  <path d="M 1000.33 1000.07 L 1001.14 997.28 L 1001.88 994.48 L 1002.70 991.72 L 1003.49 988.96 L 1004.27 986.21 L 1005.03 983.47 L 1005.86 980.76 L 1006.70 978.06 L 1007.56 975.38 L 1008.41 972.71 L 1009.33 970.08 L 1010.21 967.44 L 1011.07 964.81 L 1011.92 962.19 L 1012.83 959.60 L 1013.71 957.01 L 1014.59 954.43 L 1015.46 951.86 L 1016.33 949.30 L 1017.23 946.77 L 1018.12 944.24 L 1019.00 941.72 L 1019.90 939.22 L 1020.80 936.73 L 1021.61 934.22 L 1022.42 931.72 L 1023.22 929.23 L 1024.00 926.75 L 1024.79 924.27 L 1025.52 921.80 L 1026.22 919.32 L 1026.91 916.86 L 1027.64 914.41 L 1028.33 911.97 L 1029.05 909.55 L 1029.75 907.13 L 1030.57 904.76 L 1031.38 902.40 L 1032.19 900.05 L 1032.98 897.70 L 1033.77 895.37 L 1034.54 893.04 L 1035.30 890.72 L 1036.07 888.41 L 1036.77 886.10 L 1037.45 883.80 L 1038.07 881.49 L 1038.70 879.20 L 1039.33 876.92 L 1040.03 874.66 L 1040.69 872.41 L 1041.35 870.15 L 1041.98 867.90 L 1042.62 865.67 L 1043.35 863.48 L 1044.05 861.29 L 1044.73 859.10 L 1045.46 856.93 L 1046.21 854.78 L 1046.96 852.65 L 1047.74 850.55 L 1048.45 848.44 L 1049.18 846.36 L 1049.96 844.30 L 1050.74 842.26 L 1051.51 840.21 L 1052.28 838.17 L 1053.05 836.14 L 1053.83 834.12 L 1054.62 832.13 L 1055.40 830.13 L 1056.22 828.15 L 1057.06 826.18 L 1057.89 824.22 L 1058.69 822.25 L 1059.51 820.29 L 1060.38 818.36 L 1061.25 816.44 L 1062.12 814.52 L 1063.02 812.64 L 1063.94 810.77 L 1064.79 808.91 L 1065.65 807.04 L 1066.50 805.19" stroke="rgb(140,255,190)" stroke-opacity="0.528" stroke-width="1.10" />
  <path d="M 1013.82 910.65 L 1014.16 908.11 L 1014.53 905.61 L 1014.85 903.12 L 1015.10 900.64 L 1015.35 898.15 L 1015.61 895.67 L 1015.87 893.20 L 1015.82 890.72 L 1015.80 888.26 L 1015.78 885.77 L 1015.78 883.32 L 1015.90 880.93 L 1016.02 878.54 L 1016.14 876.16 L 1016.24 873.78 L 1016.35 871.48 L 1016.52 869.15 L 1016.81 866.87 L 1017.06 864.60 L 1017.29 862.30 L 1017.52 860.01" stroke="rgb(140,255,190)" stroke-opacity="0.527" stroke-width="1.10" />
  <path d="M 1014.44 931.28 L 1015.47 928.73 L 1016.46 926.19 L 1017.46 923.69 L 1018.45 921.14 L 1019.59 918.66 L 1020.69 916.21 L 1021.79 913.79 L 1022.70 911.31 L 1023.65 908.84 L 1024.53 906.37 L 1025.62 903.97 L 1026.69 901.56 L 1027.70 899.09 L 1028.66 896.56 L 1029.62 894.04 L 1030.52 891.50 L 1031.41 888.98 L 1032.30 886.45 L 1033.18 883.92 L 1034.08 881.42 L 1035.00 878.94 L 1035.90 876.48 L 1036.88 874.06 L 1037.81 871.64 L 1038.77 869.23 L 1039.76 866.88 L 1040.76 864.54 L 1041.76 862.26 L 1042.77 859.99 L 1043.80 857.72 L 1044.81 855.46 L 1045.82 853.21 L 1046.86 850.96 L 1047.88 848.71 L 1048.90 846.46 L 1049.85 844.20 L 1050.81 841.94 L 1051.79 839.68 L 1052.80 837.42 L 1053.81 835.18 L 1054.83 832.96 L 1055.84 830.75 L 1056.85 828.54 L 1057.86 826.36 L 1058.83 824.16" stroke="rgb(140,255,190)" stroke-opacity="0.526" stroke-width="1.10" />
  <path d="M 1015.29 959.68 L 1017.15 957.93 L 1019.02 956.21 L 1020.80 954.40 L 1022.59 952.59 L 1024.25 950.69 L 1025.93 948.80 L 1027.58 946.89 L 1029.28 945.04 L 1030.92 943.15 L 1032.51 941.25 L 1034.05 939.34 L 1035.66 937.48 L 1037.29 935.65 L 1038.94 933.86 L 1040.58 932.10 L 1042.28 930.43 L 1044.00 928.80 L 1045.68 927.15 L 1047.29 925.45 L 1048.85 923.72 L 1050.41 922.00 L 1051.95 920.29" stroke="rgb(140,255,190)" stroke-opacity="0.526" stroke-width="1.10" />
  <path d="M 1009.06 953.60 L 1010.30 951.03 L 1011.52 948.46 L 1012.63 945.87 L 1013.83 943.34 L 1015.02 940.81 L 1016.21 938.30 L 1017.39 935.79 L 1018.57 933.29 L 1019.72 930.78 L 1020.84 928.29 L 1021.90 925.76 L 1022.96 923.25 L 1024.00 920.75 L 1025.08 918.28 L 1026.20 915.82 L 1027.30 913.39 L 1028.43 911.00 L 1029.58 908.62 L 1030.72 906.27 L 1031.85 903.92 L 1032.98 901.59 L 1034.14 899.26 L 1035.27 896.92 L 1036.46 894.61 L 1037.64 892.30 L 1038.81 890.01 L 1040.11 887.79 L 1041.39 885.59 L 1042.66 883.40 L 1043.93 881.22 L 1045.17 879.05 L 1046.40 876.87 L 1047.55 874.69 L 1048.64 872.54 L 1049.71 870.39 L 1050.74 868.27 L 1051.78 866.18 L 1052.82 864.10 L 1053.85 862.05" stroke="rgb(140,255,190)" stroke-opacity="0.526" stroke-width="1.10" />
  <path d="M 999.71 999.28 L 1000.39 996.42 L 1001.02 993.55 L 1001.70 990.71 L 1002.25 987.86 L 1002.82 985.03 L 1003.46 982.22 L 1004.13 979.43 L 1004.79 976.65 L 1005.44 973.87 L 1005.96 971.08 L 1006.46 968.30 L 1006.94 965.52 L 1007.36 962.75 L 1007.80 960.00 L 1008.20 957.25 L 1008.60 954.51 L 1008.99 951.77 L 1009.38 949.05 L 1009.84 946.36 L 1010.25 943.66 L 1010.67 940.98 L 1011.07 938.30 L 1011.46 935.64 L 1011.91 932.99 L 1012.39 930.36 L 1012.90 927.74 L 1013.33 925.13 L 1013.76 922.52 L 1014.22 919.93 L 1014.70 917.35 L 1015.09 914.77 L 1015.41 912.19 L 1015.81 909.63 L 1016.20 907.08 L 1016.58 904.54 L 1016.98 902.01 L 1017.38 899.49 L 1017.80 896.99 L 1018.19 894.49 L 1018.59 892.00 L 1019.00 889.53 L 1019.45 887.07 L 1019.93 884.63 L 1020.43 882.20 L 1020.91 879.78 L 1021.40 877.37 L 1021.84 874.96" stroke="rgb(140,255,190)" stroke-opacity="0.526" stroke-width="1.10" />
  <path d="M 1039.68 907.45 L 1041.33 905.50 L 1043.03 903.59 L 1044.68 901.66 L 1046.27 899.64 L 1047.88 897.67 L 1049.48 895.69 L 1051.00 893.71 L 1052.53 891.74 L 1054.05 889.78 L 1055.60 887.87 L 1057.24 886.06 L 1058.83 884.20 L 1060.42 882.35 L 1062.00 880.44 L 1063.69 878.60 L 1065.37 876.78 L 1067.08 874.91 L 1068.74 873.02 L 1070.40 871.15 L 1072.04 869.29 L 1073.65 867.39 L 1075.26 865.50 L 1076.88 863.59 L 1078.48 861.69 L 1080.06 859.79 L 1081.55 857.86 L 1083.04 855.93 L 1084.52 854.02 L 1086.03 852.14 L 1087.53 850.24 L 1089.06 848.38 L 1090.51 846.47 L 1091.96 844.58 L 1093.41 842.68 L 1094.89 840.82 L 1096.27 838.91 L 1097.67 837.04 L 1099.11 835.20 L 1100.47 833.36 L 1101.87 831.55 L 1103.28 829.75 L 1104.68 827.94 L 1106.17 826.23 L 1107.63 824.52 L 1109.13 822.83 L 1110.61 821.15 L 1112.07 819.48 L 1113.53 817.81 L 1114.98 816.15 L 1116.44 814.50 L 1117.94 812.91 L 1119.45 811.35 L 1120.95 809.79 L 1122.46 808.27 L 1123.92 806.75 L 1125.38 805.24 L 1126.70 803.66 L 1127.97 802.07 L 1129.18 800.46 L 1130.34 798.83 L 1131.47 797.20 L 1132.63 795.60 L 1133.79 794.01 L 1135.03 792.44" stroke="rgb(140,255,190)" stroke-opacity="0.526" stroke-width="1.10" />
  <path d="M 1000.01 997.76 L 1000.15 998.08 L 1000.25 998.28 L 1000.36 998.48 L 1000.55 998.75 L 1000.74 999.01 L 1000.92 999.26 L 1000.96 999.55 L 1001.00 999.80 L 1001.06 1000.14 L 1001.09 1000.53 L 1001.11 1000.91 L 1001.11 1001.39 L 1001.13 1001.76 L 1001.18 1002.13 L 1001.22 1002.51 L 1001.30 1002.85 L 1001.38 1003.14 L 1001.54 1003.38 L 1001.73 1003.75 L 1001.92 1004.16 L 1002.11 1004.58 L 1002.30 1005.00 L 1002.53 1005.45 L 1002.79 1005.88 L 1003.06 1006.31 L 1003.25 1006.77 L 1003.41 1007.21 L 1003.57 1007.68 L 1003.74 1008.15 L 1003.90 1008.55" stroke="rgb(205,165,255)" stroke-opacity="0.464" stroke-width="1.09" />
  <path d="M 999.10 1003.01 L 1000.61 1004.10 L 1002.13 1005.18 L 1003.66 1006.25 L 1005.08 1007.40 L 1006.53 1008.52 L 1007.97 1009.62 L 1009.40 1010.67 L 1010.85 1011.73 L 1012.28 1012.87 L 1013.69 1014.03 L 1015.10 1015.15 L 1016.53 1016.30 L 1017.94 1017.42 L 1019.32 1018.52 L 1020.76 1019.65 L 1022.16 1020.71 L 1023.53 1021.79 L 1024.96 1022.83 L 1026.36 1023.87 L 1027.72 1024.93 L 1029.09 1025.98 L 1030.44 1026.98 L 1031.78 1027.98 L 1033.18 1029.06 L 1034.57 1030.19 L 1035.97 1031.29 L 1037.30 1032.35 L 1038.74 1033.38 L 1040.18 1034.42 L 1041.63 1035.43 L 1043.08 1036.43 L 1044.53 1037.31 L 1046.07 1038.25 L 1047.61 1039.21 L 1049.18 1040.14 L 1050.82 1040.98 L 1052.45 1041.82 L 1054.14 1042.64 L 1055.84 1043.42 L 1057.53 1044.20 L 1059.21 1044.97 L 1060.88 1045.68 L 1062.63 1046.30 L 1064.35 1046.84 L 1066.08 1047.38 L 1067.80 1047.94 L 1069.51 1048.49 L 1071.19 1049.05 L 1072.90 1049.52 L 1074.62 1050.01 L 1076.34 1050.55 L 1078.08 1051.06 L 1079.82 1051.60 L 1081.55 1052.14 L 1083.26 1052.68 L 1084.97 1053.24 L 1086.70 1053.83 L 1088.46 1054.36 L 1090.17 1054.88 L 1091.87 1055.41 L 1093.60 1055.89 L 1095.32 1056.41 L 1097.00 1056.99 L 1098.66 1057.55 L 1100.33 1058.17 L 1101.99 1058.79 L 1103.67 1059.31 L 1105.35 1059.78 L 1107.05 1060.18 L 1108.75 1060.59 L 1110.47 1060.98 L 1112.17 1061.38 L 1113.86 1061.78 L 1115.56 1062.05 L 1117.27 1062.33 L 1119.01 1062.55 L 1120.75 1062.78 L 1122.46 1062.99 L 1124.18 1063.18 L 1125.91 1063.48" stroke="rgb(205,165,255)" stroke-opacity="0.464" stroke-width="1.09" />
  <path d="M 1018.03 954.03 L 1018.91 951.48 L 1019.77 948.93 L 1020.54 946.35 L 1021.31 943.78 L 1022.09 941.22 L 1022.86 938.70 L 1023.65 936.20 L 1024.41 933.68 L 1025.13 931.16 L 1025.85 928.64 L 1026.68 926.17 L 1027.62 923.77 L 1028.56 921.38 L 1029.48 918.99 L 1030.37 916.59 L 1031.26 914.22 L 1032.09 911.83 L 1032.91 909.45 L 1033.71 907.06 L 1034.43 904.66 L 1035.23 902.30 L 1036.06 899.96 L 1036.90 897.63 L 1037.58 895.25 L 1038.28 892.89 L 1039.02 890.53 L 1039.76 888.17 L 1040.66 885.88 L 1041.58 883.60 L 1042.50 881.33 L 1043.34 879.03 L 1044.22 876.75" stroke="rgb(140,255,190)" stroke-opacity="0.524" stroke-width="1.09" />
  <path d="M 997.26 1000.33 L 997.83 997.66 L 998.39 995.02 L 998.96 992.40 L 999.57 989.79 L 1000.08 987.18 L 1000.64 984.60 L 1001.20 982.03 L 1001.75 979.48 L 1002.34 976.97 L 1002.95 974.48 L 1003.48 971.97 L 1003.91 969.47 L 1004.45 967.00 L 1004.98 964.54 L 1005.46 962.08 L 1005.95 959.64 L 1006.44 957.20 L 1006.94 954.77 L 1007.40 952.37 L 1007.83 949.97 L 1008.28 947.57 L 1008.65 945.16 L 1009.05 942.77 L 1009.48 940.40 L 1009.92 938.07 L 1010.34 935.76 L 1010.76 933.45 L 1011.19 931.13 L 1011.63 928.82 L 1012.07 926.53 L 1012.52 924.26 L 1012.97 921.99 L 1013.42 919.74 L 1013.99 917.50 L 1014.69 915.31 L 1015.36 913.09 L 1016.03 910.88 L 1016.67 908.68 L 1017.33 906.52 L 1017.96 904.36 L 1018.62 902.20 L 1019.28 900.05 L 1019.94 897.91 L 1020.59 895.77 L 1021.24 893.63 L 1021.97 891.52 L 1022.68 889.41 L 1023.32 887.31 L 1023.99 885.24 L 1024.65 883.17 L 1025.29 881.11 L 1025.93 879.04 L 1026.57 876.99 L 1027.19 874.93 L 1027.81 872.86 L 1028.41 870.79 L 1029.01 868.73 L 1029.62 866.69 L 1030.23 864.66 L 1030.85 862.65 L 1031.48 860.64 L 1032.13 858.64 L 1032.77 856.66 L 1033.42 854.69 L 1034.07 852.71 L 1034.72 850.75 L 1035.36 848.79 L 1035.99 846.84 L 1036.58 844.88 L 1037.19 842.94 L 1037.88 841.04 L 1038.54 839.14 L 1039.21 837.26 L 1039.86 835.38 L 1040.52 833.51 L 1041.19 831.65 L 1041.85 829.79 L 1042.52 827.94 L 1043.17 826.11" stroke="rgb(140,255,190)" stroke-opacity="0.523" stroke-width="1.09" />
  <path d="M 1041.03 855.63 L 1041.38 852.96 L 1041.66 850.32 L 1041.93 847.69 L 1042.21 845.08 L 1042.40 842.45 L 1042.53 839.83 L 1042.65 837.21 L 1042.74 834.61 L 1042.92 832.04 L 1043.08 829.48 L 1043.21 826.95 L 1043.34 824.42 L 1043.49 821.90 L 1043.56 819.40 L 1043.62 816.90 L 1043.67 814.41 L 1043.74 811.93 L 1043.73 809.47 L 1043.72 807.03 L 1043.61 804.57 L 1043.59 802.13 L 1043.56 799.70 L 1043.48 797.28 L 1043.41 794.84 L 1043.34 792.41 L 1043.28 789.98 L 1043.25 787.56 L 1043.20 785.14 L 1043.14 782.73 L 1043.09 780.33 L 1043.00 777.94 L 1043.12 775.57 L 1043.25 773.22 L 1043.40 770.88 L 1043.62 768.57 L 1043.96 766.32 L 1044.19 764.08 L 1044.41 761.87" stroke="rgb(140,255,190)" stroke-opacity="0.522" stroke-width="1.09" />
  <path d="M 1000.49 1002.35 L 1002.55 1002.76 L 1004.62 1003.18 L 1006.67 1003.62 L 1008.74 1004.07 L 1010.81 1004.54 L 1012.87 1005.02 L 1014.90 1005.47 L 1016.97 1005.87 L 1018.95 1006.34 L 1020.91 1006.88 L 1022.90 1007.37 L 1024.86 1007.80 L 1026.81 1008.21 L 1028.76 1008.65 L 1030.69 1009.08 L 1032.64 1009.51 L 1034.51 1009.98 L 1036.38 1010.41 L 1038.26 1010.86 L 1040.15 1011.28 L 1042.02 1011.73 L 1043.92 1012.11 L 1045.81 1012.48 L 1047.68 1012.78 L 1049.56 1013.14 L 1051.45 1013.45 L 1053.34 1013.81 L 1055.21 1014.17 L 1057.05 1014.58 L 1058.87 1015.08 L 1060.71 1015.53 L 1062.51 1016.00 L 1064.28 1016.51 L 1066.10 1016.90 L 1067.84 1017.44 L 1069.58 1018.00 L 1071.29 1018.54 L 1072.97 1019.06 L 1074.61 1019.64 L 1076.20 1020.25 L 1077.79 1020.94 L 1079.38 1021.64 L 1080.97 1022.32" stroke="rgb(205,165,255)" stroke-opacity="0.456" stroke-width="1.06" />
  <path d="M 1000.98 1000.73 L 1001.79 998.55 L 1002.63 996.40 L 1003.49 994.27 L 1004.25 992.12 L 1004.95 989.98 L 1005.61 987.84 L 1006.24 985.74 L 1006.89 983.68 L 1007.55 981.63 L 1008.17 979.57 L 1008.77 977.52 L 1009.23 975.41 L 1009.57 973.31 L 1009.95 971.22 L 1010.32 969.15 L 1010.67 967.07 L 1011.01 965.01 L 1011.34 962.93 L 1011.67 960.86 L 1011.88 958.79 L 1012.08 956.73 L 1012.30 954.69 L 1012.44 952.68 L 1012.57 950.67 L 1012.70 948.67 L 1012.84 946.74 L 1013.00 944.83 L 1013.17 942.94 L 1013.33 941.06 L 1013.58 939.22 L 1013.71 937.39 L 1013.95 935.56 L 1014.05 933.79 L 1014.15 932.03 L 1014.25 930.28 L 1014.40 928.61 L 1014.51 926.96 L 1014.65 925.31 L 1014.80 923.66 L 1014.88 922.01" stroke="rgb(205,165,255)" stroke-opacity="0.456" stroke-width="1.06" />
  <path d="M 1002.65 997.97 L 1001.99 996.89 L 1001.23 995.97 L 1000.42 995.06 L 999.61 994.15 L 998.94 993.12 L 998.23 992.13 L 997.52 991.15 L 996.77 990.25 L 996.05 989.34" stroke="rgb(230,230,230)" stroke-opacity="0.385" stroke-width="0.71" />
  <path d="M 1001.50 998.08 L 1001.38 997.33 L 1001.15 996.54 L 1001.00 995.76 L 1000.87 994.98 L 1000.53 994.25 L 1000.23 993.46 L 999.99 992.80 L 999.76 992.17 L 999.48 991.54" stroke="rgb(230,230,230)" stroke-opacity="0.380" stroke-width="0.70" />
  <path d="M 997.73 1000.32 L 996.24 1000.48 L 994.75 1000.64 L 993.28 1000.80 L 991.80 1000.95 L 990.33 1001.06 L 988.91 1001.41 L 987.51 1001.80 L 986.20 1002.43 L 984.99 1003.22" stroke="rgb(230,230,230)" stroke-opacity="0.380" stroke-width="0.70" />
  <path d="M 1002.61 1004.57 L 1002.91 1003.33 L 1003.14 1002.10 L 1003.39 1000.89" stroke="rgb(230,230,230)" stroke-opacity="0.378" stroke-width="0.69" />
  <path d="M 1002.25 996.61 L 1003.70 996.87 L 1005.05 997.35 L 1006.41 997.74 L 1007.73 998.21 L 1009.04 998.67" stroke="rgb(230,230,230)" stroke-opacity="0.377" stroke-width="0.69" />
  <path d="M 1000.41 1000.78 L 999.64 1001.10 L 998.80 1001.38 L 998.12 1001.92 L 997.44 1002.34 L 996.82 1002.75 L 996.12 1003.19 L 995.42 1003.64 L 994.57 1004.06 L 993.74 1004.48 L 993.08 1004.69 L 992.38 1004.88 L 991.65 1005.04 L 990.91 1005.41 L 990.53 1005.85 L 990.37 1006.31 L 990.25 1006.78" stroke="rgb(230,230,230)" stroke-opacity="0.377" stroke-width="0.69" />
  <path d="M 1003.88 995.12 L 1004.34 994.07 L 1004.80 993.05 L 1005.19 992.10 L 1005.57 991.15 L 1005.84 990.42 L 1006.19 989.73 L 1006.57 989.03" stroke="rgb(230,230,230)" stroke-opacity="0.373" stroke-width="0.68" />
  <path d="M 1001.19 1005.81 L 1000.30 1006.73 L 999.43 1007.64" stroke="rgb(230,230,230)" stroke-opacity="0.371" stroke-width="0.67" />
  <path d="M 999.00 1002.01 L 1000.49 1002.10 L 1001.96 1002.15 L 1003.42 1002.29 L 1004.84 1002.53 L 1006.25 1002.74 L 1007.64 1002.98 L 1009.01 1003.26 L 1010.36 1003.49" stroke="rgb(230,230,230)" stroke-opacity="0.370" stroke-width="0.67" />
  <path d="M 999.37 998.41 L 999.58 996.94 L 999.72 995.51 L 999.85 994.09 L 999.97 992.64 L 1000.12 991.20 L 1000.23 989.78 L 1000.26 988.37 L 1000.32 986.96 L 1000.37 985.57" stroke="rgb(230,230,230)" stroke-opacity="0.370" stroke-width="0.67" />
  <path d="M 998.23 996.41 L 996.80 996.02 L 995.38 995.59 L 993.92 995.37 L 992.47 995.17 L 991.02 995.03 L 989.57 994.92 L 988.12 994.73 L 986.68 994.54 L 985.24 994.44 L 983.80 994.39 L 982.38 994.44 L 980.96 994.50 L 979.56 994.55 L 978.16 994.54 L 976.78 994.69 L 975.44 994.89" stroke="rgb(230,230,230)" stroke-opacity="0.369" stroke-width="0.66" />
  <path d="M 996.99 992.98 L 998.44 993.07 L 999.86 993.31 L 1001.28 993.50 L 1002.65 993.70 L 1004.01 993.90 L 1005.31 993.99 L 1006.57 994.06 L 1007.85 994.13 L 1009.13 994.29 L 1010.41 994.45 L 1011.69 994.58 L 1013.00 994.65" stroke="rgb(230,230,230)" stroke-opacity="0.364" stroke-width="0.65" />
  <path d="M 999.49 1000.62 L 999.68 999.65 L 999.88 998.77 L 1000.08 997.92" stroke="rgb(230,230,230)" stroke-opacity="0.364" stroke-width="0.65" />
  <path d="M 997.40 997.65 L 996.77 998.81 L 996.27 999.94 L 995.74 1001.05 L 995.09 1002.04 L 994.48 1003.17 L 994.01 1004.30 L 993.49 1005.42 L 993.26 1006.40 L 992.94 1007.43 L 992.48 1008.40 L 992.17 1009.41" stroke="rgb(230,230,230)" stroke-opacity="0.358" stroke-width="0.63" />
  <path d="M 1000.10 1003.02 L 998.96 1002.06 L 997.82 1001.09 L 996.66 1000.15 L 995.51 999.23 L 994.37 998.29 L 993.26 997.36 L 992.25 996.40" stroke="rgb(230,230,230)" stroke-opacity="0.358" stroke-width="0.63" />
  <path d="M 1005.66 998.05 L 1005.46 999.49 L 1005.45 1000.83 L 1005.40 1002.10" stroke="rgb(230,230,230)" stroke-opacity="0.354" stroke-width="0.62" />
  <path d="M 1002.74 997.83 L 1003.58 997.37 L 1004.42 997.07 L 1005.14 996.89 L 1005.61 996.76 L 1006.13 996.62 L 1006.58 996.53" stroke="rgb(230,230,230)" stroke-opacity="0.354" stroke-width="0.62" />
  <path d="M 1005.38 1001.46 L 1006.01 1000.21 L 1006.52 999.03 L 1007.07 997.87" stroke="rgb(230,230,230)" stroke-opacity="0.353" stroke-width="0.62" />
</g>
</svg>
