{
  "asset": {
    "version": "2.0",
    "generator": "TES-23 Cosmic Ray Renderer"
  },
  "extensionsUsed": [
    "KHR_materials_unlit"
  ],
  "extensionsRequired": [
    "KHR_materials_unlit"
  ],
  "scene": 0,
  "scenes": [
    {
      "nodes": [
        0
      ]
    }
  ],
  "nodes": [
    {
      "name": "CosmicRayEvent",
      "mesh": 0
    }
  ],
  "meshes": [
    {
      "name": "CosmicRayEvent",
      "primitives": [
        {
          "attributes": {
            "POSITION": 0
          },
          "material": 0,
          "mode": 1
        },
        {
          "attributes": {
            "POSITION": 1
          },
          "material": 1,
          "mode": 1
        },
        {
          "attributes": {
            "POSITION": 2
          },
          "material": 2,
          "mode": 1
        },
        {
          "attributes": {
            "POSITION": 3
          },
          "material": 3,
          "mode": 1
        },
        {
          "attributes": {
            "POSITION": 4
          },
          "material": 4,
          "mode": 1
        }
      ]
    }
  ],
  "materials": [
    {
      "name": "primary",
      "extensions": {
        "KHR_materials_unlit": {}
      },
      "pbrMetallicRoughness": {
        "baseColorFactor": [
          0.961,
          0.961,
          0.961,
          1
        ],
        "metallicFactor": 0,
        "roughnessFactor": 1
      }
    },
    {
      "name": "vertex",
      "extensions": {
        "KHR_materials_unlit": {}
      },
      "pbrMetallicRoughness": {
        "baseColorFactor": [
          0.902,
          0.902,
          0.902,
          0.9
        ],
        "metallicFactor": 0,
        "roughnessFactor": 1
      }
    },
    {
      "name": "em",
      "extensions": {
        "KHR_materials_unlit": {}
      },
      "pbrMetallicRoughness": {
        "baseColorFactor": [
          0.471,
          0.824,
          1,
          1
        ],
        "metallicFactor": 0,
        "roughnessFactor": 1
      }
    },
    {
      "name": "hadron",
      "extensions": {
        "KHR_materials_unlit": {}
      },
      "pbrMetallicRoughness": {
        "baseColorFactor": [
          0.549,
          1,
          0.745,
          1
        ],
        "metallicFactor": 0,
        "roughnessFactor": 1
      }
    },
    {
      "name": "delta",
      "extensions": {
        "KHR_materials_unlit": {}
      },
      "pbrMetallicRoughness": {
        "baseColorFactor": [
          0.804,
          0.647,
          1,
          1
        ],
        "metallicFactor": 0,
        "roughnessFactor": 1
      }
    }
  ],
  "accessors": [
    {
      "bufferView": 0,
      "byteOffset": 0,
      "componentType": 5126,
      "count": 1890,
      "type": "VEC3",
      "min": [
        -1.0035980939865112,
        -1.0001143217086792,
        0
      ],
      "max": [
        0.982893705368042,
        1.0200011730194092,
        0.019686156883835793
      ]
    },
    {
      "bufferView": 1,
      "byteOffset": 0,
      "componentType": 5126,
      "count": 252,
      "type": "VEC3",
      "min": [
        -0.014693467877805233,
        -0.014254791662096977,
        -0.0007451545097865164
      ],
      "max": [
        0.013181149028241634,
        0.014300747774541378,
        0.0008698223973624408
      ]
    },
    {
      "bufferView": 2,
      "byteOffset": 0,
      "componentType": 5126,
      "count": 432,
      "type": "VEC3",
      "min": [
        -0.13292621076107025,
        -0.0025154228787869215,
        0.00004061226354679093
      ],
      "max": [
        0.0023306601215153933,
        0.13557666540145874,
        0.07003594934940338
      ]
    },
    {
      "bufferView": 3,
      "byteOffset": 0,
      "componentType": 5126,
      "count": 3132,
      "type": "VEC3",
      "min": [
        -0.2905917465686798,
        -0.21634510159492493,
        0.00004448151230462827
      ],
      "max": [
        0.14854121208190918,
        0.29267439246177673,
        0.08923747390508652
      ]
    },
    {
      "bufferView": 4,
      "byteOffset": 0,
      "componentType": 5126,
      "count": 1024,
      "type": "VEC3",
      "min": [
        -0.22173790633678436,
        -0.07905101031064987,
        0.00011142907897010446
      ],
      "max": [
        0.04665495827794075,
        0.23616592586040497,
        0.047751154750585556
      ]
    }
  ],
  "bufferViews": [
    {
      "buffer": 0,
      "byteOffset": 0,
      "byteLength": 22680,
      "target": 34962
    },
    {
      "buffer": 0,
      "byteOffset": 22680,
      "byteLength": 3024,
      "target": 34962
    },
    {
      "buffer": 0,
      "byteOffset": 25704,
      "byteLength": 5184,
      "target": 34962
    },
    {
      "buffer": 0,
      "byteOffset": 30888,
      "byteLength": 37584,
      "target": 34962
    },
    {
      "buffer": 0,
      "byteOffset": 68472,
      "byteLength": 12288,
      "target": 34962
    }
  ],
  "buffers": [
    {
      "byteLength": 80760,
      "uri": "data:application/octet-stream;base64,"
    }
  ]
}