<?xml version="1.0" encoding="UTF-8"?>
<svg xmlns="http://www.w3.org/2000/svg" width="2000" height="2000" viewBox="0 0 2000 2000">
<g fill="none" stroke-linecap="round" stroke-linejoin="round">
  <path d="M 2000.05 1488.71 L 1997.15 1486.99 L 1994.79 1485.51 L 1991.48 1484.72 L 1989.01 1482.93 L 1986.20 1481.96 L 1983.99 1480.06 L 1981.05 1478.85 L 1978.21 1477.67 L 1975.96 1476.77 L 1972.67 1475.37 L 1970.10 1474.05 L 1967.65 1473.19 L 1965.28 1471.09 L 1962.45 1470.11 L 1960.06 1468.96 L 1957.01 1467.44 L 1954.58 1466.00 L 1951.50 1464.86 L 1948.96 1463.02 L 1946.30 1462.13 L 1943.32 1461.06 L 1940.96 1459.54 L 1937.84 1458.35 L 1935.51 1456.86 L 1932.66 1455.51 L 1929.96 1454.08 L 1927.43 1452.95 L 1924.58 1451.72 L 1922.09 1450.23 L 1919.30 1448.78 L 1916.77 1447.77 L 1913.81 1446.17 L 1910.99 1445.11 L 1908.90 1443.67 L 1905.74 1442.45 L 1902.66 1441.03 L 1900.13 1440.16 L 1898.02 1438.38 L 1894.69 1436.92 L 1891.78 1435.61 L 1889.60 1434.78 L 1886.89 1433.35 L 1884.04 1431.62 L 1881.50 1430.59 L 1878.79 1429.47 L 1876.09 1428.12 L 1873.26 1426.97 L 1870.80 1425.26 L 1867.64 1423.63 L 1865.04 1422.30 L 1862.46 1421.60 L 1860.31 1420.29 L 1857.13 1419.17 L 1854.82 1417.38 L 1852.24 1416.44 L 1848.64 1414.39 L 1846.29 1413.79 L 1843.53 1412.45 L 1840.70 1410.41 L 1838.44 1409.98 L 1835.14 1408.24 L 1833.18 1407.03 L 1829.67 1405.33 L 1827.60 1403.90 L 1824.70 1402.40 L 1821.92 1401.06 L 1819.35 1400.11 L 1816.67 1398.44 L 1814.07 1397.99 L 1810.90 1396.03 L 1808.50 1394.95 L 1806.08 1393.87 L 1803.60 1392.19 L 1800.55 1390.77 L 1797.75 1389.29 L 1795.20 1388.41 L 1792.45 1386.84 L 1789.42 1385.61 L 1787.01 1384.29 L 1784.36 1383.44 L 1781.69 1381.99 L 1778.91 1380.56 L 1776.05 1378.95 L 1773.82 1377.91 L 1770.81 1376.63 L 1768.05 1375.38 L 1765.38 1373.96 L 1762.96 1372.37 L 1760.32 1371.03 L 1757.54 1369.88 L 1754.81 1368.34 L 1751.96 1367.07 L 1749.41 1366.06 L 1746.75 1364.68 L 1744.35 1363.39 L 1741.43 1361.84 L 1738.45 1360.73 L 1735.81 1359.45 L 1733.32 1358.03 L 1730.36 1356.38 L 1727.78 1355.69 L 1724.83 1354.14 L 1722.10 1352.88 L 1719.85 1351.59 L 1717.32 1350.42 L 1714.25 1349.16 L 1711.42 1347.51 L 1708.63 1346.23 L 1706.38 1345.38 L 1703.39 1343.93 L 1700.41 1342.35 L 1698.39 1340.84 L 1695.41 1339.65 L 1692.60 1338.14 L 1689.79 1337.27 L 1687.48 1335.78 L 1684.84 1334.53 L 1681.80 1333.11 L 1679.37 1331.98 L 1676.41 1330.28 L 1673.49 1329.32 L 1671.17 1327.90 L 1668.26 1326.32 L 1665.89 1325.35 L 1663.01 1324.06 L 1660.16 1322.61 L 1657.65 1321.21 L 1655.03 1319.79 L 1652.49 1318.80 L 1649.38 1317.26 L 1646.39 1316.41 L 1644.21 1314.94 L 1641.41 1313.40 L 1638.34 1311.85 L 1635.77 1310.77 L 1633.70 1309.30 L 1630.45 1308.16 L 1628.25 1307.14 L 1624.97 1305.86 L 1622.82 1304.05 L 1620.27 1302.40 L 1617.38 1301.57 L 1614.77 1300.17 L 1611.57 1298.81 L 1609.36 1297.71 L 1606.49 1296.21 L 1603.67 1294.65 L 1600.73 1293.94 L 1598.12 1292.93 L 1595.65 1290.99 L 1592.66 1289.64 L 1590.30 1288.27 L 1587.96 1287.10 L 1584.57 1285.55 L 1582.25 1284.11 L 1579.62 1283.30 L 1576.96 1281.86 L 1573.94 1280.27 L 1571.23 1279.15 L 1568.75 1278.02 L 1566.19 1276.29 L 1563.41 1275.51 L 1560.30 1273.82 L 1558.13 1272.71 L 1555.27 1271.46 L 1552.76 1270.06 L 1549.77 1268.44 L 1547.34 1267.34 L 1544.46 1265.72 L 1541.95 1264.35 L 1539.30 1263.48 L 1536.21 1261.91 L 1533.31 1261.05 L 1530.73 1259.16 L 1528.43 1257.88 L 1525.42 1257.08 L 1522.74 1255.57 L 1520.31 1253.89 L 1517.57 1252.76 L 1514.74 1251.76 L 1512.14 1250.52 L 1509.59 1248.85 L 1506.81 1247.74 L 1504.57 1245.86 L 1501.25 1245.33 L 1498.58 1243.52 L 1496.08 1242.00 L 1493.02 1241.12 L 1490.82 1239.71 L 1487.95 1238.35 L 1485.12 1236.77 L 1482.16 1235.54 L 1479.78 1234.39 L 1476.95 1233.01 L 1474.11 1231.55 L 1471.90 1230.77 L 1468.81 1228.92 L 1466.10 1227.82 L 1463.70 1226.10 L 1461.01 1225.46 L 1458.45 1223.94 L 1455.65 1222.90 L 1452.87 1221.05 L 1449.96 1219.88 L 1447.46 1218.43 L 1444.55 1217.58 L 1442.09 1215.96 L 1439.48 1214.42 L 1437.01 1213.29 L 1434.00 1211.77 L 1430.70 1210.51 L 1428.76 1209.59 L 1425.97 1208.01 L 1423.24 1206.40 L 1420.34 1205.56 L 1417.83 1204.34 L 1415.04 1202.74 L 1412.75 1201.49 L 1409.59 1200.37 L 1406.86 1198.94 L 1404.36 1197.66 L 1401.60 1196.28 L 1399.31 1194.54 L 1396.10 1193.92 L 1393.44 1192.15 L 1391.02 1191.14 L 1388.41 1189.19 L 1385.04 1188.42 L 1383.07 1186.83 L 1380.18 1185.21 L 1377.25 1184.36 L 1374.76 1182.86 L 1372.24 1181.25 L 1369.37 1180.15 L 1366.74 1178.78 L 1363.86 1177.59 L 1360.93 1176.57 L 1358.49 1175.27 L 1355.78 1173.89 L 1353.01 1172.53 L 1350.10 1171.28 L 1347.88 1169.93 L 1345.08 1168.23 L 1342.06 1167.16 L 1339.43 1165.81 L 1336.90 1164.67 L 1333.82 1163.25 L 1331.60 1161.68 L 1328.94 1160.30 L 1326.24 1159.55 L 1323.41 1158.58 L 1320.87 1156.79 L 1318.11 1155.42 L 1315.47 1153.97 L 1312.79 1152.78 L 1310.03 1151.69 L 1307.03 1149.96 L 1304.35 1148.56 L 1301.80 1147.81 L 1298.79 1146.25 L 1296.49 1144.60 L 1293.84 1143.32 L 1291.09 1142.39 L 1288.46 1141.17 L 1285.58 1139.72 L 1283.18 1138.10 L 1280.36 1136.90 L 1277.51 1135.45 L 1274.93 1134.56 L 1272.36 1132.78 L 1269.74 1132.01 L 1267.12 1129.95 L 1264.28 1129.26 L 1261.15 1127.67 L 1258.71 1126.65 L 1256.42 1124.82 L 1253.25 1124.00 L 1250.77 1122.13 L 1247.89 1121.25 L 1244.70 1119.67 L 1242.41 1118.32 L 1239.97 1116.84 L 1237.04 1115.69 L 1234.40 1114.43 L 1231.91 1113.28 L 1229.04 1111.63 L 1226.46 1110.74 L 1223.61 1109.24 L 1220.59 1108.18 L 1218.47 1106.29 L 1215.64 1105.50 L 1212.80 1103.36 L 1209.95 1102.49 L 1207.82 1101.50 L 1204.92 1100.18 L 1202.02 1098.74 L 1199.15 1097.41 L 1196.91 1096.02 L 1193.94 1094.79 L 1191.36 1093.84 L 1188.78 1092.24 L 1185.81 1090.96 L 1183.48 1089.38 L 1180.55 1088.24 L 1177.85 1087.25 L 1174.96 1085.64 L 1172.73 1084.19 L 1169.96 1082.83 L 1167.17 1081.57 L 1164.29 1079.98 L 1161.89 1079.40 L 1159.67 1077.76 L 1156.15 1076.43 L 1153.57 1075.35 L 1150.61 1073.75 L 1147.96 1072.27 L 1145.83 1071.19 L 1142.57 1069.67 L 1140.29 1068.24 L 1137.36 1066.92 L 1134.87 1065.79 L 1132.14 1064.45 L 1129.36 1063.29 L 1126.37 1062.23 L 1123.73 1060.84 L 1121.15 1058.98 L 1118.55 1057.94 L 1115.98 1056.63 L 1113.03 1055.48 L 1110.57 1053.85 L 1107.62 1052.33 L 1105.33 1051.16 L 1102.57 1050.39 L 1099.81 1049.07 L 1096.65 1047.58 L 1094.20 1045.88 L 1091.78 1044.87 L 1089.23 1043.12 L 1086.18 1042.14 L 1083.77 1040.83 L 1080.97 1039.45 L 1078.20 1038.43 L 1075.43 1036.84 L 1072.74 1035.55 L 1070.14 1034.52 L 1067.14 1032.78 L 1064.78 1031.38 L 1062.17 1030.38 L 1058.98 1029.14 L 1057.01 1027.65 L 1053.91 1026.46 L 1051.18 1024.90 L 1048.77 1023.65 L 1045.53 1022.58 L 1043.29 1021.07 L 1040.30 1019.81 L 1037.82 1018.57 L 1035.08 1016.97 L 1031.82 1015.67 L 1029.67 1014.79 L 1027.16 1013.16 L 1024.40 1011.63 L 1021.24 1010.32 L 1018.92 1008.84 L 1015.92 1007.93 L 1013.59 1006.53 L 1010.64 1005.07 L 1007.65 1003.86 L 1005.05 1002.41 L 1002.62 1001.32 L 1000.00 1000.00 L 997.30 998.68 L 994.61 997.35 L 991.93 996.02 L 989.23 994.70 L 986.54 993.37 L 983.85 992.04 L 981.16 990.71 L 978.48 989.37 L 975.81 988.01 L 973.15 986.62 L 970.50 985.21 L 967.85 983.80 L 965.21 982.39 L 962.55 980.99 L 959.90 979.60 L 957.25 978.19 L 954.59 976.79 L 951.94 975.39 L 949.28 974.00 L 946.62 972.61 L 943.96 971.23 L 941.29 969.86 L 938.62 968.49 L 935.95 967.13 L 933.28 965.75 L 930.62 964.37 L 927.95 963.00 L 925.29 961.61 L 922.64 960.21 L 919.98 958.82 L 917.31 957.45 L 914.64 956.08 L 911.96 954.73 L 909.28 953.39 L 906.59 952.05 L 903.92 950.70 L 901.24 949.34 L 898.57 947.97 L 895.90 946.60 L 893.24 945.23 L 890.58 943.83 L 887.95 942.39 L 885.32 940.95 L 882.69 939.50 L 880.07 938.04 L 877.43 936.62 L 874.79 935.18 L 872.15 933.77 L 869.50 932.36 L 866.85 930.96 L 864.20 929.55 L 861.56 928.13 L 858.91 926.73 L 856.25 925.34 L 853.58 923.97 L 850.90 922.62 L 848.22 921.26 L 845.54 919.92 L 842.84 918.61 L 840.14 917.30 L 837.45 915.97 L 834.75 914.66 L 832.04 913.37 L 829.34 912.08 L 826.64 910.77 L 823.94 909.46 L 821.23 908.17 L 818.52 906.89 L 815.80 905.62 L 813.07 904.37 L 810.35 903.12 L 807.62 901.86 L 804.90 900.61 L 802.16 899.37 L 799.44 898.12 L 796.71 896.87 L 793.98 895.63 L 791.25 894.38 L 788.52 893.13 L 785.79 891.88 L 783.08 890.61 L 780.36 889.33 L 777.65 888.05 L 774.93 886.78 L 772.23 885.49 L 769.53 884.18 L 766.82 882.87 L 764.12 881.57 L 761.41 880.29 L 758.70 879.00 L 755.99 877.72 L 753.27 876.45 L 750.55 875.18 L 747.84 873.90 L 745.12 872.62 L 742.42 871.33 L 739.71 870.05 L 736.99 868.77 L 734.29 867.46 L 731.57 866.19 L 728.86 864.92 L 726.13 863.66 L 723.41 862.41 L 720.68 861.16 L 717.95 859.91 L 715.23 858.65 L 712.51 857.38 L 709.79 856.11 L 707.07 854.86 L 704.34 853.61 L 701.62 852.34 L 698.90 851.07 L 696.18 849.81 L 693.46 848.54 L 690.74 847.28 L 688.02 846.01 L 685.29 844.77 L 682.55 843.54 L 679.81 842.32 L 677.07 841.10 L 674.34 839.86 L 671.61 838.61 L 668.89 837.36 L 666.16 836.10 L 663.45 834.82 L 660.73 833.55 L 658.02 832.26 L 655.31 830.98 L 652.61 829.68 L 649.89 828.41 L 647.19 827.11 L 644.48 825.81 L 641.78 824.51 L 639.07 823.22 L 636.36 821.94 L 633.66 820.63 L 630.96 819.32 L 628.26 818.00 L 625.58 816.67 L 622.89 815.34 L 620.19 814.03 L 617.50 812.70 L 614.82 811.35 L 612.14 810.00 L 609.46 808.65 L 606.78 807.30 L 604.11 805.94 L 601.42 804.60 L 598.73 803.28 L 596.03 801.96 L 593.34 800.65 L 590.64 799.34 L 587.94 798.02 L 585.24 796.72 L 582.55 795.40 L 579.86 794.07 L 577.15 792.77 L 574.44 791.49 L 571.73 790.20 L 569.01 788.94 L 566.30 787.65 L 563.60 786.35 L 560.90 785.04 L 558.20 783.73 L 555.51 782.40 L 552.82 781.06 L 550.15 779.70 L 547.48 778.33 L 544.82 776.95 L 542.16 775.57 L 539.50 774.18 L 536.84 772.79 L 534.19 771.38 L 531.55 769.96 L 528.90 768.54 L 526.25 767.14 L 523.60 765.74 L 520.96 764.32 L 518.31 762.90 L 515.68 761.47 L 513.03 760.06 L 510.38 758.65 L 507.73 757.25 L 505.07 755.86 L 502.41 754.48 L 499.75 753.09 L 497.09 751.70 L 494.42 750.32 L 491.76 748.94 L 489.09 747.58 L 486.42 746.21 L 483.74 744.86 L 481.06 743.50 L 478.40 742.13 L 475.73 740.74 L 473.07 739.37 L 470.40 738.00 L 467.74 736.62 L 465.07 735.24 L 462.40 733.88 L 459.73 732.52 L 457.06 731.14 L 454.39 729.77 L 451.72 728.40 L 449.05 727.04 L 446.39 725.65 L 443.74 724.25 L 441.08 722.86 L 438.42 721.46 L 435.78 720.04 L 433.14 718.62 L 430.51 717.17 L 427.88 715.73 L 425.25 714.29 L 422.61 712.86 L 419.98 711.43 L 417.34 710.00 L 414.70 708.57 L 412.05 707.16 L 409.39 705.78 L 406.72 704.41 L 404.04 703.07 L 401.36 701.72 L 398.67 700.38 L 395.98 699.06 L 393.29 697.73 L 390.60 696.39 L 387.92 695.05 L 385.24 693.71 L 382.55 692.38 L 379.85 691.06 L 377.16 689.73 L 374.47 688.41 L 371.77 687.10 L 369.08 685.78 L 366.39 684.46 L 363.69 683.15 L 360.98 681.85 L 358.29 680.53 L 355.59 679.22 L 352.89 677.90 L 350.20 676.58 L 347.50 675.28 L 344.80 673.97 L 342.10 672.66 L 339.40 671.34 L 336.72 670.00 L 334.03 668.67 L 331.34 667.35 L 328.65 666.02 L 325.95 664.70 L 323.27 663.37 L 320.57 662.04 L 317.88 660.73 L 315.18 659.41 L 312.49 658.10 L 309.78 656.80 L 307.09 655.48 L 304.39 654.17 L 301.69 652.86 L 299.00 651.52 L 296.32 650.18 L 293.64 648.84 L 290.94 647.53 L 288.23 646.24 L 285.52 644.96 L 282.81 643.67 L 280.10 642.37 L 277.39 641.08 L 274.68 639.80 L 271.96 638.54 L 269.23 637.29 L 266.50 636.05 L 263.77 634.81 L 261.04 633.57 L 258.31 632.33 L 255.57 631.09 L 252.85 629.83 L 250.14 628.55 L 247.41 627.30 L 244.70 626.02 L 241.99 624.74 L 239.28 623.43 L 236.57 622.15 L 233.86 620.86 L 231.17 619.53 L 228.49 618.18 L 225.81 616.84 L 223.12 615.51 L 220.44 614.17 L 217.75 612.84 L 215.06 611.51 L 212.37 610.19 L 209.67 608.88 L 206.97 607.58 L 204.27 606.26 L 201.58 604.93 L 198.89 603.60 L 196.20 602.27 L 193.52 600.93 L 190.84 599.59 L 188.16 598.23 L 185.47 596.90 L 182.80 595.54 L 180.12 594.19 L 177.44 592.83 L 174.78 591.46 L 172.11 590.09 L 169.44 588.71 L 166.78 587.33 L 164.11 585.96 L 161.43 584.60 L 158.76 583.25 L 156.08 581.89 L 153.42 580.50 L 150.75 579.14 L 148.07 577.78 L 145.40 576.43 L 142.71 575.10 L 140.02 573.77 L 137.33 572.44 L 134.64 571.11 L 131.95 569.79 L 129.25 568.48 L 126.54 567.18 L 123.83 565.89 L 121.13 564.60 L 118.43 563.30 L 115.73 561.98 L 113.03 560.67 L 110.33 559.36 L 107.64 558.03 L 104.96 556.70 L 102.28 555.34 L 99.60 553.98 L 96.92 552.64 L 94.24 551.30 L 91.56 549.95 L 88.88 548.60 L 86.20 547.25 L 83.52 545.91 L 80.84 544.55 L 78.17 543.19 L 75.51 541.79 L 72.85 540.41 L 70.19 539.01 L 67.53 537.63 L 64.86 536.26 L 62.19 534.90 L 59.54 533.50 L 56.87 532.13 L 54.19 530.77 L 51.52 529.40 L 48.85 528.04 L 46.17 526.70 L 43.49 525.35 L 40.80 524.02 L 38.12 522.67 L 35.45 521.31 L 32.77 519.95 L 30.09 518.60 L 27.40 517.27 L 24.72 515.92 L 22.04 514.58 L 19.36 513.24 L 16.68 511.89 L 14.00 510.54 L 11.32 509.19 L 8.64 507.84 L 5.96 506.50 L 3.28 505.14 L 0.60 503.80 L -2.09 502.46 L -4.76 501.11 L -7.44 499.75 L -10.13 498.42 L -12.82 497.10 L -15.51 495.77 L -18.20 494.44 L -20.88 493.10" stroke="rgb(245,245,245)" stroke-opacity="0.980" stroke-width="1.96" />
  <path d="M 997.63 1002.81 L 994.58 1001.31 L 991.55 999.79 L 988.54 998.26 L 985.52 996.79" stroke="rgb(120,210,255)" stroke-opacity="0.852" stroke-width="1.63" />
  <path d="M 997.31 997.78 L 994.22 996.28 L 991.15 994.77 L 988.09 993.27 L 985.07 991.72 L 982.06 990.17 L 979.06 988.64 L 976.08 987.11 L 973.09 985.64 L 970.09 984.20 L 967.10 982.78 L 964.11 981.39 L 961.13 980.01 L 958.16 978.62 L 955.21 977.23 L 952.29 975.82 L 949.38 974.42 L 946.48 973.01 L 943.59 971.61 L 940.72 970.21 L 937.86 968.81 L 935.02 967.42 L 932.16 966.09 L 929.31 964.75 L 926.48 963.41 L 923.65 962.08 L 920.84 960.76 L 918.03 959.47 L 915.23 958.18 L 912.43 956.93 L 909.61 955.74 L 906.82 954.53 L 904.03 953.33 L 901.26 952.14 L 898.47 950.99 L 895.71 949.85 L 892.95 948.70 L 890.21 947.56 L 887.47 946.43 L 884.76 945.28 L 882.06 944.11 L 879.38 942.95 L 876.70 941.80 L 874.04 940.65 L 871.39 939.50 L 868.75 938.34 L 866.13 937.18 L 863.50 936.06 L 860.89 934.94 L 858.30 933.81 L 855.71 932.67 L 853.14 931.54 L 850.61 930.36 L 848.07 929.21 L 845.55 928.05 L 843.03 926.90 L 840.53 925.74 L 838.04 924.60" stroke="rgb(120,210,255)" stroke-opacity="0.852" stroke-width="1.63" />
  <path d="M 998.47 999.70 L 995.67 998.43 L 992.89 997.16 L 990.11 995.91 L 987.33 994.66 L 984.58 993.41 L 981.82 992.19 L 979.09 990.95 L 976.37 989.71 L 973.66 988.47 L 970.99 987.19 L 968.31 985.95 L 965.63 984.72 L 962.97 983.50 L 960.31 982.29 L 957.67 981.08 L 955.04 979.86 L 952.45 978.61 L 949.89 977.31 L 947.32 976.05 L 944.76 974.81 L 942.19 973.61 L 939.64 972.39 L 937.10 971.18 L 934.57 969.99 L 932.04 968.81 L 929.53 967.63 L 927.04 966.43 L 924.54 965.29 L 922.04 964.18 L 919.54 963.09 L 917.06 961.99 L 914.60 960.89 L 912.16 959.77 L 909.74 958.64 L 907.36 957.44 L 904.96 956.30 L 902.57 955.17 L 900.19 954.04 L 897.80 952.98 L 895.40 951.97 L 893.00 950.99 L 890.61 950.01 L 888.23 949.04 L 885.86 948.04 L 883.52 947.01 L 881.22 945.94 L 878.96 944.81 L 876.69 943.74 L 874.44 942.64 L 872.19 941.55 L 869.96 940.44 L 867.76 939.31 L 865.54 938.19 L 863.31 937.13 L 861.08 936.08" stroke="rgb(120,210,255)" stroke-opacity="0.468" stroke-width="1.63" />
  <path d="M 997.49 999.79 L 994.46 998.29 L 991.46 996.78 L 988.44 995.33 L 985.44 993.87 L 982.42 992.51 L 979.40 991.16 L 976.37 989.87 L 973.34 988.60 L 970.32 987.34 L 967.33 986.05 L 964.36 984.76 L 961.40 983.49 L 958.43 982.24 L 955.46 981.04 L 952.51 979.84 L 949.57 978.63 L 946.66 977.40 L 943.77 976.15 L 940.86 974.99 L 937.97 973.79 L 935.10 972.60 L 932.26 971.36 L 929.43 970.12 L 926.62 968.89 L 923.82 967.63 L 921.04 966.38 L 918.28 965.14 L 915.52 963.90 L 912.78 962.65 L 910.05 961.40 L 907.35 960.14 L 904.65 958.90 L 901.96 957.67 L 899.26 956.47 L 896.58 955.27 L 893.91 954.08 L 891.25 952.89 L 888.62 951.68 L 885.99 950.48 L 883.37 949.29 L 880.75 948.10 L 878.15 946.92 L 875.56 945.73 L 873.00 944.51 L 870.45 943.30 L 867.93 942.06 L 865.40 940.84 L 862.86 939.69 L 860.33 938.55 L 857.81 937.39 L 855.32 936.22 L 852.81 935.11 L 850.31 934.00 L 847.82 932.89 L 845.35 931.77 L 842.88 930.66 L 840.41 929.60 L 837.94 928.56 L 835.48 927.50 L 833.03 926.45 L 830.59 925.41 L 828.16 924.38 L 825.74 923.36 L 823.33 922.33 L 820.94 921.29 L 818.55 920.27 L 816.17 919.24 L 813.81 918.20 L 811.46 917.17 L 809.10 916.18 L 806.75 915.19 L 804.42 914.19 L 802.08 913.24 L 799.76 912.27 L 797.44 911.31 L 795.13 910.35 L 792.83 909.40 L 790.55 908.44 L 788.27 907.49 L 786.00 906.54 L 783.74 905.60 L 781.49 904.66 L 779.26 903.71 L 777.03 902.76 L 774.80 901.85 L 772.57 900.95 L 770.36 900.04 L 768.17 899.10 L 765.99 898.18 L 763.82 897.23 L 761.67 896.28 L 759.53 895.32 L 757.40 894.36 L 755.27 893.43 L 753.15 892.50 L 751.04 891.57 L 748.93 890.65 L 746.83 889.74 L 744.74 888.83 L 742.66 887.92 L 740.60 887.00 L 738.55 886.08 L 736.52 885.11 L 734.49 884.17 L 732.47 883.24 L 730.47 882.31" stroke="rgb(120,210,255)" stroke-opacity="0.850" stroke-width="1.62" />
  <path d="M 995.30 1002.75 L 992.22 1001.22 L 989.16 999.70 L 986.10 998.19 L 983.06 996.68 L 980.02 995.18 L 977.03 993.63 L 974.06 992.08 L 971.09 990.55 L 968.14 989.00 L 965.19 987.48 L 962.26 985.96 L 959.33 984.46 L 956.39 983.02 L 953.46 981.57 L 950.54 980.15 L 947.61 978.77 L 944.66 977.48 L 941.71 976.21 L 938.79 974.89 L 935.89 973.59 L 932.98 972.32 L 930.08 971.07 L 927.19 969.82 L 924.32 968.56 L 921.45 967.33 L 918.58 966.12 L 915.73 964.91 L 912.90 963.70 L 910.06 962.52 L 907.24 961.32 L 904.44 960.14 L 901.64 958.95 L 898.86 957.77 L 896.09 956.60 L 893.33 955.41 L 890.59 954.23 L 887.84 953.08 L 885.12 951.91 L 882.41 950.74 L 879.72 949.55 L 877.06 948.33 L 874.40 947.13 L 871.75 945.94 L 869.11 944.75 L 866.47 943.59 L 863.83 942.48 L 861.19 941.39 L 858.55 940.30 L 855.94 939.20 L 853.35 938.08 L 850.76 936.97 L 848.16 935.93 L 845.56 934.91 L 842.99 933.85 L 840.43 932.80 L 837.89 931.73 L 835.36 930.65 L 832.85 929.57 L 830.35 928.50 L 827.84 927.45 L 825.35 926.41 L 822.87 925.37 L 820.41 924.29 L 817.95 923.24 L 815.51 922.19 L 813.08 921.13 L 810.67 920.06 L 808.27 918.99 L 805.87 917.94 L 803.47 916.93 L 801.06 915.96 L 798.68 914.94 L 796.31 913.94 L 793.95 912.94 L 791.59 911.95 L 789.25 910.96 L 786.91 909.98 L 784.59 909.00 L 782.27 908.03 L 779.96 907.06 L 777.70 906.01 L 775.45 904.95 L 773.22 903.88 L 770.98 902.85 L 768.76 901.82 L 766.55 900.77 L 764.34 899.75 L 762.15 898.70 L 759.98 897.65 L 757.81 896.61 L 755.65 895.59 L 753.49 894.57 L 751.34 893.58 L 749.19 892.60 L 747.05 891.63 L 744.91 890.67 L 742.79 889.71 L 740.67 888.75 L 738.57 887.79 L 736.49 886.80 L 734.43 885.80 L 732.36 884.83 L 730.30 883.86 L 728.26 882.87 L 726.23 881.89" stroke="rgb(120,210,255)" stroke-opacity="0.849" stroke-width="1.62" />
  <path d="M 945.69 967.26 L 942.47 966.17 L 939.26 965.08 L 936.08 963.90 L 932.94 962.71 L 929.77 961.59 L 926.63 960.44 L 923.51 959.29 L 920.40 958.14 L 917.33 956.93 L 914.26 955.74 L 911.21 954.55 L 908.17 953.36 L 905.17 952.11 L 902.17 950.90 L 899.16 949.75 L 896.16 948.63 L 893.18 947.51 L 890.18 946.43 L 887.19 945.38 L 884.22 944.31 L 881.26 943.25 L 878.30 942.20 L 875.33 941.24 L 872.35 940.33 L 869.38 939.44 L 866.41 938.59 L 863.46 937.75 L 860.51 936.91 L 857.58 936.07 L 854.66 935.21 L 851.76 934.37 L 848.85 933.55 L 845.96 932.74 L 843.08 931.93 L 840.22 931.09 L 837.40 930.18 L 834.59 929.26 L 831.79 928.36 L 829.01 927.44 L 826.23 926.54 L 823.48 925.61" stroke="rgb(120,210,255)" stroke-opacity="0.849" stroke-width="1.62" />
  <path d="M 929.31 964.75 L 926.64 963.48 L 923.99 962.20 L 921.34 960.96 L 918.70 959.73 L 916.07 958.48 L 913.46 957.23 L 910.81 956.12 L 908.17 955.00 L 905.52 953.93 L 902.88 952.87 L 900.23 951.84 L 897.61 950.80" stroke="rgb(120,210,255)" stroke-opacity="0.466" stroke-width="1.62" />
  <path d="M 1001.12 998.36 L 997.98 996.96 L 994.85 995.60 L 991.74 994.20 L 988.66 992.80 L 985.58 991.41 L 982.50 990.05 L 979.44 988.69 L 976.38 987.36 L 973.32 986.05 L 970.28 984.75 L 967.24 983.48 L 964.20 982.22 L 961.19 980.95 L 958.18 979.70 L 955.21 978.38 L 952.26 977.07 L 949.32 975.76 L 946.39 974.46 L 943.48 973.14 L 940.61 971.77 L 937.79 970.34 L 934.98 968.90 L 932.17 967.49 L 929.36 966.10 L 926.57 964.72 L 923.78 963.34 L 921.00 961.99 L 918.24 960.63 L 915.50 959.25 L 912.78 957.87 L 910.05 956.51 L 907.36 955.13 L 904.67 953.74 L 902.00 952.36 L 899.33 951.01 L 896.68 949.65 L 894.06 948.25 L 891.45 946.86 L 888.85 945.46 L 886.27 944.07" stroke="rgb(120,210,255)" stroke-opacity="0.848" stroke-width="1.62" />
  <path d="M 1001.76 1000.59 L 998.87 999.34 L 995.98 998.09 L 993.13 996.82 L 990.28 995.56 L 987.44 994.31 L 984.64 993.00 L 981.86 991.68 L 979.08 990.37 L 976.30 989.12 L 973.53 987.85 L 970.77 986.62 L 968.02 985.38 L 965.28 984.15 L 962.53 982.97 L 959.77 981.84 L 957.03 980.72 L 954.31 979.56 L 951.60 978.40 L 948.90 977.25 L 946.23 976.08 L 943.57 974.90 L 940.94 973.69 L 938.34 972.44 L 935.76 971.18 L 933.18 969.94 L 930.60 968.72 L 928.04 967.51 L 925.50 966.27 L 922.96 965.05 L 920.44 963.84 L 917.91 962.68 L 915.40 961.48 L 912.93 960.26 L 910.46 959.05 L 908.01 957.84 L 905.56 956.65 L 903.16 955.40 L 900.76 954.17 L 898.37 952.95" stroke="rgb(120,210,255)" stroke-opacity="0.848" stroke-width="1.62" />
  <path d="M 798.68 914.94 L 795.55 913.58 L 792.44 912.20 L 789.35 910.82 L 786.26 909.44 L 783.22 908.03 L 780.17 906.67 L 777.13 905.31 L 774.10 903.92 L 771.06 902.58 L 768.04 901.25 L 765.04 899.89 L 762.05 898.55 L 759.06 897.21 L 756.09 895.87 L 753.13 894.53 L 750.18 893.19 L 747.25 891.85 L 744.35 890.47 L 741.46 889.12 L 738.56 887.80 L 735.66 886.54 L 732.79 885.22 L 729.92 883.94 L 727.06 882.69 L 724.22 881.42 L 721.40 880.12 L 718.60 878.82 L 715.80 877.53 L 712.98 876.33 L 710.16 875.15 L 707.34 874.01 L 704.53 872.87 L 701.72 871.77 L 698.93 870.66 L 696.15 869.56 L 693.38 868.48 L 690.64 867.38 L 687.90 866.30 L 685.17 865.21 L 682.51 864.05 L 679.86 862.89 L 677.22 861.74 L 674.60 860.56 L 672.00 859.33 L 669.42 858.10 L 666.85 856.87 L 664.28 855.66 L 661.73 854.43 L 659.19 853.20 L 656.65 851.98 L 654.13 850.76 L 651.62 849.55 L 649.13 848.32 L 646.66 847.12 L 644.19 845.91 L 641.72 844.70 L 639.27 843.50 L 636.81 842.32 L 634.37 841.14 L 631.93 839.97 L 629.50 838.82 L 627.07 837.67 L 624.65 836.56 L 622.24 835.44 L 619.85 834.32 L 617.46 833.24 L 615.05 832.19 L 612.64 831.21" stroke="rgb(120,210,255)" stroke-opacity="0.848" stroke-width="1.62" />
  <path d="M 732.36 884.83 L 729.28 883.76 L 726.21 882.70 L 723.15 881.64 L 720.09 880.61 L 717.04 879.59 L 714.00 878.59 L 710.98 877.56 L 707.98 876.58 L 704.99 875.60 L 701.99 874.65 L 698.98 873.81 L 695.98 872.98 L 693.02 872.06 L 690.05 871.23 L 687.09 870.38 L 684.13 869.58 L 681.19 868.75 L 678.27 867.94 L 675.35 867.11 L 672.46 866.24 L 669.59 865.35 L 666.79 864.34 L 664.00 863.29 L 661.20 862.28 L 658.43 861.26 L 655.67 860.25 L 652.92 859.21 L 650.18 858.18 L 647.47 857.10 L 644.78 856.02 L 642.09 854.94 L 639.42 853.86 L 636.76 852.76 L 634.11 851.68 L 631.46 850.60" stroke="rgb(120,210,255)" stroke-opacity="0.847" stroke-width="1.61" />
  <path d="M 941.72 965.35 L 938.47 964.48 L 935.23 963.62 L 931.99 962.79 L 928.77 961.96 L 925.57 961.14 L 922.37 960.31 L 919.17 959.56 L 915.98 958.84 L 912.80 958.10 L 909.66 957.27 L 906.54 956.43 L 903.41 955.67 L 900.29 954.92 L 897.18 954.18 L 894.08 953.43 L 891.00 952.68 L 887.93 951.93 L 884.87 951.22 L 881.82 950.51 L 878.80 949.72 L 875.80 948.92 L 872.81 948.13 L 869.84 947.34 L 866.87 946.58 L 863.92 945.83 L 860.99 945.06 L 858.07 944.28 L 855.17 943.51 L 852.28 942.74 L 849.39 942.02 L 846.51 941.32 L 843.64 940.61 L 840.77 939.97 L 837.90 939.37 L 835.04 938.77 L 832.21 938.11 L 829.38 937.47 L 826.56 936.84 L 823.75 936.22 L 820.96 935.60 L 818.18 934.97 L 815.41 934.35 L 812.65 933.72 L 809.90 933.09 L 807.16 932.48 L 804.45 931.88" stroke="rgb(120,210,255)" stroke-opacity="0.847" stroke-width="1.61" />
  <path d="M 998.14 1000.32 L 995.10 998.73 L 992.06 997.17 L 989.01 995.66 L 985.98 994.15 L 982.96 992.64 L 979.97 991.11 L 977.02 989.52 L 974.09 987.91 L 971.16 986.36 L 968.24 984.80 L 965.31 983.29 L 962.39 981.80 L 959.48 980.30 L 956.58 978.83 L 953.71 977.32 L 950.84 975.84 L 947.98 974.37 L 945.13 972.89 L 942.30 971.42 L 939.48 969.96 L 936.67 968.50" stroke="rgb(120,210,255)" stroke-opacity="0.846" stroke-width="1.61" />
  <path d="M 996.64 998.84 L 993.84 997.28 L 991.06 995.69 L 988.32 994.08 L 985.57 992.50 L 982.82 990.95 L 980.10 989.38 L 977.39 987.80 L 974.71 986.21 L 972.03 984.63 L 969.36 983.08 L 966.73 981.47 L 964.13 979.83 L 961.57 978.16 L 959.03 976.47 L 956.52 974.77 L 954.03 973.06 L 951.54 971.36 L 949.06 969.68 L 946.58 968.03 L 944.12 966.35 L 941.66 964.70 L 939.19 963.10 L 936.75 961.45 L 934.33 959.80 L 931.92 958.17 L 929.53 956.52 L 927.16 954.87 L 924.80 953.22 L 922.43 951.61 L 920.09 949.99 L 917.74 948.38 L 915.46 946.71 L 913.19 945.03" stroke="rgb(120,210,255)" stroke-opacity="0.843" stroke-width="1.60" />
  <path d="M 1001.30 1000.99 L 998.70 999.76 L 996.10 998.54 L 993.52 997.32 L 990.96 996.06 L 988.39 994.87 L 985.85 993.63 L 983.33 992.37 L 980.83 991.11 L 978.39 989.77 L 975.93 988.46" stroke="rgb(120,210,255)" stroke-opacity="0.460" stroke-width="1.58" />
  <path d="M 1002.71 1001.79 L 1000.15 1000.48 L 997.59 999.18 L 995.02 997.94 L 992.46 996.72 L 989.90 995.50 L 987.34 994.32 L 984.82 993.09 L 982.34 991.79 L 979.85 990.54 L 977.37 989.30 L 974.90 988.05 L 972.44 986.81 L 970.01 985.53 L 967.58 984.29 L 965.15 983.07 L 962.73 981.86 L 960.31 980.66 L 957.89 979.50 L 955.51 978.27 L 953.14 977.06 L 950.79 975.82 L 948.43 974.63 L 946.08 973.44 L 943.71 972.31 L 941.37 971.16 L 939.04 970.02 L 936.71 968.88 L 934.42 967.71 L 932.11 966.58 L 929.83 965.42 L 927.56 964.26 L 925.30 963.10 L 923.05 961.93 L 920.83 960.74 L 918.65 959.49 L 916.46 958.27 L 914.26 957.11 L 912.10 955.90 L 910.01 954.59 L 907.92 953.29 L 905.85 952.00 L 903.80 950.69 L 901.74 949.41 L 899.68 948.15 L 897.60 946.95 L 895.52 945.77" stroke="rgb(120,210,255)" stroke-opacity="0.457" stroke-width="1.56" />
  <path d="M 946.48 973.01 L 944.12 971.44 L 941.72 969.97 L 939.37 968.47 L 937.02 967.01 L 934.68 965.56 L 932.34 964.14 L 929.99 962.77 L 927.62 961.48 L 925.23 960.27 L 922.86 959.08 L 920.50 957.89 L 918.18 956.72 L 915.87 955.55 L 913.56 954.39 L 911.32 953.15 L 909.18 951.94 L 907.04 950.76 L 904.89 949.61 L 902.77 948.45 L 900.61 947.33 L 898.45 946.21 L 896.32 945.05 L 894.21 943.90 L 892.16 942.77 L 890.11 941.65 L 888.07 940.53 L 886.07 939.40 L 884.11 938.24 L 882.07 937.05 L 880.09 935.77 L 878.12 934.50 L 876.19 933.23 L 874.30 931.92 L 872.41 930.62 L 870.54 929.32 L 868.71 928.01 L 866.92 926.63 L 865.15 925.24 L 863.39 923.87 L 861.62 922.47 L 859.85 921.12 L 858.11 919.75 L 856.35 918.38 L 854.59 917.02 L 852.88 915.67 L 851.15 914.32" stroke="rgb(120,210,255)" stroke-opacity="0.456" stroke-width="1.56" />
  <path d="M 1005.28 1000.26 L 1003.03 999.15 L 1000.82 998.00 L 998.63 996.85 L 996.44 995.71 L 994.30 994.51 L 992.20 993.25 L 990.13 991.97 L 988.09 990.66 L 986.05 989.36 L 984.02 988.08 L 981.96 986.89 L 979.90 985.70 L 977.82 984.55 L 975.77 983.42 L 973.74 982.27 L 971.72 981.12 L 969.66 980.04 L 967.65 978.89 L 965.66 977.71 L 963.68 976.54 L 961.66 975.44 L 959.66 974.34 L 957.67 973.27 L 955.66 972.24 L 953.61 971.29 L 951.61 970.31 L 949.63 969.29 L 947.66 968.27 L 945.69 967.26 L 943.72 966.27 L 941.72 965.35 L 939.70 964.49 L 937.69 963.63 L 935.67 962.82 L 933.67 962.00 L 931.68 961.14" stroke="rgb(120,210,255)" stroke-opacity="0.447" stroke-width="1.51" />
  <path d="M 997.22 1002.52 L 1000.14 1000.80 L 1003.05 999.09 L 1005.95 997.38 L 1008.84 995.69 L 1011.70 993.98 L 1014.55 992.27 L 1017.43 990.64 L 1020.26 988.97 L 1023.08 987.29 L 1025.89 985.61 L 1028.68 983.94 L 1031.47 982.29 L 1034.26 980.67 L 1037.02 979.02 L 1039.77 977.37 L 1042.50 975.72 L 1045.23 974.08 L 1047.94 972.45 L 1050.63 970.80 L 1053.31 969.16" stroke="rgb(205,165,255)" stroke-opacity="0.719" stroke-width="1.24" />
  <path d="M 999.67 1003.18 L 997.78 1002.05 L 995.93 1000.90 L 994.08 999.75 L 992.29 998.55 L 990.48 997.47 L 988.69 996.40 L 986.87 995.40 L 985.07 994.38 L 983.29 993.35 L 981.57 992.27 L 979.85 991.22 L 978.14 990.16 L 976.52 989.08 L 975.03 987.88 L 973.54 986.70 L 972.08 985.52 L 970.63 984.38 L 969.21 983.23 L 967.81 982.04 L 966.43 980.87 L 965.05 979.72 L 963.67 978.57 L 962.31 977.41 L 961.04 976.18 L 959.78 974.91 L 958.53 973.68 L 957.31 972.40 L 956.10 971.07 L 954.84 969.78 L 953.55 968.51 L 952.19 967.33 L 950.83 966.16 L 949.49 964.99 L 948.15 963.83 L 946.81 962.70 L 945.48 961.58 L 944.20 960.42 L 942.91 959.28 L 941.62 958.21 L 940.30 957.16 L 938.99 956.09 L 937.69 955.03 L 936.39 953.98 L 935.09 952.91 L 933.81 951.84 L 932.54 950.75 L 931.28 949.66 L 930.05 948.57 L 928.83 947.47 L 927.62 946.38 L 926.41 945.30 L 925.24 944.17 L 923.97 943.07 L 922.72 941.98 L 921.48 940.83 L 920.26 939.65 L 919.03 938.51 L 917.81 937.37 L 916.59 936.22 L 915.45 935.05" stroke="rgb(140,255,190)" stroke-opacity="0.565" stroke-width="1.23" />
  <path d="M 940.89 925.83 L 938.01 924.33 L 935.17 922.79 L 932.34 921.26 L 929.56 919.68 L 926.78 918.12 L 924.01 916.56 L 921.18 915.15 L 918.35 913.77 L 915.55 912.38 L 912.79 910.95 L 910.06 909.47 L 907.34 908.00 L 904.63 906.55 L 901.93 905.09 L 899.22 903.68 L 896.51 902.30 L 893.80 900.96 L 891.12 899.59 L 888.44 898.25" stroke="rgb(205,165,255)" stroke-opacity="0.710" stroke-width="1.22" />
  <path d="M 997.35 999.06 L 994.20 999.89 L 991.05 1000.70 L 987.92 1001.49 L 984.79 1002.27 L 981.66 1003.00 L 978.55 1003.72 L 975.45 1004.47 L 972.38 1005.24 L 969.31 1006.01 L 966.27 1006.81 L 963.23 1007.58 L 960.20 1008.31 L 957.20 1009.09 L 954.21 1009.87 L 951.23 1010.63 L 948.26 1011.38 L 945.31 1012.14 L 942.37 1012.90 L 939.44 1013.68 L 936.52 1014.43 L 933.62 1015.19 L 930.74 1015.97 L 927.87 1016.75 L 924.99 1017.45 L 922.14 1018.17 L 919.29 1018.88 L 916.45 1019.56 L 913.63 1020.24 L 910.82 1020.93 L 908.02 1021.63 L 905.24 1022.36 L 902.48 1023.08 L 899.73 1023.82 L 896.99 1024.55 L 894.26 1025.25 L 891.53 1025.96 L 888.80 1026.61 L 886.08 1027.24 L 883.37 1027.89 L 880.68 1028.53 L 878.00 1029.17 L 875.31 1029.73 L 872.63 1030.28 L 869.97 1030.86 L 867.32 1031.43 L 864.67 1031.99 L 862.04 1032.54 L 859.42 1033.11 L 856.82 1033.71 L 854.23 1034.30 L 851.65 1034.88 L 849.09 1035.46 L 846.54 1036.08 L 844.00 1036.69 L 841.47 1037.28 L 838.96 1037.95 L 836.50 1038.74 L 834.04 1039.53 L 831.59 1040.31 L 829.15 1041.12 L 826.74 1041.94 L 824.32 1042.74 L 821.93 1043.57 L 819.57 1044.42 L 817.21 1045.28 L 814.88 1046.15 L 812.56 1047.02 L 810.25 1047.90 L 807.96 1048.77 L 805.67 1049.63 L 803.38 1050.47 L 801.08 1051.27 L 798.80 1052.09 L 796.53 1052.92 L 794.27 1053.73 L 792.00 1054.50 L 789.76 1055.32 L 787.53 1056.14 L 785.30 1056.95 L 783.08 1057.75 L 780.87 1058.54 L 778.66 1059.33 L 776.47 1060.11 L 774.27 1060.88 L 772.08 1061.63 L 769.88 1062.36 L 767.70 1063.10 L 765.53 1063.85 L 763.36 1064.60 L 761.21 1065.35 L 759.06 1066.09 L 756.92 1066.80" stroke="rgb(205,165,255)" stroke-opacity="0.707" stroke-width="1.21" />
  <path d="M 1001.38 902.32 L 1000.33 900.49 L 999.25 898.68 L 998.17 896.85 L 997.08 895.03 L 996.09 893.21 L 995.07 891.42 L 994.07 889.66" stroke="rgb(205,165,255)" stroke-opacity="0.705" stroke-width="1.20" />
  <path d="M 1000.11 1000.22 L 997.15 998.42 L 994.20 996.63 L 991.27 994.82 L 988.39 992.97 L 985.52 991.13 L 982.66 989.30 L 979.81 987.47 L 976.98 985.65 L 974.16 983.82 L 971.36 982.00 L 968.56 980.19 L 965.78 978.39 L 963.02 976.58 L 960.29 974.76 L 957.58 972.92 L 954.89 971.08 L 952.20 969.25 L 949.54 967.40 L 946.91 965.53 L 944.31 963.66 L 941.71 961.79 L 939.11 959.95 L 936.49 958.16 L 933.89 956.37 L 931.31 954.57 L 928.76 952.74 L 926.21 950.93 L 923.69 949.12 L 921.19 947.28 L 918.71 945.46 L 916.24 943.62 L 913.79 941.79 L 911.34 939.97 L 908.91 938.15 L 906.46 936.37 L 904.06 934.56 L 901.65 932.78 L 899.25 930.99 L 896.87 929.20 L 894.52 927.41 L 892.17 925.62 L 889.83 923.84 L 887.47 922.10 L 885.10 920.40 L 882.73 918.73 L 880.37 917.05 L 878.00 915.41 L 875.64 913.78 L 873.25 912.21 L 870.88 910.65 L 868.52 909.07 L 866.14 907.56 L 863.77 906.03 L 861.42 904.50 L 859.09 902.98 L 856.77 901.45 L 854.43 899.96 L 852.11 898.48 L 849.78 897.02 L 847.46 895.58 L 845.14 894.15 L 842.84 892.72 L 840.54 891.31 L 838.26 889.89 L 835.99 888.47 L 833.71 887.10 L 831.42 885.74 L 829.16 884.37 L 826.90 883.01 L 824.67 881.63 L 822.44 880.26 L 820.23 878.88 L 818.02 877.51 L 815.83 876.13" stroke="rgb(140,255,190)" stroke-opacity="0.740" stroke-width="1.19" />
  <path d="M 983.46 976.55 L 982.67 973.79 L 981.88 971.05 L 981.05 968.33 L 980.13 965.63 L 979.21 962.94 L 978.33 960.28 L 977.44 957.62 L 976.66 954.95 L 975.96 952.27 L 975.31 949.60 L 974.67 946.95 L 974.05 944.32 L 973.43 941.71 L 972.89 939.10 L 972.40 936.52 L 971.89 933.95 L 971.37 931.35 L 970.86 928.75 L 970.31 926.16 L 969.77 923.58 L 969.26 921.05 L 968.72 918.52 L 968.19 915.99 L 967.66 913.48 L 967.16 910.96" stroke="rgb(205,165,255)" stroke-opacity="0.701" stroke-width="1.19" />
  <path d="M 939.55 978.05 L 937.33 977.85 L 935.11 977.67 L 932.91 977.43 L 930.72 977.14 L 928.55 976.86 L 926.35 976.64 L 924.14 976.46 L 921.96 976.18 L 919.80 975.86 L 917.67 975.39 L 915.53 975.00 L 913.42 974.53 L 911.31 974.04 L 909.19 973.64 L 907.13 973.02 L 905.05 972.43 L 902.95 971.96 L 900.85 971.49 L 898.78 970.97 L 896.71 970.47 L 894.64 969.98 L 892.59 969.48 L 890.54 969.01 L 888.48 968.61 L 886.43 968.21 L 884.37 967.95 L 882.32 967.68 L 880.28 967.41 L 878.25 967.11 L 876.23 966.80 L 874.23 966.53 L 872.24 966.17 L 870.26 965.78 L 868.31 965.32 L 866.38 964.82 L 864.44 964.35 L 862.51 963.88 L 860.61 963.37 L 858.73 962.78" stroke="rgb(140,255,190)" stroke-opacity="0.553" stroke-width="1.19" />
  <path d="M 998.78 998.83 L 995.69 997.31 L 992.59 995.83 L 989.51 994.35 L 986.44 992.88 L 983.38 991.42 L 980.33 989.98 L 977.31 988.52 L 974.28 987.09 L 971.26 985.67 L 968.26 984.26 L 965.26 982.86 L 962.29 981.45 L 959.34 980.02 L 956.38 978.63 L 953.43 977.28 L 950.48 975.94 L 947.55 974.59 L 944.63 973.24 L 941.73 971.90 L 938.84 970.56 L 935.93 969.28 L 933.04 968.00 L 930.18 966.67 L 927.33 965.36 L 924.47 964.08 L 921.63 962.80 L 918.79 961.56 L 915.97 960.32 L 913.15 959.08 L 910.37 957.81 L 907.59 956.55 L 904.83 955.28 L 902.08 954.03" stroke="rgb(140,255,190)" stroke-opacity="0.737" stroke-width="1.19" />
  <path d="M 1001.44 999.34 L 998.27 997.91 L 995.12 996.48 L 991.98 995.06 L 988.84 993.66 L 985.73 992.25 L 982.64 990.83 L 979.56 989.40" stroke="rgb(140,255,190)" stroke-opacity="0.735" stroke-width="1.18" />
  <path d="M 1002.00 930.87 L 1003.47 929.22 L 1004.92 927.57 L 1006.38 925.93 L 1007.82 924.32 L 1009.21 922.70 L 1010.62 921.09 L 1012.01 919.46 L 1013.42 917.86 L 1014.78 916.27 L 1016.06 914.68 L 1017.33 913.09 L 1018.60 911.50 L 1019.86 909.87 L 1021.13 908.26 L 1022.52 906.73 L 1023.86 905.20 L 1025.21 903.68 L 1026.50 902.21 L 1027.80 900.75 L 1029.05 899.31 L 1030.29 897.88 L 1031.46 896.42 L 1032.65 894.97 L 1033.72 893.44 L 1034.85 891.94 L 1035.99 890.49 L 1037.09 889.01 L 1038.17 887.54 L 1039.36 886.14 L 1040.53 884.79 L 1041.70 883.44 L 1042.89 882.07 L 1044.08 880.69 L 1045.25 879.32 L 1046.43 877.96 L 1047.54 876.60" stroke="rgb(205,165,255)" stroke-opacity="0.488" stroke-width="1.18" />
  <path d="M 951.02 977.25 L 948.12 975.61 L 945.24 973.96 L 942.37 972.35 L 939.51 970.74 L 936.64 969.15 L 933.77 967.61 L 930.92 966.03 L 928.07 964.44 L 925.22 962.85 L 922.38 961.29 L 919.55 959.72 L 916.74 958.14 L 913.94 956.57 L 911.15 955.00 L 908.41 953.37 L 905.69 951.75 L 902.99 950.08 L 900.29 948.45 L 897.59 946.82 L 894.92 945.18 L 892.27 943.51 L 889.64 941.83 L 887.03 940.15 L 884.42 938.49 L 881.83 936.82 L 879.25 935.16 L 876.71 933.50 L 874.16 931.83 L 871.63 930.16 L 869.11 928.49 L 866.58 926.87 L 864.07 925.24 L 861.59 923.57 L 859.13 921.89 L 856.69 920.19 L 854.24 918.54 L 851.83 916.84 L 849.45 915.11 L 847.06 913.40 L 844.68 911.67 L 842.27 910.00 L 839.88 908.33 L 837.50 906.66 L 835.14 904.99 L 832.78 903.34 L 830.43 901.68 L 828.08 900.06 L 825.73 898.44 L 823.35 896.87 L 821.01 895.26 L 818.69 893.65 L 816.38 892.03 L 814.09 890.41 L 811.80 888.80 L 809.52 887.20 L 807.28 885.57 L 805.06 883.93 L 802.82 882.33 L 800.59 880.74 L 798.37 879.15 L 796.15 877.57 L 793.94 876.01 L 791.73 874.46 L 789.53 872.91 L 787.37 871.33 L 785.21 869.75 L 783.09 868.16 L 780.98 866.57 L 778.89 864.98 L 776.80 863.39 L 774.72 861.81 L 772.65 860.24" stroke="rgb(140,255,190)" stroke-opacity="0.735" stroke-width="1.18" />
  <path d="M 1001.15 1002.00 L 1001.07 999.62 L 1000.98 997.25 L 1000.92 994.87 L 1000.86 992.51 L 1000.82 990.15 L 1000.79 987.81 L 1000.75 985.50 L 1000.72 983.23 L 1000.68 980.98 L 1000.64 978.75 L 1000.58 976.54 L 1000.56 974.41 L 1000.57 972.28 L 1000.60 970.17 L 1000.67 968.08 L 1000.74 965.97 L 1000.86 963.91 L 1000.98 961.87 L 1001.10 959.80 L 1001.30 957.75 L 1001.48 955.72 L 1001.64 953.69 L 1001.75 951.64 L 1001.81 949.54 L 1001.88 947.45 L 1001.90 945.37 L 1001.90 943.29 L 1001.97 941.23 L 1002.02 939.16 L 1002.04 937.06 L 1002.03 934.98 L 1002.02 932.92 L 1002.00 930.87 L 1001.99 928.82 L 1001.96 926.80 L 1001.91 924.73 L 1001.86 922.67 L 1001.83 920.60 L 1001.81 918.54 L 1001.73 916.47 L 1001.64 914.40 L 1001.57 912.33 L 1001.50 910.28 L 1001.48 908.23 L 1001.48 906.20 L 1001.45 904.26 L 1001.38 902.32 L 1001.33 900.40 L 1001.25 898.49 L 1001.09 896.60 L 1000.90 894.72 L 1000.68 892.92 L 1000.52 891.13 L 1000.36 889.34 L 1000.20 887.56" stroke="rgb(205,165,255)" stroke-opacity="0.487" stroke-width="1.18" />
  <path d="M 1002.33 1000.85 L 1001.93 997.93 L 1001.54 995.01 L 1001.11 992.11 L 1000.69 989.22 L 1000.29 986.32 L 999.87 983.44 L 999.43 980.57 L 999.01 977.70 L 998.59 974.84 L 998.21 972.00 L 997.86 969.15 L 997.47 966.32 L 997.06 963.50 L 996.66 960.69 L 996.24 957.89 L 995.79 955.10 L 995.44 952.31 L 995.09 949.54 L 994.66 946.78 L 994.26 944.04 L 993.83 941.30 L 993.41 938.58 L 993.02 935.86 L 992.62 933.15 L 992.20 930.46 L 991.75 927.78 L 991.28 925.12 L 990.79 922.48 L 990.28 919.84 L 989.77 917.22 L 989.29 914.61 L 988.82 912.00 L 988.27 909.42 L 987.80 906.84 L 987.32 904.27" stroke="rgb(205,165,255)" stroke-opacity="0.487" stroke-width="1.18" />
  <path d="M 1004.04 1000.97 L 1007.02 1002.05 L 1009.95 1003.21 L 1012.89 1004.34 L 1015.81 1005.45 L 1018.75 1006.54 L 1021.68 1007.63 L 1024.57 1008.80 L 1027.44 1009.97 L 1030.31 1011.12 L 1033.14 1012.31 L 1035.95 1013.52 L 1038.75 1014.68 L 1041.54 1015.83 L 1044.32 1016.94 L 1047.10 1018.01 L 1049.88 1019.07 L 1052.64 1020.13 L 1055.39 1021.19 L 1058.14 1022.27 L 1060.87 1023.34 L 1063.60 1024.40 L 1066.33 1025.47 L 1069.05 1026.54 L 1071.74 1027.66 L 1074.43 1028.75 L 1077.11 1029.84 L 1079.77 1030.94 L 1082.42 1032.05 L 1085.06 1033.15 L 1087.69 1034.24 L 1090.32 1035.29 L 1092.93 1036.36 L 1095.53 1037.44 L 1098.11 1038.51 L 1100.69 1039.57 L 1103.26 1040.58 L 1105.82 1041.60 L 1108.37 1042.62 L 1110.91 1043.61 L 1113.42 1044.62 L 1115.92 1045.63 L 1118.40 1046.63 L 1120.88 1047.62 L 1123.35 1048.61 L 1125.78 1049.65 L 1128.17 1050.75 L 1130.55 1051.87 L 1132.90 1053.01 L 1135.23 1054.17 L 1137.55 1055.32 L 1139.85 1056.47 L 1142.15 1057.61 L 1144.45 1058.75 L 1146.75 1059.87 L 1149.03 1060.99 L 1151.31 1062.08 L 1153.56 1063.26 L 1155.83 1064.40 L 1158.07 1065.57 L 1160.29 1066.74 L 1162.49 1067.90 L 1164.70 1069.04 L 1166.91 1070.17 L 1169.05 1071.37 L 1171.19 1072.56 L 1173.30 1073.76 L 1175.41 1074.94 L 1177.52 1076.11 L 1179.65 1077.23 L 1181.73 1078.39 L 1183.80 1079.55 L 1185.87 1080.71 L 1187.94 1081.82 L 1190.00 1082.96" stroke="rgb(140,255,190)" stroke-opacity="0.732" stroke-width="1.17" />
  <path d="M 1000.29 998.57 L 1000.24 998.28 L 1000.29 998.08 L 1000.38 997.87 L 1000.41 997.66 L 1000.42 997.33 L 1000.36 997.00 L 1000.31 996.67 L 1000.28 996.33 L 1000.24 996.03 L 1000.18 995.72 L 1000.11 995.42 L 1000.05 995.12 L 1000.00 994.83 L 999.94 994.58 L 999.86 994.32 L 999.79 994.03 L 999.72 993.83 L 999.66 993.70 L 999.58 993.57 L 999.52 993.43 L 999.34 993.26 L 999.29 992.98 L 999.24 992.70 L 999.22 992.35 L 999.17 992.05 L 999.13 991.75" stroke="rgb(205,165,255)" stroke-opacity="0.486" stroke-width="1.17" />
  <path d="M 1002.21 998.06 L 999.73 996.38 L 997.24 994.71 L 994.75 993.08 L 992.32 991.38 L 989.92 989.68 L 987.54 987.99 L 985.18 986.27 L 982.86 984.50 L 980.59 982.71 L 978.30 980.94 L 976.06 979.12 L 973.81 977.32 L 971.61 975.48 L 969.42 973.64 L 967.23 971.83 L 965.06 970.02 L 962.90 968.22 L 960.75 966.42 L 958.60 964.65 L 956.53 962.80 L 954.47 960.96 L 952.43 959.12 L 950.38 957.32 L 948.36 955.50 L 946.36 953.69 L 944.37 951.88 L 942.39 950.06 L 940.42 948.25 L 938.43 946.47" stroke="rgb(205,165,255)" stroke-opacity="0.485" stroke-width="1.17" />
  <path d="M 1002.03 998.63 L 998.97 997.36 L 995.91 996.13 L 992.86 994.90 L 989.82 993.67 L 986.76 992.55 L 983.72 991.42 L 980.68 990.32 L 977.65 989.21 L 974.66 988.07 L 971.68 986.93 L 968.72 985.76 L 965.78 984.58 L 962.86 983.41 L 959.95 982.22 L 957.06 981.04 L 954.18 979.86 L 951.31 978.67 L 948.45 977.52 L 945.63 976.30 L 942.81 975.09 L 940.00 973.89 L 937.21 972.69 L 934.42 971.50 L 931.65 970.30 L 928.91 969.08 L 926.21 967.81 L 923.49 966.60 L 920.77 965.43 L 918.07 964.26 L 915.38 963.06 L 912.71 961.87 L 910.05 960.68 L 907.40 959.49 L 904.76 958.30 L 902.13 957.12 L 899.51 955.93 L 896.88 954.79 L 894.26 953.66 L 891.66 952.52 L 889.06 951.39 L 886.45 950.31 L 883.86 949.22 L 881.28 948.13" stroke="rgb(140,255,190)" stroke-opacity="0.728" stroke-width="1.16" />
  <path d="M 1024.66 878.51 L 1024.39 878.06 L 1024.14 877.62 L 1023.91 877.17 L 1023.65 876.71 L 1023.42 876.28 L 1023.18 875.88 L 1022.89 875.49 L 1022.51 875.03 L 1022.12 874.70 L 1021.69 874.29 L 1021.21 873.96 L 1020.70 873.65 L 1020.03 873.33 L 1019.41 873.06 L 1018.84 872.76 L 1018.27 872.46 L 1017.68 872.18 L 1017.20 871.83 L 1016.72 871.48 L 1016.17 871.33 L 1015.57 871.17 L 1015.06 870.98 L 1014.60 870.77 L 1014.07 870.50 L 1013.54 870.10 L 1013.00 869.70 L 1012.48 869.28 L 1011.94 868.85 L 1011.50 868.36 L 1010.95 867.79 L 1010.30 867.18 L 1009.67 866.45 L 1009.01 865.75 L 1008.31 865.11 L 1007.52 864.52 L 1006.64 863.83 L 1005.81 863.12 L 1004.90 862.43 L 1003.99 861.76 L 1003.11 861.18 L 1002.24 860.53 L 1001.36 859.89 L 1000.43 859.31 L 999.58 858.68 L 998.73 857.95" stroke="rgb(205,165,255)" stroke-opacity="0.483" stroke-width="1.16" />
  <path d="M 1003.80 1000.16 L 1001.66 999.02 L 999.52 997.92 L 997.36 996.87 L 995.22 995.81 L 993.08 994.78 L 990.93 993.80 L 988.76 992.86 L 986.61 991.92 L 984.45 991.01 L 982.26 990.18 L 980.07 989.38 L 977.90 988.54 L 975.74 987.70 L 973.61 986.83 L 971.49 985.95 L 969.37 985.10 L 967.25 984.29 L 965.14 983.47 L 963.04 982.65 L 960.96 981.78 L 958.89 980.94 L 956.80 980.14 L 954.74 979.29 L 952.72 978.39 L 950.74 977.42 L 948.76 976.45 L 946.77 975.55 L 944.77 974.69 L 942.77 973.84 L 940.80 972.97 L 938.82 972.13 L 936.87 971.23 L 934.92 970.37 L 932.96 969.53 L 931.01 968.68 L 929.06 967.87 L 927.11 967.09 L 925.15 966.36 L 923.19 965.65 L 921.23 964.93 L 919.30 964.21 L 917.36 963.50 L 915.44 962.78 L 913.53 962.08 L 911.61 961.41 L 909.68 960.79 L 907.77 960.17 L 905.87 959.56 L 903.94 959.04 L 902.05 958.40 L 900.17 957.76 L 898.31 957.09 L 896.48 956.37 L 894.66 955.65" stroke="rgb(140,255,190)" stroke-opacity="0.544" stroke-width="1.16" />
  <path d="M 996.36 1001.81 L 993.31 1000.45 L 990.25 999.11 L 987.22 997.75 L 984.20 996.40 L 981.18 995.08 L 978.18 993.76 L 975.20 992.39 L 972.24 991.03 L 969.30 989.67 L 966.38 988.28 L 963.48 986.90 L 960.59 985.50 L 957.70 984.16 L 954.80 982.85 L 951.92 981.54 L 949.05 980.25 L 946.19 978.97 L 943.32 977.72 L 940.48 976.45 L 937.64 975.20 L 934.81 973.95 L 932.00 972.70 L 929.20 971.45 L 926.39 970.25 L 923.59 969.05 L 920.81 967.87 L 918.03 966.70 L 915.27 965.50 L 912.50 964.36 L 909.75 963.20 L 907.06 961.96 L 904.37 960.72 L 901.69 959.51 L 899.01 958.31 L 896.35 957.11 L 893.70 955.90 L 891.06 954.70 L 888.45 953.46 L 885.85 952.23 L 883.25 951.03 L 880.67 949.82 L 878.08 948.64 L 875.51 947.46 L 872.94 946.30 L 870.38 945.14 L 867.85 943.96 L 865.33 942.77 L 862.83 941.58 L 860.32 940.41 L 857.82 939.27 L 855.35 938.07 L 852.91 936.85 L 850.49 935.60 L 848.08 934.37 L 845.69 933.12 L 843.31 931.88 L 840.94 930.64 L 838.58 929.39 L 836.25 928.13 L 833.93 926.86 L 831.61 925.60 L 829.30 924.36 L 826.99 923.15 L 824.69 921.93 L 822.40 920.71 L 820.12 919.49 L 817.84 918.32 L 815.57 917.14 L 813.30 915.97 L 811.05 914.80 L 808.80 913.64 L 806.57 912.48" stroke="rgb(140,255,190)" stroke-opacity="0.724" stroke-width="1.15" />
  <path d="M 999.92 1002.41 L 1001.54 1004.46 L 1003.15 1006.48 L 1004.69 1008.58 L 1006.16 1010.71 L 1007.62 1012.84 L 1009.06 1015.01 L 1010.45 1017.16 L 1011.84 1019.32 L 1013.23 1021.48 L 1014.61 1023.68 L 1015.87 1025.89" stroke="rgb(205,165,255)" stroke-opacity="0.480" stroke-width="1.15" />
  <path d="M 934.81 973.95 L 932.58 973.27 L 930.36 972.59 L 928.17 971.83 L 925.96 971.03 L 923.78 970.17 L 921.61 969.28 L 919.46 968.36 L 917.36 967.40 L 915.19 966.57 L 913.02 965.80 L 910.86 965.03 L 908.70 964.31 L 906.59 963.50 L 904.52 962.66 L 902.43 961.77 L 900.37 960.85 L 898.30 959.96 L 896.26 959.02 L 894.24 958.04 L 892.22 957.07 L 890.19 956.15 L 888.16 955.25 L 886.11 954.41 L 884.11 953.53 L 882.09 952.69 L 880.13 951.77 L 878.19 950.82 L 876.26 949.91 L 874.38 948.98 L 872.53 948.02 L 870.68 947.07 L 868.84 946.13 L 867.01 945.20 L 865.14 944.38 L 863.30 943.63 L 861.49 942.80 L 859.67 942.10 L 857.82 941.50 L 856.01 940.93 L 854.14 940.39 L 852.25 939.88 L 850.43 939.35 L 848.67 938.80 L 846.90 938.27 L 845.11 937.81 L 843.36 937.34 L 841.60 936.81 L 839.83 936.27 L 838.05 935.75 L 836.29 935.27 L 834.52 934.81 L 832.76 934.27 L 831.02 933.73 L 829.30 933.18 L 827.57 932.60 L 825.87 931.95 L 824.20 931.29 L 822.54 930.65 L 820.90 929.96 L 819.27 929.25 L 817.57 928.58 L 815.90 927.91 L 814.24 927.23 L 812.58 926.53 L 810.96 925.78 L 809.31 925.05 L 807.70 924.22 L 806.08 923.41 L 804.45 922.63 L 802.80 921.88 L 801.15 921.15 L 799.52 920.38 L 797.92 919.57 L 796.28 918.81 L 794.71 917.91 L 793.12 917.11 L 791.58 916.29 L 789.98 915.62 L 788.39 914.92 L 786.79 914.25 L 785.17 913.61 L 783.54 912.99 L 781.92 912.37 L 780.34 911.66 L 778.77 910.95 L 777.20 910.24 L 775.62 909.58 L 774.02 908.96 L 772.42 908.37 L 770.79 907.85 L 769.16 907.37 L 767.53 906.89 L 765.91 906.40 L 764.30 905.92 L 762.71 905.47 L 761.12 905.02 L 759.56 904.50 L 757.98 904.11" stroke="rgb(140,255,190)" stroke-opacity="0.541" stroke-width="1.15" />
  <path d="M 961.04 976.18 L 958.58 975.64 L 956.09 975.14 L 953.62 974.64 L 951.16 974.09 L 948.72 973.51" stroke="rgb(140,255,190)" stroke-opacity="0.720" stroke-width="1.14" />
  <path d="M 1002.17 999.10 L 999.51 997.42 L 996.86 995.74 L 994.24 994.06 L 991.63 992.37 L 989.03 990.67 L 986.49 988.92 L 983.96 987.18 L 981.44 985.46 L 978.95 983.71 L 976.46 981.97 L 974.03 980.19 L 971.61 978.41 L 969.17 976.67 L 966.73 974.96" stroke="rgb(140,255,190)" stroke-opacity="0.718" stroke-width="1.14" />
  <path d="M 899.51 955.93 L 896.98 954.37 L 894.53 952.72 L 892.13 951.06 L 889.80 949.35 L 887.52 947.55 L 885.23 945.75 L 883.00 943.88 L 880.76 942.04 L 878.56 940.18 L 876.36 938.32 L 874.19 936.44 L 872.04 934.52 L 869.93 932.58 L 867.84 930.63 L 865.83 928.60 L 863.84 926.58 L 861.88 924.56 L 859.93 922.55 L 857.96 920.56 L 855.93 918.64 L 853.93 916.72 L 851.97 914.78 L 850.06 912.83 L 848.15 910.85 L 846.25 908.87 L 844.32 906.95 L 842.38 905.07 L 840.46 903.18 L 838.56 901.28 L 836.74 899.32 L 834.95 897.39 L 833.05 895.55 L 831.16 893.70 L 829.29 891.85 L 827.45 889.98 L 825.64 888.14 L 823.88 886.25 L 822.13 884.36 L 820.47 882.39 L 818.82 880.40 L 817.16 878.40 L 815.51 876.41 L 813.87 874.42 L 812.24 872.42 L 810.61 870.45 L 808.98 868.48 L 807.38 866.52 L 805.77 864.58 L 804.23 862.60 L 802.68 860.65 L 801.11 858.71 L 799.57 856.76 L 797.94 854.87 L 796.33 853.00 L 794.68 851.16 L 793.03 849.34 L 791.39 847.53 L 789.75 845.73 L 788.09 843.96" stroke="rgb(140,255,190)" stroke-opacity="0.717" stroke-width="1.14" />
  <path d="M 996.72 996.14 L 993.73 995.17 L 990.75 994.24 L 987.76 993.37 L 984.78 992.47 L 981.82 991.57 L 978.87 990.66 L 975.97 989.65 L 973.09 988.64 L 970.21 987.65 L 967.35 986.68 L 964.51 985.71" stroke="rgb(140,255,190)" stroke-opacity="0.715" stroke-width="1.13" />
  <path d="M 956.56 942.90 L 954.95 940.70 L 953.38 938.49 L 951.80 936.31 L 950.25 934.12 L 948.69 931.95 L 947.07 929.87 L 945.43 927.80 L 943.87 925.69 L 942.33 923.57 L 940.81 921.45 L 939.37 919.26 L 937.90 917.10 L 936.47 914.93 L 935.12 912.70 L 933.77 910.51 L 932.55 908.29 L 931.40 906.08 L 930.36 903.84 L 929.28 901.63 L 928.24 899.42 L 927.22 897.23 L 926.11 895.06 L 924.96 892.93 L 923.75 890.80 L 922.51 888.68 L 921.17 886.64 L 919.87 884.59 L 918.56 882.55 L 917.26 880.51 L 916.10 878.43 L 914.94 876.34 L 913.83 874.26 L 912.70 872.22 L 911.57 870.20 L 910.41 868.17 L 909.31 866.13 L 908.20 864.12 L 907.04 862.15 L 905.91 860.21 L 904.77 858.28 L 903.64 856.36 L 902.66 854.37 L 901.70 852.37 L 900.74 850.36 L 899.74 848.35 L 898.70 846.38 L 897.68 844.40 L 896.72 842.38" stroke="rgb(205,165,255)" stroke-opacity="0.474" stroke-width="1.13" />
  <path d="M 894.26 953.66 L 892.29 952.18 L 890.33 950.69 L 888.39 949.18 L 886.48 947.64 L 884.55 946.15 L 882.59 944.70 L 880.65 943.26 L 878.76 941.76 L 876.94 940.19 L 875.13 938.62" stroke="rgb(140,255,190)" stroke-opacity="0.535" stroke-width="1.13" />
  <path d="M 999.65 1000.05 L 996.93 998.77 L 994.20 997.54 L 991.46 996.37 L 988.75 995.16 L 986.06 993.94 L 983.38 992.73 L 980.69 991.57 L 978.02 990.41 L 975.34 989.31 L 972.64 988.25 L 969.93 987.29 L 967.26 986.22 L 964.60 985.18 L 961.95 984.15 L 959.33 983.07 L 956.72 982.01 L 954.11 980.95 L 951.50 979.94 L 948.89 978.94 L 946.30 977.95 L 943.72 976.93 L 941.13 975.98 L 938.57 974.97 L 936.02 973.97 L 933.48 972.97 L 930.94 972.00 L 928.40 971.06 L 925.88 970.10 L 923.37 969.14 L 920.86 968.20 L 918.32 967.39 L 915.79 966.59 L 913.27 965.81 L 910.78 964.96 L 908.29 964.13 L 905.82 963.29 L 903.35 962.48 L 900.90 961.66 L 898.46 960.86 L 896.03 960.04 L 893.61 959.21 L 891.21 958.36 L 888.82 957.53 L 886.45 956.64 L 884.10 955.74 L 881.74 954.92 L 879.38 954.09 L 877.02 953.29 L 874.69 952.47 L 872.36 951.65 L 870.01 950.91 L 867.66 950.25 L 865.31 949.58 L 862.97 948.91 L 860.65 948.22 L 858.37 947.46 L 856.10 946.68 L 853.85 945.89 L 851.59 945.14 L 849.34 944.38" stroke="rgb(140,255,190)" stroke-opacity="0.533" stroke-width="1.12" />
  <path d="M 1002.25 999.21 L 999.76 997.57 L 997.27 995.95 L 994.79 994.34 L 992.32 992.73 L 989.89 991.11 L 987.42 989.55 L 984.96 988.03 L 982.52 986.50 L 980.08 984.99 L 977.63 983.52 L 975.24 981.96 L 972.87 980.42 L 970.53 978.85 L 968.21 977.29 L 965.92 975.67 L 963.65 974.06 L 961.40 972.44 L 959.16 970.81" stroke="rgb(140,255,190)" stroke-opacity="0.531" stroke-width="1.11" />
  <path d="M 1000.77 1002.47 L 998.35 1001.56 L 995.95 1000.66 L 993.55 999.76 L 991.19 998.83 L 988.81 997.97 L 986.49 997.00 L 984.16 996.06 L 981.85 995.11 L 979.51 994.25 L 977.19 993.36 L 974.90 992.42 L 972.61 991.51 L 970.33 990.62 L 968.06 989.71 L 965.81 988.81 L 963.56 987.93 L 961.30 987.09 L 959.08 986.19 L 956.87 985.31 L 954.65 984.43 L 952.45 983.55 L 950.26 982.67 L 948.08 981.79 L 945.94 980.82 L 943.81 979.88 L 941.68 978.96 L 939.55 978.05 L 937.43 977.13 L 935.35 976.15 L 933.28 975.17 L 931.23 974.17 L 929.18 973.21 L 927.15 972.22 L 925.13 971.23 L 923.12 970.23 L 921.16 969.14 L 919.23 968.03 L 917.31 966.92 L 915.42 965.80 L 913.53 964.68" stroke="rgb(140,255,190)" stroke-opacity="0.530" stroke-width="1.11" />
  <path d="M 948.35 971.97 L 945.70 971.10 L 943.04 970.30 L 940.42 969.45 L 937.81 968.60" stroke="rgb(140,255,190)" stroke-opacity="0.530" stroke-width="1.11" />
  <path d="M 982.39 974.66 L 980.70 972.88 L 979.01 971.11 L 977.29 969.41 L 975.67 967.62 L 973.99 965.84 L 972.27 964.10 L 970.55 962.36 L 968.83 960.65 L 967.11 958.94 L 965.50 957.20 L 963.92 955.44 L 962.36 953.68 L 960.69 952.02 L 959.06 950.35 L 957.42 948.68 L 955.78 947.07 L 954.13 945.45 L 952.50 943.82 L 950.88 942.23 L 949.29 940.60 L 947.69 939.01 L 946.22 937.29 L 944.69 935.63 L 943.14 934.01 L 941.61 932.38 L 940.08 930.73 L 938.57 929.10 L 937.07 927.50 L 935.59 925.88 L 934.20 924.24 L 932.81 922.60 L 931.44 920.97 L 930.08 919.34 L 928.70 917.75 L 927.32 916.25 L 925.96 914.75 L 924.59 913.29 L 923.24 911.85 L 921.86 910.35" stroke="rgb(205,165,255)" stroke-opacity="0.469" stroke-width="1.11" />
  <path d="M 1001.96 926.80 L 1002.12 925.74 L 1002.23 924.71 L 1002.37 923.71 L 1002.51 922.70 L 1002.65 921.71 L 1002.79 920.71 L 1002.91 919.65 L 1002.88 918.63 L 1002.84 917.62 L 1002.85 916.60 L 1002.86 915.54 L 1002.91 914.41 L 1002.93 913.33 L 1002.94 912.34 L 1002.99 911.35 L 1002.90 910.38 L 1002.95 909.53 L 1003.10 908.59 L 1003.20 907.71 L 1003.32 906.79 L 1003.52 905.83 L 1003.73 904.82 L 1004.00 903.86 L 1004.41 902.88 L 1004.91 901.92 L 1005.42 900.95 L 1006.03 900.05 L 1006.63 899.17 L 1007.21 898.34 L 1007.79 897.52 L 1008.34 896.63 L 1008.83 895.83 L 1009.38 895.01 L 1009.93 894.14 L 1010.48 893.33 L 1011.03 892.52 L 1011.60 891.70 L 1012.17 890.88 L 1012.75 890.09 L 1013.34 889.31 L 1014.02 888.58 L 1014.77 887.93 L 1015.66 887.21 L 1016.46 886.51 L 1017.22 885.85 L 1017.91 885.22 L 1018.57 884.57 L 1019.32 883.93 L 1020.07 883.29 L 1020.78 882.64 L 1021.52 881.94 L 1022.22 881.26 L 1022.85 880.61 L 1023.48 879.94 L 1024.08 879.21 L 1024.66 878.51 L 1025.24 877.81 L 1025.79 877.19 L 1026.27 876.61 L 1026.80 875.98 L 1027.31 875.22 L 1027.84 874.48 L 1028.40 873.68 L 1029.05 872.95 L 1029.70 872.31 L 1030.28 871.65" stroke="rgb(205,165,255)" stroke-opacity="0.469" stroke-width="1.11" />
  <path d="M 995.03 998.94 L 992.71 997.67 L 990.35 996.50 L 988.01 995.31 L 985.73 994.05 L 983.43 992.83 L 981.13 991.64 L 978.85 990.43 L 976.61 989.19 L 974.35 987.99 L 972.10 986.81 L 969.88 985.59 L 967.66 984.41 L 965.45 983.22 L 963.24 982.05 L 961.09 980.82 L 958.94 979.61 L 956.84 978.35 L 954.68 977.20 L 952.54 976.02 L 950.42 974.83 L 948.27 973.71 L 946.12 972.61 L 943.96 971.55 L 941.82 970.48" stroke="rgb(140,255,190)" stroke-opacity="0.529" stroke-width="1.11" />
  <path d="M 1000.23 1000.53 L 997.80 999.37 L 995.39 998.22 L 992.95 997.14 L 990.53 996.06 L 988.12 994.96 L 985.73 993.85 L 983.38 992.68 L 981.08 991.46 L 978.80 990.23 L 976.51 989.06 L 974.28 987.78 L 972.09 986.46 L 969.92 985.13 L 967.76 983.79 L 965.60 982.49 L 963.45 981.21 L 961.35 979.86 L 959.27 978.52 L 957.19 977.17" stroke="rgb(140,255,190)" stroke-opacity="0.529" stroke-width="1.11" />
  <path d="M 885.30 907.16 L 882.66 905.77 L 880.09 904.30 L 877.50 902.91 L 874.88 901.58" stroke="rgb(140,255,190)" stroke-opacity="0.528" stroke-width="1.10" />
  <path d="M 917.06 943.76 L 916.00 941.32 L 914.92 938.88 L 913.99 936.39 L 913.06 933.91 L 912.16 931.43 L 911.42 928.90 L 910.71 926.37 L 910.10 923.83 L 909.49 921.30 L 908.90 918.78 L 908.19 916.29 L 907.53 913.80 L 906.90 911.32 L 906.28 908.84 L 905.53 906.41 L 904.78 903.99 L 904.05 901.59 L 903.34 899.19 L 902.75 896.78 L 902.20 894.35 L 901.59 891.96 L 900.97 889.59 L 900.35 887.24 L 899.70 884.91 L 899.11 882.56 L 898.47 880.23 L 897.80 877.93 L 897.11 875.64 L 896.22 873.45 L 895.24 871.31 L 894.27 869.20 L 893.34 867.06 L 892.43 864.93 L 891.44 862.84 L 890.48 860.74 L 889.48 858.67 L 888.56 856.58 L 887.64 854.50 L 886.72 852.42 L 885.81 850.35 L 884.97 848.26 L 884.17 846.17 L 883.56 844.05 L 882.92 841.93 L 882.29 839.80 L 881.61 837.72 L 881.05 835.60 L 880.52 833.47 L 879.98 831.36 L 879.46 829.25 L 878.98 827.13 L 878.57 825.01" stroke="rgb(140,255,190)" stroke-opacity="0.528" stroke-width="1.10" />
  <path d="M 999.60 1002.47 L 996.93 1001.55 L 994.26 1000.64 L 991.61 999.71 L 988.98 998.74 L 986.37 997.77 L 983.78 996.79 L 981.18 995.85 L 978.64 994.79 L 976.11 993.74 L 973.58 992.71 L 971.09 991.61 L 968.64 990.48 L 966.20 989.37 L 963.77 988.27 L 961.34 987.18 L 958.92 986.10 L 956.51 985.03 L 954.12 983.92 L 951.76 982.81 L 949.42 981.69 L 947.09 980.56 L 944.76 979.46" stroke="rgb(140,255,190)" stroke-opacity="0.527" stroke-width="1.10" />
  <path d="M 994.64 1000.46 L 992.05 999.01 L 989.48 997.56 L 986.92 996.10 L 984.38 994.64 L 981.83 993.22 L 979.29 991.80 L 976.78 990.35 L 974.31 988.87 L 971.85 987.39 L 969.42 985.87 L 967.04 984.31 L 964.67 982.75 L 962.30 981.20 L 959.95 979.64 L 957.61 978.10 L 955.28 976.56 L 952.94 975.06 L 950.64 973.50 L 948.35 971.97 L 946.08 970.41 L 943.82 968.87 L 941.56 967.34 L 939.33 965.80 L 937.15 964.20 L 934.98 962.60 L 932.82 961.01 L 930.68 959.40 L 928.54 957.82 L 926.42 956.23 L 924.30 954.67 L 922.18 953.13 L 920.05 951.63 L 917.89 950.18 L 915.75 948.71 L 913.63 947.25 L 911.52 945.78 L 909.40 944.33 L 907.32 942.86 L 905.24 941.40 L 903.17 939.95 L 901.10 938.52 L 899.03 937.11 L 896.97 935.71 L 894.93 934.31 L 892.90 932.90 L 890.87 931.49 L 888.84 930.11 L 886.81 928.74 L 884.80 927.37 L 882.85 925.94 L 880.90 924.51 L 878.97 923.07 L 877.02 921.69 L 875.10 920.28" stroke="rgb(140,255,190)" stroke-opacity="0.527" stroke-width="1.10" />
  <path d="M 1000.21 997.48 L 997.64 996.11 L 995.06 994.79 L 992.45 993.55 L 989.85 992.31 L 987.25 991.09 L 984.66 989.90 L 982.06 988.73 L 979.48 987.56 L 976.91 986.41 L 974.35 985.25 L 971.79 984.12 L 969.24 983.00 L 966.72 981.83" stroke="rgb(140,255,190)" stroke-opacity="0.525" stroke-width="1.09" />
  <path d="M 999.96 1000.24 L 997.43 999.00 L 994.90 997.77 L 992.38 996.56 L 989.88 995.35 L 987.39 994.13 L 984.88 993.00 L 982.38 991.87 L 979.88 990.76 L 977.40 989.65 L 974.94 988.53 L 972.52 987.36 L 970.11 986.20 L 967.72 985.05 L 965.30 983.93 L 962.89 982.81 L 960.50 981.70 L 958.12 980.56 L 955.75 979.44 L 953.38 978.35 L 951.02 977.25 L 948.66 976.17 L 946.32 975.09 L 944.00 973.97 L 941.71 972.82 L 939.44 971.66 L 937.17 970.51 L 934.92 969.37 L 932.75 968.11 L 930.51 967.00 L 928.31 965.80" stroke="rgb(140,255,190)" stroke-opacity="0.524" stroke-width="1.09" />
  <path d="M 954.18 979.86 L 952.18 978.04 L 950.20 976.21 L 948.24 974.37 L 946.28 972.54 L 944.25 970.82 L 942.21 969.14 L 940.16 967.49 L 938.18 965.81 L 936.19 964.10 L 934.24 962.37 L 932.32 960.62 L 930.44 958.87 L 928.70 957.02 L 926.98 955.15 L 925.28 953.26 L 923.59 951.38 L 921.94 949.48 L 920.31 947.58 L 918.67 945.68 L 917.06 943.76 L 915.43 941.85 L 913.82 939.93 L 912.16 938.07 L 910.54 936.17 L 909.04 934.20 L 907.42 932.35 L 905.81 930.49 L 904.16 928.69 L 902.54 926.88 L 900.89 925.09 L 899.21 923.35 L 897.51 921.64 L 895.89 919.86 L 894.33 918.05 L 892.76 916.25 L 891.23 914.43 L 889.74 912.60 L 888.25 910.77 L 886.75 908.98 L 885.30 907.16 L 883.90 905.30 L 882.58 903.41 L 881.26 901.52 L 879.92 899.65 L 878.58 897.80 L 877.21 895.97 L 875.88 894.15 L 874.43 892.42 L 873.05 890.65 L 871.63 888.92" stroke="rgb(140,255,190)" stroke-opacity="0.524" stroke-width="1.09" />
  <path d="M 998.94 999.40 L 996.43 998.18 L 993.98 996.90 L 991.48 995.72 L 989.00 994.54 L 986.53 993.35 L 984.08 992.16 L 981.63 990.97 L 979.21 989.77 L 976.80 988.56 L 974.42 987.32 L 972.06 986.07 L 969.71 984.83 L 967.39 983.56 L 965.08 982.30 L 962.78 981.02 L 960.45 979.83 L 958.11 978.66 L 955.79 977.50" stroke="rgb(140,255,190)" stroke-opacity="0.524" stroke-width="1.09" />
  <path d="M 942.91 959.28 L 940.46 957.98 L 938.03 956.65 L 935.60 955.35 L 933.22 954.02 L 930.79 952.80 L 928.34 951.64 L 925.90 950.45 L 923.47 949.26 L 921.06 948.14 L 918.66 947.07 L 916.25 946.06 L 913.92 945.02 L 911.59 943.98 L 909.27 942.95 L 906.95 941.91 L 904.64 940.89 L 902.36 939.86 L 900.06 938.92 L 897.77 938.07 L 895.49 937.17 L 893.21 936.30 L 890.93 935.44 L 888.61 934.54 L 886.29 933.68 L 884.00 932.80 L 881.71 931.91 L 879.44 931.03 L 877.20 930.09 L 874.96 929.15 L 872.80 928.11 L 870.64 927.09 L 868.39 926.23 L 866.15 925.40 L 863.91 924.56 L 861.66 923.79 L 859.42 923.02 L 857.19 922.20 L 854.97 921.39 L 852.75 920.58 L 850.50 919.89 L 848.28 919.17 L 846.09 918.43 L 843.89 917.73 L 841.70 917.02 L 839.52 916.34 L 837.41 915.56 L 835.33 914.77 L 833.23 914.05 L 831.15 913.33 L 829.07 912.60 L 826.95 911.98 L 824.84 911.36 L 822.75 910.68 L 820.68 909.95 L 818.64 909.19 L 816.67 908.36 L 814.71 907.49 L 812.77 906.61 L 810.84 905.77 L 808.95 904.92 L 807.08 904.07 L 805.22 903.19 L 803.30 902.30 L 801.38 901.42 L 799.41 900.59 L 797.45 899.76" stroke="rgb(140,255,190)" stroke-opacity="0.522" stroke-width="1.08" />
  <path d="M 975.22 961.63 L 973.53 960.14 L 971.83 958.69 L 970.15 957.20 L 968.58 955.69 L 967.05 954.08 L 965.51 952.49 L 963.98 950.90 L 962.46 949.32 L 961.00 947.70 L 959.52 946.09 L 958.03 944.50 L 956.56 942.90 L 955.10 941.29 L 953.65 939.69 L 952.14 938.15 L 950.63 936.64 L 949.17 935.09 L 947.72 933.56 L 946.31 932.00 L 944.90 930.48 L 943.57 928.90 L 942.23 927.36 L 940.89 925.83 L 939.55 924.31 L 938.27 922.78 L 937.02 921.21 L 935.77 919.65 L 934.55 918.08 L 933.37 916.47 L 932.24 914.87 L 931.03 913.32 L 929.78 911.80 L 928.52 910.28 L 927.31 908.71 L 926.14 907.12 L 925.00 905.49 L 923.89 903.85 L 922.78 902.23 L 921.62 900.64 L 920.44 899.08 L 919.34 897.46 L 918.21 895.87 L 917.09 894.29" stroke="rgb(205,165,255)" stroke-opacity="0.454" stroke-width="1.05" />
  <path d="M 997.65 999.51 L 996.24 997.71 L 994.99 995.80 L 993.79 993.87 L 992.60 991.93 L 991.46 989.96 L 990.33 988.00 L 989.17 986.06 L 987.94 984.18 L 986.79 982.27 L 985.61 980.39 L 984.54 978.47 L 983.46 976.55 L 982.39 974.66 L 981.37 972.75 L 980.35 970.85 L 979.36 968.97 L 978.38 967.09 L 977.37 965.22 L 976.30 963.41 L 975.22 961.63 L 974.13 959.84 L 973.11 958.05 L 972.06 956.29 L 971.01 954.53" stroke="rgb(205,165,255)" stroke-opacity="0.451" stroke-width="1.04" />
  <path d="M 1000.78 998.49 L 998.65 998.80 L 996.52 999.11 L 994.39 999.39 L 992.26 999.65 L 990.14 999.93 L 988.05 1000.21 L 985.97 1000.36 L 983.89 1000.31 L 981.84 1000.26 L 979.79 1000.12 L 977.76 1000.06 L 975.75 1000.04 L 973.78 1000.07 L 971.83 999.99 L 969.90 999.90 L 967.97 999.82 L 966.04 999.76 L 964.12 999.71 L 962.24 999.84 L 960.35 1000.04 L 958.47 1000.36 L 956.58 1000.63 L 954.72 1000.87 L 952.87 1001.10 L 951.01 1001.31 L 949.17 1001.55 L 947.33 1001.83 L 945.51 1002.12 L 943.68 1002.35 L 941.86 1002.59 L 940.08 1002.81" stroke="rgb(205,165,255)" stroke-opacity="0.447" stroke-width="1.03" />
  <path d="M 1001.28 1006.88 L 1001.77 1005.53 L 1002.11 1004.11 L 1002.53 1002.68 L 1003.13 1001.33 L 1003.64 999.94 L 1004.09 998.54 L 1004.32 997.10 L 1004.43 995.65 L 1004.52 994.21 L 1004.60 992.77 L 1004.68 991.33 L 1004.57 989.90" stroke="rgb(230,230,230)" stroke-opacity="0.383" stroke-width="0.70" />
  <path d="M 999.22 997.27 L 999.80 996.28 L 1000.41 995.30 L 1001.04 994.47 L 1001.65 993.57 L 1002.22 992.69 L 1002.77 991.80 L 1003.27 990.90 L 1003.74 989.96" stroke="rgb(230,230,230)" stroke-opacity="0.378" stroke-width="0.69" />
  <path d="M 996.15 993.34 L 997.57 993.80 L 999.02 994.17 L 1000.45 994.54 L 1001.88 994.90 L 1003.30 995.27 L 1004.70 995.67 L 1006.11 996.05 L 1007.49 996.45 L 1008.91 996.72 L 1010.30 997.03 L 1011.66 997.39" stroke="rgb(230,230,230)" stroke-opacity="0.378" stroke-width="0.69" />
  <path d="M 1001.84 999.49 L 1002.96 998.50 L 1004.09 997.52 L 1005.20 996.53 L 1006.28 995.53 L 1007.32 994.47 L 1008.34 993.46 L 1009.32 992.45 L 1010.28 991.45" stroke="rgb(230,230,230)" stroke-opacity="0.377" stroke-width="0.69" />
  <path d="M 1005.97 996.95 L 1004.89 995.99 L 1003.67 995.28 L 1002.55 994.81 L 1001.44 994.34 L 1000.53 993.92 L 999.61 993.49 L 998.69 993.05 L 998.03 992.55 L 997.32 992.12" stroke="rgb(230,230,230)" stroke-opacity="0.375" stroke-width="0.68" />
  <path d="M 1001.45 999.64 L 1000.66 1000.80 L 999.83 1001.91 L 999.03 1003.03 L 998.23 1004.15 L 997.43 1005.29 L 996.62 1006.44 L 995.89 1007.63 L 995.18 1008.84 L 994.48 1010.04 L 993.82 1011.26" stroke="rgb(230,230,230)" stroke-opacity="0.375" stroke-width="0.68" />
  <path d="M 997.39 1004.27 L 996.12 1003.52 L 994.85 1002.82 L 993.60 1002.06 L 992.31 1001.35 L 991.07 1000.63 L 989.84 999.90 L 988.55 999.26" stroke="rgb(230,230,230)" stroke-opacity="0.374" stroke-width="0.68" />
  <path d="M 998.25 997.00 L 998.07 998.04 L 997.67 999.02 L 997.30 1000.01 L 996.92 1001.07" stroke="rgb(230,230,230)" stroke-opacity="0.372" stroke-width="0.67" />
  <path d="M 1003.17 996.97 L 1002.16 995.88 L 1001.15 994.80 L 1000.19 993.70 L 999.41 992.51 L 998.64 991.33 L 997.97 990.08 L 997.24 988.87" stroke="rgb(230,230,230)" stroke-opacity="0.371" stroke-width="0.67" />
  <path d="M 1001.28 1005.05 L 1000.24 1004.57 L 999.18 1004.11 L 998.13 1003.55 L 997.10 1002.90 L 996.08 1002.26 L 995.07 1001.55 L 994.03 1000.77 L 992.88 1000.03 L 991.79 999.22 L 990.69 998.43 L 989.64 997.58 L 988.57 996.76" stroke="rgb(230,230,230)" stroke-opacity="0.368" stroke-width="0.66" />
  <path d="M 998.22 1000.98 L 997.23 1000.13 L 996.25 999.29 L 995.26 998.45 L 994.28 997.68 L 993.36 996.91 L 992.42 996.20 L 991.44 995.53 L 990.46 994.87 L 989.48 994.19 L 988.36 993.60 L 987.22 992.99 L 986.11 992.35 L 985.04 991.70 L 984.00 991.06 L 983.02 990.36 L 982.05 989.62 L 981.07 988.94" stroke="rgb(230,230,230)" stroke-opacity="0.367" stroke-width="0.66" />
  <path d="M 1005.78 1000.19 L 1006.83 999.60 L 1007.92 999.03 L 1009.00 998.47 L 1010.11 997.79 L 1011.25 997.11 L 1012.43 996.27 L 1013.48 995.31 L 1014.53 994.37" stroke="rgb(230,230,230)" stroke-opacity="0.367" stroke-width="0.66" />
  <path d="M 995.28 995.86 L 995.22 996.76 L 995.15 997.65 L 995.06 998.53 L 995.16 999.41 L 995.26 1000.29 L 995.53 1001.11 L 995.83 1001.89 L 996.14 1002.51 L 996.29 1003.27" stroke="rgb(230,230,230)" stroke-opacity="0.365" stroke-width="0.65" />
  <path d="M 1001.51 998.54 L 1000.54 999.55 L 999.59 1000.55 L 998.69 1001.56 L 997.79 1002.55 L 996.95 1003.59 L 996.15 1004.65 L 995.27 1005.61 L 994.43 1006.62 L 993.67 1007.74 L 992.86 1008.80 L 992.05 1009.86 L 991.32 1010.93 L 990.58 1011.99 L 989.83 1013.04" stroke="rgb(230,230,230)" stroke-opacity="0.364" stroke-width="0.65" />
  <path d="M 996.57 1004.50 L 997.37 1004.20 L 998.08 1003.93 L 998.83 1003.74 L 999.59 1003.55 L 1000.52 1003.53 L 1001.44 1003.48 L 1002.32 1003.39 L 1003.40 1003.15 L 1004.47 1002.84 L 1005.51 1002.58 L 1006.57 1002.19 L 1007.59 1001.77 L 1008.64 1001.34" stroke="rgb(230,230,230)" stroke-opacity="0.364" stroke-width="0.65" />
  <path d="M 1002.10 1001.00 L 1002.10 1000.75 L 1002.15 1000.50 L 1002.52 1000.25 L 1002.92 1000.03 L 1003.33 999.87 L 1004.02 1000.02 L 1004.65 1000.25" stroke="rgb(230,230,230)" stroke-opacity="0.363" stroke-width="0.65" />
  <path d="M 996.82 993.55 L 997.64 993.08 L 998.42 992.59 L 999.03 991.91 L 999.65 991.26 L 1000.38 990.56 L 1001.09 989.66 L 1001.74 988.74 L 1002.36 987.81 L 1003.27 987.07" stroke="rgb(230,230,230)" stroke-opacity="0.356" stroke-width="0.63" />
  <path d="M 997.05 1002.05 L 997.98 1002.91 L 998.97 1003.73 L 1000.01 1004.57" stroke="rgb(230,230,230)" stroke-opacity="0.353" stroke-width="0.62" />
</g>
</svg>
