{
  "asset": {
    "version": "2.0",
    "generator": "TES-23 Cosmic Ray Renderer"
  },
  "extensionsUsed": [
    "KHR_materials_unlit"
  ],
  "extensionsRequired": [
    "KHR_materials_unlit"
  ],
  "scene": 0,
  "scenes": [
    {
      "nodes": [
        0
      ]
    }
  ],
  "nodes": [
    {
      "name": "CosmicRayEvent",
      "mesh": 0
    }
  ],
  "meshes": [
    {
      "name": "CosmicRayEvent",
      "primitives": [
        {
          "attributes": {
            "POSITION": 0
          },
          "material": 0,
          "mode": 1
        },
        {
          "attributes": {
            "POSITION": 1
          },
          "material": 1,
          "mode": 1
        },
        {
          "attributes": {
            "POSITION": 2
          },
          "material": 2,
          "mode": 1
        },
        {
          "attributes": {
            "POSITION": 3
          },
          "material": 3,
          "mode": 1
        },
        {
          "attributes": {
            "POSITION": 4
          },
          "material": 4,
          "mode": 1
        }
      ]
    }
  ],
  "materials": [
    {
      "name": "primary",
      "extensions": {
        "KHR_materials_unlit": {}
      },
      "pbrMetallicRoughness": {
        "baseColorFactor": [
          0.961,
          0.961,
          0.961,
          1
        ],
        "metallicFactor": 0,
        "roughnessFactor": 1
      }
    },
    {
      "name": "vertex",
      "extensions": {
        "KHR_materials_unlit": {}
      },
      "pbrMetallicRoughness": {
        "baseColorFactor": [
          0.902,
          0.902,
          0.902,
          0.9
        ],
        "metallicFactor": 0,
        "roughnessFactor": 1
      }
    },
    {
      "name": "em",
      "extensions": {
        "KHR_materials_unlit": {}
      },
      "pbrMetallicRoughness": {
        "baseColorFactor": [
          0.471,
          0.824,
          1,
          1
        ],
        "metallicFactor": 0,
        "roughnessFactor": 1
      }
    },
    {
      "name": "hadron",
      "extensions": {
        "KHR_materials_unlit": {}
      },
      "pbrMetallicRoughness": {
        "baseColorFactor": [
          0.549,
          1,
          0.745,
          1
        ],
        "metallicFactor": 0,
        "roughnessFactor": 1
      }
    },
    {
      "name": "delta",
      "extensions": {
        "KHR_materials_unlit": {}
      },
      "pbrMetallicRoughness": {
        "baseColorFactor": [
          0.804,
          0.647,
          1,
          1
        ],
        "metallicFactor": 0,
        "roughnessFactor": 1
      }
    }
  ],
  "accessors": [
    {
      "bufferView": 0,
      "byteOffset": 0,
      "componentType": 5126,
      "count": 1380,
      "type": "VEC3",
      "min": [
        -0.21725793182849884,
        -0.9999010562896729,
        0
      ],
      "max": [
        0.21392737329006195,
        1.0217669010162354,
        0
      ]
    },
    {
      "bufferView": 1,
      "byteOffset": 0,
      "componentType": 5126,
      "count": 272,
      "type": "VEC3",
      "min": [
        -0.00643151206895709,
        -0.01432591862976551,
        -0.0733800008893013
      ],
      "max": [
        0.010349435731768608,
        0.016336238011717796,
        0.07956697046756744
      ]
    },
    {
      "bufferView": 2,
      "byteOffset": 0,
      "componentType": 5126,
      "count": 1114,
      "type": "VEC3",
      "min": [
        -0.0014528960455209017,
        -0.000457257148809731,
        -0.18898309767246246
      ],
      "max": [
        0.05670216307044029,
        0.23834377527236938,
        0.07488436996936798
      ]
    },
    {
      "bufferView": 3,
      "byteOffset": 0,
      "componentType": 5126,
      "count": 2690,
      "type": "VEC3",
      "min": [
        -0.08531919121742249,
        -0.2493651956319809,
        -0.22134824097156525
      ],
      "max": [
        0.06967856734991074,
        0.33301791548728943,
        0.8560684323310852
      ]
    },
    {
      "bufferView": 4,
      "byteOffset": 0,
      "componentType": 5126,
      "count": 698,
      "type": "VEC3",
      "min": [
        -0.04931267350912094,
        -0.001975996419787407,
        -0.5804240703582764
      ],
      "max": [
        0.06848051398992538,
        0.1840994954109192,
        0.3994525969028473
      ]
    }
  ],
  "bufferViews": [
    {
      "buffer": 0,
      "byteOffset": 0,
      "byteLength": 16560,
      "target": 34962
    },
    {
      "buffer": 0,
      "byteOffset": 16560,
      "byteLength": 3264,
      "target": 34962
    },
    {
      "buffer": 0,
      "byteOffset": 19824,
      "byteLength": 13368,
      "target": 34962
    },
    {
      "buffer": 0,
      "byteOffset": 33192,
      "byteLength": 32280,
      "target": 34962
    },
    {
      "buffer": 0,
      "byteOffset": 65472,
      "byteLength": 8376,
      "target": 34962
    }
  ],
  "buffers": [
    {
      "byteLength": 73848,
      "uri": "data:application/octet-stream;base64,"
    }
  ]
}