{
  "asset": {
    "version": "2.0",
    "generator": "TES-23 Cosmic Ray Renderer"
  },
  "extensionsUsed": [
    "KHR_materials_unlit"
  ],
  "extensionsRequired": [
    "KHR_materials_unlit"
  ],
  "scene": 0,
  "scenes": [
    {
      "nodes": [
        0
      ]
    }
  ],
  "nodes": [
    {
      "name": "CosmicRayEvent",
      "mesh": 0
    }
  ],
  "meshes": [
    {
      "name": "CosmicRayEvent",
      "primitives": [
        {
          "attributes": {
            "POSITION": 0
          },
          "material": 0,
          "mode": 1
        },
        {
          "attributes": {
            "POSITION": 1
          },
          "material": 1,
          "mode": 1
        },
        {
          "attributes": {
            "POSITION": 2
          },
          "material": 2,
          "mode": 1
        },
        {
          "attributes": {
            "POSITION": 3
          },
          "material": 3,
          "mode": 1
        },
        {
          "attributes": {
            "POSITION": 4
          },
          "material": 4,
          "mode": 1
        }
      ]
    }
  ],
  "materials": [
    {
      "name": "primary",
      "extensions": {
        "KHR_materials_unlit": {}
      },
      "pbrMetallicRoughness": {
        "baseColorFactor": [
          0.961,
          0.961,
          0.961,
          1
        ],
        "metallicFactor": 0,
        "roughnessFactor": 1
      }
    },
    {
      "name": "vertex",
      "extensions": {
        "KHR_materials_unlit": {}
      },
      "pbrMetallicRoughness": {
        "baseColorFactor": [
          0.902,
          0.902,
          0.902,
          0.9
        ],
        "metallicFactor": 0,
        "roughnessFactor": 1
      }
    },
    {
      "name": "em",
      "extensions": {
        "KHR_materials_unlit": {}
      },
      "pbrMetallicRoughness": {
        "baseColorFactor": [
          0.471,
          0.824,
          1,
          1
        ],
        "metallicFactor": 0,
        "roughnessFactor": 1
      }
    },
    {
      "name": "hadron",
      "extensions": {
        "KHR_materials_unlit": {}
      },
      "pbrMetallicRoughness": {
        "baseColorFactor": [
          0.549,
          1,
          0.745,
          1
        ],
        "metallicFactor": 0,
        "roughnessFactor": 1
      }
    },
    {
      "name": "delta",
      "extensions": {
        "KHR_materials_unlit": {}
      },
      "pbrMetallicRoughness": {
        "baseColorFactor": [
          0.804,
          0.647,
          1,
          1
        ],
        "metallicFactor": 0,
        "roughnessFactor": 1
      }
    }
  ],
  "accessors": [
    {
      "bufferView": 0,
      "byteOffset": 0,
      "componentType": 5126,
      "count": 1476,
      "type": "VEC3",
      "min": [
        -1.0201847553253174,
        -0.4430173933506012,
        0
      ],
      "max": [
        1.0001089572906494,
        0.45903459191322327,
        0.023731211200356483
      ]
    },
    {
      "bufferView": 1,
      "byteOffset": 0,
      "componentType": 5126,
      "count": 254,
      "type": "VEC3",
      "min": [
        -0.010342313908040524,
        -0.015085567720234394,
        0.00004731575245386921
      ],
      "max": [
        0.01294085942208767,
        0.01823101006448269,
        0.0005846468266099691
      ]
    },
    {
      "bufferView": 2,
      "byteOffset": 0,
      "componentType": 5126,
      "count": 1474,
      "type": "VEC3",
      "min": [
        -0.3645477294921875,
        -0.003209170652553439,
        0.0001788653462426737
      ],
      "max": [
        0.004079872742295265,
        0.14400532841682434,
        0.11325027793645859
      ]
    },
    {
      "bufferView": 3,
      "byteOffset": 0,
      "componentType": 5126,
      "count": 2752,
      "type": "VEC3",
      "min": [
        -0.39598754048347473,
        -0.09461401402950287,
        0.00016954571765381843
      ],
      "max": [
        0.21246469020843506,
        0.14332596957683563,
        0.0927686020731926
      ]
    },
    {
      "bufferView": 4,
      "byteOffset": 0,
      "componentType": 5126,
      "count": 1278,
      "type": "VEC3",
      "min": [
        -0.20632855594158173,
        -0.12897168099880219,
        0.00003177638427587226
      ],
      "max": [
        0.0004709276254288852,
        0.4576607942581177,
        0.06395706534385681
      ]
    }
  ],
  "bufferViews": [
    {
      "buffer": 0,
      "byteOffset": 0,
      "byteLength": 17712,
      "target": 34962
    },
    {
      "buffer": 0,
      "byteOffset": 17712,
      "byteLength": 3048,
      "target": 34962
    },
    {
      "buffer": 0,
      "byteOffset": 20760,
      "byteLength": 17688,
      "target": 34962
    },
    {
      "buffer": 0,
      "byteOffset": 38448,
      "byteLength": 33024,
      "target": 34962
    },
    {
      "buffer": 0,
      "byteOffset": 71472,
      "byteLength": 15336,
      "target": 34962
    }
  ],
  "buffers": [
    {
      "byteLength": 86808,
      "uri": "data:application/octet-stream;base64,"
    }
  ]
}