{
  "asset": {
    "version": "2.0",
    "generator": "TES-23 Cosmic Ray Renderer"
  },
  "extensionsUsed": [
    "KHR_materials_unlit"
  ],
  "extensionsRequired": [
    "KHR_materials_unlit"
  ],
  "scene": 0,
  "scenes": [
    {
      "nodes": [
        0
      ]
    }
  ],
  "nodes": [
    {
      "name": "CosmicRayEvent",
      "mesh": 0
    }
  ],
  "meshes": [
    {
      "name": "CosmicRayEvent",
      "primitives": [
        {
          "attributes": {
            "POSITION": 0
          },
          "material": 0,
          "mode": 1
        },
        {
          "attributes": {
            "POSITION": 1
          },
          "material": 1,
          "mode": 1
        },
        {
          "attributes": {
            "POSITION": 2
          },
          "material": 2,
          "mode": 1
        },
        {
          "attributes": {
            "POSITION": 3
          },
          "material": 3,
          "mode": 1
        },
        {
          "attributes": {
            "POSITION": 4
          },
          "material": 4,
          "mode": 1
        }
      ]
    }
  ],
  "materials": [
    {
      "name": "primary",
      "extensions": {
        "KHR_materials_unlit": {}
      },
      "pbrMetallicRoughness": {
        "baseColorFactor": [
          0.961,
          0.961,
          0.961,
          1
        ],
        "metallicFactor": 0,
        "roughnessFactor": 1
      }
    },
    {
      "name": "vertex",
      "extensions": {
        "KHR_materials_unlit": {}
      },
      "pbrMetallicRoughness": {
        "baseColorFactor": [
          0.902,
          0.902,
          0.902,
          0.9
        ],
        "metallicFactor": 0,
        "roughnessFactor": 1
      }
    },
    {
      "name": "em",
      "extensions": {
        "KHR_materials_unlit": {}
      },
      "pbrMetallicRoughness": {
        "baseColorFactor": [
          0.471,
          0.824,
          1,
          1
        ],
        "metallicFactor": 0,
        "roughnessFactor": 1
      }
    },
    {
      "name": "hadron",
      "extensions": {
        "KHR_materials_unlit": {}
      },
      "pbrMetallicRoughness": {
        "baseColorFactor": [
          0.549,
          1,
          0.745,
          1
        ],
        "metallicFactor": 0,
        "roughnessFactor": 1
      }
    },
    {
      "name": "delta",
      "extensions": {
        "KHR_materials_unlit": {}
      },
      "pbrMetallicRoughness": {
        "baseColorFactor": [
          0.804,
          0.647,
          1,
          1
        ],
        "metallicFactor": 0,
        "roughnessFactor": 1
      }
    }
  ],
  "accessors": [
    {
      "bufferView": 0,
      "byteOffset": 0,
      "componentType": 5126,
      "count": 1354,
      "type": "VEC3",
      "min": [
        -0.9998467564582825,
        -0.0975603237748146,
        0
      ],
      "max": [
        1.0212604999542236,
        0.09447954595088959,
        0
      ]
    },
    {
      "bufferView": 1,
      "byteOffset": 0,
      "componentType": 5126,
      "count": 344,
      "type": "VEC3",
      "min": [
        -0.00882414449006319,
        -0.023532437160611153,
        -0.06850283592939377
      ],
      "max": [
        0.022977178916335106,
        0.019582802429795265,
        0.052213169634342194
      ]
    },
    {
      "bufferView": 2,
      "byteOffset": 0,
      "componentType": 5126,
      "count": 1286,
      "type": "VEC3",
      "min": [
        -0.003331677755340934,
        -0.05393468216061592,
        -0.0706746056675911
      ],
      "max": [
        0.2941349446773529,
        0.010870220139622688,
        0.14238832890987396
      ]
    },
    {
      "bufferView": 3,
      "byteOffset": 0,
      "componentType": 5126,
      "count": 2302,
      "type": "VEC3",
      "min": [
        -0.18054407835006714,
        -0.168162539601326,
        -0.4068579077720642
      ],
      "max": [
        0.2707676589488983,
        0.11423733830451965,
        1.0376085042953491
      ]
    },
    {
      "bufferView": 4,
      "byteOffset": 0,
      "componentType": 5126,
      "count": 1292,
      "type": "VEC3",
      "min": [
        -0.026493912562727928,
        -0.16582395136356354,
        -0.30662915110588074
      ],
      "max": [
        0.20620882511138916,
        0.17735452950000763,
        0.9490456581115723
      ]
    }
  ],
  "bufferViews": [
    {
      "buffer": 0,
      "byteOffset": 0,
      "byteLength": 16248,
      "target": 34962
    },
    {
      "buffer": 0,
      "byteOffset": 16248,
      "byteLength": 4128,
      "target": 34962
    },
    {
      "buffer": 0,
      "byteOffset": 20376,
      "byteLength": 15432,
      "target": 34962
    },
    {
      "buffer": 0,
      "byteOffset": 35808,
      "byteLength": 27624,
      "target": 34962
    },
    {
      "buffer": 0,
      "byteOffset": 63432,
      "byteLength": 15504,
      "target": 34962
    }
  ],
  "buffers": [
    {
      "byteLength": 78936,
      "uri": "data:application/octet-stream;base64,"
    }
  ]
}