<?xml version="1.0" encoding="UTF-8"?>
<svg xmlns="http://www.w3.org/2000/svg" width="2000" height="2000" viewBox="0 0 2000 2000">
<g fill="none" stroke-linecap="round" stroke-linejoin="round">
  <path d="M 1150.80 996.37 L 1153.91 996.99 L 1157.00 997.69 L 1160.07 998.39 L 1163.14 999.05 L 1166.17 999.79 L 1169.21 1000.45 L 1172.24 1001.09 L 1175.27 1001.72 L 1178.28 1002.35 L 1181.28 1002.93 L 1184.29 1003.46 L 1187.29 1003.92 L 1190.26 1004.49 L 1193.22 1005.06 L 1196.15 1005.69 L 1199.08 1006.29 L 1201.99 1006.93 L 1204.90 1007.49 L 1207.81 1008.00 L 1210.72 1008.46 L 1213.62 1008.90 L 1216.52 1009.24 L 1219.39 1009.67 L 1222.25 1010.11 L 1225.09 1010.59 L 1227.93 1011.06 L 1230.77 1011.41 L 1233.61 1011.54 L 1236.45 1011.71 L 1239.27 1011.90 L 1242.07 1012.16 L 1244.87 1012.32 L 1247.65 1012.56 L 1250.43 1012.74 L 1253.19 1012.88 L 1255.95 1013.03 L 1258.69 1013.10 L 1261.43 1013.14 L 1264.16 1013.20 L 1266.87 1013.17 L 1269.58 1013.25 L 1272.27 1013.35 L 1274.94 1013.52 L 1277.61 1013.70 L 1280.27 1013.87 L 1282.92 1013.97 L 1285.55 1014.16 L 1288.17 1014.38 L 1290.78 1014.63 L 1293.37 1014.88 L 1295.96 1015.16 L 1298.52 1015.55 L 1301.08 1015.85 L 1303.62 1016.22" stroke="rgb(120,210,255)" stroke-opacity="0.852" stroke-width="1.63" />
  <path d="M 995.73 996.96 L 999.19 997.06 L 1002.63 997.16 L 1006.06 997.31 L 1009.47 997.48 L 1012.87 997.61 L 1016.26 997.71 L 1019.63 997.75 L 1022.99 997.83 L 1026.34 997.95 L 1029.67 998.09 L 1032.99 998.22 L 1036.30 998.36 L 1039.59 998.48 L 1042.87 998.67 L 1046.13 998.84 L 1049.38 999.01 L 1052.62 999.16 L 1055.85 999.27 L 1059.07 999.40 L 1062.27 999.57 L 1065.45 999.71 L 1068.63 999.89 L 1071.79 1000.04 L 1074.94 1000.21 L 1078.08 1000.33 L 1081.20 1000.50 L 1084.31 1000.69 L 1087.41 1000.86 L 1090.49 1001.06 L 1093.57 1001.25 L 1096.62 1001.47 L 1099.67 1001.64 L 1102.71 1001.83 L 1105.73 1002.01 L 1108.75 1002.10 L 1111.75 1002.19 L 1114.74 1002.33 L 1117.72 1002.43 L 1120.69 1002.51 L 1123.65 1002.54 L 1126.59 1002.59 L 1129.53 1002.65 L 1132.45 1002.66 L 1135.36 1002.60 L 1138.26 1002.52 L 1141.14 1002.39 L 1144.01 1002.24 L 1146.87 1002.12 L 1149.72 1001.97 L 1152.56 1001.82 L 1155.39 1001.69 L 1158.20 1001.55 L 1161.00 1001.37 L 1163.80 1001.24 L 1166.58 1001.18 L 1169.35 1001.16 L 1172.12 1001.16 L 1174.87 1001.19 L 1177.61 1001.20 L 1180.34 1001.24 L 1183.06 1001.31 L 1185.76 1001.32 L 1188.46 1001.34 L 1191.15 1001.32 L 1193.82 1001.31 L 1196.49 1001.34" stroke="rgb(120,210,255)" stroke-opacity="0.849" stroke-width="1.62" />
  <path d="M 1000.86 1001.24 L 1004.08 1000.99 L 1007.28 1000.74 L 1010.48 1000.51 L 1013.66 1000.29 L 1016.83 1000.10 L 1020.00 999.96 L 1023.14 999.79 L 1026.28 999.72 L 1029.41 999.67 L 1032.52 999.61 L 1035.62 999.49 L 1038.71 999.46 L 1041.79 999.48 L 1044.85 999.44 L 1047.90 999.37 L 1050.94 999.27 L 1053.97 999.18 L 1056.98 999.01 L 1059.98 998.91 L 1062.98 998.86 L 1065.96 998.83 L 1068.92 998.77 L 1071.88 998.64" stroke="rgb(120,210,255)" stroke-opacity="0.849" stroke-width="1.62" />
  <path d="M 1117.72 1002.43 L 1120.68 1002.27 L 1123.62 1002.10 L 1126.55 1001.86 L 1129.47 1001.65 L 1132.38 1001.47 L 1135.28 1001.31 L 1138.16 1001.09 L 1141.02 1000.73 L 1143.86 1000.31 L 1146.68 999.85 L 1149.47 999.31 L 1152.25 998.75 L 1155.02 998.22 L 1157.78 997.69 L 1160.55 997.29 L 1163.29 996.74 L 1165.99 996.12 L 1168.69 995.49 L 1171.37 994.84 L 1174.03 994.19 L 1176.69 993.56 L 1179.34 992.91 L 1181.97 992.26 L 1184.60 991.64 L 1187.20 990.96 L 1189.77 990.20 L 1192.31 989.37 L 1194.84 988.56 L 1197.35 987.71 L 1199.86 986.92 L 1202.37 986.15 L 1204.89 985.45 L 1207.40 984.75 L 1209.87 983.95 L 1212.34 983.19 L 1214.82 982.50 L 1217.28 981.79 L 1219.70 980.97 L 1222.11 980.15 L 1224.49 979.29 L 1226.87 978.45 L 1229.28 977.73 L 1231.66 976.98 L 1234.03 976.18 L 1236.39 975.42 L 1238.74 974.63 L 1241.07 973.84 L 1243.36 972.96" stroke="rgb(120,210,255)" stroke-opacity="0.466" stroke-width="1.61" />
  <path d="M 1000.41 1000.09 L 1003.56 999.95 L 1006.70 999.74 L 1009.82 999.60 L 1012.93 999.45 L 1016.03 999.30 L 1019.11 999.00 L 1022.17 998.65 L 1025.20 998.25 L 1028.23 997.84 L 1031.25 997.44 L 1034.24 996.96 L 1037.20 996.40 L 1040.15 995.81 L 1043.10 995.29 L 1046.04 994.81 L 1048.95 994.23 L 1051.85 993.67 L 1054.76 993.18 L 1057.64 992.65 L 1060.52 992.14 L 1063.38 991.60 L 1066.22 991.05 L 1069.07 990.58 L 1071.92 990.16 L 1074.76 989.81 L 1077.58 989.39 L 1080.39 988.97 L 1083.19 988.54 L 1085.98 988.15 L 1088.76 987.77 L 1091.53 987.38 L 1094.29 987.01 L 1097.04 986.65 L 1099.77 986.25 L 1102.49 985.84 L 1105.19 985.36 L 1107.87 984.86 L 1110.54 984.34 L 1113.18 983.75 L 1115.81 983.12 L 1118.41 982.48 L 1121.02 981.89 L 1123.62 981.29 L 1126.23 980.79 L 1128.80 980.21 L 1131.37 979.64 L 1133.94 979.10 L 1136.49 978.51 L 1139.01 977.88 L 1141.52 977.23 L 1144.02 976.59 L 1146.49 975.88 L 1148.95 975.19" stroke="rgb(120,210,255)" stroke-opacity="0.844" stroke-width="1.60" />
  <path d="M 997.03 999.22 L 1000.24 999.21 L 1003.43 999.07 L 1006.61 998.89 L 1009.77 998.72 L 1012.92 998.52 L 1016.06 998.33 L 1019.19 998.13 L 1022.30 998.01 L 1025.40 997.75 L 1028.49 997.58 L 1031.56 997.42 L 1034.63 997.29 L 1037.69 997.22 L 1040.73 997.18 L 1043.76 997.17 L 1046.78 997.17 L 1049.79 997.21 L 1052.79 997.30 L 1055.77 997.40 L 1058.74 997.54 L 1061.69 997.69 L 1064.64 997.87 L 1067.57 998.06 L 1070.48 998.26 L 1073.39 998.47 L 1076.29 998.66 L 1079.17 998.78 L 1082.05 998.92 L 1084.91 999.06 L 1087.77 999.07 L 1090.61 999.19 L 1093.44 999.35 L 1096.26 999.46 L 1099.06 999.57 L 1101.86 999.78 L 1104.64 999.95 L 1107.40 1000.18 L 1110.16 1000.39 L 1112.91 1000.59 L 1115.64 1000.82 L 1118.36 1001.07 L 1121.07 1001.33 L 1123.76 1001.70 L 1126.43 1002.10 L 1129.08 1002.52 L 1131.72 1002.98 L 1134.35 1003.45 L 1136.97 1003.84 L 1139.59 1004.24 L 1142.19 1004.68 L 1144.78 1005.10 L 1147.37 1005.49 L 1149.94 1005.89 L 1152.49 1006.35 L 1155.04 1006.78 L 1157.57 1007.21 L 1160.09 1007.67 L 1162.60 1008.19 L 1165.09 1008.69 L 1167.57 1009.20 L 1170.04 1009.71 L 1172.50 1010.18 L 1174.97 1010.59 L 1177.43 1011.02" stroke="rgb(120,210,255)" stroke-opacity="0.844" stroke-width="1.60" />
  <path d="M 1146.87 1002.12 L 1150.26 1002.94 L 1153.66 1003.61 L 1157.06 1004.24 L 1160.44 1004.86 L 1163.82 1005.45 L 1167.18 1006.05 L 1170.53 1006.63 L 1173.86 1007.24 L 1177.17 1007.88 L 1180.46 1008.56 L 1183.73 1009.25 L 1186.99 1009.93 L 1190.25 1010.57 L 1193.49 1011.24 L 1196.71 1011.89 L 1199.91 1012.64 L 1203.09 1013.37 L 1206.27 1014.06 L 1209.44 1014.70 L 1212.61 1015.33 L 1215.76 1015.97 L 1218.90 1016.58 L 1222.05 1017.11 L 1225.18 1017.61 L 1228.31 1018.08 L 1231.42 1018.56 L 1234.53 1018.99 L 1237.63 1019.43 L 1240.71 1019.88 L 1243.78 1020.29 L 1246.85 1020.61 L 1249.91 1020.95 L 1252.95 1021.27 L 1255.99 1021.52 L 1259.02 1021.78 L 1262.04 1022.03 L 1265.05 1022.21 L 1268.05 1022.35 L 1271.03 1022.53 L 1274.00 1022.71 L 1276.97 1022.85 L 1279.92 1023.01 L 1282.85 1023.21 L 1285.78 1023.42 L 1288.69 1023.60 L 1291.59 1023.78 L 1294.48 1023.96 L 1297.36 1024.13 L 1300.23 1024.29 L 1303.08 1024.53 L 1305.92 1024.75 L 1308.75 1024.96 L 1311.57 1025.19 L 1314.38 1025.42 L 1317.17 1025.67 L 1319.96 1025.87 L 1322.73 1026.09 L 1325.50 1026.30 L 1328.25 1026.53 L 1330.99 1026.75 L 1333.72 1026.97 L 1336.43 1027.22 L 1339.14 1027.47 L 1341.83 1027.73 L 1344.51 1028.02 L 1347.17 1028.32 L 1349.84 1028.57 L 1352.49 1028.75 L 1355.13 1028.98 L 1357.77 1029.19 L 1360.39 1029.33 L 1363.01 1029.44 L 1365.61 1029.62 L 1368.21 1029.79" stroke="rgb(120,210,255)" stroke-opacity="0.843" stroke-width="1.60" />
  <path d="M 998.01 997.94 L 1000.98 997.88 L 1003.94 997.95 L 1006.89 997.94 L 1009.82 997.92" stroke="rgb(120,210,255)" stroke-opacity="0.464" stroke-width="1.60" />
  <path d="M 1004.14 999.09 L 1007.44 999.08 L 1010.72 999.03 L 1013.99 999.03 L 1017.25 999.09 L 1020.49 999.14 L 1023.72 999.16 L 1026.94 999.24 L 1030.14 999.32 L 1033.33 999.47 L 1036.50 999.67 L 1039.66 999.88 L 1042.81 999.97 L 1045.95 1000.08 L 1049.08 1000.23 L 1052.19 1000.40 L 1055.29 1000.56 L 1058.38 1000.72 L 1061.45 1000.93 L 1064.51 1001.07 L 1067.56 1001.19 L 1070.60 1001.31 L 1073.63 1001.45 L 1076.65 1001.46 L 1079.65 1001.50 L 1082.65 1001.55 L 1085.63 1001.66 L 1088.59 1001.70 L 1091.55 1001.68 L 1094.50 1001.56 L 1097.43 1001.45 L 1100.34 1001.24 L 1103.25 1001.04 L 1106.14 1000.80 L 1109.02 1000.60 L 1111.89 1000.43 L 1114.74 1000.21 L 1117.59 1000.00 L 1120.42 999.80" stroke="rgb(120,210,255)" stroke-opacity="0.842" stroke-width="1.60" />
  <path d="M 1000.89 1001.08 L 1004.19 1000.98 L 1007.49 1000.89 L 1010.76 1000.81 L 1014.03 1000.73 L 1017.28 1000.68 L 1020.52 1000.72 L 1023.75 1000.66 L 1026.96 1000.60 L 1030.16 1000.55 L 1033.35 1000.52 L 1036.53 1000.54 L 1039.69 1000.52 L 1042.84 1000.51 L 1045.98 1000.47 L 1049.11 1000.41 L 1052.22 1000.38 L 1055.32 1000.45 L 1058.41 1000.50 L 1061.48 1000.60 L 1064.54 1000.65 L 1067.59 1000.62 L 1070.63 1000.66 L 1073.66 1000.69 L 1076.67 1000.71 L 1079.68 1000.72 L 1082.67 1000.70 L 1085.64 1000.63 L 1088.61 1000.55 L 1091.56 1000.49 L 1094.51 1000.41 L 1097.44 1000.33 L 1100.35 1000.19 L 1103.26 1000.03 L 1106.15 999.82 L 1109.02 999.60 L 1111.88 999.36 L 1114.73 999.09 L 1117.57 998.82 L 1120.40 998.59 L 1123.21 998.31 L 1126.02 998.07 L 1128.81 997.81 L 1131.60 997.56 L 1134.37 997.35 L 1137.14 997.18 L 1139.89 997.08 L 1142.64 996.92 L 1145.37 996.74 L 1148.09 996.53 L 1150.80 996.37 L 1153.51 996.26 L 1156.19 996.09 L 1158.87 995.85 L 1161.53 995.61 L 1164.18 995.40 L 1166.83 995.19 L 1169.46 995.02 L 1172.09 994.84 L 1174.70 994.67 L 1177.31 994.52 L 1179.90 994.41 L 1182.49 994.34 L 1185.07 994.26 L 1187.64 994.23 L 1190.20 994.19 L 1192.74 994.21 L 1195.28 994.21 L 1197.81 994.23 L 1200.32 994.32 L 1202.83 994.42 L 1205.32 994.51 L 1207.81 994.57 L 1210.29 994.61 L 1212.75 994.69 L 1215.21 994.77 L 1217.65 994.87 L 1220.09 994.99 L 1222.51 995.13 L 1224.93 995.23 L 1227.34 995.28 L 1229.74 995.32 L 1232.13 995.35 L 1234.50 995.41 L 1236.87 995.47" stroke="rgb(120,210,255)" stroke-opacity="0.842" stroke-width="1.60" />
  <path d="M 999.27 1003.21 L 1002.71 1002.91 L 1006.13 1002.63 L 1009.54 1002.33 L 1012.94 1002.02 L 1016.33 1001.77 L 1019.70 1001.52 L 1023.06 1001.31 L 1026.41 1001.12 L 1029.75 1000.94 L 1033.07 1000.78 L 1036.39 1000.69 L 1039.69 1000.57 L 1042.97 1000.43 L 1046.25 1000.30 L 1049.50 1000.06 L 1052.74 999.84 L 1055.97 999.61 L 1059.19 999.35 L 1062.38 999.08 L 1065.57 998.75 L 1068.73 998.36 L 1071.88 997.98 L 1075.02 997.67 L 1078.15 997.32 L 1081.25 996.89 L 1084.35 996.50 L 1087.44 996.15 L 1090.52 995.80 L 1093.59 995.51 L 1096.65 995.25 L 1099.70 994.99 L 1102.74 994.72 L 1105.76 994.46 L 1108.76 994.12 L 1111.75 993.73 L 1114.72 993.33 L 1117.68 992.91 L 1120.63 992.49 L 1123.56 992.08 L 1126.48 991.65 L 1129.38 991.15 L 1132.27 990.67" stroke="rgb(120,210,255)" stroke-opacity="0.841" stroke-width="1.59" />
  <path d="M 1002.21 999.96 L 1005.15 1000.26 L 1008.09 1000.54 L 1011.01 1000.82 L 1013.91 1001.18 L 1016.81 1001.50 L 1019.69 1001.80 L 1022.57 1002.05 L 1025.44 1002.31 L 1028.30 1002.47 L 1031.15 1002.48 L 1033.99 1002.55 L 1036.82 1002.72 L 1039.63 1002.97 L 1042.43 1003.23 L 1045.21 1003.50 L 1047.98 1003.79 L 1050.73 1004.16 L 1053.48 1004.44 L 1056.23 1004.64 L 1058.96 1004.82 L 1061.69 1005.03 L 1064.40 1005.27 L 1067.09 1005.54 L 1069.78 1005.76 L 1072.46 1005.99 L 1075.12 1006.29 L 1077.78 1006.55 L 1080.43 1006.71 L 1083.07 1006.79 L 1085.70 1006.83 L 1088.33 1006.90 L 1090.94 1006.92 L 1093.54 1007.02 L 1096.13 1007.11 L 1098.72 1007.17 L 1101.29 1007.23 L 1103.85 1007.18 L 1106.40 1007.12 L 1108.94 1007.06 L 1111.47 1007.03 L 1113.99 1007.07 L 1116.50 1007.08 L 1119.00 1007.08 L 1121.49 1007.10 L 1123.97 1007.15 L 1126.44 1007.23 L 1128.90 1007.41 L 1131.34 1007.56 L 1133.78 1007.74 L 1136.21 1007.81 L 1138.63 1007.83 L 1141.04 1007.82 L 1143.44 1007.89 L 1145.84 1007.95 L 1148.22 1008.00 L 1150.59 1008.00 L 1152.96 1007.96 L 1155.31 1007.86 L 1157.65 1007.72 L 1159.98 1007.59 L 1162.31 1007.43 L 1164.62 1007.32 L 1166.92 1007.14 L 1169.21 1006.93 L 1171.49 1006.78 L 1173.77 1006.63" stroke="rgb(120,210,255)" stroke-opacity="0.459" stroke-width="1.58" />
  <path d="M 1000.30 1001.79 L 1003.13 1001.93 L 1005.94 1002.05 L 1008.74 1002.11 L 1011.53 1002.18 L 1014.31 1002.27 L 1017.08 1002.39 L 1019.83 1002.52 L 1022.58 1002.62 L 1025.31 1002.70 L 1028.04 1002.68 L 1030.75 1002.75 L 1033.45 1002.85 L 1036.15 1002.89 L 1038.83 1002.99 L 1041.50 1003.06 L 1044.15 1003.19 L 1046.80 1003.26 L 1049.44 1003.21 L 1052.07 1003.21 L 1054.69 1003.30 L 1057.29 1003.35 L 1059.89 1003.43 L 1062.48 1003.50 L 1065.05 1003.58 L 1067.61 1003.72 L 1070.17 1003.84 L 1072.71 1003.98 L 1075.24 1004.06 L 1077.77 1004.03 L 1080.28 1004.04 L 1082.79 1004.14 L 1085.28 1004.26 L 1087.76 1004.36" stroke="rgb(120,210,255)" stroke-opacity="0.457" stroke-width="1.57" />
  <path d="M 1003.02 1000.02 L 1005.74 999.44 L 1008.44 998.81 L 1011.10 998.09 L 1013.75 997.39 L 1016.38 996.62 L 1019.00 995.90 L 1021.64 995.25 L 1024.28 994.67 L 1026.90 994.06 L 1029.51 993.46 L 1032.11 992.84 L 1034.68 992.15 L 1037.23 991.45 L 1039.78 990.75 L 1042.32 990.10 L 1044.83 989.36 L 1047.31 988.54 L 1049.77 987.72 L 1052.25 986.97 L 1054.66 986.06 L 1057.07 985.20 L 1059.44 984.23 L 1061.80 983.29 L 1064.18 982.41 L 1066.55 981.55 L 1068.93 980.73" stroke="rgb(120,210,255)" stroke-opacity="0.454" stroke-width="1.55" />
  <path d="M 1001.84 996.77 L 1004.62 996.87 L 1007.39 996.99 L 1010.15 997.10 L 1012.90 997.13 L 1015.63 997.13 L 1018.36 997.20 L 1021.07 997.35 L 1023.77 997.55 L 1026.46 997.64 L 1029.15 997.76 L 1031.81 998.00 L 1034.46 998.22 L 1037.10 998.50 L 1039.72 998.79 L 1042.35 998.97 L 1044.96 999.17 L 1047.57 999.30 L 1050.16 999.45 L 1052.75 999.50 L 1055.33 999.48 L 1057.89 999.38 L 1060.45 999.24 L 1062.99 999.14" stroke="rgb(120,210,255)" stroke-opacity="0.453" stroke-width="1.54" />
  <path d="M 1000.29 1002.47 L 1000.97 999.05 L 1001.68 995.64 L 1002.45 992.26 L 1003.21 988.89 L 1003.97 985.54 L 1004.69 982.19 L 1005.43 978.86 L 1006.16 975.54 L 1006.89 972.23 L 1007.66 968.95 L 1008.46 965.69 L 1009.27 962.45 L 1010.08 959.22 L 1010.91 956.01 L 1011.78 952.82 L 1012.64 949.64 L 1013.54 946.49 L 1014.47 943.36 L 1015.41 940.25 L 1016.35 937.15 L 1017.26 934.06 L 1018.18 930.98 L 1019.11 927.92 L 1020.09 924.88 L 1020.99 921.84 L 1021.89 918.81 L 1022.77 915.79 L 1023.60 912.76 L 1024.45 909.76 L 1025.29 906.76 L 1026.15 903.79 L 1026.97 900.81 L 1027.79 897.85 L 1028.56 894.89 L 1029.36 891.94 L 1030.15 889.01 L 1030.99 886.10 L 1031.87 883.22 L 1032.70 880.34" stroke="rgb(205,165,255)" stroke-opacity="0.721" stroke-width="1.24" />
  <path d="M 997.92 998.76 L 1000.14 998.55 L 1002.30 998.10 L 1004.46 997.63 L 1006.61 997.20 L 1008.74 996.71 L 1010.89 996.33" stroke="rgb(140,255,190)" stroke-opacity="0.569" stroke-width="1.24" />
  <path d="M 1003.14 1001.51 L 1006.58 1001.92 L 1010.00 1002.34 L 1013.41 1002.77 L 1016.80 1003.25 L 1020.19 1003.66 L 1023.55 1004.12 L 1026.90 1004.59 L 1030.24 1005.05 L 1033.56 1005.52 L 1036.87 1005.96 L 1040.15 1006.49 L 1043.43 1007.00 L 1046.69 1007.50 L 1049.93 1008.05 L 1053.17 1008.58 L 1056.39 1009.09 L 1059.60 1009.60 L 1062.79 1010.11 L 1065.97 1010.64 L 1069.13 1011.19 L 1072.29 1011.70 L 1075.43 1012.22 L 1078.56 1012.73 L 1081.67 1013.30 L 1084.76 1013.86 L 1087.84 1014.44 L 1090.92 1014.95 L 1093.98 1015.48 L 1097.04 1015.98 L 1100.08 1016.48 L 1103.11 1017.01 L 1106.12 1017.54 L 1109.12 1018.06 L 1112.12 1018.56 L 1115.11 1019.01 L 1118.09 1019.44 L 1121.04 1019.95 L 1123.99 1020.44 L 1126.92 1020.94 L 1129.83 1021.48 L 1132.74 1022.00 L 1135.63 1022.49 L 1138.52 1022.98 L 1141.39 1023.48 L 1144.25 1024.00 L 1147.10 1024.51 L 1149.93 1025.03 L 1152.75 1025.56 L 1155.56 1026.08 L 1158.36 1026.57 L 1161.15 1027.06 L 1163.93 1027.57 L 1166.69 1028.11 L 1169.44 1028.66 L 1172.18 1029.20 L 1174.90 1029.75 L 1177.61 1030.32 L 1180.31 1030.88 L 1182.99 1031.44 L 1185.67 1031.99 L 1188.34 1032.52 L 1191.02 1032.98 L 1193.68 1033.45 L 1196.33 1033.88 L 1198.97 1034.34 L 1201.61 1034.76 L 1204.24 1035.19 L 1206.85 1035.59 L 1209.46 1036.00 L 1212.06 1036.38 L 1214.65 1036.76 L 1217.23 1037.13 L 1219.80 1037.48 L 1222.36 1037.82 L 1224.92 1038.14 L 1227.46 1038.43 L 1230.01 1038.67 L 1232.54 1038.88 L 1235.07 1039.10 L 1237.58 1039.33 L 1240.08 1039.59 L 1242.57 1039.83 L 1245.06 1040.01 L 1247.53 1040.22 L 1250.00 1040.39 L 1252.46 1040.61 L 1254.90 1040.80 L 1257.34 1040.96 L 1259.77 1041.13 L 1262.19 1041.28 L 1264.60 1041.43 L 1267.00 1041.61 L 1269.38 1041.84 L 1271.76 1042.05 L 1274.13 1042.26 L 1276.49 1042.42" stroke="rgb(205,165,255)" stroke-opacity="0.713" stroke-width="1.22" />
  <path d="M 999.57 1004.05 L 1001.60 1001.38 L 1003.60 998.71 L 1005.62 996.06 L 1007.59 993.39 L 1009.53 990.72 L 1011.44 988.04 L 1013.31 985.35" stroke="rgb(205,165,255)" stroke-opacity="0.709" stroke-width="1.21" />
  <path d="M 996.38 1000.45 L 998.66 1000.10 L 1000.92 999.74 L 1003.18 999.38 L 1005.43 999.09 L 1007.69 998.88 L 1009.94 998.80 L 1012.19 998.76 L 1014.42 998.51 L 1016.63 998.23 L 1018.85 998.13 L 1021.06 998.00 L 1023.25 997.76 L 1025.43 997.53 L 1027.61 997.36 L 1029.78 997.29 L 1031.95 997.18 L 1034.11 997.16 L 1036.25 997.25 L 1038.40 997.23 L 1040.53 997.17 L 1042.65 997.27 L 1044.76 997.42 L 1046.86 997.63 L 1048.95 997.87 L 1051.03 998.07 L 1053.10 998.32 L 1055.13 998.72 L 1057.15 999.16 L 1059.18 999.47 L 1061.20 999.86 L 1063.20 1000.27 L 1065.18 1000.70 L 1067.17 1001.10 L 1069.12 1001.63 L 1071.04 1002.20 L 1072.97 1002.72 L 1074.92 1003.15 L 1076.85 1003.61 L 1078.78 1004.03 L 1080.68 1004.55 L 1082.55 1005.16 L 1084.36 1005.88 L 1086.16 1006.62 L 1087.91 1007.45" stroke="rgb(140,255,190)" stroke-opacity="0.559" stroke-width="1.21" />
  <path d="M 1001.16 997.18 L 999.59 994.29 L 997.97 991.44 L 996.44 988.55 L 994.91 985.68 L 993.35 982.84 L 991.86 979.98 L 990.32 977.16 L 988.77 974.36 L 987.25 971.56 L 985.73 968.77 L 984.19 966.01 L 982.67 963.25 L 981.20 960.48 L 979.70 957.74 L 978.18 955.02 L 976.69 952.31 L 975.22 949.59 L 973.68 946.93 L 972.11 944.30 L 970.56 941.67 L 969.02 939.05 L 967.51 936.43 L 966.02 933.81 L 964.55 931.20 L 963.06 928.60 L 961.59 926.01 L 960.08 923.46 L 958.55 920.93 L 957.07 918.39 L 955.61 915.85 L 954.15 913.32 L 952.76 910.77 L 951.37 908.23 L 949.95 905.72 L 948.59 903.19 L 947.22 900.68 L 945.87 898.17 L 944.50 895.68 L 943.14 893.20 L 941.75 890.75 L 940.37 888.32 L 938.97 885.90 L 937.59 883.48 L 936.19 881.09 L 934.76 878.73" stroke="rgb(205,165,255)" stroke-opacity="0.706" stroke-width="1.20" />
  <path d="M 1090.78 979.46 L 1093.46 977.27 L 1096.11 975.09 L 1098.72 972.87 L 1101.28 970.62 L 1103.84 968.38 L 1106.37 966.14 L 1108.92 963.93 L 1111.43 961.71 L 1113.88 959.43 L 1116.30 957.14 L 1118.76 954.91 L 1121.19 952.68 L 1123.58 950.42 L 1125.96 948.16 L 1128.30 945.90 L 1130.63 943.63 L 1132.94 941.36 L 1135.29 939.15 L 1137.57 936.89 L 1139.89 934.69 L 1142.23 932.52 L 1144.55 930.36 L 1146.86 928.20 L 1149.15 926.05 L 1151.46 923.92 L 1153.75 921.80 L 1156.06 919.71 L 1158.38 917.66 L 1160.64 915.57 L 1162.90 913.48 L 1165.16 911.41 L 1167.38 909.33 L 1169.57 907.23 L 1171.79 905.17 L 1174.04 903.17 L 1176.29 901.18 L 1178.54 899.22 L 1180.80 897.28 L 1183.02 895.32 L 1185.24 893.37 L 1187.46 891.45 L 1189.67 889.51 L 1191.85 887.58 L 1194.05 885.68 L 1196.28 883.84 L 1198.50 882.01 L 1200.75 880.22 L 1202.96 878.40 L 1205.14 876.57 L 1207.25 874.68 L 1209.30 872.73 L 1211.29 870.74 L 1213.28 868.77 L 1215.26 866.80 L 1217.21 864.82 L 1219.17 862.87 L 1221.09 860.88 L 1222.98 858.89 L 1224.86 856.91 L 1226.71 854.90 L 1228.56 852.92 L 1230.42 850.96 L 1232.27 849.00 L 1234.10 847.04 L 1235.93 845.09 L 1237.76 843.17 L 1239.57 841.23 L 1241.37 839.30 L 1243.17 837.38 L 1244.98 835.49 L 1246.77 833.60 L 1248.54 831.70 L 1250.33 829.82 L 1252.09 827.95 L 1253.85 826.08 L 1255.63 824.25 L 1257.39 822.41 L 1259.14 820.57 L 1260.88 818.74 L 1262.63 816.93 L 1264.38 815.15 L 1266.17 813.41" stroke="rgb(140,255,190)" stroke-opacity="0.738" stroke-width="1.19" />
  <path d="M 1067.92 1004.87 L 1071.20 1006.04 L 1074.47 1007.21 L 1077.73 1008.39 L 1080.98 1009.54 L 1084.20 1010.71 L 1087.40 1011.94 L 1090.59 1013.13 L 1093.75 1014.35 L 1096.89 1015.59 L 1100.03 1016.82 L 1103.15 1018.04 L 1106.26 1019.24 L 1109.35 1020.47 L 1112.45 1021.64 L 1115.54 1022.80 L 1118.61 1023.97 L 1121.66 1025.15 L 1124.69 1026.34 L 1127.69 1027.59 L 1130.65 1028.90 L 1133.60 1030.19 L 1136.56 1031.42 L 1139.51 1032.63 L 1142.43 1033.90 L 1145.32 1035.19 L 1148.21 1036.46 L 1151.12 1037.67 L 1154.00 1038.89 L 1156.88 1040.08 L 1159.75 1041.27 L 1162.62 1042.43 L 1165.45 1043.64 L 1168.27 1044.85 L 1171.06 1046.10 L 1173.83 1047.36 L 1176.58 1048.64 L 1179.32 1049.91 L 1182.04 1051.20 L 1184.73 1052.50 L 1187.42 1053.81 L 1190.09 1055.11 L 1192.75 1056.40 L 1195.42 1057.65 L 1198.09 1058.87 L 1200.77 1060.05 L 1203.43 1061.24 L 1206.08 1062.42 L 1208.74 1063.55 L 1211.37 1064.72 L 1213.99 1065.88 L 1216.61 1067.01 L 1219.24 1068.09 L 1221.86 1069.17 L 1224.48 1070.22 L 1227.11 1071.22 L 1229.70 1072.27 L 1232.30 1073.26 L 1234.88 1074.30 L 1237.43 1075.37 L 1239.95 1076.48 L 1242.46 1077.59 L 1244.97 1078.67 L 1247.45 1079.78 L 1249.90 1080.94 L 1252.33 1082.12 L 1254.73 1083.33 L 1257.09 1084.59" stroke="rgb(140,255,190)" stroke-opacity="0.737" stroke-width="1.19" />
  <path d="M 998.98 1002.60 L 1002.40 1002.64 L 1005.80 1002.69 L 1009.19 1002.74 L 1012.57 1002.81 L 1015.93 1002.90 L 1019.28 1002.97 L 1022.62 1003.02 L 1025.94 1003.09 L 1029.25 1003.13 L 1032.55 1003.21 L 1035.83 1003.33 L 1039.10 1003.39 L 1042.36 1003.47 L 1045.60 1003.54 L 1048.83 1003.67 L 1052.05 1003.84 L 1055.25 1004.06 L 1058.43 1004.23 L 1061.61 1004.42 L 1064.77 1004.64 L 1067.92 1004.87 L 1071.04 1005.17 L 1074.16 1005.49 L 1077.26 1005.82 L 1080.34 1006.19 L 1083.41 1006.57 L 1086.47 1006.92 L 1089.52 1007.28 L 1092.56 1007.59 L 1095.58 1007.95 L 1098.59 1008.25 L 1101.60 1008.52 L 1104.59 1008.82 L 1107.58 1009.08 L 1110.55 1009.32 L 1113.51 1009.55 L 1116.46 1009.83 L 1119.39 1010.13 L 1122.31 1010.47 L 1125.21 1010.79 L 1128.11 1011.05 L 1131.00 1011.32 L 1133.88 1011.60 L 1136.75 1011.81 L 1139.60 1012.02 L 1142.45 1012.25 L 1145.28 1012.48 L 1148.11 1012.68 L 1150.92 1012.90 L 1153.72 1013.03 L 1156.52 1013.15 L 1159.30 1013.25 L 1162.08 1013.34" stroke="rgb(140,255,190)" stroke-opacity="0.735" stroke-width="1.18" />
  <path d="M 1000.46 1000.94 L 1003.89 1000.68 L 1007.31 1000.41 L 1010.72 1000.18 L 1014.12 999.91 L 1017.49 999.59 L 1020.85 999.25 L 1024.20 998.92 L 1027.53 998.56 L 1030.85 998.23 L 1034.16 997.85 L 1037.45 997.50 L 1040.72 997.14 L 1043.99 996.78 L 1047.23 996.39 L 1050.47 995.98 L 1053.69 995.62 L 1056.90 995.22 L 1060.09 994.81 L 1063.27 994.41 L 1066.44 994.03" stroke="rgb(140,255,190)" stroke-opacity="0.734" stroke-width="1.18" />
  <path d="M 1001.66 1001.77 L 1004.97 1001.76 L 1008.28 1001.74 L 1011.57 1001.69 L 1014.84 1001.65 L 1018.11 1001.55 L 1021.36 1001.57 L 1024.60 1001.53 L 1027.82 1001.43 L 1031.03 1001.26 L 1034.22 1001.11 L 1037.41 1000.97 L 1040.58 1000.86 L 1043.74 1000.68 L 1046.88 1000.46 L 1050.00 1000.21 L 1053.12 999.95 L 1056.22 999.71 L 1059.30 999.43 L 1062.38 999.16 L 1065.45 998.95 L 1068.50 998.68 L 1071.54 998.51 L 1074.58 998.39 L 1077.60 998.27 L 1080.61 998.11" stroke="rgb(140,255,190)" stroke-opacity="0.732" stroke-width="1.17" />
  <path d="M 998.67 1000.93 L 1001.89 999.99 L 1005.10 999.07 L 1008.30 998.17 L 1011.48 997.23 L 1014.66 996.38 L 1017.82 995.46 L 1020.97 994.56 L 1024.11 993.67 L 1027.23 992.78 L 1030.35 991.94 L 1033.45 991.08 L 1036.53 990.16 L 1039.58 989.22 L 1042.63 988.29 L 1045.66 987.38 L 1048.69 986.48 L 1051.72 985.63 L 1054.71 984.70 L 1057.67 983.72 L 1060.64 982.79 L 1063.61 981.95 L 1066.58 981.10 L 1069.53 980.27 L 1072.47 979.44 L 1075.40 978.58 L 1078.30 977.70 L 1081.19 976.84 L 1084.06 975.93 L 1086.91 974.99 L 1089.72 973.99 L 1092.52 973.00 L 1095.32 972.01 L 1098.10 971.03 L 1100.87 970.07 L 1103.61 969.03 L 1106.35 968.05 L 1109.07 967.02 L 1111.76 965.97" stroke="rgb(140,255,190)" stroke-opacity="0.732" stroke-width="1.17" />
  <path d="M 1001.22 999.68 L 1004.41 1000.67 L 1007.58 1001.72 L 1010.73 1002.75 L 1013.87 1003.78 L 1017.02 1004.74 L 1020.14 1005.73 L 1023.27 1006.67 L 1026.39 1007.59 L 1029.51 1008.48 L 1032.60 1009.38 L 1035.69 1010.27 L 1038.79 1011.07 L 1041.88 1011.88 L 1044.95 1012.68 L 1048.00 1013.49 L 1051.05 1014.28 L 1054.09 1015.08 L 1057.10 1015.92 L 1060.10 1016.75 L 1063.09 1017.57 L 1066.07 1018.38 L 1069.04 1019.14 L 1071.99 1019.98 L 1074.96 1020.69 L 1077.89 1021.47 L 1080.81 1022.27 L 1083.70 1023.12 L 1086.60 1023.92 L 1089.48 1024.70" stroke="rgb(140,255,190)" stroke-opacity="0.731" stroke-width="1.17" />
  <path d="M 999.15 998.53 L 1002.53 998.32 L 1005.89 998.16 L 1009.24 998.02 L 1012.58 997.91 L 1015.90 997.82 L 1019.22 997.79 L 1022.52 997.81 L 1025.80 997.85 L 1029.07 997.85 L 1032.33 997.85 L 1035.58 997.87 L 1038.82 997.91 L 1042.04 997.96 L 1045.24 998.03 L 1048.44 998.08 L 1051.62 998.14 L 1054.79 998.23 L 1057.94 998.39 L 1061.08 998.55 L 1064.21 998.70 L 1067.33 998.85 L 1070.43 999.04 L 1073.52 999.28" stroke="rgb(140,255,190)" stroke-opacity="0.728" stroke-width="1.16" />
  <path d="M 1000.94 998.70 L 1003.99 997.66 L 1007.05 996.69 L 1010.12 995.78 L 1013.18 994.89 L 1016.21 993.95" stroke="rgb(140,255,190)" stroke-opacity="0.726" stroke-width="1.16" />
  <path d="M 1001.32 997.87 L 1003.73 998.22 L 1006.14 998.48 L 1008.53 998.76 L 1010.91 999.06 L 1013.27 999.45 L 1015.63 999.79 L 1017.97 1000.18 L 1020.32 1000.46 L 1022.66 1000.75 L 1024.97 1001.14 L 1027.26 1001.61 L 1029.55 1001.98 L 1031.83 1002.41 L 1034.09 1002.85 L 1036.36 1003.23 L 1038.62 1003.58 L 1040.85 1004.06 L 1043.10 1004.39 L 1045.34 1004.71 L 1047.58 1004.95 L 1049.81 1005.13 L 1052.04 1005.34 L 1054.26 1005.47 L 1056.47 1005.58 L 1058.68 1005.71 L 1060.87 1005.84 L 1063.04 1006.18 L 1065.20 1006.47 L 1067.35 1006.76 L 1069.49 1007.09 L 1071.62 1007.43 L 1073.74 1007.76 L 1075.87 1007.97 L 1077.98 1008.24 L 1080.08 1008.55 L 1082.17 1008.86 L 1084.25 1009.20" stroke="rgb(140,255,190)" stroke-opacity="0.544" stroke-width="1.16" />
  <path d="M 1079.84 981.68 L 1082.99 982.44 L 1086.10 983.32 L 1089.19 984.22 L 1092.26 985.15 L 1095.34 986.00 L 1098.37 986.93 L 1101.39 987.90 L 1104.38 988.91 L 1107.35 989.94 L 1110.30 990.99 L 1113.22 992.06 L 1116.17 993.05 L 1119.09 994.07 L 1122.01 995.04 L 1124.90 996.07 L 1127.79 997.05 L 1130.69 997.98 L 1133.57 998.92 L 1136.43 999.88 L 1139.29 1000.81 L 1142.15 1001.72 L 1144.98 1002.64 L 1147.79 1003.62 L 1150.58 1004.61 L 1153.33 1005.66 L 1156.10 1006.63 L 1158.84 1007.64 L 1161.59 1008.61 L 1164.31 1009.62 L 1166.98 1010.72 L 1169.68 1011.70 L 1172.37 1012.69 L 1175.07 1013.62 L 1177.76 1014.55 L 1180.45 1015.41 L 1183.10 1016.39 L 1185.73 1017.37 L 1188.37 1018.31 L 1190.99 1019.24 L 1193.60 1020.18 L 1196.19 1021.16 L 1198.79 1022.07 L 1201.37 1022.98 L 1203.92 1023.95 L 1206.45 1024.95 L 1208.95 1026.00 L 1211.44 1027.04 L 1213.89 1028.15 L 1216.34 1029.22 L 1218.84 1030.15 L 1221.34 1031.05 L 1223.83 1031.93 L 1226.31 1032.82 L 1228.80 1033.66 L 1231.29 1034.46 L 1233.79 1035.17" stroke="rgb(140,255,190)" stroke-opacity="0.725" stroke-width="1.16" />
  <path d="M 997.96 1000.96 L 999.96 998.77 L 1001.91 996.55 L 1003.90 994.38 L 1005.88 992.22 L 1007.84 990.07 L 1009.70 987.83 L 1011.54 985.60 L 1013.33 983.34 L 1015.04 981.03 L 1016.68 978.70 L 1018.30 976.35 L 1019.91 974.02 L 1021.50 971.68 L 1023.08 969.35 L 1024.62 967.02 L 1026.16 964.69 L 1027.71 962.38 L 1029.25 960.08 L 1030.83 957.82 L 1032.46 955.60 L 1034.05 953.38 L 1035.57 951.12 L 1037.05 948.84 L 1038.50 946.56 L 1039.98 944.31 L 1041.53 942.12 L 1043.13 939.99 L 1044.77 937.89 L 1046.37 935.78 L 1047.98 933.69 L 1049.63 931.64 L 1051.26 929.60 L 1052.96 927.62 L 1054.66 925.65 L 1056.32 923.68 L 1057.98 921.70 L 1059.59 919.70 L 1061.18 917.70 L 1062.77 915.72 L 1064.41 913.78 L 1066.02 911.84 L 1067.60 909.88 L 1069.17 907.93 L 1070.74 905.99 L 1072.27 904.03 L 1073.79 902.08 L 1075.23 900.08 L 1076.68 898.10 L 1078.10 896.10 L 1079.52 894.12 L 1080.87 892.11 L 1082.28 890.15 L 1083.66 888.18 L 1085.05 886.22" stroke="rgb(205,165,255)" stroke-opacity="0.481" stroke-width="1.16" />
  <path d="M 998.35 999.33 L 1001.41 998.63 L 1004.47 997.98 L 1007.50 997.24 L 1010.51 996.48 L 1013.50 995.69 L 1016.49 994.91 L 1019.45 994.13 L 1022.42 993.42 L 1025.38 992.69 L 1028.33 992.01 L 1031.28 991.36 L 1034.22 990.73 L 1037.15 990.10 L 1040.08 989.54 L 1043.00 989.00 L 1045.93 988.58 L 1048.85 988.16 L 1051.74 987.65 L 1054.61 987.05 L 1057.46 986.45 L 1060.29 985.83 L 1063.12 985.27 L 1065.94 984.67 L 1068.74 984.08 L 1071.53 983.47 L 1074.31 982.85 L 1077.08 982.27 L 1079.84 981.68 L 1082.59 981.11 L 1085.32 980.52 L 1088.06 980.00 L 1090.78 979.46 L 1093.47 978.81 L 1096.15 978.17 L 1098.81 977.52 L 1101.48 976.91 L 1104.13 976.30 L 1106.78 975.72 L 1109.41 975.13" stroke="rgb(140,255,190)" stroke-opacity="0.718" stroke-width="1.14" />
  <path d="M 997.73 997.28 L 1000.27 996.23 L 1002.77 995.14 L 1005.23 993.99 L 1007.67 992.82 L 1010.13 991.70 L 1012.53 990.50 L 1014.91 989.27 L 1017.24 987.98 L 1019.53 986.64 L 1021.83 985.33 L 1024.10 984.00 L 1026.35 982.66 L 1028.58 981.29 L 1030.80 979.94 L 1033.02 978.60 L 1035.22 977.24 L 1037.38 975.86 L 1039.52 974.46 L 1041.66 973.07 L 1043.78 971.67 L 1045.87 970.24 L 1047.98 968.86 L 1050.10 967.52 L 1052.26 966.27 L 1054.42 965.03 L 1056.59 963.84 L 1058.78 962.70 L 1060.96 961.55 L 1063.13 960.42 L 1065.33 959.36 L 1067.52 958.31 L 1069.70 957.25 L 1071.87 956.20 L 1074.04 955.17 L 1076.20 954.14 L 1078.35 953.12 L 1080.51 952.14 L 1082.68 951.20 L 1084.82 950.21 L 1086.97 949.29 L 1089.13 948.40 L 1091.33 947.63 L 1093.51 946.87 L 1095.69 946.12 L 1097.84 945.30 L 1099.96 944.44 L 1102.05 943.53 L 1104.11 942.59 L 1106.17 941.64 L 1108.23 940.72 L 1110.27 939.80 L 1112.30 938.88 L 1114.35 938.01 L 1116.40 937.16 L 1118.44 936.32 L 1120.47 935.46 L 1122.50 934.65 L 1124.52 933.82 L 1126.54 933.02 L 1128.54 932.21 L 1130.55 931.42" stroke="rgb(205,165,255)" stroke-opacity="0.476" stroke-width="1.14" />
  <path d="M 1003.43 1000.01 L 1006.46 999.61 L 1009.47 999.17 L 1012.48 998.79 L 1015.48 998.45 L 1018.47 998.10 L 1021.45 997.78 L 1024.41 997.49 L 1027.36 997.11 L 1030.30 996.75 L 1033.22 996.33 L 1036.13 995.94 L 1039.04 995.62 L 1041.94 995.37 L 1044.83 995.15 L 1047.71 994.93 L 1050.57 994.59 L 1053.42 994.28 L 1056.25 993.92 L 1059.06 993.49 L 1061.86 993.07 L 1064.65 992.62 L 1067.42 992.14 L 1070.18 991.69 L 1072.95 991.35 L 1075.70 990.98 L 1078.44 990.63 L 1081.17 990.25 L 1083.87 989.77 L 1086.56 989.29" stroke="rgb(140,255,190)" stroke-opacity="0.536" stroke-width="1.13" />
  <path d="M 1001.79 999.53 L 1004.69 999.73 L 1007.58 999.83 L 1010.45 999.95 L 1013.32 1000.07 L 1016.17 1000.25 L 1019.01 1000.44 L 1021.84 1000.57 L 1024.66 1000.72" stroke="rgb(140,255,190)" stroke-opacity="0.530" stroke-width="1.11" />
  <path d="M 1038.17 994.11 L 1040.33 992.80 L 1042.46 991.49 L 1044.54 990.12 L 1046.60 988.73 L 1048.68 987.38 L 1050.75 986.04 L 1052.92 984.89 L 1055.13 983.85 L 1057.39 982.94 L 1059.63 982.00 L 1061.86 981.07 L 1064.12 980.23 L 1066.40 979.48 L 1068.64 978.68 L 1070.85 977.78 L 1073.02 976.85 L 1075.21 975.95 L 1077.38 975.06 L 1079.51 974.09 L 1081.65 973.17 L 1083.73 972.12 L 1085.77 971.05 L 1087.86 970.08 L 1089.95 969.13 L 1092.07 968.27" stroke="rgb(140,255,190)" stroke-opacity="0.530" stroke-width="1.11" />
  <path d="M 1074.58 998.39 L 1077.43 997.60 L 1080.28 996.83 L 1083.10 995.98 L 1085.91 995.16 L 1088.69 994.29 L 1091.46 993.42 L 1094.18 992.43 L 1096.90 991.48 L 1099.61 990.53 L 1102.28 989.51 L 1104.89 988.36 L 1107.50 987.28 L 1110.15 986.28 L 1112.74 985.18 L 1115.29 984.03 L 1117.79 982.78 L 1120.35 981.71 L 1122.94 980.71 L 1125.47 979.63 L 1127.96 978.47 L 1130.40 977.23 L 1132.77 975.88 L 1135.17 974.62 L 1137.57 973.39 L 1139.95 972.13 L 1142.34 970.90 L 1144.74 969.75 L 1147.13 968.57 L 1149.52 967.43 L 1151.88 966.25 L 1154.17 964.96 L 1156.51 963.79 L 1158.88 962.70 L 1161.22 961.58 L 1163.55 960.45" stroke="rgb(140,255,190)" stroke-opacity="0.530" stroke-width="1.11" />
  <path d="M 1037.15 990.10 L 1040.02 990.97 L 1042.90 991.77 L 1045.78 992.52 L 1048.61 993.39 L 1051.45 994.18 L 1054.31 994.89 L 1057.16 995.56 L 1060.01 996.17 L 1062.86 996.74 L 1065.70 997.30 L 1068.52 997.89 L 1071.32 998.49 L 1074.10 999.19 L 1076.82 1000.02 L 1079.55 1000.79 L 1082.26 1001.57 L 1085.01 1002.20 L 1087.74 1002.80 L 1090.48 1003.35 L 1093.20 1003.91 L 1095.88 1004.62 L 1098.52 1005.39 L 1101.18 1006.08 L 1103.82 1006.82 L 1106.42 1007.62 L 1109.01 1008.41 L 1111.58 1009.25 L 1114.16 1010.02 L 1116.72 1010.81 L 1119.30 1011.53 L 1121.86 1012.24 L 1124.44 1012.83 L 1127.03 1013.35" stroke="rgb(140,255,190)" stroke-opacity="0.529" stroke-width="1.11" />
  <path d="M 1097.54 988.13 L 1099.89 986.63 L 1102.26 985.19 L 1104.66 983.83 L 1107.08 982.52 L 1109.53 981.29 L 1112.03 980.22 L 1114.52 979.13 L 1116.99 978.00 L 1119.42 976.84 L 1121.86 975.72 L 1124.26 974.54 L 1126.67 973.41 L 1129.04 972.22 L 1131.51 971.29 L 1134.01 970.45 L 1136.50 969.64 L 1138.96 968.78 L 1141.45 968.02 L 1143.92 967.23 L 1146.39 966.50 L 1148.90 965.94 L 1151.39 965.35 L 1153.87 964.75 L 1156.32 964.10 L 1158.81 963.64 L 1161.28 963.16 L 1163.73 962.64 L 1166.16 962.05 L 1168.59 961.53 L 1171.03 961.07 L 1173.46 960.65 L 1175.89 960.29 L 1178.32 959.97 L 1180.72 959.53 L 1183.13 959.28 L 1185.53 958.93 L 1187.91 958.56 L 1190.26 958.08 L 1192.59 957.53 L 1194.89 956.93 L 1197.19 956.37 L 1199.48 955.77 L 1201.78 955.28 L 1204.07 954.79 L 1206.37 954.38 L 1208.64 953.87 L 1210.91 953.44 L 1213.18 953.04 L 1215.41 952.49 L 1217.64 951.97 L 1219.86 951.47 L 1222.08 951.02 L 1224.29 950.55 L 1226.50 950.11 L 1228.67 949.55 L 1230.81 948.92 L 1232.95 948.31 L 1235.10 947.78 L 1237.24 947.23 L 1239.38 946.73 L 1241.50 946.17 L 1243.61 945.63 L 1245.73 945.18 L 1247.84 944.70 L 1249.93 944.20 L 1252.04 943.77 L 1254.15 943.49" stroke="rgb(140,255,190)" stroke-opacity="0.529" stroke-width="1.11" />
  <path d="M 0.13 1029.54 L 2.90 1029.95 L 5.69 1029.74 L 9.03 1029.99 L 11.62 1029.46 L 14.96 1029.28 L 17.86 1029.30 L 21.04 1029.11 L 23.72 1028.83 L 26.96 1029.01 L 30.56 1029.05 L 33.26 1029.13 L 36.07 1028.72 L 39.28 1028.80 L 41.93 1028.64 L 45.26 1028.43 L 48.07 1028.95 L 51.14 1028.19 L 53.97 1028.37 L 56.99 1028.08 L 60.22 1028.22 L 63.12 1028.00 L 65.65 1028.21 L 68.82 1027.81 L 71.95 1027.76 L 75.25 1027.54 L 77.72 1027.12 L 80.80 1027.50 L 84.04 1027.58 L 86.86 1027.04 L 89.72 1027.17 L 92.20 1026.94 L 95.74 1026.83 L 98.96 1026.91 L 101.86 1026.76 L 104.92 1026.69 L 107.83 1026.12 L 110.67 1026.79 L 114.02 1026.51 L 117.00 1026.40 L 119.98 1026.31 L 122.69 1026.44 L 125.52 1025.93 L 128.77 1025.67 L 131.90 1025.75 L 134.99 1025.84 L 138.01 1025.43 L 141.07 1025.87 L 143.83 1025.66 L 147.08 1025.44 L 149.70 1025.36 L 152.93 1025.22 L 156.06 1025.29 L 158.55 1025.41 L 162.12 1024.97 L 165.30 1024.68 L 167.53 1024.88 L 170.72 1024.98 L 173.89 1024.35 L 176.79 1024.82 L 180.12 1024.43 L 183.10 1024.22 L 185.89 1024.37 L 189.12 1023.87 L 191.85 1024.31 L 194.26 1024.07 L 197.83 1024.35 L 201.24 1023.77 L 203.95 1023.93 L 207.37 1023.39 L 209.80 1023.23 L 212.84 1023.37 L 215.98 1023.64 L 218.82 1023.43 L 221.76 1023.17 L 225.01 1022.92 L 227.85 1023.14 L 231.34 1022.56 L 234.18 1023.05 L 237.06 1022.81 L 239.94 1022.77 L 243.23 1022.73 L 246.03 1022.50 L 248.94 1022.67 L 251.62 1022.44 L 254.96 1021.81 L 257.55 1022.15 L 260.83 1022.20 L 263.92 1022.23 L 266.95 1021.86 L 269.67 1021.54 L 272.74 1021.72 L 276.30 1021.99 L 279.10 1021.27 L 281.92 1021.28 L 284.98 1021.55 L 287.56 1021.29 L 290.52 1021.22 L 293.72 1021.12 L 296.79 1021.24 L 300.04 1020.93 L 302.76 1020.86 L 306.30 1020.76 L 309.01 1020.68 L 311.68 1020.59 L 314.61 1019.88 L 317.92 1020.35 L 320.95 1019.90 L 323.60 1020.39 L 327.08 1020.37 L 330.14 1020.02 L 332.91 1020.38 L 336.07 1019.77 L 338.61 1019.74 L 341.63 1019.62 L 344.83 1019.78 L 347.24 1019.55 L 350.69 1019.21 L 354.03 1019.49 L 356.90 1019.04 L 359.93 1019.20 L 363.00 1019.39 L 366.21 1018.72 L 368.66 1018.62 L 371.50 1018.81 L 375.08 1018.88 L 377.51 1018.09 L 380.99 1018.33 L 383.74 1018.24 L 387.03 1017.99 L 390.09 1017.72 L 392.94 1018.29 L 395.95 1018.03 L 398.88 1017.80 L 402.04 1017.13 L 405.03 1017.98 L 407.55 1017.26 L 410.74 1017.25 L 414.07 1017.60 L 416.89 1017.51 L 419.76 1017.53 L 422.62 1017.26 L 425.82 1017.15 L 428.70 1017.02 L 431.69 1016.98 L 434.56 1016.77 L 437.93 1016.48 L 441.24 1016.72 L 444.29 1016.81 L 446.86 1016.40 L 450.01 1016.67 L 452.79 1016.80 L 455.78 1016.18 L 459.40 1016.46 L 461.84 1016.14 L 464.65 1015.83 L 467.41 1016.10 L 471.16 1016.03 L 474.08 1015.55 L 476.60 1015.72 L 479.96 1015.87 L 482.83 1015.49 L 485.65 1015.50 L 488.42 1015.38 L 492.01 1015.09 L 494.62 1015.48 L 497.49 1014.87 L 501.10 1015.02 L 503.56 1014.77 L 506.76 1014.57 L 509.95 1014.67 L 513.02 1014.68 L 515.64 1014.76 L 518.93 1014.53 L 521.95 1014.07 L 524.87 1014.19 L 527.55 1013.95 L 530.82 1013.97 L 533.48 1013.64 L 536.84 1013.51 L 540.24 1013.46 L 542.48 1014.00 L 545.43 1013.72 L 549.12 1013.43 L 552.36 1013.37 L 554.33 1013.02 L 557.85 1013.06 L 560.93 1012.75 L 563.59 1012.78 L 566.88 1012.83 L 569.48 1012.95 L 572.79 1012.53 L 575.86 1012.68 L 579.07 1012.80 L 581.50 1012.88 L 584.74 1012.60 L 587.87 1012.43 L 591.14 1012.60 L 593.62 1011.87 L 596.58 1011.94 L 599.51 1011.57 L 602.79 1012.01 L 605.98 1011.70 L 608.81 1011.56 L 612.26 1011.89 L 614.59 1011.67 L 617.59 1011.38 L 620.37 1011.71 L 623.99 1011.03 L 626.53 1010.87 L 629.84 1011.39 L 632.79 1010.98 L 635.71 1011.27 L 639.28 1010.76 L 641.84 1010.88 L 644.95 1010.74 L 647.68 1010.17 L 650.58 1010.51 L 654.04 1010.15 L 656.56 1010.35 L 659.66 1010.12 L 663.01 1010.12 L 665.61 1010.10 L 668.89 1009.96 L 671.33 1009.80 L 674.40 1009.68 L 677.84 1009.70 L 680.76 1009.65 L 683.89 1009.24 L 686.88 1009.47 L 689.60 1009.10 L 692.32 1008.66 L 695.47 1009.13 L 698.53 1009.33 L 701.90 1008.78 L 704.82 1008.65 L 707.56 1008.24 L 710.72 1008.58 L 713.29 1008.08 L 716.84 1008.40 L 719.64 1008.03 L 722.63 1007.82 L 725.38 1008.59 L 728.74 1007.85 L 731.69 1007.91 L 734.97 1007.82 L 738.00 1007.87 L 740.61 1008.04 L 743.97 1007.37 L 746.87 1007.89 L 749.95 1007.66 L 752.52 1007.47 L 755.85 1007.30 L 758.69 1007.14 L 761.39 1006.89 L 764.63 1006.90 L 767.68 1006.83 L 770.38 1006.74 L 773.30 1006.64 L 776.79 1006.47 L 779.55 1006.67 L 782.83 1006.97 L 785.61 1006.83 L 788.26 1006.49 L 791.65 1006.24 L 794.82 1006.31 L 797.20 1006.05 L 800.71 1006.00 L 803.76 1005.77 L 806.52 1006.05 L 809.64 1005.99 L 812.35 1005.23 L 816.03 1005.80 L 818.65 1005.71 L 821.67 1005.29 L 824.82 1005.30 L 827.43 1005.38 L 830.68 1005.43 L 833.58 1005.47 L 836.57 1005.09 L 839.70 1004.76 L 842.66 1004.49 L 845.61 1004.65 L 848.47 1004.50 L 851.73 1004.22 L 855.04 1004.34 L 857.54 1004.04 L 860.59 1004.22 L 863.91 1004.02 L 866.34 1004.49 L 869.90 1004.17 L 872.52 1003.97 L 875.48 1003.70 L 878.40 1004.03 L 881.60 1003.61 L 884.42 1003.32 L 887.43 1003.34 L 890.60 1003.37 L 893.28 1003.51 L 896.45 1003.27 L 899.51 1002.99 L 902.54 1002.90 L 905.43 1002.63 L 908.46 1002.49 L 912.27 1002.54 L 914.73 1002.63 L 917.55 1002.04 L 920.32 1002.48 L 923.53 1002.50 L 926.83 1002.33 L 929.59 1001.76 L 932.57 1001.80 L 935.48 1002.01 L 938.22 1001.87 L 941.83 1001.78 L 944.37 1001.66 L 947.38 1001.81 L 950.48 1001.44 L 953.43 1001.69 L 956.64 1001.05 L 959.18 1001.73 L 962.26 1001.16 L 965.52 1001.34 L 968.22 1001.18 L 971.67 1000.79 L 974.76 1000.81 L 977.29 1000.42 L 980.43 1000.71 L 983.62 1000.67 L 986.20 1000.28 L 989.56 1000.28 L 992.53 1000.09 L 995.78 1000.35 L 998.52 1000.38 L 1000.00 1000.00 L 1003.00 999.92 L 1006.00 999.85 L 1009.00 999.78 L 1012.00 999.72 L 1015.00 999.65 L 1017.99 999.57 L 1020.99 999.50 L 1023.99 999.44 L 1026.99 999.36 L 1029.99 999.28 L 1032.99 999.20 L 1035.99 999.11 L 1038.99 999.03 L 1041.99 998.93 L 1044.98 998.82 L 1047.98 998.71 L 1050.98 998.59 L 1053.98 998.46 L 1056.97 998.30 L 1059.97 998.11 L 1062.96 997.95 L 1065.96 997.80 L 1068.95 997.65 L 1071.95 997.50 L 1074.95 997.35 L 1077.94 997.18 L 1080.94 997.01 L 1083.93 996.84 L 1086.93 996.66 L 1089.92 996.46 L 1092.91 996.27 L 1095.91 996.08 L 1098.90 995.90 L 1101.90 995.71 L 1104.89 995.51 L 1107.88 995.30 L 1110.88 995.12 L 1113.87 994.97 L 1116.87 994.82 L 1119.87 994.66 L 1122.86 994.53 L 1125.86 994.41 L 1128.86 994.29 L 1131.86 994.16 L 1134.85 993.98 L 1137.85 993.83 L 1140.84 993.66 L 1143.84 993.46 L 1146.83 993.27 L 1149.82 993.08 L 1152.82 992.87 L 1155.81 992.68 L 1158.80 992.51 L 1161.80 992.36 L 1164.80 992.25 L 1167.80 992.14 L 1170.80 992.06 L 1173.80 992.03 L 1176.80 992.02 L 1179.80 992.01 L 1182.80 991.99 L 1185.80 991.97 L 1188.80 991.93 L 1191.80 991.90 L 1194.80 991.87 L 1197.80 991.85 L 1200.79 991.82 L 1203.79 991.77 L 1206.79 991.76 L 1209.79 991.74 L 1212.79 991.73 L 1215.79 991.70 L 1218.79 991.66 L 1221.79 991.64 L 1224.79 991.63 L 1227.79 991.61 L 1230.79 991.59 L 1233.79 991.55 L 1236.79 991.52 L 1239.79 991.47 L 1242.79 991.43 L 1245.79 991.40 L 1248.79 991.36 L 1251.79 991.34 L 1254.79 991.31 L 1257.79 991.27 L 1260.79 991.25 L 1263.79 991.25 L 1266.79 991.24 L 1269.79 991.21 L 1272.79 991.16 L 1275.79 991.09 L 1278.79 991.04 L 1281.79 990.98 L 1284.79 990.94 L 1287.79 990.89 L 1290.79 990.86 L 1293.79 990.80 L 1296.79 990.71 L 1299.79 990.62 L 1302.78 990.55 L 1305.78 990.45 L 1308.78 990.40 L 1311.78 990.36 L 1314.78 990.35 L 1317.78 990.32 L 1320.78 990.26 L 1323.78 990.23 L 1326.78 990.23 L 1329.78 990.21 L 1332.78 990.22 L 1335.78 990.20 L 1338.78 990.21 L 1341.78 990.23 L 1344.78 990.25 L 1347.78 990.27 L 1350.78 990.28 L 1353.78 990.28 L 1356.78 990.26 L 1359.78 990.28 L 1362.78 990.32 L 1365.78 990.37 L 1368.78 990.37 L 1371.78 990.37 L 1374.78 990.36 L 1377.78 990.37 L 1380.78 990.37 L 1383.78 990.39 L 1386.78 990.45 L 1389.78 990.52 L 1392.78 990.60 L 1395.78 990.68 L 1398.77 990.79 L 1401.77 990.86 L 1404.77 990.90 L 1407.77 990.93 L 1410.77 990.95 L 1413.77 990.99 L 1416.77 991.00 L 1419.77 991.01 L 1422.77 991.04 L 1425.77 991.09 L 1428.77 991.14 L 1431.77 991.21 L 1434.77 991.29 L 1437.77 991.36 L 1440.77 991.47 L 1443.77 991.58 L 1446.76 991.71 L 1449.76 991.88 L 1452.75 992.03 L 1455.75 992.18 L 1458.75 992.35 L 1461.74 992.49 L 1464.74 992.63 L 1467.74 992.75 L 1470.73 992.87 L 1473.73 992.96 L 1476.73 993.07 L 1479.73 993.18 L 1482.73 993.26 L 1485.73 993.33 L 1488.73 993.43 L 1491.72 993.52 L 1494.72 993.63 L 1497.72 993.74 L 1500.72 993.83 L 1503.72 993.93 L 1506.72 994.03 L 1509.71 994.13 L 1512.71 994.21 L 1515.71 994.32 L 1518.71 994.43 L 1521.71 994.56 L 1524.70 994.67 L 1527.70 994.81 L 1530.70 994.96 L 1533.69 995.10 L 1536.69 995.23 L 1539.69 995.35 L 1542.69 995.43 L 1545.69 995.50 L 1548.69 995.58 L 1551.68 995.65 L 1554.68 995.70 L 1557.68 995.74 L 1560.68 995.76 L 1563.68 995.78 L 1566.68 995.81 L 1569.68 995.83 L 1572.68 995.83 L 1575.68 995.83 L 1578.68 995.84 L 1581.68 995.84 L 1584.68 995.81 L 1587.68 995.79 L 1590.68 995.79 L 1593.68 995.77 L 1596.68 995.74 L 1599.68 995.70 L 1602.68 995.64 L 1605.68 995.61 L 1608.68 995.53 L 1611.68 995.46 L 1614.68 995.39 L 1617.68 995.34 L 1620.68 995.29 L 1623.68 995.25 L 1626.68 995.22 L 1629.68 995.18 L 1632.68 995.16 L 1635.68 995.12 L 1638.68 995.07 L 1641.68 995.04 L 1644.68 995.01 L 1647.68 994.97 L 1650.68 994.94 L 1653.68 994.88 L 1656.68 994.83 L 1659.68 994.80 L 1662.68 994.79 L 1665.68 994.77 L 1668.67 994.74 L 1671.67 994.70 L 1674.67 994.67 L 1677.67 994.67 L 1680.67 994.67 L 1683.67 994.66 L 1686.67 994.67 L 1689.67 994.68 L 1692.67 994.68 L 1695.67 994.66 L 1698.67 994.62 L 1701.67 994.59 L 1704.67 994.55 L 1707.67 994.51 L 1710.67 994.49 L 1713.67 994.49 L 1716.67 994.48 L 1719.67 994.51 L 1722.67 994.54 L 1725.67 994.57 L 1728.67 994.61 L 1731.67 994.64 L 1734.67 994.66 L 1737.67 994.68 L 1740.67 994.69 L 1743.67 994.71 L 1746.67 994.74 L 1749.67 994.77 L 1752.67 994.81 L 1755.67 994.82 L 1758.67 994.83 L 1761.67 994.84 L 1764.67 994.85 L 1767.67 994.86 L 1770.67 994.87 L 1773.67 994.84 L 1776.67 994.80 L 1779.67 994.76 L 1782.67 994.69 L 1785.67 994.60 L 1788.67 994.52 L 1791.67 994.46 L 1794.67 994.39 L 1797.67 994.36 L 1800.67 994.32 L 1803.67 994.29 L 1806.67 994.23 L 1809.66 994.16 L 1812.66 994.07 L 1815.66 993.98 L 1818.66 993.88 L 1821.66 993.77 L 1824.65 993.63 L 1827.65 993.52 L 1830.65 993.40 L 1833.65 993.28 L 1836.65 993.19 L 1839.65 993.13 L 1842.65 993.09 L 1845.65 993.08 L 1848.65 993.07 L 1851.65 993.08 L 1854.65 993.08 L 1857.65 993.08 L 1860.65 993.09 L 1863.65 993.11 L 1866.65 993.10 L 1869.65 993.10 L 1872.65 993.07 L 1875.65 993.06 L 1878.65 993.03 L 1881.65 992.99 L 1884.64 992.93 L 1887.64 992.89 L 1890.64 992.83 L 1893.64 992.75 L 1896.64 992.68 L 1899.64 992.62 L 1902.64 992.58 L 1905.64 992.52 L 1908.64 992.49 L 1911.64 992.44 L 1914.64 992.42 L 1917.64 992.38 L 1920.64 992.34 L 1923.64 992.32 L 1926.64 992.33 L 1929.64 992.33 L 1932.64 992.31 L 1935.64 992.26 L 1938.64 992.22 L 1941.64 992.17 L 1944.64 992.09 L 1947.64 992.02 L 1950.63 991.93 L 1953.63 991.82 L 1956.63 991.74 L 1959.63 991.70 L 1962.63 991.65 L 1965.63 991.60 L 1968.63 991.55 L 1971.63 991.51 L 1974.63 991.44 L 1977.63 991.40 L 1980.63 991.35 L 1983.63 991.27 L 1986.63 991.21 L 1989.63 991.15 L 1992.63 991.08 L 1995.62 990.99 L 1998.62 990.91 L 2001.62 990.85 L 2004.62 990.81 L 2007.62 990.75 L 2010.62 990.72 L 2013.62 990.65 L 2016.62 990.56 L 2019.62 990.50 L 2022.62 990.43" stroke="rgb(245,245,245)" stroke-opacity="0.704" stroke-width="1.10" />
  <path d="M 997.92 1000.21 L 1000.87 999.85 L 1003.82 999.57 L 1006.75 999.31 L 1009.67 999.00 L 1012.59 998.75 L 1015.50 998.61 L 1018.39 998.43 L 1021.27 998.19 L 1024.14 997.93 L 1026.99 997.64 L 1029.84 997.39 L 1032.67 997.11 L 1035.49 996.90 L 1038.31 996.72 L 1041.11 996.46 L 1043.90 996.28 L 1046.68 996.09 L 1049.45 995.88 L 1052.21 995.66 L 1054.95 995.42 L 1057.69 995.23 L 1060.40 994.91 L 1063.10 994.58 L 1065.80 994.33 L 1068.49 994.14 L 1071.17 993.86 L 1073.82 993.49 L 1076.46 993.13 L 1079.08 992.67 L 1081.69 992.26 L 1084.29 991.82 L 1086.87 991.31 L 1089.43 990.78 L 1091.96 990.19" stroke="rgb(140,255,190)" stroke-opacity="0.528" stroke-width="1.10" />
  <path d="M 1092.56 1007.59 L 1095.25 1008.36 L 1097.95 1009.03 L 1100.62 1009.79 L 1103.31 1010.43 L 1105.98 1011.11 L 1108.66 1011.72 L 1111.31 1012.35 L 1113.98 1012.91 L 1116.63 1013.46 L 1119.28 1013.95 L 1121.94 1014.40 L 1124.55 1014.98 L 1127.17 1015.50 L 1129.77 1016.04 L 1132.31 1016.77 L 1134.84 1017.50 L 1137.32 1018.36 L 1139.76 1019.31 L 1142.16 1020.31 L 1144.56 1021.30 L 1146.98 1022.20 L 1149.44 1022.95 L 1151.87 1023.75 L 1154.29 1024.57 L 1156.72 1025.31 L 1159.13 1026.08 L 1161.56 1026.77 L 1163.96 1027.49 L 1166.37 1028.17 L 1168.78 1028.82 L 1171.13 1029.61 L 1173.48 1030.36 L 1175.82 1031.13 L 1178.17 1031.83 L 1180.48 1032.62 L 1182.77 1033.45 L 1185.00 1034.38 L 1187.28 1035.19 L 1189.52 1036.05 L 1191.71 1037.03 L 1193.90 1037.97 L 1196.10 1038.85 L 1198.30 1039.72 L 1200.48 1040.61 L 1202.63 1041.54 L 1204.76 1042.51 L 1206.88 1043.48 L 1208.95 1044.51 L 1211.02 1045.54 L 1213.04 1046.64 L 1215.07 1047.69 L 1217.06 1048.81 L 1218.97 1050.04 L 1220.94 1051.15 L 1222.89 1052.28 L 1224.80 1053.47 L 1226.70 1054.65 L 1228.60 1055.80 L 1230.56 1056.84 L 1232.53 1057.84 L 1234.48 1058.86 L 1236.39 1059.93 L 1238.30 1061.00 L 1240.21 1062.03 L 1242.11 1063.07 L 1243.95 1064.19 L 1245.79 1065.31 L 1247.68 1066.31 L 1249.59 1067.25 L 1251.53 1068.12 L 1253.41 1069.08 L 1255.29 1070.02 L 1257.16 1070.97 L 1259.03 1071.90 L 1260.87 1072.87 L 1262.70 1073.84 L 1264.53 1074.80 L 1266.38 1075.68 L 1268.25 1076.52 L 1270.11 1077.35 L 1271.97 1078.18 L 1273.79 1079.06 L 1275.59 1079.96 L 1277.43 1080.77 L 1279.25 1081.60 L 1281.02 1082.50 L 1282.81 1083.35 L 1284.59 1084.22 L 1286.40 1084.98" stroke="rgb(140,255,190)" stroke-opacity="0.526" stroke-width="1.10" />
  <path d="M 1000.60 998.60 L 1003.56 998.23 L 1006.50 997.79 L 1009.43 997.40 L 1012.36 997.06 L 1015.28 996.75 L 1018.17 996.28 L 1021.04 995.80 L 1023.91 995.40 L 1026.78 995.04 L 1029.63 994.72 L 1032.49 994.49 L 1035.34 994.25 L 1038.17 994.11 L 1041.00 993.93 L 1043.82 993.77 L 1046.62 993.60 L 1049.41 993.45 L 1052.19 993.26 L 1054.96 993.03 L 1057.72 992.85 L 1060.46 992.66 L 1063.20 992.50 L 1065.93 992.34 L 1068.64 992.19 L 1071.34 991.99 L 1074.04 991.80 L 1076.71 991.58 L 1079.37 991.27 L 1082.01 990.86 L 1084.62 990.41 L 1087.23 989.94 L 1089.82 989.50 L 1092.41 989.05 L 1094.98 988.60 L 1097.54 988.13 L 1100.10 987.68 L 1102.64 987.24 L 1105.15 986.67 L 1107.63 986.04 L 1110.10 985.39 L 1112.56 984.76 L 1115.01 984.13 L 1117.48 983.62 L 1119.93 983.10 L 1122.40 982.66 L 1124.85 982.24 L 1127.30 981.86 L 1129.75 981.53 L 1132.19 981.22 L 1134.62 980.88 L 1137.03 980.49 L 1139.44 980.15 L 1141.83 979.81 L 1144.23 979.51 L 1146.61 979.21 L 1148.99 978.99 L 1151.37 978.77 L 1153.72 978.51 L 1156.07 978.19 L 1158.39 977.84 L 1160.71 977.46 L 1163.03 977.17 L 1165.34 976.91 L 1167.64 976.65 L 1169.93 976.39 L 1172.22 976.14 L 1174.49 975.84 L 1176.76 975.60 L 1179.01 975.28 L 1181.24 974.94 L 1183.47 974.63 L 1185.69 974.26 L 1187.90 973.96 L 1190.11 973.65 L 1192.31 973.44 L 1194.51 973.25 L 1196.70 972.98 L 1198.87 972.73 L 1201.04 972.51 L 1203.20 972.28 L 1205.36 972.09 L 1207.51 971.88 L 1209.64 971.69 L 1211.77 971.42 L 1213.89 971.20 L 1216.00 970.99 L 1218.11 970.86 L 1220.21 970.76" stroke="rgb(140,255,190)" stroke-opacity="0.526" stroke-width="1.10" />
  <path d="M 1002.23 997.73 L 1004.88 997.76 L 1007.51 997.96 L 1010.11 998.25 L 1012.71 998.53 L 1015.31 998.69 L 1017.90 998.88 L 1020.47 999.09 L 1023.04 999.28 L 1025.60 999.44 L 1028.14 999.61 L 1030.68 999.81 L 1033.21 999.97 L 1035.73 1000.04 L 1038.24 1000.11 L 1040.74 1000.07 L 1043.23 1000.05 L 1045.71 1000.11 L 1048.18 1000.16 L 1050.65 1000.16 L 1053.10 1000.17 L 1055.54 1000.27 L 1057.97 1000.44 L 1060.38 1000.68 L 1062.77 1000.97 L 1065.17 1001.18 L 1067.55 1001.39 L 1069.92 1001.64 L 1072.28 1001.91 L 1074.64 1002.13 L 1076.97 1002.46 L 1079.29 1002.82 L 1081.58 1003.25 L 1083.88 1003.63 L 1086.16 1004.06 L 1088.42 1004.53 L 1090.68 1004.95 L 1092.95 1005.27 L 1095.20 1005.66 L 1097.42 1006.12 L 1099.64 1006.59 L 1101.86 1006.94 L 1104.07 1007.33 L 1106.26 1007.79 L 1108.45 1008.18 L 1110.63 1008.63 L 1112.78 1009.12 L 1114.93 1009.61 L 1117.07 1010.09 L 1119.18 1010.63 L 1121.29 1011.18 L 1123.37 1011.77 L 1125.44 1012.36 L 1127.52 1012.90 L 1129.59 1013.44 L 1131.67 1013.90 L 1133.77 1014.26 L 1135.85 1014.62 L 1137.93 1014.94 L 1140.00 1015.27 L 1142.07 1015.58 L 1144.13 1015.86 L 1146.19 1016.11 L 1148.23 1016.38 L 1150.28 1016.58 L 1152.32 1016.78 L 1154.34 1017.02 L 1156.36 1017.23 L 1158.37 1017.42 L 1160.38 1017.59 L 1162.38 1017.74 L 1164.38 1017.91 L 1166.36 1018.03 L 1168.34 1018.09 L 1170.32 1018.13 L 1172.28 1018.06 L 1174.24 1018.07 L 1176.20 1018.06 L 1178.14 1018.04 L 1180.07 1017.97 L 1182.00 1017.89" stroke="rgb(140,255,190)" stroke-opacity="0.524" stroke-width="1.09" />
  <path d="M 999.79 999.20 L 999.54 1001.69 L 999.20 1004.15 L 999.01 1006.63 L 998.79 1009.08 L 998.48 1011.52 L 998.14 1013.95 L 997.78 1016.36 L 997.29 1018.74 L 996.82 1021.11 L 996.37 1023.48 L 996.08 1025.86 L 995.68 1028.22 L 995.27 1030.57 L 994.89 1032.91 L 994.56 1035.25 L 994.22 1037.57 L 994.00 1039.91" stroke="rgb(205,165,255)" stroke-opacity="0.459" stroke-width="1.07" />
  <path d="M 997.81 999.42 L 996.97 1001.73 L 996.25 1004.07 L 995.48 1006.39 L 994.67 1008.68 L 993.84 1010.96 L 992.97 1013.20 L 992.12 1015.45 L 991.21 1017.66 L 990.25 1019.84 L 989.26 1022.00 L 988.31 1024.16 L 987.35 1026.31 L 986.31 1028.42 L 985.24 1030.49 L 984.07 1032.50 L 982.87 1034.48 L 981.66 1036.45 L 980.50 1038.43 L 979.19 1040.31 L 977.87 1042.17 L 976.57 1044.03 L 975.29 1045.90 L 973.93 1047.69 L 972.62 1049.51 L 971.26 1051.28 L 969.87 1053.02 L 968.42 1054.70 L 966.92 1056.33 L 965.48 1057.99 L 964.02 1059.61 L 962.51 1061.19 L 961.06 1062.81 L 959.57 1064.38 L 958.14 1065.99 L 956.77 1067.65 L 955.52 1069.38 L 954.32 1071.14 L 953.14 1072.90 L 951.93 1074.63 L 950.78 1076.40 L 949.54 1078.09 L 948.33 1079.79 L 947.14 1081.49 L 946.04 1083.25" stroke="rgb(205,165,255)" stroke-opacity="0.459" stroke-width="1.07" />
  <path d="M 996.98 997.80 L 996.97 996.30 L 996.91 994.81 L 997.01 993.33 L 996.96 991.84 L 996.79 990.38 L 996.76 988.91 L 996.72 987.44 L 996.70 985.98 L 996.61 984.53 L 996.56 983.09 L 996.46 981.65 L 996.46 980.22 L 996.45 978.79 L 996.36 977.37" stroke="rgb(230,230,230)" stroke-opacity="0.386" stroke-width="0.71" />
  <path d="M 1002.20 1002.92 L 1000.92 1002.13 L 999.79 1001.15 L 998.63 1000.22 L 997.47 999.29 L 996.26 998.46 L 995.01 997.67" stroke="rgb(230,230,230)" stroke-opacity="0.384" stroke-width="0.71" />
  <path d="M 1001.68 1006.46 L 1000.32 1007.09 L 998.90 1007.55 L 997.47 1007.95 L 996.02 1008.27 L 994.61 1008.71 L 993.21 1009.15 L 991.80 1009.56 L 990.36 1009.80 L 988.95 1010.12 L 987.59 1010.62 L 986.28 1011.23" stroke="rgb(230,230,230)" stroke-opacity="0.383" stroke-width="0.70" />
  <path d="M 1003.71 997.56 L 1004.78 998.62 L 1005.90 999.60 L 1006.96 1000.65 L 1008.11 1001.59 L 1009.23 1002.55 L 1010.39 1003.45 L 1011.56 1004.33 L 1012.66 1005.29 L 1013.86 1006.11 L 1014.92 1007.09" stroke="rgb(230,230,230)" stroke-opacity="0.380" stroke-width="0.70" />
  <path d="M 1003.83 1003.87 L 1002.83 1002.76 L 1001.75 1001.72 L 1000.92 1000.49 L 999.82 999.49 L 998.81 998.41 L 997.84 997.32 L 996.99 996.12 L 996.41 994.78" stroke="rgb(230,230,230)" stroke-opacity="0.380" stroke-width="0.70" />
  <path d="M 1000.14 996.02 L 1001.61 996.33 L 1003.07 996.62 L 1004.55 996.85 L 1006.01 997.10 L 1007.48 997.19 L 1008.95 997.22 L 1010.41 997.21 L 1011.87 997.20 L 1013.32 997.22 L 1014.77 997.13 L 1016.21 997.03 L 1017.64 996.90 L 1019.06 996.83 L 1020.49 996.84" stroke="rgb(230,230,230)" stroke-opacity="0.379" stroke-width="0.69" />
  <path d="M 1003.72 1000.69 L 1004.91 1001.60 L 1006.08 1002.53 L 1007.25 1003.45 L 1008.43 1004.35 L 1009.59 1005.26 L 1010.77 1006.14 L 1011.99 1006.94 L 1013.19 1007.78 L 1014.36 1008.64 L 1015.50 1009.53 L 1016.60 1010.46" stroke="rgb(230,230,230)" stroke-opacity="0.378" stroke-width="0.69" />
  <path d="M 990.59 1007.96 L 991.63 1009.04 L 992.61 1010.17 L 993.85 1011.00 L 995.17 1011.67 L 996.49 1012.33 L 997.87 1012.84" stroke="rgb(230,230,230)" stroke-opacity="0.376" stroke-width="0.68" />
  <path d="M 999.44 1000.97 L 998.02 1001.44 L 996.57 1001.82 L 995.19 1002.37 L 993.79 1002.85 L 992.38 1003.29 L 990.98 1003.76 L 989.58 1004.18 L 988.15 1004.47 L 986.72 1004.73 L 985.30 1005.00 L 983.98 1005.57 L 982.60 1005.96 L 981.25 1006.43 L 979.96 1007.04 L 978.76 1007.80" stroke="rgb(230,230,230)" stroke-opacity="0.373" stroke-width="0.68" />
  <path d="M 997.50 999.64 L 998.97 999.92 L 1000.41 1000.32 L 1001.77 1000.93 L 1003.24 1001.12 L 1004.68 1001.45 L 1006.14 1001.55 L 1007.60 1001.45 L 1009.06 1001.46 L 1010.50 1001.28" stroke="rgb(230,230,230)" stroke-opacity="0.368" stroke-width="0.66" />
  <path d="M 1000.27 999.50 L 998.79 999.73 L 997.31 999.94 L 995.84 1000.14 L 994.35 1000.14 L 992.88 1000.23 L 991.42 1000.40 L 989.96 1000.48" stroke="rgb(230,230,230)" stroke-opacity="0.365" stroke-width="0.65" />
  <path d="M 992.99 995.54 L 993.87 996.76 L 994.70 998.00 L 995.42 999.30 L 996.28 1000.51 L 997.26 1001.61 L 998.25 1002.70 L 999.20 1003.81 L 1000.09 1004.97 L 1001.25 1005.85 L 1002.39 1006.74 L 1003.47 1007.68 L 1004.70 1008.44 L 1005.92 1009.17 L 1006.99 1010.11" stroke="rgb(230,230,230)" stroke-opacity="0.364" stroke-width="0.65" />
  <path d="M 995.48 1004.25 L 995.20 1005.72 L 994.90 1007.18 L 994.41 1008.59 L 993.91 1009.98 L 993.31 1011.33 L 992.72 1012.68 L 992.27 1014.07 L 991.71 1015.42 L 991.20 1016.78 L 990.78 1018.16" stroke="rgb(230,230,230)" stroke-opacity="0.362" stroke-width="0.65" />
  <path d="M 1000.54 1006.28 L 1001.40 1007.51 L 1002.24 1008.74 L 1002.93 1010.06 L 1003.58 1011.39 L 1004.33 1012.66 L 1005.06 1013.94 L 1005.95 1015.10 L 1006.81 1016.28 L 1007.78 1017.36 L 1008.66 1018.51 L 1009.47 1019.71 L 1010.43 1020.77 L 1011.34 1021.87 L 1012.20 1023.01 L 1013.03 1024.16 L 1013.87 1025.29 L 1014.61 1026.49 L 1015.20 1027.76 L 1015.96 1028.93 L 1016.71 1030.10" stroke="rgb(230,230,230)" stroke-opacity="0.361" stroke-width="0.64" />
  <path d="M 998.52 1005.19 L 997.94 1006.57 L 997.31 1007.93 L 996.66 1009.27 L 996.09 1010.63 L 995.59 1012.02 L 995.21 1013.44" stroke="rgb(230,230,230)" stroke-opacity="0.357" stroke-width="0.63" />
  <path d="M 1007.85 1002.32 L 1008.66 1003.57 L 1009.55 1004.78 L 1010.42 1005.98" stroke="rgb(230,230,230)" stroke-opacity="0.354" stroke-width="0.62" />
  <path d="M 1004.26 1000.70 L 1005.74 1000.91 L 1007.20 1001.22 L 1008.64 1001.62 L 1010.03 1002.13 L 1011.39 1002.69 L 1012.79 1003.15 L 1014.16 1003.67 L 1015.34 1004.53" stroke="rgb(230,230,230)" stroke-opacity="0.354" stroke-width="0.62" />
  <path d="M 994.44 1004.47 L 995.76 1003.75 L 996.94 1002.84 L 998.21 1002.05 L 999.44 1001.24 L 1000.70 1000.46 L 1001.97 999.72 L 1003.25 999.02 L 1004.45 998.19 L 1005.64 997.35" stroke="rgb(230,230,230)" stroke-opacity="0.352" stroke-width="0.62" />
</g>
</svg>
