{
  "asset": {
    "version": "2.0",
    "generator": "TES-23 Cosmic Ray Renderer"
  },
  "extensionsUsed": [
    "KHR_materials_unlit"
  ],
  "extensionsRequired": [
    "KHR_materials_unlit"
  ],
  "scene": 0,
  "scenes": [
    {
      "nodes": [
        0
      ]
    }
  ],
  "nodes": [
    {
      "name": "CosmicRayEvent",
      "mesh": 0
    }
  ],
  "meshes": [
    {
      "name": "CosmicRayEvent",
      "primitives": [
        {
          "attributes": {
            "POSITION": 0
          },
          "material": 0,
          "mode": 1
        },
        {
          "attributes": {
            "POSITION": 1
          },
          "material": 1,
          "mode": 1
        },
        {
          "attributes": {
            "POSITION": 2
          },
          "material": 2,
          "mode": 1
        },
        {
          "attributes": {
            "POSITION": 3
          },
          "material": 3,
          "mode": 1
        },
        {
          "attributes": {
            "POSITION": 4
          },
          "material": 4,
          "mode": 1
        }
      ]
    }
  ],
  "materials": [
    {
      "name": "primary",
      "extensions": {
        "KHR_materials_unlit": {}
      },
      "pbrMetallicRoughness": {
        "baseColorFactor": [
          0.961,
          0.961,
          0.961,
          1
        ],
        "metallicFactor": 0,
        "roughnessFactor": 1
      }
    },
    {
      "name": "vertex",
      "extensions": {
        "KHR_materials_unlit": {}
      },
      "pbrMetallicRoughness": {
        "baseColorFactor": [
          0.902,
          0.902,
          0.902,
          0.9
        ],
        "metallicFactor": 0,
        "roughnessFactor": 1
      }
    },
    {
      "name": "em",
      "extensions": {
        "KHR_materials_unlit": {}
      },
      "pbrMetallicRoughness": {
        "baseColorFactor": [
          0.471,
          0.824,
          1,
          1
        ],
        "metallicFactor": 0,
        "roughnessFactor": 1
      }
    },
    {
      "name": "hadron",
      "extensions": {
        "KHR_materials_unlit": {}
      },
      "pbrMetallicRoughness": {
        "baseColorFactor": [
          0.549,
          1,
          0.745,
          1
        ],
        "metallicFactor": 0,
        "roughnessFactor": 1
      }
    },
    {
      "name": "delta",
      "extensions": {
        "KHR_materials_unlit": {}
      },
      "pbrMetallicRoughness": {
        "baseColorFactor": [
          0.804,
          0.647,
          1,
          1
        ],
        "metallicFactor": 0,
        "roughnessFactor": 1
      }
    }
  ],
  "accessors": [
    {
      "bufferView": 0,
      "byteOffset": 0,
      "componentType": 5126,
      "count": 1402,
      "type": "VEC3",
      "min": [
        -0.2857843041419983,
        -1.0000158548355103,
        0
      ],
      "max": [
        0.27838611602783203,
        1.0227751731872559,
        0
      ]
    },
    {
      "bufferView": 1,
      "byteOffset": 0,
      "componentType": 5126,
      "count": 342,
      "type": "VEC3",
      "min": [
        -0.016888996586203575,
        -0.020328255370259285,
        -0.16150808334350586
      ],
      "max": [
        0.022526485845446587,
        0.02788940817117691,
        0.11174360662698746
      ]
    },
    {
      "bufferView": 2,
      "byteOffset": 0,
      "componentType": 5126,
      "count": 2264,
      "type": "VEC3",
      "min": [
        -0.09755060076713562,
        -0.003594800364226103,
        -0.17722848057746887
      ],
      "max": [
        0.0020041372627019882,
        0.3709128201007843,
        0.1865660846233368
      ]
    },
    {
      "bufferView": 3,
      "byteOffset": 0,
      "componentType": 5126,
      "count": 3166,
      "type": "VEC3",
      "min": [
        -0.151272714138031,
        -0.09279094636440277,
        -0.6869649291038513
      ],
      "max": [
        0.007395594846457243,
        0.34984081983566284,
        0.950082540512085
      ]
    },
    {
      "bufferView": 4,
      "byteOffset": 0,
      "componentType": 5126,
      "count": 2294,
      "type": "VEC3",
      "min": [
        -0.15455618500709534,
        -0.2395322620868683,
        -1.003142237663269
      ],
      "max": [
        0.11787207424640656,
        0.26794832944869995,
        0.9005591869354248
      ]
    }
  ],
  "bufferViews": [
    {
      "buffer": 0,
      "byteOffset": 0,
      "byteLength": 16824,
      "target": 34962
    },
    {
      "buffer": 0,
      "byteOffset": 16824,
      "byteLength": 4104,
      "target": 34962
    },
    {
      "buffer": 0,
      "byteOffset": 20928,
      "byteLength": 27168,
      "target": 34962
    },
    {
      "buffer": 0,
      "byteOffset": 48096,
      "byteLength": 37992,
      "target": 34962
    },
    {
      "buffer": 0,
      "byteOffset": 86088,
      "byteLength": 27528,
      "target": 34962
    }
  ],
  "buffers": [
    {
      "byteLength": 113616,
      "uri": "data:application/octet-stream;base64,"
    }
  ]
}