{
  "asset": {
    "version": "2.0",
    "generator": "TES-23 Cosmic Ray Renderer"
  },
  "extensionsUsed": [
    "KHR_materials_unlit"
  ],
  "extensionsRequired": [
    "KHR_materials_unlit"
  ],
  "scene": 0,
  "scenes": [
    {
      "nodes": [
        0
      ]
    }
  ],
  "nodes": [
    {
      "name": "CosmicRayEvent",
      "mesh": 0
    }
  ],
  "meshes": [
    {
      "name": "CosmicRayEvent",
      "primitives": [
        {
          "attributes": {
            "POSITION": 0
          },
          "material": 0,
          "mode": 1
        },
        {
          "attributes": {
            "POSITION": 1
          },
          "material": 1,
          "mode": 1
        },
        {
          "attributes": {
            "POSITION": 2
          },
          "material": 2,
          "mode": 1
        },
        {
          "attributes": {
            "POSITION": 3
          },
          "material": 3,
          "mode": 1
        },
        {
          "attributes": {
            "POSITION": 4
          },
          "material": 4,
          "mode": 1
        }
      ]
    }
  ],
  "materials": [
    {
      "name": "primary",
      "extensions": {
        "KHR_materials_unlit": {}
      },
      "pbrMetallicRoughness": {
        "baseColorFactor": [
          0.961,
          0.961,
          0.961,
          1
        ],
        "metallicFactor": 0,
        "roughnessFactor": 1
      }
    },
    {
      "name": "vertex",
      "extensions": {
        "KHR_materials_unlit": {}
      },
      "pbrMetallicRoughness": {
        "baseColorFactor": [
          0.902,
          0.902,
          0.902,
          0.9
        ],
        "metallicFactor": 0,
        "roughnessFactor": 1
      }
    },
    {
      "name": "em",
      "extensions": {
        "KHR_materials_unlit": {}
      },
      "pbrMetallicRoughness": {
        "baseColorFactor": [
          0.471,
          0.824,
          1,
          1
        ],
        "metallicFactor": 0,
        "roughnessFactor": 1
      }
    },
    {
      "name": "hadron",
      "extensions": {
        "KHR_materials_unlit": {}
      },
      "pbrMetallicRoughness": {
        "baseColorFactor": [
          0.549,
          1,
          0.745,
          1
        ],
        "metallicFactor": 0,
        "roughnessFactor": 1
      }
    },
    {
      "name": "delta",
      "extensions": {
        "KHR_materials_unlit": {}
      },
      "pbrMetallicRoughness": {
        "baseColorFactor": [
          0.804,
          0.647,
          1,
          1
        ],
        "metallicFactor": 0,
        "roughnessFactor": 1
      }
    }
  ],
  "accessors": [
    {
      "bufferView": 0,
      "byteOffset": 0,
      "componentType": 5126,
      "count": 1502,
      "type": "VEC3",
      "min": [
        -1.020883560180664,
        -0.48871421813964844,
        0
      ],
      "max": [
        1.0000524520874023,
        0.5069029331207275,
        0
      ]
    },
    {
      "bufferView": 1,
      "byteOffset": 0,
      "componentType": 5126,
      "count": 336,
      "type": "VEC3",
      "min": [
        -0.018933553248643875,
        -0.013043859973549843,
        -0.04705112800002098
      ],
      "max": [
        0.014528077095746994,
        0.01293441466987133,
        0.0701814591884613
      ]
    },
    {
      "bufferView": 2,
      "byteOffset": 0,
      "componentType": 5126,
      "count": 1600,
      "type": "VEC3",
      "min": [
        -0.38736385107040405,
        -0.0028140998911112547,
        -0.20445440709590912
      ],
      "max": [
        0.005278006196022034,
        0.16879381239414215,
        0.060373079031705856
      ]
    },
    {
      "bufferView": 3,
      "byteOffset": 0,
      "componentType": 5126,
      "count": 2398,
      "type": "VEC3",
      "min": [
        -0.24202115833759308,
        -0.08296417444944382,
        -0.2576000690460205
      ],
      "max": [
        0.18999582529067993,
        0.17499014735221863,
        0.2859092354774475
      ]
    },
    {
      "bufferView": 4,
      "byteOffset": 0,
      "componentType": 5126,
      "count": 1302,
      "type": "VEC3",
      "min": [
        -0.24308380484580994,
        -0.06680140644311905,
        -1.5107678174972534
      ],
      "max": [
        0.053307823836803436,
        0.1576191484928131,
        0.21156249940395355
      ]
    }
  ],
  "bufferViews": [
    {
      "buffer": 0,
      "byteOffset": 0,
      "byteLength": 18024,
      "target": 34962
    },
    {
      "buffer": 0,
      "byteOffset": 18024,
      "byteLength": 4032,
      "target": 34962
    },
    {
      "buffer": 0,
      "byteOffset": 22056,
      "byteLength": 19200,
      "target": 34962
    },
    {
      "buffer": 0,
      "byteOffset": 41256,
      "byteLength": 28776,
      "target": 34962
    },
    {
      "buffer": 0,
      "byteOffset": 70032,
      "byteLength": 15624,
      "target": 34962
    }
  ],
  "buffers": [
    {
      "byteLength": 85656,
      "uri": "data:application/octet-stream;base64,"
    }
  ]
}