<?xml version="1.0" encoding="UTF-8"?>
<svg xmlns="http://www.w3.org/2000/svg" width="2000" height="2000" viewBox="0 0 2000 2000">
<g fill="none" stroke-linecap="round" stroke-linejoin="round">
  <path d="M 1000.14 1002.04 L 997.14 1001.85 L 994.15 1001.59 L 991.17 1001.35 L 988.20 1001.07 L 985.25 1000.83 L 982.30 1000.58 L 979.37 1000.35 L 976.45 1000.17 L 973.54 999.97 L 970.64 999.78 L 967.76 999.55 L 964.88 999.34 L 962.03 999.07 L 959.20 998.76 L 956.39 998.40 L 953.61 998.02 L 950.83 997.65 L 948.06 997.27 L 945.30 996.89 L 942.55 996.53 L 939.81 996.18 L 937.07 995.85 L 934.34 995.50 L 931.63 995.16 L 928.93 994.83 L 926.25 994.46 L 923.57 994.12 L 920.92 993.77 L 918.27 993.44 L 915.63 993.17 L 913.00 992.88 L 910.38 992.60 L 907.76 992.31 L 905.15 992.08 L 902.55 991.85 L 899.97 991.61" stroke="rgb(120,210,255)" stroke-opacity="0.468" stroke-width="1.62" />
  <path d="M 1000.12 1000.41 L 996.95 999.94 L 993.79 999.47 L 990.63 999.11 L 987.48 998.75 L 984.35 998.41 L 981.24 998.02 L 978.14 997.61 L 975.06 997.22 L 971.98 996.82 L 968.93 996.39 L 965.88 996.05 L 962.84 995.68 L 959.82 995.30 L 956.81 994.91 L 953.81 994.50 L 950.82 994.09 L 947.85 993.68 L 944.90 993.24 L 941.95 992.81 L 939.00 992.45 L 936.07 992.11 L 933.14 991.74 L 930.24 991.36 L 927.34 990.97 L 924.46 990.57 L 921.58 990.20 L 918.71 989.87 L 915.86 989.56 L 913.01 989.25 L 910.18 988.93 L 907.36 988.62 L 904.54 988.31 L 901.74 987.99 L 898.96 987.61 L 896.19 987.17 L 893.43 986.80 L 890.68 986.45 L 887.93 986.12 L 885.20 985.81 L 882.47 985.51 L 879.75 985.22 L 877.05 984.94 L 874.35 984.68 L 871.66 984.48 L 868.98 984.27 L 866.31 984.06 L 863.65 983.85 L 861.00 983.67 L 858.36 983.50 L 855.73 983.36 L 853.11 983.30 L 850.50 983.28 L 847.90 983.24 L 845.31 983.22 L 842.73 983.14 L 840.17 983.04 L 837.61 982.96 L 835.07 982.88 L 832.54 982.77 L 830.02 982.68 L 827.50 982.59 L 825.01 982.48 L 822.52 982.37 L 820.04 982.24 L 817.58 982.13 L 815.13 982.01 L 812.69 981.86 L 810.26 981.70 L 807.85 981.55 L 805.44 981.39 L 803.05 981.25 L 800.68 981.17 L 798.31 981.09 L 795.95 981.02 L 793.61 980.88 L 791.28 980.74 L 788.97 980.63 L 786.67 980.53 L 784.38 980.45 L 782.10 980.38 L 779.83 980.31" stroke="rgb(120,210,255)" stroke-opacity="0.850" stroke-width="1.62" />
  <path d="M 1000.12 1000.79 L 996.65 1000.53 L 993.19 1000.26 L 989.75 999.98 L 986.32 999.69 L 982.91 999.41 L 979.50 999.17 L 976.11 998.90 L 972.73 998.65 L 969.37 998.40 L 966.02 998.15 L 962.69 997.88 L 959.37 997.60 L 956.06 997.36 L 952.76 997.13 L 949.47 996.91 L 946.20 996.66 L 942.95 996.41 L 939.71 996.17 L 936.48 995.94 L 933.26 995.68 L 930.05 995.48 L 926.86 995.26" stroke="rgb(120,210,255)" stroke-opacity="0.850" stroke-width="1.62" />
  <path d="M 998.33 1001.56 L 994.89 1001.39 L 991.46 1001.24 L 988.04 1001.13 L 984.63 1001.02 L 981.24 1000.91 L 977.86 1000.81 L 974.49 1000.72 L 971.14 1000.69 L 967.80 1000.68 L 964.47 1000.69 L 961.16 1000.71 L 957.86 1000.72 L 954.57 1000.74 L 951.30 1000.75 L 948.04 1000.76 L 944.79 1000.76 L 941.55 1000.74 L 938.33 1000.70 L 935.13 1000.66 L 931.93 1000.65 L 928.75 1000.69 L 925.58 1000.74 L 922.42 1000.82 L 919.28 1000.88 L 916.15 1000.95 L 913.03 1001.01 L 909.93 1001.08 L 906.83 1001.14 L 903.75 1001.20 L 900.68 1001.24 L 897.63 1001.28 L 894.58 1001.33 L 891.55 1001.39 L 888.53 1001.45 L 885.52 1001.51 L 882.52 1001.59 L 879.54 1001.64 L 876.57 1001.72 L 873.61 1001.83 L 870.66 1001.91 L 867.72 1001.96 L 864.80 1001.98 L 861.88 1001.98 L 858.98 1001.98 L 856.09 1001.99 L 853.21 1001.96 L 850.34 1001.93" stroke="rgb(120,210,255)" stroke-opacity="0.850" stroke-width="1.62" />
  <path d="M 1000.37 998.80 L 997.28 998.54 L 994.21 998.29 L 991.15 998.07 L 988.11 997.81 L 985.07 997.59 L 982.04 997.37 L 979.03 997.19 L 976.03 996.97 L 973.03 996.78 L 970.06 996.56 L 967.10 996.33 L 964.15 996.11 L 961.21 995.88 L 958.27 995.72 L 955.35 995.57 L 952.44 995.40 L 949.55 995.21 L 946.67 994.95 L 943.80 994.69 L 940.96 994.35 L 938.13 994.02 L 935.31 993.73 L 932.51 993.45 L 929.72 993.13 L 926.95 992.74 L 924.19 992.36 L 921.44 992.01 L 918.70 991.62 L 916.00 991.19 L 913.31 990.78 L 910.62 990.39 L 907.95 989.99 L 905.28 989.58 L 902.64 989.15 L 900.00 988.71 L 897.39 988.21 L 894.80 987.73 L 892.22 987.25 L 889.65 986.80 L 887.08 986.37 L 884.53 985.95 L 881.98 985.55 L 879.43 985.17 L 876.90 984.83 L 874.38 984.48 L 871.87 984.13 L 869.36 983.82 L 866.88 983.45 L 864.42 983.07 L 861.97 982.62 L 859.54 982.17 L 857.13 981.71 L 854.72 981.19 L 852.32 980.74 L 849.91 980.32 L 847.52 979.84" stroke="rgb(120,210,255)" stroke-opacity="0.466" stroke-width="1.62" />
  <path d="M 925.58 1000.74 L 922.20 1000.36 L 918.84 999.98 L 915.50 999.61 L 912.16 999.21 L 908.85 998.84 L 905.55 998.47 L 902.26 998.12 L 898.99 997.77 L 895.73 997.43 L 892.49 997.04 L 889.26 996.65 L 886.05 996.29 L 882.85 995.93 L 879.66 995.61 L 876.46 995.37 L 873.26 995.13 L 870.08 994.89 L 866.92 994.62 L 863.77 994.28 L 860.64 993.93 L 857.53 993.50 L 854.41 993.09 L 851.31 992.77 L 848.23 992.41 L 845.16 992.06 L 842.10 991.69 L 839.06 991.37 L 836.04 990.99 L 833.03 990.61 L 830.02 990.26 L 827.02 989.91 L 824.03 989.59 L 821.04 989.30 L 818.08 988.96 L 815.12 988.63 L 812.18 988.32 L 809.25 988.00 L 806.32 987.73 L 803.41 987.47 L 800.51 987.21 L 797.61 986.97 L 794.73 986.75 L 791.86 986.55 L 788.99 986.36 L 786.14 986.17 L 783.29 985.96 L 780.46 985.77 L 777.64 985.57 L 774.82 985.39 L 772.02 985.21 L 769.23 985.03 L 766.44 984.85 L 763.66 984.70 L 760.89 984.55 L 758.14 984.42 L 755.39 984.33 L 752.65 984.26 L 749.92 984.16 L 747.21 984.06 L 744.51 983.95 L 741.83 983.83 L 739.16 983.67 L 736.50 983.51 L 733.84 983.36 L 731.19 983.21 L 728.55 983.09 L 725.93 982.94 L 723.31 982.78 L 720.71 982.60 L 718.12 982.46 L 715.53 982.37 L 712.95 982.29 L 710.40 982.17 L 707.86 982.05 L 705.32 981.92 L 702.80 981.79 L 700.29 981.65 L 697.79 981.51" stroke="rgb(120,210,255)" stroke-opacity="0.845" stroke-width="1.61" />
  <path d="M 1000.28 1000.77 L 997.12 1000.77 L 993.98 1000.72 L 990.84 1000.71 L 987.72 1000.81 L 984.61 1000.91 L 981.51 1001.02 L 978.42 1001.13 L 975.35 1001.23 L 972.29 1001.36 L 969.24 1001.54 L 966.21 1001.65 L 963.18 1001.75 L 960.17 1001.91 L 957.18 1002.07 L 954.21 1002.20 L 951.23 1002.34 L 948.28 1002.48 L 945.32 1002.60 L 942.38 1002.76 L 939.46 1002.89 L 936.55 1003.01 L 933.65 1003.17 L 930.78 1003.40 L 927.91 1003.58 L 925.05 1003.75 L 922.21 1003.91 L 919.37 1004.05 L 916.55 1004.17 L 913.73 1004.35 L 910.92 1004.51 L 908.13 1004.64 L 905.35 1004.77 L 902.58 1004.86 L 899.80 1004.95 L 897.03 1005.05 L 894.28 1005.19 L 891.54 1005.35 L 888.80 1005.51 L 886.08 1005.66 L 883.36 1005.81 L 880.66 1005.96 L 877.96 1006.11 L 875.29 1006.29 L 872.62 1006.48 L 869.96 1006.66 L 867.32 1006.85 L 864.69 1007.08 L 862.07 1007.31" stroke="rgb(120,210,255)" stroke-opacity="0.840" stroke-width="1.59" />
  <path d="M 997.04 1001.86 L 993.62 1001.76 L 990.21 1001.67 L 986.81 1001.56 L 983.42 1001.45 L 980.05 1001.32 L 976.70 1001.19 L 973.35 1001.08 L 970.02 1001.03 L 966.70 1000.99" stroke="rgb(120,210,255)" stroke-opacity="0.839" stroke-width="1.59" />
  <path d="M 1002.17 1001.84 L 999.40 1001.82 L 996.64 1001.81 L 993.89 1001.76 L 991.15 1001.74 L 988.42 1001.67 L 985.71 1001.57 L 983.02 1001.44 L 980.33 1001.32 L 977.66 1001.23 L 975.00 1001.13 L 972.34 1001.02 L 969.70 1000.90 L 967.07 1000.92 L 964.47 1001.01 L 961.87 1001.06 L 959.29 1001.12 L 956.71 1001.12 L 954.15 1001.14 L 951.59 1001.16 L 949.04 1001.18 L 946.51 1001.23 L 943.98 1001.28 L 941.47 1001.32 L 938.96 1001.35 L 936.46 1001.30 L 933.98 1001.17 L 931.50 1000.99 L 929.03 1000.82 L 926.58 1000.64" stroke="rgb(120,210,255)" stroke-opacity="0.458" stroke-width="1.57" />
  <path d="M 933.14 991.74 L 930.43 991.52 L 927.74 991.34 L 925.05 991.14 L 922.37 991.00 L 919.70 990.76 L 917.05 990.50 L 914.40 990.25 L 911.75 990.02 L 909.12 989.80 L 906.50 989.60 L 903.89 989.40 L 901.28 989.24 L 898.69 989.11 L 896.11 988.86 L 893.55 988.60 L 891.00 988.33 L 888.45 988.06 L 885.91 987.83 L 883.39 987.60 L 880.87 987.40 L 878.37 987.14 L 875.89 986.79 L 873.43 986.46 L 870.97 986.15 L 868.51 985.88 L 866.07 985.63 L 863.64 985.32 L 861.20 985.25 L 858.77 985.18 L 856.35 985.09 L 853.94 984.99" stroke="rgb(120,210,255)" stroke-opacity="0.457" stroke-width="1.57" />
  <path d="M 948.04 1000.76 L 945.21 1000.28 L 942.40 999.75 L 939.59 999.25 L 936.80 998.73 L 934.02 998.23 L 931.22 997.86 L 928.43 997.54 L 925.65 997.21 L 922.88 996.87 L 920.14 996.44 L 917.43 995.90 L 914.75 995.31 L 912.09 994.77 L 909.44 994.25 L 906.79 993.73 L 904.20 993.14 L 901.61 992.61 L 899.06 992.11 L 896.51 991.62 L 893.96 991.17 L 891.45 990.73 L 888.95 990.29 L 886.46 989.89 L 884.01 989.49 L 881.55 989.07 L 879.05 988.68 L 876.56 988.35 L 874.07 988.03 L 871.60 987.69 L 869.16 987.26 L 866.73 986.87 L 864.31 986.46 L 861.92 985.97 L 859.55 985.53 L 857.15 985.19 L 854.77 984.87 L 852.39 984.63 L 849.98 984.37" stroke="rgb(120,210,255)" stroke-opacity="0.457" stroke-width="1.57" />
  <path d="M 1001.73 999.15 L 999.02 998.92 L 996.32 998.70 L 993.63 998.44 L 990.95 998.19 L 988.28 997.94 L 985.62 997.68 L 982.97 997.51 L 980.34 997.35 L 977.71 997.23 L 975.09 997.11 L 972.48 996.99 L 969.88 996.84 L 967.29 996.78 L 964.71 996.80 L 962.14 996.82 L 959.58 996.70 L 957.03 996.71 L 954.50 996.73 L 951.97 996.79 L 949.46 996.84 L 946.97 996.86" stroke="rgb(120,210,255)" stroke-opacity="0.454" stroke-width="1.55" />
  <path d="M 967.87 995.03 L 965.76 995.69 L 963.65 996.34 L 961.56 997.00 L 959.48 997.65 L 957.35 998.11 L 955.24 998.46 L 953.14 998.80 L 951.04 999.02 L 948.94 999.19 L 946.83 999.11 L 944.72 999.07 L 942.62 999.07 L 940.52 999.03 L 938.46 998.79 L 936.42 998.57 L 934.38 998.54 L 932.36 998.62 L 930.33 998.65 L 928.30 998.70 L 926.28 998.76 L 924.28 998.79 L 922.29 998.77 L 920.30 998.77 L 918.32 998.76 L 916.33 998.70 L 914.34 998.72 L 912.36 998.75 L 910.39 998.75 L 908.43 998.77 L 906.46 998.68 L 904.50 998.56 L 902.54 998.47 L 900.59 998.47 L 898.65 998.45 L 896.72 998.44 L 894.80 998.42 L 892.89 998.40 L 890.99 998.32 L 889.09 998.28 L 887.20 998.26 L 885.31 998.22 L 883.43 998.15 L 881.57 997.94 L 879.73 997.63 L 877.91 997.22 L 876.11 996.80 L 874.30 996.45 L 872.49 996.12 L 870.68 995.78 L 868.89 995.47 L 867.10 995.14 L 865.31 994.88 L 863.53 994.65 L 861.75 994.42 L 859.98 994.17 L 858.23 993.93 L 856.50 993.61 L 854.78 993.32 L 853.08 993.06 L 851.39 992.80 L 849.69 992.57 L 848.00 992.29 L 846.33 991.91 L 844.68 991.60 L 843.05 991.30 L 841.47 990.97 L 839.89 990.73 L 838.34 990.49" stroke="rgb(140,255,190)" stroke-opacity="0.573" stroke-width="1.26" />
  <path d="M 1000.79 999.35 L 998.14 998.31 L 995.49 997.28 L 992.87 996.22 L 990.26 995.12 L 987.65 993.98 L 985.05 992.83 L 982.47 991.68 L 979.88 990.52 L 977.32 989.37 L 974.78 988.22 L 972.25 987.07 L 969.70 985.95 L 967.16 984.87 L 964.65 983.81 L 962.14 982.81 L 959.63 981.77 L 957.13 980.69 L 954.63 979.64 L 952.14 978.60 L 949.65 977.56 L 947.18 976.54 L 944.73 975.52 L 942.30 974.47 L 939.87 973.43 L 937.45 972.43 L 935.00 971.45 L 932.57 970.46 L 930.15 969.45 L 927.74 968.50 L 925.34 967.54 L 922.94 966.64 L 920.53 965.75 L 918.12 964.86 L 915.70 963.98 L 913.29 963.07 L 910.89 962.14 L 908.50 961.21 L 906.12 960.30 L 903.74 959.40 L 901.36 958.50 L 898.98 957.59" stroke="rgb(205,165,255)" stroke-opacity="0.723" stroke-width="1.25" />
  <path d="M 944.17 995.42 L 942.05 995.06 L 940.05 994.52 L 938.06 993.99 L 936.03 993.54 L 934.00 993.24 L 931.98 993.00 L 929.98 992.82 L 928.01 992.63 L 926.11 992.33 L 924.13 992.02 L 922.17 991.75 L 920.24 991.45 L 918.32 991.17 L 916.41 990.89 L 914.51 990.62 L 912.64 990.32 L 910.84 990.07 L 909.01 989.83 L 907.21 989.51 L 905.51 989.05 L 903.83 988.52 L 902.14 987.98 L 900.57 987.38 L 899.00 986.80 L 897.45 986.20 L 895.93 985.57 L 894.35 985.05 L 892.77 984.55" stroke="rgb(140,255,190)" stroke-opacity="0.570" stroke-width="1.25" />
  <path d="M 1000.14 1000.55 L 1002.72 998.25 L 1005.28 995.95 L 1007.79 993.61 L 1010.32 991.32 L 1012.84 989.03 L 1015.34 986.75 L 1017.85 984.50 L 1020.36 982.28 L 1022.87 980.07 L 1025.39 977.90 L 1027.90 975.72 L 1030.36 973.52 L 1032.81 971.32 L 1035.24 969.13 L 1037.66 966.95 L 1040.07 964.77 L 1042.47 962.59 L 1044.85 960.42 L 1047.23 958.25 L 1049.59 956.09 L 1051.93 953.92 L 1054.26 951.76 L 1056.59 949.62 L 1058.93 947.51 L 1061.24 945.38 L 1063.52 943.25 L 1065.80 941.13 L 1068.10 939.05 L 1070.39 936.97 L 1072.67 934.90 L 1074.96 932.86 L 1077.23 930.83 L 1079.48 928.78 L 1081.71 926.73 L 1083.92 924.68 L 1086.11 922.62 L 1088.29 920.57 L 1090.47 918.54 L 1092.65 916.52 L 1094.81 914.50 L 1096.96 912.48 L 1099.11 910.49 L 1101.24 908.50 L 1103.37 906.51 L 1105.46 904.51 L 1107.54 902.51 L 1109.61 900.51 L 1111.68 898.53 L 1113.76 896.57 L 1115.82 894.62 L 1117.86 892.67 L 1119.90 890.72 L 1121.93 888.78 L 1123.97 886.86 L 1125.97 884.93 L 1127.96 883.00 L 1129.95 881.08 L 1131.93 879.17 L 1133.91 877.28 L 1135.88 875.39 L 1137.82 873.48 L 1139.71 871.55 L 1141.61 869.63 L 1143.47 867.71 L 1145.36 865.81 L 1147.23 863.91 L 1149.09 862.02 L 1150.93 860.13 L 1152.74 858.21 L 1154.53 856.30 L 1156.29 854.37 L 1158.04 852.45 L 1159.74 850.50 L 1161.42 848.54 L 1163.11 846.60 L 1164.78 844.67 L 1166.47 842.75 L 1168.14 840.84 L 1169.80 838.93 L 1171.45 837.03 L 1173.09 835.13 L 1174.71 833.23 L 1176.31 831.33 L 1177.94 829.47 L 1179.60 827.64 L 1181.27 825.84 L 1182.93 824.04 L 1184.60 822.25 L 1186.24 820.46 L 1187.86 818.67 L 1189.50 816.90 L 1191.10 815.11 L 1192.70 813.34" stroke="rgb(205,165,255)" stroke-opacity="0.718" stroke-width="1.24" />
  <path d="M 999.38 999.49 L 999.39 998.20 L 999.37 996.95 L 999.31 995.73 L 999.25 994.51 L 999.17 993.27 L 999.11 992.04 L 999.04 990.85 L 998.99 989.68 L 998.93 988.51 L 998.95 987.40 L 999.01 986.28 L 999.07 985.15 L 999.13 984.03 L 999.21 982.94 L 999.33 981.85 L 999.48 980.75 L 999.63 979.65 L 999.79 978.55 L 999.97 977.50 L 1000.16 976.37 L 1000.33 975.24 L 1000.49 974.10 L 1000.65 972.95 L 1000.87 971.89 L 1001.09 970.80 L 1001.33 969.70 L 1001.54 968.61 L 1001.78 967.55 L 1002.10 966.46 L 1002.39 965.37 L 1002.65 964.35 L 1002.91 963.33 L 1003.17 962.30 L 1003.44 961.24 L 1003.71 960.12 L 1003.98 959.00 L 1004.25 957.92 L 1004.49 956.88 L 1004.73 955.83 L 1004.94 954.77 L 1005.15 953.73 L 1005.34 952.70 L 1005.52 951.66 L 1005.69 950.68 L 1005.86 949.69 L 1006.03 948.70 L 1006.20 947.70 L 1006.41 946.72 L 1006.61 945.82 L 1006.80 944.92 L 1007.01 944.00 L 1007.25 943.09 L 1007.50 942.19 L 1007.74 941.27 L 1008.00 940.39 L 1008.27 939.49 L 1008.55 938.60 L 1008.84 937.70 L 1009.16 936.80 L 1009.45 935.91 L 1009.70 935.01 L 1009.97 934.12 L 1010.23 933.24 L 1010.48 932.40 L 1010.73 931.57 L 1010.98 930.74 L 1011.22 929.89 L 1011.50 929.03" stroke="rgb(205,165,255)" stroke-opacity="0.716" stroke-width="1.23" />
  <path d="M 999.08 1000.55 L 1002.30 1000.42 L 1005.50 1000.30 L 1008.69 1000.20 L 1011.88 1000.08 L 1015.05 999.92 L 1018.21 999.80 L 1021.35 999.64 L 1024.49 999.44 L 1027.61 999.27 L 1030.72 999.11 L 1033.81 998.94 L 1036.89 998.76 L 1039.96 998.62 L 1043.01 998.46 L 1046.04 998.32 L 1049.07 998.19 L 1052.08 998.03 L 1055.09 997.86 L 1058.07 997.67 L 1061.04 997.47 L 1064.01 997.31" stroke="rgb(205,165,255)" stroke-opacity="0.702" stroke-width="1.19" />
  <path d="M 946.50 992.59 L 943.11 992.99 L 939.73 993.45 L 936.38 993.92 L 933.05 994.39 L 929.73 994.92 L 926.42 995.43 L 923.11 995.84 L 919.82 996.27 L 916.55 996.70 L 913.29 997.12 L 910.04 997.53 L 906.81 997.94 L 903.60 998.34 L 900.40 998.74 L 897.20 999.13 L 894.02 999.54 L 890.87 999.97 L 887.72 1000.42 L 884.57 1000.80 L 881.45 1001.28 L 878.35 1001.79" stroke="rgb(140,255,190)" stroke-opacity="0.740" stroke-width="1.19" />
  <path d="M 1002.02 1002.68 L 998.57 1002.20 L 995.14 1001.69 L 991.75 1001.05 L 988.36 1000.43 L 984.99 999.81 L 981.64 999.21 L 978.29 998.62 L 974.96 998.02 L 971.64 997.46 L 968.33 996.92 L 965.04 996.34 L 961.76 995.82 L 958.49 995.30 L 955.24 994.75 L 951.99 994.26 L 948.75 993.77 L 945.53 993.26 L 942.32 992.77 L 939.12 992.27 L 935.93 991.79 L 932.77 991.24 L 929.62 990.67 L 926.50 990.05 L 923.39 989.45 L 920.29 988.80 L 917.21 988.16 L 914.15 987.50 L 911.10 986.84 L 908.06 986.18 L 905.04 985.54 L 902.02 984.90 L 899.02 984.26 L 896.04 983.61 L 893.07 982.98 L 890.10 982.34 L 887.15 981.72 L 884.19 981.15 L 881.25 980.59 L 878.31 980.03 L 875.39 979.47 L 872.48 978.94 L 869.58 978.38 L 866.70 977.84 L 863.83 977.25 L 860.97 976.66 L 858.13 976.06 L 855.29 975.49 L 852.47 974.91 L 849.64 974.39 L 846.83 973.87 L 844.03 973.36 L 841.24 972.84 L 838.46 972.32 L 835.69 971.83 L 832.92 971.35 L 830.17 970.92 L 827.42 970.51 L 824.68 970.08 L 821.96 969.64 L 819.25 969.20 L 816.55 968.79 L 813.85 968.39 L 811.16 967.99 L 808.48 967.65 L 805.81 967.32 L 803.14 966.98 L 800.49 966.64 L 797.86 966.29 L 795.22 965.99 L 792.59 965.73 L 789.98 965.43 L 787.38 965.14 L 784.78 964.84 L 782.20 964.55 L 779.63 964.25 L 777.07 963.96 L 774.52 963.67 L 771.98 963.38" stroke="rgb(140,255,190)" stroke-opacity="0.740" stroke-width="1.19" />
  <path d="M 999.19 998.07 L 996.90 997.88 L 994.60 997.76 L 992.32 997.64 L 990.04 997.54 L 987.78 997.46 L 985.52 997.27 L 983.27 997.14 L 981.03 996.92 L 978.80 996.72 L 976.59 996.41 L 974.39 996.09 L 972.21 995.68 L 970.03 995.36 L 967.87 995.03 L 965.71 994.70 L 963.55 994.45 L 961.40 994.20 L 959.24 993.99 L 957.10 993.69 L 954.96 993.51 L 952.83 993.31 L 950.72 993.07 L 948.61 992.83 L 946.50 992.59 L 944.41 992.34 L 942.33 992.09 L 940.24 991.88 L 938.16 991.73 L 936.09 991.54 L 934.03 991.31 L 931.98 991.13 L 929.93 990.94 L 927.90 990.73 L 925.87 990.45 L 923.86 990.19 L 921.86 989.91 L 919.85 989.82 L 917.84 989.77" stroke="rgb(140,255,190)" stroke-opacity="0.553" stroke-width="1.19" />
  <path d="M 999.95 999.32 L 996.52 999.28 L 993.11 999.22 L 989.72 999.17 L 986.33 999.09 L 982.97 998.96 L 979.62 998.82 L 976.29 998.66 L 972.96 998.45 L 969.66 998.23 L 966.36 998.02 L 963.09 997.74 L 959.83 997.45 L 956.58 997.15 L 953.34 996.86 L 950.12 996.56 L 946.91 996.24 L 943.71 996.01 L 940.53 995.78 L 937.35 995.59 L 934.18 995.38 L 931.02 995.25 L 927.88 995.13 L 924.75 994.95 L 921.63 994.77 L 918.53 994.56 L 915.43 994.36 L 912.35 994.16 L 909.29 993.97 L 906.23 993.81 L 903.18 993.68 L 900.15 993.54 L 897.13 993.41 L 894.12 993.29 L 891.12 993.16 L 888.14 992.98 L 885.17 992.81 L 882.21 992.62 L 879.26 992.47 L 876.32 992.30 L 873.40 992.13 L 870.49 991.97 L 867.58 991.86 L 864.69 991.73 L 861.81 991.62 L 858.95 991.51 L 856.09 991.35 L 853.26 991.12 L 850.43 990.89 L 847.62 990.67 L 844.82 990.40 L 842.03 990.11 L 839.25 989.85 L 836.49 989.55 L 833.73 989.32 L 830.98 989.07 L 828.25 988.82 L 825.52 988.57 L 822.81 988.34 L 820.10 988.16 L 817.40 987.98 L 814.72 987.80 L 812.04 987.62" stroke="rgb(140,255,190)" stroke-opacity="0.733" stroke-width="1.18" />
  <path d="M 856.76 975.45 L 853.97 974.87 L 851.21 974.26 L 848.42 973.64 L 845.65 973.02 L 842.91 972.43 L 840.19 971.86 L 837.48 971.26 L 834.81 970.55 L 832.15 969.86 L 829.51 969.17 L 826.88 968.48 L 824.26 967.80 L 821.65 967.10 L 819.07 966.40 L 816.51 965.67 L 813.97 964.95 L 811.43 964.22 L 808.91 963.51 L 806.39 962.85 L 803.88 962.18 L 801.36 961.50 L 798.93 960.78 L 796.53 960.06 L 794.13 959.35" stroke="rgb(140,255,190)" stroke-opacity="0.730" stroke-width="1.17" />
  <path d="M 807.09 1041.50 L 804.38 1042.58 L 801.68 1043.66 L 798.96 1044.72 L 796.24 1045.79 L 793.55 1046.88 L 790.86 1047.95 L 788.17 1049.02 L 785.49 1050.15 L 782.81 1051.25 L 780.20 1052.34 L 777.60 1053.45 L 775.02 1054.54 L 772.46 1055.63 L 769.89 1056.68 L 767.34 1057.72 L 764.73 1058.77 L 762.17 1059.84 L 759.62 1060.86 L 757.10 1061.85 L 754.58 1062.87 L 752.11 1063.94 L 749.65 1065.00 L 747.20 1066.05 L 744.73 1067.10 L 742.31 1068.16 L 739.91 1069.22 L 737.51 1070.25 L 735.07 1071.21 L 732.70 1072.24 L 730.35 1073.26 L 727.99 1074.22 L 725.64 1075.22 L 723.32 1076.25 L 720.97 1077.30 L 718.63 1078.33 L 716.31 1079.44 L 714.00 1080.55 L 711.69 1081.66 L 709.37 1082.66 L 707.03 1083.61 L 704.69 1084.54 L 702.37 1085.50 L 700.05 1086.47 L 697.75 1087.44 L 695.46 1088.41 L 693.17 1089.36 L 690.93 1090.32 L 688.69 1091.28 L 686.42 1092.22 L 684.15 1093.20 L 681.90 1094.18 L 679.65 1095.15 L 677.38 1096.11 L 675.18 1097.11 L 672.95 1098.09 L 670.69 1099.03 L 668.44 1099.93 L 666.19 1100.78 L 663.95 1101.66" stroke="rgb(140,255,190)" stroke-opacity="0.726" stroke-width="1.16" />
  <path d="M 1001.97 999.27 L 1004.16 996.78 L 1006.33 994.28 L 1008.45 991.76 L 1010.55 989.23 L 1012.69 986.74 L 1014.83 984.27 L 1016.96 981.81 L 1019.08 979.36 L 1021.20 976.92 L 1023.33 974.52 L 1025.42 972.09 L 1027.50 969.67 L 1029.57 967.27 L 1031.61 964.86 L 1033.65 962.47 L 1035.69 960.08 L 1037.70 957.70 L 1039.69 955.32 L 1041.67 952.94 L 1043.63 950.56 L 1045.58 948.18 L 1047.55 945.83 L 1049.51 943.50 L 1051.44 941.15 L 1053.36 938.81 L 1055.28 936.48 L 1057.19 934.16 L 1059.10 931.85 L 1061.00 929.56 L 1062.89 927.27 L 1064.77 924.97 L 1066.65 922.70 L 1068.52 920.43 L 1070.37 918.15 L 1072.24 915.91 L 1074.05 913.65 L 1075.89 911.40 L 1077.71 909.17 L 1079.50 906.92 L 1081.27 904.67 L 1083.03 902.43 L 1084.79 900.20 L 1086.57 898.00 L 1088.35 895.82" stroke="rgb(140,255,190)" stroke-opacity="0.724" stroke-width="1.15" />
  <path d="M 999.78 1000.73 L 997.67 1002.53 L 995.67 1004.38 L 993.70 1006.26 L 991.73 1008.13 L 989.72 1009.95 L 987.71 1011.76 L 985.67 1013.51 L 983.64 1015.26 L 981.62 1016.99 L 979.61 1018.72 L 977.61 1020.45 L 975.64 1022.24 L 973.64 1023.99 L 971.66 1025.76 L 969.68 1027.49 L 967.71 1029.23 L 965.71 1030.93 L 963.73 1032.63 L 961.82 1034.39 L 959.91 1036.15 L 958.01 1037.89 L 956.11 1039.64 L 954.18 1041.33 L 952.25 1043.02 L 950.33 1044.68 L 948.41 1046.31 L 946.54 1047.96 L 944.71 1049.61 L 942.88 1051.17" stroke="rgb(205,165,255)" stroke-opacity="0.481" stroke-width="1.15" />
  <path d="M 854.24 993.50 L 851.02 994.34 L 847.81 995.16 L 844.61 995.99 L 841.43 996.84 L 838.27 997.73 L 835.11 998.60 L 831.98 999.46 L 828.84 1000.28 L 825.72 1001.10 L 822.61 1001.94 L 819.51 1002.76 L 816.42 1003.56 L 813.34 1004.36 L 810.28 1005.16 L 807.20 1005.87 L 804.14 1006.59 L 801.10 1007.29 L 798.05 1007.97 L 795.02 1008.62 L 792.00 1009.28 L 788.98 1009.91 L 785.98 1010.52 L 782.98 1011.11 L 779.99 1011.67 L 777.01 1012.25 L 774.06 1012.87 L 771.12 1013.52 L 768.20 1014.16 L 765.28 1014.75 L 762.37 1015.34 L 759.47 1015.91" stroke="rgb(140,255,190)" stroke-opacity="0.723" stroke-width="1.15" />
  <path d="M 942.20 1006.08 L 939.10 1006.47 L 936.01 1006.87 L 932.94 1007.28 L 929.86 1007.59 L 926.82 1008.09 L 923.78 1008.54 L 920.76 1009.02 L 917.77 1009.57 L 914.79 1010.11 L 911.85 1010.71 L 908.92 1011.29 L 905.99 1011.84 L 903.11 1012.52 L 900.24 1013.20 L 897.38 1013.87 L 894.54 1014.55 L 891.71 1015.25 L 888.88 1015.94 L 886.06 1016.59 L 883.25 1017.24 L 880.45 1017.92 L 877.66 1018.59 L 874.87 1019.28 L 872.11 1020.00 L 869.37 1020.72 L 866.65 1021.47 L 863.94 1022.21 L 861.24 1022.87 L 858.56 1023.51 L 855.90 1024.15 L 853.25 1024.79 L 850.65 1025.58 L 848.08 1026.42 L 845.51 1027.20 L 842.93 1027.95 L 840.35 1028.71 L 837.79 1029.46 L 835.24 1030.20 L 832.69 1030.82 L 830.15 1031.44 L 827.60 1031.96 L 825.06 1032.42 L 822.52 1032.93 L 819.97 1033.40 L 817.42 1033.86 L 814.89 1034.26 L 812.35 1034.66 L 809.84 1035.07 L 807.35 1035.51 L 804.86 1035.95 L 802.40 1036.34 L 799.94 1036.74 L 797.50 1037.10 L 795.06 1037.46 L 792.63 1037.80 L 790.21 1038.15 L 787.79 1038.54 L 785.37 1038.88 L 782.95 1039.20 L 780.54 1039.51 L 778.13 1039.76 L 775.73 1040.02 L 773.34 1040.28 L 770.95 1040.49 L 768.57 1040.66 L 766.22 1040.89 L 763.91 1041.13 L 761.61 1041.33 L 759.34 1041.59 L 757.08 1041.87 L 754.81 1042.15 L 752.56 1042.45 L 750.31 1042.80 L 748.06 1043.16 L 745.83 1043.56 L 743.58 1043.92 L 741.35 1044.30 L 739.12 1044.66 L 736.89 1044.97 L 734.65 1045.28 L 732.42 1045.57 L 730.18 1045.79 L 727.96 1045.99 L 725.75 1046.21 L 723.55 1046.45 L 721.36 1046.71 L 719.17 1046.98 L 716.99 1047.25 L 714.82 1047.52 L 712.66 1047.79 L 710.50 1048.09 L 708.35 1048.34 L 706.23 1048.61 L 704.13 1048.88 L 702.05 1049.15 L 700.00 1049.43 L 697.96 1049.70 L 695.93 1049.98 L 693.90 1050.25 L 691.88 1050.50 L 689.88 1050.75 L 687.89 1051.02 L 685.90 1051.29 L 683.92 1051.56 L 681.95 1051.82 L 679.96 1052.08 L 677.99 1052.31 L 676.01 1052.58 L 674.05 1052.79 L 672.10 1053.04 L 670.12 1053.23 L 668.14 1053.42" stroke="rgb(140,255,190)" stroke-opacity="0.723" stroke-width="1.15" />
  <path d="M 870.06 1005.27 L 867.36 1006.79 L 864.66 1008.30 L 862.05 1009.94 L 859.46 1011.57 L 856.87 1013.18 L 854.26 1014.74 L 851.65 1016.28" stroke="rgb(140,255,190)" stroke-opacity="0.721" stroke-width="1.15" />
  <path d="M 997.20 996.62 L 994.12 996.17 L 991.05 995.72 L 987.99 995.28 L 984.96 994.76 L 981.94 994.26 L 978.96 993.65 L 975.98 993.16 L 973.00 992.66 L 970.03 992.20 L 967.07 991.73 L 964.13 991.29 L 961.18 990.91 L 958.26 990.53 L 955.34 990.20 L 952.44 989.88 L 949.56 989.54 L 946.69 989.17 L 943.83 988.82 L 940.99 988.44 L 938.16 988.06 L 935.35 987.72 L 932.55 987.34 L 929.75 986.97 L 926.97 986.60 L 924.20 986.32 L 921.43 986.03 L 918.67 985.82 L 915.92 985.62 L 913.19 985.49 L 910.45 985.41 L 907.73 985.32 L 905.02 985.32 L 902.33 985.37 L 899.65 985.44 L 896.99 985.49 L 894.34 985.55 L 891.72 985.63 L 889.09 985.62 L 886.47 985.59 L 883.86 985.55 L 881.26 985.47 L 878.67 985.41 L 876.09 985.35 L 873.52 985.33 L 870.95 985.28 L 868.39 985.19 L 865.85 985.10 L 863.32 985.00 L 860.80 984.90 L 858.27 984.78 L 855.76 984.67 L 853.24 984.56 L 850.73 984.44 L 848.23 984.35 L 845.73 984.38 L 843.25 984.39 L 840.77 984.38" stroke="rgb(140,255,190)" stroke-opacity="0.717" stroke-width="1.14" />
  <path d="M 999.33 1002.44 L 996.16 1002.17 L 993.00 1001.88 L 989.85 1001.59 L 986.71 1001.37 L 983.58 1001.15 L 980.47 1000.92 L 977.37 1000.69 L 974.28 1000.42 L 971.21 1000.24 L 968.15 1000.01 L 965.10 999.76 L 962.06 999.52 L 959.05 999.26 L 956.04 998.96 L 953.05 998.69 L 950.06 998.43 L 947.09 998.21 L 944.13 997.99 L 941.18 997.77 L 938.25 997.47 L 935.33 997.19 L 932.42 996.97 L 929.53 996.66 L 926.65 996.36 L 923.78 996.07 L 920.92 995.76 L 918.09 995.38 L 915.27 995.04 L 912.46 994.72 L 909.67 994.38 L 906.87 994.11 L 904.09 993.84 L 901.33 993.56 L 898.58 993.23 L 895.84 992.92 L 893.10 992.58 L 890.38 992.24 L 887.66 991.92 L 884.96 991.59 L 882.28 991.21 L 879.61 990.82 L 876.95 990.46 L 874.29 990.11 L 871.66 989.70 L 869.03 989.31 L 866.40 988.93 L 863.79 988.54 L 861.20 988.13" stroke="rgb(140,255,190)" stroke-opacity="0.715" stroke-width="1.13" />
  <path d="M 814.71 1038.50 L 812.03 1040.17 L 809.44 1041.99 L 806.85 1043.77 L 804.25 1045.53 L 801.65 1047.26 L 799.09 1049.02 L 796.57 1050.83 L 794.06 1052.63 L 791.56 1054.42 L 789.07 1056.20 L 786.61 1058.00 L 784.16 1059.80 L 781.72 1061.58 L 779.33 1063.41 L 777.00 1065.31 L 774.63 1067.13 L 772.26 1068.93 L 769.89 1070.71 L 767.57 1072.53 L 765.25 1074.34 L 762.95 1076.15 L 760.66 1077.96 L 758.39 1079.77 L 756.06 1081.49 L 753.76 1083.22 L 751.46 1084.95 L 749.22 1086.73 L 747.01 1088.51 L 744.79 1090.28 L 742.58 1092.05 L 740.38 1093.80 L 738.19 1095.56" stroke="rgb(140,255,190)" stroke-opacity="0.714" stroke-width="1.13" />
  <path d="M 999.33 1000.32 L 996.16 999.97 L 993.01 999.63 L 989.87 999.35 L 986.74 999.07 L 983.62 998.78 L 980.52 998.46 L 977.43 998.12 L 974.36 997.81 L 971.29 997.56 L 968.23 997.30 L 965.19 997.06 L 962.15 996.86 L 959.12 996.66 L 956.11 996.41 L 953.11 996.13 L 950.12 995.86 L 947.14 995.63 L 944.17 995.42 L 941.21 995.25 L 938.27 995.08 L 935.34 994.90 L 932.41 994.70 L 929.50 994.54 L 926.61 994.41 L 923.72 994.28 L 920.84 994.12 L 917.97 994.01 L 915.11 993.94 L 912.26 993.82" stroke="rgb(140,255,190)" stroke-opacity="0.714" stroke-width="1.13" />
  <path d="M 1000.13 999.47 L 996.96 999.71 L 993.81 999.93 L 990.68 1000.26 L 987.56 1000.63 L 984.47 1001.00 L 981.38 1001.37 L 978.30 1001.76 L 975.23 1002.13 L 972.17 1002.50 L 969.13 1002.79 L 966.09 1003.11 L 963.06 1003.50 L 960.06 1003.89 L 957.06 1004.33 L 954.07 1004.72 L 951.08 1005.05 L 948.11 1005.40 L 945.15 1005.75 L 942.20 1006.08 L 939.27 1006.40 L 936.35 1006.74 L 933.45 1007.07 L 930.56 1007.40 L 927.69 1007.76 L 924.83 1008.12 L 921.97 1008.51 L 919.14 1008.98 L 916.32 1009.47 L 913.51 1009.97 L 910.71 1010.46 L 907.91 1010.92 L 905.12 1011.33 L 902.34 1011.72 L 899.56 1012.11 L 896.80 1012.50 L 894.06 1012.96 L 891.33 1013.39 L 888.61 1013.83 L 885.91 1014.31 L 883.21 1014.76 L 880.53 1015.24 L 877.85 1015.62 L 875.16 1015.93 L 872.49 1016.27 L 869.84 1016.62 L 867.19 1016.97 L 864.56 1017.31 L 861.93 1017.63 L 859.31 1017.91" stroke="rgb(140,255,190)" stroke-opacity="0.714" stroke-width="1.13" />
  <path d="M 999.02 997.45 L 996.63 997.55 L 994.25 997.64 L 991.87 997.79 L 989.52 997.88 L 987.20 997.87 L 984.86 997.86 L 982.54 997.83 L 980.25 997.73 L 977.96 997.65 L 975.68 997.52 L 973.40 997.37 L 971.14 997.18 L 968.90 996.95 L 966.68 996.71 L 964.46 996.43 L 962.26 996.15 L 960.04 995.85 L 957.84 995.54 L 955.65 995.23 L 953.46 995.03 L 951.28 994.84 L 949.10 994.64 L 946.94 994.42 L 944.80 994.19 L 942.69 993.91 L 940.61 993.67 L 938.53 993.44 L 936.46 993.21 L 934.39 993.04 L 932.32 992.92 L 930.28 992.65 L 928.27 992.45 L 926.27 992.24 L 924.27 991.97 L 922.31 991.65 L 920.39 991.30 L 918.48 990.93 L 916.58 990.55 L 914.67 990.21 L 912.77 989.87 L 910.92 989.59 L 909.03 989.33 L 907.15 989.02 L 905.27 988.71 L 903.41 988.42 L 901.55 988.16 L 899.69 987.91 L 897.82 987.70 L 895.95 987.49 L 894.06 987.22 L 892.17 986.99 L 890.30 986.70 L 888.45 986.46 L 886.59 986.24 L 884.72 986.09 L 882.88 985.91 L 881.07 985.80 L 879.24 985.79 L 877.44 985.67 L 875.64 985.57 L 873.86 985.52 L 872.05 985.46 L 870.25 985.37 L 868.45 985.25 L 866.69 985.08 L 864.91 984.96 L 863.13 984.78 L 861.37 984.60 L 859.61 984.44 L 857.86 984.26 L 856.12 984.09 L 854.38 983.90 L 852.68 983.71 L 850.98 983.53 L 849.29 983.34 L 847.63 983.09 L 846.01 982.91 L 844.40 982.74" stroke="rgb(140,255,190)" stroke-opacity="0.535" stroke-width="1.13" />
  <path d="M 1999.83 1055.91 L 1996.70 1055.47 L 1994.04 1054.76 L 1990.51 1054.97 L 1987.93 1054.66 L 1984.57 1055.00 L 1981.70 1054.42 L 1978.76 1054.38 L 1976.05 1054.26 L 1973.04 1053.67 L 1969.80 1053.74 L 1967.17 1053.52 L 1964.13 1053.68 L 1960.78 1053.41 L 1958.00 1052.96 L 1955.46 1052.92 L 1952.03 1052.86 L 1949.21 1052.44 L 1946.16 1052.42 L 1943.02 1052.42 L 1939.91 1052.14 L 1937.32 1052.08 L 1934.30 1052.00 L 1931.19 1051.88 L 1928.49 1051.13 L 1925.16 1051.32 L 1922.32 1050.97 L 1918.95 1051.14 L 1916.14 1051.21 L 1913.20 1050.74 L 1910.75 1050.31 L 1907.08 1050.27 L 1904.48 1049.80 L 1901.11 1049.68 L 1898.22 1049.73 L 1895.13 1049.58 L 1892.06 1049.09 L 1889.62 1049.34 L 1885.94 1048.51 L 1882.94 1048.65 L 1880.28 1048.93 L 1877.41 1048.53 L 1874.22 1048.23 L 1871.59 1048.42 L 1868.72 1048.29 L 1865.72 1047.88 L 1862.06 1047.86 L 1859.26 1047.96 L 1856.25 1047.49 L 1852.96 1047.35 L 1849.98 1046.67 L 1846.97 1047.25 L 1844.32 1046.62 L 1841.10 1046.53 L 1837.84 1046.52 L 1835.32 1046.43 L 1832.70 1046.28 L 1829.31 1045.96 L 1826.27 1045.92 L 1823.01 1045.54 L 1820.25 1045.64 L 1817.27 1045.44 L 1814.14 1045.20 L 1810.99 1044.97 L 1808.35 1044.85 L 1805.23 1044.35 L 1802.64 1044.35 L 1799.43 1044.56 L 1796.83 1043.78 L 1792.99 1043.99 L 1789.99 1044.03 L 1787.30 1044.18 L 1784.17 1043.73 L 1781.27 1042.97 L 1778.71 1043.10 L 1775.50 1043.09 L 1772.19 1042.58 L 1769.28 1042.50 L 1766.10 1042.66 L 1763.21 1041.96 L 1760.59 1042.53 L 1757.16 1042.00 L 1754.45 1041.98 L 1751.73 1041.95 L 1748.52 1041.31 L 1745.35 1041.60 L 1742.83 1040.78 L 1739.14 1041.04 L 1736.05 1040.45 L 1733.47 1040.27 L 1730.57 1040.46 L 1727.20 1040.40 L 1724.07 1040.06 L 1721.10 1039.73 L 1718.56 1039.97 L 1715.62 1039.95 L 1712.85 1039.29 L 1709.56 1039.41 L 1706.37 1039.31 L 1703.55 1039.07 L 1700.17 1039.18 L 1697.54 1038.83 L 1694.51 1038.58 L 1691.39 1038.33 L 1688.56 1037.85 L 1685.53 1037.91 L 1682.58 1038.03 L 1679.61 1038.09 L 1676.75 1037.36 L 1674.07 1037.03 L 1670.35 1037.06 L 1667.28 1036.68 L 1664.64 1036.49 L 1661.31 1036.42 L 1658.47 1036.41 L 1655.71 1036.40 L 1652.95 1036.47 L 1649.06 1035.87 L 1646.48 1035.47 L 1643.64 1035.65 L 1640.54 1035.64 L 1637.68 1035.30 L 1634.38 1035.01 L 1631.37 1035.19 L 1628.80 1034.88 L 1625.53 1034.90 L 1622.30 1034.55 L 1619.50 1034.21 L 1616.96 1034.16 L 1613.47 1034.28 L 1610.31 1034.26 L 1607.30 1033.53 L 1604.80 1033.04 L 1601.49 1033.45 L 1599.18 1033.05 L 1595.60 1032.75 L 1592.95 1032.62 L 1589.73 1032.41 L 1586.27 1032.06 L 1583.51 1031.66 L 1580.74 1032.14 L 1577.40 1032.40 L 1574.73 1031.88 L 1571.54 1031.70 L 1568.95 1031.04 L 1565.75 1031.19 L 1562.67 1031.43 L 1559.60 1030.96 L 1556.94 1030.84 L 1553.72 1030.66 L 1550.46 1030.36 L 1547.71 1030.50 L 1544.72 1030.16 L 1541.78 1029.94 L 1538.71 1029.88 L 1535.92 1029.41 L 1532.20 1029.52 L 1529.70 1029.22 L 1526.83 1029.45 L 1523.71 1028.94 L 1520.55 1028.60 L 1517.72 1028.60 L 1514.64 1028.31 L 1511.88 1028.63 L 1508.52 1028.10 L 1505.78 1027.89 L 1502.69 1027.39 L 1499.66 1027.62 L 1496.39 1027.49 L 1493.99 1027.25 L 1490.53 1027.09 L 1487.99 1027.04 L 1484.76 1026.72 L 1481.77 1026.79 L 1478.87 1026.65 L 1475.79 1026.24 L 1472.71 1025.84 L 1469.76 1026.25 L 1467.15 1025.63 L 1463.66 1025.55 L 1460.98 1025.62 L 1458.08 1025.59 L 1454.74 1024.97 L 1451.88 1024.92 L 1449.14 1025.01 L 1445.98 1024.37 L 1443.14 1024.29 L 1440.03 1024.55 L 1437.16 1024.05 L 1434.11 1024.10 L 1430.63 1023.87 L 1427.98 1023.57 L 1424.78 1023.58 L 1421.95 1023.09 L 1418.62 1023.10 L 1415.81 1023.31 L 1413.19 1023.25 L 1409.76 1022.59 L 1406.70 1022.85 L 1403.75 1022.13 L 1401.05 1021.94 L 1397.74 1022.03 L 1395.14 1021.72 L 1391.66 1021.91 L 1388.98 1021.74 L 1385.87 1021.47 L 1383.12 1021.20 L 1380.03 1020.80 L 1376.67 1021.02 L 1374.36 1020.60 L 1370.71 1020.64 L 1368.08 1020.32 L 1364.49 1020.73 L 1362.04 1019.93 L 1359.26 1019.95 L 1355.82 1019.92 L 1353.10 1019.57 L 1350.46 1019.41 L 1347.01 1019.36 L 1343.61 1019.11 L 1340.91 1019.10 L 1338.04 1018.86 L 1334.89 1018.77 L 1332.06 1018.49 L 1329.20 1018.32 L 1325.98 1018.14 L 1322.69 1017.49 L 1320.46 1017.57 L 1316.73 1017.55 L 1314.38 1017.20 L 1311.48 1017.14 L 1307.80 1017.05 L 1305.18 1016.60 L 1302.25 1016.78 L 1299.15 1016.71 L 1295.74 1016.29 L 1293.49 1016.09 L 1290.29 1015.75 L 1287.58 1015.74 L 1284.10 1015.54 L 1281.15 1015.69 L 1278.30 1015.59 L 1275.05 1014.87 L 1271.90 1014.98 L 1268.86 1015.01 L 1266.01 1014.55 L 1262.82 1014.63 L 1259.87 1014.53 L 1257.38 1014.26 L 1254.37 1014.19 L 1251.48 1014.26 L 1247.82 1013.64 L 1245.14 1013.38 L 1242.40 1013.74 L 1238.87 1012.93 L 1236.15 1012.88 L 1233.23 1012.83 L 1230.41 1012.72 L 1227.19 1012.51 L 1224.11 1012.69 L 1221.01 1012.44 L 1218.34 1012.58 L 1215.50 1011.92 L 1212.15 1011.83 L 1208.83 1011.67 L 1206.28 1011.23 L 1203.48 1010.68 L 1200.38 1011.15 L 1197.50 1011.04 L 1194.11 1010.70 L 1191.30 1010.99 L 1188.30 1010.55 L 1185.06 1010.47 L 1182.32 1010.05 L 1179.15 1010.03 L 1176.09 1009.77 L 1173.55 1009.48 L 1170.08 1009.59 L 1167.62 1009.30 L 1164.56 1008.99 L 1160.84 1009.06 L 1158.20 1008.87 L 1155.11 1008.40 L 1152.34 1008.29 L 1149.16 1008.47 L 1146.06 1008.15 L 1143.04 1008.11 L 1140.28 1007.72 L 1137.12 1007.59 L 1134.59 1007.30 L 1131.29 1007.26 L 1128.42 1007.20 L 1125.44 1006.70 L 1122.15 1006.89 L 1119.74 1006.70 L 1116.23 1006.40 L 1113.53 1006.23 L 1110.21 1006.49 L 1107.26 1006.57 L 1104.45 1005.83 L 1101.48 1005.66 L 1098.62 1005.18 L 1095.42 1005.15 L 1092.53 1005.29 L 1089.13 1005.23 L 1086.54 1004.65 L 1083.02 1005.06 L 1080.59 1004.18 L 1077.33 1004.39 L 1074.10 1004.35 L 1071.86 1003.92 L 1068.16 1003.97 L 1065.43 1003.77 L 1062.63 1003.61 L 1059.67 1003.01 L 1056.45 1003.11 L 1053.93 1003.24 L 1050.60 1003.21 L 1047.90 1002.47 L 1044.34 1002.31 L 1041.64 1002.09 L 1038.51 1001.98 L 1035.71 1002.39 L 1032.59 1001.58 L 1029.52 1001.49 L 1026.15 1001.47 L 1023.63 1001.14 L 1020.26 1001.47 L 1017.33 1000.69 L 1014.78 1000.81 L 1011.66 1000.37 L 1008.61 1000.68 L 1005.93 1000.20 L 1002.53 1000.02 L 1000.00 1000.00 L 997.00 999.83 L 994.01 999.69 L 991.01 999.53 L 988.02 999.36 L 985.02 999.19 L 982.03 999.03 L 979.03 998.83 L 976.04 998.62 L 973.05 998.41 L 970.06 998.20 L 967.06 997.99 L 964.07 997.77 L 961.08 997.55 L 958.09 997.32 L 955.10 997.08 L 952.11 996.83 L 949.12 996.58 L 946.13 996.32 L 943.14 996.04 L 940.15 995.77 L 937.17 995.49 L 934.18 995.23 L 931.19 994.97 L 928.20 994.73 L 925.21 994.47 L 922.22 994.24 L 919.23 994.03 L 916.23 993.81 L 913.24 993.60 L 910.25 993.40 L 907.26 993.20 L 904.26 993.01 L 901.27 992.81 L 898.28 992.59 L 895.28 992.37 L 892.29 992.18 L 889.30 991.96 L 886.31 991.76 L 883.31 991.55 L 880.32 991.33 L 877.33 991.11 L 874.34 990.89 L 871.35 990.64 L 868.36 990.40 L 865.37 990.13 L 862.38 989.88 L 859.39 989.63 L 856.40 989.39 L 853.41 989.14 L 850.42 988.86 L 847.43 988.61 L 844.45 988.35 L 841.46 988.09 L 838.47 987.86 L 835.47 987.64 L 832.48 987.43 L 829.49 987.20 L 826.50 986.97 L 823.51 986.75 L 820.51 986.53 L 817.52 986.31 L 814.53 986.09 L 811.54 985.87 L 808.55 985.67 L 805.55 985.48 L 802.56 985.30 L 799.56 985.10 L 796.57 984.91 L 793.58 984.72 L 790.58 984.54 L 787.59 984.36 L 784.59 984.18 L 781.60 983.99 L 778.60 983.82 L 775.61 983.66 L 772.61 983.46 L 769.62 983.25 L 766.63 983.04 L 763.64 982.83 L 760.64 982.61 L 757.65 982.38 L 754.66 982.15 L 751.67 981.91 L 748.68 981.67 L 745.69 981.43 L 742.70 981.20 L 739.71 980.96 L 736.72 980.76 L 733.72 980.56 L 730.73 980.39 L 727.73 980.22 L 724.74 980.06 L 721.74 979.94 L 718.74 979.81 L 715.75 979.65 L 712.75 979.47 L 709.75 979.33 L 706.76 979.16 L 703.76 979.01 L 700.77 978.84 L 697.77 978.67 L 694.78 978.50 L 691.78 978.34 L 688.79 978.19 L 685.79 978.04 L 682.79 977.89 L 679.80 977.73 L 676.80 977.54 L 673.81 977.34 L 670.81 977.17 L 667.82 977.00 L 664.82 976.83 L 661.83 976.67 L 658.83 976.47 L 655.84 976.29 L 652.85 976.11 L 649.85 975.90 L 646.86 975.69 L 643.87 975.48 L 640.87 975.27 L 637.88 975.05 L 634.89 974.85 L 631.90 974.64 L 628.90 974.45 L 625.91 974.28 L 622.91 974.09 L 619.92 973.87 L 616.93 973.67 L 613.94 973.46 L 610.95 973.22 L 607.96 972.97 L 604.96 972.74 L 601.97 972.51 L 598.98 972.27 L 595.99 972.04 L 593.00 971.80 L 590.01 971.57 L 587.02 971.36 L 584.03 971.13 L 581.03 970.92 L 578.04 970.74 L 575.04 970.57 L 572.05 970.41 L 569.05 970.24 L 566.06 970.08 L 563.06 969.91 L 560.07 969.76 L 557.07 969.59 L 554.08 969.42 L 551.08 969.23 L 548.09 969.05 L 545.09 968.86 L 542.10 968.64 L 539.11 968.42 L 536.12 968.20 L 533.12 967.99 L 530.13 967.79 L 527.14 967.58 L 524.15 967.34 L 521.16 967.10 L 518.17 966.88 L 515.17 966.68 L 512.18 966.48 L 509.19 966.28 L 506.19 966.12 L 503.19 965.97 L 500.20 965.82 L 497.20 965.65 L 494.21 965.47 L 491.21 965.30 L 488.22 965.13 L 485.22 964.95 L 482.23 964.77 L 479.23 964.61 L 476.24 964.45 L 473.24 964.31 L 470.24 964.17 L 467.25 964.05 L 464.25 963.95 L 461.25 963.84 L 458.25 963.73 L 455.25 963.62 L 452.26 963.49 L 449.26 963.38 L 446.26 963.26 L 443.26 963.15 L 440.27 963.03 L 437.27 962.92 L 434.27 962.78 L 431.27 962.65 L 428.28 962.52 L 425.28 962.38 L 422.28 962.25 L 419.29 962.08 L 416.29 961.91 L 413.30 961.74 L 410.30 961.57 L 407.31 961.41 L 404.31 961.24 L 401.32 961.07 L 398.32 960.91 L 395.32 960.75 L 392.33 960.59 L 389.33 960.41 L 386.34 960.25 L 383.34 960.09 L 380.35 959.91 L 377.35 959.74 L 374.36 959.58 L 371.36 959.42 L 368.37 959.24 L 365.37 959.08 L 362.37 958.93 L 359.38 958.78 L 356.38 958.66 L 353.38 958.52 L 350.39 958.39 L 347.39 958.29 L 344.39 958.18 L 341.39 958.07 L 338.40 957.94 L 335.40 957.81 L 332.40 957.70 L 329.40 957.59 L 326.40 957.49 L 323.41 957.37 L 320.41 957.25 L 317.41 957.14 L 314.41 957.03 L 311.41 956.92 L 308.42 956.81 L 305.42 956.69 L 302.42 956.60 L 299.42 956.51 L 296.42 956.45 L 293.42 956.39 L 290.42 956.36 L 287.42 956.33 L 284.42 956.34 L 281.42 956.33 L 278.42 956.32 L 275.42 956.29 L 272.42 956.24 L 269.42 956.17 L 266.43 956.08 L 263.43 956.00 L 260.43 955.92 L 257.43 955.83 L 254.43 955.72 L 251.43 955.61 L 248.44 955.49 L 245.44 955.37 L 242.44 955.25 L 239.44 955.11 L 236.45 954.98 L 233.45 954.88 L 230.45 954.76 L 227.45 954.64 L 224.46 954.51 L 221.46 954.34 L 218.46 954.19 L 215.47 954.02 L 212.47 953.87 L 209.48 953.70 L 206.48 953.52 L 203.49 953.34 L 200.50 953.14 L 197.50 952.97 L 194.50 952.80 L 191.51 952.64 L 188.51 952.47 L 185.52 952.30 L 182.52 952.13 L 179.53 951.98 L 176.53 951.82 L 173.54 951.65 L 170.54 951.48 L 167.55 951.31 L 164.55 951.12 L 161.56 950.94 L 158.56 950.75 L 155.57 950.56 L 152.58 950.38 L 149.58 950.19 L 146.59 950.02 L 143.59 949.84 L 140.60 949.66 L 137.60 949.48 L 134.61 949.31 L 131.61 949.15 L 128.62 948.99 L 125.62 948.82 L 122.63 948.65 L 119.63 948.48 L 116.63 948.31 L 113.64 948.14 L 110.64 947.98 L 107.65 947.80 L 104.65 947.62 L 101.66 947.42 L 98.67 947.22 L 95.67 947.03 L 92.68 946.86 L 89.68 946.68 L 86.69 946.50 L 83.70 946.32 L 80.70 946.15 L 77.70 945.98 L 74.71 945.81 L 71.71 945.64 L 68.72 945.46 L 65.73 945.28 L 62.73 945.10 L 59.74 944.90 L 56.74 944.70 L 53.75 944.51 L 50.76 944.32 L 47.76 944.12 L 44.77 943.93 L 41.77 943.74 L 38.78 943.53 L 35.79 943.34 L 32.79 943.15 L 29.80 942.96 L 26.81 942.78 L 23.81 942.60 L 20.82 942.40 L 17.82 942.20 L 14.83 941.99 L 11.84 941.78 L 8.85 941.56 L 5.86 941.32 L 2.86 941.12 L -0.13 940.89 L -3.12 940.67 L -6.11 940.43 L -9.10 940.18 L -12.09 939.94 L -15.08 939.68 L -18.07 939.44 L -21.06 939.21" stroke="rgb(245,245,245)" stroke-opacity="0.713" stroke-width="1.13" />
  <path d="M 997.72 998.94 L 994.62 998.71 L 991.54 998.46 L 988.47 998.25 L 985.41 998.03 L 982.37 997.85 L 979.33 997.68 L 976.31 997.48 L 973.30 997.28 L 970.30 997.10 L 967.32 996.88 L 964.33 996.75 L 961.36 996.64 L 958.41 996.51 L 955.46 996.40 L 952.52 996.30 L 949.59 996.22 L 946.68 996.24 L 943.77 996.34 L 940.88 996.42 L 938.00 996.46 L 935.13 996.38 L 932.27 996.36 L 929.42 996.37 L 926.58 996.37 L 923.76 996.37 L 920.95 996.24 L 918.15 996.12 L 915.36 995.97 L 912.58 995.80 L 909.82 995.64 L 907.06 995.48 L 904.32 995.26 L 901.60 995.04 L 898.88 994.84 L 896.18 994.61 L 893.48 994.42 L 890.80 994.24 L 888.12 994.08 L 885.46 993.93 L 882.80 993.86 L 880.15 993.76 L 877.51 993.70 L 874.89 993.63 L 872.27 993.53 L 869.66 993.48 L 867.07 993.49 L 864.48 993.50 L 861.91 993.51 L 859.34 993.46 L 856.78 993.44 L 854.24 993.50 L 851.70 993.56 L 849.18 993.61 L 846.66 993.65 L 844.16 993.70 L 841.66 993.78 L 839.18 993.85 L 836.71 993.93 L 834.24 994.02 L 831.79 994.07 L 829.34 994.14" stroke="rgb(140,255,190)" stroke-opacity="0.712" stroke-width="1.12" />
  <path d="M 960.06 1003.89 L 957.38 1002.95 L 954.75 1001.96 L 952.13 1000.97 L 949.52 999.99 L 946.90 999.00 L 944.30 998.02 L 941.71 997.02 L 939.12 996.07 L 936.54 995.13 L 933.93 994.26 L 931.34 993.38 L 928.71 992.64 L 926.10 991.91 L 923.53 991.16 L 920.98 990.42 L 918.43 989.74 L 915.86 989.12 L 913.30 988.50 L 910.75 987.84 L 908.20 987.19 L 905.67 986.52 L 903.16 985.85 L 900.64 985.16 L 898.14 984.46 L 895.64 983.81 L 893.18 983.12 L 890.74 982.49 L 888.32 981.86 L 885.93 981.16 L 883.53 980.44 L 881.12 979.74 L 878.78 979.05 L 876.44 978.39 L 874.12 977.75 L 871.83 977.10 L 869.56 976.49 L 867.25 975.87 L 864.95 975.25 L 862.66 974.64 L 860.42 973.93 L 858.24 973.17 L 856.07 972.39 L 853.93 971.60 L 851.83 970.81 L 849.77 970.06 L 847.71 969.36 L 845.71 968.71 L 843.71 968.05 L 841.68 967.44 L 839.66 966.83" stroke="rgb(140,255,190)" stroke-opacity="0.533" stroke-width="1.12" />
  <path d="M 998.89 1001.75 L 996.45 1001.37 L 994.01 1001.03 L 991.58 1000.68 L 989.18 1000.28 L 986.79 999.81 L 984.40 999.40 L 982.00 999.07 L 979.61 998.76 L 977.24 998.43 L 974.87 998.15 L 972.52 997.81 L 970.19 997.43 L 967.88 996.93 L 965.58 996.45 L 963.29 996.00 L 961.02 995.46 L 958.79 994.82 L 956.56 994.19 L 954.35 993.55" stroke="rgb(140,255,190)" stroke-opacity="0.533" stroke-width="1.12" />
  <path d="M 926.65 996.36 L 923.86 995.40 L 921.12 994.34 L 918.39 993.28 L 915.68 992.21 L 912.97 991.17 L 910.32 990.03 L 907.68 988.89 L 905.05 987.75 L 902.46 986.55 L 899.91 985.28 L 897.39 983.99 L 894.88 982.70 L 892.38 981.42 L 889.90 980.13 L 887.42 978.86 L 884.97 977.58 L 882.55 976.27 L 880.15 974.96 L 877.79 973.57 L 875.46 972.14 L 873.14 970.72 L 870.84 969.28 L 868.50 967.92 L 866.19 966.54 L 863.80 965.32" stroke="rgb(140,255,190)" stroke-opacity="0.531" stroke-width="1.11" />
  <path d="M 834.93 955.78 L 832.95 954.25 L 830.98 952.72 L 828.91 951.33 L 826.82 949.98 L 824.67 948.79 L 822.43 947.77 L 820.22 946.72 L 818.05 945.60 L 815.83 944.61 L 813.61 943.65 L 811.37 942.75 L 809.22 941.69 L 806.99 940.85 L 804.74 940.08 L 802.50 939.31 L 800.22 938.69 L 797.95 938.08 L 795.67 937.51 L 793.41 936.94 L 791.19 936.30 L 788.98 935.67 L 786.76 935.06 L 784.56 934.38 L 782.41 933.62 L 780.25 932.90 L 778.12 932.10 L 776.01 931.32 L 773.89 930.56 L 771.78 929.80 L 769.68 929.01 L 767.57 928.26 L 765.48 927.52 L 763.39 926.80 L 761.31 926.08 L 759.22 925.40" stroke="rgb(140,255,190)" stroke-opacity="0.531" stroke-width="1.11" />
  <path d="M 882.55 976.27 L 880.06 975.19 L 877.58 974.14 L 875.08 973.08 L 872.65 972.08 L 870.31 971.00 L 868.02 969.83 L 865.83 968.53 L 863.64 967.22 L 861.48 966.07 L 859.14 965.10" stroke="rgb(140,255,190)" stroke-opacity="0.530" stroke-width="1.11" />
  <path d="M 943.77 996.34 L 941.00 996.89 L 938.22 997.29 L 935.45 997.68 L 932.69 998.11 L 929.97 998.56 L 927.24 999.01 L 924.51 999.43 L 921.84 999.96 L 919.15 1000.44 L 916.48 1000.94 L 913.82 1001.45 L 911.17 1001.97 L 908.53 1002.50 L 905.91 1002.99 L 903.29 1003.42 L 900.68 1003.81 L 898.07 1004.20 L 895.47 1004.66 L 892.89 1005.10 L 890.31 1005.55 L 887.75 1006.07 L 885.20 1006.62 L 882.66 1007.18 L 880.12 1007.72 L 877.58 1008.20 L 875.06 1008.69 L 872.55 1009.18 L 870.06 1009.68 L 867.55 1010.11 L 865.06 1010.52 L 862.57 1010.91 L 860.10 1011.30 L 857.63 1011.69 L 855.16 1012.00 L 852.70 1012.31 L 850.25 1012.62 L 847.82 1012.97" stroke="rgb(140,255,190)" stroke-opacity="0.530" stroke-width="1.11" />
  <path d="M 940.53 995.78 L 937.91 994.58 L 935.29 993.38 L 932.66 992.28 L 930.01 991.23 L 927.37 990.21 L 924.76 989.15 L 922.17 988.17 L 919.59 987.19 L 917.01 986.23 L 914.46 985.23 L 911.92 984.29 L 909.38 983.35 L 906.85 982.41 L 904.32 981.51 L 901.80 980.59 L 899.27 979.71 L 896.78 978.77 L 894.30 977.78 L 891.85 976.78 L 889.40 975.80 L 886.97 974.78 L 884.58 973.68 L 882.24 972.53 L 879.93 971.30 L 877.61 970.12 L 875.32 968.92 L 873.02 967.74 L 870.72 966.57 L 868.44 965.38 L 866.17 964.23 L 863.92 963.08 L 861.66 961.97 L 859.36 960.93 L 857.01 960.02 L 854.69 959.09 L 852.37 958.16 L 850.08 957.20 L 847.79 956.27 L 845.51 955.33 L 843.26 954.40 L 841.01 953.52 L 838.75 952.68 L 836.52 951.80 L 834.30 950.91 L 832.08 950.06 L 829.86 949.21 L 827.66 948.36 L 825.44 947.55 L 823.21 946.83 L 820.99 946.13 L 818.81 945.34 L 816.63 944.54 L 814.45 943.77 L 812.31 942.94 L 810.23 942.03 L 808.15 941.12 L 806.07 940.25 L 803.98 939.38 L 801.89 938.53 L 799.85 937.60 L 797.79 936.71 L 795.74 935.82 L 793.65 935.04 L 791.58 934.24 L 789.52 933.45 L 787.47 932.63 L 785.44 931.80" stroke="rgb(140,255,190)" stroke-opacity="0.529" stroke-width="1.11" />
  <path d="M 1004.40 1000.31 L 1001.60 1000.30 L 998.82 1000.31 L 996.04 1000.30 L 993.28 1000.33 L 990.53 1000.36 L 987.79 1000.39 L 985.06 1000.46 L 982.34 1000.55 L 979.63 1000.52 L 976.94 1000.66 L 974.26 1000.82 L 971.60 1001.01 L 968.95 1001.13 L 966.30 1001.25 L 963.67 1001.38 L 961.06 1001.52 L 958.45 1001.67 L 955.86 1001.82 L 953.28 1001.97 L 950.70 1002.15 L 948.14 1002.35 L 945.59 1002.54 L 943.05 1002.72 L 940.52 1002.87 L 938.00 1003.00 L 935.49 1003.06 L 932.99 1003.13 L 930.51 1003.13 L 928.05 1003.16 L 925.60 1003.19 L 923.15 1003.23 L 920.72 1003.23 L 918.32 1003.24 L 915.93 1003.25 L 913.54 1003.23 L 911.17 1003.18 L 908.81 1003.12 L 906.46 1003.06 L 904.14 1003.03 L 901.86 1002.92 L 899.59 1002.84 L 897.33 1002.76 L 895.06 1002.67 L 892.82 1002.61 L 890.58 1002.56 L 888.34 1002.46" stroke="rgb(140,255,190)" stroke-opacity="0.528" stroke-width="1.10" />
  <path d="M 932.42 996.97 L 929.75 995.99 L 927.11 994.99 L 924.47 994.01 L 921.84 993.09 L 919.23 992.16 L 916.62 991.25 L 914.04 990.31 L 911.47 989.39 L 908.90 988.46 L 906.37 987.45 L 903.85 986.44 L 901.31 985.49 L 898.81 984.50 L 896.34 983.45 L 893.88 982.41 L 891.43 981.37 L 888.97 980.34 L 886.54 979.32 L 884.14 978.25 L 881.78 977.14 L 879.39 976.15 L 877.00 975.17 L 874.65 974.14 L 872.31 973.15 L 870.00 972.13 L 867.74 971.06 L 865.50 969.99 L 863.23 968.98 L 860.98 968.02 L 858.75 967.02 L 856.53 965.97 L 854.37 964.84 L 852.19 963.74 L 850.03 962.65 L 847.86 961.59 L 845.67 960.57 L 843.52 959.56 L 841.37 958.58 L 839.22 957.60 L 837.09 956.64 L 834.93 955.78 L 832.76 954.90 L 830.62 953.98 L 828.49 953.05" stroke="rgb(140,255,190)" stroke-opacity="0.527" stroke-width="1.10" />
  <path d="M 944.17 995.42 L 941.73 994.32 L 939.25 993.35 L 936.74 992.42 L 934.18 991.62 L 931.63 990.82 L 929.08 990.01 L 926.55 989.21 L 923.99 988.49 L 921.44 987.77 L 918.91 987.06 L 916.40 986.43 L 913.84 985.84 L 911.24 985.22 L 908.66 984.63 L 906.07 984.05 L 903.51 983.43 L 900.95 982.81 L 898.43 982.19 L 895.90 981.59 L 893.38 980.97 L 890.87 980.42 L 888.37 979.98 L 885.88 979.54 L 883.41 979.09 L 880.94 978.66 L 878.49 978.20 L 876.02 977.77 L 873.56 977.33 L 871.11 976.89 L 868.66 976.59 L 866.20 976.30 L 863.82 976.02 L 861.46 975.77 L 859.12 975.61 L 856.76 975.45 L 854.40 975.27 L 852.03 975.09 L 849.71 974.80 L 847.40 974.47 L 845.11 974.19 L 842.83 973.93 L 840.53 973.62 L 838.23 973.37 L 835.94 973.13" stroke="rgb(140,255,190)" stroke-opacity="0.527" stroke-width="1.10" />
  <path d="M 842.83 973.93 L 841.05 973.13 L 839.28 972.35 L 837.63 971.67 L 835.96 971.01 L 834.30 970.34 L 832.67 969.68 L 831.09 968.99 L 829.52 968.22 L 827.97 967.54 L 826.43 966.87 L 824.90 966.14 L 823.37 965.45 L 821.78 964.78 L 820.18 964.10 L 818.59 963.42 L 817.00 962.84 L 815.46 962.27 L 813.93 961.68 L 812.41 961.06 L 810.90 960.46 L 809.38 959.82 L 807.87 959.15 L 806.49 958.44 L 805.06 957.79 L 803.64 957.12 L 802.30 956.67 L 800.99 956.17 L 799.67 955.77 L 798.32 955.57 L 797.09 955.41 L 795.86 955.24 L 794.63 955.07 L 793.39 954.91 L 792.19 954.87 L 790.92 954.93 L 789.71 955.14 L 788.49 955.16 L 787.26 955.05 L 786.04 955.03 L 784.86 955.04 L 783.77 954.97 L 782.64 954.88 L 781.55 954.76 L 780.47 954.65 L 779.36 954.54 L 778.27 954.45 L 777.25 954.44 L 776.34 954.46 L 775.41 954.46" stroke="rgb(140,255,190)" stroke-opacity="0.527" stroke-width="1.10" />
  <path d="M 954.07 1004.72 L 951.66 1003.94 L 949.23 1003.14 L 946.82 1002.35 L 944.42 1001.58 L 942.10 1000.68 L 939.82 999.74 L 937.62 998.74 L 935.42 997.74 L 933.21 996.76 L 931.03 995.75 L 928.85 994.75 L 926.78 993.61 L 924.69 992.49 L 922.60 991.39 L 920.50 990.32 L 918.45 989.31 L 916.42 988.28 L 914.44 987.26 L 912.54 986.14 L 910.67 985.02 L 908.78 983.98 L 906.82 983.08 L 904.92 982.14 L 903.00 981.21 L 901.09 980.38 L 899.18 979.53 L 897.27 978.68 L 895.37 977.85 L 893.49 976.98 L 891.62 976.13 L 889.71 975.36 L 887.83 974.51 L 886.00 973.61" stroke="rgb(140,255,190)" stroke-opacity="0.526" stroke-width="1.10" />
  <path d="M 938.25 997.47 L 935.46 997.42 L 932.67 997.41 L 929.88 997.38 L 927.07 997.34 L 924.29 997.26 L 921.52 997.15 L 918.79 997.05 L 916.02 996.92 L 913.28 996.80 L 910.54 996.66 L 907.81 996.53 L 905.10 996.35 L 902.42 996.15 L 899.74 995.95 L 897.06 995.71 L 894.38 995.47 L 891.71 995.24 L 889.05 995.05 L 886.42 994.78 L 883.80 994.52 L 881.19 994.24 L 878.60 994.03" stroke="rgb(140,255,190)" stroke-opacity="0.526" stroke-width="1.10" />
  <path d="M 1000.90 999.39 L 1000.19 999.44 L 999.45 999.59 L 998.70 999.68 L 997.99 999.78 L 997.16 999.80 L 996.19 999.85 L 995.22 999.89 L 994.29 999.91 L 993.47 999.83 L 992.65 999.75 L 991.89 999.73 L 991.07 999.79 L 990.25 999.86 L 989.51 999.88 L 988.79 999.91 L 988.09 999.94 L 987.39 999.98 L 986.75 1000.02 L 986.08 1000.08 L 985.45 1000.12 L 984.84 1000.16 L 984.23 1000.23 L 983.59 1000.33 L 983.02 1000.46 L 982.40 1000.54 L 981.71 1000.43 L 981.01 1000.30 L 980.28 1000.16 L 979.57 1000.00 L 978.88 999.86 L 978.19 999.74 L 977.42 999.59 L 976.65 999.42 L 975.93 999.26 L 975.21 999.18 L 974.49 999.08" stroke="rgb(140,255,190)" stroke-opacity="0.525" stroke-width="1.09" />
  <path d="M 962.15 996.86 L 959.72 995.35 L 957.30 993.85 L 954.84 992.42 L 952.38 991.01 L 949.96 989.55 L 947.47 988.24 L 944.94 987.02 L 942.47 985.73 L 940.06 984.36 L 937.61 983.08 L 935.18 981.78 L 932.75 980.54 L 930.33 979.27 L 927.90 978.05 L 925.48 976.86 L 923.06 975.68 L 920.65 974.49 L 918.25 973.29 L 915.84 972.15 L 913.44 971.05 L 911.05 969.95" stroke="rgb(140,255,190)" stroke-opacity="0.525" stroke-width="1.09" />
  <path d="M 929.42 996.37 L 926.63 996.82 L 923.83 997.20 L 921.03 997.53 L 918.24 997.83 L 915.47 998.20 L 912.70 998.57 L 909.93 998.92 L 907.18 999.24 L 904.44 999.58 L 901.70 999.92 L 898.98 1000.28 L 896.29 1000.70 L 893.60 1001.11 L 890.94 1001.55 L 888.29 1001.97 L 885.66 1002.39 L 883.04 1002.84 L 880.43 1003.28 L 877.82 1003.70 L 875.22 1004.23 L 872.64 1004.74 L 870.06 1005.27 L 867.53 1005.90 L 865.01 1006.53 L 862.50 1007.15 L 860.00 1007.76 L 857.49 1008.34 L 854.98 1008.83 L 852.47 1009.29 L 849.95 1009.61 L 847.44 1009.93 L 844.93 1010.23 L 842.43 1010.54 L 839.94 1010.72 L 837.45 1010.94 L 834.98 1011.02 L 832.51 1011.10 L 830.05 1011.16 L 827.60 1011.14 L 825.16 1011.18 L 822.73 1011.23 L 820.33 1011.22 L 817.93 1011.24 L 815.55 1011.18 L 813.18 1011.15 L 810.84 1011.10 L 808.50 1011.07 L 806.19 1011.05 L 803.89 1011.03 L 801.59 1010.97" stroke="rgb(140,255,190)" stroke-opacity="0.525" stroke-width="1.09" />
  <path d="M 997.28 999.56 L 994.59 999.48 L 991.91 999.38 L 989.24 999.24 L 986.58 999.10 L 983.94 998.96 L 981.31 998.85 L 978.69 998.67 L 976.09 998.43 L 973.51 998.20 L 970.94 997.90 L 968.37 997.66 L 965.82 997.36 L 963.26 997.29 L 960.71 997.20 L 958.16 997.11 L 955.62 996.99 L 953.10 996.86 L 950.58 996.79 L 948.07 996.70 L 945.58 996.54 L 943.09 996.41 L 940.61 996.28 L 938.15 996.05 L 935.71 995.80 L 933.27 995.57 L 930.84 995.34" stroke="rgb(140,255,190)" stroke-opacity="0.525" stroke-width="1.09" />
  <path d="M 946.50 992.59 L 943.97 993.28 L 941.41 993.94 L 938.90 994.60 L 936.40 995.27 L 933.93 996.03 L 931.47 996.79 L 929.01 997.53 L 926.56 998.29 L 924.13 999.08 L 921.71 999.89 L 919.30 1000.70 L 916.90 1001.53 L 914.50 1002.32 L 912.09 1003.07 L 909.69 1003.81 L 907.31 1004.58 L 904.96 1005.37 L 902.61 1006.15 L 900.27 1006.92 L 897.91 1007.62 L 895.59 1008.37 L 893.26 1009.13 L 890.94 1009.83 L 888.66 1010.62 L 886.41 1011.49 L 884.16 1012.34 L 881.91 1013.16 L 879.69 1013.92 L 877.45 1014.59 L 875.21 1015.26 L 872.96 1015.87 L 870.74 1016.49 L 868.57 1017.19 L 866.40 1017.81 L 864.25 1018.45 L 862.10 1019.09 L 859.97 1019.74 L 857.84 1020.38 L 855.72 1021.14 L 853.61 1021.88 L 851.51 1022.62 L 849.43 1023.32 L 847.41 1024.10 L 845.40 1024.93 L 843.40 1025.75 L 841.40 1026.53 L 839.39 1027.29 L 837.41 1028.07 L 835.42 1028.81 L 833.49 1029.65 L 831.59 1030.51 L 829.72 1031.41 L 827.87 1032.31 L 825.99 1033.22 L 824.09 1034.08 L 822.20 1034.96 L 820.33 1035.89 L 818.45 1036.75 L 816.56 1037.59 L 814.71 1038.50 L 812.81 1039.32 L 810.92 1040.13 L 809.03 1040.87 L 807.09 1041.50 L 805.18 1042.18 L 803.26 1042.84 L 801.34 1043.49 L 799.42 1044.14" stroke="rgb(140,255,190)" stroke-opacity="0.524" stroke-width="1.09" />
  <path d="M 1004.41 1002.80 L 1003.78 1004.04 L 1003.23 1005.33 L 1002.68 1006.64 L 1002.05 1007.90 L 1001.43 1009.15 L 1000.84 1010.39 L 1000.25 1011.55 L 999.63 1012.71 L 999.02 1013.85 L 998.44 1014.94 L 997.90 1016.00 L 997.42 1017.14 L 997.02 1018.25 L 996.61 1019.31 L 996.18 1020.42 L 995.83 1021.53 L 995.58 1022.68 L 995.33 1023.83 L 995.08 1024.92 L 994.83 1026.01 L 994.59 1027.06 L 994.34 1028.09 L 994.13 1029.19 L 993.91 1030.32 L 993.68 1031.51 L 993.49 1032.70 L 993.35 1033.91 L 993.20 1035.15 L 993.01 1036.36 L 992.82 1037.55 L 992.60 1038.72" stroke="rgb(205,165,255)" stroke-opacity="0.452" stroke-width="1.05" />
  <path d="M 999.22 996.92 L 998.13 997.33 L 997.05 997.77 L 996.00 998.17 L 995.00 998.50 L 994.00 998.88 L 992.91 999.25 L 991.89 999.64 L 990.95 1000.08 L 990.02 1000.52" stroke="rgb(230,230,230)" stroke-opacity="0.385" stroke-width="0.71" />
  <path d="M 998.87 1000.03 L 998.44 1001.42 L 998.02 1002.84 L 997.58 1004.22 L 997.24 1005.65 L 996.90 1007.07 L 996.55 1008.47 L 996.20 1009.87 L 995.86 1011.26 L 995.54 1012.65 L 995.19 1014.01 L 994.95 1015.35 L 994.73 1016.65" stroke="rgb(230,230,230)" stroke-opacity="0.382" stroke-width="0.70" />
  <path d="M 994.61 1002.05 L 994.02 1002.04 L 993.42 1002.04 L 992.78 1002.13 L 992.26 1002.32 L 991.76 1002.50 L 991.26 1002.62" stroke="rgb(230,230,230)" stroke-opacity="0.378" stroke-width="0.69" />
  <path d="M 1001.22 1003.37 L 999.75 1003.07 L 998.31 1002.70" stroke="rgb(230,230,230)" stroke-opacity="0.377" stroke-width="0.69" />
  <path d="M 997.02 999.97 L 996.85 999.00 L 996.69 998.03 L 996.55 997.16 L 996.42 996.30 L 996.23 995.44 L 996.12 994.54" stroke="rgb(230,230,230)" stroke-opacity="0.375" stroke-width="0.68" />
  <path d="M 999.26 996.53 L 999.20 998.03 L 999.21 999.52 L 999.18 1001.01 L 999.18 1002.49 L 999.18 1003.97 L 999.18 1005.44 L 999.22 1006.90 L 999.30 1008.35 L 999.36 1009.80" stroke="rgb(230,230,230)" stroke-opacity="0.374" stroke-width="0.68" />
  <path d="M 994.77 1000.57 L 995.59 999.33 L 996.39 998.08 L 997.26 996.96 L 998.07 995.82 L 998.88 994.70 L 999.86 993.61 L 1000.72 992.43 L 1001.60 991.27" stroke="rgb(230,230,230)" stroke-opacity="0.373" stroke-width="0.68" />
  <path d="M 994.79 994.86 L 995.57 993.63 L 996.35 992.37 L 997.04 991.09 L 997.63 989.75 L 998.20 988.41 L 998.62 987.00" stroke="rgb(230,230,230)" stroke-opacity="0.373" stroke-width="0.68" />
  <path d="M 998.90 1002.93 L 997.70 1003.66 L 996.40 1004.29 L 995.19 1005.14 L 993.93 1005.90 L 992.65 1006.62 L 991.23 1007.01" stroke="rgb(230,230,230)" stroke-opacity="0.372" stroke-width="0.67" />
  <path d="M 1001.06 1006.53 L 999.79 1005.75 L 998.51 1004.99 L 997.26 1004.18 L 995.99 1003.43 L 994.70 1002.71 L 993.46 1001.93 L 992.35 1000.98 L 991.20 1000.09" stroke="rgb(230,230,230)" stroke-opacity="0.369" stroke-width="0.66" />
  <path d="M 998.53 1001.07 L 998.04 1001.72 L 997.44 1002.27 L 996.81 1002.94 L 996.42 1003.68 L 996.16 1004.50 L 995.77 1005.29 L 995.17 1006.06 L 994.50 1006.70 L 993.60 1007.18 L 992.67 1007.67" stroke="rgb(230,230,230)" stroke-opacity="0.366" stroke-width="0.65" />
  <path d="M 997.10 1000.03 L 996.62 1000.73 L 996.12 1001.39 L 995.45 1002.00 L 994.79 1002.60 L 994.24 1003.35 L 993.60 1004.18 L 992.89 1005.04" stroke="rgb(230,230,230)" stroke-opacity="0.361" stroke-width="0.64" />
  <path d="M 1002.29 994.09 L 1003.16 993.42 L 1004.04 992.76 L 1004.90 992.02 L 1005.71 991.38 L 1006.53 990.73 L 1007.31 990.04 L 1008.02 989.18 L 1008.74 988.35 L 1009.50 987.53 L 1010.14 986.60 L 1010.79 985.69 L 1011.45 984.78 L 1012.15 984.04 L 1012.90 983.26 L 1013.66 982.43 L 1014.53 981.83 L 1015.34 981.24" stroke="rgb(230,230,230)" stroke-opacity="0.359" stroke-width="0.64" />
  <path d="M 1003.06 1000.67 L 1002.21 1001.30 L 1001.33 1001.96 L 1000.32 1002.69 L 999.63 1003.66 L 999.21 1004.37 L 998.74 1005.08" stroke="rgb(230,230,230)" stroke-opacity="0.355" stroke-width="0.62" />
  <path d="M 1000.01 997.99 L 999.52 998.39 L 999.00 998.88 L 998.48 999.36 L 997.90 999.89 L 997.35 1000.44 L 996.87 1001.02 L 996.39 1001.64 L 995.97 1002.33 L 995.61 1003.00 L 995.22 1003.66 L 994.83 1004.34 L 994.47 1004.99" stroke="rgb(230,230,230)" stroke-opacity="0.355" stroke-width="0.62" />
  <path d="M 997.29 1002.17 L 996.19 1002.05 L 995.11 1001.94 L 994.01 1001.87 L 992.84 1001.97 L 991.66 1001.93 L 990.52 1001.89 L 989.41 1001.90 L 988.20 1002.00 L 986.98 1002.06 L 985.76 1002.13" stroke="rgb(230,230,230)" stroke-opacity="0.354" stroke-width="0.62" />
  <path d="M 998.90 1005.32 L 997.89 1006.42 L 996.93 1007.50 L 996.02 1008.60 L 995.15 1009.75 L 994.35 1010.95 L 993.72 1012.23 L 993.27 1013.47" stroke="rgb(230,230,230)" stroke-opacity="0.354" stroke-width="0.62" />
  <path d="M 1001.65 999.31 L 1001.44 997.90 L 1001.19 996.51 L 1000.91 995.10 L 1000.60 993.70 L 1000.35 992.31 L 1000.17 990.92 L 999.84 989.59 L 999.55 988.28 L 999.23 986.99 L 998.94 985.74" stroke="rgb(230,230,230)" stroke-opacity="0.351" stroke-width="0.61" />
</g>
</svg>
