<?xml version="1.0" encoding="UTF-8"?>
<svg xmlns="http://www.w3.org/2000/svg" width="2000" height="2000" viewBox="0 0 2000 2000">
<g fill="none" stroke-linecap="round" stroke-linejoin="round">
  <path d="M 996.75 1000.71 L 999.77 1001.00 L 1002.77 1001.31 L 1005.76 1001.60 L 1008.74 1001.89 L 1011.71 1002.07 L 1014.67 1002.28 L 1017.61 1002.54 L 1020.54 1002.84 L 1023.45 1003.15 L 1026.36 1003.44 L 1029.25 1003.76 L 1032.12 1004.10 L 1034.98 1004.43 L 1037.82 1004.80 L 1040.65 1005.21 L 1043.46 1005.62 L 1046.26 1006.04 L 1049.04 1006.48 L 1051.82 1006.93 L 1054.57 1007.37 L 1057.33 1007.78 L 1060.05 1008.30 L 1062.75 1008.87 L 1065.41 1009.46 L 1068.06 1010.05 L 1070.70 1010.63 L 1073.34 1011.21 L 1075.97 1011.73 L 1078.59 1012.28 L 1081.20 1012.83 L 1083.80 1013.37 L 1086.39 1013.91 L 1088.98 1014.44 L 1091.55 1014.94 L 1094.12 1015.45 L 1096.68 1015.94 L 1099.23 1016.41 L 1101.78 1016.85 L 1104.30 1017.35 L 1106.81 1017.87 L 1109.31 1018.37 L 1111.80 1018.86 L 1114.28 1019.37 L 1116.76 1019.86 L 1119.23 1020.34 L 1121.67 1020.85 L 1124.12 1021.30 L 1126.56 1021.76 L 1128.99 1022.24 L 1131.40 1022.74 L 1133.80 1023.24 L 1136.19 1023.75 L 1138.56 1024.26 L 1140.92 1024.81 L 1143.25 1025.39 L 1145.61 1025.85 L 1147.94 1026.35 L 1150.26 1026.85 L 1152.57 1027.34 L 1154.85 1027.88 L 1157.12 1028.42 L 1159.38 1028.91 L 1161.61 1029.48 L 1163.84 1030.01 L 1166.07 1030.50 L 1168.29 1030.97 L 1170.50 1031.44 L 1172.70 1031.97 L 1174.89 1032.47 L 1177.08 1032.96 L 1179.25 1033.46 L 1181.41 1033.95 L 1183.55 1034.48 L 1185.68 1035.05 L 1187.80 1035.60 L 1189.92 1036.15 L 1192.02 1036.70 L 1194.13 1037.15 L 1196.24 1037.60 L 1198.33 1038.07 L 1200.41 1038.54" stroke="rgb(120,210,255)" stroke-opacity="0.469" stroke-width="1.63" />
  <path d="M 1154.85 1027.88 L 1158.15 1028.88 L 1161.44 1029.88 L 1164.72 1030.87 L 1167.99 1031.86 L 1171.22 1032.89 L 1174.47 1033.85 L 1177.70 1034.78 L 1180.92 1035.68 L 1184.12 1036.61 L 1187.29 1037.58 L 1190.45 1038.55 L 1193.60 1039.50 L 1196.73 1040.46 L 1199.84 1041.43 L 1202.95 1042.37 L 1206.04 1043.35 L 1209.11 1044.36 L 1212.18 1045.33 L 1215.23 1046.30 L 1218.28 1047.24 L 1221.33 1048.14 L 1224.36 1049.04 L 1227.35 1050.01 L 1230.32 1050.98 L 1233.28 1051.95 L 1236.22 1052.92 L 1239.14 1053.93" stroke="rgb(120,210,255)" stroke-opacity="0.852" stroke-width="1.63" />
  <path d="M 1177.08 1032.96 L 1180.11 1033.85 L 1183.14 1034.74 L 1186.15 1035.62 L 1189.16 1036.51 L 1192.14 1037.41 L 1195.12 1038.32 L 1198.04 1039.31 L 1200.99 1040.21 L 1203.92 1041.12 L 1206.84 1042.04 L 1209.75 1042.92 L 1212.67 1043.76 L 1215.57 1044.59 L 1218.48 1045.38 L 1221.37 1046.14 L 1224.26 1046.89 L 1227.15 1047.55 L 1230.02 1048.25 L 1232.88 1048.92 L 1235.73 1049.57 L 1238.56 1050.23 L 1241.39 1050.84 L 1244.21 1051.46 L 1247.02 1052.07 L 1249.83 1052.62 L 1252.62 1053.16 L 1255.41 1053.72" stroke="rgb(120,210,255)" stroke-opacity="0.851" stroke-width="1.63" />
  <path d="M 999.64 995.56 L 1002.65 995.99 L 1005.66 996.35 L 1008.66 996.71 L 1011.65 997.06 L 1014.63 997.43 L 1017.60 997.76 L 1020.56 998.10 L 1023.51 998.42 L 1026.44 998.75" stroke="rgb(120,210,255)" stroke-opacity="0.468" stroke-width="1.62" />
  <path d="M 998.03 1005.20 L 1001.14 1005.58 L 1004.23 1005.98 L 1007.31 1006.41 L 1010.37 1006.83 L 1013.42 1007.25 L 1016.46 1007.71 L 1019.48 1008.16 L 1022.49 1008.63 L 1025.48 1009.09 L 1028.46 1009.60 L 1031.41 1010.16 L 1034.34 1010.72 L 1037.24 1011.38 L 1040.13 1012.03 L 1043.00 1012.69 L 1045.87 1013.34 L 1048.70 1014.05 L 1051.52 1014.80 L 1054.33 1015.54 L 1057.13 1016.27 L 1059.93 1016.98 L 1062.71 1017.68 L 1065.50 1018.37 L 1068.27 1019.04 L 1071.04 1019.69 L 1073.82 1020.26 L 1076.58 1020.84 L 1079.33 1021.43 L 1082.07 1022.01 L 1084.82 1022.49 L 1087.54 1023.01 L 1090.26 1023.51 L 1092.96 1024.05 L 1095.66 1024.58 L 1098.33 1025.13 L 1101.01 1025.60 L 1103.67 1026.13 L 1106.33 1026.61 L 1108.98 1027.08 L 1111.61 1027.56 L 1114.24 1027.99 L 1116.86 1028.44 L 1119.46 1028.92 L 1122.06 1029.38 L 1124.64 1029.84 L 1127.22 1030.28 L 1129.78 1030.72 L 1132.32 1031.23 L 1134.85 1031.76 L 1137.36 1032.29 L 1139.87 1032.83 L 1142.36 1033.36 L 1144.84 1033.90 L 1147.32 1034.41 L 1149.78 1034.94 L 1152.23 1035.47 L 1154.65 1036.07 L 1157.06 1036.66 L 1159.47 1037.23 L 1161.86 1037.83 L 1164.25 1038.43 L 1166.63 1039.00 L 1169.00 1039.55 L 1171.37 1040.11 L 1173.72 1040.68 L 1176.06 1041.29 L 1178.37 1041.94 L 1180.67 1042.60 L 1182.96 1043.28 L 1185.25 1043.93 L 1187.54 1044.50 L 1189.83 1045.08 L 1192.09 1045.67 L 1194.36 1046.25 L 1196.61 1046.84 L 1198.86 1047.38 L 1201.11 1047.91 L 1203.35 1048.44 L 1205.58 1048.96 L 1207.80 1049.50 L 1210.00 1050.05 L 1212.20 1050.61 L 1214.39 1051.14 L 1216.57 1051.68 L 1218.75 1052.20" stroke="rgb(120,210,255)" stroke-opacity="0.848" stroke-width="1.62" />
  <path d="M 996.67 997.83 L 999.77 998.17 L 1002.86 998.54 L 1005.93 998.93 L 1008.99 999.28 L 1012.04 999.68 L 1015.07 1000.08 L 1018.08 1000.48 L 1021.09 1000.86 L 1024.08 1001.25 L 1027.07 1001.63 L 1030.05 1001.98 L 1033.01 1002.30 L 1035.97 1002.62 L 1038.91 1002.98 L 1041.84 1003.32 L 1044.75 1003.67 L 1047.65 1004.01 L 1050.54 1004.37 L 1053.42 1004.75 L 1056.27 1005.22 L 1059.10 1005.69 L 1061.92 1006.20 L 1064.73 1006.71 L 1067.53 1007.20 L 1070.32 1007.70 L 1073.10 1008.21 L 1075.86 1008.74 L 1078.61 1009.25 L 1081.35 1009.74 L 1084.08 1010.20 L 1086.80 1010.64 L 1089.50 1011.14 L 1092.19 1011.65 L 1094.86 1012.18 L 1097.53 1012.71 L 1100.17 1013.28 L 1102.79 1013.85 L 1105.41 1014.43 L 1108.01 1015.03 L 1110.60 1015.66 L 1113.17 1016.28 L 1115.74 1016.93 L 1118.29 1017.57 L 1120.82 1018.26 L 1123.34 1018.98 L 1125.84 1019.66 L 1128.34 1020.32 L 1130.82 1021.05 L 1133.28 1021.76 L 1135.74 1022.47 L 1138.21 1023.11 L 1140.68 1023.68 L 1143.14 1024.26 L 1145.57 1024.87 L 1148.02 1025.43 L 1150.45 1025.96 L 1152.86 1026.55 L 1155.25 1027.14 L 1157.63 1027.74 L 1160.01 1028.31 L 1162.39 1028.86 L 1164.76 1029.42 L 1167.13 1029.94 L 1169.49 1030.47 L 1171.84 1031.03 L 1174.18 1031.57 L 1176.51 1032.09 L 1178.83 1032.64 L 1181.15 1033.12 L 1183.46 1033.59 L 1185.77 1034.07 L 1188.05 1034.61 L 1190.33 1035.14 L 1192.60 1035.66" stroke="rgb(120,210,255)" stroke-opacity="0.848" stroke-width="1.62" />
  <path d="M 1002.75 1000.38 L 1006.20 1000.68 L 1009.64 1000.98 L 1013.06 1001.37 L 1016.46 1001.75 L 1019.85 1002.13 L 1023.23 1002.52 L 1026.59 1002.91 L 1029.94 1003.30 L 1033.27 1003.69 L 1036.59 1004.06 L 1039.91 1004.40 L 1043.21 1004.74 L 1046.49 1005.09 L 1049.76 1005.43 L 1053.02 1005.77 L 1056.26 1006.13 L 1059.49 1006.51 L 1062.70 1006.96 L 1065.89 1007.38 L 1069.08 1007.77 L 1072.26 1008.14 L 1075.42 1008.52 L 1078.57 1008.86 L 1081.72 1009.19 L 1084.85 1009.49 L 1087.96 1009.82 L 1091.07 1010.16 L 1094.15 1010.54 L 1097.23 1010.93 L 1100.29 1011.31 L 1103.34 1011.70 L 1106.37 1012.08 L 1109.39 1012.48 L 1112.41 1012.82 L 1115.41 1013.17 L 1118.40 1013.53 L 1121.38 1013.87 L 1124.36 1014.15 L 1127.31 1014.45 L 1130.26 1014.75 L 1133.19 1015.05 L 1136.12 1015.35 L 1139.03 1015.64 L 1141.92 1015.96 L 1144.80 1016.27 L 1147.66 1016.60 L 1150.51 1016.94 L 1153.35 1017.27 L 1156.18 1017.58 L 1158.99 1017.89 L 1161.79 1018.21 L 1164.58 1018.53 L 1167.36 1018.84 L 1170.13 1019.16 L 1172.88 1019.47 L 1175.62 1019.80 L 1178.35 1020.12 L 1181.07 1020.46 L 1183.78 1020.79 L 1186.47 1021.13 L 1189.16 1021.50 L 1191.83 1021.86 L 1194.50 1022.16 L 1197.16 1022.37 L 1199.81 1022.58 L 1202.46 1022.80 L 1205.09 1023.00 L 1207.72 1023.20 L 1210.33 1023.37 L 1212.93 1023.54 L 1215.52 1023.76 L 1218.10 1023.95 L 1220.67 1024.12 L 1223.23 1024.30 L 1225.78 1024.47 L 1228.32 1024.62 L 1230.85 1024.79 L 1233.36 1024.94 L 1235.87 1025.12 L 1238.37 1025.31 L 1240.86 1025.49" stroke="rgb(120,210,255)" stroke-opacity="0.846" stroke-width="1.61" />
  <path d="M 997.17 1000.21 L 1000.60 1000.44 L 1004.02 1000.73 L 1007.42 1001.04 L 1010.81 1001.33 L 1014.19 1001.59 L 1017.56 1001.85 L 1020.91 1002.14 L 1024.24 1002.43 L 1027.57 1002.73 L 1030.88 1003.03 L 1034.17 1003.32 L 1037.46 1003.60 L 1040.73 1003.90 L 1043.98 1004.19 L 1047.23 1004.48 L 1050.46 1004.75 L 1053.68 1005.02 L 1056.89 1005.30 L 1060.08 1005.57 L 1063.26 1005.84 L 1066.43 1006.10 L 1069.58 1006.37 L 1072.73 1006.63 L 1075.86 1006.90 L 1078.97 1007.16 L 1082.08 1007.46 L 1085.17 1007.74 L 1088.24 1008.04 L 1091.31 1008.31 L 1094.37 1008.59 L 1097.41 1008.86 L 1100.43 1009.16 L 1103.45 1009.46 L 1106.45 1009.76 L 1109.44 1010.07 L 1112.42 1010.40 L 1115.38 1010.73 L 1118.33 1011.06" stroke="rgb(120,210,255)" stroke-opacity="0.845" stroke-width="1.61" />
  <path d="M 1157.12 1028.42 L 1160.16 1028.72 L 1163.20 1029.03 L 1166.23 1029.31 L 1169.25 1029.59 L 1172.26 1029.77 L 1175.25 1030.01 L 1178.22 1030.20 L 1181.19 1030.36 L 1184.14 1030.52 L 1187.09 1030.66 L 1190.00 1030.95 L 1192.90 1031.27 L 1195.81 1031.42 L 1198.70 1031.54 L 1201.58 1031.67 L 1204.44 1031.83 L 1207.29 1032.03 L 1210.13 1032.16 L 1212.96 1032.28 L 1215.78 1032.32 L 1218.59 1032.28 L 1221.40 1032.27 L 1224.20 1032.24 L 1226.98 1032.23 L 1229.74 1032.12 L 1232.49 1032.05 L 1235.23 1031.97 L 1237.95 1031.87 L 1240.66 1031.74 L 1243.36 1031.59 L 1246.06 1031.46 L 1248.73 1031.27 L 1251.36 1031.05 L 1253.98 1030.84 L 1256.58 1030.60 L 1259.16 1030.31 L 1261.71 1030.05 L 1264.24 1029.79 L 1266.78 1029.53 L 1269.31 1029.28 L 1271.84 1029.07 L 1274.36 1028.85 L 1276.88 1028.59 L 1279.39 1028.31 L 1281.87 1028.01 L 1284.35 1027.68 L 1286.82 1027.35 L 1289.27 1026.96 L 1291.70 1026.58 L 1294.13 1026.26" stroke="rgb(120,210,255)" stroke-opacity="0.464" stroke-width="1.60" />
  <path d="M 999.79 996.46 L 1002.83 996.77 L 1005.86 996.99 L 1008.88 997.23 L 1011.88 997.49 L 1014.88 997.74 L 1017.86 997.98 L 1020.83 998.13 L 1023.80 998.34 L 1026.75 998.51 L 1029.69 998.67 L 1032.62 998.83 L 1035.54 998.94 L 1038.44 998.99 L 1041.34 999.08 L 1044.22 999.10 L 1047.08 999.08 L 1049.94 999.08 L 1052.78 999.06 L 1055.60 999.07 L 1058.42 999.09 L 1061.22 999.08 L 1064.01 999.07 L 1066.79 999.05 L 1069.56 999.04 L 1072.31 999.08 L 1075.05 999.11 L 1077.77 999.19 L 1080.49 999.29 L 1083.19 999.41 L 1085.89 999.49 L 1088.58 999.56 L 1091.25 999.60 L 1093.91 999.68 L 1096.54 999.68 L 1099.15 999.68 L 1101.76 999.66 L 1104.34 999.59 L 1106.91 999.51 L 1109.47 999.44" stroke="rgb(120,210,255)" stroke-opacity="0.463" stroke-width="1.60" />
  <path d="M 1003.14 997.49 L 1006.11 997.79 L 1009.08 998.04 L 1012.03 998.30 L 1014.96 998.62 L 1017.87 998.94 L 1020.77 999.14 L 1023.67 999.33 L 1026.55 999.52 L 1029.42 999.72 L 1032.28 999.92 L 1035.13 1000.09 L 1037.97 1000.28 L 1040.79 1000.37 L 1043.60 1000.37 L 1046.39 1000.28 L 1049.17 1000.16 L 1051.94 1000.09 L 1054.69 999.98 L 1057.43 999.89 L 1060.16 999.78 L 1062.87 999.68 L 1065.57 999.49 L 1068.24 999.36 L 1070.91 999.15 L 1073.58 999.06 L 1076.25 998.92 L 1078.90 998.65 L 1081.54 998.37 L 1084.18 998.12 L 1086.80 997.90 L 1089.40 997.67 L 1091.99 997.49 L 1094.58 997.30 L 1097.16 997.13 L 1099.73 996.96 L 1102.31 996.82 L 1104.87 996.61 L 1107.43 996.36 L 1109.98 996.16 L 1112.52 995.96 L 1115.06 995.77 L 1117.58 995.60 L 1120.09 995.45 L 1122.60 995.29 L 1125.10 995.16 L 1127.58 994.94 L 1130.05 994.69 L 1132.51 994.43 L 1134.96 994.16 L 1137.40 993.95 L 1139.84 993.77 L 1142.27 993.63 L 1144.68 993.51 L 1147.09 993.38 L 1149.49 993.30 L 1151.89 993.20 L 1154.27 993.04 L 1156.64 992.89 L 1159.00 992.73 L 1161.35 992.54 L 1163.69 992.34 L 1166.02 992.18 L 1168.35 992.02 L 1170.66 991.88 L 1172.97 991.69 L 1175.26 991.52 L 1177.55 991.29 L 1179.82 991.05 L 1182.08 990.82 L 1184.32 990.55 L 1186.56 990.27 L 1188.78 989.99 L 1191.00 989.71 L 1193.20 989.42 L 1195.40 989.13" stroke="rgb(120,210,255)" stroke-opacity="0.462" stroke-width="1.59" />
  <path d="M 998.43 1001.50 L 1001.29 1001.82 L 1004.14 1002.19 L 1006.97 1002.59 L 1009.79 1002.98 L 1012.60 1003.36 L 1015.41 1003.70 L 1018.20 1004.04 L 1020.98 1004.39 L 1023.75 1004.73 L 1026.51 1005.05 L 1029.26 1005.35 L 1032.00 1005.70 L 1034.73 1006.01 L 1037.46 1006.18 L 1040.18 1006.38 L 1042.88 1006.58 L 1045.58 1006.78 L 1048.27 1006.90 L 1050.94 1007.09 L 1053.61 1007.26 L 1056.25 1007.48 L 1058.88 1007.75 L 1061.51 1008.01 L 1064.12 1008.27 L 1066.72 1008.57 L 1069.31 1008.83 L 1071.88 1009.12 L 1074.46 1009.35 L 1077.03 1009.58 L 1079.59 1009.73 L 1082.13 1009.92 L 1084.67 1010.11 L 1087.20 1010.29 L 1089.71 1010.52 L 1092.22 1010.75 L 1094.71 1010.95" stroke="rgb(120,210,255)" stroke-opacity="0.459" stroke-width="1.58" />
  <path d="M 999.10 998.39 L 1001.89 998.86 L 1004.66 999.32 L 1007.43 999.79 L 1010.19 1000.23 L 1012.93 1000.66 L 1015.67 1001.08 L 1018.37 1001.65 L 1021.05 1002.25 L 1023.71 1002.88 L 1026.39 1003.42 L 1029.05 1003.96 L 1031.69 1004.52 L 1034.32 1005.11 L 1036.94 1005.69 L 1039.55 1006.22 L 1042.18 1006.67 L 1044.78 1007.18 L 1047.35 1007.77 L 1049.92 1008.34 L 1052.46 1008.96 L 1055.01 1009.53" stroke="rgb(120,210,255)" stroke-opacity="0.455" stroke-width="1.56" />
  <path d="M 1146.21 1034.53 L 1148.35 1034.29 L 1150.49 1034.05 L 1152.62 1033.86 L 1154.75 1033.74 L 1156.87 1033.64 L 1158.99 1033.53 L 1161.09 1033.42 L 1163.19 1033.33 L 1165.28 1033.24 L 1167.36 1033.12 L 1169.43 1033.17 L 1171.49 1033.19 L 1173.55 1033.23 L 1175.60 1033.26 L 1177.63 1033.26 L 1179.66 1033.25 L 1181.68 1033.23 L 1183.70 1033.18 L 1185.69 1033.03 L 1187.67 1032.87 L 1189.65 1032.70 L 1191.62 1032.47 L 1193.57 1032.17 L 1195.52 1031.90" stroke="rgb(140,255,190)" stroke-opacity="0.578" stroke-width="1.27" />
  <path d="M 1095.67 1011.84 L 1097.67 1011.79 L 1099.64 1011.67 L 1101.61 1011.53 L 1103.57 1011.29 L 1105.53 1011.05" stroke="rgb(140,255,190)" stroke-opacity="0.574" stroke-width="1.26" />
  <path d="M 999.03 996.75 L 997.39 997.88 L 995.82 999.08 L 994.25 1000.27 L 992.68 1001.46 L 991.08 1002.65 L 989.43 1003.73 L 987.77 1004.78 L 986.13 1005.83 L 984.46 1006.83 L 982.80 1007.81 L 981.11 1008.76 L 979.40 1009.70 L 977.70 1010.64 L 976.04 1011.62 L 974.39 1012.59 L 972.73 1013.52 L 971.16 1014.56 L 969.47 1015.51 L 967.79 1016.44 L 966.09 1017.39 L 964.39 1018.29 L 962.66 1019.09 L 960.94 1019.89 L 959.22 1020.67 L 957.51 1021.46 L 955.81 1022.23 L 954.11 1023.01 L 952.42 1023.75 L 950.71 1024.49 L 949.01 1025.31 L 947.32 1026.13 L 945.63 1026.95 L 943.92 1027.73 L 942.19 1028.45 L 940.49 1029.22 L 938.79 1029.99 L 937.11 1030.79 L 935.41 1031.47 L 933.71 1032.17 L 932.03 1032.85 L 930.39 1033.65" stroke="rgb(140,255,190)" stroke-opacity="0.574" stroke-width="1.26" />
  <path d="M 1001.28 1000.70 L 1001.22 997.80 L 1001.16 994.92 L 1001.04 992.08 L 1000.90 989.27 L 1000.76 986.47 L 1000.61 983.69 L 1000.49 980.90 L 1000.37 978.12 L 1000.30 975.35 L 1000.25 972.58 L 1000.19 969.83 L 1000.14 967.09 L 1000.05 964.37 L 999.96 961.66 L 999.92 958.98 L 999.90 956.34 L 999.85 953.70 L 999.78 951.09 L 999.71 948.50 L 999.61 945.89 L 999.51 943.27 L 999.35 940.64 L 999.26 938.01 L 999.16 935.39 L 999.07 932.77 L 998.98 930.15 L 998.88 927.53 L 998.76 924.92 L 998.64 922.34 L 998.52 919.75 L 998.41 917.18 L 998.29 914.62 L 998.20 912.09 L 998.10 909.58 L 998.00 907.07 L 997.84 904.56 L 997.69 902.06 L 997.52 899.56 L 997.40 897.05 L 997.27 894.56 L 997.16 892.09 L 997.02 889.64 L 996.87 887.20 L 996.74 884.76 L 996.59 882.36 L 996.43 879.96 L 996.25 877.58 L 996.07 875.22 L 995.90 872.86 L 995.76 870.54 L 995.62 868.19 L 995.48 865.86 L 995.33 863.52 L 995.18 861.17 L 995.08 858.84 L 994.98 856.51 L 994.82 854.19 L 994.62 851.90 L 994.42 849.61 L 994.21 847.34 L 994.02 845.05 L 993.84 842.78 L 993.64 840.52 L 993.46 838.25 L 993.31 835.98 L 993.16 833.72 L 993.02 831.48 L 992.89 829.25 L 992.71 827.04 L 992.55 824.84 L 992.42 822.65" stroke="rgb(205,165,255)" stroke-opacity="0.714" stroke-width="1.23" />
  <path d="M 1004.53 1000.29 L 1007.25 1001.97 L 1009.96 1003.65 L 1012.63 1005.32 L 1015.30 1006.97 L 1017.94 1008.64 L 1020.56 1010.28 L 1023.18 1011.91 L 1025.76 1013.52 L 1028.38 1015.07 L 1030.96 1016.62 L 1033.52 1018.16 L 1036.08 1019.69 L 1038.65 1021.21 L 1041.19 1022.72 L 1043.72 1024.26 L 1046.21 1025.81 L 1048.69 1027.38 L 1051.16 1028.93 L 1053.64 1030.46 L 1056.08 1032.00 L 1058.51 1033.51 L 1060.93 1035.02 L 1063.39 1036.49 L 1065.81 1037.98 L 1068.25 1039.43 L 1070.67 1040.86 L 1073.07 1042.25 L 1075.44 1043.63 L 1077.81 1045.00 L 1080.17 1046.35 L 1082.54 1047.71 L 1084.91 1049.04" stroke="rgb(205,165,255)" stroke-opacity="0.710" stroke-width="1.21" />
  <path d="M 1036.77 1049.98 L 1037.29 1052.01 L 1037.81 1054.01 L 1038.39 1056.07 L 1038.97 1058.11 L 1039.54 1060.14 L 1040.10 1062.17 L 1040.65 1064.19 L 1041.21 1066.28 L 1041.80 1068.37 L 1042.38 1070.45 L 1042.93 1072.53 L 1043.54 1074.64 L 1044.09 1076.73 L 1044.65 1078.82 L 1045.15 1080.89 L 1045.69 1082.93 L 1046.19 1084.97 L 1046.71 1087.02 L 1047.23 1089.05 L 1047.77 1091.10 L 1048.23 1093.20 L 1048.69 1095.34 L 1049.16 1097.49 L 1049.63 1099.64 L 1050.15 1101.78 L 1050.67 1103.91 L 1051.15 1106.04 L 1051.68 1108.13 L 1052.20 1110.21 L 1052.72 1112.32 L 1053.21 1114.43 L 1053.71 1116.54" stroke="rgb(205,165,255)" stroke-opacity="0.704" stroke-width="1.20" />
  <path d="M 1048.23 1093.20 L 1049.34 1094.71 L 1050.41 1096.18 L 1051.40 1097.65 L 1052.37 1099.11 L 1053.34 1100.59 L 1054.33 1102.11 L 1055.25 1103.68 L 1056.20 1105.24 L 1057.14 1106.83 L 1058.15 1108.44 L 1059.14 1110.09 L 1060.16 1111.77 L 1061.17 1113.43 L 1062.19 1115.08 L 1063.24 1116.80 L 1064.23 1118.49 L 1065.20 1120.20 L 1066.18 1121.95 L 1067.16 1123.71 L 1068.14 1125.44 L 1069.01 1127.17 L 1069.89 1128.89 L 1070.67 1130.60 L 1071.41 1132.36 L 1072.17 1134.12 L 1072.97 1135.87 L 1073.76 1137.60 L 1074.51 1139.25 L 1075.26 1140.85 L 1075.94 1142.49 L 1076.61 1144.13 L 1077.26 1145.77 L 1077.90 1147.43 L 1078.49 1149.08 L 1079.08 1150.72 L 1079.74 1152.41 L 1080.39 1154.10 L 1080.92 1155.80 L 1081.43 1157.43 L 1081.89 1159.11 L 1082.29 1160.78 L 1082.68 1162.42 L 1083.04 1164.11 L 1083.46 1165.82" stroke="rgb(205,165,255)" stroke-opacity="0.700" stroke-width="1.19" />
  <path d="M 1033.99 1020.84 L 1036.27 1022.18 L 1038.54 1023.52 L 1040.82 1024.83 L 1043.06 1026.15 L 1045.30 1027.46 L 1047.53 1028.77 L 1049.76 1030.09 L 1051.95 1031.37 L 1054.14 1032.67 L 1056.33 1033.98 L 1058.51 1035.30 L 1060.67 1036.62 L 1062.81 1037.93 L 1064.95 1039.29 L 1067.08 1040.65 L 1069.19 1042.05 L 1071.30 1043.45 L 1073.38 1044.80 L 1075.48 1046.10 L 1077.53 1047.43 L 1079.56 1048.81 L 1081.60 1050.18 L 1083.62 1051.57 L 1085.62 1052.96 L 1087.58 1054.35 L 1089.52 1055.73 L 1091.48 1057.11 L 1093.41 1058.49 L 1095.29 1059.90 L 1097.15 1061.31 L 1099.00 1062.73 L 1100.84 1064.15 L 1102.62 1065.58 L 1104.40 1067.00 L 1106.17 1068.40 L 1107.95 1069.79 L 1109.75 1071.16 L 1111.55 1072.52 L 1113.34 1073.86 L 1115.12 1075.19 L 1116.90 1076.51 L 1118.67 1077.83 L 1120.44 1079.14 L 1122.20 1080.45 L 1123.93 1081.74 L 1125.66 1082.94 L 1127.37 1084.19 L 1129.11 1085.43 L 1130.85 1086.66 L 1132.58 1087.88 L 1134.28 1089.16 L 1135.94 1090.47 L 1137.58 1091.76 L 1139.21 1093.04 L 1140.83 1094.35 L 1142.44 1095.65 L 1144.04 1096.99 L 1145.65 1098.33 L 1147.25 1099.70 L 1148.84 1101.11 L 1150.42 1102.49 L 1151.99 1103.87 L 1153.58 1105.21 L 1155.18 1106.55 L 1156.74 1107.92 L 1158.25 1109.32 L 1159.76 1110.70 L 1161.24 1112.11 L 1162.72 1113.51 L 1164.19 1114.91 L 1165.66 1116.32 L 1167.13 1117.73 L 1168.58 1119.15 L 1170.05 1120.56 L 1171.50 1121.98 L 1172.95 1123.40 L 1174.40 1124.81 L 1175.84 1126.22 L 1177.29 1127.63 L 1178.70 1129.05 L 1180.13 1130.45 L 1181.51 1131.85 L 1182.93 1133.27 L 1184.34 1134.69 L 1185.77 1136.13 L 1187.14 1137.57 L 1188.52 1139.01 L 1189.89 1140.45 L 1191.25 1141.88 L 1192.61 1143.30 L 1193.98 1144.72 L 1195.33 1146.12 L 1196.67 1147.49 L 1197.97 1148.89 L 1199.27 1150.30 L 1200.56 1151.70 L 1201.84 1153.11 L 1203.12 1154.51 L 1204.40 1155.90 L 1205.68 1157.28 L 1206.97 1158.65 L 1208.23 1160.03 L 1209.47 1161.40 L 1210.71 1162.75 L 1211.96 1164.09 L 1213.20 1165.45 L 1214.44 1166.81 L 1215.67 1168.16" stroke="rgb(140,255,190)" stroke-opacity="0.737" stroke-width="1.19" />
  <path d="M 1001.16 997.37 L 1002.56 999.45 L 1003.90 1001.56 L 1005.25 1003.63 L 1006.60 1005.65 L 1007.92 1007.64 L 1009.26 1009.63 L 1010.59 1011.62 L 1011.97 1013.61 L 1013.32 1015.67 L 1014.75 1017.72 L 1016.20 1019.77 L 1017.65 1021.80 L 1019.12 1023.85 L 1020.59 1025.87 L 1022.00 1027.89 L 1023.37 1029.92 L 1024.71 1031.97 L 1026.07 1033.97 L 1027.40 1036.00 L 1028.70 1038.04 L 1029.98 1040.08 L 1031.35 1042.08 L 1032.67 1044.08 L 1033.99 1046.06 L 1035.37 1048.02 L 1036.77 1049.98 L 1038.15 1051.94 L 1039.54 1053.86 L 1040.91 1055.77 L 1042.27 1057.67 L 1043.64 1059.54 L 1045.01 1061.40 L 1046.37 1063.24 L 1047.72 1065.08 L 1049.06 1066.91 L 1050.26 1068.76 L 1051.54 1070.55 L 1052.78 1072.36 L 1054.02 1074.15 L 1055.29 1075.92 L 1056.58 1077.67 L 1057.91 1079.36 L 1059.21 1081.04 L 1060.50 1082.73 L 1061.73 1084.39 L 1062.96 1086.06 L 1064.25 1087.72 L 1065.52 1089.37 L 1066.79 1091.02 L 1068.06 1092.65 L 1069.28 1094.32 L 1070.52 1095.97 L 1071.75 1097.61 L 1073.03 1099.20 L 1074.32 1100.80 L 1075.60 1102.40 L 1076.88 1104.00" stroke="rgb(205,165,255)" stroke-opacity="0.487" stroke-width="1.18" />
  <path d="M 1001.95 1002.07 L 1005.23 1002.95 L 1008.48 1003.92 L 1011.72 1004.88 L 1014.95 1005.85 L 1018.16 1006.81 L 1021.35 1007.78 L 1024.54 1008.73 L 1027.72 1009.68 L 1030.88 1010.63 L 1034.02 1011.59 L 1037.16 1012.53 L 1040.26 1013.53 L 1043.35 1014.53 L 1046.43 1015.50 L 1049.49 1016.48 L 1052.55 1017.44 L 1055.59 1018.40 L 1058.62 1019.33 L 1061.63 1020.26 L 1064.63 1021.20 L 1067.63 1022.15 L 1070.61 1023.09 L 1073.59 1024.01 L 1076.56 1024.93 L 1079.51 1025.83 L 1082.47 1026.70 L 1085.42 1027.57 L 1088.36 1028.44 L 1091.29 1029.26 L 1094.21 1030.04 L 1097.12 1030.82 L 1100.02 1031.54 L 1102.93 1032.19 L 1105.83 1032.85 L 1108.71 1033.51 L 1111.58 1034.17 L 1114.44 1034.82 L 1117.28 1035.48 L 1120.11 1036.15 L 1122.93 1036.79 L 1125.76 1037.39 L 1128.56 1037.98 L 1131.37 1038.57 L 1134.17 1039.11 L 1136.97 1039.65 L 1139.76 1040.18 L 1142.54 1040.68 L 1145.30 1041.20 L 1148.05 1041.71 L 1150.79 1042.23 L 1153.51 1042.76 L 1156.22 1043.30 L 1158.92 1043.83 L 1161.62 1044.28 L 1164.33 1044.71 L 1167.02 1045.13 L 1169.70 1045.53 L 1172.36 1045.94 L 1175.02 1046.32 L 1177.65 1046.76 L 1180.27 1047.18 L 1182.88 1047.57 L 1185.46 1048.01 L 1188.04 1048.45 L 1190.60 1048.91 L 1193.17 1049.32 L 1195.73 1049.75 L 1198.29 1050.16 L 1200.83 1050.52 L 1203.36 1050.90 L 1205.89 1051.29 L 1208.40 1051.68 L 1210.92 1052.02 L 1213.43 1052.31 L 1215.94 1052.59 L 1218.43 1052.86 L 1220.92 1053.14 L 1223.39 1053.42 L 1225.85 1053.71 L 1228.31 1053.99 L 1230.75 1054.28 L 1233.18 1054.57 L 1235.60 1054.85 L 1238.01 1055.13 L 1240.41 1055.40 L 1242.80 1055.68 L 1245.18 1055.95 L 1247.55 1056.19 L 1249.92 1056.44 L 1252.27 1056.69 L 1254.62 1056.99 L 1256.95 1057.25 L 1259.27 1057.50 L 1261.59 1057.74 L 1263.90 1057.98 L 1266.21 1058.22 L 1268.49 1058.47 L 1270.77 1058.73" stroke="rgb(140,255,190)" stroke-opacity="0.732" stroke-width="1.17" />
  <path d="M 998.91 997.61 L 1002.34 997.62 L 1005.75 997.61 L 1009.14 997.62 L 1012.53 997.63 L 1015.90 997.65 L 1019.25 997.64 L 1022.60 997.63 L 1025.93 997.55 L 1029.24 997.42 L 1032.54 997.28 L 1035.83 997.14 L 1039.10 996.99 L 1042.36 996.83 L 1045.61 996.70 L 1048.84 996.57 L 1052.07 996.44 L 1055.27 996.29 L 1058.47 996.13 L 1061.65 995.99 L 1064.83 995.92 L 1067.98 995.81 L 1071.13 995.71 L 1074.27 995.66 L 1077.39 995.59 L 1080.50 995.53 L 1083.60 995.48 L 1086.68 995.42 L 1089.75 995.36 L 1092.81 995.30 L 1095.86 995.21 L 1098.90 995.13 L 1101.92 995.02 L 1104.93 994.89 L 1107.92 994.76 L 1110.91 994.66 L 1113.88 994.55" stroke="rgb(140,255,190)" stroke-opacity="0.731" stroke-width="1.17" />
  <path d="M 1000.56 999.25 L 1001.97 996.60 L 1003.35 993.96 L 1004.72 991.33 L 1006.17 988.72 L 1007.55 986.11 L 1008.91 983.52 L 1010.26 980.94 L 1011.57 978.37 L 1012.83 975.81 L 1014.11 973.29 L 1015.39 970.78 L 1016.69 968.27 L 1018.00 965.83 L 1019.32 963.39 L 1020.64 960.97 L 1021.97 958.55 L 1023.26 956.14 L 1024.56 953.72 L 1025.85 951.33 L 1027.14 948.96 L 1028.42 946.61 L 1029.71 944.28 L 1030.99 941.95 L 1032.27 939.62 L 1033.49 937.25 L 1034.72 934.88 L 1035.94 932.51 L 1037.16 930.15 L 1038.39 927.79 L 1039.61 925.44 L 1040.81 923.10 L 1041.97 920.77 L 1043.19 918.46 L 1044.42 916.18 L 1045.66 913.93 L 1046.92 911.71 L 1048.17 909.50 L 1049.39 907.30 L 1050.61 905.10 L 1051.83 902.91 L 1053.04 900.73 L 1054.24 898.57 L 1055.50 896.42 L 1056.73 894.28 L 1057.97 892.14 L 1059.21 890.02 L 1060.42 887.88 L 1061.60 885.76" stroke="rgb(140,255,190)" stroke-opacity="0.730" stroke-width="1.17" />
  <path d="M 1071.13 995.71 L 1074.36 996.64 L 1077.56 997.62 L 1080.76 998.59 L 1083.91 999.65 L 1087.03 1000.74 L 1090.14 1001.84 L 1093.24 1002.94 L 1096.32 1004.05 L 1099.39 1005.14 L 1102.42 1006.29 L 1105.43 1007.47 L 1108.44 1008.61 L 1111.45 1009.73 L 1114.45 1010.83 L 1117.41 1012.00 L 1120.38 1013.10 L 1123.32 1014.24 L 1126.25 1015.35 L 1129.14 1016.53" stroke="rgb(140,255,190)" stroke-opacity="0.728" stroke-width="1.16" />
  <path d="M 1000.65 996.25 L 1003.94 996.53 L 1007.21 996.82 L 1010.47 997.06 L 1013.71 997.34 L 1016.95 997.58 L 1020.17 997.86 L 1023.37 998.12 L 1026.57 998.37 L 1029.75 998.63 L 1032.92 998.88 L 1036.08 999.08 L 1039.23 999.26 L 1042.37 999.43 L 1045.50 999.57 L 1048.61 999.69 L 1051.71 999.82 L 1054.80 999.97 L 1057.87 1000.12 L 1060.93 1000.29 L 1063.98 1000.43 L 1067.01 1000.63 L 1070.03 1000.82 L 1073.05 1000.98 L 1076.05 1001.12 L 1079.04 1001.27 L 1082.02 1001.41 L 1084.99 1001.55 L 1087.94 1001.69 L 1090.89 1001.83" stroke="rgb(140,255,190)" stroke-opacity="0.727" stroke-width="1.16" />
  <path d="M 1089.27 1005.48 L 1092.46 1005.89 L 1095.65 1006.23 L 1098.84 1006.60 L 1102.04 1006.87 L 1105.24 1007.20 L 1108.39 1007.64 L 1111.54 1008.07 L 1114.66 1008.49 L 1117.79 1008.85 L 1120.91 1009.21 L 1124.02 1009.49 L 1127.11 1009.78 L 1130.19 1010.07 L 1133.25 1010.39 L 1136.31 1010.62 L 1139.35 1010.88 L 1142.37 1011.12 L 1145.36 1011.35 L 1148.36 1011.57 L 1151.35 1011.82 L 1154.31 1012.09 L 1157.25 1012.36 L 1160.19 1012.61 L 1163.10 1012.91 L 1166.00 1013.28 L 1168.86 1013.69 L 1171.71 1014.09 L 1174.54 1014.48 L 1177.37 1014.86 L 1180.21 1015.26" stroke="rgb(140,255,190)" stroke-opacity="0.725" stroke-width="1.16" />
  <path d="M 999.95 999.03 L 1002.52 997.66 L 1005.07 996.29 L 1007.62 994.99 L 1010.15 993.69 L 1012.66 992.37 L 1015.15 991.07 L 1017.64 989.78 L 1020.10 988.48 L 1022.55 987.18 L 1024.99 985.89 L 1027.37 984.56 L 1029.76 983.23 L 1032.15 981.91 L 1034.50 980.54 L 1036.86 979.18 L 1039.22 977.85 L 1041.59 976.53 L 1043.93 975.21 L 1046.24 973.89 L 1048.55 972.61 L 1050.86 971.36 L 1053.14 970.07 L 1055.40 968.78 L 1057.66 967.50 L 1059.94 966.30 L 1062.13 965.08 L 1064.34 963.89 L 1066.53 962.71 L 1068.71 961.49 L 1070.88 960.28 L 1073.04 959.05 L 1075.16 957.81 L 1077.26 956.58 L 1079.37 955.37 L 1081.43 954.10 L 1083.49 952.85 L 1085.52 951.58 L 1087.52 950.29 L 1089.52 948.99 L 1091.50 947.68 L 1093.43 946.34 L 1095.35 945.01 L 1097.18 943.59 L 1099.02 942.18 L 1100.89 940.84 L 1102.76 939.51 L 1104.63 938.22 L 1106.51 936.95 L 1108.37 935.71 L 1110.20 934.41 L 1112.03 933.16 L 1113.90 931.96 L 1115.75 930.75 L 1117.55 929.50 L 1119.32 928.26 L 1121.08 927.01 L 1122.84 925.75 L 1124.59 924.50 L 1126.34 923.22 L 1128.09 921.94" stroke="rgb(205,165,255)" stroke-opacity="0.482" stroke-width="1.16" />
  <path d="M 1003.65 999.37 L 1004.83 1000.04 L 1005.95 1000.72 L 1007.08 1001.51 L 1008.21 1002.28 L 1009.34 1003.05 L 1010.48 1003.79 L 1011.57 1004.53 L 1012.53 1005.32 L 1013.44 1006.13 L 1014.34 1006.93 L 1015.22 1007.72 L 1016.04 1008.52 L 1016.88 1009.22 L 1017.73 1009.91 L 1018.61 1010.61 L 1019.51 1011.34 L 1020.27 1012.07" stroke="rgb(205,165,255)" stroke-opacity="0.481" stroke-width="1.16" />
  <path d="M 1001.65 1004.37 L 1004.46 1005.07 L 1007.25 1005.69 L 1010.06 1006.34 L 1012.85 1007.00 L 1015.67 1007.59 L 1018.52 1008.10 L 1021.35 1008.61 L 1024.18 1009.11 L 1026.99 1009.62 L 1029.79 1010.13 L 1032.59 1010.63 L 1035.37 1011.12 L 1038.15 1011.65 L 1040.90 1012.21 L 1043.64 1012.76 L 1046.37 1013.28 L 1049.08 1013.87 L 1051.79 1014.44 L 1054.48 1015.01 L 1057.15 1015.58 L 1059.83 1016.11 L 1062.49 1016.67 L 1065.14 1017.23 L 1067.78 1017.79 L 1070.42 1018.33 L 1073.05 1018.86 L 1075.67 1019.35 L 1078.27 1019.88 L 1080.85 1020.44 L 1083.42 1021.04 L 1085.98 1021.62 L 1088.56 1022.09 L 1091.11 1022.61 L 1093.65 1023.14 L 1096.14 1023.81 L 1098.62 1024.48 L 1101.09 1025.13 L 1103.55 1025.78 L 1106.00 1026.32 L 1108.45 1026.86 L 1110.91 1027.31 L 1113.35 1027.79 L 1115.78 1028.26 L 1118.22 1028.72 L 1120.62 1029.26" stroke="rgb(205,165,255)" stroke-opacity="0.481" stroke-width="1.15" />
  <path d="M 1078.12 1010.27 L 1081.28 1009.34 L 1084.44 1008.41 L 1087.57 1007.46 L 1090.67 1006.50 L 1093.77 1005.57 L 1096.85 1004.62 L 1099.95 1003.72 L 1103.03 1002.79 L 1106.09 1001.85 L 1109.13 1000.91 L 1112.17 1000.00 L 1115.19 999.09 L 1118.21 998.20 L 1121.20 997.27 L 1124.17 996.35 L 1127.14 995.41 L 1130.09 994.48 L 1133.06 993.60 L 1136.01 992.69 L 1138.94 991.77 L 1141.86 990.86 L 1144.78 990.00 L 1147.69 989.11 L 1150.58 988.21 L 1153.46 987.34 L 1156.33 986.47 L 1159.19 985.59 L 1162.03 984.70 L 1164.86 983.81" stroke="rgb(140,255,190)" stroke-opacity="0.723" stroke-width="1.15" />
  <path d="M 998.53 1001.39 L 1000.68 1002.31 L 1002.77 1003.37 L 1004.83 1004.47 L 1006.89 1005.57 L 1008.94 1006.64 L 1010.96 1007.70 L 1012.95 1008.80 L 1014.93 1009.90 L 1016.91 1010.99 L 1018.83 1012.13 L 1020.75 1013.24 L 1022.66 1014.34 L 1024.58 1015.46 L 1026.50 1016.55 L 1028.38 1017.66 L 1030.25 1018.73 L 1032.12 1019.79 L 1033.99 1020.84 L 1035.78 1021.95 L 1037.47 1023.17 L 1039.13 1024.40 L 1040.83 1025.53 L 1042.52 1026.65 L 1044.20 1027.75 L 1045.87 1028.83 L 1047.54 1029.90 L 1049.20 1030.94 L 1050.85 1031.97 L 1052.55 1032.94 L 1054.22 1033.96 L 1055.91 1034.96 L 1057.60 1035.97 L 1059.29 1036.95 L 1060.95 1037.98 L 1062.63 1038.94 L 1064.26 1039.94 L 1065.85 1041.00 L 1067.49 1041.99" stroke="rgb(140,255,190)" stroke-opacity="0.542" stroke-width="1.15" />
  <path d="M 1004.54 1001.44 L 1007.67 1001.49 L 1010.79 1001.58 L 1013.89 1001.67 L 1016.97 1001.74 L 1020.05 1001.85 L 1023.10 1001.99 L 1026.14 1002.21 L 1029.17 1002.44 L 1032.19 1002.66 L 1035.20 1002.93 L 1038.20 1003.19 L 1041.19 1003.42 L 1044.17 1003.66 L 1047.11 1003.93 L 1050.03 1004.24" stroke="rgb(140,255,190)" stroke-opacity="0.721" stroke-width="1.15" />
  <path d="M 999.43 1000.19 L 1001.84 1000.10 L 1004.24 1000.03 L 1006.63 999.92 L 1009.01 999.83 L 1011.39 999.74 L 1013.75 999.68 L 1016.11 999.63" stroke="rgb(140,255,190)" stroke-opacity="0.539" stroke-width="1.14" />
  <path d="M 902.50 1070.34 L 900.21 1072.47 L 897.96 1074.65 L 895.71 1076.83 L 893.53 1079.01 L 891.34 1081.18 L 889.16 1083.33 L 886.98 1085.45 L 884.78 1087.53 L 882.54 1089.56 L 880.33 1091.63 L 878.17 1093.70 L 876.08 1095.78 L 874.02 1097.87 L 871.99 1099.96 L 870.02 1102.09 L 868.10 1104.28 L 866.20 1106.47 L 864.30 1108.64 L 862.43 1110.84 L 860.59 1113.05 L 858.69 1115.19 L 856.79 1117.33 L 854.92 1119.48 L 853.05 1121.61 L 851.13 1123.71 L 849.16 1125.72 L 847.22 1127.75 L 845.28 1129.76 L 843.40 1131.82 L 841.55 1133.89 L 839.65 1135.92 L 837.78 1137.94 L 835.94 1139.98 L 834.11 1142.02 L 832.30 1144.06 L 830.49 1146.08 L 828.64 1148.06 L 826.81 1150.04 L 824.90 1151.93 L 823.08 1153.87 L 821.26 1155.80 L 819.46 1157.73" stroke="rgb(140,255,190)" stroke-opacity="0.718" stroke-width="1.14" />
  <path d="M 1093.65 1023.14 L 1096.20 1023.57 L 1098.74 1024.03 L 1101.31 1024.43 L 1103.80 1024.87 L 1106.19 1025.33 L 1108.61 1025.75 L 1111.04 1026.22 L 1113.45 1026.68 L 1115.85 1027.25 L 1118.24 1027.81 L 1120.63 1028.39 L 1123.01 1028.97 L 1125.39 1029.57 L 1127.83 1030.17 L 1130.24 1030.81 L 1132.64 1031.44 L 1135.01 1032.11 L 1137.38 1032.81 L 1139.71 1033.47 L 1142.05 1034.10 L 1144.37 1034.70 L 1146.68 1035.29 L 1148.98 1035.89 L 1151.27 1036.54 L 1153.55 1037.16 L 1155.80 1037.88 L 1158.03 1038.60 L 1160.21 1039.43 L 1162.39 1040.23 L 1164.52 1041.06 L 1166.71 1041.79 L 1168.87 1042.53 L 1171.01 1043.24 L 1173.14 1043.94 L 1175.25 1044.61 L 1177.36 1045.28 L 1179.45 1045.98 L 1181.53 1046.68 L 1183.63 1047.36 L 1185.70 1048.07 L 1187.76 1048.76 L 1189.83 1049.45 L 1191.94 1050.11 L 1194.02 1050.77 L 1196.09 1051.41 L 1198.14 1052.01 L 1200.16 1052.65 L 1202.18 1053.29 L 1204.20 1053.92 L 1206.21 1054.56" stroke="rgb(205,165,255)" stroke-opacity="0.476" stroke-width="1.13" />
  <path d="M 1000.79 1000.04 L 1003.89 1000.45 L 1006.96 1000.87 L 1010.04 1001.30 L 1013.12 1001.75 L 1016.19 1002.19 L 1019.27 1002.61 L 1022.34 1003.04 L 1025.40 1003.48 L 1028.44 1003.93 L 1031.46 1004.46 L 1034.47 1004.98 L 1037.48 1005.41 L 1040.49 1005.78 L 1043.49 1006.10" stroke="rgb(140,255,190)" stroke-opacity="0.716" stroke-width="1.13" />
  <path d="M 1048.32 1007.35 L 1051.17 1007.42 L 1053.96 1007.64 L 1056.75 1007.86 L 1059.54 1007.97 L 1062.37 1008.00 L 1065.19 1008.04 L 1068.00 1008.08 L 1070.79 1008.12 L 1073.57 1008.07 L 1076.34 1008.03 L 1079.09 1008.08 L 1081.82 1008.10 L 1084.56 1008.10 L 1087.29 1008.07 L 1089.99 1007.97 L 1092.68 1007.90 L 1095.35 1007.87 L 1098.01 1007.86 L 1100.67 1007.81 L 1103.31 1007.72 L 1105.93 1007.64 L 1108.54 1007.55 L 1111.15 1007.41 L 1113.76 1007.19 L 1116.35 1007.05 L 1118.93 1006.92 L 1121.50 1006.79 L 1124.06 1006.58 L 1126.60 1006.36 L 1129.11 1006.19 L 1131.65 1006.07 L 1134.18 1005.87 L 1136.70 1005.70 L 1139.17 1005.45 L 1141.61 1005.18 L 1144.07 1004.89 L 1146.51 1004.61 L 1148.95 1004.32 L 1151.38 1004.06 L 1153.83 1003.84 L 1156.26 1003.62 L 1158.69 1003.48 L 1161.13 1003.39 L 1163.55 1003.27 L 1165.95 1003.14 L 1168.38 1003.08 L 1170.79 1003.02 L 1173.16 1002.91 L 1175.50 1002.86 L 1177.81 1002.76 L 1180.10 1002.62 L 1182.36 1002.45 L 1184.63 1002.30 L 1186.90 1002.17 L 1189.16 1002.05 L 1191.46 1002.02 L 1193.75 1002.07 L 1196.03 1002.23 L 1198.30 1002.38 L 1200.52 1002.50 L 1202.71 1002.61 L 1204.89 1002.66 L 1207.06 1002.70 L 1209.25 1002.68 L 1211.43 1002.66 L 1213.57 1002.63 L 1215.69 1002.61 L 1217.80 1002.58 L 1219.92 1002.52 L 1222.03 1002.45 L 1224.14 1002.40 L 1226.24 1002.37 L 1228.32 1002.35 L 1230.40 1002.35 L 1232.46 1002.33 L 1234.51 1002.30 L 1236.57 1002.29 L 1238.61 1002.28 L 1240.61 1002.27 L 1242.61 1002.35 L 1244.59 1002.49 L 1246.56 1002.63 L 1248.52 1002.75" stroke="rgb(140,255,190)" stroke-opacity="0.537" stroke-width="1.13" />
  <path d="M 1039.10 996.99 L 1041.95 997.76 L 1044.80 998.52 L 1047.60 999.31 L 1050.37 1000.16 L 1053.15 1000.96 L 1055.92 1001.76 L 1058.69 1002.58 L 1061.43 1003.42 L 1064.17 1004.21 L 1066.91 1004.99 L 1069.63 1005.78 L 1072.32 1006.53 L 1075.00 1007.32 L 1077.65 1008.24 L 1080.28 1009.25 L 1082.90 1010.26 L 1085.55 1011.24 L 1088.14 1012.33 L 1090.72 1013.42 L 1093.33 1014.47 L 1095.92 1015.53 L 1098.49 1016.60 L 1101.06 1017.65 L 1103.61 1018.68 L 1106.18 1019.66 L 1108.73 1020.66 L 1111.26 1021.68 L 1113.80 1022.67 L 1116.33 1023.62 L 1118.85 1024.58 L 1121.38 1025.51 L 1123.91 1026.42 L 1126.42 1027.33 L 1128.93 1028.23 L 1131.41 1029.13 L 1133.89 1030.06 L 1136.36 1030.97 L 1138.82 1031.89 L 1141.27 1032.82 L 1143.74 1033.69 L 1146.21 1034.53 L 1148.68 1035.35 L 1151.14 1036.15 L 1153.59 1036.97 L 1156.00 1037.87 L 1158.39 1038.81" stroke="rgb(140,255,190)" stroke-opacity="0.536" stroke-width="1.13" />
  <path d="M 999.87 1000.76 L 1002.30 1000.97 L 1004.72 1001.15 L 1007.13 1001.38 L 1009.53 1001.67 L 1011.90 1002.00 L 1014.27 1002.31 L 1016.62 1002.67 L 1018.96 1003.04 L 1021.28 1003.39 L 1023.60 1003.76 L 1025.90 1004.17 L 1028.19 1004.59 L 1030.47 1005.04 L 1032.76 1005.38 L 1035.03 1005.71 L 1037.30 1006.00 L 1039.53 1006.26 L 1041.75 1006.50 L 1043.97 1006.75 L 1046.16 1007.04 L 1048.32 1007.35 L 1050.48 1007.73 L 1052.62 1008.02 L 1054.77 1008.37 L 1056.94 1008.61 L 1059.08 1008.85 L 1061.20 1009.16 L 1063.31 1009.47 L 1065.42 1009.71 L 1067.53 1009.93 L 1069.66 1010.02 L 1071.79 1010.09 L 1073.90 1010.16 L 1076.01 1010.21 L 1078.12 1010.27 L 1080.21 1010.29 L 1082.28 1010.27 L 1084.34 1010.26 L 1086.40 1010.20 L 1088.46 1010.11 L 1090.52 1010.06 L 1092.57 1009.99 L 1094.61 1009.92 L 1096.62 1009.77 L 1098.62 1009.62 L 1100.61 1009.47 L 1102.59 1009.29 L 1104.56 1009.07 L 1106.52 1008.86 L 1108.48 1008.64 L 1110.43 1008.39 L 1112.36 1008.14" stroke="rgb(140,255,190)" stroke-opacity="0.535" stroke-width="1.13" />
  <path d="M 950.71 1024.49 L 948.87 1026.20 L 947.08 1027.96 L 945.27 1029.69 L 943.52 1031.45 L 941.76 1033.20 L 939.97 1034.90 L 938.19 1036.60 L 936.38 1038.25 L 934.61 1039.93 L 932.90 1041.65 L 931.19 1043.33 L 929.51 1045.03 L 927.80 1046.71 L 926.12 1048.38 L 924.43 1050.04 L 922.72 1051.66 L 921.07 1053.34 L 919.41 1054.99 L 917.73 1056.62 L 916.06 1058.25 L 914.37 1059.82 L 912.72 1061.41 L 911.06 1062.98 L 909.41 1064.53 L 907.66 1065.97 L 905.91 1067.41 L 904.19 1068.86 L 902.50 1070.34 L 900.80 1071.79 L 899.08 1073.19 L 897.38 1074.61 L 895.68 1076.02 L 893.96 1077.40 L 892.25 1078.78 L 890.56 1080.14 L 888.90 1081.55 L 887.23 1082.93 L 885.57 1084.31 L 883.92 1085.68 L 882.27 1087.05 L 880.60 1088.38 L 878.90 1089.67" stroke="rgb(140,255,190)" stroke-opacity="0.534" stroke-width="1.12" />
  <path d="M 1000.58 998.07 L 1003.64 998.60 L 1006.67 999.18 L 1009.71 999.70 L 1012.75 1000.17 L 1015.77 1000.64 L 1018.78 1001.11 L 1021.77 1001.63 L 1024.74 1002.18 L 1027.69 1002.72 L 1030.64 1003.29 L 1033.54 1003.95 L 1036.44 1004.56 L 1039.33 1005.16 L 1042.24 1005.67 L 1045.12 1006.20 L 1048.00 1006.57 L 1050.87 1006.95 L 1053.73 1007.31 L 1056.59 1007.67 L 1059.45 1008.01 L 1062.29 1008.35 L 1065.11 1008.69 L 1067.95 1008.95 L 1070.77 1009.22 L 1073.58 1009.50 L 1076.38 1009.77 L 1079.17 1010.08 L 1081.94 1010.38 L 1084.71 1010.66 L 1087.47 1010.89 L 1090.22 1011.16 L 1092.95 1011.48 L 1095.67 1011.84 L 1098.37 1012.24 L 1101.05 1012.64 L 1103.74 1012.99 L 1106.42 1013.28 L 1109.08 1013.60 L 1111.74 1013.90 L 1114.38 1014.21 L 1117.01 1014.56 L 1119.63 1014.90 L 1122.25 1015.25 L 1124.85 1015.56 L 1127.44 1015.90 L 1130.03 1016.23 L 1132.60 1016.54 L 1135.16 1016.84 L 1137.72 1017.13 L 1140.26 1017.41 L 1142.81 1017.55" stroke="rgb(140,255,190)" stroke-opacity="0.712" stroke-width="1.12" />
  <path d="M 999.88 1001.95 L 998.38 1000.76 L 996.91 999.57 L 995.41 998.33 L 993.93 997.06 L 992.41 995.88 L 990.94 994.66 L 989.46 993.46 L 987.96 992.27 L 986.40 991.09 L 984.78 989.95 L 983.15 988.84 L 981.51 987.75 L 979.85 986.64 L 978.21 985.52 L 976.58 984.41 L 975.01 983.30 L 973.51 982.17" stroke="rgb(205,165,255)" stroke-opacity="0.472" stroke-width="1.12" />
  <path d="M 1002.12 1000.04 L 1005.21 1000.05 L 1008.28 1000.09 L 1011.34 1000.17 L 1014.39 1000.25 L 1017.42 1000.40 L 1020.44 1000.52 L 1023.44 1000.66 L 1026.43 1000.85 L 1029.41 1001.00 L 1032.38 1001.11 L 1035.34 1001.23 L 1038.28 1001.35 L 1041.21 1001.53 L 1044.12 1001.78 L 1047.02 1002.02 L 1049.89 1002.28" stroke="rgb(140,255,190)" stroke-opacity="0.532" stroke-width="1.12" />
  <path d="M 1000.89 1001.06 L 1003.72 1001.16 L 1006.53 1001.25 L 1009.32 1001.43 L 1012.09 1001.70 L 1014.85 1001.90 L 1017.60 1002.02 L 1020.33 1002.11 L 1023.08 1002.26 L 1025.81 1002.39 L 1028.54 1002.44 L 1031.25 1002.47 L 1033.95 1002.38 L 1036.65 1002.31 L 1039.33 1002.23 L 1042.01 1002.22 L 1044.67 1002.19 L 1047.32 1002.15 L 1049.97 1002.11 L 1052.59 1002.05 L 1055.22 1002.01 L 1057.83 1001.99 L 1060.44 1001.97 L 1063.03 1002.02 L 1065.61 1002.07 L 1068.19 1002.12 L 1070.75 1002.17 L 1073.31 1002.29 L 1075.85 1002.42 L 1078.39 1002.47 L 1080.92 1002.52 L 1083.43 1002.50 L 1085.94 1002.38 L 1088.43 1002.22 L 1090.90 1002.09 L 1093.36 1001.87 L 1095.80 1001.67 L 1098.25 1001.45 L 1100.68 1001.21 L 1103.10 1000.95 L 1105.52 1000.75 L 1107.92 1000.42 L 1110.30 1000.06 L 1112.68 999.71 L 1115.02 999.21 L 1117.35 998.73 L 1119.68 998.27 L 1121.99 997.80 L 1124.31 997.38 L 1126.61 996.92 L 1128.89 996.43 L 1131.19 996.07 L 1133.47 995.72 L 1135.74 995.36 L 1138.01 995.02 L 1140.28 994.70 L 1142.53 994.38 L 1144.77 994.05 L 1147.02 993.76 L 1149.26 993.49 L 1151.49 993.25 L 1153.70 992.96 L 1155.91 992.72 L 1158.11 992.43 L 1160.29 992.13 L 1162.46 991.84 L 1164.61 991.54 L 1166.75 991.21 L 1168.88 990.91 L 1171.01 990.61 L 1173.12 990.32 L 1175.23 990.05 L 1177.33 989.77 L 1179.41 989.50 L 1181.48 989.22 L 1183.54 988.92 L 1185.59 988.64 L 1187.62 988.30 L 1189.64 988.00" stroke="rgb(140,255,190)" stroke-opacity="0.530" stroke-width="1.11" />
  <path d="M 1000.85 998.94 L 998.48 998.29 L 996.09 997.73 L 993.70 997.21 L 991.31 996.71 L 988.94 996.12 L 986.57 995.58 L 984.21 995.07 L 981.85 994.52 L 979.49 993.96 L 977.13 993.48 L 974.78 993.01 L 972.45 992.53 L 970.13 992.07 L 967.84 991.61 L 965.53 991.17 L 963.24 990.74" stroke="rgb(140,255,190)" stroke-opacity="0.528" stroke-width="1.11" />
  <path d="M 974.39 1012.59 L 972.14 1013.30 L 969.89 1014.03 L 967.65 1014.74 L 965.39 1015.43 L 963.12 1016.09 L 960.86 1016.75 L 958.67 1017.40 L 956.42 1018.01 L 954.20 1018.66 L 952.03 1019.26 L 949.86 1019.90 L 947.69 1020.53 L 945.54 1021.06 L 943.40 1021.59 L 941.28 1022.13 L 939.14 1022.52 L 936.97 1022.89 L 934.86 1023.22 L 932.76 1023.45 L 930.69 1023.69 L 928.61 1023.86 L 926.59 1024.07 L 924.58 1024.29 L 922.57 1024.51 L 920.51 1024.82 L 918.45 1025.08 L 916.42 1025.33 L 914.36 1025.50 L 912.32 1025.55 L 910.30 1025.55 L 908.31 1025.51 L 906.30 1025.52 L 904.32 1025.58 L 902.30 1025.72 L 900.29 1025.92 L 898.28 1026.14 L 896.32 1026.42 L 894.37 1026.69 L 892.43 1026.96 L 890.56 1027.34 L 888.72 1027.67 L 886.90 1028.01 L 885.09 1028.38 L 883.26 1028.80 L 881.44 1029.27 L 879.58 1029.71 L 877.70 1030.12 L 875.85 1030.46 L 874.03 1030.86 L 872.24 1031.29 L 870.45 1031.66" stroke="rgb(140,255,190)" stroke-opacity="0.528" stroke-width="1.10" />
  <path d="M 999.96 996.75 L 1002.77 997.16 L 1005.56 997.56 L 1008.35 997.97 L 1011.15 998.31 L 1013.96 998.61 L 1016.74 998.97 L 1019.52 999.28 L 1022.27 999.61 L 1025.02 999.92 L 1027.75 1000.25 L 1030.47 1000.62 L 1033.16 1001.04 L 1035.88 1001.34 L 1038.56 1001.76 L 1041.25 1002.19 L 1043.90 1002.65 L 1046.58 1003.16 L 1049.24 1003.68 L 1051.87 1004.29 L 1054.49 1004.89 L 1057.10 1005.49" stroke="rgb(140,255,190)" stroke-opacity="0.528" stroke-width="1.10" />
  <path d="M 938.79 1029.99 L 937.64 1031.08 L 936.50 1032.15 L 935.34 1033.12 L 934.21 1034.07 L 933.19 1034.89 L 932.14 1035.79 L 931.06 1036.71 L 929.97 1037.56 L 928.91 1038.41 L 927.92 1039.30 L 926.93 1040.08 L 925.95 1040.89 L 924.98 1041.71 L 923.91 1042.65 L 922.85 1043.58 L 921.89 1044.47 L 920.94 1045.35 L 919.98 1046.21 L 919.15 1047.19 L 918.35 1048.16 L 917.59 1049.07 L 916.81 1049.98" stroke="rgb(140,255,190)" stroke-opacity="0.528" stroke-width="1.10" />
  <path d="M 1045.69 1082.93 L 1045.32 1084.62 L 1044.96 1086.32 L 1044.61 1088.00 L 1044.15 1089.60 L 1043.66 1091.22 L 1043.25 1092.72 L 1042.82 1094.39 L 1042.31 1096.04 L 1041.72 1097.60 L 1041.16 1099.06 L 1040.66 1100.54 L 1040.11 1102.02 L 1039.51 1103.57 L 1038.79 1105.08 L 1038.02 1106.59 L 1037.30 1108.14 L 1036.65 1109.72 L 1036.08 1111.33 L 1035.50 1112.85 L 1034.86 1114.37 L 1034.25 1115.91 L 1033.57 1117.43 L 1032.92 1118.92 L 1032.17 1120.43 L 1031.40 1121.94 L 1030.70 1123.56 L 1030.04 1125.22 L 1029.41 1126.89 L 1028.76 1128.53 L 1028.11 1130.21 L 1027.44 1131.88 L 1026.76 1133.64" stroke="rgb(205,165,255)" stroke-opacity="0.467" stroke-width="1.10" />
  <path d="M 1003.74 999.80 L 1005.29 1002.05 L 1006.83 1004.26 L 1008.36 1006.46 L 1009.90 1008.64 L 1011.43 1010.82 L 1013.02 1012.97 L 1014.59 1015.09 L 1016.10 1017.24 L 1017.55 1019.46 L 1019.04 1021.62 L 1020.49 1023.80 L 1022.04 1025.91 L 1023.56 1028.03 L 1025.06 1030.14 L 1026.55 1032.27 L 1027.99 1034.40 L 1029.43 1036.52 L 1030.86 1038.64" stroke="rgb(140,255,190)" stroke-opacity="0.526" stroke-width="1.10" />
  <path d="M 998.97 999.88 L 1001.49 1000.54 L 1004.02 1001.14 L 1006.53 1001.74 L 1009.03 1002.39 L 1011.53 1002.99 L 1014.00 1003.64 L 1016.46 1004.29 L 1018.91 1004.95 L 1021.34 1005.63 L 1023.76 1006.30 L 1026.17 1006.95 L 1028.57 1007.60 L 1030.97 1008.25 L 1033.35 1008.90 L 1035.70 1009.58 L 1038.07 1010.21 L 1040.44 1010.81" stroke="rgb(140,255,190)" stroke-opacity="0.525" stroke-width="1.09" />
  <path d="M 0.15 905.57 L 3.34 905.52 L 6.37 906.39 L 9.01 906.13 L 11.87 906.15 L 15.33 906.77 L 17.94 907.54 L 21.22 907.47 L 23.61 907.67 L 27.17 908.08 L 29.84 908.53 L 32.85 908.59 L 35.68 908.80 L 38.76 909.41 L 41.95 909.17 L 44.77 909.49 L 47.91 909.91 L 51.14 910.32 L 53.93 910.49 L 56.98 910.89 L 59.80 910.83 L 62.66 911.19 L 66.14 911.96 L 68.79 911.94 L 71.42 911.82 L 74.74 912.78 L 77.60 912.59 L 80.90 913.08 L 83.31 913.39 L 86.79 914.08 L 89.50 913.96 L 92.67 914.12 L 95.42 914.83 L 98.55 914.44 L 101.46 915.01 L 104.29 915.41 L 107.40 915.79 L 110.18 915.86 L 113.65 916.19 L 116.28 916.44 L 119.49 916.67 L 122.37 916.77 L 125.37 917.17 L 128.30 917.80 L 131.45 917.76 L 134.26 917.85 L 137.63 918.50 L 140.40 919.17 L 142.97 918.98 L 146.61 919.76 L 149.29 919.50 L 152.59 920.13 L 155.07 919.88 L 158.04 920.34 L 161.33 920.38 L 163.94 920.84 L 167.17 920.90 L 169.88 921.48 L 172.87 921.91 L 176.24 922.25 L 179.31 922.06 L 181.83 922.74 L 185.33 922.87 L 188.33 923.16 L 191.20 923.23 L 194.19 923.76 L 196.77 923.79 L 200.11 924.56 L 203.27 924.83 L 205.76 925.08 L 209.12 925.08 L 211.96 925.93 L 214.83 925.68 L 217.86 926.02 L 221.06 926.47 L 224.06 926.56 L 227.53 927.23 L 229.96 927.53 L 232.38 927.44 L 235.70 927.67 L 239.15 928.18 L 242.34 928.38 L 244.71 928.34 L 248.26 928.33 L 250.52 929.16 L 253.64 929.16 L 256.86 929.67 L 259.73 930.14 L 262.71 930.20 L 265.92 930.39 L 268.76 931.19 L 271.74 931.21 L 274.76 931.17 L 277.39 931.82 L 280.80 931.91 L 283.56 932.16 L 286.63 932.83 L 289.34 932.92 L 292.91 933.01 L 295.85 933.52 L 298.70 933.84 L 301.91 934.33 L 304.55 934.55 L 308.12 934.78 L 310.51 935.18 L 313.94 934.62 L 316.98 935.25 L 319.38 935.60 L 322.87 936.10 L 325.93 936.34 L 327.97 936.44 L 331.48 937.00 L 334.90 936.97 L 337.50 937.68 L 340.78 938.01 L 343.03 937.98 L 346.29 938.22 L 349.50 938.44 L 352.45 938.82 L 355.33 938.85 L 358.70 939.73 L 361.13 939.72 L 364.60 940.16 L 367.24 940.29 L 370.26 940.22 L 373.36 940.84 L 376.24 941.14 L 379.14 941.47 L 382.19 941.33 L 385.05 941.75 L 388.28 942.32 L 390.90 942.58 L 393.97 943.10 L 397.16 943.21 L 399.93 943.06 L 403.02 943.54 L 405.83 943.54 L 409.55 944.41 L 412.27 944.46 L 415.08 944.59 L 418.24 945.13 L 420.95 945.11 L 423.83 945.50 L 426.84 945.98 L 430.28 946.07 L 432.71 946.42 L 436.36 946.84 L 439.09 946.65 L 442.06 947.24 L 444.91 947.64 L 447.84 948.01 L 450.67 948.04 L 454.37 948.24 L 457.30 948.84 L 460.35 949.27 L 463.30 949.08 L 465.89 949.52 L 468.85 949.48 L 471.52 949.91 L 474.75 950.09 L 478.50 950.79 L 480.65 950.96 L 483.61 951.28 L 486.91 951.44 L 489.83 951.85 L 492.99 952.04 L 496.14 952.40 L 498.86 952.44 L 501.81 953.13 L 504.72 953.43 L 507.86 953.41 L 510.88 953.20 L 513.93 954.25 L 516.69 954.10 L 519.52 954.70 L 522.27 954.80 L 525.69 955.32 L 529.05 955.31 L 531.75 955.51 L 535.08 956.32 L 537.83 956.27 L 540.53 956.48 L 543.19 957.29 L 546.90 956.86 L 549.56 957.66 L 552.78 957.44 L 555.32 958.15 L 558.38 958.00 L 561.40 958.41 L 564.08 959.00 L 567.84 959.17 L 570.65 959.77 L 573.30 959.89 L 575.97 960.29 L 578.98 959.92 L 582.44 960.28 L 585.48 960.85 L 588.48 960.97 L 591.09 961.30 L 594.21 961.77 L 597.26 961.74 L 600.03 962.62 L 603.21 962.19 L 606.69 962.80 L 609.32 963.21 L 612.32 963.57 L 615.00 963.34 L 618.64 964.16 L 621.48 964.29 L 623.89 964.06 L 626.70 964.59 L 629.77 965.18 L 633.03 965.52 L 636.09 965.87 L 639.05 965.74 L 642.53 966.82 L 645.30 966.24 L 648.05 967.18 L 651.43 966.99 L 654.26 967.44 L 657.36 968.06 L 660.56 968.06 L 662.74 968.00 L 665.76 968.26 L 669.13 968.84 L 672.06 968.99 L 674.78 969.25 L 678.27 969.53 L 680.98 969.66 L 683.55 969.76 L 686.64 970.31 L 689.92 970.69 L 693.12 970.75 L 696.11 971.27 L 699.05 971.51 L 702.10 971.92 L 704.59 972.10 L 707.95 972.26 L 710.72 972.62 L 713.70 973.67 L 716.92 973.15 L 720.00 973.25 L 722.89 974.31 L 725.79 974.31 L 728.63 974.09 L 731.95 974.43 L 734.62 974.79 L 737.93 975.11 L 740.65 975.22 L 743.74 975.55 L 746.60 976.37 L 749.23 976.68 L 753.10 976.22 L 756.14 976.63 L 758.35 977.12 L 761.40 977.62 L 764.46 978.25 L 767.84 977.89 L 770.30 977.90 L 773.68 978.80 L 776.42 979.08 L 779.33 979.11 L 782.38 979.70 L 785.23 979.93 L 788.61 980.07 L 791.43 980.04 L 794.58 980.68 L 797.65 980.81 L 800.42 980.90 L 803.34 980.96 L 806.44 982.10 L 809.20 982.14 L 812.14 982.33 L 815.53 982.20 L 818.34 982.45 L 820.98 982.99 L 824.16 983.61 L 827.37 983.52 L 830.39 984.44 L 833.25 984.06 L 836.03 984.69 L 839.24 984.78 L 842.51 985.26 L 845.07 985.15 L 847.82 985.53 L 851.16 986.27 L 853.90 986.61 L 857.19 986.36 L 860.10 986.76 L 863.00 986.76 L 866.33 987.52 L 869.20 987.99 L 872.17 987.96 L 874.90 988.13 L 877.57 988.19 L 881.07 988.86 L 884.33 989.05 L 887.15 989.51 L 889.77 989.56 L 892.92 989.98 L 896.31 989.99 L 898.66 990.34 L 901.97 990.19 L 905.37 991.03 L 907.92 991.12 L 910.90 991.52 L 913.85 992.16 L 916.92 992.17 L 920.08 992.52 L 922.83 992.94 L 925.55 993.53 L 929.00 993.12 L 931.70 993.68 L 934.85 994.01 L 937.59 994.29 L 941.06 994.26 L 943.46 994.15 L 946.87 994.87 L 949.67 995.31 L 952.32 995.85 L 955.94 996.12 L 958.79 996.07 L 961.40 996.44 L 964.59 996.52 L 967.72 996.76 L 970.34 996.96 L 973.55 997.58 L 976.51 998.02 L 979.36 998.15 L 982.63 998.65 L 985.55 998.61 L 988.75 998.89 L 991.39 999.22 L 994.33 999.64 L 997.42 999.47 L 1000.00 1000.00 L 1002.99 1000.28 L 1005.97 1000.57 L 1008.96 1000.86 L 1011.95 1001.14 L 1014.93 1001.44 L 1017.92 1001.73 L 1020.90 1002.01 L 1023.89 1002.29 L 1026.88 1002.58 L 1029.86 1002.85 L 1032.85 1003.14 L 1035.84 1003.41 L 1038.83 1003.69 L 1041.81 1003.97 L 1044.80 1004.25 L 1047.79 1004.52 L 1050.77 1004.79 L 1053.76 1005.05 L 1056.75 1005.31 L 1059.74 1005.56 L 1062.73 1005.80 L 1065.72 1006.06 L 1068.71 1006.32 L 1071.70 1006.58 L 1074.69 1006.83 L 1077.68 1007.08 L 1080.67 1007.32 L 1083.66 1007.56 L 1086.65 1007.80 L 1089.64 1008.04 L 1092.63 1008.28 L 1095.62 1008.52 L 1098.61 1008.75 L 1101.60 1008.97 L 1104.59 1009.20 L 1107.59 1009.42 L 1110.58 1009.64 L 1113.57 1009.86 L 1116.56 1010.08 L 1119.55 1010.31 L 1122.54 1010.55 L 1125.53 1010.80 L 1128.52 1011.05 L 1131.51 1011.31 L 1134.50 1011.56 L 1137.49 1011.80 L 1140.48 1012.04 L 1143.47 1012.29 L 1146.46 1012.55 L 1149.45 1012.81 L 1152.44 1013.06 L 1155.43 1013.30 L 1158.42 1013.55 L 1161.41 1013.80 L 1164.39 1014.07 L 1167.38 1014.34 L 1170.37 1014.63 L 1173.36 1014.90 L 1176.34 1015.17 L 1179.33 1015.44 L 1182.32 1015.71 L 1185.31 1015.97 L 1188.30 1016.23 L 1191.29 1016.47 L 1194.28 1016.70 L 1197.27 1016.94 L 1200.26 1017.18 L 1203.25 1017.41 L 1206.24 1017.64 L 1209.23 1017.88 L 1212.22 1018.11 L 1215.22 1018.34 L 1218.21 1018.56 L 1221.20 1018.80 L 1224.19 1019.05 L 1227.18 1019.30 L 1230.17 1019.54 L 1233.16 1019.77 L 1236.15 1019.99 L 1239.14 1020.21 L 1242.13 1020.44 L 1245.13 1020.66 L 1248.12 1020.89 L 1251.11 1021.13 L 1254.10 1021.36 L 1257.09 1021.59 L 1260.08 1021.83 L 1263.07 1022.09 L 1266.06 1022.34 L 1269.05 1022.59 L 1272.04 1022.85 L 1275.03 1023.09 L 1278.02 1023.34 L 1281.01 1023.59 L 1283.99 1023.84 L 1286.98 1024.09 L 1289.97 1024.35 L 1292.96 1024.62 L 1295.95 1024.88 L 1298.94 1025.14 L 1301.93 1025.40 L 1304.92 1025.66 L 1307.90 1025.93 L 1310.89 1026.19 L 1313.88 1026.46 L 1316.87 1026.73 L 1319.86 1027.00 L 1322.84 1027.26 L 1325.83 1027.51 L 1328.82 1027.78 L 1331.81 1028.04 L 1334.80 1028.29 L 1337.79 1028.52 L 1340.78 1028.76 L 1343.77 1028.98 L 1346.77 1029.21 L 1349.76 1029.44 L 1352.75 1029.68 L 1355.74 1029.92 L 1358.73 1030.16 L 1361.72 1030.41 L 1364.70 1030.68 L 1367.69 1030.95 L 1370.68 1031.23 L 1373.67 1031.51 L 1376.65 1031.81 L 1379.64 1032.09 L 1382.62 1032.38 L 1385.61 1032.66 L 1388.60 1032.95 L 1391.58 1033.24 L 1394.57 1033.52 L 1397.56 1033.81 L 1400.54 1034.12 L 1403.52 1034.42 L 1406.51 1034.72 L 1409.49 1035.02 L 1412.48 1035.33 L 1415.46 1035.63 L 1418.45 1035.94 L 1421.43 1036.24 L 1424.41 1036.57 L 1427.40 1036.88 L 1430.38 1037.21 L 1433.36 1037.51 L 1436.35 1037.82 L 1439.33 1038.13 L 1442.32 1038.42 L 1445.30 1038.73 L 1448.29 1039.04 L 1451.27 1039.37 L 1454.25 1039.70 L 1457.23 1040.04 L 1460.21 1040.37 L 1463.19 1040.71 L 1466.17 1041.05 L 1469.16 1041.38 L 1472.14 1041.72 L 1475.12 1042.05 L 1478.10 1042.38 L 1481.08 1042.72 L 1484.06 1043.06 L 1487.04 1043.40 L 1490.02 1043.74 L 1493.00 1044.08 L 1495.98 1044.42 L 1498.96 1044.77 L 1501.94 1045.12 L 1504.92 1045.45 L 1507.91 1045.79 L 1510.89 1046.14 L 1513.87 1046.47 L 1516.85 1046.81 L 1519.83 1047.15 L 1522.81 1047.49 L 1525.79 1047.83 L 1528.77 1048.16 L 1531.75 1048.49 L 1534.74 1048.81 L 1537.72 1049.11 L 1540.70 1049.43 L 1543.69 1049.75 L 1546.67 1050.05 L 1549.66 1050.36 L 1552.64 1050.67 L 1555.62 1050.97 L 1558.61 1051.27 L 1561.60 1051.56 L 1564.58 1051.85 L 1567.57 1052.14 L 1570.55 1052.44 L 1573.54 1052.74 L 1576.52 1053.03 L 1579.51 1053.34 L 1582.49 1053.63 L 1585.48 1053.93 L 1588.46 1054.22 L 1591.45 1054.51 L 1594.44 1054.80 L 1597.42 1055.08 L 1600.41 1055.36 L 1603.40 1055.65 L 1606.38 1055.95 L 1609.37 1056.25 L 1612.35 1056.53 L 1615.34 1056.82 L 1618.32 1057.11 L 1621.31 1057.40 L 1624.30 1057.69 L 1627.28 1058.00 L 1630.27 1058.30 L 1633.25 1058.60 L 1636.24 1058.89 L 1639.22 1059.18 L 1642.21 1059.47 L 1645.20 1059.74 L 1648.18 1060.01 L 1651.17 1060.28 L 1654.16 1060.54 L 1657.15 1060.80 L 1660.14 1061.05 L 1663.13 1061.32 L 1666.12 1061.58 L 1669.10 1061.85 L 1672.09 1062.12 L 1675.08 1062.39 L 1678.07 1062.67 L 1681.05 1062.94 L 1684.04 1063.21 L 1687.03 1063.49 L 1690.01 1063.78 L 1693.00 1064.07 L 1695.99 1064.36 L 1698.97 1064.66 L 1701.96 1064.96 L 1704.94 1065.25 L 1707.93 1065.54 L 1710.91 1065.83 L 1713.90 1066.11 L 1716.89 1066.37 L 1719.88 1066.62 L 1722.87 1066.86 L 1725.86 1067.08 L 1728.85 1067.32 L 1731.84 1067.56 L 1734.83 1067.80 L 1737.82 1068.04 L 1740.81 1068.29 L 1743.80 1068.55 L 1746.79 1068.79 L 1749.78 1069.04 L 1752.77 1069.31 L 1755.76 1069.59 L 1758.74 1069.86 L 1761.73 1070.14 L 1764.72 1070.41 L 1767.71 1070.69 L 1770.69 1070.96 L 1773.68 1071.23 L 1776.67 1071.50 L 1779.66 1071.77 L 1782.65 1072.03 L 1785.63 1072.29 L 1788.62 1072.55 L 1791.61 1072.82 L 1794.60 1073.10 L 1797.59 1073.37 L 1800.57 1073.64 L 1803.56 1073.92 L 1806.55 1074.19 L 1809.54 1074.47 L 1812.52 1074.74 L 1815.51 1075.03 L 1818.50 1075.30 L 1821.48 1075.58 L 1824.47 1075.88 L 1827.45 1076.17 L 1830.44 1076.44 L 1833.43 1076.70 L 1836.42 1076.98 L 1839.41 1077.25 L 1842.39 1077.53 L 1845.38 1077.80 L 1848.37 1078.08 L 1851.35 1078.36 L 1854.34 1078.64 L 1857.33 1078.93 L 1860.31 1079.22 L 1863.30 1079.52 L 1866.28 1079.81 L 1869.27 1080.09 L 1872.26 1080.37 L 1875.24 1080.66 L 1878.23 1080.97 L 1881.21 1081.28 L 1884.20 1081.59 L 1887.18 1081.89 L 1890.16 1082.20 L 1893.15 1082.51 L 1896.13 1082.81 L 1899.12 1083.12 L 1902.10 1083.42 L 1905.09 1083.72 L 1908.07 1084.01 L 1911.06 1084.30 L 1914.04 1084.60 L 1917.03 1084.90 L 1920.01 1085.21 L 1923.00 1085.53 L 1925.98 1085.87 L 1928.96 1086.19 L 1931.94 1086.53 L 1934.92 1086.87 L 1937.90 1087.21 L 1940.88 1087.56 L 1943.86 1087.91 L 1946.84 1088.26 L 1949.82 1088.62 L 1952.80 1088.98 L 1955.77 1089.36 L 1958.75 1089.74 L 1961.72 1090.13 L 1964.70 1090.52 L 1967.67 1090.90 L 1970.65 1091.29 L 1973.62 1091.68 L 1976.60 1092.06 L 1979.57 1092.45 L 1982.55 1092.83 L 1985.52 1093.21 L 1988.50 1093.58 L 1991.48 1093.96 L 1994.46 1094.32 L 1997.43 1094.68 L 2000.41 1095.05 L 2003.39 1095.40 L 2006.37 1095.76 L 2009.35 1096.12 L 2012.32 1096.49 L 2015.30 1096.84 L 2018.28 1097.20 L 2021.26 1097.56" stroke="rgb(245,245,245)" stroke-opacity="0.700" stroke-width="1.09" />
  <path d="M 1000.82 1000.68 L 1003.53 1000.86 L 1006.23 1001.04 L 1008.92 1001.22 L 1011.60 1001.41 L 1014.26 1001.61 L 1016.92 1001.75 L 1019.56 1001.91 L 1022.18 1002.07 L 1024.79 1002.23 L 1027.40 1002.39 L 1030.00 1002.42 L 1032.59 1002.46 L 1035.18 1002.43 L 1037.76 1002.41 L 1040.33 1002.48 L 1042.89 1002.56 L 1045.44 1002.62 L 1047.98 1002.69 L 1050.50 1002.78 L 1053.02 1002.91 L 1055.52 1002.99 L 1058.01 1003.07 L 1060.48 1003.24 L 1062.95 1003.39 L 1065.41 1003.57 L 1067.86 1003.74 L 1070.28 1003.92 L 1072.70 1004.09 L 1075.09 1004.30 L 1077.48 1004.51 L 1079.85 1004.75 L 1082.22 1004.96 L 1084.57 1005.17 L 1086.93 1005.32 L 1089.27 1005.48 L 1091.61 1005.67 L 1093.93 1005.87 L 1096.25 1006.07" stroke="rgb(140,255,190)" stroke-opacity="0.524" stroke-width="1.09" />
  <path d="M 1039.54 1053.86 L 1041.06 1054.81 L 1042.57 1055.76 L 1044.12 1056.64 L 1045.72 1057.40 L 1047.31 1058.14 L 1048.93 1058.88 L 1050.61 1059.72 L 1052.31 1060.56 L 1053.87 1061.46 L 1055.45 1062.38 L 1057.04 1063.21 L 1058.66 1064.12 L 1060.28 1065.01 L 1061.89 1065.90 L 1063.53 1066.79 L 1065.14 1067.70 L 1066.75 1068.58 L 1068.36 1069.49 L 1069.97 1070.42 L 1071.56 1071.34 L 1073.19 1072.37 L 1074.81 1073.44 L 1076.42 1074.50 L 1078.08 1075.49 L 1079.74 1076.46 L 1081.39 1077.39 L 1083.05 1078.32 L 1084.64 1079.30 L 1086.18 1080.33 L 1087.76 1081.35 L 1089.36 1082.39 L 1090.95 1083.50 L 1092.54 1084.59 L 1094.15 1085.66 L 1095.76 1086.69 L 1097.38 1087.71 L 1099.00 1088.77 L 1100.62 1089.81 L 1102.24 1090.80 L 1103.84 1091.73 L 1105.40 1092.73 L 1106.91 1093.82 L 1108.44 1094.88 L 1109.96 1095.95 L 1111.39 1097.09 L 1112.81 1098.23 L 1114.25 1099.28 L 1115.70 1100.36 L 1117.14 1101.41 L 1118.57 1102.47 L 1119.99 1103.52 L 1121.40 1104.61 L 1122.86 1105.66 L 1124.32 1106.68 L 1125.77 1107.71 L 1127.23 1108.71 L 1128.71 1109.66 L 1130.17 1110.62 L 1131.63 1111.59 L 1133.05 1112.61 L 1134.48 1113.61 L 1135.92 1114.58 L 1137.27 1115.65 L 1138.60 1116.74 L 1139.98 1117.84 L 1141.33 1118.92 L 1142.66 1120.01 L 1143.98 1121.09 L 1145.29 1122.17 L 1146.61 1123.29 L 1147.92 1124.39 L 1149.24 1125.44 L 1150.46 1126.60 L 1151.66 1127.80 L 1152.93 1128.95 L 1154.28 1129.97 L 1155.48 1131.11 L 1156.67 1132.35 L 1157.83 1133.62 L 1158.91 1134.90 L 1160.04 1136.12 L 1161.21 1137.28 L 1162.33 1138.51 L 1163.44 1139.73 L 1164.60 1140.85" stroke="rgb(205,165,255)" stroke-opacity="0.463" stroke-width="1.09" />
  <path d="M 1168.86 1013.69 L 1170.95 1014.38 L 1173.03 1015.07 L 1175.11 1015.77 L 1177.19 1016.47 L 1179.23 1017.17 L 1181.27 1017.88 L 1183.29 1018.55 L 1185.32 1019.21 L 1187.34 1019.87 L 1189.35 1020.55 L 1191.32 1021.23 L 1193.27 1021.89 L 1195.27 1022.45 L 1197.27 1023.02 L 1199.24 1023.58 L 1201.16 1024.16 L 1203.02 1024.77" stroke="rgb(140,255,190)" stroke-opacity="0.523" stroke-width="1.09" />
  <path d="M 1059.21 1081.04 L 1060.87 1082.16 L 1062.55 1083.40 L 1064.28 1084.63 L 1065.97 1085.86 L 1067.59 1087.19 L 1069.14 1088.50 L 1070.60 1089.83 L 1072.06 1091.16 L 1073.53 1092.53 L 1075.00 1094.01 L 1076.49 1095.48 L 1077.99 1096.88 L 1079.46 1098.29 L 1080.91 1099.72 L 1082.39 1101.20 L 1083.94 1102.54 L 1085.49 1103.86 L 1087.05 1105.19 L 1088.58 1106.52 L 1090.13 1107.85 L 1091.68 1109.17 L 1093.26 1110.50 L 1094.87 1111.82 L 1096.55 1112.98 L 1098.26 1114.10" stroke="rgb(205,165,255)" stroke-opacity="0.459" stroke-width="1.07" />
  <path d="M 1000.40 1003.45 L 1000.53 1005.55 L 1000.68 1007.65 L 1000.79 1009.74 L 1000.89 1011.83 L 1001.04 1013.91 L 1001.18 1015.99 L 1001.36 1018.04 L 1001.50 1020.09 L 1001.76 1022.10 L 1002.09 1024.09 L 1002.43 1026.07 L 1002.61 1028.05 L 1002.80 1030.01 L 1002.98 1031.96 L 1003.05 1033.92 L 1003.16 1035.90 L 1003.31 1037.87 L 1003.50 1039.82 L 1003.72 1041.78 L 1003.92 1043.73 L 1004.12 1045.68 L 1004.35 1047.60 L 1004.59 1049.53 L 1004.68 1051.47 L 1004.78 1053.40 L 1004.82 1055.31 L 1004.81 1057.23 L 1004.80 1059.13 L 1004.86 1061.02 L 1004.87 1062.90 L 1004.95 1064.78 L 1004.98 1066.65" stroke="rgb(205,165,255)" stroke-opacity="0.451" stroke-width="1.04" />
  <path d="M 1080.85 1020.44 L 1082.92 1020.15 L 1084.94 1019.69 L 1086.95 1019.23 L 1088.97 1018.71 L 1090.98 1018.18 L 1092.98 1017.63 L 1094.95 1017.07 L 1096.93 1016.52 L 1098.93 1015.98 L 1100.93 1015.51 L 1102.93 1015.06 L 1104.93 1014.62 L 1106.89 1014.16 L 1108.85 1013.79 L 1110.80 1013.34 L 1112.75 1012.90 L 1114.69 1012.43 L 1116.62 1011.97 L 1118.53 1011.47 L 1120.42 1010.93 L 1122.28 1010.33 L 1124.12 1009.70 L 1125.98 1009.15 L 1127.84 1008.60 L 1129.69 1008.08 L 1131.48 1007.41 L 1133.25 1006.74 L 1135.00 1006.04 L 1136.72 1005.30 L 1138.44 1004.59 L 1140.14 1003.86 L 1141.82 1003.13 L 1143.49 1002.47 L 1145.14 1001.81 L 1146.80 1001.12 L 1148.43 1000.41 L 1150.05 999.70 L 1151.66 999.02 L 1153.26 998.33 L 1154.87 997.63 L 1156.51 997.06 L 1158.16 996.46 L 1159.78 995.76 L 1161.37 995.02 L 1162.95 994.29 L 1164.54 993.55 L 1166.12 992.82" stroke="rgb(205,165,255)" stroke-opacity="0.444" stroke-width="1.02" />
  <path d="M 1002.06 1001.79 L 1003.07 1002.89 L 1004.08 1003.98 L 1005.07 1005.08 L 1006.12 1006.11 L 1007.20 1007.10 L 1008.27 1008.09" stroke="rgb(230,230,230)" stroke-opacity="0.386" stroke-width="0.71" />
  <path d="M 1004.16 995.87 L 1004.91 996.93 L 1005.68 997.95 L 1006.36 999.00 L 1007.02 1000.10 L 1007.65 1001.26 L 1008.25 1002.43 L 1008.90 1003.55 L 1009.63 1004.62" stroke="rgb(230,230,230)" stroke-opacity="0.382" stroke-width="0.70" />
  <path d="M 998.92 1002.00 L 999.60 1001.39 L 1000.19 1000.68 L 1000.85 999.73 L 1001.55 998.72 L 1002.32 997.80 L 1003.04 996.89 L 1003.87 996.02" stroke="rgb(230,230,230)" stroke-opacity="0.380" stroke-width="0.69" />
  <path d="M 998.71 1007.66 L 997.96 1008.60 L 997.24 1009.54 L 996.56 1010.50 L 995.82 1011.46 L 995.11 1012.46 L 994.47 1013.55 L 993.91 1014.65 L 993.34 1015.73 L 992.77 1016.83 L 992.23 1017.93" stroke="rgb(230,230,230)" stroke-opacity="0.379" stroke-width="0.69" />
  <path d="M 995.52 1002.34 L 995.10 1003.55 L 994.67 1004.75 L 994.24 1005.95 L 993.67 1007.11 L 993.02 1008.20 L 992.42 1009.34 L 991.88 1010.48 L 991.28 1011.53" stroke="rgb(230,230,230)" stroke-opacity="0.379" stroke-width="0.69" />
  <path d="M 997.22 1003.87 L 996.75 1003.08 L 996.51 1002.30" stroke="rgb(230,230,230)" stroke-opacity="0.378" stroke-width="0.69" />
  <path d="M 1002.34 1001.80 L 1003.03 1001.99 L 1003.75 1002.19 L 1004.44 1002.37 L 1005.06 1002.49 L 1005.75 1002.56 L 1006.34 1002.81 L 1006.96 1003.00 L 1007.73 1003.01" stroke="rgb(230,230,230)" stroke-opacity="0.375" stroke-width="0.68" />
  <path d="M 1001.01 1003.76 L 1002.29 1004.32 L 1003.41 1005.06 L 1004.61 1005.75 L 1005.80 1006.43 L 1006.93 1007.17 L 1008.01 1007.91 L 1009.10 1008.68 L 1010.12 1009.52 L 1010.98 1010.35 L 1011.96 1011.14 L 1012.92 1011.95 L 1013.87 1012.78 L 1014.78 1013.71 L 1015.67 1014.72 L 1016.67 1015.61 L 1017.70 1016.23 L 1018.71 1016.82 L 1019.74 1017.27 L 1020.81 1017.83 L 1021.89 1018.35 L 1022.98 1018.88" stroke="rgb(230,230,230)" stroke-opacity="0.374" stroke-width="0.68" />
  <path d="M 998.11 997.86 L 997.50 996.73 L 996.87 995.60 L 996.26 994.46 L 995.84 993.23 L 995.47 992.00 L 995.09 990.75 L 994.70 989.53 L 994.32 988.32 L 993.91 987.28 L 993.47 986.27 L 992.80 985.42 L 992.15 984.59 L 991.52 983.62" stroke="rgb(230,230,230)" stroke-opacity="0.371" stroke-width="0.67" />
  <path d="M 1006.82 1002.80 L 1006.15 1002.86 L 1005.49 1002.90 L 1004.64 1002.96 L 1003.82 1002.98 L 1002.91 1003.05 L 1002.00 1003.15 L 1001.21 1003.42 L 1000.31 1003.52" stroke="rgb(230,230,230)" stroke-opacity="0.362" stroke-width="0.64" />
  <path d="M 1006.23 997.48 L 1005.74 996.68 L 1005.27 995.91 L 1004.80 995.14 L 1004.31 994.35" stroke="rgb(230,230,230)" stroke-opacity="0.361" stroke-width="0.64" />
  <path d="M 1004.06 992.93 L 1004.30 991.70 L 1004.47 990.53 L 1004.74 989.39 L 1005.12 988.22 L 1005.48 987.04 L 1005.85 985.88 L 1006.23 984.75 L 1006.57 983.63 L 1006.91 982.49 L 1007.26 981.47 L 1007.59 980.42" stroke="rgb(230,230,230)" stroke-opacity="0.361" stroke-width="0.64" />
  <path d="M 1003.47 994.48 L 1003.63 993.23 L 1003.85 992.05 L 1004.04 990.93 L 1004.24 989.78 L 1004.45 988.71 L 1004.73 987.62 L 1005.09 986.49 L 1005.45 985.35 L 1005.74 984.18 L 1006.31 983.17 L 1006.92 982.17" stroke="rgb(230,230,230)" stroke-opacity="0.361" stroke-width="0.64" />
  <path d="M 998.97 1000.10 L 1000.27 1000.01 L 1001.60 999.88 L 1002.92 999.73 L 1004.24 999.59 L 1005.59 999.56 L 1006.93 999.56 L 1008.26 999.57 L 1009.57 999.64 L 1010.92 999.69 L 1012.28 999.70 L 1013.64 999.75 L 1015.02 999.78 L 1016.41 999.87 L 1017.78 1000.05 L 1019.14 1000.24 L 1020.50 1000.35" stroke="rgb(230,230,230)" stroke-opacity="0.361" stroke-width="0.64" />
  <path d="M 999.34 1003.90 L 1000.28 1003.22 L 1001.23 1002.47 L 1002.17 1001.78 L 1003.11 1001.10 L 1004.10 1000.52 L 1005.08 999.93 L 1006.05 999.37 L 1006.96 998.75 L 1007.89 998.13 L 1008.70 997.52 L 1009.51 996.90" stroke="rgb(230,230,230)" stroke-opacity="0.356" stroke-width="0.63" />
  <path d="M 998.29 1002.26 L 997.97 1003.65 L 997.71 1005.00 L 997.50 1006.39 L 997.38 1007.78 L 997.26 1009.16 L 997.12 1010.47 L 997.00 1011.80 L 996.89 1013.12 L 996.83 1014.47 L 996.72 1015.78 L 996.62 1017.10 L 996.52 1018.41 L 996.41 1019.69 L 996.29 1020.97 L 996.12 1022.24 L 995.93 1023.53" stroke="rgb(230,230,230)" stroke-opacity="0.355" stroke-width="0.63" />
  <path d="M 1009.32 999.63 L 1008.34 1000.21 L 1007.34 1000.69 L 1006.35 1000.99 L 1005.29 1001.34 L 1004.22 1001.67" stroke="rgb(230,230,230)" stroke-opacity="0.353" stroke-width="0.62" />
  <path d="M 999.13 997.69 L 997.82 997.41 L 996.56 997.16 L 995.31 996.86 L 994.19 996.53 L 993.18 996.10 L 992.20 995.71 L 991.18 995.29" stroke="rgb(230,230,230)" stroke-opacity="0.352" stroke-width="0.62" />
</g>
</svg>
