{
  "asset": {
    "version": "2.0",
    "generator": "TES-23 Cosmic Ray Renderer"
  },
  "extensionsUsed": [
    "KHR_materials_unlit"
  ],
  "extensionsRequired": [
    "KHR_materials_unlit"
  ],
  "scene": 0,
  "scenes": [
    {
      "nodes": [
        0
      ]
    }
  ],
  "nodes": [
    {
      "name": "CosmicRayEvent",
      "mesh": 0
    }
  ],
  "meshes": [
    {
      "name": "CosmicRayEvent",
      "primitives": [
        {
          "attributes": {
            "POSITION": 0
          },
          "material": 0,
          "mode": 1
        },
        {
          "attributes": {
            "POSITION": 1
          },
          "material": 1,
          "mode": 1
        },
        {
          "attributes": {
            "POSITION": 2
          },
          "material": 2,
          "mode": 1
        },
        {
          "attributes": {
            "POSITION": 3
          },
          "material": 3,
          "mode": 1
        },
        {
          "attributes": {
            "POSITION": 4
          },
          "material": 4,
          "mode": 1
        }
      ]
    }
  ],
  "materials": [
    {
      "name": "primary",
      "extensions": {
        "KHR_materials_unlit": {}
      },
      "pbrMetallicRoughness": {
        "baseColorFactor": [
          0.961,
          0.961,
          0.961,
          1
        ],
        "metallicFactor": 0,
        "roughnessFactor": 1
      }
    },
    {
      "name": "vertex",
      "extensions": {
        "KHR_materials_unlit": {}
      },
      "pbrMetallicRoughness": {
        "baseColorFactor": [
          0.902,
          0.902,
          0.902,
          0.9
        ],
        "metallicFactor": 0,
        "roughnessFactor": 1
      }
    },
    {
      "name": "em",
      "extensions": {
        "KHR_materials_unlit": {}
      },
      "pbrMetallicRoughness": {
        "baseColorFactor": [
          0.471,
          0.824,
          1,
          1
        ],
        "metallicFactor": 0,
        "roughnessFactor": 1
      }
    },
    {
      "name": "hadron",
      "extensions": {
        "KHR_materials_unlit": {}
      },
      "pbrMetallicRoughness": {
        "baseColorFactor": [
          0.549,
          1,
          0.745,
          1
        ],
        "metallicFactor": 0,
        "roughnessFactor": 1
      }
    },
    {
      "name": "delta",
      "extensions": {
        "KHR_materials_unlit": {}
      },
      "pbrMetallicRoughness": {
        "baseColorFactor": [
          0.804,
          0.647,
          1,
          1
        ],
        "metallicFactor": 0,
        "roughnessFactor": 1
      }
    }
  ],
  "accessors": [
    {
      "bufferView": 0,
      "byteOffset": 0,
      "componentType": 5126,
      "count": 1764,
      "type": "VEC3",
      "min": [
        -0.8639304637908936,
        -0.9997527599334717,
        0
      ],
      "max": [
        0.8415782451629639,
        1.0206800699234009,
        0
      ]
    },
    {
      "bufferView": 1,
      "byteOffset": 0,
      "componentType": 5126,
      "count": 306,
      "type": "VEC3",
      "min": [
        -0.02577785775065422,
        -0.009610996581614017,
        -0.03823686018586159
      ],
      "max": [
        0.010230958461761475,
        0.016724219545722008,
        0.05011826381087303
      ]
    },
    {
      "bufferView": 2,
      "byteOffset": 0,
      "componentType": 5126,
      "count": 500,
      "type": "VEC3",
      "min": [
        -0.11408544331789017,
        -0.0033305208198726177,
        -0.016750892624258995
      ],
      "max": [
        0.002859449479728937,
        0.14698925614356995,
        0.10152440518140793
      ]
    },
    {
      "bufferView": 3,
      "byteOffset": 0,
      "componentType": 5126,
      "count": 2504,
      "type": "VEC3",
      "min": [
        -0.4410983622074127,
        -0.003860121127218008,
        -0.7876777052879333
      ],
      "max": [
        0.0027205192018300295,
        0.24975258111953735,
        0.42455029487609863
      ]
    },
    {
      "bufferView": 4,
      "byteOffset": 0,
      "componentType": 5126,
      "count": 380,
      "type": "VEC3",
      "min": [
        -0.09512993693351746,
        -0.001655497937463224,
        -0.30368733406066895
      ],
      "max": [
        0.0010423862840980291,
        0.0952378511428833,
        0.1806199550628662
      ]
    }
  ],
  "bufferViews": [
    {
      "buffer": 0,
      "byteOffset": 0,
      "byteLength": 21168,
      "target": 34962
    },
    {
      "buffer": 0,
      "byteOffset": 21168,
      "byteLength": 3672,
      "target": 34962
    },
    {
      "buffer": 0,
      "byteOffset": 24840,
      "byteLength": 6000,
      "target": 34962
    },
    {
      "buffer": 0,
      "byteOffset": 30840,
      "byteLength": 30048,
      "target": 34962
    },
    {
      "buffer": 0,
      "byteOffset": 60888,
      "byteLength": 4560,
      "target": 34962
    }
  ],
  "buffers": [
    {
      "byteLength": 65448,
      "uri": "data:application/octet-stream;base64,"
    }
  ]
}